# vtk DataFile Version 5.1
vtk output
ASCII
DATASET POLYDATA
POINTS 100 float
0.100738 0.0511121 0.699031 0.100745 0.0512845 0.698605 0.100807 0.0516473 0.697174 
0.100888 0.0521746 0.694785 0.100937 0.0528265 0.691512 0.10089 0.0535528 0.687448 
0.100684 0.0542978 0.682691 0.100264 0.0550055 0.677334 0.0995893 0.0556249 0.671455 
0.0986414 0.0561141 0.66511 0.0974234 0.0564429 0.658327 0.0959592 0.0565947 0.651106 
0.0942885 0.0565661 0.643426 0.0924582 0.0563652 0.635246 0.0905136 0.0560087 0.626518 
0.0884885 0.0555184 0.617198 0.0863975 0.0549172 0.607254 0.0842303 0.0542258 0.596674 
0.0819501 0.0534597 0.585473 0.0794953 0.0526275 0.573694 0.0767864 0.0517308 0.561403 
0.0737341 0.0507652 0.548686 0.0702513 0.0497222 0.53564 0.0662638 0.0485925 0.522364 
0.0617209 0.047369 0.508946 0.0566032 0.0460503 0.495455 0.050926 0.0446432 0.481935 
0.0447387 0.0431643 0.468402 0.0381199 0.041641 0.454841 0.0311684 0.0401101 0.44121 
0.0239917 0.0386162 0.42745 0.0166937 0.0372086 0.413484 0.00936206 0.0359377 0.399235 
0.00205967 0.0348511 0.384627 -0.00518167 0.0339903 0.369594 -0.012362 0.0333877 0.354085 
-0.0195092 0.0330648 0.338066 -0.0266702 0.0330317 0.321516 -0.0338992 0.0332869 0.304428 
-0.0412433 0.0338198 0.2868 -0.0487283 0.0346124 0.268636 -0.0563465 0.035642 0.249937 
-0.0640481 0.0368847 0.230699 -0.0717373 0.0383172 0.210912 -0.0792745 0.0399189 0.190565 
-0.0864836 0.0416734 0.169642 -0.0931652 0.0435675 0.148133 -0.0991121 0.0455915 0.126037 
-0.104128 0.0477367 0.103369 -0.108044 0.0499939 0.0801618 -0.110736 0.0523509 0.0564699 
-0.112133 0.0547906 0.0323691 -0.112225 0.0572896 0.00795332 -0.111062 0.0598173 -0.0166704 
-0.108746 0.0623364 -0.0413891 -0.105422 0.0648032 -0.0660919 -0.101264 0.06717 -0.0906776 
-0.0964529 0.0693872 -0.115061 -0.0911643 0.0714059 -0.139177 -0.0855519 0.0731804 -0.162982 
-0.0797363 0.0746706 -0.186453 -0.0737985 0.0758436 -0.209583 -0.0677788 0.0766747 -0.232374 
-0.0616801 0.0771477 -0.25483 -0.0554764 0.0772543 -0.276952 -0.0491232 0.0769932 -0.298727 
-0.0425701 0.0763684 -0.320131 -0.0357733 0.0753877 -0.341122 -0.0287056 0.0740613 -0.361647 
-0.0213645 0.0724004 -0.381642 -0.0137758 0.0704171 -0.401045 -0.00599415 0.0681238 -0.419797 
0.0019008 0.0655338 -0.437858 0.00981057 0.0626626 -0.455202 0.017626 0.0595287 -0.471832 
0.0252363 0.0561554 -0.487768 0.0325369 0.0525713 -0.503053 0.0394368 0.0488121 -0.517738 
0.045863 0.0449196 -0.531874 0.0517628 0.0409423 -0.545503 0.0571036 0.036934 -0.558645 
0.0618708 0.0329517 -0.57129 0.0660645 0.0290537 -0.583393 0.0696952 0.0252972 -0.594873 
0.0727807 0.0217351 -0.605621 0.0753425 0.0184141 -0.615507 0.0774048 0.0153719 -0.624395 
0.0789942 0.012636 -0.632157 0.0801403 0.0102227 -0.638698 0.080878 0.00813625 -0.64396 
0.0812489 0.00637025 -0.647946 0.0813033 0.00490811 -0.650715 0.0811004 0.00372514 -0.652391 
0.0807077 0.00279064 -0.653152 0.0801983 0.00207047 -0.653214 0.0796474 0.00152968 -0.652817 
0.0791271 0.00113506 -0.6522 0.078701 0.000857597 -0.651581 0.0784192 0.000674501 -0.651129 
0.0783137 0.000570883 -0.650956 
LINES 2 100
OFFSETS vtktypeint64
0 100 
CONNECTIVITY vtktypeint64
0 1 2 3 4 5 6 7 8 
9 10 11 12 13 14 15 16 17 
18 19 20 21 22 23 24 25 26 
27 28 29 30 31 32 33 34 35 
36 37 38 39 40 41 42 43 44 
45 46 47 48 49 50 51 52 53 
54 55 56 57 58 59 60 61 62 
63 64 65 66 67 68 69 70 71 
72 73 74 75 76 77 78 79 80 
81 82 83 84 85 86 87 88 89 
90 91 92 93 94 95 96 97 98 
99 
POINT_DATA 100
FIELD FieldData 3
_theta 1 100 double
0 0.031733259127 0.063466518254 0.095199777382 0.12693303651 0.15866629564 0.19039955476 0.22213281389 0.25386607302 
0.28559933214 0.31733259127 0.3490658504 0.38079910953 0.41253236865 0.44426562778 0.47599888691 0.50773214603 0.53946540516 
0.57119866429 0.60293192342 0.63466518254 0.66639844167 0.6981317008 0.72986495992 0.76159821905 0.79333147818 0.82506473731 
0.85679799643 0.88853125556 0.92026451469 0.95199777382 0.98373103294 1.0154642921 1.0471975512 1.0789308103 1.1106640695 
1.1423973286 1.1741305877 1.2058638468 1.237597106 1.2693303651 1.3010636242 1.3327968833 1.3645301425 1.3962634016 
1.4279966607 1.4597299198 1.491463179 1.5231964381 1.5549296972 1.5866629564 1.6183962155 1.6501294746 1.6818627337 
1.7135959929 1.745329252 1.7770625111 1.8087957702 1.8405290294 1.8722622885 1.9039955476 1.9357288068 1.9674620659 
1.999195325 2.0309285841 2.0626618433 2.0943951024 2.1261283615 2.1578616206 2.1895948798 2.2213281389 2.253061398 
2.2847946572 2.3165279163 2.3482611754 2.3799944345 2.4117276937 2.4434609528 2.4751942119 2.506927471 2.5386607302 
2.5703939893 2.6021272484 2.6338605076 2.6655937667 2.6973270258 2.7290602849 2.7607935441 2.7925268032 2.8242600623 
2.8559933214 2.8877265806 2.9194598397 2.9511930988 2.982926358 3.0146596171 3.0463928762 3.0781261353 3.1098593945 
3.1415926536 
_radius 1 100 double
1.2235298712e-15 0.013279677834 0.02651949566 0.039671063232 0.052683211635 0.06550247498 0.078074773727 0.090347878215 0.10227389653 
0.11381096375 0.12492357235 0.13558149759 0.14575783282 0.15542701944 0.16456376539 0.17314338454 0.1811435104 0.18854659199 
0.19534230149 0.20152908169 0.20711447512 0.21211440353 0.21655195345 0.22045627882 0.22386192053 0.22680830926 0.22933874093 
0.23149797867 0.23332799222 0.23486211617 0.23611877399 0.23709645886 0.23777158582 0.23810014442 0.2380231045 0.23747468244 
0.23639213597 0.23472574692 0.2324479074 0.22956053307 0.22610023144 0.22214070054 0.21779178442 0.21319462086 0.20851260142 
0.20391860239 0.1995800833 0.19564470901 0.19222936528 0.18941440857 0.18724322575 0.18572566523 0.18484319113 0.18455366352 
0.18479433453 0.18548293871 0.18651834511 0.18778328487 0.18915121784 0.19049739872 0.19171190766 0.19271136296 0.19344666317 
0.19390563909 0.19411089936 0.19411387248 0.19398611184 0.19380870763 0.19366053779 0.19360628307 0.19368555192 0.19390482085 
0.19423382244 0.19460726835 0.19493152802 0.19509462431 0.19497721792 0.19446235443 0.19344247704 0.19182320682 0.18952430941 
0.18647886396 0.18263183723 0.17793907816 0.17236730503 0.16589511694 0.15851459041 0.15023276433 0.14107234869 0.13107128208 
0.12028117421 0.10876501408 0.096594659467 0.083848508414 0.070609473566 0.056963106101 0.042995640482 0.028791964899 0.014433966788 
9.4083495914e-16 
_area 1 100 double
0 0.00051045778919 0.0020319181194 0.0045342791149 0.0079664417423 0.012255865044 0.017309629216 0.023018018541 0.029260919335 
0.035916254349 0.042868679875 0.050016233839 0.057272795402 0.064565343073 0.071827171621 0.078990669534 0.085984059109 0.092734382633 
0.099175346246 0.10525616843 0.11094762753 0.1162434245 0.12115745226 0.12571930639 0.12997033971 0.13396051696 0.13774352003 
0.14136664527 0.14485532004 0.14819787061 0.15133809052 0.15417829153 0.15658988097 0.15842737155 0.15954328832 0.15980275691 
0.15909719927 0.15735691064 0.15456227754 0.15075286887 0.14603299154 0.14057220036 0.1345996903 0.1283918353 0.12225215208 
0.11648370449 0.11135612841 0.10706474992 0.10368244281 0.10110909179 0.099090927816 0.097371335362 0.095735400313 0.094044705796 
0.09225367399 0.090433312061 0.088839408264 0.087860268208 0.087331961922 0.087154068363 0.087177236412 0.087224988454 0.087137511169 
0.086797059002 0.086136020036 0.085141219881 0.083857620436 0.08238681094 0.0808757275 0.079495029003 0.078410419176 0.077752427898 
0.077593627621 0.077942566407 0.078749066425 0.079907421029 0.081260688432 0.082616815029 0.083769695701 0.08451494804 0.084661970351 
0.084045312198 0.082534913233 0.08004383188 0.07653287024 0.072012796945 0.06654580522 0.060247265327 0.053286864481 0.045886405892 
0.038311179418 0.030853116345 0.023806277916 0.017437760865 0.011959166705 0.007505014942 0.0041246718466 0.0017930273367 0.00044112236809 
2.1096204271e-17 
