# vtk DataFile Version 5.1
vtk output
ASCII
DATASET POLYDATA
POINTS 100 float
0.151609 0.0200158 0.613097 0.151569 0.0202339 0.612897 0.151508 0.0207673 0.612176 
0.151401 0.0216034 0.610958 0.151206 0.0227205 0.609274 0.150875 0.0240879 0.607161 
0.15035 0.0256655 0.60465 0.149573 0.0274038 0.601757 0.148489 0.0292447 0.598485 
0.147051 0.0311226 0.594812 0.145222 0.0329661 0.590697 0.142983 0.0347011 0.586082 
0.140325 0.0362532 0.580896 0.137257 0.0375522 0.575067 0.133801 0.0385356 0.568532 
0.129989 0.0391522 0.561245 0.125855 0.0393663 0.553185 0.121438 0.03916 0.544366 
0.11677 0.0385353 0.534834 0.111873 0.0375148 0.524669 0.106758 0.0361413 0.513975 
0.101422 0.0344762 0.502875 0.095849 0.032596 0.491497 0.0900087 0.0305893 0.479964 
0.0838655 0.0285514 0.468381 0.077381 0.0265797 0.456828 0.0705214 0.0247684 0.445353 
0.0632641 0.023204 0.433968 0.0556032 0.0219611 0.422655 0.0475542 0.0210991 0.411369 
0.0391558 0.0206603 0.400047 0.0304703 0.0206687 0.388618 0.0215799 0.0211299 0.37701 
0.0125817 0.0220329 0.365162 0.00358016 0.0233514 0.353028 -0.00532149 0.0250469 0.340578 
-0.0140295 0.0270718 0.327798 -0.0224671 0.0293724 0.314687 -0.0305804 0.0318919 0.301246 
-0.0383405 0.0345736 0.287475 -0.0457431 0.0373625 0.273362 -0.0528046 0.040208 0.258875 
-0.0595544 0.0430643 0.243964 -0.0660266 0.0458914 0.228556 -0.0722487 0.0486551 0.212559 
-0.078232 0.0513269 0.195875 -0.0839628 0.0538835 0.178402 -0.0893971 0.0563061 0.160054 
-0.0944587 0.0585801 0.140769 -0.0990419 0.060694 0.12052 -0.103019 0.0626399 0.0993246 
-0.106249 0.0644128 0.0772448 -0.108595 0.0660108 0.0543898 -0.109936 0.0674356 0.030908 
-0.110181 0.068692 0.00697727 -0.109284 0.0697891 -0.0172086 -0.107246 0.0707394 -0.0414545 
-0.104128 0.0715592 -0.0655786 -0.100039 0.0722679 -0.0894259 -0.0951316 0.0728866 -0.112877 
-0.0895924 0.0734376 -0.135856 -0.0836213 0.0739419 -0.158326 -0.077415 0.0744172 -0.180292 
-0.0711496 0.0748762 -0.201786 -0.0649645 0.0753238 -0.222862 -0.0589514 0.0757555 -0.24358 
-0.053148 0.0761553 -0.263995 -0.0475385 0.0764954 -0.284146 -0.0420599 0.0767357 -0.304052 
-0.0366139 0.0768243 -0.323701 -0.0310828 0.0767 -0.343059 -0.025348 0.0762947 -0.362065 
-0.0193075 0.0755372 -0.380643 -0.0128928 0.0743578 -0.39871 -0.00608012 0.0726931 -0.416182 
0.00110205 0.0704907 -0.432985 0.00857301 0.0677145 -0.449058 0.0162052 0.0643482 -0.464361 
0.0238355 0.0603984 -0.478874 0.03128 0.0558962 -0.492594 0.038352 0.0508974 -0.505532 
0.0448791 0.0454805 -0.517708 0.0507193 0.0397438 -0.529144 0.055773 0.0338005 -0.539858 
0.0599901 0.0277731 -0.549862 0.0633722 0.0217868 -0.559157 0.0659685 0.0159629 -0.567737 
0.0678672 0.0104123 -0.575589 0.0691839 0.00522991 -0.582696 0.0700472 0.000490902 -0.589045 
0.0705854 -0.00375237 -0.594629 0.070914 -0.00747089 -0.599455 0.0711266 -0.0106578 -0.60354 
0.0712895 -0.0133257 -0.60692 0.0714412 -0.0155019 -0.60964 0.071595 -0.0172235 -0.611755 
0.0717452 -0.0185309 -0.613321 0.071875 -0.0194626 -0.614391 0.0719648 -0.0200493 -0.61501 
0.0719995 -0.0203104 -0.615203 
LINES 2 100
OFFSETS vtktypeint64
0 100 
CONNECTIVITY vtktypeint64
0 1 2 3 4 5 6 7 8 
9 10 11 12 13 14 15 16 17 
18 19 20 21 22 23 24 25 26 
27 28 29 30 31 32 33 34 35 
36 37 38 39 40 41 42 43 44 
45 46 47 48 49 50 51 52 53 
54 55 56 57 58 59 60 61 62 
63 64 65 66 67 68 69 70 71 
72 73 74 75 76 77 78 79 80 
81 82 83 84 85 86 87 88 89 
90 91 92 93 94 95 96 97 98 
99 
POINT_DATA 100
FIELD FieldData 3
_theta 1 100 double
0 0.031733259127 0.063466518254 0.095199777382 0.12693303651 0.15866629564 0.19039955476 0.22213281389 0.25386607302 
0.28559933214 0.31733259127 0.3490658504 0.38079910953 0.41253236865 0.44426562778 0.47599888691 0.50773214603 0.53946540516 
0.57119866429 0.60293192342 0.63466518254 0.66639844167 0.6981317008 0.72986495992 0.76159821905 0.79333147818 0.82506473731 
0.85679799643 0.88853125556 0.92026451469 0.95199777382 0.98373103294 1.0154642921 1.0471975512 1.0789308103 1.1106640695 
1.1423973286 1.1741305877 1.2058638468 1.237597106 1.2693303651 1.3010636242 1.3327968833 1.3645301425 1.3962634016 
1.4279966607 1.4597299198 1.491463179 1.5231964381 1.5549296972 1.5866629564 1.6183962155 1.6501294746 1.6818627337 
1.7135959929 1.745329252 1.7770625111 1.8087957702 1.8405290294 1.8722622885 1.9039955476 1.9357288068 1.9674620659 
1.999195325 2.0309285841 2.0626618433 2.0943951024 2.1261283615 2.1578616206 2.1895948798 2.2213281389 2.253061398 
2.2847946572 2.3165279163 2.3482611754 2.3799944345 2.4117276937 2.4434609528 2.4751942119 2.506927471 2.5386607302 
2.5703939893 2.6021272484 2.6338605076 2.6655937667 2.6973270258 2.7290602849 2.7607935441 2.7925268032 2.8242600623 
2.8559933214 2.8877265806 2.9194598397 2.9511930988 2.982926358 3.0146596171 3.0463928762 3.0781261353 3.1098593945 
3.1415926536 
_radius 1 100 double
1.2525087917e-15 0.012648816667 0.025361792808 0.038186028042 0.05114333964 0.064220709203 0.077364419316 0.090479120477 0.10343254988 
0.11606576131 0.12820773242 0.13969236895 0.15037545732 0.16014914289 0.16895199941 0.17677355065 0.18365298434 0.18967254515 
0.19494658766 0.19960755335 0.20379039157 0.20761731232 0.21118507564 0.21455683514 0.21775959772 0.22078702561 0.22360633212 
0.22616772748 0.22841492489 0.2302951685 0.23176707011 0.23280463427 0.23339658417 0.23354141412 0.23323996999 0.23248815774 
0.23127225502 0.22956839358 0.22734656985 0.22457849783 0.22124793598 0.21736174256 0.21295975994 0.20812168804 0.202969351 
0.1976631403 0.19239205276 0.18735789402 0.18275591898 0.17875589804 0.17548821916 0.17303803902 0.17144684152 0.17071719196 
0.1708156536 0.17167142832 0.17317239547 0.17516327816 0.17745117646 0.17982126905 0.18206076982 0.1839848807 0.18545757194 
0.18640266657 0.18680440873 0.18669942451 0.1861632934 0.18529511843 0.1842028287 0.18299080049 0.18175017426 0.18055139148 
0.17943823385 0.17842309486 0.17748419669 0.17656635887 0.17558669995 0.1744448975 0.17303550038 0.17125899263 0.1690292485 
0.16627671329 0.16294804444 0.15900360715 0.15441416553 0.14915761157 0.1432160146 0.13657298091 0.12921140113 0.12111199802 
0.11225339242 0.10261442699 0.092179122149 0.08094397624 0.068926575178 0.056173880989 0.04276830735 0.028829866432 0.014513291778 
8.4158834409e-16 
_area 1 100 double
0 0.00039353681738 0.0015930282408 0.0036508449514 0.0066402037536 0.010635159794 0.015685953813 0.021794482398 0.028895890524 
0.036851710665 0.045457408792 0.054463374069 0.063604644198 0.07263240099 0.08134036053 0.089581490857 0.097273911447 0.10439778503 
0.11098623671 0.11711259398 0.12287462539 0.12837583156 0.13370517742 0.13891827287 0.14402206067 0.14896313519 0.15362353335 
0.15783506704 0.16141749187 0.16422697519 0.16619334555 0.16733341356 0.16773945508 0.16754973536 0.16690941036 0.16591673386 
0.16456099328 0.16273307084 0.16029250634 0.15710371559 0.15305419315 0.14808505967 0.14223052675 0.13563555722 0.12854132907 
0.12124807811 0.11407901496 0.10735187992 0.10131513828 0.096116403228 0.091743812828 0.088047769861 0.084927035321 0.082391512232 
0.080487224757 0.079270802487 0.078821655359 0.079183105327 0.080272231434 0.081839001826 0.083525224577 0.084967928065 0.08587769102 
0.086080184698 0.085527290244 0.084282504832 0.082487101695 0.080318515406 0.077951102033 0.075529525129 0.073165448809 0.070948336074 
0.06895815741 0.067273048986 0.065967428434 0.0651025125 0.064708990131 0.064730434857 0.064969309761 0.065181263503 0.06516234243 
0.064751847656 0.063825596237 0.062295289174 0.060109645981 0.057254464647 0.053750488283 0.049649161366 0.045027494537 0.039983889525 
0.034636251764 0.029122134897 0.02359914375 0.018243489373 0.013245383274 0.0088009572883 0.0051010006042 0.0023171847296 0.00058705654868 
3.2102598087e-17 
