# vtk DataFile Version 5.1
vtk output
ASCII
DATASET POLYDATA
POINTS 100 float
0.0640577 0.0600377 0.676155 0.0640329 0.0602155 0.675779 0.064007 0.0605692 0.674516 
0.063984 0.0610794 0.672412 0.0639694 0.0617145 0.669539 0.0639687 0.0624322 0.665984 
0.063985 0.063182 0.661838 0.0640174 0.0639081 0.657186 0.0640591 0.0645521 0.652097 
0.0640971 0.0650569 0.646613 0.0641124 0.0653698 0.640751 0.0640806 0.0654455 0.6345 
0.0639741 0.0652487 0.627824 0.063764 0.0647567 0.620674 0.0634225 0.0639604 0.612995 
0.0629241 0.0628655 0.604735 0.0622474 0.0614919 0.595859 0.0613747 0.059873 0.58635 
0.0602912 0.0580541 0.57622 0.058984 0.0560894 0.565506 0.0574394 0.0540395 0.554265 
0.0556416 0.0519674 0.542573 0.0535705 0.049935 0.53051 0.0512016 0.0479991 0.518153 
0.0485065 0.0462081 0.505569 0.0454548 0.044599 0.492802 0.0420175 0.043195 0.479875 
0.038171 0.0420043 0.466787 0.0339016 0.0410199 0.453516 0.0292093 0.0402206 0.440024 
0.0241107 0.0395732 0.426269 0.0186403 0.0390355 0.412208 0.012849 0.038561 0.397809 
0.00680079 0.0381027 0.383057 0.000567261 0.037619 0.367953 -0.00577944 0.0370775 0.352516 
-0.0121743 0.0364594 0.336776 -0.0185666 0.0357629 0.32077 -0.0249256 0.0350043 0.304528 
-0.0312433 0.0342184 0.288067 -0.0375343 0.0334568 0.271382 -0.0438311 0.0327849 0.254438 
-0.0501772 0.032277 0.23717 -0.0566156 0.0320109 0.219489 -0.0631768 0.0320612 0.201283 
-0.069866 0.0324934 0.182434 -0.0766521 0.0333575 0.162827 -0.0834591 0.034684 0.142369 
-0.0901627 0.0364796 0.121001 -0.0965919 0.038727 0.0987047 -0.102537 0.0413843 0.0755158 
-0.107761 0.0443883 0.0515199 -0.112018 0.0476587 0.0268493 -0.115074 0.0511033 0.00167342 
-0.116723 0.054625 -0.0238156 -0.116811 0.058128 -0.0494187 -0.115246 0.0615241 -0.0749471 
-0.112011 0.0647378 -0.100237 -0.107164 0.0677098 -0.12516 -0.100831 0.0703988 -0.149632 
-0.0931977 0.0727811 -0.173611 -0.0844914 0.0748486 -0.197096 -0.0749578 0.076605 -0.220114 
-0.0648403 0.0780606 -0.24271 -0.0543582 0.0792273 -0.264931 -0.04369 0.0801125 -0.286812 
-0.0329611 0.0807152 -0.308368 -0.0222394 0.081022 -0.329583 -0.011538 0.0810057 -0.350408 
-0.000824765 0.0806258 -0.370768 0.00996288 0.0798302 -0.390563 0.020899 0.0785601 -0.409685 
0.0320497 0.0767553 -0.42803 0.0434549 0.0743606 -0.445507 0.055114 0.0713331 -0.462054 
0.0669771 0.0676481 -0.477641 0.0789433 0.0633049 -0.492276 0.0908659 0.0583303 -0.506003 
0.102563 0.0527805 -0.518888 0.113836 0.0467406 -0.531018 0.124484 0.0403215 -0.542479 
0.134329 0.033655 -0.55335 0.143228 0.0268874 -0.563685 0.151089 0.020171 -0.573509 
0.157877 0.0136561 -0.582813 0.163615 0.0074821 -0.591556 0.168378 0.00177008 -0.599671 
0.172282 -0.00338376 -0.607077 0.175469 -0.00791264 -0.613694 0.178091 -0.0117817 -0.619453 
0.180288 -0.0149879 -0.624313 0.182183 -0.0175585 -0.628267 0.183862 -0.0195462 -0.63135 
0.185377 -0.0210237 -0.633637 0.186743 -0.0220764 -0.635236 0.187944 -0.0227945 -0.636279 
0.188943 -0.0232653 -0.636902 0.189692 -0.0235654 -0.637236 0.190149 -0.0237543 -0.637388 
0.190284 -0.0238697 -0.637427 
LINES 2 100
OFFSETS vtktypeint64
0 100 
CONNECTIVITY vtktypeint64
0 1 2 3 4 5 6 7 8 
9 10 11 12 13 14 15 16 17 
18 19 20 21 22 23 24 25 26 
27 28 29 30 31 32 33 34 35 
36 37 38 39 40 41 42 43 44 
45 46 47 48 49 50 51 52 53 
54 55 56 57 58 59 60 61 62 
63 64 65 66 67 68 69 70 71 
72 73 74 75 76 77 78 79 80 
81 82 83 84 85 86 87 88 89 
90 91 92 93 94 95 96 97 98 
99 
POINT_DATA 100
FIELD FieldData 3
_theta 1 100 double
0 0.031733259127 0.063466518254 0.095199777382 0.12693303651 0.15866629564 0.19039955476 0.22213281389 0.25386607302 
0.28559933214 0.31733259127 0.3490658504 0.38079910953 0.41253236865 0.44426562778 0.47599888691 0.50773214603 0.53946540516 
0.57119866429 0.60293192342 0.63466518254 0.66639844167 0.6981317008 0.72986495992 0.76159821905 0.79333147818 0.82506473731 
0.85679799643 0.88853125556 0.92026451469 0.95199777382 0.98373103294 1.0154642921 1.0471975512 1.0789308103 1.1106640695 
1.1423973286 1.1741305877 1.2058638468 1.237597106 1.2693303651 1.3010636242 1.3327968833 1.3645301425 1.3962634016 
1.4279966607 1.4597299198 1.491463179 1.5231964381 1.5549296972 1.5866629564 1.6183962155 1.6501294746 1.6818627337 
1.7135959929 1.745329252 1.7770625111 1.8087957702 1.8405290294 1.8722622885 1.9039955476 1.9357288068 1.9674620659 
1.999195325 2.0309285841 2.0626618433 2.0943951024 2.1261283615 2.1578616206 2.1895948798 2.2213281389 2.253061398 
2.2847946572 2.3165279163 2.3482611754 2.3799944345 2.4117276937 2.4434609528 2.4751942119 2.506927471 2.5386607302 
2.5703939893 2.6021272484 2.6338605076 2.6655937667 2.6973270258 2.7290602849 2.7607935441 2.7925268032 2.8242600623 
2.8559933214 2.8877265806 2.9194598397 2.9511930988 2.982926358 3.0146596171 3.0463928762 3.0781261353 3.1098593945 
3.1415926536 
_radius 1 100 double
7.9310069968e-16 0.013098622396 0.026322194311 0.039767773095 0.053493474153 0.067506446166 0.081757955131 0.096145880424 0.11052390258 
0.12471588067 0.13853342289 0.15179445479 0.16434066933 0.17605205599 0.18685716172 0.19673821571 0.20573066308 0.21391700986 
0.22141529835 0.22836312767 0.23489890554 0.24114277942 0.24718013634 0.25305039019 0.25874290732 0.26420056931 0.26933005234 
0.27401680407 0.27814211988 0.28159966302 0.28430913165 0.28622541427 0.28734235528 0.28769104542 0.28733325454 0.28635117694 
0.28483504784 0.28287040872 0.28052683459 0.27784976959 0.27485674506 0.2715386814 0.26786624012 0.26380040519 0.25930579094 
0.25436471951 0.24898992792 0.24323386421 0.23719291409 0.23100553994 0.22484414547 0.2189014007 0.21337267614 0.20843706396 
0.20424005177 0.20088089261 0.19840663083 0.19681264012 0.19604736387 0.19601811926 0.19659607771 0.19762125298 0.19891066044 
0.20027265633 0.20152734491 0.20252902748 0.20318487616 0.2034651425 0.20340288489 0.20308384192 0.20262894867 0.20217291471 
0.20184229796 0.20173583857 0.20190885354 0.2023626149 0.20303903046 0.20382062411 0.20453568128 0.2049683457 0.2048732557 
0.20399386764 0.20208296699 0.1989232453 0.194345527 0.18824244333 0.18057602469 0.17137859989 0.16074730084 0.14883319598 
0.1358265344 0.12193977709 0.10739007912 0.092382753647 0.077097073697 0.061675593084 0.046217976493 0.030780055028 0.015378390015 
6.7390071571e-16 
_area 1 100 double
0 0.0004874731742 0.00196136406 0.0044511895226 0.0079911438434 0.012601881617 0.018272395707 0.024946936375 0.032520654359 
0.040845438239 0.049744612619 0.059032161409 0.068529904139 0.07807697423 0.087532177339 0.096776981967 0.10572535957 0.11433737591 
0.12262797161 0.13066447769 0.13855105169 0.14640200364 0.15430900672 0.16230995499 0.17036876983 0.17837397963 0.18615870745 
0.1935369366 0.20034237374 0.20644888178 0.21175399847 0.21613820942 0.21945266077 0.22156002224 0.22238812804 0.22195734441 
0.22037922508 0.21784362022 0.21460289511 0.21084230799 0.20665799803 0.20187014716 0.19660656817 0.19091000261 0.1847938599 
0.17825163806 0.17127421468 0.16393416215 0.15637721299 0.148805047 0.1414476828 0.13452997125 0.12825636983 0.12288698667 
0.11832073886 0.11435453527 0.1109019433 0.1078632359 0.10518204155 0.10288186561 0.10102669929 0.099609311687 0.098648636963 
0.098099481143 0.097822073896 0.097595739346 0.097199143603 0.09648826138 0.095423979289 0.094060622535 0.092520993808 0.090953304108 
0.089487188416 0.088222524897 0.087222856361 0.086523407704 0.086146600507 0.086111878879 0.086340479701 0.086650905726 0.086857988714 
0.086727325006 0.085982019037 0.084358594468 0.081651840652 0.077741593569 0.072610279938 0.06635051747 0.059159691571 0.051320816494 
0.043172089829 0.035070155158 0.027353456921 0.020311822495 0.014166824204 0.009065179841 0.005084950224 0.0022518973769 0.00056137857711 
4.6051408022e-17 
