# vtk DataFile Version 5.1
vtk output
ASCII
DATASET POLYDATA
POINTS 100 float
0.11117 0.0303929 0.695108 0.111309 0.0306256 0.694883 0.111744 0.0312099 0.694069 
0.112417 0.0321149 0.692684 0.113243 0.0332914 0.690759 0.114117 0.0346768 0.688325 
0.114926 0.0362007 0.685415 0.115567 0.0377916 0.682052 0.115951 0.0393829 0.678245 
0.11602 0.0409186 0.673985 0.115745 0.042357 0.669246 0.115132 0.0436731 0.66398 
0.114216 0.0448585 0.658128 0.11305 0.0459194 0.651623 0.111699 0.0468733 0.644395 
0.110223 0.047744 0.636387 0.108665 0.0485559 0.627559 0.107043 0.049329 0.617896 
0.105341 0.0500742 0.607414 0.103509 0.0507899 0.596164 0.101463 0.0514607 0.584228 
0.0990927 0.0520579 0.571714 0.0962774 0.0525417 0.558753 0.0928954 0.0528656 0.545481 
0.0888418 0.0529816 0.532037 0.0840421 0.0528463 0.518543 0.078464 0.0524265 0.5051 
0.0721241 0.0517044 0.491774 0.0650895 0.0506814 0.478597 0.0574739 0.04938 0.46556 
0.0494274 0.0478434 0.45262 0.0411227 0.0461337 0.439702 0.0327379 0.0443276 0.426711 
0.0244384 0.0425108 0.413542 0.0163607 0.0407716 0.400088 0.00859829 0.0391944 0.386255 
0.00119369 0.0378534 0.371967 -0.00586421 0.0368075 0.357173 -0.012636 0.0360963 0.34185 
-0.0192213 0.0357389 0.326001 -0.0257437 0.0357334 0.30965 -0.0323319 0.0360592 0.292834 
-0.0390995 0.0366803 0.275597 -0.0461265 0.0375497 0.257977 -0.0534434 0.0386147 0.240002 
-0.0610207 0.0398217 0.221678 -0.0687651 0.0411208 0.202988 -0.0765227 0.0424694 0.183894 
-0.0840889 0.0438344 0.164335 -0.0912245 0.0451931 0.144239 -0.097676 0.0465331 0.12353 
-0.103198 0.0478504 0.102138 -0.107575 0.0491476 0.0800109 -0.110642 0.0504306 0.0571242 
-0.112298 0.0517063 0.0334886 -0.112515 0.0529801 0.00915379 -0.11134 0.0542537 -0.0157912 
-0.108889 0.0555245 -0.041222 -0.105335 0.0567851 -0.0669869 -0.100888 0.0580238 -0.0929171 
-0.0957792 0.0592257 -0.11884 -0.0902342 0.0603737 -0.14459 -0.0844562 0.06145 -0.170026 
-0.0786079 0.062437 -0.195033 -0.0727995 0.063318 -0.219536 -0.0670839 0.0640769 -0.2435 
-0.0614575 0.064698 -0.266923 -0.0558674 0.0651644 -0.289838 -0.0502246 0.0654576 -0.312296 
-0.0444195 0.0655557 -0.33436 -0.0383401 0.0654327 -0.356086 -0.0318894 0.0650591 -0.377516 
-0.0250006 0.0644015 -0.398665 -0.0176477 0.0634256 -0.419514 -0.00985203 0.062098 -0.440009 
-0.00168208 0.0603901 -0.460058 0.00675152 0.0582818 -0.479541 0.015306 0.0557658 -0.498317 
0.0238197 0.0528509 -0.516234 0.0321274 0.0495646 -0.533147 0.0400753 0.0459546 -0.548924 
0.0475345 0.0420882 -0.563464 0.0544114 0.0380505 -0.5767 0.0606534 0.0339401 -0.588609 
0.0662501 0.0298638 -0.599207 0.0712299 0.0259301 -0.608552 0.0756524 0.0222418 -0.616732 
0.0795974 0.0188889 -0.623859 0.0831532 0.0159423 -0.630057 0.0864034 0.0134489 -0.635447 
0.0894169 0.0114286 -0.640146 0.0922387 0.00987327 -0.644248 0.094886 0.00874867 -0.647826 
0.0973471 0.00799844 -0.650926 0.0995849 0.00755007 -0.653572 0.101544 0.00732233 -0.655765 
0.103158 0.00723351 -0.657494 0.104361 0.00720964 -0.658738 0.1051 0.00719187 -0.659479 
0.105337 0.00714238 -0.659702 
LINES 2 100
OFFSETS vtktypeint64
0 100 
CONNECTIVITY vtktypeint64
0 1 2 3 4 5 6 7 8 
9 10 11 12 13 14 15 16 17 
18 19 20 21 22 23 24 25 26 
27 28 29 30 31 32 33 34 35 
36 37 38 39 40 41 42 43 44 
45 46 47 48 49 50 51 52 53 
54 55 56 57 58 59 60 61 62 
63 64 65 66 67 68 69 70 71 
72 73 74 75 76 77 78 79 80 
81 82 83 84 85 86 87 88 89 
90 91 92 93 94 95 96 97 98 
99 
POINT_DATA 100
FIELD FieldData 3
_theta 1 100 double
0 0.031733259127 0.063466518254 0.095199777382 0.12693303651 0.15866629564 0.19039955476 0.22213281389 0.25386607302 
0.28559933214 0.31733259127 0.3490658504 0.38079910953 0.41253236865 0.44426562778 0.47599888691 0.50773214603 0.53946540516 
0.57119866429 0.60293192342 0.63466518254 0.66639844167 0.6981317008 0.72986495992 0.76159821905 0.79333147818 0.82506473731 
0.85679799643 0.88853125556 0.92026451469 0.95199777382 0.98373103294 1.0154642921 1.0471975512 1.0789308103 1.1106640695 
1.1423973286 1.1741305877 1.2058638468 1.237597106 1.2693303651 1.3010636242 1.3327968833 1.3645301425 1.3962634016 
1.4279966607 1.4597299198 1.491463179 1.5231964381 1.5549296972 1.5866629564 1.6183962155 1.6501294746 1.6818627337 
1.7135959929 1.745329252 1.7770625111 1.8087957702 1.8405290294 1.8722622885 1.9039955476 1.9357288068 1.9674620659 
1.999195325 2.0309285841 2.0626618433 2.0943951024 2.1261283615 2.1578616206 2.1895948798 2.2213281389 2.253061398 
2.2847946572 2.3165279163 2.3482611754 2.3799944345 2.4117276937 2.4434609528 2.4751942119 2.506927471 2.5386607302 
2.5703939893 2.6021272484 2.6338605076 2.6655937667 2.6973270258 2.7290602849 2.7607935441 2.7925268032 2.8242600623 
2.8559933214 2.8877265806 2.9194598397 2.9511930988 2.982926358 3.0146596171 3.0463928762 3.0781261353 3.1098593945 
3.1415926536 
_radius 1 100 double
2.7355879697e-16 0.0116625483 0.023473374608 0.035552940611 0.04797712119 0.060760946457 0.073849344053 0.087116633389 0.10037538067 
0.11339373809 0.12591897496 0.13770392673 0.14853272926 0.158242478 0.16673823529 0.17399990738 0.18008069937 0.18509791302 
0.18921762872 0.19263526221 0.19555417261 0.19816453732 0.20062468122 0.20304693845 0.20548983315 0.2079577633 0.21040838674 
0.21276660003 0.21494264039 0.21685087667 0.21842570861 0.2196317879 0.22046724158 0.22096020995 0.22116029703 0.22112714051 
0.22091818463 0.22057713485 0.22012396794 0.21954724592 0.21879996176 0.21780074453 0.2164420945 0.21460591754 0.21218450204 
0.20910334161 0.20534156445 0.20094611848 0.19603684094 0.19080077238 0.18547546823 0.18032270866 0.17559599686 0.17150737095 
0.16820060632 0.16573758175 0.16410120095 0.16321224756 0.16295221143 0.16318329276 0.16376071208 0.16453789035 0.16536885992 
0.16611299206 0.16664472133 0.16686694328 0.16672389817 0.16620926742 0.16536709079 0.16428522588 0.16308252699 0.16189174502 
0.16084057948 0.16003343487 0.15953623638 0.1593661742 0.1594875092 0.15981356565 0.16021386915 0.16052455164 0.16056016132 
0.16012579054 0.15902926293 0.15709337711 0.15416783433 0.1501398565 0.14494205876 0.1385561348 0.13101140268 0.12237814909 
0.11275678851 0.10226483252 0.091024230592 0.07915155521 0.066752693804 0.053922372559 0.040747407035 0.02731157202 0.013699788286 
8.0598453632e-16 
_area 1 100 double
0 0.00037057418157 0.0014999526872 0.0034369502603 0.006249238968 0.010003749191 0.014742176381 0.02045614432 0.027068266198 
0.034425265069 0.042306723888 0.050448406585 0.05857419646 0.066427960659 0.073797766163 0.080529292725 0.086530120374 0.091768795275 
0.09627152997 0.1001167515 0.10342570603 0.10634751143 0.10903984437 0.11165040451 0.11430531937 0.1171048833 0.12011844053 
0.12337036426 0.12682139618 0.13036299373 0.13384088118 0.13709890092 0.1400143993 0.14251041349 0.14455125102 0.14613226826 
0.14726913726 0.14798736878 0.1483109349 0.14824832796 0.14777580701 0.14682196135 0.14526375945 0.14294559291 0.13972334313 
0.13552045686 0.1303752317 0.12446195775 0.11807819347 0.11160256339 0.10543610555 0.099933940228 0.095324123221 0.091638192277 
0.088717810799 0.086310143207 0.08417906345 0.082172854074 0.080244077842 0.078438338037 0.076863154882 0.075635119055 0.074805584425 
0.074306583302 0.073967538949 0.073578912957 0.072950077346 0.071945619188 0.070505521238 0.068653870808 0.066496162319 0.064204383277 
0.061991137227 0.060076604208 0.058653867691 0.057858594333 0.057747384808 0.058285673461 0.059345496512 0.060717444944 0.062136629209 
0.063311397634 0.063949336493 0.063784893551 0.062609800956 0.060301153611 0.056840204414 0.052316818638 0.046918040732 0.040903050749 
0.034569897359 0.028220919232 0.022133286278 0.016538934134 0.011615306634 0.0074858392435 0.0042275891301 0.0018827924061 0.00047112849375 
1.49962413e-17 
