# vtk DataFile Version 5.1
vtk output
ASCII
DATASET POLYDATA
POINTS 100 float
0.131047 0.0498094 0.67353 0.131093 0.0499899 0.673558 0.1313 0.050412 0.673519 
0.131627 0.0510696 0.673359 0.132011 0.0519519 0.672995 0.132372 0.053043 0.67232 
0.132624 0.0543204 0.67121 0.132689 0.055754 0.669533 0.132498 0.0573061 0.667159 
0.132002 0.0589308 0.663965 0.131174 0.0605749 0.659851 0.130008 0.0621792 0.654741 
0.128515 0.0636807 0.64859 0.126717 0.0650151 0.641389 0.124641 0.0661199 0.633162 
0.122307 0.0669377 0.623968 0.119724 0.067419 0.613894 0.116887 0.0675254 0.60305 
0.11377 0.0672314 0.591561 0.110335 0.0665258 0.579558 0.10653 0.0654131 0.567168 
0.102302 0.0639124 0.554508 0.0976022 0.0620574 0.541675 0.092396 0.0598949 0.528744 
0.0866692 0.0574826 0.51576 0.0804325 0.0548872 0.502741 0.0737218 0.0521824 0.489675 
0.0665952 0.0494461 0.476529 0.0591267 0.0467582 0.463248 0.0513963 0.0441985 0.449765 
0.0434807 0.0418443 0.436006 0.0354426 0.0397676 0.421895 0.0273232 0.0380339 0.407361 
0.0191377 0.0366989 0.39234 0.010875 0.0358071 0.376782 0.00250239 0.0353894 0.360646 
-0.00602574 0.035462 0.343904 -0.0147553 0.036025 0.326538 -0.0237187 0.0370624 0.308539 
-0.0329207 0.0385424 0.289903 -0.0423266 0.0404188 0.270629 -0.0518545 0.0426337 0.250718 
-0.0613727 0.0451203 0.230174 -0.0707034 0.0478068 0.209001 -0.0796323 0.0506206 0.187209 
-0.087924 0.0534923 0.164813 -0.0953405 0.0563593 0.141836 -0.101662 0.0591685 0.118315 
-0.106707 0.0618784 0.0942983 -0.110347 0.0644593 0.0698495 -0.112522 0.0668928 0.0450473 
-0.113242 0.0691693 0.0199827 -0.112588 0.0712856 -0.00524359 -0.1107 0.0732408 -0.0305254 
-0.107767 0.075033 -0.0557562 -0.104002 0.0766561 -0.0808346 -0.0996259 0.078097 -0.105669 
-0.0948457 0.0793344 -0.130184 -0.0898367 0.0803393 -0.154318 -0.0847297 0.0810761 -0.178032 
-0.0796048 0.0815056 -0.201302 -0.0744907 0.081589 -0.224121 -0.069371 0.0812916 -0.246495 
-0.0641946 0.0805875 -0.268437 -0.0588901 0.0794629 -0.289964 -0.0533814 0.0779186 -0.311088 
-0.0476021 0.075971 -0.331818 -0.0415075 0.0736517 -0.352152 -0.0350824 0.0710047 -0.37208 
-0.0283437 0.0680833 -0.391578 -0.0213387 0.0649453 -0.410616 -0.0141385 0.061648 -0.429156 
-0.00682868 0.0582434 -0.447156 0.000501066 0.0547743 -0.464578 0.00776761 0.0512717 -0.481386 
0.0149026 0.0477538 -0.497549 0.0218574 0.0442265 -0.513047 0.0286049 0.0406865 -0.527869 
0.0351361 0.0371244 -0.542009 0.0414549 0.0335296 -0.55547 0.0475692 0.0298954 -0.568258 
0.0534826 0.0262229 -0.580379 0.0591862 0.0225243 -0.591838 0.0646528 0.018825 -0.602638 
0.0698352 0.0151633 -0.612774 0.0746678 0.011588 -0.62224 0.0790724 0.00815555 -0.631022 
0.0829678 0.00492434 -0.639108 0.0862802 0.00194976 -0.646485 0.0889553 -0.000721404 -0.653142 
0.0909682 -0.00305562 -0.659075 0.0923306 -0.00503577 -0.664287 0.0930938 -0.00666258 -0.66879 
0.0933466 -0.00795389 -0.672603 0.0932084 -0.008942 -0.675753 0.0928181 -0.00966919 -0.67827 
0.0923196 -0.0101822 -0.680185 0.0918464 -0.0105262 -0.681529 0.0915071 -0.0107386 -0.682325 
0.0913723 -0.0108447 -0.682588 
LINES 2 100
OFFSETS vtktypeint64
0 100 
CONNECTIVITY vtktypeint64
0 1 2 3 4 5 6 7 8 
9 10 11 12 13 14 15 16 17 
18 19 20 21 22 23 24 25 26 
27 28 29 30 31 32 33 34 35 
36 37 38 39 40 41 42 43 44 
45 46 47 48 49 50 51 52 53 
54 55 56 57 58 59 60 61 62 
63 64 65 66 67 68 69 70 71 
72 73 74 75 76 77 78 79 80 
81 82 83 84 85 86 87 88 89 
90 91 92 93 94 95 96 97 98 
99 
POINT_DATA 100
FIELD FieldData 3
_theta 1 100 double
0 0.031733259127 0.063466518254 0.095199777382 0.12693303651 0.15866629564 0.19039955476 0.22213281389 0.25386607302 
0.28559933214 0.31733259127 0.3490658504 0.38079910953 0.41253236865 0.44426562778 0.47599888691 0.50773214603 0.53946540516 
0.57119866429 0.60293192342 0.63466518254 0.66639844167 0.6981317008 0.72986495992 0.76159821905 0.79333147818 0.82506473731 
0.85679799643 0.88853125556 0.92026451469 0.95199777382 0.98373103294 1.0154642921 1.0471975512 1.0789308103 1.1106640695 
1.1423973286 1.1741305877 1.2058638468 1.237597106 1.2693303651 1.3010636242 1.3327968833 1.3645301425 1.3962634016 
1.4279966607 1.4597299198 1.491463179 1.5231964381 1.5549296972 1.5866629564 1.6183962155 1.6501294746 1.6818627337 
1.7135959929 1.745329252 1.7770625111 1.8087957702 1.8405290294 1.8722622885 1.9039955476 1.9357288068 1.9674620659 
1.999195325 2.0309285841 2.0626618433 2.0943951024 2.1261283615 2.1578616206 2.1895948798 2.2213281389 2.253061398 
2.2847946572 2.3165279163 2.3482611754 2.3799944345 2.4117276937 2.4434609528 2.4751942119 2.506927471 2.5386607302 
2.5703939893 2.6021272484 2.6338605076 2.6655937667 2.6973270258 2.7290602849 2.7607935441 2.7925268032 2.8242600623 
2.8559933214 2.8877265806 2.9194598397 2.9511930988 2.982926358 3.0146596171 3.0463928762 3.0781261353 3.1098593945 
3.1415926536 
_radius 1 100 double
5.985173094e-16 0.015319254615 0.030458844659 0.045252199896 0.059554390813 0.073248890578 0.086250425216 0.098504008976 0.10998105296 
0.1206738975 0.13059008623 0.13974725578 0.1481689473 0.1558812396 0.16290998825 0.16927859853 0.17500654871 0.18010916278 
0.18459923929 0.18849090436 0.19180540178 0.19457762949 0.19686147954 0.19873183663 0.20028160385 0.20161326153 0.20282597077 
0.20400070732 0.20518681633 0.20639322946 0.20758632298 0.20869456531 0.20961853901 0.21024417361 0.21045707932 0.21015634245 
0.20926662922 0.20774774278 0.20560089225 0.20287099583 0.19964450259 0.19604258843 0.1922101945 0.18830218819 0.18446876438 
0.18084271476 0.17753093647 0.17461137185 0.17213491809 0.17013050903 0.16861101038 0.16757767599 0.16702147376 0.16692071608 
0.16723626823 0.16790755115 0.1688530526 0.16997705142 0.17118088686 0.17237489565 0.17348734332 0.17446849072 0.17528994401 
0.17594077892 0.17642241025 0.1767439597 0.17691923724 0.17696561987 0.17690429938 0.1767608626 0.17656517047 0.17634990122 
0.17614757716 0.17598617537 0.17588355977 0.17584111261 0.17583717423 0.17582121946 0.17571000982 0.17538706052 0.17470644665 
0.17350124456 0.1715959863 0.16882166803 0.16503128269 0.16011364729 0.15400350697 0.14668648877 0.13819832628 0.1286187127 
0.11806098756 0.10665946469 0.094556451584 0.081890842995 0.068789640069 0.055363002056 0.041702703208 0.027883349589 0.013965511186 
1.0148177097e-15 
_area 1 100 double
0 0.000465882153 0.001846530909 0.00409477602 0.0071427198032 0.010911931534 0.015319518008 0.020278150623 0.025692290833 
0.031455331846 0.037451269634 0.043560995239 0.049670451548 0.055677436953 0.061495140485 0.067052209377 0.07229050806 0.077162568378 
0.081630998619 0.08567150405 0.089279383871 0.092477163589 0.095320424074 0.097899662719 0.10033437551 0.10275432573 0.10526953563 
0.10793996004 0.11075796918 0.11364988598 0.11649310039 0.11913980506 0.12143857764 0.1232484566 0.12444518147 0.12492436493 
0.12460789311 0.12345564982 0.12147869134 0.11874770142 0.11539240812 0.11159101526 0.10755156324 0.10348850499 0.099597368712 
0.096029295591 0.092868292199 0.090117799678 0.087705058368 0.085508335534 0.083402390975 0.081305145607 0.079206478897 0.077171084361 
0.075317744929 0.073778894621 0.07264556791 0.071916583439 0.071489167583 0.071215458459 0.070972448336 0.070689477576 0.070338341739 
0.069910907948 0.069402507146 0.068807302865 0.068121841481 0.067350627687 0.06651251492 0.06565098792 0.064839024753 0.064143335285 
0.063631206205 0.063368247146 0.063398465687 0.063737772671 0.064374628844 0.065268412934 0.066401901806 0.067684785932 0.068841626716 
0.069563389929 0.06955986825 0.068583164894 0.066457738888 0.063108069698 0.058573984594 0.053009716035 0.046666566199 0.039862233961 
0.032942241171 0.026240100211 0.020042745519 0.014566433983 0.0099461422767 0.0062389254718 0.0034392585776 0.0015024798141 0.00037130323775 
1.734723476e-18 
