# vtk DataFile Version 5.1
vtk output
ASCII
DATASET POLYDATA
POINTS 100 float
0.0747358 0.0425993 0.705405 0.074872 0.042801 0.704992 0.0753432 0.043216 0.703587 
0.0760968 0.0438046 0.701237 0.0770517 0.044508 0.698019 0.078107 0.0452557 0.694025 
0.0791546 0.0459746 0.68935 0.0800905 0.0465979 0.684087 0.0808261 0.0470739 0.678306 
0.0812966 0.0473713 0.672055 0.0814653 0.0474829 0.665351 0.0813238 0.0474251 0.658182 
0.0808886 0.0472345 0.650514 0.0801937 0.0469618 0.642293 0.0792804 0.0466636 0.633466 
0.0781875 0.0463937 0.623984 0.0769407 0.0461948 0.613818 0.0755455 0.0460921 0.602964 
0.0739825 0.0460891 0.591454 0.0722075 0.0461667 0.579348 0.0701552 0.0462859 0.566738 
0.0677468 0.0463928 0.553737 0.0649002 0.0464263 0.540464 0.0615409 0.0463266 0.527038 
0.0576132 0.0460442 0.513562 0.0530887 0.0455468 0.500115 0.0479715 0.0448254 0.486738 
0.0422997 0.0438957 0.473439 0.0361417 0.0427985 0.460188 0.0295889 0.0415951 0.446923 
0.0227453 0.0403613 0.43356 0.0157151 0.0391799 0.420002 0.00859111 0.0381318 0.406149 
0.00144374 0.0372886 0.39191 -0.00568542 0.0367061 0.377209 -0.0127863 0.0364204 0.36199 
-0.0198779 0.0364463 0.346219 -0.0270005 0.0367793 0.32988 -0.034205 0.0373984 0.312972 
-0.0415379 0.0382724 0.295497 -0.0490272 0.0393652 0.277458 -0.0566681 0.0406417 0.258851 
-0.0644126 0.042073 0.239658 -0.0721632 0.0436386 0.219848 -0.0797726 0.0453273 0.199379 
-0.087049 0.0471358 0.178205 -0.0937679 0.0490651 0.156282 -0.099688 0.0511162 0.133581 
-0.10457 0.0532848 0.110093 -0.108196 0.0555572 0.085845 -0.110389 0.0579073 0.0608977 
-0.11103 0.0602955 0.0353527 -0.110065 0.0626702 0.00934744 -0.107514 0.0649715 -0.016951 
-0.103466 0.0671368 -0.0433572 -0.0980727 0.0691073 -0.0696805 -0.091537 0.0708348 -0.0957391 
-0.0840934 0.0722879 -0.121374 -0.0759911 0.073456 -0.146461 -0.0674747 0.0743505 -0.170916 
-0.0587674 0.075004 -0.1947 -0.0500572 0.0754653 -0.217817 -0.0414882 0.0757926 -0.240307 
-0.0331556 0.0760446 -0.262234 -0.0251075 0.0762712 -0.283677 -0.0173488 0.0765044 -0.304713 
-0.00985048 0.0767508 -0.325409 -0.00255935 0.0769876 -0.345807 0.00459029 0.0771615 -0.365922 
0.0116662 0.0771912 -0.385737 0.018729 0.0769744 -0.405209 0.0258255 0.0763964 -0.42427 
0.032984 0.0753422 -0.442841 0.0402133 0.0737084 -0.460837 0.0475026 0.0714146 -0.478181 
0.0548244 0.0684129 -0.494811 0.0621375 0.0646945 -0.510684 0.069391 0.060293 -0.525782 
0.0765277 0.0552826 -0.540107 0.0834876 0.0497735 -0.553679 0.09021 0.0439041 -0.566528 
0.0966356 0.03783 -0.578689 0.102708 0.0317127 -0.59019 0.108374 0.0257086 -0.60105 
0.113585 0.019958 -0.611271 0.118301 0.0145778 -0.620839 0.122489 0.00965581 -0.629727 
0.126127 0.00524868 -0.637896 0.129204 0.00138254 -0.645307 0.131728 -0.00194386 -0.651923 
0.13372 -0.00475409 -0.657723 0.135218 -0.00708808 -0.662701 0.136278 -0.00899568 -0.666875 
0.136966 -0.0105308 -0.670283 0.13736 -0.0117464 -0.672983 0.137538 -0.0126907 -0.675047 
0.137579 -0.0134047 -0.676551 0.137552 -0.0139204 -0.677566 0.137511 -0.0142607 -0.678152 
0.13749 -0.0144389 -0.678346 
LINES 2 100
OFFSETS vtktypeint64
0 100 
CONNECTIVITY vtktypeint64
0 1 2 3 4 5 6 7 8 
9 10 11 12 13 14 15 16 17 
18 19 20 21 22 23 24 25 26 
27 28 29 30 31 32 33 34 35 
36 37 38 39 40 41 42 43 44 
45 46 47 48 49 50 51 52 53 
54 55 56 57 58 59 60 61 62 
63 64 65 66 67 68 69 70 71 
72 73 74 75 76 77 78 79 80 
81 82 83 84 85 86 87 88 89 
90 91 92 93 94 95 96 97 98 
99 
POINT_DATA 100
FIELD FieldData 3
_theta 1 100 double
0 0.031733259127 0.063466518254 0.095199777382 0.12693303651 0.15866629564 0.19039955476 0.22213281389 0.25386607302 
0.28559933214 0.31733259127 0.3490658504 0.38079910953 0.41253236865 0.44426562778 0.47599888691 0.50773214603 0.53946540516 
0.57119866429 0.60293192342 0.63466518254 0.66639844167 0.6981317008 0.72986495992 0.76159821905 0.79333147818 0.82506473731 
0.85679799643 0.88853125556 0.92026451469 0.95199777382 0.98373103294 1.0154642921 1.0471975512 1.0789308103 1.1106640695 
1.1423973286 1.1741305877 1.2058638468 1.237597106 1.2693303651 1.3010636242 1.3327968833 1.3645301425 1.3962634016 
1.4279966607 1.4597299198 1.491463179 1.5231964381 1.5549296972 1.5866629564 1.6183962155 1.6501294746 1.6818627337 
1.7135959929 1.745329252 1.7770625111 1.8087957702 1.8405290294 1.8722622885 1.9039955476 1.9357288068 1.9674620659 
1.999195325 2.0309285841 2.0626618433 2.0943951024 2.1261283615 2.1578616206 2.1895948798 2.2213281389 2.253061398 
2.2847946572 2.3165279163 2.3482611754 2.3799944345 2.4117276937 2.4434609528 2.4751942119 2.506927471 2.5386607302 
2.5703939893 2.6021272484 2.6338605076 2.6655937667 2.6973270258 2.7290602849 2.7607935441 2.7925268032 2.8242600623 
2.8559933214 2.8877265806 2.9194598397 2.9511930988 2.982926358 3.0146596171 3.0463928762 3.0781261353 3.1098593945 
3.1415926536 
_radius 1 100 double
1.1232652647e-15 0.0143336093 0.028600433826 0.042728351382 0.056651555842 0.070311275788 0.083654614021 0.096632524108 0.10919801124 
0.12130523171 0.13290965447 0.14396913464 0.15444568842 0.16430781794 0.17353323797 0.18211171242 0.19004746129 0.19736039943 
0.20408549888 0.21026994215 0.21596839158 0.22123736848 0.22613005813 0.2306926427 0.23496262092 0.23896879731 0.24273198472 
0.24626513606 0.24957176133 0.25264221509 0.25544863769 0.25794049092 0.26004304964 0.26166052856 0.26268405679 0.26300323457 
0.26251917017 0.26115686261 0.25887532476 0.25567456396 0.25159916771 0.24673863447 0.24122470838 0.23522585973 0.22893882663 
0.22257704626 0.21635620484 0.21047820077 0.2051161317 0.20040345272 0.19642942902 0.19324085804 0.19084807849 0.18923243357 
0.18835256701 0.18814774361 0.18853763097 0.18941974316 0.19066765582 0.19213389415 0.19365978036 0.19509096288 0.19629432569 
0.19717155781 0.197666487 0.19776561815 0.19749301551 0.1969015289 0.19606251574 0.19505577409 0.19396060556 0.19284817782 
0.19177501 0.19077749304 0.18986763382 0.18903039377 0.18822294607 0.18737593846 0.18639656597 0.18517307275 0.18358027585 
0.18148579459 0.17875678346 0.17526700867 0.17090402502 0.16557601333 0.15921762101 0.15179404097 0.14330267547 0.13377207216 
0.12325830115 0.11183941314 0.099608939767 0.086669485974 0.073127315562 0.059088502016 0.044656800392 0.029933003398 0.015015286352 
7.3127081631e-16 
_area 1 100 double
0 0.00056045719509 0.0022298097089 0.0049709039204 0.0087189231462 0.013379420571 0.01882932277 0.024922646377 0.031501061549 
0.038407464476 0.045499268466 0.052657993229 0.059793136696 0.06684055028 0.073757280799 0.080515145751 0.087094553126 0.093479504269 
0.099654787602 0.10560632132 0.11132492928 0.11681296245 0.12209224707 0.1272102978 0.13224028523 0.1372722888 0.14239951839 
0.14770345149 0.15323195461 0.15896596774 0.16479169064 0.17050166108 0.17582501293 0.18046913335 0.18415724453 0.18665384808 
0.18777630013 0.18739814519 0.18545313457 0.18194298069 0.17694561258 0.17062139588 0.16321555666 0.15505149658 0.14650767444 
0.13797605121 0.12981156842 0.12229143332 0.11559991072 0.10983934007 0.10504880175 0.1011994136 0.098171159081 0.095799361192 
0.093985133175 0.092649843416 0.091727392576 0.091172586814 0.090918747482 0.090872137242 0.090930980826 0.091004902293 0.091021866829 
0.090879193355 0.090431604784 0.089592614218 0.088368274909 0.08685070466 0.085186493659 0.083539667404 0.082064203124 0.080885581413 
0.080090953642 0.079729154879 0.079809618929 0.080299207511 0.081115726761 0.082128295682 0.083171679862 0.084059087342 0.084591809337 
0.084568509734 0.083796219214 0.082104825947 0.079365319622 0.075509479461 0.070546444008 0.064571112689 0.057760984939 0.050361105157 
0.042659977549 0.034961432958 0.027557830312 0.020708860071 0.01462838573 0.0094799323533 0.0053797788535 0.0024050614888 0.00060328138583 
2.1958931412e-17 
