# vtk DataFile Version 5.1
vtk output
ASCII
DATASET POLYDATA
POINTS 100 float
0.120709 0.0468501 0.67471 0.120931 0.0470137 0.674729 0.121665 0.0473632 0.674612 
0.122822 0.0478819 0.67429 0.124264 0.0485436 0.673656 0.125815 0.0493145 0.67258 
0.127284 0.0501553 0.670912 0.12848 0.0510238 0.668504 0.12923 0.0518774 0.665222 
0.129398 0.0526754 0.660954 0.12889 0.0533807 0.655625 0.127662 0.0539616 0.649198 
0.125717 0.054392 0.641681 0.1231 0.0546519 0.633121 0.119887 0.0547273 0.623599 
0.11617 0.0546094 0.613225 0.112046 0.0542943 0.602124 0.1076 0.0537821 0.590428 
0.102897 0.0530768 0.578264 0.0979786 0.0521856 0.565747 0.0928541 0.0511198 0.55297 
0.0875096 0.0498947 0.540007 0.0819113 0.0485306 0.526904 0.076015 0.047053 0.513685 
0.0697762 0.0454936 0.500355 0.0631595 0.0438901 0.486904 0.0561463 0.0422864 0.473312 
0.0487395 0.0407309 0.459556 0.0409649 0.0392761 0.445608 0.0328692 0.0379757 0.431444 
0.0245151 0.0368827 0.417041 0.015974 0.0360463 0.402378 0.00731871 0.0355097 0.38743 
-0.00138357 0.0353071 0.37217 -0.0100765 0.035462 0.356564 -0.018717 0.0359858 0.340567 
-0.0272747 0.0368771 0.324128 -0.0357283 0.0381225 0.307183 -0.0440594 0.039697 0.289665 
-0.0522454 0.0415666 0.271506 -0.0602517 0.0436901 0.25264 -0.0680258 0.0460223 0.233015 
-0.0754933 0.0485159 0.212596 -0.0825578 0.0511247 0.191373 -0.0891038 0.0538052 0.169365 
-0.0950038 0.0565179 0.146621 -0.100128 0.0592281 0.123223 -0.104356 0.0619058 0.0992788 
-0.107589 0.0645253 0.07492 -0.109759 0.067064 0.0502912 -0.110837 0.069501 0.0255423 
-0.110839 0.0718161 0.000818594 -0.109823 0.0739884 -0.0237491 -0.107886 0.0759955 -0.0480517 
-0.105153 0.0778136 -0.0720085 -0.101765 0.079417 -0.0955692 -0.0978673 0.0807793 -0.118715 
-0.093595 0.0818745 -0.141455 -0.0890598 0.0826779 -0.163821 -0.084343 0.0831683 -0.18586 
-0.0794902 0.0833286 -0.207625 -0.0745113 0.0831473 -0.229167 -0.0693852 0.0826189 -0.250527 
-0.0640677 0.0817446 -0.271727 -0.0585023 0.080531 -0.292768 -0.0526322 0.0789902 -0.313629 
-0.0464113 0.077138 -0.334263 -0.0398137 0.0749924 -0.354605 -0.0328402 0.0725726 -0.374576 
-0.0255209 0.0698971 -0.394088 -0.017914 0.066983 -0.413055 -0.0101012 0.0638452 -0.431395 
-0.0021802 0.0604963 -0.44904 0.00574375 0.0569468 -0.46594 0.013567 0.0532066 -0.482067 
0.0211953 0.0492852 -0.497409 0.0285497 0.0451943 -0.511979 0.0355694 0.0409482 -0.525801 
0.0422118 0.0365659 -0.538913 0.0484504 0.0320717 -0.551357 0.0542698 0.027496 -0.563177 
0.0596607 0.022875 -0.574409 0.064614 0.0182503 -0.585082 0.069117 0.0136674 -0.595214 
0.0731512 0.00917463 -0.604808 0.0766923 0.00482058 -0.613858 0.0797131 0.000652266 -0.622347 
0.0821888 -0.00328707 -0.630252 0.084103 -0.00695986 -0.637546 0.0854542 -0.0103357 -0.644205 
0.086262 -0.0133922 -0.650208 0.0865708 -0.0161155 -0.655541 0.0864507 -0.0184998 -0.660201 
0.0859955 -0.0205466 -0.664189 0.085317 -0.0222629 -0.667518 0.0845369 -0.0236597 -0.670204 
0.083776 -0.0247497 -0.672267 0.0831435 -0.0255453 -0.673725 0.0827262 -0.0260568 -0.674594 
0.0825801 -0.0262907 -0.674884 
LINES 2 100
OFFSETS vtktypeint64
0 100 
CONNECTIVITY vtktypeint64
0 1 2 3 4 5 6 7 8 
9 10 11 12 13 14 15 16 17 
18 19 20 21 22 23 24 25 26 
27 28 29 30 31 32 33 34 35 
36 37 38 39 40 41 42 43 44 
45 46 47 48 49 50 51 52 53 
54 55 56 57 58 59 60 61 62 
63 64 65 66 67 68 69 70 71 
72 73 74 75 76 77 78 79 80 
81 82 83 84 85 86 87 88 89 
90 91 92 93 94 95 96 97 98 
99 
POINT_DATA 100
FIELD FieldData 3
_theta 1 100 double
0 0.031733259127 0.063466518254 0.095199777382 0.12693303651 0.15866629564 0.19039955476 0.22213281389 0.25386607302 
0.28559933214 0.31733259127 0.3490658504 0.38079910953 0.41253236865 0.44426562778 0.47599888691 0.50773214603 0.53946540516 
0.57119866429 0.60293192342 0.63466518254 0.66639844167 0.6981317008 0.72986495992 0.76159821905 0.79333147818 0.82506473731 
0.85679799643 0.88853125556 0.92026451469 0.95199777382 0.98373103294 1.0154642921 1.0471975512 1.0789308103 1.1106640695 
1.1423973286 1.1741305877 1.2058638468 1.237597106 1.2693303651 1.3010636242 1.3327968833 1.3645301425 1.3962634016 
1.4279966607 1.4597299198 1.491463179 1.5231964381 1.5549296972 1.5866629564 1.6183962155 1.6501294746 1.6818627337 
1.7135959929 1.745329252 1.7770625111 1.8087957702 1.8405290294 1.8722622885 1.9039955476 1.9357288068 1.9674620659 
1.999195325 2.0309285841 2.0626618433 2.0943951024 2.1261283615 2.1578616206 2.1895948798 2.2213281389 2.253061398 
2.2847946572 2.3165279163 2.3482611754 2.3799944345 2.4117276937 2.4434609528 2.4751942119 2.506927471 2.5386607302 
2.5703939893 2.6021272484 2.6338605076 2.6655937667 2.6973270258 2.7290602849 2.7607935441 2.7925268032 2.8242600623 
2.8559933214 2.8877265806 2.9194598397 2.9511930988 2.982926358 3.0146596171 3.0463928762 3.0781261353 3.1098593945 
3.1415926536 
_radius 1 100 double
1.8619006149e-16 0.015017468618 0.029823387653 0.044221019307 0.058048936307 0.071191861608 0.083584607603 0.095209099469 0.10608582216 
0.1162619599 0.12579871169 0.1347597643 0.14320200687 0.15116874412 0.15868525034 0.16575655699 0.17236767451 0.17848668945 
0.18407108156 0.18907707391 0.19347098095 0.19724065188 0.20040456636 0.20301618725 0.20516188879 0.20695204559 0.20850641024 
0.2099363235 0.21132715507 0.21272435312 0.21412558418 0.21548001968 0.21669440617 0.21764456766 0.21819055951 0.21819367663 
0.21753366404 0.21612460909 0.21392807098 0.21096209207 0.2073049311 0.2030927238 0.19851082753 0.19377932353 0.18913398237 
0.18480483359 0.18099512619 0.17786366944 0.17551309741 0.17398544664 0.17326477679 0.17328498199 0.17394024295 0.17509614413 
0.17660077637 0.17829605784 0.18002940664 0.18166514118 0.18309435997 0.18424197732 0.18506996971 0.18557646519 0.18579092105 
0.1857662088 0.18556889025 0.18526923193 0.18493246583 0.18461240844 0.18434786712 0.18416150545 0.1840602909 0.18403651009 
0.1840686021 0.18412151184 0.18414663991 0.18408163332 0.18385028932 0.18336288003 0.18251731255 0.18120163509 0.17929833844 
0.1766906064 0.17327019428 0.16894610716 0.16365287251 0.15735706707 0.15006090466 0.14180209294 0.13264975749 0.12269691957 
0.11205068152 0.10082177526 0.08911530906 0.077024294029 0.064626843989 0.051986983519 0.039158071056 0.026187275716 0.01311954078 
2.7830581206e-16 
_area 1 100 double
0 0.00054080456779 0.0021364905851 0.0047125676708 0.0081617277811 0.012362465205 0.017194494694 0.022545868303 0.028311251082 
0.034385572758 0.040658752454 0.04701486596 0.05333590962 0.059508690252 0.065433289282 0.071031777973 0.076255604787 0.08108951072 
0.085549889781 0.089677194211 0.093525039955 0.097150590317 0.1006089249 0.10395017963 0.10721717741 0.11044333908 0.11365137919 
0.11685192564 0.12004075328 0.12319424821 0.12626371792 0.12916997214 0.13180037962 0.13401093924 0.13563529603 0.13650125289 
0.13645363276 0.13538046612 0.13323759284 0.13006569466 0.12599452592 0.12123191624 0.11603911276 0.11069779729 0.10547642448 
0.10060327061 0.096249526148 0.092519805248 0.089447871376 0.087005253385 0.085130631217 0.083765802751 0.082871320997 0.082410390449 
0.082314945639 0.082462435792 0.082681136932 0.082779608073 0.082584677491 0.081974004623 0.080895011605 0.079367220405 0.077470407239 
0.075325900121 0.073078551056 0.070881380599 0.068880640534 0.067201250153 0.065937991439 0.065159090901 0.064934558544 0.065383507428 
0.066285797642 0.067517682628 0.069006940055 0.070666668315 0.072377455727 0.073990419501 0.075338267097 0.076247287785 0.076549299669 
0.076093602143 0.074759111317 0.072466624686 0.069190149619 0.064964915133 0.059889225258 0.054118361134 0.047850870878 0.041309767174 
0.034722484786 0.028303539711 0.022242757216 0.016700083296 0.011805969168 0.007664893434 0.0043593769025 0.0019527825728 0.0004904997598 
3.0336403053e-17 
