# vtk DataFile Version 5.1
vtk output
ASCII
DATASET POLYDATA
POINTS 100 float
0.0483312 0.0381475 0.652183 0.0486323 0.0383016 0.652061 0.0495755 0.0386266 0.651543 
0.0510633 0.0391019 0.650624 0.0529462 0.0396955 0.649296 0.0550417 0.0403673 0.647548 
0.0571566 0.041074 0.645363 0.0591101 0.0417732 0.642718 0.0607557 0.0424284 0.639586 
0.0619967 0.0430118 0.635932 0.0627967 0.0435066 0.63172 0.0631796 0.0439077 0.626906 
0.0632232 0.0442201 0.621449 0.0630444 0.0444564 0.615306 0.0627789 0.0446335 0.60844 
0.0625591 0.0447678 0.600821 0.0624913 0.0448716 0.592429 0.0626367 0.0449494 0.583259 
0.062998 0.0449956 0.573323 0.063514 0.0449942 0.562651 0.0640619 0.044919 0.551291 
0.0644687 0.044737 0.539312 0.0645282 0.0444118 0.526796 0.0640237 0.0439083 0.513841 
0.0627514 0.0431978 0.500552 0.0605435 0.0422625 0.487036 0.0572867 0.0410994 0.473398 
0.0529344 0.039722 0.459731 0.0475114 0.0381612 0.446113 0.0411101 0.0364637 0.432599 
0.0338796 0.0346895 0.419221 0.0260084 0.0329071 0.40598 0.0177031 0.0311889 0.392852 
0.00916704 0.0296058 0.379782 0.000579992 0.0282223 0.366695 -0.0079177 0.0270926 0.353497 
-0.0162346 0.0262582 0.340079 -0.0243305 0.0257467 0.32633 -0.0322116 0.0255718 0.312139 
-0.0399188 0.0257358 0.297401 -0.0475119 0.0262314 0.282028 -0.0550507 0.0270454 0.265948 
-0.0625769 0.0281615 0.24911 -0.0700979 0.0295626 0.231485 -0.0775758 0.0312326 0.213067 
-0.0849226 0.0331564 0.193869 -0.092002 0.0353195 0.173922 -0.0986385 0.0377058 0.153272 
-0.104631 0.0402953 0.131976 -0.109771 0.0430618 0.110099 -0.113863 0.0459704 0.0877113 
-0.116741 0.0489764 0.0648878 -0.118288 0.0520254 0.0417042 -0.118443 0.0550548 0.0182379 
-0.117209 0.057997 -0.00543271 -0.114651 0.060784 -0.0292285 -0.110888 0.0633527 -0.0530696 
-0.10608 0.0656506 -0.0768762 -0.100413 0.067641 -0.100569 -0.0940823 0.0693071 -0.124072 
-0.0872743 0.0706545 -0.147311 -0.0801517 0.0717105 -0.17022 -0.0728435 0.0725222 -0.192741 
-0.0654382 0.073151 -0.214826 -0.0579824 0.0736657 -0.236439 -0.0504846 0.0741337 -0.257557 
-0.0429223 0.0746118 -0.278168 -0.0352523 0.0751378 -0.298269 -0.027422 0.0757228 -0.317868 
-0.0193807 0.0763467 -0.336974 -0.0110901 0.0769561 -0.355598 -0.00253176 0.0774665 -0.373748 
0.00628792 0.0777671 -0.391425 0.0153357 0.0777303 -0.408619 0.0245525 0.0772224 -0.425311 
0.033857 0.0761167 -0.44147 0.0431507 0.074307 -0.457057 0.0523239 0.0717198 -0.472024 
0.0612621 0.0683245 -0.486322 0.0698522 0.0641404 -0.499902 0.0779874 0.0592395 -0.512722 
0.0855714 0.0537441 -0.524749 0.0925219 0.0478211 -0.535964 0.0987725 0.0416708 -0.546362 
0.104275 0.0355134 -0.555954 0.108998 0.0295726 -0.564762 0.112934 0.0240589 -0.572824 
0.11609 0.019154 -0.580181 0.118498 0.0149968 -0.586878 0.120207 0.0116734 -0.592959 
0.121287 0.00921153 -0.598458 0.121822 0.00758 -0.603405 0.121913 0.00669336 -0.607815 
0.121669 0.00642118 -0.611691 0.121204 0.00660139 -0.615027 0.120628 0.00705623 -0.617806 
0.120047 0.00760953 -0.62001 0.119548 0.00810365 -0.621614 0.1192 0.00841453 -0.6226 
0.119045 0.00846351 -0.622953 
LINES 2 100
OFFSETS vtktypeint64
0 100 
CONNECTIVITY vtktypeint64
0 1 2 3 4 5 6 7 8 
9 10 11 12 13 14 15 16 17 
18 19 20 21 22 23 24 25 26 
27 28 29 30 31 32 33 34 35 
36 37 38 39 40 41 42 43 44 
45 46 47 48 49 50 51 52 53 
54 55 56 57 58 59 60 61 62 
63 64 65 66 67 68 69 70 71 
72 73 74 75 76 77 78 79 80 
81 82 83 84 85 86 87 88 89 
90 91 92 93 94 95 96 97 98 
99 
POINT_DATA 100
FIELD FieldData 3
_theta 1 100 double
0 0.031733259127 0.063466518254 0.095199777382 0.12693303651 0.15866629564 0.19039955476 0.22213281389 0.25386607302 
0.28559933214 0.31733259127 0.3490658504 0.38079910953 0.41253236865 0.44426562778 0.47599888691 0.50773214603 0.53946540516 
0.57119866429 0.60293192342 0.63466518254 0.66639844167 0.6981317008 0.72986495992 0.76159821905 0.79333147818 0.82506473731 
0.85679799643 0.88853125556 0.92026451469 0.95199777382 0.98373103294 1.0154642921 1.0471975512 1.0789308103 1.1106640695 
1.1423973286 1.1741305877 1.2058638468 1.237597106 1.2693303651 1.3010636242 1.3327968833 1.3645301425 1.3962634016 
1.4279966607 1.4597299198 1.491463179 1.5231964381 1.5549296972 1.5866629564 1.6183962155 1.6501294746 1.6818627337 
1.7135959929 1.745329252 1.7770625111 1.8087957702 1.8405290294 1.8722622885 1.9039955476 1.9357288068 1.9674620659 
1.999195325 2.0309285841 2.0626618433 2.0943951024 2.1261283615 2.1578616206 2.1895948798 2.2213281389 2.253061398 
2.2847946572 2.3165279163 2.3482611754 2.3799944345 2.4117276937 2.4434609528 2.4751942119 2.506927471 2.5386607302 
2.5703939893 2.6021272484 2.6338605076 2.6655937667 2.6973270258 2.7290602849 2.7607935441 2.7925268032 2.8242600623 
2.8559933214 2.8877265806 2.9194598397 2.9511930988 2.982926358 3.0146596171 3.0463928762 3.0781261353 3.1098593945 
3.1415926536 
_radius 1 100 double
1.1108516839e-15 0.013969399691 0.027959563472 0.041976133343 0.05601005868 0.070032717014 0.083993545628 0.097820608908 0.11142405321 
0.12470184201 0.13754671637 0.14985318301 0.16152355992 0.17247260087 0.18263075665 0.19194649046 0.20038811678 0.20794538872 
0.21463065849 0.22047908669 0.22554726681 0.22990985619 0.23365431653 0.23687446198 0.23966390261 0.24211044988 0.24429216089 
0.24627515545 0.24811279763 0.2498453372 0.25149881821 0.2530823179 0.25458353873 0.25596407358 0.25715655865 0.25806582903 
0.25857508792 0.25855655121 0.25788480289 0.25645069522 0.25417404015 0.25101414312 0.24697790754 0.24212543984 0.2365727394 
0.23049036082 0.2240963142 0.2176415148 0.21138737371 0.20557775585 0.20041069117 0.19601714687 0.1924531945 0.18970789609 
0.18772388018 0.1864233153 0.18573061337 0.18558506083 0.18594060068 0.18675452323 0.18797062993 0.18950467197 0.19123931146 
0.19303155426 0.19472941537 0.19619092748 0.19729965226 0.19797433813 0.19817309928 0.19789338574 0.19716869555 0.19606240461 
0.19465885479 0.19305207273 0.19133304009 0.18957705162 0.18783300741 0.18611612434 0.18440460407 0.18263985937 0.18072952133 
0.17855265537 0.17596702242 0.17281841437 0.16895185466 0.16422385231 0.1585142525 0.15173594205 0.14384094984 0.13482220575 
0.12471106751 0.1135714254 0.10149166998 0.088576094821 0.074937379985 0.060691487585 0.045955465954 0.030847539942 0.015488072589 
5.658260413e-16 
_area 1 100 double
0 0.00048802758105 0.0019572213931 0.004420152099 0.0078890346062 0.012364201339 0.017820918763 0.024197135788 0.031385049338 
0.039229241893 0.047533324801 0.056075344557 0.064629761058 0.072991181881 0.080993640576 0.088520648287 0.095505333546 0.10192400306 
0.10778806047 0.11313840617 0.11804371365 0.12260003876 0.12692688661 0.131157008 0.13542035093 0.1398199658 0.14439938098 
0.14912170566 0.15388797216 0.15858670218 0.1631360868 0.16749073797 0.17161443219 0.17544234624 0.178858394 0.18169771832 
0.18376774462 0.18487540828 0.18485137151 0.18356771384 0.18094976686 0.1769844621 0.17172748976 0.16531071915 0.15794858557 
0.14993590832 0.14162581857 0.13338559191 0.12554636002 0.11836848977 0.1120268088 0.10660032286 0.10205693836 0.098256425384 
0.095009803802 0.092170310496 0.089683846364 0.087575820026 0.085898097362 0.084671516484 0.08385296166 0.083334738347 0.082966440663 
0.082585642131 0.08204493184 0.081229750979 0.080071314396 0.078558408947 0.076742737352 0.074732105541 0.072674613362 0.07073956256 
0.069094843331 0.067877223527 0.067161951842 0.066943488025 0.067130663007 0.067572884009 0.068108013034 0.068591772184 0.068891594743 
0.068862523364 0.0683459741 0.067191182571 0.065274887397 0.062515913441 0.058887698194 0.054426522978 0.049232107174 0.043460737773 
0.037313505608 0.031020791902 0.024822920349 0.018949569033 0.013604158292 0.008958905301 0.0051600962648 0.0023350510894 0.00059042349104 
5.9224903507e-17 
