# vtk DataFile Version 5.1
vtk output
ASCII
DATASET POLYDATA
POINTS 100 float
0.0784714 0.0468051 0.646575 0.0784918 0.0469466 0.646372 0.0785772 0.0472305 0.645601 
0.0787055 0.0476291 0.644259 0.0788427 0.048101 0.642347 0.0789461 0.0485964 0.63986 
0.0789685 0.0490634 0.636798 0.0788628 0.0494545 0.633156 0.0785856 0.0497326 0.62893 
0.0781012 0.0498747 0.624115 0.0773831 0.0498745 0.618705 0.0764151 0.0497417 0.612695 
0.0751906 0.0494994 0.606081 0.0737108 0.0491796 0.598857 0.0719818 0.0488169 0.591026 
0.0700118 0.0484426 0.582591 0.0678076 0.0480785 0.573562 0.0653722 0.0477323 0.563958 
0.0627026 0.0473954 0.553805 0.0597896 0.0470426 0.543139 0.0566181 0.0466348 0.532005 
0.0531685 0.0461236 0.520456 0.0494191 0.0454578 0.508552 0.0453491 0.0445909 0.496354 
0.0409409 0.0434886 0.483924 0.0361829 0.0421353 0.471318 0.0310709 0.0405393 0.458584 
0.0256087 0.0387348 0.445752 0.0198079 0.0367824 0.432835 0.0136865 0.034766 0.419825 
0.00726706 0.032788 0.406687 0.000574898 0.030962 0.393366 -0.00636398 0.0294051 0.379783 
-0.0135238 0.0282292 0.365843 -0.0208794 0.0275332 0.351438 -0.0284047 0.027396 0.336457 
-0.036071 0.0278717 0.320793 -0.0438434 0.0289858 0.304351 -0.0516771 0.0307346 0.287056 
-0.0595139 0.0330852 0.268859 -0.0672792 0.0359787 0.249747 -0.0748798 0.039333 0.229736 
-0.0822047 0.0430482 0.20888 -0.0891268 0.0470115 0.187263 -0.0955079 0.0511028 0.164997 
-0.101205 0.0552003 0.142212 -0.10608 0.0591863 0.119051 -0.110007 0.0629525 0.0956578 
-0.112884 0.0664052 0.0721709 -0.114639 0.0694703 0.0487153 -0.115239 0.0720968 0.0253964 
-0.114691 0.0742603 0.0022963 -0.113048 0.0759648 -0.0205272 -0.110398 0.0772425 -0.0430397 
-0.106866 0.0781519 -0.0652274 -0.102599 0.0787736 -0.0870915 -0.0977572 0.0792037 -0.108643 
-0.0925011 0.079545 -0.129897 -0.0869793 0.0798969 -0.150865 -0.081318 0.0803445 -0.171553 
-0.0756127 0.0809478 -0.191954 -0.0699235 0.0817322 -0.21205 -0.0642743 0.0826821 -0.231813 
-0.0586561 0.0837379 -0.2512 -0.0530334 0.0847975 -0.270164 -0.0473544 0.0857224 -0.288654 
-0.0415624 0.0863487 -0.306621 -0.0356078 0.0865021 -0.32402 -0.0294595 0.0860151 -0.340818 
-0.0231145 0.0847457 -0.356991 -0.016603 0.0825951 -0.372533 -0.00999148 0.0795216 -0.387447 
-0.00337974 0.0755512 -0.401753 0.0031051 0.0707809 -0.415481 0.00931865 0.0653753 -0.428669 
0.0151118 0.0595563 -0.441358 0.0203446 0.0535867 -0.453594 0.0248999 0.047748 -0.46542 
0.0286958 0.0423168 -0.476873 0.0316948 0.0375399 -0.487987 0.0339092 0.033612 -0.498785 
0.0354018 0.0306585 -0.509286 0.0362823 0.0287247 -0.519496 0.0366983 0.0277732 -0.529415 
0.0368233 0.0276895 -0.539034 0.0368415 0.0282957 -0.548336 0.0369317 0.0293705 -0.557298 
0.0372515 0.0306734 -0.56589 0.0379228 0.0319702 -0.574073 0.0390209 0.0330572 -0.581805 
0.0405681 0.0337815 -0.589036 0.0425315 0.0340547 -0.595715 0.0448266 0.0338584 -0.601786 
0.0473252 0.033242 -0.607192 0.0498681 0.0323119 -0.611875 0.0522797 0.0312144 -0.615784 
0.0543852 0.030114 -0.618871 0.056027 0.0291704 -0.621097 0.0570799 0.0285162 -0.622431 
0.0574627 0.0282392 -0.622858 
LINES 2 100
OFFSETS vtktypeint64
0 100 
CONNECTIVITY vtktypeint64
0 1 2 3 4 5 6 7 8 
9 10 11 12 13 14 15 16 17 
18 19 20 21 22 23 24 25 26 
27 28 29 30 31 32 33 34 35 
36 37 38 39 40 41 42 43 44 
45 46 47 48 49 50 51 52 53 
54 55 56 57 58 59 60 61 62 
63 64 65 66 67 68 69 70 71 
72 73 74 75 76 77 78 79 80 
81 82 83 84 85 86 87 88 89 
90 91 92 93 94 95 96 97 98 
99 
POINT_DATA 100
FIELD FieldData 3
_theta 1 100 double
0 0.031733259127 0.063466518254 0.095199777382 0.12693303651 0.15866629564 0.19039955476 0.22213281389 0.25386607302 
0.28559933214 0.31733259127 0.3490658504 0.38079910953 0.41253236865 0.44426562778 0.47599888691 0.50773214603 0.53946540516 
0.57119866429 0.60293192342 0.63466518254 0.66639844167 0.6981317008 0.72986495992 0.76159821905 0.79333147818 0.82506473731 
0.85679799643 0.88853125556 0.92026451469 0.95199777382 0.98373103294 1.0154642921 1.0471975512 1.0789308103 1.1106640695 
1.1423973286 1.1741305877 1.2058638468 1.237597106 1.2693303651 1.3010636242 1.3327968833 1.3645301425 1.3962634016 
1.4279966607 1.4597299198 1.491463179 1.5231964381 1.5549296972 1.5866629564 1.6183962155 1.6501294746 1.6818627337 
1.7135959929 1.745329252 1.7770625111 1.8087957702 1.8405290294 1.8722622885 1.9039955476 1.9357288068 1.9674620659 
1.999195325 2.0309285841 2.0626618433 2.0943951024 2.1261283615 2.1578616206 2.1895948798 2.2213281389 2.253061398 
2.2847946572 2.3165279163 2.3482611754 2.3799944345 2.4117276937 2.4434609528 2.4751942119 2.506927471 2.5386607302 
2.5703939893 2.6021272484 2.6338605076 2.6655937667 2.6973270258 2.7290602849 2.7607935441 2.7925268032 2.8242600623 
2.8559933214 2.8877265806 2.9194598397 2.9511930988 2.982926358 3.0146596171 3.0463928762 3.0781261353 3.1098593945 
3.1415926536 
_radius 1 100 double
5.6780337503e-16 0.014557080823 0.029033070216 0.043346767022 0.05742576304 0.071207891702 0.084640099092 0.097675399874 0.11026910232 
0.12237560674 0.13394681787 0.14493268186 0.15528374223 0.1649550965 0.1739108462 0.18212808287 0.18959957148 0.19633451812 
0.20235714166 0.20770325358 0.2124156536 0.21653964321 0.22011999454 0.22320011033 0.22582312545 0.22803386536 0.22988026045 
0.23141298703 0.23268254203 0.23373355688 0.23459698241 0.2352818229 0.23576901823 0.23601022979 0.23593321367 0.23545344174 
0.23448965946 0.23298011236 0.23089642022 0.22825302782 0.22511120988 0.2215774403 0.21779651031 0.21394017937 0.21019248997 
0.20673329301 0.20372204308 0.20128433705 0.19950353692 0.19841877016 0.19802884365 0.1982999874 0.19917468794 0.20057934396 
0.20242964779 0.2046338926 0.20709535566 0.20971518535 0.21239673 0.21505121022 0.2176034993 0.21999606291 0.2221892746 
0.22415746828 0.22588173 0.227341713 0.22850905338 0.22934425802 0.22979769124 0.22981402399 0.22933858197 0.22832362461 
0.22673278922 0.22454269699 0.22174179699 0.21832753297 0.21430350303 0.20967825695 0.20446670633 0.19869391309 0.19239961021 
0.18564078263 0.17848957279 0.17102488223 0.16331808915 0.15541580931 0.14732487515 0.13900546936 0.13037629806 0.12133111199 
0.11176147255 0.10157908109 0.090732315964 0.079214210792 0.067061689266 0.054347947084 0.041171178476 0.027643165802 0.013880535392 
1.5152235274e-15 
_area 1 100 double
0 0.00058370530862 0.0023183220948 0.00515622623 0.0090232433515 0.013823622725 0.019443581597 0.025753317984 0.032609045928 
0.039857084817 0.047341092731 0.054911792571 0.062437170006 0.069811248703 0.076961232545 0.083854275417 0.090503472688 0.096966502542 
0.10332470092 0.10963863477 0.11590207414 0.12202939928 0.12788679732 0.13334440345 0.13831815019 0.14278111282 0.14674175371 
0.15020660591 0.15315548768 0.15554357634 0.15732090583 0.15845140506 0.1589250015 0.15876082048 0.15801473565 0.15678656173 
0.15521117176 0.15331546403 0.15085512657 0.14759270959 0.14350425141 0.13872410372 0.13348201958 0.12805946188 0.1227504974 
0.11782562374 0.11350370206 0.10993425625 0.10718808796 0.10518881442 0.10373342598 0.10266756072 0.10184736044 0.10116731484 
0.10059978467 0.10018727655 0.10001590675 0.10017276358 0.10069693207 0.10155872921 0.10270448136 0.10411897806 0.10582253243 
0.10779666479 0.10993504119 0.11207362119 0.11403310747 0.11564314239 0.11676427478 0.11731330432 0.11728160883 0.11672517607 
0.11571508994 0.11429121299 0.1124641537 0.11023149204 0.10757672397 0.10446276574 0.10083593868 0.096644001591 0.091862370413 
0.086518494917 0.080703133143 0.074560482694 0.06825855098 0.061950166648 0.055737822163 0.049655116456 0.043675941635 0.037752816818 
0.031867386756 0.026067594685 0.020476534763 0.015273073726 0.010653254614 0.0067857122493 0.003776510102 0.0016583151394 0.00041080593572 
7.8130253009e-18 
