# vtk DataFile Version 5.1
vtk output
ASCII
DATASET POLYDATA
POINTS 100 float
0.102785 0.0274132 0.674928 0.102873 0.027708 0.67456 0.10321 0.0284651 0.673335 
0.103724 0.0296411 0.671309 0.104309 0.0311686 0.668564 0.104833 0.0329614 0.665199 
0.10516 0.0349231 0.66131 0.105162 0.0369547 0.65698 0.104738 0.0389626 0.652261 
0.103824 0.0408658 0.647169 0.102399 0.0426008 0.641677 0.100489 0.0441243 0.635719 
0.0981564 0.0454137 0.629197 0.0954905 0.0464655 0.621998 0.0925946 0.0472912 0.614006 
0.0895682 0.0479124 0.605121 0.086492 0.0483551 0.595276 0.0834151 0.0486441 0.58445 
0.0803473 0.048799 0.57267 0.077257 0.0488303 0.560022 0.0740749 0.0487385 0.546633 
0.0707039 0.0485146 0.532669 0.0670324 0.0481424 0.518315 0.0629506 0.0476018 0.503757 
0.0583665 0.0468735 0.489166 0.0532199 0.0459437 0.474678 0.0474924 0.0448083 0.460384 
0.0412115 0.0434763 0.446327 0.0344489 0.0419716 0.432493 0.0273125 0.0403339 0.418825 
0.019934 0.0386171 0.405228 0.012453 0.0368868 0.391586 0.00500009 0.0352166 0.377771 
-0.00231826 0.0336838 0.363664 -0.00943171 0.0323647 0.349162 -0.0163124 0.0313298 0.334185 
-0.0229751 0.0306404 0.318683 -0.0294711 0.0303453 0.302631 -0.0358759 0.030479 0.286027 
-0.0422735 0.0310608 0.26888 -0.0487377 0.0320949 0.251204 -0.0553145 0.0335712 0.233011 
-0.0620076 0.0354666 0.214301 -0.068768 0.0377473 0.195063 -0.0754915 0.04037 0.175275 
-0.082022 0.0432846 0.154905 -0.0881635 0.0464358 0.133924 -0.0936966 0.0497648 0.112314 
-0.0984002 0.0532112 0.090072 -0.102074 0.0567146 0.0672237 -0.104559 0.0602163 0.0438248 
-0.105757 0.0636608 0.0199628 -0.105641 0.0669972 -0.0042472 -0.104261 0.0701805 -0.028669 
-0.101737 0.0731725 -0.0531566 -0.0982526 0.0759423 -0.0775655 -0.0940306 0.0784657 -0.101765 
-0.0893152 0.0807248 -0.125649 -0.084345 0.0827063 -0.14914 -0.0793302 0.0843991 -0.172196 
-0.0744317 0.0857922 -0.194803 -0.0697465 0.0868723 -0.216973 -0.0653005 0.0876211 -0.238731 
-0.061049 0.0880147 -0.260103 -0.056885 0.0880225 -0.281107 -0.0526541 0.0876087 -0.301742 
-0.048175 0.0867341 -0.321979 -0.0432619 0.0853599 -0.341764 -0.0377476 0.0834521 -0.361018 
-0.0315043 0.0809869 -0.37965 -0.0244599 0.0779553 -0.397563 -0.0166085 0.0743679 -0.414674 
-0.00801393 0.0702577 -0.430922 0.00119346 0.0656819 -0.446286 0.0108265 0.0607203 -0.460785 
0.0206558 0.0554728 -0.474486 0.0304281 0.0500535 -0.487491 0.0398855 0.0445841 -0.499933 
0.048785 0.0391856 -0.511957 0.0569152 0.0339696 -0.523699 0.0641095 0.0290308 -0.535269 
0.0702549 0.0244403 -0.546733 0.0752959 0.0202419 -0.558101 0.079233 0.01645 -0.569319 
0.0821174 0.0130516 -0.580275 0.0840426 0.0100101 -0.590808 0.0851331 0.00727188 -0.600723 
0.0855324 0.00477447 -0.609816 0.0853917 0.00245517 -0.617897 0.084859 0.000259487 -0.624815 
0.0840707 -0.00185187 -0.630476 0.0831457 -0.00389803 -0.634862 0.0821817 -0.00587576 -0.638028 
0.081254 -0.00776017 -0.640104 0.080417 -0.00950817 -0.64128 0.0797068 -0.0110643 -0.641783 
0.0791451 -0.0123681 -0.641855 0.0787429 -0.013362 -0.64172 0.0785052 -0.0139988 -0.641562 
0.0784337 -0.014248 -0.641499 
LINES 2 100
OFFSETS vtktypeint64
0 100 
CONNECTIVITY vtktypeint64
0 1 2 3 4 5 6 7 8 
9 10 11 12 13 14 15 16 17 
18 19 20 21 22 23 24 25 26 
27 28 29 30 31 32 33 34 35 
36 37 38 39 40 41 42 43 44 
45 46 47 48 49 50 51 52 53 
54 55 56 57 58 59 60 61 62 
63 64 65 66 67 68 69 70 71 
72 73 74 75 76 77 78 79 80 
81 82 83 84 85 86 87 88 89 
90 91 92 93 94 95 96 97 98 
99 
POINT_DATA 100
FIELD FieldData 3
_theta 1 100 double
0 0.031733259127 0.063466518254 0.095199777382 0.12693303651 0.15866629564 0.19039955476 0.22213281389 0.25386607302 
0.28559933214 0.31733259127 0.3490658504 0.38079910953 0.41253236865 0.44426562778 0.47599888691 0.50773214603 0.53946540516 
0.57119866429 0.60293192342 0.63466518254 0.66639844167 0.6981317008 0.72986495992 0.76159821905 0.79333147818 0.82506473731 
0.85679799643 0.88853125556 0.92026451469 0.95199777382 0.98373103294 1.0154642921 1.0471975512 1.0789308103 1.1106640695 
1.1423973286 1.1741305877 1.2058638468 1.237597106 1.2693303651 1.3010636242 1.3327968833 1.3645301425 1.3962634016 
1.4279966607 1.4597299198 1.491463179 1.5231964381 1.5549296972 1.5866629564 1.6183962155 1.6501294746 1.6818627337 
1.7135959929 1.745329252 1.7770625111 1.8087957702 1.8405290294 1.8722622885 1.9039955476 1.9357288068 1.9674620659 
1.999195325 2.0309285841 2.0626618433 2.0943951024 2.1261283615 2.1578616206 2.1895948798 2.2213281389 2.253061398 
2.2847946572 2.3165279163 2.3482611754 2.3799944345 2.4117276937 2.4434609528 2.4751942119 2.506927471 2.5386607302 
2.5703939893 2.6021272484 2.6338605076 2.6655937667 2.6973270258 2.7290602849 2.7607935441 2.7925268032 2.8242600623 
2.8559933214 2.8877265806 2.9194598397 2.9511930988 2.982926358 3.0146596171 3.0463928762 3.0781261353 3.1098593945 
3.1415926536 
_radius 1 100 double
1.1190566554e-15 0.013954159953 0.027819583353 0.041503527438 0.05491492081 0.067966147718 0.080575507802 0.092670319394 0.10419033821 
0.11509083762 0.12534450643 0.13494145158 0.14388715436 0.15219908937 0.15990336836 0.16703258144 0.17362489408 0.1797232246 
0.18537295161 0.19061735448 0.19549140128 0.20001581266 0.20419382851 0.2080124439 0.21144837199 0.21447739197 0.2170846686 
0.21927330635 0.22106880449 0.22251809127 0.22368317612 0.22463075917 0.22542000326 0.2260909678 0.22665599165 0.22709567062 
0.22736007553 0.22737475852 0.22705032489 0.22629415108 0.22502304701 0.22317590842 0.22072540562 0.21768750624 0.21412733401 
0.21015979264 0.2059437441 0.20166942103 0.19754010371 0.19375062246 0.19046643749 0.18780729387 0.18583839537 0.18456992935 
0.1839634299 0.18394188332 0.18440031602 0.18521488243 0.18625050072 0.18736864456 0.18843685464 0.18933985412 0.18999020144 
0.19033572727 0.1903619042 0.19008900116 0.18956542016 0.18885938202 0.18805087905 0.18722469661 0.18646391417 0.18584247745 
0.18541577718 0.18520959303 0.18520956899 0.18535463507 0.18553760341 0.18561426501 0.18541952285 0.18478684318 0.1835664832 
0.18163857024 0.17891870358 0.17535575162 0.17092339483 0.16560833013 0.15939869074 0.15227607043 0.14421358233 0.13518074725 
0.12515399879 0.11412975994 0.10213608153 0.089239193734 0.075542857894 0.061180443143 0.046301528219 0.031056339712 0.015582608341 
1.083159495e-15 
_area 1 100 double
0 0.00047784121217 0.0019006241905 0.0042363383078 0.0074324285002 0.011417303795 0.016103001814 0.021389255175 0.027168726007 
0.033332394365 0.03977327345 0.0463863781 0.053064323003 0.059691811431 0.066146060969 0.072308562777 0.078086266641 0.083434140058 
0.088370049316 0.092975154216 0.097376639726 0.1017143936 0.10609947608 0.11058077893 0.11513827082 0.11970149494 0.12416879864 
0.12841235266 0.1322857119 0.1356529407 0.13842414056 0.14057493387 0.142144887 0.14321731492 0.14389446751 0.14427049115 
0.14440293268 0.14428864636 0.14384907431 0.14293536183 0.14136601151 0.13898945254 0.13573875803 0.13165831831 0.12690405607 
0.12172165165 0.11640678845 0.11125457316 0.10650877163 0.10232355383 0.098748866418 0.095744201737 0.093214505217 0.091050568166 
0.089160020814 0.087509958595 0.086111821925 0.084819937268 0.083582429704 0.082413957592 0.081370068363 0.080524375442 0.079941666727 
0.079652107235 0.079599311225 0.07961211026 0.07951076173 0.079148402388 0.078446905381 0.077418926926 0.076168915106 0.07487137392 
0.073720205087 0.072860942887 0.072346066431 0.072130253756 0.0720917375 0.072062377193 0.071857520833 0.071305245963 0.070276163137 
0.068708185738 0.066612361766 0.064046365741 0.061058684518 0.05764223225 0.05374047802 0.049293535274 0.044285144054 0.038771627493 
0.032891045987 0.026855862183 0.020932239188 0.01540782022 0.010550524166 0.0065645974751 0.0035554712923 0.0015189065871 0.00036827618526 
3.8594311125e-17 
