# vtk DataFile Version 5.1
vtk output
ASCII
DATASET POLYDATA
POINTS 100 float
0.0762242 0.0375501 0.674454 0.0760273 0.0377989 0.674299 0.0755226 0.0383621 0.673651 
0.0747555 0.039186 0.672494 0.0737953 0.0401882 0.670802 0.0727261 0.0412668 0.668543 
0.0716351 0.042312 0.665673 0.070602 0.0432191 0.662146 0.0696875 0.0438993 0.657911 
0.0689257 0.0442895 0.652917 0.0683192 0.0443582 0.647121 0.067838 0.044108 0.640487 
0.0674233 0.0435729 0.632994 0.0669936 0.0428135 0.624639 0.0664541 0.0419077 0.61544 
0.0657072 0.0409407 0.605439 0.0646626 0.0399941 0.594699 0.0632464 0.0391364 0.583303 
0.0614073 0.0384151 0.57135 0.05912 0.0378522 0.558946 0.0563844 0.0374436 0.5462 
0.0532231 0.0371611 0.533213 0.049675 0.0369582 0.520075 0.0457883 0.036778 0.506854 
0.0416125 0.0365616 0.493593 0.0371922 0.0362579 0.480312 0.0325615 0.0358303 0.467005 
0.0277413 0.0352627 0.453643 0.022739 0.0345625 0.440185 0.0175503 0.0337602 0.426581 
0.0121632 0.0329063 0.412779 0.00656271 0.0320666 0.398739 0.000735527 0.031315 0.384431 
-0.00532568 0.0307266 0.369842 -0.0116196 0.0303704 0.35498 -0.0181354 0.0303039 0.339869 
-0.0248534 0.0305691 0.324545 -0.0317473 0.0311906 0.309049 -0.0387873 0.0321754 0.293422 
-0.0459428 0.0335157 0.277692 -0.0531848 0.0351912 0.261875 -0.0604863 0.0371732 0.245959 
-0.0678208 0.0394283 0.229912 -0.0751593 0.0419213 0.213674 -0.0824651 0.0446168 0.197167 
-0.0896878 0.0474804 0.180298 -0.0967582 0.0504773 0.162968 -0.103583 0.0535717 0.145083 
-0.110044 0.0567244 0.126563 -0.115998 0.0598915 0.107351 -0.121282 0.0630234 0.0874169 
-0.125724 0.0660648 0.0667669 -0.129151 0.0689567 0.0454394 -0.131405 0.0716387 0.0235041 
-0.132358 0.0740531 0.00105695 -0.131922 0.0761492 -0.0217875 -0.130062 0.0778876 -0.0449045 
-0.1268 0.0792439 -0.068167 -0.122212 0.0802104 -0.0914541 -0.11643 0.0807967 -0.114656 
-0.109624 0.081028 -0.137679 -0.10199 0.0809412 -0.160445 -0.0937302 0.0805798 -0.182892 
-0.0850385 0.0799877 -0.204972 -0.0760795 0.0792024 -0.226643 -0.066978 0.07825 -0.247872 
-0.0578105 0.0771407 -0.268623 -0.0486042 0.0758667 -0.288863 -0.039342 0.0744033 -0.308553 
-0.0299735 0.0727117 -0.327652 -0.02043 0.0707448 -0.34612 -0.0106423 0.0684542 -0.36392 
-0.00055826 0.0657986 -0.38102 0.00984236 0.062751 -0.397397 0.020537 0.0593064 -0.413041 
0.0314558 0.0554852 -0.427954 0.042484 0.0513363 -0.442148 0.0534703 0.0469349 -0.455644 
0.0642411 0.0423793 -0.468468 0.0746185 0.0377837 -0.480645 0.0844393 0.03327 -0.492191 
0.0935728 0.0289585 -0.503114 0.101935 0.0249584 -0.513405 0.109497 0.0213602 -0.523041 
0.116286 0.0182296 -0.531986 0.122383 0.0156035 -0.540192 0.127904 0.0134898 -0.547609 
0.132989 0.0118693 -0.55419 0.13778 0.0106997 -0.559899 0.1424 0.00992168 -0.564722 
0.146935 0.0094654 -0.568668 0.151422 0.00925734 -0.571777 0.155842 0.0092261 -0.574117 
0.160121 0.00930702 -0.575782 0.164137 0.00944511 -0.576887 0.167739 0.00959639 -0.577554 
0.170762 0.00972772 -0.577909 0.173048 0.00981565 -0.578063 0.174469 0.0098447 -0.578104 
0.174939 0.00980577 -0.578091 
LINES 2 100
OFFSETS vtktypeint64
0 100 
CONNECTIVITY vtktypeint64
0 1 2 3 4 5 6 7 8 
9 10 11 12 13 14 15 16 17 
18 19 20 21 22 23 24 25 26 
27 28 29 30 31 32 33 34 35 
36 37 38 39 40 41 42 43 44 
45 46 47 48 49 50 51 52 53 
54 55 56 57 58 59 60 61 62 
63 64 65 66 67 68 69 70 71 
72 73 74 75 76 77 78 79 80 
81 82 83 84 85 86 87 88 89 
90 91 92 93 94 95 96 97 98 
99 
POINT_DATA 100
FIELD FieldData 3
_theta 1 100 double
0 0.031733259127 0.063466518254 0.095199777382 0.12693303651 0.15866629564 0.19039955476 0.22213281389 0.25386607302 
0.28559933214 0.31733259127 0.3490658504 0.38079910953 0.41253236865 0.44426562778 0.47599888691 0.50773214603 0.53946540516 
0.57119866429 0.60293192342 0.63466518254 0.66639844167 0.6981317008 0.72986495992 0.76159821905 0.79333147818 0.82506473731 
0.85679799643 0.88853125556 0.92026451469 0.95199777382 0.98373103294 1.0154642921 1.0471975512 1.0789308103 1.1106640695 
1.1423973286 1.1741305877 1.2058638468 1.237597106 1.2693303651 1.3010636242 1.3327968833 1.3645301425 1.3962634016 
1.4279966607 1.4597299198 1.491463179 1.5231964381 1.5549296972 1.5866629564 1.6183962155 1.6501294746 1.6818627337 
1.7135959929 1.745329252 1.7770625111 1.8087957702 1.8405290294 1.8722622885 1.9039955476 1.9357288068 1.9674620659 
1.999195325 2.0309285841 2.0626618433 2.0943951024 2.1261283615 2.1578616206 2.1895948798 2.2213281389 2.253061398 
2.2847946572 2.3165279163 2.3482611754 2.3799944345 2.4117276937 2.4434609528 2.4751942119 2.506927471 2.5386607302 
2.5703939893 2.6021272484 2.6338605076 2.6655937667 2.6973270258 2.7290602849 2.7607935441 2.7925268032 2.8242600623 
2.8559933214 2.8877265806 2.9194598397 2.9511930988 2.982926358 3.0146596171 3.0463928762 3.0781261353 3.1098593945 
3.1415926536 
_radius 1 100 double
1.5673915392e-15 0.013328522809 0.026739485576 0.040284342931 0.053975063354 0.06777407379 0.081592834204 0.095298803906 0.1087292308 
0.12170935628 0.13407227427 0.14567773224 0.15642751716 0.16627564233 0.17523226427 0.18336105008 0.1907705134 0.19760055194 
0.20400593302 0.2101386897 0.21613130852 0.22208234339 0.22804585894 0.23402593928 0.23997723141 0.2458118963 0.25141237232 
0.25664824921 0.2613946516 0.26554909248 0.26904389877 0.27185207551 0.27398577371 0.27548806007 0.27642001425 0.2768459266 
0.27681939123 0.2763725091 0.27550955311 0.27420564828 0.27241048102 0.27005672295 0.2670725234 0.26339691537 0.25899631929 
0.25387974039 0.24811001088 0.24180869473 0.23515306503 0.22836477427 0.22169128508 0.21538257456 0.20966677267 0.20472890374 
0.20069642437 0.19763358191 0.19554401116 0.19437847136 0.19404369762 0.19440985922 0.1953172624 0.19658540276 0.19802712325 
0.19946750353 0.20076366029 0.20182041401 0.20259812209 0.20311146285 0.20342015151 0.20361389908 0.20379442193 0.20405720565 
0.20447523775 0.20508622216 0.20588405271 0.20681475595 0.20777684317 0.20862596834 0.20918372257 0.20925008478 0.20861849656 
0.20709196939 0.20449833265 0.20070281881 0.195616598 0.18920045628 0.18146341663 0.17245667238 0.16226374825 0.15098833187 
0.13874167201 0.12563168677 0.11175578574 0.097198742069 0.082035765177 0.06633949356 0.050188445789 0.033674041797 0.016903848538 
1.1848921074e-15 
_area 1 100 double
0 0.00052674025804 0.0021158205743 0.0047881016545 0.0085611292907 0.013429159363 0.019344977556 0.026209321113 0.033871083467 
0.042137916443 0.050793846202 0.059619279617 0.068409527425 0.076989868023 0.0852268367 0.093035920877 0.1003854593 0.10729636734 
0.11383780866 0.12011922271 0.12627823248 0.13246275274 0.13880645412 0.14540077836 0.1522716801 0.15937061968 0.16658446467 
0.173760119 0.18073235481 0.1873430452 0.19344871371 0.19892386055 0.2036677116 0.20761265466 0.21072728913 0.21301034438 
0.21447704537 0.21514219643 0.21500457841 0.21403646003 0.21218108191 0.20936028207 0.20549307517 0.20052301766 0.19444821851 
0.18734491008 0.17937605722 0.17078153612 0.16185349882 0.15290522586 0.14424163132 0.13613578892 0.12881071963 0.12242123576 
0.11703298187 0.11261332938 0.1090595032 0.10625268933 0.10409180504 0.10248756862 0.10133763712 0.10051367361 0.09987400955 
0.099290031725 0.098664966522 0.097935192628 0.09706218157 0.096029221693 0.094846706536 0.093560052336 0.092254025753 0.091050434125 
0.090099209891 0.089565740027 0.089616916242 0.090408134428 0.091976479956 0.094052409235 0.096242749037 0.098144251157 0.099364026669 
0.099554240044 0.098448619897 0.095887288385 0.091825710946 0.086329667635 0.079561013762 0.07175892469 0.063219396424 0.054273649207 
0.045265160839 0.036525745669 0.028352681723 0.020990144021 0.014618253764 0.0093518386111 0.0052489546758 0.0023267996238 0.00058054241564 
8.5246149786e-17 
