# vtk DataFile Version 5.1
vtk output
ASCII
DATASET POLYDATA
POINTS 100 float
0.115766 0.0470465 0.706689 0.11594 0.0472331 0.706548 0.116504 0.0476572 0.706 
0.117372 0.0483044 0.705024 0.118407 0.0491518 0.703588 0.119444 0.0501694 0.701649 
0.120305 0.0513212 0.699152 0.120819 0.0525668 0.69604 0.120843 0.0538626 0.692251 
0.120276 0.0551634 0.687724 0.119068 0.0564227 0.682406 0.117221 0.0575942 0.676256 
0.114786 0.0586317 0.669249 0.111855 0.0594907 0.66138 0.108538 0.0601281 0.652669 
0.104956 0.0605044 0.643159 0.101213 0.0605845 0.632919 0.0973887 0.0603397 0.622037 
0.0935241 0.0597507 0.610614 0.0896173 0.0588089 0.598761 0.085625 0.05752 0.586585 
0.0814701 0.0559049 0.574186 0.077054 0.0540014 0.561644 0.0722724 0.0518639 0.549014 
0.0670316 0.0495626 0.536324 0.0612644 0.0471799 0.523569 0.0549412 0.0448071 0.510716 
0.0480774 0.0425382 0.497704 0.0407337 0.0404647 0.484454 0.0330116 0.0386686 0.470876 
0.0250421 0.0372168 0.456876 0.0169721 0.036156 0.442364 0.00894777 0.0355094 0.427264 
0.00109912 0.0352754 0.411515 -0.0064735 0.0354282 0.395075 -0.0137081 0.0359209 0.377923 
-0.0205846 0.0366908 0.360051 -0.0271219 0.0376654 0.341466 -0.0333698 0.0387702 0.322182 
-0.0393962 0.0399359 0.302214 -0.0452722 0.0411053 0.281577 -0.0510551 0.0422386 0.260282 
-0.0567753 0.0433166 0.238334 -0.0624246 0.0443423 0.215739 -0.0679515 0.0453388 0.192503 
-0.0732612 0.0463461 0.168639 -0.0782221 0.0474156 0.144174 -0.0826781 0.0486033 0.119153 
-0.0864638 0.0499624 0.0936432 -0.0894222 0.0515367 0.0677337 -0.091422 0.0533548 0.0415363 
-0.0923721 0.0554256 0.0151799 -0.0922325 0.057736 -0.0111965 -0.0910184 0.0602514 -0.0374525 
-0.0887993 0.0629172 -0.0634566 -0.0856914 0.0656629 -0.0890949 -0.081845 0.0684072 -0.11428 
-0.0774289 0.0710638 -0.138955 -0.0726126 0.073547 -0.163095 -0.0675493 0.0757771 -0.186708 
-0.0623625 0.0776848 -0.209826 -0.0571351 0.0792137 -0.232495 -0.0519058 0.0803217 -0.25477 
-0.0466697 0.0809814 -0.276698 -0.0413855 0.0811786 -0.298313 -0.0359868 0.0809103 -0.319624 
-0.0303961 0.0801825 -0.340613 -0.0245402 0.0790076 -0.361233 -0.0183653 0.0774028 -0.381416 
-0.0118485 0.0753879 -0.401074 -0.00500621 0.0729853 -0.420116 0.00210271 0.0702193 -0.438456 
0.00937892 0.0671168 -0.456027 0.0166895 0.0637076 -0.472787 0.0238788 0.0600252 -0.488731 
0.0307819 0.0561067 -0.503886 0.0372394 0.0519931 -0.518317 0.0431111 0.0477278 -0.532113 
0.0482886 0.0433555 -0.545379 0.0527038 0.0389205 -0.558224 0.0563335 0.0344645 -0.570745 
0.0592 0.0300244 -0.583015 0.061367 0.0256314 -0.595071 0.0629324 0.0213095 -0.606913 
0.0640175 0.017076 -0.618494 0.0647559 0.0129425 -0.629734 0.0652811 0.00891647 -0.64052 
0.0657154 0.00500393 -0.650723 0.0661604 0.00121235 -0.660212 0.0666907 -0.00244662 -0.668865 
0.0673495 -0.00595482 -0.676588 0.0681486 -0.00928604 -0.683318 0.0690701 -0.0124056 -0.689033 
0.0700719 -0.0152712 -0.693753 0.0710938 -0.0178349 -0.697529 0.0720658 -0.0200462 -0.700439 
0.072916 -0.0218555 -0.702574 0.0735789 -0.0232187 -0.704024 0.074002 -0.0241002 -0.704864 
0.0741514 -0.0244764 -0.705144 
LINES 2 100
OFFSETS vtktypeint64
0 100 
CONNECTIVITY vtktypeint64
0 1 2 3 4 5 6 7 8 
9 10 11 12 13 14 15 16 17 
18 19 20 21 22 23 24 25 26 
27 28 29 30 31 32 33 34 35 
36 37 38 39 40 41 42 43 44 
45 46 47 48 49 50 51 52 53 
54 55 56 57 58 59 60 61 62 
63 64 65 66 67 68 69 70 71 
72 73 74 75 76 77 78 79 80 
81 82 83 84 85 86 87 88 89 
90 91 92 93 94 95 96 97 98 
99 
POINT_DATA 100
FIELD FieldData 3
_theta 1 100 double
0 0.031733259127 0.063466518254 0.095199777382 0.12693303651 0.15866629564 0.19039955476 0.22213281389 0.25386607302 
0.28559933214 0.31733259127 0.3490658504 0.38079910953 0.41253236865 0.44426562778 0.47599888691 0.50773214603 0.53946540516 
0.57119866429 0.60293192342 0.63466518254 0.66639844167 0.6981317008 0.72986495992 0.76159821905 0.79333147818 0.82506473731 
0.85679799643 0.88853125556 0.92026451469 0.95199777382 0.98373103294 1.0154642921 1.0471975512 1.0789308103 1.1106640695 
1.1423973286 1.1741305877 1.2058638468 1.237597106 1.2693303651 1.3010636242 1.3327968833 1.3645301425 1.3962634016 
1.4279966607 1.4597299198 1.491463179 1.5231964381 1.5549296972 1.5866629564 1.6183962155 1.6501294746 1.6818627337 
1.7135959929 1.745329252 1.7770625111 1.8087957702 1.8405290294 1.8722622885 1.9039955476 1.9357288068 1.9674620659 
1.999195325 2.0309285841 2.0626618433 2.0943951024 2.1261283615 2.1578616206 2.1895948798 2.2213281389 2.253061398 
2.2847946572 2.3165279163 2.3482611754 2.3799944345 2.4117276937 2.4434609528 2.4751942119 2.506927471 2.5386607302 
2.5703939893 2.6021272484 2.6338605076 2.6655937667 2.6973270258 2.7290602849 2.7607935441 2.7925268032 2.8242600623 
2.8559933214 2.8877265806 2.9194598397 2.9511930988 2.982926358 3.0146596171 3.0463928762 3.0781261353 3.1098593945 
3.1415926536 
_radius 1 100 double
2.4835037038e-16 0.014512534636 0.028999543781 0.04342345925 0.057732120128 0.071855182208 0.085704119632 0.099176104616 0.11216131315 
0.12455249419 0.13625517713 0.14719682209 0.15733353193 0.16665349413 0.17517689842 0.18295252089 0.19005144079 0.19655853219 
0.20256255739 0.20814592021 0.21337534418 0.21829478527 0.22292165912 0.2272469602 0.23123919668 0.2348514318 0.23803023458 
0.24072504774 0.24289640674 0.24452164559 0.24559723982 0.24613766924 0.24617140661 0.24573512486 0.2448673743 0.24360288272 
0.24196840735 0.23998081379 0.23764779188 0.23497131651 0.23195360341 0.2286049016 0.22495204054 0.22104626259 0.21696860666 
0.2128310924 0.20877235582 0.20494734707 0.20151217362 0.19860674553 0.19633882503 0.194772775 0.19392474698 0.1937639866 
0.19421834977 0.1951816859 0.19652152961 0.19808703848 0.19971840081 0.20125907025 0.20257081175 0.2035493987 0.20413731181 
0.20432991615 0.20417315583 0.20375295575 0.2031784526 0.20256238356 0.20200217967 0.20156457279 0.20127521714 0.20111357775 
0.20101268241 0.20086337759 0.20052304671 0.19982869695 0.19861359674 0.19672559954 0.19404455664 0.19049613632 0.1860598223 
0.18076964249 0.17470718009 0.16798759264 0.16074057269 0.15308918684 0.14513006038 0.13691823568 0.12845920152 0.11970927759 
0.1105841173 0.10097390694 0.090763024734 0.079851429496 0.068174816004 0.055720654512 0.042537730056 0.028737713288 0.014488469165 
6.9344656293e-16 
_area 1 100 double
0 0.00050309616279 0.0020056190217 0.0044870194636 0.0079122325863 0.012230530146 0.017374028117 0.023255918901 0.029768612426 
0.036782382478 0.044145874248 0.051690557866 0.059241094733 0.066631976637 0.073728026124 0.08044376462 0.086755832112 0.09270438319 
0.098383090726 0.1039209052 0.10945934252 0.11512648148 0.12100745658 0.12711598198 0.1333784782 0.13964072977 0.14569560597 
0.15132141571 0.1563201084 0.16054704631 0.1639259163 0.16644578153 0.16814273328 0.16907339314 0.16928950042 0.16882139857 
0.16767398419 0.16583382082 0.16328325696 0.16001705105 0.15605780788 0.15146736917 0.14635214043 0.14086136092 0.13517834868 
0.1295054861 0.12404424944 0.11897255895 0.11442368009 0.11047300929 0.10713852448 0.10439530508 0.10219759251 0.10050035654 
0.09927748551 0.098567075065 0.098345672569 0.098370940531 0.098501658051 0.098608855288 0.098568232715 0.098274859358 0.097665387893 
0.096741410194 0.095608384543 0.094488524938 0.093394561818 0.092417559846 0.091600723404 0.09104418818 0.090820979108 0.090901239994 
0.091251881727 0.091775195881 0.092324538227 0.092740438536 0.092868278248 0.092559674673 0.091656722944 0.090005717095 0.087507786589 
0.084148119696 0.079992724278 0.075169039124 0.069840064136 0.064176711705 0.058333090912 0.052429512757 0.046546126843 0.040727222838 
0.034994096275 0.029363581825 0.023869032457 0.018579604991 0.013612527004 0.0091332752219 0.0053413696704 0.0024438038999 0.00062197870803 
2.1260519545e-17 
