# vtk DataFile Version 5.1
vtk output
ASCII
DATASET POLYDATA
POINTS 100 float
0.0974493 0.0240387 0.61712 0.097441 0.0242799 0.616717 0.0974499 0.0248475 0.615375 
0.0974414 0.0256973 0.613152 0.0973638 0.0267615 0.61014 0.0971563 0.0279568 0.60645 
0.0967575 0.0291941 0.602202 0.0961152 0.0303882 0.59751 0.0951939 0.0314677 0.592471 
0.0939801 0.0323824 0.587155 0.0924848 0.0331075 0.581597 0.0907411 0.0336455 0.575798 
0.0887992 0.0340235 0.569727 0.0867183 0.0342882 0.563329 0.0845561 0.0344982 0.556534 
0.0823591 0.0347146 0.549272 0.0801528 0.0349919 0.541482 0.0779353 0.0353701 0.533123 
0.0756743 0.0358678 0.524186 0.0733081 0.0364793 0.514691 0.0707514 0.0371746 0.504695 
0.0679041 0.0379021 0.494278 0.0646637 0.0385948 0.483543 0.060938 0.0391786 0.472601 
0.0566579 0.0395806 0.461559 0.0517876 0.0397388 0.450512 0.0463315 0.0396095 0.43953 
0.0403361 0.0391737 0.428652 0.0338871 0.0384395 0.417888 0.0271014 0.0374429 0.407212 
0.0201148 0.036245 0.396573 0.0130679 0.0349264 0.385903 0.00608988 0.0335808 0.375121 
-0.00071573 0.0323066 0.364147 -0.00728294 0.031199 0.352911 -0.0135906 0.0303433 0.341356 
-0.0196642 0.0298085 0.329446 -0.025572 0.029644 0.317165 -0.0314157 0.0298783 0.304514 
-0.0373161 0.0305189 0.291509 -0.0433968 0.0315546 0.278168 -0.0497657 0.0329591 0.264509 
-0.0564983 0.0346947 0.250541 -0.0636244 0.0367165 0.236258 -0.0711183 0.0389756 0.22164 
-0.078896 0.0414222 0.206646 -0.0868181 0.0440074 0.191226 -0.0946988 0.0466837 0.17532 
-0.10232 0.0494061 0.15887 -0.10945 0.0521313 0.141825 -0.11586 0.0548174 0.124154 
-0.121348 0.0574248 0.105851 -0.12575 0.0599158 0.0869394 -0.128957 0.0622561 0.0674734 
-0.13092 0.0644163 0.047539 -0.131652 0.0663734 0.0272478 -0.131224 0.068113 0.00673011 
-0.129754 0.0696298 -0.0138733 -0.127394 0.0709287 -0.0344215 -0.124314 0.0720241 -0.0547821 
-0.120688 0.072938 -0.0748395 -0.116673 0.0736974 -0.094501 -0.112399 0.0743307 -0.1137 
-0.107964 0.0748637 -0.132396 -0.103421 0.0753157 -0.150573 -0.0987862 0.0756961 -0.168237 
-0.0940412 0.0760023 -0.185406 -0.0891401 0.076219 -0.20211 -0.0840219 0.0763193 -0.218379 
-0.0786217 0.0762673 -0.234242 -0.0728824 0.0760225 -0.24972 -0.0667649 0.0755449 -0.264826 
-0.0602553 0.0748003 -0.279563 -0.0533696 0.073766 -0.293928 -0.046154 0.0724346 -0.307908 
-0.0386834 0.070817 -0.321488 -0.0310553 0.0689429 -0.33465 -0.0233831 0.0668597 -0.347375 
-0.0157875 0.064629 -0.359649 -0.00838764 0.062322 -0.371456 -0.0012934 0.0600131 -0.382785 
0.00540166 0.0577741 -0.393622 0.0116248 0.0556681 -0.403955 0.0173268 0.0537448 -0.41377 
0.0224822 0.052037 -0.42305 0.0270878 0.05056 -0.431773 0.0311595 0.0493114 -0.439919 
0.0347276 0.0482747 -0.447465 0.0378324 0.0474223 -0.454388 0.0405188 0.0467207 -0.460671 
0.0428323 0.0461352 -0.466301 0.044815 0.0456343 -0.471273 0.0465035 0.0451931 -0.47559 
0.0479272 0.0447953 -0.479263 0.0491078 0.0444334 -0.48231 0.0500605 0.0441081 -0.484755 
0.0507944 0.0438256 -0.486621 0.0513147 0.043595 -0.487933 0.0516241 0.0434254 -0.48871 
0.0517237 0.0433232 -0.488966 
LINES 2 100
OFFSETS vtktypeint64
0 100 
CONNECTIVITY vtktypeint64
0 1 2 3 4 5 6 7 8 
9 10 11 12 13 14 15 16 17 
18 19 20 21 22 23 24 25 26 
27 28 29 30 31 32 33 34 35 
36 37 38 39 40 41 42 43 44 
45 46 47 48 49 50 51 52 53 
54 55 56 57 58 59 60 61 62 
63 64 65 66 67 68 69 70 71 
72 73 74 75 76 77 78 79 80 
81 82 83 84 85 86 87 88 89 
90 91 92 93 94 95 96 97 98 
99 
POINT_DATA 100
FIELD FieldData 3
_theta 1 100 double
0 0.031733259127 0.063466518254 0.095199777382 0.12693303651 0.15866629564 0.19039955476 0.22213281389 0.25386607302 
0.28559933214 0.31733259127 0.3490658504 0.38079910953 0.41253236865 0.44426562778 0.47599888691 0.50773214603 0.53946540516 
0.57119866429 0.60293192342 0.63466518254 0.66639844167 0.6981317008 0.72986495992 0.76159821905 0.79333147818 0.82506473731 
0.85679799643 0.88853125556 0.92026451469 0.95199777382 0.98373103294 1.0154642921 1.0471975512 1.0789308103 1.1106640695 
1.1423973286 1.1741305877 1.2058638468 1.237597106 1.2693303651 1.3010636242 1.3327968833 1.3645301425 1.3962634016 
1.4279966607 1.4597299198 1.491463179 1.5231964381 1.5549296972 1.5866629564 1.6183962155 1.6501294746 1.6818627337 
1.7135959929 1.745329252 1.7770625111 1.8087957702 1.8405290294 1.8722622885 1.9039955476 1.9357288068 1.9674620659 
1.999195325 2.0309285841 2.0626618433 2.0943951024 2.1261283615 2.1578616206 2.1895948798 2.2213281389 2.253061398 
2.2847946572 2.3165279163 2.3482611754 2.3799944345 2.4117276937 2.4434609528 2.4751942119 2.506927471 2.5386607302 
2.5703939893 2.6021272484 2.6338605076 2.6655937667 2.6973270258 2.7290602849 2.7607935441 2.7925268032 2.8242600623 
2.8559933214 2.8877265806 2.9194598397 2.9511930988 2.982926358 3.0146596171 3.0463928762 3.0781261353 3.1098593945 
3.1415926536 
_radius 1 100 double
5.0953644969e-16 0.010593986835 0.021239343369 0.031968480464 0.042791497054 0.053688977401 0.064608964231 0.075468869125 0.086162319117 
0.096570088715 0.10657353989 0.11606853902 0.12497771488 0.13325917823 0.14091040135 0.14796675716 0.15449509278 0.1605834746 
0.16632872454 0.17182349449 0.17714445406 0.18234285243 0.1874384018 0.19241715273 0.19723371272 0.20181769864 0.20608369824 
0.20994335601 0.21331768988 0.21614757121 0.21840056178 0.22007297397 0.22118696098 0.22178343259 0.22191238326 0.22162262277 
0.22095283947 0.21992547615 0.2185442437 0.21679544719 0.21465278745 0.21208494539 0.2090650087 0.20558063057 0.20164373543 
0.19729859656 0.19262710611 0.18774996318 0.18282246526 0.1780239866 0.17354138015 0.16954838403 0.16618507702 0.16354246486 
0.16165627224 0.16051081478 0.16005000366 0.16019041856 0.16083200905 0.16186438755 0.16316922747 0.16462114266 0.16609039337 
0.16745019359 0.1685886985 0.16942237554 0.16990618812 0.17003753462 0.16985335059 0.16942153269 0.1688285902 0.16816552119 
0.167513681 0.16693210739 0.16644751517 0.16604790952 0.16568040753 0.16525349656 0.16464366629 0.16370593772 0.1622871396 
0.16024011523 0.15743681453 0.15377857877 0.14920261695 0.14368435913 0.13723586771 0.12990081257 0.12174679312 0.11285611364 
0.10331644541 0.093212947453 0.082623147312 0.071615171783 0.060249013262 0.048579793012 0.036661672848 0.024551167537 0.012308981474 
4.0307980906e-16 
_area 1 100 double
0 0.00032793092915 0.0013177784554 0.0029851162538 0.0053478528405 0.0084160557372 0.012181031314 0.016606194673 0.021622211271 
0.027128335263 0.033000615558 0.039105802279 0.045317888966 0.051533003014 0.057678488689 0.063713862131 0.06962439955 0.075410887818 
0.081079749158 0.086636199989 0.092081034426 0.097410406113 0.10261732728 0.10769290215 0.11262495888 0.11739265331 0.12195803489 
0.12625851225 0.13020595269 0.13369725464 0.13663669076 0.13896335818 0.14067219554 0.14181784285 0.14249621008 0.14280713177 
0.14281187549 0.14250470832 0.14181032579 0.1406058001 0.13875739293 0.13615981142 0.13276685607 0.12860631356 0.12377663474 
0.11842883317 0.11274391442 0.1069179601 0.10115718311 0.095672191071 0.090660709111 0.086278666876 0.08260738846 0.079632530777 
0.07725852246 0.075362201129 0.073851800523 0.072700878912 0.071938709903 0.071575819174 0.071563729055 0.071842785573 0.072393668336 
0.073267224897 0.074264350022 0.075112693722 0.075634312053 0.075751888461 0.075430798821 0.07471917439 0.073742517224 0.072668975798 
0.071674355937 0.070923687207 0.070548650961 0.070600447951 0.071014512413 0.071633633209 0.072249858808 0.072625830843 0.072512456383 
0.071677912628 0.069943234697 0.06721166591 0.063481687498 0.058841851252 0.053452620334 0.047522714256 0.041285739733 0.034979596298 
0.028828556441 0.023027685587 0.017731338741 0.013049163433 0.0090506749559 0.0057741884577 0.003234990752 0.0014323275802 0.0003571259016 
1.8375373596e-17 
