# vtk DataFile Version 5.1
vtk output
ASCII
DATASET POLYDATA
POINTS 100 float
0.100405 0.0461477 0.6932 0.100457 0.046463 0.692834 0.100686 0.0472331 0.691592 
0.10104 0.0483903 0.68954 0.101446 0.0498304 0.68678 0.101809 0.0514243 0.683433 
0.102029 0.0530328 0.679627 0.102014 0.0545221 0.675473 0.101689 0.0557778 0.671054 
0.101005 0.0567171 0.666415 0.0999458 0.057296 0.661554 0.0985286 0.0575119 0.656426 
0.0968021 0.0574006 0.650945 0.0948393 0.0570299 0.645005 0.0927274 0.0564877 0.638487 
0.0905562 0.0558697 0.631281 0.0884058 0.0552657 0.623302 0.0863355 0.0547473 0.614502 
0.0843743 0.0543591 0.60488 0.0825164 0.0541128 0.594481 0.0807196 0.0539868 0.583395 
0.0789084 0.0539296 0.571746 0.076981 0.0538674 0.559678 0.07482 0.0537146 0.547337 
0.0723036 0.0533854 0.534858 0.0693186 0.0528055 0.522345 0.0657715 0.0519223 0.509864 
0.0615978 0.0507123 0.49744 0.0567672 0.0491845 0.485049 0.0512856 0.0473807 0.472633 
0.0451928 0.0453718 0.460106 0.0385565 0.0432506 0.447366 0.0314636 0.0411232 0.434314 
0.0240099 0.0390995 0.420861 0.0162901 0.0372839 0.406945 0.00838825 0.0357672 0.392531 
0.000371191 0.0346208 0.377612 -0.00771494 0.0338942 0.362209 -0.0158445 0.033614 0.346358 
-0.0240084 0.0337859 0.3301 -0.0322072 0.0343981 0.313469 -0.040442 0.0354255 0.296483 
-0.0487043 0.0368345 0.279131 -0.0569668 0.0385857 0.261376 -0.0651756 0.0406374 0.24315 
-0.0732458 0.0429459 0.224366 -0.0810609 0.0454656 0.204924 -0.0884765 0.0481475 0.184728 
-0.0953277 0.0509381 0.163699 -0.10144 0.0537778 0.14179 -0.106644 0.0566012 0.118993 
-0.110786 0.0593374 0.0953514 -0.113746 0.0619136 0.0709546 -0.115446 0.0642587 0.0459362 
-0.115859 0.0663093 0.0204628 -0.115013 0.068015 -0.00528014 -0.112987 0.0693441 -0.0311041 
-0.109908 0.0702877 -0.0568341 -0.105939 0.0708619 -0.0823225 -0.101265 0.0711069 -0.10746 
-0.0960784 0.071084 -0.132178 -0.0905616 0.0708693 -0.156454 -0.0848745 0.0705453 -0.180298 
-0.0791415 0.0701913 -0.203749 -0.073444 0.0698738 -0.226856 -0.0678172 0.0696376 -0.249669 
-0.0622513 0.0694992 -0.272222 -0.056698 0.0694433 -0.29452 -0.0510798 0.0694231 -0.31654 
-0.045303 0.0693642 -0.338223 -0.0392709 0.0691716 -0.359481 -0.0328977 0.0687406 -0.380205 
-0.02612 0.0679675 -0.400274 -0.0189064 0.0667622 -0.419572 -0.0112626 0.0650582 -0.437998 
-0.00323349 0.0628214 -0.455477 0.00509961 0.0600549 -0.471969 0.013625 0.0568 -0.48747 
0.0222093 0.0531331 -0.502011 0.0307082 0.0491597 -0.515651 0.0389775 0.0450049 -0.528467 
0.0468838 0.0408024 -0.540545 0.0543137 0.0366834 -0.551965 0.0611801 0.0327661 -0.562794 
0.0674261 0.0291474 -0.573074 0.0730254 0.0258971 -0.582823 0.0779808 0.0230556 -0.592031 
0.0823187 0.0206345 -0.600665 0.0860835 0.01862 -0.60868 0.0893305 0.0169786 -0.61602 
0.0921187 0.0156639 -0.622636 0.0945046 0.0146233 -0.628489 0.0965375 0.0138044 -0.633557 
0.0982567 0.01316 -0.637838 0.0996897 0.0126512 -0.641351 0.100853 0.0122486 -0.644131 
0.101755 0.0119321 -0.646223 0.102397 0.0116893 -0.647671 0.102777 0.0115134 -0.648515 
0.102893 0.0114014 -0.648782 
LINES 2 100
OFFSETS vtktypeint64
0 100 
CONNECTIVITY vtktypeint64
0 1 2 3 4 5 6 7 8 
9 10 11 12 13 14 15 16 17 
18 19 20 21 22 23 24 25 26 
27 28 29 30 31 32 33 34 35 
36 37 38 39 40 41 42 43 44 
45 46 47 48 49 50 51 52 53 
54 55 56 57 58 59 60 61 62 
63 64 65 66 67 68 69 70 71 
72 73 74 75 76 77 78 79 80 
81 82 83 84 85 86 87 88 89 
90 91 92 93 94 95 96 97 98 
99 
POINT_DATA 100
FIELD FieldData 3
_theta 1 100 double
0 0.031733259127 0.063466518254 0.095199777382 0.12693303651 0.15866629564 0.19039955476 0.22213281389 0.25386607302 
0.28559933214 0.31733259127 0.3490658504 0.38079910953 0.41253236865 0.44426562778 0.47599888691 0.50773214603 0.53946540516 
0.57119866429 0.60293192342 0.63466518254 0.66639844167 0.6981317008 0.72986495992 0.76159821905 0.79333147818 0.82506473731 
0.85679799643 0.88853125556 0.92026451469 0.95199777382 0.98373103294 1.0154642921 1.0471975512 1.0789308103 1.1106640695 
1.1423973286 1.1741305877 1.2058638468 1.237597106 1.2693303651 1.3010636242 1.3327968833 1.3645301425 1.3962634016 
1.4279966607 1.4597299198 1.491463179 1.5231964381 1.5549296972 1.5866629564 1.6183962155 1.6501294746 1.6818627337 
1.7135959929 1.745329252 1.7770625111 1.8087957702 1.8405290294 1.8722622885 1.9039955476 1.9357288068 1.9674620659 
1.999195325 2.0309285841 2.0626618433 2.0943951024 2.1261283615 2.1578616206 2.1895948798 2.2213281389 2.253061398 
2.2847946572 2.3165279163 2.3482611754 2.3799944345 2.4117276937 2.4434609528 2.4751942119 2.506927471 2.5386607302 
2.5703939893 2.6021272484 2.6338605076 2.6655937667 2.6973270258 2.7290602849 2.7607935441 2.7925268032 2.8242600623 
2.8559933214 2.8877265806 2.9194598397 2.9511930988 2.982926358 3.0146596171 3.0463928762 3.0781261353 3.1098593945 
3.1415926536 
_radius 1 100 double
1.9078803932e-16 0.012523949412 0.025083351659 0.037698309458 0.050374484243 0.063098659252 0.075836878212 0.088535229468 0.101122884 
0.11351666611 0.12562631856 0.13735972079 0.14862755717 0.15934720279 0.16944580556 0.1788626464 0.1875508652 0.19547859687 
0.20262952498 0.20900286508 0.21461283221 0.21948769922 0.22366857792 0.22720802888 0.23016852276 0.23262064887 0.2346408287 
0.23630819683 0.23770032781 0.23888767375 0.23992694167 0.2408541144 0.24167825798 0.24237748758 0.24289834301 0.24315933936 
0.24305873665 0.2424858312 0.24133449187 0.23951733341 0.23697883799 0.23370586747 0.22973429428 0.2251508525 0.22008973004 
0.21472389915 0.20925176719 0.20388045915 0.19880783597 0.19420595132 0.19020866084 0.18690521767 0.18434000944 0.18251675829 
0.1814044715 0.18094281977 0.18104616128 0.18160707042 0.18250100897 0.18359350153 0.18475020607 0.18584900073 0.18679204728 
0.18751525704 0.18799299793 0.18823703761 0.18829006403 0.18821517582 0.18808327865 0.18796037509 0.18789644043 0.18791712198 
0.1880190273 0.18816889842 0.18830645536 0.18835015286 0.18820469534 0.18776904464 0.18694376452 0.18563669652 0.18376620392 
0.18126180143 0.17806285565 0.17411666272 0.16937711245 0.16380446454 0.15736604966 0.15003739313 0.14180336266 0.13265923025 
0.12261176563 0.11168052171 0.099899348218 0.087317981682 0.074003413484 0.060040681174 0.045532749067 0.030599216459 0.015373710877 
2.5715781777e-16 
_area 1 100 double
0 0.00041216639904 0.0016572517355 0.0037580976423 0.0067437988948 0.010638617797 0.015450418654 0.021161042911 0.027720242981 
0.035043705695 0.043014706359 0.051488386039 0.06029775476 0.069261222547 0.078192245689 0.086911762245 0.095263020413 0.10312657989 
0.11043172342 0.11716018611 0.12333940467 0.12902536544 0.13427912271 0.13914475389 0.14363727596 0.14774529487 0.15144712457 
0.15473420934 0.15763284941 0.1602144563 0.16258650262 0.16486203279 0.16711586128 0.16934610051 0.17145886401 0.17327894604 
0.17457639585 0.17510016352 0.17461563024 0.17294153841 0.16997883329 0.16572676986 0.16028660489 0.15385489297 0.14670732085 
0.13917290816 0.13159884043 0.12430920958 0.11756725182 0.11155561771 0.10638270424 0.10210642249 0.098754354387 0.096321444033 
0.094749838661 0.093919568369 0.093663260215 0.093791286323 0.094112742002 0.094449156908 0.094645174367 0.094579680667 0.094176653677 
0.093412941955 0.092320362589 0.09097968299 0.089504935807 0.08801901052 0.086625473605 0.085387202645 0.084323676213 0.083427001785 
0.082682572255 0.082081825042 0.081625123934 0.081316588014 0.081150694813 0.08109333469 0.081067446727 0.080951882685 0.080591951202 
0.07981486735 0.078445605036 0.076323595827 0.073323462846 0.069378735751 0.064500188659 0.058780618395 0.052385269689 0.045532893605 
0.038473288703 0.031465388416 0.024757951011 0.018573797289 0.013098462171 0.0084744182449 0.0048016463479 0.0021437913249 0.00053727159004 
4.3180019064e-17 
