# vtk DataFile Version 5.1
vtk output
ASCII
DATASET POLYDATA
POINTS 100 float
0.0826414 0.0311668 0.632815 0.0827153 0.0315162 0.632606 0.0829886 0.03241 0.631823 
0.0834228 0.0337839 0.630483 0.0839588 0.0355376 0.628606 0.0845235 0.0375449 0.626218 
0.0850386 0.0396652 0.623339 0.0854288 0.041757 0.619982 0.0856296 0.0436904 0.616149 
0.0855935 0.0453569 0.611825 0.0852924 0.0466778 0.606984 0.0847181 0.0476074 0.601588 
0.0838793 0.0481327 0.595594 0.082796 0.0482704 0.588959 0.081493 0.0480596 0.581652 
0.0799921 0.0475539 0.573654 0.0783052 0.0468122 0.564968 0.0764297 0.0458905 0.555622 
0.0743453 0.0448356 0.545662 0.0720146 0.0436811 0.535157 0.0693859 0.0424468 0.524188 
0.0663993 0.0411398 0.512838 0.0629935 0.0397598 0.501188 0.0591138 0.038304 0.489305 
0.0547198 0.0367743 0.477239 0.0497905 0.0351827 0.465013 0.0443283 0.0335553 0.452631 
0.038359 0.0319349 0.440072 0.0319297 0.0303798 0.427301 0.0251032 0.0289608 0.414276 
0.0179515 0.0277551 0.400957 0.0105482 0.0268391 0.38731 0.00296116 0.0262811 0.373318 
-0.00475313 0.0261333 0.358982 -0.0125528 0.0264265 0.344322 -0.020411 0.0271667 0.329368 
-0.028313 0.0283339 0.314159 -0.0362505 0.029885 0.298731 -0.0442149 0.0317586 0.283105 
-0.0521885 0.0338819 0.26728 -0.0601372 0.036179 0.251226 -0.0680043 0.0385788 0.234882 
-0.0757075 0.0410225 0.218155 -0.0831391 0.0434685 0.200929 -0.0901705 0.0458956 0.183075 
-0.0966591 0.0483022 0.164466 -0.102459 0.0507036 0.144993 -0.107433 0.0531267 0.124577 
-0.111464 0.0556028 0.103185 -0.114466 0.0581601 0.0808396 -0.116391 0.0608166 0.0576161 
-0.117233 0.0635739 0.0336452 -0.117031 0.0664132 0.0091012 -0.115858 0.0692946 -0.0158117 
-0.113817 0.0721577 -0.0408764 -0.111029 0.0749261 -0.0658818 -0.107617 0.0775126 -0.0906404 
-0.103695 0.0798265 -0.115002 -0.0993587 0.0817809 -0.138863 -0.0946716 0.0832995 -0.162171 
-0.0896654 0.0843216 -0.184919 -0.0843375 0.0848063 -0.207139 -0.0786565 0.0847338 -0.228887 
-0.0725693 0.0841047 -0.250226 -0.0660128 0.0829377 -0.271215 -0.0589258 0.0812659 -0.291888 
-0.0512603 0.0791328 -0.312248 -0.0429929 0.0765875 -0.332263 -0.0341313 0.0736814 -0.351866 
-0.0247184 0.0704653 -0.370963 -0.0148322 0.0669882 -0.389443 -0.00458136 0.0632965 -0.407198 
0.00590154 0.0594358 -0.424133 0.0164699 0.0554515 -0.440184 0.0269734 0.0513906 -0.455324 
0.0372683 0.047303 -0.469573 0.0472259 0.043242 -0.482991 0.0567394 0.0392635 -0.495673 
0.0657275 0.0354241 -0.507734 0.0741351 0.031779 -0.519291 0.0819313 0.028378 -0.53045 
0.0891057 0.0252622 -0.541283 0.0956631 0.0224608 -0.55182 0.101618 0.0199888 -0.562037 
0.106989 0.0178456 -0.571861 0.111798 0.0160157 -0.581174 0.116062 0.0144706 -0.589831 
0.119799 0.0131719 -0.597673 0.123027 0.0120758 -0.604552 0.125764 0.0111377 -0.610354 
0.128033 0.0103169 -0.615013 0.129864 0.00958021 -0.618527 0.131293 0.00890502 -0.620961 
0.132367 0.00827998 -0.622442 0.133138 0.00770473 -0.62315 0.133662 0.00718792 -0.6233 
0.133994 0.0067441 -0.623114 0.134184 0.00639004 -0.622802 0.134274 0.00614096 -0.622533 
0.134289 0.00600739 -0.622417 
LINES 2 100
OFFSETS vtktypeint64
0 100 
CONNECTIVITY vtktypeint64
0 1 2 3 4 5 6 7 8 
9 10 11 12 13 14 15 16 17 
18 19 20 21 22 23 24 25 26 
27 28 29 30 31 32 33 34 35 
36 37 38 39 40 41 42 43 44 
45 46 47 48 49 50 51 52 53 
54 55 56 57 58 59 60 61 62 
63 64 65 66 67 68 69 70 71 
72 73 74 75 76 77 78 79 80 
81 82 83 84 85 86 87 88 89 
90 91 92 93 94 95 96 97 98 
99 
POINT_DATA 100
FIELD FieldData 3
_theta 1 100 double
0 0.031733259127 0.063466518254 0.095199777382 0.12693303651 0.15866629564 0.19039955476 0.22213281389 0.25386607302 
0.28559933214 0.31733259127 0.3490658504 0.38079910953 0.41253236865 0.44426562778 0.47599888691 0.50773214603 0.53946540516 
0.57119866429 0.60293192342 0.63466518254 0.66639844167 0.6981317008 0.72986495992 0.76159821905 0.79333147818 0.82506473731 
0.85679799643 0.88853125556 0.92026451469 0.95199777382 0.98373103294 1.0154642921 1.0471975512 1.0789308103 1.1106640695 
1.1423973286 1.1741305877 1.2058638468 1.237597106 1.2693303651 1.3010636242 1.3327968833 1.3645301425 1.3962634016 
1.4279966607 1.4597299198 1.491463179 1.5231964381 1.5549296972 1.5866629564 1.6183962155 1.6501294746 1.6818627337 
1.7135959929 1.745329252 1.7770625111 1.8087957702 1.8405290294 1.8722622885 1.9039955476 1.9357288068 1.9674620659 
1.999195325 2.0309285841 2.0626618433 2.0943951024 2.1261283615 2.1578616206 2.1895948798 2.2213281389 2.253061398 
2.2847946572 2.3165279163 2.3482611754 2.3799944345 2.4117276937 2.4434609528 2.4751942119 2.506927471 2.5386607302 
2.5703939893 2.6021272484 2.6338605076 2.6655937667 2.6973270258 2.7290602849 2.7607935441 2.7925268032 2.8242600623 
2.8559933214 2.8877265806 2.9194598397 2.9511930988 2.982926358 3.0146596171 3.0463928762 3.0781261353 3.1098593945 
3.1415926536 
_radius 1 100 double
1.1116586643e-15 0.013727364662 0.027387379847 0.040909286762 0.054227518427 0.067282661964 0.080021092128 0.092393971822 0.10435649948 
0.11586803771 0.12689324248 0.13740378338 0.14737991971 0.15681117919 0.16569566016 0.17403794404 0.18184610789 0.18912869863 
0.19589263043 0.20214273283 0.20788317103 0.21312034548 0.21786636447 0.22214193792 0.22597764338 0.22941294328 0.23249295844 
0.23526360049 0.23776598917 0.24003101512 0.24207457463 0.24389367856 0.2454635472 0.24673596905 0.24763947111 0.2480820124 
0.247956819 0.24715158718 0.2455606695 0.24309918191 0.23971740137 0.23541349956 0.23024265007 0.22432086975 0.21782257324 
0.21097164478 0.20402671214 0.19726208067 0.19094637705 0.18532138125 0.18058370111 0.17687151011 0.17425723097 0.17274524495 
0.1722727078 0.17271242846 0.17387909145 0.17554181761 0.17744508533 0.17933650247 0.18099638894 0.18226305312 0.18304913703 
0.18334692629 0.18322277777 0.18280243312 0.18225003819 0.18174422478 0.1814545466 0.181520846 0.18203697229 0.18303922125 
0.18449951686 0.18632380608 0.18835670401 0.19039317767 0.19219673123 0.1935218382 0.19413722204 0.19384648077 0.19250330875 
0.19001973076 0.18636694098 0.18156932538 0.17569298798 0.16883061647 0.16108483898 0.15255234438 0.14331094324 0.13341140276 
0.12287527393 0.11169906183 0.099864059344 0.087350146836 0.074151080273 0.06028845185 0.045821708739 0.030852321082 0.015521243715 
1.2375848971e-15 
_area 1 100 double
0 0.00050580314619 0.0020171960102 0.0045146395134 0.0079612175963 0.012298108073 0.017441674804 0.023284286725 0.029699896734 
0.036553816452 0.043714673504 0.051065811111 0.058513527426 0.065990301077 0.07345218998 0.080870778181 0.088221347458 0.095470235325 
0.10256525869 0.1094331 0.11598622455 0.12213924413 0.12783120902 0.13304697876 0.13782886572 0.14227094086 0.14649422392 
0.15061038728 0.1546889393 0.15874116428 0.1627235581 0.16655282354 0.17012115235 0.17330432792 0.17596176283 0.17793304086 
0.1790378081 0.17908476399 0.1778920318 0.1753167052 0.17128744339 0.16583203025 0.15909239162 0.15132225446 0.14286645837 
0.13412485547 0.12550702392 0.1173861924 0.11006099779 0.10373120527 0.098490169998 0.094336223698 0.091204430316 0.089059976736 
0.087938704721 0.087515825718 0.087609464643 0.088005796623 0.088508408218 0.088965227833 0.089225412083 0.089333974631 0.08906673902 
0.088295359843 0.087023957145 0.08533503741 0.083390339087 0.081420286768 0.079696402747 0.078491073659 0.078032289337 0.078462279147 
0.079809344247 0.081979141392 0.084764535831 0.087868864395 0.090938300433 0.093599520159 0.095498574709 0.096337164088 0.095902201785 
0.094084266378 0.090881965948 0.086392294505 0.080790164948 0.074302090125 0.067179121046 0.059673125305 0.05201899086 0.044423856341 
0.037063209195 0.030082704648 0.023603845721 0.017731256876 0.012559252562 0.0081758220271 0.0046630129077 0.0020938227029 0.00052677259259 
3.0059296537e-17 
