# vtk DataFile Version 5.1
vtk output
ASCII
DATASET POLYDATA
POINTS 100 float
0.0919517 0.0510383 0.69326 0.0921884 0.0511302 0.693028 0.092905 0.0512538 0.692196 
0.0940081 0.0514034 0.690792 0.0953548 0.0515716 0.688859 0.0967705 0.0517507 0.686442 
0.0980709 0.0519342 0.68358 0.0990842 0.0521184 0.680296 0.099672 0.0523028 0.676589 
0.0997448 0.0524907 0.672428 0.0992704 0.0526879 0.667758 0.0982751 0.0529012 0.662498 
0.096836 0.0531363 0.656559 0.0950662 0.0533947 0.649851 0.0930961 0.0536715 0.642302 
0.0910507 0.0539533 0.633866 0.0890289 0.0542169 0.624538 0.0870856 0.0544296 0.61436 
0.0852206 0.0545507 0.603413 0.0833743 0.0545347 0.591822 0.0814328 0.0543352 0.579735 
0.07924 0.0539098 0.56731 0.0766166 0.0532255 0.554699 0.0733828 0.0522636 0.542028 
0.0693821 0.0510229 0.52938 0.0645027 0.0495229 0.51679 0.0586941 0.0478033 0.504237 
0.0519766 0.045923 0.491648 0.0444416 0.043956 0.478909 0.036244 0.0419864 0.465878 
0.0275864 0.0401017 0.452402 0.0186971 0.038386 0.43834 0.00980556 0.0369131 0.423576 
0.00111762 0.0357412 0.408035 -0.00720617 0.0349088 0.391687 -0.0150661 0.0344323 0.374551 
-0.0224312 0.034307 0.356683 -0.0293374 0.0345091 0.338172 -0.0358782 0.0350004 0.319117 
-0.0421861 0.0357336 0.299611 -0.04841 0.0366594 0.279728 -0.0546896 0.0377319 0.259509 
-0.0611305 0.0389146 0.238952 -0.0677835 0.0401843 0.218019 -0.0746303 0.0415325 0.196638 
-0.0815777 0.042966 0.174717 -0.088461 0.0445042 0.152162 -0.0950566 0.046175 0.128899 
-0.101101 0.0480101 0.104885 -0.106319 0.0500384 0.0801288 -0.110445 0.0522805 0.0546964 
-0.113255 0.0547436 0.0287113 -0.114586 0.0574175 0.00234774 -0.114355 0.0602727 -0.0241839 
-0.11256 0.0632603 -0.050657 -0.109286 0.0663139 -0.0768511 -0.104688 0.0693528 -0.102575 
-0.098979 0.0722874 -0.127686 -0.0924025 0.075024 -0.152102 -0.0852101 0.0774715 -0.17581 
-0.0776352 0.079546 -0.198861 -0.0698724 0.0811759 -0.221358 -0.0620611 0.0823054 -0.243441 
-0.0542778 0.0828962 -0.265261 -0.046535 0.0829285 -0.286959 -0.0387891 0.0824003 -0.308642 
-0.0309546 0.081326 -0.330366 -0.0229224 0.0797336 -0.352125 -0.0145813 0.0776621 -0.373853 
-0.00583906 0.0751587 -0.395424 0.00335991 0.072276 -0.416674 0.0130208 0.0690695 -0.437418 
0.0230914 0.0655955 -0.457472 0.0334624 0.0619099 -0.476678 0.0439736 0.0580666 -0.494921 
0.0544273 0.0541166 -0.512142 0.064605 0.0501075 -0.528345 0.0742873 0.0460827 -0.543588 
0.0832733 0.0420805 -0.557978 0.091399 0.0381341 -0.571646 0.0985507 0.0342707 -0.584729 
0.104674 0.0305113 -0.597349 0.109776 0.0268708 -0.609586 0.113924 0.0233585 -0.621475 
0.117233 0.0199788 -0.632989 0.119854 0.0167323 -0.644049 0.12196 0.0136178 -0.654528 
0.123725 0.0106338 -0.664274 0.125308 0.00778042 -0.673128 0.12684 0.0050615 -0.680948 
0.128414 0.00248545 -0.687632 0.130076 6.62843e-05 -0.693131 0.131827 -0.00217641 -0.69746 
0.133626 -0.00421817 -0.700699 0.135398 -0.00603101 -0.702981 0.137047 -0.00758548 -0.704479 
0.138468 -0.00885291 -0.705384 0.139563 -0.00980788 -0.705877 0.14025 -0.0104304 -0.706107 
0.140477 -0.0107077 -0.706173 
LINES 2 100
OFFSETS vtktypeint64
0 100 
CONNECTIVITY vtktypeint64
0 1 2 3 4 5 6 7 8 
9 10 11 12 13 14 15 16 17 
18 19 20 21 22 23 24 25 26 
27 28 29 30 31 32 33 34 35 
36 37 38 39 40 41 42 43 44 
45 46 47 48 49 50 51 52 53 
54 55 56 57 58 59 60 61 62 
63 64 65 66 67 68 69 70 71 
72 73 74 75 76 77 78 79 80 
81 82 83 84 85 86 87 88 89 
90 91 92 93 94 95 96 97 98 
99 
POINT_DATA 100
FIELD FieldData 3
_theta 1 100 double
0 0.031733259127 0.063466518254 0.095199777382 0.12693303651 0.15866629564 0.19039955476 0.22213281389 0.25386607302 
0.28559933214 0.31733259127 0.3490658504 0.38079910953 0.41253236865 0.44426562778 0.47599888691 0.50773214603 0.53946540516 
0.57119866429 0.60293192342 0.63466518254 0.66639844167 0.6981317008 0.72986495992 0.76159821905 0.79333147818 0.82506473731 
0.85679799643 0.88853125556 0.92026451469 0.95199777382 0.98373103294 1.0154642921 1.0471975512 1.0789308103 1.1106640695 
1.1423973286 1.1741305877 1.2058638468 1.237597106 1.2693303651 1.3010636242 1.3327968833 1.3645301425 1.3962634016 
1.4279966607 1.4597299198 1.491463179 1.5231964381 1.5549296972 1.5866629564 1.6183962155 1.6501294746 1.6818627337 
1.7135959929 1.745329252 1.7770625111 1.8087957702 1.8405290294 1.8722622885 1.9039955476 1.9357288068 1.9674620659 
1.999195325 2.0309285841 2.0626618433 2.0943951024 2.1261283615 2.1578616206 2.1895948798 2.2213281389 2.253061398 
2.2847946572 2.3165279163 2.3482611754 2.3799944345 2.4117276937 2.4434609528 2.4751942119 2.506927471 2.5386607302 
2.5703939893 2.6021272484 2.6338605076 2.6655937667 2.6973270258 2.7290602849 2.7607935441 2.7925268032 2.8242600623 
2.8559933214 2.8877265806 2.9194598397 2.9511930988 2.982926358 3.0146596171 3.0463928762 3.0781261353 3.1098593945 
3.1415926536 
_radius 1 100 double
4.5712514585e-16 0.014865354539 0.029787534444 0.044798791588 0.059899870074 0.07505137333 0.090171670767 0.10514141776 0.11981366854 
0.13402777822 0.14762491713 0.16046305978 0.17242969002 0.18345104567 0.19349732022 0.20258365907 0.21076694896 0.21813841008 
0.22481213406 0.23091022591 0.23654613533 0.24180879823 0.24675081128 0.2513835242 0.25568050781 0.25958870793 0.26304447974 
0.26599037833 0.26838851014 0.2702274318 0.27152162486 0.27230478106 0.27261968678 0.27250782069 0.27200093743 0.2711155985 
0.26985062024 0.26818706804 0.26609056109 0.26351593218 0.26041445165 0.25674370545 0.25247972677 0.24763018376 0.24224656956 
0.23643276133 0.23034730661 0.22419750773 0.21822477011 0.21268250468 0.20780968301 0.20380442501 0.20080231908 0.19886322852 
0.19796809468 0.19802441051 0.19887716933 0.20032249836 0.20212335856 0.2040283842 0.20579435293 0.2072104775 0.20812077249 
0.2084404467 0.20816333679 0.20735901307 0.20615982735 0.20473966666 0.20328745743 0.20197937471 0.20095398679 0.20029399419 
0.20001681598 0.20007437293 0.20036062795 0.200724402 0.20098495196 0.20094845466 0.20042421269 0.19923959965 0.19725254616 
0.19436017252 0.190502388 0.18565997855 0.17984768655 0.17310372678 0.16547779992 0.15701980752 0.14777115013 0.13775984911 
0.12699998509 0.11549527037 0.10324602937 0.090258416888 0.07655433706 0.062180304988 0.047213546148 0.031764029262 0.015971823274 
8.7882606038e-16 
_area 1 100 double
0 0.00059460644243 0.0023774045818 0.0053418643391 0.0094666604532 0.014703656798 0.020967416823 0.028130325335 0.036025819424 
0.044459799743 0.053227944864 0.062135078677 0.071012227596 0.079727755771 0.088191313221 0.096352833069 0.10420090343 0.1117625225 
0.11910102876 0.12630659126 0.13347660874 0.14068863055 0.14797227514 0.15528795136 0.16252007707 0.1694914762 0.17599967716 
0.181863559 0.18696094373 0.19124319639 0.19472600777 0.19746560768 0.19953140813 0.20098171966 0.20184467365 0.20210613232 
0.20170898538 0.20056666687 0.19858535095 0.19568415116 0.19180792154 0.18693564997 0.18109022495 0.17435196501 0.16687248821 
0.15888111405 0.15067570797 0.14259448654 0.13497320637 0.12809961978 0.12217966887 0.11732657432 0.1135837273 0.1110128793 
0.1096060104 0.10899734369 0.10885931228 0.10896907258 0.10916366097 0.10931404176 0.10929789038 0.10897990505 0.10822162666 
0.10691920303 0.10504213873 0.10265230544 0.099897846947 0.096984239021 0.094131172954 0.091531838731 0.089329356746 0.08761270079 
0.086427629752 0.085797624193 0.085710667975 0.08619358886 0.087353559929 0.089303476079 0.091188085429 0.092682682328 0.093473708796 
0.093283860849 0.091915546047 0.089276746309 0.085382896157 0.080338591591 0.074308992342 0.06749168966 0.060096706383 0.052337113444 
0.044427728663 0.036586589937 0.029034260814 0.021988623915 0.015655826204 0.010220061215 0.0058352562491 0.0026205026319 0.00065913510448 
2.8456199258e-18 
