# vtk DataFile Version 5.1
vtk output
ASCII
DATASET POLYDATA
POINTS 100 float
0.121803 0.0430023 0.734914 0.121834 0.0432369 0.734359 0.121935 0.0437564 0.732598 
0.122088 0.0445261 0.729696 0.12226 0.045494 0.72575 0.122406 0.0465971 0.720883 
0.122476 0.0477697 0.71523 0.122409 0.0489509 0.708921 0.122142 0.0500917 0.70207 
0.121615 0.0511596 0.694764 0.120767 0.0521406 0.687059 0.119548 0.0530383 0.678977 
0.117917 0.0538703 0.670508 0.115847 0.0546616 0.661619 0.113325 0.0554373 0.652267 
0.110352 0.0562152 0.642404 0.106946 0.0569988 0.631994 0.103134 0.0577729 0.621017 
0.0989533 0.0585019 0.60948 0.0944437 0.0591315 0.597417 0.0896469 0.0595933 0.584885 
0.0846011 0.0598124 0.571957 0.0793384 0.0597167 0.558719 0.0738836 0.0592468 0.54525 
0.0682534 0.0583649 0.531622 0.0624583 0.0570619 0.51788 0.0565045 0.0553619 0.504046 
0.0503976 0.053322 0.490112 0.0441453 0.0510298 0.476039 0.0377607 0.048596 0.461768 
0.0312637 0.0461454 0.447225 0.0246815 0.0438055 0.432332 0.0180466 0.0416958 0.417015 
0.0113944 0.0399172 0.401217 0.00475843 0.038544 0.384897 -0.00183438 0.0376194 0.368039 
-0.00836819 0.0371542 0.350648 -0.0148416 0.037129 0.332745 -0.0212688 0.0374999 0.314361 
-0.027678 0.038206 0.295528 -0.034107 0.0391785 0.276269 -0.0405955 0.0403492 0.25659 
-0.0471756 0.0416586 0.236478 -0.0538608 0.0430609 0.215898 -0.0606352 0.0445272 0.194796 
-0.0674442 0.0460453 0.173106 -0.074189 0.0476172 0.15076 -0.0807245 0.049254 0.127698 
-0.086864 0.0509708 0.103882 -0.0923879 0.0527801 0.0793023 -0.0970587 0.0546867 0.0539886 
-0.10064 0.0566844 0.0280106 -0.102915 0.0587542 0.00147772 -0.103712 0.0608652 -0.0254671 
-0.102919 0.0629772 -0.0526566 -0.1005 0.065045 -0.079912 -0.0965007 0.0670234 -0.107056 
-0.0910506 0.0688721 -0.133927 -0.084354 0.0705589 -0.160388 -0.0766734 0.0720626 -0.186335 
-0.0683081 0.0733724 -0.211701 -0.0595668 0.0744859 -0.236454 -0.0507407 0.0754049 -0.260592 
-0.0420766 0.0761308 -0.284135 -0.0337557 0.0766585 -0.307114 -0.0258788 0.0769719 -0.32956 
-0.0184602 0.0770404 -0.351497 -0.0114318 0.0768179 -0.372931 -0.00465561 0.0762445 -0.393853 
0.00205574 0.0752505 -0.41423 0.0089127 0.0737636 -0.434018 0.0161204 0.0717165 -0.453163 
0.0238509 0.0690561 -0.471608 0.0322192 0.0657519 -0.489306 0.0412664 0.061802 -0.506223 
0.0509509 0.0572378 -0.522344 0.0611493 0.0521241 -0.537672 0.0716673 0.0465568 -0.552231 
0.0822573 0.0406564 -0.566055 0.0926429 0.0345597 -0.579183 0.102546 0.0284095 -0.591651 
0.111713 0.0223433 -0.603482 0.119938 0.0164837 -0.61468 0.127081 0.0109303 -0.625223 
0.133077 0.00575429 -0.635068 0.137937 0.000996612 -0.644153 0.141741 -0.0033307 -0.652402 
0.144623 -0.00723995 -0.659742 0.146754 -0.010761 -0.666108 0.148317 -0.0139331 -0.671461 
0.14949 -0.0167969 -0.675794 0.150424 -0.019387 -0.679141 0.151234 -0.0217263 -0.681577 
0.15199 -0.0238238 -0.683218 0.152718 -0.0256736 -0.684209 0.153407 -0.0272579 -0.684712 
0.15402 -0.0285507 -0.684893 0.154507 -0.0295239 -0.684902 0.15482 -0.0301522 -0.684861 
0.154924 -0.0304184 -0.684846 
LINES 2 100
OFFSETS vtktypeint64
0 100 
CONNECTIVITY vtktypeint64
0 1 2 3 4 5 6 7 8 
9 10 11 12 13 14 15 16 17 
18 19 20 21 22 23 24 25 26 
27 28 29 30 31 32 33 34 35 
36 37 38 39 40 41 42 43 44 
45 46 47 48 49 50 51 52 53 
54 55 56 57 58 59 60 61 62 
63 64 65 66 67 68 69 70 71 
72 73 74 75 76 77 78 79 80 
81 82 83 84 85 86 87 88 89 
90 91 92 93 94 95 96 97 98 
99 
POINT_DATA 100
FIELD FieldData 3
_theta 1 100 double
0 0.031733259127 0.063466518254 0.095199777382 0.12693303651 0.15866629564 0.19039955476 0.22213281389 0.25386607302 
0.28559933214 0.31733259127 0.3490658504 0.38079910953 0.41253236865 0.44426562778 0.47599888691 0.50773214603 0.53946540516 
0.57119866429 0.60293192342 0.63466518254 0.66639844167 0.6981317008 0.72986495992 0.76159821905 0.79333147818 0.82506473731 
0.85679799643 0.88853125556 0.92026451469 0.95199777382 0.98373103294 1.0154642921 1.0471975512 1.0789308103 1.1106640695 
1.1423973286 1.1741305877 1.2058638468 1.237597106 1.2693303651 1.3010636242 1.3327968833 1.3645301425 1.3962634016 
1.4279966607 1.4597299198 1.491463179 1.5231964381 1.5549296972 1.5866629564 1.6183962155 1.6501294746 1.6818627337 
1.7135959929 1.745329252 1.7770625111 1.8087957702 1.8405290294 1.8722622885 1.9039955476 1.9357288068 1.9674620659 
1.999195325 2.0309285841 2.0626618433 2.0943951024 2.1261283615 2.1578616206 2.1895948798 2.2213281389 2.253061398 
2.2847946572 2.3165279163 2.3482611754 2.3799944345 2.4117276937 2.4434609528 2.4751942119 2.506927471 2.5386607302 
2.5703939893 2.6021272484 2.6338605076 2.6655937667 2.6973270258 2.7290602849 2.7607935441 2.7925268032 2.8242600623 
2.8559933214 2.8877265806 2.9194598397 2.9511930988 2.982926358 3.0146596171 3.0463928762 3.0781261353 3.1098593945 
3.1415926536 
_radius 1 100 double
6.8835086589e-16 0.015046030194 0.029998656639 0.044767059928 0.059270389336 0.073440743114 0.087224264596 0.10058060982 0.11348131974 
0.12590766773 0.1378484207 0.14929777592 0.1602536149 0.17071615416 0.18068699747 0.19016844274 0.19916271834 0.20767076371 
0.2156903476 0.22321370808 0.23022533547 0.23670079323 0.24260744086 0.24790756907 0.25256387647 0.25654657386 0.25984087066 
0.26245331438 0.26441549424 0.26578399408 0.2666361274 0.26706179222 0.26715258975 0.26698998512 0.26663457733 0.26611837076 
0.26544132007 0.2645725449 0.26345577009 0.26201797539 0.26018001704 0.2578680443 0.2550247323 0.25161954344 0.24765732189 
0.24318450116 0.23829211671 0.23311475266 0.22782461027 0.22262016512 0.21770952669 0.21328980177 0.20952544623 0.20653008172 
0.20435623513 0.20299508635 0.20238460788 0.20242189848 0.2029756242 0.20389663598 0.20502718642 0.20621031035 0.20730056586 
0.2081760128 0.20874988961 0.20897962173 0.20887086001 0.20847514482 0.20788118267 0.20720112256 0.20655415829 0.20604998244 
0.20577411736 0.20577628613 0.20606221276 0.2065888642 0.20726320044 0.20794476738 0.20845260366 0.20857662222 0.20809281751 
0.20678064011 0.20444015748 0.20090654133 0.19606004043 0.18983067612 0.18219804592 0.17318746984 0.16286404081 0.1513259256 
0.13869766316 0.12512350163 0.11076030343 0.095769454694 0.080307610624 0.064516881884 0.048515944036 0.032394155396 0.016210718143 
1.7120563861e-15 
_area 1 100 double
0 0.00060545141656 0.002398347935 0.0053116405386 0.0092438104845 0.014071565442 0.019663339585 0.025891185261 0.032639566481 
0.039810500945 0.047325030582 0.055121156519 0.063148637819 0.071361860554 0.079713006283 0.088147972382 0.096606371011 0.10502505912 
0.1133430409 0.12150485948 0.12946008509 0.13715835711 0.14454216088 0.1515416941 0.15807612595 0.16406278401 0.16943173894 
0.17414028734 0.17818173628 0.18158576598 0.18441143935 0.18673568081 0.18863914503 0.19019035179 0.19142967657 0.19235623186 
0.19292086032 0.19302709445 0.19254107565 0.19131195318 0.18920144342 0.18611392964 0.1820174371 0.17695292155 0.17103424128 
0.1644408533 0.15740366722 0.15018522654 0.1430585843 0.13629017109 0.13012752259 0.12478609783 0.12039998485 0.11690090248 
0.11404659026 0.11159056675 0.10934813779 0.10721073185 0.10516042711 0.10325116395 0.10163954104 0.10047283502 0.099890764922 
0.099676323732 0.099634582931 0.099595535985 0.099405638311 0.098968558795 0.098273738521 0.09740001431 0.096516033338 0.095817497489 
0.09536140653 0.095178780381 0.095317267948 0.095850247547 0.096674855614 0.097628288764 0.098571974697 0.09932375731 0.099655015158 
0.099311077634 0.098042373893 0.095638857302 0.091961455241 0.086964336821 0.080703637292 0.073332184397 0.065083943372 0.056253920679 
0.047177468238 0.038208673651 0.029695251449 0.021949679143 0.015220981927 0.0096748659677 0.005389812748 0.0023725544101 0.00058900986292 
5.9407706621e-17 
