# vtk DataFile Version 5.1
vtk output
ASCII
DATASET POLYDATA
POINTS 100 float
0.0937211 0.0614754 0.716437 0.093853 0.061649 0.716203 0.094316 0.0619856 0.715307 
0.095049 0.0624556 0.713754 0.0959583 0.0630132 0.711551 0.0969289 0.0636021 0.708707 
0.0978386 0.0641621 0.705227 0.0985719 0.0646359 0.701114 0.0990328 0.0649756 0.696361 
0.0991546 0.0651474 0.690959 0.0989044 0.0651349 0.684891 0.0982836 0.064939 0.678135 
0.0973227 0.0645768 0.67067 0.0960729 0.0640767 0.66248 0.094594 0.0634734 0.653555 
0.0929422 0.0628015 0.643896 0.0911587 0.0620893 0.633521 0.0892614 0.0613537 0.622464 
0.0872401 0.060597 0.610773 0.0850568 0.0598055 0.598513 0.0826514 0.0589513 0.585755 
0.0799501 0.0579954 0.572578 0.0768779 0.0568934 0.559058 0.0733711 0.0556019 0.545266 
0.0693889 0.0540856 0.53126 0.0649223 0.0523238 0.517082 0.0599981 0.0503149 0.502757 
0.0546778 0.0480801 0.488293 0.0490515 0.0456633 0.473681 0.0432267 0.0431299 0.4589 
0.0373136 0.0405624 0.443922 0.0314094 0.0380546 0.428716 0.0255837 0.0357049 0.413252 
0.0198665 0.0336086 0.397503 0.0142415 0.0318518 0.381451 0.00864566 0.030505 0.365082 
0.00297531 0.0296197 0.348389 -0.0029011 0.0292258 0.331366 -0.00912541 0.029332 0.314005 
-0.0158289 0.0299269 0.296292 -0.0231112 0.0309822 0.278206 -0.0310207 0.0324565 0.259712 
-0.0395399 0.0342994 0.240769 -0.0485776 0.0364552 0.221323 -0.0579684 0.0388663 0.20132 
-0.0674805 0.0414759 0.180703 -0.0768318 0.0442291 0.159429 -0.0857107 0.0470737 0.137466 
-0.0938022 0.0499602 0.114808 -0.100814 0.0528418 0.0914741 -0.106501 0.0556738 0.0675136 
-0.110686 0.0584138 0.0430053 -0.113271 0.0610219 0.018054 -0.114248 0.0634619 -0.0072154 
-0.113689 0.0657021 -0.0326656 -0.111742 0.0677169 -0.0581564 -0.108608 0.0694881 -0.0835539 
-0.104525 0.0710051 -0.108739 -0.0997398 0.0722653 -0.133614 -0.0944877 0.073273 -0.158108 
-0.0889728 0.0740373 -0.182175 -0.0833528 0.0745694 -0.205795 -0.0777319 0.0748793 -0.228966 
-0.0721588 0.0749726 -0.251702 -0.0666329 0.0748469 -0.274022 -0.0611144 0.0744904 -0.295939 
-0.0555393 0.0738802 -0.317463 -0.0498352 0.0729835 -0.338584 -0.0439378 0.0717598 -0.359278 
-0.0378042 0.0701645 -0.379504 -0.031423 0.0681538 -0.399207 -0.0248198 0.0656901 -0.418323 
-0.0180571 0.0627477 -0.436787 -0.0112307 0.0593171 -0.454538 -0.00446098 0.0554081 -0.471526 
0.0021177 0.051052 -0.487719 0.00836885 0.0463 -0.503104 0.0141655 0.041221 -0.51769 
0.0194004 0.0358971 -0.531504 0.0239934 0.0304174 -0.544589 0.0278958 0.0248718 -0.556998 
0.0310918 0.0193442 -0.568785 0.0335963 0.0139079 -0.580001 0.035451 0.00862062 -0.590688 
0.0367179 0.00352349 -0.600872 0.0374731 -0.00135921 -0.610564 0.0377999 -0.00601751 -0.619756 
0.0377827 -0.0104518 -0.628426 0.0375026 -0.0146676 -0.636541 0.0370338 -0.01867 -0.644061 
0.0364418 -0.0224587 -0.650944 0.0357826 -0.0260238 -0.657151 0.0351033 -0.0293437 -0.662651 
0.0344428 -0.0323845 -0.667421 0.0338326 -0.0351021 -0.671449 0.0332984 -0.0374454 -0.674732 
0.0328604 -0.0393613 -0.677274 0.0325339 -0.0408002 -0.679081 0.03233 -0.0417214 -0.680162 
0.0322551 -0.0420977 -0.680522 
LINES 2 100
OFFSETS vtktypeint64
0 100 
CONNECTIVITY vtktypeint64
0 1 2 3 4 5 6 7 8 
9 10 11 12 13 14 15 16 17 
18 19 20 21 22 23 24 25 26 
27 28 29 30 31 32 33 34 35 
36 37 38 39 40 41 42 43 44 
45 46 47 48 49 50 51 52 53 
54 55 56 57 58 59 60 61 62 
63 64 65 66 67 68 69 70 71 
72 73 74 75 76 77 78 79 80 
81 82 83 84 85 86 87 88 89 
90 91 92 93 94 95 96 97 98 
99 
POINT_DATA 100
FIELD FieldData 3
_theta 1 100 double
0 0.031733259127 0.063466518254 0.095199777382 0.12693303651 0.15866629564 0.19039955476 0.22213281389 0.25386607302 
0.28559933214 0.31733259127 0.3490658504 0.38079910953 0.41253236865 0.44426562778 0.47599888691 0.50773214603 0.53946540516 
0.57119866429 0.60293192342 0.63466518254 0.66639844167 0.6981317008 0.72986495992 0.76159821905 0.79333147818 0.82506473731 
0.85679799643 0.88853125556 0.92026451469 0.95199777382 0.98373103294 1.0154642921 1.0471975512 1.0789308103 1.1106640695 
1.1423973286 1.1741305877 1.2058638468 1.237597106 1.2693303651 1.3010636242 1.3327968833 1.3645301425 1.3962634016 
1.4279966607 1.4597299198 1.491463179 1.5231964381 1.5549296972 1.5866629564 1.6183962155 1.6501294746 1.6818627337 
1.7135959929 1.745329252 1.7770625111 1.8087957702 1.8405290294 1.8722622885 1.9039955476 1.9357288068 1.9674620659 
1.999195325 2.0309285841 2.0626618433 2.0943951024 2.1261283615 2.1578616206 2.1895948798 2.2213281389 2.253061398 
2.2847946572 2.3165279163 2.3482611754 2.3799944345 2.4117276937 2.4434609528 2.4751942119 2.506927471 2.5386607302 
2.5703939893 2.6021272484 2.6338605076 2.6655937667 2.6973270258 2.7290602849 2.7607935441 2.7925268032 2.8242600623 
2.8559933214 2.8877265806 2.9194598397 2.9511930988 2.982926358 3.0146596171 3.0463928762 3.0781261353 3.1098593945 
3.1415926536 
_radius 1 100 double
6.8793105438e-16 0.014586359884 0.029042237871 0.043237990733 0.057058832198 0.07040930543 0.083214982176 0.095421815133 0.10699403117 
0.11791150073 0.12816722152 0.13776513316 0.14671815545 0.15504622459 0.1627741704 0.16992945527 0.1765399929 0.18263240446 
0.18823108573 0.19335831407 0.19803533188 0.20228398552 0.20612822925 0.20959478047 0.21271249997 0.21551055946 0.21801590877 
0.22025073892 0.22223048848 0.22396259053 0.22544584442 0.22667020929 0.22761697936 0.22825956809 0.22856527829 0.22849832104 
0.22802399444 0.22711353271 0.22574891051 0.22392694484 0.22166231463 0.21898943294 0.21596327788 0.21265924608 0.20917190302 
0.20561230315 0.20210344308 0.19877344255 0.19574629316 0.1931306065 0.19100777809 0.18942204991 0.18837537936 0.18782915817 
0.18771279468 0.1879369547 0.18840793669 0.18903967712 0.18976100537 0.19051748767 0.19126900726 0.1919856241 0.19264469312 
0.19323114408 0.1937403119 0.19418030253 0.19457063378 0.19493596583 0.19529637762 0.19565728136 0.19600213683 0.19628973996 
0.19645589572 0.19641806374 0.19608159675 0.19534683761 0.19411675649 0.19230470023 0.1898414249 0.18668030715 0.18279975229 
0.17820233177 0.1729108751 0.1669623404 0.16040059221 0.15326918532 0.14560503474 0.13743364356 0.12876644626 0.11960071926 
0.10992227764 0.099710776687 0.088946966128 0.077620852703 0.065739521888 0.053333385866 0.040459848321 0.027203758659 0.013674496265 
1.0322857823e-15 
_area 1 100 double
0 0.00055865715602 0.0022150819572 0.0049134034832 0.0085687725026 0.013076847781 0.018322672763 0.024187111579 0.030550557263 
0.037294885259 0.044304984236 0.051470764596 0.058689905526 0.065871006388 0.072936094396 0.079820970071 0.086472494344 0.092843642356 
0.098888918916 0.10456341271 0.10982766183 0.11465770857 0.11905657366 0.12306180516 0.12674483695 0.1302012037 0.13353420269 
0.13683562723 0.14016535371 0.14353110493 0.14687483635 0.15007640127 0.15297638224 0.155406009 0.15721090155 0.15826440238 
0.15847342129 0.15778149912 0.15617221873 0.15367346617 0.15036099673 0.14635907914 0.14183644422 0.13699648394 0.13206127544 
0.12725027982 0.12275687447 0.11872759852 0.1152480828 0.11233710787 0.10994934436 0.10798811015 0.10632844697 0.10484638536 
0.10344408036 0.10206020397 0.10066680321 0.099262893565 0.097867012382 0.096502377462 0.095177115438 0.093871611349 0.092548178483 
0.091170216091 0.089715735965 0.088176699853 0.086558196708 0.084884754267 0.083199593527 0.081556901908 0.080030276006 0.078752894678 
0.077941401739 0.077737499634 0.078038787656 0.078631640982 0.07926080994 0.07967171757 0.079646866387 0.079025582762 0.077708631918 
0.075652403915 0.072858907717 0.069366095719 0.065239828047 0.060567035101 0.055449537495 0.049998380951 0.044328814915 0.038556177269 
0.032793085206 0.027148486042 0.021729148983 0.016643697277 0.012007840076 0.0079475727862 0.0045965666862 0.0020859620308 0.0005282778528 
2.3715963856e-17 
