# vtk DataFile Version 5.1
vtk output
ASCII
DATASET POLYDATA
POINTS 100 float
0.0909882 0.0436223 0.684171 0.0911104 0.0437442 0.68398 0.0915127 0.0439662 0.68324 
0.0921333 0.0442798 0.681932 0.0928768 0.0446724 0.680031 0.0936267 0.0451288 0.677503 
0.0942588 0.0456328 0.674311 0.0946564 0.0461687 0.670419 0.0947228 0.0467224 0.665791 
0.0943912 0.0472817 0.660402 0.0936304 0.0478362 0.654236 0.0924442 0.0483762 0.647294 
0.0908668 0.048891 0.639592 0.088954 0.049367 0.631165 0.0867711 0.0497863 0.622067 
0.0843806 0.0501248 0.612367 0.0818302 0.050353 0.602148 0.0791445 0.050436 0.5915 
0.0763197 0.0503361 0.580516 0.0733243 0.0500163 0.569282 0.0701033 0.0494445 0.557876 
0.0665872 0.0485982 0.546355 0.0627038 0.0474696 0.534757 0.0583898 0.046069 0.523097 
0.0536033 0.0444277 0.511363 0.0483315 0.0425988 0.499522 0.0425959 0.0406555 0.487522 
0.0364516 0.0386878 0.4753 0.0299825 0.0367967 0.462787 0.0232916 0.0350877 0.449915 
0.0164892 0.033662 0.436626 0.00967918 0.0326094 0.422876 0.00294702 0.0320011 0.408637 
-0.00364994 0.0318837 0.3939 -0.0100877 0.0322764 0.378673 -0.0163755 0.0331698 0.362977 
-0.0225506 0.0345284 0.346837 -0.0286684 0.0362943 0.33028 -0.0347883 0.0383936 0.313324 
-0.0409594 0.040744 0.295976 -0.0472058 0.0432624 0.278222 -0.0535147 0.0458722 0.26003 
-0.0598296 0.0485091 0.241349 -0.0660485 0.0511251 0.222115 -0.0720289 0.0536901 0.202253 
-0.077598 0.0561911 0.18169 -0.0825683 0.0586294 0.160363 -0.0867548 0.0610157 0.138228 
-0.0899937 0.0633649 0.115267 -0.0921591 0.0656898 0.0914973 -0.0931753 0.0679964 0.0669698 
-0.0930244 0.0702797 0.0417721 -0.0917464 0.0725216 0.0160229 -0.0894342 0.0746907 -0.0101344 
-0.0862211 0.0767444 -0.0365407 -0.082266 0.0786323 -0.0630317 -0.0777353 0.0803006 -0.0894484 
-0.0727851 0.0816979 -0.115646 -0.0675461 0.0827798 -0.141501 -0.0621126 0.0835132 -0.166918 
-0.0565369 0.0838785 -0.191829 -0.0508298 0.083871 -0.216191 -0.0449666 0.0834994 -0.239987 
-0.0388976 0.0827834 -0.263214 -0.0325617 0.0817493 -0.285881 -0.0259007 0.0804252 -0.307999 
-0.0188721 0.0788362 -0.329576 -0.0114596 0.0770004 -0.350613 -0.00367856 0.074925 -0.371101 
0.00442321 0.0726056 -0.391021 0.0127692 0.0700265 -0.410347 0.0212627 0.0671624 -0.429047 
0.0297969 0.0639831 -0.447087 0.0382673 0.0604576 -0.464438 0.0465815 0.0565603 -0.481078 
0.0546679 0.0522759 -0.496992 0.0624798 0.0476042 -0.512173 0.0699954 0.0425635 -0.526623 
0.0772134 0.0371917 -0.540347 0.0841454 0.0315465 -0.553348 0.0908059 0.0257028 -0.565626 
0.0972022 0.0197492 -0.577173 0.103326 0.0137826 -0.58797 0.109146 0.00790294 -0.597985 
0.114608 0.00220703 -0.607179 0.119639 -0.00321676 -0.615507 0.12415 -0.00829304 -0.622925 
0.128051 -0.0129627 -0.629396 0.131265 -0.0171849 -0.6349 0.133737 -0.0209371 -0.639441 
0.135449 -0.0242144 -0.643049 0.136428 -0.0270274 -0.645786 0.136744 -0.0293989 -0.647742 
0.136516 -0.0313604 -0.649034 0.135894 -0.0329486 -0.649795 0.13505 -0.0342015 -0.650169 
0.13416 -0.0351547 -0.650294 0.133389 -0.0358391 -0.650293 0.132865 -0.036278 -0.650263 
0.132675 -0.0364859 -0.650264 
LINES 2 100
OFFSETS vtktypeint64
0 100 
CONNECTIVITY vtktypeint64
0 1 2 3 4 5 6 7 8 
9 10 11 12 13 14 15 16 17 
18 19 20 21 22 23 24 25 26 
27 28 29 30 31 32 33 34 35 
36 37 38 39 40 41 42 43 44 
45 46 47 48 49 50 51 52 53 
54 55 56 57 58 59 60 61 62 
63 64 65 66 67 68 69 70 71 
72 73 74 75 76 77 78 79 80 
81 82 83 84 85 86 87 88 89 
90 91 92 93 94 95 96 97 98 
99 
POINT_DATA 100
FIELD FieldData 3
_theta 1 100 double
0 0.031733259127 0.063466518254 0.095199777382 0.12693303651 0.15866629564 0.19039955476 0.22213281389 0.25386607302 
0.28559933214 0.31733259127 0.3490658504 0.38079910953 0.41253236865 0.44426562778 0.47599888691 0.50773214603 0.53946540516 
0.57119866429 0.60293192342 0.63466518254 0.66639844167 0.6981317008 0.72986495992 0.76159821905 0.79333147818 0.82506473731 
0.85679799643 0.88853125556 0.92026451469 0.95199777382 0.98373103294 1.0154642921 1.0471975512 1.0789308103 1.1106640695 
1.1423973286 1.1741305877 1.2058638468 1.237597106 1.2693303651 1.3010636242 1.3327968833 1.3645301425 1.3962634016 
1.4279966607 1.4597299198 1.491463179 1.5231964381 1.5549296972 1.5866629564 1.6183962155 1.6501294746 1.6818627337 
1.7135959929 1.745329252 1.7770625111 1.8087957702 1.8405290294 1.8722622885 1.9039955476 1.9357288068 1.9674620659 
1.999195325 2.0309285841 2.0626618433 2.0943951024 2.1261283615 2.1578616206 2.1895948798 2.2213281389 2.253061398 
2.2847946572 2.3165279163 2.3482611754 2.3799944345 2.4117276937 2.4434609528 2.4751942119 2.506927471 2.5386607302 
2.5703939893 2.6021272484 2.6338605076 2.6655937667 2.6973270258 2.7290602849 2.7607935441 2.7925268032 2.8242600623 
2.8559933214 2.8877265806 2.9194598397 2.9511930988 2.982926358 3.0146596171 3.0463928762 3.0781261353 3.1098593945 
3.1415926536 
_radius 1 100 double
1.4571677198e-16 0.015772774825 0.031350744208 0.046548848033 0.061211286025 0.075222279858 0.088512457309 0.10106026802 0.11288843528 
0.12405601404 0.13464709252 0.14475749587 0.15448099981 0.16389653713 0.17305770208 0.18198557198 0.1906655259 0.19904837918 
0.20705576799 0.21458929523 0.22154249604 0.22781425462 0.23332199064 0.2380128248 0.24187109047 0.24492099531 0.24722390411 
0.24887051393 0.24996899912 0.25063088206 0.25095679433 0.25102430597 0.2508795639 0.25053368191 0.24996391456 0.24911893233 
0.24792718548 0.24630734902 0.24417994885 0.241479272 0.23816453305 0.23422912916 0.22970680845 0.22467377762 0.21924618299 
0.21357295613 0.20782462864 0.20217933503 0.19680784126 0.19185998602 0.18745505006 0.18367777266 0.18057989678 0.17818493896 
0.17649258979 0.17547978016 0.17509807709 0.17527039496 0.17589167734 0.1768365698 0.17797321388 0.17917918132 0.1803551182 
0.18143323021 0.18237972582 0.1831918344 0.18389086972 0.18451309959 0.18510004275 0.18568945761 0.18630791357 0.18696550887 
0.18765295783 0.18834088563 0.18898083009 0.18950729494 0.18984027475 0.18988790289 0.18954914383 0.18871667273 0.18728021538 
0.18513063515 0.18216492651 0.17829199604 0.17343873326 0.16755552315 0.16062019114 0.15263950275 0.143647753 0.13370256657 
0.12287863725 0.11126061648 0.098936583156 0.085993398422 0.072514749585 0.058581908546 0.04427638827 0.029683076016 0.014892326785 
6.6112844947e-16 
_area 1 100 double
0 0.00063612726172 0.0025088704589 0.005517056833 0.0095097335995 0.014308055614 0.019728399189 0.025602329021 0.031790652074 
0.038190637732 0.044736917682 0.0513974439 0.058166322881 0.065055332868 0.072085257744 0.07927707976 0.08664245671 0.094173457609 
0.10183298414 0.10954871917 0.11721386607 0.12469676851 0.13185861878 0.13857461515 0.14475111812 0.15033239032 0.15529656438 
0.15964784899 0.16341438663 0.16665750911 0.16947693429 0.17193304478 0.1739367887 0.175448569 0.17642674566 0.17664351355 
0.17601543642 0.17446666251 0.17195623898 0.16849657965 0.16423323906 0.15938096916 0.15389750754 0.14779869195 0.14127668481 
0.13455921409 0.12787257494 0.12141951851 0.11537146247 0.10987902329 0.10507820491 0.1009486206 0.097293490776 0.093955184439 
0.090886121677 0.088129599522 0.085776079311 0.083908752791 0.08255306299 0.081652862271 0.081087383327 0.080714691308 0.080414018638 
0.080117173651 0.079791569395 0.079405300828 0.078965987365 0.07851387184 0.078106889466 0.077805140673 0.077659758717 0.077708894503 
0.077978073446 0.078481081268 0.079224469974 0.080232840117 0.081668076419 0.083342543438 0.084868942457 0.0860303031 0.086624980574 
0.086466400747 0.085391244644 0.083271003263 0.080026538998 0.07564309623 0.070181402023 0.063780733545 0.056651767363 0.049059429965 
0.041298060781 0.033662960081 0.026423681614 0.019804642976 0.013977231702 0.009064303092 0.0051530985384 0.0023085752288 0.00058003030632 
4.7731974225e-17 
