# vtk DataFile Version 5.1
vtk output
ASCII
DATASET POLYDATA
POINTS 100 float
0.10862 0.0358017 0.645662 0.10878 0.0360782 0.645463 0.109283 0.0367459 0.644773 
0.11006 0.0377536 0.643616 0.111001 0.0390242 0.642024 0.111973 0.0404633 0.640033 
0.11283 0.04197 0.63767 0.113434 0.0434491 0.634948 0.113664 0.0448205 0.63186 
0.113436 0.0460274 0.628371 0.112701 0.0470414 0.624423 0.111454 0.0478621 0.619936 
0.109731 0.0485148 0.614817 0.107596 0.0490433 0.608973 0.105137 0.0495008 0.602319 
0.102446 0.0499396 0.594796 0.0996095 0.0504014 0.586374 0.0966929 0.0509084 0.577065 
0.0937346 0.0514587 0.566925 0.0907389 0.0520235 0.556048 0.0876762 0.0525504 0.544564 
0.0844875 0.0529681 0.532622 0.0810922 0.0531963 0.520381 0.077399 0.0531554 0.507993 
0.073318 0.0527781 0.495587 0.0687721 0.0520196 0.483262 0.0637061 0.0508649 0.471073 
0.0580933 0.0493338 0.459031 0.0519376 0.0474813 0.447104 0.0452715 0.0453941 0.435223 
0.0381506 0.0431837 0.423294 0.0306457 0.0409768 0.411205 0.0228331 0.0389036 0.398844 
0.0147849 0.0370869 0.386109 0.00656153 0.0356311 0.372917 -0.00179388 0.0346144 0.359208 
-0.0102569 0.0340839 0.344949 -0.0188199 0.0340539 0.330133 -0.027486 0.0345083 0.314767 
-0.0362616 0.035405 0.298873 -0.0451458 0.0366842 0.282473 -0.0541213 0.0382757 0.265584 
-0.0631458 0.0401081 0.248212 -0.0721468 0.0421155 0.230349 -0.0810202 0.0442434 0.211974 
-0.0896324 0.0464511 0.193056 -0.0978277 0.0487121 0.173562 -0.105438 0.051012 0.153465 
-0.112297 0.0533445 0.13275 -0.118252 0.0557061 0.111427 -0.123178 0.0580911 0.0895289 
-0.12699 0.060487 0.0671192 -0.129648 0.0628714 0.0442877 -0.131162 0.0652112 0.0211455 
-0.131588 0.0674631 -0.00218277 -0.131027 0.0695767 -0.0255691 -0.129607 0.0714989 -0.0488927 
-0.127478 0.0731789 -0.0720487 -0.124793 0.0745732 -0.0949561 -0.121697 0.0756499 -0.117561 
-0.118312 0.0763911 -0.139836 -0.114732 0.0767936 -0.161779 -0.111013 0.0768677 -0.183403 
-0.107176 0.0766335 -0.20473 -0.103208 0.0761161 -0.225779 -0.0990661 0.0753402 -0.246562 
-0.094692 0.074324 -0.26707 -0.0900179 0.0730751 -0.287275 -0.0849787 0.0715868 -0.307131 
-0.079522 0.0698373 -0.326572 -0.0736158 0.0677915 -0.345525 -0.0672543 0.0654043 -0.363913 
-0.0604602 0.0626266 -0.381669 -0.0532849 0.0594123 -0.398743 -0.0458056 0.0557259 -0.415104 
-0.038121 0.0515493 -0.430749 -0.0303455 0.0468883 -0.445695 -0.0226023 0.0417754 -0.45998 
-0.0150173 0.0362721 -0.473647 -0.00771334 0.0304669 -0.48674 -0.000804606 0.0244711 -0.499289 
0.00560692 0.0184129 -0.511301 0.0114348 0.0124294 -0.522753 0.0166102 0.00665746 -0.53359 
0.0210838 0.00122504 -0.543728 0.0248261 -0.00375671 -0.55306 0.0278289 -0.00820021 -0.561471 
0.030105 -0.012046 -0.56885 0.0316883 -0.0152652 -0.575105 0.0326332 -0.0178592 -0.580184 
0.033013 -0.0198581 -0.584081 0.0329177 -0.0213162 -0.586847 0.0324508 -0.0223069 -0.588589 
0.0317245 -0.0229162 -0.589466 0.0308546 -0.0232362 -0.589675 0.0299543 -0.0233583 -0.589436 
0.0291281 -0.0233672 -0.588968 0.0284649 -0.0233349 -0.588473 0.0280329 -0.0233168 -0.588107 
0.0278751 -0.0233479 -0.587975 
LINES 2 100
OFFSETS vtktypeint64
0 100 
CONNECTIVITY vtktypeint64
0 1 2 3 4 5 6 7 8 
9 10 11 12 13 14 15 16 17 
18 19 20 21 22 23 24 25 26 
27 28 29 30 31 32 33 34 35 
36 37 38 39 40 41 42 43 44 
45 46 47 48 49 50 51 52 53 
54 55 56 57 58 59 60 61 62 
63 64 65 66 67 68 69 70 71 
72 73 74 75 76 77 78 79 80 
81 82 83 84 85 86 87 88 89 
90 91 92 93 94 95 96 97 98 
99 
POINT_DATA 100
FIELD FieldData 3
_theta 1 100 double
0 0.031733259127 0.063466518254 0.095199777382 0.12693303651 0.15866629564 0.19039955476 0.22213281389 0.25386607302 
0.28559933214 0.31733259127 0.3490658504 0.38079910953 0.41253236865 0.44426562778 0.47599888691 0.50773214603 0.53946540516 
0.57119866429 0.60293192342 0.63466518254 0.66639844167 0.6981317008 0.72986495992 0.76159821905 0.79333147818 0.82506473731 
0.85679799643 0.88853125556 0.92026451469 0.95199777382 0.98373103294 1.0154642921 1.0471975512 1.0789308103 1.1106640695 
1.1423973286 1.1741305877 1.2058638468 1.237597106 1.2693303651 1.3010636242 1.3327968833 1.3645301425 1.3962634016 
1.4279966607 1.4597299198 1.491463179 1.5231964381 1.5549296972 1.5866629564 1.6183962155 1.6501294746 1.6818627337 
1.7135959929 1.745329252 1.7770625111 1.8087957702 1.8405290294 1.8722622885 1.9039955476 1.9357288068 1.9674620659 
1.999195325 2.0309285841 2.0626618433 2.0943951024 2.1261283615 2.1578616206 2.1895948798 2.2213281389 2.253061398 
2.2847946572 2.3165279163 2.3482611754 2.3799944345 2.4117276937 2.4434609528 2.4751942119 2.506927471 2.5386607302 
2.5703939893 2.6021272484 2.6338605076 2.6655937667 2.6973270258 2.7290602849 2.7607935441 2.7925268032 2.8242600623 
2.8559933214 2.8877265806 2.9194598397 2.9511930988 2.982926358 3.0146596171 3.0463928762 3.0781261353 3.1098593945 
3.1415926536 
_radius 1 100 double
1.0111756561e-15 0.01303940344 0.026015273441 0.038858467977 0.051497877224 0.063861786426 0.075880754451 0.087491117095 0.098637790362 
0.10927520406 0.11936595249 0.12887778654 0.13778039104 0.14604361757 0.15363840468 0.16054069272 0.16673752094 0.17223353282 
0.1770556704 0.18125415024 0.1848988641 0.18807181721 0.19085756617 0.19333427712 0.19556764727 0.1976086189 0.19949412764 
0.2012488627 0.20288581254 0.20440435399 0.20578633179 0.20699209562 0.2079590299 0.20860447479 0.20883349207 0.20855041385 
0.2076721356 0.20614088311 0.20393453058 0.20107316576 0.19762122608 0.19368502974 0.1894058791 0.18494919461 0.18049047776 
0.17619941183 0.17222405665 0.16867763986 0.16563052918 0.16310926547 0.16110294557 0.15957516623 0.15847805775 0.15776439187 
0.15739446595 0.15733619411 0.15755923889 0.15802643716 0.15868699957 0.15947494389 0.16031339554 0.16112266611 0.16182898287 
0.16237140691 0.16270588861 0.16280667588 0.16266595868 0.1622926399 0.16171070154 0.16095716035 0.16007936456 0.15913141997 
0.15816971767 0.15724772386 0.15641032273 0.15568805914 0.15509156758 0.15460632 0.15418780111 0.15375761348 0.15320174978 
0.15237275564 0.15109713626 0.14918812207 0.146462409 0.14275839907 0.13795307721 0.13197490213 0.12481077981 0.11650616575 
0.10715844806 0.096904813993 0.085906596745 0.074332483198 0.062342887716 0.050077368159 0.037646390782 0.025128204486 0.012571022829 
1.1568919718e-15 
_area 1 100 double
0 0.00043535140012 0.0017325754251 0.0038631202044 0.0067744140349 0.010387724248 0.014602117824 0.019305224296 0.024387328354 
0.029752685068 0.035322631554 0.041029034385 0.046801667035 0.052556274058 0.058189887652 0.063587164399 0.06863764653 0.073260035184 
0.077426544511 0.081178866152 0.084627764634 0.087931368779 0.091253546804 0.094713431765 0.098346481849 0.10209698277 0.10584569676 
0.1094557168 0.11281298585 0.11584710895 0.11852980763 0.12085498935 0.12280977881 0.12435108488 0.12539898306 0.12584666147 
0.12557942223 0.12449649778 0.12253314067 0.11968149384 0.11600666883 0.11165221711 0.10683010915 0.10179495473 0.096808532816 
0.092105953502 0.087874393006 0.084243711326 0.081272550661 0.078929488983 0.077103340443 0.075636902248 0.074359898976 0.073133047617 
0.071888845486 0.070639863632 0.069452712724 0.068403202489 0.067534319487 0.066837665447 0.066262871368 0.065741000265 0.065205234634 
0.064601659915 0.063891885477 0.063052140667 0.062072742765 0.060959988095 0.059739757219 0.058460543139 0.057193942257 0.056022627119 
0.055001890126 0.054158658813 0.053523281622 0.053136420074 0.053043584902 0.053276714756 0.053823167409 0.054601299251 0.055460360761 
0.056197786 0.056582371527 0.056380509335 0.055384442091 0.053440402242 0.050473592407 0.046505950413 0.041662327027 0.036161907104 
0.030294407428 0.024384146925 0.01874838361 0.01365809375 0.0093089364827 0.0058078217232 0.0031773518096 0.0013772596269 0.00033838097202 
1.6135346391e-17 
