# vtk DataFile Version 5.1
vtk output
ASCII
DATASET POLYDATA
POINTS 100 float
0.0873976 0.0449159 0.674408 0.0876178 0.0451833 0.674084 0.088292 0.0457972 0.67302 
0.0893284 0.0467231 0.671249 0.0905866 0.0479085 0.668822 0.0918942 0.0492873 0.665798 
0.0930684 0.050786 0.662239 0.0939371 0.0523298 0.658199 0.0943587 0.0538487 0.653721 
0.0942369 0.0552826 0.648828 0.0935291 0.0565853 0.643521 0.0922474 0.057726 0.637783 
0.0904518 0.05869 0.631575 0.0882372 0.0594766 0.62485 0.0857163 0.060096 0.617552 
0.0830005 0.0605651 0.609631 0.0801813 0.0609026 0.601046 0.0773161 0.0611242 0.591774 
0.0744191 0.0612389 0.581815 0.0714591 0.061246 0.571191 0.0683645 0.0611341 0.559949 
0.0650349 0.0608815 0.548155 0.0613566 0.0604582 0.535889 0.0572216 0.0598296 0.523238 
0.052545 0.0589613 0.510293 0.0472801 0.0578234 0.497134 0.0414277 0.0563957 0.483834 
0.0350395 0.0546718 0.470447 0.0282136 0.052662 0.457009 0.0210835 0.0503943 0.443537 
0.0138021 0.0479147 0.430031 0.00652275 0.0452845 0.416474 -0.000620073 0.0425776 0.402836 
-0.00752747 0.0398756 0.389076 -0.0141479 0.0372628 0.375143 -0.0204821 0.0348215 0.360977 
-0.0265808 0.0326269 0.346514 -0.0325345 0.0307439 0.331679 -0.0384578 0.0292242 0.316393 
-0.0444689 0.0281058 0.30057 -0.0506687 0.0274125 0.28412 -0.0571201 0.0271562 0.266951 
-0.0638328 0.0273385 0.248975 -0.0707539 0.0279535 0.230114 -0.0777661 0.0289906 0.210303 
-0.0846946 0.0304364 0.189505 -0.0913209 0.0322759 0.167708 -0.0974025 0.0344933 0.144939 
-0.102696 0.0370708 0.121261 -0.10698 0.0399873 0.0967736 -0.110078 0.0432161 0.0716113 
-0.111872 0.046722 0.0459351 -0.112312 0.0504596 0.019923 -0.11142 0.054371 -0.00624168 
-0.109282 0.0583858 -0.0323829 -0.106035 0.0624212 -0.0583434 -0.101849 0.0663848 -0.0839952 
-0.0969099 0.0701777 -0.109246 -0.0913939 0.0736995 -0.134042 -0.0854549 0.0768536 -0.158367 
-0.0792096 0.0795529 -0.182236 -0.0727315 0.0817251 -0.205688 -0.0660506 0.083317 -0.228773 
-0.0591595 0.0842975 -0.251538 -0.0520242 0.0846584 -0.274021 -0.044598 0.0844139 -0.296234 
-0.0368363 0.0835974 -0.318164 -0.0287107 0.0822576 -0.339764 -0.020219 0.0804524 -0.360961 
-0.0113916 0.0782428 -0.38166 -0.00229241 0.0756871 -0.401751 0.00698469 0.0728353 -0.421123 
0.0163243 0.0697256 -0.439676 0.0256003 0.0663818 -0.45733 0.0346873 0.0628134 -0.474029 
0.0434726 0.0590178 -0.489752 0.0518643 0.0549841 -0.504507 0.0597975 0.0506979 -0.518327 
0.0672356 0.0461476 -0.531266 0.0741676 0.0413302 -0.543382 0.0806029 0.0362561 -0.554731 
0.0865633 0.0309535 -0.565357 0.0920743 0.0254696 -0.57528 0.0971573 0.0198707 -0.584495 
0.101824 0.0142394 -0.592974 0.106074 0.00867012 -0.600666 0.109894 0.00326307 -0.607509 
0.113262 -0.00188306 -0.613442 0.116155 -0.00667803 -0.618415 0.118555 -0.0110467 -0.622406 
0.120455 -0.014934 -0.625426 0.121868 -0.0183082 -0.627529 0.122829 -0.0211617 -0.628811 
0.123396 -0.0235092 -0.629409 0.123646 -0.025384 -0.629487 0.123669 -0.0268321 -0.629225 
0.123559 -0.0279054 -0.628805 0.123403 -0.0286543 -0.628387 0.123272 -0.0291208 -0.628101 
0.123212 -0.0293327 -0.628026 
LINES 2 100
OFFSETS vtktypeint64
0 100 
CONNECTIVITY vtktypeint64
0 1 2 3 4 5 6 7 8 
9 10 11 12 13 14 15 16 17 
18 19 20 21 22 23 24 25 26 
27 28 29 30 31 32 33 34 35 
36 37 38 39 40 41 42 43 44 
45 46 47 48 49 50 51 52 53 
54 55 56 57 58 59 60 61 62 
63 64 65 66 67 68 69 70 71 
72 73 74 75 76 77 78 79 80 
81 82 83 84 85 86 87 88 89 
90 91 92 93 94 95 96 97 98 
99 
POINT_DATA 100
FIELD FieldData 3
_theta 1 100 double
0 0.031733259127 0.063466518254 0.095199777382 0.12693303651 0.15866629564 0.19039955476 0.22213281389 0.25386607302 
0.28559933214 0.31733259127 0.3490658504 0.38079910953 0.41253236865 0.44426562778 0.47599888691 0.50773214603 0.53946540516 
0.57119866429 0.60293192342 0.63466518254 0.66639844167 0.6981317008 0.72986495992 0.76159821905 0.79333147818 0.82506473731 
0.85679799643 0.88853125556 0.92026451469 0.95199777382 0.98373103294 1.0154642921 1.0471975512 1.0789308103 1.1106640695 
1.1423973286 1.1741305877 1.2058638468 1.237597106 1.2693303651 1.3010636242 1.3327968833 1.3645301425 1.3962634016 
1.4279966607 1.4597299198 1.491463179 1.5231964381 1.5549296972 1.5866629564 1.6183962155 1.6501294746 1.6818627337 
1.7135959929 1.745329252 1.7770625111 1.8087957702 1.8405290294 1.8722622885 1.9039955476 1.9357288068 1.9674620659 
1.999195325 2.0309285841 2.0626618433 2.0943951024 2.1261283615 2.1578616206 2.1895948798 2.2213281389 2.253061398 
2.2847946572 2.3165279163 2.3482611754 2.3799944345 2.4117276937 2.4434609528 2.4751942119 2.506927471 2.5386607302 
2.5703939893 2.6021272484 2.6338605076 2.6655937667 2.6973270258 2.7290602849 2.7607935441 2.7925268032 2.8242600623 
2.8559933214 2.8877265806 2.9194598397 2.9511930988 2.982926358 3.0146596171 3.0463928762 3.0781261353 3.1098593945 
3.1415926536 
_radius 1 100 double
1.0024720669e-15 0.014240701075 0.028424351162 0.042490235049 0.056381108135 0.070043770533 0.083428744477 0.096489471145 0.10918166947 
0.12146346654 0.13329654312 0.14464793479 0.15549160046 0.16580877162 0.17558656385 0.18481516691 0.19348470828 0.2015832069 
0.20909672907 0.21601205695 0.22232122138 0.22802651748 0.23314438921 0.2377068969 0.24176019944 0.24536027818 0.24856671726 
0.25143559721 0.25401247372 0.25632613171 0.25838352197 0.26016619401 0.26162868424 0.2626995531 0.26328581967 0.26328121333 
0.26257794358 0.26108079989 0.25872167959 0.25547238648 0.25135381517 0.2464402688 0.24085838114 0.23478071027 0.22841448772 
0.22198635902 0.2157243882 0.20983911001 0.20450581649 0.19985043447 0.19594127542 0.19278842708 0.19035119975 0.18855186199 
0.1872918484 0.1864660103 0.18597186486 0.18571348674 0.18560221303 0.18555734108 0.18550904081 0.18540356917 0.18520905046 
0.18491958876 0.1845561751 0.18416391149 0.18380584957 0.18355415273 0.1834795705 0.18364048685 0.18407293812 0.18478281501 
0.18574101742 0.18688187241 0.18810482929 0.18927922346 0.19025154947 0.19085423565 0.19091473543 0.19026417952 0.1887456854 
0.18622299773 0.18258981469 0.17777905828 0.17177026453 0.16459292532 0.15632414326 0.14708008718 0.13700210564 0.12623964057 
0.1149329711 0.10319908802 0.091123580319 0.078760274932 0.066138501 0.053275594606 0.040190568691 0.026914730229 0.013496514325 
1.0788160594e-15 
_area 1 100 double
0 0.00054472004472 0.0021669011938 0.0048313908269 0.0084822942382 0.013047032318 0.018441412316 0.024574320088 0.031350482258 
0.038670836265 0.046431847975 0.05452594935 0.062843994354 0.071278230164 0.079723210819 0.088073916956 0.096223736011 0.10406634063 
0.11150330243 0.11845609252 0.12487985139 0.13077662304 0.1362055858 0.14128601831 0.14618624765 0.15109282257 0.15616494479 
0.16149551898 0.16709397075 0.17287641915 0.17866276876 0.18420169471 0.18920841662 0.19339782265 0.19658605744 0.19869170038 
0.19925720112 0.19812017565 0.19519362416 0.1904900316 0.18414164547 0.17641639173 0.16771239783 0.15867038754 0.14974207386 
0.14099144541 0.13273927158 0.12533743671 0.11906984661 0.11409292174 0.11038698261 0.10774454692 0.10582679471 0.10427028041 
0.10277790159 0.10116119954 0.099349296468 0.097376139448 0.095329430057 0.093270419548 0.091224302915 0.089223324911 0.087307942966 
0.085508432883 0.083841074928 0.082321192419 0.080981947996 0.07988734206 0.079131078419 0.078817028834 0.079032483651 0.079829167192 
0.081186137878 0.083006304286 0.085141114378 0.087419363813 0.089663968616 0.091693235782 0.093315623665 0.09432642595 0.094512568487 
0.093669259889 0.091628124669 0.088290246532 0.083652636226 0.077817505309 0.070980437566 0.063401963434 0.055372977657 0.047185294051 
0.039113535802 0.031406390855 0.024280616893 0.01791372014 0.012436960181 0.0079329505987 0.0044401483274 0.0019634831579 0.00048905941013 
4.9433046634e-17 
