# vtk DataFile Version 5.1
vtk output
ASCII
DATASET POLYDATA
POINTS 100 float
0.0841338 0.0405837 0.634276 0.0842387 0.0407373 0.633957 0.0845696 0.0410571 0.632834 
0.0850639 0.0415133 0.630929 0.0856254 0.0420616 0.628281 0.0861354 0.0426489 0.624935 
0.0864666 0.0432219 0.620943 0.0864979 0.043734 0.616354 0.086128 0.0441526 0.611209 
0.0852862 0.0444633 0.605541 0.0839398 0.0446715 0.59937 0.0820967 0.0448008 0.592708 
0.0798024 0.0448888 0.585557 0.0771337 0.0449795 0.577917 0.0741875 0.0451154 0.56979 
0.0710686 0.045329 0.561185 0.0678765 0.0456348 0.552121 0.0646932 0.0460244 0.542629 
0.0615742 0.0464644 0.532755 0.0585427 0.0468976 0.522552 0.0555881 0.0472486 0.512082 
0.0526693 0.0474318 0.501405 0.0497216 0.0473618 0.490574 0.0466657 0.0469644 0.479629 
0.0434191 0.0461877 0.468591 0.0399071 0.0450109 0.457462 0.0360717 0.0434492 0.44622 
0.0318786 0.0415565 0.434824 0.0273204 0.0394217 0.42322 0.0224159 0.0371628 0.411346 
0.0172059 0.0349169 0.399139 0.0117465 0.0328274 0.386546 0.00609991 0.0310317 0.373527 
0.000325932 0.0296487 0.360061 -0.00552664 0.0287688 0.346148 -0.0114259 0.028447 0.331805 
-0.0173598 0.0287001 0.317061 -0.0233355 0.0295081 0.301953 -0.0293754 0.0308194 0.286516 
-0.0355102 0.032559 0.270773 -0.0417693 0.0346388 0.254729 -0.0481713 0.0369683 0.238367 
-0.054714 0.039465 0.221646 -0.061367 0.0420616 0.204502 -0.0680665 0.0447118 0.186855 
-0.0747145 0.0473917 0.168618 -0.0811807 0.0500976 0.149704 -0.0873098 0.0528417 0.130043 
-0.0929303 0.0556445 0.109592 -0.0978667 0.058527 0.0883379 -0.101951 0.0615026 0.0663098 
-0.105037 0.0645702 0.0435756 -0.107008 0.0677093 0.0202408 -0.107786 0.0708788 -0.00356004 
-0.107336 0.0740176 -0.0276727 -0.105666 0.0770486 -0.0519362 -0.102823 0.0798854 -0.0761957 
-0.0988896 0.082439 -0.100314 -0.0939746 0.0846265 -0.124179 -0.0882018 0.0863774 -0.147713 
-0.0817022 0.0876398 -0.17087 -0.0746043 0.0883828 -0.193634 -0.0670268 0.0885977 -0.216014 
-0.0590742 0.0882955 -0.238032 -0.0508336 0.0875029 -0.259714 -0.0423747 0.0862565 -0.28108 
-0.0337519 0.0845962 -0.302135 -0.0250073 0.0825594 -0.322863 -0.016175 0.0801761 -0.343224 
-0.00728544 0.0774655 -0.363158 0.0016304 0.0744351 -0.382587 0.0105384 0.0710824 -0.401425 
0.0193993 0.0673982 -0.419587 0.0281681 0.0633711 -0.436997 0.0367948 0.0589938 -0.453597 
0.0452261 0.0542683 -0.469356 0.0534073 0.049211 -0.484264 0.0612849 0.0438557 -0.49834 
0.0688091 0.0382552 -0.511624 0.0759352 0.0324801 -0.524165 0.0826256 0.026616 -0.536021 
0.0888502 0.0207587 -0.547242 0.094587 0.0150083 -0.557866 0.0998217 0.0094628 -0.56791 
0.104547 0.00421181 -0.577371 0.108765 -0.000668702 -0.586224 0.11248 -0.00512051 -0.594428 
0.115707 -0.0091054 -0.60193 0.118466 -0.0126058 -0.608679 0.120782 -0.0156233 -0.614632 
0.122686 -0.0181769 -0.619765 0.124216 -0.0202983 -0.624077 0.125414 -0.022029 -0.627596 
0.126323 -0.0234152 -0.630377 0.126991 -0.0245044 -0.632496 0.127461 -0.0253417 -0.634047 
0.127776 -0.0259672 -0.635125 0.127971 -0.0264137 -0.635823 0.128074 -0.0267057 -0.636212 
0.128103 -0.0268581 -0.636342 
LINES 2 100
OFFSETS vtktypeint64
0 100 
CONNECTIVITY vtktypeint64
0 1 2 3 4 5 6 7 8 
9 10 11 12 13 14 15 16 17 
18 19 20 21 22 23 24 25 26 
27 28 29 30 31 32 33 34 35 
36 37 38 39 40 41 42 43 44 
45 46 47 48 49 50 51 52 53 
54 55 56 57 58 59 60 61 62 
63 64 65 66 67 68 69 70 71 
72 73 74 75 76 77 78 79 80 
81 82 83 84 85 86 87 88 89 
90 91 92 93 94 95 96 97 98 
99 
POINT_DATA 100
FIELD FieldData 3
_theta 1 100 double
0 0.031733259127 0.063466518254 0.095199777382 0.12693303651 0.15866629564 0.19039955476 0.22213281389 0.25386607302 
0.28559933214 0.31733259127 0.3490658504 0.38079910953 0.41253236865 0.44426562778 0.47599888691 0.50773214603 0.53946540516 
0.57119866429 0.60293192342 0.63466518254 0.66639844167 0.6981317008 0.72986495992 0.76159821905 0.79333147818 0.82506473731 
0.85679799643 0.88853125556 0.92026451469 0.95199777382 0.98373103294 1.0154642921 1.0471975512 1.0789308103 1.1106640695 
1.1423973286 1.1741305877 1.2058638468 1.237597106 1.2693303651 1.3010636242 1.3327968833 1.3645301425 1.3962634016 
1.4279966607 1.4597299198 1.491463179 1.5231964381 1.5549296972 1.5866629564 1.6183962155 1.6501294746 1.6818627337 
1.7135959929 1.745329252 1.7770625111 1.8087957702 1.8405290294 1.8722622885 1.9039955476 1.9357288068 1.9674620659 
1.999195325 2.0309285841 2.0626618433 2.0943951024 2.1261283615 2.1578616206 2.1895948798 2.2213281389 2.253061398 
2.2847946572 2.3165279163 2.3482611754 2.3799944345 2.4117276937 2.4434609528 2.4751942119 2.506927471 2.5386607302 
2.5703939893 2.6021272484 2.6338605076 2.6655937667 2.6973270258 2.7290602849 2.7607935441 2.7925268032 2.8242600623 
2.8559933214 2.8877265806 2.9194598397 2.9511930988 2.982926358 3.0146596171 3.0463928762 3.0781261353 3.1098593945 
3.1415926536 
_radius 1 100 double
7.835728851e-16 0.01309974004 0.026204752875 0.039304874445 0.05237671834 0.06538103748 0.078263231205 0.090956835754 0.10338925044 
0.11548851947 0.12718981009 0.13844038409 0.14920234645 0.1594531211 0.16918418848 0.17839886553 0.1871097155 0.19533570169 
0.20309879436 0.21041972349 0.21731300376 0.22378200523 0.22981532562 0.23538574425 0.24045254481 0.24496715484 0.24888116492 
0.2521551484 0.25476648762 0.25671465589 0.25802298596 0.25873666613 0.25891734257 0.25863516632 0.25795941024 0.25694894783 
0.25564396691 0.25406026494 0.25218728247 0.24999062464 0.24741919904 0.24441633765 0.24093351237 0.23694466611 0.23245891506 
0.22752952376 0.22225761934 0.21678996503 0.21131095856 0.2060294974 0.20116141285 0.19690836708 0.1934350997 0.19084851106 
0.18918304318 0.18839599501 0.18837386601 0.18894789216 0.18991513048 0.19106133585 0.19218287416 0.19310597885 0.19370215841 
0.19389860609 0.19368252691 0.19309870979 0.19224041984 0.19123456743 0.19022292405 0.18934176037 0.18870256107 0.18837632636 
0.18838337604 0.18868964455 0.18920942167 0.18981359499 0.19034184377 0.19061696492 0.19045954244 0.18970141889 0.18819679379 
0.18583017066 0.18252074325 0.17822314193 0.17292477991 0.16664036955 0.15940450625 0.15126348253 0.14226761741 0.13246530527 
0.12189968411 0.11060833585 0.098625857975 0.085988618014 0.072740632082 0.05893934421 0.04466010164 0.029998289596 0.015068420247 
6.8728230195e-16 
_area 1 100 double
0 0.00051228203914 0.0020435539513 0.0045745790693 0.0080661150086 0.012451979328 0.01763573006 0.023494470795 0.029890818223 
0.036690549788 0.043780414231 0.051079748846 0.0585417566 0.066144747229 0.073878011777 0.081728710617 0.08967423269 0.097680552704 
0.10570420256 0.11369524796 0.12160008786 0.12936397206 0.13693316235 0.14425613795 0.15128252388 0.15795791149 0.16421385822 
0.16995628085 0.17506062292 0.17938351547 0.18279288233 0.18520571918 0.18661736759 0.18711068849 0.18684080444 0.18599698337 
0.18474963578 0.18319837375 0.18134113937 0.17907718071 0.17624176418 0.1726598258 0.16820314744 0.16283693483 0.15664431271 
0.14982180982 0.14264631306 0.13542363495 0.12843723109 0.12191530168 0.11602194226 0.1108639242 0.10650036598 0.10294646084 
0.10017336905 0.098118620838 0.096709592647 0.095874384574 0.095521822556 0.0955058986 0.095606044453 0.095558377415 0.095139287377 
0.094231046275 0.092834403521 0.091046744638 0.089024508504 0.086944189041 0.08497261655 0.083251088799 0.081891190929 0.080975558912 
0.080557338786 0.080655275252 0.081242045193 0.082228184608 0.083459618943 0.084735010631 0.085824537639 0.086485683589 0.086483118348 
0.085613744966 0.083731398211 0.080764707872 0.076723942619 0.071695957215 0.065829697811 0.059316690479 0.052371016564 0.045212167948 
0.038052644064 0.031090537327 0.024505986177 0.018459800154 0.013092984661 0.0085267133207 0.0048626145952 0.0021828394211 0.00054903803382 
5.556515122e-17 
