# vtk DataFile Version 5.1
vtk output
ASCII
DATASET POLYDATA
POINTS 100 float
0.0932365 0.0400847 0.698204 0.0935013 0.0403201 0.697916 0.0943408 0.040864 0.696929 
0.0956586 0.0416909 0.695273 0.0973065 0.0427619 0.692998 0.0991021 0.0440274 0.690162 
0.10085 0.0454309 0.686824 0.102362 0.0469135 0.683035 0.103482 0.0484179 0.67883 
0.104098 0.0498918 0.674224 0.104155 0.0512903 0.669206 0.103657 0.0525782 0.663743 
0.102661 0.0537297 0.65778 0.101269 0.0547287 0.651251 0.0996058 0.0555667 0.644083 
0.0978045 0.0562415 0.636209 0.0959826 0.0567548 0.627577 0.094225 0.0571101 0.618154 
0.0925709 0.0573113 0.60794 0.0910058 0.0573615 0.596961 0.0894619 0.057262 0.585277 
0.0878252 0.057013 0.572971 0.0859483 0.0566135 0.560145 0.0836682 0.0560623 0.546915 
0.0808258 0.0553589 0.533392 0.077285 0.0545043 0.519683 0.0729494 0.0535015 0.505876 
0.0677732 0.052356 0.492035 0.0617668 0.0510758 0.4782 0.0549949 0.0496714 0.464381 
0.0475684 0.048156 0.450564 0.0396308 0.0465452 0.436712 0.031342 0.0448577 0.422773 
0.0228593 0.0431156 0.408682 0.0143216 0.0413458 0.39437 0.00583532 0.0395806 0.379767 
-0.00253354 0.0378593 0.364808 -0.0107617 0.0362288 0.34943 -0.0188644 0.0347437 0.333577 
-0.0268854 0.0334656 0.317198 -0.0348829 0.0324616 0.300244 -0.0429129 0.0318006 0.282672 
-0.0510124 0.0315498 0.264441 -0.0591843 0.0317692 0.245511 -0.0673874 0.0325065 0.225852 
-0.0755309 0.0337912 0.205438 -0.0834754 0.0356302 0.184262 -0.0910405 0.0380041 0.162329 
-0.0980177 0.040866 0.139669 -0.104187 0.044142 0.116334 -0.109337 0.0477343 0.0924038 
-0.113282 0.0515266 0.0679804 -0.11588 0.0553918 0.0431874 -0.117046 0.0592003 0.0181625 
-0.116758 0.0628298 -0.00695007 -0.115059 0.0661737 -0.032009 -0.112051 0.0691487 -0.056885 
-0.107889 0.0717005 -0.0814699 -0.10276 0.0738057 -0.105683 -0.0968724 0.0754721 -0.129478 
-0.0904338 0.0767341 -0.152838 -0.0836383 0.0776467 -0.175782 -0.0766513 0.0782767 -0.198352 
-0.0696006 0.0786928 -0.220609 -0.0625716 0.0789555 -0.242624 -0.0556073 0.0791081 -0.264464 
-0.0487132 0.0791695 -0.286185 -0.0418649 0.0791302 -0.307823 -0.0350188 0.0789507 -0.329384 
-0.0281229 0.0785645 -0.350848 -0.0211283 0.0778836 -0.372162 -0.0139983 0.0768069 -0.393247 
-0.00671572 0.0752303 -0.414001 0.000713391 0.0730577 -0.434308 0.00825844 0.0702121 -0.454046 
0.0158663 0.0666439 -0.473098 0.0234655 0.0623385 -0.491353 0.030972 0.0573196 -0.508719 
0.0382964 0.0516501 -0.525126 0.04535 0.0454287 -0.540522 0.0520516 0.0387847 -0.55488 
0.058332 0.0318693 -0.568194 0.0641378 0.0248458 -0.580471 0.0694328 0.0178797 -0.591735 
0.0741984 0.0111282 -0.602014 0.0784327 0.00473129 -0.611346 0.082148 -0.00119492 -0.619768 
0.0853685 -0.00656345 -0.627319 0.0881268 -0.0113186 -0.634037 0.0904614 -0.0154357 -0.639963 
0.0924135 -0.0189192 -0.645135 0.0940251 -0.0217982 -0.649595 0.0953369 -0.0241214 -0.653385 
0.0963867 -0.0259507 -0.656548 0.097209 -0.0273553 -0.65913 0.0978335 -0.0284051 -0.661172 
0.0982852 -0.0291654 -0.662715 0.0985841 -0.0296919 -0.663793 0.0987446 -0.0300272 -0.664431 
0.0987758 -0.0301975 -0.664645 
LINES 2 100
OFFSETS vtktypeint64
0 100 
CONNECTIVITY vtktypeint64
0 1 2 3 4 5 6 7 8 
9 10 11 12 13 14 15 16 17 
18 19 20 21 22 23 24 25 26 
27 28 29 30 31 32 33 34 35 
36 37 38 39 40 41 42 43 44 
45 46 47 48 49 50 51 52 53 
54 55 56 57 58 59 60 61 62 
63 64 65 66 67 68 69 70 71 
72 73 74 75 76 77 78 79 80 
81 82 83 84 85 86 87 88 89 
90 91 92 93 94 95 96 97 98 
99 
POINT_DATA 100
FIELD FieldData 3
_theta 1 100 double
0 0.031733259127 0.063466518254 0.095199777382 0.12693303651 0.15866629564 0.19039955476 0.22213281389 0.25386607302 
0.28559933214 0.31733259127 0.3490658504 0.38079910953 0.41253236865 0.44426562778 0.47599888691 0.50773214603 0.53946540516 
0.57119866429 0.60293192342 0.63466518254 0.66639844167 0.6981317008 0.72986495992 0.76159821905 0.79333147818 0.82506473731 
0.85679799643 0.88853125556 0.92026451469 0.95199777382 0.98373103294 1.0154642921 1.0471975512 1.0789308103 1.1106640695 
1.1423973286 1.1741305877 1.2058638468 1.237597106 1.2693303651 1.3010636242 1.3327968833 1.3645301425 1.3962634016 
1.4279966607 1.4597299198 1.491463179 1.5231964381 1.5549296972 1.5866629564 1.6183962155 1.6501294746 1.6818627337 
1.7135959929 1.745329252 1.7770625111 1.8087957702 1.8405290294 1.8722622885 1.9039955476 1.9357288068 1.9674620659 
1.999195325 2.0309285841 2.0626618433 2.0943951024 2.1261283615 2.1578616206 2.1895948798 2.2213281389 2.253061398 
2.2847946572 2.3165279163 2.3482611754 2.3799944345 2.4117276937 2.4434609528 2.4751942119 2.506927471 2.5386607302 
2.5703939893 2.6021272484 2.6338605076 2.6655937667 2.6973270258 2.7290602849 2.7607935441 2.7925268032 2.8242600623 
2.8559933214 2.8877265806 2.9194598397 2.9511930988 2.982926358 3.0146596171 3.0463928762 3.0781261353 3.1098593945 
3.1415926536 
_radius 1 100 double
4.4840504702e-16 0.014638614247 0.029218232494 0.043676976453 0.05795454661 0.071992314741 0.085732903365 0.099119597707 0.11209601196 
0.12460628139 0.13659578581 0.14801221807 0.15880681458 0.16893572591 0.17836166664 0.18705598965 0.19500113949 0.20219314103 
0.20864352653 0.21438003779 0.21944563786 0.22389580739 0.227794632 0.23121056572 0.23421277312 0.23686856663 0.23924181961 
0.24139162278 0.24337013749 0.24521877649 0.24696253604 0.24860331425 0.25011397563 0.25143530922 0.25247762601 0.25312765798 
0.25326007142 0.25275178647 0.25149676121 0.24941906326 0.246482769 0.24269817507 0.2381245918 0.23287031609 0.22709014555 
0.2209801351 0.2147686102 0.20870231077 0.20302740152 0.19796680524 0.19369704454 0.19032874407 0.18789524223 0.18635348012 
0.185599195 0.1854933352 0.18589083353 0.18666105527 0.18769324068 0.18888759465 0.1901394904 0.19132748662 0.19231361269 
0.19295742856 0.19313813826 0.19277613923 0.19184723162 0.19038644822 0.18848173021 0.18625982969 0.18386798185 0.18145510374 
0.17915552623 0.17707680723 0.17529162289 0.17383274665 0.17269004058 0.17180909708 0.17109214112 0.17040225885 0.16957153019 
0.16841254137 0.16673179152 0.16434319519 0.16108020108 0.15680563865 0.15141892247 0.14486056316 0.13711410267 0.12820567569 
0.11820138767 0.10720256794 0.095338779242 0.082758440641 0.069617264076 0.056065468702 0.042235703391 0.028234300423 0.014138363947 
6.4901686329e-16 
_area 1 100 double
0 0.00051342958999 0.0020429267375 0.0045574377086 0.0080092813068 0.012339144075 0.017480887843 0.023364211899 0.029913443382 
0.037041980826 0.044644002444 0.052587168923 0.060711106634 0.068835516413 0.07677858949 0.084382014953 0.091535267669 0.098191033004 
0.10436618709 0.11012745092 0.11556510034 0.12076101594 0.12576204338 0.1305734768 0.13517729596 0.13956210309 0.14374726951 
0.14779048588 0.15177590692 0.15578645244 0.1598680601 0.16399732567 0.16806512482 0.17188309472 0.17521075186 0.17779503068 
0.17941184357 0.17989913074 0.17917278976 0.17722263785 0.17409509273 0.16987548527 0.16467901549 0.15865113555 0.15197367314 
0.14487142556 0.13761325535 0.13050251753 0.12385419606 0.1179599343 0.11304533092 0.10922496885 0.10646860185 0.10460646414 
0.1033859489 0.10255441105 0.1019283349 0.10141801492 0.10099993664 0.10065142819 0.10029083093 0.099770966604 0.098920969369 
0.097596752097 0.095712818958 0.093251371192 0.090259812848 0.086847461133 0.083180210131 0.079464886968 0.075921826162 0.072755166626 
0.070132806673 0.068177432936 0.066957752949 0.066471651474 0.066630054224 0.067262942521 0.068152025335 0.06906773212 0.069793242969 
0.070135113986 0.069925302539 0.069019689303 0.067298414335 0.064671918612 0.061092840218 0.056570094703 0.051180357245 0.045073851926 
0.038472704943 0.031659074678 0.024950096154 0.018661322876 0.01306724017 0.0083707506028 0.0046911646329 0.0020737740041 0.00051614611463 
6.7207389831e-17 
