# vtk DataFile Version 5.1
vtk output
ASCII
DATASET POLYDATA
POINTS 100 float
0.139594 0.0414614 0.708861 0.139489 0.0417023 0.70841 0.139218 0.0422459 0.706959 
0.138782 0.0430556 0.704552 0.138183 0.0440763 0.701261 0.137425 0.0452405 0.697174 
0.136505 0.046476 0.692382 0.135417 0.0477143 0.686971 0.134151 0.0488967 0.68101 
0.132687 0.04998 0.674546 0.130999 0.0509386 0.667598 0.129053 0.0517638 0.660159 
0.126808 0.0524614 0.6522 0.124217 0.0530456 0.643677 0.121234 0.0535333 0.634543 
0.117812 0.0539371 0.624755 0.113911 0.0542598 0.614287 0.109498 0.0544906 0.603135 
0.104555 0.0546044 0.591325 0.0990772 0.0545633 0.578908 0.0930799 0.0543216 0.565959 
0.086596 0.0538324 0.552573 0.0796773 0.0530556 0.53885 0.0723914 0.0519663 0.524889 
0.0648195 0.0505613 0.510776 0.0570507 0.0488641 0.496578 0.049177 0.0469262 0.482334 
0.0412871 0.0448253 0.468056 0.0334603 0.04266 0.45373 0.0257606 0.0405409 0.439319 
0.0182322 0.0385813 0.424773 0.0108966 0.0368856 0.410033 0.00375109 0.0355393 0.395042 
-0.00322988 0.0346009 0.379752 -0.0100918 0.0340964 0.364123 -0.0168947 0.0340184 0.348129 
-0.0237061 0.0343282 0.331753 -0.0305924 0.0349619 0.314983 -0.0376102 0.0358396 0.297808 
-0.0447976 0.0368754 0.280206 -0.0521658 0.0379891 0.262145 -0.0596938 0.0391148 0.243574 
-0.0673239 0.0402095 0.224427 -0.0749612 0.0412566 0.204624 -0.0824763 0.0422665 0.18408 
-0.0897098 0.043274 0.162712 -0.0964814 0.0443318 0.140455 -0.1026 0.0455023 0.117272 
-0.107877 0.046848 0.0931631 -0.112137 0.0484226 0.0681755 -0.115232 0.050263 0.0424052 
-0.11705 0.0523838 0.0159959 -0.117525 0.0547752 -0.0108685 -0.116643 0.0574028 -0.0379748 
-0.114439 0.0602112 -0.0650962 -0.111001 0.0631292 -0.0920083 -0.106459 0.0660764 -0.118506 
-0.100974 0.0689692 -0.144418 -0.0947341 0.0717273 -0.169617 -0.087933 0.0742771 -0.194026 
-0.0807618 0.0765542 -0.217617 -0.0733942 0.0785035 -0.24041 -0.0659772 0.080077 -0.262455 
-0.058623 0.0812313 -0.283829 -0.0514049 0.0819246 -0.304615 -0.0443568 0.0821138 -0.324888 
-0.0374768 0.0817539 -0.344711 -0.0307329 0.0807986 -0.364117 -0.0240722 0.0792042 -0.383116 
-0.0174307 0.0769343 -0.401691 -0.010744 0.0739666 -0.419805 -0.00395717 0.0703003 -0.437412 
0.00296741 0.0659623 -0.454464 0.0100442 0.0610118 -0.470925 0.0172617 0.0555423 -0.486777 
0.0245833 0.0496795 -0.502025 0.03195 0.0435758 -0.516696 0.0392863 0.0374011 -0.530837 
0.0465077 0.0313307 -0.544505 0.0535287 0.025532 -0.557757 0.0602706 0.0201507 -0.570637 
0.0666685 0.0152988 -0.583167 0.0726762 0.0110456 -0.595336 0.0782689 0.0074132 -0.607096 
0.083443 0.00437648 -0.618364 0.0882142 0.00186849 -0.629028 0.0926127 -0.0002098 -0.638956 
0.0966769 -0.00197634 -0.648013 0.100447 -0.003553 -0.656075 0.10396 -0.00505051 -0.663047 
0.107239 -0.00655531 -0.668877 0.110297 -0.0081197 -0.673563 0.113128 -0.00975671 -0.67716 
0.11571 -0.0114401 -0.67977 0.118009 -0.0131097 -0.68154 0.119981 -0.0146807 -0.682642 
0.121577 -0.0160564 -0.683256 0.122753 -0.0171425 -0.68355 0.12347 -0.0178601 -0.683658 
0.123705 -0.0181571 -0.683671 
LINES 2 100
OFFSETS vtktypeint64
0 100 
CONNECTIVITY vtktypeint64
0 1 2 3 4 5 6 7 8 
9 10 11 12 13 14 15 16 17 
18 19 20 21 22 23 24 25 26 
27 28 29 30 31 32 33 34 35 
36 37 38 39 40 41 42 43 44 
45 46 47 48 49 50 51 52 53 
54 55 56 57 58 59 60 61 62 
63 64 65 66 67 68 69 70 71 
72 73 74 75 76 77 78 79 80 
81 82 83 84 85 86 87 88 89 
90 91 92 93 94 95 96 97 98 
99 
POINT_DATA 100
FIELD FieldData 3
_theta 1 100 double
0 0.031733259127 0.063466518254 0.095199777382 0.12693303651 0.15866629564 0.19039955476 0.22213281389 0.25386607302 
0.28559933214 0.31733259127 0.3490658504 0.38079910953 0.41253236865 0.44426562778 0.47599888691 0.50773214603 0.53946540516 
0.57119866429 0.60293192342 0.63466518254 0.66639844167 0.6981317008 0.72986495992 0.76159821905 0.79333147818 0.82506473731 
0.85679799643 0.88853125556 0.92026451469 0.95199777382 0.98373103294 1.0154642921 1.0471975512 1.0789308103 1.1106640695 
1.1423973286 1.1741305877 1.2058638468 1.237597106 1.2693303651 1.3010636242 1.3327968833 1.3645301425 1.3962634016 
1.4279966607 1.4597299198 1.491463179 1.5231964381 1.5549296972 1.5866629564 1.6183962155 1.6501294746 1.6818627337 
1.7135959929 1.745329252 1.7770625111 1.8087957702 1.8405290294 1.8722622885 1.9039955476 1.9357288068 1.9674620659 
1.999195325 2.0309285841 2.0626618433 2.0943951024 2.1261283615 2.1578616206 2.1895948798 2.2213281389 2.253061398 
2.2847946572 2.3165279163 2.3482611754 2.3799944345 2.4117276937 2.4434609528 2.4751942119 2.506927471 2.5386607302 
2.5703939893 2.6021272484 2.6338605076 2.6655937667 2.6973270258 2.7290602849 2.7607935441 2.7925268032 2.8242600623 
2.8559933214 2.8877265806 2.9194598397 2.9511930988 2.982926358 3.0146596171 3.0463928762 3.0781261353 3.1098593945 
3.1415926536 
_radius 1 100 double
5.0957188379e-16 0.014355638372 0.028590212793 0.042586481531 0.056239664548 0.069461924819 0.08218494782 0.094360505065 0.10595917213 
0.11696756807 0.12738457483 0.13721701337 0.14647524938 0.15516920616 0.16330525981 0.17088443897 0.1779022121 0.18434992489 
0.19021769055 0.19549829176 0.20019146973 0.20430788344 0.20787204194 0.21092364936 0.21351703334 0.21571859784 0.21760248325 
0.21924479187 0.22071685539 0.2220781291 0.22336942276 0.22460729038 0.2257804245 0.22684876783 0.22774575787 0.22838371675 
0.22866197918 0.2284770049 0.22773351306 0.22635562714 0.22429706977 0.221549474 0.21814783798 0.21417219044 0.20974486266 
0.20502338307 0.20018969896 0.1954369594 0.19095540213 0.18691901628 0.18347455912 0.18073399009 0.17877034242 0.17761588657 
0.17726107003 0.17765373926 0.17869994081 0.18026861177 0.18220166765 0.18432885797 0.18648478927 0.18852483461 0.19033724557 
0.19184994873 0.19303163981 0.1938876881 0.1944520263 0.19477659469 0.19492000869 0.19493697921 0.19486971745 0.19474214065 
0.19455718358 0.19429697359 0.19392516954 0.19339053414 0.19263086052 0.19157664711 0.19015426701 0.18828867 0.18590580158 
0.18293491213 0.17931080493 0.17497591183 0.1698819747 0.16399110099 0.15727605465 0.1497198033 0.14131452837 0.1320604858 
0.12196523231 0.11104374181 0.099319776219 0.086828551911 0.073620329987 0.059764163973 0.045350775794 0.030493500279 0.015326501204 
1.0986516017e-15 
_area 1 100 double
0 0.0005558074936 0.002201403762 0.0048736342028 0.008474547852 0.012881000416 0.017955903953 0.023559776146 0.029561437174 
0.035846799154 0.042324701413 0.048928857765 0.055615355276 0.06235576262 0.069126693481 0.075897627655 0.082619858286 0.089220183158 
0.095602652254 0.10165981691 0.10729177769 0.11242800432 0.11704492368 0.12117319966 0.12489338478 0.12832463634 0.13160982549 
0.13488911011 0.13825883215 0.14174191814 0.14528851941 0.14879074503 0.15209709295 0.15502528838 0.15737584939 0.15894757185 
0.15955292302 0.15903695579 0.15730694227 0.15435820386 0.15029047188 0.14530906842 0.13970600026 0.13384737244 0.12829979991 
0.122705405 0.11706417763 0.11153804418 0.1062917437 0.1014687614 0.097172101823 0.093454015891 0.090317873266 0.087736642356 
0.085848596278 0.084489546666 0.083588946618 0.083012184316 0.082732434938 0.082796567739 0.083214920446 0.083905585842 0.08478233167 
0.08574345197 0.086661817918 0.087407682855 0.087884064128 0.088036913968 0.087854095653 0.087357688393 0.086595470299 0.085635391576 
0.084564713158 0.083476304434 0.082447267867 0.081551681586 0.081085827583 0.080808430724 0.080716042589 0.080713678938 0.080421589243 
0.079612944046 0.078155964306 0.075954101402 0.072939667761 0.069076902701 0.064369986976 0.058873516984 0.052699893477 0.046018852795 
0.039048293736 0.032038402555 0.025251656211 0.018941040165 0.013329013663 0.0085905012633 0.0048437432994 0.0021521374389 0.00053743348809 
1.2888278641e-17 
