# vtk DataFile Version 5.1
vtk output
ASCII
DATASET POLYDATA
POINTS 100 float
0.133923 0.038254 0.713505 0.133824 0.0386187 0.713016 0.133564 0.0395275 0.711434 
0.133162 0.0408936 0.708808 0.13264 0.042586 0.705218 0.132023 0.0444453 0.700763 
0.131335 0.0463039 0.695553 0.130588 0.0480062 0.689699 0.12978 0.0494269 0.683299 
0.128893 0.0504849 0.676435 0.127891 0.0511513 0.669164 0.126721 0.0514494 0.661519 
0.125317 0.0514483 0.653509 0.123611 0.0512501 0.645128 0.121532 0.0509729 0.636356 
0.119021 0.0507316 0.627172 0.116034 0.0506204 0.61756 0.112547 0.0506975 0.607515 
0.10856 0.0509763 0.597047 0.104098 0.0514226 0.586182 0.0992043 0.0519589 0.574964 
0.0939414 0.0524752 0.563442 0.0883799 0.052845 0.551672 0.0825937 0.0529432 0.539706 
0.076652 0.0526647 0.527584 0.0706136 0.0519409 0.515331 0.0645223 0.0507504 0.502952 
0.0584048 0.0491249 0.490433 0.0522708 0.0471469 0.477741 0.0461154 0.0449413 0.46483 
0.039922 0.0426612 0.451647 0.033668 0.0404704 0.438141 0.0273289 0.0385235 0.424267 
0.0208827 0.0369489 0.409993 0.0143136 0.0358333 0.395302 0.0076135 0.0352137 0.380193 
0.000782775 0.0350745 0.364677 -0.00617034 0.035352 0.348775 -0.0132311 0.0359449 0.332505 
-0.0203797 0.0367293 0.31588 -0.0275924 0.037576 0.298899 -0.0348415 0.0383688 0.281544 
-0.0420948 0.0390192 0.263773 -0.0493131 0.0394785 0.245527 -0.0564477 0.0397425 0.226732 
-0.063437 0.0398518 0.207308 -0.070204 0.0398848 0.187178 -0.0766546 0.039946 0.166279 
-0.0826785 0.0401519 0.144576 -0.0881523 0.0406143 0.122065 -0.0929447 0.0414256 0.0987821 
-0.0969254 0.0426467 0.0748033 -0.0999744 0.0442989 0.0502421 -0.101994 0.0463618 0.0252416 
-0.102916 0.0487756 -3.6232e-05 -0.102717 0.0514492 -0.0254238 -0.101417 0.0542706 -0.0507611 
-0.0990847 0.0571202 -0.0759087 -0.095834 0.0598832 -0.100758 -0.0918168 0.0624605 -0.125236 
-0.0872109 0.0647769 -0.149309 -0.0822058 0.0667845 -0.17298 -0.0769863 0.0684623 -0.19628 
-0.0717169 0.069812 -0.219256 -0.0665284 0.0708508 -0.241965 -0.061508 0.0716026 -0.264455 
-0.0566943 0.0720898 -0.286756 -0.0520784 0.0723256 -0.308877 -0.0476103 0.0723102 -0.330791 
-0.0432103 0.0720291 -0.352447 -0.0387836 0.071456 -0.373765 -0.0342367 0.0705582 -0.394647 
-0.0294937 0.0693041 -0.414989 -0.0245095 0.0676718 -0.434689 -0.0192792 0.0656565 -0.453662 
-0.013842 0.063277 -0.471841 -0.00827879 0.0605779 -0.489193 -0.00270468 0.0576291 -0.505712 
0.00274401 0.0545209 -0.521421 0.00792534 0.0513566 -0.536367 0.0127086 0.0482424 -0.55061 
0.0169899 0.0452767 -0.564217 0.020705 0.0425402 -0.577246 0.0238364 0.0400877 -0.589744 
0.0264156 0.0379439 -0.601737 0.0285181 0.0361022 -0.613224 0.0302537 0.0345283 -0.624183 
0.0317518 0.0331672 -0.63457 0.0331446 0.0319524 -0.644325 0.0345495 0.0308167 -0.653381 
0.0360545 0.029703 -0.661671 0.0377062 0.0285724 -0.669136 0.0395046 0.0274105 -0.67573 
0.0414031 0.0262286 -0.681424 0.043315 0.0250624 -0.686206 0.0451258 0.0239657 -0.69008 
0.0467081 0.0230023 -0.693058 0.0479392 0.0222361 -0.695161 0.0487174 0.0217211 -0.696408 
0.0489758 0.0214935 -0.696813 
LINES 2 100
OFFSETS vtktypeint64
0 100 
CONNECTIVITY vtktypeint64
0 1 2 3 4 5 6 7 8 
9 10 11 12 13 14 15 16 17 
18 19 20 21 22 23 24 25 26 
27 28 29 30 31 32 33 34 35 
36 37 38 39 40 41 42 43 44 
45 46 47 48 49 50 51 52 53 
54 55 56 57 58 59 60 61 62 
63 64 65 66 67 68 69 70 71 
72 73 74 75 76 77 78 79 80 
81 82 83 84 85 86 87 88 89 
90 91 92 93 94 95 96 97 98 
99 
POINT_DATA 100
FIELD FieldData 3
_theta 1 100 double
0 0.031733259127 0.063466518254 0.095199777382 0.12693303651 0.15866629564 0.19039955476 0.22213281389 0.25386607302 
0.28559933214 0.31733259127 0.3490658504 0.38079910953 0.41253236865 0.44426562778 0.47599888691 0.50773214603 0.53946540516 
0.57119866429 0.60293192342 0.63466518254 0.66639844167 0.6981317008 0.72986495992 0.76159821905 0.79333147818 0.82506473731 
0.85679799643 0.88853125556 0.92026451469 0.95199777382 0.98373103294 1.0154642921 1.0471975512 1.0789308103 1.1106640695 
1.1423973286 1.1741305877 1.2058638468 1.237597106 1.2693303651 1.3010636242 1.3327968833 1.3645301425 1.3962634016 
1.4279966607 1.4597299198 1.491463179 1.5231964381 1.5549296972 1.5866629564 1.6183962155 1.6501294746 1.6818627337 
1.7135959929 1.745329252 1.7770625111 1.8087957702 1.8405290294 1.8722622885 1.9039955476 1.9357288068 1.9674620659 
1.999195325 2.0309285841 2.0626618433 2.0943951024 2.1261283615 2.1578616206 2.1895948798 2.2213281389 2.253061398 
2.2847946572 2.3165279163 2.3482611754 2.3799944345 2.4117276937 2.4434609528 2.4751942119 2.506927471 2.5386607302 
2.5703939893 2.6021272484 2.6338605076 2.6655937667 2.6973270258 2.7290602849 2.7607935441 2.7925268032 2.8242600623 
2.8559933214 2.8877265806 2.9194598397 2.9511930988 2.982926358 3.0146596171 3.0463928762 3.0781261353 3.1098593945 
3.1415926536 
_radius 1 100 double
1.3509297596e-15 0.014396289992 0.028648232717 0.04262012415 0.056197215691 0.069292387241 0.081848961752 0.093839668481 0.10526249025 
0.11613459172 0.12648558058 0.13635103013 0.14576669976 0.15476351145 0.16336326247 0.17157525637 0.17939432471 0.18680086405 
0.19376338288 0.20024362703 0.20620374753 0.2116144056 0.21646238087 0.22075624879 0.22452896897 0.2278366774 0.23075354668 
0.23336326349 0.23574837441 0.23797917465 0.24010367737 0.242139649 0.24406927012 0.24583698463 0.24735126095 0.24849085561 
0.24911558664 0.24908079358 0.24825391133 0.24653116782 0.24385240787 0.2402123669 0.23566720997 0.23033566848 0.22439455436 
0.21806876783 0.21161616216 0.20530790271 0.19940547301 0.19413643587 0.18967236351 0.18611336337 0.18348324732 0.1817368678 
0.18077711115 0.18047561286 0.18069056745 0.18127752273 0.18209334993 0.18299733563 0.18385448037 0.18454394708 0.18497164447 
0.18508282002 0.18486989373 0.18437223036 0.18366695122 0.18285250255 0.18202911971 0.18128159026 0.18066852308 0.18021895611 
0.17993396651 0.17978990184 0.17974074618 0.17971888831 0.1796352535 0.17938063262 0.17882968544 0.17784787104 0.17630037252 
0.17406157353 0.17102375285 0.16710397902 0.16224846231 0.15643390147 0.14966576874 0.14197398688 0.13340690597 0.12402472393 
0.11389346064 0.10308035159 0.091651180706 0.079669706955 0.067198982979 0.054304010305 0.041054853431 0.027529149614 0.013813042693 
3.4681543677e-16 
_area 1 100 double
0 0.00055600325965 0.0021948834924 0.0048338491174 0.0083489932596 0.012592560832 0.017411006662 0.022660662398 0.028219457818 
0.033994662946 0.039927237452 0.045992983226 0.052199814457 0.058579831579 0.065175183151 0.072018203181 0.079108697793 0.08639411425 
0.093760858682 0.10104413162 0.10805649848 0.11462623463 0.1206331172 0.12603286867 0.1308665911 0.13525405815 0.13937020446 
0.14340613303 0.1475217295 0.1518048416 0.15625487555 0.16079674744 0.16530904925 0.16964178931 0.17361450868 0.17700753949 
0.17956521692 0.18101723536 0.18111129179 0.17964829578 0.17651476879 0.17170858844 0.16535374832 0.15769974038 0.14910312081 
0.13999263176 0.13082331961 0.12202745725 0.11396984685 0.10691337261 0.10099989174 0.096251959931 0.092597081182 0.089904275921 
0.088014831374 0.086759273519 0.085968393532 0.085486193946 0.0851815793 0.084951432124 0.084714211378 0.084399806013 0.083939330539 
0.083261554241 0.082315559536 0.081112818863 0.079743561298 0.078350527064 0.077082237302 0.076057745122 0.075360814743 0.075050858037 
0.075164239587 0.075693465719 0.076569507561 0.077676684855 0.078875668969 0.080012263461 0.08091917286 0.081418347649 0.081326921105 
0.080470474461 0.078704737132 0.075939603773 0.072156141454 0.067411177833 0.061829838387 0.055589973053 0.048903343059 0.041997510297 
0.035100550658 0.028428961841 0.022178160409 0.016514984456 0.011572346404 0.0074469753044 0.0042013287722 0.0018698057913 0.0004676888522 
3.8112293843e-17 
