# vtk DataFile Version 5.1
vtk output
ASCII
DATASET POLYDATA
POINTS 100 float
0.159558 0.0543906 0.774414 0.159559 0.0545796 0.774021 0.15964 0.0550029 0.772711 
0.15976 0.0556465 0.770548 0.159853 0.056488 0.767627 0.159843 0.0574976 0.764063 
0.159648 0.0586398 0.75997 0.159196 0.0598746 0.755442 0.158429 0.0611593 0.750545 
0.157314 0.0624498 0.745299 0.155843 0.0637025 0.739677 0.154036 0.0648754 0.733606 
0.151931 0.0659295 0.72698 0.149581 0.0668294 0.71967 0.14704 0.0675442 0.711547 
0.144358 0.0680478 0.702497 0.141564 0.0683191 0.692442 0.138665 0.0683422 0.681352 
0.135637 0.0681059 0.669251 0.132431 0.0676043 0.656218 0.12897 0.0668359 0.642381 
0.125163 0.0658041 0.627902 0.120912 0.0645173 0.612957 0.116126 0.0629888 0.59772 
0.110729 0.0612371 0.582342 0.104674 0.0592867 0.566933 0.0979428 0.0571677 0.551554 
0.0905549 0.0549166 0.536211 0.0825605 0.0525761 0.520858 0.074036 0.0501948 0.505406 
0.0650746 0.0478264 0.489737 0.0557748 0.0455294 0.473722 0.0462292 0.0433648 0.457236 
0.0365148 0.0413946 0.440177 0.0266858 0.03968 0.422472 0.016771 0.0382782 0.404085 
0.00677554 0.0372406 0.385016 -0.00331315 0.03661 0.365291 -0.013515 0.0364184 0.344956 
-0.023845 0.0366853 0.324057 -0.0342997 0.0374164 0.302629 -0.0448448 0.0386032 0.280686 
-0.0554058 0.0402228 0.258209 -0.0658622 0.0422392 0.23515 -0.076048 0.0446048 0.211431 
-0.0857571 0.0472627 0.186962 -0.0947539 0.050149 0.161649 -0.102789 0.0531961 0.135419 
-0.109618 0.0563355 0.108235 -0.115019 0.0595002 0.0801092 -0.118813 0.0626279 0.051119 
-0.120878 0.065662 0.0214056 -0.121158 0.0685533 -0.00882801 -0.119672 0.0712607 -0.0393302 
-0.116509 0.0737508 -0.0698186 -0.111825 0.0759975 -0.100003 -0.105825 0.0779808 -0.129611 
-0.0987528 0.0796853 -0.158408 -0.0908694 0.0810987 -0.186221 -0.0824349 0.0822098 -0.212949 
-0.0736916 0.0830077 -0.238565 -0.0648495 0.0834801 -0.263116 -0.0560761 0.0836127 -0.286711 
-0.0474906 0.0833891 -0.3095 -0.0391626 0.0827909 -0.331656 -0.0311159 0.0817981 -0.353346 
-0.0233348 0.0803906 -0.374718 -0.0157736 0.0785493 -0.395876 -0.00836668 0.0762577 -0.416876 
-0.00103922 0.0735039 -0.437719 0.00628328 0.0702819 -0.458354 0.0136671 0.0665936 -0.478693 
0.0211642 0.0624501 -0.498622 0.0288089 0.0578726 -0.518022 0.0366158 0.0528938 -0.53678 
0.0445798 0.0475572 -0.55481 0.0526776 0.0419181 -0.572059 0.0608694 0.036042 -0.58851 
0.0691015 0.0300037 -0.604182 0.0773088 0.0238855 -0.61912 0.0854175 0.0177748 -0.633385 
0.0933472 0.0117615 -0.647038 0.101014 0.00593452 -0.660129 0.108333 0.000378704 -0.672683 
0.115222 -0.00482868 -0.684694 0.121605 -0.00962124 -0.696125 0.127415 -0.0139464 -0.706909 
0.132599 -0.0177677 -0.716958 0.137123 -0.0210666 -0.726178 0.140971 -0.0238429 -0.734479 
0.144152 -0.0261144 -0.741793 0.146696 -0.0279156 -0.748079 0.148653 -0.0292949 -0.753336 
0.150093 -0.0303114 -0.757601 0.151097 -0.0310302 -0.760946 0.151753 -0.0315181 -0.763467 
0.152146 -0.0318384 -0.765274 0.152353 -0.0320465 -0.766471 0.152435 -0.0321853 -0.767149 
0.152431 -0.032282 -0.767364 
LINES 2 100
OFFSETS vtktypeint64
0 100 
CONNECTIVITY vtktypeint64
0 1 2 3 4 5 6 7 8 
9 10 11 12 13 14 15 16 17 
18 19 20 21 22 23 24 25 26 
27 28 29 30 31 32 33 34 35 
36 37 38 39 40 41 42 43 44 
45 46 47 48 49 50 51 52 53 
54 55 56 57 58 59 60 61 62 
63 64 65 66 67 68 69 70 71 
72 73 74 75 76 77 78 79 80 
81 82 83 84 85 86 87 88 89 
90 91 92 93 94 95 96 97 98 
99 
POINT_DATA 100
FIELD FieldData 3
_theta 1 100 double
0 0.031733259127 0.063466518254 0.095199777382 0.12693303651 0.15866629564 0.19039955476 0.22213281389 0.25386607302 
0.28559933214 0.31733259127 0.3490658504 0.38079910953 0.41253236865 0.44426562778 0.47599888691 0.50773214603 0.53946540516 
0.57119866429 0.60293192342 0.63466518254 0.66639844167 0.6981317008 0.72986495992 0.76159821905 0.79333147818 0.82506473731 
0.85679799643 0.88853125556 0.92026451469 0.95199777382 0.98373103294 1.0154642921 1.0471975512 1.0789308103 1.1106640695 
1.1423973286 1.1741305877 1.2058638468 1.237597106 1.2693303651 1.3010636242 1.3327968833 1.3645301425 1.3962634016 
1.4279966607 1.4597299198 1.491463179 1.5231964381 1.5549296972 1.5866629564 1.6183962155 1.6501294746 1.6818627337 
1.7135959929 1.745329252 1.7770625111 1.8087957702 1.8405290294 1.8722622885 1.9039955476 1.9357288068 1.9674620659 
1.999195325 2.0309285841 2.0626618433 2.0943951024 2.1261283615 2.1578616206 2.1895948798 2.2213281389 2.253061398 
2.2847946572 2.3165279163 2.3482611754 2.3799944345 2.4117276937 2.4434609528 2.4751942119 2.506927471 2.5386607302 
2.5703939893 2.6021272484 2.6338605076 2.6655937667 2.6973270258 2.7290602849 2.7607935441 2.7925268032 2.8242600623 
2.8559933214 2.8877265806 2.9194598397 2.9511930988 2.982926358 3.0146596171 3.0463928762 3.0781261353 3.1098593945 
3.1415926536 
_radius 1 100 double
1.7554167343e-16 0.016141736394 0.032148511587 0.047891003248 0.063257853882 0.078161515862 0.092540653932 0.10635886812 0.11960005569 
0.13226120177 0.1443437346 0.15584480336 0.16674993568 0.17702846282 0.18663277217 0.19550180684 0.20356837689 0.21076902839 
0.21705471326 0.22240045296 0.22681254494 0.23033244974 0.23303710784 0.23503588324 0.23646449753 0.23747622265 0.23823042051 
0.23887856016 0.23954836192 0.2403276924 0.24125084775 0.24229028903 0.24335632206 0.24430575013 0.24495870434 0.24512127348 
0.24461060721 0.24327896996 0.24103368283 0.23785078603 0.23378130786 0.22894996651 0.22354675049 0.21781209004 0.21201649494 
0.20643606727 0.2013264406 0.19689888387 0.1933024873 0.19061525488 0.18884527746 0.18794131266 0.18780991587 0.18833440596 
0.18939075423 0.19085737599 0.19261870794 0.19456479989 0.1965899493 0.19859260203 0.20047706022 0.20215608047 0.20355305043 
0.20460319485 0.20525453864 0.20547013567 0.20523249283 0.20454926766 0.20345763705 0.20202460165 0.2003416378 0.19851362369 
0.19664394999 0.1948201047 0.19310411351 0.19152850159 0.19009536254 0.18877655397 0.18751431661 0.18622206302 0.18478539975 
0.1830640719 0.180896065 0.17810505591 0.17451161534 0.16994731379 0.16426974681 0.15737599019 0.14921225036 0.13977825256 
0.12912587125 0.11735241428 0.1045897024 0.090990600442 0.076714958694 0.061917012903 0.046736100099 0.031291956929 0.015684883457 
3.421815561e-16 
_area 1 100 double
0 0.00060789423019 0.0024147053698 0.0053712665631 0.0094004329629 0.014403986729 0.020271216766 0.026887571159 0.034141487737 
0.041927781018 0.050146655638 0.05869835583 0.067474675583 0.076350054338 0.08517622297 0.093784228474 0.1019954766 0.10963990909 
0.11657630459 0.12270856511 0.12799352208 0.13243985787 0.13610212254 0.13907520495 0.14149081509 0.14351110591 0.14531298651 
0.14706382777 0.14889698644 0.15089422688 0.15307563129 0.15539486163 0.15773981147 0.15994106816 0.16178551113 0.16301760915 
0.16333112404 0.16241795153 0.16006422832 0.15620782637 0.15094916029 0.14453722689 0.13733964622 0.12979910788 0.12237893389 
0.11550437241 0.10950863686 0.10458812621 0.1007749278 0.097950466939 0.095907835422 0.094433097556 0.093356260919 0.092531423644 
0.091823365923 0.091142541933 0.090459095891 0.089801150151 0.089231263627 0.088745774143 0.088434290021 0.088228159601 0.088084294172 
0.087758930432 0.087114589989 0.086119322431 0.084784875322 0.083148167336 0.081276292315 0.079279341776 0.077315171151 0.075590834422 
0.074357565163 0.073661299728 0.073467677843 0.073743089482 0.074308851001 0.07489858026 0.075358978116 0.075598019317 0.075584897515 
0.075406182261 0.075152289934 0.074350790205 0.07269346736 0.070020598844 0.066242872598 0.061349319338 0.055423289564 0.048651990807 
0.041320313342 0.033784461993 0.026428306119 0.019612230479 0.013627618717 0.0086689267465 0.0048303104058 0.0021263020364 0.00052788730387 
3.4254216219e-17 
