# vtk DataFile Version 5.1
vtk output
ASCII
DATASET POLYDATA
POINTS 100 float
0.116391 0.0393995 0.656175 0.116324 0.0396227 0.65615 0.116187 0.0401183 0.655936 
0.115988 0.0408504 0.655494 0.115737 0.0417645 0.654758 0.115445 0.042794 0.653646 
0.11512 0.0438675 0.652063 0.114766 0.0449161 0.649912 0.114379 0.045881 0.647098 
0.113946 0.0467175 0.643541 0.113444 0.0473988 0.63918 0.112838 0.0479159 0.633979 
0.112085 0.0482754 0.627931 0.111132 0.0484957 0.621061 0.109922 0.0486009 0.61342 
0.108395 0.0486154 0.605086 0.106492 0.0485585 0.596159 0.104156 0.0484403 0.586745 
0.101338 0.04826 0.576959 0.0979984 0.0480061 0.566907 0.0941088 0.0476591 0.556682 
0.0896537 0.0471958 0.546354 0.0846317 0.0465948 0.535969 0.079056 0.0458422 0.525541 
0.0729544 0.0449366 0.515056 0.0663688 0.0438925 0.504471 0.0593542 0.0427415 0.493723 
0.0519772 0.0415315 0.48273 0.0443131 0.0403227 0.471403 0.0364434 0.0391824 0.459655 
0.0284517 0.0381784 0.447405 0.0204196 0.0373717 0.434584 0.0124215 0.0368109 0.421147 
0.00452034 0.0365266 0.407065 -0.00323723 0.0365296 0.392334 -0.010824 0.0368111 0.376966 
-0.0182341 0.0373448 0.360986 -0.0254833 0.0380923 0.344432 -0.0326067 0.0390091 0.327338 
-0.0396535 0.0400513 0.309739 -0.046681 0.0411821 0.291657 -0.053745 0.0423761 0.273104 
-0.06089 0.0436223 0.254074 -0.0681394 0.0449236 0.234551 -0.0754857 0.0462946 0.214505 
-0.0828835 0.0477564 0.193901 -0.0902454 0.0493305 0.172706 -0.0974412 0.0510323 0.150891 
-0.104302 0.0528643 0.128439 -0.11063 0.0548121 0.105353 -0.116206 0.0568422 0.0816575 
-0.120812 0.0589022 0.0574008 -0.124239 0.0609251 0.0326543 -0.126312 0.0628345 0.00751007 
-0.126898 0.0645533 -0.0179233 -0.125923 0.0660112 -0.0435269 -0.123375 0.0671531 -0.0691779 
-0.119311 0.0679451 -0.0947564 -0.113845 0.0683779 -0.120151 -0.107146 0.0684673 -0.145266 
-0.0994206 0.0682506 -0.17002 -0.0908945 0.0677812 -0.194353 -0.0817962 0.0671199 -0.218223 
-0.0723379 0.0663255 -0.241605 -0.0627005 0.0654457 -0.264488 -0.053022 0.0645094 -0.286873 
-0.0433917 0.0635222 -0.308767 -0.0338503 0.0624648 -0.330179 -0.0243949 0.0612953 -0.35112 
-0.0149899 0.0599557 -0.371597 -0.00558032 0.0583808 -0.391615 0.00389231 0.0565088 -0.411172 
0.0134751 0.0542924 -0.430265 0.0231906 0.0517089 -0.448882 0.0330279 0.048767 -0.467014 
0.0429382 0.0455107 -0.484643 0.0528362 0.0420181 -0.501752 0.0626062 0.0383963 -0.518321 
0.0721128 0.0347726 -0.534324 0.0812145 0.0312822 -0.549734 0.0897787 0.0280553 -0.564519 
0.0976947 0.0252039 -0.57864 0.104886 0.0228111 -0.592055 0.111317 0.0209229 -0.60472 
0.116996 0.0195449 -0.616588 0.121971 0.0186431 -0.627613 0.126324 0.0181498 -0.637753 
0.130158 0.0179729 -0.646976 0.133585 0.0180071 -0.65526 0.136709 0.0181471 -0.662596 
0.139618 0.0182993 -0.668994 0.142368 0.0183913 -0.674479 0.144982 0.0183787 -0.679092 
0.147449 0.0182465 -0.682889 0.149723 0.0180077 -0.685932 0.151737 0.0176972 -0.68829 
0.153411 0.0173633 -0.690032 0.154667 0.0170573 -0.691216 0.155436 0.0168244 -0.691891 
0.155675 0.0166944 -0.692087 
LINES 2 100
OFFSETS vtktypeint64
0 100 
CONNECTIVITY vtktypeint64
0 1 2 3 4 5 6 7 8 
9 10 11 12 13 14 15 16 17 
18 19 20 21 22 23 24 25 26 
27 28 29 30 31 32 33 34 35 
36 37 38 39 40 41 42 43 44 
45 46 47 48 49 50 51 52 53 
54 55 56 57 58 59 60 61 62 
63 64 65 66 67 68 69 70 71 
72 73 74 75 76 77 78 79 80 
81 82 83 84 85 86 87 88 89 
90 91 92 93 94 95 96 97 98 
99 
POINT_DATA 100
FIELD FieldData 3
_theta 1 100 double
0 0.031733259127 0.063466518254 0.095199777382 0.12693303651 0.15866629564 0.19039955476 0.22213281389 0.25386607302 
0.28559933214 0.31733259127 0.3490658504 0.38079910953 0.41253236865 0.44426562778 0.47599888691 0.50773214603 0.53946540516 
0.57119866429 0.60293192342 0.63466518254 0.66639844167 0.6981317008 0.72986495992 0.76159821905 0.79333147818 0.82506473731 
0.85679799643 0.88853125556 0.92026451469 0.95199777382 0.98373103294 1.0154642921 1.0471975512 1.0789308103 1.1106640695 
1.1423973286 1.1741305877 1.2058638468 1.237597106 1.2693303651 1.3010636242 1.3327968833 1.3645301425 1.3962634016 
1.4279966607 1.4597299198 1.491463179 1.5231964381 1.5549296972 1.5866629564 1.6183962155 1.6501294746 1.6818627337 
1.7135959929 1.745329252 1.7770625111 1.8087957702 1.8405290294 1.8722622885 1.9039955476 1.9357288068 1.9674620659 
1.999195325 2.0309285841 2.0626618433 2.0943951024 2.1261283615 2.1578616206 2.1895948798 2.2213281389 2.253061398 
2.2847946572 2.3165279163 2.3482611754 2.3799944345 2.4117276937 2.4434609528 2.4751942119 2.506927471 2.5386607302 
2.5703939893 2.6021272484 2.6338605076 2.6655937667 2.6973270258 2.7290602849 2.7607935441 2.7925268032 2.8242600623 
2.8559933214 2.8877265806 2.9194598397 2.9511930988 2.982926358 3.0146596171 3.0463928762 3.0781261353 3.1098593945 
3.1415926536 
_radius 1 100 double
6.9388939039e-17 0.01525175322 0.030482953233 0.045659487094 0.060732669621 0.075635055455 0.090279426024 0.10456160056 0.11836729775 
0.13158263519 0.14410703241 0.15586648454 0.16682470896 0.17698977477 0.1864145147 0.19519010336 0.20343341794 0.21126997053 
0.21881511057 0.22615660537 0.23334144298 0.24036881947 0.24719008541 0.25371531112 0.25982530019 0.26538733224 0.27027256561 
0.27437285995 0.27761483963 0.27996936224 0.28145516022 0.28213620008 0.28211313697 0.28151002813 0.28045811361 0.2790788823 
0.27746873238 0.27568728781 0.27375092198 0.27163240729 0.26926694939 0.26656417051 0.26342482169 0.25976016957 0.25551131279 
0.25066539827 0.24526600587 0.23941585681 0.23327131698 0.22702963086 0.22091109328 0.21513910633 0.20992105342 0.20543215851 
0.20180328244 0.19911246031 0.19737943569 0.19656280093 0.19656045378 0.19721517635 0.19832710065 0.19967308127 0.20103045454 
0.20220104943 0.20303146632 0.2034269452 0.20335755405 0.20285643703 0.20201059561 0.2009454113 0.19980486832 0.19872995063 
0.19783779435 0.19720394672 0.1968496696 0.19673565462 0.19676271741 0.19677904103 0.19659259768 0.19598684914 0.19473787603 
0.19263151488 0.18947950999 0.18513386327 0.1794984901 0.17253711442 0.16427625266 0.15480231446 0.14425239848 0.13279928955 
0.12063233563 0.10793702354 0.094876798314 0.081580585127 0.068138324086 0.054604740995 0.041009186581 0.02736766349 0.013692936115 
1.8706285342e-15 
_area 1 100 double
0 0.00059747810998 0.0023788075753 0.0053113594559 0.0093425224199 0.014400937363 0.020396539277 0.027219726657 0.034741373635 
0.042815848877 0.051288153111 0.060004532502 0.068825013859 0.07763658257 0.086365443964 0.094984745605 0.10351275987 0.11199971315 
0.12050810631 0.12909486341 0.13780038578 0.1466435876 0.15561809901 0.16468393774 0.17375172621 0.18266517336 0.19119728387 
0.19907234103 0.20600845745 0.21176433406 0.21617712157 0.21918511257 0.22083262421 0.22125706685 0.22066145718 0.21927831269 
0.21733183621 0.21500439082 0.2124109815 0.20958369287 0.20646907006 0.2029431292 0.19884479482 0.19401997297 0.18836442359 
0.1818566867 0.17457653838 0.16670636883 0.15851420855 0.150319984 0.14245080914 0.13519492645 0.1287651099 0.12327935755 
0.11876040178 0.11514997169 0.11233185064 0.11015886511 0.10848099919 0.10717094313 0.10613775259 0.10531668077 0.10463870444 
0.10400954512 0.10331907589 0.10246505762 0.10137137554 0.10000073163 0.098365511622 0.096533339569 0.094624023799 0.09290222955 
0.091440658235 0.090383502501 0.089867823606 0.090023139761 0.090860357813 0.092099303113 0.093411581244 0.094458750709 0.094897378107 
0.094408083118 0.092728600815 0.089685406669 0.085217454158 0.079386776403 0.07237319239 0.06445360883 0.055969645699 0.047289579758 
0.038771190117 0.030730942727 0.023422719022 0.017026993774 0.011649798291 0.0073301501579 0.0040545026094 0.0017765489224 0.00043992382176 
5.6405611409e-17 
