# vtk DataFile Version 5.1
vtk output
ASCII
DATASET POLYDATA
POINTS 100 float
0.107668 0.0520194 0.626037 0.107785 0.0522457 0.626048 0.108199 0.0527462 0.625934 
0.108844 0.0534903 0.625655 0.109617 0.0544301 0.625152 0.110392 0.0555034 0.624347 
0.111032 0.056638 0.623149 0.111405 0.0577568 0.621463 0.111397 0.0587824 0.619198 
0.110922 0.0596428 0.616269 0.109932 0.060276 0.612606 0.108415 0.0606343 0.608157 
0.106396 0.0606869 0.602891 0.103926 0.060422 0.596796 0.101075 0.0598469 0.589883 
0.0979169 0.0589864 0.582179 0.0945226 0.0578805 0.573723 0.0909448 0.05658 0.564568 
0.087214 0.0551421 0.554771 0.0833339 0.0536251 0.544388 0.0792832 0.0520832 0.533479 
0.0750195 0.0505625 0.522095 0.0704871 0.0490972 0.510286 0.0656265 0.0477082 0.498095 
0.0603836 0.0464024 0.485559 0.0547178 0.0451746 0.472713 0.0486084 0.04401 0.459586 
0.0420573 0.042889 0.446206 0.0350886 0.0417914 0.432599 0.0277451 0.0407019 0.418784 
0.0200829 0.0396141 0.404779 0.0121639 0.0385342 0.390594 0.00404974 0.0374825 0.376229 
-0.00420415 0.0364936 0.361672 -0.0125513 0.0356141 0.346898 -0.0209544 0.0348985 0.331867 
-0.0293828 0.0344048 0.316524 -0.0378065 0.0341872 0.300798 -0.04619 0.0342909 0.284611 
-0.0544845 0.0347457 0.267877 -0.0626217 0.0355621 0.250514 -0.0705102 0.0367286 0.232445 
-0.0780349 0.038212 0.21361 -0.0850606 0.0399592 0.19397 -0.0914392 0.041902 0.173514 
-0.0970209 0.0439636 0.152264 -0.101667 0.046066 0.130274 -0.105263 0.0481379 0.107628 
-0.107731 0.050122 0.0844395 -0.109042 0.051981 0.0608435 -0.109215 0.0537011 0.036987 
-0.108325 0.0552929 0.0130208 -0.106491 0.0567899 -0.0109102 -0.103868 0.0582431 -0.0346766 
-0.100635 0.0597145 -0.0581713 -0.0969739 0.0612682 -0.0813149 -0.0930569 0.0629607 -0.104058 
-0.0890279 0.0648321 -0.126382 -0.0849925 0.0668983 -0.148291 -0.0810105 0.0691453 -0.169813 
-0.0770944 0.0715269 -0.190985 -0.0732144 0.0739658 -0.211851 -0.0693072 0.0763575 -0.232448 
-0.06529 0.078578 -0.252804 -0.0610749 0.0804935 -0.272927 -0.0565841 0.0819718 -0.292808 
-0.0517633 0.0828939 -0.312416 -0.0465908 0.0831652 -0.331704 -0.0410821 0.0827246 -0.350613 
-0.0352896 0.0815509 -0.369078 -0.029297 0.0796656 -0.387034 -0.02321 0.0771328 -0.404427 
-0.0171443 0.0740542 -0.421216 -0.0112131 0.0705618 -0.43738 -0.00551542 0.0668078 -0.452918 
-0.000126997 0.0629525 -0.467849 0.00490458 0.0591527 -0.482206 0.00956071 0.0555492 -0.496034 
0.0138482 0.0522576 -0.50938 0.0177921 0.0493604 -0.522286 0.0214262 0.0469028 -0.534783 
0.024783 0.0448916 -0.546882 0.0278843 0.043298 -0.558574 0.0307345 0.0420627 -0.569825 
0.0333178 0.041104 -0.580584 0.0355988 0.0403274 -0.590778 0.0375281 0.0396357 -0.600331 
0.0390507 0.0389386 -0.60916 0.040117 0.0381621 -0.617195 0.0406936 0.0372546 -0.624376 
0.0407738 0.0361916 -0.630671 0.0403842 0.0349771 -0.63607 0.0395881 0.0336418 -0.640592 
0.0384836 0.03224 -0.644282 0.0371966 0.0308423 -0.647204 0.0358702 0.0295291 -0.649435 
0.0346504 0.0283814 -0.651057 0.0336717 0.0274728 -0.652147 0.033042 0.0268621 -0.652765 
0.032831 0.0265873 -0.652952 
LINES 2 100
OFFSETS vtktypeint64
0 100 
CONNECTIVITY vtktypeint64
0 1 2 3 4 5 6 7 8 
9 10 11 12 13 14 15 16 17 
18 19 20 21 22 23 24 25 26 
27 28 29 30 31 32 33 34 35 
36 37 38 39 40 41 42 43 44 
45 46 47 48 49 50 51 52 53 
54 55 56 57 58 59 60 61 62 
63 64 65 66 67 68 69 70 71 
72 73 74 75 76 77 78 79 80 
81 82 83 84 85 86 87 88 89 
90 91 92 93 94 95 96 97 98 
99 
POINT_DATA 100
FIELD FieldData 3
_theta 1 100 double
0 0.031733259127 0.063466518254 0.095199777382 0.12693303651 0.15866629564 0.19039955476 0.22213281389 0.25386607302 
0.28559933214 0.31733259127 0.3490658504 0.38079910953 0.41253236865 0.44426562778 0.47599888691 0.50773214603 0.53946540516 
0.57119866429 0.60293192342 0.63466518254 0.66639844167 0.6981317008 0.72986495992 0.76159821905 0.79333147818 0.82506473731 
0.85679799643 0.88853125556 0.92026451469 0.95199777382 0.98373103294 1.0154642921 1.0471975512 1.0789308103 1.1106640695 
1.1423973286 1.1741305877 1.2058638468 1.237597106 1.2693303651 1.3010636242 1.3327968833 1.3645301425 1.3962634016 
1.4279966607 1.4597299198 1.491463179 1.5231964381 1.5549296972 1.5866629564 1.6183962155 1.6501294746 1.6818627337 
1.7135959929 1.745329252 1.7770625111 1.8087957702 1.8405290294 1.8722622885 1.9039955476 1.9357288068 1.9674620659 
1.999195325 2.0309285841 2.0626618433 2.0943951024 2.1261283615 2.1578616206 2.1895948798 2.2213281389 2.253061398 
2.2847946572 2.3165279163 2.3482611754 2.3799944345 2.4117276937 2.4434609528 2.4751942119 2.506927471 2.5386607302 
2.5703939893 2.6021272484 2.6338605076 2.6655937667 2.6973270258 2.7290602849 2.7607935441 2.7925268032 2.8242600623 
2.8559933214 2.8877265806 2.9194598397 2.9511930988 2.982926358 3.0146596171 3.0463928762 3.0781261353 3.1098593945 
3.1415926536 
_radius 1 100 double
1.0054454872e-15 0.014732027682 0.029320947701 0.043633801727 0.057563835224 0.071037586226 0.084016119684 0.096490639791 0.1084738977 
0.11998952431 0.13106145903 0.14170511046 0.15192111266 0.16169190953 0.17098110391 0.17973548453 0.18788966882 0.19537317046 
0.20211936712 0.20807541018 0.21321175158 0.21752979682 0.22106627222 0.22389320602 0.22611293952 0.22784829018 0.22922883277 
0.23037509925 0.23138307537 0.23231145361 0.23317362543 0.23393554247 0.23451965689 0.23481439938 0.23468812572 0.23400609985 
0.23264882204 0.23052984524 0.22761118408 0.22391454627 0.21952692458 0.21459955965 0.20933986308 0.20399651112 0.19883857421 
0.19413033188 0.19010447619 0.18693764881 0.18473306286 0.18351424711 0.18323110794 0.18377550569 0.18500065514 0.1867386123 
0.18881275722 0.19104591012 0.19326738579 0.19532216324 0.19708252171 0.19845938237 0.19940964569 0.1999371308 0.20008677633 
0.19993342456 0.19956761807 0.19908140695 0.19855685852 0.1980586238 0.19763028198 0.19729326772 0.19704719284 0.19687082324 
0.19672343611 0.19654659737 0.19626652744 0.19579718374 0.19504405452 0.1939085099 0.19229243401 0.19010278183 0.18725568179 
0.18367976495 0.1793185391 0.1741317988 0.16809620443 0.16120522508 0.15346861541 0.14491151423 0.13557316522 0.12550521157 
0.11476953058 0.10343564417 0.091577842773 0.079272260939 0.066594210939 0.05361608483 0.040406058573 0.027027684847 0.013540293741 
1.3068626009e-15 
_area 1 100 double
0 0.00057194713386 0.0022663336566 0.0050221593658 0.0087481593078 0.013335844645 0.018673472959 0.024658147946 0.031203739304 
0.038242989082 0.045723025276 0.053594830309 0.061799066461 0.070252253762 0.078837491991 0.087402571169 0.095766466717 0.10373383082 
0.11111619112 0.11775753487 0.12356023674 0.12850500338 0.13265698233 0.13615200916 0.13916415844 0.14186549918 0.14439311857 
0.14683275881 0.14921832798 0.15153991161 0.15375221066 0.15577864701 0.15751097028 0.15880813682 0.1595000786 0.15940084165 
0.15833207529 0.15615388265 0.15279708353 0.14828941147 0.1427683093 0.13647542141 0.12973263712 0.12290497068 0.11635891268 
0.11042401419 0.1053609238 0.10133636799 0.09841012909 0.096538542819 0.095590423483 0.095379632503 0.095702926757 0.096364215675 
0.097185435573 0.098010441881 0.098710779006 0.099194809123 0.099403881905 0.099293119818 0.098833405936 0.098036902571 0.096966486312 
0.095720842817 0.094410312431 0.093136108904 0.091980278943 0.091007945549 0.090275214767 0.089831252864 0.089706742362 0.089902048883 
0.090398710812 0.09116642787 0.092117968772 0.093091062835 0.09390636957 0.094390467066 0.094380399621 0.093729433527 0.092313901512 
0.090040449585 0.086853367134 0.082741221441 0.077741358966 0.071940664802 0.065471597541 0.0585036577 0.05123152434 0.043861687894 
0.036599442321 0.02963774058 0.023148880417 0.017279423263 0.012148236712 0.0078471511985 0.0044434910145 0.0019836825355 0.00049718090079 
2.5237575613e-17 
