# vtk DataFile Version 5.1
vtk output
ASCII
DATASET POLYDATA
POINTS 100 float
0.143961 0.0377722 0.68333 0.143923 0.0379583 0.683275 0.143896 0.0383589 0.682925 
0.143861 0.0389493 0.682254 0.143789 0.0396916 0.68122 0.143645 0.0405395 0.679766 
0.143393 0.0414425 0.677822 0.142998 0.0423511 0.675308 0.142431 0.0432215 0.672136 
0.14167 0.0440189 0.66822 0.140703 0.0447201 0.663476 0.13952 0.0453134 0.657837 
0.138112 0.0457982 0.651253 0.136469 0.0461819 0.643702 0.134571 0.0464767 0.635193 
0.132387 0.0466959 0.625772 0.129871 0.0468498 0.615516 0.126965 0.0469432 0.604535 
0.123599 0.0469732 0.592966 0.119698 0.0469288 0.580958 0.115193 0.0467925 0.568666 
0.110025 0.046542 0.556237 0.104158 0.0461542 0.543798 0.0975827 0.0456086 0.531447 
0.0903282 0.0448917 0.519244 0.0824575 0.0439998 0.507211 0.0740686 0.0429416 0.495326 
0.0652867 0.0417393 0.483533 0.0562548 0.0404276 0.471747 0.0471204 0.0390529 0.459861 
0.0380223 0.0376694 0.447764 0.0290764 0.0363364 0.435342 0.0203654 0.0351138 0.422496 
0.0119311 0.0340588 0.409143 0.00377189 0.0332228 0.395219 -0.00415403 0.032649 0.380681 
-0.0119208 0.0323714 0.365505 -0.0196219 0.0324144 0.349673 -0.0273546 0.0327933 0.333175 
-0.0352026 0.0335153 0.315996 -0.0432202 0.0345807 0.298115 -0.0514185 0.0359839 0.279498 
-0.0597564 0.0377141 0.260103 -0.0681379 0.039755 0.23988 -0.0764148 0.0420848 0.218781 
-0.084396 0.0446753 0.196767 -0.0918623 0.0474906 0.173817 -0.0985845 0.0504869 0.149943 
-0.104343 0.053612 0.12519 -0.108947 0.0568063 0.0996419 -0.112253 0.0600044 0.0734252 
-0.114174 0.0631375 0.0466983 -0.114688 0.0661377 0.0196449 -0.113841 0.0689416 -0.00753939 
-0.111734 0.0714942 -0.0346619 -0.108517 0.073753 -0.061548 -0.104374 0.07569 -0.0880538 
-0.0994995 0.0772929 -0.114077 -0.094088 0.0785639 -0.139561 -0.0883123 0.0795173 -0.164494 
-0.0823136 0.0801749 -0.188908 -0.0761922 0.0805606 -0.21286 -0.0700048 0.0806939 -0.236425 
-0.0637667 0.0805847 -0.259678 -0.057458 0.0802277 -0.282676 -0.0510335 0.0795999 -0.30545 
-0.0444346 0.07866 -0.327991 -0.037601 0.07735 -0.35025 -0.0304819 0.0756002 -0.37214 
-0.0230441 0.0733362 -0.393544 -0.0152783 0.070487 -0.414324 -0.00720036 0.0669944 -0.434342 
0.0011494 0.062822 -0.453473 0.00971042 0.0579622 -0.47162 0.0184076 0.0524418 -0.488727 
0.0271582 0.0463237 -0.504785 0.0358782 0.0397055 -0.519833 0.0444882 0.0327155 -0.533953 
0.0529171 0.0255041 -0.547257 0.0611044 0.0182349 -0.559877 0.0690007 0.0110732 -0.571944 
0.0765661 0.00417471 -0.583574 0.0837679 -0.00232404 -0.594852 0.0905786 -0.0083142 -0.605823 
0.0969731 -0.0137197 -0.616486 0.102927 -0.0184994 -0.626796 0.108419 -0.0226459 -0.636669 
0.113425 -0.0261817 -0.645997 0.11793 -0.0291528 -0.654662 0.121921 -0.0316212 -0.662549 
0.125395 -0.0336567 -0.669565 0.128359 -0.0353295 -0.675648 0.130833 -0.0367038 -0.680776 
0.132846 -0.0378336 -0.684967 0.134436 -0.0387603 -0.688277 0.135649 -0.0395127 -0.690787 
0.13653 -0.040108 -0.692595 0.137123 -0.0405548 -0.693798 0.137461 -0.0408561 -0.694475 
0.137567 -0.0410118 -0.694683 
LINES 2 100
OFFSETS vtktypeint64
0 100 
CONNECTIVITY vtktypeint64
0 1 2 3 4 5 6 7 8 
9 10 11 12 13 14 15 16 17 
18 19 20 21 22 23 24 25 26 
27 28 29 30 31 32 33 34 35 
36 37 38 39 40 41 42 43 44 
45 46 47 48 49 50 51 52 53 
54 55 56 57 58 59 60 61 62 
63 64 65 66 67 68 69 70 71 
72 73 74 75 76 77 78 79 80 
81 82 83 84 85 86 87 88 89 
90 91 92 93 94 95 96 97 98 
99 
POINT_DATA 100
FIELD FieldData 3
_theta 1 100 double
0 0.031733259127 0.063466518254 0.095199777382 0.12693303651 0.15866629564 0.19039955476 0.22213281389 0.25386607302 
0.28559933214 0.31733259127 0.3490658504 0.38079910953 0.41253236865 0.44426562778 0.47599888691 0.50773214603 0.53946540516 
0.57119866429 0.60293192342 0.63466518254 0.66639844167 0.6981317008 0.72986495992 0.76159821905 0.79333147818 0.82506473731 
0.85679799643 0.88853125556 0.92026451469 0.95199777382 0.98373103294 1.0154642921 1.0471975512 1.0789308103 1.1106640695 
1.1423973286 1.1741305877 1.2058638468 1.237597106 1.2693303651 1.3010636242 1.3327968833 1.3645301425 1.3962634016 
1.4279966607 1.4597299198 1.491463179 1.5231964381 1.5549296972 1.5866629564 1.6183962155 1.6501294746 1.6818627337 
1.7135959929 1.745329252 1.7770625111 1.8087957702 1.8405290294 1.8722622885 1.9039955476 1.9357288068 1.9674620659 
1.999195325 2.0309285841 2.0626618433 2.0943951024 2.1261283615 2.1578616206 2.1895948798 2.2213281389 2.253061398 
2.2847946572 2.3165279163 2.3482611754 2.3799944345 2.4117276937 2.4434609528 2.4751942119 2.506927471 2.5386607302 
2.5703939893 2.6021272484 2.6338605076 2.6655937667 2.6973270258 2.7290602849 2.7607935441 2.7925268032 2.8242600623 
2.8559933214 2.8877265806 2.9194598397 2.9511930988 2.982926358 3.0146596171 3.0463928762 3.0781261353 3.1098593945 
3.1415926536 
_radius 1 100 double
3.0022245319e-16 0.015556046333 0.030956406675 0.046050567449 0.060707065184 0.074820483943 0.088315454105 0.10114721684 0.11329878905 
0.1247752804 0.13559639701 0.14578850539 0.15537770592 0.16438509026 0.17282474297 0.18070425609 0.18802685603 0.19479399862 
0.20100758425 0.20667158985 0.2117935056 0.21638613824 0.22047000389 0.22407588014 0.22724645791 0.23003573634 0.232505026 
0.23471520676 0.23671608749 0.23853498079 0.24016741631 0.2415727776 0.24267643337 0.24337810335 0.24356459545 0.2431243283 
0.24196127644 0.24000674502 0.23722822739 0.23363522897 0.22928224979 0.22426911845 0.21873864632 0.21287126976 0.20687615687 
0.20097836921 0.19540224617 0.19035228077 0.18599418734 0.18243997611 0.17974065376 0.17788809254 0.17682443401 0.1764550185 
0.17666070549 0.17730733762 0.1782525281 0.17935150217 0.18046379317 0.18146144903 0.1822379279 0.18271601309 0.18285320223 
0.18264371765 0.18211695188 0.18133257373 0.18037278538 0.17933245518 0.17830804009 0.17738636968 0.1766345586 0.17609243541 
0.17576861611 0.17564056994 0.17565798781 0.17574797299 0.17582042458 0.17577251893 0.17549209689 0.17486055955 0.17375618908 
0.172058551 0.16965400317 0.16644168905 0.16233903406 0.15728580764 0.15124617334 0.14420863882 0.13618425374 0.12720367626 
0.11731380298 0.10657455921 0.095056236052 0.08283751494 0.070004109537 0.056647826903 0.042865814502 0.028759797441 0.014435184604 
9.0167171652e-16 
_area 1 100 double
0 0.0005795267133 0.0022953210733 0.0050817387381 0.0088380802413 0.013440401768 0.018755348892 0.024653276718 0.031017788027 
0.037749558848 0.044763858057 0.051983251495 0.059329080857 0.066716287295 0.074054776984 0.081257016919 0.088248024316 0.094972710398 
0.10139744783 0.10750658024 0.11329781679 0.11878061709 0.12397849004 0.12893196513 0.13369694737 0.13833480859 0.14289517887 
0.14739720259 0.1518162014 0.15607902655 0.16006694661 0.16362404657 0.16657088034 0.16872396052 0.16991969606 0.17003695089 
0.16900769512 0.16680664441 0.16343114778 0.15890338714 0.15329555545 0.14675026188 0.13948771565 0.13180159085 0.12404025024 
0.11656883932 0.1097158322 0.10372085177 0.098706599536 0.094684005933 0.091576506972 0.089245872604 0.087523242921 0.086250957379 
0.085311080796 0.084627714502 0.084151125548 0.083826404981 0.083567662561 0.08326292816 0.082802309594 0.082105352545 0.081133955448 
0.079888945841 0.078399823795 0.076724120028 0.074950558198 0.073190040773 0.071558385343 0.070162254511 0.069093044246 0.068431718162 
0.068361015908 0.068890318884 0.069619037876 0.070417129428 0.071192110814 0.071863811006 0.072351393064 0.072564769322 0.072401607283 
0.071750701748 0.070500960058 0.068554161255 0.065839149913 0.062324972055 0.058030543225 0.053028855318 0.047444634148 0.041445700442 
0.035229669485 0.029008507668 0.022993525966 0.017382744649 0.012351642255 0.0080475193075 0.0045871985078 0.0020574351343 0.00051710351395 
5.3056048541e-17 
