# vtk DataFile Version 5.1
vtk output
ASCII
DATASET POLYDATA
POINTS 100 float
0.0865502 0.0171518 0.641773 0.0865593 0.017412 0.641298 0.0866209 0.0180359 0.639775 
0.0866982 0.0189615 0.637273 0.0867364 0.0200946 0.633894 0.0866714 0.021322 0.629765 
0.0864389 0.0225259 0.625023 0.0859854 0.0235995 0.619797 0.0852755 0.0244607 0.614198 
0.0842979 0.0250623 0.608303 0.0830669 0.0253976 0.60215 0.0816201 0.0255002 0.595741 
0.0800122 0.0254382 0.589038 0.0783056 0.0253041 0.58198 0.0765594 0.0252018 0.574487 
0.0748186 0.0252309 0.566481 0.0731041 0.0254736 0.557897 0.0714064 0.0259827 0.548691 
0.069683 0.0267746 0.538855 0.0678603 0.0278267 0.528415 0.0658401 0.0290808 0.517431 
0.0635096 0.0304506 0.505991 0.0607543 0.0318332 0.494202 0.0574711 0.0331225 0.482174 
0.0535807 0.034223 0.470011 0.0490373 0.0350612 0.457795 0.0438345 0.0355952 0.44558 
0.0380065 0.0358183 0.433381 0.0316235 0.03576 0.421179 0.0247843 0.0354808 0.40892 
0.0176042 0.0350647 0.396524 0.0102022 0.0346087 0.383896 0.00268758 0.0342123 0.370934 
-0.00485093 0.0339669 0.357546 -0.0123529 0.0339485 0.343655 -0.0197892 0.0342123 0.329207 
-0.0271605 0.0347919 0.314176 -0.0344899 0.0357004 0.298559 -0.0418134 0.0369358 0.282376 
-0.0491662 0.0384858 0.265659 -0.0565696 0.0403346 0.248445 -0.0640184 0.0424674 0.230766 
-0.0714719 0.0448732 0.212644 -0.0788481 0.047545 0.19408 -0.0860244 0.050477 0.17506 
-0.0928424 0.0536596 0.155551 -0.0991179 0.0570737 0.135509 -0.104654 0.0606836 0.114888 
-0.109258 0.064433 0.0936464 -0.112755 0.0682424 0.0717597 -0.115003 0.0720102 0.0492278 
-0.115903 0.0756186 0.0260816 -0.11541 0.0789419 0.00238511 -0.113527 0.0818585 -0.0217655 
-0.110311 0.0842637 -0.0462465 -0.105858 0.0860824 -0.0709153 -0.100299 0.0872793 -0.0956202 
-0.0937848 0.0878648 -0.120212 -0.0864758 0.087896 -0.144553 -0.0785299 0.0874715 -0.168528 
-0.0700948 0.0867203 -0.192049 -0.0613012 0.0857866 -0.215056 -0.0522608 0.0848108 -0.237519 
-0.0430657 0.0839103 -0.259431 -0.0337905 0.0831623 -0.280798 -0.0244955 0.0825901 -0.301639 
-0.0152298 0.0821562 -0.321967 -0.0060344 0.0817624 -0.341788 0.00305694 0.0812582 -0.361093 
0.0120173 0.0804558 -0.379855 0.0208284 0.0791508 -0.398032 0.0294831 0.0771461 -0.415568 
0.0379875 0.0742765 -0.432397 0.0463636 0.0704297 -0.448456 0.0546488 0.0655626 -0.463687 
0.0628946 0.0597104 -0.478048 0.0711617 0.0529864 -0.491517 0.0795131 0.045573 -0.504096 
0.0880058 0.0377061 -0.515807 0.0966806 0.0296521 -0.526698 0.105554 0.0216826 -0.536827 
0.114608 0.0140492 -0.546267 0.123789 0.00696051 -0.555087 0.133006 0.000565463 -0.563355 
0.142131 -0.00505621 -0.571127 0.151013 -0.00989495 -0.578442 0.159486 -0.0140042 -0.585323 
0.167383 -0.017486 -0.591775 0.174553 -0.020472 -0.597791 0.180876 -0.023102 -0.603352 
0.186273 -0.025503 -0.608431 0.190714 -0.0277725 -0.613005 0.194221 -0.0299662 -0.617052 
0.196865 -0.0320938 -0.620555 0.198755 -0.034121 -0.623506 0.200025 -0.0359788 -0.625905 
0.200821 -0.0375773 -0.627756 0.201277 -0.0388225 -0.629068 0.201505 -0.0396326 -0.629849 
0.201576 -0.0399523 -0.630106 
LINES 2 100
OFFSETS vtktypeint64
0 100 
CONNECTIVITY vtktypeint64
0 1 2 3 4 5 6 7 8 
9 10 11 12 13 14 15 16 17 
18 19 20 21 22 23 24 25 26 
27 28 29 30 31 32 33 34 35 
36 37 38 39 40 41 42 43 44 
45 46 47 48 49 50 51 52 53 
54 55 56 57 58 59 60 61 62 
63 64 65 66 67 68 69 70 71 
72 73 74 75 76 77 78 79 80 
81 82 83 84 85 86 87 88 89 
90 91 92 93 94 95 96 97 98 
99 
POINT_DATA 100
FIELD FieldData 3
_theta 1 100 double
0 0.031733259127 0.063466518254 0.095199777382 0.12693303651 0.15866629564 0.19039955476 0.22213281389 0.25386607302 
0.28559933214 0.31733259127 0.3490658504 0.38079910953 0.41253236865 0.44426562778 0.47599888691 0.50773214603 0.53946540516 
0.57119866429 0.60293192342 0.63466518254 0.66639844167 0.6981317008 0.72986495992 0.76159821905 0.79333147818 0.82506473731 
0.85679799643 0.88853125556 0.92026451469 0.95199777382 0.98373103294 1.0154642921 1.0471975512 1.0789308103 1.1106640695 
1.1423973286 1.1741305877 1.2058638468 1.237597106 1.2693303651 1.3010636242 1.3327968833 1.3645301425 1.3962634016 
1.4279966607 1.4597299198 1.491463179 1.5231964381 1.5549296972 1.5866629564 1.6183962155 1.6501294746 1.6818627337 
1.7135959929 1.745329252 1.7770625111 1.8087957702 1.8405290294 1.8722622885 1.9039955476 1.9357288068 1.9674620659 
1.999195325 2.0309285841 2.0626618433 2.0943951024 2.1261283615 2.1578616206 2.1895948798 2.2213281389 2.253061398 
2.2847946572 2.3165279163 2.3482611754 2.3799944345 2.4117276937 2.4434609528 2.4751942119 2.506927471 2.5386607302 
2.5703939893 2.6021272484 2.6338605076 2.6655937667 2.6973270258 2.7290602849 2.7607935441 2.7925268032 2.8242600623 
2.8559933214 2.8877265806 2.9194598397 2.9511930988 2.982926358 3.0146596171 3.0463928762 3.0781261353 3.1098593945 
3.1415926536 
_radius 1 100 double
1.4446945413e-15 0.01327786776 0.026552915532 0.03980775697 0.053013248075 0.066126653739 0.07909279627 0.091847424736 0.10432147922 
0.11644493909 0.1281494837 0.13936995818 0.1500452553 0.16011944689 0.16954379674 0.1782798069 0.1863029004 0.19360590536 
0.20020130721 0.20612135573 0.21141556102 0.21614578185 0.22037978404 0.22418456562 0.22762072902 0.23073871098 0.23357692964 
0.23616119775 0.23850443619 0.2406059838 0.24245048248 0.24400700336 0.24522937751 0.24605847415 0.24642659213 0.24626349682 
0.24550321915 0.24409067126 0.24198738955 0.23917612927 0.23566440521 0.23148723903 0.22670926986 0.22142604609 0.21576387224 
0.20987721848 0.2039426195 0.19814839815 0.1926805849 0.1877069629 0.18336264711 0.17974094279 0.17689165461 0.17482604998 
0.17352500025 0.17294595583 0.17302571299 0.17367867345 0.17479317033 0.17623002845 0.17782695688 0.1794098694 0.18080919402 
0.18187731116 0.18250317904 0.18262154679 0.18221600772 0.18131669926 0.17999425193 0.17835155529 0.17651428162 0.17462030846 
0.17280768723 0.17120097362 0.16989658301 0.16894891466 0.16835963397 0.16807232852 0.16797387604 0.1679026145 0.1676620853 
0.16703805887 0.16581612378 0.16379748664 0.16081156593 0.15672498895 0.15144728605 0.14493376456 0.13718586663 0.12824904475 
0.11820805842 0.10717969685 0.095303235401 0.082729347052 0.069608607878 0.056081037994 0.042268181936 0.028268964308 0.014159967705 
1.1684485216e-15 
_area 1 100 double
0 0.00045819015635 0.0018200284179 0.0040484195995 0.0070850557719 0.010855347498 0.015274887079 0.020256798 0.025718406261 
0.031585057374 0.037789520194 0.044267066599 0.050947902683 0.057749676324 0.064573614675 0.07130794541 0.077840261779 0.084076641458 
0.0899621156 0.095496356897 0.1007390092 0.10579816032 0.11079594005 0.11582039475 0.12089555145 0.12598852171 0.13103653163 
0.13597162116 0.14073434028 0.14527486535 0.14954337659 0.15347538183 0.1569805123 0.15994224267 0.16222891286 0.1637086415 
0.16426087461 0.16378395749 0.16220278543 0.15947971385 0.15562798355 0.15072352977 0.14491011609 0.13839449078 0.13143122461 
0.12429823072 0.11726494233 0.11056043575 0.10435194042 0.098737152416 0.093747206419 0.089359325235 0.085519048939 0.082169431555 
0.079284540358 0.076894701299 0.075078132114 0.0739034646 0.073345946351 0.073245242166 0.073349721074 0.073407153407 0.073240387665 
0.072769732 0.071985220412 0.070914971711 0.069629636062 0.068260272729 0.066982430703 0.065959486154 0.065287029788 0.064979068052 
0.064994650748 0.065278626381 0.065783717042 0.066470389946 0.067296726894 0.068204713098 0.069106198812 0.069873951634 0.070342349915 
0.070317850218 0.069598037685 0.067999961316 0.065394907357 0.061738322636 0.057084003903 0.051580319533 0.045451886862 0.038971464437 
0.032427335831 0.026091941976 0.020197111867 0.014919523073 0.010377472523 0.0066375537478 0.0037280079577 0.0016544098031 0.00041318370924 
9.955890802e-17 
