# vtk DataFile Version 5.1
vtk output
ASCII
DATASET POLYDATA
POINTS 100 float
0.128051 0.0573564 0.714405 0.128141 0.0575069 0.714194 0.128449 0.0577812 0.713394 
0.12893 0.0581491 0.71198 0.129516 0.058566 0.709919 0.130123 0.0589793 0.707167 
0.130659 0.0593356 0.703678 0.131031 0.0595889 0.699408 0.131158 0.0597066 0.694319 
0.130973 0.0596748 0.688388 0.13043 0.0594992 0.681605 0.129499 0.0592046 0.673984 
0.128168 0.0588305 0.665558 0.126432 0.0584244 0.656381 0.124295 0.0580341 0.646527 
0.121753 0.0576997 0.636087 0.118799 0.0574457 0.625159 0.115414 0.0572764 0.613849 
0.111568 0.0571733 0.602256 0.107224 0.057096 0.590469 0.102346 0.0569866 0.578563 
0.0969019 0.0567768 0.566588 0.0908779 0.056397 0.55457 0.084282 0.0557868 0.542511 
0.0771514 0.0549034 0.530388 0.0695546 0.0537305 0.518157 0.0615893 0.0522819 0.505759 
0.0533763 0.0506035 0.493128 0.0450496 0.0487699 0.480195 0.0367435 0.0468787 0.466899 
0.0285787 0.0450407 0.453188 0.0206493 0.0433687 0.439027 0.0130117 0.0419664 0.424395 
0.00567839 0.0409174 0.409289 -0.00138309 0.0402768 0.393717 -0.00824555 0.0400663 0.377691 
-0.0150115 0.040273 0.361228 -0.0217981 0.0408523 0.344336 -0.0287187 0.0417345 0.32701 
-0.0358644 0.0428341 0.309232 -0.0432859 0.0440611 0.290963 -0.0509804 0.045332 0.272149 
-0.0588835 0.0465801 0.252719 -0.0668679 0.0477635 0.2326 -0.0747502 0.0488689 0.211716 
-0.082304 0.0499129 0.190005 -0.0892787 0.0509381 0.167425 -0.0954221 0.0520072 0.143962 
-0.100504 0.053193 0.119639 -0.104337 0.0545687 0.0945163 -0.106798 0.0561968 0.0686907 
-0.107832 0.0581202 0.0422938 -0.107466 0.0603549 0.0154827 -0.105798 0.0628861 -0.0115695 
-0.102988 0.0656678 -0.0386855 -0.0992411 0.0686257 -0.0656953 -0.0947854 0.0716628 -0.0924475 
-0.0898493 0.0746674 -0.118817 -0.0846395 0.0775219 -0.144713 -0.0793221 0.080112 -0.170076 
-0.0740104 0.0823343 -0.194883 -0.0687575 0.0841026 -0.219136 -0.0635576 0.0853515 -0.242858 
-0.0583534 0.0860375 -0.266083 -0.0530486 0.0861381 -0.288848 -0.0475248 0.0856483 -0.311181 
-0.0416595 0.0845765 -0.333096 -0.0353442 0.0829393 -0.354591 -0.0284988 0.0807573 -0.375643 
-0.0210832 0.0780514 -0.396214 -0.0131026 0.0748412 -0.416251 -0.00460835 0.0711439 -0.435697 
0.00430655 0.0669763 -0.454496 0.0135161 0.0623568 -0.472598 0.0228724 0.0573093 -0.489968 
0.0322179 0.0518662 -0.506587 0.0413972 0.0460717 -0.522453 0.0502673 0.0399834 -0.537581 
0.058705 0.0336734 -0.551994 0.0666113 0.0272263 -0.565722 0.0739124 0.0207371 -0.578795 
0.0805588 0.0143067 -0.591233 0.0865217 0.00803684 -0.603041 0.0917891 0.00202444 -0.614211 
0.0963614 -0.00364341 -0.624715 0.100249 -0.0088942 -0.634512 0.103468 -0.0136734 -0.643552 
0.106044 -0.0179462 -0.651782 0.108009 -0.0216981 -0.659155 0.109402 -0.0249336 -0.665636 
0.110278 -0.0276739 -0.671214 0.1107 -0.0299532 -0.6759 0.110745 -0.0318154 -0.679732 
0.110503 -0.0333091 -0.682776 0.110068 -0.0344846 -0.685114 0.109539 -0.0353896 -0.686842 
0.109009 -0.0360668 -0.688059 0.108562 -0.0365512 -0.688855 0.108262 -0.0368687 -0.689304 
0.108152 -0.0370348 -0.689452 
LINES 2 100
OFFSETS vtktypeint64
0 100 
CONNECTIVITY vtktypeint64
0 1 2 3 4 5 6 7 8 
9 10 11 12 13 14 15 16 17 
18 19 20 21 22 23 24 25 26 
27 28 29 30 31 32 33 34 35 
36 37 38 39 40 41 42 43 44 
45 46 47 48 49 50 51 52 53 
54 55 56 57 58 59 60 61 62 
63 64 65 66 67 68 69 70 71 
72 73 74 75 76 77 78 79 80 
81 82 83 84 85 86 87 88 89 
90 91 92 93 94 95 96 97 98 
99 
POINT_DATA 100
FIELD FieldData 3
_theta 1 100 double
0 0.031733259127 0.063466518254 0.095199777382 0.12693303651 0.15866629564 0.19039955476 0.22213281389 0.25386607302 
0.28559933214 0.31733259127 0.3490658504 0.38079910953 0.41253236865 0.44426562778 0.47599888691 0.50773214603 0.53946540516 
0.57119866429 0.60293192342 0.63466518254 0.66639844167 0.6981317008 0.72986495992 0.76159821905 0.79333147818 0.82506473731 
0.85679799643 0.88853125556 0.92026451469 0.95199777382 0.98373103294 1.0154642921 1.0471975512 1.0789308103 1.1106640695 
1.1423973286 1.1741305877 1.2058638468 1.237597106 1.2693303651 1.3010636242 1.3327968833 1.3645301425 1.3962634016 
1.4279966607 1.4597299198 1.491463179 1.5231964381 1.5549296972 1.5866629564 1.6183962155 1.6501294746 1.6818627337 
1.7135959929 1.745329252 1.7770625111 1.8087957702 1.8405290294 1.8722622885 1.9039955476 1.9357288068 1.9674620659 
1.999195325 2.0309285841 2.0626618433 2.0943951024 2.1261283615 2.1578616206 2.1895948798 2.2213281389 2.253061398 
2.2847946572 2.3165279163 2.3482611754 2.3799944345 2.4117276937 2.4434609528 2.4751942119 2.506927471 2.5386607302 
2.5703939893 2.6021272484 2.6338605076 2.6655937667 2.6973270258 2.7290602849 2.7607935441 2.7925268032 2.8242600623 
2.8559933214 2.8877265806 2.9194598397 2.9511930988 2.982926358 3.0146596171 3.0463928762 3.0781261353 3.1098593945 
3.1415926536 
_radius 1 100 double
5.2922430232e-16 0.015266821292 0.030323956645 0.044975213591 0.059058228953 0.072456282245 0.085104594517 0.096990568075 0.10814824156 
0.11864796456 0.12858284249 0.13805380786 0.14715521698 0.15596266519 0.16452430739 0.17285643299 0.18094346149 0.18874198413 
0.19618805033 0.20320662075 0.20972197958 0.21566788624 0.22099632357 0.22568384718 0.22973475483 0.23318057996 0.23607578396 
0.23848998312 0.24049757682 0.24216615281 0.24354539056 0.24465821937 0.24549567468 0.24601632415 0.24615047169 0.24580872128 
0.24489394229 0.24331523253 0.24100216058 0.23791746551 0.23406657368 0.22950275608 0.22432738858 0.21868542133 0.21275667639 
0.20674393551 0.20085900804 0.19530813455 0.19027815726 0.18592476439 0.18236370658 0.17966523836 0.17785137023 0.17689516083 
0.17672155646 0.17721024246 0.17820206613 0.17951078808 0.18094052262 0.18230677199 0.18345697862 0.18428619967 0.18474476503 
0.18483678856 0.18461070344 0.18414526277 0.18353527412 0.18287947638 0.18227027853 0.1817844918 0.18147543895 0.18136770624 
0.18145534193 0.181703097 0.18204943977 0.18241018657 0.18268241744 0.18274908565 0.18248481548 0.18176287666 0.18046266969 
0.17847664108 0.17571551344 0.17211102421 0.16761590959 0.1622015094 0.15585394205 0.14857013092 0.14035491671 0.13122004575 
0.1211851303 0.11028000222 0.098547483 0.086045580292 0.072848428796 0.059045752046 0.044741050517 0.030048988593 0.015092501554 
2.5708814766e-16 
_area 1 100 double
0 0.00061903241201 0.0024426531888 0.0053745851023 0.0092675556409 0.013940940649 0.019201636556 0.024865231683 0.030774663539 
0.036813974434 0.042915385252 0.049058661278 0.055262736887 0.061570907418 0.068032423071 0.074684415165 0.081538055739 0.08857154522 
0.095730408846 0.10293351465 0.11008227474 0.11707117877 0.12379909995 0.13018086597 0.13615711953 0.14169937308 0.14680814165 
0.15150478875 0.15582018058 0.15978363362 0.16341383115 0.16670996255 0.16963782169 0.17210958262 0.1739730307 0.17502834183 
0.17506465699 0.17389981057 0.17141638235 0.16758999196 0.16250400657 0.15634603052 0.14938606214 0.14194134454 0.13433631089 
0.12686608757 0.11976935778 0.1132135048 0.10729319659 0.10204169543 0.09745104179 0.093495843413 0.090157836998 0.08745437395 
0.085507927848 0.084404200373 0.083908354305 0.083841549628 0.084011123987 0.084202107639 0.084218701314 0.083928747885 0.083285623628 
0.082320569024 0.081113443639 0.079760204005 0.078355353559 0.076993391364 0.07577564598 0.074804520496 0.074163854069 0.073919445282 
0.074095720943 0.074674216729 0.07560648686 0.076820896071 0.078219297604 0.079668083436 0.080993797256 0.081990916287 0.082442729936 
0.082149513252 0.080955326659 0.078766286837 0.075556984163 0.071365887832 0.066283850481 0.060441204529 0.053997809935 0.047137295798 
0.040063481824 0.032995550452 0.026159566083 0.019776388448 0.014048311923 0.0091477482668 0.0052106398085 0.002335474262 0.00058670108967 
9.6477562273e-18 
