# vtk DataFile Version 5.1
vtk output
ASCII
DATASET POLYDATA
POINTS 100 float
0.093613 0.0395259 0.656263 0.0938102 0.0397025 0.655991 0.0944405 0.0400984 0.655045 
0.09542 0.0406849 0.653453 0.0966209 0.0414182 0.651259 0.0978877 0.0422456 0.648511 
0.0990569 0.0431116 0.645259 0.0999766 0.0439655 0.641545 0.100524 0.0447677 0.637392 
0.10062 0.0454935 0.632808 0.100233 0.0461357 0.627776 0.0993806 0.0467034 0.622258 
0.0981199 0.0472191 0.616201 0.0965353 0.0477127 0.60954 0.0947199 0.0482149 0.602212 
0.0927572 0.0487498 0.594163 0.0907038 0.0493284 0.585357 0.0885765 0.0499436 0.575785 
0.0863455 0.050568 0.56547 0.0839354 0.0511545 0.554469 0.0812328 0.0516396 0.542871 
0.0781009 0.05195 0.530789 0.0743984 0.0520109 0.518359 0.0700005 0.0517546 0.505719 
0.0648184 0.0511305 0.493007 0.0588155 0.0501118 0.480342 0.0520164 0.0487016 0.467819 
0.0445091 0.046935 0.455497 0.0364382 0.0448782 0.4434 0.0279906 0.042624 0.43151 
0.0193754 0.0402852 0.419773 0.0108 0.0379851 0.408103 0.00244636 0.0358478 0.39639 
-0.00555011 0.0339881 0.384512 -0.0131159 0.0325033 0.372339 -0.020247 0.0314669 0.359746 
-0.0270065 0.0309247 0.346621 -0.0335148 0.0308946 0.332869 -0.03993 0.0313686 0.318417 
-0.0464242 0.0323176 0.303214 -0.0531562 0.0336975 0.28723 -0.0602456 0.0354557 0.270459 
-0.0677503 0.0375375 0.252907 -0.0756514 0.0398917 0.234596 -0.0838473 0.0424733 0.215557 
-0.0921567 0.0452453 0.195831 -0.100332 0.0481777 0.17546 -0.108082 0.0512444 0.154494 
-0.115095 0.0544204 0.132987 -0.121073 0.0576768 0.110995 -0.125757 0.0609773 0.0885796 
-0.128952 0.064276 0.0658071 -0.130547 0.0675158 0.0427471 -0.130521 0.0706304 0.0194717 
-0.128942 0.0735468 -0.0039457 -0.125961 0.0761904 -0.0274333 -0.121791 0.0784905 -0.0509231 
-0.116685 0.080387 -0.0743531 -0.11091 0.0818353 -0.0976693 -0.104723 0.0828112 -0.120827 
-0.0983461 0.0833129 -0.143791 -0.0919512 0.083361 -0.166533 -0.085649 0.0829963 -0.189033 
-0.0794865 0.0822749 -0.211274 -0.0734522 0.0812625 -0.233241 -0.0674867 0.0800267 -0.254914 
-0.0614978 0.0786303 -0.276272 -0.0553782 0.0771244 -0.297286 -0.0490235 0.0755441 -0.31792 
-0.0423469 0.0739053 -0.338134 -0.0352921 0.0722046 -0.357883 -0.0278399 0.0704211 -0.377118 
-0.0200113 0.0685207 -0.395794 -0.0118644 0.0664615 -0.413871 -0.00348932 0.0642002 -0.431313 
0.00500124 0.0616987 -0.448095 0.0134814 0.0589297 -0.464201 0.0218221 0.0558809 -0.479622 
0.0298995 0.0525579 -0.494359 0.0376015 0.0489844 -0.508415 0.0448323 0.0452011 -0.521795 
0.0515139 0.0412625 -0.534502 0.057587 0.0372327 -0.546536 0.0630089 0.0331806 -0.557889 
0.0677529 0.0291752 -0.568547 0.0718061 0.0252808 -0.578491 0.0751689 0.0215538 -0.587699 
0.0778543 0.0180407 -0.596146 0.0798891 0.0147765 -0.603812 0.0813142 0.0117852 -0.610684 
0.0821856 0.00908116 -0.616758 0.0825746 0.00667043 -0.622042 0.0825663 0.00455321 -0.626556 
0.0822573 0.00272578 -0.630334 0.0817512 0.00118244 -0.633418 0.081153 -8.31241e-05 -0.635853 
0.0805621 -0.0010768 -0.637689 0.0800653 -0.00180352 -0.638968 0.0797304 -0.002267 -0.639725 
0.0796003 -0.00246964 -0.639982 
LINES 2 100
OFFSETS vtktypeint64
0 100 
CONNECTIVITY vtktypeint64
0 1 2 3 4 5 6 7 8 
9 10 11 12 13 14 15 16 17 
18 19 20 21 22 23 24 25 26 
27 28 29 30 31 32 33 34 35 
36 37 38 39 40 41 42 43 44 
45 46 47 48 49 50 51 52 53 
54 55 56 57 58 59 60 61 62 
63 64 65 66 67 68 69 70 71 
72 73 74 75 76 77 78 79 80 
81 82 83 84 85 86 87 88 89 
90 91 92 93 94 95 96 97 98 
99 
POINT_DATA 100
FIELD FieldData 3
_theta 1 100 double
0 0.031733259127 0.063466518254 0.095199777382 0.12693303651 0.15866629564 0.19039955476 0.22213281389 0.25386607302 
0.28559933214 0.31733259127 0.3490658504 0.38079910953 0.41253236865 0.44426562778 0.47599888691 0.50773214603 0.53946540516 
0.57119866429 0.60293192342 0.63466518254 0.66639844167 0.6981317008 0.72986495992 0.76159821905 0.79333147818 0.82506473731 
0.85679799643 0.88853125556 0.92026451469 0.95199777382 0.98373103294 1.0154642921 1.0471975512 1.0789308103 1.1106640695 
1.1423973286 1.1741305877 1.2058638468 1.237597106 1.2693303651 1.3010636242 1.3327968833 1.3645301425 1.3962634016 
1.4279966607 1.4597299198 1.491463179 1.5231964381 1.5549296972 1.5866629564 1.6183962155 1.6501294746 1.6818627337 
1.7135959929 1.745329252 1.7770625111 1.8087957702 1.8405290294 1.8722622885 1.9039955476 1.9357288068 1.9674620659 
1.999195325 2.0309285841 2.0626618433 2.0943951024 2.1261283615 2.1578616206 2.1895948798 2.2213281389 2.253061398 
2.2847946572 2.3165279163 2.3482611754 2.3799944345 2.4117276937 2.4434609528 2.4751942119 2.506927471 2.5386607302 
2.5703939893 2.6021272484 2.6338605076 2.6655937667 2.6973270258 2.7290602849 2.7607935441 2.7925268032 2.8242600623 
2.8559933214 2.8877265806 2.9194598397 2.9511930988 2.982926358 3.0146596171 3.0463928762 3.0781261353 3.1098593945 
3.1415926536 
_radius 1 100 double
6.6790233071e-16 0.012733517579 0.025490520456 0.038278280169 0.051088637618 0.063892540098 0.076637179165 0.089246485148 0.10162515844 
0.11366567623 0.1252570921 0.136294153 0.14668535415 0.15635897085 0.16526669487 0.17338505688 0.18071513192 0.18728098363 
0.19312697164 0.19831368461 0.2029122152 0.20699696647 0.21063803665 0.21389496848 0.21681366916 0.21942734186 0.22176067895 
0.2238351413 0.22567258699 0.22729502722 0.22871965289 0.22995009965 0.23096675391 0.23172011704 0.23213105531 0.232099768 
0.23152216162 0.23030957229 0.22840675163 0.22580392473 0.22254080125 0.21870273095 0.21441105518 0.2098106928 0.20505786778 
0.20030967361 0.19571542634 0.19140851677 0.18749768725 0.18405839607 0.18112704217 0.17870156112 0.17675021302 0.1752268532 
0.17408756075 0.17330220097 0.17285625985 0.17274271289 0.17294884885 0.17344545965 0.17418332164 0.17509675777 0.17611104727 
0.17715077885 0.17814757365 0.17904624435 0.17980860389 0.18041441297 0.18085949453 0.18115161975 0.18130515691 0.18133557559 
0.18125471931 0.18106735634 0.18076899752 0.18034449715 0.17976672106 0.1789947161 0.17797133341 0.17662094817 0.17484849065 
0.17254119314 0.16957412837 0.16581979423 0.1611608987 0.15550444756 0.14879457325 0.14102148219 0.13222448464 0.12248818321 
0.11193229694 0.10069697474 0.088926468635 0.076754403372 0.064293431636 0.051630853927 0.038830100082 0.0259363308 0.012983449633 
3.0563442331e-16 
_area 1 100 double
0 0.00042884579987 0.0017202380724 0.0038858810053 0.0069364693367 0.01087076231 0.015664156724 0.021259358949 0.027561402703 
0.034438666247 0.041730599997 0.049261437544 0.056857432255 0.064363827804 0.071657704863 0.07865436586 0.085307169587 0.091602253792 
0.097549889909 0.10317404253 0.10850160397 0.11355255273 0.11833201239 0.12282536038 0.12699794102 0.13080068059 0.13418194226 
0.13710480061 0.13956684171 0.14161589429 0.14335174457 0.14490478559 0.1463904275 0.14785143699 0.14921229522 0.15027237348 
0.15074508913 0.15030917428 0.14869282954 0.14577836995 0.14163394705 0.13648358815 0.13064692236 0.12447348804 0.11829632291 
0.11241353308 0.10708321058 0.10251083324 0.098814231068 0.095968881069 0.093782294585 0.091952469349 0.090177734349 0.088250684202 
0.086112515412 0.083862928084 0.081712349189 0.079861742622 0.078406941612 0.077332323744 0.076558069859 0.075984905304 0.075521024972 
0.075091994164 0.074642082206 0.074133898359 0.073547993364 0.072881924261 0.072149085208 0.07137870205 0.070616921078 0.069924247691 
0.069360828968 0.068964249933 0.068749234083 0.068728271926 0.068912099326 0.069279203896 0.069753558738 0.070213522378 0.070502141104 
0.070429622889 0.069783182607 0.068351876879 0.065962316714 0.062515077541 0.058011371417 0.052562928259 0.046382577954 0.039757413162 
0.033010132761 0.026456727119 0.020369397606 0.014952047443 0.010332164234 0.0065686063053 0.0036709513512 0.0016233029639 0.00040457540768 
4.9036471189e-17 
