# vtk DataFile Version 5.1
vtk output
ASCII
DATASET POLYDATA
POINTS 100 float
0.0737743 0.0433184 0.659238 0.0739127 0.0434766 0.658943 0.0743778 0.0438058 0.657925 
0.0751111 0.0442957 0.656204 0.0760218 0.0449286 0.653814 0.0769979 0.0456807 0.65079 
0.077918 0.0465225 0.647167 0.0786648 0.0474201 0.642972 0.0791373 0.0483362 0.638219 
0.0792606 0.0492314 0.632908 0.0789922 0.0500655 0.627023 0.0783241 0.0507988 0.620534 
0.0772801 0.051393 0.613408 0.0759096 0.051813 0.60561 0.0742785 0.0520272 0.597113 
0.0724578 0.0520095 0.587908 0.0705128 0.0517405 0.578006 0.0684932 0.0512079 0.567443 
0.0664256 0.0504089 0.55628 0.0643105 0.0493503 0.544598 0.0621218 0.0480495 0.532491 
0.0598111 0.0465352 0.52006 0.0573147 0.0448467 0.507399 0.0545627 0.0430333 0.494589 
0.0514887 0.041153 0.481688 0.0480387 0.0392696 0.468727 0.044178 0.0374503 0.455705 
0.0398957 0.0357621 0.442598 0.0352046 0.034268 0.429357 0.0301384 0.0330235 0.415924 
0.0247458 0.0320731 0.402233 0.0190823 0.031448 0.388229 0.0132015 0.031164 0.373871 
0.00714666 0.031221 0.359135 0.000944628 0.031604 0.344026 -0.00539735 0.0322846 0.328564 
-0.0118911 0.0332245 0.312787 -0.0185633 0.0343791 0.29674 -0.0254474 0.0357018 0.280465 
-0.0325732 0.0371484 0.263991 -0.0399559 0.0386815 0.247326 -0.0475841 0.0402728 0.230451 
-0.0554115 0.0419061 0.213323 -0.0633506 0.0435774 0.19587 -0.071272 0.045294 0.178007 
-0.0790078 0.0470728 0.159643 -0.0863606 0.0489367 0.140694 -0.0931167 0.0509107 0.121095 
-0.0990619 0.053017 0.100817 -0.103999 0.0552715 0.0798696 -0.107765 0.0576793 0.0583072 
-0.110244 0.0602324 0.0362282 -0.111381 0.0629082 0.0137669 -0.111184 0.0656695 -0.00891769 
-0.109723 0.0684662 -0.0316566 -0.107127 0.0712375 -0.0542874 -0.103567 0.0739164 -0.0766699 
-0.099244 0.0764333 -0.098699 -0.0943695 0.0787212 -0.120314 -0.0891454 0.0807193 -0.141499 
-0.0837485 0.0823768 -0.162284 -0.078316 0.0836552 -0.182735 -0.0729364 0.0845294 -0.202936 
-0.0676465 0.0849879 -0.222982 -0.0624333 0.085031 -0.242955 -0.0572418 0.0846691 -0.262912 
-0.0519873 0.0839193 -0.282873 -0.0465705 0.0828027 -0.302815 -0.0408936 0.0813407 -0.32267 
-0.0348761 0.0795531 -0.342331 -0.0284683 0.0774559 -0.361665 -0.0216608 0.0750604 -0.380523 
-0.0144894 0.0723737 -0.398757 -0.0070351 0.0693996 -0.416239 0.000581135 0.0661406 -0.432868 
0.0082076 0.0626004 -0.448584 0.0156746 0.0587865 -0.463368 0.0228087 0.0547127 -0.477241 
0.0294476 0.0504012 -0.490254 0.0354532 0.0458837 -0.502479 0.040723 0.0412025 -0.513995 
0.0451964 0.0364089 -0.524868 0.0488588 0.0315625 -0.535148 0.0517399 0.0267286 -0.544852 
0.0539084 0.0219751 -0.553964 0.055464 0.0173692 -0.56244 0.0565263 0.0129739 -0.570209 
0.0572232 0.00884521 -0.577191 0.0576793 0.00502936 -0.583308 0.0580054 0.00156088 -0.588499 
0.0582902 -0.00153815 -0.592737 0.0585958 -0.00425814 -0.596033 0.0589551 -0.00660095 -0.598446 
0.0593735 -0.0085781 -0.600076 0.0598329 -0.0102082 -0.601059 0.0602983 -0.0115142 -0.601556 
0.0607256 -0.0125201 -0.601732 0.0610697 -0.0132481 -0.601738 0.0612921 -0.0137157 -0.601698 
0.0613673 -0.0139341 -0.601691 
LINES 2 100
OFFSETS vtktypeint64
0 100 
CONNECTIVITY vtktypeint64
0 1 2 3 4 5 6 7 8 
9 10 11 12 13 14 15 16 17 
18 19 20 21 22 23 24 25 26 
27 28 29 30 31 32 33 34 35 
36 37 38 39 40 41 42 43 44 
45 46 47 48 49 50 51 52 53 
54 55 56 57 58 59 60 61 62 
63 64 65 66 67 68 69 70 71 
72 73 74 75 76 77 78 79 80 
81 82 83 84 85 86 87 88 89 
90 91 92 93 94 95 96 97 98 
99 
POINT_DATA 100
FIELD FieldData 3
_theta 1 100 double
0 0.031733259127 0.063466518254 0.095199777382 0.12693303651 0.15866629564 0.19039955476 0.22213281389 0.25386607302 
0.28559933214 0.31733259127 0.3490658504 0.38079910953 0.41253236865 0.44426562778 0.47599888691 0.50773214603 0.53946540516 
0.57119866429 0.60293192342 0.63466518254 0.66639844167 0.6981317008 0.72986495992 0.76159821905 0.79333147818 0.82506473731 
0.85679799643 0.88853125556 0.92026451469 0.95199777382 0.98373103294 1.0154642921 1.0471975512 1.0789308103 1.1106640695 
1.1423973286 1.1741305877 1.2058638468 1.237597106 1.2693303651 1.3010636242 1.3327968833 1.3645301425 1.3962634016 
1.4279966607 1.4597299198 1.491463179 1.5231964381 1.5549296972 1.5866629564 1.6183962155 1.6501294746 1.6818627337 
1.7135959929 1.745329252 1.7770625111 1.8087957702 1.8405290294 1.8722622885 1.9039955476 1.9357288068 1.9674620659 
1.999195325 2.0309285841 2.0626618433 2.0943951024 2.1261283615 2.1578616206 2.1895948798 2.2213281389 2.253061398 
2.2847946572 2.3165279163 2.3482611754 2.3799944345 2.4117276937 2.4434609528 2.4751942119 2.506927471 2.5386607302 
2.5703939893 2.6021272484 2.6338605076 2.6655937667 2.6973270258 2.7290602849 2.7607935441 2.7925268032 2.8242600623 
2.8559933214 2.8877265806 2.9194598397 2.9511930988 2.982926358 3.0146596171 3.0463928762 3.0781261353 3.1098593945 
3.1415926536 
_radius 1 100 double
6.6757785249e-16 0.013343194439 0.026678719861 0.039986698236 0.053234881316 0.066374412633 0.079337798263 0.092039844459 0.10438191022 
0.11625917823 0.12756996948 0.13822562401 0.14815928017 0.15733204899 0.16573555108 0.17339044862 0.18034132157 0.18664886983 
0.19238086588 0.19760346513 0.20237436203 0.20673886006 0.210729272 0.21436733205 0.21766868613 0.22064820259 0.2233248628 
0.22572523652 0.22788483794 0.22984691239 0.23165850188 0.23336407681 0.23499754593 0.23657388177 0.23808176791 0.23947857327 
0.24068869426 0.24160600614 0.24210087121 0.24203179487 0.24126128613 0.23967473303 0.23720025408 0.23382674991 0.22961698334 
0.22471262231 0.21932887866 0.21373770758 0.20824050792 0.20313377056 0.1986737066 0.19504752907 0.19235832747 0.19062646144 
0.18980413657 0.1897945996 0.19046671134 0.1916603996 0.19318606005 0.19482667302 0.19635097493 0.1975391834 0.19821470245 
0.19827187402 0.19769207552 0.19654497086 0.19497559013 0.19318038975 0.19137685526 0.18977183058 0.18853355946 0.18777128338 
0.18752425603 0.18775978033 0.18837827875 0.18922316564 0.19009417257 0.19076368516 0.19099560203 0.19056528127 0.18927819112 
0.18698469481 0.18358904299 0.17905172132 0.17338537729 0.16664539435 0.15891673411 0.15029897717 0.14089163267 0.13078179063 
0.12003600066 0.10869773999 0.096790888034 0.084328373144 0.071323973396 0.05780456136 0.043820079944 0.029449125742 0.014798973598 
1.403823179e-15 
_area 1 100 double
0 0.00049020578949 0.0019604065544 0.004407374031 0.0078194921978 0.012168686885 0.017401706429 0.023433133713 0.030142533964 
0.037377444034 0.044962527688 0.052713504098 0.060452995137 0.068024864645 0.075304284626 0.082202420437 0.088666474056 0.094676933236 
0.10024380408 0.10540266574 0.11021031578 0.1147391447 0.11906932321 0.12327842954 0.1274295919 0.13156141401 0.13568395913 
0.13978258776 0.14382681383 0.14777931194 0.15160246041 0.15526227885 0.15872925353 0.1619747365 0.16496276702 0.16763891645 
0.1699185875 0.17167784897 0.17275110832 0.17294056807 0.17204058967 0.16987540439 0.16634291487 0.16145337698 0.15535136831 
0.14831297627 0.14071665815 0.13299343481 0.12556650119 0.11878955855 0.11289073179 0.10793650384 0.1038448503 0.10045651752 
0.097627406873 0.095308276147 0.093582268297 0.092623166097 0.092350214597 0.092550702124 0.092978308081 0.093343772009 0.093371231111 
0.092835820551 0.091605525765 0.089666559827 0.08712528679 0.084190373187 0.081140399538 0.078283656198 0.075918091572 0.074300370579 
0.07360592623 0.073941948648 0.075409208655 0.077587208206 0.08010263899 0.08264997206 0.084916076009 0.086592139763 0.087399422466 
0.087116086567 0.085599162533 0.082797994037 0.078756921007 0.073606448386 0.067544110226 0.060808488888 0.05365168319 0.046316017795 
0.03901934409 0.031950184002 0.025270591459 0.019122736489 0.013635616107 0.0089298393817 0.0051192248407 0.0023078443973 0.00058209375722 
2.2996160854e-17 
