# vtk DataFile Version 5.1
vtk output
ASCII
DATASET POLYDATA
POINTS 100 float
0.0938918 0.0167745 0.645428 0.093825 0.0171121 0.645254 0.0937322 0.0179922 0.644629 
0.0935929 0.0193668 0.643547 0.093375 0.0211606 0.641997 0.0930388 0.023277 0.639965 
0.0925411 0.0256056 0.637428 0.0918398 0.0280308 0.63436 0.0908986 0.0304404 0.630725 
0.0896898 0.0327332 0.626486 0.0881971 0.0348254 0.621597 0.086416 0.0366551 0.616016 
0.0843529 0.0381844 0.609697 0.0820233 0.0393994 0.602605 0.0794485 0.040308 0.594713 
0.0766524 0.0409356 0.586009 0.0736573 0.0413208 0.5765 0.0704811 0.0415091 0.566213 
0.0671351 0.0415477 0.555198 0.0636224 0.0414808 0.543524 0.0599378 0.0413457 0.531283 
0.0560691 0.0411707 0.518577 0.0519987 0.0409744 0.505519 0.0477055 0.0407666 0.492222 
0.0431681 0.0405504 0.478794 0.0383662 0.0403249 0.465328 0.0332827 0.0400885 0.451893 
0.0279047 0.0398421 0.438534 0.0222238 0.0395918 0.425265 0.0162362 0.0393507 0.412067 
0.00994206 0.0391395 0.398889 0.00334542 0.0389861 0.385657 -0.00354572 0.0389243 0.37227 
-0.0107187 0.0389909 0.358617 -0.0181547 0.0392234 0.34458 -0.0258266 0.0396561 0.330044 
-0.0336962 0.0403174 0.314908 -0.0417114 0.0412268 0.299086 -0.0498038 0.0423934 0.282518 
-0.0578871 0.0438145 0.265172 -0.065857 0.0454753 0.247043 -0.0735931 0.0473507 0.228151 
-0.0809625 0.049406 0.208543 -0.0878258 0.0515998 0.188281 -0.0940448 0.0538868 0.167443 
-0.0994913 0.0562203 0.14611 -0.104056 0.0585554 0.124369 -0.107658 0.0608509 0.1023 
-0.110251 0.0630717 0.0799796 -0.111828 0.0651893 0.0574755 -0.112427 0.0671832 0.0348474 
-0.112121 0.0690401 0.0121486 -0.111022 0.070753 -0.0105722 -0.109268 0.0723208 -0.0332678 
-0.107013 0.0737454 -0.0558904 -0.104415 0.0750308 -0.0783888 -0.101621 0.0761808 -0.100708 
-0.0987609 0.077197 -0.122788 -0.0959328 0.0780774 -0.144567 -0.0931982 0.0788151 -0.165982 
-0.0905795 0.0793978 -0.186972 -0.0880601 0.0798075 -0.207485 -0.0855903 0.080021 -0.227476 
-0.0830949 0.080011 -0.246917 -0.0804839 0.0797478 -0.265792 -0.0776643 0.0792012 -0.284104 
-0.0745523 0.0783432 -0.301869 -0.0710836 0.0771506 -0.319117 -0.067222 0.0756071 -0.335885 
-0.0629649 0.0737057 -0.352212 -0.0583449 0.0714506 -0.368139 -0.0534284 0.0688578 -0.383694 
-0.0483102 0.0659554 -0.398895 -0.0431063 0.0627827 -0.413743 -0.0379441 0.0593884 -0.428221 
-0.0329524 0.0558284 -0.442294 -0.0282513 0.052162 -0.45591 -0.0239436 0.0484489 -0.469006 
-0.0201081 0.0447453 -0.48151 -0.016795 0.0411008 -0.493352 -0.0140249 0.0375554 -0.504463 
-0.011789 0.0341381 -0.514786 -0.0100535 0.0308658 -0.524281 -0.00876369 0.027744 -0.532925 
-0.007851 0.0247683 -0.540715 -0.00723927 0.0219272 -0.547669 -0.00685141 0.0192049 -0.553821 
-0.00661509 0.0165854 -0.55922 -0.00646723 0.0140559 -0.563927 -0.00635719 0.01161 -0.568005 
-0.00624831 0.00925017 -0.571519 -0.00611811 0.00698884 -0.574529 -0.00595727 0.00484856 -0.57709 
-0.00576756 0.00286077 -0.579245 -0.00555926 0.00106349 -0.581029 -0.00534814 -0.000501957 -0.582468 
-0.00515245 -0.0017946 -0.583577 -0.00499012 -0.00277772 -0.584367 -0.00487634 -0.00342232 -0.584844 
-0.0048217 -0.0037099 -0.585011 
LINES 2 100
OFFSETS vtktypeint64
0 100 
CONNECTIVITY vtktypeint64
0 1 2 3 4 5 6 7 8 
9 10 11 12 13 14 15 16 17 
18 19 20 21 22 23 24 25 26 
27 28 29 30 31 32 33 34 35 
36 37 38 39 40 41 42 43 44 
45 46 47 48 49 50 51 52 53 
54 55 56 57 58 59 60 61 62 
63 64 65 66 67 68 69 70 71 
72 73 74 75 76 77 78 79 80 
81 82 83 84 85 86 87 88 89 
90 91 92 93 94 95 96 97 98 
99 
POINT_DATA 100
FIELD FieldData 3
_theta 1 100 double
0 0.031733259127 0.063466518254 0.095199777382 0.12693303651 0.15866629564 0.19039955476 0.22213281389 0.25386607302 
0.28559933214 0.31733259127 0.3490658504 0.38079910953 0.41253236865 0.44426562778 0.47599888691 0.50773214603 0.53946540516 
0.57119866429 0.60293192342 0.63466518254 0.66639844167 0.6981317008 0.72986495992 0.76159821905 0.79333147818 0.82506473731 
0.85679799643 0.88853125556 0.92026451469 0.95199777382 0.98373103294 1.0154642921 1.0471975512 1.0789308103 1.1106640695 
1.1423973286 1.1741305877 1.2058638468 1.237597106 1.2693303651 1.3010636242 1.3327968833 1.3645301425 1.3962634016 
1.4279966607 1.4597299198 1.491463179 1.5231964381 1.5549296972 1.5866629564 1.6183962155 1.6501294746 1.6818627337 
1.7135959929 1.745329252 1.7770625111 1.8087957702 1.8405290294 1.8722622885 1.9039955476 1.9357288068 1.9674620659 
1.999195325 2.0309285841 2.0626618433 2.0943951024 2.1261283615 2.1578616206 2.1895948798 2.2213281389 2.253061398 
2.2847946572 2.3165279163 2.3482611754 2.3799944345 2.4117276937 2.4434609528 2.4751942119 2.506927471 2.5386607302 
2.5703939893 2.6021272484 2.6338605076 2.6655937667 2.6973270258 2.7290602849 2.7607935441 2.7925268032 2.8242600623 
2.8559933214 2.8877265806 2.9194598397 2.9511930988 2.982926358 3.0146596171 3.0463928762 3.0781261353 3.1098593945 
3.1415926536 
_radius 1 100 double
1.3895124214e-16 0.01335426399 0.026563699433 0.039493025605 0.052025460966 0.064067236507 0.075547932805 0.086417434666 0.096641348089 
0.10619699615 0.11507140553 0.12326143435 0.13077512923 0.13763300049 0.14386808071 0.14952409525 0.15465173807 0.15930386041 
0.16353098091 0.16737844752 0.1708857897 0.17408775976 0.1770158391 0.17969886995 0.18216193093 0.18442339888 0.18649105789 
0.18835880776 0.19000563553 0.19139783729 0.19249420221 0.19325263824 0.19363622725 0.19361717399 0.19317820462 0.1923120807 
0.19102055996 0.18931415543 0.18721347697 0.18475204964 0.18197966261 0.17896482607 0.17579494142 0.17257327298 0.16941259488 
0.16642628955 0.16371848049 0.16137522287 0.15945860644 0.15800479963 0.15702585769 0.1565140134 0.1564465822 0.15678971779 
0.15750001199 0.15852415504 0.15979810998 0.16124777135 0.16279239375 0.1643506072 0.16584758468 0.16722149574 0.16842768073 
0.16943970219 0.17024737689 0.17085286642 0.17126651096 0.17150388563 0.17158454103 0.17153170952 0.17137166784 0.171131637 
0.17083574372 0.17049930354 0.17012233592 0.16968366368 0.16913701612 0.16841016775 0.16740745945 0.1660153732 0.16411040028 
0.16156829616 0.15827385113 0.15413037701 0.14906813091 0.14305088322 0.13607988292 0.12819465039 0.11947033276 0.11001172769 
0.099944458723 0.089404141457 0.078524712294 0.067427372748 0.056211724096 0.044950450701 0.033688235777 0.022444598242 0.011219464495 
1.0069006328e-15 
_area 1 100 double
0 0.00040445460446 0.0016065098383 0.003574422662 0.0062610826121 0.0096085893117 0.013549565553 0.018005044767 0.022881387034 
0.028069341753 0.033446811126 0.03888480048 0.044255518081 0.049442456012 0.054352052938 0.058924108759 0.063136304502 0.067000411104 
0.070553658886 0.073853099742 0.0769772495 0.080029176031 0.083128925267 0.086387876728 0.089870390877 0.093559989215 0.097348046953 
0.10105064247 0.10444523641 0.10731353214 0.10947895697 0.11083215562 0.111342787 0.11105863971 0.11009271855 0.10859694904 
0.10672172725 0.10456982848 0.10216943552 0.099490322942 0.096494112095 0.093182670187 0.089619541541 0.085922647132 0.082238903461 
0.07871345947 0.075463481085 0.072562302865 0.070035473549 0.067866666556 0.066010416216 0.064410139191 0.063020475167 0.06183000605 
0.060877244793 0.060251166842 0.060064098922 0.060393042134 0.06122439241 0.062448283321 0.063896129206 0.065388384551 0.066773278484 
0.067947575034 0.068857719372 0.069488719581 0.069852038263 0.069979421855 0.069922766864 0.06975678061 0.069579747935 0.069503992398 
0.069624590083 0.069979607766 0.070547775634 0.071273187981 0.072074615328 0.072841559522 0.07343216624 0.073678787541 0.073401165441 
0.072425490275 0.070607037021 0.067853061828 0.064141362011 0.059529745595 0.054153455778 0.048210750732 0.041939829301 0.035591803661 
0.029404243004 0.023578882642 0.018266627287 0.013563279622 0.0095187370113 0.0061573034402 0.0034986428689 0.0015680730915 0.00039421061081 
2.3548568103e-18 
