# vtk DataFile Version 5.1
vtk output
ASCII
DATASET POLYDATA
POINTS 100 float
0.0617254 0.058698 0.643565 0.0618298 0.0588122 0.643474 0.0621977 0.0589761 0.642982 
0.0627773 0.0591661 0.642071 0.063489 0.0593456 0.640715 0.0642344 0.0594688 0.638875 
0.0649083 0.0594854 0.636507 0.0654104 0.0593461 0.633555 0.0656575 0.059008 0.629963 
0.0655914 0.0584389 0.625669 0.0651847 0.0576211 0.620616 0.0644415 0.0565533 0.614755 
0.0633942 0.0552507 0.608048 0.0620963 0.0537442 0.600474 0.0606125 0.0520774 0.592035 
0.059007 0.0503032 0.582754 0.0573323 0.0484792 0.57268 0.0556194 0.0466633 0.561886 
0.0538715 0.0449091 0.550464 0.0520613 0.0432624 0.538522 0.0501329 0.0417582 0.526174 
0.048008 0.0404192 0.513535 0.045596 0.0392549 0.500714 0.0428059 0.0382623 0.487802 
0.0395588 0.0374269 0.47487 0.0358005 0.0367254 0.461963 0.0315101 0.036128 0.449098 
0.0267055 0.0356017 0.436268 0.0214441 0.0351131 0.423437 0.0158182 0.0346315 0.410555 
0.00994552 0.0341324 0.397557 0.00395701 0.0335995 0.384372 -0.00201841 0.0330273 0.370932 
-0.00786892 0.0324229 0.357173 -0.0135132 0.0318072 0.343044 -0.0189108 0.0312155 0.328507 
-0.0240668 0.0306967 0.313538 -0.0290319 0.0303123 0.298124 -0.033896 0.0301334 0.282262 
-0.0387759 0.0302373 0.265958 -0.0438001 0.0307026 0.249216 -0.0490898 0.0316038 0.232042 
-0.0547404 0.0330048 0.214438 -0.0608044 0.0349531 0.1964 -0.0672782 0.0374736 0.177922 
-0.0740941 0.0405643 0.158992 -0.0811193 0.0441931 0.139601 -0.0881613 0.0482967 0.119739 
-0.09498 0.052782 0.0994045 -0.101305 0.05753 0.0786013 -0.106857 0.062402 0.0573443 
-0.111369 0.0672474 0.0356577 -0.114611 0.0719136 0.013575 -0.116403 0.0762556 -0.008863 
-0.116635 0.0801454 -0.0316105 -0.115271 0.08348 -0.0546192 -0.112349 0.0861878 -0.0778407 
-0.107977 0.0882308 -0.101228 -0.102319 0.0896053 -0.124734 -0.0955772 0.0903382 -0.148316 
-0.0879752 0.0904811 -0.171927 -0.0797351 0.0901018 -0.195515 -0.07106 0.089275 -0.219024 
-0.0621183 0.0880722 -0.242386 -0.0530337 0.086553 -0.26552 -0.0438805 0.0847578 -0.288336 
-0.0346852 0.0827039 -0.310729 -0.0254333 0.0803834 -0.332591 -0.0160807 0.0777663 -0.353811 
-0.00656817 0.0748049 -0.374281 0.00316353 0.0714415 -0.393907 0.0131588 0.0676175 -0.412615 
0.0234352 0.0632831 -0.430354 0.0339752 0.058406 -0.447101 0.0447223 0.0529787 -0.462863 
0.0555827 0.0470232 -0.477674 0.0664316 0.0405926 -0.491588 0.0771228 0.0337695 -0.504672 
0.0875013 0.0266616 -0.516999 0.0974175 0.0193942 -0.528635 0.106739 0.012102 -0.539629 
0.115365 0.00491907 -0.550009 0.123229 -0.00202965 -0.559777 0.130306 -0.00863644 -0.568905 
0.136612 -0.0148164 -0.577343 0.142198 -0.0205106 -0.585022 0.147142 -0.0256867 -0.591867 
0.151536 -0.0303368 -0.597809 0.15548 -0.0344731 -0.602794 0.159064 -0.0381232 -0.606798 
0.16236 -0.0413229 -0.609835 0.165417 -0.0441112 -0.611959 0.168255 -0.0465249 -0.613266 
0.170866 -0.0485947 -0.613891 0.173218 -0.0503436 -0.613994 0.175259 -0.0517859 -0.61375 
0.176929 -0.0529289 -0.613333 0.17817 -0.053774 -0.6129 0.178931 -0.0543198 -0.612575 
0.179178 -0.0545636 -0.61244 
LINES 2 100
OFFSETS vtktypeint64
0 100 
CONNECTIVITY vtktypeint64
0 1 2 3 4 5 6 7 8 
9 10 11 12 13 14 15 16 17 
18 19 20 21 22 23 24 25 26 
27 28 29 30 31 32 33 34 35 
36 37 38 39 40 41 42 43 44 
45 46 47 48 49 50 51 52 53 
54 55 56 57 58 59 60 61 62 
63 64 65 66 67 68 69 70 71 
72 73 74 75 76 77 78 79 80 
81 82 83 84 85 86 87 88 89 
90 91 92 93 94 95 96 97 98 
99 
POINT_DATA 100
FIELD FieldData 3
_theta 1 100 double
0 0.031733259127 0.063466518254 0.095199777382 0.12693303651 0.15866629564 0.19039955476 0.22213281389 0.25386607302 
0.28559933214 0.31733259127 0.3490658504 0.38079910953 0.41253236865 0.44426562778 0.47599888691 0.50773214603 0.53946540516 
0.57119866429 0.60293192342 0.63466518254 0.66639844167 0.6981317008 0.72986495992 0.76159821905 0.79333147818 0.82506473731 
0.85679799643 0.88853125556 0.92026451469 0.95199777382 0.98373103294 1.0154642921 1.0471975512 1.0789308103 1.1106640695 
1.1423973286 1.1741305877 1.2058638468 1.237597106 1.2693303651 1.3010636242 1.3327968833 1.3645301425 1.3962634016 
1.4279966607 1.4597299198 1.491463179 1.5231964381 1.5549296972 1.5866629564 1.6183962155 1.6501294746 1.6818627337 
1.7135959929 1.745329252 1.7770625111 1.8087957702 1.8405290294 1.8722622885 1.9039955476 1.9357288068 1.9674620659 
1.999195325 2.0309285841 2.0626618433 2.0943951024 2.1261283615 2.1578616206 2.1895948798 2.2213281389 2.253061398 
2.2847946572 2.3165279163 2.3482611754 2.3799944345 2.4117276937 2.4434609528 2.4751942119 2.506927471 2.5386607302 
2.5703939893 2.6021272484 2.6338605076 2.6655937667 2.6973270258 2.7290602849 2.7607935441 2.7925268032 2.8242600623 
2.8559933214 2.8877265806 2.9194598397 2.9511930988 2.982926358 3.0146596171 3.0463928762 3.0781261353 3.1098593945 
3.1415926536 
_radius 1 100 double
8.944716022e-16 0.01257799222 0.02525744747 0.038108480877 0.051162262463 0.064399568411 0.077746761433 0.091079505137 0.10423348905 
0.11702064498 0.12924877163 0.14074215368 0.15136068808 0.16101522806 0.16967731042 0.17738208786 0.18422406778 0.19034607108 
0.19592259104 0.20113939585 0.20617174587 0.21116393791 0.21621292877 0.22135837186 0.22658045656 0.23180562825 0.23691894962 
0.24178089907 0.24624595829 0.25018037248 0.25347683237 0.25606440242 0.25791272976 0.25903035787 0.25945777099 0.25925652275 
0.25849635049 0.25724244522 0.25554496891 0.25343250153 0.25091045785 0.24796477227 0.24457041044 0.24070358365 0.23635595248 
0.23154866378 0.22634383271 0.22085109645 0.21522713026 0.20966655191 0.20438360208 0.1995857403 0.19544316002 0.19206164645 
0.18946785423 0.18761295312 0.18639284297 0.1856759563 0.18532824631 0.18522899246 0.18527653318 0.18538704274 0.18549129969 
0.18553402347 0.1854778294 0.18531018952 0.18504918155 0.18474387997 0.18446758281 0.18430499026 0.18433649318 0.18462321749 
0.18519550696 0.18604587179 0.18712604987 0.18834729653 0.18958329653 0.19067570421 0.19144265259 0.19169025301 0.19122626089 
0.18987423328 0.18748614071 0.18395166182 0.17920310403 0.17321577155 0.16600440347 0.15761687297 0.14812658611 0.13762491671 
0.12621461417 0.11400456478 0.10110577377 0.087628146567 0.07367766382 0.05935381078 0.044747479814 0.029939824909 0.015002567582 
4.9964679566e-16 
_area 1 100 double
0 0.00047003969895 0.001896952552 0.0043249032682 0.0078082395048 0.012387418939 0.018063880254 0.02478005114 0.032409499155 
0.040759815768 0.049587919264 0.058624915453 0.067606063555 0.076300911047 0.084539068518 0.092228042576 0.099360727393 0.10601136384 
0.11231994244 0.11846635886 0.12463751999 0.13099291156 0.13763552728 0.14459396484 0.15181821939 0.15918819572 0.16653142164 
0.17364481107 0.18031506914 0.18633483308 0.19151622473 0.19570559337 0.19879984659 0.20075993917 0.20161617608 0.20146270031 
0.20044122493 0.19871316785 0.19641325748 0.19358711402 0.19016931474 0.18603842276 0.18108511506 0.17525386114 0.1685662097 
0.16113181695 0.15314776655 0.14488813062 0.13668795761 0.12892363013 0.12198043958 0.11618264182 0.11168467641 0.1084097278 
0.10612226117 0.10453152713 0.10326474938 0.10204051064 0.10073624203 0.099310857064 0.097751497166 0.096046610517 0.094182434095 
0.092159269487 0.090013862798 0.087829254834 0.085723113397 0.08381934418 0.08221663532 0.080970145489 0.080094996366 0.079585020787 
0.079432255794 0.079637409587 0.080205893806 0.081126000211 0.082336523538 0.083703598926 0.085024307716 0.086052989556 0.086535343217 
0.086240996351 0.084990318712 0.082672391738 0.079252260914 0.074767998773 0.069320510417 0.063060187064 0.056174003747 0.048874846552 
0.041392725649 0.033966192415 0.026832371485 0.020215354283 0.014314408456 0.0092945133863 0.0052815243719 0.0023628834556 0.00059289413365 
8.6855500928e-17 
