# vtk DataFile Version 5.1
vtk output
ASCII
DATASET POLYDATA
POINTS 100 float
0.104666 0.0538814 0.652612 0.104875 0.0540672 0.652588 0.105568 0.054441 0.652334 
0.106666 0.0549894 0.651828 0.108048 0.0556914 0.651032 0.109564 0.0565193 0.649895 
0.111048 0.057441 0.648352 0.112337 0.0584203 0.646326 0.113287 0.0594192 0.643734 
0.113781 0.0603979 0.640486 0.113746 0.0613155 0.636495 0.113145 0.0621302 0.631682 
0.111984 0.0627986 0.625979 0.110301 0.0632758 0.619344 0.108154 0.0635157 0.611757 
0.105613 0.0634713 0.603229 0.102743 0.0630968 0.593801 0.0995961 0.0623498 0.583544 
0.0962026 0.0611947 0.572552 0.0925666 0.0596071 0.560933 0.0886676 0.0575773 0.548808 
0.0844648 0.0551149 0.536291 0.0799054 0.0522516 0.523487 0.0749341 0.049043 0.51048 
0.0695039 0.0455684 0.497328 0.0635847 0.0419287 0.484061 0.05717 0.0382418 0.47068 
0.0502794 0.0346361 0.457162 0.042958 0.0312431 0.443466 0.0352708 0.028188 0.429543 
0.0272956 0.0255816 0.415338 0.0191127 0.0235123 0.400807 0.0107958 0.0220396 0.385916 
0.00240353 0.0211911 0.370648 -0.00602634 0.0209608 0.355003 -0.0144783 0.0213116 0.338992 
-0.0229565 0.0221795 0.322636 -0.0314784 0.0234814 0.305952 -0.040065 0.0251226 0.288953 
-0.0487286 0.0270064 0.271636 -0.0574614 0.0290429 0.253975 -0.0662244 0.0311557 0.235926 
-0.0749405 0.0332879 0.217421 -0.0834913 0.0354044 0.198378 -0.0917196 0.0374921 0.178711 
-0.0994369 0.0395577 0.158335 -0.106435 0.0416228 0.137186 -0.112504 0.0437178 0.115224 
-0.117445 0.0458754 0.0924488 -0.121093 0.0481242 0.0689026 -0.123327 0.0504831 0.0446704 
-0.124084 0.0529574 0.0198776 -0.123361 0.055537 -0.00531902 -0.12122 0.0581964 -0.0307425 
-0.117779 0.0608964 -0.0562103 -0.113199 0.0635881 -0.0815481 -0.107672 0.0662162 -0.106603 
-0.101403 0.0687239 -0.131255 -0.0945926 0.0710568 -0.155421 -0.0874211 0.0731656 -0.179056 
-0.0800367 0.0750081 -0.202151 -0.0725484 0.0765494 -0.224725 -0.0650227 0.0777613 -0.246811 
-0.0574869 0.0786209 -0.268449 -0.0499355 0.0791083 -0.289669 -0.0423403 0.0792053 -0.310485 
-0.0346623 0.078894 -0.33089 -0.0268632 0.0781569 -0.350852 -0.0189164 0.0769781 -0.370318 
-0.0108141 0.0753459 -0.389224 -0.00257224 0.0732552 -0.407503 0.00576902 0.0707122 -0.425096 
0.0141482 0.0677367 -0.441966 0.022488 0.0643658 -0.458103 0.0307032 0.0606541 -0.473531 
0.0387082 0.056674 -0.488305 0.0464256 0.0525127 -0.502505 0.0537922 0.0482676 -0.516226 
0.060763 0.0440411 -0.529562 0.0673129 0.0399327 -0.542589 0.0734359 0.0360326 -0.555353 
0.079142 0.0324148 -0.567853 0.0844523 0.0291322 -0.580037 0.0893941 0.0262132 -0.591799 
0.0939952 0.0236614 -0.602988 0.0982802 0.0214572 -0.613417 0.102267 0.0195622 -0.622888 
0.105964 0.0179249 -0.631211 0.109376 0.0164885 -0.638227 0.112496 0.0151975 -0.643834 
0.115318 0.0140049 -0.647999 0.117833 0.012877 -0.650771 0.120034 0.011797 -0.652283 
0.121919 0.0107653 -0.652738 0.123488 0.00979779 -0.652399 0.124749 0.00892225 -0.651559 
0.12571 0.00817296 -0.650516 0.126381 0.00758474 -0.649542 0.126773 0.0071871 -0.648855 
0.126893 0.00699947 -0.648596 
LINES 2 100
OFFSETS vtktypeint64
0 100 
CONNECTIVITY vtktypeint64
0 1 2 3 4 5 6 7 8 
9 10 11 12 13 14 15 16 17 
18 19 20 21 22 23 24 25 26 
27 28 29 30 31 32 33 34 35 
36 37 38 39 40 41 42 43 44 
45 46 47 48 49 50 51 52 53 
54 55 56 57 58 59 60 61 62 
63 64 65 66 67 68 69 70 71 
72 73 74 75 76 77 78 79 80 
81 82 83 84 85 86 87 88 89 
90 91 92 93 94 95 96 97 98 
99 
POINT_DATA 100
FIELD FieldData 3
_theta 1 100 double
0 0.031733259127 0.063466518254 0.095199777382 0.12693303651 0.15866629564 0.19039955476 0.22213281389 0.25386607302 
0.28559933214 0.31733259127 0.3490658504 0.38079910953 0.41253236865 0.44426562778 0.47599888691 0.50773214603 0.53946540516 
0.57119866429 0.60293192342 0.63466518254 0.66639844167 0.6981317008 0.72986495992 0.76159821905 0.79333147818 0.82506473731 
0.85679799643 0.88853125556 0.92026451469 0.95199777382 0.98373103294 1.0154642921 1.0471975512 1.0789308103 1.1106640695 
1.1423973286 1.1741305877 1.2058638468 1.237597106 1.2693303651 1.3010636242 1.3327968833 1.3645301425 1.3962634016 
1.4279966607 1.4597299198 1.491463179 1.5231964381 1.5549296972 1.5866629564 1.6183962155 1.6501294746 1.6818627337 
1.7135959929 1.745329252 1.7770625111 1.8087957702 1.8405290294 1.8722622885 1.9039955476 1.9357288068 1.9674620659 
1.999195325 2.0309285841 2.0626618433 2.0943951024 2.1261283615 2.1578616206 2.1895948798 2.2213281389 2.253061398 
2.2847946572 2.3165279163 2.3482611754 2.3799944345 2.4117276937 2.4434609528 2.4751942119 2.506927471 2.5386607302 
2.5703939893 2.6021272484 2.6338605076 2.6655937667 2.6973270258 2.7290602849 2.7607935441 2.7925268032 2.8242600623 
2.8559933214 2.8877265806 2.9194598397 2.9511930988 2.982926358 3.0146596171 3.0463928762 3.0781261353 3.1098593945 
3.1415926536 
_radius 1 100 double
5.7257438362e-16 0.014549907706 0.028977671562 0.043164319083 0.057007717342 0.07042796469 0.08336957111 0.095800360706 0.10770754652 
0.11909180193 0.12996035978 0.14032021551 0.15017241112 0.15950816254 0.16830730194 0.17653917828 0.18416582856 0.19114694676 
0.19744599298 0.20303673116 0.20790951294 0.21207663426 0.2155760074 0.21847226177 0.22085438664 0.22282936321 0.22451198282 
0.22601205936 0.22742113209 0.22880109394 0.23017677043 0.23153349896 0.23281965252 0.23395322095 0.23483117426 0.2353403288 
0.23536865348 0.23481623265 0.23360532609 0.23168906761 0.22905831313 0.22574603988 0.22182860467 0.21742321032 0.21268121971 
0.20777754796 0.20289715113 0.19822034442 0.19390906466 0.19009618422 0.18687958601 0.1843217095 0.18245353713 0.18128015411 
0.18078445407 0.18092714311 0.18164415206 0.18284485246 0.18441443301 0.18622163166 0.18813045064 0.19001301077 0.19176062354 
0.19329101597 0.19455092242 0.19551454368 0.19617928312 0.19656040738 0.19668583522 0.19659147629 0.19631690821 0.19590097796 
0.19537710383 0.19476843611 0.19408339888 0.19331230678 0.19242560722 0.19137386793 0.19008917346 0.18848744209 0.18647140813 
0.1839343721 0.18076498618 0.17685320963 0.17209724826 0.16641093432 0.15973071039 0.15202122638 0.14327861747 0.13353084637 
0.12283502038 0.1112721766 0.09894047328 0.085947897773 0.072405496721 0.058421862429 0.044099312738 0.029531965822 0.014805725864 
1.7500654454e-15 
_area 1 100 double
0 0.00058168477162 0.0023092353645 0.0051312419641 0.0089658404474 0.013706756509 0.01923183843 0.025413283485 0.032128025346 
0.039266234599 0.046735746334 0.054460622754 0.062373252038 0.070401538662 0.07845527269 0.086417110584 0.094142479475 0.10146973391 
0.10823890188 0.11431547403 0.11961476594 0.12412181941 0.12790138484 0.13109296586 0.13388878094 0.1364985003 0.13911082705 
0.14186276534 0.14482178192 0.14798056549 0.15126259473 0.15453555741 0.15762761782 0.16034254877 0.16247376536 0.16381980813 
0.1642028564 0.16348914232 0.16160793476 0.15856511724 0.15444826495 0.14942196292 0.14371402203 0.13759430148 0.1313477074 
0.12524284273 0.11950021831 0.11426729482 0.10960421781 0.10548002848 0.10178907522 0.098398414313 0.095207973345 0.092190965539 
0.08941014633 0.087031185994 0.085231759244 0.08420554256 0.083886015502 0.084132280678 0.08475917544 0.08558829446 0.086467069264 
0.087272817142 0.087912812578 0.088322954768 0.088464357518 0.088317226559 0.087875728162 0.087149970732 0.086176148531 0.085028685251 
0.083826467106 0.082728009386 0.081912974845 0.081540522586 0.081662086595 0.082159236595 0.082818488625 0.083412158219 0.08372032852 
0.083536700897 0.082671763769 0.080955501611 0.078245361145 0.074444382676 0.06952625543 0.06355633901 0.056698444015 0.049204074806 
0.041387097765 0.03358977686 0.026146648759 0.019351981781 0.013435339599 0.0085485188999 0.0047659280287 0.0020988441602 0.00052115041551 
5.8147911275e-17 
