# vtk DataFile Version 5.1
vtk output
ASCII
DATASET POLYDATA
POINTS 100 float
0.102736 0.0367451 0.658493 0.102974 0.0370102 0.658319 0.103725 0.0376481 0.657658 
0.104903 0.0386128 0.656513 0.106377 0.0398336 0.654887 0.107983 0.041223 0.652775 
0.109548 0.0426856 0.650169 0.110904 0.0441275 0.647045 0.111911 0.0454654 0.643368 
0.112466 0.046634 0.639089 0.112513 0.0475906 0.634147 0.11204 0.0483175 0.628474 
0.111079 0.0488201 0.622002 0.109688 0.0491238 0.614671 0.10794 0.0492671 0.606437 
0.105906 0.0492945 0.59728 0.103637 0.0492486 0.58721 0.101159 0.0491632 0.576269 
0.0984592 0.0490578 0.564534 0.0954917 0.0489345 0.552111 0.0921818 0.0487779 0.539132 
0.0884382 0.0485571 0.525739 0.0841676 0.048231 0.512079 0.0792916 0.0477542 0.498293 
0.0737612 0.0470847 0.484499 0.067568 0.0461911 0.470788 0.0607495 0.0450587 0.45722 
0.0533878 0.0436943 0.443816 0.0456017 0.0421284 0.430563 0.0375332 0.0404145 0.417417 
0.0293293 0.0386266 0.404313 0.0211233 0.0368537 0.391167 0.013017 0.0351934 0.377891 
0.00506689 0.0337445 0.364401 -0.00272301 0.0325992 0.350617 -0.0104012 0.0318362 0.336477 
-0.0180605 0.0315155 0.321931 -0.0258222 0.0316746 0.306941 -0.0338155 0.0323268 0.291481 
-0.0421538 0.0334618 0.275531 -0.050911 0.035047 0.259073 -0.0601019 0.037032 0.242084 
-0.0696683 0.039352 0.224539 -0.0794737 0.0419329 0.206406 -0.0893079 0.0446958 0.187653 
-0.0988999 0.0475615 0.168248 -0.10794 0.0504532 0.148165 -0.116107 0.0533003 0.127395 
-0.123096 0.0560396 0.105949 -0.128651 0.0586172 0.0838606 -0.132585 0.0609889 0.0611949 
-0.134799 0.0631212 0.0380431 -0.13529 0.0649916 0.0145214 -0.13415 0.0665883 -0.00923555 
-0.131552 0.0679105 -0.0330837 -0.127733 0.0689675 -0.0568793 -0.122964 0.069778 -0.0804892 
-0.117526 0.0703688 -0.1038 -0.111681 0.0707718 -0.126727 -0.105647 0.071022 -0.149215 
-0.0995849 0.0711537 -0.171241 -0.093584 0.0711968 -0.192811 -0.0876655 0.0711733 -0.213954 
-0.0817895 0.0710941 -0.234714 -0.0758697 0.070957 -0.255137 -0.0697928 0.0707453 -0.275266 
-0.0634396 0.0704284 -0.295127 -0.0567059 0.069964 -0.314728 -0.0495192 0.0693016 -0.334052 
-0.0418505 0.0683875 -0.35306 -0.0337202 0.0671699 -0.37169 -0.025197 0.065605 -0.389869 
-0.0163907 0.0636621 -0.407516 -0.00744154 0.0613276 -0.424553 0.00149414 0.0586073 -0.440911 
0.0102582 0.055527 -0.456541 0.018704 0.0521305 -0.471411 0.0267063 0.0484763 -0.485511 
0.0341678 0.044632 -0.498853 0.041021 0.0406686 -0.511462 0.0472264 0.0366537 -0.523374 
0.0527677 0.0326464 -0.534626 0.0576451 0.0286923 -0.54525 0.0618684 0.0248216 -0.555269 
0.0654513 0.0210485 -0.564692 0.0684077 0.0173731 -0.573513 0.0707506 0.0137858 -0.581715 
0.0724937 0.010272 -0.58927 0.0736556 0.00681912 -0.596148 0.0742641 0.00342183 -0.60232 
0.0743625 8.76038e-05 -0.607768 0.0740124 -0.00315999 -0.612489 0.0732967 -0.00628011 -0.616492 
0.0723172 -0.00921582 -0.619808 0.0711911 -0.0118977 -0.62248 0.0700432 -0.0142492 -0.624562 
0.0689964 -0.0161938 -0.62611 0.0681608 -0.0176621 -0.62718 0.0676242 -0.0185986 -0.627815 
0.0674428 -0.0189678 -0.628042 
LINES 2 100
OFFSETS vtktypeint64
0 100 
CONNECTIVITY vtktypeint64
0 1 2 3 4 5 6 7 8 
9 10 11 12 13 14 15 16 17 
18 19 20 21 22 23 24 25 26 
27 28 29 30 31 32 33 34 35 
36 37 38 39 40 41 42 43 44 
45 46 47 48 49 50 51 52 53 
54 55 56 57 58 59 60 61 62 
63 64 65 66 67 68 69 70 71 
72 73 74 75 76 77 78 79 80 
81 82 83 84 85 86 87 88 89 
90 91 92 93 94 95 96 97 98 
99 
POINT_DATA 100
FIELD FieldData 3
_theta 1 100 double
0 0.031733259127 0.063466518254 0.095199777382 0.12693303651 0.15866629564 0.19039955476 0.22213281389 0.25386607302 
0.28559933214 0.31733259127 0.3490658504 0.38079910953 0.41253236865 0.44426562778 0.47599888691 0.50773214603 0.53946540516 
0.57119866429 0.60293192342 0.63466518254 0.66639844167 0.6981317008 0.72986495992 0.76159821905 0.79333147818 0.82506473731 
0.85679799643 0.88853125556 0.92026451469 0.95199777382 0.98373103294 1.0154642921 1.0471975512 1.0789308103 1.1106640695 
1.1423973286 1.1741305877 1.2058638468 1.237597106 1.2693303651 1.3010636242 1.3327968833 1.3645301425 1.3962634016 
1.4279966607 1.4597299198 1.491463179 1.5231964381 1.5549296972 1.5866629564 1.6183962155 1.6501294746 1.6818627337 
1.7135959929 1.745329252 1.7770625111 1.8087957702 1.8405290294 1.8722622885 1.9039955476 1.9357288068 1.9674620659 
1.999195325 2.0309285841 2.0626618433 2.0943951024 2.1261283615 2.1578616206 2.1895948798 2.2213281389 2.253061398 
2.2847946572 2.3165279163 2.3482611754 2.3799944345 2.4117276937 2.4434609528 2.4751942119 2.506927471 2.5386607302 
2.5703939893 2.6021272484 2.6338605076 2.6655937667 2.6973270258 2.7290602849 2.7607935441 2.7925268032 2.8242600623 
2.8559933214 2.8877265806 2.9194598397 2.9511930988 2.982926358 3.0146596171 3.0463928762 3.0781261353 3.1098593945 
3.1415926536 
_radius 1 100 double
8.9959755593e-16 0.014119601787 0.028112083016 0.041854678133 0.055238415413 0.068172139598 0.080583762068 0.092419024191 0.10363857553 
0.11421436214 0.12412617787 0.13335889347 0.14190056148 0.1497414608 0.15687418878 0.16329496016 0.1690061244 0.17401950901 
0.17835971719 0.18206627789 0.1851937921 0.18780986757 0.18999135202 0.19181981598 0.19337724688 0.19474252126 0.19598857544 
0.1971795785 0.19836716919 0.1995851938 0.20084335302 0.20212136673 0.20336606119 0.20449356939 0.20539748893 0.20596195234 
0.20607706933 0.20565373962 0.20463541626 0.2030055759 0.20079083395 0.1980603457 0.19492214882 0.19151657724 0.18800628303 
0.18456236071 0.18134706844 0.17849559018 0.17610108607 0.17420732587 0.17281095535 0.17187219508 0.17133020675 0.17111823688 
0.17117414083 0.17144400969 0.17187970231 0.17243358084 0.17305424467 0.17368556497 0.17426920227 0.17474934377 0.17507798052 
0.17521938446 0.17515310859 0.17487539115 0.17439910711 0.1737524926 0.17297686733 0.17212346364 0.17124930161 0.17041200402 
0.16966360577 0.16904368849 0.16857240669 0.16824407146 0.16802192602 0.16783468264 0.16757542152 0.1671036118 0.16625111819 
0.16483278503 0.16266137438 0.15956545969 0.1554077906 0.15010106813 0.14361820153 0.13599492401 0.12732394866 0.11774139526 
0.10740773535 0.09648672593 0.08512645916 0.073446403363 0.06153287199 0.049442923889 0.037214132005 0.024876069784 0.012459401947 
1.0705892472e-15 
_area 1 100 double
0 0.00047338916544 0.001879942863 0.0041797299368 0.0073090071771 0.0111837044 0.015703077844 0.020752983005 0.02620892125 
0.031939597318 0.037811553226 0.043694532843 0.04946639242 0.055016573344 0.060248585138 0.065083539877 0.069466714714 0.073376095958 
0.076826608043 0.079862304333 0.082541047647 0.084928046594 0.087100421144 0.089151820276 0.091190883383 0.093331349498 0.095670986644 
0.0982609204 0.10108289793 0.10405707732 0.1070744288 0.11002499725 0.11280673325 0.11532402085 0.11749414795 0.11919801905 
0.12025086868 0.12051531653 0.11993300504 0.11847446606 0.11619165373 0.11321558237 0.10974314603 0.10601606577 0.10228963081 
0.098794360105 0.095699128829 0.093086374509 0.09094689394 0.089197234145 0.087718631032 0.086410050323 0.085231583701 0.08419470032 
0.083303917166 0.082535500966 0.081841058048 0.0811410772 0.08033931264 0.079356637656 0.078156022813 0.076745867755 0.075164587896 
0.073458681977 0.071670811315 0.069843508777 0.068028455209 0.066300494802 0.064804266004 0.063636292683 0.06273846469 0.062022432054 
0.061505235742 0.061199788887 0.061155742178 0.061413096618 0.061985884386 0.062856951346 0.063964789935 0.06512607927 0.066055857646 
0.066474005676 0.066129732108 0.064819346591 0.062415457528 0.058892602826 0.054338101083 0.048943102299 0.042975137685 0.036738375623 
0.030530432963 0.024605137761 0.01914956619 0.014280841292 0.010062456503 0.0065313501696 0.0037211138213 0.0016708727509 0.00042050028001 
3.0154359713e-17 
