# vtk DataFile Version 5.1
vtk output
ASCII
DATASET POLYDATA
POINTS 100 float
0.0816684 0.0581802 0.697279 0.0819278 0.0582646 0.696914 0.0827146 0.0583333 0.695681 
0.0839631 0.058382 0.693595 0.0855702 0.0584059 0.690678 0.087404 0.0584004 0.68696 
0.0893149 0.0583631 0.682474 0.0911475 0.0582945 0.677256 0.0927527 0.0581991 0.671342 
0.0939982 0.0580853 0.664767 0.0947765 0.0579646 0.657562 0.0950105 0.0578498 0.649758 
0.0946551 0.0577529 0.641384 0.0936962 0.0576824 0.632473 0.0921468 0.0576404 0.623055 
0.0900403 0.057621 0.61317 0.0874238 0.0576084 0.602859 0.0843503 0.0575769 0.592168 
0.0808721 0.0574924 0.581149 0.0770359 0.0573145 0.569851 0.0728793 0.0570003 0.558323 
0.0684298 0.0565091 0.546611 0.0637065 0.0558069 0.534747 0.0587223 0.0548715 0.522752 
0.0534882 0.0536953 0.510634 0.0480169 0.0522889 0.498384 0.0423267 0.0506807 0.485976 
0.0364436 0.0489168 0.473374 0.030402 0.0470572 0.46053 0.0242437 0.0451717 0.447392 
0.0180151 0.0433345 0.433907 0.0117629 0.0416178 0.420028 0.00552914 0.040086 0.405715 
-0.000653139 0.038791 0.390939 -0.00676427 0.0377684 0.375682 -0.0128 0.0370359 0.359938 
-0.0187718 0.0365935 0.343709 -0.0247043 0.0364258 0.327004 -0.0306311 0.0365056 0.309829 
-0.0365878 0.0367991 0.292191 -0.0426043 0.0372715 0.274088 -0.048696 0.0378917 0.25551 
-0.054857 0.0386372 0.236438 -0.061053 0.0394969 0.216847 -0.0672184 0.040472 0.196707 
-0.0732555 0.0415758 0.17599 -0.0790379 0.0428306 0.154676 -0.0844163 0.0442639 0.132759 
-0.0892286 0.0459034 0.11025 -0.0933106 0.0477712 0.0871832 -0.096509 0.0498796 0.063618 
-0.0986933 0.0522261 0.0396365 -0.0997668 0.0547914 0.015341 -0.0996752 0.0575386 -0.00915184 
-0.098411 0.0604141 -0.0337183 -0.0960146 0.0633508 -0.0582363 -0.0925713 0.0662723 -0.0825935 
-0.088204 0.0690982 -0.106695 -0.0830634 0.0717498 -0.130469 -0.0773155 0.0741554 -0.15387 
-0.0711286 0.076255 -0.176879 -0.0646603 0.078003 -0.199501 -0.0580463 0.0793701 -0.22176 
-0.0513922 0.0803432 -0.243692 -0.0447675 0.0809235 -0.265338 -0.0382049 0.0811236 -0.286732 
-0.0317026 0.0809637 -0.307901 -0.02523 0.0804678 -0.32885 -0.0187364 0.0796594 -0.349567 
-0.0121613 0.0785584 -0.370018 -0.00544552 0.0771792 -0.390149 0.00145865 0.0755295 -0.409891 
0.00857832 0.073611 -0.429164 0.0159136 0.0714206 -0.447888 0.0234343 0.0689531 -0.465984 
0.0310793 0.0662044 -0.483384 0.0387599 0.0631744 -0.500033 0.0463654 0.05987 -0.515894 
0.0537708 0.0563075 -0.530946 0.0608459 0.0525139 -0.545183 0.0674649 0.0485272 -0.558613 
0.0735155 0.0443953 -0.571252 0.078906 0.0401748 -0.583119 0.0835714 0.0359277 -0.594234 
0.087477 0.031719 -0.604614 0.0906187 0.0276125 -0.614269 0.0930222 0.0236685 -0.623206 
0.0947392 0.0199401 -0.631423 0.0958426 0.0164718 -0.638918 0.0964205 0.0132974 -0.645688 
0.0965703 0.0104399 -0.651731 0.0963921 0.00791155 -0.657052 0.0959838 0.00571493 -0.661661 
0.0954367 0.00384453 -0.665576 0.094832 0.00228885 -0.66882 0.0942394 0.00103271 -0.671421 
0.0937156 5.96137e-05 -0.67341 0.0933045 -0.000645998 -0.674813 0.0930369 -0.00109682 -0.675653 
0.0929316 -0.00130113 -0.675945 
LINES 2 100
OFFSETS vtktypeint64
0 100 
CONNECTIVITY vtktypeint64
0 1 2 3 4 5 6 7 8 
9 10 11 12 13 14 15 16 17 
18 19 20 21 22 23 24 25 26 
27 28 29 30 31 32 33 34 35 
36 37 38 39 40 41 42 43 44 
45 46 47 48 49 50 51 52 53 
54 55 56 57 58 59 60 61 62 
63 64 65 66 67 68 69 70 71 
72 73 74 75 76 77 78 79 80 
81 82 83 84 85 86 87 88 89 
90 91 92 93 94 95 96 97 98 
99 
POINT_DATA 100
FIELD FieldData 3
_theta 1 100 double
0 0.031733259127 0.063466518254 0.095199777382 0.12693303651 0.15866629564 0.19039955476 0.22213281389 0.25386607302 
0.28559933214 0.31733259127 0.3490658504 0.38079910953 0.41253236865 0.44426562778 0.47599888691 0.50773214603 0.53946540516 
0.57119866429 0.60293192342 0.63466518254 0.66639844167 0.6981317008 0.72986495992 0.76159821905 0.79333147818 0.82506473731 
0.85679799643 0.88853125556 0.92026451469 0.95199777382 0.98373103294 1.0154642921 1.0471975512 1.0789308103 1.1106640695 
1.1423973286 1.1741305877 1.2058638468 1.237597106 1.2693303651 1.3010636242 1.3327968833 1.3645301425 1.3962634016 
1.4279966607 1.4597299198 1.491463179 1.5231964381 1.5549296972 1.5866629564 1.6183962155 1.6501294746 1.6818627337 
1.7135959929 1.745329252 1.7770625111 1.8087957702 1.8405290294 1.8722622885 1.9039955476 1.9357288068 1.9674620659 
1.999195325 2.0309285841 2.0626618433 2.0943951024 2.1261283615 2.1578616206 2.1895948798 2.2213281389 2.253061398 
2.2847946572 2.3165279163 2.3482611754 2.3799944345 2.4117276937 2.4434609528 2.4751942119 2.506927471 2.5386607302 
2.5703939893 2.6021272484 2.6338605076 2.6655937667 2.6973270258 2.7290602849 2.7607935441 2.7925268032 2.8242600623 
2.8559933214 2.8877265806 2.9194598397 2.9511930988 2.982926358 3.0146596171 3.0463928762 3.0781261353 3.1098593945 
3.1415926536 
_radius 1 100 double
5.825365707e-16 0.014559359208 0.028985120337 0.043145076185 0.056924794547 0.07023411974 0.083010769049 0.095220782785 0.10685605882 
0.11792959558 0.12846931555 0.13851142081 0.14809415714 0.15725267155 0.16601539007 0.17440207223 0.18242345967 0.19008225131 
0.19737501033 0.20429454392 0.21083230381 0.2169804404 0.2227332817 0.22808814598 0.23304547184 0.23760824362 0.24178065099 
0.24556594538 0.2489636193 0.25196633158 0.2545573078 0.25670907333 0.25838418876 0.25953818686 0.26012435324 0.26009958245 
0.2594303927 0.25809826848 0.25610371827 0.25346869594 0.25023728896 0.24647480139 0.24226552883 0.23770960967 0.23291932328 
0.22801510224 0.22312137077 0.21836216903 0.21385642251 0.20971271402 0.20602357878 0.20285973286 0.20026519359 0.19825460813 
0.19681376979 0.19590313467 0.19546283058 0.19541728113 0.19567860566 0.19614960295 0.19672796279 0.19731264715 0.19781179739 
0.19815040303 0.19827605722 0.19816201099 0.19780748092 0.19723534611 0.19648738167 0.19561743722 0.19468337913 0.19373888129 
0.19282614372 0.19197032928 0.19117597451 0.19042502462 0.18967579449 0.18886233143 0.18789428454 0.18665806184 0.18502031417 
0.18283443488 0.17994998668 0.17622413447 0.17153358634 0.16578535194 0.15892479996 0.15093994747 0.14186152837 0.1317590305 
0.12073342568 0.10890765389 0.096416051557 0.083393897344 0.069968157705 0.056250372036 0.042332388692 0.028285317818 0.014161640045 
8.466606026e-16 
_area 1 100 double
0 0.00060878520278 0.0024075593096 0.005316732768 0.0092136144202 0.013945472182 0.019344383459 0.025241267866 0.031477019865 
0.03790996972 0.044420482095 0.050914365616 0.057326286287 0.063623033535 0.069805317512 0.075906293378 0.081985070901 0.08811395537 
0.094359696677 0.10076281962 0.10732404406 0.11400628639 0.12075093189 0.12749764183 0.13419759666 0.14081660292 0.1473292701 
0.15370653246 0.15989884546 0.16582012276 0.17134146308 0.17630149596 0.18053006782 0.18387337746 0.18620917279 0.18744881067 
0.18753216403 0.18642462175 0.18412159691 0.1806599099 0.17613126358 0.17069125655 0.16455744334 0.15799179053 0.15126760099 
0.14463010533 0.1382679732 0.13230656066 0.1268157446 0.12181838666 0.1172949105 0.11318990428 0.10942784313 0.10593819235 
0.10268388176 0.099689893997 0.097189136686 0.095373642288 0.094000476178 0.092935374205 0.092074646617 0.091323724423 0.090597736878 
0.089809941896 0.088873605743 0.087711081231 0.086271847299 0.084554938538 0.082623949378 0.080606680029 0.078678609096 0.077029334216 
0.07582019582 0.075136998255 0.07497500706 0.075267290728 0.075930678304 0.07687113598 0.077956206602 0.078992712805 0.079729454928 
0.079885079029 0.079189420412 0.077425791255 0.074465411642 0.070288260737 0.064987083902 0.058754231654 0.051854488136 0.044590166769 
0.037266227286 0.030162134051 0.023513998461 0.017506985336 0.012275947113 0.0079120501848 0.0044731813168 0.0019950821169 0.00049981952417 
1.1103588477e-16 
