# vtk DataFile Version 5.1
vtk output
ASCII
DATASET POLYDATA
POINTS 100 float
0.0768226 0.0476114 0.683963 0.0771038 0.0477426 0.683803 0.0779708 0.0479602 0.683166 
0.0793435 0.0482673 0.682067 0.0810979 0.0486681 0.680528 0.0830783 0.0491659 0.67857 
0.0851122 0.0497607 0.676205 0.0870271 0.0504468 0.673434 0.088666 0.0512119 0.67024 
0.089901 0.0520368 0.666583 0.0906433 0.0528962 0.662405 0.0908474 0.0537612 0.657631 
0.090512 0.0546027 0.652181 0.0896746 0.0553945 0.645974 0.0884026 0.0561172 0.638941 
0.0867816 0.0567603 0.631037 0.0849023 0.0573234 0.622246 0.0828476 0.0578158 0.612584 
0.0806819 0.0582533 0.602107 0.0784433 0.0586547 0.590899 0.0761392 0.059036 0.579071 
0.0737466 0.059405 0.566748 0.0712163 0.0597564 0.554054 0.0684802 0.0600678 0.541107 
0.0654601 0.0602988 0.528 0.0620784 0.0603922 0.514798 0.0582675 0.0602789 0.501533 
0.0539772 0.0598843 0.488203 0.0491803 0.0591379 0.474777 0.0438742 0.0579831 0.461206 
0.0380793 0.056387 0.447427 0.0318353 0.0543487 0.433383 0.0251942 0.0519045 0.419025 
0.0182131 0.0491295 0.404327 0.010947 0.0461356 0.389284 0.00344249 0.0430642 0.373918 
-0.00426597 0.0400764 0.358266 -0.0121572 0.0373396 0.342379 -0.0202215 0.0350139 0.326307 
-0.0284559 0.0332376 0.310088 -0.0368574 0.0321158 0.293738 -0.0454153 0.0317117 0.277241 
-0.0541029 0.0320417 0.260547 -0.0628708 0.0330762 0.243571 -0.0716425 0.0347443 0.226199 
-0.0803129 0.0369426 0.208301 -0.0887499 0.0395468 0.189743 -0.0968 0.0424245 0.1704 
-0.104297 0.0454481 0.15018 -0.111072 0.0485051 0.129028 -0.116967 0.051506 0.106942 
-0.121844 0.0543886 0.0839724 -0.125597 0.0571171 0.0602249 -0.128162 0.059679 0.0358481 
-0.129517 0.0620779 0.0110229 -0.129685 0.0643253 -0.0140541 -0.128732 0.0664319 -0.0391893 
-0.126758 0.0683999 -0.0642084 -0.12389 0.0702183 -0.0889717 -0.120267 0.0718603 -0.113384 
-0.116032 0.0732849 -0.137399 -0.111319 0.0744411 -0.161018 -0.106244 0.0752752 -0.184281 
-0.1009 0.075738 -0.20726 -0.0953492 0.0757939 -0.230037 -0.0896297 0.0754261 -0.252693 
-0.0837536 0.0746413 -0.27529 -0.0777149 0.0734697 -0.297863 -0.071497 0.0719618 -0.320408 
-0.065081 0.0701819 -0.342879 -0.0584544 0.0681991 -0.365196 -0.0516172 0.0660771 -0.387245 
-0.0445876 0.0638644 -0.408893 -0.0374044 0.0615867 -0.429999 -0.0301265 0.0592422 -0.450428 
-0.0228301 0.0568012 -0.470061 -0.0156039 0.0542104 -0.488803 -0.0085422 0.0514014 -0.506591 
-0.00173793 0.0483022 -0.523389 0.00472484 0.0448508 -0.53919 0.0107771 0.0410086 -0.554008 
0.0163697 0.0367717 -0.567868 0.0214759 0.0321789 -0.580798 0.0260921 0.0273143 -0.592823 
0.0302359 0.0223037 -0.60396 0.0339419 0.0173065 -0.614213 0.0372574 0.0125011 -0.623573 
0.0402354 0.00806811 -0.632028 0.0429289 0.00417142 -0.639562 0.0453849 0.000940619 -0.646165 
0.0476398 -0.00154372 -0.65184 0.0497165 -0.0032595 -0.656609 0.0516229 -0.00424617 -0.660515 
0.0533524 -0.00460058 -0.663623 0.0548865 -0.00446628 -0.666014 0.0561981 -0.00401699 -0.667784 
0.057256 -0.00343652 -0.669027 0.0580297 -0.00289713 -0.669832 0.0584939 -0.00253925 -0.670271 
0.058632 -0.00245476 -0.670392 
LINES 2 100
OFFSETS vtktypeint64
0 100 
CONNECTIVITY vtktypeint64
0 1 2 3 4 5 6 7 8 
9 10 11 12 13 14 15 16 17 
18 19 20 21 22 23 24 25 26 
27 28 29 30 31 32 33 34 35 
36 37 38 39 40 41 42 43 44 
45 46 47 48 49 50 51 52 53 
54 55 56 57 58 59 60 61 62 
63 64 65 66 67 68 69 70 71 
72 73 74 75 76 77 78 79 80 
81 82 83 84 85 86 87 88 89 
90 91 92 93 94 95 96 97 98 
99 
POINT_DATA 100
FIELD FieldData 3
_theta 1 100 double
0 0.031733259127 0.063466518254 0.095199777382 0.12693303651 0.15866629564 0.19039955476 0.22213281389 0.25386607302 
0.28559933214 0.31733259127 0.3490658504 0.38079910953 0.41253236865 0.44426562778 0.47599888691 0.50773214603 0.53946540516 
0.57119866429 0.60293192342 0.63466518254 0.66639844167 0.6981317008 0.72986495992 0.76159821905 0.79333147818 0.82506473731 
0.85679799643 0.88853125556 0.92026451469 0.95199777382 0.98373103294 1.0154642921 1.0471975512 1.0789308103 1.1106640695 
1.1423973286 1.1741305877 1.2058638468 1.237597106 1.2693303651 1.3010636242 1.3327968833 1.3645301425 1.3962634016 
1.4279966607 1.4597299198 1.491463179 1.5231964381 1.5549296972 1.5866629564 1.6183962155 1.6501294746 1.6818627337 
1.7135959929 1.745329252 1.7770625111 1.8087957702 1.8405290294 1.8722622885 1.9039955476 1.9357288068 1.9674620659 
1.999195325 2.0309285841 2.0626618433 2.0943951024 2.1261283615 2.1578616206 2.1895948798 2.2213281389 2.253061398 
2.2847946572 2.3165279163 2.3482611754 2.3799944345 2.4117276937 2.4434609528 2.4751942119 2.506927471 2.5386607302 
2.5703939893 2.6021272484 2.6338605076 2.6655937667 2.6973270258 2.7290602849 2.7607935441 2.7925268032 2.8242600623 
2.8559933214 2.8877265806 2.9194598397 2.9511930988 2.982926358 3.0146596171 3.0463928762 3.0781261353 3.1098593945 
3.1415926536 
_radius 1 100 double
8.920730088e-16 0.01478504508 0.029452939422 0.043890669898 0.058001474344 0.071709640334 0.084961774491 0.097724546531 0.10997974109 
0.12171811987 0.13293380706 0.14362048616 0.15376979935 0.16337144105 0.17241398472 0.18088558125 0.18877411224 0.19606687992 
0.20275025587 0.20880982033 0.2142314427 0.21900355404 0.22312057341 0.22658707889 0.22942192045 0.23166119698 0.23335901964 
0.23458533795 0.23542075827 0.23594904252 0.23624855207 0.23638403343 0.23639978083 0.2363146459 0.23611905616 0.23577435767 
0.23521512597 0.23435511055 0.23309699794 0.23134541287 0.22902183986 0.22607959147 0.22251660122 0.2183837385 0.21378665655 
0.20887998297 0.20385388154 0.19891445985 0.19426093054 0.19006355425 0.18644674471 0.18348079996 0.18118345115 0.17952949523 
0.17846446873 0.17791766929 0.17781095203 0.17806182751 0.17858160021 0.17927137595 0.18002048504 0.18071165893 0.18123361491 
0.18149662414 0.18144482251 0.18106165284 0.18036859783 0.17941935278 0.17829159411 0.17707762368 0.17587432376 0.1747724576 
0.17384549051 0.17313878318 0.17266103011 0.17238032062 0.17222603305 0.17209532166 0.1718613618 0.17138099236 0.17050103502 
0.1690639867 0.16691432285 0.16390633658 0.15991360033 0.1548391841 0.14862505276 0.14125880788 0.1327761855 0.12325839187 
0.11282428819 0.10161841691 0.089796671698 0.077511858875 0.064901363594 0.052078625612 0.039129281704 0.026111871769 0.013062196854 
1.0552433684e-15 
_area 1 100 double
0 0.00058736277446 0.0023203817237 0.0051181075331 0.0088645901248 0.013431290416 0.018698361279 0.024568696219 0.030971217026 
0.037853609682 0.045168187143 0.052856370419 0.060837005639 0.069002018152 0.077220579038 0.085350572153 0.093254241242 0.10081390535 
0.10794360083 0.11459337255 0.12074478911 0.12639903894 0.1315620513 0.13623316753 0.1404032494 0.14406378582 0.14722196806 
0.14991196823 0.15219391391 0.15413941501 0.15581106796 0.1572470709 0.15845890027 0.15944314952 0.16020276082 0.16076561432 
0.16115650143 0.16128798125 0.16094379002 0.15987995557 0.15787843667 0.15477520515 0.1504954948 0.14508824099 0.13874149151 
0.13176642566 0.12455024944 0.11749016617 0.11092863369 0.10510981256 0.10016436635 0.096114911568 0.092894419277 0.090379362028 
0.088432460514 0.086932981872 0.085780933931 0.084894877707 0.084283988852 0.083908688762 0.08391826789 0.084101696587 0.084262151376 
0.084245794903 0.08390858952 0.083149835572 0.08192701131 0.080255430959 0.078201466566 0.075874384293 0.073418941568 0.071007999605 
0.06882996903 0.067065778178 0.065859978917 0.065294736448 0.065367870994 0.065980647278 0.066945266964 0.068011620122 0.068902260933 
0.069344840859 0.069097870276 0.067970005019 0.065833844279 0.062635097889 0.058397716997 0.053224799306 0.04729402317 0.040845949276 
0.034164411021 0.027550177739 0.021291248495 0.015634621201 0.01076467293 0.0067923372454 0.003757405589 0.0016439728807 0.000406420323 
2.8412965102e-17 
