# vtk DataFile Version 5.1
vtk output
ASCII
DATASET POLYDATA
POINTS 100 float
0.0852387 0.0573193 0.69496 0.0851497 0.0573709 0.694762 0.0849283 0.0573454 0.694013 
0.0845902 0.0572545 0.69272 0.0841599 0.0571172 0.690891 0.0836678 0.0569566 0.688528 
0.0831468 0.0567975 0.685628 0.0826283 0.0566622 0.682174 0.0821381 0.0565679 0.678136 
0.0816927 0.0565228 0.67347 0.0812962 0.0565243 0.66812 0.080938 0.0565577 0.662024 
0.080592 0.0565958 0.655121 0.0802165 0.0566004 0.647361 0.0797563 0.0565249 0.638713 
0.0791452 0.0563178 0.629172 0.0783098 0.0559271 0.618766 0.0771744 0.0553053 0.607555 
0.0756656 0.0544142 0.595634 0.0737175 0.0532294 0.583122 0.0712764 0.0517433 0.570154 
0.0683043 0.0499676 0.556871 0.0647821 0.0479335 0.543406 0.0607104 0.0456904 0.529872 
0.0561099 0.0433037 0.516349 0.0510195 0.04085 0.50288 0.0454932 0.0384125 0.489469 
0.0395959 0.0360755 0.476077 0.0333986 0.033919 0.462638 0.0269724 0.0320138 0.449057 
0.0203832 0.0304185 0.435234 0.0136873 0.0291766 0.421067 0.00692686 0.0283165 0.406471 
0.000128122 0.0278522 0.391382 -0.00669942 0.0277858 0.375765 -0.0135616 0.0281103 0.359616 
-0.0204765 0.0288134 0.342955 -0.0274692 0.0298807 0.325822 -0.034566 0.0312984 0.308266 
-0.0417872 0.0330547 0.290332 -0.0491401 0.0351396 0.272055 -0.0566125 0.0375441 0.253445 
-0.0641676 0.040257 0.234489 -0.0717406 0.0432616 0.215147 -0.079238 0.046532 0.195354 
-0.0865392 0.0500295 0.175035 -0.0935014 0.0537004 0.154109 -0.0999663 0.0574746 0.132507 
-0.105769 0.0612672 0.110185 -0.110749 0.0649816 0.0871305 -0.11476 0.0685143 0.0633758 
-0.117682 0.071762 0.0389963 -0.119426 0.0746293 0.0141098 -0.119945 0.0770358 -0.0111311 
-0.119236 0.0789238 -0.036551 -0.117338 0.0802627 -0.0619662 -0.114331 0.0810523 -0.0872001 
-0.110328 0.0813223 -0.112098 -0.105467 0.0811289 -0.13654 -0.0998988 0.0805493 -0.160447 
-0.0937742 0.0796727 -0.183785 -0.0872352 0.0785908 -0.206564 -0.080403 0.077388 -0.228826 
-0.0733713 0.0761315 -0.250641 -0.0662016 0.0748647 -0.27209 -0.0589226 0.0736017 -0.29325 
-0.051533 0.0723271 -0.314187 -0.0440073 0.0709977 -0.33494 -0.0363046 0.0695488 -0.355522 
-0.0283783 0.0679024 -0.375916 -0.0201871 0.065978 -0.396079 -0.0117045 0.063703 -0.415948 
-0.00292715 0.0610236 -0.435451 0.00612043 0.0579128 -0.454515 0.0153833 0.054376 -0.473079 
0.0247776 0.0504529 -0.491098 0.0341957 0.046216 -0.508547 0.0435132 0.0417644 -0.525422 
0.0525988 0.0372161 -0.541738 0.0613242 0.0326973 -0.55752 0.0695745 0.028331 -0.572794 
0.0772569 0.0242267 -0.587579 0.0843067 0.0204711 -0.601881 0.0906912 0.0171219 -0.615679 
0.0964096 0.0142049 -0.628932 0.10149 0.0117146 -0.641573 0.105985 0.00961828 -0.653517 
0.10996 0.00786237 -0.664669 0.113491 0.00638141 -0.674933 0.116649 0.00510695 -0.684224 
0.119497 0.00397639 -0.692478 0.122081 0.00294002 -0.699659 0.124427 0.00196586 -0.705763 
0.126543 0.00104154 -0.710821 0.128416 0.00017329 -0.714889 0.130022 -0.000617701 -0.718044 
0.131324 -0.00130084 -0.720375 0.132289 -0.00184271 -0.721963 0.132883 -0.00221367 -0.72288 
0.133086 -0.00239336 -0.72317 
LINES 2 100
OFFSETS vtktypeint64
0 100 
CONNECTIVITY vtktypeint64
0 1 2 3 4 5 6 7 8 
9 10 11 12 13 14 15 16 17 
18 19 20 21 22 23 24 25 26 
27 28 29 30 31 32 33 34 35 
36 37 38 39 40 41 42 43 44 
45 46 47 48 49 50 51 52 53 
54 55 56 57 58 59 60 61 62 
63 64 65 66 67 68 69 70 71 
72 73 74 75 76 77 78 79 80 
81 82 83 84 85 86 87 88 89 
90 91 92 93 94 95 96 97 98 
99 
POINT_DATA 100
FIELD FieldData 3
_theta 1 100 double
0 0.031733259127 0.063466518254 0.095199777382 0.12693303651 0.15866629564 0.19039955476 0.22213281389 0.25386607302 
0.28559933214 0.31733259127 0.3490658504 0.38079910953 0.41253236865 0.44426562778 0.47599888691 0.50773214603 0.53946540516 
0.57119866429 0.60293192342 0.63466518254 0.66639844167 0.6981317008 0.72986495992 0.76159821905 0.79333147818 0.82506473731 
0.85679799643 0.88853125556 0.92026451469 0.95199777382 0.98373103294 1.0154642921 1.0471975512 1.0789308103 1.1106640695 
1.1423973286 1.1741305877 1.2058638468 1.237597106 1.2693303651 1.3010636242 1.3327968833 1.3645301425 1.3962634016 
1.4279966607 1.4597299198 1.491463179 1.5231964381 1.5549296972 1.5866629564 1.6183962155 1.6501294746 1.6818627337 
1.7135959929 1.745329252 1.7770625111 1.8087957702 1.8405290294 1.8722622885 1.9039955476 1.9357288068 1.9674620659 
1.999195325 2.0309285841 2.0626618433 2.0943951024 2.1261283615 2.1578616206 2.1895948798 2.2213281389 2.253061398 
2.2847946572 2.3165279163 2.3482611754 2.3799944345 2.4117276937 2.4434609528 2.4751942119 2.506927471 2.5386607302 
2.5703939893 2.6021272484 2.6338605076 2.6655937667 2.6973270258 2.7290602849 2.7607935441 2.7925268032 2.8242600623 
2.8559933214 2.8877265806 2.9194598397 2.9511930988 2.982926358 3.0146596171 3.0463928762 3.0781261353 3.1098593945 
3.1415926536 
_radius 1 100 double
1.3544180566e-16 0.013159283267 0.026369716225 0.039659316468 0.053029758489 0.066449828663 0.079854261862 0.093147268798 0.10620944191 
0.11890677343 0.13110091033 0.14266007631 0.1534700665 0.16344442601 0.17253261522 0.18072488463 0.18805282745 0.19458511368 
0.20041863278 0.20566606768 0.21044166635 0.21484750627 0.21896265386 0.22283711144 0.22649130152 0.22992037251 0.23310140573 
0.23600118411 0.23858265372 0.24080919923 0.24264680977 0.24406474811 0.24503539803 0.245533759 0.24553685738 0.24502331469 
0.24397343111 0.24237024734 0.24020197679 0.23746590252 0.23417339804 0.23035532013 0.22606677061 0.22139017522 0.21643573921 
0.21133854907 0.20625189576 0.20133689433 0.19674930601 0.19262563531 0.18907166063 0.18615662936 0.18391457378 0.18235103422 
0.18145081025 0.1811819086 0.1814929341 0.1823052643 0.18350597995 0.18494907269 0.18646802474 0.18789582831 0.18908546015 
0.18992587688 0.19035181745 0.1903473571 0.18994344364 0.18920971457 0.18824142119 0.18714324328 0.18601267408 0.18492594119 
0.18392884457 0.18303357208 0.1822209338 0.18144613002 0.1806456437 0.17974327606 0.17865442117 0.17728882865 0.17555280306 
0.17335179882 0.17059382232 0.16719331925 0.16307470244 0.15817461271 0.15244241475 0.14583909959 0.13833538563 0.12991012771 
0.12055006177 0.11025149061 0.099023908396 0.086894945969 0.073915557863 0.06016418416 0.045748752599 0.030805792994 0.015496485904 
4.3660680868e-16 
_area 1 100 double
0 0.00053466724254 0.0021405069912 0.0048196555976 0.0085657075487 0.013352647825 0.019125180734 0.025792890764 0.033228857443 
0.041272204751 0.049734138406 0.058407611905 0.067080778609 0.075553574167 0.083655745811 0.091263971945 0.098315394532 0.10481461753 
0.1108309602 0.11648319884 0.12191172104 0.12724371009 0.13256251066 0.13789167342 0.14319636321 0.14839672139 0.1533856379 
0.15804643452 0.16226912362 0.16596379535 0.16906807635 0.17154667049 0.17338494484 0.17458062565 0.17513466135 0.17503783835 
0.17425250589 0.17270164564 0.17028269231 0.16690473229 0.16252910959 0.15719715056 0.15104049343 0.14427549716 0.13718305839 
0.13007301959 0.12324059038 0.11694503144 0.1114292158 0.10693428968 0.1035856301 0.10121132266 0.099482176215 0.098139407599 
0.097038756199 0.096121850906 0.095392333116 0.094909624822 0.094787727822 0.095072796675 0.095673740401 0.096442080353 0.097063562103 
0.097277972913 0.096937395779 0.095990448026 0.094470666827 0.092459874696 0.090080989109 0.087515890726 0.084982781763 0.082692223543 
0.080808189039 0.079424124914 0.078555182711 0.078142852683 0.078068595654 0.078173843036 0.078281801864 0.078215226996 0.077806983932 
0.07690534134 0.075378840639 0.07312398222 0.070075040905 0.066212725395 0.06156863211 0.056224398246 0.05030633525 0.043977201541 
0.037426662094 0.030861285862 0.024494180865 0.01853406939 0.013174006563 0.0085808685708 0.0048875981113 0.0021901971951 0.00055007441067 
1.5078777729e-17 
