# vtk DataFile Version 5.1
vtk output
ASCII
DATASET POLYDATA
POINTS 100 float
0.112594 0.0382742 0.701001 0.112557 0.0384622 0.700632 0.112525 0.0388965 0.699416 
0.112475 0.0395613 0.697414 0.11237 0.0404319 0.69472 0.112162 0.0414767 0.691443 
0.111802 0.0426601 0.687691 0.111238 0.0439454 0.683559 0.110431 0.0452964 0.679108 
0.109348 0.04668 0.674355 0.107972 0.048066 0.669275 0.1063 0.0494276 0.663796 
0.104344 0.0507401 0.657812 0.102126 0.0519793 0.651197 0.0996724 0.0531202 0.643821 
0.097014 0.0541353 0.635572 0.0941754 0.0549942 0.626367 0.0911728 0.0556636 0.616172 
0.0880096 0.0561097 0.605002 0.0846743 0.0562995 0.592928 0.0811411 0.0562056 0.580066 
0.077371 0.0558092 0.566565 0.0733166 0.0551041 0.55259 0.0689267 0.0541002 0.538305 
0.0641524 0.052825 0.523853 0.0589539 0.0513239 0.50934 0.0533051 0.0496589 0.494827 
0.0471986 0.0479047 0.480324 0.0406477 0.0461439 0.465792 0.0336868 0.0444608 0.451153 
0.0263695 0.0429348 0.436304 0.0187651 0.0416342 0.421132 0.0109528 0.0406106 0.40553 
0.00301605 0.0398962 0.389412 -0.00496377 0.0395016 0.372724 -0.0129132 0.039417 0.355448 
-0.0207707 0.0396158 0.337599 -0.0284895 0.0400586 0.319225 -0.0360378 0.0407003 0.300389 
-0.043397 0.041496 0.281162 -0.0505586 0.0424072 0.261604 -0.0575182 0.0434067 0.241755 
-0.0642709 0.0444817 0.221631 -0.0708046 0.0456347 0.201213 -0.0770953 0.046882 0.180458 
-0.0831034 0.0482503 0.159303 -0.0887721 0.0497718 0.137677 -0.0940281 0.0514782 0.115518 
-0.0987844 0.0533946 0.0927871 -0.102945 0.0555349 0.0694782 -0.106413 0.057897 0.0456287 
-0.109094 0.0604616 0.0213209 -0.11091 0.0631917 -0.00332231 -0.1118 0.066035 -0.0281467 
-0.111729 0.0689272 -0.0529812 -0.110691 0.0717969 -0.0776555 -0.108706 0.0745708 -0.102017 
-0.105826 0.0771785 -0.125946 -0.102123 0.079556 -0.14937 -0.0976882 0.0816483 -0.172262 
-0.0926215 0.0834102 -0.194646 -0.0870268 0.0848057 -0.216587 -0.0810027 0.0858052 -0.238174 
-0.0746365 0.0863835 -0.259505 -0.0680001 0.0865164 -0.28067 -0.0611474 0.0861783 -0.301731 
-0.0541142 0.0853412 -0.322711 -0.0469206 0.083975 -0.343585 -0.0395754 0.0820492 -0.364281 
-0.0320816 0.0795368 -0.384685 -0.0244426 0.0764192 -0.404655 -0.0166691 0.0726908 -0.424038 
-0.00878372 0.0683647 -0.442688 -0.000825907 0.0634758 -0.460487 0.00714664 0.0580838 -0.477358 
0.0150578 0.0522719 -0.493275 0.0228156 0.0461449 -0.508265 0.0303162 0.0398232 -0.522403 
0.0374505 0.0334358 -0.535803 0.0441102 0.0271119 -0.548597 0.0501958 0.0209714 -0.560917 
0.0556227 0.0151168 -0.572875 0.0603273 0.00962679 -0.584544 0.0642712 0.00455171 -0.59595 
0.067443 -8.768e-05 -0.607061 0.0698591 -0.00429833 -0.617795 0.0715616 -0.00811023 -0.628026 
0.0726149 -0.0115694 -0.637605 0.0731012 -0.0147296 -0.646375 0.073115 -0.0176434 -0.654195 
0.0727572 -0.0203545 -0.660959 0.0721296 -0.0228911 -0.666612 0.0713305 -0.0252624 -0.671158 
0.0704503 -0.0274576 -0.674657 0.0695691 -0.0294479 -0.677221 0.0687549 -0.0311913 -0.679 
0.0680626 -0.0326384 -0.680157 0.0675346 -0.0337408 -0.680851 0.0672005 -0.0344571 -0.681214 
0.0670779 -0.0347597 -0.681331 
LINES 2 100
OFFSETS vtktypeint64
0 100 
CONNECTIVITY vtktypeint64
0 1 2 3 4 5 6 7 8 
9 10 11 12 13 14 15 16 17 
18 19 20 21 22 23 24 25 26 
27 28 29 30 31 32 33 34 35 
36 37 38 39 40 41 42 43 44 
45 46 47 48 49 50 51 52 53 
54 55 56 57 58 59 60 61 62 
63 64 65 66 67 68 69 70 71 
72 73 74 75 76 77 78 79 80 
81 82 83 84 85 86 87 88 89 
90 91 92 93 94 95 96 97 98 
99 
POINT_DATA 100
FIELD FieldData 3
_theta 1 100 double
0 0.031733259127 0.063466518254 0.095199777382 0.12693303651 0.15866629564 0.19039955476 0.22213281389 0.25386607302 
0.28559933214 0.31733259127 0.3490658504 0.38079910953 0.41253236865 0.44426562778 0.47599888691 0.50773214603 0.53946540516 
0.57119866429 0.60293192342 0.63466518254 0.66639844167 0.6981317008 0.72986495992 0.76159821905 0.79333147818 0.82506473731 
0.85679799643 0.88853125556 0.92026451469 0.95199777382 0.98373103294 1.0154642921 1.0471975512 1.0789308103 1.1106640695 
1.1423973286 1.1741305877 1.2058638468 1.237597106 1.2693303651 1.3010636242 1.3327968833 1.3645301425 1.3962634016 
1.4279966607 1.4597299198 1.491463179 1.5231964381 1.5549296972 1.5866629564 1.6183962155 1.6501294746 1.6818627337 
1.7135959929 1.745329252 1.7770625111 1.8087957702 1.8405290294 1.8722622885 1.9039955476 1.9357288068 1.9674620659 
1.999195325 2.0309285841 2.0626618433 2.0943951024 2.1261283615 2.1578616206 2.1895948798 2.2213281389 2.253061398 
2.2847946572 2.3165279163 2.3482611754 2.3799944345 2.4117276937 2.4434609528 2.4751942119 2.506927471 2.5386607302 
2.5703939893 2.6021272484 2.6338605076 2.6655937667 2.6973270258 2.7290602849 2.7607935441 2.7925268032 2.8242600623 
2.8559933214 2.8877265806 2.9194598397 2.9511930988 2.982926358 3.0146596171 3.0463928762 3.0781261353 3.1098593945 
3.1415926536 
_radius 1 100 double
2.3916546437e-16 0.015579942021 0.030993213368 0.04608419817 0.060719834355 0.074796754832 0.088244308017 0.1010234454 0.11312216529 
0.12454866326 0.13532352125 0.14547221788 0.15501901678 0.16398289002 0.17237558661 0.1802014284 0.18745817008 0.194138422 
0.20023155016 0.20572631796 0.210614561 0.21489583141 0.21858237891 0.22170334662 0.22430691379 0.22645940521 0.2282410106 
0.22973850963 0.23103605545 0.23220545805 0.23329744957 0.23433514842 0.2353105011 0.23618402634 0.23688782444 0.23733157856 
0.23741113302 0.23701911789 0.23605693577 0.23444722083 0.23214566766 0.22915098656 0.22551173219 0.22132888543 0.21675332988 
0.21197775147 0.20722303893 0.20272002854 0.19868841636 0.19531567791 0.19273944437 0.19103639011 0.19021902617 0.19023948597 
0.1909977624 0.19235188464 0.19412892984 0.19613727052 0.19818088192 0.20007565474 0.20166621567 0.20284073738 0.20354112755 
0.20376669802 0.20357051609 0.20304879517 0.20232474109 0.20152917553 0.20078090265 0.20016995283 0.19974629021 0.19951527029 
0.19943943123 0.19944477524 0.19942917857 0.19927111103 0.1988379629 0.1979941962 0.19660974487 0.19456861418 0.19177691323 
0.18816907724 0.18371104405 0.17839959663 0.17225776973 0.16532693692 0.15765680831 0.14929500384 0.14027806712 0.1306256877 
0.12033944539 0.10940658385 0.097808289806 0.08553095653 0.072578234043 0.058981503742 0.044806768438 0.030156674822 0.015167275115 
5.2668371025e-16 
_area 1 100 double
0 0.0005502177112 0.0021803768376 0.0048324042479 0.00841983192 0.012840066888 0.017986442493 0.023757227978 0.030059899382 
0.036810217421 0.043926971142 0.051324860027 0.058909302655 0.066576488428 0.074219436796 0.081737985091 0.089049171697 0.096094406811 
0.10284042997 0.10927241807 0.11538070096 0.12114737801 0.12654197919 0.1315306488 0.13609277681 0.1402326029 0.1439771254 
0.14736238967 0.15041955695 0.15317087361 0.15563456711 0.15782953449 0.15977226783 0.16146486141 0.16287853903 0.16394019382 
0.16452951316 0.16449100547 0.16365957166 0.16189291588 0.15910190345 0.15527169643 0.15047052639 0.14484683631 0.13861763746 
0.13205121857 0.12544664957 0.11911166388 0.11334017807 0.10839179204 0.10447979667 0.10177918946 0.10037452077 0.10007489417 
0.10057812683 0.10160649972 0.10289312439 0.10417893945 0.10522732157 0.10584647766 0.10590905137 0.10536180375 0.10422431664 
0.10257900445 0.10055489825 0.098308084513 0.096002572296 0.093794060315 0.091816286284 0.090169863628 0.088917439025 0.088089360553 
0.087696725658 0.087740324691 0.088200583728 0.089004189917 0.089994326055 0.090938812336 0.091568847706 0.091621020772 0.090871275247 
0.08915983057 0.086406025098 0.082611708685 0.077853477944 0.072266237927 0.066022130721 0.059309449664 0.05231566688 0.045217143762 
0.038175832825 0.031341151171 0.024854118241 0.01885114083 0.013465946416 0.0088290827981 0.0050646135494 0.0022837523398 0.00057603746247 
3.2978948937e-17 
