# vtk DataFile Version 5.1
vtk output
ASCII
DATASET POLYDATA
POINTS 100 float
0.0989255 0.0420051 0.636801 0.0991017 0.042198 0.636649 0.0996661 0.0426463 0.636048 
0.100541 0.043325 0.634988 0.101609 0.0441943 0.633452 0.102724 0.0452036 0.631417 
0.103729 0.0462957 0.628857 0.104477 0.0474113 0.62574 0.104843 0.0484942 0.622034 
0.104741 0.0494949 0.617703 0.104129 0.0503739 0.612717 0.103012 0.0511038 0.607046 
0.101437 0.0516696 0.600667 0.0994817 0.0520674 0.593566 0.0972445 0.0523028 0.58574 
0.0948247 0.0523876 0.577195 0.092308 0.0523362 0.567953 0.0897532 0.0521623 0.558048 
0.0871823 0.0518761 0.547526 0.0845762 0.051482 0.536446 0.0818766 0.0509779 0.524871 
0.0789925 0.0503557 0.512875 0.0758125 0.0496031 0.500531 0.0722183 0.0487065 0.487909 
0.0681008 0.0476546 0.475076 0.0633737 0.0464426 0.462086 0.0579848 0.0450755 0.448983 
0.0519227 0.0435717 0.435794 0.045218 0.0419644 0.422529 0.0379396 0.0403023 0.409184 
0.030186 0.0386481 0.395736 0.0220739 0.0370757 0.382148 0.0137243 0.0356659 0.368372 
0.00525007 0.034501 0.354349 -0.00325506 0.033659 0.340016 -0.0117234 0.0332073 0.325306 
-0.0201156 0.0331976 0.310156 -0.0284178 0.0336617 0.294504 -0.0366345 0.0346089 0.278296 
-0.0447777 0.036025 0.26149 -0.0528545 0.0378736 0.24405 -0.0608547 0.040099 0.225954 
-0.0687399 0.0426304 0.207194 -0.0764371 0.0453878 0.187773 -0.0838364 0.0482877 0.167707 
-0.0907946 0.0512491 0.147026 -0.0971437 0.0541989 0.12577 -0.102704 0.0570762 0.103993 
-0.107299 0.0598347 0.0817594 -0.110776 0.062444 0.0591441 -0.113015 0.064889 0.0362306 
-0.113949 0.0671676 0.0131097 -0.113566 0.0692877 -0.0101231 -0.111919 0.0712628 -0.03337 
-0.109112 0.0731083 -0.0565342 -0.105302 0.074837 -0.079523 -0.100676 0.0764559 -0.102252 
-0.0954422 0.0779639 -0.124647 -0.0898038 0.0793509 -0.14665 -0.0839481 0.0805973 -0.168216 
-0.0780288 0.0816758 -0.189319 -0.0721569 0.0825534 -0.20995 -0.0663947 0.0831938 -0.230117 
-0.060757 0.0835605 -0.249837 -0.0552162 0.0836195 -0.269141 -0.0497125 0.0833415 -0.28806 
-0.0441668 0.0827036 -0.306625 -0.0384946 0.0816899 -0.324864 -0.0326203 0.0802915 -0.34279 
-0.026489 0.0785056 -0.360401 -0.0200754 0.0763348 -0.377682 -0.0133887 0.0737857 -0.394594 
-0.0064733 0.0708675 -0.411086 0.000594352 0.0675914 -0.42709 0.00771224 0.0639704 -0.44253 
0.0147617 0.06002 -0.457327 0.0216175 0.0557586 -0.471403 0.0281576 0.0512097 -0.484694 
0.0342723 0.046403 -0.497148 0.0398711 0.0413764 -0.508738 0.0448873 0.0361771 -0.519458 
0.0492804 0.0308617 -0.529329 0.0530353 0.0254961 -0.538398 0.0561604 0.0201535 -0.546729 
0.0586839 0.0149121 -0.554403 0.0606491 0.00985112 -0.56151 0.0621103 0.00504707 -0.568137 
0.0631279 0.000569092 -0.574365 0.0637656 -0.00352508 -0.580258 0.0640874 -0.00719259 -0.585861 
0.0641556 -0.0104078 -0.591188 0.06403 -0.0131632 -0.596231 0.0637667 -0.0154689 -0.600954 
0.0634183 -0.0173501 -0.605295 0.0630327 -0.0188442 -0.609181 0.0626529 -0.019995 -0.612526 
0.0623159 -0.0208487 -0.615243 0.062052 -0.0214476 -0.617253 0.0618835 -0.0218257 -0.618494 
0.0618243 -0.0220043 -0.618925 
LINES 2 100
OFFSETS vtktypeint64
0 100 
CONNECTIVITY vtktypeint64
0 1 2 3 4 5 6 7 8 
9 10 11 12 13 14 15 16 17 
18 19 20 21 22 23 24 25 26 
27 28 29 30 31 32 33 34 35 
36 37 38 39 40 41 42 43 44 
45 46 47 48 49 50 51 52 53 
54 55 56 57 58 59 60 61 62 
63 64 65 66 67 68 69 70 71 
72 73 74 75 76 77 78 79 80 
81 82 83 84 85 86 87 88 89 
90 91 92 93 94 95 96 97 98 
99 
POINT_DATA 100
FIELD FieldData 3
_theta 1 100 double
0 0.031733259127 0.063466518254 0.095199777382 0.12693303651 0.15866629564 0.19039955476 0.22213281389 0.25386607302 
0.28559933214 0.31733259127 0.3490658504 0.38079910953 0.41253236865 0.44426562778 0.47599888691 0.50773214603 0.53946540516 
0.57119866429 0.60293192342 0.63466518254 0.66639844167 0.6981317008 0.72986495992 0.76159821905 0.79333147818 0.82506473731 
0.85679799643 0.88853125556 0.92026451469 0.95199777382 0.98373103294 1.0154642921 1.0471975512 1.0789308103 1.1106640695 
1.1423973286 1.1741305877 1.2058638468 1.237597106 1.2693303651 1.3010636242 1.3327968833 1.3645301425 1.3962634016 
1.4279966607 1.4597299198 1.491463179 1.5231964381 1.5549296972 1.5866629564 1.6183962155 1.6501294746 1.6818627337 
1.7135959929 1.745329252 1.7770625111 1.8087957702 1.8405290294 1.8722622885 1.9039955476 1.9357288068 1.9674620659 
1.999195325 2.0309285841 2.0626618433 2.0943951024 2.1261283615 2.1578616206 2.1895948798 2.2213281389 2.253061398 
2.2847946572 2.3165279163 2.3482611754 2.3799944345 2.4117276937 2.4434609528 2.4751942119 2.506927471 2.5386607302 
2.5703939893 2.6021272484 2.6338605076 2.6655937667 2.6973270258 2.7290602849 2.7607935441 2.7925268032 2.8242600623 
2.8559933214 2.8877265806 2.9194598397 2.9511930988 2.982926358 3.0146596171 3.0463928762 3.0781261353 3.1098593945 
3.1415926536 
_radius 1 100 double
1.2295947115e-15 0.013565077501 0.026988735748 0.040139708729 0.052909786038 0.065220310559 0.077023753642 0.088300473212 0.099051769338 
0.10929100543 0.11903465107 0.12829466898 0.13707301332 0.14535848724 0.15312599519 0.16033822613 0.16694978804 0.17291361618 
0.17818909791 0.18275092385 0.18659734576 0.18975639296 0.1922887071 0.19428600832 0.19586482592 0.19715599463 0.19829136836 
0.19938988035 0.20054510289 0.20181577392 0.2032198016 0.20473166906 0.20628321438 0.20776813307 0.20905065542 0.20997836739 
0.2103982501 0.21017417219 0.2092036529 0.20743180033 0.20486078007 0.20155379119 0.19763317668 0.19327287411 0.18868584859 
0.18410741714 0.17977556829 0.17590973818 0.17269021997 0.17024126671 0.1686213184 0.16782290743 0.16778253724 0.16839786363 
0.16954703802 0.17110431821 0.17294777958 0.17495907629 0.17702001527 0.17901258239 0.18082557676 0.18236533428 0.18356562374 
0.18439337992 0.1848494224 0.18496479091 0.18479389717 0.18440585761 0.18387532167 0.1832738526 0.18266250763 0.18208586112 
0.18156747797 0.18110681737 0.18067762207 0.18022785653 0.1796811354 0.17893945524 0.17788707041 0.17639553576 0.17433009126 
0.17155751934 0.16795534138 0.16342181866 0.15788579604 0.1513150786 0.14372187101 0.13516393357 0.12574057346 0.11558337887 
0.10484262142 0.093671310695 0.082209695672 0.070573211578 0.058846176008 0.047081975469 0.035308569862 0.023536703012 0.011767878039 
7.6092067306e-16 
_area 1 100 double
0 0.00046862384192 0.0018596514381 0.0041300452426 0.0072127467394 0.011022666884 0.015463297727 0.020432773789 0.025828614762 
0.031550915762 0.037504050973 0.04359693475 0.049741889543 0.055852574239 0.061842133332 0.067623188504 0.073110971961 0.07822977552 
0.082921560749 0.087154760939 0.090931163914 0.094288765653 0.097298261882 0.10005156617 0.10264447809 0.1051604342 0.10766120201 
0.11018354427 0.11273830732 0.11531193908 0.11787158767 0.12037125851 0.12275395954 0.124947008 0.12685277797 0.1283413751 
0.12925235502 0.12940935041 0.12864628571 0.12683943813 0.12393782385 0.11998516187 0.1151286157 0.10961176227 0.10375142033 
0.097899500131 0.092392889833 0.087501558047 0.083395982262 0.080147096907 0.077743484784 0.076102066417 0.075075415174 0.074491481504 
0.074237170223 0.074303617693 0.074731146096 0.075565772217 0.076748743046 0.0780430874 0.079249477968 0.080166200305 0.080620842219 
0.08050056751 0.079772194103 0.078488329944 0.076776932626 0.074817286804 0.072804554371 0.07094022865 0.069344657378 0.068057908524 
0.067208047225 0.066836047255 0.066939806993 0.06745052366 0.068238352077 0.069149464834 0.070020107716 0.070670317691 0.07089756471 
0.070487176179 0.069239452802 0.06700333915 0.063706579087 0.059375442478 0.054139217079 0.048217018789 0.041888376932 0.035453406729 
0.029191463378 0.023327995864 0.018017485503 0.013345831523 0.0093491550492 0.0060399675512 0.003429230177 0.0015362783183 0.00038613643953 
1.2807085633e-17 
