# vtk DataFile Version 5.1
vtk output
ASCII
DATASET POLYDATA
POINTS 100 float
0.133512 0.0433998 0.605948 0.13344 0.0434944 0.605723 0.133296 0.0436541 0.604928 
0.133065 0.0438704 0.603573 0.132724 0.0441312 0.601671 0.132243 0.0444231 0.599235 
0.131587 0.0447346 0.596281 0.130723 0.0450579 0.592816 0.129618 0.0453914 0.588844 
0.128243 0.0457403 0.584357 0.126574 0.0461157 0.579343 0.124594 0.046533 0.573782 
0.122289 0.0470085 0.567654 0.119648 0.0475558 0.560941 0.116663 0.0481815 0.553632 
0.113325 0.0488817 0.545729 0.109625 0.0496398 0.537246 0.105553 0.0504249 0.528217 
0.101097 0.0511933 0.518687 0.0962463 0.0518911 0.508714 0.0909935 0.0524587 0.498365 
0.0853356 0.0528367 0.487704 0.0792778 0.0529721 0.476793 0.0728355 0.0528249 0.465678 
0.0660356 0.0523732 0.454391 0.0589164 0.0516171 0.442942 0.0515263 0.0505798 0.43132 
0.0439211 0.0493078 0.419496 0.0361602 0.047867 0.407424 0.0283015 0.0463382 0.395053 
0.020397 0.0448106 0.382327 0.0124882 0.0433746 0.369197 0.00460293 0.0421151 0.355623 
-0.00324588 0.0411047 0.341581 -0.0110598 0.0403999 0.327063 -0.0188521 0.0400375 0.312077 
-0.0266426 0.040034 0.296641 -0.0344513 0.040387 0.280782 -0.0422911 0.0410775 0.264526 
-0.0501606 0.0420738 0.247893 -0.0580369 0.0433358 0.230892 -0.0658716 0.044819 0.213518 
-0.0735887 0.046478 0.195749 -0.0810848 0.0482692 0.177551 -0.0882338 0.050152 0.158881 
-0.0948938 0.0520896 0.139694 -0.100916 0.0540484 0.119953 -0.106157 0.0559975 0.0996368 
-0.110487 0.0579078 0.0787452 -0.113804 0.0597521 0.0573073 -0.116042 0.0615051 0.0353825 
-0.117172 0.0631445 0.0130591 -0.117212 0.0646532 -0.0095499 -0.11622 0.066021 -0.0323145 
-0.114292 0.0672467 -0.0550975 -0.111551 0.0683394 -0.0777647 -0.10814 0.0693186 -0.100195 
-0.104207 0.0702133 -0.122291 -0.0998956 0.0710587 -0.143979 -0.0953314 0.0718918 -0.165219 
-0.0906171 0.0727458 -0.185995 -0.0858244 0.0736437 -0.206317 -0.0809932 0.0745923 -0.22621 
-0.0761328 0.0755774 -0.245705 -0.0712267 0.0765606 -0.264827 -0.0662399 0.0774794 -0.283595 
-0.0611281 0.0782495 -0.302005 -0.0558472 0.0787713 -0.320037 -0.0503627 0.0789379 -0.337651 
-0.044657 0.0786456 -0.354789 -0.0387351 0.0778059 -0.371389 -0.0326271 0.0763554 -0.387389 
-0.0263879 0.0742654 -0.402736 -0.0200941 0.071548 -0.417399 -0.0138382 0.0682576 -0.431368 
-0.00772129 0.0644895 -0.444663 -0.00184517 0.0603723 -0.457332 0.00369625 0.0560583 -0.469442 
0.00882409 0.0517097 -0.481074 0.0134803 0.0474843 -0.492313 0.0176315 0.0435209 -0.503232 
0.0212702 0.0399275 -0.513887 0.0244136 0.036772 -0.524305 0.0271008 0.0340777 -0.534479 
0.0293878 0.0318237 -0.544367 0.0313409 0.0299508 -0.553895 0.0330309 0.0283706 -0.562967 
0.034526 0.0269787 -0.571472 0.0358865 0.0256693 -0.579302 0.03716 0.024349 -0.586359 
0.0383786 0.022949 -0.59257 0.0395576 0.0214344 -0.597896 0.0406962 0.0198077 -0.602333 
0.0417791 0.0181088 -0.605916 0.0427804 0.016409 -0.60871 0.0436669 0.0148014 -0.610801 
0.0444036 0.0133887 -0.61229 0.0449573 0.0122691 -0.613269 0.0453014 0.011524 -0.613819 
0.0454184 0.0112067 -0.613991 
LINES 2 100
OFFSETS vtktypeint64
0 100 
CONNECTIVITY vtktypeint64
0 1 2 3 4 5 6 7 8 
9 10 11 12 13 14 15 16 17 
18 19 20 21 22 23 24 25 26 
27 28 29 30 31 32 33 34 35 
36 37 38 39 40 41 42 43 44 
45 46 47 48 49 50 51 52 53 
54 55 56 57 58 59 60 61 62 
63 64 65 66 67 68 69 70 71 
72 73 74 75 76 77 78 79 80 
81 82 83 84 85 86 87 88 89 
90 91 92 93 94 95 96 97 98 
99 
POINT_DATA 100
FIELD FieldData 3
_theta 1 100 double
0 0.031733259127 0.063466518254 0.095199777382 0.12693303651 0.15866629564 0.19039955476 0.22213281389 0.25386607302 
0.28559933214 0.31733259127 0.3490658504 0.38079910953 0.41253236865 0.44426562778 0.47599888691 0.50773214603 0.53946540516 
0.57119866429 0.60293192342 0.63466518254 0.66639844167 0.6981317008 0.72986495992 0.76159821905 0.79333147818 0.82506473731 
0.85679799643 0.88853125556 0.92026451469 0.95199777382 0.98373103294 1.0154642921 1.0471975512 1.0789308103 1.1106640695 
1.1423973286 1.1741305877 1.2058638468 1.237597106 1.2693303651 1.3010636242 1.3327968833 1.3645301425 1.3962634016 
1.4279966607 1.4597299198 1.491463179 1.5231964381 1.5549296972 1.5866629564 1.6183962155 1.6501294746 1.6818627337 
1.7135959929 1.745329252 1.7770625111 1.8087957702 1.8405290294 1.8722622885 1.9039955476 1.9357288068 1.9674620659 
1.999195325 2.0309285841 2.0626618433 2.0943951024 2.1261283615 2.1578616206 2.1895948798 2.2213281389 2.253061398 
2.2847946572 2.3165279163 2.3482611754 2.3799944345 2.4117276937 2.4434609528 2.4751942119 2.506927471 2.5386607302 
2.5703939893 2.6021272484 2.6338605076 2.6655937667 2.6973270258 2.7290602849 2.7607935441 2.7925268032 2.8242600623 
2.8559933214 2.8877265806 2.9194598397 2.9511930988 2.982926358 3.0146596171 3.0463928762 3.0781261353 3.1098593945 
3.1415926536 
_radius 1 100 double
9.417487666e-16 0.01423351027 0.028306500484 0.042068433177 0.055393187505 0.068187232483 0.080393617085 0.09199154965 0.10299199279 
0.11343019465 0.12335634797 0.13282561561 0.14188864353 0.15058348338 0.15892964007 0.16692477162 0.17454438417 0.18174464685 
0.18846816609 0.19465218756 0.2002382635 0.20518202565 0.20946147547 0.21308226566 0.21607884651 0.21851103958 0.22045644441 
0.22199989342 0.22322174447 0.22418698735 0.22493689651 0.22548438295 0.22581348574 0.22588281449 0.22563233402 0.22499266638 
0.22389597369 0.22228738385 0.22013579942 0.21744283088 0.21424859593 0.21063329922 0.20671389935 0.20263580091 0.19856035014 
0.19464984376 0.19105251706 0.18789018992 0.1852506222 0.18318521542 0.18171103119 0.18081500718 0.18045835688 0.18058033338 
0.18110194321 0.18193078163 0.18296759364 0.18411405151 0.18528047162 0.18639215761 0.18739351999 0.18824966895 0.18894558644 
0.18948324797 0.18987724154 0.19014953444 0.19032405615 0.19042169809 0.19045621251 0.19043136217 0.19033953279 0.19016183291 
0.18986944411 0.18942570427 0.18878824012 0.18791053152 0.18674260027 0.18523095822 0.18331834055 0.1809439128 0.17804448481 
0.17455686533 0.17042107078 0.16558388385 0.16000228742 0.15364644389 0.14650199262 0.13857145386 0.12987452351 0.12044711645 
0.11033920497 0.099611748597 0.088333206809 0.076576165117 0.064414475788 0.051921106634 0.039166729278 0.026219021408 0.013142664239 
1.2986493526e-15 
_area 1 100 double
0 0.0004736332042 0.0018731538555 0.0041378157461 0.0071768473504 0.010882488781 0.015143665315 0.0198573282 0.024935514877 
0.030307801856 0.035920308985 0.041732960049 0.047716089223 0.053846383046 0.060101595278 0.066453933795 0.072863080458 0.079270683495 
0.085598381488 0.091750968622 0.09762530447 0.1031240178 0.108171156 0.11272546386 0.11678701949 0.12039497316 0.12361715866 
0.12653446985 0.12922324799 0.13173854909 0.13410097639 0.13628917995 0.13823879174 0.13984738573 0.140984621 0.14150670591 
0.1412742808 0.14017242656 0.13813075835 0.1351409421 0.13126881091 0.12665841496 0.12152563756 0.11613946298 0.11078987429 
0.10574467285 0.10120680528 0.097292100041 0.094035045895 0.091408025723 0.089339640008 0.087732276158 0.08648468723 0.08551804654 
0.084791075156 0.084289618804 0.083997308155 0.083875079349 0.08386945676 0.083926988484 0.083989413511 0.084099637228 0.08417364493 
0.08421888219 0.084255739523 0.084192583645 0.083990631606 0.083615055439 0.0830517362 0.082324104307 0.081493563835 0.080649051851 
0.079904381366 0.079467087308 0.07937642479 0.079374493227 0.07938324104 0.079348693889 0.079184825453 0.078771205779 0.077963157327 
0.07661062422 0.074580579848 0.071777611644 0.068158866096 0.063741556057 0.058602781486 0.05287239578 0.046720366219 0.040340717281 
0.033934651604 0.027695598754 0.021798493337 0.016394415294 0.011610079853 0.0075502171272 0.0043003959995 0.0019285480095 0.00048476246783 
1.5831095915e-17 
