# vtk DataFile Version 5.1
vtk output
ASCII
DATASET POLYDATA
POINTS 100 float
0.072796 0.0559019 0.693824 0.0728954 0.0559922 0.693588 0.0732245 0.0560848 0.692693 
0.0737451 0.0561653 0.691128 0.074398 0.0562129 0.688877 0.0751082 0.0562041 0.685927 
0.0757932 0.0561164 0.682265 0.0763699 0.0559319 0.677886 0.0767634 0.0556405 0.672795 
0.0769126 0.0552424 0.667007 0.076776 0.054748 0.660553 0.0763333 0.0541775 0.653473 
0.0755859 0.0535584 0.64582 0.0745542 0.0529213 0.637652 0.0732731 0.0522965 0.629032 
0.0717854 0.0517087 0.620018 0.0701349 0.0511737 0.610666 0.0683598 0.0506959 0.601016 
0.0664864 0.0502666 0.591098 0.0645246 0.0498649 0.580923 0.0624664 0.0494601 0.57049 
0.0602859 0.0490153 0.559781 0.0579421 0.0484922 0.548766 0.0553842 0.0478561 0.53741 
0.0525576 0.0470812 0.525676 0.0494115 0.0461538 0.513528 0.0459054 0.0450755 0.500938 
0.0420154 0.0438632 0.48789 0.0377378 0.0425489 0.474381 0.0330909 0.0411762 0.46042 
0.0281136 0.0397965 0.446032 0.0228621 0.0384643 0.431251 0.0174036 0.0372323 0.416115 
0.0118091 0.0361466 0.400669 0.00614534 0.0352441 0.384949 0.000467593 0.0345498 0.368986 
-0.00518654 0.0340772 0.3528 -0.0108007 0.0338292 0.336393 -0.0163802 0.0338008 0.319754 
-0.02195 0.0339822 0.302854 -0.0275483 0.0343628 0.285652 -0.0332192 0.0349343 0.268095 
-0.0390022 0.0356928 0.250127 -0.0449224 0.03664 0.231686 -0.0509805 0.037783 0.21272 
-0.0571453 0.0391324 0.193181 -0.0633491 0.0406994 0.173038 -0.0694869 0.0424917 0.152273 
-0.0754197 0.0445107 0.130887 -0.0809821 0.0467471 0.108897 -0.0859926 0.0491793 0.0863393 
-0.0902672 0.0517724 0.0632628 -0.0936338 0.0544787 0.0397282 -0.0959459 0.0572405 0.0158048 
-0.0970948 0.0599934 -0.00843354 -0.0970188 0.0626717 -0.0329116 -0.0957075 0.0652131 -0.0575553 
-0.0932023 0.0675633 -0.0822937 -0.0895914 0.0696805 -0.107061 -0.0850013 0.0715368 -0.131795 
-0.0795844 0.0731198 -0.156439 -0.073505 0.0744304 -0.180942 -0.0669253 0.0754804 -0.205252 
-0.0599921 0.0762876 -0.229323 -0.0528263 0.0768712 -0.253106 -0.0455166 0.0772464 -0.276553 
-0.0381171 0.0774198 -0.299616 -0.0306499 0.0773863 -0.322243 -0.0231112 0.0771276 -0.344385 
-0.0154814 0.0766126 -0.36599 -0.00773589 0.0758 -0.387009 0.00014228 0.0746424 -0.407394 
0.0081525 0.0730914 -0.4271 0.0162684 0.0711043 -0.446086 0.0244334 0.068649 -0.46432 
0.0325613 0.0657098 -0.481771 0.0405399 0.0622903 -0.498417 0.0482399 0.0584159 -0.514243 
0.0555255 0.0541327 -0.529238 0.0622673 0.0495058 -0.543399 0.0683549 0.0446157 -0.556727 
0.0737078 0.0395522 -0.569228 0.0782836 0.0344098 -0.580912 0.0820821 0.0292813 -0.591789 
0.085145 0.0242528 -0.601877 0.0875514 0.0194 -0.611191 0.0894085 0.0147849 -0.619749 
0.0908408 0.0104554 -0.62757 0.0919766 0.00644493 -0.634673 0.0929351 0.00277413 -0.641079 
0.0938152 -0.000546704 -0.646805 0.094687 -0.00351498 -0.651872 0.0955871 -0.00613302 -0.656297 
0.0965185 -0.00840553 -0.660096 0.0974541 -0.0103377 -0.663285 0.0983444 -0.011934 -0.665877 
0.0991276 -0.0131974 -0.667883 0.0997401 -0.0141296 -0.669311 0.100128 -0.0147309 -0.670168 
0.100253 -0.015001 -0.670455 
LINES 2 100
OFFSETS vtktypeint64
0 100 
CONNECTIVITY vtktypeint64
0 1 2 3 4 5 6 7 8 
9 10 11 12 13 14 15 16 17 
18 19 20 21 22 23 24 25 26 
27 28 29 30 31 32 33 34 35 
36 37 38 39 40 41 42 43 44 
45 46 47 48 49 50 51 52 53 
54 55 56 57 58 59 60 61 62 
63 64 65 66 67 68 69 70 71 
72 73 74 75 76 77 78 79 80 
81 82 83 84 85 86 87 88 89 
90 91 92 93 94 95 96 97 98 
99 
POINT_DATA 100
FIELD FieldData 3
_theta 1 100 double
0 0.031733259127 0.063466518254 0.095199777382 0.12693303651 0.15866629564 0.19039955476 0.22213281389 0.25386607302 
0.28559933214 0.31733259127 0.3490658504 0.38079910953 0.41253236865 0.44426562778 0.47599888691 0.50773214603 0.53946540516 
0.57119866429 0.60293192342 0.63466518254 0.66639844167 0.6981317008 0.72986495992 0.76159821905 0.79333147818 0.82506473731 
0.85679799643 0.88853125556 0.92026451469 0.95199777382 0.98373103294 1.0154642921 1.0471975512 1.0789308103 1.1106640695 
1.1423973286 1.1741305877 1.2058638468 1.237597106 1.2693303651 1.3010636242 1.3327968833 1.3645301425 1.3962634016 
1.4279966607 1.4597299198 1.491463179 1.5231964381 1.5549296972 1.5866629564 1.6183962155 1.6501294746 1.6818627337 
1.7135959929 1.745329252 1.7770625111 1.8087957702 1.8405290294 1.8722622885 1.9039955476 1.9357288068 1.9674620659 
1.999195325 2.0309285841 2.0626618433 2.0943951024 2.1261283615 2.1578616206 2.1895948798 2.2213281389 2.253061398 
2.2847946572 2.3165279163 2.3482611754 2.3799944345 2.4117276937 2.4434609528 2.4751942119 2.506927471 2.5386607302 
2.5703939893 2.6021272484 2.6338605076 2.6655937667 2.6973270258 2.7290602849 2.7607935441 2.7925268032 2.8242600623 
2.8559933214 2.8877265806 2.9194598397 2.9511930988 2.982926358 3.0146596171 3.0463928762 3.0781261353 3.1098593945 
3.1415926536 
_radius 1 100 double
5.6716703797e-16 0.014486473025 0.028898643373 0.043160339571 0.057201731595 0.070962125823 0.084392062418 0.097454532737 0.11012519936 
0.12239158436 0.13425128027 0.14570931955 0.1567749125 0.16745784329 0.17776489925 0.18769677214 0.19724585755 0.20639525567 
0.21511906236 0.22338381293 0.23115079307 0.23837890876 0.24502788778 0.25106169914 0.25645213509 0.26118244075 0.2652506876 
0.26867233316 0.27148121847 0.27372826629 0.27547744049 0.27679908333 0.27776141648 0.27842154925 0.27881757746 0.27896318667 
0.27884566935 0.27842761422 0.27765192261 0.27644937685 0.27474776749 0.27248155891 0.26960118145 0.26608121324 0.26192689228 
0.25717853228 0.25191348664 0.24624532546 0.2403198981 0.2343080135 0.228394677 0.2227652781 0.21758985689 0.21300743909 
0.20911305784 0.20595003358 0.20350912181 0.20173451129 0.20053505398 0.19979817174 0.19940379687 0.1992362912 0.19919330791 
0.19919166686 0.19917097956 0.1990955981 0.19895474737 0.19876021359 0.1985411958 0.19833666455 0.19818626989 0.19812114214 
0.19815580423 0.19828201519 0.1984648962 0.19864134376 0.19872063625 0.19858725291 0.19810604123 0.19712974783 0.19550850399 
0.19310030355 0.18978111476 0.18545323189 0.18005081591 0.17354216245 0.16592886866 0.15724256262 0.14754009541 0.13689806014 
0.12540727247 0.11316755859 0.10028297475 0.086857498436 0.072991273738 0.058777599278 0.044300931158 0.029636171629 0.014849400441 
5.6895769259e-16 
_area 1 100 double
0 0.00060203464793 0.0023921417712 0.0053223085347 0.0093130856958 0.014256333904 0.020021690646 0.026467265287 0.033453423996 
0.040857109022 0.048583703697 0.056574132606 0.06480604058 0.07328873299 0.082051964495 0.091129322433 0.10053854455 0.11026320544 
0.12024108118 0.13036271023 0.14047989149 0.15042048269 0.1600047385 0.1690596634 0.17743032887 0.18498938628 0.19164692574 
0.1973617631 0.2021523286 0.20610167579 0.2093487833 0.21206014396 0.21438442184 0.21640699902 0.21812792771 0.21947295704 
0.22032442031 0.22055139365 0.22002814884 0.21864146497 0.21629301286 0.21290333507 0.20842118034 0.20283800606 0.19620389309 
0.18863919971 0.18033672128 0.17155159216 0.16257945439 0.15372635975 0.14527600411 0.13746089434 0.13044285548 0.12430416659 
0.11904658615 0.11459837407 0.11083699344 0.10762820333 0.10486279593 0.10247584863 0.1004566426 0.098834794595 0.097505301453 
0.096249108341 0.094928722492 0.093538379525 0.092154631191 0.090880669502 0.089790498278 0.088913736494 0.088281722784 0.087960134126 
0.088048983903 0.088706123806 0.089803543453 0.091198922175 0.092746545374 0.094271646525 0.09556017623 0.096371636568 0.096464104133 
0.095622804131 0.093685624848 0.090561461377 0.086239696269 0.080790532832 0.074356568319 0.067137147528 0.059368590798 0.051304097301 
0.043196510146 0.035285737096 0.027791069296 0.020907355291 0.01480338355 0.00962111627 0.0054752556928 0.0024532957215 0.00061626952467 
3.1781884294e-17 
