# vtk DataFile Version 5.1
vtk output
ASCII
DATASET POLYDATA
POINTS 100 float
0.144604 0.0454832 0.632826 0.144631 0.0457228 0.632514 0.144722 0.0462956 0.631419 
0.144821 0.0471519 0.629585 0.144846 0.0482149 0.627081 0.144698 0.049389 0.623992 
0.144276 0.0505697 0.620403 0.14349 0.0516548 0.616394 0.142274 0.0525543 0.612027 
0.140595 0.0531994 0.607337 0.138457 0.0535482 0.602332 0.135896 0.0535887 0.596991 
0.132977 0.0533379 0.591271 0.12978 0.0528375 0.585111 0.126387 0.0521475 0.578448 
0.12287 0.0513369 0.571226 0.119274 0.0504747 0.563405 0.115613 0.0496207 0.554967 
0.111863 0.0488179 0.545929 0.107964 0.048087 0.536332 0.10383 0.0474248 0.526247 
0.099358 0.0468045 0.515761 0.0944469 0.0461797 0.504969 0.0890101 0.045491 0.493964 
0.0829922 0.0446739 0.482826 0.0763798 0.0436675 0.471609 0.0692071 0.0424232 0.460343 
0.0615563 0.0409117 0.449023 0.0535499 0.0391282 0.437618 0.045339 0.0370952 0.426074 
0.0370864 0.0348621 0.414322 0.0289482 0.0325029 0.402288 0.0210554 0.0301104 0.389906 
0.0134993 0.0277901 0.377122 0.00632089 0.0256525 0.363903 -0.000492619 0.0238051 0.350239 
-0.00700451 0.0223456 0.33614 -0.0133184 0.0213562 0.321631 -0.0195628 0.0208991 0.306746 
-0.0258715 0.0210142 0.291519 -0.0323639 0.0217188 0.275971 -0.0391259 0.0230082 0.260108 
-0.046195 0.024858 0.243911 -0.0535516 0.0272274 0.227339 -0.0611168 0.0300619 0.210327 
-0.0687579 0.0332967 0.192798 -0.0763001 0.0368596 0.174669 -0.0835435 0.0406735 0.155863 
-0.0902832 0.044658 0.136321 -0.0963295 0.0487311 0.116013 -0.101526 0.0528103 0.0949443 
-0.105765 0.0568141 0.0731589 -0.108994 0.0606633 0.0507399 -0.111219 0.0642828 0.0278035 
-0.112497 0.0676038 0.00449033 -0.112929 0.070566 -0.0190463 -0.112644 0.0731199 -0.0426529 
-0.111781 0.075229 -0.0661884 -0.110472 0.0768716 -0.0895342 -0.108832 0.0780413 -0.112601 
-0.106944 0.0787467 -0.135332 -0.104855 0.0790103 -0.157701 -0.102578 0.0788657 -0.179709 
-0.100093 0.0783541 -0.201374 -0.0973602 0.07752 -0.222723 -0.0943306 0.0764066 -0.243778 
-0.0909557 0.075052 -0.264554 -0.0871999 0.0734848 -0.285046 -0.0830487 0.0717222 -0.305232 
-0.0785129 0.0697687 -0.325066 -0.0736289 0.0676165 -0.344492 -0.0684555 0.0652476 -0.363441 
-0.0630671 0.0626375 -0.381847 -0.0575454 0.0597593 -0.399649 -0.0519702 0.0565892 -0.416801 
-0.0464121 0.0531109 -0.433279 -0.040926 0.0493212 -0.449076 -0.035549 0.0452324 -0.464204 
-0.030301 0.0408752 -0.478689 -0.025188 0.0362988 -0.492562 -0.0202084 0.0315694 -0.505849 
-0.0153601 0.0267677 -0.518563 -0.0106473 0.0219839 -0.5307 -0.00608635 0.0173129 -0.542229 
-0.00170853 0.0128481 -0.553098 0.00243968 0.00867547 -0.563236 0.00630006 0.00486842 -0.572556 
0.00980866 0.00148329 -0.580974 0.012904 -0.00144375 -0.588413 0.0155357 -0.00389823 -0.59482 
0.017673 -0.00588729 -0.600175 0.0193106 -0.00743812 -0.604496 0.0204722 -0.00859486 -0.607842 
0.0212096 -0.00941448 -0.610312 0.0215984 -0.00996178 -0.612034 0.0217304 -0.0103041 -0.613156 
0.0217028 -0.0105057 -0.613828 0.0216075 -0.0106231 -0.614188 0.0215193 -0.0107003 -0.61435 
0.0214871 -0.0107656 -0.614384 
LINES 2 100
OFFSETS vtktypeint64
0 100 
CONNECTIVITY vtktypeint64
0 1 2 3 4 5 6 7 8 
9 10 11 12 13 14 15 16 17 
18 19 20 21 22 23 24 25 26 
27 28 29 30 31 32 33 34 35 
36 37 38 39 40 41 42 43 44 
45 46 47 48 49 50 51 52 53 
54 55 56 57 58 59 60 61 62 
63 64 65 66 67 68 69 70 71 
72 73 74 75 76 77 78 79 80 
81 82 83 84 85 86 87 88 89 
90 91 92 93 94 95 96 97 98 
99 
POINT_DATA 100
FIELD FieldData 3
_theta 1 100 double
0 0.031733259127 0.063466518254 0.095199777382 0.12693303651 0.15866629564 0.19039955476 0.22213281389 0.25386607302 
0.28559933214 0.31733259127 0.3490658504 0.38079910953 0.41253236865 0.44426562778 0.47599888691 0.50773214603 0.53946540516 
0.57119866429 0.60293192342 0.63466518254 0.66639844167 0.6981317008 0.72986495992 0.76159821905 0.79333147818 0.82506473731 
0.85679799643 0.88853125556 0.92026451469 0.95199777382 0.98373103294 1.0154642921 1.0471975512 1.0789308103 1.1106640695 
1.1423973286 1.1741305877 1.2058638468 1.237597106 1.2693303651 1.3010636242 1.3327968833 1.3645301425 1.3962634016 
1.4279966607 1.4597299198 1.491463179 1.5231964381 1.5549296972 1.5866629564 1.6183962155 1.6501294746 1.6818627337 
1.7135959929 1.745329252 1.7770625111 1.8087957702 1.8405290294 1.8722622885 1.9039955476 1.9357288068 1.9674620659 
1.999195325 2.0309285841 2.0626618433 2.0943951024 2.1261283615 2.1578616206 2.1895948798 2.2213281389 2.253061398 
2.2847946572 2.3165279163 2.3482611754 2.3799944345 2.4117276937 2.4434609528 2.4751942119 2.506927471 2.5386607302 
2.5703939893 2.6021272484 2.6338605076 2.6655937667 2.6973270258 2.7290602849 2.7607935441 2.7925268032 2.8242600623 
2.8559933214 2.8877265806 2.9194598397 2.9511930988 2.982926358 3.0146596171 3.0463928762 3.0781261353 3.1098593945 
3.1415926536 
_radius 1 100 double
1.046278443e-15 0.01285680748 0.025630842813 0.038234190847 0.050583702103 0.062604578983 0.074234302253 0.085426213001 0.096151792257 
0.10640072199 0.11617823204 0.12549994133 0.13438515055 0.14285005803 0.15090244801 0.15853900267 0.16574565433 0.17250058756 
0.1787789087 0.18455780403 0.18982120775 0.19456342658 0.198791571 0.20252682581 0.20580450207 0.20867257346 0.21118825641 
0.21341237008 0.21540176599 0.21720086238 0.21883389179 0.22029953626 0.22156909421 0.22258844091 0.2232832353 0.22356642053 
0.223347116 0.2225402932 0.22107685244 0.21891365802 0.21604275108 0.21249854839 0.20836159259 0.20375748652 0.19885006152 
0.19382861856 0.18889026176 0.18421981198 0.17997111126 0.17625393336 0.17312951786 0.17061501582 0.16869395518 0.16732786608 
0.16646466769 0.16604203192 0.16598699524 0.16621483292 0.16663009823 0.16713136665 0.16761949651 0.16800773734 0.16823120887 
0.16825342842 0.16806855468 0.16769927133 0.16719117695 0.16660495329 0.16600754399 0.16546331242 0.16502586721 0.16473107093 
0.16459169595 0.16459417689 0.16469780586 0.16483643833 0.16492236749 0.16485167018 0.16451021342 0.1637796705 0.16254319412 
0.16069065434 0.15812345533 0.15475888222 0.15053377589 0.14540721073 0.13936185211 0.13240381535 0.12456108046 0.11588074847 
0.10642557246 0.096270208958 0.085497517554 0.074195058325 0.062451804973 0.050355096073 0.037987991239 0.025427390108 0.012743361618 
1.1735502266e-15 
_area 1 100 double
0 0.00047523817417 0.0018900461701 0.0042110664101 0.0073812353215 0.011319627788 0.015924416028 0.021080174183 0.026668975696 
0.032582627446 0.038732113306 0.045050913684 0.051491403157 0.058016618114 0.064591266303 0.071175072206 0.077719494126 0.084167146058 
0.090452797513 0.09650558562 0.10225320751 0.10762909744 0.11258236888 0.11708839768 0.1211567123 0.12483310003 0.12819409966 
0.13133338324 0.13434107891 0.13727970683 0.14016290563 0.14294330796 0.145514245 0.14772700171 0.14941981243 0.15044905216 
0.15070933756 0.1501309377 0.14862773103 0.14610372527 0.14253976079 0.13801942747 0.13271909378 0.12688483484 0.12080095068 
0.11475492749 0.10900506033 0.10375659123 0.099149904854 0.095259940999 0.092101536901 0.089634587806 0.087768900621 0.086378967835 
0.085333641531 0.084521804734 0.083855911733 0.083260118261 0.082659718373 0.081981117771 0.081160477934 0.080153050495 0.078937384273 
0.077516608491 0.075922034028 0.074215900233 0.072486173243 0.070833748086 0.069357500785 0.068140796169 0.067239914393 0.066675632661 
0.066432818644 0.066469943091 0.066731655806 0.067156629265 0.067678006781 0.068216511357 0.068669306129 0.068904331232 0.068768428255 
0.068105606183 0.066777265253 0.064679803265 0.061757616554 0.058010451503 0.053495000803 0.0483215599 0.042646931384 0.036664471036 
0.030591584055 0.024654653246 0.019071701932 0.014034114741 0.0096901297898 0.006133916459 0.0034040589198 0.0014935540648 0.00036995675883 
9.2893237313e-18 
