# vtk DataFile Version 5.1
vtk output
ASCII
DATASET POLYDATA
POINTS 100 float
0.119164 0.0362659 0.694965 0.119416 0.0363515 0.694588 0.120213 0.0364581 0.693313 
0.121454 0.0365991 0.691164 0.122986 0.0367956 0.688179 0.124617 0.0370723 0.684401 
0.126143 0.0374545 0.679879 0.127366 0.0379632 0.674655 0.12812 0.0386117 0.668766 
0.128283 0.0394025 0.662235 0.12779 0.0403249 0.655079 0.126633 0.0413554 0.647301 
0.124856 0.0424576 0.638904 0.122543 0.0435856 0.629891 0.119802 0.0446869 0.620273 
0.116742 0.0457067 0.610076 0.113459 0.0465927 0.599341 0.110017 0.0472988 0.588131 
0.10644 0.0477888 0.576525 0.102706 0.0480389 0.564613 0.0987556 0.0480386 0.552491 
0.0944974 0.0477903 0.540251 0.0898281 0.0473085 0.52797 0.0846494 0.0466166 0.515704 
0.0788862 0.0457446 0.503476 0.0725034 0.0447255 0.491277 0.065516 0.0435926 0.479063 
0.0579929 0.0423769 0.466762 0.0500534 0.0411061 0.454278 0.041856 0.0398036 0.441505 
0.033581 0.0384892 0.428335 0.0254096 0.0371804 0.414672 0.0175022 0.0358943 0.400442 
0.00997769 0.0346494 0.385599 0.00289875 0.0334678 0.370129 -0.003737 0.0323766 0.354046 
-0.00999693 0.0314086 0.337392 -0.0160048 0.0306023 0.320223 -0.0219247 0.0300008 0.3026 
-0.0279385 0.0296498 0.28458 -0.0342204 0.0295948 0.266202 -0.0409115 0.0298784 0.247485 
-0.0480965 0.0305366 0.228418 -0.0557872 0.0315961 0.208968 -0.0639133 0.0330715 0.189078 
-0.0723228 0.0349637 0.168682 -0.0807913 0.0372584 0.147711 -0.0890398 0.0399264 0.126113 
-0.0967586 0.0429238 0.103855 -0.103635 0.0461943 0.0809402 -0.109382 0.0496709 0.057409 
-0.113761 0.0532783 0.0333408 -0.116605 0.0569367 0.0088496 -0.11783 0.0605636 -0.0159243 
-0.117436 0.064078 -0.0408267 -0.115508 0.0674019 -0.0657029 -0.112198 0.0704637 -0.0904112 
-0.107707 0.0732 -0.114835 -0.102266 0.0755569 -0.13889 -0.0961092 0.0774921 -0.162531 
-0.0894548 0.0789747 -0.185747 -0.0824853 0.0799862 -0.208558 -0.0753361 0.0805202 -0.231004 
-0.0680909 0.0805809 -0.253134 -0.0607822 0.0801826 -0.274995 -0.0533987 0.0793472 -0.296617 
-0.0458978 0.0781021 -0.318007 -0.03822 0.0764776 -0.339144 -0.0303043 0.0745042 -0.359979 
-0.0221033 0.0722106 -0.380438 -0.0135944 0.0696208 -0.400433 -0.00478756 0.0667538 -0.41987 
0.00427154 0.0636223 -0.438664 0.0135028 0.0602338 -0.456744 0.0227975 0.0565923 -0.474065 
0.0320261 0.0527003 -0.49061 0.0410492 0.0485628 -0.506389 0.0497274 0.0441902 -0.521434 
0.0579319 0.0396024 -0.535786 0.065552 0.0348316 -0.549489 0.0725009 0.0299242 -0.562571 
0.0787191 0.0249416 -0.575039 0.0841746 0.0199592 -0.586865 0.0888612 0.0150633 -0.597989 
0.0927955 0.0103472 -0.60832 0.0960127 0.00590514 -0.61774 0.0985622 0.00182594 -0.626124 
0.100504 -0.00181387 -0.633355 0.101904 -0.00495629 -0.639338 0.102835 -0.00756685 -0.644023 
0.103368 -0.009638 -0.647416 0.103578 -0.01119 -0.649586 0.103538 -0.0122696 -0.650667 
0.10332 -0.0129459 -0.65085 0.102991 -0.0133044 -0.650371 0.102617 -0.0134389 -0.649492 
0.102253 -0.0134429 -0.648472 0.101946 -0.0134008 -0.647546 0.101731 -0.0133793 -0.646903 
0.101632 -0.0134217 -0.646663 
LINES 2 100
OFFSETS vtktypeint64
0 100 
CONNECTIVITY vtktypeint64
0 1 2 3 4 5 6 7 8 
9 10 11 12 13 14 15 16 17 
18 19 20 21 22 23 24 25 26 
27 28 29 30 31 32 33 34 35 
36 37 38 39 40 41 42 43 44 
45 46 47 48 49 50 51 52 53 
54 55 56 57 58 59 60 61 62 
63 64 65 66 67 68 69 70 71 
72 73 74 75 76 77 78 79 80 
81 82 83 84 85 86 87 88 89 
90 91 92 93 94 95 96 97 98 
99 
POINT_DATA 100
FIELD FieldData 3
_theta 1 100 double
0 0.031733259127 0.063466518254 0.095199777382 0.12693303651 0.15866629564 0.19039955476 0.22213281389 0.25386607302 
0.28559933214 0.31733259127 0.3490658504 0.38079910953 0.41253236865 0.44426562778 0.47599888691 0.50773214603 0.53946540516 
0.57119866429 0.60293192342 0.63466518254 0.66639844167 0.6981317008 0.72986495992 0.76159821905 0.79333147818 0.82506473731 
0.85679799643 0.88853125556 0.92026451469 0.95199777382 0.98373103294 1.0154642921 1.0471975512 1.0789308103 1.1106640695 
1.1423973286 1.1741305877 1.2058638468 1.237597106 1.2693303651 1.3010636242 1.3327968833 1.3645301425 1.3962634016 
1.4279966607 1.4597299198 1.491463179 1.5231964381 1.5549296972 1.5866629564 1.6183962155 1.6501294746 1.6818627337 
1.7135959929 1.745329252 1.7770625111 1.8087957702 1.8405290294 1.8722622885 1.9039955476 1.9357288068 1.9674620659 
1.999195325 2.0309285841 2.0626618433 2.0943951024 2.1261283615 2.1578616206 2.1895948798 2.2213281389 2.253061398 
2.2847946572 2.3165279163 2.3482611754 2.3799944345 2.4117276937 2.4434609528 2.4751942119 2.506927471 2.5386607302 
2.5703939893 2.6021272484 2.6338605076 2.6655937667 2.6973270258 2.7290602849 2.7607935441 2.7925268032 2.8242600623 
2.8559933214 2.8877265806 2.9194598397 2.9511930988 2.982926358 3.0146596171 3.0463928762 3.0781261353 3.1098593945 
3.1415926536 
_radius 1 100 double
9.113227421e-16 0.014976910959 0.029811158913 0.044364884858 0.058518421992 0.072176596455 0.085272109846 0.09776599908 0.10964563438 
0.12092098743 0.13161995543 0.14178340394 0.15146035891 0.16070350239 0.1695648743 0.17809153115 0.18632094936 0.19427622566 
0.20196156339 0.20935896388 0.21642724092 0.22310428462 0.22931292034 0.23496989788 0.239996745 0.24433065478 0.24793340225 
0.25079656832 0.25294205556 0.25441787104 0.25529017803 0.25563338099 0.25552025051 0.25501375442 0.25416152776 0.25299315533 
0.25151997976 0.2497370825 0.24762726021 0.24516696418 0.24233407136 0.23911696637 0.23552385568 0.23159071949 0.22738605758 
0.22301080347 0.21859262106 0.21427522453 0.21020490101 0.20651718167 0.20332604172 0.20071666547 0.19874179213 0.19742123461 
0.19674374454 0.19666977558 0.19713356028 0.19804399692 0.19928585719 0.2007243013 0.20221508869 0.20362018954 0.20482547439 
0.20575571695 0.20638290606 0.20672600773 0.20684257928 0.20681426541 0.20672911271 0.20666395004 0.20666982932 0.20676268896 
0.20692013456 0.20708390674 0.20716667044 0.20706144423 0.2066521583 0.2058241364 0.20447347155 0.20251429328 0.19988298366 
0.19653868197 0.19245999328 0.18763859144 0.18207115481 0.17575151926 0.16866487537 0.16078526999 0.1520768136 0.14249817974 
0.13200946642 0.12058031663 0.10819823017 0.09487607571 0.08065787449 0.065622044532 0.049881573815 0.033581045825 0.016890943194 
9.1968041903e-16 
_area 1 100 double
0 0.00059530696838 0.0023568909288 0.0052153619109 0.0090661222856 0.013782802253 0.019231038453 0.025279858305 0.03180922781 
0.038713819345 0.04590418067 0.053306846477 0.060864476303 0.068536177924 0.076297349366 0.084138034741 0.092058935423 0.10006463196 
0.10815415587 0.11630991466 0.12448717786 0.13260751152 0.14055981481 0.14821102655 0.15542503557 0.16208422677 0.16810592018 
0.1734475803 0.1780992934 0.18206682892 0.18535189255 0.18793745855 0.18978400836 0.19083702113 0.19104066351 0.19035095518 
0.18874407878 0.18621977271 0.18280349429 0.17855287819 0.17356494299 0.16795663199 0.16184889069 0.15540322653 0.14883945485 
0.14240884922 0.13635205878 0.13086403415 0.12607587156 0.12205085283 0.11878284516 0.11619275539 0.11414324205 0.11251197839 
0.11118717158 0.11000442664 0.10886862076 0.10775354145 0.10666212073 0.10560448093 0.10458567418 0.10359725367 0.10261158642 
0.10158883549 0.10049057733 0.099281998714 0.097926299352 0.096398877176 0.09471569827 0.09294318905 0.091186787481 0.089577290031 
0.088266446335 0.087418728789 0.087162280897 0.087498588648 0.088277185375 0.089260298577 0.090186471925 0.090806664995 0.090904379526 
0.090306644362 0.088887045639 0.086561875708 0.083283110503 0.079033476834 0.073827577245 0.067719649162 0.060814933036 0.05327930546 
0.045341495641 0.037283917826 0.029421362093 0.022070470176 0.015516064794 0.0099822625046 0.0056162752201 0.0024902399999 0.00062095031391 
7.1680524242e-17 
