# vtk DataFile Version 5.1
vtk output
ASCII
DATASET POLYDATA
POINTS 100 float
0.144196 0.035946 0.668425 0.144302 0.0361354 0.668128 0.144649 0.0365423 0.667095 
0.145169 0.037143 0.665346 0.145756 0.0379016 0.662912 0.14628 0.0387742 0.659831 
0.146601 0.0397142 0.656134 0.146583 0.0406767 0.651848 0.146111 0.0416237 0.646982 
0.145095 0.0425263 0.641533 0.143486 0.043366 0.63548 0.141268 0.0441337 0.628797 
0.138455 0.0448277 0.621454 0.135088 0.0454492 0.613429 0.131217 0.0459985 0.604716 
0.126896 0.0464706 0.595333 0.122165 0.0468521 0.585327 0.117046 0.0471197 0.574772 
0.111538 0.0472412 0.56377 0.105618 0.0471777 0.552434 0.0992468 0.0468884 0.540884 
0.0923774 0.0463367 0.52923 0.0849686 0.0454967 0.517559 0.0769965 0.0443586 0.505919 
0.0684664 0.0429343 0.49432 0.0594204 0.0412591 0.482724 0.0499405 0.0393923 0.471051 
0.040146 0.0374138 0.459189 0.0301847 0.0354187 0.447008 0.0202204 0.0335102 0.434373 
0.0104155 0.03179 0.421165 0.00091397 0.0303505 0.407294 -0.00817577 0.0292661 0.392709 
-0.0167933 0.0285878 0.377407 -0.0249337 0.0283394 0.361426 -0.0326476 0.0285176 0.34484 
-0.0400342 0.029095 0.327745 -0.047227 0.0300247 0.31024 -0.0543739 0.0312481 0.292408 
-0.0616148 0.0327032 0.274301 -0.0690575 0.0343317 0.255925 -0.0767569 0.0360864 0.237236 
-0.0846988 0.0379353 0.218143 -0.0927915 0.0398637 0.198515 -0.100865 0.0418733 0.178202 
-0.108682 0.0439789 0.157053 -0.115953 0.0462031 0.134947 -0.122363 0.0485699 0.11181 
-0.127597 0.051098 0.0876353 -0.131373 0.0537954 0.0624989 -0.133465 0.0566557 0.0365563 
-0.133731 0.0596554 0.0100368 -0.132119 0.0627553 -0.0167747 -0.128682 0.0659028 -0.0435627 
-0.123564 0.0690365 -0.0700118 -0.116994 0.072091 -0.095837 -0.10926 0.075003 -0.120812 
-0.100687 0.0777151 -0.14479 -0.0916038 0.0801788 -0.167716 -0.0823165 0.0823559 -0.189628 
-0.0730862 0.084217 -0.210646 -0.0641089 0.085739 -0.230952 -0.0555056 0.0869014 -0.250762 
-0.0473201 0.0876817 -0.270296 -0.0395252 0.0880526 -0.289747 -0.0320354 0.0879799 -0.309254 
-0.0247255 0.0874227 -0.328884 -0.017451 0.0863368 -0.348627 -0.0100698 0.0846796 -0.368396 
-0.00246167 0.0824178 -0.388043 0.0054571 0.0795356 -0.407379 0.0137233 0.0760424 -0.426207 
0.0223229 0.0719799 -0.444345 0.0311937 0.0674259 -0.461654 0.040232 0.062494 -0.478058 
0.0493045 0.0573304 -0.49355 0.0582617 0.052105 -0.508193 0.0669526 0.0469999 -0.522103 
0.0752377 0.042195 -0.53543 0.0830004 0.0378525 -0.548329 0.0901546 0.0341025 -0.560929 
0.0966487 0.0310305 -0.573305 0.102466 0.0286697 -0.585459 0.10762 0.0269982 -0.597308 
0.112152 0.0259415 -0.608688 0.116121 0.0253815 -0.619367 0.119594 0.0251694 -0.629073 
0.122643 0.0251426 -0.637526 0.125336 0.0251426 -0.644477 0.127729 0.0250321 -0.649748 
0.129867 0.0247098 -0.653255 0.131782 0.0241205 -0.655036 0.133491 0.0232593 -0.655255 
0.135 0.0221701 -0.654189 0.136304 0.0209375 -0.652211 0.137395 0.0196746 -0.64975 
0.138259 0.0185064 -0.647247 0.138884 0.0175531 -0.645109 0.139259 0.0169132 -0.643666 
0.139378 0.0166507 -0.64313 
LINES 2 100
OFFSETS vtktypeint64
0 100 
CONNECTIVITY vtktypeint64
0 1 2 3 4 5 6 7 8 
9 10 11 12 13 14 15 16 17 
18 19 20 21 22 23 24 25 26 
27 28 29 30 31 32 33 34 35 
36 37 38 39 40 41 42 43 44 
45 46 47 48 49 50 51 52 53 
54 55 56 57 58 59 60 61 62 
63 64 65 66 67 68 69 70 71 
72 73 74 75 76 77 78 79 80 
81 82 83 84 85 86 87 88 89 
90 91 92 93 94 95 96 97 98 
99 
POINT_DATA 100
FIELD FieldData 3
_theta 1 100 double
0 0.031733259127 0.063466518254 0.095199777382 0.12693303651 0.15866629564 0.19039955476 0.22213281389 0.25386607302 
0.28559933214 0.31733259127 0.3490658504 0.38079910953 0.41253236865 0.44426562778 0.47599888691 0.50773214603 0.53946540516 
0.57119866429 0.60293192342 0.63466518254 0.66639844167 0.6981317008 0.72986495992 0.76159821905 0.79333147818 0.82506473731 
0.85679799643 0.88853125556 0.92026451469 0.95199777382 0.98373103294 1.0154642921 1.0471975512 1.0789308103 1.1106640695 
1.1423973286 1.1741305877 1.2058638468 1.237597106 1.2693303651 1.3010636242 1.3327968833 1.3645301425 1.3962634016 
1.4279966607 1.4597299198 1.491463179 1.5231964381 1.5549296972 1.5866629564 1.6183962155 1.6501294746 1.6818627337 
1.7135959929 1.745329252 1.7770625111 1.8087957702 1.8405290294 1.8722622885 1.9039955476 1.9357288068 1.9674620659 
1.999195325 2.0309285841 2.0626618433 2.0943951024 2.1261283615 2.1578616206 2.1895948798 2.2213281389 2.253061398 
2.2847946572 2.3165279163 2.3482611754 2.3799944345 2.4117276937 2.4434609528 2.4751942119 2.506927471 2.5386607302 
2.5703939893 2.6021272484 2.6338605076 2.6655937667 2.6973270258 2.7290602849 2.7607935441 2.7925268032 2.8242600623 
2.8559933214 2.8877265806 2.9194598397 2.9511930988 2.982926358 3.0146596171 3.0463928762 3.0781261353 3.1098593945 
3.1415926536 
_radius 1 100 double
6.6616995387e-16 0.015374945452 0.030738316797 0.046067454837 0.06132971492 0.07647870717 0.09145190611 0.10617034626 0.12054094224 
0.1344615465 0.14782831427 0.16054445364 0.17252913161 0.18372522995 0.1941047697 0.20367109901 0.21245734365 0.22052115313 
0.22793640354 0.23478312203 0.24113728632 0.24706215206 0.25260231567 0.25778095795 0.26259991583 0.26704171835 0.27107269489 
0.27464664624 0.27770902716 0.28020175288 0.28206850719 0.28326003314 0.2837386533 0.28348134131 0.28248099013 0.28074597034 
0.2782985327 0.27517297383 0.27141461733 0.26708045123 0.26224169361 0.25698777007 0.2514304326 0.24570629934 0.23997613519 
0.23441974516 0.22922624762 0.22458047231 0.22064714366 0.21755537946 0.21538667845 0.21416926393 0.21387968652 0.21444951655 
0.21577278238 0.21771042941 0.22009151713 0.22271493159 0.22535684688 0.2277864507 0.22978764603 0.23118144747 0.23184423508 
0.23171927619 0.23082069883 0.22922984642 0.22708453948 0.22456277633 0.22186336782 0.21918621802 0.21671423951 0.21459769418 
0.21294091992 0.2117915708 0.21113348621 0.21088510514 0.21090491571 0.21100373382 0.21096173662 0.21054730823 0.20953510653 
0.20772165808 0.20493748943 0.20105510583 0.19599232912 0.18971093058 0.18221113902 0.17352322582 0.16369775306 0.15279617379 
0.14088334199 0.12802313596 0.11427779364 0.099710720639 0.084391649221 0.068402432517 0.051841741308 0.03482745864 0.017496225436 
3.7151296064e-16 
_area 1 100 double
0 0.0006313184069 0.0025144446217 0.0056159126522 0.0098774424375 0.015214472886 0.021517496652 0.028657332469 0.036493757239 
0.044885311657 0.053697573154 0.062808229854 0.072109310216 0.08150849315 0.090931314658 0.10032427875 0.10965658068 0.11891706969 
0.1281045643 0.13721353296 0.14622092771 0.1550802806 0.16372543973 0.17208108743 0.18007320547 0.18763186006 0.19468300037 
0.20113489596 0.20687132282 0.21175944302 0.21566866491 0.21848934349 0.22014205759 0.22057568744 0.21976033239 0.21768321994 
0.21435006549 0.20978943969 0.20405911052 0.19725533495 0.18952455143 0.1810736409 0.17217246972 0.16314179485 0.15432151547 
0.14602331952 0.13849214631 0.13190679237 0.12640691972 0.12209831278 0.11901541972 0.11706729019 0.11605499304 0.1158727523 
0.11662306196 0.11798385534 0.11953650007 0.12106330346 0.12229094049 0.12302818751 0.12303120844 0.12236389354 0.1209303495 
0.11875737666 0.11598439337 0.11270944974 0.10907200344 0.10526074772 0.1015089349 0.098082239625 0.095247958523 0.093413802166 
0.092731637882 0.093184685242 0.094612317402 0.096680191088 0.098999674937 0.10123784626 0.10317449504 0.10469619929 0.10554788343 
0.10536682144 0.10392426154 0.10111378232 0.096916331677 0.091377940688 0.084598660816 0.076733616419 0.068000654207 0.058684076108 
0.049125473012 0.039699232322 0.030777066313 0.022689600785 0.015693581908 0.0099521720166 0.0055339923477 0.0024329142336 0.00060357555422 
1.734723476e-18 
