# vtk DataFile Version 5.1
vtk output
ASCII
DATASET POLYDATA
POINTS 100 float
0.155559 0.0687495 0.696075 0.155583 0.0687116 0.696222 0.155736 0.068463 0.696495 
0.155964 0.0680433 0.696792 0.156181 0.067513 0.696958 0.156284 0.0669451 0.696794 
0.156165 0.0664147 0.696084 0.15572 0.0659893 0.694612 0.154869 0.0657182 0.692181 
0.153555 0.0656255 0.688633 0.151755 0.065705 0.683864 0.149477 0.065919 0.677827 
0.146752 0.0662012 0.670538 0.143631 0.0664628 0.662069 0.140165 0.0666014 0.652537 
0.136403 0.0665125 0.642094 0.132374 0.0661007 0.630906 0.128086 0.0652906 0.619141 
0.12352 0.0640364 0.606948 0.118634 0.0623275 0.594454 0.113372 0.060191 0.581745 
0.10767 0.0576909 0.568874 0.101474 0.0549226 0.555856 0.0947495 0.052005 0.542676 
0.0874942 0.0490704 0.529298 0.0797432 0.0462526 0.515676 0.0715717 0.0436762 0.501762 
0.0630908 0.0414462 0.48752 0.0544377 0.0396409 0.472927 0.0457619 0.0383064 0.457978 
0.0372081 0.0374559 0.442688 0.0288992 0.0370714 0.427082 0.020921 0.0371083 0.411191 
0.0133114 0.0375021 0.395045 0.00605521 0.0381774 0.37866 -0.000913482 0.0390557 0.362034 
-0.00770235 0.0400638 0.345139 -0.0144453 0.0411399 0.327921 -0.0212825 0.0422387 0.310299 
-0.0283385 0.0433329 0.292175 -0.035701 0.0444133 0.273438 -0.0434032 0.0454865 0.253981 
-0.051412 0.0465708 0.233708 -0.0596235 0.0476913 0.212549 -0.0678681 0.0488744 0.190471 
-0.0759222 0.0501432 0.167482 -0.0835281 0.051513 0.143636 -0.0904178 0.052989 0.119032 
-0.0963389 0.0545646 0.0938048 -0.10108 0.0562223 0.0681208 -0.104489 0.0579346 0.0421606 
-0.106492 0.0596673 0.016107 -0.107094 0.0613821 -0.00986842 -0.106379 0.0630399 -0.0356183 
-0.1045 0.0646041 -0.061028 -0.101657 0.0660423 -0.0860216 -0.0980797 0.067328 -0.110562 
-0.093997 0.068441 -0.134649 -0.0896188 0.0693669 -0.158311 -0.0851139 0.0700963 -0.181594 
-0.0805972 0.070623 -0.204553 -0.0761231 0.070943 -0.227236 -0.0716873 0.0710528 -0.249677 
-0.0672357 0.0709486 -0.271887 -0.0626787 0.0706262 -0.293847 -0.0579092 0.0700808 -0.31551 
-0.0528227 0.0693085 -0.336804 -0.0473345 0.068307 -0.357637 -0.0413945 0.0670773 -0.377907 
-0.034997 0.0656244 -0.397512 -0.0281834 0.063959 -0.416363 -0.0210396 0.0620972 -0.434392 
-0.0136878 0.0600606 -0.451559 -0.00627416 0.0578755 -0.467856 0.00104601 0.0555709 -0.483308 
0.00812273 0.0531769 -0.497967 0.0148247 0.0507226 -0.511909 0.0210493 0.0482335 -0.525222 
0.0267283 0.0457304 -0.537993 0.0318297 0.0432272 -0.550304 0.036354 0.0407311 -0.562214 
0.0403289 0.0382425 -0.573757 0.0438 0.035756 -0.584937 0.0468221 0.0332625 -0.595724 
0.0494506 0.0307512 -0.606063 0.0517347 0.0282123 -0.615876 0.0537133 0.0256401 -0.62507 
0.0554137 0.023035 -0.633555 0.0568532 0.0204057 -0.641246 0.0580422 0.0177707 -0.648078 
0.0589891 0.0151583 -0.654012 0.0597048 0.0126062 -0.659042 0.0602067 0.0101602 -0.663193 
0.0605207 0.00787221 -0.666519 0.0606812 0.0057968 -0.669098 0.0607292 0.00398837 -0.671023 
0.0607086 0.00249764 -0.672392 0.0606608 0.00136832 -0.673293 0.0606201 0.000634281 -0.673801 
0.0606087 0.000317287 -0.67396 
LINES 2 100
OFFSETS vtktypeint64
0 100 
CONNECTIVITY vtktypeint64
0 1 2 3 4 5 6 7 8 
9 10 11 12 13 14 15 16 17 
18 19 20 21 22 23 24 25 26 
27 28 29 30 31 32 33 34 35 
36 37 38 39 40 41 42 43 44 
45 46 47 48 49 50 51 52 53 
54 55 56 57 58 59 60 61 62 
63 64 65 66 67 68 69 70 71 
72 73 74 75 76 77 78 79 80 
81 82 83 84 85 86 87 88 89 
90 91 92 93 94 95 96 97 98 
99 
POINT_DATA 100
FIELD FieldData 3
_theta 1 100 double
0 0.031733259127 0.063466518254 0.095199777382 0.12693303651 0.15866629564 0.19039955476 0.22213281389 0.25386607302 
0.28559933214 0.31733259127 0.3490658504 0.38079910953 0.41253236865 0.44426562778 0.47599888691 0.50773214603 0.53946540516 
0.57119866429 0.60293192342 0.63466518254 0.66639844167 0.6981317008 0.72986495992 0.76159821905 0.79333147818 0.82506473731 
0.85679799643 0.88853125556 0.92026451469 0.95199777382 0.98373103294 1.0154642921 1.0471975512 1.0789308103 1.1106640695 
1.1423973286 1.1741305877 1.2058638468 1.237597106 1.2693303651 1.3010636242 1.3327968833 1.3645301425 1.3962634016 
1.4279966607 1.4597299198 1.491463179 1.5231964381 1.5549296972 1.5866629564 1.6183962155 1.6501294746 1.6818627337 
1.7135959929 1.745329252 1.7770625111 1.8087957702 1.8405290294 1.8722622885 1.9039955476 1.9357288068 1.9674620659 
1.999195325 2.0309285841 2.0626618433 2.0943951024 2.1261283615 2.1578616206 2.1895948798 2.2213281389 2.253061398 
2.2847946572 2.3165279163 2.3482611754 2.3799944345 2.4117276937 2.4434609528 2.4751942119 2.506927471 2.5386607302 
2.5703939893 2.6021272484 2.6338605076 2.6655937667 2.6973270258 2.7290602849 2.7607935441 2.7925268032 2.8242600623 
2.8559933214 2.8877265806 2.9194598397 2.9511930988 2.982926358 3.0146596171 3.0463928762 3.0781261353 3.1098593945 
3.1415926536 
_radius 1 100 double
3.3794621717e-16 0.015356029336 0.030535031835 0.045371800056 0.059725756459 0.073488900297 0.086589389223 0.098990603428 0.11068631503 
0.12169318547 0.13204210163 0.14176978096 0.1509116839 0.15949673442 0.16754389009 0.17506039389 0.18204160319 0.18847248044 
0.19433092298 0.19959295215 0.20423938229 0.20826310154 0.21167571452 0.21451216094 0.21683208123 0.21871712755 0.22026406935 
0.22157434386 0.2227415242 0.22383881125 0.22490884715 0.22595773806 0.2269542319 0.22783385504 0.22850691191 0.2288688932 
0.22881202407 0.22823713565 0.22706538414 0.22524932934 0.2227825689 0.2197067744 0.21611481386 0.21214872347 0.20799159821 
0.2038530989 0.19994939873 0.19648001813 0.19360560962 0.19143137867 0.18999973209 0.1892931751 0.18924547715 0.18975684697 
0.19070817794 0.19197086067 0.19341199115 0.19489840889 0.19630403747 0.19752203697 0.1984788579 0.1991453159 0.19954102627 
0.19973097116 0.19981500808 0.1999124051 0.20014410664 0.20061539367 0.20140087438 0.20253269456 0.20399243709 0.205707856 
0.20755598796 0.20937280594 0.21096757813 0.21213937778 0.21269364637 0.21245729434 0.21129112075 0.20909849603 0.20582948441 
0.20147998788 0.19608607195 0.18971430235 0.1824495367 0.17438201198 0.16559562861 0.15615902729 0.14612047442 0.13550688932 
0.12432674121 0.11257611356 0.10024696593 0.087336445295 0.073855971308 0.059838782012 0.045344758621 0.030461694092 0.015302694125 
1.0314265008e-15 
_area 1 100 double
0 0.0005722544774 0.0022697463523 0.0050374378363 0.0087921539555 0.013433130777 0.01885279562 0.024945096259 0.031609510549 
0.038750224514 0.046271505157 0.054071738166 0.062039491954 0.070054481991 0.077994051202 0.085742780932 0.093201028392 0.10028878906 
0.10694396279 0.11311726669 0.11876793269 0.12386409022 0.12838953757 0.1323550807 0.13580881707 0.13883791163 0.14155727778 
0.14408737664 0.14652847758 0.14893881112 0.15132169068 0.1536240258 0.15574585201 0.15755872419 0.15893124742 0.15976479143 
0.16004522593 0.15956890976 0.15802604479 0.15534355124 0.15157691907 0.14689114874 0.14153596924 0.13582019949 0.13006728395 
0.12458050053 0.11961562772 0.11534175764 0.11181529307 0.10897976388 0.10668957314 0.1047508538 0.10297274787 0.10121796771 
0.099438442385 0.097686510759 0.09609842177 0.094912471675 0.094348030481 0.094288257158 0.094360873088 0.094233692206 0.093791098837 
0.093130030195 0.092322902827 0.091549808145 0.091002569174 0.090862168238 0.091279832385 0.092358747745 0.09427098497 0.096878793662 
0.099713607854 0.10249524999 0.10504961838 0.1073025548 0.10920547308 0.11025932004 0.1102193101 0.10895654966 0.10642155609 
0.10264879682 0.097751261464 0.091903404296 0.085315249747 0.078203448579 0.070766364298 0.063169151772 0.055541304562 0.047984794784 
0.040587937874 0.033439666162 0.026640446955 0.020308174582 0.014578704141 0.0096010211834 0.0055272803301 0.0024989179055 0.00063130527306 
2.7841113934e-17 
