# vtk DataFile Version 5.1
vtk output
ASCII
DATASET POLYDATA
POINTS 100 float
0.037305 0.0282978 0.673231 0.0372827 0.0284703 0.672721 0.0372145 0.0288497 0.671105 
0.0370823 0.0294157 0.66843 0.0368608 0.030136 0.664768 0.0365232 0.0309691 0.660212 
0.0360476 0.031868 0.654866 0.0354233 0.0327844 0.648838 0.0346553 0.0336727 0.642231 
0.0337671 0.0344941 0.635131 0.0328005 0.0352196 0.627613 0.0318119 0.0358327 0.619725 
0.0308662 0.03633 0.6115 0.0300286 0.0367213 0.602951 0.0293551 0.0370278 0.594079 
0.0288832 0.037279 0.584877 0.0286247 0.0375092 0.575334 0.0285601 0.0377528 0.565445 
0.0286378 0.0380401 0.555209 0.0287764 0.0383929 0.544636 0.0288712 0.0388214 0.533743 
0.0288041 0.0393221 0.522553 0.028455 0.0398774 0.511092 0.0277148 0.0404564 0.499386 
0.0264966 0.0410179 0.487455 0.0247457 0.0415145 0.47531 0.0224447 0.0418973 0.462951 
0.0196154 0.0421218 0.450368 0.016315 0.0421528 0.437538 0.012629 0.0419693 0.424433 
0.00865923 0.0415676 0.411021 0.00451167 0.0409633 0.397273 0.000282089 0.0401909 0.383166 
-0.00395591 0.0393021 0.368685 -0.00816016 0.0383615 0.353832 -0.012325 0.0374426 0.338617 
-0.016481 0.036621 0.323063 -0.0206901 0.0359694 0.3072 -0.0250351 0.035552 0.291059 
-0.0296064 0.03542 0.274665 -0.0344863 0.0356091 0.258034 -0.0397331 0.0361385 0.241168 
-0.0453675 0.0370118 0.224047 -0.0513616 0.0382189 0.206634 -0.0576336 0.0397398 0.188875 
-0.0640481 0.0415491 0.170703 -0.0704223 0.0436193 0.152042 -0.0765373 0.0459254 0.13282 
-0.0821541 0.0484466 0.112977 -0.0870322 0.051168 0.0924677 -0.0909485 0.0540794 0.0712744 
-0.0937153 0.0571738 0.0494084 -0.0951954 0.0604438 0.0269122 -0.0953113 0.0638778 0.00385824 
-0.0940503 0.0674557 -0.0196551 -0.0914625 0.0711454 -0.04351 -0.0876533 0.0748999 -0.0675774 
-0.0827717 0.0786572 -0.0917255 -0.0769938 0.0823401 -0.115828 -0.0705066 0.0858595 -0.139772 
-0.0634898 0.0891186 -0.16346 -0.0561012 0.092018 -0.186819 -0.0484645 0.094462 -0.209793 
-0.040662 0.0963642 -0.232344 -0.032732 0.0976524 -0.254452 -0.0246714 0.0982724 -0.276102 
-0.0164423 0.0981895 -0.297285 -0.00798284 0.0973886 -0.317986 0.000780932 0.095872 -0.338189 
0.00992164 0.0936561 -0.357867 0.0194983 0.0907673 -0.376982 0.0295459 0.0872367 -0.395492 
0.0400681 0.0830972 -0.413345 0.051033 0.0783797 -0.430492 0.0623734 0.0731123 -0.446882 
0.0739899 0.0673211 -0.462475 0.085757 0.0610325 -0.477237 0.097532 0.0542771 -0.491147 
0.109164 0.0470943 -0.504196 0.120504 0.0395375 -0.516388 0.131412 0.031678 -0.527734 
0.14177 0.0236071 -0.538253 0.15148 0.0154369 -0.547969 0.160472 0.00729727 -0.556905 
0.168703 -0.000668847 -0.565085 0.176156 -0.00831317 -0.572528 0.182838 -0.0154913 -0.579255 
0.188774 -0.0220726 -0.585281 0.194003 -0.0279505 -0.590623 0.198573 -0.0330501 -0.595303 
0.202535 -0.0373347 -0.599345 0.205941 -0.0408084 -0.602779 0.208839 -0.0435143 -0.605644 
0.21127 -0.0455305 -0.607983 0.213272 -0.0469607 -0.609845 0.214871 -0.0479239 -0.611282 
0.216091 -0.0485412 -0.612341 0.216946 -0.0489229 -0.613067 0.217448 -0.049157 -0.613494 
0.217602 -0.0492995 -0.613642 
LINES 2 100
OFFSETS vtktypeint64
0 100 
CONNECTIVITY vtktypeint64
0 1 2 3 4 5 6 7 8 
9 10 11 12 13 14 15 16 17 
18 19 20 21 22 23 24 25 26 
27 28 29 30 31 32 33 34 35 
36 37 38 39 40 41 42 43 44 
45 46 47 48 49 50 51 52 53 
54 55 56 57 58 59 60 61 62 
63 64 65 66 67 68 69 70 71 
72 73 74 75 76 77 78 79 80 
81 82 83 84 85 86 87 88 89 
90 91 92 93 94 95 96 97 98 
99 
POINT_DATA 100
FIELD FieldData 3
_theta 1 100 double
0 0.031733259127 0.063466518254 0.095199777382 0.12693303651 0.15866629564 0.19039955476 0.22213281389 0.25386607302 
0.28559933214 0.31733259127 0.3490658504 0.38079910953 0.41253236865 0.44426562778 0.47599888691 0.50773214603 0.53946540516 
0.57119866429 0.60293192342 0.63466518254 0.66639844167 0.6981317008 0.72986495992 0.76159821905 0.79333147818 0.82506473731 
0.85679799643 0.88853125556 0.92026451469 0.95199777382 0.98373103294 1.0154642921 1.0471975512 1.0789308103 1.1106640695 
1.1423973286 1.1741305877 1.2058638468 1.237597106 1.2693303651 1.3010636242 1.3327968833 1.3645301425 1.3962634016 
1.4279966607 1.4597299198 1.491463179 1.5231964381 1.5549296972 1.5866629564 1.6183962155 1.6501294746 1.6818627337 
1.7135959929 1.745329252 1.7770625111 1.8087957702 1.8405290294 1.8722622885 1.9039955476 1.9357288068 1.9674620659 
1.999195325 2.0309285841 2.0626618433 2.0943951024 2.1261283615 2.1578616206 2.1895948798 2.2213281389 2.253061398 
2.2847946572 2.3165279163 2.3482611754 2.3799944345 2.4117276937 2.4434609528 2.4751942119 2.506927471 2.5386607302 
2.5703939893 2.6021272484 2.6338605076 2.6655937667 2.6973270258 2.7290602849 2.7607935441 2.7925268032 2.8242600623 
2.8559933214 2.8877265806 2.9194598397 2.9511930988 2.982926358 3.0146596171 3.0463928762 3.0781261353 3.1098593945 
3.1415926536 
_radius 1 100 double
6.6793837412e-16 0.012671291357 0.025361367925 0.038081899675 0.050832600926 0.063595708772 0.076331858015 0.088978564544 0.10145237782 
0.11365517687 0.12548420874 0.13684451518 0.14766160422 0.15789184021 0.16752822283 0.17660002557 0.18516599969 0.19330221917 
0.2010868011 0.20858439357 0.21583331117 0.2228375323 0.2295646679 0.23594982746 0.24190438522 0.24732814126 0.25212320814 
0.25620794991 0.25952932623 0.26207205358 0.26386319051 0.2649711845 0.26549909574 0.26557253388 0.26532364906 0.26487317191 
0.26431293723 0.26369151767 0.26300547076 0.2621981347 0.2611667956 0.25977750032 0.25788525403 0.25535641525 0.2520900782 
0.24803588176 0.24320648641 0.23768351194 0.23161598603 0.22521061764 0.21871388786 0.21238728614 0.20647884701 0.2011957653 
0.19668324605 0.19301323055 0.1901837806 0.18812723429 0.18672402907 0.18581937373 0.18524090443 0.1848162249 0.18438941675 
0.18383533927 0.18307031236 0.18205805479 0.18081051772 0.17938403486 0.17787154194 0.17639144142 0.17507337464 0.17404124352 
0.17339462721 0.17319104273 0.17343248023 0.17405939154 0.1749536281 0.17594946897 0.176849972 0.17744512806 0.17752870419 
0.17691176105 0.17543206434 0.1729595804 0.16939878664 0.16468865891 0.15880105819 0.15173799684 0.14352806198 0.13422218838 
0.12388901538 0.1126101843 0.10047605125 0.087582312015 0.074027896469 0.059914191873 0.045345283728 0.030428609326 0.015275340422 
1.0883225692e-15 
_area 1 100 double
0 0.00042732457256 0.0017135144728 0.003867876651 0.0068961934272 0.010790253934 0.015519134349 0.021024413967 0.027219693175 
0.033993784154 0.041217135949 0.048751664356 0.056464044138 0.064241302523 0.072005892644 0.07972631865 0.087419446495 0.095142017231 
0.10297140627 0.11097877731 0.11920045973 0.12761450051 0.13612832751 0.14458082163 0.15275903635 0.1604271099 0.16736255833 
0.17339300617 0.17842507379 0.18245775943 0.18557610309 0.18792630848 0.18967833578 0.19098686358 0.19196680118 0.19269148687 
0.19320124141 0.19350807488 0.19359716144 0.19343186709 0.19295823384 0.1920620819 0.19048417646 0.18789298584 0.18404338744 
0.17883305414 0.17230732164 0.16465461355 0.15619335458 0.14734337493 0.13857554617 0.13033854482 0.12298195237 0.11673339309 
0.11152036827 0.10708456926 0.10322818585 0.099842773178 0.096877773378 0.094316435681 0.092198229927 0.090335421718 0.088668448288 
0.087147388309 0.085748420298 0.084417192715 0.082984029839 0.081299677434 0.079322322144 0.077107485425 0.074785486897 0.072544604878 
0.070623267575 0.069267301628 0.068714981169 0.069190261406 0.070753899581 0.072724762564 0.07471565232 0.076448994479 0.077696859287 
0.078272294992 0.078024225366 0.076834411928 0.074619888329 0.071342177254 0.067019437661 0.06173485668 0.055636489226 0.048927788401 
0.041851173514 0.034668374845 0.027641430324 0.021017424825 0.015018528019 0.0098370189686 0.005633504555 0.0025360863203 0.00063892713434 
8.911889714e-17 
