# vtk DataFile Version 5.1
vtk output
ASCII
DATASET POLYDATA
POINTS 100 float
0.107975 0.0503138 0.735822 0.10801 0.0506709 0.735558 0.108174 0.0515359 0.734641 
0.108459 0.0528357 0.733101 0.108851 0.0544597 0.730976 0.109329 0.056272 0.728308 
0.109864 0.0581273 0.725133 0.110421 0.0598869 0.721464 0.110959 0.0614333 0.717294 
0.111426 0.0626823 0.712583 0.11177 0.0635893 0.707265 0.11193 0.0641508 0.701252 
0.111845 0.0644001 0.694446 0.111452 0.0643988 0.686754 0.110691 0.0642236 0.678101 
0.109506 0.0639529 0.668445 0.107846 0.0636527 0.657788 0.105672 0.0633652 0.646181 
0.10295 0.0631009 0.633725 0.0996625 0.0628364 0.620563 0.0958005 0.0625166 0.606865 
0.0913695 0.0620625 0.592814 0.0863877 0.0613825 0.578586 0.0808856 0.0603866 0.564329 
0.0749058 0.0590008 0.550146 0.0685016 0.0571797 0.536087 0.0617355 0.0549168 0.522144 
0.0546769 0.0522494 0.50825 0.0473993 0.0492586 0.494294 0.0399771 0.0460643 0.480133 
0.0324818 0.0428147 0.465615 0.0249774 0.0396733 0.450594 0.017517 0.0368031 0.434953 
0.0101383 0.0343519 0.418616 0.00286147 0.0324385 0.401555 -0.00431305 0.031143 0.383792 
-0.0114038 0.0305008 0.365392 -0.0184464 0.0305025 0.346448 -0.0254884 0.0310978 0.327063 
-0.0325832 0.0322037 0.307333 -0.0397809 0.0337158 0.287328 -0.0471191 0.0355206 0.267077 
-0.0546129 0.037508 0.246558 -0.0622455 0.0395816 0.225704 -0.0699609 0.0416669 0.204403 
-0.07766 0.0437152 0.182517 -0.0851996 0.0457043 0.159902 -0.0923965 0.0476357 0.136428 
-0.0990357 0.0495287 0.112005 -0.104883 0.0514133 0.0865973 -0.109701 0.0533223 0.0602399 
-0.113266 0.0552838 0.0330404 -0.115388 0.0573157 0.0051756 -0.115926 0.0594215 -0.0231215 
-0.114802 0.0615895 -0.051582 -0.112013 0.0637933 -0.0799255 -0.107631 0.0659944 -0.107886 
-0.1018 0.0681458 -0.135237 -0.0947305 0.0701965 -0.161809 -0.0866786 0.0720945 -0.187506 
-0.0779301 0.07379 -0.212305 -0.0687762 0.0752364 -0.236251 -0.0594912 0.076391 -0.259447 
-0.0503109 0.0772139 -0.282031 -0.0414152 0.077667 -0.304156 -0.0329167 0.0777127 -0.325963 
-0.0248556 0.0773137 -0.347566 -0.0172018 0.0764342 -0.36903 -0.00986462 0.0750413 -0.390371 
-0.00270768 0.0731096 -0.411548 0.0044317 0.0706253 -0.432478 0.011721 0.0675911 -0.453042 
0.0193112 0.064031 -0.47311 0.0273183 0.0599933 -0.492553 0.0358088 0.0555514 -0.511267 
0.0447911 0.0508025 -0.529178 0.0542142 0.0458625 -0.546254 0.0639715 0.0408593 -0.562503 
0.0739122 0.0359228 -0.57797 0.0838552 0.0311751 -0.592715 0.093607 0.0267194 -0.60681 
0.10298 0.0226315 -0.620312 0.111807 0.0189531 -0.633253 0.119957 0.015689 -0.645629 
0.127342 0.0128083 -0.657395 0.133919 0.0102498 -0.668467 0.139694 0.00793075 -0.678734 
0.144705 0.00575828 -0.688067 0.149024 0.00364252 -0.696345 0.152736 0.00150886 -0.703468 
0.15593 -0.000691286 -0.709378 0.158688 -0.00297317 -0.714072 0.161079 -0.00531548 -0.717605 
0.163148 -0.00766184 -0.72009 0.16492 -0.00992688 -0.721692 0.1664 -0.012006 -0.722604 
0.167579 -0.013788 -0.723032 0.168439 -0.0151684 -0.723169 0.168961 -0.016062 -0.723171 
0.169131 -0.0164138 -0.723141 
LINES 2 100
OFFSETS vtktypeint64
0 100 
CONNECTIVITY vtktypeint64
0 1 2 3 4 5 6 7 8 
9 10 11 12 13 14 15 16 17 
18 19 20 21 22 23 24 25 26 
27 28 29 30 31 32 33 34 35 
36 37 38 39 40 41 42 43 44 
45 46 47 48 49 50 51 52 53 
54 55 56 57 58 59 60 61 62 
63 64 65 66 67 68 69 70 71 
72 73 74 75 76 77 78 79 80 
81 82 83 84 85 86 87 88 89 
90 91 92 93 94 95 96 97 98 
99 
POINT_DATA 100
FIELD FieldData 3
_theta 1 100 double
0 0.031733259127 0.063466518254 0.095199777382 0.12693303651 0.15866629564 0.19039955476 0.22213281389 0.25386607302 
0.28559933214 0.31733259127 0.3490658504 0.38079910953 0.41253236865 0.44426562778 0.47599888691 0.50773214603 0.53946540516 
0.57119866429 0.60293192342 0.63466518254 0.66639844167 0.6981317008 0.72986495992 0.76159821905 0.79333147818 0.82506473731 
0.85679799643 0.88853125556 0.92026451469 0.95199777382 0.98373103294 1.0154642921 1.0471975512 1.0789308103 1.1106640695 
1.1423973286 1.1741305877 1.2058638468 1.237597106 1.2693303651 1.3010636242 1.3327968833 1.3645301425 1.3962634016 
1.4279966607 1.4597299198 1.491463179 1.5231964381 1.5549296972 1.5866629564 1.6183962155 1.6501294746 1.6818627337 
1.7135959929 1.745329252 1.7770625111 1.8087957702 1.8405290294 1.8722622885 1.9039955476 1.9357288068 1.9674620659 
1.999195325 2.0309285841 2.0626618433 2.0943951024 2.1261283615 2.1578616206 2.1895948798 2.2213281389 2.253061398 
2.2847946572 2.3165279163 2.3482611754 2.3799944345 2.4117276937 2.4434609528 2.4751942119 2.506927471 2.5386607302 
2.5703939893 2.6021272484 2.6338605076 2.6655937667 2.6973270258 2.7290602849 2.7607935441 2.7925268032 2.8242600623 
2.8559933214 2.8877265806 2.9194598397 2.9511930988 2.982926358 3.0146596171 3.0463928762 3.0781261353 3.1098593945 
3.1415926536 
_radius 1 100 double
3.4443763525e-16 0.015669988483 0.031287843289 0.046791289039 0.062107806756 0.077152479359 0.091828546739 0.10603079941 0.11965150793 
0.13258817792 0.144752068 0.15607618033 0.16652141116 0.17607977396 0.18477405378 0.19265384408 0.19978854995 0.20625847987 
0.21214545055 0.21752431721 0.22245655185 0.22698655927 0.23114098004 0.23493084077 0.23835605416 0.24141141477 0.24409291208 
0.24640299605 0.24835350959 0.24996541745 0.25126516362 0.25227830765 0.25302179022 0.25349655535 0.25368222551 0.25353514358 
0.25299050752 0.25196867425 0.25038508665 0.24816273567 0.24524566969 0.24161186192 0.23728375217 0.23233493116 0.22689167448 
0.22112838942 0.21525665113 0.20950850445 0.20411603492 0.19929051143 0.19520506448 0.19198418661 0.18970098734 0.18837984515 
0.18799986429 0.18849530869 0.18975294267 0.19161041393 0.19386114321 0.19626849554 0.19858755999 0.20058996436 0.20208699679 
0.20294772534 0.20311021496 0.20258482483 0.20144935312 0.1998368631 0.19791815616 0.1958815421 0.19391249753 0.19217514471 
0.19079670593 0.18985566875 0.18937440036 0.1893169403 0.1895922034 0.19006188222 0.19055149054 0.19086272597 0.19078571391 
0.1901104205 0.18863715956 0.18618635284 0.18260750066 0.17778691417 0.17165342852 0.16418121649 0.15538900188 0.14533543324 
0.13411107443 0.12182823815 0.10861047559 0.094583676143 0.079870291386 0.064587262976 0.04884710974 0.032760732351 0.016440178285 
7.2122208934e-16 
_area 1 100 double
0 0.00061693826305 0.0024583810745 0.0054949355727 0.0096740107641 0.014916318079 0.021113707989 0.028129505991 0.035801876947 
0.043950068415 0.052382821916 0.060908314559 0.069345504611 0.077536196862 0.0853551947 0.092715094781 0.099564593789 0.10588295036 
0.11167507253 0.11696999322 0.12182168877 0.12630830054 0.13052606569 0.13457738835 0.13855579166 0.14253134561 0.14653902083 
0.15057202905 0.1545829128 0.15849363311 0.16221121659 0.1656423797 0.16870251622 0.17131858511 0.17342617871 0.17495344224 
0.17578139466 0.17572070024 0.17456396349 0.1721600964 0.16845214305 0.16348813806 0.15741669688 0.15047130534 0.1429483734 
0.1351848209 0.12753660416 0.12035303171 0.11393986245 0.10851070477 0.10414231308 0.10076557298 0.098211198236 0.09628529331 
0.094827746437 0.093730922703 0.092928556805 0.092377405705 0.09207940094 0.09204865584 0.092119408587 0.092195415897 0.092214262859 
0.092152814804 0.091955947013 0.091492061901 0.090686208352 0.089545300773 0.08815135248 0.086639867159 0.085165217777 0.083866510834 
0.082858520164 0.082223178988 0.081965652785 0.082072928974 0.082513312717 0.083260119333 0.084296852498 0.085615412248 0.086831361996 
0.087499382766 0.087366278195 0.086209143785 0.083845558744 0.080161372486 0.07513637705 0.068860071542 0.061532790355 0.053450791149 
0.044977188868 0.036503451053 0.028408091221 0.021019694253 0.014590338287 0.0092833101231 0.0051764863234 0.002280276324 0.00056633968527 
3.362170093e-17 
