# vtk DataFile Version 5.1
vtk output
ASCII
DATASET POLYDATA
POINTS 100 float
0.0817879 0.0509827 0.687665 0.0818954 0.0510906 0.687383 0.0822748 0.05125 0.686404 
0.0828716 0.0514606 0.684749 0.0836021 0.0517219 0.682448 0.0843648 0.0520338 0.679535 
0.0850532 0.0523955 0.676044 0.0855694 0.052805 0.671998 0.0858357 0.0532584 0.66741 
0.0858035 0.0537481 0.662272 0.0854574 0.0542615 0.65656 0.0848143 0.0547798 0.650233 
0.0839174 0.0552769 0.643239 0.0828271 0.0557186 0.635521 0.0816082 0.0560629 0.627024 
0.0803168 0.0562622 0.617708 0.0789889 0.056265 0.607551 0.0776308 0.0560204 0.596557 
0.0762146 0.0554826 0.584763 0.0746781 0.054616 0.57223 0.0729301 0.0534008 0.55905 
0.0708599 0.0518374 0.545332 0.0683497 0.0499496 0.531198 0.0652885 0.0477867 0.516772 
0.0615853 0.0454223 0.502166 0.0571803 0.0429511 0.487478 0.0520519 0.040484 0.472779 
0.0462191 0.0381402 0.458109 0.0397393 0.0360385 0.443479 0.0327007 0.0342881 0.428869 
0.0252131 0.0329797 0.414235 0.0173944 0.0321775 0.399515 0.00935989 0.0319148 0.384636 
0.00121075 0.0321906 0.369522 -0.00697245 0.0329709 0.354102 -0.0151328 0.0341922 0.338318 
-0.0232357 0.0357687 0.322122 -0.0312628 0.0376003 0.305482 -0.0392032 0.0395833 0.28838 
-0.0470434 0.04162 0.270809 -0.0547564 0.0436278 0.252769 -0.0622936 0.0455462 0.234262 
-0.0695799 0.0473412 0.215289 -0.0765129 0.0490063 0.195848 -0.0829675 0.0505604 0.175932 
-0.0888043 0.0520432 0.155531 -0.0938825 0.0535079 0.134634 -0.0980729 0.0550131 0.113231 
-0.101273 0.0566141 0.0913217 -0.103419 0.058355 0.0689143 -0.104493 0.0602628 0.0460332 
-0.104526 0.0623438 0.0227199 -0.103599 0.064582 -0.000967308 -0.101831 0.0669409 -0.0249541 
-0.0993673 0.0693674 -0.0491537 -0.0963653 0.071797 -0.0734718 -0.0929765 0.0741601 -0.0978115 
-0.0893308 0.0763881 -0.12208 -0.0855234 0.078419 -0.146191 -0.0816065 0.0802005 -0.170073 
-0.0775866 0.0816923 -0.193665 -0.0734272 0.0828658 -0.216924 -0.069058 0.0837015 -0.239816 
-0.0643865 0.0841865 -0.262318 -0.0593141 0.0843095 -0.284414 -0.053751 0.0840575 -0.306087 
-0.0476304 0.0834129 -0.327318 -0.0409187 0.0823514 -0.348084 -0.0336219 0.0808429 -0.368354 
-0.0257861 0.0788536 -0.388091 -0.017493 0.0763498 -0.407255 -0.0088517 0.0733033 -0.425802 
1.32136e-05 0.069697 -0.443692 0.00897384 0.0655306 -0.460889 0.0179109 0.0608244 -0.477367 
0.0267231 0.0556222 -0.49311 0.035333 0.0499913 -0.508114 0.0436884 0.0440203 -0.522386 
0.0517596 0.0378148 -0.535938 0.0595334 0.0314907 -0.548789 0.0670041 0.0251669 -0.560956 
0.0741645 0.0189572 -0.572451 0.0809972 0.0129634 -0.58328 0.0874691 0.00726914 -0.593436 
0.0935288 0.00193599 -0.602907 0.0991089 -0.00299788 -0.611666 0.104131 -0.0075168 -0.619687 
0.108518 -0.0116244 -0.626941 0.112201 -0.0153388 -0.633406 0.115134 -0.0186866 -0.639068 
0.117304 -0.0216972 -0.643932 0.118737 -0.0243971 -0.64802 0.119502 -0.0268059 -0.651372 
0.119705 -0.0289339 -0.654049 0.119486 -0.0307817 -0.656121 0.119002 -0.0323412 -0.657669 
0.118414 -0.0335985 -0.658772 0.11787 -0.0345373 -0.659503 0.11749 -0.0351428 -0.659918 
0.11735 -0.0354044 -0.660055 
LINES 2 100
OFFSETS vtktypeint64
0 100 
CONNECTIVITY vtktypeint64
0 1 2 3 4 5 6 7 8 
9 10 11 12 13 14 15 16 17 
18 19 20 21 22 23 24 25 26 
27 28 29 30 31 32 33 34 35 
36 37 38 39 40 41 42 43 44 
45 46 47 48 49 50 51 52 53 
54 55 56 57 58 59 60 61 62 
63 64 65 66 67 68 69 70 71 
72 73 74 75 76 77 78 79 80 
81 82 83 84 85 86 87 88 89 
90 91 92 93 94 95 96 97 98 
99 
POINT_DATA 100
FIELD FieldData 3
_theta 1 100 double
0 0.031733259127 0.063466518254 0.095199777382 0.12693303651 0.15866629564 0.19039955476 0.22213281389 0.25386607302 
0.28559933214 0.31733259127 0.3490658504 0.38079910953 0.41253236865 0.44426562778 0.47599888691 0.50773214603 0.53946540516 
0.57119866429 0.60293192342 0.63466518254 0.66639844167 0.6981317008 0.72986495992 0.76159821905 0.79333147818 0.82506473731 
0.85679799643 0.88853125556 0.92026451469 0.95199777382 0.98373103294 1.0154642921 1.0471975512 1.0789308103 1.1106640695 
1.1423973286 1.1741305877 1.2058638468 1.237597106 1.2693303651 1.3010636242 1.3327968833 1.3645301425 1.3962634016 
1.4279966607 1.4597299198 1.491463179 1.5231964381 1.5549296972 1.5866629564 1.6183962155 1.6501294746 1.6818627337 
1.7135959929 1.745329252 1.7770625111 1.8087957702 1.8405290294 1.8722622885 1.9039955476 1.9357288068 1.9674620659 
1.999195325 2.0309285841 2.0626618433 2.0943951024 2.1261283615 2.1578616206 2.1895948798 2.2213281389 2.253061398 
2.2847946572 2.3165279163 2.3482611754 2.3799944345 2.4117276937 2.4434609528 2.4751942119 2.506927471 2.5386607302 
2.5703939893 2.6021272484 2.6338605076 2.6655937667 2.6973270258 2.7290602849 2.7607935441 2.7925268032 2.8242600623 
2.8559933214 2.8877265806 2.9194598397 2.9511930988 2.982926358 3.0146596171 3.0463928762 3.0781261353 3.1098593945 
3.1415926536 
_radius 1 100 double
2.4394924735e-16 0.014500335185 0.028868867362 0.042978340416 0.056720996534 0.070014651989 0.082804819086 0.095062805779 0.10678038022 
0.11796206039 0.12861636317 0.13874745161 0.14834856559 0.15739838261 0.1658610169 0.1736897665 0.18083407616 0.18724864213 
0.1929032596 0.19779193854 0.20193994001 0.20540762289 0.2082902787 0.21071345992 0.21282370074 0.21477504279 0.21671249719 
0.21875447287 0.22097690679 0.22340179899 0.22599199294 0.22865289964 0.23124097199 0.23357809663 0.23547043737 0.23672961699 
0.23719371477 0.23674559727 0.2353265567 0.232943904 0.22967187627 0.22564588871 0.22105076671 0.21610412438 0.21103651375 
0.20607038171 0.20140025547 0.19717684653 0.19349765455 0.19040582274 0.18789732355 0.1859343993 0.18446134674 0.18341807203 
0.18274784798 0.18239824308 0.18231737668 0.18244988285 0.18273662795 0.18311926875 0.18354735558 0.18398438429 0.18441032925 
0.184820225 0.18521988845 0.1856204583 0.18603326588 0.18646597951 0.18692030173 0.18739100139 0.18786586888 0.18832624393 
0.18874787577 0.18910183343 0.18935499646 0.18946954951 0.18940110392 0.18909558419 0.18848563656 0.18748777365 0.18600158272 
0.18391204297 0.18109538455 0.17742812639 0.17279814989 0.16711610017 0.16032520556 0.15240782278 0.14338759484 0.13332690978 
0.12232018819 0.11048422961 0.097947277271 0.084838543232 0.071279672114 0.057379088176 0.043229510122 0.028908309969 0.014479996285 
1.7915177601e-15 
_area 1 100 double
0 0.00056627205991 0.0022479275013 0.004994300537 0.008723841945 0.013328898922 0.018682792168 0.024648716456 0.031089218698 
0.037874445524 0.04488732162 0.052024462973 0.05919287552 0.066304049176 0.073268382262 0.079993225595 0.08638667677 0.092366781128 
0.097873050363 0.10287544445 0.10737603837 0.11140164979 0.11499326141 0.11820565356 0.12112437578 0.1238867818 0.1266844107 
0.12973666347 0.13324128208 0.13731324448 0.14193394439 0.14693746335 0.15203496456 0.15685714552 0.16100113552 0.16407821477 
0.16576074763 0.16582460377 0.16418110796 0.16089203811 0.15616309697 0.15031543706 0.14373976842 0.13684100446 0.1299827029 
0.12344259389 0.11739273472 0.11191140526 0.10702341562 0.10275482236 0.099032781577 0.095652905942 0.092481476722 0.089473004332 
0.086653626857 0.084097478543 0.081896035371 0.080126915213 0.078829962787 0.077995773747 0.077568077025 0.077457468359 0.07756130551 
0.077785061211 0.078061064947 0.078356683437 0.078659964259 0.078958803009 0.079248133251 0.079542343662 0.079866849105 0.080243498783 
0.080684314646 0.081193580939 0.081772432017 0.082419224492 0.083121888069 0.083842854302 0.084501918657 0.084966468069 0.085057281938 
0.084569905579 0.083303993291 0.081092431205 0.077825562341 0.073468507511 0.068070331307 0.061763884982 0.05475573407 0.047306985184 
0.03970767739 0.032248961078 0.025197871118 0.018778805582 0.013164052535 0.0084734796183 0.0047815292623 0.0021284536717 0.00053245983935 
2.6768291905e-17 
