# vtk DataFile Version 5.1
vtk output
ASCII
DATASET POLYDATA
POINTS 100 float
0.0920959 0.016785 0.657375 0.0923308 0.017117 0.657203 0.0930539 0.0179533 0.656571 
0.0941688 0.0192186 0.655472 0.0955281 0.0207986 0.653897 0.0969516 0.0225541 0.651833 
0.0982473 0.0243384 0.649263 0.0992343 0.0260161 0.646168 0.0997633 0.0274787 0.642527 
0.0997331 0.028658 0.638318 0.0990996 0.0295335 0.633519 0.0978778 0.0301328 0.628113 
0.0961359 0.0305265 0.622084 0.0939823 0.0308172 0.615425 0.091548 0.0311237 0.608139 
0.0889657 0.0315641 0.600235 0.0863503 0.0322381 0.591735 0.0837813 0.033213 0.582673 
0.0812912 0.0345126 0.573093 0.0788603 0.0361133 0.563046 0.0764196 0.0379453 0.552595 
0.0738599 0.0399005 0.541804 0.0710479 0.0418452 0.530742 0.0678447 0.0436356 0.519476 
0.0641258 0.0451352 0.508068 0.0598003 0.0462306 0.496574 0.0548244 0.0468445 0.485042 
0.0492098 0.0469442 0.473505 0.0430249 0.0465437 0.461987 0.0363881 0.0457016 0.450495 
0.0294552 0.0445121 0.439026 0.0224018 0.0430934 0.427561 0.0154026 0.0415732 0.416069 
0.00861195 0.0400742 0.404506 0.00214619 0.0387011 0.392818 -0.00392875 0.0375315 0.380943 
-0.00960313 0.0366102 0.368809 -0.0149221 0.0359493 0.356339 -0.0199771 0.0355323 0.343453 
-0.0248922 0.035323 0.330066 -0.0298048 0.0352752 0.316098 -0.0348466 0.0353445 0.30147 
-0.0401238 0.0354987 0.286113 -0.0457016 0.0357252 0.269967 -0.0515928 0.0360352 0.252988 
-0.0577538 0.0364636 0.235149 -0.0640868 0.0370643 0.216445 -0.0704485 0.0379026 0.196892 
-0.0766638 0.0390448 0.176531 -0.0825433 0.040547 0.155425 -0.0879016 0.0424454 0.13366 
-0.0925747 0.0447478 0.11134 -0.0964347 0.0474298 0.0885792 -0.0993997 0.0504343 0.0655042 
-0.101438 0.0536758 0.0422411 -0.102568 0.0570486 0.0189122 -0.10285 0.0604366 -0.00437114 
-0.102378 0.0637257 -0.0275128 -0.101266 0.0668154 -0.0504361 -0.0996355 0.0696277 -0.0730862 
-0.0976003 0.0721139 -0.0954297 -0.0952581 0.0742564 -0.117454 -0.0926833 0.076067 -0.139161 
-0.0899231 0.0775804 -0.160569 -0.0869984 0.0788446 -0.181697 -0.0839077 0.0799097 -0.202569 
-0.0806333 0.0808163 -0.223198 -0.0771491 0.0815849 -0.243588 -0.0734281 0.0822086 -0.263728 
-0.0694493 0.0826485 -0.283587 -0.0652032 0.0828354 -0.303117 -0.0606949 0.082674 -0.322253 
-0.0559448 0.0820525 -0.340915 -0.0509877 0.0808542 -0.359016 -0.0458711 0.0789712 -0.376467 
-0.0406509 0.0763176 -0.393179 -0.0353895 0.0728412 -0.409075 -0.0301517 0.0685321 -0.424094 
-0.0250036 0.0634279 -0.438194 -0.0200108 0.0576132 -0.451355 -0.0152382 0.051216 -0.463579 
-0.0107497 0.0443989 -0.474894 -0.00660801 0.0373483 -0.485345 -0.00287423 0.0302609 -0.494992 
0.000394164 0.0233303 -0.503906 0.00314586 0.0167344 -0.51216 0.00533949 0.0106239 -0.519828 
0.00694816 0.00511513 -0.52697 0.00796405 0.000284773 -0.533638 0.00840257 -0.00383101 -0.539864 
0.00830516 -0.00723464 -0.545662 0.0077402 -0.00996229 -0.551026 0.00680135 -0.0120771 -0.555933 
0.00560333 -0.0136608 -0.560345 0.00427507 -0.0148053 -0.564213 0.00295085 -0.0156042 -0.567483 
0.00176012 -0.0161446 -0.570098 0.000817147 -0.0165009 -0.57201 0.000211321 -0.0167294 -0.573179 
-4.97425e-07 -0.0168644 -0.573577 
LINES 2 100
OFFSETS vtktypeint64
0 100 
CONNECTIVITY vtktypeint64
0 1 2 3 4 5 6 7 8 
9 10 11 12 13 14 15 16 17 
18 19 20 21 22 23 24 25 26 
27 28 29 30 31 32 33 34 35 
36 37 38 39 40 41 42 43 44 
45 46 47 48 49 50 51 52 53 
54 55 56 57 58 59 60 61 62 
63 64 65 66 67 68 69 70 71 
72 73 74 75 76 77 78 79 80 
81 82 83 84 85 86 87 88 89 
90 91 92 93 94 95 96 97 98 
99 
POINT_DATA 100
FIELD FieldData 3
_theta 1 100 double
0 0.031733259127 0.063466518254 0.095199777382 0.12693303651 0.15866629564 0.19039955476 0.22213281389 0.25386607302 
0.28559933214 0.31733259127 0.3490658504 0.38079910953 0.41253236865 0.44426562778 0.47599888691 0.50773214603 0.53946540516 
0.57119866429 0.60293192342 0.63466518254 0.66639844167 0.6981317008 0.72986495992 0.76159821905 0.79333147818 0.82506473731 
0.85679799643 0.88853125556 0.92026451469 0.95199777382 0.98373103294 1.0154642921 1.0471975512 1.0789308103 1.1106640695 
1.1423973286 1.1741305877 1.2058638468 1.237597106 1.2693303651 1.3010636242 1.3327968833 1.3645301425 1.3962634016 
1.4279966607 1.4597299198 1.491463179 1.5231964381 1.5549296972 1.5866629564 1.6183962155 1.6501294746 1.6818627337 
1.7135959929 1.745329252 1.7770625111 1.8087957702 1.8405290294 1.8722622885 1.9039955476 1.9357288068 1.9674620659 
1.999195325 2.0309285841 2.0626618433 2.0943951024 2.1261283615 2.1578616206 2.1895948798 2.2213281389 2.253061398 
2.2847946572 2.3165279163 2.3482611754 2.3799944345 2.4117276937 2.4434609528 2.4751942119 2.506927471 2.5386607302 
2.5703939893 2.6021272484 2.6338605076 2.6655937667 2.6973270258 2.7290602849 2.7607935441 2.7925268032 2.8242600623 
2.8559933214 2.8877265806 2.9194598397 2.9511930988 2.982926358 3.0146596171 3.0463928762 3.0781261353 3.1098593945 
3.1415926536 
_radius 1 100 double
6.7340347673e-16 0.013767546445 0.02746693222 0.041028512309 0.054387354373 0.06748376284 0.080262359943 0.092670579617 0.10465781892 
0.11617611039 0.12718221652 0.13764014945 0.14752284666 0.15681219115 0.16549746048 0.17357315809 0.18103755243 0.18789284897 
0.19414689085 0.19981521418 0.20492183995 0.20949766098 0.21357645435 0.21718983046 0.22036317034 0.22311438898 0.22545624187 
0.22740136429 0.22896798074 0.23018376461 0.23108581585 0.23171595824 0.23211212566 0.23229800548 0.23227387794 0.23201146948 
0.23145468332 0.23052662107 0.22914181199 0.22722141306 0.22470858237 0.2215813242 0.21786073822 0.2136135737 0.20894908326 
0.20401114652 0.19896717676 0.19399524242 0.18927035245 0.18495059046 0.18116422291 0.17799979012 0.17550152037 0.17367132986 
0.17247646476 0.17185985834 0.17174975461 0.17206622196 0.17272405611 0.17363333885 0.17469991196 0.17582779136 0.17692415504 
0.17790590176 0.17870597722 0.17927793045 0.17959791786 0.17966400908 0.17949298552 0.17911509793 0.17856777973 0.17788978006 
0.17711665308 0.17627721762 0.17539008732 0.17446007051 0.17347493038 0.17240299452 0.17119180882 0.16976797156 0.16803851791 
0.16589444289 0.16321680896 0.15988530089 0.15578830268 0.15083295943 0.14495351188 0.13811647968 0.13032189606 0.1216005934 
0.11200833451 0.10161820379 0.090512957942 0.078778891468 0.066502212561 0.053768103045 0.040661811154 0.027270582943 0.013685163745 
3.5809526469e-16 
_area 1 100 double
0 0.00046371672362 0.0018497374184 0.0041407185176 0.0073019567336 0.011275351826 0.015976060577 0.02129512491 0.027109002721 
0.033293640373 0.039738263853 0.046353644249 0.053071252275 0.059832887787 0.06657515754 0.073218269608 0.079668428616 0.085835120085 
0.091655431588 0.097113640601 0.10224544278 0.10712091594 0.11180909009 0.11633883305 0.12067798554 0.12474544924 0.12845176322 
0.13174667678 0.13464686288 0.13722661344 0.13957985865 0.14178522211 0.14389761241 0.14595749175 0.14798676798 0.14994534623 
0.15166744728 0.15285455557 0.15315716433 0.15228341938 0.15006531301 0.14648955175 0.14169435356 0.13594047468 0.12956483978 
0.12292032998 0.11632060447 0.11001375964 0.10418596568 0.098971991057 0.094456665174 0.090669043255 0.087578488992 0.085101571448 
0.083122899186 0.081523380306 0.080202913001 0.079087940567 0.078124709688 0.077267214025 0.076469131274 0.075683705678 0.074869575127 
0.073997524662 0.073054352037 0.072042408122 0.070975446539 0.069872984906 0.068754074941 0.067629180115 0.066494510353 0.065340316213 
0.064172698375 0.063030782065 0.061984491907 0.061118394593 0.060502854929 0.060116304393 0.0598638309 0.059667811152 0.059460969724 
0.059149309662 0.058594829018 0.057629466488 0.056088236035 0.053843447684 0.050830100661 0.047058888875 0.042615776147 0.037649289324 
0.032349364408 0.026923618823 0.021577136939 0.016499912879 0.0118626464 0.0078180555138 0.0045029022215 0.0020365422061 0.0005146338015 
5.2041770518e-18 
