# vtk DataFile Version 5.1
vtk output
ASCII
DATASET POLYDATA
POINTS 100 float
0.105171 0.034818 0.668135 0.105115 0.0350509 0.667822 0.10502 0.0355613 0.666765 
0.104868 0.0363236 0.664983 0.10463 0.0372988 0.662503 0.104269 0.038437 0.659359 
0.103751 0.0396822 0.655589 0.103044 0.0409769 0.651224 0.102125 0.0422657 0.646294 
0.100986 0.0434998 0.64082 0.0996282 0.0446386 0.634815 0.098069 0.0456515 0.628288 
0.0963338 0.0465173 0.621244 0.094453 0.0472234 0.61369 0.0924565 0.0477632 0.60564 
0.0903678 0.0481335 0.597114 0.0881991 0.0483325 0.588144 0.0859474 0.0483571 0.578773 
0.0835936 0.0482021 0.569051 0.0811028 0.0478605 0.559031 0.0784277 0.0473243 0.548763 
0.0755139 0.0465874 0.538291 0.072306 0.0456483 0.527638 0.0687547 0.044514 0.516813 
0.064823 0.0432032 0.505796 0.0604914 0.0417484 0.49455 0.0557605 0.0401977 0.483015 
0.0506518 0.0386136 0.471121 0.0452048 0.0370713 0.458791 0.0394731 0.0356539 0.445954 
0.0335178 0.0344472 0.432554 0.0274001 0.0335325 0.418556 0.0211744 0.0329801 0.403949 
0.0148824 0.0328419 0.38875 0.00854903 0.0331466 0.373002 0.00218143 0.0338958 0.356764 
-0.00422963 0.0350631 0.340102 -0.0107051 0.0365951 0.32308 -0.0172709 0.0384159 0.305749 
-0.0239499 0.0404333 0.288133 -0.0307527 0.0425471 0.270228 -0.0376704 0.0446584 0.251997 
-0.0446682 0.0466782 0.233373 -0.0516821 0.0485363 0.214267 -0.0586195 0.0501872 0.194581 
-0.0653619 0.0516141 0.174218 -0.0717725 0.0528302 0.153101 -0.0777056 0.0538761 0.131186 
-0.0830172 0.0548146 0.10847 -0.0875767 0.0557238 0.0850034 -0.0912776 0.0566874 0.0608819 
-0.0940458 0.0577852 0.0362473 -0.095845 0.0590833 0.0112731 -0.0966786 0.0606262 -0.0138501 
-0.0965877 0.0624304 -0.0389323 -0.0956456 0.0644814 -0.0638023 -0.0939489 0.0667337 -0.0883225 
-0.091608 0.0691131 -0.1124 -0.088735 0.0715231 -0.135994 -0.0854339 0.0738519 -0.159111 
-0.0817912 0.0759822 -0.181799 -0.07787 0.0778 -0.204135 -0.0737071 0.0792035 -0.226205 
-0.0693129 0.0801109 -0.248089 -0.0646757 0.0804645 -0.269845 -0.059768 0.0802343 -0.291488 
-0.0545552 0.079417 -0.312993 -0.0490044 0.0780342 -0.334283 -0.0430936 0.0761268 -0.355243 
-0.0368198 0.0737501 -0.375728 -0.0302043 0.0709662 -0.39558 -0.0232959 0.0678384 -0.414648 
-0.0161709 0.0644255 -0.432807 -0.00893007 0.0607786 -0.449974 -0.00169371 0.0569387 -0.466118 
0.00540593 0.0529375 -0.481264 0.0122328 0.0487994 -0.49549 0.0186557 0.0445452 -0.508918 
0.0245564 0.0401961 -0.52169 0.0298363 0.0357786 -0.533954 0.0344219 0.0313281 -0.545839 
0.0382673 0.0268915 -0.557437 0.0413555 0.0225279 -0.568785 0.0436974 0.0183073 -0.57986 
0.0453288 0.0143069 -0.590577 0.0463068 0.0106066 -0.6008 0.0467047 0.00728218 -0.610357 
0.0466072 0.0043985 -0.619062 0.0461056 0.00200305 -0.62674 0.0452929 0.000120329 -0.633254 
0.0442605 -0.00125174 -0.638521 0.0430947 -0.00214315 -0.642528 0.0418752 -0.00261042 -0.645339 
0.0406728 -0.00273258 -0.647092 0.0395493 -0.00260479 -0.647981 0.0385567 -0.00233013 -0.64824 
0.0377373 -0.00201041 -0.648113 0.037124 -0.0017368 -0.647831 0.0367401 -0.00158134 -0.64758 
0.0365999 -0.0015901 -0.647479 
LINES 2 100
OFFSETS vtktypeint64
0 100 
CONNECTIVITY vtktypeint64
0 1 2 3 4 5 6 7 8 
9 10 11 12 13 14 15 16 17 
18 19 20 21 22 23 24 25 26 
27 28 29 30 31 32 33 34 35 
36 37 38 39 40 41 42 43 44 
45 46 47 48 49 50 51 52 53 
54 55 56 57 58 59 60 61 62 
63 64 65 66 67 68 69 70 71 
72 73 74 75 76 77 78 79 80 
81 82 83 84 85 86 87 88 89 
90 91 92 93 94 95 96 97 98 
99 
POINT_DATA 100
FIELD FieldData 3
_theta 1 100 double
0 0.031733259127 0.063466518254 0.095199777382 0.12693303651 0.15866629564 0.19039955476 0.22213281389 0.25386607302 
0.28559933214 0.31733259127 0.3490658504 0.38079910953 0.41253236865 0.44426562778 0.47599888691 0.50773214603 0.53946540516 
0.57119866429 0.60293192342 0.63466518254 0.66639844167 0.6981317008 0.72986495992 0.76159821905 0.79333147818 0.82506473731 
0.85679799643 0.88853125556 0.92026451469 0.95199777382 0.98373103294 1.0154642921 1.0471975512 1.0789308103 1.1106640695 
1.1423973286 1.1741305877 1.2058638468 1.237597106 1.2693303651 1.3010636242 1.3327968833 1.3645301425 1.3962634016 
1.4279966607 1.4597299198 1.491463179 1.5231964381 1.5549296972 1.5866629564 1.6183962155 1.6501294746 1.6818627337 
1.7135959929 1.745329252 1.7770625111 1.8087957702 1.8405290294 1.8722622885 1.9039955476 1.9357288068 1.9674620659 
1.999195325 2.0309285841 2.0626618433 2.0943951024 2.1261283615 2.1578616206 2.1895948798 2.2213281389 2.253061398 
2.2847946572 2.3165279163 2.3482611754 2.3799944345 2.4117276937 2.4434609528 2.4751942119 2.506927471 2.5386607302 
2.5703939893 2.6021272484 2.6338605076 2.6655937667 2.6973270258 2.7290602849 2.7607935441 2.7925268032 2.8242600623 
2.8559933214 2.8877265806 2.9194598397 2.9511930988 2.982926358 3.0146596171 3.0463928762 3.0781261353 3.1098593945 
3.1415926536 
_radius 1 100 double
1.9059109287e-15 0.015286779374 0.030424475535 0.045270502245 0.059703410348 0.073630525278 0.086992325788 0.099763287699 0.1119494345 
0.12358324401 0.13471676081 0.14541373678 0.15574143534 0.16576251525 0.17552728498 0.18506666442 0.19438639511 0.20346329753 
0.21224451966 0.22065059413 0.22858265136 0.2359333858 0.2426005217 0.24850080469 0.25358216036 0.25783175071 0.26127826805 
0.26398786908 0.26605444319 0.26758606152 0.26869007385 0.2694592348 0.26996062043 0.27022832937 0.27026035558 0.27001964036 
0.26943906718 0.26842996039 0.26689345721 0.2647339442 0.2618735777 0.25826672235 0.25391292915 0.24886686081 0.24324343702 
0.23721655645 0.23101021741 0.22488182757 0.21909895956 0.21391253354 0.2095308398 0.2060991955 0.2036888239 0.20229598185 
0.20184955911 0.20222371472 0.20325229925 0.20474337484 0.20649383439 0.20830479062 0.20999774751 0.21143020582 0.21250828355 
0.21319382069 0.21350430828 0.21350540815 0.2132972891 0.21299709253 0.21272032059 0.21256374851 0.21259173328 0.21282685203 
0.21324505525 0.21377520689 0.21430291259 0.21467854331 0.2147290309 0.21427236716 0.21313311294 0.21115694888 0.208222464 
0.20424885873 0.19919886391 0.19307683066 0.18592256363 0.17780200231 0.16879625004 0.15899065508 0.1484656129 0.13729044323 
0.12552109496 0.11320162584 0.10036858527 0.087056860896 0.073305432334 0.059161812608 0.044684545412 0.029943684175 0.015019525365 
1.4713156257e-15 
_area 1 100 double
0 0.00059927261344 0.0023723559735 0.0052496996906 0.009129377489 0.013893384382 0.019423023753 0.025609598865 0.032358896911 
0.03959053775 0.047235125241 0.055232457234 0.063532589403 0.07209911602 0.080912037361 0.089966947688 0.099268090886 0.10881482206 
0.11858372833 0.1285112333 0.13848278657 0.14833389057 0.15786514585 0.16686889783 0.17516051364 0.18260502267 0.18913146881 
0.19473235158 0.19945120177 0.20336450572 0.20656352026 0.20913818772 0.21116229429 0.21267869659 0.21368571783 0.21412836308 
0.21389865339 0.21284759377 0.21080808598 0.20762503932 0.20318714109 0.19745468842 0.19047940641 0.18241434149 0.17351322363 
0.16411826767 0.15463445278 0.145489573 0.13708402804 0.12974049239 0.12366625178 0.11893624233 0.11549662162 0.11318403454 
0.11175651516 0.110934032 0.1104452829 0.11007469258 0.10971134613 0.10943881054 0.10942599361 0.10934324962 0.10896422586 
0.10814484485 0.10681110206 0.10498639668 0.10279144782 0.10042468172 0.098134308944 0.096192754769 0.09488726283 0.094508651879 
0.095126833309 0.096557598273 0.098547564921 0.10079469004 0.10297716776 0.10477652564 0.10589594341 0.10608007181 0.10513498592 
0.10294364793 0.099473391969 0.094774093527 0.088967584069 0.082230460697 0.074773592284 0.066822047997 0.058598784711 0.050314360922 
0.042163267949 0.034325321454 0.026968724196 0.020251186494 0.014317366305 0.0092937300225 0.0052837501647 0.0023658310875 0.00059405481994 
1.4345462478e-17 
