# vtk DataFile Version 5.1
vtk output
ASCII
DATASET POLYDATA
POINTS 100 float
0.109834 0.0480725 0.619856 0.109841 0.0480622 0.619782 0.109915 0.0479189 0.619342 
0.110034 0.0476525 0.618505 0.110164 0.047279 0.617223 0.110262 0.0468202 0.615436 
0.110278 0.046303 0.613073 0.110164 0.0457579 0.610061 0.109872 0.0452178 0.606323 
0.109359 0.0447161 0.601794 0.108587 0.0442848 0.596417 0.107523 0.043952 0.590155 
0.106138 0.0437398 0.582994 0.104401 0.0436624 0.574945 0.102283 0.0437237 0.566045 
0.0997496 0.0439166 0.556359 0.0967645 0.0442222 0.545977 0.0932887 0.04461 0.535003 
0.0892841 0.0450396 0.523558 0.0847181 0.0454623 0.511764 0.0795693 0.0458248 0.499739 
0.0738336 0.0460724 0.487589 0.0675289 0.046154 0.4754 0.0606992 0.0460254 0.463233 
0.0534158 0.0456546 0.451123 0.045775 0.0450241 0.439079 0.0378934 0.0441341 0.427086 
0.029899 0.0430038 0.415109 0.0219214 0.0416706 0.403105 0.0140795 0.0401894 0.391024 
0.00646971 0.0386286 0.37882 -0.000844253 0.0370668 0.366459 -0.00783852 0.0355869 0.353916 
-0.0145324 0.0342712 0.341183 -0.0209869 0.0331959 0.328261 -0.027298 0.0324255 0.315163 
-0.0335859 0.0320097 0.301899 -0.0399808 0.0319798 0.288475 -0.0466059 0.0323479 0.274883 
-0.0535612 0.0331076 0.261095 -0.0609086 0.0342352 0.247058 -0.0686602 0.0356935 0.232695 
-0.0767718 0.0374358 0.217907 -0.0851419 0.0394106 0.202577 -0.093617 0.0415665 0.186585 
-0.102002 0.0438561 0.169813 -0.110075 0.0462397 0.152161 -0.117607 0.0486872 0.133561 
-0.124377 0.0511789 0.113982 -0.130194 0.0537049 0.0934388 -0.134911 0.056263 0.0719957 
-0.138433 0.0588557 0.0497633 -0.140724 0.0614865 0.0268924 -0.141809 0.0641565 0.00356327 
-0.141761 0.0668601 -0.0200274 -0.140699 0.0695831 -0.0436807 -0.138768 0.0723002 -0.0672104 
-0.136125 0.0749752 -0.0904547 -0.132928 0.0775614 -0.113286 -0.129317 0.0800037 -0.135618 
-0.125411 0.082242 -0.157403 -0.121295 0.0842146 -0.178632 -0.117026 0.0858621 -0.199326 
-0.112627 0.0871313 -0.219529 -0.108102 0.0879783 -0.239292 -0.103435 0.0883707 -0.258667 
-0.0986038 0.0882885 -0.277696 -0.0935859 0.0877243 -0.296404 -0.0883658 0.0866825 -0.314795 
-0.0829395 0.0851768 -0.332853 -0.0773159 0.0832283 -0.350545 -0.0715166 0.0808631 -0.367825 
-0.0655735 0.0781098 -0.384643 -0.0595243 0.0749981 -0.400947 -0.0534087 0.0715579 -0.416698 
-0.0472645 0.0678195 -0.431863 -0.041125 0.0638139 -0.446428 -0.0350176 0.0595752 -0.460388 
-0.0289649 0.0551418 -0.473747 -0.0229868 0.0505583 -0.486514 -0.0171041 0.0458771 -0.498692 
-0.0113417 0.0411587 -0.510279 -0.00573218 0.0364714 -0.521257 -0.000317411 0.0318894 -0.531592 
0.00485094 0.0274898 -0.541235 0.00971355 0.0233487 -0.550127 0.0142074 0.0195368 -0.558202 
0.0182712 0.016114 -0.565399 0.021852 0.0131255 -0.571668 0.0249118 0.0105976 -0.576983 
0.0274328 0.00853577 -0.581346 0.0294214 0.00692363 -0.584792 0.0309092 0.00572458 -0.587393 
0.0319512 0.00488479 -0.589248 0.0326211 0.00433803 -0.590483 0.0330042 0.00401176 -0.591236 
0.0331886 0.00383395 -0.591645 0.0332559 0.0037399 -0.591835 0.0332715 0.00367846 -0.591906 
0.033278 0.00361701 -0.591921 
LINES 2 100
OFFSETS vtktypeint64
0 100 
CONNECTIVITY vtktypeint64
0 1 2 3 4 5 6 7 8 
9 10 11 12 13 14 15 16 17 
18 19 20 21 22 23 24 25 26 
27 28 29 30 31 32 33 34 35 
36 37 38 39 40 41 42 43 44 
45 46 47 48 49 50 51 52 53 
54 55 56 57 58 59 60 61 62 
63 64 65 66 67 68 69 70 71 
72 73 74 75 76 77 78 79 80 
81 82 83 84 85 86 87 88 89 
90 91 92 93 94 95 96 97 98 
99 
POINT_DATA 100
FIELD FieldData 3
_theta 1 100 double
0 0.031733259127 0.063466518254 0.095199777382 0.12693303651 0.15866629564 0.19039955476 0.22213281389 0.25386607302 
0.28559933214 0.31733259127 0.3490658504 0.38079910953 0.41253236865 0.44426562778 0.47599888691 0.50773214603 0.53946540516 
0.57119866429 0.60293192342 0.63466518254 0.66639844167 0.6981317008 0.72986495992 0.76159821905 0.79333147818 0.82506473731 
0.85679799643 0.88853125556 0.92026451469 0.95199777382 0.98373103294 1.0154642921 1.0471975512 1.0789308103 1.1106640695 
1.1423973286 1.1741305877 1.2058638468 1.237597106 1.2693303651 1.3010636242 1.3327968833 1.3645301425 1.3962634016 
1.4279966607 1.4597299198 1.491463179 1.5231964381 1.5549296972 1.5866629564 1.6183962155 1.6501294746 1.6818627337 
1.7135959929 1.745329252 1.7770625111 1.8087957702 1.8405290294 1.8722622885 1.9039955476 1.9357288068 1.9674620659 
1.999195325 2.0309285841 2.0626618433 2.0943951024 2.1261283615 2.1578616206 2.1895948798 2.2213281389 2.253061398 
2.2847946572 2.3165279163 2.3482611754 2.3799944345 2.4117276937 2.4434609528 2.4751942119 2.506927471 2.5386607302 
2.5703939893 2.6021272484 2.6338605076 2.6655937667 2.6973270258 2.7290602849 2.7607935441 2.7925268032 2.8242600623 
2.8559933214 2.8877265806 2.9194598397 2.9511930988 2.982926358 3.0146596171 3.0463928762 3.0781261353 3.1098593945 
3.1415926536 
_radius 1 100 double
6.8100215169e-16 0.01269438802 0.025251322255 0.037540578494 0.04945363364 0.06091027205 0.071860686547 0.082282958608 0.092176696495 
0.10155436012 0.11043222851 0.1188229425 0.12673106051 0.13415222042 0.14107555674 0.14748827775 0.15338098809 0.15875250115 
0.16361337557 0.16798796368 0.17191512015 0.17544776595 0.17865129843 0.18160058128 0.18437515567 0.18705250457 0.18969964003 
0.19236381326 0.19506358442 0.19778170627 0.20046123661 0.20300601805 0.20528617305 0.20714857536 0.20843146093 0.20898160735 
0.20867203837 0.20741809847 0.20518995604 0.2020200208 0.19800429361 0.19329723997 0.18810036517 0.1826452683 0.17717260842 
0.17190921592 0.16704657059 0.16272481459 0.15902661302 0.15598335936 0.15359188258 0.1518345566 0.15069339624 0.15015207437 
0.15018684811 0.15075319096 0.1517762458 0.15315025792 0.15474734228 0.15643207546 0.15807707805 0.15957574975 0.16085029776 
0.16185490108 0.16257475003 0.16302191645 0.16322895376 0.16324114372 0.16310844101 0.16287819411 0.16258946437 0.16226934949 
0.16193137128 0.16157572832 0.16119091823 0.16075589572 0.16024174223 0.15961200775 0.15882150196 0.1578141467 0.15652115652 
0.1548609337 0.15274155631 0.15006584186 0.1467380977 0.14267116756 0.13779237952 0.13204741524 0.12540176929 0.11784013935 
0.10936459914 0.099992629775 0.089755970692 0.07870083656 0.066889453021 0.054402273872 0.041339844189 0.027823201113 0.013991986435 
9.3335265184e-16 
_area 1 100 double
0 0.00045856256375 0.0018159858331 0.0040190481518 0.0069842542321 0.010605463861 0.014763936202 0.019339616116 0.024221737255 
0.029316396704 0.034549190989 0.039862485159 0.045208900326 0.05054406764 0.055821691572 0.060992451312 0.066006168962 0.070815314365 
0.075378135741 0.079661177024 0.083642313382 0.08731536707 0.090695804642 0.093825497785 0.096774681523 0.099640436809 0.10254056302 
0.10559933112 0.10892197439 0.11256087319 0.11648314881 0.12055096327 0.12452288775 0.12807863998 0.13086135131 0.13252653313 
0.13278963758 0.13146854947 0.12851564826 0.12403321051 0.11826930731 0.11159234272 0.10444152458 0.097256103388 0.090404663563 
0.084150554555 0.078671640752 0.074121503135 0.07048599658 0.06753136291 0.065073106058 0.063001809519 0.061264570035 0.059867814684 
0.058858480365 0.058245863818 0.057942570708 0.057823273853 0.057772976145 0.05772018248 0.057660531435 0.057624622597 0.057645208651 
0.05775589024 0.057964394271 0.058228886571 0.058471251496 0.058613839248 0.058604464003 0.058422047024 0.058077507561 0.057615291599 
0.057109213772 0.056650671931 0.056267353812 0.056039184893 0.056010876005 0.056124590274 0.056315997228 0.056498184688 0.056562325277 
0.056384040287 0.055824548493 0.054741212684 0.053013119862 0.050564528665 0.04737790592 0.043498370635 0.039030877366 0.034130622968 
0.028987856489 0.023809326848 0.018799315585 0.014143282289 0.0099965157097 0.006478951801 0.0036758327119 0.0016426152316 0.00041187785759 
1.9136434373e-17 
