# vtk DataFile Version 5.1
vtk output
ASCII
DATASET POLYDATA
POINTS 100 float
0.123085 0.0414596 0.642069 0.122982 0.0416907 0.641927 0.122706 0.0422429 0.641341 
0.122252 0.0430744 0.640295 0.121618 0.04412 0.638763 0.120798 0.0452973 0.636716 
0.119789 0.0465141 0.634117 0.118593 0.0476773 0.630933 0.117213 0.0487009 0.62713 
0.115658 0.0495129 0.622681 0.113941 0.0500603 0.617569 0.112076 0.0503124 0.611786 
0.110077 0.0502605 0.605336 0.107956 0.0499161 0.598237 0.105718 0.0493069 0.590518 
0.10336 0.0484714 0.582218 0.100869 0.0474529 0.573386 0.0982181 0.0462941 0.564076 
0.0953723 0.0450324 0.554345 0.0922855 0.0436965 0.544251 0.0889056 0.0423059 0.533846 
0.0851785 0.0408707 0.523178 0.0810527 0.0393946 0.512287 0.0764845 0.0378781 0.501203 
0.0714427 0.0363231 0.489943 0.0659125 0.0347366 0.478518 0.0598974 0.0331348 0.466926 
0.0534204 0.031545 0.455155 0.0465227 0.0300064 0.44319 0.0392608 0.0285692 0.431006 
0.0317024 0.0272917 0.418577 0.0239214 0.0262367 0.405875 0.0159922 0.0254668 0.392871 
0.00798522 0.0250393 0.379537 -3.79954e-05 0.0250018 0.365847 -0.0080267 0.025389 0.351774 
-0.015942 0.02622 0.337296 -0.0237559 0.0274979 0.322391 -0.0314481 0.0292103 0.307036 
-0.0390018 0.0313317 0.291211 -0.0463989 0.0338262 0.274895 -0.0536145 0.0366507 0.258067 
-0.0606124 0.039758 0.240711 -0.067342 0.0431 0.22281 -0.0737366 0.0466286 0.204355 
-0.0797148 0.0502968 0.185343 -0.0851834 0.0540581 0.165782 -0.0900429 0.0578654 0.145693 
-0.0941947 0.0616696 0.125108 -0.0975486 0.0654176 0.104079 -0.100032 0.0690517 0.0826713 
-0.101595 0.0725096 0.0609664 -0.102219 0.0757257 0.0390584 -0.101919 0.0786334 0.0170507 
-0.100742 0.08117 -0.00494849 -0.0987676 0.0832805 -0.0268319 -0.0961 0.0849237 -0.0484988 
-0.0928621 0.0860765 -0.069861 -0.089185 0.0867382 -0.0908481 -0.0851985 0.0869328 -0.111411 
-0.0810208 0.0867089 -0.131525 -0.0767507 0.0861375 -0.151187 -0.0724611 0.085307 -0.170418 
-0.0681958 0.0843167 -0.189257 -0.0639697 0.0832675 -0.20775 -0.0597718 0.0822531 -0.225951 
-0.0555711 0.0813505 -0.243907 -0.051325 0.080612 -0.261653 -0.0469882 0.0800592 -0.279203 
-0.0425219 0.0796799 -0.296545 -0.0379029 0.0794283 -0.313639 -0.033129 0.0792286 -0.330418 
-0.0282233 0.0789819 -0.346787 -0.0232341 0.0785759 -0.362634 -0.0182323 0.0778965 -0.377836 
-0.0133057 0.0768397 -0.392272 -0.0085503 0.0753238 -0.405832 -0.00406102 0.0732993 -0.418432 
7.84414e-05 0.0707565 -0.43002 0.00380468 0.0677291 -0.440585 0.0070819 0.0642951 -0.450163 
0.00990633 0.0605719 -0.458833 0.0123073 0.0567088 -0.466714 0.0143448 0.0528759 -0.473955 
0.0161035 0.0492508 -0.480726 0.0176839 0.0460045 -0.487199 0.0191921 0.0432871 -0.493535 
0.0207277 0.0412151 -0.499867 0.022373 0.0398619 -0.506287 0.024184 0.0392505 -0.512835 
0.0261828 0.039352 -0.519496 0.0283549 0.0400867 -0.526193 0.0306497 0.0413309 -0.532798 
0.0329847 0.0429264 -0.53914 0.0352533 0.0446933 -0.545014 0.0373357 0.0464445 -0.550206 
0.0391104 0.0480013 -0.554504 0.0404668 0.0492071 -0.557723 0.0413164 0.0499412 -0.559716 
0.041602 0.0501278 -0.560389 
LINES 2 100
OFFSETS vtktypeint64
0 100 
CONNECTIVITY vtktypeint64
0 1 2 3 4 5 6 7 8 
9 10 11 12 13 14 15 16 17 
18 19 20 21 22 23 24 25 26 
27 28 29 30 31 32 33 34 35 
36 37 38 39 40 41 42 43 44 
45 46 47 48 49 50 51 52 53 
54 55 56 57 58 59 60 61 62 
63 64 65 66 67 68 69 70 71 
72 73 74 75 76 77 78 79 80 
81 82 83 84 85 86 87 88 89 
90 91 92 93 94 95 96 97 98 
99 
POINT_DATA 100
FIELD FieldData 3
_theta 1 100 double
0 0.031733259127 0.063466518254 0.095199777382 0.12693303651 0.15866629564 0.19039955476 0.22213281389 0.25386607302 
0.28559933214 0.31733259127 0.3490658504 0.38079910953 0.41253236865 0.44426562778 0.47599888691 0.50773214603 0.53946540516 
0.57119866429 0.60293192342 0.63466518254 0.66639844167 0.6981317008 0.72986495992 0.76159821905 0.79333147818 0.82506473731 
0.85679799643 0.88853125556 0.92026451469 0.95199777382 0.98373103294 1.0154642921 1.0471975512 1.0789308103 1.1106640695 
1.1423973286 1.1741305877 1.2058638468 1.237597106 1.2693303651 1.3010636242 1.3327968833 1.3645301425 1.3962634016 
1.4279966607 1.4597299198 1.491463179 1.5231964381 1.5549296972 1.5866629564 1.6183962155 1.6501294746 1.6818627337 
1.7135959929 1.745329252 1.7770625111 1.8087957702 1.8405290294 1.8722622885 1.9039955476 1.9357288068 1.9674620659 
1.999195325 2.0309285841 2.0626618433 2.0943951024 2.1261283615 2.1578616206 2.1895948798 2.2213281389 2.253061398 
2.2847946572 2.3165279163 2.3482611754 2.3799944345 2.4117276937 2.4434609528 2.4751942119 2.506927471 2.5386607302 
2.5703939893 2.6021272484 2.6338605076 2.6655937667 2.6973270258 2.7290602849 2.7607935441 2.7925268032 2.8242600623 
2.8559933214 2.8877265806 2.9194598397 2.9511930988 2.982926358 3.0146596171 3.0463928762 3.0781261353 3.1098593945 
3.1415926536 
_radius 1 100 double
2.5257955065e-16 0.013195645715 0.026446627914 0.039789044206 0.053232985587 0.066754329405 0.080291364404 0.093746775074 0.10699477764 
0.11989248892 0.13229402045 0.14406540677 0.1550983519 0.16532093155 0.17470380503 0.18326111951 0.19104604951 0.19814169859 
0.20464877648 0.21067193642 0.21630681465 0.22162959712 0.22669036334 0.23151066128 0.23608498528 0.24038528843 0.24436744856 
0.24797865809 0.25116488334 0.25387771642 0.25608005352 0.25775007138 0.25888300459 0.25949036282 0.25959656615 0.25923351287 
0.25843418711 0.25722683277 0.25563125762 0.25365841739 0.25131367138 0.24860322405 0.24554250032 0.24216470411 0.23852765179 
0.23471716333 0.23084580931 0.2270466033 0.22346221934 0.22023135735 0.21747470731 0.21528318636 0.21371043033 0.21277004463 
0.21243659038 0.21264861847 0.21331264411 0.21430825864 0.21549553836 0.21672571835 0.21785483641 0.21875858645 0.21934581886 
0.2195682336 0.21942454806 0.21895840152 0.21825023351 0.21740422587 0.21653204715 0.21573550034 0.21509019034 0.21463202307 
0.21434787517 0.21417133342 0.21398407952 0.21362316655 0.21289389585 0.21158721754 0.209499735 0.20645378189 0.20231487766 
0.19700421523 0.19050459885 0.18285924502 0.17416390213 0.16455370228 0.15418692288 0.1432282522 0.13183403396 0.12014126876 
0.10826112352 0.096276761392 0.084244718019 0.072198802403 0.060155446136 0.048119467109 0.03608934719 0.024061359075 0.012032185786 
1.299088002e-15 
_area 1 100 double
0 0.00049137579846 0.0019660280226 0.0044233120679 0.0078551806233 0.01223716273 0.017518464083 0.023613577708 0.030397941605 
0.037709816973 0.045359553244 0.053145814781 0.060876518754 0.068390734605 0.075577133782 0.082384961113 0.088824802652 0.094958351081 
0.10087856869 0.1066838603 0.11245212251 0.11822264937 0.12399397199 0.1297406689 0.13544224637 0.14110779771 0.14677668501 
0.15248293252 0.15819675687 0.16378717358 0.16903883255 0.17370793524 0.17758175634 0.18052121736 0.18248037736 0.18350228119 
0.18369407594 0.18318822662 0.18210054432 0.18049818215 0.17838898083 0.17573585503 0.17248983799 0.16862921754 0.16419201166 
0.15929231555 0.15411536935 0.14889149196 0.14385655179 0.13921574352 0.13513211327 0.13172794738 0.12899859621 0.12684444467 
0.12517242214 0.12389042102 0.12289857595 0.12208355193 0.12131706198 0.12046386785 0.11940064665 0.11803901776 0.11633843314 
0.11431091184 0.11218902251 0.11001135089 0.10776309846 0.10557344223 0.10361385799 0.10203651641 0.10094816963 0.10039864256 
0.10037474493 0.10079308351 0.10149139255 0.10222643094 0.10268875824 0.10253795644 0.10145299252 0.09918723587 0.095615792616 
0.0907632462 0.084803117725 0.07802664537 0.070786527574 0.063428485316 0.056227563718 0.049346601255 0.042831678323 0.036649393843 
0.030749218993 0.025117800357 0.019801866696 0.014899549468 0.010534061416 0.0068250759123 0.0038681052201 0.0017260831796 0.00043228902399 
2.5804220628e-17 
