# vtk DataFile Version 5.1
vtk output
ASCII
DATASET POLYDATA
POINTS 100 float
0.208856 0.0640455 0.698274 0.208552 0.064091 0.698374 0.20768 0.0641154 0.69853 
0.206273 0.064132 0.698666 0.204378 0.0641608 0.698666 0.202057 0.0642249 0.698381 
0.199374 0.0643467 0.697645 0.196394 0.0645433 0.696286 0.19317 0.0648228 0.694142 
0.189743 0.0651811 0.691073 0.18613 0.0655999 0.686974 0.182329 0.0660468 0.681779 
0.178314 0.0664763 0.675469 0.174041 0.0668332 0.668069 0.169451 0.0670566 0.659645 
0.164479 0.0670848 0.650295 0.159061 0.0668612 0.640139 0.153141 0.0663388 0.629312 
0.146681 0.0654854 0.617945 0.139667 0.0642866 0.606159 0.132111 0.0627471 0.594055 
0.124055 0.0608913 0.581705 0.115566 0.0587618 0.569153 0.106733 0.0564161 0.556408 
0.0976594 0.0539225 0.543455 0.0884537 0.051356 0.530253 0.0792182 0.0487927 0.516744 
0.0700405 0.0463056 0.502864 0.0609846 0.0439607 0.488545 0.0520844 0.0418139 0.473726 
0.0433411 0.0399094 0.458355 0.034724 0.0382794 0.442395 0.026175 0.036944 0.425822 
0.0176167 0.0359135 0.408622 0.00896322 0.0351895 0.390794 0.000133051 0.0347677 0.372339 
-0.00893796 0.0346402 0.35326 -0.0182844 0.0347965 0.333556 -0.0279012 0.0352257 0.313223 
-0.0377375 0.0359168 0.29225 -0.0476943 0.0368586 0.27062 -0.0576268 0.0380394 0.248317 
-0.0673523 0.0394465 0.225327 -0.0766607 0.0410646 0.201647 -0.08533 0.0428757 0.177288 
-0.093142 0.0448582 0.152285 -0.099899 0.0469871 0.126696 -0.10544 0.0492338 0.100604 
-0.10965 0.0515675 0.0741222 -0.112474 0.053956 0.0473816 -0.113916 0.0563671 0.0205299 
-0.114037 0.0587701 -0.00627877 -0.112952 0.0611364 -0.0328937 -0.110817 0.0634407 -0.0591776 
-0.107812 0.0656609 -0.085016 -0.104132 0.0677775 -0.110325 -0.0999639 0.069773 -0.135054 
-0.0954768 0.0716305 -0.15919 -0.0908077 0.0733316 -0.182754 -0.0860544 0.0748556 -0.205792 
-0.0812722 0.0761775 -0.228373 -0.0764748 0.0772675 -0.250573 -0.0716397 0.0780909 -0.272467 
-0.0667175 0.0786085 -0.294116 -0.061643 0.0787785 -0.315562 -0.0563477 0.0785584 -0.336818 
-0.0507717 0.0779078 -0.357864 -0.0448747 0.0767918 -0.378653 -0.0386439 0.075184 -0.399112 
-0.0320983 0.0730693 -0.419148 -0.0252901 0.0704461 -0.438659 -0.0183023 0.0673278 -0.457545 
-0.0112427 0.0637431 -0.475718 -0.00423673 0.0597352 -0.493109 0.00258277 0.0553599 -0.509676 
0.00908456 0.050683 -0.525408 0.0151484 0.0457764 -0.540322 0.0206726 0.0407149 -0.554463 
0.0255796 0.0355719 -0.567894 0.0298195 0.0304157 -0.580691 0.0333705 0.0253072 -0.592932 
0.0362378 0.0202968 -0.604687 0.0384499 0.0154242 -0.61601 0.0400547 0.0107179 -0.626935 
0.0411141 0.00619655 -0.637472 0.0416985 0.0018704 -0.647604 0.0418828 -0.00225593 -0.657295 
0.0417414 -0.00618074 -0.666489 0.0413461 -0.00990246 -0.675121 0.0407636 -0.0134171 -0.683124 
0.0400547 -0.0167164 -0.690435 0.039274 -0.0197864 -0.697002 0.0384697 -0.0226076 -0.702787 
0.0376843 -0.0251551 -0.707768 0.0369549 -0.0274002 -0.71194 0.0363136 -0.0293122 -0.715313 
0.035787 -0.0308612 -0.717902 0.0353965 -0.0320202 -0.71973 0.0351579 -0.0327676 -0.720815 
0.0350808 -0.033089 -0.721171 
LINES 2 100
OFFSETS vtktypeint64
0 100 
CONNECTIVITY vtktypeint64
0 1 2 3 4 5 6 7 8 
9 10 11 12 13 14 15 16 17 
18 19 20 21 22 23 24 25 26 
27 28 29 30 31 32 33 34 35 
36 37 38 39 40 41 42 43 44 
45 46 47 48 49 50 51 52 53 
54 55 56 57 58 59 60 61 62 
63 64 65 66 67 68 69 70 71 
72 73 74 75 76 77 78 79 80 
81 82 83 84 85 86 87 88 89 
90 91 92 93 94 95 96 97 98 
99 
POINT_DATA 100
FIELD FieldData 3
_theta 1 100 double
0 0.031733259127 0.063466518254 0.095199777382 0.12693303651 0.15866629564 0.19039955476 0.22213281389 0.25386607302 
0.28559933214 0.31733259127 0.3490658504 0.38079910953 0.41253236865 0.44426562778 0.47599888691 0.50773214603 0.53946540516 
0.57119866429 0.60293192342 0.63466518254 0.66639844167 0.6981317008 0.72986495992 0.76159821905 0.79333147818 0.82506473731 
0.85679799643 0.88853125556 0.92026451469 0.95199777382 0.98373103294 1.0154642921 1.0471975512 1.0789308103 1.1106640695 
1.1423973286 1.1741305877 1.2058638468 1.237597106 1.2693303651 1.3010636242 1.3327968833 1.3645301425 1.3962634016 
1.4279966607 1.4597299198 1.491463179 1.5231964381 1.5549296972 1.5866629564 1.6183962155 1.6501294746 1.6818627337 
1.7135959929 1.745329252 1.7770625111 1.8087957702 1.8405290294 1.8722622885 1.9039955476 1.9357288068 1.9674620659 
1.999195325 2.0309285841 2.0626618433 2.0943951024 2.1261283615 2.1578616206 2.1895948798 2.2213281389 2.253061398 
2.2847946572 2.3165279163 2.3482611754 2.3799944345 2.4117276937 2.4434609528 2.4751942119 2.506927471 2.5386607302 
2.5703939893 2.6021272484 2.6338605076 2.6655937667 2.6973270258 2.7290602849 2.7607935441 2.7925268032 2.8242600623 
2.8559933214 2.8877265806 2.9194598397 2.9511930988 2.982926358 3.0146596171 3.0463928762 3.0781261353 3.1098593945 
3.1415926536 
_radius 1 100 double
3.7751664319e-16 0.016580939104 0.032967262702 0.048979715327 0.064460814716 0.07928223621 0.093348947261 0.10659996128 0.11900609708 
0.13056549391 0.14129777073 0.15123764405 0.16042860588 0.16891701798 0.17674680739 0.18395493617 0.19056797911 0.19660036658 
0.20205492779 0.20692612424 0.21120579907 0.21489057356 0.21798942594 0.2205296477 0.22255939369 0.22414552936 0.22536649565 
0.22630133666 0.22701742446 0.2275600798 0.22794672507 0.22816660442 0.22818533094 0.22795244615 0.22741007043 0.2265012693 
0.2251774861 0.22340497172 0.22117042654 0.21848602314 0.21539365258 0.21196778063 0.20831592365 0.20457565808 0.2009073917 
0.19748286366 0.19447038885 0.19201894763 0.19024391899 0.18921711498 0.18896260654 0.18945800296 0.19063927837 0.19240684962 
0.19463157258 0.19716085544 0.19982609637 0.20245257423 0.20487195532 0.20693633162 0.20853174874 0.20958884603 0.21008857425 
0.21006181575 0.20958284197 0.20875763084 0.20770890628 0.20656018206 0.20542101183 0.20437513691 0.20347252363 0.20272564919 
0.2021098708 0.20156716975 0.20101209917 0.20033873642 0.19942791506 0.19815454802 0.19639504648 0.19403468463 0.19097448491 
0.18713697378 0.18247007727 0.17694855782 0.17057274832 0.16336481311 0.1553631979 0.14661620255 0.13717569138 0.1270918789 
0.11640993917 0.10516890684 0.093402972256 0.081144841482 0.068430400693 0.055303609653 0.041820465918 0.028051078126 0.014079311774 
1.1952427277e-15 
_area 1 100 double
0 0.00058779946066 0.0023321778373 0.0051779572923 0.0090384582044 0.013800892936 0.019331213446 0.025478870431 0.032082871767 
0.038979849784 0.046013510493 0.053044068872 0.059956337717 0.066665561752 0.073120317577 0.079301529018 0.085216129747 0.0908842922 
0.096321923244 0.10152494185 0.10646461677 0.11109920868 0.11539766869 0.1193631909 0.12304253329 0.12651139037 0.12983787318 
0.13304360844 0.13608807958 0.13888339399 0.14132451801 0.14331599226 0.14478446994 0.14567643782 0.14594811947 0.14555771454 
0.14446755029 0.14265678962 0.14013828077 0.13697025354 0.13325648426 0.12913562221 0.12476649315 0.12031556442 0.11594680665 
0.11181124786 0.10803645585 0.10471956463 0.10192655664 0.099696644527 0.098048614475 0.096986981803 0.096505038725 0.096579554323 
0.097155452125 0.098129060475 0.099344733045 0.10061057766 0.1017253558 0.10250421337 0.10279762218 0.10250210543 0.10156714932 
0.10000485615 0.097899753692 0.095408845018 0.092748063026 0.0901738397 0.088032089459 0.086504549383 0.085730356638 0.085595206676 
0.08584224334 0.086324599407 0.086932582186 0.087589144191 0.088219450912 0.088736422187 0.08898980907 0.088774135083 0.087883529055 
0.086159790078 0.083515025199 0.079936008155 0.075476296761 0.070240768819 0.06436756129 0.058011857541 0.051334298897 0.044494725023 
0.037650235621 0.030955651671 0.02456437252 0.018628130734 0.013294909188 0.0087050004294 0.0049856536321 0.0022449570116 0.00056569352332 
2.9206206915e-17 
