# vtk DataFile Version 5.1
vtk output
ASCII
DATASET POLYDATA
POINTS 100 float
0.136567 0.0397967 0.752479 0.136531 0.0401273 0.752186 0.136501 0.0409645 0.751186 
0.136449 0.0422584 0.749492 0.136334 0.0439324 0.747122 0.136105 0.0458897 0.744096 
0.135708 0.048023 0.74043 0.135093 0.0502239 0.736132 0.134217 0.0523914 0.731199 
0.133052 0.0544399 0.725616 0.131583 0.0563034 0.719354 0.129806 0.0579378 0.712378 
0.127729 0.0593197 0.704649 0.125366 0.060443 0.696136 0.122727 0.0613136 0.686818 
0.119818 0.0619435 0.676694 0.116635 0.0623442 0.665788 0.11316 0.0625224 0.654151 
0.109363 0.0624766 0.64186 0.105203 0.0621961 0.629011 0.100635 0.0616631 0.615715 
0.0956159 0.0608556 0.602087 0.0901121 0.0597531 0.588234 0.0841062 0.0583421 0.57425 
0.0776027 0.0566214 0.560199 0.0706313 0.0546064 0.546119 0.0632465 0.0523317 0.532013 
0.0555239 0.0498511 0.517856 0.0475538 0.0472351 0.503593 0.0394322 0.044567 0.489155 
0.0312502 0.0419363 0.474461 0.0230847 0.0394327 0.459431 0.0149894 0.037139 0.443992 
0.00698979 0.0351259 0.428085 -0.000918603 0.0334476 0.411663 -0.00876722 0.0321408 0.394696 
-0.0166073 0.0312242 0.377163 -0.0244992 0.0307018 0.359047 -0.032499 0.0305661 0.340327 
-0.0406442 0.0308028 0.320976 -0.0489409 0.0313958 0.300951 -0.0573531 0.0323302 0.280195 
-0.0657961 0.0335951 0.258639 -0.0741358 0.0351833 0.236208 -0.0821926 0.0370903 0.212831 
-0.089752 0.0393108 0.188452 -0.0965789 0.0418346 0.163042 -0.102435 0.0446428 0.136613 
-0.107099 0.0477034 0.109222 -0.110384 0.0509694 0.0809787 -0.112153 0.0543784 0.0520422 
-0.112331 0.0578548 0.0226139 -0.11091 0.0613134 -0.00707484 -0.107952 0.0646661 -0.0367785 
-0.103577 0.0678282 -0.0662563 -0.0979584 0.0707259 -0.095291 -0.0913016 0.0733019 -0.123705 
-0.0838311 0.0755196 -0.151372 -0.0757708 0.077365 -0.178225 -0.0673286 0.0788446 -0.204254 
-0.0586831 0.0799812 -0.229499 -0.0499751 0.0808073 -0.254042 -0.0413034 0.0813565 -0.277984 
-0.0327261 0.0816553 -0.30143 -0.0242651 0.0817147 -0.324472 -0.0159152 0.0815252 -0.347174 
-0.00765363 0.0810545 -0.369559 0.000548756 0.0802483 -0.39161 0.00871777 0.0790358 -0.413272 
0.016868 0.0773382 -0.434457 0.0249975 0.0750794 -0.455062 0.033086 0.0721979 -0.474988 
0.0410958 0.0686584 -0.494148 0.0489749 0.0644614 -0.512489 0.0566623 0.059649 -0.529999 
0.0640943 0.0543067 -0.546711 0.0712099 0.04856 -0.562696 0.077956 0.042567 -0.578059 
0.0842907 0.0365061 -0.592918 0.0901851 0.0305617 -0.607387 0.0956234 0.0249086 -0.621558 
0.100601 0.0196973 -0.635482 0.105121 0.0150417 -0.649153 0.109194 0.0110108 -0.662509 
0.112831 0.00762529 -0.67543 0.116048 0.00485904 -0.687746 0.118856 0.00264628 -0.699259 
0.121268 0.000892075 -0.709765 0.123299 -0.000514225 -0.719074 0.124966 -0.00168473 -0.727042 
0.126289 -0.00271967 -0.733582 0.127295 -0.00369653 -0.738686 0.12802 -0.00466307 -0.742425 
0.128505 -0.00563482 -0.744943 0.128795 -0.00659723 -0.746448 0.128941 -0.00751195 -0.747184 
0.12899 -0.00832608 -0.747408 0.128987 -0.00898301 -0.747361 0.128966 -0.00943317 -0.747236 
0.128948 -0.00964298 -0.747161 
LINES 2 100
OFFSETS vtktypeint64
0 100 
CONNECTIVITY vtktypeint64
0 1 2 3 4 5 6 7 8 
9 10 11 12 13 14 15 16 17 
18 19 20 21 22 23 24 25 26 
27 28 29 30 31 32 33 34 35 
36 37 38 39 40 41 42 43 44 
45 46 47 48 49 50 51 52 53 
54 55 56 57 58 59 60 61 62 
63 64 65 66 67 68 69 70 71 
72 73 74 75 76 77 78 79 80 
81 82 83 84 85 86 87 88 89 
90 91 92 93 94 95 96 97 98 
99 
POINT_DATA 100
FIELD FieldData 3
_theta 1 100 double
0 0.031733259127 0.063466518254 0.095199777382 0.12693303651 0.15866629564 0.19039955476 0.22213281389 0.25386607302 
0.28559933214 0.31733259127 0.3490658504 0.38079910953 0.41253236865 0.44426562778 0.47599888691 0.50773214603 0.53946540516 
0.57119866429 0.60293192342 0.63466518254 0.66639844167 0.6981317008 0.72986495992 0.76159821905 0.79333147818 0.82506473731 
0.85679799643 0.88853125556 0.92026451469 0.95199777382 0.98373103294 1.0154642921 1.0471975512 1.0789308103 1.1106640695 
1.1423973286 1.1741305877 1.2058638468 1.237597106 1.2693303651 1.3010636242 1.3327968833 1.3645301425 1.3962634016 
1.4279966607 1.4597299198 1.491463179 1.5231964381 1.5549296972 1.5866629564 1.6183962155 1.6501294746 1.6818627337 
1.7135959929 1.745329252 1.7770625111 1.8087957702 1.8405290294 1.8722622885 1.9039955476 1.9357288068 1.9674620659 
1.999195325 2.0309285841 2.0626618433 2.0943951024 2.1261283615 2.1578616206 2.1895948798 2.2213281389 2.253061398 
2.2847946572 2.3165279163 2.3482611754 2.3799944345 2.4117276937 2.4434609528 2.4751942119 2.506927471 2.5386607302 
2.5703939893 2.6021272484 2.6338605076 2.6655937667 2.6973270258 2.7290602849 2.7607935441 2.7925268032 2.8242600623 
2.8559933214 2.8877265806 2.9194598397 2.9511930988 2.982926358 3.0146596171 3.0463928762 3.0781261353 3.1098593945 
3.1415926536 
_radius 1 100 double
1.3399253869e-15 0.016672873872 0.033173506239 0.04933711858 0.065018808048 0.080100305617 0.094493404764 0.10814008324 0.1210099346 
0.13309589672 0.14440933864 0.15497536575 0.16482882445 0.17401106764 0.18256721944 0.19054355945 0.19798478217 0.20493123048 
0.21141660217 0.2174668456 0.22310079279 0.22833251237 0.23317463991 0.23764140517 0.24174997983 0.24551919076 0.24896549204 
0.25209710957 0.25490805551 0.25737385904 0.25945028676 0.26107537542 0.26217427935 0.26266603768 0.26247135722 0.26152068427 
0.25976202204 0.25716805075 0.25374212229 0.24952268162 0.24458567693 0.23904460277 0.23304796785 0.22677414022 0.22042363382 
0.21420895285 0.20834220454 0.2030210035 0.1984138164 0.19464667899 0.19179375617 0.18987399682 0.18885474636 0.18866079395 
0.18918519009 0.19029804975 0.19185213278 0.19368758991 0.19563966918 0.19755078997 0.19928444949 0.20073658461 0.20184124319 
0.20256998294 0.2029265426 0.20293931603 0.20265389658 0.20212680486 0.20142034835 0.20059810477 0.19972064292 0.19884123059 
0.19800129074 0.19722557551 0.19651754443 0.19585589102 0.19519313434 0.1944566675 0.1935520194 0.19236774171 0.19078135334 
0.18866592009 0.1858968536 0.18235836942 0.17794897015 0.17258549419 0.16620563422 0.1587691611 0.15025822233 0.14067701643 
0.13005098796 0.11842557067 0.10586449723 0.092447778636 0.078269557402 0.063436065426 0.048063822421 0.032278029647 0.016210947219 
1.1644290202e-15 
_area 1 100 double
0 0.00062723601992 0.0024839869233 0.005499509296 0.009568351066 0.014564924296 0.02035718491 0.02681566867 0.033816142515 
0.041236775472 0.048953022882 0.056834484705 0.064747335252 0.072563555851 0.080174986357 0.087507649657 0.094531040233 0.10125827136 
0.10773587975 0.11402626921 0.12018967402 0.12627321461 0.1323105245 0.13832871562 0.1443540554 0.15040666468 0.15648016832 
0.16251434193 0.16837873383 0.17388079811 0.17879589959 0.18290477766 0.18602387696 0.18801999354 0.1888079632 0.18833750591 
0.18658022934 0.18352625944 0.17919356548 0.17364687663 0.16701857201 0.15952137514 0.15144395625 0.14312619104 0.13491889587 
0.12713995412 0.12004099198 0.11379350626 0.10849174151 0.10415894774 0.10074761192 0.098146483469 0.096212684653 0.094813063922 
0.093841099485 0.093204019435 0.092808248568 0.09256904199 0.09243312191 0.092397719866 0.092465407824 0.092609938517 0.092774865579 
0.092889150789 0.092860462885 0.092568576371 0.091993927199 0.091136596466 0.090038121371 0.088834310519 0.087705875775 0.086857148374 
0.086482069805 0.086708867452 0.087558361999 0.088920716947 0.090496579995 0.09198772812 0.093140527567 0.093757841145 0.093683944673 
0.092788784583 0.090972122457 0.088169964114 0.084355129539 0.079538700091 0.073774898156 0.067167051008 0.059871056128 0.052093319318 
0.044081493209 0.036108204407 0.028449993946 0.021365306602 0.01507592254 0.0097554518751 0.0055266221713 0.0024666735368 0.00061800583036 
3.0818035976e-17 
