# vtk DataFile Version 5.1
vtk output
ASCII
DATASET POLYDATA
POINTS 100 float
0.105493 0.0377936 0.591526 0.105376 0.0379922 0.591501 0.105096 0.0384363 0.591315 
0.104655 0.0390939 0.590948 0.104048 0.0399164 0.590366 0.103275 0.0408437 0.589524 
0.102334 0.0418108 0.588367 0.101226 0.0427548 0.586828 0.0999532 0.0436205 0.584835 
0.0985213 0.0443656 0.582313 0.0969369 0.0449633 0.579187 0.095207 0.0454032 0.575391 
0.0933375 0.0456895 0.570871 0.0913312 0.0458379 0.565589 0.0891856 0.045871 0.559532 
0.0868911 0.0458131 0.552708 0.0844301 0.0456851 0.545151 0.0817766 0.0455012 0.536919 
0.0788966 0.0452662 0.528088 0.0757505 0.0449753 0.518745 0.0722956 0.0446156 0.508984 
0.0684901 0.0441695 0.498895 0.0642972 0.0436186 0.488556 0.0596894 0.0429493 0.478029 
0.0546524 0.0421565 0.467348 0.049188 0.0412476 0.456527 0.0433155 0.0402444 0.44555 
0.0370716 0.0391828 0.434381 0.0305087 0.0381112 0.422965 0.0236911 0.0370864 0.411239 
0.0166902 0.0361686 0.399134 0.00957875 0.0354159 0.386588 0.00242485 0.0348786 0.373546 
-0.00471368 0.0345947 0.359971 -0.0117936 0.0345865 0.345837 -0.0187888 0.03486 0.331135 
-0.0256907 0.0354051 0.315865 -0.032506 0.0361988 0.300034 -0.0392525 0.0372092 0.28365 
-0.0459523 0.0384002 0.266717 -0.0526246 0.0397373 0.249232 -0.0592767 0.0411913 0.231179 
-0.0658966 0.0427421 0.212539 -0.0724467 0.0443796 0.193282 -0.0788596 0.0461035 0.173384 
-0.085037 0.0479211 0.152825 -0.0908525 0.0498435 0.1316 -0.0961573 0.0518814 0.109729 
-0.100789 0.0540401 0.0872566 -0.104584 0.056316 0.0642575 -0.107388 0.0586935 0.0408351 
-0.109071 0.0611443 0.0171167 -0.109539 0.0636279 -0.00675428 -0.108742 0.0660944 -0.0306279 
-0.106681 0.0684886 -0.0543595 -0.103408 0.0707547 -0.0778203 -0.0990239 0.0728415 -0.100907 
-0.0936731 0.0747067 -0.123551 -0.0875292 0.0763199 -0.145716 -0.0807835 0.0776642 -0.167402 
-0.0736289 0.0787357 -0.188641 -0.0662457 0.079541 -0.209482 -0.0587876 0.0800933 -0.229986 
-0.051372 0.0804081 -0.250213 -0.0440734 0.0804979 -0.270209 -0.036922 0.080368 -0.289999 
-0.0299068 0.0800142 -0.309579 -0.0229836 0.0794214 -0.328917 -0.0160854 0.0785651 -0.347953 
-0.00913652 0.0774144 -0.366609 -0.00206644 0.075937 -0.384795 0.00517705 0.0741054 -0.402423 
0.0126168 0.0719027 -0.419415 0.0202388 0.0693282 -0.435717 0.0279896 0.0664013 -0.451301 
0.0357773 0.0631628 -0.466172 0.0434786 0.0596746 -0.48036 0.0509483 0.0560157 -0.493921 
0.058032 0.0522768 -0.50692 0.0645802 0.0485526 -0.519424 0.0704619 0.0449339 -0.531488 
0.0755765 0.0414998 -0.543142 0.0798625 0.0383107 -0.554386 0.0833024 0.0354044 -0.565185 
0.0859231 0.0327939 -0.575468 0.0877919 0.0304685 -0.585139 0.0890091 0.0283977 -0.594082 
0.089697 0.0265375 -0.60218 0.0899882 0.0248374 -0.60933 0.0900133 0.0232488 -0.615452 
0.0898896 0.0217323 -0.62051 0.089713 0.020263 -0.624515 0.0895521 0.0188346 -0.627525 
0.0894468 0.0174595 -0.62965 0.08941 0.0161673 -0.631032 0.0894328 0.0149997 -0.63184 
0.0894915 0.014005 -0.632246 0.0895561 0.0132304 -0.632409 0.0895982 0.0127154 -0.632457 
0.089598 0.0124861 -0.632475 
LINES 2 100
OFFSETS vtktypeint64
0 100 
CONNECTIVITY vtktypeint64
0 1 2 3 4 5 6 7 8 
9 10 11 12 13 14 15 16 17 
18 19 20 21 22 23 24 25 26 
27 28 29 30 31 32 33 34 35 
36 37 38 39 40 41 42 43 44 
45 46 47 48 49 50 51 52 53 
54 55 56 57 58 59 60 61 62 
63 64 65 66 67 68 69 70 71 
72 73 74 75 76 77 78 79 80 
81 82 83 84 85 86 87 88 89 
90 91 92 93 94 95 96 97 98 
99 
POINT_DATA 100
FIELD FieldData 3
_theta 1 100 double
0 0.031733259127 0.063466518254 0.095199777382 0.12693303651 0.15866629564 0.19039955476 0.22213281389 0.25386607302 
0.28559933214 0.31733259127 0.3490658504 0.38079910953 0.41253236865 0.44426562778 0.47599888691 0.50773214603 0.53946540516 
0.57119866429 0.60293192342 0.63466518254 0.66639844167 0.6981317008 0.72986495992 0.76159821905 0.79333147818 0.82506473731 
0.85679799643 0.88853125556 0.92026451469 0.95199777382 0.98373103294 1.0154642921 1.0471975512 1.0789308103 1.1106640695 
1.1423973286 1.1741305877 1.2058638468 1.237597106 1.2693303651 1.3010636242 1.3327968833 1.3645301425 1.3962634016 
1.4279966607 1.4597299198 1.491463179 1.5231964381 1.5549296972 1.5866629564 1.6183962155 1.6501294746 1.6818627337 
1.7135959929 1.745329252 1.7770625111 1.8087957702 1.8405290294 1.8722622885 1.9039955476 1.9357288068 1.9674620659 
1.999195325 2.0309285841 2.0626618433 2.0943951024 2.1261283615 2.1578616206 2.1895948798 2.2213281389 2.253061398 
2.2847946572 2.3165279163 2.3482611754 2.3799944345 2.4117276937 2.4434609528 2.4751942119 2.506927471 2.5386607302 
2.5703939893 2.6021272484 2.6338605076 2.6655937667 2.6973270258 2.7290602849 2.7607935441 2.7925268032 2.8242600623 
2.8559933214 2.8877265806 2.9194598397 2.9511930988 2.982926358 3.0146596171 3.0463928762 3.0781261353 3.1098593945 
3.1415926536 
_radius 1 100 double
4.9747562539e-16 0.014730189814 0.029397737499 0.04393520138 0.058273572929 0.072342702305 0.086072595872 0.099395509065 0.11224857497 
0.1245765904 0.13633455039 0.14748957127 0.15802194365 0.16792517627 0.17720500257 0.18587740893 0.19396581561 0.20149762389 
0.20850045473 0.21499852482 0.22100967697 0.2265435452 0.23160117359 0.23617615472 0.24025706372 0.2438306962 0.24688543091 
0.24941399214 0.25141502567 0.25289320658 0.25385797765 0.25432134534 0.25429534562 0.25378981677 0.25281101885 0.25136146926 
0.24944115517 0.24705006055 0.24419173474 0.24087746114 0.23713048637 0.23298974752 0.22851258028 0.22377598584 0.21887616723 
0.21392619855 0.20905184265 0.204385655 0.20005960269 0.19619653429 0.19290105941 0.1902507828 0.18828920615 0.18702156783 
0.18641422361 0.18639725234 0.18686951274 0.18770566927 0.18876524918 0.18990382278 0.19098568093 0.19189643259 0.19255347128 
0.19291253366 0.19296935174 0.19275627384 0.19233444827 0.19178269129 0.19118455245 0.19061534103 0.19013088483 0.1897594551 
0.18949763477 0.18931012155 0.18913280581 0.18887813352 0.18844177258 0.1877098105 0.18656594264 0.18489824812 0.1826051802 
0.17960038427 0.175815985 0.17120411559 0.16573669906 0.15940378154 0.1522109708 0.14417665469 0.13532960489 0.12570732401 
0.11535515903 0.1043259149 0.092679563565 0.080482691312 0.067807508673 0.054730470711 0.041330728531 0.027688702713 0.013885028368 
6.9311538397e-16 
_area 1 100 double
0 0.00051352438534 0.0020418954849 0.0045490750006 0.0079772910678 0.012251276141 0.017284282596 0.022984092577 0.029256727024 
0.036006796514 0.043135772554 0.050541142275 0.058119118588 0.065771424119 0.073413872785 0.080982621719 0.088434481646 0.095740931952 
0.10287957322 0.10982817511 0.11656383798 0.12306561038 0.12931657003 0.13530206087 0.14100372015 0.14639237309 0.15142445334 
0.15604470219 0.16019385054 0.16381730711 0.16687101301 0.16932217973 0.17114450579 0.172309791 0.1727801598 0.17250565016 
0.17142982735 0.16950281876 0.16669874239 0.16303334123 0.1585771159 0.15345907873 0.14785711228 0.14197442856 0.1360086339 
0.13012643657 0.12445475357 0.11908729109 0.11409647595 0.10954097368 0.1054640981 0.10188447981 0.098788778174 0.096142390795 
0.093924759411 0.092129675302 0.090708646045 0.089658299195 0.088984166556 0.088630867488 0.088466819145 0.088313302445 0.087992389686 
0.087369256605 0.086375706328 0.085014612605 0.083356366823 0.081589821161 0.079947949993 0.078569818833 0.0776462336 0.077357030117 
0.077619913637 0.078230949473 0.079019743299 0.079820586551 0.080485046683 0.08088435774 0.080909524756 0.080469203287 0.079485792752 
0.077891689055 0.075628958349 0.072654540845 0.06894940755 0.064527418583 0.059440514904 0.053779609065 0.047672268652 0.041278158069 
0.034782184119 0.028384697069 0.022288585366 0.016684441151 0.011736394509 0.0075718807553 0.0042779861106 0.0019051542876 0.00047662346087 
3.5134924999e-17 
