# vtk DataFile Version 5.1
vtk output
ASCII
DATASET POLYDATA
POINTS 100 float
0.0940794 0.0368114 0.646688 0.0940855 0.0369771 0.64663 0.094155 0.0373227 0.646282 
0.0942736 0.0378313 0.645603 0.0944204 0.0384773 0.644524 0.0945704 0.0392302 0.642959 
0.0946985 0.0400583 0.640806 0.0947822 0.0409322 0.637957 0.0948045 0.0418289 0.634307 
0.0947546 0.0427334 0.629764 0.0946272 0.0436398 0.624253 0.094421 0.0445506 0.617732 
0.0941341 0.045474 0.610191 0.0937605 0.0464211 0.60166 0.093285 0.047401 0.592209 
0.0926799 0.0484167 0.581947 0.0919022 0.0494615 0.571016 0.0908939 0.0505156 0.55958 
0.0895834 0.0515457 0.547818 0.0878906 0.052505 0.535908 0.0857331 0.0533363 0.524015 
0.0830344 0.0539762 0.512278 0.0797317 0.0543604 0.500796 0.0757842 0.05443 0.489626 
0.0711785 0.054138 0.478773 0.0659323 0.0534544 0.468193 0.0600943 0.0523706 0.457801 
0.0537411 0.0509018 0.447474 0.0469708 0.0490872 0.437068 0.0398935 0.0469886 0.426428 
0.0326211 0.0446866 0.415407 0.0252561 0.0422758 0.403876 0.017882 0.0398588 0.391735 
0.0105553 0.0375401 0.378922 0.00330213 0.0354203 0.365413 -0.00388278 0.0335907 0.351224 
-0.0110315 0.0321295 0.3364 -0.0181954 0.0310992 0.321009 -0.0254341 0.0305452 0.305132 
-0.0328034 0.0304959 0.288847 -0.0403422 0.0309631 0.27222 -0.0480613 0.0319442 0.255296 
-0.0559348 0.0334228 0.238093 -0.0638955 0.035371 0.220602 -0.071835 0.0377504 0.202789 
-0.0796083 0.0405131 0.1846 -0.0870431 0.0436023 0.165973 -0.0939523 0.0469527 0.146848 
-0.100149 0.0504915 0.127178 -0.105463 0.054139 0.106938 -0.109753 0.0578107 0.0861342 
-0.112918 0.0614191 0.0648054 -0.114909 0.0648772 0.0430253 -0.115728 0.068102 0.0208968 
-0.115428 0.0710186 -0.00145472 -0.114105 0.0735643 -0.0238917 -0.111889 0.075692 -0.0462752 
-0.10893 0.0773728 -0.0684756 -0.105385 0.0785974 -0.090382 -0.1014 0.0793762 -0.111909 
-0.0971031 0.0797373 -0.133 -0.0925894 0.079723 -0.153627 -0.08792 0.0793859 -0.173787 
-0.0831183 0.0787832 -0.193497 -0.0781734 0.0779714 -0.212783 -0.0730464 0.0770013 -0.231677 
-0.0676796 0.0759136 -0.250203 -0.0620073 0.0747365 -0.268376 -0.0559667 0.073484 -0.286193 
-0.0495084 0.072157 -0.303639 -0.0426049 0.070745 -0.320683 -0.0352565 0.0692297 -0.337283 
-0.0274941 0.0675894 -0.353394 -0.0193794 0.0658026 -0.368972 -0.0110022 0.0638529 -0.383981 
-0.00247463 0.0617317 -0.398398 0.00607505 0.0594401 -0.412212 0.0145105 0.0569896 -0.42543 
0.0226948 0.0544014 -0.438068 0.0304982 0.0517037 -0.450152 0.0378039 0.0489295 -0.46171 
0.044513 0.0461128 -0.472764 0.0505485 0.0432858 -0.483331 0.0558566 0.040476 -0.493409 
0.0604076 0.0377049 -0.502986 0.0641955 0.0349876 -0.512033 0.0672364 0.0323334 -0.520507 
0.0695669 0.0297477 -0.52836 0.0712411 0.0272347 -0.535544 0.0723285 0.0248 -0.542016 
0.0729101 0.0224535 -0.547744 0.073076 0.0202113 -0.552717 0.072921 0.0180967 -0.55694 
0.0725417 0.0161402 -0.560439 0.0720323 0.0143778 -0.563257 0.0714807 0.012849 -0.565448 
0.0709648 0.0115929 -0.567072 0.0705492 0.010645 -0.568186 0.070282 0.0100337 -0.568836 
0.0701927 0.00977729 -0.569051 
LINES 2 100
OFFSETS vtktypeint64
0 100 
CONNECTIVITY vtktypeint64
0 1 2 3 4 5 6 7 8 
9 10 11 12 13 14 15 16 17 
18 19 20 21 22 23 24 25 26 
27 28 29 30 31 32 33 34 35 
36 37 38 39 40 41 42 43 44 
45 46 47 48 49 50 51 52 53 
54 55 56 57 58 59 60 61 62 
63 64 65 66 67 68 69 70 71 
72 73 74 75 76 77 78 79 80 
81 82 83 84 85 86 87 88 89 
90 91 92 93 94 95 96 97 98 
99 
POINT_DATA 100
FIELD FieldData 3
_theta 1 100 double
0 0.031733259127 0.063466518254 0.095199777382 0.12693303651 0.15866629564 0.19039955476 0.22213281389 0.25386607302 
0.28559933214 0.31733259127 0.3490658504 0.38079910953 0.41253236865 0.44426562778 0.47599888691 0.50773214603 0.53946540516 
0.57119866429 0.60293192342 0.63466518254 0.66639844167 0.6981317008 0.72986495992 0.76159821905 0.79333147818 0.82506473731 
0.85679799643 0.88853125556 0.92026451469 0.95199777382 0.98373103294 1.0154642921 1.0471975512 1.0789308103 1.1106640695 
1.1423973286 1.1741305877 1.2058638468 1.237597106 1.2693303651 1.3010636242 1.3327968833 1.3645301425 1.3962634016 
1.4279966607 1.4597299198 1.491463179 1.5231964381 1.5549296972 1.5866629564 1.6183962155 1.6501294746 1.6818627337 
1.7135959929 1.745329252 1.7770625111 1.8087957702 1.8405290294 1.8722622885 1.9039955476 1.9357288068 1.9674620659 
1.999195325 2.0309285841 2.0626618433 2.0943951024 2.1261283615 2.1578616206 2.1895948798 2.2213281389 2.253061398 
2.2847946572 2.3165279163 2.3482611754 2.3799944345 2.4117276937 2.4434609528 2.4751942119 2.506927471 2.5386607302 
2.5703939893 2.6021272484 2.6338605076 2.6655937667 2.6973270258 2.7290602849 2.7607935441 2.7925268032 2.8242600623 
2.8559933214 2.8877265806 2.9194598397 2.9511930988 2.982926358 3.0146596171 3.0463928762 3.0781261353 3.1098593945 
3.1415926536 
_radius 1 100 double
6.6642287264e-16 0.01341225071 0.026789211081 0.04008710585 0.053251132441 0.066212670166 0.078889262954 0.091187743845 0.10301042221 
0.114263705 0.12486796196 0.13476703542 0.14393568978 0.15238355646 0.16015471439 0.16732283017 0.17398258455 0.18023873131 
0.186194413 0.191940265 0.19754548523 0.20305161163 0.20846936238 0.21377858973 0.21893114212 0.22385618432 0.22846730141 
0.2326705652 0.23637271553 0.2394886894 0.24194785013 0.24369838018 0.24470942723 0.24497081584 0.24449052745 0.24329069412 
0.24140339779 0.2388678399 0.23573015744 0.23204622162 0.22788646069 0.22334068912 0.21852059362 0.21355802811 0.20859840327 
0.20378995039 0.1992711001 0.1951589777 0.19154153263 0.18847443758 0.18598261407 0.18406549481 0.18270450765 0.18187059494 
0.18152942038 0.18164270597 0.18216561243 0.18304165663 0.18419791752 0.18554371261 0.18697491269 0.18838367549 0.1896709452 
0.19075814302 0.19159530101 0.19216443344 0.1924781859 0.19257445414 0.1925078945 0.19233930904 0.19212398092 0.19190027934 
0.19168021907 0.19144389734 0.19113941609 0.19068871354 0.18999790686 0.18896919192 0.18751102164 0.18554436094 0.18300457521 
0.17984001789 0.17600907706 0.17147727318 0.16621532963 0.16019844127 0.15340651528 0.14582496678 0.13744565917 0.12826775735 
0.11829853404 0.10755438238 0.096062297123 0.08386186888 0.071007499362 0.057570258611 0.043638715657 0.02931823482 0.014728574816 
3.625261624e-16 
_area 1 100 double
0 0.00049103697867 0.0019579023078 0.0043812623392 0.0077267649345 0.01194160488 0.016949935468 0.022648425958 0.0289041815 
0.035557567865 0.042431785591 0.049349246102 0.056152399785 0.06272457044 0.069005443665 0.07499658157 0.080754726132 0.086374439276 
0.091965600111 0.097632878298 0.10346196941 0.10951290298 0.11581693771 0.12237232308 0.12913690413 0.13602064851 0.1428836518 
0.14954228762 0.15578270383 0.16138172971 0.16613581546 0.16989373864 0.17258214403 0.17421124133 0.1748543244 0.17460693057 
0.17354252489 0.17168479672 0.16900966223 0.16547564499 0.16106715007 0.15583013455 0.14988672275 0.14342832838 0.1366960051 
0.12995755362 0.12348654916 0.11754316754 0.11234980397 0.10804756364 0.10464857707 0.10205819292 0.10015729789 0.098840737852 
0.098003707064 0.097528859215 0.097294608409 0.097191586653 0.097132722502 0.097052964108 0.096901026645 0.096627195877 0.096173816588 
0.095478771468 0.094493504315 0.093201784953 0.091628476299 0.089839143786 0.087930701946 0.086016246294 0.084264951026 0.082696827471 
0.08144669453 0.080369269437 0.079419904774 0.078575624152 0.077796184304 0.077000555791 0.076114876116 0.075105420514 0.073939820601 
0.072529832637 0.070725145495 0.068362651781 0.065318398347 0.061537863923 0.057042486065 0.051918038024 0.046295413524 0.040333136499 
0.034206073452 0.0280999481 0.022207587103 0.01672160905 0.011821254934 0.0076568236814 0.004338706307 0.0019360962963 0.00048493721298 
2.1034369127e-17 
