# vtk DataFile Version 5.1
vtk output
ASCII
DATASET POLYDATA
POINTS 100 float
0.086861 0.0575208 0.71105 0.0870442 0.0576055 0.710808 0.0876423 0.0576961 0.70991 
0.088593 0.0577909 0.708372 0.089799 0.057888 0.706219 0.0911375 0.0579863 0.703477 
0.0924725 0.0580859 0.70017 0.0936671 0.058189 0.696309 0.094596 0.0582995 0.691891 
0.0951551 0.0584221 0.686894 0.0952692 0.058561 0.681283 0.0948949 0.0587178 0.675005 
0.0940207 0.0588888 0.668005 0.0926622 0.0590628 0.660229 0.0908559 0.0592193 0.651636 
0.0886498 0.0593274 0.642205 0.0860948 0.0593461 0.631945 0.0832358 0.0592265 0.620892 
0.0801055 0.0589147 0.609116 0.0767204 0.058357 0.596712 0.0730797 0.0575055 0.583794 
0.0691682 0.0563237 0.57048 0.0649606 0.0547927 0.556888 0.0604285 0.0529155 0.543114 
0.0555473 0.0507197 0.529231 0.0503035 0.0482583 0.515278 0.0446994 0.045608 0.501256 
0.0387558 0.0428648 0.487131 0.0325127 0.0401378 0.472845 0.0260254 0.0375415 0.458317 
0.0193591 0.0351871 0.443461 0.0125821 0.0331745 0.428195 0.00575674 0.0315852 0.412455 
-0.00106759 0.0304765 0.396198 -0.00786074 0.0298793 0.37941 -0.0146151 0.0297971 0.362106 
-0.0213458 0.0302091 0.344322 -0.0280871 0.0310744 0.326109 -0.0348856 0.0323381 0.30752 
-0.041791 0.0339388 0.288603 -0.0488447 0.035815 0.269386 -0.056069 0.037911 0.249872 
-0.0634568 0.0401814 0.230038 -0.0709638 0.042593 0.209829 -0.0785046 0.0451247 0.189174 
-0.0859529 0.0477648 0.167988 -0.0931462 0.0505075 0.146192 -0.0998943 0.0533476 0.123721 
-0.105992 0.0562754 0.10054 -0.111234 0.0592724 0.0766565 -0.115428 0.0623075 0.0521217 
-0.118413 0.0653366 0.0270344 -0.120069 0.0683024 0.00153466 -0.120326 0.0711378 -0.0242063 
-0.119169 0.0737701 -0.0500004 -0.116639 0.0761266 -0.0756587 -0.112826 0.0781402 -0.101009 
-0.107864 0.0797549 -0.125908 -0.101914 0.0809299 -0.150254 -0.0951536 0.0816414 -0.173993 
-0.0877636 0.0818834 -0.197116 -0.0799118 0.0816654 -0.219653 -0.0717445 0.0810088 -0.241664 
-0.0633775 0.0799417 -0.263225 -0.0548923 0.0784936 -0.284411 -0.0463358 0.0766904 -0.305281 
-0.0377236 0.0745495 -0.325872 -0.0290463 0.0720782 -0.346185 -0.0202781 0.0692725 -0.366189 
-0.0113861 0.0661195 -0.385819 -0.0023402 0.0626006 -0.40499 0.00687867 0.0586966 -0.423607 
0.0162714 0.0543939 -0.441576 0.0258165 0.0496899 -0.45882 0.0354684 0.0445981 -0.475288 
0.045158 0.0391507 -0.490963 0.0547965 0.0334004 -0.505859 0.0642803 0.0274185 -0.520022 
0.0734979 0.0212914 -0.533518 0.0823364 0.0151155 -0.546423 0.0906892 0.00898993 -0.558806 
0.0984619 0.00301021 -0.570718 0.105578 -0.00273893 -0.582177 0.111981 -0.00818865 -0.593169 
0.117639 -0.0132896 -0.603637 0.122542 -0.0180131 -0.613494 0.126706 -0.0223503 -0.622628 
0.130162 -0.0263088 -0.630919 0.132961 -0.0299085 -0.638255 0.135168 -0.0331754 -0.644548 
0.136853 -0.0361366 -0.649751 0.138095 -0.0388147 -0.653865 0.13897 -0.0412247 -0.656948 
0.139555 -0.0433714 -0.659107 0.139919 -0.0452496 -0.66049 0.140124 -0.0468457 -0.661273 
0.140224 -0.0481402 -0.661641 0.14026 -0.0491122 -0.661763 0.140264 -0.0497425 -0.66178 
0.140253 -0.0500178 -0.66178 
LINES 2 100
OFFSETS vtktypeint64
0 100 
CONNECTIVITY vtktypeint64
0 1 2 3 4 5 6 7 8 
9 10 11 12 13 14 15 16 17 
18 19 20 21 22 23 24 25 26 
27 28 29 30 31 32 33 34 35 
36 37 38 39 40 41 42 43 44 
45 46 47 48 49 50 51 52 53 
54 55 56 57 58 59 60 61 62 
63 64 65 66 67 68 69 70 71 
72 73 74 75 76 77 78 79 80 
81 82 83 84 85 86 87 88 89 
90 91 92 93 94 95 96 97 98 
99 
POINT_DATA 100
FIELD FieldData 3
_theta 1 100 double
0 0.031733259127 0.063466518254 0.095199777382 0.12693303651 0.15866629564 0.19039955476 0.22213281389 0.25386607302 
0.28559933214 0.31733259127 0.3490658504 0.38079910953 0.41253236865 0.44426562778 0.47599888691 0.50773214603 0.53946540516 
0.57119866429 0.60293192342 0.63466518254 0.66639844167 0.6981317008 0.72986495992 0.76159821905 0.79333147818 0.82506473731 
0.85679799643 0.88853125556 0.92026451469 0.95199777382 0.98373103294 1.0154642921 1.0471975512 1.0789308103 1.1106640695 
1.1423973286 1.1741305877 1.2058638468 1.237597106 1.2693303651 1.3010636242 1.3327968833 1.3645301425 1.3962634016 
1.4279966607 1.4597299198 1.491463179 1.5231964381 1.5549296972 1.5866629564 1.6183962155 1.6501294746 1.6818627337 
1.7135959929 1.745329252 1.7770625111 1.8087957702 1.8405290294 1.8722622885 1.9039955476 1.9357288068 1.9674620659 
1.999195325 2.0309285841 2.0626618433 2.0943951024 2.1261283615 2.1578616206 2.1895948798 2.2213281389 2.253061398 
2.2847946572 2.3165279163 2.3482611754 2.3799944345 2.4117276937 2.4434609528 2.4751942119 2.506927471 2.5386607302 
2.5703939893 2.6021272484 2.6338605076 2.6655937667 2.6973270258 2.7290602849 2.7607935441 2.7925268032 2.8242600623 
2.8559933214 2.8877265806 2.9194598397 2.9511930988 2.982926358 3.0146596171 3.0463928762 3.0781261353 3.1098593945 
3.1415926536 
_radius 1 100 double
5.6307745213e-16 0.013872833948 0.027730687973 0.041545849077 0.055281029338 0.06888605563 0.082295990171 0.095431166491 0.10819942962 
0.12050056184 0.13223253614 0.1432989451 0.15361675528 0.16312345075 0.17178264032 0.17958729988 0.18656002789 0.19275005091 
0.19822723535 0.20307396234 0.20737623757 0.21121564064 0.21466353452 0.21777835041 0.22060589035 0.22318172593 0.22553423386 
0.22768682751 0.22965851975 0.23146279908 0.23310546834 0.23458228684 0.23587706055 0.23696056208 0.23779053936 0.23831305337 
0.2384653436 0.2381803029 0.2373924722 0.23604527654 0.23409902573 0.23153898696 0.22838261388 0.22468482536 0.22054014254 
0.21608060267 0.21146877052 0.20688592792 0.20251657068 0.19853136497 0.19507123284 0.19223503145 0.19007266213 0.18858473535 
0.18772889733 0.18743124921 0.18759947423 0.18813360663 0.18893168801 0.18989048215 0.19090440893 0.19186692503 0.19267676701 
0.19324813738 0.19352161565 0.19347241588 0.19311368662 0.19249374866 0.19168730162 0.19078189903 0.18986220054 0.18899513243 
0.1882187637 0.18753654674 0.18691708233 0.18629836384 0.18559490539 0.18470620387 0.1835252933 0.18194644768 0.17987133587 
0.17721321239 0.17389907051 0.1698700067 0.1650802506 0.15949537448 0.15309018512 0.14584681033 0.13775352592 0.12880482228 
0.11900296561 0.10836086772 0.096905596457 0.0846815639 0.07175247637 0.058201504571 0.044129662323 0.02965283626 0.014898116348 
1.2806484177e-15 
_area 1 100 double
0 0.00053874454903 0.002146987957 0.0047991446107 0.008448104447 0.013021283632 0.01841919782 0.024518139788 0.031176889054 
0.038245812508 0.045575934671 0.053026049571 0.06046764714 0.06778909897 0.074900405967 0.081737814153 0.088265913369 0.094475066815 
0.10037359811 0.10597580218 0.11128843263 0.11630037366 0.1209813362 0.1252927096 0.12920779765 0.13273401504 0.13592822578 
0.13889722059 0.14177860196 0.14470463786 0.14776107737 0.15095719582 0.15421747815 0.15739461618 0.16029638495 0.16271670492 
0.16446161535 0.16536611109 0.16530612234 0.16420948653 0.16206324157 0.15891506406 0.15486985239 0.15008272126 0.14474919342 
0.13909359742 0.13335684819 0.12778382118 0.12260809122 0.11802918731 0.11418070284 0.11110277269 0.10873857355 0.10695649626 
0.10558844352 0.10446568492 0.10343575235 0.10236577065 0.1011467112 0.099705672325 0.098024426636 0.09615652986 0.094230211002 
0.092409409344 0.090772117035 0.089219617712 0.087589206076 0.085779199509 0.083774325709 0.081633339238 0.079470679304 0.077439353682 
0.075715118051 0.074457323292 0.073726782977 0.073478284747 0.073629939792 0.074048091754 0.074518568354 0.074819241208 0.074772584918 
0.074240693682 0.073111116799 0.071290758093 0.068708969829 0.065326815699 0.061147503934 0.056223127579 0.050655123395 0.044588901711 
0.038205097684 0.031709746089 0.02532395927 0.019272380278 0.013770172097 0.0090099536453 0.0051512673851 0.0023148635229 0.00058240574231 
5.4450443841e-17 
