# vtk DataFile Version 5.1
vtk output
ASCII
DATASET POLYDATA
POINTS 100 float
0.114745 0.0524135 0.61797 0.114703 0.0523072 0.618101 0.114633 0.0518856 0.618322 
0.11452 0.0511921 0.618559 0.114342 0.0502946 0.618698 0.114066 0.0492782 0.618598 
0.113659 0.0482372 0.618098 0.113086 0.0472659 0.617037 0.11231 0.0464498 0.615266 
0.111304 0.0458578 0.612659 0.110044 0.0455365 0.609127 0.108515 0.0455065 0.604616 
0.106711 0.0457618 0.599118 0.104633 0.0462715 0.592662 0.102291 0.0469841 0.585311 
0.0996995 0.0478328 0.577152 0.096876 0.0487426 0.568288 0.0938383 0.049637 0.558823 
0.0906016 0.0504444 0.54886 0.0871765 0.0511036 0.538485 0.0835672 0.0515671 0.527766 
0.0797703 0.0518032 0.516754 0.0757749 0.0517965 0.505475 0.0715632 0.0515465 0.493942 
0.0671122 0.0510654 0.482155 0.0623957 0.0503752 0.470107 0.0573872 0.0495051 0.457792 
0.0520619 0.0484884 0.445208 0.0463998 0.0473614 0.432359 0.0403873 0.0461615 0.419257 
0.0340189 0.0449271 0.405924 0.0272976 0.043698 0.392382 0.0202353 0.0425157 0.378653 
0.0128525 0.0414244 0.364753 0.00517689 0.0404702 0.350687 -0.00275702 0.0397015 0.336445 
-0.010909 0.0391673 0.321997 -0.0192335 0.0389148 0.307297 -0.0276798 0.0389869 0.292282 
-0.0361913 0.039419 0.27688 -0.0447048 0.0402352 0.261012 -0.0531494 0.041446 0.244602 
-0.0614454 0.0430462 0.227585 -0.0695038 0.0450137 0.209913 -0.0772262 0.0473102 0.191562 
-0.0845065 0.049883 0.172533 -0.0912333 0.0526686 0.152858 -0.0972938 0.0555961 0.132593 
-0.102579 0.0585927 0.111817 -0.106991 0.0615881 0.0906232 -0.110446 0.0645189 0.0691153 
-0.112886 0.0673322 0.0473963 -0.114278 0.0699875 0.025562 -0.114623 0.0724575 0.00369459 
-0.113956 0.0747276 -0.0181415 -0.112341 0.0767933 -0.0399017 -0.109873 0.0786572 -0.0615612 
-0.106669 0.0803256 -0.0831115 -0.102859 0.0818041 -0.104556 -0.0985768 0.0830942 -0.125904 
-0.0939506 0.0841909 -0.147165 -0.0890917 0.0850807 -0.16834 -0.0840879 0.0857409 -0.189419 
-0.0789971 0.086141 -0.210377 -0.073846 0.0862442 -0.23117 -0.0686306 0.0860103 -0.251742 
-0.0633219 0.0853987 -0.272019 -0.057873 0.0843719 -0.291921 -0.0522301 0.082899 -0.311366 
-0.0463433 0.0809575 -0.330271 -0.0401777 0.0785359 -0.348566 -0.0337234 0.0756345 -0.366193 
-0.0270021 0.072266 -0.383112 -0.0200705 0.0684547 -0.399303 -0.0130202 0.0642358 -0.414765 
-0.00597188 0.0596544 -0.429514 0.000932571 0.0547636 -0.44358 0.00754191 0.0496237 -0.457002 
0.0137087 0.0443005 -0.469823 0.0193026 0.038864 -0.482083 0.0242229 0.0333873 -0.493817 
0.0284075 0.027945 -0.505049 0.0318391 0.0226119 -0.515791 0.0345463 0.0174612 -0.526041 
0.0366 0.0125622 -0.535785 0.0381062 0.00797794 -0.544999 0.039194 0.00376276 -0.553652 
0.0400031 -4.0305e-05 -0.561708 0.0406687 -0.00340173 -0.569135 0.0413085 -0.00630714 -0.575904 
0.0420117 -0.00875818 -0.581992 0.0428314 -0.0107722 -0.587387 0.0437814 -0.0123811 -0.592088 
0.0448377 -0.0136282 -0.596103 0.0459447 -0.0145653 -0.599446 0.0470243 -0.0152479 -0.602138 
0.0479879 -0.01573 -0.604203 0.0487492 -0.01606 -0.605663 0.0492363 -0.0162758 -0.606535 
0.0494015 -0.0164011 -0.606832 
LINES 2 100
OFFSETS vtktypeint64
0 100 
CONNECTIVITY vtktypeint64
0 1 2 3 4 5 6 7 8 
9 10 11 12 13 14 15 16 17 
18 19 20 21 22 23 24 25 26 
27 28 29 30 31 32 33 34 35 
36 37 38 39 40 41 42 43 44 
45 46 47 48 49 50 51 52 53 
54 55 56 57 58 59 60 61 62 
63 64 65 66 67 68 69 70 71 
72 73 74 75 76 77 78 79 80 
81 82 83 84 85 86 87 88 89 
90 91 92 93 94 95 96 97 98 
99 
POINT_DATA 100
FIELD FieldData 3
_theta 1 100 double
0 0.031733259127 0.063466518254 0.095199777382 0.12693303651 0.15866629564 0.19039955476 0.22213281389 0.25386607302 
0.28559933214 0.31733259127 0.3490658504 0.38079910953 0.41253236865 0.44426562778 0.47599888691 0.50773214603 0.53946540516 
0.57119866429 0.60293192342 0.63466518254 0.66639844167 0.6981317008 0.72986495992 0.76159821905 0.79333147818 0.82506473731 
0.85679799643 0.88853125556 0.92026451469 0.95199777382 0.98373103294 1.0154642921 1.0471975512 1.0789308103 1.1106640695 
1.1423973286 1.1741305877 1.2058638468 1.237597106 1.2693303651 1.3010636242 1.3327968833 1.3645301425 1.3962634016 
1.4279966607 1.4597299198 1.491463179 1.5231964381 1.5549296972 1.5866629564 1.6183962155 1.6501294746 1.6818627337 
1.7135959929 1.745329252 1.7770625111 1.8087957702 1.8405290294 1.8722622885 1.9039955476 1.9357288068 1.9674620659 
1.999195325 2.0309285841 2.0626618433 2.0943951024 2.1261283615 2.1578616206 2.1895948798 2.2213281389 2.253061398 
2.2847946572 2.3165279163 2.3482611754 2.3799944345 2.4117276937 2.4434609528 2.4751942119 2.506927471 2.5386607302 
2.5703939893 2.6021272484 2.6338605076 2.6655937667 2.6973270258 2.7290602849 2.7607935441 2.7925268032 2.8242600623 
2.8559933214 2.8877265806 2.9194598397 2.9511930988 2.982926358 3.0146596171 3.0463928762 3.0781261353 3.1098593945 
3.1415926536 
_radius 1 100 double
8.9479451615e-16 0.014401655127 0.02861920344 0.042482273925 0.055851506751 0.06862943184 0.080766198592 0.092259342333 0.10314750204 
0.11349882652 0.12339561868 0.13291741234 0.14212497887 0.15104761807 0.15967553403 0.16795829459 0.1758095123 0.18311709595 
0.18975776696 0.19561405024 0.20059167299 0.20463526023 0.20774038026 0.20996030642 0.21140627011 0.21224048941 0.21266192789 
0.21288563999 0.21311768265 0.21352876068 0.21423068253 0.21525985407 0.21657104096 0.21804256957 0.21949178261 0.2206979199 
0.22142906909 0.22147003607 0.2206483441 0.21885587431 0.21606402806 0.21233085945 0.2077993822 0.20268707801 0.19726739303 
0.19184464806 0.18672436065 0.18218163529 0.17843119334 0.17560375134 0.17373414838 0.17276538202 0.17256841324 0.17297178779 
0.17379177317 0.17485518896 0.17601174898 0.17713734481 0.17813246565 0.17892041108 0.17944813298 0.1796893808 0.17964742408 
0.17935451279 0.17886688346 0.17825596568 0.17759754713 0.17696094184 0.17639992295 0.17594654329 0.1756081753 0.17536740202 
0.17518402601 0.17499850661 0.17473640035 0.17431355224 0.17364169008 0.17263381776 0.17120865676 0.16929354083 0.16682560664 
0.16375165208 0.16002741426 0.15561708453 0.15049359949 0.14463975383 0.13804969218 0.13073005497 0.12270008012 0.11399028684 
0.10463988522 0.094693588398 0.084198841051 0.073204435844 0.061761022082 0.04992326969 0.037752750459 0.025320252057 0.012706395432 
2.6650716997e-16 
_area 1 100 double
0 0.00053144496696 0.0020979941231 0.0046209185744 0.0079833535384 0.012048449151 0.016679130344 0.021755583702 0.027186894636 
0.032914177756 0.038904662353 0.045139257788 0.051598190893 0.058248681948 0.065036299237 0.071880024765 0.078671097338 0.085276409818 
0.091547322413 0.097333751893 0.10250185815 0.10695256384 0.11063807978 0.11357424027 0.11584693876 0.11761085331 0.11907843658 
0.1204977437 0.12211921329 0.12415289296 0.12672008287 0.12981272366 0.13328245469 0.13686561137 0.1402259544 0.14299902651 
0.14483683962 0.14545433842 0.14467160258 0.14244017312 0.1388449428 0.1340823681 0.1284249427 0.1221856352 0.11569173518 
0.10926768558 0.10321872193 0.097808404746 0.093231591875 0.089590242721 0.08688266552 0.08501664204 0.083842284958 0.083187997598 
0.082887852813 0.082796962586 0.082793072478 0.082764806731 0.082601643572 0.08220862979 0.081536430769 0.08059370501 0.079429818896 
0.078105097782 0.076676946524 0.075204006117 0.073748799231 0.072373519136 0.071134109744 0.070075544008 0.06922889511 0.068610397789 
0.06822222904 0.068053753726 0.06808152785 0.068266624912 0.068547735434 0.068832197877 0.068996911138 0.068903861562 0.068417607299 
0.067416772146 0.06580118673 0.063498040001 0.060469031698 0.056718048391 0.05229671921 0.047304975628 0.041885266335 0.036211008789 
0.030471324105 0.024854909172 0.019536002069 0.014664760451 0.010363140836 0.0067258690802 0.0038247015934 0.0017133164425 0.00043039468829 
1.9708311333e-17 
