# vtk DataFile Version 5.1
vtk output
ASCII
DATASET POLYDATA
POINTS 100 float
0.140346 0.0421275 0.625453 0.140426 0.0423592 0.625118 0.140715 0.0429122 0.624007 
0.14116 0.0437614 0.622197 0.141681 0.0448668 0.619807 0.142179 0.0461769 0.616975 
0.142542 0.0476324 0.613838 0.142666 0.0491709 0.610506 0.142455 0.0507309 0.607049 
0.141835 0.0522558 0.603475 0.140756 0.0536972 0.599736 0.139196 0.0550172 0.595725 
0.137155 0.0561886 0.591293 0.134652 0.0571948 0.586271 0.131717 0.0580282 0.580489 
0.128382 0.0586874 0.573809 0.124673 0.0591738 0.56614 0.120606 0.0594889 0.557458 
0.116181 0.0596306 0.547811 0.111385 0.0595914 0.537319 0.106193 0.0593571 0.526159 
0.100574 0.0589069 0.514547 0.0945014 0.0582155 0.502708 0.0879603 0.0572552 0.490855 
0.0809547 0.0560007 0.479158 0.0735134 0.054433 0.467726 0.065693 0.0525445 0.456595 
0.0575752 0.0503427 0.445723 0.0492621 0.0478533 0.435001 0.0408672 0.0451219 0.424269 
0.0325033 0.0422135 0.413335 0.0242711 0.0392102 0.402006 0.016247 0.0362068 0.390111 
0.00847399 0.0333053 0.37752 0.000955881 0.0306078 0.364164 -0.0063431 0.0282095 0.350035 
-0.0134941 0.0261916 0.335184 -0.0205943 0.0246156 0.319708 -0.0277533 0.0235191 0.303729 
-0.0350773 0.0229141 0.287373 -0.0426523 0.0227876 0.270743 -0.0505286 0.0231041 0.253905 
-0.0587083 0.0238112 0.236869 -0.0671381 0.0248458 0.219589 -0.0757074 0.0261421 0.201965 
-0.0842529 0.0276382 0.18386 -0.0925694 0.0292837 0.165119 -0.100425 0.0310436 0.145594 
-0.10758 0.0329017 0.125173 -0.113806 0.0348605 0.103795 -0.118909 0.0369383 0.0814734 
-0.122739 0.0391649 0.058296 -0.12521 0.0415746 0.0344255 -0.126298 0.0441985 0.0100848 
-0.126046 0.0470569 -0.0144647 -0.124555 0.0501524 -0.0389495 -0.121973 0.0534644 -0.0631123 
-0.118479 0.056947 -0.0867383 -0.114265 0.0605283 -0.109676 -0.109521 0.0641139 -0.131847 
-0.104413 0.0675923 -0.153251 -0.099076 0.0708429 -0.173957 -0.0936061 0.0737445 -0.194084 
-0.0880546 0.0761855 -0.21378 -0.0824331 0.0780722 -0.233195 -0.0767203 0.0793364 -0.252457 
-0.0708719 0.0799399 -0.271649 -0.0648336 0.0798775 -0.290798 -0.0585535 0.0791755 -0.309872 
-0.0519944 0.0778886 -0.32878 -0.0451423 0.0760938 -0.347393 -0.0380125 0.0738835 -0.365559 
-0.0306517 0.0713566 -0.383129 -0.0231356 0.0686112 -0.399981 -0.0155637 0.0657371 -0.416032 
-0.00805143 0.0628109 -0.43126 -0.000720453 0.0598923 -0.445694 0.00631133 0.0570241 -0.459417 
0.0129389 0.0542325 -0.472542 0.0190779 0.051531 -0.485196 0.0246695 0.048924 -0.497488 
0.0296832 0.0464121 -0.509493 0.0341163 0.0439958 -0.521223 0.0379913 0.0416795 -0.532625 
0.0413511 0.0394737 -0.543574 0.0442528 0.0373951 -0.553885 0.0467613 0.0354657 -0.563333 
0.0489427 0.0337102 -0.571682 0.0508586 0.0321526 -0.578718 0.0525613 0.0308126 -0.584279 
0.0540916 0.0297015 -0.588282 0.0554764 0.0288201 -0.590747 0.0567296 0.028157 -0.591799 
0.0578531 0.027689 -0.591662 0.0588396 0.0273829 -0.590643 0.0596752 0.027199 -0.589101 
0.060343 0.0270949 -0.587405 0.060826 0.0270311 -0.585902 0.0611103 0.0269751 -0.584869 
0.0611869 0.0269054 -0.584488 
LINES 2 100
OFFSETS vtktypeint64
0 100 
CONNECTIVITY vtktypeint64
0 1 2 3 4 5 6 7 8 
9 10 11 12 13 14 15 16 17 
18 19 20 21 22 23 24 25 26 
27 28 29 30 31 32 33 34 35 
36 37 38 39 40 41 42 43 44 
45 46 47 48 49 50 51 52 53 
54 55 56 57 58 59 60 61 62 
63 64 65 66 67 68 69 70 71 
72 73 74 75 76 77 78 79 80 
81 82 83 84 85 86 87 88 89 
90 91 92 93 94 95 96 97 98 
99 
POINT_DATA 100
FIELD FieldData 3
_theta 1 100 double
0 0.031733259127 0.063466518254 0.095199777382 0.12693303651 0.15866629564 0.19039955476 0.22213281389 0.25386607302 
0.28559933214 0.31733259127 0.3490658504 0.38079910953 0.41253236865 0.44426562778 0.47599888691 0.50773214603 0.53946540516 
0.57119866429 0.60293192342 0.63466518254 0.66639844167 0.6981317008 0.72986495992 0.76159821905 0.79333147818 0.82506473731 
0.85679799643 0.88853125556 0.92026451469 0.95199777382 0.98373103294 1.0154642921 1.0471975512 1.0789308103 1.1106640695 
1.1423973286 1.1741305877 1.2058638468 1.237597106 1.2693303651 1.3010636242 1.3327968833 1.3645301425 1.3962634016 
1.4279966607 1.4597299198 1.491463179 1.5231964381 1.5549296972 1.5866629564 1.6183962155 1.6501294746 1.6818627337 
1.7135959929 1.745329252 1.7770625111 1.8087957702 1.8405290294 1.8722622885 1.9039955476 1.9357288068 1.9674620659 
1.999195325 2.0309285841 2.0626618433 2.0943951024 2.1261283615 2.1578616206 2.1895948798 2.2213281389 2.253061398 
2.2847946572 2.3165279163 2.3482611754 2.3799944345 2.4117276937 2.4434609528 2.4751942119 2.506927471 2.5386607302 
2.5703939893 2.6021272484 2.6338605076 2.6655937667 2.6973270258 2.7290602849 2.7607935441 2.7925268032 2.8242600623 
2.8559933214 2.8877265806 2.9194598397 2.9511930988 2.982926358 3.0146596171 3.0463928762 3.0781261353 3.1098593945 
3.1415926536 
_radius 1 100 double
1.3323399077e-15 0.013163094147 0.026326724871 0.039478980122 0.052593789723 0.065625869427 0.078508053686 0.091151935466 0.10345226739 
0.11529483599 0.12656676588 0.13716768701 0.14702002948 0.15607689411 0.16432640333 0.17179204296 0.1785291275 0.18461804189 
0.19015526256 0.19524332451 0.19998089671 0.20445397997 0.20872898866 0.21284817873 0.21682761428 0.22065766154 0.22430584289 
0.22772171894 0.23084325926 0.23360393458 0.2359395911 0.23779414444 0.23912332061 0.239896067 0.24009376441 0.23970785724 
0.23873686097 0.23718384305 0.23505539371 0.23236281293 0.22912574734 0.22537786527 0.22117349026 0.21659361626 0.21174956197 
0.20678272579 0.20185939449 0.19716024896 0.19286511142 0.18913467756 0.18609238893 0.18381067152 0.18230549852 0.18154088566 
0.18144109501 0.18190516873 0.18281815346 0.1840563587 0.18548838011 0.18697661759 0.18838363449 0.18958429357 0.19048079095 
0.19101599768 0.19118124485 0.1910165726 0.19060331495 0.19005030761 0.18947602998 0.1889896441 0.18867403134 0.18857339659 
0.18868686406 0.18896807657 0.18932967229 0.18965108624 0.18978841818 0.18958564887 0.18888669815 0.18754752874 0.18544700779 
0.18249497228 0.17863615281 0.17384929145 0.16814177348 0.16154111428 0.15408540668 0.14581507615 0.13676787961 0.12697808979 
0.11647951736 0.10531085008 0.093521113154 0.08117309394 0.068343307864 0.055118286103 0.041588278761 0.027840481864 0.013954230315 
1.0517268986e-15 
_area 1 100 double
0 0.00045455606394 0.0018209284413 0.0041044648163 0.0073054686563 0.01140832454 0.016370080625 0.022111646135 0.028514609451 
0.035425618012 0.0426683231 0.050060576144 0.057432743436 0.064642596522 0.07158366361 0.078186666914 0.084416291169 0.090266562921 
0.095757203891 0.10093142768 0.10585410407 0.11060859911 0.11529061251 0.1199974882 0.12481183334 0.12977988368 0.13488927381 
0.14005594306 0.14512928218 0.14991601161 0.15421426774 0.15784646527 0.16068208261 0.16264647232 0.16371643164 0.16390605415 
0.16324730633 0.16177015355 0.15948843257 0.15639877356 0.15249610676 0.1478004051 0.14238304976 0.13638238642 0.13000349794 
0.12350283279 0.11716264174 0.11126286989 0.10605813493 0.1017603653 0.098505336471 0.096272719649 0.094842719128 0.093912877638 
0.093245495655 0.092716569973 0.092297760052 0.092013809076 0.091891942086 0.091917041289 0.092010894208 0.092046223443 0.091885518595 
0.09141903903 0.090584094183 0.0893689004 0.087813809778 0.086014431949 0.084120283745 0.082322269635 0.080827324198 0.079820683771 
0.079423170126 0.079681589548 0.080543810531 0.08183337879 0.083290543086 0.084644579555 0.085645668358 0.086075683987 0.085758468957 
0.084568839168 0.08243738241 0.079349364144 0.075337522725 0.070471142928 0.064846360974 0.058582113068 0.051822236391 0.044740012171 
0.037539723237 0.030451037715 0.023714923837 0.017562801984 0.012192936211 0.0077495975256 0.0043112773061 0.0018935771769 0.00046912940428 
2.598944235e-17 
