# vtk DataFile Version 5.1
vtk output
ASCII
DATASET POLYDATA
POINTS 100 float
0.0708751 0.0391473 0.627069 0.0709816 0.039448 0.626953 0.0713368 0.0401881 0.626438 
0.0719064 0.0413003 0.625511 0.0726363 0.0426812 0.624152 0.0734583 0.0442035 0.622333 
0.0742951 0.0457311 0.62002 0.0750671 0.047134 0.617177 0.0756987 0.0483026 0.613764 
0.0761234 0.0491585 0.609745 0.0762886 0.0496605 0.605089 0.0761574 0.0498063 0.599773 
0.0757097 0.049628 0.593787 0.0749406 0.0491839 0.587139 0.0738578 0.0485472 0.579851 
0.0724774 0.0477927 0.571965 0.0708194 0.0469854 0.563538 0.0689026 0.04617 0.554643 
0.0667411 0.0453652 0.545357 0.0643406 0.0445622 0.535763 0.0616975 0.0437278 0.525936 
0.0587985 0.0428118 0.515942 0.0556224 0.0417578 0.505826 0.0521435 0.0405143 0.495613 
0.0483351 0.0390468 0.485303 0.0441745 0.0373465 0.474869 0.0396469 0.0354364 0.464264 
0.034749 0.0333726 0.453425 0.0294913 0.0312404 0.442277 0.0238985 0.0291468 0.430747 
0.0180087 0.0272098 0.418766 0.0118706 0.0255454 0.406278 0.00553899 0.024255 0.393251 
-0.000929219 0.0234151 0.379672 -0.00748064 0.0230693 0.365552 -0.0140696 0.0232261 0.350923 
-0.0206615 0.0238596 0.335831 -0.0272343 0.0249165 0.320332 -0.0337782 0.0263254 0.304481 
-0.0402932 0.0280083 0.288327 -0.0467847 0.0298931 0.271902 -0.0532575 0.0319235 0.255222 
-0.0597094 0.0340668 0.238282 -0.0661249 0.0363171 0.221057 -0.0724693 0.0386934 0.203504 
-0.078685 0.0412343 0.185575 -0.08469 0.0439877 0.167217 -0.0903794 0.0469994 0.148384 
-0.0956293 0.0503005 0.129045 -0.100304 0.0538966 0.109188 -0.104264 0.0577597 0.0888259 
-0.107377 0.0618251 0.0679948 -0.109529 0.0659932 0.046754 -0.110632 0.0701355 0.0251802 
-0.110632 0.0741067 0.00336062 -0.109515 0.0777578 -0.0186142 -0.107306 0.0809517 -0.0406583 
-0.104072 0.0835777 -0.0626968 -0.0999094 0.0855625 -0.0846705 -0.09494 0.0868782 -0.106537 
-0.0892999 0.0875434 -0.128272 -0.0831271 0.0876197 -0.14986 -0.076551 0.0872032 -0.171298 
-0.0696823 0.0864106 -0.192578 -0.062606 0.0853646 -0.213688 -0.0553777 0.0841779 -0.234602 
-0.0480231 0.0829392 -0.255276 -0.0405416 0.0817027 -0.275649 -0.032913 0.0804825 -0.295639 
-0.0251064 0.0792525 -0.315155 -0.0170902 0.0779516 -0.334095 -0.00884303 0.0764938 -0.352359 
-0.000362233 0.0747817 -0.369859 0.0083291 0.072721 -0.386523 0.0171785 0.0702351 -0.402302 
0.0261043 0.0672769 -0.417176 0.0349987 0.0638371 -0.431151 0.0437354 0.0599473 -0.444258 
0.0521782 0.0556784 -0.456549 0.0601923 0.0511334 -0.468085 0.0676546 0.0464378 -0.478931 
0.0744644 0.0417263 -0.489146 0.0805508 0.0371295 -0.498773 0.0858773 0.0327622 -0.507838 
0.0904439 0.0287136 -0.516348 0.0942845 0.0250416 -0.524286 0.0974618 0.0217711 -0.531622 
0.10006 0.018897 -0.538318 0.102173 0.0163897 -0.544331 0.1039 0.0142043 -0.549631 
0.105331 0.0122894 -0.554199 0.106543 0.0105963 -0.558038 0.107591 0.00908645 -0.561176 
0.108514 0.00773611 -0.563661 0.109324 0.00653776 -0.565562 0.110023 0.00549867 -0.566961 
0.110594 0.00463695 -0.567941 0.11102 0.00397586 -0.56858 0.111281 0.00353776 -0.568943 
0.111363 0.00333868 -0.569068 
LINES 2 100
OFFSETS vtktypeint64
0 100 
CONNECTIVITY vtktypeint64
0 1 2 3 4 5 6 7 8 
9 10 11 12 13 14 15 16 17 
18 19 20 21 22 23 24 25 26 
27 28 29 30 31 32 33 34 35 
36 37 38 39 40 41 42 43 44 
45 46 47 48 49 50 51 52 53 
54 55 56 57 58 59 60 61 62 
63 64 65 66 67 68 69 70 71 
72 73 74 75 76 77 78 79 80 
81 82 83 84 85 86 87 88 89 
90 91 92 93 94 95 96 97 98 
99 
POINT_DATA 100
FIELD FieldData 3
_theta 1 100 double
0 0.031733259127 0.063466518254 0.095199777382 0.12693303651 0.15866629564 0.19039955476 0.22213281389 0.25386607302 
0.28559933214 0.31733259127 0.3490658504 0.38079910953 0.41253236865 0.44426562778 0.47599888691 0.50773214603 0.53946540516 
0.57119866429 0.60293192342 0.63466518254 0.66639844167 0.6981317008 0.72986495992 0.76159821905 0.79333147818 0.82506473731 
0.85679799643 0.88853125556 0.92026451469 0.95199777382 0.98373103294 1.0154642921 1.0471975512 1.0789308103 1.1106640695 
1.1423973286 1.1741305877 1.2058638468 1.237597106 1.2693303651 1.3010636242 1.3327968833 1.3645301425 1.3962634016 
1.4279966607 1.4597299198 1.491463179 1.5231964381 1.5549296972 1.5866629564 1.6183962155 1.6501294746 1.6818627337 
1.7135959929 1.745329252 1.7770625111 1.8087957702 1.8405290294 1.8722622885 1.9039955476 1.9357288068 1.9674620659 
1.999195325 2.0309285841 2.0626618433 2.0943951024 2.1261283615 2.1578616206 2.1895948798 2.2213281389 2.253061398 
2.2847946572 2.3165279163 2.3482611754 2.3799944345 2.4117276937 2.4434609528 2.4751942119 2.506927471 2.5386607302 
2.5703939893 2.6021272484 2.6338605076 2.6655937667 2.6973270258 2.7290602849 2.7607935441 2.7925268032 2.8242600623 
2.8559933214 2.8877265806 2.9194598397 2.9511930988 2.982926358 3.0146596171 3.0463928762 3.0781261353 3.1098593945 
3.1415926536 
_radius 1 100 double
1.3352278268e-15 0.013125152981 0.026262749443 0.039408426646 0.052541370314 0.065620553675 0.078584873601 0.091357028578 0.10385031852 
0.11597714538 0.1276578722 0.13882879467 0.14944820679 0.15949982434 0.16899311813 0.17796039314 0.18645075577 0.19452148612 
0.20222778692 0.20961234983 0.21669650327 0.22347468962 0.22991353531 0.23595587482 0.2415290166 0.24655563661 0.25096522096 
0.25470403404 0.25774206828 0.26007614643 0.26172909453 0.26274551382 0.26318504979 0.26311418087 0.26259751763 0.26168955074 
0.26042779411 0.2588283119 0.25688457614 0.25457034417 0.25184671406 0.24867276674 0.24501839975 0.24087730653 0.23627774429 
0.23128886881 0.22602101721 0.22061933078 0.21525139714 0.21009090999 0.20530031807 0.20101564088 0.1973358646 0.19431787065 
0.19197635701 0.19028729101 0.18919325869 0.18860947867 0.18842999702 0.18853444323 0.1887963208 0.18909362239 0.18932140529 
0.18940439747 0.18930676082 0.18903644842 0.1886429019 0.18820838956 0.18783447003 0.18762565726 0.18767244655 0.1880356736 
0.18873396713 0.18973589797 0.19095808394 0.19226963559 0.19350205179 0.1944626806 0.19494964876 0.19476654905 0.1937356696 
0.19170888865 0.18857556971 0.18426700032 0.1787572005 0.17206027969 0.16422488553 0.15532659692 0.14545930467 0.13472665762 
0.12323452011 0.11108512379 0.098373276638 0.085184690952 0.071596242185 0.057677750385 0.043494661231 0.029110838104 0.014590675073 
4.8098020905e-16 
_area 1 100 double
0 0.00048420590477 0.0019340786692 0.0043392094586 0.0076759542645 0.011900923692 0.016946480174 0.022720453992 0.029110654224 
0.035992945025 0.043240505238 0.050731941705 0.05835719142 0.066021943898 0.07365235023 0.081200897132 0.088651793439 0.096022023374 
0.10335431764 0.11070090976 0.11810083897 0.12555710201 0.13302147143 0.14039299558 0.14753154698 0.15428272357 0.16050717701 
0.16610649103 0.1710381922 0.17531375191 0.17897728641 0.18207189149 0.18461087525 0.18656958372 0.18789764824 0.18853832758 
0.18844247815 0.18757286418 0.18590118936 0.18340329938 0.18005830766 0.17585533663 0.1708075005 0.16496842588 0.1584445535 
0.15139773294 0.14403609379 0.136595122 0.12931405284 0.12241398012 0.11608230845 0.11046387405 0.10565650841 0.10172039037 
0.098731131653 0.096476325452 0.094712148672 0.093263247322 0.091997142428 0.090782883482 0.089541781264 0.088244097021 0.086889601909 
0.085490165401 0.084060024636 0.082620305018 0.081210779076 0.079896612958 0.078761977515 0.077892553376 0.077362655808 0.077232801461 
0.077545387729 0.078312704034 0.079501936717 0.081023652203 0.082728329178 0.084413370272 0.085839811442 0.086754766704 0.086915793306 
0.086115259469 0.08420316282 0.081105729235 0.07683629266 0.071495586303 0.065260660023 0.0583643092 0.051069102417 0.043641127735 
0.03632820847 0.029345706293 0.022870618283 0.017042360758 0.011967394895 0.0077250663245 0.0043731057712 0.0019521850458 0.00048931396274 
2.8245266422e-17 
