# vtk DataFile Version 5.1
vtk output
ASCII
DATASET POLYDATA
POINTS 100 float
0.111698 0.064563 0.761226 0.111612 0.0646618 0.760921 0.111415 0.06478 0.759834 
0.111116 0.0649131 0.757979 0.110729 0.0650544 0.755383 0.110272 0.0651948 0.752075 
0.109767 0.0653229 0.748087 0.109235 0.0654257 0.743444 0.108694 0.065489 0.738167 
0.108159 0.0654986 0.732261 0.107638 0.0654418 0.725726 0.107128 0.0653083 0.718547 
0.106616 0.0650924 0.710707 0.106074 0.0647933 0.702186 0.105462 0.0644163 0.692968 
0.104724 0.0639721 0.683048 0.103794 0.0634763 0.672435 0.102597 0.0629469 0.661155 
0.101051 0.0624023 0.64925 0.0990775 0.0618579 0.636779 0.0965993 0.0613229 0.623814 
0.0935523 0.0607982 0.610432 0.089888 0.0602739 0.596709 0.0855787 0.0597291 0.582713 
0.0806204 0.059133 0.568503 0.0750342 0.058447 0.554114 0.0688655 0.0576295 0.539566 
0.062182 0.0566405 0.524858 0.0550683 0.0554482 0.509972 0.0476205 0.0540343 0.494878 
0.0399393 0.0523995 0.479542 0.0321219 0.0505671 0.463926 0.0242559 0.0485841 0.448003 
0.0164133 0.0465208 0.431752 0.00864622 0.0444669 0.415164 0.000985983 0.0425259 0.39824 
-0.00655643 0.0408067 0.380988 -0.0139866 0.0394155 0.363419 -0.0213211 0.0384462 0.345535 
-0.0285794 0.0379719 0.327329 -0.0357764 0.0380387 0.308772 -0.042913 0.0386613 0.289815 
-0.0499694 0.039822 0.270385 -0.0568995 0.041473 0.25039 -0.0636277 0.0435408 0.229722 
-0.0700502 0.0459345 0.208269 -0.0760379 0.0485542 0.185926 -0.0814445 0.0513011 0.162607 
-0.0861155 0.0540862 0.138259 -0.0899008 0.0568382 0.112871 -0.0926667 0.0595078 0.0864811 
-0.0943084 0.0620707 0.0591805 -0.0947603 0.0645255 0.0311102 -0.0940039 0.0668902 0.00245493 
-0.0920716 0.0691951 -0.0265683 -0.0890466 0.0714749 -0.0557244 -0.0850582 0.0737601 -0.0847766 
-0.0802731 0.0760681 -0.113503 -0.0748827 0.0783974 -0.141711 -0.0690892 0.0807224 -0.169249 
-0.0630893 0.0829928 -0.196017 -0.0570592 0.0851345 -0.221964 -0.0511409 0.0870544 -0.247091 
-0.0454319 0.088647 -0.271443 -0.0399786 0.0898027 -0.295096 -0.0347744 0.0904165 -0.318147 
-0.029763 0.0903964 -0.340699 -0.024846 0.0896707 -0.36285 -0.0198935 0.0881928 -0.384675 
-0.0147586 0.0859442 -0.406228 -0.0092926 0.0829347 -0.427527 -0.00335966 0.0792002 -0.44856 
0.00314914 0.0747992 -0.469287 0.0103051 0.0698071 -0.489643 0.0181346 0.0643113 -0.509545 
0.0266161 0.0584057 -0.528907 0.0356812 0.0521859 -0.547641 0.0452203 0.0457461 -0.56567 
0.0550905 0.0391768 -0.582931 0.0651271 0.0325644 -0.599375 0.0751553 0.0259909 -0.614976 
0.0850025 0.0195349 -0.62972 0.0945096 0.0132721 -0.64361 0.103539 0.00727574 -0.656657 
0.111984 0.00161578 -0.668877 0.119766 -0.00364243 -0.680288 0.126841 -0.00844075 -0.690905 
0.133194 -0.0127314 -0.700739 0.138836 -0.0164806 -0.709794 0.143797 -0.0196713 -0.718073 
0.148116 -0.0223063 -0.725571 0.151844 -0.0244084 -0.732283 0.155027 -0.0260205 -0.738203 
0.15771 -0.0272021 -0.743327 0.15993 -0.0280253 -0.747653 0.161718 -0.0285687 -0.75118 
0.163092 -0.0289101 -0.753911 0.164069 -0.0291198 -0.755849 0.164656 -0.0292534 -0.756997 
0.164858 -0.0293463 -0.75736 
LINES 2 100
OFFSETS vtktypeint64
0 100 
CONNECTIVITY vtktypeint64
0 1 2 3 4 5 6 7 8 
9 10 11 12 13 14 15 16 17 
18 19 20 21 22 23 24 25 26 
27 28 29 30 31 32 33 34 35 
36 37 38 39 40 41 42 43 44 
45 46 47 48 49 50 51 52 53 
54 55 56 57 58 59 60 61 62 
63 64 65 66 67 68 69 70 71 
72 73 74 75 76 77 78 79 80 
81 82 83 84 85 86 87 88 89 
90 91 92 93 94 95 96 97 98 
99 
POINT_DATA 100
FIELD FieldData 3
_theta 1 100 double
0 0.031733259127 0.063466518254 0.095199777382 0.12693303651 0.15866629564 0.19039955476 0.22213281389 0.25386607302 
0.28559933214 0.31733259127 0.3490658504 0.38079910953 0.41253236865 0.44426562778 0.47599888691 0.50773214603 0.53946540516 
0.57119866429 0.60293192342 0.63466518254 0.66639844167 0.6981317008 0.72986495992 0.76159821905 0.79333147818 0.82506473731 
0.85679799643 0.88853125556 0.92026451469 0.95199777382 0.98373103294 1.0154642921 1.0471975512 1.0789308103 1.1106640695 
1.1423973286 1.1741305877 1.2058638468 1.237597106 1.2693303651 1.3010636242 1.3327968833 1.3645301425 1.3962634016 
1.4279966607 1.4597299198 1.491463179 1.5231964381 1.5549296972 1.5866629564 1.6183962155 1.6501294746 1.6818627337 
1.7135959929 1.745329252 1.7770625111 1.8087957702 1.8405290294 1.8722622885 1.9039955476 1.9357288068 1.9674620659 
1.999195325 2.0309285841 2.0626618433 2.0943951024 2.1261283615 2.1578616206 2.1895948798 2.2213281389 2.253061398 
2.2847946572 2.3165279163 2.3482611754 2.3799944345 2.4117276937 2.4434609528 2.4751942119 2.506927471 2.5386607302 
2.5703939893 2.6021272484 2.6338605076 2.6655937667 2.6973270258 2.7290602849 2.7607935441 2.7925268032 2.8242600623 
2.8559933214 2.8877265806 2.9194598397 2.9511930988 2.982926358 3.0146596171 3.0463928762 3.0781261353 3.1098593945 
3.1415926536 
_radius 1 100 double
4.4969172125e-16 0.014975190823 0.02985263182 0.044531104326 0.058914796905 0.072916871037 0.086463182547 0.099495612448 0.11197429789 
0.12387809993 0.13520292229 0.14595796647 0.15616055456 0.16583056803 0.17498561995 0.18363773101 0.191791693 0.1994447961 
0.20658740879 0.21320405773 0.21927499339 0.22477849922 0.22969420714 0.23400737606 0.23771360904 0.24082307191 0.24336314961 
0.24537871292 0.24692967567 0.24808609475 0.24892148877 0.24950521498 0.2498946903 0.250128125 0.25021841092 0.25014891967 
0.24987213155 0.24931204547 0.24837103191 0.24694110849 0.24491864916 0.24222057543 0.23879948759 0.23465523074 0.22984105214 
0.22446355069 0.21867670733 0.21267114298 0.20666025592 0.20086504606 0.19549927821 0.19075615558 0.18679688504 0.18374066005 
0.18165519836 0.18054755372 0.1803565146 0.18094986442 0.18213076554 0.18365595434 0.18526405094 0.18670763581 0.18778132749 
0.1883405222 0.18830916064 0.18767753835 0.18649259924 0.18484403461 0.18284962277 0.18064195564 0.17835682538 0.17612268662 
0.17405102628 0.17222819411 0.17070946093 0.16951564679 0.16863196128 0.16800823111 0.16755980279 0.16716908617 0.16668856642 
0.16594658948 0.164756885 0.16293163571 0.16029644657 0.1567045228 0.15204720827 0.14625879582 0.13931490815 0.13122535979 
0.12202383479 0.11175755898 0.10048009454 0.088249351702 0.075131151338 0.061206752779 0.046581350363 0.031390128402 0.015799162844 
1.0309976803e-15 
_area 1 100 double
0 0.00063259744276 0.0025037214463 0.0055366082125 0.0096134059278 0.014588134996 0.020301489218 0.026595826313 0.033329321107 
0.040388179819 0.047694555497 0.055206274976 0.062905523461 0.070779282732 0.07880037838 0.086917023076 0.095052117357 0.1031093101 
0.11098291013 0.11856974685 0.12578110587 0.1325524832 0.13884909691 0.14466600752 0.15002256272 0.15495152767 0.15948541949 
0.16364667276 0.16744886842 0.17090762275 0.17404721728 0.17688879921 0.1794286312 0.18163020877 0.18343040107 0.1847430675 
0.18545554746 0.18552029978 0.18483029795 0.1830692381 0.180189862 0.17645689164 0.17203301436 0.16652622654 0.16006987751 
0.15290115279 0.14528606239 0.13749235175 0.12978025253 0.12239833149 0.11557065679 0.10947291146 0.10421386363 0.099835465834 
0.096318755502 0.093605200132 0.091620485615 0.090278168679 0.089467842557 0.088987102421 0.088624130752 0.088202412197 0.087582127093 
0.086683271501 0.085493560729 0.084056554983 0.082452577603 0.080764309641 0.079050517957 0.077357387051 0.075738079188 0.074247421922 
0.07292478419 0.071778055709 0.070789968794 0.06994330715 0.069241063164 0.068710946864 0.06839357065 0.068377667459 0.068513201286 
0.068500883765 0.068117992522 0.06715123749 0.06541062539 0.062762993921 0.059158260664 0.054639325976 0.04933462086 0.043437836835 
0.037181910472 0.030813992961 0.024575853529 0.018691234673 0.013359272242 0.0087518641012 0.0050127787125 0.0022568728637 0.00056861625135 
3.6309271023e-17 
