# vtk DataFile Version 5.1
vtk output
ASCII
DATASET POLYDATA
POINTS 100 float
0.123886 0.0468226 0.628301 0.124041 0.0471308 0.628317 0.124587 0.0478639 0.628202 
0.12546 0.0489562 0.627913 0.126558 0.050309 0.627389 0.127754 0.0518016 0.626545 
0.128906 0.0533056 0.625284 0.129872 0.0546991 0.623498 0.130523 0.0558798 0.62108 
0.130752 0.056775 0.617924 0.130484 0.0573469 0.613939 0.129679 0.0575936 0.609051 
0.128327 0.0575451 0.603211 0.126448 0.0572551 0.596397 0.124084 0.05679 0.588617 
0.121284 0.0562174 0.579908 0.1181 0.0555946 0.570338 0.114572 0.0549602 0.559996 
0.110725 0.0543289 0.548989 0.106565 0.0536902 0.537435 0.102074 0.0530131 0.525456 
0.097217 0.0522524 0.513168 0.0919482 0.0513596 0.500673 0.086217 0.0502935 0.488057 
0.0799788 0.0490309 0.475383 0.073203 0.0475743 0.462689 0.0658808 0.0459569 0.44999 
0.0580292 0.0442419 0.437277 0.0496926 0.0425186 0.424523 0.0409404 0.0408935 0.411687 
0.0318624 0.0394791 0.398718 0.0225605 0.0383805 0.385561 0.0131407 0.0376839 0.372158 
0.00370337 0.0374454 0.358456 -0.00566382 0.0376851 0.344403 -0.0148917 0.0383847 0.329951 
-0.0239322 0.0394904 0.315057 -0.0327574 0.04092 0.299678 -0.0413554 0.042574 0.283774 
-0.0497243 0.0443483 0.267305 -0.0578635 0.0461471 0.250232 -0.0657652 0.047895 0.232517 
-0.0734067 0.0495449 0.214132 -0.0807448 0.0510822 0.195053 -0.0877128 0.0525245 0.175274 
-0.0942213 0.053916 0.154803 -0.100163 0.0553185 0.133673 -0.10542 0.0567995 0.111936 
-0.109874 0.0584204 0.0896703 -0.113419 0.0602242 0.0669736 -0.11597 0.0622274 0.0439599 
-0.117474 0.0644148 0.0207529 -0.117919 0.066739 -0.00252222 -0.117335 0.0691251 -0.0257472 
-0.115794 0.0714789 -0.0488189 -0.113405 0.0736978 -0.0716553 -0.110305 0.0756832 -0.0942009 
-0.106649 0.0773523 -0.116427 -0.102595 0.0786474 -0.138331 -0.0982918 0.0795419 -0.159931 
-0.0938666 0.0800414 -0.181257 -0.0894161 0.080181 -0.202346 -0.0850004 0.0800172 -0.22323 
-0.0806409 0.0796184 -0.243926 -0.0763235 0.0790522 -0.264433 -0.0720041 0.0783743 -0.284726 
-0.0676187 0.0776184 -0.304756 -0.0630942 0.0767906 -0.324454 -0.0583606 0.0758668 -0.343738 
-0.0533621 0.0747961 -0.362521 -0.0480665 0.0735078 -0.38072 -0.0424716 0.0719223 -0.398267 
-0.0366078 0.0699634 -0.415116 -0.0305379 0.0675715 -0.431251 -0.0243521 0.0647142 -0.446684 
-0.0181609 0.0613947 -0.46145 -0.0120858 0.0576549 -0.475607 -0.00624871 0.0535743 -0.48922 
-0.000761761 0.0492637 -0.502349 0.00428191 0.0448546 -0.51504 0.00881518 0.0404867 -0.527311 
0.0128013 0.0362936 -0.539142 0.0162352 0.0323899 -0.550477 0.0191416 0.0288606 -0.56122 
0.0215708 0.0257542 -0.571244 0.0235922 0.0230811 -0.580404 0.0252859 0.0208157 -0.588553 
0.0267348 0.018904 -0.595556 0.0280164 0.0172739 -0.601315 0.0291959 0.0158465 -0.60578 
0.030321 0.0145486 -0.608959 0.0314195 0.0133227 -0.610929 0.0324982 0.0121343 -0.611832 
0.0335447 0.0109749 -0.611863 0.0345313 0.00986129 -0.611263 0.0354201 0.00883064 -0.610291 
0.0361686 0.00793259 -0.609204 0.0367361 0.0072198 -0.608235 0.037089 0.00673838 -0.607567 
0.0372055 0.00651968 -0.607317 
LINES 2 100
OFFSETS vtktypeint64
0 100 
CONNECTIVITY vtktypeint64
0 1 2 3 4 5 6 7 8 
9 10 11 12 13 14 15 16 17 
18 19 20 21 22 23 24 25 26 
27 28 29 30 31 32 33 34 35 
36 37 38 39 40 41 42 43 44 
45 46 47 48 49 50 51 52 53 
54 55 56 57 58 59 60 61 62 
63 64 65 66 67 68 69 70 71 
72 73 74 75 76 77 78 79 80 
81 82 83 84 85 86 87 88 89 
90 91 92 93 94 95 96 97 98 
99 
POINT_DATA 100
FIELD FieldData 3
_theta 1 100 double
0 0.031733259127 0.063466518254 0.095199777382 0.12693303651 0.15866629564 0.19039955476 0.22213281389 0.25386607302 
0.28559933214 0.31733259127 0.3490658504 0.38079910953 0.41253236865 0.44426562778 0.47599888691 0.50773214603 0.53946540516 
0.57119866429 0.60293192342 0.63466518254 0.66639844167 0.6981317008 0.72986495992 0.76159821905 0.79333147818 0.82506473731 
0.85679799643 0.88853125556 0.92026451469 0.95199777382 0.98373103294 1.0154642921 1.0471975512 1.0789308103 1.1106640695 
1.1423973286 1.1741305877 1.2058638468 1.237597106 1.2693303651 1.3010636242 1.3327968833 1.3645301425 1.3962634016 
1.4279966607 1.4597299198 1.491463179 1.5231964381 1.5549296972 1.5866629564 1.6183962155 1.6501294746 1.6818627337 
1.7135959929 1.745329252 1.7770625111 1.8087957702 1.8405290294 1.8722622885 1.9039955476 1.9357288068 1.9674620659 
1.999195325 2.0309285841 2.0626618433 2.0943951024 2.1261283615 2.1578616206 2.1895948798 2.2213281389 2.253061398 
2.2847946572 2.3165279163 2.3482611754 2.3799944345 2.4117276937 2.4434609528 2.4751942119 2.506927471 2.5386607302 
2.5703939893 2.6021272484 2.6338605076 2.6655937667 2.6973270258 2.7290602849 2.7607935441 2.7925268032 2.8242600623 
2.8559933214 2.8877265806 2.9194598397 2.9511930988 2.982926358 3.0146596171 3.0463928762 3.0781261353 3.1098593945 
3.1415926536 
_radius 1 100 double
6.7749336085e-16 0.014022579768 0.027851614059 0.041308128925 0.054246906318 0.066566115848 0.078210282713 0.089167001572 0.099458557896 
0.10912997826 0.11823524091 0.1268235076 0.13492723172 0.14255381776 0.14968215151 0.1562647712 0.16223568009 0.1675228683 
0.17206370693 0.17582073832 0.17879515948 0.18103551332 0.18263974378 0.18374979917 0.18453924609 0.18519557375 0.18589962173 
0.18680462957 0.18801699195 0.18958043987 0.19146545022 0.19356603954 0.1957060478 0.19765593963 0.19915909791 0.19996435302 
0.19986000107 0.19870421985 0.19644740836 0.1931431753 0.18894621509 0.1840970238 0.17889525242 0.17366534568 0.16871971448 
0.16432558982 0.16068122732 0.15790471043 0.15603476018 0.1550397636 0.15483061709 0.1552746111 0.15620951911 0.15745807761 
0.15884322334 0.16020401711 0.1614110728 0.1623789418 0.16307240493 0.16350472762 0.16372811725 0.16381869973 0.16385946494 
0.16392461308 0.16406780192 0.1643154369 0.16466493632 0.16508724023 0.16553268633 0.16593936952 0.16624293284 0.16638648605 
0.16632923743 0.16605246528 0.16556153329 0.16488283291 0.16405509529 0.16311568959 0.16208417663 0.1609468727 0.15964660261 
0.15808070341 0.15610810232 0.15356396814 0.15027888252 0.14609895331 0.14090360004 0.13461854749 0.12722258487 0.11874769227 
0.1092730854 0.098914503233 0.087810593297 0.076108484551 0.063950554441 0.051464025772 0.038754456784 0.025903538321 0.012971006591 
1.1179882821e-15 
_area 1 100 double
0 0.00047627436951 0.0018909928121 0.0042009986621 0.0073326965384 0.011183121875 0.015626608827 0.020527740436 0.025757594222 
0.031207916077 0.03679809699 0.042472371925 0.048188287534 0.053900725268 0.059547363853 0.065040910357 0.070271168286 0.075117012111 
0.079465479593 0.083233090491 0.086383653059 0.088937644946 0.090970849081 0.09260361688 0.093985214616 0.095278207826 0.096645279742 
0.098237149582 0.10017809892 0.10254644196 0.10535071176 0.10850688419 0.11182527356 0.11501554694 0.11771426851 0.11953331225 
0.12012162829 0.1192285455 0.11675490625 0.11277989228 0.10755666133 0.10147732475 0.095014750251 0.088653467188 0.082824827272 
0.077861799193 0.073974176814 0.071208064552 0.069407350145 0.068390020556 0.067838165552 0.067504033397 0.067191542032 0.066803089563 
0.066361410389 0.065961958432 0.065720800346 0.065568224696 0.065344239794 0.064960035786 0.064382154118 0.063622669106 0.0627268657 
0.061761570284 0.060800010316 0.059899849102 0.059091906341 0.058393924943 0.057826208714 0.057410679488 0.057160003405 0.057067441803 
0.057106669736 0.057253678963 0.057518284705 0.057957677355 0.05865041518 0.059627483364 0.060826015525 0.062109487548 0.063296386645 
0.064171950532 0.064502296753 0.064059161949 0.062651763845 0.060158703771 0.05655255589 0.051911180439 0.046412584992 0.040313887925 
0.033918671322 0.027539634269 0.02146415232 0.015928969503 0.011107399916 0.0071091452777 0.003990147279 0.0017683698311 0.00044110428264 
1.1463897583e-17 
