# vtk DataFile Version 5.1
vtk output
ASCII
DATASET POLYDATA
POINTS 100 float
0.106698 0.0185535 0.620331 0.106625 0.0188247 0.620062 0.106439 0.0194848 0.619093 
0.106122 0.0204992 0.617428 0.105652 0.0218136 0.61507 0.105002 0.0233581 0.612027 
0.104147 0.0250531 0.608308 0.103068 0.0268153 0.603924 0.101756 0.0285634 0.598885 
0.100215 0.0302239 0.593208 0.0984598 0.0317355 0.586909 0.0965155 0.0330521 0.580012 
0.0944134 0.0341438 0.572548 0.0921851 0.0349969 0.564552 0.0898566 0.0356119 0.556071 
0.0874426 0.0360003 0.547159 0.084942 0.0361813 0.537873 0.0823349 0.0361776 0.528277 
0.0795826 0.0360119 0.518431 0.0766306 0.0357045 0.50839 0.0734132 0.0352716 0.498198 
0.0698611 0.0347251 0.487884 0.0659094 0.0340738 0.477458 0.0615063 0.033326 0.466908 
0.05662 0.0324921 0.456204 0.0512445 0.0315881 0.4453 0.0454016 0.0306388 0.434134 
0.0391401 0.0296792 0.422643 0.0325314 0.028756 0.410764 0.0256623 0.0279264 0.398448 
0.0186257 0.0272556 0.38566 0.0115105 0.0268128 0.372391 0.00439116 0.026666 0.358656 
-0.00267999 0.0268759 0.344495 -0.00967834 0.0274899 0.32997 -0.0166087 0.0285372 0.315156 
-0.0235028 0.0300252 0.300131 -0.0304133 0.031937 0.284968 -0.0374034 0.0342328 0.269723 
-0.0445356 0.0368521 0.254427 -0.0518587 0.0397189 0.239078 -0.0593954 0.0427488 0.22364 
-0.0671322 0.0458557 0.208045 -0.0750135 0.0489602 0.192194 -0.082939 0.0519963 0.175972 
-0.090767 0.0549163 0.15926 -0.0983215 0.0576936 0.141944 -0.105404 0.0603234 0.123932 
-0.11181 0.0628193 0.105165 -0.117341 0.0652085 0.0856264 -0.121824 0.0675251 0.0653441 
-0.125127 0.0698015 0.0443935 -0.127164 0.0720608 0.0228904 -0.127906 0.0743101 0.000982758 
-0.127381 0.0765357 -0.0211621 -0.12567 0.078701 -0.0433707 -0.122897 0.0807482 -0.0654781 
-0.119221 0.0826026 -0.0873395 -0.114816 0.0841801 -0.10884 -0.109859 0.0853963 -0.129902 
-0.104514 0.0861766 -0.150482 -0.0989208 0.086466 -0.170573 -0.0931862 0.0862369 -0.190193 
-0.0873781 0.0854941 -0.209379 -0.0815262 0.0842763 -0.228176 -0.075626 0.0826529 -0.246625 
-0.0696459 0.0807176 -0.264756 -0.0635379 0.0785782 -0.282582 -0.0572489 0.0763436 -0.300095 
-0.0507319 0.074111 -0.317269 -0.0439565 0.0719528 -0.33406 -0.0369167 0.0699066 -0.350419 
-0.0296359 0.0679682 -0.366292 -0.022168 0.0660899 -0.381634 -0.0145959 0.0641842 -0.396409 
-0.00702599 0.0621319 -0.4106 0.000418915 0.059795 -0.424206 0.00760873 0.0570332 -0.437241 
0.0144156 0.0537206 -0.44973 0.020723 0.049763 -0.461701 0.0264338 0.0451118 -0.473177 
0.0314761 0.0397742 -0.48417 0.035807 0.0338173 -0.494672 0.0394137 0.0273664 -0.504658 
0.0423125 0.0205964 -0.514079 0.0445454 0.0137186 -0.522869 0.0461751 0.00696221 -0.530954 
0.0472794 0.000554474 -0.538258 0.0479448 -0.00529987 -0.544713 0.0482603 -0.0104367 -0.550274 
0.0483124 -0.0147463 -0.554923 0.0481803 -0.0181822 -0.558676 0.0479335 -0.0207619 -0.561586 
0.0476297 -0.022562 -0.563738 0.0473145 -0.0237064 -0.565246 0.0470223 -0.0243493 -0.566238 
0.0467773 -0.0246558 -0.566844 0.0465958 -0.0247808 -0.567186 0.0464875 -0.0248502 -0.567359 
0.0464578 -0.0249449 -0.567427 
LINES 2 100
OFFSETS vtktypeint64
0 100 
CONNECTIVITY vtktypeint64
0 1 2 3 4 5 6 7 8 
9 10 11 12 13 14 15 16 17 
18 19 20 21 22 23 24 25 26 
27 28 29 30 31 32 33 34 35 
36 37 38 39 40 41 42 43 44 
45 46 47 48 49 50 51 52 53 
54 55 56 57 58 59 60 61 62 
63 64 65 66 67 68 69 70 71 
72 73 74 75 76 77 78 79 80 
81 82 83 84 85 86 87 88 89 
90 91 92 93 94 95 96 97 98 
99 
POINT_DATA 100
FIELD FieldData 3
_theta 1 100 double
0 0.031733259127 0.063466518254 0.095199777382 0.12693303651 0.15866629564 0.19039955476 0.22213281389 0.25386607302 
0.28559933214 0.31733259127 0.3490658504 0.38079910953 0.41253236865 0.44426562778 0.47599888691 0.50773214603 0.53946540516 
0.57119866429 0.60293192342 0.63466518254 0.66639844167 0.6981317008 0.72986495992 0.76159821905 0.79333147818 0.82506473731 
0.85679799643 0.88853125556 0.92026451469 0.95199777382 0.98373103294 1.0154642921 1.0471975512 1.0789308103 1.1106640695 
1.1423973286 1.1741305877 1.2058638468 1.237597106 1.2693303651 1.3010636242 1.3327968833 1.3645301425 1.3962634016 
1.4279966607 1.4597299198 1.491463179 1.5231964381 1.5549296972 1.5866629564 1.6183962155 1.6501294746 1.6818627337 
1.7135959929 1.745329252 1.7770625111 1.8087957702 1.8405290294 1.8722622885 1.9039955476 1.9357288068 1.9674620659 
1.999195325 2.0309285841 2.0626618433 2.0943951024 2.1261283615 2.1578616206 2.1895948798 2.2213281389 2.253061398 
2.2847946572 2.3165279163 2.3482611754 2.3799944345 2.4117276937 2.4434609528 2.4751942119 2.506927471 2.5386607302 
2.5703939893 2.6021272484 2.6338605076 2.6655937667 2.6973270258 2.7290602849 2.7607935441 2.7925268032 2.8242600623 
2.8559933214 2.8877265806 2.9194598397 2.9511930988 2.982926358 3.0146596171 3.0463928762 3.0781261353 3.1098593945 
3.1415926536 
_radius 1 100 double
1.5548697242e-15 0.013243709137 0.026400078395 0.039382747746 0.052112597533 0.064520050583 0.076546245152 0.088143378194 0.099274723156 
0.1099148031 0.12004996499 0.12967925123 0.13881513364 0.1474834823 0.15572215501 0.16357781929 0.17110101377 0.17833993513 
0.18533387678 0.19210749006 0.19866695471 0.20499872161 0.21107089048 0.21683676913 0.22223991653 0.22721999653 0.23171889916 
0.23568664705 0.23908653889 0.24189887777 0.24412263498 0.24577459372 0.24688588492 0.24749627816 0.24764702576 0.24737339806 
0.24669822758 0.24562774218 0.24415068301 0.24224120084 0.23986540248 0.23699080238 0.23359743688 0.22968909102 0.22530299854 
0.22051648884 0.21544931422 0.21026073483 0.20514087082 0.20029648267 0.19593240978 0.19223133877 0.18933571553 0.18733534713 
0.18626212917 0.18609062422 0.18674202116 0.18809013799 0.18997012383 0.19219117725 0.1945532878 0.19686596154 0.19896569427 
0.20072919421 0.20208055657 0.20299196122 0.20347850591 0.20358840594 0.20339009726 0.20295791746 0.20235808113 0.20163659967 
0.20081056 0.19986376134 0.19874718192 0.19738418778 0.19567980751 0.19353276678 0.19084839142 0.18755015442 0.18358775505 
0.17894024883 0.17361379954 0.16763486111 0.1610406645 0.15386941628 0.14615240623 0.13790939578 0.12914762277 0.11986393221 
0.1100491195 0.099693495394 0.088792791807 0.077353693089 0.065398430722 0.052967999585 0.040123653805 0.02694645193 0.013534779969 
1.3129257488e-15 
_area 1 100 double
0 0.00051230374155 0.0020329541681 0.0045141173702 0.0078792569869 0.012027946938 0.016842491873 0.022195915983 0.027960562613 
0.034016448213 0.040258780249 0.046604522055 0.05299812321 0.059416168487 0.065869835418 0.072403209432 0.079085232083 0.085993778941 
0.093192584121 0.10070561911 0.10849741771 0.11646801919 0.12446584889 0.13231439514 0.13984389956 0.14691854531 0.15345114644 
0.15940059791 0.16475365044 0.169501165 0.17362284764 0.17708700685 0.17985951733 0.18191146628 0.18321978983 0.18376231313 
0.18351230472 0.18243715481 0.18050316097 0.17768585553 0.17398354066 0.16943041561 0.16410500143 0.15813035996 0.1516654829 
0.14489127202 0.13799706382 0.13117213327 0.12460146133 0.11846030683 0.11290225148 0.10803770467 0.10390290782 0.10046612004 
0.097783848358 0.095829316135 0.09457560962 0.094045747485 0.094211732048 0.094954395375 0.096061203023 0.097264894656 0.098310007911 
0.098960806424 0.099025140428 0.098422122477 0.097163076884 0.095343748344 0.09317887525 0.091038838551 0.089349055954 0.088153782889 
0.087506872273 0.087390034588 0.087696602664 0.088237735164 0.0887744248 0.089059027216 0.088871179184 0.088040067274 0.086453152265 
0.084056885046 0.08085334763 0.076892167784 0.072257289293 0.067051953507 0.061386636694 0.05537254544 0.049120189567 0.042740815442 
0.036348693118 0.030063474974 0.024012542659 0.018332726782 0.01316982172 0.0086742756878 0.0049926942749 0.002256474701 0.00056989791188 
1.6478092747e-17 
