# vtk DataFile Version 5.1
vtk output
ASCII
DATASET POLYDATA
POINTS 100 float
0.108242 0.0440962 0.66993 0.108174 0.0442176 0.669804 0.108108 0.044423 0.669267 
0.108029 0.0447211 0.668328 0.107918 0.0451235 0.666996 0.107748 0.0456418 0.665277 
0.107491 0.0462845 0.663168 0.107124 0.047053 0.660652 0.106626 0.0479383 0.657691 
0.105985 0.0489182 0.654229 0.105196 0.0499558 0.650191 0.104259 0.0509999 0.645487 
0.103179 0.0519858 0.640023 0.101959 0.0528393 0.633704 0.100596 0.0534809 0.626455 
0.0990805 0.053832 0.618221 0.0973902 0.0538208 0.608983 0.0954894 0.0533897 0.598762 
0.0933295 0.0525006 0.587615 0.0908521 0.05114 0.575643 0.0879929 0.0493219 0.562973 
0.0846884 0.0470892 0.549757 0.0808829 0.0445121 0.536152 0.0765353 0.0416845 0.522311 
0.0716254 0.0387188 0.508367 0.066158 0.0357381 0.494422 0.0601649 0.0328689 0.480542 
0.0537034 0.0302319 0.466748 0.0468524 0.0279351 0.453021 0.0397057 0.0260666 0.439304 
0.0323627 0.0246904 0.42551 0.0249194 0.0238441 0.411535 0.0174584 0.0235387 0.397265 
0.010041 0.0237612 0.382594 0.00270187 0.0244791 0.367424 -0.00455365 0.025646 0.351682 
-0.0117474 0.027208 0.335314 -0.0189233 0.0291103 0.318292 -0.0261377 0.0313023 0.300612 
-0.0334489 0.0337419 0.282285 -0.0409035 0.0363974 0.263335 -0.0485242 0.0392477 0.243793 
-0.0562991 0.0422799 0.22369 -0.0641736 0.0454857 0.203058 -0.0720471 0.048857 0.181927 
-0.0797742 0.0523802 0.160322 -0.087171 0.0560318 0.13827 -0.0940265 0.0597749 0.115803 
-0.100117 0.0635574 0.0929579 -0.105223 0.067312 0.0697804 -0.109148 0.0709589 0.0463279 
-0.111733 0.07441 0.0226673 -0.112871 0.0775753 -0.00112723 -0.112519 0.0803689 -0.0249785 
-0.110697 0.0827165 -0.0488114 -0.107491 0.0845605 -0.0725584 -0.103043 0.0858651 -0.0961643 
-0.0975399 0.0866175 -0.11959 -0.0911965 0.0868286 -0.142812 -0.0842384 0.0865291 -0.165823 
-0.0768834 0.0857657 -0.188628 -0.0693247 0.0845937 -0.211234 -0.0617178 0.0830703 -0.233649 
-0.0541713 0.0812476 -0.255872 -0.0467435 0.0791667 -0.277884 -0.0394443 0.0768532 -0.29965 
-0.0322419 0.0743164 -0.321113 -0.0250746 0.0715495 -0.342199 -0.0178641 0.0685333 -0.362823 
-0.0105311 0.0652421 -0.382897 -0.00300996 0.0616502 -0.402337 0.00473907 0.0577395 -0.421079 
0.0127208 0.0535066 -0.439083 0.0209008 0.048968 -0.456342 0.0292054 0.0441633 -0.472881 
0.0375272 0.0391559 -0.488755 0.0457343 0.0340304 -0.504045 0.0536817 0.0288876 -0.518841 
0.0612259 0.0238374 -0.533231 0.068238 0.01899 -0.547287 0.0746157 0.0144473 -0.561047 
0.0802928 0.0102942 -0.574508 0.0852444 0.00659246 -0.587617 0.0894877 0.00337614 -0.600273 
0.0930791 0.000650397 -0.612332 0.096106 -0.00160703 -0.623619 0.0986769 -0.00344152 -0.63395 
0.100909 -0.00491516 -0.643145 0.102916 -0.00609907 -0.651057 0.104794 -0.00706527 -0.657587 
0.106616 -0.00787931 -0.662701 0.108422 -0.00859429 -0.666438 0.110219 -0.00924706 -0.668911 
0.111981 -0.00985689 -0.670298 0.113657 -0.0104266 -0.670831 0.115176 -0.0109459 -0.670767 
0.11646 -0.011396 -0.670371 0.117433 -0.0117555 -0.669883 0.118033 -0.0120055 -0.669495 
0.11822 -0.0121339 -0.669333 
LINES 2 100
OFFSETS vtktypeint64
0 100 
CONNECTIVITY vtktypeint64
0 1 2 3 4 5 6 7 8 
9 10 11 12 13 14 15 16 17 
18 19 20 21 22 23 24 25 26 
27 28 29 30 31 32 33 34 35 
36 37 38 39 40 41 42 43 44 
45 46 47 48 49 50 51 52 53 
54 55 56 57 58 59 60 61 62 
63 64 65 66 67 68 69 70 71 
72 73 74 75 76 77 78 79 80 
81 82 83 84 85 86 87 88 89 
90 91 92 93 94 95 96 97 98 
99 
POINT_DATA 100
FIELD FieldData 3
_theta 1 100 double
0 0.031733259127 0.063466518254 0.095199777382 0.12693303651 0.15866629564 0.19039955476 0.22213281389 0.25386607302 
0.28559933214 0.31733259127 0.3490658504 0.38079910953 0.41253236865 0.44426562778 0.47599888691 0.50773214603 0.53946540516 
0.57119866429 0.60293192342 0.63466518254 0.66639844167 0.6981317008 0.72986495992 0.76159821905 0.79333147818 0.82506473731 
0.85679799643 0.88853125556 0.92026451469 0.95199777382 0.98373103294 1.0154642921 1.0471975512 1.0789308103 1.1106640695 
1.1423973286 1.1741305877 1.2058638468 1.237597106 1.2693303651 1.3010636242 1.3327968833 1.3645301425 1.3962634016 
1.4279966607 1.4597299198 1.491463179 1.5231964381 1.5549296972 1.5866629564 1.6183962155 1.6501294746 1.6818627337 
1.7135959929 1.745329252 1.7770625111 1.8087957702 1.8405290294 1.8722622885 1.9039955476 1.9357288068 1.9674620659 
1.999195325 2.0309285841 2.0626618433 2.0943951024 2.1261283615 2.1578616206 2.1895948798 2.2213281389 2.253061398 
2.2847946572 2.3165279163 2.3482611754 2.3799944345 2.4117276937 2.4434609528 2.4751942119 2.506927471 2.5386607302 
2.5703939893 2.6021272484 2.6338605076 2.6655937667 2.6973270258 2.7290602849 2.7607935441 2.7925268032 2.8242600623 
2.8559933214 2.8877265806 2.9194598397 2.9511930988 2.982926358 3.0146596171 3.0463928762 3.0781261353 3.1098593945 
3.1415926536 
_radius 1 100 double
2.4325747171e-16 0.015036518102 0.029943420812 0.044596168929 0.058887976025 0.072735774307 0.086082856968 0.098897675161 0.11116882956 
0.1228969988 0.13408526501 0.14472980236 0.15481295187 0.16430021827 0.17314181958 0.18127839253 0.18864963013 0.19520421139 
0.20090941452 0.20575914342 0.20977950616 0.21303133673 0.21560907905 0.21763540981 0.21925120255 0.22060122607 0.22181726575 
0.22300158826 0.22421407444 0.22546560558 0.22671880725 0.22789572244 0.22889083736 0.22958720432 0.22987316058 0.22965732055 
0.22888009092 0.22752077086 0.22560007614 0.22317840493 0.22035026315 0.2172351669 0.21396541436 0.2106717059 0.2074686136 
0.20444264415 0.20164524547 0.19909167654 0.19676537096 0.19462704757 0.19262771941 0.19072394388 0.18889222465 0.18713851327 
0.18549932214 0.18403335285 0.18280614129 0.18187338769 0.18126913235 0.1810017931 0.18105646231 0.18139938463 0.18198140137 
0.18273962573 0.18359870324 0.18447379037 0.18527661612 0.18592416953 0.18634795785 0.18650138479 0.18636352389 0.18593882216 
0.1852535229 0.18435031489 0.18328243126 0.18210715722 0.18087731775 0.17962924417 0.1783678925 0.17705309359 0.17559230488 
0.1738430651 0.17162474862 0.16873705881 0.16498225646 0.1601881145 0.15422841516 0.14703779072 0.13861833753 0.12903681631 
0.11841308683 0.10690220954 0.094673893742 0.081893338682 0.068706861319 0.05523417629 0.041567267826 0.027774172228 0.013905270262 
1.1843812046e-15 
_area 1 100 double
0 0.00057291693014 0.0022735355611 0.005050569199 0.0088281896626 0.013518055386 0.019031568859 0.025288732864 0.032220555737 
0.039763656369 0.047848223723 0.056383044532 0.06524277792 0.074262109882 0.083239268647 0.091949028659 0.10016344818 0.10767688301 
0.11433051898 0.12003177497 0.12476585028 0.12859937087 0.13167754027 0.13421450389 0.13647154549 0.13871491206 0.14115699644 
0.14390681227 0.14695345484 0.15017917476 0.15338741766 0.15633800114 0.15878625493 0.16052218871 0.16140405411 0.16137940998 
0.1604847692 0.15881663943 0.15648631202 0.15359304497 0.15022776007 0.14648496151 0.14246808496 0.13828926565 0.13406658035 
0.12991968936 0.12595988767 0.12226781717 0.11886538733 0.11570721789 0.11270136231 0.10973727612 0.1067042917 0.10350765888 
0.10009639743 0.096506034888 0.092900712835 0.089554704126 0.086706416986 0.084473527458 0.082886520264 0.081891971166 0.081378739987 
0.08123477979 0.081368528646 0.081678870932 0.08201384561 0.082199456765 0.082102328548 0.081658587385 0.080882598956 0.079864701297 
0.078751523751 0.077776006467 0.077095947388 0.076787253736 0.0769065189 0.077461306595 0.078371695633 0.079455208109 0.080443123708 
0.081018766723 0.080862893715 0.079696320928 0.077314818558 0.073613857583 0.068602241436 0.062404422883 0.055251562708 0.047461530009 
0.039408635272 0.031485336247 0.024060306003 0.017439246438 0.011835575132 0.0073570510922 0.0040118492573 0.0017341723413 0.00042522946837 
7.2968079931e-17 
