# vtk DataFile Version 5.1
vtk output
ASCII
DATASET POLYDATA
POINTS 100 float
0.15346 0.0378411 0.667779 0.153654 0.0379633 0.667698 0.154245 0.0382119 0.667325 
0.155123 0.0385799 0.666622 0.156121 0.039056 0.66553 0.157034 0.0396239 0.663979 
0.157646 0.0402615 0.661891 0.157755 0.0409411 0.659193 0.157196 0.0416299 0.655819 
0.155863 0.0422915 0.651722 0.153714 0.0428888 0.646872 0.15078 0.043387 0.641266 
0.147152 0.0437578 0.634918 0.142968 0.0439829 0.627862 0.138394 0.0440575 0.620144 
0.133598 0.0439919 0.611817 0.128726 0.0438122 0.602933 0.123885 0.0435582 0.59354 
0.119127 0.0432803 0.583674 0.114443 0.0430335 0.573359 0.109764 0.0428717 0.562607 
0.104975 0.0428401 0.55142 0.0999278 0.0429692 0.539791 0.094466 0.0432695 0.527714 
0.0884434 0.0437286 0.515184 0.0817458 0.0443111 0.502206 0.0743061 0.0449612 0.488798 
0.0661137 0.0456084 0.474988 0.0572152 0.0461751 0.460822 0.0477086 0.0465862 0.44635 
0.0377299 0.0467785 0.431632 0.0274363 0.0467094 0.416723 0.016986 0.0463641 0.401668 
0.00652071 0.0457593 0.386497 -0.00385015 0.0449435 0.371217 -0.0140582 0.043994 0.355807 
-0.0240786 0.0430101 0.340222 -0.0339247 0.0421037 0.324388 -0.043637 0.041388 0.308211 
-0.0532661 0.0409665 0.291586 -0.0628546 0.0409219 0.274401 -0.0724178 0.0413083 0.256554 
-0.0819289 0.0421456 0.237959 -0.0913085 0.043418 0.218557 -0.100422 0.0450771 0.198321 
-0.109084 0.047047 0.177263 -0.117072 0.0492337 0.155433 -0.124141 0.051535 0.132916 
-0.13005 0.0538517 0.109826 -0.134583 0.0560966 0.0862968 -0.13757 0.0582028 0.0624739 
-0.138907 0.0601279 0.0385013 -0.138566 0.0618553 0.0145118 -0.136597 0.0633922 -0.00938161 
-0.133126 0.0647643 -0.033093 -0.12834 0.0660087 -0.0565666 -0.122473 0.0671655 -0.0797776 
-0.11578 0.0682697 -0.10273 -0.108519 0.0693442 -0.125449 -0.100925 0.0703949 -0.147979 
-0.0931973 0.0714086 -0.170368 -0.0854831 0.0723535 -0.192665 -0.0778756 0.0731824 -0.214908 
-0.0704134 0.0738379 -0.237119 -0.0630881 0.0742589 -0.259299 -0.0558556 0.0743868 -0.281425 
-0.0486507 0.0741716 -0.303453 -0.0414019 0.0735758 -0.325315 -0.0340451 0.0725767 -0.346928 
-0.0265347 0.0711665 -0.368198 -0.0188506 0.06935 -0.389027 -0.0110008 0.0671418 -0.409319 
-0.00302028 0.0645613 -0.428987 0.00503411 0.0616295 -0.447955 0.0130902 0.0583657 -0.466167 
0.0210685 0.0547861 -0.483581 0.0288895 0.0509045 -0.500178 0.0364797 0.0467348 -0.515954 
0.043775 0.0422953 -0.530922 0.0507223 0.0376136 -0.545104 0.0572784 0.0327314 -0.558532 
0.0634074 0.027709 -0.57124 0.069078 0.0226266 -0.583264 0.0742599 0.0175842 -0.594636 
0.0789229 0.0126973 -0.605381 0.0830363 0.00809065 -0.615518 0.086571 0.00388857 -0.625057 
0.0895036 0.000204518 -0.634 0.0918214 -0.00287018 -0.642341 0.0935275 -0.00527629 -0.650068 
0.0946462 -0.00699426 -0.657161 0.0952259 -0.00804834 -0.663599 0.0953397 -0.00850621 -0.669356 
0.0950831 -0.00847421 -0.674407 0.0945688 -0.00808813 -0.678727 0.0939184 -0.00750056 -0.682292 
0.0932525 -0.006866 -0.685082 0.0926799 -0.00632539 -0.687081 0.0922873 -0.00599167 -0.688276 
0.0921311 -0.00593803 -0.68866 
LINES 2 100
OFFSETS vtktypeint64
0 100 
CONNECTIVITY vtktypeint64
0 1 2 3 4 5 6 7 8 
9 10 11 12 13 14 15 16 17 
18 19 20 21 22 23 24 25 26 
27 28 29 30 31 32 33 34 35 
36 37 38 39 40 41 42 43 44 
45 46 47 48 49 50 51 52 53 
54 55 56 57 58 59 60 61 62 
63 64 65 66 67 68 69 70 71 
72 73 74 75 76 77 78 79 80 
81 82 83 84 85 86 87 88 89 
90 91 92 93 94 95 96 97 98 
99 
POINT_DATA 100
FIELD FieldData 3
_theta 1 100 double
0 0.031733259127 0.063466518254 0.095199777382 0.12693303651 0.15866629564 0.19039955476 0.22213281389 0.25386607302 
0.28559933214 0.31733259127 0.3490658504 0.38079910953 0.41253236865 0.44426562778 0.47599888691 0.50773214603 0.53946540516 
0.57119866429 0.60293192342 0.63466518254 0.66639844167 0.6981317008 0.72986495992 0.76159821905 0.79333147818 0.82506473731 
0.85679799643 0.88853125556 0.92026451469 0.95199777382 0.98373103294 1.0154642921 1.0471975512 1.0789308103 1.1106640695 
1.1423973286 1.1741305877 1.2058638468 1.237597106 1.2693303651 1.3010636242 1.3327968833 1.3645301425 1.3962634016 
1.4279966607 1.4597299198 1.491463179 1.5231964381 1.5549296972 1.5866629564 1.6183962155 1.6501294746 1.6818627337 
1.7135959929 1.745329252 1.7770625111 1.8087957702 1.8405290294 1.8722622885 1.9039955476 1.9357288068 1.9674620659 
1.999195325 2.0309285841 2.0626618433 2.0943951024 2.1261283615 2.1578616206 2.1895948798 2.2213281389 2.253061398 
2.2847946572 2.3165279163 2.3482611754 2.3799944345 2.4117276937 2.4434609528 2.4751942119 2.506927471 2.5386607302 
2.5703939893 2.6021272484 2.6338605076 2.6655937667 2.6973270258 2.7290602849 2.7607935441 2.7925268032 2.8242600623 
2.8559933214 2.8877265806 2.9194598397 2.9511930988 2.982926358 3.0146596171 3.0463928762 3.0781261353 3.1098593945 
3.1415926536 
_radius 1 100 double
2.7371275973e-16 0.016040260809 0.031873657995 0.047312167341 0.062203764674 0.076442723772 0.089972214408 0.10277931327 0.11488431407 
0.12632748161 0.13715656884 0.14741736091 0.15714772343 0.1663740361 0.17510828454 0.1833446872 0.19105614948 0.198192269 
0.20468124254 0.21043739484 0.2153743761 0.21942211584 0.22254419316 0.22475182542 0.22611118342 0.22674198922 0.22680710001 
0.22649477725 0.22599715541 0.22548937581 0.22511329107 0.22496757512 0.22510348584 0.22552390365 0.22618353553 0.22699001177 
0.22780764683 0.22846637564 0.22877722431 0.22855339665 0.22763407185 0.22590720787 0.22332795477 0.21993011807 0.21582900012 
0.21121475147 0.20633621384 0.20147635166 0.19692186184 0.19293118587 0.18970622102 0.18737266927 0.18597186303 0.18546382599 
0.18573873783 0.18663301736 0.1879469663 0.18946240524 0.19095992787 0.19223576832 0.19311789666 0.19348025101 0.19325347332 
0.19243048776 0.19106580409 0.18926833031 0.18718842487 0.18500067655 0.1828843768 0.18100384152 0.17949066824 0.17842971249 
0.17785007611 0.17772178541 0.17795818164 0.1784234415 0.17894416133 0.17932360213 0.17935700811 0.17884641095 0.17761355305 
0.1755099774 0.17242382658 0.16828332899 0.1630572381 0.15675263014 0.14941051749 0.14109977203 0.13190991082 0.12194336857 
0.11130793003 0.10010998686 0.08844919435 0.076414931024 0.064084714663 0.051524431981 0.038789952341 0.025929503219 0.012986162997 
6.7077553384e-16 
_area 1 100 double
0 0.00055104993787 0.0021827998331 0.0048321555503 0.0083985158721 0.012752595694 0.017749961702 0.023246768069 0.029113522833 
0.035243263349 0.041553004338 0.047980274255 0.0544782433 0.06101236581 0.067558928703 0.074102979449 0.080631871449 0.087122468836 
0.093524312627 0.099745226676 0.1056472949 0.11105893225 0.11580357624 0.11973893534 0.12279514449 0.12499855833 0.12647186052 
0.12740993807 0.12804071591 0.12858471608 0.12922465263 0.13009063064 0.13126160783 0.13277824435 0.13465462291 0.13687128018 
0.13933747307 0.14184169217 0.14404876046 0.14556827893 0.14604703048 0.14523973763 0.14304773189 0.13952806689 0.13487707752 
0.12939440361 0.12343644835 0.1173701761 0.11153532006 0.10620515857 0.10153824421 0.097586753546 0.094354109503 0.091828372862 
0.089988528225 0.088790703894 0.088141640124 0.087884880091 0.087820484933 0.087744612404 0.087481890791 0.086899855762 0.085911959433 
0.084480764447 0.08262429902 0.080418439342 0.077989646404 0.075501912443 0.073144690003 0.071121006006 0.069660159275 0.068892539984 
0.068847322917 0.069497923791 0.070753670661 0.072493366209 0.074510034771 0.076476199198 0.078065610721 0.079000503396 0.079070360736 
0.078143276253 0.076169918009 0.073177259704 0.069253530625 0.064528534074 0.059154435138 0.053291284815 0.047099241437 0.040736685654 
0.034361459547 0.028132012897 0.022206184174 0.016736982163 0.011866263547 0.0077180855415 0.0043935917099 0.0019686642049 0.00049448715232 
7.2162892724e-17 
