# vtk DataFile Version 5.1
vtk output
ASCII
DATASET POLYDATA
POINTS 100 float
0.100176 0.0516224 0.668144 0.100153 0.0517949 0.668099 0.100137 0.0521542 0.66779 
0.100112 0.0526895 0.66717 0.100051 0.0533838 0.666169 0.0999239 0.0542137 0.664696 
0.0997013 0.0551509 0.662657 0.0993574 0.0561627 0.659955 0.0988747 0.0572134 0.656508 
0.098246 0.0582649 0.652253 0.097474 0.0592783 0.647154 0.0965698 0.0602145 0.641202 
0.0955489 0.0610353 0.634416 0.0944261 0.0617041 0.62684 0.09321 0.0621873 0.618537 
0.0918975 0.062455 0.60958 0.0904697 0.062482 0.600048 0.0888895 0.0622484 0.590015 
0.0871024 0.0617414 0.579544 0.0850391 0.0609554 0.568687 0.0826209 0.0598929 0.557479 
0.0797678 0.058565 0.545942 0.0764065 0.0569915 0.534085 0.0724792 0.0552007 0.52191 
0.0679518 0.0532279 0.509418 0.0628185 0.0511153 0.496608 0.0571053 0.0489091 0.48349 
0.0508684 0.0466585 0.470077 0.044191 0.0444127 0.456391 0.0371748 0.0422195 0.442462 
0.0299317 0.0401224 0.42832 0.022572 0.0381601 0.413995 0.0151947 0.0363642 0.399506 
0.00787782 0.0347598 0.384865 0.000672059 0.0333651 0.370064 -0.00640218 0.0321928 0.35508 
-0.0133539 0.0312509 0.339871 -0.0202166 0.030545 0.32438 -0.0270401 0.0300801 0.308539 
-0.0338794 0.0298619 0.292276 -0.0407833 0.0298988 0.275518 -0.0477817 0.0302017 0.2582 
-0.0548764 0.0307846 0.240275 -0.0620331 0.0316632 0.221709 -0.0691786 0.0328534 0.202492 
-0.0762018 0.0343684 0.182638 -0.0829591 0.0362162 0.162177 -0.0892837 0.0383966 0.14116 
-0.0949984 0.0408983 0.11965 -0.0999291 0.0436968 0.0977169 -0.103919 0.0467534 0.0754355 
-0.106843 0.050015 0.0528781 -0.108614 0.0534155 0.0301127 -0.109195 0.0568781 0.0072014 
-0.108597 0.0603192 -0.0158004 -0.106878 0.0636527 -0.0388427 -0.104138 0.066795 -0.0618791 
-0.100509 0.06967 -0.0848648 -0.0961402 0.0722135 -0.107754 -0.091191 0.0743769 -0.130499 
-0.0858136 0.0761293 -0.15305 -0.0801442 0.0774584 -0.175354 -0.0742947 0.0783696 -0.197359 
-0.0683478 0.0788838 -0.219017 -0.0623549 0.0790334 -0.240283 -0.0563387 0.078858 -0.261122 
-0.0502972 0.0783988 -0.281513 -0.0442112 0.0776942 -0.301445 -0.0380516 0.0767749 -0.32092 
-0.0317884 0.0756609 -0.33995 -0.0253973 0.0743592 -0.358557 -0.0188662 0.0728644 -0.376762 
-0.012199 0.0711594 -0.394586 -0.00541713 0.0692194 -0.412039 0.00144093 0.0670158 -0.429119 
0.00832233 0.064522 -0.445807 0.0151639 0.0617186 -0.462061 0.0218972 0.0585987 -0.477825 
0.0284538 0.0551724 -0.493021 0.0347701 0.0514697 -0.507562 0.0407916 0.0475411 -0.521352 
0.0464759 0.0434571 -0.534296 0.0517939 0.0393051 -0.546307 0.05673 0.0351842 -0.557311 
0.0612814 0.0311993 -0.567256 0.0654556 0.0274535 -0.576112 0.0692676 0.0240412 -0.583879 
0.072737 0.0210402 -0.590579 0.0758853 0.0185064 -0.596262 0.0787326 0.0164694 -0.600998 
0.0812962 0.0149303 -0.604873 0.0835887 0.0138617 -0.607983 0.0856179 0.0132107 -0.610429 
0.0873865 0.0129035 -0.612312 0.0888929 0.0128521 -0.613725 0.0901324 0.0129621 -0.614754 
0.0910985 0.0131415 -0.615472 0.0917841 0.0133087 -0.615937 0.0921835 0.0133997 -0.61619 
0.0922926 0.0133745 -0.616258 
LINES 2 100
OFFSETS vtktypeint64
0 100 
CONNECTIVITY vtktypeint64
0 1 2 3 4 5 6 7 8 
9 10 11 12 13 14 15 16 17 
18 19 20 21 22 23 24 25 26 
27 28 29 30 31 32 33 34 35 
36 37 38 39 40 41 42 43 44 
45 46 47 48 49 50 51 52 53 
54 55 56 57 58 59 60 61 62 
63 64 65 66 67 68 69 70 71 
72 73 74 75 76 77 78 79 80 
81 82 83 84 85 86 87 88 89 
90 91 92 93 94 95 96 97 98 
99 
POINT_DATA 100
FIELD FieldData 3
_theta 1 100 double
0 0.031733259127 0.063466518254 0.095199777382 0.12693303651 0.15866629564 0.19039955476 0.22213281389 0.25386607302 
0.28559933214 0.31733259127 0.3490658504 0.38079910953 0.41253236865 0.44426562778 0.47599888691 0.50773214603 0.53946540516 
0.57119866429 0.60293192342 0.63466518254 0.66639844167 0.6981317008 0.72986495992 0.76159821905 0.79333147818 0.82506473731 
0.85679799643 0.88853125556 0.92026451469 0.95199777382 0.98373103294 1.0154642921 1.0471975512 1.0789308103 1.1106640695 
1.1423973286 1.1741305877 1.2058638468 1.237597106 1.2693303651 1.3010636242 1.3327968833 1.3645301425 1.3962634016 
1.4279966607 1.4597299198 1.491463179 1.5231964381 1.5549296972 1.5866629564 1.6183962155 1.6501294746 1.6818627337 
1.7135959929 1.745329252 1.7770625111 1.8087957702 1.8405290294 1.8722622885 1.9039955476 1.9357288068 1.9674620659 
1.999195325 2.0309285841 2.0626618433 2.0943951024 2.1261283615 2.1578616206 2.1895948798 2.2213281389 2.253061398 
2.2847946572 2.3165279163 2.3482611754 2.3799944345 2.4117276937 2.4434609528 2.4751942119 2.506927471 2.5386607302 
2.5703939893 2.6021272484 2.6338605076 2.6655937667 2.6973270258 2.7290602849 2.7607935441 2.7925268032 2.8242600623 
2.8559933214 2.8877265806 2.9194598397 2.9511930988 2.982926358 3.0146596171 3.0463928762 3.0781261353 3.1098593945 
3.1415926536 
_radius 1 100 double
1.0022078698e-15 0.014091749665 0.028141592727 0.04210129802 0.055917385468 0.06953024926 0.08287487846 0.095883066519 0.10848672291 
0.12062174929 0.13223191724 0.14327224442 0.15371146383 0.1635332877 0.17273628659 0.18133235151 0.18934388791 0.19680007783 
0.20373269489 0.21017203024 0.21614348974 0.22166537471 0.22674825903 0.23139617184 0.23560943674 0.23938854193 0.24273798114 
0.24566882224 0.24819897081 0.25035068953 0.25214575038 0.25359936902 0.25471452034 0.25547818401 0.2558605549 0.25581751579 
0.25529601315 0.2542415767 0.25260707324 0.25036176452 0.24749974417 0.24404682911 0.24006500099 0.23565356713 0.23094636516 
0.22610461658 0.22130552603 0.216727498 0.21253383352 0.20885765816 0.20579110476 0.20338102718 0.2016318163 0.20051384082 
0.19997447487 0.19994818246 0.20036282017 0.20114098544 0.20219754176 0.20343670306 0.20475284089 0.20603721757 0.20718907674 
0.2081269696 0.20879662041 0.20917381353 0.2092626776 0.20909057399 0.20870087319 0.20814471386 0.20747266431 0.20672711757 
0.20593619061 0.20510973451 0.20423769312 0.20329053344 0.20222105419 0.20096679381 0.19945250921 0.19759258218 0.19529352902 
0.19245694294 0.18898317022 0.18477582558 0.17974694109 0.17382221097 0.16694556651 0.15908229892 0.15022018878 0.14036855254 
0.12955564545 0.11782528934 0.1052337656 0.091847853038 0.077744434066 0.063011479518 0.047749650305 0.032073417897 0.016110644468 
1.3456627706e-15 
_area 1 100 double
0 0.00055258898947 0.0022039490284 0.0049339906253 0.0087065894218 0.013466440284 0.019136068362 0.025614005225 0.032775027733 
0.040473147092 0.048547786275 0.056833273647 0.065171249171 0.073424635393 0.081490563 0.089308711722 0.096861896604 0.10416779623 
0.11126359737 0.11818744882 0.124961268 0.13157920356 0.13800540554 0.1441830662 0.15005327077 0.15557783191 0.16075703992 
0.16563311627 0.1702743493 0.17474336859 0.17906241196 0.18319157762 0.18702843744 0.19042469218 0.19320841804 0.19520259837 
0.19623752107 0.19616051543 0.19484842344 0.19222579774 0.18828667357 0.18311282575 0.17687998112 0.16984732193 0.16233279087 
0.1546817188 0.14723527832 0.14030011161 0.13411776256 0.12883642733 0.12449320385 0.12101815951 0.11826839371 0.11607791845 
0.11429517848 0.11279870945 0.11149856282 0.11033177628 0.10925566866 0.10823972138 0.10725433286 0.10625350533 0.10515551908 
0.10384309951 0.10220015853 0.10016205256 0.097745045944 0.095048355167 0.0922364948 0.089507647398 0.087054373583 0.085028349255 
0.083525328194 0.082589502193 0.082215687614 0.082347974443 0.082880525191 0.083662919739 0.08451004588 0.085213400658 0.085553004755 
0.085311852748 0.08429318346 0.082338354306 0.079342839104 0.075268597413 0.070151340249 0.064101231426 0.05729600804 0.049966681289 
0.042377641991 0.034804484103 0.027513417209 0.020745372621 0.014706186267 0.0095625404339 0.0054424038741 0.0024384108748 0.00061247997551 
2.1684144539e-17 
