# vtk DataFile Version 5.1
vtk output
ASCII
DATASET POLYDATA
POINTS 100 float
0.0771135 0.0677087 0.716627 0.0773685 0.0678845 0.716434 0.0782036 0.0682305 0.715674 
0.0795388 0.0687164 0.714358 0.081251 0.0692952 0.712498 0.0831869 0.0699085 0.710105 
0.0851805 0.0704928 0.707183 0.0870695 0.070986 0.703719 0.0887117 0.0713346 0.699684 
0.0899973 0.071499 0.69503 0.0908566 0.0714576 0.689694 0.0912617 0.0712091 0.683601 
0.0912232 0.0707716 0.676676 0.0907814 0.0701802 0.668852 0.0899944 0.069482 0.660083 
0.0889247 0.06873 0.650349 0.0876259 0.0679753 0.639667 0.086132 0.0672605 0.628091 
0.0844505 0.0666129 0.615711 0.0825604 0.0660397 0.602646 0.0804155 0.0655256 0.589034 
0.0779514 0.0650328 0.575017 0.0750961 0.0645041 0.56073 0.071783 0.063868 0.546286 
0.0679617 0.0630464 0.531765 0.0636084 0.0619638 0.517208 0.0587311 0.0605563 0.502619 
0.0533708 0.0587807 0.487964 0.0475971 0.0566217 0.473183 0.0415 0.0540971 0.4582 
0.035177 0.0512593 0.442939 0.0287202 0.0481945 0.427336 0.0222022 0.0450174 0.411352 
0.0156657 0.0418641 0.394975 0.00911667 0.0388814 0.378228 0.00252293 0.0362158 0.361161 
-0.00418088 0.0340018 0.343844 -0.0110831 0.0323505 0.326352 -0.0182804 0.0313414 0.30875 
-0.0258598 0.0310154 0.291083 -0.0338813 0.0313725 0.273356 -0.0423612 0.0323725 0.255534 
-0.0512604 0.0339395 0.237534 -0.0604784 0.0359694 0.219233 -0.0698541 0.0383398 0.200482 
-0.0791736 0.040921 0.181116 -0.0881849 0.0435877 0.160978 -0.0966175 0.046229 0.139942 
-0.104205 0.0487566 0.117923 -0.110705 0.051111 0.0949014 -0.115927 0.0532634 0.0709213 
-0.119737 0.0552146 0.0460963 -0.122079 0.056991 0.0205986 -0.122969 0.0586379 -0.00535503 
-0.122493 0.0602107 -0.0315241 -0.120795 0.0617657 -0.0576673 -0.118061 0.0633511 -0.0835656 
-0.114495 0.0649992 -0.109042 -0.110304 0.0667204 -0.133975 -0.105672 0.0685002 -0.158309 
-0.100749 0.0702988 -0.182049 -0.0956368 0.0720535 -0.205253 -0.0903886 0.0736838 -0.228018 
-0.0850076 0.0750976 -0.250458 -0.079456 0.0761994 -0.272683 -0.0736669 0.076898 -0.294778 
-0.0675585 0.0771138 -0.31679 -0.0610498 0.076785 -0.338709 -0.0540748 0.0758715 -0.360477 
-0.0465935 0.0743572 -0.381982 -0.0386003 0.07225 -0.403077 -0.0301261 0.0695799 -0.423595 
-0.0212379 0.0663955 -0.443369 -0.0120324 0.0627595 -0.462251 -0.00262892 0.0587444 -0.48013 
0.00684134 0.0544273 -0.496944 0.016245 0.0498859 -0.512684 0.0254561 0.0451959 -0.527395 
0.0343628 0.0404283 -0.54116 0.0428732 0.0356489 -0.554093 0.0509166 0.0309177 -0.566315 
0.0584437 0.0262896 -0.577938 0.065424 0.021815 -0.589045 0.0718427 0.01754 -0.599681 
0.0776963 0.0135073 -0.609844 0.0829889 0.00975528 -0.619488 0.0877299 0.00631714 -0.628529 
0.0919318 0.00321981 -0.636858 0.0956097 0.000482151 -0.644363 0.0987823 -0.00188663 -0.650942 
0.101472 -0.00388812 -0.656525 0.103708 -0.00553528 -0.661085 0.105524 -0.00685201 -0.664647 
0.106961 -0.00787177 -0.667287 0.108063 -0.00863512 -0.669124 0.108877 -0.00918645 -0.67031 
0.109449 -0.00957012 -0.671008 0.109821 -0.00982642 -0.671374 0.110025 -0.00998781 -0.671534 
0.110083 -0.0100757 -0.671573 
LINES 2 100
OFFSETS vtktypeint64
0 100 
CONNECTIVITY vtktypeint64
0 1 2 3 4 5 6 7 8 
9 10 11 12 13 14 15 16 17 
18 19 20 21 22 23 24 25 26 
27 28 29 30 31 32 33 34 35 
36 37 38 39 40 41 42 43 44 
45 46 47 48 49 50 51 52 53 
54 55 56 57 58 59 60 61 62 
63 64 65 66 67 68 69 70 71 
72 73 74 75 76 77 78 79 80 
81 82 83 84 85 86 87 88 89 
90 91 92 93 94 95 96 97 98 
99 
POINT_DATA 100
FIELD FieldData 3
_theta 1 100 double
0 0.031733259127 0.063466518254 0.095199777382 0.12693303651 0.15866629564 0.19039955476 0.22213281389 0.25386607302 
0.28559933214 0.31733259127 0.3490658504 0.38079910953 0.41253236865 0.44426562778 0.47599888691 0.50773214603 0.53946540516 
0.57119866429 0.60293192342 0.63466518254 0.66639844167 0.6981317008 0.72986495992 0.76159821905 0.79333147818 0.82506473731 
0.85679799643 0.88853125556 0.92026451469 0.95199777382 0.98373103294 1.0154642921 1.0471975512 1.0789308103 1.1106640695 
1.1423973286 1.1741305877 1.2058638468 1.237597106 1.2693303651 1.3010636242 1.3327968833 1.3645301425 1.3962634016 
1.4279966607 1.4597299198 1.491463179 1.5231964381 1.5549296972 1.5866629564 1.6183962155 1.6501294746 1.6818627337 
1.7135959929 1.745329252 1.7770625111 1.8087957702 1.8405290294 1.8722622885 1.9039955476 1.9357288068 1.9674620659 
1.999195325 2.0309285841 2.0626618433 2.0943951024 2.1261283615 2.1578616206 2.1895948798 2.2213281389 2.253061398 
2.2847946572 2.3165279163 2.3482611754 2.3799944345 2.4117276937 2.4434609528 2.4751942119 2.506927471 2.5386607302 
2.5703939893 2.6021272484 2.6338605076 2.6655937667 2.6973270258 2.7290602849 2.7607935441 2.7925268032 2.8242600623 
2.8559933214 2.8877265806 2.9194598397 2.9511930988 2.982926358 3.0146596171 3.0463928762 3.0781261353 3.1098593945 
3.1415926536 
_radius 1 100 double
1.4616545718e-15 0.015161467935 0.030182659419 0.044923235193 0.059256495965 0.073074393821 0.086290396763 0.098840166192 0.11068040049 
0.12178647132 0.13214957838 0.14177407026 0.15067535317 0.1588784791 0.16641715069 0.17333263114 0.17967203899 0.18548577523 
0.19082426383 0.19573458998 0.20025781913 0.2044276918 0.20827102678 0.21180963279 0.21506300141 0.21805073977 0.22079374784 
0.2233135452 0.22562973242 0.22775608845 0.22969610088 0.2314387956 0.23295567957 0.23419952676 0.2351056406 0.23559605116 
0.23558676242 0.23499762008 0.23376371349 0.2318466617 0.22924389148 0.22599421448 0.22217860493 0.21791589562 0.21335396233 
0.2086577288 0.20399591282 0.19952872844 0.19539854725 0.19172460662 0.18860132017 0.1860981866 0.18425862925 0.18309599418 
0.18258724298 0.18266750969 0.18322992504 0.18413361665 0.18521916395 0.18632755022 0.18731789821 0.18808080644 0.18854629279 
0.18868686812 0.18851671604 0.18808764527 0.18748198526 0.186802425 0.1861591677 0.18565557198 0.18537428905 0.18536629192 
0.18564474493 0.18618437519 0.18692537408 0.18777965781 0.18863715069 0.18937064899 0.18983922281 0.18989126101 0.18936865436 
0.18811318508 0.18597523919 0.1828239033 0.17855673716 0.17310728068 0.16644872405 0.15859301422 0.1495857255 0.13949797851 
0.12841728398 0.11643925633 0.10366167673 0.090181536299 0.076094735823 0.061497387146 0.046487411959 0.031165439556 0.015634671299 
2.1530112903e-16 
_area 1 100 double
0 0.00058207356624 0.0023023254464 0.0050877222418 0.0088311217195 0.013407992167 0.018691640838 0.024562790026 0.030911822956 
0.037634732823 0.044625902325 0.051772035519 0.058951423214 0.066040537687 0.072926184829 0.079518310055 0.085758120574 0.091618579955 
0.097098029418 0.10221069264 0.10697861098 0.11142783646 0.11558879713 0.11949880825 0.12320462538 0.12676336434 0.13023974409 
0.13369780548 0.13718840294 0.14073837867 0.14434738872 0.14799100897 0.15161888533 0.15513310714 0.15835463792 0.16102493621 
0.16285694054 0.16359479151 0.16306079163 0.16118851907 0.15803862991 0.15379257876 0.14872412788 0.14315556548 0.13741104736 
0.13177976892 0.12649481487 0.12172085483 0.11753434619 0.11390157313 0.11070474894 0.10782037584 0.10517485394 0.10274721007 
0.10054483161 0.098577529488 0.096842880168 0.095327178946 0.094016214968 0.092900228636 0.09196012146 0.091143520529 0.090356946727 
0.08948436636 0.088417570501 0.087082482117 0.08545650315 0.083578027485 0.081548683177 0.079529907184 0.077757429007 0.076513679101 
0.075971860047 0.076078897115 0.076632866261 0.077525499299 0.078642236983 0.079857774192 0.081029450797 0.081985523383 0.082516958714 
0.082388713367 0.081371953493 0.079282159935 0.076010142775 0.071540976913 0.065959487048 0.059442478272 0.052239939705 0.044649380807 
0.036988004491 0.02956632877 0.022665044716 0.016515597823 0.011284993569 0.0070666128236 0.003880498812 0.0016870370687 0.00041522678795 
3.6997873836e-18 
