# vtk DataFile Version 5.1
vtk output
ASCII
DATASET POLYDATA
POINTS 100 float
0.0796267 0.0841364 0.810554 0.0798619 0.0844887 0.810184 0.0805815 0.0853133 0.808905 
0.081715 0.08654 0.806763 0.0831534 0.0880591 0.803824 0.0847623 0.0897307 0.800172 
0.0863959 0.0913968 0.795893 0.087913 0.0928957 0.791067 0.0891913 0.0940755 0.785759 
0.0901389 0.0948074 0.780009 0.0907014 0.0949964 0.773828 0.0908642 0.0945891 0.767198 
0.090649 0.093577 0.760072 0.0901065 0.0919965 0.752384 0.0893048 0.0899232 0.744054 
0.0883166 0.0874646 0.734999 0.0872057 0.0847477 0.725144 0.086016 0.0819064 0.714433 
0.0847631 0.079068 0.702831 0.0834306 0.0763401 0.690334 0.0819716 0.0738007 0.676968 
0.0803138 0.0714904 0.662785 0.0783694 0.0694097 0.647861 0.0760469 0.0675195 0.632288 
0.073264 0.0657468 0.616166 0.0699587 0.0639936 0.599595 0.066099 0.0621484 0.582666 
0.0616874 0.0601 0.565461 0.0567616 0.0577508 0.548042 0.05139 0.0550294 0.530455 
0.0456634 0.0519003 0.512731 0.0396831 0.0483706 0.494884 0.0335482 0.0444921 0.476919 
0.0273427 0.0403595 0.458831 0.0211249 0.0361039 0.440611 0.0149205 0.0318829 0.422244 
0.00872029 0.0278686 0.403712 0.00248277 0.0242339 0.384989 -0.00385794 0.0211389 0.366044 
-0.0103805 0.0187185 0.346832 -0.0171617 0.0170734 0.327298 -0.0242617 0.0162628 0.307368 
-0.0317093 0.0163027 0.286959 -0.0394912 0.0171667 0.265974 -0.0475445 0.0187909 0.244311 
-0.0557561 0.0210812 0.221868 -0.063966 0.0239231 0.198555 -0.0719777 0.0271911 0.174303 
-0.079572 0.0307592 0.149068 -0.0865242 0.0345084 0.122847 -0.0926222 0.0383339 0.0956757 
-0.0976837 0.0421486 0.0676356 -0.101571 0.0458843 0.038849 -0.104202 0.0494915 0.00947389 
-0.105554 0.0529361 -0.0203049 -0.105664 0.0561955 -0.0502879 -0.104623 0.0592549 -0.0802744 
-0.102565 0.0621024 -0.110076 -0.0996507 0.0647263 -0.139527 -0.0960566 0.067113 -0.168498 
-0.0919547 0.0692464 -0.196898 -0.0875 0.0711079 -0.22468 -0.0828189 0.0726783 -0.251836 
-0.0780024 0.073939 -0.278393 -0.0731026 0.0748739 -0.304404 -0.068135 0.0754702 -0.329936 
-0.0630839 0.0757185 -0.355062 -0.0579112 0.0756119 -0.379843 -0.0525664 0.0751439 -0.404327 
-0.046998 0.0743058 -0.428534 -0.0411633 0.0730838 -0.452458 -0.0350366 0.0714571 -0.476066 
-0.028615 0.0693964 -0.499298 -0.0219204 0.0668643 -0.522077 -0.0149995 0.0638175 -0.544311 
-0.0079197 0.0602117 -0.565908 -0.000763823 0.0560069 -0.586777 0.00637697 0.0511752 -0.606839 
0.0134107 0.0457083 -0.626033 0.0202515 0.0396244 -0.644315 0.0268259 0.032974 -0.661663 
0.0330766 0.0258425 -0.678071 0.038965 0.01835 -0.69355 0.0444712 0.0106479 -0.70812 
0.0495925 0.00291081 -0.721809 0.0543396 -0.00467359 -0.734644 0.0587329 -0.0119171 -0.746648 
0.0627973 -0.0186449 -0.757838 0.066558 -0.0247084 -0.768224 0.070036 -0.029997 -0.777805 
0.0732453 -0.034446 -0.78657 0.0761908 -0.0380407 -0.794505 0.0788681 -0.0408157 -0.801586 
0.0812638 -0.0428491 -0.80779 0.0833576 -0.044253 -0.81309 0.0851243 -0.0451598 -0.817463 
0.0865374 -0.0457072 -0.820884 0.087572 -0.0460223 -0.823338 0.0882076 -0.0462071 -0.82481 
0.0884303 -0.0463271 -0.825291 
LINES 2 100
OFFSETS vtktypeint64
0 100 
CONNECTIVITY vtktypeint64
0 1 2 3 4 5 6 7 8 
9 10 11 12 13 14 15 16 17 
18 19 20 21 22 23 24 25 26 
27 28 29 30 31 32 33 34 35 
36 37 38 39 40 41 42 43 44 
45 46 47 48 49 50 51 52 53 
54 55 56 57 58 59 60 61 62 
63 64 65 66 67 68 69 70 71 
72 73 74 75 76 77 78 79 80 
81 82 83 84 85 86 87 88 89 
90 91 92 93 94 95 96 97 98 
99 
POINT_DATA 100
FIELD FieldData 3
_theta 1 100 double
0 0.031733259127 0.063466518254 0.095199777382 0.12693303651 0.15866629564 0.19039955476 0.22213281389 0.25386607302 
0.28559933214 0.31733259127 0.3490658504 0.38079910953 0.41253236865 0.44426562778 0.47599888691 0.50773214603 0.53946540516 
0.57119866429 0.60293192342 0.63466518254 0.66639844167 0.6981317008 0.72986495992 0.76159821905 0.79333147818 0.82506473731 
0.85679799643 0.88853125556 0.92026451469 0.95199777382 0.98373103294 1.0154642921 1.0471975512 1.0789308103 1.1106640695 
1.1423973286 1.1741305877 1.2058638468 1.237597106 1.2693303651 1.3010636242 1.3327968833 1.3645301425 1.3962634016 
1.4279966607 1.4597299198 1.491463179 1.5231964381 1.5549296972 1.5866629564 1.6183962155 1.6501294746 1.6818627337 
1.7135959929 1.745329252 1.7770625111 1.8087957702 1.8405290294 1.8722622885 1.9039955476 1.9357288068 1.9674620659 
1.999195325 2.0309285841 2.0626618433 2.0943951024 2.1261283615 2.1578616206 2.1895948798 2.2213281389 2.253061398 
2.2847946572 2.3165279163 2.3482611754 2.3799944345 2.4117276937 2.4434609528 2.4751942119 2.506927471 2.5386607302 
2.5703939893 2.6021272484 2.6338605076 2.6655937667 2.6973270258 2.7290602849 2.7607935441 2.7925268032 2.8242600623 
2.8559933214 2.8877265806 2.9194598397 2.9511930988 2.982926358 3.0146596171 3.0463928762 3.0781261353 3.1098593945 
3.1415926536 
_radius 1 100 double
1.9626155734e-16 0.013819204334 0.027663733754 0.041536831622 0.055419795167 0.069268116057 0.083013349924 0.096569564898 0.10984212744 
0.12273629467 0.13516357133 0.14704481656 0.15831029707 0.1688978976 0.17875118051 0.18781876634 0.19605569545 0.2034264119 
0.20990823959 0.21549398011 0.22019257854 0.22402752058 0.22703350092 0.22925265375 0.23073196502 0.23152317012 0.23168547355 
0.23129011366 0.23042467731 0.22919465497 0.22772022372 0.22612748922 0.22453500808 0.2230379414 0.22169338458 0.22051108579 
0.21945345597 0.21844665026 0.21740018432 0.21622721548 0.21485510055 0.21322381482 0.21128508639 0.20901150464 0.2064073335 
0.20351229277 0.20039760163 0.19715665313 0.19389302955 0.19070869316 0.18769501746 0.1849283102 0.18246968403 0.1803673555 
0.17865861121 0.177369063 0.17650811308 0.17606144247 0.17598358937 0.17619532926 0.17658958888 0.177045232 0.17744339742 
0.1776805517 0.1776760114 0.17737540088 0.17675254422 0.17581093766 0.17458394379 0.17313169065 0.17153305534 0.16987297047 
0.16822762547 0.16665147115 0.16516954992 0.16377695031 0.16244482247 0.16113017045 0.1597854325 0.15836420397 0.15682120247 
0.1551070132 0.15316031608 0.15090128886 0.14822926484 0.14502583793 0.14116244522 0.13651005728 0.13094845242 0.12437344872 
0.11670182546 0.10787482896 0.097861647966 0.086663912176 0.074321318314 0.060917364348 0.046583355604 0.031498672179 0.015885834859 
6.1029361787e-16 
_area 1 100 double
0 0.00053377606275 0.0021335658905 0.0047909092692 0.0084813438139 0.013155855244 0.018738428984 0.025132077578 0.032231561924 
0.039937903854 0.048168615235 0.056858245347 0.065946448547 0.075356128164 0.084971109547 0.094625377889 0.10411016006 0.11319607355 
0.12166225417 0.12932363552 0.13604900929 0.14176508007 0.1464458109 0.15009205596 0.15271207949 0.15431514537 0.15492448207 
0.15460479119 0.15349157778 0.15181174704 0.14989366135 0.1481477279 0.14691519114 0.14626527256 0.1460595029 0.14609320817 
0.14617215979 0.14614540863 0.14581695965 0.14493003665 0.14328202923 0.14077569887 0.13740011348 0.13319439714 0.1283952661 
0.12326184854 0.11827023124 0.11413870436 0.11068858971 0.10762284866 0.10497217045 0.10271054698 0.10070570231 0.098769010222 
0.096738453621 0.094535419384 0.092181277855 0.089789013021 0.087537583611 0.085611734426 0.084109294177 0.082983620562 0.082075496363 
0.08120082257 0.08020849429 0.078990199 0.077480520282 0.075666694513 0.073594812782 0.071357633553 0.069070377897 0.066849071001 
0.064796672124 0.062998163151 0.061517441365 0.060388681761 0.059610227901 0.059194982692 0.059050594313 0.059053684309 0.059142406986 
0.059163990392 0.058980421377 0.05845432551 0.057452258262 0.055857181528 0.053578088297 0.050557894651 0.046782450066 0.042290529521 
0.03718164965 0.031617915339 0.025817569202 0.020040070576 0.014564530672 0.0096650014485 0.0055871674798 0.0025307345119 0.00063976283862 
6.416917441e-17 
