# vtk DataFile Version 5.1
vtk output
ASCII
DATASET POLYDATA
POINTS 100 float
0.146924 0.0452809 0.698543 0.146934 0.0453433 0.698254 0.146993 0.0454152 0.697259 
0.14706 0.04551 0.695571 0.147073 0.0456482 0.693213 0.146952 0.0458539 0.690208 
0.146615 0.0461513 0.68658 0.145977 0.0465609 0.682348 0.144969 0.0470956 0.677522 
0.143535 0.0477577 0.672102 0.141642 0.0485367 0.666077 0.139278 0.0494086 0.659429 
0.136454 0.0503363 0.652134 0.133193 0.051272 0.644172 0.129533 0.0521595 0.635531 
0.125514 0.0529393 0.626211 0.121172 0.0535519 0.616232 0.116538 0.0539436 0.605636 
0.111632 0.05407 0.594485 0.106461 0.0539 0.582859 0.101024 0.0534183 0.570853 
0.0953129 0.0526267 0.558567 0.0893185 0.0515448 0.546099 0.0830359 0.0502082 0.533532 
0.0764697 0.0486675 0.520932 0.0696375 0.0469843 0.508335 0.0625719 0.0452288 0.495748 
0.0553192 0.0434755 0.483145 0.0479366 0.0417998 0.470468 0.0404868 0.0402743 0.457637 
0.0330314 0.0389662 0.444551 0.0256241 0.0379342 0.431101 0.0183044 0.0372265 0.417176 
0.0110936 0.0368795 0.402674 0.00399287 0.0369168 0.387506 -0.00301524 0.037348 0.371606 
-0.00996225 0.0381696 0.354926 -0.0168865 0.0393642 0.337442 -0.0238238 0.040902 0.319152 
-0.0307977 0.0427413 0.300069 -0.0378101 0.0448307 0.280222 -0.0448337 0.0471108 0.259649 
-0.0518074 0.0495167 0.238392 -0.0586366 0.0519814 0.2165 -0.0651962 0.0544385 0.194025 
-0.0713386 0.0568261 0.17102 -0.0769054 0.05909 0.147546 -0.0817401 0.0611866 0.123665 
-0.0857031 0.0630852 0.099448 -0.0886844 0.0647698 0.0749725 -0.0906146 0.0662392 0.050321 
-0.0914724 0.0675063 0.0255796 -0.0912867 0.0685958 0.000834172 -0.0901344 0.0695413 -0.023834 
-0.088133 0.070381 -0.0483532 -0.0854294 0.0711528 -0.0726649 -0.0821856 0.0718896 -0.0967279 
-0.0785639 0.0726146 -0.120519 -0.0747114 0.0733375 -0.144031 -0.0707483 0.0740519 -0.167274 
-0.0667579 0.0747344 -0.190263 -0.0627824 0.0753447 -0.213018 -0.0588229 0.0758288 -0.235554 
-0.0548446 0.0761222 -0.257873 -0.0507852 0.0761557 -0.279961 -0.0465672 0.0758615 -0.301783 
-0.0421109 0.0751794 -0.323283 -0.0373478 0.0740631 -0.34439 -0.0322322 0.0724854 -0.365021 
-0.0267497 0.0704421 -0.38509 -0.0209225 0.067954 -0.404519 -0.0148097 0.0650669 -0.423247 
-0.00850411 0.0618494 -0.441238 -0.00212535 0.0583894 -0.458486 0.00419033 0.054788 -0.475016 
0.0103012 0.0511532 -0.490886 0.0160717 0.0475928 -0.506172 0.0213835 0.0442071 -0.520965 
0.0261437 0.0410826 -0.535356 0.0302914 0.0382869 -0.549417 0.0338001 0.0358653 -0.563199 
0.0366773 0.033839 -0.576709 0.0389614 0.0322056 -0.589913 0.0407153 0.0309414 -0.602733 
0.0420196 0.0300048 -0.615051 0.0429641 0.0293418 -0.626717 0.0436401 0.028891 -0.637569 
0.0441329 0.02859 -0.647445 0.0445164 0.0283801 -0.656206 0.0448489 0.0282111 -0.663748 
0.0451715 0.0280445 -0.670021 0.0455073 0.0278553 -0.675031 0.0458635 0.0276321 -0.678844 
0.0462338 0.0273762 -0.681585 0.0466017 0.0270989 -0.683417 0.046945 0.0268186 -0.684535 
0.0472394 0.0265568 -0.685135 0.047462 0.0263344 -0.685401 0.0475947 0.0261684 -0.685481 
0.0476262 0.0260693 -0.685471 
LINES 2 100
OFFSETS vtktypeint64
0 100 
CONNECTIVITY vtktypeint64
0 1 2 3 4 5 6 7 8 
9 10 11 12 13 14 15 16 17 
18 19 20 21 22 23 24 25 26 
27 28 29 30 31 32 33 34 35 
36 37 38 39 40 41 42 43 44 
45 46 47 48 49 50 51 52 53 
54 55 56 57 58 59 60 61 62 
63 64 65 66 67 68 69 70 71 
72 73 74 75 76 77 78 79 80 
81 82 83 84 85 86 87 88 89 
90 91 92 93 94 95 96 97 98 
99 
POINT_DATA 100
FIELD FieldData 3
_theta 1 100 double
0 0.031733259127 0.063466518254 0.095199777382 0.12693303651 0.15866629564 0.19039955476 0.22213281389 0.25386607302 
0.28559933214 0.31733259127 0.3490658504 0.38079910953 0.41253236865 0.44426562778 0.47599888691 0.50773214603 0.53946540516 
0.57119866429 0.60293192342 0.63466518254 0.66639844167 0.6981317008 0.72986495992 0.76159821905 0.79333147818 0.82506473731 
0.85679799643 0.88853125556 0.92026451469 0.95199777382 0.98373103294 1.0154642921 1.0471975512 1.0789308103 1.1106640695 
1.1423973286 1.1741305877 1.2058638468 1.237597106 1.2693303651 1.3010636242 1.3327968833 1.3645301425 1.3962634016 
1.4279966607 1.4597299198 1.491463179 1.5231964381 1.5549296972 1.5866629564 1.6183962155 1.6501294746 1.6818627337 
1.7135959929 1.745329252 1.7770625111 1.8087957702 1.8405290294 1.8722622885 1.9039955476 1.9357288068 1.9674620659 
1.999195325 2.0309285841 2.0626618433 2.0943951024 2.1261283615 2.1578616206 2.1895948798 2.2213281389 2.253061398 
2.2847946572 2.3165279163 2.3482611754 2.3799944345 2.4117276937 2.4434609528 2.4751942119 2.506927471 2.5386607302 
2.5703939893 2.6021272484 2.6338605076 2.6655937667 2.6973270258 2.7290602849 2.7607935441 2.7925268032 2.8242600623 
2.8559933214 2.8877265806 2.9194598397 2.9511930988 2.982926358 3.0146596171 3.0463928762 3.0781261353 3.1098593945 
3.1415926536 
_radius 1 100 double
1.5840295704e-15 0.014275992456 0.028400120458 0.042231700447 0.055653750436 0.068579755361 0.08095557594 0.092756733818 0.10398227994 
0.11464702219 0.12477387206 0.13438751586 0.14350980102 0.15215653511 0.16033511623 0.16804262088 0.17526450395 0.18197460208 
0.18813735515 0.19371288133 0.19866479059 0.20296965097 0.20662619029 0.20966193331 0.21213519296 0.21413113178 0.21575184613 
0.2171019059 0.21827222555 0.21932604292 0.2202904687 0.22115530785 0.22187846746 0.22239561801 0.2226315045 0.22251096191 
0.22196851911 0.22095608102 0.21944853239 0.21744728573 0.21498185678 0.21210952801 0.20891310469 0.20549673527 0.20197980045 
0.19848900086 0.19514902942 0.19207265116 0.1893515861 0.18705000714 0.18520224191 0.18381515077 0.18287403967 0.18234971722 
0.1822040982 0.18239269142 0.18286401274 0.18355773557 0.18440431094 0.18532814433 0.18625443809 0.18711777156 0.1878696521 
0.18848274297 0.18895057052 0.18928283269 0.18949782557 0.18961443572 0.18964600221 0.18959720677 0.18946373686 0.18923353876 
0.18888833826 0.18840457827 0.18775359595 0.18690135288 0.1858081584 0.18442866496 0.18271219539 0.18060337014 0.17804305004 
0.17496967816 0.17132108573 0.1670367212 0.16206014903 0.15634161462 0.14984048944 0.14252745258 0.13438629564 0.12541524905 
0.11562774612 0.10505258922 0.093733560565 0.081728593749 0.069108648126 0.055956389884 0.042364716032 0.028435114621 0.014275853924 
2.1770284027e-16 
_area 1 100 double
0 0.00050263544961 0.0019863961352 0.0043846292666 0.0076030761335 0.011537597707 0.016087506304 0.021160215679 0.026668302264 
0.032524195148 0.03863789005 0.044920133826 0.051289935422 0.057682677824 0.064054198603 0.070377268567 0.076629955108 0.082779750006 
0.088771076422 0.094523902476 0.099946324377 0.10495671055 0.10950598924 0.1135907882 0.11725307843 0.12056871693 0.12363101227 
0.12653320087 0.1293493826 0.13211468749 0.13481181786 0.13737162666 0.13968613696 0.14162511841 0.14304998726 0.14382550192 
0.14383282814 0.14298574396 0.14124791918 0.13864639388 0.13527602327 0.13129168547 0.1268885619 0.12227450392 0.11764113308 
0.11314082234 0.10887430331 0.1048893615 0.10118838152 0.097743190371 0.09451738543 0.091501918738 0.08880689828 0.086497040514 
0.084396255527 0.082493133119 0.080822874 0.079456264682 0.078469601748 0.077897710692 0.077696959911 0.077753777709 0.077929373894 
0.078098247377 0.078165177213 0.078068891302 0.077780233804 0.07730172828 0.076673877886 0.075981627351 0.075336381134 0.074817644397 
0.074471593912 0.074320872136 0.074348950476 0.074534811804 0.074777541498 0.075230776851 0.075669808267 0.075806829984 0.075499483968 
0.074617705848 0.073051575961 0.070719648229 0.067576452456 0.063618254132 0.058886687368 0.053470150422 0.047502689583 0.041159741194 
0.03464991454 0.028202249832 0.022049232533 0.016407235652 0.011457583797 0.0073324162375 0.0041093519812 0.0018172827549 0.00045246315792 
3.9656811825e-17 
