# vtk DataFile Version 5.1
vtk output
ASCII
DATASET POLYDATA
POINTS 100 float
0.0501815 0.0359499 0.628318 0.0503264 0.035918 0.628157 0.0508337 0.0357219 0.627496 
0.0516534 0.0353925 0.626322 0.0527086 0.0349771 0.624621 0.0539053 0.0345338 0.622368 
0.0551431 0.0341249 0.619538 0.0563264 0.0338099 0.6161 0.057374 0.0336388 0.612018 
0.0582255 0.0336468 0.60726 0.058844 0.0338509 0.601795 0.0592143 0.0342484 0.595598 
0.0593377 0.0348179 0.588655 0.0592236 0.0355219 0.580966 0.0588804 0.0363114 0.572547 
0.0583059 0.0371311 0.563431 0.0574808 0.0379249 0.553669 0.056365 0.0386406 0.543329 
0.0548986 0.0392342 0.532488 0.0530066 0.039672 0.521231 0.0506086 0.039932 0.509645 
0.0476302 0.0400028 0.497808 0.0440155 0.0398828 0.485789 0.0397389 0.0395773 0.473638 
0.0348131 0.0390969 0.461387 0.0292935 0.0384552 0.449046 0.0232759 0.0376684 0.43661 
0.0168896 0.0367547 0.424055 0.0102843 0.0357362 0.411349 0.00361463 0.0346402 0.398459 
-0.00297818 0.0335019 0.385354 -0.00938267 0.0323666 0.372011 -0.0155307 0.0312906 0.358423 
-0.0214058 0.0303418 0.344596 -0.027044 0.0295974 0.33055 -0.0325285 0.0291407 0.316315 
-0.0379761 0.0290559 0.301925 -0.0435194 0.0294211 0.287411 -0.0492849 0.0303011 0.272795 
-0.0553707 0.0317402 0.25808 -0.0618274 0.0337559 0.243249 -0.0686427 0.0363347 0.228257 
-0.0757346 0.0394299 0.21304 -0.0829523 0.0429628 0.197509 -0.0900855 0.0468267 0.181569 
-0.0968824 0.0508942 0.165116 -0.103072 0.0550256 0.14806 -0.10839 0.0590798 0.130325 
-0.112606 0.062925 0.111868 -0.115544 0.066448 0.0926779 -0.1171 0.0695629 0.0727846 
-0.117254 0.0722162 0.0522558 -0.116062 0.074389 0.0311934 -0.113655 0.0760957 0.00972505 
-0.110216 0.0773799 -0.0120058 -0.105966 0.0783074 -0.0338523 -0.101131 0.0789573 -0.0556763 
-0.0959246 0.0794133 -0.0773582 -0.0905248 0.0797536 -0.0988051 -0.0850612 0.0800438 -0.119955 
-0.0796076 0.0803306 -0.140777 -0.0741824 0.0806388 -0.161267 -0.0687575 0.0809705 -0.181441 
-0.0632713 0.0813073 -0.201328 -0.0576465 0.0816141 -0.220955 -0.0518078 0.0818451 -0.24034 
-0.0456984 0.0819496 -0.259487 -0.0392919 0.0818783 -0.278372 -0.0325988 0.0815883 -0.29695 
-0.0256665 0.081047 -0.315151 -0.0185734 0.0802344 -0.332891 -0.011418 0.079143 -0.350073 
-0.00430482 0.0777769 -0.366601 0.00266975 0.0761491 -0.38239 0.00943061 0.0742787 -0.397375 
0.0159329 0.0721879 -0.411515 0.0221656 0.0698986 -0.424799 0.0281498 0.0674313 -0.437249 
0.033931 0.0648041 -0.448909 0.0395668 0.0620327 -0.459849 0.0451128 0.0591316 -0.470145 
0.0506077 0.0561165 -0.479882 0.0560608 0.0530056 -0.489133 0.0614444 0.0498216 -0.497959 
0.0666909 0.0465933 -0.506401 0.0716974 0.0433554 -0.514474 0.0763361 0.0401481 -0.522173 
0.0804693 0.0370152 -0.529471 0.0839684 0.0340021 -0.536328 0.0867315 0.0311527 -0.542696 
0.0887008 0.0285065 -0.548524 0.0898734 0.0260965 -0.553769 0.0903068 0.0239474 -0.558399 
0.0901158 0.0220751 -0.562394 0.089463 0.0204867 -0.565748 0.0885418 0.0191824 -0.568467 
0.0875551 0.0181576 -0.570566 0.0866926 0.0174052 -0.572062 0.0861085 0.0169186 -0.572972 
0.0859034 0.0166936 -0.573307 
LINES 2 100
OFFSETS vtktypeint64
0 100 
CONNECTIVITY vtktypeint64
0 1 2 3 4 5 6 7 8 
9 10 11 12 13 14 15 16 17 
18 19 20 21 22 23 24 25 26 
27 28 29 30 31 32 33 34 35 
36 37 38 39 40 41 42 43 44 
45 46 47 48 49 50 51 52 53 
54 55 56 57 58 59 60 61 62 
63 64 65 66 67 68 69 70 71 
72 73 74 75 76 77 78 79 80 
81 82 83 84 85 86 87 88 89 
90 91 92 93 94 95 96 97 98 
99 
POINT_DATA 100
FIELD FieldData 3
_theta 1 100 double
0 0.031733259127 0.063466518254 0.095199777382 0.12693303651 0.15866629564 0.19039955476 0.22213281389 0.25386607302 
0.28559933214 0.31733259127 0.3490658504 0.38079910953 0.41253236865 0.44426562778 0.47599888691 0.50773214603 0.53946540516 
0.57119866429 0.60293192342 0.63466518254 0.66639844167 0.6981317008 0.72986495992 0.76159821905 0.79333147818 0.82506473731 
0.85679799643 0.88853125556 0.92026451469 0.95199777382 0.98373103294 1.0154642921 1.0471975512 1.0789308103 1.1106640695 
1.1423973286 1.1741305877 1.2058638468 1.237597106 1.2693303651 1.3010636242 1.3327968833 1.3645301425 1.3962634016 
1.4279966607 1.4597299198 1.491463179 1.5231964381 1.5549296972 1.5866629564 1.6183962155 1.6501294746 1.6818627337 
1.7135959929 1.745329252 1.7770625111 1.8087957702 1.8405290294 1.8722622885 1.9039955476 1.9357288068 1.9674620659 
1.999195325 2.0309285841 2.0626618433 2.0943951024 2.1261283615 2.1578616206 2.1895948798 2.2213281389 2.253061398 
2.2847946572 2.3165279163 2.3482611754 2.3799944345 2.4117276937 2.4434609528 2.4751942119 2.506927471 2.5386607302 
2.5703939893 2.6021272484 2.6338605076 2.6655937667 2.6973270258 2.7290602849 2.7607935441 2.7925268032 2.8242600623 
2.8559933214 2.8877265806 2.9194598397 2.9511930988 2.982926358 3.0146596171 3.0463928762 3.0781261353 3.1098593945 
3.1415926536 
_radius 1 100 double
7.7796110765e-16 0.012378014897 0.024696610197 0.03689675102 0.048928590889 0.060749643098 0.072318479019 0.083586692679 0.094492812553 
0.1049611773 0.11490689493 0.124245779 0.13290652838 0.14084190008 0.14803618736 0.15450756339 0.16030528029 0.16550288371 
0.17018921501 0.17445893442 0.17840377151 0.1821050633 0.18562775035 0.18901601287 0.19229096939 0.19545097029 0.19847472608 
0.20132682511 0.20396441975 0.20634340624 0.20842257925 0.21016501373 0.2115370183 0.21250595112 0.21303856804 0.21310121782 
0.21266228977 0.21169628858 0.2101882403 0.20813712774 0.2055576843 0.2024807512 0.19895294811 0.19503627479 0.1908077182 
0.18635870168 0.18179458954 0.17723464987 0.17281181716 0.16866985088 0.16495513457 0.16180232053 0.15931589619 0.15755178071 
0.15650388242 0.15610034829 0.15621231229 0.15667376695 0.1573069054 0.15794635043 0.15845825821 0.15875326559 0.15879351907 
0.15859402929 0.15821858891 0.1577708922 0.15738185229 0.15719395099 0.1573430082 0.15793790972 0.15904018755 0.16064720073 
0.16268327905 0.16500158937 0.16739662661 0.16962488186 0.17143015546 0.1725697688 0.17283807561 0.17208413701 0.17022138173 
0.16722849879 0.16314236774 0.15804507526 0.15204769564 0.14527348952 0.13784267078 0.12986015159 0.1214069304 0.11253523944 
0.1032673604 0.09359814228 0.08350147075 0.072940838064 0.061883438562 0.050315945664 0.038258856334 0.025775765803 0.012974641701 
2.3402590261e-16 
_area 1 100 double
0 0.00041545872956 0.0016562150647 0.0037044757363 0.0065277775635 0.010075650367 0.014276225766 0.019033568825 0.024226851924 
0.029713149587 0.035335846859 0.040939511081 0.046389471383 0.051591246427 0.056502916344 0.061134416508 0.065532917208 0.069760742061 
0.073875453876 0.077918257196 0.081911205249 0.085860100554 0.089759194241 0.093595250232 0.09735096297 0.10100927372 0.10455957996 
0.10800429827 0.11136071006 0.11465034011 0.11787165638 0.12096774684 0.12381489715 0.12624238676 0.1280697786 0.12914857413 
0.12939529233 0.12880369236 0.12743550563 0.12539598289 0.12280187361 0.1197533695 0.11632323393 0.11256635382 0.10853982324 
0.10431960243 0.10000288366 0.095693656386 0.091484630678 0.087440787579 0.083609570837 0.08007601828 0.076953886275 0.074283694414 
0.07206094438 0.070192187883 0.068567600875 0.067113534969 0.065796344207 0.064633173824 0.063644664212 0.062792775667 0.06197071053 
0.061061197252 0.060000949844 0.058805062804 0.057585358844 0.056561186467 0.056020839335 0.056258776457 0.057410516874 0.059460815462 
0.062268462162 0.065460276846 0.068662340084 0.071560957078 0.073888816515 0.075426935943 0.076010222695 0.075536469374 0.073975589943 
0.071373500886 0.06784645668 0.063565517817 0.058734107296 0.053562799538 0.04824533637 0.04293952023 0.037756129437 0.032757647284 
0.02796621719 0.023378131275 0.01898324357 0.014791010186 0.010858216899 0.0073002306331 0.0042762773551 0.0019585680664 0.00049876022396 
2.147059032e-17 
