# vtk DataFile Version 5.1
vtk output
ASCII
DATASET POLYDATA
POINTS 100 float
0.0977146 0.0591529 0.722855 0.0977071 0.0592964 0.722587 0.0977425 0.0595642 0.721614 
0.0978069 0.0599416 0.719961 0.0978784 0.0604058 0.717658 0.0979274 0.0609269 0.714743 
0.0979191 0.0614704 0.711245 0.0978147 0.0619991 0.707183 0.0975739 0.0624756 0.702556 
0.0971566 0.0628636 0.697343 0.0965242 0.0631299 0.691501 0.0956417 0.0632452 0.684973 
0.094478 0.0631847 0.677696 0.0930073 0.062928 0.66961 0.0912088 0.0624589 0.66067 
0.0890675 0.0617657 0.650856 0.0865735 0.0608403 0.640182 0.0837226 0.0596791 0.628701 
0.0805155 0.0582826 0.6165 0.0769581 0.0566567 0.603698 0.0730609 0.0548136 0.590435 
0.0688389 0.0527723 0.576858 0.0643111 0.05056 0.563108 0.0595002 0.0482124 0.549302 
0.0544314 0.0457735 0.535526 0.0491313 0.0432947 0.521822 0.0436271 0.0408334 0.508188 
0.0379441 0.0384504 0.49458 0.0321048 0.0362071 0.480917 0.0261268 0.0341621 0.467097 
0.0200217 0.0323675 0.453005 0.0137943 0.0308668 0.438536 0.00744225 0.0296917 0.423596 
0.000957251 0.0288614 0.408123 -0.00567339 0.0283817 0.392083 -0.0124639 0.0282467 0.375475 
-0.0194264 0.0284401 0.358321 -0.0265668 0.0289384 0.340659 -0.0338798 0.0297139 0.32253 
-0.0413452 0.030738 0.303966 -0.0489236 0.0319841 0.284979 -0.0565542 0.0334302 0.265551 
-0.0641536 0.0350593 0.245637 -0.0716167 0.0368601 0.225164 -0.0788194 0.0388258 0.204043 
-0.0856236 0.0409516 0.182179 -0.0918835 0.0432324 0.15949 -0.0974538 0.0456599 0.135921 
-0.102198 0.0482194 0.111461 -0.105997 0.0508881 0.08615 -0.108756 0.0536336 0.0600866 
-0.110415 0.0564139 0.0334229 -0.110946 0.0591788 0.00635604 -0.11036 0.0618719 -0.0208876 
-0.108704 0.0644342 -0.048072 -0.106058 0.0668074 -0.0749733 -0.102527 0.0689379 -0.1014 
-0.0982321 0.0707797 -0.12721 -0.0933027 0.0722971 -0.152324 -0.0878655 0.0734661 -0.176723 
-0.0820354 0.074274 -0.200453 -0.0759077 0.0747181 -0.223608 -0.0695529 0.0748038 -0.246312 
-0.0630139 0.0745413 -0.268702 -0.0563068 0.0739422 -0.290905 -0.0494243 0.0730165 -0.313017 
-0.0423422 0.0717703 -0.335089 -0.035027 0.0702044 -0.357121 -0.0274458 0.0683142 -0.379055 
-0.0195748 0.0660911 -0.400791 -0.0114079 0.0635251 -0.422191 -0.0029632 0.0606076 -0.443103 
0.00571392 0.0573362 -0.463379 0.0145498 0.0537176 -0.482892 0.0234454 0.0497714 -0.501552 
0.0322819 0.0455321 -0.519318 0.040929 0.0410497 -0.536193 0.0492546 0.0363894 -0.552226 
0.057135 0.0316288 -0.567496 0.0644651 0.0268542 -0.582095 0.0711664 0.0221562 -0.596108 
0.0771931 0.017624 -0.609598 0.0825346 0.0133403 -0.622588 0.0872155 0.00937624 -0.635052 
0.0912909 0.00578757 -0.646916 0.09484 0.00261211 -0.658059 0.0979574 -0.000131416 -0.668332 
0.100742 -0.00244301 -0.677575 0.103288 -0.00433964 -0.685643 0.105674 -0.00585241 -0.692421 
0.107956 -0.00702306 -0.697851 0.110164 -0.00790004 -0.701945 0.112299 -0.00853476 -0.704785 
0.114334 -0.00897818 -0.706525 0.116222 -0.00927795 -0.707373 0.117899 -0.00947639 -0.707575 
0.119297 -0.00960905 -0.707386 0.120349 -0.00970395 -0.707044 0.121002 -0.00978121 -0.70674 
0.121219 -0.00985301 -0.706601 
LINES 2 100
OFFSETS vtktypeint64
0 100 
CONNECTIVITY vtktypeint64
0 1 2 3 4 5 6 7 8 
9 10 11 12 13 14 15 16 17 
18 19 20 21 22 23 24 25 26 
27 28 29 30 31 32 33 34 35 
36 37 38 39 40 41 42 43 44 
45 46 47 48 49 50 51 52 53 
54 55 56 57 58 59 60 61 62 
63 64 65 66 67 68 69 70 71 
72 73 74 75 76 77 78 79 80 
81 82 83 84 85 86 87 88 89 
90 91 92 93 94 95 96 97 98 
99 
POINT_DATA 100
FIELD FieldData 3
_theta 1 100 double
0 0.031733259127 0.063466518254 0.095199777382 0.12693303651 0.15866629564 0.19039955476 0.22213281389 0.25386607302 
0.28559933214 0.31733259127 0.3490658504 0.38079910953 0.41253236865 0.44426562778 0.47599888691 0.50773214603 0.53946540516 
0.57119866429 0.60293192342 0.63466518254 0.66639844167 0.6981317008 0.72986495992 0.76159821905 0.79333147818 0.82506473731 
0.85679799643 0.88853125556 0.92026451469 0.95199777382 0.98373103294 1.0154642921 1.0471975512 1.0789308103 1.1106640695 
1.1423973286 1.1741305877 1.2058638468 1.237597106 1.2693303651 1.3010636242 1.3327968833 1.3645301425 1.3962634016 
1.4279966607 1.4597299198 1.491463179 1.5231964381 1.5549296972 1.5866629564 1.6183962155 1.6501294746 1.6818627337 
1.7135959929 1.745329252 1.7770625111 1.8087957702 1.8405290294 1.8722622885 1.9039955476 1.9357288068 1.9674620659 
1.999195325 2.0309285841 2.0626618433 2.0943951024 2.1261283615 2.1578616206 2.1895948798 2.2213281389 2.253061398 
2.2847946572 2.3165279163 2.3482611754 2.3799944345 2.4117276937 2.4434609528 2.4751942119 2.506927471 2.5386607302 
2.5703939893 2.6021272484 2.6338605076 2.6655937667 2.6973270258 2.7290602849 2.7607935441 2.7925268032 2.8242600623 
2.8559933214 2.8877265806 2.9194598397 2.9511930988 2.982926358 3.0146596171 3.0463928762 3.0781261353 3.1098593945 
3.1415926536 
_radius 1 100 double
5.9285935503e-17 0.013366709234 0.026733792387 0.040082173524 0.053379036134 0.06657544878 0.079607360784 0.092399402845 0.10487030846 
0.11693859607 0.12852741544 0.13956800166 0.15000175465 0.15978135509 0.16887143183 0.17724913545 0.18490467585 0.1918416122 
0.19807656926 0.20363813941 0.20856496464 0.21290325437 0.21670414543 0.22002125546 0.22290853115 0.22541817531 0.22759824766 
0.2294896242 0.23112237071 0.23251205553 0.23365683451 0.23453611055 0.23511123517 0.2353282896 0.23512268906 0.23442528167 
0.2331696676 0.23130045564 0.22878198009 0.22560665345 0.22180179385 0.21743362137 0.21260728607 0.2074623053 0.20216360652 
0.19688936221 0.19181771314 0.18711492617 0.18292711905 0.17937624356 0.17655894761 0.17454520003 0.17337323429 0.1730391224 
0.17348320107 0.17458046727 0.17614413083 0.17794635185 0.17975036598 0.18134302462 0.1825595496 0.18329758186 0.18352093548 
0.18325477987 0.18257447332 0.18159056938 0.18043256615 0.17923344894 0.17811601854 0.17718111857 0.1764978823 0.17609680232 
0.17596692393 0.17605813383 0.17628835993 0.17655406993 0.17674149739 0.17673600952 0.17642793096 0.17571453601 0.17449928504 
0.1726902448 0.1701997007 0.16694620085 0.16285895368 0.15788319117 0.15198439209 0.14514947293 0.13738413308 0.12870707061 
0.11914316191 0.10871832876 0.097458357872 0.085392504004 0.072560895681 0.059023357672 0.044866804841 0.030208876165 0.015196586451 
2.0665795953e-16 
_area 1 100 double
0 0.00054352762859 0.0021651415695 0.0048384901224 0.0085210744805 0.013155177891 0.018667635652 0.024968336989 0.031948252283 
0.039478361713 0.047410874068 0.055583572311 0.06382719586 0.07197479523 0.079871363858 0.087382075646 0.094398192824 0.10084084166 
0.10666374809 0.11185607054 0.11644555677 0.12050089296 0.12413092826 0.1274776601 0.13069972759 0.13394531361 0.13731956155 
0.14085794718 0.14451526441 0.14817143446 0.15165035214 0.15474810059 0.15726654257 0.1590452269 0.15997075476 0.16007533468 
0.15920330965 0.15730424717 0.15423320473 0.14997728795 0.14463471075 0.13838958862 0.13149974754 0.12427422846 0.11704561425 
0.11013822777 0.10382893866 0.098302691717 0.093619498175 0.089712420648 0.086429800546 0.083585194796 0.081060997742 0.078876113489 
0.077075017386 0.075709179497 0.07476135546 0.074130202084 0.073676160643 0.073272162104 0.07283732529 0.072335350369 0.071721861893 
0.070901209029 0.069801970572 0.068455987146 0.066992191204 0.065584536985 0.064388797752 0.063532116345 0.063136621915 0.063318624818 
0.064044163774 0.06514541028 0.066474560037 0.06792067337 0.069394974829 0.070812224112 0.072071850496 0.07304846172 0.073597780324 
0.07356887497 0.072815906018 0.071212661774 0.068671658783 0.065163427358 0.060728821017 0.055479240098 0.049584506034 0.043252837542 
0.036709701295 0.030181253556 0.023884352319 0.018021014854 0.012773404439 0.0082970633778 0.0047137318109 0.0021076724496 0.00052856337981 
3.035766083e-18 
