# vtk DataFile Version 5.1
vtk output
ASCII
DATASET POLYDATA
POINTS 100 float
0.0891228 0.0626381 0.710143 0.0893327 0.062736 0.709861 0.0900145 0.0628575 0.708847 
0.0910824 0.0630054 0.70709 0.0924041 0.0631851 0.704577 0.0938151 0.0634028 0.701289 
0.0951371 0.0636645 0.697206 0.0961973 0.0639738 0.692306 0.0968463 0.0643302 0.686574 
0.0969722 0.0647277 0.679994 0.0965101 0.0651531 0.672564 0.0954453 0.0655857 0.66429 
0.0938095 0.0659972 0.655191 0.0916724 0.0663526 0.645305 0.0891279 0.066612 0.634684 
0.0862788 0.066733 0.623396 0.0832206 0.0666741 0.611525 0.0800273 0.0663981 0.599162 
0.0767414 0.065876 0.586406 0.0733685 0.0650897 0.573353 0.0698775 0.0640352 0.560094 
0.0662068 0.0627237 0.546704 0.0622743 0.0611822 0.53324 0.057991 0.0594522 0.519736 
0.0532751 0.0575873 0.506204 0.0480653 0.0556492 0.492629 0.0423314 0.0537036 0.478977 
0.0360802 0.0518147 0.465196 0.0293562 0.0500402 0.451226 0.0222373 0.0484274 0.437002 
0.0148261 0.0470094 0.422466 0.00723693 0.0458038 0.407566 -0.00041758 0.0448124 0.392268 
-0.00804007 0.044023 0.376552 -0.0155594 0.0434129 0.360416 -0.0229374 0.0429531 0.343869 
-0.030171 0.0426138 0.326929 -0.0372882 0.0423697 0.309618 -0.044339 0.0422041 0.291954 
-0.0513828 0.0421127 0.273944 -0.0584732 0.0421051 0.255583 -0.0656421 0.0422043 0.236849 
-0.0728862 0.0424449 0.217708 -0.0801569 0.0428684 0.198112 -0.0873559 0.0435181 0.17801 
-0.0943367 0.0444333 0.157351 -0.100913 0.0456427 0.136099 -0.106869 0.0471599 0.114234 
-0.111984 0.0489796 0.0917629 -0.116043 0.0510755 0.0687244 -0.118864 0.0534016 0.0451884 
-0.120312 0.055895 0.0212542 -0.120311 0.0584805 -0.00295425 -0.118856 0.0610769 -0.0272977 
-0.116007 0.0636045 -0.0516315 -0.11189 0.0659913 -0.0758172 -0.106679 0.0681791 -0.0997328 
-0.100583 0.0701276 -0.123282 -0.0938239 0.0718161 -0.146402 -0.0866189 0.0732431 -0.169061 
-0.0791604 0.0744233 -0.191263 -0.0716023 0.0753824 -0.213041 -0.06405 0.0761507 -0.234444 
-0.056557 0.0767565 -0.255535 -0.0491275 0.0772191 -0.276373 -0.0417244 0.0775433 -0.297008 
-0.0342821 0.0777164 -0.317467 -0.026722 0.0777066 -0.337752 -0.0189682 0.077465 -0.357836 
-0.0109635 0.0769289 -0.377663 -0.00268149 0.0760289 -0.397156 0.00586505 0.0746954 -0.41622 
0.0146204 0.0728668 -0.434753 0.0234875 0.0704973 -0.452657 0.0323346 0.0675624 -0.469847 
0.0410056 0.0640632 -0.486253 0.0493329 0.0600282 -0.501832 0.0571516 0.0555119 -0.516566 
0.0643136 0.0505914 -0.530462 0.0706996 0.0453608 -0.543545 0.0762279 0.0399241 -0.555855 
0.0808603 0.0343874 -0.567439 0.0846029 0.0288523 -0.578343 0.0875034 0.0234093 -0.588607 
0.0896453 0.0181335 -0.598256 0.0911386 0.0130826 -0.607305 0.0921093 0.0082962 -0.615752 
0.0926884 0.00379805 -0.623584 0.0930016 -0.000400558 -0.630781 0.09316 -0.0042965 -0.63732 
0.0932535 -0.0078901 -0.643179 0.093347 -0.011181 -0.648348 0.0934789 -0.0141646 -0.652822 
0.093663 -0.0168308 -0.656612 0.0938923 -0.0191629 -0.65974 0.0941443 -0.0211393 -0.662233 
0.0943881 -0.0227355 -0.664127 0.0945907 -0.0239274 -0.665455 0.0947234 -0.024694 -0.666245 
0.0947671 -0.0250209 -0.666513 
LINES 2 100
OFFSETS vtktypeint64
0 100 
CONNECTIVITY vtktypeint64
0 1 2 3 4 5 6 7 8 
9 10 11 12 13 14 15 16 17 
18 19 20 21 22 23 24 25 26 
27 28 29 30 31 32 33 34 35 
36 37 38 39 40 41 42 43 44 
45 46 47 48 49 50 51 52 53 
54 55 56 57 58 59 60 61 62 
63 64 65 66 67 68 69 70 71 
72 73 74 75 76 77 78 79 80 
81 82 83 84 85 86 87 88 89 
90 91 92 93 94 95 96 97 98 
99 
POINT_DATA 100
FIELD FieldData 3
_theta 1 100 double
0 0.031733259127 0.063466518254 0.095199777382 0.12693303651 0.15866629564 0.19039955476 0.22213281389 0.25386607302 
0.28559933214 0.31733259127 0.3490658504 0.38079910953 0.41253236865 0.44426562778 0.47599888691 0.50773214603 0.53946540516 
0.57119866429 0.60293192342 0.63466518254 0.66639844167 0.6981317008 0.72986495992 0.76159821905 0.79333147818 0.82506473731 
0.85679799643 0.88853125556 0.92026451469 0.95199777382 0.98373103294 1.0154642921 1.0471975512 1.0789308103 1.1106640695 
1.1423973286 1.1741305877 1.2058638468 1.237597106 1.2693303651 1.3010636242 1.3327968833 1.3645301425 1.3962634016 
1.4279966607 1.4597299198 1.491463179 1.5231964381 1.5549296972 1.5866629564 1.6183962155 1.6501294746 1.6818627337 
1.7135959929 1.745329252 1.7770625111 1.8087957702 1.8405290294 1.8722622885 1.9039955476 1.9357288068 1.9674620659 
1.999195325 2.0309285841 2.0626618433 2.0943951024 2.1261283615 2.1578616206 2.1895948798 2.2213281389 2.253061398 
2.2847946572 2.3165279163 2.3482611754 2.3799944345 2.4117276937 2.4434609528 2.4751942119 2.506927471 2.5386607302 
2.5703939893 2.6021272484 2.6338605076 2.6655937667 2.6973270258 2.7290602849 2.7607935441 2.7925268032 2.8242600623 
2.8559933214 2.8877265806 2.9194598397 2.9511930988 2.982926358 3.0146596171 3.0463928762 3.0781261353 3.1098593945 
3.1415926536 
_radius 1 100 double
3.387999774e-16 0.014605984672 0.029077901414 0.043283292165 0.057105207462 0.070446819614 0.083233258087 0.095411476057 0.10694929036 
0.11783442206 0.12807368295 0.13769185347 0.14672959488 0.15523995589 0.16328345981 0.17092213722 0.17821308907 0.18520229427 
0.19191951113 0.19837520633 0.20456028482 0.21044887667 0.21600370562 0.22118293699 0.22594714572 0.23026520815 0.23411835577 
0.23750211069 0.24042616436 0.24291239943 0.24499126468 0.24669674097 0.24806027495 0.2491042912 0.24983613499 0.25024346684 
0.25029217176 0.24992772063 0.24908058832 0.2476757784 0.24564577921 0.24294551379 0.23956721293 0.2355527733 0.23100112793 
0.2260684924 0.22096012828 0.21591359222 0.21117530336 0.20697425818 0.20349797132 0.20087536718 0.19916929382 0.19837833942 
0.19844480433 0.19926422451 0.20069290544 0.20255353895 0.20464274266 0.20674467759 0.20865109279 0.21018385993 0.21121470371 
0.21167813898 0.21157565593 0.21097093574 0.20997725377 0.20873925898 0.2074118919 0.20613924853 0.20503580481 0.20417179711 
0.20356392605 0.20317204083 0.202902041 0.20261475485 0.20213989103 0.20129337534 0.19989574943 0.19778910853 0.19485038193 
0.19099947659 0.18620167714 0.18046452667 0.17383009009 0.16636398422 0.15814284435 0.14924199808 0.13972504878 0.12963683432 
0.1190008097 0.10782129364 0.096090251524 0.083797475222 0.070942342425 0.057544968257 0.043654599848 0.029353551552 0.014755757851 
1.0282219617e-15 
_area 1 100 double
0 0.00059322684707 0.002344359269 0.005172183345 0.0089546747469 0.013544664413 0.018785178189 0.024521493947 0.030609011256 
0.036917826897 0.043335732427 0.049771157891 0.056156740477 0.062453047353 0.068650801627 0.074769186468 0.08084809922 0.086934100996 
0.09306306582 0.099245931254 0.10546506205 0.11168487261 0.11787154135 0.12400821811 0.13009249528 0.13611555469 0.14203731383 
0.14777389954 0.15320433068 0.1581945848 0.16263087124 0.16644799559 0.16963837004 0.17223554207 0.17427815124 0.1757693825 
0.17664930976 0.17679177494 0.17602721685 0.17418459104 0.17114124425 0.16686787585 0.16145646015 0.15512281295 0.1481817634 
0.14100011983 0.13393919113 0.12730291799 0.12130688934 0.11607475347 0.11165538307 0.10804815476 0.10523412386 0.10324698261 
0.10239445908 0.10233701892 0.1027316042 0.10338800773 0.10416551426 0.10489708364 0.10535522786 0.10530324033 0.10457728852 
0.1031316096 0.10103930129 0.098465459898 0.095627066107 0.092751164181 0.090041544061 0.087661216486 0.085731770305 0.084334762408 
0.08353585243 0.083519397194 0.084044430948 0.08495218067 0.086021812896 0.086985961625 0.08758217658 0.087581591324 0.086805879218 
0.085137478899 0.08252359563 0.078974579624 0.074557581573 0.069386165356 0.063606605713 0.057382305185 0.050878707278 0.044251560235 
0.037640970238 0.03117233496 0.024963246122 0.01913341256 0.013813445585 0.0091485069744 0.0052941345715 0.0024036099554 0.00060890302205 
1.9983094578e-17 
