# vtk DataFile Version 5.1
vtk output
ASCII
DATASET POLYDATA
POINTS 100 float
0.0598567 0.048584 0.688927 0.0598791 0.0487552 0.688708 0.0599767 0.0491476 0.687867 
0.0601448 0.0497332 0.686352 0.0603758 0.0504692 0.684084 0.0606597 0.0513029 0.680973 
0.0609849 0.0521784 0.676926 0.0613387 0.0530434 0.671866 0.0617068 0.0538554 0.665742 
0.0620737 0.0545859 0.658543 0.0624209 0.0552232 0.6503 0.0627266 0.0557721 0.641093 
0.0629637 0.0562518 0.63104 0.063099 0.056691 0.620294 0.0630921 0.0571222 0.609026 
0.0628958 0.0575746 0.597416 0.0624565 0.0580681 0.585634 0.0617168 0.0586077 0.573825 
0.0606183 0.0591801 0.562105 0.0591056 0.0597532 0.550546 0.0571309 0.0602771 0.539179 
0.0546581 0.0606886 0.527995 0.051667 0.0609173 0.516951 0.0481563 0.0608923 0.505979 
0.0441445 0.0605509 0.494996 0.0396695 0.0598449 0.483917 0.0347864 0.058747 0.472666 
0.0295629 0.0572545 0.461178 0.024074 0.0553904 0.44941 0.0183953 0.0532031 0.437337 
0.012597 0.0507621 0.424954 0.00673757 0.0481534 0.412268 0.000859866 0.0454728 0.399291 
-0.00501106 0.0428193 0.386038 -0.0108678 0.0402884 0.372516 -0.0167176 0.0379667 0.358717 
-0.0225775 0.0359278 0.344624 -0.0284676 0.0342303 0.3302 -0.034403 0.0329167 0.315398 
-0.0403862 0.0320147 0.300161 -0.046401 0.0315392 0.284431 -0.0524073 0.0314944 0.26815 
-0.0583394 0.0318766 0.251269 -0.0641075 0.0326764 0.233754 -0.0696022 0.0338801 0.215582 
-0.0747018 0.03547 0.196751 -0.0792823 0.0374241 0.177271 -0.0832281 0.0397152 0.157167 
-0.0864431 0.0423094 0.136474 -0.0888604 0.045165 0.115235 -0.0904495 0.0482321 0.0934962 
-0.0912205 0.0514521 0.0713076 -0.0912241 0.0547598 0.0487215 -0.0905475 0.0580847 0.0257935 
-0.0893067 0.061355 0.00258456 -0.0876356 0.0645004 -0.0208369 -0.0856733 0.0674563 -0.0443928 
-0.0835503 0.0701671 -0.0679944 -0.0813762 0.0725882 -0.0915424 -0.0792292 0.0746877 -0.114929 
-0.0771487 0.0764458 -0.138044 -0.0751328 0.0778537 -0.160775 -0.0731394 0.0789106 -0.183023 
-0.0710927 0.0796206 -0.204701 -0.0688924 0.0799891 -0.225748 -0.0664269 0.0800194 -0.246128 
-0.0635874 0.0797105 -0.265836 -0.0602815 0.0790563 -0.284899 -0.0564468 0.0780457 -0.303365 
-0.0520598 0.0766655 -0.321304 -0.0471431 0.0749029 -0.338797 -0.0417659 0.0727505 -0.355919 
-0.0360418 0.0702106 -0.372736 -0.030121 0.0672995 -0.389292 -0.0241792 0.0640502 -0.405601 
-0.0184041 0.0605147 -0.421643 -0.0129807 0.0567627 -0.437366 -0.00807638 0.0528797 -0.452685 
-0.00382811 0.0489622 -0.467497 -0.000332098 0.045112 -0.481684 0.00236276 0.0414292 -0.495128 
0.00425725 0.0380052 -0.507723 0.00539984 0.0349161 -0.519386 0.00588077 0.0322181 -0.530061 
0.00582268 0.0299439 -0.539731 0.00536897 0.0281017 -0.548409 0.00467087 0.0266765 -0.556144 
0.00387457 0.0256333 -0.563007 0.00310951 0.0249217 -0.569086 0.00247892 0.024482 -0.574473 
0.00205333 0.024251 -0.579255 0.00186751 0.0241676 -0.583506 0.00192105 0.0241772 -0.587278 
0.00218226 0.024235 -0.590602 0.00259495 0.0243072 -0.593484 0.00308718 0.0243708 -0.595913 
0.00358121 0.0244124 -0.597863 0.0040035 0.0244257 -0.599302 0.00429376 0.0244087 -0.600201 
0.00441216 0.0243617 -0.600539 
LINES 2 100
OFFSETS vtktypeint64
0 100 
CONNECTIVITY vtktypeint64
0 1 2 3 4 5 6 7 8 
9 10 11 12 13 14 15 16 17 
18 19 20 21 22 23 24 25 26 
27 28 29 30 31 32 33 34 35 
36 37 38 39 40 41 42 43 44 
45 46 47 48 49 50 51 52 53 
54 55 56 57 58 59 60 61 62 
63 64 65 66 67 68 69 70 71 
72 73 74 75 76 77 78 79 80 
81 82 83 84 85 86 87 88 89 
90 91 92 93 94 95 96 97 98 
99 
POINT_DATA 100
FIELD FieldData 3
_theta 1 100 double
0 0.031733259127 0.063466518254 0.095199777382 0.12693303651 0.15866629564 0.19039955476 0.22213281389 0.25386607302 
0.28559933214 0.31733259127 0.3490658504 0.38079910953 0.41253236865 0.44426562778 0.47599888691 0.50773214603 0.53946540516 
0.57119866429 0.60293192342 0.63466518254 0.66639844167 0.6981317008 0.72986495992 0.76159821905 0.79333147818 0.82506473731 
0.85679799643 0.88853125556 0.92026451469 0.95199777382 0.98373103294 1.0154642921 1.0471975512 1.0789308103 1.1106640695 
1.1423973286 1.1741305877 1.2058638468 1.237597106 1.2693303651 1.3010636242 1.3327968833 1.3645301425 1.3962634016 
1.4279966607 1.4597299198 1.491463179 1.5231964381 1.5549296972 1.5866629564 1.6183962155 1.6501294746 1.6818627337 
1.7135959929 1.745329252 1.7770625111 1.8087957702 1.8405290294 1.8722622885 1.9039955476 1.9357288068 1.9674620659 
1.999195325 2.0309285841 2.0626618433 2.0943951024 2.1261283615 2.1578616206 2.1895948798 2.2213281389 2.253061398 
2.2847946572 2.3165279163 2.3482611754 2.3799944345 2.4117276937 2.4434609528 2.4751942119 2.506927471 2.5386607302 
2.5703939893 2.6021272484 2.6338605076 2.6655937667 2.6973270258 2.7290602849 2.7607935441 2.7925268032 2.8242600623 
2.8559933214 2.8877265806 2.9194598397 2.9511930988 2.982926358 3.0146596171 3.0463928762 3.0781261353 3.1098593945 
3.1415926536 
_radius 1 100 double
5.562379397e-16 0.013826117906 0.027543789503 0.041048813269 0.054249176894 0.067070138536 0.079458326265 0.091384327295 0.1028429162 
0.1138499974 0.1244358737 0.13463564805 0.14447892449 0.15398165588 0.16314245153 0.17194415828 0.18035985295 0.18836118457 
0.19592650232 0.20304637697 0.20972490184 0.21597641461 0.22181873266 0.22726522537 0.23231860043 0.23696883226 0.2411962186 
0.24497860597 0.24830018076 0.25115855956 0.25356741476 0.25555323431 0.25714654217 0.25836960272 0.25922402717 0.25968242197 
0.25968766564 0.25916120513 0.25801861059 0.2561881547 0.25362763639 0.25033590261 0.24635749249 0.24178063307 0.23673007429 
0.23135689917 0.22582749001 0.22031333217 0.21498250244 0.20999287592 0.20548662045 0.20158553248 0.19838705053 0.19596109296 
0.19434795849 0.19355727348 0.1935674882 0.1943251878 0.19574405081 0.19770457746 0.2000567159 0.20262717537 0.20523155767 
0.20768955945 0.20984048423 0.21155642607 0.21275131161 0.21338493364 0.21346181813 0.21302515973 0.21214626428 0.2109102349 
0.20939937854 0.20767701401 0.20577514992 0.20368852077 0.20137499501 0.19876084251 0.1957498479 0.1922356863 0.18811595019 
0.18330514173 0.17774409589 0.17140429956 0.16428679454 0.15641673514 0.147836054 0.13859716488 0.12875941343 0.11838788927 
0.10755294071 0.096328861375 0.084791024182 0.073011536166 0.061054247109 0.048970732372 0.03679912374 0.024566553176 0.012293867308 
1.9821750903e-16 
_area 1 100 double
0 0.00053243439498 0.0021199945412 0.0047315285838 0.0083095348853 0.012765092541 0.017977571683 0.023803927654 0.030098829907 
0.036740392417 0.04364869143 0.050780975036 0.05809948282 0.065533462567 0.072965319054 0.080249931655 0.087256012168 0.093913939339 
0.10025625942 0.10643691351 0.11271337665 0.1193818825 0.12667865918 0.13468482632 0.14327401165 0.15212035128 0.16075900397 
0.16867647394 0.17540758291 0.18062236281 0.18419136485 0.18622132833 0.18705669644 0.18723956779 0.18739905823 0.18802745413 
0.1892055877 0.1905289332 0.19134165109 0.19103476011 0.18921474205 0.18574986499 0.18074538147 0.17448054984 0.16733071017 
0.15969417153 0.15193805446 0.14436798376 0.13721776255 0.13065232605 0.1247784752 0.11965675986 0.115308672 0.11172086482 
0.10885380477 0.10666190338 0.10512460837 0.10426687767 0.10413995134 0.10475827247 0.10602070501 0.10767304136 0.10934911726 
0.11065842374 0.11126348166 0.11092673773 0.10953476741 0.10710750803 0.1037941388 0.09985595147 0.095638874098 0.091539644517 
0.087959678879 0.085228788451 0.083511586846 0.082741397935 0.082629101557 0.082760523187 0.082706089806 0.082093291751 0.080652148101 
0.07824018539 0.074842127058 0.070544723351 0.065501446036 0.059906607296 0.053976702796 0.047906625302 0.041807125634 0.035734067759 
0.029776798197 0.024071695925 0.018767576571 0.013994390762 0.0098470874879 0.0063839054772 0.0036379174596 0.0016362974995 0.00041262626225 
4.0643267455e-18 
