# vtk DataFile Version 5.1
vtk output
ASCII
DATASET POLYDATA
POINTS 100 float
0.151495 0.0288979 0.65759 0.151467 0.0289775 0.657279 0.151464 0.0291063 0.656246 
0.15145 0.0292961 0.654513 0.15137 0.0295647 0.652113 0.151156 0.0299335 0.649086 
0.150735 0.0304232 0.645469 0.150035 0.0310507 0.641293 0.148994 0.031825 0.636575 
0.147564 0.0327439 0.631314 0.145716 0.0337926 0.625494 0.143439 0.0349422 0.619087 
0.140741 0.0361507 0.612053 0.137639 0.0373651 0.604356 0.134159 0.0385253 0.595966 
0.130329 0.0395686 0.58687 0.126172 0.0404355 0.577077 0.121703 0.0410754 0.566622 
0.116925 0.0414518 0.555565 0.111834 0.0415469 0.543992 0.106414 0.0413645 0.532 
0.100649 0.0409311 0.519698 0.0945243 0.0402951 0.507188 0.0880309 0.0395234 0.494562 
0.081174 0.0386965 0.481888 0.0739741 0.0379024 0.469208 0.0664684 0.0372285 0.456538 
0.0587093 0.0367546 0.443862 0.0507601 0.0365454 0.431146 0.0426892 0.0366451 0.418339 
0.0345622 0.0370732 0.405384 0.0264353 0.0378232 0.392227 0.0183483 0.0388635 0.378822 
0.0103209 0.0401407 0.365139 0.00235102 0.0415857 0.35116 -0.00558235 0.0431202 0.336881 
-0.013514 0.0446653 0.322304 -0.0214839 0.046149 0.307428 -0.0295261 0.0475137 0.292247 
-0.0376583 0.0487211 0.276736 -0.0458708 0.049756 0.260848 -0.0541185 0.0506265 0.244516 
-0.0623163 0.0513624 0.227651 -0.0703389 0.0520109 0.210156 -0.0780252 0.0526306 0.191927 
-0.0851878 0.0532839 0.172879 -0.0916258 0.0540306 0.152949 -0.0971411 0.05492 0.132114 
-0.101555 0.0559863 0.1104 -0.104723 0.0572449 0.0878853 -0.106551 0.0586911 0.0646989 
-0.107001 0.0603016 0.0410126 -0.1061 0.0620376 0.0170273 -0.103932 0.0638497 -0.00704421 
-0.100637 0.0656836 -0.0309974 -0.096397 0.0674863 -0.0546556 -0.0914171 0.069211 -0.0778863 
-0.0859122 0.0708209 -0.100613 -0.0800866 0.0722912 -0.122819 -0.0741184 0.073609 -0.144545 
-0.0681466 0.074771 -0.165882 -0.0622625 0.0757799 -0.186948 -0.0565064 0.0766393 -0.207875 
-0.0508698 0.0773484 -0.228781 -0.0453026 0.0778976 -0.249753 -0.0397236 0.0782651 -0.270828 
-0.0340341 0.0784147 -0.291988 -0.0281327 0.0782972 -0.313149 -0.0219288 0.0778529 -0.334175 
-0.0153551 0.0770165 -0.354889 -0.00837631 0.075724 -0.375092 -0.000994116 0.0739198 -0.394584 
0.00675133 0.0715638 -0.413193 0.0147844 0.0686381 -0.430789 0.0230001 0.0651512 -0.447302 
0.0312724 0.0611404 -0.462729 0.0394639 0.0566709 -0.47713 0.0474363 0.0518331 -0.490621 
0.0550593 0.0467364 -0.503353 0.0622188 0.0415022 -0.515494 0.0688223 0.0362549 -0.527199 
0.0748026 0.0311135 -0.538593 0.0801184 0.0261838 -0.549745 0.0847543 0.021552 -0.560665 
0.0887173 0.0172806 -0.571295 0.0920341 0.0134068 -0.581518 0.0947462 0.00994364 -0.591173 
0.0969064 0.0068827 -0.600077 0.0985747 0.0041993 -0.608048 0.0998147 0.00185823 -0.614934 
0.100692 -0.000180156 -0.620632 0.101269 -0.00195444 -0.625107 0.101609 -0.00349768 -0.6284 
0.101768 -0.00483462 -0.630621 0.1018 -0.00598056 -0.631943 0.101752 -0.00694192 -0.632581 
0.101664 -0.00771813 -0.632762 0.10157 -0.00830429 -0.632705 0.101493 -0.00869416 -0.632587 
0.101449 -0.00888271 -0.632524 
LINES 2 100
OFFSETS vtktypeint64
0 100 
CONNECTIVITY vtktypeint64
0 1 2 3 4 5 6 7 8 
9 10 11 12 13 14 15 16 17 
18 19 20 21 22 23 24 25 26 
27 28 29 30 31 32 33 34 35 
36 37 38 39 40 41 42 43 44 
45 46 47 48 49 50 51 52 53 
54 55 56 57 58 59 60 61 62 
63 64 65 66 67 68 69 70 71 
72 73 74 75 76 77 78 79 80 
81 82 83 84 85 86 87 88 89 
90 91 92 93 94 95 96 97 98 
99 
POINT_DATA 100
FIELD FieldData 3
_theta 1 100 double
0 0.031733259127 0.063466518254 0.095199777382 0.12693303651 0.15866629564 0.19039955476 0.22213281389 0.25386607302 
0.28559933214 0.31733259127 0.3490658504 0.38079910953 0.41253236865 0.44426562778 0.47599888691 0.50773214603 0.53946540516 
0.57119866429 0.60293192342 0.63466518254 0.66639844167 0.6981317008 0.72986495992 0.76159821905 0.79333147818 0.82506473731 
0.85679799643 0.88853125556 0.92026451469 0.95199777382 0.98373103294 1.0154642921 1.0471975512 1.0789308103 1.1106640695 
1.1423973286 1.1741305877 1.2058638468 1.237597106 1.2693303651 1.3010636242 1.3327968833 1.3645301425 1.3962634016 
1.4279966607 1.4597299198 1.491463179 1.5231964381 1.5549296972 1.5866629564 1.6183962155 1.6501294746 1.6818627337 
1.7135959929 1.745329252 1.7770625111 1.8087957702 1.8405290294 1.8722622885 1.9039955476 1.9357288068 1.9674620659 
1.999195325 2.0309285841 2.0626618433 2.0943951024 2.1261283615 2.1578616206 2.1895948798 2.2213281389 2.253061398 
2.2847946572 2.3165279163 2.3482611754 2.3799944345 2.4117276937 2.4434609528 2.4751942119 2.506927471 2.5386607302 
2.5703939893 2.6021272484 2.6338605076 2.6655937667 2.6973270258 2.7290602849 2.7607935441 2.7925268032 2.8242600623 
2.8559933214 2.8877265806 2.9194598397 2.9511930988 2.982926358 3.0146596171 3.0463928762 3.0781261353 3.1098593945 
3.1415926536 
_radius 1 100 double
5.9932122825e-16 0.014431315085 0.028722785765 0.042745504953 0.056390293939 0.069572959702 0.082235404557 0.09434313695 0.10588061163 
0.11684615201 0.12724783025 0.13710075952 0.14642523282 0.15524455581 0.16358160263 0.17145400973 0.17886905047 0.18581998254 
0.19228560079 0.19823386181 0.20362915793 0.20844163438 0.21265629097 0.21627968156 0.21934274554 0.22189937467 0.22402133034 
0.22579074331 0.22729152482 0.22860072661 0.22978048923 0.23087097008 0.23188464627 0.23280256837 0.23357331138 0.23411534952 
0.23432330521 0.23407805237 0.2332600929 0.23176505146 0.2295196236 0.22649598155 0.22272260125 0.21828973979 0.21334827903 
0.20810127431 0.20278833428 0.19766401491 0.19297272467 0.18892385543 0.18567138947 0.18330168005 0.1818314392 0.18121537036 
0.18135988956 0.18213738497 0.1833962712 0.18496608304 0.18666159797 0.18829153581 0.18967411709 0.19065657203 0.19113293363 
0.19105536361 0.19043693681 0.18934617479 0.18789498 0.18622223682 0.1844756292 0.18279431548 0.18129482287 0.18006162325 
0.17914236713 0.1785462965 0.17824391849 0.17816705974 0.17821013824 0.17823444002 0.17807667059 0.17756155577 0.17651675071 
0.17478743407 0.17224791838 0.16880831178 0.16441546483 0.15904877929 0.15271257645 0.14542733507 0.13722207101 0.12812948776 
0.1181845071 0.1074257346 0.095898658711 0.083659124314 0.070775857446 0.057331371322 0.043421198264 0.029151847955 0.014638078991 
9.0377937832e-16 
_area 1 100 double
0 0.00043205612925 0.0017170929069 0.0038240962127 0.0067079484777 0.010315503134 0.014589154457 0.019466974557 0.024880380792 
0.030751199668 0.036990108599 0.043498116345 0.050171857785 0.056911959341 0.063632066485 0.070265216404 0.076764839379 0.083099741312 
0.089244977448 0.095172407688 0.10084534632 0.106220675 0.11125857153 0.1159355792 0.12025388426 0.12424028234 0.12793373774 
0.13137197029 0.13459198441 0.13764028222 0.14057329008 0.14344051024 0.14625831615 0.14898648884 0.15151742745 0.15368288619 
0.15527594456 0.15608105902 0.1559058172 0.15461063484 0.15213246753 0.14849680771 0.14381315673 0.13825510838 0.13203458161 
0.12538266043 0.11854155596 0.11176255533 0.10530430657 0.099426824898 0.094369401495 0.09029956241 0.087263215509 0.085206206094 
0.084046781543 0.083703102371 0.084018994395 0.084737396011 0.08557262326 0.086267254379 0.086630262787 0.086527158763 0.08585321994 
0.084551458394 0.082648701015 0.080257441325 0.077551824248 0.074734737363 0.072010427686 0.069572653012 0.06760591932 0.066315775957 
0.065711210385 0.065783878494 0.066540311026 0.067907788943 0.069734280792 0.071762001007 0.073682554849 0.075192140313 0.076023665087 
0.075973513231 0.074917388066 0.072813097699 0.069691759083 0.06564136096 0.060788028564 0.055280070071 0.049277917171 0.042950189605 
0.036473551813 0.030032816571 0.023818210317 0.018018458429 0.012810618986 0.0083495046998 0.0047601140042 0.0021351011525 0.00053662766609 
4.2725162615e-17 
