# vtk DataFile Version 5.1
vtk output
ASCII
DATASET POLYDATA
POINTS 100 float
0.0987804 0.044339 0.626667 0.0987893 0.0445164 0.626515 0.0988691 0.0448829 0.625891 
0.0989914 0.0454144 0.624773 0.0991125 0.0460742 0.623127 0.099178 0.0468171 0.620912 
0.099128 0.0475946 0.618082 0.0989031 0.0483595 0.614594 0.0984495 0.0490705 0.610412 
0.0977239 0.0496944 0.60551 0.0966961 0.0502078 0.599878 0.0953507 0.0505959 0.593523 
0.0936862 0.0508509 0.586471 0.091713 0.0509681 0.578762 0.0894494 0.0509427 0.570453 
0.0869181 0.0507662 0.56161 0.0841407 0.0504242 0.552301 0.0811341 0.0498965 0.542597 
0.0779076 0.0491577 0.532562 0.0744609 0.0481815 0.522249 0.0707842 0.0469449 0.511696 
0.0668597 0.0454344 0.500927 0.0626647 0.0436518 0.489947 0.0581756 0.0416188 0.47875 
0.0533718 0.03938 0.467315 0.04824 0.0370037 0.455615 0.0427772 0.0345787 0.443619 
0.0369926 0.0322095 0.431299 0.0309076 0.0300086 0.418633 0.0245542 0.0280868 0.405606 
0.0179715 0.0265441 0.392216 0.0112019 0.0254599 0.378469 0.00428549 0.0248867 0.364382 
-0.0027445 0.0248451 0.349974 -0.00986564 0.0253238 0.335267 -0.0170687 0.0262817 0.320277 
-0.0243582 0.0276546 0.305012 -0.0317497 0.0293635 0.289467 -0.0392663 0.0313249 0.27362 
-0.0469315 0.0334604 0.257436 -0.0547615 0.0357062 0.240864 -0.0627569 0.0380184 0.223843 
-0.0708949 0.0403769 0.20631 -0.0791218 0.0427837 0.188202 -0.0873498 0.0452591 0.169466 
-0.0954549 0.0478339 0.150066 -0.10328 0.0505404 0.12999 -0.11064 0.0534026 0.109253 
-0.11733 0.0564273 0.087897 -0.123142 0.0595978 0.0659936 -0.127873 0.0628706 0.0436384 
-0.131339 0.0661761 0.0209457 -0.133394 0.0694237 -0.00195934 -0.133935 0.0725094 -0.024949 
-0.132913 0.075327 -0.0479015 -0.130338 0.0777792 -0.0707086 -0.126276 0.0797885 -0.0932816 
-0.120846 0.0813063 -0.115555 -0.11421 0.0823181 -0.137486 -0.106562 0.0828447 -0.159057 
-0.0981158 0.0829387 -0.180265 -0.0890855 0.082677 -0.201123 -0.0796748 0.08215 -0.221647 
-0.0700632 0.0814489 -0.241852 -0.060397 0.0806523 -0.261748 -0.0507827 0.0798159 -0.281329 
-0.0412858 0.0789632 -0.300578 -0.0319331 0.0780821 -0.319461 -0.0227183 0.0771255 -0.337933 
-0.0136109 0.0760171 -0.355937 -0.00456715 0.0746615 -0.373415 0.00445957 0.0729567 -0.390311 
0.0135075 0.0708083 -0.406575 0.022598 0.0681432 -0.422168 0.0317287 0.0649207 -0.437066 
0.0408709 0.0611403 -0.45126 0.0499691 0.0568441 -0.464753 0.0589441 0.0521149 -0.477556 
0.0676992 0.0470685 -0.489685 0.0761278 0.0418436 -0.501155 0.0841218 0.0365875 -0.511972 
0.0915808 0.0314425 -0.522134 0.0984199 0.0265326 -0.531622 0.104576 0.0219533 -0.540408 
0.110011 0.0177646 -0.548449 0.114715 0.0139899 -0.555699 0.118705 0.010618 -0.562112 
0.12202 0.00761029 -0.567651 0.124718 0.00491065 -0.572296 0.12687 0.00245655 -0.576051 
0.128553 0.000190436 -0.578947 0.129847 -0.00193079 -0.581047 0.130824 -0.00392915 -0.582444 
0.131551 -0.00580273 -0.583255 0.132083 -0.00752686 -0.583614 0.132463 -0.00905887 -0.583662 
0.132725 -0.0103457 -0.583537 0.132891 -0.0113329 -0.58336 0.132976 -0.0119738 -0.583227 
0.132988 -0.0122374 -0.583195 
LINES 2 100
OFFSETS vtktypeint64
0 100 
CONNECTIVITY vtktypeint64
0 1 2 3 4 5 6 7 8 
9 10 11 12 13 14 15 16 17 
18 19 20 21 22 23 24 25 26 
27 28 29 30 31 32 33 34 35 
36 37 38 39 40 41 42 43 44 
45 46 47 48 49 50 51 52 53 
54 55 56 57 58 59 60 61 62 
63 64 65 66 67 68 69 70 71 
72 73 74 75 76 77 78 79 80 
81 82 83 84 85 86 87 88 89 
90 91 92 93 94 95 96 97 98 
99 
POINT_DATA 100
FIELD FieldData 3
_theta 1 100 double
0 0.031733259127 0.063466518254 0.095199777382 0.12693303651 0.15866629564 0.19039955476 0.22213281389 0.25386607302 
0.28559933214 0.31733259127 0.3490658504 0.38079910953 0.41253236865 0.44426562778 0.47599888691 0.50773214603 0.53946540516 
0.57119866429 0.60293192342 0.63466518254 0.66639844167 0.6981317008 0.72986495992 0.76159821905 0.79333147818 0.82506473731 
0.85679799643 0.88853125556 0.92026451469 0.95199777382 0.98373103294 1.0154642921 1.0471975512 1.0789308103 1.1106640695 
1.1423973286 1.1741305877 1.2058638468 1.237597106 1.2693303651 1.3010636242 1.3327968833 1.3645301425 1.3962634016 
1.4279966607 1.4597299198 1.491463179 1.5231964381 1.5549296972 1.5866629564 1.6183962155 1.6501294746 1.6818627337 
1.7135959929 1.745329252 1.7770625111 1.8087957702 1.8405290294 1.8722622885 1.9039955476 1.9357288068 1.9674620659 
1.999195325 2.0309285841 2.0626618433 2.0943951024 2.1261283615 2.1578616206 2.1895948798 2.2213281389 2.253061398 
2.2847946572 2.3165279163 2.3482611754 2.3799944345 2.4117276937 2.4434609528 2.4751942119 2.506927471 2.5386607302 
2.5703939893 2.6021272484 2.6338605076 2.6655937667 2.6973270258 2.7290602849 2.7607935441 2.7925268032 2.8242600623 
2.8559933214 2.8877265806 2.9194598397 2.9511930988 2.982926358 3.0146596171 3.0463928762 3.0781261353 3.1098593945 
3.1415926536 
_radius 1 100 double
5.8702386263e-16 0.013930875931 0.027834601928 0.041672892232 0.055399613151 0.068959525662 0.082289194854 0.095319815372 0.10798136163 
0.12020735192 0.13193955602 0.14313207327 0.15375429814 0.16379238027 0.17324891677 0.18214080364 0.19049539052 0.19834528345 
0.20572231024 0.21265133048 0.21914476306 0.22519887082 0.23079284974 0.23589146009 0.24045125501 0.2444295402 0.24779433117 
0.25053308973 0.25265812883 0.25420727637 0.25523948443 0.25582623874 0.25604052982 0.25594555075 0.25558512657 0.25497730102 
0.25411180053 0.25295154284 0.25143807403 0.24950069764 0.24706887366 0.24408702176 0.24053013345 0.23641774864 0.2318232074 
0.22687508619 0.22174881769 0.21664884618 0.21178466444 0.2073461843 0.20348378774 0.20029642064 0.19782876762 0.1960766966 
0.1949984828 0.19452782028 0.19458422793 0.19507796444 0.19590969544 0.19696854066 0.19813377065 0.19928376038 0.20031149584 
0.20114194444 0.20174542525 0.20214267537 0.20240007511 0.20261620081 0.20290280303 0.20336408545 0.20407781732 0.20508077532 
0.20635984056 0.20784916859 0.20943327687 0.21095547133 0.21223055515 0.2130602124 0.21324904319 0.21261918832 0.21102189242 
0.20834506371 0.20451663934 0.1995041531 0.19331124611 0.18597197792 0.17754374482 0.16809947702 0.15771966928 0.1464848035 
0.13446887588 0.12173495734 0.10833380289 0.094306291081 0.079689819478 0.064527745619 0.048879770735 0.032830264852 0.016491505489 
8.7530510884e-16 
_area 1 100 double
0 0.00055458403205 0.0022111164348 0.0049465263206 0.0087185411049 0.013462565072 0.019091061793 0.025496611525 0.032558137466 
0.040148468529 0.048141062243 0.056414374459 0.064853655991 0.07335133961 0.081807875781 0.090134251841 0.098255855302 0.10611596613 
0.1136767777 0.12091654671 0.127823069 0.13438574858 0.14059009758 0.14641814494 0.1518549873 0.15689668726 0.16155193777 
0.16583346998 0.16974266467 0.17325499496 0.1763146965 0.17884450834 0.18076521718 0.18201183354 0.18253969675 0.18232303318 
0.18135089005 0.17962351427 0.17715015671 0.17394823759 0.17004378263 0.16547372365 0.1602912471 0.15457453252 0.14843664617 
0.14203222561 0.13555749076 0.12924317322 0.12334070182 0.11809659491 0.11370362651 0.11023434547 0.10760904061 0.10564222655 
0.10412104269 0.10284614951 0.10163416339 0.10031664535 0.098756206087 0.096877961327 0.094701182483 0.092350756802 0.090030780602 
0.087955104261 0.086257132251 0.084947485001 0.083969049026 0.083272055106 0.082836288379 0.082664260875 0.082775703176 0.083208145349 
0.084019384898 0.08528505397 0.087078222715 0.089390701597 0.092014621888 0.094602772643 0.096812304797 0.098340380268 0.098922587837 
0.098338941978 0.096429049507 0.093110509733 0.088393203851 0.08238360344 0.0752769813 0.067339011604 0.058880159776 0.050226858355 
0.041693545448 0.033559314854 0.026052039996 0.019341630524 0.013542895735 0.0087269361425 0.0049372939243 0.0022044138351 0.0005527593845 
5.7496185269e-17 
