# vtk DataFile Version 5.1
vtk output
ASCII
DATASET POLYDATA
POINTS 100 float
0.0433258 0.0627074 0.687797 0.0433482 0.0628947 0.687537 0.0434627 0.0632827 0.686612 
0.043672 0.0638374 0.685046 0.0439801 0.0645063 0.682875 0.044391 0.0652233 0.68014 
0.0449082 0.065915 0.676879 0.0455324 0.066508 0.673125 0.0462609 0.0669358 0.668893 
0.0470852 0.0671452 0.664182 0.0479904 0.0671014 0.65897 0.0489532 0.0667914 0.653217 
0.0499422 0.0662252 0.646873 0.0509169 0.0654346 0.639879 0.0518282 0.0644701 0.632181 
0.0526198 0.0633953 0.623737 0.0532295 0.0622805 0.614523 0.0535921 0.0611954 0.604544 
0.0536418 0.0602013 0.593831 0.053316 0.0593446 0.582447 0.052559 0.0586511 0.570477 
0.0513253 0.058123 0.558025 0.0495834 0.0577374 0.545204 0.0473181 0.057448 0.532127 
0.0445325 0.0571891 0.518893 0.0412488 0.0568817 0.505582 0.0375069 0.0564408 0.492247 
0.0333631 0.0557845 0.478912 0.0288855 0.0548421 0.465569 0.0241497 0.0535623 0.452187 
0.0192329 0.0519192 0.438712 0.0142074 0.0499168 0.425083 0.00913418 0.0475902 0.411234 
0.00405785 0.0450048 0.397109 -0.000998079 0.0422519 0.382665 -0.00603348 0.0394433 0.367876 
-0.0110718 0.0367029 0.352738 -0.0161579 0.0341582 0.337265 -0.021353 0.0319309 0.321484 
-0.026728 0.0301292 0.30543 -0.0323546 0.0288398 0.289133 -0.0382952 0.0281239 0.272617 
-0.0445936 0.0280136 0.255889 -0.0512656 0.0285117 0.238934 -0.0582916 0.0295936 0.221716 
-0.0656125 0.031211 0.204176 -0.0731279 0.0332971 0.186244 -0.080699 0.0357723 0.167839 
-0.0881543 0.0385504 0.148882 -0.0952992 0.0415446 0.129305 -0.101928 0.0446718 0.109063 
-0.107837 0.047856 0.0881384 -0.11284 0.0510311 0.0665481 -0.116779 0.0541409 0.0443442 
-0.119538 0.0571393 0.0216129 -0.121049 0.0599889 -0.00153107 -0.121296 0.0626592 -0.024952 
-0.120315 0.0651251 -0.0485031 -0.118191 0.0673653 -0.0720373 -0.115047 0.0693613 -0.0954169 
-0.111034 0.0710967 -0.118523 -0.106315 0.0725575 -0.141263 -0.101058 0.0737327 -0.163572 
-0.0954159 0.0746145 -0.185418 -0.0895218 0.0751989 -0.206794 -0.0834779 0.0754864 -0.227721 
-0.0773541 0.0754813 -0.248236 -0.0711876 0.0751908 -0.268388 -0.0649873 0.0746242 -0.288229 
-0.058741 0.0737906 -0.307808 -0.0524248 0.0726977 -0.327165 -0.0460129 0.0713498 -0.346328 
-0.0394874 0.0697471 -0.365304 -0.0328462 0.0678858 -0.384087 -0.0261087 0.0657585 -0.40265 
-0.0193174 0.0633569 -0.42095 -0.0125373 0.0606747 -0.438929 -0.00585119 0.0577109 -0.456514 
0.000647419 0.0544739 -0.473626 0.00686277 0.0509852 -0.490172 0.0127061 0.0472822 -0.506057 
0.0181044 0.0434191 -0.521185 0.0230069 0.0394667 -0.535457 0.0273895 0.0355101 -0.548782 
0.0312565 0.0316444 -0.561075 0.0346378 0.0279685 -0.572265 0.0375847 0.0245779 -0.582299 
0.0401625 0.0215576 -0.591146 0.0424423 0.0189745 -0.598797 0.0444921 0.0168711 -0.605274 
0.046369 0.0152619 -0.610627 0.0481133 0.0141314 -0.61493 0.0497448 0.0134351 -0.618285 
0.0512619 0.0131035 -0.620809 0.0526443 0.0130488 -0.622633 0.0538569 0.0131728 -0.623888 
0.0548573 0.0133773 -0.624701 0.0556019 0.013573 -0.625181 0.0560539 0.0136891 -0.625412 
0.0561886 0.01368 -0.62545 
LINES 2 100
OFFSETS vtktypeint64
0 100 
CONNECTIVITY vtktypeint64
0 1 2 3 4 5 6 7 8 
9 10 11 12 13 14 15 16 17 
18 19 20 21 22 23 24 25 26 
27 28 29 30 31 32 33 34 35 
36 37 38 39 40 41 42 43 44 
45 46 47 48 49 50 51 52 53 
54 55 56 57 58 59 60 61 62 
63 64 65 66 67 68 69 70 71 
72 73 74 75 76 77 78 79 80 
81 82 83 84 85 86 87 88 89 
90 91 92 93 94 95 96 97 98 
99 
POINT_DATA 100
FIELD FieldData 3
_theta 1 100 double
0 0.031733259127 0.063466518254 0.095199777382 0.12693303651 0.15866629564 0.19039955476 0.22213281389 0.25386607302 
0.28559933214 0.31733259127 0.3490658504 0.38079910953 0.41253236865 0.44426562778 0.47599888691 0.50773214603 0.53946540516 
0.57119866429 0.60293192342 0.63466518254 0.66639844167 0.6981317008 0.72986495992 0.76159821905 0.79333147818 0.82506473731 
0.85679799643 0.88853125556 0.92026451469 0.95199777382 0.98373103294 1.0154642921 1.0471975512 1.0789308103 1.1106640695 
1.1423973286 1.1741305877 1.2058638468 1.237597106 1.2693303651 1.3010636242 1.3327968833 1.3645301425 1.3962634016 
1.4279966607 1.4597299198 1.491463179 1.5231964381 1.5549296972 1.5866629564 1.6183962155 1.6501294746 1.6818627337 
1.7135959929 1.745329252 1.7770625111 1.8087957702 1.8405290294 1.8722622885 1.9039955476 1.9357288068 1.9674620659 
1.999195325 2.0309285841 2.0626618433 2.0943951024 2.1261283615 2.1578616206 2.1895948798 2.2213281389 2.253061398 
2.2847946572 2.3165279163 2.3482611754 2.3799944345 2.4117276937 2.4434609528 2.4751942119 2.506927471 2.5386607302 
2.5703939893 2.6021272484 2.6338605076 2.6655937667 2.6973270258 2.7290602849 2.7607935441 2.7925268032 2.8242600623 
2.8559933214 2.8877265806 2.9194598397 2.9511930988 2.982926358 3.0146596171 3.0463928762 3.0781261353 3.1098593945 
3.1415926536 
_radius 1 100 double
1.0054454872e-15 0.012347032064 0.02477476621 0.037341321283 0.050070089895 0.062938852515 0.075875630222 0.088761987211 0.10144336385 
0.11374495522 0.12549084542 0.13652367948 0.14672213132 0.15601377506 0.16438162443 0.17186349198 0.17854434088 0.18454283032 
0.1899941223 0.19503154341 0.1997697496 0.20429162367 0.20864039837 0.21281768066 0.21678733515 0.22048459121 0.22382918164 
0.22674074736 0.22915423729 0.2310328011 0.23237590899 0.23322118808 0.23363959848 0.2337247977 0.23357854866 0.23329459721 
0.23294353577 0.23256088116 0.23214007891 0.23163150383 0.23094778788 0.22997499918 0.22858841406 0.2266710015 0.22413236298 
0.22092574796 0.21706087603 0.21261064986 0.20771045166 0.20254953955 0.19735498553 0.19236953609 0.18782579523 0.18392033516 
0.18079239145 0.17851158966 0.17707669576 0.17642351087 0.17643743064 0.17696678999 0.17783587048 0.17885851405 0.17985307066 
0.18065779043 0.1811445438 0.18122871305 0.18087387592 0.1800908594 0.17893154753 0.17747843226 0.17583133704 0.17409302261 
0.17235546597 0.17068844789 0.16913168235 0.16769112668 0.16633944197 0.16501995628 0.16365299177 0.16214314745 0.16038623768 
0.15827510541 0.15570420948 0.1525733678 0.14879113417 0.14427805384 0.13896968859 0.13281904012 0.12579796565 0.11789738009 
0.10912637813 0.099510727741 0.089091337316 0.077923205366 0.066075060642 0.053629514656 0.040683232067 0.027346492832 0.013741615468 
4.1701726103e-16 
_area 1 100 double
0 0.00040894163054 0.0016432822447 0.0037220808605 0.0066663121392 0.010485458644 0.015163666099 0.020648919472 0.026847833407 
0.033627145407 0.040821571914 0.04824685348 0.055716450936 0.063060011287 0.070141213147 0.076872096552 0.083220820817 0.089210396138 
0.094907614108 0.10040395785 0.10579267793 0.11114698808 0.11650279833 0.12184696463 0.12711152288 0.13217686196 0.13688872815 
0.14109022185 0.14466147755 0.14755352039 0.14980346018 0.15152450061 0.15287260041 0.15399931925 0.15500694683 0.15592498292 
0.1567172616 0.15730773891 0.15760312175 0.15750130791 0.15688892489 0.15563760223 0.15360897993 0.15067539511 0.14675591472 
0.14185746592 0.13610469528 0.12974431283 0.12311876182 0.11661584916 0.11060779849 0.10538621631 0.10109374414 0.097690590779 
0.095012670557 0.09287858784 0.091152516477 0.089742744075 0.088575814727 0.087585708436 0.086714473327 0.085903605469 0.085074581265 
0.084114906516 0.082888522516 0.08127301159 0.079202940459 0.076694343224 0.073841155291 0.070790353563 0.067709340183 0.064758336027 
0.062074121505 0.059763170695 0.057901795048 0.056545916273 0.055745296377 0.055529877007 0.055830356107 0.056450674566 0.057160202855 
0.057733075862 0.057948512002 0.057600630468 0.05651776547 0.054583033367 0.051749152853 0.048043957415 0.043566769533 0.038477882519 
0.032983615191 0.027318740051 0.02172750914 0.016444541615 0.011677539092 0.0075946596948 0.0043193358634 0.0019333091276 0.00048522456927 
2.288089765e-17 
