# vtk DataFile Version 5.1
vtk output
ASCII
DATASET POLYDATA
POINTS 100 float
0.114634 0.0661746 0.717437 0.114541 0.0662686 0.717211 0.114312 0.0663908 0.71634 
0.113962 0.0665311 0.714793 0.113516 0.0666743 0.712519 0.113002 0.0668014 0.709458 
0.112447 0.0668922 0.705545 0.111871 0.0669268 0.700717 0.111286 0.0668875 0.694922 
0.110687 0.0667598 0.688126 0.11005 0.0665327 0.680319 0.109334 0.0661977 0.671516 
0.108479 0.0657483 0.661764 0.107408 0.0651779 0.65114 0.106035 0.0644782 0.639744 
0.104269 0.0636386 0.627701 0.102023 0.0626448 0.615147 0.0992203 0.0614804 0.602223 
0.0958015 0.0601281 0.589066 0.091732 0.0585723 0.575797 0.0870052 0.0568029 0.562517 
0.0816446 0.0548193 0.549298 0.0757031 0.0526334 0.536178 0.0692591 0.050273 0.523165 
0.0624108 0.0477832 0.510231 0.0552678 0.0452257 0.497325 0.0479426 0.0426774 0.484375 
0.0405404 0.0402258 0.471295 0.033151 0.0379634 0.457999 0.0258415 0.0359816 0.444404 
0.0186517 0.0343628 0.430438 0.0115926 0.0331744 0.416046 0.00464845 0.0324634 0.401192 
-0.0022187 0.0322523 0.385854 -0.00906087 0.0325382 0.370028 -0.0159345 0.0332939 0.353715 
-0.0228898 0.0344715 0.336921 -0.02996 0.0360078 0.319649 -0.0371525 0.0378316 0.30189 
-0.044442 0.0398701 0.283627 -0.0517674 0.0420569 0.264827 -0.0590322 0.0443371 0.245447 
-0.0661089 0.0466712 0.225437 -0.0728472 0.0490367 0.204747 -0.0790848 0.0514274 0.183337 
-0.0846601 0.0538496 0.16118 -0.0894255 0.056318 0.138276 -0.0932597 0.058849 0.114652 
-0.0960776 0.0614546 0.0903682 -0.0978378 0.0641372 0.0655149 -0.098545 0.066885 0.0402076 
-0.0982489 0.0696698 0.0145797 -0.0970383 0.0724474 -0.011228 -0.0950325 0.0751593 -0.0370786 
-0.0923689 0.077737 -0.0628511 -0.0891902 0.0801077 -0.0884489 -0.0856315 0.0822003 -0.113807 
-0.0818084 0.0839512 -0.138896 -0.0778083 0.0853093 -0.163716 -0.0736852 0.0862389 -0.188296 
-0.0694584 0.0867216 -0.212679 -0.0651151 0.086755 -0.236914 -0.060618 0.0863502 -0.261039 
-0.055914 0.0855273 -0.28507 -0.0509459 0.0843108 -0.308991 -0.0456644 0.0827243 -0.332747 
-0.040039 0.0807863 -0.356243 -0.0340663 0.078507 -0.379345 -0.0277766 0.0758872 -0.401896 
-0.0212349 0.0729192 -0.423719 -0.0145396 0.069589 -0.444642 -0.00781649 0.0658808 -0.464508 
-0.00121011 0.0617816 -0.483194 0.00512741 0.0572864 -0.500622 0.0110482 0.0524025 -0.516766 
0.0164203 0.0471532 -0.531657 0.0211384 0.0415787 -0.545375 0.0251314 0.0357358 -0.558044 
0.0283678 0.0296955 -0.569816 0.0308569 0.0235385 -0.580853 0.0326468 0.0173501 -0.591311 
0.0338195 0.0112143 -0.601326 0.034483 0.0052078 -0.610994 0.0347617 -0.000603819 -0.62037 
0.0347864 -0.00616976 -0.62946 0.0346842 -0.011455 -0.638225 0.0345688 -0.0164394 -0.64659 
0.0345341 -0.0211157 -0.654458 0.034648 -0.0254848 -0.661721 0.0349501 -0.0295523 -0.66828 
0.0354514 -0.033323 -0.674055 0.0361363 -0.0367972 -0.679 0.0369664 -0.0399682 -0.683105 
0.0378863 -0.0428208 -0.6864 0.0388296 -0.0453316 -0.688946 0.0397256 -0.0474714 -0.690833 
0.0405063 -0.0492081 -0.692159 0.0411121 -0.0505109 -0.693021 0.0414966 -0.0513539 -0.6935 
0.0416308 -0.0517199 -0.693649 
LINES 2 100
OFFSETS vtktypeint64
0 100 
CONNECTIVITY vtktypeint64
0 1 2 3 4 5 6 7 8 
9 10 11 12 13 14 15 16 17 
18 19 20 21 22 23 24 25 26 
27 28 29 30 31 32 33 34 35 
36 37 38 39 40 41 42 43 44 
45 46 47 48 49 50 51 52 53 
54 55 56 57 58 59 60 61 62 
63 64 65 66 67 68 69 70 71 
72 73 74 75 76 77 78 79 80 
81 82 83 84 85 86 87 88 89 
90 91 92 93 94 95 96 97 98 
99 
POINT_DATA 100
FIELD FieldData 3
_theta 1 100 double
0 0.031733259127 0.063466518254 0.095199777382 0.12693303651 0.15866629564 0.19039955476 0.22213281389 0.25386607302 
0.28559933214 0.31733259127 0.3490658504 0.38079910953 0.41253236865 0.44426562778 0.47599888691 0.50773214603 0.53946540516 
0.57119866429 0.60293192342 0.63466518254 0.66639844167 0.6981317008 0.72986495992 0.76159821905 0.79333147818 0.82506473731 
0.85679799643 0.88853125556 0.92026451469 0.95199777382 0.98373103294 1.0154642921 1.0471975512 1.0789308103 1.1106640695 
1.1423973286 1.1741305877 1.2058638468 1.237597106 1.2693303651 1.3010636242 1.3327968833 1.3645301425 1.3962634016 
1.4279966607 1.4597299198 1.491463179 1.5231964381 1.5549296972 1.5866629564 1.6183962155 1.6501294746 1.6818627337 
1.7135959929 1.745329252 1.7770625111 1.8087957702 1.8405290294 1.8722622885 1.9039955476 1.9357288068 1.9674620659 
1.999195325 2.0309285841 2.0626618433 2.0943951024 2.1261283615 2.1578616206 2.1895948798 2.2213281389 2.253061398 
2.2847946572 2.3165279163 2.3482611754 2.3799944345 2.4117276937 2.4434609528 2.4751942119 2.506927471 2.5386607302 
2.5703939893 2.6021272484 2.6338605076 2.6655937667 2.6973270258 2.7290602849 2.7607935441 2.7925268032 2.8242600623 
2.8559933214 2.8877265806 2.9194598397 2.9511930988 2.982926358 3.0146596171 3.0463928762 3.0781261353 3.1098593945 
3.1415926536 
_radius 1 100 double
1.4540584214e-15 0.014307474159 0.028477470506 0.04237496686 0.055879746311 0.068891474354 0.081332297361 0.093147064494 0.1043018011 
0.11478139157 0.12458741821 0.13373670599 0.14226047473 0.15020339147 0.15762156528 0.16457879788 0.17114110075 0.17737029133 
0.18331799721 0.18902136711 0.19450121297 0.19976246191 0.20479608157 0.20958139022 0.2140879709 0.21827709533 0.22210325296 
0.22551666778 0.22846735212 0.23091042 0.23281151515 0.23415080077 0.23492423211 0.23514163691 0.23482211271 0.2339880751 
0.2326597369 0.23085176064 0.22857331496 0.22583189544 0.22264026052 0.21902495523 0.21503439648 0.21074450965 0.2062604057 
0.20171339108 0.19725346079 0.1930381422 0.18921905797 0.18592787795 0.18326342293 0.18128148494 0.17998841252 0.17933888484 
0.17923794671 0.17954746468 0.18009737902 0.18070188939 0.1811797277 0.18137622913 0.18118370487 0.18055627978 0.17951612877 
0.17814978186 0.176595444 0.175024356 0.1736201453 0.17255933406 0.17199421813 0.17203746147 0.17274704941 0.17411137599 
0.17603720956 0.17834629469 0.18078597404 0.18305431558 0.18483453381 0.18583117424 0.18580164769 0.18457897883 0.18208364722 
0.17832396728 0.17338575953 0.16741320325 0.16058370551 0.15308030456 0.1450654612 0.13665997749 0.12793010623 0.11888463496 
0.10948198797 0.099645590973 0.089284408112 0.078315036385 0.066681987139 0.054373472992 0.041430840994 0.027950629969 0.014079100326 
8.2185934137e-16 
_area 1 100 double
0 0.00058206963728 0.0023049139184 0.0050991995033 0.0088525217751 0.013415822235 0.018614372062 0.024262941104 0.030182903286 
0.036217737201 0.042243612121 0.04817375316 0.053958040763 0.059580796147 0.065058519064 0.07043641541 0.075780793284 0.081166171523 
0.086660228286 0.092311965333 0.098145875499 0.1041604101 0.11032643757 0.11658170357 0.12282159471 0.12889410452 0.13461012363 
0.13977138832 0.14420398687 0.14778033028 0.15042297234 0.15209899592 0.15281563818 0.15261676339 0.15157469186 0.14977754024 
0.14731874795 0.14429465296 0.14080664923 0.13695843471 0.13284555809 0.12854476709 0.12411274266 0.11959710341 0.11505326609 
0.1105569307 0.10620608207 0.10211220619 0.098383997634 0.095109034131 0.092339921012 0.090089940451 0.088338721364 0.087042960082 
0.086144583257 0.085571493398 0.085233633154 0.085022156388 0.084815820091 0.084493683449 0.083951358325 0.083119784399 0.081984878963 
0.08060177748 0.079095000739 0.077642007302 0.076447802123 0.075719547667 0.075642787992 0.076358663179 0.077943634239 0.080391063852 
0.083593203125 0.087330794038 0.091282032612 0.095052075036 0.098216330511 0.1003715938 0.10118857313 0.10045677032 0.098112149798 
0.094241081617 0.089059590917 0.082872874144 0.076024319004 0.068844777104 0.061611615195 0.054523965062 0.047696783516 0.04117276016 
0.034948035169 0.029005057763 0.023344317293 0.018007277409 0.013085821568 0.0087174027717 0.0050682227438 0.002308645167 0.00058598041204 
3.724042122e-17 
