# vtk DataFile Version 5.1
vtk output
ASCII
DATASET POLYDATA
POINTS 100 float
0.147108 0.0379977 0.712276 0.146993 0.0380601 0.711901 0.146714 0.0381071 0.710668 
0.146271 0.0381623 0.708612 0.14567 0.0382633 0.705792 0.144914 0.0384556 0.702277 
0.144006 0.0387874 0.69814 0.142948 0.0393024 0.69345 0.141739 0.0400339 0.68826 
0.140374 0.0409995 0.682602 0.138844 0.0421979 0.676486 0.137136 0.043608 0.669895 
0.13523 0.0451893 0.662793 0.133103 0.0468857 0.655128 0.130726 0.04863 0.64684 
0.128071 0.0503502 0.637874 0.125105 0.0519755 0.628186 0.121798 0.0534424 0.617754 
0.118124 0.0546997 0.606578 0.114061 0.0557117 0.594692 0.109592 0.05646 0.582154 
0.10471 0.0569428 0.569047 0.0994179 0.0571729 0.555472 0.0937239 0.0571742 0.541542 
0.0876463 0.0569776 0.527366 0.0812094 0.0566163 0.513047 0.074442 0.0561218 0.498671 
0.0673756 0.0555213 0.484303 0.0600418 0.0548354 0.46998 0.0524706 0.054078 0.455714 
0.0446887 0.0532572 0.44149 0.0367193 0.0523779 0.427273 0.0285817 0.0514437 0.413009 
0.0202932 0.0504609 0.398629 0.0118706 0.0494405 0.384059 0.00333359 0.0483998 0.369219 
-0.00529262 0.0473638 0.354029 -0.0139736 0.046364 0.33841 -0.0226633 0.0454368 0.322287 
-0.0313014 0.0446203 0.305586 -0.0398134 0.0439517 0.288243 -0.0481106 0.0434628 0.270197 
-0.0560927 0.0431778 0.251396 -0.0636515 0.0431106 0.231802 -0.0706763 0.0432639 0.21139 
-0.07706 0.04363 0.190154 -0.0827058 0.0441921 0.168113 -0.0875336 0.0449276 0.145307 
-0.091486 0.0458119 0.121807 -0.0945327 0.0468217 0.0977068 -0.0966729 0.0479387 0.0731235 
-0.0979359 0.0491522 0.0481913 -0.0983792 0.0504597 0.0230534 -0.0980843 0.0518667 -0.00214604 
-0.0971503 0.0533843 -0.027272 -0.0956867 0.0550252 -0.0522071 -0.0938047 0.0567991 -0.0768586 
-0.0916085 0.0587072 -0.101163 -0.0891878 0.0607374 -0.125088 -0.0866111 0.0628602 -0.14863 
-0.0839212 0.0650262 -0.171807 -0.0811332 0.0671659 -0.194657 -0.0782345 0.0691918 -0.217218 
-0.0751887 0.0710032 -0.239528 -0.0719398 0.0724925 -0.261611 -0.0684199 0.0735536 -0.283469 
-0.0645574 0.0740905 -0.305081 -0.0602851 0.0740266 -0.326401 -0.0555487 0.0733123 -0.347363 
-0.0503139 0.0719304 -0.367883 -0.0445716 0.0699001 -0.387877 -0.0383416 0.0672768 -0.407263 
-0.0316729 0.0641491 -0.425975 -0.0246429 0.060633 -0.443972 -0.017353 0.0568637 -0.46124 
-0.00992359 0.0529849 -0.477797 -0.00248678 0.0491383 -0.493687 0.00482103 0.0454523 -0.508976 
0.011867 0.0420329 -0.52374 0.0185291 0.038956 -0.538053 0.0247022 0.036263 -0.551976 
0.0303032 0.033959 -0.565545 0.0352737 0.0320149 -0.578762 0.0395817 0.0303729 -0.591594 
0.0432207 0.0289533 -0.603969 0.0462082 0.0276644 -0.615787 0.0485823 0.0264129 -0.626926 
0.0503971 0.0251141 -0.637257 0.0517189 0.0237006 -0.646658 0.0526208 0.0221302 -0.655028 
0.0531786 0.0203899 -0.662299 0.053467 0.0184976 -0.668447 0.053556 0.0165009 -0.673493 
0.0535089 0.0144719 -0.677498 0.053381 0.0125009 -0.680564 0.0532182 0.0106876 -0.682814 
0.0530574 0.00913088 -0.684379 0.0529265 0.00792021 -0.685386 0.0528448 0.00712638 -0.685936 
0.0528237 0.00679496 -0.686097 
LINES 2 100
OFFSETS vtktypeint64
0 100 
CONNECTIVITY vtktypeint64
0 1 2 3 4 5 6 7 8 
9 10 11 12 13 14 15 16 17 
18 19 20 21 22 23 24 25 26 
27 28 29 30 31 32 33 34 35 
36 37 38 39 40 41 42 43 44 
45 46 47 48 49 50 51 52 53 
54 55 56 57 58 59 60 61 62 
63 64 65 66 67 68 69 70 71 
72 73 74 75 76 77 78 79 80 
81 82 83 84 85 86 87 88 89 
90 91 92 93 94 95 96 97 98 
99 
POINT_DATA 100
FIELD FieldData 3
_theta 1 100 double
0 0.031733259127 0.063466518254 0.095199777382 0.12693303651 0.15866629564 0.19039955476 0.22213281389 0.25386607302 
0.28559933214 0.31733259127 0.3490658504 0.38079910953 0.41253236865 0.44426562778 0.47599888691 0.50773214603 0.53946540516 
0.57119866429 0.60293192342 0.63466518254 0.66639844167 0.6981317008 0.72986495992 0.76159821905 0.79333147818 0.82506473731 
0.85679799643 0.88853125556 0.92026451469 0.95199777382 0.98373103294 1.0154642921 1.0471975512 1.0789308103 1.1106640695 
1.1423973286 1.1741305877 1.2058638468 1.237597106 1.2693303651 1.3010636242 1.3327968833 1.3645301425 1.3962634016 
1.4279966607 1.4597299198 1.491463179 1.5231964381 1.5549296972 1.5866629564 1.6183962155 1.6501294746 1.6818627337 
1.7135959929 1.745329252 1.7770625111 1.8087957702 1.8405290294 1.8722622885 1.9039955476 1.9357288068 1.9674620659 
1.999195325 2.0309285841 2.0626618433 2.0943951024 2.1261283615 2.1578616206 2.1895948798 2.2213281389 2.253061398 
2.2847946572 2.3165279163 2.3482611754 2.3799944345 2.4117276937 2.4434609528 2.4751942119 2.506927471 2.5386607302 
2.5703939893 2.6021272484 2.6338605076 2.6655937667 2.6973270258 2.7290602849 2.7607935441 2.7925268032 2.8242600623 
2.8559933214 2.8877265806 2.9194598397 2.9511930988 2.982926358 3.0146596171 3.0463928762 3.0781261353 3.1098593945 
3.1415926536 
_radius 1 100 double
1.3470035637e-15 0.014203220904 0.028353220653 0.042392642822 0.056259982158 0.069888442903 0.083205813316 0.096135694942 0.10860022428 
0.12052409442 0.13183932217 0.14248994229 0.15243576161 0.16165452309 0.17014225959 0.17791209987 0.18499211756 0.19142283587 
0.19725470778 0.20254543452 0.20735661161 0.21174914938 0.21577734805 0.21948235792 0.22288667749 0.22599177412 0.2287803889 
0.23122364154 0.23329127052 0.23496200628 0.23623071468 0.23710971178 0.23762338129 0.2377975027 0.23764677442 0.23716495791 
0.2363212965 0.23506471566 0.23333487939 0.23107746696 0.22826036518 0.22488760987 0.2210085233 0.21672039375 0.2121641549 
0.20751375298 0.20296104237 0.19869882957 0.1949048021 0.19172841935 0.18928160569 0.18763276971 0.18680289561 0.18676266159 
0.18743073553 0.18867498456 0.19031926917 0.19215779004 0.19397651666 0.19557831478 0.19680678917 0.19756425531 0.19782090441 
0.19761410848 0.19703847166 0.19622863958 0.19533798058 0.19451680111 0.19389342836 0.19356023468 0.19356497764 0.19390654771 
0.19453399244 0.19534841965 0.19620830188 0.19693895729 0.19734627024 0.19723345197 0.19641856287 0.19475013665 0.19211862222 
0.18846223235 0.18376682864 0.17806042564 0.17140361449 0.16387762611 0.15557187404 0.14657267863 0.13695454293 0.12677489651 
0.11607271095 0.10487087126 0.093181703229 0.08101464456 0.068384746128 0.055320545783 0.041869920213 0.02810282004 0.014110311057 
9.1446511758e-16 
_area 1 100 double
0 0.00050553893215 0.0020127166666 0.0044919465294 0.0078903883626 0.012128893387 0.017101439244 0.022679199904 0.028720265278 
0.03508421528 0.041648546752 0.048321960104 0.055048892967 0.06180176751 0.068562392654 0.075299723563 0.081954124416 0.088436106311 
0.094641437508 0.10047831206 0.10589855565 0.11092308888 0.11565030138 0.12023528878 0.12483456645 0.12953383325 0.13430258663 
0.13900833246 0.14347712536 0.14756143354 0.15118418471 0.15434446535 0.15708855669 0.15946595497 0.16148944593 0.1631073388 
0.16419220581 0.16455105549 0.16395808934 0.16220406772 0.15915063883 0.15477630399 0.1492027151 0.14269420442 0.13562837633 
0.12844014026 0.12154565735 0.11526053809 0.10974440981 0.10501167577 0.10100391617 0.097665307147 0.094979741516 0.092972450529 
0.091687551107 0.091153362463 0.091344318825 0.092140804946 0.093299465591 0.094485623238 0.095370186131 0.095705184448 0.095354373051 
0.094299892701 0.092629130354 0.090514141259 0.088180734484 0.085874279444 0.08383213107 0.082263944643 0.081331815929 0.081120865237 
0.081619737559 0.082740541039 0.084348432182 0.086238994088 0.0881070846 0.089642028792 0.090574011768 0.090678896783 0.08979134984 
0.087818728165 0.084746536172 0.080633030263 0.075595886662 0.069795427241 0.063417482174 0.056657228895 0.049705098271 0.042736442429 
0.035906508575 0.029350936953 0.023190341824 0.017536475415 0.012497367535 0.0081794946334 0.0046860314034 0.0021112647559 0.00053227798316 
3.4749103138e-17 
