# vtk DataFile Version 5.1
vtk output
ASCII
DATASET POLYDATA
POINTS 100 float
0.0936608 0.0577335 0.696809 0.093686 0.0581129 0.696701 0.0938563 0.0590497 0.696167 
0.0941552 0.060461 0.695211 0.0945556 0.0622177 0.693837 0.0950211 0.064158 0.692041 
0.0955082 0.0661042 0.689814 0.0959686 0.0678801 0.68713 0.0963518 0.0693282 0.683953 
0.0966078 0.0703242 0.680227 0.0966895 0.0707873 0.675888 0.0965547 0.0706855 0.670861 
0.0961681 0.0700352 0.665072 0.0955018 0.0688956 0.658453 0.0945357 0.0673594 0.650952 
0.0932565 0.0655397 0.642542 0.0916571 0.063556 0.633222 0.0897341 0.0615208 0.623028 
0.0874866 0.0595277 0.612027 0.0849139 0.0576433 0.600316 0.0820138 0.0559027 0.588014 
0.0787824 0.0543094 0.575254 0.0752135 0.0528391 0.562168 0.0712996 0.0514467 0.548881 
0.0670339 0.0500751 0.535496 0.062412 0.0486652 0.522086 0.0574354 0.0471647 0.508691 
0.0521138 0.0455356 0.495311 0.046467 0.0437595 0.481916 0.0405264 0.0418395 0.468445 
0.034335 0.0397997 0.454818 0.0279456 0.0376821 0.440946 0.0214181 0.0355421 0.426743 
0.0148152 0.0334432 0.41213 0.00819725 0.0314512 0.397051 0.00161726 0.0296302 0.381471 
-0.00488408 0.0280395 0.36538 -0.0112819 0.0267321 0.34879 -0.0175692 0.0257548 0.33173 
-0.023756 0.0251493 0.314236 -0.0298668 0.0249543 0.296345 -0.0359354 0.0252063 0.278088 
-0.0419972 0.0259406 0.259479 -0.0480811 0.0271904 0.240512 -0.0542007 0.0289839 0.221164 
-0.0603462 0.0313408 0.201389 -0.0664781 0.0342668 0.181132 -0.0725239 0.0377477 0.16033 
-0.078378 0.0417451 0.138926 -0.0839055 0.0461921 0.116873 -0.0889498 0.0509922 0.0941471 
-0.0933426 0.0560212 0.0707521 -0.0969174 0.0611314 0.0467223 -0.0995225 0.0661604 0.0221232 
-0.101035 0.0709408 -0.00295172 -0.10137 0.0753131 -0.0283873 -0.100493 0.0791374 -0.0540552 
-0.0984192 0.0823049 -0.0798231 -0.0952142 0.0847473 -0.105565 -0.09099 0.0864415 -0.131167 
-0.085894 0.0874112 -0.156539 -0.0800963 0.087723 -0.181612 -0.0737748 0.0874787 -0.206343 
-0.0671008 0.0868032 -0.230711 -0.0602248 0.0858309 -0.254711 -0.0532659 0.0846901 -0.27835 
-0.0463051 0.0834886 -0.301639 -0.039383 0.0823016 -0.324584 -0.0325025 0.0811626 -0.347183 
-0.0256357 0.08006 -0.369417 -0.0187341 0.0789371 -0.391252 -0.0117413 0.0776987 -0.412639 
-0.00460564 0.0762208 -0.433515 0.00270758 0.0743641 -0.453804 0.0102071 0.071989 -0.473431 
0.0178697 0.068971 -0.492316 0.0256388 0.0652146 -0.510389 0.0334273 0.0606643 -0.527588 
0.0411243 0.0553123 -0.543864 0.0486051 0.049201 -0.559182 0.0557423 0.0424214 -0.573522 
0.0624182 0.035107 -0.586873 0.068535 0.0274246 -0.599239 0.0740237 0.0195617 -0.610628 
0.0788487 0.0117137 -0.621055 0.0830092 0.00407058 -0.63054 0.0865365 -0.00319528 -0.639104 
0.0894883 -0.00993894 -0.646772 0.0919402 -0.0160499 -0.653572 0.0939762 -0.0214557 -0.659537 
0.0956793 -0.0261228 -0.664703 0.0971229 -0.0300537 -0.669114 0.0983646 -0.0332819 -0.67282 
0.0994431 -0.0358648 -0.675873 0.100378 -0.0378758 -0.678331 0.101171 -0.0393952 -0.680249 
0.101811 -0.0405018 -0.681681 0.102284 -0.0412653 -0.682672 0.10257 -0.0417396 -0.683257 
0.102657 -0.0419584 -0.683457 
LINES 2 100
OFFSETS vtktypeint64
0 100 
CONNECTIVITY vtktypeint64
0 1 2 3 4 5 6 7 8 
9 10 11 12 13 14 15 16 17 
18 19 20 21 22 23 24 25 26 
27 28 29 30 31 32 33 34 35 
36 37 38 39 40 41 42 43 44 
45 46 47 48 49 50 51 52 53 
54 55 56 57 58 59 60 61 62 
63 64 65 66 67 68 69 70 71 
72 73 74 75 76 77 78 79 80 
81 82 83 84 85 86 87 88 89 
90 91 92 93 94 95 96 97 98 
99 
POINT_DATA 100
FIELD FieldData 3
_theta 1 100 double
0 0.031733259127 0.063466518254 0.095199777382 0.12693303651 0.15866629564 0.19039955476 0.22213281389 0.25386607302 
0.28559933214 0.31733259127 0.3490658504 0.38079910953 0.41253236865 0.44426562778 0.47599888691 0.50773214603 0.53946540516 
0.57119866429 0.60293192342 0.63466518254 0.66639844167 0.6981317008 0.72986495992 0.76159821905 0.79333147818 0.82506473731 
0.85679799643 0.88853125556 0.92026451469 0.95199777382 0.98373103294 1.0154642921 1.0471975512 1.0789308103 1.1106640695 
1.1423973286 1.1741305877 1.2058638468 1.237597106 1.2693303651 1.3010636242 1.3327968833 1.3645301425 1.3962634016 
1.4279966607 1.4597299198 1.491463179 1.5231964381 1.5549296972 1.5866629564 1.6183962155 1.6501294746 1.6818627337 
1.7135959929 1.745329252 1.7770625111 1.8087957702 1.8405290294 1.8722622885 1.9039955476 1.9357288068 1.9674620659 
1.999195325 2.0309285841 2.0626618433 2.0943951024 2.1261283615 2.1578616206 2.1895948798 2.2213281389 2.253061398 
2.2847946572 2.3165279163 2.3482611754 2.3799944345 2.4117276937 2.4434609528 2.4751942119 2.506927471 2.5386607302 
2.5703939893 2.6021272484 2.6338605076 2.6655937667 2.6973270258 2.7290602849 2.7607935441 2.7925268032 2.8242600623 
2.8559933214 2.8877265806 2.9194598397 2.9511930988 2.982926358 3.0146596171 3.0463928762 3.0781261353 3.1098593945 
3.1415926536 
_radius 1 100 double
1.0089113558e-15 0.014090562499 0.028254631535 0.04253628421 0.056947614828 0.071459423225 0.085998241002 0.10045004966 0.11467007068 
0.12849718827 0.14177098604 0.15434909443 0.16612256315 0.1770272559 0.18704975425 0.19622691475 0.20463901985 0.21239735165 
0.21962788497 0.22645345808 0.23297704222 0.23926849713 0.24535653855 0.25122675482 0.25682560819 0.26206957008 0.26685791524 
0.27108725804 0.27466569779 0.27752450595 0.27962566804 0.28096426979 0.28156560545 0.28147783638 0.28076183476 0.27948030626 
0.27768827099 0.27542652922 0.27271902893 0.26957431837 0.26599066826 0.2619640205 0.25749760751 0.25261182863 0.24735277299 
0.2417977415 0.23605638296 0.23026667362 0.22458579581 0.21917677101 0.21419245028 0.20975937428 0.20596493361 0.20285124273 
0.20041730494 0.19862795076 0.19742556337 0.1967402076 0.19649525129 0.19660781479 0.19698573991 0.1975249262 0.19811171388 
0.19863284289 0.19899086897 0.19911931063 0.19899203065 0.19862439502 0.1980668662 0.19739343307 0.19668767992 0.19602883767 
0.19547937352 0.19507503632 0.19481798771 0.19467354927 0.19457089514 0.19440757351 0.19405711085 0.19337836748 0.19222506598 
0.19045417934 0.18793253976 0.18454175568 0.18018194094 0.1747747321 0.16826574686 0.16062630144 0.15185406972 0.14197246984 
0.13102879451 0.11909131031 0.10624565482 0.092590871638 0.078235413242 0.063293451556 0.047881837042 0.032117971403 0.016118684908 
3.5769750668e-16 
_area 1 100 double
0 0.00055305814055 0.002220160735 0.0050224223949 0.0089863604839 0.014131745913 0.020456498788 0.027920827845 0.036433612752 
0.045844537753 0.055945269218 0.066481735694 0.077177391487 0.087764657541 0.09801919284 0.10779001402 0.11701843092 0.12574055173 
0.13407134587 0.14217223584 0.15020829413 0.15830451691 0.16651182213 0.17479080802 0.18301536491 0.19099245303 0.19849213608 
0.20528266533 0.21116590666 0.21600731208 0.21975331048 0.22242990834 0.22412153384 0.22493779237 0.22498119125 0.22432474381 
0.22299966284 0.22099036235 0.21823712083 0.21464919154 0.21012951444 0.20460794369 0.19807576616 0.19061223941 0.18239474544 
0.17368794924 0.16481359099 0.15610865948 0.14788102897 0.14036942947 0.13371631999 0.12796401841 0.12307366235 0.11895473749 
0.11551289727 0.11273229049 0.11059296844 0.10895365297 0.10766385567 0.10658991769 0.10559877559 0.10455302413 0.10332421442 
0.10181501336 0.099973621149 0.097795534716 0.09532088657 0.092633575617 0.089858349858 0.087149686236 0.084673414396 0.082587493102 
0.081022874967 0.080056688742 0.079695760263 0.079896879637 0.080645121199 0.081918772331 0.083446369358 0.084742669335 0.08556554087 
0.085717221384 0.085033908436 0.083388628265 0.080697215678 0.076926079175 0.072099255549 0.066301823024 0.059678081061 0.052425079802 
0.044782992552 0.037022661261 0.029429479742 0.022283906785 0.015841505569 0.010316914132 0.0058753263895 0.0026324763422 0.00066111947993 
3.5722765639e-17 
