# vtk DataFile Version 5.1
vtk output
ASCII
DATASET POLYDATA
POINTS 100 float
0.078447 0.0177954 0.627048 0.0786242 0.0182792 0.62673 0.0791803 0.0195795 0.625693 
0.0800383 0.0215774 0.623991 0.081082 0.0240901 0.621704 0.0821731 0.0268933 0.618929 
0.0831708 0.0297477 0.615761 0.0839525 0.0324271 0.612279 0.0844305 0.0347442 0.608537 
0.0845649 0.0365711 0.604547 0.084368 0.0378519 0.600279 0.0839011 0.038606 0.595662 
0.0832639 0.0389219 0.59059 0.0825768 0.0389417 0.584938 0.0819596 0.0388405 0.578574 
0.0815095 0.0388004 0.57138 0.0812807 0.0389855 0.563268 0.0812695 0.0395193 0.554194 
0.0814069 0.0404679 0.544168 0.0815599 0.0418309 0.533258 0.0815417 0.0435412 0.521585 
0.0811298 0.0454735 0.509314 0.0800899 0.0474593 0.496639 0.0782025 0.0493086 0.483765 
0.0752886 0.0508319 0.470884 0.0712322 0.0518637 0.45816 0.0659949 0.0522812 0.445711 
0.059622 0.0520177 0.433595 0.0522393 0.0510696 0.421811 0.04404 0.0494953 0.410294 
0.0352637 0.047407 0.398926 0.0261707 0.0449577 0.38755 0.0170142 0.042324 0.375983 
0.00801402 0.0396879 0.364039 -0.00066482 0.0372198 0.351544 -0.00892556 0.0350649 0.338352 
-0.0167444 0.0333333 0.324357 -0.0241652 0.0320965 0.309498 -0.0312857 0.0313886 0.293761 
-0.0382367 0.0312113 0.277174 -0.045157 0.0315425 0.259798 -0.0521675 0.032346 0.241718 
-0.0593487 0.0335804 0.223028 -0.0667229 0.0352066 0.203822 -0.0742445 0.0371916 0.184182 
-0.0817998 0.0395094 0.164171 -0.0892153 0.042139 0.143834 -0.096274 0.0450593 0.123195 
-0.102738 0.0482435 0.102265 -0.108372 0.0516531 0.0810449 -0.112971 0.0552341 0.059535 
-0.116378 0.0589151 0.0377435 -0.118504 0.0626091 0.0156915 -0.119332 0.0662181 -0.00658256 
-0.118916 0.0696405 -0.0290218 -0.117377 0.0727799 -0.051553 -0.114882 0.0755538 -0.0740914 
-0.111627 0.0779015 -0.0965467 -0.107815 0.0797886 -0.118831 -0.103632 0.0812084 -0.140865 
-0.0992326 0.0821791 -0.162587 -0.0947238 0.0827373 -0.183951 -0.0901621 0.0829285 -0.204934 
-0.0855531 0.0827967 -0.22553 -0.0808599 0.0823731 -0.245749 -0.076016 0.0816683 -0.265607 
-0.070941 0.0806668 -0.285121 -0.0655581 0.079327 -0.304303 -0.0598099 0.0775859 -0.32315 
-0.0536708 0.0753679 -0.341643 -0.0471551 0.0725982 -0.359746 -0.0403193 0.0692172 -0.377402 
-0.0332598 0.0651948 -0.394543 -0.0261045 0.0605421 -0.411094 -0.0190024 0.0553187 -0.42698 
-0.0121104 0.0496344 -0.442136 -0.00557991 0.0436434 -0.456514 0.000454776 0.0375332 -0.470089 
0.00588576 0.0315075 -0.482863 0.0106373 0.0257664 -0.494869 0.0146679 0.0204853 -0.506164 
0.0179688 0.0157962 -0.516827 0.0205598 0.0117732 -0.526955 0.0224833 0.00842463 -0.536646 
0.0237974 0.00569313 -0.545999 0.0245693 0.00346356 -0.555095 0.0248697 0.00157839 -0.563997 
0.0247692 -0.000141371 -0.572738 0.0243359 -0.00187249 -0.58132 0.023635 -0.00376571 -0.589709 
0.0227293 -0.00592524 -0.597842 0.0216803 -0.00839391 -0.605624 0.0205498 -0.0111463 -0.61294 
0.0193996 -0.0140906 -0.619659 0.0182916 -0.0170791 -0.625644 0.0172857 -0.0199262 -0.63076 
0.0164377 -0.0224311 -0.634882 0.0157954 -0.0244034 -0.637905 0.015396 -0.0256868 -0.639749 
0.0152629 -0.0261789 -0.640362 
LINES 2 100
OFFSETS vtktypeint64
0 100 
CONNECTIVITY vtktypeint64
0 1 2 3 4 5 6 7 8 
9 10 11 12 13 14 15 16 17 
18 19 20 21 22 23 24 25 26 
27 28 29 30 31 32 33 34 35 
36 37 38 39 40 41 42 43 44 
45 46 47 48 49 50 51 52 53 
54 55 56 57 58 59 60 61 62 
63 64 65 66 67 68 69 70 71 
72 73 74 75 76 77 78 79 80 
81 82 83 84 85 86 87 88 89 
90 91 92 93 94 95 96 97 98 
99 
POINT_DATA 100
FIELD FieldData 3
_theta 1 100 double
0 0.031733259127 0.063466518254 0.095199777382 0.12693303651 0.15866629564 0.19039955476 0.22213281389 0.25386607302 
0.28559933214 0.31733259127 0.3490658504 0.38079910953 0.41253236865 0.44426562778 0.47599888691 0.50773214603 0.53946540516 
0.57119866429 0.60293192342 0.63466518254 0.66639844167 0.6981317008 0.72986495992 0.76159821905 0.79333147818 0.82506473731 
0.85679799643 0.88853125556 0.92026451469 0.95199777382 0.98373103294 1.0154642921 1.0471975512 1.0789308103 1.1106640695 
1.1423973286 1.1741305877 1.2058638468 1.237597106 1.2693303651 1.3010636242 1.3327968833 1.3645301425 1.3962634016 
1.4279966607 1.4597299198 1.491463179 1.5231964381 1.5549296972 1.5866629564 1.6183962155 1.6501294746 1.6818627337 
1.7135959929 1.745329252 1.7770625111 1.8087957702 1.8405290294 1.8722622885 1.9039955476 1.9357288068 1.9674620659 
1.999195325 2.0309285841 2.0626618433 2.0943951024 2.1261283615 2.1578616206 2.1895948798 2.2213281389 2.253061398 
2.2847946572 2.3165279163 2.3482611754 2.3799944345 2.4117276937 2.4434609528 2.4751942119 2.506927471 2.5386607302 
2.5703939893 2.6021272484 2.6338605076 2.6655937667 2.6973270258 2.7290602849 2.7607935441 2.7925268032 2.8242600623 
2.8559933214 2.8877265806 2.9194598397 2.9511930988 2.982926358 3.0146596171 3.0463928762 3.0781261353 3.1098593945 
3.1415926536 
_radius 1 100 double
7.791670339e-16 0.014508595378 0.029052057689 0.043646921296 0.058281598216 0.072908057992 0.087438981796 0.10175078495 0.11569217401 
0.12909717385 0.14180085596 0.15365553915 0.16454525721 0.17439680163 0.18318638526 0.19094158961 0.19773854975 0.20369435259 
0.20895466305 0.2136770096 0.21801115836 0.22207939463 0.22596064241 0.22968228296 0.23322182404 0.23651779672 0.23948676013 
0.24204218614 0.24411139742 0.24564791573 0.2466377482 0.24709906564 0.24707566286 0.24662571456 0.24580843799 0.24467187086 
0.24324465489 0.2415334235 0.23952564782 0.23719648867 0.23451791011 0.23146881567 0.22804552982 0.22427194513 0.22020800421 
0.21595435623 0.21165077525 0.20746680417 0.20358505507 0.20017995967 0.19739648005 0.19533346921 0.19403478497 0.19348856456 
0.1936325126 0.19436188466 0.19553762818 0.19699435617 0.19854999537 0.20001942701 0.20123262211 0.2020548164 0.20240423021 
0.20226287823 0.20167772786 0.20075179192 0.19962690961 0.19846158686 0.19740802356 0.19659205517 0.19609822255 0.1959602394 
0.1961558208 0.19660485093 0.19717095582 0.19766769553 0.1978707513 0.1975363339 0.19642416548 0.19432176995 0.19106614041 
0.18655927077 0.18077527595 0.1737584681 0.16561339607 0.15648913886 0.14656082055 0.13601129438 0.12501534137 0.11372781507 
0.10227624772 0.090757727179 0.079239418458 0.067761870704 0.056344118805 0.044989517806 0.033691297158 0.022437063012 0.011211881441 
8.9900559946e-16 
_area 1 100 double
0 0.00043546179529 0.0017482079956 0.0039547240414 0.0070736846854 0.011113118368 0.016055371884 0.021844834144 0.028383148843 
0.035533800872 0.043134234616 0.051010913222 0.058992909646 0.066923494122 0.074673107039 0.082155017722 0.089337517408 0.09624276202 
0.10292886846 0.10946388865 0.11590250685 0.12226803837 0.1285418971 0.13466465217 0.14055925929 0.14619251923 0.15165726808 
0.1571308567 0.16260071355 0.16777541627 0.17229471324 0.17585965394 0.17826042039 0.17938368967 0.17921640376 0.17784224668 
0.17542722455 0.17219435068 0.16839292857 0.16427013643 0.16004060504 0.15581821555 0.15151669191 0.14691695624 0.14187884074 
0.13643158276 0.13075365053 0.12512126648 0.11984753389 0.11522076818 0.11145324197 0.10865159165 0.106814631 0.10585401202 
0.10562314953 0.10593995079 0.10660025565 0.10738869866 0.1080939813 0.10853009004 0.10855901324 0.10810681367 0.10716684865 
0.10579159379 0.10407982929 0.10216260766 0.10018598819 0.098290748573 0.096597780373 0.095208625425 0.094216884737 0.093713626628 
0.093772256393 0.094412184957 0.095557331546 0.097015328119 0.098489802236 0.0996161727 0.10001184743 0.099334649765 0.097337226239 
0.093903287071 0.089057546457 0.082950310649 0.075825552194 0.06798442398 0.059752277251 0.05145036685 0.043370830796 0.03575580472 
0.028783567777 0.022564047528 0.017144244858 0.012522501078 0.0086687356121 0.005545581518 0.0031243844915 0.0013920547088 0.00034874869136 
1.246917181e-17 
