# vtk DataFile Version 5.1
vtk output
ASCII
DATASET POLYDATA
POINTS 100 float
0.107246 0.00477617 0.503864 0.107377 0.00498388 0.503324 0.107782 0.00553154 0.501649 
0.108451 0.00640342 0.498957 0.109362 0.00757415 0.495425 0.110488 0.00901126 0.491271 
0.111789 0.0106781 0.486723 0.113211 0.0125372 0.481988 0.114687 0.0145528 0.477231 
0.116134 0.016693 0.472547 0.117456 0.0189311 0.467961 0.118543 0.0212456 0.463414 
0.11928 0.023619 0.458786 0.119547 0.0260361 0.453902 0.119226 0.0284819 0.448567 
0.118211 0.0309386 0.442591 0.116408 0.033384 0.435815 0.113746 0.0357901 0.428138 
0.110179 0.0381227 0.419529 0.105688 0.0403425 0.41004 0.100282 0.0424073 0.399796 
0.0939993 0.0442752 0.388986 0.086901 0.0459084 0.377841 0.0790688 0.0472775 0.366608 
0.0705982 0.0483654 0.355519 0.0615931 0.0491699 0.344771 0.0521593 0.0497059 0.334497 
0.0423992 0.0500055 0.32476 0.0324074 0.0501169 0.315543 0.022268 0.0501014 0.306757 
0.0120536 0.050029 0.298254 0.00182552 0.0499739 0.289843 -0.00836415 0.0500086 0.281315 
-0.0184691 0.0501989 0.272469 -0.0284452 0.0505992 0.263125 -0.0382463 0.0512487 0.253145 
-0.0478208 0.0521698 0.242439 -0.0571085 0.0533668 0.230966 -0.0660391 0.054827 0.218726 
-0.0745324 0.0565227 0.20575 -0.0824994 0.0584138 0.192085 -0.0898458 0.0604515 0.177777 
-0.0964757 0.0625818 0.162855 -0.102298 0.0647489 0.147327 -0.107229 0.0668979 0.131172 
-0.111205 0.0689769 0.114343 -0.114179 0.0709387 0.0967803 -0.116128 0.0727412 0.0784182 
-0.11706 0.0743479 0.0592065 -0.117008 0.0757281 0.0391249 -0.11603 0.0768564 0.0181969 
-0.11421 0.0777128 -0.00350136 -0.11165 0.0782834 -0.0258384 -0.108463 0.0785605 -0.0486322 
-0.104767 0.0785435 -0.0716616 -0.100678 0.0782396 -0.0946835 -0.0963043 0.0776642 -0.117453 
-0.0917348 0.0768413 -0.139748 -0.0870401 0.075803 -0.161382 -0.0822664 0.0745881 -0.182228 
-0.077436 0.0732404 -0.20222 -0.0725484 0.0718059 -0.221361 -0.0675846 0.0703301 -0.239707 
-0.0625128 0.0688541 -0.257364 -0.0572959 0.0674126 -0.27446 -0.0518998 0.0660306 -0.291128 
-0.0463015 0.0647224 -0.307483 -0.0404965 0.0634912 -0.323602 -0.0345048 0.0623299 -0.33951 
-0.0283745 0.0612237 -0.355175 -0.0221824 0.0601528 -0.370505 -0.0160315 0.0590968 -0.385358 
-0.010046 0.0580386 -0.399555 -0.00436226 0.0569684 -0.412902 0.000880954 0.0558869 -0.425206 
0.00555473 0.0548074 -0.436302 0.00955194 0.0537565 -0.446066 0.0127984 0.0527726 -0.454431 
0.0152619 0.0519041 -0.461391 0.0169583 0.0512052 -0.467005 0.0179535 0.0507311 -0.471388 
0.0183612 0.0505334 -0.474703 0.0183362 0.0506547 -0.477139 0.0180635 0.0511243 -0.478902 
0.0177443 0.0519551 -0.480193 0.0175797 0.0531414 -0.481193 0.0177533 0.0546589 -0.482055 
0.0184154 0.0564655 -0.482894 0.0196685 0.0585043 -0.483785 0.0215575 0.0607062 -0.484765 
0.0240636 0.062995 -0.485837 0.0271047 0.0652912 -0.486978 0.0305406 0.0675159 -0.488146 
0.0341838 0.069595 -0.48929 0.0378152 0.0714615 -0.490355 0.0412017 0.0730579 -0.491288 
0.0441167 0.0743369 -0.492045 0.0463591 0.0752623 -0.492589 0.0477713 0.0758087 -0.492896 
0.0482525 0.0759616 -0.492949 
LINES 2 100
OFFSETS vtktypeint64
0 100 
CONNECTIVITY vtktypeint64
0 1 2 3 4 5 6 7 8 
9 10 11 12 13 14 15 16 17 
18 19 20 21 22 23 24 25 26 
27 28 29 30 31 32 33 34 35 
36 37 38 39 40 41 42 43 44 
45 46 47 48 49 50 51 52 53 
54 55 56 57 58 59 60 61 62 
63 64 65 66 67 68 69 70 71 
72 73 74 75 76 77 78 79 80 
81 82 83 84 85 86 87 88 89 
90 91 92 93 94 95 96 97 98 
99 
POINT_DATA 100
FIELD FieldData 3
_theta 1 100 double
0 0.031733259127 0.063466518254 0.095199777382 0.12693303651 0.15866629564 0.19039955476 0.22213281389 0.25386607302 
0.28559933214 0.31733259127 0.3490658504 0.38079910953 0.41253236865 0.44426562778 0.47599888691 0.50773214603 0.53946540516 
0.57119866429 0.60293192342 0.63466518254 0.66639844167 0.6981317008 0.72986495992 0.76159821905 0.79333147818 0.82506473731 
0.85679799643 0.88853125556 0.92026451469 0.95199777382 0.98373103294 1.0154642921 1.0471975512 1.0789308103 1.1106640695 
1.1423973286 1.1741305877 1.2058638468 1.237597106 1.2693303651 1.3010636242 1.3327968833 1.3645301425 1.3962634016 
1.4279966607 1.4597299198 1.491463179 1.5231964381 1.5549296972 1.5866629564 1.6183962155 1.6501294746 1.6818627337 
1.7135959929 1.745329252 1.7770625111 1.8087957702 1.8405290294 1.8722622885 1.9039955476 1.9357288068 1.9674620659 
1.999195325 2.0309285841 2.0626618433 2.0943951024 2.1261283615 2.1578616206 2.1895948798 2.2213281389 2.253061398 
2.2847946572 2.3165279163 2.3482611754 2.3799944345 2.4117276937 2.4434609528 2.4751942119 2.506927471 2.5386607302 
2.5703939893 2.6021272484 2.6338605076 2.6655937667 2.6973270258 2.7290602849 2.7607935441 2.7925268032 2.8242600623 
2.8559933214 2.8877265806 2.9194598397 2.9511930988 2.982926358 3.0146596171 3.0463928762 3.0781261353 3.1098593945 
3.1415926536 
_radius 1 100 double
2.6962675903e-16 0.012799034988 0.025368937444 0.037506902844 0.049052372252 0.059898235207 0.069993339064 0.079337358954 0.087970655565 
0.095962054098 0.10339673192 0.11036534402 0.11695480825 0.12324104612 0.12928417862 0.13512665426 0.14079411115 0.14629765521 
0.15163560726 0.15679365018 0.16174453232 0.16644993128 0.1708657263 0.17494917913 0.17866548765 0.18199215483 0.1849207494 
0.18745599386 0.18961208065 0.1914063297 0.19285103656 0.19394537309 0.19466985013 0.19498554356 0.19483897252 0.19417177754 
0.19293297021 0.19109100822 0.18864330477 0.18562169036 0.18209340417 0.17815806862 0.17394160075 0.16958810068 0.16525055598 
0.16108098002 0.15722064993 0.15379148707 0.1508899783 0.14858474471 0.14691755703 0.14590568378 0.14554225297 0.14579264401 
0.14658948037 0.14783284179 0.14939975312 0.15115971306 0.1529899165 0.15478661015 0.15647228553 0.15799940648 0.15935106891 
0.160538717 0.16159717704 0.16257758616 0.16353900306 0.16453959675 0.16562828921 0.16683713837 0.16817372695 0.16961278726 
0.17108798947 0.17248704717 0.1736542716 0.17440346054 0.17454086956 0.17389445127 0.17234311824 0.1698390883 0.16641711349 
0.16218628866 0.15730361194 0.1519342104 0.14620984136 0.14019981675 0.13390260388 0.12725635356 0.1201609604 0.11250424067 
0.10418625938 0.095137231882 0.085326753647 0.074765045525 0.06349888893 0.051605234489 0.039184584278 0.026355071783 0.013247339928 
7.2749208679e-16 
_area 1 100 double
0 0.00033191706552 0.0013207534564 0.0029446992449 0.005164511102 0.0079214515076 0.011138384837 0.014726008314 0.018594046824 
0.022664554552 0.026882358518 0.031217437578 0.035656773846 0.040188707051 0.044788350135 0.049413488266 0.054014042343 0.058547546416 
0.062986272165 0.067310931812 0.07150377903 0.075550025052 0.079442234248 0.083181901928 0.086777923812 0.09024788871 0.09362891671 
0.096988865937 0.10041393343 0.1039667004 0.10764405502 0.11136193727 0.11495944632 0.11820861742 0.12083235808 0.12253747256 
0.12306072272 0.12221720712 0.11993795278 0.11628690608 0.11145381637 0.10572646808 0.099451072594 0.092989734312 0.086677686423 
0.080779493325 0.075470826809 0.070877354337 0.067079763538 0.064115025441 0.062146889776 0.06094730849 0.060267881339 0.05999224188 
0.060021490215 0.060264652357 0.060639845729 0.061070299889 0.061478984349 0.061796318072 0.061982548894 0.062040990883 0.062007285368 
0.06193202797 0.061875420891 0.06191621503 0.062169144599 0.062802616956 0.063991968711 0.065903338294 0.068912390101 0.072876246478 
0.077356568612 0.081885483225 0.085969679452 0.089109236124 0.090859356793 0.090903153697 0.089113470951 0.085585982699 0.080630853879 
0.074716103035 0.068367310971 0.062050932811 0.056085083498 0.050609055001 0.045602897808 0.040922907943 0.036370883885 0.031803544548 
0.027188341098 0.022583827193 0.018098032068 0.013855674386 0.0099810638454 0.0065933971818 0.0038063659634 0.0017248588191 0.00043642882981 
2.1711122086e-17 
