# vtk DataFile Version 5.1
vtk output
ASCII
DATASET POLYDATA
POINTS 100 float
0.10433 0.0417173 0.663639 0.104371 0.0419965 0.663295 0.104512 0.0426833 0.662107 
0.104735 0.0437248 0.660103 0.105005 0.0450388 0.657332 0.105286 0.0465222 0.653848 
0.105534 0.0480609 0.649713 0.105711 0.049541 0.644983 0.105783 0.0508591 0.639706 
0.105723 0.0519307 0.633918 0.105513 0.0526964 0.627636 0.105141 0.0531248 0.620866 
0.104601 0.0532115 0.613601 0.103883 0.0529758 0.605829 0.102975 0.052455 0.597534 
0.101854 0.051696 0.588712 0.100487 0.0507483 0.579365 0.0988254 0.0496567 0.569512 
0.0968118 0.0484557 0.559188 0.0943786 0.0471668 0.548443 0.0914567 0.0457979 0.537335 
0.0879815 0.044346 0.525929 0.0839008 0.0428017 0.514288 0.0791824 0.0411549 0.502462 
0.0738194 0.0394018 0.49049 0.0678337 0.0375502 0.478391 0.0612767 0.0356245 0.466161 
0.0542258 0.0336676 0.45378 0.0467789 0.0317403 0.441212 0.0390458 0.0299186 0.42841 
0.0311379 0.0282877 0.415326 0.0231586 0.0269347 0.401918 0.0151931 0.0259407 0.388152 
0.00730196 0.0253727 0.374011 -0.000483397 0.0252773 0.359492 -0.00816072 0.0256752 0.344604 
-0.0157533 0.0265605 0.329368 -0.0233027 0.0279006 0.313801 -0.0308588 0.0296409 0.297917 
-0.0384684 0.0317105 0.281713 -0.0461628 0.03403 0.265166 -0.0539483 0.0365204 0.248227 
-0.0617973 0.0391099 0.230822 -0.0696447 0.0417415 0.212857 -0.0773872 0.0443764 0.194226 
-0.0848884 0.0469957 0.174822 -0.0919862 0.0495993 0.154549 -0.0985046 0.0522019 0.133338 
-0.104267 0.0548267 0.111158 -0.109109 0.0574989 0.0880258 -0.112892 0.0602378 0.0640104 
-0.115513 0.0630502 0.0392342 -0.116912 0.0659259 0.0138662 -0.117075 0.0688344 -0.0118881 
-0.116031 0.0717253 -0.0378017 -0.11385 0.0745306 -0.0636431 -0.110632 0.0771697 -0.0891943 
-0.106499 0.0795563 -0.114267 -0.101584 0.0816054 -0.138716 -0.0960174 0.0832416 -0.162448 
-0.0899211 0.0844048 -0.185422 -0.0833995 0.0850559 -0.207652 -0.076536 0.0851785 -0.229192 
-0.0693907 0.0847799 -0.250128 -0.0620024 0.0838878 -0.27056 -0.054391 0.0825466 -0.290589 
-0.0465628 0.0808105 -0.310299 -0.0385157 0.0787375 -0.329747 -0.030244 0.0763824 -0.348953 
-0.0217435 0.0737908 -0.367899 -0.0130146 0.0709956 -0.386529 -0.00406432 0.0680141 -0.404758 
0.00509278 0.0648486 -0.422477 0.0144347 0.0614888 -0.439571 0.0239329 0.0579155 -0.455928 
0.0335533 0.0541062 -0.471449 0.0432568 0.0500412 -0.486061 0.0530001 0.0457093 -0.499717 
0.0627353 0.0411131 -0.512402 0.0724097 0.0362721 -0.524128 0.0819647 0.0312251 -0.534931 
0.0913354 0.0260293 -0.54486 0.100451 0.0207584 -0.553974 0.109234 0.0154985 -0.56233 
0.117605 0.0103423 -0.569978 0.125484 0.00538368 -0.576957 0.132794 0.00071063 -0.583293 
0.139468 -0.00360023 -0.589002 0.145452 -0.00748864 -0.594092 0.150711 -0.0109142 -0.598569 
0.155231 -0.013858 -0.60244 0.159023 -0.0163226 -0.605721 0.162119 -0.0183302 -0.608439 
0.164573 -0.0199191 -0.61063 0.166454 -0.0211393 -0.612344 0.167839 -0.0220464 -0.613637 
0.168808 -0.0226966 -0.614566 0.169434 -0.0231407 -0.615186 0.169776 -0.0234189 -0.615539 
0.169871 -0.0235574 -0.615654 
LINES 2 100
OFFSETS vtktypeint64
0 100 
CONNECTIVITY vtktypeint64
0 1 2 3 4 5 6 7 8 
9 10 11 12 13 14 15 16 17 
18 19 20 21 22 23 24 25 26 
27 28 29 30 31 32 33 34 35 
36 37 38 39 40 41 42 43 44 
45 46 47 48 49 50 51 52 53 
54 55 56 57 58 59 60 61 62 
63 64 65 66 67 68 69 70 71 
72 73 74 75 76 77 78 79 80 
81 82 83 84 85 86 87 88 89 
90 91 92 93 94 95 96 97 98 
99 
POINT_DATA 100
FIELD FieldData 3
_theta 1 100 double
0 0.031733259127 0.063466518254 0.095199777382 0.12693303651 0.15866629564 0.19039955476 0.22213281389 0.25386607302 
0.28559933214 0.31733259127 0.3490658504 0.38079910953 0.41253236865 0.44426562778 0.47599888691 0.50773214603 0.53946540516 
0.57119866429 0.60293192342 0.63466518254 0.66639844167 0.6981317008 0.72986495992 0.76159821905 0.79333147818 0.82506473731 
0.85679799643 0.88853125556 0.92026451469 0.95199777382 0.98373103294 1.0154642921 1.0471975512 1.0789308103 1.1106640695 
1.1423973286 1.1741305877 1.2058638468 1.237597106 1.2693303651 1.3010636242 1.3327968833 1.3645301425 1.3962634016 
1.4279966607 1.4597299198 1.491463179 1.5231964381 1.5549296972 1.5866629564 1.6183962155 1.6501294746 1.6818627337 
1.7135959929 1.745329252 1.7770625111 1.8087957702 1.8405290294 1.8722622885 1.9039955476 1.9357288068 1.9674620659 
1.999195325 2.0309285841 2.0626618433 2.0943951024 2.1261283615 2.1578616206 2.1895948798 2.2213281389 2.253061398 
2.2847946572 2.3165279163 2.3482611754 2.3799944345 2.4117276937 2.4434609528 2.4751942119 2.506927471 2.5386607302 
2.5703939893 2.6021272484 2.6338605076 2.6655937667 2.6973270258 2.7290602849 2.7607935441 2.7925268032 2.8242600623 
2.8559933214 2.8877265806 2.9194598397 2.9511930988 2.982926358 3.0146596171 3.0463928762 3.0781261353 3.1098593945 
3.1415926536 
_radius 1 100 double
7.8024768851e-16 0.013173954327 0.02632272865 0.039411130602 0.052396758309 0.065228523103 0.077846919063 0.090185891433 0.10217584146 
0.11374716422 0.12483377311 0.13537626881 0.14532465432 0.15464066462 0.16329979169 0.17129294014 0.17862742018 0.18532680285 
0.19142916324 0.19698349771 0.20204458326 0.20666708216 0.21090004197 0.21478290697 0.21834371892 0.22159950998 0.22455824861 
0.22722132563 0.22958557211 0.23164414688 0.2333861625 0.23479542255 0.2358489385 0.2365159193 0.2367577557 0.23652930063 
0.23578158061 0.23446596368 0.23253967958 0.22997236492 0.22675299877 0.22289630906 0.21844761514 0.21348522154 0.20811986728 
0.20249121322 0.19676172434 0.19110847586 0.18571346933 0.18075318332 0.17638835353 0.17275508692 0.16995792656 0.16806437407 
0.16709945431 0.16703935827 0.1678053943 0.16926209053 0.17122384372 0.17347158415 0.17577634404 0.17792402711 0.17973647169 
0.18108632318 0.18190522301 0.18218578534 0.18197811873 0.18138167107 0.18053315232 0.17959133872 0.17871977659 0.17806878701 
0.17775855732 0.17786520877 0.17841135886 0.17936192315 0.18062503248 0.18205731656 0.18347259044 0.18465310606 0.18536277168 
0.18536186036 0.18442259677 0.18234465786 0.17896921841 0.17418993849 0.16795939374 0.16028993176 0.15124871683 0.14094764086 
0.12952963931 0.11715356526 0.10397997704 0.090159898095 0.075827848027 0.061099408305 0.046072574424 0.030831465984 0.015450811865 
6.5763046617e-16 
_area 1 100 double
0 0.00048832928467 0.0019462198336 0.0043513668688 0.0076637407202 0.011822901594 0.016746715443 0.022332586139 0.028461397575 
0.035003425396 0.041824993518 0.048794813823 0.055789564312 0.062698894476 0.069430362775 0.075914745272 0.082111677958 0.0880145654 
0.093652293881 0.099084463381 0.10438785482 0.10963527169 0.11487255825 0.12010231212 0.12528094401 0.1303301181 0.13515728968 
0.13967628546 0.143820423 0.14754652611 0.15083279383 0.15367332149 0.15606951986 0.15801768509 0.15949421534 0.16044263243 
0.16076537953 0.16030407529 0.15884869437 0.15624418751 0.1524342882 0.14747479696 0.14153385909 0.13487262944 0.12780743159 
0.1206627997 0.11372994747 0.10724031572 0.10135275773 0.096151188939 0.091655785207 0.087850489108 0.084709678326 0.082184136966 
0.080206717724 0.078741210852 0.077797484132 0.077386051991 0.077445722358 0.077809304329 0.078246869627 0.078534731367 0.078523856764 
0.078102989626 0.077211126275 0.07588580698 0.074235491983 0.072418355654 0.07062196087 0.069045977533 0.067882579487 0.067289518321 
0.067360478026 0.068178737534 0.069666602792 0.071658498113 0.073978362202 0.076442003458 0.078851211449 0.080991503297 0.082632786579 
0.083534711981 0.08346030987 0.082199908408 0.07960264729 0.075608113316 0.070268869357 0.06375650795 0.056348082181 0.048394865874 
0.040279942511 0.032373759799 0.024996704258 0.018395138952 0.012733340213 0.0080998545055 0.0045240983524 0.0019979390271 0.00049730260363 
6.4524603556e-17 
