# vtk DataFile Version 5.1
vtk output
ASCII
DATASET POLYDATA
POINTS 100 float
0.0737256 0.0771797 0.732976 0.0738394 0.0773041 0.732527 0.0741957 0.0775236 0.731055 
0.0747461 0.0778194 0.728604 0.0754165 0.0781635 0.725242 0.0761152 0.0785225 0.721057 
0.0767439 0.078862 0.716137 0.0772081 0.0791516 0.710568 0.0774274 0.0793679 0.704419 
0.077343 0.0794975 0.697737 0.076922 0.0795375 0.690541 0.0761581 0.0794941 0.682826 
0.0750688 0.0793799 0.674566 0.0736888 0.0792094 0.665719 0.0720617 0.0789943 0.65624 
0.0702306 0.0787385 0.646093 0.0682293 0.0784346 0.635258 0.0660745 0.078062 0.62374 
0.063762 0.0775861 0.611575 0.0612652 0.0769616 0.59883 0.058538 0.0761361 0.585596 
0.0555205 0.0750571 0.571988 0.0521477 0.0736783 0.558126 0.0483583 0.0719676 0.544128 
0.0441049 0.069913 0.530098 0.0393621 0.0675269 0.516114 0.0341314 0.0648487 0.502218 
0.0284437 0.0619434 0.488417 0.0223578 0.0588979 0.474677 0.015955 0.0558149 0.460933 
0.00933144 0.0528042 0.447091 0.00258791 0.0499736 0.433041 -0.00417986 0.0474198 0.418666 
-0.0108906 0.0452199 0.403855 -0.0174844 0.043426 0.388508 -0.0239263 0.0420613 0.372548 
-0.0302062 0.0411205 0.35592 -0.036335 0.0405723 0.338593 -0.0423375 0.0403655 0.320556 
-0.0482428 0.0404358 0.301816 -0.0540738 0.040715 0.282389 -0.0598369 0.041139 0.262296 
-0.0655147 0.0416553 0.241557 -0.0710597 0.0422282 0.220191 -0.0763944 0.0428417 0.198212 
-0.0814133 0.0434996 0.175633 -0.085991 0.0442232 0.15247 -0.0899917 0.0450458 0.128745 
-0.0932821 0.0460071 0.104496 -0.0957441 0.0471459 0.0797766 -0.0972873 0.0484931 0.0546627 
-0.0978581 0.0500666 0.0292507 -0.0974462 0.0518671 0.00365573 -0.0960863 0.0538763 -0.0219936 
-0.0938553 0.0560576 -0.047563 -0.0908652 0.0583583 -0.0729219 -0.087253 0.0607142 -0.0979526 
-0.0831683 0.0630541 -0.122559 -0.0787595 0.0653061 -0.146673 -0.0741615 0.0674018 -0.170258 
-0.0694852 0.0692807 -0.193309 -0.06481 0.0708933 -0.215851 -0.0601804 0.0722019 -0.237929 
-0.0556061 0.0731807 -0.259602 -0.0510668 0.0738148 -0.280934 -0.0465189 0.0740979 -0.30198 
-0.0419052 0.0740306 -0.322783 -0.037165 0.0736182 -0.343364 -0.0322441 0.0728691 -0.363723 
-0.0271031 0.0717951 -0.383835 -0.0217238 0.0704109 -0.403659 -0.0161125 0.0687355 -0.42314 
-0.0103006 0.0667932 -0.44222 -0.00434245 0.064615 -0.460841 0.00168934 0.0622394 -0.478956 
0.00770961 0.0597119 -0.496534 0.0136276 0.057084 -0.513559 0.0193533 0.0544112 -0.530028 
0.0248036 0.051749 -0.545952 0.0299068 0.0491495 -0.561346 0.0346056 0.0466569 -0.576221 
0.0388586 0.0443044 -0.59058 0.0426403 0.0421106 -0.604409 0.0459402 0.0400793 -0.617673 
0.0487607 0.0381988 -0.630319 0.0511152 0.0364453 -0.642273 0.0530263 0.0347859 -0.653452 
0.0545233 0.0331844 -0.663766 0.0556415 0.0316065 -0.673134 0.0564209 0.0300257 -0.68149 
0.0569056 0.0284281 -0.688793 0.0571427 0.0268156 -0.695033 0.0571823 0.0252069 -0.700233 
0.0570755 0.0236374 -0.704448 0.0568736 0.0221554 -0.707759 0.0566255 0.0208176 -0.710266 
0.0563763 0.019683 -0.712074 0.0561639 0.0188062 -0.713282 0.0560179 0.0182314 -0.713969 
0.0559567 0.0179872 -0.714189 
LINES 2 100
OFFSETS vtktypeint64
0 100 
CONNECTIVITY vtktypeint64
0 1 2 3 4 5 6 7 8 
9 10 11 12 13 14 15 16 17 
18 19 20 21 22 23 24 25 26 
27 28 29 30 31 32 33 34 35 
36 37 38 39 40 41 42 43 44 
45 46 47 48 49 50 51 52 53 
54 55 56 57 58 59 60 61 62 
63 64 65 66 67 68 69 70 71 
72 73 74 75 76 77 78 79 80 
81 82 83 84 85 86 87 88 89 
90 91 92 93 94 95 96 97 98 
99 
POINT_DATA 100
FIELD FieldData 3
_theta 1 100 double
0 0.031733259127 0.063466518254 0.095199777382 0.12693303651 0.15866629564 0.19039955476 0.22213281389 0.25386607302 
0.28559933214 0.31733259127 0.3490658504 0.38079910953 0.41253236865 0.44426562778 0.47599888691 0.50773214603 0.53946540516 
0.57119866429 0.60293192342 0.63466518254 0.66639844167 0.6981317008 0.72986495992 0.76159821905 0.79333147818 0.82506473731 
0.85679799643 0.88853125556 0.92026451469 0.95199777382 0.98373103294 1.0154642921 1.0471975512 1.0789308103 1.1106640695 
1.1423973286 1.1741305877 1.2058638468 1.237597106 1.2693303651 1.3010636242 1.3327968833 1.3645301425 1.3962634016 
1.4279966607 1.4597299198 1.491463179 1.5231964381 1.5549296972 1.5866629564 1.6183962155 1.6501294746 1.6818627337 
1.7135959929 1.745329252 1.7770625111 1.8087957702 1.8405290294 1.8722622885 1.9039955476 1.9357288068 1.9674620659 
1.999195325 2.0309285841 2.0626618433 2.0943951024 2.1261283615 2.1578616206 2.1895948798 2.2213281389 2.253061398 
2.2847946572 2.3165279163 2.3482611754 2.3799944345 2.4117276937 2.4434609528 2.4751942119 2.506927471 2.5386607302 
2.5703939893 2.6021272484 2.6338605076 2.6655937667 2.6973270258 2.7290602849 2.7607935441 2.7925268032 2.8242600623 
2.8559933214 2.8877265806 2.9194598397 2.9511930988 2.982926358 3.0146596171 3.0463928762 3.0781261353 3.1098593945 
3.1415926536 
_radius 1 100 double
1.3420617288e-15 0.013838454981 0.027617130415 0.041269307445 0.054726983046 0.067921454173 0.080784552222 0.093250328339 0.10525689982 
0.1167481875 0.12767538091 0.13799811915 0.14768551504 0.15671721105 0.16508458858 0.1727920606 0.17985813669 0.18631577496 
0.19221152923 0.19760319199 0.20255596164 0.20713749798 0.21141245243 0.21543712208 0.21925481617 0.22289239297 0.2263582325 
0.22964165688 0.23271357722 0.23552808212 0.23802483599 0.24013239535 0.2417726705 0.24286664424 0.24334114328 0.24313608112 
0.2422113179 0.2405522352 0.23817332369 0.23511944933 0.23146485577 0.22731024295 0.22277836637 0.21800854719 0.21315035735 
0.20835665252 0.20377613731 0.19954577295 0.19578353838 0.19258224976 0.19000518807 0.18808402445 0.18681896694 0.18618045724 
0.18611156215 0.18653065028 0.18733473905 0.18840440881 0.18961093754 0.1908253962 0.19192842927 0.19281895729 0.19342036639 
0.19368367477 0.19358807117 0.19313953176 0.19236796998 0.19132313096 0.19006950474 0.18868057932 0.1872325488 0.18579742074 
0.18443563116 0.18318866594 0.18207252144 0.18107296406 0.1801434333 0.17920607254 0.17815582938 0.17686703744 0.1752016031 
0.17301793532 0.1701799236 0.16656539451 0.16207350557 0.15663054575 0.15019369338 0.14275246087 0.13432778931 0.12496899279 
0.11474895036 0.10375808675 0.09209776988 0.07987378216 0.067190492074 0.054146258402 0.040830448829 0.027322264229 0.013691353381 
6.9238779927e-16 
_area 1 100 double
0 0.00053730195429 0.0021306154859 0.0047253084375 0.0082341356497 0.01254294813 0.017518703504 0.023019657468 0.02890706577 
0.035056690721 0.041367274504 0.047762828888 0.054187143861 0.060592401973 0.066927182039 0.0731296273 0.07912885053 0.084854144131 
0.090249035535 0.095285952894 0.09997747347 0.10438181916 0.10860206998 0.112778471 0.11707095065 0.1216278613 0.1265432605 
0.13181933724 0.13735510679 0.14296399715 0.14840490366 0.15341322035 0.15772737327 0.16111068817 0.16336913181 0.16436513635 
0.16402719823 0.16235502871 0.15942055752 0.15536461455 0.15038767441 0.14473217575 0.13865383037 0.13238545333 0.12611621309 
0.12000391801 0.11419746929 0.10884564014 0.10409034396 0.10004843805 0.0967800094 0.09422788509 0.092277321677 0.090838983347 
0.089722884743 0.08885950621 0.088186409566 0.087637171607 0.087145052395 0.086651597518 0.08611447014 0.08551051217 0.084832719088 
0.084082521907 0.083257982107 0.082343802275 0.081319373838 0.080182862082 0.078953021686 0.077682620867 0.07644608645 0.075327845296 
0.074407418972 0.073746971203 0.073441317384 0.07340181229 0.073523106271 0.073816521362 0.074308007863 0.074627809802 0.074565979503 
0.073962715507 0.072677112488 0.070596917389 0.067650069521 0.063814461739 0.059124867069 0.05367603692 0.047620763993 0.04116190325 
0.034538087583 0.028004037192 0.021807739406 0.016168022328 0.011256682109 0.0071889525686 0.0040245849413 0.0017792645413 0.0004430385322 
2.1904271189e-17 
