# vtk DataFile Version 5.1
vtk output
ASCII
DATASET POLYDATA
POINTS 100 float
0.15655 0.0393625 0.681528 0.156647 0.0395017 0.681647 0.157037 0.0397799 0.681855 
0.157651 0.0401913 0.682083 0.158385 0.0407276 0.682222 0.159109 0.0413798 0.682135 
0.159685 0.0421381 0.68167 0.159975 0.0429936 0.680667 0.159864 0.043938 0.678976 
0.159265 0.0449639 0.676464 0.158126 0.0460634 0.673028 0.15644 0.0472272 0.668596 
0.154232 0.0484423 0.66313 0.151561 0.0496909 0.656627 0.148501 0.0509484 0.649112 
0.145138 0.0521828 0.640632 0.141548 0.0533549 0.631251 0.137791 0.0544195 0.621043 
0.133903 0.055328 0.610084 0.129888 0.0560318 0.598449 0.125721 0.0564867 0.586211 
0.121351 0.0566576 0.573437 0.116711 0.0565226 0.560196 0.111725 0.0560765 0.546551 
0.106322 0.0553333 0.532574 0.100444 0.0543265 0.518337 0.0940591 0.0531077 0.503918 
0.0871624 0.051744 0.489399 0.0797795 0.0503124 0.474863 0.0719636 0.0488943 0.460387 
0.0637892 0.0475693 0.446034 0.0553436 0.0464085 0.43185 0.0467166 0.0454691 0.41785 
0.0379909 0.0447906 0.404017 0.0292336 0.0443924 0.390296 0.0204911 0.0442738 0.376589 
0.0117873 0.0444159 0.362767 0.00312533 0.044785 0.348665 -0.00550595 0.045338 0.334101 
-0.0141239 0.0460274 0.318882 -0.0227418 0.046807 0.30282 -0.0313581 0.047637 0.285748 
-0.0399479 0.0484872 0.26753 -0.0484563 0.0493394 0.248074 -0.0567961 0.0501873 0.227337 
-0.0648491 0.0510362 0.205332 -0.0724727 0.0518995 0.182128 -0.0795091 0.0527959 0.157838 
-0.0857977 0.0537458 0.13262 -0.0911891 0.0547675 0.106659 -0.0955581 0.0558745 0.080158 
-0.0988152 0.0570741 0.0533212 -0.100915 0.0583659 0.0263456 -0.101859 0.059743 -0.000591783 
-0.101697 0.0611926 -0.0273409 -0.100521 0.0626979 -0.0537834 -0.0984563 0.0642397 -0.0798335 
-0.0956486 0.0657977 -0.105437 -0.0922523 0.0673513 -0.130566 -0.0884167 0.0688791 -0.155213 
-0.0842738 0.0703584 -0.179387 -0.0799303 0.0717627 -0.203104 -0.0754613 0.0730608 -0.226379 
-0.0709097 0.0742139 -0.249229 -0.0662885 0.0751754 -0.271661 -0.0615869 0.0758905 -0.293677 
-0.0567789 0.0762975 -0.315274 -0.0518332 0.0763312 -0.336441 -0.0467232 0.0759271 -0.357167 
-0.0414357 0.0750267 -0.377439 -0.035978 0.0735836 -0.397247 -0.0303816 0.0715693 -0.416585 
-0.024703 0.0689777 -0.435447 -0.0190218 0.0658283 -0.453833 -0.0134355 0.0621667 -0.471743 
-0.00805267 0.0580631 -0.489175 -0.00298524 0.0536079 -0.506123 0.00166017 0.0489049 -0.522575 
0.00578959 0.0440637 -0.538509 0.00932802 0.0391905 -0.553893 0.0122238 0.0343794 -0.568685 
0.0144511 0.0297057 -0.582832 0.0160097 0.0252206 -0.596278 0.016924 0.0209488 -0.608961 
0.0172394 0.0168897 -0.62082 0.0170182 0.0130211 -0.6318 0.0163354 0.00930627 -0.641856 
0.0152738 0.00570195 -0.650955 0.0139195 0.00216785 -0.659082 0.0123589 -0.00132455 -0.66624 
0.0106752 -0.00478465 -0.672448 0.00894662 -0.00819784 -0.677746 0.00724481 -0.0115237 -0.682185 
0.00563401 -0.0146976 -0.685829 0.00417045 -0.0176358 -0.688748 0.00290214 -0.0202428 -0.691014 
0.0018687 -0.0224209 -0.692694 0.00110119 -0.0240803 -0.693846 0.000622085 -0.0251486 -0.694517 
0.000445084 -0.0255783 -0.694735 
LINES 2 100
OFFSETS vtktypeint64
0 100 
CONNECTIVITY vtktypeint64
0 1 2 3 4 5 6 7 8 
9 10 11 12 13 14 15 16 17 
18 19 20 21 22 23 24 25 26 
27 28 29 30 31 32 33 34 35 
36 37 38 39 40 41 42 43 44 
45 46 47 48 49 50 51 52 53 
54 55 56 57 58 59 60 61 62 
63 64 65 66 67 68 69 70 71 
72 73 74 75 76 77 78 79 80 
81 82 83 84 85 86 87 88 89 
90 91 92 93 94 95 96 97 98 
99 
POINT_DATA 100
FIELD FieldData 3
_theta 1 100 double
0 0.031733259127 0.063466518254 0.095199777382 0.12693303651 0.15866629564 0.19039955476 0.22213281389 0.25386607302 
0.28559933214 0.31733259127 0.3490658504 0.38079910953 0.41253236865 0.44426562778 0.47599888691 0.50773214603 0.53946540516 
0.57119866429 0.60293192342 0.63466518254 0.66639844167 0.6981317008 0.72986495992 0.76159821905 0.79333147818 0.82506473731 
0.85679799643 0.88853125556 0.92026451469 0.95199777382 0.98373103294 1.0154642921 1.0471975512 1.0789308103 1.1106640695 
1.1423973286 1.1741305877 1.2058638468 1.237597106 1.2693303651 1.3010636242 1.3327968833 1.3645301425 1.3962634016 
1.4279966607 1.4597299198 1.491463179 1.5231964381 1.5549296972 1.5866629564 1.6183962155 1.6501294746 1.6818627337 
1.7135959929 1.745329252 1.7770625111 1.8087957702 1.8405290294 1.8722622885 1.9039955476 1.9357288068 1.9674620659 
1.999195325 2.0309285841 2.0626618433 2.0943951024 2.1261283615 2.1578616206 2.1895948798 2.2213281389 2.253061398 
2.2847946572 2.3165279163 2.3482611754 2.3799944345 2.4117276937 2.4434609528 2.4751942119 2.506927471 2.5386607302 
2.5703939893 2.6021272484 2.6338605076 2.6655937667 2.6973270258 2.7290602849 2.7607935441 2.7925268032 2.8242600623 
2.8559933214 2.8877265806 2.9194598397 2.9511930988 2.982926358 3.0146596171 3.0463928762 3.0781261353 3.1098593945 
3.1415926536 
_radius 1 100 double
5.1628355029e-16 0.016927208659 0.033612939546 0.049840552432 0.065440939118 0.080304154818 0.094379308854 0.10766347738 0.12018368815 
0.13197815228 0.14308241573 0.15352295325 0.16331681404 0.17247357234 0.18099603107 0.18887824859 0.19610210587 0.20263543386 
0.20843482267 0.21345460835 0.21766096733 0.22104767108 0.22364874886 0.22554347865 0.22685084965 0.22771377424 0.22827722462 
0.2286674913 0.22897971212 0.22927688113 0.22959779135 0.22996733359 0.23040221298 0.23090786566 0.23146663416 0.23202193477 
0.23246678483 0.23264513663 0.23236948374 0.23145082199 0.22973238082 0.22711880795 0.22359568831 0.21923753367 0.21420440969 
0.20872831204 0.2030908977 0.19759482716 0.19253208259 0.18815390326 0.18464747274 0.18212324087 0.18061388073 0.18008277085 
0.18043807611 0.181548409 0.18325711454 0.18539370792 0.18778249671 0.19024966976 0.19263064117 0.19477871252 0.1965744856 
0.19793409811 0.19881412656 0.19921174407 0.19915983156 0.19871784592 0.19796018166 0.19696432 0.19580099233 0.194527801 
0.1931864713 0.19180266014 0.19038655359 0.18893262206 0.18741776133 0.1857982377 0.18400689934 0.18195259263 0.17952335928 
0.17659383869 0.17303586438 0.16873023427 0.16357748158 0.15750606615 0.15047730296 0.14248710583 0.13356502276 0.12377108386 
0.11319084577 0.1019289033 0.090101178155 0.077826481728 0.065218090998 0.052376268639 0.039382733425 0.026298008488 0.013162295638 
4.5469873477e-16 
_area 1 100 double
0 0.00059965005947 0.0023706751803 0.0052380284373 0.0091005930758 0.013852537375 0.019394435478 0.025632038525 0.032468159751 
0.039794788105 0.04748990786 0.055419942229 0.063445994082 0.071430884889 0.079244796714 0.086769286388 0.093900747509 0.1005543815 
0.10666944036 0.11221620064 0.11720267151 0.12167587091 0.12572095651 0.12946968637 0.13309257306 0.13672587446 0.1403786361 
0.14392895727 0.14719815939 0.15002596091 0.1523222765 0.15410068066 0.15549818898 0.15677755886 0.15828153441 0.1602852378 
0.16279473277 0.16548507345 0.16781714468 0.16919745746 0.16910664078 0.16718876876 0.16330113804 0.15752557607 0.15014738601 
0.14161126011 0.1324612621 0.12327081108 0.11457488769 0.10682435429 0.10037431398 0.095466168909 0.092117159436 0.090081620668 
0.089036699724 0.08869865133 0.088828347276 0.089219063731 0.089690766111 0.090094119706 0.09032424584 0.090338673505 0.090154764927 
0.089771210242 0.089075722056 0.087941261676 0.086352025701 0.084423361855 0.082393459495 0.080537694627 0.07892871454 0.07756020415 
0.076331700202 0.075173385072 0.074082194531 0.07314314586 0.07251837606 0.072344533982 0.072572657568 0.072971850638 0.07325164167 
0.07312835946 0.072348591375 0.070708453111 0.068075029137 0.064404577976 0.059750441052 0.054256560636 0.048137457716 0.041649337011 
0.035058505346 0.02861317832 0.022523798425 0.016955255092 0.012031388128 0.007847855804 0.0044857334309 0.0020183248684 0.00050851778439 
2.4342059302e-17 
