# vtk DataFile Version 5.1
vtk output
ASCII
DATASET POLYDATA
POINTS 100 float
0.121946 0.0445322 0.665079 0.122231 0.044792 0.665039 0.123107 0.0454173 0.664764 
0.124472 0.0463746 0.664227 0.126166 0.0476113 0.663387 0.12799 0.04906 0.662187 
0.129725 0.050644 0.660563 0.131158 0.0522827 0.658444 0.1321 0.0538973 0.655761 
0.132403 0.0554166 0.652444 0.131973 0.0567803 0.648432 0.130772 0.0579427 0.643674 
0.12882 0.0588738 0.638134 0.126182 0.0595586 0.631787 0.122958 0.0599961 0.624626 
0.119264 0.0601958 0.616658 0.115215 0.0601747 0.607904 0.110912 0.0599528 0.598394 
0.106426 0.0595501 0.588171 0.101795 0.0589831 0.577281 0.0970212 0.0582636 0.565775 
0.0920748 0.0573976 0.553706 0.0869026 0.0563862 0.541127 0.0814396 0.0552279 0.528089 
0.0756218 0.0539209 0.514643 0.0693976 0.0524669 0.500838 0.0627372 0.0508742 0.486721 
0.0556378 0.049161 0.472341 0.0481244 0.0473569 0.457741 0.0402462 0.0455037 0.442966 
0.0320693 0.0436544 0.428055 0.0236673 0.0418709 0.413039 0.0151109 0.0402202 0.397942 
0.00645894 0.0387694 0.382773 -0.0022483 0.0375807 0.367524 -0.0109913 0.036706 0.352166 
-0.0197698 0.0361828 0.336652 -0.0285963 0.0360305 0.320909 -0.0374868 0.0362491 0.304845 
-0.0464491 0.03682 0.288355 -0.0554708 0.0377075 0.271321 -0.064509 0.0388636 0.253626 
-0.0734833 0.0402332 0.235161 -0.0822738 0.0417595 0.215836 -0.0907237 0.0433911 0.195588 
-0.0986486 0.0450863 0.17439 -0.105849 0.0468176 0.152257 -0.112127 0.0485736 0.129247 
-0.117305 0.0503589 0.105461 -0.12124 0.0521915 0.081037 -0.123841 0.054099 0.0561432 
-0.125076 0.0561122 0.0309647 -0.124976 0.058259 0.00569176 -0.123633 0.0605573 -0.0194931 
-0.121189 0.0630097 -0.044428 -0.117823 0.0655986 -0.068982 -0.113735 0.0682843 -0.0930621 
-0.109124 0.0710056 -0.116616 -0.104171 0.073682 -0.139633 -0.0990262 0.0762191 -0.162134 
-0.0937956 0.0785154 -0.184171 -0.0885381 0.0804702 -0.20581 -0.0832658 0.0819915 -0.227118 
-0.0779514 0.0830029 -0.248159 -0.0725384 0.0834501 -0.268977 -0.0669561 0.0833036 -0.28959 
-0.0611341 0.0825602 -0.309989 -0.0550163 0.081241 -0.330137 -0.0485725 0.0793878 -0.349971 
-0.0418061 0.0770568 -0.369412 -0.0347564 0.0743121 -0.388372 -0.0274975 0.0712183 -0.406765 
-0.020132 0.0678345 -0.424516 -0.0127818 0.0642091 -0.441569 -0.0055777 0.060377 -0.457893 
0.00135197 0.0563594 -0.473482 0.00789126 0.0521656 -0.488351 0.0139443 0.0477973 -0.502536 
0.0194399 0.0432541 -0.516079 0.0243332 0.0385394 -0.529027 0.0286041 0.033667 -0.541413 
0.0322534 0.0286653 -0.553257 0.0352977 0.0235805 -0.564553 0.0377636 0.018477 -0.575274 
0.0396829 0.0134356 -0.585365 0.0410889 0.00854828 -0.594756 0.0420146 0.00391178 -0.603368 
0.0424933 -0.000380331 -0.61112 0.04256 -0.00424606 -0.617946 0.0422544 -0.00762266 -0.623803 
0.0416242 -0.0104726 -0.628677 0.0407274 -0.0127872 -0.632594 0.0396336 -0.0145871 -0.635616 
0.0384229 -0.0159198 -0.637838 0.0371837 -0.016854 -0.639382 0.0360073 -0.0174721 -0.640387 
0.034982 -0.01786 -0.64099 0.0341862 -0.0180983 -0.641319 0.0336816 -0.0182519 -0.641473 
0.0335077 -0.0183634 -0.641518 
LINES 2 100
OFFSETS vtktypeint64
0 100 
CONNECTIVITY vtktypeint64
0 1 2 3 4 5 6 7 8 
9 10 11 12 13 14 15 16 17 
18 19 20 21 22 23 24 25 26 
27 28 29 30 31 32 33 34 35 
36 37 38 39 40 41 42 43 44 
45 46 47 48 49 50 51 52 53 
54 55 56 57 58 59 60 61 62 
63 64 65 66 67 68 69 70 71 
72 73 74 75 76 77 78 79 80 
81 82 83 84 85 86 87 88 89 
90 91 92 93 94 95 96 97 98 
99 
POINT_DATA 100
FIELD FieldData 3
_theta 1 100 double
0 0.031733259127 0.063466518254 0.095199777382 0.12693303651 0.15866629564 0.19039955476 0.22213281389 0.25386607302 
0.28559933214 0.31733259127 0.3490658504 0.38079910953 0.41253236865 0.44426562778 0.47599888691 0.50773214603 0.53946540516 
0.57119866429 0.60293192342 0.63466518254 0.66639844167 0.6981317008 0.72986495992 0.76159821905 0.79333147818 0.82506473731 
0.85679799643 0.88853125556 0.92026451469 0.95199777382 0.98373103294 1.0154642921 1.0471975512 1.0789308103 1.1106640695 
1.1423973286 1.1741305877 1.2058638468 1.237597106 1.2693303651 1.3010636242 1.3327968833 1.3645301425 1.3962634016 
1.4279966607 1.4597299198 1.491463179 1.5231964381 1.5549296972 1.5866629564 1.6183962155 1.6501294746 1.6818627337 
1.7135959929 1.745329252 1.7770625111 1.8087957702 1.8405290294 1.8722622885 1.9039955476 1.9357288068 1.9674620659 
1.999195325 2.0309285841 2.0626618433 2.0943951024 2.1261283615 2.1578616206 2.1895948798 2.2213281389 2.253061398 
2.2847946572 2.3165279163 2.3482611754 2.3799944345 2.4117276937 2.4434609528 2.4751942119 2.506927471 2.5386607302 
2.5703939893 2.6021272484 2.6338605076 2.6655937667 2.6973270258 2.7290602849 2.7607935441 2.7925268032 2.8242600623 
2.8559933214 2.8877265806 2.9194598397 2.9511930988 2.982926358 3.0146596171 3.0463928762 3.0781261353 3.1098593945 
3.1415926536 
_radius 1 100 double
9.2649175723e-16 0.015431068967 0.030681164729 0.045580660048 0.059989846421 0.073807176038 0.08697098156 0.099455166321 0.11126068928 
0.12240529597 0.13291369266 0.14280949351 0.15210934563 0.16081911593 0.16893199685 0.17642860924 0.18327933734 0.18944905144 
0.1949040575 0.19962064679 0.20359412692 0.20684682868 0.20943343278 0.21144214866 0.212990853 0.21421820248 0.21527077756 
0.21628815142 0.2173880667 0.21865353545 0.22012296959 0.22178393463 0.22357107369 0.22536891588 0.22702016102 0.22833938099 
0.22913110609 0.22921040586 0.22842363828 0.22666707808 0.22390149662 0.22016126413 0.21555704964 0.2102716502 0.20454889645 
0.19867601482 0.19296038929 0.18770248758 0.18316781622 0.17956184687 0.17701219613 0.17556120338 0.17516945297 0.1757278642 
0.17707428164 0.17901088097 0.18132062791 0.18378292767 0.18618913877 0.18835777288 0.1901480102 0.19146959732 0.19228748752 
0.19262043538 0.19253380328 0.19212781547 0.19152319995 0.19084639563 0.19021614472 0.18973241669 0.18946760016 0.18945932955 
0.18970460276 0.19015582955 0.19072034099 0.19126483913 0.1916251211 0.19161986677 0.19106622782 0.18979479633 0.18766206656 
0.18455930874 0.18041751959 0.17520865569 0.16894366558 0.16166794181 0.1534547794 0.14439735102 0.13459970762 0.12416746756 
0.11319914842 0.10177937052 0.08997518053 0.077836323194 0.065399437922 0.052695116376 0.039755896837 0.026622934157 0.013349443893 
1.0120198786e-15 
_area 1 100 double
0 0.00058742399731 0.0023200409251 0.0051149193705 0.0088518375484 0.013393863455 0.018606290199 0.024369224669 0.030581888747 
0.037159151131 0.044022299079 0.051087071821 0.058252972775 0.065398147718 0.072382622411 0.079059716821 0.085292509747 0.090970667488 
0.096023221932 0.1004247418 0.10419507058 0.10739513771 0.11012170501 0.11250159638 0.11468266714 0.1168181199 0.1190448754 
0.12146288519 0.12412435149 0.12703616374 0.13016963708 0.13346743322 0.13684166708 0.14016508284 0.14326256512 0.14591038591 
0.14784748541 0.14880010897 0.14851819248 0.14681760067 0.14361859789 0.13897083157 0.13305854288 0.12618452834 0.11873612466 
0.11114039871 0.10381743215 0.097138730326 0.09139395808 0.086767813067 0.083330936497 0.081049452173 0.079812609023 0.07946984666 
0.079863882623 0.080847396321 0.082272952082 0.083957426416 0.085665894942 0.087153284733 0.088217312882 0.088726107059 0.088627145594 
0.087946673712 0.086782178758 0.085288317693 0.083657195779 0.082095656787 0.080804371577 0.079962632545 0.079717604216 0.08017000088 
0.081342156636 0.08314570894 0.085397164177 0.087855974626 0.090253487576 0.092314045021 0.093771961671 0.094386978037 0.093959812403 
0.092347945585 0.089480083646 0.085366374031 0.080101042414 0.0738550703 0.066858676448 0.059376015087 0.051676797734 0.044010730361 
0.03659017579 0.029584035727 0.023122029682 0.017305100149 0.012216555234 0.0079299759408 0.0045123255484 0.0020226994606 0.00050834504513 
2.4920771293e-17 
