# vtk DataFile Version 5.1
vtk output
ASCII
DATASET POLYDATA
POINTS 100 float
0.156274 0.0411745 0.656852 0.156338 0.0413362 0.656735 0.156579 0.041645 0.656247 
0.156937 0.0421032 0.655372 0.157326 0.0427141 0.654086 0.157634 0.0434794 0.652361 
0.157744 0.0443961 0.650161 0.157541 0.0454536 0.64745 0.156929 0.0466307 0.644193 
0.155834 0.0478941 0.640356 0.154216 0.0491979 0.635915 0.152064 0.0504847 0.630853 
0.149397 0.051688 0.625164 0.146255 0.0527361 0.618857 0.142688 0.0535579 0.611951 
0.138751 0.0540876 0.60448 0.134487 0.0542714 0.596485 0.129925 0.0540719 0.588017 
0.125073 0.0534726 0.57913 0.119918 0.0524797 0.569877 0.11443 0.0511233 0.560307 
0.108569 0.0494554 0.550459 0.102291 0.0475461 0.540361 0.0955635 0.0454793 0.530026 
0.0883698 0.0433457 0.519452 0.0807184 0.0412367 0.508624 0.0726462 0.0392373 0.497513 
0.064218 0.037421 0.486084 0.0555218 0.0358448 0.474294 0.0466611 0.0345471 0.462102 
0.0377437 0.0335468 0.449469 0.0288707 0.0328447 0.436362 0.020125 0.0324263 0.422757 
0.0115636 0.0322665 0.408641 0.00321198 0.0323343 0.394005 -0.00493572 0.0325984 0.37885 
-0.0129122 0.0330316 0.363178 -0.020768 0.0336148 0.346987 -0.0285597 0.0343387 0.330275 
-0.0363358 0.035205 0.313031 -0.0441235 0.0362248 0.295233 -0.0519166 0.0374162 0.276852 
-0.0596684 0.0388001 0.257853 -0.0672889 0.0403959 0.238197 -0.0746472 0.042217 0.217848 
-0.0815807 0.0442663 0.196777 -0.0879073 0.0465338 0.174971 -0.0934421 0.0489946 0.152435 
-0.0980148 0.0516087 0.129202 -0.101486 0.0543236 0.105326 -0.103761 0.0570768 0.0808895 
-0.1048 0.0598011 0.0559984 -0.10462 0.0624291 0.0307742 -0.103296 0.064899 0.00534907 
-0.100949 0.0671591 -0.0201437 -0.0977355 0.069172 -0.0455783 -0.0938333 0.0709163 -0.0708448 
-0.0894221 0.0723876 -0.095856 -0.0846691 0.0735969 -0.120552 -0.0797153 0.0745679 -0.1449 
-0.0746665 0.0753321 -0.168897 -0.0695889 0.0759238 -0.192561 -0.0645103 0.0763744 -0.215929 
-0.0594255 0.0767068 -0.239044 -0.0543059 0.0769311 -0.261951 -0.0491109 0.0770413 -0.284686 
-0.0438 0.0770138 -0.307268 -0.0383439 0.0768084 -0.329697 -0.0327326 0.0763702 -0.351948 
-0.0269804 0.0756342 -0.373973 -0.021127 0.0745306 -0.395705 -0.015234 0.0729913 -0.417059 
-0.00937941 0.0709565 -0.43794 -0.00364865 0.068381 -0.458254 0.00187421 0.0652392 -0.477909 
0.00711517 0.0615296 -0.496824 0.0120173 0.0572762 -0.514934 0.0165449 0.0525296 -0.532193 
0.0206849 0.0473643 -0.548571 0.0244448 0.0418761 -0.564057 0.0278486 0.0361765 -0.578652 
0.03093 0.0303871 -0.59237 0.0337264 0.0246327 -0.605226 0.0362716 0.0190345 -0.617241 
0.0385913 0.0137042 -0.628431 0.0406998 0.00873847 -0.638809 0.0426 0.00421434 -0.648384 
0.0442847 0.000186638 -0.65716 0.0457411 -0.00331349 -0.665139 0.0469557 -0.0062784 -0.672324 
0.0479196 -0.00872244 -0.678719 0.0486336 -0.0106791 -0.684334 0.0491112 -0.0121972 -0.689184 
0.0493795 -0.0133365 -0.693292 0.0494783 -0.0141627 -0.696686 0.0494562 -0.0147424 -0.699398 
0.0493654 -0.0151383 -0.701458 0.0492557 -0.0154046 -0.702898 0.0491684 -0.0155835 -0.703741 
0.0491304 -0.015702 -0.704003 
LINES 2 100
OFFSETS vtktypeint64
0 100 
CONNECTIVITY vtktypeint64
0 1 2 3 4 5 6 7 8 
9 10 11 12 13 14 15 16 17 
18 19 20 21 22 23 24 25 26 
27 28 29 30 31 32 33 34 35 
36 37 38 39 40 41 42 43 44 
45 46 47 48 49 50 51 52 53 
54 55 56 57 58 59 60 61 62 
63 64 65 66 67 68 69 70 71 
72 73 74 75 76 77 78 79 80 
81 82 83 84 85 86 87 88 89 
90 91 92 93 94 95 96 97 98 
99 
POINT_DATA 100
FIELD FieldData 3
_theta 1 100 double
0 0.031733259127 0.063466518254 0.095199777382 0.12693303651 0.15866629564 0.19039955476 0.22213281389 0.25386607302 
0.28559933214 0.31733259127 0.3490658504 0.38079910953 0.41253236865 0.44426562778 0.47599888691 0.50773214603 0.53946540516 
0.57119866429 0.60293192342 0.63466518254 0.66639844167 0.6981317008 0.72986495992 0.76159821905 0.79333147818 0.82506473731 
0.85679799643 0.88853125556 0.92026451469 0.95199777382 0.98373103294 1.0154642921 1.0471975512 1.0789308103 1.1106640695 
1.1423973286 1.1741305877 1.2058638468 1.237597106 1.2693303651 1.3010636242 1.3327968833 1.3645301425 1.3962634016 
1.4279966607 1.4597299198 1.491463179 1.5231964381 1.5549296972 1.5866629564 1.6183962155 1.6501294746 1.6818627337 
1.7135959929 1.745329252 1.7770625111 1.8087957702 1.8405290294 1.8722622885 1.9039955476 1.9357288068 1.9674620659 
1.999195325 2.0309285841 2.0626618433 2.0943951024 2.1261283615 2.1578616206 2.1895948798 2.2213281389 2.253061398 
2.2847946572 2.3165279163 2.3482611754 2.3799944345 2.4117276937 2.4434609528 2.4751942119 2.506927471 2.5386607302 
2.5703939893 2.6021272484 2.6338605076 2.6655937667 2.6973270258 2.7290602849 2.7607935441 2.7925268032 2.8242600623 
2.8559933214 2.8877265806 2.9194598397 2.9511930988 2.982926358 3.0146596171 3.0463928762 3.0781261353 3.1098593945 
3.1415926536 
_radius 1 100 double
3.5217877338e-16 0.015088794349 0.030051589835 0.044767736561 0.059135313395 0.073078069009 0.086549469169 0.09953334185 0.11204093867 
0.12410461723 0.13576880079 0.14707934305 0.15807280658 0.16876731667 0.17915648038 0.18920735519 0.19886271423 0.2080470766 
0.21667536971 0.22466280668 0.23193459353 0.23843431724 0.24413017794 0.24901852945 0.25312444167 0.25649919109 0.25921475812 
0.26135564205 0.26300867223 0.26425198757 0.26514481362 0.26571982638 0.26597956059 0.26589754228 0.26542388137 0.26449429231 
0.26304111435 0.26100486365 0.25834501899 0.25504897195 0.25113829322 0.24667168958 0.24174428908 0.23648321544 0.2310397948 
0.22557915367 0.22026835492 0.2152644706 0.21070399332 0.20669470364 0.20331062028 0.20059011159 0.19853675356 0.19712212604 
0.19628950528 0.19595750371 0.19602330527 0.19636610668 0.19685207554 0.19734190326 0.19770089307 0.19781027477 0.1975778396 
0.19694615581 0.19589720197 0.19445289383 0.19267154754 0.19064079196 0.18846779776 0.18626792651 0.18415305684 0.18222090807 
0.18054653387 0.17917666559 0.17812679758 0.17738013585 0.17688721418 0.1765654036 0.17629857151 0.17593820508 0.17530770364 
0.17421096454 0.17244514599 0.16981621995 0.16615513143 0.16133221425 0.15526787264 0.14793821257 0.139375099 0.12966087816 
0.11891864352 0.10729938966 0.094967669718 0.082087446613 0.068809713677 0.05526317586 0.041548862843 0.027739041794 0.013880275699 
2.257455054e-16 
_area 1 100 double
0 0.00061607063773 0.0024397171506 0.0054000919022 0.0093884695725 0.014271609942 0.019908642339 0.026168921503 0.032947340457 
0.040173358645 0.047810965387 0.055848937944 0.064283510633 0.073098069958 0.08224581187 0.091640718647 0.10115962989 0.11065452587 
0.11997108112 0.12896833096 0.13753482778 0.14559795357 0.15312456945 0.16011325769 0.1665809838 0.17254875625 0.1780304809 
0.1830268719 0.18752348668 0.19149055964 0.19488320167 0.19764255405 0.19969943214 0.20098085747 0.20141771628 0.20095064685 
0.19953259879 0.19712996985 0.19372702113 0.18933668742 0.18401483273 0.17787011652 0.1710631656 0.1637946795 0.15628663539 
0.14876161296 0.14142423922 0.13444764123 0.12796639774 0.12207539006 0.1168319707 0.11225786746 0.10833972491 0.10503652089 
0.10230535233 0.10013852221 0.098576270648 0.097641116557 0.097244220418 0.097193358966 0.097248059677 0.097166187989 0.096745270433 
0.095850214602 0.094422757399 0.09247747536 0.090091688543 0.087395439292 0.084565768222 0.081823211959 0.079396523617 0.0774262313 
0.075961559826 0.075036348364 0.07467677854 0.074884053166 0.075622345211 0.076807459185 0.078290967987 0.079851956171 0.081212361601 
0.082066176349 0.082111327889 0.081083712805 0.078791174928 0.07514181183 0.07016097026 0.06399323412 0.056888265816 0.049172247353 
0.041209650485 0.033362350998 0.025953717532 0.019243833913 0.013418941821 0.0085946241359 0.0048292874178 0.0021428004834 0.00053498172652 
2.0816681712e-17 
