# vtk DataFile Version 5.1
vtk output
ASCII
DATASET POLYDATA
POINTS 100 float
0.0467345 0.0574163 0.671236 0.0467555 0.057561 0.670727 0.0468482 0.0578156 0.669048 
0.0470042 0.0581362 0.666261 0.0472105 0.0584578 0.662461 0.0474503 0.0587041 0.657767 
0.0477047 0.058799 0.652313 0.0479536 0.0586793 0.646227 0.0481772 0.0583047 0.639623 
0.0483565 0.0576654 0.632592 0.048473 0.0567855 0.625189 0.0485087 0.0557214 0.617438 
0.0484442 0.0545553 0.609329 0.048258 0.0533862 0.600827 0.0479247 0.0523162 0.591879 
0.0474136 0.0514378 0.582429 0.0466885 0.0508212 0.572424 0.0457079 0.0505044 0.561828 
0.0444261 0.0504876 0.550628 0.0427955 0.050732 0.53884 0.0407703 0.0511644 0.526506 
0.0383099 0.0516858 0.513694 0.0353834 0.0521838 0.50049 0.0319731 0.052547 0.486989 
0.0280782 0.0526791 0.473283 0.0237162 0.0525118 0.459457 0.0189236 0.0520139 0.445576 
0.0137539 0.0511955 0.431684 0.00827485 0.0501076 0.4178 0.00256308 0.0488362 0.403916 
-0.00330177 0.0474919 0.390011 -0.00924378 0.0461969 0.376045 -0.0151972 0.0450697 0.361976 
-0.0211122 0.0442117 0.347761 -0.0269585 0.0436948 0.333365 -0.0327276 0.0435537 0.318763 
-0.0384318 0.0437824 0.303943 -0.0441007 0.0443365 0.288901 -0.0497755 0.0451397 0.273639 
-0.0555015 0.0460948 0.258157 -0.0613186 0.0470963 0.242451 -0.0672523 0.0480451 0.2265 
-0.0733052 0.0488605 0.210269 -0.0794501 0.0494913 0.193702 -0.0856258 0.0499218 0.176723 
-0.0917356 0.0501734 0.159247 -0.0976501 0.0503021 0.141181 -0.103213 0.0503907 0.122436 
-0.108249 0.0505383 0.10294 -0.112578 0.0508485 0.0826481 -0.116023 0.051416 0.0615488 
-0.118427 0.0523154 0.0396736 -0.119664 0.0535927 0.0170985 -0.119646 0.0552599 -0.00605816 
-0.118334 0.0572936 -0.0296412 -0.115738 0.0596384 -0.0534684 -0.111916 0.0622129 -0.0773432 
-0.106971 0.0649183 -0.101068 -0.101041 0.0676484 -0.12446 -0.0942874 0.0702996 -0.14736 
-0.0868862 0.0727789 -0.169646 -0.0790114 0.0750106 -0.191239 -0.0708248 0.0769392 -0.212101 
-0.0624659 0.0785295 -0.232239 -0.0540446 0.0797647 -0.251692 -0.0456376 0.080641 -0.270529 
-0.0372878 0.0811626 -0.288833 -0.0290075 0.0813349 -0.306692 -0.0207847 0.0811601 -0.324187 
-0.0125902 0.0806333 -0.341385 -0.00438758 0.0797414 -0.358331 0.00385866 0.0784641 -0.375045 
0.0121746 0.0767775 -0.391523 0.0205709 0.0746585 -0.407737 0.029039 0.0720914 -0.423644 
0.0375502 0.0690732 -0.439184 0.0460571 0.0656192 -0.454298 0.0544976 0.0617657 -0.468924 
0.0628006 0.0575718 -0.483006 0.0708928 0.053118 -0.4965 0.0787051 0.0485025 -0.509372 
0.0861787 0.0438353 -0.5216 0.0932698 0.039232 -0.533172 0.0999517 0.0348053 -0.544086 
0.106216 0.0306581 -0.554344 0.112069 0.0268768 -0.563949 0.11753 0.0235262 -0.572907 
0.122627 0.0206471 -0.581219 0.127385 0.0182546 -0.588887 0.13183 0.0163397 -0.595906 
0.135974 0.0148722 -0.602273 0.13982 0.0138045 -0.60798 0.143355 0.013077 -0.613022 
0.146553 0.0126228 -0.617393 0.149376 0.0123732 -0.62109 0.151778 0.0122624 -0.624111 
0.153714 0.0122309 -0.626455 0.155137 0.0122289 -0.628124 0.156011 0.0122191 -0.62912 
0.156313 0.0121777 -0.629444 
LINES 2 100
OFFSETS vtktypeint64
0 100 
CONNECTIVITY vtktypeint64
0 1 2 3 4 5 6 7 8 
9 10 11 12 13 14 15 16 17 
18 19 20 21 22 23 24 25 26 
27 28 29 30 31 32 33 34 35 
36 37 38 39 40 41 42 43 44 
45 46 47 48 49 50 51 52 53 
54 55 56 57 58 59 60 61 62 
63 64 65 66 67 68 69 70 71 
72 73 74 75 76 77 78 79 80 
81 82 83 84 85 86 87 88 89 
90 91 92 93 94 95 96 97 98 
99 
POINT_DATA 100
FIELD FieldData 3
_theta 1 100 double
0 0.031733259127 0.063466518254 0.095199777382 0.12693303651 0.15866629564 0.19039955476 0.22213281389 0.25386607302 
0.28559933214 0.31733259127 0.3490658504 0.38079910953 0.41253236865 0.44426562778 0.47599888691 0.50773214603 0.53946540516 
0.57119866429 0.60293192342 0.63466518254 0.66639844167 0.6981317008 0.72986495992 0.76159821905 0.79333147818 0.82506473731 
0.85679799643 0.88853125556 0.92026451469 0.95199777382 0.98373103294 1.0154642921 1.0471975512 1.0789308103 1.1106640695 
1.1423973286 1.1741305877 1.2058638468 1.237597106 1.2693303651 1.3010636242 1.3327968833 1.3645301425 1.3962634016 
1.4279966607 1.4597299198 1.491463179 1.5231964381 1.5549296972 1.5866629564 1.6183962155 1.6501294746 1.6818627337 
1.7135959929 1.745329252 1.7770625111 1.8087957702 1.8405290294 1.8722622885 1.9039955476 1.9357288068 1.9674620659 
1.999195325 2.0309285841 2.0626618433 2.0943951024 2.1261283615 2.1578616206 2.1895948798 2.2213281389 2.253061398 
2.2847946572 2.3165279163 2.3482611754 2.3799944345 2.4117276937 2.4434609528 2.4751942119 2.506927471 2.5386607302 
2.5703939893 2.6021272484 2.6338605076 2.6655937667 2.6973270258 2.7290602849 2.7607935441 2.7925268032 2.8242600623 
2.8559933214 2.8877265806 2.9194598397 2.9511930988 2.982926358 3.0146596171 3.0463928762 3.0781261353 3.1098593945 
3.1415926536 
_radius 1 100 double
1.5569430704e-15 0.013168680796 0.026283565945 0.039283113653 0.052107462511 0.064699536603 0.077005983144 0.088977990972 0.10057202835 
0.1117504763 0.12248207085 0.13274206057 0.1425120645 0.15177974736 0.16053852557 0.1687874691 0.17653132508 0.18378024914 
0.19054862119 0.19685248663 0.20270576252 0.20811614966 0.21308226654 0.21759348268 0.22163317151 0.22518489618 0.22823989631 
0.23080364756 0.23289943705 0.23456772717 0.23586124128 0.23683681265 0.2375457753 0.23802487596 0.23828937535 0.23832938171 
0.23810978612 0.23757364835 0.23664858311 0.23525557182 0.23331955161 0.23078093346 0.22760676811 0.22379984042 0.2194040589 
0.21450535562 0.20922849787 0.20373101421 0.19819541592 0.19282018365 0.18780919744 0.1833591013 0.17964478337 0.17680428603 
0.17492512364 0.17403376023 0.17408960676 0.17498506999 0.17655323835 0.1785835166 0.18084312889 0.18310044682 0.18514588023 
0.18680769209 0.18796229966 0.18853961226 0.18852351773 0.18794738224 0.18688512834 0.18543921501 0.18372700407 0.18186680852 
0.17996478813 0.17810386674 0.17633582146 0.17467742455 0.17311091489 0.17158825853 0.17003792354 0.16837256596 0.16649623949 
0.16431035983 0.16171832627 0.15862907332 0.15495973823 0.15063724883 0.14559836505 0.13978791393 0.13315567338 0.12565321373 
0.11723248962 0.10784778027 0.097461750478 0.086055227759 0.073639096181 0.060265804409 0.04603764612 0.031109364483 0.015683706041 
3.4834089377e-16 
_area 1 100 double
0 0.00049905705514 0.001981055509 0.0044011471516 0.0076871022474 0.011743826834 0.01646040464 0.021719106498 0.027404849277 
0.033413025043 0.039653654519 0.046050489302 0.052535229396 0.059039450032 0.065488923119 0.071804757498 0.077912678803 0.083757508689 
0.089316611416 0.094605346271 0.099670090282 0.10456935882 0.10934885637 0.11401969297 0.11854905602 0.12286872767 0.12689925856 
0.13057913781 0.13388479282 0.13683266029 0.13946532303 0.14183121727 0.14396817705 0.14592967199 0.14799438856 0.14985732251 
0.1512952209 0.1518768381 0.15140717915 0.149777821 0.14699057902 0.1433234638 0.1391093658 0.13472476659 0.13001842919 
0.12494501368 0.11951485746 0.11381383465 0.10800334973 0.10231555899 0.097017795889 0.09234803778 0.088444643758 0.085315724777 
0.082874683277 0.081003683483 0.07959722385 0.078589768265 0.07800038547 0.077778854978 0.077936525132 0.078460714618 0.079247140781 
0.080136747813 0.080953087017 0.081517474121 0.081666703947 0.081285962843 0.080334840997 0.078853438403 0.076952110084 0.07479176403 
0.072560354308 0.070448872728 0.068626738265 0.067238559298 0.0664307017 0.066137686595 0.066159178373 0.066333932878 0.066357632151 
0.066001911944 0.065097155153 0.063525876424 0.061217853793 0.05814890836 0.054339244781 0.049849553851 0.044776512751 0.039250319009 
0.03343448316 0.02752470428 0.021742035471 0.016317108572 0.011466429606 0.007366654767 0.0041357875724 0.0018294700394 0.0004553391344 
4.5186665491e-17 
