# vtk DataFile Version 5.1
vtk output
ASCII
DATASET POLYDATA
POINTS 100 float
0.127117 0.0254134 0.694111 0.127352 0.0256799 0.693688 0.128092 0.0263321 0.692325 
0.12923 0.0273176 0.690091 0.130608 0.0285574 0.687091 0.132031 0.0299559 0.683456 
0.133296 0.0314122 0.679323 0.13422 0.0328328 0.674822 0.134662 0.034143 0.670063 
0.134538 0.035295 0.665118 0.133838 0.036273 0.660016 0.132618 0.0370939 0.65474 
0.130995 0.0378032 0.64923 0.129129 0.0384676 0.643389 0.127195 0.0391644 0.637095 
0.125359 0.039969 0.630217 0.123752 0.0409435 0.622633 0.122445 0.042126 0.614242 
0.121435 0.0435229 0.604982 0.120642 0.0451057 0.594834 0.119912 0.0468116 0.583831 
0.119029 0.0485488 0.572054 0.117744 0.0502048 0.559629 0.115796 0.0516584 0.546712 
0.112946 0.0527919 0.533478 0.109006 0.0535035 0.520105 0.103856 0.0537188 0.506756 
0.0974668 0.0533977 0.493565 0.0898978 0.0525396 0.480629 0.081296 0.0511835 0.467995 
0.0718789 0.0494043 0.455662 0.061913 0.0473059 0.443584 0.0516851 0.0450121 0.431669 
0.0414739 0.042656 0.419799 0.0315223 0.040369 0.407831 0.0220155 0.0382719 0.395618 
0.0130664 0.0364663 0.383015 0.00470994 0.0350303 0.369891 -0.0030929 0.0340154 0.356137 
-0.0104427 0.0334474 0.341666 -0.0174827 0.0333282 0.326417 -0.0243753 0.0336401 0.310355 
-0.0312775 0.0343506 0.29346 -0.038319 0.035417 0.275729 -0.0455829 0.0367909 0.257164 
-0.0530948 0.0384217 0.237774 -0.060818 0.0402584 0.217566 -0.0686567 0.0422514 0.196546 
-0.0764663 0.0443526 0.17472 -0.084068 0.046515 0.152096 -0.0912674 0.0486933 0.12869 
-0.097873 0.0508438 0.104529 -0.103714 0.052925 0.0796548 -0.108653 0.0548996 0.0541322 
-0.112596 0.0567358 0.0280466 -0.115495 0.05841 0.0015055 -0.11735 0.0599081 -0.0253641 
-0.118195 0.0612275 -0.0524213 -0.118098 0.0623761 -0.079518 -0.117144 0.0633722 -0.106507 
-0.115423 0.0642405 -0.133252 -0.113029 0.065009 -0.159634 -0.11004 0.0657033 -0.185557 
-0.106528 0.0663416 -0.210956 -0.102544 0.0669294 -0.235795 -0.0981331 0.0674556 -0.260067 
-0.0933278 0.0678903 -0.283788 -0.0881584 0.0681852 -0.306993 -0.0826563 0.0682754 -0.329726 
-0.0768577 0.068085 -0.352028 -0.070806 0.0675333 -0.373936 -0.0645522 0.0665435 -0.395465 
-0.0581539 0.0650505 -0.416611 -0.0516724 0.0630091 -0.437346 -0.0451697 0.0604003 -0.457613 
-0.0387047 0.057235 -0.477337 -0.032331 0.0535553 -0.496426 -0.0260952 0.0494325 -0.514778 
-0.020037 0.0449622 -0.532292 -0.01419 0.0402571 -0.548874 -0.00858489 0.0354387 -0.56445 
-0.00325163 0.0306274 -0.578964 0.00177753 0.0259342 -0.592391 0.00646641 0.0214531 -0.60473 
0.0107746 0.0172561 -0.61601 0.0146588 0.0133905 -0.626279 0.0180762 0.00987932 -0.635604 
0.0209893 0.0067237 -0.644059 0.0233711 0.00390794 -0.651721 0.0252109 0.00140529 -0.658661 
0.0265191 -0.000815647 -0.664936 0.0273297 -0.00278518 -0.670587 0.0277011 -0.00452786 -0.675637 
0.0277136 -0.00605966 -0.680089 0.0274639 -0.00738698 -0.68393 0.027058 -0.00850758 -0.687135 
0.0266017 -0.00941295 -0.689671 0.0261906 -0.0100915 -0.691504 0.0259012 -0.0105323 -0.692607 
0.0257829 -0.0107275 -0.692958 
LINES 2 100
OFFSETS vtktypeint64
0 100 
CONNECTIVITY vtktypeint64
0 1 2 3 4 5 6 7 8 
9 10 11 12 13 14 15 16 17 
18 19 20 21 22 23 24 25 26 
27 28 29 30 31 32 33 34 35 
36 37 38 39 40 41 42 43 44 
45 46 47 48 49 50 51 52 53 
54 55 56 57 58 59 60 61 62 
63 64 65 66 67 68 69 70 71 
72 73 74 75 76 77 78 79 80 
81 82 83 84 85 86 87 88 89 
90 91 92 93 94 95 96 97 98 
99 
POINT_DATA 100
FIELD FieldData 3
_theta 1 100 double
0 0.031733259127 0.063466518254 0.095199777382 0.12693303651 0.15866629564 0.19039955476 0.22213281389 0.25386607302 
0.28559933214 0.31733259127 0.3490658504 0.38079910953 0.41253236865 0.44426562778 0.47599888691 0.50773214603 0.53946540516 
0.57119866429 0.60293192342 0.63466518254 0.66639844167 0.6981317008 0.72986495992 0.76159821905 0.79333147818 0.82506473731 
0.85679799643 0.88853125556 0.92026451469 0.95199777382 0.98373103294 1.0154642921 1.0471975512 1.0789308103 1.1106640695 
1.1423973286 1.1741305877 1.2058638468 1.237597106 1.2693303651 1.3010636242 1.3327968833 1.3645301425 1.3962634016 
1.4279966607 1.4597299198 1.491463179 1.5231964381 1.5549296972 1.5866629564 1.6183962155 1.6501294746 1.6818627337 
1.7135959929 1.745329252 1.7770625111 1.8087957702 1.8405290294 1.8722622885 1.9039955476 1.9357288068 1.9674620659 
1.999195325 2.0309285841 2.0626618433 2.0943951024 2.1261283615 2.1578616206 2.1895948798 2.2213281389 2.253061398 
2.2847946572 2.3165279163 2.3482611754 2.3799944345 2.4117276937 2.4434609528 2.4751942119 2.506927471 2.5386607302 
2.5703939893 2.6021272484 2.6338605076 2.6655937667 2.6973270258 2.7290602849 2.7607935441 2.7925268032 2.8242600623 
2.8559933214 2.8877265806 2.9194598397 2.9511930988 2.982926358 3.0146596171 3.0463928762 3.0781261353 3.1098593945 
3.1415926536 
_radius 1 100 double
3.1495623378e-16 0.011597156726 0.023355268798 0.035406450862 0.047840113085 0.060688634551 0.073919864865 0.087436408278 0.10108086367 
0.11464640212 0.1278924924 0.14056517564 0.15242004206 0.16324501228 0.17287992576 0.18123058013 0.18827567135 0.19406581516 
0.19871463836 0.20238297634 0.20525833989 0.20753262295 0.20938128009 0.21094700639 0.21233039768 0.2135889335 0.21474376631 
0.2157917692 0.21671911196 0.21751286509 0.2181684392 0.21869224541 0.21910008054 0.21941194734 0.21964339392 0.21979316093 
0.2198288419 0.21967622808 0.21921972075 0.21831686209 0.21682286102 0.21461736937 0.21162704481 0.20784046425 0.20331425795 
0.1981706105 0.19258705685 0.18678017446 0.18098538945 0.17543553321 0.17034087269 0.16587312069 0.16215550159 0.15926012808 
0.15721232763 0.1559992588 0.15557838073 0.15588164265 0.15681424778 0.15825141415 0.16003967887 0.16200757557 0.16398448976 
0.16582152681 0.16740805145 0.16868047142 0.16962267427 0.17025925789 0.1706437994 0.17084518001 0.17093501656 0.17097815996 
0.17102653127 0.17111532115 0.17126022967 0.17145471595 0.17166685811 0.17183626421 0.17187229578 0.17165520583 0.17104129834 
0.1698720915 0.16798636796 0.16523340874 0.16148563442 0.15664908961 0.15067056012 0.14354057768 0.1352921236 0.12599542346 
0.11574973393 0.10467337727 0.092893426683 0.080536370214 0.067720804917 0.054552791562 0.041124013557 0.027512424817 0.013784739681 
6.3511755457e-16 
_area 1 100 double
0 0.00035110621291 0.00142611758 0.0032835442001 0.0060024030817 0.0096633393418 0.01433233609 0.020046679732 0.026799054452 
0.034518567227 0.043055715771 0.052182082571 0.06160913127 0.07102031657 0.080106035759 0.088594151944 0.096274753418 0.10301928839 
0.10879077806 0.11364004935 0.11768636041 0.12108634812 0.12399914415 0.12655660493 0.12884627366 0.1309119883 0.13277285941 
0.13445362226 0.13600925711 0.13752369221 0.13907763804 0.14070535658 0.14236730074 0.14395284648 0.14531248965 0.14630410232 
0.14682637296 0.14681777847 0.14622438235 0.1449651598 0.14292470538 0.13998008136 0.13604465693 0.13110677246 0.12525139335 
0.11866293292 0.11161075086 0.10441875373 0.097422228056 0.090919946139 0.085133045355 0.080180114926 0.076073861473 0.072744052357 
0.070085739272 0.068012159908 0.066484406822 0.065507042874 0.06509319129 0.065216423613 0.065781294759 0.066630790215 0.067578084349 
0.068441332479 0.069069195017 0.069354338642 0.069239157375 0.068718772328 0.067842382034 0.066711970438 0.065478033922 0.064319685795 
0.063388639779 0.062793196306 0.062629641088 0.062962568976 0.063789019372 0.065024190004 0.066508521093 0.068026538829 0.069330927253 
0.070167216077 0.070295407489 0.069508540533 0.067651255538 0.064639814967 0.060480097325 0.055276765091 0.049228302782 0.042607252738 
0.035729288845 0.028917248695 0.022466981735 0.016621113186 0.011554787283 0.0073746146686 0.0041291101002 0.0018265618528 0.0004550920646 
1.8484464088e-17 
