# vtk DataFile Version 5.1
vtk output
ASCII
DATASET POLYDATA
POINTS 100 float
0.132095 0.0199878 0.624945 0.13222 0.0202098 0.624608 0.132661 0.0207466 0.623496 
0.133336 0.0215673 0.621689 0.134117 0.022624 0.619306 0.134844 0.0238556 0.616485 
0.135348 0.0251938 0.613368 0.135466 0.0265691 0.61007 0.135061 0.0279169 0.606668 
0.134037 0.0291824 0.603182 0.132344 0.0303248 0.59957 0.129988 0.0313192 0.595733 
0.127021 0.0321567 0.591523 0.123534 0.032843 0.586763 0.119641 0.0333951 0.581268 
0.115465 0.0338369 0.574873 0.111119 0.0341943 0.567454 0.106691 0.0344905 0.558944 
0.102232 0.0347419 0.549349 0.0977509 0.0349548 0.538747 0.0932156 0.0351246 0.527284 
0.0885574 0.0352356 0.515155 0.0836825 0.0352638 0.502587 0.0784875 0.0351799 0.489813 
0.0728745 0.0349542 0.477047 0.0667676 0.0345619 0.464459 0.0601246 0.0339876 0.452163 
0.0529455 0.0332298 0.440205 0.0452755 0.0323037 0.428563 0.0372004 0.0312422 0.417154 
0.0288388 0.0300954 0.40585 0.0203277 0.0289275 0.394499 0.0118073 0.0278132 0.38294 
0.00340369 0.0268317 0.371031 -0.00478528 0.0260605 0.35866 -0.0127016 0.0255697 0.34576 
-0.0203327 0.025416 0.332306 -0.0277117 0.0256384 0.318318 -0.0349109 0.0262557 0.303844 
-0.0420296 0.0272657 0.288948 -0.0491784 0.028646 0.273692 -0.0564609 0.0303574 0.258121 
-0.063955 0.0323478 0.242245 -0.071697 0.034558 0.226034 -0.0796691 0.036927 0.209416 
-0.0877935 0.0393977 0.192285 -0.0959318 0.0419211 0.174508 -0.103892 0.0444601 0.155947 
-0.111442 0.0469907 0.136476 -0.118325 0.0495028 0.116002 -0.124282 0.0519979 0.0944827 
-0.129071 0.0544867 0.0719341 -0.13249 0.0569853 0.0484392 -0.134391 0.0595108 0.0241428 
-0.134689 0.0620772 -0.000757564 -0.133376 0.0646915 -0.0260282 -0.130512 0.0673512 -0.0514193 
-0.126224 0.0700422 -0.0766864 -0.120692 0.0727387 -0.10161 -0.114135 0.0754038 -0.126014 
-0.106791 0.077991 -0.149774 -0.0989017 0.0804465 -0.172823 -0.0906927 0.0827122 -0.195147 
-0.0823608 0.0847282 -0.21678 -0.0740622 0.0864348 -0.237784 -0.065906 0.0877747 -0.258238 
-0.0579521 0.0886941 -0.27822 -0.0502132 0.0891432 -0.297792 -0.042661 0.0890763 -0.316988 
-0.0352342 0.0884521 -0.335812 -0.0278498 0.0872337 -0.354235 -0.0204143 0.0853894 -0.372201 
-0.0128351 0.0828935 -0.389638 -0.00503113 0.0797285 -0.406464 0.00305857 0.075888 -0.422607 
0.0114677 0.0713795 -0.438006 0.0201982 0.0662278 -0.452625 0.0292188 0.0604788 -0.466454 
0.0384649 0.0542011 -0.479507 0.0478415 0.0474877 -0.491815 0.0572282 0.0404554 -0.503422 
0.0664855 0.033242 -0.514368 0.0754626 0.0260019 -0.524688 0.0840062 0.0188994 -0.534396 
0.0919696 0.0121001 -0.543486 0.0992217 0.00576169 -0.551929 0.105655 2.38445e-05 -0.559677 
0.111193 -0.00500071 -0.566673 0.115795 -0.0092343 -0.57286 0.119459 -0.0126398 -0.578193 
0.122224 -0.0152236 -0.582651 0.124162 -0.0170345 -0.586241 0.125382 -0.0181602 -0.589009 
0.126014 -0.0187196 -0.591035 0.126203 -0.0188529 -0.592425 0.1261 -0.0187093 -0.59331 
0.125846 -0.0184347 -0.593822 0.125567 -0.0181583 -0.594087 0.125357 -0.0179816 -0.594205 
0.12528 -0.0179693 -0.594244 
LINES 2 100
OFFSETS vtktypeint64
0 100 
CONNECTIVITY vtktypeint64
0 1 2 3 4 5 6 7 8 
9 10 11 12 13 14 15 16 17 
18 19 20 21 22 23 24 25 26 
27 28 29 30 31 32 33 34 35 
36 37 38 39 40 41 42 43 44 
45 46 47 48 49 50 51 52 53 
54 55 56 57 58 59 60 61 62 
63 64 65 66 67 68 69 70 71 
72 73 74 75 76 77 78 79 80 
81 82 83 84 85 86 87 88 89 
90 91 92 93 94 95 96 97 98 
99 
POINT_DATA 100
FIELD FieldData 3
_theta 1 100 double
0 0.031733259127 0.063466518254 0.095199777382 0.12693303651 0.15866629564 0.19039955476 0.22213281389 0.25386607302 
0.28559933214 0.31733259127 0.3490658504 0.38079910953 0.41253236865 0.44426562778 0.47599888691 0.50773214603 0.53946540516 
0.57119866429 0.60293192342 0.63466518254 0.66639844167 0.6981317008 0.72986495992 0.76159821905 0.79333147818 0.82506473731 
0.85679799643 0.88853125556 0.92026451469 0.95199777382 0.98373103294 1.0154642921 1.0471975512 1.0789308103 1.1106640695 
1.1423973286 1.1741305877 1.2058638468 1.237597106 1.2693303651 1.3010636242 1.3327968833 1.3645301425 1.3962634016 
1.4279966607 1.4597299198 1.491463179 1.5231964381 1.5549296972 1.5866629564 1.6183962155 1.6501294746 1.6818627337 
1.7135959929 1.745329252 1.7770625111 1.8087957702 1.8405290294 1.8722622885 1.9039955476 1.9357288068 1.9674620659 
1.999195325 2.0309285841 2.0626618433 2.0943951024 2.1261283615 2.1578616206 2.1895948798 2.2213281389 2.253061398 
2.2847946572 2.3165279163 2.3482611754 2.3799944345 2.4117276937 2.4434609528 2.4751942119 2.506927471 2.5386607302 
2.5703939893 2.6021272484 2.6338605076 2.6655937667 2.6973270258 2.7290602849 2.7607935441 2.7925268032 2.8242600623 
2.8559933214 2.8877265806 2.9194598397 2.9511930988 2.982926358 3.0146596171 3.0463928762 3.0781261353 3.1098593945 
3.1415926536 
_radius 1 100 double
5.6818483518e-16 0.01478932671 0.029502305905 0.044061545459 0.058396607875 0.07244455606 0.08614834771 0.099454376912 0.11231083324 
0.12466808376 0.13648123029 0.14771387769 0.15834147767 0.16835265107 0.17774759609 0.18653375654 0.19471992468 0.20231050714 
0.2093016139 0.21568002439 0.22142521166 0.22651379072 0.2309252582 0.23464783923 0.23768361254 0.24005262632 0.2417961157 
0.24297890356 0.2436905634 0.24404418881 0.24417108682 0.24420984058 0.24428932054 0.2445074424 0.24491018749 0.24547707147 
0.24611818968 0.24668421987 0.24698661065 0.24682301488 0.24600321209 0.24437209471 0.24182763153 0.23833271114 0.23392051734 
0.22869372956 0.22281833174 0.21651298195 0.21003463007 0.20366056457 0.19766693591 0.1923047763 0.18777667366 0.18421918373 
0.18169549537 0.18019902613 0.17966399194 0.17997719113 0.18098732005 0.18251201327 0.18434559944 0.18627062499 0.18807380112 
0.18956405546 0.19058881092 0.19104515836 0.19088469406 0.19011328168 0.18878807077 0.18701258555 0.18492841835 0.18270197191 
0.18050661354 0.17850236552 0.17681597441 0.17552419497 0.17464262758 0.17412147527 0.17384832873 0.17365699042 0.17334077037 
0.17266862627 0.17140270324 0.16931598776 0.16620883768 0.16192315664 0.15635305781 0.14945108291 0.14122941682 0.13175602204 
0.12114614469 0.10955013845 0.097138952745 0.084088889528 0.070567323793 0.056720995042 0.042668208237 0.028495837982 0.014261430499 
6.9198195872e-16 
_area 1 100 double
0 0.00050027727786 0.0020022098287 0.0045070192778 0.0080105026925 0.01249561019 0.01792478802 0.024233559422 0.03132692974 
0.03908021234 0.04734501589 0.055959364043 0.064759236741 0.073588501297 0.082305629732 0.090787771328 0.098933947732 0.10666837614 
0.11394291196 0.12073627807 0.12704867754 0.13289307504 0.13828582367 0.14323631355 0.14773198516 0.15172381847 0.15513168823 
0.15787838271 0.15993775307 0.16138139872 0.16241657713 0.16339770714 0.16476272439 0.16686438396 0.16980593687 0.17341438001 
0.17731079454 0.18099640317 0.18393205116 0.18561018042 0.18561907374 0.18369745757 0.17977419217 0.17398502519 0.16665894912 
0.15827115211 0.14936692668 0.14047056839 0.13200445145 0.12424790743 0.11734566758 0.11133856602 0.10618614022 0.10179464306 
0.098071813681 0.094972659924 0.092494225437 0.090630897742 0.089345019769 0.088580668999 0.088284184037 0.088377170839 0.088687953554 
0.088964403154 0.08897579982 0.088580545157 0.087731088745 0.086451762021 0.084820232458 0.082959348868 0.081027144549 0.079196424279 
0.077628970722 0.076452823894 0.075745431682 0.075522887295 0.075737373437 0.076284409497 0.07701678476 0.07775849755 0.078313902982 
0.078472768718 0.078016666828 0.0767331921 0.074440400494 0.071016847506 0.066428753421 0.060747019735 0.054149600312 0.046907233149 
0.039353653608 0.031845364477 0.024719254196 0.018257057619 0.012663537984 0.0080614452524 0.0045021498317 0.0019872755717 0.00049441830652 
3.9565163756e-18 
