# vtk DataFile Version 5.1
vtk output
ASCII
DATASET POLYDATA
POINTS 100 float
0.150085 0.0292779 0.677082 0.150084 0.0295393 0.676877 0.150132 0.0301389 0.676103 
0.150195 0.0310236 0.674789 0.150225 0.0321126 0.67298 0.150159 0.0333078 0.670724 
0.149932 0.0345059 0.668064 0.149481 0.0356109 0.665025 0.148754 0.0365457 0.661606 
0.147711 0.0372604 0.657779 0.146333 0.037737 0.653482 0.144615 0.0379895 0.648628 
0.142568 0.0380597 0.643114 0.140211 0.0380091 0.636832 0.137568 0.0379084 0.629686 
0.134658 0.0378257 0.621604 0.13149 0.0378157 0.612551 0.128061 0.0379108 0.602536 
0.124354 0.0381159 0.591617 0.120335 0.0384072 0.579896 0.115961 0.0387358 0.567512 
0.111186 0.0390346 0.554625 0.105965 0.0392288 0.541403 0.100263 0.0392475 0.528004 
0.0940643 0.0390357 0.514558 0.0873756 0.0385638 0.501159 0.0802276 0.0378347 0.487853 
0.0726751 0.0368867 0.47464 0.0647921 0.0357915 0.461477 0.0566643 0.0346483 0.44829 
0.04838 0.0335742 0.434983 0.0400198 0.0326923 0.421456 0.0316464 0.0321188 0.407622 
0.0232974 0.0319513 0.393416 0.0149803 0.0322588 0.378805 0.00667218 0.0330756 0.363789 
-0.00167651 0.0343988 0.3484 -0.0101337 0.0361904 0.332692 -0.0187742 0.0383829 0.316729 
-0.0276655 0.040888 0.30057 -0.0368534 0.0436066 0.284256 -0.0463481 0.0464391 0.267795 
-0.0561144 0.0492951 0.251158 -0.0660645 0.0521 0.234273 -0.0760576 0.0547992 0.21703 
-0.0859052 0.0573585 0.199291 -0.0953812 0.0597626 0.180908 -0.104238 0.0620094 0.161731 
-0.112224 0.0641045 0.141639 -0.119108 0.0660547 0.120546 -0.124694 0.0678622 0.0984187 
-0.128841 0.0695208 0.0752853 -0.131478 0.0710147 0.0512328 -0.132608 0.072319 0.026403 
-0.132309 0.0734038 0.000980491 -0.13073 0.0742389 -0.0248236 -0.128075 0.0747997 -0.0507899 
-0.12459 0.0750726 -0.0767097 -0.120538 0.0750595 -0.102401 -0.116179 0.0747795 -0.127721 
-0.11175 0.0742683 -0.152572 -0.107445 0.0735749 -0.176902 -0.103403 0.0727559 -0.2007 
-0.0996992 0.0718678 -0.223985 -0.0963421 0.0709591 -0.246792 -0.0932809 0.0700628 -0.269161 
-0.0904135 0.069191 -0.291121 -0.0876015 0.0683314 -0.31268 -0.0846868 0.0674483 -0.333823 
-0.0815104 0.0664853 -0.354505 -0.0779293 0.0653729 -0.374662 -0.0738316 0.0640369 -0.394216 
-0.0691479 0.0624084 -0.413088 -0.0638583 0.0604339 -0.431208 -0.0579943 0.0580835 -0.448529 
-0.0516364 0.0553565 -0.465036 -0.0449071 0.0522834 -0.480746 -0.0379613 0.0489246 -0.495712 
-0.0309733 0.0453648 -0.510014 -0.0241246 0.0417048 -0.523751 -0.0175903 0.0380515 -0.537025 
-0.0115282 0.0345071 -0.549932 -0.00606917 0.0311589 -0.562545 -0.00131052 0.0280719 -0.574903 
0.00268731 0.0252834 -0.587008 0.00590158 0.0228022 -0.598818 0.00834523 0.0206109 -0.610259 
0.0100627 0.0186717 -0.621226 0.0111243 0.0169342 -0.631595 0.0116195 0.0153447 -0.641245 
0.0116502 0.0138553 -0.650058 0.011324 0.0124311 -0.657945 0.0107485 0.011056 -0.664841 
0.010026 0.00973411 -0.670718 0.00925015 0.0084889 -0.675577 0.00850261 0.00735871 -0.679448 
0.0078517 0.00639037 -0.682377 0.00735111 0.00563144 -0.684414 0.00703943 0.0051225 -0.685607 
0.00693998 0.00489069 -0.685989 
LINES 2 100
OFFSETS vtktypeint64
0 100 
CONNECTIVITY vtktypeint64
0 1 2 3 4 5 6 7 8 
9 10 11 12 13 14 15 16 17 
18 19 20 21 22 23 24 25 26 
27 28 29 30 31 32 33 34 35 
36 37 38 39 40 41 42 43 44 
45 46 47 48 49 50 51 52 53 
54 55 56 57 58 59 60 61 62 
63 64 65 66 67 68 69 70 71 
72 73 74 75 76 77 78 79 80 
81 82 83 84 85 86 87 88 89 
90 91 92 93 94 95 96 97 98 
99 
POINT_DATA 100
FIELD FieldData 3
_theta 1 100 double
0 0.031733259127 0.063466518254 0.095199777382 0.12693303651 0.15866629564 0.19039955476 0.22213281389 0.25386607302 
0.28559933214 0.31733259127 0.3490658504 0.38079910953 0.41253236865 0.44426562778 0.47599888691 0.50773214603 0.53946540516 
0.57119866429 0.60293192342 0.63466518254 0.66639844167 0.6981317008 0.72986495992 0.76159821905 0.79333147818 0.82506473731 
0.85679799643 0.88853125556 0.92026451469 0.95199777382 0.98373103294 1.0154642921 1.0471975512 1.0789308103 1.1106640695 
1.1423973286 1.1741305877 1.2058638468 1.237597106 1.2693303651 1.3010636242 1.3327968833 1.3645301425 1.3962634016 
1.4279966607 1.4597299198 1.491463179 1.5231964381 1.5549296972 1.5866629564 1.6183962155 1.6501294746 1.6818627337 
1.7135959929 1.745329252 1.7770625111 1.8087957702 1.8405290294 1.8722622885 1.9039955476 1.9357288068 1.9674620659 
1.999195325 2.0309285841 2.0626618433 2.0943951024 2.1261283615 2.1578616206 2.1895948798 2.2213281389 2.253061398 
2.2847946572 2.3165279163 2.3482611754 2.3799944345 2.4117276937 2.4434609528 2.4751942119 2.506927471 2.5386607302 
2.5703939893 2.6021272484 2.6338605076 2.6655937667 2.6973270258 2.7290602849 2.7607935441 2.7925268032 2.8242600623 
2.8559933214 2.8877265806 2.9194598397 2.9511930988 2.982926358 3.0146596171 3.0463928762 3.0781261353 3.1098593945 
3.1415926536 
_radius 1 100 double
6.7589243435e-16 0.014280231584 0.028546512216 0.042773553606 0.056927829998 0.070964853809 0.084827777155 0.098447704241 0.11174576298 
0.12463662306 0.13703295017 0.14885030031 0.16001209062 0.17045439739 0.18013033934 0.18901369722 0.19710126863 0.20441337028 
0.21099199271 0.21689643663 0.22219676993 0.22696600096 0.23127228179 0.23517256448 0.23870882973 0.24190731422 0.24478027835 
0.24732912572 0.24954744935 0.25142296054 0.25293806276 0.25406965076 0.25478914688 0.25506366062 0.25485860334 0.25414143194 
0.25288577327 0.25107517868 0.24870613715 0.24579049302 0.24235772428 0.23845736091 0.23416115993 0.22956389253 0.22478133622 
0.21994467177 0.21519173048 0.21065668297 0.20646016735 0.20270156202 0.19945462098 0.19676719718 0.19466488947 0.19315687666 
0.19224059883 0.1919017775 0.19210859087 0.19280297539 0.1938953279 0.195268247 0.19679012397 0.19833407653 0.19979577912 
0.2011053575 0.20223134045 0.20317693673 0.20397029989 0.20465120852 0.20525688408 0.20580950687 0.20630741345 0.20672111819 
0.20699438265 0.20704968242 0.20679665785 0.20614158235 0.20499572987 0.20328097637 0.20093202178 0.19789587459 0.19413007672 
0.18960118262 0.18428439864 0.17816451584 0.1712377108 0.16351353223 0.15501635065 0.14578563193 0.13587458415 0.12534704552 
0.11427292394 0.10272298285 0.090764120047 0.078456311534 0.065851982148 0.052997800584 0.039938064284 0.026718308336 0.01338778542 
2.7028706788e-16 
_area 1 100 double
0 0.00056028936106 0.002239631175 0.0050311487231 0.0089166858895 0.013859700027 0.019799744986 0.026650313341 0.034300106235 
0.042616436846 0.051449269845 0.060635387624 0.070003503111 0.07938164293 0.088607251221 0.097538775845 0.10606624487 0.11411843936 
0.12166551498 0.12871717496 0.13531684855 0.14153210375 0.14744161752 0.15311945879 0.15861766347 0.16394951716 0.16908066355 
0.17393698934 0.17842776298 0.18246966209 0.18599925929 0.18897297518 0.19136056686 0.1931383588 0.19428504934 0.19477850658 
0.19458927611 0.19366902482 0.19194015313 0.18929970517 0.18564542666 0.18091526605 0.17512248695 0.16837494351 0.16087724268 
0.15291880014 0.14484968325 0.13704392266 0.12985034862 0.12353489611 0.11822769509 0.1139051799 0.11042611977 0.10760807822 
0.10530244554 0.10343028811 0.10197009868 0.10091997474 0.10026779224 0.099977788616 0.099982441743 0.10018760702 0.10049590678 
0.1008140003 0.10105184133 0.10115514635 0.1011243931 0.10100242676 0.10085171103 0.10073279182 0.10068715608 0.10072734781 
0.10083355161 0.10094604791 0.10095567353 0.10073484172 0.10019715111 0.099312325807 0.098074569416 0.096463742017 0.094421042824 
0.091844783155 0.088606610073 0.084583457648 0.079694305488 0.073929667736 0.06736627106 0.060164447813 0.052550022673 0.044786140901 
0.037141952201 0.029864335721 0.023157368349 0.017172515647 0.012010242472 0.0077308380438 0.0043694785121 0.0019493752136 0.00048856218931 
3.2541780221e-18 
