# vtk DataFile Version 5.1
vtk output
ASCII
DATASET POLYDATA
POINTS 100 float
0.0957527 0.0518825 0.682539 0.0957973 0.0520495 0.68221 0.0959966 0.0523878 0.681073 
0.0963313 0.0528869 0.679151 0.0967703 0.0535289 0.676479 0.0972724 0.0542898 0.673102 
0.0977894 0.0551389 0.669066 0.0982685 0.0560405 0.664415 0.098656 0.0569541 0.659184 
0.0988996 0.0578371 0.6534 0.0989516 0.058646 0.647075 0.0987705 0.0593395 0.640214 
0.0983229 0.0598805 0.632812 0.0975833 0.0602392 0.624864 0.0965348 0.0603952 0.616366 
0.0951677 0.0603386 0.607324 0.0934781 0.0600715 0.597759 0.0914666 0.059607 0.587706 
0.0891364 0.0589685 0.577214 0.0864915 0.058187 0.56635 0.0835363 0.0572979 0.555186 
0.0802741 0.0563381 0.543799 0.0767079 0.0553416 0.532258 0.0728407 0.0543365 0.520624 
0.0686763 0.0533425 0.508934 0.064221 0.0523693 0.497204 0.0594845 0.0514164 0.485426 
0.0544807 0.0504744 0.473565 0.0492286 0.0495277 0.461567 0.0437515 0.0485577 0.449364 
0.0380757 0.0475474 0.43688 0.0322291 0.0464855 0.424041 0.0262383 0.0453703 0.410782 
0.0201262 0.0442133 0.397051 0.0139091 0.0430398 0.382816 0.00759553 0.0418899 0.368061 
0.00118488 0.0408162 0.352789 -0.00533171 0.0398804 0.337013 -0.0119692 0.0391484 0.320751 
-0.0187447 0.0386849 0.304024 -0.0256724 0.038547 0.28684 -0.0327574 0.0387785 0.269199 
-0.0399889 0.0394054 0.251086 -0.0473348 0.0404326 0.23247 -0.0547365 0.0418424 0.213311 
-0.0621063 0.0435952 0.193562 -0.0693274 0.0456329 0.173179 -0.0762569 0.0478827 0.152128 
-0.0827317 0.0502637 0.130394 -0.0885771 0.0526929 0.107984 -0.0936183 0.0550925 0.0849352 
-0.097692 0.0573955 0.0613132 -0.100659 0.0595502 0.0372099 -0.102415 0.0615239 0.0127382 
-0.1029 0.0633028 -0.0119757 -0.102103 0.0648914 -0.0368012 -0.100065 0.0663094 -0.0616129 
-0.0968725 0.0675863 -0.0862982 -0.0926545 0.0687563 -0.110764 -0.0875695 0.0698518 -0.134939 
-0.0817926 0.0708976 -0.158777 -0.0755008 0.0719062 -0.182249 -0.0688592 0.0728739 -0.205342 
-0.0620077 0.0737796 -0.228054 -0.0550523 0.0745851 -0.250382 -0.0480591 0.0752372 -0.272318 
-0.0410537 0.075672 -0.293846 -0.0340251 0.0758203 -0.314939 -0.0269334 0.0756137 -0.335556 
-0.0197216 0.0749907 -0.355653 -0.0123283 0.0739027 -0.37518 -0.00470126 0.0723194 -0.394091 
0.00319058 0.0702313 -0.412352 0.0113475 0.0676526 -0.429943 0.0197334 0.0646207 -0.446863 
0.0282747 0.0611946 -0.463127 0.0368641 0.0574517 -0.478768 0.0453677 0.0534834 -0.493827 
0.0536368 0.0493896 -0.508343 0.0615202 0.0452734 -0.522349 0.0688781 0.0412352 -0.535858 
0.0755946 0.037368 -0.54886 0.0815874 0.0337527 -0.561311 0.086814 0.0304551 -0.57314 
0.0912739 0.0275237 -0.584247 0.0950064 0.0249889 -0.594518 0.0980836 0.0228629 -0.603829 
0.100601 0.0211412 -0.612068 0.102668 0.0198041 -0.619145 0.104391 0.0188195 -0.625007 
0.105868 0.0181455 -0.629651 0.107176 0.0177333 -0.633124 0.108367 0.0175303 -0.635529 
0.109467 0.0174826 -0.637016 0.110474 0.017538 -0.63777 0.111368 0.0176477 -0.637998 
0.112114 0.0177685 -0.637905 0.112674 0.0178646 -0.637678 0.113013 0.0179087 -0.637466 
0.113107 0.0178832 -0.637364 
LINES 2 100
OFFSETS vtktypeint64
0 100 
CONNECTIVITY vtktypeint64
0 1 2 3 4 5 6 7 8 
9 10 11 12 13 14 15 16 17 
18 19 20 21 22 23 24 25 26 
27 28 29 30 31 32 33 34 35 
36 37 38 39 40 41 42 43 44 
45 46 47 48 49 50 51 52 53 
54 55 56 57 58 59 60 61 62 
63 64 65 66 67 68 69 70 71 
72 73 74 75 76 77 78 79 80 
81 82 83 84 85 86 87 88 89 
90 91 92 93 94 95 96 97 98 
99 
POINT_DATA 100
FIELD FieldData 3
_theta 1 100 double
0 0.031733259127 0.063466518254 0.095199777382 0.12693303651 0.15866629564 0.19039955476 0.22213281389 0.25386607302 
0.28559933214 0.31733259127 0.3490658504 0.38079910953 0.41253236865 0.44426562778 0.47599888691 0.50773214603 0.53946540516 
0.57119866429 0.60293192342 0.63466518254 0.66639844167 0.6981317008 0.72986495992 0.76159821905 0.79333147818 0.82506473731 
0.85679799643 0.88853125556 0.92026451469 0.95199777382 0.98373103294 1.0154642921 1.0471975512 1.0789308103 1.1106640695 
1.1423973286 1.1741305877 1.2058638468 1.237597106 1.2693303651 1.3010636242 1.3327968833 1.3645301425 1.3962634016 
1.4279966607 1.4597299198 1.491463179 1.5231964381 1.5549296972 1.5866629564 1.6183962155 1.6501294746 1.6818627337 
1.7135959929 1.745329252 1.7770625111 1.8087957702 1.8405290294 1.8722622885 1.9039955476 1.9357288068 1.9674620659 
1.999195325 2.0309285841 2.0626618433 2.0943951024 2.1261283615 2.1578616206 2.1895948798 2.2213281389 2.253061398 
2.2847946572 2.3165279163 2.3482611754 2.3799944345 2.4117276937 2.4434609528 2.4751942119 2.506927471 2.5386607302 
2.5703939893 2.6021272484 2.6338605076 2.6655937667 2.6973270258 2.7290602849 2.7607935441 2.7925268032 2.8242600623 
2.8559933214 2.8877265806 2.9194598397 2.9511930988 2.982926358 3.0146596171 3.0463928762 3.0781261353 3.1098593945 
3.1415926536 
_radius 1 100 double
1.4451735467e-15 0.013156141114 0.026277496134 0.039319989547 0.052232228745 0.064954055914 0.077417055624 0.08954706105 0.10126832641 
0.1125087405 0.12320532881 0.13330935158 0.14279049132 0.15163981858 0.15987132191 0.16752175276 0.17464844244 0.18132473381 
0.18763287307 0.19365467381 0.19946091061 0.20510101075 0.21059492995 0.21592893319 0.22105633727 0.22590328682 0.23037861844 
0.23438609808 0.23783695577 0.24066071806 0.24281277555 0.24427779376 0.24506883029 0.24522271803 0.2447928015 0.24384041263 
0.2424265342 0.24060495671 0.23841793986 0.23589499123 0.23305489084 0.22991052211 0.22647546136 0.22277078633 0.21883046452 
0.21470420575 0.21045770928 0.20617119093 0.20193719114 0.1978578721 0.19404112939 0.19059469002 0.18761797151 0.18519232748 
0.18337098899 0.18217039044 0.18156466072 0.18148487773 0.18182414946 0.18244858163 0.18321281699 0.18397753387 0.18462567721 
0.18507459642 0.1852824616 0.18524869708 0.1850091485 0.18462715143 0.18418182719 0.18375505849 0.18341873948 0.18322389938 
0.18319300345 0.18331612562 0.18355091425 0.18382556572 0.18404360494 0.18408932707 0.18383330572 0.18313810541 0.18186469244 
0.17987973422 0.17706335579 0.17331654206 0.16856738138 0.16277547783 0.15593389362 0.14806800836 0.13923096075 0.12949601382 
0.1189471079 0.10766963608 0.09574366615 0.083241223247 0.070227983321 0.056768270731 0.042931193629 0.028795527792 0.014451644114 
8.0601624997e-16 
_area 1 100 double
0 0.00047640632709 0.001895793853 0.0042293181823 0.0074308109968 0.011438863228 0.016178613112 0.021562861394 0.02749263151 
0.033857731388 0.040538102383 0.047406752586 0.054334915242 0.061199741395 0.067894285686 0.074338798155 0.080491532831 0.086356655528 
0.091986627877 0.097476862497 0.10295161291 0.10854195958 0.11435904605 0.12046774058 0.12686676188 0.1334801059 0.14016129478 
0.14670828157 0.15288521549 0.15844815102 0.16317293299 0.16688274088 0.16947064577 0.17091127646 0.17125686676 0.17061675663 
0.16912511261 0.16690718837 0.16405611551 0.1606275467 0.15665149725 0.15215470147 0.1471844045 0.14182514048 0.13620312112 
0.13047723261 0.12481982532 0.11939339438 0.11433001466 0.10971867229 0.10560255937 0.10198512504 0.098840957003 0.096128362194 
0.09380502471 0.091844074022 0.090215712603 0.088871360257 0.08776682514 0.08685302727 0.08605761436 0.085284090699 0.084428455004 
0.083402395144 0.082152751618 0.080672740565 0.079004372717 0.077231319963 0.075461536917 0.0738031624 0.072343503789 0.071141643517 
0.070241411883 0.06968750929 0.069540944872 0.069908836157 0.070874381427 0.072395710586 0.074277443115 0.07620452525 0.077801658037 
0.078694399028 0.078562048059 0.077176521287 0.074424785296 0.070315231604 0.064969973236 0.05860589491 0.051508075687 0.043999953156 
0.036414564038 0.029069763089 0.022248017511 0.016179783614 0.011029920466 0.0068888465394 0.0037725289363 0.0016359551902 0.0004019156924 
8.4363585471e-17 
