# vtk DataFile Version 5.1
vtk output
ASCII
DATASET POLYDATA
POINTS 100 float
0.0698906 0.0512246 0.680669 0.0701309 0.0515376 0.680529 0.0709145 0.0522938 0.679947 
0.0721654 0.0534341 0.678903 0.0737653 0.0548674 0.677367 0.0755655 0.0564794 0.675299 
0.077402 0.0581437 0.672654 0.0791114 0.0597342 0.669388 0.0805456 0.061136 0.665457 
0.0815848 0.0622553 0.660825 0.0821452 0.0630262 0.655465 0.0821834 0.0634136 0.649365 
0.0816946 0.0634134 0.642524 0.0807071 0.0630484 0.63496 0.0792725 0.0623618 0.626704 
0.0774545 0.0614092 0.6178 0.0753169 0.0602498 0.608303 0.072912 0.0589383 0.598274 
0.070273 0.0575184 0.587778 0.067409 0.0560187 0.576876 0.0643041 0.0544518 0.565627 
0.0609213 0.0528161 0.554079 0.0572088 0.0510997 0.542269 0.0531094 0.0492867 0.530224 
0.0485708 0.0473638 0.517956 0.0435551 0.0453273 0.505467 0.0380464 0.0431881 0.492749 
0.0320556 0.0409755 0.479788 0.0256219 0.0387378 0.466565 0.0188099 0.0365406 0.453058 
0.0117043 0.0344627 0.439246 0.00440099 0.0325898 0.425108 -0.00300155 0.0310068 0.410624 
-0.0104121 0.0297905 0.395774 -0.0177543 0.0290023 0.380537 -0.0249715 0.0286827 0.36489 
-0.0320293 0.028848 0.348805 -0.0389128 0.0294893 0.33225 -0.0456227 0.030574 0.315186 
-0.0521668 0.0320495 0.297573 -0.0585512 0.033849 0.279367 -0.0647713 0.0358975 0.26053 
-0.0708038 0.0381187 0.241028 -0.0766012 0.0404409 0.220841 -0.0820899 0.0428019 0.199965 
-0.0871718 0.0451525 0.178417 -0.09173 0.0474575 0.156237 -0.0956374 0.049696 0.133487 
-0.098768 0.051859 0.110252 -0.101008 0.0539473 0.0866316 -0.102269 0.0559677 0.0627375 
-0.102493 0.0579295 0.0386834 -0.101664 0.059842 0.0145778 -0.0998075 0.0617115 -0.00948434 
-0.0969882 0.0635405 -0.0334275 -0.0933051 0.0653264 -0.0572004 -0.0888825 0.0670619 -0.0807772 
-0.0838578 0.0687354 -0.104156 -0.07837 0.0703313 -0.127354 -0.0725474 0.0718307 -0.150401 
-0.066498 0.0732118 -0.17333 -0.0603021 0.0744494 -0.196165 -0.0540094 0.0755151 -0.218919 
-0.0476388 0.076377 -0.241578 -0.041183 0.0769994 -0.264104 -0.0346151 0.0773434 -0.28643 
-0.0278981 0.0773687 -0.308463 -0.0209942 0.0770351 -0.330095 -0.0138749 0.0763058 -0.351205 
-0.00652874 0.0751514 -0.371679 0.00103281 0.0735538 -0.391412 0.00877275 0.0715101 -0.410329 
0.0166287 0.0690359 -0.428385 0.0245164 0.0661677 -0.445572 0.0323349 0.0629624 -0.461922 
0.0399747 0.0594967 -0.477497 0.047325 0.0558625 -0.492384 0.0542823 0.0521623 -0.506681 
0.0607571 0.0485015 -0.520485 0.0666794 0.0449814 -0.533875 0.0720024 0.0416912 -0.546898 
0.0767029 0.0387018 -0.559564 0.0807813 0.0360604 -0.57184 0.0842589 0.0337879 -0.583646 
0.0871736 0.0318788 -0.594867 0.0895757 0.0303037 -0.605362 0.0915234 0.0290142 -0.614979 
0.0930777 0.0279495 -0.623574 0.0942992 0.0270442 -0.631028 0.0952448 0.0262361 -0.637262 
0.0959661 0.0254734 -0.642253 0.0965077 0.0247197 -0.646033 0.0969076 0.0239572 -0.648699 
0.0971968 0.0231875 -0.650398 0.0974005 0.022429 -0.65132 0.0975381 0.0217133 -0.651675 
0.0976246 0.0210786 -0.651677 0.0976712 0.0205641 -0.651521 0.0976855 0.020203 -0.651362 
0.0976721 0.0200174 -0.6513 
LINES 2 100
OFFSETS vtktypeint64
0 100 
CONNECTIVITY vtktypeint64
0 1 2 3 4 5 6 7 8 
9 10 11 12 13 14 15 16 17 
18 19 20 21 22 23 24 25 26 
27 28 29 30 31 32 33 34 35 
36 37 38 39 40 41 42 43 44 
45 46 47 48 49 50 51 52 53 
54 55 56 57 58 59 60 61 62 
63 64 65 66 67 68 69 70 71 
72 73 74 75 76 77 78 79 80 
81 82 83 84 85 86 87 88 89 
90 91 92 93 94 95 96 97 98 
99 
POINT_DATA 100
FIELD FieldData 3
_theta 1 100 double
0 0.031733259127 0.063466518254 0.095199777382 0.12693303651 0.15866629564 0.19039955476 0.22213281389 0.25386607302 
0.28559933214 0.31733259127 0.3490658504 0.38079910953 0.41253236865 0.44426562778 0.47599888691 0.50773214603 0.53946540516 
0.57119866429 0.60293192342 0.63466518254 0.66639844167 0.6981317008 0.72986495992 0.76159821905 0.79333147818 0.82506473731 
0.85679799643 0.88853125556 0.92026451469 0.95199777382 0.98373103294 1.0154642921 1.0471975512 1.0789308103 1.1106640695 
1.1423973286 1.1741305877 1.2058638468 1.237597106 1.2693303651 1.3010636242 1.3327968833 1.3645301425 1.3962634016 
1.4279966607 1.4597299198 1.491463179 1.5231964381 1.5549296972 1.5866629564 1.6183962155 1.6501294746 1.6818627337 
1.7135959929 1.745329252 1.7770625111 1.8087957702 1.8405290294 1.8722622885 1.9039955476 1.9357288068 1.9674620659 
1.999195325 2.0309285841 2.0626618433 2.0943951024 2.1261283615 2.1578616206 2.1895948798 2.2213281389 2.253061398 
2.2847946572 2.3165279163 2.3482611754 2.3799944345 2.4117276937 2.4434609528 2.4751942119 2.506927471 2.5386607302 
2.5703939893 2.6021272484 2.6338605076 2.6655937667 2.6973270258 2.7290602849 2.7607935441 2.7925268032 2.8242600623 
2.8559933214 2.8877265806 2.9194598397 2.9511930988 2.982926358 3.0146596171 3.0463928762 3.0781261353 3.1098593945 
3.1415926536 
_radius 1 100 double
1.3329179921e-16 0.014668946494 0.029288658105 0.04379927344 0.05813967513 0.072247422769 0.086058887734 0.099509756973 0.11253605714 
0.12507575284 0.13707083218 0.14846966308 0.15922931923 0.16931754203 0.17871402593 0.18741079427 0.19541157514 0.20273027753 
0.20938886565 0.21541507176 0.22084040944 0.22569881166 0.23002594383 0.23385893703 0.23723609669 0.24019616945 0.24277698169 
0.24501358017 0.24693625192 0.24856885766 0.2499277529 0.25102129233 0.25184968916 0.25240497319 0.25267096877 0.2526234823 
0.25223109705 0.25145701383 0.2502622285 0.24861005838 0.24647172223 0.24383242866 0.2406972772 0.23709620648 0.23308720311 
0.22875700535 0.22421865457 0.21960557563 0.2150624804 0.21073419189 0.20675415112 0.20323450688 0.20025917288 0.19788032866 
0.19611795638 0.19496143523 0.19437209866 0.19428606265 0.19461745793 0.19526299823 0.19610893724 0.19704061211 0.19795341782 
0.19876309687 0.19941318548 0.19987817965 0.20016199612 0.20029221742 0.20031125505 0.20026591288 0.20019692226 0.20012990642 
0.20006894853 0.19999348297 0.19985861171 0.19959827298 0.19913017584 0.19836127748 0.19719287973 0.19552499494 0.19326015493 
0.19030701781 0.18658391942 0.1820221573 0.17656859591 0.17018726905 0.16285993183 0.15458578775 0.1453807417 0.13527646814 
0.12431939152 0.11256946685 0.10009854163 0.086988142457 0.073326738722 0.059206787594 0.044722025262 0.029965455907 0.015028311379 
1.0743302322e-15 
_area 1 100 double
0 0.0005720437118 0.0022683661417 0.0050324706076 0.0087791339917 0.013405274999 0.018801056962 0.024858601973 0.031475984178 
0.038555104672 0.045994756071 0.053683828521 0.061500362614 0.06931854772 0.077021383188 0.084514586303 0.091736937277 0.098662621117 
0.10529301502 0.11164000229 0.11770884935 0.12349099927 0.12897210488 0.13415093596 0.13905699029 0.14375336122 0.14831824408 
0.1528115951 0.15724455589 0.16156792424 0.16568332899 0.16946879156 0.17280626899 0.17560109418 0.17778837862 0.17932704986 
0.18018665433 0.18033417473 0.17972741432 0.1783184132 0.17606609918 0.17295359696 0.16900383237 0.1642880284 0.15892496918 
0.15307268095 0.14691597306 0.1406521701 0.13447530111 0.12855878384 0.12303897169 0.11800462711 0.11349665202 0.10951889183 
0.10606923111 0.10311611984 0.10056332586 0.09838816989 0.096627803258 0.095321343764 0.094379904996 0.093662512201 0.093042179299 
0.092420924355 0.091737665587 0.090967401635 0.090114154966 0.089203173448 0.088276529035 0.08739177988 0.086619602382 0.086036484122 
0.085711175312 0.085686043353 0.085959810878 0.086484365149 0.087174388952 0.087910424933 0.088535753567 0.088862732902 0.088689654683 
0.087822223062 0.086096192811 0.083397502213 0.079675872975 0.074949629978 0.069302190652 0.062872759979 0.055844483718 0.048432498622 
0.040872531775 0.03340921301 0.026283152225 0.019717050683 0.013902702938 0.0089916705855 0.0050920568719 0.0022721320998 0.00056917667464 
1.6052966763e-17 
