# vtk DataFile Version 5.1
vtk output
ASCII
DATASET POLYDATA
POINTS 100 float
0.128547 0.015796 0.66578 0.128828 0.0161416 0.665368 0.129686 0.0170512 0.664034 
0.131003 0.0184684 0.661841 0.132601 0.0203054 0.658885 0.134258 0.0224495 0.655283 
0.135731 0.0247727 0.651161 0.13679 0.0271429 0.646633 0.137235 0.0294341 0.641795 
0.136917 0.0315372 0.636708 0.135756 0.0333685 0.631395 0.133741 0.0348759 0.625835 
0.130926 0.0360424 0.619975 0.127424 0.0368858 0.613729 0.123383 0.0374555 0.607001 
0.118972 0.0378258 0.59969 0.114352 0.0380873 0.591711 0.109663 0.0383359 0.583006 
0.105004 0.0386619 0.573555 0.100427 0.0391399 0.563379 0.0959356 0.0398193 0.552542 
0.0914865 0.0407185 0.541148 0.0870035 0.041822 0.529327 0.0823913 0.0430816 0.517226 
0.0775519 0.0444208 0.504994 0.0724008 0.0457433 0.492766 0.0668799 0.0469433 0.480651 
0.0609652 0.047918 0.46872 0.0546698 0.0485795 0.457003 0.0480405 0.0488665 0.445485 
0.0411494 0.0487525 0.434109 0.0340819 0.0482514 0.422782 0.0269228 0.0474185 0.411385 
0.0197436 0.046347 0.399784 0.0125914 0.0451606 0.387839 0.00548318 0.0440026 0.375417 
-0.00159591 0.0430222 0.362397 -0.00868761 0.0423606 0.348679 -0.0158513 0.0421367 0.334185 
-0.0231511 0.0424354 0.318858 -0.030641 0.0432994 0.302667 -0.0383503 0.0447246 0.285595 
-0.0462721 0.0466608 0.267642 -0.0543556 0.0490165 0.248823 -0.0625035 0.0516687 0.22916 
-0.0705766 0.0544747 0.208688 -0.0784027 0.0572864 0.18745 -0.0857909 0.0599647 0.165502 
-0.0925483 0.062392 0.142913 -0.0984979 0.0644824 0.119767 -0.103495 0.0661884 0.0961642 
-0.107439 0.0675023 0.0722192 -0.110284 0.068454 0.0480584 -0.112037 0.0691044 0.0238159 
-0.112759 0.0695354 -0.000372677 -0.112552 0.0698383 -0.0243777 -0.111548 0.0701017 -0.0480829 
-0.109895 0.0704 -0.0713919 -0.107739 0.0707845 -0.0942344 -0.10521 0.071277 -0.116569 
-0.102416 0.0718681 -0.138383 -0.0994315 0.0725186 -0.159693 -0.0962966 0.0731646 -0.180535 
-0.0930222 0.0737255 -0.200964 -0.0895949 0.0741133 -0.22104 -0.0859866 0.0742429 -0.240822 
-0.0821647 0.074041 -0.260359 -0.0781018 0.073454 -0.279687 -0.0737835 0.072452 -0.298818 
-0.0692134 0.0710317 -0.317747 -0.0644146 0.0692142 -0.336444 -0.0594284 0.0670419 -0.354867 
-0.05431 0.0645724 -0.372958 -0.0491219 0.0618716 -0.390656 -0.0439279 0.0590066 -0.407898 
-0.0387864 0.05604 -0.424627 -0.0337463 0.0530246 -0.440794 -0.0288443 0.0500011 -0.456361 
-0.0241054 0.0469976 -0.471299 -0.0195454 0.044031 -0.485589 -0.015175 0.0411104 -0.499214 
-0.0110055 0.0382406 -0.512159 -0.00705288 0.0354269 -0.524407 -0.00334207 0.032678 -0.535937 
9.1924e-05 0.030009 -0.546719 0.003205 0.0274421 -0.556721 0.00594774 0.0250058 -0.565906 
0.00827134 0.0227323 -0.574241 0.010135 0.0206544 -0.581698 0.0115134 0.018801 -0.588263 
0.0124036 0.0171937 -0.593936 0.0128297 0.015843 -0.598738 0.0128442 0.014747 -0.60271 
0.0125262 0.0138906 -0.605913 0.011976 0.0132477 -0.608419 0.0113064 0.012784 -0.610311 
0.0106323 0.0124612 -0.611673 0.0100587 0.0122426 -0.61258 0.00967013 0.0120974 -0.613092 
0.00952147 0.0120051 -0.613248 
LINES 2 100
OFFSETS vtktypeint64
0 100 
CONNECTIVITY vtktypeint64
0 1 2 3 4 5 6 7 8 
9 10 11 12 13 14 15 16 17 
18 19 20 21 22 23 24 25 26 
27 28 29 30 31 32 33 34 35 
36 37 38 39 40 41 42 43 44 
45 46 47 48 49 50 51 52 53 
54 55 56 57 58 59 60 61 62 
63 64 65 66 67 68 69 70 71 
72 73 74 75 76 77 78 79 80 
81 82 83 84 85 86 87 88 89 
90 91 92 93 94 95 96 97 98 
99 
POINT_DATA 100
FIELD FieldData 3
_theta 1 100 double
0 0.031733259127 0.063466518254 0.095199777382 0.12693303651 0.15866629564 0.19039955476 0.22213281389 0.25386607302 
0.28559933214 0.31733259127 0.3490658504 0.38079910953 0.41253236865 0.44426562778 0.47599888691 0.50773214603 0.53946540516 
0.57119866429 0.60293192342 0.63466518254 0.66639844167 0.6981317008 0.72986495992 0.76159821905 0.79333147818 0.82506473731 
0.85679799643 0.88853125556 0.92026451469 0.95199777382 0.98373103294 1.0154642921 1.0471975512 1.0789308103 1.1106640695 
1.1423973286 1.1741305877 1.2058638468 1.237597106 1.2693303651 1.3010636242 1.3327968833 1.3645301425 1.3962634016 
1.4279966607 1.4597299198 1.491463179 1.5231964381 1.5549296972 1.5866629564 1.6183962155 1.6501294746 1.6818627337 
1.7135959929 1.745329252 1.7770625111 1.8087957702 1.8405290294 1.8722622885 1.9039955476 1.9357288068 1.9674620659 
1.999195325 2.0309285841 2.0626618433 2.0943951024 2.1261283615 2.1578616206 2.1895948798 2.2213281389 2.253061398 
2.2847946572 2.3165279163 2.3482611754 2.3799944345 2.4117276937 2.4434609528 2.4751942119 2.506927471 2.5386607302 
2.5703939893 2.6021272484 2.6338605076 2.6655937667 2.6973270258 2.7290602849 2.7607935441 2.7925268032 2.8242600623 
2.8559933214 2.8877265806 2.9194598397 2.9511930988 2.982926358 3.0146596171 3.0463928762 3.0781261353 3.1098593945 
3.1415926536 
_radius 1 100 double
6.7132677889e-16 0.01349498538 0.026849226972 0.039934079441 0.052648485728 0.064924664168 0.076726618387 0.08804295485 0.098877216344 
0.10923924875 0.11913979028 0.1285882529 0.13759186145 0.14615394392 0.15427033411 0.16192474528 0.16908542393 0.17570556017 
0.18172875427 0.18709893398 0.19177233494 0.19572817045 0.19897477929 0.20154939623 0.20351194371 0.20493563382 0.20589854282 
0.20647968923 0.20676051255 0.20682921039 0.20678281974 0.20672151597 0.20673207372 0.20686278055 0.20709851334 0.20734791788 
0.20745091144 0.20720571546 0.20640676749 0.20488273906 0.20252662407 0.19931396827 0.1953084375 0.19065568411 0.18556743134 
0.18029846048 0.17511997407 0.17029325497 0.16604697905 0.16255999233 0.15995001618 0.15826856272 0.15750260857 0.15758288619 
0.15839690569 0.15980336224 0.16164472656 0.16375663075 0.16597494364 0.16814259331 0.17011755193 0.17178173978 0.17304930133 
0.17387241288 0.17424325731 0.17419158015 0.17377805556 0.1730844531 0.17220224362 0.17122166293 0.17022312054 0.16927204914 
0.16841705027 0.16768999886 0.16710610342 0.16666210574 0.16633192197 0.1660607011 0.16575972841 0.16530504897 0.16454182151 
0.16329463395 0.1613822354 0.15863416092 0.15490668078 0.15009598952 0.14414713029 0.13705768493 0.12887582432 0.11969299722 
0.10963231527 0.098834424227 0.087443127101 0.075593053094 0.0634011561 0.050962862492 0.038352544078 0.025627054753 0.012830668695 
2.7957674742e-16 
_area 1 100 double
0 0.00043454237539 0.0017251581424 0.0038344718969 0.0067053490511 0.010267312039 0.014443038989 0.01915331485 0.024319754776 
0.029865731283 0.035716294255 0.04179733846 0.048033643524 0.054345839963 0.060648283944 0.066851576923 0.072872288658 0.078648170453 
0.084152962071 0.089403761134 0.09445496158 0.099372913075 0.10418974537 0.10885452837 0.11321719382 0.11706133324 0.12016819252 
0.12238490062 0.12367988015 0.12418356961 0.12423295644 0.12443470692 0.12549764032 0.127558558 0.13018527995 0.13285095583 
0.13507072222 0.13640429306 0.13648656726 0.13507131554 0.13206742952 0.1275564942 0.12178521638 0.11513220714 0.10805225648 
0.10100281219 0.094364657821 0.088387788185 0.083194515816 0.078824972727 0.075278610919 0.072532225114 0.070543999026 0.069254216261 
0.068585394426 0.068442350113 0.068713459395 0.069275076707 0.070001054303 0.070774179878 0.071486305972 0.072023554175 0.072272583868 
0.072158169596 0.071670758743 0.070865923053 0.069838267811 0.068681811889 0.067466589726 0.066243856993 0.065059759611 0.063965421481 
0.063022963875 0.062308244613 0.06190896623 0.061911258761 0.062368762887 0.063260427724 0.064456379878 0.065725043095 0.066783930727 
0.067350326318 0.067173394415 0.066055436454 0.063868815179 0.060569749211 0.056206863917 0.050921023183 0.044933770709 0.038524292319 
0.031998014408 0.025652454897 0.019746812084 0.014480774439 0.0099856201556 0.0063277271764 0.0035220086733 0.0015510832004 0.00038538946531 
3.8698758075e-18 
