# vtk DataFile Version 5.1
vtk output
ASCII
DATASET POLYDATA
POINTS 100 float
0.110355 0.03482 0.678464 0.11042 0.0350257 0.678108 0.110637 0.0354793 0.676907 
0.11097 0.0361396 0.674903 0.111364 0.0369449 0.672162 0.11175 0.0378207 0.668761 
0.11205 0.0386899 0.664785 0.112189 0.0394826 0.660308 0.112101 0.0401451 0.655391 
0.11173 0.0406468 0.650075 0.111042 0.0409824 0.644373 0.110023 0.0411721 0.638275 
0.108677 0.0412566 0.63175 0.107026 0.0412902 0.624753 0.1051 0.0413312 0.617239 
0.102939 0.0414318 0.609165 0.100574 0.0416292 0.600505 0.0980318 0.0419381 0.591254 
0.0953218 0.042347 0.581435 0.092436 0.042818 0.571093 0.0893472 0.0432905 0.560297 
0.0860113 0.043688 0.54913 0.0823711 0.043928 0.537679 0.0783639 0.0439329 0.526028 
0.0739285 0.0436399 0.514243 0.0690145 0.0430109 0.50237 0.0635894 0.042038 0.490425 
0.0576453 0.0407466 0.478396 0.0512022 0.039194 0.466244 0.044309 0.0374646 0.45391 
0.0370401 0.0356618 0.441324 0.0294901 0.0338986 0.428416 0.0217648 0.0322866 0.415122 
0.0139716 0.0309261 0.401399 0.00620807 0.0298986 0.387226 -0.00144702 0.029261 0.37261 
-0.0089422 0.0290434 0.357578 -0.0162577 0.0292507 0.342181 -0.0234065 0.0298659 0.326473 
-0.0304306 0.0308561 0.310513 -0.0373939 0.0321792 0.294344 -0.0443715 0.0337905 0.277989 
-0.0514363 0.035648 0.261443 -0.0586453 0.0377159 0.244669 -0.0660263 0.0399654 0.2276 
-0.0735669 0.0423742 0.210146 -0.0812073 0.0449227 0.192201 -0.088838 0.0475902 0.173657 
-0.0963025 0.0503504 0.154416 -0.103405 0.053168 0.134406 -0.109925 0.0559964 0.113591 
-0.115631 0.0587786 0.0919744 -0.120299 0.0614494 0.0696077 -0.123735 0.0639411 0.0465848 
-0.125786 0.0661898 0.0230365 -0.126357 0.0681432 -0.00088035 -0.125415 0.0697674 -0.0249965 
-0.122998 0.0710524 -0.0491443 -0.119203 0.0720154 -0.0731715 -0.114181 0.0726997 -0.096953 
-0.108124 0.0731712 -0.120398 -0.101242 0.073511 -0.143454 -0.0937513 0.0738053 -0.166107 
-0.0858488 0.0741346 -0.188371 -0.0777017 0.0745618 -0.210285 -0.0694339 0.0751225 -0.2319 
-0.0611201 0.0758176 -0.253263 -0.0527855 0.0766106 -0.274411 -0.0444113 0.077428 -0.29536 
-0.0359446 0.0781655 -0.316098 -0.0273128 0.0786977 -0.336584 -0.0184388 0.0788905 -0.356753 
-0.00925753 0.0786156 -0.376514 0.00027069 0.0777643 -0.395767 0.0101491 0.0762599 -0.414408 
0.0203383 0.0740667 -0.432337 0.0307557 0.0711948 -0.449472 0.0412793 0.0677001 -0.465754 
0.0517565 0.0636793 -0.48115 0.0620163 0.0592616 -0.495655 0.0718832 0.054596 -0.509291 
0.0811921 0.0498384 -0.5221 0.089801 0.0451382 -0.534138 0.0976015 0.0406265 -0.54547 
0.104526 0.0364069 -0.556157 0.110549 0.0325505 -0.566255 0.115688 0.0290948 -0.575804 
0.119994 0.026046 -0.584828 0.123546 0.0233851 -0.593334 0.12644 0.0210754 -0.601309 
0.12878 0.0190716 -0.608727 0.130663 0.0173281 -0.615549 0.13218 0.015806 -0.621728 
0.133401 0.0144772 -0.627214 0.13438 0.013327 -0.631958 0.135154 0.0123528 -0.635913 
0.135742 0.0115614 -0.639039 0.136154 0.0109649 -0.641303 0.136393 0.0105758 -0.642679 
0.136457 0.0104028 -0.643151 
LINES 2 100
OFFSETS vtktypeint64
0 100 
CONNECTIVITY vtktypeint64
0 1 2 3 4 5 6 7 8 
9 10 11 12 13 14 15 16 17 
18 19 20 21 22 23 24 25 26 
27 28 29 30 31 32 33 34 35 
36 37 38 39 40 41 42 43 44 
45 46 47 48 49 50 51 52 53 
54 55 56 57 58 59 60 61 62 
63 64 65 66 67 68 69 70 71 
72 73 74 75 76 77 78 79 80 
81 82 83 84 85 86 87 88 89 
90 91 92 93 94 95 96 97 98 
99 
POINT_DATA 100
FIELD FieldData 3
_theta 1 100 double
0 0.031733259127 0.063466518254 0.095199777382 0.12693303651 0.15866629564 0.19039955476 0.22213281389 0.25386607302 
0.28559933214 0.31733259127 0.3490658504 0.38079910953 0.41253236865 0.44426562778 0.47599888691 0.50773214603 0.53946540516 
0.57119866429 0.60293192342 0.63466518254 0.66639844167 0.6981317008 0.72986495992 0.76159821905 0.79333147818 0.82506473731 
0.85679799643 0.88853125556 0.92026451469 0.95199777382 0.98373103294 1.0154642921 1.0471975512 1.0789308103 1.1106640695 
1.1423973286 1.1741305877 1.2058638468 1.237597106 1.2693303651 1.3010636242 1.3327968833 1.3645301425 1.3962634016 
1.4279966607 1.4597299198 1.491463179 1.5231964381 1.5549296972 1.5866629564 1.6183962155 1.6501294746 1.6818627337 
1.7135959929 1.745329252 1.7770625111 1.8087957702 1.8405290294 1.8722622885 1.9039955476 1.9357288068 1.9674620659 
1.999195325 2.0309285841 2.0626618433 2.0943951024 2.1261283615 2.1578616206 2.1895948798 2.2213281389 2.253061398 
2.2847946572 2.3165279163 2.3482611754 2.3799944345 2.4117276937 2.4434609528 2.4751942119 2.506927471 2.5386607302 
2.5703939893 2.6021272484 2.6338605076 2.6655937667 2.6973270258 2.7290602849 2.7607935441 2.7925268032 2.8242600623 
2.8559933214 2.8877265806 2.9194598397 2.9511930988 2.982926358 3.0146596171 3.0463928762 3.0781261353 3.1098593945 
3.1415926536 
_radius 1 100 double
4.9070295627e-16 0.013352635519 0.026736885109 0.04016139587 0.053608462349 0.067028978544 0.080344149972 0.093453146791 0.10624469505 
0.11861007119 0.13045507059 0.14170910557 0.15233042719 0.16230732351 0.17165582489 0.18041481913 0.18863952547 0.19639408338 
0.20374373807 0.21074692847 0.21744764635 0.22386875692 0.23000738936 0.23583371221 0.24129411817 0.24631899067 0.25083403385 
0.25477304619 0.25808943541 0.26076395421 0.26280703234 0.26425538204 0.2651638499 0.26559443771 0.2656048387 0.26523869267 
0.26451913626 0.26344632332 0.26199872856 0.26013750072 0.25781298563 0.25497267251 0.25157000771 0.2475735798 0.24297603431 
0.23780179441 0.2321124316 0.22600856103 0.21962755029 0.21313705157 0.206725124 0.20058817744 0.19491799136 0.18988884715 
0.18564578265 0.18229524672 0.1798993599 0.17847385248 0.1779881493 0.17836569159 0.17948416575 0.18117785488 0.18324599668 
0.18546981095 0.18763640437 0.18956340163 0.19111773068 0.19222504643 0.1928696246 0.19308647161 0.19294812474 0.19254880595 
0.19198848766 0.19135897112 0.19073318253 0.19015769556 0.18964746602 0.18918156336 0.18869959333 0.18809999301 0.18724232315 
0.18595526581 0.18405041536 0.18134003832 0.17765566638 0.1728640772 0.16687785407 0.15965900935 0.15121573228 0.14159377973 
0.13086502633 0.11911602226 0.10643904129 0.092927164399 0.078673700532 0.063775055747 0.048335341881 0.032470683287 0.016311294801 
4.9527756257e-16 
_area 1 100 double
0 0.000506785749 0.0020281264164 0.00456254317 0.0080947770553 0.01258262691 0.017947899398 0.02407585378 0.030824223347 
0.038039274291 0.045573811985 0.053301523654 0.061123928851 0.0689699282 0.076791547499 0.084560440191 0.092267256415 0.099922174953 
0.10755270647 0.11519565762 0.12288297355 0.13062417629 0.13839010974 0.14610340517 0.15364032028 0.16084616727 0.16756257282 
0.17366000682 0.1790648576 0.18376944455 0.18781889807 0.19128069288 0.19421269707 0.19664378531 0.19856966463 0.19995735868 
0.20075048244 0.20087214823 0.20022864995 0.19871943202 0.1962547581 0.19277596427 0.18827044174 0.1827763793 0.17637773872 
0.16919398819 0.16137000663 0.1530700483 0.14447723621 0.13579744204 0.12726397199 0.11913768077 0.11169500104 0.1051937904 
0.099816575667 0.095625262215 0.092566401193 0.090510149029 0.089290583019 0.088735732086 0.088687179882 0.08901492999 0.089623182324 
0.090426961275 0.091296871266 0.092035421156 0.092432947662 0.092344967736 0.091730331289 0.090643394556 0.089199724533 0.087541311338 
0.085816624081 0.084173295526 0.082754602186 0.081693509828 0.081098620694 0.08102693162 0.08144772134 0.082211397705 0.08304046512 
0.083558722743 0.083357542088 0.082075156841 0.07946186426 0.075417577686 0.070000393893 0.063410346486 0.05595468759 0.048002381896 
0.039936321024 0.032111553026 0.024825840082 0.018304950652 0.012700925156 0.0080996962228 0.0045351060578 0.0020070285891 0.00050029557319 
4.5159967915e-17 
