# vtk DataFile Version 5.1
vtk output
ASCII
DATASET POLYDATA
POINTS 100 float
0.0963619 0.0190019 0.651179 0.0963727 0.0192838 0.651087 0.0965208 0.0199718 0.650709 
0.0967768 0.0210152 0.65005 0.0970943 0.0223369 0.649111 0.097415 0.023842 0.647887 
0.0976755 0.0254297 0.646363 0.0978137 0.0270046 0.644509 0.0977756 0.0284877 0.642273 
0.0975204 0.0298244 0.639586 0.0970243 0.0309881 0.636361 0.0962811 0.0319813 0.632495 
0.0953019 0.0328312 0.627882 0.0941111 0.0335824 0.622418 0.092741 0.0342873 0.616012 
0.0912259 0.0349961 0.608597 0.089595 0.0357466 0.600139 0.0878658 0.0365571 0.590639 
0.0860396 0.037422 0.580141 0.084098 0.0383118 0.568727 0.0820021 0.0391768 0.556514 
0.079695 0.0399543 0.543644 0.0771054 0.0405786 0.530276 0.0741541 0.0409916 0.516572 
0.0707619 0.0411534 0.502685 0.0668571 0.0410501 0.48875 0.0623836 0.0406996 0.474877 
0.0573072 0.0401517 0.461141 0.0516196 0.0394852 0.447583 0.0453411 0.0388007 0.434212 
0.0385191 0.0382096 0.421005 0.0312253 0.0378224 0.407914 0.0235504 0.0377364 0.394874 
0.0155963 0.0380246 0.381804 0.00746957 0.0387283 0.368618 -0.000727006 0.0398523 0.355226 
-0.00890043 0.0413661 0.341534 -0.0169724 0.0432085 0.327451 -0.0248818 0.0452953 0.312885 
-0.032585 0.0475314 0.297743 -0.0400532 0.0498217 0.281933 -0.0472686 0.0520829 0.265363 
-0.0542186 0.0542526 0.247947 -0.0608898 0.0562955 0.229606 -0.0672617 0.058205 0.210279 
-0.0733024 0.0600012 0.189924 -0.0789653 0.0617253 0.168529 -0.0841881 0.0634301 0.146116 
-0.0888947 0.0651702 0.122748 -0.092999 0.0669916 0.0985273 -0.0964108 0.0689224 0.0735929 
-0.0990426 0.0709668 0.0481171 -0.100817 0.0731021 0.022294 -0.101675 0.0752797 -0.00367198 
-0.101579 0.0774297 -0.02958 -0.100521 0.0794685 -0.0552465 -0.0985172 0.0813081 -0.0805176 
-0.0956151 0.0828659 -0.105279 -0.0918829 0.0840736 -0.129459 -0.0874066 0.0848837 -0.153035 
-0.0822821 0.0852735 -0.176023 -0.076607 0.0852449 -0.198474 -0.0704732 0.0848215 -0.220458 
-0.0639601 0.084042 -0.242055 -0.0571302 0.0829527 -0.263339 -0.0500266 0.0815984 -0.284363 
-0.0426734 0.0800144 -0.305156 -0.0350787 0.0782208 -0.325711 -0.0272397 0.0762186 -0.345989 
-0.0191489 0.0739904 -0.365919 -0.0108019 0.0715031 -0.385412 -0.00220383 0.0687148 -0.404367 
0.00662427 0.0655828 -0.422683 0.0156416 0.062073 -0.440276 0.0247857 0.0581686 -0.457083 
0.0339734 0.0538771 -0.473073 0.0431042 0.0492345 -0.488246 0.0520659 0.0443066 -0.502635 
0.0607418 0.0391859 -0.516293 0.0690186 0.0339858 -0.529289 0.0767947 0.0288321 -0.541698 
0.083987 0.0238524 -0.553581 0.0905363 0.0191664 -0.564985 0.0964104 0.0148757 -0.575926 
0.101605 0.0110565 -0.586396 0.106141 0.00775511 -0.596353 0.110063 0.00498641 -0.605734 
0.113429 0.00273558 -0.614461 0.116307 0.000962788 -0.622451 0.11877 -0.000390299 -0.62963 
0.120883 -0.00139282 -0.635942 0.122704 -0.00211705 -0.64136 0.124276 -0.00263172 -0.645885 
0.12563 -0.00299684 -0.649553 0.126782 -0.00326069 -0.652429 0.127734 -0.0034589 -0.654595 
0.128483 -0.00361531 -0.656143 0.12902 -0.00374417 -0.657165 0.129334 -0.00385287 -0.657734 
0.129419 -0.00394461 -0.657899 
LINES 2 100
OFFSETS vtktypeint64
0 100 
CONNECTIVITY vtktypeint64
0 1 2 3 4 5 6 7 8 
9 10 11 12 13 14 15 16 17 
18 19 20 21 22 23 24 25 26 
27 28 29 30 31 32 33 34 35 
36 37 38 39 40 41 42 43 44 
45 46 47 48 49 50 51 52 53 
54 55 56 57 58 59 60 61 62 
63 64 65 66 67 68 69 70 71 
72 73 74 75 76 77 78 79 80 
81 82 83 84 85 86 87 88 89 
90 91 92 93 94 95 96 97 98 
99 
POINT_DATA 100
FIELD FieldData 3
_theta 1 100 double
0 0.031733259127 0.063466518254 0.095199777382 0.12693303651 0.15866629564 0.19039955476 0.22213281389 0.25386607302 
0.28559933214 0.31733259127 0.3490658504 0.38079910953 0.41253236865 0.44426562778 0.47599888691 0.50773214603 0.53946540516 
0.57119866429 0.60293192342 0.63466518254 0.66639844167 0.6981317008 0.72986495992 0.76159821905 0.79333147818 0.82506473731 
0.85679799643 0.88853125556 0.92026451469 0.95199777382 0.98373103294 1.0154642921 1.0471975512 1.0789308103 1.1106640695 
1.1423973286 1.1741305877 1.2058638468 1.237597106 1.2693303651 1.3010636242 1.3327968833 1.3645301425 1.3962634016 
1.4279966607 1.4597299198 1.491463179 1.5231964381 1.5549296972 1.5866629564 1.6183962155 1.6501294746 1.6818627337 
1.7135959929 1.745329252 1.7770625111 1.8087957702 1.8405290294 1.8722622885 1.9039955476 1.9357288068 1.9674620659 
1.999195325 2.0309285841 2.0626618433 2.0943951024 2.1261283615 2.1578616206 2.1895948798 2.2213281389 2.253061398 
2.2847946572 2.3165279163 2.3482611754 2.3799944345 2.4117276937 2.4434609528 2.4751942119 2.506927471 2.5386607302 
2.5703939893 2.6021272484 2.6338605076 2.6655937667 2.6973270258 2.7290602849 2.7607935441 2.7925268032 2.8242600623 
2.8559933214 2.8877265806 2.9194598397 2.9511930988 2.982926358 3.0146596171 3.0463928762 3.0781261353 3.1098593945 
3.1415926536 
_radius 1 100 double
2.2508663799e-16 0.014570776016 0.029071204559 0.043428756031 0.057574826123 0.071444550201 0.084975059458 0.098103127888 0.11076352063 
0.12288913085 0.13441328727 0.14527375637 0.15541732775 0.16480369809 0.17340769097 0.18121950753 0.18824342826 0.19449589482 
0.20000399347 0.20480499594 0.20894692611 0.21248937584 0.21550328691 0.21806838654 0.2202675331 0.22217837261 0.22386416475 
0.22536680252 0.22670504988 0.22787930909 0.22888135329 0.22970500147 0.23035305622 0.23083713363 0.23116956097 0.23134952043 
0.23134833912 0.2311001274 0.23050267239 0.22942979734 0.22775234579 0.22536271263 0.22219786274 0.2182570142 0.21361150383 
0.20840536988 0.20284599848 0.19718512379 0.19169188048 0.18662162009 0.18218639014 0.17853399503 0.17574067054 0.17381733007 
0.17272373845 0.172382761 0.17268944877 0.17351480634 0.17470800896 0.17610159641 0.17752211674 0.17880550619 0.17981398604 
0.1804505239 0.18066787883 0.18047095444 0.17991259193 0.17908370077 0.17809912815 0.17708127875 0.17614399109 0.17537904695 
0.17484678572 0.1745710136 0.17453738001 0.17469409991 0.17495432385 0.17520015312 0.17528870901 0.17506050992 0.17434982258 
0.17299599405 0.17085435073 0.1678052203 0.1637599928 0.15866376197 0.15249476328 0.14526133711 0.13699737334 0.12775714795 
0.11761024447 0.10663699318 0.094924649187 0.082564394763 0.069649173252 0.056272303199 0.042526761355 0.02850496368 0.014298838373 
3.9052749369e-16 
_area 1 100 double
0 0.00046623116231 0.0018693513477 0.0042201643474 0.0075288646653 0.011794728169 0.01699411322 0.023068772008 0.029916900331 
0.037389582761 0.045294875068 0.053410448334 0.061503680207 0.069355967987 0.076786621336 0.083671390781 0.089951575036 0.095631735783 
0.1007672219 0.10544641786 0.10977570762 0.11387581081 0.11789426562 0.12202546124 0.12649405037 0.13143668708 0.13676346188 
0.14218057169 0.14731776887 0.15183159567 0.1554634042 0.15806641651 0.15961396957 0.16019896432 0.16003093625 0.15942711921 
0.15877327177 0.15840841827 0.15843139226 0.15858655206 0.15837928643 0.1572879311 0.15490185635 0.15098032415 0.14547701847 
0.1385493637 0.13054940347 0.12198561882 0.11344901925 0.10551985566 0.098692768604 0.093315965613 0.089507553689 0.087116269878 
0.085828383632 0.085320097752 0.085319341796 0.085599749129 0.085964638213 0.086239984996 0.086279775753 0.085979190218 0.085283645468 
0.084184607171 0.082705603665 0.080891469251 0.078809475716 0.076557060785 0.07426400085 0.072083574693 0.070180679256 0.068693112667 
0.067655939446 0.067083186828 0.066976913122 0.067310702353 0.068070129183 0.069082202805 0.070135765948 0.070997567654 0.071436287576 
0.07125525294 0.070313546869 0.068532098062 0.06588763115 0.062400581135 0.058124064998 0.053139271341 0.047558222757 0.04152978081 
0.035242088391 0.0289161042 0.022789295285 0.017093055319 0.012029892437 0.0077564668142 0.0043767301581 0.0019463994578 0.00048642413653 
3.2526065175e-19 
