# vtk DataFile Version 5.1
vtk output
ASCII
DATASET POLYDATA
POINTS 100 float
0.104951 0.0377729 0.684635 0.104896 0.037974 0.684402 0.104807 0.0384051 0.683592 
0.104684 0.0390486 0.682233 0.104528 0.0398777 0.680366 0.104338 0.0408585 0.678037 
0.104112 0.0419537 0.675291 0.103845 0.0431254 0.672161 0.103529 0.0443386 0.668662 
0.10315 0.0455632 0.664786 0.102691 0.0467758 0.6605 0.10213 0.0479599 0.655749 
0.10144 0.0491057 0.65046 0.100591 0.0502081 0.644551 0.099549 0.0512643 0.637943 
0.0982812 0.0522712 0.630566 0.0967551 0.0532227 0.622373 0.0949415 0.0541068 0.613346 
0.0928169 0.0549045 0.603501 0.0903654 0.0555892 0.592886 0.0875793 0.0561272 0.581581 
0.0844607 0.0564798 0.569691 0.0810212 0.0566064 0.557331 0.0772812 0.0564683 0.544623 
0.0732682 0.056033 0.53168 0.0690144 0.0552782 0.518596 0.0645539 0.0541961 0.505439 
0.0599193 0.0527953 0.492248 0.0551383 0.051103 0.479032 0.0502306 0.0491647 0.46577 
0.0452057 0.0470424 0.452421 0.0400604 0.0448119 0.438929 0.0347794 0.0425584 0.42523 
0.0293352 0.0403714 0.411265 0.0236903 0.0383393 0.396982 0.0178011 0.0365443 0.382342 
0.0116216 0.0350575 0.367321 0.00510909 0.0339352 0.351907 -0.00177069 0.0332169 0.336099 
-0.00903776 0.0329239 0.319899 -0.0166932 0.0330602 0.303306 -0.024715 0.0336139 0.286312 
-0.0330559 0.0345601 0.268899 -0.0416425 0.0358646 0.251033 -0.0503759 0.037487 0.232672 
-0.0591353 0.0393848 0.213762 -0.0677823 0.0415162 0.19425 -0.0761673 0.0438422 0.174087 
-0.0841365 0.046328 0.153241 -0.0915397 0.0489434 0.131699 -0.0982383 0.0516619 0.109478 
-0.104112 0.0544597 0.0866264 -0.109066 0.0573136 0.0632218 -0.113033 0.0601996 0.039371 
-0.115979 0.0630904 0.0152015 -0.117902 0.0659545 -0.0091469 -0.11883 0.0687557 -0.0335322 
-0.118819 0.0714523 -0.0578204 -0.117949 0.0739989 -0.0818951 -0.116313 0.0763471 -0.105664 
-0.114016 0.0784479 -0.129063 -0.111166 0.080254 -0.152057 -0.107865 0.0817222 -0.174638 
-0.104208 0.0828155 -0.196818 -0.100273 0.0835049 -0.218623 -0.096126 0.0837708 -0.240084 
-0.0918113 0.0836034 -0.261229 -0.0873584 0.0830026 -0.282077 -0.0827816 0.0819774 -0.30263 
-0.0780841 0.0805445 -0.322874 -0.0732618 0.078727 -0.342777 -0.0683088 0.0765527 -0.362296 
-0.0632216 0.0740524 -0.381374 -0.0580033 0.0712592 -0.399955 -0.0526676 0.0682071 -0.417983 
-0.0472408 0.0649308 -0.435409 -0.0417629 0.0614655 -0.452199 -0.0362874 0.0578472 -0.468327 
-0.0308795 0.0541133 -0.483782 -0.0256134 0.0503027 -0.498562 -0.0205683 0.0464564 -0.512672 
-0.0158244 0.0426173 -0.526117 -0.0114575 0.0388299 -0.538897 -0.00753509 0.0351395 -0.551009 
-0.00411164 0.0315905 -0.562435 -0.00122535 0.0282255 -0.573153 0.00110443 0.0250827 -0.58313 
0.00287859 0.0221943 -0.59233 0.00411841 0.0195848 -0.600717 0.0048645 0.0172698 -0.608262 
0.00517467 0.0152551 -0.614946 0.00512072 0.0135367 -0.620766 0.00478453 0.0121014 -0.625734 
0.00425358 0.0109288 -0.629881 0.0036162 0.0099927 -0.633249 0.00295683 0.00926438 -0.635892 
0.00235151 0.00871505 -0.637866 0.00186389 0.00831885 -0.639224 0.00154189 0.00805543 -0.64001 
0.00141524 0.00791199 -0.640251 
LINES 2 100
OFFSETS vtktypeint64
0 100 
CONNECTIVITY vtktypeint64
0 1 2 3 4 5 6 7 8 
9 10 11 12 13 14 15 16 17 
18 19 20 21 22 23 24 25 26 
27 28 29 30 31 32 33 34 35 
36 37 38 39 40 41 42 43 44 
45 46 47 48 49 50 51 52 53 
54 55 56 57 58 59 60 61 62 
63 64 65 66 67 68 69 70 71 
72 73 74 75 76 77 78 79 80 
81 82 83 84 85 86 87 88 89 
90 91 92 93 94 95 96 97 98 
99 
POINT_DATA 100
FIELD FieldData 3
_theta 1 100 double
0 0.031733259127 0.063466518254 0.095199777382 0.12693303651 0.15866629564 0.19039955476 0.22213281389 0.25386607302 
0.28559933214 0.31733259127 0.3490658504 0.38079910953 0.41253236865 0.44426562778 0.47599888691 0.50773214603 0.53946540516 
0.57119866429 0.60293192342 0.63466518254 0.66639844167 0.6981317008 0.72986495992 0.76159821905 0.79333147818 0.82506473731 
0.85679799643 0.88853125556 0.92026451469 0.95199777382 0.98373103294 1.0154642921 1.0471975512 1.0789308103 1.1106640695 
1.1423973286 1.1741305877 1.2058638468 1.237597106 1.2693303651 1.3010636242 1.3327968833 1.3645301425 1.3962634016 
1.4279966607 1.4597299198 1.491463179 1.5231964381 1.5549296972 1.5866629564 1.6183962155 1.6501294746 1.6818627337 
1.7135959929 1.745329252 1.7770625111 1.8087957702 1.8405290294 1.8722622885 1.9039955476 1.9357288068 1.9674620659 
1.999195325 2.0309285841 2.0626618433 2.0943951024 2.1261283615 2.1578616206 2.1895948798 2.2213281389 2.253061398 
2.2847946572 2.3165279163 2.3482611754 2.3799944345 2.4117276937 2.4434609528 2.4751942119 2.506927471 2.5386607302 
2.5703939893 2.6021272484 2.6338605076 2.6655937667 2.6973270258 2.7290602849 2.7607935441 2.7925268032 2.8242600623 
2.8559933214 2.8877265806 2.9194598397 2.9511930988 2.982926358 3.0146596171 3.0463928762 3.0781261353 3.1098593945 
3.1415926536 
_radius 1 100 double
1.0068093553e-15 0.012940385404 0.025892467854 0.038856714908 0.051817710436 0.064738823571 0.077559702113 0.090197083465 0.10254901534 
0.11450211797 0.12594106861 0.13675912902 0.14686833343 0.15620793281 0.16474984273 0.17250016653 0.17949637603 0.18580039805 
0.19148856298 0.19663996192 0.20132509423 0.2055966868 0.2094842142 0.21299300069 0.21610797375 0.21880133694 0.22104278861 
0.22281051059 0.22410099573 0.22493586241 0.22536413116 0.22545905674 0.22530952431 0.22500711772 0.22463099325 0.22423333624 
0.22382823477 0.2233862526 0.22283596646 0.22207251049 0.22097203661 0.21941015658 0.21728192687 0.21452074101 0.21111357403 
0.20711036962 0.20262595121 0.19783364388 0.19295079421 0.18821756068 0.18387165487 0.18012289075 0.17713192451 0.17499685977 
0.17374931087 0.17335878253 0.17374216057 0.17477474941 0.17630060271 0.1781419187 0.18010894745 0.18201243436 0.18367954345 
0.18497159655 0.18579949539 0.1861324128 0.18599738276 0.18547013342 0.18465948045 0.18368851758 0.18267592946 0.1817202191 
0.18088864307 0.18021143134 0.17968080685 0.17925372715 0.17885717991 0.17839499749 0.17775522371 0.17681711965 0.17545720351 
0.1735542949 0.17099401108 0.16767320524 0.16350446597 0.15842030664 0.15237634904 0.145352777 0.13735360288 0.12840377549 
0.1185447334 0.10782949175 0.096318555371 0.08407774819 0.07117844324 0.057699838827 0.043732145357 0.029379129296 0.014758590389 
1.4638795651e-15 
_area 1 100 double
0 0.00042603145028 0.001702066779 0.003821382738 0.0067709423066 0.010528691337 0.015060095654 0.02031456457 0.026222615156 
0.03269447305 0.039620409392 0.04687300334 0.054311897839 0.061791666758 0.069172260835 0.076329837225 0.083165255594 0.089608703217 
0.09562078371 0.10119163954 0.10633962184 0.11110961249 0.11556869185 0.11979486704 0.12385629462 0.12778629292 0.1315676815 
0.13513654904 0.13840172299 0.1412676681 0.14365121937 0.14549057761 0.14675195162 0.14743956721 0.14760819214 0.14736996099 
0.14688801771 0.14634598628 0.14586667269 0.1453834199 0.14461355276 0.1432113051 0.14090696869 0.13755814859 0.13316299095 
0.12785330817 0.12186733775 0.11550814227 0.10909903063 0.10294410038 0.097296577365 0.092337363726 0.088169894879 0.084834376395 
0.082330165525 0.080629487759 0.079682321732 0.079404321006 0.079601712144 0.080020747728 0.080438237081 0.080687927067 0.080649970419 
0.080243801975 0.079419428146 0.078161279132 0.076510829786 0.074571476472 0.072475376015 0.070339170477 0.068252303878 0.066297400374 
0.064569563146 0.06318026211 0.062247161214 0.061873488001 0.062118430186 0.062958077895 0.064251705659 0.065750729097 0.067150801452 
0.068144494952 0.068456397057 0.067866636486 0.066228579937 0.063480682942 0.059650165161 0.054847398642 0.049252088411 0.043093809492 
0.036630009689 0.030124481596 0.023828765167 0.017968109121 0.012732691308 0.0082739803766 0.0047055002124 0.0021067826781 0.00052892185108 
2.2024180037e-19 
