# vtk DataFile Version 5.1
vtk output
ASCII
DATASET POLYDATA
POINTS 100 float
0.0588352 0.0561863 0.629675 0.0589454 0.0561776 0.629617 0.0593088 0.0560164 0.629291 
0.0598786 0.05573 0.628649 0.0605826 0.0553612 0.627616 0.0613315 0.0549626 0.626103 
0.0620287 0.0545896 0.624013 0.0625812 0.0542931 0.621255 0.0629089 0.0541122 0.617753 
0.062952 0.0540691 0.613453 0.0626749 0.054165 0.60833 0.062067 0.0543795 0.602393 
0.0611393 0.0546719 0.595677 0.0599194 0.0549852 0.588246 0.0584431 0.0552528 0.580182 
0.0567465 0.0554058 0.571577 0.0548583 0.055381 0.562522 0.052794 0.0551289 0.553101 
0.0505526 0.0546197 0.543383 0.0481167 0.0538479 0.533413 0.0454549 0.0528343 0.523215 
0.0425279 0.0516248 0.512788 0.0392944 0.0502877 0.502111 0.0357192 0.0489071 0.491151 
0.0317788 0.0475767 0.479863 0.0274665 0.0463911 0.468204 0.0227941 0.0454377 0.456133 
0.0177908 0.0447901 0.44362 0.0124999 0.0445015 0.430647 0.0069727 0.0446019 0.417209 
0.00126201 0.0450956 0.40331 -0.00458461 0.0459632 0.388962 -0.01053 0.0471634 0.374178 
-0.0165504 0.0486387 0.358968 -0.0226347 0.0503204 0.343334 -0.0287818 0.052135 0.327265 
-0.0349933 0.0540106 0.310737 -0.0412662 0.0558823 0.293714 -0.047583 0.0576964 0.276147 
-0.0539041 0.0594138 0.257987 -0.0601617 0.0610109 0.239185 -0.0662573 0.0624805 0.219701 
-0.0720638 0.0638297 0.199512 -0.0774318 0.0650783 0.178618 -0.0822003 0.0662556 0.157046 
-0.0862103 0.0673966 0.134848 -0.0893202 0.0685392 0.112107 -0.0914199 0.0697199 0.0889228 
-0.0924437 0.0709717 0.0654147 -0.0923781 0.0723204 0.0417073 -0.0912648 0.0737833 0.0179238 
-0.0891977 0.0753668 -0.00582314 -0.0863135 0.077066 -0.0294387 -0.0827775 0.0788632 -0.0528514 
-0.0787671 0.0807287 -0.0760153 -0.074452 0.0826208 -0.0989101 -0.0699775 0.0844871 -0.121538 
-0.0654495 0.0862659 -0.143916 -0.0609257 0.0878892 -0.166071 -0.0564121 0.0892848 -0.188033 
-0.0518669 0.0903804 -0.209819 -0.0472107 0.0911066 -0.231438 -0.0423406 0.0914014 -0.252876 
-0.0371488 0.0912133 -0.274099 -0.0315407 0.0905049 -0.295052 -0.0254517 0.0892549 -0.315664 
-0.0188602 0.0874603 -0.335852 -0.0117946 0.0851363 -0.355529 -0.0043339 0.0823158 -0.374613 
0.00339815 0.079047 -0.39303 0.011245 0.0753913 -0.410727 0.019033 0.0714187 -0.427672 
0.0265901 0.0672039 -0.443855 0.0337626 0.0628223 -0.459288 0.0404311 0.0583458 -0.474002 
0.0465203 0.0538396 -0.488034 0.0520038 0.0493597 -0.501429 0.0569022 0.0449515 -0.514221 
0.0612752 0.0406498 -0.526431 0.065209 0.0364793 -0.538061 0.0688009 0.0324562 -0.549085 
0.0721431 0.02859 -0.559453 0.0753082 0.0248863 -0.569092 0.0783386 0.0213486 -0.577911 
0.0812405 0.0179804 -0.585811 0.0839848 0.0147862 -0.592697 0.0865127 0.0117726 -0.598488 
0.088747 0.00894782 -0.60313 0.0906066 0.00632157 -0.606605 0.0920213 0.00390387 -0.60894 
0.0929461 0.00170401 -0.61021 0.0933723 -0.000270489 -0.610537 0.0933331 -0.00201473 -0.610086 
0.0929036 -0.00352679 -0.609055 0.0921946 -0.0048077 -0.607664 0.0913414 -0.00586091 -0.606138 
0.0904881 -0.00669138 -0.604691 0.089771 -0.00730448 -0.60351 0.0893016 -0.00770487 -0.602741 
0.089153 -0.00789549 -0.602478 
LINES 2 100
OFFSETS vtktypeint64
0 100 
CONNECTIVITY vtktypeint64
0 1 2 3 4 5 6 7 8 
9 10 11 12 13 14 15 16 17 
18 19 20 21 22 23 24 25 26 
27 28 29 30 31 32 33 34 35 
36 37 38 39 40 41 42 43 44 
45 46 47 48 49 50 51 52 53 
54 55 56 57 58 59 60 61 62 
63 64 65 66 67 68 69 70 71 
72 73 74 75 76 77 78 79 80 
81 82 83 84 85 86 87 88 89 
90 91 92 93 94 95 96 97 98 
99 
POINT_DATA 100
FIELD FieldData 3
_theta 1 100 double
0 0.031733259127 0.063466518254 0.095199777382 0.12693303651 0.15866629564 0.19039955476 0.22213281389 0.25386607302 
0.28559933214 0.31733259127 0.3490658504 0.38079910953 0.41253236865 0.44426562778 0.47599888691 0.50773214603 0.53946540516 
0.57119866429 0.60293192342 0.63466518254 0.66639844167 0.6981317008 0.72986495992 0.76159821905 0.79333147818 0.82506473731 
0.85679799643 0.88853125556 0.92026451469 0.95199777382 0.98373103294 1.0154642921 1.0471975512 1.0789308103 1.1106640695 
1.1423973286 1.1741305877 1.2058638468 1.237597106 1.2693303651 1.3010636242 1.3327968833 1.3645301425 1.3962634016 
1.4279966607 1.4597299198 1.491463179 1.5231964381 1.5549296972 1.5866629564 1.6183962155 1.6501294746 1.6818627337 
1.7135959929 1.745329252 1.7770625111 1.8087957702 1.8405290294 1.8722622885 1.9039955476 1.9357288068 1.9674620659 
1.999195325 2.0309285841 2.0626618433 2.0943951024 2.1261283615 2.1578616206 2.1895948798 2.2213281389 2.253061398 
2.2847946572 2.3165279163 2.3482611754 2.3799944345 2.4117276937 2.4434609528 2.4751942119 2.506927471 2.5386607302 
2.5703939893 2.6021272484 2.6338605076 2.6655937667 2.6973270258 2.7290602849 2.7607935441 2.7925268032 2.8242600623 
2.8559933214 2.8877265806 2.9194598397 2.9511930988 2.982926358 3.0146596171 3.0463928762 3.0781261353 3.1098593945 
3.1415926536 
_radius 1 100 double
6.7919685654e-16 0.013952469726 0.027707241085 0.041086178844 0.053948387844 0.066201311829 0.077804177345 0.088763585843 0.099122617414 
0.10894609591 0.11830526817 0.12726482295 0.13587404318 0.14416245013 0.15213915251 0.15979460223 0.16710359665 0.17402893375 
0.18052575686 0.18654690061 0.19204923601 0.19700027143 0.20138359163 0.2052015818 0.20847443019 0.21123540059 0.213523402 
0.21537457776 0.21681478845 0.21785449144 0.21848682559 0.21868897191 0.21842630871 0.21765860774 0.21634747853 0.21446433591 
0.21199822397 0.20896282093 0.20540187537 0.20139222844 0.19704354268 0.19249400098 0.1879016551 0.1834318172 0.17924181413 
0.17546535567 0.1721993592 0.16949591507 0.16736093459 0.16575918662 0.16462372331 0.16386696071 0.16339115411 0.16309720908 
0.16289190297 0.16269409085 0.16244027449 0.16208936509 0.16162597197 0.16106133413 0.16043114537 0.15979001091 0.15920306027 
0.158736136 0.15844661812 0.15837692692 0.15855189711 0.1589798079 0.15965554844 0.1605638516 0.16168094176 0.16297397766 
0.16439877903 0.16589707141 0.16739466112 0.16880155809 0.17001428214 0.17091975097 0.17139962496 0.17133403269 0.17060422715 
0.16909465815 0.16669571 0.16330844135 0.1588518673 0.15327198594 0.14655060478 0.13871164075 0.12982300541 0.11999312592 
0.10936223613 0.098089566743 0.086338333314 0.074260866524 0.061986267207 0.049612535551 0.037204204845 0.024795231328 0.012395659192 
6.4617447939e-16 
_area 1 100 double
0 0.00050830568334 0.001994961597 0.0043525897784 0.0074254286379 0.011039182079 0.015033487363 0.019288615659 0.023737588354 
0.028359538946 0.03316060531 0.038154913577 0.043352758304 0.048754700249 0.054347867891 0.060102693859 0.065970741439 0.071885392509 
0.077766694391 0.083530226466 0.089098333081 0.094410953932 0.099432668839 0.10415282414 0.10857754238 0.1127159142 0.11656547751 
0.12010204303 0.1232765425 0.12601870378 0.12824524449 0.12986944295 0.13080941596 0.13099392093 0.13036639778 0.12888929699 
0.12655069282 0.12337363275 0.11942623166 0.11482846895 0.10975143411 0.10440685652 0.099028028427 0.09384561999 0.089061970915 
0.084826240083 0.081214036392 0.078219819118 0.075769965249 0.073753265117 0.072054883599 0.070580300637 0.069264084395 0.068066059491 
0.066959039076 0.065915924654 0.064908526064 0.063907483332 0.062882488711 0.061826203583 0.060774437043 0.059804042938 0.05901415315 
0.058498026465 0.058314942281 0.05847865032 0.058972362387 0.059771222996 0.060853806643 0.062199535975 0.063778826775 0.065544408487 
0.067429247527 0.069352923569 0.071234631901 0.073007364272 0.0746250807 0.076054252741 0.077247329172 0.078111682339 0.07849809056 
0.078217452632 0.077074127571 0.074903476033 0.071606623959 0.067176329017 0.061708148241 0.055393954513 0.04849921553 0.04132939789 
0.034193109403 0.027369667227 0.021086800936 0.015510761283 0.010747431304 0.0068509905057 0.0038372142397 0.0016994465425 0.00042392866979 
1.4094628242e-17 
