# vtk DataFile Version 5.1
vtk output
ASCII
DATASET POLYDATA
POINTS 100 float
0.141046 0.0212599 0.642828 0.140889 0.0216513 0.642368 0.140439 0.0226784 0.640864 
0.139701 0.0242596 0.638388 0.138687 0.0262692 0.63505 0.137408 0.0285527 0.630986 
0.135878 0.0309437 0.62634 0.134109 0.0332828 0.621247 0.132111 0.0354338 0.61582 
0.129893 0.0372967 0.610134 0.127457 0.0388157 0.604223 0.124803 0.0399808 0.59808 
0.121927 0.040823 0.591661 0.118822 0.0414049 0.584899 0.115477 0.041807 0.577713 
0.111883 0.0421125 0.570031 0.108028 0.0423931 0.561796 0.103901 0.0426964 0.552989 
0.0994892 0.0430385 0.543624 0.0947836 0.0434013 0.533757 0.0897747 0.043736 0.523478 
0.0844555 0.0439704 0.512903 0.0788221 0.0440214 0.502156 0.0728756 0.0438086 0.491355 
0.066624 0.0432674 0.480595 0.0600843 0.0423613 0.469935 0.0532846 0.0410891 0.459389 
0.0462655 0.0394879 0.448921 0.0390806 0.0376308 0.438451 0.0317951 0.0356194 0.427861 
0.0244836 0.033573 0.417013 0.0172249 0.0316149 0.40576 0.0100963 0.0298589 0.393972 
0.00316565 0.0283973 0.381545 -0.00351595 0.0272924 0.368417 -0.00992187 0.026572 0.354577 
-0.0160556 0.0262305 0.34006 -0.0219538 0.0262342 0.324948 -0.0276865 0.0265306 0.309353 
-0.0333522 0.0270603 0.293403 -0.0390702 0.0277686 0.277225 -0.0449683 0.0286164 0.260923 
-0.0511679 0.0295876 0.244567 -0.0577679 0.0306929 0.228179 -0.0648288 0.0319677 0.211729 
-0.072359 0.033466 0.195135 -0.0803045 0.0352512 0.178276 -0.0885447 0.0373829 0.160998 
-0.0968947 0.0399052 0.14314 -0.105113 0.0428347 0.124549 -0.112919 0.0461531 0.105095 
-0.120008 0.0498031 0.0846968 -0.126083 0.05369 0.0633232 -0.130872 0.0576886 0.0410044 
-0.134154 0.0616536 0.0178293 -0.135779 0.0654334 -0.00606162 -0.135681 0.0688848 -0.0304873 
-0.13388 0.0718866 -0.0552417 -0.130484 0.0743508 -0.0801104 -0.125672 0.0762288 -0.104887 
-0.119681 0.0775137 -0.129385 -0.112779 0.0782361 -0.153452 -0.105238 0.0784564 -0.176971 
-0.0973132 0.0782532 -0.199866 -0.0892158 0.0777103 -0.222094 -0.0810987 0.0769042 -0.243642 
-0.073047 0.0758937 -0.264516 -0.0650771 0.0747134 -0.284737 -0.0571442 0.0733717 -0.304323 
-0.0491575 0.0718534 -0.323292 -0.0409998 0.0701276 -0.341652 -0.0325502 0.0681578 -0.359401 
-0.0237061 0.0659139 -0.376529 -0.0144028 0.0633835 -0.393021 -0.00462658 0.0605811 -0.408862 
0.00557861 0.057553 -0.424039 0.0161128 0.0543774 -0.438548 0.0268293 0.0511595 -0.452395 
0.0375497 0.0480213 -0.465595 0.048084 0.0450885 -0.478173 0.0582518 0.0424757 -0.490158 
0.0679016 0.0402715 -0.50158 0.0769275 0.038527 -0.512463 0.0852787 0.0372478 -0.522825 
0.0929621 0.0363925 -0.532668 0.100037 0.035877 -0.541982 0.106602 0.0355839 -0.550745 
0.11278 0.0353778 -0.558922 0.118694 0.0351222 -0.566476 0.124449 0.0346976 -0.573366 
0.130111 0.0340172 -0.579558 0.135697 0.0330389 -0.585029 0.141166 0.0317712 -0.589767 
0.146419 0.0302728 -0.593777 0.151314 0.0286455 -0.597075 0.155674 0.0270211 -0.599691 
0.159313 0.0255444 -0.60166 0.162055 0.0243544 -0.603016 0.163756 0.0235662 -0.603791 
0.164322 0.0232556 -0.604008 
LINES 2 100
OFFSETS vtktypeint64
0 100 
CONNECTIVITY vtktypeint64
0 1 2 3 4 5 6 7 8 
9 10 11 12 13 14 15 16 17 
18 19 20 21 22 23 24 25 26 
27 28 29 30 31 32 33 34 35 
36 37 38 39 40 41 42 43 44 
45 46 47 48 49 50 51 52 53 
54 55 56 57 58 59 60 61 62 
63 64 65 66 67 68 69 70 71 
72 73 74 75 76 77 78 79 80 
81 82 83 84 85 86 87 88 89 
90 91 92 93 94 95 96 97 98 
99 
POINT_DATA 100
FIELD FieldData 3
_theta 1 100 double
0 0.031733259127 0.063466518254 0.095199777382 0.12693303651 0.15866629564 0.19039955476 0.22213281389 0.25386607302 
0.28559933214 0.31733259127 0.3490658504 0.38079910953 0.41253236865 0.44426562778 0.47599888691 0.50773214603 0.53946540516 
0.57119866429 0.60293192342 0.63466518254 0.66639844167 0.6981317008 0.72986495992 0.76159821905 0.79333147818 0.82506473731 
0.85679799643 0.88853125556 0.92026451469 0.95199777382 0.98373103294 1.0154642921 1.0471975512 1.0789308103 1.1106640695 
1.1423973286 1.1741305877 1.2058638468 1.237597106 1.2693303651 1.3010636242 1.3327968833 1.3645301425 1.3962634016 
1.4279966607 1.4597299198 1.491463179 1.5231964381 1.5549296972 1.5866629564 1.6183962155 1.6501294746 1.6818627337 
1.7135959929 1.745329252 1.7770625111 1.8087957702 1.8405290294 1.8722622885 1.9039955476 1.9357288068 1.9674620659 
1.999195325 2.0309285841 2.0626618433 2.0943951024 2.1261283615 2.1578616206 2.1895948798 2.2213281389 2.253061398 
2.2847946572 2.3165279163 2.3482611754 2.3799944345 2.4117276937 2.4434609528 2.4751942119 2.506927471 2.5386607302 
2.5703939893 2.6021272484 2.6338605076 2.6655937667 2.6973270258 2.7290602849 2.7607935441 2.7925268032 2.8242600623 
2.8559933214 2.8877265806 2.9194598397 2.9511930988 2.982926358 3.0146596171 3.0463928762 3.0781261353 3.1098593945 
3.1415926536 
_radius 1 100 double
5.8817103487e-16 0.012880199813 0.025748591221 0.038583159643 0.051351815071 0.064009574795 0.076497854615 0.088746211924 0.10067656748 
0.11220955211 0.1232722262 0.13380607052 0.14377394048 0.15316470958 0.16199463356 0.17030496294 0.17815587293 0.18561727325 
0.19275750898 0.19963138984 0.20626933579 0.21266957625 0.21879515421 0.22457687645 0.22992233502 0.23472987712 0.23890523941 
0.24237784189 0.24511368669 0.2471224483 0.24845749802 0.24920896773 0.24949117837 0.24942655935 0.24912846932 0.24868520727 
0.24814717923 0.24751880233 0.24675630413 0.24577205634 0.24444541911 0.24263927178 0.24022055632 0.23708240631 0.23316494048 
0.22847168476 0.22307889411 0.21713575745 0.21085454502 0.20449116761 0.1983182994 0.19259495014 0.18753765785 0.18329862536 
0.17995464676 0.17750771785 0.17589487016 0.17500269531 0.1746824447 0.1747640359 0.17506973322 0.17542879254 0.17569292159 
0.17575063843 0.17553800633 0.17504388282 0.17430892583 0.17341851554 0.17249041117 0.17165853045 0.17105473003 0.17079070418 
0.17094196661 0.17153543109 0.17254162019 0.17387216301 0.17538291816 0.1768826167 0.17814633814 0.17893258418 0.17900238553 
0.17813875754 0.17616475007 0.17295822051 0.16846138553 0.1626833851 0.15569470757 0.1476134414 0.13858482725 0.12875719889 
0.11825871515 0.10717986037 0.095566145238 0.083423528765 0.070735913859 0.057490401761 0.043703217887 0.029438689863 0.014815725109 
9.6283664873e-16 
_area 1 100 double
0 0.00046921429024 0.0018676833608 0.0041667039641 0.0073154710306 0.011239536096 0.015842895572 0.021015030963 0.026642012788 
0.032618660615 0.038857804604 0.045293582653 0.051878336806 0.058575917235 0.065355995688 0.07219278595 0.079068289191 0.085977383477 
0.092931022686 0.099953936937 0.10707413153 0.11430394476 0.12161697573 0.12892985318 0.13609855465 0.14293379951 0.14923172057 
0.15480984293 0.15953767635 0.1633550473 0.16627625577 0.16838195069 0.16980272112 0.170698394 0.17123517442 0.17156076623 
0.1717757827 0.171899837 0.17184548525 0.17142616442 0.17039778242 0.16850974924 0.16555373185 0.16140702196 0.15606500783 
0.14965564902 0.14243042013 0.13473090153 0.12693798667 0.11941966952 0.11249538191 0.10642081041 0.10137678656 0.097442563282 
0.094561099789 0.092542628431 0.091129686759 0.090074150201 0.089175872216 0.088284185865 0.087286093441 0.086098885366 0.08467272827 
0.08299904708 0.081117156413 0.079141015917 0.077203512565 0.075330025289 0.073595433192 0.072084410351 0.070874091369 0.070022255043 
0.069564674609 0.069513202318 0.069868152292 0.070673742442 0.071766800768 0.072980381335 0.074105741274 0.074898598619 0.075095933313 
0.074451925127 0.072783830357 0.070010772175 0.066170228363 0.061407276233 0.055942156277 0.050027471444 0.043907252377 0.03778758394 
0.031823922163 0.026125087563 0.020769486351 0.015826209938 0.011372938997 0.0075045424171 0.0043303035548 0.0019618487252 0.0004963374172 
7.3535112966e-17 
