# vtk DataFile Version 5.1
vtk output
ASCII
DATASET POLYDATA
POINTS 100 float
0.111322 0.0331488 0.63363 0.111267 0.0333117 0.633404 0.111145 0.0336517 0.632556 
0.110951 0.0341626 0.631086 0.110676 0.0348343 0.628992 0.110313 0.0356531 0.626272 
0.10985 0.0366016 0.622925 0.109281 0.0376587 0.618945 0.108596 0.0387996 0.614327 
0.107789 0.0399951 0.609068 0.106852 0.0412119 0.603162 0.105777 0.0424117 0.59661 
0.104549 0.0435522 0.589418 0.10315 0.0445866 0.5816 0.101551 0.0454657 0.573181 
0.0997149 0.0461389 0.564197 0.0975955 0.0465571 0.554695 0.0951396 0.0466757 0.54473 
0.0922901 0.0464586 0.534365 0.0889904 0.0458816 0.523663 0.0851901 0.044936 0.512685 
0.08085 0.0436319 0.501482 0.0759478 0.0419994 0.490094 0.0704815 0.0400895 0.478544 
0.0644719 0.0379728 0.466839 0.0579619 0.035736 0.454966 0.0510144 0.0334773 0.442901 
0.043707 0.0313006 0.430607 0.0361258 0.0293083 0.418042 0.0283577 0.0275939 0.405168 
0.0204824 0.026236 0.39195 0.0125661 0.0252918 0.378366 0.00465642 0.0247941 0.364408 
-0.00322019 0.0247496 0.350081 -0.0110575 0.0251394 0.335401 -0.0188657 0.0259225 0.320393 
-0.0266655 0.0270408 0.305083 -0.034479 0.028426 0.289489 -0.0423209 0.0300073 0.273619 
-0.0501888 0.0317182 0.25746 -0.0580563 0.0335035 0.240982 -0.0658671 0.0353245 0.224131 
-0.0735338 0.037161 0.206834 -0.0809399 0.0390126 0.189007 -0.0879455 0.0408963 0.170561 
-0.0943966 0.042842 0.151416 -0.100137 0.0448874 0.131507 -0.105019 0.0470709 0.110796 
-0.10892 0.0494247 0.0892812 -0.111747 0.0519691 0.0669983 -0.113449 0.0547078 0.0440229 
-0.114019 0.0576251 0.0204663 -0.113495 0.0606855 -0.0035323 -0.111953 0.0638355 -0.0278157 
-0.109497 0.0670074 -0.0522215 -0.106255 0.0701244 -0.0765941 -0.102357 0.0731063 -0.100796 
-0.0979309 0.0758759 -0.124718 -0.0930838 0.0783644 -0.148281 -0.0878988 0.0805149 -0.171441 
-0.082427 0.0822854 -0.194183 -0.0766881 0.0836494 -0.216516 -0.0706723 0.0845946 -0.238463 
-0.0643473 0.0851201 -0.260049 -0.0576674 0.0852336 -0.281293 -0.0505836 0.0849467 -0.302199 
-0.0430549 0.084272 -0.322748 -0.035057 0.0832196 -0.342897 -0.02659 0.0817958 -0.362582 
-0.0176824 0.0800032 -0.381725 -0.00839241 0.0778415 -0.400237 0.00119502 0.07531 -0.418035 
0.0109731 0.0724115 -0.435047 0.0208205 0.0691552 -0.451222 0.0306103 0.0655607 -0.466539 
0.0402182 0.0616601 -0.481004 0.0495302 0.0574999 -0.49465 0.0584492 0.0531402 -0.507532 
0.0668985 0.0486534 -0.519716 0.0748234 0.0441211 -0.531268 0.0821909 0.0396292 -0.542244 
0.088987 0.0352635 -0.552678 0.0952126 0.0311041 -0.562573 0.10088 0.027221 -0.571903 
0.106007 0.02367 -0.580608 0.110617 0.0204901 -0.588609 0.114731 0.0177026 -0.59581 
0.118372 0.0153112 -0.602117 0.121559 0.0133038 -0.607453 0.124315 0.0116551 -0.611771 
0.126661 0.0103302 -0.615064 0.128623 0.00928811 -0.617374 0.13023 0.00848534 -0.618795 
0.131514 0.0078789 -0.619463 0.132511 0.00742875 -0.619553 0.133258 0.00709944 -0.619258 
0.133792 0.00686115 -0.618773 0.134147 0.00669007 -0.618275 0.134347 0.00656853 -0.617907 
0.134411 0.006485 -0.61776 
LINES 2 100
OFFSETS vtktypeint64
0 100 
CONNECTIVITY vtktypeint64
0 1 2 3 4 5 6 7 8 
9 10 11 12 13 14 15 16 17 
18 19 20 21 22 23 24 25 26 
27 28 29 30 31 32 33 34 35 
36 37 38 39 40 41 42 43 44 
45 46 47 48 49 50 51 52 53 
54 55 56 57 58 59 60 61 62 
63 64 65 66 67 68 69 70 71 
72 73 74 75 76 77 78 79 80 
81 82 83 84 85 86 87 88 89 
90 91 92 93 94 95 96 97 98 
99 
POINT_DATA 100
FIELD FieldData 3
_theta 1 100 double
0 0.031733259127 0.063466518254 0.095199777382 0.12693303651 0.15866629564 0.19039955476 0.22213281389 0.25386607302 
0.28559933214 0.31733259127 0.3490658504 0.38079910953 0.41253236865 0.44426562778 0.47599888691 0.50773214603 0.53946540516 
0.57119866429 0.60293192342 0.63466518254 0.66639844167 0.6981317008 0.72986495992 0.76159821905 0.79333147818 0.82506473731 
0.85679799643 0.88853125556 0.92026451469 0.95199777382 0.98373103294 1.0154642921 1.0471975512 1.0789308103 1.1106640695 
1.1423973286 1.1741305877 1.2058638468 1.237597106 1.2693303651 1.3010636242 1.3327968833 1.3645301425 1.3962634016 
1.4279966607 1.4597299198 1.491463179 1.5231964381 1.5549296972 1.5866629564 1.6183962155 1.6501294746 1.6818627337 
1.7135959929 1.745329252 1.7770625111 1.8087957702 1.8405290294 1.8722622885 1.9039955476 1.9357288068 1.9674620659 
1.999195325 2.0309285841 2.0626618433 2.0943951024 2.1261283615 2.1578616206 2.1895948798 2.2213281389 2.253061398 
2.2847946572 2.3165279163 2.3482611754 2.3799944345 2.4117276937 2.4434609528 2.4751942119 2.506927471 2.5386607302 
2.5703939893 2.6021272484 2.6338605076 2.6655937667 2.6973270258 2.7290602849 2.7607935441 2.7925268032 2.8242600623 
2.8559933214 2.8877265806 2.9194598397 2.9511930988 2.982926358 3.0146596171 3.0463928762 3.0781261353 3.1098593945 
3.1415926536 
_radius 1 100 double
1.3340734094e-15 0.014351299408 0.028545090721 0.042434921353 0.055902006089 0.068864432508 0.081281294465 0.093151305828 0.10450626474 
0.11540046745 0.12589769563 0.13605766003 0.14592378318 0.15551400099 0.16481590447 0.17378701932 0.18236030538 0.190454107 
0.19798498479 0.20488132423 0.21109546128 0.21661226895 0.22145264706 0.22567110864 0.22934762826 0.23257500378 0.23544392768 
0.23802843551 0.24037419229 0.24249129714 0.24435228873 0.24589518517 0.24703086447 0.24765384754 0.24765544006 0.24693808779 
0.24542965247 0.24309615664 0.23995146492 0.23606244979 0.23154848734 0.22657466323 0.22133884288 0.21605374493 0.21092625799 
0.2061372281 0.20182542879 0.19807895656 0.19493565517 0.19239167998 0.19041486303 0.18895820377 0.1879692588 0.18739332846 
0.18717128502 0.18723540587 0.18750749315 0.18790233102 0.18833667518 0.18874106459 0.18907045924 0.18931044458 0.18947754159 
0.18961390021 0.18977787145 0.19003262751 0.19043513558 0.19102739684 0.19183110174 0.19284600637 0.19405157178 0.19541071409 
0.19687394432 0.19838209217 0.19986653016 0.20124708888 0.20242894882 0.20330016698 0.20373119343 0.20357715472 0.20268314167 
0.20089230185 0.19805613809 0.19404601584 0.18876453165 0.18215519334 0.17420890719 0.16496609771 0.15451387377 0.14297840366 
0.13051343704 0.1172865556 0.10346510688 0.089203782159 0.074635424676 0.059865978017 0.044973668276 0.030011766597 0.015013800491 
1.1688242767e-15 
_area 1 100 double
0 0.00057282974683 0.002262156929 0.0049842210922 0.0086113807241 0.012988456254 0.017952462969 0.023352757404 0.029068239765 
0.035018506389 0.041166826962 0.047514332223 0.054086462874 0.060914209153 0.068013718925 0.075368310378 0.082916797554 0.090551391061 
0.098127108989 0.10548233481 0.11246705396 0.11897230138 0.12495269196 0.13043447721 0.13550469563 0.14028248948 0.14488040317 
0.14936837004 0.15375222819 0.15797143524 0.16191173889 0.16542371933 0.16833968307 0.1704866003 0.17169697666 0.17182074428 
0.17074030758 0.16838895032 0.16477051693 0.1599762703 0.15419386911 0.14770384098 0.14086003093 0.13405037477 0.12763480458 
0.12187622299 0.1169077173 0.11274371443 0.10930606441 0.10645422171 0.10401777816 0.10182929174 0.09975941343 0.097751128136 
0.095834417175 0.094097114575 0.092608323096 0.091355411267 0.090265305403 0.08926001717 0.08828461979 0.087303132471 0.086273864521 
0.085180724944 0.084047830199 0.082942023949 0.08196096279 0.08121038255 0.080779845687 0.080725181636 0.081065487642 0.081793702704 
0.082890598637 0.084331313818 0.086080627628 0.088080453863 0.090236006586 0.092406169804 0.094400975486 0.095987246676 0.096903195423 
0.096882032462 0.09568207139 0.093118440943 0.089091334228 0.083606663298 0.076785673368 0.068860872851 0.060157364737 0.051061301173 
0.041979934038 0.033299645919 0.025348824392 0.018371450653 0.012515206152 0.0078353022624 0.004312561288 0.0018818154181 0.00046471495765 
2.9924826981e-17 
