# vtk DataFile Version 5.1
vtk output
ASCII
DATASET POLYDATA
POINTS 100 float
0.130067 0.0392642 0.665679 0.130326 0.0395185 0.665424 0.131139 0.0401095 0.664553 
0.13241 0.0410113 0.663112 0.133988 0.0421825 0.661166 0.135688 0.0435683 0.658795 
0.137308 0.0451034 0.656074 0.13865 0.0467147 0.653066 0.139545 0.0483256 0.649807 
0.139865 0.0498599 0.646302 0.139531 0.0512459 0.642518 0.138523 0.0524206 0.638389 
0.13687 0.0533332 0.633819 0.134645 0.0539483 0.628698 0.131944 0.0542472 0.622911 
0.128876 0.0542293 0.616356 0.12554 0.0539108 0.608954 0.122014 0.0533231 0.600664 
0.118339 0.0525094 0.591485 0.114519 0.0515206 0.581461 0.110519 0.0504107 0.570673 
0.106274 0.0492316 0.559235 0.101698 0.0480295 0.547278 0.0967026 0.0468405 0.534936 
0.0912108 0.0456889 0.522336 0.0851705 0.0445864 0.50958 0.0785669 0.0435327 0.496738 
0.0714268 0.0425184 0.483847 0.0638192 0.0415285 0.470904 0.0558484 0.0405465 0.457877 
0.0476428 0.0395598 0.444709 0.0393402 0.0385637 0.431334 0.0310712 0.0375645 0.417684 
0.0229441 0.0365824 0.403699 0.0150324 0.0356507 0.389338 0.00736738 0.034815 0.374584 
-6.29504e-05 0.0341293 0.35944 -0.00730929 0.0336517 0.343925 -0.01445 0.0334382 0.328073 
-0.0215758 0.0335368 0.311916 -0.0287721 0.0339826 0.295476 -0.036101 0.0347926 0.27876 
-0.0435856 0.0359635 0.261747 -0.0511989 0.0374709 0.24439 -0.0588584 0.039271 0.226614 
-0.0664283 0.041304 0.208324 -0.0737275 0.0434995 0.189416 -0.0805453 0.0457834 0.169785 
-0.0866595 0.0480841 0.14934 -0.0918586 0.0503398 0.128017 -0.0959624 0.0525033 0.105788 
-0.0988403 0.0545464 0.0826688 -0.100425 0.0564607 0.0587179 -0.100718 0.0582576 0.0340376 
-0.0997911 0.0599646 0.00876478 -0.0977782 0.0616204 -0.0169393 -0.0948608 0.0632687 -0.0429013 
-0.0912503 0.064951 -0.0689488 -0.0871671 0.0666994 -0.0949224 -0.0828197 0.068531 -0.120685 
-0.0783859 0.0704427 -0.146129 -0.0739987 0.0724095 -0.171176 -0.0697373 0.0743838 -0.19578 
-0.0656246 0.0762977 -0.219915 -0.0616314 0.0780676 -0.243579 -0.0576857 0.0795999 -0.266776 
-0.053687 0.0807982 -0.289513 -0.0495215 0.0815704 -0.311796 -0.0450798 0.0818365 -0.333622 
-0.0402715 0.0815338 -0.354981 -0.0350374 0.0806221 -0.375856 -0.0293579 0.0790863 -0.396225 
-0.0232551 0.0769372 -0.416069 -0.0167921 0.0742105 -0.435369 -0.0100658 0.0709641 -0.454117 
-0.00319797 0.0672739 -0.47231 0.00367659 0.0632289 -0.489951 0.0104221 0.0589263 -0.507046 
0.0169133 0.0544656 -0.523595 0.0230451 0.0499446 -0.539587 0.0287387 0.0454549 -0.554994 
0.033946 0.0410789 -0.569762 0.0386488 0.0368878 -0.58381 0.0428568 0.0329401 -0.597035 
0.046602 0.0292812 -0.609311 0.0499323 0.0259437 -0.620505 0.0529042 0.0229477 -0.630484 
0.0555752 0.020302 -0.639136 0.0579985 0.0180051 -0.64638 0.060217 0.0160463 -0.652184 
0.0622614 0.014407 -0.656572 0.0641479 0.0130626 -0.65963 0.0658794 0.0119831 -0.661503 
0.0674467 0.0111355 -0.662391 0.0688315 0.0104853 -0.662529 0.0700103 0.00999832 -0.662174 
0.0709571 0.00964275 -0.661577 0.0716479 0.00939096 -0.660964 0.0720631 0.00922133 -0.660513 
0.07219 0.00911965 -0.66034 
LINES 2 100
OFFSETS vtktypeint64
0 100 
CONNECTIVITY vtktypeint64
0 1 2 3 4 5 6 7 8 
9 10 11 12 13 14 15 16 17 
18 19 20 21 22 23 24 25 26 
27 28 29 30 31 32 33 34 35 
36 37 38 39 40 41 42 43 44 
45 46 47 48 49 50 51 52 53 
54 55 56 57 58 59 60 61 62 
63 64 65 66 67 68 69 70 71 
72 73 74 75 76 77 78 79 80 
81 82 83 84 85 86 87 88 89 
90 91 92 93 94 95 96 97 98 
99 
POINT_DATA 100
FIELD FieldData 3
_theta 1 100 double
0 0.031733259127 0.063466518254 0.095199777382 0.12693303651 0.15866629564 0.19039955476 0.22213281389 0.25386607302 
0.28559933214 0.31733259127 0.3490658504 0.38079910953 0.41253236865 0.44426562778 0.47599888691 0.50773214603 0.53946540516 
0.57119866429 0.60293192342 0.63466518254 0.66639844167 0.6981317008 0.72986495992 0.76159821905 0.79333147818 0.82506473731 
0.85679799643 0.88853125556 0.92026451469 0.95199777382 0.98373103294 1.0154642921 1.0471975512 1.0789308103 1.1106640695 
1.1423973286 1.1741305877 1.2058638468 1.237597106 1.2693303651 1.3010636242 1.3327968833 1.3645301425 1.3962634016 
1.4279966607 1.4597299198 1.491463179 1.5231964381 1.5549296972 1.5866629564 1.6183962155 1.6501294746 1.6818627337 
1.7135959929 1.745329252 1.7770625111 1.8087957702 1.8405290294 1.8722622885 1.9039955476 1.9357288068 1.9674620659 
1.999195325 2.0309285841 2.0626618433 2.0943951024 2.1261283615 2.1578616206 2.1895948798 2.2213281389 2.253061398 
2.2847946572 2.3165279163 2.3482611754 2.3799944345 2.4117276937 2.4434609528 2.4751942119 2.506927471 2.5386607302 
2.5703939893 2.6021272484 2.6338605076 2.6655937667 2.6973270258 2.7290602849 2.7607935441 2.7925268032 2.8242600623 
2.8559933214 2.8877265806 2.9194598397 2.9511930988 2.982926358 3.0146596171 3.0463928762 3.0781261353 3.1098593945 
3.1415926536 
_radius 1 100 double
9.2773815926e-16 0.013929452841 0.027819826881 0.041630872916 0.055324740966 0.068864939371 0.082213729398 0.095329011914 0.10816209529 
0.12065739696 0.13275428561 0.14439034189 0.15550476028 0.16604070219 0.17594610132 0.18517337264 0.19367917591 0.20142542981 
0.20838212877 0.21453155312 0.21987271186 0.22442466274 0.22822772575 0.23134228608 0.23384552593 0.2358267696 0.23738209239 
0.2386085558 0.23959812428 0.24043121495 0.24117002789 0.2418522325 0.24248603402 0.24304785048 0.24348360736 0.24371400615 
0.24364324617 0.24316990026 0.24219825423 0.24064852823 0.23846489674 0.23562085841 0.23212202179 0.22800663015 0.22334415585 
0.21823214974 0.21279135757 0.20715905096 0.20148071738 0.19590080757 0.19055402877 0.18555924529 0.18101775516 0.17701616357 
0.17363163381 0.17093510198 0.16898750578 0.16782633527 0.16744513411 0.16777508572 0.16868041814 0.16997332634 0.17144286136 
0.17288595052 0.1741314105 0.17505393435 0.17557902153 0.17568108647 0.17537708097 0.17471781695 0.17377877116 0.17265134727 
0.17143465939 0.17022740466 0.16911942838 0.16818278423 0.16746221037 0.16696526073 0.16665319165 0.1664347486 0.16616533279 
0.16565323679 0.16467316012 0.16298569202 0.16036024942 0.15659825762 0.15155325098 0.1451450384 0.13736601162 0.12827890219 
0.11800660663 0.10671588041 0.094597546768 0.081846235385 0.068642510233 0.055139620808 0.041456162214 0.027674871337 0.013846860708 
7.5097649894e-16 
_area 1 100 double
0 0.00049179541434 0.0019605443839 0.004387048293 0.0077408788887 0.011980657354 0.017052405501 0.022886875425 0.029398012534 
0.036484731843 0.044037203851 0.051946916592 0.060116883351 0.068465651348 0.076919421658 0.085393575 0.093774572993 0.10191534731 
0.10964879323 0.11681371435 0.12328292392 0.12898408338 0.13390796133 0.13810420059 0.14166901771 0.1447303475 0.14743379917 
0.14992983041 0.15236083443 0.15484632048 0.1574651778 0.16023743091 0.16311241446 0.16597076713 0.16864179194 0.17092938762 
0.1726341527 0.17356198934 0.17352700095 0.17237032516 0.1699942239 0.16638834609 0.16163707383 0.15591087344 0.14944603845 
0.14251574363 0.13539589078 0.12833127464 0.12150866073 0.11504175692 0.10897002105 0.10327199587 0.097893806312 0.092788548685 
0.087954352961 0.083458991609 0.07944546734 0.076112391871 0.073650799033 0.07214413552 0.07151305655 0.071535694476 0.071916961821 
0.07236195335 0.072621960959 0.072520833842 0.071970083461 0.070966045725 0.069558147606 0.067809588315 0.065801782908 0.063662778427 
0.061571841334 0.059741147532 0.058385961109 0.057686018534 0.05774302368 0.058562466273 0.06006018037 0.062063396099 0.064310600218 
0.066464992149 0.068144729841 0.068966538069 0.068596504448 0.06679961665 0.06347842775 0.058692585931 0.05265473462 0.045703229815 
0.038256826336 0.030759854228 0.023627769592 0.017202177168 0.011721924462 0.0073135553194 0.0040012725231 0.0017341262262 0.00042593220297 
1.491431975e-17 
