# vtk DataFile Version 5.1
vtk output
ASCII
DATASET POLYDATA
POINTS 100 float
0.134511 0.0477642 0.650218 0.134522 0.0479475 0.650094 0.134593 0.0483364 0.649575 
0.134681 0.0489072 0.648646 0.13472 0.0496242 0.647285 0.13463 0.0504432 0.645461 
0.134326 0.0513162 0.643134 0.133729 0.0521952 0.640259 0.132774 0.0530368 0.636783 
0.131417 0.0538043 0.632653 0.129641 0.0544699 0.627817 0.127451 0.0550143 0.622231 
0.124874 0.0554253 0.615863 0.121949 0.0556956 0.608701 0.118721 0.0558193 0.600752 
0.115231 0.0557888 0.592049 0.111506 0.0555928 0.582649 0.107556 0.0552144 0.572632 
0.103372 0.0546315 0.562095 0.0989231 0.0538185 0.551147 0.0941649 0.0527498 0.539898 
0.0890465 0.051404 0.528452 0.0835192 0.0497691 0.516898 0.0775474 0.0478471 0.505302 
0.071117 0.0456586 0.493702 0.0642416 0.0432445 0.482106 0.0569652 0.0406671 0.470492 
0.0493605 0.0380078 0.458812 0.0415233 0.0353631 0.447 0.0335623 0.0328384 0.434978 
0.025588 0.0305406 0.422665 0.0176991 0.0285695 0.409988 0.00997161 0.0270108 0.396885 
0.00244889 0.0259286 0.383309 -0.00486295 0.0253613 0.369235 -0.0119953 0.0253188 0.354651 
-0.0190119 0.0257836 0.339559 -0.0259985 0.0267134 0.323968 -0.0330493 0.0280465 0.307884 
-0.0402512 0.0297094 0.291307 -0.047667 0.0316239 0.274227 -0.0553221 0.0337154 0.256619 
-0.0631932 0.0359195 0.238443 -0.0712043 0.0381868 0.219649 -0.0792265 0.0404859 0.200187 
-0.0870863 0.0428036 0.180009 -0.0945777 0.0451429 0.159083 -0.10148 0.0475188 0.1374 
-0.107575 0.0499526 0.114982 -0.112671 0.0524662 0.091884 -0.116615 0.0550756 0.0681977 
-0.119309 0.0577856 0.0440449 -0.120719 0.0605869 0.0195707 -0.120874 0.0634536 -0.00506667 
-0.119861 0.0663438 -0.0297085 -0.117818 0.0692016 -0.0542081 -0.114913 0.071961 -0.0784419 
-0.111334 0.0745506 -0.102318 -0.107261 0.0768985 -0.125781 -0.102858 0.0789375 -0.148811 
-0.0982537 0.0806087 -0.171421 -0.0935353 0.0818649 -0.193647 -0.088744 0.0826719 -0.215536 
-0.0838777 0.0830086 -0.237137 -0.0788977 0.0828655 -0.258484 -0.0737402 0.0822432 -0.279592 
-0.0683295 0.0811499 -0.300444 -0.0625918 0.0795982 -0.320995 -0.0564689 0.0776041 -0.341172 
-0.0499281 0.0751849 -0.36088 -0.0429695 0.0723589 -0.380016 -0.0356291 0.0691462 -0.398476 
-0.0279777 0.0655691 -0.416173 -0.0201153 0.0616544 -0.433048 -0.0121644 0.0574341 -0.449071 
-0.00425968 0.0529475 -0.464254 0.00346138 0.0482411 -0.478641 0.0108683 0.0433688 -0.492307 
0.0178453 0.0383903 -0.505345 0.0242969 0.0333695 -0.517852 0.0301516 0.0283714 -0.529915 
0.0353624 0.0234591 -0.5416 0.0399056 0.0186905 -0.552939 0.0437788 0.0141159 -0.563922 
0.0469966 0.00977598 -0.574502 0.049588 0.00570036 -0.584594 0.0515924 0.001908 -0.594089 
0.0530571 -0.00159199 -0.602865 0.054036 -0.00479851 -0.610804 0.0545881 -0.00771607 -0.617809 
0.0547766 -0.0103523 -0.623814 0.0546691 -0.0127153 -0.628797 0.0543363 -0.014812 -0.632783 
0.0538507 -0.0166467 -0.635844 0.0532851 -0.0182203 -0.638087 0.0527092 -0.0195311 -0.639647 
0.052187 -0.020575 -0.640667 0.0517729 -0.0213473 -0.641282 0.0515089 -0.0218436 -0.641604 
0.0514211 -0.0220611 -0.641703 
LINES 2 100
OFFSETS vtktypeint64
0 100 
CONNECTIVITY vtktypeint64
0 1 2 3 4 5 6 7 8 
9 10 11 12 13 14 15 16 17 
18 19 20 21 22 23 24 25 26 
27 28 29 30 31 32 33 34 35 
36 37 38 39 40 41 42 43 44 
45 46 47 48 49 50 51 52 53 
54 55 56 57 58 59 60 61 62 
63 64 65 66 67 68 69 70 71 
72 73 74 75 76 77 78 79 80 
81 82 83 84 85 86 87 88 89 
90 91 92 93 94 95 96 97 98 
99 
POINT_DATA 100
FIELD FieldData 3
_theta 1 100 double
0 0.031733259127 0.063466518254 0.095199777382 0.12693303651 0.15866629564 0.19039955476 0.22213281389 0.25386607302 
0.28559933214 0.31733259127 0.3490658504 0.38079910953 0.41253236865 0.44426562778 0.47599888691 0.50773214603 0.53946540516 
0.57119866429 0.60293192342 0.63466518254 0.66639844167 0.6981317008 0.72986495992 0.76159821905 0.79333147818 0.82506473731 
0.85679799643 0.88853125556 0.92026451469 0.95199777382 0.98373103294 1.0154642921 1.0471975512 1.0789308103 1.1106640695 
1.1423973286 1.1741305877 1.2058638468 1.237597106 1.2693303651 1.3010636242 1.3327968833 1.3645301425 1.3962634016 
1.4279966607 1.4597299198 1.491463179 1.5231964381 1.5549296972 1.5866629564 1.6183962155 1.6501294746 1.6818627337 
1.7135959929 1.745329252 1.7770625111 1.8087957702 1.8405290294 1.8722622885 1.9039955476 1.9357288068 1.9674620659 
1.999195325 2.0309285841 2.0626618433 2.0943951024 2.1261283615 2.1578616206 2.1895948798 2.2213281389 2.253061398 
2.2847946572 2.3165279163 2.3482611754 2.3799944345 2.4117276937 2.4434609528 2.4751942119 2.506927471 2.5386607302 
2.5703939893 2.6021272484 2.6338605076 2.6655937667 2.6973270258 2.7290602849 2.7607935441 2.7925268032 2.8242600623 
2.8559933214 2.8877265806 2.9194598397 2.9511930988 2.982926358 3.0146596171 3.0463928762 3.0781261353 3.1098593945 
3.1415926536 
_radius 1 100 double
1.5840143723e-15 0.014503313543 0.028858058009 0.042920894936 0.056567495273 0.069699695559 0.082249664287 0.094180544936 0.10548347273 
0.11617138729 0.12627061721 0.13581166603 0.14482083171 0.15331415186 0.16129470765 0.16875364537 0.17567450328 0.18203968951 
0.18783745369 0.1930676853 0.19774542816 0.20190184619 0.20558304241 0.20884732077 0.21176124066 0.21439444537 0.21681308347 
0.21907188402 0.22120555531 0.22322087906 0.22509128271 0.22675552593 0.22812144717 0.22907473212 0.22949170942 0.22925449324 
0.22826648974 0.22646634717 0.22383875176 0.22042092165 0.21630412782 0.21163001422 0.20658188532 0.20137149568 0.19622225952 
0.19135023567 0.18694473892 0.18315094774 0.18005730514 0.17769050878 0.17601986569 0.17497039862 0.17444105612 0.17432248871 
0.1745095552 0.17490676616 0.17542843668 0.17599727773 0.17654454233 0.17701265985 0.17735946803 0.17756253349 0.17762206653 
0.17756105486 0.1774217057 0.17725832757 0.1771279583 0.177080686 0.17715150876 0.17735499373 0.17768324978 0.1781070078 
0.17857901399 0.17903856908 0.17941596574 0.17963583213 0.1796189425 0.17928274352 0.17854141392 0.1773064911 0.17548886454 
0.17300235183 0.16976840121 0.16572100068 0.16081079838 0.15500772215 0.14830184961 0.14070271106 0.13223747006 0.12294848691 
0.11289067652 0.10212891218 0.090735580811 0.078788308922 0.066367856158 0.053556198171 0.04043487503 0.02708374836 0.013580354017 
6.1988971409e-16 
_area 1 100 double
0 0.00056581430106 0.0022384127596 0.0049462002589 0.0085791592713 0.013001226846 0.018064803978 0.023625190725 0.02955265863 
0.035740063131 0.042104658276 0.048584221397 0.055129136779 0.061692935269 0.068224037772 0.074661602647 0.080937865937 0.086986985608 
0.092756560224 0.098215607258 0.10335487128 0.10818131436 0.11271346427 0.11698269149 0.12103809017 0.12494567007 0.12877226325 
0.13255490342 0.13627341215 0.1398472024 0.14315635936 0.14606823263 0.14845406818 0.15019265122 0.15116559267 0.15125014695 
0.15031938159 0.1482663638 0.1450441775 0.14070558779 0.13542559235 0.12949173474 0.12326347812 0.11711211499 0.11136038685 
0.1062409123 0.10188149438 0.098310843891 0.095475124718 0.093261515419 0.091526199461 0.090121921322 0.088920646061 0.087829057271 
0.086798799367 0.085833036471 0.08497190936 0.08422269694 0.083484154216 0.082598639729 0.081466340272 0.080092751485 0.078579013126 
0.07708490267 0.075775230869 0.074766630945 0.074101293945 0.073759467243 0.073743380486 0.073992639604 0.074398880206 0.074907586614 
0.07543035174 0.075963731363 0.076504540164 0.077037012766 0.077521228196 0.077885854713 0.078022749076 0.077790246825 0.077036154803 
0.075626904601 0.073467034846 0.070508842501 0.066755193966 0.062256903035 0.05710615581 0.051428250766 0.045373709546 0.039111415553 
0.032822030162 0.026690483125 0.020896857106 0.01560606868 0.010957927802 0.0070598888721 0.0039846031329 0.0017731939122 0.00044341053 
2.3205414886e-17 
