# vtk DataFile Version 5.1
vtk output
ASCII
DATASET POLYDATA
POINTS 100 float
0.156525 0.0340146 0.653404 0.156425 0.0341511 0.653337 0.156202 0.0344256 0.653014 
0.155848 0.0348373 0.652401 0.155353 0.035385 0.651442 0.154702 0.0360651 0.650062 
0.153876 0.0368702 0.648178 0.152852 0.0377868 0.6457 0.151604 0.0387943 0.64254 
0.150103 0.0398646 0.638616 0.148317 0.0409622 0.633861 0.146211 0.0420462 0.628226 
0.143749 0.0430725 0.621687 0.140895 0.043997 0.614244 0.137612 0.0447787 0.605925 
0.133869 0.045383 0.596784 0.129635 0.0457843 0.586899 0.124892 0.0459673 0.576365 
0.119626 0.045928 0.565289 0.113838 0.0456732 0.553783 0.107541 0.045219 0.541958 
0.100763 0.0445891 0.529913 0.0935429 0.0438124 0.51773 0.0859345 0.0429213 0.505465 
0.0780001 0.0419503 0.493151 0.0698083 0.0409348 0.480788 0.0614294 0.0399115 0.468348 
0.0529313 0.0389191 0.455775 0.0443746 0.0379989 0.442991 0.0358096 0.0371963 0.429901 
0.0272736 0.0365607 0.416399 0.0187903 0.0361454 0.402379 0.0103708 0.0360056 0.387738 
0.00201658 0.0361955 0.372387 -0.00627599 0.0367637 0.356254 -0.0145098 0.0377486 0.33929 
-0.022681 0.0391725 0.321471 -0.0307724 0.0410367 0.302796 -0.0387492 0.0433183 0.28329 
-0.0465549 0.0459681 0.262999 -0.0541108 0.0489118 0.241986 -0.0613173 0.0520535 0.220328 
-0.0680585 0.0552821 0.198113 -0.0742088 0.0584802 0.17543 -0.0796416 0.0615335 0.152372 
-0.0842388 0.0643421 0.129028 -0.0879007 0.0668291 0.105483 -0.0905545 0.0689488 0.0818156 
-0.0921612 0.0706905 0.0580986 -0.0927194 0.0720799 0.0343969 -0.0922658 0.073175 0.0107691 
-0.0908726 0.0740592 -0.0127328 -0.0886414 0.0748312 -0.0360628 -0.0856945 0.0755924 -0.0591809 
-0.0821645 0.0764341 -0.0820529 -0.0781834 0.0774258 -0.104651 -0.0738718 0.0786054 -0.126952 
-0.0693308 0.0799736 -0.148943 -0.064635 0.0814923 -0.170612 -0.0598305 0.0830875 -0.191956 
-0.0549353 0.0846567 -0.212976 -0.0499431 0.0860799 -0.233678 -0.0448309 0.0872317 -0.254065 
-0.0395675 0.0879949 -0.274146 -0.0341237 0.0882722 -0.293921 -0.0284817 0.0879955 -0.313389 
-0.0226433 0.0871312 -0.332543 -0.0166352 0.085681 -0.351367 -0.010512 0.0836779 -0.369838 
-0.00435484 0.0811794 -0.387926 0.00173315 0.0782562 -0.405595 0.00763391 0.074981 -0.422807 
0.0132241 0.071417 -0.43952 0.0183859 0.067609 -0.455697 0.0230174 0.0635775 -0.471308 
0.0270418 0.0593174 -0.486326 0.0304153 0.0548014 -0.500739 0.0331308 0.0499873 -0.514544 
0.0352191 0.0448296 -0.52775 0.0367465 0.0392915 -0.540379 0.0378093 0.0333579 -0.552458 
0.0385258 0.0270462 -0.564022 0.0390265 0.0204131 -0.57511 0.0394436 0.0135573 -0.585758 
0.039901 0.00661584 -0.595997 0.0405046 -0.000244212 -0.60585 0.041336 -0.00683925 -0.615327 
0.0424466 -0.0129854 -0.624427 0.0438556 -0.0185164 -0.633129 0.0455503 -0.0232998 -0.641402 
0.0474887 -0.0272508 -0.649198 0.0496036 -0.0303409 -0.656458 0.051809 -0.0326004 -0.663113 
0.0540067 -0.0341139 -0.669088 0.0560936 -0.0350107 -0.674308 0.0579685 -0.0354482 -0.6787 
0.0595388 -0.0355937 -0.682196 0.0607259 -0.0356037 -0.68474 0.0614702 -0.0356055 -0.686288 
0.0617337 -0.035681 -0.686814 
LINES 2 100
OFFSETS vtktypeint64
0 100 
CONNECTIVITY vtktypeint64
0 1 2 3 4 5 6 7 8 
9 10 11 12 13 14 15 16 17 
18 19 20 21 22 23 24 25 26 
27 28 29 30 31 32 33 34 35 
36 37 38 39 40 41 42 43 44 
45 46 47 48 49 50 51 52 53 
54 55 56 57 58 59 60 61 62 
63 64 65 66 67 68 69 70 71 
72 73 74 75 76 77 78 79 80 
81 82 83 84 85 86 87 88 89 
90 91 92 93 94 95 96 97 98 
99 
POINT_DATA 100
FIELD FieldData 3
_theta 1 100 double
0 0.031733259127 0.063466518254 0.095199777382 0.12693303651 0.15866629564 0.19039955476 0.22213281389 0.25386607302 
0.28559933214 0.31733259127 0.3490658504 0.38079910953 0.41253236865 0.44426562778 0.47599888691 0.50773214603 0.53946540516 
0.57119866429 0.60293192342 0.63466518254 0.66639844167 0.6981317008 0.72986495992 0.76159821905 0.79333147818 0.82506473731 
0.85679799643 0.88853125556 0.92026451469 0.95199777382 0.98373103294 1.0154642921 1.0471975512 1.0789308103 1.1106640695 
1.1423973286 1.1741305877 1.2058638468 1.237597106 1.2693303651 1.3010636242 1.3327968833 1.3645301425 1.3962634016 
1.4279966607 1.4597299198 1.491463179 1.5231964381 1.5549296972 1.5866629564 1.6183962155 1.6501294746 1.6818627337 
1.7135959929 1.745329252 1.7770625111 1.8087957702 1.8405290294 1.8722622885 1.9039955476 1.9357288068 1.9674620659 
1.999195325 2.0309285841 2.0626618433 2.0943951024 2.1261283615 2.1578616206 2.1895948798 2.2213281389 2.253061398 
2.2847946572 2.3165279163 2.3482611754 2.3799944345 2.4117276937 2.4434609528 2.4751942119 2.506927471 2.5386607302 
2.5703939893 2.6021272484 2.6338605076 2.6655937667 2.6973270258 2.7290602849 2.7607935441 2.7925268032 2.8242600623 
2.8559933214 2.8877265806 2.9194598397 2.9511930988 2.982926358 3.0146596171 3.0463928762 3.0781261353 3.1098593945 
3.1415926536 
_radius 1 100 double
3.2487068343e-16 0.014909177309 0.029709499343 0.044295805728 0.058570511288 0.072446093441 0.085846232462 0.09870558076 0.11096841935 
0.12258673108 0.13351844253 0.14372667925 0.1531807059 0.16185868009 0.16975154969 0.17686674726 0.18323018467 0.1888855639 
0.19389100104 0.19831397312 0.20222608777 0.20569882 0.20880043446 0.21159352822 0.21413248545 0.21646055749 0.21860684753 
0.22058383144 0.22238607707 0.22399062324 0.22535918586 0.22644206616 0.22718338812 0.22752712483 0.22742332306 0.22683401123 
0.2257384256 0.22413731151 0.22205606579 0.21954637904 0.21668591301 0.2135755499 0.21033397109 0.20708974465 0.20397162892 
0.2010983194 0.19856924281 0.19645802249 0.19480971223 0.19364188906 0.19294859943 0.19270543465 0.19287396641 0.1934044496 
0.19423685433 0.19530138865 0.19652009606 0.19781055538 0.19909148807 0.20028896208 0.2013415397 0.20220322504 0.20284394298 
0.2032479681 0.20341101809 0.20333674087 0.20303319802 0.20250974079 0.20177446613 0.20083232801 0.19968398825 0.19832552168 
0.19674899881 0.19494372961 0.19289771881 0.19059884349 0.18803541984 0.1851960101 0.18206841609 0.17863788392 0.17488474149 
0.17078199891 0.16629368658 0.16137468226 0.15597243284 0.15003043925 0.14349287734 0.13630947325 0.12843980566 0.11985650534 
0.11054721724 0.10051553166 0.089781274988 0.078380544657 0.066365704708 0.053805306803 0.040783671396 0.027399754795 0.013764990185 
1.0933950262e-15 
_area 1 100 double
0 0.00053342402819 0.0021153399036 0.0046929134111 0.0081850308864 0.012491151025 0.017501021847 0.023103192188 0.029190040739 
0.035657291855 0.04239773677 0.049292691812 0.056208400168 0.063003695266 0.069548774024 0.075747961852 0.081557067965 0.086988581478 
0.092103073453 0.096990332799 0.10174669047 0.10645448622 0.11116708154 0.11590051621 0.12063178009 0.12530350213 0.12983476386 
0.13413613992 0.13812384725 0.1417258049 0.14487531468 0.14749877017 0.14951208663 0.15083069242 0.15138482668 0.15113248712 
0.15006730321 0.14822064671 0.14565809764 0.14247156572 0.13876978947 0.13467032689 0.13029424341 0.12576158603 0.12118556687 
0.11667118195 0.11233567169 0.1082988314 0.10479905266 0.10156842571 0.098516410728 0.095665203477 0.093087108908 0.090961912037 
0.089301514272 0.088071315693 0.087206766445 0.086612415318 0.08625480592 0.085892207848 0.085450503868 0.084904712159 0.084278197824 
0.083622888837 0.08296476366 0.082318236033 0.081712950038 0.081196094969 0.081114346796 0.081208463941 0.081433433211 0.081790722983 
0.082265330232 0.082790056953 0.083258178946 0.08356175668 0.083614380638 0.083355689172 0.082745304023 0.081752256427 0.080345413175 
0.078488463595 0.076139650363 0.073254844996 0.069793429371 0.065727187007 0.061051499124 0.055796473267 0.050034765866 0.043883495409 
0.03749939097 0.031068275611 0.024791367086 0.018871306493 0.01350028251 0.0088513899685 0.0050729926743 0.0022849865906 0.00057584579464 
1.8702355997e-17 
