# vtk DataFile Version 5.1
vtk output
ASCII
DATASET POLYDATA
POINTS 100 float
0.0891743 0.0435512 0.621201 0.0892533 0.0436728 0.621074 0.0895221 0.0439154 0.620523 
0.0899295 0.0442524 0.619531 0.0903965 0.0446433 0.618073 0.0908249 0.045039 0.616116 
0.0911087 0.045389 0.61362 0.0911449 0.045648 0.610543 0.0908448 0.0457815 0.606839 
0.0901419 0.0457704 0.602467 0.0889976 0.0456123 0.597388 0.0874032 0.0453207 0.591575 
0.0853776 0.0449218 0.585012 0.0829624 0.0444495 0.577702 0.0802137 0.0439384 0.569664 
0.0771935 0.0434179 0.560935 0.0739603 0.0429068 0.551574 0.0705611 0.0424095 0.541653 
0.0670257 0.041915 0.531256 0.0633638 0.0413982 0.520476 0.0595657 0.0408246 0.509403 
0.0556053 0.0401561 0.498124 0.0514465 0.039358 0.486714 0.04705 0.0384069 0.475232 
0.0423816 0.0372963 0.463716 0.0374187 0.0360411 0.452186 0.0321553 0.0346789 0.44064 
0.0266047 0.0332683 0.429059 0.0207985 0.031884 0.417412 0.0147837 0.03061 0.405657 
0.0086161 0.0295309 0.393751 0.00235391 0.0287228 0.381653 -0.00395068 0.0282451 0.369326 
-0.0102581 0.0281347 0.356739 -0.0165465 0.0284026 0.343873 -0.022814 0.0290337 0.330709 
-0.0290779 0.0299903 0.317236 -0.0353704 0.0312184 0.303441 -0.0417316 0.0326556 0.289308 
-0.048201 0.0342403 0.274811 -0.0548074 0.0359202 0.259918 -0.0615597 0.0376587 0.244586 
-0.0684396 0.0394395 0.228768 -0.075397 0.0412672 0.212412 -0.0823485 0.0431643 0.195468 
-0.0891809 0.045166 0.177899 -0.0957572 0.0473121 0.15968 -0.101927 0.0496374 0.140813 
-0.107536 0.0521634 0.121323 -0.112444 0.0548911 0.101264 -0.116529 0.0577958 0.0807178 
-0.119703 0.0608264 0.0597879 -0.121918 0.063908 0.0385942 -0.123166 0.0669475 0.0172635 
-0.123482 0.0698432 -0.00408009 -0.122936 0.0724943 -0.0253248 -0.121624 0.0748122 -0.0463796 
-0.119663 0.0767295 -0.0671801 -0.117172 0.078207 -0.0876915 -0.114267 0.0792367 -0.107908 
-0.111045 0.0798418 -0.127848 -0.107584 0.0800713 -0.147548 -0.103933 0.079993 -0.167052 
-0.100113 0.0796826 -0.186404 -0.0961223 0.0792131 -0.205634 -0.0919378 0.0786445 -0.224753 
-0.0875264 0.0780151 -0.243748 -0.0828514 0.0773366 -0.262576 -0.0778821 0.076593 -0.281171 
-0.0726007 0.0757432 -0.299442 -0.0670081 0.074728 -0.317289 -0.0611275 0.0734792 -0.334608 
-0.0550046 0.0719306 -0.351299 -0.0487062 0.0700289 -0.367282 -0.042316 0.0677429 -0.3825 
-0.0359293 0.0650702 -0.396924 -0.0296467 0.0620401 -0.410555 -0.0235671 0.0587118 -0.423421 
-0.0177828 0.0551699 -0.43557 -0.0123735 0.0515153 -0.447066 -0.00740363 0.0478547 -0.457974 
-0.00291993 0.0442898 -0.468351 0.00104896 0.0409065 -0.478244 0.00449179 0.0377668 -0.487675 
0.00741305 0.0349045 -0.496645 0.00983073 0.0323238 -0.505133 0.0117739 0.0300023 -0.513097 
0.0132801 0.027898 -0.520485 0.0143935 0.0259577 -0.52724 0.0151625 0.0241275 -0.533313 
0.0156384 0.022362 -0.538665 0.0158742 0.0206329 -0.54328 0.0159228 0.0189339 -0.547164 
0.0158362 0.0172828 -0.550346 0.0156642 0.0157188 -0.552875 0.0154525 0.0142977 -0.554816 
0.0152414 0.0130839 -0.556236 0.0150644 0.0121409 -0.557204 0.0149466 0.0115222 -0.557772 
0.0149036 0.0112635 -0.557976 
LINES 2 100
OFFSETS vtktypeint64
0 100 
CONNECTIVITY vtktypeint64
0 1 2 3 4 5 6 7 8 
9 10 11 12 13 14 15 16 17 
18 19 20 21 22 23 24 25 26 
27 28 29 30 31 32 33 34 35 
36 37 38 39 40 41 42 43 44 
45 46 47 48 49 50 51 52 53 
54 55 56 57 58 59 60 61 62 
63 64 65 66 67 68 69 70 71 
72 73 74 75 76 77 78 79 80 
81 82 83 84 85 86 87 88 89 
90 91 92 93 94 95 96 97 98 
99 
POINT_DATA 100
FIELD FieldData 3
_theta 1 100 double
0 0.031733259127 0.063466518254 0.095199777382 0.12693303651 0.15866629564 0.19039955476 0.22213281389 0.25386607302 
0.28559933214 0.31733259127 0.3490658504 0.38079910953 0.41253236865 0.44426562778 0.47599888691 0.50773214603 0.53946540516 
0.57119866429 0.60293192342 0.63466518254 0.66639844167 0.6981317008 0.72986495992 0.76159821905 0.79333147818 0.82506473731 
0.85679799643 0.88853125556 0.92026451469 0.95199777382 0.98373103294 1.0154642921 1.0471975512 1.0789308103 1.1106640695 
1.1423973286 1.1741305877 1.2058638468 1.237597106 1.2693303651 1.3010636242 1.3327968833 1.3645301425 1.3962634016 
1.4279966607 1.4597299198 1.491463179 1.5231964381 1.5549296972 1.5866629564 1.6183962155 1.6501294746 1.6818627337 
1.7135959929 1.745329252 1.7770625111 1.8087957702 1.8405290294 1.8722622885 1.9039955476 1.9357288068 1.9674620659 
1.999195325 2.0309285841 2.0626618433 2.0943951024 2.1261283615 2.1578616206 2.1895948798 2.2213281389 2.253061398 
2.2847946572 2.3165279163 2.3482611754 2.3799944345 2.4117276937 2.4434609528 2.4751942119 2.506927471 2.5386607302 
2.5703939893 2.6021272484 2.6338605076 2.6655937667 2.6973270258 2.7290602849 2.7607935441 2.7925268032 2.8242600623 
2.8559933214 2.8877265806 2.9194598397 2.9511930988 2.982926358 3.0146596171 3.0463928762 3.0781261353 3.1098593945 
3.1415926536 
_radius 1 100 double
9.9980287526e-16 0.012042352765 0.024021213426 0.035870621315 0.047531582667 0.058952146206 0.070084992725 0.080883999915 0.091301610168 
0.10128836053 0.11079497895 0.11977650816 0.1281973391 0.1360359024 0.14328795871 0.14996777707 0.1561068924 0.161750556 
0.1669524095 0.17176824861 0.17624989823 0.18044012878 0.18436923813 0.18805353698 0.19149566863 0.1946865349 0.19760851934 
0.20023957216 0.20255751625 0.20454376726 0.20618569328 0.20747712414 0.2084169712 0.20900638379 0.20924521517 0.20912872431 
0.20864538594 0.20777646095 0.20649766886 0.20478298998 0.20261035265 0.19996871286 0.19686574907 0.19333505282 0.18944138532 
0.18528248726 0.1809862671 0.17670300868 0.17259336751 0.16881401389 0.16550341501 0.1627701322 0.16068514146 0.15927841922 
0.15853895089 0.15841690849 0.15882714059 0.15965402509 0.16075854283 0.16198850222 0.16319197785 0.16423266759 0.16500479655 
0.1654449164 0.1655384531 0.16531980805 0.16486587418 0.16428379258 0.16369457444 0.163214819 0.1629391153 0.16292569035 
0.16318729071 0.16368817115 0.16434679316 0.16504296918 0.16562798052 0.16593640846 0.16579865437 0.16505321909 0.16355785362 
0.16119880595 0.1578975784 0.15361479911 0.14835094596 0.14214377103 0.1350624472 0.12719877744 0.1186562946 0.10953866075 
0.099939254823 0.089933927596 0.079578372628 0.068910457772 0.057956574963 0.046740094294 0.035289635089 0.02364509003 0.011860019471 
7.4195168796e-16 
_area 1 100 double
0 0.00040982663177 0.0016288822293 0.0036263376241 0.0063520062234 0.009737494692 0.01369746187 0.018131866564 0.022930460246 
0.027979945872 0.033172392633 0.038412093043 0.043618753277 0.048727485058 0.053687834274 0.058463358778 0.063031732544 0.067384952748 
0.07152950597 0.075486132098 0.079288313014 0.082978878375 0.086605130032 0.090213184832 0.093841405801 0.097512638914 0.10122585663 
0.10494753171 0.10860475326 0.11208856543 0.11527296925 0.11804034997 0.1203004038 0.12199790545 0.12311082978 0.12364198309 
0.12360725984 0.12302326122 0.12189697765 0.12022076056 0.11797568403 0.11514392947 0.11172656896 0.10776018254 0.1033262978 
0.098550838036 0.093594487461 0.088637613533 0.083864340791 0.079449227222 0.07554679429 0.072279837403 0.06972277776 0.067889806237 
0.06674246396 0.066204555934 0.066167599569 0.066493014962 0.067019724654 0.067577567236 0.06800481019 0.068167505805 0.067977314869 
0.067404474463 0.066484202319 0.065316787092 0.064060359562 0.062903516834 0.06200290469 0.061450073909 0.06131974282 0.061628287669 
0.062322909501 0.063331481475 0.064564342129 0.065911669814 0.067241291486 0.068399716834 0.069217609399 0.069521197328 0.069148646346 
0.067968615129 0.065897891482 0.06291496056 0.05906666614 0.054466067362 0.049280973942 0.043714408298 0.037980274748 0.032279268204 
0.026780645421 0.021614078275 0.01687231384 0.01262125006 0.0089118749761 0.0057894814968 0.0032980998892 0.0014801286924 0.00037230622976 
8.9338541366e-18 
