# vtk DataFile Version 5.1
vtk output
ASCII
DATASET POLYDATA
POINTS 100 float
0.190431 0.0448192 0.705691 0.190501 0.044962 0.705538 0.190773 0.0452426 0.704951 
0.191169 0.0456585 0.703946 0.191569 0.0462059 0.702544 0.191826 0.0468785 0.700766 
0.191789 0.0476665 0.698621 0.191317 0.0485555 0.6961 0.190299 0.0495257 0.69317 
0.188667 0.0505513 0.689772 0.186398 0.0516002 0.68582 0.183519 0.0526348 0.681212 
0.180096 0.0536128 0.675834 0.17622 0.0544885 0.66958 0.171993 0.0552156 0.662358 
0.167505 0.0557484 0.654109 0.162826 0.0560452 0.644816 0.157983 0.0560701 0.63451 
0.152963 0.0557958 0.623271 0.147709 0.0552046 0.611225 0.142128 0.0542907 0.59853 
0.136104 0.0530605 0.585366 0.12952 0.0515334 0.571913 0.122273 0.049741 0.558337 
0.114294 0.0477268 0.544767 0.105563 0.0455449 0.531288 0.0961175 0.0432583 0.517927 
0.0860512 0.0409366 0.504656 0.0755096 0.0386543 0.491391 0.0646753 0.0364874 0.478007 
0.0537483 0.0345114 0.464348 0.0429248 0.0327977 0.450249 0.0323745 0.0314109 0.435551 
0.0222228 0.0304063 0.420116 0.0125373 0.0298264 0.403845 0.00332284 0.0296997 0.38668 
-0.00547526 0.0300382 0.368608 -0.0139595 0.0308371 0.349658 -0.0222616 0.0320747 0.329893 
-0.0305198 0.0337129 0.309396 -0.038854 0.0357002 0.288258 -0.0473426 0.0379737 0.266565 
-0.0560048 0.0404634 0.244383 -0.0647893 0.0430962 0.221759 -0.073572 0.0458007 0.19871 
-0.0821633 0.0485113 0.17523 -0.0903238 0.0511717 0.151295 -0.0977865 0.0537386 0.126873 
-0.104284 0.0561824 0.101936 -0.109573 0.0584884 0.0764701 -0.113464 0.0606546 0.0504864 
-0.115837 0.0626903 0.0240276 -0.116654 0.0646115 -0.00283004 -0.11596 0.0664371 -0.0299786 
-0.11388 0.0681837 -0.0572845 -0.110602 0.0698615 -0.0845984 -0.106355 0.0714699 -0.111766 
-0.101383 0.0729951 -0.13864 -0.0959243 0.0744087 -0.16509 -0.0901816 0.0756678 -0.191014 
-0.0843092 0.0767169 -0.216335 -0.0783997 0.0774914 -0.241013 -0.0724819 0.0779216 -0.265029 
-0.0665257 0.0779385 -0.288392 -0.0604548 0.0774784 -0.311119 -0.0541643 0.0764885 -0.333237 
-0.0475407 0.0749309 -0.354765 -0.040483 0.0727854 -0.375719 -0.0329205 0.0700514 -0.3961 
-0.0248268 0.0667476 -0.415902 -0.0162271 0.0629107 -0.435109 -0.00719996 0.0585927 -0.453703 
0.00212845 0.0538574 -0.47167 0.0115947 0.0487761 -0.489006 0.0210125 0.0434236 -0.505722 
0.0301894 0.0378743 -0.521841 0.0389422 0.0321994 -0.537405 0.0471117 0.0264641 -0.552462 
0.0545733 0.020727 -0.567061 0.061243 0.0150394 -0.581244 0.0670794 0.00944569 -0.595037 
0.0720809 0.00398484 -0.608436 0.0762802 -0.0013088 -0.621406 0.0797356 -0.00640406 -0.633879 
0.082522 -0.011272 -0.645754 0.0847223 -0.0158855 -0.656908 0.0864197 -0.0202192 -0.667203 
0.0876922 -0.02425 -0.676506 0.0886098 -0.0279581 -0.684702 0.0892332 -0.0313276 -0.69171 
0.089615 -0.0343483 -0.697494 0.0898014 -0.0370158 -0.702072 0.0898342 -0.0393318 -0.705517 
0.089753 -0.0413042 -0.707955 0.0895963 -0.0429456 -0.709549 0.0894013 -0.044272 -0.710488 
0.0892027 -0.0453009 -0.710964 0.0890315 -0.046049 -0.711155 0.0889119 -0.0465302 -0.711204 
0.0888599 -0.0467536 -0.711204 
LINES 2 100
OFFSETS vtktypeint64
0 100 
CONNECTIVITY vtktypeint64
0 1 2 3 4 5 6 7 8 
9 10 11 12 13 14 15 16 17 
18 19 20 21 22 23 24 25 26 
27 28 29 30 31 32 33 34 35 
36 37 38 39 40 41 42 43 44 
45 46 47 48 49 50 51 52 53 
54 55 56 57 58 59 60 61 62 
63 64 65 66 67 68 69 70 71 
72 73 74 75 76 77 78 79 80 
81 82 83 84 85 86 87 88 89 
90 91 92 93 94 95 96 97 98 
99 
POINT_DATA 100
FIELD FieldData 3
_theta 1 100 double
0 0.031733259127 0.063466518254 0.095199777382 0.12693303651 0.15866629564 0.19039955476 0.22213281389 0.25386607302 
0.28559933214 0.31733259127 0.3490658504 0.38079910953 0.41253236865 0.44426562778 0.47599888691 0.50773214603 0.53946540516 
0.57119866429 0.60293192342 0.63466518254 0.66639844167 0.6981317008 0.72986495992 0.76159821905 0.79333147818 0.82506473731 
0.85679799643 0.88853125556 0.92026451469 0.95199777382 0.98373103294 1.0154642921 1.0471975512 1.0789308103 1.1106640695 
1.1423973286 1.1741305877 1.2058638468 1.237597106 1.2693303651 1.3010636242 1.3327968833 1.3645301425 1.3962634016 
1.4279966607 1.4597299198 1.491463179 1.5231964381 1.5549296972 1.5866629564 1.6183962155 1.6501294746 1.6818627337 
1.7135959929 1.745329252 1.7770625111 1.8087957702 1.8405290294 1.8722622885 1.9039955476 1.9357288068 1.9674620659 
1.999195325 2.0309285841 2.0626618433 2.0943951024 2.1261283615 2.1578616206 2.1895948798 2.2213281389 2.253061398 
2.2847946572 2.3165279163 2.3482611754 2.3799944345 2.4117276937 2.4434609528 2.4751942119 2.506927471 2.5386607302 
2.5703939893 2.6021272484 2.6338605076 2.6655937667 2.6973270258 2.7290602849 2.7607935441 2.7925268032 2.8242600623 
2.8559933214 2.8877265806 2.9194598397 2.9511930988 2.982926358 3.0146596171 3.0463928762 3.0781261353 3.1098593945 
3.1415926536 
_radius 1 100 double
3.6321646602e-16 0.016596679829 0.033085521383 0.049357965342 0.065312553346 0.080857417729 0.095911446252 0.1104041272 0.1242742786 
0.13746799817 0.14993628211 0.16163287821 0.17251301965 0.18253363357 0.19165536689 0.1998463487 0.2070871392 0.21337595209 
0.2187330983 0.22320372292 0.22685825142 0.22979040663 0.23211304931 0.23395231238 0.23544050924 0.23670816032 0.23787531794 
0.23904233663 0.24028047655 0.24162327197 0.24306025357 0.24453498223 0.24594902571 0.2471723646 0.24805908702 0.24846578244 
0.24826936788 0.24738137302 0.24575674808 0.24339661466 0.24034566402 0.23668585311 0.23252847036 0.22800640562 0.22326755721 
0.21846903349 0.21377078637 0.20932724384 0.20527666647 0.20172985188 0.19876131736 0.1964060674 0.19466322395 0.19350509388 
0.19288819896 0.19276243533 0.19307585498 0.19377478413 0.19480109039 0.19608948438 0.19756726211 0.19915709562 0.20078150771 
0.20236686841 0.20384556994 0.2051567104 0.2062468293 0.20707210554 0.20760218595 0.20782450574 0.20774734648 0.20739995622 
0.2068285757 0.20608805766 0.20522987014 0.20428844191 0.20326866205 0.20213745048 0.20082143505 0.1992111464 0.1971704856 
0.19454925694 0.19119652009 0.18697308999 0.18176220613 0.17547787378 0.16807058628 0.15953018588 0.14988567863 0.13920199288 
0.12757396916 0.11511821056 0.1019637019 0.088242248924 0.074079782542 0.059589448445 0.04486719398 0.029990283724 0.015018825985 
1.3205273662e-15 
_area 1 100 double
0 0.00062705681647 0.0024937226417 0.0055584980061 0.0097580451203 0.01501326046 0.02123371614 0.028318733819 0.036154929865 
0.044611752783 0.053537653343 0.062759610686 0.072087692044 0.081324566386 0.090278215684 0.098775230738 0.10667232125 0.11386474148 
0.12029161001 0.12593888798 0.13084053317 0.13507696903 0.13876838835 0.142060668 0.14510556806 0.1480420864 0.15098559626 
0.15402392353 0.15721358246 0.16057171292 0.1640653465 0.16760299428 0.1710331566 0.17415184214 0.17671905287 0.17848361887 
0.17921440918 0.178733028 0.17694183184 0.17384268504 0.16954381381 0.16425271848 0.15825353543 0.15186984822 0.1454193455 
0.139171603 0.13331958755 0.12796931451 0.12314647926 0.11881694052 0.1149164376 0.11138193781 0.10817561868 0.10529516923 
0.10277019415 0.10065148224 0.09900154021 0.097885313505 0.097343219391 0.097336257072 0.097723296932 0.098317423451 0.098950578247 
0.099500604156 0.099888939521 0.10005509807 0.099933360488 0.09947597522 0.098690014948 0.09764584091 0.096466753826 0.095313404137 
0.09436718426 0.093793427473 0.093655676347 0.093902117173 0.094428009615 0.09509005221 0.095702761479 0.096046014931 0.095883118079 
0.09498418262 0.093150491579 0.090236795665 0.086169191829 0.08095635468 0.074692091379 0.067548143418 0.059757937079 0.051594009465 
0.043343241384 0.035284163162 0.027669442638 0.020714872059 0.014594623496 0.0094416883762 0.0053520574457 0.0023909735398 0.00059950792628 
6.4982536159e-17 
