# vtk DataFile Version 5.1
vtk output
ASCII
DATASET POLYDATA
POINTS 100 float
0.0846901 0.0603606 0.682222 0.0847455 0.0603549 0.682094 0.0849713 0.06019 0.681526 
0.0853438 0.0598884 0.680485 0.0858252 0.0594848 0.678915 0.0863679 0.0590216 0.676748 
0.0869184 0.0585441 0.67391 0.0874214 0.0580946 0.670324 0.0878242 0.057707 0.665922 
0.0880797 0.0574023 0.660646 0.0881478 0.0571849 0.654458 0.0879964 0.0570414 0.64734 
0.0876005 0.0569405 0.6393 0.0869399 0.0568355 0.63037 0.0859965 0.0566684 0.620606 
0.084752 0.0563754 0.610081 0.0831854 0.0558933 0.598887 0.0812711 0.0551661 0.587121 
0.0789792 0.0541518 0.574888 0.0762762 0.0528278 0.562288 0.073128 0.0511942 0.549411 
0.0695031 0.0492762 0.536338 0.0653765 0.0471236 0.523129 0.0607344 0.044808 0.509828 
0.0555774 0.0424188 0.496456 0.0499228 0.040056 0.483014 0.0438056 0.037824 0.469487 
0.0372771 0.0358231 0.455842 0.0304024 0.0341425 0.442032 0.0232559 0.0328539 0.428002 
0.0159158 0.0320068 0.41369 0.00845908 0.0316253 0.399033 0.000955338 0.0317082 0.383968 
-0.00653669 0.0322302 0.368434 -0.0139719 0.0331453 0.35238 -0.021319 0.0343928 0.335758 
-0.0285589 0.035903 0.318534 -0.0356809 0.0376037 0.300682 -0.0426771 0.0394273 0.282187 
-0.0495365 0.0413156 0.263047 -0.0562388 0.0432243 0.24327 -0.0627489 0.0451252 0.222878 
-0.0690137 0.0470067 0.201902 -0.0749604 0.0488729 0.180384 -0.0804983 0.0507402 0.158375 
-0.0855224 0.0526338 0.135934 -0.0899202 0.054583 0.113125 -0.09358 0.0566159 0.0900162 
-0.0963995 0.0587558 0.0666754 -0.0982953 0.0610167 0.0431701 -0.0992103 0.0634018 0.0195633 
-0.09912 0.0659013 -0.00408746 -0.098035 0.0684929 -0.0277321 -0.096001 0.0711429 -0.0513285 
-0.0930954 0.0738079 -0.0748422 -0.0894206 0.0764376 -0.0982457 -0.0850955 0.0789768 -0.121517 
-0.0802454 0.0813686 -0.144636 -0.0749913 0.0835557 -0.167583 -0.0694404 0.0854824 -0.190338 
-0.0636784 0.0870951 -0.212871 -0.0577636 0.088343 -0.23515 -0.0517256 0.0891786 -0.257133 
-0.0455657 0.0895571 -0.278769 -0.039262 0.0894376 -0.300002 -0.0327758 0.0887833 -0.320772 
-0.0260606 0.0875632 -0.341017 -0.0190718 0.0857537 -0.360681 -0.0117762 0.0833413 -0.379712 
-0.00415985 0.0803248 -0.398071 0.00376522 0.0767179 -0.415733 0.0119578 0.0725509 -0.43269 
0.0203469 0.0678719 -0.44895 0.0288342 0.0627469 -0.464535 0.0372991 0.0572576 -0.479482 
0.0456063 0.0514993 -0.493835 0.0536142 0.0455759 -0.507643 0.0611843 0.0395951 -0.520949 
0.0681904 0.0336621 -0.533789 0.0745261 0.0278739 -0.546186 0.0801109 0.0223139 -0.558146 
0.0848949 0.0170473 -0.569655 0.0888594 0.0121184 -0.580679 0.0920171 0.00755 -0.591168 
0.0944088 0.00334382 -0.601062 0.0960989 -0.000516008 -0.61029 0.0971702 -0.0040587 -0.618785 
0.0977169 -0.0073212 -0.626487 0.0978391 -0.0103422 -0.63335 0.0976363 -0.0131562 -0.639347 
0.0972029 -0.0157887 -0.644479 0.0966242 -0.0182529 -0.648769 0.0959741 -0.0205473 -0.652265 
0.0953134 -0.0226565 -0.655037 0.0946905 -0.0245532 -0.65717 0.0941417 -0.0262015 -0.658755 
0.0936929 -0.0275619 -0.659883 0.0933616 -0.0285962 -0.660637 0.0931585 -0.0292728 -0.66108 
0.0930891 -0.0295703 -0.661252 
LINES 2 100
OFFSETS vtktypeint64
0 100 
CONNECTIVITY vtktypeint64
0 1 2 3 4 5 6 7 8 
9 10 11 12 13 14 15 16 17 
18 19 20 21 22 23 24 25 26 
27 28 29 30 31 32 33 34 35 
36 37 38 39 40 41 42 43 44 
45 46 47 48 49 50 51 52 53 
54 55 56 57 58 59 60 61 62 
63 64 65 66 67 68 69 70 71 
72 73 74 75 76 77 78 79 80 
81 82 83 84 85 86 87 88 89 
90 91 92 93 94 95 96 97 98 
99 
POINT_DATA 100
FIELD FieldData 3
_theta 1 100 double
0 0.031733259127 0.063466518254 0.095199777382 0.12693303651 0.15866629564 0.19039955476 0.22213281389 0.25386607302 
0.28559933214 0.31733259127 0.3490658504 0.38079910953 0.41253236865 0.44426562778 0.47599888691 0.50773214603 0.53946540516 
0.57119866429 0.60293192342 0.63466518254 0.66639844167 0.6981317008 0.72986495992 0.76159821905 0.79333147818 0.82506473731 
0.85679799643 0.88853125556 0.92026451469 0.95199777382 0.98373103294 1.0154642921 1.0471975512 1.0789308103 1.1106640695 
1.1423973286 1.1741305877 1.2058638468 1.237597106 1.2693303651 1.3010636242 1.3327968833 1.3645301425 1.3962634016 
1.4279966607 1.4597299198 1.491463179 1.5231964381 1.5549296972 1.5866629564 1.6183962155 1.6501294746 1.6818627337 
1.7135959929 1.745329252 1.7770625111 1.8087957702 1.8405290294 1.8722622885 1.9039955476 1.9357288068 1.9674620659 
1.999195325 2.0309285841 2.0626618433 2.0943951024 2.1261283615 2.1578616206 2.1895948798 2.2213281389 2.253061398 
2.2847946572 2.3165279163 2.3482611754 2.3799944345 2.4117276937 2.4434609528 2.4751942119 2.506927471 2.5386607302 
2.5703939893 2.6021272484 2.6338605076 2.6655937667 2.6973270258 2.7290602849 2.7607935441 2.7925268032 2.8242600623 
2.8559933214 2.8877265806 2.9194598397 2.9511930988 2.982926358 3.0146596171 3.0463928762 3.0781261353 3.1098593945 
3.1415926536 
_radius 1 100 double
8.9185708891e-16 0.014457263719 0.028779487412 0.042834973342 0.056508953233 0.069709228709 0.082368739989 0.09444499714 0.10591688131 
0.11677977256 0.12704019011 0.13671108218 0.14580857937 0.15435051186 0.16235644995 0.16984864378 0.17685312419 0.18340037054 
0.18952523367 0.19526607273 0.20066320035 0.20575669134 0.21058347128 0.21517355266 0.21954552976 0.22370199169 0.22762606051 
0.23128034256 0.23460900832 0.23754281551 0.24000619168 0.24192523773 0.24323558308 0.24388921108 0.24385960149 0.24314481518 
0.2417684718 0.23977887585 0.23724673445 0.23426191624 0.2309295379 0.22736542187 0.22369078378 0.22002600935 0.21648364045 
0.21316117431 0.21013481958 0.207455662 0.20514947811 0.2032205864 0.20165886471 0.20044789691 0.19957169366 0.19901786739 
0.19877643939 0.19883513716 0.19917339666 0.19975768887 0.20054006817 0.2014604189 0.2024515123 0.20344525709 0.20437854359 
0.20519759555 0.20586041441 0.20633747891 0.20661121677 0.20667485514 0.20653110356 0.20619080082 0.20567128362 0.20499396509 
0.20418060106 0.20324805735 0.20220199578 0.20103051285 0.19969908036 0.1981479945 0.19629303037 0.19402937382 0.1912383906 
0.18779647801 0.18358508507 0.17850090364 0.17246519104 0.16543121788 0.15738899462 0.1483667229 0.13842878062 0.12767040854 
0.11620960119 0.10417704522 0.09170527798 0.078918443018 0.065923953335 0.052807005011 0.03962834148 0.026425159193 0.013214710268 
5.6692558498e-16 
_area 1 100 double
0 0.00058860961967 0.0023229599176 0.0051129906193 0.0088223451902 0.013286301908 0.018332287181 0.023799695639 0.029555679721 
0.035503374458 0.041579672547 0.047743300092 0.053959738626 0.060191268074 0.066395192569 0.072527395161 0.078547163071 0.084421373763 
0.090128488474 0.095663829518 0.10104692022 0.10632929933 0.11159745426 0.11696112812 0.12251785732 0.12830241346 0.1342543687 
0.14022644543 0.14602023027 0.1514243492 0.15624151795 0.16030217221 0.16346898257 0.16563828417 0.16674151783 0.16674651344 
0.1656578132 0.163516377 0.16040027979 0.15642765403 0.15176029784 0.14660300849 0.14119307072 0.1357775223 0.13058127655 
0.12577449298 0.12144976554 0.11761492402 0.11419889135 0.11107602879 0.10811958996 0.10525589577 0.10248487248 0.099868710407 
0.097513077977 0.095547480785 0.094090615713 0.093204007744 0.092858394652 0.092937645344 0.093278569124 0.093720041381 0.094137180839 
0.094453754699 0.094645604733 0.094753492213 0.094872418014 0.095039548744 0.095113297513 0.095047583712 0.094838875072 0.094497780022 
0.094073277533 0.093636266908 0.093253872155 0.092964057027 0.092753163663 0.092544940726 0.092205297192 0.09155961016 0.09041665063 
0.088593695578 0.085939786559 0.082355982807 0.077811181545 0.072350990047 0.066096986843 0.05923504546 0.051993816891 0.044617245991 
0.037337378734 0.030354753852 0.023831847423 0.017899276142 0.012667486292 0.0082349093652 0.0046889125409 0.0021021049693 0.00052825082928 
1.8220260074e-17 
