# vtk DataFile Version 5.1
vtk output
ASCII
DATASET POLYDATA
POINTS 100 float
0.16029 0.0579698 0.733049 0.160282 0.0582384 0.732835 0.160293 0.058869 0.732063 
0.160297 0.0598044 0.730723 0.16026 0.060958 0.728795 0.160134 0.0622248 0.726259 
0.159868 0.0634946 0.72309 0.159411 0.064665 0.719262 0.158715 0.0656531 0.714751 
0.157742 0.0664039 0.70954 0.156461 0.066894 0.703616 0.154856 0.0671308 0.696979 
0.15292 0.0671464 0.689638 0.150656 0.066989 0.681615 0.148074 0.066711 0.672947 
0.145188 0.0663571 0.663679 0.142011 0.0659548 0.653865 0.138551 0.0655073 0.643566 
0.134811 0.0649908 0.632841 0.130789 0.0643578 0.621745 0.126473 0.063544 0.610325 
0.121845 0.0624791 0.598615 0.116888 0.0611003 0.586633 0.11158 0.0593657 0.574382 
0.105906 0.0572647 0.56185 0.0998582 0.0548268 0.549014 0.0934373 0.0521228 0.535842 
0.0866568 0.0492621 0.522302 0.0795425 0.0463837 0.508365 0.0721311 0.0436421 0.494012 
0.0644683 0.041191 0.479234 0.0566055 0.0391657 0.464038 0.0485957 0.0376674 0.448446 
0.0404901 0.0367509 0.432488 0.0323341 0.0364178 0.416201 0.0241654 0.0366166 0.399618 
0.0160127 0.0372492 0.382764 0.00789681 0.0381832 0.365648 -0.000167958 0.0392691 0.348253 
-0.0081697 0.0403595 0.330538 -0.0160948 0.0413282 0.312437 -0.0239229 0.0420866 0.293858 
-0.0316228 0.0425948 0.274697 -0.0391485 0.0428673 0.254842 -0.0464374 0.0429706 0.234184 
-0.0534101 0.0430147 0.212638 -0.0599725 0.0431382 0.190143 -0.0660198 0.0434908 0.16668 
-0.0714423 0.0442131 0.142271 -0.0761331 0.0454183 0.116987 -0.0799953 0.0471773 0.0909382 
-0.08295 0.0495095 0.0642697 -0.0849426 0.0523792 0.0371491 -0.0859481 0.0556999 0.00975265 
-0.0859732 0.0593442 -0.0177495 -0.0850565 0.0631579 -0.0452065 -0.083266 0.0669777 -0.0724979 
-0.0806935 0.0706479 -0.0995404 -0.0774477 0.074036 -0.12629 -0.073646 0.0770434 -0.152739 
-0.0694053 0.0796115 -0.178908 -0.064834 0.0817205 -0.204835 -0.060025 0.0833841 -0.230564 
-0.0550504 0.0846383 -0.256129 -0.0499592 0.0855284 -0.281541 -0.0447771 0.0860943 -0.306785 
-0.0395097 0.0863589 -0.331811 -0.0341467 0.0863181 -0.356536 -0.0286689 0.0859374 -0.380851 
-0.023055 0.085153 -0.404631 -0.0172893 0.0838789 -0.427745 -0.0113674 0.0820183 -0.450075 
-0.00530118 0.0794778 -0.471523 0.000878869 0.0761831 -0.492027 0.00712342 0.0720923 -0.511562 
0.0133668 0.067207 -0.530143 0.0195316 0.0615779 -0.54782 0.0255346 0.0553045 -0.564666 
0.0312938 0.0485297 -0.580766 0.0367358 0.0414283 -0.596201 0.0418019 0.0341924 -0.611028 
0.0464529 0.0270149 -0.625276 0.0506722 0.0200725 -0.638928 0.0544662 0.0135123 -0.651925 
0.0578621 0.00744125 -0.664167 0.0609042 0.0019212 -0.675524 0.0636481 -0.00303035 -0.685849 
0.0661534 -0.00743461 -0.695001 0.068477 -0.0113415 -0.702861 0.0706663 -0.0148174 -0.709353 
0.0727541 -0.0179318 -0.714457 0.0747549 -0.0207451 -0.718219 0.076664 -0.0233 -0.720753 
0.0784582 -0.0256158 -0.722233 0.0800996 -0.0276874 -0.722879 0.0815402 -0.0294889 -0.722939 
0.0827281 -0.0309802 -0.722662 0.0836144 -0.032116 -0.722277 0.0841589 -0.0328547 -0.721965 
0.0843354 -0.0331668 -0.721844 
LINES 2 100
OFFSETS vtktypeint64
0 100 
CONNECTIVITY vtktypeint64
0 1 2 3 4 5 6 7 8 
9 10 11 12 13 14 15 16 17 
18 19 20 21 22 23 24 25 26 
27 28 29 30 31 32 33 34 35 
36 37 38 39 40 41 42 43 44 
45 46 47 48 49 50 51 52 53 
54 55 56 57 58 59 60 61 62 
63 64 65 66 67 68 69 70 71 
72 73 74 75 76 77 78 79 80 
81 82 83 84 85 86 87 88 89 
90 91 92 93 94 95 96 97 98 
99 
POINT_DATA 100
FIELD FieldData 3
_theta 1 100 double
0 0.031733259127 0.063466518254 0.095199777382 0.12693303651 0.15866629564 0.19039955476 0.22213281389 0.25386607302 
0.28559933214 0.31733259127 0.3490658504 0.38079910953 0.41253236865 0.44426562778 0.47599888691 0.50773214603 0.53946540516 
0.57119866429 0.60293192342 0.63466518254 0.66639844167 0.6981317008 0.72986495992 0.76159821905 0.79333147818 0.82506473731 
0.85679799643 0.88853125556 0.92026451469 0.95199777382 0.98373103294 1.0154642921 1.0471975512 1.0789308103 1.1106640695 
1.1423973286 1.1741305877 1.2058638468 1.237597106 1.2693303651 1.3010636242 1.3327968833 1.3645301425 1.3962634016 
1.4279966607 1.4597299198 1.491463179 1.5231964381 1.5549296972 1.5866629564 1.6183962155 1.6501294746 1.6818627337 
1.7135959929 1.745329252 1.7770625111 1.8087957702 1.8405290294 1.8722622885 1.9039955476 1.9357288068 1.9674620659 
1.999195325 2.0309285841 2.0626618433 2.0943951024 2.1261283615 2.1578616206 2.1895948798 2.2213281389 2.253061398 
2.2847946572 2.3165279163 2.3482611754 2.3799944345 2.4117276937 2.4434609528 2.4751942119 2.506927471 2.5386607302 
2.5703939893 2.6021272484 2.6338605076 2.6655937667 2.6973270258 2.7290602849 2.7607935441 2.7925268032 2.8242600623 
2.8559933214 2.8877265806 2.9194598397 2.9511930988 2.982926358 3.0146596171 3.0463928762 3.0781261353 3.1098593945 
3.1415926536 
_radius 1 100 double
3.5354328362e-16 0.01539158771 0.030657654718 0.04567740348 0.060342786571 0.074563392724 0.088269733563 0.1014147688 0.11397372325 
0.12594240259 0.13733426311 0.14817643427 0.15850479868 0.16835821833 0.17777215078 0.18677221649 0.19536862088 0.20355250283 
0.21129512571 0.21855034283 0.22526011244 0.23136224222 0.23679919204 0.2415267045 0.24552118179 0.24878494489 0.25134869737 
0.25327065832 0.2546320091 0.25552863801 0.25605974334 0.25631461686 0.25635964825 0.25622793667 0.25591361686 0.25537212653 
0.25452647219 0.25327849753 0.25152348462 0.24916615336 0.24613615455 0.24240134393 0.23797740566 0.23293274496 0.22738799236 
0.22150995577 0.21550040885 0.20958068755 0.20397363621 0.19888494116 0.19448623578 0.19090240161 0.18820488488 0.18641124281 
0.18548891216 0.18535999978 0.18590519188 0.18696777069 0.18836067606 0.18987904392 0.19131822362 0.19249458089 0.19326492131 
0.19354060555 0.19329388357 0.19255583853 0.19140700335 0.18996288542 0.18835711885 0.18672467801 0.1851868096 0.18383873071 
0.18274106026 0.18191592255 0.18134803106 0.18098994129 0.18076972404 0.18059899727 0.18037956243 0.18000762292 0.17937548666 
0.17837149321 0.17687937816 0.17477826869 0.17194412312 0.16825293505 0.16358558117 0.15783382997 0.15090675989 0.14273674059 
0.13328427658 0.12254135122 0.11053327547 0.097319275442 0.082992079484 0.067676630686 0.051527858384 0.034727297922 0.017478334661 
8.2031709376e-16 
_area 1 100 double
0 0.00058457013385 0.0023091473222 0.0050916263245 0.0088113265892 0.013328559284 0.018504247478 0.024214699295 0.030358199977 
0.036853335135 0.043633237462 0.050641703088 0.057833769928 0.065178202573 0.072657142534 0.080259735955 0.087970128856 0.095753857586 
0.1035483792 0.11126199827 0.11878153605 0.12598547613 0.1327584259 0.13900445176 0.14465878157 0.14969752972 0.1541438164 
0.15806722791 0.16157261646 0.16477526015 0.1677656877 0.17057752509 0.17317374391 0.17545452991 0.17727755731 0.17848076229 
0.17890306279 0.1784018538 0.1768668359 0.1742299697 0.17047204268 0.16562696204 0.15978450384 0.15309059846 0.14574310165 
0.13798227053 0.13007725226 0.12231056864 0.11496198993 0.10829244234 0.10252592555 0.09781786649 0.094200876218 0.091549183156 
0.089628181972 0.08822121399 0.087183277108 0.086419907408 0.085857236866 0.085446197207 0.085161449857 0.084928360292 0.0845492874 
0.08379477532 0.082523328648 0.080712921431 0.078449588852 0.075902708363 0.073291504619 0.070843327651 0.068749594266 0.067134044109 
0.066045433023 0.065473131841 0.065379695392 0.065735546718 0.066434105068 0.067289521705 0.06819063415 0.069071672539 0.069865603214 
0.07047920914 0.070782373304 0.070609412427 0.06977328682 0.06809116865 0.065416080065 0.061667141201 0.056851409852 0.051072909546 
0.04452787493 0.037488106111 0.030275925899 0.023234709934 0.016698900672 0.010967331075 0.0062835866319 0.0028264495753 0.00071135425826 
2.9495962667e-17 
