# vtk DataFile Version 5.1
vtk output
ASCII
DATASET POLYDATA
POINTS 100 float
0.093569 0.0415519 0.633167 0.0937374 0.0417826 0.632853 0.0942786 0.0423284 0.631788 
0.0951286 0.0431564 0.630036 0.0961882 0.0442158 0.627699 0.0973337 0.0454434 0.624897 
0.0984302 0.04677 0.621749 0.099345 0.0481274 0.618361 0.0999612 0.0494538 0.614805 
0.100187 0.0506995 0.61111 0.0999652 0.0518289 0.607255 0.0992712 0.0528216 0.603173 
0.098115 0.0536708 0.598756 0.0965327 0.05438 0.59387 0.0945782 0.0549581 0.588372 
0.092311 0.0554148 0.582132 0.0897858 0.0557556 0.575045 0.0870421 0.0559782 0.56705 
0.084097 0.0560708 0.558139 0.0809418 0.0560113 0.548355 0.0775427 0.0557704 0.537792 
0.0738458 0.0553143 0.526581 0.0697855 0.0546104 0.514875 0.065295 0.0536325 0.502835 
0.0603179 0.0523659 0.490603 0.0548188 0.0508122 0.478294 0.048792 0.0489911 0.465979 
0.0422666 0.0469418 0.453681 0.0353069 0.0447211 0.441378 0.0280085 0.0424 0.429005 
0.0204911 0.0400589 0.416469 0.0128864 0.0377815 0.403662 0.00532578 0.0356489 0.39048 
-0.00207328 0.0337344 0.376838 -0.009219 0.0320984 0.362678 -0.0160541 0.0307863 0.347979 
-0.0225605 0.0298272 0.332758 -0.0287591 0.0292348 0.317064 -0.0347047 0.029009 0.300969 
-0.0404766 0.0291394 0.284553 -0.0461653 0.0296081 0.267891 -0.0518584 0.0303932 0.251039 
-0.0576254 0.0314708 0.234021 -0.0635051 0.0328167 0.216826 -0.0694953 0.0344062 0.199403 
-0.0755486 0.0362135 0.181669 -0.0815714 0.0382101 0.163518 -0.0874304 0.0403635 0.144834 
-0.0929621 0.0426357 0.125509 -0.097987 0.0449827 0.105458 -0.102325 0.0473553 0.0846325 
-0.105814 0.0497011 0.0630285 -0.108321 0.0519682 0.0406933 -0.109756 0.0541088 0.0177217 
-0.110081 0.0560842 -0.00575099 -0.109308 0.0578691 -0.0295611 -0.107501 0.0594546 -0.0535317 
-0.104764 0.0608497 -0.0774885 -0.101229 0.0620811 -0.101275 -0.0970474 0.0631901 -0.124763 
-0.0923665 0.0642273 -0.147864 -0.0873222 0.0652467 -0.170527 -0.0820242 0.0662971 -0.192737 
-0.076549 0.0674149 -0.214509 -0.0709365 0.0686177 -0.235877 -0.0651914 0.0698986 -0.25688 
-0.0592893 0.071225 -0.277552 -0.053186 0.0725393 -0.297911 -0.0468292 0.0737629 -0.317953 
-0.0401714 0.0748036 -0.337647 -0.0331818 0.0755646 -0.356943 -0.0258554 0.0759546 -0.375769 
-0.0182203 0.075898 -0.394046 -0.0103388 0.0753437 -0.411697 -0.00230582 0.0742714 -0.428652 
0.00575743 0.0726946 -0.444863 0.0137135 0.07066 -0.460301 0.0214205 0.0682434 -0.474963 
0.0287449 0.0655422 -0.488868 0.0355737 0.0626661 -0.502047 0.0418248 0.059726 -0.514542 
0.0474538 0.0568237 -0.52639 0.0524572 0.0540433 -0.537616 0.0568712 0.0514439 -0.548231 
0.0607659 0.0490571 -0.558221 0.0642369 0.0468873 -0.567554 0.0673931 0.0449153 -0.576179 
0.0703446 0.0431048 -0.58404 0.0731894 0.0414114 -0.591076 0.0760026 0.039791 -0.597243 
0.0788278 0.0382085 -0.602514 0.0816723 0.0366446 -0.606891 0.0845068 0.0350997 -0.61041 
0.0872683 0.033595 -0.613136 0.0898676 0.0321697 -0.61516 0.0921996 0.0308765 -0.616593 
0.0941549 0.0297741 -0.617549 0.0956321 0.028919 -0.618135 0.0965497 0.028358 -0.618439 
0.0968545 0.0281212 -0.618519 
LINES 2 100
OFFSETS vtktypeint64
0 100 
CONNECTIVITY vtktypeint64
0 1 2 3 4 5 6 7 8 
9 10 11 12 13 14 15 16 17 
18 19 20 21 22 23 24 25 26 
27 28 29 30 31 32 33 34 35 
36 37 38 39 40 41 42 43 44 
45 46 47 48 49 50 51 52 53 
54 55 56 57 58 59 60 61 62 
63 64 65 66 67 68 69 70 71 
72 73 74 75 76 77 78 79 80 
81 82 83 84 85 86 87 88 89 
90 91 92 93 94 95 96 97 98 
99 
POINT_DATA 100
FIELD FieldData 3
_theta 1 100 double
0 0.031733259127 0.063466518254 0.095199777382 0.12693303651 0.15866629564 0.19039955476 0.22213281389 0.25386607302 
0.28559933214 0.31733259127 0.3490658504 0.38079910953 0.41253236865 0.44426562778 0.47599888691 0.50773214603 0.53946540516 
0.57119866429 0.60293192342 0.63466518254 0.66639844167 0.6981317008 0.72986495992 0.76159821905 0.79333147818 0.82506473731 
0.85679799643 0.88853125556 0.92026451469 0.95199777382 0.98373103294 1.0154642921 1.0471975512 1.0789308103 1.1106640695 
1.1423973286 1.1741305877 1.2058638468 1.237597106 1.2693303651 1.3010636242 1.3327968833 1.3645301425 1.3962634016 
1.4279966607 1.4597299198 1.491463179 1.5231964381 1.5549296972 1.5866629564 1.6183962155 1.6501294746 1.6818627337 
1.7135959929 1.745329252 1.7770625111 1.8087957702 1.8405290294 1.8722622885 1.9039955476 1.9357288068 1.9674620659 
1.999195325 2.0309285841 2.0626618433 2.0943951024 2.1261283615 2.1578616206 2.1895948798 2.2213281389 2.253061398 
2.2847946572 2.3165279163 2.3482611754 2.3799944345 2.4117276937 2.4434609528 2.4751942119 2.506927471 2.5386607302 
2.5703939893 2.6021272484 2.6338605076 2.6655937667 2.6973270258 2.7290602849 2.7607935441 2.7925268032 2.8242600623 
2.8559933214 2.8877265806 2.9194598397 2.9511930988 2.982926358 3.0146596171 3.0463928762 3.0781261353 3.1098593945 
3.1415926536 
_radius 1 100 double
7.0271504733e-16 0.013845788698 0.027726701137 0.041659847896 0.055642404601 0.069646029969 0.08361524602 0.097469913369 0.11111121921 
0.12443003917 0.13731625991 0.14966768118 0.16139738755 0.17243887849 0.18274866157 0.19230636996 0.20111272668 0.20918585093 
0.21655651115 0.22326299487 0.22934627694 0.23484609274 0.23979833552 0.24423390947 0.24817884681 0.25165523024 0.25468233366 
0.25727744047 0.2594559959 0.26123102407 0.2626119979 0.26360350097 0.26420402278 0.26440511611 0.26419102802 0.26353890189 
0.26241975671 0.26080058925 0.25864797774 0.25593338707 0.25263998041 0.2487702292 0.24435315142 0.23944975407 0.23415529757 
0.22859735482 0.22292929824 0.21731977265 0.21193970962 0.20694910794 0.20248577275 0.19865750582 0.19553824725 0.19316768079 
0.19155298188 0.19067098241 0.19046934312 0.1908663682 0.19175058925 0.19298265485 0.19440243863 0.19584271679 0.19714767597 
0.19819188707 0.19889497952 0.19922894409 0.19921734349 0.19892752457 0.19845784834 0.19792215034 0.19743341094 0.19708819701 
0.19695303129 0.1970536484 0.19736815595 0.19782509511 0.19830679402 0.19865735149 0.19869385063 0.1982194124 0.19703707453 
0.19496367304 0.19184278848 0.18755563987 0.18202882561 0.1752380964 0.16720781383 0.15800626917 0.14773751607 0.1365307605 
0.12452861894 0.11187566196 0.098708565617 0.085148884597 0.071298978689 0.057241063409 0.043038842061 0.028740836163 0.014384449914 
5.8956198619e-16 
_area 1 100 double
0 0.00050409729604 0.0020198498449 0.0045556046094 0.0081188613145 0.012707918632 0.018302518904 0.024855391229 0.032286582792 
0.040482135563 0.049297949056 0.058568588462 0.068119603716 0.077781042781 0.087399576843 0.096847008287 0.10602373539 0.11485690248 
0.12329443745 0.13129764427 0.13883557866 0.1458832643 0.15242349536 0.15845041218 0.16397318721 0.16901883818 0.17363279184 
0.17787452394 0.18180564016 0.18547142733 0.18888260401 0.19200554737 0.19476399996 0.19704925756 0.198734621 0.19969114116 
0.19980172177 0.19897069599 0.19712849212 0.19423425662 0.1902798252 0.18529598276 0.17935923781 0.1725963795 0.16518478247 
0.15734765215 0.14934418789 0.14145466397 0.13396014583 0.12711679281 0.12112749958 0.11612021759 0.11213498396 0.10910448363 
0.10686654226 0.10522902569 0.1040202994 0.10310528886 0.10238222351 0.10177354628 0.10121852417 0.10066924822 0.10008694793 
0.099436455444 0.098682564789 0.097795263574 0.096765096351 0.095620620051 0.094438508483 0.09334185326 0.092485124437 0.092026498663 
0.092094453918 0.092758535986 0.094009537963 0.095751201005 0.097803318553 0.099913263223 0.10177438129 0.10305224569 0.10341859592 
0.10258916558 0.10035889263 0.096627803098 0.091412815937 0.084843891291 0.077146428264 0.06861466015 0.059582025561 0.050393598797 
0.041383129883 0.032854551754 0.02506655117 0.018219519975 0.012446068707 0.0078078638151 0.004301824871 0.0018773737724 0.00046348541497 
3.9022054084e-17 
