# vtk DataFile Version 5.1
vtk output
ASCII
DATASET POLYDATA
POINTS 100 float
0.106863 0.04838 0.670068 0.106944 0.0485107 0.669778 0.107231 0.0487469 0.668725 
0.107664 0.0490704 0.666932 0.10815 0.0494544 0.664434 0.108578 0.0498671 0.66127 
0.108828 0.0502761 0.657483 0.108793 0.050653 0.653104 0.108384 0.0509769 0.648155 
0.107549 0.0512366 0.642643 0.10627 0.0514312 0.636557 0.10457 0.0515682 0.629875 
0.102503 0.0516605 0.622568 0.100146 0.0517219 0.614606 0.0975849 0.0517622 0.605967 
0.0949028 0.0517821 0.596647 0.092164 0.0517703 0.58666 0.0894049 0.0517013 0.576047 
0.0866264 0.0515366 0.564871 0.0837935 0.0512277 0.553215 0.0808386 0.0507215 0.541177 
0.0776706 0.0499676 0.528854 0.0741873 0.0489266 0.516338 0.0702898 0.0475774 0.503703 
0.0658964 0.0459242 0.490998 0.060955 0.0440011 0.47824 0.0554509 0.0418725 0.465414 
0.0494101 0.039632 0.452479 0.0428968 0.0373961 0.439371 0.0360053 0.0352958 0.426012 
0.0288487 0.033466 0.412326 0.0215437 0.0320337 0.398248 0.0141956 0.031106 0.383731 
0.00688496 0.0307604 0.368758 -0.000342202 0.0310373 0.353338 -0.0074794 0.0319358 0.337508 
-0.0145581 0.0334143 0.321323 -0.0216405 0.0353941 0.304851 -0.0288067 0.0377673 0.288154 
-0.0361379 0.0404071 0.27128 -0.0436987 0.0431796 0.254251 -0.0515191 0.0459562 0.237054 
-0.0595803 0.0486246 0.21964 -0.0678051 0.0510977 0.201926 -0.0760553 0.0533198 0.183801 
-0.084136 0.0552686 0.165138 -0.0918081 0.0569544 0.145811 -0.0988052 0.0584149 0.125712 
-0.104856 0.0597089 0.104762 -0.109709 0.0609064 0.0829305 -0.113154 0.0620802 0.0602372 
-0.115044 0.0632959 0.0367581 -0.115307 0.0646051 0.0126206 -0.113956 0.0660393 -0.0120061 
-0.111085 0.0676068 -0.0369252 -0.106862 0.0692926 -0.0619292 -0.101513 0.0710599 -0.0868182 
-0.0953023 0.0728537 -0.111416 -0.0885054 0.0746063 -0.135584 -0.0813888 0.0762422 -0.159229 
-0.0741863 0.0776842 -0.182305 -0.067082 0.0788582 -0.204811 -0.0601992 0.0796971 -0.226782 
-0.0535963 0.0801442 -0.248275 -0.0472693 0.0801544 -0.269358 -0.0411614 0.0796959 -0.290092 
-0.0351772 0.0787503 -0.310523 -0.0292003 0.0773127 -0.330668 -0.023112 0.0753917 -0.350515 
-0.0168088 0.0730093 -0.370025 -0.0102171 0.0702012 -0.389132 -0.00330342 0.0670165 -0.407762 
0.00392069 0.0635177 -0.425833 0.011399 0.0597799 -0.443277 0.0190364 0.0558892 -0.460045 
0.0267087 0.05194 -0.476112 0.0342752 0.0480313 -0.491484 0.0415927 0.0442622 -0.506193 
0.048529 0.0407265 -0.520288 0.0549746 0.037507 -0.53383 0.0608516 0.0346702 -0.546875 
0.0661184 0.0322617 -0.559465 0.0707711 0.0303032 -0.571615 0.0748405 0.0287914 -0.583309 
0.0783857 0.0276985 -0.594499 0.081486 0.0269759 -0.605103 0.0842308 0.0265587 -0.615019 
0.0867097 0.026372 -0.624135 0.0890028 0.0263384 -0.632342 0.0911734 0.0263849 -0.639552 
0.0932631 0.0264489 -0.645709 0.0952888 0.0264835 -0.650798 0.0972431 0.0264597 -0.654852 
0.0990974 0.0263671 -0.657948 0.100807 0.0262118 -0.6602 0.102315 0.0260132 -0.661748 
0.103565 0.0257979 -0.662741 0.104502 0.0255947 -0.663319 0.105081 0.0254287 -0.663596 
0.105275 0.0253166 -0.663649 
LINES 2 100
OFFSETS vtktypeint64
0 100 
CONNECTIVITY vtktypeint64
0 1 2 3 4 5 6 7 8 
9 10 11 12 13 14 15 16 17 
18 19 20 21 22 23 24 25 26 
27 28 29 30 31 32 33 34 35 
36 37 38 39 40 41 42 43 44 
45 46 47 48 49 50 51 52 53 
54 55 56 57 58 59 60 61 62 
63 64 65 66 67 68 69 70 71 
72 73 74 75 76 77 78 79 80 
81 82 83 84 85 86 87 88 89 
90 91 92 93 94 95 96 97 98 
99 
POINT_DATA 100
FIELD FieldData 3
_theta 1 100 double
0 0.031733259127 0.063466518254 0.095199777382 0.12693303651 0.15866629564 0.19039955476 0.22213281389 0.25386607302 
0.28559933214 0.31733259127 0.3490658504 0.38079910953 0.41253236865 0.44426562778 0.47599888691 0.50773214603 0.53946540516 
0.57119866429 0.60293192342 0.63466518254 0.66639844167 0.6981317008 0.72986495992 0.76159821905 0.79333147818 0.82506473731 
0.85679799643 0.88853125556 0.92026451469 0.95199777382 0.98373103294 1.0154642921 1.0471975512 1.0789308103 1.1106640695 
1.1423973286 1.1741305877 1.2058638468 1.237597106 1.2693303651 1.3010636242 1.3327968833 1.3645301425 1.3962634016 
1.4279966607 1.4597299198 1.491463179 1.5231964381 1.5549296972 1.5866629564 1.6183962155 1.6501294746 1.6818627337 
1.7135959929 1.745329252 1.7770625111 1.8087957702 1.8405290294 1.8722622885 1.9039955476 1.9357288068 1.9674620659 
1.999195325 2.0309285841 2.0626618433 2.0943951024 2.1261283615 2.1578616206 2.1895948798 2.2213281389 2.253061398 
2.2847946572 2.3165279163 2.3482611754 2.3799944345 2.4117276937 2.4434609528 2.4751942119 2.506927471 2.5386607302 
2.5703939893 2.6021272484 2.6338605076 2.6655937667 2.6973270258 2.7290602849 2.7607935441 2.7925268032 2.8242600623 
2.8559933214 2.8877265806 2.9194598397 2.9511930988 2.982926358 3.0146596171 3.0463928762 3.0781261353 3.1098593945 
3.1415926536 
_radius 1 100 double
7.7963035501e-16 0.014166278051 0.028260499539 0.042198535167 0.055894318174 0.069261643478 0.082217508659 0.094686476238 0.10660525472 
0.11792663867 0.12862208017 0.13868244825 0.1481169243 0.15695037817 0.16521981677 0.17297046882 0.18025178672 0.18711331509 
0.19360027503 0.19974898546 0.20558274308 0.21110915348 0.21631983566 0.22119287128 0.22569758776 0.22980061894 0.23347193997 
0.23668975661 0.23944356076 0.24173510423 0.24357734513 0.24499158766 0.24600314147 0.24663593394 0.24690664881 0.24681914723 
0.24636013855 0.24549723217 0.24418047759 0.24234813682 0.23993668458 0.23689403222 0.23319401562 0.22884960354 0.22392227199 
0.21852555235 0.21282173209 0.20701184314 0.20132022023 0.19597589226 0.19119368121 0.1871577957 0.18400960134 0.18183929331 
0.18067946757 0.18049869082 0.18119587702 0.1826000724 0.18448150703 0.1865759823 0.1886181176 0.19037497383 0.19167247313 
0.19241069947 0.19256761668 0.19219278023 0.19139344658 0.19031562658 0.18912250578 0.1879725168 0.1869992481 0.18629516997 
0.18590068428 0.18579928822 0.18591889267 0.18613872589 0.18630077087 0.18622427133 0.1857215658 0.18461351307 0.18274306855 
0.17998599044 0.17625801828 0.17151812439 0.16576765893 0.15904547987 0.15141952456 0.14297572653 0.13380565573 0.12399467214 
0.11361259811 0.10270876553 0.091312636369 0.079440031478 0.067103586243 0.054324852946 0.041144961323 0.02763113831 0.013877505331 
9.6992320949e-16 
_area 1 100 double
0 0.00059160430516 0.0023458202283 0.0052013188901 0.0090581300558 0.013782951815 0.019218947153 0.025199870433 0.031566494263 
0.03818177053 0.044940730389 0.051772393915 0.058633769466 0.065499095748 0.072349070234 0.079164052768 0.085922741072 0.09260504791 
0.099196260536 0.10568968028 0.11208625159 0.11839080643 0.12460509865 0.13071920259 0.13670512675 0.14251587529 0.14808814737 
0.15334439642 0.15819642041 0.16255767763 0.16636109202 0.16956869473 0.17216810384 0.17416284382 0.17556205772 0.17636890461 
0.17656738481 0.17611209956 0.17492721914 0.17291790019 0.16999292971 0.16609412584 0.16122591347 0.1554769957 0.14902567204 
0.14212298709 0.13505495075 0.12809399473 0.12145495676 0.11526982168 0.10959034718 0.1044182252 0.099749067153 0.095610866658 
0.092085749672 0.089315625909 0.087508258527 0.086900256749 0.0872887023 0.088386991133 0.089877035316 0.091404299397 0.092645041086 
0.093354301037 0.093391036609 0.092723072018 0.091418741793 0.089628073571 0.087555347792 0.085427041359 0.08346003127 0.081834903657 
0.08068059047 0.080078074197 0.080075189595 0.080685673285 0.081884821757 0.08343167855 0.084947804122 0.086087934318 0.086536183045 
0.086014800608 0.084315701406 0.081332463587 0.077078374096 0.071683346202 0.065370372529 0.058418350301 0.05112112835 0.043752484374 
0.036544002782 0.029678326147 0.023295370477 0.017505588067 0.012403511103 0.0080765434369 0.0046070438596 0.0020687476377 0.00052044829703 
4.5997172108e-17 
