# vtk DataFile Version 5.1
vtk output
ASCII
DATASET POLYDATA
POINTS 100 float
0.0835819 0.0551143 0.697688 0.0834495 0.0552331 0.697359 0.0830743 0.0554227 0.696193 
0.0824801 0.0556582 0.694216 0.081704 0.0559033 0.691465 0.0807924 0.0561161 0.68799 
0.0797958 0.0562556 0.683841 0.0787641 0.0562893 0.679065 0.0777403 0.0561983 0.673702 
0.0767567 0.0559818 0.667775 0.0758301 0.0556581 0.661293 0.0749599 0.0552629 0.654251 
0.0741273 0.0548453 0.646631 0.0732954 0.0544609 0.638409 0.0724127 0.0541638 0.62956 
0.0714166 0.0539983 0.620063 0.0702381 0.0539911 0.609913 0.0688084 0.054146 0.599117 
0.0670639 0.0544407 0.587703 0.0649517 0.0548269 0.575717 0.0624344 0.055234 0.563222 
0.0594924 0.0555756 0.550291 0.0561258 0.0557582 0.537003 0.0523538 0.0556909 0.523438 
0.0482122 0.0552959 0.509663 0.0437499 0.0545171 0.495737 0.0390235 0.0533273 0.481698 
0.0340918 0.0517316 0.467566 0.0290097 0.049769 0.453345 0.0238229 0.0475089 0.439022 
0.018563 0.0450464 0.424572 0.0132449 0.0424944 0.409965 0.00786579 0.0399748 0.395171 
0.00240582 0.0376092 0.380161 -0.00316871 0.0355107 0.364911 -0.00890038 0.0337772 0.349403 
-0.0148344 0.032486 0.333623 -0.0210112 0.0316917 0.317557 -0.0274589 0.0314256 0.301191 
-0.0341867 0.0316971 0.2845 -0.0411782 0.0324968 0.267452 -0.0483882 0.0337992 0.25 
-0.0557407 0.035567 0.232084 -0.0631297 0.0377532 0.213636 -0.0704229 0.0403039 0.19458 
-0.0774681 0.0431592 0.174845 -0.0841009 0.0462541 0.154369 -0.0901546 0.0495185 0.133107 
-0.0954706 0.0528776 0.111043 -0.0999087 0.0562526 0.0881938 -0.103356 0.0595624 0.0646107 
-0.105734 0.0627262 0.0403819 -0.107004 0.0656673 0.0156275 -0.107168 0.0683177 -0.00950695 
-0.106269 0.0706225 -0.0348602 -0.104384 0.0725448 -0.0602665 -0.101619 0.0740684 -0.0855668 
-0.0981004 0.0752002 -0.110619 -0.0939621 0.0759686 -0.135309 -0.0893372 0.0764214 -0.15955 
-0.0843468 0.0766197 -0.183292 -0.0790919 0.076631 -0.206515 -0.0736472 0.0765203 -0.229224 
-0.0680576 0.0763419 -0.251446 -0.0623383 0.0761313 -0.273214 -0.0564774 0.0758995 -0.294563 
-0.0504414 0.0756296 -0.315521 -0.0441831 0.0752771 -0.336101 -0.0376509 0.074774 -0.356298 
-0.0307976 0.0740353 -0.376089 -0.0235902 0.0729685 -0.395434 -0.0160169 0.0714849 -0.414284 
-0.00809287 0.0695107 -0.432582 0.000137201 0.0669971 -0.450278 0.00859924 0.0639282 -0.467327 
0.0171929 0.0603254 -0.483698 0.0257972 0.0562482 -0.49938 0.0342782 0.0517906 -0.514374 
0.0424979 0.0470738 -0.528698 0.0503235 0.0422368 -0.542381 0.0576363 0.037424 -0.555454 
0.064339 0.0327737 -0.567945 0.0703613 0.0284063 -0.579874 0.0756633 0.0244161 -0.591248 
0.0802357 0.0208652 -0.602058 0.084098 0.0177815 -0.612277 0.0872949 0.0151602 -0.621868 
0.08989 0.012969 -0.630782 0.0919596 0.0111555 -0.63897 0.0935855 0.0096559 -0.646387 
0.0948488 0.00840441 -0.652996 0.0958242 0.00734098 -0.65878 0.0965764 0.00641769 -0.663739 
0.0971573 0.00560231 -0.667892 0.0976057 0.00487905 -0.671273 0.097948 0.00424672 -0.673932 
0.0982004 0.00371484 -0.675921 0.0983717 0.00329841 -0.677293 0.0984656 0.00301263 -0.67809 
0.0984835 0.00286817 -0.678339 
LINES 2 100
OFFSETS vtktypeint64
0 100 
CONNECTIVITY vtktypeint64
0 1 2 3 4 5 6 7 8 
9 10 11 12 13 14 15 16 17 
18 19 20 21 22 23 24 25 26 
27 28 29 30 31 32 33 34 35 
36 37 38 39 40 41 42 43 44 
45 46 47 48 49 50 51 52 53 
54 55 56 57 58 59 60 61 62 
63 64 65 66 67 68 69 70 71 
72 73 74 75 76 77 78 79 80 
81 82 83 84 85 86 87 88 89 
90 91 92 93 94 95 96 97 98 
99 
POINT_DATA 100
FIELD FieldData 3
_theta 1 100 double
0 0.031733259127 0.063466518254 0.095199777382 0.12693303651 0.15866629564 0.19039955476 0.22213281389 0.25386607302 
0.28559933214 0.31733259127 0.3490658504 0.38079910953 0.41253236865 0.44426562778 0.47599888691 0.50773214603 0.53946540516 
0.57119866429 0.60293192342 0.63466518254 0.66639844167 0.6981317008 0.72986495992 0.76159821905 0.79333147818 0.82506473731 
0.85679799643 0.88853125556 0.92026451469 0.95199777382 0.98373103294 1.0154642921 1.0471975512 1.0789308103 1.1106640695 
1.1423973286 1.1741305877 1.2058638468 1.237597106 1.2693303651 1.3010636242 1.3327968833 1.3645301425 1.3962634016 
1.4279966607 1.4597299198 1.491463179 1.5231964381 1.5549296972 1.5866629564 1.6183962155 1.6501294746 1.6818627337 
1.7135959929 1.745329252 1.7770625111 1.8087957702 1.8405290294 1.8722622885 1.9039955476 1.9357288068 1.9674620659 
1.999195325 2.0309285841 2.0626618433 2.0943951024 2.1261283615 2.1578616206 2.1895948798 2.2213281389 2.253061398 
2.2847946572 2.3165279163 2.3482611754 2.3799944345 2.4117276937 2.4434609528 2.4751942119 2.506927471 2.5386607302 
2.5703939893 2.6021272484 2.6338605076 2.6655937667 2.6973270258 2.7290602849 2.7607935441 2.7925268032 2.8242600623 
2.8559933214 2.8877265806 2.9194598397 2.9511930988 2.982926358 3.0146596171 3.0463928762 3.0781261353 3.1098593945 
3.1415926536 
_radius 1 100 double
8.9726632891e-16 0.013231748838 0.02641269266 0.039484139636 0.052385226442 0.065053166342 0.077424387699 0.089436511437 0.1010308499 
0.1121548776 0.12276405212 0.13282255116 0.14230293904 0.15118532571 0.15945693744 0.16711289858 0.17415838487 0.18061143962 
0.18650510389 0.19188743971 0.19681856967 0.20136478998 0.20559078384 0.20955161321 0.21328626644 0.21681405275 0.22013426223 
0.22322861181 0.22606541643 0.22860431908 0.2308007004 0.23260934481 0.23398734008 0.23489641055 0.23530492256 0.23518971586 
0.23453778843 0.23334775618 0.23163095875 0.22941208965 0.22672927083 0.22363353776 0.22018773172 0.21646481936 0.21254570257 
0.20851666001 0.20446665701 0.20048481856 0.19665832217 0.19307081144 0.18980117411 0.18692222354 0.18449856355 0.18258286071 
0.18121009205 0.18039020063 0.18010083369 0.1802829082 0.18084181158 0.18165557268 0.18258883437 0.1835093594 0.18430328674 
0.18488637219 0.18521004447 0.18526240563 0.18506497736 0.18466615489 0.1841322702 0.18353716682 0.18295137585 0.18243224918 
0.18201645457 0.18171578862 0.1815163245 0.181379879 0.18124623739 0.18103485448 0.18064569807 0.17995998446 0.17884222346 
0.17714495288 0.17471685011 0.17141386143 0.16711197042 0.1617195436 0.15518700236 0.14751189917 0.13873824813 0.12895003137 
0.11825997169 0.10679567964 0.094685890909 0.082049493752 0.068989317032 0.05559132341 0.041928287517 0.028065773426 0.014067777491 
2.7808406975e-16 
_area 1 100 double
0 0.00054448123535 0.0021599326823 0.0047939122907 0.0083639650075 0.012764450949 0.017874954582 0.023569314883 0.029724314554 
0.036226963473 0.042978873245 0.049895829942 0.056901478982 0.063916937563 0.070851952126 0.077604337486 0.084070641287 0.090164884494 
0.095838196972 0.10109168883 0.10597715195 0.11058437817 0.11501921425 0.11938065996 0.1237449952 0.12815944617 0.13264140965 
0.13717701488 0.14171661608 0.14617110944 0.15041488923 0.15429665641 0.15765412214 0.16032809647 0.1621741667 0.16307263456 
0.1629380274 0.16172863325 0.15945506054 0.15618553097 0.15204496508 0.14720548832 0.14186826893 0.13623996396 0.13050943005 
0.12483036069 0.11931377426 0.11403136194 0.10902659933 0.10432713286 0.099952221994 0.095913408181 0.092213013407 0.088849345855 
0.08583257584 0.083202551175 0.081034718415 0.079424576076 0.07844550579 0.078095777517 0.07825946862 0.07871270163 0.079201296873 
0.079522195643 0.079551332734 0.079235749049 0.078580110314 0.077638745855 0.076507410585 0.075308379892 0.074171322671 0.073215296401 
0.072534177254 0.072187903293 0.072203572075 0.072584098462 0.073312636096 0.074342307751 0.075572560147 0.076826999422 0.077852945983 
0.078350968681 0.078022919215 0.076620267368 0.073981466067 0.070054695736 0.064905515269 0.058709841177 0.051733631091 0.044302230338 
0.036763997871 0.029453781343 0.022661659968 0.016611242821 0.011450092687 0.0072528521862 0.0040354721135 0.0017767028996 0.00044136807532 
2.8251940004e-17 
