# vtk DataFile Version 5.1
vtk output
ASCII
DATASET POLYDATA
POINTS 100 float
0.157975 0.0541228 0.713973 0.157955 0.0540134 0.71384 0.157917 0.0535907 0.713272 
0.157824 0.0529167 0.71223 0.157618 0.0520857 0.710655 0.157225 0.0512114 0.708474 
0.15657 0.0504117 0.705608 0.155576 0.0497927 0.701981 0.154181 0.0494346 0.697529 
0.152336 0.0493801 0.692205 0.150015 0.0496282 0.685988 0.147213 0.0501337 0.678882 
0.143945 0.0508111 0.670919 0.140244 0.0515455 0.662156 0.13615 0.0522056 0.652672 
0.131711 0.0526595 0.642559 0.126971 0.0527904 0.631918 0.12197 0.0525105 0.620847 
0.116733 0.0517713 0.609437 0.111276 0.0505688 0.597764 0.105605 0.0489444 0.585883 
0.0997138 0.0469794 0.57383 0.0935944 0.0447861 0.561617 0.0872366 0.0424955 0.549234 
0.0806337 0.0402435 0.536656 0.0737855 0.0381575 0.523841 0.0666993 0.0363452 0.510742 
0.0593899 0.0348864 0.497307 0.0518774 0.0338289 0.483486 0.0441839 0.0331888 0.469235 
0.0363297 0.0329546 0.454515 0.0283296 0.0330945 0.439298 0.0201903 0.0335648 0.423561 
0.0119096 0.0343194 0.407291 0.00347771 0.0353181 0.390479 -0.00511873 0.0365319 0.373116 
-0.0138908 0.0379463 0.355198 -0.0228397 0.0395606 0.336717 -0.031949 0.0413849 0.317665 
-0.0411769 0.0434338 0.29803 -0.0504507 0.0457197 0.277801 -0.059664 0.0482461 0.256969 
-0.0686775 0.0510008 0.235529 -0.0773236 0.0539531 0.213481 -0.085415 0.0570526 0.190835 
-0.0927561 0.0602316 0.167613 -0.0991573 0.0634098 0.14385 -0.104449 0.0665023 0.119593 
-0.108495 0.0694272 0.0949029 -0.111204 0.0721145 0.0698519 -0.112537 0.0745125 0.0445202 
-0.112512 0.0765929 0.0189938 -0.111198 0.0783524 -0.00663908 -0.108711 0.0798104 -0.0322916 
-0.105205 0.0810048 -0.0578814 -0.100852 0.0819841 -0.0833327 -0.0958338 0.0827989 -0.108579 
-0.0903232 0.0834924 -0.133564 -0.0844716 0.0840925 -0.15824 -0.0784002 0.0846055 -0.182569 
-0.072194 0.0850134 -0.206524 -0.0659006 0.0852737 -0.230081 -0.0595339 0.0853234 -0.253224 
-0.0530809 0.0850857 -0.275937 -0.0465116 0.084478 -0.298211 -0.0397891 0.083422 -0.320034 
-0.0328813 0.0818525 -0.341395 -0.0257691 0.0797252 -0.362283 -0.0184532 0.0770215 -0.382687 
-0.0109573 0.0737513 -0.402596 -0.0033281 0.0699511 -0.421995 0.0043683 0.065681 -0.440873 
0.0120521 0.0610175 -0.459215 0.0196369 0.0560467 -0.477006 0.0270377 0.0508558 -0.494228 
0.0341775 0.0455266 -0.510862 0.0409925 0.0401298 -0.526882 0.0474355 0.0347217 -0.542262 
0.0534762 0.0293443 -0.55697 0.0590993 0.0240264 -0.570969 0.0643013 0.0187874 -0.58422 
0.0690857 0.0136426 -0.596682 0.0734581 0.00860743 -0.608315 0.0774221 0.00370218 -0.619079 
0.0809774 -0.00104529 -0.628944 0.0841182 -0.00559865 -0.637883 0.0868349 -0.00991439 -0.645885 
0.0891176 -0.0139449 -0.652951 0.0909598 -0.0176432 -0.659096 0.0923637 -0.0209679 -0.664353 
0.0933446 -0.0238887 -0.66877 0.0939339 -0.0263901 -0.672408 0.0941802 -0.028474 -0.67534 
0.0941486 -0.0301592 -0.677649 0.0939167 -0.03148 -0.679417 0.0935694 -0.0324809 -0.680727 
0.0931909 -0.0332117 -0.681656 0.0928578 -0.03372 -0.682268 0.0926311 -0.0340452 -0.682613 
0.0925499 -0.034213 -0.682722 
LINES 2 100
OFFSETS vtktypeint64
0 100 
CONNECTIVITY vtktypeint64
0 1 2 3 4 5 6 7 8 
9 10 11 12 13 14 15 16 17 
18 19 20 21 22 23 24 25 26 
27 28 29 30 31 32 33 34 35 
36 37 38 39 40 41 42 43 44 
45 46 47 48 49 50 51 52 53 
54 55 56 57 58 59 60 61 62 
63 64 65 66 67 68 69 70 71 
72 73 74 75 76 77 78 79 80 
81 82 83 84 85 86 87 88 89 
90 91 92 93 94 95 96 97 98 
99 
POINT_DATA 100
FIELD FieldData 3
_theta 1 100 double
0 0.031733259127 0.063466518254 0.095199777382 0.12693303651 0.15866629564 0.19039955476 0.22213281389 0.25386607302 
0.28559933214 0.31733259127 0.3490658504 0.38079910953 0.41253236865 0.44426562778 0.47599888691 0.50773214603 0.53946540516 
0.57119866429 0.60293192342 0.63466518254 0.66639844167 0.6981317008 0.72986495992 0.76159821905 0.79333147818 0.82506473731 
0.85679799643 0.88853125556 0.92026451469 0.95199777382 0.98373103294 1.0154642921 1.0471975512 1.0789308103 1.1106640695 
1.1423973286 1.1741305877 1.2058638468 1.237597106 1.2693303651 1.3010636242 1.3327968833 1.3645301425 1.3962634016 
1.4279966607 1.4597299198 1.491463179 1.5231964381 1.5549296972 1.5866629564 1.6183962155 1.6501294746 1.6818627337 
1.7135959929 1.745329252 1.7770625111 1.8087957702 1.8405290294 1.8722622885 1.9039955476 1.9357288068 1.9674620659 
1.999195325 2.0309285841 2.0626618433 2.0943951024 2.1261283615 2.1578616206 2.1895948798 2.2213281389 2.253061398 
2.2847946572 2.3165279163 2.3482611754 2.3799944345 2.4117276937 2.4434609528 2.4751942119 2.506927471 2.5386607302 
2.5703939893 2.6021272484 2.6338605076 2.6655937667 2.6973270258 2.7290602849 2.7607935441 2.7925268032 2.8242600623 
2.8559933214 2.8877265806 2.9194598397 2.9511930988 2.982926358 3.0146596171 3.0463928762 3.0781261353 3.1098593945 
3.1415926536 
_radius 1 100 double
8.7595119147e-16 0.014273819031 0.028422193516 0.042328943913 0.055899262513 0.069065029804 0.081785030038 0.094040418779 0.10582690949 
0.11714583442 0.12799627904 0.13836989685 0.14824903141 0.15760778446 0.16641500733 0.17463801256 0.18224604942 0.18921306395 
0.19551973905 0.20115509919 0.20611798349 0.21041847217 0.21407902349 0.21713482377 0.21963282027 0.2216291408 0.2231850151 
0.22436172729 0.22521538077 0.22579227135 0.22612547647 0.22623298669 0.22611744808 0.2257674209 0.22515999483 0.22426458842 
0.22304773787 0.2214786002 0.21953475169 0.21720769928 0.21450741784 0.21146525168 0.20813470601 0.20458998319 0.20092252289 
0.19723615952 0.19364164995 0.19025115083 0.18717284703 0.18450563785 0.18233376227 0.18072136689 0.17970706933 0.17929861567 
0.17946812716 0.18014930477 0.18123875548 0.18260330828 0.18409330795 0.18555932203 0.18686826749 0.18791557778 0.18863192935 
0.1889848408 0.18897638476 0.1886383707 0.1880260834 0.187211335 0.18627533234 0.18530166427 0.18436955505 0.18354741745 
0.18288669416 0.18241603194 0.18213602427 0.18201505888 0.18198707199 0.18195202914 0.18177962973 0.18131619235 0.18039415664 
0.17884328341 0.17650245453 0.17323091668 0.16891785934 0.16348938408 0.15691221454 0.14919388265 0.14037954559 0.13054597573 
0.11979357166 0.10823742632 0.095998536628 0.083196137565 0.069941898555 0.056336369645 0.042467678869 0.02841215486 0.01423636004 
2.3880744364e-16 
_area 1 100 double
0 0.0005420965561 0.0021487544435 0.0047636562002 0.0083009663197 0.012655513916 0.01771376162 0.023363203788 0.029498304541 
0.036022091285 0.04284385118 0.04987464981 0.057023121512 0.064193847736 0.071289710258 0.078218251062 0.084900661045 0.091280781536 
0.097330691375 0.10304965114 0.10845520287 0.11356898241 0.1184029767 0.12295166528 0.12719196552 0.13108905909 0.13460410374 
0.13770023196 0.14034565587 0.1425150732 0.144190998 0.14536531802 0.14603983324 0.1462240894 0.1459300502 0.14516558987 
0.14393069084 0.1422194821 0.14002785706 0.13736327258 0.13425285468 0.13074746203 0.12692105575 0.12286598542 0.1186871876 
0.1145196621 0.11060454658 0.10696971041 0.10339238655 0.099896914413 0.096486990273 0.09319218512 0.090105055766 0.087370698011 
0.085145793427 0.083506690316 0.082472286156 0.081971809661 0.081836318413 0.081866510359 0.081879988587 0.081735528297 0.081342319712 
0.08065709874 0.079675241423 0.078420586772 0.076936225917 0.075279936936 0.073530170348 0.071799282213 0.070240959124 0.069048286107 
0.068451502984 0.068614560374 0.069439301176 0.070784780554 0.072521982184 0.074490234589 0.076490479813 0.078292137106 0.079647105571 
0.080309073097 0.080055888833 0.078712107049 0.076168774976 0.072397852995 0.067459110901 0.06149804302 0.054734452591 0.047442818483 
0.039927049287 0.032493318187 0.025425030452 0.018963498184 0.013296700009 0.0085568736989 0.0048260070467 0.0021469207807 0.00053681930969 
5.7286502563e-17 
