# vtk DataFile Version 5.1
vtk output
ASCII
DATASET POLYDATA
POINTS 100 float
0.0958806 0.043344 0.630113 0.0959092 0.0435539 0.630049 0.0960776 0.0440209 0.629648 
0.0963501 0.0447129 0.628853 0.0966705 0.0455799 0.627576 0.0969685 0.0465579 0.625707 
0.0971667 0.0475742 0.623134 0.0971879 0.0485525 0.619746 0.0969625 0.0494189 0.615458 
0.0964338 0.0501072 0.61021 0.0955617 0.0505636 0.603982 0.094324 0.0507503 0.596794 
0.0927148 0.0506473 0.588705 0.0907416 0.0502534 0.579806 0.0884202 0.0495851 0.570211 
0.0857695 0.0486745 0.560049 0.0828064 0.0475656 0.549447 0.0795414 0.0463104 0.538526 
0.0759766 0.0449642 0.527385 0.072105 0.0435808 0.516101 0.0679123 0.0422087 0.504724 
0.0633804 0.0408875 0.493277 0.0584923 0.0396457 0.481764 0.0532372 0.0384997 0.470169 
0.0476153 0.0374537 0.45847 0.0416413 0.0365015 0.446641 0.0353463 0.0356292 0.434659 
0.0287765 0.0348178 0.422505 0.0219911 0.0340477 0.41017 0.0150566 0.0333023 0.397649 
0.00804083 0.0325714 0.384937 0.00100617 0.0318545 0.372028 -0.00599697 0.0311622 0.358908 
-0.0129348 0.0305179 0.345549 -0.0197924 0.0299566 0.331908 -0.0265736 0.0295237 0.317926 
-0.0332973 0.0292722 0.303532 -0.039991 0.0292589 0.288642 -0.0466827 0.0295404 0.273172 
-0.0533914 0.030168 0.257042 -0.0601172 0.031184 0.240189 -0.066834 0.032617 0.222569 
-0.0734834 0.0344794 0.204164 -0.079973 0.0367649 0.184991 -0.0861783 0.0394482 0.165094 
-0.0919489 0.042485 0.144547 -0.097118 0.0458148 0.123447 -0.101515 0.0493629 0.101904 
-0.10498 0.0530457 0.0800349 -0.107376 0.0567742 0.0579538 -0.108605 0.0604598 0.0357634 
-0.108611 0.0640187 0.0135499 -0.107393 0.0673764 -0.00862116 -0.105002 0.0704708 -0.0307051 
-0.101535 0.0732549 -0.0526766 -0.0971309 0.075698 -0.074525 -0.091955 0.0777853 -0.0962496 
-0.0861861 0.0795166 -0.117853 -0.0800005 0.0809039 -0.139335 -0.0735585 0.081968 -0.160691 
-0.0669914 0.0827352 -0.181903 -0.0603938 0.0832327 -0.202945 -0.0538189 0.0834857 -0.223783 
-0.0472795 0.0835139 -0.244374 -0.0407528 0.0833293 -0.264674 -0.0341893 0.0829349 -0.284637 
-0.0275244 0.0823244 -0.304225 -0.020691 0.0814832 -0.323404 -0.0136328 0.0803896 -0.342146 
-0.0063152 0.0790177 -0.360432 0.00126627 0.07734 -0.378242 0.00908076 0.0753304 -0.39556 
0.0170614 0.072967 -0.412364 0.0251084 0.0702349 -0.428627 0.0330958 0.0671274 -0.444312 
0.0408808 0.0636479 -0.459374 0.0483156 0.0598095 -0.47376 0.0552585 0.0556354 -0.487416 
0.0615856 0.0511569 -0.500291 0.0671998 0.0464129 -0.512343 0.0720379 0.0414473 -0.523546 
0.0760738 0.0363077 -0.533896 0.0793195 0.0310435 -0.543415 0.0818216 0.0257044 -0.552152 
0.0836558 0.0203397 -0.560176 0.0849196 0.0149976 -0.567578 0.0857232 0.00972503 -0.574458 
0.0861801 0.00456794 -0.580914 0.086399 -0.000428296 -0.587036 0.0864761 -0.00521842 -0.592888 
0.0864899 -0.00975693 -0.598508 0.0864979 -0.0139979 -0.603895 0.0865359 -0.0178954 -0.609015 
0.0866189 -0.0214038 -0.613796 0.0867447 -0.0244789 -0.61814 0.086898 -0.0270794 -0.621931 
0.0870561 -0.0291682 -0.62505 0.0871941 -0.0307139 -0.627383 0.08729 -0.0316924 -0.628839 
0.0873284 -0.0320881 -0.629357 
LINES 2 100
OFFSETS vtktypeint64
0 100 
CONNECTIVITY vtktypeint64
0 1 2 3 4 5 6 7 8 
9 10 11 12 13 14 15 16 17 
18 19 20 21 22 23 24 25 26 
27 28 29 30 31 32 33 34 35 
36 37 38 39 40 41 42 43 44 
45 46 47 48 49 50 51 52 53 
54 55 56 57 58 59 60 61 62 
63 64 65 66 67 68 69 70 71 
72 73 74 75 76 77 78 79 80 
81 82 83 84 85 86 87 88 89 
90 91 92 93 94 95 96 97 98 
99 
POINT_DATA 100
FIELD FieldData 3
_theta 1 100 double
0 0.031733259127 0.063466518254 0.095199777382 0.12693303651 0.15866629564 0.19039955476 0.22213281389 0.25386607302 
0.28559933214 0.31733259127 0.3490658504 0.38079910953 0.41253236865 0.44426562778 0.47599888691 0.50773214603 0.53946540516 
0.57119866429 0.60293192342 0.63466518254 0.66639844167 0.6981317008 0.72986495992 0.76159821905 0.79333147818 0.82506473731 
0.85679799643 0.88853125556 0.92026451469 0.95199777382 0.98373103294 1.0154642921 1.0471975512 1.0789308103 1.1106640695 
1.1423973286 1.1741305877 1.2058638468 1.237597106 1.2693303651 1.3010636242 1.3327968833 1.3645301425 1.3962634016 
1.4279966607 1.4597299198 1.491463179 1.5231964381 1.5549296972 1.5866629564 1.6183962155 1.6501294746 1.6818627337 
1.7135959929 1.745329252 1.7770625111 1.8087957702 1.8405290294 1.8722622885 1.9039955476 1.9357288068 1.9674620659 
1.999195325 2.0309285841 2.0626618433 2.0943951024 2.1261283615 2.1578616206 2.1895948798 2.2213281389 2.253061398 
2.2847946572 2.3165279163 2.3482611754 2.3799944345 2.4117276937 2.4434609528 2.4751942119 2.506927471 2.5386607302 
2.5703939893 2.6021272484 2.6338605076 2.6655937667 2.6973270258 2.7290602849 2.7607935441 2.7925268032 2.8242600623 
2.8559933214 2.8877265806 2.9194598397 2.9511930988 2.982926358 3.0146596171 3.0463928762 3.0781261353 3.1098593945 
3.1415926536 
_radius 1 100 double
8.9047936885e-16 0.014275824437 0.028415341465 0.04228449001 0.05576683256 0.068769805083 0.08122818339 0.093104701893 0.10438819916 
0.11508991881 0.12523862161 0.1348750161 0.14404581313 0.15279758691 0.16117067025 0.16919352381 0.17687830219 0.1842185254 
0.19118968417 0.1977531734 0.20386322982 0.20947576449 0.21455740567 0.21909290658 0.22308937246 0.22657641177 0.22960212552 
0.23222561806 0.23450730087 0.23649859236 0.23823267017 0.23971772201 0.24093372747 0.24183330087 0.24234664783 0.24239026106 
0.24187855287 0.24073718383 0.23891649439 0.23640329725 0.23322937501 0.22947530863 0.22526868857 0.22077632165 0.21619075954 
0.21171235734 0.20752906547 0.20379704671 0.20062558918 0.19806925331 0.19612867958 0.19475941859 0.19388620927 0.19341891292 
0.19326620501 0.19334431031 0.19358025037 0.19391128458 0.19428324844 0.19464984365 0.19497335527 0.19522601815 0.19539096565 
0.1954621192 0.19544293035 0.19534419822 0.19518123248 0.19497058479 0.19472658686 0.19445802554 0.19416533816 0.19383859715 
0.19345627615 0.19298452591 0.19237665466 0.19157276285 0.19049985918 0.18907302841 0.18719818907 0.18477670308 0.18171172088 
0.17791577789 0.17331882998 0.16787561146 0.16157097086 0.15442184457 0.14647494883 0.13780014821 0.12848057624 0.11860150536 
0.10824028731 0.097459337479 0.086303387789 0.074801391243 0.062972604588 0.05083546644 0.038417058273 0.025760542711 0.012928345592 
1.1280573516e-15 
_area 1 100 double
0 0.00058210138005 0.0023092848452 0.0051252211836 0.0089394062846 0.013632060479 0.019060778802 0.025068861716 0.031495213666 
0.038185493267 0.045003836865 0.051844022623 0.058638496264 0.065363366308 0.072037428157 0.07871359663 0.085461947629 0.092345362219 
0.099392278126 0.10657538032 0.11380591543 0.12094753586 0.1278449197 0.13435696852 0.14038367421 0.14587833825 0.15084210203 
0.15530509992 0.15930435544 0.16286778017 0.16600679175 0.16871343374 0.17095608372 0.17267154368 0.17375846927 0.17408199966 
0.17349633462 0.17188190066 0.16918247419 0.16541734554 0.16066083979 0.15504114499 0.14876192613 0.14209388416 0.13533746416 
0.12878210803 0.12267657695 0.11721197507 0.11251241772 0.10867777656 0.10587364249 0.10393231503 0.10246303738 0.10127141782 
0.10025755611 0.099233477947 0.098159726466 0.097025589137 0.095815862818 0.09448722507 0.092978677047 0.091252041026 0.089317174343 
0.087232425488 0.085091289439 0.083008923318 0.081116086102 0.079556667094 0.07847548279 0.077990262814 0.078157789565 0.078957876891 
0.080298733548 0.082034563092 0.083988718096 0.085970554564 0.087783921481 0.089231091202 0.09011599429 0.090250321599 0.089465053336 
0.087627478551 0.084660990941 0.080562819866 0.075413909403 0.069376095462 0.062674934292 0.055571089199 0.048327047596 0.041177381578 
0.034309416353 0.027857874804 0.021913017842 0.016538048728 0.011789085157 0.0077305572695 0.004440746486 0.0020060320548 0.0005067015963 
2.4760348845e-17 
