# vtk DataFile Version 5.1
vtk output
ASCII
DATASET POLYDATA
POINTS 100 float
0.142402 0.0260802 0.610366 0.142215 0.0264653 0.610375 0.141767 0.0274501 0.610276 
0.141071 0.0289655 0.610014 0.140146 0.0309052 0.609504 0.139013 0.0331369 0.608633 
0.13769 0.0355164 0.607276 0.136193 0.0379014 0.605303 0.134526 0.0401651 0.602588 
0.132681 0.0422066 0.599024 0.13064 0.043957 0.594529 0.128368 0.045381 0.589058 
0.125821 0.0464744 0.582598 0.122948 0.0472572 0.575181 0.119693 0.0477645 0.566871 
0.116003 0.0480356 0.557765 0.111835 0.0481049 0.547985 0.107157 0.0479941 0.537661 
0.101955 0.0477077 0.526929 0.0962363 0.0472335 0.515911 0.0900267 0.0465458 0.504713 
0.0833733 0.0456127 0.493409 0.0763387 0.0444057 0.482046 0.0689962 0.0429091 0.470631 
0.0614243 0.0411297 0.459143 0.053699 0.0391024 0.447533 0.045888 0.0368934 0.435733 
0.0380449 0.034598 0.423666 0.0302051 0.0323345 0.411255 0.0223839 0.0302341 0.398432 
0.0145774 0.028428 0.385146 0.00676556 0.0270341 0.371368 -0.00108303 0.026144 0.357088 
-0.00900383 0.025813 0.342319 -0.0170287 0.026054 0.327086 -0.0251776 0.0268366 0.311422 
-0.0334517 0.0280912 0.29536 -0.0418274 0.029718 0.27892 -0.0502531 0.0315995 0.262109 
-0.0586484 0.0336154 0.244911 -0.0669064 0.0356572 0.22729 -0.0748986 0.0376411 0.209191 
-0.0824827 0.0395174 0.190545 -0.0895115 0.0412753 0.171284 -0.0958425 0.0429421 0.151345 
-0.101349 0.0445772 0.130686 -0.105926 0.046262 0.109298 -0.109502 0.0480864 0.0872069 
-0.112038 0.0501346 0.0644814 -0.113532 0.0524713 0.0412319 -0.114016 0.0551303 0.0176041 
-0.113551 0.0581078 -0.00623017 -0.112223 0.0613601 -0.0300868 -0.110132 0.0648061 -0.053784 
-0.107383 0.0683352 -0.0771574 -0.10408 0.071818 -0.100074 -0.100316 0.0751193 -0.122442 
-0.0961698 0.0781114 -0.144215 -0.0917002 0.0806853 -0.165394 -0.0869486 0.0827596 -0.186022 
-0.0819385 0.0842849 -0.206173 -0.0766807 0.0852442 -0.225938 -0.0711778 0.0856489 -0.245412 
-0.0654307 0.0855313 -0.264677 -0.0594444 0.0849363 -0.283789 -0.0532333 0.0839108 -0.302774 
-0.0468246 0.0824959 -0.321616 -0.0402606 0.0807209 -0.340265 -0.0335982 0.0786 -0.358643 
-0.0269073 0.076134 -0.376652 -0.0202672 0.0733142 -0.394189 -0.0137617 0.07013 -0.411163 
-0.00747452 0.0665769 -0.427506 -0.00148434 0.0626652 -0.443182 0.00413947 0.0584264 -0.458194 
0.00933964 0.0539175 -0.47258 0.0140725 0.0492206 -0.486412 0.018308 0.0444391 -0.499779 
0.0220283 0.0396903 -0.512774 0.025226 0.0350945 -0.525477 0.0279006 0.0307632 -0.53794 
0.0300568 0.0267877 -0.550171 0.0317016 0.0232289 -0.562129 0.0328435 0.020111 -0.573722 
0.0334922 0.0174197 -0.584811 0.03366 0.0151044 -0.595224 0.0333637 0.0130866 -0.604773 
0.0326276 0.0112701 -0.613275 0.0314865 0.00955489 -0.620576 0.0299881 0.00785134 -0.626569 
0.0281951 0.00609259 -0.631213 0.0261854 0.00424429 -0.634541 0.0240507 0.00230985 -0.63666 
0.0218934 0.00033053 -0.637745 0.0198221 -0.00161963 -0.638025 0.0179453 -0.00344339 -0.637757 
0.0163646 -0.00503313 -0.637206 0.015168 -0.0062851 -0.636612 0.0144234 -0.00711332 -0.636168 
0.0141736 -0.00746104 -0.635999 
LINES 2 100
OFFSETS vtktypeint64
0 100 
CONNECTIVITY vtktypeint64
0 1 2 3 4 5 6 7 8 
9 10 11 12 13 14 15 16 17 
18 19 20 21 22 23 24 25 26 
27 28 29 30 31 32 33 34 35 
36 37 38 39 40 41 42 43 44 
45 46 47 48 49 50 51 52 53 
54 55 56 57 58 59 60 61 62 
63 64 65 66 67 68 69 70 71 
72 73 74 75 76 77 78 79 80 
81 82 83 84 85 86 87 88 89 
90 91 92 93 94 95 96 97 98 
99 
POINT_DATA 100
FIELD FieldData 3
_theta 1 100 double
0 0.031733259127 0.063466518254 0.095199777382 0.12693303651 0.15866629564 0.19039955476 0.22213281389 0.25386607302 
0.28559933214 0.31733259127 0.3490658504 0.38079910953 0.41253236865 0.44426562778 0.47599888691 0.50773214603 0.53946540516 
0.57119866429 0.60293192342 0.63466518254 0.66639844167 0.6981317008 0.72986495992 0.76159821905 0.79333147818 0.82506473731 
0.85679799643 0.88853125556 0.92026451469 0.95199777382 0.98373103294 1.0154642921 1.0471975512 1.0789308103 1.1106640695 
1.1423973286 1.1741305877 1.2058638468 1.237597106 1.2693303651 1.3010636242 1.3327968833 1.3645301425 1.3962634016 
1.4279966607 1.4597299198 1.491463179 1.5231964381 1.5549296972 1.5866629564 1.6183962155 1.6501294746 1.6818627337 
1.7135959929 1.745329252 1.7770625111 1.8087957702 1.8405290294 1.8722622885 1.9039955476 1.9357288068 1.9674620659 
1.999195325 2.0309285841 2.0626618433 2.0943951024 2.1261283615 2.1578616206 2.1895948798 2.2213281389 2.253061398 
2.2847946572 2.3165279163 2.3482611754 2.3799944345 2.4117276937 2.4434609528 2.4751942119 2.506927471 2.5386607302 
2.5703939893 2.6021272484 2.6338605076 2.6655937667 2.6973270258 2.7290602849 2.7607935441 2.7925268032 2.8242600623 
2.8559933214 2.8877265806 2.9194598397 2.9511930988 2.982926358 3.0146596171 3.0463928762 3.0781261353 3.1098593945 
3.1415926536 
_radius 1 100 double
1.0090843367e-15 0.015732976028 0.031270856 0.046429241676 0.061055674963 0.075040046313 0.088318960014 0.10087379024 0.11272330114 
0.1239126369 0.13450095007 0.14454977894 0.15411359866 0.16323309594 0.17193105326 0.18021048609 0.18805479051 0.19542989502 
0.20228854894 0.20857680034 0.21424239711 0.21924433354 0.22356218837 0.22720347002 0.23020713902 0.23264196753 0.23459937794 
0.23618162072 0.23748722399 0.23859624031 0.23955779663 0.24038191661 0.2410367722 0.24145168128 0.24152547212 0.24113932986 
0.24017287427 0.23852190644 0.23611597255 0.23293367248 0.2290135936 0.22445897161 0.21943473293 0.2141564704 0.20887209675 
0.20383825987 0.19929481536 0.19544139886 0.19242013321 0.19030753476 0.18911661224 0.18880718926 0.18929970069 0.19048693244 
0.19224054861 0.19441363863 0.19684376019 0.19936052403 0.20179826086 0.20401079376 0.20588422676 0.20734487394 0.2083614401 
0.20894206409 0.20912752432 0.20898202611 0.20858286232 0.20801005505 0.20733691753 0.20662231117 0.20590513947 0.2052012482 
0.20450245694 0.20377716666 0.20297206846 0.20201482015 0.20081783338 0.19928329522 0.19730928625 0.19479655082 0.1916552606 
0.18781100764 0.18320926109 0.17781764049 0.17162562629 0.1646417308 0.15688862338 0.14839712996 0.13920028987 0.12932865881 
0.11880778488 0.10765833408 0.095898831005 0.083550506428 0.070643346207 0.057222143914 0.043351234276 0.029116708843 0.014625328757 
9.6569391291e-16 
_area 1 100 double
0 0.00058342118653 0.002312932978 0.0051288297436 0.00893940906 0.013630808967 0.019078197364 0.025156894542 0.031751788776 
0.038763299775 0.046108736087 0.053719151574 0.061533158142 0.069489960067 0.07752381394 0.085561276727 0.093521412608 0.10131819325 
0.10886413445 0.11607473084 0.12287379498 0.12919967148 0.13501158367 0.14029468795 0.14506201663 0.14935167899 0.15321903137 
0.15672538571 0.15992545138 0.16285486237 0.16551844813 0.16788031163 0.16985767992 0.17132096706 0.17210209237 0.17201178603 
0.17086463703 0.16850854047 0.16485365832 0.1598954703 0.15372707361 0.14653764762 0.13859689097 0.13022865954 0.1217797776 
0.11359079889 0.10597362405 0.099196632903 0.093473281017 0.088954749923 0.085741200154 0.083706205863 0.082672832763 0.082518450682 
0.083102408529 0.084296392462 0.085970189481 0.087877774778 0.089759789952 0.091396601036 0.092632206598 0.093383939809 0.093626813756 
0.09337596239 0.09268353298 0.091614837877 0.090261763224 0.088765919312 0.087302126424 0.086056637633 0.08521329757 0.084964706551 
0.085743056669 0.087187739746 0.088902282759 0.090689724762 0.09236025002 0.093715675903 0.094554473044 0.094682571464 0.093929272787 
0.092165953661 0.089323211398 0.085401578352 0.080472335598 0.07466781738 0.068163779174 0.061158607908 0.053854558991 0.046444804122 
0.039107590478 0.032006323018 0.025292816463 0.019110703258 0.01359680417 0.0088796000368 0.0050751858382 0.0022818345653 0.00057445690546 
6.9661048357e-18 
