# vtk DataFile Version 5.1
vtk output
ASCII
DATASET POLYDATA
POINTS 100 float
0.134286 0.0636442 0.700057 0.134398 0.0637051 0.699925 0.134773 0.0637248 0.699315 
0.135342 0.0637094 0.698185 0.136005 0.0636685 0.696473 0.136634 0.0636145 0.694098 
0.137093 0.0635605 0.690976 0.137247 0.0635193 0.687028 0.136983 0.0635005 0.682185 
0.136212 0.0635092 0.676402 0.134883 0.0635438 0.669662 0.132981 0.0635942 0.66198 
0.130524 0.0636416 0.653405 0.127557 0.0636578 0.644015 0.124144 0.0636062 0.633914 
0.120353 0.0634439 0.62322 0.116246 0.0631244 0.612062 0.111872 0.0626018 0.600563 
0.107258 0.0618349 0.588833 0.102408 0.0607924 0.576959 0.0973058 0.0594569 0.564999 
0.0919192 0.0578293 0.552979 0.0862079 0.0559306 0.540895 0.0801337 0.0538037 0.528711 
0.0736691 0.0515115 0.516371 0.0668051 0.0491346 0.503805 0.0595552 0.046766 0.49094 
0.0519566 0.044505 0.477707 0.044067 0.0424495 0.464057 0.0359577 0.0406889 0.449958 
0.0277054 0.0392961 0.435406 0.0193813 0.0383223 0.420422 0.0110423 0.0377926 0.405044 
0.00272331 0.0377039 0.389329 -0.00556672 0.0380266 0.373333 -0.0138444 0.0387074 0.357107 
-0.0221473 0.0396751 0.340683 -0.0305246 0.0408483 0.324066 -0.0390256 0.0421435 0.307226 
-0.0476859 0.0434835 0.290098 -0.0565141 0.0448049 0.272582 -0.0654811 0.0460642 0.254549 
-0.0745119 0.047241 0.235856 -0.0834844 0.0483392 0.216355 -0.0922317 0.0493852 0.195912 
-0.100552 0.0504238 0.17442 -0.108222 0.0515116 0.151818 -0.115015 0.05271 0.128095 
-0.120716 0.0540769 0.103303 -0.125145 0.0556593 0.0775529 -0.128169 0.0574874 0.0510096 
-0.129713 0.0595698 0.0238845 -0.129768 0.0618916 -0.00358149 -0.128385 0.0644147 -0.0311346 
-0.125675 0.0670804 -0.058527 -0.12179 0.0698135 -0.0855341 -0.116913 0.0725282 -0.111969 
-0.111236 0.0751341 -0.137695 -0.104946 0.0775427 -0.162626 -0.0982067 0.0796723 -0.186734 
-0.0911502 0.0814526 -0.210036 -0.083868 0.0828275 -0.232587 -0.0764107 0.0837557 -0.254469 
-0.0687908 0.0842113 -0.275772 -0.0609911 0.0841816 -0.296585 -0.0529752 0.0836658 -0.316977 
-0.0446996 0.0826722 -0.336997 -0.0361254 0.0812163 -0.356661 -0.0272289 0.0793193 -0.375959 
-0.0180086 0.077007 -0.394855 -0.00848858 0.0743098 -0.413295 0.00128079 0.071263 -0.43122 
0.0112268 0.0679076 -0.448571 0.0212602 0.0642908 -0.465301 0.0312826 0.0604666 -0.481381 
0.0411948 0.0564953 -0.496806 0.0509036 0.0524422 -0.511588 0.0603276 0.0483756 -0.525758 
0.0694006 0.0443637 -0.539355 0.0780725 0.0404712 -0.552419 0.0863082 0.0367553 -0.564978 
0.0940845 0.0332627 -0.577045 0.101386 0.0300265 -0.588606 0.108203 0.0270649 -0.599621 
0.114526 0.0243807 -0.610023 0.120343 0.021963 -0.619726 0.125643 0.0197894 -0.628633 
0.130413 0.01783 -0.636649 0.134645 0.0160517 -0.643691 0.138333 0.0144226 -0.649704 
0.141483 0.0129166 -0.654669 0.144112 0.0115158 -0.658609 0.146247 0.010213 -0.661591 
0.147931 0.00901193 -0.663721 0.149215 0.00792589 -0.665138 0.150158 0.00697546 -0.665998 
0.150819 0.00618498 -0.66646 0.15125 0.00557869 -0.66667 0.151495 0.00517689 -0.666745 
0.151582 0.00499288 -0.66676 
LINES 2 100
OFFSETS vtktypeint64
0 100 
CONNECTIVITY vtktypeint64
0 1 2 3 4 5 6 7 8 
9 10 11 12 13 14 15 16 17 
18 19 20 21 22 23 24 25 26 
27 28 29 30 31 32 33 34 35 
36 37 38 39 40 41 42 43 44 
45 46 47 48 49 50 51 52 53 
54 55 56 57 58 59 60 61 62 
63 64 65 66 67 68 69 70 71 
72 73 74 75 76 77 78 79 80 
81 82 83 84 85 86 87 88 89 
90 91 92 93 94 95 96 97 98 
99 
POINT_DATA 100
FIELD FieldData 3
_theta 1 100 double
0 0.031733259127 0.063466518254 0.095199777382 0.12693303651 0.15866629564 0.19039955476 0.22213281389 0.25386607302 
0.28559933214 0.31733259127 0.3490658504 0.38079910953 0.41253236865 0.44426562778 0.47599888691 0.50773214603 0.53946540516 
0.57119866429 0.60293192342 0.63466518254 0.66639844167 0.6981317008 0.72986495992 0.76159821905 0.79333147818 0.82506473731 
0.85679799643 0.88853125556 0.92026451469 0.95199777382 0.98373103294 1.0154642921 1.0471975512 1.0789308103 1.1106640695 
1.1423973286 1.1741305877 1.2058638468 1.237597106 1.2693303651 1.3010636242 1.3327968833 1.3645301425 1.3962634016 
1.4279966607 1.4597299198 1.491463179 1.5231964381 1.5549296972 1.5866629564 1.6183962155 1.6501294746 1.6818627337 
1.7135959929 1.745329252 1.7770625111 1.8087957702 1.8405290294 1.8722622885 1.9039955476 1.9357288068 1.9674620659 
1.999195325 2.0309285841 2.0626618433 2.0943951024 2.1261283615 2.1578616206 2.1895948798 2.2213281389 2.253061398 
2.2847946572 2.3165279163 2.3482611754 2.3799944345 2.4117276937 2.4434609528 2.4751942119 2.506927471 2.5386607302 
2.5703939893 2.6021272484 2.6338605076 2.6655937667 2.6973270258 2.7290602849 2.7607935441 2.7925268032 2.8242600623 
2.8559933214 2.8877265806 2.9194598397 2.9511930988 2.982926358 3.0146596171 3.0463928762 3.0781261353 3.1098593945 
3.1415926536 
_radius 1 100 double
1.9012062801e-15 0.015599695151 0.030977532886 0.045921676586 0.060257060184 0.073857949639 0.086654265834 0.09863148186 0.10982481557 
0.12030898741 0.13018503591 0.13956572841 0.14856108007 0.15726539742 0.16574705932 0.1740419542 0.18215115271 0.19004301377 
0.19765944746 0.20492546344 0.21176051026 0.21808968382 0.22385291339 0.22901081708 0.23354681955 0.23746587761 0.24079048267 
0.24355465433 0.24579671605 0.24755182622 0.24884536199 0.24968816755 0.25007437416 0.24998207838 0.24937675772 0.24821699537 
0.24646189447 0.24407944769 0.24105503784 0.23739914948 0.23315327493 0.22839296467 0.22322713578 0.21779326381 0.21224894944 
0.20676132029 0.20149636497 0.19661022375 0.19224358296 0.188518926 0.1855390452 0.18338451945 0.18210823763 0.1817266201 
0.18220964753 0.18347413441 0.18538519746 0.18776834399 0.19043002705 0.1931808847 0.19585547491 0.19832472144 0.20050047001 
0.20233387217 0.20381020869 0.20494241465 0.20576451904 0.20632515569 0.20668079254 0.20688849625 0.20699859927 0.20704809114 
0.20705558212 0.20701827143 0.20691077833 0.20668532187 0.20627275794 0.20558432587 0.20451437204 0.20294453619 0.20074975343 
0.1978059681 0.19399886671 0.18923247323 0.18343631059 0.17657008225 0.16862537379 0.15962451459 0.14961724894 0.13867609464 
0.12689118592 0.11436510177 0.10120783361 0.087531810717 0.073446879087 0.059055332025 0.044447448295 0.029698367272 0.014867319048 
3.6327826134e-16 
_area 1 100 double
0 0.00067414315658 0.0026582033179 0.0058423059494 0.010059816051 0.015109041541 0.020778442212 0.026871597706 0.033228162934 
0.039737177422 0.046339822062 0.053020756185 0.059790634201 0.066665730408 0.073651208725 0.080731855501 0.087870545044 0.095012778117 
0.10209526033 0.10905631306 0.11584524209 0.12242717134 0.12878062218 0.13488818318 0.14072460707 0.14624812121 0.15139814137 
0.15609884808 0.16026673093 0.16382108535 0.16669576365 0.1688466498 0.17024875803 0.17088357354 0.17072409627 0.16972598014 
0.16782984191 0.16497546191 0.16112491073 0.15628922014 0.15055190215 0.14408205518 0.13713029045 0.13000340938 0.12302012538 
0.11645936337 0.11051900392 0.10529980087 0.10081654396 0.097028531255 0.093873976571 0.091321137243 0.08944073556 0.08815360669 
0.08735601513 0.087100472796 0.087355899405 0.088119556679 0.089347713146 0.090908853562 0.092589730677 0.094155636237 0.095409398653 
0.096219519784 0.09652536226 0.096332598663 0.095707833426 0.094778785855 0.0937445209 0.092850028111 0.092254381509 0.092001579615 
0.092064920645 0.092372129795 0.092842703681 0.093412084346 0.094028417428 0.094629924983 0.095115550048 0.095324732341 0.095041066927 
0.09402143128 0.092038605527 0.088923309733 0.084595074924 0.079075884993 0.072486396554 0.065029482654 0.056967574817 0.048598981486 
0.04023559396 0.032181956978 0.024714909363 0.018064104154 0.012395747403 0.0078034655427 0.0043103257955 0.0018842832483 0.00046564290002 
4.2067891312e-17 
