# vtk DataFile Version 5.1
vtk output
ASCII
DATASET POLYDATA
POINTS 100 float
0.119286 0.045157 0.690899 0.119462 0.0452554 0.690354 0.120021 0.0453887 0.688547 
0.12088 0.045555 0.685544 0.121912 0.0457532 0.681447 0.122958 0.045983 0.676383 
0.123847 0.0462453 0.670495 0.124413 0.046542 0.663922 0.124512 0.0468756 0.656791 
0.124037 0.0472474 0.649204 0.12293 0.0476558 0.64123 0.121179 0.0480942 0.63291 
0.118821 0.0485484 0.624253 0.115931 0.0489948 0.615244 0.112612 0.0493993 0.605856 
0.108976 0.0497176 0.596056 0.105132 0.0498967 0.585818 0.10117 0.0498785 0.575128 
0.097152 0.0496045 0.563992 0.0931029 0.0490218 0.55243 0.0890119 0.04809 0.54048 
0.0848354 0.0467872 0.528191 0.0805061 0.0451153 0.515612 0.0759439 0.0431037 0.502787 
0.071069 0.0408105 0.489747 0.0658137 0.0383203 0.476505 0.0601328 0.03574 0.463057 
0.0540093 0.0331916 0.44938 0.0474566 0.0308028 0.435438 0.0405157 0.028697 0.421193 
0.0332483 0.0269835 0.406609 0.0257273 0.025748 0.391663 0.0180258 0.0250462 0.376352 
0.010206 0.0249004 0.360693 0.0023113 0.0252985 0.344726 -0.00563956 0.0261979 0.328506 
-0.0136526 0.0275316 0.312097 -0.0217548 0.0292172 0.295556 -0.0299855 0.0311669 0.278928 
-0.0383845 0.0332973 0.262227 -0.046979 0.0355391 0.245432 -0.0557696 0.0378432 0.228482 
-0.0647189 0.0401848 0.211276 -0.073744 0.0425632 0.193684 -0.0827134 0.0449992 0.175552 
-0.0914504 0.0475281 0.156728 -0.0997421 0.0501922 0.137072 -0.107353 0.0530311 0.116483 
-0.114042 0.0560729 0.0949064 -0.119585 0.0593271 0.0723513 -0.123789 0.0627791 0.0488919 
-0.126515 0.0663886 0.0246658 -0.127683 0.0700912 -0.000136364 -0.127288 0.0738028 -0.0252873 
-0.125393 0.0774264 -0.0505436 -0.122124 0.0808613 -0.0756681 -0.117662 0.084011 -0.100452 
-0.11222 0.086792 -0.124731 -0.106029 0.0891392 -0.148401 -0.0993156 0.0910096 -0.171419 
-0.0922834 0.0923825 -0.193801 -0.0850975 0.0932567 -0.215613 -0.0778751 0.0936453 -0.236952 
-0.0706798 0.0935691 -0.25793 -0.0635234 0.0930485 -0.278647 -0.0563724 0.0920972 -0.299179 
-0.0491596 0.0907168 -0.319557 -0.0417977 0.0888937 -0.339765 -0.0341956 0.0866003 -0.359734 
-0.0262733 0.0837974 -0.379353 -0.0179751 0.0804411 -0.39848 -0.00927923 0.0764902 -0.416961 
-0.00020338 0.0719153 -0.434649 0.00919429 0.0667073 -0.451424 0.0188188 0.0608837 -0.467205 
0.0285454 0.0544933 -0.481963 0.03823 0.0476172 -0.495721 0.0477202 0.0403655 -0.508549 
0.0568679 0.0328723 -0.520552 0.0655393 0.0252862 -0.531854 0.0736244 0.01776 -0.542577 
0.081043 0.0104403 -0.552822 0.0877476 0.00345669 -0.562653 0.0937236 -0.00308652 -0.572089 
0.0989863 -0.00911551 -0.581095 0.103576 -0.0145893 -0.589591 0.10755 -0.0194987 -0.59746 
0.110979 -0.0238612 -0.60457 0.113936 -0.0277152 -0.61079 0.11649 -0.031111 -0.616015 
0.118704 -0.0341026 -0.620181 0.120629 -0.0367401 -0.623286 0.122302 -0.0390636 -0.625387 
0.123748 -0.0410999 -0.626605 0.124979 -0.0428611 -0.627112 0.125999 -0.0443463 -0.627113 
0.126803 -0.0455451 -0.626824 0.127384 -0.0464422 -0.626449 0.127737 -0.047022 -0.626151 
0.127856 -0.0472735 -0.626039 
LINES 2 100
OFFSETS vtktypeint64
0 100 
CONNECTIVITY vtktypeint64
0 1 2 3 4 5 6 7 8 
9 10 11 12 13 14 15 16 17 
18 19 20 21 22 23 24 25 26 
27 28 29 30 31 32 33 34 35 
36 37 38 39 40 41 42 43 44 
45 46 47 48 49 50 51 52 53 
54 55 56 57 58 59 60 61 62 
63 64 65 66 67 68 69 70 71 
72 73 74 75 76 77 78 79 80 
81 82 83 84 85 86 87 88 89 
90 91 92 93 94 95 96 97 98 
99 
POINT_DATA 100
FIELD FieldData 3
_theta 1 100 double
0 0.031733259127 0.063466518254 0.095199777382 0.12693303651 0.15866629564 0.19039955476 0.22213281389 0.25386607302 
0.28559933214 0.31733259127 0.3490658504 0.38079910953 0.41253236865 0.44426562778 0.47599888691 0.50773214603 0.53946540516 
0.57119866429 0.60293192342 0.63466518254 0.66639844167 0.6981317008 0.72986495992 0.76159821905 0.79333147818 0.82506473731 
0.85679799643 0.88853125556 0.92026451469 0.95199777382 0.98373103294 1.0154642921 1.0471975512 1.0789308103 1.1106640695 
1.1423973286 1.1741305877 1.2058638468 1.237597106 1.2693303651 1.3010636242 1.3327968833 1.3645301425 1.3962634016 
1.4279966607 1.4597299198 1.491463179 1.5231964381 1.5549296972 1.5866629564 1.6183962155 1.6501294746 1.6818627337 
1.7135959929 1.745329252 1.7770625111 1.8087957702 1.8405290294 1.8722622885 1.9039955476 1.9357288068 1.9674620659 
1.999195325 2.0309285841 2.0626618433 2.0943951024 2.1261283615 2.1578616206 2.1895948798 2.2213281389 2.253061398 
2.2847946572 2.3165279163 2.3482611754 2.3799944345 2.4117276937 2.4434609528 2.4751942119 2.506927471 2.5386607302 
2.5703939893 2.6021272484 2.6338605076 2.6655937667 2.6973270258 2.7290602849 2.7607935441 2.7925268032 2.8242600623 
2.8559933214 2.8877265806 2.9194598397 2.9511930988 2.982926358 3.0146596171 3.0463928762 3.0781261353 3.1098593945 
3.1415926536 
_radius 1 100 double
1.0374052501e-15 0.01463682165 0.029092825661 0.043196064311 0.056806350693 0.069825560624 0.082202243552 0.093930737566 0.10504568316 
0.11561303378 0.12571857566 0.1354548878 0.14490778146 0.15414355185 0.1631986693 0.17207354347 0.18073148967 0.18910306876 
0.19709493951 0.20460169931 0.21151903754 0.21775666573 0.22324962744 0.22796667494 0.23191459411 0.23513783057 0.23771349256 
0.2397425564 0.24133860959 0.24261560966 0.24367598457 0.24460012019 0.2454380031 0.24620358979 0.24687238434 0.24738269395 
0.24764097297 0.24753141196 0.24692940586 0.24571782115 0.24380426387 0.24113703162 0.23771726565 0.23360510002 0.22891839792 
0.22382396717 0.21852276886 0.21323206518 0.20816796253 0.20353097171 0.19949543788 0.19620201299 0.19375155845 0.19219912163 
0.19154759356 0.19174188756 0.19266571935 0.19414417738 0.19595560848 0.1978544365 0.19960187183 0.20099701441 0.20190059573 
0.2022473312 0.20204692709 0.20137584726 0.20036226003 0.19916637924 0.19795841955 0.1968965844 0.19610754426 0.19567152486 
0.19561346429 0.19590084506 0.19644784662 0.19712456654 0.19776952188 0.19820360951 0.19824399938 0.19771676599 0.19646730724 
0.19436782028 0.19132139297 0.18726265081 0.1821553461 0.17598772434 0.1687668441 0.16051313299 0.15125626146 0.14103294948 
0.12988673469 0.11786920459 0.10504186095 0.091477693438 0.077261686484 0.062489835757 0.047266750864 0.031702448245 0.015909292635 
1.0747410612e-15 
_area 1 100 double
0 0.00061846261991 0.0024385268098 0.005359063262 0.0092265893111 0.013854543829 0.01904497495 0.024609787498 0.030389857152 
0.036271122055 0.042196465194 0.048170918431 0.054256598016 0.060554443907 0.067173251805 0.074191740884 0.081623665913 0.089396575427 
0.097351185223 0.10526218465 0.11287556363 0.11995429148 0.1263231296 0.13190327376 0.13672794664 0.14093160048 0.14471001956 
0.14825952155 0.15171839083 0.15513704634 0.15848445527 0.16167559257 0.16460018915 0.16714211739 0.16918820314 0.17063014761 
0.17136438412 0.17129375094 0.170333127 0.168419532 0.16552589899 0.16167623459 0.1569577763 0.15152437615 0.14558681557 
0.1393900652 0.13318235613 0.1271837856 0.12156136317 0.11641416929 0.11177133835 0.10760676478 0.10386864691 0.10051057708 
0.097510607113 0.094876676165 0.092646650124 0.090870735963 0.089609455267 0.08901343588 0.088915885954 0.089172604417 0.089548409133 
0.089787867976 0.089703030272 0.089195003983 0.088272174371 0.087064828647 0.085759737188 0.084506592679 0.083479103042 0.082853972819 
0.083023460887 0.083728952636 0.084836791082 0.086189179323 0.087601460149 0.088885565999 0.089864931031 0.090377808111 0.090276288787 
0.089427230411 0.087717420238 0.085062327172 0.081416162764 0.076780705775 0.07121092488 0.064816209977 0.057756880418 0.05023660656 
0.042491993415 0.034780291128 0.027365268373 0.0205007938 0.014412592746 0.0092808733504 0.0052287178942 0.0023214674389 0.0005794083546 
7.0456710133e-17 
