# vtk DataFile Version 5.1
vtk output
ASCII
DATASET POLYDATA
POINTS 100 float
0.0917128 0.0340301 0.628813 0.0918749 0.034277 0.628561 0.092393 0.0348624 0.627644 
0.0932081 0.0357496 0.626068 0.0942286 0.0368827 0.623837 0.0953406 0.0381912 0.620955 
0.0964199 0.0395972 0.617426 0.0973446 0.041022 0.613247 0.0980067 0.0423933 0.60841 
0.0983211 0.0436503 0.602903 0.0982306 0.0447478 0.596714 0.0977071 0.0456576 0.589831 
0.0967486 0.0463686 0.58225 0.0953731 0.0468834 0.573979 0.0936098 0.0472153 0.565044 
0.0914901 0.0473829 0.55549 0.0890395 0.0474053 0.545385 0.0862708 0.0472975 0.534815 
0.0831818 0.0470679 0.523879 0.0797555 0.046716 0.512686 0.0759644 0.0462336 0.501341 
0.0717771 0.0456067 0.489936 0.0671672 0.0448195 0.478543 0.0621214 0.0438589 0.467201 
0.0566467 0.0427198 0.455917 0.0507751 0.0414094 0.444659 0.0445636 0.0399506 0.433364 
0.0380913 0.0383839 0.421939 0.0314516 0.0367669 0.410278 0.0247425 0.0351717 0.398268 
0.0180544 0.0336808 0.385806 0.0114587 0.0323811 0.372806 0.00499794 0.031357 0.359214 
-0.00131961 0.0306837 0.345011 -0.00752175 0.0304209 0.330211 -0.0136679 0.0306074 0.314862 
-0.0198401 0.0312587 0.299034 -0.0261291 0.0323653 0.282811 -0.0326191 0.0338941 0.266277 
-0.0393703 0.0357917 0.249502 -0.0464043 0.0379891 0.232532 -0.0536928 0.0404078 0.215385 
-0.0611519 0.042966 0.198044 -0.0686423 0.0455851 0.180458 -0.075977 0.0481944 0.162557 
-0.0829351 0.050736 0.144253 -0.0892793 0.0531664 0.12546 -0.0947777 0.0554583 0.106105 
-0.0992244 0.0575992 0.0861425 -0.102459 0.0595894 0.0655629 -0.10438 0.0614397 0.044398 
-0.104955 0.0631676 0.0227215 -0.104219 0.0647937 0.000643429 -0.102273 0.0663391 -0.0216995 
-0.0992658 0.0678226 -0.0441574 -0.09538 0.0692587 -0.066582 -0.0908118 0.0706572 -0.0888408 
-0.0857504 0.0720221 -0.11083 -0.08036 0.0733523 -0.132481 -0.0747658 0.0746416 -0.153767 
-0.0690469 0.0758792 -0.174696 -0.0632337 0.0770503 -0.195307 -0.0573136 0.078136 -0.215658 
-0.0512408 0.0791136 -0.23581 -0.04495 0.0799562 -0.255815 -0.0383726 0.0806329 -0.275704 
-0.0314513 0.0811087 -0.295475 -0.0241534 0.0813451 -0.315091 -0.0164793 0.0813016 -0.33448 
-0.00846649 0.0809367 -0.35354 -0.000187932 0.0802108 -0.372152 0.00825388 0.0790887 -0.390192 
0.0167368 0.0775425 -0.407545 0.0251307 0.0755548 -0.424117 0.0333097 0.0731212 -0.439849 
0.0411628 0.0702526 -0.454718 0.0486018 0.0669758 -0.468741 0.0555654 0.0633339 -0.481966 
0.0620189 0.0593847 -0.494465 0.0679511 0.0551987 -0.506319 0.0733675 0.0508557 -0.517601 
0.0782824 0.0464406 -0.528368 0.0827106 0.0420394 -0.538642 0.0866611 0.0377345 -0.548412 
0.0901325 0.0336008 -0.557625 0.0931128 0.0297027 -0.566198 0.0955814 0.0260911 -0.574024 
0.0975153 0.0228028 -0.580992 0.0988968 0.0198596 -0.586999 0.0997217 0.0172694 -0.591974 
0.100008 0.0150276 -0.595885 0.0997995 0.0131194 -0.598755 0.0991716 0.0115221 -0.600662 
0.0982264 0.0102084 -0.601736 0.0970886 0.00914846 -0.602152 0.0958954 0.00831285 -0.602107 
0.0947853 0.00767451 -0.601807 0.0938839 0.00721055 -0.60144 0.0932922 0.00690373 -0.601157 
0.0930759 0.0067434 -0.601058 
LINES 2 100
OFFSETS vtktypeint64
0 100 
CONNECTIVITY vtktypeint64
0 1 2 3 4 5 6 7 8 
9 10 11 12 13 14 15 16 17 
18 19 20 21 22 23 24 25 26 
27 28 29 30 31 32 33 34 35 
36 37 38 39 40 41 42 43 44 
45 46 47 48 49 50 51 52 53 
54 55 56 57 58 59 60 61 62 
63 64 65 66 67 68 69 70 71 
72 73 74 75 76 77 78 79 80 
81 82 83 84 85 86 87 88 89 
90 91 92 93 94 95 96 97 98 
99 
POINT_DATA 100
FIELD FieldData 3
_theta 1 100 double
0 0.031733259127 0.063466518254 0.095199777382 0.12693303651 0.15866629564 0.19039955476 0.22213281389 0.25386607302 
0.28559933214 0.31733259127 0.3490658504 0.38079910953 0.41253236865 0.44426562778 0.47599888691 0.50773214603 0.53946540516 
0.57119866429 0.60293192342 0.63466518254 0.66639844167 0.6981317008 0.72986495992 0.76159821905 0.79333147818 0.82506473731 
0.85679799643 0.88853125556 0.92026451469 0.95199777382 0.98373103294 1.0154642921 1.0471975512 1.0789308103 1.1106640695 
1.1423973286 1.1741305877 1.2058638468 1.237597106 1.2693303651 1.3010636242 1.3327968833 1.3645301425 1.3962634016 
1.4279966607 1.4597299198 1.491463179 1.5231964381 1.5549296972 1.5866629564 1.6183962155 1.6501294746 1.6818627337 
1.7135959929 1.745329252 1.7770625111 1.8087957702 1.8405290294 1.8722622885 1.9039955476 1.9357288068 1.9674620659 
1.999195325 2.0309285841 2.0626618433 2.0943951024 2.1261283615 2.1578616206 2.1895948798 2.2213281389 2.253061398 
2.2847946572 2.3165279163 2.3482611754 2.3799944345 2.4117276937 2.4434609528 2.4751942119 2.506927471 2.5386607302 
2.5703939893 2.6021272484 2.6338605076 2.6655937667 2.6973270258 2.7290602849 2.7607935441 2.7925268032 2.8242600623 
2.8559933214 2.8877265806 2.9194598397 2.9511930988 2.982926358 3.0146596171 3.0463928762 3.0781261353 3.1098593945 
3.1415926536 
_radius 1 100 double
4.5289241446e-16 0.013593790901 0.027154057332 0.040640156368 0.054007519118 0.067206860155 0.080184371081 0.092883028484 0.10524495549 
0.11721456281 0.12874202273 0.13978655204 0.15031901508 0.1603234838 0.16979755727 0.17875139752 0.18720555492 0.19518773939 
0.20272877028 0.20985803297 0.21659888484 0.22296455798 0.22895515239 0.23455625334 0.23973950921 0.24446518085 0.24868629165 
0.25235369711 0.25542127613 0.2578505517 0.25961428388 0.26069880062 0.26110496076 0.26084771185 0.25995431264 0.2584614996 
0.2564121647 0.25385236848 0.2508295943 0.24739293899 0.24359539936 0.23949765803 0.2351720405 0.23070493115 0.22619616963 
0.22175484917 0.2174922006 0.21351327079 0.20990937358 0.20675280415 0.20409449624 0.20196447124 0.20037404372 0.19931791819 
0.19877411974 0.19870077963 0.19903106951 0.19966990177 0.20049666362 0.20137621877 0.20217661642 0.20278881375 0.20314305542 
0.20321813994 0.20304216395 0.2026853063 0.20224647828 0.20183635814 0.20155957245 0.2014985772 0.20170112521 0.20217227797 
0.20287111044 0.20371187219 0.20456934019 0.20528804868 0.20569471387 0.20561257641 0.20487590121 0.20334275798 0.20090447792 
0.19749072336 0.19306979036 0.18764448524 0.1812445744 0.17391729494 0.16571764256 0.15670007554 0.1469129016 0.13639601803 
0.12518197391 0.11329966789 0.1007795341 0.087658903528 0.073986374152 0.05982440986 0.045249889691 0.030352805537 0.015233633519 
9.5678920854e-16 
_area 1 100 double
0 0.00051875200134 0.0020669490445 0.0046192949841 0.0081304358587 0.012531885114 0.017730586077 0.023610785843 0.03004002111 
0.036878744619 0.043991914026 0.05126022432 0.058588871824 0.06591263707 0.073197111821 0.080436499797 0.087648435902 0.094866044065 
0.10212752881 0.10946426704 0.11688938897 0.12438946167 0.13192145262 0.1394157563 0.14678431879 0.1539309731 0.16075870862 
0.16716725155 0.17303988778 0.17823202773 0.18257866445 0.18592160688 0.1881403998 0.18917182244 0.18901292293 0.18770978961 
0.18533830794 0.18198726066 0.1777534884 0.17274753576 0.16710029968 0.16096530259 0.15451614465 0.14793967539 0.14142492991 
0.13514816181 0.12925631425 0.12385396594 0.11899440611 0.11467518265 0.11085643833 0.10753019794 0.10481415846 0.10273636449 
0.10104832268 0.099583213065 0.098235144508 0.096979666283 0.095786780613 0.094599054871 0.09334018149 0.091933979564 0.090326967132 
0.0885214102 0.086568391291 0.084543476716 0.082592308022 0.080884342778 0.079577081129 0.078785973151 0.0785681893 0.078920944758 
0.079788274056 0.081070634401 0.082638114482 0.084357383443 0.08620068251 0.087924011505 0.089119720014 0.089561437251 0.089107096284 
0.087687218072 0.085292323307 0.081956351168 0.077740969644 0.07272542595 0.067003720471 0.060687435119 0.053910451334 0.046831810846 
0.039634422656 0.03251905266 0.025694338742 0.019364374058 0.013715878718 0.0089072040307 0.0050612850974 0.0022639973999 0.000567985081 
3.2526065175e-19 
