# vtk DataFile Version 5.1
vtk output
ASCII
DATASET POLYDATA
POINTS 100 float
0.156197 0.0356234 0.688352 0.156297 0.0356739 0.688119 0.156643 0.0356789 0.687303 
0.157162 0.0356583 0.685934 0.15774 0.0356433 0.684053 0.158238 0.0356732 0.681703 
0.158509 0.035791 0.678917 0.158414 0.0360388 0.675705 0.157838 0.0364527 0.672048 
0.156705 0.0370589 0.667891 0.15498 0.0378692 0.663146 0.152675 0.0388789 0.6577 
0.14984 0.0400654 0.65143 0.146554 0.0413887 0.644213 0.14291 0.0427927 0.635952 
0.139 0.0442093 0.626588 0.1349 0.045562 0.616118 0.130657 0.0467717 0.604595 
0.126282 0.0477622 0.592134 0.121748 0.0484661 0.578905 0.116992 0.0488294 0.565114 
0.11193 0.0488163 0.550986 0.106466 0.0484116 0.536742 0.100509 0.0476224 0.522574 
0.0939902 0.0464775 0.508628 0.086878 0.0450261 0.494988 0.0791841 0.043334 0.481668 
0.0709693 0.0414797 0.468617 0.0623392 0.0395487 0.455724 0.0534354 0.037629 0.442837 
0.0444198 0.035805 0.429786 0.035457 0.0341532 0.416402 0.0266943 0.0327385 0.402539 
0.0182438 0.0316113 0.388092 0.0101682 0.0308064 0.373009 0.00247264 0.0303424 0.357289 
-0.00489657 0.0302233 0.34098 -0.012045 0.0304402 0.324164 -0.0191167 0.0309737 0.306941 
-0.0262747 0.0317972 0.28941 -0.0336781 0.0328797 0.271646 -0.0414589 0.0341882 0.253688 
-0.0497001 0.0356904 0.23553 -0.0584192 0.0373559 0.217117 -0.0675579 0.0391572 0.198351 
-0.0769804 0.0410702 0.179108 -0.0864798 0.0430738 0.159255 -0.0957926 0.0451491 0.138672 
-0.10462 0.0472794 0.117271 -0.112652 0.0494483 0.0950181 -0.119595 0.0516401 0.0719414 
-0.125196 0.0538384 0.0481358 -0.129266 0.0560264 0.0237574 -0.13169 0.0581866 -0.000989525 
-0.13244 0.0603007 -0.0258728 -0.131571 0.06235 -0.0506558 -0.12921 0.0643155 -0.0751216 
-0.125547 0.0661778 -0.0990951 -0.12081 0.067917 -0.122458 -0.115242 0.0695127 -0.14516 
-0.109083 0.0709439 -0.167213 -0.102547 0.0721883 -0.188688 -0.0958071 0.073223 -0.209694 
-0.0889868 0.0740243 -0.230359 -0.0821569 0.0745685 -0.250806 -0.0753389 0.0748331 -0.271134 
-0.0685134 0.074798 -0.291395 -0.0616336 0.0744474 -0.311589 -0.0546402 0.0737721 -0.331663 
-0.0474775 0.0727703 -0.351512 -0.0401073 0.07145 -0.370997 -0.03252 0.0698294 -0.389964 
-0.0247417 0.0679369 -0.408264 -0.0168366 0.0658104 -0.425773 -0.0089044 0.0634952 -0.442406 
-0.00107358 0.0610413 -0.458133 0.0065083 0.0584999 -0.472969 0.0136866 0.0559196 -0.486976 
0.0203121 0.0533423 -0.500243 0.0262527 0.0508001 -0.512867 0.0314034 0.0483126 -0.524931 
0.0356936 0.0458858 -0.536483 0.0390909 0.0435121 -0.547521 0.0416016 0.0411722 -0.557984 
0.0432685 0.038838 -0.567751 0.0441654 0.0364777 -0.576659 0.0443904 0.0340602 -0.584513 
0.0440578 0.031561 -0.591121 0.0432894 0.0289674 -0.596321 0.0422076 0.0262822 -0.600006 
0.0409279 0.0235271 -0.602153 0.0395548 0.0207428 -0.602836 0.0381778 0.0179885 -0.602228 
0.0368703 0.0153384 -0.600598 0.0356894 0.0128768 -0.598284 0.0346776 0.010692 -0.595667 
0.0338643 0.00886906 -0.593136 0.033269 0.00748313 -0.591044 0.0329033 0.0065928 -0.589674 
0.0327734 0.00623521 -0.589209 
LINES 2 100
OFFSETS vtktypeint64
0 100 
CONNECTIVITY vtktypeint64
0 1 2 3 4 5 6 7 8 
9 10 11 12 13 14 15 16 17 
18 19 20 21 22 23 24 25 26 
27 28 29 30 31 32 33 34 35 
36 37 38 39 40 41 42 43 44 
45 46 47 48 49 50 51 52 53 
54 55 56 57 58 59 60 61 62 
63 64 65 66 67 68 69 70 71 
72 73 74 75 76 77 78 79 80 
81 82 83 84 85 86 87 88 89 
90 91 92 93 94 95 96 97 98 
99 
POINT_DATA 100
FIELD FieldData 3
_theta 1 100 double
0 0.031733259127 0.063466518254 0.095199777382 0.12693303651 0.15866629564 0.19039955476 0.22213281389 0.25386607302 
0.28559933214 0.31733259127 0.3490658504 0.38079910953 0.41253236865 0.44426562778 0.47599888691 0.50773214603 0.53946540516 
0.57119866429 0.60293192342 0.63466518254 0.66639844167 0.6981317008 0.72986495992 0.76159821905 0.79333147818 0.82506473731 
0.85679799643 0.88853125556 0.92026451469 0.95199777382 0.98373103294 1.0154642921 1.0471975512 1.0789308103 1.1106640695 
1.1423973286 1.1741305877 1.2058638468 1.237597106 1.2693303651 1.3010636242 1.3327968833 1.3645301425 1.3962634016 
1.4279966607 1.4597299198 1.491463179 1.5231964381 1.5549296972 1.5866629564 1.6183962155 1.6501294746 1.6818627337 
1.7135959929 1.745329252 1.7770625111 1.8087957702 1.8405290294 1.8722622885 1.9039955476 1.9357288068 1.9674620659 
1.999195325 2.0309285841 2.0626618433 2.0943951024 2.1261283615 2.1578616206 2.1895948798 2.2213281389 2.253061398 
2.2847946572 2.3165279163 2.3482611754 2.3799944345 2.4117276937 2.4434609528 2.4751942119 2.506927471 2.5386607302 
2.5703939893 2.6021272484 2.6338605076 2.6655937667 2.6973270258 2.7290602849 2.7607935441 2.7925268032 2.8242600623 
2.8559933214 2.8877265806 2.9194598397 2.9511930988 2.982926358 3.0146596171 3.0463928762 3.0781261353 3.1098593945 
3.1415926536 
_radius 1 100 double
6.1014937372e-16 0.015311472353 0.03055389961 0.045650429604 0.060514791828 0.075049207824 0.089144981574 0.1026863007 0.11555724274 
0.1276513017 0.13888213198 0.14919384398 0.15856917532 0.16703416133 0.17465837725 0.18155022465 0.18784699256 0.19369972243 
0.19925372516 0.20462732372 0.20989341398 0.21506893302 0.22011523454 0.22494907531 0.22946141957 0.23354008136 0.23709195577 
0.2400609792 0.24243892454 0.24426754514 0.2456321773 0.2466483523 0.24744392409 0.24813950689 0.2488297346 0.24956733962 
0.25035167598 0.25112321649 0.25176552374 0.25211579978 0.25198404559 0.25117922933 0.24953922464 0.24696024464 0.24342131326 
0.23899983718 0.23387529043 0.22831924405 0.2226714996 0.21730409367 0.21257756099 0.20879672734 0.20617512884 0.20481591909 
0.20471193258 0.20576059794 0.20778508001 0.2105542338 0.21379927973 0.21723037818 0.22055783163 0.22351944942 0.2259100002 
0.22760510612 0.22857303576 0.22887190832 0.22863355729 0.22803742625 0.2272788585 0.22653658172 0.22594414972 0.22556939087 
0.2254044396 0.22536695963 0.22531130255 0.22504716286 0.224362916 0.22305085419 0.2209314883 0.21787392568 0.21380945935 
0.20873626032 0.20271439395 0.19585189599 0.1882839362 0.1801479826 0.17155841925 0.16258440477 0.15323483978 0.14345379274 
0.13312823785 0.12210755167 0.11023159903 0.097362353571 0.083413424494 0.068372575708 0.052313906183 0.035398307819 0.017862697385 
5.8435169202e-16 
_area 1 100 double
0 0.00056778527608 0.0022621763468 0.0050555621663 0.0088995367788 0.013721524377 0.019420938237 0.025866394094 0.032896038379 
0.040322862668 0.047945726971 0.055565026136 0.063000378457 0.070107462773 0.076792610083 0.08302556594 0.088849979054 0.094386721956 
0.099821323552 0.10536961099 0.11122441874 0.1174908128 0.12413083268 0.13096710274 0.13774662023 0.14421096518 0.150150446 
0.15544037295 0.16005521341 0.1640586848 0.16757505854 0.17075204771 0.17372577427 0.17659494243 0.17940630004 0.18214803684 
0.18474407718 0.18704373886 0.1888206861 0.18979697937 0.18966800199 0.1881875653 0.18528997364 0.18097244131 0.17522901517 
0.16829362145 0.16054795609 0.15245456743 0.14449433127 0.1371075159 0.13064548995 0.12533834876 0.12128043832 0.11843906046 
0.11669984856 0.11593041166 0.11599580215 0.11672848392 0.11791476009 0.11930180428 0.12061320324 0.1215721322 0.12192460736 
0.12146786516 0.12008978369 0.11780584777 0.11476929245 0.11125591931 0.10764213189 0.104373985 0.10191208026 0.10063562549 
0.10071502581 0.102044005 0.10430550073 0.10708621321 0.10994769367 0.11245961064 0.11422195258 0.11488494801 0.11417208595 
0.11191363164 0.1080777147 0.10277418252 0.096226232615 0.088722261053 0.08056367218 0.07202264812 0.063319662753 0.054623702595 
0.046070445694 0.037787972237 0.029918165012 0.022625200837 0.016088928393 0.010487544227 0.0059776976655 0.0026798212524 0.00067317085215 
9.1362015954e-18 
