# vtk DataFile Version 5.1
vtk output
ASCII
DATASET POLYDATA
POINTS 100 float
0.137933 0.0229657 0.676141 0.138024 0.0233604 0.675863 0.138343 0.0243832 0.674946 
0.138841 0.0259619 0.673415 0.139442 0.0279838 0.671309 0.140054 0.0303075 0.668674 
0.140575 0.0327779 0.665549 0.140908 0.0352414 0.661966 0.140966 0.0375612 0.65794 
0.140681 0.0396299 0.653463 0.140008 0.0413785 0.648509 0.138925 0.0427799 0.64303 
0.13743 0.0438484 0.636966 0.135533 0.0446338 0.630254 0.133253 0.0452114 0.622837 
0.130606 0.0456698 0.614674 0.127598 0.0460978 0.605748 0.124226 0.0465714 0.596073 
0.120469 0.0471437 0.585696 0.116294 0.0478378 0.574696 0.111663 0.0486442 0.563177 
0.106536 0.0495225 0.551259 0.100884 0.0504075 0.539069 0.0946961 0.051218 0.526724 
0.0879878 0.0518686 0.514326 0.0808067 0.0522807 0.501948 0.0732323 0.0523941 0.489629 
0.0653729 0.052175 0.477372 0.0573576 0.0516214 0.465148 0.0493249 0.0507646 0.452897 
0.0414088 0.0496662 0.44054 0.0337247 0.0484121 0.427991 0.0263563 0.0471034 0.415162 
0.0193451 0.0458461 0.401976 0.0126857 0.0447396 0.388373 0.00632527 0.0438674 0.374314 
0.000169646 0.0432891 0.359781 -0.00590507 0.043036 0.344773 -0.012037 0.0431093 0.329301 
-0.0183602 0.0434828 0.313381 -0.0249858 0.0441075 0.297028 -0.031985 0.0449194 0.280246 
-0.0393759 0.0458482 0.263027 -0.0471157 0.0468256 0.245348 -0.0550995 0.0477939 0.227173 
-0.063166 0.0487116 0.20846 -0.0711095 0.0495573 0.189162 -0.078697 0.0503305 0.169241 
-0.0856885 0.05105 0.148674 -0.0918587 0.0517498 0.127461 -0.0970163 0.052473 0.105625 
-0.101022 0.0532659 0.0832195 -0.103797 0.0541702 0.0603223 -0.105332 0.0552181 0.0370313 
-0.105681 0.0564269 0.0134568 -0.104957 0.0577964 -0.0102884 -0.103316 0.0593081 -0.0340979 
-0.100939 0.0609262 -0.0578803 -0.0980174 0.0626 -0.0815648 -0.0947289 0.064268 -0.105104 
-0.0912269 0.0658622 -0.128471 -0.0876261 0.0673124 -0.151659 -0.083997 0.0685509 -0.174668 
-0.0803647 0.0695154 -0.197503 -0.0767135 0.0701519 -0.220156 -0.0729958 0.0704163 -0.242608 
-0.0691441 0.0702751 -0.264813 -0.0650844 0.0697055 -0.286706 -0.0607502 0.0686955 -0.308198 
-0.0560932 0.067243 -0.329182 -0.0510927 0.0653558 -0.349547 -0.04576 0.0630515 -0.369184 
-0.0401394 0.0603574 -0.387998 -0.0343045 0.0573107 -0.405921 -0.0283523 0.0539585 -0.422916 
-0.0223937 0.0503578 -0.438982 -0.0165441 0.046575 -0.454155 -0.0109134 0.0426843 -0.468497 
-0.0055973 0.0387658 -0.482094 -0.000670537 0.0349033 -0.495039 0.00381691 0.03118 -0.507419 
0.00784125 0.0276757 -0.519304 0.0114035 0.0244624 -0.530736 0.0145261 0.0216008 -0.541722 
0.0172474 0.0191369 -0.552231 0.0196165 0.0171003 -0.562201 0.0216866 0.0155021 -0.571545 
0.0235097 0.0143354 -0.580162 0.0251323 0.0135758 -0.587951 0.0265925 0.0131834 -0.59483 
0.0279178 0.013106 -0.600742 0.0291251 0.0132819 -0.605668 0.0302214 0.013644 -0.609634 
0.0312054 0.014123 -0.612702 0.0320697 0.0146516 -0.614973 0.032803 0.0151671 -0.616568 
0.0333925 0.0156144 -0.617619 0.0338257 0.0159482 -0.618251 0.0340924 0.0161345 -0.618566 
0.0341856 0.0161522 -0.61863 
LINES 2 100
OFFSETS vtktypeint64
0 100 
CONNECTIVITY vtktypeint64
0 1 2 3 4 5 6 7 8 
9 10 11 12 13 14 15 16 17 
18 19 20 21 22 23 24 25 26 
27 28 29 30 31 32 33 34 35 
36 37 38 39 40 41 42 43 44 
45 46 47 48 49 50 51 52 53 
54 55 56 57 58 59 60 61 62 
63 64 65 66 67 68 69 70 71 
72 73 74 75 76 77 78 79 80 
81 82 83 84 85 86 87 88 89 
90 91 92 93 94 95 96 97 98 
99 
POINT_DATA 100
FIELD FieldData 3
_theta 1 100 double
0 0.031733259127 0.063466518254 0.095199777382 0.12693303651 0.15866629564 0.19039955476 0.22213281389 0.25386607302 
0.28559933214 0.31733259127 0.3490658504 0.38079910953 0.41253236865 0.44426562778 0.47599888691 0.50773214603 0.53946540516 
0.57119866429 0.60293192342 0.63466518254 0.66639844167 0.6981317008 0.72986495992 0.76159821905 0.79333147818 0.82506473731 
0.85679799643 0.88853125556 0.92026451469 0.95199777382 0.98373103294 1.0154642921 1.0471975512 1.0789308103 1.1106640695 
1.1423973286 1.1741305877 1.2058638468 1.237597106 1.2693303651 1.3010636242 1.3327968833 1.3645301425 1.3962634016 
1.4279966607 1.4597299198 1.491463179 1.5231964381 1.5549296972 1.5866629564 1.6183962155 1.6501294746 1.6818627337 
1.7135959929 1.745329252 1.7770625111 1.8087957702 1.8405290294 1.8722622885 1.9039955476 1.9357288068 1.9674620659 
1.999195325 2.0309285841 2.0626618433 2.0943951024 2.1261283615 2.1578616206 2.1895948798 2.2213281389 2.253061398 
2.2847946572 2.3165279163 2.3482611754 2.3799944345 2.4117276937 2.4434609528 2.4751942119 2.506927471 2.5386607302 
2.5703939893 2.6021272484 2.6338605076 2.6655937667 2.6973270258 2.7290602849 2.7607935441 2.7925268032 2.8242600623 
2.8559933214 2.8877265806 2.9194598397 2.9511930988 2.982926358 3.0146596171 3.0463928762 3.0781261353 3.1098593945 
3.1415926536 
_radius 1 100 double
4.0103265131e-16 0.013405264347 0.026794960156 0.040143385733 0.053412742963 0.066549373581 0.079482371324 0.092124904825 0.10437826045 
0.11613827819 0.12730354322 0.1377844463 0.14751206298 0.15644573103 0.1645782248 0.17193754806 0.17858464127 0.18460678787 
0.19010721611 0.19519222088 0.19995783546 0.20447836522 0.20879875775 0.21293190142 0.21686085671 0.22054511649 0.22392946134 
0.22695380797 0.22956253764 0.23171205671 0.23337573274 0.23454581902 0.23523245447 0.23546022149 0.23526300332 0.23467799069 
0.23373967618 0.23247460112 0.23089754029 0.22900975565 0.22679988805 0.22424787473 0.22133185509 0.2180373519 0.21436728214 
0.21035085592 0.20604937381 0.2015573778 0.19699847878 0.19251634681 0.18826257333 0.18438397743 0.18101192702 0.17825510754 
0.17619517638 0.17488286702 0.17433185641 0.17451026073 0.17533405768 0.17666909742 0.17834508381 0.18017818906 0.18199500495 
0.18365175166 0.18504616062 0.18612205932 0.18686773673 0.18730939232 0.18750104636 0.18751242219 0.18741640646 0.18727758038 
0.18714290613 0.18703501635 0.18694794518 0.18684488309 0.18665777546 0.18628906613 0.18561612078 0.18449857649 0.18278822299 
0.18034041045 0.17702564273 0.1727399874 0.16741314057 0.16101333207 0.15354866587 0.14506490232 0.1356400664 0.12537658599 
0.11439191189 0.10280873365 0.090745960021 0.078311545768 0.065597974888 0.052680736258 0.0396195154 0.026461251367 0.013243913343 
5.6609623885e-16 
_area 1 100 double
0 0.00043098850813 0.0017252192825 0.0038842883498 0.0069041234105 0.010766802322 0.01543238047 0.020832946787 0.026870582545 
0.033419834914 0.040334080627 0.047454452184 0.054620357066 0.061681486792 0.06851124117 0.075020259561 0.081167284192 0.086963914339 
0.092470237361 0.097780085481 0.10299803032 0.1082142104 0.11348488999 0.11882395089 0.12420466593 0.12956644787 0.13482138209 
0.13986018986 0.14456211111 0.14881189762 0.15251969364 0.15563372934 0.15813777038 0.1600339297 0.16132099502 0.16198204228 
0.16198827149 0.16131298823 0.15994248327 0.1578771866 0.15512897216 0.15172158829 0.14769580036 0.14311750514 0.13808326878 
0.13271694433 0.12715707972 0.12153926287 0.1159794963 0.11056472103 0.10535108618 0.10036683694 0.095622858498 0.091139840487 
0.08698883174 0.083319778346 0.080341843865 0.078241857734 0.077093353556 0.076819801283 0.077215449471 0.077999814048 0.078881783211 
0.079613056357 0.080018941073 0.080005232404 0.079548329583 0.078679934991 0.077476053537 0.076051510173 0.07455568305 0.073166618782 
0.072077016653 0.07146315381 0.071439883725 0.072021147292 0.073107155693 0.074502487649 0.075949084949 0.077159225739 0.077846245778 
0.077754235044 0.076684590949 0.074515506433 0.071211952814 0.066825987984 0.061488345911 0.055392640373 0.048774382288 0.041888293372 
0.034987707192 0.028308438441 0.022057436593 0.016405507099 0.011483748749 0.00738399603 0.0041633866447 0.0018522081318 0.0004631847489 
1.776182838e-17 
