# vtk DataFile Version 5.1
vtk output
ASCII
DATASET POLYDATA
POINTS 100 float
0.1207 0.0496614 0.689195 0.120819 0.0498923 0.688845 0.121232 0.0504533 0.687668 
0.121879 0.0512992 0.685687 0.122671 0.0523602 0.682935 0.123498 0.0535496 0.679456 
0.124238 0.0547723 0.675293 0.124771 0.0559343 0.670487 0.124995 0.056952 0.665069 
0.124827 0.0577587 0.65906 0.124218 0.0583098 0.652467 0.123149 0.0585843 0.645285 
0.121633 0.0585838 0.637504 0.119708 0.0583288 0.62911 0.117426 0.0578528 0.620096 
0.114847 0.0571958 0.610464 0.112027 0.0563973 0.600232 0.109005 0.055491 0.58944 
0.105804 0.0545004 0.578145 0.10242 0.053437 0.566421 0.0988275 0.0523015 0.554358 
0.0949787 0.051086 0.542047 0.0908138 0.0497794 0.529578 0.086268 0.0483721 0.51703 
0.0812813 0.0468621 0.504462 0.0758079 0.0452594 0.491904 0.0698225 0.0435889 0.479362 
0.0633258 0.0418915 0.46681 0.056345 0.0402222 0.454194 0.0489323 0.0386466 0.441441 
0.041159 0.0372353 0.428463 0.0331087 0.0360573 0.415167 0.0248685 0.0351737 0.40146 
0.0165202 0.0346312 0.387261 0.00813384 0.0344582 0.372501 -0.000237767 0.0346622 0.357129 
-0.00856054 0.0352302 0.341113 -0.0168177 0.0361305 0.324433 -0.0250051 0.0373178 0.307083 
-0.0331243 0.0387383 0.289065 -0.0411736 0.0403361 0.270383 -0.0491394 0.0420592 0.251043 
-0.0569884 0.0438643 0.231048 -0.0646614 0.0457201 0.210402 -0.0720712 0.0476085 0.189111 
-0.0791032 0.0495237 0.167185 -0.08562 0.0514699 0.144647 -0.0914697 0.053457 0.121533 
-0.0964961 0.0554968 0.0979024 -0.100551 0.0575984 0.0738324 -0.103505 0.0597647 0.0494227 
-0.105261 0.0619901 0.0247904 -0.10576 0.0642601 6.43983e-05 -0.104987 0.0665521 -0.0246231 
-0.102973 0.0688375 -0.0491451 -0.0997931 0.0710851 -0.0733895 -0.0955595 0.0732638 -0.0972667 
-0.0904123 0.075346 -0.120715 -0.0845099 0.0773092 -0.143703 -0.0780167 0.0791362 -0.166229 
-0.0710928 0.080814 -0.188316 -0.0638835 0.0823315 -0.210002 -0.0565129 0.0836756 -0.231332 
-0.0490787 0.0848275 -0.25235 -0.0416509 0.0857585 -0.273084 -0.0342731 0.0864284 -0.293541 
-0.0269658 0.0867838 -0.313704 -0.019732 0.0867603 -0.333533 -0.0125631 0.0862859 -0.352962 
-0.00544591 0.0852866 -0.371914 0.00163181 0.0836942 -0.390308 0.00867615 0.0814544 -0.408069 
0.0156835 0.078534 -0.42514 0.0226382 0.0749281 -0.44149 0.0295124 0.0706638 -0.457122 
0.0362662 0.0658018 -0.47207 0.0428495 0.0604344 -0.486396 0.0492045 0.0546799 -0.500185 
0.0552682 0.048675 -0.513528 0.0609756 0.0425647 -0.526513 0.0662623 0.036491 -0.539209 
0.0710678 0.030583 -0.551653 0.0753374 0.0249476 -0.563842 0.0790257 0.019663 -0.575731 
0.0820985 0.0147758 -0.58723 0.0845353 0.0103012 -0.598218 0.0863316 0.0062269 -0.60855 
0.0875004 0.00251985 -0.618077 0.0880738 -0.00086541 -0.626658 0.0881033 -0.00397735 -0.634182 
0.0876592 -0.00685861 -0.640582 0.0868289 -0.0095388 -0.64584 0.0857139 -0.0120297 -0.649994 
0.0844255 -0.0143238 -0.653133 0.083079 -0.0163951 -0.655389 0.0817879 -0.0182039 -0.65692 
0.0806571 -0.0197029 -0.657896 0.0797763 -0.0208442 -0.658472 0.0792145 -0.021587 -0.658775 
0.0790151 -0.0219035 -0.65889 
LINES 2 100
OFFSETS vtktypeint64
0 100 
CONNECTIVITY vtktypeint64
0 1 2 3 4 5 6 7 8 
9 10 11 12 13 14 15 16 17 
18 19 20 21 22 23 24 25 26 
27 28 29 30 31 32 33 34 35 
36 37 38 39 40 41 42 43 44 
45 46 47 48 49 50 51 52 53 
54 55 56 57 58 59 60 61 62 
63 64 65 66 67 68 69 70 71 
72 73 74 75 76 77 78 79 80 
81 82 83 84 85 86 87 88 89 
90 91 92 93 94 95 96 97 98 
99 
POINT_DATA 100
FIELD FieldData 3
_theta 1 100 double
0 0.031733259127 0.063466518254 0.095199777382 0.12693303651 0.15866629564 0.19039955476 0.22213281389 0.25386607302 
0.28559933214 0.31733259127 0.3490658504 0.38079910953 0.41253236865 0.44426562778 0.47599888691 0.50773214603 0.53946540516 
0.57119866429 0.60293192342 0.63466518254 0.66639844167 0.6981317008 0.72986495992 0.76159821905 0.79333147818 0.82506473731 
0.85679799643 0.88853125556 0.92026451469 0.95199777382 0.98373103294 1.0154642921 1.0471975512 1.0789308103 1.1106640695 
1.1423973286 1.1741305877 1.2058638468 1.237597106 1.2693303651 1.3010636242 1.3327968833 1.3645301425 1.3962634016 
1.4279966607 1.4597299198 1.491463179 1.5231964381 1.5549296972 1.5866629564 1.6183962155 1.6501294746 1.6818627337 
1.7135959929 1.745329252 1.7770625111 1.8087957702 1.8405290294 1.8722622885 1.9039955476 1.9357288068 1.9674620659 
1.999195325 2.0309285841 2.0626618433 2.0943951024 2.1261283615 2.1578616206 2.1895948798 2.2213281389 2.253061398 
2.2847946572 2.3165279163 2.3482611754 2.3799944345 2.4117276937 2.4434609528 2.4751942119 2.506927471 2.5386607302 
2.5703939893 2.6021272484 2.6338605076 2.6655937667 2.6973270258 2.7290602849 2.7607935441 2.7925268032 2.8242600623 
2.8559933214 2.8877265806 2.9194598397 2.9511930988 2.982926358 3.0146596171 3.0463928762 3.0781261353 3.1098593945 
3.1415926536 
_radius 1 100 double
3.516999441e-16 0.015356141712 0.030494120178 0.045213821621 0.059348131366 0.072773916098 0.085417444384 0.097253888399 0.10830154357 
0.11861225854 0.12826004572 0.13732978672 0.14590739504 0.15407200817 0.16189011073 0.16941120512 0.17666477166 0.18365859842 
0.19037884406 0.19679225815 0.20285080846 0.20849861798 0.2136806492 0.21835203312 0.22248643 0.22608152585 0.22915995174 
0.23176471492 0.23394960799 0.23576667884 0.23725404673 0.23842740474 0.2392772351 0.23977176686 0.23986411945 0.23950149579 
0.23863454994 0.2372256876 0.23525570629 0.23272866881 0.22967515599 0.2261540544 0.22225285229 0.21808615123 0.21379188754 
0.20952473035 0.20544638235 0.20171309508 0.19846155734 0.19579522061 0.19377375239 0.19240824015 0.19166367011 0.19146816476 
0.19172630475 0.19233280828 0.19318350942 0.19418239696 0.19524524542 0.19630122076 0.19729367789 0.19818064602 0.19893478128 
0.1995422172 0.19999987212 0.20031128712 0.20048171972 0.20051366395 0.2004039286 0.20014284135 0.19971530957 0.19910277388 
0.19828487854 0.19724001402 0.19594453743 0.19437110483 0.19248689918 0.19025254212 0.18762223045 0.18454528851 0.18096899191 
0.17684225305 0.1721195834 0.16676467072 0.16075293932 0.15407260605 0.14672400319 0.13871729397 0.13006910696 0.12079896969 
0.1109265956 0.10047094472 0.089451512963 0.077891644068 0.065823051933 0.053290402925 0.040354792513 0.027095190112 0.013607327451 
8.0364453662e-16 
_area 1 100 double
0 0.00052768291428 0.0020839232497 0.0045931608492 0.0079441929795 0.012007614453 0.016652637876 0.021759094203 0.027222687988 
0.032954370163 0.038876612634 0.044919538689 0.051018609648 0.05711414115 0.063152365698 0.069088065329 0.074889104352 0.08054264995 
0.086061297663 0.091485275477 0.096875715008 0.1022959866 0.10778520398 0.11333676131 0.11889523256 0.12437326394 0.12967706739 
0.13472596691 0.13945749886 0.14381867083 0.14775140634 0.15118285495 0.15402756685 0.15620048695 0.15763271724 0.15828049288 
0.15812231438 0.15714705959 0.15534267077 0.15269603951 0.14920850137 0.14492158503 0.13994090373 0.13444638353 0.12868293111 
0.12293267 0.11747475662 0.11254117896 0.1082786411 0.10472876099 0.10183703329 0.099489532813 0.097571345302 0.096297121017 
0.095488007463 0.094732571582 0.093900682471 0.092879697255 0.091633993 0.090197909099 0.0886808121 0.087258413432 0.086133508959 
0.085453072068 0.085234838208 0.085389442482 0.085787482484 0.086287770287 0.086791077297 0.087112551784 0.087144728948 0.086869656867 
0.086347364485 0.085698649354 0.085077660607 0.084594331806 0.08421191743 0.083828190676 0.083282031208 0.082377239129 0.080932913579 
0.078815496782 0.075950861156 0.072326774368 0.067988615291 0.063029047982 0.057572975272 0.051760511668 0.045732128686 0.039620076134 
0.033547419994 0.02763200733 0.021990907855 0.016742568073 0.012006717572 0.0079032669509 0.004550136461 0.0020579588648 0.00052012271973 
3.341370152e-17 
