# vtk DataFile Version 5.1
vtk output
ASCII
DATASET POLYDATA
POINTS 100 float
0.0949955 0.0352423 0.614967 0.0949817 0.0353759 0.614639 0.0950115 0.0356459 0.613507 
0.0950476 0.0360475 0.611606 0.0950332 0.036572 0.60899 0.094899 0.0372071 0.60572 
0.0945728 0.0379363 0.601861 0.0939886 0.0387386 0.597467 0.0930953 0.039589 0.592578 
0.0918621 0.0404585 0.58721 0.0902824 0.041315 0.581359 0.0883723 0.0421241 0.574999 
0.0861677 0.0428511 0.568093 0.0837164 0.0434621 0.560599 0.0810702 0.0439259 0.552481 
0.0782752 0.0442159 0.543721 0.0753632 0.0443118 0.534327 0.0723451 0.0442003 0.524335 
0.0692077 0.0438768 0.513816 0.0659136 0.0433451 0.502866 0.0624051 0.0426177 0.491605 
0.0586117 0.0417149 0.480157 0.0544598 0.0406642 0.468644 0.0498833 0.039499 0.457168 
0.0448346 0.0382568 0.4458 0.0392929 0.0369782 0.434571 0.0332702 0.0357048 0.423468 
0.026813 0.0344785 0.412435 0.0199996 0.0333398 0.40138 0.0129333 0.0323271 0.390183 
0.00573224 0.0314757 0.378714 -0.00148325 0.0308168 0.36685 -0.00860342 0.0303774 0.354484 
-0.0155413 0.0301792 0.341543 -0.0222421 0.0302384 0.327996 -0.0286884 0.0305651 0.313854 
-0.034901 0.0311629 0.299171 -0.0409341 0.0320289 0.284035 -0.0468664 0.0331533 0.268551 
-0.0527882 0.0345199 0.252835 -0.0587858 0.0361064 0.23699 -0.0649268 0.0378857 0.221094 
-0.0712451 0.0398268 0.205192 -0.0777305 0.0418964 0.189284 -0.0843227 0.0440605 0.17333 
-0.09091 0.0462863 0.157248 -0.0973347 0.0485435 0.140932 -0.103404 0.0508058 0.124258 
-0.108904 0.0530519 0.107104 -0.113619 0.0552655 0.0893646 -0.117349 0.0574358 0.0709635 
-0.119926 0.0595563 0.0518644 -0.121231 0.0616239 0.0320757 -0.121203 0.0636375 0.0116504 
-0.119844 0.0655961 -0.00931898 -0.117217 0.0674975 -0.0307101 -0.113438 0.0693368 -0.052383 
-0.108666 0.0711054 -0.0741937 -0.103084 0.07279 -0.0960066 -0.0968855 0.0743731 -0.117706 
-0.0902552 0.0758329 -0.139203 -0.0833533 0.0771443 -0.160437 -0.0763043 0.0782798 -0.181377 
-0.0691899 0.0792106 -0.202017 -0.0620464 0.0799078 -0.222366 -0.0548682 0.0803434 -0.24244 
-0.0476154 0.0804909 -0.262252 -0.0402252 0.0803259 -0.281808 -0.0326247 0.0798263 -0.301098 
-0.0247456 0.0789726 -0.320096 -0.0165362 0.0777479 -0.338759 -0.00797263 0.0761386 -0.357032 
0.000935169 0.0741349 -0.374855 0.0101401 0.0717323 -0.392167 0.0195596 0.0689326 -0.408913 
0.0290813 0.0657462 -0.425051 0.0385717 0.062194 -0.440551 0.0478869 0.0583094 -0.455397 
0.0568846 0.0541395 -0.469581 0.065435 0.0497464 -0.483105 0.0734312 0.0452068 -0.495965 
0.0807961 0.0406101 -0.508153 0.0874863 0.0360559 -0.519648 0.0934931 0.0316495 -0.530412 
0.0988394 0.0274966 -0.540397 0.103575 0.023697 -0.549539 0.107767 0.0203378 -0.557771 
0.111493 0.0174874 -0.565033 0.114831 0.0151897 -0.571277 0.117852 0.0134607 -0.576479 
0.120611 0.012286 -0.580651 0.123146 0.0116212 -0.583839 0.125473 0.0113953 -0.58613 
0.127587 0.011515 -0.587645 0.129468 0.0118728 -0.588531 0.131082 0.0123547 -0.58895 
0.13239 0.0128504 -0.589065 0.133352 0.013262 -0.589021 0.133936 0.0135125 -0.588938 
0.134119 0.0135527 -0.588888 
LINES 2 100
OFFSETS vtktypeint64
0 100 
CONNECTIVITY vtktypeint64
0 1 2 3 4 5 6 7 8 
9 10 11 12 13 14 15 16 17 
18 19 20 21 22 23 24 25 26 
27 28 29 30 31 32 33 34 35 
36 37 38 39 40 41 42 43 44 
45 46 47 48 49 50 51 52 53 
54 55 56 57 58 59 60 61 62 
63 64 65 66 67 68 69 70 71 
72 73 74 75 76 77 78 79 80 
81 82 83 84 85 86 87 88 89 
90 91 92 93 94 95 96 97 98 
99 
POINT_DATA 100
FIELD FieldData 3
_theta 1 100 double
0 0.031733259127 0.063466518254 0.095199777382 0.12693303651 0.15866629564 0.19039955476 0.22213281389 0.25386607302 
0.28559933214 0.31733259127 0.3490658504 0.38079910953 0.41253236865 0.44426562778 0.47599888691 0.50773214603 0.53946540516 
0.57119866429 0.60293192342 0.63466518254 0.66639844167 0.6981317008 0.72986495992 0.76159821905 0.79333147818 0.82506473731 
0.85679799643 0.88853125556 0.92026451469 0.95199777382 0.98373103294 1.0154642921 1.0471975512 1.0789308103 1.1106640695 
1.1423973286 1.1741305877 1.2058638468 1.237597106 1.2693303651 1.3010636242 1.3327968833 1.3645301425 1.3962634016 
1.4279966607 1.4597299198 1.491463179 1.5231964381 1.5549296972 1.5866629564 1.6183962155 1.6501294746 1.6818627337 
1.7135959929 1.745329252 1.7770625111 1.8087957702 1.8405290294 1.8722622885 1.9039955476 1.9357288068 1.9674620659 
1.999195325 2.0309285841 2.0626618433 2.0943951024 2.1261283615 2.1578616206 2.1895948798 2.2213281389 2.253061398 
2.2847946572 2.3165279163 2.3482611754 2.3799944345 2.4117276937 2.4434609528 2.4751942119 2.506927471 2.5386607302 
2.5703939893 2.6021272484 2.6338605076 2.6655937667 2.6973270258 2.7290602849 2.7607935441 2.7925268032 2.8242600623 
2.8559933214 2.8877265806 2.9194598397 2.9511930988 2.982926358 3.0146596171 3.0463928762 3.0781261353 3.1098593945 
3.1415926536 
_radius 1 100 double
9.6398194909e-17 0.012610055684 0.025226321371 0.037841020988 0.05043013618 0.062948871106 0.075330545247 0.087489187314 0.099325551365 
0.11073578503 0.12162162882 0.13190084992 0.14151659938 0.1504444878 0.15869636556 0.16632006098 0.1733946909 0.18002164249 
0.18631194604 0.19237147459 0.19828608527 0.20410922427 0.20985438095 0.21549394447 0.22096462239 0.22617807303 0.23103434047 
0.23543542119 0.23929679582 0.24255566765 0.24517551695 0.2471471301 0.24848647802 0.24922987106 0.24942689587 0.24913183708 
0.24839457601 0.24725225435 0.24572317961 0.24380440899 0.24147406272 0.23869864369 0.23544458319 0.23169215613 0.22744914117 
0.22276140469 0.21771805827 0.21244988315 0.20712105623 0.20191547704 0.19701989192 0.19260648019 0.18881760693 0.18575479049 
0.18347236463 0.1819745594 0.18121427005 0.18109328763 0.18146604144 0.18214984414 0.18294304058 0.18364914638 0.18410216615 
0.18418747929 0.18385407167 0.18311640009 0.18204660797 0.18075948526 0.17939334143 0.17808996634 0.17697626692 0.1761492026 
0.17566466918 0.17553047961 0.17570375531 0.1760933907 0.1765679612 0.17696825477 0.17712220093 0.17685930194 0.1760221349 
0.17447377687 0.17210143814 0.16881755641 0.16455979078 0.15929083847 0.15299816964 0.14569311306 0.13740854901 0.12819482078 
0.11811416874 0.10723471044 0.095625433182 0.083353622113 0.070485557559 0.057090303181 0.043245272494 0.029041426355 0.014585822381 
1.0782500442e-15 
_area 1 100 double
0 0.0004708742376 0.0018865348488 0.0042522719748 0.0075655403114 0.011803187334 0.01691032115 0.022794254224 0.029325041653 
0.036342238665 0.04366650685 0.051114693388 0.05851728275 0.065736856724 0.072685185229 0.079335327166 0.085724563142 0.091944993961 
0.098121575048 0.10438151172 0.11082251027 0.11748844322 0.12435885595 0.1313542678 0.13835395911 0.14521858291 0.15180855756 
0.15799264354 0.1636482945 0.16866064061 0.17292543703 0.17635578466 0.17888942399 0.18049454673 0.18117412736 0.18096861129 
0.17995370726 0.17822634189 0.17587532832 0.17295123298 0.16945937833 0.16537625746 0.16067339691 0.15534115293 0.14940904975 
0.14295784449 0.13612114688 0.12907943283 0.12205109148 0.11528115501 0.10901930043 0.10347003203 0.098720899293 0.094725758747 
0.091386063392 0.088633765886 0.086443425158 0.084790160936 0.083595463075 0.082717928681 0.081985412412 0.081227766329 0.080302343522 
0.079112620476 0.077619234388 0.075843551919 0.073863426152 0.07180065532 0.069803403895 0.068026673554 0.066608957926 0.065651695608 
0.065217710823 0.065346005078 0.06605037935 0.067281558584 0.068895396735 0.070675463601 0.072376816455 0.073757317042 0.074597442397 
0.074713094562 0.073962790401 0.072251008973 0.069530497905 0.065805540179 0.061135847916 0.055638702595 0.04948646427 0.042897590145 
0.036121125711 0.029416529456 0.023032097242 0.017185782038 0.012051740891 0.0077546686391 0.0043722677964 0.0019444173622 0.00048606178365 
3.1658703437e-17 
