# vtk DataFile Version 5.1
vtk output
ASCII
DATASET POLYDATA
POINTS 100 float
0.152691 0.0569208 0.698194 0.152684 0.0570771 0.698077 0.152703 0.0573798 0.697561 
0.152721 0.0578165 0.696599 0.152694 0.0583688 0.695119 0.152567 0.0590142 0.693031 
0.152273 0.059728 0.690243 0.15174 0.0604849 0.686666 0.150898 0.0612605 0.68223 
0.149678 0.0620322 0.676891 0.148019 0.0627793 0.670637 0.145871 0.0634817 0.663491 
0.143194 0.0641194 0.655509 0.139964 0.0646701 0.646775 0.136168 0.0651082 0.637396 
0.131811 0.0654033 0.627486 0.126906 0.0655203 0.617161 0.12148 0.0654199 0.606522 
0.115573 0.0650608 0.59565 0.109231 0.0644033 0.584601 0.102509 0.0634133 0.573396 
0.095466 0.0620672 0.562029 0.088167 0.0603566 0.550466 0.0806763 0.0582926 0.538653 
0.0730568 0.0559087 0.526526 0.0653667 0.0532618 0.51402 0.0576559 0.0504311 0.501079 
0.0499635 0.0475154 0.487663 0.0423147 0.0446267 0.473752 0.0347195 0.0418843 0.459353 
0.0271719 0.0394054 0.444491 0.0196504 0.0372973 0.429212 0.012121 0.0356489 0.413571 
0.00454075 0.0345238 0.397622 -0.00313629 0.0339557 0.381413 -0.0109527 0.0339461 0.364973 
-0.0189405 0.0344648 0.348305 -0.0271138 0.0354534 0.331387 -0.0354632 0.0368309 0.314164 
-0.0439506 0.0385015 0.296557 -0.0525074 0.0403633 0.278468 -0.0610346 0.0423174 0.259788 
-0.069406 0.0442759 0.240414 -0.0774743 0.046169 0.220254 -0.0850795 0.0479495 0.199244 
-0.0920589 0.0495949 0.177354 -0.0982579 0.0511073 0.154597 -0.103541 0.0525102 0.131029 
-0.1078 0.0538439 0.106747 -0.110963 0.0551588 0.0818831 -0.112998 0.0565086 0.0565959 
-0.113913 0.0579435 0.0310571 -0.113755 0.059503 0.00543894 -0.112604 0.0612121 -0.0200991 
-0.110563 0.063077 -0.0454213 -0.107754 0.0650839 -0.0704242 -0.104299 0.0671997 -0.0950418 
-0.100316 0.0693738 -0.119246 -0.0959098 0.0715416 -0.143041 -0.0911625 0.0736284 -0.166463 
-0.0861326 0.0755545 -0.189563 -0.0808532 0.0772397 -0.212398 -0.0753349 0.0786075 -0.235024 
-0.06957 0.0795885 -0.257481 -0.0635397 0.0801235 -0.279787 -0.0572215 0.0801655 -0.301935 
-0.0505969 0.0796806 -0.323889 -0.0436581 0.0786487 -0.345592 -0.0364131 0.0770639 -0.366963 
-0.0288888 0.0749338 -0.387915 -0.0211318 0.0722794 -0.408358 -0.013206 0.0691344 -0.42821 
-0.00518978 0.0655441 -0.447404 0.00282994 0.0615647 -0.465896 0.0107634 0.0572619 -0.483666 
0.018524 0.0527092 -0.50072 0.0260342 0.047986 -0.517082 0.0332293 0.0431749 -0.532791 
0.0400606 0.0383589 -0.547894 0.0464964 0.0336189 -0.562432 0.0525212 0.02903 -0.576436 
0.0581338 0.0246589 -0.589918 0.0633442 0.0205615 -0.602867 0.0681701 0.016781 -0.615247 
0.0726328 0.0133468 -0.627002 0.0767544 0.0102744 -0.638056 0.0805549 0.00756608 -0.648326 
0.0840505 0.00521226 -0.657728 0.0872528 0.00319382 -0.666189 0.0901691 0.00148452 -0.673657 
0.0928028 5.36478e-05 -0.680106 0.0951549 -0.00113139 -0.685541 0.097225 -0.00210282 -0.690001 
0.0990124 -0.00289074 -0.693554 0.100517 -0.0035219 -0.696291 0.101741 -0.00401902 -0.698318 
0.102684 -0.00440058 -0.699742 0.103351 -0.00468089 -0.700664 0.103744 -0.00487039 -0.701165 
0.103864 -0.00497586 -0.701299 
LINES 2 100
OFFSETS vtktypeint64
0 100 
CONNECTIVITY vtktypeint64
0 1 2 3 4 5 6 7 8 
9 10 11 12 13 14 15 16 17 
18 19 20 21 22 23 24 25 26 
27 28 29 30 31 32 33 34 35 
36 37 38 39 40 41 42 43 44 
45 46 47 48 49 50 51 52 53 
54 55 56 57 58 59 60 61 62 
63 64 65 66 67 68 69 70 71 
72 73 74 75 76 77 78 79 80 
81 82 83 84 85 86 87 88 89 
90 91 92 93 94 95 96 97 98 
99 
POINT_DATA 100
FIELD FieldData 3
_theta 1 100 double
0 0.031733259127 0.063466518254 0.095199777382 0.12693303651 0.15866629564 0.19039955476 0.22213281389 0.25386607302 
0.28559933214 0.31733259127 0.3490658504 0.38079910953 0.41253236865 0.44426562778 0.47599888691 0.50773214603 0.53946540516 
0.57119866429 0.60293192342 0.63466518254 0.66639844167 0.6981317008 0.72986495992 0.76159821905 0.79333147818 0.82506473731 
0.85679799643 0.88853125556 0.92026451469 0.95199777382 0.98373103294 1.0154642921 1.0471975512 1.0789308103 1.1106640695 
1.1423973286 1.1741305877 1.2058638468 1.237597106 1.2693303651 1.3010636242 1.3327968833 1.3645301425 1.3962634016 
1.4279966607 1.4597299198 1.491463179 1.5231964381 1.5549296972 1.5866629564 1.6183962155 1.6501294746 1.6818627337 
1.7135959929 1.745329252 1.7770625111 1.8087957702 1.8405290294 1.8722622885 1.9039955476 1.9357288068 1.9674620659 
1.999195325 2.0309285841 2.0626618433 2.0943951024 2.1261283615 2.1578616206 2.1895948798 2.2213281389 2.253061398 
2.2847946572 2.3165279163 2.3482611754 2.3799944345 2.4117276937 2.4434609528 2.4751942119 2.506927471 2.5386607302 
2.5703939893 2.6021272484 2.6338605076 2.6655937667 2.6973270258 2.7290602849 2.7607935441 2.7925268032 2.8242600623 
2.8559933214 2.8877265806 2.9194598397 2.9511930988 2.982926358 3.0146596171 3.0463928762 3.0781261353 3.1098593945 
3.1415926536 
_radius 1 100 double
1.2556330677e-15 0.015461645435 0.030683520851 0.045444384784 0.059565493826 0.072924923849 0.08546444047 0.097188149467 0.1081533764 
0.11845539428 0.1282085075 0.13752640595 0.14650454034 0.15520663737 0.16365661886 0.17183638037 0.17968926837 0.18712865267 
0.19405060618 0.20034928658 0.20593317803 0.21074001138 0.21474809695 0.21798208961 0.22051188678 0.22244436317 0.22390882443 
0.22503822136 0.22594908485 0.22672359313 0.22739698536 0.22795263994 0.22832570663 0.22841458526 0.22809820795 0.22725630903 
0.2257897171 0.22363802899 0.22079258811 0.21730329678 0.21327837146 0.20887676118 0.20429370162 0.19974082114 0.19542326651 
0.19151725374 0.18815191536 0.18539887965 0.1832714134 0.18173243944 0.18070824291 0.18010346509 0.1798137761 0.17973494249 
0.17976934373 0.17983176239 0.179855137 0.17979524995 0.17963273072 0.17937164174 0.17903520721 0.17865980588 0.1782880446 
0.17796132667 0.17771252539 0.17755999658 0.17750441126 0.17752927569 0.17760483926 0.17769408001 0.17775906676 0.17776621588 
0.1776894979 0.17751120399 0.17722028328 0.17680848159 0.17626463605 0.17556765165 0.17467902261 0.17353624915 0.17204892995 
0.17009934359 0.1675486956 0.1642489335 0.16005852817 0.15485946596 0.14857230419 0.14116656774 0.13266477039 0.12313960024 
0.11270502001 0.10150299414 0.08968812762 0.077412623523 0.064813662758 0.052004696997 0.039071376224 0.026072033089 0.013041928086 
5.0140626188e-16 
_area 1 100 double
0 0.00063725157215 0.002505898423 0.0054843315343 0.0093935559078 0.014026359546 0.019177708677 0.024670151987 0.030370113855 
0.036193542701 0.04210169052 0.048089573539 0.054170791716 0.060362425369 0.066672330506 0.073089143922 0.079574502323 0.086058245842 
0.092439243197 0.098594368015 0.10439530954 0.10972943146 0.11451943855 0.11873763282 0.1224123465 0.12562492895 0.12849556253 
0.13115758316 0.13372483481 0.13626202974 0.13876765313 0.14117198373 0.14334649329 0.14511960653 0.14629541252 0.14667406025 
0.14607512943 0.14436670015 0.14149906805 0.13753442096 0.13266035288 0.12717822863 0.12146379399 0.1159070393 0.11084832133 
0.10652541288 0.10303956325 0.10035791699 0.098285938311 0.096562879208 0.094932213862 0.09316549004 0.091086168744 0.088654844903 
0.085963655347 0.08323842654 0.080800696209 0.078993744213 0.077884318343 0.077230080703 0.076881418243 0.076730577836 0.076695142029 
0.076706225419 0.076699702244 0.076612895308 0.076392329563 0.076004084579 0.075438564348 0.07471141497 0.073862312479 0.072951199035 
0.072051919021 0.071244515785 0.070608722198 0.070221377353 0.070162813432 0.070487395235 0.071066820228 0.071701174973 0.072208987581 
0.072377445567 0.07196402468 0.070727386935 0.068469109211 0.065073631557 0.060536188929 0.054972012513 0.04860466292 0.041736228092 
0.034706229735 0.027848269217 0.021453032124 0.015743647718 0.010865923522 0.0068929722803 0.0038413825288 0.0016937868706 0.0004212251098 
6.974847624e-17 
