# vtk DataFile Version 5.1
vtk output
ASCII
DATASET POLYDATA
POINTS 100 float
0.127166 0.041344 0.67604 0.127363 0.0414296 0.675807 0.128011 0.0415409 0.674962 
0.129017 0.041684 0.673506 0.130235 0.0418683 0.671442 0.131483 0.0421046 0.668772 
0.132565 0.0424021 0.6655 0.13329 0.0427662 0.661628 0.13349 0.0431959 0.657155 
0.133041 0.0436822 0.652081 0.131868 0.0442072 0.646404 0.129954 0.0447448 0.64012 
0.127331 0.0452617 0.633224 0.124079 0.0457201 0.625715 0.120304 0.0460807 0.617593 
0.116126 0.0463065 0.60886 0.111659 0.0463661 0.599527 0.106997 0.0462372 0.589607 
0.102201 0.0459084 0.579121 0.0972918 0.045381 0.568097 0.0922533 0.0446688 0.556567 
0.0870337 0.0437967 0.544568 0.0815584 0.042799 0.53214 0.0757436 0.0417155 0.519325 
0.0695116 0.0405887 0.506163 0.0628058 0.0394596 0.492692 0.0556022 0.0383647 0.478946 
0.0479168 0.0373334 0.464951 0.0398072 0.0363864 0.450729 0.0313684 0.0355356 0.436292 
0.0227232 0.0347844 0.421646 0.0140092 0.0341297 0.406787 0.00536254 0.0335649 0.391706 
-0.00309706 0.033082 0.376385 -0.0112801 0.0326755 0.360801 -0.0191364 0.0323445 0.344923 
-0.026659 0.032095 0.328716 -0.0338818 0.031941 0.312143 -0.0408715 0.0319044 0.295161 
-0.0477142 0.0320138 0.277725 -0.0544991 0.0323028 0.25979 -0.0613006 0.0328071 0.241314 
-0.0681619 0.0335613 0.222255 -0.0750815 0.0345953 0.20258 -0.0820049 0.0359319 0.182261 
-0.0888232 0.0375835 0.161284 -0.0953776 0.039551 0.139647 -0.101471 0.0418227 0.117362 
-0.106884 0.0443742 0.0944619 -0.111395 0.04717 0.0709936 -0.114801 0.0501646 0.0470226 
-0.116937 0.0533053 0.0226296 -0.117691 0.0565341 -0.0020918 -0.117016 0.0597911 -0.0270388 
-0.114931 0.063016 -0.0521038 -0.111522 0.0661507 -0.077179 -0.106929 0.0691403 -0.102161 
-0.10133 0.0719346 -0.126957 -0.0949255 0.074488 -0.151483 -0.0879185 0.0767596 -0.175675 
-0.0804931 0.0787133 -0.199482 -0.0728009 0.0803167 -0.222869 -0.0649493 0.0815412 -0.245815 
-0.0569975 0.0823611 -0.26831 -0.0489572 0.0827532 -0.29035 -0.040801 0.0826975 -0.311935 
-0.0324742 0.0821762 -0.333059 -0.0239111 0.0811751 -0.353713 -0.0150515 0.0796836 -0.373876 
-0.00585676 0.0776951 -0.393519 0.00367676 0.0752081 -0.412597 0.0135094 0.0722262 -0.431061 
0.0235549 0.0687592 -0.44885 0.0336832 0.0648227 -0.465906 0.0437287 0.0604387 -0.482173 
0.0535033 0.0556358 -0.497602 0.0628128 0.0504486 -0.512164 0.0714737 0.0449177 -0.525844 
0.0793312 0.0390896 -0.538653 0.0862723 0.0330157 -0.550626 0.0922374 0.026752 -0.56182 
0.0972245 0.0203581 -0.572314 0.10129 0.0138968 -0.582199 0.10454 0.0074322 -0.591577 
0.107124 0.00102938 -0.600551 0.109214 -0.00524743 -0.609212 0.110995 -0.011336 -0.617639 
0.112638 -0.0171774 -0.625885 0.114295 -0.0227174 -0.633971 0.116075 -0.0279072 -0.641889 
0.118043 -0.0327044 -0.649592 0.120212 -0.0370737 -0.657005 0.122544 -0.0409863 -0.66402 
0.124957 -0.0444206 -0.67051 0.127338 -0.0473604 -0.676335 0.12955 -0.0497949 -0.681351 
0.131456 -0.0517172 -0.685422 0.132927 -0.0531231 -0.68843 0.133859 -0.0540102 -0.690282 
0.134186 -0.0543767 -0.69092 
LINES 2 100
OFFSETS vtktypeint64
0 100 
CONNECTIVITY vtktypeint64
0 1 2 3 4 5 6 7 8 
9 10 11 12 13 14 15 16 17 
18 19 20 21 22 23 24 25 26 
27 28 29 30 31 32 33 34 35 
36 37 38 39 40 41 42 43 44 
45 46 47 48 49 50 51 52 53 
54 55 56 57 58 59 60 61 62 
63 64 65 66 67 68 69 70 71 
72 73 74 75 76 77 78 79 80 
81 82 83 84 85 86 87 88 89 
90 91 92 93 94 95 96 97 98 
99 
POINT_DATA 100
FIELD FieldData 3
_theta 1 100 double
0 0.031733259127 0.063466518254 0.095199777382 0.12693303651 0.15866629564 0.19039955476 0.22213281389 0.25386607302 
0.28559933214 0.31733259127 0.3490658504 0.38079910953 0.41253236865 0.44426562778 0.47599888691 0.50773214603 0.53946540516 
0.57119866429 0.60293192342 0.63466518254 0.66639844167 0.6981317008 0.72986495992 0.76159821905 0.79333147818 0.82506473731 
0.85679799643 0.88853125556 0.92026451469 0.95199777382 0.98373103294 1.0154642921 1.0471975512 1.0789308103 1.1106640695 
1.1423973286 1.1741305877 1.2058638468 1.237597106 1.2693303651 1.3010636242 1.3327968833 1.3645301425 1.3962634016 
1.4279966607 1.4597299198 1.491463179 1.5231964381 1.5549296972 1.5866629564 1.6183962155 1.6501294746 1.6818627337 
1.7135959929 1.745329252 1.7770625111 1.8087957702 1.8405290294 1.8722622885 1.9039955476 1.9357288068 1.9674620659 
1.999195325 2.0309285841 2.0626618433 2.0943951024 2.1261283615 2.1578616206 2.1895948798 2.2213281389 2.253061398 
2.2847946572 2.3165279163 2.3482611754 2.3799944345 2.4117276937 2.4434609528 2.4751942119 2.506927471 2.5386607302 
2.5703939893 2.6021272484 2.6338605076 2.6655937667 2.6973270258 2.7290602849 2.7607935441 2.7925268032 2.8242600623 
2.8559933214 2.8877265806 2.9194598397 2.9511930988 2.982926358 3.0146596171 3.0463928762 3.0781261353 3.1098593945 
3.1415926536 
_radius 1 100 double
1.6679345924e-15 0.01400086908 0.02796513568 0.041846493545 0.055596682802 0.069163928111 0.082491677841 0.095518943292 0.10818279212 
0.12042231085 0.13218244886 0.14341611303 0.15408367677 0.16415028232 0.17358238626 0.18234544037 0.19040419764 0.19772607444 
0.20428680382 0.21007682877 0.2151067618 0.21941066253 0.2230465496 0.22609418014 0.22865053235 0.23082356285 0.2327247085 
0.23446038196 0.23612258234 0.2377789409 0.2394631132 0.24116715249 0.24283786408 0.24437877643 0.24565831664 0.24652345797 
0.24681699029 0.24639595156 0.24514873462 0.24300885971 0.23996417009 0.2360609946 0.23140338488 0.22614775724 0.22049322079 
0.21466780886 0.20891109452 0.20345447111 0.19850152564 0.19421175358 0.19069061786 0.18798751048 0.18610111799 0.18498970296 
0.18458239489 0.184787435 0.18549520692 0.18657755094 0.18788823934 0.18926974378 0.19056772089 0.1916497085 0.19242207551 
0.19284029663 0.19291040288 0.19268207479 0.19223551883 0.19166502343 0.19106214903 0.19050106155 0.19002775745 0.18965406803 
0.18935652848 0.18907951361 0.18874155764 0.18824359314 0.18747790196 0.18633669233 0.1847193481 0.18253763336 0.17971854422 
0.17620502255 0.17195522859 0.16694129531 0.16114830807 0.15457376208 0.14722726674 0.13913005425 0.13031392432 0.12081947239 
0.11069370363 0.09998739896 0.088752823032 0.077042428966 0.064909008437 0.052407263642 0.039596210268 0.026541414867 0.013316033582 
1.8435429624e-15 
_area 1 100 double
0 0.00052771252993 0.0021048294594 0.0047109102649 0.0083051673524 0.012820071725 0.018158245775 0.024195754043 0.030792945457 
0.037810794495 0.045127167883 0.05264593879 0.060294403817 0.068009883959 0.075721159444 0.083332707923 0.090719822987 0.097739449397 
0.1042541708 0.1101595275 0.11540381726 0.11999508324 0.12399696112 0.12751843129 0.1307010439 0.13370352892 0.13668208136 
0.13976759441 0.14304670016 0.14655392098 0.15027345738 0.15414029117 0.15803208985 0.16175575872 0.16504483886 0.16758268207 
0.16905018963 0.16918155772 0.16780981348 0.1648924127 0.16051612873 0.15488528249 0.1482981835 0.14111520061 0.13372085481 
0.12648365226 0.11971935419 0.11366335756 0.10845568336 0.10413792433 0.10065826277 0.09788641406 0.095649591217 0.093786245363 
0.092190462864 0.09082248763 0.08964408832 0.088602146215 0.087681963268 0.086872758052 0.0861505734 0.085452189927 0.084670243793 
0.083719395468 0.082503868718 0.08106221427 0.079546702626 0.078142560214 0.076965008834 0.076058013379 0.075449190985 0.075159661629 
0.07519594666 0.075685753187 0.076403092329 0.077211709567 0.077984245198 0.078602730817 0.078953024605 0.078919127436 0.078382937733 
0.077229833508 0.075359348964 0.072698111414 0.069211617137 0.064912611737 0.059865127659 0.054183708695 0.048027398014 0.041588346483 
0.03507583129 0.028698056502 0.022645682123 0.017081394089 0.012138008818 0.0079239021145 0.004530918569 0.0020389095278 0.0005137136754 
4.4163000398e-17 
