# vtk DataFile Version 5.1
vtk output
ASCII
DATASET POLYDATA
POINTS 100 float
0.0750977 0.0558249 0.675581 0.0752542 0.0560437 0.675438 0.0757814 0.0565283 0.674818 
0.0766282 0.0572448 0.673727 0.0777154 0.05814 0.672172 0.0789432 0.0591464 0.67016 
0.0802011 0.0601884 0.667687 0.0813783 0.0611889 0.664744 0.0823731 0.0620755 0.661307 
0.0831015 0.0627864 0.65734 0.0835029 0.0632738 0.652796 0.0835419 0.0635069 0.647622 
0.0832086 0.0634712 0.641765 0.0825138 0.063168 0.635176 0.0814833 0.0626104 0.627824 
0.0801493 0.0618202 0.619695 0.0785429 0.0608229 0.610803 0.0766858 0.0596445 0.601187 
0.0745847 0.0583076 0.590913 0.072228 0.0568298 0.580067 0.0695857 0.0552232 0.56875 
0.0666125 0.0534953 0.557066 0.0632537 0.0516511 0.545113 0.059453 0.0496962 0.532974 
0.055162 0.0476399 0.520704 0.0503487 0.0454983 0.508332 0.045005 0.0432966 0.495851 
0.0391523 0.0410705 0.483228 0.0328428 0.0388655 0.470403 0.0261577 0.0367355 0.457302 
0.0192015 0.03474 0.443848 0.0120938 0.0329395 0.429969 0.00495775 0.0313915 0.41561 
-0.00209157 0.0301461 0.400742 -0.00895838 0.0292417 0.385363 -0.0155758 0.0287026 0.369501 
-0.021912 0.0285371 0.353207 -0.0279723 0.0287377 0.336548 -0.0337967 0.0292828 0.319597 
-0.039453 0.0301391 0.302419 -0.0450258 0.031266 0.285062 -0.050603 0.0326194 0.267545 
-0.0562608 0.0341561 0.249853 -0.0620494 0.0358376 0.231935 -0.0679809 0.0376329 0.213709 
-0.0740205 0.03952 0.195066 -0.0800834 0.0414867 0.175887 -0.0860363 0.0435289 0.156052 
-0.0917051 0.0456494 0.135461 -0.0968878 0.0478547 0.114042 -0.10137 0.050152 0.0917676 
-0.104945 0.0525459 0.0686598 -0.107429 0.0550358 0.0447923 -0.108683 0.0576137 0.0202876 
-0.108621 0.0602629 -0.00469196 -0.107222 0.0629575 -0.0299568 -0.104529 0.0656629 -0.0553057 
-0.100647 0.068337 -0.0805426 -0.0957328 0.0709319 -0.105492 -0.089977 0.0733955 -0.130013 
-0.0835892 0.0756738 -0.154007 -0.0767773 0.0777128 -0.177423 -0.0697288 0.0794599 -0.200259 
-0.0625951 0.0808655 -0.222551 -0.0554808 0.0818844 -0.244367 -0.0484377 0.0824764 -0.265795 
-0.0414662 0.0826076 -0.286927 -0.0345216 0.0822514 -0.307847 -0.0275265 0.0813894 -0.328618 
-0.0203856 0.0800126 -0.349276 -0.0130038 0.0781227 -0.369825 -0.00530258 0.0757327 -0.390235 
0.00276526 0.072868 -0.410446 0.0112048 0.0695665 -0.430374 0.0199737 0.0658778 -0.449923 
0.0289827 0.0618629 -0.468988 0.0381019 0.0575913 -0.487467 0.0471714 0.0531388 -0.50527 
0.0560167 0.0485843 -0.522323 0.0644648 0.0440058 -0.53857 0.0723608 0.039477 -0.553976 
0.0795821 0.0350637 -0.568524 0.0860493 0.0308213 -0.582209 0.0917318 0.0267928 -0.595039 
0.0966481 0.0230079 -0.607026 0.100861 0.0194835 -0.618183 0.104467 0.0162252 -0.628523 
0.107584 0.0132291 -0.638055 0.110335 0.0104855 -0.646783 0.112836 0.00798113 -0.654711 
0.11518 0.00570293 -0.66184 0.117426 0.00364014 -0.668171 0.119601 0.00178628 -0.673707 
0.12169 0.000139989 -0.678458 0.12365 -0.00129497 -0.682432 0.125411 -0.00251064 -0.685645 
0.126893 -0.00349637 -0.688111 0.128014 -0.00424076 -0.689847 0.128708 -0.00473356 -0.690864 
0.128929 -0.00496734 -0.691173 
LINES 2 100
OFFSETS vtktypeint64
0 100 
CONNECTIVITY vtktypeint64
0 1 2 3 4 5 6 7 8 
9 10 11 12 13 14 15 16 17 
18 19 20 21 22 23 24 25 26 
27 28 29 30 31 32 33 34 35 
36 37 38 39 40 41 42 43 44 
45 46 47 48 49 50 51 52 53 
54 55 56 57 58 59 60 61 62 
63 64 65 66 67 68 69 70 71 
72 73 74 75 76 77 78 79 80 
81 82 83 84 85 86 87 88 89 
90 91 92 93 94 95 96 97 98 
99 
POINT_DATA 100
FIELD FieldData 3
_theta 1 100 double
0 0.031733259127 0.063466518254 0.095199777382 0.12693303651 0.15866629564 0.19039955476 0.22213281389 0.25386607302 
0.28559933214 0.31733259127 0.3490658504 0.38079910953 0.41253236865 0.44426562778 0.47599888691 0.50773214603 0.53946540516 
0.57119866429 0.60293192342 0.63466518254 0.66639844167 0.6981317008 0.72986495992 0.76159821905 0.79333147818 0.82506473731 
0.85679799643 0.88853125556 0.92026451469 0.95199777382 0.98373103294 1.0154642921 1.0471975512 1.0789308103 1.1106640695 
1.1423973286 1.1741305877 1.2058638468 1.237597106 1.2693303651 1.3010636242 1.3327968833 1.3645301425 1.3962634016 
1.4279966607 1.4597299198 1.491463179 1.5231964381 1.5549296972 1.5866629564 1.6183962155 1.6501294746 1.6818627337 
1.7135959929 1.745329252 1.7770625111 1.8087957702 1.8405290294 1.8722622885 1.9039955476 1.9357288068 1.9674620659 
1.999195325 2.0309285841 2.0626618433 2.0943951024 2.1261283615 2.1578616206 2.1895948798 2.2213281389 2.253061398 
2.2847946572 2.3165279163 2.3482611754 2.3799944345 2.4117276937 2.4434609528 2.4751942119 2.506927471 2.5386607302 
2.5703939893 2.6021272484 2.6338605076 2.6655937667 2.6973270258 2.7290602849 2.7607935441 2.7925268032 2.8242600623 
2.8559933214 2.8877265806 2.9194598397 2.9511930988 2.982926358 3.0146596171 3.0463928762 3.0781261353 3.1098593945 
3.1415926536 
_radius 1 100 double
7.8430990319e-16 0.014485098527 0.028955359227 0.043382052457 0.057726717709 0.071938785155 0.085955427704 0.09970375921 0.11310508644 
0.12608056297 0.13855735487 0.15047435371 0.16178656774 0.17246755481 0.18250957794 0.19192150598 0.20072479458 0.20894813462 
0.21662153457 0.22377071084 0.23041268692 0.23655341482 0.24218798319 0.24730354275 0.25188450732 0.25591901418 0.25940523456 
0.26235607369 0.26480113483 0.26678543572 0.26836504237 0.26960031175 0.27054771223 0.27125126517 0.27173463321 0.27199484972 
0.27199863828 0.27168215569 0.2709547521 0.26970695892 0.26782241264 0.2651928562 0.26173480169 0.25740597155 0.25221934669 
0.24625261791 0.23965112069 0.23262295865 0.22542597299 0.21834741381 0.21167845976 0.20568687496 0.20059180714 0.19654472969 
0.19361952197 0.19181251173 0.19105043257 0.19120207513 0.19208955884 0.19349798809 0.19518600856 0.19690133265 0.19840282444 
0.19948600457 0.20000579157 0.19989090269 0.19914724778 0.19785060752 0.19613079846 0.19415044119 0.19208173231 0.19008449472 
0.18828823361 0.18677987793 0.18559746401 0.18472871289 0.18411292135 0.18364508947 0.18318224069 0.18255248983 0.18156700601 
0.18003395547 0.17777265088 0.17462600934 0.17046993738 0.1652190144 0.15882850468 0.15129315522 0.142643444 0.13294000255 
0.12226692354 0.11072462729 0.098422916636 0.08547478272 0.071991414809 0.058078705729 0.043835347721 0.02935241969 0.01471421737 
5.5525789795e-16 
_area 1 100 double
0 0.00058224101899 0.0023220791517 0.0051986852298 0.0091766402723 0.014204594343 0.020213214762 0.027112922474 0.034792525935 
0.043120209737 0.051948067859 0.061120379575 0.070484429283 0.079901541291 0.08925576721 0.09845844488 0.10744809095 0.1161860308 
0.1246486563 0.13281781059 0.14067177722 0.14817988791 0.15530286131 0.16199875821 0.1682321246 0.17398277221 0.17925104321 
0.18405769511 0.18843825523 0.19243387141 0.19608219264 0.19941063834 0.20243153692 0.20513739396 0.20749532757 0.20944054593 
0.21086978017 0.2116375317 0.21155941923 0.21042608862 0.20802825775 0.20419011866 0.19880592335 0.19187339931 0.18351727123 
0.1739965724 0.16369112788 0.15306586828 0.14261605358 0.13280208956 0.12399026927 0.11641840007 0.11018865467 0.10527258342 
0.10153237375 0.09878675322 0.097018546602 0.09646671741 0.096596099551 0.097092768805 0.097772528971 0.098441193912 0.098874845321 
0.098830964164 0.098088128189 0.09649866615 0.094030546859 0.090780654787 0.086956358917 0.082836709651 0.078730320919 0.07494393536 
0.071770050494 0.069486418858 0.068318581273 0.068258415902 0.069052820549 0.070427813359 0.072121638334 0.073863617076 0.075373784463 
0.076376840012 0.076622907072 0.07590937599 0.074098972673 0.071130844275 0.067023700918 0.061871947167 0.055836610089 0.049132754941 
0.042014519535 0.034758481343 0.027646098515 0.020946395057 0.014900598682 0.0097106879742 0.0055334343232 0.002480440729 0.00062311478985 
5.6656948997e-17 
