# vtk DataFile Version 5.1
vtk output
ASCII
DATASET POLYDATA
POINTS 100 float
0.161867 0.0537068 0.731432 0.161772 0.0537205 0.731304 0.16153 0.0536261 0.730801 
0.161129 0.0534429 0.729875 0.160546 0.0532023 0.72845 0.159756 0.0529459 0.726435 
0.15873 0.0527215 0.723727 0.157441 0.0525793 0.720226 0.155867 0.0525676 0.71584 
0.153991 0.0527277 0.710501 0.151804 0.0530892 0.704165 0.149303 0.0536659 0.696822 
0.146488 0.0544524 0.688494 0.143364 0.0554223 0.679235 0.139933 0.0565282 0.669128 
0.136194 0.0577031 0.658276 0.132143 0.0588646 0.646795 0.127767 0.0599203 0.634808 
0.123048 0.060775 0.622431 0.117963 0.0613386 0.60977 0.112487 0.0615342 0.596913 
0.106597 0.0613061 0.583926 0.100276 0.0606253 0.570849 0.093515 0.0594944 0.557698 
0.0863198 0.0579485 0.544467 0.0787091 0.0560541 0.531131 0.0707164 0.0539048 0.517646 
0.0623886 0.0516142 0.50396 0.0537826 0.0493076 0.490013 0.0449619 0.0471118 0.47574 
0.0359914 0.0451452 0.461078 0.0269341 0.0435089 0.445962 0.0178463 0.0422792 0.430331 
0.00877611 0.0415028 0.414127 -0.000237254 0.0411952 0.397293 -0.00916234 0.0413414 0.379777 
-0.0179724 0.0419005 0.36153 -0.026641 0.0428115 0.34251 -0.0351372 0.0440012 0.32268 
-0.0434207 0.0453926 0.302014 -0.0514382 0.0469126 0.2805 -0.0591207 0.0484988 0.258143 
-0.0663838 0.0501041 0.234965 -0.0731303 0.0516988 0.211011 -0.0792546 0.0532707 0.186345 
-0.0846498 0.0548226 0.161053 -0.089216 0.056368 0.135238 -0.0928686 0.057926 0.109015 
-0.0955463 0.059516 0.0825064 -0.0972176 0.0611525 0.0558343 -0.0978845 0.0628415 0.0291129 
-0.0975833 0.0645777 0.00244317 -0.0963825 0.0663447 -0.0240934 -0.0943766 0.0681157 -0.050438 
-0.0916786 0.069856 -0.0765552 -0.0884096 0.0715265 -0.102432 -0.0846883 0.0730872 -0.128075 
-0.080621 0.0744999 -0.153501 -0.076293 0.0757309 -0.178732 -0.0717623 0.0767513 -0.203789 
-0.0670575 0.0775371 -0.228679 -0.0621777 0.0780669 -0.253392 -0.0570969 0.0783204 -0.277896 
-0.0517708 0.0782745 -0.302134 -0.0461459 0.0779022 -0.326025 -0.0401688 0.0771705 -0.349473 
-0.0337963 0.076041 -0.372365 -0.0270039 0.0744715 -0.39459 -0.0197922 0.07242 -0.41604 
-0.0121905 0.0698495 -0.436628 -0.00425763 0.0667339 -0.45629 0.00392038 0.0630642 -0.474997 
0.012235 0.0588532 -0.492752 0.020562 0.0541398 -0.509598 0.0287692 0.0489896 -0.525606 
0.0367245 0.043494 -0.540872 0.0443034 0.0377656 -0.555505 0.051395 0.0319316 -0.569616 
0.0579067 0.0261248 -0.583305 0.0637668 0.0204742 -0.596651 0.0689253 0.0150945 -0.609699 
0.0733533 0.0100781 -0.62246 0.077041 0.00548836 -0.634902 0.0799957 0.0013558 -0.646958 
0.0822391 -0.00232167 -0.65853 0.0838051 -0.00557562 -0.669498 0.0847383 -0.00846067 -0.679734 
0.0850928 -0.0110458 -0.689115 0.0849321 -0.0134045 -0.697537 0.0843283 -0.0156046 -0.704922 
0.083362 -0.0176994 -0.711234 0.0821217 -0.0197213 -0.716476 0.0807021 -0.0216781 -0.720696 
0.0792017 -0.0235527 -0.723976 0.0777197 -0.0253065 -0.726431 0.0763517 -0.0268849 -0.728189 
0.0751848 -0.0282259 -0.729383 0.0742933 -0.0292688 -0.730135 0.0737337 -0.0299626 -0.730543 
0.0735415 -0.0302732 -0.730669 
LINES 2 100
OFFSETS vtktypeint64
0 100 
CONNECTIVITY vtktypeint64
0 1 2 3 4 5 6 7 8 
9 10 11 12 13 14 15 16 17 
18 19 20 21 22 23 24 25 26 
27 28 29 30 31 32 33 34 35 
36 37 38 39 40 41 42 43 44 
45 46 47 48 49 50 51 52 53 
54 55 56 57 58 59 60 61 62 
63 64 65 66 67 68 69 70 71 
72 73 74 75 76 77 78 79 80 
81 82 83 84 85 86 87 88 89 
90 91 92 93 94 95 96 97 98 
99 
POINT_DATA 100
FIELD FieldData 3
_theta 1 100 double
0 0.031733259127 0.063466518254 0.095199777382 0.12693303651 0.15866629564 0.19039955476 0.22213281389 0.25386607302 
0.28559933214 0.31733259127 0.3490658504 0.38079910953 0.41253236865 0.44426562778 0.47599888691 0.50773214603 0.53946540516 
0.57119866429 0.60293192342 0.63466518254 0.66639844167 0.6981317008 0.72986495992 0.76159821905 0.79333147818 0.82506473731 
0.85679799643 0.88853125556 0.92026451469 0.95199777382 0.98373103294 1.0154642921 1.0471975512 1.0789308103 1.1106640695 
1.1423973286 1.1741305877 1.2058638468 1.237597106 1.2693303651 1.3010636242 1.3327968833 1.3645301425 1.3962634016 
1.4279966607 1.4597299198 1.491463179 1.5231964381 1.5549296972 1.5866629564 1.6183962155 1.6501294746 1.6818627337 
1.7135959929 1.745329252 1.7770625111 1.8087957702 1.8405290294 1.8722622885 1.9039955476 1.9357288068 1.9674620659 
1.999195325 2.0309285841 2.0626618433 2.0943951024 2.1261283615 2.1578616206 2.1895948798 2.2213281389 2.253061398 
2.2847946572 2.3165279163 2.3482611754 2.3799944345 2.4117276937 2.4434609528 2.4751942119 2.506927471 2.5386607302 
2.5703939893 2.6021272484 2.6338605076 2.6655937667 2.6973270258 2.7290602849 2.7607935441 2.7925268032 2.8242600623 
2.8559933214 2.8877265806 2.9194598397 2.9511930988 2.982926358 3.0146596171 3.0463928762 3.0781261353 3.1098593945 
3.1415926536 
_radius 1 100 double
2.7790248428e-16 0.015808147516 0.031450303452 0.046771309589 0.0616348734 0.075930680863 0.089579132431 0.10253333625 0.11477827908 
0.12632737299 0.13721680876 0.14749831747 0.15723105056 0.16647334884 0.17527518981 0.18367207344 0.19168100935 0.19929908408 
0.20650481504 0.21326216019 0.21952669367 0.22525312498 0.23040308047 0.23495192351 0.23889340796 0.24224118248 0.24502662135 
0.24729314159 0.24908797831 0.25045311886 0.25141745438 0.25199196674 0.25216894105 0.25192509149 0.25122757663 0.25004149104 
0.2483375744 0.24609933503 0.24332922598 0.24005371701 0.23632702051 0.23223295108 0.22788412404 0.22341764449 0.21898677964 
0.2147488959 0.2108510582 0.20741578257 0.20452996351 0.20223944553 0.20054999774 0.19943325882 0.1988347377 0.19868110734 
0.19888570544 0.19935314247 0.19998475272 0.20068584379 0.20137417903 0.20198804479 0.20249204305 0.20287916865 0.20316845903 
0.20339838561 0.20361707103 0.20387117931 0.20419568635 0.20460648961 0.20509693971 0.20563815584 0.20618194434 0.20666475252 
0.20701146331 0.20713862341 0.20695736654 0.20637650795 0.20530608298 0.20366125895 0.20136631301 0.19835829871 0.19459004964 
0.1900322203 0.18467412814 0.17852324495 0.17160328207 0.16395091779 0.15561134214 0.14663297559 0.1370619598 0.12693727308 
0.11628748658 0.10513012425 0.093474225985 0.081326045186 0.068696983933 0.055612139951 0.042117478609 0.028283806937 0.014206387524 
9.9747977563e-16 
_area 1 100 double
0 0.00057649384118 0.0022831786864 0.0050540453123 0.0087867062442 0.013352773208 0.018610283599 0.024416308511 0.030637964547 
0.037160625197 0.043892894189 0.050768480971 0.057745320308 0.064802201495 0.071933102564 0.079139644202 0.086422619994 0.093774062613 
0.1011712647 0.10857354196 0.11592196048 0.12314234611 0.13015205346 0.13686968754 0.14322430308 0.14915971502 0.15463291642 
0.15960987021 0.16406183394 0.16796224537 0.17128316281 0.17399159082 0.17604674402 0.17739886725 0.17799007058 0.17775807439 
0.17664380537 0.17460287248 0.1716195854 0.16772108548 0.16298859002 0.15756266035 0.15163985921 0.14545930434 0.13927931454 
0.13334609246 0.12785830629 0.12293580029 0.11860848147 0.11484071881 0.11158537391 0.10883488533 0.10654738013 0.10468083381 
0.10322413419 0.10214626509 0.10137857756 0.10081737445 0.10036008443 0.099870619433 0.099210446032 0.098316523208 0.097199162968 
0.095940629792 0.09469029187 0.093661927685 0.093106851433 0.093137688857 0.093617255045 0.09436657393 0.095244129835 0.096162446472 
0.097084244979 0.098001200497 0.098901550286 0.099738956291 0.10041640006 0.10078824956 0.1006753977 0.099889439657 0.098261321475 
0.095667247171 0.092046312904 0.087408362458 0.081832823658 0.075459779318 0.068474729803 0.061089070561 0.053519104231 0.045967046075 
0.038607578964 0.031582746439 0.025006147405 0.018974641849 0.013582856007 0.0089341726297 0.0051429573093 0.0023263269965 0.00058802662942 
2.8216256479e-17 
