# vtk DataFile Version 5.1
vtk output
ASCII
DATASET POLYDATA
POINTS 100 float
0.100369 0.0434638 0.686305 0.100396 0.0437549 0.686036 0.100555 0.0444767 0.685126 
0.100803 0.0455772 0.683599 0.101079 0.0469759 0.681494 0.101306 0.0485724 0.678852 
0.101401 0.0502567 0.675716 0.101285 0.05192 0.672116 0.100894 0.0534653 0.668067 
0.10018 0.0548154 0.663564 0.0991212 0.0559188 0.658579 0.0977165 0.0567519 0.653068 
0.095987 0.0573178 0.646972 0.0939688 0.0576414 0.64023 0.0917064 0.0577631 0.632786 
0.0892449 0.0577298 0.624597 0.0866219 0.0575871 0.615645 0.0838625 0.0573706 0.605939 
0.0809751 0.0571012 0.595517 0.077951 0.0567817 0.584443 0.0747662 0.0563971 0.572806 
0.0713863 0.0559179 0.560703 0.0677726 0.0553059 0.548234 0.0638891 0.0545215 0.53549 
0.0597086 0.0535323 0.522542 0.0552181 0.0523202 0.509436 0.0504209 0.050888 0.496185 
0.0453368 0.0492627 0.482774 0.0399989 0.0474962 0.469159 0.0344484 0.0456626 0.45528 
0.0287277 0.0438526 0.441065 0.0228735 0.0421658 0.426443 0.0169098 0.0407013 0.411354 
0.0108442 0.0395483 0.395753 0.0046659 0.0387774 0.379619 -0.00165214 0.0384338 0.362951 
-0.00814791 0.0385333 0.345769 -0.0148621 0.0390613 0.328106 -0.0218276 0.0399751 0.31 
-0.0290587 0.0412093 0.291484 -0.0365408 0.0426828 0.272581 -0.0442227 0.044308 0.253299 
-0.0520121 0.0459994 0.233625 -0.0597761 0.0476823 0.213528 -0.0673465 0.0492996 0.192966 
-0.0745291 0.0508157 0.171894 -0.0811179 0.0522184 0.150272 -0.0869108 0.0535178 0.12808 
-0.0917266 0.0547428 0.105321 -0.0954208 0.0559351 0.0820366 -0.0978983 0.0571432 0.0583009 
-0.0991221 0.0584146 0.0342243 -0.0991164 0.0597895 0.00994488 -0.0979642 0.0612953 -0.0143825 
-0.0957989 0.0629431 -0.0385997 -0.0927917 0.0647254 -0.0625595 -0.0891357 0.0666165 -0.0861403 
-0.0850282 0.0685749 -0.109257 -0.080654 0.0705464 -0.131867 -0.0761703 0.0724686 -0.153975 
-0.0716957 0.0742756 -0.175624 -0.0673041 0.075903 -0.196891 -0.0630239 0.0772915 -0.217871 
-0.0588416 0.0783904 -0.238663 -0.0547115 0.0791599 -0.259353 -0.0505663 0.0795719 -0.279999 
-0.0463315 0.0796108 -0.300624 -0.0419389 0.0792725 -0.321206 -0.0373382 0.0785641 -0.341682 
-0.0325066 0.077502 -0.361952 -0.0274543 0.0761113 -0.381892 -0.0222258 0.0744241 -0.401365 
-0.0168969 0.0724779 -0.420239 -0.0115693 0.0703152 -0.438401 -0.00636083 0.067981 -0.45577 
-0.00139598 0.065522 -0.472304 0.00320494 0.0629845 -0.488 0.00733514 0.0604126 -0.502891 
0.0109091 0.057846 -0.517041 0.0138676 0.055318 -0.530526 0.0161803 0.0528539 -0.543423 
0.0178451 0.0504696 -0.555793 0.018886 0.0481714 -0.567671 0.0193481 0.0459562 -0.579058 
0.0192932 0.0438129 -0.589914 0.0187931 0.0417249 -0.600167 0.0179254 0.0396735 -0.609719 
0.0167686 0.0376406 -0.618459 0.0153989 0.0356135 -0.626279 0.0138882 0.0335873 -0.633093 
0.0123029 0.0315679 -0.638847 0.0107041 0.0295733 -0.643532 0.0091472 0.0276336 -0.64719 
0.00768272 0.0257895 -0.649909 0.00635624 0.0240895 -0.651817 0.00520835 0.0225861 -0.653069 
0.0042742 0.0213308 -0.653829 0.00358267 0.0203698 -0.654248 0.0031555 0.0197393 -0.654451 
0.00300639 0.0194622 -0.654519 
LINES 2 100
OFFSETS vtktypeint64
0 100 
CONNECTIVITY vtktypeint64
0 1 2 3 4 5 6 7 8 
9 10 11 12 13 14 15 16 17 
18 19 20 21 22 23 24 25 26 
27 28 29 30 31 32 33 34 35 
36 37 38 39 40 41 42 43 44 
45 46 47 48 49 50 51 52 53 
54 55 56 57 58 59 60 61 62 
63 64 65 66 67 68 69 70 71 
72 73 74 75 76 77 78 79 80 
81 82 83 84 85 86 87 88 89 
90 91 92 93 94 95 96 97 98 
99 
POINT_DATA 100
FIELD FieldData 3
_theta 1 100 double
0 0.031733259127 0.063466518254 0.095199777382 0.12693303651 0.15866629564 0.19039955476 0.22213281389 0.25386607302 
0.28559933214 0.31733259127 0.3490658504 0.38079910953 0.41253236865 0.44426562778 0.47599888691 0.50773214603 0.53946540516 
0.57119866429 0.60293192342 0.63466518254 0.66639844167 0.6981317008 0.72986495992 0.76159821905 0.79333147818 0.82506473731 
0.85679799643 0.88853125556 0.92026451469 0.95199777382 0.98373103294 1.0154642921 1.0471975512 1.0789308103 1.1106640695 
1.1423973286 1.1741305877 1.2058638468 1.237597106 1.2693303651 1.3010636242 1.3327968833 1.3645301425 1.3962634016 
1.4279966607 1.4597299198 1.491463179 1.5231964381 1.5549296972 1.5866629564 1.6183962155 1.6501294746 1.6818627337 
1.7135959929 1.745329252 1.7770625111 1.8087957702 1.8405290294 1.8722622885 1.9039955476 1.9357288068 1.9674620659 
1.999195325 2.0309285841 2.0626618433 2.0943951024 2.1261283615 2.1578616206 2.1895948798 2.2213281389 2.253061398 
2.2847946572 2.3165279163 2.3482611754 2.3799944345 2.4117276937 2.4434609528 2.4751942119 2.506927471 2.5386607302 
2.5703939893 2.6021272484 2.6338605076 2.6655937667 2.6973270258 2.7290602849 2.7607935441 2.7925268032 2.8242600623 
2.8559933214 2.8877265806 2.9194598397 2.9511930988 2.982926358 3.0146596171 3.0463928762 3.0781261353 3.1098593945 
3.1415926536 
_radius 1 100 double
4.5337056953e-16 0.014034440622 0.028046357046 0.042003375345 0.055861949747 0.069564063649 0.083036089508 0.096190133851 0.1089278641 
0.12114647828 0.13274622353 0.14363872374 0.15375528927 0.16305427132 0.17152638216 0.17919683478 0.18612333656 0.19238953093 
0.19809440227 0.20333921342 0.20821434121 0.21278854405 0.21710261578 0.22116825677 0.22497173734 0.22848096336 0.23165415473 
0.23444852194 0.23682780492 0.23876796625 0.24026054587 0.24131330792 0.24194804174 0.24219578675 0.24209024198 0.24166055224 
0.24092491474 0.23988644763 0.23853248024 0.23683788692 0.2347723639 0.23231075055 0.22944475902 0.22619395678 0.2226136965 
0.2187980205 0.21487642405 0.21100466277 0.20735126168 0.20408250975 0.20134887762 0.19927466223 0.1979506805 0.19742816598 
0.19771187622 0.19875223506 0.20043928645 0.20260334092 0.20502641266 0.2074646771 0.20967762629 0.21145730215 0.21265172818 
0.21317907338 0.21303155841 0.21226990926 0.21101022934 0.20940569265 0.20762560918 0.2058342381 0.20417131575 0.20273585425 
0.2015745286 0.20067575489 0.19997009843 0.19933697141 0.1986168531 0.19762747572 0.19618169887 0.19410455456 0.19124738121 
0.18749780325 0.18278513112 0.17708133145 0.17039806918 0.1627805632 0.15429919936 0.14504001315 0.13509524403 0.12455512278 
0.11350184329 0.10200628667 0.090127556784 0.077914866351 0.065410928314 0.052655859216 0.039690685038 0.026559784705 0.013311938661 
1.0139189151e-15 
_area 1 100 double
0 0.00048515353862 0.0019303046209 0.0043052950751 0.0075624349628 0.011640297622 0.016468598498 0.021973180173 0.028079506303 
0.034712791461 0.041793382298 0.049227710389 0.056898365799 0.064660343674 0.072350395904 0.079810361665 0.086917526937 0.093611194859 
0.099905581145 0.10588284319 0.11166525876 0.11737256726 0.12307924986 0.12879185612 0.13445847709 0.14000130811 0.14534665228 
0.15043086417 0.1551829065 0.15950558569 0.16327780361 0.16637963181 0.1687236112 0.17027441388 0.1710485482 0.17109598004 
0.1704726591 0.16921589655 0.1673324809 0.16480330586 0.16160143568 0.15771631974 0.15317623173 0.14806256709 0.14251164575 
0.13670167273 0.13082575529 0.1250581343 0.11952845841 0.1143197329 0.10949367664 0.10513549159 0.10141508976 0.09856226964 
0.096663779039 0.095733895317 0.095755906393 0.096618904426 0.098077398075 0.099775725289 0.10132847178 0.10239885757 0.10274644215 
0.10224738283 0.10089428427 0.098783258972 0.096096012999 0.093080198444 0.090025275744 0.087227705467 0.084948384392 0.083400584545 
0.082768674334 0.083105046837 0.084237512101 0.08591473497 0.087858572459 0.089756918251 0.091285745827 0.092136523236 0.092041380172 
0.090794503434 0.088269776409 0.084433880098 0.079352449712 0.07318618293 0.066175144941 0.058612296591 0.050810032594 0.043065408272 
0.03563058264 0.028694642066 0.022380852394 0.016759250304 0.011869610124 0.0077463601485 0.0044360259563 0.0020003349263 0.00050482721292 
4.8374964168e-18 
