# vtk DataFile Version 5.1
vtk output
ASCII
DATASET POLYDATA
POINTS 100 float
0.120059 0.0228734 0.631195 0.120066 0.0230551 0.630945 0.120128 0.0234112 0.630117 
0.120203 0.0239328 0.628724 0.120225 0.0246069 0.626786 0.120115 0.0254169 0.624326 
0.119786 0.0263434 0.621361 0.119154 0.0273643 0.617904 0.118148 0.0284558 0.613954 
0.116715 0.0295927 0.609497 0.114824 0.030749 0.604508 0.112471 0.031898 0.598953 
0.109674 0.0330133 0.592795 0.106468 0.0340682 0.585999 0.102903 0.0350363 0.578541 
0.0990293 0.0358918 0.570416 0.0948945 0.0366097 0.561637 0.0905355 0.0371659 0.552245 
0.0859731 0.0375383 0.5423 0.0812105 0.0377073 0.531884 0.0762343 0.0376566 0.52109 
0.0710182 0.0373756 0.510015 0.0655294 0.0368596 0.498746 0.0597362 0.0361126 0.487359 
0.053616 0.0351483 0.475904 0.0471627 0.0339914 0.464402 0.0403917 0.0326784 0.452846 
0.0333422 0.0312581 0.441203 0.0260765 0.0297899 0.429418 0.0186754 0.028343 0.417424 
0.0112304 0.0269929 0.405152 0.00383471 0.0258177 0.392542 -0.00342822 0.024894 0.37955 
-0.0104945 0.0242913 0.366154 -0.0173285 0.024068 0.352356 -0.0239283 0.0242659 0.338183 
-0.0303273 0.0249075 0.323677 -0.0365908 0.0259933 0.308887 -0.0428087 0.0275015 0.29386 
-0.0490841 0.029389 0.278626 -0.0555188 0.0315946 0.26319 -0.0621979 0.0340438 0.247525 
-0.0691746 0.0366549 0.231567 -0.0764577 0.0393451 0.21522 -0.0840017 0.042038 0.19836 
-0.0917038 0.0446693 0.180847 -0.0994047 0.0471917 0.162541 -0.106897 0.0495781 0.143316 
-0.113938 0.0518226 0.12308 -0.120267 0.0539388 0.101783 -0.125625 0.0559567 0.0794311 
-0.129775 0.0579171 0.0560878 -0.132522 0.0598649 0.0318749 -0.133729 0.0618422 0.00696314 
-0.133325 0.0638814 -0.0184394 -0.131314 0.0659995 -0.0441039 -0.127771 0.0681935 -0.0697988 
-0.122832 0.0704392 -0.0953073 -0.116684 0.0726912 -0.120443 -0.109548 0.0748858 -0.145063 
-0.101654 0.0769459 -0.169071 -0.0932259 0.0787875 -0.192421 -0.0844633 0.0803262 -0.215115 
-0.0755256 0.0814848 -0.237187 -0.0665243 0.0821988 -0.258696 -0.0575192 0.0824215 -0.279713 
-0.0485216 0.0821262 -0.300301 -0.039502 0.0813068 -0.32051 -0.0304027 0.079976 -0.340364 
-0.021153 0.0781617 -0.359861 -0.0116848 0.0759025 -0.378968 -0.00194777 0.0732421 -0.397627 
0.00807888 0.0702246 -0.415767 0.0183781 0.0668905 -0.433306 0.0288924 0.0632736 -0.450164 
0.0395258 0.0594014 -0.466273 0.0501507 0.0552952 -0.481582 0.0606197 0.0509739 -0.49606 
0.0707783 0.0464574 -0.509699 0.0804798 0.0417716 -0.522509 0.089599 0.0369527 -0.534513 
0.0980431 0.0320502 -0.545741 0.10576 0.0271284 -0.556224 0.112739 0.0222662 -0.565986 
0.119013 0.0175533 -0.57504 0.124649 0.0130861 -0.583389 0.129737 0.00895957 -0.591025 
0.13438 0.00526052 -0.597931 0.13868 0.00205899 -0.604092 0.142724 -0.000598535 -0.609493 
0.146573 -0.00269435 -0.614135 0.150258 -0.00424211 -0.618032 0.15377 -0.00528638 -0.621218 
0.157071 -0.00589901 -0.623746 0.16009 -0.00617254 -0.625683 0.16274 -0.00621133 -0.627109 
0.164925 -0.00612114 -0.628104 0.166554 -0.00599849 -0.628746 0.167551 -0.00592072 -0.629095 
0.167869 -0.00593794 -0.62919 
LINES 2 100
OFFSETS vtktypeint64
0 100 
CONNECTIVITY vtktypeint64
0 1 2 3 4 5 6 7 8 
9 10 11 12 13 14 15 16 17 
18 19 20 21 22 23 24 25 26 
27 28 29 30 31 32 33 34 35 
36 37 38 39 40 41 42 43 44 
45 46 47 48 49 50 51 52 53 
54 55 56 57 58 59 60 61 62 
63 64 65 66 67 68 69 70 71 
72 73 74 75 76 77 78 79 80 
81 82 83 84 85 86 87 88 89 
90 91 92 93 94 95 96 97 98 
99 
POINT_DATA 100
FIELD FieldData 3
_theta 1 100 double
0 0.031733259127 0.063466518254 0.095199777382 0.12693303651 0.15866629564 0.19039955476 0.22213281389 0.25386607302 
0.28559933214 0.31733259127 0.3490658504 0.38079910953 0.41253236865 0.44426562778 0.47599888691 0.50773214603 0.53946540516 
0.57119866429 0.60293192342 0.63466518254 0.66639844167 0.6981317008 0.72986495992 0.76159821905 0.79333147818 0.82506473731 
0.85679799643 0.88853125556 0.92026451469 0.95199777382 0.98373103294 1.0154642921 1.0471975512 1.0789308103 1.1106640695 
1.1423973286 1.1741305877 1.2058638468 1.237597106 1.2693303651 1.3010636242 1.3327968833 1.3645301425 1.3962634016 
1.4279966607 1.4597299198 1.491463179 1.5231964381 1.5549296972 1.5866629564 1.6183962155 1.6501294746 1.6818627337 
1.7135959929 1.745329252 1.7770625111 1.8087957702 1.8405290294 1.8722622885 1.9039955476 1.9357288068 1.9674620659 
1.999195325 2.0309285841 2.0626618433 2.0943951024 2.1261283615 2.1578616206 2.1895948798 2.2213281389 2.253061398 
2.2847946572 2.3165279163 2.3482611754 2.3799944345 2.4117276937 2.4434609528 2.4751942119 2.506927471 2.5386607302 
2.5703939893 2.6021272484 2.6338605076 2.6655937667 2.6973270258 2.7290602849 2.7607935441 2.7925268032 2.8242600623 
2.8559933214 2.8877265806 2.9194598397 2.9511930988 2.982926358 3.0146596171 3.0463928762 3.0781261353 3.1098593945 
3.1415926536 
_radius 1 100 double
2.2336880405e-16 0.015262830604 0.030378750925 0.0452099436 0.059634705894 0.073553684807 0.08689419355 0.09961215612 0.11169143052 
0.12314056342 0.13398741706 0.14427251865 0.15404227012 0.16334313109 0.17221744708 0.18070088685 0.1888208513 0.19659506547 
0.20402991842 0.2111187328 0.21784069043 0.22416136815 0.23003566079 0.23541333515 0.24024672011 0.24449931358 0.24815360782 
0.25121637493 0.25372006237 0.25571972703 0.25728587251 0.25849438256 0.25941524302 0.26010181777 0.26058215765 0.26085335655 
0.26087951396 0.26059351718 0.25990260883 0.25869748871 0.2568644487 0.25429973061 0.25092495076 0.2467021089 0.24164646143 
0.23583544934 0.22941196858 0.2225805819 0.21559583559 0.20874274243 0.20231084411 0.19656510254 0.19171877449 0.18791419831 
0.18521561783 0.18361383815 0.1830381834 0.18336991396 0.184453457 0.18610537035 0.18812342225 0.1902983806 0.19242937155 
0.19434122657 0.19590054507 0.19702706618 0.19769810386 0.19794539408 0.19784508255 0.19750257711 0.19703464562 0.1965514361 
0.19614089926 0.19585733466 0.19571467054 0.19568411236 0.19569538632 0.19564094823 0.19538280884 0.19476166293 0.19360776806 
0.19175271625 0.1890410613 0.18534075387 0.18055145671 0.17461001805 0.16749265024 0.15921369517 0.14982125462 0.13939038894 
0.12801495489 0.11579934986 0.10285136111 0.08927697135 0.075177437319 0.060648409779 0.045780481329 0.030660435497 0.015372603907 
1.0536239765e-15 
_area 1 100 double
0 0.00061733964723 0.0024432535184 0.0054036871259 0.0093881933713 0.014265633078 0.019900205448 0.026164616312 0.032948504547 
0.040161552291 0.047731665137 0.055599341604 0.063710095886 0.072007450029 0.08042903099 0.088907210839 0.097373727463 0.10576581476 
0.11403069486 0.12212631027 0.13001829188 0.13767494695 0.14506238981 0.15214115982 0.15886512105 0.16518358511 0.17104710712 
0.17641491917 0.1812589292 0.18555979349 0.18929718514 0.1924428367 0.19496135045 0.19681519616 0.19796902487 0.19839277735 
0.19806618487 0.19698638753 0.1951696505 0.19262369754 0.18928987082 0.18502921357 0.17971111285 0.17328827655 0.16581743591 
0.15746043694 0.14847601564 0.13920117945 0.13002113103 0.12132856391 0.11347489166 0.10671823354 0.1011828274 0.096861869416 
0.093673934923 0.091494231721 0.090119611526 0.089318741383 0.088898086336 0.088697319309 0.088583533847 0.088467919882 0.088326388617 
0.088191089471 0.088078723847 0.087894744831 0.087461224894 0.08664799819 0.085439458549 0.083925673933 0.082269557406 0.080670743123 
0.079331663432 0.078427445325 0.078078070018 0.078322505404 0.079103016311 0.080269620486 0.081601059427 0.082830562823 0.083671534921 
0.083844253162 0.083103482511 0.081264101928 0.07822099876 0.073960437343 0.068561700599 0.062189297177 0.055077178096 0.047507191348 
0.039784425115 0.032212168611 0.02506903449 0.018590470971 0.01295654624 0.0082874804885 0.004647711618 0.0020579870011 0.0005129956849 
5.7092079853e-17 
