# vtk DataFile Version 5.1
vtk output
ASCII
DATASET POLYDATA
POINTS 100 float
0.171672 0.0493106 0.757675 0.171574 0.0493696 0.757351 0.171327 0.0494243 0.756263 
0.170928 0.0495043 0.754412 0.170374 0.0496546 0.751799 0.169661 0.0499295 0.748429 
0.168781 0.0503836 0.744303 0.167726 0.0510636 0.739427 0.166481 0.0519993 0.733804 
0.165031 0.0531976 0.72744 0.163355 0.0546375 0.720346 0.161426 0.0562693 0.712536 
0.159212 0.0580162 0.704035 0.156679 0.0597796 0.694877 0.153786 0.0614468 0.685109 
0.15049 0.0629002 0.674789 0.146749 0.0640279 0.663988 0.142526 0.0647337 0.652782 
0.137788 0.0649462 0.64125 0.132515 0.064625 0.629469 0.126698 0.0637651 0.617502 
0.120349 0.0623973 0.605397 0.113494 0.0605856 0.593181 0.106181 0.0584222 0.58085 
0.0984723 0.0560197 0.568375 0.0904436 0.0535022 0.555701 0.0821797 0.0509957 0.542748 
0.0737672 0.0486189 0.529425 0.0652883 0.0464752 0.515633 0.0568139 0.044647 0.501275 
0.048398 0.0431913 0.48627 0.0400735 0.0421387 0.470556 0.0318504 0.0414942 0.454098 
0.0237162 0.0412401 0.436887 0.0156393 0.0413407 0.418943 0.00757507 0.0417472 0.400308 
-0.000526134 0.0424036 0.381042 -0.00870988 0.0432522 0.361208 -0.0170079 0.0442383 0.340869 
-0.0254293 0.0453133 0.320078 -0.0339536 0.0464381 0.29887 -0.0425258 0.0475833 0.27726 
-0.0510564 0.0487301 0.255243 -0.0594229 0.0498692 0.2328 -0.0674768 0.0509995 0.209899 
-0.0750528 0.0521266 0.18651 -0.0819803 0.0532606 0.162611 -0.0880966 0.0544146 0.138198 
-0.0932593 0.0556028 0.113291 -0.097358 0.0568394 0.0879402 -0.100323 0.0581366 0.0622217 
-0.102131 0.0595039 0.0362379 -0.102807 0.0609462 0.0101078 -0.102419 0.0624633 -0.0160427 
-0.101074 0.064048 -0.0420922 -0.0989067 0.0656851 -0.0679346 -0.0960669 0.0673505 -0.0934886 
-0.0927071 0.0690106 -0.118704 -0.0889687 0.0706223 -0.143563 -0.0849713 0.0721335 -0.168077 
-0.0808042 0.0734846 -0.192282 -0.076521 0.0746113 -0.216227 -0.0721393 0.0754468 -0.23996 
-0.0676431 0.0759265 -0.263519 -0.0629894 0.0759915 -0.28692 -0.0581177 0.0755928 -0.310149 
-0.0529606 0.0746953 -0.333158 -0.0474554 0.0732807 -0.355869 -0.0415546 0.0713495 -0.378178 
-0.0352356 0.0689219 -0.39997 -0.0285062 0.066037 -0.421128 -0.0214087 0.0627508 -0.441552 
-0.0140193 0.0591329 -0.461168 -0.00644457 0.055262 -0.479943 0.00118439 0.0512211 -0.497885 
0.00872056 0.0470923 -0.515046 0.0160106 0.0429518 -0.531515 0.0229049 0.0388656 -0.547403 
0.0292668 0.0348867 -0.56283 0.0349809 0.0310527 -0.577906 0.0399593 0.0273855 -0.592712 
0.0441451 0.0238921 -0.607284 0.0475144 0.0205666 -0.621605 0.0500752 0.0173935 -0.635602 
0.0518645 0.0143514 -0.649147 0.0529442 0.0114168 -0.66207 0.0533954 0.00856842 -0.674174 
0.0533124 0.00579022 -0.685259 0.052797 0.0030745 -0.695147 0.0519531 0.000423493 -0.703697 
0.0508814 -0.00214984 -0.71083 0.0496765 -0.00462219 -0.716535 0.0484238 -0.00696124 -0.720877 
0.0471978 -0.00912783 -0.723988 0.0460616 -0.0110787 -0.726057 0.0450669 -0.0127698 -0.727307 
0.0442543 -0.0141592 -0.72797 0.0436544 -0.0152105 -0.728263 0.0432881 -0.015895 -0.728362 
0.043168 -0.0161945 -0.728381 
LINES 2 100
OFFSETS vtktypeint64
0 100 
CONNECTIVITY vtktypeint64
0 1 2 3 4 5 6 7 8 
9 10 11 12 13 14 15 16 17 
18 19 20 21 22 23 24 25 26 
27 28 29 30 31 32 33 34 35 
36 37 38 39 40 41 42 43 44 
45 46 47 48 49 50 51 52 53 
54 55 56 57 58 59 60 61 62 
63 64 65 66 67 68 69 70 71 
72 73 74 75 76 77 78 79 80 
81 82 83 84 85 86 87 88 89 
90 91 92 93 94 95 96 97 98 
99 
POINT_DATA 100
FIELD FieldData 3
_theta 1 100 double
0 0.031733259127 0.063466518254 0.095199777382 0.12693303651 0.15866629564 0.19039955476 0.22213281389 0.25386607302 
0.28559933214 0.31733259127 0.3490658504 0.38079910953 0.41253236865 0.44426562778 0.47599888691 0.50773214603 0.53946540516 
0.57119866429 0.60293192342 0.63466518254 0.66639844167 0.6981317008 0.72986495992 0.76159821905 0.79333147818 0.82506473731 
0.85679799643 0.88853125556 0.92026451469 0.95199777382 0.98373103294 1.0154642921 1.0471975512 1.0789308103 1.1106640695 
1.1423973286 1.1741305877 1.2058638468 1.237597106 1.2693303651 1.3010636242 1.3327968833 1.3645301425 1.3962634016 
1.4279966607 1.4597299198 1.491463179 1.5231964381 1.5549296972 1.5866629564 1.6183962155 1.6501294746 1.6818627337 
1.7135959929 1.745329252 1.7770625111 1.8087957702 1.8405290294 1.8722622885 1.9039955476 1.9357288068 1.9674620659 
1.999195325 2.0309285841 2.0626618433 2.0943951024 2.1261283615 2.1578616206 2.1895948798 2.2213281389 2.253061398 
2.2847946572 2.3165279163 2.3482611754 2.3799944345 2.4117276937 2.4434609528 2.4751942119 2.506927471 2.5386607302 
2.5703939893 2.6021272484 2.6338605076 2.6655937667 2.6973270258 2.7290602849 2.7607935441 2.7925268032 2.8242600623 
2.8559933214 2.8877265806 2.9194598397 2.9511930988 2.982926358 3.0146596171 3.0463928762 3.0781261353 3.1098593945 
3.1415926536 
_radius 1 100 double
1.2412670766e-16 0.015226506509 0.030268381066 0.044956744042 0.059150205568 0.072744324331 0.085676536098 0.097926050866 0.10950895443 
0.12046948434 0.13086902844 0.14077463656 0.15024861921 0.15934020604 0.16807957536 0.17647424021 0.18450789734 0.19214209512 
0.19932100199 0.20597903716 0.21205045024 0.21747945827 0.22222939444 0.22628944141 0.22967783366 0.23244088086 0.23464776089 
0.23638170176 0.23772880746 0.23876624488 0.23955167458 0.24011562577 0.24045802343 0.24054938254 0.2403364425 0.23975137378 
0.23872326077 0.2371903847 0.23511185486 0.23247728664 0.2293134382 0.22568697867 0.22170288138 0.21749832722 0.21323246228 
0.20907286841 0.20518016734 0.20169276047 0.19871416269 0.19630539123 0.19448402141 0.19322973605 0.19249406041 0.19221061808 
0.19230261494 0.19268634992 0.19327220484 0.19396614048 0.19467429966 0.19531137587 0.19581121149 0.19613664001 0.19628533426 
0.19628938435 0.19620805276 0.19611493271 0.19608201899 0.19616379795 0.19638440639 0.19673024743 0.19714924866 0.19755645974 
0.19784438817 0.19789578956 0.197596658 0.19684767813 0.19557305898 0.19372615308 0.19129141418 0.18828222447 0.18473434999 
0.18069552738 0.17621272003 0.17131936118 0.16602501261 0.16030928753 0.1541208937 0.1473815959 0.13999406181 0.13185213163 
0.12285209566 0.11290395212 0.101942073 0.089934941118 0.076893510028 0.06287739441 0.047997800438 0.032416123952 0.016337581648 
1.4192980086e-15 
_area 1 100 double
0 0.00053119936787 0.0020918403668 0.004589756264 0.0078921846648 0.011852051122 0.016335601762 0.021244009083 0.026522388096 
0.032153605483 0.0381407075 0.04448644829 0.051177648278 0.058177566297 0.065425116094 0.07283796251 0.080317472027 0.087755616694 
0.09504496247 0.10209140546 0.10882599645 0.11520973384 0.12122697232 0.12687041285 0.13212858767 0.13698499937 0.14142622822 
0.14544919482 0.14906198256 0.15227915838 0.15511443616 0.15757216196 0.15963821285 0.16127213698 0.16240418021 0.16294060765 
0.16277791106 0.16182308209 0.16001525244 0.15734415418 0.15386218391 0.14968824743 0.14500243325 0.1400312111 0.13502402465 
0.13022389687 0.1258361392 0.12199987158 0.11876695847 0.11609327766 0.11384897638 0.11185198085 0.10991681899 0.10790151371 
0.10574339374 0.1035434168 0.10168914747 0.10003333193 0.098498103258 0.097124779507 0.095912430001 0.094806796173 0.093726701672 
0.092600090024 0.091389752322 0.090105586082 0.088804662489 0.087576945248 0.086507787632 0.085627266823 0.084901852723 0.084272711847 
0.083688027185 0.08312123078 0.082568629962 0.082006403016 0.081589002796 0.081319439952 0.081053627736 0.080606193777 0.079841307527 
0.078624724244 0.076832172319 0.074372756914 0.071203371635 0.067329304966 0.062795266851 0.057674255704 0.052059634654 0.046061643692 
0.039806654878 0.033437052682 0.027110893526 0.021001788597 0.01529929349 0.010208112199 0.005942117877 0.002709352759 0.00068814353085 
2.6350443216e-17 
