# vtk DataFile Version 5.1
vtk output
ASCII
DATASET POLYDATA
POINTS 100 float
0.108065 0.0377152 0.626609 0.108265 0.0378577 0.626577 0.108894 0.038161 0.626358 
0.109866 0.0386195 0.625936 0.111049 0.0392229 0.625283 0.112278 0.0399549 0.62436 
0.113378 0.0407925 0.623118 0.114181 0.041705 0.621496 0.114546 0.0426548 0.619426 
0.114375 0.0435983 0.616833 0.113618 0.0444891 0.613641 0.112282 0.0452812 0.609775 
0.110421 0.0459338 0.60517 0.108127 0.0464161 0.599775 0.105519 0.0467111 0.593557 
0.102719 0.0468191 0.586507 0.0998358 0.0467589 0.578641 0.0969509 0.0465674 0.570002 
0.0941022 0.0462965 0.560652 0.0912795 0.0460081 0.550676 0.0884241 0.0457675 0.540169 
0.085435 0.045636 0.529232 0.0821812 0.0456631 0.517963 0.0785183 0.0458798 0.506451 
0.0743067 0.0462938 0.494771 0.0694297 0.0468869 0.482977 0.0638095 0.0476157 0.471106 
0.0574177 0.0484153 0.459172 0.0502803 0.0492052 0.447177 0.0424763 0.0498979 0.43511 
0.0341294 0.0504086 0.422954 0.0253943 0.0506643 0.410694 0.0164397 0.0506129 0.398318 
0.00742943 0.050229 0.38582 -0.0014955 0.0495182 0.3732 -0.0102319 0.0485168 0.360467 
-0.0187241 0.0472895 0.347625 -0.0269681 0.045923 0.334678 -0.0350083 0.0445183 0.321616 
-0.0429281 0.0431815 0.308412 -0.0508354 0.0420137 0.295018 -0.0588447 0.0411032 0.281362 
-0.0670571 0.0405182 0.267348 -0.0755423 0.0403028 0.252863 -0.0843231 0.0404751 0.237781 
-0.0933654 0.041029 0.221973 -0.102574 0.0419369 0.205321 -0.111796 0.0431556 0.187725 
-0.120831 0.0446318 0.16912 -0.129443 0.0463082 0.149476 -0.137384 0.0481289 0.128809 
-0.144409 0.0500425 0.107183 -0.150304 0.0520046 0.0847002 -0.154897 0.053978 0.0615016 
-0.158073 0.0559313 0.0377529 -0.159784 0.0578367 0.0136335 -0.160052 0.059668 -0.0106762 
-0.158959 0.0613978 -0.0350063 -0.156642 0.0629966 -0.0592084 -0.153277 0.0644325 -0.0831616 
-0.149061 0.0656726 -0.106777 -0.144198 0.0666857 -0.129996 -0.138878 0.067445 -0.152788 
-0.133265 0.0679319 -0.175143 -0.127489 0.0681386 -0.197066 -0.121638 0.0680697 -0.218565 
-0.115757 0.0677423 -0.239643 -0.109855 0.0671838 -0.260297 -0.103909 0.0664284 -0.28051 
-0.0978756 0.0655112 -0.300252 -0.0917034 0.0644627 -0.319481 -0.0853414 0.0633026 -0.338149 
-0.0787505 0.0620352 -0.356206 -0.0719106 0.0606467 -0.373606 -0.0648245 0.0591048 -0.390316 
-0.0575199 0.0573623 -0.406315 -0.0500471 0.0553624 -0.421599 -0.0424753 0.0530479 -0.436181 
-0.0348861 0.0503703 -0.450083 -0.0273664 0.0473009 -0.46334 -0.0200016 0.0438391 -0.475983 
-0.0128691 0.0400195 -0.488042 -0.00603326 0.0359149 -0.499534 0.000457511 0.0316344 -0.510463 
0.00657198 0.0273182 -0.520813 0.012295 0.0231263 -0.530555 0.0176251 0.019226 -0.539646 
0.0225704 0.015775 -0.548036 0.0271443 0.0129067 -0.555677 0.0313612 0.0107152 -0.562524 
0.0352319 0.00924488 -0.568551 0.0387616 0.00848433 -0.573748 0.0419471 0.00836616 -0.578127 
0.0447773 0.00877276 -0.581723 0.0472337 0.00954779 -0.584588 0.0492929 0.010512 -0.586788 
0.0509292 0.0114819 -0.588393 0.0521181 0.0122891 -0.58947 0.0528392 0.0127988 -0.590074 
0.0530792 0.0129237 -0.590243 
LINES 2 100
OFFSETS vtktypeint64
0 100 
CONNECTIVITY vtktypeint64
0 1 2 3 4 5 6 7 8 
9 10 11 12 13 14 15 16 17 
18 19 20 21 22 23 24 25 26 
27 28 29 30 31 32 33 34 35 
36 37 38 39 40 41 42 43 44 
45 46 47 48 49 50 51 52 53 
54 55 56 57 58 59 60 61 62 
63 64 65 66 67 68 69 70 71 
72 73 74 75 76 77 78 79 80 
81 82 83 84 85 86 87 88 89 
90 91 92 93 94 95 96 97 98 
99 
POINT_DATA 100
FIELD FieldData 3
_theta 1 100 double
0 0.031733259127 0.063466518254 0.095199777382 0.12693303651 0.15866629564 0.19039955476 0.22213281389 0.25386607302 
0.28559933214 0.31733259127 0.3490658504 0.38079910953 0.41253236865 0.44426562778 0.47599888691 0.50773214603 0.53946540516 
0.57119866429 0.60293192342 0.63466518254 0.66639844167 0.6981317008 0.72986495992 0.76159821905 0.79333147818 0.82506473731 
0.85679799643 0.88853125556 0.92026451469 0.95199777382 0.98373103294 1.0154642921 1.0471975512 1.0789308103 1.1106640695 
1.1423973286 1.1741305877 1.2058638468 1.237597106 1.2693303651 1.3010636242 1.3327968833 1.3645301425 1.3962634016 
1.4279966607 1.4597299198 1.491463179 1.5231964381 1.5549296972 1.5866629564 1.6183962155 1.6501294746 1.6818627337 
1.7135959929 1.745329252 1.7770625111 1.8087957702 1.8405290294 1.8722622885 1.9039955476 1.9357288068 1.9674620659 
1.999195325 2.0309285841 2.0626618433 2.0943951024 2.1261283615 2.1578616206 2.1895948798 2.2213281389 2.253061398 
2.2847946572 2.3165279163 2.3482611754 2.3799944345 2.4117276937 2.4434609528 2.4751942119 2.506927471 2.5386607302 
2.5703939893 2.6021272484 2.6338605076 2.6655937667 2.6973270258 2.7290602849 2.7607935441 2.7925268032 2.8242600623 
2.8559933214 2.8877265806 2.9194598397 2.9511930988 2.982926358 3.0146596171 3.0463928762 3.0781261353 3.1098593945 
3.1415926536 
_radius 1 100 double
1.3357505938e-15 0.012948951294 0.025799587105 0.038460293585 0.050853449276 0.062919876092 0.074620557268 0.085935265523 0.096858210111 
0.10739134838 0.11753651065 0.12728778289 0.13662553291 0.1455130649 0.15389633927 0.16170671971 0.16886639414 0.17529590722 
0.18092305943 0.18569226143 0.18957333359 0.19256875793 0.19471852062 0.19610187234 0.19683552191 0.19706795376 0.19696979242 
0.19672055209 0.19649279058 0.19643551777 0.19665930515 0.19722543868 0.19814052464 0.19935664578 0.20077619747 0.20226030192 
0.20363998977 0.20472964437 0.20534221903 0.20530550024 0.20447836247 0.20276563683 0.20012998812 0.1965992066 0.1922676483 
0.18729112692 0.18187524062 0.17625786276 0.17068738016 0.16539922341 0.16059408024 0.15642143741 0.15297128293 0.15027488539 
0.14831315925 0.14702922208 0.14634124475 0.14615283106 0.14636027608 0.14685796277 0.14754385749 0.14832614945 0.14913010257 
0.14990268954 0.15061289976 0.15124757568 0.15180478779 0.15228762158 0.15270027657 0.15304643285 0.15332850494 0.15354642605 
0.15369549643 0.15376379511 0.15373020971 0.15356406612 0.15322666663 0.15267411661 0.15186016479 0.15073779447 0.14925899648 
0.1473731643 0.14502535353 0.1421558314 0.13870181507 0.13460132216 0.12979810863 0.12424618949 0.11791262827 0.11077803952 
0.10283524873 0.094087384408 0.084546992627 0.074237403607 0.063196643237 0.051483009423 0.039180483202 0.026401806325 0.013287481854 
5.8103969126e-16 
_area 1 100 double
0 0.0004108691083 0.0016268022952 0.0036016426713 0.0062701898103 0.0095620456514 0.01341457366 0.017780848675 0.022629979463 
0.027939591466 0.033682843159 0.039814243773 0.046258785368 0.052907231119 0.05961802275 0.066224781878 0.072548062944 0.078410006737 
0.083650187343 0.088140417063 0.091796241821 0.094583888212 0.096523403569 0.097690324435 0.098217199694 0.098292299321 0.098149384943 
0.098043459709 0.0982134371 0.098841348313 0.10002380773 0.10176757824 0.10400717997 0.10663107521 0.10950321058 0.11247340873 
0.11537607214 0.1180219736 0.12019296555 0.12164930894 0.12215266043 0.12150091975 0.11956699359 0.11633170596 0.11190213489 
0.10651001357 0.1004891512 0.094234761552 0.088150271414 0.082589141184 0.077801874837 0.073901247978 0.070858094441 0.068531510139 
0.066723183535 0.065236834302 0.063925711009 0.062719065629 0.061626337763 0.06071814692 0.06007168774 0.059680857342 0.059433904367 
0.059198840734 0.058888091655 0.058469562144 0.057949260561 0.057345722995 0.056674729218 0.055953268681 0.055210750753 0.054491200935 
0.053844808815 0.053315114194 0.052928701653 0.052693627842 0.052604447405 0.052642791467 0.052770088624 0.052921775482 0.053008500152 
0.052920131819 0.052531976085 0.051716399143 0.050359608544 0.048379474164 0.045739429053 0.042455082233 0.038592806141 0.034261983199 
0.02960395026 0.024780650821 0.01996488115 0.015332521559 0.011056041201 0.0072982588136 0.0042057405758 0.0019019053679 0.00048046123887 
2.2992256257e-17 
