# vtk DataFile Version 5.1
vtk output
ASCII
DATASET POLYDATA
POINTS 100 float
0.10921 0.0502061 0.67012 0.109452 0.0502232 0.670116 0.110259 0.0500941 0.669883 
0.111532 0.0498282 0.669403 0.113117 0.0494404 0.668641 0.114826 0.0489508 0.667548 
0.116454 0.0483842 0.666062 0.117802 0.047768 0.664106 0.118703 0.0471316 0.661592 
0.119029 0.0465043 0.658424 0.118713 0.045914 0.654504 0.11774 0.0453852 0.649742 
0.11615 0.0449375 0.64406 0.114026 0.0445841 0.637406 0.111473 0.0443306 0.629758 
0.108606 0.0441745 0.62113 0.105525 0.0441049 0.611579 0.102305 0.0441028 0.601197 
0.0989789 0.0441422 0.590111 0.0955388 0.0441918 0.578473 0.0919349 0.0442167 0.566449 
0.0880855 0.0441812 0.554201 0.0838907 0.0440512 0.54188 0.07925 0.0437966 0.529604 
0.07408 0.0433946 0.517455 0.0683304 0.0428306 0.505467 0.061996 0.042101 0.493624 
0.0551218 0.0412129 0.481865 0.0478025 0.0401853 0.470089 0.0401739 0.0390479 0.458169 
0.032399 0.0378399 0.44596 0.0246502 0.0366085 0.433322 0.0170889 0.0354058 0.420126 
0.0098472 0.0342868 0.406271 0.00301179 0.0333062 0.39169 -0.00338546 0.0325159 0.376355 
-0.00937063 0.0319623 0.360272 -0.0150231 0.0316845 0.343484 -0.0204637 0.0317125 0.326052 
-0.025838 0.0320663 0.308054 -0.0312947 0.0327554 0.289567 -0.0369645 0.0337792 0.270658 
-0.0429398 0.0351269 0.251377 -0.0492593 0.0367793 0.231753 -0.055898 0.0387095 0.21179 
-0.0627655 0.0408848 0.19147 -0.0697115 0.0432677 0.170762 -0.0765384 0.0458179 0.149627 
-0.0830191 0.0484933 0.128028 -0.0889189 0.0512516 0.10594 -0.0940172 0.0540507 0.0833562 
-0.0981278 0.0568503 0.0602916 -0.101116 0.0596116 0.036787 -0.102906 0.0622983 0.0129058 
-0.103491 0.0648765 -0.0112706 -0.102922 0.0673145 -0.0356489 -0.101304 0.0695831 -0.0601325 
-0.0987781 0.071655 -0.0846285 -0.0955065 0.0735046 -0.109054 -0.0916535 0.0751076 -0.133342 
-0.0873694 0.076441 -0.15744 -0.082777 0.0774825 -0.181313 -0.0779641 0.0782102 -0.204936 
-0.0729797 0.0786032 -0.228294 -0.0678372 0.0786412 -0.251371 -0.0625217 0.0783049 -0.274147 
-0.0570004 0.0775767 -0.296595 -0.0512357 0.0764413 -0.318679 -0.0451976 0.0748869 -0.340351 
-0.0388749 0.072906 -0.361558 -0.0322837 0.0704968 -0.382245 -0.0254714 0.0676642 -0.402361 
-0.0185166 0.0644214 -0.421864 -0.0115256 0.0607903 -0.440728 -0.00462427 0.0568023 -0.458945 
0.00205164 0.052499 -0.476525 0.00836745 0.0479313 -0.493491 0.0142005 0.0431592 -0.509878 
0.0194495 0.0382505 -0.525719 0.0240414 0.0332785 -0.541039 0.0279359 0.0283205 -0.555847 
0.0311257 0.0234544 -0.570124 0.0336349 0.0187562 -0.583823 0.0355139 0.014297 -0.596868 
0.0368336 0.0101397 -0.609156 0.0376778 0.00633692 -0.620565 0.038136 0.00292838 -0.630969 
0.0382967 -6.05444e-05 -0.64025 0.0382422 -0.0026197 -0.648313 0.0380443 -0.00475418 -0.655101 
0.0377627 -0.00648354 -0.660604 0.0374438 -0.00784017 -0.664864 0.0371215 -0.00886688 -0.667979 
0.036819 -0.00961392 -0.670093 0.0365503 -0.0101355 -0.671388 0.0363232 -0.0104861 -0.672066 
0.036141 -0.0107168 -0.672328 0.0360044 -0.0108715 -0.672358 0.0359132 -0.0109844 -0.672304 
0.0358675 -0.0110772 -0.672259 
LINES 2 100
OFFSETS vtktypeint64
0 100 
CONNECTIVITY vtktypeint64
0 1 2 3 4 5 6 7 8 
9 10 11 12 13 14 15 16 17 
18 19 20 21 22 23 24 25 26 
27 28 29 30 31 32 33 34 35 
36 37 38 39 40 41 42 43 44 
45 46 47 48 49 50 51 52 53 
54 55 56 57 58 59 60 61 62 
63 64 65 66 67 68 69 70 71 
72 73 74 75 76 77 78 79 80 
81 82 83 84 85 86 87 88 89 
90 91 92 93 94 95 96 97 98 
99 
POINT_DATA 100
FIELD FieldData 3
_theta 1 100 double
0 0.031733259127 0.063466518254 0.095199777382 0.12693303651 0.15866629564 0.19039955476 0.22213281389 0.25386607302 
0.28559933214 0.31733259127 0.3490658504 0.38079910953 0.41253236865 0.44426562778 0.47599888691 0.50773214603 0.53946540516 
0.57119866429 0.60293192342 0.63466518254 0.66639844167 0.6981317008 0.72986495992 0.76159821905 0.79333147818 0.82506473731 
0.85679799643 0.88853125556 0.92026451469 0.95199777382 0.98373103294 1.0154642921 1.0471975512 1.0789308103 1.1106640695 
1.1423973286 1.1741305877 1.2058638468 1.237597106 1.2693303651 1.3010636242 1.3327968833 1.3645301425 1.3962634016 
1.4279966607 1.4597299198 1.491463179 1.5231964381 1.5549296972 1.5866629564 1.6183962155 1.6501294746 1.6818627337 
1.7135959929 1.745329252 1.7770625111 1.8087957702 1.8405290294 1.8722622885 1.9039955476 1.9357288068 1.9674620659 
1.999195325 2.0309285841 2.0626618433 2.0943951024 2.1261283615 2.1578616206 2.1895948798 2.2213281389 2.253061398 
2.2847946572 2.3165279163 2.3482611754 2.3799944345 2.4117276937 2.4434609528 2.4751942119 2.506927471 2.5386607302 
2.5703939893 2.6021272484 2.6338605076 2.6655937667 2.6973270258 2.7290602849 2.7607935441 2.7925268032 2.8242600623 
2.8559933214 2.8877265806 2.9194598397 2.9511930988 2.982926358 3.0146596171 3.0463928762 3.0781261353 3.1098593945 
3.1415926536 
_radius 1 100 double
5.6371840561e-16 0.015768083882 0.031431254386 0.046877260911 0.061997551228 0.076689802797 0.090860698194 0.10442889995 0.1173280425 
0.12950941213 0.14094390743 0.15162292279 0.16155796503 0.17077902208 0.17933184828 0.18727436573 0.19467234306 0.20159450296 
0.20810731053 0.21426989125 0.22012970215 0.22571957969 0.23105653473 0.23614223379 0.24096468295 0.24550041495 0.24971655738 
0.25357247286 0.25702104873 0.2600099998 0.2624836243 0.26438531628 0.2656608628 0.26626225622 0.26615153523 0.26530410815 
0.26371113971 0.26138086625 0.25833904747 0.25462901989 0.25031185509 0.24546689294 0.24019248453 0.23460630708 0.22884429921 
0.22305724971 0.21740439938 0.21204403857 0.20712191176 0.20275915447 0.19904225495 0.19601772319 0.19369323981 0.19204490319 
0.19102756207 0.19058367262 0.19064693793 0.19114004963 0.19196950263 0.19302249411 0.19417000342 0.19527684101 0.19621593342 
0.19688247071 0.19720423285 0.19714634757 0.19671059526 0.19593052247 0.19486405075 0.19358518324 0.19217596942 0.19071918948 
0.18929147105 0.18795614296 0.18675544046 0.18570266293 0.18477589897 0.18391514684 0.18302383627 0.18197449589 0.18061741006 
0.17879088518 0.1763320037 0.17308714431 0.16892182635 0.16372946808 0.15743847178 0.15001685747 0.14147369141 0.13185690008 
0.12124764404 0.10975204594 0.097491518219 0.084593095496 0.071181032684 0.057370563928 0.043264259284 0.028950990529 0.014507202494 
9.9918618289e-16 
_area 1 100 double
0 0.00068415212838 0.0027129112355 0.0060175657193 0.010491066026 0.015997704757 0.022383911455 0.029488149403 0.037148404912 
0.045206782937 0.053511977669 0.061921437177 0.07030529103 0.078553124321 0.086582752443 0.094348308507 0.10184425185 0.10910277007 
0.11618417771 0.12316244092 0.13010967001 0.13708331585 0.14411789946 0.15122067869 0.15836929896 0.16550978959 0.1725546406 
0.17938215215 0.18583912944 0.19174884584 0.19692480244 0.20118859913 0.20438807167 0.2064106521 0.20718793203 0.20669175956 
0.20492745577 0.20192967092 0.19776091296 0.19251013529 0.18629131613 0.17924407347 0.17153683396 0.16336959945 0.15497134709 
0.1465886966 0.13846683488 0.13082788448 0.12385322936 0.11767368306 0.11236559589 0.10794539893 0.10436008557 0.10149536942 
0.099224229485 0.097460252325 0.096161353058 0.095286200954 0.094752026909 0.09443050107 0.094171896659 0.093832790703 0.093296700212 
0.092486473145 0.091369747159 0.089959030442 0.08830679811 0.086494058041 0.084610284748 0.082734570816 0.080944599078 0.079350239127 
0.078112290202 0.077417208828 0.077401494493 0.078077494419 0.079327347286 0.080941927128 0.082657529547 0.084184010067 0.085231287714 
0.085535113676 0.08487865955 0.083107112398 0.080135559026 0.075952665867 0.070622288874 0.064282904957 0.057142698328 0.04946784349 
0.041563122012 0.03374648438 0.026321312438 0.019551177801 0.013641619897 0.0087320967723 0.0048991972748 0.0021698462066 0.00054093442259 
1.5722623916e-17 
