# vtk DataFile Version 5.1
vtk output
ASCII
DATASET POLYDATA
POINTS 100 float
0.128199 0.0681037 0.749516 0.128177 0.0680988 0.74917 0.128169 0.0679372 0.747961 
0.128154 0.0676401 0.745918 0.128099 0.067241 0.743082 0.127963 0.0667822 0.739505 
0.1277 0.0663113 0.735239 0.127262 0.0658763 0.730331 0.126606 0.0655215 0.724814 
0.125694 0.0652828 0.718704 0.124497 0.0651843 0.712002 0.122993 0.0652354 0.704693 
0.12117 0.0654291 0.696749 0.119024 0.0657417 0.688143 0.116553 0.0661341 0.67885 
0.11376 0.0665542 0.668862 0.110645 0.0669404 0.658185 0.10721 0.067226 0.646853 
0.103452 0.0673447 0.63492 0.0993673 0.0672356 0.622461 0.094951 0.0668483 0.609565 
0.0902002 0.0661469 0.596327 0.0851162 0.0651138 0.582837 0.079707 0.0637516 0.569172 
0.0739897 0.0620833 0.555388 0.0679911 0.0601514 0.541516 0.0617484 0.0580156 0.52756 
0.0553065 0.0557486 0.513501 0.0487159 0.0534313 0.499301 0.0420281 0.0511474 0.484912 
0.0352908 0.0489778 0.470284 0.0285433 0.0469952 0.455377 0.0218125 0.0452597 0.440163 
0.0151098 0.0438149 0.42463 0.00843012 0.0426864 0.408786 0.00175345 0.0418809 0.39265 
-0.00495216 0.0413872 0.376244 -0.0117249 0.0411792 0.359587 -0.0186024 0.0412189 0.342681 
-0.0256135 0.0414614 0.325502 -0.0327709 0.0418595 0.307995 -0.040064 0.0423689 0.290073 
-0.0474539 0.0429521 0.271615 -0.0548709 0.0435823 0.252481 -0.062215 0.0442449 0.232523 
-0.0693594 0.0449391 0.2116 -0.0761575 0.0456767 0.1896 -0.0824515 0.0464801 0.166455 
-0.0880835 0.0473794 0.142155 -0.0929068 0.0484081 0.116758 -0.0967969 0.0495987 0.0903908 
-0.0996612 0.0509782 0.0632448 -0.101446 0.0525643 0.0355614 -0.10214 0.0543616 0.0076138 
-0.101776 0.05636 -0.0203158 -0.100426 0.0585336 -0.0479608 -0.0981968 0.0608407 -0.0750931 
-0.0952206 0.0632261 -0.101542 -0.0916437 0.0656235 -0.127205 -0.0876159 0.0679591 -0.152057 
-0.0832797 0.0701559 -0.176139 -0.0787605 0.0721376 -0.199554 -0.0741598 0.0738333 -0.222443 
-0.0695503 0.07518 -0.244965 -0.0649747 0.0761264 -0.267276 -0.0604468 0.0766342 -0.289501 
-0.0559564 0.0766792 -0.311726 -0.0514747 0.0762509 -0.333978 -0.0469625 0.0753526 -0.356227 
-0.0423782 0.0739988 -0.378391 -0.0376855 0.0722144 -0.400344 -0.0328598 0.0700317 -0.421937 
-0.0278941 0.0674891 -0.443013 -0.0228011 0.0646293 -0.463428 -0.0176144 0.0614971 -0.483071 
-0.0123874 0.058139 -0.501868 -0.00718947 0.0546025 -0.519795 -0.00210185 0.050935 -0.536867 
0.00278834 0.0471844 -0.55314 0.00739398 0.0433982 -0.568687 0.0116338 0.039624 -0.583587 
0.0154377 0.0359087 -0.597908 0.0187508 0.032298 -0.611689 0.0215365 0.0288354 -0.62493 
0.023778 0.0255613 -0.63759 0.0254783 0.0225114 -0.649588 0.0266597 0.0197153 -0.660811 
0.0273612 0.0171956 -0.67113 0.0276359 0.0149662 -0.680418 0.0275475 0.0130321 -0.688567 
0.027167 0.011389 -0.695507 0.026569 0.0100239 -0.701218 0.0258283 0.00891589 -0.705736 
0.0250171 0.0080382 -0.70915 0.0242023 0.00735997 -0.711598 0.0234433 0.00684886 -0.713248 
0.0227908 0.00647367 -0.714279 0.0222852 0.00620688 -0.714862 0.021956 0.00602691 -0.715136 
0.0218213 0.00591991 -0.715193 
LINES 2 100
OFFSETS vtktypeint64
0 100 
CONNECTIVITY vtktypeint64
0 1 2 3 4 5 6 7 8 
9 10 11 12 13 14 15 16 17 
18 19 20 21 22 23 24 25 26 
27 28 29 30 31 32 33 34 35 
36 37 38 39 40 41 42 43 44 
45 46 47 48 49 50 51 52 53 
54 55 56 57 58 59 60 61 62 
63 64 65 66 67 68 69 70 71 
72 73 74 75 76 77 78 79 80 
81 82 83 84 85 86 87 88 89 
90 91 92 93 94 95 96 97 98 
99 
POINT_DATA 100
FIELD FieldData 3
_theta 1 100 double
0 0.031733259127 0.063466518254 0.095199777382 0.12693303651 0.15866629564 0.19039955476 0.22213281389 0.25386607302 
0.28559933214 0.31733259127 0.3490658504 0.38079910953 0.41253236865 0.44426562778 0.47599888691 0.50773214603 0.53946540516 
0.57119866429 0.60293192342 0.63466518254 0.66639844167 0.6981317008 0.72986495992 0.76159821905 0.79333147818 0.82506473731 
0.85679799643 0.88853125556 0.92026451469 0.95199777382 0.98373103294 1.0154642921 1.0471975512 1.0789308103 1.1106640695 
1.1423973286 1.1741305877 1.2058638468 1.237597106 1.2693303651 1.3010636242 1.3327968833 1.3645301425 1.3962634016 
1.4279966607 1.4597299198 1.491463179 1.5231964381 1.5549296972 1.5866629564 1.6183962155 1.6501294746 1.6818627337 
1.7135959929 1.745329252 1.7770625111 1.8087957702 1.8405290294 1.8722622885 1.9039955476 1.9357288068 1.9674620659 
1.999195325 2.0309285841 2.0626618433 2.0943951024 2.1261283615 2.1578616206 2.1895948798 2.2213281389 2.253061398 
2.2847946572 2.3165279163 2.3482611754 2.3799944345 2.4117276937 2.4434609528 2.4751942119 2.506927471 2.5386607302 
2.5703939893 2.6021272484 2.6338605076 2.6655937667 2.6973270258 2.7290602849 2.7607935441 2.7925268032 2.8242600623 
2.8559933214 2.8877265806 2.9194598397 2.9511930988 2.982926358 3.0146596171 3.0463928762 3.0781261353 3.1098593945 
3.1415926536 
_radius 1 100 double
4.1471139849e-16 0.01442660105 0.028654793111 0.042502895948 0.055827090459 0.068532794507 0.080578251809 0.091970103277 0.10275231506 
0.11299116903 0.12275962584 0.13212398493 0.14113455582 0.14982060133 0.15818876256 0.16622385816 0.17389126063 0.18114061699 
0.18791111371 0.19413854328 0.19976406152 0.20474386541 0.20905834143 0.21271884645 0.21577040083 0.21828921269 0.22037493347 
0.22213858832 0.22368796468 0.22511270606 0.22647137881 0.22778239094 0.2290199612 0.23011554457 0.23096440802 0.23143654135 
0.23139079368 0.23069096115 0.22922241218 0.22690768472 0.22371938681 0.21968879233 0.21490883212 0.20953074343 0.20375440095 
0.19781322215 0.1919553953 0.18642384413 0.18143759224 0.17717684348 0.17377316501 0.17130493378 0.16979711393 0.16922379555 
0.16951185413 0.1705446361 0.17216583052 0.17418538128 0.17639023604 0.17856143048 0.18049572491 0.18202723224 0.18304422299 
0.18349805422 0.1834032396 0.18282919113 0.18188537178 0.18070294242 0.17941696228 0.17815235939 0.17701418552 0.17608063366 
0.17539758397 0.1749747632 0.17478425045 0.17476180415 0.17481091879 0.17480914923 0.17461614274 0.1740827797 0.17306067024 
0.17141105525 0.16901213735 0.16576415033 0.16159198853 0.15644573663 0.15029976138 0.14315106843 0.13501744504 0.12593562698 
0.11595946846 0.10515793148 0.093612671253 0.08141507145 0.068662755429 0.055455829178 0.041893336418 0.028070541045 0.014077609646 
8.5174917485e-16 
_area 1 100 double
0 0.00050694032609 0.0020025249115 0.0044170653029 0.0076521915696 0.011600521397 0.016162263769 0.021253471868 0.026804486727 
0.032751584422 0.039027667603 0.04555726718 0.052257815077 0.0590455892 0.065842733226 0.072581642608 0.079204394683 0.085657225387 
0.091882587701 0.097813137538 0.1033721847 0.1084833153 0.11308847244 0.1171699261 0.12076861404 0.12399038151 0.12699359812 
0.12995733741 0.13303808366 0.13632989988 0.13984149214 0.14349405046 0.14713504578 0.15056375213 0.15358933667 0.15601652751 
0.15746932341 0.15764807908 0.15636684884 0.15354238533 0.14921648289 0.14356170266 0.13687399719 0.12953029594 0.12192830541 
0.11443944949 0.1073765451 0.10097369655 0.095378389527 0.090655973109 0.086805350655 0.083782707185 0.081551026633 0.080190418663 
0.079448890792 0.079169712931 0.079307810183 0.079870730388 0.080852946256 0.082137637079 0.08345604542 0.08448373951 0.084970532317 
0.084796564919 0.0839708393 0.082603723924 0.080860164083 0.078903188486 0.076862452002 0.074846048137 0.072961534367 0.071318934897 
0.070020876604 0.069152100145 0.068774629885 0.068930481437 0.069661417633 0.070956020035 0.072505882447 0.07389948439 0.07483115271 
0.075062888043 0.074416997488 0.07278176995 0.070112775627 0.066428163431 0.061801045098 0.056352295664 0.050245050695 0.043679701888 
0.03688680434 0.030115656332 0.023618069667 0.017629080467 0.012348081606 0.00792452885 0.0044519310454 0.0019724172253 0.00049165231644 
1.0641260813e-17 
