# vtk DataFile Version 5.1
vtk output
ASCII
DATASET POLYDATA
POINTS 100 float
0.124366 0.0539981 0.713474 0.12448 0.0540966 0.713176 0.124833 0.0542559 0.712132 
0.125358 0.0544849 0.710358 0.125954 0.054796 0.707879 0.126497 0.0552029 0.704727 
0.12685 0.055716 0.70094 0.126885 0.0563401 0.696555 0.126491 0.0570708 0.691607 
0.12559 0.0578932 0.686124 0.124138 0.0587813 0.680126 0.122132 0.0596993 0.673626 
0.119607 0.0606042 0.666626 0.116629 0.061449 0.659121 0.11328 0.0621868 0.651103 
0.109655 0.0627751 0.642561 0.105839 0.063179 0.633484 0.101905 0.0633734 0.623869 
0.0979004 0.0633444 0.61372 0.093844 0.0630883 0.603051 0.0897259 0.0626105 0.591886 
0.0855115 0.0619224 0.580261 0.081148 0.0610385 0.568218 0.0765745 0.0599735 0.555805 
0.0717316 0.0587402 0.54307 0.0665714 0.0573486 0.530058 0.0610647 0.0558066 0.516802 
0.0552053 0.0541215 0.503326 0.0490112 0.0523039 0.489634 0.0425218 0.0503712 0.475712 
0.0357915 0.0483517 0.461526 0.0288827 0.0462876 0.447026 0.0218564 0.044237 0.432145 
0.0147642 0.0422737 0.416803 0.00764215 0.0404842 0.40092 0.00050732 0.0389634 0.384411 
-0.00664187 0.0378065 0.367202 -0.0138219 0.0371017 0.34923 -0.0210568 0.0369205 0.33045 
-0.0283694 0.0373096 0.310841 -0.0357703 0.0382844 0.290402 -0.0432483 0.0398243 0.269159 
-0.0507628 0.0418724 0.247162 -0.0582386 0.0443383 0.224478 -0.0655658 0.0471039 0.201191 
-0.072603 0.0500332 0.177399 -0.0791854 0.0529838 0.153203 -0.0851366 0.055819 0.128706 
-0.0902816 0.0584202 0.104006 -0.0944616 0.060697 0.0791948 -0.0975472 0.0625949 0.0543515 
-0.0994494 0.0640992 0.0295439 -0.100127 0.0652344 0.00482634 -0.0995915 0.0660599 -0.0197593 
-0.0979007 0.0666622 -0.0441825 -0.0951574 0.0671442 -0.0684218 -0.0914969 0.0676126 -0.0924626 
-0.0870754 0.0681663 -0.116295 -0.082056 0.0688846 -0.139911 -0.0765963 0.0698186 -0.163304 
-0.0708367 0.0709859 -0.186465 -0.0648926 0.0723681 -0.209385 -0.0588493 0.0739131 -0.232051 
-0.0527615 0.0755399 -0.254448 -0.0466559 0.0771465 -0.27656 -0.0405374 0.0786192 -0.298368 
-0.0343964 0.0798424 -0.319852 -0.0282181 0.0807081 -0.340989 -0.0219901 0.0811238 -0.361759 
-0.0157101 0.0810179 -0.382134 -0.00939051 0.0803439 -0.40209 -0.0030607 0.0790807 -0.421599 
0.00323314 0.0772314 -0.440629 0.00943081 0.0748209 -0.459148 0.0154627 0.0718921 -0.477121 
0.0212556 0.0685014 -0.494513 0.0267386 0.0647154 -0.511285 0.0318487 0.0606078 -0.5274 
0.0365353 0.056257 -0.542823 0.0407635 0.0517452 -0.557522 0.0445145 0.0471573 -0.571468 
0.0477861 0.0425808 -0.584637 0.0505903 0.0381048 -0.597013 0.0529504 0.0338189 -0.608586 
0.0548985 0.0298105 -0.619354 0.0564716 0.0261618 -0.62932 0.057709 0.0229448 -0.638493 
0.0586501 0.0202173 -0.646888 0.0593334 0.0180174 -0.654521 0.0597955 0.0163592 -0.661414 
0.0600715 0.0152301 -0.667584 0.060195 0.0145902 -0.673052 0.0601987 0.014373 -0.677835 
0.0601147 0.0144899 -0.681948 0.059974 0.0148367 -0.685404 0.0598059 0.0153012 -0.688213 
0.0596373 0.0157735 -0.690382 0.0594912 0.016155 -0.691919 0.0593853 0.0163679 -0.692826 
0.0593308 0.0163623 -0.693109 
LINES 2 100
OFFSETS vtktypeint64
0 100 
CONNECTIVITY vtktypeint64
0 1 2 3 4 5 6 7 8 
9 10 11 12 13 14 15 16 17 
18 19 20 21 22 23 24 25 26 
27 28 29 30 31 32 33 34 35 
36 37 38 39 40 41 42 43 44 
45 46 47 48 49 50 51 52 53 
54 55 56 57 58 59 60 61 62 
63 64 65 66 67 68 69 70 71 
72 73 74 75 76 77 78 79 80 
81 82 83 84 85 86 87 88 89 
90 91 92 93 94 95 96 97 98 
99 
POINT_DATA 100
FIELD FieldData 3
_theta 1 100 double
0 0.031733259127 0.063466518254 0.095199777382 0.12693303651 0.15866629564 0.19039955476 0.22213281389 0.25386607302 
0.28559933214 0.31733259127 0.3490658504 0.38079910953 0.41253236865 0.44426562778 0.47599888691 0.50773214603 0.53946540516 
0.57119866429 0.60293192342 0.63466518254 0.66639844167 0.6981317008 0.72986495992 0.76159821905 0.79333147818 0.82506473731 
0.85679799643 0.88853125556 0.92026451469 0.95199777382 0.98373103294 1.0154642921 1.0471975512 1.0789308103 1.1106640695 
1.1423973286 1.1741305877 1.2058638468 1.237597106 1.2693303651 1.3010636242 1.3327968833 1.3645301425 1.3962634016 
1.4279966607 1.4597299198 1.491463179 1.5231964381 1.5549296972 1.5866629564 1.6183962155 1.6501294746 1.6818627337 
1.7135959929 1.745329252 1.7770625111 1.8087957702 1.8405290294 1.8722622885 1.9039955476 1.9357288068 1.9674620659 
1.999195325 2.0309285841 2.0626618433 2.0943951024 2.1261283615 2.1578616206 2.1895948798 2.2213281389 2.253061398 
2.2847946572 2.3165279163 2.3482611754 2.3799944345 2.4117276937 2.4434609528 2.4751942119 2.506927471 2.5386607302 
2.5703939893 2.6021272484 2.6338605076 2.6655937667 2.6973270258 2.7290602849 2.7607935441 2.7925268032 2.8242600623 
2.8559933214 2.8877265806 2.9194598397 2.9511930988 2.982926358 3.0146596171 3.0463928762 3.0781261353 3.1098593945 
3.1415926536 
_radius 1 100 double
1.8024569962e-15 0.014579444074 0.029044201372 0.043287940575 0.057222242856 0.070781971754 0.083927125067 0.096641097771 0.10892588092 
0.12079518439 0.13226674328 0.14335510925 0.15406601954 0.16439301266 0.17431643576 0.18380452844 0.19281600304 0.20130350425 
0.20921745163 0.21650993142 0.22313841313 0.22906908738 0.23427958444 0.23876079574 0.24251753928 0.24556790565 0.24794128596 
0.24967528343 0.25081190539 0.25139357836 0.25145958675 0.25104348012 0.25017182757 0.24886446221 0.24713611811 0.24499917752 
0.2424671372 0.23955835795 0.23629965646 0.23272932187 0.22889919154 0.22487549409 0.22073824772 0.21657907376 0.21249736531 
0.20859488666 0.20496913892 0.20170623528 0.19887449653 0.19652024952 0.19466704688 0.19331854109 0.19246377814 0.19208243203 
0.19214733507 0.19262303395 0.19346155147 0.19459857543 0.19595333309 0.1974333032 0.19894236208 0.20038978391 0.2016979623 
0.20280774825 0.20368101994 0.2043004707 0.20466695583 0.20479514579 0.20470848166 0.20443435389 0.20400006714 0.20342968784 
0.202741493 0.20194559505 0.20104145691 0.20001532976 0.19883793177 0.19746279919 0.1958257347 0.19384576686 0.19142797606 
0.18846828628 0.18485985094 0.18050020221 0.17529816153 0.16917971364 0.16209247366 0.15400876966 0.14492752211 0.13487498675 
0.1239041621 0.11209246473 0.09953733682 0.086349824614 0.072646728455 0.058542451588 0.044141962958 0.029536237418 0.014801136089 
1.1960001813e-15 
_area 1 100 double
0 0.00057516733347 0.0022761446359 0.0050336785142 0.0087457268843 0.013294194168 0.018562475608 0.024449550518 0.030877139299 
0.037788339088 0.045138881483 0.052884735335 0.060970933588 0.069325678965 0.077861568156 0.086483228282 0.095098537915 0.10362928879 
0.11201696527 0.12022064657 0.12820686987 0.13593474046 0.14334207568 0.15033866403 0.15681047042 0.16263441914 0.16769888564 
0.17192253403 0.17526510052 0.1777275022 0.17934297942 0.18016362274 0.18024673838 0.17964382569 0.17839315534 0.17651642271 
0.17402048449 0.17090503869 0.16717525871 0.16285601346 0.15800325587 0.15270899175 0.14709822922 0.14131850909 0.13552442615 
0.1298606902 0.12444772266 0.11937357307 0.11469456751 0.11044396216 0.10664445352 0.10331964086 0.10050035475 0.098215614041 
0.096450109554 0.095172401196 0.09438925345 0.094363035252 0.094888524139 0.095771762358 0.096787859605 0.097726332141 0.098407501386 
0.098708508661 0.098581198177 0.098051051409 0.097197930734 0.096126588139 0.094940161459 0.093729747881 0.092581124036 0.091585392322 
0.090840581334 0.090441844103 0.090463024345 0.090919545659 0.091707957593 0.092613473523 0.09339310592 0.093815942329 0.093665950017 
0.092742751021 0.090871606755 0.087923526913 0.083839236564 0.078647162231 0.07246755008 0.065499958365 0.057996824208 0.050229876747 
0.042457977286 0.034904347645 0.027748403354 0.021132976102 0.015182328422 0.010021726808 0.0057881087269 0.002625303163 0.00066479849713 
4.6388342213e-17 
