# vtk DataFile Version 5.1
vtk output
ASCII
DATASET POLYDATA
POINTS 100 float
0.15837 0.0576503 0.694648 0.158554 0.0576455 0.694692 0.159176 0.0574862 0.694646 
0.160153 0.0572126 0.694463 0.161355 0.0568853 0.694065 0.162622 0.0565774 0.693354 
0.163773 0.0563643 0.692214 0.164631 0.0563131 0.690526 0.165032 0.0564726 0.688171 
0.164845 0.0568657 0.685041 0.163978 0.057484 0.681049 0.16238 0.0582865 0.676134 
0.160046 0.059202 0.670268 0.157004 0.060135 0.663453 0.15331 0.060974 0.655729 
0.149036 0.0616027 0.647161 0.144254 0.0619106 0.637842 0.139032 0.0618043 0.627878 
0.133422 0.0612165 0.617386 0.127455 0.0601122 0.606477 0.121147 0.0584925 0.595252 
0.114496 0.0563939 0.583791 0.107495 0.0538853 0.572149 0.100135 0.0510616 0.56035 
0.0924187 0.0480353 0.548389 0.0843631 0.0449278 0.536232 0.076006 0.0418599 0.523822 
0.0674062 0.0389433 0.511089 0.0586398 0.0362743 0.497952 0.0497939 0.0339291 0.484332 
0.0409572 0.0319618 0.470162 0.0322098 0.0304046 0.455387 0.0236131 0.0292697 0.439972 
0.015202 0.0285531 0.423904 0.00698094 0.0282385 0.407189 -0.00107614 0.028302 0.389848 
-0.00902096 0.0287155 0.371913 -0.0169216 0.0294505 0.353418 -0.0248497 0.0304793 0.334393 
-0.0328662 0.0317763 0.31486 -0.041007 0.0333175 0.294827 -0.0492697 0.0350798 0.274285 
-0.057606 0.0370398 0.253214 -0.0659169 0.0391724 0.231582 -0.0740559 0.0414501 0.209353 
-0.0818364 0.043843 0.186495 -0.0890452 0.0463188 0.162988 -0.0954599 0.048844 0.138832 
-0.100867 0.0513853 0.114049 -0.105082 0.0539111 0.0886935 -0.107965 0.0563933 0.062846 
-0.109432 0.0588079 0.0366139 -0.109465 0.0611355 0.0101241 -0.108106 0.0633615 -0.0164854 
-0.10546 0.0654742 -0.0430752 -0.101676 0.0674639 -0.0695153 -0.0969356 0.0693207 -0.0956945 
-0.0914368 0.0710327 -0.121528 -0.085373 0.0725841 -0.146962 -0.0789199 0.0739548 -0.171976 
-0.0722224 0.0751192 -0.196579 -0.0653875 0.0760479 -0.220806 -0.0584814 0.0767083 -0.244706 
-0.0515328 0.0770669 -0.268338 -0.0445397 0.0770919 -0.291755 -0.0374795 0.0767558 -0.315002 
-0.0303208 0.0760369 -0.338098 -0.023035 0.0749216 -0.361041 -0.0156069 0.0734049 -0.383801 
-0.00804126 0.0714904 -0.406324 -0.000367645 0.0691896 -0.428533 0.00736004 0.06652 -0.45034 
0.0150665 0.0635042 -0.471646 0.0226609 0.0601671 -0.492357 0.0300449 0.0565353 -0.512385 
0.0371201 0.0526358 -0.531659 0.0437965 0.0484959 -0.55012 0.0499975 0.0441437 -0.56773 
0.0556646 0.0396096 -0.584464 0.0607586 0.0349277 -0.60031 0.0652586 0.0301377 -0.615262 
0.0691597 0.0252858 -0.629316 0.0724694 0.0204257 -0.642464 0.0752036 0.0156179 -0.654694 
0.0773837 0.0109283 -0.665986 0.0790335 0.00642551 -0.676316 0.0801794 0.00217718 -0.685659 
0.0808502 -0.00175442 -0.693992 0.0810797 -0.00531669 -0.701305 0.0809084 -0.00847072 -0.707599 
0.0803867 -0.0111944 -0.712898 0.0795762 -0.0134839 -0.71725 0.0785503 -0.015354 -0.720724 
0.0773929 -0.0168358 -0.723411 0.0761949 -0.0179734 -0.725417 0.0750498 -0.0188189 -0.726855 
0.0740469 -0.0194265 -0.727837 0.073265 -0.0198462 -0.728462 0.0727661 -0.0201186 -0.728807 
0.0725897 -0.0202697 -0.728922 
LINES 2 100
OFFSETS vtktypeint64
0 100 
CONNECTIVITY vtktypeint64
0 1 2 3 4 5 6 7 8 
9 10 11 12 13 14 15 16 17 
18 19 20 21 22 23 24 25 26 
27 28 29 30 31 32 33 34 35 
36 37 38 39 40 41 42 43 44 
45 46 47 48 49 50 51 52 53 
54 55 56 57 58 59 60 61 62 
63 64 65 66 67 68 69 70 71 
72 73 74 75 76 77 78 79 80 
81 82 83 84 85 86 87 88 89 
90 91 92 93 94 95 96 97 98 
99 
POINT_DATA 100
FIELD FieldData 3
_theta 1 100 double
0 0.031733259127 0.063466518254 0.095199777382 0.12693303651 0.15866629564 0.19039955476 0.22213281389 0.25386607302 
0.28559933214 0.31733259127 0.3490658504 0.38079910953 0.41253236865 0.44426562778 0.47599888691 0.50773214603 0.53946540516 
0.57119866429 0.60293192342 0.63466518254 0.66639844167 0.6981317008 0.72986495992 0.76159821905 0.79333147818 0.82506473731 
0.85679799643 0.88853125556 0.92026451469 0.95199777382 0.98373103294 1.0154642921 1.0471975512 1.0789308103 1.1106640695 
1.1423973286 1.1741305877 1.2058638468 1.237597106 1.2693303651 1.3010636242 1.3327968833 1.3645301425 1.3962634016 
1.4279966607 1.4597299198 1.491463179 1.5231964381 1.5549296972 1.5866629564 1.6183962155 1.6501294746 1.6818627337 
1.7135959929 1.745329252 1.7770625111 1.8087957702 1.8405290294 1.8722622885 1.9039955476 1.9357288068 1.9674620659 
1.999195325 2.0309285841 2.0626618433 2.0943951024 2.1261283615 2.1578616206 2.1895948798 2.2213281389 2.253061398 
2.2847946572 2.3165279163 2.3482611754 2.3799944345 2.4117276937 2.4434609528 2.4751942119 2.506927471 2.5386607302 
2.5703939893 2.6021272484 2.6338605076 2.6655937667 2.6973270258 2.7290602849 2.7607935441 2.7925268032 2.8242600623 
2.8559933214 2.8877265806 2.9194598397 2.9511930988 2.982926358 3.0146596171 3.0463928762 3.0781261353 3.1098593945 
3.1415926536 
_radius 1 100 double
6.8946911354e-16 0.015841444674 0.031576871334 0.047103778525 0.062335307704 0.077202796548 0.091653798527 0.1056467383 0.11914444061 
0.13210894777 0.14449926121 0.1562722945 0.16738604244 0.1778032881 0.1874942851 0.19643758827 0.20461914827 0.21203050099 
0.21866712143 0.22452779063 0.22961535104 0.23393873304 0.23751575684 0.24037597525 0.24256272185 0.24413359244 0.24515885446 
0.24571771397 0.24589282958 0.24576377315 0.24540022729 0.24485566726 0.24416224833 0.24332764781 0.24233457808 0.2411434343 
0.23969804377 0.23793390817 0.23578791485 0.23320838281 0.23016446467 0.22665417556 0.22271048685 0.21840492595 0.21384801593 
0.20918580852 0.20459188216 0.20025464098 0.19636066691 0.19307620653 0.19053021393 0.18880275435 0.18792095484 0.18786137006 
0.18855496905 0.18989134075 0.19172186772 0.19386473083 0.19611508655 0.19826140814 0.20010586076 0.20148484794 0.20228599658 
0.20245897075 0.20201874561 0.20104103747 0.19965053642 0.19800350982 0.19626720325 0.19459906682 0.19312887359 0.19194604959 
0.1910931201 0.19056464421 0.19031004204 0.19023868128 0.19022628007 0.19012249103 0.18975988218 0.18896428067 0.18756590265 
0.18541027213 0.18236782775 0.17834126762 0.17326993623 0.16713083348 0.15993613705 0.15172753279 0.14256814979 0.13253340561 
0.12170239544 0.1101514169 0.097950732134 0.085164845607 0.071855679848 0.05808734328 0.043930891448 0.029467632274 0.014790035159 
2.7444406527e-16 
_area 1 100 double
0 0.00062050824942 0.0024760676171 0.0055475108569 0.0097989511226 0.015172986978 0.02158626025 0.028927206114 0.037057293213 
0.045815961576 0.055028376437 0.064514512435 0.074098117835 0.083614594685 0.092917392608 0.10188278517 0.11041275014 0.11843538646 
0.12590237994 0.13278371863 0.13906097996 0.14472173359 0.14975816018 0.15417134069 0.15797829136 0.16121504308 0.16393163676 
0.16618309196 0.16802286255 0.1694979247 0.17064065356 0.1714581861 0.1719254566 0.17198692235 0.17156675742 0.17058293008 
0.16895992307 0.16663792078 0.16358001238 0.15977921005 0.15526436438 0.15010306429 0.14440157326 0.13830417142 0.13199488229 
0.12570131358 0.11968898092 0.11421810444 0.10946165979 0.1054747114 0.10225490238 0.099795661786 0.098087081095 0.097093734792 
0.096738892731 0.096903195708 0.097430533069 0.098139931884 0.098849768052 0.09940777024 0.099685485081 0.099506669353 0.098652199577 
0.096997296297 0.094579939489 0.091583819837 0.08829439417 0.085035531696 0.082082254706 0.079593407601 0.077635476258 0.076248389126 
0.075480569364 0.075401698402 0.076094172421 0.077549493651 0.079551012394 0.081798164517 0.083992976324 0.085836477066 0.087035808348 
0.087325655945 0.086493952097 0.084405216072 0.081016424326 0.076381427575 0.070642285572 0.064009394117 0.056735548 0.049090503263 
0.041341355167 0.033740670672 0.026520570858 0.019888948299 0.014024833494 0.0090728393872 0.005139374096 0.002293717657 0.00057465511498 
2.4936649967e-17 
