# vtk DataFile Version 5.1
vtk output
ASCII
DATASET POLYDATA
POINTS 100 float
0.0943174 0.0595194 0.717037 0.0942179 0.059576 0.716922 0.0939892 0.0595603 0.716407 
0.0936425 0.0594875 0.71546 0.0931943 0.0593815 0.714036 0.0926644 0.0592702 0.712072 
0.0920729 0.0591812 0.709505 0.0914374 0.059137 0.706268 0.0907703 0.0591506 0.702304 
0.090076 0.0592225 0.697564 0.0893496 0.0593393 0.692021 0.088576 0.0594744 0.685662 
0.0877299 0.0595901 0.678497 0.0867769 0.0596417 0.670556 0.0856754 0.0595822 0.661884 
0.0843788 0.0593678 0.65254 0.0828389 0.058963 0.642592 0.0810083 0.0583442 0.632107 
0.0788439 0.0575028 0.621154 0.0763097 0.056445 0.60979 0.0733786 0.0551916 0.598065 
0.0700346 0.0537742 0.586013 0.0662741 0.0522318 0.573656 0.0621059 0.0506054 0.561001 
0.0575518 0.0489344 0.548045 0.0526447 0.0472518 0.534774 0.0474279 0.0455821 0.521172 
0.0419525 0.0439409 0.507218 0.0362744 0.0423353 0.492893 0.0304513 0.0407668 0.478183 
0.0245384 0.0392354 0.463078 0.0185853 0.037744 0.447575 0.0126317 0.0363023 0.431676 
0.00670434 0.0349313 0.415389 0.000815196 0.0336644 0.398722 -0.00503996 0.0325479 0.381686 
-0.0108807 0.0316391 0.364287 -0.0167394 0.0310021 0.346527 -0.0226573 0.0307021 0.328402 
-0.0286778 0.0307987 0.3099 -0.03484 0.0313391 0.291 -0.0411697 0.032352 0.271678 
-0.0476724 0.0338432 0.251901 -0.0543251 0.0357923 0.231637 -0.061072 0.0381537 0.210853 
-0.0678213 0.0408586 0.189522 -0.0744463 0.0438206 0.167623 -0.0807894 0.0469423 0.145148 
-0.0866704 0.0501236 0.1221 -0.0918974 0.0532702 0.0984988 -0.0962808 0.0563004 0.0743782 
-0.0996474 0.0591515 0.0497882 -0.101855 0.0617832 0.0247928 -0.102807 0.064178 -0.000532142 
-0.102458 0.0663395 -0.0261017 -0.100823 0.0682878 -0.0518251 -0.0979766 0.070053 -0.0776094 
-0.0940465 0.0716675 -0.103363 -0.089204 0.0731585 -0.129 -0.0836491 0.0745412 -0.15444 
-0.0775929 0.075813 -0.179614 -0.0712388 0.0769511 -0.204464 -0.0647643 0.0779119 -0.228942 
-0.058306 0.0786338 -0.253015 -0.0519488 0.0790419 -0.276657 -0.04572 0.0790551 -0.299852 
-0.0395913 0.0785938 -0.322589 -0.0334852 0.0775885 -0.344863 -0.0272885 0.0759873 -0.366669 
-0.0208688 0.0737618 -0.388 -0.0140937 0.0709111 -0.408846 -0.00685012 0.0674634 -0.429193 
0.000938648 0.0634746 -0.449019 0.00929976 0.0590245 -0.468298 0.0182033 0.0542118 -0.486997 
0.0275613 0.0491463 -0.505079 0.037233 0.0439417 -0.522503 0.0470362 0.0387079 -0.539231 
0.0567634 0.0335445 -0.555223 0.0662004 0.0285353 -0.570444 0.075146 0.0237451 -0.584868 
0.0834294 0.019218 -0.598471 0.0909246 0.014978 -0.611243 0.0975594 0.0110313 -0.62318 
0.103319 0.00736956 -0.634286 0.108241 0.00397428 -0.644572 0.112409 0.000821622 -0.654057 
0.115939 -0.00211321 -0.662762 0.118961 -0.00485209 -0.670709 0.121604 -0.00741094 -0.677921 
0.123982 -0.0097979 -0.684417 0.126181 -0.0120126 -0.690214 0.128249 -0.0140465 -0.695324 
0.130198 -0.015884 -0.699756 0.132005 -0.0175051 -0.703511 0.13362 -0.0188867 -0.706589 
0.134976 -0.0200062 -0.708988 0.136003 -0.0208432 -0.710703 0.13664 -0.0213821 -0.711731 
0.136847 -0.0216131 -0.712068 
LINES 2 100
OFFSETS vtktypeint64
0 100 
CONNECTIVITY vtktypeint64
0 1 2 3 4 5 6 7 8 
9 10 11 12 13 14 15 16 17 
18 19 20 21 22 23 24 25 26 
27 28 29 30 31 32 33 34 35 
36 37 38 39 40 41 42 43 44 
45 46 47 48 49 50 51 52 53 
54 55 56 57 58 59 60 61 62 
63 64 65 66 67 68 69 70 71 
72 73 74 75 76 77 78 79 80 
81 82 83 84 85 86 87 88 89 
90 91 92 93 94 95 96 97 98 
99 
POINT_DATA 100
FIELD FieldData 3
_theta 1 100 double
0 0.031733259127 0.063466518254 0.095199777382 0.12693303651 0.15866629564 0.19039955476 0.22213281389 0.25386607302 
0.28559933214 0.31733259127 0.3490658504 0.38079910953 0.41253236865 0.44426562778 0.47599888691 0.50773214603 0.53946540516 
0.57119866429 0.60293192342 0.63466518254 0.66639844167 0.6981317008 0.72986495992 0.76159821905 0.79333147818 0.82506473731 
0.85679799643 0.88853125556 0.92026451469 0.95199777382 0.98373103294 1.0154642921 1.0471975512 1.0789308103 1.1106640695 
1.1423973286 1.1741305877 1.2058638468 1.237597106 1.2693303651 1.3010636242 1.3327968833 1.3645301425 1.3962634016 
1.4279966607 1.4597299198 1.491463179 1.5231964381 1.5549296972 1.5866629564 1.6183962155 1.6501294746 1.6818627337 
1.7135959929 1.745329252 1.7770625111 1.8087957702 1.8405290294 1.8722622885 1.9039955476 1.9357288068 1.9674620659 
1.999195325 2.0309285841 2.0626618433 2.0943951024 2.1261283615 2.1578616206 2.1895948798 2.2213281389 2.253061398 
2.2847946572 2.3165279163 2.3482611754 2.3799944345 2.4117276937 2.4434609528 2.4751942119 2.506927471 2.5386607302 
2.5703939893 2.6021272484 2.6338605076 2.6655937667 2.6973270258 2.7290602849 2.7607935441 2.7925268032 2.8242600623 
2.8559933214 2.8877265806 2.9194598397 2.9511930988 2.982926358 3.0146596171 3.0463928762 3.0781261353 3.1098593945 
3.1415926536 
_radius 1 100 double
1.3345785899e-15 0.01678776656 0.033355926857 0.049495040197 0.065025811417 0.079811107175 0.093764146175 0.10685185748 0.11909276008 
0.13054927441 0.14131514253 0.15149953216 0.1612102171 0.17053861267 0.17954906299 0.1882736081 0.19671198465 0.20483555069 
0.21259356581 0.21992063282 0.22674465421 0.23299501394 0.23861074318 0.24354823283 0.24778776103 0.25133786616 0.25423655279 
0.25654855591 0.25835842339 0.25975992737 0.26084311778 0.26168096712 0.26231782211 0.26276166817 0.26298156809 0.26291074744 
0.26245492174 0.26150479472 0.25995126516 0.25770168906 0.25469544659 0.25091701143 0.24640475938 0.241253976 0.23561301323 
0.2296723378 0.22364730258 0.21775677917 0.21220109108 0.20714350412 0.20269919511 0.19893368994 0.19586961904 0.19349765774 
0.19178638577 0.19068732717 0.19013483183 0.19004370906 0.19030871722 0.190808731 0.19141587571 0.19200780851 0.1924804909 
0.1927590293 0.19280481164 0.19261782453 0.19223373169 0.19171615747 0.19114549353 0.19060607149 0.1901735579 0.1899041098 
0.18982645185 0.18993762922 0.19020256552 0.19055669325 0.19091021188 0.19115246975 0.1911556728 0.19077817029 0.18986832603 
0.18827006478 0.18583062909 0.18241024091 0.17789261805 0.17219486489 0.16527515542 0.15713679157 0.14782762341 0.13743449021 
0.12607326507 0.11387610163 0.10097827263 0.087507203727 0.073575728434 0.059280319546 0.044703530299 0.029918729414 0.014994915013 
8.1083412144e-16 
_area 1 100 double
0 0.00077014368511 0.0030299644234 0.0066361849038 0.011376602682 0.017003851251 0.023272270272 0.029971014499 0.0369478801 
0.044120044018 0.051469329802 0.059021540858 0.066814160103 0.074863831627 0.083147172059 0.091600379879 0.10013226415 0.10864120968 
0.11702892426 0.12520775947 0.13310137596 0.14064041376 0.14775644119 0.15437888169 0.16043909351 0.16588185089 0.17067956459 
0.17484285569 0.17842325712 0.18150722871 0.18420307232 0.18662317535 0.18886363931 0.19098241739 0.19297679009 0.19476316672 
0.19616708908 0.19693397155 0.19676540535 0.19537503067 0.19255018917 0.1882033448 0.18240021156 0.17535861874 0.1674204417 
0.15900502791 0.15055430774 0.14247716017 0.13509663671 0.12860520239 0.12304500537 0.11833380122 0.11432624029 0.11087250364 
0.10785468906 0.10520568725 0.10291249792 0.10099184447 0.099435000063 0.098169753003 0.097085215458 0.096080297532 0.09508491431 
0.094052104365 0.092943240437 0.091726224535 0.090388934635 0.088953778127 0.087479754538 0.086050153247 0.08475623722 0.083698978456 
0.082987582774 0.0827186661 0.082929965301 0.083548584195 0.084482143188 0.085626583449 0.086844179496 0.087945636459 0.088687208449 
0.088788298151 0.087968131731 0.085991800157 0.082711834368 0.078094167156 0.072224101239 0.065294319187 0.05758050749 0.049410671141 
0.041132916921 0.033084913589 0.025567337064 0.018823408282 0.013026634641 0.0082785712581 0.0046174181607 0.0020361926558 0.00050628104575 
9.90549446e-17 
