# vtk DataFile Version 5.1
vtk output
ASCII
DATASET POLYDATA
POINTS 100 float
0.102233 0.053146 0.694542 0.102339 0.0532399 0.694314 0.102662 0.0533836 0.693437 
0.103174 0.0535681 0.691915 0.103829 0.0537805 0.689751 0.104565 0.0540053 0.686954 
0.105312 0.0542271 0.68353 0.105996 0.0544322 0.67949 0.10654 0.0546104 0.674842 
0.106875 0.0547561 0.669598 0.106941 0.0548686 0.663767 0.10669 0.0549511 0.657363 
0.106093 0.0550093 0.650399 0.105136 0.0550494 0.642892 0.103823 0.0550752 0.634864 
0.10217 0.0550863 0.626339 0.100209 0.0550754 0.617348 0.0979744 0.0550279 0.607923 
0.0955068 0.0549216 0.598102 0.0928423 0.0547275 0.587923 0.0900109 0.0544124 0.577421 
0.0870326 0.053942 0.566632 0.0839152 0.0532847 0.555584 0.0806542 0.0524153 0.544299 
0.077234 0.0513191 0.532789 0.0736306 0.0499945 0.52106 0.0698153 0.0484549 0.509107 
0.0657592 0.0467292 0.496917 0.0614375 0.0448605 0.484475 0.056833 0.0429037 0.471759 
0.0519391 0.040922 0.458748 0.04676 0.0389819 0.445425 0.0413107 0.0371492 0.431774 
0.0356141 0.0354838 0.417785 0.0296976 0.0340362 0.403453 0.0235885 0.0328445 0.388779 
0.0173103 0.0319334 0.373763 0.0108783 0.0313136 0.358407 0.00429838 0.0309836 0.342709 
-0.00243336 0.0309322 0.326658 -0.00932807 0.0311417 0.310238 -0.0163994 0.0315915 0.293419 
-0.023657 0.0322615 0.276163 -0.0310984 0.033135 0.25842 -0.0387014 0.0342004 0.240137 
-0.0464163 0.0354519 0.221256 -0.0541617 0.0368892 0.201724 -0.0618219 0.0385157 0.181498 
-0.0692485 0.040336 0.16055 -0.0762668 0.042353 0.138871 -0.0826848 0.0445647 0.116478 
-0.0883062 0.0469616 0.0934148 -0.0929451 0.0495246 0.0697507 -0.0964413 0.0522241 0.045579 
-0.0986749 0.0550201 0.0210127 -0.0995776 0.0578632 -0.00382213 -0.0991405 0.0606973 -0.0287935 
-0.0974165 0.0634624 -0.0537716 -0.0945172 0.0660981 -0.0786368 -0.0906044 0.0685472 -0.103286 
-0.0858768 0.0707587 -0.127637 -0.0805532 0.0726902 -0.151634 -0.0748544 0.0743098 -0.175246 
-0.0689845 0.0755963 -0.198465 -0.0631152 0.076539 -0.221301 -0.0573735 0.0771363 -0.243781 
-0.0518346 0.0773939 -0.265937 -0.0465206 0.0773226 -0.287798 -0.0414054 0.0769357 -0.30939 
-0.0364243 0.0762478 -0.330722 -0.0314882 0.0752726 -0.351787 -0.0264993 0.0740227 -0.372557 
-0.021368 0.0725097 -0.392985 -0.0160274 0.0707444 -0.413007 -0.0104449 0.0687388 -0.432544 
-0.00462903 0.0665072 -0.451511 0.00136923 0.0640684 -0.469822 0.00746045 0.0614466 -0.487394 
0.0135255 0.0586731 -0.504157 0.0194278 0.0557859 -0.520057 0.0250282 0.0528303 -0.53506 
0.0301989 0.0498567 -0.549153 0.0348369 0.0469192 -0.562343 0.0388734 0.0440732 -0.574656 
0.0422799 0.0413722 -0.58613 0.0450683 0.0388649 -0.596814 0.0472873 0.0365924 -0.606759 
0.0490144 0.0345857 -0.616012 0.0503452 0.0328643 -0.624614 0.0513813 0.0314344 -0.632591 
0.0522183 0.0302897 -0.639955 0.0529358 0.0294116 -0.6467 0.0535908 0.0287713 -0.652806 
0.0542139 0.0283318 -0.658236 0.0548101 0.0280512 -0.662947 0.0553633 0.027886 -0.666888 
0.0558431 0.0277944 -0.670008 0.0562132 0.0277394 -0.672261 0.0564402 0.0276921 -0.673612 
0.0565009 0.0276336 -0.674037 
LINES 2 100
OFFSETS vtktypeint64
0 100 
CONNECTIVITY vtktypeint64
0 1 2 3 4 5 6 7 8 
9 10 11 12 13 14 15 16 17 
18 19 20 21 22 23 24 25 26 
27 28 29 30 31 32 33 34 35 
36 37 38 39 40 41 42 43 44 
45 46 47 48 49 50 51 52 53 
54 55 56 57 58 59 60 61 62 
63 64 65 66 67 68 69 70 71 
72 73 74 75 76 77 78 79 80 
81 82 83 84 85 86 87 88 89 
90 91 92 93 94 95 96 97 98 
99 
POINT_DATA 100
FIELD FieldData 3
_theta 1 100 double
0 0.031733259127 0.063466518254 0.095199777382 0.12693303651 0.15866629564 0.19039955476 0.22213281389 0.25386607302 
0.28559933214 0.31733259127 0.3490658504 0.38079910953 0.41253236865 0.44426562778 0.47599888691 0.50773214603 0.53946540516 
0.57119866429 0.60293192342 0.63466518254 0.66639844167 0.6981317008 0.72986495992 0.76159821905 0.79333147818 0.82506473731 
0.85679799643 0.88853125556 0.92026451469 0.95199777382 0.98373103294 1.0154642921 1.0471975512 1.0789308103 1.1106640695 
1.1423973286 1.1741305877 1.2058638468 1.237597106 1.2693303651 1.3010636242 1.3327968833 1.3645301425 1.3962634016 
1.4279966607 1.4597299198 1.491463179 1.5231964381 1.5549296972 1.5866629564 1.6183962155 1.6501294746 1.6818627337 
1.7135959929 1.745329252 1.7770625111 1.8087957702 1.8405290294 1.8722622885 1.9039955476 1.9357288068 1.9674620659 
1.999195325 2.0309285841 2.0626618433 2.0943951024 2.1261283615 2.1578616206 2.1895948798 2.2213281389 2.253061398 
2.2847946572 2.3165279163 2.3482611754 2.3799944345 2.4117276937 2.4434609528 2.4751942119 2.506927471 2.5386607302 
2.5703939893 2.6021272484 2.6338605076 2.6655937667 2.6973270258 2.7290602849 2.7607935441 2.7925268032 2.8242600623 
2.8559933214 2.8877265806 2.9194598397 2.9511930988 2.982926358 3.0146596171 3.0463928762 3.0781261353 3.1098593945 
3.1415926536 
_radius 1 100 double
4.5252016677e-16 0.013691085517 0.027328136448 0.040848203356 0.054186520191 0.067277929565 0.080059674746 0.092475021112 0.10447688881 
0.11603065678 0.12711550438 0.13772401069 0.14786013987 0.15753610939 0.16676886462 0.17557687621 0.18397770531 0.19198635011 
0.19961402476 0.20686694743 0.21374497346 0.22024033793 0.22633711301 0.23201204597 0.23723717474 0.24198410063 0.24622919606 
0.24995852988 0.25317108881 0.25587909758 0.25810493174 0.25987513896 0.26121308409 0.26213223401 0.26263178912 0.262695409 
0.26229275161 0.2613830018 0.25991962258 0.25785593364 0.2551514378 0.25177887696 0.24773180352 0.24303210725 0.23773657531 
0.23194129915 0.22578266237 0.2194337895 0.21309572137 0.20698322761 0.20130613731 0.19624840609 0.19194860052 0.18848628613 
0.1858779095 0.18408285667 0.18301663994 0.18256574688 0.18259913073 0.18297447315 0.18354136679 0.18414589815 0.18464011394 
0.18489624707 0.18482208275 0.18437273162 0.18355537414 0.18242582655 0.18107784025 0.17962744773 0.17819536738 0.1768904679 
0.1757965884 0.17496381488 0.17440405049 0.17408986435 0.17395545447 0.17389905732 0.17378689137 0.17345923019 0.17273914879 
0.17144391575 0.16939820976 0.1664476605 0.16247087812 0.15738822753 0.15116609031 0.14381612203 0.13538988629 0.12597003329 
0.11565970425 0.1045719657 0.092820810586 0.080514725146 0.067753185099 0.054625854769 0.041213807763 0.027591831939 0.01383088099 
7.5415747169e-16 
_area 1 100 double
0 0.00053678935798 0.0021344342109 0.0047552581393 0.0083381642739 0.012801351518 0.018046394856 0.023963792761 0.030439719599 
0.037363072961 0.044631468532 0.052155165654 0.059858893666 0.067682386638 0.075580379815 0.083521934166 0.091488117928 0.099467233328 
0.10744800049 0.11541239637 0.12333009202 0.13115555255 0.13882774026 0.14627190643 0.15340340655 0.16013422936 0.16638296971 
0.17208765415 0.17721837087 0.1817838189 0.18582372589 0.18938070754 0.19245768089 0.19498899836 0.19685354105 0.19791859157 
0.19807716768 0.19726002755 0.19542866283 0.1925628989 0.18865336994 0.18370361906 0.17774159371 0.17083648553 0.16311466473 
0.15476840004 0.14605313354 0.13727235366 0.12875205447 0.12080807941 0.11370919338 0.10763887459 0.10266402734 0.098727235942 
0.095675480343 0.093318137151 0.091490811176 0.090086072621 0.089021775388 0.088222746305 0.087634998894 0.087203584219 0.08683656196 
0.086394899615 0.085719196727 0.084678151367 0.083212346695 0.081354439294 0.079221566711 0.076986503766 0.074838880056 0.072948351891 
0.071439014407 0.070379756408 0.069790185245 0.069656159526 0.069942817086 0.070589713684 0.071483210427 0.07243161744 0.073176409449 
0.073432431078 0.072932432775 0.071465679224 0.06890644583 0.065228460928 0.060503984844 0.054889962239 0.048606175877 0.041910780181 
0.035077262071 0.028374618202 0.022050591725 0.016317276292 0.011339435489 0.0072274734609 0.004037691662 0.0017815192691 0.00044294708548 
5.6150017714e-17 
