# vtk DataFile Version 5.1
vtk output
ASCII
DATASET POLYDATA
POINTS 100 float
0.099955 0.0474407 0.673073 0.100185 0.047623 0.672776 0.100891 0.047999 0.67173 
0.101984 0.0485435 0.669942 0.103324 0.0492189 0.667428 0.10474 0.0499794 0.664205 
0.106045 0.0507757 0.660293 0.10706 0.0515598 0.655709 0.107627 0.0522898 0.650467 
0.107627 0.0529325 0.644574 0.106991 0.0534656 0.638034 0.1057 0.053877 0.630845 
0.103784 0.0541637 0.623006 0.101312 0.0543284 0.614513 0.0983814 0.0543764 0.605367 
0.0950998 0.0543118 0.595579 0.091571 0.0541349 0.585165 0.087881 0.0538402 0.574153 
0.0840876 0.0534165 0.562584 0.080215 0.0528484 0.550506 0.0762541 0.0521195 0.537973 
0.0721667 0.0512162 0.525046 0.0678943 0.0501324 0.511782 0.0633693 0.0488738 0.498237 
0.0585265 0.0474609 0.484458 0.0533135 0.0459306 0.470484 0.0476986 0.0443359 0.456343 
0.0416746 0.0427433 0.442051 0.0352589 0.0412279 0.427616 0.028489 0.0398675 0.413037 
0.0214158 0.0387361 0.398308 0.0140944 0.0378968 0.383416 0.00657576 0.0373959 0.368346 
-0.001101 0.0372592 0.353081 -0.00891238 0.0374901 0.337596 -0.016851 0.0380698 0.321866 
-0.0249217 0.038961 0.305854 -0.0331341 0.0401125 0.289517 -0.041492 0.0414661 0.272801 
-0.0499824 0.0429627 0.255646 -0.0585647 0.0445496 0.237981 -0.0671627 0.0461848 0.219733 
-0.0756605 0.0478405 0.200835 -0.0839038 0.0495037 0.181225 -0.0917067 0.0511742 0.160864 
-0.0988635 0.0528613 0.139737 -0.105165 0.0545785 0.117863 -0.110415 0.0563372 0.0952984 
-0.114453 0.0581417 0.0721379 -0.117164 0.0599849 0.048514 -0.118496 0.0618455 0.0245898 
-0.118463 0.0636888 0.000550008 -0.117145 0.0654685 -0.0234116 -0.114684 0.0671317 -0.0471058 
-0.111266 0.0686252 -0.070362 -0.107105 0.0699023 -0.0930409 -0.102424 0.0709293 -0.115045 
-0.0974334 0.0716908 -0.136323 -0.0923138 0.0721927 -0.156873 -0.0872003 0.0724624 -0.176737 
-0.0821756 0.072546 -0.195996 -0.0772681 0.0725033 -0.214751 -0.0724561 0.0723999 -0.233118 
-0.0676781 0.0722987 -0.251204 -0.0628468 0.072251 -0.269101 -0.0578657 0.0722891 -0.286866 
-0.0526445 0.0724206 -0.304522 -0.0471137 0.0726261 -0.32205 -0.0412347 0.0728598 -0.339395 
-0.0350055 0.073054 -0.35647 -0.0284613 0.0731261 -0.373168 -0.02167 0.0729878 -0.389375 
-0.0147249 0.0725554 -0.404983 -0.00773348 0.0717597 -0.419904 -0.000806855 0.0705542 -0.434076 
0.00595056 0.0689211 -0.447469 0.012449 0.0668735 -0.460089 0.0186181 0.0644549 -0.47197 
0.024408 0.0617341 -0.483168 0.0297874 0.0587989 -0.493751 0.0347386 0.0557463 -0.503786 
0.0392516 0.0526733 -0.513329 0.0433176 0.0496675 -0.522412 0.0469243 0.0467999 -0.531045 
0.0500527 0.0441196 -0.539203 0.0526774 0.0416521 -0.54684 0.0547699 0.0394009 -0.553888 
0.0563041 0.0373506 -0.560274 0.0572636 0.035474 -0.565925 0.0576503 0.0337384 -0.570787 
0.0574906 0.0321137 -0.574831 0.0568402 0.0305781 -0.578062 0.0557861 0.0291225 -0.580523 
0.054443 0.0277528 -0.582291 0.0529476 0.0264891 -0.583475 0.0514478 0.0253627 -0.584199 
0.0500911 0.0244112 -0.584593 0.04901 0.0236724 -0.584779 0.0483106 0.0231789 -0.584853 
0.0480611 0.0229528 -0.584879 
LINES 2 100
OFFSETS vtktypeint64
0 100 
CONNECTIVITY vtktypeint64
0 1 2 3 4 5 6 7 8 
9 10 11 12 13 14 15 16 17 
18 19 20 21 22 23 24 25 26 
27 28 29 30 31 32 33 34 35 
36 37 38 39 40 41 42 43 44 
45 46 47 48 49 50 51 52 53 
54 55 56 57 58 59 60 61 62 
63 64 65 66 67 68 69 70 71 
72 73 74 75 76 77 78 79 80 
81 82 83 84 85 86 87 88 89 
90 91 92 93 94 95 96 97 98 
99 
POINT_DATA 100
FIELD FieldData 3
_theta 1 100 double
0 0.031733259127 0.063466518254 0.095199777382 0.12693303651 0.15866629564 0.19039955476 0.22213281389 0.25386607302 
0.28559933214 0.31733259127 0.3490658504 0.38079910953 0.41253236865 0.44426562778 0.47599888691 0.50773214603 0.53946540516 
0.57119866429 0.60293192342 0.63466518254 0.66639844167 0.6981317008 0.72986495992 0.76159821905 0.79333147818 0.82506473731 
0.85679799643 0.88853125556 0.92026451469 0.95199777382 0.98373103294 1.0154642921 1.0471975512 1.0789308103 1.1106640695 
1.1423973286 1.1741305877 1.2058638468 1.237597106 1.2693303651 1.3010636242 1.3327968833 1.3645301425 1.3962634016 
1.4279966607 1.4597299198 1.491463179 1.5231964381 1.5549296972 1.5866629564 1.6183962155 1.6501294746 1.6818627337 
1.7135959929 1.745329252 1.7770625111 1.8087957702 1.8405290294 1.8722622885 1.9039955476 1.9357288068 1.9674620659 
1.999195325 2.0309285841 2.0626618433 2.0943951024 2.1261283615 2.1578616206 2.1895948798 2.2213281389 2.253061398 
2.2847946572 2.3165279163 2.3482611754 2.3799944345 2.4117276937 2.4434609528 2.4751942119 2.506927471 2.5386607302 
2.5703939893 2.6021272484 2.6338605076 2.6655937667 2.6973270258 2.7290602849 2.7607935441 2.7925268032 2.8242600623 
2.8559933214 2.8877265806 2.9194598397 2.9511930988 2.982926358 3.0146596171 3.0463928762 3.0781261353 3.1098593945 
3.1415926536 
_radius 1 100 double
1.3474502985e-15 0.013406046469 0.026703232292 0.039786253619 0.052565356123 0.064970343087 0.0769511668 0.088475590551 0.09952491401 
0.11008885685 0.12016054531 0.12973233951 0.1387930539 0.14732690619 0.1553142195 0.16273354582 0.1695646211 0.17579152888 
0.18140563823 0.18640815347 0.19081228416 0.19464500763 0.1979481862 0.2007785546 0.20320595874 0.20530928183 0.20716975666 
0.20886187427 0.21044294622 0.21194344749 0.21336089774 0.21465934563 0.21577457241 0.21662328597 0.21711401381 0.21715796709 
0.21667897484 0.21562212391 0.21396093311 0.21170288165 0.20889302975 0.20561537464 0.20199151487 0.19817618444 0.19434931779 
0.19070459371 0.1874349662 0.18471652981 0.18269296639 0.18146326948 0.18107490319 0.18152299434 0.18275435286 0.18467416779 
0.18715367057 0.19003839219 0.19315773349 0.19633658166 0.19940874376 0.20223082374 0.20469452363 0.20673535746 0.20833626732 
0.20952543008 0.21036847846 0.21095626022 0.21138994498 0.21176560264 0.21216025445 0.21262091293 0.21315749287 0.21373993147 
0.21429951381 0.21473419185 0.21491744535 0.2147098651 0.21397218895 0.21257814601 0.21042532599 0.20744249252 0.20359231309 
0.19886930538 0.19329372152 0.18690287071 0.17974179086 0.17185510758 0.16328140867 0.15405068586 0.14418458888 0.13369863541 
0.12260530901 0.11091721784 0.098650037656 0.085825489842 0.072474743345 0.058642242087 0.044389282772 0.029796166126 0.01496177333 
1.1848966579e-15 
_area 1 100 double
0 0.00052763309519 0.0020815127595 0.0045784901075 0.0078922013817 0.011868920678 0.01634585547 0.02116951017 0.026211641091 
0.031379630505 0.036617882691 0.041899097135 0.047208855311 0.052530055317 0.057832544029 0.063069747806 0.068181312801 0.07309959265 
0.077757786199 0.082098565366 0.086083908029 0.089707227386 0.093005092095 0.096060654789 0.098992610546 0.10193350908 0.10500625411 
0.10830081699 0.11184870375 0.11560037312 0.11942014787 0.12310765961 0.12643737167 0.12919836782 0.13122175451 0.13239251006 
0.13264864557 0.13197289442 0.13038299039 0.12792633034 0.12468189884 0.12076675214 0.11633993855 0.11159735499 0.10675620229 
0.10203328516 0.097623203171 0.093680341884 0.090306628072 0.087548226625 0.085406078893 0.083857952747 0.082876021734 0.082428387201 
0.082467673872 0.082913821695 0.083641906755 0.084484159935 0.085249860173 0.085761349193 0.085894277513 0.08560574 0.084937303717 
0.083988975396 0.082894723736 0.081802717069 0.080851008741 0.080171216631 0.079883894156 0.080077686496 0.080806327445 0.082046410357 
0.083698593519 0.085608457724 0.087585447011 0.089427322047 0.090936542912 0.091931819065 0.092264191623 0.091833096559 0.090588372492 
0.088515451593 0.085613469454 0.081881172869 0.077321354115 0.071961138868 0.065874359035 0.059193180359 0.052104111072 0.044830231384 
0.037605130982 0.030645928211 0.024133291317 0.018204716517 0.012962566482 0.0084915704249 0.0048753686014 0.0022022050247 0.00055632396078 
1.9551566355e-17 
