# vtk DataFile Version 5.1
vtk output
ASCII
DATASET POLYDATA
POINTS 100 float
0.0486237 -0.00218302 0.574016 0.0487667 -0.00186539 0.573755 0.049248 -0.00104441 0.572835 
0.0500004 0.000222868 0.571289 0.0509209 0.00184944 0.569167 0.051884 0.00372877 0.56653 
0.0527561 0.0057473 0.563437 0.053411 0.00779736 0.55994 0.0537442 0.00978873 0.556074 
0.0536829 0.0116574 0.55185 0.0531923 0.01337 0.547257 0.0522762 0.0149244 0.542257 
0.0509724 0.0163449 0.536796 0.0493437 0.0176743 0.530809 0.0474657 0.0189635 0.524232 
0.0454141 0.0202594 0.517008 0.0432514 0.0215951 0.509104 0.0410179 0.0229805 0.50051 
0.0387247 0.024399 0.491251 0.0363531 0.0258062 0.481381 0.0338575 0.0271351 0.470985 
0.0311735 0.0283043 0.460164 0.0282277 0.0292294 0.449034 0.0249501 0.0298359 0.437708 
0.0212851 0.0300716 0.426285 0.0172001 0.0299166 0.414845 0.0126907 0.0293903 0.403435 
0.00778149 0.0285538 0.39207 0.00252155 0.0275062 0.380731 -0.00302336 0.0263775 0.36937 
-0.00878186 0.0253168 0.357916 -0.0146888 0.0244782 0.346285 -0.0206966 0.0240057 0.334389 
-0.0267831 0.0240195 0.322145 -0.032956 0.0246043 0.309486 -0.0392514 0.025802 0.296363 
-0.0457274 0.0276097 0.282745 -0.0524523 0.0299811 0.268625 -0.0594897 0.0328343 0.254008 
-0.0668824 0.0360615 0.238909 -0.0746362 0.0395418 0.223347 -0.0827071 0.0431539 0.207335 
-0.0909939 0.0467881 0.190878 -0.0993367 0.0503552 0.173967 -0.107523 0.0537921 0.156583 
-0.115298 0.0570638 0.138697 -0.122389 0.0601606 0.120275 -0.12852 0.063093 0.101287 
-0.13344 0.0658833 0.0817146 -0.136945 0.0685575 0.0615555 -0.138897 0.0711362 0.0408324 
-0.139232 0.0736285 0.0195943 -0.137972 0.0760275 -0.00208302 -0.135216 0.0783095 -0.0241008 
-0.131133 0.080436 -0.0463431 -0.125941 0.0823585 -0.0686854 -0.11989 0.0840246 -0.0910039 
-0.113231 0.0853859 -0.113186 -0.106202 0.0864038 -0.135136 -0.0989992 0.0870552 -0.156784 
-0.0917679 0.0873352 -0.178086 -0.0845928 0.0872563 -0.199026 -0.0774976 0.0868459 -0.219608 
-0.0704516 0.0861409 -0.239854 -0.0633822 0.0851803 -0.259791 -0.0561912 0.0839983 -0.279446 
-0.0487733 0.0826172 -0.298835 -0.0410337 0.0810426 -0.317958 -0.0329043 0.0792611 -0.336794 
-0.0243541 0.0772409 -0.355301 -0.0153959 0.0749356 -0.373417 -0.00608617 0.0722914 -0.391065 
0.00347984 0.0692545 -0.408161 0.0131774 0.0657812 -0.424624 0.0228644 0.0618462 -0.440376 
0.0323951 0.0574499 -0.455359 0.0416323 0.0526229 -0.469531 0.0504589 0.047427 -0.482874 
0.0587849 0.0419532 -0.495391 0.0665518 0.0363162 -0.507102 0.0737325 0.030646 -0.518038 
0.0803279 0.0250781 -0.528241 0.0863611 0.019743 -0.537748 0.0918699 0.0147571 -0.546593 
0.0968996 0.0102136 -0.554802 0.101495 0.00617787 -0.562387 0.105697 0.00268477 -0.56935 
0.109537 -0.000261093 -0.575685 0.113036 -0.00268185 -0.581383 0.116206 -0.00462106 -0.586435 
0.119053 -0.00613705 -0.59084 0.121578 -0.00729587 -0.594604 0.123781 -0.00816482 -0.597751 
0.125664 -0.00880704 -0.600315 0.12723 -0.00927781 -0.602343 0.128487 -0.00962245 -0.603889 
0.129445 -0.00987589 -0.605012 0.130113 -0.0100633 -0.605765 0.130502 -0.0102016 -0.60619 
0.130617 -0.0103004 -0.606317 
LINES 2 100
OFFSETS vtktypeint64
0 100 
CONNECTIVITY vtktypeint64
0 1 2 3 4 5 6 7 8 
9 10 11 12 13 14 15 16 17 
18 19 20 21 22 23 24 25 26 
27 28 29 30 31 32 33 34 35 
36 37 38 39 40 41 42 43 44 
45 46 47 48 49 50 51 52 53 
54 55 56 57 58 59 60 61 62 
63 64 65 66 67 68 69 70 71 
72 73 74 75 76 77 78 79 80 
81 82 83 84 85 86 87 88 89 
90 91 92 93 94 95 96 97 98 
99 
POINT_DATA 100
FIELD FieldData 3
_theta 1 100 double
0 0.031733259127 0.063466518254 0.095199777382 0.12693303651 0.15866629564 0.19039955476 0.22213281389 0.25386607302 
0.28559933214 0.31733259127 0.3490658504 0.38079910953 0.41253236865 0.44426562778 0.47599888691 0.50773214603 0.53946540516 
0.57119866429 0.60293192342 0.63466518254 0.66639844167 0.6981317008 0.72986495992 0.76159821905 0.79333147818 0.82506473731 
0.85679799643 0.88853125556 0.92026451469 0.95199777382 0.98373103294 1.0154642921 1.0471975512 1.0789308103 1.1106640695 
1.1423973286 1.1741305877 1.2058638468 1.237597106 1.2693303651 1.3010636242 1.3327968833 1.3645301425 1.3962634016 
1.4279966607 1.4597299198 1.491463179 1.5231964381 1.5549296972 1.5866629564 1.6183962155 1.6501294746 1.6818627337 
1.7135959929 1.745329252 1.7770625111 1.8087957702 1.8405290294 1.8722622885 1.9039955476 1.9357288068 1.9674620659 
1.999195325 2.0309285841 2.0626618433 2.0943951024 2.1261283615 2.1578616206 2.1895948798 2.2213281389 2.253061398 
2.2847946572 2.3165279163 2.3482611754 2.3799944345 2.4117276937 2.4434609528 2.4751942119 2.506927471 2.5386607302 
2.5703939893 2.6021272484 2.6338605076 2.6655937667 2.6973270258 2.7290602849 2.7607935441 2.7925268032 2.8242600623 
2.8559933214 2.8877265806 2.9194598397 2.9511930988 2.982926358 3.0146596171 3.0463928762 3.0781261353 3.1098593945 
3.1415926536 
_radius 1 100 double
7.7719919372e-16 0.013637412845 0.027154373994 0.040436201865 0.053383917496 0.06591911955 0.077985894715 0.089549842048 0.10059486525 
0.11111873633 0.1211284565 0.13063615136 0.13965576803 0.14820039497 0.1562798077 0.16389797522 0.17105068888 0.17772397232 
0.18389420136 0.1895307038 0.19460103299 0.19907834288 0.20294963841 0.20622334221 0.20893463245 0.21114726051 0.21295092709 
0.21445374098 0.21576988306 0.21700350829 0.21823122199 0.21948682037 0.22075234662 0.22195788965 0.22298960756 0.22370330379 
0.22394062855 0.22354583869 0.22238188969 0.22034506648 0.21737750555 0.21347698645 0.20870334231 0.20318075972 0.19709512102 
0.1906854681 0.1842288315 0.17801836432 0.17233616498 0.16742417259 0.1634583074 0.16053162941 0.15865096847 0.15774787371 
0.1576996056 0.15835209636 0.15953724696 0.1610814796 0.16280842659 0.16454255031 0.16611910087 0.16739965932 0.16828744562 
0.16873682295 0.16875490404 0.1683960802 0.1677514566 0.16693524834 0.16606995093 0.16527185799 0.16463823909 0.16423715163 
0.16410050003 0.16422067859 0.16455093452 0.16500932035 0.1654856612 0.16585043898 0.1659641529 0.16568579318 0.16487960881 
0.16342013527 0.16119607257 0.1581137557 0.15410063197 0.14910860948 0.14311667674 0.13613200603 0.12818889052 0.11934527973 
0.10967724915 0.099272291315 0.088222651646 0.076619913846 0.064551655201 0.052100372858 0.039344248652 0.02635889161 0.013219107615 
7.3118928333e-16 
_area 1 100 double
0 0.00046087909947 0.0018261962516 0.0040474850612 0.0070542153719 0.010764950987 0.015096589676 0.019969026772 0.025304989352 
0.031026994666 0.037054389779 0.043302980202 0.04968826152 0.056131399883 0.062565490397 0.068938775769 0.075211944311 0.081348798204 
0.087303274759 0.093009294952 0.098380449457 0.10332276136 0.10775749408 0.11164582743 0.11500619349 0.11791907287 0.1205203522 
0.12298674436 0.12551195793 0.12826602957 0.13133822315 0.13469375849 0.13817964297 0.1415648235 0.14458033456 0.14695375952 
0.14843971609 0.14884071869 0.1480173672 0.14589325733 0.14245938259 0.13777874365 0.13198909203 0.12530130987 0.11799158493 
0.11038615275 0.10283784969 0.095694816998 0.089264861797 0.08378386177 0.079398104885 0.076150688749 0.073919136417 0.072436283798 
0.071458730658 0.070831663412 0.070476394071 0.070359665225 0.070452164212 0.070692924666 0.070983143161 0.071206410823 0.071251453819 
0.071026785667 0.070474074343 0.069582086144 0.068392791082 0.067001711861 0.065598021177 0.064234384206 0.062976008033 0.0618973686 
0.061069318715 0.06055945624 0.06042663097 0.060726822214 0.061477499054 0.062573741726 0.063863756642 0.065131521421 0.066124833758 
0.066594005779 0.066322368223 0.065148779576 0.062981784918 0.059806025457 0.055681620994 0.050737145981 0.045156968026 0.039164142282 
0.03300067088 0.026907516948 0.021106976883 0.015789629587 0.011107142306 0.0071710247663 0.0040563575608 0.0018088123521 0.00045297342622 
6.9639630661e-17 
