# vtk DataFile Version 5.1
vtk output
ASCII
DATASET POLYDATA
POINTS 100 float
0.0818948 0.0590329 0.685122 0.0819464 0.0589713 0.684845 0.0821557 0.0586581 0.68386 
0.0825183 0.0581238 0.682175 0.0830277 0.0574167 0.679799 0.0836764 0.0565993 0.676743 
0.0844561 0.0557428 0.67302 0.0853587 0.054921 0.668638 0.0863757 0.0542044 0.663603 
0.0874976 0.0536541 0.657918 0.0887119 0.0533163 0.651579 0.0900015 0.0532188 0.644582 
0.0913412 0.0533684 0.636924 0.092696 0.0537501 0.628604 0.0940188 0.0543286 0.619629 
0.0952494 0.055051 0.610018 0.096315 0.055852 0.599801 0.0971319 0.0566587 0.589024 
0.0976095 0.0573973 0.577748 0.0976551 0.0579995 0.566048 0.0971796 0.0584076 0.554009 
0.0961042 0.0585794 0.541724 0.0943664 0.058491 0.529286 0.0919249 0.0581381 0.516783 
0.088763 0.0575349 0.504296 0.0848903 0.0567121 0.491891 0.0803414 0.055712 0.479614 
0.0751728 0.0545844 0.467493 0.0694581 0.0533802 0.455534 0.0632811 0.0521469 0.44372 
0.0567297 0.0509234 0.432015 0.0498883 0.0497374 0.420367 0.0428329 0.0486039 0.408707 
0.0356268 0.0475248 0.396957 0.028319 0.046492 0.385028 0.0209444 0.0454898 0.372829 
0.0135266 0.0445006 0.360261 0.00608162 0.0435086 0.347228 -0.00137631 0.0425054 0.333635 
-0.00882991 0.0414934 0.319387 -0.0162537 0.040488 0.3044 -0.0236107 0.039519 0.288595 
-0.0308501 0.0386286 0.271909 -0.0379081 0.0378693 0.254292 -0.0447097 0.0372992 0.235717 
-0.0511727 0.0369769 0.216181 -0.0572129 0.0369559 0.195707 -0.0627499 0.0372799 0.174348 
-0.0677122 0.037978 0.152186 -0.0720429 0.0390628 0.129328 -0.0757025 0.0405288 0.105909 
-0.0786715 0.0423538 0.082078 -0.0809509 0.0445012 0.0579951 -0.0825612 0.0469241 0.0338222 
-0.0835411 0.0495696 0.00971363 -0.0839443 0.0523838 -0.0141922 -0.0838376 0.0553152 -0.0377803 
-0.0832981 0.0583187 -0.0609641 -0.082411 0.0613562 -0.0836885 -0.0812675 0.0643966 -0.10593 
-0.0799634 0.0674141 -0.127694 -0.0785968 0.0703851 -0.14901 -0.077265 0.0732839 -0.169924 
-0.0760609 0.0760787 -0.190492 -0.0750672 0.0787285 -0.210772 -0.0743499 0.0811797 -0.230814 
-0.0739504 0.0833663 -0.250657 -0.0738772 0.0852105 -0.270326 -0.0740982 0.0866263 -0.289827 
-0.0745351 0.0875245 -0.30915 -0.0750601 0.0878189 -0.328269 -0.0754974 0.0874335 -0.34715 
-0.0756298 0.0863093 -0.36575 -0.0752097 0.0844105 -0.384025 -0.0739767 0.0817285 -0.40193 
-0.0716784 0.0782842 -0.419427 -0.0680938 0.0741279 -0.436478 -0.063058 0.0693366 -0.453047 
-0.0564845 0.0640086 -0.469099 -0.0483825 0.0582576 -0.484598 -0.0388681 0.0522047 -0.499497 
-0.0281662 0.0459709 -0.513744 -0.0166025 0.0396702 -0.527277 -0.0045856 0.033404 -0.540024 
0.00742017 0.0272572 -0.551906 0.0189286 0.0212967 -0.562847 0.0294703 0.0155723 -0.572772 
0.0386312 0.0101184 -0.581623 0.0460885 0.00495868 -0.589359 0.0516395 0.000109838 -0.595968 
0.0552202 -0.00441332 -0.601468 0.0569116 -0.00859417 -0.605911 0.0569325 -0.0124114 -0.609381 
0.055619 -0.0158379 -0.611986 0.0533929 -0.0188409 -0.613859 0.0507209 -0.0213839 -0.615136 
0.0480695 -0.0234297 -0.615954 0.0458594 -0.0249438 -0.616434 0.044424 -0.0258983 -0.616673 
0.0439766 -0.0262746 -0.616733 
LINES 2 100
OFFSETS vtktypeint64
0 100 
CONNECTIVITY vtktypeint64
0 1 2 3 4 5 6 7 8 
9 10 11 12 13 14 15 16 17 
18 19 20 21 22 23 24 25 26 
27 28 29 30 31 32 33 34 35 
36 37 38 39 40 41 42 43 44 
45 46 47 48 49 50 51 52 53 
54 55 56 57 58 59 60 61 62 
63 64 65 66 67 68 69 70 71 
72 73 74 75 76 77 78 79 80 
81 82 83 84 85 86 87 88 89 
90 91 92 93 94 95 96 97 98 
99 
POINT_DATA 100
FIELD FieldData 3
_theta 1 100 double
0 0.031733259127 0.063466518254 0.095199777382 0.12693303651 0.15866629564 0.19039955476 0.22213281389 0.25386607302 
0.28559933214 0.31733259127 0.3490658504 0.38079910953 0.41253236865 0.44426562778 0.47599888691 0.50773214603 0.53946540516 
0.57119866429 0.60293192342 0.63466518254 0.66639844167 0.6981317008 0.72986495992 0.76159821905 0.79333147818 0.82506473731 
0.85679799643 0.88853125556 0.92026451469 0.95199777382 0.98373103294 1.0154642921 1.0471975512 1.0789308103 1.1106640695 
1.1423973286 1.1741305877 1.2058638468 1.237597106 1.2693303651 1.3010636242 1.3327968833 1.3645301425 1.3962634016 
1.4279966607 1.4597299198 1.491463179 1.5231964381 1.5549296972 1.5866629564 1.6183962155 1.6501294746 1.6818627337 
1.7135959929 1.745329252 1.7770625111 1.8087957702 1.8405290294 1.8722622885 1.9039955476 1.9357288068 1.9674620659 
1.999195325 2.0309285841 2.0626618433 2.0943951024 2.1261283615 2.1578616206 2.1895948798 2.2213281389 2.253061398 
2.2847946572 2.3165279163 2.3482611754 2.3799944345 2.4117276937 2.4434609528 2.4751942119 2.506927471 2.5386607302 
2.5703939893 2.6021272484 2.6338605076 2.6655937667 2.6973270258 2.7290602849 2.7607935441 2.7925268032 2.8242600623 
2.8559933214 2.8877265806 2.9194598397 2.9511930988 2.982926358 3.0146596171 3.0463928762 3.0781261353 3.1098593945 
3.1415926536 
_radius 1 100 double
1.693999887e-16 0.014438021444 0.028780707238 0.042928531428 0.056782807063 0.070247273806 0.083230359074 0.095647847334 0.10742569604 
0.11850291531 0.12883452457 0.13839438166 0.14717726173 0.15519938472 0.16249697863 0.16912323336 0.17514453509 0.18063669954 
0.18568117248 0.19036048049 0.1947522147 0.19892166427 0.20291444021 0.20675124959 0.21042676275 0.2139132738 0.21716826731 
0.2201438991 0.22279615942 0.22509191393 0.22701266516 0.22855448291 0.22972414846 0.230532232 0.23098450552 0.23107361425 
0.23077317089 0.23003630487 0.22880005968 0.22699583782 0.22456458915 0.22147408967 0.21773487272 0.21341131881 0.20862506789 
0.20354922869 0.19839370537 0.19338400663 0.18873751439 0.18464174988 0.1812385765 0.1786169116 0.17681455444 0.17582692837 
0.17561748994 0.17612353237 0.17725399338 0.17888161813 0.18083669848 0.18290986001 0.18486645164 0.18646883705 0.1874999917 
0.18778322992 0.1871961496 0.18567956698 0.18324353534 0.1799724739 0.17602921939 0.17165111173 0.16712146816 0.16270944945 
0.1586161825 0.15496995306 0.15185271683 0.14932292895 0.14742533443 0.14619103388 0.14563140119 0.14572848856 0.1464241375 
0.1476093817 0.14911509105 0.15070517017 0.15207591012 0.15286830615 0.15269893609 0.15120433444 0.14808225296 0.14311586398 
0.13617986335 0.1272355795 0.11632200198 0.10354632799 0.0890746327 0.073122372968 0.05594456163 0.03782596194 0.019071878117 
8.2557050709e-16 
_area 1 100 double
0 0.00051603974694 0.0020439493702 0.0045249174886 0.0078661843145 0.011946796147 0.016623360337 0.021736810653 0.027123564632 
0.032634889559 0.038164113477 0.043671224017 0.049183999217 0.054761072204 0.060433973963 0.066170027162 0.071876973753 0.07743362071 
0.082725305924 0.087674347051 0.092261565283 0.096535748964 0.10060876977 0.10463868911 0.10881074395 0.11331215451 0.11825530404 
0.12357600359 0.12903341723 0.13430434775 0.13908949251 0.14318859358 0.14652830481 0.14914461352 0.15113329351 0.15258560098 
0.15352622621 0.15387200868 0.1534326744 0.15196460229 0.14925791034 0.14521570793 0.13989540913 0.13350508753 0.12636382513 
0.11884459348 0.11132292618 0.10414813887 0.097630867963 0.09202146357 0.087466283925 0.083965674903 0.081385628641 0.079539375592 
0.07827615643 0.077514867996 0.077216339411 0.07732648162 0.077731273218 0.07824749694 0.078646286189 0.07869342537 0.078196073013 
0.07704671718 0.07524578676 0.072893611606 0.070167352211 0.067313192771 0.064649213196 0.06244855367 0.060751515434 0.059429189887 
0.05833225281 0.05737425748 0.056545829704 0.055882286713 0.055417448551 0.055157333401 0.055068446139 0.055062703417 0.054992565712 
0.054672710869 0.05392428519 0.052622993919 0.050729669482 0.048288165216 0.045387958385 0.042114967152 0.038528620028 0.034667162137 
0.030569735199 0.026323755596 0.022048022764 0.017735736734 0.013417259205 0.0092651381065 0.0055493635866 0.0025845219045 0.0006650327432 
1.4311468677e-17 
