# vtk DataFile Version 5.1
vtk output
ASCII
DATASET POLYDATA
POINTS 100 float
0.0981091 0.0741546 0.685916 0.0981717 0.0742922 0.685762 0.0983571 0.0745418 0.685122 
0.0986327 0.0748714 0.684004 0.0989493 0.0752319 0.682421 0.0992475 0.0755638 0.680389 
0.0994659 0.0758041 0.677914 0.0995482 0.0758946 0.674998 0.0994503 0.0757888 0.671627 
0.0991441 0.0754575 0.667775 0.0986189 0.074892 0.6634 0.0978802 0.0741043 0.658452 
0.0969445 0.0731251 0.652873 0.0958335 0.0719986 0.646608 0.0945657 0.0707766 0.63961 
0.0931498 0.0695105 0.631847 0.0915784 0.0682446 0.623308 0.0898246 0.0670097 0.614005 
0.0878424 0.0658189 0.603978 0.0855696 0.0646661 0.593288 0.0829346 0.0635264 0.582012 
0.0798651 0.0623599 0.570241 0.0762982 0.0611166 0.558066 0.0721901 0.0597435 0.545572 
0.0675238 0.0581916 0.532832 0.0623144 0.0564225 0.519899 0.0566097 0.0544138 0.506802 
0.0504871 0.0521627 0.493549 0.0440467 0.0496875 0.480124 0.0374003 0.0470263 0.466497 
0.0306597 0.0442346 0.452625 0.0239238 0.0413809 0.438459 0.0172677 0.0385414 0.423953 
0.0107349 0.0357951 0.409062 0.00433364 0.0332188 0.393751 -0.00196195 0.0308838 0.377989 
-0.00820515 0.0288531 0.361751 -0.0144661 0.0271811 0.345014 -0.0208178 0.0259131 0.32775 
-0.0273212 0.0250867 0.309927 -0.0340104 0.0247325 0.291505 -0.0408804 0.0248757 0.272434 
-0.0478796 0.0255355 0.25266 -0.0549074 0.0267251 0.232126 -0.0618173 0.0284491 0.210784 
-0.0684265 0.0307015 0.1886 -0.0745294 0.0334625 0.165562 -0.0799156 0.0366953 0.141692 
-0.0843874 0.040344 0.117048 -0.0877784 0.0443332 0.0917244 -0.0899677 0.0485683 0.0658536 
-0.0908905 0.0529396 0.0395958 -0.0905425 0.0573264 0.0131298 -0.0889785 0.0616048 -0.0133604 
-0.0863052 0.0656553 -0.0397003 -0.082669 0.0693706 -0.0657393 -0.0782406 0.0726636 -0.0913623 
-0.073198 0.075473 -0.116498 -0.0677109 0.0777662 -0.141123 -0.0619259 0.0795402 -0.165259 
-0.0559569 0.0808187 -0.188964 -0.0498796 0.0816464 -0.212322 -0.0437308 0.0820809 -0.235427 
-0.037513 0.0821836 -0.258368 -0.0312017 0.0820098 -0.281208 -0.0247559 0.0816 -0.303979 
-0.018129 0.0809732 -0.326666 -0.0112792 0.0801232 -0.34921 -0.00417776 0.0790179 -0.371507 
0.00318542 0.0776025 -0.393421 0.0108 0.0758062 -0.414793 0.0186363 0.0735513 -0.435462 
0.0266493 0.0707631 -0.455279 0.0347846 0.0673815 -0.474122 0.0429846 0.0633704 -0.491912 
0.0511953 0.0587256 -0.508617 0.0593704 0.0534793 -0.524252 0.0674741 0.047701 -0.538879 
0.0754814 0.0414952 -0.552589 0.083376 0.0349946 -0.565497 0.0911459 0.0283515 -0.577718 
0.0987792 0.0217271 -0.589354 0.106258 0.0152797 -0.600479 0.113556 0.00915448 -0.611133 
0.120634 0.00347414 -0.621312 0.127441 -0.00166798 -0.630975 0.133917 -0.00621152 -0.640049 
0.139994 -0.0101298 -0.648439 0.145608 -0.0134276 -0.656049 0.150699 -0.0161366 -0.662792 
0.155222 -0.0183093 -0.668605 0.159149 -0.0200119 -0.673464 0.162473 -0.0213175 -0.677384 
0.16521 -0.0222993 -0.680424 0.167392 -0.0230263 -0.682678 0.169065 -0.0235589 -0.684266 
0.170284 -0.0239468 -0.685317 0.171102 -0.0242281 -0.685956 0.171562 -0.024429 -0.686284 
0.171694 -0.0245643 -0.686369 
LINES 2 100
OFFSETS vtktypeint64
0 100 
CONNECTIVITY vtktypeint64
0 1 2 3 4 5 6 7 8 
9 10 11 12 13 14 15 16 17 
18 19 20 21 22 23 24 25 26 
27 28 29 30 31 32 33 34 35 
36 37 38 39 40 41 42 43 44 
45 46 47 48 49 50 51 52 53 
54 55 56 57 58 59 60 61 62 
63 64 65 66 67 68 69 70 71 
72 73 74 75 76 77 78 79 80 
81 82 83 84 85 86 87 88 89 
90 91 92 93 94 95 96 97 98 
99 
POINT_DATA 100
FIELD FieldData 3
_theta 1 100 double
0 0.031733259127 0.063466518254 0.095199777382 0.12693303651 0.15866629564 0.19039955476 0.22213281389 0.25386607302 
0.28559933214 0.31733259127 0.3490658504 0.38079910953 0.41253236865 0.44426562778 0.47599888691 0.50773214603 0.53946540516 
0.57119866429 0.60293192342 0.63466518254 0.66639844167 0.6981317008 0.72986495992 0.76159821905 0.79333147818 0.82506473731 
0.85679799643 0.88853125556 0.92026451469 0.95199777382 0.98373103294 1.0154642921 1.0471975512 1.0789308103 1.1106640695 
1.1423973286 1.1741305877 1.2058638468 1.237597106 1.2693303651 1.3010636242 1.3327968833 1.3645301425 1.3962634016 
1.4279966607 1.4597299198 1.491463179 1.5231964381 1.5549296972 1.5866629564 1.6183962155 1.6501294746 1.6818627337 
1.7135959929 1.745329252 1.7770625111 1.8087957702 1.8405290294 1.8722622885 1.9039955476 1.9357288068 1.9674620659 
1.999195325 2.0309285841 2.0626618433 2.0943951024 2.1261283615 2.1578616206 2.1895948798 2.2213281389 2.253061398 
2.2847946572 2.3165279163 2.3482611754 2.3799944345 2.4117276937 2.4434609528 2.4751942119 2.506927471 2.5386607302 
2.5703939893 2.6021272484 2.6338605076 2.6655937667 2.6973270258 2.7290602849 2.7607935441 2.7925268032 2.8242600623 
2.8559933214 2.8877265806 2.9194598397 2.9511930988 2.982926358 3.0146596171 3.0463928762 3.0781261353 3.1098593945 
3.1415926536 
_radius 1 100 double
7.2004190227e-16 0.014596318459 0.029097255685 0.043403756172 0.057425554943 0.071085541677 0.084323319429 0.097097372535 0.10938520638 
0.12118097469 0.13249052984 0.14332446335 0.15369035774 0.1635858806 0.1729943057 0.18188350393 0.19020858073 0.19791745259 
0.20495805483 0.21128571534 0.21686948022 0.22169665226 0.2257752685 0.22913453431 0.23182331101 0.23390671023 0.23546082433 
0.23656573974 0.23729727594 0.23771829906 0.23787082932 0.23777032421 0.23740335213 0.23672936126 0.23568651756 0.23420085634 
0.23219750521 0.22961262381 0.22640490648 0.22256577927 0.21812755172 0.21316867024 0.20781497918 0.20223577723 0.19663374179 
0.19122869253 0.18623666449 0.1818474577 0.17820496252 0.17539438763 0.17343882291 0.17230488441 0.17191459608 0.17215929152 
0.17291172917 0.17403445434 0.17538473808 0.17681819756 0.17819378185 0.1793818684 0.18027509343 0.18079943835 0.18092235621 
0.18065564574 0.18005250462 0.17919965484 0.17820612697 0.17719028527 0.17626631174 0.17553103828 0.17505203901 0.17485829852 
0.17493511924 0.17522462528 0.17563215943 0.17603754932 0.17630915467 0.17631804942 0.17594973976 0.17511145752 0.17373412494 
0.1717692925 0.16918243459 0.1659447031 0.16202538852 0.15738685844 0.15198281811 0.14575975909 0.13866081189 0.13063104815 
0.12162346699 0.11160520368 0.10056370297 0.088512607123 0.075496942498 0.061596953456 0.046929775834 0.031648188095 0.015935980923 
4.2187141986e-16 
_area 1 100 double
0 0.0006217136022 0.0024604746642 0.00544066391 0.0094469334817 0.014337162593 0.019956230602 0.026149145787 0.032773309752 
0.039709754913 0.046871881231 0.054208656241 0.061699035046 0.069336556352 0.077107273804 0.084968070416 0.092833041683 0.10057238203 
0.10802353467 0.11501104972 0.12137041761 0.12697139747 0.13173720671 0.13565692448 0.13878939326 0.14125761379 0.14323293103 
0.14490849998 0.14646315037 0.14802137133 0.14962012546 0.15119249606 0.15257235212 0.15352153135 0.15377888571 0.15311918186 
0.15140104075 0.14858712838 0.14472602189 0.13990520501 0.13422927503 0.12785062651 0.12100369145 0.11400229538 0.10716979637 
0.10076302913 0.095004593776 0.090105651545 0.086226927206 0.083431077211 0.081653441878 0.080709674617 0.080346579572 0.080309216278 
0.080388124285 0.080436894548 0.080369801774 0.080149819443 0.079774162294 0.079259257851 0.078624251605 0.077876095797 0.077004428434 
0.075992261014 0.074835628592 0.073558372558 0.07221642052 0.070894270607 0.069696371103 0.068733022118 0.068101207508 0.067866263921 
0.068051956816 0.068636607359 0.069544411318 0.070639678073 0.071748320664 0.072695691926 0.073335055157 0.073561425575 0.073312041072 
0.072555048238 0.071271434662 0.069438249067 0.067020973339 0.063978765989 0.060279717115 0.055918783152 0.05093144597 0.045399664362 
0.039450367506 0.033248960523 0.026990765458 0.020892354473 0.015183078788 0.010095680634 0.005854468031 0.0026603970947 0.00067414661851 
5.7232729844e-17 
