# vtk DataFile Version 5.1
vtk output
ASCII
DATASET POLYDATA
POINTS 100 float
0.0857236 0.0411453 0.693108 0.0858868 0.0414413 0.692838 0.0864087 0.0421571 0.69187 
0.0872189 0.0432187 0.690247 0.0882101 0.0445141 0.688039 0.0892523 0.0459071 0.68532 
0.0902084 0.0472551 0.682168 0.0909514 0.0484265 0.678643 0.0913791 0.0493179 0.674776 
0.0914245 0.0498662 0.670568 0.091062 0.0500557 0.66598 0.0903059 0.0499194 0.660937 
0.0892041 0.049533 0.655337 0.0878269 0.0490038 0.649059 0.0862524 0.0484556 0.641982 
0.0845507 0.0480108 0.633997 0.0827709 0.0477738 0.625022 0.0809298 0.0478162 0.615016 
0.0790077 0.0481663 0.603985 0.0769483 0.0488049 0.591981 0.074666 0.0496673 0.579106 
0.0720577 0.0506503 0.565497 0.0690172 0.0516259 0.551316 0.0654521 0.0524568 0.536734 
0.0612981 0.0530138 0.521917 0.0565305 0.0531917 0.50701 0.0511703 0.0529227 0.492128 
0.0452835 0.0521844 0.477345 0.0389745 0.0510025 0.462695 0.0323733 0.0494479 0.448171 
0.025619 0.0476275 0.433732 0.0188417 0.0456721 0.419314 0.0121445 0.043721 0.404837 
0.00558999 0.0419068 0.390217 -0.000808723 0.0403417 0.375375 -0.00708942 0.0391069 0.360242 
-0.0133349 0.038247 0.344761 -0.0196604 0.0377691 0.328889 -0.0261947 0.0376473 0.31259 
-0.0330595 0.0378309 0.295834 -0.0403468 0.0382554 0.278589 -0.0480998 0.0388553 0.260817 
-0.0562987 0.0395754 0.24247 -0.0648531 0.0403801 0.223491 -0.0736032 0.0412589 0.20382 
-0.0823297 0.0422277 0.183393 -0.0907702 0.043326 0.162159 -0.0986421 0.0446088 0.140086 
-0.105668 0.0461376 0.117168 -0.1116 0.0479679 0.0934394 -0.116244 0.0501387 0.0689739 
-0.119476 0.0526626 0.0438881 -0.121249 0.0555197 0.0183369 -0.121598 0.0586551 -0.00749514 
-0.120629 0.0619812 -0.0334053 -0.118506 0.0653836 -0.0591879 -0.115431 0.0687312 -0.0846494 
-0.111621 0.0718871 -0.109623 -0.107284 0.0747215 -0.13398 -0.102603 0.0771228 -0.15764 
-0.097717 0.0790064 -0.180569 -0.0927158 0.0803209 -0.202782 -0.0876357 0.08105 -0.224333 
-0.0824664 0.0812097 -0.245305 -0.0771618 0.0808434 -0.265795 -0.0716542 0.0800135 -0.285902 
-0.0658713 0.0787911 -0.305712 -0.059751 0.0772471 -0.325288 -0.0532552 0.0754428 -0.344663 
-0.0463781 0.0734237 -0.363839 -0.0391498 0.0712159 -0.382786 -0.0316351 0.0688257 -0.401452 
-0.0239268 0.0662424 -0.419766 -0.0161363 0.0634432 -0.437656 -0.00838222 0.0604004 -0.455051 
-0.000778277 0.0570882 -0.471894 0.00657639 0.0534902 -0.488145 0.0136047 0.0496045 -0.503786 
0.0202554 0.0454475 -0.518816 0.0265027 0.0410548 -0.53325 0.0323429 0.0364798 -0.547109 
0.0377884 0.0317901 -0.560412 0.04286 0.0270625 -0.573172 0.0475795 0.0223772 -0.585385 
0.0519634 0.0178116 -0.597029 0.0560188 0.013435 -0.608064 0.0597421 0.00930528 -0.618434 
0.0631204 0.00546582 -0.628073 0.0661354 0.00194544 -0.636913 0.0687685 -0.00124082 -0.644894 
0.071007 -0.00408941 -0.651969 0.0728491 -0.00660537 -0.658117 0.0743078 -0.00879906 -0.663339 
0.075412 -0.0106832 -0.667664 0.0762053 -0.0122705 -0.671142 0.0767416 -0.0135718 -0.673842 
0.0770795 -0.0145957 -0.675838 0.077275 -0.0153479 -0.677202 0.0773745 -0.0158317 -0.677993 
0.0774084 -0.0160485 -0.678249 
LINES 2 100
OFFSETS vtktypeint64
0 100 
CONNECTIVITY vtktypeint64
0 1 2 3 4 5 6 7 8 
9 10 11 12 13 14 15 16 17 
18 19 20 21 22 23 24 25 26 
27 28 29 30 31 32 33 34 35 
36 37 38 39 40 41 42 43 44 
45 46 47 48 49 50 51 52 53 
54 55 56 57 58 59 60 61 62 
63 64 65 66 67 68 69 70 71 
72 73 74 75 76 77 78 79 80 
81 82 83 84 85 86 87 88 89 
90 91 92 93 94 95 96 97 98 
99 
POINT_DATA 100
FIELD FieldData 3
_theta 1 100 double
0 0.031733259127 0.063466518254 0.095199777382 0.12693303651 0.15866629564 0.19039955476 0.22213281389 0.25386607302 
0.28559933214 0.31733259127 0.3490658504 0.38079910953 0.41253236865 0.44426562778 0.47599888691 0.50773214603 0.53946540516 
0.57119866429 0.60293192342 0.63466518254 0.66639844167 0.6981317008 0.72986495992 0.76159821905 0.79333147818 0.82506473731 
0.85679799643 0.88853125556 0.92026451469 0.95199777382 0.98373103294 1.0154642921 1.0471975512 1.0789308103 1.1106640695 
1.1423973286 1.1741305877 1.2058638468 1.237597106 1.2693303651 1.3010636242 1.3327968833 1.3645301425 1.3962634016 
1.4279966607 1.4597299198 1.491463179 1.5231964381 1.5549296972 1.5866629564 1.6183962155 1.6501294746 1.6818627337 
1.7135959929 1.745329252 1.7770625111 1.8087957702 1.8405290294 1.8722622885 1.9039955476 1.9357288068 1.9674620659 
1.999195325 2.0309285841 2.0626618433 2.0943951024 2.1261283615 2.1578616206 2.1895948798 2.2213281389 2.253061398 
2.2847946572 2.3165279163 2.3482611754 2.3799944345 2.4117276937 2.4434609528 2.4751942119 2.506927471 2.5386607302 
2.5703939893 2.6021272484 2.6338605076 2.6655937667 2.6973270258 2.7290602849 2.7607935441 2.7925268032 2.8242600623 
2.8559933214 2.8877265806 2.9194598397 2.9511930988 2.982926358 3.0146596171 3.0463928762 3.0781261353 3.1098593945 
3.1415926536 
_radius 1 100 double
1.5218182408e-16 0.012413422682 0.024890247388 0.037475752883 0.050198413599 0.063060266119 0.076028081978 0.089028063469 0.10194625203 
0.11463524121 0.1269260584 0.13864295445 0.14961853186 0.15970703883 0.16879454336 0.17680577015 0.18370819447 0.18951412018 
0.19428086205 0.19810828636 0.20113256769 0.20351552939 0.20543019196 0.20704455779 0.20850652314 0.2099327049 0.21140292417 
0.21296050727 0.21461698594 0.21635869864 0.21815257983 0.21994921799 0.22168282202 0.22326941249 0.2246056056 0.22557039303 
0.22603147876 0.22585642552 0.22492747577 0.22315778283 0.22050625114 0.21698838806 0.21268132572 0.20772213752 0.20229951023 
0.19663966564 0.19098814315 0.18558961582 0.18066822948 0.17641091243 0.1729556286 0.17038564777 0.16872968009 0.16796642746 
0.1680312567 0.16882289893 0.17020949718 0.17203521983 0.17412951253 0.17631984982 0.17844642054 0.18037557292 0.18200909459 
0.18328791226 0.18419044423 0.18472690592 0.18493119731 0.18485181873 0.18454292485 0.18405637526 0.18343546291 0.18271071715 
0.1818977287 0.18099656575 0.17999230861 0.17885644236 0.17754898896 0.17602116366 0.17421812657 0.17208129624 0.16954984554 
0.16656139389 0.16305237252 0.15895882978 0.15421837511 0.14877351943 0.14257603892 0.13559146152 0.12780259733 0.11921128386 
0.1098380776 0.099720249041 0.088908881221 0.077465978918 0.065462266546 0.052975918259 0.040092014547 0.026902223808 0.013504153813 
2.4813389237e-16 
_area 1 100 double
0 0.00043638182564 0.0017541380562 0.0039764552209 0.0071334880772 0.011250773545 0.016335249274 0.022360991876 0.02925724704 
0.036901523372 0.04512001146 0.053695981611 0.062384434974 0.070929484091 0.07908135846 0.086612706693 0.093336464884 0.09912666501 
0.1039389767 0.10782317879 0.11091905476 0.11343159981 0.11558938392 0.11759833125 0.11960855497 0.12170795852 0.12393829275 
0.12631459856 0.12883653585 0.13149405526 0.13427178189 0.13715078761 0.14010218759 0.14306819025 0.14593514789 0.14851501078 
0.15055067727 0.15174492945 0.1518031718 0.15048591117 0.14765940943 0.14332837018 0.13764470993 0.130893694 0.12346264987 
0.11579699318 0.10834618052 0.10150392935 0.095555211365 0.090651257801 0.086825488708 0.084031596952 0.082159326526 0.081043492419 
0.080514995166 0.080431268621 0.080693028459 0.08117402553 0.081618760839 0.081942336819 0.082080079015 0.081913172801 0.081406495236 
0.080559604164 0.07941971875 0.078083369162 0.076679963619 0.07534471358 0.074192387357 0.073299684955 0.072692442864 0.072333559351 
0.072140689394 0.07202893508 0.071935285258 0.071820860045 0.071652676012 0.071379010193 0.070938620941 0.070279169182 0.06935058742 
0.068089982536 0.066414288725 0.064226535246 0.061434595529 0.057975313048 0.0538351332 0.04906120816 0.043761199669 0.03809322815 
0.032249190574 0.026435355367 0.02085397952 0.015688765771 0.011095523951 0.0071979883171 0.0040879219861 0.0018283700785 0.00045872501139 
8.2433238159e-18 
