# vtk DataFile Version 5.1
vtk output
ASCII
DATASET POLYDATA
POINTS 100 float
0.0755373 0.043752 0.672514 0.0754786 0.0439077 0.672185 0.0753806 0.0442359 0.671003 
0.0752556 0.0447093 0.669001 0.0751225 0.0452866 0.66623 0.0750035 0.0459175 0.662751 
0.0749216 0.0465499 0.658626 0.0748966 0.0471364 0.653911 0.0749418 0.0476406 0.648643 
0.0750605 0.048042 0.642838 0.0752433 0.0483392 0.636488 0.0754672 0.0485499 0.629555 
0.0756944 0.0487088 0.621986 0.0758739 0.0488629 0.61371 0.0759433 0.0490647 0.604655 
0.0758322 0.0493649 0.594756 0.0754667 0.0498037 0.583967 0.074774 0.050404 0.572274 
0.0736875 0.0511654 0.559696 0.072151 0.0520609 0.546296 0.0701233 0.053037 0.532175 
0.0675801 0.0540162 0.517469 0.0645154 0.0549031 0.502341 0.0609415 0.0555928 0.486967 
0.0568865 0.0559811 0.471524 0.0523911 0.0559755 0.45617 0.0475039 0.0555054 0.441037 
0.0422763 0.0545316 0.426213 0.0367573 0.0530523 0.411736 0.0309884 0.0511068 0.39759 
0.0250005 0.0487747 0.383703 0.0188112 0.0461719 0.369956 0.0124249 0.0434429 0.356189 
0.00583509 0.0407505 0.342213 -0.000972577 0.038263 0.32783 -0.00801412 0.036142 0.312842 
-0.0153008 0.0345296 0.29707 -0.0228318 0.0335374 0.280368 -0.0305876 0.0332391 0.262633 
-0.0385245 0.0336652 0.243813 -0.0465703 0.0348022 0.223907 -0.0546238 0.0365955 0.202972 
-0.0625562 0.0389554 0.18111 -0.0702162 0.041766 0.158466 -0.077437 0.0448956 0.135216 
-0.0840469 0.0482082 0.111553 -0.0898805 0.0515737 0.0876779 -0.0947905 0.0548778 0.0637832 
-0.0986593 0.0580286 0.0400437 -0.101408 0.0609609 0.016606 -0.103005 0.0636375 -0.00641837 
-0.103468 0.0660473 -0.0289571 -0.102861 0.0682013 -0.0509784 -0.101297 0.070126 -0.0724887 
-0.0989197 0.0718566 -0.0935277 -0.0959006 0.0734298 -0.114162 -0.0924193 0.0748768 -0.134473 
-0.0886512 0.0762182 -0.154553 -0.0847529 0.0774608 -0.174485 -0.0808499 0.0785962 -0.194344 
-0.0770269 0.0796017 -0.214178 -0.0733232 0.0804436 -0.23401 -0.0697316 0.0810808 -0.253829 
-0.0662025 0.0814704 -0.273594 -0.0626525 0.0815721 -0.293232 -0.0589763 0.0813538 -0.312648 
-0.0550611 0.0807942 -0.33173 -0.050802 0.0798854 -0.350361 -0.0461166 0.0786333 -0.368428 
-0.040958 0.0770563 -0.385834 -0.0353241 0.0751831 -0.402506 -0.0292621 0.0730492 -0.418399 
-0.0228686 0.070693 -0.433504 -0.0162847 0.0681523 -0.447843 -0.0096856 0.0654611 -0.461467 
-0.00326745 0.0626471 -0.474447 0.00276883 0.0597316 -0.486867 0.00823443 0.0567289 -0.498807 
0.0129689 0.0536484 -0.510335 0.0168537 0.0504968 -0.521496 0.019823 0.0472809 -0.532302 
0.0218681 0.0440104 -0.542726 0.0230387 0.0407005 -0.552706 0.0234369 0.0373734 -0.562146 
0.0232081 0.0340587 -0.570925 0.022527 0.030793 -0.57891 0.0215815 0.027618 -0.585972 
0.0205563 0.0245779 -0.591999 0.0196162 0.0217161 -0.596913 0.0188931 0.0190721 -0.600681 
0.0184758 0.0166778 -0.603325 0.0184046 0.0145561 -0.604923 0.0186711 0.0127188 -0.605608 
0.019223 0.0111671 -0.605559 0.0199733 0.00989247 -0.604986 0.0208126 0.00887903 -0.604116 
0.0216234 0.00810667 -0.603168 0.0222953 0.00755444 -0.602342 0.0227383 0.00720401 -0.60179 
0.0228937 0.00704256 -0.601613 
LINES 2 100
OFFSETS vtktypeint64
0 100 
CONNECTIVITY vtktypeint64
0 1 2 3 4 5 6 7 8 
9 10 11 12 13 14 15 16 17 
18 19 20 21 22 23 24 25 26 
27 28 29 30 31 32 33 34 35 
36 37 38 39 40 41 42 43 44 
45 46 47 48 49 50 51 52 53 
54 55 56 57 58 59 60 61 62 
63 64 65 66 67 68 69 70 71 
72 73 74 75 76 77 78 79 80 
81 82 83 84 85 86 87 88 89 
90 91 92 93 94 95 96 97 98 
99 
POINT_DATA 100
FIELD FieldData 3
_theta 1 100 double
0 0.031733259127 0.063466518254 0.095199777382 0.12693303651 0.15866629564 0.19039955476 0.22213281389 0.25386607302 
0.28559933214 0.31733259127 0.3490658504 0.38079910953 0.41253236865 0.44426562778 0.47599888691 0.50773214603 0.53946540516 
0.57119866429 0.60293192342 0.63466518254 0.66639844167 0.6981317008 0.72986495992 0.76159821905 0.79333147818 0.82506473731 
0.85679799643 0.88853125556 0.92026451469 0.95199777382 0.98373103294 1.0154642921 1.0471975512 1.0789308103 1.1106640695 
1.1423973286 1.1741305877 1.2058638468 1.237597106 1.2693303651 1.3010636242 1.3327968833 1.3645301425 1.3962634016 
1.4279966607 1.4597299198 1.491463179 1.5231964381 1.5549296972 1.5866629564 1.6183962155 1.6501294746 1.6818627337 
1.7135959929 1.745329252 1.7770625111 1.8087957702 1.8405290294 1.8722622885 1.9039955476 1.9357288068 1.9674620659 
1.999195325 2.0309285841 2.0626618433 2.0943951024 2.1261283615 2.1578616206 2.1895948798 2.2213281389 2.253061398 
2.2847946572 2.3165279163 2.3482611754 2.3799944345 2.4117276937 2.4434609528 2.4751942119 2.506927471 2.5386607302 
2.5703939893 2.6021272484 2.6338605076 2.6655937667 2.6973270258 2.7290602849 2.7607935441 2.7925268032 2.8242600623 
2.8559933214 2.8877265806 2.9194598397 2.9511930988 2.982926358 3.0146596171 3.0463928762 3.0781261353 3.1098593945 
3.1415926536 
_radius 1 100 double
4.4565853017e-16 0.012530331556 0.025035634408 0.037477547022 0.04980773494 0.061964488311 0.073870957855 0.085435595914 0.0965550705 
0.10711955997 0.11702006118 0.12615717669 0.13445070735 0.14184917966 0.14833817158 0.15394604449 0.15874559886 0.16285044662 
0.16640569761 0.16957385497 0.17251818413 0.17538653551 0.17829815762 0.18133470613 0.18453531171 0.18789488724 0.19136483351 
0.19485557241 0.19824069154 0.20136298687 0.20404330305 0.20609332111 0.20733270924 0.20760939273 0.20682008445 0.20492763332 
0.20197232003 0.19807541234 0.19343452309 0.18831130633 0.18301268192 0.17786709789 0.17319746946 0.16929274196 0.16638091411 
0.16460764489 0.16402502385 0.16459330338 0.16619466168 0.16865455966 0.17176484588 0.17530370291 0.17905022081 0.18279474828 
0.18634820164 0.18955248243 0.19229106713 0.19449680763 0.19615455071 0.19729807467 0.19800229541 0.19837217301 0.19852961799 
0.19859945097 0.19869540801 0.19890737183 0.19929128624 0.19986324442 0.20059872759 0.20143694319 0.2022890999 0.20304874697 
0.20360219661 0.20383743224 0.20365056409 0.20294962153 0.20165610828 0.1997051611 0.19704525034 0.19363811361 0.18945911601 
0.18449772639 0.17875757518 0.17225571522 0.16502106562 0.157092286 0.14851535798 0.13934102766 0.12962218142 0.11941130362 
0.1087583492 0.097709485486 0.086307051351 0.074590721789 0.062599410067 0.05037315251 0.037954295489 0.025387710914 0.012720259206 
7.3987998795e-16 
_area 1 100 double
0 0.00044731014225 0.0017813056735 0.0039782249257 0.0069986193796 0.010787360314 0.015272651241 0.020363387647 0.025946291192 
0.031886035866 0.038030172994 0.044217837557 0.050290491198 0.056104103616 0.061542485626 0.066529534265 0.071035652155 0.075074471848 
0.078691694407 0.081953360696 0.08494031334 0.087750094814 0.090501587245 0.093333384807 0.096385411567 0.09975904803 0.10347094411 
0.10743612117 0.1114956391 0.11545779253 0.11911635233 0.12224367235 0.12458659092 0.1258893976 0.12593692296 0.1245951589 
0.12183746502 0.11775566774 0.11255738361 0.10655033144 0.10011571039 0.093674961488 0.087654882877 0.082453312698 0.078399733553 
0.075698443465 0.074371313314 0.07426278494 0.075111494752 0.076627082244 0.078538851503 0.080612638534 0.0826408493 0.084438350194 
0.085869150758 0.086873804644 0.087468172795 0.087691900042 0.087539853411 0.08699968664 0.086148285504 0.08509711412 0.083968691661 
0.082899554965 0.082012874658 0.081412477565 0.081177524872 0.08135152185 0.081931233186 0.082861551185 0.084059545057 0.08536494305 
0.0865635555 0.08751527991 0.088168389036 0.088502402565 0.088419835722 0.087836846908 0.086693202979 0.084936113481 0.082520028192 
0.079414557424 0.075615732313 0.071154932576 0.066101050835 0.060555008462 0.054639375742 0.048487493158 0.042235515595 0.03601821875 
0.029967199408 0.024209517731 0.018865455371 0.01404493434 0.0098429065881 0.0063347611122 0.0035734162487 0.0015898158813 0.000397513531 
4.6243398166e-18 
