# vtk DataFile Version 5.1
vtk output
ASCII
DATASET POLYDATA
POINTS 100 float
0.13603 0.0461971 0.749149 0.136056 0.0464256 0.749069 0.136261 0.0469502 0.748699 
0.136589 0.047746 0.747996 0.136953 0.0487758 0.746892 0.137247 0.0499929 0.745302 
0.137355 0.051346 0.743126 0.137168 0.052783 0.74026 0.136593 0.0542554 0.736604 
0.135564 0.0557205 0.732069 0.134048 0.0571432 0.726583 0.132049 0.0584957 0.720102 
0.129602 0.0597561 0.712606 0.126766 0.0609064 0.704108 0.123619 0.0619289 0.694652 
0.12024 0.0628045 0.684307 0.116701 0.0635099 0.673166 0.113055 0.0640177 0.661336 
0.109331 0.0642963 0.648934 0.105526 0.0643128 0.636076 0.101606 0.0640363 0.622869 
0.0975145 0.0634425 0.609406 0.0931741 0.0625183 0.595756 0.0885016 0.0612658 0.581965 
0.0834173 0.059706 0.568049 0.077856 0.0578794 0.554001 0.0717763 0.0558458 0.539788 
0.0651662 0.0536814 0.525358 0.0580454 0.0514743 0.510647 0.0504634 0.0493181 0.495584 
0.0424942 0.0473053 0.480097 0.0342275 0.0455207 0.464121 0.0257589 0.0440351 0.447602 
0.0171794 0.0429015 0.430499 0.00856673 0.0421527 0.412783 -2.18776e-05 0.0418009 0.394443 
-0.00855253 0.0418405 0.375477 -0.0170142 0.0422511 0.35589 -0.0254141 0.0430031 0.335695 
-0.0337703 0.0440625 0.314903 -0.0421011 0.0453956 0.293524 -0.0504149 0.0469728 0.271564 
-0.0586992 0.04877 0.249025 -0.066913 0.0507686 0.225904 -0.0749809 0.0529539 0.2022 
-0.0827929 0.0553113 0.177914 -0.0902071 0.0578221 0.153056 -0.0970577 0.0604595 0.127646 
-0.103165 0.0631853 0.101724 -0.108351 0.0659477 0.0753434 -0.11245 0.0686819 0.0485816 
-0.115326 0.0713119 0.0215317 -0.116881 0.073756 -0.00569724 -0.117064 0.0759319 -0.0329863 
-0.115877 0.0777645 -0.0602124 -0.113373 0.0791923 -0.0872555 -0.109648 0.0801734 -0.114006 
-0.10484 0.0806896 -0.140368 -0.0991072 0.0807473 -0.166271 -0.0926244 0.0803762 -0.191664 
-0.085564 0.0796245 -0.216521 -0.078086 0.0785522 -0.24084 -0.0703281 0.0772229 -0.264636 
-0.0623991 0.0756949 -0.287939 -0.0543759 0.074013 -0.310784 -0.0463043 0.0722028 -0.333207 
-0.038203 0.0702671 -0.355237 -0.0300698 0.0681858 -0.37689 -0.0218899 0.0659197 -0.398169 
-0.0136446 0.0634166 -0.419059 -0.00531927 0.0606206 -0.439528 0.00308967 0.0574814 -0.459532 
0.0115698 0.0539644 -0.479015 0.0200902 0.0500586 -0.497918 0.0286016 0.0457822 -0.516184 
0.0370383 0.0411845 -0.533762 0.0453226 0.0363437 -0.550614 0.0533699 0.031361 -0.566715 
0.0610948 0.0263518 -0.582058 0.0684171 0.0214344 -0.596654 0.0752665 0.0167185 -0.610525 
0.0815873 0.0122943 -0.623708 0.0873407 0.00822366 -0.636246 0.0925062 0.00453526 -0.648181 
0.0970812 0.00122314 -0.659556 0.101079 -0.00174992 -0.670403 0.104528 -0.00444534 -0.680742 
0.107466 -0.00693868 -0.690582 0.109938 -0.00930781 -0.699911 0.111994 -0.011621 -0.708706 
0.113685 -0.0139263 -0.716928 0.11506 -0.0162439 -0.724524 0.116165 -0.0185623 -0.731436 
0.117041 -0.0208387 -0.737599 0.117723 -0.0230035 -0.742947 0.118241 -0.0249691 -0.747418 
0.118619 -0.0266409 -0.750956 0.118875 -0.0279287 -0.753513 0.119021 -0.028759 -0.755054 
0.119065 -0.0290842 -0.755558 
LINES 2 100
OFFSETS vtktypeint64
0 100 
CONNECTIVITY vtktypeint64
0 1 2 3 4 5 6 7 8 
9 10 11 12 13 14 15 16 17 
18 19 20 21 22 23 24 25 26 
27 28 29 30 31 32 33 34 35 
36 37 38 39 40 41 42 43 44 
45 46 47 48 49 50 51 52 53 
54 55 56 57 58 59 60 61 62 
63 64 65 66 67 68 69 70 71 
72 73 74 75 76 77 78 79 80 
81 82 83 84 85 86 87 88 89 
90 91 92 93 94 95 96 97 98 
99 
POINT_DATA 100
FIELD FieldData 3
_theta 1 100 double
0 0.031733259127 0.063466518254 0.095199777382 0.12693303651 0.15866629564 0.19039955476 0.22213281389 0.25386607302 
0.28559933214 0.31733259127 0.3490658504 0.38079910953 0.41253236865 0.44426562778 0.47599888691 0.50773214603 0.53946540516 
0.57119866429 0.60293192342 0.63466518254 0.66639844167 0.6981317008 0.72986495992 0.76159821905 0.79333147818 0.82506473731 
0.85679799643 0.88853125556 0.92026451469 0.95199777382 0.98373103294 1.0154642921 1.0471975512 1.0789308103 1.1106640695 
1.1423973286 1.1741305877 1.2058638468 1.237597106 1.2693303651 1.3010636242 1.3327968833 1.3645301425 1.3962634016 
1.4279966607 1.4597299198 1.491463179 1.5231964381 1.5549296972 1.5866629564 1.6183962155 1.6501294746 1.6818627337 
1.7135959929 1.745329252 1.7770625111 1.8087957702 1.8405290294 1.8722622885 1.9039955476 1.9357288068 1.9674620659 
1.999195325 2.0309285841 2.0626618433 2.0943951024 2.1261283615 2.1578616206 2.1895948798 2.2213281389 2.253061398 
2.2847946572 2.3165279163 2.3482611754 2.3799944345 2.4117276937 2.4434609528 2.4751942119 2.506927471 2.5386607302 
2.5703939893 2.6021272484 2.6338605076 2.6655937667 2.6973270258 2.7290602849 2.7607935441 2.7925268032 2.8242600623 
2.8559933214 2.8877265806 2.9194598397 2.9511930988 2.982926358 3.0146596171 3.0463928762 3.0781261353 3.1098593945 
3.1415926536 
_radius 1 100 double
1.9869968259e-16 0.017314349819 0.034373557515 0.050938222409 0.066804174123 0.081814538733 0.095866175959 0.10891037212 0.12094856978 
0.13202443208 0.14221358143 0.15161203789 0.1603239987 0.16844945746 0.17607239622 0.18325076317 0.19000982876 0.19634044243 
0.20220304003 0.20753712388 0.21227472627 0.2163554831 0.21974064256 0.22242364363 0.22443565995 0.22584547149 0.22675396349 
0.22728428308 0.22756910782 0.22773657846 0.22789633406 0.22812698298 0.228466397 0.2289063157 0.22939258235 0.22983166155 
0.23010296664 0.23007529653 0.22962480526 0.22865173185 0.2270936223 0.22493371047 0.22220410912 0.21898421646 0.21539515715 
0.21159116001 0.20774859758 0.20405312205 0.20068517978 0.19780448132 0.19553487967 0.19395221842 0.1930781524 0.19288183492 
0.19328883827 0.19419417002 0.19547541648 0.19700329223 0.19864912609 0.20029051596 0.201816655 0.20313389266 0.20417091711 
0.20488249057 0.20525119436 0.20528742434 0.20502782928 0.20453153695 0.20387327423 0.20313356484 0.20238754037 0.20169436418 
0.20108878015 0.20057544452 0.20012602127 0.19967876652 0.1991404402 0.19839059579 0.19728832389 0.19568124885 0.19341612093 
0.19034995221 0.18636049834 0.18135502271 0.17527658771 0.16810745447 0.15986944166 0.15062128722 0.1404532245 0.12947918987 
0.11782734437 0.10562988174 0.093013313495 0.080090455782 0.066955108698 0.053679922818 0.040317303358 0.026902610509 0.013458586118 
6.61205392e-16 
_area 1 100 double
0 0.00064750054104 0.002553844442 0.0056182917069 0.0096957799075 0.014622369359 0.020237587623 0.026397955015 0.032980486179 
0.0398791967 0.046999614668 0.054255209605 0.061566716067 0.06886303152 0.076082138972 0.083171513019 0.09008801298 0.096796793071 
0.10326827719 0.10947305983 0.11537658884 0.12093657854 0.12610406007 0.13082528185 0.13504309604 0.13870358753 0.14177188526 
0.14425135177 0.14619821165 0.14772587615 0.1489950854 0.15018731296 0.15146021016 0.15289189855 0.1544385562 0.15593394556 
0.15713207671 0.15776871756 0.15761884432 0.15653762145 0.15447981847 0.15149813513 0.14772548527 0.14334889649 0.1385827342 
0.1336466856 0.12875034529 0.12408306109 0.11980656948 0.11604874062 0.11289744044 0.11039355989 0.10852515666 0.10723073322 
0.10641667747 0.10597917914 0.1058187387 0.10584470076 0.10596624341 0.10607886319 0.10606738415 0.10583317068 0.1053194313 
0.1045157363 0.10344133989 0.10212493607 0.1006032863 0.098936080944 0.097214134685 0.095549372793 0.094055657182 0.092834533918 
0.091968476166 0.09151181213 0.091477007014 0.091826138768 0.092464158251 0.093230583156 0.093900519398 0.094201030266 0.093840769926 
0.092548046473 0.090110121842 0.086405335248 0.081421500071 0.075257990971 0.068112890886 0.060259149399 0.052014625631 0.04371054959 
0.035662011415 0.028143172435 0.021369241357 0.015486757665 0.010573077934 0.006644948632 0.0036746626625 0.0016107625021 0.00039909029591 
7.0337502939e-17 
