# vtk DataFile Version 5.1
vtk output
ASCII
DATASET POLYDATA
POINTS 100 float
0.0960153 0.0210964 0.605541 0.0959811 0.0212273 0.605507 0.0959448 0.0214884 0.605268 
0.0958982 0.0218686 0.604787 0.0958274 0.0223516 0.604009 0.0957139 0.0229181 0.602864 
0.0955354 0.0235483 0.601272 0.0952671 0.0242243 0.59915 0.0948826 0.0249318 0.596424 
0.0943553 0.0256609 0.593031 0.0936591 0.0264061 0.588924 0.0927693 0.0271646 0.584079 
0.091663 0.0279339 0.578498 0.0903192 0.0287093 0.572204 0.0887184 0.029481 0.565244 
0.0868427 0.0302315 0.55768 0.0846753 0.030935 0.549589 0.0821997 0.031557 0.541053 
0.0794 0.0320567 0.532153 0.076261 0.0323902 0.522965 0.0727685 0.0325152 0.51355 
0.0689107 0.0323963 0.503957 0.0646793 0.0320107 0.494215 0.0600718 0.0313528 0.484333 
0.0550925 0.0304374 0.474307 0.0497553 0.0293014 0.464114 0.0440838 0.0280022 0.453726 
0.0381125 0.0266152 0.443107 0.0318863 0.0252278 0.432219 0.0254585 0.0239326 0.421033 
0.0188883 0.0228198 0.409524 0.0122373 0.0219696 0.397678 0.00556491 0.0214455 0.385493 
-0.00107621 0.0212901 0.372977 -0.00764447 0.021522 0.360146 -0.0141128 0.0221373 0.347024 
-0.0204706 0.0231114 0.333634 -0.0267243 0.0244053 0.319999 -0.0328949 0.0259714 0.306133 
-0.0390146 0.0277611 0.292044 -0.0451202 0.0297314 0.277726 -0.0512466 0.0318504 0.263163 
-0.0574181 0.0341004 0.248326 -0.063641 0.0364788 0.233176 -0.0698971 0.0389957 0.217666 
-0.076139 0.0416699 0.201747 -0.0822882 0.0445223 0.18537 -0.0882374 0.0475689 0.168491 
-0.0938547 0.0508138 0.151075 -0.098992 0.0542434 0.133098 -0.103496 0.0578223 0.114552 
-0.107219 0.0614927 0.095444 -0.110034 0.0651758 0.0757966 -0.111842 0.0687773 0.0556483 
-0.112584 0.0721947 0.0350511 -0.112244 0.0753258 0.0140688 -0.110853 0.0780788 -0.00722523 
-0.108483 0.0803809 -0.0287509 -0.105239 0.0821858 -0.0504238 -0.101252 0.0834776 -0.0721572 
-0.0966595 0.0842726 -0.0938642 -0.0915947 0.0846166 -0.11546 -0.0861727 0.0845792 -0.136861 
-0.0804783 0.0842461 -0.157992 -0.0745591 0.0837082 -0.178781 -0.0684226 0.0830519 -0.199164 
-0.0620391 0.0823487 -0.219085 -0.0553487 0.0816475 -0.238499 -0.0482732 0.0809693 -0.257373 
-0.0407309 0.0803054 -0.275683 -0.0326516 0.0796192 -0.293419 -0.0239921 0.0788512 -0.310581 
-0.0147483 0.0779272 -0.32718 -0.00496312 0.0767678 -0.343234 0.00527041 0.0752988 -0.358763 
0.0158125 0.0734611 -0.373792 0.0264849 0.0712192 -0.388338 0.0370847 0.0685665 -0.402414 
0.0474008 0.0655289 -0.416021 0.0572322 0.0621634 -0.429144 0.0664054 0.0585549 -0.441755 
0.0747895 0.0548096 -0.45381 0.0823063 0.0510469 -0.465253 0.0889354 0.0473897 -0.476016 
0.0947131 0.0439551 -0.486028 0.0997241 0.0408457 -0.495219 0.10409 0.0381428 -0.503528 
0.107953 0.0359011 -0.510907 0.111455 0.0341462 -0.51733 0.114727 0.032875 -0.522796 
0.117867 0.0320572 -0.527329 0.120931 0.0316394 -0.530982 0.123932 0.0315507 -0.533833 
0.126834 0.0317087 -0.535977 0.129564 0.0320259 -0.537525 0.13202 0.0324157 -0.538591 
0.134089 0.0327988 -0.539284 0.135659 0.0331074 -0.539701 0.136637 0.0332898 -0.539916 
0.136963 0.0333131 -0.539976 
LINES 2 100
OFFSETS vtktypeint64
0 100 
CONNECTIVITY vtktypeint64
0 1 2 3 4 5 6 7 8 
9 10 11 12 13 14 15 16 17 
18 19 20 21 22 23 24 25 26 
27 28 29 30 31 32 33 34 35 
36 37 38 39 40 41 42 43 44 
45 46 47 48 49 50 51 52 53 
54 55 56 57 58 59 60 61 62 
63 64 65 66 67 68 69 70 71 
72 73 74 75 76 77 78 79 80 
81 82 83 84 85 86 87 88 89 
90 91 92 93 94 95 96 97 98 
99 
POINT_DATA 100
FIELD FieldData 3
_theta 1 100 double
0 0.031733259127 0.063466518254 0.095199777382 0.12693303651 0.15866629564 0.19039955476 0.22213281389 0.25386607302 
0.28559933214 0.31733259127 0.3490658504 0.38079910953 0.41253236865 0.44426562778 0.47599888691 0.50773214603 0.53946540516 
0.57119866429 0.60293192342 0.63466518254 0.66639844167 0.6981317008 0.72986495992 0.76159821905 0.79333147818 0.82506473731 
0.85679799643 0.88853125556 0.92026451469 0.95199777382 0.98373103294 1.0154642921 1.0471975512 1.0789308103 1.1106640695 
1.1423973286 1.1741305877 1.2058638468 1.237597106 1.2693303651 1.3010636242 1.3327968833 1.3645301425 1.3962634016 
1.4279966607 1.4597299198 1.491463179 1.5231964381 1.5549296972 1.5866629564 1.6183962155 1.6501294746 1.6818627337 
1.7135959929 1.745329252 1.7770625111 1.8087957702 1.8405290294 1.8722622885 1.9039955476 1.9357288068 1.9674620659 
1.999195325 2.0309285841 2.0626618433 2.0943951024 2.1261283615 2.1578616206 2.1895948798 2.2213281389 2.253061398 
2.2847946572 2.3165279163 2.3482611754 2.3799944345 2.4117276937 2.4434609528 2.4751942119 2.506927471 2.5386607302 
2.5703939893 2.6021272484 2.6338605076 2.6655937667 2.6973270258 2.7290602849 2.7607935441 2.7925268032 2.8242600623 
2.8559933214 2.8877265806 2.9194598397 2.9511930988 2.982926358 3.0146596171 3.0463928762 3.0781261353 3.1098593945 
3.1415926536 
_radius 1 100 double
7.903716939e-16 0.013808975703 0.027577921287 0.041259630895 0.054801483301 0.068144491033 0.081224019517 0.093972317328 0.10632266643 
0.1182146168 0.12959948653 0.14044515759 0.15073922557 0.16048977315 0.16972339496 0.17848054109 0.18680869994 0.19475434025 
0.20235481059 0.20963148664 0.21658531958 0.22319557971 0.22942207173 0.23521051806 0.24050026404 0.24523304068 0.24936130591 
0.25285474031 0.25570382228 0.25792000213 0.25953269873 0.26058396765 0.2611220536 0.26119504053 0.26084548146 0.26010639928 
0.2589986502 0.25752951651 0.25569254693 0.25346891833 0.25083073636 0.24774658578 0.24418926317 0.2401450528 0.23562328995 
0.23066448457 0.22534513023 0.2197776097 0.21410434912 0.20848649248 0.20308868146 0.19806270225 0.19353338243 0.18958985046 
0.18628398254 0.18363567698 0.18164207233 0.18028611665 0.17954019339 0.17936297951 0.17969137361 0.18043285514 0.18146525553 
0.18264822699 0.18384383708 0.18493813012 0.18585600774 0.18656640156 0.18707871727 0.18743313022 0.18768730781 0.18790165291 
0.18812485207 0.1883815237 0.18866377455 0.18892793909 0.18909655262 0.1890643131 0.18870620588 0.18788625922 0.18646611732 
0.18431323213 0.18130870603 0.17735464751 0.17238051806 0.16634762396 0.15925087472 0.15111727423 0.1420012273 0.1319774068 
0.12113239816 0.10955650813 0.097337041303 0.084554131048 0.071279890112 0.057581090303 0.043524645436 0.029184000451 0.014643731245 
4.4158972658e-16 
_area 1 100 double
0 0.00047499256283 0.0018996126535 0.0042704341582 0.0075748633959 0.011783715335 0.01684524223 0.022682648936 0.029195829687 
0.036266884317 0.043768357072 0.051573114953 0.059565019869 0.067649590829 0.075763378816 0.083879857751 0.09200886693 0.10018698352 
0.10845837636 0.11684937963 0.12534362282 0.13386601406 0.14228215026 0.15041550054 0.1580796364 0.16511806546 0.17144000146 
0.17703707578 0.18196756557 0.1863093956 0.19010816154 0.193352538 0.1959833615 0.19792039165 0.19909170223 0.19945636388 
0.19901308153 0.19779157288 0.19583136676 0.19315956181 0.18977923731 0.18567296378 0.18081775209 0.17520494698 0.16885990499 
0.16185787205 0.1543332815 0.14648051195 0.13854468536 0.13080077335 0.12351945278 0.11692206414 0.11113642878 0.10617509378 
0.10195500053 0.098354246288 0.095275127245 0.092682574405 0.090604938527 0.089094825796 0.088163299518 0.087732110432 0.087638360342 
0.087673026851 0.087624717692 0.087315374823 0.08662655971 0.08552176626 0.084065426351 0.082428706523 0.080866590296 0.079646463636 
0.07894227657 0.078788873609 0.079129752635 0.07987031146 0.080894352468 0.08205808161 0.08317874405 0.084030596318 0.084357185161 
0.083901193863 0.082443551263 0.079838707954 0.076035975957 0.071083907226 0.065120591828 0.058355263406 0.05104623309 0.043478443142 
0.035942176952 0.028713369334 0.022035706486 0.016105231455 0.011059167185 0.0069714883205 0.0038576597549 0.0016894662757 0.00041807047578 
5.8900074629e-17 
