# vtk DataFile Version 5.1
vtk output
ASCII
DATASET POLYDATA
POINTS 100 float
0.118664 0.0410368 0.655574 0.118832 0.0412519 0.655363 0.119384 0.0417324 0.65459 
0.120251 0.0424757 0.653283 0.121332 0.0434749 0.651484 0.122497 0.0447174 0.649242 
0.123604 0.0461818 0.646599 0.124514 0.0478353 0.643581 0.1251 0.0496326 0.640192 
0.125262 0.0515147 0.636408 0.124934 0.0534096 0.632176 0.124085 0.0552352 0.62742 
0.12272 0.0569025 0.62205 0.120876 0.058321 0.61597 0.118609 0.0594048 0.609096 
0.115986 0.0600785 0.601366 0.113075 0.0602834 0.592749 0.109931 0.0599823 0.583257 
0.106591 0.059163 0.572939 0.103065 0.0578402 0.561885 0.0993401 0.0560542 0.550211 
0.0953802 0.0538691 0.538049 0.0911322 0.0513679 0.525535 0.086535 0.0486467 0.512788 
0.0815298 0.0458078 0.499901 0.0760697 0.0429532 0.486932 0.0701274 0.0401778 0.473897 
0.0637014 0.0375647 0.460772 0.0568177 0.0351808 0.4475 0.0495285 0.0330755 0.434004 
0.0419067 0.0312807 0.420196 0.0340386 0.0298125 0.405995 0.0260142 0.0286743 0.39134 
0.0179175 0.0278613 0.376198 0.00981804 0.0273641 0.360572 0.00176458 0.0271733 0.344495 
-0.0062176 0.0272821 0.328029 -0.0141257 0.0276885 0.311252 -0.0219745 0.0283954 0.294242 
-0.0297882 0.0294091 0.277064 -0.0375899 0.0307374 0.259758 -0.0453905 0.032386 0.242324 
-0.0531777 0.0343544 0.22472 -0.0609082 0.0366327 0.206864 -0.0685022 0.0391983 0.188639 
-0.0758437 0.0420147 0.169907 -0.0827845 0.045031 0.150529 -0.0891536 0.0481838 0.130377 
-0.09477 0.0513998 0.109359 -0.099458 0.0546009 0.0874323 -0.103064 0.0577086 0.0646105 
-0.10547 0.0606502 0.0409697 -0.106609 0.0633634 0.0166436 -0.106469 0.0658005 -0.00818742 
-0.1051 0.0679306 -0.0333116 -0.102605 0.069741 -0.058506 -0.099138 0.0712351 -0.083556 
-0.0948841 0.07243 -0.108275 -0.0900455 0.073352 -0.132517 -0.0848223 0.074031 -0.156189 
-0.0793938 0.0744951 -0.179249 -0.0739037 0.0747658 -0.201704 -0.0684478 0.0748534 -0.2236 
-0.0630693 0.0747552 -0.245006 -0.057758 0.0744551 -0.265997 -0.0524576 0.0739252 -0.286643 
-0.0470777 0.0731298 -0.30699 -0.0415088 0.0720302 -0.327054 -0.0356416 0.0705914 -0.346821 
-0.0293842 0.0687883 -0.366246 -0.022679 0.0666112 -0.385261 -0.0155144 0.0640709 -0.40379 
-0.00793203 0.0612006 -0.421757 -2.72649e-05 0.0580565 -0.439105 0.00805657 0.0547155 -0.455796 
0.0161397 0.0512705 -0.471824 0.024022 0.0478241 -0.487209 0.0315021 0.0444805 -0.50199 
0.0383967 0.0413376 -0.516218 0.0445589 0.0384786 -0.529935 0.0498932 0.035966 -0.543166 
0.0543643 0.0338363 -0.5559 0.058001 0.032098 -0.568084 0.0608921 0.030732 -0.579617 
0.0631773 0.0296948 -0.590359 0.0650315 0.028924 -0.600141 0.0666461 0.0283453 -0.60878 
0.0682085 0.0278808 -0.616106 0.0698823 0.0274574 -0.621986 0.0717892 0.0270138 -0.626341 
0.0739973 0.0265066 -0.629172 0.0765131 0.0259142 -0.630563 0.079282 0.025237 -0.630688 
0.0821944 0.0244966 -0.629797 0.0850985 0.0237314 -0.628201 0.0878166 0.0229911 -0.626245 
0.0901655 0.0223295 -0.624272 0.0919764 0.0217971 -0.622595 0.0931135 0.0214347 -0.621466 
0.0934891 0.021268 -0.621044 
LINES 2 100
OFFSETS vtktypeint64
0 100 
CONNECTIVITY vtktypeint64
0 1 2 3 4 5 6 7 8 
9 10 11 12 13 14 15 16 17 
18 19 20 21 22 23 24 25 26 
27 28 29 30 31 32 33 34 35 
36 37 38 39 40 41 42 43 44 
45 46 47 48 49 50 51 52 53 
54 55 56 57 58 59 60 61 62 
63 64 65 66 67 68 69 70 71 
72 73 74 75 76 77 78 79 80 
81 82 83 84 85 86 87 88 89 
90 91 92 93 94 95 96 97 98 
99 
POINT_DATA 100
FIELD FieldData 3
_theta 1 100 double
0 0.031733259127 0.063466518254 0.095199777382 0.12693303651 0.15866629564 0.19039955476 0.22213281389 0.25386607302 
0.28559933214 0.31733259127 0.3490658504 0.38079910953 0.41253236865 0.44426562778 0.47599888691 0.50773214603 0.53946540516 
0.57119866429 0.60293192342 0.63466518254 0.66639844167 0.6981317008 0.72986495992 0.76159821905 0.79333147818 0.82506473731 
0.85679799643 0.88853125556 0.92026451469 0.95199777382 0.98373103294 1.0154642921 1.0471975512 1.0789308103 1.1106640695 
1.1423973286 1.1741305877 1.2058638468 1.237597106 1.2693303651 1.3010636242 1.3327968833 1.3645301425 1.3962634016 
1.4279966607 1.4597299198 1.491463179 1.5231964381 1.5549296972 1.5866629564 1.6183962155 1.6501294746 1.6818627337 
1.7135959929 1.745329252 1.7770625111 1.8087957702 1.8405290294 1.8722622885 1.9039955476 1.9357288068 1.9674620659 
1.999195325 2.0309285841 2.0626618433 2.0943951024 2.1261283615 2.1578616206 2.1895948798 2.2213281389 2.253061398 
2.2847946572 2.3165279163 2.3482611754 2.3799944345 2.4117276937 2.4434609528 2.4751942119 2.506927471 2.5386607302 
2.5703939893 2.6021272484 2.6338605076 2.6655937667 2.6973270258 2.7290602849 2.7607935441 2.7925268032 2.8242600623 
2.8559933214 2.8877265806 2.9194598397 2.9511930988 2.982926358 3.0146596171 3.0463928762 3.0781261353 3.1098593945 
3.1415926536 
_radius 1 100 double
5.6011961931e-16 0.014937408176 0.02977082855 0.044398578587 0.058731829779 0.072697766985 0.086239603837 0.099313793878 0.11188545777 
0.12392341801 0.13539619447 0.14626988978 0.15650823549 0.1660744216 0.17493393657 0.183057623 0.1904244457 0.19702387713 
0.20285810749 0.20794433921 0.21231719832 0.21603087705 0.21916018895 0.22179948514 0.22405851696 0.22605489499 0.22790368419 
0.22970561072 0.23153594579 0.23343607112 0.23540902811 0.23741935795 0.23939668935 0.24124209302 0.24283621424 0.24404846254 
0.24474686426 0.2448083737 0.24412939718 0.24263605232 0.24029340267 0.23711272146 0.23315581639 0.22853557664 0.22341213418 
0.21798434337 0.21247670912 0.20712250943 0.2021446991 0.19773710882 0.19404904729 0.19117608581 0.18915822285 0.18798420364 
0.18759876352 0.18790944092 0.18879178883 0.19009479512 0.19164954582 0.19328252939 0.19483202321 0.19616407978 0.19718467631 
0.19784599027 0.19814642604 0.19812522797 0.19785310556 0.19742042954 0.19692445494 0.19645683967 0.1960925141 0.19588072617 
0.19583883668 0.19594918229 0.19615905595 0.19638354885 0.1965106628 0.19640786279 0.19592927639 0.19492309951 0.19323922373 
0.19073733275 0.1872955347 0.18281906805 0.17724799738 0.17056240865 0.16278365189 0.15397073745 0.14421196703 0.13361301913 
0.12228368675 0.1103259694 0.09782604656 0.08485178402 0.071456038681 0.057684490553 0.04358546983 0.029218651479 0.014659803975 
1.0730767051e-15 
_area 1 100 double
0 0.0005902841717 0.0023471060086 0.0052295712671 0.0091730298893 0.01409291717 0.019888123121 0.026443338713 0.033630783805 
0.041312398676 0.049343554075 0.057578594593 0.065877474711 0.074111935667 0.082169526718 0.089954407585 0.097385074233 0.10439051773 
0.11090738289 0.11688095736 0.1222718713 0.12706822436 0.13130004215 0.13505013313 0.1384538854 0.14168263891 0.14491132006 
0.14827843589 0.15185222473 0.15561678331 0.15948291546 0.16331535511 0.16696211015 0.17027527716 0.17311912286 0.17536644253 
0.17688851954 0.17754727474 0.17719803652 0.17570627202 0.17297432017 0.16896947576 0.16374478256 0.15744710305 0.15031093057 
0.14263957967 0.13477763954 0.12707993998 0.11988143358 0.1134650252 0.10801287936 0.10355521245 0.10000011162 0.097245688799 
0.095245270073 0.093983271598 0.093418431857 0.093443428649 0.093878968535 0.094502792688 0.095097462394 0.095494455037 0.095600246276 
0.095399667979 0.094935447828 0.094269945554 0.093451726936 0.092514932248 0.091505851792 0.090505490157 0.089635922763 0.089052934163 
0.088921913103 0.089373556857 0.090454405955 0.092099632139 0.094134366955 0.096291693962 0.098242210153 0.099634114716 0.10013742738 
0.099482731061 0.097487418255 0.094067538443 0.089237571541 0.083102344613 0.075844954057 0.067712846586 0.059002330576 0.050040717964 
0.041165437186 0.032700569766 0.024932715673 0.018089248872 0.012322561956 0.0077038353559 0.004229230342 0.0018398124974 0.00045321437508 
2.5407259077e-17 
