# vtk DataFile Version 5.1
vtk output
ASCII
DATASET POLYDATA
POINTS 100 float
0.124479 0.0292601 0.676203 0.124407 0.0295245 0.676107 0.124296 0.030192 0.675628 
0.124135 0.0312206 0.674745 0.123906 0.0325439 0.673421 0.12359 0.0340778 0.671607 
0.123168 0.0357278 0.66924 0.122628 0.0373982 0.666244 0.121966 0.0389998 0.662533 
0.121184 0.0404573 0.65802 0.120292 0.0417138 0.652617 0.119299 0.0427343 0.646248 
0.118215 0.043505 0.638856 0.11704 0.0440313 0.630411 0.115759 0.0443334 0.62092 
0.114337 0.0444405 0.610424 0.112724 0.0443848 0.599008 0.110844 0.0441958 0.58679 
0.108612 0.0438955 0.573919 0.105932 0.0434957 0.560559 0.10271 0.0429977 0.54688 
0.0988625 0.0423939 0.53304 0.0943295 0.0416713 0.519174 0.0890786 0.0408164 0.50538 
0.0831117 0.0398215 0.491712 0.076466 0.0386898 0.478175 0.0692102 0.0374399 0.464732 
0.061438 0.0361088 0.451304 0.0532572 0.0347522 0.437787 0.0447778 0.0334424 0.424066 
0.0360999 0.0322637 0.410024 0.0273037 0.0313059 0.395562 0.0184414 0.0306563 0.380609 
0.00953543 0.0303912 0.365125 0.000580631 0.0305682 0.349107 -0.00844854 0.0312197 0.332582 
-0.0175863 0.0323491 0.315601 -0.0268616 0.0339291 0.298225 -0.0362832 0.035904 0.280514 
-0.0458267 0.0381944 0.262512 -0.0554248 0.0407049 0.244239 -0.0649627 0.0433328 0.225683 
-0.0742804 0.0459784 0.206801 -0.0831807 0.0485546 0.187523 -0.0914433 0.050995 0.16776 
-0.0988436 0.0532599 0.147423 -0.105173 0.055339 0.12643 -0.110258 0.0572512 0.10473 
-0.113981 0.0590406 0.0823107 -0.116289 0.0607698 0.059207 -0.117199 0.062511 0.0355045 
-0.116799 0.064336 0.0113354 -0.115234 0.0663056 -0.0131325 -0.112692 0.0684605 -0.0377101 
-0.109383 0.0708143 -0.0622054 -0.105517 0.0733486 -0.0864425 -0.101279 0.0760123 -0.110278 
-0.0968148 0.0787234 -0.133613 -0.092216 0.0813751 -0.156402 -0.087516 0.0838433 -0.178651 
-0.0826927 0.0859965 -0.20041 -0.077678 0.0877066 -0.221759 -0.0723745 0.0888583 -0.242796 
-0.0666744 0.0893589 -0.26361 -0.0604804 0.0891441 -0.28427 -0.0537241 0.088182 -0.304807 
-0.0463803 0.0864743 -0.325203 -0.0384752 0.0840538 -0.345396 -0.0300871 0.0809795 -0.36528 
-0.0213403 0.0773307 -0.384718 -0.0123928 0.0731982 -0.403562 -0.00341925 0.0686775 -0.421671 
0.00540737 0.0638602 -0.438928 0.0139333 0.0588293 -0.455262 0.0220385 0.0536539 -0.470654 
0.0296455 0.0483885 -0.485142 0.036722 0.0430727 -0.498814 0.043276 0.0377334 -0.511795 
0.049346 0.0323891 -0.524232 0.0549858 0.0270539 -0.536266 0.060248 0.0217427 -0.548011 
0.065168 0.0164749 -0.559532 0.0697511 0.0112776 -0.570834 0.0739652 0.0061868 -0.58185 
0.0777403 0.00124752 -0.592451 0.0809755 -0.0034887 -0.60245 0.083552 -0.00796691 -0.611632 
0.0853518 -0.0121332 -0.619775 0.0862777 -0.0159395 -0.626682 0.0862743 -0.0193477 -0.632209 
0.0853442 -0.0223338 -0.636288 0.083559 -0.0248894 -0.638939 0.0810619 -0.0270228 -0.640282 
0.0780619 -0.0287573 -0.640522 0.0748184 -0.0301285 -0.639934 0.0716201 -0.0311797 -0.638838 
0.0687575 -0.0319568 -0.637561 0.0664949 -0.0325027 -0.636406 0.0650436 -0.0328521 -0.635617 
0.0645399 -0.0330275 -0.63535 
LINES 2 100
OFFSETS vtktypeint64
0 100 
CONNECTIVITY vtktypeint64
0 1 2 3 4 5 6 7 8 
9 10 11 12 13 14 15 16 17 
18 19 20 21 22 23 24 25 26 
27 28 29 30 31 32 33 34 35 
36 37 38 39 40 41 42 43 44 
45 46 47 48 49 50 51 52 53 
54 55 56 57 58 59 60 61 62 
63 64 65 66 67 68 69 70 71 
72 73 74 75 76 77 78 79 80 
81 82 83 84 85 86 87 88 89 
90 91 92 93 94 95 96 97 98 
99 
POINT_DATA 100
FIELD FieldData 3
_theta 1 100 double
0 0.031733259127 0.063466518254 0.095199777382 0.12693303651 0.15866629564 0.19039955476 0.22213281389 0.25386607302 
0.28559933214 0.31733259127 0.3490658504 0.38079910953 0.41253236865 0.44426562778 0.47599888691 0.50773214603 0.53946540516 
0.57119866429 0.60293192342 0.63466518254 0.66639844167 0.6981317008 0.72986495992 0.76159821905 0.79333147818 0.82506473731 
0.85679799643 0.88853125556 0.92026451469 0.95199777382 0.98373103294 1.0154642921 1.0471975512 1.0789308103 1.1106640695 
1.1423973286 1.1741305877 1.2058638468 1.237597106 1.2693303651 1.3010636242 1.3327968833 1.3645301425 1.3962634016 
1.4279966607 1.4597299198 1.491463179 1.5231964381 1.5549296972 1.5866629564 1.6183962155 1.6501294746 1.6818627337 
1.7135959929 1.745329252 1.7770625111 1.8087957702 1.8405290294 1.8722622885 1.9039955476 1.9357288068 1.9674620659 
1.999195325 2.0309285841 2.0626618433 2.0943951024 2.1261283615 2.1578616206 2.1895948798 2.2213281389 2.253061398 
2.2847946572 2.3165279163 2.3482611754 2.3799944345 2.4117276937 2.4434609528 2.4751942119 2.506927471 2.5386607302 
2.5703939893 2.6021272484 2.6338605076 2.6655937667 2.6973270258 2.7290602849 2.7607935441 2.7925268032 2.8242600623 
2.8559933214 2.8877265806 2.9194598397 2.9511930988 2.982926358 3.0146596171 3.0463928762 3.0781261353 3.1098593945 
3.1415926536 
_radius 1 100 double
5.5511151231e-17 0.015344332009 0.030514909119 0.045348175074 0.059702141801 0.07346312154 0.0865484079 0.098904940323 0.11050483964 
0.1213393765 0.13141322956 0.14074064267 0.14934426976 0.15725631428 0.16452048582 0.17119281084 0.17733970555 0.18303284475 
0.18834184174 0.19332697509 0.19803445914 0.20249571291 0.20673024478 0.2107502455 0.21456455773 0.21818035452 0.2216020755 
0.22482832859 0.22784813786 0.23063796439 0.23316046699 0.2353652694 0.23719135557 0.23857037611 0.23943025114 0.23969893199 
0.23930875478 0.23820211562 0.236338983 0.23370607032 0.23032657912 0.22626861418 0.22164991873 0.21663665477 0.21143470778 
0.20627351261 0.20138448889 0.19697815017 0.19322481242 0.19024292851 0.18809661379 0.18680076678 0.18632954721 0.18662323351 
0.18759047123 0.1891068894 0.19101465635 0.19312828215 0.19524914509 0.19718665333 0.19878068769 0.19991975813 0.20055143688 
0.20068422886 0.20038186158 0.19975183588 0.1989302757 0.19806495173 0.19729800725 0.19674953236 0.196502913 0.19659299896 
0.19699851515 0.19764034944 0.19838685138 0.19906595244 0.19948229684 0.19943645813 0.19874316888 0.19724618572 0.19482847236 
0.19141734004 0.18698479831 0.18154365812 0.17514006614 0.1678433115 0.15973400612 0.15089205531 0.14138607967 0.13126597167 
0.12055994752 0.10927675609 0.097412734469 0.084962383754 0.071930368475 0.058342544008 0.044253850293 0.029751565619 0.014953295688 
5.4178425324e-16 
_area 1 100 double
0 0.00057882298664 0.0022867246111 0.0050429449194 0.00872776523 0.013200053624 0.018314512414 0.023934920674 0.029941162305 
0.036229312132 0.04270569753 0.049278037856 0.055848951978 0.062317256214 0.068588848142 0.074593620951 0.080302001583 0.085735496401 
0.090967677747 0.09611241642 0.10129489993 0.10660975184 0.11209378638 0.11772993264 0.12346015844 0.12919363804 0.13481823217 
0.14021964129 0.14530202623 0.15000059479 0.15427937084 0.15811272513 0.16145643208 0.16422118838 0.16626321551 0.16739906118 
0.16744005244 0.16623464483 0.16370640584 0.15987852452 0.15488010634 0.14893417701 0.14233138242 0.13539584453 0.12845029761 
0.1217869469 0.11564816003 0.11021596178 0.1056033966 0.1018446448 0.098899846566 0.096687810101 0.095119897323 0.094109257428 
0.093566651652 0.093399998752 0.093522396587 0.093861889937 0.094353193362 0.094900129061 0.095342615079 0.095479790733 0.095139055649 
0.094234356088 0.092788401171 0.090924811081 0.088840736966 0.086773524904 0.084981288052 0.08374581117 0.083294830558 0.083663049162 
0.084775958547 0.086494558622 0.088607172086 0.090856508432 0.092975424188 0.094705865243 0.095808338125 0.09607649493 0.095355873892 
0.093557046207 0.090658910127 0.086703288261 0.081783460359 0.076029501401 0.069593569486 0.062638347773 0.055330859152 0.047841543673 
0.040345928628 0.033025210166 0.026063241584 0.019639726787 0.013921331594 0.0090531987802 0.0051530290754 0.0023088138514 0.00057991312419 
2.2158263631e-17 
