# vtk DataFile Version 5.1
vtk output
ASCII
DATASET POLYDATA
POINTS 100 float
0.128538 0.039286 0.633505 0.128692 0.0393625 0.633411 0.12922 0.0394766 0.632994 
0.130035 0.0396422 0.632256 0.13101 0.0398798 0.6312 0.131985 0.0402135 0.629822 
0.132793 0.0406657 0.628112 0.133277 0.0412531 0.62605 0.133305 0.0419825 0.623601 
0.132792 0.0428485 0.620717 0.131701 0.0438319 0.617338 0.130048 0.0449009 0.613391 
0.127895 0.0460131 0.608803 0.125339 0.04712 0.603499 0.1225 0.0481709 0.597418 
0.119495 0.0491186 0.590514 0.116428 0.0499234 0.582765 0.11337 0.0505566 0.574178 
0.110352 0.0510026 0.564792 0.107355 0.0512587 0.554674 0.104319 0.0513339 0.54392 
0.101146 0.0512457 0.532646 0.0977129 0.051016 0.520978 0.0938911 0.0506672 0.509047 
0.0895601 0.050218 0.496975 0.0846247 0.049681 0.484868 0.0790262 0.049061 0.472808 
0.0727505 0.0483556 0.460845 0.0658282 0.0475575 0.449 0.0583312 0.0466578 0.43726 
0.050362 0.0456511 0.425585 0.0420411 0.0445397 0.413911 0.0334921 0.0433384 0.402159 
0.0248271 0.0420775 0.390239 0.0161349 0.0408041 0.378062 0.00747354 0.0395811 0.365542 
-0.00113227 0.0384845 0.352602 -0.00968822 0.037598 0.339179 -0.0182223 0.0370062 0.325221 
-0.0267731 0.0367879 0.310691 -0.035376 0.0370079 0.295559 -0.044049 0.037711 0.279805 
-0.0527813 0.0389171 0.263414 -0.061525 0.0406184 0.246371 -0.0701913 0.0427795 0.228665 
-0.0786537 0.0453397 0.210285 -0.0867547 0.0482177 0.191225 -0.0943183 0.0513181 0.171483 
-0.101165 0.0545384 0.151067 -0.107126 0.057777 0.129997 -0.112062 0.0609396 0.108309 
-0.115871 0.0639446 0.0860572 -0.118501 0.0667273 0.0633154 -0.119947 0.0692411 0.0401751 
-0.120255 0.0714575 0.0167434 -0.119512 0.0733637 -0.00686134 -0.117834 0.0749599 -0.0305148 
-0.115354 0.0762552 -0.0540932 -0.112209 0.0772635 -0.0774796 -0.108528 0.0780004 -0.10057 
-0.104418 0.0784806 -0.123277 -0.0999645 0.0787167 -0.145536 -0.0952224 0.0787183 -0.167301 
-0.0902228 0.0784935 -0.188551 -0.0849765 0.0780491 -0.209283 -0.0794818 0.0773925 -0.229508 
-0.0737336 0.0765326 -0.249252 -0.0677309 0.0754802 -0.268541 -0.0614843 0.0742476 -0.287407 
-0.0550199 0.0728479 -0.305876 -0.0483803 0.0712928 -0.323965 -0.0416234 0.0695912 -0.341684 
-0.0348178 0.0677468 -0.359028 -0.0280373 0.0657575 -0.375982 -0.0213539 0.0636148 -0.392521 
-0.0148326 0.061305 -0.408607 -0.00852586 0.0588119 -0.424197 -0.0024718 0.0561198 -0.439238 
0.00330639 0.0532187 -0.453677 0.00879812 0.0501086 -0.467458 0.0140015 0.0468036 -0.480522 
0.0189183 0.0433352 -0.492816 0.023549 0.0397539 -0.504289 0.0278883 0.0361281 -0.514895 
0.0319228 0.0325409 -0.524597 0.0356305 0.0290853 -0.533369 0.0389825 0.0258562 -0.541194 
0.0419473 0.0229431 -0.548072 0.0444959 0.020421 -0.554018 0.0466078 0.0183433 -0.559065 
0.0482768 0.0167356 -0.56326 0.0495151 0.0155933 -0.566667 0.0503553 0.0148805 -0.569365 
0.0508497 0.014534 -0.57144 0.0510668 0.0144691 -0.572985 0.0510854 0.0145887 -0.574092 
0.0509869 0.014793 -0.574847 0.0508465 0.0149906 -0.575325 0.0507253 0.0151081 -0.575581 
0.0506629 0.0150986 -0.575654 
LINES 2 100
OFFSETS vtktypeint64
0 100 
CONNECTIVITY vtktypeint64
0 1 2 3 4 5 6 7 8 
9 10 11 12 13 14 15 16 17 
18 19 20 21 22 23 24 25 26 
27 28 29 30 31 32 33 34 35 
36 37 38 39 40 41 42 43 44 
45 46 47 48 49 50 51 52 53 
54 55 56 57 58 59 60 61 62 
63 64 65 66 67 68 69 70 71 
72 73 74 75 76 77 78 79 80 
81 82 83 84 85 86 87 88 89 
90 91 92 93 94 95 96 97 98 
99 
POINT_DATA 100
FIELD FieldData 3
_theta 1 100 double
0 0.031733259127 0.063466518254 0.095199777382 0.12693303651 0.15866629564 0.19039955476 0.22213281389 0.25386607302 
0.28559933214 0.31733259127 0.3490658504 0.38079910953 0.41253236865 0.44426562778 0.47599888691 0.50773214603 0.53946540516 
0.57119866429 0.60293192342 0.63466518254 0.66639844167 0.6981317008 0.72986495992 0.76159821905 0.79333147818 0.82506473731 
0.85679799643 0.88853125556 0.92026451469 0.95199777382 0.98373103294 1.0154642921 1.0471975512 1.0789308103 1.1106640695 
1.1423973286 1.1741305877 1.2058638468 1.237597106 1.2693303651 1.3010636242 1.3327968833 1.3645301425 1.3962634016 
1.4279966607 1.4597299198 1.491463179 1.5231964381 1.5549296972 1.5866629564 1.6183962155 1.6501294746 1.6818627337 
1.7135959929 1.745329252 1.7770625111 1.8087957702 1.8405290294 1.8722622885 1.9039955476 1.9357288068 1.9674620659 
1.999195325 2.0309285841 2.0626618433 2.0943951024 2.1261283615 2.1578616206 2.1895948798 2.2213281389 2.253061398 
2.2847946572 2.3165279163 2.3482611754 2.3799944345 2.4117276937 2.4434609528 2.4751942119 2.506927471 2.5386607302 
2.5703939893 2.6021272484 2.6338605076 2.6655937667 2.6973270258 2.7290602849 2.7607935441 2.7925268032 2.8242600623 
2.8559933214 2.8877265806 2.9194598397 2.9511930988 2.982926358 3.0146596171 3.0463928762 3.0781261353 3.1098593945 
3.1415926536 
_radius 1 100 double
7.1359363597e-16 0.013106955051 0.026185393829 0.039202798361 0.052121659205 0.064897661445 0.07747851865 0.089803534521 0.10180394745 
0.11340410755 0.12452353318 0.1350799117 0.14499315674 0.15419061358 0.16261322985 0.17022195248 0.17700308423 0.18297124073 
0.18816900483 0.19266314367 0.19653800494 0.19988722529 0.20280508571 0.20537875246 0.20768232069 0.20977314096 0.21169046996 
0.21345612599 0.21507657796 0.21654577068 0.21784801909 0.21896049069 0.21985506313 0.22049957538 0.22085862964 0.22089419186 
0.2205663433 0.21983464892 0.21866064646 0.2170118186 0.21486703855 0.21222292914 0.20910000901 0.20554713868 0.20164282325 
0.19749245875 0.19322154041 0.18896591366 0.18486095899 0.18103181524 0.17758626388 0.17461095791 0.17217068468 0.17030954975 
0.16905239338 0.16840452553 0.16834845604 0.1688381219 0.16979363832 0.1711009598 0.17261928439 0.17419529102 0.17568030355 
0.17694611115 0.17789668915 0.1784747995 0.17866358976 0.17848388974 0.17798817909 0.17725231842 0.17636612722 0.17542372024 
0.17451416087 0.17371254581 0.17307133665 0.17261188558 0.17231675972 0.17212434596 0.17192768535 0.17157902535 0.17090026097 
0.1696979068 0.16778021405 0.16497383247 0.16113787732 0.15617404513 0.15003220683 0.14271151533 0.13425746249 0.12475555631 
0.11432242689 0.10309525542 0.091220481937 0.078842795123 0.066095422386 0.05309267492 0.039925510851 0.026660551546 0.013342565818 
3.5577067766e-16 
_area 1 100 double
0 0.00041296280534 0.0016478148059 0.0036927932928 0.0065292271979 0.010132229695 0.014470506278 0.019504679875 0.025183952561 
0.031441320956 0.038187784068 0.045306459662 0.052648944537 0.060037993297 0.06728009458 0.074187387093 0.080603352396 0.086424814408 
0.091614634951 0.096203013393 0.10027833432 0.10397002578 0.10742604569 0.11078752432 0.11416384132 0.1176127142 0.1211302345 
0.12465424176 0.12808087976 0.13128923068 0.1341652998 0.13661772702 0.13858312436 0.14002459168 0.14092839564 0.14130044169 
0.14116004689 0.14052820611 0.13941108572 0.13778412822 0.135588139 0.13275007186 0.12922432 0.1250292823 0.12025880491 
0.11506891963 0.10965135151 0.10420530881 0.098915429033 0.093938716098 0.089397949485 0.085377022162 0.081918079837 0.079025729718 
0.076678792201 0.074841591808 0.073470369984 0.072516934382 0.071929705303 0.071650041957 0.071604696564 0.071700662752 0.071830969264 
0.07189303239 0.071808689533 0.071532146414 0.071043592259 0.070338412967 0.069423977084 0.068326742675 0.067103218048 0.065846724092 
0.064685120984 0.063768202871 0.063241999708 0.063205131038 0.063664118342 0.064523619322 0.065606649639 0.066682085356 0.067493739356 
0.067790325424 0.06735326041 0.066018380518 0.063689477956 0.060344822621 0.056039320881 0.050902606604 0.045130094065 0.038964562477 
0.032670073391 0.026503892538 0.020692915816 0.015419143469 0.010815597951 0.0069711660159 0.0039408928109 0.0017574754296 0.0004402575149 
1.0631950949e-17 
