# vtk DataFile Version 5.1
vtk output
ASCII
DATASET POLYDATA
POINTS 100 float
0.11166 0.0402699 0.639515 0.111685 0.0404054 0.639535 0.111825 0.0406682 0.639473 
0.112039 0.0410656 0.639294 0.112259 0.041609 0.638942 0.112401 0.0423109 0.63834 
0.112377 0.043181 0.637396 0.1121 0.0442226 0.636006 0.111499 0.0454286 0.634061 
0.110522 0.0467783 0.63145 0.109144 0.0482357 0.628073 0.107365 0.0497485 0.623841 
0.105211 0.05125 0.618688 0.102727 0.0526611 0.612576 0.0999702 0.0538957 0.605494 
0.0970006 0.0548657 0.597468 0.0938716 0.055488 0.588552 0.0906224 0.0556912 0.578832 
0.0872723 0.055422 0.568415 0.0838178 0.0546501 0.557423 0.0802328 0.0533725 0.545985 
0.0764729 0.0516145 0.534225 0.0724817 0.0494297 0.52225 0.0681989 0.0468963 0.510147 
0.0635699 0.0441128 0.497972 0.0585542 0.041191 0.485748 0.0531317 0.0382484 0.473466 
0.0473074 0.0354004 0.461084 0.0411116 0.0327529 0.448536 0.0345972 0.0303956 0.435742 
0.0278339 0.0283982 0.422611 0.0208992 0.0268076 0.409057 0.013869 0.025648 0.395007 
0.00680746 0.024923 0.380404 -0.000241132 0.0246197 0.365217 -0.0072583 0.0247136 0.34944 
-0.0142534 0.0251744 0.333091 -0.0212617 0.0259717 0.316207 -0.0283379 0.0270787 0.298841 
-0.0355469 0.028476 0.281049 -0.0429506 0.0301518 0.262884 -0.0505952 0.0321015 0.244391 
-0.0584974 0.0343246 0.225598 -0.0666338 0.0368207 0.206514 -0.0749334 0.0395845 0.187129 
-0.0832752 0.0426011 0.167415 -0.0914908 0.0458422 0.14733 -0.0993725 0.0492632 0.126828 
-0.106687 0.0528033 0.105862 -0.113191 0.0563872 0.0843964 -0.118651 0.0599288 0.0624099 
-0.122863 0.0633377 0.0399033 -0.125667 0.0665255 0.0169023 -0.126962 0.0694139 -0.00654283 
-0.126717 0.0719404 -0.0303581 -0.12497 0.0740643 -0.0544502 -0.121823 0.0757692 -0.0787122 
-0.117438 0.0770631 -0.10303 -0.112017 0.0779757 -0.127288 -0.105786 0.0785532 -0.151376 
-0.0989744 0.0788506 -0.175196 -0.0917961 0.0789231 -0.19866 -0.0844327 0.0788174 -0.221698 
-0.077021 0.078564 -0.244252 -0.0696452 0.0781715 -0.266281 -0.0623363 0.0776239 -0.287752 
-0.0550765 0.0768808 -0.308645 -0.0478092 0.0758821 -0.328944 -0.0404533 0.0745543 -0.348638 
-0.0329192 0.0728204 -0.367722 -0.0251261 0.07061 -0.386194 -0.017017 0.0678706 -0.404054 
-0.00857136 0.0645758 -0.421309 0.000187573 0.0607328 -0.437971 0.00919013 0.0563851 -0.454057 
0.0183234 0.0516119 -0.469589 0.0274393 0.0465233 -0.484595 0.0363669 0.0412524 -0.499101 
0.0449272 0.0359441 -0.513133 0.0529493 0.0307428 -0.526712 0.060285 0.0257802 -0.539848 
0.066822 0.0211643 -0.552541 0.0724925 0.0169708 -0.564775 0.0772772 0.0132389 -0.576518 
0.0812052 0.00997028 -0.587727 0.0843484 0.00713245 -0.598346 0.0868116 0.00466617 -0.608312 
0.0887209 0.00249506 -0.617562 0.09021 0.00053692 -0.626039 0.0914066 -0.00128491 -0.633693 
0.092421 -0.00303155 -0.640495 0.0933375 -0.00474109 -0.646429 0.0942092 -0.00642451 -0.651503 
0.0950573 -0.00806536 -0.655743 0.0958743 -0.00962326 -0.65919 0.0966303 -0.0110405 -0.661896 
0.0972818 -0.012251 -0.663916 0.0977818 -0.01319 -0.665305 0.0980888 -0.0138035 -0.666105 
0.098175 -0.014056 -0.666345 
LINES 2 100
OFFSETS vtktypeint64
0 100 
CONNECTIVITY vtktypeint64
0 1 2 3 4 5 6 7 8 
9 10 11 12 13 14 15 16 17 
18 19 20 21 22 23 24 25 26 
27 28 29 30 31 32 33 34 35 
36 37 38 39 40 41 42 43 44 
45 46 47 48 49 50 51 52 53 
54 55 56 57 58 59 60 61 62 
63 64 65 66 67 68 69 70 71 
72 73 74 75 76 77 78 79 80 
81 82 83 84 85 86 87 88 89 
90 91 92 93 94 95 96 97 98 
99 
POINT_DATA 100
FIELD FieldData 3
_theta 1 100 double
0 0.031733259127 0.063466518254 0.095199777382 0.12693303651 0.15866629564 0.19039955476 0.22213281389 0.25386607302 
0.28559933214 0.31733259127 0.3490658504 0.38079910953 0.41253236865 0.44426562778 0.47599888691 0.50773214603 0.53946540516 
0.57119866429 0.60293192342 0.63466518254 0.66639844167 0.6981317008 0.72986495992 0.76159821905 0.79333147818 0.82506473731 
0.85679799643 0.88853125556 0.92026451469 0.95199777382 0.98373103294 1.0154642921 1.0471975512 1.0789308103 1.1106640695 
1.1423973286 1.1741305877 1.2058638468 1.237597106 1.2693303651 1.3010636242 1.3327968833 1.3645301425 1.3962634016 
1.4279966607 1.4597299198 1.491463179 1.5231964381 1.5549296972 1.5866629564 1.6183962155 1.6501294746 1.6818627337 
1.7135959929 1.745329252 1.7770625111 1.8087957702 1.8405290294 1.8722622885 1.9039955476 1.9357288068 1.9674620659 
1.999195325 2.0309285841 2.0626618433 2.0943951024 2.1261283615 2.1578616206 2.1895948798 2.2213281389 2.253061398 
2.2847946572 2.3165279163 2.3482611754 2.3799944345 2.4117276937 2.4434609528 2.4751942119 2.506927471 2.5386607302 
2.5703939893 2.6021272484 2.6338605076 2.6655937667 2.6973270258 2.7290602849 2.7607935441 2.7925268032 2.8242600623 
2.8559933214 2.8877265806 2.9194598397 2.9511930988 2.982926358 3.0146596171 3.0463928762 3.0781261353 3.1098593945 
3.1415926536 
_radius 1 100 double
7.1913860856e-16 0.015088347862 0.030102921205 0.044967151992 0.059604189166 0.073937308805 0.08789058898 0.10138974851 0.11436306811 
0.12674242219 0.13846457907 0.14947298076 0.15972013351 0.16917053959 0.17780384426 0.18561763923 0.19262922981 0.19887569919 
0.20441181835 0.20930572702 0.21363276608 0.21746825945 0.22088032514 0.22392388003 0.22663686714 0.22903937356 0.23113574935 
0.23291918639 0.23437765592 0.23549983745 0.23627979668 0.23671960827 0.23682967726 0.23662700224 0.23613195085 0.23536428567 
0.23433922519 0.23306428849 0.23153756748 0.22974789589 0.22767713291 0.22530445878 0.22261222691 0.21959259889 0.21625397965 
0.21262622239 0.20876370279 0.2047456426 0.20067344391 0.19666520416 0.19284794078 0.18934829188 0.18628255402 0.18374692083 
0.18180877417 0.1804998665 0.17981217624 0.17969710581 0.18006852218 0.18080981248 0.18178452582 0.18284940237 0.18386797707 
0.18472278062 0.18532451613 0.18561732344 0.18558007347 0.18522424515 0.1845891594 0.18373527504 0.18273611841 0.18166933506 
0.18060731438 0.17960787251 0.17870562519 0.17790487162 0.17717487804 0.17644832746 0.1756234853 0.17457035732 0.17314058966 
0.17117996615 0.16854149727 0.16509691385 0.16074504697 0.15541662844 0.14907589063 0.1417197138 0.13337504164 0.12409507994 
0.11395459641 0.10304454457 0.091466254584 0.079325530801 0.066727107884 0.053769985731 0.040544143194 0.027129008677 0.013593853327 
4.5136461298e-16 
_area 1 100 double
0 0.00054438825951 0.0021655637052 0.0048293717237 0.0084842628785 0.013067184371 0.018508131268 0.024731209115 0.031651418508 
0.039168294918 0.04715911902 0.055474922331 0.063941847182 0.07236901689 0.080562490629 0.088343494227 0.09556808979 0.10214481674 
0.10804667711 0.1133143409 0.11804872532 0.12239274798 0.12650351133 0.13051814839 0.13452038579 0.13851878529 0.14244617095 
0.14618057171 0.14957783014 0.15250348784 0.15485610481 0.15657958491 0.15766511092 0.15814437694 0.15807620236 0.15752908999 
0.15656325501 0.15521693999 0.15350162414 0.15140704688 0.14891230357 0.14599819381 0.14265797857 0.13890543189 0.13477971185 
0.13034696525 0.12569897054 0.12094899833 0.11622440028 0.11165537664 0.10736073544 0.10343306527 0.099926632328 0.096852794231 
0.094187250935 0.091885382655 0.08989517022 0.088162766871 0.086633560662 0.08525231831 0.083965835074 0.082732080522 0.081532621871 
0.08037740201 0.079291994635 0.078290328457 0.077359325015 0.076463776403 0.075557776382 0.0746065552 0.073595450326 0.072534033123 
0.071488115968 0.070588707223 0.06990665677 0.069543914242 0.069560096254 0.070000446081 0.070668374906 0.071248362294 0.071420729554 
0.070956230748 0.069697387485 0.067560218271 0.064529177047 0.060644758149 0.05599144844 0.050690177623 0.044893618838 0.03878147159 
0.032554422216 0.02642567008 0.020608510197 0.015299878624 0.010662774045 0.0068127984568 0.0038138968093 0.0016855729356 0.00041956145159 
4.3924948626e-17 
