# vtk DataFile Version 5.1
vtk output
ASCII
DATASET POLYDATA
POINTS 100 float
0.118714 0.0483429 0.68224 0.118939 0.0484216 0.681942 0.119641 0.0484898 0.680907 
0.120742 0.0485598 0.679163 0.122123 0.0486516 0.676754 0.123632 0.0487899 0.673731 
0.125101 0.0490005 0.670146 0.126366 0.0493068 0.666042 0.127274 0.0497264 0.66145 
0.127702 0.0502687 0.656381 0.127566 0.0509326 0.650823 0.12682 0.0517064 0.64475 
0.12546 0.0525682 0.63812 0.123515 0.0534872 0.630884 0.121038 0.0544262 0.622997 
0.118097 0.0553439 0.614427 0.11476 0.0561979 0.605159 0.111084 0.0569466 0.595204 
0.107107 0.0575513 0.584601 0.102845 0.0579778 0.573414 0.09829 0.0581965 0.561729 
0.0934129 0.0581833 0.549643 0.0881729 0.0579196 0.537261 0.0825266 0.0573925 0.524676 
0.0764385 0.0565954 0.511967 0.0698917 0.0555288 0.499189 0.0628954 0.0542012 0.486364 
0.0554897 0.0526313 0.473488 0.0477457 0.0508487 0.460524 0.0397614 0.0488952 0.447416 
0.0316537 0.0468249 0.434093 0.0235472 0.0447038 0.420478 0.015561 0.042607 0.4065 
0.00779685 0.0406153 0.392101 0.000327307 0.0388108 0.377241 -0.00681128 0.0372706 0.361902 
-0.0136223 0.0360611 0.346084 -0.0201469 0.0352319 0.329805 -0.0264577 0.0348117 0.313091 
-0.0326474 0.034805 0.295969 -0.0388149 0.0351917 0.278461 -0.0450502 0.0359288 0.260573 
-0.0514194 0.036955 0.242295 -0.0579521 0.0381971 0.223598 -0.0646332 0.0395781 0.204438 
-0.0713987 0.041026 0.184758 -0.0781385 0.0424814 0.164501 -0.0847031 0.0439049 0.143617 
-0.0909164 0.0452805 0.122074 -0.0965906 0.0466173 0.0998656 -0.101544 0.0479472 0.0770191 
-0.105615 0.0493192 0.0535974 -0.108682 0.0507916 0.0296976 -0.110667 0.052422 0.00544656 
-0.111547 0.054257 -0.0190081 -0.111349 0.0563226 -0.0435087 -0.11015 0.0586167 -0.0678992 
-0.108061 0.0611047 -0.0920371 -0.105215 0.0637189 -0.115803 -0.101755 0.066362 -0.139109 
-0.0978125 0.0689141 -0.1619 -0.0935005 0.0712434 -0.184153 -0.0888989 0.0732184 -0.205878 
-0.084052 0.07472 -0.227105 -0.0789677 0.0756539 -0.247878 -0.0736229 0.0759594 -0.268246 
-0.0679737 0.0756152 -0.288256 -0.0619676 0.0746407 -0.307943 -0.0555581 0.073093 -0.327328 
-0.0487191 0.0710598 -0.346416 -0.041456 0.0686495 -0.3652 -0.0338149 0.0659786 -0.383658 
-0.0258852 0.0631598 -0.401768 -0.0177985 0.0602903 -0.419501 -0.00972085 0.0574436 -0.436837 
-0.00184112 0.0546643 -0.453759 0.00564399 0.0519671 -0.470258 0.012547 0.0493404 -0.486326 
0.0187065 0.046753 -0.501958 0.0240021 0.0441635 -0.517142 0.0283657 0.0415311 -0.531854 
0.031788 0.0388256 -0.546053 0.0343194 0.0360363 -0.559678 0.0360652 0.0331769 -0.572645 
0.037175 0.0302873 -0.584857 0.0378288 0.0274312 -0.596201 0.0382191 0.0246894 -0.606565 
0.0385328 0.0221509 -0.615846 0.038934 0.0199017 -0.623963 0.0395484 0.0180136 -0.630868 
0.0404535 0.0165345 -0.636554 0.0416723 0.0154815 -0.64106 0.0431737 0.0148373 -0.644472 
0.0448787 0.0145515 -0.646918 0.0466703 0.0145459 -0.648554 0.0484086 0.0147237 -0.649557 
0.0499473 0.0149808 -0.650102 0.0511504 0.0152186 -0.65035 0.0519083 0.0153565 -0.650428 
0.0521498 0.0153415 -0.650419 
LINES 2 100
OFFSETS vtktypeint64
0 100 
CONNECTIVITY vtktypeint64
0 1 2 3 4 5 6 7 8 
9 10 11 12 13 14 15 16 17 
18 19 20 21 22 23 24 25 26 
27 28 29 30 31 32 33 34 35 
36 37 38 39 40 41 42 43 44 
45 46 47 48 49 50 51 52 53 
54 55 56 57 58 59 60 61 62 
63 64 65 66 67 68 69 70 71 
72 73 74 75 76 77 78 79 80 
81 82 83 84 85 86 87 88 89 
90 91 92 93 94 95 96 97 98 
99 
POINT_DATA 100
FIELD FieldData 3
_theta 1 100 double
0 0.031733259127 0.063466518254 0.095199777382 0.12693303651 0.15866629564 0.19039955476 0.22213281389 0.25386607302 
0.28559933214 0.31733259127 0.3490658504 0.38079910953 0.41253236865 0.44426562778 0.47599888691 0.50773214603 0.53946540516 
0.57119866429 0.60293192342 0.63466518254 0.66639844167 0.6981317008 0.72986495992 0.76159821905 0.79333147818 0.82506473731 
0.85679799643 0.88853125556 0.92026451469 0.95199777382 0.98373103294 1.0154642921 1.0471975512 1.0789308103 1.1106640695 
1.1423973286 1.1741305877 1.2058638468 1.237597106 1.2693303651 1.3010636242 1.3327968833 1.3645301425 1.3962634016 
1.4279966607 1.4597299198 1.491463179 1.5231964381 1.5549296972 1.5866629564 1.6183962155 1.6501294746 1.6818627337 
1.7135959929 1.745329252 1.7770625111 1.8087957702 1.8405290294 1.8722622885 1.9039955476 1.9357288068 1.9674620659 
1.999195325 2.0309285841 2.0626618433 2.0943951024 2.1261283615 2.1578616206 2.1895948798 2.2213281389 2.253061398 
2.2847946572 2.3165279163 2.3482611754 2.3799944345 2.4117276937 2.4434609528 2.4751942119 2.506927471 2.5386607302 
2.5703939893 2.6021272484 2.6338605076 2.6655937667 2.6973270258 2.7290602849 2.7607935441 2.7925268032 2.8242600623 
2.8559933214 2.8877265806 2.9194598397 2.9511930988 2.982926358 3.0146596171 3.0463928762 3.0781261353 3.1098593945 
3.1415926536 
_radius 1 100 double
3.7166830005e-16 0.013873223326 0.02769702891 0.041418193328 0.054986156491 0.068351586516 0.081463391358 0.094265849946 0.10669754042 
0.11869290384 0.13018617059 0.14111657576 0.15143356162 0.16110091906 0.17009927822 0.17842676918 0.18609793422 0.19314113259 
0.1995948182 0.20550320758 0.21091193659 0.21586428187 0.22039840828 0.22454594208 0.22833198504 0.2317764481 0.23489626327 
0.23770768685 0.24022770474 0.24247368093 0.2444608933 0.24619830886 0.24768357738 0.24889853798 0.2498064742 0.25035201231 
0.25046408307 0.25006187387 0.24906325295 0.24739480006 0.24500237267 0.24186108697 0.23798366574 0.23342623985 0.22829084423 
0.22272401546 0.21691110937 0.21106625684 0.20541831375 0.20019376608 0.19559828998 0.19179936014 0.18891258451 0.1869939217 
0.18603853952 0.18598532125 0.18672484596 0.18810873582 0.18995942944 0.19208081732 0.19427078868 0.19633613196 0.19810867453 
0.19945998635 0.20031148499 0.20063771122 0.20046229966 0.19984787178 0.19888218522 0.19766323179 0.19628565429 0.19483002088 
0.19335541774 0.19189486712 0.19045267483 0.18900320276 0.18749148822 0.1858368182 0.18394005662 0.18169419501 0.17899608068 
0.17575655249 0.17190665035 0.16739882652 0.16220357663 0.15630313439 0.14968453956 0.14233435999 0.13423666397 0.12537473592 
0.11573587767 0.10531780402 0.094134836681 0.082222340099 0.069638479004 0.056463175629 0.04279485469 0.028745993003 0.014438543047 
9.7230008216e-16 
_area 1 100 double
0 0.00053142828648 0.0021159047214 0.0047239517233 0.0083060238203 0.01279153592 0.018088018064 0.024082182126 0.030644714004 
0.037639094732 0.04493250237 0.052405415917 0.0599570591 0.06750590879 0.074986533779 0.082344835406 0.089533521549 0.096509011828 
0.10323020327 0.10965889802 0.11576159776 0.12151260692 0.1268983618 0.13192248212 0.13661035636 0.14101109045 0.14519388071 
0.14923661314 0.15320750179 0.15714465843 0.16104080958 0.16483875671 0.16843820542 0.17170933523 0.1745060923 0.1766740661 
0.17805313699 0.17848061696 0.17780195135 0.17589164142 0.1726803497 0.16817992972 0.16249813747 0.15583798726 0.14848125877 
0.14075979994 0.13302079969 0.12559283997 0.11875828581 0.11273415345 0.10765929359 0.10358573669 0.10048081682 0.098251622222 
0.096785211627 0.095979041926 0.095742440382 0.095963840405 0.096465389743 0.097005734879 0.09734232649 0.09729226424 0.096760468447 
0.095742621232 0.094324820789 0.092724583628 0.091015172918 0.088976971088 0.086625797798 0.084086888028 0.081547709406 0.079246927557 
0.077446960775 0.07634100773 0.075974964722 0.076279610674 0.077102570166 0.078219188552 0.0793537055 0.080213996465 0.080531066524 
0.080092352895 0.078761172779 0.076480175995 0.073261377513 0.069168265696 0.064296686175 0.0587606031 0.052686219399 0.046213865903 
0.039503421398 0.032737809559 0.026120650032 0.019867053017 0.014189335455 0.0092812704277 0.0053049619265 0.0023834100887 0.00059956394329 
3.3713035442e-17 
