# vtk DataFile Version 5.1
vtk output
ASCII
DATASET POLYDATA
POINTS 100 float
0.0813243 0.0648877 0.709342 0.08145 0.0650029 0.708955 0.0818409 0.0651871 0.707628 
0.0824682 0.0654236 0.705371 0.0832879 0.065687 0.702198 0.0842446 0.0659455 0.698131 
0.0852772 0.0661639 0.693198 0.0863234 0.0663068 0.687429 0.0873244 0.0663422 0.680859 
0.0882278 0.0662433 0.673527 0.0889888 0.0659916 0.665475 0.089569 0.065577 0.656748 
0.0899346 0.0649988 0.647394 0.0900523 0.0642646 0.637466 0.0898856 0.063389 0.62702 
0.0893914 0.0623918 0.61611 0.0885179 0.0612957 0.604794 0.0872042 0.0601243 0.593125 
0.0853832 0.0589001 0.58115 0.0829855 0.0576432 0.568907 0.0799465 0.0563705 0.556423 
0.0762141 0.055095 0.543712 0.0717564 0.0538265 0.530773 0.0665696 0.0525712 0.517592 
0.0606821 0.0513334 0.504143 0.0541574 0.0501153 0.490396 0.047092 0.0489181 0.476319 
0.0396103 0.0477426 0.461885 0.0318559 0.0465888 0.44708 0.02398 0.0454567 0.431905 
0.0161286 0.044346 0.416383 0.00842963 0.0432563 0.40056 0.000981341 0.0421871 0.384499 
-0.00615583 0.0411389 0.368283 -0.0129638 0.0401134 0.351998 -0.0194666 0.0391149 0.335731 
-0.025725 0.0381516 0.319553 -0.0318267 0.0372365 0.303515 -0.0378742 0.0363889 0.28763 
-0.0439689 0.0356347 0.271874 -0.0501963 0.0350061 0.256177 -0.0566124 0.0345412 0.24043 
-0.0632329 0.0342819 0.224486 -0.0700267 0.0342713 0.208175 -0.0769147 0.0345508 0.191315 
-0.0837739 0.0351559 0.17373 -0.0904457 0.0361132 0.155266 -0.0967485 0.0374363 0.135808 
-0.102493 0.0391241 0.115292 -0.107497 0.0411585 0.0937127 -0.1116 0.0435049 0.071126 
-0.114678 0.046113 0.0476481 -0.116648 0.0489194 0.0234448 -0.117474 0.0518515 -0.00128046 
-0.117167 0.0548318 -0.0263042 -0.11578 0.0577831 -0.0514005 -0.113398 0.0606324 -0.0763591 
-0.110129 0.0633155 -0.101001 -0.106091 0.06578 -0.125189 -0.101403 0.0679863 -0.148836 
-0.0961713 0.0699082 -0.171906 -0.0904855 0.0715312 -0.194408 -0.0844132 0.0728505 -0.216387 
-0.0779996 0.0738671 -0.237914 -0.0712687 0.0745841 -0.259066 -0.0642286 0.0750034 -0.279918 
-0.0568771 0.0751226 -0.300525 -0.0492084 0.0749327 -0.320916 -0.0412194 0.0744178 -0.341085 
-0.0329152 0.0735558 -0.360991 -0.024313 0.0723204 -0.380564 -0.0154443 0.070684 -0.399709 
-0.00635499 0.068622 -0.418318 0.00289497 0.0661166 -0.436279 0.012234 0.0631606 -0.453491 
0.0215813 0.0597607 -0.469868 0.0308492 0.0559395 -0.485351 0.0399456 0.0517357 -0.499906 
0.0487762 0.047204 -0.513527 0.0572455 0.0424122 -0.526233 0.0652586 0.0374383 -0.538059 
0.0727223 0.0323662 -0.549051 0.0795472 0.0272816 -0.559255 0.08565 0.0222668 -0.568716 
0.0909575 0.0173977 -0.577465 0.0954101 0.01274 -0.585524 0.0989676 0.00834728 -0.592901 
0.101614 0.0042604 -0.599597 0.10336 0.000507182 -0.605603 0.104252 -0.00289633 -0.610917 
0.104368 -0.00594414 -0.615538 0.103817 -0.00863811 -0.619479 0.102739 -0.0109857 -0.622766 
0.101298 -0.0129976 -0.625439 0.0996679 -0.0146861 -0.627552 0.0980275 -0.0160634 -0.629165 
0.0965449 -0.0171403 -0.630343 0.0953665 -0.0179258 -0.631143 0.0946059 -0.0184268 -0.631614 
0.094335 -0.0186475 -0.631784 
LINES 2 100
OFFSETS vtktypeint64
0 100 
CONNECTIVITY vtktypeint64
0 1 2 3 4 5 6 7 8 
9 10 11 12 13 14 15 16 17 
18 19 20 21 22 23 24 25 26 
27 28 29 30 31 32 33 34 35 
36 37 38 39 40 41 42 43 44 
45 46 47 48 49 50 51 52 53 
54 55 56 57 58 59 60 61 62 
63 64 65 66 67 68 69 70 71 
72 73 74 75 76 77 78 79 80 
81 82 83 84 85 86 87 88 89 
90 91 92 93 94 95 96 97 98 
99 
POINT_DATA 100
FIELD FieldData 3
_theta 1 100 double
0 0.031733259127 0.063466518254 0.095199777382 0.12693303651 0.15866629564 0.19039955476 0.22213281389 0.25386607302 
0.28559933214 0.31733259127 0.3490658504 0.38079910953 0.41253236865 0.44426562778 0.47599888691 0.50773214603 0.53946540516 
0.57119866429 0.60293192342 0.63466518254 0.66639844167 0.6981317008 0.72986495992 0.76159821905 0.79333147818 0.82506473731 
0.85679799643 0.88853125556 0.92026451469 0.95199777382 0.98373103294 1.0154642921 1.0471975512 1.0789308103 1.1106640695 
1.1423973286 1.1741305877 1.2058638468 1.237597106 1.2693303651 1.3010636242 1.3327968833 1.3645301425 1.3962634016 
1.4279966607 1.4597299198 1.491463179 1.5231964381 1.5549296972 1.5866629564 1.6183962155 1.6501294746 1.6818627337 
1.7135959929 1.745329252 1.7770625111 1.8087957702 1.8405290294 1.8722622885 1.9039955476 1.9357288068 1.9674620659 
1.999195325 2.0309285841 2.0626618433 2.0943951024 2.1261283615 2.1578616206 2.1895948798 2.2213281389 2.253061398 
2.2847946572 2.3165279163 2.3482611754 2.3799944345 2.4117276937 2.4434609528 2.4751942119 2.506927471 2.5386607302 
2.5703939893 2.6021272484 2.6338605076 2.6655937667 2.6973270258 2.7290602849 2.7607935441 2.7925268032 2.8242600623 
2.8559933214 2.8877265806 2.9194598397 2.9511930988 2.982926358 3.0146596171 3.0463928762 3.0781261353 3.1098593945 
3.1415926536 
_radius 1 100 double
9.0981574514e-16 0.01383055988 0.027557342262 0.041074301589 0.054284309899 0.067103733024 0.079466318146 0.091325679905 0.10265565797 
0.11344812507 0.12370841326 0.13344919767 0.14268416794 0.15142293249 0.1596682872 0.16741630382 0.17465883807 0.18138733009 
0.18759651382 0.19328701103 0.19846655252 0.20315030685 0.2073611116 0.21113016429 0.21449810814 0.21751579438 0.22024366374 
0.22274884621 0.22509968128 0.22735816602 0.22957151501 0.23176429831 0.23393242985 0.23603976235 0.23801751434 0.23976648847 
0.24116210804 0.24206251032 0.2423199763 0.2417956118 0.24037640938 0.23799284189 0.23463434525 0.23035979174 0.22530048431 
0.21965421643 0.21367030809 0.20762702932 0.20180431491 0.19645599115 0.19178650175 0.18793665144 0.18498057368 0.18293231457 
0.18175689605 0.18137974711 0.1816908997 0.18254508214 0.1837630114 0.18513988814 0.18646344233 0.18753845061 0.18821145245 
0.18838984464 0.18805191668 0.18724668893 0.18608403192 0.18471676895 0.18331756976 0.18205437161 0.18106845689 0.18045867954 
0.18027346286 0.18050968694 0.18111578628 0.18199637012 0.1830172383 0.18401141444 0.18478747619 0.18514082816 0.18486734956 
0.18377786133 0.1817114612 0.17854592156 0.17420383392 0.16865385316 0.16190714583 0.15400989749 0.14503337736 0.13506345095 
0.12419143704 0.11250775766 0.10009900446 0.087048088881 0.073436395366 0.059346576687 0.044864847164 0.03008214803 0.015094098685 
1.0793806197e-15 
_area 1 100 double
0 0.0005393864644 0.002136358222 0.0047286496865 0.0082169819754 0.012472248729 0.017345979637 0.022683636887 0.0283394431 
0.034190502791 0.040146993377 0.046154337139 0.052184090908 0.058215784118 0.064219926142 0.070152233543 0.075959039125 0.081586842836 
0.086990287914 0.092136487709 0.097005637478 0.10158874614 0.10588449281 0.10989850133 0.11364763182 0.11716784433 0.12051980478 
0.12378742949 0.12707238109 0.13049133412 0.13415202395 0.13807919354 0.14220902379 0.14640593134 0.15064892288 0.15472673439 
0.15829105934 0.16107343778 0.16278822625 0.16334899607 0.16247402182 0.1600641778 0.15629453329 0.15120338054 0.14500410524 
0.1380307042 0.13072668927 0.12355860761 0.11694159293 0.11116860083 0.10635435003 0.10243439678 0.099236763609 0.096575239211 
0.094312115009 0.092383792567 0.09079771371 0.089601018078 0.088820668852 0.08839468699 0.088140123072 0.087790411981 0.0870789048 
0.085816309768 0.083932047995 0.081479128166 0.078614123415 0.075564083212 0.072587700367 0.069932824342 0.067798189744 0.066323245538 
0.065604171744 0.065700622791 0.066619364827 0.068288947177 0.070546781848 0.073145109265 0.075774777784 0.078102327802 0.079806914988 
0.08060893657 0.080291391025 0.078716173807 0.075835028372 0.071693156052 0.06642366942 0.060232636257 0.053376601309 0.046136577529 
0.038793568441 0.031609580619 0.024815333619 0.018603867292 0.013129176105 0.0085092866974 0.0048322138148 0.002161990839 0.00054263101048 
2.971062792e-17 
