# vtk DataFile Version 5.1
vtk output
ASCII
DATASET POLYDATA
POINTS 100 float
0.148975 0.024232 0.617755 0.148972 0.0243587 0.617578 0.14903 0.0246216 0.616932 
0.149075 0.0250215 0.615829 0.148994 0.0255588 0.614285 0.148653 0.0262317 0.612313 
0.147917 0.0270342 0.609917 0.146667 0.0279541 0.607087 0.144823 0.0289714 0.603793 
0.14235 0.0300588 0.599985 0.139266 0.0311817 0.595593 0.135641 0.0323005 0.590535 
0.131584 0.0333736 0.584723 0.127225 0.034361 0.578077 0.122702 0.0352279 0.570532 
0.118136 0.0359484 0.562054 0.113611 0.0365081 0.552644 0.109165 0.0369054 0.542345 
0.104782 0.0371515 0.531242 0.10039 0.037269 0.519459 0.0958772 0.0372887 0.507145 
0.0911015 0.037246 0.494468 0.0859141 0.0371764 0.481595 0.0801807 0.0371113 0.46868 
0.0738009 0.0370748 0.455851 0.066724 0.037081 0.443195 0.0589579 0.0371336 0.430759 
0.0505691 0.0372262 0.418543 0.0416747 0.0373453 0.406504 0.0324277 0.0374732 0.39457 
0.0229959 0.0375924 0.382644 0.0135398 0.0376895 0.37062 0.0041906 0.0377591 0.358395 
-0.00496732 0.0378059 0.34588 -0.0139066 0.0378458 0.333006 -0.0226591 0.0379052 0.319726 
-0.0313083 0.0380186 0.306017 -0.0399736 0.0382254 0.291872 -0.0487878 0.0385652 0.277291 
-0.0578709 0.0390735 0.262277 -0.067304 0.0397778 0.24682 -0.0771062 0.0406944 0.230898 
-0.0872185 0.0418273 0.214466 -0.0974964 0.0431677 0.197462 -0.107714 0.0446964 0.179807 
-0.117577 0.0463862 0.161421 -0.126745 0.0482063 0.142225 -0.134863 0.0501257 0.122162 
-0.141591 0.0521171 0.101206 -0.146636 0.0541596 0.079369 -0.149783 0.0562394 0.0567121 
-0.150911 0.0583495 0.0333425 -0.150001 0.0604877 0.00941067 -0.147142 0.0626529 -0.0148995 
-0.142515 0.0648412 -0.039384 -0.136372 0.0670419 -0.0638347 -0.129012 0.0692337 -0.0880555 
-0.120753 0.0713827 -0.111877 -0.111897 0.0734416 -0.13517 -0.102713 0.0753518 -0.157847 
-0.0934105 0.0770464 -0.179871 -0.084135 0.0784552 -0.201247 -0.0749628 0.079511 -0.222012 
-0.0659088 0.0801553 -0.242226 -0.0569393 0.080344 -0.261956 -0.0479892 0.0800513 -0.281265 
-0.0389814 0.0792717 -0.300196 -0.0298444 0.0780195 -0.318768 -0.0205266 0.0763263 -0.336969 
-0.0110063 0.0742358 -0.354762 -0.0012946 0.0717979 -0.372087 0.00856639 0.0690616 -0.388873 
0.0185107 0.0660695 -0.405045 0.0284582 0.062852 -0.420541 0.0383263 0.0594254 -0.435316 
0.0480396 0.0557914 -0.449351 0.0575376 0.0519402 -0.462654 0.0667787 0.0478552 -0.475255 
0.0757397 0.0435207 -0.487203 0.0844108 0.038929 -0.498554 0.0927888 0.0340886 -0.509357 
0.100868 0.0290302 -0.519648 0.108632 0.0238098 -0.529437 0.116045 0.01851 -0.538705 
0.123055 0.0132359 -0.5474 0.129586 0.00810918 -0.555447 0.135554 0.00325851 -0.562754 
0.140867 -0.00119182 -0.569223 0.145444 -0.00513349 -0.574771 0.149226 -0.008485 -0.579339 
0.152185 -0.0112002 -0.582909 0.154335 -0.0132731 -0.585509 0.155734 -0.0147392 -0.587217 
0.156484 -0.0156712 -0.588159 0.156719 -0.0161713 -0.588498 0.156599 -0.01636 -0.588419 
0.156285 -0.0163622 -0.58811 0.15593 -0.0162935 -0.587747 0.155657 -0.0162467 -0.587467 
0.155544 -0.0162809 -0.587363 
LINES 2 100
OFFSETS vtktypeint64
0 100 
CONNECTIVITY vtktypeint64
0 1 2 3 4 5 6 7 8 
9 10 11 12 13 14 15 16 17 
18 19 20 21 22 23 24 25 26 
27 28 29 30 31 32 33 34 35 
36 37 38 39 40 41 42 43 44 
45 46 47 48 49 50 51 52 53 
54 55 56 57 58 59 60 61 62 
63 64 65 66 67 68 69 70 71 
72 73 74 75 76 77 78 79 80 
81 82 83 84 85 86 87 88 89 
90 91 92 93 94 95 96 97 98 
99 
POINT_DATA 100
FIELD FieldData 3
_theta 1 100 double
0 0.031733259127 0.063466518254 0.095199777382 0.12693303651 0.15866629564 0.19039955476 0.22213281389 0.25386607302 
0.28559933214 0.31733259127 0.3490658504 0.38079910953 0.41253236865 0.44426562778 0.47599888691 0.50773214603 0.53946540516 
0.57119866429 0.60293192342 0.63466518254 0.66639844167 0.6981317008 0.72986495992 0.76159821905 0.79333147818 0.82506473731 
0.85679799643 0.88853125556 0.92026451469 0.95199777382 0.98373103294 1.0154642921 1.0471975512 1.0789308103 1.1106640695 
1.1423973286 1.1741305877 1.2058638468 1.237597106 1.2693303651 1.3010636242 1.3327968833 1.3645301425 1.3962634016 
1.4279966607 1.4597299198 1.491463179 1.5231964381 1.5549296972 1.5866629564 1.6183962155 1.6501294746 1.6818627337 
1.7135959929 1.745329252 1.7770625111 1.8087957702 1.8405290294 1.8722622885 1.9039955476 1.9357288068 1.9674620659 
1.999195325 2.0309285841 2.0626618433 2.0943951024 2.1261283615 2.1578616206 2.1895948798 2.2213281389 2.253061398 
2.2847946572 2.3165279163 2.3482611754 2.3799944345 2.4117276937 2.4434609528 2.4751942119 2.506927471 2.5386607302 
2.5703939893 2.6021272484 2.6338605076 2.6655937667 2.6973270258 2.7290602849 2.7607935441 2.7925268032 2.8242600623 
2.8559933214 2.8877265806 2.9194598397 2.9511930988 2.982926358 3.0146596171 3.0463928762 3.0781261353 3.1098593945 
3.1415926536 
_radius 1 100 double
1.6801618532e-15 0.014153905018 0.028179360765 0.041952897227 0.055363970592 0.06831957657 0.080746889 0.092593824672 0.10382779759 
0.11443320061 0.12440825102 0.13376172817 0.14250987011 0.15067340395 0.15827450824 0.16533355769 0.17186580614 0.17787860592 
0.18337009432 0.18833024189 0.19274466557 0.19660083326 0.19989555078 0.20264219521 0.20487612744 0.20665700907 0.20806724398 
0.20920636269 0.2101818082 0.21109720417 0.21203968904 0.21306812835 0.21420384772 0.21542500516 0.21666510615 0.2178157823 
0.21873390178 0.2192531137 0.21919967356 0.21841169692 0.21676005684 0.21416837848 0.21062928108 0.20621421943 0.20107487226 
0.195434914 0.18957221498 0.18379313914 0.17840247019 0.17367381189 0.16982514212 0.1670026506 0.16527406227 0.16463075665 
0.16499608141 0.16623624862 0.16817133328 0.1705866522 0.17324681423 0.17591402465 0.17836933717 0.1804330505 0.18198019657 
0.18294866333 0.18333948534 0.18321026819 0.18266338783 0.18183071013 0.18085643107 0.17987952644 0.17901731532 0.1783516944 
0.17791954586 0.1777085532 0.17765910347 0.17767209476 0.17762143563 0.17736911257 0.17678022681 0.1757355257 0.17413961284 
0.17192399377 0.16904514113 0.1654786335 0.16121100086 0.1562311337 0.15052298263 0.14406085806 0.13680806413 0.12871902414 
0.11974458932 0.10983988147 0.098973745074 0.087138641062 0.074359638354 0.060701133943 0.046270120684 0.031215226389 0.015721307651 
1.0693129045e-15 
_area 1 100 double
0 0.00045917748112 0.0018213403474 0.0040435789114 0.0070636145948 0.010809336543 0.015205534329 0.020175111098 0.025635008766 
0.031490007306 0.037628804673 0.043925769478 0.050249340475 0.056475529411 0.062503115238 0.068266033417 0.07373826236 0.078927798367 
0.083860004177 0.088556113464 0.093016060728 0.097212360513 0.10109609622 0.10461238506 0.10772075343 0.11041386079 0.11272791086 
0.11474132043 0.11656278484 0.11831320362 0.12010676305 0.12203511249 0.12415600809 0.12648467538 0.12898347004 0.1315457078 
0.13397800852 0.13600079101 0.13728345738 0.13750389544 0.13641008323 0.13386954495 0.12989921319 0.12467140235 0.11849479853 
0.11177310293 0.10494783365 0.098435746338 0.092574628591 0.087590801896 0.083593482708 0.08058805519 0.078495998266 0.07717978547 
0.07647733226 0.076237203996 0.076335427613 0.076666577553 0.077120050662 0.077560914947 0.077833729493 0.077791811027 0.077331606436 
0.076411201936 0.075044819155 0.073279073517 0.071185553308 0.068882867181 0.066543388065 0.064366996262 0.062536576497 0.061172549114 
0.060307483689 0.059893641047 0.059833465439 0.060012801473 0.060320657615 0.060646044105 0.060865745728 0.060857110193 0.060523233048 
0.059798548406 0.058641153833 0.057025277537 0.054936923122 0.052371266954 0.049330921987 0.045825830533 0.041876031445 0.037517699179 
0.03281150677 0.027851146972 0.022769079115 0.017736593548 0.012956383376 0.0086478288613 0.005027388264 0.0022878542726 0.00058015010101 
5.7955666407e-17 
