# vtk DataFile Version 5.1
vtk output
ASCII
DATASET POLYDATA
POINTS 100 float
0.106584 0.047527 0.664614 0.106663 0.0477112 0.664398 0.106974 0.0481142 0.66361 
0.107481 0.0487338 0.662277 0.108124 0.0495643 0.660438 0.108831 0.0505943 0.658138 
0.109513 0.0518049 0.655419 0.11008 0.0531671 0.652308 0.11044 0.0546408 0.648817 
0.110509 0.056174 0.644934 0.110214 0.0577038 0.640621 0.109496 0.0591581 0.635824 
0.108314 0.0604591 0.63047 0.106646 0.0615276 0.624484 0.104483 0.0622876 0.617793 
0.101832 0.0626722 0.610341 0.098713 0.0626275 0.602094 0.0951494 0.0621174 0.593051 
0.09117 0.0611261 0.583242 0.0868033 0.0596595 0.572728 0.0820751 0.0577448 0.561599 
0.0770068 0.055429 0.549959 0.0716157 0.052776 0.537922 0.0659149 0.0498619 0.525595 
0.0599152 0.0467712 0.513068 0.0536275 0.0435915 0.500409 0.0470646 0.0404099 0.487654 
0.0402439 0.0373086 0.474807 0.0331887 0.0343629 0.461844 0.0259289 0.0316391 0.448715 
0.0185007 0.0291941 0.435354 0.0109455 0.0270752 0.421689 0.00330716 0.0253208 0.407653 
-0.00437031 0.0239614 0.393189 -0.0120459 0.0230204 0.378256 -0.0196843 0.0225147 0.362833 
-0.0272576 0.0224551 0.346915 -0.0347459 0.0228457 0.330514 -0.0421368 0.0236834 0.313646 
-0.0494229 0.0249576 0.296327 -0.0565984 0.0266485 0.278567 -0.0636545 0.0287272 0.260363 
-0.0705742 0.0311553 0.241694 -0.0773276 0.0338854 0.222524 -0.0838681 0.0368623 0.202806 
-0.0901293 0.0400251 0.182486 -0.0960255 0.0433093 0.161515 -0.101453 0.0466501 0.139856 
-0.106296 0.0499849 0.117494 -0.11043 0.0532564 0.0944444 -0.113735 0.0564145 0.0707539 
-0.116101 0.0594182 0.0465044 -0.117439 0.0622364 0.021807 -0.117691 0.0648471 -0.00320518 
-0.116833 0.0672376 -0.0283869 -0.11488 0.0694018 -0.0535928 -0.111888 0.0713392 -0.0786886 
-0.107951 0.073052 -0.103562 -0.10319 0.0745436 -0.128128 -0.0977486 0.0758167 -0.152334 
-0.0917795 0.0768719 -0.176158 -0.0854325 0.0777068 -0.199603 -0.0788423 0.0783158 -0.22269 
-0.0721188 0.07869 -0.245446 -0.0653396 0.0788175 -0.267894 -0.0585456 0.0786837 -0.290046 
-0.0517413 0.078272 -0.311892 -0.0448987 0.0775636 -0.333399 -0.0379649 0.0765382 -0.354511 
-0.0308723 0.075174 -0.375156 -0.0235502 0.0734482 -0.395251 -0.0159375 0.0713378 -0.414712 
-0.00799355 0.0688205 -0.433465 0.000293087 0.0658766 -0.451457 0.00889877 0.0624913 -0.468659 
0.0177631 0.0586576 -0.48507 0.0267911 0.0543796 -0.500714 0.0358594 0.0496758 -0.515634 
0.0448248 0.0445819 -0.529884 0.0535359 0.0391534 -0.543513 0.061845 0.0334658 -0.556558 
0.0696189 0.0276145 -0.569028 0.0767496 0.0217121 -0.580902 0.083161 0.0158834 -0.592123 
0.0888129 0.0102596 -0.602599 0.093701 0.00497044 -0.612219 0.0978546 0.000135548 -0.620857 
0.10133 -0.00414384 -0.628396 0.104203 -0.00779271 -0.634739 0.106558 -0.0107683 -0.63983 
0.108485 -0.013064 -0.643668 0.110064 -0.0147097 -0.64631 0.111364 -0.0157702 -0.647874 
0.112439 -0.016339 -0.648535 0.113326 -0.0165307 -0.648509 0.114045 -0.0164704 -0.648036 
0.114606 -0.0162822 -0.647357 0.115008 -0.0160781 -0.64669 0.115249 -0.0159471 -0.646209 
0.115325 -0.0159468 -0.646026 
LINES 2 100
OFFSETS vtktypeint64
0 100 
CONNECTIVITY vtktypeint64
0 1 2 3 4 5 6 7 8 
9 10 11 12 13 14 15 16 17 
18 19 20 21 22 23 24 25 26 
27 28 29 30 31 32 33 34 35 
36 37 38 39 40 41 42 43 44 
45 46 47 48 49 50 51 52 53 
54 55 56 57 58 59 60 61 62 
63 64 65 66 67 68 69 70 71 
72 73 74 75 76 77 78 79 80 
81 82 83 84 85 86 87 88 89 
90 91 92 93 94 95 96 97 98 
99 
POINT_DATA 100
FIELD FieldData 3
_theta 1 100 double
0 0.031733259127 0.063466518254 0.095199777382 0.12693303651 0.15866629564 0.19039955476 0.22213281389 0.25386607302 
0.28559933214 0.31733259127 0.3490658504 0.38079910953 0.41253236865 0.44426562778 0.47599888691 0.50773214603 0.53946540516 
0.57119866429 0.60293192342 0.63466518254 0.66639844167 0.6981317008 0.72986495992 0.76159821905 0.79333147818 0.82506473731 
0.85679799643 0.88853125556 0.92026451469 0.95199777382 0.98373103294 1.0154642921 1.0471975512 1.0789308103 1.1106640695 
1.1423973286 1.1741305877 1.2058638468 1.237597106 1.2693303651 1.3010636242 1.3327968833 1.3645301425 1.3962634016 
1.4279966607 1.4597299198 1.491463179 1.5231964381 1.5549296972 1.5866629564 1.6183962155 1.6501294746 1.6818627337 
1.7135959929 1.745329252 1.7770625111 1.8087957702 1.8405290294 1.8722622885 1.9039955476 1.9357288068 1.9674620659 
1.999195325 2.0309285841 2.0626618433 2.0943951024 2.1261283615 2.1578616206 2.1895948798 2.2213281389 2.253061398 
2.2847946572 2.3165279163 2.3482611754 2.3799944345 2.4117276937 2.4434609528 2.4751942119 2.506927471 2.5386607302 
2.5703939893 2.6021272484 2.6338605076 2.6655937667 2.6973270258 2.7290602849 2.7607935441 2.7925268032 2.8242600623 
2.8559933214 2.8877265806 2.9194598397 2.9511930988 2.982926358 3.0146596171 3.0463928762 3.0781261353 3.1098593945 
3.1415926536 
_radius 1 100 double
1.0069767205e-15 0.012919434731 0.025846567702 0.038780175129 0.051712426655 0.064627034095 0.077498375646 0.090291133514 0.10295989226 
0.11544838678 0.12768855475 0.13960003216 0.1510910112 0.16206130787 0.1724080444 0.18203366511 0.19085529765 0.1988139693 
0.20588203906 0.21206744002 0.21741385796 0.22199664254 0.22591488473 0.22928058054 0.23220611272 0.23479147239 0.23711275904 
0.2392135 0.24110009719 0.24274214726 0.24407756511 0.24502160925 0.24547832694 0.24535275099 0.24456237482 0.24304688636 
0.24077568592 0.23775316942 0.2340219747 0.22966429538 0.22480102688 0.21958812835 0.21420944471 0.20886553608 0.20375875539 
0.19907557012 0.19496769777 0.19153433413 0.18880912043 0.18675679345 0.18528332458 0.18425858312 0.18354501637 0.18302386071 
0.18261274974 0.18227248625 0.18200368549 0.18183550017 0.18180935156 0.18196112931 0.1823057657 0.18282793204 0.1834811736 
0.18419515463 0.18488810638 0.1854805524 0.18590713854 0.18612485412 0.18611707213 0.18589346188 0.18548623393 0.18494358627 
0.18432157643 0.18367572546 0.18305329828 0.18248648221 0.18198599487 0.18153451463 0.18108000868 0.18053025455 0.17975086969 
0.17856922407 0.17678544991 0.17418982554 0.17058397724 0.16580234139 0.15973034634 0.15231654975 0.1435771294 0.13359238859 
0.1224961277 0.11045972219 0.097673407778 0.084327493775 0.070595961569 0.056624247311 0.042522185826 0.028362379963 0.014183790517 
9.183280826e-16 
_area 1 100 double
0 0.00046418651127 0.0018590696219 0.0041911755423 0.0074697956686 0.011704274413 0.0168996601 0.023050423436 0.030132249494 
0.038092568014 0.046841430568 0.056245090808 0.066124589654 0.076260684343 0.086405129076 0.096297246633 0.10568413559 0.11434258039 
0.12210059489 0.12885653284 0.13459389448 0.13939009101 0.14341640865 0.14692226591 0.15019082309 0.15346136713 0.15685287136 
0.16034104452 0.16378933904 0.16699583191 0.16973550456 0.17179742045 0.17301778444 0.17330436841 0.1726438453 0.17108555215 
0.16870561254 0.16556926934 0.16171256666 0.15715135344 0.15191010651 0.14605686501 0.13973023805 0.13314782817 0.12659325545 
0.12038534546 0.11483121517 0.11016324194 0.10648007819 0.10372931971 0.10172385426 0.1001636437 0.098719631916 0.097164026968 
0.095415473352 0.093502356438 0.091508800058 0.089534564562 0.087677773857 0.086032023455 0.084682910348 0.083695736528 0.083094350837 
0.082832384953 0.082765977826 0.082681364329 0.082389453958 0.081792331296 0.080889971033 0.079759394751 0.078525094194 0.077327931206 
0.076298729831 0.075536392801 0.075095064164 0.075024019705 0.075292469237 0.076104018655 0.077192503318 0.078300880091 0.079219007063 
0.079712307347 0.079535686334 0.078454812621 0.07627293567 0.072861036132 0.068185565507 0.062326377472 0.055478945527 0.047938536622 
0.040068119216 0.032255466793 0.024867496556 0.01821059253 0.012504104552 0.0078709907515 0.0043460312926 0.0018991787809 0.00046920472341 
8.5330505984e-17 
