# vtk DataFile Version 5.1
vtk output
ASCII
DATASET POLYDATA
POINTS 100 float
0.200193 0.0444522 0.677077 0.200362 0.0448205 0.677008 0.200896 0.0457528 0.676685 
0.201697 0.0471884 0.6761 0.202614 0.0490333 0.675238 0.203458 0.0511694 0.674077 
0.204027 0.053466 0.672585 0.204127 0.055791 0.670719 0.203588 0.0580227 0.668429 
0.202288 0.0600578 0.665655 0.200159 0.0618181 0.662334 0.197193 0.0632522 0.658402 
0.193434 0.0643345 0.653801 0.188974 0.0650612 0.648482 0.183934 0.0654432 0.642415 
0.178444 0.0654997 0.635586 0.172629 0.0652506 0.628007 0.16659 0.0647113 0.619709 
0.160393 0.0638892 0.610745 0.15406 0.062784 0.60118 0.147574 0.0613897 0.59109 
0.14088 0.0596995 0.58055 0.133902 0.0577124 0.569631 0.126553 0.0554394 0.558387 
0.118755 0.0529095 0.546855 0.110451 0.0501735 0.535052 0.101622 0.0473049 0.522971 
0.0922861 0.0443976 0.51059 0.0825069 0.0415605 0.497872 0.0723832 0.0389095 0.484775 
0.0620406 0.0365576 0.471259 0.0516159 0.0346049 0.457294 0.0412409 0.0331292 0.442864 
0.0310262 0.032179 0.42797 0.0210472 0.031769 0.412633 0.0113362 0.0318805 0.396884 
0.00187867 0.032464 0.380766 -0.00738274 0.0334467 0.364321 -0.0165382 0.0347404 0.34758 
-0.0256956 0.036253 0.330556 -0.0349625 0.0378975 0.313235 -0.0444266 0.0396007 0.295575 
-0.054138 0.0413091 0.277499 -0.064095 0.0429913 0.258907 -0.0742358 0.0446368 0.239676 
-0.0844366 0.0462518 0.219676 -0.0945172 0.0478525 0.198784 -0.104253 0.049457 0.176895 
-0.113393 0.0510773 0.153941 -0.121681 0.0527128 0.129898 -0.128875 0.0543461 0.104794 
-0.134773 0.055942 0.0787147 -0.139226 0.0574497 0.0517976 -0.14215 0.0588084 0.0242245 
-0.143534 0.0599549 -0.00379099 -0.143437 0.0608325 -0.032019 -0.141979 0.0613994 -0.0602308 
-0.139332 0.0616357 -0.0882159 -0.135694 0.0615473 -0.115796 -0.131281 0.0611668 -0.142837 
-0.126299 0.0605502 -0.169254 -0.120936 0.0597699 -0.195013 -0.115344 0.0589058 -0.220124 
-0.109632 0.0580344 -0.244637 -0.103869 0.0572183 -0.268623 -0.09808 0.0564974 -0.292166 
-0.0922572 0.0558833 -0.315345 -0.0863691 0.0553574 -0.338222 -0.0803717 0.0548735 -0.360834 
-0.0742207 0.0543648 -0.383184 -0.0678813 0.0537535 -0.405246 -0.0613363 0.0529634 -0.426961 
-0.0545908 0.0519319 -0.448247 -0.047674 0.0506213 -0.469012 -0.0406371 0.0490259 -0.489159 
-0.0335489 0.0471764 -0.508598 -0.0264903 0.0451379 -0.52726 -0.0195462 0.043004 -0.545097 
-0.0127996 0.040886 -0.56209 -0.00632453 0.0388997 -0.57825 -0.000182042 0.0371509 -0.593609 
0.00558298 0.0357218 -0.60822 0.0109426 0.0346597 -0.622148 0.0158852 0.0339709 -0.635456 
0.0204129 0.0336188 -0.648204 0.0245387 0.0335283 -0.660435 0.0282828 0.0335953 -0.672173 
0.0316693 0.0337001 -0.683419 0.0347228 0.0337226 -0.694152 0.0374661 0.033559 -0.704325 
0.0399187 0.033135 -0.713876 0.0420961 0.0324167 -0.722728 0.0440094 0.0314153 -0.730795 
0.0456659 0.0301862 -0.737991 0.0470696 0.0288227 -0.744232 0.0482222 0.0274438 -0.749439 
0.0491239 0.0261794 -0.753548 0.0497738 0.025153 -0.756505 0.0501706 0.0244665 -0.758272 
0.0503133 0.0241861 -0.758826 
LINES 2 100
OFFSETS vtktypeint64
0 100 
CONNECTIVITY vtktypeint64
0 1 2 3 4 5 6 7 8 
9 10 11 12 13 14 15 16 17 
18 19 20 21 22 23 24 25 26 
27 28 29 30 31 32 33 34 35 
36 37 38 39 40 41 42 43 44 
45 46 47 48 49 50 51 52 53 
54 55 56 57 58 59 60 61 62 
63 64 65 66 67 68 69 70 71 
72 73 74 75 76 77 78 79 80 
81 82 83 84 85 86 87 88 89 
90 91 92 93 94 95 96 97 98 
99 
POINT_DATA 100
FIELD FieldData 3
_theta 1 100 double
0 0.031733259127 0.063466518254 0.095199777382 0.12693303651 0.15866629564 0.19039955476 0.22213281389 0.25386607302 
0.28559933214 0.31733259127 0.3490658504 0.38079910953 0.41253236865 0.44426562778 0.47599888691 0.50773214603 0.53946540516 
0.57119866429 0.60293192342 0.63466518254 0.66639844167 0.6981317008 0.72986495992 0.76159821905 0.79333147818 0.82506473731 
0.85679799643 0.88853125556 0.92026451469 0.95199777382 0.98373103294 1.0154642921 1.0471975512 1.0789308103 1.1106640695 
1.1423973286 1.1741305877 1.2058638468 1.237597106 1.2693303651 1.3010636242 1.3327968833 1.3645301425 1.3962634016 
1.4279966607 1.4597299198 1.491463179 1.5231964381 1.5549296972 1.5866629564 1.6183962155 1.6501294746 1.6818627337 
1.7135959929 1.745329252 1.7770625111 1.8087957702 1.8405290294 1.8722622885 1.9039955476 1.9357288068 1.9674620659 
1.999195325 2.0309285841 2.0626618433 2.0943951024 2.1261283615 2.1578616206 2.1895948798 2.2213281389 2.253061398 
2.2847946572 2.3165279163 2.3482611754 2.3799944345 2.4117276937 2.4434609528 2.4751942119 2.506927471 2.5386607302 
2.5703939893 2.6021272484 2.6338605076 2.6655937667 2.6973270258 2.7290602849 2.7607935441 2.7925268032 2.8242600623 
2.8559933214 2.8877265806 2.9194598397 2.9511930988 2.982926358 3.0146596171 3.0463928762 3.0781261353 3.1098593945 
3.1415926536 
_radius 1 100 double
6.7020520087e-16 0.014956604874 0.029859288502 0.044648817693 0.059264432555 0.073642541234 0.087715076826 0.10140822895 0.11464245518 
0.12733448198 0.13940146573 0.15076680329 0.16136650738 0.17115477851 0.18010749254 0.18822275932 0.1955183895 0.20202686444 
0.20778903229 0.21284806492 0.21724509636 0.2210174478 0.22419958216 0.22682615972 0.2289360154 0.23057568755 0.23180130979 
0.23267813562 0.2332775551 0.23367204016 0.23392888997 0.23410382443 0.23423533168 0.23434027955 0.23441087713 0.23441291017 
0.2342854178 0.23394246783 0.2332780182 0.23217467126 0.23051639576 0.22820426732 0.22517329273 0.22140767171 0.21695159143 
0.21191300345 0.20645884902 0.20080171041 0.19517957708 0.18983204359 0.18497747172 0.18079583136 0.17742025265 0.17493659877 
0.1733861812 0.17276519034 0.17301786684 0.17402765206 0.17561586946 0.1775551041 0.17959585418 0.18149834285 0.18306113261 
0.18414164314 0.18466689302 0.18463460493 0.18410577474 0.18319047342 0.18202917762 0.18077222018 0.17955990334 0.17850540744 
0.17768196551 0.17711504776 0.17677967084 0.17660248256 0.17646796962 0.17622797787 0.17571366833 0.17474896938 0.17316447287 
0.17081060785 0.1675688932 0.16336016266 0.15814887499 0.15194296111 0.14478911391 0.13676397428 0.12796227893 0.11848366122 
0.10842031867 0.097847956005 0.086821996157 0.075379894808 0.063548744206 0.051355823685 0.038838973461 0.026053894326 0.013076516916 
2.5120077433e-16 
_area 1 100 double
0 0.00051932398383 0.002079971138 0.0046877354354 0.0083451728851 0.013042261478 0.018746090846 0.025392076212 0.032878888125 
0.041068289758 0.049789883018 0.058849899403 0.068042816759 0.077164546438 0.086025881127 0.094464664551 0.10235493226 0.10961149512 
0.11618937388 0.12207893008 0.12729873314 0.13188830916 0.13590169809 0.13940121372 0.14245087626 0.14511102803 0.14743631225 
0.14947612188 0.1512745125 0.15286955996 0.15429427576 0.1555782658 0.15674793003 0.15782353312 0.1588088338 0.15967187631 
0.16032631305 0.16062666088 0.16038392413 0.15939765635 0.15749361083 0.15455614131 0.15055016633 0.14553315659 0.13965870759 
0.13317137472 0.12638925167 0.11966566244 0.11332783596 0.10761506712 0.10264667962 0.098424995606 0.094870011985 0.09188507701 
0.089419160081 0.087489210677 0.086162557167 0.085512561593 0.08556638927 0.086256055472 0.08739067347 0.088694875538 0.089896838509 
0.090793901976 0.091271883061 0.091298416838 0.090907780296 0.090183183589 0.089237196826 0.088191188399 0.087157691255 0.086230636153 
0.085483710363 0.084970866289 0.084722181134 0.084732437486 0.084945127205 0.085239260409 0.085428669 0.085280258077 0.084548505425 
0.083015596421 0.080526051876 0.077009058774 0.072486230182 0.067065552391 0.060924061059 0.054282944212 0.047379760868 0.040443160363 
0.033675114905 0.027243467963 0.021283845346 0.015906572629 0.01120347689 0.0072516257812 0.0041140813092 0.0018394045168 0.00046146387912 
2.5538834858e-17 
