# vtk DataFile Version 5.1
vtk output
ASCII
DATASET POLYDATA
POINTS 100 float
0.137292 0.0199706 0.672264 0.137275 0.0202983 0.672132 0.137326 0.0211317 0.67164 
0.137407 0.0224265 0.670807 0.137462 0.0241139 0.669661 0.137422 0.0261081 0.668226 
0.13722 0.0283141 0.666518 0.136796 0.0306363 0.664535 0.13611 0.0329867 0.662247 
0.135142 0.0352911 0.659594 0.133899 0.0374932 0.656485 0.132408 0.0395562 0.652805 
0.130712 0.0414613 0.648419 0.128858 0.0432038 0.643189 0.126887 0.0447882 0.636983 
0.124825 0.0462214 0.629694 0.122669 0.0475067 0.621254 0.12039 0.048639 0.611641 
0.117924 0.0496015 0.600887 0.115182 0.0503652 0.589082 0.112053 0.0508908 0.576363 
0.108422 0.0511331 0.56291 0.10418 0.051047 0.548932 0.0992399 0.0505954 0.534645 
0.0935475 0.0497557 0.520259 0.08709 0.0485271 0.505959 0.0799 0.0469341 0.491888 
0.072053 0.0450294 0.478143 0.0636596 0.0428919 0.464762 0.054854 0.0406235 0.451727 
0.0457786 0.0383417 0.438968 0.0365684 0.0361713 0.426372 0.0273365 0.0342348 0.413795 
0.0181627 0.0326424 0.401075 0.00908739 0.0314837 0.388044 0.000111418 0.0308212 0.374545 
-0.00879834 0.0306858 0.360437 -0.0176977 0.0310765 0.345606 -0.0266502 0.0319622 0.329966 
-0.0357098 0.0332864 0.31346 -0.0449044 0.034974 0.296061 -0.0542219 0.0369395 0.277762 
-0.0636014 0.039095 0.25858 -0.0729297 0.0413579 0.238543 -0.0820455 0.0436575 0.217692 
-0.0907494 0.0459388 0.196077 -0.0988201 0.0481648 0.173754 -0.106033 0.0503161 0.150789 
-0.112183 0.0523889 0.127255 -0.117099 0.0543911 0.103234 -0.120667 0.056338 0.0788185 
-0.122834 0.058247 0.0541097 -0.123615 0.0601337 0.0292169 -0.12309 0.0620083 0.0042536 
-0.121395 0.0638731 -0.0206674 -0.118707 0.065722 -0.045439 -0.115225 0.0675405 -0.0699659 
-0.111151 0.0693071 -0.0941699 -0.106678 0.0709953 -0.117993 -0.101966 0.0725759 -0.141402 
-0.0971405 0.0740189 -0.164385 -0.0922843 0.0752948 -0.186951 -0.0874389 0.0763757 -0.209125 
-0.0826108 0.0772356 -0.230944 -0.0777812 0.0778497 -0.252446 -0.0729162 0.0781938 -0.273666 
-0.0679788 0.0782437 -0.294627 -0.062938 0.0779744 -0.315342 -0.0577759 0.0773601 -0.335804 
-0.0524902 0.0763755 -0.355988 -0.0470938 0.0749964 -0.375858 -0.0416116 0.0732024 -0.395365 
-0.0360737 0.0709796 -0.414455 -0.0305096 0.0683225 -0.433073 -0.0249417 0.0652374 -0.451168 
-0.0193818 0.0617433 -0.4687 -0.0138298 0.0578733 -0.485635 -0.00827559 0.0536741 -0.50195 
-0.00270486 0.0492047 -0.517629 0.00289399 0.0445335 -0.532662 0.00852119 0.0397354 -0.547036 
0.0141577 0.0348874 -0.560733 0.0197592 0.0300648 -0.57373 0.0252537 0.0253374 -0.585991 
0.0305431 0.0207667 -0.597471 0.0355095 0.0164034 -0.608119 0.0400249 0.0122867 -0.617881 
0.0439651 0.00844436 -0.626707 0.0472237 0.00489399 -0.634557 0.0497266 0.00164463 -0.641409 
0.0514432 -0.00130078 -0.647265 0.0523941 -0.00394308 -0.65215 0.0526527 -0.00628477 -0.656119 
0.0523413 -0.00832828 -0.65925 0.0516202 -0.010075 -0.661639 0.0506732 -0.0115248 -0.663393 
0.0496888 -0.0126761 -0.664618 0.0488403 -0.0135268 -0.665411 0.0482674 -0.0140743 -0.665851 
0.048061 -0.0143169 -0.665987 
LINES 2 100
OFFSETS vtktypeint64
0 100 
CONNECTIVITY vtktypeint64
0 1 2 3 4 5 6 7 8 
9 10 11 12 13 14 15 16 17 
18 19 20 21 22 23 24 25 26 
27 28 29 30 31 32 33 34 35 
36 37 38 39 40 41 42 43 44 
45 46 47 48 49 50 51 52 53 
54 55 56 57 58 59 60 61 62 
63 64 65 66 67 68 69 70 71 
72 73 74 75 76 77 78 79 80 
81 82 83 84 85 86 87 88 89 
90 91 92 93 94 95 96 97 98 
99 
POINT_DATA 100
FIELD FieldData 3
_theta 1 100 double
0 0.031733259127 0.063466518254 0.095199777382 0.12693303651 0.15866629564 0.19039955476 0.22213281389 0.25386607302 
0.28559933214 0.31733259127 0.3490658504 0.38079910953 0.41253236865 0.44426562778 0.47599888691 0.50773214603 0.53946540516 
0.57119866429 0.60293192342 0.63466518254 0.66639844167 0.6981317008 0.72986495992 0.76159821905 0.79333147818 0.82506473731 
0.85679799643 0.88853125556 0.92026451469 0.95199777382 0.98373103294 1.0154642921 1.0471975512 1.0789308103 1.1106640695 
1.1423973286 1.1741305877 1.2058638468 1.237597106 1.2693303651 1.3010636242 1.3327968833 1.3645301425 1.3962634016 
1.4279966607 1.4597299198 1.491463179 1.5231964381 1.5549296972 1.5866629564 1.6183962155 1.6501294746 1.6818627337 
1.7135959929 1.745329252 1.7770625111 1.8087957702 1.8405290294 1.8722622885 1.9039955476 1.9357288068 1.9674620659 
1.999195325 2.0309285841 2.0626618433 2.0943951024 2.1261283615 2.1578616206 2.1895948798 2.2213281389 2.253061398 
2.2847946572 2.3165279163 2.3482611754 2.3799944345 2.4117276937 2.4434609528 2.4751942119 2.506927471 2.5386607302 
2.5703939893 2.6021272484 2.6338605076 2.6655937667 2.6973270258 2.7290602849 2.7607935441 2.7925268032 2.8242600623 
2.8559933214 2.8877265806 2.9194598397 2.9511930988 2.982926358 3.0146596171 3.0463928762 3.0781261353 3.1098593945 
3.1415926536 
_radius 1 100 double
4.1656486648e-16 0.014808305974 0.02957190264 0.044236749746 0.058739827643 0.073005682316 0.086944292714 0.10045108202 0.11340973103 
0.12569797716 0.13719594382 0.1477959599 0.1574124754 0.16599062978 0.17351225174 0.17999847002 0.18550858365 0.19013528265 
0.19399666642 0.19722578944 0.19995873915 0.20232255599 0.20442454894 0.20634457325 0.20813147826 0.20980415485 0.21135654964 
0.21276506163 0.21399632719 0.21501366433 0.21578115852 0.21626518019 0.21643378973 0.21625494202 0.2156946772 0.21471656718 
0.21328348665 0.21136220444 0.20893041772 0.20598495445 0.20254930918 0.19867868289 0.19446124597 0.19001518974 0.18548195714 
0.18101660761 0.1767765262 0.17290978522 0.16954459496 0.16678135412 0.16468842375 0.16330162652 0.1626260001 0.16263743687 
0.16328235206 0.16447556182 0.16609910452 0.16800575751 0.17002912569 0.17199872628 0.17375628679 0.17516967204 0.17614244171 
0.17661866187 0.17658363643 0.176061588 0.17511109656 0.17381858749 0.17228980147 0.17063930728 0.16897870757 0.16740492265 
0.16599040602 0.1647770009 0.16377428907 0.1629620112 0.16229503611 0.16170893147 0.16112455636 0.16045098007 0.1595869941 
0.15842216379 0.1568385759 0.15471414511 0.15192766911 0.14836505003 0.14392557773 0.1385271255 0.13210951964 0.1246359814 
0.11609311708 0.10649024466 0.09585882206 0.084252431014 0.071747307681 0.058442971375 0.044462244981 0.029949965704 0.01506993016 
1.3889566001e-15 
_area 1 100 double
0 0.00044728967011 0.001789672189 0.0040281343945 0.007161476329 0.011179939575 0.016055251691 0.021729484346 0.028105943852 
0.035044605746 0.04236351796 0.049846949752 0.057260640116 0.064373483016 0.07098313622 0.076941235174 0.082173266126 0.086688880427 
0.090579518148 0.094000733506 0.097138467141 0.10016664852 0.10321402539 0.10635333921 0.10960877913 0.11296991138 0.11640058263 
0.11983703199 0.12318903901 0.12636759163 0.12933325985 0.13212266717 0.13480271419 0.1373668033 0.13967620102 0.14148524186 
0.14250463488 0.14246979105 0.14119427182 0.1386003322 0.13472849065 0.12972986002 0.12384581424 0.11738050526 0.11067189686 
0.10406536281 0.097888430696 0.092417509686 0.087830670195 0.084171382987 0.081365426222 0.079278367387 0.077765640583 0.076706471632 
0.076028302531 0.075709536364 0.075747983745 0.076105932787 0.076677371841 0.077308200856 0.077843534445 0.078162062864 0.07818392746 
0.077860510865 0.07716073192 0.076065515489 0.074574659435 0.07272200887 0.070588485165 0.068302363081 0.066023415531 0.063915867196 
0.062118483596 0.06072033638 0.059755251264 0.059225566301 0.059147558935 0.059538851345 0.060271934851 0.061121106738 0.06190309761 
0.062430974048 0.062514122598 0.061973379178 0.060662168574 0.058486088973 0.055415294702 0.051487612497 0.046803480339 0.041515272931 
0.035813667519 0.02991313706 0.024038061916 0.018410582384 0.013240951153 0.0087204424194 0.005015981278 0.0022652755939 0.00057179778441 
7.0473141212e-18 
