# vtk DataFile Version 5.1
vtk output
ASCII
DATASET POLYDATA
POINTS 100 float
0.0964343 0.0463247 0.613687 0.0966228 0.0463999 0.613722 0.0972317 0.0464368 0.613673 
0.0981862 0.0464474 0.613498 0.09937 0.0464506 0.61313 0.100638 0.0464678 0.612479 
0.10183 0.0465197 0.611444 0.102789 0.0466212 0.609918 0.103375 0.0467781 0.607796 
0.103474 0.0469841 0.604984 0.103016 0.0472199 0.601407 0.101968 0.0474533 0.59701 
0.100342 0.0476417 0.591763 0.0981808 0.047736 0.585662 0.0955569 0.0476857 0.578729 
0.0925543 0.0474439 0.571008 0.0892588 0.0469736 0.562559 0.0857449 0.0462515 0.553458 
0.0820672 0.0452722 0.543787 0.0782541 0.0440493 0.533631 0.0743064 0.0426152 0.523072 
0.0701996 0.0410186 0.512187 0.0658902 0.039321 0.501043 0.0613248 0.037591 0.489693 
0.0564503 0.0358987 0.478179 0.0512241 0.0343096 0.466525 0.045623 0.0328802 0.454743 
0.0396489 0.0316532 0.442827 0.0333312 0.0306564 0.430758 0.0267251 0.0299016 0.418503 
0.0199068 0.0293868 0.406018 0.0129651 0.0290991 0.39325 0.00599173 0.0290189 0.380135 
-0.000928757 0.0291249 0.366609 -0.00772802 0.0293987 0.352604 -0.0143606 0.0298287 0.338057 
-0.020807 0.0304128 0.322913 -0.0270734 0.0311594 0.307125 -0.033187 0.0320871 0.290663 
-0.0391879 0.0332218 0.273514 -0.0451195 0.0345937 0.255681 -0.051017 0.0362318 0.237189 
-0.0568972 0.0381597 0.21808 -0.0627495 0.0403903 0.198409 -0.0685308 0.0429222 0.178247 
-0.0741641 0.0457373 0.157669 -0.0795421 0.0487995 0.136754 -0.0845338 0.0520563 0.115579 
-0.0889959 0.0554409 0.0942122 -0.0927855 0.0588768 0.0727153 -0.0957738 0.062283 0.0511362 
-0.0978593 0.0655793 0.0295111 -0.0989775 0.0686924 0.00786441 -0.0991085 0.0715604 -0.013789 
-0.0982783 0.0741371 -0.0354408 -0.0965569 0.0763936 -0.0570857 -0.0940506 0.0783193 -0.0787181 
-0.0908914 0.0799209 -0.100329 -0.0872236 0.0812189 -0.121903 -0.0831895 0.0822448 -0.14342 
-0.0789158 0.0830356 -0.164849 -0.0745026 0.0836289 -0.186155 -0.0700156 0.0840585 -0.207299 
-0.0654828 0.0843499 -0.228238 -0.0608962 0.0845171 -0.248928 -0.0562178 0.0845611 -0.269328 
-0.0513894 0.0844691 -0.289398 -0.0463449 0.0842152 -0.309103 -0.0410241 0.083763 -0.328407 
-0.0353849 0.0830683 -0.347279 -0.0294145 0.0820827 -0.365685 -0.0231364 0.0807583 -0.38359 
-0.0166136 0.079051 -0.400956 -0.00994693 0.0769252 -0.417741 -0.00326835 0.0743561 -0.433899 
0.00326879 0.0713327 -0.449383 0.00950306 0.0678593 -0.464147 0.0152793 0.0639559 -0.478153 
0.0204627 0.0596579 -0.491367 0.0249519 0.0550152 -0.503775 0.0286879 0.0500897 -0.515375 
0.0316597 0.0449532 -0.526189 0.0339049 0.0396841 -0.536256 0.0355062 0.0343644 -0.545633 
0.0365821 0.0290764 -0.554393 0.0372762 0.0238991 -0.562615 0.0377423 0.0189059 -0.570379 
0.03813 0.0141619 -0.577759 0.0385709 0.00972186 -0.58481 0.0391661 0.00562923 -0.591568 
0.0399784 0.00191559 -0.598037 0.0410273 -0.00139912 -0.604194 0.0422896 -0.00430566 -0.609984 
0.0437038 -0.0068039 -0.615327 0.0451784 -0.00890075 -0.620123 0.046604 -0.0106078 -0.624261 
0.0478653 -0.0119389 -0.627629 0.0488558 -0.0129074 -0.630127 0.0494888 -0.0135243 -0.631673 
0.0497082 -0.0137965 -0.632215 
LINES 2 100
OFFSETS vtktypeint64
0 100 
CONNECTIVITY vtktypeint64
0 1 2 3 4 5 6 7 8 
9 10 11 12 13 14 15 16 17 
18 19 20 21 22 23 24 25 26 
27 28 29 30 31 32 33 34 35 
36 37 38 39 40 41 42 43 44 
45 46 47 48 49 50 51 52 53 
54 55 56 57 58 59 60 61 62 
63 64 65 66 67 68 69 70 71 
72 73 74 75 76 77 78 79 80 
81 82 83 84 85 86 87 88 89 
90 91 92 93 94 95 96 97 98 
99 
POINT_DATA 100
FIELD FieldData 3
_theta 1 100 double
0 0.031733259127 0.063466518254 0.095199777382 0.12693303651 0.15866629564 0.19039955476 0.22213281389 0.25386607302 
0.28559933214 0.31733259127 0.3490658504 0.38079910953 0.41253236865 0.44426562778 0.47599888691 0.50773214603 0.53946540516 
0.57119866429 0.60293192342 0.63466518254 0.66639844167 0.6981317008 0.72986495992 0.76159821905 0.79333147818 0.82506473731 
0.85679799643 0.88853125556 0.92026451469 0.95199777382 0.98373103294 1.0154642921 1.0471975512 1.0789308103 1.1106640695 
1.1423973286 1.1741305877 1.2058638468 1.237597106 1.2693303651 1.3010636242 1.3327968833 1.3645301425 1.3962634016 
1.4279966607 1.4597299198 1.491463179 1.5231964381 1.5549296972 1.5866629564 1.6183962155 1.6501294746 1.6818627337 
1.7135959929 1.745329252 1.7770625111 1.8087957702 1.8405290294 1.8722622885 1.9039955476 1.9357288068 1.9674620659 
1.999195325 2.0309285841 2.0626618433 2.0943951024 2.1261283615 2.1578616206 2.1895948798 2.2213281389 2.253061398 
2.2847946572 2.3165279163 2.3482611754 2.3799944345 2.4117276937 2.4434609528 2.4751942119 2.506927471 2.5386607302 
2.5703939893 2.6021272484 2.6338605076 2.6655937667 2.6973270258 2.7290602849 2.7607935441 2.7925268032 2.8242600623 
2.8559933214 2.8877265806 2.9194598397 2.9511930988 2.982926358 3.0146596171 3.0463928762 3.0781261353 3.1098593945 
3.1415926536 
_radius 1 100 double
4.708743833e-16 0.013352889362 0.026741316655 0.040185275671 0.053689379127 0.067235631092 0.080777632135 0.094237796866 0.10750913777 
0.1204624897 0.13295883149 0.14486497221 0.15606979886 0.16649791099 0.17611790304 0.18494363057 0.1930282105 0.20045193798 
0.20730647506 0.2136783509 0.2196348539 0.22521476166 0.23042520451 0.23524462139 0.23963062231 0.24353087777 0.24689495704 
0.24968521186 0.25188517208 0.2535043517 0.2545788109 0.25516730179 0.25534338774 0.25518457662 0.25476016847 0.25412000318 
0.25328636639 0.25225082333 0.25097678665 0.24940749547 0.24747813012 0.24513018373 0.24232594102 0.23906090351 0.23537222621 
0.23134171377 0.22709265898 0.22278070862 0.21857985131 0.21466536084 0.21119597343 0.20829769971 0.20605150357 0.20448661642 
0.20358039574 0.20326432936 0.2034343583 0.2039629223 0.20471066639 0.20553727088 0.20631211466 0.20692534842 0.20729859806 
0.20739317134 0.2072133696 0.20680341324 0.2062379859 0.20560783528 0.20500284951 0.20449542918 0.20412681813 0.2038984029 
0.20376894467 0.20365749373 0.20345071897 0.20301291948 0.20219719177 0.20085683757 0.19885656825 0.19608299593 0.19245343877 
0.18792174453 0.18248005234 0.17615611916 0.16900668754 0.1611080319 0.15254513791 0.14340097485 0.13374715136 0.12363704069 
0.11310227726 0.10215329517 0.090784164089 0.078981297983 0.066734748041 0.054050000179 0.040957798329 0.027519726384 0.013828107027 
7.6757264266e-16 
_area 1 100 double
0 0.00053261458201 0.0021324997481 0.0048044184277 0.0085517198037 0.01336939545 0.019234596579 0.026095532208 0.03386069863 
0.0423915924 0.051502658617 0.060971273887 0.070557894748 0.080033132653 0.089205972146 0.097946654685 0.10619895 0.11397895597 
0.12136045556 0.12844976519 0.13535546019 0.14215941604 0.14889460126 0.15553288856 0.16198435248 0.16810823025 0.17373411456 
0.17868999943 0.18283224351 0.18607182461 0.18839153046 0.18984997571 0.19057044183 0.19071520046 0.19044897755 0.18989864793 
0.18911959304 0.18807970388 0.18666697953 0.18471834103 0.18206122525 0.17855756159 0.17414017043 0.16883366931 0.16275592904 
0.15610144828 0.14911300595 0.1420506087 0.13516582739 0.12868555494 0.12280433427 0.11768128261 0.11343638805 0.1101364757 
0.10775770777 0.10617170038 0.10519750251 0.10464512369 0.10433298656 0.10409484642 0.10378333281 0.10327561502 0.10248684857 
0.10140105991 0.10001935074 0.098364367069 0.096525136312 0.09462782496 0.092820816901 0.09124621703 0.090081074995 0.089509188543 
0.08940654123 0.089696780551 0.090257116462 0.090950160871 0.091599490451 0.091990782519 0.091904082606 0.091145459813 0.089567013212 
0.087078677754 0.083654314694 0.079332149876 0.074208572075 0.068425153495 0.062150931215 0.055563704104 0.048834117351 0.042114984413 
0.035536863012 0.029209987858 0.023231694742 0.017696872832 0.012707544972 0.0083776013285 0.0048301090479 0.0021869406558 0.00055308051294 
3.318166527e-17 
