# vtk DataFile Version 5.1
vtk output
ASCII
DATASET POLYDATA
POINTS 100 float
0.057263 0.0531242 0.634046 0.0572915 0.0533577 0.633958 0.0574259 0.0538846 0.633548 
0.0576339 0.0546445 0.632793 0.0578673 0.0555456 0.631659 0.0580699 0.0564771 0.630096 
0.0581868 0.057323 0.628045 0.058173 0.0579772 0.625441 0.0580011 0.0583568 0.622214 
0.0576646 0.0584124 0.618293 0.0571786 0.0581325 0.613615 0.0565761 0.0575443 0.608127 
0.0559003 0.0567078 0.601788 0.0551956 0.055706 0.594579 0.054496 0.0546317 0.586502 
0.0538162 0.0535735 0.577581 0.0531436 0.0526021 0.567864 0.0524349 0.0517593 0.557418 
0.0516173 0.051052 0.546328 0.0505941 0.0504503 0.53469 0.0492546 0.0498918 0.522605 
0.0474869 0.0492909 0.51017 0.0451921 0.0485513 0.497478 0.0422969 0.0475815 0.484603 
0.0387646 0.0463092 0.471603 0.0346002 0.0446946 0.458517 0.0298514 0.0427397 0.445358 
0.0246032 0.0404921 0.432124 0.0189674 0.0380438 0.418792 0.013069 0.0355237 0.405329 
0.00702979 0.0330858 0.391692 0.000953262 0.0308941 0.377835 -0.00508825 0.0291055 0.363714 
-0.0110615 0.0278541 0.349285 -0.0169744 0.0272377 0.334513 -0.0228713 0.0273087 0.319367 
-0.0288223 0.0280698 0.303819 -0.0349077 0.0294758 0.287846 -0.0411997 0.0314408 0.271427 
-0.0477441 0.0338486 0.254536 -0.0545439 0.0365675 0.237148 -0.0615483 0.0394646 0.219238 
-0.0686485 0.0424195 0.200778 -0.0756806 0.0453359 0.181742 -0.082437 0.0481488 0.162115 
-0.0886835 0.0508269 0.141888 -0.0941817 0.0533708 0.12107 -0.0987128 0.0558066 0.0996873 
-0.102101 0.0581767 0.0777871 -0.104231 0.0605289 0.0554377 -0.105062 0.0629053 0.032726 
-0.104631 0.0653327 0.00975446 -0.103049 0.0678161 -0.0133655 -0.100485 0.0703353 -0.0365196 
-0.0971527 0.0728452 -0.0595986 -0.0932793 0.0752806 -0.0825044 -0.0890852 0.0775625 -0.105156 
-0.0847589 0.0796076 -0.127494 -0.0804387 0.0813366 -0.149478 -0.0762007 0.0826832 -0.171091 
-0.0720557 0.0835999 -0.192331 -0.0679539 0.0840618 -0.213206 -0.0637977 0.0840666 -0.233728 
-0.05946 0.0836324 -0.25391 -0.0548052 0.0827923 -0.273752 -0.0497114 0.0815881 -0.293244 
-0.0440887 0.0800628 -0.312361 -0.0378936 0.0782544 -0.331065 -0.0311356 0.0761912 -0.349307 
-0.023877 0.0738887 -0.367032 -0.0162254 0.0713504 -0.384189 -0.00832056 0.0685696 -0.400733 
-0.000317621 0.0655345 -0.416634 0.00763089 0.0622338 -0.43188 0.0153913 0.0586628 -0.446481 
0.0228611 0.054829 -0.460462 0.0299761 0.0507555 -0.473866 0.0367106 0.046483 -0.486739 
0.0430721 0.0420689 -0.499128 0.0490904 0.0375836 -0.511069 0.0548037 0.033106 -0.522578 
0.0602439 0.0287166 -0.533646 0.0654236 0.0244909 -0.544234 0.0703271 0.0204929 -0.554275 
0.0749064 0.0167711 -0.56368 0.0790841 0.0133551 -0.572342 0.082762 0.0102556 -0.580153 
0.085835 0.00746611 -0.587012 0.088208 0.00496702 -0.592843 0.0898128 0.00273058 -0.597604 
0.090624 0.00072652 -0.601298 0.0906694 -0.00107268 -0.603974 0.0900348 -0.0026876 -0.605733 
0.0888606 -0.00412934 -0.606714 0.0873318 -0.00539884 -0.60709 0.0856611 -0.00648803 -0.607049 
0.0840677 -0.00738257 -0.606778 0.0827542 -0.00806541 -0.606446 0.0818844 -0.00852068 -0.606187 
0.0815654 -0.00873706 -0.606088 
LINES 2 100
OFFSETS vtktypeint64
0 100 
CONNECTIVITY vtktypeint64
0 1 2 3 4 5 6 7 8 
9 10 11 12 13 14 15 16 17 
18 19 20 21 22 23 24 25 26 
27 28 29 30 31 32 33 34 35 
36 37 38 39 40 41 42 43 44 
45 46 47 48 49 50 51 52 53 
54 55 56 57 58 59 60 61 62 
63 64 65 66 67 68 69 70 71 
72 73 74 75 76 77 78 79 80 
81 82 83 84 85 86 87 88 89 
90 91 92 93 94 95 96 97 98 
99 
POINT_DATA 100
FIELD FieldData 3
_theta 1 100 double
0 0.031733259127 0.063466518254 0.095199777382 0.12693303651 0.15866629564 0.19039955476 0.22213281389 0.25386607302 
0.28559933214 0.31733259127 0.3490658504 0.38079910953 0.41253236865 0.44426562778 0.47599888691 0.50773214603 0.53946540516 
0.57119866429 0.60293192342 0.63466518254 0.66639844167 0.6981317008 0.72986495992 0.76159821905 0.79333147818 0.82506473731 
0.85679799643 0.88853125556 0.92026451469 0.95199777382 0.98373103294 1.0154642921 1.0471975512 1.0789308103 1.1106640695 
1.1423973286 1.1741305877 1.2058638468 1.237597106 1.2693303651 1.3010636242 1.3327968833 1.3645301425 1.3962634016 
1.4279966607 1.4597299198 1.491463179 1.5231964381 1.5549296972 1.5866629564 1.6183962155 1.6501294746 1.6818627337 
1.7135959929 1.745329252 1.7770625111 1.8087957702 1.8405290294 1.8722622885 1.9039955476 1.9357288068 1.9674620659 
1.999195325 2.0309285841 2.0626618433 2.0943951024 2.1261283615 2.1578616206 2.1895948798 2.2213281389 2.253061398 
2.2847946572 2.3165279163 2.3482611754 2.3799944345 2.4117276937 2.4434609528 2.4751942119 2.506927471 2.5386607302 
2.5703939893 2.6021272484 2.6338605076 2.6655937667 2.6973270258 2.7290602849 2.7607935441 2.7925268032 2.8242600623 
2.8559933214 2.8877265806 2.9194598397 2.9511930988 2.982926358 3.0146596171 3.0463928762 3.0781261353 3.1098593945 
3.1415926536 
_radius 1 100 double
1.2220532833e-15 0.013173483709 0.026275631516 0.039231535359 0.051971518415 0.064432634212 0.076559085566 0.088301831953 0.099617834224 
0.11046937461 0.12082373909 0.13065335339 0.13993630041 0.1486570508 0.15680720623 0.16438607021 0.17140090196 0.17786676042 
0.18380589734 0.18924670919 0.19422230932 0.19876883232 0.20292362265 0.2067234672 0.21020298323 0.21339315491 0.21631984759 
0.21900199363 0.22144915087 0.22365837569 0.2256108301 0.22726911525 0.22857671275 0.22946081157 0.22983908212 0.22962985798 
0.22876418256 0.22719767975 0.22492029792 0.22196246185 0.21839679597 0.21433520767 0.20992170247 0.20532184366 0.20071022146 
0.19625754427 0.1921188956 0.188424328 0.18527244175 0.18272707513 0.18081674393 0.1795360355 0.17884804045 0.17868743218 
0.1789648114 0.17957352678 0.1803995569 0.18133343561 0.18228179837 0.18317590157 0.18397546057 0.18466770185 0.18526283423 
0.18578762952 0.18627841612 0.18677409961 0.18730946318 0.18790906539 0.18858224586 0.18931980889 0.19009280143 0.19085347335 
0.19153812081 0.19207121995 0.19237015988 0.19234996517 0.1919275619 0.19102529904 0.18957356345 0.18751243711 0.18479245577 
0.1813746339 0.17722999251 0.17233882788 0.16668987506 0.16027938175 0.15310999741 0.14518939192 0.136528689 0.12714107162 
0.11704114388 0.10624564431 0.094775807887 0.082661131017 0.069943725836 0.056682126024 0.042953486698 0.02885355512 0.014494357156 
7.0145858367e-16 
_area 1 100 double
0 0.00047486529474 0.0018895035192 0.004214351258 0.0074012044135 0.011384934065 0.016086037485 0.021413959872 0.027270828486 
0.033554919087 0.040163069014 0.046991659666 0.053936790582 0.060895254301 0.067767806854 0.074464805984 0.080912789762 0.087060089327 
0.092879927075 0.098369991519 0.10354805087 0.10844405169 0.11309046444 0.11751389871 0.12173121127 0.12575165751 0.12958345689 
0.13324019455 0.13674173872 0.14010646726 0.14333534287 0.14639168069 0.14918249139 0.15154866844 0.15327177827 0.15410343412 
0.15381645265 0.15226402677 0.14942480428 0.14541816654 0.14048684348 0.13495346929 0.12916335783 0.12342874265 0.11798830788 
0.11298872133 0.10848622776 0.10446431058 0.10087075633 0.097710295347 0.095183318375 0.093106102123 0.091316556763 0.089801100882 
0.088583200763 0.08765974654 0.086970835051 0.086415669772 0.085893580312 0.085336291255 0.084718055478 0.084049073835 0.083362733196 
0.082704594298 0.082125605737 0.081677870253 0.081411056804 0.081369038067 0.081586226073 0.082082341788 0.082855661312 0.083877367987 
0.085090048193 0.086410621256 0.087735351664 0.088944936112 0.089909678178 0.090495786336 0.090573299094 0.090025081653 0.088755621111 
0.086698170294 0.083819140513 0.080119482036 0.075633721094 0.070427735199 0.064596043185 0.058258732492 0.051557693238 0.044651877497 
0.03771172088 0.030913213772 0.024432037203 0.018437774935 0.013087954359 0.008521946548 0.0048554691976 0.0021769881756 0.00054701504783 
3.757625932e-17 
