# vtk DataFile Version 5.1
vtk output
ASCII
DATASET POLYDATA
POINTS 100 float
0.0324971 0.0487777 0.679622 0.0326381 0.0489474 0.679234 0.0330678 0.0492975 0.677925 
0.0337363 0.0497909 0.675742 0.0345675 0.0503711 0.672763 0.0354699 0.050969 0.669077 
0.0363476 0.0515113 0.66478 0.0371134 0.0519292 0.659959 0.0376996 0.052166 0.654684 
0.0380662 0.0521844 0.648995 0.0382054 0.0519702 0.642901 0.0381411 0.0515337 0.63638 
0.0379239 0.050908 0.629383 0.0376223 0.050145 0.621842 0.0373109 0.0493083 0.613682 
0.0370571 0.0484655 0.604835 0.0369085 0.04768 0.595247 0.0368828 0.0470028 0.584895 
0.0369605 0.0464669 0.573786 0.0370836 0.0460832 0.561966 0.0371579 0.0458388 0.549512 
0.0370619 0.0456996 0.536531 0.0366577 0.0456136 0.523144 0.0358067 0.0455175 0.50948 
0.0343843 0.0453441 0.495662 0.0322945 0.0450302 0.481793 0.0294813 0.044524 0.46795 
0.0259359 0.0437911 0.454175 0.0216987 0.0428183 0.440478 0.0168551 0.041616 0.426835 
0.0115268 0.0402166 0.413192 0.00585903 0.0386724 0.399478 4.38974e-06 0.0370507 0.38561 
-0.00589318 0.0354276 0.371504 -0.0117134 0.0338824 0.357081 -0.0173714 0.0324913 0.342275 
-0.0228251 0.0313225 0.327034 -0.0280762 0.0304323 0.311322 -0.0331665 0.0298632 0.295118 
-0.038168 0.0296433 0.278409 -0.0431693 0.0297875 0.26119 -0.0482593 0.0302994 0.243457 
-0.0535105 0.031174 0.225201 -0.0589637 0.0324005 0.206415 -0.0646163 0.0339653 0.187085 
-0.0704154 0.0358531 0.167199 -0.0762567 0.0380487 0.146747 -0.0819898 0.0405363 0.12573 
-0.0874287 0.0432992 0.104161 -0.092367 0.0463179 0.0820707 -0.0965958 0.0495685 0.0595089 
-0.0999225 0.0530211 0.0365452 -0.102188 0.0566381 0.0132652 -0.103282 0.0603733 -0.0102338 
-0.10315 0.0641727 -0.0338494 -0.101801 0.0679742 -0.0574814 -0.0993002 0.0717104 -0.0810391 
-0.095765 0.0753098 -0.104446 -0.0913497 0.0787 -0.127645 -0.0862297 0.0818096 -0.150596 
-0.0805841 0.0845711 -0.173278 -0.0745781 0.0869223 -0.195681 -0.0683485 0.0888076 -0.217799 
-0.061993 0.0901794 -0.239628 -0.0555644 0.0909974 -0.261151 -0.0490707 0.0912293 -0.282341 
-0.0424802 0.0908503 -0.30315 -0.0357316 0.0898427 -0.323518 -0.0287477 0.0881964 -0.343367 
-0.0214497 0.0859089 -0.362615 -0.0137733 0.0829862 -0.38118 -0.00568128 0.0794437 -0.398992 
0.0028258 0.0753073 -0.416001 0.0117041 0.0706145 -0.432182 0.0208658 0.0654149 -0.447539 
0.0301827 0.0597704 -0.462107 0.0394953 0.0537542 -0.475946 0.0486248 0.04745 -0.489131 
0.0573869 0.0409486 -0.501742 0.0656072 0.0343457 -0.513851 0.0731342 0.0277377 -0.525511 
0.0798514 0.021218 -0.536743 0.0856849 0.0148733 -0.547531 0.0906072 0.0087805 -0.557819 
0.0946369 0.00300372 -0.567517 0.0978334 -0.00240699 -0.576508 0.10029 -0.00741631 -0.58466 
0.10212 -0.0120031 -0.591849 0.103452 -0.0161591 -0.597969 0.104409 -0.0198867 -0.602952 
0.105106 -0.0231963 -0.606782 0.105637 -0.0261036 -0.609499 0.106073 -0.0286272 -0.611204 
0.106459 -0.0307859 -0.61205 0.106816 -0.0325974 -0.612233 0.107144 -0.0340769 -0.611971 
0.107431 -0.0352362 -0.611485 0.107655 -0.0360841 -0.610975 0.107796 -0.0366259 -0.610603 
0.107839 -0.0368643 -0.610472 
LINES 2 100
OFFSETS vtktypeint64
0 100 
CONNECTIVITY vtktypeint64
0 1 2 3 4 5 6 7 8 
9 10 11 12 13 14 15 16 17 
18 19 20 21 22 23 24 25 26 
27 28 29 30 31 32 33 34 35 
36 37 38 39 40 41 42 43 44 
45 46 47 48 49 50 51 52 53 
54 55 56 57 58 59 60 61 62 
63 64 65 66 67 68 69 70 71 
72 73 74 75 76 77 78 79 80 
81 82 83 84 85 86 87 88 89 
90 91 92 93 94 95 96 97 98 
99 
POINT_DATA 100
FIELD FieldData 3
_theta 1 100 double
0 0.031733259127 0.063466518254 0.095199777382 0.12693303651 0.15866629564 0.19039955476 0.22213281389 0.25386607302 
0.28559933214 0.31733259127 0.3490658504 0.38079910953 0.41253236865 0.44426562778 0.47599888691 0.50773214603 0.53946540516 
0.57119866429 0.60293192342 0.63466518254 0.66639844167 0.6981317008 0.72986495992 0.76159821905 0.79333147818 0.82506473731 
0.85679799643 0.88853125556 0.92026451469 0.95199777382 0.98373103294 1.0154642921 1.0471975512 1.0789308103 1.1106640695 
1.1423973286 1.1741305877 1.2058638468 1.237597106 1.2693303651 1.3010636242 1.3327968833 1.3645301425 1.3962634016 
1.4279966607 1.4597299198 1.491463179 1.5231964381 1.5549296972 1.5866629564 1.6183962155 1.6501294746 1.6818627337 
1.7135959929 1.745329252 1.7770625111 1.8087957702 1.8405290294 1.8722622885 1.9039955476 1.9357288068 1.9674620659 
1.999195325 2.0309285841 2.0626618433 2.0943951024 2.1261283615 2.1578616206 2.1895948798 2.2213281389 2.253061398 
2.2847946572 2.3165279163 2.3482611754 2.3799944345 2.4117276937 2.4434609528 2.4751942119 2.506927471 2.5386607302 
2.5703939893 2.6021272484 2.6338605076 2.6655937667 2.6973270258 2.7290602849 2.7607935441 2.7925268032 2.8242600623 
2.8559933214 2.8877265806 2.9194598397 2.9511930988 2.982926358 3.0146596171 3.0463928762 3.0781261353 3.1098593945 
3.1415926536 
_radius 1 100 double
1.4442570499e-15 0.012783416184 0.025575495242 0.038366474088 0.051128121923 0.063809497103 0.076336669683 0.088616108557 0.10054095054 
0.11199915706 0.12288251052 0.13309543219 0.14256271283 0.15123545996 0.15909486713 0.16615371247 0.17245566856 0.1780724795 
0.18309890793 0.1876453025 0.19182792105 0.19575780166 0.19952974608 0.20321343734 0.20684850194 0.21044438867 0.21398457116 
0.21743334314 0.22074290711 0.22385880314 0.22672278922 0.2292735461 0.23144647864 0.23317409505 0.23438799159 0.23502266545 
0.23502062083 0.2343378089 0.23294843218 0.23084846071 0.22805767424 0.22462047118 0.22060590958 0.21610735771 0.21124170728 
0.20614744824 0.20098032097 0.19590520886 0.19108380307 0.18665933111 0.18274164102 0.17939709385 0.17664704512 0.1744759256 
0.17284603716 0.17171313368 0.17103644102 0.17077941246 0.17090208832 0.17135023429 0.17204808554 0.17289940856 0.17379708457 
0.17463750541 0.17533476476 0.17583070001 0.17609892454 0.17614297121 0.17599003967 0.17568246999 0.17526899191 0.17479718093 
0.17430767431 0.17382992466 0.17337890615 0.17295232517 0.17252832766 0.17206408872 0.17149575725 0.17073999637 0.16969700913 
0.16825470248 0.16629361034 0.16369228394 0.1603329338 0.15610713745 0.15092145347 0.14470280129 0.13740340046 0.12900486999 
0.1195208564 0.10899746999 0.097511005564 0.085162915844 0.072072654691 0.058369585528 0.044185435649 0.029648647948 0.014881479466 
1.0129154174e-15 
_area 1 100 double
0 0.0004940222642 0.001968674982 0.004399397262 0.0077387043205 0.011909999361 0.016804640769 0.022285072477 0.028194798213 
0.034373432851 0.040672803892 0.04696896714 0.05316583383 0.05918927404 0.064975336742 0.070460134437 0.075578859708 0.080276609069 
0.084527206607 0.08835201581 0.091830325052 0.095095156207 0.09831166147 0.10164029678 0.10519645458 0.10902713333 0.11311746366 
0.11741802626 0.12187284954 0.12643326702 0.1310517905 0.13565824185 0.14013017049 0.14427768985 0.1478577028 0.1506135742 
0.15232212188 0.15283081701 0.15207658479 0.15008524326 0.1469554486 0.14283353086 0.13788676739 0.1322831773 0.12618487791 
0.11975697283 0.1131849966 0.10668672948 0.10050455722 0.094873077619 0.089970369838 0.085872414913 0.082536573499 0.079835195535 
0.077619648417 0.075768829184 0.074202205673 0.07286983182 0.071738540913 0.070781111689 0.069972820992 0.069295947978 0.068738766451 
0.068276194875 0.067846580634 0.067364285715 0.066760615177 0.066017252061 0.065208500049 0.064394733083 0.063628337446 0.062963091368 
0.062471332655 0.062093373505 0.061835221474 0.061689490101 0.061651602366 0.061723746144 0.061906051917 0.062178008058 0.06247728428 
0.062688105112 0.062647635506 0.062167828948 0.061063318412 0.059178026198 0.056407516197 0.052715946943 0.04814641454 0.042823105766 
0.036943919226 0.030763396492 0.024567722747 0.018645573871 0.013260010416 0.0086269081859 0.0049041895096 0.0021932511072 0.00055005017432 
3.5775385476e-17 
