# vtk DataFile Version 5.1
vtk output
ASCII
DATASET POLYDATA
POINTS 100 float
0.121986 0.0341102 0.655593 0.122327 0.0343536 0.655454 0.12337 0.0349087 0.654892 
0.124986 0.035728 0.653897 0.12698 0.0367403 0.652455 0.129111 0.03786 0.650541 
0.131123 0.0389993 0.648125 0.13277 0.0400793 0.645168 0.133846 0.0410405 0.641623 
0.134206 0.0418497 0.637438 0.133775 0.0425036 0.632561 0.132549 0.0430268 0.626941 
0.130595 0.043467 0.620538 0.128024 0.0438851 0.613327 0.124976 0.0443441 0.605304 
0.121594 0.0448975 0.596488 0.117996 0.0455783 0.586926 0.114262 0.0463915 0.57669 
0.110416 0.0473102 0.565873 0.106425 0.0482767 0.554587 0.102205 0.0492077 0.542951 
0.0976357 0.0500043 0.53108 0.0925795 0.0505642 0.519082 0.0869074 0.0507952 0.507043 
0.0805214 0.050628 0.495024 0.0733748 0.0500267 0.483055 0.065485 0.048995 0.471135 
0.0569379 0.0475784 0.459233 0.0478825 0.0458602 0.447295 0.0385164 0.0439544 0.435249 
0.0290643 0.0419932 0.423016 0.0197516 0.0401137 0.410518 0.0107778 0.0384438 0.397682 
0.00229254 0.0370891 0.384452 -0.00562283 0.0361234 0.370783 -0.0129638 0.0355832 0.356649 
-0.0198019 0.0354666 0.342033 -0.0262731 0.0357372 0.326926 -0.0325579 0.036332 0.311318 
-0.038854 0.0371716 0.295193 -0.0453469 0.0381726 0.278523 -0.0521807 0.0392586 0.261269 
-0.0594333 0.04037 0.243376 -0.0670993 0.0414703 0.22478 -0.0750831 0.0425486 0.205415 
-0.0832026 0.0436187 0.185223 -0.091203 0.0447137 0.164162 -0.0987803 0.0458789 0.142222 
-0.10561 0.0471624 0.119426 -0.111377 0.0486072 0.0958433 -0.11581 0.0502427 0.0715879 
-0.118703 0.0520804 0.0468149 -0.119937 0.0541119 0.0217132 -0.119486 0.0563094 -0.00350623 
-0.117417 0.0586308 -0.0286263 -0.113884 0.0610247 -0.05344 -0.109103 0.0634378 -0.0777667 
-0.103333 0.0658212 -0.101466 -0.0968508 0.0681351 -0.124448 -0.0899233 0.0703513 -0.146677 
-0.082789 0.072453 -0.168174 -0.0756415 0.0744313 -0.189003 -0.0686202 0.0762796 -0.209269 
-0.0618088 0.0779873 -0.229095 -0.0552401 0.0795326 -0.248606 -0.0489051 0.0808769 -0.267917 
-0.0427657 0.0819624 -0.287112 -0.0367682 0.082712 -0.306238 -0.0308556 0.083034 -0.325294 
-0.0249769 0.0828292 -0.344236 -0.0190937 0.0820024 -0.362978 -0.0131818 0.0804737 -0.381405 
-0.00723019 0.0781914 -0.399385 -0.00123732 0.0751416 -0.416786 0.00479412 0.0713559 -0.433489 
0.0108618 0.0669137 -0.449405 0.0169672 0.0619395 -0.464481 0.0231159 0.0565953 -0.478711 
0.0293169 0.0510678 -0.492129 0.0355772 0.0455532 -0.504812 0.0418966 0.0402404 -0.516865 
0.048261 0.0352939 -0.528411 0.0546369 0.0308403 -0.539578 0.0609676 0.0269588 -0.550485 
0.0671731 0.0236762 -0.561228 0.0731535 0.0209694 -0.571868 0.0787958 0.0187716 -0.58243 
0.0839843 0.016985 -0.592898 0.0886121 0.0154953 -0.603214 0.0925935 0.0141879 -0.613285 
0.0958747 0.0129626 -0.622993 0.0984411 0.0117463 -0.632198 0.100321 0.0105006 -0.640752 
0.101582 0.00922438 -0.648507 0.102328 0.00795077 -0.655323 0.102683 0.00673966 -0.661073 
0.10278 0.00566635 -0.66565 0.102744 0.00480843 -0.66897 0.102676 0.00423281 -0.670972 
0.102644 0.00398475 -0.671619 
LINES 2 100
OFFSETS vtktypeint64
0 100 
CONNECTIVITY vtktypeint64
0 1 2 3 4 5 6 7 8 
9 10 11 12 13 14 15 16 17 
18 19 20 21 22 23 24 25 26 
27 28 29 30 31 32 33 34 35 
36 37 38 39 40 41 42 43 44 
45 46 47 48 49 50 51 52 53 
54 55 56 57 58 59 60 61 62 
63 64 65 66 67 68 69 70 71 
72 73 74 75 76 77 78 79 80 
81 82 83 84 85 86 87 88 89 
90 91 92 93 94 95 96 97 98 
99 
POINT_DATA 100
FIELD FieldData 3
_theta 1 100 double
0 0.031733259127 0.063466518254 0.095199777382 0.12693303651 0.15866629564 0.19039955476 0.22213281389 0.25386607302 
0.28559933214 0.31733259127 0.3490658504 0.38079910953 0.41253236865 0.44426562778 0.47599888691 0.50773214603 0.53946540516 
0.57119866429 0.60293192342 0.63466518254 0.66639844167 0.6981317008 0.72986495992 0.76159821905 0.79333147818 0.82506473731 
0.85679799643 0.88853125556 0.92026451469 0.95199777382 0.98373103294 1.0154642921 1.0471975512 1.0789308103 1.1106640695 
1.1423973286 1.1741305877 1.2058638468 1.237597106 1.2693303651 1.3010636242 1.3327968833 1.3645301425 1.3962634016 
1.4279966607 1.4597299198 1.491463179 1.5231964381 1.5549296972 1.5866629564 1.6183962155 1.6501294746 1.6818627337 
1.7135959929 1.745329252 1.7770625111 1.8087957702 1.8405290294 1.8722622885 1.9039955476 1.9357288068 1.9674620659 
1.999195325 2.0309285841 2.0626618433 2.0943951024 2.1261283615 2.1578616206 2.1895948798 2.2213281389 2.253061398 
2.2847946572 2.3165279163 2.3482611754 2.3799944345 2.4117276937 2.4434609528 2.4751942119 2.506927471 2.5386607302 
2.5703939893 2.6021272484 2.6338605076 2.6655937667 2.6973270258 2.7290602849 2.7607935441 2.7925268032 2.8242600623 
2.8559933214 2.8877265806 2.9194598397 2.9511930988 2.982926358 3.0146596171 3.0463928762 3.0781261353 3.1098593945 
3.1415926536 
_radius 1 100 double
1.1491780379e-15 0.016330152379 0.032450976175 0.048168318067 0.06332082535 0.07779003816 0.091504259592 0.10443620933 0.11659574238 
0.12801981806 0.1387621205 0.14888421991 0.15844919643 0.167517619 0.17614497265 0.18437925693 0.19225772403 0.19980260033 
0.20701676568 0.21388113161 0.22035542507 0.2263832469 0.23190101095 0.23684919278 0.24118362976 0.24488457332 0.24796170838 
0.25045418647 0.25242562008 0.2539547951 0.2551235085 0.25600339616 0.25664381938 0.25706277204 0.25724236537 0.25712979993 
0.25664387341 0.25568610593 0.25415480611 0.2519601754 0.24903882651 0.24536653781 0.24096838252 0.23592547291 0.23037748462 
0.22451994569 0.21859511486 0.21287543012 0.20763948516 0.20314271269 0.19958795968 0.19710297286 0.19573024158 0.19542997665 
0.19609249737 0.19755473739 0.19961678632 0.20205654336 0.20464233175 0.20714438252 0.20934655453 0.21105938445 0.21213426028 
0.21247664109 0.21205514129 0.21090380613 0.20911653464 0.20683434239 0.20422742134 0.20147465232 0.19874338526 0.19617190279 
0.19385612196 0.19184116736 0.19011795003 0.18862485137 0.18725455987 0.18586559234 0.18429714033 0.18238510806 0.17997696004 
0.17694333984 0.17318517892 0.16863594919 0.16325962044 0.15704558303 0.15000214821 0.14215018745 0.1335180864 0.12413862623 
0.11404783939 0.10328544718 0.091896241241 0.079931733649 0.067451529197 0.054524082542 0.041226700116 0.027644778486 0.013870342907 
3.1617289424e-16 
_area 1 100 double
0 0.00063917265871 0.0025204296639 0.0055414903113 0.0095518679641 0.014377481522 0.019846178248 0.025808607364 0.032150415283 
0.038793790974 0.045689135296 0.05280154348 0.060099614476 0.06755179903 0.075129340159 0.082810575759 0.090581246484 0.098427999546 
0.10632581346 0.11422336757 0.12203233607 0.12962628821 0.13685217985 0.14355352276 0.14960079184 0.15492181967 0.15952279625 
0.16349064793 0.1669717395 0.17012950445 0.17309484456 0.1759328389 0.17864244397 0.18123319074 0.18371859677 0.18567032385 
0.1866668824 0.18640219482 0.18468786083 0.18144111361 0.17670768251 0.17065823848 0.16367620695 0.15611815506 0.14820279571 
0.14023990426 0.13255160676 0.12541689468 0.11904392207 0.11355952823 0.10901081595 0.10539299877 0.1028391411 0.10150057226 
0.10086929944 0.10079793652 0.10116626275 0.10178411268 0.1024128282 0.10282971541 0.10287464091 0.1024673138 0.10160351043 
0.10033777393 0.098748490826 0.09690601171 0.094864618864 0.092675409652 0.090400174376 0.088117348649 0.085922980346 0.08392726897 
0.082247109204 0.080984748813 0.080226284056 0.079915030347 0.079899189562 0.079924637699 0.079734414954 0.079098811402 0.077838781838 
0.075860918562 0.073157399662 0.06981253935 0.065811804115 0.061155334144 0.055945869196 0.050324147621 0.044440354608 0.038442247862 
0.032470590473 0.026658711833 0.021133891391 0.016018859112 0.011432319711 0.0074878401266 0.0042907454452 0.0019330786245 0.00048729606499 
1.3877787808e-17 
