# vtk DataFile Version 5.1
vtk output
ASCII
DATASET POLYDATA
POINTS 100 float
0.10746 0.0341397 0.672953 0.107776 0.0342568 0.672748 0.108753 0.0344066 0.671988 
0.110285 0.0345714 0.670668 0.112205 0.034727 0.668782 0.114307 0.0348469 0.666319 
0.116361 0.0349074 0.663266 0.11814 0.034893 0.659604 0.119439 0.0347996 0.655312 
0.120095 0.0346371 0.650368 0.119998 0.0344292 0.644749 0.119098 0.0342106 0.638441 
0.117402 0.0340231 0.631435 0.114971 0.0339086 0.623737 0.111901 0.0339032 0.615368 
0.108312 0.0340305 0.606367 0.104329 0.0342966 0.596791 0.100065 0.0346875 0.586709 
0.0956075 0.0351686 0.576201 0.0910129 0.0356885 0.565351 0.0863009 0.0361835 0.554238 
0.0814586 0.0365861 0.542928 0.0764482 0.0368337 0.531472 0.0712179 0.0368769 0.519892 
0.0657153 0.0366878 0.508189 0.0598999 0.0362648 0.496334 0.0537538 0.0356349 0.484281 
0.0472883 0.0348529 0.471965 0.0405455 0.0339961 0.45932 0.0335948 0.0331572 0.446279 
0.0265251 0.0324346 0.432794 0.0194328 0.0319216 0.418836 0.012408 0.031697 0.404401 
0.00552109 0.031816 0.389518 -0.00118857 0.0323051 0.374239 -0.00772026 0.0331599 0.358633 
-0.0141139 0.0343463 0.342782 -0.0204463 0.0358059 0.326762 -0.0268216 0.0374632 0.310635 
-0.0333565 0.0392355 0.294435 -0.0401627 0.0410424 0.27816 -0.0473281 0.0428154 0.26177 
-0.0548988 0.0445048 0.245181 -0.0628645 0.0460843 0.228279 -0.0711504 0.047552 0.210921 
-0.079614 0.0489283 0.192957 -0.088051 0.0502508 0.17424 -0.0962073 0.0515671 0.154648 
-0.103797 0.0529265 0.134094 -0.110524 0.0543718 0.112542 -0.11611 0.0559325 0.0900092 
-0.120312 0.0576199 0.0665718 -0.122948 0.0594247 0.0423573 -0.123908 0.0613182 0.0175351 
-0.123168 0.0632552 -0.00769751 -0.120782 0.0651797 -0.0331318 -0.116882 0.0670312 -0.0585653 
-0.11166 0.0687512 -0.0838165 -0.105352 0.0702896 -0.108738 -0.0982109 0.0716083 -0.133225 
-0.0904871 0.0726831 -0.157213 -0.0824063 0.0735037 -0.180684 -0.0741517 0.0740707 -0.20365 
-0.0658522 0.0743913 -0.226144 -0.0575775 0.0744743 -0.248213 -0.0493396 0.0743247 -0.269898 
-0.0411006 0.0739404 -0.291226 -0.0327856 0.0733088 -0.312202 -0.0243 0.072408 -0.332806 
-0.0155466 0.0712081 -0.352991 -0.00644332 0.0696765 -0.372693 0.00306214 0.0677834 -0.391832 
0.0129817 0.0655085 -0.410329 0.0232816 0.0628475 -0.428111 0.0338823 0.0598169 -0.445124 
0.0446641 0.0564565 -0.461336 0.0554773 0.0528294 -0.476744 0.066155 0.0490192 -0.491367 
0.0765282 0.0451239 -0.505249 0.0864404 0.0412481 -0.518444 0.0957608 0.0374942 -0.531007 
0.104394 0.0339531 -0.542989 0.112286 0.0306966 -0.554423 0.119426 0.0277713 -0.565318 
0.125843 0.0251959 -0.575659 0.131598 0.0229616 -0.585406 0.136776 0.0210356 -0.594499 
0.141471 0.0193676 -0.602868 0.145777 0.0178977 -0.610442 0.149774 0.0165655 -0.617161 
0.153523 0.0153185 -0.622986 0.157054 0.0141191 -0.627907 0.16037 0.0129492 -0.631945 
0.163442 0.0118114 -0.635153 0.166221 0.0107279 -0.637611 0.168639 0.00973547 -0.639418 
0.170623 0.00887952 -0.640678 0.172101 0.00820631 -0.641492 0.173014 0.00775548 -0.641939 
0.173325 0.00755371 -0.642073 
LINES 2 100
OFFSETS vtktypeint64
0 100 
CONNECTIVITY vtktypeint64
0 1 2 3 4 5 6 7 8 
9 10 11 12 13 14 15 16 17 
18 19 20 21 22 23 24 25 26 
27 28 29 30 31 32 33 34 35 
36 37 38 39 40 41 42 43 44 
45 46 47 48 49 50 51 52 53 
54 55 56 57 58 59 60 61 62 
63 64 65 66 67 68 69 70 71 
72 73 74 75 76 77 78 79 80 
81 82 83 84 85 86 87 88 89 
90 91 92 93 94 95 96 97 98 
99 
POINT_DATA 100
FIELD FieldData 3
_theta 1 100 double
0 0.031733259127 0.063466518254 0.095199777382 0.12693303651 0.15866629564 0.19039955476 0.22213281389 0.25386607302 
0.28559933214 0.31733259127 0.3490658504 0.38079910953 0.41253236865 0.44426562778 0.47599888691 0.50773214603 0.53946540516 
0.57119866429 0.60293192342 0.63466518254 0.66639844167 0.6981317008 0.72986495992 0.76159821905 0.79333147818 0.82506473731 
0.85679799643 0.88853125556 0.92026451469 0.95199777382 0.98373103294 1.0154642921 1.0471975512 1.0789308103 1.1106640695 
1.1423973286 1.1741305877 1.2058638468 1.237597106 1.2693303651 1.3010636242 1.3327968833 1.3645301425 1.3962634016 
1.4279966607 1.4597299198 1.491463179 1.5231964381 1.5549296972 1.5866629564 1.6183962155 1.6501294746 1.6818627337 
1.7135959929 1.745329252 1.7770625111 1.8087957702 1.8405290294 1.8722622885 1.9039955476 1.9357288068 1.9674620659 
1.999195325 2.0309285841 2.0626618433 2.0943951024 2.1261283615 2.1578616206 2.1895948798 2.2213281389 2.253061398 
2.2847946572 2.3165279163 2.3482611754 2.3799944345 2.4117276937 2.4434609528 2.4751942119 2.506927471 2.5386607302 
2.5703939893 2.6021272484 2.6338605076 2.6655937667 2.6973270258 2.7290602849 2.7607935441 2.7925268032 2.8242600623 
2.8559933214 2.8877265806 2.9194598397 2.9511930988 2.982926358 3.0146596171 3.0463928762 3.0781261353 3.1098593945 
3.1415926536 
_radius 1 100 double
7.9139902572e-16 0.014393733131 0.028691510828 0.042787453711 0.056577804348 0.069964602234 0.082861036318 0.095197876701 0.10692965925 
0.11803892717 0.12853707393 0.13846114137 0.14786698342 0.15682007894 0.1653856639 0.17361971154 0.1815617823 0.18923012258 
0.19661884806 0.20369686981 0.21040856537 0.21667683982 0.22240958168 0.22751009654 0.23189092788 0.23548908478 0.23827973961 
0.24028533771 0.24157781037 0.24227294421 0.24251753063 0.2424712789 0.24228630657 0.24208719517 0.24195421515 0.24191165746 
0.24192255979 0.24189061823 0.24166961264 0.24108000938 0.23993144831 0.23804875327 0.23529824841 0.23161077208 0.22699795116 
0.22155901797 0.21547664669 0.20900185314 0.20242976155 0.19606970649 0.19021430487 0.18511237524 0.18094957802 0.17783838076 
0.17581598038 0.17484653571 0.17482432928 0.17557797867 0.17688013393 0.17846760432 0.18007186383 0.18145369433 0.18243355727 
0.18291146066 0.1828736993 0.18238687905 0.18158165986 0.18062969043 0.17971731924 0.17901921136 0.17867451694 0.17876795265 
0.1793178492 0.18027256556 0.18151556304 0.18287806917 0.18415706836 0.18513573188 0.18560344844 0.18537313178 0.18429417102 
0.18226008901 0.17921065872 0.17512889237 0.17003388435 0.16397084293 0.1569997345 0.1491838715 0.1405796688 0.13122879125 
0.12115396218 0.11035956954 0.098837640808 0.086578690256 0.073585617381 0.059887747777 0.045551757015 0.030686804404 0.015442513803 
1.4879722666e-15 
_area 1 100 double
0 0.00059626751628 0.0023637001125 0.0052389716307 0.0091194875268 0.013868841416 0.019326012543 0.02531867417 0.031679589052 
0.038263334969 0.044959513391 0.051699056044 0.058452264457 0.065219750547 0.072019225064 0.078871575695 0.085789160907 0.092768113863 
0.099784917924 0.10679611559 0.11373971449 0.12053791269 0.12710182619 0.13333815544 0.13915528204 0.14446530746 0.14918265159 
0.15322671999 0.15653637054 0.15909387946 0.16094725523 0.16222178981 0.16312078393 0.16392370444 0.16491942538 0.16616251418 
0.16749181096 0.16870180851 0.16955228724 0.16978836144 0.16916916131 0.16748987406 0.16460899819 0.1604694825 0.15511911183 
0.14871949708 0.14153548942 0.13390852169 0.12621897535 0.11884238595 0.11210446754 0.10624065045 0.10136758403 0.097476441045 
0.094455715839 0.092140029968 0.090365670816 0.089006922385 0.087977631911 0.087196489578 0.086539525887 0.085835070433 0.084920338656 
0.083702316402 0.082175415752 0.080403578004 0.078492891574 0.076571851189 0.074780293923 0.073259499048 0.072139186786 0.071524467715 
0.07147597684 0.072066739336 0.073380983361 0.075048918888 0.076786722857 0.078403779136 0.079714601596 0.080532644951 0.080675312597 
0.07997936197 0.078322232329 0.075641509709 0.071945629228 0.067312849198 0.061879749686 0.055823274331 0.049341318509 0.042636354856 
0.03590488073 0.029332958337 0.02309560695 0.017356443468 0.012264596895 0.007948404841 0.0045084171724 0.0020137852238 0.00050473134924 
3.094918674e-17 
