# vtk DataFile Version 5.1
vtk output
ASCII
DATASET POLYDATA
POINTS 100 float
0.0287636 0.0672841 0.724913 0.0287868 0.0673078 0.724533 0.0289113 0.0672012 0.723205 
0.0291392 0.0669632 0.720924 0.0294728 0.0665937 0.717687 0.0299134 0.0660961 0.713496 
0.0304599 0.0654783 0.708356 0.0311074 0.064755 0.702285 0.0318453 0.0639486 0.695309 
0.0326562 0.0630887 0.687467 0.0335146 0.0622117 0.678815 0.034386 0.0613578 0.669422 
0.0352266 0.060568 0.65937 0.0359847 0.0598799 0.648755 0.0366013 0.0593232 0.637676 
0.0370128 0.0589163 0.62624 0.0371541 0.0586627 0.61455 0.0369621 0.0585496 0.6027 
0.0363799 0.0585478 0.590774 0.0353608 0.0586136 0.578836 0.0338717 0.0586927 0.56693 
0.0318965 0.0587246 0.555076 0.0294376 0.058649 0.543269 0.0265164 0.0584118 0.531484 
0.0231723 0.0579708 0.519674 0.0194602 0.0573005 0.507778 0.0154458 0.0563949 0.495726 
0.0112008 0.0552685 0.483443 0.00679652 0.0539551 0.470859 0.0022983 0.0525045 0.457909 
-0.0022407 0.0509779 0.444545 -0.00678379 0.0494419 0.430729 -0.0113137 0.047962 0.416441 
-0.0158333 0.0465971 0.401678 -0.0203646 0.0453944 0.386446 -0.0249443 0.0443861 0.370759 
-0.0296187 0.0435885 0.354637 -0.0344362 0.0430023 0.338093 -0.0394388 0.0426155 0.321139 
-0.0446541 0.0424077 0.303774 -0.0500877 0.0423544 0.285986 -0.0557169 0.0424331 0.267753 
-0.0614873 0.0426272 0.249041 -0.0673118 0.04293 0.229814 -0.0730724 0.0433463 0.210032 
-0.0786256 0.0438927 0.189664 -0.0838096 0.0445955 0.168688 -0.0884548 0.0454871 0.147099 
-0.0923939 0.0466012 0.124915 -0.0954741 0.0479673 0.102175 -0.0975669 0.0496051 0.0789399 
-0.0985773 0.0515199 0.0552926 -0.0984506 0.053699 0.031331 -0.0971753 0.0561104 0.00716293 
-0.0947832 0.0587025 -0.0171009 -0.0913468 0.0614069 -0.0413543 -0.0869725 0.0641425 -0.0655021 
-0.0817923 0.0668203 -0.0894656 -0.0759534 0.0693502 -0.113186 -0.0696075 0.0716466 -0.136627 
-0.0629004 0.0736346 -0.159772 -0.0559619 0.075254 -0.182621 -0.0488994 0.0764628 -0.205189 
-0.0417921 0.0772382 -0.227497 -0.0346897 0.0775764 -0.249567 -0.0276125 0.0774902 -0.271417 
-0.0205554 0.0770058 -0.293052 -0.0134934 0.0761589 -0.314469 -0.0063884 0.0749899 -0.335645 
0.000802765 0.0735398 -0.356544 0.00812044 0.0718465 -0.377119 0.0155951 0.0699424 -0.39731 
0.0232418 0.0678527 -0.417054 0.031056 0.0655952 -0.436285 0.039012 0.0631813 -0.454941 
0.047063 0.0606172 -0.472965 0.0551436 0.0579068 -0.490309 0.0631737 0.0550538 -0.506931 
0.0710632 0.0520642 -0.522801 0.0787183 0.048948 -0.537892 0.0860471 0.0457211 -0.552184 
0.0929652 0.0424052 -0.565659 0.0994002 0.0390283 -0.5783 0.105296 0.0356234 -0.590088 
0.110613 0.0322274 -0.601006 0.115333 0.0288794 -0.611035 0.119454 0.0256185 -0.620161 
0.122992 0.0224825 -0.628373 0.125978 0.019506 -0.63567 0.128453 0.0167192 -0.642063 
0.130467 0.0141474 -0.647574 0.132075 0.0118104 -0.65224 0.133332 0.00972282 -0.656114 
0.134293 0.00789438 -0.659258 0.13501 0.0063308 -0.661744 0.135528 0.00503461 -0.663645 
0.135885 0.00400619 -0.665035 0.136113 0.0032447 -0.665975 0.136235 0.00274895 -0.666515 
0.136264 0.00251811 -0.666687 
LINES 2 100
OFFSETS vtktypeint64
0 100 
CONNECTIVITY vtktypeint64
0 1 2 3 4 5 6 7 8 
9 10 11 12 13 14 15 16 17 
18 19 20 21 22 23 24 25 26 
27 28 29 30 31 32 33 34 35 
36 37 38 39 40 41 42 43 44 
45 46 47 48 49 50 51 52 53 
54 55 56 57 58 59 60 61 62 
63 64 65 66 67 68 69 70 71 
72 73 74 75 76 77 78 79 80 
81 82 83 84 85 86 87 88 89 
90 91 92 93 94 95 96 97 98 
99 
POINT_DATA 100
FIELD FieldData 3
_theta 1 100 double
0 0.031733259127 0.063466518254 0.095199777382 0.12693303651 0.15866629564 0.19039955476 0.22213281389 0.25386607302 
0.28559933214 0.31733259127 0.3490658504 0.38079910953 0.41253236865 0.44426562778 0.47599888691 0.50773214603 0.53946540516 
0.57119866429 0.60293192342 0.63466518254 0.66639844167 0.6981317008 0.72986495992 0.76159821905 0.79333147818 0.82506473731 
0.85679799643 0.88853125556 0.92026451469 0.95199777382 0.98373103294 1.0154642921 1.0471975512 1.0789308103 1.1106640695 
1.1423973286 1.1741305877 1.2058638468 1.237597106 1.2693303651 1.3010636242 1.3327968833 1.3645301425 1.3962634016 
1.4279966607 1.4597299198 1.491463179 1.5231964381 1.5549296972 1.5866629564 1.6183962155 1.6501294746 1.6818627337 
1.7135959929 1.745329252 1.7770625111 1.8087957702 1.8405290294 1.8722622885 1.9039955476 1.9357288068 1.9674620659 
1.999195325 2.0309285841 2.0626618433 2.0943951024 2.1261283615 2.1578616206 2.1895948798 2.2213281389 2.253061398 
2.2847946572 2.3165279163 2.3482611754 2.3799944345 2.4117276937 2.4434609528 2.4751942119 2.506927471 2.5386607302 
2.5703939893 2.6021272484 2.6338605076 2.6655937667 2.6973270258 2.7290602849 2.7607935441 2.7925268032 2.8242600623 
2.8559933214 2.8877265806 2.9194598397 2.9511930988 2.982926358 3.0146596171 3.0463928762 3.0781261353 3.1098593945 
3.1415926536 
_radius 1 100 double
5.7169074819e-16 0.014061958958 0.02798467964 0.041631281381 0.054880819087 0.067634550778 0.079820344004 0.09139517122 0.10234581164 
0.11268789797 0.12246338645 0.1317364797 0.14058805504 0.14910875734 0.15739108512 0.16552100501 0.1735698381 0.18158730053 
0.18959655702 0.19759189788 0.20553921771 0.21337900091 0.22103118557 0.22840119711 0.23538659625 0.24188402971 0.24779632023 
0.2530394697 0.25754909364 0.2612855018 0.26423648156 0.26641698022 0.26786534426 0.2686364409 0.26879264245 0.26839410291 
0.26748991654 0.26611164492 0.26427038629 0.2619580713 0.2591530405 0.25582927253 0.25196801113 0.24757009518 0.2426670842 
0.23732928681 0.23166901351 0.22583779799 0.22001703561 0.21440257841 0.20918528544 0.20453100267 0.20056417668 0.19735849043 
0.19493549182 0.19326930279 0.19229383371 0.19190941403 0.19198791274 0.19237784352 0.19291214044 0.19342046721 0.19374554411 
0.19376057634 0.19338387142 0.192587375 0.19139740055 0.1898875088 0.18816492823 0.18635297142 0.18457251827 0.18292571399 
0.18148445255 0.18028490195 0.17932749233 0.17858019424 0.1779824956 0.17744845766 0.17686881652 0.17611329018 0.17503457976 
0.173475089 0.17127640011 0.16829042099 0.16439033859 0.15947943989 0.15349647933 0.14641722366 0.13825265986 0.12904484283 
0.11886144609 0.10778986959 0.095931424226 0.083395809738 0.070295948634 0.056743280335 0.042843814148 0.028695449076 0.014387109818 
1.4089856745e-15 
_area 1 100 double
0 0.00059883907375 0.0023621062768 0.0051932991975 0.008942371255 0.013421541294 0.01842594825 0.023756621948 0.029242261261 
0.034756291524 0.040226730685 0.045638054783 0.051025903494 0.056466576569 0.062063441333 0.067931770989 0.074182978974 0.080909174238 
0.088169130324 0.095977090995 0.10429668762 0.11304252965 0.12208963348 0.13128702726 0.14047077253 0.14947421899 0.15813650196 
0.16631101279 0.17387273548 0.18071904227 0.18675954022 0.19190219318 0.19605299052 0.19913460855 0.2011086652 0.2019848016 
0.20181309129 0.20066558522 0.19861464676 0.19571469037 0.19199251725 0.18744942739 0.18207519153 0.1758704932 0.16887197761 
0.16117328044 0.15293615194 0.14438770586 0.13580275107 0.12747392826 0.11967687235 0.11264352478 0.10656471211 0.10161139747 
0.097799820696 0.094900645083 0.092666918775 0.090932382226 0.089594205746 0.088580350985 0.087811755492 0.087178341782 0.086535128557 
0.085714408115 0.084561544021 0.082979177421 0.080958191671 0.078584799099 0.076022970229 0.07347735574 0.071146442994 0.06917900966 
0.067651985072 0.0665860741 0.065988836292 0.065952556543 0.066651687289 0.067875307715 0.069394415618 0.071033845957 0.072560547843 
0.073693835432 0.074142849424 0.073649731782 0.072026188031 0.069176723667 0.065106862323 0.059918627431 0.053797409939 0.046993931731 
0.039803408302 0.03254261417 0.025525313728 0.019037509475 0.013315449893 0.0085303801982 0.0047839324536 0.0021164341691 0.00052705074376 
5.6285239732e-17 
