# vtk DataFile Version 5.1
vtk output
ASCII
DATASET POLYDATA
POINTS 100 float
0.143392 0.0303949 0.684581 0.14339 0.0308224 0.684216 0.143442 0.031938 0.683004 
0.143504 0.0336509 0.681013 0.143508 0.0358212 0.678347 0.143371 0.0382744 0.675129 
0.143011 0.0408208 0.671487 0.142352 0.0432752 0.667534 0.141341 0.045476 0.663352 
0.13995 0.0473007 0.658981 0.138185 0.0486766 0.654412 0.136078 0.0495852 0.649585 
0.133689 0.0500602 0.6444 0.131092 0.0501789 0.638729 0.128362 0.0500497 0.632427 
0.125571 0.049795 0.62536 0.122765 0.0495345 0.617416 0.119965 0.0493689 0.608525 
0.117154 0.0493664 0.598669 0.114284 0.0495548 0.587887 0.111274 0.0499182 0.57627 
0.10802 0.0504005 0.56396 0.104409 0.0509134 0.551127 0.100331 0.0513489 0.537959 
0.0956915 0.0515946 0.524638 0.0904236 0.0515485 0.511321 0.0844969 0.0511338 0.498129 
0.077921 0.0503099 0.48513 0.0707442 0.0490785 0.472339 0.0630486 0.047486 0.459716 
0.0549396 0.0456194 0.447173 0.0465347 0.043598 0.434585 0.0379501 0.0415625 0.421805 
0.0292884 0.0396604 0.40868 0.0206292 0.0380326 0.395064 0.012023 0.0368003 0.38083 
0.00348989 0.0360552 0.365882 -0.00497729 0.0358525 0.350153 -0.0134052 0.0362089 0.333608 
-0.0218295 0.0371046 0.316242 -0.0302824 0.0384882 0.298067 -0.0387803 0.0402847 0.279109 
-0.0473137 0.0424055 0.259398 -0.0558394 0.0447573 0.238958 -0.0642775 0.047251 0.217811 
-0.0725136 0.0498086 0.195967 -0.0804048 0.0523669 0.173433 -0.0877905 0.0548792 0.150215 
-0.0945049 0.0573137 0.126322 -0.100391 0.0596509 0.101781 -0.105316 0.0618784 0.0766345 
-0.10918 0.0639869 0.0509511 -0.111925 0.0659651 0.0248247 -0.113538 0.0677971 -0.0016262 
-0.114053 0.0694609 -0.0282637 -0.11354 0.0709286 -0.0549376 -0.112101 0.0721685 -0.0814943 
-0.109854 0.0731482 -0.107788 -0.106926 0.073839 -0.133687 -0.103437 0.0742189 -0.159086 
-0.0994902 0.0742765 -0.183906 -0.0951685 0.0740119 -0.208099 -0.0905281 0.0734375 -0.231645 
-0.0856004 0.0725757 -0.254549 -0.0803949 0.0714564 -0.276831 -0.0749064 0.0701119 -0.298523 
-0.0691219 0.068573 -0.319656 -0.0630296 0.0668642 -0.340258 -0.0566262 0.0649997 -0.360347 
-0.0499226 0.0629818 -0.37993 -0.0429475 0.0608002 -0.399001 -0.0357482 0.0584337 -0.417546 
-0.0283889 0.0558534 -0.435549 -0.0209472 0.0530275 -0.452993 -0.0135086 0.0499265 -0.469864 
-0.00616064 0.0465293 -0.48616 0.00101257 0.0428276 -0.50189 0.0079352 0.0388298 -0.517068 
0.014543 0.0345632 -0.531718 0.0207851 0.0300743 -0.545866 0.0266239 0.0254265 -0.559531 
0.0320341 0.0206966 -0.572723 0.0370003 0.0159705 -0.585437 0.0415146 0.0113367 -0.597648 
0.0455744 0.00688072 -0.609311 0.0491808 0.00267989 -0.620367 0.0523375 -0.00120159 -0.63074 
0.0550517 -0.00471565 -0.640354 0.0573345 -0.00783222 -0.649133 0.0592027 -0.0105393 -0.657015 
0.0606804 -0.012842 -0.663958 0.0617998 -0.0147596 -0.669945 0.0626019 -0.016323 -0.674988 
0.0631353 -0.0175705 -0.679127 0.0634539 -0.0185446 -0.682424 0.0636143 -0.0192873 -0.684957 
0.0636709 -0.019838 -0.68681 0.063672 -0.02023 -0.688062 0.0636558 -0.0204885 -0.688779 
0.063646 -0.020629 -0.689002 
LINES 2 100
OFFSETS vtktypeint64
0 100 
CONNECTIVITY vtktypeint64
0 1 2 3 4 5 6 7 8 
9 10 11 12 13 14 15 16 17 
18 19 20 21 22 23 24 25 26 
27 28 29 30 31 32 33 34 35 
36 37 38 39 40 41 42 43 44 
45 46 47 48 49 50 51 52 53 
54 55 56 57 58 59 60 61 62 
63 64 65 66 67 68 69 70 71 
72 73 74 75 76 77 78 79 80 
81 82 83 84 85 86 87 88 89 
90 91 92 93 94 95 96 97 98 
99 
POINT_DATA 100
FIELD FieldData 3
_theta 1 100 double
0 0.031733259127 0.063466518254 0.095199777382 0.12693303651 0.15866629564 0.19039955476 0.22213281389 0.25386607302 
0.28559933214 0.31733259127 0.3490658504 0.38079910953 0.41253236865 0.44426562778 0.47599888691 0.50773214603 0.53946540516 
0.57119866429 0.60293192342 0.63466518254 0.66639844167 0.6981317008 0.72986495992 0.76159821905 0.79333147818 0.82506473731 
0.85679799643 0.88853125556 0.92026451469 0.95199777382 0.98373103294 1.0154642921 1.0471975512 1.0789308103 1.1106640695 
1.1423973286 1.1741305877 1.2058638468 1.237597106 1.2693303651 1.3010636242 1.3327968833 1.3645301425 1.3962634016 
1.4279966607 1.4597299198 1.491463179 1.5231964381 1.5549296972 1.5866629564 1.6183962155 1.6501294746 1.6818627337 
1.7135959929 1.745329252 1.7770625111 1.8087957702 1.8405290294 1.8722622885 1.9039955476 1.9357288068 1.9674620659 
1.999195325 2.0309285841 2.0626618433 2.0943951024 2.1261283615 2.1578616206 2.1895948798 2.2213281389 2.253061398 
2.2847946572 2.3165279163 2.3482611754 2.3799944345 2.4117276937 2.4434609528 2.4751942119 2.506927471 2.5386607302 
2.5703939893 2.6021272484 2.6338605076 2.6655937667 2.6973270258 2.7290602849 2.7607935441 2.7925268032 2.8242600623 
2.8559933214 2.8877265806 2.9194598397 2.9511930988 2.982926358 3.0146596171 3.0463928762 3.0781261353 3.1098593945 
3.1415926536 
_radius 1 100 double
9.1156706367e-16 0.013614706859 0.027177104326 0.040631445809 0.053923585937 0.067001492819 0.079815344487 0.092317207924 0.10446033071 
0.11619810384 0.12748283227 0.13826459342 0.14849062335 0.15810575076 0.16705432384 0.17528382317 0.18274997172 0.18942273096 
0.19529221784 0.20037339616 0.20470845598 0.20836611065 0.21143756112 0.21402949041 0.21625499924 0.21822370421 0.2200321674 
0.22175543767 0.22344000502 0.22509824778 0.226704669 0.22819469435 0.22946713623 0.2303912871 0.23081893542 0.23060059273 
0.22960418807 0.22773372021 0.22494505735 0.22125631065 0.21675093517 0.21157281537 0.20591391214 0.19999637577 0.19405206275 
0.1883027773 0.18294406142 0.17813412509 0.17398807954 0.17057663139 0.16792810349 0.1660329053 0.16484995416 0.16431468031 
0.16434799212 0.16486505924 0.16578238522 0.16702188898 0.16851170425 0.17018457317 0.17197529864 0.17381851843 0.17564750982 
0.1773943247 0.17899136833 0.18037435705 0.18148628213 0.18228163998 0.18272994615 0.18281762636 0.18254788948 0.18193897635 
0.18102169309 0.17983686953 0.17843253829 0.17685995253 0.17516753985 0.17339250788 0.17155081377 0.16962726327 0.16756824218 
0.16527962949 0.16263158316 0.1594702711 0.15563478689 0.15097613381 0.14537473623 0.13875345334 0.13108420744 0.12238770455 
0.11272701504 0.10219680063 0.090910581271 0.07898853195 0.066547853453 0.053696871016 0.040532933084 0.02714325438 0.013607374705 
4.3344493007e-16 
_area 1 100 double
0 0.00047362821812 0.0018844106219 0.0042033520653 0.0073860710725 0.011377367574 0.016115413492 0.021534299077 0.027564195506 
0.034129076282 0.041142675599 0.048504166228 0.056095650302 0.063783252219 0.071422167226 0.078864559732 0.085968931291 0.092610282692 
0.09869095001 0.10415169223 0.10898153102 0.11322343696 0.11697184801 0.12035858777 0.12352815472 0.12661045436 0.12970102183 
0.13285166452 0.13606759024 0.13930818749 0.14249220992 0.14550639778 0.14821167404 0.15044194443 0.15199993398 0.15266336054 
0.15221134256 0.1504667269 0.14733927105 0.14285493804 0.13716313749 0.13052064368 0.12325643542 0.11572580323 0.10826430618 
0.10115165733 0.094591767677 0.088708899902 0.083554953421 0.079123345282 0.07536840318 0.072228984945 0.069652721872 0.067620987808 
0.066181003142 0.065229416203 0.064666568876 0.064446687884 0.06454467396 0.064941353092 0.065603912489 0.066471123358 0.067456218558 
0.0684627812 0.069400780233 0.07019782919 0.070806799462 0.071211418909 0.071428030745 0.07149627909 0.071455788484 0.071327988223 
0.071125047574 0.0708730971 0.070625543238 0.070457870836 0.070444972889 0.070628436822 0.070987791151 0.071427761904 0.071783953286 
0.071843235941 0.071373305579 0.070155354658 0.068014915142 0.064847613279 0.060637161843 0.055462831958 0.04949434734 0.042974168841 
0.036189846149 0.029441424458 0.023009988092 0.017133009941 0.011990397762 0.0077024220066 0.0043377762101 0.0019277562346 0.00048173903548 
6.3018725976e-18 
