# vtk DataFile Version 5.1
vtk output
ASCII
DATASET POLYDATA
POINTS 100 float
0.131814 0.0282826 0.713714 0.131862 0.0285114 0.71356 0.132111 0.0290448 0.712976 
0.132511 0.0298619 0.711969 0.132985 0.0309318 0.710548 0.133441 0.0322162 0.708715 
0.133783 0.0336732 0.706465 0.133928 0.0352605 0.703773 0.133811 0.0369378 0.7006 
0.133396 0.0386694 0.696884 0.13268 0.0404246 0.692545 0.131686 0.0421772 0.68749 
0.130456 0.0439041 0.681621 0.129043 0.0455837 0.674846 0.127495 0.0471927 0.667089 
0.125843 0.0487046 0.658297 0.12409 0.0500882 0.648458 0.122203 0.0513075 0.637595 
0.120114 0.0523231 0.625775 0.117723 0.0530943 0.613105 0.11491 0.0535836 0.599719 
0.111544 0.0537606 0.585777 0.107507 0.0536065 0.571445 0.102703 0.0531187 0.556881 
0.0970773 0.0523129 0.542229 0.090625 0.0512249 0.527601 0.0833941 0.0499093 0.513073 
0.0754833 0.0484373 0.49868 0.0670322 0.046891 0.484419 0.0582069 0.0453584 0.47025 
0.0491812 0.0439258 0.456107 0.0401174 0.0426715 0.441905 0.0311483 0.0416598 0.427549 
0.0223637 0.0409364 0.412945 0.0138026 0.0405267 0.398005 0.00545284 0.0404351 0.382653 
-0.00274133 0.0406475 0.366822 -0.0108655 0.0411355 0.350459 -0.0190161 0.0418618 0.333516 
-0.0272791 0.0427857 0.315949 -0.0357089 0.0438695 0.297713 -0.0443108 0.0450824 0.278758 
-0.0530293 0.0464043 0.259031 -0.0617436 0.0478258 0.238477 -0.0702723 0.049348 0.217043 
-0.0783854 0.0509788 0.194689 -0.085824 0.0527286 0.171389 -0.0923241 0.0546056 0.14715 
-0.0976422 0.0566101 0.12201 -0.10158 0.0587311 0.0960485 -0.104003 0.0609436 0.0693868 
-0.104858 0.063208 0.0421831 -0.104172 0.0654719 0.0146267 -0.102052 0.0676738 -0.0130739 
-0.0986759 0.0697485 -0.0407047 -0.094267 0.0716331 -0.0680615 -0.0890764 0.0732732 -0.0949646 
-0.0833565 0.0746281 -0.121272 -0.0773379 0.0756745 -0.146887 -0.0712109 0.076408 -0.171763 
-0.0651121 0.0768418 -0.195905 -0.059119 0.077004 -0.219358 -0.0532519 0.0769314 -0.242201 
-0.047482 0.0766635 -0.264531 -0.0417458 0.0762347 -0.28645 -0.0359612 0.0756685 -0.308048 
-0.0300449 0.0749715 -0.329393 -0.0239282 0.0741313 -0.350522 -0.0175684 0.0731154 -0.371434 
-0.0109561 0.0718745 -0.392096 -0.00411606 0.0703472 -0.412444 0.00289627 0.0684671 -0.432394 
0.0100029 0.0661713 -0.451849 0.0171139 0.063409 -0.470717 0.0241385 0.060149 -0.488913 
0.0309954 0.0563857 -0.506374 0.0376201 0.0521428 -0.523057 0.0439687 0.0474734 -0.538943 
0.0500178 0.0424583 -0.554031 0.0557602 0.0372002 -0.568334 0.0611981 0.0318167 -0.581867 
0.0663352 0.0264322 -0.594641 0.0711683 0.0211683 -0.606654 0.0756816 0.0161361 -0.61789 
0.079843 0.011429 -0.628311 0.0836052 0.00711823 -0.637866 0.0869102 0.0032499 -0.646495 
0.0896972 -0.00015464 -0.654138 0.0919126 -0.00309679 -0.660747 0.0935213 -0.00559682 -0.666295 
0.0945159 -0.00768889 -0.670788 0.094924 -0.00941573 -0.674269 0.094811 -0.0108235 -0.676821 
0.0942783 -0.0119576 -0.678562 0.0934562 -0.0128592 -0.67964 0.0924928 -0.0135633 -0.680216 
0.0915397 -0.0140979 -0.680453 0.0907364 -0.0144841 -0.680501 0.0901957 -0.0147363 -0.680477 
0.0899907 -0.0148633 -0.680458 
LINES 2 100
OFFSETS vtktypeint64
0 100 
CONNECTIVITY vtktypeint64
0 1 2 3 4 5 6 7 8 
9 10 11 12 13 14 15 16 17 
18 19 20 21 22 23 24 25 26 
27 28 29 30 31 32 33 34 35 
36 37 38 39 40 41 42 43 44 
45 46 47 48 49 50 51 52 53 
54 55 56 57 58 59 60 61 62 
63 64 65 66 67 68 69 70 71 
72 73 74 75 76 77 78 79 80 
81 82 83 84 85 86 87 88 89 
90 91 92 93 94 95 96 97 98 
99 
POINT_DATA 100
FIELD FieldData 3
_theta 1 100 double
0 0.031733259127 0.063466518254 0.095199777382 0.12693303651 0.15866629564 0.19039955476 0.22213281389 0.25386607302 
0.28559933214 0.31733259127 0.3490658504 0.38079910953 0.41253236865 0.44426562778 0.47599888691 0.50773214603 0.53946540516 
0.57119866429 0.60293192342 0.63466518254 0.66639844167 0.6981317008 0.72986495992 0.76159821905 0.79333147818 0.82506473731 
0.85679799643 0.88853125556 0.92026451469 0.95199777382 0.98373103294 1.0154642921 1.0471975512 1.0789308103 1.1106640695 
1.1423973286 1.1741305877 1.2058638468 1.237597106 1.2693303651 1.3010636242 1.3327968833 1.3645301425 1.3962634016 
1.4279966607 1.4597299198 1.491463179 1.5231964381 1.5549296972 1.5866629564 1.6183962155 1.6501294746 1.6818627337 
1.7135959929 1.745329252 1.7770625111 1.8087957702 1.8405290294 1.8722622885 1.9039955476 1.9357288068 1.9674620659 
1.999195325 2.0309285841 2.0626618433 2.0943951024 2.1261283615 2.1578616206 2.1895948798 2.2213281389 2.253061398 
2.2847946572 2.3165279163 2.3482611754 2.3799944345 2.4117276937 2.4434609528 2.4751942119 2.506927471 2.5386607302 
2.5703939893 2.6021272484 2.6338605076 2.6655937667 2.6973270258 2.7290602849 2.7607935441 2.7925268032 2.8242600623 
2.8559933214 2.8877265806 2.9194598397 2.9511930988 2.982926358 3.0146596171 3.0463928762 3.0781261353 3.1098593945 
3.1415926536 
_radius 1 100 double
5.727110149e-16 0.01629054519 0.032454735736 0.048371340849 0.063930784455 0.079036020888 0.09359960734 0.10753888394 0.12077228808 
0.13321946122 0.14480597971 0.15547126781 0.16517678894 0.17391160235 0.18169361899 0.18856663302 0.19459455417 0.19985467605 
0.20443137306 0.20841081926 0.21187662321 0.2149059335 0.21756570059 0.21990932186 0.22197455503 0.22378391949 0.22534841353 
0.22667418361 0.22777028449 0.22865473552 0.22935628486 0.22991051452 0.23035063343 0.23069504364 0.23093509413 0.23102684329 
0.23088982588 0.23041400167 0.22947394752 0.2279476735 0.22573663123 0.22278359656 0.21908590378 0.21470256368 0.20975471073 
0.20441941512 0.19891729015 0.1934948315 0.18840325634 0.18387657874 0.18011213055 0.17725613044 0.17539537746 0.17455456662 
0.17469784117 0.17573311016 0.17751817604 0.179868755 0.18256965382 0.18539054105 0.18810601559 0.19051703317 0.19246939836 
0.19386583709 0.19467011269 0.19490350919 0.19463531848 0.19396964565 0.19303077797 0.19194867301 0.19084535862 0.18982272971 
0.18895240523 0.18826861199 0.18776508409 0.18739650372 0.18708414369 0.18672442826 0.18619849821 0.18538083193 0.18414558594 
0.18237036804 0.17993822742 0.17673926549 0.17267314909 0.16765302735 0.16161035905 0.15449947655 0.14630063897 0.13702080211 
0.12669206532 0.11536841682 0.10312175745 0.090038157996 0.076214962765 0.061758865746 0.046784670131 0.031414257603 0.015775366978 
1.0001403861e-15 
_area 1 100 double
0 0.0005804034598 0.0023020528779 0.0051105277442 0.0089261217882 0.013651689837 0.019173627281 0.02535685376 0.032040202896 
0.039039889312 0.046164896425 0.053241312014 0.060136682628 0.066773961081 0.073128906168 0.079212909995 0.085050474435 0.090662084147 
0.096058378591 0.10124474274 0.10623090115 0.11103925547 0.11570996866 0.12029845134 0.12483335379 0.12924519145 0.13337506171 
0.13705688313 0.14018002611 0.14271107339 0.14468380401 0.14616632777 0.14722446867 0.14790508921 0.14824329086 0.14827425374 
0.14803032944 0.14751374918 0.14664870833 0.14525690843 0.1431115376 0.1400361124 0.13596830069 0.13096906964 0.12520282294 
0.11891050244 0.11238302373 0.10593423044 0.099870873503 0.094458387813 0.089886781041 0.086252841764 0.083573532694 0.081817620932 
0.080927252363 0.080817884047 0.081358227662 0.082349477536 0.083531677531 0.08461938574 0.085349312967 0.085522958369 0.085033437399 
0.083872234431 0.082118160122 0.079915724936 0.077449903495 0.074917096364 0.072488333281 0.070278867876 0.068353867319 0.066769547345 
0.065602267793 0.064895879434 0.064677763707 0.064958278431 0.065676492045 0.066727774367 0.06802325105 0.06947781947 0.070900285199 
0.071996994452 0.072497206691 0.072160055928 0.070784840916 0.068233480004 0.064452385991 0.059487277485 0.053487313433 0.046696745413 
0.039433979592 0.032059913787 0.024939538598 0.018402570259 0.012709803122 0.0080316541311 0.0044439593154 0.0019433553326 0.00048012349465 
2.8429911787e-17 
