# vtk DataFile Version 5.1
vtk output
ASCII
DATASET POLYDATA
POINTS 100 float
0.0712447 0.0456112 0.697038 0.0713322 0.0456632 0.696806 0.071665 0.0456808 0.69591 
0.0721941 0.0456682 0.694374 0.0728442 0.045632 0.692233 0.0735238 0.0455795 0.689528 
0.0741356 0.0455181 0.686296 0.074589 0.045454 0.682562 0.0748101 0.0453919 0.678334 
0.0747504 0.0453341 0.673595 0.0743908 0.045281 0.668304 0.0737419 0.0452311 0.662401 
0.0728405 0.0451818 0.655812 0.0717417 0.0451302 0.648457 0.0705088 0.0450737 0.640265 
0.0692021 0.0450105 0.631181 0.0678679 0.0449396 0.62118 0.0665295 0.0448602 0.610269 
0.0651811 0.0447712 0.598495 0.0637858 0.0446698 0.585939 0.0622775 0.0445506 0.572713 
0.0605673 0.0444047 0.55895 0.0585525 0.0442191 0.544792 0.056128 0.0439774 0.530375 
0.0531976 0.0436611 0.515821 0.049685 0.0432518 0.50122 0.045542 0.0427344 0.486631 
0.0407538 0.0421007 0.472073 0.0353396 0.0413535 0.45753 0.0293505 0.0405093 0.442953 
0.0228626 0.0396013 0.428271 0.015969 0.0386799 0.413401 0.00876938 0.0378115 0.398257 
0.00136073 0.0370761 0.382761 -0.00617099 0.0365615 0.366848 -0.0137563 0.0363568 0.350473 
-0.0213446 0.036545 0.333609 -0.0289025 0.0371939 0.316244 -0.0364096 0.0383491 0.298378 
-0.0438513 0.0400273 0.280012 -0.05121 0.0422122 0.261147 -0.0584569 0.0448536 0.24177 
-0.0655442 0.0478686 0.221861 -0.0724 0.0511474 0.201383 -0.0789265 0.0545612 0.180292 
-0.0850022 0.0579719 0.158542 -0.0904863 0.0612438 0.136092 -0.0952282 0.0642552 0.112917 
-0.0990777 0.0669086 0.0890192 -0.101897 0.0691391 0.0644305 -0.103572 0.0709197 0.0392217 
-0.104022 0.0722628 0.0135001 -0.103208 0.0732181 -0.0125941 -0.101134 0.0738668 -0.0388964 
-0.0978535 0.0743123 -0.0652297 -0.0934574 0.0746697 -0.0914176 -0.0880742 0.0750528 -0.117298 
-0.0818588 0.0755628 -0.142738 -0.0749819 0.0762766 -0.167637 -0.0676199 0.0772391 -0.191939 
-0.0599444 0.0784573 -0.215629 -0.0521139 0.0798986 -0.238728 -0.0442665 0.081492 -0.261285 
-0.036516 0.0831334 -0.283365 -0.0289489 0.0846929 -0.305033 -0.0216248 0.0860243 -0.326346 
-0.0145771 0.0869752 -0.347335 -0.00781593 0.087398 -0.368003 -0.00133098 0.0871589 -0.388319 
0.00490498 0.0861463 -0.40822 0.0109325 0.0842769 -0.42762 0.0168019 0.0815003 -0.446416 
0.0225695 0.0778 -0.464502 0.0282941 0.0731944 -0.481782 0.0340325 0.067735 -0.498183 
0.0398353 0.0615037 -0.513659 0.0457423 0.054609 -0.5282 0.0517773 0.0471823 -0.541829 
0.0579442 0.0393732 -0.554599 0.0642229 0.0313449 -0.566586 0.0705672 0.0232688 -0.577874 
0.0769046 0.0153195 -0.588549 0.0831382 0.00766883 -0.598682 0.0891516 0.000479599 -0.608324 
0.0948161 -0.00610076 -0.617497 0.1 -0.0119468 -0.626196 0.10458 -0.0169616 -0.634388 
0.10845 -0.0210817 -0.642023 0.111538 -0.0242821 -0.649039 0.113806 -0.0265783 -0.655376 
0.115264 -0.0280262 -0.660983 0.115967 -0.0287199 -0.665831 0.116014 -0.0287864 -0.669915 
0.115543 -0.0283774 -0.673256 0.114716 -0.0276592 -0.6759 0.113711 -0.0268013 -0.677913 
0.112701 -0.0259639 -0.679369 0.111843 -0.0252861 -0.680341 0.111261 -0.024875 -0.680891 
0.111033 -0.0247976 -0.681061 
LINES 2 100
OFFSETS vtktypeint64
0 100 
CONNECTIVITY vtktypeint64
0 1 2 3 4 5 6 7 8 
9 10 11 12 13 14 15 16 17 
18 19 20 21 22 23 24 25 26 
27 28 29 30 31 32 33 34 35 
36 37 38 39 40 41 42 43 44 
45 46 47 48 49 50 51 52 53 
54 55 56 57 58 59 60 61 62 
63 64 65 66 67 68 69 70 71 
72 73 74 75 76 77 78 79 80 
81 82 83 84 85 86 87 88 89 
90 91 92 93 94 95 96 97 98 
99 
POINT_DATA 100
FIELD FieldData 3
_theta 1 100 double
0 0.031733259127 0.063466518254 0.095199777382 0.12693303651 0.15866629564 0.19039955476 0.22213281389 0.25386607302 
0.28559933214 0.31733259127 0.3490658504 0.38079910953 0.41253236865 0.44426562778 0.47599888691 0.50773214603 0.53946540516 
0.57119866429 0.60293192342 0.63466518254 0.66639844167 0.6981317008 0.72986495992 0.76159821905 0.79333147818 0.82506473731 
0.85679799643 0.88853125556 0.92026451469 0.95199777382 0.98373103294 1.0154642921 1.0471975512 1.0789308103 1.1106640695 
1.1423973286 1.1741305877 1.2058638468 1.237597106 1.2693303651 1.3010636242 1.3327968833 1.3645301425 1.3962634016 
1.4279966607 1.4597299198 1.491463179 1.5231964381 1.5549296972 1.5866629564 1.6183962155 1.6501294746 1.6818627337 
1.7135959929 1.745329252 1.7770625111 1.8087957702 1.8405290294 1.8722622885 1.9039955476 1.9357288068 1.9674620659 
1.999195325 2.0309285841 2.0626618433 2.0943951024 2.1261283615 2.1578616206 2.1895948798 2.2213281389 2.253061398 
2.2847946572 2.3165279163 2.3482611754 2.3799944345 2.4117276937 2.4434609528 2.4751942119 2.506927471 2.5386607302 
2.5703939893 2.6021272484 2.6338605076 2.6655937667 2.6973270258 2.7290602849 2.7607935441 2.7925268032 2.8242600623 
2.8559933214 2.8877265806 2.9194598397 2.9511930988 2.982926358 3.0146596171 3.0463928762 3.0781261353 3.1098593945 
3.1415926536 
_radius 1 100 double
1.6609920666e-16 0.013831062099 0.027640161068 0.041395560507 0.055061837798 0.068597510869 0.081952331465 0.095065029732 0.10786243243 
0.12026065943 0.13216862685 0.14349351939 0.15414741545 0.16405399412 0.1731542872 0.18141072505 0.18880914754 0.1953588666 
0.20109115954 0.20605668261 0.21032222597 0.21396704229 0.21707876653 0.21974880739 0.22206710876 0.22411639227 0.2259663674 
0.22766877927 0.22925427874 0.23073173483 0.23208989442 0.23330066817 0.23432313696 0.23510760309 0.23559938888 0.23574238645 
0.23548251151 0.23477122492 0.23356919812 0.23185006115 0.2296040434 0.22684124673 0.22359428824 0.21992007654 0.21590048635 
0.21164164296 0.20727145187 0.20293498359 0.19878744091 0.19498477082 0.19167253464 0.18897425371 0.18698075979 0.18574180173 
0.18526041929 0.18548999837 0.18633407953 0.18764992099 0.18925770055 0.19095680846 0.19254833996 0.19385976376 0.19476598106 
0.19520182 0.19516386198 0.19470287369 0.19391050267 0.19290418144 0.19181252188 0.19076154111 0.18986137274 0.18919362325 
0.18880034444 0.18867616614 0.18876532432 0.18896499483 0.18913534492 0.18911512811 0.1887399854 0.18785962138 0.186350232 
0.18411996138 0.18110723 0.17727375989 0.17259536928 0.16705373729 0.16063136053 0.15331032175 0.14507405066 0.13591059466 
0.1258161083 0.11479792772 0.10287723814 0.09009166042 0.076497997768 0.062174994302 0.047225468601 0.031776848907 0.015979163044 
1.0241591672e-15 
_area 1 100 double
0 0.00055473759036 0.0022069494949 0.0049218059806 0.0086446379951 0.013304377265 0.018815866811 0.02508017703 0.031983452654 
0.039396039504 0.047173902549 0.05516341157 0.063208860018 0.071160618772 0.078881715994 0.086252028109 0.093170970946 0.099560179617 
0.10536699266 0.11056863193 0.1151765678 0.11924036081 0.12284955242 0.12613094162 0.12923784016 0.13232912678 0.13554007079 
0.13895262604 0.14257580418 0.14634345031 0.1501292491 0.15377172215 0.15709907912 0.15994665972 0.1621658557 0.16362787136 
0.1642263381 0.16388143951 0.16254651821 0.16021607786 0.15693202597 0.15278438155 0.14790442769 0.14245189726 0.13660119554 
0.13053175715 0.12442318238 0.11845083282 0.1127775161 0.10754106082 0.10284042992 0.098725087846 0.095197118364 0.09222677318 
0.089767610112 0.087766641198 0.086174324674 0.084949118805 0.084079138111 0.083594766353 0.083579414612 0.083889660473 0.084236061965 
0.084516706346 0.08465945857 0.084627758052 0.084415360146 0.08399802807 0.083344780347 0.082470518581 0.081444617101 0.080404306281 
0.079485676216 0.078831180917 0.078729608221 0.079296867136 0.08019107764 0.081110879699 0.081815311657 0.082096190097 0.081787759629 
0.080776688471 0.079001919185 0.076445184968 0.073116731155 0.069043723809 0.064268231872 0.058854300446 0.052896522795 0.046523454348 
0.039894590419 0.03319302208 0.026616450569 0.020368457942 0.014650698527 0.0096556652821 0.0055593246194 0.0025130582286 0.00063478180042 
4.9019487416e-17 
