# vtk DataFile Version 5.1
vtk output
ASCII
DATASET POLYDATA
POINTS 100 float
0.0819139 0.0372271 0.660058 0.0821288 0.0375061 0.659718 0.0827975 0.0381925 0.658553 
0.0838536 0.0392275 0.656599 0.0851932 0.0405207 0.653904 0.0866861 0.0419608 0.650531 
0.0881883 0.0434273 0.646546 0.0895556 0.0448044 0.642009 0.0906569 0.045993 0.636972 
0.0913845 0.0469204 0.631468 0.0916617 0.0475467 0.625514 0.0914461 0.047867 0.619107 
0.090728 0.0479091 0.612232 0.0895259 0.0477271 0.60486 0.0878781 0.0473924 0.596964 
0.085833 0.0469827 0.588519 0.0834385 0.0465709 0.579514 0.080733 0.046215 0.569951 
0.0777386 0.0459506 0.559856 0.0744578 0.0457872 0.549272 0.0708732 0.0457071 0.538258 
0.0669522 0.0456693 0.526886 0.0626538 0.0456155 0.515231 0.0579381 0.045479 0.503366 
0.0527756 0.045194 0.491351 0.047157 0.0447049 0.479231 0.0411 0.0439739 0.46703 
0.0346526 0.0429865 0.454748 0.0278931 0.0417537 0.442364 0.0209254 0.0403112 0.429843 
0.0138701 0.0387161 0.417136 0.00685338 0.0370415 0.404191 -6.0097e-06 0.0353689 0.390958 
-0.0066102 0.0337817 0.377396 -0.0128934 0.0323586 0.363475 -0.0188301 0.0311686 0.34918 
-0.0244389 0.0302676 0.33451 -0.0297814 0.0296978 0.319473 -0.0349551 0.0294878 0.304081 
-0.0400826 0.029655 0.288347 -0.0452962 0.0302082 0.272276 -0.0507214 0.0311499 0.25586 
-0.0564589 0.0324782 0.239078 -0.0625699 0.0341871 0.221893 -0.0690633 0.0362663 0.204255 
-0.0758886 0.0386979 0.186104 -0.0829351 0.0414547 0.167378 -0.0900361 0.0444959 0.148021 
-0.09698 0.0477654 0.127991 -0.103526 0.0511901 0.107264 -0.10942 0.0546808 0.0858439 
-0.114422 0.0581359 0.0637602 -0.118316 0.061446 0.0410715 -0.120934 0.0645022 0.0178609 
-0.122169 0.0672047 -0.00576926 -0.121977 0.0694712 -0.0297043 -0.120385 0.0712454 -0.0538251 
-0.117483 0.0725029 -0.0780154 -0.113413 0.0732533 -0.102169 -0.108358 0.0735401 -0.126191 
-0.102522 0.0734355 -0.150007 -0.0961163 0.0730322 -0.173552 -0.0893358 0.0724323 -0.19678 
-0.0823499 0.0717346 -0.219648 -0.0752892 0.0710216 -0.242123 -0.0682401 0.0703489 -0.264167 
-0.0612434 0.0697359 -0.285743 -0.0542984 0.0691619 -0.306806 -0.0473708 0.0685664 -0.327308 
-0.0404036 0.0678539 -0.347197 -0.0333303 0.0669038 -0.366424 -0.0260876 0.0655833 -0.384947 
-0.0186277 0.0637619 -0.402734 -0.0109279 0.0613275 -0.419767 -0.00299665 0.0581996 -0.436049 
0.00512348 0.0543407 -0.451599 0.0133572 0.0497626 -0.466449 0.0216012 0.044529 -0.480643 
0.0297319 0.0387513 -0.494228 0.0376149 0.0325817 -0.507245 0.0451152 0.0262003 -0.519723 
0.052108 0.019802 -0.531671 0.0584869 0.0135806 -0.543072 0.0641717 0.00771449 -0.553887 
0.0691121 0.00235472 -0.564053 0.0732902 -0.00238475 -0.573491 0.0767187 -0.00643206 -0.582112 
0.0794382 -0.00975876 -0.589834 0.081512 -0.0123772 -0.596587 0.0830192 -0.0143349 -0.602328 
0.0840489 -0.0157065 -0.607049 0.0846931 -0.0165848 -0.610781 0.0850413 -0.0170716 -0.613595 
0.0851758 -0.0172694 -0.615599 0.0851691 -0.0172748 -0.616928 0.0850815 -0.0171734 -0.617732 
0.0849612 -0.0170366 -0.618164 0.0848441 -0.01692 -0.618361 0.084755 -0.0168631 -0.618432 
0.0847084 -0.0168893 -0.618448 
LINES 2 100
OFFSETS vtktypeint64
0 100 
CONNECTIVITY vtktypeint64
0 1 2 3 4 5 6 7 8 
9 10 11 12 13 14 15 16 17 
18 19 20 21 22 23 24 25 26 
27 28 29 30 31 32 33 34 35 
36 37 38 39 40 41 42 43 44 
45 46 47 48 49 50 51 52 53 
54 55 56 57 58 59 60 61 62 
63 64 65 66 67 68 69 70 71 
72 73 74 75 76 77 78 79 80 
81 82 83 84 85 86 87 88 89 
90 91 92 93 94 95 96 97 98 
99 
POINT_DATA 100
FIELD FieldData 3
_theta 1 100 double
0 0.031733259127 0.063466518254 0.095199777382 0.12693303651 0.15866629564 0.19039955476 0.22213281389 0.25386607302 
0.28559933214 0.31733259127 0.3490658504 0.38079910953 0.41253236865 0.44426562778 0.47599888691 0.50773214603 0.53946540516 
0.57119866429 0.60293192342 0.63466518254 0.66639844167 0.6981317008 0.72986495992 0.76159821905 0.79333147818 0.82506473731 
0.85679799643 0.88853125556 0.92026451469 0.95199777382 0.98373103294 1.0154642921 1.0471975512 1.0789308103 1.1106640695 
1.1423973286 1.1741305877 1.2058638468 1.237597106 1.2693303651 1.3010636242 1.3327968833 1.3645301425 1.3962634016 
1.4279966607 1.4597299198 1.491463179 1.5231964381 1.5549296972 1.5866629564 1.6183962155 1.6501294746 1.6818627337 
1.7135959929 1.745329252 1.7770625111 1.8087957702 1.8405290294 1.8722622885 1.9039955476 1.9357288068 1.9674620659 
1.999195325 2.0309285841 2.0626618433 2.0943951024 2.1261283615 2.1578616206 2.1895948798 2.2213281389 2.253061398 
2.2847946572 2.3165279163 2.3482611754 2.3799944345 2.4117276937 2.4434609528 2.4751942119 2.506927471 2.5386607302 
2.5703939893 2.6021272484 2.6338605076 2.6655937667 2.6973270258 2.7290602849 2.7607935441 2.7925268032 2.8242600623 
2.8559933214 2.8877265806 2.9194598397 2.9511930988 2.982926358 3.0146596171 3.0463928762 3.0781261353 3.1098593945 
3.1415926536 
_radius 1 100 double
4.6319390735e-16 0.012754067917 0.025505105148 0.038236228499 0.0509159935 0.063493815275 0.075898700532 0.088042239471 0.099825847794 
0.11115110866 0.12193121266 0.13210118094 0.14162480096 0.15049691083 0.15874068989 0.16640072593 0.17353352315 0.18019749527 
0.18644425079 0.19231229849 0.19782352922 0.20298227656 0.20777656005 0.21218120174 0.21616266243 0.21968543243 0.22271952494 
0.22524815443 0.22727426753 0.22882445188 0.22994898666 0.2307173935 0.23120969126 0.23150449218 0.23166588711 0.23173150958 
0.23170405718 0.23154789138 0.2311913673 0.2305345955 0.22946165575 0.22785591506 0.22561692647 0.22267722914 0.21901715063 
0.21467549788 0.2097540011 0.2044137558 0.19886285966 0.1933360333 0.18806906871 0.18327277831 0.17911164244 0.17569105812 
0.17305470475 0.17119110957 0.17004638134 0.1695386046 0.16956939519 0.17003017316 0.17080417652 0.17176822617 0.17279847616 
0.17378123748 0.17462593247 0.17527560662 0.17571174991 0.17595256084 0.1760455572 0.17605623864 0.17605469161 0.17610197686 
0.17623802958 0.17647261036 0.17678048521 0.17710141667 0.17734473065 0.17739733995 0.17713345793 0.17642411831 0.17514509699 
0.17318268548 0.17043760353 0.16682781186 0.16229094396 0.15678662325 0.15029836371 0.14283438349 0.13442666646 0.12512795501 
0.11500688351 0.10414197544 0.092615593769 0.080509082601 0.067900208874 0.054863517727 0.04147330295 0.02780778135 0.01395233893 
1.9316869614e-16 
_area 1 100 double
0 0.00044773065898 0.0017894701374 0.0040184226581 0.0071158458866 0.011042309248 0.015729779043 0.021077662198 0.026955083385 
0.033209988765 0.039683750256 0.046228417903 0.052723034016 0.059085556866 0.06527774063 0.071301497484 0.077186832199 0.082973793966 
0.088693696698 0.094355694177 0.09994159903 0.10540707825 0.11068563661 0.11569383347 0.12033894327 0.12453115428 0.12820089209 
0.13131881421 0.13391272246 0.13607325706 0.13794049355 0.13966973245 0.1413878114 0.1431610744 0.14498781799 0.1468078328 
0.1485139855 0.1499608161 0.15097439638 0.15136640471 0.15095196385 0.14957090692 0.14711205373 0.14353756617 0.13890174057 
0.13335826556 0.12715207319 0.12059466993 0.11402456546 0.10775861227 0.10204603867 0.097039443408 0.092790184473 0.089264913144 
0.086375632739 0.084015597092 0.082090466994 0.080524181285 0.079235451883 0.078152283045 0.077255122497 0.076570471944 0.076116112118 
0.075834338002 0.075586852748 0.075230176248 0.07468377447 0.073943686352 0.073061169826 0.072112790778 0.071182975556 0.070362883655 
0.06974892117 0.069431153565 0.069475636257 0.069905087917 0.070680900207 0.071692619564 0.072762024999 0.073663365063 0.074153771961 
0.074004397222 0.073025372684 0.071083066746 0.068111310196 0.064117797165 0.059185031643 0.053464535007 0.047164034341 0.040528981436 
0.033820922601 0.027295568913 0.021183164373 0.015673324257 0.010906046545 0.0069699955391 0.0039083547011 0.0017312753065 0.00043177904928 
1.474186333e-17 
