# vtk DataFile Version 5.1
vtk output
ASCII
DATASET POLYDATA
POINTS 100 float
0.142245 0.0432197 0.679258 0.142241 0.0434528 0.679154 0.142351 0.0439764 0.678688 
0.142529 0.0447628 0.67784 0.142706 0.0457692 0.67658 0.142794 0.0469402 0.674862 
0.142696 0.0482118 0.67263 0.142318 0.0495161 0.669819 0.141577 0.0507849 0.666355 
0.140408 0.0519543 0.662166 0.138768 0.0529677 0.657179 0.136639 0.0537783 0.651334 
0.134025 0.0543507 0.644586 0.130948 0.0546616 0.636915 0.127441 0.0546991 0.628328 
0.123541 0.0544622 0.618862 0.119282 0.053959 0.608586 0.114688 0.0532053 0.597595 
0.109773 0.0522227 0.586004 0.104536 0.0510372 0.573944 0.0989684 0.0496781 0.561542 
0.0930538 0.0481767 0.548918 0.0867787 0.0465661 0.53617 0.0801377 0.0448803 0.523365 
0.0731405 0.0431543 0.510536 0.0658172 0.0414234 0.497674 0.05822 0.0397228 0.484736 
0.0504226 0.0380874 0.471648 0.0425158 0.0365509 0.458313 0.0346001 0.035145 0.444625 
0.0267762 0.0338991 0.430479 0.0191345 0.0328394 0.415784 0.011745 0.0319886 0.400473 
0.00464903 0.031366 0.384506 -0.00214581 0.0309874 0.367876 -0.00866682 0.0308659 0.350602 
-0.014973 0.0310121 0.33273 -0.0211474 0.0314349 0.314318 -0.0272861 0.0321418 0.295428 
-0.0334848 0.0331394 0.276117 -0.0398237 0.0344329 0.256424 -0.0463548 0.0360252 0.236371 
-0.0530898 0.0379161 0.215952 -0.0599937 0.0401005 0.195142 -0.0669812 0.0425668 0.173901 
-0.073921 0.0452953 0.15218 -0.0806424 0.0482567 0.129936 -0.086949 0.0514117 0.107143 
-0.0926334 0.0547108 0.0838003 -0.0974952 0.0580956 0.05994 -0.101357 0.0615007 0.0356317 
-0.104079 0.0648568 0.0109802 -0.105573 0.0680938 -0.0138805 -0.105805 0.0711448 -0.0387972 
-0.104797 0.0739494 -0.0636108 -0.102628 0.0764573 -0.08817 -0.0994182 0.0786299 -0.112345 
-0.0953212 0.0804413 -0.136039 -0.0905081 0.0818781 -0.159195 -0.0851524 0.0829377 -0.181799 
-0.0794155 0.0836253 -0.203875 -0.073435 0.0839505 -0.225482 -0.0673164 0.0839235 -0.246697 
-0.0611283 0.0835517 -0.267606 -0.0549026 0.0828364 -0.288286 -0.0486387 0.0817716 -0.308796 
-0.0423096 0.080344 -0.329163 -0.0358722 0.078534 -0.349379 -0.0292771 0.0763189 -0.369402 
-0.0224788 0.0736772 -0.389158 -0.015445 0.0705931 -0.408551 -0.00816326 0.0670616 -0.427475 
-0.000645582 0.0630928 -0.445829 0.0070703 0.0587153 -0.463528 0.0149219 0.0539776 -0.480512 
0.0228257 0.0489478 -0.496757 0.0306822 0.0437111 -0.512273 0.0383823 0.0383655 -0.527103 
0.0458143 0.0330161 -0.541311 0.0528701 0.0277681 -0.554976 0.0594511 0.0227202 -0.568176 
0.0654732 0.0179577 -0.580975 0.0708694 0.0135478 -0.59341 0.0755931 0.00953567 -0.605486 
0.0796179 0.00594339 -0.617173 0.0829386 0.00277054 -0.628402 0.0855697 -2.87425e-06 -0.639081 
0.0875443 -0.00241188 -0.649098 0.088912 -0.00450102 -0.658339 0.0897368 -0.00631838 -0.666699 
0.0900946 -0.00790993 -0.674099 0.09007 -0.00931486 -0.68049 0.0897534 -0.0105623 -0.685866 
0.0892375 -0.0116698 -0.690256 0.0886133 -0.0126436 -0.693726 0.0879669 -0.0134804 -0.696364 
0.087375 -0.0141701 -0.698273 0.0869017 -0.0147 -0.699549 0.0865956 -0.0150578 -0.700277 
0.0864867 -0.015235 -0.700508 
LINES 2 100
OFFSETS vtktypeint64
0 100 
CONNECTIVITY vtktypeint64
0 1 2 3 4 5 6 7 8 
9 10 11 12 13 14 15 16 17 
18 19 20 21 22 23 24 25 26 
27 28 29 30 31 32 33 34 35 
36 37 38 39 40 41 42 43 44 
45 46 47 48 49 50 51 52 53 
54 55 56 57 58 59 60 61 62 
63 64 65 66 67 68 69 70 71 
72 73 74 75 76 77 78 79 80 
81 82 83 84 85 86 87 88 89 
90 91 92 93 94 95 96 97 98 
99 
POINT_DATA 100
FIELD FieldData 3
_theta 1 100 double
0 0.031733259127 0.063466518254 0.095199777382 0.12693303651 0.15866629564 0.19039955476 0.22213281389 0.25386607302 
0.28559933214 0.31733259127 0.3490658504 0.38079910953 0.41253236865 0.44426562778 0.47599888691 0.50773214603 0.53946540516 
0.57119866429 0.60293192342 0.63466518254 0.66639844167 0.6981317008 0.72986495992 0.76159821905 0.79333147818 0.82506473731 
0.85679799643 0.88853125556 0.92026451469 0.95199777382 0.98373103294 1.0154642921 1.0471975512 1.0789308103 1.1106640695 
1.1423973286 1.1741305877 1.2058638468 1.237597106 1.2693303651 1.3010636242 1.3327968833 1.3645301425 1.3962634016 
1.4279966607 1.4597299198 1.491463179 1.5231964381 1.5549296972 1.5866629564 1.6183962155 1.6501294746 1.6818627337 
1.7135959929 1.745329252 1.7770625111 1.8087957702 1.8405290294 1.8722622885 1.9039955476 1.9357288068 1.9674620659 
1.999195325 2.0309285841 2.0626618433 2.0943951024 2.1261283615 2.1578616206 2.1895948798 2.2213281389 2.253061398 
2.2847946572 2.3165279163 2.3482611754 2.3799944345 2.4117276937 2.4434609528 2.4751942119 2.506927471 2.5386607302 
2.5703939893 2.6021272484 2.6338605076 2.6655937667 2.6973270258 2.7290602849 2.7607935441 2.7925268032 2.8242600623 
2.8559933214 2.8877265806 2.9194598397 2.9511930988 2.982926358 3.0146596171 3.0463928762 3.0781261353 3.1098593945 
3.1415926536 
_radius 1 100 double
1.2667805563e-15 0.016070615732 0.03190451633 0.047281858368 0.062022041965 0.075995828051 0.089129949287 0.10140427446 0.11284306781 
0.12350287185 0.13345971273 0.14279766009 0.15159960992 0.15994006345 0.16787914317 0.17545730531 0.18269096521 0.18957006184 
0.19605893686 0.20210151657 0.2076307651 0.21258113227 0.21690173828 0.22056765985 0.22358699456 0.22600225113 0.22788578807 
0.22933020819 0.23043553911 0.23129548313 0.23198493576 0.23255046574 0.23300477741 0.23332558688 0.23345892325 0.23332652562 
0.23283663183 0.23189704164 0.23042898661 0.22838016584 0.22573537546 0.22252347643 0.21881994487 0.21474479569 0.21045611068 
0.20613964813 0.20199511229 0.19821980183 0.19499076033 0.19244728734 0.19067645105 0.18970442895 0.18949552802 0.18995879884 
0.19096031504 0.19233844643 0.19391981535 0.19553430414 0.19702791804 0.19827262229 0.19917277553 0.19966840447 0.19973591453 
0.19938666755 0.19866342091 0.19763443045 0.19638534414 0.19500963444 0.1935987951 0.19223357702 0.19097716487 0.18987062511 
0.18893046447 0.18814789418 0.18748936776 0.18689801149 0.1862956303 0.18558512147 0.18465343671 0.18337558334 0.18162023526 
0.17925708651 0.17616526139 0.17224140903 0.16740602487 0.1616070786 0.15482082073 0.14705029007 0.13832235483 0.12868409774 
0.11819911264 0.10694395778 0.095004745333 0.08247373623 0.069445884493 0.056015484765 0.042273298267 0.028304637448 0.014188802506 
8.0812823735e-16 
_area 1 100 double
0 0.00061695923718 0.0024462949628 0.0054254688407 0.0094566907842 0.014415124455 0.020158288673 0.026535643813 0.033397551044 
0.040602870499 0.048024616345 0.055553423241 0.063098974355 0.070589787991 0.077971771085 0.085205764837 0.092263984178 0.099124906623 
0.10576622926 0.1121566403 0.11824929786 0.12398139758 0.12928273811 0.13409160832 0.13837163113 0.14212201418 0.14537703853 
0.14819628171 0.15065089523 0.15281053681 0.15473211792 0.15644968092 0.15796553659 0.15924402072 0.16020977431 0.160752584 
0.16074002689 0.16003708427 0.15852926337 0.15614389475 0.1528647745 0.14873845233 0.14387377515 0.13843720656 0.13264500868 
0.1267516252 0.12103317771 0.11576527869 0.11119286525 0.10748820791 0.10470728395 0.10278263327 0.10156671236 0.10087872053 
0.10052308102 0.10029864991 0.10003276296 0.099751379352 0.099307274369 0.098529327702 0.097405507779 0.095976433398 0.09425907227 
0.092367852207 0.090380886929 0.088331676133 0.086268769204 0.084273484611 0.082443053961 0.080869784348 0.07962545391 0.078756509619 
0.07835767933 0.078389841405 0.078693735976 0.079164505493 0.079693691538 0.080167934518 0.080473531561 0.080492250283 0.080080385925 
0.079060201347 0.077260835652 0.074570238274 0.070955105398 0.066457447106 0.061181891261 0.055279435403 0.048930731973 0.042331318635 
0.035680161891 0.029171442393 0.022988433464 0.017298284603 0.012247421296 0.0079582193014 0.0045277035666 0.0020282446156 0.00050941665883 
5.0971204283e-17 
