# vtk DataFile Version 5.1
vtk output
ASCII
DATASET POLYDATA
POINTS 100 float
0.15303 0.05332 0.709837 0.153173 0.0534404 0.709684 0.153675 0.0536699 0.709038 
0.154468 0.0540143 0.707887 0.155445 0.0544808 0.706213 0.156471 0.0550745 0.703987 
0.1574 0.0557951 0.701176 0.158085 0.0566328 0.697739 0.158396 0.0575661 0.69363 
0.158229 0.0585595 0.688801 0.157515 0.0595642 0.683203 0.156219 0.0605194 0.676795 
0.154344 0.0613562 0.669541 0.151921 0.0620028 0.661424 0.149001 0.06239 0.65244 
0.145644 0.0624579 0.64261 0.141904 0.0621612 0.631975 0.137827 0.0614743 0.6206 
0.133433 0.0603938 0.608568 0.128723 0.0589397 0.595981 0.123672 0.0571539 0.582949 
0.118237 0.0550968 0.569582 0.112364 0.0528425 0.55599 0.106 0.0504727 0.542265 
0.0990984 0.0480702 0.528482 0.0916355 0.0457127 0.514688 0.0836133 0.043468 0.500904 
0.0750649 0.0413905 0.48712 0.0660546 0.0395192 0.473298 0.0566736 0.0378784 0.459374 
0.0470327 0.0364792 0.445269 0.0372515 0.0353231 0.43089 0.0274479 0.0344058 0.41614 
0.0177263 0.0337216 0.400924 0.00816935 0.0332664 0.38516 -0.00116809 0.0330404 0.368778 
-0.0102607 0.0330492 0.351726 -0.0191102 0.0333027 0.333972 -0.027738 0.0338133 0.315505 
-0.0361759 0.0345922 0.296328 -0.0444539 0.0356458 0.276461 -0.0525877 0.0369714 0.255935 
-0.0605679 0.0385536 0.23479 -0.0683518 0.0403628 0.213067 -0.0758593 0.0423543 0.190814 
-0.0829734 0.0444697 0.168078 -0.0895461 0.0466407 0.144905 -0.0954082 0.0487939 0.121343 
-0.100382 0.0508571 0.0974407 -0.104299 0.0527653 0.0732484 -0.107011 0.0544676 0.0488188 
-0.10841 0.0559316 0.0242075 -0.108432 0.057147 -0.000527451 -0.10707 0.0581262 -0.025326 
-0.104372 0.0589033 -0.0501275 -0.100436 0.0595294 -0.0748727 -0.095406 0.0600672 -0.0995048 
-0.0894546 0.0605833 -0.123971 -0.0827712 0.0611402 -0.148225 -0.0755458 0.0617885 -0.172226 
-0.0679545 0.0625602 -0.195937 -0.0601472 0.0634639 -0.219329 -0.0522392 0.0644827 -0.242374 
-0.0443075 0.0655745 -0.265047 -0.0363903 0.0666754 -0.287326 -0.0284926 0.0677056 -0.309185 
-0.0205939 0.0685764 -0.330599 -0.0126588 0.0691995 -0.351543 -0.00464844 0.0694956 -0.371989 
0.00346816 0.0694022 -0.391915 0.0117049 0.0688806 -0.411299 0.0200516 0.0679195 -0.430127 
0.0284705 0.0665368 -0.448389 0.0368967 0.0647781 -0.466084 0.0452413 0.0627128 -0.483218 
0.0533978 0.0604276 -0.499802 0.0612505 0.0580188 -0.51585 0.0686841 0.0555836 -0.531374 
0.0755927 0.053212 -0.546382 0.0818882 0.050979 -0.560873 0.0875068 0.0489392 -0.574835 
0.0924131 0.0471233 -0.588237 0.0966014 0.0455368 -0.601038 0.100095 0.0441625 -0.613179 
0.10294 0.0429636 -0.624594 0.105206 0.0418901 -0.635209 0.106972 0.0408853 -0.644954 
0.108326 0.0398937 -0.653767 0.109353 0.0388673 -0.6616 0.110132 0.0377721 -0.668429 
0.110734 0.0365919 -0.674255 0.111213 0.0353307 -0.67911 0.111609 0.0340123 -0.683049 
0.111948 0.0326779 -0.686154 0.112242 0.031382 -0.688524 0.112495 0.0301867 -0.690264 
0.1127 0.029155 -0.691482 0.112851 0.0283444 -0.692272 0.11294 0.0278009 -0.69271 
0.11296 0.0275539 -0.692844 
LINES 2 100
OFFSETS vtktypeint64
0 100 
CONNECTIVITY vtktypeint64
0 1 2 3 4 5 6 7 8 
9 10 11 12 13 14 15 16 17 
18 19 20 21 22 23 24 25 26 
27 28 29 30 31 32 33 34 35 
36 37 38 39 40 41 42 43 44 
45 46 47 48 49 50 51 52 53 
54 55 56 57 58 59 60 61 62 
63 64 65 66 67 68 69 70 71 
72 73 74 75 76 77 78 79 80 
81 82 83 84 85 86 87 88 89 
90 91 92 93 94 95 96 97 98 
99 
POINT_DATA 100
FIELD FieldData 3
_theta 1 100 double
0 0.031733259127 0.063466518254 0.095199777382 0.12693303651 0.15866629564 0.19039955476 0.22213281389 0.25386607302 
0.28559933214 0.31733259127 0.3490658504 0.38079910953 0.41253236865 0.44426562778 0.47599888691 0.50773214603 0.53946540516 
0.57119866429 0.60293192342 0.63466518254 0.66639844167 0.6981317008 0.72986495992 0.76159821905 0.79333147818 0.82506473731 
0.85679799643 0.88853125556 0.92026451469 0.95199777382 0.98373103294 1.0154642921 1.0471975512 1.0789308103 1.1106640695 
1.1423973286 1.1741305877 1.2058638468 1.237597106 1.2693303651 1.3010636242 1.3327968833 1.3645301425 1.3962634016 
1.4279966607 1.4597299198 1.491463179 1.5231964381 1.5549296972 1.5866629564 1.6183962155 1.6501294746 1.6818627337 
1.7135959929 1.745329252 1.7770625111 1.8087957702 1.8405290294 1.8722622885 1.9039955476 1.9357288068 1.9674620659 
1.999195325 2.0309285841 2.0626618433 2.0943951024 2.1261283615 2.1578616206 2.1895948798 2.2213281389 2.253061398 
2.2847946572 2.3165279163 2.3482611754 2.3799944345 2.4117276937 2.4434609528 2.4751942119 2.506927471 2.5386607302 
2.5703939893 2.6021272484 2.6338605076 2.6655937667 2.6973270258 2.7290602849 2.7607935441 2.7925268032 2.8242600623 
2.8559933214 2.8877265806 2.9194598397 2.9511930988 2.982926358 3.0146596171 3.0463928762 3.0781261353 3.1098593945 
3.1415926536 
_radius 1 100 double
4.0412728104e-16 0.015624491739 0.031166246957 0.046535848952 0.061643492021 0.076399630042 0.090716295554 0.10450929324 0.11770133 
0.13022591735 0.14203164078 0.15308620649 0.16337958304 0.17292555119 0.18176105065 0.18994288823 0.19754169761 0.20463354061 
0.21129014858 0.21756934224 0.22350741245 0.22911503589 0.23437764403 0.23926022917 0.24371560837 0.24769442679 0.25115486171 
0.25407018128 0.25643294949 0.2582555148 0.25956717228 0.26040884573 0.26082629095 0.26086280636 0.26055239338 0.25991429166 
0.25894979038 0.25764210702 0.25595985686 0.25386417746 0.25131895371 0.24830289808 0.24482161907 0.24091743104 0.23667469338 
0.2322190353 0.22770991401 0.22332738028 0.21925531028 0.21566424253 0.21269695769 0.21045897482 0.20901449423 0.20838656948 
0.20855914347 0.20947864497 0.2110542563 0.21315813697 0.21562863449 0.21827959951 0.22091686746 0.22335968881 0.22546231721 
0.2271305392 0.22832953302 0.22908188618 0.2294567865 0.22955286046 0.22947786101 0.22932854697 0.22917376437 0.22904298326 
0.22892139623 0.22875135752 0.22843887927 0.22786348504 0.22688989373 0.2253803571 0.22320663821 0.22026054839 0.21646186562 
0.21176260456 0.20614710346 0.19962812102 0.19223984105 0.18402914231 0.17504661725 0.16533867201 0.15494173713 0.14387927768 
0.13216196128 0.11979100472 0.10676433565 0.093084770776 0.078768985631 0.063855745888 0.048411810084 0.032534182169 0.016347982111 
2.9035637105e-16 
_area 1 100 double
0 0.00063521682505 0.0025307259864 0.0056554082543 0.0099554641131 0.015352621241 0.021743224809 0.028998897728 0.036969125428 
0.045485909315 0.054370518545 0.063442254579 0.072528951646 0.081478583996 0.090170793931 0.098526558379 0.10651383334 0.11414685713 
0.12147683 0.12857277568 0.13549514723 0.14227057008 0.14887865965 0.15525612881 0.16131297587 0.16694970716 0.17206817989 
0.17657748683 0.18040102411 0.18348774264 0.18582466514 0.18744412487 0.18841893895 0.18884219403 0.18879562559 0.1883183606 
0.18738924269 0.18592922142 0.18382191328 0.18094565061 0.17720872557 0.17258001783 0.16710931876 0.16093441957 0.15427434558 
0.14740959035 0.14065120966 0.13430217889 0.12861730653 0.12377037772 0.11983482349 0.11678545759 0.11453412987 0.1129587213 
0.1119383289 0.11143397153 0.11146650444 0.11204325208 0.11311622538 0.1145599715 0.11617482856 0.11771971835 0.1189594006 
0.11971057112 0.1198754365 0.11945581458 0.11854602045 0.1173078178 0.11593410003 0.11460985206 0.11347994504 0.1126326276 
0.11210281559 0.11188962426 0.1119717712 0.11229929705 0.11275514125 0.11312877221 0.11315125321 0.1125564362 0.11111722513 
0.10866040874 0.10507588949 0.10032449443 0.094442421923 0.087539774602 0.079791683226 0.071422131795 0.062682686178 0.053830165536 
0.045107776097 0.036732976866 0.028892992619 0.02174659262 0.015429505441 0.010060730529 0.0057471938941 0.0025842743649 0.0006508012345 
3.9885495085e-17 
