# vtk DataFile Version 5.1
vtk output
ASCII
DATASET POLYDATA
POINTS 100 float
0.0979759 0.0485779 0.719936 0.0979651 0.0487721 0.719676 0.0979495 0.0491558 0.718704 
0.0979267 0.0496951 0.717007 0.0978929 0.0503406 0.714565 0.0978427 0.0510343 0.711358 
0.0977685 0.0517172 0.707361 0.0976602 0.0523381 0.702555 0.0975043 0.05286 0.696926 
0.0972834 0.053264 0.690467 0.0969749 0.0535513 0.683184 0.0965511 0.0537406 0.675097 
0.0959779 0.0538633 0.666237 0.0952154 0.0539559 0.656649 0.0942184 0.0540517 0.646392 
0.092938 0.0541723 0.635531 0.0913234 0.0543209 0.624142 0.0893252 0.0544779 0.612299 
0.0868983 0.0546007 0.600076 0.0840062 0.0546266 0.587544 0.080624 0.0544795 0.57476 
0.0767417 0.0540796 0.561773 0.072366 0.0533547 0.548615 0.0675214 0.0522513 0.535304 
0.0622489 0.050745 0.521844 0.0566043 0.0488474 0.508224 0.0506534 0.0466095 0.494425 
0.0444673 0.0441204 0.480419 0.0381162 0.0415019 0.466172 0.0316634 0.0388987 0.451653 
0.0251592 0.0364658 0.436831 0.0186368 0.0343552 0.421679 0.0121095 0.0327014 0.406176 
0.00557052 0.0316106 0.390308 -0.00100535 0.0311513 0.374065 -0.00765683 0.0313505 0.357441 
-0.0144296 0.0321935 0.340431 -0.0213684 0.0336286 0.32303 -0.0285077 0.035575 0.305229 
-0.0358636 0.0379336 0.287016 -0.0434257 0.0405984 0.268372 -0.0511526 0.0434678 0.249275 
-0.0589684 0.0464531 0.229697 -0.0667635 0.0494856 0.209613 -0.0743991 0.0525186 0.188996 
-0.0817133 0.0555264 0.167826 -0.0885314 0.0585008 0.146095 -0.0946767 0.0614439 0.123805 
-0.0999826 0.0643612 0.100975 -0.104304 0.0672536 0.07764 -0.107528 0.0701118 0.0538538 
-0.109579 0.0729125 0.0296853 -0.110427 0.0756172 0.00521694 -0.110083 0.0781743 -0.0194582 
-0.108602 0.0805238 -0.0442412 -0.106071 0.0826028 -0.0690314 -0.102605 0.0843531 -0.0937304 
-0.0983351 0.085727 -0.118247 -0.0933952 0.0866922 -0.142498 -0.087915 0.0872343 -0.166412 
-0.0820092 0.0873564 -0.189931 -0.075771 0.0870757 -0.213008 -0.0692679 0.0864186 -0.235607 
-0.0625414 0.0854134 -0.257703 -0.0556085 0.0840836 -0.27928 -0.048467 0.0824417 -0.300327 
-0.0411012 0.0804853 -0.320843 -0.0334907 0.0781958 -0.340828 -0.0256174 0.0755408 -0.36029 
-0.0174736 0.0724793 -0.379239 -0.00906715 0.0689696 -0.397694 -0.000426379 0.064979 -0.415673 
0.00839886 0.0604929 -0.433201 0.0173375 0.0555234 -0.450305 0.0263001 0.0501153 -0.467011 
0.0351834 0.0443479 -0.483342 0.0438764 0.038333 -0.499316 0.0522668 0.0322086 -0.51494 
0.0602477 0.0261288 -0.530206 0.0677233 0.0202512 -0.545091 0.0746145 0.0147235 -0.559553 
0.080862 0.00966985 -0.57353 0.0864288 0.0051803 -0.586946 0.0913 0.0013033 -0.59971 
0.0954823 -0.001957 -0.611721 0.0990017 -0.00463865 -0.622881 0.1019 -0.00681503 -0.633097 
0.104231 -0.00858423 -0.642293 0.106058 -0.010056 -0.650414 0.107448 -0.0113381 -0.657436 
0.108468 -0.012523 -0.663364 0.109185 -0.0136785 -0.668239 0.109662 -0.0148408 -0.672134 
0.109954 -0.0160129 -0.675145 0.110112 -0.0171677 -0.67739 0.110177 -0.0182549 -0.678992 
0.110184 -0.0192112 -0.680076 0.110162 -0.0199713 -0.68075 0.110128 -0.0204796 -0.681101 
0.110096 -0.0206992 -0.681187 
LINES 2 100
OFFSETS vtktypeint64
0 100 
CONNECTIVITY vtktypeint64
0 1 2 3 4 5 6 7 8 
9 10 11 12 13 14 15 16 17 
18 19 20 21 22 23 24 25 26 
27 28 29 30 31 32 33 34 35 
36 37 38 39 40 41 42 43 44 
45 46 47 48 49 50 51 52 53 
54 55 56 57 58 59 60 61 62 
63 64 65 66 67 68 69 70 71 
72 73 74 75 76 77 78 79 80 
81 82 83 84 85 86 87 88 89 
90 91 92 93 94 95 96 97 98 
99 
POINT_DATA 100
FIELD FieldData 3
_theta 1 100 double
0 0.031733259127 0.063466518254 0.095199777382 0.12693303651 0.15866629564 0.19039955476 0.22213281389 0.25386607302 
0.28559933214 0.31733259127 0.3490658504 0.38079910953 0.41253236865 0.44426562778 0.47599888691 0.50773214603 0.53946540516 
0.57119866429 0.60293192342 0.63466518254 0.66639844167 0.6981317008 0.72986495992 0.76159821905 0.79333147818 0.82506473731 
0.85679799643 0.88853125556 0.92026451469 0.95199777382 0.98373103294 1.0154642921 1.0471975512 1.0789308103 1.1106640695 
1.1423973286 1.1741305877 1.2058638468 1.237597106 1.2693303651 1.3010636242 1.3327968833 1.3645301425 1.3962634016 
1.4279966607 1.4597299198 1.491463179 1.5231964381 1.5549296972 1.5866629564 1.6183962155 1.6501294746 1.6818627337 
1.7135959929 1.745329252 1.7770625111 1.8087957702 1.8405290294 1.8722622885 1.9039955476 1.9357288068 1.9674620659 
1.999195325 2.0309285841 2.0626618433 2.0943951024 2.1261283615 2.1578616206 2.1895948798 2.2213281389 2.253061398 
2.2847946572 2.3165279163 2.3482611754 2.3799944345 2.4117276937 2.4434609528 2.4751942119 2.506927471 2.5386607302 
2.5703939893 2.6021272484 2.6338605076 2.6655937667 2.6973270258 2.7290602849 2.7607935441 2.7925268032 2.8242600623 
2.8559933214 2.8877265806 2.9194598397 2.9511930988 2.982926358 3.0146596171 3.0463928762 3.0781261353 3.1098593945 
3.1415926536 
_radius 1 100 double
5.6033447974e-16 0.014232618267 0.028328428906 0.042151290001 0.055580436918 0.068517215443 0.080889961988 0.09265626198 0.10380206947 
0.11433767098 0.12429110751 0.13370023251 0.1426048823 0.15104055649 0.15903456584 0.16660493876 0.17376168614 0.18050951795 
0.186850936 0.19278883009 0.19832815631 0.20347674233 0.20824551212 0.21264835763 0.21670160367 0.22042274797 0.22382814143 
0.22692959842 0.22973047839 0.23222226998 0.23438282086 0.23617695623 0.2375594815 0.23847985315 0.2388874834 0.2387368246 
0.23799186944 0.2366301554 0.23464650182 0.23205649895 0.22889940328 0.22523982643 0.22116757552 0.21679518378 0.21225294063 
0.20768150441 0.20322250815 0.19900809873 0.19515111684 0.19173826822 0.18882840575 0.18645636924 0.18464017715 0.18338734629 
0.18269634787 0.18255189169 0.18291639202 0.1837224744 0.18487127428 0.18623865881 0.18768800295 0.18908577984 0.19031585648 
0.19128945779 0.19194934384 0.19226841287 0.19224451245 0.19189415209 0.19124736704 0.19034438359 0.1892332133 0.18796687168 
0.18659947622 0.18518127452 0.18375311366 0.18234090961 0.18095056165 0.17956372171 0.17813490693 0.17659053365 0.17483045498 
0.17273242394 0.17015951623 0.16696997535 0.16302838141 0.15821669975 0.15244371336 0.14565154897 0.13781842792 0.12895738325 
0.11911142395 0.10834635056 0.096742922226 0.084390143116 0.071380993158 0.057811070252 0.04377960318 0.029391489229 0.014758726543 
1.513193316e-15 
_area 1 100 double
0 0.00061613474735 0.0024357446084 0.0053750446951 0.0093028380065 0.014052423747 0.019436737854 0.025265184562 0.031360250619 
0.037571820679 0.043787239572 0.049935635493 0.055985839921 0.061938437531 0.067813904955 0.073639874409 0.079440566789 0.085230316556 
0.091011617818 0.09677687674 0.10251181254 0.10819752937 0.11381068223 0.11932672092 0.12472868907 0.13001160801 0.13517076407 
0.14017829407 0.14496647709 0.1494306349 0.15344835726 0.15690368693 0.15970698928 0.16180656362 0.16319201878 0.1638862495 
0.16390958638 0.16321820957 0.16170064742 0.15925525445 0.15585289199 0.15155698931 0.14651955558 0.14096289082 0.13515252749 
0.12936714717 0.12386922376 0.11887589442 0.11452813956 0.11086487116 0.10782160348 0.10526727554 0.10306250585 0.10109044993 
0.09926374516 0.09755360808 0.095972465704 0.094528542048 0.093200510452 0.091947323081 0.090733545979 0.089545155247 0.088390680624 
0.087336290535 0.086421899962 0.085573870794 0.08472243987 0.083806549178 0.082780928555 0.081614799883 0.080300797213 0.078871319607 
0.077410644972 0.07605821371 0.075007064295 0.074427667713 0.0743160467 0.074586706372 0.07513196747 0.075785779178 0.076321726309 
0.076477821364 0.075995670055 0.074656182986 0.072303142991 0.068856608037 0.064320476163 0.05878582682 0.052428072182 0.04549474474 
0.038282794111 0.031107931844 0.024271588348 0.018032124363 0.012585958958 0.0080617856026 0.0045276981573 0.0020075973653 0.00050094290846 
5.8349455652e-17 
