# vtk DataFile Version 5.1
vtk output
ASCII
DATASET POLYDATA
POINTS 100 float
0.169408 0.0533459 0.703363 0.169416 0.053418 0.703083 0.16943 0.0535047 0.702094 
0.169429 0.0536005 0.700427 0.169383 0.0536974 0.698127 0.169252 0.0537868 0.695248 
0.168989 0.0538609 0.691845 0.168543 0.0539146 0.687962 0.167862 0.0539468 0.683625 
0.166897 0.0539606 0.678841 0.165607 0.0539625 0.673593 0.163957 0.0539609 0.66784 
0.161923 0.0539642 0.661531 0.159494 0.0539778 0.654607 0.156671 0.0540019 0.647011 
0.153464 0.0540298 0.638705 0.149897 0.0540473 0.62967 0.145997 0.0540333 0.61992 
0.141796 0.0539618 0.609497 0.137327 0.0538055 0.598476 0.132618 0.0535395 0.586953 
0.127691 0.0531463 0.575039 0.122558 0.0526192 0.562845 0.117222 0.0519656 0.550475 
0.111676 0.0512081 0.53801 0.105901 0.0503838 0.525502 0.099874 0.0495415 0.51297 
0.0935661 0.048737 0.500397 0.086949 0.0480267 0.487739 0.0799979 0.047461 0.474931 
0.0726947 0.0470775 0.461901 0.0650305 0.0468959 0.448577 0.0570075 0.0469141 0.434908 
0.0486386 0.0471076 0.420865 0.0399467 0.0474318 0.406452 0.0309622 0.0478263 0.391704 
0.0217207 0.0482223 0.376681 0.0122591 0.0485514 0.361462 0.0026137 0.0487542 0.346129 
-0.00718254 0.0487892 0.330753 -0.0171003 0.0486385 0.315376 -0.0271133 0.0483119 0.3 
-0.0371961 0.0478474 0.28458 -0.04732 0.0473074 0.269016 -0.0574487 0.0467724 0.253159 
-0.0675331 0.0463321 0.236821 -0.0775065 0.0460749 0.21979 -0.087281 0.0460773 0.20185 
-0.0967454 0.0463945 0.182802 -0.105766 0.0470533 0.162486 -0.114191 0.0480487 0.140803 
-0.121854 0.0493439 0.117723 -0.128585 0.0508745 0.0932942 -0.134221 0.0525558 0.0676466 
-0.138616 0.0542921 0.0409785 -0.141653 0.0559887 0.0135444 -0.143256 0.0575611 -0.0143662 
-0.143394 0.0589453 -0.042451 -0.142093 0.0601028 -0.0704197 -0.139428 0.061024 -0.0980153 
-0.135528 0.0617258 -0.125032 -0.130563 0.0622471 -0.151326 -0.124737 0.06264 -0.176823 
-0.118269 0.0629598 -0.201513 -0.111386 0.0632543 -0.225442 -0.104302 0.0635542 -0.248699 
-0.097202 0.0638653 -0.271398 -0.0902377 0.0641649 -0.293659 -0.0835129 0.0644013 -0.31559 
-0.0770822 0.0644984 -0.337273 -0.0709506 0.0643629 -0.358753 -0.0650791 0.0638948 -0.380033 
-0.0593926 0.0629993 -0.401076 -0.0537918 0.0615983 -0.421808 -0.0481665 0.0596406 -0.442131 
-0.0424093 0.0571093 -0.461933 -0.0364288 0.0540253 -0.481106 -0.03016 0.0504468 -0.499553 
-0.0235731 0.0464646 -0.517206 -0.0166771 0.0421941 -0.534028 -0.00952114 0.0377647 -0.550019 
-0.00219059 0.0333083 -0.56521 0.00519909 0.0289478 -0.579667 0.0125117 0.0247876 -0.593472 
0.0196012 0.0209065 -0.606717 0.0263228 0.0173543 -0.61949 0.0325448 0.0141514 -0.631865 
0.0381575 0.011293 -0.643888 0.0430812 0.00875419 -0.655573 0.0472708 0.00649835 -0.666892 
0.0507178 0.00448503 -0.677782 0.0534487 0.00267754 -0.688139 0.055521 0.00104878 -0.697828 
0.0570169 -0.000415262 -0.706693 0.0580346 -0.00171469 -0.714566 0.0586792 -0.00283741 -0.721277 
0.0590528 -0.00376289 -0.72667 0.0592459 -0.00446715 -0.73061 0.059329 -0.00492805 -0.732993 
0.0593468 -0.00512995 -0.733756 
LINES 2 100
OFFSETS vtktypeint64
0 100 
CONNECTIVITY vtktypeint64
0 1 2 3 4 5 6 7 8 
9 10 11 12 13 14 15 16 17 
18 19 20 21 22 23 24 25 26 
27 28 29 30 31 32 33 34 35 
36 37 38 39 40 41 42 43 44 
45 46 47 48 49 50 51 52 53 
54 55 56 57 58 59 60 61 62 
63 64 65 66 67 68 69 70 71 
72 73 74 75 76 77 78 79 80 
81 82 83 84 85 86 87 88 89 
90 91 92 93 94 95 96 97 98 
99 
POINT_DATA 100
FIELD FieldData 3
_theta 1 100 double
0 0.031733259127 0.063466518254 0.095199777382 0.12693303651 0.15866629564 0.19039955476 0.22213281389 0.25386607302 
0.28559933214 0.31733259127 0.3490658504 0.38079910953 0.41253236865 0.44426562778 0.47599888691 0.50773214603 0.53946540516 
0.57119866429 0.60293192342 0.63466518254 0.66639844167 0.6981317008 0.72986495992 0.76159821905 0.79333147818 0.82506473731 
0.85679799643 0.88853125556 0.92026451469 0.95199777382 0.98373103294 1.0154642921 1.0471975512 1.0789308103 1.1106640695 
1.1423973286 1.1741305877 1.2058638468 1.237597106 1.2693303651 1.3010636242 1.3327968833 1.3645301425 1.3962634016 
1.4279966607 1.4597299198 1.491463179 1.5231964381 1.5549296972 1.5866629564 1.6183962155 1.6501294746 1.6818627337 
1.7135959929 1.745329252 1.7770625111 1.8087957702 1.8405290294 1.8722622885 1.9039955476 1.9357288068 1.9674620659 
1.999195325 2.0309285841 2.0626618433 2.0943951024 2.1261283615 2.1578616206 2.1895948798 2.2213281389 2.253061398 
2.2847946572 2.3165279163 2.3482611754 2.3799944345 2.4117276937 2.4434609528 2.4751942119 2.506927471 2.5386607302 
2.5703939893 2.6021272484 2.6338605076 2.6655937667 2.6973270258 2.7290602849 2.7607935441 2.7925268032 2.8242600623 
2.8559933214 2.8877265806 2.9194598397 2.9511930988 2.982926358 3.0146596171 3.0463928762 3.0781261353 3.1098593945 
3.1415926536 
_radius 1 100 double
1.1592937779e-15 0.013217211038 0.026370247746 0.039392769522 0.052220096891 0.064790160997 0.077044386756 0.088928549102 0.10039374176 
0.1113976628 0.12190635552 0.13189629684 0.14135636118 0.15028887065 0.15870885632 0.16664090244 0.17411350205 0.18115157405 
0.18776845406 0.19395904239 0.1996957427 0.20492838787 0.20958867651 0.21359889464 0.21688398517 0.2193854346 0.22107503766 
0.22196641289 0.22212218408 0.22165502412 0.22072131876 0.21950712169 0.2182073865 0.21700107444 0.21602621992 0.21535964881 
0.21500521907 0.21489245899 0.21488532653 0.21479931229 0.21442432988 0.21355054358 0.21199436056 0.20962210633 0.20636910885 
0.20225195564 0.19737191831 0.1919083883 0.18610270286 0.18023457006 0.1745947387 0.16945795346 0.16505945726 0.16157699644 
0.15911944733 0.15772290149 0.15735391664 0.1579172104 0.15926403015 0.16119992246 0.16349443112 0.16589655632 0.16815725851 
0.17005575007 0.17142323383 0.17215823265 0.17223084427 0.17167679348 0.17058438083 0.1690778794 0.16729995495 0.16539429347 
0.16348907406 0.16168247776 0.1600318664 0.15854778897 0.15719329019 0.15588867197 0.15452144007 0.15296027937 0.15107084335 
0.14873052333 0.14583958732 0.1423271082 0.13815149122 0.13329657719 0.12776487245 0.12156949607 0.11472627159 0.10724728631 
0.099137185813 0.090393250448 0.081009679137 0.070985454036 0.06033401244 0.049092277208 0.037326754635 0.025135260687 0.012643920277 
5.3338267154e-16 
_area 1 100 double
0 0.00049304000355 0.0019561721278 0.0043434861074 0.0075849281876 0.011594675039 0.016280306783 0.021550598522 0.02731996817 
0.033508706909 0.04003992354 0.046835821054 0.053816318525 0.06090158521 0.068017528772 0.075101227993 0.082102871125 0.088982095842 
0.095699028695 0.10220268103 0.10842070743 0.11425454191 0.11958277532 0.12427350639 0.12820361559 0.13128050796 0.1334611558 
0.13476464718 0.1352767991 0.13514671326 0.13457439755 0.13378742899 0.13300696169 0.13241137596 0.13211367031 0.13216539005 
0.1325842054 0.1333480768 0.13427539272 0.13503287536 0.13529284971 0.13478030968 0.1332794378 0.13066038198 0.12692548627 
0.12222901456 0.1168503771 0.11113975278 0.10543154026 0.099992363692 0.095008016518 0.090589640213 0.086794304948 0.083653867174 
0.08119591082 0.079458530005 0.07845523914 0.078044442574 0.078004252568 0.078181390865 0.078493901886 0.078891310773 0.079317901095 
0.079689389766 0.079884067046 0.079756478753 0.07917731999 0.078079236733 0.076484243127 0.074500891137 0.072285768329 0.069992733959 
0.067753671498 0.065676561462 0.063832161101 0.062244583918 0.060900312057 0.059757315408 0.058741668027 0.057744759191 0.05663411004 
0.055276829731 0.053564805737 0.05143125977 0.048855134675 0.045855324756 0.042478863042 0.038787571091 0.034847468875 0.030724032144 
0.026483909846 0.022201072404 0.017963996217 0.013880560082 0.010078131993 0.006697646873 0.0038823458387 0.0017635840379 0.00044677467349 
2.1386284532e-17 
