# vtk DataFile Version 5.1
vtk output
ASCII
DATASET POLYDATA
POINTS 100 float
0.0560622 0.0411147 0.68169 0.056153 0.0413805 0.681236 0.0564392 0.0420211 0.679727 
0.0568683 0.0429784 0.677213 0.0573615 0.0441642 0.673772 0.057825 0.0454704 0.669502 
0.0581647 0.0467821 0.664509 0.0582994 0.0479911 0.6589 0.0581733 0.0490082 0.652767 
0.0577642 0.0497736 0.646184 0.0570864 0.0502627 0.639197 0.0561885 0.0504883 0.631821 
0.0551454 0.0504976 0.624047 0.0540459 0.0503647 0.615837 0.0529782 0.0501805 0.607141 
0.0520139 0.0500397 0.597899 0.0511945 0.0500285 0.588053 0.0505212 0.0502123 0.577558 
0.0499502 0.0506268 0.566387 0.0493937 0.0512728 0.554539 0.0487274 0.0521147 0.542042 
0.0478032 0.0530843 0.52895 0.0464657 0.0540877 0.515344 0.0445697 0.055016 0.501319 
0.041998 0.0557568 0.486987 0.0386752 0.056207 0.472457 0.0345773 0.0562839 0.457838 
0.0297346 0.0559335 0.443222 0.0242283 0.0551366 0.428683 0.0181811 0.05391 0.414272 
0.0117428 0.0523046 0.400015 0.0050728 0.0503998 0.385912 -0.00167768 0.0482954 0.37194 
-0.00838177 0.0461019 0.358054 -0.0149492 0.043931 0.344192 -0.0213333 0.0418861 0.330283 
-0.027531 0.0400554 0.316243 -0.0335775 0.0385066 0.301987 -0.0395346 0.037285 0.287428 
-0.0454758 0.0364139 0.272483 -0.0514695 0.0358967 0.257073 -0.0575627 0.0357216 0.241131 
-0.0637679 0.0358665 0.224598 -0.0700546 0.0363035 0.207431 -0.0763463 0.0370037 0.189603 
-0.0825245 0.0379398 0.171105 -0.0884381 0.0390879 0.151949 -0.0939177 0.0404278 0.132167 
-0.0987922 0.0419419 0.111813 -0.102907 0.0436134 0.0909594 -0.106139 0.0454245 0.0696932 
-0.10841 0.0473548 0.0481136 -0.109694 0.0493804 0.0263252 -0.110017 0.0514739 0.00443119 
-0.109453 0.0536061 -0.0174725 -0.108117 0.0557474 -0.0393037 -0.106146 0.0578708 -0.0609982 
-0.103689 0.0599544 -0.0825134 -0.100888 0.0619836 -0.103828 -0.0978653 0.0639519 -0.124943 
-0.0947131 0.0658609 -0.145872 -0.0914896 0.0677183 -0.166642 -0.0882176 0.0695349 -0.187284 
-0.0848888 0.07132 -0.207821 -0.0814722 0.0730764 -0.228268 -0.0779246 0.0747961 -0.248622 
-0.0742017 0.0764557 -0.268857 -0.0702688 0.078014 -0.288926 -0.0661091 0.0794117 -0.308761 
-0.0617282 0.0805731 -0.328278 -0.0571559 0.0814101 -0.347379 -0.0524435 0.0818288 -0.365966 
-0.0476583 0.0817366 -0.383943 -0.0428767 0.081051 -0.401226 -0.0381759 0.0797081 -0.417751 
-0.0336264 0.0776696 -0.433471 -0.0292867 0.0749286 -0.448367 -0.0251995 0.0715123 -0.462439 
-0.0213918 0.0674826 -0.475704 -0.0178767 0.0629333 -0.488192 -0.0146582 0.0579848 -0.49994 
-0.0117359 0.0527768 -0.510984 -0.00911103 0.0474589 -0.521352 -0.00679029 0.0421819 -0.531062 
-0.0047884 0.0370878 -0.54012 -0.00312781 0.0323019 -0.548518 -0.0018358 0.0279261 -0.55624 
-0.000939399 0.0240347 -0.563264 -0.000458666 0.0206719 -0.569569 -0.000399634 0.0178523 -0.57514 
-0.000747975 0.015563 -0.579973 -0.00146461 0.0137679 -0.584081 -0.00248417 0.0124125 -0.587494 
-0.0037169 0.0114302 -0.590259 -0.00505391 0.0107484 -0.592434 -0.00637559 0.0102945 -0.594088 
-0.007562 0.0100012 -0.59529 -0.0085042 0.00981144 -0.596102 -0.00911506 0.00968176 -0.596576 
-0.0093382 0.00958525 -0.596743 
LINES 2 100
OFFSETS vtktypeint64
0 100 
CONNECTIVITY vtktypeint64
0 1 2 3 4 5 6 7 8 
9 10 11 12 13 14 15 16 17 
18 19 20 21 22 23 24 25 26 
27 28 29 30 31 32 33 34 35 
36 37 38 39 40 41 42 43 44 
45 46 47 48 49 50 51 52 53 
54 55 56 57 58 59 60 61 62 
63 64 65 66 67 68 69 70 71 
72 73 74 75 76 77 78 79 80 
81 82 83 84 85 86 87 88 89 
90 91 92 93 94 95 96 97 98 
99 
POINT_DATA 100
FIELD FieldData 3
_theta 1 100 double
0 0.031733259127 0.063466518254 0.095199777382 0.12693303651 0.15866629564 0.19039955476 0.22213281389 0.25386607302 
0.28559933214 0.31733259127 0.3490658504 0.38079910953 0.41253236865 0.44426562778 0.47599888691 0.50773214603 0.53946540516 
0.57119866429 0.60293192342 0.63466518254 0.66639844167 0.6981317008 0.72986495992 0.76159821905 0.79333147818 0.82506473731 
0.85679799643 0.88853125556 0.92026451469 0.95199777382 0.98373103294 1.0154642921 1.0471975512 1.0789308103 1.1106640695 
1.1423973286 1.1741305877 1.2058638468 1.237597106 1.2693303651 1.3010636242 1.3327968833 1.3645301425 1.3962634016 
1.4279966607 1.4597299198 1.491463179 1.5231964381 1.5549296972 1.5866629564 1.6183962155 1.6501294746 1.6818627337 
1.7135959929 1.745329252 1.7770625111 1.8087957702 1.8405290294 1.8722622885 1.9039955476 1.9357288068 1.9674620659 
1.999195325 2.0309285841 2.0626618433 2.0943951024 2.1261283615 2.1578616206 2.1895948798 2.2213281389 2.253061398 
2.2847946572 2.3165279163 2.3482611754 2.3799944345 2.4117276937 2.4434609528 2.4751942119 2.506927471 2.5386607302 
2.5703939893 2.6021272484 2.6338605076 2.6655937667 2.6973270258 2.7290602849 2.7607935441 2.7925268032 2.8242600623 
2.8559933214 2.8877265806 2.9194598397 2.9511930988 2.982926358 3.0146596171 3.0463928762 3.0781261353 3.1098593945 
3.1415926536 
_radius 1 100 double
1.1123893155e-15 0.012292490286 0.024525798719 0.036639845593 0.048582444451 0.060310268356 0.071787423558 0.082982423085 0.093864594316 
0.10440078817 0.11455295792 0.12427693948 0.13352262861 0.14223567467 0.15036075538 0.15784640224 0.1646511281 0.17075022471 
0.17614214531 0.18085308853 0.18493847945 0.18848057413 0.19158226617 0.19435807561 0.19692395174 0.19938769574 0.20184141868 
0.20435658532 0.2069811502 0.20973753681 0.21262019212 0.21559229339 0.21858250238 0.22148371494 0.22415592167 0.22643447257 
0.22814363806 0.2291139892 0.2292012302 0.22830386159 0.22637734497 0.22344308317 0.21959130943 0.21497772499 0.20981431732 
0.20435517202 0.19887827591 0.19366440876 0.18897443396 0.18502679584 0.1819777663 0.1799075463 0.17881509025 0.17862308264 
0.17919211306 0.18034071894 0.18186676486 0.18356626676 0.18524789416 0.18674373458 0.18791807492 0.18867540659 0.18896733241 
0.18879682317 0.18821802509 0.18733039352 0.18626687547 0.18517691785 0.18420615179 0.18347556831 0.18306356211 0.18299401936 
0.18323251292 0.1836909097 0.18423888026 0.18471952728 0.18496595929 0.18481615118 0.18412455029 0.18277004259 0.18066055617 
0.1777346526 0.17396029669 0.16933100021 0.16385981079 0.15757201297 0.15049773243 0.14266576127 0.13409978601 0.12481776475 
0.1148344854 0.10416649417 0.092837904035 0.080885399565 0.068361179489 0.05533343794 0.04188484135 0.028109886389 0.01411189729 
1.1096743446e-15 
_area 1 100 double
0 0.00042799109446 0.0017053049334 0.0038107108421 0.0067054201307 0.010330252072 0.014604957907 0.019430890257 0.024696987431 
0.030287973305 0.036093018896 0.042012925536 0.047964234195 0.053879595812 0.059704933679 0.065394612463 0.070905827631 0.076193859452 
0.081211018011 0.085911900132 0.090264463443 0.094262600169 0.097934521518 0.1013429945 0.10457763622 0.10774483858 0.11096291315 
0.11436330868 0.11808710959 0.12226219539 0.12695829386 0.13213721491 0.13762424209 0.14311537125 0.14821727378 0.15250670071 
0.15559461758 0.15718283969 0.15710417094 0.1553403791 0.1520157938 0.14736802169 0.14170215882 0.13534142989 0.12859092976 
0.12172435351 0.11498875093 0.10861323441 0.10281197778 0.097793135823 0.093833023192 0.091023672405 0.089163243667 0.088075692459 
0.087594183815 0.087441950796 0.08743265628 0.087399611008 0.087213943249 0.086786158039 0.086056671418 0.084989421857 0.083570621206 
0.081812148006 0.079758352629 0.07749358916 0.075147670315 0.072897804985 0.070963850484 0.069530389736 0.068719439024 0.06853372111 
0.068827587375 0.069507628723 0.070457439377 0.071540320481 0.072604090325 0.07349029164 0.074049538856 0.074155316278 0.073708641944 
0.072636366307 0.070889079609 0.068441320253 0.065292793878 0.061467960448 0.057013568593 0.051996885263 0.046507555656 0.040662576464 
0.034610303283 0.028529004494 0.022617837319 0.017081208537 0.012110084616 0.0078653251557 0.004467811097 0.0019976539027 0.00050100069956 
4.5744458579e-18 
