# vtk DataFile Version 5.1
vtk output
ASCII
DATASET POLYDATA
POINTS 100 float
0.139072 0.0269071 0.656164 0.139081 0.0271561 0.656158 0.139206 0.0277503 0.655995 
0.139406 0.028665 0.655633 0.139615 0.0298617 0.65501 0.139752 0.0312913 0.654047 
0.139723 0.0328979 0.652648 0.139438 0.0346232 0.650713 0.138809 0.0364104 0.64814 
0.137766 0.0382072 0.644835 0.136254 0.0399682 0.640717 0.134236 0.041656 0.635725 
0.131695 0.0432406 0.629822 0.12863 0.0446986 0.622998 0.12505 0.0460108 0.61527 
0.120969 0.0471606 0.606683 0.116403 0.0481318 0.597306 0.111368 0.048907 0.587224 
0.105874 0.0494678 0.576534 0.0999257 0.0497949 0.565338 0.0935284 0.0498702 0.553731 
0.086688 0.0496795 0.5418 0.0794165 0.0492156 0.529612 0.0717366 0.0484815 0.517214 
0.063685 0.0474937 0.504627 0.0553147 0.0462836 0.491852 0.0466948 0.0448983 0.478867 
0.0379075 0.0433994 0.465636 0.0290431 0.0418608 0.452111 0.0201937 0.0403641 0.438242 
0.0114455 0.0389935 0.423979 0.00287078 0.0378305 0.409284 -0.00547782 0.0369472 0.394124 
-0.0135717 0.0364019 0.378483 -0.0214075 0.0362348 0.362355 -0.0290047 0.0364655 0.345743 
-0.0364005 0.0370931 0.328658 -0.0436413 0.0380969 0.311111 -0.050773 0.0394401 0.293109 
-0.0578307 0.0410744 0.274654 -0.064828 0.0429448 0.25574 -0.0717505 0.0449957 0.236351 
-0.0785501 0.0471758 0.216465 -0.0851454 0.0494419 0.196058 -0.0914247 0.0517618 0.17511 
-0.097254 0.0541153 0.153608 -0.102487 0.0564931 0.131556 -0.10698 0.058895 0.108978 
-0.110603 0.061326 0.0859209 -0.113252 0.0637924 0.0624564 -0.114863 0.0662975 0.038677 
-0.115412 0.0688374 0.0146923 -0.114923 0.0713985 -0.00937899 -0.113464 0.0739554 -0.0334171 
-0.111136 0.0764704 -0.0573108 -0.10807 0.0788949 -0.0809655 -0.104408 0.0811715 -0.10431 
-0.100293 0.083237 -0.1273 -0.0958553 0.0850267 -0.149921 -0.0912021 0.0864779 -0.172181 
-0.0864104 0.0875336 -0.194109 -0.081523 0.0881453 -0.215747 -0.0765493 0.0882754 -0.237136 
-0.0714701 0.0878976 -0.258311 -0.0662443 0.0869977 -0.27929 -0.0608192 0.0855722 -0.300069 
-0.0551401 0.0836276 -0.32062 -0.0491604 0.0811781 -0.340889 -0.0428496 0.0782446 -0.3608 
-0.0361987 0.0748529 -0.380268 -0.0292233 0.0710329 -0.3992 -0.0219629 0.0668178 -0.417512 
-0.0144778 0.0622445 -0.435136 -0.00684409 0.0573533 -0.452025 0.000852623 0.0521887 -0.468163 
0.00852419 0.0467995 -0.483562 0.0160859 0.0412391 -0.498259 0.0234612 0.0355655 -0.51231 
0.0305852 0.0298397 -0.525782 0.0374056 0.0241251 -0.538737 0.0438822 0.0184853 -0.551228 
0.0499855 0.0129823 -0.563282 0.0556938 0.00767391 -0.574898 0.0609906 0.00261179 -0.586041 
0.0658626 -0.00216045 -0.596647 0.0702981 -0.00660855 -0.606626 0.0742868 -0.0107084 -0.615874 
0.077821 -0.0144458 -0.624284 0.0808971 -0.0178164 -0.631761 0.0835181 -0.0208238 -0.638236 
0.0856958 -0.0234784 -0.643675 0.0874524 -0.0257955 -0.648084 0.0888213 -0.0277934 -0.651515 
0.0898459 -0.0294915 -0.654063 0.0905775 -0.0309088 -0.655851 0.0910721 -0.0320626 -0.657027 
0.0913849 -0.0329678 -0.657739 0.0915663 -0.0336362 -0.658128 0.0916562 -0.0340758 -0.658305 
0.0916806 -0.0342913 -0.658343 
LINES 2 100
OFFSETS vtktypeint64
0 100 
CONNECTIVITY vtktypeint64
0 1 2 3 4 5 6 7 8 
9 10 11 12 13 14 15 16 17 
18 19 20 21 22 23 24 25 26 
27 28 29 30 31 32 33 34 35 
36 37 38 39 40 41 42 43 44 
45 46 47 48 49 50 51 52 53 
54 55 56 57 58 59 60 61 62 
63 64 65 66 67 68 69 70 71 
72 73 74 75 76 77 78 79 80 
81 82 83 84 85 86 87 88 89 
90 91 92 93 94 95 96 97 98 
99 
POINT_DATA 100
FIELD FieldData 3
_theta 1 100 double
0 0.031733259127 0.063466518254 0.095199777382 0.12693303651 0.15866629564 0.19039955476 0.22213281389 0.25386607302 
0.28559933214 0.31733259127 0.3490658504 0.38079910953 0.41253236865 0.44426562778 0.47599888691 0.50773214603 0.53946540516 
0.57119866429 0.60293192342 0.63466518254 0.66639844167 0.6981317008 0.72986495992 0.76159821905 0.79333147818 0.82506473731 
0.85679799643 0.88853125556 0.92026451469 0.95199777382 0.98373103294 1.0154642921 1.0471975512 1.0789308103 1.1106640695 
1.1423973286 1.1741305877 1.2058638468 1.237597106 1.2693303651 1.3010636242 1.3327968833 1.3645301425 1.3962634016 
1.4279966607 1.4597299198 1.491463179 1.5231964381 1.5549296972 1.5866629564 1.6183962155 1.6501294746 1.6818627337 
1.7135959929 1.745329252 1.7770625111 1.8087957702 1.8405290294 1.8722622885 1.9039955476 1.9357288068 1.9674620659 
1.999195325 2.0309285841 2.0626618433 2.0943951024 2.1261283615 2.1578616206 2.1895948798 2.2213281389 2.253061398 
2.2847946572 2.3165279163 2.3482611754 2.3799944345 2.4117276937 2.4434609528 2.4751942119 2.506927471 2.5386607302 
2.5703939893 2.6021272484 2.6338605076 2.6655937667 2.6973270258 2.7290602849 2.7607935441 2.7925268032 2.8242600623 
2.8559933214 2.8877265806 2.9194598397 2.9511930988 2.982926358 3.0146596171 3.0463928762 3.0781261353 3.1098593945 
3.1415926536 
_radius 1 100 double
7.8700639776e-16 0.016085443334 0.031983126221 0.047515445681 0.062531385819 0.076914621627 0.09058648835 0.10350401212 0.11565426275 
0.12704688768 0.13770658446 0.14766657684 0.15696330494 0.16563200176 0.17370283573 0.18119773471 0.18812851354 0.19449712506 
0.20029854571 0.20552608052 0.21017804399 0.21426419 0.21781013961 0.22085843118 0.22346560101 0.22569570053 0.22761159799 
0.22926599815 0.23069411071 0.23190928165 0.23290193966 0.23364136994 0.23407948866 0.23415599161 0.23380468354 0.2329610475 
0.23157095332 0.22959990056 0.22704163465 0.2239246699 0.22031535423 0.21631659676 0.21206211385 0.20770684317 0.2034148219 
0.19934614953 0.19564460504 0.19242719541 0.18977660392 0.18773729137 0.18631571939 0.18548452061 0.18518942294 0.18535687022 
0.18590031762 0.18672438864 0.18772778632 0.18880678232 0.18986050839 0.19079776915 0.1915440065 0.19204696907 0.19228013632 
0.19224342427 0.1919610034 0.19147637012 0.19084528316 0.1901277195 0.18938032729 0.18865069585 0.18797413778 0.18737285579 
0.18685667322 0.18642416328 0.18606308245 0.18574942747 0.18544503458 0.18509425767 0.18462076778 0.18392579464 0.18288906014 
0.18137315694 0.17923129137 0.17631743027 0.17249730075 0.16765856627 0.16171878785 0.154630298 0.14638169087 0.13699615151 
0.12652724977 0.11505308214 0.10266974082 0.089485023824 0.075613093938 0.061170498296 0.046273644047 0.031037563805 0.01557564954 
1.1047341009e-15 
_area 1 100 double
0 0.00062640804649 0.0024812221591 0.0054940078107 0.0095559856015 0.014530746371 0.020265735112 0.026602672447 0.033386039997 
0.040469608425 0.047721258355 0.055026083176 0.062287485466 0.069426191567 0.076377842577 0.083090615486 0.089524579739 0.09565380014 
0.1014706471 0.10699006658 0.11225057964 0.11730903771 0.12222797596 0.12705777245 0.13181870342 0.13648782163 0.1409945833 
0.14522957061 0.14906708285 0.152393738 0.1551308375 0.1572419083 0.15872369903 0.15958502545 0.1598220926 0.1594005183 
0.15825240929 0.15629148971 0.1534422445 0.14967359937 0.14502642418 0.1396270943 0.13368416217 0.12746926361 0.12128574826 
0.11543035617 0.11015565118 0.10564168852 0.101980997 0.099169985704 0.097089284341 0.095537729627 0.094337791569 0.093369225384 
0.092551026232 0.091818848075 0.091117165869 0.09040754844 0.089676239648 0.088920264924 0.088123598497 0.087260380428 0.086313934079 
0.085281317543 0.084166123711 0.082974429344 0.08171988013 0.080425417697 0.079126781756 0.077892163858 0.076819927324 0.076009670606 
0.075544158496 0.075474807277 0.075808564251 0.076507682019 0.077497104573 0.078673088338 0.079907614211 0.081047209218 0.08191105615 
0.082295606015 0.081989561344 0.080797401545 0.078565927274 0.07520766357 0.070716268753 0.065171296429 0.058732076363 0.0516225741 
0.044110471931 0.036484230653 0.029031598986 0.022022131112 0.015695026988 0.010252334652 0.0058565424832 0.0026310467265 0.00066195042252 
1.8268675128e-17 
