# vtk DataFile Version 5.1
vtk output
ASCII
DATASET POLYDATA
POINTS 100 float
0.0983515 0.0543501 0.662017 0.0986204 0.0545102 0.66206 0.0994635 0.0547967 0.662032 
0.100793 0.0551874 0.661875 0.102472 0.0556489 0.661501 0.104331 0.0561406 0.660796 
0.106188 0.0566187 0.659631 0.107863 0.0570414 0.65787 0.109202 0.0573726 0.655385 
0.110085 0.0575859 0.652062 0.110441 0.0576657 0.647815 0.110246 0.0576086 0.642588 
0.10952 0.0574215 0.636363 0.108319 0.05712 0.62916 0.106719 0.0567246 0.621036 
0.1048 0.0562574 0.612079 0.102632 0.0557382 0.6024 0.100263 0.0551818 0.592123 
0.097707 0.0545962 0.581379 0.0949419 0.0539815 0.570289 0.0919132 0.0533312 0.558958 
0.088541 0.0526337 0.547466 0.0847323 0.0518752 0.535863 0.0803955 0.0510428 0.524168 
0.0754553 0.0501277 0.512366 0.0698655 0.0491281 0.500415 0.0636182 0.0480506 0.48825 
0.0567479 0.0469113 0.475795 0.0493301 0.0457349 0.462965 0.0414739 0.0445535 0.44968 
0.0333112 0.0434038 0.43587 0.0249822 0.0423249 0.421481 0.0166203 0.0413547 0.406476 
0.00833848 0.040528 0.39084 0.000219137 0.0398745 0.37457 -0.00769175 0.0394179 0.357676 
-0.0153845 0.0391762 0.340176 -0.0228803 0.0391627 0.322085 -0.0302206 0.0393869 0.303411 
-0.0374534 0.0398568 0.284153 -0.0446181 0.0405801 0.264295 -0.051731 0.0415646 0.24381 
-0.0587733 0.042819 0.22266 -0.0656847 0.044351 0.200805 -0.0723611 0.0461662 0.178208 
-0.0786596 0.048265 0.154842 -0.0844086 0.0506398 0.130704 -0.0894222 0.053272 0.105815 
-0.0935176 0.0561306 0.0802292 -0.0965321 0.0591703 0.0540318 -0.0983398 0.0623326 0.0273411 
-0.0988635 0.0655471 0.000300533 -0.0980817 0.0687356 -0.0269284 -0.0960302 0.0718162 -0.0541767 
-0.0927966 0.0747088 -0.081279 -0.0885107 0.0773405 -0.108085 -0.0833301 0.0796501 -0.134467 
-0.0774236 0.0815922 -0.16033 -0.0709556 0.0831386 -0.185612 -0.0640708 0.0842784 -0.210286 
-0.0568839 0.0850157 -0.234355 -0.0494728 0.0853662 -0.257845 -0.0418782 0.0853513 -0.280793 
-0.0341071 0.0849927 -0.303244 -0.0261412 0.0843067 -0.32523 -0.017948 0.0832991 -0.346771 
-0.00949296 0.0819625 -0.367863 -0.000751089 0.0802747 -0.388477 0.00828314 0.0782008 -0.408558 
0.0175895 0.0756961 -0.428033 0.0271196 0.072712 -0.446814 0.036798 0.0692029 -0.464811 
0.0465281 0.0651331 -0.48194 0.0561992 0.0604842 -0.498131 0.0656961 0.0552603 -0.513341 
0.0749085 0.0494921 -0.527555 0.0837393 0.0432375 -0.54079 0.0921104 0.0365803 -0.553092 
0.0999663 0.0296262 -0.564534 0.107274 0.0224964 -0.575204 0.114023 0.0153198 -0.585202 
0.120215 0.00822494 -0.594626 0.125866 0.00133153 -0.603561 0.130995 -0.00525618 -0.612078 
0.135621 -0.0114547 -0.620222 0.139762 -0.0172042 -0.628014 0.143429 -0.0224691 -0.635451 
0.146629 -0.0272365 -0.642509 0.149371 -0.031512 -0.649147 0.151663 -0.0353156 -0.655317 
0.15352 -0.0386756 -0.660972 0.154966 -0.0416235 -0.666065 0.156039 -0.0441895 -0.670564 
0.156786 -0.0463991 -0.674446 0.157263 -0.0482708 -0.677703 0.157534 -0.0498164 -0.680337 
0.157664 -0.0510413 -0.682361 0.15771 -0.0519461 -0.683788 0.157719 -0.0525291 -0.684634 
0.157721 -0.0527881 -0.684909 
LINES 2 100
OFFSETS vtktypeint64
0 100 
CONNECTIVITY vtktypeint64
0 1 2 3 4 5 6 7 8 
9 10 11 12 13 14 15 16 17 
18 19 20 21 22 23 24 25 26 
27 28 29 30 31 32 33 34 35 
36 37 38 39 40 41 42 43 44 
45 46 47 48 49 50 51 52 53 
54 55 56 57 58 59 60 61 62 
63 64 65 66 67 68 69 70 71 
72 73 74 75 76 77 78 79 80 
81 82 83 84 85 86 87 88 89 
90 91 92 93 94 95 96 97 98 
99 
POINT_DATA 100
FIELD FieldData 3
_theta 1 100 double
0 0.031733259127 0.063466518254 0.095199777382 0.12693303651 0.15866629564 0.19039955476 0.22213281389 0.25386607302 
0.28559933214 0.31733259127 0.3490658504 0.38079910953 0.41253236865 0.44426562778 0.47599888691 0.50773214603 0.53946540516 
0.57119866429 0.60293192342 0.63466518254 0.66639844167 0.6981317008 0.72986495992 0.76159821905 0.79333147818 0.82506473731 
0.85679799643 0.88853125556 0.92026451469 0.95199777382 0.98373103294 1.0154642921 1.0471975512 1.0789308103 1.1106640695 
1.1423973286 1.1741305877 1.2058638468 1.237597106 1.2693303651 1.3010636242 1.3327968833 1.3645301425 1.3962634016 
1.4279966607 1.4597299198 1.491463179 1.5231964381 1.5549296972 1.5866629564 1.6183962155 1.6501294746 1.6818627337 
1.7135959929 1.745329252 1.7770625111 1.8087957702 1.8405290294 1.8722622885 1.9039955476 1.9357288068 1.9674620659 
1.999195325 2.0309285841 2.0626618433 2.0943951024 2.1261283615 2.1578616206 2.1895948798 2.2213281389 2.253061398 
2.2847946572 2.3165279163 2.3482611754 2.3799944345 2.4117276937 2.4434609528 2.4751942119 2.506927471 2.5386607302 
2.5703939893 2.6021272484 2.6338605076 2.6655937667 2.6973270258 2.7290602849 2.7607935441 2.7925268032 2.8242600623 
2.8559933214 2.8877265806 2.9194598397 2.9511930988 2.982926358 3.0146596171 3.0463928762 3.0781261353 3.1098593945 
3.1415926536 
_radius 1 100 double
6.7532230145e-16 0.015722475348 0.031335709314 0.046729909799 0.061805220086 0.076475610097 0.090671538357 0.10434132722 0.11745120698 
0.1299839471 0.14193605811 0.15331379767 0.16412857126 0.1743925873 0.1841156145 0.19330333746 0.20195723371 0.21007536077 
0.21765321016 0.22468398509 0.23115819984 0.23706310832 0.2423828224 0.24709987268 0.25119841504 0.25466853987 0.25751052516 
0.25973764567 0.26137639633 0.26246363754 0.26304103784 0.26314801399 0.26281486652 0.26205778 0.26087681564 0.25925722369 
0.25717369304 0.25459676686 0.25150058612 0.24787122148 0.24371494094 0.23906572476 0.23399115862 0.22859557787 0.22301918756 
0.21743212357 0.21202326982 0.20698501728 0.20249649632 0.19870833709 0.19573125745 0.19362913689 0.19241577949 0.1920542244 
0.19245827048 0.19349702447 0.19500376633 0.19678976403 0.19866213038 0.20044323099 0.20198839009 0.20319899602 0.20402922526 
0.20448591491 0.20462223002 0.20452654363 0.20430834616 0.20408303469 0.20395715181 0.20401518032 0.20430856504 0.20484742933 
0.20559553337 0.20646921565 0.20734105521 0.2080485511 0.20840726348 0.2082268994 0.20732814539 0.20555788866 0.20280083116 
0.19898620724 0.19408914199 0.1881269545 0.18115132348 0.17323766754 0.1644733535 0.15494643175 0.14473647635 0.13390874751 
0.12251230711 0.11058199603 0.098143487254 0.085220131949 0.071840123442 0.058042621698 0.043881828846 0.029428467955 0.01476858554 
3.7100156163e-16 
_area 1 100 double
0 0.00065003588274 0.0025831006868 0.0057479396308 0.010059364225 0.015400497402 0.021628455382 0.028583834042 0.036102776804 
0.044029083998 0.052223471274 0.060568050971 0.068966149942 0.077339703867 0.085627349529 0.09378521148 0.10178964928 0.10963841326 
0.11734608009 0.12493285386 0.1324104161 0.13976951578 0.14697148716 0.15394449583 0.16058578893 0.16677119909 0.17237207549 
0.1772777078 0.18141737726 0.18477217211 0.18736784911 0.18924918939 0.19044855172 0.19096572921 0.19076761111 0.18980309621 
0.18802190098 0.18538685951 0.18187493028 0.17747046441 0.17216223168 0.16595573677 0.15890061817 0.15111961916 0.14282341198 
0.13430342148 0.12590429126 0.11798424637 0.110875045 0.10485073617 0.10009312508 0.09663112356 0.094345985915 0.093059127344 
0.092579297667 0.09274371009 0.093381795809 0.094351710169 0.095524832138 0.096679955952 0.097570828704 0.097995898309 0.097843218663 
0.097101026428 0.095851751851 0.094253608205 0.092515020365 0.090865703714 0.089530827638 0.088737956319 0.088679129394 0.089419849193 
0.090792596147 0.092639127108 0.094761751617 0.096915706181 0.098831354225 0.1002442834 0.10092288551 0.10068846098 0.099425901441 
0.097084823931 0.093672967258 0.089245380608 0.083893392842 0.077736177414 0.070915604081 0.063593164351 0.055946934261 0.048166929514 
0.040448335271 0.032983295882 0.025952761936 0.019520096218 0.013827635109 0.0089962499848 0.0051266164714 0.0023001881552 0.00057838255597 
6.9292266213e-17 
