# vtk DataFile Version 5.1
vtk output
ASCII
DATASET POLYDATA
POINTS 100 float
0.069763 0.0447002 0.642218 0.0698325 0.0449889 0.641899 0.0700902 0.0456688 0.640793 
0.070498 0.0466926 0.638923 0.0709964 0.0479874 0.636327 0.07151 0.0494611 0.633053 
0.0719548 0.0510113 0.629147 0.0722467 0.0525347 0.624659 0.0723091 0.0539357 0.619628 
0.0720794 0.0551331 0.614085 0.0715145 0.0560658 0.608048 0.0705935 0.0566944 0.601526 
0.0693177 0.0570012 0.594516 0.0677085 0.0569872 0.587011 0.0658035 0.0566675 0.579001 
0.0636503 0.0560665 0.570481 0.0613001 0.055212 0.56145 0.0588007 0.054131 0.551919 
0.0561911 0.0528468 0.541909 0.0534963 0.0513779 0.53145 0.0507256 0.0497386 0.520581 
0.0478712 0.0479413 0.509346 0.0449107 0.0460001 0.497787 0.0418102 0.0439343 0.485944 
0.038529 0.041771 0.473848 0.0350251 0.0395477 0.46152 0.0312609 0.0373119 0.448968 
0.0272071 0.0351197 0.436193 0.0228469 0.033032 0.423184 0.0181767 0.0311104 0.409928 
0.0132065 0.0294114 0.396413 0.0079575 0.0279813 0.382629 0.00245906 0.0268524 0.368574 
-0.00325573 0.0260408 0.354254 -0.00915425 0.0255461 0.339684 -0.0152082 0.0253543 0.324888 
-0.0213962 0.025442 0.309889 -0.0277047 0.0257823 0.294709 -0.0341271 0.0263518 0.279361 
-0.0406611 0.0271367 0.263844 -0.0473035 0.0281373 0.24814 -0.0540453 0.0293707 0.232212 
-0.0608654 0.03087 0.216 -0.0677249 0.0326811 0.199431 -0.0745628 0.0348553 0.182423 
-0.0812937 0.0374418 0.16489 -0.0878076 0.0404768 0.146753 -0.0939734 0.043975 0.127952 
-0.0996441 0.047921 0.108451 -0.104665 0.0522646 0.0882441 -0.108884 0.0569196 0.0673601 
-0.112161 0.0617659 0.0458619 -0.114379 0.0666574 0.023842 -0.115455 0.0714315 0.00141661 
-0.115343 0.0759228 -0.0212846 -0.114041 0.0799761 -0.0441282 -0.111593 0.0834603 -0.0669878 
-0.108079 0.0862787 -0.089753 -0.103618 0.0883767 -0.112336 -0.0983499 0.0897443 -0.134677 
-0.0924316 0.0904147 -0.15674 -0.0860206 0.0904573 -0.178515 -0.0792652 0.0899675 -0.200008 
-0.0722949 0.089054 -0.221234 -0.065212 0.0878253 -0.242209 -0.0580881 0.0863765 -0.262938 
-0.050963 0.0847792 -0.283413 -0.0438471 0.0830749 -0.303605 -0.0367275 0.0812722 -0.323463 
-0.0295759 0.0793496 -0.342918 -0.0223582 0.0772614 -0.361886 -0.0150444 0.0749479 -0.380275 
-0.00761754 0.0723459 -0.397995 -8.10838e-05 0.069401 -0.414967 0.00753623 0.0660773 -0.431128 
0.0151787 0.062365 -0.446438 0.0227652 0.0582839 -0.460881 0.0301932 0.0538833 -0.474466 
0.0373462 0.0492372 -0.487226 0.0441019 0.0444369 -0.499204 0.0503417 0.0395807 -0.510453 
0.0559598 0.034764 -0.521026 0.0608715 0.030069 -0.530966 0.0650191 0.0255573 -0.540304 
0.0683761 0.0212655 -0.549054 0.0709483 0.0172047 -0.557212 0.0727721 0.0133631 -0.56476 
0.0739113 0.00971315 -0.571671 0.0744511 0.00621959 -0.577913 0.074492 0.00284937 -0.583462 
0.0741424 -0.000419324 -0.588301 0.0735117 -0.00358975 -0.592433 0.0727051 -0.00664228 -0.595876 
0.0718183 -0.00953361 -0.59867 0.0709347 -0.0121997 -0.60087 0.0701237 -0.0145623 -0.602543 
0.0694403 -0.0165372 -0.603757 0.0689253 -0.0180447 -0.604578 0.068607 -0.0190191 -0.605059 
0.0685014 -0.0194169 -0.605232 
LINES 2 100
OFFSETS vtktypeint64
0 100 
CONNECTIVITY vtktypeint64
0 1 2 3 4 5 6 7 8 
9 10 11 12 13 14 15 16 17 
18 19 20 21 22 23 24 25 26 
27 28 29 30 31 32 33 34 35 
36 37 38 39 40 41 42 43 44 
45 46 47 48 49 50 51 52 53 
54 55 56 57 58 59 60 61 62 
63 64 65 66 67 68 69 70 71 
72 73 74 75 76 77 78 79 80 
81 82 83 84 85 86 87 88 89 
90 91 92 93 94 95 96 97 98 
99 
POINT_DATA 100
FIELD FieldData 3
_theta 1 100 double
0 0.031733259127 0.063466518254 0.095199777382 0.12693303651 0.15866629564 0.19039955476 0.22213281389 0.25386607302 
0.28559933214 0.31733259127 0.3490658504 0.38079910953 0.41253236865 0.44426562778 0.47599888691 0.50773214603 0.53946540516 
0.57119866429 0.60293192342 0.63466518254 0.66639844167 0.6981317008 0.72986495992 0.76159821905 0.79333147818 0.82506473731 
0.85679799643 0.88853125556 0.92026451469 0.95199777382 0.98373103294 1.0154642921 1.0471975512 1.0789308103 1.1106640695 
1.1423973286 1.1741305877 1.2058638468 1.237597106 1.2693303651 1.3010636242 1.3327968833 1.3645301425 1.3962634016 
1.4279966607 1.4597299198 1.491463179 1.5231964381 1.5549296972 1.5866629564 1.6183962155 1.6501294746 1.6818627337 
1.7135959929 1.745329252 1.7770625111 1.8087957702 1.8405290294 1.8722622885 1.9039955476 1.9357288068 1.9674620659 
1.999195325 2.0309285841 2.0626618433 2.0943951024 2.1261283615 2.1578616206 2.1895948798 2.2213281389 2.253061398 
2.2847946572 2.3165279163 2.3482611754 2.3799944345 2.4117276937 2.4434609528 2.4751942119 2.506927471 2.5386607302 
2.5703939893 2.6021272484 2.6338605076 2.6655937667 2.6973270258 2.7290602849 2.7607935441 2.7925268032 2.8242600623 
2.8559933214 2.8877265806 2.9194598397 2.9511930988 2.982926358 3.0146596171 3.0463928762 3.0781261353 3.1098593945 
3.1415926536 
_radius 1 100 double
1.6676458976e-15 0.012658468919 0.025290225239 0.037857915355 0.050318492132 0.06262223466 0.074713429776 0.086532686217 0.098020504821 
0.10912145055 0.11978814012 0.12998431445 0.13968648818 0.14888399195 0.15757756244 0.16577689571 0.17349767387 0.18075848397 
0.1875778685 0.19397163255 0.19995057352 0.20551893946 0.21067402305 0.21540723092 0.21970668518 0.22356097194 0.22696321284 
0.22991440233 0.23242504887 0.23451455018 0.23620828712 0.23753298418 0.2385113257 0.23915701814 0.23947138035 0.23944215785 
0.23904474663 0.23824557172 0.23700711413 0.2352940032 0.23307959078 0.23035241918 0.22712198344 0.22342321752 0.21931922199 
0.21490183196 0.21028960157 0.20562265903 0.20105386637 0.19673611803 0.19280663599 0.18937064837 0.18648834783 0.184169557 
0.18237895262 0.18105077306 0.18010748058 0.17947493308 0.17908872481 0.17889117436 0.17882336641 0.17881916476 0.17880652144 
0.17871661297 0.17849693963 0.17812320001 0.1776059555 0.17699008088 0.17634691061 0.17576071333 0.17531247424 0.17506451412 
0.17504888342 0.17526091144 0.17565752818 0.1761588823 0.17665177655 0.17699433961 0.17702244465 0.17655878045 0.17542480676 
0.17345460392 0.17050871728 0.16648591155 0.16133114414 0.1550387243 0.14765034735 0.13924839995 0.12994557592 0.1198723543 
0.10916418489 0.097950207256 0.08634494279 0.074443706934 0.06232169535 0.050036045633 0.037629791725 0.025136502923 0.012584511786 
8.8358788971e-16 
_area 1 100 double
0 0.00047101537046 0.0018805184357 0.0042161883113 0.0074525746665 0.011545925267 0.0164304299 0.022017837757 0.028201598582 
0.034865378791 0.041894090244 0.049183961194 0.056647815201 0.064213609496 0.071817768152 0.079397554633 0.086886740395 0.094216303444 
0.1013188872 0.10813446694 0.11461532552 0.12072959459 0.12646317317 0.13181961436 0.13681685955 0.14147942722 0.14582639484 
0.14985924358 0.15355559342 0.15687148976 0.15974952913 0.16212879686 0.16395508099 0.16519161968 0.16582979092 0.16589666216 
0.16545261921 0.16456883789 0.16328596699 0.16158730921 0.15941332003 0.15669348925 0.15336989831 0.1494131683 0.14483687503 
0.13971135237 0.13417312023 0.12842442514 0.12271853758 0.11732738233 0.1124874621 0.10833461831 0.1048735427 0.10200456966 
0.099565325665 0.097374252205 0.095286919149 0.093231971314 0.09120819583 0.089258052682 0.087430031718 0.085741505875 0.084159089033 
0.082607374726 0.081001269942 0.07928460374 0.077457493187 0.075585271685 0.073790753695 0.072233471319 0.071078488289 0.070459108377 
0.070445598787 0.071035620698 0.072164893732 0.073720710796 0.07554868 0.07745538621 0.079212381129 0.080565282981 0.081250288779 
0.081018727836 0.079667695373 0.077071675375 0.073207712853 0.068166603473 0.062145298974 0.055420519318 0.048308826996 0.041122492732 
0.034132037147 0.027544484299 0.02150108501 0.016091322872 0.011374802262 0.0074015825283 0.0042241775787 0.0018988380374 0.00047816108149 
1.8878617798e-17 
