# vtk DataFile Version 5.1
vtk output
ASCII
DATASET POLYDATA
POINTS 100 float
0.11742 0.0734064 0.75128 0.117564 0.0736205 0.750901 0.118007 0.0741111 0.749615 
0.11871 0.07485 0.747481 0.119619 0.0757923 0.744588 0.120661 0.0768793 0.741041 
0.121755 0.0780428 0.736949 0.122819 0.0792096 0.732405 0.123771 0.080306 0.727476 
0.124538 0.081262 0.722192 0.125058 0.0820151 0.716545 0.125282 0.0825127 0.710485 
0.125175 0.0827142 0.703935 0.124712 0.0825914 0.696796 0.123875 0.0821279 0.688971 
0.122651 0.0813184 0.680374 0.121031 0.0801663 0.670947 0.118999 0.0786824 0.660673 
0.116538 0.0768824 0.649578 0.113627 0.0747854 0.637734 0.110242 0.0724129 0.625249 
0.106358 0.0697877 0.612258 0.101956 0.0669339 0.598904 0.0970215 0.0638777 0.585324 
0.0915563 0.0606479 0.571627 0.0855757 0.0572768 0.557887 0.0791133 0.0538015 0.544128 
0.0722199 0.0502642 0.530325 0.0649623 0.0467129 0.516407 0.0574183 0.043201 0.502267 
0.0496719 0.0397866 0.487773 0.041806 0.0365311 0.472791 0.0338957 0.0334974 0.457196 
0.0260022 0.0307476 0.440891 0.0181675 0.0283407 0.423817 0.0104123 0.0263297 0.405959 
0.00273566 0.0247598 0.387344 -0.00488177 0.0236661 0.368038 -0.0124724 0.0230718 0.348128 
-0.0200741 0.0229872 0.327716 -0.0277206 0.023409 0.306895 -0.0354323 0.0243206 0.285741 
-0.0432076 0.0256925 0.264297 -0.0510154 0.0274832 0.24257 -0.0587911 0.0296413 0.22053 
-0.0664353 0.0321069 0.198116 -0.0738168 0.0348146 0.175247 -0.080779 0.0376957 0.151837 
-0.0871486 0.040681 0.12781 -0.0927484 0.0437035 0.103116 -0.0974097 0.0467012 0.077746 
-0.100986 0.0496195 0.0517361 -0.103363 0.0524133 0.0251721 -0.104471 0.055048 -0.00181593 
-0.10429 0.0575013 -0.0290636 -0.102847 0.0597621 -0.0563872 -0.100223 0.0618308 -0.0836005 
-0.096539 0.063717 -0.110533 -0.0919487 0.0654373 -0.137047 -0.0866277 0.0670124 -0.163045 
-0.0807591 0.0684638 -0.188482 -0.0745198 0.0698097 -0.213361 -0.0680685 0.0710619 -0.237731 
-0.0615354 0.0722228 -0.261672 -0.0550157 0.073283 -0.285282 -0.048566 0.0742199 -0.308659 
-0.0422053 0.0749978 -0.331889 -0.0359192 0.0755692 -0.355025 -0.0296669 0.075877 -0.378083 
-0.0233914 0.0758581 -0.401038 -0.0170295 0.0754476 -0.423819 -0.010523 0.0745842 -0.446323 
-0.00382825 0.0732146 -0.468422 0.00307593 0.0712984 -0.489974 0.0101831 0.0688122 -0.510842 
0.0174569 0.0657526 -0.5309 0.0248322 0.0621375 -0.550048 0.0322184 0.0580066 -0.568215 
0.0395061 0.0534202 -0.585362 0.0465746 0.0484564 -0.601479 0.0533009 0.0432074 -0.616577 
0.0595684 0.0377749 -0.630682 0.0652752 0.0322652 -0.643827 0.0703404 0.0267838 -0.656039 
0.0747091 0.0214305 -0.66734 0.078355 0.0162953 -0.677737 0.0812806 0.0114549 -0.687227 
0.0835155 0.0069703 -0.695799 0.0851132 0.00288555 -0.703439 0.0861461 -0.000772318 -0.710137 
0.0867001 -0.00399241 -0.715899 0.086869 -0.00677814 -0.720745 0.0867486 -0.00914475 -0.724719 
0.0864325 -0.0111163 -0.727885 0.0860072 -0.0127225 -0.730327 0.0855494 -0.0139953 -0.732138 
0.0851238 -0.014966 -0.733416 0.0847813 -0.0156621 -0.734249 0.0845587 -0.0161052 -0.734711 
0.0844779 -0.0163091 -0.734847 
LINES 2 100
OFFSETS vtktypeint64
0 100 
CONNECTIVITY vtktypeint64
0 1 2 3 4 5 6 7 8 
9 10 11 12 13 14 15 16 17 
18 19 20 21 22 23 24 25 26 
27 28 29 30 31 32 33 34 35 
36 37 38 39 40 41 42 43 44 
45 46 47 48 49 50 51 52 53 
54 55 56 57 58 59 60 61 62 
63 64 65 66 67 68 69 70 71 
72 73 74 75 76 77 78 79 80 
81 82 83 84 85 86 87 88 89 
90 91 92 93 94 95 96 97 98 
99 
POINT_DATA 100
FIELD FieldData 3
_theta 1 100 double
0 0.031733259127 0.063466518254 0.095199777382 0.12693303651 0.15866629564 0.19039955476 0.22213281389 0.25386607302 
0.28559933214 0.31733259127 0.3490658504 0.38079910953 0.41253236865 0.44426562778 0.47599888691 0.50773214603 0.53946540516 
0.57119866429 0.60293192342 0.63466518254 0.66639844167 0.6981317008 0.72986495992 0.76159821905 0.79333147818 0.82506473731 
0.85679799643 0.88853125556 0.92026451469 0.95199777382 0.98373103294 1.0154642921 1.0471975512 1.0789308103 1.1106640695 
1.1423973286 1.1741305877 1.2058638468 1.237597106 1.2693303651 1.3010636242 1.3327968833 1.3645301425 1.3962634016 
1.4279966607 1.4597299198 1.491463179 1.5231964381 1.5549296972 1.5866629564 1.6183962155 1.6501294746 1.6818627337 
1.7135959929 1.745329252 1.7770625111 1.8087957702 1.8405290294 1.8722622885 1.9039955476 1.9357288068 1.9674620659 
1.999195325 2.0309285841 2.0626618433 2.0943951024 2.1261283615 2.1578616206 2.1895948798 2.2213281389 2.253061398 
2.2847946572 2.3165279163 2.3482611754 2.3799944345 2.4117276937 2.4434609528 2.4751942119 2.506927471 2.5386607302 
2.5703939893 2.6021272484 2.6338605076 2.6655937667 2.6973270258 2.7290602849 2.7607935441 2.7925268032 2.8242600623 
2.8559933214 2.8877265806 2.9194598397 2.9511930988 2.982926358 3.0146596171 3.0463928762 3.0781261353 3.1098593945 
3.1415926536 
_radius 1 100 double
1.2363699272e-15 0.014685657797 0.029367247387 0.044026049093 0.058627912723 0.073119386735 0.087427354893 0.10146222335 0.11512408947 
0.12831084515 0.14092688718 0.15289106062 0.16414265441 0.17464466192 0.18438402079 0.19336902561 0.20162445947 0.2091851894 
0.21608906877 0.22237005476 0.22805249725 0.23314754283 0.23765244574 0.24155322215 0.2448305146 0.24746782454 0.24946058893 
0.25082414552 0.25159864228 0.25184945678 0.25166258182 0.25113546038 0.25036467703 0.24943258293 0.24839524839 0.24727400277 
0.24605218997 0.24467777834 0.24307142585 0.24113881528 0.23878565924 0.2359336593 0.23253572948 0.22858882671 0.22414272364 
0.21930308355 0.21422743033 0.20911328349 0.20417901783 0.19963982464 0.19568300198 0.19244780822 0.19001433776 0.18840299862 
0.18758219197 0.18747888127 0.18798676716 0.18896991629 0.19026420648 0.19168196682 0.19302424749 0.19410064053 0.19475206011 
0.19487054719 0.19441182367 0.19339887339 0.19191679734 0.19010033923 0.18811609988 0.186141827 0.18434536055 0.18286577648 
0.18179889717 0.18118857358 0.18102408963 0.18124296572 0.18173768646 0.18236466788 0.18295408678 0.18331977955 0.18326895818 
0.1826117452 0.18117043926 0.17878813504 0.17533607083 0.17071902996 0.16487829341 0.15779194532 0.14947267289 0.13996351219 
0.12933222941 0.11766516215 0.10506135532 0.091627698144 0.077475515141 0.062718721001 0.047473282695 0.031857434092 0.015991961693 
8.1084162582e-16 
_area 1 100 double
0 0.00057510250454 0.0022936913476 0.0051348548122 0.0090613446961 0.014016493603 0.019921103656 0.026671656804 0.034141300677 
0.042184567991 0.050645655522 0.059368620338 0.068206788759 0.077029063406 0.085722953242 0.094196291942 0.1023793414 0.11022668109 
0.11771664975 0.12484625166 0.13162043073 0.1380361003 0.14406433857 0.14963853568 0.15465781107 0.15900917419 0.16260150848 
0.16539754284 0.16743052461 0.16879892086 0.16964190087 0.17010634758 0.17031819727 0.17036546198 0.17029120481 0.17008889753 
0.16969594818 0.16899339719 0.16782325136 0.16601787287 0.16342702866 0.15993970928 0.15550508402 0.15015260341 0.14400521295 
0.13727877007 0.13026488286 0.12329982502 0.116725211 0.11084457643 0.10587698781 0.10191603241 0.098921169551 0.096759660396 
0.0952719065 0.094321778862 0.093820686287 0.093721152804 0.093969415615 0.094441263309 0.094935048063 0.095230619743 0.095146922343 
0.094566314778 0.093431466169 0.091731847036 0.089498541539 0.086809664794 0.083793124679 0.080618893455 0.077483911489 0.074596176614 
0.072161839609 0.070373479766 0.069388803615 0.069295361723 0.070075327668 0.071613784051 0.073683074804 0.075916442598 0.077913156728 
0.079321490163 0.079848660589 0.079269919557 0.077441096044 0.074307583539 0.069906363172 0.064360466356 0.057867138231 0.050681704491 
0.043098724538 0.035431221115 0.0279887211 0.021055817902 0.014874180337 0.0096313166704 0.0054583601097 0.0024367311919 0.00061057656483 
3.6642747214e-17 
