# vtk DataFile Version 5.1
vtk output
ASCII
DATASET POLYDATA
POINTS 100 float
0.11433 0.0476281 0.682165 0.11455 0.0479025 0.682044 0.115292 0.0485648 0.681532 
0.116465 0.0495775 0.680628 0.117928 0.0508816 0.679328 0.119508 0.0524009 0.677622 
0.121014 0.054049 0.675497 0.122264 0.0557348 0.672925 0.123098 0.0573698 0.669871 
0.123394 0.0588732 0.666287 0.123081 0.0601766 0.662117 0.122134 0.0612268 0.6573 
0.120581 0.0619866 0.651772 0.118484 0.0624344 0.645476 0.11593 0.0625621 0.638365 
0.113013 0.0623726 0.630409 0.109821 0.0618758 0.621596 0.106418 0.0610864 0.611941 
0.102839 0.0600209 0.601477 0.0990804 0.0586959 0.590262 0.0951083 0.0571283 0.578367 
0.09086 0.0553353 0.565874 0.0862581 0.0533365 0.552867 0.081224 0.0511552 0.539428 
0.0756917 0.0488215 0.525626 0.0696205 0.0463736 0.511514 0.0630041 0.043859 0.497128 
0.0558742 0.0413346 0.482483 0.0482989 0.0388659 0.467577 0.0403753 0.0365244 0.452395 
0.0322182 0.0343847 0.43691 0.0239453 0.0325204 0.421092 0.0156625 0.0310003 0.404914 
0.00744992 0.0298841 0.388352 -0.000647823 0.0292197 0.37139 -0.00862679 0.0290401 0.354021 
-0.0165223 0.0293625 0.336245 -0.0244019 0.0301882 0.318067 -0.0323519 0.0315037 0.299493 
-0.0404617 0.033282 0.280525 -0.0488046 0.0354856 0.261159 -0.0574202 0.0380686 0.241383 
-0.0662996 0.0409791 0.221176 -0.0753759 0.0441614 0.200511 -0.0845203 0.0475573 0.179355 
-0.0935466 0.051107 0.15768 -0.102222 0.0547491 0.135467 -0.110283 0.0584213 0.11271 
-0.117459 0.0620597 0.0894256 -0.123493 0.0655994 0.0656532 -0.128162 0.0689753 0.0414587 
-0.131299 0.0721234 0.0169317 -0.132808 0.0749826 -0.00781835 -0.132666 0.0774976 -0.0326694 
-0.130926 0.0796215 -0.0574955 -0.127708 0.0813191 -0.0821756 -0.123188 0.0825684 -0.106603 
-0.117576 0.083363 -0.130694 -0.1111 0.083712 -0.15439 -0.103981 0.083639 -0.177662 
-0.0964186 0.0831794 -0.200509 -0.0885733 0.0823768 -0.222952 -0.0805603 0.0812776 -0.245028 
-0.0724446 0.0799263 -0.26678 -0.0642442 0.0783593 -0.288248 -0.0559374 0.0766008 -0.309461 
-0.0474743 0.0746589 -0.330426 -0.0387905 0.072524 -0.351129 -0.0298204 0.0701694 -0.371529 
-0.0205103 0.067553 -0.391563 -0.0108283 0.0646223 -0.411149 -0.000770919 0.06132 -0.430195 
0.00963389 0.0575907 -0.448606 0.020328 0.0533885 -0.466296 0.0312272 0.0486835 -0.483192 
0.0422275 0.0434675 -0.499243 0.0532133 0.0377576 -0.51442 0.0640653 0.0315984 -0.528722 
0.074668 0.0250608 -0.542164 0.0849154 0.0182394 -0.554783 0.0947157 0.0112474 -0.56662 
0.103993 0.00421029 -0.577721 0.11269 -0.0027417 -0.588125 0.120762 -0.00948128 -0.597862 
0.128183 -0.0158913 -0.606947 0.134937 -0.021871 -0.615381 0.141019 -0.0273407 -0.623153 
0.146434 -0.032245 -0.630241 0.151197 -0.0365535 -0.636624 0.155327 -0.0402606 -0.642283 
0.158854 -0.0433828 -0.647211 0.161815 -0.0459553 -0.651415 0.164252 -0.0480276 -0.65492 
0.166214 -0.0496583 -0.657767 0.167752 -0.0509104 -0.660013 0.168918 -0.0518463 -0.661724 
0.169762 -0.0525234 -0.66297 0.170327 -0.0529903 -0.663814 0.170646 -0.0532842 -0.664307 
0.170742 -0.0534282 -0.664483 
LINES 2 100
OFFSETS vtktypeint64
0 100 
CONNECTIVITY vtktypeint64
0 1 2 3 4 5 6 7 8 
9 10 11 12 13 14 15 16 17 
18 19 20 21 22 23 24 25 26 
27 28 29 30 31 32 33 34 35 
36 37 38 39 40 41 42 43 44 
45 46 47 48 49 50 51 52 53 
54 55 56 57 58 59 60 61 62 
63 64 65 66 67 68 69 70 71 
72 73 74 75 76 77 78 79 80 
81 82 83 84 85 86 87 88 89 
90 91 92 93 94 95 96 97 98 
99 
POINT_DATA 100
FIELD FieldData 3
_theta 1 100 double
0 0.031733259127 0.063466518254 0.095199777382 0.12693303651 0.15866629564 0.19039955476 0.22213281389 0.25386607302 
0.28559933214 0.31733259127 0.3490658504 0.38079910953 0.41253236865 0.44426562778 0.47599888691 0.50773214603 0.53946540516 
0.57119866429 0.60293192342 0.63466518254 0.66639844167 0.6981317008 0.72986495992 0.76159821905 0.79333147818 0.82506473731 
0.85679799643 0.88853125556 0.92026451469 0.95199777382 0.98373103294 1.0154642921 1.0471975512 1.0789308103 1.1106640695 
1.1423973286 1.1741305877 1.2058638468 1.237597106 1.2693303651 1.3010636242 1.3327968833 1.3645301425 1.3962634016 
1.4279966607 1.4597299198 1.491463179 1.5231964381 1.5549296972 1.5866629564 1.6183962155 1.6501294746 1.6818627337 
1.7135959929 1.745329252 1.7770625111 1.8087957702 1.8405290294 1.8722622885 1.9039955476 1.9357288068 1.9674620659 
1.999195325 2.0309285841 2.0626618433 2.0943951024 2.1261283615 2.1578616206 2.1895948798 2.2213281389 2.253061398 
2.2847946572 2.3165279163 2.3482611754 2.3799944345 2.4117276937 2.4434609528 2.4751942119 2.506927471 2.5386607302 
2.5703939893 2.6021272484 2.6338605076 2.6655937667 2.6973270258 2.7290602849 2.7607935441 2.7925268032 2.8242600623 
2.8559933214 2.8877265806 2.9194598397 2.9511930988 2.982926358 3.0146596171 3.0463928762 3.0781261353 3.1098593945 
3.1415926536 
_radius 1 100 double
3.2760104724e-16 0.016032755653 0.031897016987 0.047431674962 0.062501962915 0.077008014849 0.090888305029 0.10411754033 0.11669956758 
0.12865677333 0.14001803071 0.150807334 0.16103489663 0.17069185953 0.17974905863 0.18815965575 0.19586492026 0.20280212513 
0.20891343887 0.21415482786 0.21850422116 0.22196836835 0.22458780962 0.22643917762 0.22763383605 0.22831190779 0.22863128128 
0.22875222978 0.22881957635 0.22894540624 0.22919565391 0.22958322412 0.23006883745 0.23056908779 0.23096988347 0.23114286469 
0.23096250036 0.23032204265 0.22914700391 0.2274051299 0.22511199326 0.22233146403 0.21917059025 0.21576894791 0.21228331187 
0.20886946659 0.20566390565 0.20276873877 0.20024295215 0.19810197653 0.19632543437 0.1948706204 0.19368763323 0.19273177641 
0.19197003993 0.19138085035 0.19094904288 0.19065982005 0.19049507673 0.19043312741 0.19045051968 0.19052398267 0.1906314644 
0.1907523237 0.19086722043 0.19095820281 0.19100930615 0.19100774636 0.19094544354 0.19082026253 0.1906362871 0.19040276648 
0.1901318649 0.18983561726 0.18952232909 0.18919222238 0.18883187939 0.18840738508 0.18785703135 0.18708555121 0.18596239447 
0.18432607025 0.18199517048 0.17878493562 0.17452678336 0.16908748433 0.16238471543 0.15439642316 0.14516256547 0.13477912845 
0.12338560281 0.11114815072 0.098241329225 0.084831345031 0.071063349998 0.057054301194 0.042891596851 0.028636414348 0.014329858832 
6.7848701312e-16 
_area 1 100 double
0 0.00060125214443 0.002385172026 0.0052944638974 0.0092407129012 0.014113947152 0.019793908974 0.02616091179 0.03310370606 
0.040521890057 0.048321585844 0.05640553246 0.064661708726 0.072956331742 0.081135891358 0.08903895671 0.096514068416 0.10343745618 
0.10972452642 0.11533175883 0.12024987908 0.12449322974 0.12809185953 0.13109073599 0.13355593011 0.13558321111 0.13730198955 
0.13886810485 0.14044322977 0.14216506729 0.14411738097 0.14630943342 0.14867055937 0.15105975106 0.15328588163 0.15513361077 
0.15639136733 0.15687852093 0.1564691569 0.15511040749 0.15283328059 0.1497533663 0.14605915738 0.14198813093 0.13779448496 
0.13371493435 0.12993802464 0.12657953093 0.12366685258 0.12114017759 0.11887681927 0.1167297471 0.11456197981 0.11227121239 
0.10980553235 0.10716501624 0.10439234424 0.10156097215 0.09876112134 0.096079356773 0.093578918081 0.091296711268 0.089254437921 
0.087463093256 0.08591222289 0.084556292966 0.083317303557 0.082109562794 0.080873698512 0.079602729776 0.078349665086 0.077215131038 
0.07632368633 0.075803324345 0.075744508908 0.07609986741 0.076750937928 0.077599770724 0.078546007933 0.079454250498 0.080137843035 
0.080362756362 0.079870234581 0.078412641246 0.075794819951 0.071912619791 0.066780421784 0.060540700117 0.053451544178 0.045853174393 
0.038120569882 0.030613545412 0.023635890492 0.017411627209 0.012080867605 0.0077124031508 0.0043264012891 0.0019187070961 0.0004790558712 
5.3679754929e-17 
