# vtk DataFile Version 5.1
vtk output
ASCII
DATASET POLYDATA
POINTS 100 float
0.119099 0.0359761 0.670869 0.119025 0.0363634 0.670603 0.118827 0.0373405 0.66972 
0.118516 0.0388314 0.668243 0.11811 0.0407195 0.666214 0.117632 0.0428602 0.66368 
0.117105 0.0450978 0.660691 0.116557 0.0472817 0.657294 0.116011 0.0492825 0.653523 
0.115489 0.0510054 0.649395 0.115008 0.0523981 0.644911 0.11458 0.0534547 0.640047 
0.114211 0.0542123 0.634763 0.1139 0.0547441 0.629003 0.11364 0.0551468 0.622701 
0.113416 0.0555268 0.615789 0.113207 0.0559844 0.608206 0.112984 0.0566002 0.599906 
0.112708 0.0574236 0.590862 0.112332 0.0584656 0.581077 0.1118 0.0596969 0.57058 
0.11105 0.0610504 0.55943 0.11001 0.0624285 0.547715 0.108607 0.0637141 0.53554 
0.106767 0.0647832 0.523027 0.104417 0.0655188 0.510299 0.101497 0.0658228 0.497478 
0.0979575 0.065626 0.484669 0.0937693 0.0648949 0.471955 0.0889237 0.0636339 0.459394 
0.0834352 0.061884 0.447009 0.0773418 0.0597179 0.434792 0.0707015 0.0572327 0.422706 
0.0635886 0.0545403 0.410685 0.0560869 0.0517586 0.398645 0.0482826 0.0490023 0.386487 
0.0402566 0.0463762 0.374107 0.0320777 0.0439702 0.361403 0.0237974 0.0418566 0.348279 
0.0154473 0.0400902 0.334651 0.0070394 0.0387091 0.320449 -0.00143071 0.0377375 0.305619 
-0.00997714 0.0371886 0.290119 -0.0186152 0.0370668 0.273921 -0.0273515 0.0373698 0.257004 
-0.036174 0.0380886 0.239352 -0.0450433 0.0392079 0.220953 -0.0538874 0.0407042 0.201795 
-0.0625984 0.0425446 0.181868 -0.0710358 0.0446855 0.161164 -0.0790324 0.0470719 0.139681 
-0.0864053 0.0496385 0.117423 -0.09297 0.0523111 0.0944097 -0.0985554 0.0550111 0.0706782 
-0.10302 0.0576594 0.0462863 -0.106266 0.0601816 0.0213157 -0.10825 0.0625139 -0.00412741 
-0.108986 0.0646066 -0.0299139 -0.108551 0.0664273 -0.0558954 -0.107073 0.0679618 -0.0819101 
-0.104725 0.0692125 -0.10779 -0.101708 0.0701957 -0.133369 -0.0982302 0.0709356 -0.158492 
-0.0944927 0.0714591 -0.183023 -0.0906693 0.0717892 -0.20685 -0.0868931 0.0719396 -0.229895 
-0.0832469 0.0719112 -0.252108 -0.0797602 0.0716904 -0.273476 -0.0764114 0.07125 -0.294012 
-0.0731364 0.0705536 -0.313757 -0.0698416 0.0695604 -0.332768 -0.0664198 0.0682334 -0.351113 
-0.0627676 0.0665463 -0.368861 -0.0588013 0.0644911 -0.386076 -0.0544702 0.0620832 -0.402808 
-0.0497656 0.0593642 -0.419094 -0.0447237 0.0564019 -0.434948 -0.0394241 0.0532866 -0.450366 
-0.0339815 0.050125 -0.465323 -0.0285348 0.0470315 -0.479783 -0.0232325 0.0441181 -0.493697 
-0.0182178 0.041485 -0.507012 -0.0136142 0.0392115 -0.519673 -0.00951462 0.0373492 -0.531632 
-0.00597411 0.0359186 -0.54285 -0.00300697 0.0349088 -0.553296 -0.000589108 0.0342807 -0.562952 
0.00133552 0.0339726 -0.571813 0.00284531 0.0339088 -0.579883 0.00402962 0.0340084 -0.587172 
0.00497717 0.034194 -0.593697 0.00576585 0.0344 -0.599478 0.00645507 0.0345773 -0.604533 
0.00708164 0.0346964 -0.608878 0.00765927 0.034747 -0.612528 0.00818166 0.0347353 -0.615493 
0.00862828 0.0346784 -0.617779 0.00897175 0.0345987 -0.619392 0.00918552 0.0345174 -0.620333 
0.00925054 0.0344493 -0.620606 
LINES 2 100
OFFSETS vtktypeint64
0 100 
CONNECTIVITY vtktypeint64
0 1 2 3 4 5 6 7 8 
9 10 11 12 13 14 15 16 17 
18 19 20 21 22 23 24 25 26 
27 28 29 30 31 32 33 34 35 
36 37 38 39 40 41 42 43 44 
45 46 47 48 49 50 51 52 53 
54 55 56 57 58 59 60 61 62 
63 64 65 66 67 68 69 70 71 
72 73 74 75 76 77 78 79 80 
81 82 83 84 85 86 87 88 89 
90 91 92 93 94 95 96 97 98 
99 
POINT_DATA 100
FIELD FieldData 3
_theta 1 100 double
0 0.031733259127 0.063466518254 0.095199777382 0.12693303651 0.15866629564 0.19039955476 0.22213281389 0.25386607302 
0.28559933214 0.31733259127 0.3490658504 0.38079910953 0.41253236865 0.44426562778 0.47599888691 0.50773214603 0.53946540516 
0.57119866429 0.60293192342 0.63466518254 0.66639844167 0.6981317008 0.72986495992 0.76159821905 0.79333147818 0.82506473731 
0.85679799643 0.88853125556 0.92026451469 0.95199777382 0.98373103294 1.0154642921 1.0471975512 1.0789308103 1.1106640695 
1.1423973286 1.1741305877 1.2058638468 1.237597106 1.2693303651 1.3010636242 1.3327968833 1.3645301425 1.3962634016 
1.4279966607 1.4597299198 1.491463179 1.5231964381 1.5549296972 1.5866629564 1.6183962155 1.6501294746 1.6818627337 
1.7135959929 1.745329252 1.7770625111 1.8087957702 1.8405290294 1.8722622885 1.9039955476 1.9357288068 1.9674620659 
1.999195325 2.0309285841 2.0626618433 2.0943951024 2.1261283615 2.1578616206 2.1895948798 2.2213281389 2.253061398 
2.2847946572 2.3165279163 2.3482611754 2.3799944345 2.4117276937 2.4434609528 2.4751942119 2.506927471 2.5386607302 
2.5703939893 2.6021272484 2.6338605076 2.6655937667 2.6973270258 2.7290602849 2.7607935441 2.7925268032 2.8242600623 
2.8559933214 2.8877265806 2.9194598397 2.9511930988 2.982926358 3.0146596171 3.0463928762 3.0781261353 3.1098593945 
3.1415926536 
_radius 1 100 double
9.113227421e-16 0.012554466732 0.025100744069 0.037626701067 0.050114670122 0.062538454016 0.074860624186 0.087030856417 0.098986013732 
0.11065233553 0.12194958334 0.13279654143 0.14311702864 0.15284557246 0.16193203886 0.17034469724 0.17807139138 0.18511871723 
0.19150939172 0.19727826767 0.20246760824 0.20712223332 0.21128504932 0.21499340325 0.21827676465 0.22115634232 0.22364697782 
0.22576076769 0.22751094738 0.22891449465 0.22999261434 0.23076903353 0.23126647682 0.23150189677 0.23148122035 0.23119461406 
0.23061346216 0.22969021382 0.22836187572 0.22655725157 0.22420724816 0.22125690094 0.21767737602 0.21347611458 0.20870346164 
0.20345450849 0.19786544947 0.19210448968 0.18635818761 0.1808149604 0.1756481462 0.17100129034 0.16697796647 0.16363738725 
0.1609956498 0.15903132735 0.15769360801 0.15691113695 0.15659992019 0.15666915924 0.15702486345 0.15757241798 0.1582202984 
0.1588867017 0.15950856022 0.16004973294 0.16050453996 0.16089476495 0.16126109337 0.16165182386 0.16211184097 0.16267359139 
0.16335024975 0.164130527 0.16497491808 0.165813931 0.16654918646 0.16705794741 0.16720089349 0.16683222581 0.16581074508 
0.1640104449 0.1613293374 0.15769558832 0.15307049691 0.14744833327 0.14085346267 0.13333547615 0.12496316944 0.1158181736 
0.10598889627 0.095565255857 0.084634538283 0.073278586178 0.061572407112 0.049584122404 0.037375972367 0.025005911218 0.012529259959 
1.0626793211e-15 
_area 1 100 double
0 0.00040461001148 0.0016127190054 0.0036072361613 0.0063599327641 0.0098319022299 0.01397442816 0.01873057108 0.02403776668 
0.029831257847 0.036047007678 0.042621341052 0.049485011213 0.056553569755 0.063720428792 0.070857908319 0.077826770139 0.08449170381 
0.090739004161 0.09649209046 0.10172120595 0.10644568679 0.11072942989 0.11467133121 0.11839184025 0.12201191575 0.12561356611 
0.12922764013 0.13277326469 0.13619214026 0.1394247884 0.14240755106 0.14509574993 0.14748424259 0.14955658144 0.15124396357 
0.15244233841 0.15302063112 0.1528309329 0.15172569418 0.14958207052 0.14633104943 0.14198505098 0.13665588083 0.13055578136 
0.12397674948 0.11724671217 0.11066870766 0.10446571124 0.098762711563 0.09360917115 0.089013000565 0.084963307889 0.081438227964 
0.078405983877 0.075827682867 0.073669383149 0.071867376125 0.070313167605 0.068923342521 0.067669620719 0.066554171469 0.065582978221 
0.06475027689 0.064038163231 0.06342792137 0.062914895056 0.062518464335 0.062277568931 0.062232224543 0.062414011519 0.062853967473 
0.063587676572 0.064644749545 0.066021717724 0.067677654534 0.069596346973 0.071559572725 0.073156225652 0.07413047315 0.074304737076 
0.073558573508 0.07182861933 0.069110270117 0.065455938705 0.060967908379 0.055786601917 0.050077275718 0.044018573154 0.037794748796 
0.03159079285 0.025587949267 0.019957375022 0.014851589647 0.010395572338 0.006680611636 0.0037636629685 0.0016730004328 0.00041812644471 
4.4486137367e-18 
