# vtk DataFile Version 5.1
vtk output
ASCII
DATASET POLYDATA
POINTS 100 float
0.14818 0.0317732 0.641326 0.148175 0.031983 0.641224 0.148228 0.032467 0.64079 
0.148297 0.0331991 0.640006 0.148313 0.0341398 0.638843 0.148194 0.035241 0.637261 
0.147848 0.0364505 0.635212 0.147188 0.0377183 0.632637 0.146139 0.039 0.629472 
0.144645 0.0402607 0.625652 0.142675 0.0414761 0.62111 0.140222 0.0426316 0.615789 
0.137304 0.0437204 0.609642 0.13396 0.044739 0.602641 0.130237 0.0456832 0.594779 
0.12619 0.0465431 0.586074 0.121868 0.0473 0.576571 0.117309 0.0479239 0.566339 
0.112538 0.0483738 0.55547 0.107559 0.0486004 0.544069 0.102362 0.0485501 0.532251 
0.0969217 0.048172 0.520132 0.0912069 0.0474253 0.507816 0.0851853 0.0462863 0.495391 
0.078832 0.0447554 0.482923 0.0721351 0.0428616 0.47045 0.0651008 0.0406647 0.45798 
0.057755 0.0382541 0.445494 0.0501426 0.0357445 0.43295 0.0423238 0.0332686 0.420288 
0.0343681 0.0309679 0.407435 0.0263472 0.0289812 0.394316 0.0183265 0.0274342 0.380859 
0.0103589 0.0264286 0.367 0.00247913 0.0260347 0.352685 -0.00529886 0.0262856 0.337876 
-0.012981 0.0271755 0.322546 -0.0205896 0.0286618 0.306676 -0.0281563 0.0306698 0.290256 
-0.0357139 0.0331009 0.27328 -0.0432863 0.0358419 0.255738 -0.0508791 0.0387758 0.23762 
-0.0584723 0.0417917 0.218916 -0.0660143 0.0447932 0.19961 -0.0734207 0.0477052 0.179692 
-0.0805763 0.0504772 0.159159 -0.0873409 0.0530842 0.13802 -0.0935583 0.0555246 0.1163 
-0.0990681 0.0578157 0.0940444 -0.103718 0.0599878 0.0713228 -0.107376 0.0620773 0.0482248 
-0.109941 0.0641199 0.0248585 -0.111353 0.0661447 0.00134441 -0.111594 0.0681697 -0.0221921 
-0.110691 0.0701991 -0.0456297 -0.108714 0.0722227 -0.0688593 -0.105764 0.0742161 -0.0917919 
-0.10197 0.0761436 -0.114363 -0.0974736 0.0779614 -0.136537 -0.092419 0.0796205 -0.158305 
-0.0869428 0.0810706 -0.179678 -0.0811649 0.0822628 -0.200688 -0.075183 0.0831511 -0.221371 
-0.0690697 0.0836942 -0.241765 -0.0628728 0.0838554 -0.261897 -0.0566186 0.083602 -0.281777 
-0.0503171 0.0829056 -0.301395 -0.043969 0.0817412 -0.320721 -0.0375728 0.0800872 -0.339703 
-0.0311314 0.0779267 -0.358278 -0.0246575 0.0752484 -0.376375 -0.0181776 0.0720491 -0.393927 
-0.0117329 0.0683359 -0.410877 -0.00537934 0.0641285 -0.427187 0.000815683 0.059462 -0.442839 
0.00677699 0.0543872 -0.457842 0.0124268 0.0489719 -0.472221 0.0176901 0.0432986 -0.486017 
0.0224997 0.0374629 -0.499277 0.0268003 0.0315687 -0.512042 0.0305521 0.0257243 -0.52434 
0.0337322 0.0200361 -0.536173 0.0363351 0.0146033 -0.547516 0.0383724 0.00951303 -0.558315 
0.0398704 0.00483567 -0.568486 0.0408686 0.000622181 -0.577926 0.0414164 -0.00309748 -0.586524 
0.0415707 -0.00631425 -0.594172 0.0413929 -0.00903844 -0.600783 0.0409474 -0.0112969 -0.606301 
0.0402989 -0.0131296 -0.610713 0.0395112 -0.0145854 -0.614054 0.0386457 -0.0157176 -0.616411 
0.0377603 -0.016581 -0.617914 0.0369083 -0.0172277 -0.618729 0.0361373 -0.0177047 -0.619039 
0.0354884 -0.0180524 -0.619033 0.0349948 -0.0183029 -0.61888 0.0346815 -0.0184791 -0.618718 
0.0345638 -0.018595 -0.618633 
LINES 2 100
OFFSETS vtktypeint64
0 100 
CONNECTIVITY vtktypeint64
0 1 2 3 4 5 6 7 8 
9 10 11 12 13 14 15 16 17 
18 19 20 21 22 23 24 25 26 
27 28 29 30 31 32 33 34 35 
36 37 38 39 40 41 42 43 44 
45 46 47 48 49 50 51 52 53 
54 55 56 57 58 59 60 61 62 
63 64 65 66 67 68 69 70 71 
72 73 74 75 76 77 78 79 80 
81 82 83 84 85 86 87 88 89 
90 91 92 93 94 95 96 97 98 
99 
POINT_DATA 100
FIELD FieldData 3
_theta 1 100 double
0 0.031733259127 0.063466518254 0.095199777382 0.12693303651 0.15866629564 0.19039955476 0.22213281389 0.25386607302 
0.28559933214 0.31733259127 0.3490658504 0.38079910953 0.41253236865 0.44426562778 0.47599888691 0.50773214603 0.53946540516 
0.57119866429 0.60293192342 0.63466518254 0.66639844167 0.6981317008 0.72986495992 0.76159821905 0.79333147818 0.82506473731 
0.85679799643 0.88853125556 0.92026451469 0.95199777382 0.98373103294 1.0154642921 1.0471975512 1.0789308103 1.1106640695 
1.1423973286 1.1741305877 1.2058638468 1.237597106 1.2693303651 1.3010636242 1.3327968833 1.3645301425 1.3962634016 
1.4279966607 1.4597299198 1.491463179 1.5231964381 1.5549296972 1.5866629564 1.6183962155 1.6501294746 1.6818627337 
1.7135959929 1.745329252 1.7770625111 1.8087957702 1.8405290294 1.8722622885 1.9039955476 1.9357288068 1.9674620659 
1.999195325 2.0309285841 2.0626618433 2.0943951024 2.1261283615 2.1578616206 2.1895948798 2.2213281389 2.253061398 
2.2847946572 2.3165279163 2.3482611754 2.3799944345 2.4117276937 2.4434609528 2.4751942119 2.506927471 2.5386607302 
2.5703939893 2.6021272484 2.6338605076 2.6655937667 2.6973270258 2.7290602849 2.7607935441 2.7925268032 2.8242600623 
2.8559933214 2.8877265806 2.9194598397 2.9511930988 2.982926358 3.0146596171 3.0463928762 3.0781261353 3.1098593945 
3.1415926536 
_radius 1 100 double
9.6118083331e-16 0.014033376841 0.027932067246 0.041567608727 0.054826755827 0.067617009277 0.079869816141 0.091541200575 0.10261001514 
0.11307438875 0.12294714277 0.13225087347 0.14101312469 0.14926178448 0.15702070985 0.16430567676 0.17112100216 0.17745745426 
0.18329220325 0.18859143627 0.19331581935 0.19742832343 0.20090325064 0.20373482392 0.20594357572 0.20757902773 0.20871776431 
0.20945687429 0.20990369814 0.21016361492 0.21032797721 0.21046412312 0.21060877122 0.21076533205 0.21090503032 0.21097134087 
0.21088706958 0.21056337124 0.20991000282 0.20884609172 0.2073106206 0.20527171501 0.20273374306 0.19974128554 0.19637926804 
0.19276895601 0.18906002723 0.18541944449 0.18201824916 0.17901761694 0.17655555385 0.17473549726 0.17361788085 0.17321545891 
0.17349284963 0.17437029075 0.17573103198 0.17743133027 0.17931193286 0.18121020507 0.18297230437 0.18446468291 0.18558384006 
0.18626309631 0.18647551433 0.18623281402 0.18558081661 0.18459227341 0.18335786774 0.18197600506 0.1805420146 0.17913760764 
0.1778216731 0.1766235227 0.17553943916 0.17453289066 0.1735381954 0.17246690039 0.17121579402 0.16967536164 0.1677375974 
0.16530232587 0.16228149597 0.15860128658 0.15420230207 0.14903853864 0.14307600785 0.13629181551 0.12867415307 0.12022321189 
0.11095264129 0.10089095889 0.090082333605 0.078586365607 0.066476790929 0.053839326431 0.040769054583 0.027367791213 0.013741794566 
9.727121982e-16 
_area 1 100 double
0 0.00049803587144 0.0019712084966 0.0043608919229 0.0075817766098 0.01153578031 0.016124145185 0.021254139159 0.026839354053 
0.032795387333 0.039034363343 0.045461668554 0.05197687626 0.05847905564 0.064875151765 0.071089028472 0.077068033083 0.082783761129 
0.088224747869 0.093381960217 0.098232868613 0.10273325376 0.10682327763 0.11044616017 0.11357047953 0.11620562102 0.11840382201 
0.12024877243 0.12183645163 0.12325561575 0.12457282367 0.12582330386 0.12700715751 0.12809024093 0.12900896413 0.12967748887 
0.12999539416 0.12985516773 0.12915121754 0.12779265641 0.12571955895 0.12291905196 0.11943634849 0.11537693668 0.11089829505 
0.10619219703 0.10146188761 0.096900277732 0.092673362173 0.088909510198 0.08569418015 0.083070212554 0.081042913275 0.079586282751 
0.078645731578 0.078137123269 0.07794904567 0.077954967713 0.078030509667 0.07806332088 0.07794977388 0.077586026748 0.076877860583 
0.075779296656 0.07431728507 0.072586338642 0.070725767251 0.068879080703 0.067147716037 0.06560110503 0.064307024558 0.063333229527 
0.062739865123 0.062576355708 0.062880323311 0.063618448369 0.064622056309 0.065677830408 0.066593991848 0.067210088171 0.067399752005 
0.067067875886 0.066142124747 0.064563313477 0.06228069269 0.059256845176 0.05548188734 0.050990453529 0.045872739488 0.040274318649 
0.034384907124 0.028420014279 0.022600623774 0.017135462025 0.01220880923 0.0079746941642 0.0045562208015 0.0020474427331 0.00051524695836 
7.0574686097e-18 
