# vtk DataFile Version 5.1
vtk output
ASCII
DATASET POLYDATA
POINTS 100 float
0.105097 0.0524386 0.688465 0.105243 0.0526371 0.688229 0.105709 0.0530574 0.687365 
0.106436 0.0536747 0.685889 0.107333 0.0544501 0.683822 0.108284 0.0553333 0.681188 
0.109161 0.0562665 0.67801 0.109835 0.0571874 0.674306 0.110189 0.058034 0.67008 
0.110127 0.0587473 0.665327 0.109584 0.0592748 0.660029 0.108525 0.0595727 0.654157 
0.106952 0.0596075 0.647673 0.104897 0.0593566 0.640541 0.102416 0.0588086 0.632728 
0.0995812 0.0579635 0.624211 0.0964693 0.0568313 0.614986 0.0931533 0.0554321 0.605067 
0.0896924 0.0537948 0.594491 0.0861256 0.0519563 0.583317 0.0824678 0.0499607 0.571622 
0.0787093 0.0478579 0.559493 0.0748182 0.0457024 0.547026 0.0707464 0.0435508 0.534311 
0.0664365 0.0414604 0.521429 0.0618306 0.0394854 0.508445 0.0568791 0.0376749 0.495398 
0.0515471 0.0360691 0.482305 0.0458206 0.034697 0.469155 0.0397078 0.0335744 0.455915 
0.0332397 0.0327024 0.442531 0.0264654 0.0320678 0.428935 0.0194476 0.0316449 0.415052 
0.012254 0.0313982 0.400805 0.00495036 0.031287 0.386119 -0.00240716 0.0312708 0.370931 
-0.00977747 0.0313143 0.355184 -0.0171375 0.0313932 0.338837 -0.0244825 0.0314987 0.321857 
-0.0318224 0.0316399 0.304224 -0.0391761 0.0318448 0.285924 -0.0465631 0.0321589 0.266952 
-0.0539943 0.0326412 0.247305 -0.0614623 0.0333586 0.226988 -0.0689334 0.0343782 0.206011 
-0.0763422 0.0357594 0.184392 -0.0835893 0.0375458 0.162159 -0.0905434 0.0397586 0.139352 
-0.0970466 0.0423915 0.116027 -0.102924 0.0454081 0.0922523 -0.107998 0.048743 0.0681153 
-0.112098 0.0523048 0.0437144 -0.115079 0.0559831 0.019158 -0.116832 0.0596561 -0.00544173 
-0.117295 0.0632008 -0.0299747 -0.11646 0.0665021 -0.0543397 -0.114369 0.0694622 -0.0784503 
-0.111121 0.0720066 -0.10224 -0.106852 0.0740892 -0.125665 -0.101731 0.0756925 -0.148704 
-0.0959441 0.0768262 -0.171359 -0.0896759 0.0775221 -0.193648 -0.0830969 0.0778268 -0.215599 
-0.07635 0.0777939 -0.237245 -0.0695408 0.0774749 -0.258617 -0.0627327 0.076912 -0.279732 
-0.0559471 0.0761317 -0.300596 -0.0491682 0.0751423 -0.321191 -0.0423519 0.0739325 -0.341485 
-0.0354381 0.0724745 -0.361424 -0.0283647 0.0707286 -0.380944 -0.021081 0.0686499 -0.399974 
-0.0135604 0.066196 -0.418442 -0.00580946 0.0633345 -0.436281 0.00212681 0.0600493 -0.453439 
0.0101643 0.0563454 -0.46988 0.0181841 0.0522502 -0.485584 0.0260403 0.0478137 -0.500549 
0.0335722 0.0431046 -0.514789 0.0406173 0.0382048 -0.528323 0.0470255 0.0332033 -0.541179 
0.0526718 0.0281882 -0.553377 0.0574668 0.0232404 -0.564934 0.0613633 0.0184279 -0.57585 
0.0643597 0.013802 -0.586118 0.0664979 0.00939636 -0.595712 0.0678577 0.00522793 -0.604601 
0.068549 0.00130008 -0.612747 0.0687001 -0.00239272 -0.620116 0.0684468 -0.00585941 -0.626679 
0.0679211 -0.00910696 -0.632422 0.067242 -0.0121358 -0.637349 0.0665088 -0.0149368 -0.641483 
0.0657973 -0.01749 -0.644866 0.0651594 -0.0197654 -0.647557 0.0646251 -0.0217259 -0.649622 
0.0642076 -0.0233312 -0.651135 0.0639085 -0.0245425 -0.65216 0.063724 -0.0253277 -0.652752 
0.0636497 -0.0256652 -0.652946 
LINES 2 100
OFFSETS vtktypeint64
0 100 
CONNECTIVITY vtktypeint64
0 1 2 3 4 5 6 7 8 
9 10 11 12 13 14 15 16 17 
18 19 20 21 22 23 24 25 26 
27 28 29 30 31 32 33 34 35 
36 37 38 39 40 41 42 43 44 
45 46 47 48 49 50 51 52 53 
54 55 56 57 58 59 60 61 62 
63 64 65 66 67 68 69 70 71 
72 73 74 75 76 77 78 79 80 
81 82 83 84 85 86 87 88 89 
90 91 92 93 94 95 96 97 98 
99 
POINT_DATA 100
FIELD FieldData 3
_theta 1 100 double
0 0.031733259127 0.063466518254 0.095199777382 0.12693303651 0.15866629564 0.19039955476 0.22213281389 0.25386607302 
0.28559933214 0.31733259127 0.3490658504 0.38079910953 0.41253236865 0.44426562778 0.47599888691 0.50773214603 0.53946540516 
0.57119866429 0.60293192342 0.63466518254 0.66639844167 0.6981317008 0.72986495992 0.76159821905 0.79333147818 0.82506473731 
0.85679799643 0.88853125556 0.92026451469 0.95199777382 0.98373103294 1.0154642921 1.0471975512 1.0789308103 1.1106640695 
1.1423973286 1.1741305877 1.2058638468 1.237597106 1.2693303651 1.3010636242 1.3327968833 1.3645301425 1.3962634016 
1.4279966607 1.4597299198 1.491463179 1.5231964381 1.5549296972 1.5866629564 1.6183962155 1.6501294746 1.6818627337 
1.7135959929 1.745329252 1.7770625111 1.8087957702 1.8405290294 1.8722622885 1.9039955476 1.9357288068 1.9674620659 
1.999195325 2.0309285841 2.0626618433 2.0943951024 2.1261283615 2.1578616206 2.1895948798 2.2213281389 2.253061398 
2.2847946572 2.3165279163 2.3482611754 2.3799944345 2.4117276937 2.4434609528 2.4751942119 2.506927471 2.5386607302 
2.5703939893 2.6021272484 2.6338605076 2.6655937667 2.6973270258 2.7290602849 2.7607935441 2.7925268032 2.8242600623 
2.8559933214 2.8877265806 2.9194598397 2.9511930988 2.982926358 3.0146596171 3.0463928762 3.0781261353 3.1098593945 
3.1415926536 
_radius 1 100 double
3.5740355841e-16 0.012887283767 0.025821869253 0.038836470727 0.051948979891 0.065156018 0.078428094244 0.091707422212 0.10490910693 
0.11792581406 0.13063542945 0.14291077298 0.15463018238 0.16568770929 0.17600174283 0.18552107426 0.19422771296 0.20213613146 
0.20928903215 0.21575017108 0.22159520833 0.22690190248 0.23174112424 0.2361700385 0.24022836512 0.24393795193 0.2473051461 
0.25032485195 0.25298490062 0.25526951796 0.25716120712 0.25864107896 0.25968830429 0.2602796763 0.26039012988 0.25999455964 
0.25907069379 0.25760242476 0.25558300281 0.25301777517 0.2499264962 0.24634545245 0.24232963698 0.23795496081 0.23332007972 
0.22854697124 0.22377908401 0.21917587703 0.21490303837 0.2111186946 0.20795733061 0.20551442226 0.20383523946 0.20291046561 
0.20267943069 0.2030396651 0.20386003095 0.2049944049 0.20629377131 0.20761606606 0.20883429809 0.20984372345 0.21056821183 
0.21096505181 0.21102694792 0.21078017572 0.21027868409 0.2095949958 0.20880955406 0.20800028867 0.2072336323 0.20655743591 
0.20599565229 0.20554441623 0.20516924708 0.2048035055 0.20434876969 0.20367808397 0.20264275647 0.20108256049 0.19883820212 
0.19576422449 0.19174040147 0.18668009949 0.18053481596 0.17329485222 0.16498664731 0.15566761657 0.14541944128 0.13434071738 
0.12253975052 0.11012809793 0.097215199609 0.083904145724 0.070288399455 0.056449276021 0.042454213382 0.028356207755 0.014194950633 
3.644355355e-16 
_area 1 100 double
0 0.00047990100995 0.0019254364938 0.0043518094081 0.0077771191467 0.012212854858 0.017653004607 0.02406361182 0.03137452773 
0.03947489499 0.048213591551 0.057405320331 0.066842120239 0.076308992413 0.085601582936 0.094543752911 0.10300306002 0.11090204378 
0.11822283416 0.12500297559 0.13132216782 0.13728226782 0.14298500009 0.14851249372 0.1539149005 0.1592070004 0.164372023 
0.16936732816 0.17412646968 0.17855778049 0.1825461022 0.18596283363 0.18868175185 0.19059421744 0.1916195439 0.19170963527 
0.19084884227 0.18905025991 0.18634921386 0.18279529457 0.17844688022 0.17337335127 0.16766583312 0.16145035961 0.15489511951 
0.14820695254 0.14161747902 0.13536334103 0.12966744334 0.1247278919 0.12070124087 0.11762786595 0.11540109933 0.11386883086 
0.11289681495 0.11237775407 0.11221377034 0.11228255653 0.11241218202 0.11238729974 0.11198760946 0.11104268109 0.10947992104 
0.10734688168 0.10479876936 0.10205148411 0.099316161665 0.096750762083 0.094450776067 0.092459990368 0.090789547593 0.089442523508 
0.088430439735 0.087794055385 0.087626307878 0.087956570956 0.088846241146 0.090118783606 0.091390331744 0.092336235192 0.092672224469 
0.092139924822 0.090521875463 0.087667795318 0.083520756603 0.078132631789 0.071662507738 0.064357513585 0.056520010731 0.048468277807 
0.040499760908 0.032865602792 0.025761349454 0.019332377107 0.013687561762 0.008914293571 0.0050903286558 0.0022891817166 0.00057663904289 
4.343578349e-18 
