# vtk DataFile Version 5.1
vtk output
ASCII
DATASET POLYDATA
POINTS 100 float
0.103832 0.0270561 0.65003 0.104131 0.0271763 0.649724 0.105028 0.0273898 0.648673 
0.106397 0.0277003 0.646907 0.108049 0.0281133 0.644469 0.109747 0.0286351 0.641411 
0.11124 0.0292711 0.637787 0.11229 0.0300241 0.633641 0.112696 0.0308928 0.629006 
0.112321 0.0318707 0.623896 0.111098 0.0329452 0.618305 0.109037 0.034097 0.612214 
0.10622 0.0353008 0.60559 0.102783 0.0365256 0.598396 0.0988947 0.0377363 0.590602 
0.094736 0.038895 0.582187 0.0904712 0.039963 0.57315 0.0862291 0.0409025 0.563512 
0.0820875 0.0416782 0.553316 0.0780666 0.0422592 0.542623 0.0741302 0.0426203 0.531508 
0.070196 0.0427428 0.520053 0.0661513 0.0426155 0.508332 0.0618735 0.0422352 0.496407 
0.0572505 0.0416069 0.484321 0.0522 0.0407437 0.472091 0.0466824 0.0396668 0.45971 
0.0407082 0.0384054 0.447148 0.0343364 0.0369955 0.43436 0.0276663 0.03548 0.421293 
0.0208218 0.0339067 0.407899 0.0139332 0.0323277 0.394137 0.00711658 0.0307975 0.379987 
0.000456056 0.029371 0.365447 -0.00600981 0.0281019 0.35054 -0.0122943 0.0270399 0.335301 
-0.018461 0.0262292 0.319776 -0.0246141 0.0257066 0.30401 -0.0308814 0.0254997 0.288034 
-0.0373931 0.0256263 0.271858 -0.0442582 0.026094 0.255463 -0.0515419 0.0269005 0.238797 
-0.0592481 0.028035 0.221781 -0.0673082 0.0294791 0.20431 -0.0755785 0.0312093 0.186268 
-0.0838479 0.0331988 0.167544 -0.0918527 0.0354192 0.148044 -0.0992998 0.0378427 0.12771 
-0.105894 0.0404424 0.106527 -0.111364 0.0431937 0.0845349 -0.115492 0.0460729 0.0618277 
-0.118129 0.0490574 0.0385477 -0.119215 0.0521234 0.0148749 -0.118773 0.055245 -0.00898875 
-0.116913 0.0583919 -0.0328385 -0.113809 0.0615287 -0.0564856 -0.109684 0.0646139 -0.0797746 
-0.104783 0.0675996 -0.102596 -0.0993439 0.0704331 -0.124892 -0.0935791 0.0730581 -0.146657 
-0.0876517 0.0754176 -0.167933 -0.0816653 0.0774567 -0.18879 -0.07566 0.0791257 -0.209317 
-0.0696159 0.0803834 -0.229596 -0.0634647 0.0811994 -0.24969 -0.0571054 0.0815561 -0.269628 
-0.0504249 0.0814491 -0.289393 -0.043317 0.0808866 -0.308926 -0.0357013 0.0798885 -0.328128 
-0.0275363 0.0784834 -0.346872 -0.0188282 0.0767061 -0.365022 -0.00963321 0.0745945 -0.382451 
-5.34132e-05 0.0721862 -0.399059 0.00977166 0.0695167 -0.414785 0.0196775 0.0666175 -0.429621 
0.0294885 0.063516 -0.44361 0.0390321 0.0602359 -0.456841 0.0481509 0.0567989 -0.469434 
0.0567115 0.0532269 -0.481519 0.0646105 0.0495443 -0.493219 0.0717759 0.0457808 -0.504619 
0.0781653 0.0419731 -0.515757 0.0837624 0.0381655 -0.526601 0.088571 0.0344099 -0.537053 
0.0926099 0.030764 -0.546952 0.0959075 0.0272884 -0.556091 0.0984995 0.0240429 -0.564236 
0.100427 0.0210821 -0.571162 0.101736 0.0184507 -0.576681 0.102481 0.0161798 -0.580669 
0.102726 0.0142839 -0.583091 0.102546 0.0127593 -0.584016 0.102027 0.011584 -0.583618 
0.101267 0.0107205 -0.582164 0.10037 0.0101186 -0.579996 0.0994426 0.00972109 -0.577498 
0.0985875 0.00946925 -0.575057 0.0978948 0.0093091 -0.573028 0.0974357 0.00919706 -0.571693 
0.097256 0.00910465 -0.571234 
LINES 2 100
OFFSETS vtktypeint64
0 100 
CONNECTIVITY vtktypeint64
0 1 2 3 4 5 6 7 8 
9 10 11 12 13 14 15 16 17 
18 19 20 21 22 23 24 25 26 
27 28 29 30 31 32 33 34 35 
36 37 38 39 40 41 42 43 44 
45 46 47 48 49 50 51 52 53 
54 55 56 57 58 59 60 61 62 
63 64 65 66 67 68 69 70 71 
72 73 74 75 76 77 78 79 80 
81 82 83 84 85 86 87 88 89 
90 91 92 93 94 95 96 97 98 
99 
POINT_DATA 100
FIELD FieldData 3
_theta 1 100 double
0 0.031733259127 0.063466518254 0.095199777382 0.12693303651 0.15866629564 0.19039955476 0.22213281389 0.25386607302 
0.28559933214 0.31733259127 0.3490658504 0.38079910953 0.41253236865 0.44426562778 0.47599888691 0.50773214603 0.53946540516 
0.57119866429 0.60293192342 0.63466518254 0.66639844167 0.6981317008 0.72986495992 0.76159821905 0.79333147818 0.82506473731 
0.85679799643 0.88853125556 0.92026451469 0.95199777382 0.98373103294 1.0154642921 1.0471975512 1.0789308103 1.1106640695 
1.1423973286 1.1741305877 1.2058638468 1.237597106 1.2693303651 1.3010636242 1.3327968833 1.3645301425 1.3962634016 
1.4279966607 1.4597299198 1.491463179 1.5231964381 1.5549296972 1.5866629564 1.6183962155 1.6501294746 1.6818627337 
1.7135959929 1.745329252 1.7770625111 1.8087957702 1.8405290294 1.8722622885 1.9039955476 1.9357288068 1.9674620659 
1.999195325 2.0309285841 2.0626618433 2.0943951024 2.1261283615 2.1578616206 2.1895948798 2.2213281389 2.253061398 
2.2847946572 2.3165279163 2.3482611754 2.3799944345 2.4117276937 2.4434609528 2.4751942119 2.506927471 2.5386607302 
2.5703939893 2.6021272484 2.6338605076 2.6655937667 2.6973270258 2.7290602849 2.7607935441 2.7925268032 2.8242600623 
2.8559933214 2.8877265806 2.9194598397 2.9511930988 2.982926358 3.0146596171 3.0463928762 3.0781261353 3.1098593945 
3.1415926536 
_radius 1 100 double
5.6738983712e-16 0.013624259403 0.027276963707 0.040967735647 0.05468596778 0.068394283723 0.082026112061 0.095488350904 0.10866887054 
0.12144734109 0.13370717922 0.14534646412 0.15628627459 0.16647569403 0.17589341902 0.18454633252 0.19246557106 0.19970065071 
0.20631227908 0.21236464939 0.2179182173 0.22302402527 0.22772041099 0.23203242427 0.23597365639 0.2395496817 0.24276205714 
0.24561183059 0.24810172875 0.25023658241 0.25202202739 0.25346195569 0.25455543577 0.25529382282 0.25565862511 0.25562053488 
0.25513997824 0.25416956899 0.25265883662 0.25056138616 0.2478441754 0.24449795091 0.24054727144 0.23605817249 0.23114152021 
0.22595050565 0.22067153434 0.21550891788 0.2106651412 0.20631983612 0.20261158487 0.19962666881 0.197397084 0.1959067036 
0.19510129108 0.19489746903 0.19518801576 0.19584415536 0.1967179543 0.19764876497 0.19847648461 0.19906103936 0.19930338536 
0.19916143357 0.19865612748 0.19786666843 0.19691688327 0.19595590957 0.19513633907 0.1945926294 0.19442231825 0.19467216822 
0.19533061851 0.19632695652 0.19753678936 0.19879286073 0.19989990134 0.20065185989 0.20084955179 0.20031663502 0.19891199136 
0.19653705835 0.1931373511 0.18869825074 0.18323603012 0.1767859039 0.16938945387 0.1610839179 0.15189545257 0.14183761877 
0.13091515677 0.11913187673 0.10650051123 0.093051961607 0.078841678149 0.063951873028 0.048489567684 0.032581667217 0.016368869652 
3.1548700406e-16 
_area 1 100 double
0 0.00052197291212 0.0020847897241 0.0046770344769 0.0082732695965 0.012826620122 0.018262585355 0.024477104457 0.031340470605 
0.038706229252 0.046422235155 0.054340912514 0.062327298676 0.070265022896 0.078060468402 0.085644306446 0.092969374622 0.10000569949 
0.10673548268 0.11315027024 0.11925006517 0.12504310702 0.13054610529 0.13578556883 0.14079978361 0.14563860899 0.15035711779 
0.15500162966 0.15959213036 0.16410931443 0.16849432622 0.17266198114 0.17651067796 0.1799063275 0.18267670059 0.18464898014 
0.18567678124 0.18564464981 0.18447005047 0.18211115041 0.1785793742 0.17395118834 0.16837276953 0.16205420448 0.15525441812 
0.14826119018 0.14137101687 0.13486900605 0.12899718258 0.12389576206 0.11955277343 0.11584606607 0.11264732159 0.10987852232 
0.10750285424 0.1054841754 0.10375179059 0.10220773481 0.10076131263 0.099358279526 0.097992150536 0.096685879898 0.09545086591 
0.094239554613 0.09296312235 0.091546823561 0.089984078753 0.088364148152 0.08686699588 0.085743367153 0.085279756639 0.085666550204 
0.086810959049 0.088487649741 0.090463893331 0.092509672227 0.094402434938 0.095934434465 0.096922433171 0.097216280215 0.096702828243 
0.095305039771 0.092979017544 0.08971068857 0.085511842544 0.080416412945 0.07448015229 0.067786079946 0.060454260498 0.052650757203 
0.044589952727 0.036527087095 0.028741473205 0.021513134645 0.01509644062 0.0096951330302 0.0054448144436 0.0024100243928 0.00060016483139 
1.5844545678e-17 
