# vtk DataFile Version 5.1
vtk output
ASCII
DATASET POLYDATA
POINTS 100 float
0.0888536 0.0496453 0.686334 0.0891323 0.0499311 0.685884 0.0900026 0.0506169 0.684371 
0.0913667 0.0516278 0.681873 0.0930748 0.0528499 0.678514 0.0949418 0.0541447 0.674444 
0.0967685 0.0553678 0.66982 0.0983637 0.0563867 0.664788 0.0995648 0.0570986 0.659465 
0.100254 0.0574428 0.653922 0.100367 0.0574079 0.648179 0.0998994 0.0570326 0.6422 
0.0988979 0.0563991 0.635901 0.0974514 0.0556213 0.629161 0.0956744 0.0548283 0.621839 
0.0936873 0.0541456 0.61379 0.0915981 0.0536777 0.604892 0.0894848 0.0534923 0.595056 
0.0873838 0.05361 0.584244 0.0852837 0.0540007 0.572477 0.0831259 0.054586 0.55983 
0.0808121 0.0552491 0.546434 0.0782168 0.0558489 0.532457 0.0752041 0.056239 0.518096 
0.0716453 0.0562867 0.503549 0.0674357 0.0558911 0.489005 0.0625085 0.0549973 0.474621 
0.0568431 0.0536049 0.460514 0.0504684 0.0517706 0.446751 0.0434589 0.0496023 0.433346 
0.0359263 0.0472483 0.420264 0.0280063 0.0448809 0.407432 0.0198434 0.0426771 0.394745 
0.0115757 0.0407989 0.382083 0.00332138 0.0393759 0.369322 -0.00483062 0.038491 0.356346 
-0.0128254 0.0381734 0.343055 -0.0206411 0.0383966 0.329368 -0.0282832 0.0390846 0.315227 
-0.0357746 0.0401224 0.300591 -0.043143 0.0413725 0.285434 -0.0504081 0.0426924 0.269737 
-0.0575701 0.0439528 0.253483 -0.064601 0.0450536 0.236652 -0.0714407 0.0459352 0.219217 
-0.0779983 0.0465853 0.201145 -0.0841576 0.0470387 0.1824 -0.0897877 0.0473715 0.162949 
-0.094756 0.04769 0.142766 -0.0989419 0.0481164 0.121842 -0.10225 0.0487719 0.100191 
-0.104622 0.0497614 0.0778532 -0.106042 0.0511585 0.0548975 -0.106538 0.0529967 0.0314215 
-0.10618 0.0552633 0.00754592 -0.10507 0.0579 -0.0165919 -0.103332 0.0608084 -0.0408472 
-0.101099 0.0638593 -0.0650774 -0.0984968 0.0669053 -0.0891519 -0.095633 0.0697952 -0.11296 
-0.0925873 0.0723873 -0.136415 -0.0894058 0.0745615 -0.15946 -0.0861004 0.0762281 -0.182065 
-0.0826522 0.0773324 -0.204223 -0.0790189 0.0778564 -0.225946 -0.075145 0.0778153 -0.247255 
-0.0709729 0.0772515 -0.268177 -0.0664546 0.0762267 -0.288731 -0.0615599 0.0748127 -0.308932 
-0.0562841 0.0730828 -0.328777 -0.0506502 0.0711041 -0.348253 -0.0447085 0.0689326 -0.367333 
-0.0385326 0.0666101 -0.385983 -0.0322127 0.0641642 -0.404161 -0.0258473 0.0616102 -0.421825 
-0.0195348 0.0589552 -0.438938 -0.0133656 0.0562024 -0.455467 -0.00741629 0.0533561 -0.471386 
-0.0017456 0.0504257 -0.486675 0.00360636 0.0474287 -0.50132 0.00861689 0.0443924 -0.515304 
0.0132774 0.0413529 -0.528609 0.017589 0.0383536 -0.541213 0.0215579 0.0354425 -0.553082 
0.0251908 0.0326675 -0.564178 0.0284926 0.0300736 -0.574455 0.0314644 0.0276983 -0.583867 
0.0341045 0.0255696 -0.59237 0.0364096 0.023704 -0.599929 0.0383784 0.0221058 -0.606527 
0.0400143 0.0207681 -0.612167 0.0413284 0.0196742 -0.616875 0.0423417 0.0187998 -0.620704 
0.0430848 0.0181158 -0.623727 0.0435971 0.0175914 -0.626036 0.0439238 0.0171959 -0.627732 
0.0441114 0.0169018 -0.628918 0.0442032 0.0166862 -0.629685 0.0442342 0.0165323 -0.630107 
0.0442271 0.0164299 -0.630232 
LINES 2 100
OFFSETS vtktypeint64
0 100 
CONNECTIVITY vtktypeint64
0 1 2 3 4 5 6 7 8 
9 10 11 12 13 14 15 16 17 
18 19 20 21 22 23 24 25 26 
27 28 29 30 31 32 33 34 35 
36 37 38 39 40 41 42 43 44 
45 46 47 48 49 50 51 52 53 
54 55 56 57 58 59 60 61 62 
63 64 65 66 67 68 69 70 71 
72 73 74 75 76 77 78 79 80 
81 82 83 84 85 86 87 88 89 
90 91 92 93 94 95 96 97 98 
99 
POINT_DATA 100
FIELD FieldData 3
_theta 1 100 double
0 0.031733259127 0.063466518254 0.095199777382 0.12693303651 0.15866629564 0.19039955476 0.22213281389 0.25386607302 
0.28559933214 0.31733259127 0.3490658504 0.38079910953 0.41253236865 0.44426562778 0.47599888691 0.50773214603 0.53946540516 
0.57119866429 0.60293192342 0.63466518254 0.66639844167 0.6981317008 0.72986495992 0.76159821905 0.79333147818 0.82506473731 
0.85679799643 0.88853125556 0.92026451469 0.95199777382 0.98373103294 1.0154642921 1.0471975512 1.0789308103 1.1106640695 
1.1423973286 1.1741305877 1.2058638468 1.237597106 1.2693303651 1.3010636242 1.3327968833 1.3645301425 1.3962634016 
1.4279966607 1.4597299198 1.491463179 1.5231964381 1.5549296972 1.5866629564 1.6183962155 1.6501294746 1.6818627337 
1.7135959929 1.745329252 1.7770625111 1.8087957702 1.8405290294 1.8722622885 1.9039955476 1.9357288068 1.9674620659 
1.999195325 2.0309285841 2.0626618433 2.0943951024 2.1261283615 2.1578616206 2.1895948798 2.2213281389 2.253061398 
2.2847946572 2.3165279163 2.3482611754 2.3799944345 2.4117276937 2.4434609528 2.4751942119 2.506927471 2.5386607302 
2.5703939893 2.6021272484 2.6338605076 2.6655937667 2.6973270258 2.7290602849 2.7607935441 2.7925268032 2.8242600623 
2.8559933214 2.8877265806 2.9194598397 2.9511930988 2.982926358 3.0146596171 3.0463928762 3.0781261353 3.1098593945 
3.1415926536 
_radius 1 100 double
1.0038399749e-15 0.013122688373 0.026185917632 0.039124019501 0.051876167177 0.064387366878 0.076608524418 0.088496412574 0.10001391581 
0.11113009432 0.12181909809 0.13205719894 0.14181808583 0.1510676265 0.15976003779 0.16783749964 0.17523460126 0.1818877597 
0.18774822236 0.19279591149 0.19705066784 0.20057770298 0.20348523096 0.20591398384 0.20802024641 0.20995589579 0.2118502788 
0.21379871062 0.21586000735 0.21806125082 0.22040439479 0.22286891793 0.22540777224 0.22793840162 0.23033420373 0.23242284318 
0.2339958555 0.23482996944 0.23471648672 0.23349267234 0.23106895968 0.22744721324 0.22272732457 0.21710139523 0.21083648189 
0.20424835056 0.19766987722 0.19141850481 0.18576734453 0.18092394354 0.17701932567 0.174107717 0.17217492825 0.17115169058 
0.17092807506 0.17136617674 0.1723098274 0.17359205452 0.17504261968 0.17649780454 0.17781265133 0.17887375916 0.1796097702 
0.17999693942 0.18005825913 0.17985611842 0.17947998058 0.1790315671 0.17861024374 0.1783007433 0.17816432564 0.1782333886 
0.17850884495 0.17895955321 0.17952357292 0.18011140822 0.18061126949 0.18089591487 0.18083026645 0.18027892655 0.17911291809 
0.17721531284 0.17448572799 0.17084383516 0.16623199986 0.16061701214 0.15399068663 0.14636901757 0.13778965748 0.12830776787 
0.11799070522 0.10691241811 0.095148673087 0.082774155021 0.069862043985 0.056485931624 0.042723137223 0.028657946373 0.014383294794 
1.3480505334e-15 
_area 1 100 double
0 0.0004953508905 0.0019706243875 0.004393722926 0.0077118502716 0.011852364464 0.016724024344 0.022219319188 0.028218844234 
0.03459819043 0.041236588817 0.048025367415 0.054873822365 0.061710162356 0.06847561337 0.075111657915 0.081544670362 0.087677082931 
0.093394816055 0.098593594085 0.10321594448 0.10728463864 0.11091910664 0.11432359413 0.11773945439 0.12136812093 0.12529525975 
0.12946306806 0.1337166246 0.13788758322 0.14185770319 0.1455833097 0.14908752832 0.15242510494 0.15562027982 0.15859101924 
0.16110136131 0.16278534797 0.1632358482 0.16211025684 0.15921279529 0.15453628577 0.14826156737 0.1407226208 0.13235184146 
0.12362077808 0.11498654658 0.10684681253 0.099504131202 0.093147420289 0.087861471006 0.083660174892 0.0805243096 0.078425199129 
0.077311073763 0.077045224305 0.07737057754 0.077971871216 0.078557698549 0.078901218542 0.078853301325 0.07834348291 0.077378579699 
0.076062731278 0.07463874931 0.073219915053 0.071758387235 0.070236963424 0.068689578444 0.067190261924 0.06584341258 0.064779442903 
0.064143222615 0.064064681091 0.064611332804 0.065738138402 0.06727314032 0.068959300766 0.07051548392 0.071680369095 0.07223614568 
0.072019302362 0.070923872299 0.068899598276 0.065946661447 0.062109576363 0.057472995493 0.05215996777 0.046330091382 0.040173770668 
0.033900619389 0.027723486457 0.021842157511 0.016431085295 0.011633697808 0.0075631021613 0.0043066906502 0.0019311948462 0.00048543166996 
1.2555961824e-17 
