# vtk DataFile Version 5.1
vtk output
ASCII
DATASET POLYDATA
POINTS 100 float
0.129174 0.0470767 0.62734 0.129225 0.047169 0.627255 0.129467 0.0473152 0.62682 
0.129847 0.0475151 0.62604 0.130283 0.0477679 0.62492 0.130676 0.0480723 0.623459 
0.130918 0.0484266 0.621648 0.130909 0.0488281 0.619463 0.130565 0.0492727 0.616863 
0.129826 0.0497539 0.61379 0.128666 0.0502618 0.610172 0.127085 0.0507812 0.605928 
0.125113 0.0512909 0.600977 0.122797 0.0517626 0.595247 0.120193 0.0521603 0.588688 
0.117352 0.0524415 0.581277 0.114315 0.0525588 0.573023 0.111097 0.0524628 0.563975 
0.10769 0.0521057 0.554214 0.104054 0.0514464 0.54385 0.100129 0.0504548 0.533009 
0.0958362 0.0491163 0.521823 0.0910918 0.0474358 0.510415 0.0858185 0.0454394 0.498883 
0.0799572 0.0431755 0.487296 0.0734766 0.0407126 0.475682 0.0663803 0.0381364 0.464029 
0.0587086 0.0355439 0.452287 0.0505362 0.0330377 0.440378 0.0419653 0.0307183 0.428206 
0.033115 0.0286773 0.41567 0.0241085 0.0269914 0.402682 0.0150598 0.0257175 0.389173 
0.0060617 0.0248899 0.375107 -0.00282311 0.0245204 0.36048 -0.0115666 0.0245992 0.345319 
-0.0201753 0.0250984 0.329677 -0.0286843 0.0259773 0.313621 -0.0371475 0.0271869 0.29722 
-0.0456241 0.028676 0.280527 -0.0541638 0.030395 0.263572 -0.0627914 0.0322992 0.246352 
-0.0714951 0.0343507 0.228827 -0.0802176 0.036518 0.21092 -0.0888531 0.0387746 0.192531 
-0.0972496 0.0410964 0.173545 -0.105218 0.0434588 0.153849 -0.112544 0.0458342 0.133353 
-0.119007 0.0481904 0.112 -0.124397 0.0504899 0.089786 -0.128536 0.0526914 0.0667597 
-0.13129 0.054752 0.0430294 -0.132582 0.0566319 0.0187539 -0.132401 0.0582979 -0.00586853 
-0.130802 0.0597283 -0.0306177 -0.127895 0.060916 -0.0552711 -0.123843 0.0618702 -0.0796241 
-0.118839 0.0626161 -0.103507 -0.113093 0.0631919 -0.126801 -0.106815 0.0636437 -0.149441 
-0.100194 0.064019 -0.171421 -0.0933898 0.064359 -0.192781 -0.0865204 0.0646909 -0.213603 
-0.0796597 0.0650219 -0.233987 -0.0728379 0.0653351 -0.254035 -0.0660467 0.0655885 -0.273836 
-0.0592489 0.0657181 -0.293447 -0.0523896 0.0656433 -0.312886 -0.0454087 0.0652765 -0.332128 
-0.038253 0.0645342 -0.35111 -0.030886 0.0633487 -0.369736 -0.0232955 0.0616791 -0.387895 
-0.0154975 0.0595201 -0.405475 -0.00753717 0.0569073 -0.42238 0.000514392 0.0539176 -0.438542 
0.00856492 0.0506652 -0.453933 0.0165083 0.0472919 -0.46857 0.0242326 0.043955 -0.482506 
0.0316278 0.040811 -0.49583 0.0385933 0.038 -0.508647 0.0450438 0.0356303 -0.521067 
0.0509128 0.033766 -0.533183 0.0561557 0.0324202 -0.545061 0.0607492 0.0315527 -0.556724 
0.0646912 0.0310745 -0.56815 0.067998 0.030858 -0.579272 0.0707017 0.0307514 -0.589985 
0.0728471 0.030597 -0.600155 0.0744882 0.03025 -0.609641 0.0756858 0.0295961 -0.618305 
0.0765044 0.0285659 -0.626037 0.0770101 0.027144 -0.63276 0.0772685 0.0253718 -0.638441 
0.077343 0.0233438 -0.643095 0.0772931 0.021197 -0.646776 0.0771724 0.019096 -0.649571 
0.0770276 0.0172135 -0.651585 0.0768966 0.0157108 -0.652921 0.0768075 0.0147186 -0.653668 
0.0767772 0.0143223 -0.653884 
LINES 2 100
OFFSETS vtktypeint64
0 100 
CONNECTIVITY vtktypeint64
0 1 2 3 4 5 6 7 8 
9 10 11 12 13 14 15 16 17 
18 19 20 21 22 23 24 25 26 
27 28 29 30 31 32 33 34 35 
36 37 38 39 40 41 42 43 44 
45 46 47 48 49 50 51 52 53 
54 55 56 57 58 59 60 61 62 
63 64 65 66 67 68 69 70 71 
72 73 74 75 76 77 78 79 80 
81 82 83 84 85 86 87 88 89 
90 91 92 93 94 95 96 97 98 
99 
POINT_DATA 100
FIELD FieldData 3
_theta 1 100 double
0 0.031733259127 0.063466518254 0.095199777382 0.12693303651 0.15866629564 0.19039955476 0.22213281389 0.25386607302 
0.28559933214 0.31733259127 0.3490658504 0.38079910953 0.41253236865 0.44426562778 0.47599888691 0.50773214603 0.53946540516 
0.57119866429 0.60293192342 0.63466518254 0.66639844167 0.6981317008 0.72986495992 0.76159821905 0.79333147818 0.82506473731 
0.85679799643 0.88853125556 0.92026451469 0.95199777382 0.98373103294 1.0154642921 1.0471975512 1.0789308103 1.1106640695 
1.1423973286 1.1741305877 1.2058638468 1.237597106 1.2693303651 1.3010636242 1.3327968833 1.3645301425 1.3962634016 
1.4279966607 1.4597299198 1.491463179 1.5231964381 1.5549296972 1.5866629564 1.6183962155 1.6501294746 1.6818627337 
1.7135959929 1.745329252 1.7770625111 1.8087957702 1.8405290294 1.8722622885 1.9039955476 1.9357288068 1.9674620659 
1.999195325 2.0309285841 2.0626618433 2.0943951024 2.1261283615 2.1578616206 2.1895948798 2.2213281389 2.253061398 
2.2847946572 2.3165279163 2.3482611754 2.3799944345 2.4117276937 2.4434609528 2.4751942119 2.506927471 2.5386607302 
2.5703939893 2.6021272484 2.6338605076 2.6655937667 2.6973270258 2.7290602849 2.7607935441 2.7925268032 2.8242600623 
2.8559933214 2.8877265806 2.9194598397 2.9511930988 2.982926358 3.0146596171 3.0463928762 3.0781261353 3.1098593945 
3.1415926536 
_radius 1 100 double
1.1296766482e-15 0.01347357759 0.02694792972 0.04041364099 0.053852691367 0.06723424507 0.080511016245 0.09361711755 0.10646826348 
0.11896483278 0.13099774272 0.14245653396 0.15323863968 0.16325857708 0.17245576552 0.18079983696 0.18829264407 0.19496665734 
0.20088001276 0.20610902197 0.21073935127 0.21485719109 0.21854154173 0.22185834928 0.22485683735 0.22756811841 0.23000598676 
0.23216957291 0.23404726758 0.23562113179 0.23687101686 0.23777780756 0.23832546629 0.23850180749 0.23829814477 0.23770814009 
0.23672635279 0.23534711843 0.23356443583 0.23137344161 0.22877376054 0.22577455405 0.22240054242 0.21869780181 0.21473790977 
0.21061915643 0.20646404568 0.2024129932 0.19861472316 0.19521426705 0.19233980882 0.19009001093 0.18852368938 0.18765342483 
0.1874438751 0.18781465159 0.18864717022 0.18979496185 0.19109705722 0.19239371661 0.19354295515 0.19443557355 0.19500627168 
0.19523899134 0.19516564495 0.19485848889 0.19441730461 0.19395312246 0.19357051809 0.1933506374 0.19333707408 0.19352645539 
0.19386503425 0.19425176108 0.19454734231 0.19458790339 0.19420128939 0.19322385397 0.19151573698 0.1889729667 0.18553513637 
0.18118786691 0.1759598013 0.16991449726 0.16313825745 0.15572556613 0.14776425937 0.13932271796 0.13044115422 0.12112845269 
0.11136509813 0.1011116535 0.090321269029 0.078954032816 0.066990744676 0.054443910752 0.041364314269 0.027842268032 0.014003454615 
6.6634778152e-16 
_area 1 100 double
0 0.00048446405619 0.0019396049973 0.0043692224895 0.007775050026 0.012150566482 0.017473548539 0.023698310801 0.030748764589 
0.038513642471 0.046845317705 0.055563434068 0.064464008228 0.073333791979 0.081968486048 0.090192024026 0.0978731417 0.1049356021 
0.11136011246 0.11717854591 0.1224632316 0.1273145018 0.1318479873 0.13618047982 0.1404121192 0.14460544408 0.14876720244 
0.15284147827 0.15671881591 0.16025844662 0.16331556865 0.16576541663 0.16751874063 0.16852682191 0.16877713907 0.16828298302 
0.1670714619 0.1651740646 0.16262219788 0.15944771568 0.15568699366 0.1513873226 0.14661495483 0.14146316137 0.13605681617 
0.13055002185 0.12511603215 0.11993176953 0.11515965889 0.11092913249 0.10732309831 0.10437500123 0.10207363307 0.10036850535 
0.099175453976 0.098386257262 0.097881872677 0.097548652106 0.097315800592 0.097274015765 0.097391320633 0.097349366501 0.096967797059 
0.096218273316 0.095158025459 0.093899655169 0.092579454804 0.091333809129 0.090286866562 0.089547396778 0.089210850873 0.08935853437 
0.090026937033 0.091133554587 0.092473895882 0.093800212914 0.094859707831 0.095405721186 0.095216448932 0.094118116306 0.092003081854 
0.088839782767 0.084674124096 0.079621443242 0.073848952651 0.067551502848 0.060926239851 0.054152084579 0.047377992677 0.04072103163 
0.03427270529 0.028110293742 0.022309360413 0.016953856875 0.012141208896 0.007981158447 0.004588690297 0.0020727542596 0.00052338038236 
1.7360734757e-17 
