# vtk DataFile Version 5.1
vtk output
ASCII
DATASET POLYDATA
POINTS 100 float
0.144252 0.0744222 0.680389 0.144084 0.0744495 0.68036 0.143675 0.0743766 0.680109 
0.143037 0.0742228 0.679582 0.142188 0.0740185 0.678694 0.141146 0.0738002 0.677342 
0.139931 0.0736059 0.675406 0.138555 0.0734687 0.672768 0.137024 0.0734119 0.669319 
0.13533 0.0734443 0.664967 0.133456 0.0735572 0.659651 0.131369 0.0737235 0.653339 
0.129026 0.0738991 0.646037 0.126376 0.0740256 0.637785 0.123362 0.0740354 0.628654 
0.11993 0.0738574 0.618738 0.116031 0.073424 0.608149 0.111632 0.0726773 0.597002 
0.106715 0.0715746 0.585413 0.101286 0.0700926 0.573482 0.0953762 0.0682301 0.561294 
0.0890386 0.0660077 0.548908 0.08235 0.0634666 0.536359 0.0754037 0.0606651 0.523654 
0.0683034 0.0576735 0.510784 0.0611545 0.0545693 0.49772 0.0540557 0.0514309 0.484423 
0.0470894 0.0483331 0.470853 0.0403146 0.0453427 0.456973 0.0337607 0.0425158 0.442752 
0.0274244 0.0398971 0.428172 0.0212705 0.0375196 0.413226 0.0152344 0.035407 0.397918 
0.00922979 0.0335758 0.382256 0.00315756 0.0320386 0.366254 -0.00308264 0.0308067 0.349917 
-0.00958032 0.0298926 0.333245 -0.0164023 0.0293112 0.316224 -0.0235827 0.0290797 0.298822 
-0.0311151 0.0292165 0.280996 -0.0389491 0.0297388 0.262688 -0.0469902 0.0306597 0.243834 
-0.055104 0.0319843 0.224372 -0.0631248 0.033707 0.204247 -0.0708664 0.0358085 0.183422 
-0.0781362 0.038255 0.161886 -0.0847489 0.0409978 0.139659 -0.0905403 0.0439755 0.116794 
-0.0953794 0.0471167 0.0933789 -0.099177 0.050345 0.0695284 -0.101891 0.053584 0.0453807 
-0.103525 0.0567621 0.0210857 -0.104131 0.059818 -0.00320635 -0.103793 0.0627039 -0.027356 
-0.102627 0.0653877 -0.0512459 -0.100761 0.0678535 -0.0747887 -0.0983272 0.0700994 -0.0979324 
-0.095451 0.072134 -0.120662 -0.092239 0.0739719 -0.142995 -0.0887742 0.0756274 -0.164979 
-0.0851118 0.0771089 -0.186676 -0.0812802 0.0784135 -0.208157 -0.0772835 0.0795234 -0.229487 
-0.0731081 0.0804042 -0.250716 -0.0687299 0.0810048 -0.271867 -0.0641231 0.0812607 -0.292938 
-0.0592676 0.0810993 -0.313891 -0.0541562 0.080446 -0.334664 -0.0487991 0.0792328 -0.355171 
-0.0432261 0.0774062 -0.375314 -0.0374861 0.0749345 -0.394994 -0.0316445 0.0718137 -0.41412 
-0.0257785 0.0680712 -0.432617 -0.0199712 0.0637668 -0.450439 -0.0143055 0.0589899 -0.467562 
-0.00885775 0.0538553 -0.483993 -0.00369318 0.0484953 -0.499756 0.0011377 0.0430506 -0.51489 
0.00560072 0.0376603 -0.529437 0.0096779 0.0324523 -0.543428 0.0133658 0.0275343 -0.556876 
0.0166724 0.022987 -0.569767 0.0196141 0.0188606 -0.582056 0.0222117 0.015173 -0.593668 
0.0244874 0.0119125 -0.604499 0.0264625 0.00904206 -0.614435 0.0281562 0.00650654 -0.623354 
0.0295854 0.00424089 -0.631149 0.0307654 0.00217896 -0.637738 0.0317111 0.000261723 -0.643083 
0.0324394 -0.00155595 -0.647192 0.0329697 -0.00330058 -0.650132 0.0333258 -0.00497795 -0.652022 
0.0335355 -0.0065737 -0.653029 0.0336302 -0.00805642 -0.653355 0.0336431 -0.00938274 -0.653218 
0.033607 -0.0105038 -0.652835 0.0335516 -0.0113723 -0.652403 0.0335009 -0.0119487 -0.652076 
0.0334705 -0.0122071 -0.651951 
LINES 2 100
OFFSETS vtktypeint64
0 100 
CONNECTIVITY vtktypeint64
0 1 2 3 4 5 6 7 8 
9 10 11 12 13 14 15 16 17 
18 19 20 21 22 23 24 25 26 
27 28 29 30 31 32 33 34 35 
36 37 38 39 40 41 42 43 44 
45 46 47 48 49 50 51 52 53 
54 55 56 57 58 59 60 61 62 
63 64 65 66 67 68 69 70 71 
72 73 74 75 76 77 78 79 80 
81 82 83 84 85 86 87 88 89 
90 91 92 93 94 95 96 97 98 
99 
POINT_DATA 100
FIELD FieldData 3
_theta 1 100 double
0 0.031733259127 0.063466518254 0.095199777382 0.12693303651 0.15866629564 0.19039955476 0.22213281389 0.25386607302 
0.28559933214 0.31733259127 0.3490658504 0.38079910953 0.41253236865 0.44426562778 0.47599888691 0.50773214603 0.53946540516 
0.57119866429 0.60293192342 0.63466518254 0.66639844167 0.6981317008 0.72986495992 0.76159821905 0.79333147818 0.82506473731 
0.85679799643 0.88853125556 0.92026451469 0.95199777382 0.98373103294 1.0154642921 1.0471975512 1.0789308103 1.1106640695 
1.1423973286 1.1741305877 1.2058638468 1.237597106 1.2693303651 1.3010636242 1.3327968833 1.3645301425 1.3962634016 
1.4279966607 1.4597299198 1.491463179 1.5231964381 1.5549296972 1.5866629564 1.6183962155 1.6501294746 1.6818627337 
1.7135959929 1.745329252 1.7770625111 1.8087957702 1.8405290294 1.8722622885 1.9039955476 1.9357288068 1.9674620659 
1.999195325 2.0309285841 2.0626618433 2.0943951024 2.1261283615 2.1578616206 2.1895948798 2.2213281389 2.253061398 
2.2847946572 2.3165279163 2.3482611754 2.3799944345 2.4117276937 2.4434609528 2.4751942119 2.506927471 2.5386607302 
2.5703939893 2.6021272484 2.6338605076 2.6655937667 2.6973270258 2.7290602849 2.7607935441 2.7925268032 2.8242600623 
2.8559933214 2.8877265806 2.9194598397 2.9511930988 2.982926358 3.0146596171 3.0463928762 3.0781261353 3.1098593945 
3.1415926536 
_radius 1 100 double
1.0190492756e-15 0.015327739889 0.030439808595 0.045134836914 0.059245202754 0.072648500703 0.085273310141 0.097098797408 0.10814858954 
0.11848012348 0.12817118092 0.13730551839 0.14595942745 0.15419078359 0.16203173403 0.16948568433 0.17652871626 0.183115055 
0.18918574854 0.19467935747 0.19954321047 0.20374369974 0.20727421161 0.21015961279 0.21245668386 0.21425039963 0.21564639549 
0.21676029039 0.21770482021 0.2185760786 0.21944059588 0.22032534572 0.22121274083 0.22204202579 0.22271726913 0.22312079782 
0.22312989899 0.22263423582 0.22155166234 0.2198407106 0.21750866155 0.21461460878 0.21126726021 0.20761750428 0.2038461511 
0.20014783861 0.19671279576 0.19370873968 0.19126539894 0.18946389367 0.18833246798 0.18784889179 0.18794841864 0.18853500288 
0.1894931227 0.19069820884 0.19202493081 0.1933537258 0.19457643024 0.19560162468 0.19635966395 0.19680676783 0.19692726492 
0.1967331871 0.19626086369 0.19556483399 0.19471003852 0.19376358256 0.19278728849 0.19183190115 0.19093337584 0.1901112486 
0.18936870091 0.18869363684 0.18805994671 0.18742820042 0.18674536969 0.18594378672 0.18494016134 0.18363576508 0.18191868437 
0.17966845912 0.17676273816 0.17308507722 0.16853281876 0.16302409778 0.1565032794 0.14894441867 0.14035256735 0.13076292775 
0.12023799029 0.10886291601 0.096739553611 0.083979617005 0.070697683694 0.057004779516 0.043003349002 0.028784322543 0.014426742532 
1.0785482054e-15 
_area 1 100 double
0 0.0006115761296 0.0024113283736 0.0053001893753 0.0091310542259 0.013731086229 0.018925410188 0.024557794562 0.030505075395 
0.03668339733 0.04304582831 0.049572559147 0.056256371509 0.063086899687 0.070037236273 0.077055646134 0.084063668329 0.090960121775 
0.097629287761 0.10395142424 0.10981447284 0.11512636468 0.11982704398 0.12389845023 0.12736998367 0.1303169117 0.13284987662 
0.13509548633 0.13717124467 0.1391615252 0.14110185658 0.14297506665 0.14471763534 0.14623172478 0.14739823654 0.14808733156 
0.14816578575 0.14750638533 0.14600595935 0.14360903042 0.14032705144 0.13624781628 0.13153451007 0.12641427462 0.12115671785 
0.11604439174 0.11133810588 0.10724034101 0.10386384875 0.10122090029 0.099245663915 0.097837406845 0.096898493443 0.096354373177 
0.096144022778 0.096170869844 0.096291837934 0.096366066804 0.096270232348 0.095915346827 0.095248907693 0.094253211133 0.092938862566 
0.091335929856 0.089484669837 0.087427932084 0.085208511942 0.08287260623 0.080475672126 0.078091050117 0.075809516017 0.073733223143 
0.071973896116 0.070664345379 0.069991878948 0.070273638984 0.071617293728 0.073362749609 0.075207960132 0.076889077232 0.078153313897 
0.078762061926 0.078504722902 0.077216434544 0.074794725362 0.071211372946 0.066517286978 0.060839729798 0.054372355436 0.047359390472 
0.040075874816 0.032806253175 0.025823731607 0.019372674404 0.013655941387 0.0088284715852 0.0049975676405 0.0022291937968 0.00055829085189 
2.1691566248e-17 
