# vtk DataFile Version 5.1
vtk output
ASCII
DATASET POLYDATA
POINTS 100 float
0.0874809 0.0549882 0.650915 0.0875254 0.055114 0.650798 0.0877219 0.0553559 0.650296 
0.0880466 0.055699 0.649412 0.0884617 0.0561203 0.648152 0.0889179 0.0565908 0.646518 
0.0893581 0.0570794 0.644502 0.0897223 0.0575549 0.642088 0.0899514 0.0579899 0.639241 
0.0899923 0.0583613 0.635914 0.0898013 0.0586519 0.632045 0.0893473 0.0588488 0.627561 
0.0886131 0.0589428 0.622387 0.087596 0.0589252 0.616449 0.0863057 0.0587863 0.609686 
0.0847621 0.0585129 0.602057 0.0829907 0.0580873 0.593546 0.0810179 0.0574879 0.584167 
0.0788656 0.0566906 0.573967 0.0765468 0.0556715 0.563021 0.0740616 0.0544113 0.551425 
0.0713951 0.0528996 0.539297 0.068517 0.051139 0.526757 0.0653839 0.0491485 0.513923 
0.0619426 0.0469655 0.500901 0.0581362 0.0446455 0.487776 0.0539108 0.04226 0.474604 
0.0492219 0.0398919 0.461415 0.0440413 0.0376303 0.448207 0.0383622 0.0355625 0.434956 
0.0322014 0.033768 0.421615 0.0256004 0.0323115 0.408125 0.0186224 0.0312384 0.394418 
0.0113476 0.0305719 0.38043 0.0038662 0.0303134 0.366098 -0.00372917 0.0304443 0.35137 
-0.0113519 0.0309311 0.3362 -0.0189278 0.0317312 0.320553 -0.0264001 0.0328 0.304396 
-0.0337312 0.0340969 0.287701 -0.0409009 0.0355906 0.270436 -0.0479021 0.0372621 0.25257 
-0.0547328 0.0391055 0.234063 -0.0613875 0.0411255 0.214879 -0.067847 0.0433334 0.194979 
-0.0740699 0.0457407 0.174333 -0.0799866 0.0483528 0.152925 -0.0854961 0.051162 0.130755 
-0.0904686 0.0541431 0.107853 -0.0947515 0.0572499 0.0842729 -0.0981806 0.0604164 0.060101 
-0.100594 0.0635591 0.0354493 -0.101851 0.0665834 0.0104522 -0.101841 0.069392 -0.0147429 
-0.100508 0.0718936 -0.0399847 -0.0978509 0.0740126 -0.0651297 -0.0939354 0.0756962 -0.0900522 
-0.0888881 0.0769197 -0.114653 -0.0828894 0.0776888 -0.138866 -0.0761591 0.0780371 -0.16266 
-0.0689373 0.0780209 -0.186035 -0.0614622 0.0777109 -0.209022 -0.0539488 0.0771822 -0.231667 
-0.0465687 0.0765031 -0.254027 -0.0394357 0.0757258 -0.276153 -0.0325971 0.0748788 -0.298081 
-0.0260333 0.073963 -0.319827 -0.0196656 0.072952 -0.341373 -0.0133702 0.0717962 -0.362672 
-0.00699895 0.0704308 -0.383649 -0.000402798 0.0687863 -0.404204 0.00654434 0.0668007 -0.424226 
0.013924 0.0644309 -0.443599 0.021757 0.0616619 -0.462216 0.0299941 0.0585132 -0.47999 
0.0385155 0.0550406 -0.496861 0.0471391 0.0513326 -0.512801 0.0556363 0.0475033 -0.527815 
0.0637539 0.0436811 -0.541938 0.0712399 0.0399947 -0.55523 0.0778693 0.0365592 -0.567767 
0.0834673 0.0334634 -0.57963 0.0879278 0.0307597 -0.590897 0.0912233 0.0284584 -0.601631 
0.0934068 0.0265279 -0.611875 0.0946049 0.0248996 -0.621652 0.0950023 0.0234774 -0.630957 
0.0948209 0.0221513 -0.639765 0.0942951 0.0208129 -0.648036 0.0936471 0.0193702 -0.655719 
0.0930644 0.0177612 -0.662761 0.092683 0.0159627 -0.669113 0.0925773 0.0139954 -0.674736 
0.092759 0.011922 -0.679604 0.0931832 0.00984051 -0.683703 0.093762 0.00787287 -0.687034 
0.0943831 0.00614995 -0.689605 0.0949302 0.00479558 -0.691429 0.0953035 0.00391114 -0.69252 
0.0954358 0.00356291 -0.692887 
LINES 2 100
OFFSETS vtktypeint64
0 100 
CONNECTIVITY vtktypeint64
0 1 2 3 4 5 6 7 8 
9 10 11 12 13 14 15 16 17 
18 19 20 21 22 23 24 25 26 
27 28 29 30 31 32 33 34 35 
36 37 38 39 40 41 42 43 44 
45 46 47 48 49 50 51 52 53 
54 55 56 57 58 59 60 61 62 
63 64 65 66 67 68 69 70 71 
72 73 74 75 76 77 78 79 80 
81 82 83 84 85 86 87 88 89 
90 91 92 93 94 95 96 97 98 
99 
POINT_DATA 100
FIELD FieldData 3
_theta 1 100 double
0 0.031733259127 0.063466518254 0.095199777382 0.12693303651 0.15866629564 0.19039955476 0.22213281389 0.25386607302 
0.28559933214 0.31733259127 0.3490658504 0.38079910953 0.41253236865 0.44426562778 0.47599888691 0.50773214603 0.53946540516 
0.57119866429 0.60293192342 0.63466518254 0.66639844167 0.6981317008 0.72986495992 0.76159821905 0.79333147818 0.82506473731 
0.85679799643 0.88853125556 0.92026451469 0.95199777382 0.98373103294 1.0154642921 1.0471975512 1.0789308103 1.1106640695 
1.1423973286 1.1741305877 1.2058638468 1.237597106 1.2693303651 1.3010636242 1.3327968833 1.3645301425 1.3962634016 
1.4279966607 1.4597299198 1.491463179 1.5231964381 1.5549296972 1.5866629564 1.6183962155 1.6501294746 1.6818627337 
1.7135959929 1.745329252 1.7770625111 1.8087957702 1.8405290294 1.8722622885 1.9039955476 1.9357288068 1.9674620659 
1.999195325 2.0309285841 2.0626618433 2.0943951024 2.1261283615 2.1578616206 2.1895948798 2.2213281389 2.253061398 
2.2847946572 2.3165279163 2.3482611754 2.3799944345 2.4117276937 2.4434609528 2.4751942119 2.506927471 2.5386607302 
2.5703939893 2.6021272484 2.6338605076 2.6655937667 2.6973270258 2.7290602849 2.7607935441 2.7925268032 2.8242600623 
2.8559933214 2.8877265806 2.9194598397 2.9511930988 2.982926358 3.0146596171 3.0463928762 3.0781261353 3.1098593945 
3.1415926536 
_radius 1 100 double
6.0460028403e-16 0.013862033484 0.027743807025 0.041649683974 0.055567705877 0.069463774247 0.083278402 0.096926793287 0.11030263025 
0.1232853524 0.13575005815 0.1475786373 0.15867051781 0.16895153529 0.17837983913 0.1869482852 0.19468327331 0.20164037382 
0.20789734627 0.21354534051 0.21867924033 0.22338825583 0.22774791556 0.23181444894 0.23562214066 0.23918366395 0.2424928586 
0.24552911229 0.24826249205 0.25065892433 0.25268485451 0.2543108827 0.25551398362 0.25627815777 0.25659365825 0.25645515203 
0.25585925283 0.25480187827 0.25327594859 0.25127009596 0.24876920931 0.24575762549 0.24222542803 0.23817758026 0.23364463097 
0.22869276844 0.22343039747 0.21800846388 0.21261263716 0.20744720409 0.20271285513 0.19858275465 0.19518234263 0.19257743086 
0.19077250172 0.18971790352 0.18932233187 0.18946641195 0.19001427588 0.19082207685 0.19174441566 0.19264075247 0.19338360058 
0.19386887764 0.1940269331 0.1938313816 0.19330267256 0.19250443981 0.19153259643 0.19049911659 0.18951380573 0.18866763708 
0.18802030634 0.18759293121 0.18736517922 0.18727540544 0.18722284133 0.18707191749 0.1866595233 0.18580584433 0.18432845905 
0.18205815234 0.1788540178 0.17461526179 0.16928774142 0.16286441603 0.15538017245 0.14690253749 0.13752039099 0.12733286118 
0.11644016863 0.10493743682 0.092911639491 0.080441160539 0.067597071594 0.054445204068 0.041048286554 0.027467681646 0.013764492093 
8.2866097645e-16 
_area 1 100 double
0 0.00050634505685 0.0020297813833 0.0045815881799 0.0081742399649 0.012812404157 0.018481749746 0.025137575072 0.032695868927 
0.041029249153 0.04996908109 0.059313361575 0.068838598686 0.078313775234 0.087515456075 0.096244052461 0.10434112279 0.11170635736 
0.1183113555 0.12420627324 0.12951546505 0.13441978755 0.1391264629 0.14383166479 0.14868420963 0.1537585517 0.15904185991 
0.16443601691 0.16977278119 0.17483912275 0.17940924554 0.18327885472 0.18629545298 0.18837750417 0.18951706594 0.18976499996 
0.1892033405 0.18791355365 0.18595053397 0.18332973313 0.1800299576 0.17600964779 0.1712317707 0.1656916034 0.15944142766 
0.15260611257 0.14538433784 0.13803250362 0.13083253332 0.12405067452 0.11790027987 0.11252274291 0.10799294756 0.10434151479 
0.10157305423 0.099655694911 0.098490863363 0.097917030091 0.097746137008 0.097791461105 0.097883018792 0.097878373998 0.097669227677 
0.097180508897 0.096361152643 0.095177971231 0.093629344769 0.091769146379 0.089713905259 0.087625820708 0.085681164871 0.084032742132 
0.082785446385 0.08198340403 0.081579300253 0.081480522995 0.081607471747 0.081871202107 0.08213454245 0.082194166264 0.081793151911 
0.080661346777 0.078569993981 0.075381995415 0.071081624127 0.065775563274 0.0596675837 0.053017525433 0.046098340954 0.039162733729 
0.032425321775 0.026059661438 0.020204346383 0.014970755559 0.010447266389 0.0066992436484 0.003768015863 0.0016729003544 0.00041777391205 
2.9554764688e-17 
