# vtk DataFile Version 5.1
vtk output
ASCII
DATASET POLYDATA
POINTS 100 float
0.115197 0.0468849 0.670639 0.115438 0.0471199 0.670509 0.11623 0.047639 0.669963 
0.117489 0.0484216 0.668977 0.119086 0.049435 0.667512 0.120854 0.0506357 0.665515 
0.122611 0.0519703 0.66293 0.124173 0.0533774 0.659694 0.12537 0.0547893 0.65575 
0.126063 0.0561345 0.651044 0.126151 0.0573401 0.645539 0.125578 0.0583353 0.639209 
0.124329 0.0590537 0.63205 0.122428 0.0594376 0.624076 0.11993 0.0594406 0.615322 
0.116903 0.0590307 0.605842 0.113424 0.0581934 0.595702 0.10956 0.0569332 0.584981 
0.105365 0.0552748 0.573763 0.10087 0.0532632 0.562133 0.0960814 0.0509619 0.550167 
0.090987 0.0484509 0.537935 0.0855574 0.0458219 0.52549 0.0797559 0.0431744 0.51287 
0.0735467 0.0406089 0.500097 0.066904 0.0382211 0.487174 0.0598184 0.0360962 0.474094 
0.0523011 0.0343029 0.460836 0.0443846 0.0328895 0.447373 0.0361207 0.031881 0.433675 
0.0275746 0.0312787 0.419713 0.0188179 0.031061 0.405459 0.00992058 0.0311869 0.390887 
0.000943865 0.0316013 0.375977 -0.00806551 0.0322404 0.360711 -0.0170777 0.0330395 0.345067 
-0.0260789 0.033939 0.329024 -0.035067 0.0348908 0.312554 -0.0440442 0.0358628 0.295622 
-0.0530074 0.0368414 0.278185 -0.0619383 0.0378316 0.260194 -0.0707939 0.0388554 0.241595 
-0.0794992 0.0399472 0.222337 -0.0879441 0.0411485 0.202373 -0.0959839 0.0425009 0.181671 
-0.103445 0.0440393 0.160216 -0.110134 0.0457859 0.13802 -0.115853 0.0477456 0.115121 
-0.120414 0.049903 0.0915869 -0.123655 0.0522226 0.0675161 -0.125455 0.0546509 0.0430296 
-0.125748 0.0571209 0.0182671 -0.124527 0.0595588 -0.00662299 -0.121851 0.0618908 -0.0314926 
-0.117837 0.0640506 -0.0562045 -0.112653 0.065986 -0.0806407 -0.106506 0.0676637 -0.10471 
-0.0996239 0.0690718 -0.128353 -0.0922391 0.0702195 -0.151542 -0.0845692 0.0711346 -0.174278 
-0.0768026 0.0718577 -0.196588 -0.0690868 0.0724355 -0.218515 -0.0615207 0.0729127 -0.240109 
-0.0541531 0.0733241 -0.261416 -0.0469853 0.0736876 -0.282468 -0.0399792 0.0739997 -0.30328 
-0.0330677 0.0742327 -0.32384 -0.0261685 0.0743361 -0.344109 -0.0191972 0.0742399 -0.364023 
-0.0120805 0.0738611 -0.383499 -0.00476671 0.0731122 -0.402442 0.00276627 0.0719104 -0.420754 
0.0105073 0.0701867 -0.438341 0.0184113 0.067894 -0.455128 0.0264028 0.0650135 -0.471059 
0.0343816 0.0615573 -0.486108 0.0422308 0.0575691 -0.500275 0.0498259 0.0531208 -0.513587 
0.0570435 0.0483073 -0.526091 0.06377 0.0432378 -0.537851 0.0699083 0.0380281 -0.548935 
0.0753826 0.0327907 -0.559409 0.0801416 0.0276271 -0.56933 0.0841594 0.0226215 -0.578739 
0.0874351 0.0178372 -0.587656 0.0899904 0.013315 -0.596083 0.091867 0.00907481 -0.604004 
0.0931232 0.00511981 -0.611387 0.0938299 0.00144135 -0.618197 0.0940672 -0.00197466 -0.624395 
0.0939212 -0.0051417 -0.629949 0.0934805 -0.00806754 -0.634839 0.0928337 -0.0107507 -0.639058 
0.0920669 -0.0131787 -0.642614 0.0912607 -0.0153292 -0.645532 0.0904884 -0.0171717 -0.647843 
0.0898136 -0.0186721 -0.649588 0.0892886 -0.019797 -0.650804 0.0889522 -0.0205185 -0.651523 
0.0888286 -0.0208183 -0.651765 
LINES 2 100
OFFSETS vtktypeint64
0 100 
CONNECTIVITY vtktypeint64
0 1 2 3 4 5 6 7 8 
9 10 11 12 13 14 15 16 17 
18 19 20 21 22 23 24 25 26 
27 28 29 30 31 32 33 34 35 
36 37 38 39 40 41 42 43 44 
45 46 47 48 49 50 51 52 53 
54 55 56 57 58 59 60 61 62 
63 64 65 66 67 68 69 70 71 
72 73 74 75 76 77 78 79 80 
81 82 83 84 85 86 87 88 89 
90 91 92 93 94 95 96 97 98 
99 
POINT_DATA 100
FIELD FieldData 3
_theta 1 100 double
0 0.031733259127 0.063466518254 0.095199777382 0.12693303651 0.15866629564 0.19039955476 0.22213281389 0.25386607302 
0.28559933214 0.31733259127 0.3490658504 0.38079910953 0.41253236865 0.44426562778 0.47599888691 0.50773214603 0.53946540516 
0.57119866429 0.60293192342 0.63466518254 0.66639844167 0.6981317008 0.72986495992 0.76159821905 0.79333147818 0.82506473731 
0.85679799643 0.88853125556 0.92026451469 0.95199777382 0.98373103294 1.0154642921 1.0471975512 1.0789308103 1.1106640695 
1.1423973286 1.1741305877 1.2058638468 1.237597106 1.2693303651 1.3010636242 1.3327968833 1.3645301425 1.3962634016 
1.4279966607 1.4597299198 1.491463179 1.5231964381 1.5549296972 1.5866629564 1.6183962155 1.6501294746 1.6818627337 
1.7135959929 1.745329252 1.7770625111 1.8087957702 1.8405290294 1.8722622885 1.9039955476 1.9357288068 1.9674620659 
1.999195325 2.0309285841 2.0626618433 2.0943951024 2.1261283615 2.1578616206 2.1895948798 2.2213281389 2.253061398 
2.2847946572 2.3165279163 2.3482611754 2.3799944345 2.4117276937 2.4434609528 2.4751942119 2.506927471 2.5386607302 
2.5703939893 2.6021272484 2.6338605076 2.6655937667 2.6973270258 2.7290602849 2.7607935441 2.7925268032 2.8242600623 
2.8559933214 2.8877265806 2.9194598397 2.9511930988 2.982926358 3.0146596171 3.0463928762 3.0781261353 3.1098593945 
3.1415926536 
_radius 1 100 double
1.2295947115e-15 0.015605900587 0.031022107087 0.046069277049 0.060599222913 0.074504165125 0.087719579387 0.10022080593 0.11201506716 
0.12313149845 0.13361179408 0.1435031342 0.15285372075 0.16171017546 0.17011562445 0.17810750741 0.18571476162 0.19295474386 
0.19983079717 0.20633154288 0.21243270211 0.21810161142 0.2233038218 0.22801051897 0.232205164 0.23588780125 0.23907590545 
0.2418013674 0.24410410866 0.24602364437 0.24759041929 0.24881874154 0.24970264585 0.2502152516 0.25031145341 0.24993332581 
0.24901749512 0.24750381978 0.24534483907 0.2425154498 0.23902209712 0.23491047254 0.23027042494 0.22523666437 0.21998401953 
0.21471661029 0.20965136052 0.20499771383 0.20093688382 0.19760481724 0.19508252163 0.19339524456 0.19251895468 0.19239025196 
0.19291558797 0.19397762587 0.19543946553 0.19714946905 0.19894932716 0.20068604977 0.2022261891 0.20346922474 0.20435709587 
0.2048779159 0.20506327936 0.20497981481 0.20471655848 0.20437026647 0.2040309153 0.203769352 0.20362841778 0.20361806666 
0.203714277 0.20386109573 0.20397499368 0.20395074346 0.20366813324 0.20299895107 0.20181382608 0.19998868825 0.19741074729 
0.19398391859 0.18963352243 0.18430992023 0.17799064352 0.17068061483 0.16241027753 0.15323179363 0.14321382676 0.13243568322 
0.12098165079 0.10893623897 0.096380754454 0.083391349216 0.070038442119 0.056387258425 0.042499125038 0.028433076718 0.014247295878 
7.5016841094e-16 
_area 1 100 double
0 0.00062661024677 0.0024750558474 0.0054562929243 0.0094374170718 0.014260216421 0.019759762177 0.025779242771 0.032179195697 
0.038841225174 0.045667419822 0.052576949858 0.059501328499 0.066379998086 0.073157918369 0.07978611277 0.086224725729 0.092446900528 
0.098441640649 0.10421487509 0.10978916232 0.11520244024 0.12050457341 0.12574862029 0.13097456507 0.1361885996 0.14134782784 
0.14636015071 0.15109948502 0.15542758088 0.15921341537 0.16234562321 0.16473722703 0.16632407986 0.16705975617 0.16691019802 
0.16585077196 0.16386692059 0.16095851272 0.15714765755 0.15248925027 0.14708221477 0.14107780614 0.13468049957 0.12813778162 
0.12171792021 0.11567892024 0.11023534469 0.10552991517 0.1016145286 0.098449180359 0.095937227553 0.093993055783 0.092591730542 
0.091745753866 0.091421339781 0.091505141962 0.091852601066 0.092337729161 0.092854899289 0.093275608229 0.093430081808 0.093161913726 
0.09238147411 0.091078451454 0.089313165973 0.087201288727 0.084897746497 0.082583426871 0.080457035036 0.078734758169 0.077726989265 
0.077716478022 0.07847123185 0.07962004988 0.080975054461 0.082412457921 0.083810831461 0.08501802821 0.085838702978 0.086047638911 
0.085420302545 0.083769788381 0.080980627003 0.077030402357 0.071993820017 0.066029733421 0.059356344351 0.052222079142 0.044879522474 
0.037567387101 0.030501503979 0.023872116223 0.017843402706 0.012552511212 0.0081079260665 0.0045888253301 0.0020471704629 0.00051280837789 
3.1455362999e-17 
