# vtk DataFile Version 5.1
vtk output
ASCII
DATASET POLYDATA
POINTS 100 float
0.129133 0.0354476 0.646938 0.129045 0.0356134 0.646954 0.128846 0.0359917 0.646811 
0.128531 0.0365773 0.646439 0.128091 0.0373601 0.645732 0.127517 0.0383239 0.64456 
0.126801 0.0394446 0.642778 0.125934 0.0406886 0.640247 0.124913 0.0420124 0.636844 
0.123731 0.0433621 0.632474 0.122386 0.0446748 0.627081 0.120868 0.0458814 0.62065 
0.119164 0.0469098 0.613207 0.117251 0.0476897 0.604815 0.115096 0.0481576 0.595567 
0.112651 0.0482619 0.585574 0.10986 0.0479675 0.574952 0.106656 0.0472598 0.563818 
0.102972 0.0461465 0.552272 0.0987422 0.0446591 0.540396 0.0939121 0.0428508 0.52825 
0.0884455 0.0407944 0.515872 0.0823307 0.0385774 0.503278 0.0755844 0.0362965 0.490472 
0.0682529 0.0340516 0.477447 0.0604101 0.031939 0.464196 0.0521523 0.030046 0.450713 
0.0435891 0.0284454 0.436999 0.034834 0.0271926 0.423059 0.0259925 0.0263234 0.408905 
0.0171523 0.0258536 0.394546 0.00837475 0.0257806 0.379988 -0.000309659 0.0260863 0.365223 
-0.00890207 0.0267406 0.350227 -0.0174309 0.0277061 0.334952 -0.0259436 0.0289422 0.319329 
-0.034494 0.03041 0.303266 -0.0431292 0.0320748 0.286655 -0.051874 0.0339095 0.26938 
-0.0607191 0.0358953 0.251327 -0.0696109 0.0380221 0.232395 -0.0784475 0.0402872 0.212509 
-0.0870798 0.0426939 0.191627 -0.0953193 0.0452485 0.169751 -0.102951 0.0479575 0.14693 
-0.109749 0.0508246 0.123258 -0.115501 0.0538481 0.0988694 -0.120023 0.0570185 0.0739317 
-0.123179 0.0603168 0.0486333 -0.124894 0.0637141 0.0231695 -0.125165 0.0671711 -0.00227106 
-0.124056 0.0706392 -0.0275196 -0.121694 0.0740618 -0.0524379 -0.118256 0.0773762 -0.0769251 
-0.113951 0.0805162 -0.100921 -0.108995 0.0834145 -0.124407 -0.103595 0.0860055 -0.147395 
-0.0979242 0.088228 -0.169927 -0.0921083 0.0900272 -0.19206 -0.0862169 0.0913569 -0.213852 
-0.0802605 0.0921811 -0.235356 -0.074196 0.0924746 -0.256607 -0.0679381 0.0922236 -0.277615 
-0.0613769 0.0914256 -0.298362 -0.0543971 0.0900884 -0.318802 -0.0468989 0.0882288 -0.33886 
-0.038816 0.0858713 -0.358443 -0.0301303 0.083046 -0.377448 -0.0208798 0.0797865 -0.395766 
-0.0111604 0.0761287 -0.413296 -0.00112006 0.0721087 -0.429956 0.00905212 0.067762 -0.445681 
0.0191429 0.0631229 -0.46044 0.0289336 0.0582245 -0.474226 0.0382201 0.0530998 -0.487066 
0.0468305 0.0477821 -0.499011 0.0546393 0.042307 -0.510132 0.0615765 0.0367139 -0.52052 
0.0676309 0.0310473 -0.530268 0.0728469 0.0253577 -0.539474 0.0773163 0.0197024 -0.548231 
0.081166 0.0141443 -0.556617 0.0845429 0.0087513 -0.564699 0.0875985 0.00359328 -0.572524 
0.0904736 -0.00126071 -0.580121 0.0932868 -0.00574629 -0.587498 0.0961251 -0.00980776 -0.59465 
0.09904 -0.0134019 -0.601552 0.102047 -0.0165014 -0.608169 0.105126 -0.0190971 -0.614455 
0.108234 -0.0211992 -0.620361 0.111303 -0.022837 -0.625831 0.114257 -0.0240568 -0.630809 
0.117013 -0.0249185 -0.635242 0.119494 -0.0254913 -0.63908 0.121628 -0.0258477 -0.642279 
0.123354 -0.0260578 -0.644801 0.124625 -0.0261831 -0.646617 0.125406 -0.0262718 -0.647704 
0.125677 -0.0263542 -0.648051 
LINES 2 100
OFFSETS vtktypeint64
0 100 
CONNECTIVITY vtktypeint64
0 1 2 3 4 5 6 7 8 
9 10 11 12 13 14 15 16 17 
18 19 20 21 22 23 24 25 26 
27 28 29 30 31 32 33 34 35 
36 37 38 39 40 41 42 43 44 
45 46 47 48 49 50 51 52 53 
54 55 56 57 58 59 60 61 62 
63 64 65 66 67 68 69 70 71 
72 73 74 75 76 77 78 79 80 
81 82 83 84 85 86 87 88 89 
90 91 92 93 94 95 96 97 98 
99 
POINT_DATA 100
FIELD FieldData 3
_theta 1 100 double
0 0.031733259127 0.063466518254 0.095199777382 0.12693303651 0.15866629564 0.19039955476 0.22213281389 0.25386607302 
0.28559933214 0.31733259127 0.3490658504 0.38079910953 0.41253236865 0.44426562778 0.47599888691 0.50773214603 0.53946540516 
0.57119866429 0.60293192342 0.63466518254 0.66639844167 0.6981317008 0.72986495992 0.76159821905 0.79333147818 0.82506473731 
0.85679799643 0.88853125556 0.92026451469 0.95199777382 0.98373103294 1.0154642921 1.0471975512 1.0789308103 1.1106640695 
1.1423973286 1.1741305877 1.2058638468 1.237597106 1.2693303651 1.3010636242 1.3327968833 1.3645301425 1.3962634016 
1.4279966607 1.4597299198 1.491463179 1.5231964381 1.5549296972 1.5866629564 1.6183962155 1.6501294746 1.6818627337 
1.7135959929 1.745329252 1.7770625111 1.8087957702 1.8405290294 1.8722622885 1.9039955476 1.9357288068 1.9674620659 
1.999195325 2.0309285841 2.0626618433 2.0943951024 2.1261283615 2.1578616206 2.1895948798 2.2213281389 2.253061398 
2.2847946572 2.3165279163 2.3482611754 2.3799944345 2.4117276937 2.4434609528 2.4751942119 2.506927471 2.5386607302 
2.5703939893 2.6021272484 2.6338605076 2.6655937667 2.6973270258 2.7290602849 2.7607935441 2.7925268032 2.8242600623 
2.8559933214 2.8877265806 2.9194598397 2.9511930988 2.982926358 3.0146596171 3.0463928762 3.0781261353 3.1098593945 
3.1415926536 
_radius 1 100 double
1.5635931759e-15 0.015091584212 0.030019410167 0.044628639488 0.058781528092 0.072363040669 0.085283706583 0.097479737424 0.10891094532 
0.11955736426 0.12941558323 0.1384956128 0.14681868726 0.15441591543 0.16132734701 0.16760097599 0.17329145917 0.17845869591 
0.18316659153 0.18748209676 0.19147407838 0.19521114091 0.19875760715 0.20216754101 0.20547761752 0.20870033434 0.21181921999 
0.2147873265 0.21752960343 0.21994899753 0.22193550701 0.22337704458 0.22417084095 0.22423420881 0.22351370959 0.22199203496 
0.21969216196 0.21667853694 0.21305520403 0.20896094593 0.20456165938 0.20004033038 0.19558511374 0.19137621766 0.18757264291 
0.18430033432 0.18164373562 0.17964260032 0.17829480211 0.17756404436 0.17738973744 0.17769586361 0.17839666022 0.17939891507 
0.18060265781 0.18190310584 0.18319626847 0.18438862725 0.18540868975 0.18621653401 0.1868078238 0.1872108488 0.18747764009 
0.18767194147 0.18785725355 0.18808748851 0.18840152065 0.18882157203 0.18935425843 0.18999250858 0.19071664845 0.19149366748 
0.19227475049 0.19299216846 0.19355725802 0.19386127622 0.19378027099 0.19318383891 0.1919462126 0.18995723671 0.1871309011 
0.18341005786 0.17876718499 0.17320201595 0.16673726628 0.15941360136 0.15128462403 0.14241226437 0.13286269163 0.12270279253 
0.11199732116 0.1008069218 0.089187253244 0.077189343818 0.064861085773 0.052249505534 0.039403221879 0.026374418962 0.013219765841 
1.0092687339e-15 
_area 1 100 double
0 0.00057267884672 0.0022648800439 0.0050018945452 0.0086682179101 0.013119882196 0.018199078809 0.023748145162 0.02961965929 
0.035680516733 0.041810521727 0.04789877933 0.053841964678 0.059546803813 0.064936367369 0.069957979133 0.074590368952 0.078848583027 
0.082786168546 0.086494738574 0.090100666041 0.093755945117 0.09761575144 0.10179830022 0.10634248159 0.1111920035 0.11621390409 
0.12123337966 0.12606376701 0.13052113651 0.13442583326 0.13760155488 0.13988050912 0.14111553595 0.14119701758 0.14007267585 
0.13776657951 0.13439104188 0.13014501876 0.12529594215 0.12014740389 0.11500082021 0.1101217321 0.10571734958 0.10192440508 
0.098802861604 0.096333206234 0.09442020988 0.092912530574 0.09164434947 0.09048235687 0.08934886274 0.088212463336 0.08706295853 
0.085895171178 0.084733350735 0.083692788126 0.082665552274 0.081673128426 0.080754174873 0.079966565922 0.079299113591 0.078717682876 
0.078194139253 0.077705949576 0.07723923952 0.076801154497 0.076434444273 0.076231058829 0.076357726101 0.07690197467 0.077897331772 
0.079342510467 0.081149190453 0.083137759567 0.085072388287 0.086700570285 0.087783393174 0.088119278724 0.087560495216 0.086021005667 
0.083476422201 0.079958329369 0.075545574787 0.070354610692 0.064530003969 0.058235333741 0.05164428565 0.044931945005 0.038266836102 
0.031804646721 0.025684390119 0.020027017977 0.014935696726 0.010496646375 0.0067797978242 0.0038392489547 0.0017140294247 0.00042961138873 
2.1277362575e-17 
