# vtk DataFile Version 5.1
vtk output
ASCII
DATASET POLYDATA
POINTS 100 float
0.0499062 0.0968295 0.758373 0.0499584 0.0968751 0.75819 0.0501926 0.0968411 0.757382 
0.0506041 0.0967254 0.755929 0.0511856 0.0965248 0.753805 0.0519272 0.0962357 0.750971 
0.0528172 0.0958547 0.74738 0.0538422 0.095379 0.742983 0.0549868 0.0948062 0.737724 
0.0562327 0.0941345 0.731552 0.0575577 0.0933614 0.724422 0.0589335 0.0924827 0.716302 
0.0603244 0.0914916 0.707176 0.0616853 0.0903765 0.697052 0.0629608 0.089121 0.685965 
0.064085 0.0877033 0.673975 0.0649832 0.0860965 0.66117 0.0655741 0.0842703 0.647661 
0.0657738 0.0821939 0.633576 0.0655012 0.0798388 0.619053 0.0646835 0.0771829 0.60423 
0.0632625 0.0742145 0.589234 0.0611992 0.0709361 0.574174 0.0584781 0.067367 0.55913 
0.0551094 0.063545 0.544149 0.0511281 0.0595267 0.529244 0.0465919 0.0553854 0.514389 
0.0415756 0.0512085 0.499529 0.0361643 0.0470927 0.484583 0.0304454 0.0431384 0.469454 
0.0245001 0.039444 0.454039 0.0183954 0.0361003 0.43824 0.0121786 0.0331853 0.421971 
0.0058737 0.0307607 0.405163 -0.000519192 0.0288694 0.387775 -0.00702074 0.0275354 0.369787 
-0.0136665 0.0267643 0.351202 -0.0204983 0.0265463 0.33204 -0.0275542 0.0268587 0.312333 
-0.034858 0.0276702 0.292117 -0.0424089 0.0289438 0.271426 -0.0501743 0.0306401 0.250286 
-0.0580844 0.0327188 0.228714 -0.0660314 0.0351399 0.206714 -0.0738725 0.0378631 0.184282 
-0.0814365 0.040847 0.161408 -0.0885348 0.0440472 0.138084 -0.0949733 0.0474147 0.11431 
-0.100567 0.050895 0.090098 -0.105154 0.0544274 0.06548 -0.108606 0.0579458 0.0405085 
-0.11084 0.0613807 0.0152573 -0.111821 0.0646621 -0.0101811 -0.111566 0.0677233 -0.0357012 
-0.110138 0.0705052 -0.0611908 -0.107642 0.0729596 -0.0865399 -0.104213 0.0750526 -0.111648 
-0.100003 0.0767659 -0.136431 -0.0951709 0.0780974 -0.160827 -0.0898651 0.0790587 -0.184798 
-0.0842175 0.0796722 -0.208327 -0.0783332 0.0799664 -0.231418 -0.0722863 0.0799702 -0.254091 
-0.0661187 0.0797082 -0.276371 -0.0598432 0.0791953 -0.298283 -0.0534482 0.0784342 -0.319846 
-0.0469061 0.0774137 -0.341065 -0.0401818 0.0761098 -0.361933 -0.0332415 0.0744889 -0.382426 
-0.0260613 0.0725125 -0.402507 -0.0186337 0.0701435 -0.422131 -0.0109714 0.0673528 -0.44125 
-0.00310957 0.0641259 -0.45982 0.00489509 0.0604673 -0.477804 0.0129674 0.0564041 -0.495178 
0.0210182 0.051986 -0.511932 0.0289508 0.0472836 -0.528069 0.0366665 0.0423835 -0.5436 
0.0440714 0.0373815 -0.558541 0.0510815 0.0323753 -0.572903 0.0576267 0.0274557 -0.586687 
0.0636538 0.0226994 -0.599878 0.0691276 0.0181636 -0.612441 0.0740307 0.0138819 -0.62432 
0.0783628 0.00986447 -0.635441 0.0821377 0.00609972 -0.645719 0.0853816 0.00255975 -0.655064 
0.0881297 -0.000793003 -0.663394 0.0904235 -0.00399768 -0.670644 0.0923087 -0.00708704 -0.676782 
0.0938325 -0.0100804 -0.681808 0.0950423 -0.0129788 -0.685765 0.0959837 -0.0157621 -0.688736 
0.0967 -0.0183899 -0.690843 0.0972307 -0.0208048 -0.692233 0.0976112 -0.0229383 -0.693067 
0.0978715 -0.024718 -0.693507 0.0980362 -0.0260762 -0.693699 0.0981235 -0.0269575 -0.693759 
0.0981447 -0.0273255 -0.693762 
LINES 2 100
OFFSETS vtktypeint64
0 100 
CONNECTIVITY vtktypeint64
0 1 2 3 4 5 6 7 8 
9 10 11 12 13 14 15 16 17 
18 19 20 21 22 23 24 25 26 
27 28 29 30 31 32 33 34 35 
36 37 38 39 40 41 42 43 44 
45 46 47 48 49 50 51 52 53 
54 55 56 57 58 59 60 61 62 
63 64 65 66 67 68 69 70 71 
72 73 74 75 76 77 78 79 80 
81 82 83 84 85 86 87 88 89 
90 91 92 93 94 95 96 97 98 
99 
POINT_DATA 100
FIELD FieldData 3
_theta 1 100 double
0 0.031733259127 0.063466518254 0.095199777382 0.12693303651 0.15866629564 0.19039955476 0.22213281389 0.25386607302 
0.28559933214 0.31733259127 0.3490658504 0.38079910953 0.41253236865 0.44426562778 0.47599888691 0.50773214603 0.53946540516 
0.57119866429 0.60293192342 0.63466518254 0.66639844167 0.6981317008 0.72986495992 0.76159821905 0.79333147818 0.82506473731 
0.85679799643 0.88853125556 0.92026451469 0.95199777382 0.98373103294 1.0154642921 1.0471975512 1.0789308103 1.1106640695 
1.1423973286 1.1741305877 1.2058638468 1.237597106 1.2693303651 1.3010636242 1.3327968833 1.3645301425 1.3962634016 
1.4279966607 1.4597299198 1.491463179 1.5231964381 1.5549296972 1.5866629564 1.6183962155 1.6501294746 1.6818627337 
1.7135959929 1.745329252 1.7770625111 1.8087957702 1.8405290294 1.8722622885 1.9039955476 1.9357288068 1.9674620659 
1.999195325 2.0309285841 2.0626618433 2.0943951024 2.1261283615 2.1578616206 2.1895948798 2.2213281389 2.253061398 
2.2847946572 2.3165279163 2.3482611754 2.3799944345 2.4117276937 2.4434609528 2.4751942119 2.506927471 2.5386607302 
2.5703939893 2.6021272484 2.6338605076 2.6655937667 2.6973270258 2.7290602849 2.7607935441 2.7925268032 2.8242600623 
2.8559933214 2.8877265806 2.9194598397 2.9511930988 2.982926358 3.0146596171 3.0463928762 3.0781261353 3.1098593945 
3.1415926536 
_radius 1 100 double
2.2982303785e-16 0.014844818031 0.0295811153 0.044094547955 0.058278692004 0.072038176559 0.085290759607 0.097968448337 0.11001796465 
0.12140089752 0.13209373563 0.14208770212 0.15138806616 0.16001254378 0.16798859093 0.17534976713 0.18213173397 0.18836866821 
0.19409082179 0.19932367782 0.20408874561 0.20840563663 0.21229475526 0.2157797629 0.21888894511 0.22165475715 0.22411118069 
0.22628909562 0.2282105478 0.22988334678 0.23129758627 0.23242529644 0.23322361243 0.23364090325 0.23362462262 0.23312943075 
0.23212436461 0.23059830145 0.22856342775 0.22605673591 0.22313967578 0.21989604752 0.21642815175 0.21285124127 0.20928651575 
0.2058532361 0.20266087888 0.19980244309 0.19734993921 0.19535268059 0.19383831167 0.19281574413 0.1922786193 0.19220779519 
0.19257176327 0.19332486841 0.19440461399 0.19573052416 0.19720693622 0.19873033045 0.20019949149 0.20152557273 0.20263957062 
0.20349610337 0.2040737236 0.20437270967 0.20441134262 0.20422136572 0.20384297916 0.20331953736 0.20269211795 0.20199425087 
0.20124723926 0.20045657528 0.1996098648 0.19867639177 0.1976080502 0.19634104261 0.19479770608 0.19288817176 0.19051215098 
0.18756164649 0.18392546934 0.17949596394 0.1741774955 0.16789545088 0.16060410782 0.15229184463 0.1429826687 0.1327337422 
0.12162931278 0.10977209867 0.097273628978 0.084245201545 0.070790917531 0.05700368911 0.042964326554 0.028743051047 0.014402334566 
2.8979111824e-16 
_area 1 100 double
0 0.00061510715022 0.002440305858 0.0054167524734 0.0094511732504 0.014422150883 0.02018738105 0.026590959946 0.033470186587 
0.040661944759 0.048009149674 0.055367715486 0.062613986262 0.069651834154 0.076418001508 0.082883960995 0.089052752309 0.09495015634 
0.10061122313 0.10606499332 0.11132124687 0.11636273154 0.12114500766 0.12560480956 0.12967686614 0.13331672398 0.13652202092 
0.13934009815 0.14185214377 0.14413644257 0.1462293234 0.14810636018 0.14969119214 0.15088036285 0.15156721925 0.15165476687 
0.15105842909 0.14970898416 0.147566287 0.14464234532 0.14102021035 0.13685598315 0.13235963467 0.12775807657 0.12325279569 
0.11899231685 0.11507187673 0.11154960662 0.10845766799 0.1057981927 0.10353484878 0.10160456919 0.099955958229 0.098585032704 
0.097536990489 0.096870544725 0.096605411395 0.096685095711 0.096978505748 0.097315858391 0.097533646688 0.09750740716 0.097166095043 
0.09649182102 0.095511798616 0.094288531851 0.092907179378 0.091451765439 0.089990535294 0.08851166899 0.08702597009 0.08559852728 
0.084324071076 0.083315809278 0.082704067164 0.08266406101 0.083334654129 0.084287025828 0.08524592439 0.085996717028 0.086320704461 
0.086004295913 0.084854463934 0.082716685985 0.079493234145 0.075158671216 0.06976885692 0.063460530531 0.056440476771 0.048965653883 
0.041317714691 0.033776618579 0.026598261165 0.020000066512 0.014156276639 0.009201657713 0.0052396048621 0.0023496162026 0.0005906334295 
4.6851083071e-17 
