# vtk DataFile Version 5.1
vtk output
ASCII
DATASET POLYDATA
POINTS 100 float
0.0523724 0.0587698 0.688995 0.0524495 0.0589163 0.68855 0.0527108 0.0591959 0.687007 
0.0531252 0.0595878 0.684399 0.0536454 0.0600599 0.680778 0.0542118 0.0605722 0.676216 
0.054759 0.0610799 0.670796 0.0552215 0.0615382 0.664609 0.0555405 0.0619059 0.65775 
0.0556683 0.0621491 0.650311 0.0555721 0.0622447 0.642377 0.0552356 0.0621821 0.634025 
0.0546587 0.0619638 0.625319 0.0538547 0.0616049 0.61631 0.0528466 0.0611311 0.607035 
0.0516617 0.0605754 0.597521 0.0503262 0.0599739 0.587783 0.0488598 0.0593615 0.57783 
0.0472713 0.058767 0.567665 0.045556 0.058209 0.557289 0.043695 0.0576929 0.546701 
0.0416561 0.0572091 0.535901 0.0393976 0.0567329 0.524889 0.0368729 0.0562264 0.513668 
0.0340364 0.0556418 0.50224 0.0308497 0.0549264 0.490608 0.0272872 0.0540288 0.478773 
0.0233401 0.052905 0.466734 0.0190192 0.0515248 0.454487 0.014354 0.0498768 0.442026 
0.00939099 0.0479724 0.429341 0.00418834 0.0458474 0.41642 -0.00119051 0.0435611 0.403251 
-0.0066844 0.0411935 0.38982 -0.012242 0.0388402 0.376114 -0.0178284 0.0366056 0.362124 
-0.0234299 0.0345946 0.34784 -0.0290557 0.0329049 0.333257 -0.0347367 0.0316189 0.31837 
-0.0405212 0.0307981 0.303175 -0.0464668 0.0304779 0.287666 -0.0526306 0.0306667 0.271835 
-0.0590576 0.0313458 0.255669 -0.0657696 0.0324731 0.239149 -0.0727539 0.0339886 0.22225 
-0.0799564 0.0358206 0.204943 -0.0872768 0.0378935 0.187192 -0.094569 0.0401356 0.168962 
-0.101646 0.0424847 0.15022 -0.108288 0.0448933 0.130939 -0.114258 0.0473312 0.111105 
-0.119318 0.0497858 0.0907179 -0.123242 0.0522598 0.0697989 -0.125838 0.0547675 0.0483907 
-0.126962 0.0573292 0.0265593 -0.126526 0.0599655 0.0043933 -0.124509 0.0626911 -0.0179991 
-0.120958 0.0655096 -0.0404946 -0.11598 0.0684104 -0.0629608 -0.109737 0.071366 -0.0852634 
-0.102431 0.0743331 -0.107274 -0.0942859 0.0772539 -0.128877 -0.0855316 0.0800602 -0.149977 
-0.0763872 0.0826779 -0.170502 -0.0670451 0.0850325 -0.190409 -0.0576606 0.0870536 -0.209683 
-0.0483446 0.0886794 -0.228334 -0.0391628 0.0898598 -0.246395 -0.0301387 0.090558 -0.263917 
-0.0212614 0.0907511 -0.280959 -0.0124964 0.0904287 -0.297584 -0.00379814 0.0895917 -0.313848 
0.00487701 0.0882502 -0.329797 0.0135596 0.0864215 -0.345459 0.0222581 0.0841289 -0.360844 
0.030954 0.0814011 -0.375942 0.0396006 0.078273 -0.39072 0.0481257 0.0747868 -0.405135 
0.0564384 0.0709942 -0.419128 0.0644377 0.0669579 -0.432639 0.0720231 0.0627535 -0.445605 
0.0791043 0.0584694 -0.45797 0.0856106 0.0542061 -0.469689 0.0914974 0.0500728 -0.480731 
0.0967491 0.0461828 -0.491076 0.10138 0.0426467 -0.500721 0.105428 0.0395652 -0.509674 
0.108955 0.0370205 -0.517951 0.112029 0.0350691 -0.525572 0.114726 0.0337351 -0.532556 
0.117111 0.033007 -0.53892 0.119241 0.0328359 -0.544673 0.121152 0.0331383 -0.549813 
0.122861 0.0338013 -0.554332 0.124368 0.0346914 -0.558212 0.125656 0.0356654 -0.561429 
0.126698 0.0365826 -0.563957 0.127464 0.0373175 -0.56577 0.127928 0.0377707 -0.566849 
0.12807 0.0378782 -0.56718 
LINES 2 100
OFFSETS vtktypeint64
0 100 
CONNECTIVITY vtktypeint64
0 1 2 3 4 5 6 7 8 
9 10 11 12 13 14 15 16 17 
18 19 20 21 22 23 24 25 26 
27 28 29 30 31 32 33 34 35 
36 37 38 39 40 41 42 43 44 
45 46 47 48 49 50 51 52 53 
54 55 56 57 58 59 60 61 62 
63 64 65 66 67 68 69 70 71 
72 73 74 75 76 77 78 79 80 
81 82 83 84 85 86 87 88 89 
90 91 92 93 94 95 96 97 98 
99 
POINT_DATA 100
FIELD FieldData 3
_theta 1 100 double
0 0.031733259127 0.063466518254 0.095199777382 0.12693303651 0.15866629564 0.19039955476 0.22213281389 0.25386607302 
0.28559933214 0.31733259127 0.3490658504 0.38079910953 0.41253236865 0.44426562778 0.47599888691 0.50773214603 0.53946540516 
0.57119866429 0.60293192342 0.63466518254 0.66639844167 0.6981317008 0.72986495992 0.76159821905 0.79333147818 0.82506473731 
0.85679799643 0.88853125556 0.92026451469 0.95199777382 0.98373103294 1.0154642921 1.0471975512 1.0789308103 1.1106640695 
1.1423973286 1.1741305877 1.2058638468 1.237597106 1.2693303651 1.3010636242 1.3327968833 1.3645301425 1.3962634016 
1.4279966607 1.4597299198 1.491463179 1.5231964381 1.5549296972 1.5866629564 1.6183962155 1.6501294746 1.6818627337 
1.7135959929 1.745329252 1.7770625111 1.8087957702 1.8405290294 1.8722622885 1.9039955476 1.9357288068 1.9674620659 
1.999195325 2.0309285841 2.0626618433 2.0943951024 2.1261283615 2.1578616206 2.1895948798 2.2213281389 2.253061398 
2.2847946572 2.3165279163 2.3482611754 2.3799944345 2.4117276937 2.4434609528 2.4751942119 2.506927471 2.5386607302 
2.5703939893 2.6021272484 2.6338605076 2.6655937667 2.6973270258 2.7290602849 2.7607935441 2.7925268032 2.8242600623 
2.8559933214 2.8877265806 2.9194598397 2.9511930988 2.982926358 3.0146596171 3.0463928762 3.0781261353 3.1098593945 
3.1415926536 
_radius 1 100 double
1.1208622801e-15 0.012776298005 0.025467029425 0.037981507196 0.050237423967 0.062165480178 0.073713572756 0.08484990245 0.095564313569 
0.10586736024 0.11578697664 0.12536311751 0.13464116831 0.14366513867 0.15247158111 0.1610849038 0.16951442606 0.17775325522 
0.18577884722 0.19355494805 0.201034536 0.20816343147 0.2148843676 0.22114140711 0.22688454565 0.23207414575 0.23668459781 
0.24070646887 0.2441465281 0.247025475 0.24937380855 0.25122677853 0.25261948873 0.25358294242 0.25414134819 0.25431060634 
0.25409769791 0.25350069166 0.25250922394 0.25110554073 0.24926643125 0.246966493 0.24418302531 0.24090242672 0.23712738952 
0.23288366652 0.22822496562 0.22323475018 0.2180243748 0.21272783773 0.20749404397 0.20247745461 0.19782753494 0.1936773826 
0.19013286975 0.18726467416 0.18510510856 0.18364951906 0.18285998251 0.18266882502 0.18298105418 0.1836767276 0.1846152157 
0.18564281561 0.18660372984 0.18735298965 0.18776920957 0.18776521662 0.18729520875 0.18635766443 0.18499353871 0.18327954396 
0.18131685645 0.17921644976 0.1770830873 0.17500036256 0.17301884118 0.17114849063 0.16935562134 0.16756392715 0.16565902938 
0.16349606892 0.16091013022 0.15772931588 0.15378985488 0.14895180859 0.14311321419 0.13622034496 0.12827229831 0.11931914098 
0.10945402026 0.098800707049 0.087498775721 0.075688927635 0.063500775342 0.051044738731 0.038408688524 0.025658874151 0.012843863184 
8.3593662412e-16 
_area 1 100 double
0 0.0004958024632 0.0019657754793 0.004358452408 0.0075912346248 0.011556231618 0.016129668463 0.021184465624 0.026604203618 
0.032295611047 0.038196611863 0.044278072571 0.0505392589 0.056998641106 0.063682131436 0.070610107112 0.077784122159 0.08517562344 
0.092720948074 0.10032566695 0.10787685516 0.11525862477 0.12236653007 0.12911832519 0.13545994746 0.14136622632 0.14683635049 
0.15188524415 0.15653348603 0.16079862416 0.1646884861 0.16819458996 0.17128525283 0.17390299837 0.17597199976 0.17741445539 
0.17816736369 0.17819146568 0.17747027993 0.17600269607 0.17379464153 0.17085460447 0.16719563098 0.16284364197 0.15784926766 
0.15229884452 0.14632041073 0.14008211815 0.13378244281 0.12763293873 0.12183387242 0.11654144784 0.11183113049 0.10768200856 
0.10401179102 0.10075254405 0.097908395499 0.095499761434 0.093482439524 0.091787358406 0.090339801548 0.089051639845 0.087831430763 
0.086604234049 0.085328853156 0.084024728961 0.082872317875 0.081819553115 0.080481040083 0.078698262289 0.076449836608 0.07380479271 
0.070902818293 0.067934299105 0.065116427003 0.062666077 0.060769134272 0.059573422162 0.059130568613 0.059124784564 0.059290639273 
0.059426875698 0.05948775549 0.059238572949 0.058189650264 0.056163812396 0.053105869135 0.049065729428 0.0441870749 0.038687442044 
0.032830754962 0.026897027331 0.021154374366 0.015837183021 0.011132457012 0.0071748193294 0.0040495471665 0.0018019872353 0.00045059238189 
2.6234406358e-17 
