# vtk DataFile Version 5.1
vtk output
ASCII
DATASET POLYDATA
POINTS 100 float
0.0587817 0.0554443 0.628841 0.0588769 0.0554241 0.628833 0.0591919 0.0552223 0.62864 
0.0597044 0.0548585 0.628219 0.0603783 0.0543643 0.627499 0.0611662 0.0537808 0.626392 
0.0620119 0.0531561 0.6248 0.0628534 0.0525407 0.622625 0.0636261 0.0519841 0.619777 
0.0642668 0.0515304 0.616182 0.0647162 0.0512135 0.611791 0.0649227 0.0510542 0.606582 
0.0648439 0.0510566 0.600566 0.0644484 0.0512074 0.593779 0.0637166 0.0514748 0.586285 
0.0626403 0.0518108 0.578167 0.0612215 0.052154 0.56952 0.059471 0.0524346 0.56044 
0.0574051 0.0525801 0.551019 0.055044 0.0525221 0.541334 0.0524082 0.0522029 0.531441 
0.0495164 0.0515821 0.521371 0.0463834 0.050641 0.51113 0.0430189 0.0493867 0.500698 
0.0394269 0.0478524 0.490033 0.0356061 0.046096 0.479079 0.031551 0.0441971 0.467768 
0.0272536 0.0422498 0.456037 0.0227055 0.0403564 0.443827 0.0178998 0.0386181 0.431092 
0.0128337 0.037127 0.417807 0.00750994 0.0359583 0.403967 0.00193764 0.0351646 0.389586 
-0.00386677 0.0347718 0.374697 -0.00987986 0.0347785 0.359343 -0.0160719 0.0351571 0.343574 
-0.0224077 0.0358587 0.327438 -0.0288479 0.0368189 0.310975 -0.03535 0.0379661 0.294207 
-0.041869 0.0392291 0.277141 -0.0483577 0.0405451 0.259762 -0.0547667 0.0418665 0.242034 
-0.0610436 0.043165 0.223907 -0.0671318 0.0444338 0.205323 -0.0729701 0.0456873 0.186218 
-0.0784915 0.0469576 0.166538 -0.0836233 0.0482897 0.146239 -0.0882877 0.049735 0.125303 
-0.092403 0.0513434 0.103732 -0.0958872 0.053157 0.0815606 -0.0986609 0.0552035 0.0588469 
-0.100652 0.0574921 0.0356743 -0.1018 0.0600107 0.0121438 -0.102061 0.0627262 -0.0116329 
-0.101413 0.0655861 -0.0355416 -0.099855 0.0685226 -0.0594736 -0.0974119 0.0714574 -0.0833319 
-0.0941316 0.0743075 -0.107037 -0.0900833 0.0769907 -0.130527 -0.0853524 0.0794305 -0.153761 
-0.0800351 0.0815598 -0.176713 -0.0742307 0.0833232 -0.19937 -0.068035 0.0846774 -0.221723 
-0.0615331 0.0855911 -0.243764 -0.0547938 0.0860425 -0.265479 -0.0478657 0.0860177 -0.286842 
-0.0407755 0.0855076 -0.307815 -0.0335286 0.0845064 -0.328346 -0.0261125 0.0830097 -0.348372 
-0.0185011 0.081015 -0.367824 -0.0106624 0.0785219 -0.386633 -0.00256484 0.0755343 -0.404733 
0.00581464 0.0720626 -0.422072 0.0144844 0.0681266 -0.438614 0.023433 0.0637583 -0.454342 
0.0326262 0.0590029 -0.469261 0.0420065 0.0539207 -0.483393 0.0514949 0.0485857 -0.496777 
0.0609951 0.0430841 -0.509457 0.0703992 0.037511 -0.521482 0.0795945 0.0319659 -0.532894 
0.088471 0.026548 -0.543723 0.0969281 0.021351 -0.55398 0.10488 0.0164579 -0.563661 
0.112262 0.0119375 -0.572741 0.119029 0.00784089 -0.581182 0.125159 0.00420033 -0.588935 
0.130651 0.00102865 -0.595951 0.135521 -0.00167929 -0.602186 0.139796 -0.00394441 -0.607611 
0.143515 -0.00580025 -0.612219 0.146719 -0.00728931 -0.616027 0.149449 -0.00845938 -0.619078 
0.151742 -0.00936001 -0.621439 0.153631 -0.0100394 -0.623196 0.155141 -0.0105417 -0.624446 
0.156292 -0.0109055 -0.625289 0.157098 -0.0111621 -0.625814 0.157568 -0.0113344 -0.626094 
0.157706 -0.011437 -0.626177 
LINES 2 100
OFFSETS vtktypeint64
0 100 
CONNECTIVITY vtktypeint64
0 1 2 3 4 5 6 7 8 
9 10 11 12 13 14 15 16 17 
18 19 20 21 22 23 24 25 26 
27 28 29 30 31 32 33 34 35 
36 37 38 39 40 41 42 43 44 
45 46 47 48 49 50 51 52 53 
54 55 56 57 58 59 60 61 62 
63 64 65 66 67 68 69 70 71 
72 73 74 75 76 77 78 79 80 
81 82 83 84 85 86 87 88 89 
90 91 92 93 94 95 96 97 98 
99 
POINT_DATA 100
FIELD FieldData 3
_theta 1 100 double
0 0.031733259127 0.063466518254 0.095199777382 0.12693303651 0.15866629564 0.19039955476 0.22213281389 0.25386607302 
0.28559933214 0.31733259127 0.3490658504 0.38079910953 0.41253236865 0.44426562778 0.47599888691 0.50773214603 0.53946540516 
0.57119866429 0.60293192342 0.63466518254 0.66639844167 0.6981317008 0.72986495992 0.76159821905 0.79333147818 0.82506473731 
0.85679799643 0.88853125556 0.92026451469 0.95199777382 0.98373103294 1.0154642921 1.0471975512 1.0789308103 1.1106640695 
1.1423973286 1.1741305877 1.2058638468 1.237597106 1.2693303651 1.3010636242 1.3327968833 1.3645301425 1.3962634016 
1.4279966607 1.4597299198 1.491463179 1.5231964381 1.5549296972 1.5866629564 1.6183962155 1.6501294746 1.6818627337 
1.7135959929 1.745329252 1.7770625111 1.8087957702 1.8405290294 1.8722622885 1.9039955476 1.9357288068 1.9674620659 
1.999195325 2.0309285841 2.0626618433 2.0943951024 2.1261283615 2.1578616206 2.1895948798 2.2213281389 2.253061398 
2.2847946572 2.3165279163 2.3482611754 2.3799944345 2.4117276937 2.4434609528 2.4751942119 2.506927471 2.5386607302 
2.5703939893 2.6021272484 2.6338605076 2.6655937667 2.6973270258 2.7290602849 2.7607935441 2.7925268032 2.8242600623 
2.8559933214 2.8877265806 2.9194598397 2.9511930988 2.982926358 3.0146596171 3.0463928762 3.0781261353 3.1098593945 
3.1415926536 
_radius 1 100 double
1.3400691133e-15 0.014267713837 0.028392114483 0.042236263453 0.055683696368 0.068646199931 0.081068656923 0.092930345531 0.10424244463 
0.11504196538 0.12538284631 0.13532541071 0.14492566649 0.15422593356 0.16324800142 0.17198953531 0.18042390771 0.18850316948 
0.19616356437 0.20333283666 0.20993853209 0.21591648111 0.22121862883 0.22581933171 0.22971922343 0.2329458495 0.23555057327 
0.23760180872 0.23917537004 0.2403434501 0.24116417574 0.24167362834 0.24188165808 0.24177197992 0.24130622631 0.24043106487 
0.23908722835 0.23721928392 0.2347850866 0.23176403179 0.228163397 0.22402222733 0.21941237925 0.21443650615 0.20922297342 
0.20391795978 0.19867535775 0.19364550584 0.18896416361 0.18474329999 0.1810650347 0.17797939699 0.17550558834 0.17363549144 
0.17233769022 0.17156058696 0.17123430102 0.17127238556 0.17157517684 0.17203620645 0.17255170393 0.17303159174 0.17340938925 
0.17364851937 0.17374354084 0.17371634506 0.1736087445 0.17347359677 0.17336641292 0.17333850889 0.17343174809 0.17367432554 
0.17407703845 0.17462988959 0.17529936041 0.17602700489 0.17673001165 0.17730403929 0.17762807548 0.17757057185 0.17699594654 
0.17577079298 0.17376957475 0.17087990836 0.16700756298 0.16208107741 0.15605559404 0.14891532831 0.14067413632 0.13137390518 
0.12108088007 0.10988043359 0.097871065514 0.085158521031 0.071850813576 0.058054666813 0.043873532121 0.029407003934 0.014751245853 
9.7890106857e-16 
_area 1 100 double
0 0.00055682301948 0.0022020901416 0.0048635533883 0.0084314143475 0.012772337655 0.017745624175 0.023218878555 0.029080661651 
0.035248174585 0.041668882067 0.048316083892 0.055179704666 0.062254715277 0.069530093744 0.076980659995 0.084562712326 0.092213008136 
0.099850035351 0.10737680899 0.11468512806 0.1216618095 0.12819759371 0.13419895717 0.13960158283 0.14438182791 0.14856067071 
0.15219549702 0.15535956758 0.15811531587 0.16049173242 0.16247431985 0.16400914916 0.16501600951 0.16540419162 0.1650870383 
0.16399407821 0.16208040386 0.15933273477 0.15577165505 0.15145042861 0.14645235648 0.14088960755 0.13490495632 0.12867392609 
0.12240193662 0.11631263298 0.11062850654 0.10554427562 0.10117518404 0.097503324288 0.094419930435 0.091802063188 0.089545940673 
0.087571520376 0.085829978337 0.084272353192 0.082835268167 0.081452943373 0.080068236316 0.078652927644 0.07722529731 0.075848610688 
0.074595464578 0.073521583642 0.072645396494 0.071897963641 0.071223292316 0.070579411236 0.069942871132 0.069315660232 0.068730119898 
0.068244629724 0.067928905679 0.067844363468 0.068027339368 0.068477190504 0.069146888835 0.069937011578 0.070697582955 0.071240075978 
0.071357123225 0.070845462745 0.06952864218 0.067277320315 0.064025522366 0.059781325665 0.054630641313 0.048733201817 0.042310612039 
0.035627323935 0.028966509962 0.022603828322 0.01678277648 0.011695521745 0.007472619382 0.0041837437724 0.0018493692024 0.00046040838773 
1.563958992e-17 
