# vtk DataFile Version 5.1
vtk output
ASCII
DATASET POLYDATA
POINTS 100 float
0.124261 0.0436859 0.687928 0.124236 0.0438985 0.687832 0.12422 0.0443781 0.687375 
0.12418 0.0451065 0.686526 0.124064 0.0460551 0.685236 0.123808 0.0471862 0.683445 
0.123345 0.0484541 0.681082 0.122609 0.0498077 0.678077 0.121547 0.0511924 0.674363 
0.120119 0.0525521 0.669887 0.118306 0.0538317 0.664606 0.116109 0.0549787 0.658502 
0.113547 0.0559451 0.651576 0.110652 0.0566885 0.643851 0.107465 0.0571739 0.635373 
0.104029 0.0573741 0.626203 0.10038 0.0572706 0.616417 0.0965443 0.0568542 0.606094 
0.0925368 0.0561251 0.595317 0.0883555 0.0550935 0.584159 0.0839855 0.0537793 0.572682 
0.0794015 0.052212 0.560932 0.0745724 0.0504308 0.548933 0.069467 0.0484833 0.536688 
0.0640597 0.0464252 0.524181 0.0583348 0.0443188 0.511377 0.0522899 0.0422315 0.49823 
0.0459366 0.0402337 0.484683 0.0393005 0.0383969 0.470679 0.0324178 0.0367905 0.456167 
0.0253315 0.0354801 0.441101 0.0180873 0.034524 0.425449 0.0107287 0.0339709 0.409194 
0.00329396 0.0338576 0.392332 -0.00418557 0.0342075 0.374872 -0.0116854 0.0350285 0.35683 
-0.0191858 0.0363129 0.338229 -0.0266675 0.0380372 0.319091 -0.0341073 0.0401628 0.299434 
-0.0414727 0.0426375 0.27927 -0.0487172 0.0453979 0.258599 -0.0557777 0.0483715 0.237417 
-0.0625734 0.0514802 0.215709 -0.069008 0.0546436 0.193458 -0.0749744 0.0577824 0.17065 
-0.0803616 0.0608221 0.147278 -0.0850633 0.0636957 0.123349 -0.0889874 0.0663467 0.0988879 
-0.0920652 0.0687313 0.0739412 -0.0942579 0.0708198 0.0485797 -0.0955621 0.0725973 0.0228959 
-0.0960107 0.0740631 -0.00299835 -0.0956705 0.0752302 -0.0289777 -0.0946364 0.0761231 -0.0549101 
-0.0930225 0.076775 -0.0806651 -0.0909514 0.0772248 -0.106122 -0.088542 0.077513 -0.131175 
-0.0858988 0.0776784 -0.155743 -0.0831024 0.0777542 -0.17977 -0.0802028 0.0777644 -0.203225 
-0.0772171 0.0777213 -0.226102 -0.0741302 0.077624 -0.248419 -0.0709002 0.077457 -0.270204 
-0.067466 0.0771913 -0.291496 -0.0637581 0.0767858 -0.312335 -0.0597094 0.0761901 -0.332752 
-0.0552661 0.0753479 -0.352768 -0.0503969 0.0742021 -0.372391 -0.0450995 0.0726987 -0.391609 
-0.0394034 0.0707918 -0.410397 -0.03337 0.0684479 -0.428717 -0.0270881 0.0656489 -0.446524 
-0.020668 0.0623946 -0.463768 -0.0142321 0.0587033 -0.480404 -0.00790611 0.0546117 -0.496394 
-0.00180931 0.0501725 -0.511711 0.00395306 0.0454518 -0.52634 0.00929593 0.0405245 -0.540279 
0.0141578 0.0354702 -0.553539 0.0185018 0.0303682 -0.566137 0.0223138 0.0252933 -0.578095 
0.0255996 0.0203115 -0.589435 0.0283796 0.0154781 -0.600174 0.0306846 0.0108355 -0.610321 
0.0325507 0.00641305 -0.619878 0.0340156 0.00222842 -0.628836 0.0351162 -0.00171076 -0.637179 
0.0358879 -0.00540396 -0.644886 0.0363645 -0.0088546 -0.651934 0.0365795 -0.0120669 -0.658305 
0.0365681 -0.015043 -0.663983 0.0363686 -0.017781 -0.668966 0.0360233 -0.0202736 -0.67326 
0.0355789 -0.022508 -0.676883 0.0350852 -0.0244666 -0.679862 0.0345929 -0.0261286 -0.682229 
0.0341507 -0.0274721 -0.68402 0.0338015 -0.0284769 -0.685268 0.033579 -0.029126 -0.686001 
0.0335049 -0.0294085 -0.686236 
LINES 2 100
OFFSETS vtktypeint64
0 100 
CONNECTIVITY vtktypeint64
0 1 2 3 4 5 6 7 8 
9 10 11 12 13 14 15 16 17 
18 19 20 21 22 23 24 25 26 
27 28 29 30 31 32 33 34 35 
36 37 38 39 40 41 42 43 44 
45 46 47 48 49 50 51 52 53 
54 55 56 57 58 59 60 61 62 
63 64 65 66 67 68 69 70 71 
72 73 74 75 76 77 78 79 80 
81 82 83 84 85 86 87 88 89 
90 91 92 93 94 95 96 97 98 
99 
POINT_DATA 100
FIELD FieldData 3
_theta 1 100 double
0 0.031733259127 0.063466518254 0.095199777382 0.12693303651 0.15866629564 0.19039955476 0.22213281389 0.25386607302 
0.28559933214 0.31733259127 0.3490658504 0.38079910953 0.41253236865 0.44426562778 0.47599888691 0.50773214603 0.53946540516 
0.57119866429 0.60293192342 0.63466518254 0.66639844167 0.6981317008 0.72986495992 0.76159821905 0.79333147818 0.82506473731 
0.85679799643 0.88853125556 0.92026451469 0.95199777382 0.98373103294 1.0154642921 1.0471975512 1.0789308103 1.1106640695 
1.1423973286 1.1741305877 1.2058638468 1.237597106 1.2693303651 1.3010636242 1.3327968833 1.3645301425 1.3962634016 
1.4279966607 1.4597299198 1.491463179 1.5231964381 1.5549296972 1.5866629564 1.6183962155 1.6501294746 1.6818627337 
1.7135959929 1.745329252 1.7770625111 1.8087957702 1.8405290294 1.8722622885 1.9039955476 1.9357288068 1.9674620659 
1.999195325 2.0309285841 2.0626618433 2.0943951024 2.1261283615 2.1578616206 2.1895948798 2.2213281389 2.253061398 
2.2847946572 2.3165279163 2.3482611754 2.3799944345 2.4117276937 2.4434609528 2.4751942119 2.506927471 2.5386607302 
2.5703939893 2.6021272484 2.6338605076 2.6655937667 2.6973270258 2.7290602849 2.7607935441 2.7925268032 2.8242600623 
2.8559933214 2.8877265806 2.9194598397 2.9511930988 2.982926358 3.0146596171 3.0463928762 3.0781261353 3.1098593945 
3.1415926536 
_radius 1 100 double
5.7324671544e-16 0.014247540651 0.028425041208 0.042461932284 0.056291389055 0.069851133464 0.08308328492 0.09593356182 0.10835036323 
0.12028428411 0.1316884335 0.14251960901 0.15274005261 0.16231928591 0.17123546988 0.17947586726 0.18703626811 0.19391958071 
0.2001340764 0.20569189121 0.21060826 0.21490161014 0.21859419207 0.2217125727 0.22428727024 0.22635115957 0.22793690555 
0.2290742467 0.2297880945 0.23009804049 0.23001923904 0.22956414465 0.22874444456 0.2275727005 0.22606352645 0.22423440994 
0.22210642049 0.21970500601 0.21706089953 0.21421094767 0.21119853985 0.20807333352 0.20489014174 0.20170713512 0.19858383064 
0.19557956127 0.19275305964 0.19016331719 0.18787108326 0.18593960219 0.18443291466 0.18341059223 0.18291909993 0.18298160697 
0.18358918222 0.18469625394 0.18622197001 0.18805732432 0.19007642827 0.19214956394 0.19415567505 0.19599249661 0.19758330446 
0.19888002942 0.19986306451 0.20053843445 0.20093311756 0.20108927323 0.20105799367 0.20089301302 0.20064461607 0.20035384551 
0.20004706373 0.19973100648 0.19938865232 0.19897645559 0.19842364737 0.19763426317 0.19649219535 0.19486892098 0.19263288408 
0.18965916851 0.18583823848 0.18108297233 0.17533364614 0.16856074891 0.16076559386 0.15197879639 0.14225688673 0.13167753336 
0.12033395294 0.10832903395 0.095769564445 0.082760831244 0.0694018206 0.05578129963 0.041975139933 0.028045279321 0.014040630865 
2.3200268438e-16 
_area 1 100 double
0 0.00054396833024 0.0021650642935 0.0048316151361 0.0084931900854 0.013083536122 0.018523382255 0.024721981141 0.031576823451 
0.038972268356 0.046779103794 0.054857169219 0.06306176333 0.071252513975 0.079302125212 0.087102683733 0.09456865693 0.10163736508 
0.10826862488 0.11444494325 0.12017202213 0.12547679577 0.13039833919 0.13496906538 0.13919134716 0.14302224602 0.14637688959 
0.14914985818 0.15124461956 0.15259956907 0.15320270687 0.15309159814 0.15233984243 0.15103549103 0.14925958233 0.14707250251 
0.14451166563 0.14159849106 0.13834962661 0.1347878335 0.13094984258 0.12688992129 0.12267865889 0.11839719148 0.11412822606 
0.10994676773 0.10591459244 0.10208182122 0.098495740768 0.095212501265 0.09230414534 0.089854389788 0.087943131053 0.08662819395 
0.085934719435 0.085855048614 0.086351880475 0.087351154233 0.088721474567 0.090273543583 0.091803475339 0.093125625058 0.094093966222 
0.094629422304 0.094708351115 0.094364756717 0.093703052264 0.092819279308 0.091826085928 0.090902918656 0.090142301931 0.089601180277 
0.089313509523 0.089418152808 0.089997913108 0.090968564356 0.092148999474 0.093296854429 0.09415522289 0.094472793153 0.094025477687 
0.092635402349 0.09018336691 0.086614999434 0.081943142529 0.07624828052 0.069676178882 0.062429954526 0.054754461516 0.046913830321 
0.039166350657 0.031742790249 0.02483357749 0.018586995647 0.013116164011 0.0085096186425 0.0048402048648 0.0021691548581 0.00054509406424 
3.9301278153e-18 
