# vtk DataFile Version 5.1
vtk output
ASCII
DATASET POLYDATA
POINTS 100 float
0.152648 0.0459871 0.656951 0.152552 0.0461556 0.657108 0.152368 0.0465093 0.657404 
0.152095 0.0470199 0.657765 0.151735 0.0476446 0.658079 0.151287 0.0483324 0.658199 
0.15075 0.0490308 0.657957 0.150116 0.049693 0.657174 0.149377 0.0502833 0.655676 
0.148516 0.0507821 0.653305 0.147507 0.0511868 0.649931 0.146318 0.0515107 0.64546 
0.144905 0.0517794 0.639841 0.143215 0.0520247 0.633071 0.141187 0.052277 0.625187 
0.138755 0.0525581 0.61627 0.135852 0.052875 0.606433 0.132412 0.0532148 0.595809 
0.12838 0.0535436 0.584545 0.12371 0.0538078 0.572788 0.11838 0.0539395 0.560671 
0.112383 0.0538641 0.548312 0.105741 0.0535101 0.535795 0.0984962 0.0528198 0.523179 
0.0907112 0.0517592 0.510488 0.0824655 0.0503264 0.497717 0.0738474 0.048556 0.484835 
0.0649471 0.0465206 0.471796 0.0558485 0.0443269 0.45854 0.0466221 0.0421087 0.445007 
0.0373197 0.0400152 0.431138 0.0279711 0.0381978 0.416886 0.0185841 0.0367951 0.402213 
0.00914819 0.0359195 0.387093 -0.000359582 0.035645 0.371514 -0.00996551 0.0359996 0.355467 
-0.0196891 0.0369612 0.338947 -0.0295323 0.0384598 0.321946 -0.0394705 0.0403837 0.304451 
-0.0494448 0.0425906 0.286438 -0.0593591 0.0449218 0.267875 -0.0690801 0.047218 0.248722 
-0.078443 0.0493356 0.228933 -0.0872602 0.0511603 0.208467 -0.0953345 0.0526187 0.187293 
-0.102473 0.0536846 0.165394 -0.108505 0.0543808 0.14278 -0.113291 0.0547756 0.119487 
-0.116743 0.0549742 0.0955847 -0.118823 0.0551073 0.07117 -0.119551 0.0553158 0.0463677 
-0.119002 0.0557358 0.0213212 -0.117297 0.0564839 -0.00381693 -0.114592 0.0576441 -0.028895 
-0.111062 0.0592593 -0.0537736 -0.106886 0.0613254 -0.0783352 -0.102231 0.0637916 -0.102491 
-0.0972374 0.0665642 -0.126188 -0.0920106 0.0695139 -0.149404 -0.0866154 0.0724877 -0.17215 
-0.0810756 0.0753203 -0.194462 -0.0753784 0.0778478 -0.216389 -0.0694836 0.0799202 -0.237989 
-0.0633347 0.081411 -0.259309 -0.0568721 0.0822256 -0.280385 -0.0500454 0.0823056 -0.30123 
-0.0428239 0.0816303 -0.321831 -0.0352046 0.0802143 -0.34215 -0.0272155 0.0781032 -0.362127 
-0.0189154 0.0753674 -0.381689 -0.0103896 0.0720939 -0.400756 -0.00174291 0.0683785 -0.419251 
0.00691002 0.0643184 -0.437112 0.0154539 0.0600052 -0.454294 0.0237822 0.0555207 -0.47078 
0.0318037 0.050933 -0.486576 0.0394472 0.046295 -0.501711 0.0466625 0.0416451 -0.516227 
0.0534185 0.0370083 -0.530176 0.059699 0.0323988 -0.543602 0.0654972 0.0278232 -0.556539 
0.0708086 0.0232836 -0.568994 0.0756267 0.0187811 -0.580949 0.079938 0.014318 -0.592354 
0.0837219 0.00990047 -0.603132 0.0869514 0.00553963 -0.613188 0.0895978 0.00125255 -0.622415 
0.0916369 -0.00293772 -0.63071 0.0930561 -0.00700253 -0.637987 0.0938622 -0.0109085 -0.644189 
0.0940869 -0.0146185 -0.649298 0.0937908 -0.0180933 -0.653341 0.0930633 -0.0212926 -0.656392 
0.0920199 -0.0241767 -0.658563 0.0907948 -0.0267077 -0.660001 0.0895317 -0.0288511 -0.660871 
0.0883713 -0.0305764 -0.661337 0.0874397 -0.0318585 -0.661552 0.0868362 -0.0326784 -0.661636 
0.0866241 -0.0330236 -0.661665 
LINES 2 100
OFFSETS vtktypeint64
0 100 
CONNECTIVITY vtktypeint64
0 1 2 3 4 5 6 7 8 
9 10 11 12 13 14 15 16 17 
18 19 20 21 22 23 24 25 26 
27 28 29 30 31 32 33 34 35 
36 37 38 39 40 41 42 43 44 
45 46 47 48 49 50 51 52 53 
54 55 56 57 58 59 60 61 62 
63 64 65 66 67 68 69 70 71 
72 73 74 75 76 77 78 79 80 
81 82 83 84 85 86 87 88 89 
90 91 92 93 94 95 96 97 98 
99 
POINT_DATA 100
FIELD FieldData 3
_theta 1 100 double
0 0.031733259127 0.063466518254 0.095199777382 0.12693303651 0.15866629564 0.19039955476 0.22213281389 0.25386607302 
0.28559933214 0.31733259127 0.3490658504 0.38079910953 0.41253236865 0.44426562778 0.47599888691 0.50773214603 0.53946540516 
0.57119866429 0.60293192342 0.63466518254 0.66639844167 0.6981317008 0.72986495992 0.76159821905 0.79333147818 0.82506473731 
0.85679799643 0.88853125556 0.92026451469 0.95199777382 0.98373103294 1.0154642921 1.0471975512 1.0789308103 1.1106640695 
1.1423973286 1.1741305877 1.2058638468 1.237597106 1.2693303651 1.3010636242 1.3327968833 1.3645301425 1.3962634016 
1.4279966607 1.4597299198 1.491463179 1.5231964381 1.5549296972 1.5866629564 1.6183962155 1.6501294746 1.6818627337 
1.7135959929 1.745329252 1.7770625111 1.8087957702 1.8405290294 1.8722622885 1.9039955476 1.9357288068 1.9674620659 
1.999195325 2.0309285841 2.0626618433 2.0943951024 2.1261283615 2.1578616206 2.1895948798 2.2213281389 2.253061398 
2.2847946572 2.3165279163 2.3482611754 2.3799944345 2.4117276937 2.4434609528 2.4751942119 2.506927471 2.5386607302 
2.5703939893 2.6021272484 2.6338605076 2.6655937667 2.6973270258 2.7290602849 2.7607935441 2.7925268032 2.8242600623 
2.8559933214 2.8877265806 2.9194598397 2.9511930988 2.982926358 3.0146596171 3.0463928762 3.0781261353 3.1098593945 
3.1415926536 
_radius 1 100 double
1.1141193155e-15 0.015574066403 0.030974450298 0.046036676381 0.060621830211 0.074625024187 0.08797919801 0.10065389059 0.11264943258 
0.12398774459 0.1347014422 0.14482313824 0.15437664814 0.16337128158 0.17179968623 0.17963902252 0.18685479081 0.19340646839 
0.19925416605 0.20436564305 0.20872311016 0.21232924994 0.21521181438 0.21742609664 0.21905460485 0.22020343925 0.22099518358 
0.22155853538 0.22201539195 0.22246666615 0.22297866645 0.22357228013 0.22421720991 0.22483295851 0.22529717314 0.22546063448 
0.2251669771 0.22427444413 0.22267670563 0.22031995649 0.21721403625 0.21343606297 0.20912596022 0.2044742174 0.19970321184 
0.19504440098 0.19071461695 0.18689538347 0.18371914906 0.18126490893 0.17956272358 0.17860334478 0.17834760754 0.17873157414 
0.17966683385 0.18103893224 0.18270867118 0.18451983981 0.18631340996 0.18794471532 0.18929882412 0.19030043644 0.19091688642 
0.19115485837 0.1910526185 0.19066993027 0.19007762857 0.1893483369 0.18854919178 0.18773680245 0.18695412522 0.18622858859 
0.18557076102 0.1849731251 0.18440899172 0.18383199939 0.18317672407 0.18236063393 0.18128725042 0.179850253 0.17793840028 
0.17544125663 0.172255583 0.16829191797 0.16348054656 0.15777591342 0.15115864968 0.14363473022 0.1352317985 0.12599330134 
0.11597164208 0.10522192869 0.093797893954 0.081751092878 0.069133583394 0.056003206375 0.042429665265 0.028499220119 0.014316137892 
2.4494671934e-16 
_area 1 100 double
0 0.00055976174451 0.0022153114497 0.0048993785009 0.0085119549921 0.012935240101 0.018049063981 0.023743100553 0.029923069633 
0.036509815945 0.04343236231 0.050618137056 0.057984555908 0.065435226197 0.072861667317 0.080149117833 0.087183926714 0.093860239 
0.10008461218 0.10577843524 0.11087933619 0.11534367506 0.11915198529 0.12231749359 0.12489525265 0.12698735362 0.12873943707 
0.13032581362 0.1319243784 0.13368638165 0.13570765243 0.13800648212 0.14051153357 0.14306262714 0.14542608007 0.14732317704 
0.14846775515 0.14860805581 0.1475670841 0.14527413156 0.1417801589 0.13725317699 0.13195523525 0.12620692575 0.12034593552 
0.11468322261 0.10945997837 0.10481908142 0.1008102019 0.097422762829 0.09461856982 0.092347751854 0.090552200684 0.089168581065 
0.088137214426 0.087410878324 0.086958412967 0.086755078082 0.086697703429 0.086661235784 0.086531000884 0.086275855726 0.085737523018 
0.084871625536 0.083683644441 0.082212560577 0.080523302655 0.078700344517 0.076839707107 0.075040113241 0.073399862666 0.072030595017 
0.070969917134 0.070256115481 0.069952735361 0.070183483319 0.070804458766 0.071615918498 0.072465618208 0.073177704904 0.073554902887 
0.073396249328 0.072521452269 0.070795338884 0.068146131551 0.064573485566 0.060145462053 0.054986599956 0.049261141251 0.043155631965 
0.036863773271 0.030575092164 0.024468657266 0.018712410421 0.013466577867 0.0088872280442 0.0051255492707 0.0023206045703 0.0005868041224 
2.7782654252e-17 
