# vtk DataFile Version 5.1
vtk output
ASCII
DATASET POLYDATA
POINTS 100 float
0.125234 0.0671512 0.690497 0.125282 0.0672164 0.690313 0.125457 0.0672854 0.689631 
0.125717 0.0673558 0.688457 0.125996 0.0674233 0.686803 0.126211 0.0674825 0.684678 
0.126271 0.0675277 0.682083 0.126088 0.0675535 0.679008 0.125583 0.0675553 0.675424 
0.12469 0.0675294 0.67129 0.123369 0.067472 0.666546 0.121597 0.067378 0.661126 
0.119375 0.0672397 0.654961 0.11672 0.067045 0.647991 0.113661 0.066776 0.640171 
0.110234 0.0664085 0.631483 0.106471 0.0659118 0.621939 0.102401 0.0652501 0.611586 
0.0980457 0.064385 0.600498 0.093414 0.0632791 0.588779 0.0885088 0.0618997 0.576543 
0.0833277 0.0602239 0.56391 0.0778683 0.0582428 0.550989 0.0721333 0.055965 0.537867 
0.0661353 0.0534189 0.524601 0.0598999 0.0506536 0.511209 0.0534665 0.0477373 0.497671 
0.0468875 0.0447541 0.483935 0.0402239 0.041799 0.469922 0.0335394 0.0389721 0.455541 
0.026893 0.036371 0.4407 0.0203315 0.0340843 0.425323 0.0138825 0.0321852 0.409356 
0.00754998 0.0307269 0.392779 0.00131208 0.0297393 0.375606 -0.00487678 0.0292286 0.357883 
-0.0110807 0.0291784 0.33968 -0.0173734 0.0295533 0.321081 -0.0238275 0.0303034 0.302167 
-0.0305015 0.0313707 0.283002 -0.037428 0.0326945 0.263625 -0.0446029 0.0342178 0.244037 
-0.0519784 0.0358908 0.224198 -0.05946 0.0376746 0.204033 -0.0669081 0.0395422 0.183438 
-0.0741454 0.0414781 0.162295 -0.0809679 0.0434758 0.140489 -0.0871601 0.045535 0.117926 
-0.092512 0.0476579 0.0945466 -0.0968361 0.0498452 0.0703457 -0.0999834 0.0520928 0.0453743 
-0.101855 0.0543902 0.0197429 -0.102412 0.0567188 -0.00638518 -0.101674 0.0590523 -0.0328065 
-0.09972 0.0613588 -0.059295 -0.0966772 0.0636024 -0.0856228 -0.0927085 0.0657464 -0.111581 
-0.0879969 0.0677558 -0.136997 -0.0827281 0.0695997 -0.161751 -0.0770735 0.071253 -0.185782 
-0.0711766 0.0726963 -0.209089 -0.0651422 0.0739156 -0.231725 -0.0590309 0.0749007 -0.25378 
-0.0528585 0.0756435 -0.27537 -0.0466011 0.0761352 -0.296615 -0.0402038 0.0763649 -0.317619 
-0.0335934 0.0763182 -0.338455 -0.0266925 0.075977 -0.359153 -0.0194336 0.0753205 -0.3797 
-0.0117726 0.0743276 -0.400033 -0.00369839 0.072979 -0.420056 0.00476044 0.0712618 -0.439648 
0.0135337 0.069172 -0.458681 0.0225121 0.0667177 -0.477034 0.0315536 0.0639209 -0.494608 
0.0404935 0.0608179 -0.511342 0.0491557 0.0574581 -0.527209 0.0573667 0.0539011 -0.542224 
0.0649669 0.0502126 -0.556432 0.0718223 0.0464599 -0.569902 0.0778331 0.0427063 -0.582708 
0.0829383 0.0390061 -0.594918 0.0871187 0.0354016 -0.606578 0.0903946 0.0319202 -0.617706 
0.0928222 0.0285743 -0.628285 0.0944867 0.0253628 -0.638262 0.0954937 0.0222744 -0.647559 
0.0959613 0.0192923 -0.656083 0.0960102 0.0163995 -0.663737 0.0957569 0.0135845 -0.670442 
0.0953071 0.0108453 -0.676145 0.0947509 0.00819336 -0.680835 0.0941608 0.00565485 -0.684542 
0.093591 0.00326988 -0.687345 0.0930786 0.00108996 -0.689357 0.0926461 -0.000826455 -0.690719 
0.092305 -0.00241959 -0.691578 0.0920592 -0.00363444 -0.692076 0.0919085 -0.00442659 -0.692328 
0.0918518 -0.00476698 -0.692406 
LINES 2 100
OFFSETS vtktypeint64
0 100 
CONNECTIVITY vtktypeint64
0 1 2 3 4 5 6 7 8 
9 10 11 12 13 14 15 16 17 
18 19 20 21 22 23 24 25 26 
27 28 29 30 31 32 33 34 35 
36 37 38 39 40 41 42 43 44 
45 46 47 48 49 50 51 52 53 
54 55 56 57 58 59 60 61 62 
63 64 65 66 67 68 69 70 71 
72 73 74 75 76 77 78 79 80 
81 82 83 84 85 86 87 88 89 
90 91 92 93 94 95 96 97 98 
99 
POINT_DATA 100
FIELD FieldData 3
_theta 1 100 double
0 0.031733259127 0.063466518254 0.095199777382 0.12693303651 0.15866629564 0.19039955476 0.22213281389 0.25386607302 
0.28559933214 0.31733259127 0.3490658504 0.38079910953 0.41253236865 0.44426562778 0.47599888691 0.50773214603 0.53946540516 
0.57119866429 0.60293192342 0.63466518254 0.66639844167 0.6981317008 0.72986495992 0.76159821905 0.79333147818 0.82506473731 
0.85679799643 0.88853125556 0.92026451469 0.95199777382 0.98373103294 1.0154642921 1.0471975512 1.0789308103 1.1106640695 
1.1423973286 1.1741305877 1.2058638468 1.237597106 1.2693303651 1.3010636242 1.3327968833 1.3645301425 1.3962634016 
1.4279966607 1.4597299198 1.491463179 1.5231964381 1.5549296972 1.5866629564 1.6183962155 1.6501294746 1.6818627337 
1.7135959929 1.745329252 1.7770625111 1.8087957702 1.8405290294 1.8722622885 1.9039955476 1.9357288068 1.9674620659 
1.999195325 2.0309285841 2.0626618433 2.0943951024 2.1261283615 2.1578616206 2.1895948798 2.2213281389 2.253061398 
2.2847946572 2.3165279163 2.3482611754 2.3799944345 2.4117276937 2.4434609528 2.4751942119 2.506927471 2.5386607302 
2.5703939893 2.6021272484 2.6338605076 2.6655937667 2.6973270258 2.7290602849 2.7607935441 2.7925268032 2.8242600623 
2.8559933214 2.8877265806 2.9194598397 2.9511930988 2.982926358 3.0146596171 3.0463928762 3.0781261353 3.1098593945 
3.1415926536 
_radius 1 100 double
8.0299523372e-16 0.013847601981 0.027705633585 0.041574418388 0.055441297335 0.06927538574 0.083024091083 0.096612231452 0.10994436702 
0.1229104394 0.13539413136 0.14728272528 0.15847686865 0.16889867736 0.17849700375 0.18724930834 0.19516019541 0.2022571529 
0.20858434091 0.21419544493 0.21914668859 0.22349106905 0.22727467485 0.23053554516 0.23330499966 0.23561086984 0.23748173874 
0.23895116476 0.2400608413 0.24086168995 0.24141210857 0.24177312435 0.24200097972 0.24213843889 0.24220654444 0.24219853286 
0.24207720923 0.24177649435 0.24120728776 0.24026731158 0.2388541716 0.23688043279 0.23428906356 0.23106725515 0.22725649074 
0.22295691008 0.2183245157 0.21356060861 0.20889404618 0.20455844464 0.20076798437 0.1976962813 0.19546200759 0.19412245972 
0.1936733127 0.19405132643 0.19513787571 0.19676399872 0.19871991697 0.20077171593 0.20268506211 0.20425236543 0.20531784786 
0.20579536206 0.20567580031 0.20502333508 0.20396175189 0.20265354162 0.20127521675 0.19999251845 0.19893878424 0.1981988357 
0.19779957625 0.19770742125 0.19783197789 0.19803503968 0.19814375664 0.19796661503 0.1973105982 0.19599769439 0.19387888103 
0.19084395582 0.18682615233 0.18180129991 0.1757821725 0.16880939679 0.16094070787 0.1522404033 0.14277059136 0.13258534027 
0.12172822277 0.11023315014 0.098127930606 0.085439736038 0.072201561558 0.058458677793 0.04427394146 0.029730768993 0.014932812468 
1.6372913583e-15 
_area 1 100 double
0 0.00050054450886 0.0020052785028 0.0045215337347 0.0080549833465 0.012600170327 0.018128743485 0.024578095944 0.031844248391 
0.039782689319 0.048218665495 0.056964328468 0.065836222626 0.074666250767 0.083304147157 0.091616009319 0.099485328588 0.10681892735 
0.11355484744 0.11966678872 0.12516109605 0.13006641885 0.13442074682 0.13826252943 0.14162997117 0.14456654083 0.14712556941 
0.14936698606 0.15134557739 0.15309774615 0.15463531383 0.1559494095 0.15702112467 0.15783281941 0.15837433294 0.15864079255 
0.15862257111 0.15829145312 0.15758837917 0.15641821814 0.15465730526 0.15217688837 0.14887843683 0.14473046332 0.13979531055 
0.1342372008 0.12830747152 0.1223075835 0.11653510542 0.11122604342 0.10651689754 0.10244409915 0.098978607687 0.096079302435 
0.093741364218 0.092016956922 0.090992161282 0.090719538721 0.091142951578 0.092055386408 0.093113061201 0.09394972916 0.094279373345 
0.093934568902 0.092878460074 0.091197363513 0.089076528803 0.086767205397 0.084555934817 0.082722847799 0.081541468165 0.081196492776 
0.0817748487 0.0831038408 0.085010711348 0.087308541076 0.089774758625 0.092146882935 0.094131063042 0.095425279842 0.095753071391 
0.094898664065 0.092734426346 0.089234838911 0.084475150279 0.078616417758 0.071881118079 0.064524677778 0.056808226685 0.048976897392 
0.041246353368 0.033798229145 0.026783275084 0.020329828806 0.014554987146 0.0095755190989 0.005514020063 0.0024951688648 0.00063090616185 
5.6500669553e-17 
