# vtk DataFile Version 5.1
vtk output
ASCII
DATASET POLYDATA
POINTS 100 float
0.0740424 0.0145665 0.653422 0.0742469 0.0148768 0.65292 0.0748615 0.0156488 0.651335 
0.0758086 0.0168244 0.64873 0.0769691 0.018315 0.645199 0.0781959 0.0200107 0.640863 
0.0793304 0.0217925 0.635851 0.0802198 0.0235445 0.630296 0.0807335 0.0251657 0.624312 
0.0807762 0.0265804 0.617993 0.0802961 0.0277442 0.611401 0.0792877 0.0286477 0.604565 
0.0777886 0.0293151 0.597484 0.0758715 0.0297993 0.590131 0.0736318 0.0301743 0.582463 
0.0711732 0.0305241 0.574427 0.0685928 0.0309326 0.565976 0.0659683 0.0314724 0.557071 
0.0633481 0.032196 0.547693 0.0607461 0.0331292 0.537844 0.0581417 0.0342684 0.527549 
0.0554849 0.0355807 0.51685 0.0527047 0.037008 0.505802 0.0497215 0.0384733 0.494468 
0.0464593 0.0398894 0.482908 0.0428578 0.0411685 0.471176 0.0388816 0.0422311 0.45931 
0.0345258 0.043014 0.447333 0.0298168 0.0434767 0.435252 0.0248089 0.0436043 0.423058 
0.0195755 0.0434085 0.410731 0.0141992 0.0429254 0.398246 0.00875908 0.0422119 0.385576 
0.00331885 0.0413395 0.372696 -0.00208254 0.0403881 0.359587 -0.00743693 0.0394397 0.346233 
-0.0127682 0.0385723 0.332625 -0.0181286 0.0378556 0.318751 -0.0235899 0.0373477 0.304594 
-0.0292317 0.037094 0.290127 -0.0351264 0.0371265 0.27531 -0.0413242 0.0374655 0.260086 
-0.0478399 0.0381211 0.244382 -0.0546427 0.0390949 0.228111 -0.0616501 0.0403824 0.211182 
-0.0687289 0.0419738 0.193502 -0.0757001 0.0438553 0.17499 -0.082351 0.0460087 0.155588 
-0.0884498 0.0484111 0.135266 -0.0937642 0.0510347 0.11403 -0.0980799 0.0538457 0.0919286 
-0.101218 0.0568041 0.0690465 -0.103048 0.0598645 0.0455049 -0.103501 0.0629767 0.0214511 
-0.102571 0.0660877 -0.00295167 -0.100312 0.0691441 -0.0275368 -0.0968352 0.0720944 -0.0521458 
-0.0922949 0.0748917 -0.0766394 -0.0868738 0.0774957 -0.100905 -0.080767 0.0798742 -0.124861 
-0.0741663 0.0820032 -0.148456 -0.067245 0.0838657 -0.171667 -0.0601477 0.0854508 -0.19449 
-0.0529817 0.0867497 -0.216933 -0.0458149 0.0877539 -0.239005 -0.0386768 0.0884509 -0.26071 
-0.031563 0.0888226 -0.282034 -0.0244435 0.0888428 -0.30295 -0.0172722 0.0884777 -0.32341 
-0.00999674 0.0876867 -0.343355 -0.0025684 0.0864255 -0.362716 0.00504967 0.08465 -0.381426 
0.0128763 0.0823216 -0.399429 0.0209083 0.0794127 -0.416682 0.0291193 0.0759124 -0.43317 
0.0374604 0.0718304 -0.448899 0.0458627 0.0672009 -0.463899 0.0542419 0.0620835 -0.478218 
0.0625023 0.0565629 -0.491912 0.0705426 0.0507455 -0.505037 0.078261 0.0447553 -0.517634 
0.0855593 0.0387274 -0.529722 0.0923479 0.0328001 -0.541291 0.098549 0.0271079 -0.552297 
0.1041 0.0217732 -0.562668 0.108955 0.0169001 -0.572304 0.113088 0.0125687 -0.581096 
0.116494 0.00883137 -0.588935 0.11919 0.00571147 -0.595727 0.121213 0.00320336 -0.601411 
0.122619 0.00127472 -0.605967 0.123484 -0.000129606 -0.609427 0.123898 -0.00108255 -0.611876 
0.12396 -0.00166884 -0.613444 0.123775 -0.0019786 -0.614299 0.123445 -0.00210102 -0.614633 
0.123067 -0.00211828 -0.61464 0.122723 -0.00210024 -0.614497 0.122475 -0.00209998 -0.614346 
0.122364 -0.00215053 -0.614281 
LINES 2 100
OFFSETS vtktypeint64
0 100 
CONNECTIVITY vtktypeint64
0 1 2 3 4 5 6 7 8 
9 10 11 12 13 14 15 16 17 
18 19 20 21 22 23 24 25 26 
27 28 29 30 31 32 33 34 35 
36 37 38 39 40 41 42 43 44 
45 46 47 48 49 50 51 52 53 
54 55 56 57 58 59 60 61 62 
63 64 65 66 67 68 69 70 71 
72 73 74 75 76 77 78 79 80 
81 82 83 84 85 86 87 88 89 
90 91 92 93 94 95 96 97 98 
99 
POINT_DATA 100
FIELD FieldData 3
_theta 1 100 double
0 0.031733259127 0.063466518254 0.095199777382 0.12693303651 0.15866629564 0.19039955476 0.22213281389 0.25386607302 
0.28559933214 0.31733259127 0.3490658504 0.38079910953 0.41253236865 0.44426562778 0.47599888691 0.50773214603 0.53946540516 
0.57119866429 0.60293192342 0.63466518254 0.66639844167 0.6981317008 0.72986495992 0.76159821905 0.79333147818 0.82506473731 
0.85679799643 0.88853125556 0.92026451469 0.95199777382 0.98373103294 1.0154642921 1.0471975512 1.0789308103 1.1106640695 
1.1423973286 1.1741305877 1.2058638468 1.237597106 1.2693303651 1.3010636242 1.3327968833 1.3645301425 1.3962634016 
1.4279966607 1.4597299198 1.491463179 1.5231964381 1.5549296972 1.5866629564 1.6183962155 1.6501294746 1.6818627337 
1.7135959929 1.745329252 1.7770625111 1.8087957702 1.8405290294 1.8722622885 1.9039955476 1.9357288068 1.9674620659 
1.999195325 2.0309285841 2.0626618433 2.0943951024 2.1261283615 2.1578616206 2.1895948798 2.2213281389 2.253061398 
2.2847946572 2.3165279163 2.3482611754 2.3799944345 2.4117276937 2.4434609528 2.4751942119 2.506927471 2.5386607302 
2.5703939893 2.6021272484 2.6338605076 2.6655937667 2.6973270258 2.7290602849 2.7607935441 2.7925268032 2.8242600623 
2.8559933214 2.8877265806 2.9194598397 2.9511930988 2.982926358 3.0146596171 3.0463928762 3.0781261353 3.1098593945 
3.1415926536 
_radius 1 100 double
1.2234560841e-15 0.012782029657 0.025526641842 0.038190627385 0.05072543581 0.063076557963 0.075184770859 0.086989158694 0.098431370089 
0.10946023728 0.12003578694 0.13013185265 0.13973688851 0.1488530359 0.15749384543 0.16568119984 0.17344192093 0.18080436737 
0.18779515745 0.19443606255 0.20074114212 0.20671431983 0.212347787 0.2176217682 0.22250616138 0.22696426733 0.23095826693 
0.23445546084 0.23743383142 0.23988546197 0.24181682825 0.24324580561 0.2441961059 0.24469047782 0.24474422719 0.24436045239 
0.24352794454 0.24222210813 0.2404086756 0.23804957202 0.23511011831 0.23156680919 0.22741503784 0.22267621964 0.217403709 
0.21168672175 0.20565127437 0.19945708139 0.19328957153 0.18734682241 0.18182230874 0.17688572469 0.17266527465 0.16923508603 
0.16661041711 0.16475131276 0.16357302642 0.16295987646 0.16277903263 0.16289204608 0.16316388604 0.16347064547 0.16370714412 
0.16379447188 0.16368602112 0.16336996297 0.16286698461 0.16222382601 0.16150442357 0.16078042269 0.16012192747 0.15958879278 
0.15922295113 0.15904263213 0.15903930774 0.15917774761 0.15939893255 0.15962496461 0.15976470319 0.15971880983 0.15938327249 
0.15865118955 0.15741334078 0.1555585463 0.15297488019 0.14955253522 0.14518866606 0.13979396334 0.13330013012 0.12566700703 
0.1168879722 0.10699247676 0.096045104009 0.084141229097 0.07140005113 0.057956315445 0.043952298735 0.029531491232 0.014834882101 
7.106294831e-16 
_area 1 100 double
0 0.00043031363015 0.0017048073532 0.0037765274769 0.0065745208658 0.010012776948 0.013999540328 0.018445160936 0.023267248117 
0.028392712237 0.033757220157 0.039303364728 0.044979041574 0.050737037761 0.056535984011 0.062342037175 0.068130289354 0.073885162135 
0.079599848738 0.085275625964 0.090921768533 0.096555616036 0.10220084589 0.10788154779 0.11361136092 0.11938054262 0.12514669745 
0.13083335054 0.13633558557 0.14152912565 0.14628028502 0.15045586794 0.15393261939 0.15660606257 0.15839849168 0.15926490638 
0.15919377048 0.15819726075 0.15629124107 0.15348377456 0.14978721154 0.14523665798 0.13990044129 0.13388324185 0.12732442133 
0.12039310989 0.1132814361 0.10619600635 0.099345679366 0.092923749766 0.087085957825 0.081930983429 0.077496362473 0.073789703175 
0.070860022543 0.068677842188 0.066993817504 0.065614539916 0.064420391013 0.06332197087 0.062242523385 0.061114261314 0.05988479328 
0.058531250442 0.057073724248 0.055575301129 0.054124079603 0.052805807376 0.051675659734 0.050751298676 0.050023426426 0.049488803564 
0.049149176411 0.049008972082 0.049072431585 0.049334610915 0.04977586776 0.050391034446 0.051154796176 0.052228976302 0.053449273341 
0.054476211581 0.055158572244 0.055363572562 0.054957834911 0.053810597058 0.051807914677 0.048875905013 0.045007803797 0.040286079081 
0.0348901284 0.029083758016 0.023183544844 0.017515912826 0.012374285157 0.0079870962701 0.0045037050923 0.0019999215427 0.00049914035645 
8.8070887666e-19 
