# vtk DataFile Version 5.1
vtk output
ASCII
DATASET POLYDATA
POINTS 100 float
0.111364 0.0471965 0.646845 0.111502 0.0472314 0.646794 0.111959 0.0472044 0.646461 
0.112671 0.0471409 0.645814 0.113544 0.0470771 0.644801 0.114456 0.0470536 0.643359 
0.115279 0.0471074 0.641417 0.115885 0.047264 0.638903 0.116162 0.0475316 0.635751 
0.116026 0.0478968 0.631903 0.115428 0.0483243 0.627318 0.114351 0.0487604 0.621969 
0.112817 0.0491385 0.615848 0.110876 0.0493882 0.608963 0.108596 0.0494448 0.601336 
0.106055 0.0492591 0.593001 0.103327 0.048805 0.583998 0.100469 0.0480845 0.574373 
0.0975179 0.0471293 0.564172 0.0944773 0.0459979 0.553441 0.091322 0.0447689 0.542223 
0.087998 0.0435319 0.53056 0.0844296 0.042376 0.518491 0.0805287 0.0413784 0.506057 
0.0762063 0.0405942 0.493298 0.0713838 0.0400498 0.480257 0.0660035 0.0397389 0.466979 
0.0600367 0.0396242 0.453512 0.0534881 0.0396431 0.439905 0.0463964 0.0397167 0.426205 
0.0388313 0.0397619 0.412457 0.0308866 0.0397045 0.398699 0.0226705 0.0394909 0.384957 
0.0142949 0.0390978 0.371246 0.00586476 0.0385377 0.357566 -0.00253199 0.0378604 0.3439 
-0.010831 0.0371483 0.330217 -0.0189952 0.0365083 0.316472 -0.0270148 0.0360595 0.302606 
-0.034903 0.0359192 0.288554 -0.0426886 0.0361885 0.274247 -0.0504066 0.0369396 0.259612 
-0.0580872 0.0382065 0.244583 -0.0657454 0.0399798 0.229096 -0.0733718 0.042207 0.213099 
-0.0809263 0.0447977 0.196545 -0.0883358 0.047633 0.179401 -0.0954949 0.0505786 0.161641 
-0.102272 0.0534988 0.143251 -0.108516 0.0562702 0.124223 -0.11407 0.0587944 0.10456 
-0.118782 0.0610057 0.0842713 -0.122519 0.0628758 0.063376 -0.125176 0.0644128 0.041901 
-0.126686 0.065656 0.0198831 -0.127025 0.0666673 -0.00263037 -0.126214 0.0675202 -0.0255812 
-0.124316 0.0682874 -0.0489001 -0.12143 0.0690305 -0.072507 -0.117679 0.0697903 -0.0963129 
-0.113206 0.0705822 -0.120222 -0.108154 0.0713937 -0.144133 -0.10266 0.0721869 -0.167947 
-0.096844 0.0729039 -0.191565 -0.0908021 0.0734747 -0.214897 -0.0846016 0.0738258 -0.237861 
-0.0782807 0.0738892 -0.260387 -0.0718515 0.0736091 -0.282418 -0.0653047 0.0729474 -0.303907 
-0.0586173 0.071885 -0.324821 -0.051761 0.0704214 -0.345132 -0.0447108 0.0685706 -0.364821 
-0.0374531 0.0663564 -0.383869 -0.0299917 0.0638065 -0.402258 -0.0223523 0.0609469 -0.419967 
-0.0145838 0.0577983 -0.436973 -0.00675754 0.0543745 -0.45325 0.00103648 0.0506829 -0.468769 
0.00869457 0.0467281 -0.483503 0.0161063 0.0425169 -0.497426 0.0231616 0.0380645 -0.510522 
0.0297585 0.0334004 -0.52278 0.0358092 0.0285727 -0.534204 0.0412454 0.023651 -0.544807 
0.0460222 0.0187249 -0.554617 0.0501193 0.0139002 -0.563669 0.0535411 0.00929212 -0.572005 
0.0563148 0.00501542 -0.579672 0.0584873 0.00117407 -0.586714 0.0601205 -0.00214921 -0.593167 
0.0612872 -0.00490173 -0.599061 0.0620655 -0.00706668 -0.604411 0.0625351 -0.00866523 -0.609218 
0.0627725 -0.00975418 -0.613472 0.0628481 -0.0104195 -0.617149 0.0628237 -0.0107662 -0.62022 
0.0627511 -0.0109059 -0.622651 0.0626707 -0.0109434 -0.624408 0.0626112 -0.0109638 -0.625466 
0.0625896 -0.0110223 -0.625805 
LINES 2 100
OFFSETS vtktypeint64
0 100 
CONNECTIVITY vtktypeint64
0 1 2 3 4 5 6 7 8 
9 10 11 12 13 14 15 16 17 
18 19 20 21 22 23 24 25 26 
27 28 29 30 31 32 33 34 35 
36 37 38 39 40 41 42 43 44 
45 46 47 48 49 50 51 52 53 
54 55 56 57 58 59 60 61 62 
63 64 65 66 67 68 69 70 71 
72 73 74 75 76 77 78 79 80 
81 82 83 84 85 86 87 88 89 
90 91 92 93 94 95 96 97 98 
99 
POINT_DATA 100
FIELD FieldData 3
_theta 1 100 double
0 0.031733259127 0.063466518254 0.095199777382 0.12693303651 0.15866629564 0.19039955476 0.22213281389 0.25386607302 
0.28559933214 0.31733259127 0.3490658504 0.38079910953 0.41253236865 0.44426562778 0.47599888691 0.50773214603 0.53946540516 
0.57119866429 0.60293192342 0.63466518254 0.66639844167 0.6981317008 0.72986495992 0.76159821905 0.79333147818 0.82506473731 
0.85679799643 0.88853125556 0.92026451469 0.95199777382 0.98373103294 1.0154642921 1.0471975512 1.0789308103 1.1106640695 
1.1423973286 1.1741305877 1.2058638468 1.237597106 1.2693303651 1.3010636242 1.3327968833 1.3645301425 1.3962634016 
1.4279966607 1.4597299198 1.491463179 1.5231964381 1.5549296972 1.5866629564 1.6183962155 1.6501294746 1.6818627337 
1.7135959929 1.745329252 1.7770625111 1.8087957702 1.8405290294 1.8722622885 1.9039955476 1.9357288068 1.9674620659 
1.999195325 2.0309285841 2.0626618433 2.0943951024 2.1261283615 2.1578616206 2.1895948798 2.2213281389 2.253061398 
2.2847946572 2.3165279163 2.3482611754 2.3799944345 2.4117276937 2.4434609528 2.4751942119 2.506927471 2.5386607302 
2.5703939893 2.6021272484 2.6338605076 2.6655937667 2.6973270258 2.7290602849 2.7607935441 2.7925268032 2.8242600623 
2.8559933214 2.8877265806 2.9194598397 2.9511930988 2.982926358 3.0146596171 3.0463928762 3.0781261353 3.1098593945 
3.1415926536 
_radius 1 100 double
1.6659126777e-15 0.013503047944 0.026933540507 0.040217696172 0.053289501668 0.066091535815 0.078573330686 0.09068832184 0.10239101958 
0.11363584521 0.12437819562 0.13457719514 0.14419883411 0.15321811955 0.16161944085 0.16939524606 0.17654388169 0.18306773339 
0.18897254795 0.19426821589 0.19897066593 0.20310412233 0.20670290338 0.20981215741 0.21248732704 0.21479255259 0.21679849902 
0.21858006902 0.22021410914 0.22177668249 0.22333909368 0.22496193201 0.22668706433 0.22852855837 0.23046449871 0.23243206761 
0.23432780732 0.23601377529 0.23732887461 0.23810363172 0.23817644305 0.23740964898 0.23570423098 0.2330121181 0.22934505594 
0.22477897592 0.21945297218 0.21356234757 0.20734567559 0.20106644516 0.19499066571 0.18936278929 0.1843832141 0.18019101534 
0.17685496145 0.17437422015 0.17268791063 0.17169071864 0.17125091573 0.1712274204 0.17148359873 0.17189688305 0.17236464821 
0.17280764035 0.17317205832 0.17343027845 0.17357931737 0.17363645233 0.1736326645 0.17360557303 0.17359337106 0.17362987438 
0.17373923029 0.17392895805 0.17418211488 0.17445118528 0.17465598317 0.17468632007 0.17440892006 0.17367742084 0.17234403083 
0.17027132819 0.16734277409 0.16347078537 0.1586016383 0.1527169716 0.14583212638 0.13799192409 0.12926469805 0.11973545233 
0.10949895304 0.098653408664 0.087295216301 0.07551506981 0.063395553816 0.051010178627 0.038423649968 0.025693039765 0.01286947287 
2.3827220209e-16 
_area 1 100 double
0 0.00049366341007 0.0019654884779 0.0043887225115 0.0077208763363 0.011905694475 0.01687412293 0.022543730696 0.028817158612 
0.035581172613 0.042708060252 0.050060244483 0.057497625559 0.064886112533 0.072105600408 0.079056257236 0.085662893093 0.09187772469 
0.097681640107 0.10308329451 0.10811469014 0.11282189665 0.11725035191 0.12142608683 0.1253383706 0.12893424877 0.132134247 
0.1348674423 0.13711188023 0.13892326987 0.14044196999 0.14188018634 0.14349592103 0.14554688573 0.14821024625 0.15149311946 
0.1551992028 0.15897478535 0.16239243717 0.16502692937 0.16650616547 0.16654001291 0.16494085666 0.16164773331 0.15674731401 
0.15047473375 0.14318621703 0.13530876646 0.12728106281 0.11949917907 0.11227496374 0.10581316315 0.10021097501 0.095475590266 
0.091551104148 0.088348928691 0.085771447511 0.083709377429 0.082019235913 0.080531272454 0.079090459454 0.077587517859 0.075972761293 
0.0742592908 0.072514925548 0.070842126504 0.069342892985 0.068077208485 0.067062268887 0.066307399273 0.065841929751 0.065719006324 
0.065994240047 0.066694905713 0.067800063287 0.06923501827 0.070869788841 0.072519773276 0.073958445997 0.074944930175 0.075255974587 
0.074712258017 0.073195764277 0.070658326825 0.067122268124 0.06267445685 0.057455408906 0.051645157688 0.045447549973 0.039074520665 
0.032731847853 0.026607823415 0.020865997276 0.015642494262 0.011047398714 0.0071686711683 0.0040764882057 0.0018261509144 0.00045874173773 
4.4587289044e-18 
