# vtk DataFile Version 5.1
vtk output
ASCII
DATASET POLYDATA
POINTS 100 float
0.127303 0.0397443 0.63872 0.12732 0.0398626 0.638626 0.127437 0.0400714 0.638203 
0.127619 0.0403815 0.637428 0.127806 0.0408088 0.636265 0.127926 0.0413701 0.634665 
0.127902 0.0420784 0.632569 0.127657 0.0429376 0.629911 0.127123 0.0439387 0.626621 
0.126246 0.0450569 0.622632 0.124993 0.04625 0.617883 0.123347 0.0474602 0.612326 
0.121308 0.0486171 0.605931 0.11889 0.0496426 0.59869 0.116111 0.0504575 0.590619 
0.112992 0.050989 0.58176 0.109549 0.0511772 0.572183 0.105788 0.0509813 0.561974 
0.101704 0.0503841 0.551239 0.0972791 0.0493945 0.540088 0.0924888 0.0480469 0.528634 
0.0873039 0.046399 0.516978 0.0816978 0.0445273 0.505203 0.0756528 0.0425208 0.493369 
0.0691663 0.0404738 0.481504 0.062255 0.0384788 0.469609 0.054957 0.0366202 0.457652 
0.0473311 0.0349687 0.44558 0.0394526 0.0335778 0.433321 0.0314078 0.0324823 0.420792 
0.0232853 0.0316989 0.407912 0.0151676 0.031228 0.394607 0.00712261 0.0310575 0.38082 
-0.000803035 0.031167 0.366512 -0.00858794 0.0315319 0.351669 -0.0162367 0.0321281 0.336294 
-0.0237768 0.0329343 0.32041 -0.0312526 0.0339344 0.304048 -0.0387154 0.0351181 0.287244 
-0.0462132 0.0364798 0.270029 -0.0537788 0.0380174 0.252423 -0.0614192 0.0397297 0.23443 
-0.0691079 0.0416139 0.216036 -0.0767795 0.0436631 0.197212 -0.0843297 0.0458649 0.177918 
-0.0916184 0.0482002 0.158107 -0.0984784 0.0506436 0.137735 -0.104726 0.0531642 0.116774 
-0.110175 0.0557275 0.0952145 -0.114652 0.0582979 0.0730762 -0.118008 0.0608409 0.0504105 
-0.120133 0.0633253 0.0273011 -0.120963 0.0657251 0.00386108 -0.120484 0.0680199 -0.0197742 
-0.118734 0.0701952 -0.0434563 -0.115798 0.0722413 -0.0670345 -0.111799 0.0741516 -0.0903678 
-0.106888 0.07592 -0.113335 -0.101233 0.0775395 -0.135844 -0.0950031 0.0789987 -0.157835 
-0.0883608 0.0802814 -0.179286 -0.0814492 0.0813645 -0.200203 -0.0743862 0.0822185 -0.220625 
-0.0672603 0.0828083 -0.240605 -0.06013 0.0830943 -0.260204 -0.0530257 0.0830353 -0.279484 
-0.0459541 0.0825904 -0.29849 -0.0389044 0.0817224 -0.317251 -0.0318548 0.0804 -0.335767 
-0.024779 0.0786001 -0.354016 -0.0176527 0.0763096 -0.371948 -0.0104577 0.0735262 -0.389496 
-0.00318579 0.0702592 -0.40658 0.00415931 0.0665293 -0.423116 0.0115614 0.0623677 -0.439027 
0.0189923 0.057816 -0.454247 0.0264124 0.0529246 -0.46873 0.0337729 0.0477521 -0.482449 
0.0410173 0.0423637 -0.495403 0.048083 0.0368305 -0.507606 0.0549035 0.0312279 -0.519091 
0.0614105 0.0256342 -0.5299 0.0675354 0.0201289 -0.540076 0.0732126 0.0147903 -0.549659 
0.0783815 0.00969359 -0.558684 0.0829904 0.00490741 -0.56717 0.0869991 0.000491536 -0.575125 
0.0903828 -0.00350611 -0.582546 0.0931348 -0.00705185 -0.589418 0.0952686 -0.010128 -0.595723 
0.0968189 -0.0127339 -0.601438 0.0978414 -0.0148852 -0.606546 0.0984103 -0.0166132 -0.611033 
0.0986146 -0.0179612 -0.614894 0.0985524 -0.0189816 -0.618129 0.0983246 -0.0197306 -0.62075 
0.0980276 -0.0202637 -0.622768 0.0977454 -0.0206303 -0.6242 0.0975439 -0.0208694 -0.625058 
0.0974648 -0.0210057 -0.625351 
LINES 2 100
OFFSETS vtktypeint64
0 100 
CONNECTIVITY vtktypeint64
0 1 2 3 4 5 6 7 8 
9 10 11 12 13 14 15 16 17 
18 19 20 21 22 23 24 25 26 
27 28 29 30 31 32 33 34 35 
36 37 38 39 40 41 42 43 44 
45 46 47 48 49 50 51 52 53 
54 55 56 57 58 59 60 61 62 
63 64 65 66 67 68 69 70 71 
72 73 74 75 76 77 78 79 80 
81 82 83 84 85 86 87 88 89 
90 91 92 93 94 95 96 97 98 
99 
POINT_DATA 100
FIELD FieldData 3
_theta 1 100 double
0 0.031733259127 0.063466518254 0.095199777382 0.12693303651 0.15866629564 0.19039955476 0.22213281389 0.25386607302 
0.28559933214 0.31733259127 0.3490658504 0.38079910953 0.41253236865 0.44426562778 0.47599888691 0.50773214603 0.53946540516 
0.57119866429 0.60293192342 0.63466518254 0.66639844167 0.6981317008 0.72986495992 0.76159821905 0.79333147818 0.82506473731 
0.85679799643 0.88853125556 0.92026451469 0.95199777382 0.98373103294 1.0154642921 1.0471975512 1.0789308103 1.1106640695 
1.1423973286 1.1741305877 1.2058638468 1.237597106 1.2693303651 1.3010636242 1.3327968833 1.3645301425 1.3962634016 
1.4279966607 1.4597299198 1.491463179 1.5231964381 1.5549296972 1.5866629564 1.6183962155 1.6501294746 1.6818627337 
1.7135959929 1.745329252 1.7770625111 1.8087957702 1.8405290294 1.8722622885 1.9039955476 1.9357288068 1.9674620659 
1.999195325 2.0309285841 2.0626618433 2.0943951024 2.1261283615 2.1578616206 2.1895948798 2.2213281389 2.253061398 
2.2847946572 2.3165279163 2.3482611754 2.3799944345 2.4117276937 2.4434609528 2.4751942119 2.506927471 2.5386607302 
2.5703939893 2.6021272484 2.6338605076 2.6655937667 2.6973270258 2.7290602849 2.7607935441 2.7925268032 2.8242600623 
2.8559933214 2.8877265806 2.9194598397 2.9511930988 2.982926358 3.0146596171 3.0463928762 3.0781261353 3.1098593945 
3.1415926536 
_radius 1 100 double
5.891525475e-16 0.013470514974 0.02690193387 0.04024719729 0.053454613692 0.066466625195 0.079219590532 0.091644801289 0.10367078989 
0.11522679724 0.12624709031 0.13667568301 0.14647091468 0.15560927029 0.16408779946 0.17192455809 0.17915671101 0.1858362947 
0.19202407393 0.19778232302 0.20316762457 0.20822483446 0.21298317357 0.21745499749 0.22163726072 0.22551517424 0.22906716123 
0.23226999739 0.23510301564 0.23755051164 0.2396020012 0.24125060067 0.24249028911 0.24331299841 0.2437063707 0.2436527555 
0.2431297372 0.24211226703 0.24057632606 0.23850392604 0.23588911595 0.23274447333 0.22910732587 0.22504471176 0.22065592388 
0.21607150135 0.21144784855 0.20695735341 0.20277489336 0.19906269883 0.19595624494 0.19355372877 0.19191063886 0.19103927914 
0.19091157255 0.19146279773 0.19259456545 0.19417711735 0.19605293621 0.1980443405 0.19996647352 0.20164457203 0.2029322473 
0.2037269472 0.20397972514 0.20369797691 0.20294110354 0.2018100024 0.20043207686 0.19894401641 0.19747468732 0.19613006735 
0.19498151236 0.1940580473 0.19334296496 0.19277473378 0.19225192744 0.19164153213 0.19078963453 0.18953327177 0.18771221275 
0.18517962061 0.18181082784 0.17750973856 0.17221260737 0.16588914684 0.15854112573 0.15019883828 0.14091601563 0.13076386724 
0.11982496494 0.10818762062 0.095941276026 0.08317323403 0.069966831937 0.056400921688 0.042550327467 0.028486849702 0.014280402836 
1.607135316e-15 
_area 1 100 double
0 0.0004927618193 0.0019584565433 0.0043608023012 0.0076437768736 0.011736766789 0.016559545791 0.022026074704 0.028046495145 
0.034526897537 0.041366867816 0.04845598455 0.055671990749 0.062883850407 0.069961291348 0.076789535722 0.083285525542 0.08941104519 
0.095178477561 0.10064611244 0.10590246597 0.11104357818 0.1161515781 0.12128213989 0.12646202619 0.13169154386 0.13694526093 
0.14216785779 0.14726845945 0.15212158 0.15658020768 0.16049787669 0.16375026726 0.16624766583 0.1679350373 0.16878243145 
0.16877227483 0.1678904381 0.16612512634 0.16347356603 0.15995336722 0.15561434392 0.1505471506 0.14488645321 0.1388077525 
0.13251806317 0.12624151015 0.1202018103 0.11460439267 0.10962065608 0.10537511447 0.10193513065 0.099305772219 0.097435462043 
0.09623261653 0.095584290009 0.095369098356 0.095464276995 0.095748853183 0.096103462699 0.096411418659 0.09656609189 0.096479589774 
0.096089074455 0.095356382347 0.094263270334 0.092821220562 0.091080251079 0.089123680896 0.087058679183 0.085004541864 0.083080855892 
0.081397806683 0.080047840439 0.079116948657 0.078676509127 0.078694653498 0.079052112654 0.079357097253 0.079425240617 0.07911251649 
0.07827564624 0.076770925592 0.07446954771 0.071281336986 0.06717720739 0.062202204364 0.056475201086 0.050175949246 0.043523640749 
0.036752744908 0.030091628186 0.02374771181 0.017900349851 0.012700116777 0.0082716400115 0.0047169339791 0.0021171882745 0.00053246202484 
2.5172081861e-17 
