# vtk DataFile Version 5.1
vtk output
ASCII
DATASET POLYDATA
POINTS 100 float
0.103643 0.0529612 0.70068 0.103632 0.0531059 0.700664 0.103691 0.0533992 0.700489 
0.103783 0.0538342 0.700111 0.103854 0.0543995 0.699457 0.103838 0.0550796 0.698433 
0.103662 0.0558552 0.69693 0.103259 0.0567037 0.694832 0.102572 0.0575991 0.692021 
0.101565 0.0585126 0.688391 0.100221 0.0594124 0.68385 0.0985472 0.060264 0.678329 
0.09657 0.0610304 0.671785 0.0943323 0.0616726 0.664205 0.0918853 0.06215 0.655606 
0.0892807 0.0624223 0.646035 0.0865624 0.0624509 0.635562 0.0837593 0.0622012 0.624281 
0.0808799 0.0616454 0.612297 0.0779098 0.0607649 0.599724 0.0748119 0.059554 0.586675 
0.0715292 0.0580212 0.573258 0.0679915 0.0561918 0.559567 0.0641221 0.0541078 0.545681 
0.0598469 0.0518276 0.531659 0.0551029 0.0494244 0.517536 0.0498451 0.046982 0.503328 
0.0440523 0.0445912 0.48903 0.0377294 0.0423438 0.474621 0.0309075 0.0403275 0.460063 
0.0236412 0.0386197 0.445309 0.0160031 0.0372829 0.430301 0.00807764 0.0363605 0.41498 
-4.65118e-05 0.0358751 0.399281 -0.00828318 0.0358272 0.383141 -0.0165544 0.0361973 0.366498 
-0.0247938 0.0369483 0.349292 -0.0329486 0.0380302 0.331464 -0.0409775 0.0393853 0.312963 
-0.0488479 0.0409542 0.293744 -0.0565309 0.042681 0.273769 -0.063995 0.0445176 0.253012 
-0.0712008 0.0464278 0.231459 -0.0780959 0.0483883 0.209115 -0.0846125 0.0503887 0.186003 
-0.0906662 0.05243 0.16217 -0.0961591 0.0545212 0.137682 -0.100984 0.0566754 0.112631 
-0.105031 0.0589049 0.0871274 -0.108196 0.0612168 0.0613001 -0.110393 0.0636092 0.0352885 
-0.111555 0.0660687 0.00923735 -0.11165 0.0685688 -0.0167113 -0.110676 0.0710703 -0.0424256 
-0.108671 0.0735231 -0.0677909 -0.105706 0.0758693 -0.0927162 -0.101883 0.0780466 -0.117138 
-0.0973239 0.0799932 -0.141024 -0.0921659 0.0816514 -0.164367 -0.0865479 0.0829717 -0.187191 
-0.080601 0.083915 -0.209537 -0.0744404 0.0844544 -0.231462 -0.0681576 0.0845754 -0.253028 
-0.061817 0.0842751 -0.274293 -0.0554547 0.0835602 -0.295308 -0.0490808 0.0824445 -0.316105 
-0.0426845 0.0809462 -0.336697 -0.036241 0.0790853 -0.357073 -0.0297204 0.0768813 -0.377202 
-0.0230957 0.0743518 -0.397032 -0.0163515 0.0715121 -0.416497 -0.00949022 0.0683749 -0.435524 
-0.00253603 0.0649518 -0.454038 0.00446345 0.0612545 -0.471965 0.0114386 0.0572965 -0.489245 
0.0183019 0.053095 -0.50583 0.0249537 0.0486721 -0.521687 0.0312906 0.0440555 -0.536798 
0.0372126 0.0392791 -0.551161 0.042632 0.0343821 -0.564781 0.0474799 0.029408 -0.577673 
0.0517114 0.0244032 -0.589851 0.0553085 0.0194147 -0.601329 0.0582809 0.0144891 -0.612114 
0.0606636 0.00967014 -0.62221 0.0625132 0.0049979 -0.631609 0.0639025 0.000508005 -0.640303 
0.0649131 -0.00376861 -0.648277 0.0656294 -0.00780548 -0.655518 0.0661315 -0.0115799 -0.662017 
0.0664898 -0.0150723 -0.667771 0.0667614 -0.0182649 -0.672789 0.0669875 -0.0211417 -0.677088 
0.0671935 -0.0236873 -0.680697 0.0673903 -0.025887 -0.683652 0.0675768 -0.0277273 -0.685994 
0.0677442 -0.0291956 -0.687766 0.0678799 -0.0302813 -0.689007 0.0679716 -0.0309764 -0.689747 
0.0680102 -0.0312757 -0.690005 
LINES 2 100
OFFSETS vtktypeint64
0 100 
CONNECTIVITY vtktypeint64
0 1 2 3 4 5 6 7 8 
9 10 11 12 13 14 15 16 17 
18 19 20 21 22 23 24 25 26 
27 28 29 30 31 32 33 34 35 
36 37 38 39 40 41 42 43 44 
45 46 47 48 49 50 51 52 53 
54 55 56 57 58 59 60 61 62 
63 64 65 66 67 68 69 70 71 
72 73 74 75 76 77 78 79 80 
81 82 83 84 85 86 87 88 89 
90 91 92 93 94 95 96 97 98 
99 
POINT_DATA 100
FIELD FieldData 3
_theta 1 100 double
0 0.031733259127 0.063466518254 0.095199777382 0.12693303651 0.15866629564 0.19039955476 0.22213281389 0.25386607302 
0.28559933214 0.31733259127 0.3490658504 0.38079910953 0.41253236865 0.44426562778 0.47599888691 0.50773214603 0.53946540516 
0.57119866429 0.60293192342 0.63466518254 0.66639844167 0.6981317008 0.72986495992 0.76159821905 0.79333147818 0.82506473731 
0.85679799643 0.88853125556 0.92026451469 0.95199777382 0.98373103294 1.0154642921 1.0471975512 1.0789308103 1.1106640695 
1.1423973286 1.1741305877 1.2058638468 1.237597106 1.2693303651 1.3010636242 1.3327968833 1.3645301425 1.3962634016 
1.4279966607 1.4597299198 1.491463179 1.5231964381 1.5549296972 1.5866629564 1.6183962155 1.6501294746 1.6818627337 
1.7135959929 1.745329252 1.7770625111 1.8087957702 1.8405290294 1.8722622885 1.9039955476 1.9357288068 1.9674620659 
1.999195325 2.0309285841 2.0626618433 2.0943951024 2.1261283615 2.1578616206 2.1895948798 2.2213281389 2.253061398 
2.2847946572 2.3165279163 2.3482611754 2.3799944345 2.4117276937 2.4434609528 2.4751942119 2.506927471 2.5386607302 
2.5703939893 2.6021272484 2.6338605076 2.6655937667 2.6973270258 2.7290602849 2.7607935441 2.7925268032 2.8242600623 
2.8559933214 2.8877265806 2.9194598397 2.9511930988 2.982926358 3.0146596171 3.0463928762 3.0781261353 3.1098593945 
3.1415926536 
_radius 1 100 double
2.3397555143e-16 0.015455513023 0.030770764526 0.045810260344 0.060452935715 0.074597012363 0.088162356879 0.10109022435 0.11334072172 
0.12488874906 0.13571950391 0.14582473985 0.15520072963 0.16384829418 0.17177451986 0.17899519996 0.18553683245 0.19143723307 
0.1967443751 0.20151372995 0.20580487202 0.20967818735 0.21319217515 0.21640131397 0.21935410666 0.22209088466 0.22464120905 
0.22702109152 0.22923056514 0.23125222618 0.23305125441 0.23457720167 0.23576758908 0.23655309242 0.23686385231 0.23663628148 
0.23581971231 0.23438233732 0.23231608458 0.22964024502 0.22640375214 0.22268598204 0.21859583023 0.21426870862 0.2098610767 
0.20554225116 0.20148357919 0.19784562303 0.19476471271 0.19234089149 0.19062958469 0.18963889767 0.18933311134 0.18964102419 
0.19046621835 0.19169614891 0.1932084677 0.19487526445 0.19656736087 0.19816051862 0.19954390714 0.20062960859 0.20136108719 
0.20171850988 0.20171937629 0.20141388607 0.20087561139 0.20018908525 0.19943659904 0.19868664806 0.19798601287 0.19735647943 
0.1967958793 0.19628184313 0.19577590315 0.19522577496 0.19456487193 0.19370989195 0.19255876192 0.19099147667 0.18887527638 
0.1860738862 0.18245915832 0.17792290628 0.1723869001 0.16580955784 0.15818854721 0.14955916737 0.13998896449 0.12956952253 
0.11840672697 0.10661098009 0.094288800865 0.081536937773 0.068439571579 0.055068485942 0.041485424828 0.027745458632 0.013900187493 
6.1953517518e-16 
_area 1 100 double
0 0.00056612332262 0.0022459296598 0.0049864043313 0.0087075515949 0.013312966441 0.018700621356 0.024769983119 0.031421751404 
0.038549310405 0.046026107622 0.053696816872 0.061378801047 0.068875588562 0.075999700736 0.082599834073 0.088586529092 0.093950116221 
0.098764712391 0.10317363787 0.10735735457 0.11149433377 0.11572951826 0.12015730211 0.1248153557 0.12968400112 0.13469056936 
0.13972020849 0.14463139602 0.14927168963 0.15349083304 0.15715087756 0.1601334708 0.16234391077 0.16371166586 0.16418811072 
0.16374345918 0.1623653 0.16006035902 0.15685963843 0.152825784 0.14806074298 0.14271124751 0.13696929373 0.13106508041 
0.12525137798 0.11978073289 0.11487905562 0.11071999786 0.10740476703 0.10495287011 0.10330802613 0.10235681223 0.10195191219 
0.10193278652 0.10214063129 0.10243130344 0.10269060474 0.10284204446 0.10283553896 0.10262514255 0.1021581437 0.10138426459 
0.10027266096 0.098828792102 0.097132208709 0.09527410745 0.093322048596 0.091359287235 0.089472367818 0.087753374067 0.086303352986 
0.085240766589 0.084664094505 0.084571010889 0.084971086124 0.085837247895 0.087034368757 0.088329495263 0.089431296116 0.090024395202 
0.089802912679 0.088507299014 0.085959976963 0.08209139346 0.076949815374 0.070693016762 0.06356482143 0.05586246322 0.047901527517 
0.03998441012 0.032376664981 0.025293891312 0.01889986634 0.013314125319 0.0086245430026 0.0048992384634 0.0021935282313 0.00055090183102 
2.7755575616e-17 
