# vtk DataFile Version 5.1
vtk output
ASCII
DATASET POLYDATA
POINTS 100 float
0.106277 0.032377 0.667223 0.106296 0.0326062 0.666809 0.106395 0.0331349 0.665452 
0.106544 0.0339257 0.663176 0.106693 0.0349215 0.66002 0.106786 0.036052 0.656034 
0.106759 0.0372411 0.651274 0.106552 0.0384152 0.6458 0.106114 0.0395103 0.639673 
0.105406 0.0404771 0.632947 0.104405 0.0412844 0.62567 0.103102 0.0419194 0.617882 
0.1015 0.0423856 0.609617 0.0996106 0.0426986 0.600899 0.0974464 0.0428804 0.591748 
0.0950164 0.0429532 0.58218 0.092322 0.0429348 0.57221 0.0893531 0.0428335 0.561855 
0.086088 0.0426476 0.551133 0.0824948 0.042365 0.540065 0.0785357 0.041967 0.528673 
0.0741726 0.0414327 0.516984 0.0693735 0.0407454 0.505021 0.064119 0.0398983 0.492807 
0.0584068 0.0389004 0.48036 0.052255 0.0377797 0.467694 0.0457022 0.036584 0.454817 
0.0388047 0.0353797 0.441727 0.0316308 0.0342468 0.428419 0.0242542 0.0332726 0.414879 
0.0167451 0.0325429 0.40109 0.00916238 0.0321344 0.387029 0.00154766 0.0321059 0.372672 
-0.00607883 0.0324927 0.357991 -0.0137183 0.0333034 0.342954 -0.02139 0.0345191 0.327531 
-0.0291239 0.0360966 0.311686 -0.0369512 0.037974 0.295381 -0.0448926 0.0400782 0.278576 
-0.0529467 0.0423338 0.261229 -0.0610801 0.0446712 0.243297 -0.06922 0.0470343 0.22474 
-0.0772517 0.0493852 0.205524 -0.0850206 0.0517061 0.185621 -0.0923396 0.0539984 0.165019 
-0.0990013 0.0562788 0.143722 -0.104793 0.0585728 0.121755 -0.109514 0.0609073 0.0991671 
-0.112996 0.063303 0.0760277 -0.115113 0.0657672 0.0524296 -0.115799 0.0682891 0.0284832 
-0.115052 0.0708379 0.00431165 -0.112935 0.0733626 -0.0199562 -0.109573 0.0757967 -0.0441929 
-0.105138 0.0780631 -0.0682807 -0.0998365 0.080082 -0.0921177 -0.093891 0.0817784 -0.115623 
-0.0875202 0.0830896 -0.138742 -0.0809213 0.0839699 -0.161444 -0.0742551 0.0843941 -0.183722 
-0.0676358 0.0843573 -0.205588 -0.0611255 0.0838727 -0.227068 -0.0547354 0.0829665 -0.248194 
-0.0484316 0.081672 -0.268997 -0.042146 0.0800227 -0.289498 -0.0357892 0.0780467 -0.30971 
-0.0292654 0.0757622 -0.329624 -0.0224869 0.0731762 -0.349221 -0.0153861 0.0702851 -0.368463 
-0.0079246 0.0670787 -0.387305 -9.79473e-05 0.0635459 -0.405695 0.00806339 0.0596818 -0.423584 
0.0164975 0.0554949 -0.440931 0.0251175 0.0510135 -0.457704 0.0338204 0.0462889 -0.473889 
0.0424965 0.041397 -0.489484 0.051039 0.0364354 -0.504501 0.0593516 0.0315173 -0.518959 
0.0673547 0.0267628 -0.532881 0.0749884 0.0222882 -0.546281 0.0822129 0.018195 -0.559166 
0.089007 0.0145595 -0.571521 0.0953645 0.0114251 -0.583315 0.10129 0.00879808 -0.594494 
0.106792 0.00664691 -0.604988 0.111885 0.00490685 -0.614715 0.116577 0.00348786 -0.623591 
0.120877 0.00228571 -0.631536 0.124788 0.00119475 -0.638491 0.128313 0.000120774 -0.644419 
0.131453 -0.0010077 -0.64932 0.134208 -0.00223114 -0.653229 0.136585 -0.00355482 -0.656218 
0.138591 -0.00494916 -0.658392 0.140241 -0.00635469 -0.65988 0.141551 -0.00769086 -0.660825 
0.14254 -0.00886758 -0.661369 0.143224 -0.00979788 -0.661643 0.143621 -0.01041 -0.661748 
0.143741 -0.0106576 -0.661753 
LINES 2 100
OFFSETS vtktypeint64
0 100 
CONNECTIVITY vtktypeint64
0 1 2 3 4 5 6 7 8 
9 10 11 12 13 14 15 16 17 
18 19 20 21 22 23 24 25 26 
27 28 29 30 31 32 33 34 35 
36 37 38 39 40 41 42 43 44 
45 46 47 48 49 50 51 52 53 
54 55 56 57 58 59 60 61 62 
63 64 65 66 67 68 69 70 71 
72 73 74 75 76 77 78 79 80 
81 82 83 84 85 86 87 88 89 
90 91 92 93 94 95 96 97 98 
99 
POINT_DATA 100
FIELD FieldData 3
_theta 1 100 double
0 0.031733259127 0.063466518254 0.095199777382 0.12693303651 0.15866629564 0.19039955476 0.22213281389 0.25386607302 
0.28559933214 0.31733259127 0.3490658504 0.38079910953 0.41253236865 0.44426562778 0.47599888691 0.50773214603 0.53946540516 
0.57119866429 0.60293192342 0.63466518254 0.66639844167 0.6981317008 0.72986495992 0.76159821905 0.79333147818 0.82506473731 
0.85679799643 0.88853125556 0.92026451469 0.95199777382 0.98373103294 1.0154642921 1.0471975512 1.0789308103 1.1106640695 
1.1423973286 1.1741305877 1.2058638468 1.237597106 1.2693303651 1.3010636242 1.3327968833 1.3645301425 1.3962634016 
1.4279966607 1.4597299198 1.491463179 1.5231964381 1.5549296972 1.5866629564 1.6183962155 1.6501294746 1.6818627337 
1.7135959929 1.745329252 1.7770625111 1.8087957702 1.8405290294 1.8722622885 1.9039955476 1.9357288068 1.9674620659 
1.999195325 2.0309285841 2.0626618433 2.0943951024 2.1261283615 2.1578616206 2.1895948798 2.2213281389 2.253061398 
2.2847946572 2.3165279163 2.3482611754 2.3799944345 2.4117276937 2.4434609528 2.4751942119 2.506927471 2.5386607302 
2.5703939893 2.6021272484 2.6338605076 2.6655937667 2.6973270258 2.7290602849 2.7607935441 2.7925268032 2.8242600623 
2.8559933214 2.8877265806 2.9194598397 2.9511930988 2.982926358 3.0146596171 3.0463928762 3.0781261353 3.1098593945 
3.1415926536 
_radius 1 100 double
5.6648749058e-16 0.014388741114 0.028579456996 0.04238672781 0.055658071035 0.068285589383 0.080212216322 0.091431843667 0.10198341195 
0.11193985186 0.12139346974 0.13043985764 0.13916258992 0.14762080687 0.15584131035 0.16381609328 0.17150541631 0.17884575809 
0.18576130986 0.19217723356 0.1980326906 0.20329168131 0.20795000412 0.21203713209 0.21561247698 0.21875629281 0.22155627441 
0.22409166383 0.226417321 0.22855058572 0.23046361175 0.23208304001 0.23329752729 0.23397215221 0.23396751204 0.23316065255 
0.23146484943 0.22884555325 0.22533037926 0.22101178689 0.21604202166 0.2106209308 0.20497827476 0.19935293493 0.19397180981 
0.18903119469 0.18468310695 0.1810282753 0.17811620515 0.17595099533 0.17450007825 0.1737026787 0.17347599763 0.17371937422 
0.17431847366 0.17515153722 0.17609808074 0.17704862424 0.17791317864 0.17862631857 0.17914751144 0.17945684116 0.17954786178 
0.17942023311 0.17907460938 0.17851120414 0.17773208788 0.17674610093 0.17557460562 0.17425623814 0.17284920446 0.17143023158 
0.17008980187 0.16892366231 0.1680208853 0.16744917532 0.16723886642 0.16736804873 0.16775200419 0.16824001301 0.16862140491 
0.16864085989 0.16802108386 0.16648962888 0.16380601457 0.15978540614 0.15431576196 0.1473663943 0.1389871229 0.12929849928 
0.11847480125 0.10672248298 0.09425734246 0.081283684434 0.067978166422 0.054479938603 0.0408874105 0.027260845513 0.013629270036 
8.6559956585e-16 
_area 1 100 double
0 0.00054000230204 0.0021286564017 0.0046769957813 0.0080526104031 0.012099861973 0.016661953228 0.021600526309 0.026809296827 
0.032219702512 0.037798241395 0.043536775548 0.049438394958 0.055502278111 0.06171109092 0.068023713971 0.074374717904 0.080680484129 
0.086850571395 0.092802016765 0.098473702222 0.10383763006 0.10890412453 0.11371904289 0.11835278752 0.12288252026 0.12737104191 
0.13184829563 0.13630053584 0.14066619862 0.14483315775 0.14863555857 0.15185569303 0.15423877706 0.15552362256 0.15548499248 
0.15397875713 0.15097940011 0.14659989103 0.14108656199 0.13478709054 0.1280974333 0.12140073803 0.11501383456 0.10915321042 
0.10392503265 0.09933595461 0.095316639083 0.091753202752 0.088527908896 0.085565316592 0.082865439276 0.080501217896 0.078571776226 
0.077133269002 0.076157439611 0.075544670137 0.075166984804 0.074908247542 0.074687901933 0.074464486508 0.074230483036 0.07398723487 
0.073697869682 0.073326056066 0.072830012876 0.072160205064 0.071273025193 0.070149620599 0.06881441445 0.067347858872 0.065887872256 
0.064616905302 0.063772973104 0.063532196615 0.063939695528 0.065000022159 0.066611167948 0.068578130637 0.070640898767 0.072499885368 
0.073837531636 0.074342711509 0.073741709978 0.07183336945 0.068521524546 0.063836564627 0.05793975299 0.051107855457 0.043700246839 
0.036114535261 0.028738914534 0.021909635087 0.015880459587 0.010808337805 0.0067564217384 0.0037124175382 0.0016174947706 0.00039903133715 
4.426553084e-17 
