# vtk DataFile Version 5.1
vtk output
ASCII
DATASET POLYDATA
POINTS 100 float
0.025903 0.0555824 0.649469 0.0257676 0.055716 0.649062 0.0253814 0.0559462 0.647747 
0.0247848 0.0562388 0.645568 0.0240395 0.0565437 0.642588 0.023222 0.0568036 0.63889 
0.0224143 0.0569633 0.634564 0.0216939 0.0569807 0.629696 0.0211256 0.0568341 0.624366 
0.0207529 0.0565286 0.618633 0.020594 0.0560975 0.612538 0.0206388 0.0555995 0.606099 
0.0208504 0.0551128 0.599311 0.0211693 0.0547246 0.592154 0.0215193 0.0545195 0.5846 
0.0218162 0.0545668 0.576615 0.0219763 0.0549099 0.568173 0.021925 0.0555569 0.559254 
0.0216032 0.0564769 0.549858 0.0209731 0.0575994 0.539997 0.0200197 0.0588195 0.5297 
0.0187509 0.060007 0.519006 0.017194 0.0610188 0.50796 0.0153908 0.0617134 0.496607 
0.0133908 0.0619648 0.484984 0.0112442 0.0616759 0.473117 0.00899474 0.0607885 0.461015 
0.00667387 0.0592891 0.44867 0.00429681 0.0572104 0.436057 0.00186036 0.0546284 0.423141 
-0.000656851 0.0516554 0.409878 -0.003292 0.0484298 0.396226 -0.00609393 0.0451046 0.382148 
-0.00911774 0.0418353 0.367619 -0.0124187 0.0387693 0.352633 -0.0160461 0.0360367 0.337197 
-0.0200375 0.0337446 0.321339 -0.0244146 0.0319735 0.305099 -0.0291792 0.0307778 0.288523 
-0.0343119 0.0301867 0.271662 -0.0397714 0.0302084 0.254556 -0.0454957 0.0308334 0.237237 
-0.0514037 0.0320384 0.219717 -0.0573987 0.0337882 0.201992 -0.0633717 0.0360377 0.184036 
-0.0692055 0.0387317 0.165808 -0.0747791 0.0418037 0.147259 -0.0799718 0.0451756 0.128334 
-0.0846682 0.0487567 0.108984 -0.0887618 0.0524444 0.08917 -0.0921599 0.0561271 0.0688721 
-0.0947868 0.0596886 0.0480914 -0.0965874 0.0630148 0.0268518 -0.0975296 0.0660017 0.00519877 
-0.0976058 0.068564 -0.0168045 -0.0968331 0.0706432 -0.0390825 -0.0952522 0.072214 -0.0615545 
-0.0929249 0.0732879 -0.0841408 -0.0899295 0.073913 -0.106769 -0.086356 0.0741699 -0.129377 
-0.0822994 0.0741635 -0.151918 -0.0778536 0.0740117 -0.174354 -0.0731044 0.0738315 -0.196661 
-0.0681246 0.0737252 -0.218816 -0.0629697 0.073767 -0.240798 -0.0576758 0.0739924 -0.26258 
-0.0522597 0.0743924 -0.284123 -0.0467216 0.0749114 -0.305375 -0.0410497 0.0754525 -0.326268 
-0.0352257 0.0758858 -0.346721 -0.0292327 0.0760626 -0.366644 -0.0230617 0.0758312 -0.385944 
-0.0167186 0.075054 -0.404532 -0.0102283 0.0736229 -0.422329 -0.00363776 0.0714723 -0.439276 
0.0029842 0.0685868 -0.455336 0.00954995 0.0650036 -0.470496 0.0159583 0.0608094 -0.484773 
0.0221021 0.0561316 -0.498204 0.0278763 0.0511252 -0.510845 0.0331873 0.0459575 -0.522764 
0.0379607 0.0407918 -0.534031 0.0421475 0.0357725 -0.544712 0.0457279 0.0310134 -0.554862 
0.0487127 0.0265904 -0.564519 0.0511406 0.0225392 -0.573703 0.0530736 0.018858 -0.582412 
0.0545904 0.0155154 -0.590631 0.0557775 0.0124604 -0.598326 0.0567209 0.00963556 -0.605459 
0.0574981 0.00698824 -0.611989 0.0581717 0.00448158 -0.617876 0.0587852 0.00210132 -0.62309 
0.0593616 -0.000141199 -0.627608 0.0599047 -0.00221044 -0.631421 0.0604024 -0.00405203 -0.634525 
0.0608324 -0.00560121 -0.636928 0.061168 -0.00679283 -0.63864 0.0613847 -0.00757143 -0.639669 
0.061465 -0.00789984 -0.640023 
LINES 2 100
OFFSETS vtktypeint64
0 100 
CONNECTIVITY vtktypeint64
0 1 2 3 4 5 6 7 8 
9 10 11 12 13 14 15 16 17 
18 19 20 21 22 23 24 25 26 
27 28 29 30 31 32 33 34 35 
36 37 38 39 40 41 42 43 44 
45 46 47 48 49 50 51 52 53 
54 55 56 57 58 59 60 61 62 
63 64 65 66 67 68 69 70 71 
72 73 74 75 76 77 78 79 80 
81 82 83 84 85 86 87 88 89 
90 91 92 93 94 95 96 97 98 
99 
POINT_DATA 100
FIELD FieldData 3
_theta 1 100 double
0 0.031733259127 0.063466518254 0.095199777382 0.12693303651 0.15866629564 0.19039955476 0.22213281389 0.25386607302 
0.28559933214 0.31733259127 0.3490658504 0.38079910953 0.41253236865 0.44426562778 0.47599888691 0.50773214603 0.53946540516 
0.57119866429 0.60293192342 0.63466518254 0.66639844167 0.6981317008 0.72986495992 0.76159821905 0.79333147818 0.82506473731 
0.85679799643 0.88853125556 0.92026451469 0.95199777382 0.98373103294 1.0154642921 1.0471975512 1.0789308103 1.1106640695 
1.1423973286 1.1741305877 1.2058638468 1.237597106 1.2693303651 1.3010636242 1.3327968833 1.3645301425 1.3962634016 
1.4279966607 1.4597299198 1.491463179 1.5231964381 1.5549296972 1.5866629564 1.6183962155 1.6501294746 1.6818627337 
1.7135959929 1.745329252 1.7770625111 1.8087957702 1.8405290294 1.8722622885 1.9039955476 1.9357288068 1.9674620659 
1.999195325 2.0309285841 2.0626618433 2.0943951024 2.1261283615 2.1578616206 2.1895948798 2.2213281389 2.253061398 
2.2847946572 2.3165279163 2.3482611754 2.3799944345 2.4117276937 2.4434609528 2.4751942119 2.506927471 2.5386607302 
2.5703939893 2.6021272484 2.6338605076 2.6655937667 2.6973270258 2.7290602849 2.7607935441 2.7925268032 2.8242600623 
2.8559933214 2.8877265806 2.9194598397 2.9511930988 2.982926358 3.0146596171 3.0463928762 3.0781261353 3.1098593945 
3.1415926536 
_radius 1 100 double
4.4712813073e-16 0.013068305237 0.026118180194 0.039127157661 0.052068477014 0.064908879285 0.0776066704 0.090110542653 0.1023597855 
0.11428645665 0.1258197488 0.13689221369 0.14744686975 0.15744377174 0.16686455982 0.17571387686 0.18401722661 0.19181561737 
0.19915797261 0.20609264466 0.21265941533 0.21888316979 0.22477008554 0.230306762 0.23546227501 0.24019271042 0.24444736654 
0.24817558544 0.25133313318 0.25388721225 0.25581950972 0.25712707628 0.25782119591 0.25792467777 0.25746816166 0.25648609555 
0.25501304373 0.25308092931 0.25071770504 0.24794777177 0.24479421691 0.2412826226 0.23744582657 0.2333286856 0.22899170745 
0.22451247672 0.21998413035 0.21551068394 0.21119967825 0.20715329167 0.20345957535 0.20018556721 0.19737353449 0.19504057199 
0.19318068887 0.19176788571 0.19075884311 0.19009464802 0.1897021344 0.18949637499 0.189386001 0.18928200426 0.18910889254 
0.18881557136 0.18838297954 0.18782635159 0.1871914238 0.18654531199 0.18596381043 0.1855173753 0.18525806166 0.18520925493 
0.18535932644 0.1856595658 0.18602610935 0.18634520723 0.18648102898 0.18628518471 0.18560712398 0.18430452787 0.18225277268 
0.17935258148 0.17553513809 0.17076421956 0.16503526902 0.15837171791 0.15081920491 0.14243857758 0.13329867178 0.12346983864 
0.11301903588 0.10200703692 0.090487961815 0.078510939373 0.066123330032 0.053374647556 0.040320189401 0.027023466618 0.013556813823 
6.471841074e-16 
_area 1 100 double
0 0.00047892138527 0.0019071604295 0.0042602808085 0.0075012015292 0.011584809239 0.016461961824 0.022080148137 0.028379397373 
0.035285671877 0.042706912545 0.05053592472 0.058660160221 0.066974581278 0.075392431609 0.083850036745 0.092304682994 0.10072759067 
0.10909533669 0.11738215661 0.12555363408 0.13356143786 0.14133969162 0.1488050866 0.15586321232 0.16242186394 0.16840881129 
0.17378787422 0.17856425339 0.18277077937 0.1864363469 0.18955386158 0.19206901303 0.19389395679 0.19493248887 0.19510245851 
0.19434927642 0.19265077146 0.19001635015 0.18648394319 0.18211766261 0.17700779905 0.17127288257 0.16506139968 0.15854943742 
0.15193135956 0.14540376396 0.13914614386 0.13330234632 0.12796649608 0.1231804516 0.11905393694 0.1159707518 0.11329280577 
0.11085426599 0.10856416283 0.10638500526 0.10430102106 0.10229744003 0.10034899821 0.098416986594 0.096457068236 0.094435914724 
0.092349088687 0.090231978651 0.088159509868 0.086234902161 0.08457102778 0.083269919 0.082491764524 0.082225234745 0.08243490559 
0.083046874177 0.083932819151 0.084986142496 0.086106093093 0.087177879374 0.088062250329 0.088593644418 0.08858894782 0.087866251707 
0.086269311523 0.083691389051 0.080092496036 0.075506314385 0.070036150759 0.063841974508 0.057122106327 0.050093353475 0.042972732229 
0.03596297265 0.029243169387 0.022965203889 0.017255561212 0.012220731412 0.0079531340646 0.0045345384372 0.0020355704085 0.00051202322407 
0 
