# vtk DataFile Version 5.1
vtk output
ASCII
DATASET POLYDATA
POINTS 100 float
0.0904963 0.0276951 0.681066 0.0907792 0.0280881 0.680731 0.0916874 0.029122 0.679583 
0.0931246 0.0307002 0.677681 0.0949431 0.0326748 0.675117 0.0969605 0.0348651 0.671996 
0.098982 0.037079 0.668426 0.100822 0.0391363 0.664499 0.102325 0.0408898 0.660273 
0.103383 0.0422408 0.65577 0.103942 0.0431492 0.650965 0.104008 0.0436339 0.645792 
0.103638 0.0437672 0.640153 0.102929 0.0436604 0.633931 0.102001 0.0434459 0.62701 
0.100973 0.0432558 0.61929 0.0999457 0.0432022 0.610706 0.0989819 0.0433596 0.601239 
0.0980949 0.043754 0.590922 0.0972422 0.0443583 0.579839 0.0963282 0.045096 0.56812 
0.095213 0.0458519 0.555924 0.0937292 0.0464878 0.54342 0.0917009 0.0468629 0.530771 
0.088966 0.0468538 0.518112 0.0853963 0.0463727 0.505531 0.0809142 0.0453817 0.493066 
0.0755029 0.0439001 0.480695 0.0692097 0.0420047 0.468341 0.0621414 0.0398232 0.455883 
0.0544519 0.0375205 0.443173 0.0463253 0.0352813 0.430055 0.0379545 0.0332901 0.416381 
0.0295196 0.0317121 0.402033 0.0211682 0.0306762 0.386936 0.0130009 0.0302635 0.371065 
0.00506233 0.0305017 0.354445 -0.0026591 0.0313657 0.337145 -0.0102245 0.0327851 0.319269 
-0.0177305 0.0346557 0.300937 -0.0252901 0.0368547 0.282269 -0.0330116 0.039256 0.263367 
-0.0409759 0.0417447 0.244306 -0.0492188 0.0442287 0.225117 -0.0577166 0.0466454 0.205791 
-0.06638 0.0489631 0.186282 -0.0750553 0.0511785 0.166513 -0.0835338 0.0533092 0.146391 
-0.0915679 0.0553841 0.125824 -0.0988926 0.0574328 0.104736 -0.105249 0.0594765 0.0830778 
-0.11041 0.06152 0.0608418 -0.114198 0.0635488 0.038061 -0.116506 0.0655288 0.0148101 
-0.117301 0.0674111 -0.00880241 -0.116632 0.0691382 -0.0326448 -0.11462 0.0706534 -0.0565761 
-0.111446 0.071909 -0.0804602 -0.10733 0.0728738 -0.104178 -0.102516 0.0735376 -0.127637 
-0.0972425 0.0739116 -0.150776 -0.0917248 0.0740254 -0.173564 -0.0861381 0.0739206 -0.195994 
-0.0806054 0.073641 -0.218079 -0.0751919 0.0732228 -0.239835 -0.0699065 0.0726845 -0.26127 
-0.0647091 0.0720199 -0.282381 -0.0595226 0.0711937 -0.303138 -0.0542485 0.0701428 -0.323487 
-0.0487841 0.0687812 -0.343352 -0.0430382 0.0670102 -0.362641 -0.0369456 0.0647306 -0.381256 
-0.0304772 0.0618571 -0.399106 -0.0236462 0.0583323 -0.41612 -0.0165084 0.0541376 -0.432256 
-0.00915901 0.049301 -0.447508 -0.00172426 0.0438987 -0.461908 0.00564887 0.0380515 -0.475523 
0.0128052 0.0319161 -0.488446 0.0195939 0.0256712 -0.500785 0.0258798 0.0195016 -0.512647 
0.0315533 0.0135813 -0.524123 0.0365366 0.00805748 -0.535277 0.0407872 0.00303862 -0.546134 
0.0442979 -0.00141313 -0.556676 0.0470944 -0.00528376 -0.566845 0.0492297 -0.00860354 -0.57655 
0.0507778 -0.011438 -0.585677 0.0518257 -0.0138755 -0.594105 0.0524662 -0.0160121 -0.601722 
0.0527914 -0.017938 -0.608439 0.0528865 -0.0197245 -0.614205 0.0528265 -0.0214158 -0.619008 
0.0526736 -0.0230248 -0.62288 0.0524766 -0.0245344 -0.625892 0.052272 -0.0259031 -0.628141 
0.052085 -0.0270746 -0.629737 0.0519323 -0.0279886 -0.63079 0.0518243 -0.0285924 -0.63139 
0.0517669 -0.0288503 -0.631595 
LINES 2 100
OFFSETS vtktypeint64
0 100 
CONNECTIVITY vtktypeint64
0 1 2 3 4 5 6 7 8 
9 10 11 12 13 14 15 16 17 
18 19 20 21 22 23 24 25 26 
27 28 29 30 31 32 33 34 35 
36 37 38 39 40 41 42 43 44 
45 46 47 48 49 50 51 52 53 
54 55 56 57 58 59 60 61 62 
63 64 65 66 67 68 69 70 71 
72 73 74 75 76 77 78 79 80 
81 82 83 84 85 86 87 88 89 
90 91 92 93 94 95 96 97 98 
99 
POINT_DATA 100
FIELD FieldData 3
_theta 1 100 double
0 0.031733259127 0.063466518254 0.095199777382 0.12693303651 0.15866629564 0.19039955476 0.22213281389 0.25386607302 
0.28559933214 0.31733259127 0.3490658504 0.38079910953 0.41253236865 0.44426562778 0.47599888691 0.50773214603 0.53946540516 
0.57119866429 0.60293192342 0.63466518254 0.66639844167 0.6981317008 0.72986495992 0.76159821905 0.79333147818 0.82506473731 
0.85679799643 0.88853125556 0.92026451469 0.95199777382 0.98373103294 1.0154642921 1.0471975512 1.0789308103 1.1106640695 
1.1423973286 1.1741305877 1.2058638468 1.237597106 1.2693303651 1.3010636242 1.3327968833 1.3645301425 1.3962634016 
1.4279966607 1.4597299198 1.491463179 1.5231964381 1.5549296972 1.5866629564 1.6183962155 1.6501294746 1.6818627337 
1.7135959929 1.745329252 1.7770625111 1.8087957702 1.8405290294 1.8722622885 1.9039955476 1.9357288068 1.9674620659 
1.999195325 2.0309285841 2.0626618433 2.0943951024 2.1261283615 2.1578616206 2.1895948798 2.2213281389 2.253061398 
2.2847946572 2.3165279163 2.3482611754 2.3799944345 2.4117276937 2.4434609528 2.4751942119 2.506927471 2.5386607302 
2.5703939893 2.6021272484 2.6338605076 2.6655937667 2.6973270258 2.7290602849 2.7607935441 2.7925268032 2.8242600623 
2.8559933214 2.8877265806 2.9194598397 2.9511930988 2.982926358 3.0146596171 3.0463928762 3.0781261353 3.1098593945 
3.1415926536 
_radius 1 100 double
3.4394802926e-16 0.013344647465 0.026715006134 0.040122776152 0.053561777765 0.067003008867 0.08039318311 0.093656561025 0.10669926535 
0.11941500939 0.13169132188 0.14341577202 0.15448210577 0.16479635016 0.17428274559 0.18288896 0.19058968137 0.19738761758 
0.20331126765 0.20840952602 0.21274407578 0.2163813435 0.21938618093 0.22181908553 0.22373759758 0.22520087662 0.22627507477 
0.22703666342 0.22757158784 0.227969746 0.22831611642 0.22868106364 0.22911239974 0.22963080242 0.23022885582 0.23087298617 
0.23150719364 0.23205762252 0.23243742024 0.23255182492 0.23230384258 0.23160107258 0.23036407008 0.22853607932 0.22609319145 
0.22305325075 0.21948139725 0.21549015366 0.21123256834 0.20688825808 0.20264422353 0.19867441632 0.1951229323 0.19209440572 
0.1896522763 0.18782289791 0.18660218168 0.18596159076 0.1858514657 0.18620166489 0.18692172838 0.18790381221 0.18903038662 
0.19018583818 0.19126881661 0.19220186876 0.19293620482 0.1934511063 0.19374875515 0.19384607943 0.19376567618 0.19352788956 
0.19314552583 0.19262155004 0.19194884592 0.19111033689 0.19007796434 0.18881022666 0.18724954211 0.18532156729 0.18293812651 
0.18000389888 0.17642545526 0.17212044519 0.16702485426 0.16109696629 0.15431759488 0.14668703853 0.13821990934 0.12893938356 
0.11887246284 0.10804751299 0.096494720465 0.084249299317 0.071356496076 0.057876924543 0.043890689478 0.02949909885 0.014823326855 
1.1975260435e-15 
_area 1 100 double
0 0.00042435855521 0.0017034499116 0.0038521544108 0.0068858963681 0.01080997112 0.015609476773 0.021241900817 0.027633252633 
0.034677770726 0.042240857265 0.050164913158 0.058277807929 0.066403376067 0.074372530854 0.082033006303 0.089256373146 0.095942952659 
0.10202694938 0.10748319897 0.11233303997 0.11664294258 0.12051007283 0.1240362537 0.12730188015 0.13035390648 0.13321216226 
0.13588602679 0.13838998339 0.14075028532 0.14299999222 0.14516526417 0.14725250128 0.14924687646 0.15112244655 0.15285282461 
0.15441129887 0.15575787851 0.15682126423 0.15749011725 0.15762387733 0.15708120674 0.15575424647 0.15359476871 0.15062344814 
0.14692244052 0.14261878393 0.13786713856 0.13283576802 0.12769501637 0.12260662699 0.11771467632 0.11314147217 0.10898764164 
0.1053262925 0.10219010767 0.099575048335 0.09746505731 0.095841902257 0.094666323105 0.09385645375 0.093291447419 0.09284013943 
0.092394415845 0.091890475891 0.091311548416 0.090672945659 0.089995724604 0.089282961699 0.088515005303 0.087664397016 0.086715643111 
0.085678089439 0.084588312505 0.083501679958 0.082475817973 0.08155575451 0.080775877102 0.080195865707 0.079936513046 0.079838577341 
0.079327744118 0.078024700743 0.075745601059 0.072425899184 0.06809475256 0.06285753 0.056877755546 0.050358600889 0.043525463521 
0.036610762498 0.02984121293 0.023427217819 0.017554062263 0.012375295471 0.0080095405532 0.0045419456119 0.0020297404988 0.00050905859147 
1.5137263661e-17 
