# vtk DataFile Version 5.1
vtk output
ASCII
DATASET POLYDATA
POINTS 100 float
0.102487 0.0450577 0.628445 0.102561 0.0452463 0.628334 0.102856 0.045645 0.627834 
0.10332 0.0462197 0.626937 0.103878 0.0469185 0.625626 0.104433 0.0476783 0.623878 
0.104882 0.0484323 0.621659 0.105124 0.0491177 0.618925 0.105074 0.0496837 0.615624 
0.104663 0.050096 0.611694 0.103851 0.0503406 0.60707 0.102624 0.0504231 0.601688 
0.100991 0.0503665 0.595492 0.0989803 0.050206 0.588442 0.0966306 0.0499818 0.580517 
0.0939817 0.0497319 0.571724 0.0910667 0.0494852 0.562099 0.0879049 0.0492553 0.551708 
0.0844978 0.049038 0.540643 0.0808277 0.0488103 0.52902 0.0768602 0.0485334 0.516965 
0.0725494 0.0481582 0.504606 0.0678453 0.0476322 0.492065 0.0627024 0.0469088 0.479443 
0.0570881 0.0459555 0.466814 0.0509897 0.0447613 0.454219 0.0444185 0.0433417 0.441661 
0.037412 0.0417413 0.429109 0.0300316 0.040032 0.416501 0.0223578 0.0383085 0.40375 
0.014483 0.0366805 0.390758 0.00650303 0.0352634 0.377421 -0.00149152 0.034167 0.363645 
-0.00942274 0.0334853 0.349349 -0.0172306 0.0332876 0.334473 -0.0248754 0.0336119 0.318984 
-0.0323366 0.0344616 0.30287 -0.0396088 0.0358065 0.286142 -0.0466954 0.0375862 0.268827 
-0.0536003 0.0397177 0.25096 -0.0603197 0.0421041 0.232578 -0.0668349 0.0446452 0.213715 
-0.0731075 0.0472474 0.194397 -0.0790767 0.0498324 0.174641 -0.0846612 0.0523434 0.154452 
-0.0897638 0.0547485 0.133834 -0.0942792 0.0570406 0.112787 -0.0981035 0.0592345 0.0913181 
-0.101145 0.0613606 0.0694444 -0.103331 0.0634574 0.0471998 -0.104622 0.0655632 0.024637 
-0.105007 0.0677077 0.00182777 -0.104512 0.0699051 -0.021139 -0.103195 0.0721493 -0.0441625 
-0.101137 0.0744125 -0.0671367 -0.0984367 0.0766451 -0.0899582 -0.0951962 0.0787799 -0.112534 
-0.0915131 0.0807381 -0.134789 -0.0874695 0.0824357 -0.156668 -0.0831252 0.0837924 -0.178142 
-0.0785134 0.0847383 -0.199203 -0.0736412 0.0852205 -0.219862 -0.068493 0.0852072 -0.240143 
-0.0630369 0.0846901 -0.260076 -0.0572344 0.0836837 -0.279686 -0.0510496 0.0822228 -0.29899 
-0.0444596 0.0803581 -0.31799 -0.0374621 0.0781503 -0.33667 -0.0300808 0.0756645 -0.354996 
-0.0223679 0.0729639 -0.372919 -0.0144023 0.0701052 -0.390385 -0.00628519 0.0671352 -0.407333 
0.00186736 0.0640887 -0.423712 0.00993324 0.0609889 -0.439479 0.0177938 0.0578488 -0.45461 
0.0253424 0.054674 -0.469099 0.0324919 0.0514661 -0.482955 0.0391786 0.0482269 -0.496204 
0.0453646 0.0449614 -0.508875 0.0510365 0.0416804 -0.520996 0.0562016 0.0384025 -0.532587 
0.060883 0.0351541 -0.543648 0.0651133 0.0319688 -0.55416 0.0689284 0.0288849 -0.564076 
0.0723621 0.0259433 -0.57333 0.0754428 0.023184 -0.581841 0.0781913 0.0206428 -0.589519 
0.0806213 0.0183487 -0.596281 0.082741 0.0163215 -0.602061 0.0845564 0.0145702 -0.606823 
0.0860745 0.0130932 -0.610567 0.0873068 0.0118782 -0.613339 0.0882716 0.0109041 -0.615227 
0.0889949 0.0101428 -0.616359 0.0895099 0.00956213 -0.616895 0.0898547 0.00912858 -0.617007 
0.0900689 0.00881029 -0.616872 0.0901894 0.00857966 -0.616647 0.0902464 0.00841561 -0.61646 
0.0902597 0.00830528 -0.61639 
LINES 2 100
OFFSETS vtktypeint64
0 100 
CONNECTIVITY vtktypeint64
0 1 2 3 4 5 6 7 8 
9 10 11 12 13 14 15 16 17 
18 19 20 21 22 23 24 25 26 
27 28 29 30 31 32 33 34 35 
36 37 38 39 40 41 42 43 44 
45 46 47 48 49 50 51 52 53 
54 55 56 57 58 59 60 61 62 
63 64 65 66 67 68 69 70 71 
72 73 74 75 76 77 78 79 80 
81 82 83 84 85 86 87 88 89 
90 91 92 93 94 95 96 97 98 
99 
POINT_DATA 100
FIELD FieldData 3
_theta 1 100 double
0 0.031733259127 0.063466518254 0.095199777382 0.12693303651 0.15866629564 0.19039955476 0.22213281389 0.25386607302 
0.28559933214 0.31733259127 0.3490658504 0.38079910953 0.41253236865 0.44426562778 0.47599888691 0.50773214603 0.53946540516 
0.57119866429 0.60293192342 0.63466518254 0.66639844167 0.6981317008 0.72986495992 0.76159821905 0.79333147818 0.82506473731 
0.85679799643 0.88853125556 0.92026451469 0.95199777382 0.98373103294 1.0154642921 1.0471975512 1.0789308103 1.1106640695 
1.1423973286 1.1741305877 1.2058638468 1.237597106 1.2693303651 1.3010636242 1.3327968833 1.3645301425 1.3962634016 
1.4279966607 1.4597299198 1.491463179 1.5231964381 1.5549296972 1.5866629564 1.6183962155 1.6501294746 1.6818627337 
1.7135959929 1.745329252 1.7770625111 1.8087957702 1.8405290294 1.8722622885 1.9039955476 1.9357288068 1.9674620659 
1.999195325 2.0309285841 2.0626618433 2.0943951024 2.1261283615 2.1578616206 2.1895948798 2.2213281389 2.253061398 
2.2847946572 2.3165279163 2.3482611754 2.3799944345 2.4117276937 2.4434609528 2.4751942119 2.506927471 2.5386607302 
2.5703939893 2.6021272484 2.6338605076 2.6655937667 2.6973270258 2.7290602849 2.7607935441 2.7925268032 2.8242600623 
2.8559933214 2.8877265806 2.9194598397 2.9511930988 2.982926358 3.0146596171 3.0463928762 3.0781261353 3.1098593945 
3.1415926536 
_radius 1 100 double
6.9876418708e-16 0.013364265668 0.026646942647 0.039762940169 0.052632655982 0.065184458769 0.07735647744 0.08909751042 0.10036699323 
0.11113412802 0.12137644216 0.13107815081 0.14022870074 0.14882175337 0.15685466309 0.16432831273 0.17124707012 0.17761866544 
0.18345392165 0.18876641681 0.19357223597 0.1978899439 0.20174079949 0.20514909371 0.20814238157 0.21075132218 0.21300885068 
0.21494849357 0.21660181838 0.21799525576 0.21914676855 0.22006297499 0.22073732083 0.22114977408 0.22126835519 0.2210526406 
0.22045915476 0.2194482594 0.21799179602 0.21608044405 0.21372963527 0.21098296427 0.20791234558 0.20461463525 0.201204988 
0.19780777247 0.19454632416 0.1915330896 0.18886171735 0.18660228256 0.18480002543 0.18347686535 0.18263398001 0.18225355632 
0.18229876361 0.18271267832 0.18341830022 0.18432195345 0.18532104127 0.18631512951 0.18721788877 0.187967186 0.18853135113 
0.18891071608 0.18913446578 0.1892535154 0.18933058166 0.18942890681 0.18960120735 0.18988029012 0.19027239436 0.19075380158 
0.19127081905 0.19174298914 0.19206919021 0.19213598595 0.19182714267 0.19103289018 0.18965750258 0.18762418851 0.18487695276 
0.18137976331 0.17711381241 0.17207381146 0.16626415122 0.15969550512 0.15238216722 0.14434018248 0.13558619946 0.12613697366 
0.1160095496 0.10522227118 0.09379680296 0.081761205214 0.069153792294 0.056027120121 0.04245116261 0.028514698053 0.014324194592 
8.1470355316e-16 
_area 1 100 double
0 0.00049319830138 0.0019602315635 0.0043637744765 0.0076429889422 0.011716239328 0.016485966902 0.021845673183 0.027687528637 
0.033908097865 0.040410140548 0.047100542448 0.053886960599 0.06067676684 0.067380315277 0.073917623891 0.080225516385 0.086262312818 
0.092008756857 0.0974654932 0.10264768086 0.10757648696 0.11226761049 0.11672052384 0.12091594111 0.12482640411 0.12843470838 
0.13174668143 0.13478811676 0.13758833781 0.14016230982 0.1425000289 0.14456271345 0.14628195572 0.14756073014 0.14827846172 
0.14830394684 0.14751811083 0.14584262509 0.14326526844 0.13985367494 0.13575367284 0.13117238452 0.12634872541 0.12151678381 
0.11687168134 0.11254874214 0.1086196149 0.10509943309 0.10195961295 0.099147240597 0.096610223235 0.094320482757 0.092287183788 
0.090557126946 0.089202293013 0.088290545022 0.087836144317 0.087759081933 0.087897903666 0.088063080167 0.088085434049 0.087843749659 
0.087277344653 0.086388341081 0.0852346616 0.083915389825 0.082552388706 0.081272900891 0.080196356273 0.079425981476 0.079043101395 
0.079099654602 0.079607554703 0.080534782482 0.081770123016 0.083100934207 0.084290343443 0.085117443119 0.085385681894 0.08493229102 
0.083637469232 0.081429710785 0.07828637753 0.074230808611 0.069328146046 0.063681451189 0.057428275098 0.050736564629 0.043798337539 
0.036820202673 0.030011217942 0.023570004212 0.017673686509 0.012470740379 0.0080784562487 0.0045842980112 0.0020496249559 0.00051416896837 
1.1384969792e-17 
