# vtk DataFile Version 5.1
vtk output
ASCII
DATASET POLYDATA
POINTS 100 float
0.0993272 0.0477343 0.66972 0.0994393 0.0478558 0.669557 0.099807 0.0480702 0.668923 
0.100374 0.0483707 0.667796 0.101054 0.0487473 0.666142 0.101742 0.0491871 0.66392 
0.102324 0.0496746 0.66108 0.102695 0.0501928 0.657573 0.102766 0.0507236 0.653351 
0.102474 0.0512483 0.648374 0.101791 0.0517487 0.642613 0.100716 0.052207 0.636052 
0.0992789 0.0526066 0.628694 0.0975258 0.0529323 0.620558 0.0955112 0.0531704 0.611679 
0.0932856 0.0533087 0.602113 0.0908843 0.0533372 0.591925 0.08832 0.0532474 0.581192 
0.0855773 0.053033 0.569998 0.0826141 0.0526898 0.558425 0.0793656 0.052216 0.546555 
0.0757542 0.051612 0.53446 0.0717007 0.0508811 0.522202 0.067138 0.0500294 0.509829 
0.0620229 0.0490659 0.497375 0.0563468 0.0480023 0.48486 0.0501405 0.0468535 0.472288 
0.0434756 0.0456369 0.459655 0.036459 0.0443722 0.446946 0.0292234 0.0430811 0.434141 
0.0219132 0.0417871 0.421214 0.0146686 0.0405144 0.408138 0.00760888 0.0392882 0.394885 
0.0008186 0.0381337 0.381425 -0.00566297 0.0370762 0.367726 -0.0118466 0.0361405 0.353753 
-0.0177913 0.035351 0.339467 -0.0235966 0.0347311 0.324824 -0.0293886 0.0343037 0.309772 
-0.035302 0.0340903 0.294254 -0.0414601 0.0341113 0.278207 -0.0479551 0.034385 0.261566 
-0.054831 0.0349277 0.24427 -0.062071 0.0357523 0.226262 -0.0695923 0.0368682 0.207497 
-0.0772472 0.0382797 0.187947 -0.0848317 0.0399854 0.167606 -0.0921016 0.0419775 0.14649 
-0.0987919 0.0442406 0.124641 -0.10464 0.0467517 0.102128 -0.10941 0.0494798 0.0790403 
-0.112911 0.0523861 0.0554837 -0.115015 0.0554249 0.031577 -0.115667 0.0585444 0.00744279 
-0.114889 0.0616883 -0.016799 -0.112773 0.0647973 -0.0410379 -0.109471 0.0678113 -0.0651779 
-0.105177 0.070671 -0.0891408 -0.100112 0.0733198 -0.112868 -0.0944948 0.0757058 -0.136319 
-0.0885303 0.0777825 -0.159468 -0.0823871 0.0795106 -0.182301 -0.0761878 0.080858 -0.204809 
-0.0700028 0.0818002 -0.226982 -0.0638502 0.0823199 -0.248805 -0.0577023 0.0824068 -0.270256 
-0.0514957 0.0820566 -0.2913 -0.0451459 0.08127 -0.311893 -0.0385628 0.0800525 -0.331984 
-0.0316661 0.0784129 -0.351515 -0.024399 0.0763633 -0.370434 -0.0167381 0.0739183 -0.38869 
-0.00869918 0.0710954 -0.406247 -0.000339036 0.0679148 -0.423084 0.008248 0.0643997 -0.439196 
0.0169369 0.0605768 -0.454593 0.0255817 0.0564768 -0.469304 0.0340269 0.0521342 -0.483361 
0.0421196 0.0475882 -0.496806 0.0497197 0.042882 -0.509671 0.0567102 0.0380625 -0.521985 
0.0630026 0.0331799 -0.533755 0.0685417 0.0282861 -0.544976 0.0733056 0.0234341 -0.555618 
0.0773041 0.0186762 -0.565638 0.0805745 0.0140627 -0.574977 0.0831761 0.00964007 -0.583571 
0.0851837 0.00545033 -0.591358 0.0866808 0.00152944 -0.598285 0.0877539 -0.00209319 -0.604321 
0.0884866 -0.00539506 -0.609455 0.0889565 -0.00836054 -0.613707 0.0892316 -0.0109804 -0.617126 
0.0893694 -0.013251 -0.619786 0.0894167 -0.0151731 -0.621781 0.0894096 -0.0167507 -0.623215 
0.0893751 -0.0179895 -0.624196 0.0893323 -0.0188956 -0.62482 0.0892938 -0.0194744 -0.625163 
0.089267 -0.0197292 -0.625276 
LINES 2 100
OFFSETS vtktypeint64
0 100 
CONNECTIVITY vtktypeint64
0 1 2 3 4 5 6 7 8 
9 10 11 12 13 14 15 16 17 
18 19 20 21 22 23 24 25 26 
27 28 29 30 31 32 33 34 35 
36 37 38 39 40 41 42 43 44 
45 46 47 48 49 50 51 52 53 
54 55 56 57 58 59 60 61 62 
63 64 65 66 67 68 69 70 71 
72 73 74 75 76 77 78 79 80 
81 82 83 84 85 86 87 88 89 
90 91 92 93 94 95 96 97 98 
99 
POINT_DATA 100
FIELD FieldData 3
_theta 1 100 double
0 0.031733259127 0.063466518254 0.095199777382 0.12693303651 0.15866629564 0.19039955476 0.22213281389 0.25386607302 
0.28559933214 0.31733259127 0.3490658504 0.38079910953 0.41253236865 0.44426562778 0.47599888691 0.50773214603 0.53946540516 
0.57119866429 0.60293192342 0.63466518254 0.66639844167 0.6981317008 0.72986495992 0.76159821905 0.79333147818 0.82506473731 
0.85679799643 0.88853125556 0.92026451469 0.95199777382 0.98373103294 1.0154642921 1.0471975512 1.0789308103 1.1106640695 
1.1423973286 1.1741305877 1.2058638468 1.237597106 1.2693303651 1.3010636242 1.3327968833 1.3645301425 1.3962634016 
1.4279966607 1.4597299198 1.491463179 1.5231964381 1.5549296972 1.5866629564 1.6183962155 1.6501294746 1.6818627337 
1.7135959929 1.745329252 1.7770625111 1.8087957702 1.8405290294 1.8722622885 1.9039955476 1.9357288068 1.9674620659 
1.999195325 2.0309285841 2.0626618433 2.0943951024 2.1261283615 2.1578616206 2.1895948798 2.2213281389 2.253061398 
2.2847946572 2.3165279163 2.3482611754 2.3799944345 2.4117276937 2.4434609528 2.4751942119 2.506927471 2.5386607302 
2.5703939893 2.6021272484 2.6338605076 2.6655937667 2.6973270258 2.7290602849 2.7607935441 2.7925268032 2.8242600623 
2.8559933214 2.8877265806 2.9194598397 2.9511930988 2.982926358 3.0146596171 3.0463928762 3.0781261353 3.1098593945 
3.1415926536 
_radius 1 100 double
4.5612342874e-16 0.014152715967 0.028225835739 0.042134164822 0.055792201571 0.06911544719 0.082022763967 0.094439608406 0.10630171374 
0.11755864873 0.12817667126 0.13814041444 0.14745314165 0.15613552556 0.16422309577 0.17176262447 0.17880775653 0.18541414442 
0.19163428841 0.19751233039 0.2030792858 0.20834953254 0.21331956134 0.21796978006 0.22226950586 0.22618437245 0.22968456998 
0.23275194583 0.23538418517 0.23759500791 0.23941033194 0.24086135401 0.24197620467 0.24277206473 0.24324936519 0.24338907311 
0.2431533415 0.24248922371 0.24133485979 0.2396275036 0.23731281612 0.23435483312 0.23074584819 0.22651518947 0.22173562896 
0.21652605901 0.21104916142 0.20550312783 0.20010716038 0.19508163531 0.19062546403 0.18689486847 0.18398839236 0.18194140916 
0.18072991183 0.18028004009 0.18047893967 0.18118455556 0.18223493665 0.18345909603 0.18469050142 0.18578210517 0.18662037014 
0.18713572919 0.18730774325 0.18716413206 0.18677363494 0.18623350559 0.18565340925 0.18513826 0.18477269682 0.1846093073 
0.1846616085 0.1849016604 0.18526148671 0.18563742926 0.1858969717 0.18588794196 0.18544991434 0.18442704768 0.18268086423 
0.18010103918 0.17661239066 0.17217691955 0.16679073866 0.16047678573 0.15327509069 0.14523286436 0.13639664109 0.12680808733 
0.11650399868 0.10551976465 0.093894612776 0.081676601033 0.068925703424 0.055714222652 0.042124787659 0.028246979839 0.014173933713 
4.741600165e-16 
_area 1 100 double
0 0.00053730551177 0.0021361449776 0.0047570745542 0.0083340217894 0.012774893753 0.017964048486 0.023767274457 0.030039366607 
0.036633776835 0.043413202226 0.05025946433 0.057080872288 0.063815681345 0.070431254055 0.076919767581 0.083292099115 0.089571043669 
0.095783290369 0.10194851093 0.10806591302 0.11410302113 0.11999398456 0.12565206362 0.130994448 0.13597097648 0.14058404097 
0.14488707942 0.14895862556 0.1528663051 0.15664020124 0.16026067197 0.16365568658 0.16670533514 0.1692547263 0.17113516021 
0.17218855814 0.17228691048 0.1713416854 0.16930527686 0.16617097812 0.16197623522 0.15680871652 0.15081122762 0.14418144771 
0.13716404029 0.13003460839 0.12307711262 0.11655823875 0.110701648 0.10566129994 0.10149733831 0.098177667277 0.095616863292 
0.093708235037 0.09233037379 0.091363139763 0.090694907592 0.090206809778 0.089764533262 0.089236028091 0.088522640678 0.087581827591 
0.086430363669 0.085129132159 0.083757356812 0.082390224413 0.081087741417 0.079890149724 0.078824832455 0.077918218037 0.077210973949 
0.076764057709 0.076656378538 0.076971882483 0.077756893928 0.078938039057 0.080289597007 0.081513706311 0.082317628762 0.082445925594 
0.081700321568 0.079956391574 0.077172167176 0.073384673219 0.068695011707 0.063246857031 0.057205253239 0.050741657399 0.044027784278 
0.037236585788 0.0305456252 0.024137618468 0.018195137412 0.012890093106 0.008371622738 0.0047568582045 0.0021276541886 0.00053373752666 
2.6481634092e-17 
