# vtk DataFile Version 5.1
vtk output
ASCII
DATASET POLYDATA
POINTS 100 float
0.128036 0.0471651 0.742347 0.128048 0.0472156 0.742046 0.128179 0.047235 0.740981 
0.128395 0.0472408 0.739152 0.128643 0.0472595 0.736563 0.128855 0.0473238 0.733218 
0.12895 0.047468 0.729124 0.128847 0.0477237 0.724291 0.128464 0.0481145 0.718735 
0.127729 0.048652 0.712471 0.126579 0.0493327 0.705521 0.124968 0.050136 0.69791 
0.122863 0.0510235 0.689666 0.120248 0.0519412 0.680818 0.11712 0.0528224 0.671399 
0.113487 0.0535927 0.661442 0.109367 0.054176 0.650981 0.104784 0.0545014 0.640047 
0.0997644 0.0545099 0.628671 0.0943391 0.0541604 0.61688 0.0885402 0.0534349 0.604698 
0.0824023 0.052341 0.592143 0.0759623 0.0509129 0.57923 0.0692603 0.0492097 0.565966 
0.0623399 0.0473114 0.552353 0.0552475 0.0453128 0.538385 0.0480318 0.0433158 0.524052 
0.0407414 0.0414216 0.509334 0.0334219 0.0397224 0.494208 0.026113 0.0382942 0.478645 
0.0188449 0.0371915 0.46261 0.0116356 0.0364442 0.446066 0.00448897 0.0360575 0.428974 
-0.00260571 0.0360136 0.411297 -0.00967197 0.0362771 0.392997 -0.0167429 0.0368007 0.374042 
-0.0238555 0.0375336 0.354407 -0.0310445 0.0384282 0.334073 -0.0383342 0.0394474 0.313032 
-0.045731 0.0405694 0.291287 -0.0532167 0.0417902 0.268853 -0.0607434 0.0431235 0.245756 
-0.0682312 0.0445977 0.222036 -0.0755679 0.0462505 0.197741 -0.0826134 0.0481215 0.17293 
-0.0892058 0.0502445 0.147669 -0.0951712 0.0526393 0.122032 -0.100334 0.0553052 0.0960943 
-0.104531 0.0582163 0.0699322 -0.107621 0.06132 0.0436225 -0.109494 0.0645383 0.0172392 
-0.110084 0.0677722 -0.00914781 -0.10937 0.0709093 -0.0354734 -0.107376 0.0738327 -0.0616781 
-0.104173 0.0764309 -0.0877082 -0.0998679 0.0786073 -0.113516 -0.0945972 0.0802888 -0.139058 
-0.0885157 0.081431 -0.164298 -0.0817842 0.0820212 -0.189202 -0.0745586 0.0820774 -0.213742 
-0.0669795 0.0816442 -0.23789 -0.0591647 0.0807859 -0.261625 -0.0512038 0.0795776 -0.284925 
-0.0431574 0.0780956 -0.307773 -0.0350579 0.0764079 -0.330152 -0.0269142 0.0745668 -0.352047 
-0.0187181 0.0726031 -0.373444 -0.0104525 0.0705243 -0.394331 -0.00209871 0.0683154 -0.414695 
0.00635477 0.0659435 -0.434524 0.0149066 0.063364 -0.453805 0.0235378 0.0605295 -0.472524 
0.0322098 0.0573983 -0.490668 0.0408645 0.0539427 -0.508221 0.0494271 0.0501555 -0.525169 
0.05781 0.0460535 -0.541496 0.065919 0.0416785 -0.557189 0.0736593 0.0370949 -0.572234 
0.0809419 0.0323845 -0.586622 0.0876896 0.0276388 -0.600345 0.0938414 0.022951 -0.6134 
0.0993557 0.0184071 -0.625788 0.104212 0.0140784 -0.637513 0.108411 0.0100163 -0.648581 
0.111973 0.00624908 -0.659004 0.114934 0.00278189 -0.668791 0.117345 -0.000399952 -0.677955 
0.119264 -0.00332588 -0.686503 0.120755 -0.00603316 -0.69444 0.121885 -0.00855931 -0.70177 
0.122718 -0.010935 -0.708486 0.123312 -0.0131786 -0.714579 0.12372 -0.0152921 -0.720035 
0.123989 -0.0172606 -0.724833 0.124156 -0.0190541 -0.728951 0.124251 -0.0206309 -0.732365 
0.124299 -0.0219441 -0.73505 0.124317 -0.0229477 -0.736986 0.124315 -0.0236035 -0.738155 
0.124302 -0.0238861 -0.738546 
LINES 2 100
OFFSETS vtktypeint64
0 100 
CONNECTIVITY vtktypeint64
0 1 2 3 4 5 6 7 8 
9 10 11 12 13 14 15 16 17 
18 19 20 21 22 23 24 25 26 
27 28 29 30 31 32 33 34 35 
36 37 38 39 40 41 42 43 44 
45 46 47 48 49 50 51 52 53 
54 55 56 57 58 59 60 61 62 
63 64 65 66 67 68 69 70 71 
72 73 74 75 76 77 78 79 80 
81 82 83 84 85 86 87 88 89 
90 91 92 93 94 95 96 97 98 
99 
POINT_DATA 100
FIELD FieldData 3
_theta 1 100 double
0 0.031733259127 0.063466518254 0.095199777382 0.12693303651 0.15866629564 0.19039955476 0.22213281389 0.25386607302 
0.28559933214 0.31733259127 0.3490658504 0.38079910953 0.41253236865 0.44426562778 0.47599888691 0.50773214603 0.53946540516 
0.57119866429 0.60293192342 0.63466518254 0.66639844167 0.6981317008 0.72986495992 0.76159821905 0.79333147818 0.82506473731 
0.85679799643 0.88853125556 0.92026451469 0.95199777382 0.98373103294 1.0154642921 1.0471975512 1.0789308103 1.1106640695 
1.1423973286 1.1741305877 1.2058638468 1.237597106 1.2693303651 1.3010636242 1.3327968833 1.3645301425 1.3962634016 
1.4279966607 1.4597299198 1.491463179 1.5231964381 1.5549296972 1.5866629564 1.6183962155 1.6501294746 1.6818627337 
1.7135959929 1.745329252 1.7770625111 1.8087957702 1.8405290294 1.8722622885 1.9039955476 1.9357288068 1.9674620659 
1.999195325 2.0309285841 2.0626618433 2.0943951024 2.1261283615 2.1578616206 2.1895948798 2.2213281389 2.253061398 
2.2847946572 2.3165279163 2.3482611754 2.3799944345 2.4117276937 2.4434609528 2.4751942119 2.506927471 2.5386607302 
2.5703939893 2.6021272484 2.6338605076 2.6655937667 2.6973270258 2.7290602849 2.7607935441 2.7925268032 2.8242600623 
2.8559933214 2.8877265806 2.9194598397 2.9511930988 2.982926358 3.0146596171 3.0463928762 3.0781261353 3.1098593945 
3.1415926536 
_radius 1 100 double
4.0886516014e-16 0.01552943735 0.030921731113 0.046041179917 0.060764844486 0.074987781241 0.088626692665 0.1016216504 0.11393575237 
0.12555287121 0.1364740007 0.14671297418 0.15629232773 0.16523974803 0.17358507306 0.18135753374 0.18858302198 0.19528154742 
0.20146543554 0.20713898327 0.21230010903 0.21694403599 0.22106836661 0.22467825723 0.22779004355 0.23043184753 0.23264053773 
0.23445573361 0.23591275986 0.23703685575 0.23784026434 0.2383225302 0.2384731923 0.23827554867 0.23771030979 0.23675851194 
0.2354037286 0.23363413415 0.23144515284 0.22884320381 0.2258504944 0.22251010042 0.2188899507 0.21508405564 0.21120957476 
0.20739916598 0.20378936725 0.20050716084 0.19765779957 0.19531688444 0.19352838775 0.1923082552 0.19165130081 0.19153815906 
0.19193938566 0.19281522921 0.1941116961 0.19575558787 0.19765216564 0.1996882135 0.20174090206 0.20369043079 0.20543320767 
0.20689251679 0.20802469533 0.2088201609 0.2092997541 0.20950756226 0.20950164201 0.20934398902 0.20909088458 0.2087844923 
0.20844630929 0.20807279867 0.20763328832 0.20707006974 0.2063005578 0.2052212975 0.20371350211 0.20164974625 0.19890147822 
0.19534709835 0.19088034224 0.18541852808 0.17890992644 0.17133923904 0.16273010227 0.15314376831 0.14267366967 0.13143634295 
0.11955999265 0.10717258012 0.094391501968 0.081316551528 0.068027004142 0.054582603644 0.041027320275 0.027394294603 0.01371047544 
2.6801617047e-16 
_area 1 100 double
0 0.00059998910251 0.0023688987496 0.005218670263 0.0090187217891 0.013617215718 0.018864891959 0.02463571352 0.030837563923 
0.03740760887 0.044293690015 0.051433137538 0.058742944626 0.066125759145 0.073485192115 0.080740508413 0.087833311644 0.094723485872 
0.10137686841 0.10775186138 0.11379405113 0.11944450484 0.12465962253 0.12943284089 0.13380571618 0.1378593704 0.14168576149 
0.14534891158 0.14885353911 0.15213578281 0.155078205 0.15753921604 0.15938373078 0.16050563964 0.1608384193 0.16035513633 
0.15906220167 0.15699201589 0.15419824171 0.15075476915 0.14675681711 0.14232128258 0.13758405064 0.13269391618 0.12780434868 
0.12306432937 0.11860842305 0.1145457758 0.11094955377 0.10785240695 0.10525462408 0.10314130775 0.10149410363 0.10018916525 
0.099146755527 0.098353501428 0.097825140961 0.097545398918 0.097476030187 0.097588251337 0.097840390888 0.098154112955 0.09841421428 
0.098499771285 0.098321436458 0.097841973197 0.097078322829 0.096092901712 0.09498123518 0.093859331182 0.092851136265 0.0920753801 
0.091630722359 0.091577994464 0.091921962891 0.092602346495 0.093501808622 0.094463265599 0.095302099871 0.095809262087 0.095752657232 
0.094887294837 0.092980655717 0.089850881476 0.085406407596 0.079673022118 0.072799342881 0.065039725565 0.056720068577 0.048195330467 
0.039808094887 0.031855871257 0.024571724215 0.018119155822 0.01259891598 0.0080633754598 0.0045334776847 0.0020138573971 0.00050329511313 
1.7861915612e-17 
