# vtk DataFile Version 5.1
vtk output
ASCII
DATASET POLYDATA
POINTS 100 float
0.100098 0.0354867 0.661319 0.100214 0.0357297 0.661026 0.100624 0.0363019 0.66003 
0.101277 0.0371748 0.65837 0.102097 0.0383036 0.656106 0.102988 0.0396318 0.653306 
0.103847 0.0410948 0.65004 0.104576 0.0426256 0.646364 0.105088 0.0441598 0.642316 
0.10532 0.0456397 0.637902 0.105235 0.0470185 0.633104 0.104823 0.0482621 0.627871 
0.104097 0.0493509 0.622133 0.103088 0.0502785 0.615805 0.101837 0.0510509 0.608804 
0.100384 0.0516834 0.601057 0.0987599 0.0521974 0.592515 0.0969796 0.0526167 0.583162 
0.0950372 0.052964 0.573019 0.0929058 0.053258 0.562147 0.0905404 0.0535107 0.550638 
0.0878843 0.0537265 0.538614 0.0848775 0.0539018 0.526211 0.0814667 0.0540255 0.513566 
0.077614 0.0540808 0.500809 0.0733047 0.0540477 0.488046 0.0685517 0.0539055 0.475354 
0.063396 0.0536356 0.462775 0.0579036 0.0532251 0.450317 0.0521583 0.0526684 0.437953 
0.0462517 0.0519699 0.425634 0.0402719 0.0511446 0.41329 0.0342922 0.0502193 0.400846 
0.0283611 0.0492315 0.388226 0.0224954 0.0482289 0.37536 0.0166783 0.0472667 0.362189 
0.0108608 0.0464057 0.348668 0.00496888 0.0457089 0.334758 -0.00108559 0.0452379 0.320428 
-0.00739143 0.0450495 0.305646 -0.0140233 0.0451918 0.290376 -0.0210275 0.0457011 0.274572 
-0.0284101 0.0465989 0.258178 -0.0361293 0.0478893 0.241127 -0.0440927 0.0495584 0.223348 
-0.0521597 0.0515736 0.20477 -0.0601497 0.0538844 0.185333 -0.0678551 0.056425 0.164998 
-0.0750564 0.0591172 0.143751 -0.0815407 0.0618747 0.121617 -0.0871176 0.0646085 0.0986576 
-0.0916349 0.0672317 0.0749734 -0.0949895 0.0696653 0.0506976 -0.0971333 0.0718426 0.0259886 
-0.0980748 0.0737138 0.00101768 -0.097874 0.0752478 -0.0240441 -0.0966342 0.076434 -0.0490388 
-0.0944887 0.0772809 -0.0738335 -0.0915875 0.0778139 -0.0983284 -0.0880821 0.0780715 -0.122462 
-0.0841126 0.0780993 -0.146208 -0.0797969 0.0779445 -0.169574 -0.0752244 0.0776497 -0.192591 
-0.0704531 0.0772468 -0.2153 -0.0655106 0.0767528 -0.237742 -0.0604 0.0761663 -0.259945 
-0.0551069 0.0754666 -0.281915 -0.0496086 0.0746146 -0.303629 -0.0438843 0.0735559 -0.325034 
-0.0379228 0.0722258 -0.346052 -0.0317296 0.0705556 -0.366583 -0.025331 0.0684797 -0.386516 
-0.018775 0.0659429 -0.405744 -0.0121299 0.0629073 -0.42417 -0.00548026 0.0593575 -0.44172 
0.0010789 0.0553045 -0.458349 0.00744897 0.0507872 -0.474042 0.0135344 0.0458718 -0.488812 
0.0192491 0.0406484 -0.502693 0.024521 0.0352266 -0.515735 0.0292959 0.0297289 -0.527987 
0.0335386 0.0242828 -0.539493 0.0372331 0.0190139 -0.550276 0.0403809 0.0140378 -0.56034 
0.0429988 0.00945423 -0.56966 0.045116 0.00534152 -0.578192 0.0467706 0.00175358 -0.585877 
0.0480074 -0.00128174 -0.592653 0.0488753 -0.00376241 -0.598466 0.0494252 -0.00571022 -0.603282 
0.0497092 -0.0071675 -0.607102 0.0497791 -0.00819291 -0.609964 0.049686 -0.00885651 -0.611948 
0.0494795 -0.00923467 -0.613176 0.0492067 -0.00940508 -0.613796 0.0489108 -0.00944213 -0.613979 
0.0486306 -0.00941274 -0.613895 0.0483983 -0.009373 -0.6137 0.0482384 -0.00936535 -0.613521 
0.0481666 -0.00941662 -0.613438 
LINES 2 100
OFFSETS vtktypeint64
0 100 
CONNECTIVITY vtktypeint64
0 1 2 3 4 5 6 7 8 
9 10 11 12 13 14 15 16 17 
18 19 20 21 22 23 24 25 26 
27 28 29 30 31 32 33 34 35 
36 37 38 39 40 41 42 43 44 
45 46 47 48 49 50 51 52 53 
54 55 56 57 58 59 60 61 62 
63 64 65 66 67 68 69 70 71 
72 73 74 75 76 77 78 79 80 
81 82 83 84 85 86 87 88 89 
90 91 92 93 94 95 96 97 98 
99 
POINT_DATA 100
FIELD FieldData 3
_theta 1 100 double
0 0.031733259127 0.063466518254 0.095199777382 0.12693303651 0.15866629564 0.19039955476 0.22213281389 0.25386607302 
0.28559933214 0.31733259127 0.3490658504 0.38079910953 0.41253236865 0.44426562778 0.47599888691 0.50773214603 0.53946540516 
0.57119866429 0.60293192342 0.63466518254 0.66639844167 0.6981317008 0.72986495992 0.76159821905 0.79333147818 0.82506473731 
0.85679799643 0.88853125556 0.92026451469 0.95199777382 0.98373103294 1.0154642921 1.0471975512 1.0789308103 1.1106640695 
1.1423973286 1.1741305877 1.2058638468 1.237597106 1.2693303651 1.3010636242 1.3327968833 1.3645301425 1.3962634016 
1.4279966607 1.4597299198 1.491463179 1.5231964381 1.5549296972 1.5866629564 1.6183962155 1.6501294746 1.6818627337 
1.7135959929 1.745329252 1.7770625111 1.8087957702 1.8405290294 1.8722622885 1.9039955476 1.9357288068 1.9674620659 
1.999195325 2.0309285841 2.0626618433 2.0943951024 2.1261283615 2.1578616206 2.1895948798 2.2213281389 2.253061398 
2.2847946572 2.3165279163 2.3482611754 2.3799944345 2.4117276937 2.4434609528 2.4751942119 2.506927471 2.5386607302 
2.5703939893 2.6021272484 2.6338605076 2.6655937667 2.6973270258 2.7290602849 2.7607935441 2.7925268032 2.8242600623 
2.8559933214 2.8877265806 2.9194598397 2.9511930988 2.982926358 3.0146596171 3.0463928762 3.0781261353 3.1098593945 
3.1415926536 
_radius 1 100 double
1.5559222153e-15 0.011738178913 0.023545712189 0.035469913602 0.047527694066 0.059696565518 0.07191134383 0.084066655965 0.09602466753 
0.10762694808 0.11870899353 0.12911562522 0.13871537556 0.14741214693 0.15515290912 0.16193087853 0.16778430833 0.1727915108 
0.17706293367 0.18073109039 0.18393907652 0.18682843769 0.18952731128 0.19213995065 0.19473881325 0.1973602225 0.20000415342 
0.20263801171 0.20520354893 0.20762549991 0.2098203256 0.21170366075 0.21319562011 0.21422382377 0.21472465484 0.21464368397 
0.2139362808 0.21256919437 0.21052346122 0.207798563 0.20441739331 0.20043129613 0.1959241749 0.19101444858 0.18585351275 
0.18061947583 0.17550547868 0.17070306278 0.16638277212 0.16267587441 0.15966176502 0.15736451058 0.15575919395 0.154785251 
0.15436148777 0.15439738506 0.15479766382 0.15546052356 0.15627311788 0.15710985641 0.15783872878 0.15833686803 0.15851087732 
0.15831447486 0.15775756563 0.15690457288 0.15586314129 0.15476646143 0.15375355532 0.15295167478 0.15246334736 0.15235827872 
0.15266862809 0.15338597231 0.15445931977 0.15579482038 0.15725838432 0.15868201122 0.1598736937 0.16062992435 0.16074942328 
0.16004667434 0.15836404198 0.15558151348 0.15162340949 0.14646169347 0.14011576794 0.13264887208 0.12416141078 0.11478177378 
0.10465544705 0.093933443769 0.082761226334 0.071269289538 0.059566395948 0.047736094739 0.035836643827 0.023903878122 0.011956107338 
4.4584114674e-16 
_area 1 100 double
0 0.00038241325752 0.0015357423888 0.003475127868 0.0062160019429 0.0097615874463 0.014089573849 0.019141248189 0.024815904206 
0.030972313611 0.037437682696 0.044022981568 0.050542007865 0.056830419164 0.062760814519 0.068251173381 0.073266152519 0.077812593349 
0.081931160357 0.085685777944 0.089152450879 0.092409351663 0.095530135238 0.098581540417 0.10162410077 0.10471177359 0.1078847376 
0.11115321747 0.11447973231 0.1177741013 0.12090884743 0.1237474028 0.12617004874 0.12808685761 0.12943516651 0.13016583525 
0.13022687837 0.12955451171 0.12807861977 0.1257422685 0.12252763875 0.11847832755 0.1137105415 0.10841054896 0.10281978126 
0.097209914708 0.091848555 0.086957132468 0.082672964213 0.079035777964 0.076001278831 0.073464735536 0.071290374568 0.069353308006 
0.067582961321 0.065986536289 0.064644108599 0.063665962656 0.063092025614 0.062816643458 0.06263443809 0.062310779522 0.061658400825 
0.060602851505 0.05919904928 0.057606311007 0.056039826153 0.054712699308 0.053786552972 0.053349972728 0.053427109391 0.054003540347 
0.055052240034 0.056544313124 0.058439536423 0.060664439326 0.063095643861 0.06555868239 0.067838061548 0.069695271553 0.070893683302 
0.071225649849 0.070535311988 0.068732851722 0.065799848625 0.06178836087 0.056816823397 0.051063936022 0.044759172813 0.03816759439 
0.031568225226 0.025228343168 0.019378576676 0.014194250735 0.0097869485045 0.0062078359357 0.003461756429 0.0015279919749 0.00038035383571 
1.2307811801e-17 
