# vtk DataFile Version 5.1
vtk output
ASCII
DATASET POLYDATA
POINTS 100 float
0.171796 0.0121392 0.637423 0.171703 0.0123676 0.637342 0.171469 0.0128934 0.636997 
0.171043 0.0136972 0.636366 0.170346 0.0147485 0.63541 0.169287 0.0160079 0.634084 
0.167777 0.0174292 0.632334 0.165739 0.0189626 0.630104 0.163127 0.0205582 0.627338 
0.159931 0.0221688 0.623988 0.156182 0.0237537 0.62001 0.151948 0.0252808 0.615373 
0.147331 0.0267288 0.610055 0.142449 0.0280882 0.604049 0.137425 0.0293609 0.59736 
0.13237 0.0305594 0.590002 0.127369 0.0317043 0.582 0.122469 0.0328204 0.573388 
0.117675 0.0339338 0.564204 0.112947 0.0350669 0.554492 0.108208 0.0362344 0.544296 
0.103357 0.0374405 0.533665 0.0982793 0.0386758 0.522644 0.0928643 0.039917 0.51128 
0.0870227 0.0411274 0.499614 0.0806977 0.0422593 0.487687 0.0738731 0.0432582 0.475534 
0.0665765 0.0440675 0.463183 0.0588744 0.0446351 0.450657 0.0508639 0.0449189 0.437965 
0.0426584 0.0448924 0.425108 0.0343721 0.0445495 0.412074 0.0261043 0.0439068 0.398834 
0.0179251 0.0430045 0.385347 0.00986684 0.0419051 0.371559 0.00192031 0.0406896 0.357399 
-0.00596243 0.0394522 0.342792 -0.0138589 0.0382935 0.327652 -0.0218619 0.037313 0.311896 
-0.0300621 0.0366017 0.295442 -0.0385299 0.0362356 0.278221 -0.0472977 0.0362701 0.260176 
-0.0563474 0.0367367 0.241274 -0.065603 0.0376416 0.221504 -0.0749294 0.0389667 0.200881 
-0.0841396 0.040672 0.179449 -0.0930076 0.0427006 0.157277 -0.101287 0.0449836 0.134455 
-0.10873 0.0474462 0.111093 -0.115113 0.0500136 0.0873123 -0.120253 0.0526152 0.0632403 
-0.124024 0.0551891 0.0390026 -0.126367 0.057684 0.0147171 -0.127291 0.0600597 -0.00951133 
-0.126869 0.0622871 -0.0335952 -0.12523 0.0643462 -0.0574667 -0.122537 0.0662239 -0.0810779 
-0.118976 0.067911 -0.1044 -0.114732 0.0694004 -0.127421 -0.109973 0.0706846 -0.150138 
-0.10484 0.071755 -0.172558 -0.0994334 0.0726007 -0.194689 -0.093813 0.0732094 -0.216534 
-0.0880007 0.073568 -0.23809 -0.0819874 0.0736634 -0.259343 -0.0757439 0.073484 -0.280269 
-0.0692331 0.0730198 -0.300832 -0.0624229 0.0722633 -0.320985 -0.0552965 0.0712091 -0.340675 
-0.0478602 0.0698532 -0.359847 -0.0401472 0.068192 -0.378446 -0.0322175 0.0662216 -0.396423 
-0.0241547 0.0639369 -0.413739 -0.0160593 0.0613318 -0.430366 -0.00804069 0.0583997 -0.446292 
-0.000209386 0.0551353 -0.461517 0.00733066 0.0515372 -0.476057 0.0144875 0.0476107 -0.489937 
0.0211846 0.0433714 -0.503191 0.0273614 0.0388485 -0.515857 0.0329723 0.0340869 -0.527973 
0.0379837 0.0291484 -0.539573 0.0423712 0.0241114 -0.550684 0.046116 0.0190686 -0.561324 
0.0492041 0.0141224 -0.571499 0.0516253 0.0093792 -0.581204 0.0533758 0.00494276 -0.590425 
0.0544611 0.000906146 -0.599137 0.0549007 -0.00265527 -0.60731 0.0547328 -0.00569001 -0.614908 
0.0540179 -0.0081748 -0.621895 0.0528411 -0.0101164 -0.628236 0.0513113 -0.011551 -0.633898 
0.0495581 -0.0125399 -0.638854 0.047725 -0.0131638 -0.643079 0.0459607 -0.0135144 -0.646557 
0.0444086 -0.0136847 -0.649272 0.0431949 -0.0137595 -0.651216 0.0424189 -0.0138068 -0.652383 
0.0421438 -0.0138699 -0.652767 
LINES 2 100
OFFSETS vtktypeint64
0 100 
CONNECTIVITY vtktypeint64
0 1 2 3 4 5 6 7 8 
9 10 11 12 13 14 15 16 17 
18 19 20 21 22 23 24 25 26 
27 28 29 30 31 32 33 34 35 
36 37 38 39 40 41 42 43 44 
45 46 47 48 49 50 51 52 53 
54 55 56 57 58 59 60 61 62 
63 64 65 66 67 68 69 70 71 
72 73 74 75 76 77 78 79 80 
81 82 83 84 85 86 87 88 89 
90 91 92 93 94 95 96 97 98 
99 
POINT_DATA 100
FIELD FieldData 3
_theta 1 100 double
0 0.031733259127 0.063466518254 0.095199777382 0.12693303651 0.15866629564 0.19039955476 0.22213281389 0.25386607302 
0.28559933214 0.31733259127 0.3490658504 0.38079910953 0.41253236865 0.44426562778 0.47599888691 0.50773214603 0.53946540516 
0.57119866429 0.60293192342 0.63466518254 0.66639844167 0.6981317008 0.72986495992 0.76159821905 0.79333147818 0.82506473731 
0.85679799643 0.88853125556 0.92026451469 0.95199777382 0.98373103294 1.0154642921 1.0471975512 1.0789308103 1.1106640695 
1.1423973286 1.1741305877 1.2058638468 1.237597106 1.2693303651 1.3010636242 1.3327968833 1.3645301425 1.3962634016 
1.4279966607 1.4597299198 1.491463179 1.5231964381 1.5549296972 1.5866629564 1.6183962155 1.6501294746 1.6818627337 
1.7135959929 1.745329252 1.7770625111 1.8087957702 1.8405290294 1.8722622885 1.9039955476 1.9357288068 1.9674620659 
1.999195325 2.0309285841 2.0626618433 2.0943951024 2.1261283615 2.1578616206 2.1895948798 2.2213281389 2.253061398 
2.2847946572 2.3165279163 2.3482611754 2.3799944345 2.4117276937 2.4434609528 2.4751942119 2.506927471 2.5386607302 
2.5703939893 2.6021272484 2.6338605076 2.6655937667 2.6973270258 2.7290602849 2.7607935441 2.7925268032 2.8242600623 
2.8559933214 2.8877265806 2.9194598397 2.9511930988 2.982926358 3.0146596171 3.0463928762 3.0781261353 3.1098593945 
3.1415926536 
_radius 1 100 double
1.3668927524e-15 0.015361631819 0.030596511777 0.045583357642 0.060215391253 0.074406575272 0.088096061861 0.10124992503 0.11385937666 
0.12593510846 0.13749812883 0.14856834787 0.15915298305 0.16923731316 0.17878010759 0.18771509376 0.19595833981 0.20341996281 
0.210017675 0.21568960423 0.22040442286 0.22416768835 0.22702402352 0.229055158 0.23037404224 0.23111550973 0.23142443008 
0.23144279252 0.23129735873 0.23108924726 0.23088621808 0.23071789585 0.23057397968 0.23040559002 0.23013001726 0.22963902131 
0.22881046177 0.22752255105 0.22566955155 0.22317734534 0.22001706242 0.21621497968 0.2118572625 0.2070887068 0.20210520648 
0.19714005695 0.19244452644 0.18826376328 0.18481041168 0.18224012347 0.18063443523 0.17999566578 0.18025494434 0.18128981343 
0.182945035 0.18505093424 0.18743684308 0.18994048132 0.19241549741 0.19473862338 0.1968162425 0.19858910857 0.20003398509 
0.20116163805 0.20201133522 0.20264250957 0.20312450869 0.20352545005 0.20390126068 0.20428616299 0.2046862031 0.20507750673 
0.20541002733 0.20561548605 0.2056163031 0.20533218831 0.20468276606 0.20358686672 0.20196066412 0.19971711798 0.19676830072 
0.1930307383 0.18843260822 0.18292099511 0.17646746692 0.16907078547 0.16075632212 0.15157248797 0.14158505627 0.13087056204 
0.1195099786 0.10758362564 0.095167850347 0.082333568152 0.069146366607 0.05566763647 0.041956123559 0.028069379135 0.014064778071 
4.6327593776e-16 
_area 1 100 double
0 0.00056213960923 0.0022236302546 0.0049123510838 0.0085171508095 0.012901630553 0.017922671126 0.023451012632 0.029389478022 
0.035683815165 0.042321716301 0.049317278031 0.056682307915 0.064392770261 0.072363697865 0.080443682843 0.088431679264 0.096109996633 
0.10328215172 0.10980388313 0.11559959485 0.12066257854 0.12504225647 0.12882336944 0.13210154292 0.13495986871 0.13745317107 
0.13960741179 0.14143669292 0.14297015648 0.14427298897 0.14544559693 0.14659253483 0.14776678141 0.14891602019 0.14987098253 
0.15038935893 0.15022302246 0.14917141717 0.14710911781 0.1439936145 0.13986541268 0.13484800723 0.12914466381 0.12302398875 
0.11679158037 0.11075344941 0.10518082964 0.10028466303 0.096205138085 0.093017533311 0.090736791068 0.089284204755 0.088475040223 
0.088099199482 0.087990503582 0.088040632769 0.088183973427 0.088371542559 0.088549297872 0.088651053845 0.08860246409 0.08832916763 
0.087772497131 0.086913383041 0.085792056785 0.08451241681 0.083227847486 0.08211103518 0.081318761179 0.080962571246 0.081082268205 
0.081625774409 0.08247054573 0.083485743181 0.084560800462 0.085573986263 0.086368610419 0.08677611689 0.086637456824 0.08580584579 
0.084151298237 0.081573799776 0.078020373904 0.073499932786 0.068091116075 0.061939994702 0.05524694507 0.048244994748 0.041174429929 
0.03425940152 0.027691341751 0.021621690659 0.016163704629 0.011400856179 0.0073979054768 0.0042102623442 0.00188817114 0.00047475043851 
1.6544680324e-17 
