# vtk DataFile Version 5.1
vtk output
ASCII
DATASET POLYDATA
POINTS 100 float
0.0643252 0.0529216 0.659159 0.0643376 0.0530751 0.658779 0.0643942 0.0533845 0.657477 
0.0644834 0.0538098 0.655285 0.0645861 0.0542904 0.652259 0.0646763 0.0547527 0.648469 
0.0647223 0.0551201 0.643995 0.0646877 0.0553224 0.638923 0.0645334 0.0553049 0.633331 
0.0642206 0.0550347 0.627294 0.0637135 0.0545049 0.620867 0.0629819 0.0537343 0.614093 
0.0620047 0.0527644 0.606997 0.0607721 0.0516532 0.599589 0.059286 0.0504671 0.591862 
0.0575608 0.0492717 0.583806 0.0556211 0.0481236 0.575402 0.0534988 0.0470632 0.566633 
0.0512288 0.0461101 0.557484 0.0488438 0.0452622 0.547949 0.046369 0.0444972 0.53803 
0.0438177 0.0437772 0.527735 0.0411879 0.0430553 0.517083 0.0384612 0.0422839 0.506096 
0.0356032 0.0414213 0.494799 0.0325677 0.0404391 0.483214 0.0293012 0.0393261 0.471362 
0.0257511 0.0380901 0.459256 0.0218722 0.0367567 0.446902 0.0176354 0.035366 0.434298 
0.0130327 0.0339672 0.421437 0.00808143 0.0326122 0.408308 0.00282505 0.0313495 0.394895 
-0.00266986 0.0302196 0.381187 -0.0083193 0.0292511 0.367175 -0.0140304 0.0284609 0.352855 
-0.0197118 0.0278552 0.338229 -0.0252836 0.0274337 0.323308 -0.0306877 0.0271949 0.308103 
-0.0358939 0.0271411 0.292632 -0.0409036 0.0272839 0.276909 -0.0457488 0.0276469 0.260946 
-0.0504864 0.0282666 0.244747 -0.0551888 0.0291904 0.228306 -0.0599306 0.0304712 0.211605 
-0.0647746 0.0321608 0.194616 -0.0697576 0.0343005 0.177299 -0.0748775 0.0369127 0.159607 
-0.0800856 0.039993 0.14149 -0.0852828 0.0435051 0.122898 -0.0903219 0.0473783 0.103788 
-0.0950166 0.0515101 0.0841245 -0.0991546 0.0557718 0.0638912 -0.102516 0.0600181 0.0430879 
-0.104892 0.0640996 0.0217353 -0.106105 0.0678758 -0.000125545 -0.106026 0.0712276 -0.0224342 
-0.104587 0.0740689 -0.0451131 -0.101788 0.076353 -0.0680716 -0.0976949 0.0780759 -0.09121 
-0.0924367 0.0792742 -0.114424 -0.086189 0.080018 -0.137611 -0.0791575 0.0804 -0.160671 
-0.0715584 0.0805224 -0.18351 -0.0635978 0.0804818 -0.206047 -0.0554539 0.0803559 -0.228208 
-0.0472631 0.0801919 -0.249932 -0.0391121 0.0799998 -0.271166 -0.031037 0.0797496 -0.291866 
-0.0230277 0.0793742 -0.311994 -0.0150392 0.0787775 -0.331517 -0.00700655 0.0778455 -0.350406 
0.00113859 0.0764606 -0.36863 0.00945086 0.0745165 -0.386164 0.0179571 0.0719314 -0.402978 
0.0266463 0.0686596 -0.419045 0.0354648 0.0646978 -0.434341 0.0443183 0.0600877 -0.448841 
0.0530783 0.0549127 -0.462524 0.0615947 0.0492914 -0.475373 0.0697102 0.0433662 -0.487377 
0.0772763 0.0372913 -0.498531 0.0841688 0.0312191 -0.508834 0.090299 0.0252882 -0.518295 
0.0956221 0.0196143 -0.526928 0.100139 0.0142837 -0.534752 0.103895 0.0093514 -0.541795 
0.10697 0.0048426 -0.548086 0.109466 0.000757485 -0.553661 0.111499 -0.00292157 -0.558559 
0.113181 -0.0062219 -0.56282 0.114608 -0.00917256 -0.566487 0.115855 -0.0117977 -0.569601 
0.116968 -0.0141122 -0.572205 0.117964 -0.0161194 -0.574335 0.118838 -0.0178121 -0.576029 
0.119565 -0.0191751 -0.577315 0.120114 -0.0201896 -0.578219 0.120453 -0.0208376 -0.57876 
0.12056 -0.0211062 -0.578947 
LINES 2 100
OFFSETS vtktypeint64
0 100 
CONNECTIVITY vtktypeint64
0 1 2 3 4 5 6 7 8 
9 10 11 12 13 14 15 16 17 
18 19 20 21 22 23 24 25 26 
27 28 29 30 31 32 33 34 35 
36 37 38 39 40 41 42 43 44 
45 46 47 48 49 50 51 52 53 
54 55 56 57 58 59 60 61 62 
63 64 65 66 67 68 69 70 71 
72 73 74 75 76 77 78 79 80 
81 82 83 84 85 86 87 88 89 
90 91 92 93 94 95 96 97 98 
99 
POINT_DATA 100
FIELD FieldData 3
_theta 1 100 double
0 0.031733259127 0.063466518254 0.095199777382 0.12693303651 0.15866629564 0.19039955476 0.22213281389 0.25386607302 
0.28559933214 0.31733259127 0.3490658504 0.38079910953 0.41253236865 0.44426562778 0.47599888691 0.50773214603 0.53946540516 
0.57119866429 0.60293192342 0.63466518254 0.66639844167 0.6981317008 0.72986495992 0.76159821905 0.79333147818 0.82506473731 
0.85679799643 0.88853125556 0.92026451469 0.95199777382 0.98373103294 1.0154642921 1.0471975512 1.0789308103 1.1106640695 
1.1423973286 1.1741305877 1.2058638468 1.237597106 1.2693303651 1.3010636242 1.3327968833 1.3645301425 1.3962634016 
1.4279966607 1.4597299198 1.491463179 1.5231964381 1.5549296972 1.5866629564 1.6183962155 1.6501294746 1.6818627337 
1.7135959929 1.745329252 1.7770625111 1.8087957702 1.8405290294 1.8722622885 1.9039955476 1.9357288068 1.9674620659 
1.999195325 2.0309285841 2.0626618433 2.0943951024 2.1261283615 2.1578616206 2.1895948798 2.2213281389 2.253061398 
2.2847946572 2.3165279163 2.3482611754 2.3799944345 2.4117276937 2.4434609528 2.4751942119 2.506927471 2.5386607302 
2.5703939893 2.6021272484 2.6338605076 2.6655937667 2.6973270258 2.7290602849 2.7607935441 2.7925268032 2.8242600623 
2.8559933214 2.8877265806 2.9194598397 2.9511930988 2.982926358 3.0146596171 3.0463928762 3.0781261353 3.1098593945 
3.1415926536 
_radius 1 100 double
1.6655658173e-15 0.012477351842 0.024954830749 0.037417223837 0.049836812342 0.062171357774 0.074365277462 0.086353580053 0.098067635095 
0.1094416293 0.12041858194 0.13095500724 0.14102366382 0.15061423078 0.15973208485 0.16839554063 0.17663194633 0.18447296043 
0.19194926515 0.19908497676 0.20589213131 0.21236584591 0.21848100932 0.22419150755 0.22943288583 0.23412888649 0.23820151556 
0.24158337122 0.24423020685 0.24613137077 0.24731598549 0.24785344181 0.24784779512 0.24742673218 0.24672670207 0.24587639329 
0.24498088332 0.24410851449 0.24328202784 0.24247493901 0.24161369078 0.24058569855 0.23925284666 0.23746924009 0.23510123638 
0.2320472449 0.2282546599 0.22373159545 0.21855171659 0.21285129583 0.20681858208 0.2006765984 0.19466154177 0.18899992765 
0.18388819923 0.17947819344 0.17587021038 0.17311277901 0.17120589127 0.17010418225 0.16971888533 0.16992097504 0.17054980625 
0.17142957641 0.17239119558 0.17329360683 0.17403887402 0.17457830728 0.17490992392 0.17506930593 0.17511647391 0.17512123169 
0.17514894208 0.17524812968 0.17544081989 0.17571615708 0.1760275622 0.17629343326 0.17640113375 0.17621377344 0.17557909642 
0.17433966926 0.17234349904 0.1694541924 0.16555980146 0.16057961826 0.15446839115 0.14721771806 0.13885466886 0.12943795471 
0.11905216949 0.10780077107 0.095798546371 0.083164315607 0.070014576285 0.056458663402 0.042595807613 0.028514221265 0.014292074264 
8.0351692939e-16 
_area 1 100 double
0 0.00047183722027 0.0018831237936 0.0042184060377 0.0074440123433 0.01150032949 0.016297508053 0.021717765571 0.027625252179 
0.033881898709 0.040365581019 0.046985763303 0.053691745855 0.060470040538 0.067330641972 0.074286762 0.081336649021 0.08845569953 
0.095601142594 0.1027243427 0.10978235948 0.11674182335 0.12357242886 0.1302325336 0.13665363295 0.14273150725 0.14832915062 
0.15329234524 0.15747468856 0.1607656765 0.16311424218 0.16454194015 0.16514420189 0.16508346545 0.16458604814 0.16395070738 
0.16342708137 0.16305534547 0.16286840719 0.16286077395 0.16273447151 0.16228713713 0.16129057481 0.15959379608 0.15698212246 
0.15347101706 0.14895450302 0.14339934068 0.13694661587 0.12985358745 0.12244326519 0.11505062238 0.10797361123 0.10143491823 
0.095561643105 0.090388122647 0.085882165662 0.081988611542 0.078676151097 0.075919305758 0.073711426373 0.072061642421 0.071002167666 
0.070527888012 0.070505487999 0.070694446964 0.070863536764 0.070862897747 0.07063217844 0.070180892715 0.069562775502 0.068854968466 
0.068146568316 0.067534650641 0.06712508467 0.067036569273 0.067367426478 0.068044716267 0.068873025155 0.06965852605 0.070207810229 
0.070324570006 0.069819201269 0.068525696241 0.066320981661 0.063142350848 0.058999361555 0.053977745343 0.048234328174 0.041983473652 
0.035476969924 0.028980420699 0.022749804091 0.017011681848 0.011949608021 0.007697980678 0.0043433505671 0.0019321846471 0.00048305141818 
9.7545333367e-18 
