# vtk DataFile Version 5.1
vtk output
ASCII
DATASET POLYDATA
POINTS 100 float
0.113283 0.0497052 0.688172 0.113311 0.0497499 0.688112 0.113483 0.0497448 0.6878 
0.113768 0.0497277 0.687217 0.114115 0.0497554 0.686332 0.114459 0.0498946 0.685099 
0.11473 0.0502108 0.68346 0.114855 0.0507573 0.68134 0.114771 0.0515649 0.678656 
0.114422 0.0526348 0.675318 0.113771 0.053935 0.671234 0.112793 0.0554008 0.66632 
0.111482 0.0569405 0.660506 0.109842 0.0584434 0.653749 0.107888 0.0597922 0.646034 
0.105635 0.060875 0.637388 0.103099 0.0615976 0.627871 0.100289 0.0618943 0.617581 
0.0972071 0.0617344 0.606648 0.093843 0.0611252 0.595219 0.0901793 0.0601102 0.583449 
0.0861921 0.0587635 0.571486 0.0818563 0.0571798 0.559458 0.0771503 0.0554629 0.547458 
0.0720621 0.0537135 0.535538 0.0665934 0.0520174 0.523706 0.0607631 0.0504368 0.511922 
0.054609 0.049004 0.500109 0.0481858 0.0477207 0.488162 0.0415626 0.0465604 0.475959 
0.0348166 0.0454756 0.463378 0.0280267 0.044407 0.450311 0.0212657 0.0432951 0.436675 
0.0145928 0.0420915 0.422419 0.00804823 0.0407683 0.407527 0.00164874 0.0393258 0.392015 
-0.00461296 0.037795 0.375926 -0.0107664 0.0362374 0.359314 -0.0168582 0.0347394 0.342232 
-0.0229448 0.033404 0.324724 -0.0290823 0.0323398 0.306805 -0.0353169 0.0316493 0.288462 
-0.0416749 0.0314168 0.269645 -0.0481537 0.0316996 0.250275 -0.0547167 0.0325204 0.230251 
-0.0612902 0.0338657 0.209464 -0.067765 0.035686 0.187813 -0.0740011 0.037902 0.165222 
-0.0798364 0.0404124 0.141657 -0.0850981 0.043105 0.117134 -0.0896148 0.0458675 0.0917295 
-0.0932304 0.0485989 0.0655772 -0.0958157 0.0512179 0.0388608 -0.097279 0.0536696 0.0118015 
-0.0975726 0.055928 -0.0153603 -0.0966963 0.0579948 -0.0423859 -0.0946961 0.0598956 -0.0690584 
-0.0916599 0.0616724 -0.0952007 -0.0877089 0.0633755 -0.12069 -0.0829871 0.0650534 -0.145462 
-0.0776494 0.0667445 -0.169517 -0.0718494 0.0684696 -0.192906 -0.0657287 0.070227 -0.215723 
-0.0594079 0.0719906 -0.238085 -0.0529809 0.0737108 -0.260117 -0.046512 0.0753178 -0.28193 
-0.0400376 0.0767279 -0.303606 -0.0335696 0.0778506 -0.325189 -0.0271022 0.0785962 -0.346677 
-0.0206201 0.078884 -0.368028 -0.0141071 0.0786483 -0.389162 -0.00755396 0.0778442 -0.409974 
-0.000965655 0.0764499 -0.430351 0.00563467 0.0744685 -0.450182 0.0122037 0.0719272 -0.469373 
0.0186789 0.0688747 -0.487857 0.0249823 0.0653779 -0.505595 0.0310264 0.0615179 -0.52258 
0.036721 0.0573853 -0.538826 0.0419817 0.0530759 -0.554361 0.0467368 0.048687 -0.569213 
0.0509336 0.0443135 -0.5834 0.0545436 0.040045 -0.596919 0.0575637 0.0359635 -0.609736 
0.0600166 0.0321411 -0.621791 0.0619474 0.0286379 -0.632996 0.0634197 0.0255009 -0.643247 
0.0645085 0.0227622 -0.652439 0.065294 0.0204386 -0.660477 0.0658545 0.0185303 -0.667296 
0.06626 0.017022 -0.672872 0.0665684 0.0158833 -0.677232 0.0668217 0.0150709 -0.680457 
0.067046 0.0145312 -0.682678 0.0672521 0.0142041 -0.684067 0.0674385 0.0140275 -0.684821 
0.0675955 0.0139418 -0.685141 0.0677091 0.0138946 -0.685212 0.0677661 0.0138452 -0.685183 
0.0677574 0.0137674 -0.685152 
LINES 2 100
OFFSETS vtktypeint64
0 100 
CONNECTIVITY vtktypeint64
0 1 2 3 4 5 6 7 8 
9 10 11 12 13 14 15 16 17 
18 19 20 21 22 23 24 25 26 
27 28 29 30 31 32 33 34 35 
36 37 38 39 40 41 42 43 44 
45 46 47 48 49 50 51 52 53 
54 55 56 57 58 59 60 61 62 
63 64 65 66 67 68 69 70 71 
72 73 74 75 76 77 78 79 80 
81 82 83 84 85 86 87 88 89 
90 91 92 93 94 95 96 97 98 
99 
POINT_DATA 100
FIELD FieldData 3
_theta 1 100 double
0 0.031733259127 0.063466518254 0.095199777382 0.12693303651 0.15866629564 0.19039955476 0.22213281389 0.25386607302 
0.28559933214 0.31733259127 0.3490658504 0.38079910953 0.41253236865 0.44426562778 0.47599888691 0.50773214603 0.53946540516 
0.57119866429 0.60293192342 0.63466518254 0.66639844167 0.6981317008 0.72986495992 0.76159821905 0.79333147818 0.82506473731 
0.85679799643 0.88853125556 0.92026451469 0.95199777382 0.98373103294 1.0154642921 1.0471975512 1.0789308103 1.1106640695 
1.1423973286 1.1741305877 1.2058638468 1.237597106 1.2693303651 1.3010636242 1.3327968833 1.3645301425 1.3962634016 
1.4279966607 1.4597299198 1.491463179 1.5231964381 1.5549296972 1.5866629564 1.6183962155 1.6501294746 1.6818627337 
1.7135959929 1.745329252 1.7770625111 1.8087957702 1.8405290294 1.8722622885 1.9039955476 1.9357288068 1.9674620659 
1.999195325 2.0309285841 2.0626618433 2.0943951024 2.1261283615 2.1578616206 2.1895948798 2.2213281389 2.253061398 
2.2847946572 2.3165279163 2.3482611754 2.3799944345 2.4117276937 2.4434609528 2.4751942119 2.506927471 2.5386607302 
2.5703939893 2.6021272484 2.6338605076 2.6655937667 2.6973270258 2.7290602849 2.7607935441 2.7925268032 2.8242600623 
2.8559933214 2.8877265806 2.9194598397 2.9511930988 2.982926358 3.0146596171 3.0463928762 3.0781261353 3.1098593945 
3.1415926536 
_radius 1 100 double
7.8602692458e-16 0.015625012383 0.031138447839 0.046428608038 0.061387830461 0.075914649634 0.089916254671 0.10331142624 0.11603404606 
0.12803703652 0.13929623627 0.14981335773 0.15961696145 0.16876045851 0.17731657443 0.18536841991 0.19299815183 0.20027493649 
0.20724430345 0.21392085511 0.22028569061 0.22628899966 0.23185733792 0.23690432903 0.24134307748 0.24509845735 0.24811762556 
0.25037749412 0.25188836823 0.25269342532 0.25286414884 0.25249225887 0.25167910192 0.25052381085 0.24911171283 0.24750438524 
0.24573250976 0.2437924249 0.241647129 0.23923231763 0.23646759356 0.23327216143 0.22958330563 0.22537507311 0.22067408072 
0.2155693484 0.21021355899 0.20481416986 0.19961434288 0.19486566335 0.1907968764 0.18758482047 0.18533435026 0.18407213602 
0.18375455493 0.18428435446 0.18552784362 0.18732620779 0.18949989908 0.19185046256 0.19416637773 0.19623716512 0.19787472334 
0.19893638454 0.19934316074 0.1990886412 0.19823694887 0.19691063471 0.19527100622 0.19349426794 0.19174714104 0.19016537887 
0.18883783284 0.18779757226 0.18702029384 0.18642919701 0.18590485645 0.1852983714 0.18444604838 0.1831839324 0.1813606144 
0.17884698077 0.17554202851 0.1713745541 0.16630130042 0.16030278602 0.15337834361 0.14554177824 0.13681857922 0.12724494189 
0.11686817984 0.10574762048 0.093954907814 0.081572830848 0.0686923121 0.055407891113 0.041812700122 0.02799428722 0.014032498465 
3.2022360091e-16 
_area 1 100 double
0 0.00054018818598 0.0021499025636 0.004798348543 0.008438778076 0.013011640556 0.018443961957 0.024644467661 0.03149736555 
0.038859584067 0.046565347794 0.054439220252 0.062315806035 0.070062082454 0.077597011161 0.084902754272 0.092022835555 0.099045397655 
0.10607414955 0.11319425578 0.12044310955 0.1277949436 0.13516325461 0.14241805137 0.14940994014 0.15599273084 0.16203934949 
0.1674492732 0.17214819837 0.17608244652 0.17921162401 0.18150326443 0.18293274568 0.18349035815 0.18319418924 0.18210240231 
0.18031467938 0.17795540659 0.17514078348 0.17194095673 0.16836811843 0.16436204171 0.1597636291 0.1544199663 0.14828201016 
0.14145959239 0.13421171847 0.12690346293 0.11994495811 0.11372278735 0.10853119434 0.10451226428 0.10163795161 0.099775101354 
0.098783291276 0.098512981482 0.098792359316 0.099444639809 0.10028054017 0.10110024533 0.10170906623 0.10193924296 0.10166752388 
0.10081965552 0.099365147958 0.097316980824 0.094742832765 0.091775850444 0.088610403887 0.085481250855 0.082633177027 0.080287874817 
0.078613255127 0.077694650343 0.077551260203 0.078270962591 0.079502504442 0.080885424614 0.082141785114 0.083022180368 0.083313318148 
0.082847686697 0.081507972582 0.07922485925 0.075970941786 0.071755884868 0.06662697257 0.060675145092 0.054042252433 0.046923621086 
0.039561701469 0.032229880205 0.025208732434 0.018759162747 0.013097852685 0.0083803441305 0.0046959963882 0.0020766722095 0.00051707159493 
2.8091050049e-17 
