# vtk DataFile Version 5.1
vtk output
ASCII
DATASET POLYDATA
POINTS 100 float
0.0801147 0.0708419 0.713499 0.0802673 0.0709875 0.713222 0.0807974 0.071232 0.712237 
0.0816522 0.0715553 0.710574 0.0827497 0.071926 0.708275 0.0839883 0.0723042 0.705391 
0.085257 0.072645 0.701969 0.0864471 0.0729024 0.698041 0.0874624 0.0730328 0.693624 
0.0882268 0.0729986 0.688707 0.0886895 0.0727704 0.683254 0.0888253 0.0723288 0.677206 
0.088632 0.0716647 0.670488 0.088124 0.0707788 0.663019 0.087324 0.0696807 0.654721 
0.0862539 0.068386 0.645535 0.0849264 0.0669151 0.635429 0.0833378 0.06529 0.624408 
0.0814653 0.0635331 0.612518 0.0792663 0.0616653 0.599843 0.0766828 0.0597054 0.586505 
0.0736483 0.0576699 0.57265 0.0700972 0.0555736 0.558438 0.0659758 0.0534302 0.544029 
0.0612517 0.0512537 0.529567 0.055922 0.0490593 0.515168 0.0500184 0.0468647 0.500911 
0.0436072 0.0446903 0.48683 0.0367856 0.04256 0.472915 0.0296741 0.0404999 0.459114 
0.0224044 0.0385386 0.445343 0.015107 0.0367057 0.431496 0.00789709 0.0350305 0.417454 
0.000862946 0.0335414 0.403105 -0.00594312 0.0322644 0.388345 -0.0125092 0.0312225 0.373095 
-0.018863 0.0304357 0.3573 -0.025066 0.0299202 0.340934 -0.0312027 0.0296891 0.323993 
-0.0373667 0.0297523 0.306491 -0.0436439 0.0301169 0.288451 -0.0500975 0.0307869 0.269902 
-0.0567529 0.0317634 0.250861 -0.0635882 0.0330439 0.231339 -0.0705287 0.0346218 0.211331 
-0.0774478 0.0364851 0.190816 -0.0841741 0.0386159 0.169768 -0.090503 0.0409897 0.148152 
-0.0962138 0.0435746 0.125941 -0.101088 0.0463319 0.103118 -0.104928 0.0492164 0.07969 
-0.107575 0.052178 0.0556864 -0.108924 0.0551633 0.0311671 -0.108929 0.0581181 0.00622033 
-0.10761 0.0609896 -0.0190417 -0.105047 0.063729 -0.0444894 -0.101371 0.0662933 -0.0699854 
-0.0967514 0.0686467 -0.0953948 -0.0913786 0.0707611 -0.120596 -0.0854467 0.0726162 -0.145487 
-0.0791358 0.0741979 -0.169997 -0.0725979 0.0754968 -0.194083 -0.0659462 0.0765059 -0.217733 
-0.0592496 0.077218 -0.240963 -0.0525327 0.0776239 -0.263804 -0.0457802 0.0777104 -0.286301 
-0.0389465 0.0774596 -0.308498 -0.0319674 0.0768493 -0.330428 -0.0247745 0.075854 -0.352108 
-0.0173079 0.074447 -0.373531 -0.00952886 0.0726036 -0.394666 -0.00142881 0.0703043 -0.415454 
0.00696552 0.0675379 -0.435817 0.0155908 0.064305 -0.455661 0.0243501 0.0606195 -0.474884 
0.0331196 0.0565104 -0.493385 0.0417582 0.0520209 -0.511073 0.0501184 0.0472078 -0.527872 
0.0580577 0.0421382 -0.543728 0.0654502 0.0368865 -0.558609 0.0721944 0.0315305 -0.572508 
0.0782206 0.0261468 -0.585439 0.0834937 0.0208075 -0.597434 0.0880133 0.015577 -0.608536 
0.0918112 0.0105096 -0.618797 0.0949455 0.00564897 -0.628268 0.097494 0.00102808 -0.636999 
0.0995457 -0.00332969 -0.645032 0.101193 -0.00740843 -0.6524 0.102524 -0.0111974 -0.659126 
0.103617 -0.0146884 -0.665225 0.104534 -0.0178738 -0.670703 0.105322 -0.0207444 -0.67556 
0.10601 -0.0232892 -0.679792 0.106611 -0.0254945 -0.683391 0.107125 -0.027345 -0.686351 
0.107546 -0.028825 -0.688663 0.107859 -0.0299199 -0.690322 0.108054 -0.0306175 -0.691321 
0.108121 -0.03091 -0.691656 
LINES 2 100
OFFSETS vtktypeint64
0 100 
CONNECTIVITY vtktypeint64
0 1 2 3 4 5 6 7 8 
9 10 11 12 13 14 15 16 17 
18 19 20 21 22 23 24 25 26 
27 28 29 30 31 32 33 34 35 
36 37 38 39 40 41 42 43 44 
45 46 47 48 49 50 51 52 53 
54 55 56 57 58 59 60 61 62 
63 64 65 66 67 68 69 70 71 
72 73 74 75 76 77 78 79 80 
81 82 83 84 85 86 87 88 89 
90 91 92 93 94 95 96 97 98 
99 
POINT_DATA 100
FIELD FieldData 3
_theta 1 100 double
0 0.031733259127 0.063466518254 0.095199777382 0.12693303651 0.15866629564 0.19039955476 0.22213281389 0.25386607302 
0.28559933214 0.31733259127 0.3490658504 0.38079910953 0.41253236865 0.44426562778 0.47599888691 0.50773214603 0.53946540516 
0.57119866429 0.60293192342 0.63466518254 0.66639844167 0.6981317008 0.72986495992 0.76159821905 0.79333147818 0.82506473731 
0.85679799643 0.88853125556 0.92026451469 0.95199777382 0.98373103294 1.0154642921 1.0471975512 1.0789308103 1.1106640695 
1.1423973286 1.1741305877 1.2058638468 1.237597106 1.2693303651 1.3010636242 1.3327968833 1.3645301425 1.3962634016 
1.4279966607 1.4597299198 1.491463179 1.5231964381 1.5549296972 1.5866629564 1.6183962155 1.6501294746 1.6818627337 
1.7135959929 1.745329252 1.7770625111 1.8087957702 1.8405290294 1.8722622885 1.9039955476 1.9357288068 1.9674620659 
1.999195325 2.0309285841 2.0626618433 2.0943951024 2.1261283615 2.1578616206 2.1895948798 2.2213281389 2.253061398 
2.2847946572 2.3165279163 2.3482611754 2.3799944345 2.4117276937 2.4434609528 2.4751942119 2.506927471 2.5386607302 
2.5703939893 2.6021272484 2.6338605076 2.6655937667 2.6973270258 2.7290602849 2.7607935441 2.7925268032 2.8242600623 
2.8559933214 2.8877265806 2.9194598397 2.9511930988 2.982926358 3.0146596171 3.0463928762 3.0781261353 3.1098593945 
3.1415926536 
_radius 1 100 double
1.3452151411e-15 0.013451033727 0.027010304046 0.040754136785 0.054717226766 0.068880246236 0.08316556572 0.097441493064 0.11153406003 
0.12524435607 0.13836886242 0.15072013476 0.16214540395 0.17254110368 0.18186190421 0.19012346561 0.19739876477 0.2038084563 
0.2095062871 0.2146611058 0.219437488 0.22397735911 0.22838507857 0.23271808931 0.2369844083 0.24114709914 0.24513468256 
0.2488554482 0.25221303603 0.2551206188 0.25751154866 0.25934523372 0.26060798701 0.26130940834 0.26147542288 0.26113941601 
0.26033302749 0.25907815918 0.25738163406 0.25523369126 0.25261105123 0.24948460147 0.24583088982 0.24164573336 0.23695757776 
0.2318379626 0.22640663449 0.22082946925 0.21530837418 0.2100637677 0.20531205311 0.20124229705 0.19799709538 0.19566133606 
0.19425935156 0.19375754235 0.19406831351 0.19505317264 0.19652674596 0.19826618477 0.20002939977 0.20158115726 0.20272160534 
0.2033103961 0.20328142407 0.20264630486 0.20148729343 0.19994186901 0.19818191677 0.19639059887 0.19473976115 0.19337014618 
0.19237594382 0.19179456128 0.19160210879 0.19171487132 0.19199664014 0.1922710051 0.19233678441 0.19198422998 0.19100987798 
0.18922880896 0.18648411932 0.18265401803 0.17765691118 0.17145435563 0.16405134133 0.15549336847 0.14586024243 0.13525717132 
0.12380432614 0.11162633542 0.098843197519 0.085563835183 0.07188302506 0.057881741149 0.043630162606 0.029191952994 0.014628223036 
9.1178715545e-16 
_area 1 100 double
0 0.0005012869294 0.002024584092 0.0046207089973 0.0083515502481 0.013262495188 0.019354575455 0.026562944587 0.03474668252 
0.043692408011 0.053131129076 0.062764825062 0.072297311675 0.081463646539 0.090053613464 0.09792685194 0.10501901952 0.11133958493 
0.11696262214 0.12201255409 0.12664712315 0.1310396754 0.13536201214 0.13976791614 0.14437685089 0.1492582491 0.1544192459 
0.15980039754 0.1652819926 0.17069931855 0.17586321073 0.18058293219 0.18468867567 0.18804968501 0.19058323433 0.19225142236 
0.19304651775 0.19296963459 0.19201032919 0.19013528032 0.18729177886 0.18342656257 0.17851469782 0.17258955485 0.16576466915 
0.15824066482 0.15029421561 0.14225036952 0.13444318955 0.12717074517 0.12064996909 0.1149815901 0.11014853088 0.10606985803 
0.10269197 0.10006850757 0.098380017894 0.09769162181 0.097796747252 0.098391388063 0.09910578595 0.099554326578 0.099408968091 
0.098457216359 0.096630072405 0.093999373791 0.090750146005 0.0871375898 0.083442003809 0.079935435532 0.076867451362 0.07446659289 
0.072943150761 0.072456942059 0.073042635821 0.074578677485 0.076825503432 0.079471786065 0.082167295246 0.08454982476 0.08626974117 
0.087014101899 0.086531435955 0.08465549824 0.081323845565 0.076586740074 0.070603391467 0.063624962567 0.055966396612 0.047971475255 
0.039977089169 0.032283035621 0.025132472347 0.018705556179 0.01312537016 0.0084719945543 0.0047986374161 0.0021440107082 0.00053780084866 
1.3877787808e-17 
