# vtk DataFile Version 5.1
vtk output
ASCII
DATASET POLYDATA
POINTS 100 float
0.0760033 0.053755 0.665547 0.0761477 0.0539534 0.66555 0.0766277 0.0543969 0.665388 
0.0774012 0.0550724 0.664995 0.0784028 0.0559587 0.66427 0.0795499 0.0570266 0.663082 
0.0807504 0.0582396 0.661289 0.0819113 0.0595543 0.658747 0.0829461 0.0609209 0.655323 
0.0837806 0.0622848 0.650909 0.0843569 0.0635878 0.645432 0.0846344 0.0647701 0.638855 
0.0845891 0.0657724 0.631183 0.0842093 0.0665383 0.622458 0.0834916 0.0670172 0.612757 
0.0824352 0.067167 0.602181 0.0810368 0.0669563 0.590847 0.0792873 0.0663672 0.578879 
0.0771695 0.0653961 0.566395 0.0746583 0.0640553 0.553506 0.0717237 0.0623727 0.540304 
0.0683343 0.0603907 0.526863 0.0644632 0.0581641 0.513238 0.0600927 0.0557574 0.499463 
0.0552201 0.0532409 0.485562 0.0498599 0.050687 0.471543 0.0440459 0.0481654 0.457412 
0.0378295 0.0457397 0.443169 0.031276 0.0434638 0.428811 0.0244596 0.0413791 0.414338 
0.0174564 0.0395139 0.399743 0.010338 0.037883 0.385018 0.00316526 0.0364892 0.370149 
-0.00401562 0.0353256 0.355107 -0.0111747 0.0343794 0.339854 -0.0182969 0.0336359 0.324338 
-0.0253786 0.0330822 0.308492 -0.0324204 0.0327113 0.292239 -0.0394203 0.0325252 0.275496 
-0.0463649 0.032536 0.258179 -0.0532224 0.0327669 0.240212 -0.0599378 0.0332504 0.221531 
-0.0664303 0.0340261 0.202095 -0.0725949 0.0351363 0.181891 -0.0783078 0.0366217 0.160935 
-0.0834348 0.0385161 0.139274 -0.0878418 0.0408411 0.116989 -0.0914078 0.0436026 0.0941823 
-0.0940361 0.0467871 0.0709788 -0.0956652 0.0503603 0.0475134 -0.0962754 0.0542677 0.023923 
-0.0958928 0.0584356 0.000337685 -0.0945872 0.0627752 -0.0231278 -0.0924666 0.0671868 -0.0463801 
-0.089667 0.0715653 -0.0693514 -0.0863396 0.0758055 -0.0920009 -0.0826367 0.0798075 -0.114314 
-0.0786967 0.083481 -0.136297 -0.0746323 0.0867489 -0.157975 -0.0705204 0.0895491 -0.179381 
-0.0663975 0.0918349 -0.20055 -0.0622589 0.0935748 -0.221516 -0.0580629 0.0947502 -0.242299 
-0.0537397 0.0953535 -0.262907 -0.0492026 0.0953849 -0.283329 -0.0443617 0.0948504 -0.303537 
-0.0391368 0.0937594 -0.323489 -0.0334705 0.0921236 -0.343126 -0.0273366 0.0899562 -0.362386 
-0.0207467 0.0872726 -0.381198 -0.0137513 0.0840913 -0.399496 -0.00643722 0.0804352 -0.417218 
0.00107862 0.0763332 -0.434313 0.00865858 0.0718213 -0.450739 0.0161552 0.0669433 -0.46647 
0.0234224 0.0617506 -0.481492 0.0303263 0.0563009 -0.4958 0.0367537 0.0506567 -0.509401 
0.0426179 0.0448826 -0.522309 0.0478625 0.0390421 -0.53454 0.0524606 0.033195 -0.546113 
0.0564131 0.0273943 -0.557046 0.0597437 0.0216847 -0.567353 0.0624934 0.0161016 -0.577047 
0.0647144 0.0106709 -0.586135 0.0664648 0.00541059 -0.594622 0.0678035 0.000332875 -0.60251 
0.0687874 -0.00455292 -0.609799 0.0694693 -0.00923712 -0.616489 0.0698975 -0.0137066 -0.622578 
0.0701163 -0.0179423 -0.628068 0.0701669 -0.0219176 -0.632959 0.0700888 -0.0255978 -0.637257 
0.0699201 -0.028941 -0.640965 0.0696982 -0.0319001 -0.644089 0.0694586 -0.0344258 -0.646634 
0.0692344 -0.0364706 -0.648608 0.069054 -0.0379919 -0.650013 0.0689396 -0.0389565 -0.650853 
0.0689052 -0.0393431 -0.65113 
LINES 2 100
OFFSETS vtktypeint64
0 100 
CONNECTIVITY vtktypeint64
0 1 2 3 4 5 6 7 8 
9 10 11 12 13 14 15 16 17 
18 19 20 21 22 23 24 25 26 
27 28 29 30 31 32 33 34 35 
36 37 38 39 40 41 42 43 44 
45 46 47 48 49 50 51 52 53 
54 55 56 57 58 59 60 61 62 
63 64 65 66 67 68 69 70 71 
72 73 74 75 76 77 78 79 80 
81 82 83 84 85 86 87 88 89 
90 91 92 93 94 95 96 97 98 
99 
POINT_DATA 100
FIELD FieldData 3
_theta 1 100 double
0 0.031733259127 0.063466518254 0.095199777382 0.12693303651 0.15866629564 0.19039955476 0.22213281389 0.25386607302 
0.28559933214 0.31733259127 0.3490658504 0.38079910953 0.41253236865 0.44426562778 0.47599888691 0.50773214603 0.53946540516 
0.57119866429 0.60293192342 0.63466518254 0.66639844167 0.6981317008 0.72986495992 0.76159821905 0.79333147818 0.82506473731 
0.85679799643 0.88853125556 0.92026451469 0.95199777382 0.98373103294 1.0154642921 1.0471975512 1.0789308103 1.1106640695 
1.1423973286 1.1741305877 1.2058638468 1.237597106 1.2693303651 1.3010636242 1.3327968833 1.3645301425 1.3962634016 
1.4279966607 1.4597299198 1.491463179 1.5231964381 1.5549296972 1.5866629564 1.6183962155 1.6501294746 1.6818627337 
1.7135959929 1.745329252 1.7770625111 1.8087957702 1.8405290294 1.8722622885 1.9039955476 1.9357288068 1.9674620659 
1.999195325 2.0309285841 2.0626618433 2.0943951024 2.1261283615 2.1578616206 2.1895948798 2.2213281389 2.253061398 
2.2847946572 2.3165279163 2.3482611754 2.3799944345 2.4117276937 2.4434609528 2.4751942119 2.506927471 2.5386607302 
2.5703939893 2.6021272484 2.6338605076 2.6655937667 2.6973270258 2.7290602849 2.7607935441 2.7925268032 2.8242600623 
2.8559933214 2.8877265806 2.9194598397 2.9511930988 2.982926358 3.0146596171 3.0463928762 3.0781261353 3.1098593945 
3.1415926536 
_radius 1 100 double
7.8654742157e-16 0.014222176989 0.028354565021 0.042305240607 0.055988607189 0.069327507121 0.082254245024 0.094710695373 0.10664784424 
0.11802512333 0.12880976409 0.13897622856 0.14850567165 0.15738541361 0.16560852411 0.17317374806 0.18008603744 0.18635784394 
0.1920110937 0.197079486 0.20161052024 0.20566652418 0.20932394528 0.21267025962 0.21579805549 0.21879624307 0.22173903866 
0.22467431362 0.22761367582 0.23052668427 0.23334068218 0.23594633799 0.23820783942 0.2399761637 0.24110381637 0.24145958858 
0.24094205752 0.23949075898 0.23709425195 0.23379466044 0.22968860524 0.22492459355 0.21969685646 0.21423541806 0.20879210164 
0.20362252842 0.19896509339 0.19501924672 0.19192662173 0.18975886878 0.1885149095 0.18812786379 0.18847917878 0.1894159059 
0.1907673354 0.19235879271 0.19402219333 0.19560414461 0.19697278763 0.19802424199 0.19868860894 0.19893449648 0.1987706143 
0.19824337371 0.19743027507 0.19642970736 0.19534837832 0.19428792828 0.19333241977 0.19253836666 0.19192870287 0.19149149187 
0.1911832459 0.19093568745 0.19066404076 0.19027480211 0.18967143988 0.18875741296 0.18743696918 0.1856150601 0.18319802196 
0.1800962067 0.17622869812 0.17152919092 0.16595157509 0.15947387278 0.15209967005 0.14385676779 0.13479329282 0.12497194783 
0.11446343498 0.10334029175 0.091672322421 0.079524440899 0.066957125465 0.054028988894 0.040800393641 0.027336766518 0.013710393853 
7.6197460266e-16 
_area 1 100 double
0 0.00055834992569 0.0022159038299 0.0049214240623 0.008593539581 0.013126306503 0.018396086379 0.024268945514 0.030607709658 
0.0372778509 0.044151583852 0.051109972009 0.058043439503 0.064851586431 0.071443358007 0.07773841713 0.083670168994 0.089190355456 
0.094274504793 0.098926988134 0.10318439345 0.10711657266 0.1108254355 0.11444117542 0.11811380705 0.12199588134 0.12621194824 
0.13081649669 0.13575912174 0.14088193176 0.14594712058 0.15067197054 0.15475865066 0.15791925643 0.15989964745 0.16050355339 
0.15961556574 0.15722014763 0.15341356468 0.1484037291 0.14248629069 0.13598694121 0.12920408752 0.12240911133 0.11587458978 
0.1098726033 0.10464368926 0.1003576762 0.097080901076 0.094763365053 0.093258384357 0.092369726444 0.09190626516 0.091719338837 
0.091673661678 0.091674237414 0.091563137759 0.091278247303 0.090783737899 0.090063248964 0.089113103388 0.087938677739 0.08655560079 
0.084993386854 0.083302782876 0.081564435179 0.079840792834 0.078186844197 0.076679330499 0.075399835302 0.074431626298 0.0738688989 
0.073720991246 0.073995527952 0.0746102359 0.075459742213 0.076460746048 0.07751574933 0.078499965057 0.079244496642 0.079537599019 
0.079151118539 0.077880327676 0.075581382439 0.072196050672 0.067759720982 0.062393653059 0.056285793046 0.049665982158 0.042781090427 
0.035874075874 0.029168957222 0.02286185728 0.017117087853 0.012066891387 0.0078136973572 0.0044340011987 0.0019828277956 0.00049752355789 
3.9801967121e-17 
