# vtk DataFile Version 5.1
vtk output
ASCII
DATASET POLYDATA
POINTS 100 float
0.130707 0.0225081 0.647329 0.130658 0.0227529 0.647279 0.130602 0.023319 0.646948 
0.130517 0.024171 0.646291 0.130369 0.0252556 0.64524 0.130115 0.0265081 0.643707 
0.129713 0.0278599 0.641598 0.12912 0.029247 0.638814 0.128301 0.0306163 0.635264 
0.127231 0.0319308 0.630875 0.125893 0.0331717 0.625594 0.124279 0.0343383 0.619395 
0.122388 0.0354436 0.612281 0.120215 0.0365095 0.604286 0.117756 0.0375588 0.595466 
0.114995 0.0386086 0.585899 0.111909 0.0396632 0.57568 0.10846 0.0407099 0.564907 
0.104606 0.0417171 0.553682 0.100298 0.0426356 0.542097 0.0954902 0.0434032 0.530235 
0.0901475 0.0439513 0.518161 0.0842521 0.0442144 0.505921 0.0778101 0.0441389 0.493545 
0.0708557 0.0436923 0.481042 0.0634518 0.0428694 0.46841 0.0556871 0.0416966 0.455634 
0.0476695 0.040232 0.442691 0.0395173 0.0385623 0.429555 0.0313475 0.0367957 0.4162 
0.0232642 0.0350525 0.402599 0.0153483 0.0334547 0.388728 0.00764882 0.0321143 0.374565 
0.000179167 0.0311237 0.360088 -0.00708264 0.0305482 0.345274 -0.0141888 0.0304217 0.330094 
-0.021212 0.0307465 0.314516 -0.0282329 0.0314961 0.298502 -0.0353248 0.0326224 0.282003 
-0.0425396 0.034064 0.264968 -0.0498946 0.0357563 0.247339 -0.0573633 0.0376411 0.229058 
-0.0648718 0.0396742 0.210072 -0.0722997 0.0418315 0.190336 -0.0794877 0.0441096 0.169817 
-0.0862497 0.0465252 0.148502 -0.0923885 0.049109 0.1264 -0.0977133 0.0518979 0.103545 
-0.102057 0.054926 0.0799949 -0.105292 0.0582138 0.0558343 -0.107339 0.0617605 0.031169 
-0.108176 0.0655366 0.00612293 -0.107832 0.0694814 -0.0191673 -0.106388 0.0735032 -0.0445586 
-0.103959 0.0774839 -0.069908 -0.100685 0.0812868 -0.0950786 -0.0967098 0.0847671 -0.119946 
-0.0921702 0.0877837 -0.1444 -0.0871791 0.0902105 -0.168353 -0.0818183 0.0919473 -0.191736 
-0.076134 0.0929274 -0.214501 -0.0701382 0.0931222 -0.236618 -0.0638155 0.0925419 -0.258078 
-0.0571325 0.0912322 -0.27888 -0.0500513 0.0892682 -0.299037 -0.0425425 0.0867449 -0.318565 
-0.034597 0.0837676 -0.337484 -0.0262349 0.0804408 -0.355812 -0.0175109 0.0768591 -0.373564 
-0.00851404 0.0730997 -0.390753 0.000636639 0.0692177 -0.407385 0.00980052 0.0652446 -0.423462 
0.0188266 0.0611901 -0.438984 0.0275659 0.0570457 -0.453945 0.0358835 0.0527914 -0.468341 
0.043668 0.0484025 -0.482164 0.050839 0.0438574 -0.49541 0.0573489 0.0391434 -0.508074 
0.0631823 0.0342624 -0.520153 0.0683509 0.0292332 -0.531645 0.0728856 0.0240925 -0.542551 
0.0768278 0.0188931 -0.55287 0.0802206 0.0137006 -0.562604 0.0831012 0.00858855 -0.571752 
0.0854962 0.00363272 -0.580316 0.0874202 -0.0010941 -0.588296 0.0888774 -0.00552731 -0.595691 
0.0898667 -0.0096144 -0.602503 0.0903883 -0.0133175 -0.608732 0.0904517 -0.0166146 -0.61438 
0.0900831 -0.0194989 -0.619453 0.0893302 -0.0219778 -0.623956 0.0882652 -0.0240698 -0.627897 
0.0869835 -0.0258018 -0.631285 0.085599 -0.0272053 -0.634131 0.0842356 -0.0283137 -0.636447 
0.0830172 -0.0291584 -0.638241 0.0820562 -0.0297671 -0.639523 0.0814421 -0.0301607 -0.640299 
0.0812329 -0.0303526 -0.640572 
LINES 2 100
OFFSETS vtktypeint64
0 100 
CONNECTIVITY vtktypeint64
0 1 2 3 4 5 6 7 8 
9 10 11 12 13 14 15 16 17 
18 19 20 21 22 23 24 25 26 
27 28 29 30 31 32 33 34 35 
36 37 38 39 40 41 42 43 44 
45 46 47 48 49 50 51 52 53 
54 55 56 57 58 59 60 61 62 
63 64 65 66 67 68 69 70 71 
72 73 74 75 76 77 78 79 80 
81 82 83 84 85 86 87 88 89 
90 91 92 93 94 95 96 97 98 
99 
POINT_DATA 100
FIELD FieldData 3
_theta 1 100 double
0 0.031733259127 0.063466518254 0.095199777382 0.12693303651 0.15866629564 0.19039955476 0.22213281389 0.25386607302 
0.28559933214 0.31733259127 0.3490658504 0.38079910953 0.41253236865 0.44426562778 0.47599888691 0.50773214603 0.53946540516 
0.57119866429 0.60293192342 0.63466518254 0.66639844167 0.6981317008 0.72986495992 0.76159821905 0.79333147818 0.82506473731 
0.85679799643 0.88853125556 0.92026451469 0.95199777382 0.98373103294 1.0154642921 1.0471975512 1.0789308103 1.1106640695 
1.1423973286 1.1741305877 1.2058638468 1.237597106 1.2693303651 1.3010636242 1.3327968833 1.3645301425 1.3962634016 
1.4279966607 1.4597299198 1.491463179 1.5231964381 1.5549296972 1.5866629564 1.6183962155 1.6501294746 1.6818627337 
1.7135959929 1.745329252 1.7770625111 1.8087957702 1.8405290294 1.8722622885 1.9039955476 1.9357288068 1.9674620659 
1.999195325 2.0309285841 2.0626618433 2.0943951024 2.1261283615 2.1578616206 2.1895948798 2.2213281389 2.253061398 
2.2847946572 2.3165279163 2.3482611754 2.3799944345 2.4117276937 2.4434609528 2.4751942119 2.506927471 2.5386607302 
2.5703939893 2.6021272484 2.6338605076 2.6655937667 2.6973270258 2.7290602849 2.7607935441 2.7925268032 2.8242600623 
2.8559933214 2.8877265806 2.9194598397 2.9511930988 2.982926358 3.0146596171 3.0463928762 3.0781261353 3.1098593945 
3.1415926536 
_radius 1 100 double
1.3555018684e-15 0.015757303451 0.031334376223 0.046559389622 0.061284273659 0.075392854552 0.088805308578 0.10147899687 0.11340620057 
0.12460942848 0.13513490884 0.14504476081 0.15440830469 0.16329307293 0.17175629873 0.17983788605 0.18755595666 0.19490589268 
0.20186327949 0.20839036813 0.2144448361 0.21998904765 0.22499794723 0.22946417422 0.23339972004 0.23683414224 0.23980982056 
0.24237499796 0.24457548704 0.24644600853 0.24800221769 0.24923462901 0.25010582184 0.25055224891 0.25049137926 0.24983377464 
0.24849841443 0.24642868142 0.24360621173 0.24006026952 0.23587119819 0.23116758425 0.22611785176 0.22091788574 0.21577670812 
0.21090200188 0.20648650574 0.20269551013 0.19965551132 0.19744469133 0.19608675198 0.19554992383 0.19575226986 0.19657295088 
0.19786758619 0.19948489505 0.20128177516 0.20313473113 0.2049466654 0.20664906237 0.20820033865 0.20958157718 0.21079100433 
0.21183838274 0.21274003626 0.21351471538 0.21418019908 0.21475047723 0.21523342598 0.21562891192 0.21592721739 0.21610767346 
0.21613750858 0.21597112266 0.21555012455 0.21480440949 0.21365432837 0.21201376614 0.20979385167 0.20690709901 0.20327192113 
0.19881751042 0.1934889585 0.18725221767 0.18009819075 0.17204500515 0.16313750395 0.15344327415 0.14304517682 0.13203128633 
0.12048415338 0.10847198045 0.096044204309 0.083232915748 0.070059771383 0.056546259076 0.042724130986 0.028642908874 0.014372438228 
1.3909468012e-15 
_area 1 100 double
0 0.00064605085828 0.0025591844587 0.0056654234658 0.0098454433807 0.014941623973 0.020769393121 0.027132894433 0.033843598626 
0.04073899353 0.047697617941 0.054647024305 0.061562880999 0.068459759608 0.075376095159 0.082356563993 0.08943483689 0.096619138526 
0.10388301722 0.11116407676 0.11837264195 0.12540903548 0.13218375081 0.13863264411 0.14472094319 0.1504348633 0.15576658723 
0.16070332831 0.16522828568 0.16933110064 0.17301694108 0.17630349231 0.17925000385 0.1817799076 0.18368086693 0.18471223871 
0.18456929758 0.18299075195 0.17982326398 0.17494019308 0.16846371587 0.1607110416 0.15215324688 0.14334271427 0.1348221515 
0.12703790207 0.12028097577 0.11466913529 0.11017089914 0.10665927325 0.10397042102 0.10194517758 0.10044622761 0.099355110813 
0.098561545414 0.097960797894 0.097455703347 0.096965314992 0.096442711586 0.095879458263 0.095299477291 0.094744106188 0.0942158254 
0.09369887166 0.093197461569 0.092740930621 0.09238180181 0.092187395167 0.092227572803 0.092560647312 0.09321716582 0.094192850041 
0.095455438252 0.096933959115 0.098510169147 0.10002786522 0.10131244791 0.10218811317 0.1024892853 0.10206718022 0.10079373471 
0.098565991845 0.095313450857 0.091008461791 0.085676887283 0.07940486721 0.072338305704 0.064673957783 0.056643492608 0.048493677894 
0.040466490256 0.032782645888 0.025631071601 0.019165381386 0.01350658157 0.0087494000222 0.0049687591318 0.0022237287349 0.0005582896173 
3.2950521918e-17 
