# vtk DataFile Version 5.1
vtk output
ASCII
DATASET POLYDATA
POINTS 100 float
0.120294 0.0472448 0.648337 0.120431 0.0473674 0.648138 0.120884 0.0475553 0.647358 
0.121594 0.0478043 0.645983 0.122469 0.0481088 0.643991 0.123391 0.0484618 0.641359 
0.124229 0.0488545 0.638064 0.124848 0.0492759 0.634085 0.125124 0.0497125 0.629414 
0.12495 0.0501479 0.624049 0.124248 0.0505624 0.618004 0.122967 0.0509327 0.611306 
0.121091 0.0512324 0.603991 0.118631 0.0514325 0.596109 0.115623 0.0515021 0.587712 
0.11212 0.0514104 0.578859 0.108183 0.0511285 0.569601 0.103876 0.0506317 0.559989 
0.0992561 0.0499019 0.550059 0.0943717 0.0489301 0.539837 0.0892579 0.0477184 0.529338 
0.0839374 0.0462811 0.518563 0.0784224 0.044646 0.507502 0.0727185 0.0428531 0.496139 
0.066829 0.0409535 0.484453 0.0607597 0.0390067 0.472424 0.0545226 0.0370773 0.460036 
0.0481381 0.0352308 0.447279 0.0416357 0.0335298 0.434151 0.0350521 0.0320296 0.42066 
0.0284281 0.030775 0.406821 0.021804 0.0297983 0.392654 0.0152144 0.0291176 0.378181 
0.00868386 0.0287375 0.36342 0.00222301 0.0286506 0.348387 -0.00417275 0.0288398 0.333082 
-0.0105225 0.029282 0.317495 -0.0168563 0.0299516 0.301603 -0.0232099 0.0308244 0.285368 
-0.0296169 0.03188 0.26874 -0.0361007 0.0331039 0.251664 -0.0426665 0.0344884 0.234082 
-0.0492941 0.0360316 0.215938 -0.0559334 0.0377353 0.19719 -0.0625026 0.0396026 0.17781 
-0.0688906 0.0416345 0.157791 -0.0749619 0.043826 0.13715 -0.0805651 0.0461639 0.115927 
-0.0855446 0.0486243 0.0941884 -0.0897523 0.0511727 0.0720178 -0.0930603 0.0537645 0.0495143 
-0.095372 0.0563474 0.0267855 -0.0966308 0.0588651 0.00393963 -0.0968249 0.0612618 -0.0189208 
-0.0959889 0.0634867 -0.0417055 -0.0941998 0.0654983 -0.0643412 -0.0915706 0.0672676 -0.0867748 
-0.0882389 0.06878 -0.108974 -0.0843547 0.0700358 -0.130925 -0.0800667 0.071048 -0.152631 
-0.0755095 0.0718395 -0.174108 -0.0707922 0.0724386 -0.195375 -0.0659911 0.0728734 -0.216453 
-0.061145 0.0731675 -0.237357 -0.0562558 0.0733346 -0.258092 -0.051293 0.0733764 -0.278651 
-0.0462013 0.0732808 -0.299012 -0.0409115 0.0730225 -0.319142 -0.0353527 0.0725666 -0.338994 
-0.0294643 0.0718723 -0.358518 -0.0232071 0.0708991 -0.377657 -0.0165718 0.0696126 -0.396356 
-0.00958406 0.0679909 -0.414567 -0.0023059 0.0660287 -0.432247 0.00516701 0.063741 -0.449364 
0.0127117 0.0611631 -0.465893 0.0201872 0.0583499 -0.481819 0.0274458 0.0553715 -0.49713 
0.0343447 0.0523077 -0.511815 0.0407579 0.0492414 -0.525862 0.0465854 0.0462511 -0.539251 
0.0517609 0.0434043 -0.551956 0.0562551 0.0407521 -0.563943 0.0600761 0.0383256 -0.575168 
0.0632662 0.0361349 -0.585584 0.0658956 0.0341704 -0.595142 0.0680538 0.0324063 -0.603797 
0.0698399 0.0308058 -0.611513 0.0713521 0.029328 -0.618273 0.072679 0.0279339 -0.624076 
0.0738915 0.026593 -0.628947 0.0750384 0.0252874 -0.632933 0.0761435 0.0240146 -0.636103 
0.0772072 0.0227881 -0.638548 0.0782092 0.0216351 -0.640368 0.0791144 0.0205929 -0.64167 
0.0798799 0.0197035 -0.642557 0.0804625 0.0190079 -0.643119 0.0808257 0.0185402 -0.643429 
0.0809451 0.0183228 -0.64353 
LINES 2 100
OFFSETS vtktypeint64
0 100 
CONNECTIVITY vtktypeint64
0 1 2 3 4 5 6 7 8 
9 10 11 12 13 14 15 16 17 
18 19 20 21 22 23 24 25 26 
27 28 29 30 31 32 33 34 35 
36 37 38 39 40 41 42 43 44 
45 46 47 48 49 50 51 52 53 
54 55 56 57 58 59 60 61 62 
63 64 65 66 67 68 69 70 71 
72 73 74 75 76 77 78 79 80 
81 82 83 84 85 86 87 88 89 
90 91 92 93 94 95 96 97 98 
99 
POINT_DATA 100
FIELD FieldData 3
_theta 1 100 double
0 0.031733259127 0.063466518254 0.095199777382 0.12693303651 0.15866629564 0.19039955476 0.22213281389 0.25386607302 
0.28559933214 0.31733259127 0.3490658504 0.38079910953 0.41253236865 0.44426562778 0.47599888691 0.50773214603 0.53946540516 
0.57119866429 0.60293192342 0.63466518254 0.66639844167 0.6981317008 0.72986495992 0.76159821905 0.79333147818 0.82506473731 
0.85679799643 0.88853125556 0.92026451469 0.95199777382 0.98373103294 1.0154642921 1.0471975512 1.0789308103 1.1106640695 
1.1423973286 1.1741305877 1.2058638468 1.237597106 1.2693303651 1.3010636242 1.3327968833 1.3645301425 1.3962634016 
1.4279966607 1.4597299198 1.491463179 1.5231964381 1.5549296972 1.5866629564 1.6183962155 1.6501294746 1.6818627337 
1.7135959929 1.745329252 1.7770625111 1.8087957702 1.8405290294 1.8722622885 1.9039955476 1.9357288068 1.9674620659 
1.999195325 2.0309285841 2.0626618433 2.0943951024 2.1261283615 2.1578616206 2.1895948798 2.2213281389 2.253061398 
2.2847946572 2.3165279163 2.3482611754 2.3799944345 2.4117276937 2.4434609528 2.4751942119 2.506927471 2.5386607302 
2.5703939893 2.6021272484 2.6338605076 2.6655937667 2.6973270258 2.7290602849 2.7607935441 2.7925268032 2.8242600623 
2.8559933214 2.8877265806 2.9194598397 2.9511930988 2.982926358 3.0146596171 3.0463928762 3.0781261353 3.1098593945 
3.1415926536 
_radius 1 100 double
3.5928464276e-16 0.01402027812 0.027933861713 0.041635041443 0.055034648991 0.068065391441 0.080684069468 0.092870812875 0.10462581976 
0.1159642259 0.12690977787 0.13748800824 0.14771962017 0.15761478509 0.16716905186 0.17636151497 0.18515564831 0.19350267462 
0.20134667826 0.20863029574 0.21530001762 0.22131073208 0.2266296724 0.23124005204 0.23514438381 0.2383670273 0.24095518042 
0.24297750173 0.24451985336 0.24567819886 0.24654931975 0.24722055451 0.24776006425 0.24820910253 0.24857741718 0.24884235292 
0.24895165374 0.24882957354 0.2483857452 0.24752619896 0.24616576553 0.24424079075 0.24172076797 0.23861735912 0.23498941644 
0.23094298112 0.22662572554 0.22221587661 0.21790635225 0.21388572925 0.21031867078 0.20732919596 0.20499003338 0.2033198234 
0.2022875001 0.20182108887 0.20181776625 0.20215356888 0.20269321926 0.20330120893 0.20385402047 0.20425173267 0.20442696643 
0.20435013306 0.20403093641 0.20351622691 0.20288390347 0.20223245138 0.20166644229 0.20127972724 0.20113933344 0.2012733598 
0.20166509688 0.20225362765 0.20293931434 0.20359176719 0.20405834552 0.20417242665 0.20376175629 0.2026575635 0.20070468462 
0.19777204573 0.19376204339 0.18861707012 0.18232179557 0.17490069802 0.16641143494 0.15693558591 0.14656878886 0.13541216442 
0.12356624111 0.11112762505 0.098187776325 0.084832788491 0.071143152199 0.057193007915 0.043049054882 0.028769745317 0.014405453363 
9.6645162443e-16 
_area 1 100 double
0 0.00057113781714 0.00226255487 0.0050110863481 0.0087199755657 0.013269106639 0.018525932115 0.024356286113 0.030635304952 
0.037258527151 0.044151790976 0.051276797583 0.058628670323 0.066223500025 0.074077436514 0.082182896336 0.090489953405 0.098900151433 
0.10727520821 0.11545667043 0.1232887907 0.13063773732 0.13740380056 0.14352648847 0.14898393004 0.15378841203 0.15798026268 
0.1616225562 0.16479790657 0.16760523786 0.17015029062 0.17252364046 0.17477189227 0.17688225493 0.17878848758 0.18038247402 
0.18151805324 0.1820131647 0.18167139209 0.18034549886 0.17812322428 0.17494868667 0.17096786894 0.16620346998 0.16074733996 
0.15482544329 0.14872690569 0.14275143121 0.13716693252 0.13216452771 0.12782097698 0.12410458484 0.12092671985 0.11820096745 
0.11587818526 0.11397520337 0.11251733643 0.11138249321 0.11049919818 0.10977657013 0.10909478443 0.10832944619 0.10738776492 
0.10625839309 0.10491323785 0.10332493099 0.10155976306 0.099727441875 0.097965566906 0.096423801405 0.095243512241 0.094536156244 
0.094384871149 0.094782323261 0.095854370176 0.097400443338 0.099074992748 0.10065151143 0.10186738839 0.10243990463 0.10209812557 
0.10061818623 0.097854567067 0.093760567053 0.088393208347 0.081901868004 0.074504686411 0.066459995265 0.058040244255 0.049513280936 
0.041131717254 0.033127546939 0.025707850775 0.019048743731 0.013287815433 0.0085186623352 0.0047925512889 0.0021292281599 0.00053211762253 
2.8406198008e-17 
