# vtk DataFile Version 5.1
vtk output
ASCII
DATASET POLYDATA
POINTS 100 float
0.158102 0.0600448 0.727573 0.158022 0.0601646 0.727514 0.157886 0.0603651 0.727184 
0.157664 0.0606483 0.726534 0.157314 0.0610165 0.725483 0.15678 0.0614695 0.723931 
0.156004 0.0620035 0.721766 0.154929 0.0626079 0.718875 0.153504 0.0632648 0.715151 
0.151689 0.0639473 0.710506 0.149457 0.0646206 0.704882 0.14679 0.0652432 0.69825 
0.143683 0.0657696 0.690617 0.140134 0.0661534 0.682027 0.136147 0.0663512 0.672557 
0.13172 0.0663264 0.662308 0.126849 0.066052 0.6514 0.121526 0.0655135 0.63996 
0.115738 0.0647096 0.628112 0.109472 0.0636523 0.615966 0.102721 0.0623652 0.603609 
0.0954886 0.0608815 0.5911 0.0877954 0.0592405 0.578463 0.0796825 0.0574847 0.56569 
0.0712144 0.0556559 0.55274 0.0624778 0.0537937 0.539549 0.0535771 0.0519333 0.526034 
0.0446277 0.0501053 0.512104 0.0357453 0.0483362 0.497671 0.0270353 0.0466505 0.482657 
0.0185815 0.0450725 0.467001 0.010437 0.0436284 0.450667 0.00261714 0.0423486 0.433642 
-0.00490169 0.0412688 0.415939 -0.0121797 0.0404294 0.397588 -0.0193056 0.0398747 0.378638 
-0.0263845 0.03965 0.35914 -0.0335223 0.0397975 0.339147 -0.040809 0.0403522 0.318703 
-0.0483025 0.0413369 0.297839 -0.0560152 0.0427586 0.276569 -0.0639043 0.0446046 0.254893 
-0.0718696 0.0468416 0.232795 -0.0797558 0.0494157 0.21025 -0.0873635 0.0522548 0.187233 
-0.0944637 0.0552726 0.163724 -0.100818 0.0583746 0.139715 -0.106201 0.0614641 0.115218 
-0.110419 0.0644495 0.0902688 -0.11333 0.0672501 0.0649266 -0.114859 0.0698014 0.0392733 
-0.115 0.0720582 0.0134084 -0.113821 0.0739958 -0.0125577 -0.111451 0.0756087 -0.0385128 
-0.108072 0.0769076 -0.0643508 -0.103896 0.0779144 -0.0899807 -0.0991439 0.0786563 -0.115332 
-0.0940282 0.0791598 -0.140359 -0.0887297 0.0794449 -0.16504 -0.0833845 0.0795206 -0.189377 
-0.0780751 0.0793821 -0.213386 -0.072828 0.0790106 -0.237093 -0.0676176 0.0783747 -0.260526 
-0.0623768 0.0774339 -0.283702 -0.057011 0.0761444 -0.306626 -0.0514149 0.0744649 -0.329284 
-0.0454894 0.0723634 -0.351639 -0.0391567 0.0698227 -0.373639 -0.0323725 0.0668456 -0.395216 
-0.0251325 0.0634573 -0.4163 -0.0174743 0.059706 -0.436823 -0.00947464 0.0556612 -0.456729 
-0.00124105 0.0514099 -0.475982 0.00709818 0.0470505 -0.494574 0.0154065 0.0426862 -0.512523 
0.0235511 0.0384177 -0.529871 0.0314131 0.0343355 -0.54668 0.038896 0.030514 -0.563023 
0.045929 0.0270067 -0.578968 0.0524685 0.0238434 -0.594572 0.0584953 0.0210297 -0.609865 
0.0640095 0.0185482 -0.624843 0.0690248 0.0163622 -0.639463 0.0735609 0.0144204 -0.653643 
0.077639 0.0126632 -0.667263 0.0812766 0.0110285 -0.680181 0.0844866 0.00945839 -0.692241 
0.087277 0.00790411 -0.70329 0.0896539 0.00633064 -0.713196 0.0916243 0.00471932 -0.721859 
0.0932009 0.00306914 -0.729229 0.0944054 0.00139624 -0.735305 0.0952708 -0.000267964 -0.740144 
0.0958417 -0.00188 -0.743849 0.096173 -0.0033884 -0.746564 0.0963261 -0.00473835 -0.748457 
0.0963632 -0.00587645 -0.749699 0.096342 -0.00675531 -0.75045 0.0963089 -0.0073375 -0.75084 
0.0962945 -0.00759863 -0.750951 
LINES 2 100
OFFSETS vtktypeint64
0 100 
CONNECTIVITY vtktypeint64
0 1 2 3 4 5 6 7 8 
9 10 11 12 13 14 15 16 17 
18 19 20 21 22 23 24 25 26 
27 28 29 30 31 32 33 34 35 
36 37 38 39 40 41 42 43 44 
45 46 47 48 49 50 51 52 53 
54 55 56 57 58 59 60 61 62 
63 64 65 66 67 68 69 70 71 
72 73 74 75 76 77 78 79 80 
81 82 83 84 85 86 87 88 89 
90 91 92 93 94 95 96 97 98 
99 
POINT_DATA 100
FIELD FieldData 3
_theta 1 100 double
0 0.031733259127 0.063466518254 0.095199777382 0.12693303651 0.15866629564 0.19039955476 0.22213281389 0.25386607302 
0.28559933214 0.31733259127 0.3490658504 0.38079910953 0.41253236865 0.44426562778 0.47599888691 0.50773214603 0.53946540516 
0.57119866429 0.60293192342 0.63466518254 0.66639844167 0.6981317008 0.72986495992 0.76159821905 0.79333147818 0.82506473731 
0.85679799643 0.88853125556 0.92026451469 0.95199777382 0.98373103294 1.0154642921 1.0471975512 1.0789308103 1.1106640695 
1.1423973286 1.1741305877 1.2058638468 1.237597106 1.2693303651 1.3010636242 1.3327968833 1.3645301425 1.3962634016 
1.4279966607 1.4597299198 1.491463179 1.5231964381 1.5549296972 1.5866629564 1.6183962155 1.6501294746 1.6818627337 
1.7135959929 1.745329252 1.7770625111 1.8087957702 1.8405290294 1.8722622885 1.9039955476 1.9357288068 1.9674620659 
1.999195325 2.0309285841 2.0626618433 2.0943951024 2.1261283615 2.1578616206 2.1895948798 2.2213281389 2.253061398 
2.2847946572 2.3165279163 2.3482611754 2.3799944345 2.4117276937 2.4434609528 2.4751942119 2.506927471 2.5386607302 
2.5703939893 2.6021272484 2.6338605076 2.6655937667 2.6973270258 2.7290602849 2.7607935441 2.7925268032 2.8242600623 
2.8559933214 2.8877265806 2.9194598397 2.9511930988 2.982926358 3.0146596171 3.0463928762 3.0781261353 3.1098593945 
3.1415926536 
_radius 1 100 double
5.400314267e-16 0.016184158835 0.032173352603 0.047781076869 0.062848233696 0.077252769223 0.090914877445 0.10379746031 0.11590228397 
0.12726286391 0.13793539379 0.14798895636 0.15749591982 0.16652303899 0.17512356901 0.18333076168 0.19115336348 0.1985739284 
0.20555065892 0.21202301016 0.21792056192 0.22317392452 0.22772592739 0.23154117647 0.23461229246 0.23696172554 0.2386388889 
0.23971328547 0.24026507709 0.24037493688 0.24011493874 0.23954176157 0.23869283536 0.23758546537 0.23621859099 0.23457670923 
0.23263555452 0.23036923695 0.2277585417 0.22479986839 0.221513845 0.21795213142 0.21420059865 0.21037722438 0.20662388321 
0.20309266995 0.19992903001 0.19725505333 0.195156275 0.19367427909 0.19280582898 0.19250764893 0.19270478324 0.1933001041 
0.19418320025 0.19523811277 0.19635036525 0.19741391485 0.19833812841 0.19905419479 0.19951999894 0.19972255496 0.1996774891 
0.19942556074 0.19902663725 0.19855179934 0.1980743274 0.19766028501 0.19735942216 0.19719727028 0.19716950988 0.197239698 
0.19734102562 0.19738199397 0.19725507637 0.19684690192 0.1960483795 0.19476338554 0.1929150049 0.19044873216 0.18733246617 
0.18355355154 0.17911350908 0.17402140553 0.16828698489 0.16191468521 0.15489949202 0.14722526659 0.13886579418 0.12978839594 
0.11995960141 0.10935212552 0.097952250372 0.085766678442 0.072827995891 0.059198052413 0.044968807171 0.030260476601 0.015217112097 
3.0480912613e-16 
_area 1 100 double
0 0.00064563232567 0.002550363346 0.0056235537292 0.0097320892906 0.014722253694 0.0204417316 0.026756126366 0.033556162416 
0.040754910585 0.048278061838 0.056052849306 0.064001127553 0.072039371438 0.080084666221 0.088062990891 0.095915078242 0.10359590106 
0.11106629624 0.11827915265 0.12516672325 0.13163723774 0.13758541215 0.14291367943 0.14755457732 0.15148451244 0.15472415297 
0.15732662071 0.15935834706 0.16087858973 0.16192321448 0.16249660498 0.16257243677 0.16210123595 0.16102175798 0.15927398987 
0.15681261328 0.15361995315 0.1497171892 0.14517279802 0.1401070857 0.13469036584 0.12913181542 0.12365898822 0.11849279258 
0.11382481637 0.10980151192 0.10651504209 0.10399566518 0.10220220714 0.10102579513 0.10034089442 0.10009408419 0.10028545714 
0.10049889989 0.10058582855 0.10041283659 0.09998194354 0.099407199651 0.098830758624 0.098258150498 0.097561771112 0.096635126142 
0.09545351634 0.094072210293 0.092617203645 0.091292307194 0.090252745885 0.089620888748 0.089455647295 0.089765776264 0.090518021376 
0.091591031269 0.092758055142 0.093830684978 0.094660344848 0.09512531875 0.095091767878 0.094426955464 0.093032824134 0.090857821592 
0.087897400263 0.084189037754 0.079802934946 0.074830124784 0.069370455246 0.063522891967 0.057379982625 0.051027397712 0.044548360699 
0.038031564414 0.031580028319 0.025317762658 0.019391562876 0.013966724933 0.0092172749238 0.0053126504418 0.0024032788378 0.00060728648526 
7.0399395824e-17 
