# vtk DataFile Version 5.1
vtk output
ASCII
DATASET POLYDATA
POINTS 100 float
0.0988028 0.0564577 0.66156 0.0989393 0.0565956 0.661524 0.0993094 0.056879 0.661227 
0.0998478 0.0572865 0.66062 0.100456 0.0577848 0.659629 0.101014 0.0583324 0.658162 
0.101394 0.0588843 0.656116 0.101479 0.0593963 0.65339 0.101173 0.0598296 0.649893 
0.100413 0.0601535 0.645553 0.0991782 0.060347 0.640325 0.0974851 0.0603993 0.634194 
0.0953871 0.0603078 0.627178 0.0929638 0.0600756 0.619324 0.0903086 0.0597084 0.610707 
0.0875144 0.0592112 0.60142 0.0846599 0.0585856 0.591568 0.0817979 0.0578285 0.581262 
0.0789477 0.0569318 0.570604 0.0760925 0.0558839 0.559687 0.073181 0.0546726 0.548585 
0.0701355 0.0532885 0.537349 0.0668621 0.0517291 0.526008 0.0632642 0.050002 0.514571 
0.0592562 0.0481274 0.503026 0.0547759 0.0461389 0.491347 0.0497929 0.0440822 0.479497 
0.0443139 0.0420122 0.467436 0.0383822 0.039988 0.455124 0.0320719 0.0380677 0.442526 
0.0254792 0.036302 0.429614 0.0187094 0.034729 0.416367 0.0118634 0.0333707 0.402775 
0.00502553 0.0322309 0.388835 -0.00174745 0.0312963 0.374546 -0.00843202 0.03054 0.359912 
-0.0150394 0.0299268 0.344934 -0.0216114 0.029421 0.329611 -0.0282121 0.0289939 0.313934 
-0.034915 0.0286308 0.297891 -0.0417884 0.0283375 0.281459 -0.0488811 0.0281424 0.264611 
-0.0562089 0.0280966 0.247317 -0.0637448 0.0282702 0.229544 -0.0714142 0.0287453 0.211262 
-0.079095 0.029606 0.192443 -0.0866241 0.0309272 0.17307 -0.0938077 0.0327637 0.153134 
-0.100436 0.0351396 0.132638 -0.106301 0.0380412 0.111597 -0.111211 0.0414133 0.090039 
-0.115008 0.0451601 0.0680047 -0.117579 0.0491506 0.0455446 -0.118865 0.0532283 0.0227179 
-0.118862 0.0572243 -0.000410045 -0.117618 0.060972 -0.0237699 -0.115229 0.0643226 -0.0472911 
-0.111824 0.067158 -0.070904 -0.107558 0.0694024 -0.0945422 -0.102593 0.0710274 -0.118143 
-0.0970863 0.072054 -0.141651 -0.091184 0.0725479 -0.165015 -0.0850077 0.0726108 -0.188191 
-0.0786533 0.072367 -0.211139 -0.0721889 0.0719486 -0.233827 -0.0656574 0.071479 -0.256223 
-0.0590804 0.0710589 -0.278299 -0.0524646 0.0707535 -0.300026 -0.0458078 0.0705854 -0.321374 
-0.039105 0.0705315 -0.34231 -0.0323534 0.0705257 -0.362798 -0.0255558 0.0704665 -0.382795 
-0.0187223 0.0702283 -0.402256 -0.0118711 0.0696757 -0.42113 -0.00502704 0.0686788 -0.439363 
0.0017794 0.0671279 -0.4569 0.00851395 0.064946 -0.473685 0.01514 0.0620979 -0.489667 
0.0216198 0.0585949 -0.5048 0.0279144 0.054495 -0.519047 0.0339844 0.0498985 -0.532381 
0.0397887 0.0449395 -0.544786 0.0452852 0.0397756 -0.55626 0.0504305 0.0345744 -0.566813 
0.0551811 0.029501 -0.576469 0.0594954 0.0247063 -0.58526 0.063336 0.0203167 -0.593227 
0.0666739 0.016427 -0.600416 0.0694913 0.0130967 -0.606876 0.0717854 0.0103491 -0.612652 
0.073571 0.00817335 -0.617788 0.0748813 0.00652925 -0.622322 0.0757675 0.00535358 -0.626285 
0.0762965 0.00456745 -0.629699 0.076546 0.00408414 -0.632579 0.0765992 0.00381651 -0.634934 
0.0765374 0.00368385 -0.636767 0.0764332 0.00361759 -0.638079 0.0763437 0.0035658 -0.638869 
0.0763052 0.00349649 -0.639133 
LINES 2 100
OFFSETS vtktypeint64
0 100 
CONNECTIVITY vtktypeint64
0 1 2 3 4 5 6 7 8 
9 10 11 12 13 14 15 16 17 
18 19 20 21 22 23 24 25 26 
27 28 29 30 31 32 33 34 35 
36 37 38 39 40 41 42 43 44 
45 46 47 48 49 50 51 52 53 
54 55 56 57 58 59 60 61 62 
63 64 65 66 67 68 69 70 71 
72 73 74 75 76 77 78 79 80 
81 82 83 84 85 86 87 88 89 
90 91 92 93 94 95 96 97 98 
99 
POINT_DATA 100
FIELD FieldData 3
_theta 1 100 double
0 0.031733259127 0.063466518254 0.095199777382 0.12693303651 0.15866629564 0.19039955476 0.22213281389 0.25386607302 
0.28559933214 0.31733259127 0.3490658504 0.38079910953 0.41253236865 0.44426562778 0.47599888691 0.50773214603 0.53946540516 
0.57119866429 0.60293192342 0.63466518254 0.66639844167 0.6981317008 0.72986495992 0.76159821905 0.79333147818 0.82506473731 
0.85679799643 0.88853125556 0.92026451469 0.95199777382 0.98373103294 1.0154642921 1.0471975512 1.0789308103 1.1106640695 
1.1423973286 1.1741305877 1.2058638468 1.237597106 1.2693303651 1.3010636242 1.3327968833 1.3645301425 1.3962634016 
1.4279966607 1.4597299198 1.491463179 1.5231964381 1.5549296972 1.5866629564 1.6183962155 1.6501294746 1.6818627337 
1.7135959929 1.745329252 1.7770625111 1.8087957702 1.8405290294 1.8722622885 1.9039955476 1.9357288068 1.9674620659 
1.999195325 2.0309285841 2.0626618433 2.0943951024 2.1261283615 2.1578616206 2.1895948798 2.2213281389 2.253061398 
2.2847946572 2.3165279163 2.3482611754 2.3799944345 2.4117276937 2.4434609528 2.4751942119 2.506927471 2.5386607302 
2.5703939893 2.6021272484 2.6338605076 2.6655937667 2.6973270258 2.7290602849 2.7607935441 2.7925268032 2.8242600623 
2.8559933214 2.8877265806 2.9194598397 2.9511930988 2.982926358 3.0146596171 3.0463928762 3.0781261353 3.1098593945 
3.1415926536 
_radius 1 100 double
1.0062113952e-15 0.013108208806 0.026217783691 0.039317115897 0.052381907229 0.06537161721 0.078228424353 0.090878940852 0.10323847421 
0.11521719612 0.12672727519 0.13768994156 0.14804158885 0.15773830883 0.16675857609 0.17510404082 0.18279849207 0.18988504538 
0.19642157825 0.20247449552 0.20811112276 0.21339138555 0.218359839 0.22303941858 0.22742833335 0.23150116436 0.23521438849 
0.23851536514 0.2413527455 0.24368582607 0.24549079583 0.24676288895 0.2475146662 0.2477715658 0.24756623854 0.24693300903 
0.24590329652 0.24450231019 0.2427470655 0.24064581123 0.23819915861 0.23540329719 0.23225543852 0.22876101241 0.22494137029 
0.22084020372 0.21652687154 0.21209539929 0.20765884811 0.2033397208 0.19925785572 0.19551783162 0.192198318 0.18934586824 
0.18697483062 0.18507305076 0.18361068354 0.18254832969 0.18184161674 0.18144149099 0.18129174279 0.18132697789 0.1814745278 
0.18166172311 0.18182638763 0.18192616357 0.1819429934 0.18188158718 0.18176299833 0.18161561006 0.18146596116 0.18133123326 
0.18121422098 0.18110060913 0.18095780872 0.18073471321 0.18036239652 0.17975643878 0.17882159207 0.17745868411 0.17557249824 
0.17307869837 0.16990813598 0.16600784319 0.16133911865 0.1558739231 0.14959114045 0.14247412509 0.13451044426 0.1256940048 
0.11602901236 0.10553462145 0.094248849891 0.08223046504 0.069558114727 0.056326823654 0.04264281277 0.028618091899 0.014366213871 
5.2550832214e-16 
_area 1 100 double
0 0.00051356150975 0.0020504718002 0.0045974616305 0.0081265219384 0.012588079751 0.017905166825 0.023971403214 0.03065495658 
0.037809008125 0.045286974017 0.052958455025 0.060720548714 0.068499883009 0.076244330049 0.083908961155 0.091444875714 0.098798234531 
0.10592048191 0.11278398956 0.11939420455 0.12579044459 0.13203172665 0.13817031028 0.14422200721 0.1501456246 0.15584181909 
0.16117438692 0.16600711208 0.1702405952 0.17383068978 0.17677757868 0.17909229955 0.18076457439 0.18175381983 0.1820051852 
0.18147689589 0.18016382892 0.17810747249 0.17538857368 0.17210511072 0.16834398679 0.16415844238 0.15956277212 0.15454994655 
0.1491272217 0.14335486503 0.13736974943 0.13138153488 0.12564205123 0.12039912257 0.11584455487 0.1120607993 0.10898444063 
0.1064299897 0.10418128379 0.10208020202 0.10006011144 0.098132842122 0.096354394735 0.094779759097 0.0934122775 0.092183116008 
0.090990861658 0.0897583702 0.088458794992 0.08710973492 0.085750665884 0.084417600302 0.083127195317 0.08187731232 0.080662147414 
0.079493262978 0.078414481926 0.077496940313 0.076808003785 0.076368509994 0.076121863837 0.0759288988 0.0755932704 0.0749086959 
0.073705365766 0.071875163463 0.069371490133 0.066192821475 0.062363481271 0.057922057173 0.052920676687 0.047431844093 0.041557447428 
0.035436001719 0.029244876833 0.023193357559 0.017504591279 0.012390621261 0.0080290183249 0.0045487643544 0.0020288228999 0.00050791751293 
4.2639600649e-17 
