# vtk DataFile Version 5.1
vtk output
ASCII
DATASET POLYDATA
POINTS 100 float
0.117857 0.0603315 0.683565 0.11792 0.0603292 0.683541 0.118171 0.0601903 0.683254 
0.118571 0.0599256 0.682637 0.119058 0.0595527 0.681583 0.119557 0.0590961 0.679963 
0.119983 0.0585857 0.677635 0.120253 0.0580553 0.674459 0.120291 0.05754 0.67031 
0.120035 0.0570737 0.665095 0.119439 0.0566857 0.658758 0.118475 0.0563969 0.651287 
0.117126 0.0562173 0.642715 0.115391 0.0561427 0.633119 0.11327 0.0561534 0.62261 
0.110764 0.0562141 0.611324 0.10787 0.0562751 0.599415 0.104578 0.0562759 0.587036 
0.100868 0.0561495 0.57433 0.0967161 0.0558287 0.561426 0.0920952 0.0552529 0.548421 
0.0869827 0.0543746 0.535385 0.0813664 0.0531659 0.522358 0.07525 0.0516226 0.509346 
0.0686583 0.0497675 0.496333 0.0616384 0.04765 0.483282 0.0542592 0.0453445 0.470141 
0.0466067 0.0429449 0.456851 0.0387774 0.0405585 0.44335 0.0308691 0.0382974 0.429576 
0.0229715 0.0362705 0.415473 0.0151565 0.0345749 0.400988 0.00747113 0.0332888 0.386073 
-6.62084e-05 0.0324674 0.370685 -0.00746642 0.0321395 0.354782 -0.0147655 0.0323078 0.338323 
-0.0220165 0.032952 0.321271 -0.0292788 0.0340325 0.303588 -0.0366048 0.0354975 0.285243 
-0.0440273 0.0372885 0.266208 -0.0515481 0.0393471 0.246468 -0.0591295 0.0416202 0.226019 
-0.0666909 0.0440633 0.204873 -0.0741097 0.0466421 0.18306 -0.0812285 0.0493321 0.160629 
-0.0878657 0.0521159 0.137649 -0.0938308 0.0549797 0.114201 -0.0989408 0.057909 0.0903839 
-0.103037 0.0608847 0.0663002 -0.105998 0.0638794 0.0420565 -0.107753 0.0668561 0.0177561 
-0.108285 0.0697676 -0.00650569 -0.107634 0.0725591 -0.0306462 -0.105888 0.075171 -0.0545976 
-0.103174 0.0775439 -0.0783083 -0.0996462 0.0796236 -0.101743 -0.0954658 0.0813664 -0.124879 
-0.0907893 0.0827421 -0.147708 -0.0857527 0.0837366 -0.170225 -0.0804614 0.0843521 -0.192431 
-0.0749845 0.0846048 -0.214326 -0.0693542 0.0845208 -0.235907 -0.0635697 0.0841311 -0.257164 
-0.0576053 0.0834649 -0.278081 -0.0514216 0.0825443 -0.298634 -0.0449771 0.081379 -0.318793 
-0.0382399 0.0799634 -0.338522 -0.0311973 0.0782755 -0.357785 -0.0238616 0.0762791 -0.37654 
-0.0162728 0.0739276 -0.39475 -0.0084966 0.0711702 -0.412379 -0.000619126 0.0679591 -0.429394 
0.00726081 0.0642574 -0.445769 0.0150412 0.0600454 -0.461482 0.0226259 0.0553265 -0.476515 
0.0299329 0.0501296 -0.490858 0.0368996 0.0445095 -0.504503 0.0434853 0.0385441 -0.51745 
0.0496702 0.0323288 -0.529703 0.0554525 0.02597 -0.541272 0.0608416 0.019576 -0.552171 
0.0658518 0.0132492 -0.562422 0.0704955 0.00707891 -0.57205 0.0747778 0.00113535 -0.581086 
0.078693 -0.00453282 -0.589561 0.0822245 -0.00989892 -0.597509 0.0853472 -0.0149557 -0.604963 
0.0880322 -0.0197104 -0.611949 0.0902533 -0.0241786 -0.618489 0.0919949 -0.0283773 -0.624594 
0.093258 -0.0323182 -0.630265 0.094065 -0.0360023 -0.635491 0.0944625 -0.039417 -0.64025 
0.0945198 -0.0425349 -0.64451 0.0943247 -0.0453156 -0.648229 0.093976 -0.0477095 -0.651364 
0.0935747 -0.0496637 -0.653868 0.0932133 -0.0511276 -0.655702 0.0929662 -0.0520597 -0.656829 
0.0928813 -0.0524327 -0.657229 
LINES 2 100
OFFSETS vtktypeint64
0 100 
CONNECTIVITY vtktypeint64
0 1 2 3 4 5 6 7 8 
9 10 11 12 13 14 15 16 17 
18 19 20 21 22 23 24 25 26 
27 28 29 30 31 32 33 34 35 
36 37 38 39 40 41 42 43 44 
45 46 47 48 49 50 51 52 53 
54 55 56 57 58 59 60 61 62 
63 64 65 66 67 68 69 70 71 
72 73 74 75 76 77 78 79 80 
81 82 83 84 85 86 87 88 89 
90 91 92 93 94 95 96 97 98 
99 
POINT_DATA 100
FIELD FieldData 3
_theta 1 100 double
0 0.031733259127 0.063466518254 0.095199777382 0.12693303651 0.15866629564 0.19039955476 0.22213281389 0.25386607302 
0.28559933214 0.31733259127 0.3490658504 0.38079910953 0.41253236865 0.44426562778 0.47599888691 0.50773214603 0.53946540516 
0.57119866429 0.60293192342 0.63466518254 0.66639844167 0.6981317008 0.72986495992 0.76159821905 0.79333147818 0.82506473731 
0.85679799643 0.88853125556 0.92026451469 0.95199777382 0.98373103294 1.0154642921 1.0471975512 1.0789308103 1.1106640695 
1.1423973286 1.1741305877 1.2058638468 1.237597106 1.2693303651 1.3010636242 1.3327968833 1.3645301425 1.3962634016 
1.4279966607 1.4597299198 1.491463179 1.5231964381 1.5549296972 1.5866629564 1.6183962155 1.6501294746 1.6818627337 
1.7135959929 1.745329252 1.7770625111 1.8087957702 1.8405290294 1.8722622885 1.9039955476 1.9357288068 1.9674620659 
1.999195325 2.0309285841 2.0626618433 2.0943951024 2.1261283615 2.1578616206 2.1895948798 2.2213281389 2.253061398 
2.2847946572 2.3165279163 2.3482611754 2.3799944345 2.4117276937 2.4434609528 2.4751942119 2.506927471 2.5386607302 
2.5703939893 2.6021272484 2.6338605076 2.6655937667 2.6973270258 2.7290602849 2.7607935441 2.7925268032 2.8242600623 
2.8559933214 2.8877265806 2.9194598397 2.9511930988 2.982926358 3.0146596171 3.0463928762 3.0781261353 3.1098593945 
3.1415926536 
_radius 1 100 double
7.8920576785e-16 0.014311589018 0.028482679712 0.042377759905 0.055879986778 0.068897149214 0.081364162919 0.093242122096 0.10451448254 
0.11518129106 0.12525251333 0.13474150854 0.14365960334 0.15201253131 0.15979920298 0.16701285906 0.17364420403 0.17968574748 
0.18513641894 0.19000560766 0.19431603111 0.19810510343 0.2014246362 0.20433873562 0.20691973558 0.20924205208 0.21137408529 
0.21336880212 0.21525434928 0.2170267273 0.21864676511 0.22004298538 0.22112048742 0.22177431836 0.2219047464 0.22143176072 
0.22030679532 0.21852062464 0.2161071817 0.21314348761 0.20974595473 0.20606319137 0.20226533216 0.19853008155 0.19502625258 
0.19189659839 0.18924287215 0.18711667841 0.18551905703 0.18440956241 0.18372250615 0.18338547988 0.18333465335 0.18352299828 
0.18392064002 0.18450946721 0.18527563087 0.18620323336 0.18727093427 0.18845139397 0.18971226473 0.19101723488 0.19232634714 
0.19359588843 0.19477888781 0.19582724726 0.19669581106 0.19734765362 0.19775904931 0.19792236328 0.19784557367 0.19754812111 
0.19705391173 0.19638314362 0.19554483498 0.19453140377 0.19331565492 0.19184965025 0.19006472262 0.18787245381 0.18516730838 
0.18183210282 0.17774713971 0.17280271762 0.16691333313 0.16003083121 0.15215345645 0.14332832017 0.13364608124 0.12322835341 
0.11221014441 0.10072108365 0.088869833294 0.076735491963 0.064367896978 0.051795979433 0.039040729913 0.026127977414 0.013096628864 
1.4753133498e-15 
_area 1 100 double
0 0.00056725423047 0.0022426316384 0.0049503394101 0.0085745861167 0.012973221646 0.017993152735 0.023484957721 0.029314443605 
0.035369606028 0.041562480702 0.047826425823 0.054110137602 0.060370144567 0.066563778154 0.072644657552 0.078562418619 0.084267617846 
0.089721249328 0.094906017497 0.099833988059 0.10454442513 0.10908934385 0.11351243606 0.11783235986 0.12203706037 0.12608698442 
0.12992124702 0.13346281501 0.13662221708 0.13930143167 0.14139972138 0.14282182923 0.14348798458 0.14334466134 0.14237136202 
0.14057630151 0.13798498576 0.13464711973 0.1306630051 0.12619515532 0.12145822575 0.11669677584 0.11215623836 0.10805100025 
0.10453386565 0.10166953513 0.099416199247 0.097626676924 0.09611915483 0.09472907202 0.093273021702 0.091732046708 0.090119786524 
0.088553249669 0.087057257124 0.085657324982 0.084386667716 0.083287832324 0.08242957474 0.081899471395 0.08171242959 0.081739055985 
0.081811040105 0.081799093952 0.081621865088 0.081244128623 0.080672878811 0.079949679108 0.079140354418 0.078316981729 0.077568524997 
0.076986732847 0.076622126646 0.076486486242 0.0765697076 0.076844127941 0.077253837004 0.077697082742 0.078016549865 0.078006515059 
0.077435984691 0.076082567597 0.073770356128 0.070403520173 0.065987330218 0.060631072091 0.054531972723 0.047944334547 0.0411421063 
0.034384670463 0.027893726354 0.021844397883 0.016368576244 0.011565417571 0.007513304307 0.0042786866919 0.0019193972112 0.00048264174734 
4.4289448626e-17 
