# vtk DataFile Version 5.1
vtk output
ASCII
DATASET POLYDATA
POINTS 100 float
0.106791 0.0536542 0.702738 0.107039 0.0539521 0.702544 0.107817 0.0546547 0.701764 
0.109042 0.0557017 0.7004 0.110583 0.0570004 0.698455 0.112278 0.0584369 0.695932 
0.11395 0.059888 0.69283 0.115427 0.0612345 0.689145 0.116556 0.0623737 0.68487 
0.117217 0.0632285 0.679989 0.117337 0.0637532 0.674488 0.116888 0.0639356 0.668348 
0.115887 0.0637935 0.661555 0.114387 0.0633684 0.6541 0.112466 0.0627163 0.645986 
0.110213 0.0618965 0.637227 0.107713 0.0609616 0.627855 0.105033 0.0599485 0.617915 
0.102213 0.0588722 0.607467 0.0992603 0.0577244 0.596578 0.0961493 0.0564749 0.585324 
0.0928274 0.0550776 0.573774 0.0892233 0.0534789 0.561994 0.0852593 0.0516285 0.55003 
0.0808641 0.0494895 0.537914 0.0759855 0.047048 0.525651 0.0705996 0.0443201 0.513227 
0.0647172 0.0413544 0.500604 0.0583841 0.0382318 0.487729 0.0516771 0.03506 0.474537 
0.0446961 0.0319653 0.46096 0.0375517 0.0290818 0.446933 0.0303522 0.0265389 0.4324 
0.0231899 0.0244504 0.417322 0.0161305 0.0229039 0.401676 0.00920459 0.0219544 0.385459 
0.00240574 0.0216209 0.368685 -0.00430763 0.0218872 0.351379 -0.0110045 0.0227064 0.333574 
-0.0177694 0.0240084 0.315304 -0.0246879 0.0257097 0.296597 -0.0318309 0.0277229 0.277474 
-0.0392399 0.0299668 0.257938 -0.0469155 0.0323736 0.237984 -0.0548096 0.034894 0.217591 
-0.0628235 0.0374988 0.196731 -0.070812 0.0401772 0.175373 -0.0785923 0.0429327 0.153491 
-0.0859582 0.0457766 0.131069 -0.0926966 0.0487208 0.108108 -0.0986053 0.0517708 0.0846299 
-0.10351 0.0549193 0.0606781 -0.107281 0.058143 0.036319 -0.109837 0.061401 0.011638 
-0.111159 0.0646362 -0.0132657 -0.111281 0.0677796 -0.0382856 -0.110291 0.0707556 -0.0633148 
-0.108315 0.0734888 -0.0882529 -0.105505 0.0759108 -0.113012 -0.102028 0.0779657 -0.137521 
-0.0980431 0.0796143 -0.161725 -0.0936944 0.0808357 -0.185589 -0.0890987 0.0816267 -0.209091 
-0.0843393 0.0819989 -0.232223 -0.079465 0.0819742 -0.254979 -0.0744924 0.0815791 -0.277356 
-0.0694128 0.0808395 -0.29935 -0.0642007 0.0797753 -0.320946 -0.0588242 0.0783978 -0.342126 
-0.053256 0.076708 -0.362861 -0.047482 0.0746975 -0.383119 -0.0415085 0.0723515 -0.402864 
-0.0353661 0.0696534 -0.422063 -0.0291105 0.0665901 -0.440685 -0.02282 0.0631578 -0.458709 
-0.0165902 0.0593663 -0.476119 -0.0105267 0.055243 -0.492907 -0.0047374 0.0508338 -0.50907 
0.000676655 0.0462022 -0.524606 0.00562838 0.0414268 -0.53951 0.0100509 0.0365962 -0.553767 
0.0139017 0.0318026 -0.567353 0.0171639 0.0271363 -0.580229 0.0198465 0.0226785 -0.592341 
0.0219809 0.0184969 -0.603625 0.0236171 0.0146419 -0.614013 0.0248187 0.0111447 -0.623434 
0.0256565 0.00801812 -0.631829 0.0262035 0.00525837 -0.639155 0.0265297 0.00284852 -0.645396 
0.0266983 0.000762793 -0.650566 0.0267627 -0.00102903 -0.654712 0.0267653 -0.0025576 -0.657916 
0.0267372 -0.00385078 -0.660288 0.0266988 -0.00493159 -0.661958 0.026662 -0.00581734 -0.663068 
0.0266319 -0.00651977 -0.663758 0.026609 -0.00704597 -0.664152 0.0265919 -0.00739971 -0.664349 
0.0265787 -0.00758265 -0.664413 
LINES 2 100
OFFSETS vtktypeint64
0 100 
CONNECTIVITY vtktypeint64
0 1 2 3 4 5 6 7 8 
9 10 11 12 13 14 15 16 17 
18 19 20 21 22 23 24 25 26 
27 28 29 30 31 32 33 34 35 
36 37 38 39 40 41 42 43 44 
45 46 47 48 49 50 51 52 53 
54 55 56 57 58 59 60 61 62 
63 64 65 66 67 68 69 70 71 
72 73 74 75 76 77 78 79 80 
81 82 83 84 85 86 87 88 89 
90 91 92 93 94 95 96 97 98 
99 
POINT_DATA 100
FIELD FieldData 3
_theta 1 100 double
0 0.031733259127 0.063466518254 0.095199777382 0.12693303651 0.15866629564 0.19039955476 0.22213281389 0.25386607302 
0.28559933214 0.31733259127 0.3490658504 0.38079910953 0.41253236865 0.44426562778 0.47599888691 0.50773214603 0.53946540516 
0.57119866429 0.60293192342 0.63466518254 0.66639844167 0.6981317008 0.72986495992 0.76159821905 0.79333147818 0.82506473731 
0.85679799643 0.88853125556 0.92026451469 0.95199777382 0.98373103294 1.0154642921 1.0471975512 1.0789308103 1.1106640695 
1.1423973286 1.1741305877 1.2058638468 1.237597106 1.2693303651 1.3010636242 1.3327968833 1.3645301425 1.3962634016 
1.4279966607 1.4597299198 1.491463179 1.5231964381 1.5549296972 1.5866629564 1.6183962155 1.6501294746 1.6818627337 
1.7135959929 1.745329252 1.7770625111 1.8087957702 1.8405290294 1.8722622885 1.9039955476 1.9357288068 1.9674620659 
1.999195325 2.0309285841 2.0626618433 2.0943951024 2.1261283615 2.1578616206 2.1895948798 2.2213281389 2.253061398 
2.2847946572 2.3165279163 2.3482611754 2.3799944345 2.4117276937 2.4434609528 2.4751942119 2.506927471 2.5386607302 
2.5703939893 2.6021272484 2.6338605076 2.6655937667 2.6973270258 2.7290602849 2.7607935441 2.7925268032 2.8242600623 
2.8559933214 2.8877265806 2.9194598397 2.9511930988 2.982926358 3.0146596171 3.0463928762 3.0781261353 3.1098593945 
3.1415926536 
_radius 1 100 double
5.5947454295e-16 0.01450701259 0.028894087899 0.0430448946 0.056862677853 0.07027550112 0.083237198938 0.095724598533 0.10773237876 
0.11926714951 0.13034195815 0.14097174828 0.15116968667 0.16094400074 0.17029508723 0.17921302932 0.18767604858 0.19565058309 
0.2030935067 0.20995654599 0.21619239944 0.2217616253 0.22663916664 0.23081943869 0.23431914989 0.23717737701 0.23945279865 
0.24121836897 0.2425540562 0.2435385473 0.2442409925 0.24471389399 0.2449881114 0.2450706763 0.24494572215 0.24457839766 
0.24392119741 0.24292178951 0.24153124548 0.23971164847 0.23744235085 0.23472454413 0.23158412046 0.22807291303 0.22426828096 
0.22027076389 0.21619937336 0.21218421402 0.20835663609 0.20483792212 0.20172832485 0.19909869591 0.19698662499 0.19539786001 
0.19431212721 0.19369097369 0.19348461126 0.19363537716 0.19407729249 0.19473358899 0.19551568894 0.1963267898 0.19707096728 
0.19766589977 0.19805540463 0.19821768229 0.19816644317 0.19794434268 0.1976105046 0.19722559845 0.19683840301 0.196476815 
0.19614427716 0.19582063262 0.19546535867 0.19502117119 0.19441678517 0.19356871429 0.19238291495 0.19075737708 0.18858630215 
0.18576565874 0.18219924901 0.17780427914 0.1725157244 0.16628922783 0.15910261739 0.15095625729 0.14187239822 0.13189357094 
0.12107999976 0.10950607048 0.097256076093 0.084419710195 0.071087956622 0.057350010669 0.043291614315 0.028994781319 0.014538518319 
4.0978487927e-16 
_area 1 100 double
0 0.00059211119168 0.002347331842 0.0052057847311 0.0090780691509 0.013857339095 0.019430741717 0.025687638633 0.032523833194 
0.039842785425 0.047555701957 0.05558217071 0.063851933372 0.072306949539 0.080901643415 0.08959880977 0.098359829157 0.10713070091 
0.11582860195 0.12433497826 0.13249947036 0.14015538814 0.14714384247 0.15334085463 0.15868002529 0.16316344837 0.16685664655 
0.16986908097 0.17232708147 0.17434727117 0.17601615332 0.17737865308 0.17843621117 0.1791529354 0.17946660942 0.17930094708 
0.17857651805 0.17721949692 0.17516886227 0.17238333681 0.16884907895 0.16458813502 0.15966648512 0.15419965248 0.14835333065 
0.14233625862 0.13638317748 0.13072788521 0.12556985488 0.12104109214 0.11718229024 0.1139398331 0.11119275329 0.10880237974 
0.10666117591 0.10472294962 0.10300992823 0.10158618142 0.10049543487 0.099737771137 0.099298184408 0.099138155627 0.09915762929 
0.0992067047 0.099150178052 0.098913029078 0.098481376921 0.097884950019 0.097183581652 0.096453239778 0.095768289756 0.095192028333 
0.094775866357 0.094553568299 0.094527822871 0.094661554984 0.094882343078 0.095090136585 0.095159198411 0.094938827543 0.094259658956 
0.092947198508 0.090840410332 0.087811704148 0.083784621553 0.078746365757 0.0727536054 0.065931221532 0.058464599365 0.050586649445 
0.042560990755 0.034662761404 0.027158608535 0.020287779848 0.014246851079 0.0091810310695 0.0051843598878 0.0023086867929 0.00057767363052 
7.1542998244e-18 
