# vtk DataFile Version 5.1
vtk output
ASCII
DATASET POLYDATA
POINTS 100 float
0.121789 0.0368489 0.666957 0.122033 0.0369749 0.666802 0.122813 0.0372201 0.666189 
0.124024 0.0375673 0.665127 0.12551 0.0379907 0.663627 0.127075 0.0384589 0.661701 
0.128509 0.0389397 0.659351 0.129614 0.0394043 0.656569 0.130221 0.0398317 0.653328 
0.130212 0.0402114 0.649586 0.129529 0.0405451 0.645284 0.128176 0.0408463 0.640348 
0.126216 0.0411389 0.634701 0.123756 0.041453 0.628266 0.120932 0.0418213 0.620978 
0.117883 0.042273 0.612796 0.114734 0.04283 0.603705 0.111576 0.0435018 0.593729 
0.108452 0.0442833 0.582927 0.105346 0.0451538 0.571399 0.102193 0.0460771 0.559272 
0.0988771 0.0470053 0.5467 0.0952529 0.047882 0.533844 0.0911617 0.0486485 0.520867 
0.086453 0.0492493 0.507915 0.0810049 0.0496378 0.49511 0.0747405 0.0497813 0.482536 
0.0676392 0.0496648 0.470234 0.0597413 0.0492925 0.458202 0.051145 0.0486878 0.446398 
0.0419964 0.0478918 0.434739 0.0324741 0.0469596 0.423118 0.0227709 0.0459554 0.411411 
0.0130738 0.0449477 0.399486 0.00354532 0.0440037 0.387219 -0.00569041 0.0431844 0.374496 
-0.0145573 0.0425407 0.361228 -0.0230295 0.0421109 0.347346 -0.031128 0.0419193 0.332805 
-0.0389104 0.0419765 0.317584 -0.0464569 0.0422805 0.301675 -0.0538534 0.0428194 0.285084 
-0.0611752 0.0435739 0.267818 -0.0684712 0.0445205 0.249887 -0.0757534 0.045634 0.231295 
-0.0829905 0.0468897 0.21204 -0.0901076 0.0482653 0.192117 -0.0969915 0.0497409 0.171519 
-0.1035 0.0512998 0.150241 -0.109478 0.052927 0.128286 -0.114768 0.0546088 0.105674 
-0.119228 0.0563315 0.0824419 -0.122747 0.05808 0.0586482 -0.125247 0.0598372 0.0343755 
-0.126695 0.0615835 0.00972763 -0.127103 0.0632967 -0.0151738 -0.126521 0.0649518 -0.0401958 
-0.125032 0.0665224 -0.0652007 -0.122742 0.0679808 -0.0900551 -0.119769 0.0692993 -0.114637 
-0.116234 0.0704504 -0.138842 -0.112249 0.0714081 -0.16259 -0.107912 0.0721482 -0.185826 
-0.103304 0.0726489 -0.208522 -0.0984821 0.0728908 -0.230673 -0.0934884 0.0728579 -0.252295 
-0.0883469 0.0725382 -0.273417 -0.0830702 0.0719238 -0.294077 -0.0776636 0.0710127 -0.314313 
-0.0721287 0.0698092 -0.334159 -0.0664672 0.068325 -0.35364 -0.0606827 0.0665803 -0.372769 
-0.054782 0.0646038 -0.391545 -0.0487754 0.0624332 -0.409954 -0.0426767 0.0601138 -0.427969 
-0.0365028 0.0576976 -0.445555 -0.0302742 0.0552407 -0.462673 -0.0240154 0.0528005 -0.479277 
-0.0177568 0.0504326 -0.495325 -0.0115358 0.0481874 -0.510777 -0.00539911 0.0461067 -0.525596 
0.000596334 0.0442214 -0.539752 0.00638316 0.0425498 -0.553219 0.0118848 0.0410966 -0.565976 
0.0170186 0.0398538 -0.578006 0.0217005 0.0388024 -0.589294 0.0258516 0.0379148 -0.599829 
0.0294052 0.0371586 -0.609599 0.0323141 0.0365002 -0.618594 0.0345571 0.0359084 -0.626807 
0.036144 0.0353578 -0.63423 0.0371173 0.0348308 -0.640859 0.0375514 0.0343193 -0.646691 
0.0375483 0.0338242 -0.651727 0.0372301 0.0333545 -0.655967 0.0367287 0.0329249 -0.659417 
0.0361747 0.0325531 -0.662079 0.0356849 0.0322567 -0.663961 0.0353518 0.0320499 -0.665065 
0.035234 0.0319417 -0.665395 
LINES 2 100
OFFSETS vtktypeint64
0 100 
CONNECTIVITY vtktypeint64
0 1 2 3 4 5 6 7 8 
9 10 11 12 13 14 15 16 17 
18 19 20 21 22 23 24 25 26 
27 28 29 30 31 32 33 34 35 
36 37 38 39 40 41 42 43 44 
45 46 47 48 49 50 51 52 53 
54 55 56 57 58 59 60 61 62 
63 64 65 66 67 68 69 70 71 
72 73 74 75 76 77 78 79 80 
81 82 83 84 85 86 87 88 89 
90 91 92 93 94 95 96 97 98 
99 
POINT_DATA 100
FIELD FieldData 3
_theta 1 100 double
0 0.031733259127 0.063466518254 0.095199777382 0.12693303651 0.15866629564 0.19039955476 0.22213281389 0.25386607302 
0.28559933214 0.31733259127 0.3490658504 0.38079910953 0.41253236865 0.44426562778 0.47599888691 0.50773214603 0.53946540516 
0.57119866429 0.60293192342 0.63466518254 0.66639844167 0.6981317008 0.72986495992 0.76159821905 0.79333147818 0.82506473731 
0.85679799643 0.88853125556 0.92026451469 0.95199777382 0.98373103294 1.0154642921 1.0471975512 1.0789308103 1.1106640695 
1.1423973286 1.1741305877 1.2058638468 1.237597106 1.2693303651 1.3010636242 1.3327968833 1.3645301425 1.3962634016 
1.4279966607 1.4597299198 1.491463179 1.5231964381 1.5549296972 1.5866629564 1.6183962155 1.6501294746 1.6818627337 
1.7135959929 1.745329252 1.7770625111 1.8087957702 1.8405290294 1.8722622885 1.9039955476 1.9357288068 1.9674620659 
1.999195325 2.0309285841 2.0626618433 2.0943951024 2.1261283615 2.1578616206 2.1895948798 2.2213281389 2.253061398 
2.2847946572 2.3165279163 2.3482611754 2.3799944345 2.4117276937 2.4434609528 2.4751942119 2.506927471 2.5386607302 
2.5703939893 2.6021272484 2.6338605076 2.6655937667 2.6973270258 2.7290602849 2.7607935441 2.7925268032 2.8242600623 
2.8559933214 2.8877265806 2.9194598397 2.9511930988 2.982926358 3.0146596171 3.0463928762 3.0781261353 3.1098593945 
3.1415926536 
_radius 1 100 double
3.8783389313e-16 0.013141006177 0.02628669279 0.039425075393 0.052529210236 0.06555210685 0.078424425628 0.09105594467 0.10334098746 
0.11516692761 0.12642405811 0.13701490449 0.14686149914 0.15590994917 0.16413244501 0.17152735897 0.17811814788 0.18395148774 
0.18909465193 0.19363182527 0.19765896691 0.20127703017 0.20458377777 0.20766500501 0.21058655477 0.21338885462 0.21608556238 
0.21866706765 0.22110811096 0.22337712612 0.22544394027 0.22728293521 0.22887069826 0.23017968997 0.23117127915 0.23179176512 
0.23197368836 0.23164259419 0.23072752411 0.22917259561 0.22694717341 0.22405293037 0.22052704024 0.21644152161 0.21189928242 
0.20702773075 0.20197092921 0.19688115826 0.19191048112 0.1872026769 0.18288593861 0.17906699864 0.17582753452 0.17322341886 
0.17128645343 0.17002700971 0.16943529879 0.1694796333 0.17010211132 0.17121455169 0.17269848853 0.17441162888 0.17620027293 
0.17791478899 0.17942458356 0.18062982323 0.18146844399 0.18191803412 0.18199288313 0.18173702828 0.18121463612 0.18049938897 
0.17966436423 0.17877314238 0.17787211829 0.17698383755 0.17610158397 0.1751858503 0.17416337195 0.17292917479 0.17135180772 
0.16928166622 0.16656200672 0.16304186451 0.15858967505 0.1531060756 0.14653425069 0.13886634758 0.13014491949 0.12045898977 
0.10993507774 0.098724282179 0.086987164987 0.074878583599 0.062534664424 0.050063715176 0.037542075387 0.025014893231 0.012500924452 
6.8048024385e-16 
_area 1 100 double
0 0.00043708376977 0.0017476056532 0.003928559834 0.0069720624217 0.010860708834 0.01556101018 0.021015894765 0.027138182873 
0.033807275398 0.040870759895 0.048151631264 0.055460884236 0.06261422635 0.0694502592 0.075846430727 0.081729598467 0.087080011695 
0.091929452933 0.096355153479 0.10047114848 0.10441849924 0.10835471899 0.11243971238 0.11681278802 0.12155938953 0.1266781451 
0.13206651739 0.13753652283 0.1428564491 0.14780131489 0.15219147385 0.15590713846 0.15888010754 0.16107330067 0.16245932493 
0.16300416215 0.16265834237 0.16135876257 0.15904494116 0.15568814944 0.15132301936 0.14606752448 0.14012134086 0.13373962769 
0.12718688109 0.12068693503 0.11439517875 0.10840658635 0.10278276989 0.097573627197 0.092826910899 0.088590921338 0.0849149392 
0.081854184846 0.079502024845 0.077998368306 0.077285558271 0.077206215699 0.077605689964 0.078310229007 0.079130952437 0.079880039171 
0.0803923584 0.080550210201 0.080303957381 0.079679478713 0.078768887519 0.077705437385 0.076624294855 0.075619250529 0.074729764424 
0.073976353344 0.073392046339 0.073021442541 0.072902301456 0.073042547113 0.073400054888 0.073871364786 0.074293675423 0.074460482662 
0.074146495083 0.073135504765 0.071246810366 0.068358424739 0.064425754736 0.059493279497 0.053696151403 0.047249746425 0.040427622268 
0.033531070418 0.026855529604 0.020659970591 0.015144760248 0.010441611235 0.0066164337689 0.0036828822638 0.0016220550737 0.00040304731401 
2.4516508416e-17 
