# vtk DataFile Version 5.1
vtk output
ASCII
DATASET POLYDATA
POINTS 100 float
0.150398 0.048951 0.642168 0.150558 0.04901 0.642163 0.151122 0.049028 0.641976 
0.152014 0.0490116 0.641569 0.153115 0.048971 0.640884 0.154278 0.0489187 0.639846 
0.155339 0.048867 0.638367 0.156136 0.0488265 0.636356 0.156523 0.0488045 0.633718 
0.156381 0.048804 0.630369 0.155628 0.0488233 0.626238 0.154222 0.0488567 0.621273 
0.152156 0.0488957 0.615445 0.149456 0.0489306 0.608753 0.146172 0.0489521 0.601221 
0.142361 0.0489525 0.592897 0.138084 0.0489268 0.583851 0.133391 0.0488731 0.574169 
0.128317 0.048791 0.563946 0.122878 0.0486813 0.553278 0.117076 0.0485432 0.542258 
0.110898 0.0483729 0.530965 0.104327 0.0481618 0.519462 0.0973511 0.0478953 0.507794 
0.0899681 0.0475531 0.495983 0.0821951 0.0471105 0.484034 0.0740703 0.0465413 0.471936 
0.0656528 0.0458206 0.459666 0.0570185 0.04493 0.447198 0.0482529 0.0438612 0.434505 
0.0394408 0.0426202 0.421568 0.0306563 0.0412299 0.408376 0.0219531 0.0397308 0.394927 
0.0133573 0.0381799 0.381232 0.00486368 0.0366481 0.367304 -0.00356237 0.0352143 0.353162 
-0.0119796 0.0339595 0.338816 -0.0204602 0.0329597 0.324265 -0.029077 0.0322783 0.309492 
-0.0378881 0.0319604 0.294454 -0.0469232 0.0320286 0.279087 -0.0561714 0.0324808 0.263303 
-0.0655733 0.0332912 0.246995 -0.0750194 0.0344136 0.230046 -0.084353 0.0357874 0.212337 
-0.0933805 0.0373444 0.193758 -0.101885 0.0390174 0.174225 -0.109646 0.0407475 0.153683 
-0.116455 0.0424909 0.132119 -0.12214 0.0442225 0.109568 -0.126575 0.0459379 0.0861111 
-0.129693 0.0476517 0.0618738 -0.131494 0.049393 0.037019 -0.132037 0.0511993 0.0117361 
-0.131439 0.0531081 -0.0137722 -0.129857 0.0551491 -0.0393039 -0.127475 0.0573361 -0.0646709 
-0.12448 0.0596619 -0.0897117 -0.121052 0.0620951 -0.1143 -0.117344 0.0645798 -0.138349 
-0.11347 0.0670387 -0.161814 -0.1095 0.0693791 -0.184687 -0.105461 0.0715006 -0.206994 
-0.101338 0.0733039 -0.228779 -0.0970869 0.0746994 -0.2501 -0.0926415 0.0756146 -0.271016 
-0.0879293 0.0759996 -0.291573 -0.082883 0.0758298 -0.311805 -0.0774504 0.0751047 -0.33172 
-0.0716028 0.0738455 -0.351306 -0.0653378 0.0720889 -0.37053 -0.0586799 0.0698805 -0.389341 
-0.051677 0.0672675 -0.407677 -0.0443949 0.0642928 -0.425473 -0.0369106 0.0609902 -0.442668 
-0.0293048 0.0573824 -0.459209 -0.0216565 0.0534825 -0.475055 -0.0140383 0.0492973 -0.490179 
-0.00651417 0.0448328 -0.504568 0.000859944 0.0401019 -0.518221 0.00803467 0.035131 -0.531141 
0.0149641 0.0299661 -0.543334 0.0216024 0.0246766 -0.554806 0.0279018 0.0193552 -0.565554 
0.0338105 0.0141158 -0.575569 0.0392745 0.00908595 -0.584837 0.0442394 0.00439806 -0.593336 
0.0486554 0.000177518 -0.601044 0.0524825 -0.00346925 -0.607943 0.0556966 -0.00646594 -0.614021 
0.0582944 -0.00877513 -0.619284 0.0602969 -0.0104034 -0.623749 0.0617498 -0.0114018 -0.627454 
0.0627222 -0.011862 -0.630451 0.0633012 -0.0119071 -0.632806 0.0635847 -0.0116792 -0.634593 
0.0636719 -0.0113247 -0.635886 0.0636537 -0.0109787 -0.636752 0.0636031 -0.01075 -0.637245 
0.0635674 -0.0107093 -0.6374 
LINES 2 100
OFFSETS vtktypeint64
0 100 
CONNECTIVITY vtktypeint64
0 1 2 3 4 5 6 7 8 
9 10 11 12 13 14 15 16 17 
18 19 20 21 22 23 24 25 26 
27 28 29 30 31 32 33 34 35 
36 37 38 39 40 41 42 43 44 
45 46 47 48 49 50 51 52 53 
54 55 56 57 58 59 60 61 62 
63 64 65 66 67 68 69 70 71 
72 73 74 75 76 77 78 79 80 
81 82 83 84 85 86 87 88 89 
90 91 92 93 94 95 96 97 98 
99 
POINT_DATA 100
FIELD FieldData 3
_theta 1 100 double
0 0.031733259127 0.063466518254 0.095199777382 0.12693303651 0.15866629564 0.19039955476 0.22213281389 0.25386607302 
0.28559933214 0.31733259127 0.3490658504 0.38079910953 0.41253236865 0.44426562778 0.47599888691 0.50773214603 0.53946540516 
0.57119866429 0.60293192342 0.63466518254 0.66639844167 0.6981317008 0.72986495992 0.76159821905 0.79333147818 0.82506473731 
0.85679799643 0.88853125556 0.92026451469 0.95199777382 0.98373103294 1.0154642921 1.0471975512 1.0789308103 1.1106640695 
1.1423973286 1.1741305877 1.2058638468 1.237597106 1.2693303651 1.3010636242 1.3327968833 1.3645301425 1.3962634016 
1.4279966607 1.4597299198 1.491463179 1.5231964381 1.5549296972 1.5866629564 1.6183962155 1.6501294746 1.6818627337 
1.7135959929 1.745329252 1.7770625111 1.8087957702 1.8405290294 1.8722622885 1.9039955476 1.9357288068 1.9674620659 
1.999195325 2.0309285841 2.0626618433 2.0943951024 2.1261283615 2.1578616206 2.1895948798 2.2213281389 2.253061398 
2.2847946572 2.3165279163 2.3482611754 2.3799944345 2.4117276937 2.4434609528 2.4751942119 2.506927471 2.5386607302 
2.5703939893 2.6021272484 2.6338605076 2.6655937667 2.6973270258 2.7290602849 2.7607935441 2.7925268032 2.8242600623 
2.8559933214 2.8877265806 2.9194598397 2.9511930988 2.982926358 3.0146596171 3.0463928762 3.0781261353 3.1098593945 
3.1415926536 
_radius 1 100 double
1.2300645156e-15 0.014686392038 0.029172127915 0.043269053472 0.056819732035 0.069707787516 0.081863035335 0.093261048588 0.10391758991 
0.11387897036 0.12320979633 0.13197971328 0.14025070573 0.14806637695 0.15544449511 0.16237392369 0.16881670483 0.17471540299 
0.1800048775 0.18462668075 0.18854360337 0.19175174736 0.1942879428 0.19623118406 0.19769779205 0.19883095614 0.19978600865 
0.20071320127 0.20173994571 0.2029545241 0.20439319462 0.20603239811 0.20778739637 0.20951812128 0.21104224956 0.2121545393 
0.21265040292 0.21235081661 0.21112525654 0.20890953688 0.2057161494 0.20163579215 0.19683000131 0.1915159333 0.1859451861 
0.18037904112 0.1750628123 0.1702023796 0.16594644739 0.16237800419 0.15951700798 0.15733333374 0.15576570173 0.15474052473 
0.15418539985 0.15403482321 0.1542291859 0.15471066694 0.15542010813 0.15629718713 0.15728349194 0.15832634058 0.15938124861 
0.16041215817 0.16138978232 0.16228913536 0.16308750985 0.16376391398 0.16430034535 0.16468442412 0.1649121937 0.16498967804 
0.16493217548 0.16476106117 0.16449865758 0.16416215746 0.1637575218 0.16327389949 0.16267878374 0.16191414731 0.16089421816 
0.15950605657 0.15761419624 0.15507000809 0.15172523797 0.14744782949 0.14213723404 0.13573627928 0.12823733017 0.11968169025 
0.11015260685 0.099763519666 0.088644047907 0.076926468 0.064735047759 0.052179681533 0.039354064433 0.026337498043 0.013198704278 
9.1341916853e-16 
_area 1 100 double
0 0.00050034568567 0.0019861438443 0.0044111223435 0.0076977549551 0.011740309301 0.016412886836 0.021581523097 0.027117381746 
0.032907673888 0.038861862534 0.044912136418 0.051008441521 0.057109381061 0.063171120375 0.069137058833 0.074931227637 0.080457857679 
0.085608272843 0.090274433339 0.094366513808 0.097830459302 0.10066125177 0.10290903648 0.10467768305 0.10611720855 0.10741143284 
0.10876057965 0.11035741111 0.11235722071 0.11484653181 0.11781875271 0.1211630381 0.12466695991 0.12803096637 0.13089525495 
0.13288194315 0.13365153077 0.13296479568 0.13073567817 0.12705919129 0.12219888594 0.1165243453 0.11041864856 0.10421632081 
0.098199308077 0.092607558732 0.087629647491 0.083374669318 0.079844939798 0.076945532044 0.07454102452 0.072513886695 0.07078739379 
0.069319323638 0.068085363315 0.067064939816 0.066236858104 0.065586854301 0.065117281577 0.064839668397 0.06474987727 0.064800373202 
0.064888546592 0.064910081892 0.064809597698 0.064567607774 0.064161952248 0.06357253801 0.062822750667 0.061961124751 0.061092838241 
0.060355773162 0.059871543514 0.059716527559 0.059907667176 0.060404860202 0.061123744355 0.061950404869 0.062752086913 0.063381570128 
0.063677286844 0.063464732352 0.062565515195 0.060817531572 0.058104067755 0.054384032967 0.049713259062 0.044249029508 0.038235168807 
0.031970668548 0.025769170656 0.019918726988 0.014650711898 0.010123754647 0.0064240097165 0.0035786508749 0.001576821085 0.0003918874307 
2.9717677427e-17 
