# vtk DataFile Version 5.1
vtk output
ASCII
DATASET POLYDATA
POINTS 100 float
0.0948195 0.0519886 0.717003 0.0948735 0.0521272 0.716731 0.095101 0.0523947 0.715752 
0.0954811 0.0527892 0.714087 0.0959811 0.0533069 0.711769 0.0965608 0.053941 0.708837 
0.0971762 0.0546808 0.705325 0.0977835 0.0555103 0.701264 0.0983431 0.0564074 0.69667 
0.0988216 0.0573434 0.691542 0.0991927 0.058283 0.685866 0.0994364 0.0591854 0.679612 
0.0995375 0.0600053 0.672738 0.0994818 0.0606954 0.665204 0.0992532 0.061209 0.656969 
0.0988299 0.0615024 0.648008 0.0981827 0.0615386 0.638315 0.0972731 0.0612891 0.627903 
0.0960547 0.0607367 0.616815 0.0944755 0.0598769 0.605113 0.092482 0.0587179 0.59288 
0.0900241 0.0572813 0.58021 0.0870606 0.0555998 0.567199 0.0835645 0.0537161 0.553937 
0.0795264 0.0516797 0.540497 0.0749565 0.0495442 0.526932 0.0698841 0.0473646 0.513265 
0.0643547 0.0451941 0.499493 0.0584251 0.0430821 0.485585 0.0521563 0.0410725 0.471489 
0.0456066 0.039203 0.45714 0.0388241 0.0375045 0.442466 0.0318407 0.0360024 0.427398 
0.0246691 0.0347172 0.41188 0.0173016 0.0336657 0.39587 0.00971301 0.0328628 0.379349 
0.00186656 0.0323224 0.362313 -0.00627756 0.0320581 0.344779 -0.0147518 0.0320835 0.326775 
-0.0235703 0.0324113 0.308333 -0.0327187 0.0330525 0.289486 -0.0421461 0.034015 0.270255 
-0.0517604 0.0353011 0.250653 -0.0614272 0.036906 0.230674 -0.0709742 0.0388166 0.2103 
-0.0801993 0.0410096 0.189498 -0.0888825 0.043452 0.168231 -0.0968006 0.0461014 0.146462 
-0.103743 0.0489076 0.124159 -0.109528 0.0518146 0.101307 -0.114015 0.0547641 0.0779101 
-0.117116 0.0576983 0.0539955 -0.118803 0.060563 0.0296144 -0.119104 0.0633108 0.00483993 
-0.118104 0.0659028 -0.0202371 -0.115935 0.0683096 -0.0455148 -0.112761 0.0705117 -0.070887 
-0.108769 0.0724977 -0.0962508 -0.104145 0.0742624 -0.121512 -0.0990712 0.0758037 -0.146592 
-0.0937023 0.0771192 -0.171426 -0.0881635 0.0782031 -0.195965 -0.0825432 0.0790429 -0.220178 
-0.0768924 0.0796179 -0.24404 -0.0712281 0.0798979 -0.267534 -0.06554 0.0798445 -0.290644 
-0.0597995 0.0794122 -0.31335 -0.0539701 0.0785527 -0.335628 -0.0480172 0.0772183 -0.357448 
-0.0419174 0.0753671 -0.378776 -0.0356655 0.0729677 -0.399575 -0.029278 0.0700036 -0.419811 
-0.0227949 0.0664764 -0.439453 -0.0162771 0.0624078 -0.458483 -0.00980248 0.0578399 -0.476893 
-0.00345973 0.0528335 -0.494685 0.0026592 0.0474652 -0.511874 0.00846622 0.0418231 -0.528478 
0.0138839 0.036001 -0.544517 0.0188507 0.0300932 -0.560001 0.0233249 0.0241887 -0.574931 
0.0272857 0.0183665 -0.589287 0.0307334 0.012692 -0.603029 0.0336869 0.00721538 -0.616094 
0.0361804 0.00197077 -0.628401 0.0382595 -0.00302203 -0.639858 0.0399763 -0.00775496 -0.650367 
0.041385 -0.012228 -0.659837 0.0425383 -0.0164446 -0.668196 0.0434843 -0.020408 -0.675401 
0.0442642 -0.024117 -0.681443 0.0449115 -0.0275636 -0.686353 0.0454517 -0.0307312 -0.690204 
0.0459027 -0.0335951 -0.693104 0.0462763 -0.0361237 -0.695188 0.0465787 -0.0382809 -0.696607 
0.0468129 -0.0400299 -0.697512 0.0469794 -0.0413366 -0.69804 0.0470778 -0.0421733 -0.698301 
0.0471075 -0.0425217 -0.698366 
LINES 2 100
OFFSETS vtktypeint64
0 100 
CONNECTIVITY vtktypeint64
0 1 2 3 4 5 6 7 8 
9 10 11 12 13 14 15 16 17 
18 19 20 21 22 23 24 25 26 
27 28 29 30 31 32 33 34 35 
36 37 38 39 40 41 42 43 44 
45 46 47 48 49 50 51 52 53 
54 55 56 57 58 59 60 61 62 
63 64 65 66 67 68 69 70 71 
72 73 74 75 76 77 78 79 80 
81 82 83 84 85 86 87 88 89 
90 91 92 93 94 95 96 97 98 
99 
POINT_DATA 100
FIELD FieldData 3
_theta 1 100 double
0 0.031733259127 0.063466518254 0.095199777382 0.12693303651 0.15866629564 0.19039955476 0.22213281389 0.25386607302 
0.28559933214 0.31733259127 0.3490658504 0.38079910953 0.41253236865 0.44426562778 0.47599888691 0.50773214603 0.53946540516 
0.57119866429 0.60293192342 0.63466518254 0.66639844167 0.6981317008 0.72986495992 0.76159821905 0.79333147818 0.82506473731 
0.85679799643 0.88853125556 0.92026451469 0.95199777382 0.98373103294 1.0154642921 1.0471975512 1.0789308103 1.1106640695 
1.1423973286 1.1741305877 1.2058638468 1.237597106 1.2693303651 1.3010636242 1.3327968833 1.3645301425 1.3962634016 
1.4279966607 1.4597299198 1.491463179 1.5231964381 1.5549296972 1.5866629564 1.6183962155 1.6501294746 1.6818627337 
1.7135959929 1.745329252 1.7770625111 1.8087957702 1.8405290294 1.8722622885 1.9039955476 1.9357288068 1.9674620659 
1.999195325 2.0309285841 2.0626618433 2.0943951024 2.1261283615 2.1578616206 2.1895948798 2.2213281389 2.253061398 
2.2847946572 2.3165279163 2.3482611754 2.3799944345 2.4117276937 2.4434609528 2.4751942119 2.506927471 2.5386607302 
2.5703939893 2.6021272484 2.6338605076 2.6655937667 2.6973270258 2.7290602849 2.7607935441 2.7925268032 2.8242600623 
2.8559933214 2.8877265806 2.9194598397 2.9511930988 2.982926358 3.0146596171 3.0463928762 3.0781261353 3.1098593945 
3.1415926536 
_radius 1 100 double
5.0037075531e-17 0.013526319084 0.02708825504 0.040706429879 0.054381429909 0.068086948317 0.081766357744 0.095333334748 0.10867667627 
0.12166888077 0.13417749344 0.1460777364 0.15726465946 0.16766302317 0.17723338246 0.18597334772 0.19391370385 0.20110989253 
0.20763021438 0.21354284433 0.21890417413 0.22375088892 0.22809744372 0.2319393441 0.23526119507 0.23804731344 0.24029216627 
0.24200814372 0.24322907183 0.24400908148 0.24441753914 0.24453136138 0.24442607649 0.24416668471 0.24379910199 0.24334303311 
0.24278741506 0.24208967803 0.24117962532 0.23996782849 0.23835756373 0.23625886812 0.23360320064 0.23035711844 0.2265331703 
0.22219606679 0.21746245843 0.21249351932 0.20748086986 0.2026278696 0.19812958502 0.19415528229 0.19083651594 0.18826161632 
0.18647456947 0.18547480419 0.18521560863 0.18560218594 0.18649327807 0.18771036997 0.18905537776 0.19033368701 0.19137726875 
0.19206314623 0.19232439145 0.19215266286 0.19159262316 0.1907295755 0.18967249153 0.18853523063 0.18741897341 0.18639850291 
0.18551393913 0.1847681826 0.18412919851 0.18353575476 0.18290523143 0.18214226585 0.18114706034 0.17982225488 0.17807754587 
0.17583173777 0.17301251147 0.16955469999 0.16539812792 0.16048600993 0.15476453944 0.14818378024 0.14069953084 0.13227566215 
0.12288658656 0.11251986851 0.10117927363 0.088888544546 0.075695818474 0.061678013941 0.046944001381 0.031635210737 0.015922646169 
5.5388335843e-16 
_area 1 100 double
0 0.00051035632061 0.0020454507659 0.0046153300675 0.0082301312785 0.012890762139 0.018577167359 0.02523586243 0.032769357613 
0.041030867282 0.049827594595 0.05893435226 0.068116460987 0.077157727122 0.085887371611 0.094200289754 0.10206721475 0.10953190559 
0.11668962522 0.12364244681 0.13044420873 0.1370665765 0.14340443342 0.14930966581 0.15463416661 0.15926982401 0.163177278 
0.16639350064 0.16900880866 0.17112008143 0.17279586365 0.1740824043 0.17502898282 0.17569574702 0.17613726383 0.17637485205 
0.17637170189 0.17602303862 0.17516883873 0.17362554289 0.17122481134 0.16784965777 0.16346480433 0.15813732451 0.15203845369 
0.14542021387 0.13857176894 0.1317714265 0.12525259614 0.11919011439 0.1137022814 0.10887468661 0.10480228208 0.10149990533 
0.098853413279 0.096777589743 0.095231269417 0.094178210939 0.093565128713 0.093312369565 0.093303563607 0.093368808574 0.093294323168 
0.092871606665 0.091950140179 0.090464643544 0.088437098578 0.085963243563 0.083193030931 0.080313571113 0.077538759139 0.075101519364 
0.073232873595 0.072097826248 0.071722459865 0.072029222785 0.072888374928 0.074115560158 0.075484796579 0.076753839247 0.077680891362 
0.078039307416 0.077635649386 0.076327375985 0.074034097843 0.070739462794 0.066485192475 0.061361494344 0.055498043185 0.049057586333 
0.04223156849 0.035235610452 0.028302830129 0.021674336804 0.015587747722 0.010265432138 0.0059040436426 0.0026660239124 0.00067289475347 
3.726599419e-17 
