# vtk DataFile Version 5.1
vtk output
ASCII
DATASET POLYDATA
POINTS 100 float
0.117421 0.0548832 0.68223 0.117598 0.0550045 0.682292 0.118188 0.0552306 0.682305 
0.119113 0.055561 0.682217 0.120252 0.0559937 0.681946 0.121455 0.0565233 0.68139 
0.122554 0.0571395 0.680426 0.123383 0.0578249 0.678928 0.123793 0.058554 0.67677 
0.123663 0.0592929 0.673839 0.122913 0.0599995 0.670038 0.121505 0.0606257 0.665299 
0.119444 0.0611196 0.65958 0.116772 0.0614293 0.652873 0.113559 0.0615067 0.645199 
0.10989 0.0613116 0.636607 0.105851 0.0608153 0.627169 0.101522 0.0600035 0.616974 
0.0969585 0.0588776 0.606121 0.0921935 0.0574556 0.594713 0.0872296 0.0557707 0.582846 
0.0820432 0.0538694 0.570607 0.0765899 0.0518081 0.558068 0.0708136 0.0496493 0.545283 
0.0646565 0.0474577 0.532283 0.0580703 0.045296 0.519081 0.0510255 0.0432221 0.50567 
0.0435186 0.0412863 0.492028 0.0355758 0.0395303 0.478116 0.0272534 0.0379864 0.46389 
0.0186337 0.0366782 0.449297 0.00981908 0.0356222 0.434283 0.000923097 0.034829 0.418796 
-0.00793884 0.0343049 0.402786 -0.0166584 0.0340541 0.386208 -0.0251415 0.0340787 0.369027 
-0.0333135 0.0343798 0.35121 -0.0411203 0.0349571 0.332737 -0.0485271 0.0358079 0.313592 
-0.0555143 0.0369263 0.293768 -0.062071 0.0383017 0.273266 -0.0681877 0.0399179 0.252094 
-0.0738492 0.0417523 0.230271 -0.0790291 0.0437758 0.207822 -0.083686 0.0459534 0.184784 
-0.0877634 0.0482455 0.161203 -0.0911915 0.0506099 0.137134 -0.0938934 0.0530034 0.112642 
-0.0957922 0.0553848 0.0878004 -0.0968204 0.0577166 0.062688 -0.0969284 0.0599665 0.0373889 
-0.0960926 0.0621089 0.011988 -0.0943213 0.064125 -0.0134309 -0.0916569 0.0660019 -0.0387891 
-0.0881755 0.0677321 -0.0640154 -0.0839825 0.0693115 -0.0890489 -0.079205 0.0707375 -0.11384 
-0.073982 0.0720073 -0.138354 -0.0684539 0.0731165 -0.162567 -0.0627513 0.0740577 -0.186466 
-0.0569854 0.0748202 -0.210052 -0.0512408 0.0753905 -0.233327 -0.0455711 0.0757524 -0.256302 
-0.0399985 0.0758888 -0.278983 -0.0345166 0.0757827 -0.301376 -0.0290965 0.0754186 -0.323477 
-0.0236951 0.0747834 -0.345275 -0.0182647 0.0738675 -0.366746 -0.0127629 0.0726643 -0.387857 
-0.00716133 0.0711706 -0.408563 -0.00145249 0.0693854 -0.42881 0.0043463 0.0673095 -0.448538 
0.010192 0.0649443 -0.467687 0.0160184 0.0622916 -0.486193 0.0217411 0.0593536 -0.504003 
0.0272653 0.0561333 -0.521068 0.0324941 0.0526359 -0.537353 0.0373383 0.0488702 -0.552836 
0.0417244 0.044851 -0.567509 0.0456013 0.0406011 -0.581381 0.0489454 0.0361528 -0.594472 
0.0517619 0.0315492 -0.606815 0.054084 0.0268441 -0.618451 0.0559693 0.0221015 -0.629423 
0.0574939 0.0173926 -0.639778 0.0587446 0.0127934 -0.649557 0.0598112 0.00837963 -0.658795 
0.060778 0.00422289 -0.667517 0.0617166 0.000385646 -0.675733 0.0626804 -0.0030827 -0.683441 
0.0637006 -0.00614886 -0.690625 0.0647851 -0.00879733 -0.697254 0.0659192 -0.0110303 -0.703288 
0.0670685 -0.0128661 -0.708676 0.0681845 -0.0143356 -0.713365 0.0692097 -0.0154781 -0.717297 
0.0700851 -0.0163355 -0.720421 0.0707562 -0.0169473 -0.72269 0.0711792 -0.0173453 -0.724066 
0.071326 -0.0175494 -0.724528 
LINES 2 100
OFFSETS vtktypeint64
0 100 
CONNECTIVITY vtktypeint64
0 1 2 3 4 5 6 7 8 
9 10 11 12 13 14 15 16 17 
18 19 20 21 22 23 24 25 26 
27 28 29 30 31 32 33 34 35 
36 37 38 39 40 41 42 43 44 
45 46 47 48 49 50 51 52 53 
54 55 56 57 58 59 60 61 62 
63 64 65 66 67 68 69 70 71 
72 73 74 75 76 77 78 79 80 
81 82 83 84 85 86 87 88 89 
90 91 92 93 94 95 96 97 98 
99 
POINT_DATA 100
FIELD FieldData 3
_theta 1 100 double
0 0.031733259127 0.063466518254 0.095199777382 0.12693303651 0.15866629564 0.19039955476 0.22213281389 0.25386607302 
0.28559933214 0.31733259127 0.3490658504 0.38079910953 0.41253236865 0.44426562778 0.47599888691 0.50773214603 0.53946540516 
0.57119866429 0.60293192342 0.63466518254 0.66639844167 0.6981317008 0.72986495992 0.76159821905 0.79333147818 0.82506473731 
0.85679799643 0.88853125556 0.92026451469 0.95199777382 0.98373103294 1.0154642921 1.0471975512 1.0789308103 1.1106640695 
1.1423973286 1.1741305877 1.2058638468 1.237597106 1.2693303651 1.3010636242 1.3327968833 1.3645301425 1.3962634016 
1.4279966607 1.4597299198 1.491463179 1.5231964381 1.5549296972 1.5866629564 1.6183962155 1.6501294746 1.6818627337 
1.7135959929 1.745329252 1.7770625111 1.8087957702 1.8405290294 1.8722622885 1.9039955476 1.9357288068 1.9674620659 
1.999195325 2.0309285841 2.0626618433 2.0943951024 2.1261283615 2.1578616206 2.1895948798 2.2213281389 2.253061398 
2.2847946572 2.3165279163 2.3482611754 2.3799944345 2.4117276937 2.4434609528 2.4751942119 2.506927471 2.5386607302 
2.5703939893 2.6021272484 2.6338605076 2.6655937667 2.6973270258 2.7290602849 2.7607935441 2.7925268032 2.8242600623 
2.8559933214 2.8877265806 2.9194598397 2.9511930988 2.982926358 3.0146596171 3.0463928762 3.0781261353 3.1098593945 
3.1415926536 
_radius 1 100 double
1.2291051413e-15 0.015999011522 0.031895967629 0.04758900029 0.062985412148 0.078004635934 0.092579480676 0.10665567699 0.12019003841 
0.13314778463 0.14549969487 0.15721973723 0.16828363059 0.17866849056 0.18835341782 0.19732072639 0.20555750174 0.21305725395 
0.21982150201 0.22586114852 0.23119748264 0.2358626132 0.23989911999 0.24335874841 0.24630007105 0.2487851782 0.25087559776 
0.25262775565 0.25408836288 0.25529015553 0.25624840808 0.25695858974 0.25739548291 0.25751408782 0.25725269205 0.25653848167 
0.25529586899 0.25345724536 0.25097521038 0.24783467785 0.2440628399 0.23973495355 0.2349743584 0.22994598789 0.22484375808 
0.21987339785 0.21523327633 0.21109633936 0.20759618279 0.20481943543 0.20280500725 0.20154871948 0.2010102067 0.20111877527 
0.20177650968 0.2028596012 0.20422106889 0.20569826069 0.20712643348 0.20835660746 0.2092736979 0.20981061978 0.20995526385 
0.20974906476 0.209277659 0.20865554209 0.20800752589 0.20745005575 0.20707503324 0.20693785016 0.2070502608 0.20737795039 
0.2078424024 0.20832671716 0.2086849881 0.20875449667 0.2083694936 0.2073749804 0.20563886112 0.20306109447 0.19957894805 
0.19516801547 0.18983918934 0.1836322074 0.17660669119 0.16883181161 0.16037587331 0.15129719464 0.14163760211 0.13141958208 
0.12064760775 0.10931345206 0.097404557312 0.084913957699 0.071849992159 0.058244150239 0.044155796653 0.029673090127 0.014910016746 
6.3836798209e-16 
_area 1 100 double
0 0.00064531455153 0.0025606017911 0.0056871754547 0.0099372759428 0.015206324126 0.021385248743 0.028369424919 0.036061157984 
0.044364219025 0.053172284133 0.062357138839 0.071763762573 0.08121589752 0.090530301482 0.09953484326 0.10808575021 0.11608089125 
0.1234675127 0.13024401109 0.13645619748 0.14218875033 0.14755175968 0.15266148981 0.15761627894 0.16247303135 0.16723241851 
0.17183790111 0.17618793976 0.18015722287 0.18362158028 0.18648012333 0.18866734478 0.19014995215 0.19090898964 0.19091496941 
0.19010831418 0.18839643569 0.18567208747 0.18184835722 0.17689861738 0.17088828001 0.16398904635 0.15647240195 0.14868382687 
0.14100067699 0.13377670861 0.12728193483 0.12166085211 0.1169328548 0.1130328788 0.10986818741 0.10736241976 0.10548286692 
0.10425786566 0.10373641792 0.10388022275 0.10453368283 0.10546804002 0.10639212639 0.10695973304 0.10691019847 0.10612509421 
0.10464214871 0.1025953324 0.10016757317 0.097598144538 0.095138834416 0.093033051021 0.091500457021 0.090709640303 0.090751918811 
0.091584381087 0.093010790418 0.09479935144 0.096705706074 0.098462412351 0.099794347992 0.10044721746 0.1002144185 0.098954729407 
0.096599147595 0.093148957102 0.088668210022 0.083272693335 0.077115980666 0.070373199444 0.063224599946 0.055842230678 0.048382707753 
0.040987229126 0.03378753838 0.026914593318 0.020506029056 0.014709260467 0.0096787291055 0.0055675951315 0.0025155545253 0.0006352520812 
1.410812824e-17 
