# vtk DataFile Version 5.1
vtk output
ASCII
DATASET POLYDATA
POINTS 100 float
0.13026 0.0568334 0.734205 0.13034 0.0570703 0.733946 0.130616 0.0576196 0.732984 
0.131038 0.0584301 0.731345 0.13153 0.0594225 0.72907 0.132001 0.0604987 0.726202 
0.132352 0.0615531 0.722785 0.132495 0.0624843 0.718849 0.132355 0.0632066 0.714407 
0.131886 0.0636588 0.709446 0.131067 0.06381 0.703933 0.129911 0.0636612 0.697812 
0.128451 0.0632434 0.691015 0.12674 0.0626117 0.683467 0.124835 0.0618361 0.675103 
0.122789 0.0609911 0.665875 0.12064 0.0601452 0.655765 0.118402 0.0593505 0.644788 
0.116063 0.0586357 0.633001 0.11358 0.0580015 0.620497 0.110889 0.0574204 0.6074 
0.107907 0.0568398 0.593857 0.104545 0.0561884 0.58002 0.100717 0.0553858 0.566039 
0.0963579 0.0543527 0.552039 0.0914234 0.0530216 0.538115 0.0859032 0.0513459 0.524319 
0.0798197 0.0493076 0.510657 0.0732266 0.046921 0.497091 0.0662023 0.0442335 0.483543 
0.0588398 0.0413229 0.469902 0.0512361 0.0382917 0.456043 0.0434795 0.0352591 0.441835 
0.0356399 0.0323516 0.427157 0.0277614 0.0296941 0.411909 0.0198587 0.0274005 0.39602 
0.011918 0.0255667 0.379451 0.00390292 0.0242661 0.362199 -0.00423668 0.0235464 0.344285 
-0.0125526 0.02343 0.325756 -0.0210859 0.0239153 0.306667 -0.0298541 0.0249804 0.287077 
-0.0388424 0.026587 0.267035 -0.0479969 0.0286851 0.246579 -0.057223 0.0312166 0.225726 
-0.066389 0.034119 0.204475 -0.0753338 0.037327 0.182809 -0.0838775 0.0407741 0.160703 
-0.0918358 0.0443929 0.138128 -0.0990339 0.0481149 0.115064 -0.105319 0.0518703 0.091506 
-0.110574 0.0555883 0.0674687 -0.114721 0.0591973 0.0429926 -0.117725 0.0626266 0.0181422 
-0.119599 0.065808 -0.00699657 -0.120388 0.068679 -0.0323229 -0.120171 0.0711846 -0.0577292 
-0.119047 0.0732807 -0.0831108 -0.117123 0.0749356 -0.108375 -0.114509 0.0761312 -0.133448 
-0.111304 0.0768631 -0.15828 -0.107598 0.0771394 -0.182851 -0.103464 0.0769789 -0.20716 
-0.0989605 0.0764075 -0.231231 -0.0941352 0.0754558 -0.255099 -0.0890259 0.0741554 -0.278802 
-0.0836673 0.072537 -0.302372 -0.078094 0.0706285 -0.325829 -0.0723432 0.0684546 -0.349169 
-0.0664565 0.0660377 -0.372366 -0.0604787 0.0633994 -0.395363 -0.0544563 0.060563 -0.418084 
-0.0484346 0.057556 -0.440432 -0.0424538 0.0544119 -0.462296 -0.0365469 0.0511719 -0.483564 
-0.0307379 0.0478845 -0.504129 -0.0250416 0.0446044 -0.523896 -0.0194656 0.0413896 -0.542788 
-0.0140135 0.0382974 -0.56075 -0.00869003 0.0353797 -0.577754 -0.00350538 0.0326787 -0.593788 
0.00151968 0.0302221 -0.608864 0.0063509 0.028021 -0.623004 0.0109394 0.0260679 -0.636241 
0.015223 0.0243383 -0.648608 0.0191307 0.0227929 -0.660137 0.0225891 0.0213829 -0.670855 
0.0255306 0.0200558 -0.680781 0.0279024 0.018762 -0.689923 0.0296747 0.0174615 -0.698284 
0.0308478 0.0161292 -0.705862 0.0314555 0.0147583 -0.71265 0.0315655 0.0133626 -0.718641 
0.031276 0.0119746 -0.723828 0.0307082 0.0106423 -0.728207 0.029996 0.00942421 -0.731778 
0.0292734 0.00838174 -0.734542 0.0286618 0.00757248 -0.736502 0.0282578 0.00704296 -0.737661 
0.0281229 0.00682313 -0.738023 
LINES 2 100
OFFSETS vtktypeint64
0 100 
CONNECTIVITY vtktypeint64
0 1 2 3 4 5 6 7 8 
9 10 11 12 13 14 15 16 17 
18 19 20 21 22 23 24 25 26 
27 28 29 30 31 32 33 34 35 
36 37 38 39 40 41 42 43 44 
45 46 47 48 49 50 51 52 53 
54 55 56 57 58 59 60 61 62 
63 64 65 66 67 68 69 70 71 
72 73 74 75 76 77 78 79 80 
81 82 83 84 85 86 87 88 89 
90 91 92 93 94 95 96 97 98 
99 
POINT_DATA 100
FIELD FieldData 3
_theta 1 100 double
0 0.031733259127 0.063466518254 0.095199777382 0.12693303651 0.15866629564 0.19039955476 0.22213281389 0.25386607302 
0.28559933214 0.31733259127 0.3490658504 0.38079910953 0.41253236865 0.44426562778 0.47599888691 0.50773214603 0.53946540516 
0.57119866429 0.60293192342 0.63466518254 0.66639844167 0.6981317008 0.72986495992 0.76159821905 0.79333147818 0.82506473731 
0.85679799643 0.88853125556 0.92026451469 0.95199777382 0.98373103294 1.0154642921 1.0471975512 1.0789308103 1.1106640695 
1.1423973286 1.1741305877 1.2058638468 1.237597106 1.2693303651 1.3010636242 1.3327968833 1.3645301425 1.3962634016 
1.4279966607 1.4597299198 1.491463179 1.5231964381 1.5549296972 1.5866629564 1.6183962155 1.6501294746 1.6818627337 
1.7135959929 1.745329252 1.7770625111 1.8087957702 1.8405290294 1.8722622885 1.9039955476 1.9357288068 1.9674620659 
1.999195325 2.0309285841 2.0626618433 2.0943951024 2.1261283615 2.1578616206 2.1895948798 2.2213281389 2.253061398 
2.2847946572 2.3165279163 2.3482611754 2.3799944345 2.4117276937 2.4434609528 2.4751942119 2.506927471 2.5386607302 
2.5703939893 2.6021272484 2.6338605076 2.6655937667 2.6973270258 2.7290602849 2.7607935441 2.7925268032 2.8242600623 
2.8559933214 2.8877265806 2.9194598397 2.9511930988 2.982926358 3.0146596171 3.0463928762 3.0781261353 3.1098593945 
3.1415926536 
_radius 1 100 double
1.1144001868e-15 0.013866017865 0.027750744201 0.041657562919 0.055572833191 0.069460681979 0.083260890788 0.096890130614 0.1102463369 
0.12321557376 0.13568039612 0.14752858329 0.1586612356 0.16899953877 0.17848986 0.18710708733 0.19485617795 0.20177178995 
0.20791578561 0.21337246583 0.21824166753 0.22263023389 0.2266426871 0.23037208619 0.23389203833 0.23725071027 0.24046747163 
0.24353243889 0.2464086773 0.2490363478 0.25133795269 0.25322415808 0.25460020855 0.25537325356 0.25546068823 0.25479899023 
0.25335192558 0.25111678846 0.2481276322 0.24445505571 0.24020273931 0.23550136466 0.23050073533 0.22536088993 0.22024286728 
0.21529964596 0.21066772926 0.20645994646 0.20276024558 0.19962130831 0.19706539069 0.19508784344 0.19366178063 0.19274206587 
0.19226751677 0.19216161723 0.19233321957 0.19267901293 0.19308884518 0.1934537783 0.19367565326 0.19367637364 0.19340519955 
0.1928429128 0.19200247247 0.19092645851 0.18968203312 0.18835426839 0.18703852002 0.18583219996 0.18482603155 0.18409487677 
0.18368857743 0.18362375879 0.18387782381 0.1843861471 0.18504285137 0.18570489351 0.18619883955 0.18632972706 0.18589160894 
0.18467948819 0.18250224637 0.1791958563 0.17463578648 0.16874722088 0.16151166864 0.15296878507 0.14321275049 0.13238328213 
0.12065217004 0.10820698488 0.095234139383 0.081903642878 0.068357577736 0.054703575135 0.041013550802 0.027326972231 0.013657282309 
9.452710331e-16 
_area 1 100 double
0 0.00056729402967 0.0022725830386 0.0051225029896 0.009117202185 0.014237299827 0.020431281796 0.027606954045 0.035629420391 
0.044326286112 0.05349890889 0.062936992437 0.072433087964 0.081794051716 0.090848445956 0.099451715181 0.10749265799 0.11490301221 
0.12166776636 0.12783106295 0.1334936937 0.1388015072 0.14392583826 0.14903557053 0.1542598609 0.15964968616 0.16516028108 
0.170667649 0.17600306165 0.1809820005 0.18542052112 0.18914355531 0.19198965935 0.19381432601 0.19449384841 0.19393216647 
0.19207199017 0.18890887622 0.18450428764 0.1789924539 0.1725768195 0.16551482554 0.15809382512 0.15060462949 0.14332024619 
0.13648315624 0.13029282702 0.12487245953 0.12022588369 0.11628073803 0.11294996451 0.11009390092 0.10765902605 0.10563794174 
0.10402215884 0.10277082984 0.10181305503 0.10106607002 0.10036079523 0.099554739375 0.098567601601 0.097365032741 0.095948030182 
0.094343817334 0.092598038788 0.090765906974 0.088904601517 0.0870712955 0.085326889604 0.083741544438 0.082397981317 0.081390140141 
0.080814644126 0.080751835417 0.081240401723 0.082257531921 0.083709404196 0.085430071353 0.0871887183 0.088705615401 0.089675393423 
0.089795910943 0.08880054593 0.086490228561 0.082760794188 0.077621611697 0.071201919377 0.063742189287 0.055570140834 0.047064607064 
0.038613719078 0.030574957376 0.023243236713 0.016830849436 0.011461017823 0.0071748562496 0.00394951078 0.001723645588 0.00042569382051 
7.9152051498e-18 
