# vtk DataFile Version 5.1
vtk output
ASCII
DATASET POLYDATA
POINTS 100 float
0.104695 0.0549923 0.674092 0.104813 0.0550119 0.673993 0.105216 0.0549111 0.673478 
0.105861 0.0546992 0.672533 0.106677 0.054392 0.671136 0.107577 0.0540118 0.669254 
0.108465 0.053587 0.666848 0.109245 0.0531518 0.663866 0.109829 0.0527444 0.660249 
0.110147 0.0524051 0.655936 0.110146 0.0521732 0.650864 0.109795 0.0520834 0.644978 
0.109084 0.0521622 0.638237 0.108016 0.0524234 0.630619 0.106605 0.0528654 0.62213 
0.104866 0.053469 0.612802 0.102811 0.0541962 0.602698 0.100444 0.0549918 0.591909 
0.0977539 0.0557862 0.580541 0.0947199 0.0565005 0.568717 0.0913095 0.0570519 0.556555 
0.0874855 0.0573617 0.544164 0.0832113 0.057362 0.531632 0.0784586 0.0570021 0.519013 
0.073214 0.0562545 0.506331 0.0674846 0.0551174 0.493571 0.0613011 0.0536158 0.480686 
0.0547181 0.0518003 0.467608 0.0478112 0.0497425 0.454255 0.0406715 0.0475291 0.440545 
0.0333979 0.0452546 0.426411 0.0260881 0.0430135 0.411807 0.0188295 0.0408924 0.39672 
0.0116912 0.0389642 0.38117 0.004719 0.037283 0.365208 -0.00206812 0.0358821 0.348908 
-0.00867646 0.0347746 0.332356 -0.0151337 0.0339557 0.315633 -0.0214815 0.0334073 0.298806 
-0.0277665 0.0331039 0.281908 -0.0340303 0.0330187 0.264934 -0.0402991 0.0331295 0.247833 
-0.0465765 0.0334237 0.230513 -0.0528373 0.0339004 0.212847 -0.0590261 0.0345723 0.194688 
-0.0650586 0.0354631 0.175888 -0.070827 0.0366049 0.156314 -0.0762086 0.0380328 0.135871 
-0.0810752 0.0397792 0.114517 -0.0853048 0.0418677 0.0922714 -0.0887917 0.0443077 0.0692191 
-0.0914549 0.0470907 0.0455078 -0.0932448 0.0501878 0.0213342 -0.0941452 0.0535499 -0.00307259 
-0.0941727 0.0571095 -0.0274737 -0.0933725 0.0607846 -0.0516436 -0.0918117 0.0644837 -0.0753916 
-0.0895706 0.0681114 -0.0985801 -0.0867335 0.0715746 -0.121135 -0.0833803 0.0747873 -0.143051 
-0.0795793 0.0776748 -0.164384 -0.0753827 0.0801761 -0.185241 -0.0708245 0.0822447 -0.20576 
-0.0659218 0.0838482 -0.226092 -0.0606785 0.0849665 -0.246372 -0.0550906 0.0855888 -0.266707 
-0.0491535 0.0857116 -0.287153 -0.0428687 0.0853354 -0.307711 -0.0362499 0.0844634 -0.328324 
-0.029328 0.0831005 -0.348886 -0.0221533 0.0812535 -0.369251 -0.0147955 0.0789329 -0.389256 
-0.00734164 0.0761542 -0.408737 0.000108351 0.0729408 -0.42755 0.00744775 0.0693263 -0.445584 
0.0145695 0.0653556 -0.462776 0.021373 0.061086 -0.479108 0.0277699 0.0565867 -0.494607 
0.0336889 0.0519365 -0.509332 0.0390786 0.0472211 -0.523363 0.0439087 0.0425286 -0.536774 
0.0481694 0.0379451 -0.549626 0.0518692 0.0335501 -0.561944 0.055032 0.0294119 -0.573712 
0.0576928 0.0255848 -0.584871 0.0598946 0.0221065 -0.595322 0.0616841 0.0189975 -0.604937 
0.0631096 0.0162621 -0.613579 0.0642181 0.01389 -0.621121 0.0650546 0.0118596 -0.627466 
0.0656614 0.0101413 -0.632568 0.0660778 0.00870087 -0.636438 0.0663402 0.00750357 -0.639154 
0.0664824 0.00651632 -0.640857 0.066536 0.00571002 -0.641739 0.0665293 0.00506068 -0.642023 
0.0664874 0.00454983 -0.64194 0.0664314 0.00416433 -0.641705 0.0663774 0.00389579 -0.641492 
0.0663358 0.00373993 -0.641412 
LINES 2 100
OFFSETS vtktypeint64
0 100 
CONNECTIVITY vtktypeint64
0 1 2 3 4 5 6 7 8 
9 10 11 12 13 14 15 16 17 
18 19 20 21 22 23 24 25 26 
27 28 29 30 31 32 33 34 35 
36 37 38 39 40 41 42 43 44 
45 46 47 48 49 50 51 52 53 
54 55 56 57 58 59 60 61 62 
63 64 65 66 67 68 69 70 71 
72 73 74 75 76 77 78 79 80 
81 82 83 84 85 86 87 88 89 
90 91 92 93 94 95 96 97 98 
99 
POINT_DATA 100
FIELD FieldData 3
_theta 1 100 double
0 0.031733259127 0.063466518254 0.095199777382 0.12693303651 0.15866629564 0.19039955476 0.22213281389 0.25386607302 
0.28559933214 0.31733259127 0.3490658504 0.38079910953 0.41253236865 0.44426562778 0.47599888691 0.50773214603 0.53946540516 
0.57119866429 0.60293192342 0.63466518254 0.66639844167 0.6981317008 0.72986495992 0.76159821905 0.79333147818 0.82506473731 
0.85679799643 0.88853125556 0.92026451469 0.95199777382 0.98373103294 1.0154642921 1.0471975512 1.0789308103 1.1106640695 
1.1423973286 1.1741305877 1.2058638468 1.237597106 1.2693303651 1.3010636242 1.3327968833 1.3645301425 1.3962634016 
1.4279966607 1.4597299198 1.491463179 1.5231964381 1.5549296972 1.5866629564 1.6183962155 1.6501294746 1.6818627337 
1.7135959929 1.745329252 1.7770625111 1.8087957702 1.8405290294 1.8722622885 1.9039955476 1.9357288068 1.9674620659 
1.999195325 2.0309285841 2.0626618433 2.0943951024 2.1261283615 2.1578616206 2.1895948798 2.2213281389 2.253061398 
2.2847946572 2.3165279163 2.3482611754 2.3799944345 2.4117276937 2.4434609528 2.4751942119 2.506927471 2.5386607302 
2.5703939893 2.6021272484 2.6338605076 2.6655937667 2.6973270258 2.7290602849 2.7607935441 2.7925268032 2.8242600623 
2.8559933214 2.8877265806 2.9194598397 2.9511930988 2.982926358 3.0146596171 3.0463928762 3.0781261353 3.1098593945 
3.1415926536 
_radius 1 100 double
6.8733588249e-16 0.015755232333 0.031344587417 0.046607377097 0.06140477673 0.07562761053 0.089200691918 0.10208356604 0.11426802501 
0.1257731368 0.13663871278 0.1469181451 0.15667139447 0.16595863904 0.17483479169 0.18334489259 0.19152038018 0.19937639593 
0.20691043566 0.21410269622 0.22091836384 0.22731189271 0.2332330512 0.23863416115 0.24347756482 0.24774204629 0.25142687112 
0.25455239098 0.25715677178 0.25928921311 0.26100082368 0.26233487597 0.26331830469 0.26395599373 0.26422874538 0.26409509379 
0.26349654598 0.26236551536 0.26063511443 0.25824997752 0.25517727513 0.25141700166 0.24701048372 0.24204592942 0.23665980422 
0.23103296745 0.22538093224 0.21993839624 0.21493931666 0.21059506296 0.20707413575 0.20448704938 0.20287890025 0.20223007328 
0.20246327892 0.20345377711 0.20503999359 0.20703356137 0.20922990728 0.21142132894 0.21341331979 0.21504247224 0.21619242884 
0.21680428275 0.21687926809 0.21647343568 0.21568548295 0.21463979624 0.21346717759 0.2122858056 0.21118480067 0.21021236888 
0.20936990574 0.20861263466 0.20785631847 0.20698847165 0.20588172215 0.20440687914 0.20244380176 0.19988898027 0.19665954128 
0.19269405559 0.18795100967 0.18240603259 0.17604889828 0.16888098096 0.1609133653 0.15216540749 0.14266337626 0.13243892384 
0.12152744384 0.10996668427 0.097796135863 0.085057647899 0.071797459523 0.058069427777 0.043938737012 0.029484905072 0.01480270711 
1.0393990025e-15 
_area 1 100 double
0 0.00068726765683 0.002712305693 0.0059706925356 0.010306408866 0.015533983973 0.021461585819 0.027910589056 0.034728994067 
0.041798044656 0.04903279093 0.056378414814 0.063805265231 0.071305396821 0.078890390978 0.086586761605 0.094425543341 0.10242662828 
0.1105821411 0.11884379424 0.12711739743 0.13526624404 0.14312521954 0.1505270953 0.15733873474 0.16349816753 0.16903761037 
0.1740774982 0.17878591021 0.18331472884 0.18773829182 0.19202002326 0.19601685693 0.19951277064 0.20226380154 0.20403938694 
0.20465324841 0.20398400607 0.20198612056 0.19868857236 0.19417952681 0.18858145134 0.18202787346 0.1746542477 0.1666077408 
0.15806837894 0.14926715829 0.14049014991 0.13206614842 0.12434163639 0.11764796391 0.11226459107 0.10838560772 0.10609701008 
0.10532711963 0.10575544589 0.10692180729 0.1084383076 0.11003124774 0.11150206485 0.11268376572 0.11341266901 0.11352827987 
0.11290230373 0.11147904136 0.10930430963 0.10653124442 0.10340328099 0.10021978495 0.097290147746 0.094882686362 0.093179890094 
0.092253116334 0.092061275704 0.092468849803 0.093273007995 0.094233398301 0.095102308588 0.09564891987 0.095671546302 0.094999703907 
0.093493788818 0.091048934616 0.087603711648 0.08314928418 0.077734227156 0.071463140503 0.064489914754 0.057007480962 0.049235757284 
0.041408999295 0.033763105022 0.026523050049 0.019891085574 0.014037401736 0.0090954979232 0.0051634431801 0.0023096688387 0.00057964120855 
4.2186037629e-17 
