# vtk DataFile Version 5.1
vtk output
ASCII
DATASET POLYDATA
POINTS 100 float
0.141232 0.0535864 0.672677 0.141243 0.0537335 0.672695 0.141328 0.0540079 0.67256 
0.141464 0.0544139 0.672214 0.141614 0.0549576 0.671568 0.141729 0.0556436 0.670507 
0.141757 0.0564722 0.668897 0.141643 0.0574352 0.666601 0.141336 0.058513 0.663485 
0.140789 0.0596727 0.659432 0.139962 0.0608669 0.654351 0.138821 0.0620348 0.648184 
0.137336 0.0631051 0.640914 0.13548 0.064 0.632565 0.133225 0.0646405 0.623199 
0.13054 0.0649529 0.612917 0.127388 0.0648748 0.601846 0.123729 0.0643611 0.590129 
0.119521 0.0633885 0.57792 0.114721 0.0619588 0.565363 0.109293 0.0600996 0.552587 
0.103213 0.0578637 0.539693 0.0964761 0.0553259 0.526752 0.0890981 0.0525781 0.513794 
0.0811216 0.0497232 0.500817 0.0726148 0.0468683 0.487785 0.0636699 0.0441173 0.474634 
0.0543973 0.0415649 0.461286 0.0449176 0.0392907 0.447656 0.0353523 0.0373554 0.433662 
0.0258135 0.0357986 0.419234 0.0163938 0.0346382 0.40432 0.00715928 0.0338726 0.38889 
-0.00185603 0.0334826 0.372934 -0.0106505 0.0334365 0.356463 -0.0192521 0.0336943 0.339498 
-0.0277108 0.0342125 0.322063 -0.0360883 0.0349493 0.304182 -0.0444449 0.0358677 0.285863 
-0.0528263 0.0369387 0.2671 -0.0612508 0.0381426 0.247865 -0.069699 0.0394695 0.228115 
-0.0781076 0.0409178 0.20779 -0.0863682 0.0424931 0.186825 -0.0943303 0.0442047 0.165161 
-0.101811 0.0460629 0.142752 -0.108607 0.0480759 0.119583 -0.114513 0.0502468 0.0956713 
-0.119336 0.0525714 0.0710791 -0.122914 0.0550369 0.0459105 -0.125131 0.0576203 0.0203102 
-0.125926 0.0602894 -0.00554476 -0.1253 0.0630036 -0.0314573 -0.123315 0.0657152 -0.0572249 
-0.120088 0.0683717 -0.0826559 -0.11578 0.070919 -0.107585 -0.110583 0.073303 -0.131884 
-0.1047 0.0754732 -0.155475 -0.0983305 0.0773841 -0.17833 -0.0916545 0.0789978 -0.200472 
-0.0848175 0.0802847 -0.221966 -0.0779239 0.081224 -0.242906 -0.0710326 0.081804 -0.263404 
-0.0641588 0.0820212 -0.283571 -0.05728 0.0818788 -0.303499 -0.0503458 0.0813849 -0.323251 
-0.0432907 0.0805508 -0.342851 -0.0360469 0.0793886 -0.36228 -0.0285578 0.0779096 -0.381475 
-0.0207884 0.0761224 -0.40034 -0.0127334 0.074032 -0.418754 -0.00442147 0.0716397 -0.436587 
0.00408448 0.0689428 -0.453717 0.0126908 0.0659368 -0.47004 0.0212794 0.0626161 -0.485488 
0.0297169 0.0589774 -0.500031 0.0378642 0.0550216 -0.513686 0.0455869 0.0507571 -0.526508 
0.0527638 0.0462019 -0.538587 0.0592953 0.0413856 -0.550036 0.0651077 0.0363506 -0.560975 
0.0701563 0.031152 -0.571518 0.0744258 0.0258564 -0.581759 0.0779282 0.0205398 -0.591763 
0.0806996 0.0152842 -0.601557 0.082795 0.0101736 -0.611131 0.0842842 0.00528916 -0.620437 
0.0852458 0.000705164 -0.629399 0.0857631 -0.00351569 -0.637924 0.0859197 -0.00732549 -0.645909 
0.0857973 -0.0106935 -0.653256 0.0854724 -0.0136068 -0.659882 0.0850157 -0.0160699 -0.665727 
0.0844906 -0.0181027 -0.670754 0.0839529 -0.0197367 -0.674952 0.0834506 -0.0210108 -0.678331 
0.0830232 -0.0219662 -0.680914 0.0827021 -0.0226415 -0.682735 0.0825098 -0.023068 -0.683821 
0.08246 -0.0232661 -0.684193 
LINES 2 100
OFFSETS vtktypeint64
0 100 
CONNECTIVITY vtktypeint64
0 1 2 3 4 5 6 7 8 
9 10 11 12 13 14 15 16 17 
18 19 20 21 22 23 24 25 26 
27 28 29 30 31 32 33 34 35 
36 37 38 39 40 41 42 43 44 
45 46 47 48 49 50 51 52 53 
54 55 56 57 58 59 60 61 62 
63 64 65 66 67 68 69 70 71 
72 73 74 75 76 77 78 79 80 
81 82 83 84 85 86 87 88 89 
90 91 92 93 94 95 96 97 98 
99 
POINT_DATA 100
FIELD FieldData 3
_theta 1 100 double
0 0.031733259127 0.063466518254 0.095199777382 0.12693303651 0.15866629564 0.19039955476 0.22213281389 0.25386607302 
0.28559933214 0.31733259127 0.3490658504 0.38079910953 0.41253236865 0.44426562778 0.47599888691 0.50773214603 0.53946540516 
0.57119866429 0.60293192342 0.63466518254 0.66639844167 0.6981317008 0.72986495992 0.76159821905 0.79333147818 0.82506473731 
0.85679799643 0.88853125556 0.92026451469 0.95199777382 0.98373103294 1.0154642921 1.0471975512 1.0789308103 1.1106640695 
1.1423973286 1.1741305877 1.2058638468 1.237597106 1.2693303651 1.3010636242 1.3327968833 1.3645301425 1.3962634016 
1.4279966607 1.4597299198 1.491463179 1.5231964381 1.5549296972 1.5866629564 1.6183962155 1.6501294746 1.6818627337 
1.7135959929 1.745329252 1.7770625111 1.8087957702 1.8405290294 1.8722622885 1.9039955476 1.9357288068 1.9674620659 
1.999195325 2.0309285841 2.0626618433 2.0943951024 2.1261283615 2.1578616206 2.1895948798 2.2213281389 2.253061398 
2.2847946572 2.3165279163 2.3482611754 2.3799944345 2.4117276937 2.4434609528 2.4751942119 2.506927471 2.5386607302 
2.5703939893 2.6021272484 2.6338605076 2.6655937667 2.6973270258 2.7290602849 2.7607935441 2.7925268032 2.8242600623 
2.8559933214 2.8877265806 2.9194598397 2.9511930988 2.982926358 3.0146596171 3.0463928762 3.0781261353 3.1098593945 
3.1415926536 
_radius 1 100 double
2.2041230194e-16 0.014479372566 0.028887308652 0.043149843957 0.05720329275 0.070995198789 0.084481619902 0.097621700283 0.11037131942 
0.12267787708 0.13447794263 0.14569868901 0.15626300379 0.16609724271 0.17514002721 0.18335038118 0.19071377839 0.19724517355 
0.20298867988 0.20801414484 0.21241137601 0.21628305603 0.21973731872 0.22288052386 0.22581019382 0.22860776279 0.23133102393 
0.23400685194 0.23662550202 0.23913808392 0.24145849189 0.24347027515 0.24503797548 0.24602165011 0.2462928174 0.24574993144 
0.24433162384 0.24202625485 0.23887673972 0.23498014027 0.23048210469 0.22556683148 0.22044373606 0.21533233245 0.21044696854 
0.20598295341 0.20210526509 0.19894042289 0.19657137907 0.19503475712 0.19431979968 0.19436900053 0.19508113301 0.19631772626 
0.1979137289 0.19969208921 0.20148053153 0.20312771375 0.20451600445 0.20556922719 0.20625504642 0.20658257383 0.20659620929 
0.20636689882 0.20598200617 0.2055349071 0.20511526663 0.20480069661 0.20465005111 0.20469816556 0.20495172456 0.20538627362 
0.20594486124 0.20653895031 0.20705189361 0.20734466882 0.2072631384 0.20664611362 0.20533389841 0.20317741634 0.20004805934 
0.19584787691 0.19051892208 0.18404999853 0.17647905259 0.16789001925 0.15840386138 0.14816464681 0.13732262891 0.12601719019 
0.11436283424 0.10244091364 0.090298515471 0.077954275203 0.06540934147 0.052660659764 0.039713388733 0.026589649409 0.013331822976 
5.0913038339e-16 
_area 1 100 double
0 0.00059056706059 0.0023487788267 0.0052339924198 0.0091785164705 0.014089455131 0.019853462874 0.026344107953 0.033429667737 
0.040978275764 0.048858485442 0.056936189178 0.065071526782 0.073119945972 0.080939709849 0.088405242631 0.095423010567 0.10194467172 
0.10797183538 0.1135495811 0.11875201139 0.12366788208 0.12839163882 0.13301700522 0.13762662712 0.14227680162 0.14698331136 
0.15171384362 0.1563871208 0.16087651646 0.16501735528 0.16861866238 0.17147997107 0.17341176472 0.17425509038 0.17389527047 
0.17227004335 0.16937798502 0.16528786053 0.16014136292 0.15414484097 0.14755393084 0.1406571453 0.13376068081 0.12717309753 
0.12118842324 0.11606802883 0.11202435045 0.10920347464 0.10754454589 0.1067101535 0.10638220328 0.10632150395 0.10637947367 
0.10650875389 0.10668215697 0.10683268051 0.1068873136 0.1067870183 0.10649595671 0.10600680006 0.10534570079 0.10455137369 
0.10366168356 0.10273289848 0.10177889468 0.10084407272 0.099985441238 0.099263279311 0.098750913314 0.098531930189 0.098682665186 
0.099247134578 0.10020407994 0.10137234193 0.1024580709 0.10322352191 0.10349304114 0.10312364561 0.10194494891 0.099749791074 
0.096384529401 0.091804004221 0.086075570508 0.079369203151 0.071935303345 0.064068397433 0.056063692453 0.048178973319 0.040612802833 
0.033502530852 0.026937102112 0.020975584084 0.015663863821 0.011045747746 0.0071678625372 0.0040795818498 0.0018295559094 0.00045999595441 
2.9400395925e-17 
