# vtk DataFile Version 5.1
vtk output
ASCII
DATASET POLYDATA
POINTS 100 float
0.102676 0.0501908 0.684482 0.102724 0.0503267 0.684167 0.102948 0.0506276 0.683071 
0.103301 0.0510848 0.68122 0.10371 0.0516847 0.678649 0.104085 0.0524091 0.675405 
0.104332 0.0532368 0.671534 0.104359 0.0541445 0.667079 0.104091 0.0551077 0.662074 
0.103475 0.0561015 0.656538 0.102484 0.0571008 0.650477 0.101118 0.0580801 0.643881 
0.0993983 0.0590135 0.636733 0.0973633 0.0598735 0.62901 0.0950577 0.0606305 0.620692 
0.0925243 0.0612524 0.611765 0.0897943 0.0617044 0.602229 0.0868816 0.0619497 0.5921 
0.083779 0.0619502 0.581409 0.0804584 0.0616696 0.570202 0.0768748 0.061075 0.558535 
0.0729726 0.0601413 0.546467 0.0686948 0.0588538 0.534056 0.0639919 0.0572124 0.521348 
0.0588307 0.0552339 0.508376 0.0532007 0.0529542 0.495156 0.047117 0.0504287 0.481684 
0.0406202 0.0477316 0.467943 0.0337722 0.044953 0.453904 0.0266486 0.0421944 0.439532 
0.0193298 0.0395637 0.424797 0.0118913 0.0371678 0.409674 0.00439397 0.0351061 0.394154 
-0.00312147 0.0334633 0.378241 -0.0106382 0.0323035 0.361954 -0.0181615 0.0316659 0.345323 
-0.0257139 0.0315621 0.328379 -0.0333256 0.0319755 0.311151 -0.0410227 0.0328641 0.293658 
-0.0488151 0.0341645 0.275896 -0.0566846 0.035798 0.25784 -0.0645762 0.0376784 0.23944 
-0.0723927 0.0397199 0.220622 -0.079996 0.0418444 0.2013 -0.0872127 0.0439891 0.181381 
-0.0938453 0.0461104 0.160778 -0.0996881 0.0481871 0.139427 -0.104544 0.05022 0.117294 
-0.108246 0.0522295 0.0943846 -0.110667 0.0542507 0.0707525 -0.111743 0.0563268 0.0464953 
-0.111471 0.0585012 0.0217504 -0.109916 0.0608098 -0.00331582 -0.107203 0.0632742 -0.0285221 
-0.103505 0.0658958 -0.0536885 -0.0990301 0.0686522 -0.0786529 -0.0939973 0.0714972 -0.103285 
-0.0886185 0.0743618 -0.127495 -0.0830789 0.077159 -0.151241 -0.0775212 0.0797899 -0.174525 
-0.0720355 0.0821514 -0.197388 -0.0666547 0.084144 -0.219895 -0.0613568 0.0856794 -0.242121 
-0.0560728 0.0866866 -0.264134 -0.0507002 0.087116 -0.28598 -0.0451184 0.0869415 -0.30767 
-0.0392069 0.0861593 -0.32917 -0.0328611 0.0847856 -0.350405 -0.0260067 0.082851 -0.371261 
-0.0186093 0.0803952 -0.391596 -0.0106796 0.0774606 -0.411258 -0.00227307 0.074087 -0.430101 
0.00651498 0.0703073 -0.448 0.015558 0.0661457 -0.464874 0.0247095 0.0616178 -0.480686 
0.0338155 0.0567334 -0.495453 0.0427262 0.0515012 -0.509242 0.0513064 0.0459345 -0.522158 
0.0594426 0.0400581 -0.534328 0.0670477 0.0339141 -0.545884 0.0740623 0.0275662 -0.556942 
0.0804526 0.0211024 -0.567584 0.0862072 0.0146338 -0.577843 0.091332 0.00829098 -0.587699 
0.0958451 0.002217 -0.597078 0.0997721 -0.00344211 -0.60586 0.103143 -0.00854843 -0.613898 
0.105988 -0.0129838 -0.621033 0.108342 -0.0166607 -0.627124 0.110239 -0.0195312 -0.632065 
0.111718 -0.0215923 -0.635807 0.112821 -0.0228884 -0.63837 0.113597 -0.0235082 -0.639845 
0.114098 -0.023578 -0.640395 0.114382 -0.0232508 -0.640233 0.114508 -0.0226932 -0.639611 
0.114531 -0.0220697 -0.638784 0.114501 -0.0215278 -0.637992 0.114458 -0.021184 -0.637427 
0.114427 -0.0211125 -0.637214 
LINES 2 100
OFFSETS vtktypeint64
0 100 
CONNECTIVITY vtktypeint64
0 1 2 3 4 5 6 7 8 
9 10 11 12 13 14 15 16 17 
18 19 20 21 22 23 24 25 26 
27 28 29 30 31 32 33 34 35 
36 37 38 39 40 41 42 43 44 
45 46 47 48 49 50 51 52 53 
54 55 56 57 58 59 60 61 62 
63 64 65 66 67 68 69 70 71 
72 73 74 75 76 77 78 79 80 
81 82 83 84 85 86 87 88 89 
90 91 92 93 94 95 96 97 98 
99 
POINT_DATA 100
FIELD FieldData 3
_theta 1 100 double
0 0.031733259127 0.063466518254 0.095199777382 0.12693303651 0.15866629564 0.19039955476 0.22213281389 0.25386607302 
0.28559933214 0.31733259127 0.3490658504 0.38079910953 0.41253236865 0.44426562778 0.47599888691 0.50773214603 0.53946540516 
0.57119866429 0.60293192342 0.63466518254 0.66639844167 0.6981317008 0.72986495992 0.76159821905 0.79333147818 0.82506473731 
0.85679799643 0.88853125556 0.92026451469 0.95199777382 0.98373103294 1.0154642921 1.0471975512 1.0789308103 1.1106640695 
1.1423973286 1.1741305877 1.2058638468 1.237597106 1.2693303651 1.3010636242 1.3327968833 1.3645301425 1.3962634016 
1.4279966607 1.4597299198 1.491463179 1.5231964381 1.5549296972 1.5866629564 1.6183962155 1.6501294746 1.6818627337 
1.7135959929 1.745329252 1.7770625111 1.8087957702 1.8405290294 1.8722622885 1.9039955476 1.9357288068 1.9674620659 
1.999195325 2.0309285841 2.0626618433 2.0943951024 2.1261283615 2.1578616206 2.1895948798 2.2213281389 2.253061398 
2.2847946572 2.3165279163 2.3482611754 2.3799944345 2.4117276937 2.4434609528 2.4751942119 2.506927471 2.5386607302 
2.5703939893 2.6021272484 2.6338605076 2.6655937667 2.6973270258 2.7290602849 2.7607935441 2.7925268032 2.8242600623 
2.8559933214 2.8877265806 2.9194598397 2.9511930988 2.982926358 3.0146596171 3.0463928762 3.0781261353 3.1098593945 
3.1415926536 
_radius 1 100 double
1.6688725059e-15 0.016044969139 0.031874321255 0.04729149456 0.062140182139 0.076316493525 0.089772828546 0.10251305681 0.1145802764 
0.12603992893 0.13696191179 0.14740520459 0.15740742967 0.16698013702 0.17610910701 0.18475811682 0.19287455512 0.20039577324 
0.20725574906 0.21339215997 0.21875409541 0.2233103405 0.22705755657 0.23002703831 0.23228833366 0.23394807749 0.23514296847 
0.23602683104 0.23675297072 0.23745428503 0.23822448887 0.23910398065 0.24007309968 0.24105397595 0.24192042011 0.24251397521 
0.24266364579 0.2422068069 0.24100906707 0.23898119643 0.23609158458 0.23237311558 0.2279238654 0.22290159351 0.21751251344 
0.21199523154 0.20660109192 0.20157260825 0.19712229231 0.19341481641 0.19055546289 0.1885864988 0.18749055271 0.18719778263 
0.1875935493 0.18852577165 0.18981413074 0.19126406385 0.19268612342 0.19391765959 0.19484176705 0.19539907168 0.19559012937 
0.19546853405 0.19512671546 0.19467781182 0.19423764398 0.19391015317 0.19377774513 0.19389590389 0.19429041092 0.194955778 
0.19585448634 0.19691759161 0.19804767919 0.19912481756 0.20001523428 0.20058141921 0.20069175781 0.20022787174 0.1990885242 
0.19718993742 0.19446331157 0.19085093456 0.1863023945 0.18077209537 0.17421870521 0.16660655157 0.15790849755 0.14810957879 
0.13721066879 0.12523160083 0.11221340735 0.098219544684 0.083336098596 0.067671017134 0.051352422784 0.034526052248 0.017351878732 
4.9217125934e-16 
_area 1 100 double
0 0.00054825346828 0.0021700534093 0.0047988226717 0.0083313871968 0.012639680594 0.017586199841 0.023040840695 0.028895553858 
0.035073158222 0.041527966186 0.048238274401 0.055193362646 0.062379287557 0.069767576282 0.077308971584 0.084931854941 0.092543419942 
0.10003183993 0.10726922049 0.11411701315 0.12043645136 0.12610530886 0.13103898853 0.13521044612 0.13866199007 0.1415036865 
0.1438974253 0.14603059368 0.14808584984 0.1502121013 0.15249805791 0.15494768966 0.15746058381 0.15982812298 0.16175747431 
0.16292168881 0.16301864402 0.16182180629 0.15921602969 0.155217306 0.14997539939 0.14375798479 0.13691698126 0.12984164043 
0.12290630013 0.11642163574 0.11059712306 0.10552185549 0.10117165454 0.097446000015 0.094222693119 0.091405509399 0.088948290986 
0.086873225796 0.085555594288 0.084915635633 0.084699413873 0.08476592891 0.084941024479 0.085021881683 0.084822190489 0.084232477417 
0.083239465209 0.081911785183 0.0803720363 0.078766047064 0.077236262091 0.075904325099 0.074864552989 0.074185220896 0.073910792166 
0.074058426177 0.07460776726 0.075534167156 0.076667455862 0.077837694979 0.078960709051 0.07986229125 0.080393957253 0.08045009801 
0.079949817033 0.078830045821 0.077035325826 0.074507981324 0.07118708501 0.06702127931 0.061993032423 0.056145164484 0.049598705151 
0.042554801376 0.035279553569 0.028076036275 0.021250741438 0.015082181518 0.0097979709488 0.0055640578692 0.0024865499016 0.00062333235979 
9.9717386123e-17 
