# vtk DataFile Version 5.1
vtk output
ASCII
DATASET POLYDATA
POINTS 100 float
0.12074 0.0687346 0.724327 0.120795 0.0686863 0.72416 0.120985 0.0683932 0.723439 
0.121275 0.0678948 0.722128 0.121612 0.0672516 0.720175 0.12193 0.0665364 0.717514 
0.122157 0.0658247 0.714077 0.122227 0.0651837 0.709796 0.122083 0.0646629 0.704616 
0.121684 0.0642861 0.698503 0.121008 0.0640471 0.691442 0.120048 0.0639089 0.683447 
0.118814 0.0638066 0.674562 0.117324 0.0636544 0.664854 0.115597 0.0633545 0.654412 
0.113646 0.0628087 0.643344 0.111474 0.0619294 0.631762 0.109065 0.0606504 0.619781 
0.106389 0.0589353 0.607507 0.103396 0.0567824 0.595027 0.10003 0.0542265 0.582411 
0.0962253 0.0513365 0.5697 0.0919259 0.0482093 0.556908 0.0870886 0.0449618 0.544025 
0.0816934 0.0417201 0.531015 0.0757495 0.0386088 0.517827 0.0692983 0.0357408 0.504399 
0.0624123 0.0332092 0.490661 0.05519 0.0310811 0.47655 0.0477478 0.0293954 0.462012 
0.0402082 0.0281633 0.447004 0.0326878 0.027372 0.431502 0.025285 0.0269905 0.4155 
0.0180697 0.0269773 0.399007 0.0110759 0.0272874 0.382046 0.0042996 0.0278802 0.364646 
-0.0022993 0.0287246 0.346841 -0.0087898 0.0298025 0.328661 -0.0152585 0.03111 0.310127 
-0.0217952 0.0326555 0.291248 -0.0284775 0.0344564 0.272018 -0.0353555 0.0365333 0.252416 
-0.0424391 0.0389046 0.232408 -0.049689 0.0415798 0.211951 -0.0570132 0.044555 0.190997 
-0.0642691 0.0478089 0.169501 -0.0712714 0.0513017 0.147428 -0.0778046 0.0549756 0.124759 
-0.08364 0.0587577 0.101496 -0.0885542 0.0625645 0.0776674 -0.0923478 0.0663075 0.0533266 
-0.0948621 0.0698994 0.0285544 -0.0959927 0.0732604 0.00345403 -0.0956972 0.0763223 -0.0218542 
-0.0939983 0.0790326 -0.0472397 -0.0909798 0.081356 -0.0725702 -0.086778 0.0832739 -0.0977196 
-0.0815686 0.084783 -0.122576 -0.0755505 0.085891 -0.14705 -0.068929 0.0866131 -0.171076 
-0.0618993 0.0869672 -0.194618 -0.0546321 0.0869694 -0.217668 -0.0472642 0.0866306 -0.240241 
-0.0398919 0.0859544 -0.262374 -0.0325708 0.084936 -0.284119 -0.0253191 0.0835626 -0.30553 
-0.0181257 0.0818156 -0.32666 -0.0109603 0.0796733 -0.347552 -0.00378533 0.0771144 -0.36823 
0.00343223 0.0741212 -0.388699 0.0107104 0.0706836 -0.408937 0.0180446 0.066801 -0.428898 
0.0254027 0.0624843 -0.448513 0.0327243 0.0577566 -0.467696 0.0399234 0.0526523 -0.486347 
0.046894 0.0472158 -0.504363 0.0535184 0.0414994 -0.521644 0.0596763 0.0355604 -0.538097 
0.0652549 0.0294585 -0.55365 0.0701577 0.0232529 -0.568249 0.0743121 0.0170007 -0.581865 
0.0776746 0.0107544 -0.594496 0.0802337 0.00456179 -0.606162 0.0820093 -0.00153458 -0.616905 
0.083051 -0.00749711 -0.626782 0.0834327 -0.0132921 -0.635861 0.0832476 -0.0188889 -0.644213 
0.0826006 -0.0242582 -0.651907 0.0816017 -0.0293716 -0.659001 0.0803599 -0.0342 -0.665541 
0.0789773 -0.0387136 -0.671559 0.0775454 -0.0428813 -0.677064 0.0761421 -0.0466716 -0.682052 
0.074831 -0.0500524 -0.6865 0.0736612 -0.0529926 -0.690375 0.0726688 -0.0554628 -0.693637 
0.0718786 -0.0574368 -0.69624 0.0713068 -0.0588924 -0.698145 0.0709627 -0.0598128 -0.699317 
0.0708512 -0.0601872 -0.699734 
LINES 2 100
OFFSETS vtktypeint64
0 100 
CONNECTIVITY vtktypeint64
0 1 2 3 4 5 6 7 8 
9 10 11 12 13 14 15 16 17 
18 19 20 21 22 23 24 25 26 
27 28 29 30 31 32 33 34 35 
36 37 38 39 40 41 42 43 44 
45 46 47 48 49 50 51 52 53 
54 55 56 57 58 59 60 61 62 
63 64 65 66 67 68 69 70 71 
72 73 74 75 76 77 78 79 80 
81 82 83 84 85 86 87 88 89 
90 91 92 93 94 95 96 97 98 
99 
POINT_DATA 100
FIELD FieldData 3
_theta 1 100 double
0 0.031733259127 0.063466518254 0.095199777382 0.12693303651 0.15866629564 0.19039955476 0.22213281389 0.25386607302 
0.28559933214 0.31733259127 0.3490658504 0.38079910953 0.41253236865 0.44426562778 0.47599888691 0.50773214603 0.53946540516 
0.57119866429 0.60293192342 0.63466518254 0.66639844167 0.6981317008 0.72986495992 0.76159821905 0.79333147818 0.82506473731 
0.85679799643 0.88853125556 0.92026451469 0.95199777382 0.98373103294 1.0154642921 1.0471975512 1.0789308103 1.1106640695 
1.1423973286 1.1741305877 1.2058638468 1.237597106 1.2693303651 1.3010636242 1.3327968833 1.3645301425 1.3962634016 
1.4279966607 1.4597299198 1.491463179 1.5231964381 1.5549296972 1.5866629564 1.6183962155 1.6501294746 1.6818627337 
1.7135959929 1.745329252 1.7770625111 1.8087957702 1.8405290294 1.8722622885 1.9039955476 1.9357288068 1.9674620659 
1.999195325 2.0309285841 2.0626618433 2.0943951024 2.1261283615 2.1578616206 2.1895948798 2.2213281389 2.253061398 
2.2847946572 2.3165279163 2.3482611754 2.3799944345 2.4117276937 2.4434609528 2.4751942119 2.506927471 2.5386607302 
2.5703939893 2.6021272484 2.6338605076 2.6655937667 2.6973270258 2.7290602849 2.7607935441 2.7925268032 2.8242600623 
2.8559933214 2.8877265806 2.9194598397 2.9511930988 2.982926358 3.0146596171 3.0463928762 3.0781261353 3.1098593945 
3.1415926536 
_radius 1 100 double
5.1944468927e-16 0.014545465875 0.029019741518 0.043346224706 0.057450684468 0.071262229453 0.084713923432 0.097743311024 0.11029315734 
0.12231262566 0.13375898122 0.1445997597 0.15481517874 0.16440038929 0.17336697984 0.18174303499 0.18957111179 0.19690380599 
0.20379711036 0.21030238915 0.21645831697 0.2222843846 0.22777744969 0.23291228906 0.23764627841 0.24192739781 0.24570402119 
0.24893462863 0.25159573251 0.2536868023 0.25523159427 0.25627586737 0.25688191049 0.25712061908 0.25706208859 0.25676588387 
0.25627230894 0.25559608525 0.25472373951 0.25361559879 0.25221258258 0.25044710268 0.2482565703 0.2455974881 0.24245799059 
0.23886696505 0.23489841598 0.2306703796 0.22633834752 0.22208379129 0.2180989998 0.2145699973 0.21165961132 0.2094925603 
0.20814371048 0.20762986264 0.20790526338 0.20886166706 0.21033440442 0.21211544648 0.21397277083 0.21567351582 0.2170075417 
0.21780822797 0.21796806832 0.21744741721 0.21627550841 0.21454368518 0.21239168349 0.20998871158 0.20751180529 0.20512428911 
0.20295693109 0.20109354135 0.19956170616 0.19832865198 0.19730215438 0.19633661586 0.19524438053 0.19381178157 0.19181852854 
0.18905824372 0.18535755702 0.18059125358 0.17469146611 0.16764971873 0.15951168621 0.15036575126 0.140327635 0.12952418677 
0.11807944223 0.10610514128 0.093696387272 0.080931695026 0.06787584836 0.054583874786 0.041104834878 0.027484716051 0.013768270964 
6.0349560317e-16 
_area 1 100 double
0 0.00064006295556 0.0025413540757 0.0056475930603 0.0098664006133 0.015071685774 0.021107723255 0.027795830691 0.034944503938 
0.042363159278 0.049878230567 0.057348649849 0.064676628118 0.071810445073 0.078739178774 0.085483076386 0.092084086738 0.09859804541 
0.10508645226 0.11160511329 0.11818949263 0.12484062313 0.13151774053 0.13814165577 0.14460751581 0.15080154104 0.15661555426 
0.16195469764 0.16673762238 0.1708934242 0.17436133603 0.17709596058 0.1790762463 0.18031401372 0.18085799999 0.1807910373 
0.18021965346 0.17925485296 0.1779798217 0.17640865221 0.17447012243 0.17203967374 0.16898636548 0.16520647823 0.16064531026 
0.15531193446 0.14928733892 0.14272518586 0.13584523996 0.12892039589 0.12225741948 0.11616824604 0.11092757753 0.10672490464 
0.10363868606 0.10164839831 0.10066246022 0.10053551584 0.10107287969 0.10203501227 0.10315259431 0.10415248219 0.10478648866 
0.10485535614 0.10422560356 0.10284109034 0.10073236943 0.09802467341 0.094941099415 0.091783336438 0.088892411111 0.086631059471 
0.085419425032 0.085215790805 0.085970939681 0.087536001894 0.089644629631 0.091970970465 0.094168231522 0.095882202202 0.096765797433 
0.096507127242 0.094868270552 0.091722860207 0.087078759852 0.081077168053 0.073967960883 0.066068812974 0.057719886765 0.049245645823 
0.04093110899 0.033013512241 0.025684845712 0.019098617074 0.013375700323 0.0086073885929 0.0048568650475 0.0021619271194 0.00054081085156 
2.520749039e-17 
