# vtk DataFile Version 5.1
vtk output
ASCII
DATASET POLYDATA
POINTS 100 float
0.117435 0.0392105 0.667352 0.117606 0.0393689 0.667314 0.118162 0.0396871 0.667047 
0.119005 0.0401562 0.666501 0.119982 0.0407626 0.6656 0.12091 0.0414886 0.664244 
0.121594 0.0423128 0.662319 0.121853 0.0432095 0.659708 0.12154 0.04415 0.656295 
0.120562 0.0451024 0.651978 0.118885 0.0460327 0.646678 0.116538 0.0469053 0.640345 
0.113604 0.0476841 0.632963 0.110205 0.0483342 0.624554 0.106484 0.0488232 0.615175 
0.102582 0.0491225 0.604918 0.0986177 0.0492098 0.593901 0.0946689 0.0490698 0.582261 
0.0907639 0.0486964 0.570143 0.0868764 0.0480931 0.557691 0.082931 0.0472736 0.545035 
0.0788143 0.0462619 0.532283 0.0743929 0.0450913 0.519513 0.0695331 0.043803 0.506773 
0.0641212 0.0424437 0.494072 0.0580811 0.0410634 0.481393 0.0513858 0.0397126 0.468687 
0.0440629 0.0384391 0.45589 0.0361916 0.0372855 0.442924 0.0278928 0.0362874 0.429712 
0.0193137 0.0354712 0.416182 0.0106086 0.0348539 0.402275 0.00191891 0.0344431 0.387946 
-0.00664369 0.0342381 0.373167 -0.0150103 0.0342316 0.357926 -0.0231607 0.0344114 0.342217 
-0.0311211 0.0347637 0.326039 -0.0389554 0.0352748 0.30939 -0.046749 0.0359333 0.292255 
-0.0545897 0.0367315 0.274612 -0.0625464 0.0376662 0.25642 -0.0706497 0.0387382 0.237631 
-0.0788771 0.0399517 0.218187 -0.0871451 0.0413125 0.198035 -0.0953091 0.0428256 0.177129 
-0.103172 0.0444938 0.155447 -0.110499 0.046315 0.132996 -0.117041 0.0482808 0.109821 
-0.122558 0.0503756 0.0860048 -0.126844 0.0525767 0.061673 -0.129748 0.0548548 0.0369841 
-0.13119 0.0571756 0.0121215 -0.131168 0.059502 -0.0127196 -0.129757 0.0617962 -0.0373469 
-0.127101 0.0640222 -0.0615863 -0.123396 0.0661479 -0.0852954 -0.118864 0.0681464 -0.108374 
-0.113735 0.0699964 -0.13077 -0.10822 0.0716821 -0.152482 -0.102491 0.0731922 -0.173548 
-0.0966693 0.074518 -0.194046 -0.090815 0.0756516 -0.214072 -0.0849325 0.0765836 -0.233727 
-0.0789768 0.0773016 -0.253101 -0.0728686 0.0777891 -0.272264 -0.0665129 0.0780256 -0.291246 
-0.0598185 0.0779875 -0.310041 -0.0527161 0.0776501 -0.328603 -0.0451728 0.0769905 -0.346852 
-0.037201 0.0759906 -0.364685 -0.0288609 0.074641 -0.381991 -0.0202566 0.0729437 -0.398665 
-0.0115264 0.0709143 -0.414625 -0.00282914 0.0685827 -0.42982 0.00567163 0.065993 -0.44424 
0.0138234 0.0632013 -0.45792 0.0214986 0.060272 -0.470929 0.028604 0.0572734 -0.483369 
0.0350868 0.0542725 -0.495355 0.0409337 0.0513298 -0.507 0.0461671 0.0484942 -0.518399 
0.0508365 0.0458 -0.529612 0.055008 0.0432643 -0.540658 0.0587534 0.0408869 -0.551502 
0.0621398 0.0386522 -0.562063 0.0652222 0.036533 -0.572217 0.068039 0.0344945 -0.581814 
0.0706104 0.0325011 -0.590691 0.0729416 0.0305219 -0.598697 0.0750265 0.0285359 -0.605706 
0.0768546 0.0265368 -0.611638 0.0784165 0.0245351 -0.616466 0.0797102 0.0225587 -0.620222 
0.0807434 0.0206515 -0.622994 0.0815352 0.0188693 -0.624916 0.0821142 0.017275 -0.626151 
0.0825146 0.0159324 -0.626876 0.0827717 0.0148992 -0.627254 0.0829157 0.0142217 -0.627419 
0.0829671 0.0139297 -0.627459 
LINES 2 100
OFFSETS vtktypeint64
0 100 
CONNECTIVITY vtktypeint64
0 1 2 3 4 5 6 7 8 
9 10 11 12 13 14 15 16 17 
18 19 20 21 22 23 24 25 26 
27 28 29 30 31 32 33 34 35 
36 37 38 39 40 41 42 43 44 
45 46 47 48 49 50 51 52 53 
54 55 56 57 58 59 60 61 62 
63 64 65 66 67 68 69 70 71 
72 73 74 75 76 77 78 79 80 
81 82 83 84 85 86 87 88 89 
90 91 92 93 94 95 96 97 98 
99 
POINT_DATA 100
FIELD FieldData 3
_theta 1 100 double
0 0.031733259127 0.063466518254 0.095199777382 0.12693303651 0.15866629564 0.19039955476 0.22213281389 0.25386607302 
0.28559933214 0.31733259127 0.3490658504 0.38079910953 0.41253236865 0.44426562778 0.47599888691 0.50773214603 0.53946540516 
0.57119866429 0.60293192342 0.63466518254 0.66639844167 0.6981317008 0.72986495992 0.76159821905 0.79333147818 0.82506473731 
0.85679799643 0.88853125556 0.92026451469 0.95199777382 0.98373103294 1.0154642921 1.0471975512 1.0789308103 1.1106640695 
1.1423973286 1.1741305877 1.2058638468 1.237597106 1.2693303651 1.3010636242 1.3327968833 1.3645301425 1.3962634016 
1.4279966607 1.4597299198 1.491463179 1.5231964381 1.5549296972 1.5866629564 1.6183962155 1.6501294746 1.6818627337 
1.7135959929 1.745329252 1.7770625111 1.8087957702 1.8405290294 1.8722622885 1.9039955476 1.9357288068 1.9674620659 
1.999195325 2.0309285841 2.0626618433 2.0943951024 2.1261283615 2.1578616206 2.1895948798 2.2213281389 2.253061398 
2.2847946572 2.3165279163 2.3482611754 2.3799944345 2.4117276937 2.4434609528 2.4751942119 2.506927471 2.5386607302 
2.5703939893 2.6021272484 2.6338605076 2.6655937667 2.6973270258 2.7290602849 2.7607935441 2.7925268032 2.8242600623 
2.8559933214 2.8877265806 2.9194598397 2.9511930988 2.982926358 3.0146596171 3.0463928762 3.0781261353 3.1098593945 
3.1415926536 
_radius 1 100 double
4.548020185e-16 0.015801483709 0.031364754369 0.046466743057 0.060918826641 0.074579075639 0.087359325815 0.099226842742 0.11020103101 
0.12034597903 0.12975967458 0.13856070202 0.14687336739 0.15481254952 0.16246998343 0.16990387735 0.17713353206 0.18413993966 
0.19087234197 0.19725966343 0.20322481782 0.20869931373 0.21363551556 0.21801443778 0.22184796776 0.22517563467 0.2280570649 
0.23056177286 0.23275789951 0.2347011994 0.23642534147 0.23793458586 0.23920000099 0.24016030619 0.24072794054 0.240800074 
0.24027325492 0.23905959258 0.23710205627 0.23438665428 0.2309498083 0.22688001458 0.22231377211 0.21742662384 0.21242078872 
0.20751104939 0.20291024419 0.19881507583 0.19539239505 0.19276616267 0.19100621616 0.1901212327 0.19005853383 0.19071176739 
0.19193497172 0.19355990836 0.19541356263 0.19733365128 0.19918092806 0.20084769112 0.20226225243 0.20338942184 0.2042274131 
0.20480197828 0.20515886782 0.20535572433 0.20545424058 0.20551301386 0.20558122052 0.20569311904 0.20586347292 0.20608420266 
0.20632278666 0.20652291771 0.20660754856 0.20648385392 0.20604915831 0.20519682287 0.20382143769 0.20182315435 0.19911132688 
0.19560767645 0.1912490209 0.18598939428 0.17980129485 0.17267589741 0.16462227316 0.15566584453 0.14584637386 0.13521573612 
0.12383562193 0.11177523354 0.099109018375 0.085914521659 0.072270488065 0.058255356541 0.043946254371 0.029418521463 0.014745716428 
1.3583091332e-15 
_area 1 100 double
0 0.00061304671808 0.0024128764658 0.0052892847148 0.0090821453797 0.013609603678 0.018695367992 0.024187682398 0.029966309079 
0.035939095632 0.042033474745 0.048188486663 0.054350439857 0.06047253501 0.066517023928 0.072457688101 0.078280531906 0.083982213896 
0.089568923872 0.095060160788 0.10049703317 0.10594316788 0.11146026262 0.1170599842 0.12267135396 0.12815787635 0.13336674634 
0.13817290629 0.14250165085 0.14633112183 0.14967970809 0.15258205731 0.15505823585 0.1570846362 0.15857790226 0.15939944302 
0.15938010981 0.15835874918 0.15622577331 0.15296077181 0.14865259458 0.1434945819 0.13775614288 0.13174067201 0.12574471123 
0.12003073967 0.11481523998 0.1102627704 0.1064767347 0.10348719005 0.10124595542 0.09964219996 0.098541953453 0.097843046102 
0.097574516474 0.097698348885 0.098010194511 0.098368938836 0.098733913013 0.098971002696 0.099038073446 0.098947670354 0.098676618805 
0.098228707931 0.09762483829 0.096854735193 0.095932654797 0.094911738427 0.093876823787 0.092932933788 0.092181347181 0.091698397519 
0.091535143783 0.091673563525 0.092008965584 0.09245873078 0.092948207795 0.093326984862 0.093378257899 0.092909133495 0.09177373582 
0.089863649138 0.087104441027 0.083457585613 0.078924851665 0.073553015801 0.067436595615 0.060716307055 0.053571867091 0.046209447847 
0.038845832447 0.031692425363 0.024942363552 0.018763029745 0.013294519975 0.0086525783516 0.0049329926635 0.0022142810071 0.00055695715323 
2.3418868015e-17 
