# vtk DataFile Version 5.1
vtk output
ASCII
DATASET POLYDATA
POINTS 100 float
0.115232 0.050762 0.70249 0.115302 0.0511125 0.702297 0.115548 0.0519898 0.701582 
0.115927 0.0533255 0.700343 0.116372 0.0550144 0.698579 0.116799 0.0569257 0.69628 
0.117118 0.0589163 0.693434 0.117238 0.0608453 0.69002 0.117083 0.0625868 0.68601 
0.116592 0.0640412 0.681369 0.115726 0.065142 0.676056 0.114468 0.0658591 0.670032 
0.112823 0.066197 0.66326 0.110811 0.066189 0.655714 0.108461 0.0658887 0.647384 
0.105803 0.0653598 0.638279 0.102865 0.0646648 0.628431 0.0996594 0.0638565 0.617894 
0.0961893 0.0629703 0.606739 0.0924415 0.0620215 0.595053 0.0883914 0.0610051 0.582932 
0.0840079 0.0598997 0.570466 0.0792599 0.0586743 0.55774 0.0741242 0.0572966 0.544816 
0.0685918 0.055742 0.531736 0.062674 0.0540013 0.51851 0.0564045 0.0520868 0.505123 
0.0498398 0.0500345 0.491532 0.0430546 0.0479034 0.477674 0.0361361 0.0457709 0.463474 
0.0291746 0.0437258 0.448853 0.0222539 0.0418586 0.433735 0.0154419 0.0402515 0.418058 
0.0087824 0.0389692 0.401777 0.00229054 0.0380512 0.384869 -0.00404874 0.0375078 0.367328 
-0.0102777 0.037319 0.349168 -0.0164587 0.0374378 0.330413 -0.0226644 0.0377967 0.311094 
-0.0289649 0.0383167 0.291236 -0.0354146 0.038918 0.27086 -0.0420405 0.0395305 0.249975 
-0.0488319 0.0401035 0.228576 -0.0557348 0.0406125 0.206648 -0.062651 0.0410626 0.184169 
-0.0694418 0.0414884 0.16112 -0.0759372 0.0419499 0.137489 -0.081949 0.0425251 0.113284 
-0.0872857 0.0433006 0.0885337 -0.0917699 0.0443605 0.0632999 -0.0952537 0.0457758 0.0376724 
-0.0976316 0.0475952 0.0117692 -0.0988501 0.049838 -0.0142701 -0.098911 0.0524906 -0.0402935 
-0.0978702 0.055506 -0.066148 -0.0958306 0.0588067 -0.0916911 -0.0929304 0.0622907 -0.116802 
-0.0893289 0.0658389 -0.141391 -0.0851899 0.0693244 -0.165403 -0.0806658 0.0726209 -0.18882 
-0.075884 0.0756103 -0.21166 -0.0709369 0.0781897 -0.233964 -0.065876 0.0802747 -0.255792 
-0.0607122 0.0818018 -0.277208 -0.0554202 0.0827282 -0.29827 -0.0499482 0.0830304 -0.319019 
-0.0442305 0.0827016 -0.339472 -0.0382014 0.0817491 -0.359616 -0.03181 0.0801912 -0.379415 
-0.0250328 0.0780557 -0.39881 -0.017883 0.0753787 -0.417727 -0.0104159 0.0722042 -0.436091 
-0.00272935 0.0685842 -0.453836 0.00504049 0.0645795 -0.470913 0.0127283 0.0602596 -0.487299 
0.0201516 0.0557022 -0.503003 0.0271253 0.0509916 -0.51806 0.0334768 0.0462157 -0.532531 
0.0390599 0.0414626 -0.54649 0.0437665 0.0368152 -0.560016 0.0475355 0.0323472 -0.573178 
0.050356 0.0281175 -0.586024 0.0522677 0.0241672 -0.59857 0.0533556 0.0205174 -0.610798 
0.0537418 0.0171688 -0.622652 0.053574 0.0141042 -0.634042 0.0530126 0.0112917 -0.644853 
0.0522174 0.008691 -0.65496 0.0513352 0.00625932 -0.664239 0.0504896 0.00395829 -0.672582 
0.0497734 0.00175978 -0.67991 0.0492446 -0.000349521 -0.686184 0.0489261 -0.00236573 -0.691406 
0.048809 -0.00426762 -0.69562 0.0488582 -0.00601899 -0.698908 0.0490209 -0.00757301 -0.701373 
0.0492362 -0.00887811 -0.703131 0.0494442 -0.00988462 -0.704294 0.0495952 -0.0105511 -0.704954 
0.0496562 -0.0108497 -0.705169 
LINES 2 100
OFFSETS vtktypeint64
0 100 
CONNECTIVITY vtktypeint64
0 1 2 3 4 5 6 7 8 
9 10 11 12 13 14 15 16 17 
18 19 20 21 22 23 24 25 26 
27 28 29 30 31 32 33 34 35 
36 37 38 39 40 41 42 43 44 
45 46 47 48 49 50 51 52 53 
54 55 56 57 58 59 60 61 62 
63 64 65 66 67 68 69 70 71 
72 73 74 75 76 77 78 79 80 
81 82 83 84 85 86 87 88 89 
90 91 92 93 94 95 96 97 98 
99 
POINT_DATA 100
FIELD FieldData 3
_theta 1 100 double
0 0.031733259127 0.063466518254 0.095199777382 0.12693303651 0.15866629564 0.19039955476 0.22213281389 0.25386607302 
0.28559933214 0.31733259127 0.3490658504 0.38079910953 0.41253236865 0.44426562778 0.47599888691 0.50773214603 0.53946540516 
0.57119866429 0.60293192342 0.63466518254 0.66639844167 0.6981317008 0.72986495992 0.76159821905 0.79333147818 0.82506473731 
0.85679799643 0.88853125556 0.92026451469 0.95199777382 0.98373103294 1.0154642921 1.0471975512 1.0789308103 1.1106640695 
1.1423973286 1.1741305877 1.2058638468 1.237597106 1.2693303651 1.3010636242 1.3327968833 1.3645301425 1.3962634016 
1.4279966607 1.4597299198 1.491463179 1.5231964381 1.5549296972 1.5866629564 1.6183962155 1.6501294746 1.6818627337 
1.7135959929 1.745329252 1.7770625111 1.8087957702 1.8405290294 1.8722622885 1.9039955476 1.9357288068 1.9674620659 
1.999195325 2.0309285841 2.0626618433 2.0943951024 2.1261283615 2.1578616206 2.1895948798 2.2213281389 2.253061398 
2.2847946572 2.3165279163 2.3482611754 2.3799944345 2.4117276937 2.4434609528 2.4751942119 2.506927471 2.5386607302 
2.5703939893 2.6021272484 2.6338605076 2.6655937667 2.6973270258 2.7290602849 2.7607935441 2.7925268032 2.8242600623 
2.8559933214 2.8877265806 2.9194598397 2.9511930988 2.982926358 3.0146596171 3.0463928762 3.0781261353 3.1098593945 
3.1415926536 
_radius 1 100 double
6.9669397459e-16 0.014891473145 0.0297154084 0.044398188723 0.058864446445 0.073037149143 0.086838392255 0.10019104776 0.11302119408 
0.12526098798 0.13685148265 0.14774494237 0.15790642865 0.16731470378 0.17596265474 0.18385738898 0.19101993168 0.19748422519 
0.20329509009 0.20850504312 0.21317028301 0.21734652013 0.22108542629 0.22443226349 0.2274248335 0.23009346487 0.23246147507 
0.23454549751 0.23635525555 0.2378927371 0.23915113135 0.24011414846 0.24075631721 0.24104455604 0.24094090814 0.24040604415 
0.23940309994 0.23790160503 0.23588151172 0.23333747871 0.23028348554 0.22675756747 0.22282606672 0.21858643346 0.21416740325 
0.20972543222 0.20543667144 0.20148453985 0.19804401499 0.19526482173 0.19325633393 0.19207681563 0.19172853675 0.19215873504 
0.19326515739 0.19490462295 0.1969036437 0.19907090886 0.20121165727 0.20314345477 0.20471205921 0.20580542518 0.20636377749 
0.20638409356 0.20591813322 0.20506411685 0.2039530467 0.20273132561 0.20154170072 0.200504705 0.19970275969 0.19916890097 
0.19888157166 0.19876604308 0.19870201572 0.19853610189 0.19809737552 0.1972139532 0.19572857877 0.19351140418 0.19046859494 
0.18654600729 0.18172790012 0.17603134398 0.16949756193 0.16218179218 0.15414334991 0.1454373724 0.1361093037 0.12619260825 
0.11570962924 0.10467504981 0.09310113415 0.081003809686 0.068408645347 0.055355841417 0.041903471063 0.028128424843 0.01412481819 
2.9844321505e-16 
_area 1 100 double
0 0.00056049097666 0.0022292365482 0.0049680628412 0.0087136281321 0.013378595193 0.018854289377 0.025014972648 0.031723232774 
0.038835606907 0.046207739715 0.053699053406 0.061177595772 0.068525808944 0.075647154754 0.08247228859 0.088962773269 0.095110889321 
0.10093563859 0.10647641826 0.11178612544 0.11692461392 0.1219519976 0.12692005266 0.13186037631 0.13677137468 0.14161041455 
0.14629676003 0.1507241637 0.15477653001 0.15834096738 0.16131656089 0.16361964539 0.16518629309 0.16597180042 0.16594688519 
0.1650916003 0.16339000856 0.16083000664 0.1574115098 0.15316201627 0.14815376336 0.14251479563 0.13642860119 0.13012183173 
0.12384393403 0.11784398405 0.11234862181 0.10754267064 0.10355266027 0.10043417215 0.098167714376 0.096669042586 0.095809609196 
0.095448867659 0.095476600897 0.095835831411 0.096506440513 0.09738415128 0.098326953245 0.099175883402 0.099762106237 0.099951374154 
0.099677156526 0.098939283707 0.097803912389 0.096390713078 0.094869333789 0.093433716418 0.092437584896 0.091918089766 0.091913277643 
0.092394149215 0.093255847673 0.094329932805 0.09540207206 0.096237591936 0.096608715166 0.096318178317 0.09521644634 0.093211884167 
0.090274150577 0.086431247394 0.081760949638 0.076378068248 0.070419841833 0.064032166746 0.057359003857 0.05053623652 0.043689969543 
0.036938294372 0.030395151574 0.024174930315 0.018396499755 0.013185305384 0.0086721736023 0.0049879007477 0.0022537268522 0.00056918315669 
2.3562325381e-17 
