# vtk DataFile Version 5.1
vtk output
ASCII
DATASET POLYDATA
POINTS 100 float
0.178148 0.050075 0.670389 0.177787 0.0501626 0.670435 0.17679 0.0502906 0.670417 
0.175195 0.0504724 0.670235 0.173058 0.0507294 0.66974 0.17045 0.0510868 0.668746 
0.167451 0.0515698 0.667056 0.164144 0.0521994 0.66448 0.160605 0.0529872 0.660863 
0.156897 0.0539323 0.656094 0.153068 0.0550178 0.650126 0.149142 0.05621 0.642972 
0.145124 0.0574576 0.634706 0.140994 0.0586942 0.625453 0.136717 0.0598412 0.615371 
0.132243 0.0608125 0.604633 0.127515 0.0615201 0.593409 0.122475 0.0618802 0.581847 
0.117073 0.0618195 0.570058 0.111272 0.0612808 0.55811 0.10505 0.060228 0.546023 
0.0984072 0.0586494 0.533778 0.0913624 0.0565597 0.521319 0.0839535 0.0540004 0.508573 
0.0762327 0.0510382 0.495459 0.0682606 0.0477617 0.481909 0.0601 0.044277 0.467873 
0.0518094 0.0407026 0.453329 0.0434361 0.0371628 0.438287 0.0350127 0.0337814 0.422784 
0.0265535 0.0306763 0.406878 0.0180556 0.0279533 0.390635 0.00950076 0.0257018 0.374116 
0.000860827 0.023992 0.357366 -0.00789498 0.0228717 0.340401 -0.0167919 0.0223667 0.323205 
-0.0258407 0.0224805 0.305724 -0.0350301 0.0231959 0.287872 -0.04432 0.0244781 0.269542 
-0.0536383 0.0262773 0.250613 -0.06288 0.0285327 0.230971 -0.0719102 0.031176 0.210524 
-0.0805703 0.0341355 0.189213 -0.0886877 0.0373395 0.167024 -0.0960863 0.0407192 0.143998 
-0.102599 0.0442114 0.120224 -0.108082 0.0477604 0.0958385 -0.11242 0.0513186 0.0710117 
-0.115542 0.0548474 0.0459349 -0.117421 0.0583165 0.0208029 -0.118075 0.0617032 -0.00420316 
-0.117567 0.0649904 -0.0289299 -0.115997 0.068165 -0.0532631 -0.113489 0.0712151 -0.0771341 
-0.110185 0.0741282 -0.10052 -0.106228 0.0768882 -0.12344 -0.10175 0.079474 -0.145945 
-0.0968629 0.0818574 -0.168106 -0.0916523 0.0840024 -0.189998 -0.0861702 0.0858652 -0.211691 
-0.0804372 0.0873947 -0.233231 -0.0744457 0.0885344 -0.254636 -0.0681672 0.0892252 -0.27589 
-0.0615617 0.089408 -0.296944 -0.0545889 0.0890282 -0.317717 -0.0472192 0.0880395 -0.338109 
-0.0394437 0.086408 -0.358006 -0.0312816 0.0841158 -0.377298 -0.022785 0.0811635 -0.395884 
-0.0140399 0.0775723 -0.413683 -0.00516281 0.0733846 -0.430644 0.0037052 0.0686622 -0.446745 
0.0124076 0.0634847 -0.461995 0.0207837 0.057945 -0.476429 0.02868 0.0521446 -0.490105 
0.0359619 0.0461882 -0.503093 0.0425234 0.0401773 -0.51547 0.0482944 0.0342044 -0.52731 
0.0532456 0.0283484 -0.538678 0.0573886 0.0226705 -0.549626 0.0607743 0.0172115 -0.56019 
0.0634868 0.0119915 -0.57039 0.0656359 0.00701125 -0.580231 0.0673472 0.00225486 -0.589706 
0.068752 -0.00230565 -0.598798 0.0699768 -0.00670478 -0.607486 0.0711345 -0.0109775 -0.615745 
0.0723164 -0.0151531 -0.623548 0.0735876 -0.01925 -0.630872 0.0749836 -0.023271 -0.637691 
0.0765103 -0.0272011 -0.643982 0.0781457 -0.0310064 -0.64972 0.0798445 -0.0346356 -0.654879 
0.0815432 -0.0380226 -0.659434 0.0831672 -0.0410917 -0.663356 0.0846375 -0.0437629 -0.666618 
0.0858778 -0.045959 -0.669191 0.0868214 -0.0476115 -0.671052 0.0874159 -0.048667 -0.672181 
0.0876283 -0.0490909 -0.672566 
LINES 2 100
OFFSETS vtktypeint64
0 100 
CONNECTIVITY vtktypeint64
0 1 2 3 4 5 6 7 8 
9 10 11 12 13 14 15 16 17 
18 19 20 21 22 23 24 25 26 
27 28 29 30 31 32 33 34 35 
36 37 38 39 40 41 42 43 44 
45 46 47 48 49 50 51 52 53 
54 55 56 57 58 59 60 61 62 
63 64 65 66 67 68 69 70 71 
72 73 74 75 76 77 78 79 80 
81 82 83 84 85 86 87 88 89 
90 91 92 93 94 95 96 97 98 
99 
POINT_DATA 100
FIELD FieldData 3
_theta 1 100 double
0 0.031733259127 0.063466518254 0.095199777382 0.12693303651 0.15866629564 0.19039955476 0.22213281389 0.25386607302 
0.28559933214 0.31733259127 0.3490658504 0.38079910953 0.41253236865 0.44426562778 0.47599888691 0.50773214603 0.53946540516 
0.57119866429 0.60293192342 0.63466518254 0.66639844167 0.6981317008 0.72986495992 0.76159821905 0.79333147818 0.82506473731 
0.85679799643 0.88853125556 0.92026451469 0.95199777382 0.98373103294 1.0154642921 1.0471975512 1.0789308103 1.1106640695 
1.1423973286 1.1741305877 1.2058638468 1.237597106 1.2693303651 1.3010636242 1.3327968833 1.3645301425 1.3962634016 
1.4279966607 1.4597299198 1.491463179 1.5231964381 1.5549296972 1.5866629564 1.6183962155 1.6501294746 1.6818627337 
1.7135959929 1.745329252 1.7770625111 1.8087957702 1.8405290294 1.8722622885 1.9039955476 1.9357288068 1.9674620659 
1.999195325 2.0309285841 2.0626618433 2.0943951024 2.1261283615 2.1578616206 2.1895948798 2.2213281389 2.253061398 
2.2847946572 2.3165279163 2.3482611754 2.3799944345 2.4117276937 2.4434609528 2.4751942119 2.506927471 2.5386607302 
2.5703939893 2.6021272484 2.6338605076 2.6655937667 2.6973270258 2.7290602849 2.7607935441 2.7925268032 2.8242600623 
2.8559933214 2.8877265806 2.9194598397 2.9511930988 2.982926358 3.0146596171 3.0463928762 3.0781261353 3.1098593945 
3.1415926536 
_radius 1 100 double
7.8810685003e-16 0.016797911957 0.033307632007 0.049266838031 0.064458691087 0.078727574097 0.091987527575 0.10422250579 0.11547864279 
0.12584976546 0.1354582809 0.14443416408 0.15289497289 0.16092957018 0.16858758112 0.1758757028 0.18276100388 0.18918045524 
0.19505517642 0.20030727384 0.20487672876 0.2087356624 0.2118975607 0.21441970641 0.21639807727 0.21795518714 0.21922258908 
0.22032081293 0.22134014942 0.22232571728 0.2232695616 0.22411123355 0.22474672927 0.22504426392 0.22486445455 0.22408214828 
0.22260721931 0.22040198203 0.21749330371 0.21397797709 0.21002038299 0.20584193457 0.20170236395 0.19787383958 0.194610414 
0.19211725572 0.19052565979 0.18987956722 0.19013641353 0.19118057445 0.19284409938 0.19492891932 0.19722700188 0.19953778965 
0.20168364053 0.20352351713 0.20496395095 0.20596556836 0.20654361222 0.2067616799 0.2067190472 0.20653329485 0.20632119645 
0.20618140599 0.20618195047 0.20635403498 0.20669194902 0.20715767639 0.20768841408 0.20820536018 0.20862244815 0.20885395855 
0.20882017719 0.20845064954 0.20768513572 0.20647289238 0.20477112081 0.20254324217 0.19975729941 0.19638453924 0.19239822792 
0.18777291406 0.18248448407 0.17651130685 0.16983647919 0.1624507409 0.15435522777 0.14556310239 0.13609937296 0.12599881587 
0.11530261941 0.10405486643 0.092300048628 0.080082418757 0.067447303205 0.054443795943 0.041127788201 0.027564187988 0.013827443734 
7.367745966e-16 
_area 1 100 double
0 0.00066746934793 0.0026250723892 0.0057456628094 0.0098400671524 0.014686346672 0.020062289252 0.025775053747 0.031682731761 
0.037704369726 0.043817349446 0.050043537185 0.056427738775 0.063013165326 0.069818593132 0.076821063581 0.083946919529 0.091072984505 
0.098038553335 0.10466711443 0.11079416232 0.11629485565 0.12110430175 0.12522513764 0.12872132381 0.13170156013 0.13429822506 
0.13664704127 0.13886879142 0.14104949009 0.14321507786 0.14530572084 0.14716534382 0.14855877506 0.14921510638 0.14888521022 
0.1473977523 0.14470059503 0.14087983199 0.13615413692 0.13084719985 0.12534463771 0.12004250886 0.1152938013 0.11136050394 
0.10838177495 0.10636784425 0.10522167872 0.10477835523 0.10484471925 0.10522781178 0.10575166042 0.10626714556 0.10665793079 
0.1068410312 0.10675944414 0.10636990914 0.10563931466 0.10455783548 0.10315806494 0.10152269737 0.099774180006 0.098051387093 
0.096492366089 0.095245017189 0.09439535025 0.093973828408 0.093967585983 0.094360023882 0.095104416901 0.096103499679 0.09721969908 
0.098302963923 0.099216732441 0.09984897269 0.10010818885 0.099913688424 0.099189935355 0.097868520619 0.095894321042 0.093229825954 
0.089854850464 0.085765082534 0.080975227529 0.075527016301 0.069496099498 0.06299271623 0.056155790954 0.049142844413 0.042118372358 
0.035243064465 0.028665954007 0.022520743676 0.016925986435 0.011987272221 0.007799075634 0.0044447217257 0.0019943134454 0.00050146990522 
5.6185864235e-17 
