# vtk DataFile Version 5.1
vtk output
ASCII
DATASET POLYDATA
POINTS 100 float
0.113321 0.0479828 0.644636 0.113566 0.0481685 0.644519 0.114314 0.0485921 0.643999 
0.115475 0.0492294 0.643063 0.116909 0.0500426 0.641695 0.118445 0.0509831 0.639869 
0.119898 0.0519957 0.637551 0.121089 0.0530222 0.634696 0.121863 0.0540057 0.631255 
0.122106 0.0548934 0.62717 0.121751 0.0556397 0.622385 0.120782 0.0562071 0.616842 
0.119232 0.0565665 0.610493 0.117171 0.0566968 0.603304 0.11469 0.0565834 0.595257 
0.111888 0.0562164 0.586356 0.108856 0.0555889 0.576633 0.105656 0.0546961 0.566142 
0.102321 0.0535341 0.55496 0.0988418 0.0521007 0.543184 0.0951732 0.0503964 0.530925 
0.0912394 0.0484264 0.518298 0.0869466 0.0462029 0.505415 0.0821964 0.0437476 0.492377 
0.0769022 0.0410939 0.479267 0.0710021 0.0382885 0.466146 0.06447 0.0353913 0.453046 
0.0573212 0.0324747 0.439974 0.0496123 0.0296209 0.426909 0.0414362 0.0269184 0.41381 
0.0329116 0.0244567 0.400619 0.0241702 0.0223216 0.387271 0.0153416 0.020589 0.373696 
0.00653985 0.0193204 0.359827 -0.00214795 0.0185586 0.345607 -0.0106684 0.0183251 0.330989 
-0.0190031 0.0186192 0.315935 -0.027165 0.0194188 0.300424 -0.035189 0.0206827 0.284438 
-0.0431195 0.0223548 0.267969 -0.0509957 0.024369 0.25101 -0.0588371 0.0266543 0.233555 
-0.0666313 0.0291403 0.215597 -0.074326 0.0317621 0.197125 -0.0818257 0.0344638 0.178129 
-0.0889952 0.0372011 0.158601 -0.0956679 0.0399421 0.138539 -0.10166 0.0426673 0.117949 
-0.106785 0.0453676 0.0968513 -0.110876 0.0480419 0.0752841 -0.113795 0.0506941 0.0533023 
-0.115456 0.0533298 0.030979 -0.115826 0.0559535 0.00840298 -0.11493 0.0585662 -0.0143258 
-0.112851 0.0611634 -0.0371014 -0.109721 0.0637349 -0.0598191 -0.105701 0.0662642 -0.0823812 
-0.100973 0.0687295 -0.104703 -0.0957201 0.0711046 -0.12672 -0.0901063 0.0733602 -0.148384 
-0.0842677 0.075465 -0.169672 -0.0783013 0.0773874 -0.190578 -0.0722617 0.0790953 -0.211109 
-0.0661617 0.0805573 -0.231283 -0.0599796 0.0817425 -0.251123 -0.0536689 0.0826205 -0.270646 
-0.0471712 0.0831615 -0.28986 -0.0404294 0.0833362 -0.308763 -0.0334007 0.0831165 -0.327337 
-0.0260659 0.0824765 -0.345551 -0.018437 0.0813934 -0.363359 -0.0105587 0.0798498 -0.380712 
-0.00250759 0.0778353 -0.397553 0.00561352 0.0753489 -0.413831 0.0136837 0.0724004 -0.429502 
0.0215734 0.0690123 -0.444531 0.029155 0.0652198 -0.4589 0.036312 0.0610716 -0.472603 
0.0429467 0.0566281 -0.485649 0.0489852 0.0519598 -0.498055 0.0543806 0.0471443 -0.509845 
0.059112 0.0422634 -0.521043 0.0631826 0.0373992 -0.531671 0.0666159 0.0326302 -0.541743 
0.0694505 0.0280286 -0.551262 0.0717353 0.023657 -0.560225 0.073525 0.0195663 -0.568615 
0.0748764 0.0157948 -0.576411 0.0758463 0.0123676 -0.583588 0.0764901 0.00929771 -0.590121 
0.076861 0.00658661 -0.595989 0.0770105 0.00422675 -0.601182 0.0769887 0.00220354 -0.605697 
0.0768443 0.000497748 -0.609541 0.0766239 -0.000912111 -0.612733 0.0763716 -0.00204762 -0.615295 
0.0761273 -0.00292861 -0.617257 0.0759248 -0.00357159 -0.618643 0.0757899 -0.00398868 -0.619476 
0.075739 -0.00418682 -0.619769 
LINES 2 100
OFFSETS vtktypeint64
0 100 
CONNECTIVITY vtktypeint64
0 1 2 3 4 5 6 7 8 
9 10 11 12 13 14 15 16 17 
18 19 20 21 22 23 24 25 26 
27 28 29 30 31 32 33 34 35 
36 37 38 39 40 41 42 43 44 
45 46 47 48 49 50 51 52 53 
54 55 56 57 58 59 60 61 62 
63 64 65 66 67 68 69 70 71 
72 73 74 75 76 77 78 79 80 
81 82 83 84 85 86 87 88 89 
90 91 92 93 94 95 96 97 98 
99 
POINT_DATA 100
FIELD FieldData 3
_theta 1 100 double
0 0.031733259127 0.063466518254 0.095199777382 0.12693303651 0.15866629564 0.19039955476 0.22213281389 0.25386607302 
0.28559933214 0.31733259127 0.3490658504 0.38079910953 0.41253236865 0.44426562778 0.47599888691 0.50773214603 0.53946540516 
0.57119866429 0.60293192342 0.63466518254 0.66639844167 0.6981317008 0.72986495992 0.76159821905 0.79333147818 0.82506473731 
0.85679799643 0.88853125556 0.92026451469 0.95199777382 0.98373103294 1.0154642921 1.0471975512 1.0789308103 1.1106640695 
1.1423973286 1.1741305877 1.2058638468 1.237597106 1.2693303651 1.3010636242 1.3327968833 1.3645301425 1.3962634016 
1.4279966607 1.4597299198 1.491463179 1.5231964381 1.5549296972 1.5866629564 1.6183962155 1.6501294746 1.6818627337 
1.7135959929 1.745329252 1.7770625111 1.8087957702 1.8405290294 1.8722622885 1.9039955476 1.9357288068 1.9674620659 
1.999195325 2.0309285841 2.0626618433 2.0943951024 2.1261283615 2.1578616206 2.1895948798 2.2213281389 2.253061398 
2.2847946572 2.3165279163 2.3482611754 2.3799944345 2.4117276937 2.4434609528 2.4751942119 2.506927471 2.5386607302 
2.5703939893 2.6021272484 2.6338605076 2.6655937667 2.6973270258 2.7290602849 2.7607935441 2.7925268032 2.8242600623 
2.8559933214 2.8877265806 2.9194598397 2.9511930988 2.982926358 3.0146596171 3.0463928762 3.0781261353 3.1098593945 
3.1415926536 
_radius 1 100 double
6.6973807122e-16 0.014312909212 0.028532257938 0.042560195122 0.056304396977 0.069681045378 0.08261751941 0.095054584214 0.10694782148 
0.11826804916 0.12900055778 0.13914315459 0.14870321537 0.15769413264 0.166131665 0.17403072452 0.18140309134 0.18825641855 
0.19459466947 0.20041983177 0.20573447062 0.21054455473 0.21486207596 0.21870717889 0.22210962378 0.225109332 0.22775559909 
0.2301045096 0.2322143105 0.23413901466 0.23592114013 0.23758494065 0.23913150358 0.240536689 0.24175228971 0.24271025228 
0.24332941033 0.24352393985 0.24321266786 0.24232845658 0.24082706009 0.23869495094 0.23595555061 0.2326731112 0.22895330504 
0.22493951688 0.22080405706 0.21673420436 0.21291422379 0.20950605757 0.20663259949 0.20436749089 0.20273374892 0.20171065922 
0.20124551478 0.20126547363 0.20168584578 0.20241394153 0.20335047978 0.2043916987 0.20543426408 0.20638292039 0.20715909862 
0.20770815127 0.20800337107 0.20804594012 0.20786098695 0.20749071563 0.20698596137 0.20639748717 0.20576797157 0.20512519078 
0.20447665535 0.20380604644 0.20307198424 0.20220951096 0.20113406517 0.19974709968 0.19794232231 0.1956118173 0.19265173274 
0.18896755199 0.18447909266 0.17912526187 0.17286828663 0.16569677793 0.15762678268 0.14870009414 0.13897957111 0.12854195195 
0.11746941023 0.10584160219 0.093729968617 0.081195506333 0.068290267685 0.055061790325 0.041558843333 0.02783655085 0.013959221664 
1.019784119e-15 
_area 1 100 double
0 0.00055855365236 0.0022172186701 0.0049270909089 0.00861281634 0.013179464518 0.01851871223 0.02451314563 0.031038875001 
0.037967680008 0.045170048578 0.052519797194 0.059899891867 0.067208116441 0.07436082713 0.081293626315 0.087959463789 0.094326591064 
0.10037921923 0.10612136219 0.11158019404 0.11680286304 0.12184340528 0.12674330065 0.13151487561 0.13613683916 0.14056697998 
0.14477079382 0.14875339105 0.1525609208 0.15621786674 0.15965485826 0.16272603579 0.1652814235 0.16721475305 0.1684756817 
0.16906323872 0.16901085884 0.16836025737 0.16711363773 0.16519854452 0.16251343227 0.15900221471 0.15468412916 0.14965106887 
0.14405610215 0.13809891159 0.13200667853 0.12601038107 0.12031973996 0.11510034244 0.1104556016 0.10642134018 0.10299250105 
0.10032207834 0.098378459856 0.096897732209 0.095862178484 0.095246672819 0.094947983022 0.094837121854 0.094770556063 0.094603415077 
0.094207780741 0.093462971196 0.092282321958 0.090651267143 0.088627549807 0.086337461406 0.083965075301 0.081730615804 0.079847841628 
0.078478547301 0.077729997933 0.077699563546 0.07843974162 0.079491557106 0.080592972926 0.081498176195 0.081976726313 0.081824380042 
0.080873420445 0.07900219981 0.076144461245 0.072297420608 0.067525713071 0.061957949686 0.055774416506 0.049187488595 0.042419052435 
0.035680363857 0.029158821481 0.023013491289 0.017378063057 0.01236775113 0.0080862378317 0.0046295700518 0.0020851440819 0.00052562873984 
2.1372533459e-17 
