# vtk DataFile Version 5.1
vtk output
ASCII
DATASET POLYDATA
POINTS 100 float
0.0468116 0.0440139 0.67509 0.0468596 0.0443385 0.674895 0.0470936 0.0451287 0.674202 
0.0474882 0.0463198 0.673021 0.048004 0.0478121 0.671366 0.0485915 0.0494816 0.669254 
0.0491965 0.0511926 0.666698 0.0497658 0.0528112 0.663706 0.050252 0.0542185 0.660275 
0.0506187 0.0553206 0.656396 0.0508426 0.0560558 0.652045 0.0509152 0.0563975 0.647191 
0.050842 0.056353 0.641793 0.0506392 0.0559582 0.635811 0.05033 0.0552699 0.629203 
0.0499387 0.0543558 0.621935 0.0494852 0.0532849 0.613984 0.048979 0.0521186 0.605341 
0.0484149 0.0509041 0.596011 0.0477701 0.0496714 0.58602 0.047003 0.0484328 0.575404 
0.0460545 0.0471862 0.564217 0.0448523 0.0459204 0.552515 0.0433157 0.0446227 0.540363 
0.0413632 0.0432858 0.527821 0.0389201 0.041914 0.514942 0.0359259 0.0405281 0.501771 
0.032341 0.0391661 0.488339 0.0281516 0.037882 0.474663 0.0233724 0.0367408 0.460746 
0.018046 0.0358119 0.446581 0.0122404 0.0351606 0.432146 0.00604335 0.0348395 0.417415 
-0.000444418 0.0348813 0.402355 -0.00711799 0.0352941 0.386933 -0.0138766 0.036059 0.371112 
-0.0206312 0.0371324 0.354857 -0.0273109 0.0384508 0.338133 -0.0338662 0.0399389 0.320907 
-0.0402698 0.0415197 0.303147 -0.0465148 0.0431247 0.284819 -0.052609 0.0447035 0.265895 
-0.0585683 0.0462311 0.246346 -0.0644078 0.0477119 0.226149 -0.070133 0.0491795 0.205287 
-0.075732 0.0506927 0.183756 -0.0811686 0.0523272 0.161563 -0.0863789 0.0541646 0.138733 
-0.0912711 0.0562807 0.115308 -0.0957278 0.0587319 0.0913501 -0.0996129 0.0615455 0.066941 
-0.10278 0.064711 0.0421778 -0.105083 0.0681768 0.0171702 -0.106388 0.0718509 -0.0079648 
-0.106584 0.0756069 -0.0331093 -0.105593 0.0792932 -0.0581507 -0.103373 0.0827464 -0.0829879 
-0.0999283 0.0858054 -0.107536 -0.0953023 0.0883259 -0.13173 -0.0895779 0.0901932 -0.155526 
-0.0828691 0.0913317 -0.178901 -0.0753122 0.0917102 -0.20185 -0.0670551 0.0913424 -0.224382 
-0.0582471 0.0902829 -0.246514 -0.0490294 0.0886184 -0.268268 -0.0395275 0.0864563 -0.289663 
-0.0298463 0.0839114 -0.310712 -0.0200688 0.0810918 -0.33142 -0.0102574 0.0780874 -0.351779 
-0.000457584 0.0749602 -0.371771 0.0092962 0.0717386 -0.391372 0.0189735 0.0684163 -0.410549 
0.0285416 0.0649555 -0.429269 0.0379594 0.061294 -0.447499 0.0471746 0.0573551 -0.465209 
0.0561216 0.0530597 -0.482375 0.0647239 0.0483383 -0.498978 0.0728976 0.0431427 -0.515004 
0.0805574 0.0374547 -0.530441 0.0876243 0.0312923 -0.545274 0.0940329 0.0247114 -0.559487 
0.0997377 0.0178043 -0.573056 0.104719 0.0106941 -0.585947 0.108985 0.00352635 -0.598118 
0.112572 -0.00354169 -0.60952 0.11554 -0.0103523 -0.6201 0.117972 -0.0167591 -0.629805 
0.119958 -0.0226366 -0.638589 0.121596 -0.0278889 -0.646417 0.122975 -0.032455 -0.653273 
0.124175 -0.0363104 -0.659161 0.125255 -0.0394668 -0.66411 0.126252 -0.0419678 -0.668172 
0.127181 -0.0438829 -0.67142 0.128038 -0.0452987 -0.673942 0.1288 -0.0463102 -0.675834 
0.129438 -0.0470107 -0.67719 0.129917 -0.0474832 -0.678097 0.130209 -0.047792 -0.678621 
0.130294 -0.0479774 -0.678806 
LINES 2 100
OFFSETS vtktypeint64
0 100 
CONNECTIVITY vtktypeint64
0 1 2 3 4 5 6 7 8 
9 10 11 12 13 14 15 16 17 
18 19 20 21 22 23 24 25 26 
27 28 29 30 31 32 33 34 35 
36 37 38 39 40 41 42 43 44 
45 46 47 48 49 50 51 52 53 
54 55 56 57 58 59 60 61 62 
63 64 65 66 67 68 69 70 71 
72 73 74 75 76 77 78 79 80 
81 82 83 84 85 86 87 88 89 
90 91 92 93 94 95 96 97 98 
99 
POINT_DATA 100
FIELD FieldData 3
_theta 1 100 double
0 0.031733259127 0.063466518254 0.095199777382 0.12693303651 0.15866629564 0.19039955476 0.22213281389 0.25386607302 
0.28559933214 0.31733259127 0.3490658504 0.38079910953 0.41253236865 0.44426562778 0.47599888691 0.50773214603 0.53946540516 
0.57119866429 0.60293192342 0.63466518254 0.66639844167 0.6981317008 0.72986495992 0.76159821905 0.79333147818 0.82506473731 
0.85679799643 0.88853125556 0.92026451469 0.95199777382 0.98373103294 1.0154642921 1.0471975512 1.0789308103 1.1106640695 
1.1423973286 1.1741305877 1.2058638468 1.237597106 1.2693303651 1.3010636242 1.3327968833 1.3645301425 1.3962634016 
1.4279966607 1.4597299198 1.491463179 1.5231964381 1.5549296972 1.5866629564 1.6183962155 1.6501294746 1.6818627337 
1.7135959929 1.745329252 1.7770625111 1.8087957702 1.8405290294 1.8722622885 1.9039955476 1.9357288068 1.9674620659 
1.999195325 2.0309285841 2.0626618433 2.0943951024 2.1261283615 2.1578616206 2.1895948798 2.2213281389 2.253061398 
2.2847946572 2.3165279163 2.3482611754 2.3799944345 2.4117276937 2.4434609528 2.4751942119 2.506927471 2.5386607302 
2.5703939893 2.6021272484 2.6338605076 2.6655937667 2.6973270258 2.7290602849 2.7607935441 2.7925268032 2.8242600623 
2.8559933214 2.8877265806 2.9194598397 2.9511930988 2.982926358 3.0146596171 3.0463928762 3.0781261353 3.1098593945 
3.1415926536 
_radius 1 100 double
5.5878564068e-16 0.014200022266 0.02844127902 0.042751442873 0.057140013107 0.071591923784 0.086064027879 0.10048484952 0.1147575794 
0.1287659164 0.14238210731 0.15547641602 0.16792720166 0.17963071675 0.19050962588 0.20051917248 0.20965002452 0.21792719983 
0.22540507448 0.23215916128 0.23827591392 0.24384210417 0.24893527522 0.25361645804 0.2579258863 0.26188198198 0.26548344715 
0.26871387454 0.27154789899 0.27395764729 0.2759182312 0.27741132508 0.27842640705 0.27895986036 0.27901264818 0.27858754843 
0.27768690021 0.27631151258 0.27446096036 0.2721351119 0.26933651981 0.26607329241 0.26236220822 0.25823202474 0.25372700476 
0.24891048949 0.24386787356 0.23870777268 0.2335598678 0.2285681921 0.22387963707 0.21962901736 0.21592363333 0.21283114534 
0.21037405419 0.20853209577 0.20725119064 0.20645548431 0.20605840302 0.20596973277 0.20609802173 0.20635007485 0.20663066395 
0.20684503637 0.20690482939 0.20673598508 0.20628637136 0.20553115855 0.20447488836 0.20314995502 0.20161175715 0.19993119513 
0.19818545303 0.19644799125 0.19477844296 0.19321290899 0.19175522981 0.19037021736 0.18898028827 0.18746698718 0.18567818657 
0.18344044327 0.18057467011 0.17691254735 0.1723111722 0.16666413449 0.15990813139 0.15202505725 0.14304005175 0.13301626763 
0.12204723117 0.11024771495 0.09774406116 0.084664873614 0.071132918668 0.057258935197 0.04313786065 0.028847741652 0.014451322081 
5.0138101172e-16 
_area 1 100 double
0 0.00049409518974 0.0019789074432 0.0044612339914 0.0079498310282 0.012451657921 0.017966706126 0.024481330908 0.031960003351 
0.040335783256 0.049500837833 0.059299811643 0.06952987995 0.079950750374 0.090305305076 0.10034781367 0.10987339891 0.11874135687 
0.12688668149 0.13431799399 0.14110423004 0.14735495051 0.153199201 0.1587663687 0.16417106173 0.16950289759 0.17482023135 
0.18014474136 0.18545416045 0.19067552286 0.1956871675 0.20033463533 0.20445450054 0.20789540982 0.21053090073 0.2122647094 
0.21303125905 0.21279341116 0.21153867034 0.20927489161 0.206026953 0.2018358523 0.19676083032 0.19088428944 0.18431911244 
0.17721739184 0.16977726171 0.16224127109 0.15487814455 0.14794354344 0.14162940517 0.13603104843 0.131157061 0.1269681268 
0.12340958717 0.12042162882 0.11793279646 0.11585045173 0.11405904378 0.11242657909 0.11081536256 0.10909693872 0.10717014032 
0.10497670788 0.10250877343 0.099806179305 0.096947335168 0.094040509874 0.091218011055 0.088629110416 0.086428970343 0.084674452156 
0.083293737813 0.082233812077 0.081528437255 0.081348806789 0.081595282315 0.08218964001 0.083015097949 0.083871672647 0.084484179629 
0.084564928794 0.08386151708 0.082180482783 0.07940155021 0.075486596399 0.070481803141 0.064511746664 0.057766126534 0.050481476439 
0.042920863139 0.035354328067 0.028042136281 0.02122220462 0.015102407718 0.0098575450011 0.0056296105582 0.0025292338484 0.00063642421675 
3.8271916449e-17 
