# vtk DataFile Version 5.1
vtk output
ASCII
DATASET POLYDATA
POINTS 100 float
0.108845 0.0488523 0.68487 0.109016 0.0491809 0.684571 0.109595 0.0499676 0.683553 
0.110504 0.0511503 0.681845 0.111625 0.0526327 0.679489 0.112811 0.0542945 0.676534 
0.113906 0.0560032 0.673026 0.114761 0.0576277 0.668999 0.115251 0.0590497 0.664471 
0.115286 0.0601746 0.659438 0.114821 0.0609376 0.653871 0.113854 0.0613073 0.647726 
0.112422 0.0612841 0.640944 0.110592 0.0608957 0.633465 0.108443 0.0601899 0.625235 
0.106056 0.0592253 0.616223 0.103494 0.0580625 0.606419 0.100793 0.0567556 0.595851 
0.0979553 0.0553469 0.584578 0.0949439 0.0538636 0.572692 0.0916897 0.0523183 0.560305 
0.0881001 0.0507125 0.547548 0.0840714 0.0490421 0.534549 0.079505 0.0473046 0.521423 
0.0743215 0.045506 0.508265 0.0684741 0.0436669 0.495135 0.0619568 0.0418261 0.482056 
0.0548074 0.0400417 0.469011 0.047105 0.0383882 0.455951 0.0389615 0.036951 0.442801 
0.0305091 0.0358182 0.429468 0.0218847 0.0350714 0.415854 0.0132149 0.0347753 0.401868 
0.00460148 0.0349697 0.387432 -0.00388808 0.0356627 0.372491 -0.0122254 0.0368284 0.357009 
-0.0204199 0.0384072 0.340971 -0.0285111 0.0403112 0.324379 -0.0365564 0.0424319 0.30724 
-0.044615 0.0446514 0.28956 -0.0527312 0.0468539 0.271342 -0.0609184 0.0489378 0.25257 
-0.0691465 0.0508253 0.233219 -0.0773352 0.0524704 0.213249 -0.085353 0.0538614 0.192615 
-0.0930237 0.0550215 0.171274 -0.100139 0.0560033 0.149197 -0.106476 0.0568815 0.126378 
-0.111817 0.0577421 0.102846 -0.115971 0.0586713 0.0786669 -0.118792 0.0597444 0.0539473 
-0.120195 0.0610159 0.0288308 -0.120163 0.0625132 0.00348841 -0.118749 0.0642329 -0.0218937 
-0.116071 0.0661411 -0.0471301 -0.112298 0.0681775 -0.0720518 -0.107637 0.0702617 -0.0965216 
-0.10231 0.0723017 -0.120445 -0.0965319 0.0742035 -0.143779 -0.0904967 0.0758797 -0.166528 
-0.0843586 0.0772572 -0.188744 -0.0782239 0.0782818 -0.21051 -0.072147 0.0789206 -0.23193 
-0.0661333 0.0791617 -0.253105 -0.060147 0.0790109 -0.274123 -0.0541239 0.0784869 -0.295039 
-0.0479851 0.0776149 -0.315865 -0.041653 0.0764212 -0.336569 -0.0350642 0.0749276 -0.357072 
-0.0281809 0.0731478 -0.377259 -0.0209976 0.0710861 -0.396994 -0.0135429 0.0687378 -0.416131 
-0.00587832 0.0660921 -0.434538 0.00190799 0.0631363 -0.452109 0.00970927 0.059861 -0.468777 
0.0174098 0.0562655 -0.484521 0.0248945 0.0523623 -0.499367 0.0320575 0.0481802 -0.513379 
0.0388081 0.043766 -0.526649 0.0450747 0.0391833 -0.53928 0.0508065 0.0345101 -0.551367 
0.0559714 0.0298342 -0.562983 0.0605542 0.0252474 -0.574162 0.0645525 0.0208395 -0.584894 
0.0679737 0.0166923 -0.595119 0.0708313 0.0128741 -0.604738 0.0731443 0.00943624 -0.613624 
0.0749358 0.00641036 -0.621637 0.0762346 0.00380829 -0.628647 0.0770766 0.00162307 -0.634554 
0.0775066 -0.000168525 -0.639304 0.0775795 -0.0016024 -0.642902 0.0773611 -0.0027231 -0.645418 
0.0769266 -0.00357961 -0.646982 0.0763579 -0.00422143 -0.647772 0.0757392 -0.00469522 -0.648001 
0.0751514 -0.00504203 -0.647888 0.0746663 -0.0052953 -0.647637 0.0743405 -0.00547952 -0.647414 
0.0742106 -0.00560931 -0.647326 
LINES 2 100
OFFSETS vtktypeint64
0 100 
CONNECTIVITY vtktypeint64
0 1 2 3 4 5 6 7 8 
9 10 11 12 13 14 15 16 17 
18 19 20 21 22 23 24 25 26 
27 28 29 30 31 32 33 34 35 
36 37 38 39 40 41 42 43 44 
45 46 47 48 49 50 51 52 53 
54 55 56 57 58 59 60 61 62 
63 64 65 66 67 68 69 70 71 
72 73 74 75 76 77 78 79 80 
81 82 83 84 85 86 87 88 89 
90 91 92 93 94 95 96 97 98 
99 
POINT_DATA 100
FIELD FieldData 3
_theta 1 100 double
0 0.031733259127 0.063466518254 0.095199777382 0.12693303651 0.15866629564 0.19039955476 0.22213281389 0.25386607302 
0.28559933214 0.31733259127 0.3490658504 0.38079910953 0.41253236865 0.44426562778 0.47599888691 0.50773214603 0.53946540516 
0.57119866429 0.60293192342 0.63466518254 0.66639844167 0.6981317008 0.72986495992 0.76159821905 0.79333147818 0.82506473731 
0.85679799643 0.88853125556 0.92026451469 0.95199777382 0.98373103294 1.0154642921 1.0471975512 1.0789308103 1.1106640695 
1.1423973286 1.1741305877 1.2058638468 1.237597106 1.2693303651 1.3010636242 1.3327968833 1.3645301425 1.3962634016 
1.4279966607 1.4597299198 1.491463179 1.5231964381 1.5549296972 1.5866629564 1.6183962155 1.6501294746 1.6818627337 
1.7135959929 1.745329252 1.7770625111 1.8087957702 1.8405290294 1.8722622885 1.9039955476 1.9357288068 1.9674620659 
1.999195325 2.0309285841 2.0626618433 2.0943951024 2.1261283615 2.1578616206 2.1895948798 2.2213281389 2.253061398 
2.2847946572 2.3165279163 2.3482611754 2.3799944345 2.4117276937 2.4434609528 2.4751942119 2.506927471 2.5386607302 
2.5703939893 2.6021272484 2.6338605076 2.6655937667 2.6973270258 2.7290602849 2.7607935441 2.7925268032 2.8242600623 
2.8559933214 2.8877265806 2.9194598397 2.9511930988 2.982926358 3.0146596171 3.0463928762 3.0781261353 3.1098593945 
3.1415926536 
_radius 1 100 double
1.3325747848e-15 0.014612059579 0.029197146135 0.043713685578 0.058108421489 0.072313273635 0.086244899208 0.099807340048 0.11289755532 
0.12541302953 0.1372602492 0.14836279603 0.15866806034 0.16815194757 0.17682124185 0.1847134223 0.19189376046 0.19844960672 
0.2044820299 0.21009542959 0.21538628713 0.22043267148 0.22528628769 0.22996862071 0.23447202001 0.23876545414 0.24280345103 
0.24653592952 0.24991657851 0.25290810287 0.25548367665 0.25762494651 0.25931766504 0.260546395 0.2612897144 0.26151707283 
0.26118806209 0.26025450677 0.25866549608 0.25637521235 0.25335307851 0.2495953162 0.24513653266 0.24005955084 0.23450147056 
0.22865396988 0.22275618437 0.21707925516 0.2119029968 0.20748715502 0.20404193322 0.20170369886 0.20052084225 0.20045165624 
0.20137249908 0.20309250947 0.20537160472 0.20794041493 0.21052230756 0.21285749726 0.21472767201 0.21597792903 0.21653226463 
0.21639964027 0.21566927655 0.21449569237 0.21307566519 0.21162047986 0.21032742432 0.20935442277 0.20880097001 0.20869724919 
0.20900177766 0.20960661758 0.21034855156 0.21102468015 0.21141115952 0.21128370108 0.21043792459 0.20870713809 0.20597510922 
0.20218205216 0.19732318138 0.19144042739 0.18460895822 0.17692082031 0.16846825367 0.15932910266 0.1495563314 0.13917304552 
0.12817366611 0.11653103017 0.10420828073 0.091173606443 0.077415375099 0.062955110375 0.047856109503 0.032226211114 0.016214157612 
5.8207542468e-16 
_area 1 100 double
0 0.00054402699523 0.0021709412902 0.0048638323763 0.0085903893476 0.013298406266 0.018912012739 0.025329747051 0.03242478116 
0.040046791784 0.048024807084 0.056171436518 0.064290640213 0.072191654411 0.079709486557 0.086728584636 0.093203298523 0.099168199154 
0.10473345563 0.1100647033 0.11535180645 0.12077436735 0.12647165193 0.13252097034 0.13892464844 0.14560529791 0.15241232779 
0.159144218 0.16558543572 0.1715473699 0.17689863867 0.18157421747 0.18556059828 0.18886269724 0.19146617529 0.19331152721 
0.1942894221 0.19425566141 0.19305837366 0.19057074168 0.18672431271 0.18153786891 0.17513585489 0.16775049719 0.15970439075 
0.15137548967 0.1431522701 0.13538989402 0.1283759544 0.12230897822 0.11729114882 0.11334284969 0.11045717664 0.10870704488 
0.10817608045 0.10857210811 0.10959360971 0.11096328497 0.11241221334 0.11364141363 0.1143401732 0.11422695624 0.11311154959 
0.11094539094 0.10783684646 0.10403113047 0.099866030089 0.095717393192 0.091946824225 0.088859694447 0.086676151786 0.085513987751 
0.085397382079 0.086333123175 0.088216267157 0.091032335294 0.094076235609 0.096883574708 0.099060195436 0.10026664969 0.10025380469 
0.09888476344 0.096137365228 0.092089343494 0.086892494952 0.080743599122 0.0738585204 0.066453076072 0.058731471164 0.050881429966 
0.04307455408 0.035470238816 0.028221247705 0.021478929162 0.015396363633 0.010128295442 0.005827035386 0.0026337189991 0.00066532034717 
8.2401482659e-18 
