# vtk DataFile Version 5.1
vtk output
ASCII
DATASET POLYDATA
POINTS 100 float
0.11427 0.0574734 0.697582 0.114388 0.0575924 0.69738 0.114783 0.0577828 0.696627 
0.115399 0.0580286 0.695316 0.116143 0.0583063 0.693437 0.116905 0.0585871 0.690973 
0.11756 0.0588395 0.687905 0.117988 0.0590331 0.684202 0.11808 0.0591406 0.679833 
0.117751 0.0591406 0.674758 0.116945 0.0590185 0.668939 0.115632 0.0587669 0.66234 
0.113815 0.0583853 0.654933 0.111514 0.0578781 0.646701 0.108767 0.0572531 0.637646 
0.105615 0.0565193 0.627789 0.102094 0.0556843 0.617173 0.098232 0.0547537 0.605861 
0.094041 0.0537294 0.593934 0.0895178 0.0526104 0.581486 0.0846466 0.0513933 0.568614 
0.0794046 0.0500741 0.555415 0.0737692 0.0486502 0.541974 0.0677266 0.0471231 0.528361 
0.0612789 0.0455003 0.514621 0.0544494 0.0437965 0.500777 0.0472847 0.0420351 0.486826 
0.0398529 0.0402474 0.472744 0.0322385 0.0384716 0.458489 0.0245331 0.0367511 0.444009 
0.0168256 0.0351314 0.429248 0.00919026 0.0336574 0.414154 0.00167726 0.0323707 0.398682 
-0.0056949 0.0313068 0.382799 -0.0129423 0.0304941 0.366481 -0.0201139 0.0299523 0.349717 
-0.0272841 0.0296932 0.3325 -0.0345412 0.0297217 0.314824 -0.0419724 0.0300375 0.296681 
-0.0496463 0.0306372 0.27805 -0.0575967 0.0315165 0.258903 -0.0658085 0.032672 0.239198 
-0.0742083 0.0341023 0.218887 -0.0826609 0.0358078 0.197918 -0.0909729 0.0377908 0.176249 
-0.0989038 0.040053 0.15385 -0.106182 0.0425938 0.13072 -0.112529 0.0454071 0.106889 
-0.117679 0.0484792 0.0824266 -0.121406 0.0517863 0.0574421 -0.123548 0.0552927 0.0320814 
-0.124016 0.0589511 0.00651873 -0.122809 0.0627025 -0.0190554 -0.120014 0.0664788 -0.0444489 
-0.115796 0.0702049 -0.0694843 -0.110388 0.0738029 -0.0940146 -0.104065 0.0771952 -0.117936 
-0.0971186 0.0803086 -0.141196 -0.0898353 0.0830771 -0.163798 -0.0824656 0.0854443 -0.185799 
-0.0752055 0.0873646 -0.207296 -0.0681804 0.0888032 -0.228419 -0.0614378 0.0897354 -0.249309 
-0.0549477 0.0901446 -0.2701 -0.0486109 0.0900207 -0.290902 -0.0422751 0.0893575 -0.311782 
-0.0357541 0.0881513 -0.332757 -0.0288522 0.0863998 -0.353787 -0.0213865 0.0841018 -0.37478 
-0.0132086 0.0812579 -0.395596 -0.00422134 0.0778724 -0.416065 0.00561023 0.0739555 -0.436 
0.0162544 0.0695257 -0.455222 0.0276157 0.0646128 -0.473574 0.039543 0.0592593 -0.490937 
0.0518443 0.0535219 -0.507243 0.0643031 0.0474715 -0.522477 0.0766973 0.0411915 -0.536676 
0.0888172 0.0347754 -0.549922 0.100481 0.0283228 -0.562329 0.111548 0.021935 -0.574025 
0.121921 0.0157104 -0.58514 0.131557 0.0097392 -0.595785 0.140455 0.00409935 -0.606043 
0.148654 -0.00114654 -0.615957 0.156221 -0.00595339 -0.62553 0.163239 -0.0102943 -0.634728 
0.169793 -0.01416 -0.643485 0.175959 -0.0175566 -0.651716 0.181794 -0.0205034 -0.659329 
0.187326 -0.023029 -0.666238 0.192555 -0.025168 -0.672375 0.197449 -0.0269579 -0.677696 
0.201951 -0.0284357 -0.682189 0.205982 -0.0296358 -0.685866 0.209451 -0.0305885 -0.688765 
0.212269 -0.0313188 -0.690937 0.214349 -0.0318463 -0.692436 0.215625 -0.0321849 -0.693312 
0.216054 -0.0323429 -0.693597 
LINES 2 100
OFFSETS vtktypeint64
0 100 
CONNECTIVITY vtktypeint64
0 1 2 3 4 5 6 7 8 
9 10 11 12 13 14 15 16 17 
18 19 20 21 22 23 24 25 26 
27 28 29 30 31 32 33 34 35 
36 37 38 39 40 41 42 43 44 
45 46 47 48 49 50 51 52 53 
54 55 56 57 58 59 60 61 62 
63 64 65 66 67 68 69 70 71 
72 73 74 75 76 77 78 79 80 
81 82 83 84 85 86 87 88 89 
90 91 92 93 94 95 96 97 98 
99 
POINT_DATA 100
FIELD FieldData 3
_theta 1 100 double
0 0.031733259127 0.063466518254 0.095199777382 0.12693303651 0.15866629564 0.19039955476 0.22213281389 0.25386607302 
0.28559933214 0.31733259127 0.3490658504 0.38079910953 0.41253236865 0.44426562778 0.47599888691 0.50773214603 0.53946540516 
0.57119866429 0.60293192342 0.63466518254 0.66639844167 0.6981317008 0.72986495992 0.76159821905 0.79333147818 0.82506473731 
0.85679799643 0.88853125556 0.92026451469 0.95199777382 0.98373103294 1.0154642921 1.0471975512 1.0789308103 1.1106640695 
1.1423973286 1.1741305877 1.2058638468 1.237597106 1.2693303651 1.3010636242 1.3327968833 1.3645301425 1.3962634016 
1.4279966607 1.4597299198 1.491463179 1.5231964381 1.5549296972 1.5866629564 1.6183962155 1.6501294746 1.6818627337 
1.7135959929 1.745329252 1.7770625111 1.8087957702 1.8405290294 1.8722622885 1.9039955476 1.9357288068 1.9674620659 
1.999195325 2.0309285841 2.0626618433 2.0943951024 2.1261283615 2.1578616206 2.1895948798 2.2213281389 2.253061398 
2.2847946572 2.3165279163 2.3482611754 2.3799944345 2.4117276937 2.4434609528 2.4751942119 2.506927471 2.5386607302 
2.5703939893 2.6021272484 2.6338605076 2.6655937667 2.6973270258 2.7290602849 2.7607935441 2.7925268032 2.8242600623 
2.8559933214 2.8877265806 2.9194598397 2.9511930988 2.982926358 3.0146596171 3.0463928762 3.0781261353 3.1098593945 
3.1415926536 
_radius 1 100 double
1.6184142623e-16 0.015404218945 0.030718095843 0.045845860667 0.060694527935 0.075175892813 0.089208681861 0.10272075337 0.11565110312 
0.1279513315 0.13958625569 0.15053353194 0.16078242297 0.17033207342 0.17918972058 0.18736913236 0.19488931749 0.20177335278 
0.20804714316 0.21373807641 0.21887373927 0.22348098174 0.22758556381 0.23121240286 0.23438614283 0.23713151692 0.23947291329 
0.24143277195 0.24302892045 0.24427151974 0.24516066687 0.24568565434 0.24582638757 0.24555673773 0.24484901391 0.24367854792 
0.24202766432 0.23988894665 0.23726839691 0.23418925855 0.23069651654 0.22686083726 0.22278001639 0.21857640659 0.21438996782 
0.21036790675 0.2066528558 0.20337183208 0.20062771897 0.1984940567 0.19701298041 0.19619531163 0.19602102438 0.1964380574 
0.1973586502 0.1986551721 0.20016025811 0.20167639259 0.20299640981 0.20393053448 0.2043318492 0.20411311243 0.20325235203 
0.20178928231 0.19981684438 0.19747147954 0.19492324403 0.19236449454 0.18999505876 0.1880028601 0.18654136109 0.18570784716 
0.18552797557 0.18595094048 0.18685627763 0.18806958955 0.18938236813 0.19057132795 0.19141444747 0.19170297251 0.19125006236 
0.18989724223 0.1875195074 0.18402919763 0.17937806066 0.17355658623 0.16658987046 0.15852993343 0.149445364 0.13941010019 
0.12849372614 0.11675559484 0.10424426329 0.091002319567 0.077075127331 0.06252087252 0.047418991939 0.03187466737 0.016018276073 
7.1892288868e-16 
_area 1 100 double
0 0.00062033398358 0.0024664233426 0.0054927120602 0.0096212721854 0.014741011325 0.020709890008 0.02736143577 0.034515455842 
0.041991530389 0.049623092881 0.0572697553 0.06482580738 0.07222330753 0.079428898927 0.086434593511 0.093244292171 0.099859366138 
0.10626747544 0.1124382451 0.11832728361 0.12388701097 0.12908028965 0.13389209603 0.13833521493 0.14244680715 0.14627351808 
0.14984705355 0.15316229528 0.15617662882 0.15884717038 0.16121660488 0.16329328324 0.1648408787 0.16573391755 0.16583371116 
0.16495446607 0.16304516697 0.16012085256 0.15620858619 0.15153414127 0.14637283456 0.14111991091 0.13594531147 0.13100251118 
0.12649194439 0.12259030663 0.11940540375 0.11696805431 0.1154046933 0.11426349525 0.11324593627 0.11200398299 0.11044811281 
0.10862714501 0.10671405666 0.10492502484 0.10341256045 0.10220300672 0.10124746696 0.10040704364 0.099525968285 0.098521894892 
0.09720355419 0.095515768088 0.093459100742 0.091101217158 0.088570486744 0.086042639196 0.083722453456 0.081819779784 0.080598321217 
0.080236460285 0.080587557724 0.08144421011 0.082575675311 0.083761006113 0.08479073975 0.085467910118 0.085611435658 0.085063089385 
0.083698087911 0.081435761197 0.078245742129 0.074148237792 0.069209969104 0.06353812825 0.057273810004 0.050585132507 0.043659742552 
0.03669665775 0.029897687354 0.023458587046 0.017559988008 0.012358491716 0.0079791631576 0.004511429759 0.0020102763295 0.00050309842946 
6.9831937855e-17 
