# vtk DataFile Version 5.1
vtk output
ASCII
DATASET POLYDATA
POINTS 100 float
0.143599 0.053945 0.639266 0.143452 0.054082 0.639324 0.14309 0.0543485 0.63938 
0.142519 0.0547318 0.639391 0.141749 0.0552124 0.639283 0.140795 0.0557663 0.638964 
0.139675 0.0563672 0.638324 0.138409 0.056989 0.63725 0.137022 0.0576082 0.635624 
0.135536 0.0582051 0.633341 0.133974 0.0587656 0.630312 0.132349 0.0592807 0.626469 
0.130666 0.0597466 0.62177 0.128918 0.0601628 0.616204 0.12708 0.0605313 0.609785 
0.125114 0.0608542 0.602554 0.122966 0.0611324 0.594573 0.120568 0.061364 0.585919 
0.117848 0.0615439 0.576674 0.114731 0.0616631 0.566923 0.111152 0.0617098 0.556741 
0.107056 0.0616697 0.546193 0.102413 0.0615277 0.535328 0.0972176 0.061269 0.524176 
0.0914926 0.0608807 0.512749 0.0852889 0.0603522 0.501049 0.0786812 0.0596765 0.489065 
0.0717613 0.0588498 0.476784 0.0646288 0.0578718 0.464196 0.0573808 0.0567449 0.451299 
0.0501014 0.0554744 0.4381 0.0428527 0.0540675 0.424621 0.0356674 0.0525343 0.410897 
0.0285462 0.0508876 0.39697 0.0214581 0.0491446 0.382887 0.0143453 0.0473274 0.368688 
0.00713218 0.0454654 0.354404 -0.000263069 0.0435957 0.34004 -0.00791526 0.0417643 0.325578 
-0.0158786 0.0400262 0.310966 -0.0241746 0.0384437 0.296119 -0.0327831 0.0370846 0.280923 
-0.0416369 0.0360186 0.265238 -0.0506221 0.0353129 0.248914 -0.0595821 0.0350271 0.231796 
-0.0683276 0.0352083 0.213745 -0.0766493 0.0358863 0.194648 -0.0843331 0.0370698 0.17443 
-0.0911766 0.0387447 0.153069 -0.0970037 0.0408737 0.130596 -0.101678 0.0433978 0.107099 
-0.105109 0.0462405 0.0827183 -0.107262 0.0493129 0.0576393 -0.108151 0.0525201 0.0320783 
-0.107838 0.0557685 0.00626757 -0.106422 0.0589719 -0.0195612 -0.104031 0.0620575 -0.0451932 
-0.100805 0.0649692 -0.0704447 -0.0968885 0.0676698 -0.095174 -0.0924165 0.0701398 -0.119288 
-0.0875089 0.072375 -0.142744 -0.082265 0.0743816 -0.165547 -0.0767624 0.0761703 -0.187738 
-0.0710585 0.0777502 -0.209391 -0.0651953 0.0791225 -0.230591 -0.0592043 0.0802765 -0.251426 
-0.0531128 0.0811865 -0.271972 -0.0469493 0.0818116 -0.292284 -0.0407469 0.0820977 -0.312385 
-0.0345454 0.0819821 -0.332268 -0.028391 0.0813997 -0.351892 -0.0223332 0.0802899 -0.371191 
-0.0164211 0.078605 -0.390074 -0.0106987 0.0763161 -0.408444 -0.00519984 0.0734191 -0.426198 
5.5725e-05 0.0699372 -0.443247 0.00506435 0.0659219 -0.459514 0.00983892 0.0614502 -0.474947 
0.0144069 0.0566203 -0.48952 0.0188062 0.0515444 -0.503231 0.0230804 0.0463412 -0.516104 
0.0272718 0.0411273 -0.528179 0.0314159 0.0360097 -0.539507 0.0355362 0.0310794 -0.550147 
0.0396401 0.026407 -0.560154 0.0437181 0.0220409 -0.569576 0.0477438 0.0180078 -0.578449 
0.0516767 0.0143152 -0.586794 0.0554668 0.0109556 -0.594617 0.0590595 0.00791211 -0.60191 
0.0624016 0.00516395 -0.608653 0.0654459 0.00269135 -0.614815 0.068155 0.000479672 -0.620362 
0.0705035 -0.00147818 -0.625257 0.0724782 -0.00318105 -0.629463 0.0740768 -0.00462041 -0.632947 
0.0753046 -0.00578257 -0.635681 0.0761712 -0.00665167 -0.637643 0.0766863 -0.00721295 -0.638817 
0.0768569 -0.00745553 -0.639193 
LINES 2 100
OFFSETS vtktypeint64
0 100 
CONNECTIVITY vtktypeint64
0 1 2 3 4 5 6 7 8 
9 10 11 12 13 14 15 16 17 
18 19 20 21 22 23 24 25 26 
27 28 29 30 31 32 33 34 35 
36 37 38 39 40 41 42 43 44 
45 46 47 48 49 50 51 52 53 
54 55 56 57 58 59 60 61 62 
63 64 65 66 67 68 69 70 71 
72 73 74 75 76 77 78 79 80 
81 82 83 84 85 86 87 88 89 
90 91 92 93 94 95 96 97 98 
99 
POINT_DATA 100
FIELD FieldData 3
_theta 1 100 double
0 0.031733259127 0.063466518254 0.095199777382 0.12693303651 0.15866629564 0.19039955476 0.22213281389 0.25386607302 
0.28559933214 0.31733259127 0.3490658504 0.38079910953 0.41253236865 0.44426562778 0.47599888691 0.50773214603 0.53946540516 
0.57119866429 0.60293192342 0.63466518254 0.66639844167 0.6981317008 0.72986495992 0.76159821905 0.79333147818 0.82506473731 
0.85679799643 0.88853125556 0.92026451469 0.95199777382 0.98373103294 1.0154642921 1.0471975512 1.0789308103 1.1106640695 
1.1423973286 1.1741305877 1.2058638468 1.237597106 1.2693303651 1.3010636242 1.3327968833 1.3645301425 1.3962634016 
1.4279966607 1.4597299198 1.491463179 1.5231964381 1.5549296972 1.5866629564 1.6183962155 1.6501294746 1.6818627337 
1.7135959929 1.745329252 1.7770625111 1.8087957702 1.8405290294 1.8722622885 1.9039955476 1.9357288068 1.9674620659 
1.999195325 2.0309285841 2.0626618433 2.0943951024 2.1261283615 2.1578616206 2.1895948798 2.2213281389 2.253061398 
2.2847946572 2.3165279163 2.3482611754 2.3799944345 2.4117276937 2.4434609528 2.4751942119 2.506927471 2.5386607302 
2.5703939893 2.6021272484 2.6338605076 2.6655937667 2.6973270258 2.7290602849 2.7607935441 2.7925268032 2.8242600623 
2.8559933214 2.8877265806 2.9194598397 2.9511930988 2.982926358 3.0146596171 3.0463928762 3.0781261353 3.1098593945 
3.1415926536 
_radius 1 100 double
1.1159545019e-15 0.01437777234 0.028648413849 0.042704563215 0.056445373861 0.069780072365 0.082631216749 0.094937109166 0.10665278707 
0.11774926822 0.12821122311 0.13803378269 0.14721946928 0.15577609032 0.16371592365 0.17105588883 0.17781789541 0.18402836987 
0.18971619714 0.1949089701 0.19962833444 0.20388596931 0.20768194289 0.21100662769 0.21384621904 0.21619062663 0.21804160049 
0.21941872261 0.2203613824 0.22092587216 0.22117798442 0.22118263146 0.22099273879 0.22063976971 0.22012768189 0.21943113226 
0.21849777716 0.21725396815 0.21561311967 0.21348627038 0.2107944979 0.20748265351 0.20353339321 0.19897986156 0.19391475966 
0.18849297308 0.18292471634 0.17745696869 0.17234376959 0.16781079291 0.16402419504 0.16107379345 0.15897450064 0.15768181826 
0.15711292049 0.15716565907 0.15773104709 0.15869830212 0.159954776 0.16138519627 0.16287403512 0.16431146998 0.16560022803 
0.16666058863 0.1674332342 0.16788133223 0.16799270421 0.16778150792 0.16728806398 0.166575396 0.16572152999 0.16480772533 
0.16390437049 0.1630575973 0.16227995022 0.16154728556 0.16080201265 0.15996103293 0.15892607231 0.15759437803 0.15586834489 
0.15366309821 0.15091131625 0.14756481063 0.14359281924 0.13897759997 0.13370847105 0.12777565624 0.12116517397 0.11385574373 
0.10581839078 0.097019158787 0.087425099203 0.077013357008 0.065782505024 0.053764323859 0.041033399691 0.027711755601 0.013966502018 
2.7848872525e-16 
_area 1 100 double
0 0.0004503864641 0.0017915845991 0.0039938016135 0.0070078929964 0.010766952888 0.01519000535 0.020187980453 0.025670314698 
0.031549025153 0.037737689181 0.044145894816 0.050673381995 0.057208898287 0.06363603681 0.069844860428 0.075746094555 0.081283533211 
0.086439384025 0.091227838903 0.095676345126 0.099801711785 0.10359396729 0.10701776821 0.11003023243 0.11260488832 0.11475037566 
0.1165174944 0.11799392835 0.11928951695 0.12051629191 0.12176786331 0.12310271496 0.124533043 0.12601147319 0.12741138596 
0.12853663543 0.12917377273 0.12913322952 0.12826372309 0.12645675081 0.12364935076 0.11982962024 0.11505223465 0.1094630153 
0.1033156595 0.096962047329 0.090812155116 0.085273765836 0.080688894103 0.077317364614 0.075247057033 0.0739881395 0.073104576086 
0.072335016254 0.071567125499 0.070803842616 0.07009776636 0.06948713994 0.068971802834 0.068521121057 0.06807969017 0.067567187137 
0.066893259764 0.065990153564 0.064838740232 0.063469119537 0.061945074385 0.060360219701 0.058846132731 0.057544589802 0.056554149589 
0.055917551259 0.055639828463 0.055697290154 0.056034534282 0.05655957043 0.057140368867 0.057606917108 0.057760170704 0.057435921735 
0.056538061087 0.055034861442 0.052955149449 0.050360792707 0.047330233061 0.04394357801 0.040270030087 0.036362081135 0.032259555702 
0.028002142262 0.023644860273 0.019270052824 0.014992146632 0.010954855303 0.007322263019 0.0042652974545 0.0019449229902 0.00049390785851 
3.5780365655e-17 
