# vtk DataFile Version 5.1
vtk output
ASCII
DATASET POLYDATA
POINTS 100 float
0.113628 0.0332798 0.666819 0.113656 0.0334826 0.666641 0.113795 0.0339467 0.665986 
0.113997 0.0346577 0.664855 0.114194 0.0355935 0.663243 0.114301 0.0367271 0.661149 
0.114231 0.0380286 0.658562 0.113904 0.039468 0.655468 0.113258 0.0410168 0.651845 
0.112257 0.0426494 0.647664 0.110889 0.0443431 0.64289 0.10917 0.0460773 0.637486 
0.107132 0.047832 0.631413 0.10482 0.0495853 0.624638 0.102278 0.0513109 0.617141 
0.099541 0.0529761 0.608911 0.096623 0.0545404 0.599958 0.0935143 0.0559552 0.590312 
0.090179 0.057165 0.580022 0.086559 0.0581099 0.569157 0.0825815 0.0587295 0.557798 
0.0781696 0.0589676 0.546036 0.0732559 0.0587779 0.533964 0.0677945 0.0581288 0.52167 
0.0617717 0.057008 0.509227 0.0552129 0.0554255 0.496692 0.0481845 0.0534155 0.484097 
0.0407899 0.0510354 0.471449 0.0331607 0.0483636 0.458727 0.0254433 0.0454954 0.445887 
0.0177828 0.0425373 0.432864 0.0103069 0.0396007 0.419578 0.00311081 0.0367956 0.405942 
-0.00375377 0.0342244 0.391865 -0.0102838 0.0319768 0.377262 -0.0165239 0.0301269 0.362056 
-0.0225593 0.0287307 0.346185 -0.0285018 0.0278263 0.3296 -0.0344725 0.027435 0.312268 
-0.0405823 0.0275636 0.294169 -0.0469119 0.0282072 0.275299 -0.0534961 0.0293526 0.25566 
-0.0603117 0.03098 0.235264 -0.0672733 0.0330655 0.214129 -0.0742351 0.0355811 0.192275 
-0.0810014 0.0384949 0.16973 -0.0873419 0.0417696 0.146527 -0.0930119 0.0453607 0.122707 
-0.0977742 0.0492151 0.0983191 -0.101421 0.0532692 0.0734271 -0.10379 0.0574488 0.0481071 
-0.104783 0.0616693 0.0224502 -0.104365 0.0658385 -0.00343917 -0.102569 0.0698592 -0.0294452 
-0.0994879 0.0736341 -0.0554444 -0.0952627 0.0770712 -0.0813104 -0.0900644 0.0800889 -0.10692 
-0.0840779 0.0826212 -0.132159 -0.0774845 0.0846217 -0.156928 -0.0704477 0.0860661 -0.181148 
-0.063103 0.0869524 -0.20476 -0.0555527 0.0872998 -0.227734 -0.0478663 0.0871456 -0.25006 
-0.0400845 0.0865399 -0.271752 -0.0322277 0.0855399 -0.292839 -0.0243054 0.0842036 -0.313365 
-0.0163259 0.0825841 -0.333379 -0.0083044 0.080724 -0.352928 -0.000268468 0.0786523 -0.372056 
0.00774025 0.0763828 -0.390793 0.0156677 0.0739143 -0.409157 0.0234524 0.0712328 -0.427151 
0.0310317 0.0683158 -0.444759 0.0383497 0.0651369 -0.461953 0.0453638 0.0616717 -0.478694 
0.0520489 0.0579029 -0.494931 0.0583991 0.0538253 -0.510614 0.0644256 0.049449 -0.525689 
0.0701519 0.0448013 -0.540108 0.0756053 0.0399267 -0.553827 0.080809 0.0348852 -0.566813 
0.0857724 0.0297491 -0.579042 0.0904851 0.0245987 -0.5905 0.0949124 0.0195177 -0.601181 
0.0989961 0.0145875 -0.611088 0.102659 0.00988313 -0.620232 0.105814 0.00546894 -0.628628 
0.108376 0.00139593 -0.636293 0.110273 -0.00229991 -0.643248 0.111464 -0.00559802 -0.649513 
0.111944 -0.00849236 -0.655111 0.111756 -0.0109897 -0.660062 0.110991 -0.0131073 -0.664384 
0.109782 -0.0148696 -0.668095 0.108298 -0.0163055 -0.671211 0.106725 -0.0174453 -0.673745 
0.105255 -0.0183176 -0.67571 0.104059 -0.0189475 -0.677112 0.103276 -0.0193542 -0.677959 
0.102996 -0.0195496 -0.678253 
LINES 2 100
OFFSETS vtktypeint64
0 100 
CONNECTIVITY vtktypeint64
0 1 2 3 4 5 6 7 8 
9 10 11 12 13 14 15 16 17 
18 19 20 21 22 23 24 25 26 
27 28 29 30 31 32 33 34 35 
36 37 38 39 40 41 42 43 44 
45 46 47 48 49 50 51 52 53 
54 55 56 57 58 59 60 61 62 
63 64 65 66 67 68 69 70 71 
72 73 74 75 76 77 78 79 80 
81 82 83 84 85 86 87 88 89 
90 91 92 93 94 95 96 97 98 
99 
POINT_DATA 100
FIELD FieldData 3
_theta 1 100 double
0 0.031733259127 0.063466518254 0.095199777382 0.12693303651 0.15866629564 0.19039955476 0.22213281389 0.25386607302 
0.28559933214 0.31733259127 0.3490658504 0.38079910953 0.41253236865 0.44426562778 0.47599888691 0.50773214603 0.53946540516 
0.57119866429 0.60293192342 0.63466518254 0.66639844167 0.6981317008 0.72986495992 0.76159821905 0.79333147818 0.82506473731 
0.85679799643 0.88853125556 0.92026451469 0.95199777382 0.98373103294 1.0154642921 1.0471975512 1.0789308103 1.1106640695 
1.1423973286 1.1741305877 1.2058638468 1.237597106 1.2693303651 1.3010636242 1.3327968833 1.3645301425 1.3962634016 
1.4279966607 1.4597299198 1.491463179 1.5231964381 1.5549296972 1.5866629564 1.6183962155 1.6501294746 1.6818627337 
1.7135959929 1.745329252 1.7770625111 1.8087957702 1.8405290294 1.8722622885 1.9039955476 1.9357288068 1.9674620659 
1.999195325 2.0309285841 2.0626618433 2.0943951024 2.1261283615 2.1578616206 2.1895948798 2.2213281389 2.253061398 
2.2847946572 2.3165279163 2.3482611754 2.3799944345 2.4117276937 2.4434609528 2.4751942119 2.506927471 2.5386607302 
2.5703939893 2.6021272484 2.6338605076 2.6655937667 2.6973270258 2.7290602849 2.7607935441 2.7925268032 2.8242600623 
2.8559933214 2.8877265806 2.9194598397 2.9511930988 2.982926358 3.0146596171 3.0463928762 3.0781261353 3.1098593945 
3.1415926536 
_radius 1 100 double
1.1144001868e-15 0.015205699249 0.030334828825 0.04531320342 0.060070141801 0.074539188307 0.088658116529 0.10236856788 0.11561581043 
0.12834904723 0.14052251539 0.15209737415 0.16304412627 0.17334507094 0.18299609562 0.19200707201 0.2004003171 0.20820701783 
0.21546208481 0.22219841454 0.22844180912 0.23420770002 0.23950033912 0.24431440749 0.24863831047 0.25245802231 0.25576032342 
0.25853460794 0.26077300957 0.26246923433 0.26361698549 0.26420900109 0.26423739696 0.26369535246 0.26257952795 0.26089229817 
0.25864306524 0.25584846922 0.25253197917 0.24872383381 0.24446239292 0.23979756832 0.23479619167 0.22954815297 0.22417122082 
0.21881198431 0.21364066875 0.20883890862 0.20458185088 0.20101850372 0.19825561229 0.19634930243 0.19530561758 0.19508769795 
0.19562537124 0.19682292935 0.19856274962 0.20070550756 0.20309048393 0.20554006309 0.20787041975 0.20990714027 0.21150230721 
0.21254928419 0.2129924866 0.21283087362 0.21211518222 0.21093983504 0.20943093816 0.20773189668 0.20598807854 0.20433179864 
0.20286869479 0.20166632575 0.20074567686 0.20007629931 0.19957583338 0.19911437533 0.19852349401 0.19760894658 0.19616561156 
0.19399301323 0.1909099895 0.18676736638 0.18145778665 0.1749220521 0.1671515283 0.1581864066 0.14810996034 0.13703935747 
0.12511403801 0.11248304208 0.099292880315 0.085677482755 0.071751399565 0.057606794374 0.043314009501 0.028924816288 0.014477121084 
2.7354345419e-16 
_area 1 100 double
0 0.00056249987742 0.0022336158538 0.0049656520404 0.0086838380797 0.013292980176 0.018685852826 0.024752174173 0.031386369859 
0.038491967798 0.045981203991 0.053770707161 0.061776821921 0.069914825759 0.078103964359 0.086276561755 0.094386852726 0.10241472947 
0.11036122821 0.11823573694 0.12603855878 0.13374511114 0.14129817769 0.14861182261 0.15558615977 0.16212792836 0.16816832073 
0.17366815494 0.17860515509 0.18294915827 0.18664019369 0.18958276911 0.19165945647 0.19275683327 0.19279202726 0.19172905236 
0.18957979752 0.18639202572 0.18223215704 0.17717291996 0.1712948642 0.16470249906 0.15754460868 0.15002528019 0.14239753275 
0.13493872998 0.12791310912 0.12153338467 0.11593431951 0.111164626 0.10719687168 0.10395317061 0.10134649955 0.099345055683 
0.098053599308 0.097391616987 0.09714332289 0.09721337107 0.097534949806 0.098034484426 0.098577869522 0.098985943653 0.099061135513 
0.098623481712 0.097547305485 0.09579319316 0.093425978359 0.090607219936 0.087561739172 0.084541918326 0.081828766958 0.07966212613 
0.078232420524 0.077667535608 0.0779799279 0.079049124256 0.080681332097 0.082654970577 0.084718013346 0.086578341556 0.087897451528 
0.088355885285 0.087693006312 0.085731070612 0.082386808598 0.077680884121 0.071739749918 0.064785026197 0.057110027183 0.049047347499 
0.040933916442 0.033080120061 0.025747923126 0.019140297748 0.013401570073 0.0086261036263 0.0048713204365 0.0021707064192 0.00054350229362 
1.8655051977e-17 
