# vtk DataFile Version 5.1
vtk output
ASCII
DATASET POLYDATA
POINTS 100 float
0.084086 0.0465316 0.693925 0.0841788 0.0467197 0.693366 0.0844583 0.0471298 0.69156 
0.0848764 0.0477198 0.688563 0.0853593 0.0484267 0.684465 0.085818 0.0491743 0.679379 
0.0861587 0.0498835 0.673431 0.0862951 0.0504822 0.666752 0.086158 0.0509144 0.659463 
0.0857032 0.0511465 0.65167 0.0849147 0.0511707 0.643456 0.0838043 0.0510048 0.63488 
0.0824067 0.0506875 0.625977 0.080771 0.0502719 0.616762 0.0789512 0.0498163 0.607233 
0.0769944 0.0493746 0.597384 0.0749322 0.0489873 0.587207 0.0727727 0.0486753 0.576699 
0.0704978 0.0484358 0.565869 0.0680638 0.0482425 0.554734 0.0654066 0.0480497 0.543324 
0.0624508 0.0477988 0.531674 0.0591202 0.047428 0.51982 0.0553502 0.0468826 0.507798 
0.0510981 0.0461244 0.495629 0.0463512 0.0451399 0.483324 0.0411313 0.0439451 0.470876 
0.0354942 0.0425864 0.458262 0.0295241 0.0411376 0.445445 0.0233244 0.0396932 0.432377 
0.0170053 0.0383587 0.419008 0.0106698 0.0372389 0.405289 0.00440116 0.0364266 0.391178 
-0.00174849 0.035992 0.376647 -0.00776417 0.0359751 0.361683 -0.0136697 0.0363814 0.346285 
-0.0195235 0.0371821 0.330466 -0.0254093 0.0383185 0.314246 -0.0314222 0.0397092 0.297644 
-0.0376527 0.0412612 0.280675 -0.0441702 0.0428806 0.263341 -0.0510072 0.0444844 0.245631 
-0.0581482 0.0460096 0.227515 -0.065523 0.04742 0.208948 -0.0730064 0.0487087 0.189878 
-0.0804243 0.0498968 0.170245 -0.0875654 0.051029 0.149999 -0.0941976 0.052165 0.129102 
-0.100087 0.0533701 0.107541 -0.105018 0.0547047 0.0853334 -0.108811 0.056215 0.0625298 
-0.111336 0.0579257 0.0392141 -0.112524 0.0598353 0.0154997 -0.112371 0.0619159 -0.00847811 
-0.110931 0.0641152 -0.0325725 -0.108313 0.0663631 -0.0566364 -0.104665 0.0685788 -0.0805345 
-0.10016 0.0706803 -0.104153 -0.094978 0.0725927 -0.127409 -0.0892929 0.0742558 -0.15025 
-0.0832569 0.0756289 -0.172659 -0.0769926 0.0766928 -0.194646 -0.0705877 0.0774486 -0.216245 
-0.0640949 0.0779144 -0.237499 -0.0575351 0.0781186 -0.25845 -0.0509048 0.0780932 -0.279135 
-0.0441842 0.0778666 -0.299569 -0.0373466 0.0774572 -0.319743 -0.0303669 0.0768691 -0.339624 
-0.0232288 0.0760907 -0.359156 -0.0159286 0.0750956 -0.378264 -0.0084778 0.0738458 -0.396863 
-0.000902558 0.0722984 -0.414869 0.00675858 0.0704115 -0.432205 0.0144579 0.0681523 -0.448813 
0.0221421 0.0655031 -0.464655 0.0297556 0.0624666 -0.479721 0.0372425 0.0590679 -0.494019 
0.0445478 0.0553549 -0.507577 0.0516172 0.0513955 -0.520433 0.0583957 0.0472725 -0.532625 
0.0648269 0.0430772 -0.544186 0.0708515 0.0389024 -0.55513 0.0764079 0.0348351 -0.565453 
0.0814331 0.0309504 -0.57513 0.0858667 0.0273075 -0.584115 0.0896547 0.0239471 -0.59235 
0.0927562 0.0208915 -0.599774 0.0951493 0.0181464 -0.606329 0.0968365 0.0157044 -0.611977 
0.0978494 0.013549 -0.616703 0.0982506 0.0116597 -0.620526 0.0981324 0.0100156 -0.623498 
0.0976127 0.00859865 -0.625705 0.0968275 0.00739577 -0.627259 0.0959213 0.00639919 -0.628287 
0.095035 0.00560595 -0.62892 0.0942946 0.00501639 -0.629279 0.0937994 0.00463245 -0.62946 
0.0936135 0.00445589 -0.629527 
LINES 2 100
OFFSETS vtktypeint64
0 100 
CONNECTIVITY vtktypeint64
0 1 2 3 4 5 6 7 8 
9 10 11 12 13 14 15 16 17 
18 19 20 21 22 23 24 25 26 
27 28 29 30 31 32 33 34 35 
36 37 38 39 40 41 42 43 44 
45 46 47 48 49 50 51 52 53 
54 55 56 57 58 59 60 61 62 
63 64 65 66 67 68 69 70 71 
72 73 74 75 76 77 78 79 80 
81 82 83 84 85 86 87 88 89 
90 91 92 93 94 95 96 97 98 
99 
POINT_DATA 100
FIELD FieldData 3
_theta 1 100 double
0 0.031733259127 0.063466518254 0.095199777382 0.12693303651 0.15866629564 0.19039955476 0.22213281389 0.25386607302 
0.28559933214 0.31733259127 0.3490658504 0.38079910953 0.41253236865 0.44426562778 0.47599888691 0.50773214603 0.53946540516 
0.57119866429 0.60293192342 0.63466518254 0.66639844167 0.6981317008 0.72986495992 0.76159821905 0.79333147818 0.82506473731 
0.85679799643 0.88853125556 0.92026451469 0.95199777382 0.98373103294 1.0154642921 1.0471975512 1.0789308103 1.1106640695 
1.1423973286 1.1741305877 1.2058638468 1.237597106 1.2693303651 1.3010636242 1.3327968833 1.3645301425 1.3962634016 
1.4279966607 1.4597299198 1.491463179 1.5231964381 1.5549296972 1.5866629564 1.6183962155 1.6501294746 1.6818627337 
1.7135959929 1.745329252 1.7770625111 1.8087957702 1.8405290294 1.8722622885 1.9039955476 1.9357288068 1.9674620659 
1.999195325 2.0309285841 2.0626618433 2.0943951024 2.1261283615 2.1578616206 2.1895948798 2.2213281389 2.253061398 
2.2847946572 2.3165279163 2.3482611754 2.3799944345 2.4117276937 2.4434609528 2.4751942119 2.506927471 2.5386607302 
2.5703939893 2.6021272484 2.6338605076 2.6655937667 2.6973270258 2.7290602849 2.7607935441 2.7925268032 2.8242600623 
2.8559933214 2.8877265806 2.9194598397 2.9511930988 2.982926358 3.0146596171 3.0463928762 3.0781261353 3.1098593945 
3.1415926536 
_radius 1 100 double
1.3538669345e-15 0.012820598585 0.025592547538 0.038260135517 0.050765080172 0.063047030531 0.075045380985 0.086702137449 0.097965286043 
0.10879199555 0.1191510634 0.1290242481 0.13840642068 0.14730469617 0.15573679003 0.16372877382 0.17131225872 0.17852094216 
0.18538652222 0.19193423519 0.19817861065 0.20412030809 0.20974494684 0.215024579 0.21992190121 0.22439659282 0.22841253883 
0.23194437915 0.23498194718 0.23753168054 0.23961482217 0.2412629397 0.24251176684 0.24339451365 0.24393564881 0.24414588275 
0.24401884707 0.24352985684 0.24263712853 0.24128579964 0.2394149428 0.23696741428 0.23390182247 0.23020524504 0.22590475412 
0.22107554088 0.21584359573 0.21038149313 0.204896783 0.19961378714 0.19475121361 0.19049958394 0.18700312575 0.18434958479 
0.18256849459 0.18163539805 0.18147822393 0.18198318019 0.18300029474 0.18435124491 0.18584243517 0.18728386171 0.18851081404 
0.18940341703 0.18989944943 0.18999795171 0.18975351765 0.18926303203 0.18864770569 0.18803358181 0.18753335942 0.18723157869 
0.18717420682 0.18736280726 0.18775304298 0.18825723492 0.18875074786 0.18908175276 0.18908335731 0.18858651173 0.18743189475 
0.18547934734 0.18261418193 0.17875049105 0.1738320921 0.16783185855 0.16075000512 0.15261162397 0.14346358751 0.13337090113 
0.12241265573 0.11067780787 0.09826104872 0.08525901585 0.071767093799 0.057877048562 0.043675703607 0.029244730115 0.014661404719 
1.5478552835e-15 
_area 1 100 double
0 0.0004772064786 0.0018959674188 0.0042176328093 0.0073778841216 0.011287968013 0.015838173867 0.02090442844 0.02635814597 
0.032078397548 0.037964276204 0.043944399896 0.049980442784 0.056063123033 0.06220207508 0.068413690825 0.074711058978 0.081097630033 
0.087563901644 0.094086318766 0.10062868543 0.10714628971 0.11359136868 0.11991767212 0.12608287607 0.13204849978 0.13777603899 
0.14321837945 0.14831137559 0.15297518836 0.15712777104 0.16070150766 0.16365318001 0.16596473582 0.16763803403 0.16868750644 
0.16913205972 0.16898500962 0.16824231461 0.16687463885 0.16483009506 0.16204814962 0.15847959821 0.15410755635 0.14896575819 
0.14315030213 0.13682052781 0.13018649198 0.12348539449 0.11695469904 0.11081167755 0.10524765126 0.10043969152 0.096536844214 
0.093540495952 0.091288456309 0.089603258587 0.088338517069 0.087362933027 0.086552307574 0.085795501642 0.084999502326 0.084078760178 
0.082946658845 0.081547636945 0.079916724218 0.078270952163 0.07665562683 0.075133299523 0.073815325868 0.072615327758 0.07161204108 
0.070894323502 0.070544678469 0.070624445734 0.071151318333 0.07207828981 0.073287036134 0.074598967528 0.075794524399 0.076632697215 
0.076873039054 0.076300928985 0.074749509477 0.072114778709 0.068365392384 0.063548383562 0.057789686879 0.051287417956 0.044296956863 
0.037109017116 0.030023583278 0.023323201187 0.017249063235 0.011983314211 0.0076410025614 0.0042743954739 0.0018896792416 0.00047069303838 
3.5646706757e-17 
