# vtk DataFile Version 5.1
vtk output
ASCII
DATASET POLYDATA
POINTS 100 float
0.145072 0.0399408 0.640214 0.144985 0.0400917 0.64021 0.144806 0.0403893 0.640031 
0.144497 0.0408244 0.63963 0.144001 0.0413826 0.638937 0.143249 0.0420451 0.637858 
0.142171 0.0427902 0.636288 0.140708 0.0435938 0.634112 0.138819 0.0444308 0.631217 
0.136488 0.0452755 0.627499 0.133726 0.0461018 0.622871 0.130571 0.0468833 0.617271 
0.127079 0.0475928 0.610662 0.123318 0.0482023 0.60304 0.11936 0.0486827 0.594433 
0.115267 0.0490045 0.584899 0.111081 0.0491386 0.57452 0.106823 0.0490577 0.563402 
0.102488 0.0487389 0.551659 0.0980417 0.0481661 0.539416 0.0934341 0.047333 0.52679 
0.0886014 0.0462451 0.513893 0.0834784 0.0449219 0.500818 0.0780084 0.0433977 0.487639 
0.0721525 0.0417209 0.474408 0.0658952 0.0399522 0.461155 0.0592474 0.0381613 0.447888 
0.0522447 0.0364221 0.434597 0.0449417 0.034808 0.421258 0.0374042 0.0333857 0.407839 
0.0296987 0.0322106 0.3943 0.0218827 0.0313227 0.380596 0.013996 0.0307439 0.366684 
0.00605592 0.0304773 0.352516 -0.00194388 0.0305087 0.338046 -0.0100295 0.0308101 0.323223 
-0.0182387 0.0313439 0.307991 -0.0266096 0.0320693 0.292291 -0.0351672 0.032948 0.276059 
-0.0439102 0.0339501 0.259226 -0.0528 0.0350578 0.241724 -0.0617537 0.0362686 0.22349 
-0.0706422 0.0375951 0.204474 -0.0792945 0.0390634 0.184643 -0.0875084 0.0407085 0.16399 
-0.0950654 0.0425693 0.142538 -0.10175 0.0446815 0.120346 -0.107368 0.0470714 0.0975068 
-0.111767 0.0497495 0.0741459 -0.114852 0.0527068 0.0504145 -0.116592 0.0559119 0.0264801 
-0.117025 0.0593119 0.00251441 -0.116252 0.0628342 -0.0213195 -0.114425 0.066392 -0.0448802 
-0.111733 0.06989 -0.068059 -0.108377 0.0732317 -0.0907881 -0.104551 0.0763265 -0.113044 
-0.100421 0.0790954 -0.134848 -0.0961119 0.0814758 -0.156256 -0.0916935 0.0834237 -0.177354 
-0.0871815 0.0849137 -0.19824 -0.0825407 0.0859371 -0.219007 -0.0776967 0.0864979 -0.239731 
-0.0725524 0.0866081 -0.260456 -0.0670065 0.0862823 -0.281181 -0.0609736 0.0855332 -0.30186 
-0.0544005 0.0843678 -0.322398 -0.047279 0.0827865 -0.342658 -0.0396523 0.0807826 -0.362478 
-0.0316148 0.0783451 -0.38168 -0.023305 0.0754626 -0.400094 -0.0148933 0.0721283 -0.417572 
-0.00656536 0.0683452 -0.434009 0.0014953 0.064131 -0.449348 0.00912477 0.059521 -0.463592 
0.0161928 0.05457 -0.476798 0.0226124 0.0493508 -0.489076 0.0283438 0.0439513 -0.500571 
0.0333924 0.0384692 -0.511448 0.0378017 0.0330049 -0.521869 0.0416418 0.0276542 -0.531979 
0.0449962 0.0225017 -0.541884 0.0479479 0.0176138 -0.551641 0.0505678 0.0130358 -0.561251 
0.0529062 0.00878922 -0.570658 0.0549884 0.00487373 -0.57976 0.0568158 0.00127019 -0.58842 
0.058371 -0.00205354 -0.596485 0.0596262 -0.00513578 -0.603805 0.0605536 -0.0080137 -0.610251 
0.061136 -0.0107166 -0.615738 0.0613753 -0.0132608 -0.620226 0.0612981 -0.0156461 -0.623735 
0.0609576 -0.0178554 -0.626339 0.0604301 -0.0198567 -0.628155 0.0598082 -0.0216067 -0.629332 
0.0591909 -0.023057 -0.630029 0.058672 -0.0241605 -0.630399 0.058328 -0.0248776 -0.630566 
0.0582092 -0.0251819 -0.630612 
LINES 2 100
OFFSETS vtktypeint64
0 100 
CONNECTIVITY vtktypeint64
0 1 2 3 4 5 6 7 8 
9 10 11 12 13 14 15 16 17 
18 19 20 21 22 23 24 25 26 
27 28 29 30 31 32 33 34 35 
36 37 38 39 40 41 42 43 44 
45 46 47 48 49 50 51 52 53 
54 55 56 57 58 59 60 61 62 
63 64 65 66 67 68 69 70 71 
72 73 74 75 76 77 78 79 80 
81 82 83 84 85 86 87 88 89 
90 91 92 93 94 95 96 97 98 
99 
POINT_DATA 100
FIELD FieldData 3
_theta 1 100 double
0 0.031733259127 0.063466518254 0.095199777382 0.12693303651 0.15866629564 0.19039955476 0.22213281389 0.25386607302 
0.28559933214 0.31733259127 0.3490658504 0.38079910953 0.41253236865 0.44426562778 0.47599888691 0.50773214603 0.53946540516 
0.57119866429 0.60293192342 0.63466518254 0.66639844167 0.6981317008 0.72986495992 0.76159821905 0.79333147818 0.82506473731 
0.85679799643 0.88853125556 0.92026451469 0.95199777382 0.98373103294 1.0154642921 1.0471975512 1.0789308103 1.1106640695 
1.1423973286 1.1741305877 1.2058638468 1.237597106 1.2693303651 1.3010636242 1.3327968833 1.3645301425 1.3962634016 
1.4279966607 1.4597299198 1.491463179 1.5231964381 1.5549296972 1.5866629564 1.6183962155 1.6501294746 1.6818627337 
1.7135959929 1.745329252 1.7770625111 1.8087957702 1.8405290294 1.8722622885 1.9039955476 1.9357288068 1.9674620659 
1.999195325 2.0309285841 2.0626618433 2.0943951024 2.1261283615 2.1578616206 2.1895948798 2.2213281389 2.253061398 
2.2847946572 2.3165279163 2.3482611754 2.3799944345 2.4117276937 2.4434609528 2.4751942119 2.506927471 2.5386607302 
2.5703939893 2.6021272484 2.6338605076 2.6655937667 2.6973270258 2.7290602849 2.7607935441 2.7925268032 2.8242600623 
2.8559933214 2.8877265806 2.9194598397 2.9511930988 2.982926358 3.0146596171 3.0463928762 3.0781261353 3.1098593945 
3.1415926536 
_radius 1 100 double
8.0299523372e-16 0.015448840811 0.030685083974 0.045511593427 0.0597647283 0.073325159885 0.086122706593 0.098134947853 0.10938040284 
0.11990785102 0.1297837681 0.13907979711 0.14786175441 0.15618109404 0.16406926719 0.17153515536 0.17856568426 0.18512966323 
0.19118466558 0.1966863026 0.20159864215 0.2059040028 0.20961016777 0.2127533628 0.21539610739 0.2176200839 0.21951518536 
0.22116662857 0.2226423021 0.22398236123 0.2251925977 0.22624244845 0.22706781087 0.2275782291 0.22766758884 0.22722721637 
0.22616017363 0.22439552699 0.22190140604 0.21869571372 0.21485333457 0.21050857115 0.20585137322 0.20111594566 0.1965609818 
0.19244254191 0.18898342471 0.18634557445 0.18461261323 0.18378677794 0.18379941005 0.18452943224 0.18582246721 0.18750528484 
0.18939494332 0.19130641484 0.19306341844 0.19451387507 0.19554690886 0.1961063822 0.19619720526 0.19588318053 0.19527723434 
0.19452610855 0.19379211711 0.19323458867 0.19299317567 0.19317439113 0.19384176482 0.19500929258 0.19663777449 0.19863421757 
0.20085516466 0.20311485106 0.20519824208 0.20687775447 0.20793151448 0.20816070927 0.20740388613 0.20554670521 0.20252642992 
0.19833118506 0.19299462213 0.18658704837 0.17920428726 0.17095556912 0.16195165906 0.15229428684 0.14206780656 0.13133388996 
0.12012989343 0.10847124586 0.09635772305 0.08378283568 0.070744895338 0.057257834954 0.043359724673 0.029117235041 0.014625022768 
7.3447136196e-16 
_area 1 100 double
0 0.00063452941596 0.002504280285 0.0055133295862 0.0095190472665 0.014353538122 0.019846197197 0.025842576914 0.032216113506 
0.038871352777 0.045739539375 0.05276912273 0.059914385889 0.067125005354 0.074338422491 0.081476110373 0.088444481234 0.095141132541 
0.10146678321 0.10734185673 0.11272401319 0.11762016109 0.12208605872 0.12621073564 0.13009062285 0.13380395895 0.13739450971 
0.14086680221 0.14418959672 0.14730327216 0.15012803664 0.15257074162 0.15452841198 0.15588783332 0.15652403843 0.15630444143 
0.15510389276 0.15282957738 0.14944920911 0.14501416535 0.13967059853 0.13365477223 0.12727272831 0.12086757688 0.11477928062 
0.10930162706 0.10464048569 0.10088115137 0.09798507015 0.095834454779 0.094300257324 0.093289733897 0.092763211967 0.092706684744 
0.093026764976 0.093535048935 0.094023738746 0.094294731716 0.094177906821 0.093572091591 0.092475088474 0.090977199323 0.089233830023 
0.087436447631 0.085783355616 0.08445537596 0.083610397341 0.083352766747 0.083740113966 0.08479160344 0.086468088043 0.088675478989 
0.091266514327 0.094043721613 0.096771960223 0.099199655186 0.10108342074 0.10220922784 0.10240610768 0.10155255486 0.099578781846 
0.096468296745 0.092259841957 0.087047601205 0.080976363829 0.074229842317 0.067013309857 0.059534244044 0.051985513863 0.044534718261 
0.037321238264 0.030460304236 0.024051643454 0.018189409444 0.012970076397 0.0084956776655 0.004871120751 0.0021961124282 0.00055390442523 
2.9438777552e-17 
