# vtk DataFile Version 5.1
vtk output
ASCII
DATASET POLYDATA
POINTS 100 float
0.0961342 0.0504404 0.693777 0.0961667 0.0506955 0.693299 0.0962865 0.0513072 0.691753 
0.0964645 0.0522257 0.689223 0.0966562 0.0533747 0.685838 0.0968071 0.0546599 0.681751 
0.0968604 0.0559793 0.677122 0.0967629 0.057234 0.672095 0.0964719 0.0583389 0.66678 
0.0959587 0.0592301 0.661236 0.0952111 0.0598703 0.655469 0.0942325 0.0602498 0.649428 
0.093038 0.0603845 0.643018 0.0916501 0.0603098 0.636112 0.0900916 0.0600733 0.628571 
0.0883793 0.0597251 0.620269 0.0865186 0.0593088 0.611107 0.0844992 0.0588537 0.601033 
0.0822944 0.0583699 0.590051 0.0798622 0.0578455 0.578223 0.0771497 0.0572481 0.565664 
0.074099 0.0565297 0.552529 0.0706551 0.0556333 0.538993 0.0667736 0.0545025 0.525237 
0.0624271 0.05309 0.511422 0.0576106 0.051367 0.497671 0.0523433 0.0493296 0.484062 
0.0466678 0.0470028 0.470617 0.0406454 0.0444407 0.457304 0.0343504 0.0417246 0.44405 
0.0278605 0.0389564 0.430746 0.0212488 0.0362512 0.417274 0.0145747 0.0337271 0.403515 
0.00787792 0.0314965 0.389371 0.00117446 0.0296567 0.374775 -0.00554306 0.0282833 0.359696 
-0.0123021 0.0274257 0.344141 -0.0191435 0.0271058 0.328143 -0.0261116 0.027319 0.311755 
-0.0332444 0.0280377 0.295031 -0.0405619 0.029217 0.278015 -0.0480576 0.0308 0.26072 
-0.0556914 0.0327249 0.243127 -0.0633866 0.0349293 0.225177 -0.0710312 0.0373546 0.206772 
-0.0784821 0.0399484 0.187791 -0.0855748 0.0426644 0.168098 -0.0921338 0.045462 0.147565 
-0.0979853 0.0483039 0.12609 -0.10297 0.0511544 0.103614 -0.106955 0.0539765 0.0801336 
-0.109839 0.0567313 0.0557096 -0.111563 0.0593776 0.030466 -0.112107 0.0618728 0.00458202 
-0.11149 0.0641754 -0.0217217 -0.109763 0.0662478 -0.0482027 -0.107005 0.0680596 -0.0746176 
-0.10331 0.0695904 -0.100744 -0.0987779 0.070832 -0.126399 -0.0935116 0.0717886 -0.15145 
-0.0876055 0.0724757 -0.175824 -0.0811444 0.0729177 -0.199505 -0.0742018 0.0731433 -0.222526 
-0.0668409 0.0731808 -0.244955 -0.0591169 0.0730527 -0.266879 -0.051081 0.0727713 -0.288384 
-0.0427837 0.0723354 -0.30954 -0.0342779 0.0717291 -0.330386 -0.0256208 0.0709223 -0.350926 
-0.0168736 0.0698739 -0.371122 -0.00810062 0.0685371 -0.390903 0.000633753 0.0668654 -0.410176 
0.0092683 0.0648201 -0.428835 0.0177485 0.0623763 -0.446778 0.0260292 0.0595292 -0.463924 
0.0340762 0.0562967 -0.480217 0.0418664 0.0527212 -0.495639 0.0493853 0.0488671 -0.510203 
0.0566241 0.0448174 -0.523956 0.0635751 0.0406664 -0.536961 0.0702264 0.0365128 -0.549291 
0.0765584 0.0324512 -0.561009 0.0825401 0.0285647 -0.572161 0.0881285 0.0249188 -0.582761 
0.0932698 0.0215576 -0.592791 0.0979038 0.0185026 -0.6022 0.10197 0.0157539 -0.610911 
0.105413 0.0132936 -0.618834 0.108197 0.011092 -0.625877 0.110304 0.00911314 -0.631966 
0.111748 0.00732179 -0.637057 0.112575 0.00568897 -0.641148 0.112861 0.00419597 -0.644282 
0.112711 0.00283656 -0.646549 0.112251 0.00161679 -0.648078 0.111619 0.000552941 -0.649021 
0.11095 -0.000332227 -0.64954 0.110365 -0.00101404 -0.649788 0.109963 -0.00147063 -0.649888 
0.109806 -0.00168698 -0.64992 
LINES 2 100
OFFSETS vtktypeint64
0 100 
CONNECTIVITY vtktypeint64
0 1 2 3 4 5 6 7 8 
9 10 11 12 13 14 15 16 17 
18 19 20 21 22 23 24 25 26 
27 28 29 30 31 32 33 34 35 
36 37 38 39 40 41 42 43 44 
45 46 47 48 49 50 51 52 53 
54 55 56 57 58 59 60 61 62 
63 64 65 66 67 68 69 70 71 
72 73 74 75 76 77 78 79 80 
81 82 83 84 85 86 87 88 89 
90 91 92 93 94 95 96 97 98 
99 
POINT_DATA 100
FIELD FieldData 3
_theta 1 100 double
0 0.031733259127 0.063466518254 0.095199777382 0.12693303651 0.15866629564 0.19039955476 0.22213281389 0.25386607302 
0.28559933214 0.31733259127 0.3490658504 0.38079910953 0.41253236865 0.44426562778 0.47599888691 0.50773214603 0.53946540516 
0.57119866429 0.60293192342 0.63466518254 0.66639844167 0.6981317008 0.72986495992 0.76159821905 0.79333147818 0.82506473731 
0.85679799643 0.88853125556 0.92026451469 0.95199777382 0.98373103294 1.0154642921 1.0471975512 1.0789308103 1.1106640695 
1.1423973286 1.1741305877 1.2058638468 1.237597106 1.2693303651 1.3010636242 1.3327968833 1.3645301425 1.3962634016 
1.4279966607 1.4597299198 1.491463179 1.5231964381 1.5549296972 1.5866629564 1.6183962155 1.6501294746 1.6818627337 
1.7135959929 1.745329252 1.7770625111 1.8087957702 1.8405290294 1.8722622885 1.9039955476 1.9357288068 1.9674620659 
1.999195325 2.0309285841 2.0626618433 2.0943951024 2.1261283615 2.1578616206 2.1895948798 2.2213281389 2.253061398 
2.2847946572 2.3165279163 2.3482611754 2.3799944345 2.4117276937 2.4434609528 2.4751942119 2.506927471 2.5386607302 
2.5703939893 2.6021272484 2.6338605076 2.6655937667 2.6973270258 2.7290602849 2.7607935441 2.7925268032 2.8242600623 
2.8559933214 2.8877265806 2.9194598397 2.9511930988 2.982926358 3.0146596171 3.0463928762 3.0781261353 3.1098593945 
3.1415926536 
_radius 1 100 double
1.1127571656e-15 0.012613260866 0.025273464714 0.038004900223 0.050807840657 0.06365261528 0.076478693518 0.08919834377 0.10170363713 
0.11387525084 0.1255916518 0.13673763582 0.14721165795 0.15693175507 0.16584005461 0.17390586899 0.18112722807 0.18753049668 
0.1931676148 0.19811065042 0.20244384866 0.20625409669 0.20962142103 0.21261143912 0.21527135973 0.21763019169 0.21970259546 
0.22149477109 0.22301032329 0.22425431638 0.22523455138 0.22596009192 0.22643785785 0.22666847219 0.22664248964 0.22633784486 
0.22571908962 0.22473886613 0.22334198178 0.22147218558 0.2190812137 0.21613902938 0.21264367204 0.20862890016 0.20416791352 
0.1993719171 0.19438318644 0.1893635566 0.18448056152 0.17989419546 0.17574688988 0.17215778947 0.16922048702 0.16700200274 
0.16554054489 0.16484051463 0.16486509951 0.1655292185 0.16669758232 0.16819262004 0.16981378808 0.17136447411 0.17267899794 
0.17364273596 0.17420193609 0.17436340268 0.17418638772 0.17376972645 0.17323682631 0.1727200009 0.172344669 0.17221386188 
0.17239421088 0.17290531155 0.17371433066 0.17473679608 0.17584314266 0.17686942751 0.17763011333 0.1779310314 0.17758134759 
0.17640416376 0.17424590893 0.17098472436 0.16653768417 0.1608661708 0.15397835344 0.14592773903 0.13680725613 0.12673918761 
0.1158622446 0.10431786001 0.092238091652 0.079737210748 0.066908165836 0.053823905844 0.04054236083 0.027113035192 0.013582925101 
7.2356261556e-16 
_area 1 100 double
0 0.00044985587116 0.0018014589442 0.0040581474832 0.0072172143537 0.011260561572 0.016146672051 0.021806577884 0.028144671385 
0.035043125515 0.042367515877 0.049971536786 0.057700181423 0.06539251623 0.072886194554 0.080025470472 0.086672840215 0.09272243283 
0.09811187768 0.10282913947 0.1069117832 0.11043808782 0.11351197951 0.11624613023 0.11874826004 0.12111315469 0.12341818675 
0.12571802671 0.128038012 0.13037041292 0.13267675517 0.13489516471 0.13695106906 0.1387741295 0.14033894915 0.14163597624 
0.14246810598 0.14265663208 0.14209062507 0.14064088977 0.13825421015 0.13494669163 0.13079041842 0.1259046968 0.12045692403 
0.11465645139 0.10873226307 0.10290338258 0.097351297563 0.092207614135 0.087555508529 0.083436283473 0.079855510381 0.076791235124 
0.074209711376 0.072086668642 0.070422880241 0.069241650899 0.068566278646 0.068389041141 0.068639867602 0.069159679547 0.069718435899 
0.070102823114 0.070199302154 0.070014585023 0.069655145651 0.069237030877 0.068800420232 0.068382988015 0.068059373856 0.067937698673 
0.068140949483 0.068777586987 0.069908242078 0.071518462479 0.073507111656 0.075694189216 0.077843146645 0.079688177062 0.080959344895 
0.081404001009 0.080806649174 0.079009277185 0.075931262108 0.071584853802 0.066081121511 0.059622804582 0.052483906365 0.044979555228 
0.037432199926 0.030140767972 0.023357930733 0.017277865185 0.012034229671 0.0077065437608 0.0043326303092 0.001924101911 0.00048075045582 
4.2095896249e-17 
