# vtk DataFile Version 5.1
vtk output
ASCII
DATASET POLYDATA
POINTS 100 float
0.13683 0.0261328 0.622602 0.136894 0.0262573 0.622475 0.137158 0.0264755 0.621973 
0.137564 0.0267964 0.6211 0.138021 0.0272343 0.61986 0.138419 0.0278056 0.618251 
0.138638 0.0285249 0.616265 0.138562 0.0294012 0.613878 0.138093 0.0304342 0.611053 
0.13716 0.0316112 0.607735 0.135724 0.0329058 0.603861 0.133776 0.0342776 0.599358 
0.131341 0.035673 0.594158 0.128463 0.0370292 0.588203 0.1252 0.0382771 0.581455 
0.121611 0.0393472 0.573908 0.117745 0.0401745 0.565585 0.113637 0.040704 0.556547 
0.109296 0.0408949 0.546884 0.10471 0.0407245 0.536711 0.0998451 0.0401897 0.526154 
0.0946564 0.0393079 0.515342 0.089093 0.0381158 0.504387 0.0831113 0.0366666 0.493376 
0.0766835 0.0350264 0.482357 0.0698062 0.0332702 0.471337 0.0625047 0.0314764 0.460281 
0.0548334 0.0297228 0.449115 0.0468722 0.0280822 0.437736 0.0387188 0.0266188 0.426026 
0.0304785 0.0253865 0.413866 0.0222519 0.0244269 0.401151 0.0141244 0.0237696 0.387802 
0.00615573 0.0234326 0.373776 -0.00162493 0.0234238 0.359066 -0.00922112 0.0237428 0.343706 
-0.0166655 0.0243827 0.327756 -0.0240123 0.0253324 0.311294 -0.0313254 0.026578 0.294407 
-0.0386655 0.0281047 0.277168 -0.0460754 0.0298972 0.259628 -0.0535686 0.0319406 0.241808 
-0.0611194 0.0342204 0.223693 -0.0686588 0.0367225 0.20523 -0.076075 0.0394322 0.186343 
-0.0832198 0.0423344 0.166935 -0.0899193 0.045412 0.146912 -0.0959888 0.0486458 0.126191 
-0.101248 0.0520134 0.104723 -0.105539 0.0554887 0.0824963 -0.108738 0.0590412 0.0595502 
-0.110768 0.0626356 0.0359723 -0.111603 0.0662312 0.0118946 -0.111269 0.0697825 -0.0125181 
-0.10984 0.0732385 -0.0370824 -0.107425 0.0765439 -0.0616139 -0.104158 0.0796397 -0.0859437 
-0.100184 0.0824644 -0.109933 -0.095641 0.0849562 -0.133484 -0.0906527 0.0870544 -0.156543 
-0.0853151 0.0887021 -0.1791 -0.0796933 0.0898487 -0.20118 -0.0738209 0.0904521 -0.222832 
-0.0677032 0.0904804 -0.244115 -0.0613247 0.0899144 -0.265078 -0.0546579 0.0887478 -0.285754 
-0.0476736 0.0869878 -0.306143 -0.0403506 0.0846547 -0.326211 -0.0326833 0.0817805 -0.34589 
-0.024687 0.0784072 -0.365088 -0.0163996 0.0745841 -0.383698 -0.00788081 0.0703657 -0.401612 
0.000791434 0.0658088 -0.418741 0.00952674 0.0609706 -0.435022 0.0182284 0.0559064 -0.450434 
0.0267995 0.0506689 -0.464996 0.0351482 0.0453075 -0.47877 0.0431908 0.0398685 -0.491847 
0.0508535 0.0343957 -0.504336 0.0580719 0.0289315 -0.516344 0.0647895 0.0235179 -0.527962 
0.0709554 0.0181972 -0.539241 0.0765218 0.0130131 -0.550189 0.0814432 0.00800982 -0.560754 
0.0856768 0.00323211 -0.570837 0.0891844 -0.00127669 -0.580295 0.0919366 -0.00547632 -0.588957 
0.0939178 -0.00933184 -0.596651 0.0951329 -0.0128159 -0.603223 0.0956117 -0.0159109 -0.608559 
0.095414 -0.0186099 -0.61261 0.0946305 -0.0209179 -0.615399 0.093382 -0.0228508 -0.617027 
0.0918143 -0.0244341 -0.617668 0.0900903 -0.0257007 -0.617551 0.0883792 -0.0266874 -0.616943 
0.086844 -0.0274311 -0.616117 0.0856287 -0.0279655 -0.615322 0.0848462 -0.028317 -0.614762 
0.0845686 -0.0285023 -0.614567 
LINES 2 100
OFFSETS vtktypeint64
0 100 
CONNECTIVITY vtktypeint64
0 1 2 3 4 5 6 7 8 
9 10 11 12 13 14 15 16 17 
18 19 20 21 22 23 24 25 26 
27 28 29 30 31 32 33 34 35 
36 37 38 39 40 41 42 43 44 
45 46 47 48 49 50 51 52 53 
54 55 56 57 58 59 60 61 62 
63 64 65 66 67 68 69 70 71 
72 73 74 75 76 77 78 79 80 
81 82 83 84 85 86 87 88 89 
90 91 92 93 94 95 96 97 98 
99 
POINT_DATA 100
FIELD FieldData 3
_theta 1 100 double
0 0.031733259127 0.063466518254 0.095199777382 0.12693303651 0.15866629564 0.19039955476 0.22213281389 0.25386607302 
0.28559933214 0.31733259127 0.3490658504 0.38079910953 0.41253236865 0.44426562778 0.47599888691 0.50773214603 0.53946540516 
0.57119866429 0.60293192342 0.63466518254 0.66639844167 0.6981317008 0.72986495992 0.76159821905 0.79333147818 0.82506473731 
0.85679799643 0.88853125556 0.92026451469 0.95199777382 0.98373103294 1.0154642921 1.0471975512 1.0789308103 1.1106640695 
1.1423973286 1.1741305877 1.2058638468 1.237597106 1.2693303651 1.3010636242 1.3327968833 1.3645301425 1.3962634016 
1.4279966607 1.4597299198 1.491463179 1.5231964381 1.5549296972 1.5866629564 1.6183962155 1.6501294746 1.6818627337 
1.7135959929 1.745329252 1.7770625111 1.8087957702 1.8405290294 1.8722622885 1.9039955476 1.9357288068 1.9674620659 
1.999195325 2.0309285841 2.0626618433 2.0943951024 2.1261283615 2.1578616206 2.1895948798 2.2213281389 2.253061398 
2.2847946572 2.3165279163 2.3482611754 2.3799944345 2.4117276937 2.4434609528 2.4751942119 2.506927471 2.5386607302 
2.5703939893 2.6021272484 2.6338605076 2.6655937667 2.6973270258 2.7290602849 2.7607935441 2.7925268032 2.8242600623 
2.8559933214 2.8877265806 2.9194598397 2.9511930988 2.982926358 3.0146596171 3.0463928762 3.0781261353 3.1098593945 
3.1415926536 
_radius 1 100 double
5.8863132269e-16 0.015613549459 0.031121168363 0.046418040747 0.061405804558 0.07599567941 0.090111184785 0.10369015129 0.116685722 
0.1290661381 0.14081330685 0.15192041536 0.16238908865 0.172226683 0.18144418592 0.19005489075 0.19807366636 0.20551642929 
0.21239945906 0.21873845253 0.22454754274 0.22983872889 0.23462214045 0.23890725652 0.24270471641 0.24602789446 0.24889323669 
0.25131865527 0.2533200249 0.25490672033 0.25607771852 0.25681971193 0.25710795285 0.25690956628 0.25618834655 0.25490990132 
0.25304638938 0.25058072368 0.24751062282 0.24385302302 0.23964902148 0.23496882549 0.22991540635 0.22462503106 0.2192628429 
0.21401236079 0.20905922566 0.20457158527 0.20068156197 0.19747310614 0.19498001615 0.19319409651 0.19207926609 0.19158538214 
0.19165658741 0.19223213107 0.19324111139 0.19459511875 0.19618364401 0.19787610432 0.1995316984 0.20101510581 0.20221376723 
0.20305205576 0.20349895246 0.20356803354 0.20331070653 0.20280500804 0.20214262382 0.20141626723 0.20070860877 0.2000831071 
0.19957670108 0.19919442023 0.19890630476 0.19864723665 0.19832012841 0.19780238586 0.19695486241 0.19563198203 0.19369161363 
0.19100366706 0.18745697716 0.18296447624 0.17746675493 0.1709339739 0.16336593797 0.1547901504 0.14525787357 0.13483856975 
0.12361345839 0.11166917227 0.099092520611 0.08596713281 0.072372302421 0.058383796637 0.044075908345 0.029523765906 0.014804972005 
5.7579414941e-16 
_area 1 100 double
0 0.00060554177932 0.0024021584936 0.0053310155927 0.0092982513481 0.014181799648 0.019841279915 0.026130164926 0.032908544886 
0.040054254877 0.047470142352 0.055085871741 0.062853841923 0.070740347764 0.078714625763 0.086739186249 0.094764193158 0.10272669636 
0.11055344501 0.11816531308 0.12548243732 0.13243077428 0.13895114184 0.14501018424 0.15060987698 0.15578967366 0.16061506688 
0.16515083079 0.16942728963 0.17341626992 0.17702889962 0.18013324249 0.1825808176 0.18423176016 0.1849723141 0.1847219174 
0.18343099091 0.18107465292 0.17764989078 0.17318200584 0.16774053796 0.16145848575 0.15454518528 0.14728405788 0.14001036402 
0.13306948989 0.12676287174 0.1212962973 0.11674972902 0.11308089592 0.11015823787 0.10780828274 0.105864323 0.10420551232 
0.10277425119 0.10156381275 0.10058297786 0.099823249905 0.09925417395 0.098839905013 0.098535324614 0.098244641921 0.097806487364 
0.09704538245 0.095836238764 0.094139475456 0.092005457707 0.089559539469 0.086976089573 0.084447877498 0.082161474765 0.080289252453 
0.079033476329 0.078638683522 0.078850920396 0.079495735374 0.080443105884 0.081537205332 0.082604155202 0.083458898453 0.083909569989 
0.083763171029 0.082836148492 0.08097148574 0.078060534567 0.074063888304 0.069023834589 0.063063495241 0.056373112353 0.049188359652 
0.041766904249 0.034368094688 0.027238123842 0.020600710291 0.014652044411 0.0095585105669 0.0054560223045 0.0024501389574 0.0006163282639 
3.3337293399e-17 
