# vtk DataFile Version 5.1
vtk output
ASCII
DATASET POLYDATA
POINTS 100 float
0.126171 0.0602209 0.711585 0.126289 0.0603613 0.711259 0.126669 0.0606074 0.710121 
0.127254 0.0609401 0.708199 0.127954 0.0613303 0.705532 0.128652 0.0617423 0.702167 
0.129224 0.062137 0.698148 0.12954 0.0624758 0.693512 0.129484 0.0627237 0.68828 
0.12896 0.0628524 0.682455 0.127897 0.0628409 0.676019 0.12626 0.0626763 0.668942 
0.12404 0.0623525 0.661182 0.12126 0.061869 0.652699 0.117962 0.0612276 0.643462 
0.114204 0.0604313 0.633459 0.110049 0.0594815 0.622705 0.105554 0.0583773 0.611246 
0.100769 0.0571157 0.599157 0.0957287 0.0556924 0.58654 0.0904502 0.0541039 0.573516 
0.0849367 0.0523499 0.560213 0.0791799 0.0504367 0.546756 0.0731656 0.0483792 0.533251 
0.0668809 0.0462024 0.519777 0.0603201 0.0439424 0.506379 0.0534907 0.0416451 0.493065 
0.0464166 0.0393635 0.479804 0.0391386 0.0371548 0.466536 0.0317132 0.0350754 0.453181 
0.0242075 0.0331767 0.439644 0.016693 0.0315009 0.425834 0.00923797 0.0300774 0.411671 
0.00189998 0.028922 0.397092 -0.00528075 0.0280362 0.382058 -0.0122855 0.0274098 0.366551 
-0.0191185 0.027024 0.350573 -0.025805 0.0268566 0.334133 -0.0323862 0.0268865 0.317247 
-0.0389107 0.0270993 0.299919 -0.0454253 0.0274906 0.282139 -0.0519634 0.0280685 0.263879 
-0.0585353 0.0288535 0.245088 -0.0651197 0.0298766 0.225701 -0.0716587 0.031175 0.205642 
-0.0780562 0.0327864 0.184839 -0.0841811 0.0347427 0.163233 -0.0898751 0.0370631 0.140792 
-0.094963 0.0397486 0.117522 -0.0992671 0.0427784 0.0934701 -0.102622 0.0461079 0.0687285 
-0.104888 0.0496705 0.0434273 -0.105967 0.0533803 0.0177258 -0.105806 0.0571394 -0.0082015 
-0.10441 0.0608443 -0.0341817 -0.101835 0.0643948 -0.0600598 -0.0981844 0.0677013 -0.0857136 
-0.0936018 0.0706914 -0.111064 -0.0882554 0.0733141 -0.136078 -0.0823232 0.0755411 -0.160769 
-0.0759769 0.0773652 -0.185189 -0.0693676 0.0787961 -0.209409 -0.0626135 0.079854 -0.233507 
-0.0557928 0.0805622 -0.257549 -0.0489402 0.0809386 -0.281567 -0.0420495 0.0809895 -0.305551 
-0.0350807 0.0807042 -0.329437 -0.0279709 0.0800525 -0.353108 -0.0206483 0.078986 -0.376406 
-0.0130462 0.0774419 -0.39914 -0.00511796 0.0753491 -0.421106 0.00315202 0.0726377 -0.442115 
0.0117397 0.0692481 -0.462008 0.0205781 0.0651403 -0.480676 0.0295588 0.0603021 -0.498074 
0.0385381 0.0547543 -0.514225 0.047348 0.0485534 -0.529215 0.0558094 0.0417901 -0.543179 
0.0637475 0.034585 -0.556286 0.0710067 0.0270813 -0.568711 0.0774644 0.019435 -0.580615 
0.0830407 0.0118044 -0.592116 0.0877049 0.00433972 -0.603278 0.0914765 -0.00282596 -0.614096 
0.0944217 -0.00958415 -0.624499 0.0966455 -0.015855 -0.634357 0.09828 -0.0215887 -0.643499 
0.0994714 -0.0267638 -0.651739 0.100365 -0.0313833 -0.658899 0.101092 -0.0354688 -0.664842 
0.101759 -0.0390536 -0.669486 0.102441 -0.0421765 -0.672831 0.103175 -0.0448756 -0.674957 
0.103964 -0.0471842 -0.676022 0.104781 -0.0491281 -0.676251 0.105575 -0.0507246 -0.675907 
0.106284 -0.0519838 -0.675269 0.106845 -0.0529097 -0.674594 0.107204 -0.0535029 -0.674093 
0.107326 -0.0537629 -0.673901 
LINES 2 100
OFFSETS vtktypeint64
0 100 
CONNECTIVITY vtktypeint64
0 1 2 3 4 5 6 7 8 
9 10 11 12 13 14 15 16 17 
18 19 20 21 22 23 24 25 26 
27 28 29 30 31 32 33 34 35 
36 37 38 39 40 41 42 43 44 
45 46 47 48 49 50 51 52 53 
54 55 56 57 58 59 60 61 62 
63 64 65 66 67 68 69 70 71 
72 73 74 75 76 77 78 79 80 
81 82 83 84 85 86 87 88 89 
90 91 92 93 94 95 96 97 98 
99 
POINT_DATA 100
FIELD FieldData 3
_theta 1 100 double
0 0.031733259127 0.063466518254 0.095199777382 0.12693303651 0.15866629564 0.19039955476 0.22213281389 0.25386607302 
0.28559933214 0.31733259127 0.3490658504 0.38079910953 0.41253236865 0.44426562778 0.47599888691 0.50773214603 0.53946540516 
0.57119866429 0.60293192342 0.63466518254 0.66639844167 0.6981317008 0.72986495992 0.76159821905 0.79333147818 0.82506473731 
0.85679799643 0.88853125556 0.92026451469 0.95199777382 0.98373103294 1.0154642921 1.0471975512 1.0789308103 1.1106640695 
1.1423973286 1.1741305877 1.2058638468 1.237597106 1.2693303651 1.3010636242 1.3327968833 1.3645301425 1.3962634016 
1.4279966607 1.4597299198 1.491463179 1.5231964381 1.5549296972 1.5866629564 1.6183962155 1.6501294746 1.6818627337 
1.7135959929 1.745329252 1.7770625111 1.8087957702 1.8405290294 1.8722622885 1.9039955476 1.9357288068 1.9674620659 
1.999195325 2.0309285841 2.0626618433 2.0943951024 2.1261283615 2.1578616206 2.1895948798 2.2213281389 2.253061398 
2.2847946572 2.3165279163 2.3482611754 2.3799944345 2.4117276937 2.4434609528 2.4751942119 2.506927471 2.5386607302 
2.5703939893 2.6021272484 2.6338605076 2.6655937667 2.6973270258 2.7290602849 2.7607935441 2.7925268032 2.8242600623 
2.8559933214 2.8877265806 2.9194598397 2.9511930988 2.982926358 3.0146596171 3.0463928762 3.0781261353 3.1098593945 
3.1415926536 
_radius 1 100 double
1.003264241e-15 0.014029330958 0.028036977992 0.041987499027 0.055836846256 0.069529195083 0.082995337084 0.0961536039 0.10891368511 
0.12118280893 0.13287305154 0.14390833946 0.15423001702 0.1638004342 0.17260455385 0.18064984711 0.18796469954 0.19459533843 
0.20060114717 0.20604834076 0.21100237829 0.21552006196 0.21964276872 0.22339240776 0.22677131784 0.22976643214 0.23235688811 
0.23452324788 0.23625600401 0.23756125166 0.2384622166 0.23899644281 0.23920950271 0.23914677874 0.23884503302 0.23832524894 
0.2375879009 0.2366115694 0.23535549474 0.23376599813 0.23178586421 0.22936525527 0.22647269909 0.22310489746 0.21929423822 
0.2151129157 0.21067264759 0.2061193363 0.2016227457 0.19736222322 0.19351041124 0.19021743913 0.1875979731 0.1857225292 
0.18461284681 0.1842397934 0.18452243048 0.18532883267 0.18648163504 0.18777179186 0.1889814372 0.18991230946 0.19041301946 
0.19039869066 0.18985951863 0.18885825162 0.18751869966 0.1860077945 0.18451340719 0.18322024129 0.18228664779 0.18182523736 
0.18188928023 0.1824656804 0.18347454322 0.18477506787 0.18617723851 0.18745831541 0.18838252442 0.1887217455 0.18827456376 
0.18688100908 0.18443087177 0.18086462609 0.17616745986 0.17035829986 0.16347665954 0.1555703731 0.14668677618 0.13686879394 
0.1261559923 0.11458931137 0.10221731199 0.08910159231 0.075319605387 0.06096419978 0.046140409551 0.03096090789 0.015541800856 
7.5165362862e-16 
_area 1 100 double
0 0.00057002408959 0.0022692023271 0.0050650140721 0.0089034232069 0.013708293435 0.019380181454 0.025795854312 0.032810622929 
0.040264934813 0.047994711268 0.055842786742 0.063667998784 0.071349725643 0.078788333763 0.085904436523 0.092640450552 0.098966002574 
0.10488510608 0.11043983559 0.11570492899 0.12077148534 0.12572405568 0.1306197198 0.13547648805 0.14027232821 0.14495056085 
0.14942706455 0.15359884459 0.15735657998 0.16060259301 0.16327238827 0.16535254275 0.16687340047 0.16787670019 0.16835478923 
0.16822449026 0.16741774638 0.16575771707 0.16310798861 0.15941232856 0.15472379248 0.1492343615 0.14323277332 0.13733685634 
0.13183577593 0.12643817517 0.12123144455 0.11632263519 0.11176904633 0.10757713875 0.10372797556 0.10020934581 0.097042526247 
0.094305416007 0.092131061332 0.090639567336 0.08983355533 0.089572465106 0.089616484059 0.08968621487 0.089536236588 0.089011526156 
0.088052084769 0.086659993694 0.084875577986 0.082788331166 0.080560714314 0.078429345301 0.076672880587 0.075555432024 0.075266046272 
0.075885373067 0.077390325927 0.079617384379 0.082225078656 0.084861631902 0.087234898072 0.089095471672 0.090233745457 0.090486402574 
0.089743442571 0.087951038094 0.085107729519 0.081254401402 0.076462307953 0.070825269219 0.064459263211 0.057506960421 0.050141663972 
0.042566592152 0.035008552126 0.027706888467 0.020899037706 0.014804380709 0.0096090218325 0.0054550685905 0.0024377170425 0.00061110567447 
3.0465660807e-17 
