# vtk DataFile Version 5.1
vtk output
ASCII
DATASET POLYDATA
POINTS 100 float
0.1084 0.0466671 0.731092 0.108687 0.0469043 0.730864 0.109609 0.0474373 0.729991 
0.111079 0.0482304 0.728483 0.112956 0.0492291 0.726354 0.115065 0.0503649 0.723617 
0.11721 0.0515617 0.720278 0.119192 0.0527428 0.716331 0.120829 0.0538373 0.711753 
0.121968 0.0547857 0.706505 0.122497 0.0555443 0.700534 0.122349 0.0560875 0.693779 
0.121498 0.0564077 0.686178 0.119963 0.0565139 0.677679 0.117789 0.0564279 0.668252 
0.11504 0.0561799 0.657892 0.111787 0.0558026 0.646634 0.108095 0.0553269 0.634548 
0.104015 0.0547767 0.621742 0.0995813 0.0541662 0.608349 0.0948078 0.0534985 0.594525 
0.0896921 0.0527663 0.580426 0.0842218 0.0519543 0.566201 0.0783823 0.0510432 0.551971 
0.0721656 0.0500151 0.537822 0.0655771 0.0488581 0.523794 0.0586411 0.0475722 0.509876 
0.0514031 0.0461728 0.496014 0.0439275 0.0446928 0.482115 0.0362933 0.0431832 0.468056 
0.0285863 0.0417101 0.453705 0.0208903 0.040351 0.43893 0.0132778 0.0391886 0.423617 
0.00580306 0.0383026 0.407677 -0.00150369 0.0377629 0.39106 -0.00863694 0.0376218 0.373747 
-0.0156137 0.0379079 0.355758 -0.0224672 0.0386229 0.337135 -0.0292379 0.0397395 0.317937 
-0.0359623 0.0412041 0.298227 -0.0426628 0.0429405 0.278061 -0.0493371 0.0448572 0.257478 
-0.0559524 0.0468562 0.236494 -0.0624421 0.0488422 0.215105 -0.0687077 0.0507321 0.193285 
-0.074625 0.052463 0.170998 -0.080054 0.0539985 0.148205 -0.0848515 0.0553313 0.124877 
-0.0888848 0.0564834 0.101006 -0.0920447 0.0575026 0.076612 -0.0942565 0.0584564 0.0517473 
-0.0954867 0.0594231 0.0264973 -0.0957462 0.0604824 0.000974927 -0.0950878 0.0617046 -0.0246887 
-0.0935995 0.0631419 -0.050356 -0.0913944 0.0648209 -0.0758964 -0.0885981 0.0667381 -0.101198 
-0.0853352 0.068858 -0.12618 -0.0817175 0.0711157 -0.150793 -0.0778334 0.0734215 -0.175025 
-0.0737424 0.0756685 -0.198896 -0.0694726 0.0777419 -0.222444 -0.0650227 0.0795285 -0.245718 
-0.060368 0.0809258 -0.268762 -0.0554688 0.0818499 -0.291603 -0.0502806 0.0822404 -0.314236 
-0.0447637 0.0820631 -0.336624 -0.0388922 0.0813097 -0.358693 -0.0326598 0.0799939 -0.380341 
-0.0260837 0.0781472 -0.401446 -0.0192036 0.0758113 -0.421881 -0.0120791 0.0730323 -0.441531 
-0.00478446 0.0698539 -0.46031 0.00259864 0.0663132 -0.47817 0.00998745 0.0624386 -0.495112 
0.0173042 0.0582498 -0.511187 0.0244803 0.0537608 -0.526487 0.031458 0.0489845 -0.541136 
0.0381898 0.0439388 -0.55527 0.0446359 0.0386531 -0.569017 0.0507602 0.0331736 -0.582476 
0.0565261 0.0275671 -0.595699 0.0618925 0.0219226 -0.608679 0.0668121 0.016349 -0.621343 
0.0712311 0.0109703 -0.633556 0.0750924 0.00591758 -0.645138 0.0783405 0.00131919 -0.655874 
0.0809288 -0.00271074 -0.665549 0.0828277 -0.00608301 -0.673969 0.084032 -0.0087429 -0.680988 
0.0845678 -0.0106769 -0.686531 0.0844955 -0.0119158 -0.690606 0.0839102 -0.0125333 -0.69331 
0.0829375 -0.0126407 -0.694821 0.0817258 -0.0123769 -0.695381 0.0804354 -0.0118962 -0.695275 
0.0792248 -0.0113531 -0.694798 0.0782373 -0.0108876 -0.694222 0.0775869 -0.0106114 -0.69377 
0.0773483 -0.0105964 -0.693585 
LINES 2 100
OFFSETS vtktypeint64
0 100 
CONNECTIVITY vtktypeint64
0 1 2 3 4 5 6 7 8 
9 10 11 12 13 14 15 16 17 
18 19 20 21 22 23 24 25 26 
27 28 29 30 31 32 33 34 35 
36 37 38 39 40 41 42 43 44 
45 46 47 48 49 50 51 52 53 
54 55 56 57 58 59 60 61 62 
63 64 65 66 67 68 69 70 71 
72 73 74 75 76 77 78 79 80 
81 82 83 84 85 86 87 88 89 
90 91 92 93 94 95 96 97 98 
99 
POINT_DATA 100
FIELD FieldData 3
_theta 1 100 double
0 0.031733259127 0.063466518254 0.095199777382 0.12693303651 0.15866629564 0.19039955476 0.22213281389 0.25386607302 
0.28559933214 0.31733259127 0.3490658504 0.38079910953 0.41253236865 0.44426562778 0.47599888691 0.50773214603 0.53946540516 
0.57119866429 0.60293192342 0.63466518254 0.66639844167 0.6981317008 0.72986495992 0.76159821905 0.79333147818 0.82506473731 
0.85679799643 0.88853125556 0.92026451469 0.95199777382 0.98373103294 1.0154642921 1.0471975512 1.0789308103 1.1106640695 
1.1423973286 1.1741305877 1.2058638468 1.237597106 1.2693303651 1.3010636242 1.3327968833 1.3645301425 1.3962634016 
1.4279966607 1.4597299198 1.491463179 1.5231964381 1.5549296972 1.5866629564 1.6183962155 1.6501294746 1.6818627337 
1.7135959929 1.745329252 1.7770625111 1.8087957702 1.8405290294 1.8722622885 1.9039955476 1.9357288068 1.9674620659 
1.999195325 2.0309285841 2.0626618433 2.0943951024 2.1261283615 2.1578616206 2.1895948798 2.2213281389 2.253061398 
2.2847946572 2.3165279163 2.3482611754 2.3799944345 2.4117276937 2.4434609528 2.4751942119 2.506927471 2.5386607302 
2.5703939893 2.6021272484 2.6338605076 2.6655937667 2.6973270258 2.7290602849 2.7607935441 2.7925268032 2.8242600623 
2.8559933214 2.8877265806 2.9194598397 2.9511930988 2.982926358 3.0146596171 3.0463928762 3.0781261353 3.1098593945 
3.1415926536 
_radius 1 100 double
2.6156961076e-16 0.014873337106 0.029638828359 0.044184003499 0.058404316717 0.072206774317 0.085512849033 0.098260684907 0.11040653969 
0.12192524145 0.13280930191 0.14306638882 0.15271517813 0.16178009991 0.17028595464 0.17825357297 0.18569748195 0.1926259662 
0.19904319178 0.20495247862 0.21035958831 0.21527510722 0.21971555198 0.22370345494 0.22726708698 0.2304403984 0.23326318215 
0.23578064651 0.23804099073 0.24008970683 0.24196048226 0.24366451831 0.24518179942 0.24645802034 0.24740906556 0.24793223921 
0.24792149446 0.24728343723 0.24595150204 0.24389669453 0.24113417927 0.23772559864 0.23377734392 0.22943511499 0.22487506302 
0.22029173967 0.21588320732 0.21183425351 0.2082996861 0.20539060783 0.20316647155 0.20163420014 0.2007534512 0.20044556118 
0.20060359107 0.20110195947 0.20180554951 0.20257909022 0.20329756391 0.2038574131 0.20418697403 0.20425366188 0.20406557878 
0.20366645076 0.20312464971 0.20251879925 0.201923403 0.20139761059 0.20097867671 0.20067953933 0.2004883729 0.20036795627 
0.20025436252 0.2000567884 0.19966161953 0.19894294429 0.19777898204 0.19607075689 0.19375744006 0.19082306523 0.1872918815 
0.18321352821 0.17864269239 0.17361924787 0.16815376198 0.16222082656 0.15576035877 0.14868557131 0.14089568276 0.13229116941 
0.12278909085 0.11233587134 0.10091538241 0.088551489122 0.075305887308 0.061273159664 0.046575003631 0.031354774013 0.015772504719 
9.9375400365e-16 
_area 1 100 double
0 0.00060181836654 0.0023899024994 0.0053131537851 0.0092895668499 0.014210428789 0.019945563591 0.026349502731 0.033268576672 
0.040548878887 0.048044849616 0.055627705235 0.063192126949 0.070659161431 0.077974014325 0.085099291696 0.09200605903 0.098665721781 
0.10504551911 0.11111059693 0.1168356448 0.12222544661 0.12733466349 0.13226831306 0.13714825908 0.14205824103 0.14700881214 
0.15194694309 0.15679250522 0.16147291341 0.16594029628 0.17016618701 0.17411652947 0.17771811737 0.18083287975 0.18325485201 
0.18473613754 0.18503603435 0.18397766013 0.18149399253 0.17765035868 0.17263899931 0.16674944669 0.16032395663 0.15370927881 
0.14721484676 0.14108412194 0.13548186037 0.13049686976 0.12615753296 0.12245429842 0.11935780196 0.11681711338 0.11474868493 
0.11304634546 0.1115896854 0.11025766536 0.10892149816 0.10743891813 0.10573896817 0.10383108616 0.10182889924 0.09976897351 
0.097743382003 0.09583839098 0.094094549989 0.09249551884 0.090997746648 0.089578862305 0.088277019986 0.08720009826 0.086479547282 
0.086175355546 0.086221441168 0.086463749353 0.086718507369 0.086812607861 0.08661381637 0.086045417347 0.085078006243 0.08369946955 
0.081881529869 0.079571307661 0.076711537701 0.073263706844 0.069216512418 0.064583361597 0.059399175464 0.053721599118 0.047635253699 
0.04125523998 0.034726628982 0.028218682701 0.021916499372 0.016016038255 0.010725513247 0.0062670633309 0.0028671466376 0.00072991565485 
3.1293369535e-17 
