# vtk DataFile Version 5.1
vtk output
ASCII
DATASET POLYDATA
POINTS 100 float
0.119946 0.072787 0.713109 0.119904 0.0729797 0.712997 0.119883 0.0733716 0.712476 
0.11986 0.073926 0.711516 0.1198 0.0745877 0.710075 0.119658 0.0752895 0.708098 
0.119388 0.0759613 0.705523 0.118949 0.076538 0.702283 0.118306 0.0769669 0.698315 
0.117441 0.0772129 0.693566 0.116346 0.0772603 0.687992 0.115027 0.0771117 0.681568 
0.113501 0.076784 0.674286 0.111787 0.0763022 0.666159 0.109904 0.0756917 0.657222 
0.107864 0.0749714 0.647524 0.105665 0.074148 0.637131 0.103288 0.0732127 0.626122 
0.100698 0.0721408 0.614579 0.0978436 0.0708953 0.602587 0.094661 0.0694328 0.590225 
0.0910821 0.0677119 0.577567 0.0870407 0.0657027 0.564671 0.0824811 0.0633948 0.551584 
0.0773652 0.0608044 0.538333 0.0716778 0.0579777 0.524932 0.0654297 0.0549905 0.51138 
0.0586575 0.0519437 0.497659 0.0514204 0.0489547 0.483744 0.0437943 0.0461464 0.4696 
0.0358637 0.0436347 0.45519 0.0277134 0.0415158 0.440471 0.0194197 0.0398562 0.425402 
0.0110435 0.0386854 0.409943 0.00262615 0.0379936 0.394058 -0.0058123 0.037734 0.377711 
-0.0142704 0.0378304 0.360872 -0.0227601 0.0381878 0.343511 -0.0312983 0.0387066 0.325602 
-0.0398974 0.0392961 0.307122 -0.0485552 0.0398884 0.288049 -0.0572458 0.0404472 0.268368 
-0.0659128 0.0409741 0.248067 -0.0744665 0.0415082 0.227146 -0.0827842 0.0421204 0.205609 
-0.0907154 0.0429039 0.183476 -0.0980902 0.0439599 0.160778 -0.104731 0.0453824 0.137561 
-0.110467 0.0472429 0.113883 -0.115146 0.049578 0.0898167 -0.118648 0.0523804 0.0654422 
-0.120896 0.0555958 0.0408474 -0.12186 0.0591255 0.0161219 -0.121563 0.0628342 -0.00864716 
-0.120074 0.066563 -0.0333795 -0.117502 0.0701448 -0.0580059 -0.113989 0.0734208 -0.0824714 
-0.109696 0.0762557 -0.106737 -0.104786 0.0785502 -0.13078 -0.0994163 0.0802483 -0.154592 
-0.0937257 0.0813388 -0.178177 -0.0878251 0.0818525 -0.201549 -0.0817941 0.0818524 -0.224723 
-0.0756801 0.0814218 -0.247712 -0.0695015 0.0806496 -0.270523 -0.063253 0.079616 -0.293151 
-0.0569141 0.0783804 -0.315578 -0.050458 0.0769725 -0.337768 -0.0438607 0.0753894 -0.35967 
-0.0371089 0.0735965 -0.381219 -0.030206 0.0715347 -0.402338 -0.0231757 0.0691309 -0.422945 
-0.0160626 0.0663112 -0.442954 -0.00893067 0.0630137 -0.462286 -0.00185927 0.0592013 -0.480866 
0.00506217 0.0548703 -0.498635 0.0117405 0.0500543 -0.515548 0.018085 0.0448244 -0.531577 
0.0240134 0.0392828 -0.54671 0.0294563 0.0335539 -0.560953 0.0343605 0.0277709 -0.574323 
0.0386907 0.022063 -0.586848 0.0424299 0.0165422 -0.598562 0.0455781 0.0112937 -0.609503 
0.048151 0.00636927 -0.619707 0.0501772 0.00178626 -0.629206 0.0516962 -0.00246927 -0.638029 
0.0527557 -0.00643488 -0.646196 0.0534094 -0.0101611 -0.653722 0.0537154 -0.0136992 -0.660615 
0.0537348 -0.0170899 -0.666876 0.0535298 -0.0203535 -0.672505 0.053163 -0.0234834 -0.677496 
0.0526956 -0.0264451 -0.681842 0.0521862 -0.0291781 -0.685537 0.0516886 -0.0316035 -0.688573 
0.0512504 -0.0336334 -0.690944 0.0509109 -0.035183 -0.692644 0.0506996 -0.0361815 -0.693668 
0.0506344 -0.0365819 -0.694013 
LINES 2 100
OFFSETS vtktypeint64
0 100 
CONNECTIVITY vtktypeint64
0 1 2 3 4 5 6 7 8 
9 10 11 12 13 14 15 16 17 
18 19 20 21 22 23 24 25 26 
27 28 29 30 31 32 33 34 35 
36 37 38 39 40 41 42 43 44 
45 46 47 48 49 50 51 52 53 
54 55 56 57 58 59 60 61 62 
63 64 65 66 67 68 69 70 71 
72 73 74 75 76 77 78 79 80 
81 82 83 84 85 86 87 88 89 
90 91 92 93 94 95 96 97 98 
99 
POINT_DATA 100
FIELD FieldData 3
_theta 1 100 double
0 0.031733259127 0.063466518254 0.095199777382 0.12693303651 0.15866629564 0.19039955476 0.22213281389 0.25386607302 
0.28559933214 0.31733259127 0.3490658504 0.38079910953 0.41253236865 0.44426562778 0.47599888691 0.50773214603 0.53946540516 
0.57119866429 0.60293192342 0.63466518254 0.66639844167 0.6981317008 0.72986495992 0.76159821905 0.79333147818 0.82506473731 
0.85679799643 0.88853125556 0.92026451469 0.95199777382 0.98373103294 1.0154642921 1.0471975512 1.0789308103 1.1106640695 
1.1423973286 1.1741305877 1.2058638468 1.237597106 1.2693303651 1.3010636242 1.3327968833 1.3645301425 1.3962634016 
1.4279966607 1.4597299198 1.491463179 1.5231964381 1.5549296972 1.5866629564 1.6183962155 1.6501294746 1.6818627337 
1.7135959929 1.745329252 1.7770625111 1.8087957702 1.8405290294 1.8722622885 1.9039955476 1.9357288068 1.9674620659 
1.999195325 2.0309285841 2.0626618433 2.0943951024 2.1261283615 2.1578616206 2.1895948798 2.2213281389 2.253061398 
2.2847946572 2.3165279163 2.3482611754 2.3799944345 2.4117276937 2.4434609528 2.4751942119 2.506927471 2.5386607302 
2.5703939893 2.6021272484 2.6338605076 2.6655937667 2.6973270258 2.7290602849 2.7607935441 2.7925268032 2.8242600623 
2.8559933214 2.8877265806 2.9194598397 2.9511930988 2.982926358 3.0146596171 3.0463928762 3.0781261353 3.1098593945 
3.1415926536 
_radius 1 100 double
6.2450045135e-16 0.014827891141 0.029484783008 0.043807420993 0.057658927314 0.070937605411 0.083581199136 0.095566378334 0.10690388411 
0.11763023519 0.12779716329 0.1374600829 0.14666697873 0.15544910794 0.16381478587 0.17174718521 0.17920653908 0.18613649961 
0.19247379622 0.19815986374 0.20315280877 0.20743795325 0.21103524376 0.21400207862 0.21643061647 0.21843937922 0.22015987434 
0.22171988993 0.22322585295 0.22474697338 0.22630372095 0.22786256334 0.22933799055 0.23060179607 0.23149851 0.23186495844 
0.23155135039 0.23044117929 0.22846754358 0.22562410934 0.22196969177 0.2176261661 0.21277002511 0.20761834363 0.20241025508 
0.19738544417 0.19276174624 0.18871464674 0.18536192013 0.18275630962 0.18088773344 0.17969425642 0.17907878739 0.17892714173 
0.1791233326 0.17955953043 0.18014028353 0.1807825053 0.18141382522 0.18197181421 0.18240536533 0.18267780699 0.18277013914 
0.18268267093 0.18243410358 0.1820581355 0.18159843341 0.18110307083 0.18061932533 0.1801892676 0.179846129 0.17961120108 
0.17949106987 0.17947522729 0.17953430823 0.1796191825 0.1796609004 0.17957127051 0.17924387805 0.1785556723 0.17736968122 
0.17553968353 0.17291758497 0.16936372422 0.16475943822 0.15902020364 0.15210694332 0.1440329939 0.13486486119 0.12471606409 
0.11373476726 0.10208720251 0.089939796058 0.077443225883 0.064721183949 0.051865428057 0.038937046025 0.025972254422 0.012990147232 
6.9749476675e-16 
_area 1 100 double
0 0.00058071770246 0.0022973528388 0.00507713329 0.008810354254 0.013364591948 0.018599632875 0.024380574261 0.030587690152 
0.037122397171 0.043908698808 0.050889577318 0.058018827499 0.065250360753 0.072527709299 0.079776051662 0.086898355366 0.09377659618 
0.10027854341 0.1062704401 0.11163553781 0.1162967938 0.12023920929 0.12352510539 0.1262956792 0.1287543088 0.13113074793 
0.13363192314 0.13639471255 0.13945918534 0.14276783301 0.14618111636 0.14949848321 0.15248014034 0.15486850517 0.15640949195 
0.15687457335 0.15608458429 0.1539346783 0.15041717213 0.14563686827 0.13981324657 0.13326573144 0.12638116772 0.11956635223 
0.11319372317 0.10755372311 0.10282618956 0.099072296047 0.096239601915 0.094176503438 0.092662179251 0.091455498637 0.09034015941 
0.089200080345 0.088118955746 0.087165456797 0.086307056098 0.085513153825 0.084721128664 0.083836415878 0.082771382541 0.081478691603 
0.079959751004 0.078255513852 0.076432660593 0.074573275598 0.07276967458 0.071122623774 0.069726115618 0.068629687573 0.067854798751 
0.067479112576 0.06757672107 0.068189198937 0.069241718125 0.070626528385 0.072225890977 0.073897585596 0.075457771227 0.076674347001 
0.077278931168 0.076999436173 0.075605170374 0.072950298838 0.06900308238 0.06385432204 0.057704904724 0.050837254262 0.043578049599 
0.036259800323 0.029187499186 0.022614593835 0.016730580969 0.01166064814 0.0074756722344 0.0042085746119 0.0018714092321 0.00046800499677 
2.4729971448e-17 
