# vtk DataFile Version 5.1
vtk output
ASCII
DATASET POLYDATA
POINTS 100 float
0.107612 0.0296463 0.700821 0.107581 0.0298972 0.700348 0.107558 0.0305156 0.698743 
0.107522 0.0314717 0.696066 0.107439 0.0327194 0.692412 0.107269 0.0341996 0.687899 
0.106968 0.0358451 0.682649 0.106492 0.0375851 0.676778 0.105804 0.0393498 0.670383 
0.104877 0.0410748 0.663531 0.103694 0.0427034 0.656255 0.10225 0.0441886 0.648556 
0.100549 0.0454935 0.64041 0.0986041 0.0465902 0.631778 0.096429 0.0474581 0.622619 
0.0940388 0.0480825 0.6129 0.0914437 0.0484513 0.602612 0.0886463 0.0485545 0.591771 
0.0856408 0.0483825 0.580422 0.082412 0.0479266 0.568638 0.0789378 0.0471802 0.556507 
0.0751913 0.046141 0.544124 0.0711451 0.0448139 0.531573 0.0667754 0.0432141 0.518916 
0.0620658 0.0413697 0.506184 0.0570102 0.0393244 0.493365 0.0516147 0.0371377 0.48041 
0.0458973 0.0348847 0.467235 0.0398864 0.0326538 0.453732 0.033617 0.0305422 0.439788 
0.0271273 0.0286511 0.425298 0.0204533 0.0270792 0.410184 0.0136248 0.025916 0.394408 
0.00666232 0.0252357 0.377982 -0.00042486 0.0250914 0.360964 -0.00763783 0.025512 0.343456 
-0.0149855 0.0264996 0.325591 -0.02248 0.0280303 0.307511 -0.0301299 0.0300563 0.289348 
-0.0379336 0.0325105 0.271202 -0.0458719 0.0353125 0.253123 -0.0539019 0.0383749 0.235098 
-0.0619527 0.0416106 0.217048 -0.0699238 0.0449387 0.198831 -0.0776864 0.0482904 0.180259 
-0.0850878 0.0516118 0.161114 -0.0919589 0.0548658 0.141177 -0.0981239 0.0580318 0.120257 
-0.103411 0.0611031 0.0982154 -0.107666 0.064083 0.0749859 -0.110759 0.0669803 0.0505891 
-0.112597 0.0698038 0.0251347 -0.11313 0.0725572 -0.00118543 -0.112352 0.0752355 -0.0281146 
-0.110302 0.0778215 -0.0553554 -0.107057 0.0802852 -0.0825986 -0.102731 0.0825842 -0.109553 
-0.0974579 0.0846656 -0.135972 -0.0913876 0.0864696 -0.161675 -0.0846703 0.087934 -0.186559 
-0.0774485 0.0889985 -0.210599 -0.0698483 0.0896092 -0.233845 -0.0619737 0.0897227 -0.256398 
-0.053903 0.089308 -0.278392 -0.0456893 0.0883483 -0.299966 -0.0373628 0.0868405 -0.321242 
-0.0289358 0.0847936 -0.342299 -0.0204087 0.0822267 -0.363161 -0.0117777 0.0791651 -0.383793 
-0.00304088 0.0756373 -0.404101 0.00579527 0.0716722 -0.423948 0.0147116 0.0672967 -0.443171 
0.0236738 0.0625344 -0.461603 0.0326314 0.057406 -0.479094 0.04152 0.0519303 -0.495536 
0.0502637 0.0461271 -0.51087 0.0587796 0.0400198 -0.525098 0.0669831 0.0336391 -0.538276 
0.0747929 0.0270263 -0.550504 0.082136 0.0202353 -0.56191 0.0889515 0.0133345 -0.572628 
0.0951938 0.00640584 -0.582777 0.100834 -0.000456732 -0.592439 0.105862 -0.00715086 -0.601649 
0.110281 -0.0135709 -0.610386 0.114112 -0.0196137 -0.61858 0.117386 -0.0251856 -0.626118 
0.120146 -0.0302079 -0.632868 0.122439 -0.0346234 -0.638695 0.124316 -0.0383997 -0.643491 
0.125831 -0.0415319 -0.647195 0.127034 -0.0440426 -0.649804 0.127974 -0.0459797 -0.651389 
0.128695 -0.0474117 -0.652085 0.129235 -0.0484219 -0.652086 0.129627 -0.0491007 -0.651623 
0.129901 -0.0495368 -0.650938 0.130075 -0.04981 -0.650259 0.130167 -0.049983 -0.649771 
0.130186 -0.0500958 -0.649593 
LINES 2 100
OFFSETS vtktypeint64
0 100 
CONNECTIVITY vtktypeint64
0 1 2 3 4 5 6 7 8 
9 10 11 12 13 14 15 16 17 
18 19 20 21 22 23 24 25 26 
27 28 29 30 31 32 33 34 35 
36 37 38 39 40 41 42 43 44 
45 46 47 48 49 50 51 52 53 
54 55 56 57 58 59 60 61 62 
63 64 65 66 67 68 69 70 71 
72 73 74 75 76 77 78 79 80 
81 82 83 84 85 86 87 88 89 
90 91 92 93 94 95 96 97 98 
99 
POINT_DATA 100
FIELD FieldData 3
_theta 1 100 double
0 0.031733259127 0.063466518254 0.095199777382 0.12693303651 0.15866629564 0.19039955476 0.22213281389 0.25386607302 
0.28559933214 0.31733259127 0.3490658504 0.38079910953 0.41253236865 0.44426562778 0.47599888691 0.50773214603 0.53946540516 
0.57119866429 0.60293192342 0.63466518254 0.66639844167 0.6981317008 0.72986495992 0.76159821905 0.79333147818 0.82506473731 
0.85679799643 0.88853125556 0.92026451469 0.95199777382 0.98373103294 1.0154642921 1.0471975512 1.0789308103 1.1106640695 
1.1423973286 1.1741305877 1.2058638468 1.237597106 1.2693303651 1.3010636242 1.3327968833 1.3645301425 1.3962634016 
1.4279966607 1.4597299198 1.491463179 1.5231964381 1.5549296972 1.5866629564 1.6183962155 1.6501294746 1.6818627337 
1.7135959929 1.745329252 1.7770625111 1.8087957702 1.8405290294 1.8722622885 1.9039955476 1.9357288068 1.9674620659 
1.999195325 2.0309285841 2.0626618433 2.0943951024 2.1261283615 2.1578616206 2.1895948798 2.2213281389 2.253061398 
2.2847946572 2.3165279163 2.3482611754 2.3799944345 2.4117276937 2.4434609528 2.4751942119 2.506927471 2.5386607302 
2.5703939893 2.6021272484 2.6338605076 2.6655937667 2.6973270258 2.7290602849 2.7607935441 2.7925268032 2.8242600623 
2.8559933214 2.8877265806 2.9194598397 2.9511930988 2.982926358 3.0146596171 3.0463928762 3.0781261353 3.1098593945 
3.1415926536 
_radius 1 100 double
4.4981215826e-16 0.014730599912 0.029365771788 0.043806415675 0.057957028341 0.071728798326 0.085043327191 0.097836494909 0.11006173082 
0.12169191434 0.13271936195 0.14315381417 0.15301886484 0.16234763774 0.17117849796 0.179551164 0.18750301824 0.1950651144 
0.20225763133 0.20908523986 0.21553361749 0.22156867779 0.2271397221 0.23218676414 0.23665107881 0.24048701766 0.24367266494 
0.24621712717 0.24816304022 0.24958389572 0.25057664045 0.2512504934 0.25171316244 0.25205588126 0.25233904958 0.25258061449 
0.25274940849 0.25276525207 0.25250671659 0.25182618436 0.25057049276 0.24860428075 0.24583241561 0.24221777929 0.2377914139 
0.23265363704 0.22696698067 0.22094379404 0.2148317723 0.20889903222 0.20341806038 0.19864709277 0.19480885862 0.19206868392 
0.19051490651 0.19014419768 0.19085433447 0.19244817905 0.19465274035 0.1971531717 0.19963527256 0.20182676162 0.20352906021 
0.20463514586 0.20513268527 0.20509423206 0.20465773644 0.20400108945 0.20331419257 0.20277158455 0.20250835478 0.20260191058 
0.2030617795 0.20382865204 0.20478232999 0.2057566756 0.20655868035 0.20698860138 0.20685852993 0.20600743082 0.2043113882 
0.20168840727 0.19809767166 0.19353371571 0.18801657353 0.18157954565 0.17425663671 0.16607182474 0.15703206185 0.14712530354 
0.13632401928 0.1245936826 0.11190482824 0.098246567091 0.083639129196 0.068143170058 0.051864215722 0.034951585679 0.017592145214 
1.3107564631e-15 
_area 1 100 double
0 0.00061609648627 0.00244615415 0.0054348107155 0.0094887961836 0.014478942069 0.020247690004 0.026622794311 0.03343510605 
0.040536184771 0.047811149884 0.055183931425 0.062615086796 0.070094966423 0.077635641245 0.085263203578 0.093009041596 0.1008969493 
0.10892486677 0.11704532435 0.12515277498 0.13308479462 0.14063917695 0.14760417734 0.15379573785 0.15909297331 0.16346190493 
0.16695888077 0.16971130123 0.17188441689 0.17365145799 0.17517704719 0.17660593045 0.17804497368 0.17953983652 0.18105709141 
0.18247808121 0.18360524653 0.18418221073 0.18392887445 0.18258856033 0.17997883318 0.17603424373 0.17082928183 0.16457306317 
0.15757187958 0.15016122511 0.14262531326 0.135152789 0.12786247301 0.12086106209 0.11428118533 0.10828928249 0.10307603995 
0.098841336373 0.095769363248 0.093970081674 0.093387781558 0.093751585218 0.094634758952 0.095575350027 0.096177135 0.096167784003 
0.095421105947 0.093953838792 0.091906390085 0.089513772038 0.087069164982 0.084877628276 0.083197691547 0.08219496662 0.081940631226 
0.082433072676 0.083614794133 0.085385199637 0.087600947614 0.09005953077 0.092497942162 0.094613687732 0.096110891456 0.096739001366 
0.096313156983 0.094724095135 0.091938869663 0.087992034681 0.082970438082 0.076997257546 0.070220227559 0.062806088633 0.054940142228 
0.04682789196 0.038695386485 0.030785550882 0.023349033894 0.016629840445 0.01084819625 0.0061850407569 0.0027729998715 0.00069658566373 
5.6459591594e-17 
