# vtk DataFile Version 5.1
vtk output
ASCII
DATASET POLYDATA
POINTS 100 float
0.0788128 0.0306053 0.611565 0.0788483 0.030781 0.611437 0.0790445 0.0311574 0.610923 
0.0793549 0.0317095 0.609996 0.0797085 0.0323998 0.608615 0.0800189 0.0331814 0.606728 
0.0801952 0.0340028 0.604272 0.0801533 0.0348125 0.601182 0.0798253 0.0355644 0.597392 
0.0791664 0.0362218 0.592846 0.0781576 0.0367605 0.587495 0.0768049 0.0371714 0.581309 
0.0751335 0.0374607 0.574277 0.0731804 0.0376486 0.566411 0.0709842 0.0377676 0.557747 
0.0685754 0.0378577 0.54834 0.0659681 0.0379626 0.53827 0.0631553 0.0381244 0.527626 
0.0601073 0.0383787 0.51651 0.056775 0.0387505 0.505024 0.053097 0.0392506 0.493267 
0.0490095 0.0398746 0.481325 0.0444584 0.0406018 0.469266 0.0394099 0.0413973 0.45714 
0.03386 0.0422149 0.444972 0.02784 0.0430016 0.432767 0.021417 0.0437027 0.420509 
0.0146894 0.0442677 0.40817 0.00777753 0.044656 0.395711 0.000810191 0.0448415 0.383094 
-0.0060905 0.0448167 0.370283 -0.0128245 0.0445951 0.357253 -0.0193273 0.0442111 0.343992 
-0.0255785 0.0437191 0.330501 -0.0316054 0.04319 0.316793 -0.03748 0.0427063 0.302893 
-0.0433089 0.0423563 0.288826 -0.0492186 0.042227 0.274616 -0.0553364 0.0423978 0.260274 
-0.0617697 0.0429337 0.245799 -0.068587 0.0438801 0.231165 -0.0758018 0.045259 0.216324 
-0.0833625 0.0470668 0.201207 -0.0911496 0.0492744 0.185725 -0.0989805 0.0518289 0.169778 
-0.106622 0.0546574 0.15326 -0.113808 0.0576717 0.136074 -0.120265 0.0607752 0.118139 
-0.125733 0.0638689 0.0994001 -0.129988 0.0668582 0.0798352 -0.132866 0.0696589 0.0594617 
-0.134272 0.0722019 0.0383359 -0.134186 0.074437 0.0165522 -0.132663 0.076334 -0.00576322 
-0.129822 0.0778835 -0.0284596 -0.125832 0.0790944 -0.0513724 -0.120891 0.0799913 -0.0743332 
-0.115204 0.08061 -0.0971809 -0.108967 0.0809928 -0.11977 -0.102348 0.0811831 -0.14198 
-0.0954744 0.0812207 -0.163715 -0.0884293 0.0811377 -0.184909 -0.0812515 0.0809552 -0.205526 
-0.0739421 0.0806817 -0.22555 -0.0664749 0.0803123 -0.244986 -0.0588104 0.0798299 -0.263851 
-0.0509085 0.079207 -0.282168 -0.0427417 0.0784094 -0.299961 -0.0343032 0.0773991 -0.317254 
-0.0256124 0.0761392 -0.33406 -0.0167144 0.0745975 -0.350393 -0.00767629 0.07275 -0.366255 
0.00142056 0.0705842 -0.381649 0.0104902 0.0681003 -0.396575 0.019452 0.0653131 -0.411032 
0.0282392 0.0622508 -0.425022 0.0368053 0.0589544 -0.438546 0.0451265 0.0554755 -0.451609 
0.0532006 0.0518734 -0.464211 0.061042 0.048212 -0.476352 0.0686748 0.0445567 -0.48802 
0.0761236 0.0409704 -0.499199 0.0834045 0.0375116 -0.509858 0.0905184 0.0342311 -0.519957 
0.0974457 0.0311707 -0.529447 0.104145 0.0283617 -0.538271 0.110557 0.0258248 -0.546375 
0.116608 0.0235703 -0.553707 0.122219 0.0215984 -0.560225 0.127318 0.0199012 -0.565908 
0.131842 0.0184635 -0.570754 0.135754 0.0172652 -0.574783 0.13904 0.0162825 -0.578042 
0.141715 0.0154901 -0.580597 0.143817 0.0148626 -0.582532 0.145404 0.014376 -0.583937 
0.14654 0.0140088 -0.584904 0.147293 0.0137436 -0.585517 0.147719 0.013567 -0.585843 
0.147853 0.0134707 -0.585923 
LINES 2 100
OFFSETS vtktypeint64
0 100 
CONNECTIVITY vtktypeint64
0 1 2 3 4 5 6 7 8 
9 10 11 12 13 14 15 16 17 
18 19 20 21 22 23 24 25 26 
27 28 29 30 31 32 33 34 35 
36 37 38 39 40 41 42 43 44 
45 46 47 48 49 50 51 52 53 
54 55 56 57 58 59 60 61 62 
63 64 65 66 67 68 69 70 71 
72 73 74 75 76 77 78 79 80 
81 82 83 84 85 86 87 88 89 
90 91 92 93 94 95 96 97 98 
99 
POINT_DATA 100
FIELD FieldData 3
_theta 1 100 double
0 0.031733259127 0.063466518254 0.095199777382 0.12693303651 0.15866629564 0.19039955476 0.22213281389 0.25386607302 
0.28559933214 0.31733259127 0.3490658504 0.38079910953 0.41253236865 0.44426562778 0.47599888691 0.50773214603 0.53946540516 
0.57119866429 0.60293192342 0.63466518254 0.66639844167 0.6981317008 0.72986495992 0.76159821905 0.79333147818 0.82506473731 
0.85679799643 0.88853125556 0.92026451469 0.95199777382 0.98373103294 1.0154642921 1.0471975512 1.0789308103 1.1106640695 
1.1423973286 1.1741305877 1.2058638468 1.237597106 1.2693303651 1.3010636242 1.3327968833 1.3645301425 1.3962634016 
1.4279966607 1.4597299198 1.491463179 1.5231964381 1.5549296972 1.5866629564 1.6183962155 1.6501294746 1.6818627337 
1.7135959929 1.745329252 1.7770625111 1.8087957702 1.8405290294 1.8722622885 1.9039955476 1.9357288068 1.9674620659 
1.999195325 2.0309285841 2.0626618433 2.0943951024 2.1261283615 2.1578616206 2.1895948798 2.2213281389 2.253061398 
2.2847946572 2.3165279163 2.3482611754 2.3799944345 2.4117276937 2.4434609528 2.4751942119 2.506927471 2.5386607302 
2.5703939893 2.6021272484 2.6338605076 2.6655937667 2.6973270258 2.7290602849 2.7607935441 2.7925268032 2.8242600623 
2.8559933214 2.8877265806 2.9194598397 2.9511930988 2.982926358 3.0146596171 3.0463928762 3.0781261353 3.1098593945 
3.1415926536 
_radius 1 100 double
1.344087213e-15 0.0121323086 0.024176674159 0.036044933335 0.047656216895 0.05893898647 0.069831605765 0.080281790954 0.090245602325 
0.099686703669 0.10857641095 0.11689465723 0.12463155708 0.13178891434 0.13838090513 0.14443333654 0.14998128674 0.15506544132 
0.15972788093 0.1640082964 0.16794152031 0.1715568636 0.17487914644 0.17793074791 0.18073372821 0.1833112045 0.18568755369 
0.18788740409 0.18993358547 0.19184424793 0.19362937263 0.19528698236 0.19679952084 0.19813106148 0.19922619154 0.20001147756 
0.20040014534 0.20029994974 0.19962346903 0.19829958738 0.19628477014 0.19357272901 0.19020114833 0.18625433598 0.18186098811 
0.17718668448 0.17242126599 0.16776198017 0.16339430727 0.15947355069 0.15611103537 0.15336836875 0.15126133129 0.14977199485 
0.14886466586 0.14849949304 0.14863802496 0.1492379367 0.15023934094 0.15155120144 0.15304880305 0.15458704059 0.15602356843 
0.15724122839 0.15816275222 0.15875604592 0.15903132765 0.15903241492 0.15882475585 0.15848274832 0.15807839484 0.15767245564 
0.15730835869 0.15700858996 0.15677317362 0.15657990508 0.15638596431 0.15613041608 0.15573709686 0.15511762478 0.15417463366 
0.15280556485 0.15090727441 0.14838136475 0.14513971883 0.14110941291 0.13623613861 0.13048550305 0.12384204375 0.11630638712 
0.10789154179 0.098619662702 0.088520576694 0.077632856199 0.066007365398 0.053712258476 0.040837725198 0.027498622021 0.01383356975 
6.4211848678e-16 
_area 1 100 double
0 0.00039189732095 0.0015511019685 0.0034310930756 0.0059629744197 0.0090649740934 0.01265068162 0.016634169111 0.020932006416 
0.025463552905 0.030151228238 0.03492191086 0.039709657689 0.044458958416 0.049127082543 0.053684074964 0.058109639556 0.06238725739 
0.066497183822 0.070411311136 0.074093783182 0.07751039832 0.080645765577 0.083520972365 0.086201212765 0.088786744978 0.09138948153 
0.094103822371 0.096979869872 0.10000634745 0.10311240585 0.1061902128 0.10912637919 0.11182728356 0.11422876603 0.11628227496 
0.11791216987 0.1189706415 0.11924918659 0.11854719575 0.1167390401 0.11381145452 0.10987311584 0.10514044934 0.099904069227 
0.094483472876 0.089180291483 0.084241189832 0.079836689987 0.076052171441 0.072884968359 0.07025380772 0.068033387562 0.06610518812 
0.06439553053 0.062884325349 0.061589187479 0.060538744218 0.05974875858 0.0592102845 0.058888524958 0.058717525263 0.058585202704 
0.058339782343 0.057844252946 0.057037757886 0.055955345884 0.054710689176 0.053461117923 0.052360195658 0.051502319205 0.050901462311 
0.05052767703 0.050344645613 0.05032235384 0.050441487153 0.050698072383 0.051106180325 0.051641612688 0.052213058621 0.052689626689 
0.052916271884 0.052730136571 0.051981087633 0.050552703136 0.048378972686 0.045453680451 0.041831693826 0.037623037079 0.032981482363 
0.028089715525 0.02314320152 0.018334779224 0.013841727931 0.0098165413344 0.0063819759474 0.0036302242724 0.0016254060426 0.00040805587219 
2.0544389375e-17 
