# vtk DataFile Version 5.1
vtk output
ASCII
DATASET POLYDATA
POINTS 100 float
0.0805449 0.0207943 0.640097 0.0806131 0.0210607 0.639829 0.0808378 0.0217049 0.638902 
0.0811715 0.0226878 0.637325 0.0815417 0.0239498 0.635113 0.0818591 0.0254164 0.632282 
0.0820286 0.0270061 0.628847 0.0819598 0.0286374 0.624815 0.0815773 0.0302357 0.620184 
0.0808281 0.0317388 0.614944 0.0796862 0.0330998 0.609076 0.0781534 0.0342876 0.602557 
0.0762564 0.0352849 0.595364 0.0740405 0.0360853 0.587481 0.0715613 0.0366878 0.578904 
0.0688756 0.0370923 0.569647 0.0660317 0.0372948 0.559741 0.0630627 0.0372854 0.549241 
0.0599812 0.0370472 0.538217 0.0567786 0.0365582 0.52675 0.0534264 0.0357956 0.514929 
0.0498825 0.0347409 0.502832 0.0460977 0.0333871 0.490529 0.0420257 0.0317446 0.478066 
0.037631 0.0298464 0.465461 0.0328966 0.027751 0.452706 0.0278286 0.0255423 0.439766 
0.0224576 0.0233264 0.426586 0.0168364 0.0212251 0.413098 0.0110341 0.0193668 0.399235 
0.00512793 0.0178761 0.384936 -0.000806847 0.0168623 0.370163 -0.00670719 0.0164096 0.354905 
-0.0125311 0.0165688 0.33918 -0.0182638 0.0173523 0.323038 -0.0239205 0.018733 0.30655 
-0.0295444 0.0206477 0.289806 -0.0352012 0.0230033 0.272896 -0.0409691 0.0256871 0.255901 
-0.0469267 0.0285779 0.238879 -0.0531393 0.0315589 0.221853 -0.0596461 0.0345285 0.204811 
-0.0664488 0.0374097 0.187696 -0.073504 0.0401562 0.170419 -0.0807205 0.0427539 0.152863 
-0.087961 0.0452196 0.1349 -0.0950493 0.0475955 0.116404 -0.101781 0.0499404 0.0972684 
-0.107941 0.0523202 0.0774224 -0.113314 0.0547972 0.0568392 -0.117708 0.0574202 0.0355434 
-0.120963 0.0602173 0.0136108 -0.122966 0.0631909 -0.00883733 -0.123655 0.066316 -0.0316456 
-0.123026 0.0695419 -0.054639 -0.121125 0.0727968 -0.0776396 -0.118043 0.0759944 -0.100483 
-0.113906 0.0790415 -0.123031 -0.10886 0.0818458 -0.145183 -0.10306 0.0843229 -0.166879 
-0.0966539 0.0864014 -0.188098 -0.089774 0.0880259 -0.208852 -0.0825286 0.0891578 -0.229175 
-0.0749978 0.0897739 -0.249109 -0.0672332 0.0898637 -0.268692 -0.0592614 0.0894255 -0.287942 
-0.0510895 0.0884629 -0.306854 -0.0427137 0.0869816 -0.325393 -0.0341272 0.0849876 -0.343495 
-0.0253289 0.0824872 -0.361077 -0.0163305 0.0794886 -0.378047 -0.00716109 0.0760041 -0.394316 
0.00212988 0.0720543 -0.409812 0.0114728 0.0676712 -0.424495 0.0207801 0.0629014 -0.438361 
0.0299507 0.0578075 -0.451447 0.0388756 0.052468 -0.463826 0.0474442 0.0469746 -0.475602 
0.0555503 0.0414283 -0.486892 0.063098 0.0359331 -0.497809 0.0700065 0.0305892 -0.508449 
0.0762131 0.0254861 -0.51887 0.0816755 0.0206966 -0.529085 0.0863722 0.0162718 -0.539053 
0.0903025 0.0122391 -0.548681 0.093485 0.00860192 -0.557834 0.0959557 0.00534281 -0.56635 
0.0977661 0.00242797 -0.574058 0.0989802 -0.000186291 -0.580803 0.0996727 -0.00254645 -0.586466 
0.0999259 -0.00469494 -0.590978 0.0998272 -0.00666438 -0.59434 0.0994665 -0.00847364 -0.596621 
0.0989332 -0.0101262 -0.597954 0.0983132 -0.011611 -0.598528 0.0976861 -0.0129053 -0.598563 
0.0971216 -0.013979 -0.598289 0.0966775 -0.0148009 -0.597921 0.0963967 -0.0153435 -0.597631 
0.0963055 -0.0155879 -0.597531 
LINES 2 100
OFFSETS vtktypeint64
0 100 
CONNECTIVITY vtktypeint64
0 1 2 3 4 5 6 7 8 
9 10 11 12 13 14 15 16 17 
18 19 20 21 22 23 24 25 26 
27 28 29 30 31 32 33 34 35 
36 37 38 39 40 41 42 43 44 
45 46 47 48 49 50 51 52 53 
54 55 56 57 58 59 60 61 62 
63 64 65 66 67 68 69 70 71 
72 73 74 75 76 77 78 79 80 
81 82 83 84 85 86 87 88 89 
90 91 92 93 94 95 96 97 98 
99 
POINT_DATA 100
FIELD FieldData 3
_theta 1 100 double
0 0.031733259127 0.063466518254 0.095199777382 0.12693303651 0.15866629564 0.19039955476 0.22213281389 0.25386607302 
0.28559933214 0.31733259127 0.3490658504 0.38079910953 0.41253236865 0.44426562778 0.47599888691 0.50773214603 0.53946540516 
0.57119866429 0.60293192342 0.63466518254 0.66639844167 0.6981317008 0.72986495992 0.76159821905 0.79333147818 0.82506473731 
0.85679799643 0.88853125556 0.92026451469 0.95199777382 0.98373103294 1.0154642921 1.0471975512 1.0789308103 1.1106640695 
1.1423973286 1.1741305877 1.2058638468 1.237597106 1.2693303651 1.3010636242 1.3327968833 1.3645301425 1.3962634016 
1.4279966607 1.4597299198 1.491463179 1.5231964381 1.5549296972 1.5866629564 1.6183962155 1.6501294746 1.6818627337 
1.7135959929 1.745329252 1.7770625111 1.8087957702 1.8405290294 1.8722622885 1.9039955476 1.9357288068 1.9674620659 
1.999195325 2.0309285841 2.0626618433 2.0943951024 2.1261283615 2.1578616206 2.1895948798 2.2213281389 2.253061398 
2.2847946572 2.3165279163 2.3482611754 2.3799944345 2.4117276937 2.4434609528 2.4751942119 2.506927471 2.5386607302 
2.5703939893 2.6021272484 2.6338605076 2.6655937667 2.6973270258 2.7290602849 2.7607935441 2.7925268032 2.8242600623 
2.8559933214 2.8877265806 2.9194598397 2.9511930988 2.982926358 3.0146596171 3.0463928762 3.0781261353 3.1098593945 
3.1415926536 
_radius 1 100 double
6.7350178185e-16 0.013640201394 0.027230506508 0.040710285216 0.05400963656 0.067048739626 0.079740388353 0.091995321467 0.10372931311 
0.11487063457 0.12536649687 0.13518740898 0.14432892252 0.15281080923 0.16067414893 0.16797695614 0.17478881108 0.18118462263 
0.1872374377 0.19301042106 0.1985487796 0.20387311782 0.20897596054 0.21382270159 0.21835722488 0.22251135074 0.22621647053 
0.22941537826 0.23207233014 0.23417967358 0.23575995414 0.23686317928 0.23755974752 0.23793024643 0.2380537463 0.23799634047 
0.23780156189 0.2374840161 0.23702717376 0.23638578941 0.2354928639 0.2342704703 0.23264317283 0.23055227571 0.22796883536 
0.22490334858 0.22141038177 0.21758719358 0.21356656409 0.20950528693 0.20557061642 0.20192696799 0.19872435042 0.1960888399 
0.19411448131 0.19285575085 0.19232043392 0.19246448359 0.19319225993 0.19436561325 0.19582230891 0.19739986052 0.1989583124 
0.20039645831 0.20165899578 0.20273496153 0.20364933727 0.20445011919 0.20519311003 0.2059266519 0.20667841941 0.20744603152 
0.20819258147 0.2088473731 0.20931137484 0.20946627858 0.20918563193 0.2083463271 0.20683880786 0.2045746973 0.20149108993 
0.19755137054 0.19274298127 0.18707295119 0.18056218119 0.17323945279 0.16513596431 0.1562809817 0.14669899621 0.1364086309 
0.12542340262 0.11375428973 0.10141387106 0.088421604567 0.074809610419 0.060628111997 0.045949511873 0.030870053256 0.015508270268 
7.7519215718e-16 
_area 1 100 double
0 0.00051480716349 0.0020470242546 0.004559603334 0.0079897065208 0.01224824873 0.017221316834 0.022774753828 0.028762468748 
0.035037792134 0.041465879686 0.047934390345 0.054359920691 0.060689013196 0.066894431171 0.07296883241 0.078918064732 0.084755014725 
0.090493588219 0.096142654616 0.10170161202 0.10716046865 0.11250584186 0.11773001089 0.1228354492 0.12782636947 0.13268635484 
0.13735521139 0.14172458758 0.14565986164 0.14903744494 0.15177971814 0.15387397518 0.15536735402 0.15633635807 0.15684961816 
0.15695051485 0.15665501807 0.15595230047 0.1548088705 0.15317845721 0.15101647162 0.14829574077 0.14501877079 0.14122163678 
0.1369686337 0.13234472184 0.12745523514 0.12243251843 0.11743949015 0.11266203196 0.10828708866 0.10446726513 0.10128674313 
0.098757176719 0.096847192472 0.095510834712 0.094695205628 0.094356003001 0.094497966123 0.094940773256 0.095584112431 0.096284048363 
0.09685407276 0.097145186751 0.097078854616 0.096648937097 0.095921934384 0.095053481346 0.094254205217 0.09361124785 0.093342086393 
0.093483866742 0.093997758904 0.094804966712 0.095740371583 0.096607745537 0.097200960065 0.09732215898 0.096796270073 0.09548061133 
0.093272127856 0.090114058476 0.086001731809 0.080985292938 0.075166885305 0.0686913175 0.061731526185 0.054472072041 0.047094769069 
0.039769978427 0.032654954439 0.025897512463 0.019641019378 0.014026982214 0.0091937405542 0.005271726193 0.0023763136824 0.00059924254582 
2.8202805705e-17 
