# vtk DataFile Version 5.1
vtk output
ASCII
DATASET POLYDATA
POINTS 100 float
0.0471856 0.0458647 0.659749 0.047344 0.0457729 0.659548 0.0478818 0.0453388 0.658763 
0.0487409 0.0446151 0.657401 0.0498318 0.0436836 0.655469 0.0510441 0.0426456 0.652975 
0.0522585 0.0416109 0.649928 0.0533603 0.0406851 0.646332 0.0542516 0.0399584 0.642187 
0.0548609 0.0394952 0.637489 0.0551495 0.0393275 0.632227 0.0551131 0.0394521 0.626386 
0.0547796 0.0398308 0.619945 0.0542017 0.040396 0.612884 0.0534477 0.0410578 0.605181 
0.0525896 0.0417148 0.596822 0.051691 0.0422647 0.587799 0.0507971 0.0426156 0.578114 
0.0499262 0.042695 0.567784 0.0490658 0.0424569 0.556841 0.0481724 0.0418855 0.545329 
0.0471756 0.0409953 0.533308 0.0459859 0.0398283 0.520848 0.044505 0.0384482 0.508027 
0.0426371 0.0369332 0.494924 0.0403003 0.0353672 0.481615 0.0374359 0.0338318 0.468168 
0.0340149 0.0323994 0.454639 0.0300412 0.0311277 0.441066 0.0255496 0.0300576 0.427465 
0.0206013 0.0292125 0.413836 0.0152756 0.0286008 0.400156 0.00965984 0.0282198 0.386386 
0.00383833 0.0280605 0.372474 -0.00211695 0.0281133 0.35836 -0.00815422 0.0283725 0.343982 
-0.0142462 0.0288397 0.329283 -0.0203904 0.0295256 0.314212 -0.026606 0.0304497 0.298734 
-0.0329262 0.0316378 0.282827 -0.0393889 0.0331184 0.266486 -0.0460257 0.0349177 0.249721 
-0.0528501 0.037054 0.232554 -0.0598486 0.0395332 0.215016 -0.0669736 0.0423446 0.197142 
-0.07414 0.0454591 0.178965 -0.0812268 0.0488283 0.160514 -0.0880823 0.0523866 0.141808 
-0.0945333 0.0560549 0.122857 -0.100397 0.0597451 0.103657 -0.105496 0.0633668 0.0841967 
-0.109667 0.0668331 0.0644573 -0.112782 0.0700664 0.0444171 -0.114748 0.0730036 0.0240565 
-0.115519 0.075599 0.00336286 -0.115096 0.0778264 -0.0176651 -0.113525 0.0796783 -0.0390142 
-0.110888 0.0811647 -0.0606546 -0.107298 0.0823088 -0.0825402 -0.102882 0.0831434 -0.10461 
-0.0977765 0.0837053 -0.12679 -0.092108 0.0840311 -0.149 -0.0859896 0.0841518 -0.171157 
-0.0795124 0.0840898 -0.193178 -0.0727424 0.0838563 -0.214988 -0.0657213 0.0834496 -0.23652 
-0.0584695 0.082855 -0.257719 -0.0509926 0.0820462 -0.27854 -0.0432889 0.0809871 -0.298947 
-0.0353578 0.0796348 -0.318912 -0.0272074 0.0779427 -0.33841 -0.0188609 0.0758644 -0.357413 
-0.0103604 0.0733577 -0.375891 -0.00176879 0.070388 -0.393807 0.00683238 0.0669321 -0.411116 
0.0153465 0.0629811 -0.427765 0.0236682 0.0585429 -0.443696 0.0316907 0.053644 -0.45885 
0.039314 0.0483306 -0.47317 0.046452 0.0426678 -0.486608 0.0530392 0.0367391 -0.499128 
0.0590343 0.0306433 -0.510712 0.0644231 0.0244911 -0.521361 0.0692172 0.0184003 -0.531098 
0.0734515 0.01249 -0.539962 0.0771791 0.00687463 -0.548012 0.0804652 0.00165771 -0.555317 
0.0833798 -0.00307431 -0.561948 0.0859909 -0.00725694 -0.567979 0.0883579 -0.0108513 -0.573471 
0.0905271 -0.0138463 -0.578476 0.0925281 -0.0162579 -0.583024 0.094373 -0.0181275 -0.58713 
0.0960571 -0.0195172 -0.590787 0.0975618 -0.0205039 -0.593975 0.0988584 -0.0211715 -0.59666 
0.0999135 -0.0216036 -0.598802 0.100694 -0.0218749 -0.600363 0.101173 -0.0220443 -0.601309 
0.101331 -0.0221495 -0.601619 
LINES 2 100
OFFSETS vtktypeint64
0 100 
CONNECTIVITY vtktypeint64
0 1 2 3 4 5 6 7 8 
9 10 11 12 13 14 15 16 17 
18 19 20 21 22 23 24 25 26 
27 28 29 30 31 32 33 34 35 
36 37 38 39 40 41 42 43 44 
45 46 47 48 49 50 51 52 53 
54 55 56 57 58 59 60 61 62 
63 64 65 66 67 68 69 70 71 
72 73 74 75 76 77 78 79 80 
81 82 83 84 85 86 87 88 89 
90 91 92 93 94 95 96 97 98 
99 
POINT_DATA 100
FIELD FieldData 3
_theta 1 100 double
0 0.031733259127 0.063466518254 0.095199777382 0.12693303651 0.15866629564 0.19039955476 0.22213281389 0.25386607302 
0.28559933214 0.31733259127 0.3490658504 0.38079910953 0.41253236865 0.44426562778 0.47599888691 0.50773214603 0.53946540516 
0.57119866429 0.60293192342 0.63466518254 0.66639844167 0.6981317008 0.72986495992 0.76159821905 0.79333147818 0.82506473731 
0.85679799643 0.88853125556 0.92026451469 0.95199777382 0.98373103294 1.0154642921 1.0471975512 1.0789308103 1.1106640695 
1.1423973286 1.1741305877 1.2058638468 1.237597106 1.2693303651 1.3010636242 1.3327968833 1.3645301425 1.3962634016 
1.4279966607 1.4597299198 1.491463179 1.5231964381 1.5549296972 1.5866629564 1.6183962155 1.6501294746 1.6818627337 
1.7135959929 1.745329252 1.7770625111 1.8087957702 1.8405290294 1.8722622885 1.9039955476 1.9357288068 1.9674620659 
1.999195325 2.0309285841 2.0626618433 2.0943951024 2.1261283615 2.1578616206 2.1895948798 2.2213281389 2.253061398 
2.2847946572 2.3165279163 2.3482611754 2.3799944345 2.4117276937 2.4434609528 2.4751942119 2.506927471 2.5386607302 
2.5703939893 2.6021272484 2.6338605076 2.6655937667 2.6973270258 2.7290602849 2.7607935441 2.7925268032 2.8242600623 
2.8559933214 2.8877265806 2.9194598397 2.9511930988 2.982926358 3.0146596171 3.0463928762 3.0781261353 3.1098593945 
3.1415926536 
_radius 1 100 double
1.4447070392e-15 0.012828182669 0.025660438141 0.038485479419 0.051280621008 0.064009013296 0.076619476289 0.089048926866 0.10122684421 
0.11308082785 0.12454219226 0.13555071016 0.14605795925 0.15602910295 0.16544323908 0.17429262272 0.18258110258 0.19032203018 
0.19753577609 0.2042469119 0.21048116719 0.21626244499 0.22161037803 0.22653898518 0.23105684335 0.2351688258 0.23887898765 
0.24219376729 0.24512447613 0.24768815411 0.24990626415 0.25180127686 0.25339178675 0.25468722481 0.25568336699 0.25635966586 
0.2566790428 0.25659032228 0.25603310584 0.25494463664 0.25326807495 0.25096152053 0.24800701587 0.24441862606 0.24024854854 
0.23559011653 0.23057659332 0.22537489067 0.22017389396 0.21516802716 0.21053798943 0.20643189797 0.20295074075 0.20014140476 
0.19799845143 0.19647308365 0.19548577904 0.19493873338 0.19472540889 0.19473636525 0.19486243668 0.19499757754 0.19504366476 
0.19491796574 0.1945617791 0.19394751754 0.19308188573 0.19200412375 0.19077957866 0.1894897274 0.18822023047 0.18704872482 
0.18603389268 0.18520692203 0.18456595905 0.18407374081 0.18365839247 0.18321728428 0.18262366006 0.1817353901 0.18040482851 
0.17848859803 0.17585625255 0.17239706813 0.16802455769 0.16267863239 0.15632562907 0.14895666742 0.14058494672 0.13124260472 
0.12097764066 0.10985120163 0.097935320702 0.085311048231 0.072066863263 0.058297275349 0.044101577111 0.029582736155 0.014846404612 
5.7318405496e-16 
_area 1 100 double
0 0.00048120413307 0.0019274888157 0.0043436573222 0.0077282872672 0.0120634948 0.017306635301 0.023386732949 0.030206427828 
0.03764823848 0.045582788208 0.053876616628 0.062398049602 0.071020840714 0.079626432014 0.088106294048 0.096365592334 0.10432835416 
0.11194282552 0.1191846968 0.12605613473 0.13258015977 0.13879199446 0.14473018322 0.15042950002 0.15591545479 0.16119927362 
0.16627447702 0.17111765479 0.17569208127 0.17994951038 0.1838295494 0.18726108918 0.19016898029 0.19248410913 0.19415194689 
0.19513504418 0.1954076163 0.19494417182 0.19370776118 0.19164486337 0.18869193356 0.18479413473 0.17993200193 0.17414848084 
0.16756769622 0.16039814854 0.15291667519 0.14543466033 0.13825305248 0.1316167791 0.12568252783 0.12051338941 0.1161038083 
0.11242591259 0.10944301669 0.10702437295 0.10500146951 0.10323893259 0.10162475856 0.10006424337 0.098481431468 0.096815463774 
0.095008885909 0.093000645429 0.090741271508 0.088227862586 0.085532432181 0.082799196433 0.080211680382 0.077955830947 0.076194704799 
0.075045965081 0.074560954381 0.074712310021 0.075393090946 0.076431063799 0.077614008799 0.078711798517 0.079491787961 0.079733531168 
0.079245274713 0.077879933375 0.075547337575 0.072220698706 0.067936746301 0.062790275203 0.056924688781 0.050520384653 0.043782539208 
0.03692925505 0.030180447956 0.023747505459 0.01782376651 0.012576214847 0.0081392561111 0.0046117715826 0.0020584834732 0.00051573004014 
2.4279556232e-17 
