# vtk DataFile Version 5.1
vtk output
ASCII
DATASET POLYDATA
POINTS 100 float
0.109753 0.0620353 0.687598 0.109894 0.0620574 0.687707 0.110394 0.0619496 0.687813 
0.111217 0.0617218 0.687837 0.112305 0.0613904 0.687658 0.113582 0.0609764 0.68712 
0.114959 0.0605044 0.686053 0.116342 0.0600006 0.68428 0.117634 0.0594908 0.681641 
0.118742 0.0589985 0.678001 0.11958 0.0585427 0.673261 0.120073 0.0581364 0.667369 
0.120156 0.057785 0.660317 0.119778 0.0574858 0.652146 0.118895 0.0572274 0.642935 
0.117476 0.0569905 0.632794 0.115496 0.0567491 0.621853 0.11294 0.0564723 0.610249 
0.109797 0.056127 0.598119 0.106065 0.0556807 0.585583 0.101748 0.0551042 0.572742 
0.0968615 0.0543748 0.559673 0.0914298 0.0534782 0.546425 0.0854891 0.0524108 0.533023 
0.0790877 0.05118 0.519471 0.0722848 0.0498048 0.505757 0.065149 0.0483146 0.491861 
0.0577549 0.0467476 0.47776 0.0501788 0.0451487 0.463432 0.0424941 0.0435667 0.44886 
0.0347663 0.0420513 0.434033 0.0270484 0.0406513 0.418944 0.0193779 0.0394115 0.403588 
0.0117752 0.0383715 0.38796 0.00424411 0.0375649 0.372046 -0.00322521 0.0370184 0.355823 
-0.0106518 0.0367523 0.339256 -0.0180574 0.0367808 0.322295 -0.0254591 0.0371127 0.304877 
-0.0328622 0.0377523 0.28693 -0.0402532 0.0386994 0.268377 -0.0475953 0.0399496 0.249146 
-0.0548257 0.041494 0.229172 -0.0618559 0.0433186 0.208411 -0.0685748 0.0454037 0.186841 
-0.074855 0.0477229 0.164467 -0.080561 0.0502431 0.141329 -0.0855588 0.0529239 0.117494 
-0.0897262 0.0557184 0.0930554 -0.0929625 0.0585747 0.068128 -0.0951962 0.0614374 0.0428392 
-0.0963908 0.0642502 0.0173209 -0.0965468 0.0669586 -0.00830003 -0.0957013 0.0695127 -0.033909 
-0.0939236 0.0718692 -0.0594099 -0.0913084 0.0739933 -0.0847291 -0.087967 0.0758591 -0.109816 
-0.084018 0.0774495 -0.134641 -0.0795768 0.0787543 -0.159191 -0.0747477 0.0797682 -0.183466 
-0.0696168 0.0804873 -0.207467 -0.0642479 0.0809059 -0.231193 -0.0586812 0.0810137 -0.254633 
-0.052935 0.0807933 -0.277763 -0.0470093 0.0802193 -0.300541 -0.0408924 0.0792585 -0.322911 
-0.034567 0.0778725 -0.344804 -0.0280181 0.0760207 -0.366143 -0.0212394 0.0736655 -0.386851 
-0.0142381 0.0707778 -0.406859 -0.0070388 0.0673427 -0.42611 0.000315863 0.0633644 -0.444569 
0.00776607 0.0588703 -0.462223 0.0152379 0.0539127 -0.479084 0.0226478 0.0485686 -0.495186 
0.0299082 0.0429369 -0.510579 0.0369329 0.0371334 -0.525324 0.0436429 0.0312841 -0.539484 
0.0499706 0.0255169 -0.553112 0.055863 0.0199527 -0.566247 0.0612838 0.0146977 -0.578902 
0.0662136 0.00983609 -0.591064 0.0706487 0.00542534 -0.602691 0.0745994 0.00149363 -0.613715 
0.0780869 -0.00195971 -0.624048 0.0811406 -0.00496119 -0.633592 0.0837949 -0.00755772 -0.642249 
0.0860862 -0.00980965 -0.649932 0.0880514 -0.0117828 -0.656578 0.0897254 -0.0135406 -0.662155 
0.091141 -0.0151372 -0.666671 0.0923277 -0.0166123 -0.670175 0.0933117 -0.017988 -0.672754 
0.0941163 -0.0192683 -0.674531 0.0947615 -0.020441 -0.675652 0.0952646 -0.0214817 -0.676274 
0.09564 -0.022359 -0.676555 0.095899 -0.0230404 -0.676633 0.0960501 -0.0234981 -0.67662 
0.0960982 -0.0237138 -0.676585 
LINES 2 100
OFFSETS vtktypeint64
0 100 
CONNECTIVITY vtktypeint64
0 1 2 3 4 5 6 7 8 
9 10 11 12 13 14 15 16 17 
18 19 20 21 22 23 24 25 26 
27 28 29 30 31 32 33 34 35 
36 37 38 39 40 41 42 43 44 
45 46 47 48 49 50 51 52 53 
54 55 56 57 58 59 60 61 62 
63 64 65 66 67 68 69 70 71 
72 73 74 75 76 77 78 79 80 
81 82 83 84 85 86 87 88 89 
90 91 92 93 94 95 96 97 98 
99 
POINT_DATA 100
FIELD FieldData 3
_theta 1 100 double
0 0.031733259127 0.063466518254 0.095199777382 0.12693303651 0.15866629564 0.19039955476 0.22213281389 0.25386607302 
0.28559933214 0.31733259127 0.3490658504 0.38079910953 0.41253236865 0.44426562778 0.47599888691 0.50773214603 0.53946540516 
0.57119866429 0.60293192342 0.63466518254 0.66639844167 0.6981317008 0.72986495992 0.76159821905 0.79333147818 0.82506473731 
0.85679799643 0.88853125556 0.92026451469 0.95199777382 0.98373103294 1.0154642921 1.0471975512 1.0789308103 1.1106640695 
1.1423973286 1.1741305877 1.2058638468 1.237597106 1.2693303651 1.3010636242 1.3327968833 1.3645301425 1.3962634016 
1.4279966607 1.4597299198 1.491463179 1.5231964381 1.5549296972 1.5866629564 1.6183962155 1.6501294746 1.6818627337 
1.7135959929 1.745329252 1.7770625111 1.8087957702 1.8405290294 1.8722622885 1.9039955476 1.9357288068 1.9674620659 
1.999195325 2.0309285841 2.0626618433 2.0943951024 2.1261283615 2.1578616206 2.1895948798 2.2213281389 2.253061398 
2.2847946572 2.3165279163 2.3482611754 2.3799944345 2.4117276937 2.4434609528 2.4751942119 2.506927471 2.5386607302 
2.5703939893 2.6021272484 2.6338605076 2.6655937667 2.6973270258 2.7290602849 2.7607935441 2.7925268032 2.8242600623 
2.8559933214 2.8877265806 2.9194598397 2.9511930988 2.982926358 3.0146596171 3.0463928762 3.0781261353 3.1098593945 
3.1415926536 
_radius 1 100 double
1.2306906421e-15 0.01502548318 0.029924021183 0.044568765416 0.058847509603 0.07266734768 0.085956459366 0.098663151054 0.11075284991 
0.12220409903 0.13300464523 0.14314845182 0.15263400565 0.1614637909 0.16964445362 0.17718710123 0.18410737404 0.19042527876 
0.19616510494 0.20135586872 0.20603252456 0.21023766682 0.21402279342 0.2174477413 0.22057697107 0.2234721716 0.22618204294 
0.22873154729 0.23111360999 0.23328573594 0.23517256809 0.23667385682 0.23767626364 0.23806701819 0.23774751009 0.23664523075 
0.23472294546 0.23198447017 0.22847686455 0.22428916913 0.21954798017 0.21441020347 0.2090533583 0.20366396021 0.19842487337 
0.19350298783 0.1890388766 0.18513995494 0.1818780032 0.17929084195 0.17738678734 0.17614976826 0.17554311485 0.175511071 
0.17597856827 0.17685106369 0.17801675169 0.1793528671 0.18073613953 0.18205546278 0.18322364448 0.18418534534 0.18491966154 
0.18543739454 0.18577424796 0.18598179236 0.18611810926 0.18623966784 0.18639529952 0.18662229784 0.18694399156 0.18736791461 
0.18788400167 0.18846282687 0.18905436909 0.1895878485 0.18997287925 0.19010184812 0.18985336253 0.18909680824 0.18769821119 
0.18552743662 0.1824663135 0.17841681484 0.17330820089 0.16710210933 0.15979487947 0.15141681487 0.14202853004 0.13171492718 
0.12057765747 0.10872709273 0.096274838825 0.0833276577 0.069983360851 0.056328853166 0.042440122515 0.028383675304 0.014218786594 
2.953170681e-16 
_area 1 100 double
0 0.00060401115124 0.0023934103233 0.0053029315461 0.0092319496152 0.014054675821 0.01963101467 0.025815912348 0.032465713702 
0.039441195294 0.046608365617 0.053839373641 0.061016022737 0.068036649037 0.074824225835 0.081331728316 0.087541531164 0.093458342765 
0.099098302691 0.10447898857 0.10961516405 0.11452265726 0.11922849078 0.12378117363 0.12825303291 0.13272825747 0.13727656689 
0.14192097021 0.14661315415 0.15122674217 0.15556948799 0.15940801335 0.16249709682 0.16460802071 0.16555343004 0.16520738136 
0.16351894546 0.16051741885 0.15630851289 0.15106414135 0.14501031224 0.13841470135 0.13157152706 0.12478078217 0.11831904174 
0.11240295614 0.10716201775 0.10263608571 0.098789021141 0.095532817073 0.092762076807 0.090388060638 0.088360721827 0.086673509689 
0.085350186434 0.084418719305 0.083878441032 0.083662866784 0.083639422721 0.083673013855 0.083672450871 0.083599952028 0.08345919699 
0.083271476641 0.083056660684 0.082829212329 0.082601138919 0.082383331413 0.082187290167 0.082031725767 0.081953273174 0.082015640354 
0.082312316888 0.082958214337 0.08408278191 0.085733297403 0.087730067543 0.089825042353 0.09175385997 0.093230602706 0.093966852241 
0.093702809969 0.092238559611 0.089457870183 0.085340536794 0.07996253869 0.073485664825 0.066139511759 0.058199110282 0.049961235809 
0.041721990237 0.033757667025 0.026310292501 0.019578614167 0.013714710402 0.0088258246466 0.0049804621327 0.0022172562649 0.00055473071307 
3.6036061341e-17 
