# vtk DataFile Version 5.1
vtk output
ASCII
DATASET POLYDATA
POINTS 100 float
0.129269 0.0344109 0.636725 0.129336 0.0346427 0.636828 0.129609 0.0351736 0.637005 
0.130035 0.0359725 0.637176 0.130529 0.0369917 0.637221 0.130987 0.0381716 0.636985 
0.131295 0.0394469 0.636295 0.131344 0.0407513 0.634976 0.131038 0.0420233 0.63286 
0.130301 0.0432102 0.629811 0.129089 0.0442701 0.625724 0.127384 0.0451725 0.620541 
0.125194 0.0458975 0.614251 0.12255 0.0464332 0.60689 0.119492 0.0467729 0.598533 
0.116063 0.0469113 0.589289 0.1123 0.0468426 0.579287 0.108226 0.0465589 0.568667 
0.103846 0.04605 0.557565 0.0991466 0.0453056 0.546102 0.0940972 0.0443176 0.534379 
0.0886582 0.0430846 0.522465 0.082788 0.0416155 0.510403 0.0764523 0.0399334 0.498203 
0.0696333 0.0380776 0.485851 0.0623362 0.0361043 0.47331 0.054594 0.0340846 0.460533 
0.0464674 0.0321012 0.447465 0.0380417 0.0302421 0.434052 0.0294198 0.028594 0.420247 
0.0207128 0.0272348 0.406012 0.0120294 0.0262269 0.39132 0.00346517 0.0256118 0.376156 
-0.00490656 0.0254068 0.360513 -0.0130403 0.025605 0.344388 -0.0209208 0.0261773 0.32778 
-0.0285602 0.0270778 0.310684 -0.0359921 0.0282507 0.293089 -0.0432614 0.0296388 0.27498 
-0.0504123 0.0311908 0.256332 -0.0574758 0.0328692 0.237119 -0.0644582 0.0346547 0.217312 
-0.0713322 0.0365482 0.19689 -0.0780323 0.03857 0.175841 -0.0844543 0.0407553 0.154168 
-0.0904602 0.0431476 0.131896 -0.0958878 0.0457901 0.109072 -0.100563 0.0487166 0.0857658 
-0.104315 0.0519436 0.0620701 -0.106992 0.0554631 0.0380945 -0.108472 0.0592395 0.0139602 
-0.10868 0.0632087 -0.0102072 -0.107587 0.0672815 -0.0342864 -0.105218 0.0713498 -0.0581676 
-0.101646 0.0752951 -0.0817596 -0.0969842 0.0789984 -0.104995 -0.0913769 0.0823505 -0.127832 
-0.0849852 0.0852601 -0.150255 -0.0779737 0.0876609 -0.172272 -0.0704985 0.0895146 -0.193911 
-0.0626961 0.0908108 -0.21521 -0.0546778 0.0915633 -0.236212 -0.046526 0.0918042 -0.256954 
-0.0382954 0.0915758 -0.277464 -0.0300175 0.0909215 -0.297752 -0.0217072 0.0898781 -0.317808 
-0.0133709 0.0884696 -0.3376 -0.00501485 0.0867034 -0.357076 0.00334791 0.0845699 -0.376166 
0.011692 0.0820458 -0.39479 0.0199774 0.0790993 -0.412866 0.0281491 0.0756981 -0.430314 
0.03614 0.0718172 -0.447066 0.0438753 0.0674475 -0.46307 0.0512781 0.0626018 -0.478295 
0.0582757 0.0573181 -0.492733 0.0648047 0.0516603 -0.5064 0.0708155 0.0457147 -0.519331 
0.0762746 0.0395841 -0.531576 0.0811651 0.0333789 -0.543195 0.0854854 0.0272077 -0.554252 
0.0892468 0.0211674 -0.564805 0.0924698 0.0153353 -0.574907 0.095181 0.00976311 -0.584593 
0.0974093 0.00447524 -0.593884 0.0991844 -0.000530144 -0.602784 0.100536 -0.00527601 -0.611281 
0.101492 -0.00979868 -0.619346 0.102085 -0.0141383 -0.626943 0.102347 -0.0183286 -0.63403 
0.102318 -0.0223884 -0.640562 0.102044 -0.026314 -0.646497 0.101581 -0.0300763 -0.651797 
0.100987 -0.0336204 -0.656434 0.10033 -0.0368698 -0.660384 0.0996765 -0.0397337 -0.663635 
0.0990914 -0.0421162 -0.666177 0.0986312 -0.0439275 -0.668006 0.0983404 -0.0450939 -0.669122 
0.0982469 -0.0455663 -0.669522 
LINES 2 100
OFFSETS vtktypeint64
0 100 
CONNECTIVITY vtktypeint64
0 1 2 3 4 5 6 7 8 
9 10 11 12 13 14 15 16 17 
18 19 20 21 22 23 24 25 26 
27 28 29 30 31 32 33 34 35 
36 37 38 39 40 41 42 43 44 
45 46 47 48 49 50 51 52 53 
54 55 56 57 58 59 60 61 62 
63 64 65 66 67 68 69 70 71 
72 73 74 75 76 77 78 79 80 
81 82 83 84 85 86 87 88 89 
90 91 92 93 94 95 96 97 98 
99 
POINT_DATA 100
FIELD FieldData 3
_theta 1 100 double
0 0.031733259127 0.063466518254 0.095199777382 0.12693303651 0.15866629564 0.19039955476 0.22213281389 0.25386607302 
0.28559933214 0.31733259127 0.3490658504 0.38079910953 0.41253236865 0.44426562778 0.47599888691 0.50773214603 0.53946540516 
0.57119866429 0.60293192342 0.63466518254 0.66639844167 0.6981317008 0.72986495992 0.76159821905 0.79333147818 0.82506473731 
0.85679799643 0.88853125556 0.92026451469 0.95199777382 0.98373103294 1.0154642921 1.0471975512 1.0789308103 1.1106640695 
1.1423973286 1.1741305877 1.2058638468 1.237597106 1.2693303651 1.3010636242 1.3327968833 1.3645301425 1.3962634016 
1.4279966607 1.4597299198 1.491463179 1.5231964381 1.5549296972 1.5866629564 1.6183962155 1.6501294746 1.6818627337 
1.7135959929 1.745329252 1.7770625111 1.8087957702 1.8405290294 1.8722622885 1.9039955476 1.9357288068 1.9674620659 
1.999195325 2.0309285841 2.0626618433 2.0943951024 2.1261283615 2.1578616206 2.1895948798 2.2213281389 2.253061398 
2.2847946572 2.3165279163 2.3482611754 2.3799944345 2.4117276937 2.4434609528 2.4751942119 2.506927471 2.5386607302 
2.5703939893 2.6021272484 2.6338605076 2.6655937667 2.6973270258 2.7290602849 2.7607935441 2.7925268032 2.8242600623 
2.8559933214 2.8877265806 2.9194598397 2.9511930988 2.982926358 3.0146596171 3.0463928762 3.0781261353 3.1098593945 
3.1415926536 
_radius 1 100 double
4.1633363423e-17 0.017719923422 0.035198623003 0.052211611737 0.068569012626 0.084127242727 0.098794884691 0.11253246896 0.12534692646 
0.13728228116 0.1484085052 0.15881025667 0.16857657876 0.17779189017 0.18652812965 0.19483796136 0.2027494212 0.21026292969 
0.21735179131 0.22396691599 0.23004563566 0.23552348698 0.240347048 0.24448555475 0.24793911198 0.25074179118 0.25295871064 
0.25467724676 0.25599370011 0.25699778172 0.25775786545 0.2583098211 0.25865141126 0.25874299905 0.25851409858 0.25787443396 
0.25672777524 0.25498682187 0.25258763423 0.24950238899 0.24574942696 0.24139962466 0.23657808963 0.23146016533 0.22626092738 
0.22121800531 0.21656886596 0.21252552649 0.20925136204 0.2068451502 0.20533596752 0.20468934935 0.20482169246 0.20561783802 
0.20694688078 0.20867314503 0.21066190732 0.21278168957 0.21490595465 0.21691652542 0.21870944213 0.22020221834 0.22134043434 
0.22210162445 0.22249519635 0.22255817575 0.22234751563 0.22193034813 0.22137379353 0.22073574545 0.22005752451 0.21935868731 
0.21863387125 0.21785147068 0.21695408536 0.21586084717 0.21447173732 0.21267381159 0.21034893886 0.20738236387 0.20367123151 
0.19913219116 0.19370731229 0.18736774674 0.1801148167 0.17197844007 0.16301299879 0.15329093182 0.14289455736 0.13190695451 
0.12040314961 0.10844322502 0.096069057865 0.083305946845 0.070169290611 0.056674960187 0.042850616423 0.028744613732 0.014429668174 
1.3057238392e-15 
_area 1 100 double
0 0.00068451922861 0.0027033708076 0.0059580006186 0.01030106662 0.015556821032 0.021541726454 0.028081062469 0.035019335337 
0.042224686195 0.049589331164 0.05702869077 0.064481056321 0.071907904344 0.079293357806 0.086640689186 0.093964387288 0.1012778904 
0.10857917113 0.11583828698 0.1229918117 0.12994775602 0.13660096244 0.14285433483 0.14863822484 0.15392094031 0.15870745674 
0.16302842262 0.16692441806 0.17043004962 0.17356025543 0.17629951799 0.1785946598 0.18035266925 0.18144516108 0.18172026364 
0.18102148174 0.17921179214 0.17619990552 0.17196452056 0.16657208252 0.16018433282 0.15305342134 0.14550386347 0.13790185732 
0.1306140923 0.12396180804 0.11818190844 0.11340869531 0.10967495352 0.10691651526 0.10499362118 0.10374527741 0.10303533119 
0.10276087119 0.10283520769 0.10316421637 0.10362906077 0.10408798814 0.10439876717 0.10444671014 0.10416240829 0.10352430872 
0.10255267259 0.10129707065 0.09982480733 0.098233744594 0.096725766961 0.095359609047 0.094191352372 0.093290743409 0.092820614502 
0.092776583614 0.092890652028 0.093040595107 0.093159564959 0.093228065607 0.093232929967 0.093056464124 0.092472604456 0.091276097165 
0.089332670171 0.086572996654 0.082981192158 0.078584702244 0.073445764612 0.067654960941 0.061326731337 0.054595673011 0.047612228863 
0.040537410486 0.033537664609 0.02678145307 0.020437968473 0.014676604836 0.0096648751999 0.0055629785692 0.002514612916 0.0006352005702 
6.5252463149e-17 
