# vtk DataFile Version 5.1
vtk output
ASCII
DATASET POLYDATA
POINTS 100 float
0.0876109 0.0610331 0.74767 0.087759 0.0612401 0.74705 0.0882358 0.0616654 0.744987 
0.0889823 0.0622581 0.741546 0.0899068 0.0629421 0.736828 0.0908956 0.0636253 0.730967 
0.0918252 0.0642111 0.724111 0.0925758 0.0646099 0.716415 0.093043 0.0647501 0.708027 
0.0931478 0.0645856 0.699079 0.0928426 0.064101 0.689677 0.0921129 0.0633117 0.679901 
0.0909743 0.0622608 0.669802 0.089467 0.0610113 0.659407 0.0876455 0.0596376 0.648722 
0.085569 0.0582138 0.637742 0.08329 0.0568041 0.626459 0.080846 0.055454 0.614864 
0.0782533 0.0541845 0.602955 0.0755042 0.0529905 0.590741 0.0725689 0.0518427 0.578237 
0.0694003 0.0506938 0.565465 0.0659418 0.0494864 0.552451 0.0621369 0.0481642 0.539216 
0.0579386 0.046682 0.525772 0.0533178 0.0450153 0.512121 0.0482692 0.0431671 0.49825 
0.0428136 0.0411714 0.484134 0.0369964 0.0390922 0.469734 0.0308827 0.0370191 0.455008 
0.0245494 0.0350588 0.439911 0.0180754 0.0333249 0.424406 0.0115312 0.031926 0.408468 
0.00497034 0.0309543 0.392087 -0.00157759 0.0304759 0.375273 -0.00810969 0.0305246 0.358052 
-0.0146487 0.0310987 0.340462 -0.0212375 0.0321619 0.322552 -0.0279306 0.0336492 0.304365 
-0.034782 0.0354746 0.28594 -0.0418331 0.0375415 0.267294 -0.0491 0.0397537 0.248425 
-0.0565637 0.0420263 0.229304 -0.064163 0.0442939 0.209874 -0.0717925 0.0465162 0.190062 
-0.0793051 0.04868 0.169776 -0.0865192 0.0507979 0.148927 -0.0932305 0.052903 0.127428 
-0.0992255 0.0550414 0.105215 -0.104298 0.0572631 0.0822541 -0.108263 0.0596127 0.0585477 
-0.110973 0.0621206 0.0341394 -0.112325 0.0647964 0.00911376 -0.112267 0.0676251 -0.0164087 
-0.110803 0.0705663 -0.0422794 -0.107985 0.0735565 -0.0683325 -0.103908 0.076514 -0.0943972 
-0.0987015 0.0793457 -0.12031 -0.0925146 0.0819551 -0.145925 -0.0855058 0.0842501 -0.171122 
-0.077831 0.0861497 -0.195813 -0.0696338 0.0875895 -0.219939 -0.0610395 0.0885241 -0.243474 
-0.0521506 0.088928 -0.266411 -0.0430465 0.0887935 -0.288764 -0.0337851 0.0881276 -0.31055 
-0.0244071 0.0869472 -0.331791 -0.0149399 0.0852741 -0.352498 -0.00540407 0.083131 -0.372676 
0.00418301 0.0805379 -0.392313 0.0138025 0.0775105 -0.41139 0.0234319 0.0740601 -0.429879 
0.0330435 0.070195 -0.447748 0.0426043 0.0659236 -0.464968 0.0520768 0.061258 -0.481515 
0.0614197 0.0562177 -0.497376 0.0705892 0.0508327 -0.512547 0.07954 0.0451464 -0.527035 
0.0882251 0.0392155 -0.540849 0.0965963 0.0331099 -0.554004 0.104604 0.0269103 -0.566506 
0.112196 0.0207043 -0.578353 0.119318 0.0145819 -0.589528 0.125918 0.00863085 -0.6 
0.131942 0.00293168 -0.609722 0.137342 -0.00244614 -0.618638 0.142076 -0.00744724 -0.626685 
0.146117 -0.012032 -0.633807 0.149454 -0.0161767 -0.639963 0.152094 -0.0198726 -0.645133 
0.15407 -0.0231241 -0.649326 0.155437 -0.0259456 -0.652587 0.156273 -0.0283589 -0.654996 
0.156674 -0.0303897 -0.656663 0.156748 -0.0320652 -0.65772 0.156609 -0.0334116 -0.658314 
0.156365 -0.0344522 -0.658591 0.156113 -0.0352063 -0.65868 0.155929 -0.0356882 -0.658687 
0.15586 -0.0359067 -0.658678 
LINES 2 100
OFFSETS vtktypeint64
0 100 
CONNECTIVITY vtktypeint64
0 1 2 3 4 5 6 7 8 
9 10 11 12 13 14 15 16 17 
18 19 20 21 22 23 24 25 26 
27 28 29 30 31 32 33 34 35 
36 37 38 39 40 41 42 43 44 
45 46 47 48 49 50 51 52 53 
54 55 56 57 58 59 60 61 62 
63 64 65 66 67 68 69 70 71 
72 73 74 75 76 77 78 79 80 
81 82 83 84 85 86 87 88 89 
90 91 92 93 94 95 96 97 98 
99 
POINT_DATA 100
FIELD FieldData 3
_theta 1 100 double
0 0.031733259127 0.063466518254 0.095199777382 0.12693303651 0.15866629564 0.19039955476 0.22213281389 0.25386607302 
0.28559933214 0.31733259127 0.3490658504 0.38079910953 0.41253236865 0.44426562778 0.47599888691 0.50773214603 0.53946540516 
0.57119866429 0.60293192342 0.63466518254 0.66639844167 0.6981317008 0.72986495992 0.76159821905 0.79333147818 0.82506473731 
0.85679799643 0.88853125556 0.92026451469 0.95199777382 0.98373103294 1.0154642921 1.0471975512 1.0789308103 1.1106640695 
1.1423973286 1.1741305877 1.2058638468 1.237597106 1.2693303651 1.3010636242 1.3327968833 1.3645301425 1.3962634016 
1.4279966607 1.4597299198 1.491463179 1.5231964381 1.5549296972 1.5866629564 1.6183962155 1.6501294746 1.6818627337 
1.7135959929 1.745329252 1.7770625111 1.8087957702 1.8405290294 1.8722622885 1.9039955476 1.9357288068 1.9674620659 
1.999195325 2.0309285841 2.0626618433 2.0943951024 2.1261283615 2.1578616206 2.1895948798 2.2213281389 2.253061398 
2.2847946572 2.3165279163 2.3482611754 2.3799944345 2.4117276937 2.4434609528 2.4751942119 2.506927471 2.5386607302 
2.5703939893 2.6021272484 2.6338605076 2.6655937667 2.6973270258 2.7290602849 2.7607935441 2.7925268032 2.8242600623 
2.8559933214 2.8877265806 2.9194598397 2.9511930988 2.982926358 3.0146596171 3.0463928762 3.0781261353 3.1098593945 
3.1415926536 
_radius 1 100 double
5.7959497112e-16 0.014557063101 0.028962380121 0.043063874712 0.056729734965 0.069857818336 0.082382931222 0.094280812998 0.10556783387 
0.11629596758 0.12654341 0.13640204968 0.14596360998 0.15530652416 0.16448545214 0.17352485975 0.18241733068 0.19112637966 
0.19959269368 0.20774223798 0.21549470831 0.22277130337 0.22950140087 0.23562810641 0.24111266707 0.24593751114 0.25010743969 
0.25364847333 0.25660412014 0.25902928463 0.26098252527 0.26251775576 0.26367667526 0.26448312405 0.26494018497 0.26503030866 
0.26471822415 0.26395605538 0.26268994039 0.26086749274 0.25844555648 0.25539778764 0.25172158582 0.24744380553 0.24262456605 
0.23735844541 0.23177246351 0.2260205518 0.22027465163 0.21471314215 0.20950792407 0.20481205784 0.2007500966 0.19741278556 
0.19485644978 0.19310556021 0.1921555761 0.19197314872 0.19249257515 0.19361063756 0.19518504174 0.19704180999 0.19899274941 
0.20085838401 0.20248925934 0.20378034457 0.20467666747 0.20517091875 0.20529504826 0.20510826816 0.2046838154 0.20409651651 
0.20341266935 0.2026830001 0.20193854873 0.20118850422 0.20041859792 0.19958900504 0.19863180828 0.19744937956 0.19591565301 
0.19388171169 0.19118574584 0.18766608887 0.18317528536 0.17759306009 0.17083641522 0.16286565971 0.15368584127 0.14334373242 
0.13192114252 0.11952579904 0.10628127899 0.092317435463 0.077762477691 0.062737413536 0.0473530712 0.031709496022 0.015897245076 
2.1470219946e-16 
_area 1 100 double
0 0.00064175611159 0.0025374934922 0.0055999172078 0.0096884935648 0.014618681385 0.02017716268 0.026143053853 0.032313106695 
0.038527059077 0.044688274036 0.050774923172 0.056838105311 0.062985248787 0.069350136954 0.076055121556 0.083175026281 0.090712861682 
0.098593777833 0.10667729869 0.11478160531 0.12271157319 0.13028525678 0.13735702798 0.1438360921 0.14969759241 0.15498268029 
0.15978503356 0.16422362286 0.16840473246 0.17238275634 0.17613760087 0.17958222831 0.18259243643 0.18503762615 0.18679945144 
0.18777817641 0.18789180085 0.18707268446 0.1852653298 0.18242854058 0.17854385231 0.17362906694 0.16775272132 0.16104460358 
0.15369870636 0.14596642984 0.13813868352 0.13051617549 0.12336875404 0.1168925252 0.11118507654 0.1062467259 0.10199858744 
0.098322988643 0.095123499726 0.092366601925 0.090072981158 0.088277060458 0.087002427261 0.086261004831 0.086034999652 0.086230908221 
0.086701023012 0.087280879045 0.087767169607 0.087959825863 0.087742897951 0.087103319949 0.086098279765 0.084819379919 0.083389053003 
0.081970282775 0.080767247715 0.080019120158 0.079956008366 0.080638591149 0.081889064437 0.083454889774 0.085069387021 0.086445162541 
0.08728103389 0.087283827752 0.086198083714 0.083836775832 0.08010674311 0.075023937626 0.068715598134 0.061408846842 0.053407646377 
0.045061973458 0.03673400466 0.028766058179 0.021454366025 0.015031797315 0.0096614259542 0.0054411496744 0.0024174086788 0.00060390368488 
3.298682468e-17 
