# vtk DataFile Version 5.1
vtk output
ASCII
DATASET POLYDATA
POINTS 100 float
0.110114 0.0479622 0.6285 0.11023 0.0480546 0.628516 0.110677 0.048192 0.628379 
0.111385 0.0483792 0.628039 0.112248 0.048622 0.627415 0.113137 0.048926 0.626405 
0.113911 0.0492943 0.62489 0.114442 0.0497258 0.622746 0.114621 0.0502137 0.619849 
0.114374 0.050744 0.61609 0.113662 0.0512951 0.611378 0.112488 0.0518382 0.605653 
0.110881 0.0523379 0.598886 0.108894 0.0527541 0.591082 0.106588 0.053044 0.582283 
0.104013 0.0531652 0.572563 0.101204 0.0530777 0.562023 0.0981661 0.0527472 0.550783 
0.0948737 0.0521473 0.538975 0.0912713 0.0512617 0.52673 0.0872817 0.0500856 0.514177 
0.0828177 0.0486265 0.501424 0.0777962 0.0469048 0.488561 0.0721539 0.044953 0.475649 
0.0658595 0.0428152 0.462721 0.0589231 0.0405454 0.449785 0.0513996 0.038206 0.436822 
0.0433856 0.0358657 0.423793 0.0350108 0.0335971 0.410645 0.0264236 0.0314742 0.397318 
0.0177742 0.0295698 0.383752 0.00919684 0.0279529 0.36989 0.000793738 0.0266861 0.355683 
-0.00737657 0.0258225 0.341093 -0.0153046 0.0254042 0.326093 -0.0230285 0.0254594 0.310664 
-0.0306244 0.0260014 0.294795 -0.0381919 0.0270274 0.278477 -0.0458342 0.0285186 0.261703 
-0.0536365 0.0304408 0.244458 -0.0616462 0.032746 0.226728 -0.0698564 0.0353749 0.208489 
-0.0781967 0.0382602 0.189717 -0.0865314 0.0413303 0.170384 -0.0946664 0.0445136 0.15047 
-0.102365 0.0477424 0.129963 -0.109369 0.0509564 0.108866 -0.115424 0.0541059 0.0872005 
-0.120306 0.0571535 0.0650125 -0.123846 0.0600747 0.0423708 -0.125948 0.0628578 0.0193673 
-0.126596 0.0655012 -0.00388704 -0.125861 0.0680111 -0.0272678 -0.123889 0.0703974 -0.0506443 
-0.120885 0.0726693 -0.0738876 -0.117088 0.0748314 -0.0968791 -0.112751 0.0768796 -0.119517 
-0.108106 0.0787988 -0.141724 -0.103345 0.0805608 -0.163446 -0.0985993 0.082124 -0.184657 
-0.0939334 0.0834357 -0.205357 -0.0893395 0.0844337 -0.225563 -0.0847477 0.0850515 -0.245307 
-0.0800408 0.0852224 -0.264627 -0.0750754 0.0848851 -0.283558 -0.0697056 0.0839889 -0.302131 
-0.063806 0.0824983 -0.320358 -0.0572918 0.0803965 -0.33824 -0.0501329 0.0776877 -0.355758 
-0.042361 0.0743977 -0.372878 -0.0340683 0.0705729 -0.389559 -0.0253997 0.0662781 -0.405751 
-0.016538 0.0615925 -0.421406 -0.00768547 0.0566052 -0.436485 0.000955583 0.0514102 -0.450958 
0.00920197 0.0461009 -0.464813 0.0169047 0.0407659 -0.478054 0.0239593 0.0354842 -0.490701 
0.0303101 0.0303231 -0.502784 0.0359482 0.0253355 -0.514345 0.0409048 0.0205597 -0.525425 
0.0452398 0.0160203 -0.536061 0.0490293 0.011729 -0.546281 0.0523523 0.00768721 -0.556099 
0.0552799 0.00388914 -0.565513 0.0578674 0.000324171 -0.574505 0.0601506 -0.00302 -0.583042 
0.0621464 -0.00615496 -0.591081 0.0638569 -0.00908956 -0.598572 0.0652763 -0.0118285 -0.605466 
0.0663991 -0.0143718 -0.611719 0.067227 -0.0167142 -0.617297 0.0677753 -0.018846 -0.622178 
0.0680754 -0.0207541 -0.626354 0.0681746 -0.0224227 -0.62983 0.068132 -0.0238349 -0.632621 
0.0680124 -0.0249744 -0.634749 0.0678781 -0.0258265 -0.636238 0.0677807 -0.0263799 -0.63711 
0.0677541 -0.0266268 -0.637379 
LINES 2 100
OFFSETS vtktypeint64
0 100 
CONNECTIVITY vtktypeint64
0 1 2 3 4 5 6 7 8 
9 10 11 12 13 14 15 16 17 
18 19 20 21 22 23 24 25 26 
27 28 29 30 31 32 33 34 35 
36 37 38 39 40 41 42 43 44 
45 46 47 48 49 50 51 52 53 
54 55 56 57 58 59 60 61 62 
63 64 65 66 67 68 69 70 71 
72 73 74 75 76 77 78 79 80 
81 82 83 84 85 86 87 88 89 
90 91 92 93 94 95 96 97 98 
99 
POINT_DATA 100
FIELD FieldData 3
_theta 1 100 double
0 0.031733259127 0.063466518254 0.095199777382 0.12693303651 0.15866629564 0.19039955476 0.22213281389 0.25386607302 
0.28559933214 0.31733259127 0.3490658504 0.38079910953 0.41253236865 0.44426562778 0.47599888691 0.50773214603 0.53946540516 
0.57119866429 0.60293192342 0.63466518254 0.66639844167 0.6981317008 0.72986495992 0.76159821905 0.79333147818 0.82506473731 
0.85679799643 0.88853125556 0.92026451469 0.95199777382 0.98373103294 1.0154642921 1.0471975512 1.0789308103 1.1106640695 
1.1423973286 1.1741305877 1.2058638468 1.237597106 1.2693303651 1.3010636242 1.3327968833 1.3645301425 1.3962634016 
1.4279966607 1.4597299198 1.491463179 1.5231964381 1.5549296972 1.5866629564 1.6183962155 1.6501294746 1.6818627337 
1.7135959929 1.745329252 1.7770625111 1.8087957702 1.8405290294 1.8722622885 1.9039955476 1.9357288068 1.9674620659 
1.999195325 2.0309285841 2.0626618433 2.0943951024 2.1261283615 2.1578616206 2.1895948798 2.2213281389 2.253061398 
2.2847946572 2.3165279163 2.3482611754 2.3799944345 2.4117276937 2.4434609528 2.4751942119 2.506927471 2.5386607302 
2.5703939893 2.6021272484 2.6338605076 2.6655937667 2.6973270258 2.7290602849 2.7607935441 2.7925268032 2.8242600623 
2.8559933214 2.8877265806 2.9194598397 2.9511930988 2.982926358 3.0146596171 3.0463928762 3.0781261353 3.1098593945 
3.1415926536 
_radius 1 100 double
1.2276156489e-16 0.01336768634 0.026712114509 0.040000602525 0.053189977773 0.066223624528 0.079030718666 0.091527758252 0.10362224912 
0.11521819862 0.12622285829 0.136553943 0.14614642159 0.15495801341 0.16297276142 0.17020240278 0.17668556927 0.18248498451 
0.18768276174 0.19237378761 0.19665724657 0.20062678154 0.20436053836 0.20791299976 0.21131049521 0.21455131629 0.21760993111 
0.22044372605 0.22300048382 0.2252252342 0.22706570996 0.22847610103 0.22941908567 0.2298663066 0.22979762764 0.22919968189 
0.22806439723 0.22638830407 0.22417340211 0.22143009754 0.21818220094 0.21447330119 0.21037319557 0.20598265798 0.20143477718 
0.196891441 0.19253431045 0.1885508273 0.1851172517 0.18238191166 0.18045200725 0.17938597474 0.17919102783 0.17982358376 
0.18119051621 0.18315165742 0.18552647536 0.18810762103 0.19068087985 0.19304777605 0.19504613775 0.19656510891 0.19755286067 
0.19801674406 0.19801679126 0.19765440878 0.19705864366 0.19637216701 0.19573791935 0.19528570958 0.19511722612 0.19528912528 
0.19579691989 0.19656505594 0.19744813103 0.19824447378 0.19871901293 0.19863017078 0.1977557116 0.19591386344 0.19297758026 
0.18888114694 0.18361941672 0.17724081052 0.1698357703 0.16152262302 0.15243279535 0.14269708264 0.13243430527 0.12174326559 
0.11069851169 0.099350036024 0.087726661171 0.075842453678 0.063705069603 0.051324558572 0.038720978117 0.025929319866 0.013000756748 
2.6769571582e-16 
_area 1 100 double
0 0.00046196503797 0.0018581082704 0.0042133565449 0.0075518563542 0.011876950516 0.017152662108 0.023291795166 0.030153694507 
0.037552282274 0.045272690748 0.053093066235 0.060807306843 0.068244739039 0.075283829122 0.081858611041 0.087958180441 0.093620777239 
0.098924000171 0.1039714224 0.10887433664 0.11372777982 0.11858425435 0.12343465457 0.12820694089 0.1327853629 0.13704299951 
0.14087637075 0.14423256514 0.1471206142 0.14959654494 0.15171599098 0.15347947186 0.15481902248 0.15562811601 0.15579404445 
0.1552144379 0.15380498379 0.15150740657 0.14830115342 0.14421733572 0.13935038377 0.13386170137 0.12797075125 0.12193275142 
0.11600756016 0.11042859607 0.10538064393 0.1009905328 0.097328675726 0.094417941369 0.092249773953 0.090808285425 0.090094273563 
0.090128876118 0.090909306501 0.092323601387 0.094149907556 0.096108168504 0.097908043519 0.099293949985 0.10007809699 0.10015943418 
0.099530972131 0.09827695921 0.096559335955 0.094593643839 0.092618953092 0.090871669621 0.08957121536 0.088910641857 0.089030992953 
0.089973014822 0.091639501924 0.093800734334 0.096131814252 0.098259692994 0.099811027331 0.10045637037 0.099945560489 0.098130309567 
0.094972385247 0.090537901015 0.084979931883 0.078513223637 0.071385809138 0.063852319627 0.056152656778 0.048497989958 0.041064351142 
0.033992772236 0.027394073751 0.021356086583 0.015951223337 0.011242777878 0.0072889171451 0.0041438853727 0.001856475326 0.00046642310298 
7.5894152074e-18 
