# vtk DataFile Version 5.1
vtk output
ASCII
DATASET POLYDATA
POINTS 100 float
0.058072 0.0448106 0.646334 0.0583241 0.0450781 0.646249 0.059112 0.0456691 0.645824 
0.0603469 0.0465224 0.645044 0.0618924 0.0475446 0.643888 0.0635808 0.0486226 0.64232 
0.0652324 0.0496375 0.640295 0.0666753 0.05048 0.637753 0.0677641 0.0510637 0.634627 
0.068394 0.0513356 0.63084 0.0685095 0.0512816 0.626317 0.0681062 0.050927 0.620985 
0.0672258 0.0503311 0.614784 0.0659454 0.0495782 0.607673 0.0643624 0.0487638 0.599637 
0.0625779 0.0479805 0.590695 0.0606799 0.0473038 0.580895 0.0587299 0.0467803 0.570319 
0.0567541 0.04642 0.559078 0.0547401 0.0461944 0.547301 0.0526407 0.0460386 0.535125 
0.0503819 0.0458602 0.522686 0.0478768 0.0455516 0.510107 0.0450404 0.0450049 0.497483 
0.0418049 0.0441274 0.484877 0.0381321 0.0428559 0.472315 0.034022 0.0411675 0.459782 
0.0295149 0.0390857 0.447232 0.0246877 0.0366808 0.434591 0.0196439 0.0340647 0.42177 
0.0144992 0.0313805 0.408677 0.00936455 0.0287882 0.39523 0.00432862 0.0264485 0.38137 
-0.000556879 0.0245064 0.367063 -0.00528763 0.0230766 0.352313 -0.00991063 0.0222332 0.337154 
-0.0145209 0.0220035 0.321648 -0.0192509 0.0223684 0.305877 -0.0242541 0.0232673 0.289932 
-0.0296838 0.0246087 0.273895 -0.0356705 0.0262831 0.257832 -0.0423007 0.0281784 0.241783 
-0.0495991 0.0301946 0.22575 -0.0575173 0.0322556 0.209698 -0.0659301 0.0343177 0.193557 
-0.0746414 0.0363736 0.177228 -0.0833966 0.0384502 0.160593 -0.0919038 0.0406022 0.143529 
-0.0998583 0.0429012 0.125919 -0.106969 0.0454226 0.107669 -0.112986 0.0482315 0.0887129 
-0.117719 0.0513696 0.0690239 -0.121055 0.0548449 0.0486149 -0.122964 0.0586255 0.0275373 
-0.1235 0.0626379 0.00587539 -0.122787 0.066771 -0.0162628 -0.121004 0.070884 -0.0387556 
-0.118365 0.0748183 -0.061479 -0.115091 0.0784113 -0.0843166 -0.111388 0.081511 -0.107167 
-0.107429 0.0839886 -0.129948 -0.103336 0.0857498 -0.1526 -0.0991716 0.0867403 -0.175081 
-0.0949419 0.0869487 -0.197362 -0.0906003 0.0864034 -0.219426 -0.0860612 0.0851662 -0.241253 
-0.0812174 0.0833226 -0.262819 -0.0759586 0.0809701 -0.284093 -0.0701904 0.0782066 -0.305029 
-0.0638504 0.0751192 -0.325572 -0.0569198 0.0717764 -0.345659 -0.0494297 0.0682229 -0.365223 
-0.0414609 0.0644785 -0.3842 -0.0331384 0.0605406 -0.402538 -0.0246211 0.0563903 -0.420197 
-0.0160869 0.0520011 -0.437153 -0.00771793 0.047348 -0.453402 0.00031557 0.0424177 -0.468952 
0.00786882 0.0372169 -0.483822 0.0148329 0.0317782 -0.498035 0.0211413 0.0261635 -0.511609 
0.0267714 0.0204627 -0.524548 0.031742 0.0147902 -0.536844 0.0361069 0.00927746 -0.548464 
0.0399459 0.00406316 -0.55936 0.0433535 -0.000717534 -0.569467 0.0464281 -0.00494436 -0.578712 
0.0492613 -0.00852226 -0.587022 0.0519294 -0.0113898 -0.594339 0.0544871 -0.0135247 -0.600625 
0.0569637 -0.0149463 -0.605871 0.0593632 -0.0157142 -0.610105 0.0616655 -0.0159235 -0.613394 
0.0638312 -0.0156973 -0.615835 0.0658069 -0.0151761 -0.617554 0.0675319 -0.0145072 -0.618692 
0.0689451 -0.0138315 -0.619391 0.0699915 -0.0132727 -0.619781 0.0706275 -0.0129271 -0.619967 
0.0708255 -0.0128555 -0.620015 
LINES 2 100
OFFSETS vtktypeint64
0 100 
CONNECTIVITY vtktypeint64
0 1 2 3 4 5 6 7 8 
9 10 11 12 13 14 15 16 17 
18 19 20 21 22 23 24 25 26 
27 28 29 30 31 32 33 34 35 
36 37 38 39 40 41 42 43 44 
45 46 47 48 49 50 51 52 53 
54 55 56 57 58 59 60 61 62 
63 64 65 66 67 68 69 70 71 
72 73 74 75 76 77 78 79 80 
81 82 83 84 85 86 87 88 89 
90 91 92 93 94 95 96 97 98 
99 
POINT_DATA 100
FIELD FieldData 3
_theta 1 100 double
0 0.031733259127 0.063466518254 0.095199777382 0.12693303651 0.15866629564 0.19039955476 0.22213281389 0.25386607302 
0.28559933214 0.31733259127 0.3490658504 0.38079910953 0.41253236865 0.44426562778 0.47599888691 0.50773214603 0.53946540516 
0.57119866429 0.60293192342 0.63466518254 0.66639844167 0.6981317008 0.72986495992 0.76159821905 0.79333147818 0.82506473731 
0.85679799643 0.88853125556 0.92026451469 0.95199777382 0.98373103294 1.0154642921 1.0471975512 1.0789308103 1.1106640695 
1.1423973286 1.1741305877 1.2058638468 1.237597106 1.2693303651 1.3010636242 1.3327968833 1.3645301425 1.3962634016 
1.4279966607 1.4597299198 1.491463179 1.5231964381 1.5549296972 1.5866629564 1.6183962155 1.6501294746 1.6818627337 
1.7135959929 1.745329252 1.7770625111 1.8087957702 1.8405290294 1.8722622885 1.9039955476 1.9357288068 1.9674620659 
1.999195325 2.0309285841 2.0626618433 2.0943951024 2.1261283615 2.1578616206 2.1895948798 2.2213281389 2.253061398 
2.2847946572 2.3165279163 2.3482611754 2.3799944345 2.4117276937 2.4434609528 2.4751942119 2.506927471 2.5386607302 
2.5703939893 2.6021272484 2.6338605076 2.6655937667 2.6973270258 2.7290602849 2.7607935441 2.7925268032 2.8242600623 
2.8559933214 2.8877265806 2.9194598397 2.9511930988 2.982926358 3.0146596171 3.0463928762 3.0781261353 3.1098593945 
3.1415926536 
_radius 1 100 double
5.661048867e-16 0.013473099793 0.026922152917 0.040308712373 0.053582672007 0.066679752707 0.079522061452 0.092021799355 0.104087621 
0.11563266227 0.12658294136 0.13688475373 0.14650983956 0.15545746267 0.16375302163 0.17144333014 0.17858918506 0.18525624258 
0.1915055059 0.19738485542 0.20292298461 0.20812680824 0.21298287626 0.21746262656 0.22153059894 0.22515418534 0.22831320889 
0.23100761171 0.23326176128 0.23512434499 0.23666350458 0.23795769503 0.23908356762 0.24010275529 0.24104962494 0.24192186675 
0.24267537229 0.24322439128 0.24344752313 0.24319962686 0.24232910538 0.24069919512 0.23821096689 0.23482493296 0.23057767791 
0.22558993011 0.22006302626 0.21426190419 0.20848488493 0.20302386192 0.19812257459 0.19394343419 0.19055250974 0.18792696399 
0.18598103643 0.1845995328 0.18366608536 0.18307782518 0.18274493394 0.18257956747 0.18248317344 0.18234301754 0.18204438668 
0.18149474164 0.18064809436 0.17951880006 0.17818078515 0.17675431943 0.17538512736 0.17422076773 0.17338817534 0.17297497874 
0.17301627082 0.17348803822 0.17430795117 0.17534319286 0.17642377285 0.17735896851 0.17795434725 0.17802706938 0.17741772879 
0.17599776221 0.17367229706 0.17037905154 0.16608442217 0.16077811743 0.15446760756 0.14717331818 0.13892502788 0.12975949621 
0.11971908171 0.10885106395 0.097207526749 0.084845887044 0.071830318123 0.058234237583 0.044143576968 0.02965980438 0.014901071306 
1.4523219019e-15 
_area 1 100 double
0 0.00053191236521 0.0021175001629 0.0047260575203 0.0083059245303 0.012784835795 0.018071835632 0.024060949966 0.030635972015 
0.037675227838 0.045055438994 0.052654734968 0.060355885959 0.068051095271 0.075648752389 0.083080757919 0.090307411724 0.097316497711 
0.10411470402 0.11071263954 0.11710812619 0.12327411456 0.12915616703 0.13468077018 0.13977197658 0.14437154407 0.14845697103 
0.15205233449 0.15522854669 0.15809230469 0.16076590503 0.16336251895 0.16596322198 0.16860211802 0.17126167129 0.17387277697 
0.17631243714 0.1784008888 0.1799077238 0.1805726964 0.18013934116 0.1783958677 0.17521580346 0.17058961459 0.16464012656 
0.15761924201 0.14988879371 0.1418912094 0.13411406169 0.12704494937 0.12109382605 0.11645437024 0.11300999926 0.11046171046 
0.10852239126 0.10698142635 0.10568018085 0.10448173068 0.10326720155 0.10194506435 0.10044682516 0.098709930509 0.096676288167 
0.094310738178 0.091614151745 0.088623135815 0.08540834255 0.082078804891 0.078786736635 0.075723674111 0.073105180323 0.071143105212 
0.069996180235 0.069712656278 0.070227932526 0.071398671554 0.073020208008 0.074838277771 0.076568343503 0.077922862825 0.078641883159 
0.078519731826 0.077421109535 0.075284019052 0.072112158182 0.067962680016 0.062935130418 0.057164519759 0.050817840624 0.044090976332 
0.037202835467 0.030385179253 0.023868693124 0.017867403829 0.012564270911 0.0081007979678 0.0045729730843 0.0020347848021 0.00050872797768 
2.7756422597e-17 
