# vtk DataFile Version 5.1
vtk output
ASCII
DATASET POLYDATA
POINTS 100 float
0.103702 0.0645459 0.68281 0.103837 0.0647074 0.682699 0.104294 0.0650252 0.682195 
0.10502 0.0654835 0.681264 0.105931 0.0660574 0.679859 0.106921 0.066714 0.677913 
0.107872 0.0674135 0.675353 0.108664 0.0681114 0.672094 0.109186 0.0687604 0.668055 
0.109347 0.0693127 0.663159 0.109075 0.0697223 0.65734 0.108328 0.0699472 0.650552 
0.107086 0.0699513 0.642772 0.105353 0.0697066 0.634006 0.103149 0.0691937 0.624288 
0.100502 0.068403 0.613682 0.0974456 0.0673347 0.60228 0.0940058 0.0659984 0.590191 
0.0902027 0.0644124 0.577542 0.0860452 0.0626023 0.564459 0.0815327 0.0606001 0.551066 
0.0766568 0.0584424 0.537471 0.0714062 0.0561693 0.523759 0.0657714 0.0538236 0.509988 
0.0597496 0.0514498 0.496184 0.0533494 0.0490934 0.482345 0.0465925 0.046801 0.468441 
0.0395146 0.0446195 0.454423 0.0321629 0.0425956 0.440231 0.024593 0.0407755 0.425802 
0.0168637 0.0392032 0.411078 0.00903136 0.0379195 0.396015 0.00114563 0.0369591 0.380583 
-0.00675439 0.0363491 0.364773 -0.0146412 0.036106 0.348587 -0.0224974 0.0362338 0.332041 
-0.0303122 0.0367219 0.315151 -0.0380755 0.0375445 0.297932 -0.0457704 0.0386609 0.280383 
-0.0533661 0.0400168 0.262488 -0.0608118 0.0415478 0.244211 -0.0680317 0.043183 0.225496 
-0.0749245 0.0448508 0.206272 -0.0813654 0.0464844 0.186462 -0.0872124 0.0480275 0.165994 
-0.0923154 0.0494397 0.144813 -0.0965286 0.0507 0.12289 -0.0997232 0.0518093 0.100237 
-0.1018 0.0527904 0.0769069 -0.102701 0.0536856 0.0529995 -0.102417 0.0545526 0.0286551 
-0.100989 0.0554583 0.0040465 -0.0985112 0.0564712 -0.0206344 -0.09512 0.0576535 -0.0451926 
-0.0909861 0.0590538 -0.0694472 -0.0862994 0.0607001 -0.0932473 -0.0812536 0.0625954 -0.116485 
-0.0760297 0.0647153 -0.139102 -0.0707818 0.0670082 -0.161094 -0.0656256 0.069399 -0.182505 
-0.0606312 0.0717937 -0.203419 -0.0558209 0.0740872 -0.223942 -0.0511717 0.0761713 -0.244188 
-0.046623 0.0779435 -0.264258 -0.042087 0.0793141 -0.284225 -0.0374625 0.0802133 -0.304124 
-0.0326485 0.0805944 -0.323938 -0.0275574 0.0804359 -0.343605 -0.0221259 0.0797403 -0.363018 
-0.0163229 0.0785313 -0.382041 -0.0101532 0.0768482 -0.400524 -0.00365702 0.0747405 -0.418321 
0.00309314 0.0722616 -0.435305 0.00999991 0.0694629 -0.45139 0.0169496 0.0663901 -0.466534 
0.0238216 0.06308 -0.480749 0.0304979 0.0595608 -0.494094 0.0368706 0.0558533 -0.506665 
0.0428484 0.0519738 -0.518585 0.0483597 0.0479388 -0.529981 0.0533541 0.0437692 -0.540965 
0.0578014 0.0394946 -0.551619 0.0616897 0.0351557 -0.561981 0.0650214 0.0308061 -0.572035 
0.0678106 0.0265109 -0.581714 0.0700796 0.0223439 -0.590907 0.0718565 0.018383 -0.599471 
0.0731747 0.0147039 -0.607251 0.0740717 0.0113737 -0.614103 0.0745901 0.00844477 -0.619913 
0.0747782 0.0059495 -0.624614 0.07469 0.0038974 -0.628201 0.074386 0.00227425 -0.630732 
0.0739313 0.00104388 -0.632329 0.0733942 0.000152489 -0.633164 0.0728424 -0.000464987 -0.63344 
0.0723398 -0.000877252 -0.633371 0.071942 -0.0011485 -0.633157 0.0716922 -0.0013308 -0.632959 
0.0716176 -0.00145785 -0.632882 
LINES 2 100
OFFSETS vtktypeint64
0 100 
CONNECTIVITY vtktypeint64
0 1 2 3 4 5 6 7 8 
9 10 11 12 13 14 15 16 17 
18 19 20 21 22 23 24 25 26 
27 28 29 30 31 32 33 34 35 
36 37 38 39 40 41 42 43 44 
45 46 47 48 49 50 51 52 53 
54 55 56 57 58 59 60 61 62 
63 64 65 66 67 68 69 70 71 
72 73 74 75 76 77 78 79 80 
81 82 83 84 85 86 87 88 89 
90 91 92 93 94 95 96 97 98 
99 
POINT_DATA 100
FIELD FieldData 3
_theta 1 100 double
0 0.031733259127 0.063466518254 0.095199777382 0.12693303651 0.15866629564 0.19039955476 0.22213281389 0.25386607302 
0.28559933214 0.31733259127 0.3490658504 0.38079910953 0.41253236865 0.44426562778 0.47599888691 0.50773214603 0.53946540516 
0.57119866429 0.60293192342 0.63466518254 0.66639844167 0.6981317008 0.72986495992 0.76159821905 0.79333147818 0.82506473731 
0.85679799643 0.88853125556 0.92026451469 0.95199777382 0.98373103294 1.0154642921 1.0471975512 1.0789308103 1.1106640695 
1.1423973286 1.1741305877 1.2058638468 1.237597106 1.2693303651 1.3010636242 1.3327968833 1.3645301425 1.3962634016 
1.4279966607 1.4597299198 1.491463179 1.5231964381 1.5549296972 1.5866629564 1.6183962155 1.6501294746 1.6818627337 
1.7135959929 1.745329252 1.7770625111 1.8087957702 1.8405290294 1.8722622885 1.9039955476 1.9357288068 1.9674620659 
1.999195325 2.0309285841 2.0626618433 2.0943951024 2.1261283615 2.1578616206 2.1895948798 2.2213281389 2.253061398 
2.2847946572 2.3165279163 2.3482611754 2.3799944345 2.4117276937 2.4434609528 2.4751942119 2.506927471 2.5386607302 
2.5703939893 2.6021272484 2.6338605076 2.6655937667 2.6973270258 2.7290602849 2.7607935441 2.7925268032 2.8242600623 
2.8559933214 2.8877265806 2.9194598397 2.9511930988 2.982926358 3.0146596171 3.0463928762 3.0781261353 3.1098593945 
3.1415926536 
_radius 1 100 double
7.7925972016e-16 0.015405560681 0.030654704954 0.045598414345 0.060108942329 0.074085822571 0.087457436705 0.10017861184 0.11222557441 
0.12358993867 0.13427321179 0.14428271977 0.15362917099 0.16232552232 0.17038653907 0.17782847941 0.18466861952 0.19092471508 
0.19661476919 0.2017574916 0.20637357023 0.2104874741 0.21412918571 0.21733519346 0.22014828811 0.22261607281 0.22478841283 
0.2267141779 0.22843757536 0.22999426349 0.231407414 0.23268400968 0.23381187113 0.23475809956 0.23546968991 0.23587692438 
0.23589977933 0.23545703483 0.23447720332 0.23290993782 0.230736339 0.22797659235 0.22469363723 0.22099209178 0.21701239435 
0.2129209617 0.20889789626 0.20512414126 0.20176978477 0.19898441631 0.19688925812 0.19556977852 0.19506742896 0.19537054043 
0.19640679939 0.19804152932 0.20008561368 0.20231407975 0.20449253834 0.20640586009 0.20788306465 0.20881430119 0.20915853022 
0.20894255048 0.20825287359 0.20722209647 0.20601148792 0.20479169791 0.20372359322 0.202940976 0.20253639597 0.20255067371 
0.20296641869 0.20370595616 0.20463445671 0.20556900803 0.2062934433 0.20657734251 0.20619658745 0.20495264973 0.20268827245 
0.19929796007 0.19473244625 0.1889970078 0.18214416129 0.17426190821 0.16545922385 0.15585083314 0.14554341618 0.13462518886 
0.12316029065 0.11118862399 0.098730849635 0.08579733766 0.07239918616 0.058559080936 0.04431984344 0.029749003962 0.014938554438 
1.357877882e-15 
_area 1 100 double
0 0.00062024781597 0.0024552282777 0.0054307837818 0.0094328404206 0.014318948881 0.019930330028 0.026102652418 0.032674957946 
0.03949694031 0.04643480112 0.053375472132 0.060228724756 0.066926870292 0.073422146914 0.079682278399 0.085685245208 0.091415024059 
0.096860216772 0.10201643788 0.10689151882 0.11151107276 0.11592104259 0.1201833719 0.12436209 0.12850208488 0.13260997496 
0.1366479125 0.1405435199 0.14421064603 0.14757204627 0.15057528157 0.15319678442 0.15543431413 0.15729082583 0.1587476841 
0.15972140635 0.16005255165 0.15957062416 0.15815432083 0.15575353453 0.15239431425 0.14817635773 0.14326315573 0.13786323948 
0.13220346203 0.12650030678 0.12093960507 0.11567171558 0.11081910999 0.10649006054 0.10279989586 0.099906174703 0.097959751024 
0.096994906735 0.096991350483 0.097827970644 0.099222950818 0.10078622491 0.10212548662 0.10293602421 0.1030467685 0.10241340659 
0.10108113112 0.099177743848 0.096921612148 0.094601679379 0.092542397019 0.091058106848 0.090392160194 0.090700756379 0.091901195317 
0.093863494457 0.096440839102 0.099442911194 0.10262314112 0.10567888657 0.10826768111 0.11003852871 0.1106730149 0.10992745925 
0.1076661645 0.10387763807 0.098669960512 0.092246967398 0.084871904953 0.076828152889 0.068386591485 0.059786229722 0.051229690936 
0.042889865312 0.034920866378 0.027466910831 0.020666070884 0.014649437719 0.0095379455787 0.0054386891709 0.0024412766105 0.00061401256412 
1.3904919332e-17 
