# vtk DataFile Version 5.1
vtk output
ASCII
DATASET POLYDATA
POINTS 100 float
0.074122 0.0454263 0.643758 0.0740471 0.0456635 0.643486 0.0738827 0.0462401 0.642501 
0.0736221 0.0471193 0.640831 0.0732558 0.0482429 0.638516 0.0727745 0.0495353 0.635607 
0.0721717 0.0509093 0.632151 0.0714467 0.0522728 0.62819 0.070606 0.0535354 0.62375 
0.0696636 0.0546148 0.618838 0.0686396 0.055442 0.613444 0.0675567 0.0559657 0.607539 
0.0664364 0.0561545 0.601082 0.0652929 0.0559978 0.594024 0.0641286 0.0555049 0.586323 
0.0629297 0.0547022 0.577945 0.0616632 0.0536297 0.568876 0.0602767 0.0523367 0.559123 
0.058701 0.0508768 0.54872 0.056854 0.0493036 0.53772 0.0546485 0.0476671 0.526197 
0.0519996 0.0460101 0.514232 0.0488339 0.0443673 0.501909 0.0450972 0.0427645 0.489303 
0.0407608 0.0412193 0.476473 0.0358248 0.0397429 0.463458 0.0303191 0.0383424 0.450273 
0.0243001 0.0370238 0.436908 0.0178449 0.0357945 0.423337 0.0110433 0.0346655 0.409519 
0.00398841 0.0336529 0.395412 -0.00323256 0.0327789 0.380974 -0.0105467 0.0320709 0.366176 
-0.0179007 0.0315608 0.351003 -0.0252636 0.0312825 0.335457 -0.0326254 0.0312694 0.319556 
-0.0399922 0.0315516 0.303325 -0.0473789 0.0321529 0.286793 -0.0547993 0.0330884 0.269982 
-0.0622558 0.0343627 0.252899 -0.0697301 0.0359688 0.235529 -0.0771757 0.0378881 0.217835 
-0.0845137 0.0400914 0.199752 -0.0916332 0.0425404 0.181198 -0.0983948 0.0451897 0.162081 
-0.104639 0.04799 0.142308 -0.110199 0.0508903 0.1218 -0.11491 0.053841 0.100509 
-0.118625 0.0567954 0.0784243 -0.12123 0.059712 0.0555816 -0.122647 0.0625548 0.0320678 
-0.122845 0.0652938 0.00801665 -0.121842 0.0679046 -0.0163988 -0.119698 0.0703674 -0.0409793 
-0.116513 0.0726654 -0.0655154 -0.112411 0.0747841 -0.0898054 -0.107536 0.0767092 -0.113672 
-0.102032 0.0784259 -0.136975 -0.0960348 0.079918 -0.159624 -0.0896613 0.0811679 -0.181579 
-0.0830046 0.0821561 -0.202851 -0.0761296 0.0828624 -0.22349 -0.0690748 0.0832664 -0.243578 
-0.0618556 0.0833487 -0.263207 -0.054471 0.0830918 -0.282466 -0.0469108 0.0824817 -0.301428 
-0.0391637 0.0815081 -0.320133 -0.0312236 0.0801657 -0.338584 -0.0230946 0.078454 -0.356749 
-0.0147931 0.0763781 -0.374559 -0.00634873 0.0739482 -0.391922 0.00219894 0.0711797 -0.408737 
0.0108035 0.0680929 -0.424907 0.0194167 0.0647127 -0.440351 0.0279929 0.0610689 -0.455021 
0.0364927 0.0571955 -0.468905 0.0448848 0.053131 -0.48203 0.0531467 0.0489186 -0.494462 
0.0612623 0.0446056 -0.506288 0.0692186 0.0402432 -0.517613 0.0770019 0.0358859 -0.528537 
0.0845924 0.0315905 -0.539146 0.0919611 0.0274144 -0.549493 0.0990673 0.0234143 -0.559595 
0.105858 0.0196434 -0.569423 0.112272 0.0161495 -0.578911 0.11824 0.0129725 -0.587957 
0.123695 0.0101423 -0.596442 0.128577 0.00767722 -0.604239 0.132842 0.00558259 -0.611238 
0.136466 0.0038507 -0.617351 0.13945 0.00246129 -0.622531 0.141819 0.00138303 -0.626774 
0.143627 0.000575903 -0.630122 0.144944 -5.7491e-06 -0.632656 0.145854 -0.000409661 -0.634483 
0.146446 -0.000681867 -0.635727 0.146799 -0.000863011 -0.636505 0.146981 -0.000985056 -0.636916 
0.147033 -0.00106867 -0.637025 
LINES 2 100
OFFSETS vtktypeint64
0 100 
CONNECTIVITY vtktypeint64
0 1 2 3 4 5 6 7 8 
9 10 11 12 13 14 15 16 17 
18 19 20 21 22 23 24 25 26 
27 28 29 30 31 32 33 34 35 
36 37 38 39 40 41 42 43 44 
45 46 47 48 49 50 51 52 53 
54 55 56 57 58 59 60 61 62 
63 64 65 66 67 68 69 70 71 
72 73 74 75 76 77 78 79 80 
81 82 83 84 85 86 87 88 89 
90 91 92 93 94 95 96 97 98 
99 
POINT_DATA 100
FIELD FieldData 3
_theta 1 100 double
0 0.031733259127 0.063466518254 0.095199777382 0.12693303651 0.15866629564 0.19039955476 0.22213281389 0.25386607302 
0.28559933214 0.31733259127 0.3490658504 0.38079910953 0.41253236865 0.44426562778 0.47599888691 0.50773214603 0.53946540516 
0.57119866429 0.60293192342 0.63466518254 0.66639844167 0.6981317008 0.72986495992 0.76159821905 0.79333147818 0.82506473731 
0.85679799643 0.88853125556 0.92026451469 0.95199777382 0.98373103294 1.0154642921 1.0471975512 1.0789308103 1.1106640695 
1.1423973286 1.1741305877 1.2058638468 1.237597106 1.2693303651 1.3010636242 1.3327968833 1.3645301425 1.3962634016 
1.4279966607 1.4597299198 1.491463179 1.5231964381 1.5549296972 1.5866629564 1.6183962155 1.6501294746 1.6818627337 
1.7135959929 1.745329252 1.7770625111 1.8087957702 1.8405290294 1.8722622885 1.9039955476 1.9357288068 1.9674620659 
1.999195325 2.0309285841 2.0626618433 2.0943951024 2.1261283615 2.1578616206 2.1895948798 2.2213281389 2.253061398 
2.2847946572 2.3165279163 2.3482611754 2.3799944345 2.4117276937 2.4434609528 2.4751942119 2.506927471 2.5386607302 
2.5703939893 2.6021272484 2.6338605076 2.6655937667 2.6973270258 2.7290602849 2.7607935441 2.7925268032 2.8242600623 
2.8559933214 2.8877265806 2.9194598397 2.9511930988 2.982926358 3.0146596171 3.0463928762 3.0781261353 3.1098593945 
3.1415926536 
_radius 1 100 double
1.4288057044e-16 0.014119853454 0.028142776107 0.041970938161 0.055515571932 0.068700328565 0.081463309954 0.093757715062 0.10555121145 
0.11682423715 0.12756746769 0.13777869355 0.14745939114 0.15661134806 0.1652337925 0.17332151697 0.18086441846 0.18784867344 
0.19425945726 0.20008478831 0.20531982162 0.20997079349 0.21405783826 0.21761605091 0.22069443701 0.22335274405 0.22565652671 
0.22767106102 0.22945481503 0.23105313317 0.23249270441 0.23377735458 0.23488573002 0.23577143456 0.23636605141 0.23658519906 
0.23633737372 0.23553488904 0.23410580122 0.23200537539 0.22922550101 0.22580059909 0.22180903351 0.2173697723 0.21263484821 
0.20777878571 0.20298641718 0.19844039616 0.19430938596 0.19073755963 0.18783581518 0.18567499125 0.18428132262 0.18363441743 
0.1836682084 0.18427551509 0.18531672683 0.18663240526 0.18805848424 0.18944183306 0.19065380882 0.19160008368 0.19222603904 
0.19251785103 0.19249978948 0.19222827343 0.19178311978 0.19125644912 0.19073999991 0.19031208316 0.19002585556 0.18990070326 
0.18991811813 0.19002257118 0.19012685794 0.19012059111 0.18988018417 0.18927879978 0.18819514297 0.18652044905 0.18416341491 
0.18105310729 0.17714004761 0.17239572732 0.16681078062 0.16039200622 0.1531584718 0.14513709333 0.13635830322 0.1268525853 
0.11664863388 0.10577362823 0.094255642862 0.082127674672 0.069432337747 0.056226097195 0.042582031459 0.028590464165 0.014357259673 
1.2651785991e-15 
_area 1 100 double
0 0.0005491349513 0.0021821300979 0.0048560606873 0.0085005304352 0.013019836502 0.018296810606 0.02419885707 0.030586353293 
0.037322841972 0.044285368096 0.051372228087 0.058505182918 0.06562490561 0.07268181756 0.079627035173 0.086407554211 0.092966752165 
0.099248392329 0.10520127623 0.11078285109 0.11596255887 0.12072692096 0.12508590566 0.12907579155 0.13275253452 0.13617438607 
0.13938088943 0.14238014031 0.14515069542 0.14765344953 0.14984387852 0.15167823162 0.15311232413 0.1540951288 0.15456134089 
0.15442782534 0.153598564 0.15198061924 0.14950817172 0.14616579896 0.14200257813 0.13713439729 0.13173554442 0.12602102618 
0.12022222455 0.11456089363 0.10922737299 0.10436712762 0.1000767212 0.09640768394 0.093374854669 0.09096468998 0.08913959063 
0.087842237754 0.087013243902 0.086598153483 0.086518114657 0.086692678278 0.087032215253 0.087433324567 0.087785958821 0.087987250957 
0.087958918272 0.087661914379 0.087101903813 0.086325578938 0.085411524403 0.084458744348 0.083575166946 0.082868095321 0.082427489677 
0.082308877146 0.082573104768 0.083102754618 0.083722523164 0.08427148386 0.084608369314 0.084603326625 0.084132108537 0.083076352542 
0.081330458221 0.078812750438 0.075477006726 0.071321094051 0.066390955015 0.060779438098 0.054620531264 0.048080409276 0.041346913603 
0.034618577201 0.028093627921 0.021959169078 0.016381110836 0.011496069054 0.0074067830142 0.0041822024921 0.0018622604654 0.00046592200972 
2.8114614891e-17 
