# vtk DataFile Version 5.1
vtk output
ASCII
DATASET POLYDATA
POINTS 100 float
0.07986 0.0577437 0.6992 0.0800114 0.0580941 0.698798 0.0805022 0.0589352 0.697467 
0.0812914 0.060177 0.695262 0.0823146 0.0616827 0.692263 0.0834899 0.0632854 0.688569 
0.0847257 0.0648084 0.684284 0.0859289 0.066086 0.679506 0.0870126 0.0669833 0.674311 
0.087903 0.0674113 0.66875 0.0885446 0.0673361 0.662838 0.0889022 0.0667808 0.656555 
0.0889615 0.0658209 0.649851 0.0887261 0.0645722 0.642653 0.0882132 0.0631747 0.634879 
0.0874467 0.0617739 0.626445 0.086451 0.0605019 0.617286 0.0852437 0.0594611 0.607361 
0.08383 0.058712 0.596665 0.0821988 0.0582679 0.585232 0.080321 0.0580952 0.573135 
0.0781508 0.0581205 0.56048 0.075629 0.0582428 0.5474 0.0726888 0.058349 0.534038 
0.0692631 0.0583308 0.520539 0.0652927 0.0580996 0.50703 0.0607338 0.0575998 0.493613 
0.055565 0.0568155 0.480353 0.0497913 0.0557728 0.467273 0.0434468 0.0545357 0.454353 
0.0365937 0.0531968 0.441531 0.0293184 0.0518648 0.428713 0.0217258 0.0506498 0.415779 
0.0139311 0.0496488 0.402597 0.00605135 0.0489337 0.389029 -0.00180386 0.0485428 0.374949 
-0.00953961 0.0484774 0.360243 -0.0170815 0.0487037 0.344822 -0.0243788 0.0491592 0.328618 
-0.0314045 0.0497631 0.31159 -0.0381521 0.0504286 0.293719 -0.0446306 0.0510763 0.275005 
-0.050857 0.0516446 0.255462 -0.0568473 0.0520989 0.235113 -0.0626088 0.0524353 0.213989 
-0.0681325 0.0526799 0.192123 -0.0733878 0.0528842 0.169553 -0.0783205 0.0531165 0.146319 
-0.0828535 0.0534508 0.122468 -0.0868908 0.0539553 0.0980562 -0.0903247 0.0546824 0.0731476 
-0.0930448 0.0556602 0.0478202 -0.0949486 0.056888 0.0221647 -0.0959514 0.0583368 -0.00371616 
-0.0959956 0.0599524 -0.0297098 -0.0950583 0.0616629 -0.0556976 -0.0931543 0.0633883 -0.0815596 
-0.0903373 0.0650507 -0.107179 -0.0866964 0.0665837 -0.132449 -0.0823497 0.06794 -0.157276 
-0.0774354 0.0690953 -0.18158 -0.0721008 0.0700492 -0.205302 -0.0664914 0.0708213 -0.228401 
-0.0607407 0.0714448 -0.250851 -0.0549611 0.0719581 -0.272641 -0.0492386 0.0723952 -0.293772 
-0.04363 0.0727771 -0.314252 -0.0381639 0.0731051 -0.334095 -0.0328445 0.0733577 -0.353315 
-0.0276587 0.0734908 -0.371929 -0.022584 0.0734422 -0.389951 -0.0175974 0.0731385 -0.407399 
-0.0126836 0.0725055 -0.424286 -0.00784166 0.0714783 -0.44063 -0.00308931 0.070012 -0.456446 
0.00153619 0.0680892 -0.47175 0.0059797 0.0657254 -0.486556 0.010173 0.06297 -0.500875 
0.0140414 0.0599029 -0.51471 0.0175123 0.0566284 -0.528055 0.0205234 0.0532653 -0.54089 
0.0230301 0.0499357 -0.553184 0.0250115 0.0467539 -0.564888 0.0264738 0.0438159 -0.575942 
0.02745 0.0411922 -0.586278 0.0279981 0.0389233 -0.595821 0.028195 0.0370191 -0.604501 
0.0281296 0.0354619 -0.612258 0.0278945 0.0342123 -0.619048 0.0275769 0.033217 -0.624853 
0.0272514 0.0324178 -0.629683 0.0269746 0.0317592 -0.633581 0.0267809 0.0311955 -0.636617 
0.0266829 0.0306949 -0.63889 0.0266728 0.0302405 -0.640515 0.0267278 0.0298296 -0.641618 
0.0268155 0.0294703 -0.642322 0.0269013 0.029176 -0.642739 0.026955 0.0289611 -0.642956 
0.0269565 0.0288356 -0.643029 
LINES 2 100
OFFSETS vtktypeint64
0 100 
CONNECTIVITY vtktypeint64
0 1 2 3 4 5 6 7 8 
9 10 11 12 13 14 15 16 17 
18 19 20 21 22 23 24 25 26 
27 28 29 30 31 32 33 34 35 
36 37 38 39 40 41 42 43 44 
45 46 47 48 49 50 51 52 53 
54 55 56 57 58 59 60 61 62 
63 64 65 66 67 68 69 70 71 
72 73 74 75 76 77 78 79 80 
81 82 83 84 85 86 87 88 89 
90 91 92 93 94 95 96 97 98 
99 
POINT_DATA 100
FIELD FieldData 3
_theta 1 100 double
0 0.031733259127 0.063466518254 0.095199777382 0.12693303651 0.15866629564 0.19039955476 0.22213281389 0.25386607302 
0.28559933214 0.31733259127 0.3490658504 0.38079910953 0.41253236865 0.44426562778 0.47599888691 0.50773214603 0.53946540516 
0.57119866429 0.60293192342 0.63466518254 0.66639844167 0.6981317008 0.72986495992 0.76159821905 0.79333147818 0.82506473731 
0.85679799643 0.88853125556 0.92026451469 0.95199777382 0.98373103294 1.0154642921 1.0471975512 1.0789308103 1.1106640695 
1.1423973286 1.1741305877 1.2058638468 1.237597106 1.2693303651 1.3010636242 1.3327968833 1.3645301425 1.3962634016 
1.4279966607 1.4597299198 1.491463179 1.5231964381 1.5549296972 1.5866629564 1.6183962155 1.6501294746 1.6818627337 
1.7135959929 1.745329252 1.7770625111 1.8087957702 1.8405290294 1.8722622885 1.9039955476 1.9357288068 1.9674620659 
1.999195325 2.0309285841 2.0626618433 2.0943951024 2.1261283615 2.1578616206 2.1895948798 2.2213281389 2.253061398 
2.2847946572 2.3165279163 2.3482611754 2.3799944345 2.4117276937 2.4434609528 2.4751942119 2.506927471 2.5386607302 
2.5703939893 2.6021272484 2.6338605076 2.6655937667 2.6973270258 2.7290602849 2.7607935441 2.7925268032 2.8242600623 
2.8559933214 2.8877265806 2.9194598397 2.9511930988 2.982926358 3.0146596171 3.0463928762 3.0781261353 3.1098593945 
3.1415926536 
_radius 1 100 double
1.2354349359e-16 0.012433392964 0.024829160568 0.037143978222 0.049335168751 0.061360667241 0.073178677914 0.084747336215 0.096024553426 
0.10696793697 0.11753449822 0.12767995061 0.13735774091 0.14651836545 0.15510977908 0.16307964739 0.17037978838 0.17697250443 
0.18283782045 0.18798013871 0.19243265677 0.19625814857 0.19954536112 0.20240122118 0.2049400537 0.20727175819 0.20949103413 
0.21166915558 0.21384871541 0.21604077406 0.21822352729 0.22034210036 0.22230998289 0.22401325877 0.22531866576 0.22608564553 
0.22618135704 0.22549666512 0.22396070932 0.22155183761 0.21830330406 0.21430298043 0.20968725103 0.20463011335 0.19932916717 
0.19399050312 0.18881437979 0.18398301488 0.17965105577 0.17593876183 0.17292789819 0.17066059768 0.16914141523 0.16834216869 
0.16820835064 0.16866561961 0.16962534838 0.17098901993 0.17265190887 0.17450669315 0.1764474025 0.17837363489 0.18019457438 
0.18183224384 0.18322363101 0.18432167691 0.18509543482 0.18552987475 0.18562575279 0.18539966231 0.18488388515 0.18412515146 
0.18318120228 0.18211438978 0.18098241716 0.17982737172 0.17866499831 0.17747638664 0.17620384686 0.17475190316 0.1729933396 
0.17077935813 0.16795233926 0.16435951391 0.15986603426 0.15436632757 0.14779303448 0.14012311334 0.13138079163 0.12163703884 
0.11100525266 0.099633001579 0.087689999676 0.075352999635 0.062788946566 0.050138480458 0.037502541623 0.024935037998 0.012443772453 
1.5103515235e-15 
_area 1 100 double
0 0.00042697173166 0.0016973033944 0.0037807027074 0.0066308769884 0.010189970178 0.01439238253 0.019167474715 0.02444134952 
0.030137956192 0.036179379955 0.042484916166 0.048968744194 0.055536700732 0.062083576779 0.068493139417 0.07464318428 0.08041697818 
0.085720558212 0.090503052135 0.094775028264 0.098618108655 0.10217818569 0.10563726854 0.10916927354 0.11289803546 0.11687569683 
0.12108545978 0.12546146772 0.12991552975 0.1343589583 0.13870692945 0.14285889046 0.14666743682 0.14992569623 0.15238891141 
0.1538136872 0.15399336663 0.15278386687 0.15012277223 0.14604283418 0.14067767277 0.13425667296 0.1270877653 0.11952941998 
0.11195548943 0.10471756967 0.098108638023 0.09233227798 0.087487993803 0.083579094038 0.080533858561 0.078233483195 0.076544847323 
0.075350999618 0.074626696436 0.074296176526 0.074296111211 0.074579311145 0.075102551864 0.075799875379 0.076575335764 0.077314173388 
0.077903228961 0.078285379169 0.078439685292 0.078421909214 0.078218618943 0.077833310497 0.077256770239 0.076495297805 0.075584117049 
0.074588089922 0.073598704819 0.072730467653 0.072118561843 0.071954547633 0.072449593833 0.073218679778 0.073966119227 0.074435370664 
0.074386104267 0.073604844072 0.071920489291 0.069218884102 0.065454459246 0.060658265626 0.054941604625 0.048493584183 0.041570412384 
0.034475120111 0.027528661182 0.021036007285 0.015252868077 0.010359420164 0.0064468789905 0.0035211460001 0.0015249365715 0.00037453962292 
7.3742684254e-18 
