# vtk DataFile Version 5.1
vtk output
ASCII
DATASET POLYDATA
POINTS 100 float
0.130414 0.0451211 0.64114 0.130589 0.0452887 0.641022 0.131168 0.0455984 0.640572 
0.132083 0.0460367 0.639796 0.133229 0.0465838 0.638699 0.134472 0.0472151 0.637285 
0.135665 0.0479034 0.635545 0.136656 0.0486203 0.633458 0.137308 0.049338 0.630985 
0.137505 0.0500313 0.628069 0.137162 0.0506774 0.624639 0.136233 0.0512571 0.620613 
0.134705 0.0517541 0.61591 0.132597 0.0521543 0.610457 0.129956 0.052445 0.604199 
0.12684 0.0526142 0.597111 0.123317 0.0526498 0.5892 0.119445 0.0525396 0.580512 
0.115273 0.0522716 0.571127 0.110827 0.0518349 0.561153 0.106113 0.0512217 0.550718 
0.101116 0.0504286 0.539953 0.0958065 0.0494594 0.528984 0.0901458 0.0483263 0.517913 
0.0840967 0.0470513 0.506809 0.0776327 0.045667 0.495699 0.0707455 0.0442154 0.48457 
0.0634516 0.0427465 0.473366 0.0557948 0.0413153 0.462 0.047845 0.0399774 0.450365 
0.0396935 0.0387856 0.43835 0.0314442 0.0377842 0.42585 0.0232034 0.0370057 0.412787 
0.0150678 0.0364673 0.399113 0.00711313 0.0361692 0.384821 -0.000615195 0.0360944 0.369942 
-0.00810794 0.0362109 0.35454 -0.0153937 0.0364753 0.3387 -0.0225356 0.0368378 0.322515 
-0.0296231 0.0372487 0.306068 -0.0367593 0.0376652 0.289418 -0.0440462 0.038057 0.272589 
-0.0515672 0.038412 0.255558 -0.0593711 0.038739 0.238254 -0.0674583 0.0390684 0.220565 
-0.0757708 0.0394504 0.202348 -0.0841883 0.0399503 0.183439 -0.0925297 0.0406413 0.163681 
-0.100562 0.0415965 0.142936 -0.108015 0.0428787 0.121107 -0.114599 0.0445317 0.0981543 
-0.120028 0.0465726 0.0740997 -0.124044 0.0489859 0.0490339 -0.126435 0.0517213 0.0231098 
-0.127055 0.0546948 -0.00346811 -0.125837 0.0577938 -0.0304599 -0.122798 0.0608851 -0.0576098 
-0.11804 0.0638261 -0.0846669 -0.111739 0.0664772 -0.111404 -0.10413 0.0687146 -0.137636 
-0.0954936 0.0704423 -0.163226 -0.0861257 0.0716013 -0.188095 -0.0763207 0.0721753 -0.212217 
-0.0663477 0.0721927 -0.235616 -0.0564331 0.0717227 -0.258349 -0.0467482 0.070868 -0.280496 
-0.0374024 0.0697534 -0.302143 -0.0284433 0.0685117 -0.323368 -0.0198623 0.0672684 -0.344228 
-0.011606 0.0661269 -0.364755 -0.00359028 0.0651563 -0.384949 0.00428278 0.0643825 -0.404782 
0.0121089 0.063784 -0.424202 0.0199672 0.0632937 -0.44314 0.0279088 0.0628059 -0.461521 
0.0359507 0.0621877 -0.479269 0.0440734 0.0612948 -0.49632 0.0522238 0.0599889 -0.51262 
0.0603222 0.0581555 -0.528136 0.0682721 0.05572 -0.542845 0.0759712 0.0526597 -0.556738 
0.0833229 0.0490108 -0.569814 0.0902462 0.0448694 -0.582073 0.0966831 0.0403862 -0.593511 
0.102602 0.0357543 -0.60412 0.108001 0.0311926 -0.613884 0.112898 0.0269261 -0.622782 
0.117334 0.0231642 -0.630792 0.121358 0.0200803 -0.637895 0.125021 0.0177944 -0.644084 
0.128369 0.0163614 -0.649364 0.131433 0.0157647 -0.653764 0.13423 0.0159179 -0.657331 
0.136755 0.0166738 -0.660137 0.138987 0.0178388 -0.662267 0.140893 0.0191931 -0.663818 
0.142431 0.0205134 -0.664887 0.143559 0.0215961 -0.665565 0.144242 0.0222783 -0.665923 
0.144456 0.022455 -0.666009 
LINES 2 100
OFFSETS vtktypeint64
0 100 
CONNECTIVITY vtktypeint64
0 1 2 3 4 5 6 7 8 
9 10 11 12 13 14 15 16 17 
18 19 20 21 22 23 24 25 26 
27 28 29 30 31 32 33 34 35 
36 37 38 39 40 41 42 43 44 
45 46 47 48 49 50 51 52 53 
54 55 56 57 58 59 60 61 62 
63 64 65 66 67 68 69 70 71 
72 73 74 75 76 77 78 79 80 
81 82 83 84 85 86 87 88 89 
90 91 92 93 94 95 96 97 98 
99 
POINT_DATA 100
FIELD FieldData 3
_theta 1 100 double
0 0.031733259127 0.063466518254 0.095199777382 0.12693303651 0.15866629564 0.19039955476 0.22213281389 0.25386607302 
0.28559933214 0.31733259127 0.3490658504 0.38079910953 0.41253236865 0.44426562778 0.47599888691 0.50773214603 0.53946540516 
0.57119866429 0.60293192342 0.63466518254 0.66639844167 0.6981317008 0.72986495992 0.76159821905 0.79333147818 0.82506473731 
0.85679799643 0.88853125556 0.92026451469 0.95199777382 0.98373103294 1.0154642921 1.0471975512 1.0789308103 1.1106640695 
1.1423973286 1.1741305877 1.2058638468 1.237597106 1.2693303651 1.3010636242 1.3327968833 1.3645301425 1.3962634016 
1.4279966607 1.4597299198 1.491463179 1.5231964381 1.5549296972 1.5866629564 1.6183962155 1.6501294746 1.6818627337 
1.7135959929 1.745329252 1.7770625111 1.8087957702 1.8405290294 1.8722622885 1.9039955476 1.9357288068 1.9674620659 
1.999195325 2.0309285841 2.0626618433 2.0943951024 2.1261283615 2.1578616206 2.1895948798 2.2213281389 2.253061398 
2.2847946572 2.3165279163 2.3482611754 2.3799944345 2.4117276937 2.4434609528 2.4751942119 2.506927471 2.5386607302 
2.5703939893 2.6021272484 2.6338605076 2.6655937667 2.6973270258 2.7290602849 2.7607935441 2.7925268032 2.8242600623 
2.8559933214 2.8877265806 2.9194598397 2.9511930988 2.982926358 3.0146596171 3.0463928762 3.0781261353 3.1098593945 
3.1415926536 
_radius 1 100 double
6.0112611473e-16 0.016129097046 0.032072325235 0.047650756846 0.062708234818 0.077120541348 0.090801675833 0.10370658216 0.11582999789 
0.12720153766 0.1378776324 0.14793143309 0.15744211453 0.16648504729 0.1751239933 0.18340590602 0.19135827877 0.19898851679 
0.20628467745 0.21321715267 0.21974130354 0.22580141474 0.23133635974 0.23628698307 0.2406045631 0.24425909279 0.24724576248 
0.24958809693 0.25133669864 0.25256336993 0.25335133089 0.25378308343 0.25392798409 0.2538316476 0.25350890363 0.25294130374 
0.25207936152 0.25084904551 0.24916164893 0.24692597119 0.24406160377 0.24051191715 0.236255166 0.23131215221 0.22574925275 
0.21967631085 0.21323974 0.20661201048 0.19997935536 0.19352993055 0.18744450219 0.18189057917 0.17701882447 0.17295879051 
0.16981120017 0.16763635614 0.16644112597 0.16616870245 0.16669582683 0.16784130119 0.16938651267 0.17110387918 0.17278563137 
0.17426568119 0.17543080175 0.17622129207 0.17662389325 0.17666081512 0.17637867609 0.17583988977 0.17511685428 0.17428752332 
0.17343056246 0.17261895584 0.17191181872 0.17134496817 0.17092159885 0.17060530248 0.17031816037 0.16994552846 0.16934632263 
0.16836539988 0.16684495607 0.16463376498 0.16159455882 0.1576101489 0.15258845618 0.14646615356 0.13921050461 0.13081922681 
0.12131860168 0.11076036323 0.099217992952 0.086782944432 0.073561113011 0.059669671995 0.045234285272 0.030386680378 0.015262581086 
5.9712395375e-16 
_area 1 100 double
0 0.0006365809702 0.0025106330324 0.0055219612609 0.0095244877753 0.014351284194 0.019839203773 0.02584713497 0.032264614112 
0.039010901978 0.046027195528 0.053265601464 0.060678144745 0.068208390929 0.075787866705 0.083339080211 0.090785694942 0.098067798553 
0.10515686544 0.11206270289 0.11882560583 0.12549244789 0.13208399656 0.13856743781 0.14484768916 0.15078257023 0.15621531093 
0.16101104601 0.16508538867 0.16841911656 0.17105797122 0.17309903022 0.17466639224 0.1758796212 0.17681783338 0.17748358687 
0.17778140994 0.17753018871 0.17650433226 0.17448251932 0.17129234978 0.16684648603 0.16116591443 0.15438612342 0.14674442538 
0.13855075542 0.13014871182 0.12187612573 0.11403789565 0.10687130425 0.10046250564 0.094849992234 0.090002175503 0.085860448208 
0.082346000142 0.079389434752 0.076967657221 0.075135774312 0.074098581469 0.073795225263 0.073831739189 0.073949278388 0.073989917308 
0.073866968426 0.073538888252 0.072987232273 0.072205231466 0.0711999019 0.070004630005 0.068688389279 0.067352158219 0.06611161317 
0.065071480886 0.064305851292 0.063855337996 0.063737148159 0.063955979673 0.064506815857 0.065364626765 0.066429897626 0.067475339358 
0.068242150577 0.068511148748 0.068100921288 0.066865712116 0.064701977919 0.061558337553 0.057444490241 0.052436069566 0.04667402329 
0.040358286249 0.033735812427 0.027083249969 0.020685614888 0.01481394608 0.0097059384242 0.0055531224056 0.0024962802557 0.00062813379494 
3.4375563238e-17 
