# vtk DataFile Version 5.1
vtk output
ASCII
DATASET POLYDATA
POINTS 100 float
0.198369 0.0455348 0.755351 0.198129 0.0457365 0.755181 0.197419 0.0461836 0.754536 
0.196245 0.0468435 0.753419 0.194617 0.0476672 0.751832 0.192547 0.048597 0.74977 
0.190053 0.0495736 0.747221 0.187157 0.050544 0.744161 0.183882 0.0514685 0.740546 
0.180257 0.0523245 0.736322 0.17631 0.0531079 0.73142 0.17207 0.0538316 0.725767 
0.167564 0.0545207 0.719291 0.162817 0.0552052 0.711936 0.157847 0.0559125 0.703665 
0.152666 0.0566585 0.694475 0.147277 0.0574417 0.684396 0.141676 0.0582381 0.673497 
0.13585 0.0590008 0.661883 0.12978 0.0596622 0.649682 0.123443 0.0601402 0.637043 
0.116817 0.0603466 0.624112 0.10988 0.0601979 0.611024 0.10262 0.0596257 0.597887 
0.0950373 0.0585865 0.584772 0.0871448 0.0570691 0.571701 0.0789738 0.055098 0.558653 
0.0705731 0.0527335 0.545561 0.062008 0.0500676 0.532323 0.0533572 0.0472158 0.518815 
0.0447074 0.0443067 0.504908 0.0361477 0.0414703 0.490479 0.0277614 0.0388264 0.475427 
0.0196192 0.0364743 0.459686 0.011772 0.0344857 0.443225 0.00424584 0.0329008 0.426053 
-0.00296101 0.0317289 0.408208 -0.0098781 0.030952 0.389754 -0.0165597 0.0305321 0.370759 
-0.0230783 0.0304202 0.351287 -0.029516 0.0305659 0.331379 -0.0359532 0.0309259 0.311047 
-0.042457 0.0314712 0.290267 -0.0490696 0.0321904 0.268975 -0.0557987 0.0330904 0.247077 
-0.0626105 0.0341934 0.224461 -0.069427 0.0355302 0.201007 -0.0761274 0.0371333 0.176611 
-0.0825547 0.0390277 0.151198 -0.0885256 0.0412229 0.12474 -0.0938456 0.0437069 0.0972613 
-0.0983243 0.0464427 0.0688506 -0.101792 0.049368 0.0396519 -0.104117 0.0523991 0.00985894 
-0.105216 0.0554369 -0.0203003 -0.105061 0.0583752 -0.0505819 -0.103688 0.0611106 -0.080746 
-0.101189 0.0635517 -0.110576 -0.097703 0.0656265 -0.139897 -0.0934068 0.067288 -0.168581 
-0.0884951 0.0685157 -0.196561 -0.0831634 0.0693147 -0.223822 -0.0775897 0.0697108 -0.250397 
-0.0719191 0.0697438 -0.276353 -0.0662525 0.0694594 -0.301775 -0.0606407 0.0689005 -0.32675 
-0.0550845 0.0681003 -0.351351 -0.0495407 0.0670771 -0.375623 -0.0439338 0.0658321 -0.399577 
-0.0381715 0.0643506 -0.423187 -0.032162 0.0626055 -0.446392 -0.0258316 0.0605636 -0.469105 
-0.0191394 0.0581934 -0.491225 -0.0120893 0.0554726 -0.512646 -0.00473468 0.052395 -0.533275 
0.00282135 0.048975 -0.553039 0.0104332 0.0452494 -0.571889 0.0179249 0.0412762 -0.589812 
0.0251064 0.0371304 -0.606817 0.0317922 0.0328967 -0.622938 0.0378195 0.0286621 -0.638219 
0.0430645 0.0245064 -0.652709 0.0474546 0.0204952 -0.666446 0.0509745 0.0166739 -0.679452 
0.0536667 0.0130647 -0.691727 0.0556255 0.0096674 -0.70325 0.0569848 0.00646264 -0.713977 
0.057903 0.00341824 -0.723853 0.0585448 0.000497227 -0.73282 0.0590632 -0.00233347 -0.740824 
0.0595844 -0.00509503 -0.747831 0.0601954 -0.00779048 -0.753828 0.0609378 -0.0104012 -0.758835 
0.0618077 -0.0128869 -0.7629 0.0627605 -0.0151883 -0.766096 0.0637212 -0.0172335 -0.768515 
0.0645987 -0.0189462 -0.770255 0.0653006 -0.0202543 -0.771411 0.0657483 -0.0210993 -0.772059 
0.0658889 -0.021443 -0.77225 
LINES 2 100
OFFSETS vtktypeint64
0 100 
CONNECTIVITY vtktypeint64
0 1 2 3 4 5 6 7 8 
9 10 11 12 13 14 15 16 17 
18 19 20 21 22 23 24 25 26 
27 28 29 30 31 32 33 34 35 
36 37 38 39 40 41 42 43 44 
45 46 47 48 49 50 51 52 53 
54 55 56 57 58 59 60 61 62 
63 64 65 66 67 68 69 70 71 
72 73 74 75 76 77 78 79 80 
81 82 83 84 85 86 87 88 89 
90 91 92 93 94 95 96 97 98 
99 
POINT_DATA 100
FIELD FieldData 3
_theta 1 100 double
0 0.031733259127 0.063466518254 0.095199777382 0.12693303651 0.15866629564 0.19039955476 0.22213281389 0.25386607302 
0.28559933214 0.31733259127 0.3490658504 0.38079910953 0.41253236865 0.44426562778 0.47599888691 0.50773214603 0.53946540516 
0.57119866429 0.60293192342 0.63466518254 0.66639844167 0.6981317008 0.72986495992 0.76159821905 0.79333147818 0.82506473731 
0.85679799643 0.88853125556 0.92026451469 0.95199777382 0.98373103294 1.0154642921 1.0471975512 1.0789308103 1.1106640695 
1.1423973286 1.1741305877 1.2058638468 1.237597106 1.2693303651 1.3010636242 1.3327968833 1.3645301425 1.3962634016 
1.4279966607 1.4597299198 1.491463179 1.5231964381 1.5549296972 1.5866629564 1.6183962155 1.6501294746 1.6818627337 
1.7135959929 1.745329252 1.7770625111 1.8087957702 1.8405290294 1.8722622885 1.9039955476 1.9357288068 1.9674620659 
1.999195325 2.0309285841 2.0626618433 2.0943951024 2.1261283615 2.1578616206 2.1895948798 2.2213281389 2.253061398 
2.2847946572 2.3165279163 2.3482611754 2.3799944345 2.4117276937 2.4434609528 2.4751942119 2.506927471 2.5386607302 
2.5703939893 2.6021272484 2.6338605076 2.6655937667 2.6973270258 2.7290602849 2.7607935441 2.7925268032 2.8242600623 
2.8559933214 2.8877265806 2.9194598397 2.9511930988 2.982926358 3.0146596171 3.0463928762 3.0781261353 3.1098593945 
3.1415926536 
_radius 1 100 double
8.1066358329e-16 0.017046494641 0.033984468125 0.050702478948 0.0670901939 0.083040270473 0.098451161426 0.1132307071 0.12730011416 
0.14059770158 0.15308171262 0.16473161306 0.17554761521 0.18554857003 0.19476866723 0.20325343072 0.21105530555 0.21822888967 
0.22482579468 0.23088932624 0.23644957637 0.24151991894 0.24609608629 0.25015882376 0.25368050541 0.25663510174 0.2590097249 
0.26081500193 0.26209117459 0.26290742903 0.26335356074 0.26352529793 0.26350663965 0.26335348887 0.26308224934 0.26266538878 
0.26203420969 0.26108784059 0.25970680065 0.25776920091 0.25516760148 0.25182470047 0.24770633916 0.24283070238 0.23727302163 
0.23116551265 0.22469263901 0.21808197608 0.21159084859 0.20548864197 0.20003475577 0.19545328312 0.1919078003 0.18948196381 
0.18817175152 0.18789182942 0.1884932129 0.1897857685 0.1915594629 0.19360148744 0.19570953058 0.19770264048 0.19943058598 
0.20078175795 0.2016892327 0.20213437176 0.20214688159 0.20179996203 0.20119972841 0.20046958661 0.19973193665 0.1990905393 
0.19861659663 0.19834024426 0.19824744614 0.19828105856 0.1983445514 0.19830742518 0.19801224575 0.197283859 0.19594124643 
0.19381145863 0.19074367664 0.18662077323 0.18136633459 0.17494648904 0.16736721277 0.15866853992 0.1489172595 0.13819942537 
0.12661355543 0.11426492589 0.10126099237 0.08770775137 0.073706807255 0.059353009975 0.044732720211 0.029922955074 0.014991755223 
1.7274571397e-15 
_area 1 100 double
0 0.00071326169769 0.0028272668891 0.0062664406539 0.010910731928 0.01660449309 0.023168701822 0.030415759618 0.038165255759 
0.04625820858 0.054566867465 0.062997652758 0.071486379043 0.07998719718 0.088458940424 0.096853828709 0.10511285554 0.11316928294 
0.12095759541 0.1284225034 0.13552307362 0.14223037772 0.14852096393 0.15437091139 0.15975542842 0.16465661065 0.16907681249 
0.17304916909 0.17663584877 0.17991234675 0.18294657539 0.18578302032 0.18843379923 0.19087223223 0.19302705904 0.19477980057 
0.19596711205 0.19638823741 0.19581960106 0.19404059454 0.19087262107 0.18622491304 0.18013037541 0.1727559411 0.16438423912 
0.15537505078 0.14612066746 0.13700813247 0.1283938045 0.12058597052 0.11382690938 0.10827060484 0.10396285057 0.10084091309 
0.098766916083 0.09758061447 0.097131572587 0.0972623733 0.097775323508 0.098450926738 0.099089844818 0.099531690475 0.099656646215 
0.099382320312 0.098661483897 0.097484286364 0.095884439048 0.093944346008 0.091793848893 0.089599973846 0.087547983996 0.085816261769 
0.084549901136 0.08384121128 0.083731687646 0.084230923174 0.08551712951 0.087657669737 0.089861252377 0.091794035586 0.093105965637 
0.093468461819 0.09261660486 0.090382898565 0.08671531873 0.08167680453 0.075428635424 0.068204289024 0.060281622456 0.051959216109 
0.043538833841 0.035312404323 0.027550469602 0.020490111882 0.014323021441 0.0091869141886 0.0051643104267 0.0022908810521 0.00057170288829 
2.452666538e-17 
