# vtk DataFile Version 5.1
vtk output
ASCII
DATASET POLYDATA
POINTS 100 float
0.0975137 0.0302604 0.632859 0.0977047 0.0305911 0.632638 0.0982683 0.0313876 0.631864 
0.0991348 0.0325891 0.630543 0.100197 0.0341029 0.628679 0.101322 0.0358145 0.626277 
0.102365 0.0375983 0.623337 0.103185 0.039331 0.619856 0.103658 0.0409025 0.615825 
0.10369 0.0422265 0.611228 0.103221 0.0432465 0.606044 0.102231 0.0439391 0.600252 
0.100739 0.0443131 0.593831 0.0987894 0.0444048 0.586768 0.0964499 0.0442705 0.57906 
0.0937949 0.0439771 0.57072 0.0908954 0.0435921 0.561775 0.0878082 0.0431743 0.552271 
0.084568 0.0427659 0.54227 0.0811843 0.0423881 0.531845 0.0776412 0.0420388 0.521074 
0.0739023 0.0416947 0.510038 0.0699186 0.0413161 0.498808 0.0656381 0.0408531 0.487444 
0.0610159 0.0402546 0.475989 0.0560242 0.0394763 0.464464 0.0506582 0.0384887 0.45287 
0.0449403 0.0372823 0.441192 0.0389188 0.0358716 0.429397 0.0326638 0.0342949 0.417446 
0.0262587 0.0326127 0.4053 0.0197902 0.0309023 0.392921 0.0133373 0.0292515 0.380281 
0.00696089 0.0277515 0.367365 0.000696056 0.026489 0.354169 -0.00545231 0.0255398 0.3407 
-0.0115095 0.0249641 0.32697 -0.0175265 0.024803 0.312988 -0.0235713 0.0250779 0.298759 
-0.0297173 0.0257916 0.284271 -0.0360297 0.0269309 0.269493 -0.0425526 0.0284708 0.254372 
-0.0492968 0.0303778 0.238836 -0.0562319 0.0326146 0.222793 -0.0632822 0.0351424 0.206143 
-0.0703284 0.0379234 0.188784 -0.0772133 0.0409206 0.170628 -0.0837536 0.0440976 0.151606 
-0.0897535 0.0474169 0.131683 -0.0950213 0.050838 0.110862 -0.099385 0.0543155 0.0891899 
-0.102708 0.0577977 0.0667568 -0.104897 0.061227 0.0436903 -0.105915 0.0645407 0.0201476 
-0.105774 0.0676734 -0.00369637 -0.104538 0.0705611 -0.0276623 -0.102313 0.0731447 -0.05158 
-0.0992346 0.0753751 -0.0753003 -0.0954524 0.0772168 -0.0987052 -0.0911179 0.0786507 -0.121713 
-0.0863696 0.0796756 -0.144279 -0.0813222 0.0803074 -0.166395 -0.0760586 0.0805769 -0.188081 
-0.0706271 0.0805252 -0.209374 -0.0650414 0.0801989 -0.230322 -0.0592861 0.0796433 -0.250966 
-0.0533237 0.078897 -0.271335 -0.0471049 0.0779864 -0.29144 -0.0405787 0.0769217 -0.311264 
-0.0337026 0.075696 -0.330766 -0.026451 0.0742851 -0.349884 -0.0188213 0.0726508 -0.368541 
-0.010837 0.0707459 -0.38665 -0.00254803 0.0685201 -0.404126 0.00597197 0.065928 -0.420893 
0.0146302 0.0629355 -0.436889 0.0233212 0.0595272 -0.452071 0.0319338 0.0557107 -0.466417 
0.0403579 0.0515198 -0.47992 0.0484912 0.0470148 -0.492589 0.0562437 0.0422806 -0.50444 
0.0635416 0.0374222 -0.51549 0.0703288 0.0325582 -0.52575 0.0765676 0.0278132 -0.535226 
0.0822376 0.0233095 -0.543909 0.0873338 0.0191585 -0.551786 0.0918646 0.0154536 -0.558833 
0.095849 0.0122638 -0.56503 0.099314 0.00963001 -0.570362 0.102293 0.00756275 -0.574831 
0.104822 0.00604286 -0.578456 0.10694 0.0050239 -0.581282 0.108688 0.00443669 -0.583382 
0.110105 0.00419528 -0.58485 0.111228 0.004204 -0.585798 0.112092 0.004365 -0.586347 
0.112727 0.00458567 -0.586621 0.113159 0.00478564 -0.586726 0.113406 0.0049027 -0.586751 
0.113481 0.00489734 -0.58675 
LINES 2 100
OFFSETS vtktypeint64
0 100 
CONNECTIVITY vtktypeint64
0 1 2 3 4 5 6 7 8 
9 10 11 12 13 14 15 16 17 
18 19 20 21 22 23 24 25 26 
27 28 29 30 31 32 33 34 35 
36 37 38 39 40 41 42 43 44 
45 46 47 48 49 50 51 52 53 
54 55 56 57 58 59 60 61 62 
63 64 65 66 67 68 69 70 71 
72 73 74 75 76 77 78 79 80 
81 82 83 84 85 86 87 88 89 
90 91 92 93 94 95 96 97 98 
99 
POINT_DATA 100
FIELD FieldData 3
_theta 1 100 double
0 0.031733259127 0.063466518254 0.095199777382 0.12693303651 0.15866629564 0.19039955476 0.22213281389 0.25386607302 
0.28559933214 0.31733259127 0.3490658504 0.38079910953 0.41253236865 0.44426562778 0.47599888691 0.50773214603 0.53946540516 
0.57119866429 0.60293192342 0.63466518254 0.66639844167 0.6981317008 0.72986495992 0.76159821905 0.79333147818 0.82506473731 
0.85679799643 0.88853125556 0.92026451469 0.95199777382 0.98373103294 1.0154642921 1.0471975512 1.0789308103 1.1106640695 
1.1423973286 1.1741305877 1.2058638468 1.237597106 1.2693303651 1.3010636242 1.3327968833 1.3645301425 1.3962634016 
1.4279966607 1.4597299198 1.491463179 1.5231964381 1.5549296972 1.5866629564 1.6183962155 1.6501294746 1.6818627337 
1.7135959929 1.745329252 1.7770625111 1.8087957702 1.8405290294 1.8722622885 1.9039955476 1.9357288068 1.9674620659 
1.999195325 2.0309285841 2.0626618433 2.0943951024 2.1261283615 2.1578616206 2.1895948798 2.2213281389 2.253061398 
2.2847946572 2.3165279163 2.3482611754 2.3799944345 2.4117276937 2.4434609528 2.4751942119 2.506927471 2.5386607302 
2.5703939893 2.6021272484 2.6338605076 2.6655937667 2.6973270258 2.7290602849 2.7607935441 2.7925268032 2.8242600623 
2.8559933214 2.8877265806 2.9194598397 2.9511930988 2.982926358 3.0146596171 3.0463928762 3.0781261353 3.1098593945 
3.1415926536 
_radius 1 100 double
1.3424383774e-15 0.014129868292 0.028161593876 0.041996449912 0.055541461141 0.068712297055 0.08143594169 0.093653033288 0.10531971855 
0.11640881598 0.12691007402 0.1368293755 0.14618687525 0.15501422027 0.16335112606 0.17124161606 0.17873016114 0.18585783499 
0.19265853716 0.1991554182 0.20535787022 0.21125970031 0.21683921254 0.22206175153 0.22688478164 0.23126489711 0.23516549108 
0.23856339748 0.24145284511 0.24384558358 0.24576695597 0.24724875762 0.24832059424 0.24900181805 0.249295838 0.2491878146 
0.24864582133 0.24762485674 0.24607281376 0.24393761467 0.2411750045 0.23775672977 0.2336788412 0.22896959704 0.22369599132 
0.21796749256 0.21193540802 0.2057866153 0.19973131452 0.19398582294 0.18875288593 0.18420300426 0.18046038657 0.17759601287 
0.17562801011 0.17452689859 0.17422179531 0.174604657 0.17553281364 0.17683318949 0.17831219435 0.17977266611 0.18103542139 
0.18196056182 0.18246371608 0.18252408847 0.18218328577 0.18153567276 0.18071227729 0.17986103587 0.1791264148 0.17863111163 
0.17846171258 0.17865913206 0.17921377305 0.18006488383 0.18110354029 0.1821788374 0.18310697994 0.18368288493 0.18369364923 
0.18293290286 0.1812148032 0.17838634007 0.17433675419 0.16900318896 0.16237212547 0.15447662463 0.14538986184 0.13521584747 
0.12407854069 0.11211074796 0.099444210158 0.086202089272 0.072494642186 0.058418239944 0.044057168569 0.029487051505 0.014778514306 
9.5846143331e-16 
_area 1 100 double
0 0.00054905506009 0.0021731864794 0.0048053920816 0.0083407838962 0.012646022913 0.017571099214 0.022962164323 0.028673995448 
0.034580772351 0.040584188916 0.046618394659 0.052651637021 0.058684566781 0.064745105633 0.070879994448 0.077143847248 0.083587233798 
0.090245276743 0.097127590078 0.10421018815 0.11143088674 0.11869072068 0.12586344384 0.13281296552 0.1394156943 0.1455821632 
0.15127028573 0.15648234163 0.16124308334 0.1655694888 0.16945595691 0.17290383156 0.17594028324 0.17841516284 0.18012698702 
0.18087559727 0.18050766691 0.17892225517 0.17606606721 0.17194064669 0.16662536263 0.16031072408 0.15318880893 0.14565241 
0.13780443935 0.12989801543 0.1222030842 0.11497268945 0.10840678023 0.10261925066 0.09763330542 0.093412340777 0.089901257502 
0.087052286596 0.084835817329 0.083250265691 0.082271627631 0.081739397642 0.081483422264 0.081374394627 0.081293089893 0.081119567206 
0.0807394347 0.080055258675 0.079004992761 0.077590405733 0.075899506339 0.074103876714 0.072427069445 0.071093269998 0.070281752733 
0.070097159074 0.070559975357 0.071630171106 0.073230352781 0.075245658113 0.077509474074 0.079793036099 0.081814476042 0.083267011386 
0.083855239455 0.0833305101 0.08152012209 0.078347093639 0.073838817317 0.068124354249 0.061421307061 0.05401414122 0.046226632202 
0.038391838603 0.030823428506 0.023792002066 0.017509161108 0.012120742294 0.0077092727563 0.0043045483549 0.0019001728849 0.00047279985991 
2.950406974e-17 
