# vtk DataFile Version 5.1
vtk output
ASCII
DATASET POLYDATA
POINTS 100 float
0.0152491 0.0253881 0.569493 0.0153465 0.0255692 0.569285 0.015723 0.0259446 0.568556 
0.0163327 0.0264932 0.567344 0.0171049 0.0271826 0.565698 0.0179536 0.0279725 0.563675 
0.0187879 0.0288188 0.561325 0.0195231 0.0296777 0.558679 0.0200903 0.0305101 0.555739 
0.0204439 0.031285 0.552475 0.020565 0.0319817 0.548824 0.0204609 0.0325912 0.544693 
0.0201605 0.0331155 0.539972 0.0197069 0.0335665 0.534546 0.0191481 0.0339622 0.528311 
0.018526 0.034324 0.52119 0.0178681 0.0346715 0.513144 0.0171798 0.0350195 0.504182 
0.0164415 0.0353742 0.494361 0.0156087 0.035731 0.483782 0.0146167 0.036074 0.472583 
0.0133875 0.0363769 0.46092 0.0118404 0.036605 0.448952 0.00990168 0.0367196 0.436822 
0.00751477 0.0366826 0.424643 0.00464733 0.0364616 0.412485 0.00129528 0.0360358 0.400368 
-0.00251718 0.0353998 0.388266 -0.00674161 0.0345674 0.376112 -0.0113128 0.0335727 0.36381 
-0.0161587 0.0324699 0.351253 -0.0212108 0.0313308 0.338342 -0.0264141 0.0302402 0.324998 
-0.031735 0.0292904 0.311175 -0.0371644 0.028574 0.296871 -0.0427177 0.0281767 0.282125 
-0.0484297 0.0281712 0.26701 -0.0543453 0.028611 0.251622 -0.0605076 0.0295268 0.236068 
-0.0669447 0.0309243 0.22044 -0.0736569 0.0327849 0.204806 -0.0806066 0.0350676 0.189193 
-0.0877117 0.0377137 0.173579 -0.0948444 0.0406518 0.157894 -0.101836 0.043804 0.142024 
-0.108487 0.0470923 0.125828 -0.114581 0.0504431 0.10915 -0.119902 0.0537922 0.091844 
-0.124253 0.0570862 0.0737926 -0.127473 0.0602838 0.0549239 -0.129452 0.0633541 0.0352241 
-0.130137 0.0662745 0.0147423 -0.129542 0.069027 -0.00641151 -0.12774 0.0715946 -0.0280772 
-0.124853 0.0739581 -0.0500601 -0.121047 0.0760937 -0.072151 -0.116506 0.0779722 -0.0941477 
-0.111422 0.0795597 -0.115874 -0.105972 0.0808197 -0.137198 -0.100307 0.081717 -0.158036 
-0.0945421 0.0822222 -0.178362 -0.0887499 0.0823159 -0.198196 -0.0829603 0.0819935 -0.217596 
-0.0771658 0.0812671 -0.236642 -0.07133 0.0801672 -0.255416 -0.0653987 0.0787415 -0.273987 
-0.0593119 0.0770511 -0.292392 -0.0530148 0.0751656 -0.310633 -0.0464672 0.073156 -0.328666 
-0.0396501 0.0710875 -0.346413 -0.0325683 0.069012 -0.363767 -0.02525 0.0669625 -0.380609 
-0.0177433 0.0649486 -0.396824 -0.0101114 0.0629557 -0.412317 -0.00242593 0.0609467 -0.427025 
0.00523851 0.0588666 -0.440931 0.0128095 0.0566504 -0.454058 0.0202194 0.0542323 -0.46647 
0.0274069 0.0515557 -0.478257 0.0343156 0.0485832 -0.489522 0.040892 0.0453049 -0.500361 
0.0470831 0.0417438 -0.510844 0.0528336 0.0379575 -0.521003 0.0580854 0.0340367 -0.530823 
0.062778 0.0300987 -0.540237 0.0668517 0.0262784 -0.549135 0.0702525 0.0227157 -0.557375 
0.0729389 0.0195426 -0.564803 0.0748888 0.0168698 -0.571273 0.0761066 0.014775 -0.576671 
0.0766286 0.0132947 -0.580934 0.0765252 0.0124192 -0.58406 0.0759006 0.0120934 -0.586119 
0.0748876 0.0122216 -0.587246 0.0736403 0.0126769 -0.58763 0.072322 0.0133142 -0.587497 
0.0710928 0.0139853 -0.58708 0.0700953 0.0145544 -0.5866 0.0694422 0.0149121 -0.586233 
0.0692057 0.0149879 -0.586095 
LINES 2 100
OFFSETS vtktypeint64
0 100 
CONNECTIVITY vtktypeint64
0 1 2 3 4 5 6 7 8 
9 10 11 12 13 14 15 16 17 
18 19 20 21 22 23 24 25 26 
27 28 29 30 31 32 33 34 35 
36 37 38 39 40 41 42 43 44 
45 46 47 48 49 50 51 52 53 
54 55 56 57 58 59 60 61 62 
63 64 65 66 67 68 69 70 71 
72 73 74 75 76 77 78 79 80 
81 82 83 84 85 86 87 88 89 
90 91 92 93 94 95 96 97 98 
99 
POINT_DATA 100
FIELD FieldData 3
_theta 1 100 double
0 0.031733259127 0.063466518254 0.095199777382 0.12693303651 0.15866629564 0.19039955476 0.22213281389 0.25386607302 
0.28559933214 0.31733259127 0.3490658504 0.38079910953 0.41253236865 0.44426562778 0.47599888691 0.50773214603 0.53946540516 
0.57119866429 0.60293192342 0.63466518254 0.66639844167 0.6981317008 0.72986495992 0.76159821905 0.79333147818 0.82506473731 
0.85679799643 0.88853125556 0.92026451469 0.95199777382 0.98373103294 1.0154642921 1.0471975512 1.0789308103 1.1106640695 
1.1423973286 1.1741305877 1.2058638468 1.237597106 1.2693303651 1.3010636242 1.3327968833 1.3645301425 1.3962634016 
1.4279966607 1.4597299198 1.491463179 1.5231964381 1.5549296972 1.5866629564 1.6183962155 1.6501294746 1.6818627337 
1.7135959929 1.745329252 1.7770625111 1.8087957702 1.8405290294 1.8722622885 1.9039955476 1.9357288068 1.9674620659 
1.999195325 2.0309285841 2.0626618433 2.0943951024 2.1261283615 2.1578616206 2.1895948798 2.2213281389 2.253061398 
2.2847946572 2.3165279163 2.3482611754 2.3799944345 2.4117276937 2.4434609528 2.4751942119 2.506927471 2.5386607302 
2.5703939893 2.6021272484 2.6338605076 2.6655937667 2.6973270258 2.7290602849 2.7607935441 2.7925268032 2.8242600623 
2.8559933214 2.8877265806 2.9194598397 2.9511930988 2.982926358 3.0146596171 3.0463928762 3.0781261353 3.1098593945 
3.1415926536 
_radius 1 100 double
1.1103924183e-15 0.012442460664 0.024843148205 0.037152542134 0.049321011331 0.061298803573 0.073036033985 0.084482987941 0.095591004002 
0.10631395855 0.11661005331 0.12644338743 0.13578480841 0.14461178973 0.15290746409 0.16065927687 0.16785786381 0.17449664154 
0.18057229165 0.18608597034 0.19104484352 0.19546351092 0.199365005 0.20278121689 0.20575268986 0.20832767736 0.21056023349 
0.21250701994 0.21422261573 0.21575347379 0.21713121546 0.21836649047 0.21944489569 0.22032624346 0.22094779895 0.22123120624 
0.22109206097 0.2204507321 0.21924309666 0.21743011866 0.21500542907 0.21200013306 0.20848405785 0.20456277575 0.2003702313 
0.1960577154 0.19178090578 0.18768707471 0.18390403721 0.18053157706 0.17763592733 0.17524840432 0.17336922521 0.17197592932 
0.1710335479 0.17050266123 0.17034268432 0.17051033458 0.17095569026 0.17161932886 0.17243329296 0.17332648148 0.17423271488 
0.17509851484 0.1758880398 0.17658400329 0.17718483034 0.1776992266 0.1781396502 0.17851602196 0.17883059761 0.17907447513 
0.17922587518 0.17925014336 0.179101294 0.17872473788 0.17806059038 0.17704676227 0.17562107803 0.17372204219 0.17128848123 
0.1682588702 0.16457145878 0.1601662099 0.15498905095 0.14899810922 0.14217067392 0.13450894004 0.12604250991 0.1168263582 
0.10693437119 0.096450148204 0.085457783177 0.074035254956 0.062251833533 0.050169217736 0.037844859006 0.025335593628 0.012700164181 
7.5205239965e-16 
_area 1 100 double
0 0.00042111754929 0.0016798455805 0.0037620594027 0.0066435185041 0.010289179945 0.014652654947 0.019675842275 0.025288735301 
0.031409559457 0.037945527776 0.044794379094 0.051846579019 0.058987941244 0.066102603654 0.073076549463 0.079801928919 0.08618229011 
0.092138566537 0.097615296871 0.10258605581 0.10705662852 0.11106445702 0.11467372798 0.11796708689 0.12103619615 0.1239724194 
0.12685595881 0.1297409001 0.13263881961 0.13550948208 0.13826343127 0.14077276814 0.14288492594 0.14443741066 0.14527268663 
0.14525214973 0.14426890489 0.14226043181 0.13922206531 0.13521977412 0.13039762731 0.12497399681 0.11922245324 0.11343875609 
0.10790219647 0.1028419319 0.098412334727 0.094673345053 0.091581033035 0.089008149891 0.086792056995 0.084781592082 0.082868412592 
0.08100160516 0.079184905394 0.077464047219 0.07591059039 0.074599298343 0.073581082221 0.072861573418 0.072395739781 0.072102936755 
0.071896002555 0.071709912957 0.071516051065 0.071319699491 0.071169514736 0.071110226541 0.071145736793 0.071276287672 0.071485656843 
0.071749329815 0.072041205133 0.072334187579 0.072594430329 0.072774755228 0.072815356197 0.072652110721 0.072223344447 0.071467300306 
0.0703119708 0.068666956264 0.066427678308 0.063494675654 0.059801173611 0.055338425695 0.050170795349 0.044436772757 0.038335899665 
0.032104985781 0.025989730406 0.020218713484 0.01498476527 0.0104349078 0.0066673778872 0.0037345236308 0.0016516584744 0.00041134811202 
2.4292903274e-17 
