# vtk DataFile Version 5.1
vtk output
ASCII
DATASET POLYDATA
POINTS 100 float
0.137395 0.0510706 0.68807 0.137429 0.0511319 0.687877 0.137563 0.0511927 0.687126 
0.137754 0.0512591 0.685796 0.137934 0.0513403 0.683857 0.138022 0.0514475 0.681274 
0.137926 0.0515924 0.678015 0.137558 0.0517856 0.674055 0.136838 0.0520347 0.669382 
0.135705 0.0523431 0.664001 0.13412 0.0527082 0.657932 0.132067 0.0531209 0.651213 
0.129555 0.0535653 0.643892 0.126609 0.0540185 0.636028 0.123272 0.0544514 0.627679 
0.119589 0.0548304 0.618895 0.115607 0.0551188 0.609719 0.111364 0.0552788 0.600176 
0.106887 0.0552744 0.590277 0.102186 0.0550731 0.580015 0.0972571 0.0546487 0.569371 
0.0920819 0.0539833 0.55832 0.0866325 0.0530687 0.546835 0.0808767 0.0519076 0.534894 
0.0747837 0.0505147 0.522487 0.0683301 0.048916 0.509618 0.0615039 0.0471489 0.496307 
0.054308 0.0452605 0.482591 0.0467609 0.0433063 0.468516 0.0388959 0.0413482 0.454134 
0.0307585 0.0394517 0.439492 0.022403 0.037684 0.424628 0.0138879 0.0361108 0.409562 
0.00527241 0.0347937 0.394289 -0.00338683 0.0337876 0.378778 -0.0120372 0.0331384 0.362972 
-0.0206303 0.0328807 0.346794 -0.0291202 0.0330361 0.330149 -0.0374608 0.0336119 0.312937 
-0.0456022 0.0346005 0.295062 -0.0534876 0.0359797 0.276441 -0.0610502 0.0377129 0.257015 
-0.0682124 0.0397512 0.236755 -0.0748863 0.0420355 0.215664 -0.0809769 0.0444996 0.19378 
-0.0863868 0.0470739 0.171171 -0.0910232 0.0496892 0.147927 -0.0948049 0.052281 0.124156 
-0.0976707 0.0547932 0.0999742 -0.0995852 0.0571817 0.0754939 -0.100544 0.0594165 0.0508192 
-0.100576 0.0614833 0.0260393 -0.0997426 0.0633835 0.00122617 -0.0981319 0.0651321 -0.0235657 
-0.0958538 0.0667554 -0.0482962 -0.0930298 0.0682863 -0.0729355 -0.0897825 0.069759 -0.0974584 
-0.0862255 0.0712036 -0.121838 -0.0824538 0.0726401 -0.146043 -0.0785368 0.0740736 -0.170032 
-0.074515 0.0754902 -0.193754 -0.0703991 0.0768552 -0.217149 -0.0661741 0.078113 -0.240154 
-0.0618064 0.0791893 -0.262703 -0.0572528 0.0799958 -0.284736 -0.0524721 0.0804367 -0.306206 
-0.0474363 0.0804162 -0.327079 -0.0421401 0.0798475 -0.347337 -0.0366088 0.078661 -0.366981 
-0.030902 0.076812 -0.386026 -0.0251138 0.0742863 -0.404498 -0.0193682 0.0711035 -0.422428 
-0.0138106 0.0673171 -0.439847 -0.00859655 0.0630119 -0.456775 -0.00387811 0.0582981 -0.473226 
0.00021057 0.053303 -0.489194 0.00356652 0.0481606 -0.504662 0.00612917 0.043001 -0.519602 
0.00788809 0.0379396 -0.533976 0.00888641 0.0330677 -0.547749 0.00921942 0.0284457 -0.560888 
0.00902848 0.0240992 -0.573375 0.00849064 0.0200188 -0.585208 0.00780489 0.0161638 -0.596406 
0.00717622 0.0124688 -0.607003 0.00679894 0.00885366 -0.61705 0.00684069 0.005235 -0.626605 
0.00742853 0.00153802 -0.635725 0.00863831 -0.00229197 -0.644457 0.0104882 -0.00628013 -0.652827 
0.0129371 -0.0104157 -0.660833 0.0158873 -0.0146491 -0.668442 0.0191924 -0.0188936 -0.675586 
0.0226688 -0.0230307 -0.682169 0.0261097 -0.0269188 -0.688068 0.0293017 -0.0304054 -0.693149 
0.0320413 -0.0333402 -0.697275 0.0341507 -0.0355883 -0.700323 0.0354916 -0.0370428 -0.702194 
0.0359759 -0.0376343 -0.702822 
LINES 2 100
OFFSETS vtktypeint64
0 100 
CONNECTIVITY vtktypeint64
0 1 2 3 4 5 6 7 8 
9 10 11 12 13 14 15 16 17 
18 19 20 21 22 23 24 25 26 
27 28 29 30 31 32 33 34 35 
36 37 38 39 40 41 42 43 44 
45 46 47 48 49 50 51 52 53 
54 55 56 57 58 59 60 61 62 
63 64 65 66 67 68 69 70 71 
72 73 74 75 76 77 78 79 80 
81 82 83 84 85 86 87 88 89 
90 91 92 93 94 95 96 97 98 
99 
POINT_DATA 100
FIELD FieldData 3
_theta 1 100 double
0 0.031733259127 0.063466518254 0.095199777382 0.12693303651 0.15866629564 0.19039955476 0.22213281389 0.25386607302 
0.28559933214 0.31733259127 0.3490658504 0.38079910953 0.41253236865 0.44426562778 0.47599888691 0.50773214603 0.53946540516 
0.57119866429 0.60293192342 0.63466518254 0.66639844167 0.6981317008 0.72986495992 0.76159821905 0.79333147818 0.82506473731 
0.85679799643 0.88853125556 0.92026451469 0.95199777382 0.98373103294 1.0154642921 1.0471975512 1.0789308103 1.1106640695 
1.1423973286 1.1741305877 1.2058638468 1.237597106 1.2693303651 1.3010636242 1.3327968833 1.3645301425 1.3962634016 
1.4279966607 1.4597299198 1.491463179 1.5231964381 1.5549296972 1.5866629564 1.6183962155 1.6501294746 1.6818627337 
1.7135959929 1.745329252 1.7770625111 1.8087957702 1.8405290294 1.8722622885 1.9039955476 1.9357288068 1.9674620659 
1.999195325 2.0309285841 2.0626618433 2.0943951024 2.1261283615 2.1578616206 2.1895948798 2.2213281389 2.253061398 
2.2847946572 2.3165279163 2.3482611754 2.3799944345 2.4117276937 2.4434609528 2.4751942119 2.506927471 2.5386607302 
2.5703939893 2.6021272484 2.6338605076 2.6655937667 2.6973270258 2.7290602849 2.7607935441 2.7925268032 2.8242600623 
2.8559933214 2.8877265806 2.9194598397 2.9511930988 2.982926358 3.0146596171 3.0463928762 3.0781261353 3.1098593945 
3.1415926536 
_radius 1 100 double
1.3353179737e-15 0.013578958328 0.027092902539 0.040479528127 0.053687968741 0.066681164808 0.079435158948 0.091935718174 0.10417327144 
0.11613738188 0.12781184163 0.13917110708 0.15017836206 0.16078515919 0.17093243118 0.18055267963 0.18957325268 0.19792069091 
0.2055260581 0.21233096923 0.21829375754 0.22339499826 0.22764152088 0.23106813052 0.2337365022 0.23573105831 0.23715202727 
0.23810626979 0.23869682656 0.23901246835 0.23911875194 0.23905207205 0.2388178232 0.23839305177 0.23773310978 0.23678114574 
0.23547898989 0.23377806243 0.23164914182 0.22909000424 0.22613006555 0.22283132624 0.21928525871 0.21560583228 0.21191956871 
0.20835416789 0.2050276087 0.20203955654 0.19946637921 0.19736018116 0.19575118495 0.19465180036 0.19406023229 0.19396185243 
0.19432782187 0.19511212236 0.19624936032 0.1976556369 0.19923334325 0.20087885365 0.20249095653 0.20397795299 0.20526223967 
0.20628222062 0.20699216353 0.20736098258 0.20737083951 0.20701596067 0.20630141113 0.205241126 0.20385458644 0.20216218148 
0.20018022025 0.19791722758 0.19537303536 0.19254104251 0.18941224274 0.1859782248 0.18223041984 0.17815474389 0.17372364032 
0.16888976669 0.16358577196 0.15773250766 0.15125469335 0.14410008414 0.136256589 0.12776177796 0.11870066498 0.10919047959 
0.099355164363 0.089296606484 0.079071940542 0.068684281289 0.058088321629 0.047207181073 0.035958920156 0.024297642591 0.012262754445 
1.1098680039e-15 
_area 1 100 double
0 0.00051550716851 0.0020457322527 0.0045436135737 0.007936782774 0.012136391049 0.017048305851 0.022584468719 0.028671083514 
0.035250449185 0.042275614663 0.049700648213 0.057471296498 0.0655194988 0.073762163509 0.082102436519 0.09043156865 0.098630863197 
0.10657462386 0.11413531728 0.12119128871 0.12763643141 0.13339111861 0.13841393162 0.1427128188 0.14635193437 0.1494484599 
0.15215500028 0.15462817723 0.15699001424 0.15929309531 0.16150228993 0.16350117657 0.1651193767 0.16616839482 0.1664752311 
0.16590902803 0.16439969343 0.16194795603 0.15862572108 0.15456608334 0.14994455657 0.14495591047 0.1397926768 0.13463036044 
0.12962051862 0.12488829866 0.12052919256 0.11660277731 0.11312743808 0.11008365127 0.10742930015 0.10512237248 0.10314200042 
0.10149938112 0.10023144364 0.099367822613 0.098876872516 0.098649041877 0.098540251148 0.098415244688 0.098167016895 0.097722938316 
0.097044520725 0.096122771447 0.094971439343 0.093622489388 0.092127955427 0.090567843169 0.089054120474 0.087710473689 0.086621528791 
0.08579988629 0.085209583611 0.084794135962 0.084474476765 0.084139548817 0.08365091405 0.082861364938 0.081635776505 0.079864429012 
0.077467454975 0.074395069808 0.070628146528 0.066179837902 0.061096373287 0.055456470682 0.049371735723 0.042989364837 0.036491531063 
0.030083134743 0.023969509853 0.018335864031 0.013337074779 0.0090939043492 0.0056835567209 0.0031222261922 0.0013634301077 0.00033769705658 
2.7630650541e-17 
