# vtk DataFile Version 5.1
vtk output
ASCII
DATASET POLYDATA
POINTS 100 float
0.118408 0.0304364 0.630913 0.118565 0.0306788 0.630839 0.119113 0.0311893 0.630496 
0.119982 0.0319268 0.629861 0.12106 0.0328288 0.628897 0.122209 0.0338189 0.627548 
0.123277 0.0348158 0.625749 0.124114 0.035742 0.623421 0.124587 0.0365327 0.62048 
0.12459 0.037142 0.616841 0.12405 0.0375469 0.612418 0.122933 0.0377481 0.60714 
0.121239 0.0377676 0.60095 0.118995 0.0376438 0.593812 0.116247 0.0374242 0.585719 
0.113047 0.037158 0.576695 0.109443 0.0368879 0.566792 0.105471 0.036644 0.556095 
0.101146 0.0364394 0.54471 0.0964646 0.036269 0.532764 0.0914055 0.0361107 0.520392 
0.0859353 0.0359299 0.507729 0.0800186 0.0356861 0.494899 0.0736276 0.0353399 0.48201 
0.0667522 0.0348616 0.46914 0.0594077 0.0342374 0.456339 0.0516389 0.0334745 0.443622 
0.0435202 0.032603 0.430975 0.0351515 0.0316754 0.418354 0.0266496 0.030762 0.405697 
0.018137 0.0299453 0.392924 0.00972886 0.0293107 0.379951 0.00152105 0.0289384 0.366697 
-0.0064205 0.0288942 0.353086 -0.0140662 0.0292231 0.339055 -0.0214249 0.0299436 0.324556 
-0.0285398 0.0310471 0.309552 -0.035481 0.0324986 0.29402 -0.0423322 0.0342415 0.277943 
-0.049176 0.0362042 0.26131 -0.0560783 0.038309 0.244109 -0.0630736 0.0404802 0.226327 
-0.0701539 0.0426526 0.207945 -0.0772624 0.0447782 0.188945 -0.0842928 0.04683 0.169307 
-0.0910941 0.0488032 0.149017 -0.0974815 0.0507139 0.128068 -0.103251 0.0525941 0.10647 
-0.108196 0.054486 0.0842475 -0.112127 0.0564339 0.0614507 -0.114885 0.0584768 0.0381495 
-0.116358 0.0606415 0.0144345 -0.116485 0.0629371 -0.00958692 -0.115263 0.065352 -0.0337971 
-0.112742 0.0678535 -0.0580747 -0.109017 0.0703895 -0.0823024 -0.104215 0.0728927 -0.106374 
-0.0984865 0.0752862 -0.130199 -0.0919837 0.0774898 -0.153707 -0.084853 0.0794267 -0.176848 
-0.0772221 0.0810291 -0.19959 -0.0691942 0.0822424 -0.221917 -0.0608454 0.0830279 -0.24382 
-0.0522268 0.0833635 -0.265293 -0.0433699 0.0832431 -0.286326 -0.0342942 0.0826735 -0.306902 
-0.025016 0.0816718 -0.32699 -0.0155575 0.0802614 -0.346549 -0.00595269 0.0784688 -0.365527 
0.00374727 0.0763207 -0.383868 0.0134735 0.0738424 -0.401516 0.023141 0.071057 -0.418421 
0.0326532 0.0679858 -0.43455 0.0419089 0.0646494 -0.449887 0.0508093 0.0610695 -0.464437 
0.0592653 0.0572701 -0.478226 0.0672039 0.053279 -0.491297 0.0745719 0.0491283 -0.503706 
0.0813378 0.0448546 -0.515509 0.0874907 0.0404973 -0.526757 0.0930372 0.0360977 -0.537484 
0.0979971 0.0316966 -0.547703 0.102398 0.0273321 -0.557398 0.106269 0.0230383 -0.566527 
0.10964 0.0188433 -0.575021 0.112535 0.0147696 -0.582797 0.114975 0.0108341 -0.589763 
0.116975 0.00705003 -0.595834 0.118553 0.00342833 -0.600945 0.119728 -1.95336e-05 -0.605062 
0.120526 -0.00327956 -0.608189 0.120984 -0.00633334 -0.61038 0.12115 -0.0091571 -0.611729 
0.121082 -0.0117216 -0.612375 0.120849 -0.0139933 -0.612484 0.120523 -0.0159363 -0.61224 
0.120176 -0.0175148 -0.611825 0.119873 -0.0186967 -0.611402 0.119667 -0.019456 -0.611102 
0.119589 -0.0197758 -0.611007 
LINES 2 100
OFFSETS vtktypeint64
0 100 
CONNECTIVITY vtktypeint64
0 1 2 3 4 5 6 7 8 
9 10 11 12 13 14 15 16 17 
18 19 20 21 22 23 24 25 26 
27 28 29 30 31 32 33 34 35 
36 37 38 39 40 41 42 43 44 
45 46 47 48 49 50 51 52 53 
54 55 56 57 58 59 60 61 62 
63 64 65 66 67 68 69 70 71 
72 73 74 75 76 77 78 79 80 
81 82 83 84 85 86 87 88 89 
90 91 92 93 94 95 96 97 98 
99 
POINT_DATA 100
FIELD FieldData 3
_theta 1 100 double
0 0.031733259127 0.063466518254 0.095199777382 0.12693303651 0.15866629564 0.19039955476 0.22213281389 0.25386607302 
0.28559933214 0.31733259127 0.3490658504 0.38079910953 0.41253236865 0.44426562778 0.47599888691 0.50773214603 0.53946540516 
0.57119866429 0.60293192342 0.63466518254 0.66639844167 0.6981317008 0.72986495992 0.76159821905 0.79333147818 0.82506473731 
0.85679799643 0.88853125556 0.92026451469 0.95199777382 0.98373103294 1.0154642921 1.0471975512 1.0789308103 1.1106640695 
1.1423973286 1.1741305877 1.2058638468 1.237597106 1.2693303651 1.3010636242 1.3327968833 1.3645301425 1.3962634016 
1.4279966607 1.4597299198 1.491463179 1.5231964381 1.5549296972 1.5866629564 1.6183962155 1.6501294746 1.6818627337 
1.7135959929 1.745329252 1.7770625111 1.8087957702 1.8405290294 1.8722622885 1.9039955476 1.9357288068 1.9674620659 
1.999195325 2.0309285841 2.0626618433 2.0943951024 2.1261283615 2.1578616206 2.1895948798 2.2213281389 2.253061398 
2.2847946572 2.3165279163 2.3482611754 2.3799944345 2.4117276937 2.4434609528 2.4751942119 2.506927471 2.5386607302 
2.5703939893 2.6021272484 2.6338605076 2.6655937667 2.6973270258 2.7290602849 2.7607935441 2.7925268032 2.8242600623 
2.8559933214 2.8877265806 2.9194598397 2.9511930988 2.982926358 3.0146596171 3.0463928762 3.0781261353 3.1098593945 
3.1415926536 
_radius 1 100 double
9.0711939997e-16 0.015949223772 0.031753948264 0.047270983961 0.062372922608 0.076953332832 0.090929252132 0.10424118231 0.1168512508 
0.12874035177 0.13990493429 0.15035379661 0.16010495176 0.16918247604 0.1776132751 0.1854238679 0.19263751751 0.1992722316 
0.20534021397 0.21084920304 0.21580577854 0.22022022515 0.22411204265 0.22751483718 0.23047923883 0.23307272663 0.23537577703 
0.23747447752 0.23945050007 0.24136994592 0.24327292199 0.24516569865 0.24701689055 0.24875837462 0.25029082554 0.25149306072 
0.25223400151 0.25238597531 0.25183817929 0.25050924408 0.24835789547 0.24539075198 0.24166640494 0.23729513777 0.23243391286 
0.22727656376 0.2220395433 0.21694421857 0.21219759505 0.20797426687 0.20440283485 0.20155946408 0.19946945833 0.19811520503 
0.19744680966 0.1973914805 0.19785956739 0.19874796913 0.19994353252 0.20132885178 0.20279090211 0.20423080744 0.20557218383 
0.2067660632 0.20779157381 0.20865259522 0.20937129651 0.2099798524 0.21051173302 0.21099375529 0.2114396287 0.21184523338 
0.21218557674 0.21241336029 0.21245919902 0.21223356788 0.21163047428 0.21053277209 0.20881897136 0.20637126005 0.20308416757 
0.19887295488 0.19368060572 0.18748235957 0.18028706685 0.17213514416 0.16309341781 0.15324756495 0.14269315855 0.13152650582 
0.11983655529 0.10769910544 0.095174288941 0.082307746415 0.069135082716 0.055688350277 0.042002762684 0.0281218364 0.014099680618 
8.9570440054e-16 
_area 1 100 double
0 0.00066108293241 0.0026250975713 0.0058353139184 0.010200356756 0.015598764158 0.021885033028 0.028896907354 0.036463593795 
0.044414408042 0.052587106345 0.060834999911 0.069032026203 0.077075230068 0.084884456158 0.09239944919 0.099575103571 0.10637630856 
0.11277442264 0.11874737812 0.12428437977 0.12939420497 0.13411379449 0.13851209444 0.14268465041 0.14673890739 0.15077610029 
0.15487585317 0.1590830985 0.16339434988 0.16774774423 0.17202509536 0.17606432869 0.17967395088 0.18264752074 0.18478269699 
0.18591112929 0.18594332751 0.18488911188 0.18276254051 0.17951516507 0.17511378256 0.16961107778 0.16315276462 0.15596887674 
0.14836305269 0.14069530446 0.13335315254 0.12670481105 0.12102826498 0.116435794 0.11285246902 0.11007670883 0.10787971603 
0.10608192442 0.10456550798 0.103250357 0.102091082 0.10106184311 0.10013287367 0.099265300965 0.098422700247 0.097583559813 
0.096744944327 0.095919355664 0.095127530056 0.094385783762 0.093702195822 0.093103894506 0.092670090099 0.092534038814 0.092853783833 
0.093760324287 0.09529599754 0.097374499768 0.099788352618 0.1022507612 0.10444039303 0.10603333567 0.10672545454 0.10625386388 
0.10442184625 0.10112418893 0.096364788561 0.090259123497 0.083019686441 0.074928175325 0.066301297528 0.057457424612 0.048689881279 
0.040249990907 0.032339895422 0.025112948927 0.018679300807 0.013115468436 0.008476643165 0.0048080683002 0.0021507062982 0.00053986802117 
5.8335958721e-17 
