# vtk DataFile Version 5.1
vtk output
ASCII
DATASET POLYDATA
POINTS 100 float
0.119234 0.0653182 0.691745 0.119425 0.0654663 0.691689 0.120065 0.0656938 0.691369 
0.121087 0.065988 0.690742 0.122386 0.0663305 0.689741 0.123825 0.0666982 0.688283 
0.125254 0.0670653 0.686268 0.126517 0.0674048 0.683596 0.127468 0.0676901 0.680169 
0.127982 0.0678966 0.6759 0.127963 0.0680026 0.670724 0.12735 0.0679899 0.664597 
0.126115 0.0678437 0.657506 0.124261 0.0675529 0.649466 0.121817 0.0671092 0.640521 
0.11883 0.0665064 0.63074 0.115352 0.0657403 0.620214 0.111435 0.0648081 0.609046 
0.107124 0.0637081 0.597347 0.102448 0.0624406 0.585228 0.0974205 0.0610083 0.572792 
0.0920399 0.0594176 0.560128 0.086294 0.0576793 0.547307 0.0801651 0.0558107 0.534379 
0.0736371 0.0538356 0.521374 0.066703 0.0517856 0.508298 0.0593703 0.0497 0.495142 
0.0516659 0.0476244 0.481879 0.0436374 0.04561 0.468473 0.0353514 0.0437107 0.454881 
0.0268904 0.0419806 0.441057 0.0183457 0.040471 0.426956 0.00981048 0.0392268 0.412532 
0.00137158 0.0382839 0.397746 -0.00689744 0.0376669 0.38256 -0.0149417 0.0373875 0.366937 
-0.0227276 0.0374439 0.350839 -0.0302429 0.0378221 0.334229 -0.0374931 0.0384971 0.317066 
-0.0444955 0.0394359 0.299306 -0.0512712 0.0406007 0.280904 -0.0578364 0.0419532 0.261815 
-0.0641933 0.0434572 0.241997 -0.0703232 0.045083 0.221418 -0.0761817 0.0468086 0.200057 
-0.0816969 0.0486216 0.17791 -0.0867715 0.0505188 0.154995 -0.0912889 0.0525051 0.131355 
-0.095121 0.0545905 0.107055 -0.0981401 0.0567873 0.0821842 -0.10023 0.0591055 0.0568528 
-0.101297 0.0615489 0.0311857 -0.101283 0.0641117 0.00531607 -0.100169 0.0667753 -0.0206216 
-0.0979797 0.0695067 -0.0464998 -0.0947852 0.0722583 -0.0722045 -0.0906941 0.0749691 -0.0976414 
-0.0858463 0.0775672 -0.12274 -0.0804015 0.0799739 -0.147454 -0.0745269 0.0821082 -0.171761 
-0.0683833 0.0838923 -0.195662 -0.0621136 0.0852563 -0.219171 -0.0558322 0.0861426 -0.242312 
-0.0496183 0.0865096 -0.265111 -0.043513 0.0863332 -0.287591 -0.0375199 0.0856079 -0.309761 
-0.0316101 0.0843454 -0.331618 -0.0257301 0.0825724 -0.353139 -0.0198119 0.0803269 -0.374285 
-0.0137846 0.0776544 -0.395 -0.00758508 0.0746032 -0.415219 -0.0011687 0.071221 -0.434867 
0.00548359 0.067551 -0.453873 0.0123602 0.0636301 -0.472169 0.0194177 0.059488 -0.489699 
0.0265828 0.0551475 -0.506422 0.0337574 0.0506264 -0.522313 0.0408261 0.0459397 -0.537367 
0.0476657 0.0411029 -0.55159 0.054154 0.0361354 -0.565006 0.0601802 0.0310628 -0.577645 
0.0656522 0.0259196 -0.589542 0.0705027 0.0207496 -0.60073 0.0746935 0.015606 -0.611242 
0.0782157 0.0105493 -0.621098 0.0810887 0.00564482 -0.630316 0.0833563 0.000958831 -0.638901 
0.0850814 -0.00344569 -0.646853 0.0863395 -0.00751324 -0.654165 0.0872124 -0.0111995 -0.66083 
0.0877816 -0.0144743 -0.666839 0.088123 -0.0173229 -0.672188 0.0883036 -0.0197463 -0.676875 
0.0883783 -0.0217595 -0.680905 0.0883898 -0.023389 -0.684286 0.0883689 -0.0246687 -0.687033 
0.0883362 -0.0256351 -0.689158 0.0883044 -0.0263228 -0.690676 0.0882807 -0.02676 -0.691597 
0.0882689 -0.0269647 -0.691926 
LINES 2 100
OFFSETS vtktypeint64
0 100 
CONNECTIVITY vtktypeint64
0 1 2 3 4 5 6 7 8 
9 10 11 12 13 14 15 16 17 
18 19 20 21 22 23 24 25 26 
27 28 29 30 31 32 33 34 35 
36 37 38 39 40 41 42 43 44 
45 46 47 48 49 50 51 52 53 
54 55 56 57 58 59 60 61 62 
63 64 65 66 67 68 69 70 71 
72 73 74 75 76 77 78 79 80 
81 82 83 84 85 86 87 88 89 
90 91 92 93 94 95 96 97 98 
99 
POINT_DATA 100
FIELD FieldData 3
_theta 1 100 double
0 0.031733259127 0.063466518254 0.095199777382 0.12693303651 0.15866629564 0.19039955476 0.22213281389 0.25386607302 
0.28559933214 0.31733259127 0.3490658504 0.38079910953 0.41253236865 0.44426562778 0.47599888691 0.50773214603 0.53946540516 
0.57119866429 0.60293192342 0.63466518254 0.66639844167 0.6981317008 0.72986495992 0.76159821905 0.79333147818 0.82506473731 
0.85679799643 0.88853125556 0.92026451469 0.95199777382 0.98373103294 1.0154642921 1.0471975512 1.0789308103 1.1106640695 
1.1423973286 1.1741305877 1.2058638468 1.237597106 1.2693303651 1.3010636242 1.3327968833 1.3645301425 1.3962634016 
1.4279966607 1.4597299198 1.491463179 1.5231964381 1.5549296972 1.5866629564 1.6183962155 1.6501294746 1.6818627337 
1.7135959929 1.745329252 1.7770625111 1.8087957702 1.8405290294 1.8722622885 1.9039955476 1.9357288068 1.9674620659 
1.999195325 2.0309285841 2.0626618433 2.0943951024 2.1261283615 2.1578616206 2.1895948798 2.2213281389 2.253061398 
2.2847946572 2.3165279163 2.3482611754 2.3799944345 2.4117276937 2.4434609528 2.4751942119 2.506927471 2.5386607302 
2.5703939893 2.6021272484 2.6338605076 2.6655937667 2.6973270258 2.7290602849 2.7607935441 2.7925268032 2.8242600623 
2.8559933214 2.8877265806 2.9194598397 2.9511930988 2.982926358 3.0146596171 3.0463928762 3.0781261353 3.1098593945 
3.1415926536 
_radius 1 100 double
1.4480858136e-15 0.014738797446 0.029324723403 0.043610640505 0.05747548989 0.070830748774 0.083620978802 0.09581954741 0.10742167586 
0.11843713657 0.12888427 0.13878591256 0.14816681309 0.15705155594 0.1654620751 0.17341445206 0.18091553427 0.18796057102 
0.19453317943 0.20060840763 0.20615866927 0.21116133362 0.21560620063 0.21950114665 0.22287476189 0.22577551347 0.22826758003 
0.23042389057 0.23231710803 0.23400946214 0.2355425716 0.23692868707 0.23814497796 0.23913235403 0.23979971971 0.24003357251 
0.23971175755 0.2387193459 0.23696428824 0.23439076733 0.23098886894 0.22680001235 0.22191821655 0.21648752795 0.2106957842 
0.20476452613 0.19893463818 0.19344760908 0.18852349301 0.1843386608 0.18100836435 0.17857926904 0.17703420672 0.17630652551 
0.17629765045 0.17689132363 0.17796142539 0.1793749514 0.18099447963 0.18268358752 0.18431558637 0.1857835676 0.1870093234 
0.18794933942 0.18859677377 0.18897895601 0.18915061172 0.18918373174 0.18915558009 0.18913661418 0.18918003226 0.18931428177 
0.18953919339 0.18982557829 0.19011742508 0.19033555249 0.19038178399 0.19014321243 0.18949661554 0.18831336481 0.18646520114 
0.18383108847 0.18030505605 0.17580451658 0.17027804498 0.16371115325 0.15612842269 0.14759066711 0.13818668475 0.12802049728 
0.11719643708 0.1058055181 0.093916673579 0.081575376003 0.068810083351 0.055644567555 0.042112310825 0.028268434515 0.014195317424 
3.1516425179e-16 
_area 1 100 double
0 0.00061550811004 0.0024392574543 0.0054047165367 0.00940685366 0.014310468521 0.019960898915 0.026196055956 0.032858466122 
0.039805945081 0.046919748306 0.054109373277 0.061313380315 0.068495696112 0.07563730761 0.082724388081 0.089735435674 0.09663113911 
0.10335063207 0.10981624524 0.11594616268 0.12167150096 0.12695245638 0.13178813946 0.13621664014 0.14030520275 0.14413399996 
0.14777903107 0.15129857091 0.15472421019 0.1580549342 0.16125271884 0.16423965087 0.16689779074 0.16907343316 0.17058727558 
0.17125093926 0.17088813979 0.1693568583 0.16656882623 0.16250444593 0.15722318195 0.15086992652 0.14367672867 0.13595768856 
0.12809409684 0.12050721832 0.11361579466 0.10777349704 0.10318718137 0.099850281839 0.097558132344 0.096012288015 0.094932337012 
0.094109006736 0.093403452341 0.092730739341 0.09206448164 0.091500458189 0.091151366583 0.090867530482 0.090514050203 0.090034524873 
0.089389595615 0.088532994117 0.087426502707 0.086068934786 0.084514960135 0.08287505404 0.081300544794 0.079961796455 0.079025514259 
0.078629004599 0.078830338284 0.079542111885 0.080573271519 0.081732720428 0.082856299179 0.083790636411 0.084374109661 0.084428060346 
0.083763455384 0.082201778596 0.079603837426 0.075898579544 0.071104742071 0.065339045863 0.058806419229 0.051772468791 0.044524833075 
0.037334408819 0.030427476638 0.023975483437 0.01810227111 0.012902058841 0.0084588532624 0.0048595334832 0.0021959439394 0.00055487073737 
2.1250362581e-17 
