# vtk DataFile Version 5.1
vtk output
ASCII
DATASET POLYDATA
POINTS 100 float
0.114548 0.0481815 0.641433 0.114449 0.0483264 0.641149 0.11423 0.0486258 0.640184 
0.113879 0.0490687 0.638559 0.113377 0.0496378 0.636307 0.112704 0.0503108 0.633467 
0.111839 0.051061 0.630078 0.110767 0.0518589 0.626169 0.109481 0.052673 0.62176 
0.10798 0.0534713 0.616851 0.106273 0.0542219 0.611428 0.104374 0.0548941 0.60546 
0.102297 0.0554588 0.598906 0.100052 0.0558891 0.591722 0.0976394 0.0561605 0.583868 
0.0950479 0.0562516 0.575314 0.0922491 0.0561446 0.566051 0.0891994 0.0558253 0.556092 
0.0858416 0.0552848 0.545479 0.0821105 0.0545195 0.534275 0.07794 0.0535323 0.522569 
0.0732712 0.0523336 0.510462 0.0680611 0.0509413 0.498061 0.06229 0.0493818 0.485471 
0.0559663 0.0476891 0.472786 0.0491286 0.0459046 0.46008 0.0418444 0.0440756 0.4474 
0.034204 0.0422532 0.434769 0.0263126 0.0404903 0.422178 0.0182798 0.0388388 0.409598 
0.0102078 0.0373468 0.396975 0.00218054 0.0360562 0.384244 -0.00574419 0.0350005 0.371334 
-0.0135404 0.0342034 0.358168 -0.0212145 0.0336777 0.344678 -0.028801 0.033426 0.330798 
-0.0363544 0.0334416 0.316472 -0.0439373 0.03371 0.301653 -0.0516064 0.0342122 0.286297 
-0.0593983 0.0349268 0.270367 -0.0673166 0.0358332 0.253828 -0.075323 0.0369142 0.236646 
-0.0833323 0.0381575 0.218792 -0.0912135 0.0395574 0.200239 -0.0987967 0.0411143 0.180973 
-0.105885 0.0428338 0.16099 -0.112271 0.0447249 0.140307 -0.117754 0.0467969 0.118963 
-0.12216 0.0490566 0.0970225 -0.125358 0.0515047 0.0745777 -0.127272 0.0541328 0.0517439 
-0.127889 0.056921 0.0286554 -0.12726 0.0598371 0.00545764 -0.125494 0.0628359 -0.0177026 
-0.122746 0.0658608 -0.0406878 -0.119205 0.0688459 -0.0633792 -0.115069 0.07172 -0.0856862 
-0.110529 0.0744106 -0.107551 -0.105752 0.0768484 -0.12895 -0.100865 0.0789716 -0.149895 
-0.0959458 0.08073 -0.170421 -0.0910209 0.0820873 -0.190583 -0.0860669 0.0830228 -0.210442 
-0.0810197 0.0835312 -0.230053 -0.075787 0.0836213 -0.249453 -0.070264 0.083313 -0.268657 
-0.0643496 0.0826333 -0.287646 -0.057962 0.0816125 -0.306371 -0.0510507 0.0802795 -0.324757 
-0.0436051 0.078658 -0.342705 -0.0356582 0.0767637 -0.360111 -0.0272845 0.0746029 -0.37687 
-0.0185944 0.0721723 -0.392893 -0.00972433 0.0694609 -0.408113 -0.000824866 0.0664528 -0.422495 
0.00795173 0.0631322 -0.436038 0.0164635 0.0594875 -0.448771 0.0245884 0.055517 -0.460748 
0.0322316 0.0512336 -0.472035 0.0393284 0.0466676 -0.482701 0.0458448 0.0418695 -0.492804 
0.051774 0.0369092 -0.502379 0.0571321 0.0318745 -0.511429 0.0619504 0.0268668 -0.519927 
0.0662697 0.0219952 -0.527809 0.0701335 0.0173696 -0.53499 0.0735832 0.0130929 -0.541371 
0.0766548 0.00925356 -0.546854 0.079378 0.00591878 -0.551359 0.0817758 0.00312947 -0.554842 
0.0838662 0.000897176 -0.557302 0.0856646 -0.000796492 -0.558791 0.0871854 -0.00199785 -0.559417 
0.0884439 -0.00277659 -0.559337 0.0894574 -0.00321918 -0.558745 0.0902445 -0.00342066 -0.557857 
0.090825 -0.00347566 -0.556889 0.0912172 -0.00346943 -0.556036 0.0914368 -0.00346978 -0.555456 
0.0914944 -0.00352053 -0.555249 
LINES 2 100
OFFSETS vtktypeint64
0 100 
CONNECTIVITY vtktypeint64
0 1 2 3 4 5 6 7 8 
9 10 11 12 13 14 15 16 17 
18 19 20 21 22 23 24 25 26 
27 28 29 30 31 32 33 34 35 
36 37 38 39 40 41 42 43 44 
45 46 47 48 49 50 51 52 53 
54 55 56 57 58 59 60 61 62 
63 64 65 66 67 68 69 70 71 
72 73 74 75 76 77 78 79 80 
81 82 83 84 85 86 87 88 89 
90 91 92 93 94 95 96 97 98 
99 
POINT_DATA 100
FIELD FieldData 3
_theta 1 100 double
0 0.031733259127 0.063466518254 0.095199777382 0.12693303651 0.15866629564 0.19039955476 0.22213281389 0.25386607302 
0.28559933214 0.31733259127 0.3490658504 0.38079910953 0.41253236865 0.44426562778 0.47599888691 0.50773214603 0.53946540516 
0.57119866429 0.60293192342 0.63466518254 0.66639844167 0.6981317008 0.72986495992 0.76159821905 0.79333147818 0.82506473731 
0.85679799643 0.88853125556 0.92026451469 0.95199777382 0.98373103294 1.0154642921 1.0471975512 1.0789308103 1.1106640695 
1.1423973286 1.1741305877 1.2058638468 1.237597106 1.2693303651 1.3010636242 1.3327968833 1.3645301425 1.3962634016 
1.4279966607 1.4597299198 1.491463179 1.5231964381 1.5549296972 1.5866629564 1.6183962155 1.6501294746 1.6818627337 
1.7135959929 1.745329252 1.7770625111 1.8087957702 1.8405290294 1.8722622885 1.9039955476 1.9357288068 1.9674620659 
1.999195325 2.0309285841 2.0626618433 2.0943951024 2.1261283615 2.1578616206 2.1895948798 2.2213281389 2.253061398 
2.2847946572 2.3165279163 2.3482611754 2.3799944345 2.4117276937 2.4434609528 2.4751942119 2.506927471 2.5386607302 
2.5703939893 2.6021272484 2.6338605076 2.6655937667 2.6973270258 2.7290602849 2.7607935441 2.7925268032 2.8242600623 
2.8559933214 2.8877265806 2.9194598397 2.9511930988 2.982926358 3.0146596171 3.0463928762 3.0781261353 3.1098593945 
3.1415926536 
_radius 1 100 double
8.0601756711e-16 0.013654518912 0.027146154693 0.040322100774 0.05305518454 0.065252110004 0.07685685452 0.087848935958 0.09823713217 
0.10804996061 0.11732465654 0.12609645914 0.13438977586 0.14221236624 0.14955318354 0.15638400737 0.16266453143 0.16835016547 
0.17340150021 0.17779418034 0.18152782864 0.18463265736 0.18717250801 0.18924332309 0.19096652306 0.19247745296 0.19390992265 
0.1953787521 0.19696292589 0.1986922114 0.20053973506 0.20242206758 0.20420708316 0.20572859244 0.20680580227 0.20726514065 
0.20696184283 0.20579882418 0.20374070185 0.20082135372 0.1971440978 0.19287438758 0.18822575756 0.18344050142 0.17876714203 
0.17443716081 0.17064373785 0.16752529808 0.16515611297 0.16354485189 0.16264025745 0.1623419561 0.16251429169 0.16300159757 
0.16364381467 0.16429148138 0.16481894298 0.16513442386 0.16518569736 0.16496070443 0.1644835157 0.16380703197 0.16300427343 
0.16215989666 0.16136291145 0.16070071558 0.16025383684 0.16009054286 0.16026092443 0.16079093645 0.16167765825 0.16288722063 
0.16435627248 0.16599676016 0.16770269089 0.16935696649 0.17083655475 0.17201512678 0.17276349866 0.17294930788 0.17243787571 
0.17109590351 0.16879862087 0.16543966526 0.16094185375 0.1552664983 0.14841912446 0.1404502258 0.13145073915 0.12154297087 
0.11086852151 0.099575204802 0.087804974587 0.075684484316 0.063319223805 0.050791395028 0.038161006557 0.025469239058 0.012743028142 
7.5101126899e-16 
_area 1 100 double
0 0.00044593737449 0.0017681794422 0.0039220759602 0.0068395698789 0.010437127246 0.014624077519 0.019309482397 0.024406078674 
0.029830665335 0.035501365104 0.041333204736 0.04723408294 0.053103169384 0.058833071333 0.064315956543 0.069452650244 0.074162948124 
0.078395238253 0.082133908424 0.085403489051 0.08826851046 0.090827666998 0.093201273066 0.095513484008 0.097873929901 0.10036361229 
0.10302673243 0.10586717954 0.10884788789 0.11189228774 0.11488814409 0.1176941941 0.12014688289 0.12206477019 0.12325755322 
0.1235471147 0.12279757576 0.12093889231 0.11798167121 0.11402541478 0.10925899839 0.10395077178 0.098426307665 0.093033953047 
0.088100873054 0.083883979944 0.080523573469 0.078017983277 0.076241505995 0.075000873255 0.07409656377 0.073361352189 0.072661477434 
0.071871718694 0.070883675142 0.069634584369 0.068119504028 0.06638894853 0.064535797319 0.06267253572 0.060914052998 0.05936045204 
0.058127763495 0.057277220194 0.056692169671 0.056342355009 0.056295816582 0.056694056709 0.057531968021 0.058742180099 0.060273016298 
0.062063166653 0.064039738056 0.066119220652 0.068208941929 0.070209965187 0.072020268634 0.073534860177 0.074641333789 0.075213967017 
0.07511253773 0.07419106984 0.072317399006 0.06939948222 0.065411137143 0.060409500264 0.054538940296 0.048020254904 0.041127837197 
0.034159819581 0.027406852894 0.021124688001 0.015514556702 0.010713719634 0.0067966701594 0.0037856592222 0.0016677213917 0.00041440291846 
2.1684255205e-17 
