# vtk DataFile Version 5.1
vtk output
ASCII
DATASET POLYDATA
POINTS 100 float
0.137462 0.0285391 0.656486 0.137559 0.0286836 0.656334 0.137905 0.0289698 0.655739 
0.138449 0.029384 0.654681 0.139108 0.0299069 0.653131 0.139779 0.0305161 0.651051 
0.140347 0.0311902 0.648395 0.140697 0.0319115 0.645116 0.140726 0.0326682 0.641167 
0.140347 0.033456 0.636505 0.1395 0.0342769 0.631097 0.138149 0.0351375 0.624924 
0.136286 0.0360455 0.617982 0.133924 0.0370055 0.610289 0.131091 0.0380149 0.601881 
0.127825 0.0390602 0.592819 0.12416 0.0401154 0.583178 0.120128 0.0411409 0.573051 
0.115747 0.0420862 0.562536 0.111021 0.0428931 0.551735 0.105943 0.0435017 0.540742 
0.100498 0.0438568 0.529639 0.0946639 0.043915 0.518486 0.0884266 0.0436504 0.507319 
0.0817817 0.0430593 0.496144 0.0747427 0.0421619 0.484942 0.0673455 0.0410027 0.473666 
0.0596492 0.0396462 0.46225 0.0517349 0.0381721 0.450613 0.0437004 0.036668 0.438667 
0.0356521 0.035221 0.426328 0.0276961 0.0339106 0.41352 0.019927 0.0328019 0.40018 
0.0124188 0.0319417 0.386267 0.00521703 0.0313566 0.371758 -0.00166601 0.0310543 0.356648 
-0.00825203 0.0310275 0.340948 -0.0145934 0.0312592 0.32468 -0.0207658 0.0317293 0.307869 
-0.0268578 0.0324212 0.290541 -0.0329581 0.0333266 0.272715 -0.0391423 0.0344493 0.254403 
-0.04546 0.0358045 0.235607 -0.0519248 0.0374173 0.216321 -0.0585077 0.039317 0.196536 
-0.0651349 0.04153 0.176242 -0.0716903 0.0440719 0.155435 -0.0780233 0.0469399 0.134122 
-0.0839597 0.0501067 0.112326 -0.0893166 0.0535169 0.0900876 -0.0939174 0.0570873 0.0674652 
-0.0976075 0.0607106 0.0445324 -0.100267 0.064263 0.0213739 -0.101824 0.0676141 -0.00192091 
-0.102253 0.070639 -0.0252648 -0.101585 0.0732304 -0.0485797 -0.0998983 0.0753091 -0.0718026 
-0.0973087 0.0768325 -0.0948887 -0.0939616 0.0777978 -0.117813 -0.0900153 0.078242 -0.140569 
-0.0856273 0.0782363 -0.163162 -0.0809405 0.0778766 -0.185606 -0.0760715 0.0772709 -0.207912 
-0.0711034 0.0765249 -0.230081 -0.0660815 0.0757284 -0.2521 -0.0610147 0.0749428 -0.273932 
-0.0558797 0.0741929 -0.295519 -0.0506299 0.0734627 -0.316779 -0.0452062 0.0726968 -0.337615 
-0.0395487 0.0718074 -0.35792 -0.0336085 0.0706843 -0.377586 -0.0273583 0.0692094 -0.396519 
-0.0208 0.0672717 -0.414644 -0.0139692 0.0647821 -0.431916 -0.00693589 0.0616858 -0.448322 
0.000198176 0.057971 -0.463886 0.00730592 0.0536721 -0.478661 0.0142436 0.0488684 -0.492725 
0.0208612 0.0436773 -0.506172 0.0270135 0.0382434 -0.519095 0.0325704 0.0327249 -0.531577 
0.0374261 0.0272788 -0.54368 0.0415059 0.0220473 -0.555434 0.0447703 0.017146 -0.566835 
0.0472158 0.012656 -0.57784 0.0488741 0.00862059 -0.588379 0.049807 0.00504638 -0.598355 
0.0501012 0.00190878 -0.607662 0.0498606 -0.000839565 -0.616193 0.0491989 -0.00325824 -0.623857 
0.0482323 -0.00540834 -0.630588 0.0470728 -0.0073428 -0.636353 0.0458235 -0.00909922 -0.641159 
0.0445745 -0.0106959 -0.645046 0.0434015 -0.0121312 -0.648087 0.0423652 -0.0133869 -0.650377 
0.0415119 -0.0144332 -0.652017 0.0408749 -0.0152364 -0.653107 0.0404768 -0.0157654 -0.653726 
0.0403303 -0.0159991 -0.653928 
LINES 2 100
OFFSETS vtktypeint64
0 100 
CONNECTIVITY vtktypeint64
0 1 2 3 4 5 6 7 8 
9 10 11 12 13 14 15 16 17 
18 19 20 21 22 23 24 25 26 
27 28 29 30 31 32 33 34 35 
36 37 38 39 40 41 42 43 44 
45 46 47 48 49 50 51 52 53 
54 55 56 57 58 59 60 61 62 
63 64 65 66 67 68 69 70 71 
72 73 74 75 76 77 78 79 80 
81 82 83 84 85 86 87 88 89 
90 91 92 93 94 95 96 97 98 
99 
POINT_DATA 100
FIELD FieldData 3
_theta 1 100 double
0 0.031733259127 0.063466518254 0.095199777382 0.12693303651 0.15866629564 0.19039955476 0.22213281389 0.25386607302 
0.28559933214 0.31733259127 0.3490658504 0.38079910953 0.41253236865 0.44426562778 0.47599888691 0.50773214603 0.53946540516 
0.57119866429 0.60293192342 0.63466518254 0.66639844167 0.6981317008 0.72986495992 0.76159821905 0.79333147818 0.82506473731 
0.85679799643 0.88853125556 0.92026451469 0.95199777382 0.98373103294 1.0154642921 1.0471975512 1.0789308103 1.1106640695 
1.1423973286 1.1741305877 1.2058638468 1.237597106 1.2693303651 1.3010636242 1.3327968833 1.3645301425 1.3962634016 
1.4279966607 1.4597299198 1.491463179 1.5231964381 1.5549296972 1.5866629564 1.6183962155 1.6501294746 1.6818627337 
1.7135959929 1.745329252 1.7770625111 1.8087957702 1.8405290294 1.8722622885 1.9039955476 1.9357288068 1.9674620659 
1.999195325 2.0309285841 2.0626618433 2.0943951024 2.1261283615 2.1578616206 2.1895948798 2.2213281389 2.253061398 
2.2847946572 2.3165279163 2.3482611754 2.3799944345 2.4117276937 2.4434609528 2.4751942119 2.506927471 2.5386607302 
2.5703939893 2.6021272484 2.6338605076 2.6655937667 2.6973270258 2.7290602849 2.7607935441 2.7925268032 2.8242600623 
2.8559933214 2.8877265806 2.9194598397 2.9511930988 2.982926358 3.0146596171 3.0463928762 3.0781261353 3.1098593945 
3.1415926536 
_radius 1 100 double
9.0398236292e-16 0.014062604496 0.028041394612 0.04185117304 0.055412059535 0.068651491445 0.081505487044 0.093919342984 0.1058480204 
0.11725643837 0.12811980184 0.13842399215 0.14816593973 0.15735375454 0.16600623072 0.1741512537 0.18182273146 0.18905599711 
0.19588212696 0.20232212767 0.20838226685 0.21405179936 0.21930393373 0.22410018005 0.2283974026 0.23215618526 0.23534871072 
0.23796440636 0.24001215583 0.24151877883 0.24252443965 0.2430763048 0.2432219216 0.24300348496 0.2424536546 0.24159314736 
0.24043008784 0.23896103686 0.23717364034 0.23505085109 0.23257658821 0.22974247419 0.22655496108 0.22304183336 0.21925688275 
0.21528158112 0.21122287052 0.20720673588 0.20336796219 0.19983725846 0.19672755888 0.19412163977 0.19206316849 0.19055285382 
0.18955035254 0.18898110023 0.18874596181 0.18873147071 0.18881961163 0.18889750254 0.18886756311 0.18865767725 0.18822964684 
0.18758394676 0.18675943133 0.18582763732 0.18488226648 0.18402519394 0.18335090168 0.18293148951 0.18280430563 0.18296381127 
0.18335868334 0.18389448353 0.18444154288 0.18484704202 0.18494964621 0.1845946139 0.18364723845 0.18200289252 0.17959266355 
0.17638429124 0.17237863529 0.16760226201 0.16209712399 0.15590879446 0.14907516707 0.14161768651 0.13353684517 0.12481286455 
0.11541138675 0.10529296805 0.094424505623 0.082790585888 0.070403044649 0.057307552001 0.043586552847 0.029358303388 0.014772081305 
1.0644782802e-15 
_area 1 100 double
0 0.00048220198175 0.0019154405323 0.0042614439018 0.007461787702 0.011443778984 0.016125572023 0.021419373836 0.027232727333 
0.03346884581 0.040027543095 0.046808297541 0.05371620917 0.06067006391 0.06760996711 0.07450108869 0.081331031079 0.088101514213 
0.094818661243 0.10148630061 0.10810241528 0.11465532214 0.12111793132 0.12744305839 0.13356426264 0.13940306524 0.14487885683 
0.14991698756 0.15445319438 0.15843539626 0.16182482494 0.1645973656 0.16674403151 0.16826836522 0.16917941721 0.16948153166 
0.16916480058 0.16820092401 0.16654781102 0.16416330041 0.16102497712 0.15715046505 0.15261181271 0.14753886981 0.14210944746 
0.13652796869 0.130998335 0.12569920161 0.12076894467 0.11630299575 0.11236015182 0.10897020007 0.10613411656 0.10381222904 
0.10191397376 0.10031833942 0.098915034639 0.09762141118 0.096369117843 0.095084023846 0.093674079717 0.092041156879 0.090117700681 
0.0878998737 0.085457107607 0.082920053525 0.080456780273 0.078246796534 0.076459698322 0.075237081613 0.074664970956 0.074720542377 
0.075269919107 0.076140700625 0.077156831997 0.078155143794 0.078989682458 0.079527820367 0.079642685262 0.079209748773 0.078117472331 
0.076287939682 0.073692351304 0.07035394646 0.066339895338 0.061746567653 0.056683297634 0.051259579946 0.045579092135 0.039741258027 
0.033848210789 0.02801307482 0.022365187953 0.017049368263 0.012219004086 0.0080253140277 0.0046061562972 0.0020768464015 0.0005237077501 
2.0818375364e-17 
