# vtk DataFile Version 5.1
vtk output
ASCII
DATASET POLYDATA
POINTS 100 float
0.105359 0.0530599 0.674776 0.10533 0.0532376 0.67459 0.105287 0.0536241 0.673891 
0.105211 0.0541918 0.672688 0.105074 0.0548979 0.670996 0.104842 0.055689 0.66883 
0.104484 0.0565063 0.666201 0.103969 0.0572905 0.66311 0.103279 0.0579877 0.65955 
0.102405 0.0585526 0.655495 0.101348 0.0589514 0.65091 0.10012 0.0591628 0.645748 
0.0987387 0.0591774 0.639955 0.0972198 0.0589956 0.633477 0.0955754 0.0586249 0.626268 
0.0938062 0.0580767 0.618294 0.0918982 0.0573634 0.60954 0.0898209 0.0564962 0.600017 
0.0875273 0.0554838 0.589757 0.0849578 0.0543331 0.578818 0.0820454 0.0530496 0.567279 
0.0787232 0.0516402 0.555231 0.0749322 0.0501154 0.542774 0.0706296 0.0484918 0.530003 
0.0657945 0.0467942 0.517006 0.0604325 0.0450557 0.503856 0.0545761 0.0433177 0.490601 
0.0482828 0.0416274 0.477267 0.0416293 0.0400353 0.463855 0.0347038 0.0385902 0.450346 
0.0275966 0.0373358 0.436698 0.0203905 0.0363064 0.422858 0.0131525 0.0355239 0.408766 
0.00592751 0.0349964 0.394356 -0.00126435 0.0347186 0.379565 -0.0084271 0.0346736 0.364334 
-0.0155841 0.0348371 0.348608 -0.0227702 0.0351815 0.33234 -0.0300214 0.0356813 0.315485 
-0.037364 0.0363181 0.298004 -0.0448033 0.0370841 0.279858 -0.0523154 0.0379844 0.261014 
-0.0598413 0.0390366 0.241438 -0.0672858 0.0402689 0.221106 -0.0745205 0.0417158 0.199999 
-0.0813912 0.0434122 0.178112 -0.0877293 0.0453872 0.155459 -0.0933648 0.0476578 0.132073 
-0.0981411 0.0502235 0.108014 -0.101928 0.0530629 0.083363 -0.104635 0.0561327 0.058227 
-0.106215 0.0593692 0.032731 -0.106672 0.0626921 0.00701259 -0.106056 0.0660105 -0.0187854 
-0.10446 0.0692301 -0.0445246 -0.102005 0.0722609 -0.0700793 -0.0988327 0.0750238 -0.0953442 
-0.0950902 0.0774558 -0.12024 -0.0909147 0.0795132 -0.144716 -0.0864247 0.0811719 -0.168748 
-0.0817106 0.0824248 -0.192337 -0.0768312 0.0832775 -0.215502 -0.0718136 0.0837423 -0.238269 
-0.0666566 0.0838315 -0.260665 -0.0613387 0.0835511 -0.28271 -0.0558262 0.082897 -0.304405 
-0.0500841 0.0818518 -0.325734 -0.0440852 0.0803866 -0.346658 -0.0378179 0.0784637 -0.36712 
-0.0312922 0.0760432 -0.38705 -0.0245413 0.0730903 -0.406371 -0.0176214 0.0695845 -0.425013 
-0.0106084 0.0655271 -0.442916 -0.00359175 0.0609474 -0.460043 0.00333189 0.0559062 -0.476381 
0.010066 0.0504953 -0.491946 0.0165206 0.0448338 -0.506782 0.0226176 0.0390604 -0.520951 
0.0282937 0.0333228 -0.534529 0.0335023 0.027766 -0.547594 0.0382126 0.0225197 -0.560214 
0.042408 0.0176872 -0.572437 0.0460832 0.0133369 -0.584285 0.049241 0.00949742 -0.595747 
0.0518906 0.00615743 -0.606781 0.0540448 0.00326935 -0.617314 0.0557203 0.000757629 -0.627255 
0.056938 -0.00147025 -0.636503 0.0577243 -0.00351089 -0.644958 0.058113 -0.00545214 -0.652535 
0.0581473 -0.00736165 -0.659174 0.0578805 -0.00927841 -0.664849 0.0573765 -0.0112082 -0.669569 
0.0567081 -0.0131238 -0.673379 0.055954 -0.0149689 -0.676353 0.0551947 -0.0166668 -0.678587 
0.0545068 -0.0181311 -0.680183 0.053958 -0.0192778 -0.681239 0.0536013 -0.0200368 -0.681837 
0.0534705 -0.0203616 -0.682028 
LINES 2 100
OFFSETS vtktypeint64
0 100 
CONNECTIVITY vtktypeint64
0 1 2 3 4 5 6 7 8 
9 10 11 12 13 14 15 16 17 
18 19 20 21 22 23 24 25 26 
27 28 29 30 31 32 33 34 35 
36 37 38 39 40 41 42 43 44 
45 46 47 48 49 50 51 52 53 
54 55 56 57 58 59 60 61 62 
63 64 65 66 67 68 69 70 71 
72 73 74 75 76 77 78 79 80 
81 82 83 84 85 86 87 88 89 
90 91 92 93 94 95 96 97 98 
99 
POINT_DATA 100
FIELD FieldData 3
_theta 1 100 double
0 0.031733259127 0.063466518254 0.095199777382 0.12693303651 0.15866629564 0.19039955476 0.22213281389 0.25386607302 
0.28559933214 0.31733259127 0.3490658504 0.38079910953 0.41253236865 0.44426562778 0.47599888691 0.50773214603 0.53946540516 
0.57119866429 0.60293192342 0.63466518254 0.66639844167 0.6981317008 0.72986495992 0.76159821905 0.79333147818 0.82506473731 
0.85679799643 0.88853125556 0.92026451469 0.95199777382 0.98373103294 1.0154642921 1.0471975512 1.0789308103 1.1106640695 
1.1423973286 1.1741305877 1.2058638468 1.237597106 1.2693303651 1.3010636242 1.3327968833 1.3645301425 1.3962634016 
1.4279966607 1.4597299198 1.491463179 1.5231964381 1.5549296972 1.5866629564 1.6183962155 1.6501294746 1.6818627337 
1.7135959929 1.745329252 1.7770625111 1.8087957702 1.8405290294 1.8722622885 1.9039955476 1.9357288068 1.9674620659 
1.999195325 2.0309285841 2.0626618433 2.0943951024 2.1261283615 2.1578616206 2.1895948798 2.2213281389 2.253061398 
2.2847946572 2.3165279163 2.3482611754 2.3799944345 2.4117276937 2.4434609528 2.4751942119 2.506927471 2.5386607302 
2.5703939893 2.6021272484 2.6338605076 2.6655937667 2.6973270258 2.7290602849 2.7607935441 2.7925268032 2.8242600623 
2.8559933214 2.8877265806 2.9194598397 2.9511930988 2.982926358 3.0146596171 3.0463928762 3.0781261353 3.1098593945 
3.1415926536 
_radius 1 100 double
7.0885479648e-16 0.01403412929 0.027998065614 0.041818896485 0.055427240161 0.06875881336 0.081755590929 0.094366474952 0.10654740059 
0.11826081928 0.12947456009 0.14016022579 0.1502915449 0.15984337084 0.16879204292 0.17711738459 0.18480584179 0.19185365176 
0.1982688853 0.20407168547 0.20929269677 0.21397022977 0.21814697643 0.22186703489 0.22517366318 0.22810769228 0.23070610395 
0.23300013373 0.23501250581 0.23675396424 0.23821988066 0.2393880897 0.2402190367 0.24065883585 0.24064513449 0.24011503435 
0.23901393763 0.23730412688 0.2349720836 0.23203386623 0.22853817257 0.22456691688 0.22023322866 0.21567676088 0.21105617726 
0.20653882946 0.20228809566 0.19844965456 0.19513882557 0.19243143876 0.19036003161 0.18891565634 0.18805400491 0.18770370177 
0.18777469927 0.18816546854 0.18876871892 0.18947631803 0.190184517 0.190800225 0.19124807547 0.19147699649 0.1914645683 
0.19121782331 0.1907700822 0.19017452125 0.18949600807 0.18880293184 0.18816015757 0.18762326874 0.18723363309 0.18701385308 
0.18696359408 0.18705622498 0.18723693999 0.18742300466 0.1875065163 0.1873596793 0.18684219408 0.18581004396 0.18412476786 
0.1816622259 0.17831991845 0.17402214429 0.16872265848 0.16240490931 0.15508026345 0.14678479206 0.13757519017 0.12752429279 
0.11671650452 0.10524333557 0.09319917675 0.080677456345 0.067767375587 0.054551462162 0.041104162465 0.027491599198 0.013772479961 
3.6158574699e-16 
_area 1 100 double
0 0.00051226199859 0.0020330957944 0.0045164933719 0.0078915904502 0.012070307443 0.016956262336 0.022453796381 0.028475842736 
0.034948510107 0.041808907978 0.048993799512 0.056423071086 0.063988500739 0.071555753454 0.078978984446 0.086121966464 0.092878576466 
0.09918653991 0.105030787 0.11043627046 0.11545383265 0.12014537572 0.12457440153 0.12880374005 0.1328954667 0.13690414273 
0.14085994039 0.14475009121 0.14851064701 0.15203110185 0.15516692768 0.15775649464 0.15964102833 0.16068488257 0.16079155036 
0.15991174994 0.15804402295 0.15523227652 0.15156363776 0.14716526493 0.14219743087 0.13684319868 0.13129739026 0.12575680033 
0.12041120705 0.11543331262 0.11096646027 0.10711110247 0.10391384816 0.10136588121 0.099415397531 0.097987731814 0.097000655674 
0.096370183739 0.096010142431 0.095828651822 0.095724768064 0.095590873003 0.095323464471 0.094838334293 0.094083714546 0.093047620978 
0.091759010805 0.090285502696 0.088757675602 0.087549110393 0.086528655261 0.085648719307 0.08488807752 0.084286854968 0.083946425322 
0.083884632534 0.084087130352 0.084554772447 0.085262623515 0.0861382419 0.087047375434 0.087794888568 0.088150785248 0.087886834913 
0.086806073919 0.084763404538 0.081679195932 0.077546117367 0.072428888862 0.066457094675 0.059812117538 0.052710224585 0.045384412165 
0.038067511818 0.030978374799 0.024312088286 0.018234526655 0.012881160558 0.0083595508172 0.0047539814703 0.002129753844 0.00053502937971 
4.4228977295e-17 
