# vtk DataFile Version 5.1
vtk output
ASCII
DATASET POLYDATA
POINTS 100 float
0.189365 0.0945686 -0.653344 0.189312 0.0944391 -0.653582 0.189172 0.0938753 -0.654213 
0.188913 0.0929005 -0.655092 0.188481 0.0915488 -0.655995 0.187806 0.0898581 -0.656647 
0.186806 0.087862 -0.656755 0.185386 0.0855813 -0.656038 0.183453 0.083018 -0.654259 
0.18091 0.0801517 -0.651252 0.177671 0.0769392 -0.646934 0.173659 0.0733188 -0.641311 
0.168816 0.0692173 -0.634467 0.163101 0.0645606 -0.626555 0.156497 0.059285 -0.617764 
0.149012 0.0533494 -0.608294 0.14068 0.0467449 -0.598329 0.131557 0.0395025 -0.588008 
0.121724 0.0316961 -0.577409 0.111279 0.0234406 -0.56654 0.100339 0.0148867 -0.555339 
0.0890253 0.00621006 -0.543684 0.0774655 -0.00240061 -0.531415 0.0657819 -0.010758 -0.518349 
0.0540866 -0.0186895 -0.504317 0.0424753 -0.0260491 -0.489176 0.0310219 -0.0327254 -0.472835 
0.0197762 -0.0386464 -0.455263 0.00876244 -0.0437786 -0.436494 -0.00201867 -0.0481233 -0.416619 
-0.0125857 -0.0517089 -0.395772 -0.02297 -0.0545808 -0.374116 -0.0332065 -0.0567919 -0.351815 
-0.0433243 -0.0583922 -0.329019 -0.0533363 -0.0594228 -0.305844 -0.0632292 -0.0599108 -0.282365 
-0.0729567 -0.0598692 -0.258606 -0.082434 -0.0592995 -0.234551 -0.0915373 -0.0581978 -0.210151 
-0.100107 -0.0565617 -0.185345 -0.107954 -0.0543982 -0.160073 -0.114872 -0.0517308 -0.134299 
-0.120654 -0.0486041 -0.108027 -0.125104 -0.0450859 -0.0813102 -0.128055 -0.0412654 -0.0542533 
-0.129389 -0.0372485 -0.0270107 -0.129043 -0.0331499 0.00022602 -0.12702 -0.0290845 0.0272438 
-0.123393 -0.025157 0.0538282 -0.118299 -0.0214539 0.0797835 -0.111935 -0.0180366 0.10495 
-0.104539 -0.0149383 0.12922 -0.0963776 -0.0121644 0.152539 -0.0877218 -0.00969571 0.174912 
-0.0788303 -0.0074962 0.196395 -0.0699304 -0.00552133 0.217081 -0.0612028 -0.00372788 0.237083 
-0.0527723 -0.00208298 0.256522 -0.0447032 -0.000571107 0.275505 -0.037002 0.000801764 0.294116 
-0.0296248 0.0020077 0.312405 -0.0224897 0.00299992 0.330392 -0.0154928 0.00371913 0.348063 
-0.00852483 0.00410209 0.365386 -0.00148799 0.00409125 0.38232 0.00569001 0.00364395 0.398828 
0.0130457 0.0027399 0.414889 0.0205744 0.00138581 0.430509 0.0282303 -0.000383555 0.44572 
0.0359311 -0.00250801 0.460582 0.0435676 -0.004908 0.475174 0.0510159 -0.00749314 0.489585 
0.0581506 -0.0101721 0.503897 0.0648585 -0.0128625 0.51817 0.0710498 -0.0154989 0.532433 
0.0766661 -0.0180388 0.546671 0.0816843 -0.0204646 0.560822 0.0861166 -0.0227819 0.574782 
0.0900059 -0.0250148 0.58841 0.0934181 -0.0271975 0.601544 0.096432 -0.0293656 0.61402 
0.0991289 -0.0315461 0.625684 0.101583 -0.0337502 0.636414 0.103851 -0.0359669 0.646133 
0.105972 -0.0381619 0.654814 0.10796 -0.0402793 0.662483 0.10981 -0.0422477 0.669212 
0.1115 -0.0439888 0.675113 0.113 -0.0454283 0.680315 0.11428 -0.0465064 0.684953 
0.115313 -0.0471882 0.689148 0.116089 -0.0474701 0.692993 0.116614 -0.0473832 0.696545 
0.116912 -0.046992 0.699816 0.117024 -0.0463886 0.702782 0.117002 -0.0456835 0.705385 
0.116903 -0.044993 0.707549 0.116784 -0.0444264 0.709193 0.11669 -0.0440727 0.710244 
0.11665 -0.0439904 0.710655 
LINES 2 100
OFFSETS vtktypeint64
0 100 
CONNECTIVITY vtktypeint64
0 1 2 3 4 5 6 7 8 
9 10 11 12 13 14 15 16 17 
18 19 20 21 22 23 24 25 26 
27 28 29 30 31 32 33 34 35 
36 37 38 39 40 41 42 43 44 
45 46 47 48 49 50 51 52 53 
54 55 56 57 58 59 60 61 62 
63 64 65 66 67 68 69 70 71 
72 73 74 75 76 77 78 79 80 
81 82 83 84 85 86 87 88 89 
90 91 92 93 94 95 96 97 98 
99 
POINT_DATA 100
FIELD FieldData 3
_theta 1 100 double
0 0.031733259127 0.063466518254 0.095199777382 0.12693303651 0.15866629564 0.19039955476 0.22213281389 0.25386607302 
0.28559933214 0.31733259127 0.3490658504 0.38079910953 0.41253236865 0.44426562778 0.47599888691 0.50773214603 0.53946540516 
0.57119866429 0.60293192342 0.63466518254 0.66639844167 0.6981317008 0.72986495992 0.76159821905 0.79333147818 0.82506473731 
0.85679799643 0.88853125556 0.92026451469 0.95199777382 0.98373103294 1.0154642921 1.0471975512 1.0789308103 1.1106640695 
1.1423973286 1.1741305877 1.2058638468 1.237597106 1.2693303651 1.3010636242 1.3327968833 1.3645301425 1.3962634016 
1.4279966607 1.4597299198 1.491463179 1.5231964381 1.5549296972 1.5866629564 1.6183962155 1.6501294746 1.6818627337 
1.7135959929 1.745329252 1.7770625111 1.8087957702 1.8405290294 1.8722622885 1.9039955476 1.9357288068 1.9674620659 
1.999195325 2.0309285841 2.0626618433 2.0943951024 2.1261283615 2.1578616206 2.1895948798 2.2213281389 2.253061398 
2.2847946572 2.3165279163 2.3482611754 2.3799944345 2.4117276937 2.4434609528 2.4751942119 2.506927471 2.5386607302 
2.5703939893 2.6021272484 2.6338605076 2.6655937667 2.6973270258 2.7290602849 2.7607935441 2.7925268032 2.8242600623 
2.8559933214 2.8877265806 2.9194598397 2.9511930988 2.982926358 3.0146596171 3.0463928762 3.0781261353 3.1098593945 
3.1415926536 
_radius 1 100 double
4.7752497884e-16 0.016608422744 0.033087321484 0.049302166459 0.065119710224 0.080410761215 0.095054188023 0.1089412915 0.12197943143 
0.13409397038 0.14522810433 0.15534079849 0.16440362218 0.1723976025 0.17931120837 0.18514026174 0.18989006413 0.19357946091 
0.19624605596 0.19795141383 0.19878490861 0.19886494956 0.19833665403 0.19736560311 0.19612799577 0.19479817436 0.19353500677 
0.19246889525 0.19169119591 0.19124757451 0.19113634055 0.19131217398 0.19169495503 0.19218265824 0.1926665625 0.19304660451 
0.19324489537 0.19321622446 0.19295516263 0.19249949235 0.19192937305 0.1913616999 0.19093987508 0.19082030555 0.19115769048 
0.19209105724 0.1937316532 0.19615289689 0.19938227771 0.20339542916 0.20811318938 0.21340283886 0.21908453867 0.2249432067 
0.23074493259 0.23625602888 0.24126233053 0.24558644504 0.24910112252 0.25173751848 0.25348772472 0.25440151308 0.25457777824 
0.25415167702 0.25327892337 0.2521190561 0.25081964153 0.24950316608 0.24825777625 0.24713221263 0.24613460029 0.24523443486 
0.2443670691 0.24343998818 0.24234005824 0.24094093737 0.23911014631 0.23671575946 0.23363294137 0.22975046182 0.22497701398 
0.21924684574 0.21252400827 0.20480447366 0.19611552381 0.18651218966 0.1760710655 0.16488238782 0.153041661 0.14064217643 
0.12776946842 0.11449820449 0.10089144544 0.087001810205 0.072873881199 0.058547134424 0.04405873607 0.029445710392 0.01474622605 
2.2664013185e-16 
_area 1 100 double
0 0.00066659408544 0.0026574691103 0.0059407442892 0.010449045686 0.016066644634 0.022623275516 0.029898248986 0.037634073705 
0.04555568429 0.053390655839 0.060887156754 0.067828321267 0.074042610188 0.0794094619 0.083859372696 0.087368397136 0.089948659771 
0.091638058411 0.092493276106 0.092589715652 0.092029149791 0.090951449341 0.089544323307 0.088050859503 0.086773874175 0.08596921127 
0.085555048118 0.085550066344 0.085900100262 0.086555243527 0.087459215114 0.088565254084 0.08983912186 0.091252838175 0.092765094301 
0.094307715248 0.095804752821 0.097252928201 0.09860107966 0.099799304382 0.10083017936 0.10175293738 0.10267739646 0.10375426955 
0.10516509098 0.1071007716 0.10973743139 0.11321879921 0.11764463359 0.12305666875 0.12941738329 0.13658799323 0.14431843909 
0.15225971778 0.16000040076 0.16711836764 0.17323316856 0.17804845082 0.18138062481 0.18317185522 0.18348632033 0.1824952949 
0.1804707431 0.17785555014 0.1753496633 0.17289637862 0.17041995265 0.16802933917 0.16583514312 0.16389726247 0.16218822423 
0.16059311813 0.15893403022 0.15700857204 0.15462827126 0.15164215293 0.14793960885 0.14343994572 0.13808345704 0.1318338856 
0.12469058849 0.11670215818 0.10797394296 0.098665244179 0.088975589577 0.079122969771 0.069319665811 0.059752509845 0.050573081063 
0.041899117249 0.033823653387 0.026426475338 0.019783645283 0.01397283109 0.0090737669212 0.0051645281914 0.0023153345667 0.00058190978321 
2.2713405154e-17 
