# vtk DataFile Version 5.1
vtk output
ASCII
DATASET POLYDATA
POINTS 100 float
0.151121 0.0723648 -0.724023 0.151385 0.0722351 -0.724127 0.152179 0.0716753 -0.724421 
0.153421 0.070704 -0.72478 0.154986 0.0693499 -0.725016 0.156712 0.0676474 -0.724889 
0.158422 0.0656329 -0.724142 0.159937 0.06334 -0.722521 0.161092 0.0607954 -0.719801 
0.161744 0.0580165 -0.715814 0.161784 0.0550098 -0.710452 0.161135 0.0517711 -0.703687 
0.159751 0.0482882 -0.695558 0.157609 0.0445439 -0.686169 0.154703 0.0405206 -0.675669 
0.151029 0.036205 -0.664234 0.146581 0.0315928 -0.652045 0.141345 0.0266923 -0.639266 
0.135298 0.0215267 -0.62603 0.128409 0.0161354 -0.612425 0.120648 0.0105725 -0.59849 
0.111999 0.00490536 -0.584218 0.102466 -0.000789592 -0.569558 0.0920879 -0.00643049 -0.554435 
0.0809436 -0.0119345 -0.538758 0.0691571 -0.0172219 -0.522437 0.0568946 -0.0222188 -0.505395 
0.044356 -0.0268602 -0.487578 0.0317619 -0.0310903 -0.468962 0.0193358 -0.034863 -0.449549 
0.00728578 -0.0381416 -0.429366 -0.00421395 -0.0408973 -0.408455 -0.015038 -0.0431085 -0.386865 
-0.0251187 -0.0447605 -0.364642 -0.0344488 -0.0458452 -0.341818 -0.0430756 -0.0463623 -0.31841 
-0.0510883 -0.0463208 -0.294413 -0.0585995 -0.045741 -0.269807 -0.0657229 -0.0446562 -0.244562 
-0.072551 -0.0431151 -0.218646 -0.0791342 -0.0411818 -0.192039 -0.085466 -0.0389356 -0.164742 
-0.0914758 -0.0364689 -0.136785 -0.0970297 -0.0338834 -0.108237 -0.101941 -0.0312848 -0.0792037 
-0.10599 -0.0287768 -0.049829 -0.108945 -0.0264542 -0.0202847 -0.110593 -0.0243964 0.00923829 
-0.110763 -0.0226622 0.0385428 -0.109353 -0.0212854 0.0674391 -0.106341 -0.0202737 0.0957571 
-0.101796 -0.0196084 0.123357 -0.095873 -0.0192485 0.150135 -0.0888008 -0.0191348 0.176027 
-0.0808599 -0.0191974 0.201007 -0.0723564 -0.0193628 0.225079 -0.0635922 -0.0195614 0.248275 
-0.0548362 -0.0197344 0.270639 -0.0463005 -0.0198389 0.292223 -0.0381239 -0.0198509 0.313078 
-0.0303637 -0.0197658 0.333245 -0.0229984 -0.0195973 0.352757 -0.0159395 -0.0193735 0.371635 
-0.00904988 -0.0191321 0.389896 -0.00216874 -0.0189148 0.407552 0.00486322 -0.0187614 0.424619 
0.0121795 -0.0187056 0.441121 0.0198682 -0.018771 0.457092 0.0279598 -0.0189698 0.472581 
0.0364229 -0.0193027 0.487645 0.0451685 -0.0197608 0.502352 0.0540622 -0.0203285 0.516766 
0.0629415 -0.0209868 0.530949 0.0716369 -0.0217171 0.544944 0.0799925 -0.0225041 0.558778 
0.0878842 -0.0233374 0.572449 0.0952331 -0.0242113 0.585932 0.102012 -0.0251244 0.599176 
0.108245 -0.0260763 0.612111 0.113999 -0.0270647 0.624655 0.119373 -0.0280815 0.636725 
0.124479 -0.02911 0.648244 0.129429 -0.030123 0.659152 0.134313 -0.031082 0.669409 
0.13919 -0.0319395 0.679001 0.144085 -0.0326423 0.687941 0.148977 -0.0331364 0.696259 
0.153815 -0.033374 0.704002 0.158517 -0.0333196 0.71122 0.162991 -0.0329559 0.71796 
0.167142 -0.0322891 0.724254 0.170885 -0.0313506 0.730114 0.174159 -0.0301971 0.735525 
0.176928 -0.0289075 0.74045 0.179186 -0.0275771 0.744826 0.180949 -0.0263094 0.748578 
0.18225 -0.0252074 0.751623 0.183132 -0.0243635 0.753882 0.183632 -0.0238507 0.755291 
0.183779 -0.0237155 0.755805 
LINES 2 100
OFFSETS vtktypeint64
0 100 
CONNECTIVITY vtktypeint64
0 1 2 3 4 5 6 7 8 
9 10 11 12 13 14 15 16 17 
18 19 20 21 22 23 24 25 26 
27 28 29 30 31 32 33 34 35 
36 37 38 39 40 41 42 43 44 
45 46 47 48 49 50 51 52 53 
54 55 56 57 58 59 60 61 62 
63 64 65 66 67 68 69 70 71 
72 73 74 75 76 77 78 79 80 
81 82 83 84 85 86 87 88 89 
90 91 92 93 94 95 96 97 98 
99 
POINT_DATA 100
FIELD FieldData 3
_theta 1 100 double
0 0.031733259127 0.063466518254 0.095199777382 0.12693303651 0.15866629564 0.19039955476 0.22213281389 0.25386607302 
0.28559933214 0.31733259127 0.3490658504 0.38079910953 0.41253236865 0.44426562778 0.47599888691 0.50773214603 0.53946540516 
0.57119866429 0.60293192342 0.63466518254 0.66639844167 0.6981317008 0.72986495992 0.76159821905 0.79333147818 0.82506473731 
0.85679799643 0.88853125556 0.92026451469 0.95199777382 0.98373103294 1.0154642921 1.0471975512 1.0789308103 1.1106640695 
1.1423973286 1.1741305877 1.2058638468 1.237597106 1.2693303651 1.3010636242 1.3327968833 1.3645301425 1.3962634016 
1.4279966607 1.4597299198 1.491463179 1.5231964381 1.5549296972 1.5866629564 1.6183962155 1.6501294746 1.6818627337 
1.7135959929 1.745329252 1.7770625111 1.8087957702 1.8405290294 1.8722622885 1.9039955476 1.9357288068 1.9674620659 
1.999195325 2.0309285841 2.0626618433 2.0943951024 2.1261283615 2.1578616206 2.1895948798 2.2213281389 2.253061398 
2.2847946572 2.3165279163 2.3482611754 2.3799944345 2.4117276937 2.4434609528 2.4751942119 2.506927471 2.5386607302 
2.5703939893 2.6021272484 2.6338605076 2.6655937667 2.6973270258 2.7290602849 2.7607935441 2.7925268032 2.8242600623 
2.8559933214 2.8877265806 2.9194598397 2.9511930988 2.982926358 3.0146596171 3.0463928762 3.0781261353 3.1098593945 
3.1415926536 
_radius 1 100 double
4.878984947e-16 0.016923644635 0.033630700163 0.049913215678 0.065588487297 0.080508549628 0.094566132627 0.10769659877 0.11987571228 
0.1311134434 0.14144445181 0.15091641046 0.15957779216 0.16746696876 0.17460435131 0.18098884471 0.18659921687 0.19140022784 
0.19535265625 0.19842579915 0.2006106646 0.20193189228 0.20245637648 0.20229668753 0.20160786692 0.20057710078 0.19940702336 
0.19829469295 0.19740933664 0.19687251508 0.19674415179 0.19701680896 0.19761896333 0.19842643627 0.19928003177 0.20000690142 
0.20044300107 0.20045408105 0.19995293935 0.19891118377 0.19736446674 0.19541102093 0.19320427801 0.19094121702 0.18884838482 
0.18716679583 0.18613547815 0.18597256352 0.18685367966 0.18888984107 0.19210947261 0.19644969397 0.20175983133 0.20781656835 
0.21434727878 0.22105700862 0.22765503339 0.23387807627 0.23950847878 0.24438655728 0.24841698591 0.25156936859 0.25387331963 
0.2554085171 0.25629046977 0.25665321903 0.25663082721 0.2563400772 0.2558669981 0.25525932779 0.25452574619 0.25364098727 
0.25255446159 0.25119950997 0.24950109472 0.24738113521 0.24476195542 0.2415688324 0.23773241337 0.23319122247 0.22789403894 
0.22180178138 0.21488863035 0.20714233063 0.19856382599 0.18916652696 0.17897554292 0.16802708574 0.15636799526 0.14405506354 
0.13115370705 0.11773565795 0.10387569623 0.089647881958 0.075122069684 0.060361517182 0.045422082879 0.030352967221 0.01519846328 
1.1974408948e-15 
_area 1 100 double
0 0.00064998386805 0.0025788809888 0.0057255229587 0.0099921811465 0.015246440422 0.02132315311 0.028031586059 0.035169377532 
0.042538902925 0.04995918291 0.057269044522 0.06432287934 0.07098482003 0.077126575208 0.082629671297 0.087389434763 0.091318217503 
0.094347909719 0.096434411476 0.097566934882 0.097781844044 0.097177229944 0.09592315834 0.094260702641 0.092476782897 0.09084928428 
0.08960669521 0.088928063692 0.08893231518 0.089652721225 0.091028684806 0.09291615121 0.095104766534 0.09734129486 0.099363443798 
0.10094144423 0.10192284547 0.10228438037 0.10220032754 0.10199156972 0.10166793517 0.10104396132 0.10013160331 0.099097490933 
0.09819301074 0.097745103185 0.09810875359 0.099429312184 0.10176888285 0.1052323506 0.10989977264 0.11576284211 0.12269299938 
0.13043939379 0.1386496987 0.14690708706 0.15477741991 0.16185910102 0.16782661676 0.17246045659 0.17566080371 0.17744754065 
0.17795148772 0.17739847428 0.17607707439 0.17427562465 0.17221006033 0.16999426137 0.16764879603 0.1651189547 0.16230160895 
0.15908264451 0.15537405718 0.15113715687 0.14638548789 0.14116922738 0.13554918821 0.12957364085 0.12326891722 0.11664286799 
0.10969304107 0.10241535415 0.094813464233 0.086908951929 0.078750604895 0.07041987691 0.062029817546 0.053716470455 0.045624481388 
0.037891545224 0.030637735069 0.023963613902 0.017955540724 0.012692511746 0.0082500783238 0.0047004095487 0.0021092250505 0.00053046381495 
1.1852696725e-16 
