# vtk DataFile Version 5.1
vtk output
ASCII
DATASET POLYDATA
POINTS 100 float
0.0565488 0.0733189 -0.669727 0.0566696 0.0731691 -0.669804 0.0570381 0.0725101 -0.669946 
0.057623 0.0713698 -0.670034 0.0583764 0.0697909 -0.669889 0.0592383 0.067826 -0.669291 
0.0601432 0.0655306 -0.668009 0.0610257 0.062956 -0.665826 0.0618247 0.0601438 -0.662565 
0.0624863 0.0571207 -0.658108 0.0629645 0.0538963 -0.65241 0.0632189 0.0504636 -0.645499 
0.0632116 0.0468018 -0.63747 0.0629021 0.0428808 -0.628469 0.062243 0.0386683 -0.618673 
0.0611762 0.0341369 -0.608261 0.0596323 0.0292708 -0.597394 0.0575317 0.0240724 -0.586191 
0.0547895 0.0185656 -0.574712 0.0513231 0.0127979 -0.562957 0.0470618 0.00683934 -0.550862 
0.0419577 0.000779339 -0.538311 0.0359951 -0.00527871 -0.525156 0.0291985 -0.011224 -0.511236 
0.0216368 -0.0169453 -0.496399 0.0134226 -0.0223381 -0.480528 0.00470706 -0.0273104 -0.463555 
-0.00433057 -0.0317867 -0.445472 -0.0134969 -0.0357112 -0.426332 -0.0226006 -0.0390479 -0.406246 
-0.0314694 -0.04178 -0.385369 -0.039965 -0.0439074 -0.363877 -0.0479941 -0.0454441 -0.341955 
-0.0555144 -0.0464146 -0.319766 -0.062534 -0.0468517 -0.297441 -0.0691047 -0.0467937 -0.27506 
-0.0753088 -0.0462835 -0.252651 -0.0812419 -0.0453675 -0.230189 -0.0869937 -0.0440961 -0.207606 
-0.0926288 -0.0425234 -0.184803 -0.0981697 -0.0407073 -0.161673 -0.103586 -0.0387085 -0.138117 
-0.10879 -0.0365898 -0.114061 -0.113639 -0.0344128 -0.0894754 -0.117946 -0.0322358 -0.0643775 
-0.121496 -0.0301093 -0.038838 -0.124069 -0.0280729 -0.0129744 -0.125464 -0.0261522 0.0130586 
-0.125518 -0.0243572 0.0390836 -0.124129 -0.0226813 0.0649175 -0.121267 -0.0211038 0.0903875 
-0.116981 -0.0195925 0.115346 -0.111393 -0.0181093 0.139681 -0.104689 -0.0166161 0.16332 
-0.0971028 -0.0150813 0.186232 -0.0888895 -0.0134863 0.208423 -0.0803035 -0.0118296 0.229923 
-0.0715748 -0.0101301 0.250779 -0.0628885 -0.00842705 0.271042 -0.054371 -0.00677762 0.290759 
-0.046084 -0.00525197 0.309961 -0.0380253 -0.00392615 0.328663 -0.0301383 -0.00287401 0.346863 
-0.022326 -0.00215878 0.364547 -0.0144707 -0.00182572 0.381693 -0.00645371 -0.00189659 0.398282 
0.00182569 -0.00236681 0.414304 0.0104349 -0.00320577 0.429766 0.0193981 -0.00436022 0.444691 
0.0286924 -0.00576048 0.459124 0.0382515 -0.00732851 0.473122 0.0479735 -0.00898695 0.486752 
0.0577344 -0.0106678 0.500079 0.0674034 -0.0123196 0.513158 0.0768577 -0.0139122 0.526021 
0.0859959 -0.0154381 0.538676 0.0947474 -0.0169107 0.551099 0.103077 -0.0183589 0.563237 
0.110982 -0.0198198 0.575011 0.118492 -0.0213297 0.586326 0.125651 -0.0229142 0.59708 
0.132513 -0.0245812 0.60718 0.139128 -0.0263147 0.616545 0.145529 -0.028073 0.625127 
0.151726 -0.0297903 0.632903 0.157706 -0.0313825 0.63989 0.163429 -0.0327561 0.646133 
0.168835 -0.0338191 0.651699 0.173856 -0.0344937 0.656675 0.17842 -0.0347272 0.661145 
0.182469 -0.0345009 0.665188 0.185959 -0.0338365 0.668867 0.188875 -0.0327964 0.672218 
0.191228 -0.0314802 0.67525 0.193053 -0.0300169 0.677947 0.194406 -0.0285522 0.680272 
0.195353 -0.0272345 0.682175 0.195961 -0.0261996 0.683603 0.196285 -0.0255563 0.684508 
0.196364 -0.0253751 0.684858 
LINES 2 100
OFFSETS vtktypeint64
0 100 
CONNECTIVITY vtktypeint64
0 1 2 3 4 5 6 7 8 
9 10 11 12 13 14 15 16 17 
18 19 20 21 22 23 24 25 26 
27 28 29 30 31 32 33 34 35 
36 37 38 39 40 41 42 43 44 
45 46 47 48 49 50 51 52 53 
54 55 56 57 58 59 60 61 62 
63 64 65 66 67 68 69 70 71 
72 73 74 75 76 77 78 79 80 
81 82 83 84 85 86 87 88 89 
90 91 92 93 94 95 96 97 98 
99 
POINT_DATA 100
FIELD FieldData 3
_theta 1 100 double
0 0.031733259127 0.063466518254 0.095199777382 0.12693303651 0.15866629564 0.19039955476 0.22213281389 0.25386607302 
0.28559933214 0.31733259127 0.3490658504 0.38079910953 0.41253236865 0.44426562778 0.47599888691 0.50773214603 0.53946540516 
0.57119866429 0.60293192342 0.63466518254 0.66639844167 0.6981317008 0.72986495992 0.76159821905 0.79333147818 0.82506473731 
0.85679799643 0.88853125556 0.92026451469 0.95199777382 0.98373103294 1.0154642921 1.0471975512 1.0789308103 1.1106640695 
1.1423973286 1.1741305877 1.2058638468 1.237597106 1.2693303651 1.3010636242 1.3327968833 1.3645301425 1.3962634016 
1.4279966607 1.4597299198 1.491463179 1.5231964381 1.5549296972 1.5866629564 1.6183962155 1.6501294746 1.6818627337 
1.7135959929 1.745329252 1.7770625111 1.8087957702 1.8405290294 1.8722622885 1.9039955476 1.9357288068 1.9674620659 
1.999195325 2.0309285841 2.0626618433 2.0943951024 2.1261283615 2.1578616206 2.1895948798 2.2213281389 2.253061398 
2.2847946572 2.3165279163 2.3482611754 2.3799944345 2.4117276937 2.4434609528 2.4751942119 2.506927471 2.5386607302 
2.5703939893 2.6021272484 2.6338605076 2.6655937667 2.6973270258 2.7290602849 2.7607935441 2.7925268032 2.8242600623 
2.8559933214 2.8877265806 2.9194598397 2.9511930988 2.982926358 3.0146596171 3.0463928762 3.0781261353 3.1098593945 
3.1415926536 
_radius 1 100 double
4.7266042097e-16 0.015034155129 0.029927245675 0.044551100634 0.058810433686 0.07264974695 0.086051302503 0.099024837327 0.11159163544 
0.12376674946 0.13554327737 0.14688174044 0.15770619419 0.1679072485 0.17735105297 0.18589265943 0.19339194525 0.1997303033 
0.20482640794 0.20864945214 0.21122832804 0.21265538914 0.21308380694 0.21271818207 0.21179894629 0.21058204405 0.20931619872 
0.20822054721 0.20746543218 0.20715864088 0.20733848559 0.20797408665 0.20897235033 0.21019060601 0.21145363547 0.21257370113 
0.21337198948 0.21369959099 0.21345585378 0.2126018871 0.21116736201 0.20924964117 0.20700553923 0.2046373201 0.20237539223 
0.20046011789 0.19912411271 0.19857495732 0.19897753052 0.20043608758 0.20297836629 0.20654577178 0.2109934934 0.21610213444 
0.2215994484 0.22718856365 0.23257819826 0.23751059657 0.24178385635 0.2452665971 0.24790419915 0.24971686769 0.2507904695 
0.25126152517 0.25129802599 0.2510779633 0.25076763386 0.25050190713 0.25036865527 0.25039931399 0.25056682596 0.25079089792 
0.25094893951 0.25089004895 0.2504495086 0.24946217591 0.24777414359 0.24525254708 0.24179337137 0.23732684973 0.23181990184 
0.22527522684 0.2177271256 0.20923469961 0.199873536 0.18972717457 0.1788795275 0.16740908874 0.15538538677 0.14286778389 
0.12990636842 0.11654430125 0.10282071718 0.088773360515 0.074440537467 0.059862403149 0.045081783343 0.030144639177 0.015100108343 
1.3171433044e-15 
_area 1 100 double
0 0.00064958615247 0.0025663769722 0.0056602471189 0.0097987103136 0.014828705326 0.020599197353 0.02697950824 0.033869013925 
0.04119511624 0.048898902504 0.056911899981 0.065131190352 0.073401345414 0.081509410305 0.089195018977 0.096173655754 0.10216824942 
0.1069430749 0.11033416276 0.11227157077 0.11279044595 0.11202954688 0.11021779273 0.10765142561 0.10466622052 0.10161012822 
0.09882060634 0.096606831911 0.095231505996 0.094883850955 0.095634859296 0.097385598146 0.099885996024 0.10281867588 0.10585691235 
0.10869813353 0.11109013471 0.11285321004 0.11389765906 0.11423347477 0.1139666355 0.11327658228 0.11237678605 0.11147757621 
0.11077558278 0.11046526923 0.11074694671 0.11182036397 0.11386695706 0.11702320388 0.12134969196 0.12680669388 0.13324483176 
0.1404094067 0.14795573879 0.15547832749 0.16255453785 0.16879698423 0.17390433506 0.17769972886 0.18014887545 0.18135481267 
0.18153132445 0.18096065286 0.17994315802 0.178748008 0.17757458018 0.17653139761 0.17563328729 0.17481305906 0.17394292296 
0.17285999938 0.17138973498 0.1693630344 0.16662654487 0.16304849994 0.15852388354 0.15298188091 0.14639541412 0.13878912357 
0.13024199955 0.12088415146 0.11088974505 0.10046719273 0.089845564673 0.079256435433 0.068913166659 0.058992604189 0.049625247623 
0.040897909755 0.032867660628 0.025580181645 0.019084085619 0.01343654174 0.0087009497038 0.0049404198074 0.0022107475774 0.00055496967565 
9.03394963e-17 
