# vtk DataFile Version 5.1
vtk output
ASCII
DATASET POLYDATA
POINTS 100 float
0.182817 0.0523115 -0.711852 0.18274 0.0523176 -0.711756 0.182548 0.0521872 -0.711502 
0.182209 0.051929 -0.711 0.181675 0.0515542 -0.710107 0.180882 0.0510728 -0.708649 
0.179759 0.0504891 -0.706439 0.178234 0.0497977 -0.703305 0.176237 0.0489799 -0.699103 
0.17371 0.0480017 -0.693739 0.170604 0.0468144 -0.68718 0.166887 0.045357 -0.679452 
0.162538 0.0435602 -0.670641 0.15755 0.0413536 -0.660878 0.151925 0.0386725 -0.650322 
0.145673 0.0354661 -0.63914 0.138808 0.0317044 -0.627489 0.13135 0.0273844 -0.615492 
0.123319 0.0225333 -0.603231 0.114743 0.0172099 -0.590733 0.105652 0.011503 -0.577971 
0.0960862 0.00552632 -0.564874 0.0860977 -0.000587758 -0.551331 0.0757504 -0.0066968 -0.537217 
0.0651226 -0.0126575 -0.5224 0.0543055 -0.0183349 -0.506769 0.0434007 -0.0236104 -0.490242 
0.0325157 -0.0283883 -0.472779 0.0217579 -0.0326001 -0.454386 0.0112275 -0.0362063 -0.435113 
0.00101089 -0.0391957 -0.415046 -0.00882538 -0.0415825 -0.394294 -0.0182387 -0.0434017 -0.372978 
-0.0272118 -0.0447039 -0.351209 -0.0357516 -0.0455487 -0.32908 -0.0438844 -0.0459993 -0.306651 
-0.0516489 -0.0461176 -0.283945 -0.0590867 -0.04596 -0.260949 -0.0662327 -0.0455755 -0.237617 
-0.0731049 -0.0450041 -0.213883 -0.0796964 -0.0442774 -0.189672 -0.0859697 -0.0434189 -0.164917 
-0.0918548 -0.0424461 -0.139574 -0.0972513 -0.0413716 -0.113633 -0.102034 -0.0402051 -0.0871257 
-0.106064 -0.038954 -0.0601323 -0.109198 -0.0376244 -0.0327755 -0.111304 -0.0362214 -0.00521546 
-0.112273 -0.034749 0.0223619 -0.11203 -0.0332104 0.0497588 -0.110543 -0.0316075 0.0767802 
-0.107826 -0.0299421 0.103248 -0.103941 -0.0282165 0.129014 -0.098989 -0.0264347 0.153965 
-0.0931068 -0.0246047 0.17803 -0.0864511 -0.0227399 0.201181 -0.079187 -0.0208608 0.223423 
-0.0714753 -0.0189967 0.244794 -0.0634601 -0.0171859 0.265351 -0.0552606 -0.015475 0.285166 
-0.0469648 -0.0139178 0.304313 -0.0386293 -0.012572 0.322864 -0.0302809 -0.0114961 0.340882 
-0.0219234 -0.010745 0.358424 -0.0135459 -0.0103656 0.375536 -0.00513239 -0.0103929 0.392262 
0.0033281 -0.0108467 0.408638 0.0118335 -0.0117295 0.424703 0.0203628 -0.0130254 0.440497 
0.0288727 -0.0147015 0.456061 0.0372989 -0.0167094 0.471437 0.045559 -0.0189894 0.486664 
0.0535591 -0.0214741 0.501772 0.061202 -0.0240933 0.516777 0.068395 -0.0267785 0.531677 
0.0750589 -0.029467 0.546443 0.0811339 -0.0321044 0.561022 0.0865844 -0.0346467 0.575334 
0.0914004 -0.0370608 0.589277 0.0955968 -0.0393239 0.602729 0.0992098 -0.0414216 0.61556 
0.102292 -0.0433463 0.627639 0.104904 -0.0450944 0.638846 0.107114 -0.0466644 0.649079 
0.108983 -0.0480555 0.658263 0.110567 -0.0492663 0.666355 0.111912 -0.0502956 0.67335 
0.113055 -0.0511423 0.679275 0.11402 -0.0518074 0.684188 0.114824 -0.0522955 0.688175 
0.115479 -0.052616 0.69134 0.115997 -0.0527847 0.693795 0.116386 -0.052824 0.695659 
0.116662 -0.0527624 0.697043 0.116841 -0.0526332 0.698052 0.116941 -0.0524722 0.698775 
0.116984 -0.0523151 0.699283 0.11699 -0.052194 0.699633 0.116974 -0.0521349 0.699863 
0.116948 -0.0521548 0.699993 
LINES 2 100
OFFSETS vtktypeint64
0 100 
CONNECTIVITY vtktypeint64
0 1 2 3 4 5 6 7 8 
9 10 11 12 13 14 15 16 17 
18 19 20 21 22 23 24 25 26 
27 28 29 30 31 32 33 34 35 
36 37 38 39 40 41 42 43 44 
45 46 47 48 49 50 51 52 53 
54 55 56 57 58 59 60 61 62 
63 64 65 66 67 68 69 70 71 
72 73 74 75 76 77 78 79 80 
81 82 83 84 85 86 87 88 89 
90 91 92 93 94 95 96 97 98 
99 
POINT_DATA 100
FIELD FieldData 3
_theta 1 100 double
0 0.031733259127 0.063466518254 0.095199777382 0.12693303651 0.15866629564 0.19039955476 0.22213281389 0.25386607302 
0.28559933214 0.31733259127 0.3490658504 0.38079910953 0.41253236865 0.44426562778 0.47599888691 0.50773214603 0.53946540516 
0.57119866429 0.60293192342 0.63466518254 0.66639844167 0.6981317008 0.72986495992 0.76159821905 0.79333147818 0.82506473731 
0.85679799643 0.88853125556 0.92026451469 0.95199777382 0.98373103294 1.0154642921 1.0471975512 1.0789308103 1.1106640695 
1.1423973286 1.1741305877 1.2058638468 1.237597106 1.2693303651 1.3010636242 1.3327968833 1.3645301425 1.3962634016 
1.4279966607 1.4597299198 1.491463179 1.5231964381 1.5549296972 1.5866629564 1.6183962155 1.6501294746 1.6818627337 
1.7135959929 1.745329252 1.7770625111 1.8087957702 1.8405290294 1.8722622885 1.9039955476 1.9357288068 1.9674620659 
1.999195325 2.0309285841 2.0626618433 2.0943951024 2.1261283615 2.1578616206 2.1895948798 2.2213281389 2.253061398 
2.2847946572 2.3165279163 2.3482611754 2.3799944345 2.4117276937 2.4434609528 2.4751942119 2.506927471 2.5386607302 
2.5703939893 2.6021272484 2.6338605076 2.6655937667 2.6973270258 2.7290602849 2.7607935441 2.7925268032 2.8242600623 
2.8559933214 2.8877265806 2.9194598397 2.9511930988 2.982926358 3.0146596171 3.0463928762 3.0781261353 3.1098593945 
3.1415926536 
_radius 1 100 double
8.0613703022e-16 0.016042936386 0.031891162729 0.047357508394 0.062276996171 0.076514938381 0.089971581618 0.10258301869 0.11431858859 
0.12517538617 0.1351707791 0.14433398178 0.15269777301 0.16029137144 0.16713531427 0.17323893701 0.17860074387 0.1832116086 
0.18706037402 0.19014105601 0.19246054942 0.19404554385 0.19494736203 0.19524368562 0.19503661406 0.19444710056 0.19360636865 
0.19264531802 0.19168316743 0.19081670552 0.19011154934 0.18959669211 0.18926329281 0.18906814795 0.18894171849 0.18880005503 
0.18855942271 0.1881517861 0.18753869003 0.1867208479 0.18574133922 0.1846817988 0.18365287744 0.18278172475 0.18219955516 
0.18203137593 0.18238828005 0.18336132917 0.18501573311 0.18738488889 0.19046523575 0.19421371451 0.19854912857 0.20335725515 
0.20849833537 0.2138153913 0.21914247663 0.22431273807 0.22916652254 0.23355961965 0.2373712834 0.24051124955 0.2429248131 
0.24459521936 0.2455430177 0.24582243394 0.24551511564 0.24472177996 0.24355238567 0.24211550614 0.24050764551 0.23880335535 
0.23704716736 0.23524844015 0.2333800197 0.23138100833 0.22916307688 0.22661904194 0.22363222223 0.2200854297 0.21586906332 
0.21088825887 0.20506913999 0.19836392433 0.19075422844 0.18225170821 0.17289535075 0.16274529607 0.15187388802 0.1403555148 
0.12825739229 0.11563345796 0.10252286465 0.088953390449 0.07494880116 0.060538172 0.045764652101 0.030691300108 0.015402417338 
7.1945145178e-16 
_area 1 100 double
0 0.00056253792955 0.0022418308745 0.0050104807849 0.0088157929903 0.013572836009 0.019160522551 0.025423228379 0.03217821024 
0.039227101625 0.04636873731 0.053410564743 0.060176746578 0.066512377522 0.07228454096 0.077381770074 0.081713639491 0.085211757805 
0.087832596028 0.089561671862 0.090417890421 0.090456519886 0.089769499106 0.088482538665 0.086749312963 0.084743110532 0.082645519857 
0.080630757514 0.078846760925 0.077404589005 0.076370970121 0.075761488139 0.075562011109 0.075736609524 0.076234535022 0.076998480551 
0.077968292504 0.079090113779 0.08033459514 0.081709264018 0.08323855374 0.084921356531 0.086724893089 0.088616699639 0.090588912489 
0.092667751 0.094918689832 0.097462420311 0.10043028245 0.10387322525 0.10784831265 0.11240894464 0.11756409488 0.12326009935 
0.12938177594 0.1357659338 0.1422187355 0.14853052804 0.15448473994 0.15986224591 0.16444786194 0.16804554796 0.17050146358 
0.17172690932 0.17171320743 0.17053516199 0.16834350189 0.16534791337 0.16179236924 0.15792542505 0.15397006235 0.15009845431 
0.14641552864 0.14295280886 0.13967244202 0.13648046768 0.13324651659 0.12982405422 0.12606491891 0.12182747314 0.11698463164 
0.11143799991 0.10513723398 0.098097525383 0.09040739314 0.082221968376 0.073741022653 0.065175672651 0.056713826659 0.048499204092 
0.040633257995 0.033193516707 0.026253530858 0.019895996237 0.014218549825 0.0093334746207 0.0053615963741 0.0024208038061 0.00061114825447 
4.2500725161e-17 
