# vtk DataFile Version 5.1
vtk output
ASCII
DATASET POLYDATA
POINTS 100 float
0.150211 0.0912083 -0.752934 0.150218 0.0910154 -0.75284 0.150248 0.0902001 -0.752552 
0.150291 0.0887759 -0.752009 0.150329 0.0867661 -0.751118 0.15034 0.0842027 -0.749761 
0.150289 0.081124 -0.747809 0.150137 0.0775725 -0.745138 0.149832 0.0735928 -0.741638 
0.149316 0.0692289 -0.737221 0.148519 0.0645223 -0.731832 0.147363 0.0595106 -0.725449 
0.145767 0.0542267 -0.71808 0.143641 0.0486992 -0.709759 0.1409 0.0429531 -0.700536 
0.13746 0.0370115 -0.690467 0.133252 0.0308986 -0.679604 0.128221 0.024642 -0.667987 
0.122336 0.0182759 -0.655637 0.115591 0.0118434 -0.642553 0.108016 0.00539859 -0.628713 
0.0996709 -0.00099318 -0.614078 0.0906471 -0.00725548 -0.598602 0.081066 -0.0133031 -0.582237 
0.0710703 -0.0190453 -0.564945 0.0608165 -0.0243907 -0.546706 0.0504643 -0.0292524 -0.527521 
0.0401656 -0.0335539 -0.507422 0.0300536 -0.0372343 -0.486462 0.0202338 -0.0402531 -0.464718 
0.0107774 -0.0425932 -0.44228 0.00171784 -0.0442618 -0.419242 -0.00694816 -0.0452904 -0.395691 
-0.0152556 -0.045731 -0.371699 -0.0232626 -0.0456523 -0.347314 -0.0310382 -0.0451327 -0.322558 
-0.038649 -0.0442542 -0.29742 -0.046145 -0.043095 -0.271868 -0.0535472 -0.0417235 -0.24585 
-0.0608371 -0.0401939 -0.219307 -0.0679514 -0.0385429 -0.192185 -0.0747808 -0.03679 -0.164445 
-0.0811748 -0.034939 -0.136078 -0.086951 -0.0329825 -0.107111 -0.0919092 -0.0309073 -0.0776132 
-0.0958484 -0.0287012 -0.0476946 -0.0985845 -0.0263601 -0.0175057 -0.0999679 -0.0238932 0.0127728 
-0.0998986 -0.0213277 0.0429396 -0.0983365 -0.0187109 0.0727868 -0.0953074 -0.0161092 0.102113 
-0.0909018 -0.0136052 0.130737 -0.085269 -0.0112918 0.158507 -0.0786051 -0.0092649 0.185311 
-0.0711371 -0.00761496 0.211081 -0.0631056 -0.00641845 0.235792 -0.0547455 -0.00573039 0.25946 
-0.0462696 -0.00557865 0.282135 -0.0378547 -0.00596079 0.303895 -0.0296323 -0.00684385 0.324836 
-0.0216841 -0.00816712 0.34506 -0.0140439 -0.00984767 0.36467 -0.00670289 -0.0117879 0.383761 
0.00037997 -0.0138847 0.402415 0.00726598 -0.0160383 0.420695 0.0140235 -0.0181609 0.43865 
0.0207158 -0.020184 0.456306 0.0273909 -0.0220622 0.473677 0.0340749 -0.0237755 0.490757 
0.0407687 -0.0253282 0.507533 0.0474495 -0.026745 0.523975 0.0540744 -0.0280651 0.540048 
0.0605876 -0.0293353 0.555709 0.0669287 -0.0306023 0.570908 0.0730406 -0.0319058 0.585591 
0.0788772 -0.0332724 0.599701 0.084408 -0.034712 0.61318 0.0896211 -0.0362162 0.625974 
0.0945225 -0.0377591 0.638032 0.0991334 -0.0393005 0.649314 0.103485 -0.0407905 0.659789 
0.107611 -0.0421749 0.669445 0.111545 -0.043402 0.678284 0.115309 -0.0444276 0.686326 
0.118916 -0.0452195 0.693608 0.122363 -0.0457608 0.700181 0.125633 -0.046051 0.706108 
0.1287 -0.046105 0.711454 0.131532 -0.0459515 0.716287 0.134094 -0.0456292 0.720666 
0.13636 -0.045183 0.724641 0.13831 -0.0446598 0.728247 0.139938 -0.0441052 0.731503 
0.141254 -0.04356 0.734409 0.142277 -0.0430588 0.736953 0.14304 -0.0426288 0.73911 
0.143579 -0.0422905 0.740849 0.143929 -0.0420578 0.742139 0.144121 -0.0419396 0.742953 
0.144175 -0.0419409 0.743271 
LINES 2 100
OFFSETS vtktypeint64
0 100 
CONNECTIVITY vtktypeint64
0 1 2 3 4 5 6 7 8 
9 10 11 12 13 14 15 16 17 
18 19 20 21 22 23 24 25 26 
27 28 29 30 31 32 33 34 35 
36 37 38 39 40 41 42 43 44 
45 46 47 48 49 50 51 52 53 
54 55 56 57 58 59 60 61 62 
63 64 65 66 67 68 69 70 71 
72 73 74 75 76 77 78 79 80 
81 82 83 84 85 86 87 88 89 
90 91 92 93 94 95 96 97 98 
99 
POINT_DATA 100
FIELD FieldData 3
_theta 1 100 double
0 0.031733259127 0.063466518254 0.095199777382 0.12693303651 0.15866629564 0.19039955476 0.22213281389 0.25386607302 
0.28559933214 0.31733259127 0.3490658504 0.38079910953 0.41253236865 0.44426562778 0.47599888691 0.50773214603 0.53946540516 
0.57119866429 0.60293192342 0.63466518254 0.66639844167 0.6981317008 0.72986495992 0.76159821905 0.79333147818 0.82506473731 
0.85679799643 0.88853125556 0.92026451469 0.95199777382 0.98373103294 1.0154642921 1.0471975512 1.0789308103 1.1106640695 
1.1423973286 1.1741305877 1.2058638468 1.237597106 1.2693303651 1.3010636242 1.3327968833 1.3645301425 1.3962634016 
1.4279966607 1.4597299198 1.491463179 1.5231964381 1.5549296972 1.5866629564 1.6183962155 1.6501294746 1.6818627337 
1.7135959929 1.745329252 1.7770625111 1.8087957702 1.8405290294 1.8722622885 1.9039955476 1.9357288068 1.9674620659 
1.999195325 2.0309285841 2.0626618433 2.0943951024 2.1261283615 2.1578616206 2.1895948798 2.2213281389 2.253061398 
2.2847946572 2.3165279163 2.3482611754 2.3799944345 2.4117276937 2.4434609528 2.4751942119 2.506927471 2.5386607302 
2.5703939893 2.6021272484 2.6338605076 2.6655937667 2.6973270258 2.7290602849 2.7607935441 2.7925268032 2.8242600623 
2.8559933214 2.8877265806 2.9194598397 2.9511930988 2.982926358 3.0146596171 3.0463928762 3.0781261353 3.1098593945 
3.1415926536 
_radius 1 100 double
3.3537189619e-16 0.014856089654 0.02962319664 0.044206352524 0.058519288717 0.072486491946 0.08604276194 0.099130515182 0.1116955635 
0.12368232715 0.13502945163 0.14566671295 0.15551401191 0.1644831475 0.1724828085 0.17942674473 0.18524441945 0.18989277334 
0.19336725644 0.19571015508 0.19701449786 0.19742242142 0.19711771357 0.19631319362 0.19523447294 0.19410225198 0.19311543848 
0.19243690158 0.19218275566 0.19241515103 0.19313820138 0.19429714354 0.19578170197 0.1974350566 0.19906917664 0.2004857422 
0.20150018187 0.20196526829 0.20179059437 0.2009550497 0.1995108611 0.19757950398 0.19534137757 0.19302198558 0.19087696171 
0.18917661199 0.18818850507 0.18815549386 0.18926791865 0.19163303848 0.19524990545 0.19999966797 0.20565688211 0.21191934278 
0.21844793465 0.22490708206 0.23099909134 0.23648911737 0.24121997633 0.24511736281 0.24818660794 0.25050233354 0.25219246438 
0.25341822659 0.25435207183 0.25515585421 0.25596177196 0.25685824419 0.25788194167 0.25901593615 0.26019289462 0.26130181622 
0.26219702601 0.26270869365 0.26265460305 0.26185297266 0.26013581551 0.25736185751 0.25342767224 0.24827561609 0.241897399 
0.23433264419 0.22566246837 0.21599884459 0.20547119476 0.19421220359 0.1823451255 0.16997469964 0.1571830398 0.14403057997 
0.13056076616 0.11680634039 0.10279515215 0.088554260709 0.074112088486 0.059499065712 0.04474742668 0.029890709473 0.014963280634 
1.514047526e-15 
_area 1 100 double
0 0.00065101941446 0.002572974775 0.0056800904864 0.0098515332032 0.014955018434 0.020864280328 0.027463623397 0.034640195545 
0.042270215401 0.050205654544 0.058265460973 0.066233493272 0.073864190007 0.080895923532 0.087070760865 0.09215816117 0.095979318083 
0.098428668187 0.099489495324 0.099241273978 0.097857242797 0.095591911523 0.092760159293 0.089712112346 0.086809363397 0.08440149279 
0.082779927213 0.082114539312 0.082460860381 0.083807867065 0.0860839927 0.08913705734 0.092722487757 0.09651805577 0.1001664796 
0.10333361035 0.1057631144 0.1073096604 0.1079425863 0.10772749367 0.10680108467 0.10534969141 0.10359702394 0.10180627974 
0.1003015996 0.099516918899 0.099965510638 0.10186054274 0.10526884683 0.11026964577 0.11682346848 0.12470929736 0.13353071224 
0.14276651033 0.15184783731 0.16024174973 0.16752256005 0.17342029925 0.17784420483 0.18088266826 0.18277769084 0.18386653193 
0.18449204864 0.18491630892 0.18528674483 0.18565901218 0.18603513164 0.18638539035 0.1866534398 0.18675544466 0.18657933696 
0.1859850884 0.18480686002 0.18285972869 0.17995344266 0.17591319179 0.17060498269 0.16396167548 0.15600423292 0.14685162131 
0.13671402697 0.1258684323 0.11462129643 0.10326720208 0.092053296148 0.081157716209 0.070687355106 0.060696088341 0.051216992449 
0.042293497273 0.033994542638 0.026410611198 0.019639239082 0.013770689072 0.0088795772638 0.0050227721707 0.0022410192724 0.00056153770274 
3.7856711921e-17 
