# vtk DataFile Version 5.1
vtk output
ASCII
DATASET POLYDATA
POINTS 100 float
0.192625 -0.00274487 -0.598942 0.192143 -0.00246441 -0.598818 0.19078 -0.00178118 -0.598545 
0.188613 -0.000745693 -0.598073 0.185763 0.000560717 -0.597324 0.182368 0.0020311 -0.596195 
0.178568 0.00353981 -0.59457 0.174481 0.0049506 -0.592328 0.170184 0.0061256 -0.589351 
0.165702 0.00693423 -0.585534 0.161001 0.00726179 -0.58079 0.155993 0.00701687 -0.57506 
0.15055 0.00613714 -0.568308 0.144518 0.00459316 -0.560528 0.137747 0.00238986 -0.551738 
0.130109 -0.000434351 -0.541977 0.121528 -0.00381074 -0.531299 0.111988 -0.00764529 -0.519765 
0.101548 -0.0118253 -0.50744 0.0903402 -0.0162269 -0.494384 0.0785565 -0.0207223 -0.480649 
0.0664339 -0.0251876 -0.466276 0.0542276 -0.0295084 -0.451293 0.0421847 -0.0335845 -0.435713 
0.0305172 -0.037333 -0.419541 0.0193805 -0.040689 -0.402772 0.00885823 -0.0436048 -0.385397 
-0.00104245 -0.0460483 -0.367407 -0.0103858 -0.0479992 -0.348796 -0.0192925 -0.0494468 -0.329566 
-0.0279172 -0.0503861 -0.309724 -0.0364204 -0.050816 -0.289292 -0.0449397 -0.0507385 -0.268298 
-0.0535639 -0.0501583 -0.246783 -0.0623119 -0.0490844 -0.224796 -0.0711218 -0.0475326 -0.202391 
-0.0798497 -0.0455279 -0.179629 -0.0882799 -0.0431074 -0.156573 -0.096144 -0.0403219 -0.13329 
-0.103148 -0.0372368 -0.109845 -0.109002 -0.0339309 -0.0863054 -0.113456 -0.0304942 -0.0627377 
-0.11632 -0.0270228 -0.0392095 -0.117493 -0.0236135 -0.0157886 -0.116969 -0.0203574 0.00745642 
-0.11484 -0.0173332 0.0304569 -0.111286 -0.0146017 0.0531447 -0.106559 -0.0122012 0.0754533 
-0.100951 -0.0101463 0.0973196 -0.0947729 -0.00842754 0.118686 -0.0883171 -0.0070154 0.139504 
-0.0818365 -0.00586524 0.159734 -0.0755229 -0.00492469 0.179348 -0.0694952 -0.0041417 0.198334 
-0.0637965 -0.00347245 0.21669 -0.0584009 -0.00288808 0.234433 -0.0532265 -0.00237939 0.251589 
-0.0481547 -0.00195865 0.268197 -0.0430519 -0.00165834 0.284303 -0.0377907 -0.00152668 0.299959 
-0.0322686 -0.00162058 0.315219 -0.0264211 -0.00199665 0.330137 -0.0202294 -0.00270154 0.34476 
-0.0137208 -0.00376265 0.359131 -0.00696295 -0.00518062 0.373284 -5.38834e-05 -0.0069246 0.387246 
0.00689147 -0.00893109 0.401033 0.0137554 -0.0111066 0.414654 0.0204303 -0.013334 0.428111 
0.0268289 -0.0154826 0.441401 0.0328905 -0.0174196 0.454516 0.0385823 -0.019023 0.467443 
0.0438974 -0.0201936 0.48017 0.0488487 -0.0208654 0.492682 0.0534612 -0.0210129 0.504959 
0.0577634 -0.0206534 0.516983 0.0617803 -0.0198462 0.52873 0.0655278 -0.0186867 0.540173 
0.0690099 -0.0172971 0.55128 0.0722202 -0.0158141 0.562014 0.0751442 -0.0143764 0.572333 
0.0777655 -0.0131108 0.582191 0.0800716 -0.0121213 0.591539 0.0820596 -0.0114805 0.60033 
0.0837407 -0.0112248 0.608516 0.0851421 -0.0113533 0.616056 0.0863062 -0.0118315 0.622917 
0.0872867 -0.0125976 0.629077 0.0881432 -0.0135714 0.634528 0.0889334 -0.014665 0.639275 
0.0897064 -0.0157921 0.64334 0.0904958 -0.0168775 0.646758 0.0913154 -0.0178627 0.649575 
0.092158 -0.01871 0.65185 0.0929965 -0.0194021 0.653643 0.0937885 -0.0199401 0.655019 
0.094483 -0.0203378 0.656037 0.0950281 -0.0206162 0.656748 0.0953794 -0.0207966 0.657191 
0.0955063 -0.0208949 0.657391 
LINES 2 100
OFFSETS vtktypeint64
0 100 
CONNECTIVITY vtktypeint64
0 1 2 3 4 5 6 7 8 
9 10 11 12 13 14 15 16 17 
18 19 20 21 22 23 24 25 26 
27 28 29 30 31 32 33 34 35 
36 37 38 39 40 41 42 43 44 
45 46 47 48 49 50 51 52 53 
54 55 56 57 58 59 60 61 62 
63 64 65 66 67 68 69 70 71 
72 73 74 75 76 77 78 79 80 
81 82 83 84 85 86 87 88 89 
90 91 92 93 94 95 96 97 98 
99 
POINT_DATA 100
FIELD FieldData 3
_theta 1 100 double
0 0.031733259127 0.063466518254 0.095199777382 0.12693303651 0.15866629564 0.19039955476 0.22213281389 0.25386607302 
0.28559933214 0.31733259127 0.3490658504 0.38079910953 0.41253236865 0.44426562778 0.47599888691 0.50773214603 0.53946540516 
0.57119866429 0.60293192342 0.63466518254 0.66639844167 0.6981317008 0.72986495992 0.76159821905 0.79333147818 0.82506473731 
0.85679799643 0.88853125556 0.92026451469 0.95199777382 0.98373103294 1.0154642921 1.0471975512 1.0789308103 1.1106640695 
1.1423973286 1.1741305877 1.2058638468 1.237597106 1.2693303651 1.3010636242 1.3327968833 1.3645301425 1.3962634016 
1.4279966607 1.4597299198 1.491463179 1.5231964381 1.5549296972 1.5866629564 1.6183962155 1.6501294746 1.6818627337 
1.7135959929 1.745329252 1.7770625111 1.8087957702 1.8405290294 1.8722622885 1.9039955476 1.9357288068 1.9674620659 
1.999195325 2.0309285841 2.0626618433 2.0943951024 2.1261283615 2.1578616206 2.1895948798 2.2213281389 2.253061398 
2.2847946572 2.3165279163 2.3482611754 2.3799944345 2.4117276937 2.4434609528 2.4751942119 2.506927471 2.5386607302 
2.5703939893 2.6021272484 2.6338605076 2.6655937667 2.6973270258 2.7290602849 2.7607935441 2.7925268032 2.8242600623 
2.8559933214 2.8877265806 2.9194598397 2.9511930988 2.982926358 3.0146596171 3.0463928762 3.0781261353 3.1098593945 
3.1415926536 
_radius 1 100 double
1.3092290326e-15 0.014764669727 0.029473908906 0.044072481312 0.058500042586 0.072686932294 0.086549576834 0.099986769832 0.1128783022 
0.12508712575 0.13646557777 0.1468653604 0.15615015985 0.16420919274 0.17096972009 0.17640672314 0.18054843209 0.18347709221 
0.18532504197 0.18626667354 0.18650703791 0.18626780196 0.18577118966 0.18522273035 0.18479420903 0.18460895147 0.18473199067 
0.18516729701 0.1858630637 0.18672445897 0.1876318931 0.18846205665 0.18910876133 0.18950077827 0.18961428187 0.18947815894 
0.18917144592 0.18881365763 0.18855065689 0.18854013682 0.18894026287 0.18990198119 0.19156187855 0.19403139679 0.1973808354 
0.20162114832 0.20668994289 0.21244802289 0.2186893523 0.22516276861 0.23160066377 0.23774903167 0.24339403995 0.24838161984 
0.25262796883 0.25612028125 0.25890856101 0.26109092028 0.26279571404 0.26416338772 0.265329211 0.26640681942 0.26747302549 
0.26855592228 0.26962910778 0.27061410832 0.27139125037 0.27181723503 0.27174621269 0.27105055426 0.26963777607 0.2674610133 
0.26452176729 0.26086506612 0.25656838637 0.25172648785 0.24643464651 0.24077270457 0.23479203539 0.228507071 0.2218925097 
0.21488668402 0.2074007962 0.19933286388 0.19058441008 0.18107737479 0.1707685753 0.15965935233 0.1477987663 0.13527975373 
0.12222886607 0.1087913847 0.095114461585 0.081331211881 0.067548264963 0.053838309363 0.040237999779 0.026750605345 0.013352192248 
9.0712342218e-16 
_area 1 100 double
0 0.00052411769148 0.0021035118044 0.0047560986389 0.0085001234896 0.013335530665 0.019220665717 0.026052138301 0.033654948581 
0.041784923442 0.050141449614 0.058387920551 0.066178362538 0.073188621106 0.079148705947 0.083871116674 0.087269912429 0.089366976635 
0.090284502942 0.090225940147 0.089451324033 0.088255031903 0.086949235389 0.085839029911 0.085166872005 0.085058332654 0.0855238375 
0.086491432445 0.087836788534 0.089408513355 0.091050984404 0.092627558338 0.094045606075 0.095276755782 0.096358199474 0.097370963882 
0.098420821006 0.099633784738 0.10111639177 0.10288902444 0.10491083558 0.10715759135 0.10967941517 0.1126273676 0.11624240832 
0.12078893355 0.12643339665 0.13314725854 0.14071472913 0.14880025219 0.15701108799 0.16495091886 0.17227739802 0.17879921595 
0.18511875662 0.19116833106 0.19633097216 0.20040069251 0.20333971091 0.20520914476 0.20615336416 0.20637521229 0.20609740034 
0.20551868798 0.2047785246 0.2039519129 0.2030588607 0.20203529626 0.20068703193 0.19875400093 0.19603874683 0.19245499579 
0.18801562329 0.18280479238 0.1769460772 0.17057117927 0.16379429331 0.15669603569 0.14931800561 0.14166633922 0.13372154746 
0.12545234358 0.11683164223 0.10785253041 0.098541222937 0.088963912335 0.079225693522 0.069462179077 0.059826941263 0.050479118205 
0.041574565329 0.033261203125 0.025676309807 0.018942471827 0.013160733011 0.0084029409539 0.0047076522098 0.0020833186421 0.00051914940656 
4.4464945523e-17 
