# vtk DataFile Version 5.1
vtk output
ASCII
DATASET POLYDATA
POINTS 100 float
0.10454 0.0843825 -0.735642 0.104702 0.0841807 -0.735282 0.10514 0.0833278 -0.734183 
0.105802 0.0818668 -0.732344 0.106607 0.0798647 -0.729761 0.107455 0.0774057 -0.726432 
0.108237 0.0745811 -0.722352 0.108845 0.0714798 -0.717519 0.109181 0.0681789 -0.711928 
0.109167 0.0647362 -0.70558 0.108745 0.0611853 -0.698478 0.107881 0.0575346 -0.69063 
0.106559 0.0537687 -0.682049 0.104778 0.0498537 -0.672756 0.102542 0.0457442 -0.662778 
0.0998525 0.0413922 -0.652148 0.0967046 0.036756 -0.640904 0.0930787 0.0318084 -0.629083 
0.0889415 0.0265432 -0.61672 0.0842478 0.0209786 -0.603844 0.0789466 0.0151589 -0.590474 
0.0729896 0.0091523 -0.576613 0.0663422 0.00304648 -0.562251 0.0589936 -0.00305735 -0.547362 
0.0509659 -0.00905174 -0.531907 0.0423208 -0.0148303 -0.515836 0.0331614 -0.0202945 -0.499095 
0.0236299 -0.0253586 -0.481632 0.0139 -0.0299535 -0.463404 0.0041659 -0.0340279 -0.444382 
-0.0053727 -0.0375487 -0.424559 -0.014526 -0.0404988 -0.40395 -0.0231296 -0.0428752 -0.382596 
-0.0310576 -0.0446859 -0.360556 -0.0382311 -0.0459474 -0.337908 -0.0446229 -0.0466834 -0.314738 
-0.0502554 -0.0469231 -0.291132 -0.0551933 -0.0467014 -0.267168 -0.059532 -0.0460592 -0.242909 
-0.0633826 -0.0450444 -0.218394 -0.066855 -0.0437119 -0.19364 -0.0700424 -0.0421237 -0.168638 
-0.0730074 -0.0403476 -0.143362 -0.0757727 -0.0384552 -0.117773 -0.0783172 -0.0365184 -0.0918332 
-0.0805765 -0.0346049 -0.0655146 -0.0824504 -0.0327745 -0.0388115 -0.0838135 -0.0310742 -0.01175 
-0.0845299 -0.0295355 0.0156054 -0.0844681 -0.028172 0.0431496 -0.0835168 -0.02698 0.0707395 
-0.0815968 -0.0259403 0.0982008 -0.0786704 -0.0250222 0.12534 -0.0747456 -0.0241887 0.151958 
-0.0698755 -0.0234031 0.177866 -0.0641534 -0.0226345 0.202904 -0.0577033 -0.0218639 0.226949 
-0.050669 -0.0210871 0.249931 -0.0432011 -0.0203168 0.271831 -0.0354455 -0.0195813 0.29269 
-0.0275331 -0.0189207 0.312593 -0.0195726 -0.0183821 0.331668 -0.0116471 -0.0180124 0.350064 
-0.00381396 -0.0178513 0.36794 0.00389177 -0.0179248 0.38545 0.011452 -0.0182405 0.402725 
0.0188585 -0.0187851 0.419865 0.0261058 -0.0195248 0.436932 0.0331844 -0.0204091 0.453949 
0.0400771 -0.0213762 0.470904 0.0467559 -0.022361 0.487755 0.0531827 -0.0233036 0.504443 
0.0593118 -0.0241577 0.520899 0.0650939 -0.0248966 0.537059 0.0704813 -0.025518 0.552869 
0.0754336 -0.0260438 0.568291 0.0799216 -0.0265183 0.583306 0.0839306 -0.0270014 0.597906 
0.087462 -0.0275603 0.612094 0.090532 -0.0282596 0.625872 0.0931695 -0.0291508 0.639233 
0.0954124 -0.0302631 0.652152 0.0973025 -0.0315975 0.664579 0.098882 -0.0331235 0.676441 
0.100189 -0.0347805 0.68764 0.101255 -0.0364828 0.69806 0.102105 -0.0381289 0.707581 
0.102756 -0.0396128 0.716088 0.103221 -0.0408363 0.723486 0.103511 -0.041722 0.729717 
0.103638 -0.0422225 0.734764 0.103617 -0.042328 0.738663 0.103471 -0.0420683 0.741504 
0.103227 -0.0415108 0.743421 0.10292 -0.0407531 0.744585 0.102588 -0.0399125 0.745188 
0.102271 -0.0391128 0.745423 0.102003 -0.0384694 0.745467 0.101816 -0.0380763 0.745463 
0.101727 -0.0379944 0.745501 
LINES 2 100
OFFSETS vtktypeint64
0 100 
CONNECTIVITY vtktypeint64
0 1 2 3 4 5 6 7 8 
9 10 11 12 13 14 15 16 17 
18 19 20 21 22 23 24 25 26 
27 28 29 30 31 32 33 34 35 
36 37 38 39 40 41 42 43 44 
45 46 47 48 49 50 51 52 53 
54 55 56 57 58 59 60 61 62 
63 64 65 66 67 68 69 70 71 
72 73 74 75 76 77 78 79 80 
81 82 83 84 85 86 87 88 89 
90 91 92 93 94 95 96 97 98 
99 
POINT_DATA 100
FIELD FieldData 3
_theta 1 100 double
0 0.031733259127 0.063466518254 0.095199777382 0.12693303651 0.15866629564 0.19039955476 0.22213281389 0.25386607302 
0.28559933214 0.31733259127 0.3490658504 0.38079910953 0.41253236865 0.44426562778 0.47599888691 0.50773214603 0.53946540516 
0.57119866429 0.60293192342 0.63466518254 0.66639844167 0.6981317008 0.72986495992 0.76159821905 0.79333147818 0.82506473731 
0.85679799643 0.88853125556 0.92026451469 0.95199777382 0.98373103294 1.0154642921 1.0471975512 1.0789308103 1.1106640695 
1.1423973286 1.1741305877 1.2058638468 1.237597106 1.2693303651 1.3010636242 1.3327968833 1.3645301425 1.3962634016 
1.4279966607 1.4597299198 1.491463179 1.5231964381 1.5549296972 1.5866629564 1.6183962155 1.6501294746 1.6818627337 
1.7135959929 1.745329252 1.7770625111 1.8087957702 1.8405290294 1.8722622885 1.9039955476 1.9357288068 1.9674620659 
1.999195325 2.0309285841 2.0626618433 2.0943951024 2.1261283615 2.1578616206 2.1895948798 2.2213281389 2.253061398 
2.2847946572 2.3165279163 2.3482611754 2.3799944345 2.4117276937 2.4434609528 2.4751942119 2.506927471 2.5386607302 
2.5703939893 2.6021272484 2.6338605076 2.6655937667 2.6973270258 2.7290602849 2.7607935441 2.7925268032 2.8242600623 
2.8559933214 2.8877265806 2.9194598397 2.9511930988 2.982926358 3.0146596171 3.0463928762 3.0781261353 3.1098593945 
3.1415926536 
_radius 1 100 double
1.4577623608e-15 0.014131405459 0.028152372416 0.041956861519 0.055465105115 0.068626937854 0.08141709217 0.093825073204 0.10584357383 
0.11745886892 0.12864495711 0.13936154652 0.14955502268 0.15916136431 0.16811028268 0.17633025882 0.18375434001 0.19032645408 
0.19600774895 0.20078228929 0.20466146489 0.20768662443 0.20992957028 0.21149054051 0.21249326453 0.21307683264 0.21338461238 
0.21355125349 0.21368975556 0.2138812193 0.21416965944 0.21456277349 0.21503740024 0.21554694649 0.21602834249 0.21640779814 
0.21660641436 0.21654732666 0.21616525964 0.21541779702 0.21429627854 0.21283372398 0.21110773389 0.20923760732 0.20737634606 
0.20569918326 0.20439045406 0.20363007365 0.20358000069 0.20437041466 0.20608545278 0.20874942799 0.21231606933 0.21666446383 
0.2216049105 0.22689551948 0.23226714393 0.23745181196 0.24220927469 0.24634742477 0.24973428265 0.25230117047 0.2540381726 
0.25498392264 0.25521220939 0.2548179322 0.25390458223 0.25257464968 0.25092320052 0.24903365275 0.24697412501 0.24479313167 
0.24251474062 0.2401347627 0.23762006716 0.23491225005 0.2319351355 0.2286040808 0.22483463986 0.22054886274 0.21567874837 
0.21016737108 0.20396857077 0.19704596322 0.18937182862 0.18092646839 0.1716987507 0.16168835996 0.15090947198 0.13939451914 
0.12719614557 0.11438589314 0.10104939204 0.087279140864 0.073166713216 0.058796207646 0.044240144693 0.029558183744 0.014798337865 
3.7347261594e-16 
_area 1 100 double
0 0.00060953758019 0.0023988876314 0.0052623984695 0.0090593432187 0.013651334698 0.018930668309 0.024829280545 0.031307021403 
0.038326298249 0.045824583877 0.05369520753 0.06178093022 0.069878974479 0.07775443625 0.085159822451 0.091858651072 0.097649758614 
0.10238745054 0.10599272466 0.10845352366 0.10981658451 0.11017738219 0.10967503754 0.10849481594 0.10687393255 0.10510096206 
0.10349844397 0.10238236047 0.10200029721 0.10246742972 0.10374229037 0.10566320206 0.10801022353 0.11055415737 0.11308227519 
0.11540539842 0.11735816308 0.11880509367 0.11965824668 0.11990255055 0.11961736155 0.11897860549 0.11822885859 0.11762477339 
0.11739754769 0.1177416419 0.11881303896 0.12072294044 0.1235309114 0.12725551865 0.13190293917 0.13746221189 0.1438645373 
0.15093873646 0.15839455179 0.16584826098 0.172879883 0.17909907408 0.18420006781 0.18799404817 0.19041468817 0.19149935773 
0.19135488819 0.19012096252 0.18794354352 0.18496511793 0.18133128957 0.17720656256 0.17278548603 0.16828317534 0.16389931212 
0.15976823493 0.15591938094 0.15226767604 0.14863838122 0.14481635408 0.14060080019 0.13584610417 0.13047806257 0.12448777661 
0.11791434355 0.11082684506 0.10330874493 0.095442933601 0.087298226091 0.078923996295 0.070360725343 0.06166506759 0.052935007948 
0.044319072745 0.036005263269 0.028197232602 0.021088938837 0.014846168045 0.0095981607659 0.0054380727249 0.0024285861645 0.00060882320165 
1.0452406622e-16 
