# vtk DataFile Version 5.1
vtk output
ASCII
DATASET POLYDATA
POINTS 100 float
0.113631 0.0843894 -0.620489 0.113536 0.0843133 -0.620194 0.113227 0.0839148 -0.619315 
0.112703 0.0831749 -0.617853 0.111962 0.0820651 -0.61581 0.111001 0.0805511 -0.61319 
0.109818 0.0785989 -0.610002 0.108409 0.0761795 -0.606255 0.106772 0.0732745 -0.601964 
0.104904 0.0698797 -0.597145 0.102796 0.0660076 -0.591815 0.10044 0.061687 -0.585993 
0.0978191 0.0569617 -0.579695 0.0949125 0.0518872 -0.572936 0.0916909 0.0465253 -0.565723 
0.0881191 0.0409397 -0.558058 0.0841566 0.0351903 -0.549936 0.0797607 0.0293297 -0.541341 
0.0748902 0.0234001 -0.53225 0.0695097 0.0174326 -0.522632 0.0635949 0.0114487 -0.512449 
0.0571364 0.00546296 -0.501661 0.0501438 -0.000512564 -0.490225 0.0426472 -0.00646311 -0.478101 
0.034698 -0.0123663 -0.465254 0.0263663 -0.0181881 -0.451654 0.017737 -0.0238797 -0.43728 
0.00890418 -0.0293775 -0.422123 -3.55887e-05 -0.0346043 -0.406182 -0.00899061 -0.0394731 -0.389467 
-0.0178804 -0.0438931 -0.371998 -0.0266405 -0.0477766 -0.353802 -0.0352256 -0.0510466 -0.334911 
-0.0436091 -0.0536435 -0.315364 -0.0517808 -0.0555314 -0.295202 -0.0597411 -0.0567015 -0.274468 
-0.0674935 -0.0571737 -0.253208 -0.0750366 -0.0569954 -0.231468 -0.0823551 -0.056237 -0.209295 
-0.0894123 -0.0549862 -0.18674 -0.0961456 -0.0533402 -0.163855 -0.102464 -0.0513971 -0.140697 
-0.108251 -0.0492482 -0.117324 -0.113368 -0.0469705 -0.0938007 -0.117666 -0.044622 -0.0701917 
-0.120994 -0.0422387 -0.0465656 -0.123215 -0.0398349 -0.0229911 -0.124216 -0.0374051 0.000463836 
-0.123922 -0.0349292 0.023734 -0.1223 -0.0323786 0.0467582 -0.119371 -0.029723 0.0694812 
-0.1152 -0.0269379 0.0918543 -0.109903 -0.0240101 0.113836 -0.103628 -0.0209428 0.135393 
-0.0965524 -0.0177575 0.156497 -0.0888615 -0.0144949 0.177128 -0.0807398 -0.0112121 0.19727 
-0.0723555 -0.00797923 0.216912 -0.0638505 -0.0048734 0.236047 -0.0553331 -0.0019728 0.25467 
-0.046875 0.000649871 0.272778 -0.0385125 0.00293312 0.290374 -0.0302512 0.00483132 0.307462 
-0.0220745 0.00631768 0.324051 -0.0139533 0.00738546 0.340156 -0.00585621 0.00804732 0.355795 
0.0022407 0.00833301 0.370995 0.0103464 0.00828581 0.385785 0.0184503 0.00795815 0.400202 
0.0265203 0.00740685 0.414282 0.0345053 0.00668864 0.428063 0.0423392 0.00585627 0.44158 
0.0499478 0.00495547 0.45486 0.0572561 0.00402318 0.467923 0.064196 0.00308672 0.480775 
0.0707124 0.0021642 0.493408 0.0767676 0.00126561 0.5058 0.0823429 0.0003946 0.517911 
0.0874383 -0.000449544 0.529687 0.0920689 -0.00126987 0.541062 0.0962604 -0.00206999 0.551962 
0.100043 -0.00285271 0.562305 0.103448 -0.00361918 0.572015 0.106499 -0.00436848 0.581016 
0.109213 -0.00509768 0.589246 0.111596 -0.0058023 0.596658 0.113648 -0.00647686 0.603221 
0.115364 -0.00711561 0.608927 0.116737 -0.00771315 0.61379 0.117766 -0.00826496 0.617843 
0.11846 -0.00876772 0.621141 0.11884 -0.00921945 0.623755 0.118943 -0.0096195 0.625768 
0.118821 -0.00996832 0.627271 0.118538 -0.0102672 0.628357 0.118163 -0.010518 0.629117 
0.11777 -0.0107228 0.629632 0.117423 -0.0108835 0.629971 0.117175 -0.011002 0.630187 
0.117061 -0.0110794 0.630309 
LINES 2 100
OFFSETS vtktypeint64
0 100 
CONNECTIVITY vtktypeint64
0 1 2 3 4 5 6 7 8 
9 10 11 12 13 14 15 16 17 
18 19 20 21 22 23 24 25 26 
27 28 29 30 31 32 33 34 35 
36 37 38 39 40 41 42 43 44 
45 46 47 48 49 50 51 52 53 
54 55 56 57 58 59 60 61 62 
63 64 65 66 67 68 69 70 71 
72 73 74 75 76 77 78 79 80 
81 82 83 84 85 86 87 88 89 
90 91 92 93 94 95 96 97 98 
99 
POINT_DATA 100
FIELD FieldData 3
_theta 1 100 double
0 0.031733259127 0.063466518254 0.095199777382 0.12693303651 0.15866629564 0.19039955476 0.22213281389 0.25386607302 
0.28559933214 0.31733259127 0.3490658504 0.38079910953 0.41253236865 0.44426562778 0.47599888691 0.50773214603 0.53946540516 
0.57119866429 0.60293192342 0.63466518254 0.66639844167 0.6981317008 0.72986495992 0.76159821905 0.79333147818 0.82506473731 
0.85679799643 0.88853125556 0.92026451469 0.95199777382 0.98373103294 1.0154642921 1.0471975512 1.0789308103 1.1106640695 
1.1423973286 1.1741305877 1.2058638468 1.237597106 1.2693303651 1.3010636242 1.3327968833 1.3645301425 1.3962634016 
1.4279966607 1.4597299198 1.491463179 1.5231964381 1.5549296972 1.5866629564 1.6183962155 1.6501294746 1.6818627337 
1.7135959929 1.745329252 1.7770625111 1.8087957702 1.8405290294 1.8722622885 1.9039955476 1.9357288068 1.9674620659 
1.999195325 2.0309285841 2.0626618433 2.0943951024 2.1261283615 2.1578616206 2.1895948798 2.2213281389 2.253061398 
2.2847946572 2.3165279163 2.3482611754 2.3799944345 2.4117276937 2.4434609528 2.4751942119 2.506927471 2.5386607302 
2.5703939893 2.6021272484 2.6338605076 2.6655937667 2.6973270258 2.7290602849 2.7607935441 2.7925268032 2.8242600623 
2.8559933214 2.8877265806 2.9194598397 2.9511930988 2.982926358 3.0146596171 3.0463928762 3.0781261353 3.1098593945 
3.1415926536 
_radius 1 100 double
1.0047748389e-15 0.01399207291 0.027928725509 0.041751016979 0.055399356723 0.068812862081 0.081928437215 0.094679701452 0.10699603231 
0.1188020683 0.13001800687 0.14056094822 0.15034741742 0.15929707408 0.16733748653 0.17440968917 0.18047405394 0.18551582362 
0.18954952735 0.19262147724 0.19480965575 0.19622056146 0.19698299313 0.19723929559 0.19713516044 0.19680944324 0.19638537192 
0.19596393462 0.19561948446 0.19539718334 0.19531202224 0.1953495404 0.19546862981 0.19560679092 0.19568797927 0.19563284428 
0.1953706886 0.19485183133 0.19405840441 0.19301130801 0.19177142319 0.19043431236 0.18911931966 0.18795564844 0.18706882388 
0.18657041587 0.18655226225 0.187084506 0.18821536843 0.18997035875 0.19234971336 0.19532462149 0.19883416714 0.20278518227 
0.20705635838 0.21150655437 0.21598596061 0.2203480969 0.22446063648 0.22821359283 0.23152419617 0.2343385295 0.23663047536 
0.23839867765 0.23966212856 0.24045481178 0.24081971156 0.24080249965 0.2404453202 0.2397812285 0.23882990577 0.23759518444 
0.23606464442 0.23421113677 0.23199570563 0.22937118792 0.22628585846 0.22268678325 0.21852286691 0.21374776399 0.20832279334 
0.20221978577 0.19542351834 0.18793318911 0.1797623928 0.17093732369 0.1614934004 0.15147101055 0.1409113986 0.12985371053 
0.11833383847 0.10638511466 0.094040321721 0.081334144333 0.068305196799 0.054997077344 0.041458351491 0.027741750765 0.01390304711 
6.372008556e-16 
_area 1 100 double
0 0.00048121172933 0.0019251750758 0.0043302740062 0.007685849327 0.011962578903 0.017103152242 0.023016076652 0.029574447502 
0.036619727645 0.043968780292 0.051421565986 0.058767619551 0.065791319329 0.072277868185 0.078022559039 0.082844798671 0.086606046984 
0.089228431627 0.090709389454 0.091127820519 0.09063885624 0.089456958916 0.087830158122 0.086011409385 0.084235413844 0.082708108274 
0.081607472924 0.081074233344 0.081158941363 0.081781540599 0.082793549605 0.084047720787 0.08541696094 0.08679595968 0.088105261784 
0.089296993444 0.090357849104 0.091310076055 0.092208726043 0.093129688245 0.094152899462 0.095346523271 0.096752408003 0.098379038334 
0.10021008477 0.10222663707 0.10443241329 0.10687129759 0.1096280085 0.11280462201 0.1164818856 0.12068972866 0.12539505333 
0.1305024808 0.13586618545 0.14130961536 0.14664761316 0.15170580809 0.15633385204 0.16041121755 0.16384686418 0.16657634747 
0.16856030046 0.16978591876 0.17026945395 0.17005531506 0.16920805652 0.16779743354 0.16588186759 0.16349793241 0.1606599059 
0.15736722011 0.15361456461 0.14940024702 0.14473043112 0.13961870399 0.13408214653 0.12813653327 0.12179380851 0.11506399502 
0.10796139767 0.10051261019 0.092762879688 0.084778269508 0.076643027672 0.068453499651 0.060311028367 0.05231621673 0.044565852077 
0.037152408157 0.030165174025 0.023691975661 0.017820735671 0.012640250595 0.0082394882627 0.0047047435246 0.0021144460786 0.00053226177107 
5.7272568985e-17 
