# vtk DataFile Version 5.1
vtk output
ASCII
DATASET POLYDATA
POINTS 100 float
0.154867 0.094833 -0.687696 0.154949 0.0947903 -0.687545 0.155199 0.0944382 -0.687063 
0.155576 0.0937469 -0.686223 0.156016 0.0926716 -0.684987 0.156434 0.0911571 -0.683306 
0.156731 0.0891427 -0.681125 0.156801 0.0865692 -0.67839 0.156534 0.0833846 -0.675047 
0.155826 0.0795505 -0.671052 0.154581 0.0750469 -0.666372 0.152719 0.0698756 -0.660982 
0.150173 0.0640623 -0.654874 0.146899 0.0576564 -0.648047 0.14287 0.0507293 -0.640508 
0.13808 0.0433706 -0.63227 0.132544 0.0356835 -0.623347 0.126292 0.027779 -0.613748 
0.119375 0.0197698 -0.603477 0.111857 0.0117646 -0.592528 0.103814 0.00386298 -0.580885 
0.0953344 -0.00384832 -0.568523 0.0865096 -0.0112977 -0.555406 0.0774348 -0.0184289 -0.541495 
0.0682022 -0.0252006 -0.526747 0.058896 -0.0315827 -0.511124 0.049588 -0.0375537 -0.494592 
0.0403328 -0.0430955 -0.477129 0.0311651 -0.0481898 -0.458728 0.0220976 -0.0528138 -0.439397 
0.0131219 -0.056938 -0.419158 0.00421168 -0.0605248 -0.398053 -0.0046722 -0.0635293 -0.376131 
-0.0135734 -0.0659014 -0.353457 -0.022531 -0.06759 -0.330096 -0.031569 -0.0685479 -0.306118 
-0.0406864 -0.068738 -0.281592 -0.0498488 -0.0681387 -0.256578 -0.0589825 -0.0667494 -0.231136 
-0.067972 -0.0645942 -0.205314 -0.0766626 -0.0617242 -0.179159 -0.0848665 -0.0582171 -0.152712 
-0.0923736 -0.0541752 -0.126015 -0.0989658 -0.0497204 -0.0991143 -0.104433 -0.0449881 -0.0720638 
-0.108592 -0.0401196 -0.0449266 -0.111298 -0.0352535 -0.0177784 -0.112461 -0.0305179 0.00929319 
-0.112055 -0.0260234 0.0361893 -0.110119 -0.0218573 0.062803 -0.106754 -0.0180804 0.0890238 
-0.102117 -0.0147259 0.114743 -0.0964066 -0.0118009 0.139858 -0.0898465 -0.00929009 0.164282 
-0.0826665 -0.00716084 0.187944 -0.075085 -0.00536996 0.210798 -0.0672926 -0.00387044 0.232821 
-0.0594405 -0.00261799 0.254015 -0.0516331 -0.00157657 0.274405 -0.0439271 -0.000722227 0.294037 
-0.0363356 -4.50463e-05 0.312972 -0.0288379 0.000450961 0.33128 -0.0213915 0.000749969 0.349033 
-0.0139476 0.000828048 0.366302 -0.00646435 0.000657991 0.383152 0.00108003 0.000214623 0.399633 
0.00867927 -0.000520076 0.415787 0.016295 -0.00155266 0.431639 0.0238579 -0.00287521 0.447202 
0.0312742 -0.00446408 0.46248 0.0384354 -0.0062804 0.47747 0.0452309 -0.00827237 0.492163 
0.0515611 -0.0103791 0.506549 0.0573499 -0.0125355 0.520618 0.0625535 -0.0146777 0.534363 
0.0671657 -0.0167484 0.547775 0.0712181 -0.0187017 0.560848 0.0747759 -0.0205065 0.573568 
0.0779283 -0.0221491 0.585921 0.0807771 -0.0236329 0.597879 0.0834229 -0.0249782 0.609408 
0.0859523 -0.0262184 0.620459 0.0884269 -0.0273968 0.630974 0.0908759 -0.0285613 0.640885 
0.0932937 -0.0297596 0.65012 0.095642 -0.0310338 0.658609 0.0978569 -0.0324166 0.666285 
0.0998597 -0.0339271 0.6731 0.10157 -0.0355692 0.67902 0.102918 -0.0373306 0.684039 
0.103858 -0.0391831 0.688177 0.104375 -0.0410844 0.691484 0.104494 -0.0429812 0.694034 
0.104272 -0.0448126 0.695922 0.103799 -0.0465143 0.697261 0.103185 -0.0480229 0.698167 
0.102546 -0.0492801 0.698751 0.101995 -0.0502363 0.699116 0.101622 -0.050854 0.699336 
0.101485 -0.0511101 0.699463 
LINES 2 100
OFFSETS vtktypeint64
0 100 
CONNECTIVITY vtktypeint64
0 1 2 3 4 5 6 7 8 
9 10 11 12 13 14 15 16 17 
18 19 20 21 22 23 24 25 26 
27 28 29 30 31 32 33 34 35 
36 37 38 39 40 41 42 43 44 
45 46 47 48 49 50 51 52 53 
54 55 56 57 58 59 60 61 62 
63 64 65 66 67 68 69 70 71 
72 73 74 75 76 77 78 79 80 
81 82 83 84 85 86 87 88 89 
90 91 92 93 94 95 96 97 98 
99 
POINT_DATA 100
FIELD FieldData 3
_theta 1 100 double
0 0.031733259127 0.063466518254 0.095199777382 0.12693303651 0.15866629564 0.19039955476 0.22213281389 0.25386607302 
0.28559933214 0.31733259127 0.3490658504 0.38079910953 0.41253236865 0.44426562778 0.47599888691 0.50773214603 0.53946540516 
0.57119866429 0.60293192342 0.63466518254 0.66639844167 0.6981317008 0.72986495992 0.76159821905 0.79333147818 0.82506473731 
0.85679799643 0.88853125556 0.92026451469 0.95199777382 0.98373103294 1.0154642921 1.0471975512 1.0789308103 1.1106640695 
1.1423973286 1.1741305877 1.2058638468 1.237597106 1.2693303651 1.3010636242 1.3327968833 1.3645301425 1.3962634016 
1.4279966607 1.4597299198 1.491463179 1.5231964381 1.5549296972 1.5866629564 1.6183962155 1.6501294746 1.6818627337 
1.7135959929 1.745329252 1.7770625111 1.8087957702 1.8405290294 1.8722622885 1.9039955476 1.9357288068 1.9674620659 
1.999195325 2.0309285841 2.0626618433 2.0943951024 2.1261283615 2.1578616206 2.1895948798 2.2213281389 2.253061398 
2.2847946572 2.3165279163 2.3482611754 2.3799944345 2.4117276937 2.4434609528 2.4751942119 2.506927471 2.5386607302 
2.5703939893 2.6021272484 2.6338605076 2.6655937667 2.6973270258 2.7290602849 2.7607935441 2.7925268032 2.8242600623 
2.8559933214 2.8877265806 2.9194598397 2.9511930988 2.982926358 3.0146596171 3.0463928762 3.0781261353 3.1098593945 
3.1415926536 
_radius 1 100 double
6.804363002e-16 0.015448243251 0.030798259574 0.045953135454 0.060819702681 0.075309553378 0.089339490932 0.1028315188 0.11571255043 
0.1279140442 0.13937175096 0.15002574196 0.15982087648 0.16870785791 0.17664498176 0.18360056915 0.18955591069 0.19450835974 
0.19847407915 0.20148991663 0.20361397517 0.20492462292 0.20551789455 0.20550342587 0.20499921785 0.20412565242 0.2029992891 
0.20172703465 0.20040124131 0.19909609511 0.19786533169 0.19674103343 0.19573329204 0.19483101193 0.19400483798 0.19321346828 
0.19241390498 0.19157466232 0.19068939413 0.18978752864 0.1889384948 0.18824703448 0.18783923579 0.18784242867 0.18836561262 
0.18948759852 0.19125575113 0.19369186268 0.19679839946 0.20056012054 0.20494044385 0.20987547739 0.21526967364 0.22099595413 
0.22690115082 0.23281585564 0.23856682993 0.24399000638 0.24894245704 0.25331211277 0.25702435072 0.26004488754 0.26237881106 
0.26406600792 0.26517356647 0.26578587537 0.26599317087 0.26587938645 0.26551044687 0.26492452358 0.26412592037 0.26308388772 
0.2617367341 0.26000040696 0.25777972412 0.25498001589 0.25151718735 0.24732493946 0.24235876667 0.23659706363 0.23004004964 
0.22270723897 0.21463396363 0.20586717404 0.19646058392 0.18646929094 0.17594427524 0.16492751015 0.1534486179 0.14152391634 
0.12915829561 0.11634973728 0.10309563784 0.089399647227 0.075277647762 0.060761803532 0.045902165398 0.030765890334 0.015434531066 
6.5830165497e-16 
_area 1 100 double
0 0.00066062255705 0.0026246976614 0.0058387776781 0.010213728022 0.015625279888 0.021916003302 0.028899560626 0.036367748288 
0.044100175338 0.051875665243 0.059483828715 0.06673494697 0.073466522054 0.079545715677 0.084868249428 0.089355573155 0.092952480074 
0.095626645841 0.097370322241 0.098203347827 0.098176192621 0.097372114041 0.095908617535 0.093939799039 0.091661710439 0.089310145465 
0.087128048254 0.085232798748 0.083657825553 0.082539473045 0.081965645766 0.081950411149 0.082395356705 0.083140431817 0.084035047064 
0.0849623205 0.085867147799 0.08677136665 0.087770938607 0.089012216577 0.090645846821 0.092766904959 0.09537262882 0.098371355705 
0.10163210113 0.10506094232 0.10868963307 0.11288207579 0.11780233721 0.12329147988 0.12948601308 0.13643083751 0.14404579758 
0.15213663337 0.1604207103 0.16855990906 0.17620171916 0.183026072 0.1887907166 0.19336774472 0.19676881871 0.19915355916 
0.2007573757 0.20172088899 0.20208310451 0.20188181725 0.20117644058 0.20002703936 0.19846794204 0.19648989817 0.19403608962 
0.19101210885 0.18730681027 0.18281886488 0.17748212912 0.17128247636 0.16426110764 0.15650459055 0.14812733172 0.13925424238 
0.13000874878 0.12050655789 0.11085255249 0.10113848327 0.091441454117 0.081825009451 0.072344090909 0.063052770328 0.054012068344 
0.0452957938 0.036993873087 0.029213310947 0.022076659183 0.015717628762 0.010273828134 0.0058773400864 0.0026444568875 0.00066607210311 
4.329849271e-17 
