# vtk DataFile Version 5.1
vtk output
ASCII
DATASET POLYDATA
POINTS 100 float
0.240709 0.0594671 -0.728276 0.240155 0.0593573 -0.727565 0.238519 0.0589017 -0.725565 
0.235838 0.058108 -0.722322 0.232173 0.0569878 -0.717911 0.227598 0.0555545 -0.712422 
0.222201 0.0538217 -0.705959 0.21607 0.0518004 -0.698627 0.209292 0.049498 -0.690527 
0.201944 0.0469172 -0.681744 0.194091 0.0440559 -0.672344 0.185788 0.0409088 -0.662368 
0.177072 0.0374695 -0.651835 0.167977 0.0337331 -0.640737 0.158526 0.0296996 -0.629047 
0.148745 0.0253773 -0.616725 0.138663 0.0207851 -0.603721 0.128313 0.0159549 -0.589986 
0.117742 0.0109318 -0.575477 0.107 0.00577363 -0.560162 0.0961489 0.000549099 -0.544026 
0.0852491 -0.00466521 -0.527069 0.0743607 -0.00978859 -0.509311 0.0635359 -0.0147404 -0.490789 
0.0528138 -0.0194438 -0.471549 0.0422174 -0.0238299 -0.451646 0.0317516 -0.0278398 -0.431139 
0.0214042 -0.0314267 -0.410084 0.0111497 -0.0345565 -0.388529 0.000954888 -0.037207 -0.366515 
-0.0092128 -0.0393672 -0.344074 -0.0193766 -0.0410355 -0.321225 -0.0295415 -0.0422175 -0.297982 
-0.0396862 -0.0429246 -0.274353 -0.0497577 -0.0431726 -0.250347 -0.0596686 -0.0429806 -0.225977 
-0.0692983 -0.0423712 -0.201262 -0.0784974 -0.0413701 -0.176235 -0.0870962 -0.0400068 -0.150942 
-0.0949154 -0.0383151 -0.125441 -0.101779 -0.0363329 -0.0998077 -0.107527 -0.0341022 -0.0741259 
-0.112028 -0.0316681 -0.0484887 -0.115192 -0.0290777 -0.0229927 -0.116972 -0.0263779 0.00226648 
-0.117374 -0.0236136 0.0271984 -0.116452 -0.0208258 0.0517221 -0.114305 -0.0180502 0.0757692 
-0.111069 -0.0153162 0.0992855 -0.106905 -0.0126475 0.122232 -0.101986 -0.0100628 0.144585 
-0.0964874 -0.0075783 0.166333 -0.0905716 -0.00520993 0.187475 -0.08438 -0.00297641 0.20802 
-0.0780251 -0.000901658 0.227979 -0.0715871 0.000983468 0.247369 -0.0651139 0.0026407 0.266204 
-0.0586233 0.00402542 0.284498 -0.0521092 0.0050893 0.302266 -0.0455491 0.00578446 0.319519 
-0.0389121 0.00606866 0.336269 -0.0321677 0.005911 0.35253 -0.0252932 0.00529733 0.368316 
-0.0182797 0.00423465 0.383651 -0.0111357 0.00275375 0.398559 -0.00388877 0.000909498 0.413075 
0.0034153 -0.00122151 0.427238 0.0107153 -0.00354584 0.441091 0.0179387 -0.00596046 0.454683 
0.0250074 -0.00836151 0.468062 0.0318427 -0.0106537 0.481272 0.0383708 -0.0127594 0.494353 
0.0445274 -0.014626 0.507333 0.050261 -0.0162312 0.520229 0.055535 -0.0175844 0.53304 
0.0603284 -0.0187256 0.545749 0.0646351 -0.0197195 0.558322 0.0684627 -0.0206479 0.570704 
0.0718299 -0.0215992 0.582828 0.0747641 -0.022657 0.594612 0.0772985 -0.0238898 0.605966 
0.0794695 -0.0253412 0.616795 0.0813148 -0.0270241 0.627005 0.0828711 -0.0289179 0.636509 
0.0841736 -0.0309702 0.64523 0.0852545 -0.0331017 0.653109 0.0861432 -0.0352155 0.660105 
0.0868663 -0.0372076 0.666201 0.0874474 -0.0389793 0.671402 0.0879076 -0.0404489 0.675739 
0.0882657 -0.0415609 0.679263 0.0885386 -0.0422931 0.682048 0.0887413 -0.0426587 0.684179 
0.0888869 -0.0427052 0.685755 0.0889869 -0.0425079 0.686878 0.0890509 -0.0421611 0.687647 
0.0890868 -0.0417663 0.688155 0.0891008 -0.0414197 0.688481 0.0890971 -0.0412002 0.688684 
0.0890782 -0.0411601 0.688802 
LINES 2 100
OFFSETS vtktypeint64
0 100 
CONNECTIVITY vtktypeint64
0 1 2 3 4 5 6 7 8 
9 10 11 12 13 14 15 16 17 
18 19 20 21 22 23 24 25 26 
27 28 29 30 31 32 33 34 35 
36 37 38 39 40 41 42 43 44 
45 46 47 48 49 50 51 52 53 
54 55 56 57 58 59 60 61 62 
63 64 65 66 67 68 69 70 71 
72 73 74 75 76 77 78 79 80 
81 82 83 84 85 86 87 88 89 
90 91 92 93 94 95 96 97 98 
99 
POINT_DATA 100
FIELD FieldData 3
_theta 1 100 double
0 0.031733259127 0.063466518254 0.095199777382 0.12693303651 0.15866629564 0.19039955476 0.22213281389 0.25386607302 
0.28559933214 0.31733259127 0.3490658504 0.38079910953 0.41253236865 0.44426562778 0.47599888691 0.50773214603 0.53946540516 
0.57119866429 0.60293192342 0.63466518254 0.66639844167 0.6981317008 0.72986495992 0.76159821905 0.79333147818 0.82506473731 
0.85679799643 0.88853125556 0.92026451469 0.95199777382 0.98373103294 1.0154642921 1.0471975512 1.0789308103 1.1106640695 
1.1423973286 1.1741305877 1.2058638468 1.237597106 1.2693303651 1.3010636242 1.3327968833 1.3645301425 1.3962634016 
1.4279966607 1.4597299198 1.491463179 1.5231964381 1.5549296972 1.5866629564 1.6183962155 1.6501294746 1.6818627337 
1.7135959929 1.745329252 1.7770625111 1.8087957702 1.8405290294 1.8722622885 1.9039955476 1.9357288068 1.9674620659 
1.999195325 2.0309285841 2.0626618433 2.0943951024 2.1261283615 2.1578616206 2.1895948798 2.2213281389 2.253061398 
2.2847946572 2.3165279163 2.3482611754 2.3799944345 2.4117276937 2.4434609528 2.4751942119 2.506927471 2.5386607302 
2.5703939893 2.6021272484 2.6338605076 2.6655937667 2.6973270258 2.7290602849 2.7607935441 2.7925268032 2.8242600623 
2.8559933214 2.8877265806 2.9194598397 2.9511930988 2.982926358 3.0146596171 3.0463928762 3.0781261353 3.1098593945 
3.1415926536 
_radius 1 100 double
8.0086379599e-16 0.01421953365 0.0283073478 0.042140533207 0.05560533256 0.068599392974 0.081032158477 0.092823625872 0.10390214555 
0.11420226101 0.12366363016 0.13223180994 0.13986117873 0.14651966761 0.15219444119 0.15689734224 0.1606688652 0.16357965714 
0.16572898924 0.1672401505 0.1682531284 0.16891517546 0.16936998029 0.16974631352 0.17014727896 0.17064157627 0.17125829953 
0.17198662757 0.17278124763 0.17357346383 0.17428674479 0.17485426062 0.17523523229 0.17542697894 0.1754702906 0.17544682998 
0.17546853741 0.17566080003 0.17614386808 0.17701951938 0.17836860805 0.18025817024 0.18274973665 0.18590025729 0.18975285582 
0.19432099092 0.19957282599 0.20542214094 0.21172923165 0.21831177737 0.22496299936 0.23147310962 0.23764997993 0.24333582636 
0.24841806405 0.25283386849 0.25656901619 0.25965211991 0.2621454792 0.2641336163 0.26571038664 0.26696554435 0.26797189709 
0.26877458299 0.26938422011 0.2697753735 0.26989087893 0.26965134049 0.26896802879 0.26775678123 0.26595045995 0.26350798977 
0.26041880299 0.25670242684 0.25240374113 0.24758495369 0.24231555684 0.23666152456 0.23067494448 0.22438527768 0.21779348654 
0.21087018593 0.20355854524 0.19578186721 0.18745482694 0.17849660788 0.16884384163 0.15846135487 0.1473491438 0.13554461116 
0.12311981127 0.11017415986 0.096823693951 0.083188452893 0.069379840981 0.055489867156 0.04158388413 0.027697877249 0.013840590374 
2.3927557528e-16 
_area 1 100 double
0 0.00051178211092 0.0020314204336 0.0045136533267 0.0078882579719 0.012064935545 0.016935981709 0.022375612524 0.028236941303 
0.034349465706 0.040520654578 0.046544328659 0.052216177629 0.057353885157 0.061817240492 0.065523268495 0.068452933647 0.070648576475 
0.072203669613 0.073247766479 0.073929536006 0.074400206017 0.0747993094 0.075244205275 0.07582356577 0.076593030849 0.077570827171 
0.078734546895 0.080024848123 0.081360376457 0.08266052989 0.083867108797 0.08495641703 0.085941667957 0.086873851581 0.087837963005 
0.088932312868 0.090239451962 0.091813416809 0.093688801912 0.095896089162 0.098474851201 0.10148590466 0.10501875469 0.10918472926 
0.11408791699 0.11978256817 0.12624121572 0.13334788981 0.14091385145 0.14870577578 0.15647554458 0.16398492806 0.17102339301 
0.17741984834 0.1830498173 0.18783939184 0.19176674313 0.1948610664 0.19719769192 0.19888690757 0.20005384295 0.20080973763 
0.20122242766 0.2013001954 0.20099610988 0.20022599134 0.198891306 0.196902568 0.19419904553 0.19075735465 0.18658129936 
0.18168771583 0.17611718376 0.16995060827 0.1633041117 0.15630955661 0.14909316464 0.14175717884 0.13436623848 0.12693986637 
0.11945278801 0.1118442695 0.10403580402 0.095953987323 0.087553665336 0.078836386436 0.069860707121 0.060743028155 0.051649481475 
0.042780622388 0.034351444055 0.02656975741 0.019616329114 0.01363015822 0.0087016077624 0.0048746410948 0.0021573312069 0.00053764933848 
2.6406196596e-17 
