# vtk DataFile Version 5.1
vtk output
ASCII
DATASET POLYDATA
POINTS 100 float
0.133494 0.0404983 -0.757853 0.133631 0.0405536 -0.757854 0.134088 0.0405564 -0.757885 
0.134811 0.0405096 -0.757824 0.135716 0.0404168 -0.757477 0.136692 0.0402797 -0.756607 
0.137614 0.0400961 -0.754953 0.138354 0.0398567 -0.752264 0.138786 0.0395438 -0.748319 
0.138799 0.0391299 -0.742956 0.1383 0.0385778 -0.736084 0.13722 0.0378419 -0.727689 
0.135511 0.0368709 -0.717835 0.133151 0.0356111 -0.706652 0.130133 0.0340107 -0.694321 
0.126466 0.0320241 -0.681049 0.122168 0.0296162 -0.667049 0.11726 0.0267658 -0.652518 
0.111765 0.0234684 -0.637614 0.105707 0.0197373 -0.622448 0.0991073 0.0156041 -0.607075 
0.0919886 0.011117 -0.591495 0.0843765 0.00633944 -0.575662 0.0763026 0.00134715 -0.559495 
0.0678072 -0.0037752 -0.542894 0.0589405 -0.00893702 -0.525756 0.0497636 -0.014045 -0.507994 
0.0403468 -0.0190057 -0.48954 0.0307672 -0.0237284 -0.470363 0.0211041 -0.0281269 -0.450459 
0.011435 -0.0321217 -0.429859 0.0018303 -0.0356421 -0.408611 -0.00765001 -0.0386279 -0.386776 
-0.0169589 -0.0410319 -0.364415 -0.0260625 -0.0428223 -0.341576 -0.0349381 -0.0439844 -0.318289 
-0.0435699 -0.0445232 -0.294561 -0.0519434 -0.0444646 -0.270375 -0.0600389 -0.0438554 -0.245695 
-0.0678245 -0.042763 -0.220477 -0.0752509 -0.0412724 -0.194678 -0.0822476 -0.0394824 -0.168267 
-0.0887222 -0.0375002 -0.141239 -0.0945626 -0.0354343 -0.113622 -0.0996425 -0.0333876 -0.0854805 
-0.10383 -0.0314499 -0.0569206 -0.106996 -0.0296913 -0.0280817 -0.109028 -0.0281574 0.000869696 
-0.109838 -0.0268663 0.0297514 -0.109373 -0.0258088 0.0583788 -0.107622 -0.0249501 0.0865775 
-0.104616 -0.0242359 0.114196 -0.100429 -0.023599 0.141112 -0.0951724 -0.0229683 0.167242 
-0.0889874 -0.0222781 0.192537 -0.0820328 -0.0214769 0.216985 -0.074474 -0.0205341 0.240599 
-0.066471 -0.0194453 0.263414 -0.0581679 -0.0182337 0.285475 -0.0496848 -0.016949 0.306828 
-0.0411133 -0.0156625 0.327514 -0.0325153 -0.0144601 0.347563 -0.023925 -0.0134333 0.366993 
-0.0153547 -0.0126695 0.385811 -0.00680177 -0.0122425 0.404017 0.00174275 -0.0122047 0.421608 
0.0102862 -0.0125818 0.438585 0.0188275 -0.0133701 0.454958 0.0273519 -0.0145372 0.470748 
0.0358297 -0.0160262 0.485993 0.0442161 -0.0177619 0.500742 0.0524551 -0.0196593 0.515054 
0.0604842 -0.0216319 0.528992 0.0682412 -0.0236009 0.542616 0.0756699 -0.0255015 0.555975 
0.0827264 -0.0272883 0.569101 0.0893829 -0.0289364 0.582005 0.0956293 -0.0304415 0.594672 
0.101473 -0.0318155 0.607064 0.106938 -0.0330813 0.61912 0.112055 -0.0342662 0.630765 
0.116863 -0.035395 0.641915 0.121399 -0.0364841 0.652486 0.125695 -0.0375374 0.662399 
0.129771 -0.0385443 0.671594 0.133637 -0.039481 0.680026 0.13729 -0.0403132 0.687673 
0.140715 -0.0410017 0.694536 0.143892 -0.041509 0.700635 0.146796 -0.0418055 0.706005 
0.149405 -0.0418765 0.710693 0.151701 -0.0417255 0.714751 0.153674 -0.0413768 0.718229 
0.155324 -0.0408746 0.721174 0.156663 -0.0402796 0.723626 0.157708 -0.039663 0.725614 
0.158481 -0.0390989 0.727162 0.159006 -0.0386567 0.728283 0.159301 -0.0383923 0.728984 
0.159382 -0.0383425 0.729269 
LINES 2 100
OFFSETS vtktypeint64
0 100 
CONNECTIVITY vtktypeint64
0 1 2 3 4 5 6 7 8 
9 10 11 12 13 14 15 16 17 
18 19 20 21 22 23 24 25 26 
27 28 29 30 31 32 33 34 35 
36 37 38 39 40 41 42 43 44 
45 46 47 48 49 50 51 52 53 
54 55 56 57 58 59 60 61 62 
63 64 65 66 67 68 69 70 71 
72 73 74 75 76 77 78 79 80 
81 82 83 84 85 86 87 88 89 
90 91 92 93 94 95 96 97 98 
99 
POINT_DATA 100
FIELD FieldData 3
_theta 1 100 double
0 0.031733259127 0.063466518254 0.095199777382 0.12693303651 0.15866629564 0.19039955476 0.22213281389 0.25386607302 
0.28559933214 0.31733259127 0.3490658504 0.38079910953 0.41253236865 0.44426562778 0.47599888691 0.50773214603 0.53946540516 
0.57119866429 0.60293192342 0.63466518254 0.66639844167 0.6981317008 0.72986495992 0.76159821905 0.79333147818 0.82506473731 
0.85679799643 0.88853125556 0.92026451469 0.95199777382 0.98373103294 1.0154642921 1.0471975512 1.0789308103 1.1106640695 
1.1423973286 1.1741305877 1.2058638468 1.237597106 1.2693303651 1.3010636242 1.3327968833 1.3645301425 1.3962634016 
1.4279966607 1.4597299198 1.491463179 1.5231964381 1.5549296972 1.5866629564 1.6183962155 1.6501294746 1.6818627337 
1.7135959929 1.745329252 1.7770625111 1.8087957702 1.8405290294 1.8722622885 1.9039955476 1.9357288068 1.9674620659 
1.999195325 2.0309285841 2.0626618433 2.0943951024 2.1261283615 2.1578616206 2.1895948798 2.2213281389 2.253061398 
2.2847946572 2.3165279163 2.3482611754 2.3799944345 2.4117276937 2.4434609528 2.4751942119 2.506927471 2.5386607302 
2.5703939893 2.6021272484 2.6338605076 2.6655937667 2.6973270258 2.7290602849 2.7607935441 2.7925268032 2.8242600623 
2.8559933214 2.8877265806 2.9194598397 2.9511930988 2.982926358 3.0146596171 3.0463928762 3.0781261353 3.1098593945 
3.1415926536 
_radius 1 100 double
4.6944066067e-16 0.016434354347 0.032682552149 0.048566516794 0.06392908304 0.078641572545 0.092608170036 0.10576661983 0.11808525312 
0.12955689423 0.14019068833 0.15000324393 0.15901060599 0.16722242982 0.17463932677 0.18125377476 0.18705434335 0.19203239846 
0.19619002187 0.19954766043 0.20215003076 0.2040690428 0.20540294359 0.2062714599 0.20680735202 0.20714538975 0.20741024285 
0.20770504887 0.20810236445 0.20863873211 0.20931328588 0.21009000866 0.21090283054 0.2116628325 0.21226713729 0.21260931855 
0.21259123536 0.21213605831 0.21120167073 0.20979255627 0.20796741221 0.2058399884 0.20357215313 0.20136015274 0.19941656821 
0.19795104653 0.19715239199 0.19717342348 0.19811893369 0.20003685469 0.20291334132 0.20667310405 0.21118605508 0.21628005965 
0.22175802447 0.22741654952 0.23306325322 0.23853046591 0.24368390682 0.24842594184 0.25269391135 0.25645471451 0.25969724113 
0.26242429117 0.26464533882 0.26637100411 0.26760956769 0.26836544808 0.268639307 0.26842931121 0.2677329837 0.26654899784 
0.26487825629 0.26272372827 0.26008881753 0.25697444063 0.2533753978 0.24927690408 0.2446522395 0.23946234346 0.23365783808 
0.22718347494 0.21998445164 0.21201356275 0.20323787898 0.19364370484 0.18323897071 0.17205284477 0.16013297179 0.14754113812 
0.13434825161 0.12062940331 0.10645958902 0.091910489021 0.07704852517 0.061934213977 0.046622623849 0.03116457248 0.015608123693 
4.2303159249e-16 
_area 1 100 double
0 0.00059599751032 0.0023768402084 0.0053177287253 0.0093680544786 0.014442920504 0.020418742382 0.027135168636 0.03440297016 
0.042015678013 0.049761955348 0.057435917793 0.06484369186 0.071806112024 0.078159087477 0.083754264577 0.088462827032 0.092184457868 
0.094861602097 0.096496573302 0.097166711582 0.097031984963 0.096330925407 0.095361768878 0.094429413344 0.093743194422 0.09338787493 
0.093387267653 0.09373675487 0.094414575236 0.095389357768 0.096620734196 0.098057238281 0.099636096169 0.10128204243 0.10290297638 
0.1043844399 0.10558934049 0.10638058983 0.10666889014 0.10645438616 0.10583774038 0.10500233516 0.10418049301 0.10361699269 
0.10354004435 0.10414340285 0.10557501453 0.10792901546 0.11124891502 0.11553866659 0.12076363958 0.12684184229 0.13363830511 
0.14096811997 0.14860650881 0.15630395553 0.16380548803 0.17087251949 0.17730400834 0.18295274107 0.18773315986 0.19161907862 
0.19463195328 0.19682224839 0.19824740725 0.19895011615 0.19894082623 0.19818960693 0.19663280504 0.19419612332 0.19082780637 
0.18652964894 0.18137389598 0.17549947798 0.16908786787 0.16232428059 0.15535372992 0.14824537467 0.14098045263 0.13347207062 
0.12560955535 0.11730807287 0.10854468056 0.099371370037 0.089905824634 0.080306877753 0.070744011925 0.061370583765 0.052309491814 
0.043655889086 0.035492993812 0.02790940992 0.021007639249 0.014901810067 0.0097090161613 0.0055393569078 0.0024874222749 0.0006257536684 
2.4846285851e-17 
