# vtk DataFile Version 5.1
vtk output
ASCII
DATASET POLYDATA
POINTS 100 float
0.0693224 0.0689685 -0.722279 0.0694868 0.0690148 -0.722161 0.0700084 0.068889 -0.721803 
0.0708554 0.0685618 -0.721119 0.0719758 0.0679892 -0.719977 0.0732989 0.0671171 -0.718217 
0.074738 0.0658879 -0.715671 0.0761933 0.0642461 -0.712178 0.0775555 0.0621441 -0.707611 
0.0787097 0.0595478 -0.701886 0.0795395 0.0564391 -0.694969 0.0799314 0.0528179 -0.686884 
0.0797791 0.0487015 -0.677702 0.078988 0.044123 -0.667531 0.0774793 0.0391275 -0.656499 
0.0751937 0.033769 -0.644738 0.0720947 0.0281059 -0.632367 0.0681708 0.0221982 -0.619471 
0.0634374 0.0161051 -0.606101 0.0579367 0.00988394 -0.592259 0.0517371 0.00359091 -0.577912 
0.0449305 -0.00271771 -0.562992 0.0376288 -0.008983 -0.547412 0.0299589 -0.015141 -0.531084 
0.0220562 -0.0211204 -0.513932 0.0140579 -0.0268419 -0.495908 0.00609564 -0.0322184 -0.477001 
-0.0017117 -0.0371571 -0.457243 -0.00926428 -0.041564 -0.436703 -0.0164865 -0.045349 -0.415483 
-0.0233305 -0.0484332 -0.393707 -0.0297769 -0.0507554 -0.371499 -0.0358346 -0.0522791 -0.348975 
-0.0415364 -0.0529975 -0.326222 -0.0469339 -0.0529368 -0.30329 -0.0520905 -0.0521571 -0.280184 
-0.057072 -0.0507494 -0.256871 -0.0619389 -0.0488312 -0.233277 -0.0667369 -0.0465382 -0.209307 
-0.0714904 -0.0440153 -0.184857 -0.0761963 -0.0414054 -0.159835 -0.0808214 -0.0388398 -0.134173 
-0.0853016 -0.0364279 -0.107846 -0.0895448 -0.0342505 -0.0808788 -0.093435 -0.0323548 -0.0533508 
-0.0968403 -0.0307529 -0.0253927 -0.0996207 -0.0294242 0.00282162 -0.101638 -0.0283195 0.0310889 
-0.102764 -0.0273691 0.0591927 -0.102892 -0.0264913 0.0869208 -0.101938 -0.0256028 0.114082 
-0.0998523 -0.0246279 0.140517 -0.0966156 -0.0235066 0.166111 -0.0922439 -0.0222014 0.190794 
-0.0867836 -0.020701 0.214541 -0.0803084 -0.0190208 0.237363 -0.0729139 -0.0172015 0.259301 
-0.0647113 -0.0153048 0.280414 -0.0558211 -0.0134076 0.300766 -0.0463676 -0.0115943 0.320419 
-0.0364737 -0.00994991 0.339426 -0.026257 -0.0085527 0.357825 -0.0158275 -0.00746829 0.375644 
-0.00528579 -0.00674531 0.392905 0.00527723 -0.00641287 0.409624 0.0157801 -0.0064799 0.425822 
0.0261502 -0.00693631 0.44153 0.036323 -0.00775554 0.456791 0.0462418 -0.00889812 0.471662 
0.0558572 -0.0103157 0.486208 0.0651277 -0.0119551 0.500502 0.0740199 -0.0137623 0.514609 
0.0825095 -0.0156848 0.528583 0.0905818 -0.0176745 0.542454 0.0982319 -0.0196886 0.556221 
0.105465 -0.0216898 0.56985 0.112295 -0.0236463 0.583272 0.118743 -0.0255313 0.596388 
0.124835 -0.0273216 0.609077 0.130601 -0.028997 0.621209 0.13607 -0.0305399 0.632656 
0.141267 -0.0319347 0.64331 0.146212 -0.033168 0.653091 0.150919 -0.034229 0.661957 
0.155392 -0.0351101 0.669908 0.159627 -0.0358078 0.676987 0.163616 -0.0363231 0.683269 
0.167342 -0.0366624 0.688857 0.170789 -0.0368374 0.693863 0.173937 -0.0368654 0.6984 
0.176773 -0.0367685 0.702562 0.179285 -0.0365727 0.706416 0.181468 -0.0363072 0.709997 
0.183323 -0.0360027 0.713301 0.184857 -0.0356899 0.716294 0.186081 -0.0353981 0.718913 
0.187009 -0.0351537 0.721084 0.187654 -0.034979 0.722726 0.188028 -0.0348908 0.723774 
0.18814 -0.0348999 0.72418 
LINES 2 100
OFFSETS vtktypeint64
0 100 
CONNECTIVITY vtktypeint64
0 1 2 3 4 5 6 7 8 
9 10 11 12 13 14 15 16 17 
18 19 20 21 22 23 24 25 26 
27 28 29 30 31 32 33 34 35 
36 37 38 39 40 41 42 43 44 
45 46 47 48 49 50 51 52 53 
54 55 56 57 58 59 60 61 62 
63 64 65 66 67 68 69 70 71 
72 73 74 75 76 77 78 79 80 
81 82 83 84 85 86 87 88 89 
90 91 92 93 94 95 96 97 98 
99 
POINT_DATA 100
FIELD FieldData 3
_theta 1 100 double
0 0.031733259127 0.063466518254 0.095199777382 0.12693303651 0.15866629564 0.19039955476 0.22213281389 0.25386607302 
0.28559933214 0.31733259127 0.3490658504 0.38079910953 0.41253236865 0.44426562778 0.47599888691 0.50773214603 0.53946540516 
0.57119866429 0.60293192342 0.63466518254 0.66639844167 0.6981317008 0.72986495992 0.76159821905 0.79333147818 0.82506473731 
0.85679799643 0.88853125556 0.92026451469 0.95199777382 0.98373103294 1.0154642921 1.0471975512 1.0789308103 1.1106640695 
1.1423973286 1.1741305877 1.2058638468 1.237597106 1.2693303651 1.3010636242 1.3327968833 1.3645301425 1.3962634016 
1.4279966607 1.4597299198 1.491463179 1.5231964381 1.5549296972 1.5866629564 1.6183962155 1.6501294746 1.6818627337 
1.7135959929 1.745329252 1.7770625111 1.8087957702 1.8405290294 1.8722622885 1.9039955476 1.9357288068 1.9674620659 
1.999195325 2.0309285841 2.0626618433 2.0943951024 2.1261283615 2.1578616206 2.1895948798 2.2213281389 2.253061398 
2.2847946572 2.3165279163 2.3482611754 2.3799944345 2.4117276937 2.4434609528 2.4751942119 2.506927471 2.5386607302 
2.5703939893 2.6021272484 2.6338605076 2.6655937667 2.6973270258 2.7290602849 2.7607935441 2.7925268032 2.8242600623 
2.8559933214 2.8877265806 2.9194598397 2.9511930988 2.982926358 3.0146596171 3.0463928762 3.0781261353 3.1098593945 
3.1415926536 
_radius 1 100 double
7.0134335942e-16 0.015743929194 0.031354907448 0.04670106251 0.061663826387 0.076141825784 0.090052062462 0.10332859089 0.11591938071 
0.12778228124 0.13888098811 0.1491817395 0.15865125526 0.16725625012 0.1749647095 0.18174896464 0.18759039309 0.19248527977 
0.19645104439 0.19953175211 0.20180167705 0.20336576933 0.20435623318 0.20492504381 0.20523302269 0.20543688293 0.20567621454 
0.206062461 0.20667140542 0.20753965492 0.20866453672 0.21000628939 0.21149175242 0.21301964424 0.21446828695 0.21570667911 
0.21660899117 0.21707122679 0.21702760368 0.21646371961 0.21542397219 0.21401180262 0.2123827513 0.21073167214 0.2092764091 
0.20824043115 0.2078361259 0.20824902696 0.20962229373 0.21204131041 0.21552015327 0.21999340334 0.22531677452 0.23127796703 
0.23761626433 0.24404733257 0.25028922843 0.25608635659 0.2612291848 0.26556837816 0.26902257786 0.27157947393 0.27329026225 
0.27425810784 0.27462185212 0.27453682662 0.27415512186 0.27360780791 0.27299123352 0.27235863183 0.27171709172 0.27102898554 
0.27021657919 0.26916884059 0.26775006058 0.26581030422 0.26319761336 0.25977134422 0.25541538159 0.25004956115 0.24363760198 
0.23619015582 0.22776212039 0.21844409556 0.20834878601 0.19759423256 0.18628680139 0.17450745441 0.1623044039 0.149693562 
0.13666581188 0.12319828901 0.10926646033 0.094854670675 0.07996411832 0.064618130468 0.048864876706 0.032777516049 0.016451637709 
8.372699376e-16 
_area 1 100 double
0 0.00070509685611 0.0027927071073 0.0061839760311 0.010759791062 0.016374357141 0.022866970995 0.030069355343 0.037808585557 
0.045907265608 0.054182657902 0.062445937191 0.070502556006 0.078154824669 0.085207633659 0.091477438528 0.096803465638 0.10105931402 
0.10416333156 0.1060872219 0.10686338818 0.10659143968 0.1054426404 0.10365856201 0.10153849869 0.09941174623 0.097598110479 
0.096370845674 0.095938783712 0.096444631732 0.097932181545 0.10028435934 0.10327148732 0.10662758099 0.11007113145 0.11332095872 
0.11612415718 0.11829000622 0.11971935453 0.12041815532 0.12048792824 0.12009726216 0.11945204076 0.11878147347 0.11833514574 
0.11837237555 0.11913747035 0.12083348058 0.12361330567 0.12758788784 0.13282925949 0.13935278999 0.14708292535 0.15582072927 
0.1652327086 0.1748692912 0.18420973934 0.1927251851 0.19994944481 0.20554565492 0.20935644897 0.21142692698 0.21199224955 
0.21142514842 0.21014712916 0.20852696014 0.20680847461 0.20509396472 0.20337020693 0.20154976923 0.19951070419 0.19712686482 
0.19428522187 0.19089043513 0.18686040391 0.18211801618 0.17658432699 0.17017851311 0.16282953742 0.15450076696 0.14522138135 
0.13511154691 0.12438743865 0.11333847656 0.10227918735 0.091488054355 0.08115348372 0.071349438443 0.062053952343 0.053201614303 
0.044741950832 0.036677471639 0.02907316924 0.022044889008 0.015738662142 0.010310109966 0.0059079016862 0.0026613536244 0.0006708083913 
1.118896642e-16 
