# vtk DataFile Version 5.1
vtk output
ASCII
DATASET POLYDATA
POINTS 100 float
0.134944 0.0911568 -0.700181 0.134807 0.0910943 -0.700139 0.134444 0.090709 -0.699965 
0.133883 0.0899804 -0.69957 0.133163 0.0888761 -0.698818 0.13233 0.0873537 -0.69755 
0.131417 0.0853641 -0.695599 0.130441 0.0828553 -0.692818 0.129393 0.0797761 -0.689097 
0.128229 0.0760812 -0.684374 0.126869 0.0717355 -0.678648 0.125201 0.0667183 -0.671973 
0.123089 0.0610277 -0.664445 0.120381 0.054683 -0.656191 0.116928 0.0477265 -0.647342 
0.112601 0.0402246 -0.638014 0.107302 0.0322659 -0.628285 0.10098 0.0239594 -0.618179 
0.0936444 0.0154303 -0.607662 0.0853624 0.00681538 -0.596636 0.0762617 -0.00174286 -0.584955 
0.0665206 -0.0101021 -0.572436 0.0563541 -0.0181258 -0.558887 0.0459961 -0.0256888 -0.544129 
0.0356785 -0.0326812 -0.528022 0.0256108 -0.0390116 -0.510482 0.0159607 -0.0446087 -0.4915 
0.0068401 -0.0494217 -0.47114 -0.00170376 -0.0534192 -0.449539 -0.00969 -0.0565876 -0.426889 
-0.0171982 -0.0589284 -0.40342 -0.024356 -0.0604557 -0.37937 -0.0313202 -0.0611938 -0.354965 
-0.0382552 -0.0611751 -0.330388 -0.0453091 -0.0604388 -0.305767 -0.0525912 -0.0590304 -0.28116 
-0.0601533 -0.0570015 -0.256558 -0.0679766 -0.0544107 -0.23189 -0.0759659 -0.0513242 -0.207044 
-0.0839519 -0.0478163 -0.181883 -0.0917018 -0.0439696 -0.156276 -0.0989364 -0.039874 -0.130121 
-0.105354 -0.0356254 -0.103363 -0.110654 -0.0313229 -0.076016 -0.114566 -0.0270651 -0.0481606 
-0.116874 -0.022946 -0.0199474 -0.117433 -0.0190507 0.00841681 -0.116183 -0.0154508 0.0366869 
-0.113158 -0.0122012 0.0646025 -0.108477 -0.00933735 0.0919127 -0.102334 -0.00687425 0.118399 
-0.0949825 -0.00480707 0.143892 -0.0867122 -0.00311326 0.168289 -0.0778225 -0.00175619 0.191554 
-0.0685994 -0.00068988 0.213713 -0.0592933 0.000135683 0.23485 -0.0501024 0.000769063 0.255088 
-0.0411617 0.00125244 0.274568 -0.0325401 0.00161762 0.293436 -0.024244 0.00188345 0.311823 
-0.0162273 0.00205477 0.329831 -0.00840667 0.00212314 0.347532 -0.000679156 0.00206899 0.364961 
0.00705885 0.00186498 0.382123 0.0148945 0.0014802 0.399 0.0228844 0.000884571 0.415564 
0.0310457 5.30259e-05 0.431788 0.0393523 -0.00103104 0.447652 0.047737 -0.00237338 0.463153 
0.0560991 -0.00396783 0.478305 0.0643156 -0.00579651 0.493138 0.0722552 -0.00783134 0.50769 
0.079793 -0.0100364 0.521998 0.0868237 -0.012371 0.536089 0.0932731 -0.014793 0.549968 
0.0991042 -0.0172617 0.563613 0.10432 -0.0197404 0.57697 0.108962 -0.0221985 0.589956 
0.113101 -0.0246116 0.602464 0.116831 -0.0269621 0.614376 0.120256 -0.0292383 0.625572 
0.123477 -0.0314327 0.635947 0.126582 -0.0335408 0.645422 0.129637 -0.035559 0.653958 
0.132681 -0.0374839 0.661554 0.135726 -0.0393105 0.668255 0.138754 -0.041033 0.674142 
0.141727 -0.0426438 0.679325 0.144593 -0.0441352 0.683926 0.147293 -0.0454995 0.688066 
0.149771 -0.0467305 0.691851 0.151981 -0.0478242 0.695359 0.153891 -0.0487797 0.698631 
0.155489 -0.0495987 0.701671 0.156777 -0.0502857 0.704446 0.157772 -0.0508473 0.706895 
0.158501 -0.0512906 0.708941 0.158993 -0.0516228 0.710502 0.159274 -0.0518492 0.711508 
0.159362 -0.051973 0.711909 
LINES 2 100
OFFSETS vtktypeint64
0 100 
CONNECTIVITY vtktypeint64
0 1 2 3 4 5 6 7 8 
9 10 11 12 13 14 15 16 17 
18 19 20 21 22 23 24 25 26 
27 28 29 30 31 32 33 34 35 
36 37 38 39 40 41 42 43 44 
45 46 47 48 49 50 51 52 53 
54 55 56 57 58 59 60 61 62 
63 64 65 66 67 68 69 70 71 
72 73 74 75 76 77 78 79 80 
81 82 83 84 85 86 87 88 89 
90 91 92 93 94 95 96 97 98 
99 
POINT_DATA 100
FIELD FieldData 3
_theta 1 100 double
0 0.031733259127 0.063466518254 0.095199777382 0.12693303651 0.15866629564 0.19039955476 0.22213281389 0.25386607302 
0.28559933214 0.31733259127 0.3490658504 0.38079910953 0.41253236865 0.44426562778 0.47599888691 0.50773214603 0.53946540516 
0.57119866429 0.60293192342 0.63466518254 0.66639844167 0.6981317008 0.72986495992 0.76159821905 0.79333147818 0.82506473731 
0.85679799643 0.88853125556 0.92026451469 0.95199777382 0.98373103294 1.0154642921 1.0471975512 1.0789308103 1.1106640695 
1.1423973286 1.1741305877 1.2058638468 1.237597106 1.2693303651 1.3010636242 1.3327968833 1.3645301425 1.3962634016 
1.4279966607 1.4597299198 1.491463179 1.5231964381 1.5549296972 1.5866629564 1.6183962155 1.6501294746 1.6818627337 
1.7135959929 1.745329252 1.7770625111 1.8087957702 1.8405290294 1.8722622885 1.9039955476 1.9357288068 1.9674620659 
1.999195325 2.0309285841 2.0626618433 2.0943951024 2.1261283615 2.1578616206 2.1895948798 2.2213281389 2.253061398 
2.2847946572 2.3165279163 2.3482611754 2.3799944345 2.4117276937 2.4434609528 2.4751942119 2.506927471 2.5386607302 
2.5703939893 2.6021272484 2.6338605076 2.6655937667 2.6973270258 2.7290602849 2.7607935441 2.7925268032 2.8242600623 
2.8559933214 2.8877265806 2.9194598397 2.9511930988 2.982926358 3.0146596171 3.0463928762 3.0781261353 3.1098593945 
3.1415926536 
_radius 1 100 double
1.0565363201e-15 0.016884814809 0.033668801263 0.050246936695 0.066515141213 0.08237188431 0.097720335656 0.11247022206 0.12653832773 
0.13984688501 0.15231991941 0.163878638 0.17443773233 0.18390461978 0.19218305608 0.19918142174 0.20482471225 0.2090682344 
0.2119104944 0.21340287668 0.2136544111 0.21283096841 0.21114918555 0.20886589174 0.20626368286 0.2036329178 0.20125035364 
0.19935531795 0.1981257514 0.19765812331 0.19795610552 0.19893194661 0.20042155004 0.20221050202 0.20406555635 0.20576548899 
0.20712658323 0.20802033864 0.20838323795 0.20821957015 0.20759827239 0.20664488968 0.20553108117 0.20446487859 0.2036826044 
0.20343916049 0.20399147953 0.20557242306 0.2083577249 0.21243354684 0.21777397482 0.22423517935 0.23156755757 0.23944220363 
0.24748573337 0.25531767643 0.26258592409 0.26899698391 0.27433874026 0.27849418444 0.28144532421 0.28326727601 0.28411336698 
0.28419288418 0.28374385333 0.28300384929 0.28218222993 0.28143717903 0.28086035717 0.28047072277 0.28021740552 0.27998991742 
0.27963307985 0.27896409179 0.27778987176 0.27592356678 0.27319950636 0.26948587002 0.26469419775 0.25878486673 0.25176788668 
0.2436987867 0.23466988068 0.22479772694 0.21420810193 0.20302027487 0.19133277064 0.17921301682 0.16669301041 0.15377208803 
0.14042608004 0.12662031255 0.1123231234 0.097517136918 0.082206879651 0.066422541472 0.050220374588 0.033680443801 0.016902419135 
2.0908296693e-16 
_area 1 100 double
0 0.00069027717706 0.0027582310146 0.0061893554468 0.01094334086 0.016939444235 0.024048503782 0.032094268554 0.040861987279 
0.050109703994 0.059578192877 0.068998096901 0.078095677974 0.086599688484 0.094250742811 0.10081264614 0.10608446877 0.10991326884 
0.11220823786 0.11295516432 0.1122270404 0.11018761256 0.10709344116 0.10332086427 0.09933143635 0.095310788191 0.091447657829 
0.088046752126 0.085433898234 0.083893326459 0.083609430265 0.084654680374 0.086922156314 0.090015829913 0.093592725688 0.097339752461 
0.10101794043 0.10451279343 0.10783305913 0.11097229782 0.11377997322 0.1160653047 0.11774318113 0.11888744864 0.11972467624 
0.12068524165 0.12220137632 0.12451910095 0.12793670754 0.13283170185 0.13951380123 0.14809253539 0.15840374907 0.17001813983 
0.18230867747 0.19453932552 0.20595770097 0.21588663444 0.22380688048 0.2294201822 0.23268773939 0.23386471311 0.23361001875 
0.23260280262 0.23092485234 0.2287492081 0.22635194448 0.2240010554 0.22189226403 0.22011018375 0.21861252317 0.21723792115 
0.21573195925 0.21378222351 0.21105553064 0.20723490457 0.2020561825 0.19534278295 0.18703386084 0.17719941444 0.16603781603 
0.15385506871 0.14102842013 0.12795919942 0.11502164038 0.10251646607 0.090639216739 0.079471654111 0.068998997981 0.059148119868 
0.049835512084 0.041011211403 0.032687199131 0.024945508036 0.017928477743 0.011817508711 0.0068069476531 0.0030782405271 0.00077772709471 
5.9518152335e-17 
