# vtk DataFile Version 5.1
vtk output
ASCII
DATASET POLYDATA
POINTS 100 float
0.150026 0.0398289 -0.615536 0.150146 0.0398991 -0.615961 0.1505 0.0399394 -0.617217 
0.151047 0.0399367 -0.619126 0.151716 0.0398692 -0.621414 0.152419 0.0397078 -0.623738 
0.15305 0.0394169 -0.625716 0.153496 0.0389565 -0.626973 0.15364 0.0382841 -0.627167 
0.153371 0.0373571 -0.626028 0.152584 0.0361351 -0.623378 0.15119 0.0345824 -0.619142 
0.149116 0.0326704 -0.613348 0.146303 0.030379 -0.606117 0.142712 0.0276982 -0.597643 
0.138318 0.0246288 -0.588164 0.133114 0.0211818 -0.577932 0.127105 0.0173785 -0.567182 
0.120309 0.0132485 -0.556108 0.112757 0.00882866 -0.544839 0.104491 0.00416092 -0.533431 
0.0955631 -0.000708954 -0.521867 0.0860381 -0.00573284 -0.51006 0.0759907 -0.0108611 -0.497874 
0.0655054 -0.0160425 -0.485144 0.0546752 -0.0212245 -0.471699 0.0435987 -0.0263517 -0.457384 
0.0323776 -0.0313656 -0.442085 0.0211124 -0.0362034 -0.425736 0.00989889 -0.0407977 -0.408331 
-0.00117583 -0.045077 -0.389923 -0.0120363 -0.0489668 -0.37061 -0.0226207 -0.0523919 -0.350528 
-0.0328814 -0.0552804 -0.329828 -0.0427835 -0.0575672 -0.308659 -0.0523019 -0.0591992 -0.287149 
-0.061417 -0.0601396 -0.265395 -0.0701092 -0.0603723 -0.243449 -0.0783531 -0.0599045 -0.221324 
-0.0861123 -0.0587685 -0.198992 -0.0933352 -0.0570204 -0.1764 -0.0999526 -0.0547383 -0.153481 
-0.105878 -0.0520166 -0.130175 -0.111012 -0.0489609 -0.106442 -0.115244 -0.0456798 -0.08228 
-0.118465 -0.0422777 -0.0577296 -0.120571 -0.0388473 -0.0328822 -0.121481 -0.035464 -0.00787458 
-0.121138 -0.0321814 0.0171188 -0.119524 -0.0290303 0.0419002 -0.116661 -0.026019 0.0662653 
-0.112617 -0.023137 0.0900221 -0.107503 -0.0203608 0.113008 -0.101467 -0.0176607 0.135103 
-0.094689 -0.0150085 0.156242 -0.0873651 -0.0123849 0.176416 -0.0796991 -0.00978534 0.19567 
-0.0718862 -0.00722419 0.214096 -0.0641019 -0.00473606 0.231819 -0.0564904 -0.00237431 0.248983 
-0.0491572 -0.00020688 0.265731 -0.0421651 0.00169029 0.282196 -0.0355343 0.00324132 0.29848 
-0.0292458 0.0043791 0.314649 -0.0232491 0.00505365 0.330733 -0.0174718 0.00523894 0.34672 
-0.011831 0.00493749 0.36257 -0.00624516 0.00418209 0.378217 -0.000644461 0.0030343 0.393589 
0.00502019 0.0015799 0.408616 0.0107712 -7.81796e-05 0.42324 0.0166018 -0.00182894 0.437426 
0.0224766 -0.00356312 0.451168 0.0283353 -0.00518288 0.464485 0.0341 -0.00661024 0.477417 
0.0396827 -0.00779339 0.490021 0.044995 -0.00871022 0.502354 0.0499574 -0.0093688 0.514466 
0.0545065 -0.00980484 0.526384 0.0586019 -0.0100764 0.538104 0.062229 -0.0102568 0.549586 
0.0654004 -0.0104262 0.560747 0.0681535 -0.0106629 0.571471 0.0705466 -0.0110357 0.58161 
0.0726523 -0.0115976 0.591001 0.07455 -0.0123814 0.599477 0.0763183 -0.0133974 0.606888 
0.078027 -0.0146346 0.613113 0.0797311 -0.0160623 0.618078 0.0814657 -0.0176344 0.621764 
0.0832434 -0.0192945 0.624215 0.0850535 -0.0209809 0.625539 0.0868642 -0.0226315 0.625898 
0.0886258 -0.0241879 0.625502 0.0902761 -0.0255985 0.624591 0.0917467 -0.0268202 0.623417 
0.0929701 -0.0278188 0.622222 0.0938856 -0.0285691 0.62122 0.0944455 -0.0290538 0.620576 
0.0946196 -0.0292631 0.620395 
LINES 2 100
OFFSETS vtktypeint64
0 100 
CONNECTIVITY vtktypeint64
0 1 2 3 4 5 6 7 8 
9 10 11 12 13 14 15 16 17 
18 19 20 21 22 23 24 25 26 
27 28 29 30 31 32 33 34 35 
36 37 38 39 40 41 42 43 44 
45 46 47 48 49 50 51 52 53 
54 55 56 57 58 59 60 61 62 
63 64 65 66 67 68 69 70 71 
72 73 74 75 76 77 78 79 80 
81 82 83 84 85 86 87 88 89 
90 91 92 93 94 95 96 97 98 
99 
POINT_DATA 100
FIELD FieldData 3
_theta 1 100 double
0 0.031733259127 0.063466518254 0.095199777382 0.12693303651 0.15866629564 0.19039955476 0.22213281389 0.25386607302 
0.28559933214 0.31733259127 0.3490658504 0.38079910953 0.41253236865 0.44426562778 0.47599888691 0.50773214603 0.53946540516 
0.57119866429 0.60293192342 0.63466518254 0.66639844167 0.6981317008 0.72986495992 0.76159821905 0.79333147818 0.82506473731 
0.85679799643 0.88853125556 0.92026451469 0.95199777382 0.98373103294 1.0154642921 1.0471975512 1.0789308103 1.1106640695 
1.1423973286 1.1741305877 1.2058638468 1.237597106 1.2693303651 1.3010636242 1.3327968833 1.3645301425 1.3962634016 
1.4279966607 1.4597299198 1.491463179 1.5231964381 1.5549296972 1.5866629564 1.6183962155 1.6501294746 1.6818627337 
1.7135959929 1.745329252 1.7770625111 1.8087957702 1.8405290294 1.8722622885 1.9039955476 1.9357288068 1.9674620659 
1.999195325 2.0309285841 2.0626618433 2.0943951024 2.1261283615 2.1578616206 2.1895948798 2.2213281389 2.253061398 
2.2847946572 2.3165279163 2.3482611754 2.3799944345 2.4117276937 2.4434609528 2.4751942119 2.506927471 2.5386607302 
2.5703939893 2.6021272484 2.6338605076 2.6655937667 2.6973270258 2.7290602849 2.7607935441 2.7925268032 2.8242600623 
2.8559933214 2.8877265806 2.9194598397 2.9511930988 2.982926358 3.0146596171 3.0463928762 3.0781261353 3.1098593945 
3.1415926536 
_radius 1 100 double
4.454424009e-16 0.015578651015 0.031028418626 0.046216749337 0.061013332687 0.075293685914 0.088944213668 0.10186786248 0.1139890951 
0.1252569231 0.13564511258 0.14514928793 0.1537813618 0.1615623694 0.16851521428 0.17465888659 0.18000533588 0.18455948361 
0.18832209766 0.19129468393 0.19348531674 0.19491439355 0.1956195074 0.19565881437 0.19511236583 0.19408093985 0.19268208231 
0.191043453 0.18929412438 0.18755501551 0.18592991679 0.18449842948 0.18331168952 0.18239124032 0.181731101 0.18130292285 
0.1810638889 0.18096653663 0.18096914787 0.18104502858 0.18118894384 0.18141921157 0.18177478603 0.18230812451 0.1830760486 
0.18413141031 0.18551796156 0.18726947953 0.1894121638 0.19196746666 0.19495203816 0.19837287717 0.202218461 0.20644912862 
0.21099084613 0.21573525417 0.22054654081 0.22527361921 0.22976504396 0.23388394933 0.23752064244 0.24060108943 0.24309030888 
0.24499056391 0.24633507476 0.24717856886 0.24758622824 0.24762251696 0.24734113644 0.24677712532 0.2459419323 0.24482204782 
0.2433813536 0.24156673007 0.23931582467 0.23656548807 0.233259394 0.22935374199 0.22482051859 0.21964835519 0.21384141979 
0.20741695274 0.2004020087 0.19282976009 0.18473545919 0.17615198621 0.16710495974 0.15760770028 0.1476568313 0.13722975667 
0.12628540434 0.11476927651 0.1026229752 0.089797192955 0.076266060128 0.062040118344 0.047175253253 0.03177562308 0.015989729015 
8.1646067168e-16 
_area 1 100 double
0 0.00057158602562 0.0022859115016 0.0051360896327 0.0090941408379 0.014093131946 0.020013580631 0.02668012371 0.033870645321 
0.041336000047 0.048825561395 0.05611240518 0.063011988231 0.069389938077 0.075158158027 0.08026273971 0.084669543262 0.088352188462 
0.091284442216 0.093437459117 0.094782247744 0.095297417478 0.094981037115 0.093864085593 0.092022200136 0.089582358036 0.086721849472 
0.083658313415 0.080631294169 0.077877072101 0.075598312874 0.073932463539 0.072932688149 0.072584649392 0.072844726999 0.073662077475 
0.074981189374 0.076738355595 0.078864088003 0.081284147146 0.083892587213 0.086539661822 0.089102042345 0.091505751918 0.093718881423 
0.095746662598 0.097636094856 0.099479946837 0.10141474047 0.10363108952 0.10637293175 0.10987230558 0.11424685853 0.11946549621 
0.12538970721 0.13181474079 0.13848905421 0.14512714718 0.15142743371 0.15709874478 0.16189225683 0.16563060197 0.16822596745 
0.1696838192 0.17009424711 0.16961580724 0.16845488818 0.16683203094 0.1649195737 0.16279789088 0.16048931823 0.15799485527 
0.15529430284 0.1523385101 0.14904924667 0.14532802026 0.14107148001 0.13619030029 0.13062774207 0.12437355795 0.11746990534 
0.11000842544 0.1021198746 0.093958472781 0.085683075484 0.077437730171 0.069335500456 0.061450242933 0.053819266054 0.046455594926 
0.039365150817 0.032564066978 0.026093223277 0.020028235666 0.014483091965 0.0096056586983 0.0055644206452 0.002527925123 0.00064059997102 
3.2530380367e-17 
