# vtk DataFile Version 5.1
vtk output
ASCII
DATASET POLYDATA
POINTS 100 float
0.207861 0.0972881 -0.602058 0.207813 0.0972528 -0.60223 0.207656 0.0969361 -0.602663 
0.207337 0.0963072 -0.603253 0.206779 0.0953192 -0.603841 0.205881 0.0939147 -0.60423 
0.204535 0.0920322 -0.604209 0.202633 0.0896129 -0.603569 0.200078 0.0866074 -0.602133 
0.196792 0.082981 -0.599767 0.192721 0.0787176 -0.596391 0.187841 0.0738219 -0.591987 
0.182152 0.0683182 -0.586592 0.175681 0.0622496 -0.580289 0.168473 0.0556737 -0.57319 
0.160588 0.0486587 -0.565422 0.152095 0.0412789 -0.557102 0.143065 0.0336113 -0.548326 
0.133569 0.0257323 -0.539153 0.123676 0.0177163 -0.529602 0.113455 0.00963615 -0.519645 
0.102972 0.00156364 -0.509218 0.0922947 -0.00642787 -0.49823 0.081492 -0.0142614 -0.486574 
0.0706357 -0.0218543 -0.474147 0.059799 -0.0291171 -0.460861 0.0490533 -0.035954 -0.446655 
0.0384641 -0.0422648 -0.431502 0.0280853 -0.0479487 -0.41541 0.0179536 -0.0529095 -0.398421 
0.00808411 -0.0570617 -0.380603 -0.00153316 -0.0603372 -0.362034 -0.0109326 -0.0626906 -0.342796 
-0.0201695 -0.0641047 -0.32296 -0.0293128 -0.0645922 -0.302578 -0.0384343 -0.0641968 -0.281676 
-0.0475955 -0.0629902 -0.260257 -0.056834 -0.0610677 -0.238303 -0.0661503 -0.0585411 -0.215787 
-0.0754972 -0.0555308 -0.19268 -0.0847739 -0.052157 -0.168973 -0.0938254 -0.0485321 -0.144682 
-0.102448 -0.0447536 -0.119862 -0.110402 -0.0408999 -0.0946118 -0.117429 -0.0370285 -0.0690757 
-0.123271 -0.0331768 -0.0434377 -0.127697 -0.0293656 -0.0179107 -0.130522 -0.0256042 0.00727787 
-0.131626 -0.0218979 0.0319032 -0.13097 -0.0182539 0.0557615 -0.128597 -0.0146883 0.0786857 
-0.124635 -0.0112304 0.100558 -0.119284 -0.00792511 0.12132 -0.112798 -0.00483246 0.140971 
-0.105465 -0.00202454 0.159567 -0.0975819 0.00042025 0.17721 -0.0894259 0.00242463 0.194038 
-0.0812354 0.00392101 0.210204 -0.073192 0.00485996 0.225866 -0.0654101 0.00521764 0.241167 
-0.0579355 0.00500127 0.256227 -0.0507508 0.00425185 0.271134 -0.0437892 0.00304378 0.285942 
-0.0369524 0.0014813 0.30067 -0.0301317 -0.000308064 0.31531 -0.0232296 -0.00218229 0.329835 
-0.0161777 -0.00399516 0.344207 -0.00895136 -0.00560699 0.358387 -0.00157631 -0.00689484 0.372341 
0.00587077 -0.00776107 0.386048 0.0132693 -0.00813971 0.399501 0.0204676 -0.00799986 0.412703 
0.0272997 -0.00734608 0.425668 0.0336047 -0.00621583 0.438413 0.0392446 -0.0046743 0.450951 
0.04412 -0.00280729 0.463289 0.048181 -0.000712929 0.475419 0.0514319 0.00150689 0.48732 
0.0539301 0.00375468 0.498956 0.0557782 0.0059442 0.51028 0.0571123 0.0080057 0.521238 
0.0580865 0.00988902 0.531775 0.0588568 0.0115646 0.541844 0.0595655 0.0130225 0.551405 
0.0603289 0.0142698 0.560436 0.0612284 0.0153267 0.568928 0.0623069 0.016222 0.576887 
0.0635697 0.0169884 0.584332 0.0649901 0.017658 0.591282 0.0665173 0.0182589 0.597761 
0.0680865 0.0188122 0.603782 0.0696293 0.0193312 0.609346 0.0710821 0.0198201 0.614439 
0.0723927 0.0202756 0.619028 0.0735239 0.020688 0.623069 0.0744535 0.0210435 0.626505 
0.0751723 0.0213267 0.629275 0.0756803 0.0215227 0.631321 0.0759813 0.0216199 0.632596 
0.0760793 0.0216109 0.633067 
LINES 2 100
OFFSETS vtktypeint64
0 100 
CONNECTIVITY vtktypeint64
0 1 2 3 4 5 6 7 8 
9 10 11 12 13 14 15 16 17 
18 19 20 21 22 23 24 25 26 
27 28 29 30 31 32 33 34 35 
36 37 38 39 40 41 42 43 44 
45 46 47 48 49 50 51 52 53 
54 55 56 57 58 59 60 61 62 
63 64 65 66 67 68 69 70 71 
72 73 74 75 76 77 78 79 80 
81 82 83 84 85 86 87 88 89 
90 91 92 93 94 95 96 97 98 
99 
POINT_DATA 100
FIELD FieldData 3
_theta 1 100 double
0 0.031733259127 0.063466518254 0.095199777382 0.12693303651 0.15866629564 0.19039955476 0.22213281389 0.25386607302 
0.28559933214 0.31733259127 0.3490658504 0.38079910953 0.41253236865 0.44426562778 0.47599888691 0.50773214603 0.53946540516 
0.57119866429 0.60293192342 0.63466518254 0.66639844167 0.6981317008 0.72986495992 0.76159821905 0.79333147818 0.82506473731 
0.85679799643 0.88853125556 0.92026451469 0.95199777382 0.98373103294 1.0154642921 1.0471975512 1.0789308103 1.1106640695 
1.1423973286 1.1741305877 1.2058638468 1.237597106 1.2693303651 1.3010636242 1.3327968833 1.3645301425 1.3962634016 
1.4279966607 1.4597299198 1.491463179 1.5231964381 1.5549296972 1.5866629564 1.6183962155 1.6501294746 1.6818627337 
1.7135959929 1.745329252 1.7770625111 1.8087957702 1.8405290294 1.8722622885 1.9039955476 1.9357288068 1.9674620659 
1.999195325 2.0309285841 2.0626618433 2.0943951024 2.1261283615 2.1578616206 2.1895948798 2.2213281389 2.253061398 
2.2847946572 2.3165279163 2.3482611754 2.3799944345 2.4117276937 2.4434609528 2.4751942119 2.506927471 2.5386607302 
2.5703939893 2.6021272484 2.6338605076 2.6655937667 2.6973270258 2.7290602849 2.7607935441 2.7925268032 2.8242600623 
2.8559933214 2.8877265806 2.9194598397 2.9511930988 2.982926358 3.0146596171 3.0463928762 3.0781261353 3.1098593945 
3.1415926536 
_radius 1 100 double
8.5728342267e-16 0.014233813617 0.028300241435 0.042034708564 0.055284960287 0.067916334416 0.079816023649 0.090896151045 0.1010955587 
0.1103802268 0.11874220043 0.12619687708 0.13277861254 0.13853491165 0.14351993152 0.14778843509 0.15139143297 0.15437440944 
0.15677834904 0.1586430281 0.16001145547 0.1609340716 0.16147138811 0.16169416094 0.16168084343 0.1615127735 0.16126807707 
0.1610154609 0.16080892517 0.16068410742 0.16065666099 0.16072283324 0.16086211286 0.16104129539 0.1612188166 0.16134874188 
0.16138595247 0.16129538246 0.16106526303 0.16071960583 0.16032410813 0.15998269424 0.15982586446 0.15999486058 0.16062654252 
0.16184255162 0.16374350443 0.16640600562 0.16987856936 0.17417326529 0.17925348814 0.18502292426 0.19132265621 0.19794017878 
0.20462860387 0.21113102085 0.21720505813 0.2226442825 0.22729444257 0.23106335608 0.23392380165 0.23590941818 0.23710439285 
0.23762849554 0.23761958016 0.23721584825 0.2365399176 0.23568618189 0.23471232005 0.23363535885 0.23243247842 0.23104652816 
0.22939565751 0.22738559271 0.22492238361 0.22192338699 0.21832491708 0.2140860412 0.20918895471 0.20363691528 0.19745079553 
0.19066507493 0.18332374087 0.17547624799 0.16717347038 0.15846353948 0.14938763562 0.13997613037 0.13024575736 0.12019851864 
0.1098228034 0.099096870486 0.087994547218 0.076492677795 0.064579436498 0.05226218372 0.039573319194 0.026572771073 0.013346348953 
7.7078208515e-16 
_area 1 100 double
0 0.00056874263093 0.0022514398318 0.0049787743812 0.0086390655369 0.013083029888 0.018129459182 0.023572308578 0.029190419728 
0.034760921281 0.040076048879 0.044961303634 0.049291440416 0.053000330323 0.056081409911 0.0585771248 0.060558507105 0.06210002245 
0.063258939997 0.064068000355 0.06454218315 0.064692143571 0.064536759995 0.064112453015 0.063481218257 0.062740955929 0.062116577254 
0.061603559582 0.06118966666 0.060925396443 0.060868082549 0.061008110236 0.061357818985 0.061913209544 0.062657257508 0.06356213184 
0.064588036008 0.065687447787 0.066813928119 0.067936234109 0.069055160416 0.070210811129 0.071474670377 0.072925057792 0.07461211658 
0.076541948642 0.078712468929 0.081185378147 0.084137739163 0.087829610814 0.092485668383 0.09820316639 0.10491870624 0.11241163345 
0.12033752336 0.12827296121 0.13576253182 0.14236944558 0.14772829459 0.15159139386 0.15385817126 0.15458050561 0.15394396836 
0.15223316149 0.14979294792 0.1469852977 0.14410961687 0.14132903829 0.13871558986 0.13629404485 0.13403174585 0.13182754107 
0.12952069197 0.12692250127 0.12386173088 0.1202235179 0.11596471167 0.11110456953 0.10570203697 0.099833759844 0.093582684666 
0.087037959205 0.080298769419 0.073473696236 0.066672095946 0.059990127076 0.053498134772 0.047235951865 0.04121795006 0.03544450173 
0.029915261774 0.024641363265 0.019654953267 0.015014661784 0.010805715192 0.0071342116024 0.0041163157975 0.0018642355152 0.00047147873622 
5.2282206626e-17 
