# vtk DataFile Version 5.1
vtk output
ASCII
DATASET POLYDATA
POINTS 100 float
0.124343 0.11739 -0.712769 0.124521 0.117334 -0.712428 0.125036 0.116945 -0.711382 
0.125837 0.116197 -0.709631 0.12685 0.115051 -0.707175 0.127977 0.113461 -0.704018 
0.129111 0.111372 -0.70017 0.130138 0.108735 -0.695646 0.130952 0.105503 -0.690469 
0.131457 0.101643 -0.684669 0.131572 0.0971374 -0.678284 0.131239 0.0919884 -0.671353 
0.130415 0.0862207 -0.663915 0.129073 0.0798811 -0.656006 0.1272 0.0730377 -0.647654 
0.124789 0.0657764 -0.638871 0.121834 0.0581966 -0.629655 0.118332 0.0504055 -0.619987 
0.114273 0.0425118 -0.609827 0.109646 0.0346195 -0.599121 0.104441 0.0268219 -0.587802 
0.0986484 0.0191975 -0.575794 0.0922682 0.0118068 -0.563021 0.0853128 0.00469153 -0.549412 
0.077812 -0.00212467 -0.534908 0.0698157 -0.008633 -0.519465 0.0613945 -0.0148352 -0.503063 
0.0526377 -0.0207382 -0.485704 0.0436489 -0.0263482 -0.467412 0.0345397 -0.0316653 -0.448232 
0.0254215 -0.0366791 -0.428227 0.0163975 -0.0413664 -0.407468 0.00755521 -0.0456899 -0.386034 
-0.00103981 -0.0496001 -0.364001 -0.00934681 -0.0530388 -0.341439 -0.0173501 -0.0559446 -0.318406 
-0.0250562 -0.0582586 -0.294947 -0.0324874 -0.0599318 -0.271091 -0.0396737 -0.060931 -0.246855 
-0.0466434 -0.0612439 -0.222245 -0.053413 -0.0608821 -0.19726 -0.0599796 -0.0598821 -0.171898 
-0.0663145 -0.0583037 -0.146163 -0.0723603 -0.0562261 -0.120065 -0.0780324 -0.0537424 -0.0936314 
-0.0832229 -0.0509523 -0.0669037 -0.0878094 -0.0479554 -0.0399437 -0.091664 -0.0448441 -0.0128314 
-0.0946657 -0.0416981 0.0143357 -0.0967112 -0.0385811 0.0414453 -0.0977248 -0.0355389 0.0683746 
-0.0976651 -0.0326011 0.0949944 -0.0965297 -0.0297837 0.121175 -0.0943542 -0.0270938 0.146791 
-0.0912089 -0.0245353 0.171726 -0.0871918 -0.0221142 0.19588 -0.0824193 -0.0198434 0.219171 
-0.0770156 -0.0177455 0.24154 -0.0711028 -0.0158544 0.262954 -0.0647919 -0.0142133 0.283408 
-0.0581764 -0.0128713 0.302923 -0.0513291 -0.0118788 0.32155 -0.0443015 -0.01128 0.339367 
-0.0371275 -0.0111074 0.356471 -0.0298288 -0.011375 0.372981 -0.0224217 -0.0120746 0.389026 
-0.0149256 -0.0131734 0.404738 -0.00736952 -0.0146147 0.420251 0.000202065 -0.0163215 0.435682 
0.00772647 -0.0182017 0.451133 0.0151227 -0.0201568 0.466676 0.0222943 -0.0220896 0.482352 
0.0291354 -0.0239134 0.498164 0.0355382 -0.0255596 0.514079 0.0414018 -0.0269833 0.530026 
0.0466415 -0.0281665 0.545901 0.0511963 -0.0291178 0.561575 0.0550354 -0.0298701 0.576901 
0.0581614 -0.0304744 0.591725 0.0606106 -0.030993 0.605896 0.0624506 -0.0314904 0.619275 
0.063775 -0.0320258 0.631748 0.0646956 -0.0326451 0.643229 0.0653335 -0.0333763 0.653665 
0.0658101 -0.034226 0.663039 0.0662375 -0.0351802 0.671368 0.0667112 -0.0362068 0.678697 
0.0673039 -0.0372606 0.685097 0.0680618 -0.0382898 0.690652 0.0690034 -0.0392433 0.695454 
0.07012 -0.0400777 0.699593 0.0713794 -0.040762 0.703155 0.0727297 -0.0412821 0.70621 
0.0741053 -0.0416409 0.708813 0.0754333 -0.0418574 0.711003 0.0766393 -0.0419631 0.712806 
0.0776534 -0.0419964 0.71423 0.0784158 -0.0419966 0.71528 0.0788804 -0.0419975 0.715953 
0.0790185 -0.0420227 0.716243 
LINES 2 100
OFFSETS vtktypeint64
0 100 
CONNECTIVITY vtktypeint64
0 1 2 3 4 5 6 7 8 
9 10 11 12 13 14 15 16 17 
18 19 20 21 22 23 24 25 26 
27 28 29 30 31 32 33 34 35 
36 37 38 39 40 41 42 43 44 
45 46 47 48 49 50 51 52 53 
54 55 56 57 58 59 60 61 62 
63 64 65 66 67 68 69 70 71 
72 73 74 75 76 77 78 79 80 
81 82 83 84 85 86 87 88 89 
90 91 92 93 94 95 96 97 98 
99 
POINT_DATA 100
FIELD FieldData 3
_theta 1 100 double
0 0.031733259127 0.063466518254 0.095199777382 0.12693303651 0.15866629564 0.19039955476 0.22213281389 0.25386607302 
0.28559933214 0.31733259127 0.3490658504 0.38079910953 0.41253236865 0.44426562778 0.47599888691 0.50773214603 0.53946540516 
0.57119866429 0.60293192342 0.63466518254 0.66639844167 0.6981317008 0.72986495992 0.76159821905 0.79333147818 0.82506473731 
0.85679799643 0.88853125556 0.92026451469 0.95199777382 0.98373103294 1.0154642921 1.0471975512 1.0789308103 1.1106640695 
1.1423973286 1.1741305877 1.2058638468 1.237597106 1.2693303651 1.3010636242 1.3327968833 1.3645301425 1.3962634016 
1.4279966607 1.4597299198 1.491463179 1.5231964381 1.5549296972 1.5866629564 1.6183962155 1.6501294746 1.6818627337 
1.7135959929 1.745329252 1.7770625111 1.8087957702 1.8405290294 1.8722622885 1.9039955476 1.9357288068 1.9674620659 
1.999195325 2.0309285841 2.0626618433 2.0943951024 2.1261283615 2.1578616206 2.1895948798 2.2213281389 2.253061398 
2.2847946572 2.3165279163 2.3482611754 2.3799944345 2.4117276937 2.4434609528 2.4751942119 2.506927471 2.5386607302 
2.5703939893 2.6021272484 2.6338605076 2.6655937667 2.6973270258 2.7290602849 2.7607935441 2.7925268032 2.8242600623 
2.8559933214 2.8877265806 2.9194598397 2.9511930988 2.982926358 3.0146596171 3.0463928762 3.0781261353 3.1098593945 
3.1415926536 
_radius 1 100 double
1.3947004136e-16 0.013502896166 0.026942333123 0.040254808338 0.053385304391 0.066287016666 0.078917318331 0.091231129531 0.10317375938 
0.11467547936 0.12564956484 0.1359945658 0.14560051142 0.15435793755 0.16216821302 0.16895362081 0.17466590283 0.17929235297 
0.18285892233 0.18543012001 0.18710573924 0.18801463768 0.18830598948 0.18813864515 0.18766950412 0.18704210976 0.18637693684 
0.18576489333 0.18526519688 0.18490790372 0.1847001424 0.18463403199 0.18469391782 0.18486118199 0.18511616364 0.18543794065 
0.18580330694 0.18618619227 0.18655833705 0.18689152061 0.18716115933 0.18735071801 0.18745619571 0.18748997616 0.18748350285 
0.18748842383 0.18757595572 0.18783425853 0.18836370515 0.18927014284 0.19065649872 0.1926132297 0.19520815096 0.19847628548 
0.20241071239 0.20695579994 0.21200429925 0.21739932788 0.22294149965 0.22840076432 0.23353208603 0.2380937916 0.2418670992 
0.2446750029 0.2463984826 0.24698807217 0.24646919878 0.2449403519 0.24256394985 0.23955063893 0.23613859226 0.23257006424 
0.22906783321 0.22581401439 0.22293298218 0.22047915345 0.21842981218 0.21668334798 0.21506382425 0.21333290357 0.21120941744 
0.20839544614 0.20460619878 0.19959983486 0.19320303727 0.18532869081 0.17598322447 0.16526274112 0.15333873523 0.14043576561 
0.12680466091 0.11269541931 0.098333724422 0.083903930059 0.069539747872 0.055322229152 0.041283501191 0.027414333597 0.013673825282 
3.188255904e-16 
_area 1 100 double
0 0.0005368658069 0.0021344466416 0.0047541863329 0.0083330550591 0.012784469152 0.017998977184 0.023845509301 0.030174152657 
0.036820650732 0.043611800769 0.050370487262 0.056919589177 0.063085109365 0.068699859791 0.073609227792 0.077679757118 0.080809882693 
0.082940859603 0.084065347825 0.084231491083 0.083541428818 0.082144474724 0.080226183933 0.077995051792 0.075668877997 0.07346306203 
0.071581313337 0.070194703212 0.069377108237 0.069080535261 0.069237076012 0.069837671368 0.070944257541 0.072603976426 0.074747299854 
0.077262147101 0.080017045639 0.082859929103 0.085631233911 0.088183982242 0.090403342341 0.092220975343 0.093621748628 0.094642670765 
0.095365961965 0.095909123356 0.096414510502 0.097039828431 0.097948976094 0.099300204575 0.10123157632 0.10385183124 0.10723615889 
0.11141638903 0.11636714372 0.12199735201 0.12815296674 0.13462997083 0.14118983264 0.14756470613 0.15344658802 0.15848136524 
0.16230070989 0.16458869765 0.16514946606 0.16395184936 0.1611417606 0.15701752102 0.15197225048 0.1464275169 0.14078401132 
0.13538947231 0.13051416962 0.12633197281 0.12290661192 0.12018070949 0.11797096105 0.11598413006 0.11386489508 0.11126168164 
0.10788292515 0.10353080011 0.098115896241 0.091658394439 0.084277598499 0.076170464414 0.067581934927 0.058773261172 0.049995996307 
0.041476819069 0.033412898481 0.02597309739 0.019299842151 0.013509171563 0.0086895616479 0.0049017404364 0.0021814692154 0.00054563757935 
4.0273411895e-17 
