# vtk DataFile Version 5.1
vtk output
ASCII
DATASET POLYDATA
POINTS 100 float
0.134783 0.0701473 -0.73297 0.134763 0.0702605 -0.733012 0.13472 0.0704331 -0.733105 
0.134652 0.0706132 -0.733163 0.13455 0.0707218 -0.733053 0.134407 0.0706616 -0.732603 
0.134212 0.0703293 -0.731626 0.133956 0.0696273 -0.729929 0.133626 0.0684749 -0.727332 
0.133206 0.0668177 -0.723684 0.132674 0.0646326 -0.718874 0.131998 0.0619301 -0.712833 
0.131134 0.0587512 -0.705541 0.13002 0.0551618 -0.69702 0.128579 0.0512432 -0.687329 
0.126715 0.047082 -0.676553 0.124321 0.0427593 -0.66479 0.121281 0.0383411 -0.652142 
0.117483 0.033872 -0.638704 0.112827 0.0293715 -0.624553 0.107236 0.0248347 -0.609748 
0.100671 0.0202362 -0.594324 0.0931341 0.0155382 -0.578299 0.0846771 0.0106997 -0.561671 
0.0754006 0.00568709 -0.54443 0.0654501 0.000484259 -0.526564 0.0550057 -0.00489935 -0.508061 
0.0442679 -0.0104236 -0.488916 0.0334412 -0.0160163 -0.469134 0.0227153 -0.0215756 -0.448731 
0.0122487 -0.0269764 -0.427728 0.00215452 -0.0320795 -0.406151 -0.00750784 -0.036743 -0.384028 
-0.0167348 -0.0408339 -0.361378 -0.0255737 -0.0442393 -0.338216 -0.0341106 -0.0468759 -0.314544 
-0.0424532 -0.0486959 -0.290355 -0.0507097 -0.0496896 -0.265635 -0.058966 -0.049885 -0.240367 
-0.0672658 -0.0493425 -0.214538 -0.0755938 -0.0481483 -0.188149 -0.0838667 -0.0464051 -0.161217 
-0.0919313 -0.0442223 -0.133784 -0.0995724 -0.0417072 -0.105921 -0.106529 -0.0389567 -0.077729 
-0.112514 -0.0360524 -0.0493354 -0.117248 -0.0330578 -0.0208898 -0.120479 -0.0300183 0.00744401 
-0.122015 -0.0269641 0.0354978 -0.121743 -0.0239145 0.0631098 -0.119641 -0.0208837 0.0901348 
-0.115787 -0.0178863 0.116453 -0.110347 -0.0149429 0.141977 -0.103565 -0.0120836 0.166654 
-0.0957361 -0.00934994 0.190466 -0.0871813 -0.00679434 0.21343 -0.078215 -0.00447815 0.235585 
-0.0691174 -0.0024674 0.256992 -0.0601103 -0.000827757 0.277719 -0.0513409 0.000381181 0.297834 
-0.0428739 0.00111126 0.3174 -0.0346948 0.00133033 0.336466 -0.0267211 0.00102548 0.355064 
-0.018822 0.000204615 0.373214 -0.0108431 -0.00110373 0.39092 -0.0026328 -0.00285209 0.408179 
0.00593173 -0.00497717 0.424983 0.0149236 -0.00740382 0.441332 0.0243513 -0.0100494 0.457231 
0.0341523 -0.0128284 0.4727 0.0441951 -0.0156564 0.487775 0.0542899 -0.0184535 0.502506 
0.0642055 -0.0211475 0.516953 0.073691 -0.0236757 0.531181 0.0824991 -0.0259865 0.545255 
0.090409 -0.02804 0.559227 0.0972448 -0.0298092 0.573133 0.10289 -0.0312797 0.586979 
0.107294 -0.03245 0.600745 0.110472 -0.0333316 0.614372 0.112501 -0.0339481 0.627775 
0.113504 -0.0343349 0.640836 0.113639 -0.0345372 0.653417 0.113082 -0.0346083 0.665369 
0.112009 -0.034606 0.67654 0.110587 -0.0345899 0.686792 0.108957 -0.0346166 0.696006 
0.107238 -0.0347355 0.704095 0.105514 -0.0349851 0.711011 0.103847 -0.0353891 0.716749 
0.102273 -0.0359541 0.72135 0.100816 -0.0366686 0.724892 0.0994864 -0.0375036 0.727493 
0.0982931 -0.0384148 0.729295 0.0972444 -0.0393465 0.730457 0.0963512 -0.040237 0.731143 
0.0956266 -0.0410241 0.731508 0.0950848 -0.0416513 0.731685 0.0947389 -0.0420736 0.731779 
0.0945984 -0.0422618 0.731855 
LINES 2 100
OFFSETS vtktypeint64
0 100 
CONNECTIVITY vtktypeint64
0 1 2 3 4 5 6 7 8 
9 10 11 12 13 14 15 16 17 
18 19 20 21 22 23 24 25 26 
27 28 29 30 31 32 33 34 35 
36 37 38 39 40 41 42 43 44 
45 46 47 48 49 50 51 52 53 
54 55 56 57 58 59 60 61 62 
63 64 65 66 67 68 69 70 71 
72 73 74 75 76 77 78 79 80 
81 82 83 84 85 86 87 88 89 
90 91 92 93 94 95 96 97 98 
99 
POINT_DATA 100
FIELD FieldData 3
_theta 1 100 double
0 0.031733259127 0.063466518254 0.095199777382 0.12693303651 0.15866629564 0.19039955476 0.22213281389 0.25386607302 
0.28559933214 0.31733259127 0.3490658504 0.38079910953 0.41253236865 0.44426562778 0.47599888691 0.50773214603 0.53946540516 
0.57119866429 0.60293192342 0.63466518254 0.66639844167 0.6981317008 0.72986495992 0.76159821905 0.79333147818 0.82506473731 
0.85679799643 0.88853125556 0.92026451469 0.95199777382 0.98373103294 1.0154642921 1.0471975512 1.0789308103 1.1106640695 
1.1423973286 1.1741305877 1.2058638468 1.237597106 1.2693303651 1.3010636242 1.3327968833 1.3645301425 1.3962634016 
1.4279966607 1.4597299198 1.491463179 1.5231964381 1.5549296972 1.5866629564 1.6183962155 1.6501294746 1.6818627337 
1.7135959929 1.745329252 1.7770625111 1.8087957702 1.8405290294 1.8722622885 1.9039955476 1.9357288068 1.9674620659 
1.999195325 2.0309285841 2.0626618433 2.0943951024 2.1261283615 2.1578616206 2.1895948798 2.2213281389 2.253061398 
2.2847946572 2.3165279163 2.3482611754 2.3799944345 2.4117276937 2.4434609528 2.4751942119 2.506927471 2.5386607302 
2.5703939893 2.6021272484 2.6338605076 2.6655937667 2.6973270258 2.7290602849 2.7607935441 2.7925268032 2.8242600623 
2.8559933214 2.8877265806 2.9194598397 2.9511930988 2.982926358 3.0146596171 3.0463928762 3.0781261353 3.1098593945 
3.1415926536 
_radius 1 100 double
3.0404709722e-16 0.015022770657 0.029918016227 0.044564406365 0.05884877412 0.07266904248 0.085935837823 0.09857261632 0.1105146715 
0.12170763577 0.13210589839 0.14167104574 0.1503703559 0.15817561535 0.16506283157 0.17101349006 0.17601770686 0.18007904385 
0.18322011759 0.18548766732 0.18695557382 0.18772449546 0.18791737289 0.18767102894 0.1871252028 0.18641114153 0.18564191835 
0.18490591916 0.18426383251 0.18374857012 0.18336723618 0.18310458343 0.18292799188 0.18279429816 0.18265832793 0.18248188083 
0.18224105439 0.18193010712 0.18156153828 0.18116359479 0.18077694667 0.1804517762 0.18024562361 0.18022161612 0.18044659997 
0.18098924043 0.18191856278 0.18330262568 0.18520545874 0.18768009349 0.19075759283 0.19443501397 0.19866675646 0.20336259679 
0.20839289841 0.21359908809 0.21880673367 0.22383904139 0.2285293102 0.23273140662 0.23632776312 0.23923480013 0.24140588376 
0.24283189425 0.24353931581 0.24358568746 0.24305245323 0.24203574725 0.24063625644 0.2389496683 0.2370590282 0.23502961592 
0.23290611055 0.23071136516 0.22844625179 0.22609049284 0.22360469971 0.2209337331 0.21801107687 0.214763484 0.21111497966 
0.20698950703 0.20231202265 0.19700850264 0.19100582931 0.18423262728 0.17662172126 0.16811416437 0.15866410238 0.14824342707 
0.13684532496 0.12448626497 0.11120640786 0.097068675843 0.08215678717 0.066572542994 0.050432646332 0.033865345368 0.017007177057 
5.8673691091e-16 
_area 1 100 double
0 0.0004907922782 0.0019800950486 0.0045081558047 0.0081101958856 0.012780358336 0.018442666968 0.02494105424 0.03205127021 
0.039508445547 0.047039935916 0.054393811445 0.061357070956 0.067762266355 0.073484949579 0.078436274085 0.08255537815 0.085805615811 
0.088177270578 0.089695686535 0.090428235767 0.090481586222 0.089986572812 0.089077428595 0.087876447129 0.086490627525 0.085017281154 
0.083549129337 0.082174241558 0.080975659333 0.080032773098 0.079416903704 0.079175645068 0.07931500087 0.079797612357 0.080561224059 
0.0815417098 0.082683718673 0.083942577782 0.085292212423 0.086736501095 0.088313044511 0.090056452397 0.091944927671 0.093875828786 
0.095717361009 0.097392062275 0.098906249178 0.10035238338 0.10190992486 0.10383338376 0.10640321908 0.10984309709 0.11425865143 
0.11962856754 0.12581003368 0.13253172895 0.13940525712 0.14598412429 0.15183277928 0.15658916451 0.16001540885 0.1620261583 
0.16269450171 0.16223751502 0.16096185524 0.15915286825 0.15702269239 0.15474871619 0.15247363844 0.15027089579 0.14813099406 
0.14598176192 0.14371946302 0.14123222688 0.1384155948 0.13518488467 0.13148486776 0.12729411849 0.12262213206 0.11749978586 
0.11196566553 0.10605173894 0.099772458356 0.093121619523 0.086080004761 0.078633174086 0.070794259897 0.062623966662 0.054240454903 
0.0458151603 0.037555882247 0.02968340458 0.022409734049 0.01592388196 0.010386587212 0.0059311073165 0.0026652435175 0.00067082143891 
6.0782605709e-17 
