# vtk DataFile Version 5.1
vtk output
ASCII
DATASET POLYDATA
POINTS 100 float
0.136152 0.0624363 -0.662875 0.136048 0.0624813 -0.663018 0.135825 0.0624258 -0.663439 
0.135509 0.0622584 -0.664022 0.135138 0.0619605 -0.664588 0.134754 0.0615061 -0.66491 
0.134398 0.0608623 -0.664739 0.134099 0.0599895 -0.663827 0.133867 0.058843 -0.66195 
0.133686 0.0573737 -0.658927 0.133508 0.0555303 -0.654638 0.133254 0.0532621 -0.649028 
0.132813 0.0505213 -0.642109 0.132047 0.0472671 -0.633954 0.130803 0.0434685 -0.624681 
0.128916 0.0391082 -0.614441 0.126232 0.0341854 -0.603394 0.12261 0.0287188 -0.591692 
0.117945 0.0227475 -0.579462 0.11217 0.0163324 -0.566795 0.105269 0.00955488 -0.553735 
0.0972785 0.00251524 -0.540282 0.0882877 -0.00467079 -0.526394 0.0784314 -0.0118763 -0.511993 
0.0678823 -0.0189686 -0.496984 0.0568376 -0.0258149 -0.481262 0.0455045 -0.0322883 -0.46473 
0.0340851 -0.0382734 -0.447307 0.0227623 -0.0436714 -0.42894 0.0116883 -0.0484037 -0.409607 
0.000976748 -0.0524147 -0.389318 -0.00929994 -0.0556725 -0.368112 -0.0191089 -0.0581685 -0.346051 
-0.0284501 -0.0599152 -0.323213 -0.0373457 -0.060943 -0.299686 -0.0458271 -0.0612964 -0.275557 
-0.0539207 -0.0610288 -0.250907 -0.0616351 -0.0601986 -0.225813 -0.0689503 -0.0588649 -0.200343 
-0.0758111 -0.0570842 -0.174558 -0.0821264 -0.0549083 -0.14852 -0.0877724 -0.0523834 -0.122291 
-0.0926026 -0.0495503 -0.0959419 -0.0964608 -0.0464458 -0.0695542 -0.0991977 -0.0431047 -0.0432207 
-0.100688 -0.0395622 -0.0170454 -0.100845 -0.0358565 0.00886068 -0.0996371 -0.0320307 0.034385 
-0.0970908 -0.0281345 0.0594207 -0.0932966 -0.0242239 0.0838746 -0.0884029 -0.0203611 0.107674 
-0.0826064 -0.0166119 0.130774 -0.0761369 -0.0130439 0.153157 -0.0692381 -0.00972233 0.174838 
-0.0621485 -0.00670669 0.195858 -0.055082 -0.00404748 0.216282 -0.0482123 -0.00178309 0.236187 
-0.0416621 6.21664e-05 0.255656 -0.0354979 0.00147904 0.274768 -0.0297311 0.00247309 0.293588 
-0.0243265 0.00306329 0.312163 -0.0192139 0.00327972 0.330517 -0.0143042 0.00316055 0.348652 
-0.0095066 0.00274873 0.366546 -0.00474453 0.00208866 0.384161 3.12147e-05 0.00122338 0.401452 
0.00483404 0.000192339 0.418368 0.00963861 -0.000969929 0.434868 0.0143837 -0.00223429 0.45092 
0.0189806 -0.00357667 0.466508 0.0233248 -0.00497705 0.481636 0.0273112 -0.00641825 0.496322 
0.0308482 -0.00788457 0.510598 0.0338708 -0.00936078 0.524502 0.0363496 -0.0108316 0.538074 
0.0382955 -0.0122818 0.551341 0.0397579 -0.0136971 0.56432 0.0408183 -0.0150656 0.577001 
0.0415794 -0.0163793 0.589356 0.0421505 -0.0176362 0.601329 0.042633 -0.0188416 0.612841 
0.0431064 -0.0200089 0.6238 0.0436171 -0.0211598 0.6341 0.0441729 -0.0223225 0.643637 
0.0447418 -0.0235299 0.652313 0.0452577 -0.0248163 0.660048 0.0456309 -0.0262128 0.666785 
0.0457618 -0.0277434 0.672499 0.045558 -0.0294206 0.677196 0.0449497 -0.0312423 0.680918 
0.0439038 -0.033189 0.683737 0.0424329 -0.0352236 0.685754 0.0405991 -0.0372919 0.687089 
0.0385115 -0.039326 0.687878 0.0363165 -0.0412485 0.688259 0.0341845 -0.0429783 0.688369 
0.0322914 -0.0444367 0.688332 0.0308004 -0.0455544 0.688249 0.0298428 -0.0462771 0.688202 
0.029504 -0.0465704 0.688236 
LINES 2 100
OFFSETS vtktypeint64
0 100 
CONNECTIVITY vtktypeint64
0 1 2 3 4 5 6 7 8 
9 10 11 12 13 14 15 16 17 
18 19 20 21 22 23 24 25 26 
27 28 29 30 31 32 33 34 35 
36 37 38 39 40 41 42 43 44 
45 46 47 48 49 50 51 52 53 
54 55 56 57 58 59 60 61 62 
63 64 65 66 67 68 69 70 71 
72 73 74 75 76 77 78 79 80 
81 82 83 84 85 86 87 88 89 
90 91 92 93 94 95 96 97 98 
99 
POINT_DATA 100
FIELD FieldData 3
_theta 1 100 double
0 0.031733259127 0.063466518254 0.095199777382 0.12693303651 0.15866629564 0.19039955476 0.22213281389 0.25386607302 
0.28559933214 0.31733259127 0.3490658504 0.38079910953 0.41253236865 0.44426562778 0.47599888691 0.50773214603 0.53946540516 
0.57119866429 0.60293192342 0.63466518254 0.66639844167 0.6981317008 0.72986495992 0.76159821905 0.79333147818 0.82506473731 
0.85679799643 0.88853125556 0.92026451469 0.95199777382 0.98373103294 1.0154642921 1.0471975512 1.0789308103 1.1106640695 
1.1423973286 1.1741305877 1.2058638468 1.237597106 1.2693303651 1.3010636242 1.3327968833 1.3645301425 1.3962634016 
1.4279966607 1.4597299198 1.491463179 1.5231964381 1.5549296972 1.5866629564 1.6183962155 1.6501294746 1.6818627337 
1.7135959929 1.745329252 1.7770625111 1.8087957702 1.8405290294 1.8722622885 1.9039955476 1.9357288068 1.9674620659 
1.999195325 2.0309285841 2.0626618433 2.0943951024 2.1261283615 2.1578616206 2.1895948798 2.2213281389 2.253061398 
2.2847946572 2.3165279163 2.3482611754 2.3799944345 2.4117276937 2.4434609528 2.4751942119 2.506927471 2.5386607302 
2.5703939893 2.6021272484 2.6338605076 2.6655937667 2.6973270258 2.7290602849 2.7607935441 2.7925268032 2.8242600623 
2.8559933214 2.8877265806 2.9194598397 2.9511930988 2.982926358 3.0146596171 3.0463928762 3.0781261353 3.1098593945 
3.1415926536 
_radius 1 100 double
1.0351983237e-15 0.017069331249 0.034008754184 0.050689985384 0.066991185478 0.082801053635 0.098023218969 0.11257978439 0.1264125858 
0.13948114053 0.15175720414 0.16321694098 0.17383257072 0.18356573715 0.19236465572 0.20016636435 0.2069042919 0.21252013805 
0.21697803737 0.22027839773 0.22246875528 0.22364941094 0.22397235939 0.2236329433 0.22285468492 0.22186883505 0.22089126194 
0.22010012062 0.21961785922 0.21950026097 0.21973375018 0.22024094782 0.22089388513 0.22153394978 0.22199692719 0.22214035778 
0.22186936892 0.22115669682 0.22005303226 0.21868513841 0.21724141617 0.21594759812 0.21503821703 0.21473066199 0.2152064871 
0.21660012032 0.21899170497 0.22240103575 0.22678248931 0.23202355537 0.23794993727 0.24433834 0.25093573116 0.25748250057 
0.26373660264 0.26949573323 0.27461458975 0.27901463475 0.28268483556 0.28567340272 0.28807211707 0.28999600158 0.29156166657 
0.29286762432 0.29397931517 0.29492064387 0.29567265563 0.29617879417 0.29635521045 0.2961040161 0.29532724581 0.29393949294 
0.29187753617 0.28910570488 0.28561630189 0.28142518681 0.2765635266 0.27106747598 0.26496788969 0.25828199487 0.25100838853 
0.24312601197 0.23459710156 0.22537359965 0.21540609023 0.2046539551 0.19309517994 0.18073420469 0.16760649844 0.15377909288 
0.13934696697 0.12442576766 0.10914179659 0.093620500041 0.077974912984 0.062295624726 0.046643787801 0.031048394917 0.015508467204 
1.0114803144e-15 
_area 1 100 double
0 0.00064047691009 0.0025810683122 0.0058629754382 0.010509244541 0.016481574713 0.023654163809 0.031812947781 0.040676656664 
0.049930136854 0.059259694578 0.06838201453 0.077060784539 0.085108423723 0.092374752594 0.098729354091 0.10404737003 0.10820738539 
0.11110489849 0.11267776003 0.11293411108 0.11197184927 0.10998223694 0.10723654162 0.10406014759 0.10080125389 0.09780082952 
0.095367800321 0.093758841341 0.09315516203 0.093626198602 0.095092294668 0.097325424112 0.10000136055 0.10277678833 0.1053575189 
0.107541911 0.10923901495 0.11047260097 0.11137778477 0.11218122905 0.11315647373 0.1145638159 0.11660237552 0.11939682639 
0.12301031971 0.12745839345 0.13272752463 0.1388153031 0.14576498115 0.15364423025 0.1624451302 0.1719755326 0.18186439018 
0.19165895214 0.20091722033 0.2092712306 0.21646875662 0.22239503995 0.22707302797 0.23064342939 0.23332956361 0.23539222004 
0.2370761483 0.23855276161 0.23988014178 0.24100125284 0.2417715923 0.24199465108 0.24145543062 0.23995137148 0.23732039128 
0.23346327162 0.22835614342 0.22204980654 0.21465608186 0.20632555186 0.19722350457 0.18751022699 0.17732836866 0.16679599436 
0.15600179748 0.14500029462 0.1338096851 0.12242057992 0.11082177427 0.099035477763 0.087143394057 0.075291558015 0.063676335833 
0.052521150871 0.042052260727 0.032478107249 0.023973967057 0.016672503321 0.010660672267 0.0059832670853 0.0026525382097 0.00066186325281 
4.4915881874e-17 
