# vtk DataFile Version 5.1
vtk output
ASCII
DATASET POLYDATA
POINTS 100 float
0.114493 0.0441135 -0.600829 0.114666 0.044163 -0.600908 0.115176 0.0441005 -0.601138 
0.115942 0.0438951 -0.601432 0.116834 0.0434996 -0.601656 0.117692 0.0428551 -0.601643 
0.118341 0.0418974 -0.601212 0.118609 0.0405633 -0.600184 0.118343 0.0387978 -0.598401 
0.117422 0.0365588 -0.595741 0.115765 0.0338225 -0.592128 0.113336 0.0305854 -0.587534 
0.110139 0.026865 -0.581979 0.10621 0.0226987 -0.575522 0.101612 0.0181413 -0.568252 
0.0964159 0.0132604 -0.560268 0.0906949 0.00813241 -0.551665 0.0845117 0.00283762 -0.542524 
0.0779146 -0.00254403 -0.532894 0.0709355 -0.00793618 -0.522789 0.0635925 -0.0132682 -0.512187 
0.0558967 -0.0184764 -0.50103 0.0478604 -0.0235031 -0.489238 0.0395061 -0.0282965 -0.476715 
0.0308745 -0.0328081 -0.46337 0.0220288 -0.0369918 -0.449124 0.0130564 -0.0408017 -0.433928 
0.0040642 -0.0441923 -0.417766 -0.00482857 -0.047118 -0.400665 -0.0135023 -0.0495348 -0.382687 
-0.0218498 -0.0514024 -0.363926 -0.0297895 -0.0526871 -0.3445 -0.0372753 -0.0533654 -0.32453 
-0.0443039 -0.0534269 -0.304134 -0.0509146 -0.0528774 -0.283407 -0.0571846 -0.0517405 -0.262415 
-0.0632172 -0.0500583 -0.241187 -0.0691255 -0.0478909 -0.219712 -0.0750136 -0.0453138 -0.197947 
-0.0809563 -0.0424149 -0.175821 -0.0869819 -0.0392901 -0.153253 -0.0930586 -0.0360383 -0.130167 
-0.0990884 -0.0327563 -0.106504 -0.104908 -0.0295341 -0.0822414 -0.110299 -0.0264512 -0.0574019 
-0.115005 -0.0235731 -0.0320602 -0.118751 -0.0209503 -0.006344 -0.121277 -0.0186172 0.0195713 
-0.122354 -0.0165931 0.0454734 -0.121817 -0.0148837 0.0711284 -0.119574 -0.0134837 0.0962983 
-0.115625 -0.0123789 0.120761 -0.110057 -0.0115493 0.144326 -0.103037 -0.0109713 0.166852 
-0.0947985 -0.0106197 0.188255 -0.0856184 -0.0104687 0.208514 -0.0757907 -0.0104932 0.22767 
-0.0656013 -0.0106686 0.245819 -0.0553039 -0.0109707 0.263098 -0.0451016 -0.011376 0.279675 
-0.0351352 -0.0118606 0.295725 -0.0254794 -0.0124011 0.311421 -0.0161475 -0.0129742 0.32691 
-0.00710241 -0.0135575 0.342308 0.00172723 -0.0141303 0.35769 0.010428 -0.0146746 0.373084 
0.0190827 -0.0151763 0.388478 0.0277541 -0.0156261 0.403821 0.036473 -0.0160196 0.419037 
0.0452316 -0.0163581 0.434031 0.0539842 -0.0166477 0.448706 0.0626531 -0.0168986 0.462971 
0.0711387 -0.0171236 0.476752 0.0793334 -0.0173362 0.489995 0.0871357 -0.0175492 0.502673 
0.0944625 -0.0177725 0.514782 0.101259 -0.0180114 0.52634 0.107506 -0.0182663 0.537377 
0.113214 -0.0185314 0.547932 0.118426 -0.0187954 0.558043 0.123206 -0.0190422 0.567737 
0.127625 -0.0192522 0.577029 0.131756 -0.0194043 0.585917 0.135657 -0.019478 0.594379 
0.139367 -0.0194551 0.602379 0.142901 -0.0193221 0.609867 0.14625 -0.0190714 0.61679 
0.149383 -0.0187025 0.623093 0.152258 -0.0182223 0.628734 0.154828 -0.0176453 0.633683 
0.157052 -0.0169926 0.637931 0.158903 -0.0162907 0.641491 0.160376 -0.0155705 0.644398 
0.161485 -0.0148649 0.646707 0.162269 -0.0142072 0.648488 0.162782 -0.0136293 0.649818 
0.163087 -0.0131598 0.650775 0.163247 -0.0128226 0.651431 0.163313 -0.0126357 0.651839 
0.163321 -0.0126102 0.652034 
LINES 2 100
OFFSETS vtktypeint64
0 100 
CONNECTIVITY vtktypeint64
0 1 2 3 4 5 6 7 8 
9 10 11 12 13 14 15 16 17 
18 19 20 21 22 23 24 25 26 
27 28 29 30 31 32 33 34 35 
36 37 38 39 40 41 42 43 44 
45 46 47 48 49 50 51 52 53 
54 55 56 57 58 59 60 61 62 
63 64 65 66 67 68 69 70 71 
72 73 74 75 76 77 78 79 80 
81 82 83 84 85 86 87 88 89 
90 91 92 93 94 95 96 97 98 
99 
POINT_DATA 100
FIELD FieldData 3
_theta 1 100 double
0 0.031733259127 0.063466518254 0.095199777382 0.12693303651 0.15866629564 0.19039955476 0.22213281389 0.25386607302 
0.28559933214 0.31733259127 0.3490658504 0.38079910953 0.41253236865 0.44426562778 0.47599888691 0.50773214603 0.53946540516 
0.57119866429 0.60293192342 0.63466518254 0.66639844167 0.6981317008 0.72986495992 0.76159821905 0.79333147818 0.82506473731 
0.85679799643 0.88853125556 0.92026451469 0.95199777382 0.98373103294 1.0154642921 1.0471975512 1.0789308103 1.1106640695 
1.1423973286 1.1741305877 1.2058638468 1.237597106 1.2693303651 1.3010636242 1.3327968833 1.3645301425 1.3962634016 
1.4279966607 1.4597299198 1.491463179 1.5231964381 1.5549296972 1.5866629564 1.6183962155 1.6501294746 1.6818627337 
1.7135959929 1.745329252 1.7770625111 1.8087957702 1.8405290294 1.8722622885 1.9039955476 1.9357288068 1.9674620659 
1.999195325 2.0309285841 2.0626618433 2.0943951024 2.1261283615 2.1578616206 2.1895948798 2.2213281389 2.253061398 
2.2847946572 2.3165279163 2.3482611754 2.3799944345 2.4117276937 2.4434609528 2.4751942119 2.506927471 2.5386607302 
2.5703939893 2.6021272484 2.6338605076 2.6655937667 2.6973270258 2.7290602849 2.7607935441 2.7925268032 2.8242600623 
2.8559933214 2.8877265806 2.9194598397 2.9511930988 2.982926358 3.0146596171 3.0463928762 3.0781261353 3.1098593945 
3.1415926536 
_radius 1 100 double
8.947676111e-16 0.015461733708 0.030800861242 0.045892644553 0.06061950897 0.074874722606 0.088565617462 0.10161585842 0.11396627115 
0.12557392631 0.13640950678 0.14645337055 0.15569105842 0.16410917974 0.17169256642 0.17842330339 0.18428180735 0.18924969781 
0.19331394736 0.19647176661 0.19873577975 0.20013909137 0.20073969762 0.20062338356 0.19990398643 0.19871995949 0.19722670136 
0.19558506323 0.19394752878 0.192444349 0.19117199847 0.1901855883 0.18949569971 0.18906918905 0.18883336269 0.18868340001 
0.18849339246 0.18813130663 0.18747741216 0.18644443178 0.18499631251 0.18316164835 0.18103783311 0.17878319605 0.17659684727 
0.17468980038 0.17325520212 0.1724473823 0.17237580623 0.17311150374 0.17469607077 0.17714293379 0.18042778119 0.18447476562 
0.18914957001 0.19426571342 0.19960177207 0.2049229309 0.21000186887 0.21463710164 0.21866841662 0.22198884233 0.22455192901 
0.22637301495 0.2275238663 0.22812118842 0.22831039792 0.22824641024 0.2280732237 0.22790417742 0.22780509854 0.22778285387 
0.22778155334 0.22768749966 0.22734219937 0.2265610857 0.22515474476 0.22294955046 0.21980533762 0.21562857733 0.21038017387 
0.20407745295 0.19679026008 0.18863143422 0.1797423276 0.1702745787 0.16037009658 0.15014212857 0.13966095227 0.12894744777 
0.1179761747 0.10668715654 0.095003548445 0.082851499633 0.070178718143 0.056968999897 0.0432509173 0.029099811402 0.014633134343 
1.1302133942e-15 
_area 1 100 double
0 0.00063215878166 0.0025095374025 0.005574523041 0.0097308246561 0.014845351577 0.020753969321 0.027271704853 0.034205983401 
0.041369785313 0.048591259421 0.055717559629 0.062612820485 0.069152335141 0.075216398671 0.080687374403 0.085452139887 0.089409745992 
0.092482107185 0.09462488215 0.095836577097 0.09616540763 0.095713622484 0.094636339158 0.093129010741 0.091401213231 0.089644597957 
0.088007417806 0.086585299254 0.085430046035 0.084565372356 0.083997882815 0.083720497951 0.083710749079 0.083927866864 0.084312179268 
0.084788549963 0.085273504074 0.085684148204 0.085948925184 0.086026773617 0.085938368579 0.085791726776 0.085771567817 0.086081321616 
0.08686277867 0.088140570074 0.089827448148 0.091787204917 0.093922693582 0.096288822449 0.099425954127 0.10344423515 0.10807122088 
0.11321375276 0.11875731712 0.12453362178 0.13031735328 0.13583820681 0.14080978485 0.14496775653 0.14810745018 0.15011385652 
0.15097817117 0.15079654097 0.14975243642 0.14808960887 0.14608082073 0.14398850292 0.14201018142 0.1402312329 0.13863241128 
0.1371325554 0.1356137189 0.13392720196 0.13189815263 0.12933725007 0.1260606185 0.1219156452 0.11680818975 0.11072502744 
0.10374516229 0.096035653681 0.087831541198 0.079403619397 0.071019930404 0.062906542708 0.05521354157 0.047997335724 0.041234449581 
0.034865402407 0.028840909389 0.023148230722 0.017820062438 0.012935380887 0.0086151370529 0.0050107761958 0.0022840270279 0.00058007263872 
4.3536197753e-17 
