# vtk DataFile Version 5.1
vtk output
ASCII
DATASET POLYDATA
POINTS 100 float
0.0952809 0.0343752 -0.598013 0.0954559 0.0342776 -0.598023 0.0959784 0.0338164 -0.597999 
0.0968034 0.0330172 -0.597865 0.0978594 0.0319194 -0.597506 0.0990541 0.0305708 -0.596782 
0.10028 0.0290217 -0.595541 0.101422 0.0273178 -0.593644 0.102364 0.0254944 -0.590973 
0.102993 0.0235713 -0.587448 0.103208 0.0215503 -0.58303 0.102919 0.0194149 -0.577724 
0.102048 0.0171325 -0.571575 0.100534 0.0146588 -0.564656 0.0983293 0.0119446 -0.557056 
0.0953978 0.00894308 -0.548862 0.0917157 0.00561787 -0.540152 0.0872701 0.00194995 -0.530974 
0.0820594 -0.00205647 -0.521347 0.0760944 -0.00637051 -0.511255 0.0693995 -0.0109337 -0.50065 
0.0620144 -0.015662 -0.48946 0.0539956 -0.0204501 -0.477603 0.0454172 -0.0251782 -0.464995 
0.0363696 -0.0297206 -0.451567 0.0269578 -0.033954 -0.437273 0.0172974 -0.037767 -0.422096 
0.00750911 -0.0410671 -0.406054 -0.0022877 -0.0437874 -0.389193 -0.0119814 -0.0458903 -0.371582 
-0.0214744 -0.047368 -0.353301 -0.0306882 -0.0482425 -0.334433 -0.039566 -0.0485607 -0.315049 
-0.0480729 -0.04839 -0.295202 -0.0561939 -0.0478109 -0.274917 -0.0639279 -0.0469102 -0.254197 
-0.0712816 -0.0457734 -0.233021 -0.07826 -0.0444788 -0.211353 -0.0848588 -0.0430919 -0.189158 
-0.0910566 -0.0416623 -0.16641 -0.0968096 -0.0402213 -0.143102 -0.102049 -0.0387826 -0.119265 
-0.106684 -0.0373436 -0.0949628 -0.110604 -0.0358882 -0.0703002 -0.11369 -0.0343909 -0.0454157 
-0.115821 -0.0328213 -0.0204722 -0.116891 -0.0311486 0.0043549 -0.116817 -0.0293459 0.0288933 
-0.11555 -0.0273943 0.0529879 -0.113084 -0.0252857 0.0765129 -0.109457 -0.0230252 0.0993808 
-0.104749 -0.0206319 0.121546 -0.0990789 -0.018139 0.143 -0.0925955 -0.0155929 0.16377 
-0.0854628 -0.0130508 0.183902 -0.0778478 -0.010578 0.203448 -0.0699075 -0.00824427 0.222456 
-0.0617762 -0.00611948 0.240955 -0.053558 -0.00426932 0.258947 -0.0453216 -0.00275068 0.276406 
-0.0371001 -0.00160749 0.29328 -0.0288961 -0.000867077 0.309497 -0.0206889 -0.00053735 0.324982 
-0.0124455 -0.000605244 0.339667 -0.00413199 -0.00103646 0.35351 0.00427494 -0.00177671 0.366507 
0.0127789 -0.00275449 0.3787 0.0213576 -0.00388524 0.390181 0.0299603 -0.00507665 0.401085 
0.0385102 -0.00623477 0.411585 0.0469096 -0.00727044 0.42187 0.055049 -0.00810557 0.432127 
0.0628175 -0.00867867 0.442522 0.0701137 -0.00894919 0.453175 0.0768559 -0.00890027 0.464144 
0.0829895 -0.00853964 0.475419 0.0884916 -0.00789849 0.486916 0.0933713 -0.00702862 0.498482 
0.0976672 -0.00599782 0.50991 0.10144 -0.00488423 0.520959 0.104766 -0.00376989 0.531374 
0.107725 -0.00273433 0.540917 0.110391 -0.00184861 0.549381 0.112827 -0.00117033 0.55662 
0.115077 -0.000740095 0.562552 0.117163 -0.000579574 0.567172 0.119088 -0.000691215 0.570542 
0.120841 -0.00105957 0.572787 0.122397 -0.00165389 0.574077 0.123731 -0.00243171 0.574611 
0.124823 -0.00334281 0.574592 0.12566 -0.00433337 0.574215 0.126249 -0.00534972 0.573646 
0.126609 -0.0063414 0.57302 0.126778 -0.00726354 0.572432 0.126802 -0.00807823 0.571939 
0.126737 -0.0087552 0.57157 0.126632 -0.00927185 0.571332 0.126532 -0.00961283 0.57122 
0.126466 -0.00976957 0.571227 
LINES 2 100
OFFSETS vtktypeint64
0 100 
CONNECTIVITY vtktypeint64
0 1 2 3 4 5 6 7 8 
9 10 11 12 13 14 15 16 17 
18 19 20 21 22 23 24 25 26 
27 28 29 30 31 32 33 34 35 
36 37 38 39 40 41 42 43 44 
45 46 47 48 49 50 51 52 53 
54 55 56 57 58 59 60 61 62 
63 64 65 66 67 68 69 70 71 
72 73 74 75 76 77 78 79 80 
81 82 83 84 85 86 87 88 89 
90 91 92 93 94 95 96 97 98 
99 
POINT_DATA 100
FIELD FieldData 3
_theta 1 100 double
0 0.031733259127 0.063466518254 0.095199777382 0.12693303651 0.15866629564 0.19039955476 0.22213281389 0.25386607302 
0.28559933214 0.31733259127 0.3490658504 0.38079910953 0.41253236865 0.44426562778 0.47599888691 0.50773214603 0.53946540516 
0.57119866429 0.60293192342 0.63466518254 0.66639844167 0.6981317008 0.72986495992 0.76159821905 0.79333147818 0.82506473731 
0.85679799643 0.88853125556 0.92026451469 0.95199777382 0.98373103294 1.0154642921 1.0471975512 1.0789308103 1.1106640695 
1.1423973286 1.1741305877 1.2058638468 1.237597106 1.2693303651 1.3010636242 1.3327968833 1.3645301425 1.3962634016 
1.4279966607 1.4597299198 1.491463179 1.5231964381 1.5549296972 1.5866629564 1.6183962155 1.6501294746 1.6818627337 
1.7135959929 1.745329252 1.7770625111 1.8087957702 1.8405290294 1.8722622885 1.9039955476 1.9357288068 1.9674620659 
1.999195325 2.0309285841 2.0626618433 2.0943951024 2.1261283615 2.1578616206 2.1895948798 2.2213281389 2.253061398 
2.2847946572 2.3165279163 2.3482611754 2.3799944345 2.4117276937 2.4434609528 2.4751942119 2.506927471 2.5386607302 
2.5703939893 2.6021272484 2.6338605076 2.6655937667 2.6973270258 2.7290602849 2.7607935441 2.7925268032 2.8242600623 
2.8559933214 2.8877265806 2.9194598397 2.9511930988 2.982926358 3.0146596171 3.0463928762 3.0781261353 3.1098593945 
3.1415926536 
_radius 1 100 double
8.9156011368e-16 0.013279375423 0.026450630814 0.039416132086 0.052108462107 0.064496072911 0.076579751418 0.088380522248 0.099921937371 
0.11121131286 0.12222466656 0.13289875177 0.14313131955 0.15278863184 0.16171805287 0.16976335562 0.17678077289 0.18265431774 
0.18730922863 0.19072252686 0.19292968849 0.19402643688 0.19416477847 0.19354277202 0.19238826387 0.19093794655 0.18941439318 
0.18800469382 0.18684434502 0.1860087862 0.18551289483 0.1853169979 0.1853374328 0.18546020984 0.18555693639 0.18550219666 
0.18519113429 0.18455546955 0.18357583731 0.18228821645 0.18078250007 0.17919232904 0.17767752787 0.17640338973 0.17552288488 
0.1751666015 0.1754409803 0.17643088142 0.17820055213 0.1807885984 0.18419684122 0.18837785678 0.19322846005 0.19859435403 
0.20428599407 0.21010106987 0.21584731566 0.2213604081 0.22651405506 0.23122182569 0.23543222593 0.23911973182 0.24227483339 
0.24489562148 0.24698230411 0.24853474004 0.24955215676 0.25003398875 0.24998114567 0.24939757957 0.24829229745 0.24668173101 
0.24459177259 0.24205822253 0.2391243036 0.23583450383 0.23222520054 0.22831388262 0.22408975559 0.21950860695 0.21449389605 
0.2089444228 0.20274722196 0.1957931009 0.18799182121 0.17928433719 0.16965050314 0.15911183232 0.14772980419 0.13560062552 
0.12284731232 0.10960976233 0.096033418402 0.082257284984 0.068402368878 0.054561902163 0.040794800674 0.02712358642 0.013537414966 
4.3867487867e-16 
_area 1 100 double
0 0.00045898266518 0.0018150836445 0.0040126032166 0.0069795777134 0.010651592159 0.014989461982 0.019979936824 0.025618560116 
0.031883984364 0.038713688469 0.0459874019 0.053522025691 0.061079206455 0.068383540938 0.075147112579 0.081095663813 0.085993082237 
0.089662917387 0.092006744691 0.093018550837 0.092792634603 0.091521262648 0.089478817716 0.08699221408 0.084402082031 0.082021855259 
0.080099850752 0.078790210044 0.078146586299 0.078145556797 0.07871912834 0.079771738453 0.081181435938 0.082799582322 0.084460070821 
0.085999103114 0.087280452116 0.088220140702 0.088801751549 0.089072475426 0.089119283685 0.089039204766 0.08892231014 0.088854514391 
0.088933592828 0.089287113029 0.090084339483 0.091540272426 0.093908115101 0.097439934307 0.10228993516 0.1084034382 0.1155165543 
0.12326420485 0.13127457388 0.13921532103 0.14681531282 0.153875532 0.16026951243 0.16593049198 0.17082664307 0.17493264829 
0.1782102599 0.18060768242 0.18207660925 0.18259431052 0.18217682717 0.18087775454 0.17877648138 0.17596402882 0.17253317831 
0.16857470851 0.1641768963 0.15942381694 0.15438933722 0.14912626206 0.14365322111 0.13794486148 0.13193142463 0.1255111377 
0.1185747764 0.1110372955 0.1028676562 0.094107326618 0.084871497052 0.075333372247 0.065698425485 0.056179187401 0.046978966393 
0.038285230624 0.030266513476 0.023066785422 0.016796614554 0.011525072844 0.0072772424687 0.0040400826768 0.0017760503109 0.00044080985707 
3.4961412293e-18 
