# vtk DataFile Version 5.1
vtk output
ASCII
DATASET POLYDATA
POINTS 100 float
0.109958 0.0402124 -0.650159 0.109746 0.0404613 -0.65023 0.10917 0.0410459 -0.650468 
0.108266 0.0419011 -0.650744 0.107085 0.0429234 -0.650856 0.105688 0.0439787 -0.650558 
0.10413 0.044912 -0.64958 0.102457 0.0455588 -0.647665 0.10069 0.0457568 -0.644594 
0.0988237 0.0453579 -0.640206 0.0968197 0.0442388 -0.634416 0.0946105 0.04231 -0.627219 
0.0921041 0.0395221 -0.618684 0.0891933 0.03587 -0.608943 0.0857682 0.0313928 -0.598172 
0.0817288 0.0261721 -0.586562 0.0769977 0.0203267 -0.574299 0.0715307 0.014005 -0.56154 
0.0653241 0.00737599 -0.548395 0.0584174 0.000618994 -0.53492 0.0508911 -0.00608656 -0.52111 
0.0428605 -0.0125712 -0.506911 0.0344647 -0.0186839 -0.492231 0.0258542 -0.0242993 -0.476958 
0.017176 -0.0293223 -0.460981 0.00856034 -0.0336903 -0.444209 0.000109472 -0.0373734 -0.42659 
-0.00811021 -0.040372 -0.408116 -0.0160713 -0.0427127 -0.388831 -0.0237836 -0.0444424 -0.368823 
-0.0312877 -0.045622 -0.348217 -0.0386448 -0.0463196 -0.327157 -0.0459234 -0.0466041 -0.305787 
-0.0531856 -0.0465394 -0.284234 -0.0604732 -0.0461801 -0.262592 -0.0677968 -0.0455689 -0.240908 
-0.0751277 -0.0447352 -0.219181 -0.0823945 -0.0436959 -0.197363 -0.0894847 -0.0424576 -0.175368 
-0.0962508 -0.041019 -0.153086 -0.102521 -0.0393756 -0.130404 -0.10811 -0.0375235 -0.107223 
-0.112837 -0.035463 -0.0834786 -0.116537 -0.0332025 -0.059154 -0.119077 -0.0307601 -0.0342889 
-0.120363 -0.0281653 -0.00898163 -0.120348 -0.0254582 0.0166158 -0.119035 -0.0226883 0.0423095 
-0.116476 -0.0199118 0.06788 -0.112762 -0.017188 0.0931014 -0.108022 -0.0145757 0.117761 
-0.102406 -0.0121294 0.141679 -0.0960761 -0.00989525 0.164717 -0.0891965 -0.00790904 0.186794 
-0.0819221 -0.00619399 0.207883 -0.0743909 -0.00476041 0.228008 -0.0667194 -0.00360628 0.247238 
-0.0589988 -0.0027191 0.265672 -0.0512956 -0.00207852 0.283422 -0.0436527 -0.00165955 0.300603 
-0.0360935 -0.00143609 0.317315 -0.0286257 -0.00138415 0.333638 -0.0212463 -0.0014846 0.349621 
-0.0139463 -0.00172504 0.365289 -0.0067149 -0.00210068 0.380637 0.000457824 -0.00261409 0.395646 
0.00757805 -0.00327382 0.410282 0.0146471 -0.00409224 0.424516 0.0216605 -0.00508264 0.438321 
0.0286084 -0.00625613 0.451685 0.0354755 -0.00761861 0.464613 0.042242 -0.00916819 0.477126 
0.0488841 -0.0108934 0.489255 0.0553753 -0.0127724 0.501038 0.0616868 -0.0147734 0.512514 
0.0677889 -0.0168559 0.523713 0.0736522 -0.0189732 0.53465 0.0792488 -0.0210756 0.545321 
0.0845537 -0.0231139 0.555702 0.0895462 -0.0250428 0.56575 0.0942117 -0.0268243 0.575406 
0.0985423 -0.0284301 0.5846 0.102538 -0.0298435 0.593264 0.106205 -0.0310596 0.601331 
0.10956 -0.0320848 0.608749 0.112623 -0.0329354 0.615483 0.115419 -0.0336351 0.621517 
0.117975 -0.0342118 0.62686 0.120317 -0.0346948 0.631536 0.122467 -0.0351115 0.635586 
0.124443 -0.0354849 0.639061 0.126255 -0.0358322 0.642018 0.127904 -0.0361632 0.644513 
0.129386 -0.0364806 0.646596 0.130687 -0.0367812 0.648312 0.131791 -0.0370571 0.649693 
0.132678 -0.0372977 0.650765 0.133328 -0.0374924 0.651543 0.133727 -0.0376322 0.652039 
0.133862 -0.0377118 0.652256 
LINES 2 100
OFFSETS vtktypeint64
0 100 
CONNECTIVITY vtktypeint64
0 1 2 3 4 5 6 7 8 
9 10 11 12 13 14 15 16 17 
18 19 20 21 22 23 24 25 26 
27 28 29 30 31 32 33 34 35 
36 37 38 39 40 41 42 43 44 
45 46 47 48 49 50 51 52 53 
54 55 56 57 58 59 60 61 62 
63 64 65 66 67 68 69 70 71 
72 73 74 75 76 77 78 79 80 
81 82 83 84 85 86 87 88 89 
90 91 92 93 94 95 96 97 98 
99 
POINT_DATA 100
FIELD FieldData 3
_theta 1 100 double
0 0.031733259127 0.063466518254 0.095199777382 0.12693303651 0.15866629564 0.19039955476 0.22213281389 0.25386607302 
0.28559933214 0.31733259127 0.3490658504 0.38079910953 0.41253236865 0.44426562778 0.47599888691 0.50773214603 0.53946540516 
0.57119866429 0.60293192342 0.63466518254 0.66639844167 0.6981317008 0.72986495992 0.76159821905 0.79333147818 0.82506473731 
0.85679799643 0.88853125556 0.92026451469 0.95199777382 0.98373103294 1.0154642921 1.0471975512 1.0789308103 1.1106640695 
1.1423973286 1.1741305877 1.2058638468 1.237597106 1.2693303651 1.3010636242 1.3327968833 1.3645301425 1.3962634016 
1.4279966607 1.4597299198 1.491463179 1.5231964381 1.5549296972 1.5866629564 1.6183962155 1.6501294746 1.6818627337 
1.7135959929 1.745329252 1.7770625111 1.8087957702 1.8405290294 1.8722622885 1.9039955476 1.9357288068 1.9674620659 
1.999195325 2.0309285841 2.0626618433 2.0943951024 2.1261283615 2.1578616206 2.1895948798 2.2213281389 2.253061398 
2.2847946572 2.3165279163 2.3482611754 2.3799944345 2.4117276937 2.4434609528 2.4751942119 2.506927471 2.5386607302 
2.5703939893 2.6021272484 2.6338605076 2.6655937667 2.6973270258 2.7290602849 2.7607935441 2.7925268032 2.8242600623 
2.8559933214 2.8877265806 2.9194598397 2.9511930988 2.982926358 3.0146596171 3.0463928762 3.0781261353 3.1098593945 
3.1415926536 
_radius 1 100 double
9.0026633217e-16 0.014500718916 0.028789041469 0.042667385227 0.055962424877 0.068532813793 0.080273365885 0.091115971421 0.10102768783 
0.1100065727 0.1180760161 0.12527842375 0.1316689623 0.13730975261 0.14226458959 0.14659419987 0.15035230185 0.15358315282 
0.15632150873 0.15859566673 0.1604334627 0.16187005035 0.162955435 0.16375940577 0.16437182486 0.1648971643 0.16544360554 
0.16610862188 0.16696418583 0.16804498485 0.16934213174 0.17080331158 0.17233890486 0.17383283722 0.17515665462 0.17618528491 
0.17681292318 0.17696747054 0.17662202662 0.17580212478 0.17458771928 0.17310941487 0.17153909316 0.1700758507 0.16892873743 
0.1682978924 0.16835548131 0.16922796693 0.17098195329 0.17361640816 0.17706341525 0.18119761307 0.18585222609 0.19083832339 
0.19596399381 0.201050989 0.20594738508 0.21053561496 0.21473580275 0.21850477158 0.22183143514 0.22472951799 0.22722867239 
0.22936508857 0.23117265674 0.23267564019 0.23388363845 0.23478933056 0.23536909103 0.23558612021 0.23539532974 0.23474897652 
0.23360200725 0.23191625117 0.22966291597 0.22682321413 0.22338729436 0.21935192126 0.21471750865 0.20948516029 0.20365431617 
0.19722146551 0.19018020183 0.18252269321 0.17424244152 0.1653380058 0.15581716136 0.14570077526 0.135025564 0.12384495173 
0.11222751945 0.10025299634 0.088006272832 0.075570359643 0.063019455937 0.050413271572 0.037793500461 0.025182952624 0.012587424897 
7.3346580856e-16 
_area 1 100 double
0 0.00045895683999 0.0018401442893 0.0041482999687 0.0073674196806 0.011436388927 0.01623325408 0.021575456538 0.027235337575 
0.032964274288 0.038517747205 0.043676416532 0.048261977568 0.052148674114 0.055271069892 0.057627007639 0.059273472821 0.060313742389 
0.060876919392 0.061094573083 0.061081717817 0.060928761217 0.060706303289 0.060477742159 0.060310965534 0.06028331235 0.060479344211 
0.06098293486 0.06186740176 0.063191375909 0.065019664607 0.0673388196 0.069933067774 0.072615804309 0.075226030323 0.077619950129 
0.079679741552 0.081322595067 0.082504152017 0.083216906976 0.083487582934 0.083376114528 0.082976716819 0.082420867396 0.08188196148 
0.081578484682 0.081747988786 0.082565530166 0.084135405085 0.086540356731 0.089829607071 0.094005232882 0.099016820261 0.10473710628 
0.11094374555 0.1173578794 0.12369489624 0.12969760584 0.13516042886 0.13994598396 0.14399112791 0.14730147511 0.14993619059 
0.15198642254 0.15355067377 0.15470959049 0.15550394029 0.1559242271 0.15591986811 0.15542357382 0.1543767575 0.15274497657 
0.15052030582 0.14771308715 0.14433851201 0.14040473566 0.13590844617 0.130840431 0.1251984895 0.11900110674 0.1122953898 
0.10515619317 0.097677230108 0.089957383598 0.082086456862 0.07413528674 0.066155691558 0.058193494419 0.050309901281 0.042598142306 
0.035184341175 0.028212906133 0.021825370273 0.016142196004 0.011252934175 0.0072154262984 0.0040614837439 0.0018052797449 0.00045127817378 
5.7726333421e-17 
