# vtk DataFile Version 5.1
vtk output
ASCII
DATASET POLYDATA
POINTS 100 float
0.17635 0.0470043 -0.637857 0.176155 0.0469536 -0.637847 0.175586 0.0466546 -0.637817 
0.174657 0.0461249 -0.637684 0.17339 0.0453895 -0.63732 0.171811 0.0444748 -0.636566 
0.169943 0.0434016 -0.635249 0.167804 0.0421778 -0.633204 0.165402 0.0407927 -0.630291 
0.16273 0.0392139 -0.626407 0.159767 0.0373869 -0.621497 0.156477 0.0352384 -0.615555 
0.152811 0.032683 -0.608624 0.148708 0.0296324 -0.600784 0.144109 0.0260068 -0.59214 
0.138955 0.0217457 -0.582808 0.133198 0.0168192 -0.572896 0.126805 0.0112356 -0.562495 
0.119767 0.00504668 -0.551666 0.112096 -0.00165171 -0.540436 0.103831 -0.00872323 -0.528796 
0.0950311 -0.0159986 -0.516711 0.0857733 -0.0232865 -0.504121 0.0761442 -0.0303867 -0.490961 
0.0662322 -0.0371038 -0.477164 0.0561187 -0.0432606 -0.46268 0.0458704 -0.0487091 -0.447476 
0.0355329 -0.0533388 -0.431543 0.0251284 -0.0570808 -0.414897 0.0146552 -0.0599086 -0.397573 
0.00409236 -0.0618346 -0.379613 -0.00659256 -0.0629036 -0.361063 -0.017433 -0.0631846 -0.341959 
-0.0284506 -0.0627617 -0.322321 -0.0396422 -0.0617248 -0.302144 -0.0509682 -0.0601621 -0.281403 
-0.0623426 -0.0581548 -0.260053 -0.073629 -0.0557743 -0.238034 -0.0846402 -0.0530814 -0.215291 
-0.0951445 -0.050129 -0.191779 -0.104877 -0.0469647 -0.167479 -0.113558 -0.0436359 -0.14241 
-0.12091 -0.0401931 -0.116637 -0.126685 -0.0366932 -0.0902706 -0.13068 -0.0332006 -0.0634697 
-0.132761 -0.0297862 -0.0364285 -0.132877 -0.0265247 -0.00936635 -0.131064 -0.02349 0.0174885 
-0.12745 -0.020749 0.0439161 -0.122243 -0.0183557 0.0697212 -0.115719 -0.016346 0.0947471 
-0.108201 -0.0147329 0.118885 -0.100032 -0.0135053 0.142078 -0.0915485 -0.0126277 0.164319 
-0.0830567 -0.0120439 0.185648 -0.0748082 -0.0116817 0.206134 -0.0669844 -0.0114606 0.225868 
-0.0596881 -0.0112993 0.244947 -0.0529426 -0.0111239 0.263459 -0.0466992 -0.010875 0.281475 
-0.040852 -0.0105128 0.299044 -0.0352576 -0.0100203 0.316188 -0.0297585 -0.00940383 0.332907 
-0.024206 -0.00869075 0.349185 -0.018481 -0.0079251 0.365002 -0.0125104 -0.00716169 0.38034 
-0.00627692 -0.00645933 0.395193 0.000178788 -0.00587393 0.409575 0.00676293 -0.00545261 0.423524 
0.0133403 -0.00522911 0.437098 0.0197508 -0.0052212 0.450371 0.0258293 -0.0054301 0.463426 
0.0314248 -0.00584193 0.476343 0.036419 -0.00643071 0.489186 0.0407391 -0.00716256 0.501998 
0.0443662 -0.00800031 0.514783 0.0473359 -0.00890789 0.527515 0.0497332 -0.00985413 0.540125 
0.051681 -0.0108153 0.552516 0.0533249 -0.0117762 0.564567 0.0548151 -0.0127302 0.576146 
0.0562897 -0.0136776 0.587121 0.0578587 -0.0146237 0.597377 0.059593 -0.0155756 0.606824 
0.0615188 -0.0165401 0.615406 0.0636177 -0.0175208 0.623104 0.0658324 -0.0185172 0.629934 
0.0680771 -0.0195232 0.635947 0.0702514 -0.0205281 0.641213 0.0722549 -0.0215173 0.645818 
0.0740012 -0.0224734 0.649849 0.0754297 -0.0233786 0.653382 0.0765119 -0.0242159 0.656482 
0.0772545 -0.0249708 0.659189 0.0776957 -0.0256319 0.661523 0.0778983 -0.0261911 0.663484 
0.0779386 -0.0266437 0.665059 0.077894 -0.0269873 0.666224 0.0778305 -0.0272213 0.666956 
0.0777924 -0.0273457 0.66724 
LINES 2 100
OFFSETS vtktypeint64
0 100 
CONNECTIVITY vtktypeint64
0 1 2 3 4 5 6 7 8 
9 10 11 12 13 14 15 16 17 
18 19 20 21 22 23 24 25 26 
27 28 29 30 31 32 33 34 35 
36 37 38 39 40 41 42 43 44 
45 46 47 48 49 50 51 52 53 
54 55 56 57 58 59 60 61 62 
63 64 65 66 67 68 69 70 71 
72 73 74 75 76 77 78 79 80 
81 82 83 84 85 86 87 88 89 
90 91 92 93 94 95 96 97 98 
99 
POINT_DATA 100
FIELD FieldData 3
_theta 1 100 double
0 0.031733259127 0.063466518254 0.095199777382 0.12693303651 0.15866629564 0.19039955476 0.22213281389 0.25386607302 
0.28559933214 0.31733259127 0.3490658504 0.38079910953 0.41253236865 0.44426562778 0.47599888691 0.50773214603 0.53946540516 
0.57119866429 0.60293192342 0.63466518254 0.66639844167 0.6981317008 0.72986495992 0.76159821905 0.79333147818 0.82506473731 
0.85679799643 0.88853125556 0.92026451469 0.95199777382 0.98373103294 1.0154642921 1.0471975512 1.0789308103 1.1106640695 
1.1423973286 1.1741305877 1.2058638468 1.237597106 1.2693303651 1.3010636242 1.3327968833 1.3645301425 1.3962634016 
1.4279966607 1.4597299198 1.491463179 1.5231964381 1.5549296972 1.5866629564 1.6183962155 1.6501294746 1.6818627337 
1.7135959929 1.745329252 1.7770625111 1.8087957702 1.8405290294 1.8722622885 1.9039955476 1.9357288068 1.9674620659 
1.999195325 2.0309285841 2.0626618433 2.0943951024 2.1261283615 2.1578616206 2.1895948798 2.2213281389 2.253061398 
2.2847946572 2.3165279163 2.3482611754 2.3799944345 2.4117276937 2.4434609528 2.4751942119 2.506927471 2.5386607302 
2.5703939893 2.6021272484 2.6338605076 2.6655937667 2.6973270258 2.7290602849 2.7607935441 2.7925268032 2.8242600623 
2.8559933214 2.8877265806 2.9194598397 2.9511930988 2.982926358 3.0146596171 3.0463928762 3.0781261353 3.1098593945 
3.1415926536 
_radius 1 100 double
7.7913613603e-16 0.015844847143 0.031576866936 0.047086234515 0.062270342084 0.077033235985 0.091282123927 0.10492240485 0.1178533495 
0.12996644793 0.14114766703 0.15128377232 0.16027183659 0.16803034384 0.17451000114 0.17970247417 0.18364567444 0.18642482692 
0.1881691983 0.18904492615 0.18924474002 0.18897546791 0.18844416438 0.1878436739 0.18733861584 0.18705310572 0.18706173449 
0.18738511419 0.18799062276 0.18879814441 0.18968999805 0.19052405994 0.19114921061 0.19142242609 0.19122684885 0.19048979542 
0.1891987814 0.18741257246 0.18526381201 0.18295068328 0.18071741783 0.17882665289 0.17752942221 0.17703917951 0.17751372802 
0.17904489355 0.18165358169 0.18528885462 0.18983169941 0.19510458004 0.20088659452 0.2069327674 0.21299554602 0.21884648426 
0.22429590186 0.22920813054 0.23351018017 0.23719244333 0.24030128468 0.24292476105 0.24517396141 0.24716317568 0.24899200153 
0.25073161224 0.2524161995 0.25403964919 0.25555705056 0.25689052132 0.25793873458 0.25858923424 0.25873211916 0.2582731794 
0.25714437487 0.25530984317 0.25276638774 0.24953844546 0.24566861166 0.24120565668 0.23619240597 0.23065578285 0.22460076607 
0.21800914911 0.21084302667 0.20305208932 0.19458323225 0.18539073913 0.17544537832 0.16474108556 0.15329841455 0.14116449605 
0.12840974385 0.11512192012 0.10139843679 0.087337959517 0.07303248212 0.05856098464 0.043985530287 0.029350233973 0.014683060025 
3.5332582247e-16 
_area 1 100 double
0 0.00054112341126 0.0021613076501 0.0048486142451 0.0085760254513 0.013293131766 0.018917874238 0.025329831035 0.032366200382 
0.039821764275 0.047454282623 0.054996431184 0.062174340294 0.068731077126 0.074451354162 0.079182186724 0.082844584658 0.085434492047 
0.087015535023 0.087708257743 0.087678845425 0.087126992224 0.086270808689 0.085329606613 0.084499625404 0.083925281021 0.083611712454 
0.083498663881 0.083571833265 0.083812617884 0.084160793284 0.084580036807 0.085020182914 0.085439980432 0.085805412101 0.086066369594 
0.086218576573 0.0862449746 0.086189371533 0.086151299546 0.086228261041 0.086465205098 0.086888985006 0.087575531181 0.088674075494 
0.090394426385 0.09295902292 0.096511616785 0.10104978114 0.10644413059 0.11248609106 0.11892117931 0.12547523044 0.1318804744 
0.13790014071 0.14335686579 0.14824825841 0.15266936529 0.15660224602 0.15991266191 0.16248202632 0.16444150315 0.16597344664 
0.16719639499 0.16819806417 0.16908137028 0.16990053237 0.17062973961 0.171164916 0.17135181843 0.17099461622 0.16989108107 
0.1678929959 0.16493960079 0.16106109836 0.15635552138 0.15095367128 0.14498528733 0.13855448679 0.1317278752 0.12453539462 
0.11698181566 0.10906510258 0.10079627513 0.092214744363 0.083394607747 0.07444085647 0.065478426699 0.056639720517 0.048055838737 
0.039853058462 0.032152148376 0.025067450211 0.018704706739 0.013158414408 0.0085097226361 0.0048252698133 0.0021567735379 0.00054102139632 
3.9469274271e-17 
