# vtk DataFile Version 5.1
vtk output
ASCII
DATASET POLYDATA
POINTS 100 float
0.156232 0.0456899 -0.64872 0.156158 0.0457679 -0.649176 0.155978 0.0458372 -0.650543 
0.155711 0.0458906 -0.652643 0.155381 0.0459143 -0.655198 0.155013 0.0458862 -0.657862 
0.154626 0.045775 -0.660246 0.154228 0.0455399 -0.661964 0.153804 0.0451309 -0.662661 
0.153315 0.0444899 -0.662048 0.152697 0.0435537 -0.659922 0.151854 0.0422579 -0.65618 
0.150668 0.0405412 -0.650816 0.149003 0.0383506 -0.643914 0.146714 0.0356469 -0.63563 
0.143658 0.032409 -0.626163 0.139707 0.0286375 -0.615732 0.134759 0.0243567 -0.604541 
0.128747 0.0196141 -0.592764 0.121651 0.0144796 -0.58052 0.113495 0.00904104 -0.567866 
0.104356 0.0033995 -0.554798 0.0943511 -0.00233656 -0.541257 0.0836362 -0.00805766 -0.527143 
0.0723904 -0.0136592 -0.512333 0.0608039 -0.0190465 -0.496702 0.0490627 -0.0241383 -0.480144 
0.0373353 -0.028869 -0.462584 0.0257605 -0.0331891 -0.44399 0.0144393 -0.0370634 -0.424377 
0.00343073 -0.0404694 -0.403802 -0.00724653 -0.0433938 -0.382358 -0.0176086 -0.0458294 -0.360161 
-0.027696 -0.0477719 -0.337332 -0.0375598 -0.0492185 -0.313987 -0.0472467 -0.0501662 -0.290221 
-0.0567838 -0.0506126 -0.266105 -0.0661651 -0.0505568 -0.241678 -0.0753416 -0.0500019 -0.216953 
-0.0842166 -0.0489576 -0.191926 -0.0926464 -0.0474423 -0.166583 -0.100447 -0.0454858 -0.140917 
-0.107405 -0.0431298 -0.114939 -0.113296 -0.0404282 -0.0886908 -0.117903 -0.0374453 -0.0622472 
-0.121036 -0.0342533 -0.0357216 -0.122549 -0.0309288 -0.00926046 -0.122359 -0.0275485 0.0169665 
-0.120453 -0.024185 0.0427794 -0.116895 -0.0209033 0.0680037 -0.111818 -0.0177579 0.0924874 
-0.105422 -0.0147911 0.116115 -0.097952 -0.0120334 0.138818 -0.0896839 -0.0095038 0.160582 
-0.0809005 -0.00721294 0.181448 -0.0718713 -0.00516543 0.201502 -0.0628328 -0.00336336 0.220871 
-0.053974 -0.00180909 0.2397 -0.0454262 -0.000507563 0.258142 -0.0372601 0.00053263 0.276339 
-0.0294886 0.00129925 0.294404 -0.0220758 0.00177769 0.312415 -0.01495 0.00195318 0.330403 
-0.00802036 0.00181368 0.348356 -0.00119327 0.00135278 0.366223 0.00561142 0.000572398 0.38392 
0.0124476 -0.000515495 0.401347 0.0193344 -0.00188824 0.418403 0.0262522 -0.00351324 0.434994 
0.0331446 -0.00535001 0.451054 0.039925 -0.00735339 0.466546 0.0464861 -0.00947742 0.48147 
0.052713 -0.0116794 0.495863 0.058496 -0.0139238 0.50979 0.0637427 -0.0161848 0.523337 
0.0683879 -0.0184482 0.536597 0.0723997 -0.0207111 0.549657 0.0757817 -0.0229806 0.562587 
0.0785709 -0.0252707 0.575424 0.0808319 -0.0275984 0.588167 0.0826489 -0.029979 0.600777 
0.0841152 -0.0324221 0.613171 0.0853236 -0.034928 0.625231 0.086357 -0.0374851 0.636817 
0.0872817 -0.0400694 0.647772 0.0881432 -0.0426457 0.657943 0.0889654 -0.0451696 0.667189 
0.0897528 -0.0475923 0.675399 0.0904945 -0.0498645 0.682499 0.091171 -0.0519422 0.688457 
0.0917598 -0.0537901 0.693292 0.0922422 -0.0553857 0.697065 0.0926077 -0.0567211 0.699881 
0.0928565 -0.0578022 0.701875 0.0930003 -0.0586481 0.7032 0.0930599 -0.0592867 0.704018 
0.093062 -0.0597511 0.704485 0.0930347 -0.0600741 0.704736 0.0930023 -0.0602835 0.704877 
0.0929811 -0.0603982 0.704972 
LINES 2 100
OFFSETS vtktypeint64
0 100 
CONNECTIVITY vtktypeint64
0 1 2 3 4 5 6 7 8 
9 10 11 12 13 14 15 16 17 
18 19 20 21 22 23 24 25 26 
27 28 29 30 31 32 33 34 35 
36 37 38 39 40 41 42 43 44 
45 46 47 48 49 50 51 52 53 
54 55 56 57 58 59 60 61 62 
63 64 65 66 67 68 69 70 71 
72 73 74 75 76 77 78 79 80 
81 82 83 84 85 86 87 88 89 
90 91 92 93 94 95 96 97 98 
99 
POINT_DATA 100
FIELD FieldData 3
_theta 1 100 double
0 0.031733259127 0.063466518254 0.095199777382 0.12693303651 0.15866629564 0.19039955476 0.22213281389 0.25386607302 
0.28559933214 0.31733259127 0.3490658504 0.38079910953 0.41253236865 0.44426562778 0.47599888691 0.50773214603 0.53946540516 
0.57119866429 0.60293192342 0.63466518254 0.66639844167 0.6981317008 0.72986495992 0.76159821905 0.79333147818 0.82506473731 
0.85679799643 0.88853125556 0.92026451469 0.95199777382 0.98373103294 1.0154642921 1.0471975512 1.0789308103 1.1106640695 
1.1423973286 1.1741305877 1.2058638468 1.237597106 1.2693303651 1.3010636242 1.3327968833 1.3645301425 1.3962634016 
1.4279966607 1.4597299198 1.491463179 1.5231964381 1.5549296972 1.5866629564 1.6183962155 1.6501294746 1.6818627337 
1.7135959929 1.745329252 1.7770625111 1.8087957702 1.8405290294 1.8722622885 1.9039955476 1.9357288068 1.9674620659 
1.999195325 2.0309285841 2.0626618433 2.0943951024 2.1261283615 2.1578616206 2.1895948798 2.2213281389 2.253061398 
2.2847946572 2.3165279163 2.3482611754 2.3799944345 2.4117276937 2.4434609528 2.4751942119 2.506927471 2.5386607302 
2.5703939893 2.6021272484 2.6338605076 2.6655937667 2.6973270258 2.7290602849 2.7607935441 2.7925268032 2.8242600623 
2.8559933214 2.8877265806 2.9194598397 2.9511930988 2.982926358 3.0146596171 3.0463928762 3.0781261353 3.1098593945 
3.1415926536 
_radius 1 100 double
1.0088159053e-15 0.016569087078 0.033054360061 0.049368806188 0.065428448072 0.081152522779 0.096462551318 0.11128072513 0.12552819448 
0.13912380358 0.15198363098 0.16402144353 0.17514997919 0.18528294912 0.19433780898 0.20223957789 0.20892607949 0.21435476223 
0.21851069097 0.22141456157 0.22312899668 0.22376123596 0.22346076015 0.22241128032 0.22081764186 0.21888926679 0.21682254276 
0.21478483942 0.21290245363 0.2112538323 0.20986828278 0.20872958249 0.20778373347 0.20695037963 0.20613761508 0.20525965276 
0.20425598652 0.20310942935 0.20185914954 0.20060428601 0.19949494553 0.19871098872 0.19843378351 0.19881900178 0.19997758168 
0.2019680735 0.20479891729 0.20843596213 0.21281021138 0.21782295249 0.22334826523 0.22923480747 0.23530923534 0.24138296224 
0.24726283182 0.25276514514 0.25773141495 0.2620432028 0.26563286696 0.2684876375 0.27064604912 0.27218757003 0.27321752401 
0.27384990521 0.27419058515 0.2743229493 0.27429737708 0.27412534674 0.27377840433 0.27319183223 0.27227255769 0.27091055591 
0.26899260013 0.26641667716 0.26310493301 0.25901300052 0.25413419468 0.24849817153 0.24216479686 0.23521475657 0.2277386896 
0.21982639686 0.21155717635 0.2029918026 0.1941663232 0.18508780049 0.17573232901 0.16604589584 0.15594866103 0.14534288148 
0.13412405382 0.12219413493 0.1094751662 0.095921459827 0.081528747652 0.066339237672 0.050442178034 0.033970111351 0.017091419405 
8.6267996114e-16 
_area 1 100 double
0 0.00063300558147 0.0025389348936 0.0057349356146 0.010237328232 0.016043567443 0.023110687026 0.031336305319 0.040548029607 
0.050504368536 0.06090700948 0.071421760826 0.081703785726 0.091422017402 0.10027815947 0.10801776195 0.11443435759 0.11937127242 
0.1227270742 0.12446783176 0.12464353715 0.12340108087 0.12098530404 0.11772238278 0.11398256754 0.11012270799 0.10642530958 
0.10307105735 0.10015630492 0.097726358546 0.095802172424 0.094396366077 0.093517320564 0.093160806426 0.093296484272 0.093865753883 
0.094804006426 0.096108876573 0.097749662719 0.099638910465 0.10175436182 0.10405690052 0.10652163824 0.10915607036 0.11205185798 
0.11526538075 0.11871466386 0.12243777583 0.12656124267 0.13123367149 0.13657119266 0.14261504877 0.14930806684 0.15649080611 
0.16391174025 0.17124850512 0.1781430159 0.18425085973 0.18929583369 0.19311368582 0.19567211688 0.19706423732 0.19748298069 
0.19719370075 0.19656359404 0.19640420114 0.19655894416 0.19649201747 0.19601989968 0.19501879942 0.19339127249 0.19105760294 
0.18794932032 0.1840091177 0.17920011207 0.1735212658 0.16701946297 0.15979011251 0.15196524935 0.14369409593 0.13512284072 
0.12637889194 0.1175620113 0.10874199049 0.099960763452 0.091236595893 0.082569343356 0.073947817021 0.065361192228 0.056814652896 
0.04834598635 0.040037767292 0.032020992232 0.024469191714 0.017584836093 0.01158125349 0.006663409513 0.003010211215 0.00075999805691 
6.7644397699e-17 
