# vtk DataFile Version 5.1
vtk output
ASCII
DATASET POLYDATA
POINTS 100 float
0.0887277 0.0890631 -0.672582 0.0886533 0.0889315 -0.672355 0.0884577 0.0883017 -0.671585 
0.0881674 0.0871738 -0.670223 0.0878222 0.085549 -0.6682 0.0874694 0.0834298 -0.665432 
0.087156 0.0808206 -0.661843 0.0869213 0.0777281 -0.657371 0.0867881 0.0741616 -0.651985 
0.0867569 0.0701331 -0.64569 0.0868002 0.0656573 -0.63853 0.0868606 0.0607515 -0.630585 
0.086851 0.0554355 -0.621963 0.0866588 0.0497317 -0.612786 0.0861521 0.0436658 -0.603176 
0.0851888 0.0372671 -0.593237 0.0836274 0.0305701 -0.583038 0.0813384 0.0236164 -0.572609 
0.0782154 0.0164562 -0.561928 0.0741846 0.00915069 -0.550923 0.0692124 0.00177309 -0.539484 
0.0633094 -0.00559014 -0.527469 0.056531 -0.0128398 -0.514722 0.0489737 -0.0198656 -0.501096 
0.0407686 -0.0265496 -0.486467 0.0320716 -0.0327707 -0.470751 0.0230511 -0.0384111 -0.453913 
0.0138756 -0.0433626 -0.435977 0.00470146 -0.0475348 -0.417021 -0.00433831 -0.0508607 -0.397166 
-0.0131416 -0.0533031 -0.37657 -0.021642 -0.0548579 -0.355402 -0.0298088 -0.0555554 -0.333833 
-0.0376441 -0.0554592 -0.312008 -0.0451748 -0.0546615 -0.29004 -0.0524433 -0.0532767 -0.267997 
-0.0594957 -0.0514329 -0.245896 -0.0663692 -0.0492622 -0.223712 -0.0730823 -0.0468905 -0.201381 
-0.0796248 -0.0444294 -0.178817 -0.0859538 -0.041968 -0.155924 -0.0919914 -0.0395693 -0.13262 
-0.0976285 -0.0372676 -0.108846 -0.102731 -0.0350706 -0.0845806 -0.10715 -0.0329639 -0.0598464 
-0.110736 -0.0309173 -0.0347133 -0.113349 -0.028893 -0.00929303 -0.114873 -0.0268547 0.0162689 
-0.115227 -0.024775 0.0418058 -0.114373 -0.0226423 0.0671441 -0.112317 -0.0204641 0.0921175 
-0.109112 -0.0182688 0.11658 -0.10485 -0.0161035 0.140415 -0.0996545 -0.0140294 0.16354 
-0.0936726 -0.0121149 0.18591 -0.0870578 -0.0104283 0.207511 -0.0799603 -0.00902927 0.228357 
-0.0725156 -0.00796152 0.248478 -0.064835 -0.00724775 0.267914 -0.0570008 -0.00688647 0.286705 
-0.0490643 -0.00685198 0.304884 -0.0410477 -0.00709724 0.322476 -0.0329495 -0.00755913 0.339495 
-0.0247516 -0.0081657 0.355945 -0.0164289 -0.00884425 0.371828 -0.00795788 -0.00952935 0.387148 
0.000674765 -0.0101698 0.401915 0.00946596 -0.0107336 0.416152 0.0183926 -0.0112104 0.429896 
0.0274107 -0.0116115 0.443195 0.0364577 -0.0119663 0.456111 0.0454573 -0.0123178 0.468708 
0.0543255 -0.0127154 0.48105 0.0629785 -0.0132075 0.493187 0.0713399 -0.0138347 0.505152 
0.0793471 -0.014624 0.516954 0.0869558 -0.0155846 0.528574 0.0941426 -0.0167063 0.539963 
0.100905 -0.0179607 0.55105 0.107258 -0.019304 0.561744 0.113233 -0.0206821 0.571945 
0.118868 -0.0220366 0.581553 0.124204 -0.0233111 0.590477 0.129281 -0.0244572 0.598646 
0.134128 -0.0254385 0.606016 0.138766 -0.0262343 0.612571 0.143201 -0.0268398 0.618323 
0.147428 -0.0272651 0.623314 0.15143 -0.0275329 0.627603 0.155181 -0.0276741 0.631265 
0.158654 -0.0277236 0.634381 0.161818 -0.0277157 0.637025 0.164646 -0.0276807 0.639268 
0.167115 -0.0276424 0.641163 0.16921 -0.0276163 0.642749 0.170918 -0.0276105 0.64405 
0.172237 -0.0276267 0.645077 0.173165 -0.0276623 0.645832 0.173703 -0.0277131 0.646314 
0.173854 -0.0277754 0.646518 
LINES 2 100
OFFSETS vtktypeint64
0 100 
CONNECTIVITY vtktypeint64
0 1 2 3 4 5 6 7 8 
9 10 11 12 13 14 15 16 17 
18 19 20 21 22 23 24 25 26 
27 28 29 30 31 32 33 34 35 
36 37 38 39 40 41 42 43 44 
45 46 47 48 49 50 51 52 53 
54 55 56 57 58 59 60 61 62 
63 64 65 66 67 68 69 70 71 
72 73 74 75 76 77 78 79 80 
81 82 83 84 85 86 87 88 89 
90 91 92 93 94 95 96 97 98 
99 
POINT_DATA 100
FIELD FieldData 3
_theta 1 100 double
0 0.031733259127 0.063466518254 0.095199777382 0.12693303651 0.15866629564 0.19039955476 0.22213281389 0.25386607302 
0.28559933214 0.31733259127 0.3490658504 0.38079910953 0.41253236865 0.44426562778 0.47599888691 0.50773214603 0.53946540516 
0.57119866429 0.60293192342 0.63466518254 0.66639844167 0.6981317008 0.72986495992 0.76159821905 0.79333147818 0.82506473731 
0.85679799643 0.88853125556 0.92026451469 0.95199777382 0.98373103294 1.0154642921 1.0471975512 1.0789308103 1.1106640695 
1.1423973286 1.1741305877 1.2058638468 1.237597106 1.2693303651 1.3010636242 1.3327968833 1.3645301425 1.3962634016 
1.4279966607 1.4597299198 1.491463179 1.5231964381 1.5549296972 1.5866629564 1.6183962155 1.6501294746 1.6818627337 
1.7135959929 1.745329252 1.7770625111 1.8087957702 1.8405290294 1.8722622885 1.9039955476 1.9357288068 1.9674620659 
1.999195325 2.0309285841 2.0626618433 2.0943951024 2.1261283615 2.1578616206 2.1895948798 2.2213281389 2.253061398 
2.2847946572 2.3165279163 2.3482611754 2.3799944345 2.4117276937 2.4434609528 2.4751942119 2.506927471 2.5386607302 
2.5703939893 2.6021272484 2.6338605076 2.6655937667 2.6973270258 2.7290602849 2.7607935441 2.7925268032 2.8242600623 
2.8559933214 2.8877265806 2.9194598397 2.9511930988 2.982926358 3.0146596171 3.0463928762 3.0781261353 3.1098593945 
3.1415926536 
_radius 1 100 double
1.1136870674e-15 0.013890658038 0.027651678388 0.041164658134 0.054344697182 0.067148027184 0.079570090844 0.091634011853 0.10337196331 
0.11480418641 0.12592126115 0.13667412693 0.14697379366 0.15669991105 0.1657154649 0.17388421139 0.18108777666 0.18724014715 
0.19229815117 0.19626726603 0.19920261803 0.201205403 0.20241521062 0.20299895865 0.20313738806 0.20301034061 0.20278227847 
0.20258959575 0.20253110341 0.20266262492 0.20299603975 0.20350253988 0.20411943593 0.2047595971 0.20532253291 0.20570617476 
0.20581848237 0.205588041 0.20497288782 0.20396689838 0.20260310828 0.20095344496 0.19912478639 0.19725217581 0.19549097322 
0.19400976681 0.19298436893 0.19259090237 0.19299471087 0.1943330387 0.19669292853 0.20008985268 0.20445475911 0.20963558947 
0.21541425403 0.22153442601 0.22773257464 0.23376531708 0.23942896567 0.24457014002 0.24908843977 0.25293322074 0.25609666651 
0.25860492624 0.26050847524 0.2618723535 0.26276668482 0.26325784765 0.26340073686 0.26323258559 0.26276872743 0.26200049822 
0.26089531192 0.25939887325 0.2574394669 0.25493416077 0.25179650059 0.24794492051 0.24331081282 0.23784512987 0.23152257354 
0.22434282088 0.2163287527 0.2075221837 0.19797800637 0.18775784071 0.17692419398 0.16553585526 0.15364492235 0.14129558853 
0.12852460866 0.11536316343 0.10183963886 0.087982702716 0.073824069386 0.059400503656 0.044754846424 0.029936056631 0.014998402255 
8.9108412378e-16 
_area 1 100 double
0 0.00058373512503 0.0023118504741 0.0051187774447 0.0089065894007 0.013558937305 0.018955391682 0.024982765171 0.0315404348 
0.038537601108 0.045882401241 0.053465981978 0.061147613853 0.068747631552 0.076052732205 0.08283392832 0.088872859658 0.093988971211 
0.09805987639 0.10103060394 0.10291269842 0.10377778405 0.10374989219 0.10299800799 0.10172808945 0.10017352748 0.098583324547 
0.097205009994 0.096242484008 0.09579582404 0.095934948298 0.09668214405 0.097952777624 0.099573143186 0.10131950669 0.10296281755 
0.10431251352 0.10525432923 0.10577233906 0.10593816694 0.10585939225 0.10562727818 0.10531009582 0.10497305532 0.1046922828 
0.10455864849 0.1046795671 0.10518781704 0.10625985948 0.10813073377 0.11108284077 0.11538500932 0.12117657936 0.12836111257 
0.13660565265 0.14543372716 0.1543320011 0.16283235973 0.17056603592 0.17729101611 0.18289367149 0.18736826617 0.19078175577 
0.19323385121 0.1948231092 0.19562797832 0.19570545183 0.19510130138 0.19386136139 0.19203568455 0.18967347252 0.1868126322 
0.1834704156 0.17963950197 0.17528960649 0.17037288692 0.16483324768 0.15862060779 0.15170787005 0.14410440437 0.13585998806 
0.12705728516 0.11779745664 0.1081884564 0.098342521384 0.088379660166 0.078428951553 0.068623811938 0.059093765498 0.049957501281 
0.041320495119 0.033277528373 0.025917608131 0.019327492574 0.013591329917 0.0087868868661 0.0049808820986 0.0022257000381 0.000558199099 
3.5722765639e-17 
