# vtk DataFile Version 5.1
vtk output
ASCII
DATASET POLYDATA
POINTS 100 float
0.117735 0.0539759 -0.614417 0.117806 0.0539574 -0.614745 0.118036 0.0537184 -0.615712 
0.118388 0.0532718 -0.617175 0.118805 0.0526367 -0.618905 0.119215 0.0518348 -0.620618 
0.119542 0.0508868 -0.621996 0.119712 0.0498082 -0.622722 0.119661 0.048606 -0.622507 
0.11934 0.0472756 -0.621113 0.118713 0.045799 -0.618379 0.117757 0.0441444 -0.614221 
0.116455 0.0422676 -0.608642 0.114793 0.0401145 -0.601721 0.112748 0.0376255 -0.593596 
0.110283 0.0347405 -0.584449 0.107346 0.031405 -0.574476 0.103865 0.0275758 -0.56387 
0.0997551 0.0232269 -0.552797 0.094924 0.0183541 -0.541383 0.0892842 0.0129782 -0.529701 
0.0827653 0.00714706 -0.517772 0.0753279 0.000935048 -0.50557 0.0669747 -0.00555877 -0.493027 
0.0577587 -0.0122145 -0.480052 0.0477864 -0.018897 -0.466544 0.0372142 -0.0254617 -0.452411 
0.02624 -0.0317626 -0.437578 0.0150881 -0.0376586 -0.421997 0.0039908 -0.0430212 -0.405658 
-0.00683174 -0.0477399 -0.38858 -0.0171915 -0.0517277 -0.37081 -0.0269491 -0.0549238 -0.352416 
-0.0360253 -0.0572959 -0.333472 -0.0444055 -0.0588403 -0.314053 -0.0521358 -0.0595801 -0.29422 
-0.0593132 -0.0595627 -0.274017 -0.0660672 -0.0588555 -0.253467 -0.0725389 -0.0575418 -0.23257 
-0.0788571 -0.0557153 -0.211313 -0.0851158 -0.053475 -0.189671 -0.0913562 -0.05092 -0.167619 
-0.0975542 -0.0481455 -0.145142 -0.103616 -0.0452387 -0.122242 -0.109384 -0.0422759 -0.0989454 
-0.114647 -0.0393204 -0.0753043 -0.119162 -0.0364214 -0.0513979 -0.122679 -0.0336139 -0.0273282 
-0.124964 -0.0309189 -0.00321271 -0.125827 -0.028345 0.0208231 -0.125139 -0.0258901 0.0446561 
-0.12285 -0.0235438 0.0681738 -0.118992 -0.0212899 0.0912823 -0.113678 -0.0191092 0.113911 
-0.107087 -0.0169826 0.136015 -0.0994522 -0.0148935 0.157575 -0.0910353 -0.0128304 0.178591 
-0.0821025 -0.0107886 0.199081 -0.0729023 -0.00877232 0.219072 -0.0636462 -0.0067948 0.238592 
-0.0544943 -0.00487884 0.257668 -0.045549 -0.00305592 0.276319 -0.0368553 -0.00136479 0.294553 
-0.0284074 0.000150782 0.31237 -0.0201612 0.00144473 0.32976 -0.0120497 0.00247194 0.34671 
-0.0039991 0.00319164 0.363206 0.00405525 0.00357078 0.379238 0.0121573 0.00358703 0.394801 
0.0203227 0.00323131 0.4099 0.0285357 0.00250936 0.42455 0.0367528 0.00144246 0.438773 
0.0449085 6.69885e-05 0.452593 0.0529258 -0.00156712 0.466036 0.0607264 -0.0033989 0.479124 
0.0682418 -0.00535972 0.491868 0.0754208 -0.00737732 0.504267 0.0822348 -0.00938002 0.516306 
0.0886791 -0.011301 0.527954 0.0947698 -0.013082 0.539168 0.100538 -0.0146765 0.549896 
0.106024 -0.0160521 0.56008 0.111263 -0.017191 0.569663 0.116285 -0.0180905 0.578596 
0.121103 -0.0187614 0.586838 0.125711 -0.0192258 0.594365 0.130087 -0.0195143 0.601168 
0.134192 -0.0196627 0.607254 0.137981 -0.0197082 0.612647 0.141407 -0.0196867 0.61738 
0.144429 -0.0196297 0.621497 0.147021 -0.0195627 0.625045 0.149174 -0.0195039 0.628072 
0.1509 -0.0194643 0.630622 0.152229 -0.0194481 0.632734 0.153207 -0.0194546 0.63444 
0.153885 -0.0194795 0.635763 0.154317 -0.0195172 0.636719 0.154546 -0.0195626 0.63732 
0.154602 -0.0196125 0.63757 
LINES 2 100
OFFSETS vtktypeint64
0 100 
CONNECTIVITY vtktypeint64
0 1 2 3 4 5 6 7 8 
9 10 11 12 13 14 15 16 17 
18 19 20 21 22 23 24 25 26 
27 28 29 30 31 32 33 34 35 
36 37 38 39 40 41 42 43 44 
45 46 47 48 49 50 51 52 53 
54 55 56 57 58 59 60 61 62 
63 64 65 66 67 68 69 70 71 
72 73 74 75 76 77 78 79 80 
81 82 83 84 85 86 87 88 89 
90 91 92 93 94 95 96 97 98 
99 
POINT_DATA 100
FIELD FieldData 3
_theta 1 100 double
0 0.031733259127 0.063466518254 0.095199777382 0.12693303651 0.15866629564 0.19039955476 0.22213281389 0.25386607302 
0.28559933214 0.31733259127 0.3490658504 0.38079910953 0.41253236865 0.44426562778 0.47599888691 0.50773214603 0.53946540516 
0.57119866429 0.60293192342 0.63466518254 0.66639844167 0.6981317008 0.72986495992 0.76159821905 0.79333147818 0.82506473731 
0.85679799643 0.88853125556 0.92026451469 0.95199777382 0.98373103294 1.0154642921 1.0471975512 1.0789308103 1.1106640695 
1.1423973286 1.1741305877 1.2058638468 1.237597106 1.2693303651 1.3010636242 1.3327968833 1.3645301425 1.3962634016 
1.4279966607 1.4597299198 1.491463179 1.5231964381 1.5549296972 1.5866629564 1.6183962155 1.6501294746 1.6818627337 
1.7135959929 1.745329252 1.7770625111 1.8087957702 1.8405290294 1.8722622885 1.9039955476 1.9357288068 1.9674620659 
1.999195325 2.0309285841 2.0626618433 2.0943951024 2.1261283615 2.1578616206 2.1895948798 2.2213281389 2.253061398 
2.2847946572 2.3165279163 2.3482611754 2.3799944345 2.4117276937 2.4434609528 2.4751942119 2.506927471 2.5386607302 
2.5703939893 2.6021272484 2.6338605076 2.6655937667 2.6973270258 2.7290602849 2.7607935441 2.7925268032 2.8242600623 
2.8559933214 2.8877265806 2.9194598397 2.9511930988 2.982926358 3.0146596171 3.0463928762 3.0781261353 3.1098593945 
3.1415926536 
_radius 1 100 double
2.9545350688e-16 0.015541151266 0.03099063813 0.046256993544 0.061256749583 0.075915983887 0.09016970341 0.10395943494 0.11722984476 
0.12992540814 0.14198806328 0.15335646831 0.16396704826 0.17375661482 0.18266607462 0.19064465489 0.19765413807 0.20367273105 
0.20869832022 0.2127509239 0.21587413955 0.21813532381 0.21962419346 0.22044955885 0.22073405318 0.22060703815 0.22019632757 
0.21961982599 0.2189783577 0.2183506536 0.21779078695 0.21732771663 0.21696635673 0.21668976189 0.21646237078 0.2162345294 
0.21594855138 0.21554630388 0.21497778325 0.21420953771 0.21323140995 0.21206027077 0.21074029556 0.20934036542 0.20794951722 
0.20667098908 0.20561524727 0.20489285561 0.20460827594 0.2048548418 0.20570987608 0.207228635 0.20943687953 0.21232347091 
0.21583526372 0.21987628251 0.22431211349 0.22897929264 0.2336985952 0.23829052869 0.24259094932 0.24646464955 0.24981510579 
0.2525892678 0.25477709639 0.25640628525 0.25753311291 0.25823065064 0.25857566019 0.25863553589 0.25845665233 0.25805547423 
0.25741366769 0.25647805964 0.25516554227 0.25337205309 0.25098393685 0.2478896773 0.24399028546 0.23920732933 0.23348830835 
0.22680952196 0.21917668987 0.21062348342 0.20120800873 0.19100727295 0.18010981231 0.16860696965 0.15658374917 0.14411063074 
0.13123797292 0.11799443084 0.10439008142 0.090423856848 0.076093789213 0.061407827231 0.046392821988 0.031099709279 0.015603780932 
1.5856199827e-15 
_area 1 100 double
0 0.00061988096427 0.0024714088695 0.0055299610644 0.0097533153913 0.015079271428 0.021421926925 0.02866732701 0.036669823517 
0.045250676451 0.054200232792 0.063284480021 0.072255860665 0.080867082773 0.088885715016 0.096107111657 0.102363875 0.10753142398 
0.11153073025 0.11433013845 0.11594780221 0.11645467026 0.11597598431 0.11468813149 0.11280830921 0.11057674001 0.10823403982 
0.10599829063 0.10404639261 0.10250249961 0.10143491374 0.10086533176 0.1007779701 0.10109822266 0.10173496952 0.10262931654 
0.10370656892 0.10486639057 0.10604580718 0.10719660499 0.10828455553 0.10930233617 0.11027323567 0.1112323231 0.1121898532 
0.11312129391 0.11400556137 0.11486169307 0.11575462561 0.1167863297 0.11808563895 0.11979471681 0.12204793648 0.12494713512 
0.12854110222 0.13281208042 0.13766889597 0.14294909073 0.14843319571 0.15386949465 0.15900258057 0.16359934739 0.16747086538 
0.17049113821 0.1726096518 0.1738503561 0.17429459943 0.17405537762 0.17325285883 0.17199517574 0.17036306495 0.16839689928 
0.16608819531 0.16338137758 0.16019030744 0.15642522926 0.15201704528 0.14692738844 0.14114378517 0.13466936374 0.12751777808 
0.11971726518 0.11132089786 0.10241746337 0.093137574678 0.083650865993 0.074152301258 0.06483880686 0.05588142601 0.047402473282 
0.039469040771 0.032108141052 0.025335387334 0.019181518285 0.013706542804 0.0090002871245 0.005172459493 0.0023362833368 0.00058995073618 
6.0843593178e-17 
