# vtk DataFile Version 5.1
vtk output
ASCII
DATASET POLYDATA
POINTS 100 float
0.187273 0.0296926 -0.691238 0.186769 0.029762 -0.690948 0.185297 0.0298285 -0.69015 
0.18294 0.0298985 -0.688804 0.179828 0.0299787 -0.686846 0.176121 0.0300711 -0.684198 
0.171986 0.0301665 -0.680778 0.16758 0.03024 -0.676507 0.163029 0.0302466 -0.67132 
0.158413 0.0301209 -0.665176 0.153757 0.0297797 -0.658058 0.149029 0.0291273 -0.649977 
0.144149 0.0280651 -0.640969 0.138996 0.0265023 -0.63109 0.133428 0.0243674 -0.620408 
0.127304 0.0216189 -0.608997 0.120502 0.0182541 -0.596925 0.112938 0.0143133 -0.584248 
0.104583 0.00988041 -0.571007 0.0954621 0.00507778 -0.557224 0.0856633 5.72822e-05 -0.542903 
0.0753239 -0.00501258 -0.528033 0.0646188 -0.0099616 -0.512594 0.0537412 -0.0146332 -0.496564 
0.0428824 -0.0188981 -0.479924 0.0322106 -0.0226653 -0.462662 0.0218539 -0.0258879 -0.44478 
0.0118882 -0.0285645 -0.426295 0.00233123 -0.0307346 -0.407232 -0.00685464 -0.0324695 -0.387627 
-0.0157534 -0.0338602 -0.367517 -0.0244793 -0.035003 -0.346938 -0.0331571 -0.0359852 -0.325915 
-0.0419002 -0.0368726 -0.30446 -0.0507889 -0.0377013 -0.282569 -0.0598532 -0.0384729 -0.260227 
-0.0690604 -0.0391557 -0.237405 -0.0783096 -0.0396902 -0.214072 -0.087435 -0.039999 -0.190204 
-0.0962156 -0.0399989 -0.165788 -0.104393 -0.0396144 -0.140837 -0.11169 -0.0387896 -0.115395 
-0.117842 -0.037498 -0.0895416 -0.12261 -0.0357482 -0.0633928 -0.125813 -0.0335856 -0.0370977 
-0.127338 -0.0310881 -0.0108314 -0.127149 -0.0283589 0.0152155 -0.125297 -0.0255159 0.0408502 
-0.121908 -0.0226786 0.0658912 -0.117174 -0.0199569 0.0901819 -0.111338 -0.0174394 0.113602 
-0.104671 -0.0151868 0.136075 -0.097453 -0.0132273 0.157573 -0.0899484 -0.0115581 0.178115 
-0.0823916 -0.0101493 0.197762 -0.0749709 -0.00895199 0.216612 -0.0678201 -0.00790753 0.234781 
-0.0610158 -0.00695802 0.252399 -0.0545798 -0.00605538 0.269592 -0.0484861 -0.00516832 0.286474 
-0.0426719 -0.00428635 0.303137 -0.037051 -0.00342023 0.319646 -0.0315274 -0.00259914 0.336042 
-0.0260086 -0.00186517 0.352338 -0.0204174 -0.00126614 0.368527 -0.0147 -0.000848009 0.38459 
-0.00883201 -0.000648093 0.400501 -0.00282049 -0.000690183 0.416234 0.00329727 -0.000982289 0.431771 
0.00945747 -0.00151729 0.447102 0.0155757 -0.0022763 0.462228 0.0215544 -0.00323402 0.477157 
0.0272903 -0.00436511 0.491903 0.0326828 -0.00565041 0.506478 0.0376406 -0.00708174 0.520884 
0.042088 -0.00866435 0.535112 0.0459696 -0.0104164 0.549134 0.0492529 -0.0123655 0.562904 
0.0519303 -0.014542 0.576355 0.0540185 -0.0169715 0.589401 0.0555572 -0.0196656 0.601948 
0.056606 -0.0226141 0.613893 0.0572406 -0.0257797 0.625137 0.0575477 -0.0290949 0.635592 
0.0576197 -0.0324648 0.645183 0.0575492 -0.0357719 0.653862 0.0574229 -0.0388869 0.661602 
0.0573169 -0.0416804 0.668405 0.0572918 -0.0440374 0.674297 0.0573897 -0.0458701 0.679326 
0.057632 -0.0471293 0.683557 0.0580194 -0.0478114 0.687065 0.0585328 -0.0479609 0.689933 
0.0591363 -0.047667 0.692242 0.0597818 -0.0470552 0.694069 0.0604138 -0.0462739 0.695483 
0.0609756 -0.0454783 0.696541 0.0614151 -0.0448133 0.697291 0.0616903 -0.0443967 0.697764 
0.0617735 -0.0443059 0.697979 
LINES 2 100
OFFSETS vtktypeint64
0 100 
CONNECTIVITY vtktypeint64
0 1 2 3 4 5 6 7 8 
9 10 11 12 13 14 15 16 17 
18 19 20 21 22 23 24 25 26 
27 28 29 30 31 32 33 34 35 
36 37 38 39 40 41 42 43 44 
45 46 47 48 49 50 51 52 53 
54 55 56 57 58 59 60 61 62 
63 64 65 66 67 68 69 70 71 
72 73 74 75 76 77 78 79 80 
81 82 83 84 85 86 87 88 89 
90 91 92 93 94 95 96 97 98 
99 
POINT_DATA 100
FIELD FieldData 3
_theta 1 100 double
0 0.031733259127 0.063466518254 0.095199777382 0.12693303651 0.15866629564 0.19039955476 0.22213281389 0.25386607302 
0.28559933214 0.31733259127 0.3490658504 0.38079910953 0.41253236865 0.44426562778 0.47599888691 0.50773214603 0.53946540516 
0.57119866429 0.60293192342 0.63466518254 0.66639844167 0.6981317008 0.72986495992 0.76159821905 0.79333147818 0.82506473731 
0.85679799643 0.88853125556 0.92026451469 0.95199777382 0.98373103294 1.0154642921 1.0471975512 1.0789308103 1.1106640695 
1.1423973286 1.1741305877 1.2058638468 1.237597106 1.2693303651 1.3010636242 1.3327968833 1.3645301425 1.3962634016 
1.4279966607 1.4597299198 1.491463179 1.5231964381 1.5549296972 1.5866629564 1.6183962155 1.6501294746 1.6818627337 
1.7135959929 1.745329252 1.7770625111 1.8087957702 1.8405290294 1.8722622885 1.9039955476 1.9357288068 1.9674620659 
1.999195325 2.0309285841 2.0626618433 2.0943951024 2.1261283615 2.1578616206 2.1895948798 2.2213281389 2.253061398 
2.2847946572 2.3165279163 2.3482611754 2.3799944345 2.4117276937 2.4434609528 2.4751942119 2.506927471 2.5386607302 
2.5703939893 2.6021272484 2.6338605076 2.6655937667 2.6973270258 2.7290602849 2.7607935441 2.7925268032 2.8242600623 
2.8559933214 2.8877265806 2.9194598397 2.9511930988 2.982926358 3.0146596171 3.0463928762 3.0781261353 3.1098593945 
3.1415926536 
_radius 1 100 double
1.2305194673e-15 0.016422229901 0.032621357696 0.048391741126 0.063558104718 0.077985112863 0.091581088178 0.10429535621 0.11610988336 
0.12702716225 0.13705730509 0.14620753357 0.15447646316 0.1618540709 0.16832665118 0.17388494384 0.1785331655 0.18229683688 
0.18522788948 0.18740629891 0.18893816082 0.18995052731 0.19058347033 0.19097989879 0.19127381601 0.19157805118 0.19197297381 
0.19249810758 0.19314861952 0.19387812443 0.19460808162 0.19524257795 0.19568605268 0.19586102645 0.19572322095 0.19527219055 
0.19455625121 0.19367101189 0.19275156707 0.19195973796 0.19146926036 0.19145219735 0.19206805579 0.19345410496 0.19571392597 
0.19890285816 0.20301263616 0.20796048846 0.21358814591 0.21967328313 0.22595169369 0.23214549252 0.23799199121 0.24326892443 
0.24781321033 0.25153175191 0.25440383341 0.25647550359 0.25784701609 0.25865495628 0.25905117221 0.25918105893 0.25916401858 
0.25907882221 0.25895596188 0.25877794037 0.25848704516 0.25799883 0.25721860353 0.25605789626 0.25444814411 0.25234956419 
0.24975422573 0.24668342326 0.24318040525 0.2393000982 0.23509759065 0.23061687817 0.22588097886 0.22088430763 0.21558824749 
0.20992098275 0.2037825024 0.19705497897 0.18961752554 0.18136305267 0.17221419126 0.16213539543 0.15113926819 0.13928637158 
0.12667885549 0.11344904446 0.099744728908 0.085713330873 0.071487257189 0.057172522591 0.04284212405 0.028534788319 0.014258810857 
2.7471601422e-16 
_area 1 100 double
0 0.00060152930984 0.0023900633499 0.0053169491224 0.0093002793596 0.014225951893 0.019951950008 0.026315814807 0.033143765375 
0.040259375863 0.04749007532 0.054670422372 0.06164202489 0.068251418249 0.074348889286 0.079791912958 0.084455270077 0.088246230306 
0.091119805591 0.09308864091 0.094224599489 0.094652186455 0.094535811844 0.094063310887 0.093427620559 0.09280791 0.092351598918 
0.092158979393 0.092272020864 0.092670196055 0.093278465521 0.093991118343 0.094708406458 0.095375172578 0.096006932836 0.096689639846 
0.097544475152 0.098667251034 0.10008007773 0.10173247995 0.10354880323 0.10548748681 0.10758395846 0.10996581016 0.11283526727 
0.11642206252 0.12092208191 0.12643882321 0.13294499618 0.14027463843 0.14814382296 0.15619172148 0.1640302324 0.1712915437 
0.17766778054 0.18294009067 0.18699629659 0.18984091365 0.19162953706 0.1925737451 0.19279512864 0.19259655515 0.19220343894 
0.1915462234 0.19067170577 0.18963107802 0.1884414841 0.1870817191 0.1854955868 0.18360150159 0.18130399846 0.17850763329 
0.1751332281 0.1711310307 0.16648641043 0.16121912988 0.15537900226 0.14903868986 0.14228286738 0.13519434628 0.12784073463 
0.12026657735 0.11249372551 0.10452855954 0.096372348674 0.088031554343 0.079525867328 0.070892319507 0.062186516044 0.053486514831 
0.044902771804 0.036586264609 0.028722947361 0.021513563578 0.015147887205 0.0097831763865 0.0055327048745 0.0024658269696 0.00061719397477 
1.1302702588e-17 
