# vtk DataFile Version 5.1
vtk output
ASCII
DATASET POLYDATA
POINTS 100 float
0.122433 0.0480228 -0.66087 0.122413 0.0479035 -0.661173 0.122393 0.0473445 -0.661986 
0.122385 0.0463748 -0.663172 0.122406 0.0450387 -0.664519 0.122472 0.0433897 -0.665767 
0.122592 0.0414842 -0.666625 0.12276 0.0393739 -0.666808 0.122952 0.0371002 -0.666057 
0.123119 0.0346891 -0.664168 0.123186 0.0321483 -0.660999 0.123052 0.0294679 -0.656481 
0.122595 0.0266223 -0.650618 0.121676 0.0235755 -0.643471 0.120148 0.0202873 -0.635146 
0.117872 0.016721 -0.625773 0.11472 0.0128506 -0.615482 0.110593 0.00866768 -0.604386 
0.105428 0.00418586 -0.592567 0.099208 -0.000556583 -0.580063 0.0919603 -0.00549697 -0.566872 
0.0837619 -0.010551 -0.552954 0.0747324 -0.0156179 -0.538241 0.0650264 -0.0205873 -0.522657 
0.0548221 -0.0253468 -0.506132 0.044307 -0.0297902 -0.488618 0.0336644 -0.0338241 -0.470102 
0.0230584 -0.0373736 -0.450615 0.0126233 -0.0403859 -0.43023 0.00245431 -0.0428312 -0.409059 
-0.00739566 -0.0447014 -0.387243 -0.0169153 -0.0460075 -0.36493 -0.0261286 -0.0467746 -0.342266 
-0.035085 -0.047037 -0.319372 -0.0438453 -0.0468325 -0.296334 -0.0524664 -0.0461983 -0.273191 
-0.0609858 -0.0451672 -0.249935 -0.0694077 -0.0437664 -0.226515 -0.0776929 -0.0420173 -0.202845 
-0.0857531 -0.0399373 -0.178827 -0.093451 -0.0375424 -0.154361 -0.100607 -0.0348515 -0.129372 
-0.107008 -0.0318897 -0.103824 -0.112431 -0.0286915 -0.0777352 -0.116651 -0.0253034 -0.0511819 
-0.119471 -0.0217841 -0.0243018 -0.120737 -0.0182039 0.00271575 -0.120354 -0.0146419 0.0296437 
-0.118297 -0.0111818 0.0562365 -0.114617 -0.00790725 0.0822521 -0.10944 -0.00489623 0.107474 
-0.102956 -0.00221587 0.131731 -0.095406 8.18007e-05 0.15491 -0.0870643 0.00196295 0.176968 
-0.0782162 0.00341336 0.19793 -0.0691362 0.00443801 0.217882 -0.0600684 0.00505908 0.236961 
-0.0512101 0.00531242 0.255336 -0.0427008 0.00524312 0.273187 -0.0346171 0.00490063 0.290687 
-0.026974 0.00433392 0.307982 -0.0197326 0.0035874 0.325181 -0.0128117 0.00269782 0.342341 
-0.00610352 0.00169258 0.359474 0.000509759 0.000589488 0.376543 0.00713958 -0.000602187 0.393477 
0.013877 -0.00187944 0.410184 0.0207823 -0.0032426 0.426563 0.0278792 -0.00469203 0.442522 
0.0351536 -0.00622508 0.457991 0.0425572 -0.00783359 0.472929 0.0500146 -0.00950231 0.487331 
0.0574331 -0.0112085 0.501224 0.0647136 -0.0129226 0.514668 0.0717607 -0.0146101 0.52774 
0.0784915 -0.0162344 0.540526 0.0848422 -0.0177595 0.553105 0.0907705 -0.0191539 0.565539 
0.0962554 -0.0203932 0.577862 0.101294 -0.0214627 0.590072 0.105897 -0.0223588 0.602128 
0.110082 -0.0230896 0.613952 0.113867 -0.0236737 0.625437 0.117265 -0.0241391 0.636451 
0.120281 -0.0245198 0.646855 0.122915 -0.0248529 0.656509 0.125157 -0.0251753 0.665291 
0.126995 -0.0255196 0.673103 0.128421 -0.0259115 0.679883 0.129434 -0.0263675 0.685608 
0.130047 -0.0268933 0.690298 0.13029 -0.0274833 0.694011 0.130212 -0.0281216 0.696841 
0.129881 -0.0287836 0.698907 0.129379 -0.029438 0.700345 0.128795 -0.0300504 0.701295 
0.12822 -0.0305865 0.701891 0.127736 -0.0310149 0.702248 0.12741 -0.0313109 0.702456 
0.127283 -0.0314582 0.702571 
LINES 2 100
OFFSETS vtktypeint64
0 100 
CONNECTIVITY vtktypeint64
0 1 2 3 4 5 6 7 8 
9 10 11 12 13 14 15 16 17 
18 19 20 21 22 23 24 25 26 
27 28 29 30 31 32 33 34 35 
36 37 38 39 40 41 42 43 44 
45 46 47 48 49 50 51 52 53 
54 55 56 57 58 59 60 61 62 
63 64 65 66 67 68 69 70 71 
72 73 74 75 76 77 78 79 80 
81 82 83 84 85 86 87 88 89 
90 91 92 93 94 95 96 97 98 
99 
POINT_DATA 100
FIELD FieldData 3
_theta 1 100 double
0 0.031733259127 0.063466518254 0.095199777382 0.12693303651 0.15866629564 0.19039955476 0.22213281389 0.25386607302 
0.28559933214 0.31733259127 0.3490658504 0.38079910953 0.41253236865 0.44426562778 0.47599888691 0.50773214603 0.53946540516 
0.57119866429 0.60293192342 0.63466518254 0.66639844167 0.6981317008 0.72986495992 0.76159821905 0.79333147818 0.82506473731 
0.85679799643 0.88853125556 0.92026451469 0.95199777382 0.98373103294 1.0154642921 1.0471975512 1.0789308103 1.1106640695 
1.1423973286 1.1741305877 1.2058638468 1.237597106 1.2693303651 1.3010636242 1.3327968833 1.3645301425 1.3962634016 
1.4279966607 1.4597299198 1.491463179 1.5231964381 1.5549296972 1.5866629564 1.6183962155 1.6501294746 1.6818627337 
1.7135959929 1.745329252 1.7770625111 1.8087957702 1.8405290294 1.8722622885 1.9039955476 1.9357288068 1.9674620659 
1.999195325 2.0309285841 2.0626618433 2.0943951024 2.1261283615 2.1578616206 2.1895948798 2.2213281389 2.253061398 
2.2847946572 2.3165279163 2.3482611754 2.3799944345 2.4117276937 2.4434609528 2.4751942119 2.506927471 2.5386607302 
2.5703939893 2.6021272484 2.6338605076 2.6655937667 2.6973270258 2.7290602849 2.7607935441 2.7925268032 2.8242600623 
2.8559933214 2.8877265806 2.9194598397 2.9511930988 2.982926358 3.0146596171 3.0463928762 3.0781261353 3.1098593945 
3.1415926536 
_radius 1 100 double
1.4637612726e-16 0.017077019156 0.033995266261 0.050598215391 0.066744410188 0.082314442001 0.097216401841 0.11138838999 0.12479672528 
0.13742921773 0.14928419484 0.16035747803 0.17063051393 0.18006286569 0.18859127408 0.19613595655 0.20261323157 0.2079522513 
0.21211276139 0.21510050621 0.21697724127 0.21786325671 0.21793165772 0.2173950944 0.21648689497 0.21543939925 0.21446253817 
0.21372525612 0.21334138242 0.21336058755 0.2137647381 0.21447031545 0.21533790172 0.21618932227 0.2168317105 0.21708597813 
0.21681563254 0.21595113532 0.21450522893 0.21257583328 0.21033539785 0.2080091563 0.20584847112 0.2041067957 0.20302301868 
0.20281146608 0.20365331346 0.20568387353 0.20897447527 0.21351340441 0.21919345723 0.22581210934 0.23308590322 0.24067663106 
0.24822475429 0.25538491435 0.26185866929 0.2674204328 0.27193385719 0.27535737343 0.27773902686 0.2792019497 0.27992272448 
0.28010549937 0.27995500078 0.27965152937 0.279330623 0.27906937174 0.27888046627 0.27871408059 0.27846677152 0.2779958426 
0.27713714133 0.27572404897 0.27360545436 0.27066075438 0.26681037805 0.26202095376 0.25630493603 0.2497151542 0.24233524395 
0.23426724255 0.22561779482 0.21648447099 0.20694366692 0.19704143726 0.18678836907 0.17615919792 0.16509729988 0.15352353284 
0.14134828575 0.12848517369 0.11486467229 0.10044610768 0.08522673124 0.069247027536 0.052591858483 0.03538748328 0.017794869788 
9.1464553585e-16 
_area 1 100 double
0 0.00073452625763 0.0029197228339 0.0065011063226 0.011391118937 0.017475239608 0.024618577639 0.032669481634 0.041459639432 
0.050800622008 0.060476231996 0.070234610616 0.079788697354 0.088830131843 0.097052511675 0.10417412059 0.10995305079 0.11419636686 
0.11677141712 0.11762489691 0.11680531193 0.11447623233 0.11091076295 0.10647146244 0.10158704344 0.096730383698 0.092399169012 
0.089083363314 0.08715265465 0.086748510774 0.087859989417 0.090364562921 0.093961142113 0.098171146656 0.10245641276 0.1063424764 
0.1094967952 0.11178244471 0.11329635735 0.1143144518 0.11506954226 0.11564769652 0.11609425234 0.11647375943 0.11689513177 
0.11755664119 0.11879877068 0.12104012342 0.12457179246 0.12959035057 0.13623582659 0.14449115187 0.15413039939 0.16473100799 
0.17572997297 0.18653113786 0.19668220387 0.20550369954 0.21277130965 0.21789469708 0.22087318428 0.22203244348 0.22178213715 
0.22049006606 0.21851302365 0.21610394681 0.21345926994 0.21071506628 0.20795157099 0.20518370549 0.20234108643 0.19929919664 
0.19589839282 0.19194306238 0.18723249643 0.18160820043 0.17499487987 0.16741711471 0.15898915735 0.14988754125 0.14031762447 
0.13048242679 0.12055933993 0.11068721455 0.10096268207 0.091442495329 0.082149511283 0.073081900089 0.064225934256 0.055571902624 
0.047131130612 0.038950696048 0.031122108485 0.023781472356 0.017100938966 0.011273341928 0.0064930092393 0.0029358878244 0.00074168305325 
1.734723476e-18 
