# vtk DataFile Version 5.1
vtk output
ASCII
DATASET POLYDATA
POINTS 100 float
0.225925 0.0477451 -0.678156 0.225409 0.0478175 -0.678107 0.224021 0.0478877 -0.678029 
0.221837 0.0479588 -0.677847 0.218971 0.048034 -0.67744 0.215559 0.0481143 -0.676664 
0.211736 0.0481953 -0.675363 0.207616 0.0482639 -0.673391 0.203276 0.0482953 -0.670626 
0.198741 0.048251 -0.666987 0.193979 0.0480777 -0.662433 0.188902 0.0477075 -0.65697 
0.183377 0.0470605 -0.65064 0.177246 0.0460477 -0.643511 0.170345 0.0445766 -0.635664 
0.162527 0.0425572 -0.62717 0.153692 0.0399088 -0.618083 0.1438 0.0365669 -0.608421 
0.132886 0.0324901 -0.598164 0.121066 0.0276653 -0.587251 0.108527 0.0221126 -0.575587 
0.0955162 0.0158869 -0.563055 0.0823191 0.00907876 -0.549531 0.069231 0.00181201 -0.5349 
0.0565298 -0.00576006 -0.519074 0.0444482 -0.013461 -0.502006 0.0331519 -0.0210987 -0.483694 
0.0227248 -0.0284747 -0.46419 0.0131632 -0.0353932 -0.443589 0.00438132 -0.0416708 -0.422023 
-0.00377521 -0.0471456 -0.399645 -0.0115065 -0.0516845 -0.376611 -0.0190307 -0.0551901 -0.353064 
-0.0265542 -0.0576043 -0.329118 -0.0342429 -0.0589106 -0.304849 -0.0421975 -0.0591337 -0.28029 
-0.0504373 -0.058337 -0.25543 -0.0588919 -0.0566176 -0.23023 -0.0674042 -0.0541007 -0.204629 
-0.075742 -0.0509311 -0.178565 -0.083619 -0.0472658 -0.151994 -0.090721 -0.0432649 -0.124901 
-0.0967363 -0.0390839 -0.0973166 -0.101384 -0.0348666 -0.069324 -0.104443 -0.0307393 -0.0410557 
-0.10577 -0.0268072 -0.0126894 -0.10531 -0.0231519 0.0155656 -0.103108 -0.0198311 0.0434851 
-0.099293 -0.0168807 0.0708492 -0.0940731 -0.0143165 0.0974606 -0.0877106 -0.0121391 0.123161 
-0.0805005 -0.0103373 0.147844 -0.072744 -0.00889308 0.171457 -0.0647255 -0.0077845 0.194006 
-0.0566913 -0.00698911 0.215542 -0.0488349 -0.0064854 0.236157 -0.0412881 -0.00625314 0.255964 
-0.0341193 -0.00627269 0.275083 -0.0273376 -0.00652322 0.293626 -0.0209031 -0.0069804 0.311688 
-0.01474 -0.00761406 0.329334 -0.00875289 -0.00838615 0.346604 -0.0028421 -0.00924965 0.363511 
0.00308137 -0.0101487 0.380048 0.00908442 -0.0110201 0.396197 0.0152039 -0.0117966 0.411941 
0.0214426 -0.0124109 0.427271 0.02777 -0.0128017 0.442191 0.0341258 -0.0129183 0.456725 
0.0404269 -0.0127274 0.470909 0.046576 -0.0122163 0.484792 0.0524709 -0.0113968 0.498423 
0.0580141 -0.0103057 0.511842 0.0631205 -0.009003 0.52507 0.0677241 -0.00756832 0.538103 
0.0717827 -0.00609449 0.550904 0.07528 -0.0046797 0.563407 0.0782258 -0.00341863 0.575518 
0.0806543 -0.00239353 0.587125 0.0826208 -0.00166601 0.598113 0.0841976 -0.00127073 0.608376 
0.085468 -0.00121152 0.617831 0.0865218 -0.00146052 0.626429 0.0874487 -0.00196052 0.634166 
0.0883333 -0.00263044 0.641081 0.0892504 -0.00337334 0.647254 0.0902602 -0.00408624 0.652797 
0.0914055 -0.0046708 0.657841 0.0927091 -0.00504366 0.662517 0.0941728 -0.00514532 0.666943 
0.0957777 -0.00494662 0.671204 0.0974855 -0.00445213 0.675347 0.0992417 -0.0036999 0.679368 
0.100979 -0.0027577 0.683217 0.102623 -0.00171597 0.686802 0.104097 -0.000678383 0.690005 
0.105328 0.000249139 0.692692 0.106252 0.000969697 0.694735 0.106819 0.00140576 0.696029 
0.106999 0.00150744 0.696505 
LINES 2 100
OFFSETS vtktypeint64
0 100 
CONNECTIVITY vtktypeint64
0 1 2 3 4 5 6 7 8 
9 10 11 12 13 14 15 16 17 
18 19 20 21 22 23 24 25 26 
27 28 29 30 31 32 33 34 35 
36 37 38 39 40 41 42 43 44 
45 46 47 48 49 50 51 52 53 
54 55 56 57 58 59 60 61 62 
63 64 65 66 67 68 69 70 71 
72 73 74 75 76 77 78 79 80 
81 82 83 84 85 86 87 88 89 
90 91 92 93 94 95 96 97 98 
99 
POINT_DATA 100
FIELD FieldData 3
_theta 1 100 double
0 0.031733259127 0.063466518254 0.095199777382 0.12693303651 0.15866629564 0.19039955476 0.22213281389 0.25386607302 
0.28559933214 0.31733259127 0.3490658504 0.38079910953 0.41253236865 0.44426562778 0.47599888691 0.50773214603 0.53946540516 
0.57119866429 0.60293192342 0.63466518254 0.66639844167 0.6981317008 0.72986495992 0.76159821905 0.79333147818 0.82506473731 
0.85679799643 0.88853125556 0.92026451469 0.95199777382 0.98373103294 1.0154642921 1.0471975512 1.0789308103 1.1106640695 
1.1423973286 1.1741305877 1.2058638468 1.237597106 1.2693303651 1.3010636242 1.3327968833 1.3645301425 1.3962634016 
1.4279966607 1.4597299198 1.491463179 1.5231964381 1.5549296972 1.5866629564 1.6183962155 1.6501294746 1.6818627337 
1.7135959929 1.745329252 1.7770625111 1.8087957702 1.8405290294 1.8722622885 1.9039955476 1.9357288068 1.9674620659 
1.999195325 2.0309285841 2.0626618433 2.0943951024 2.1261283615 2.1578616206 2.1895948798 2.2213281389 2.253061398 
2.2847946572 2.3165279163 2.3482611754 2.3799944345 2.4117276937 2.4434609528 2.4751942119 2.506927471 2.5386607302 
2.5703939893 2.6021272484 2.6338605076 2.6655937667 2.6973270258 2.7290602849 2.7607935441 2.7925268032 2.8242600623 
2.8559933214 2.8877265806 2.9194598397 2.9511930988 2.982926358 3.0146596171 3.0463928762 3.0781261353 3.1098593945 
3.1415926536 
_radius 1 100 double
1.2366814339e-15 0.017627355783 0.035144513081 0.052451856213 0.069464850785 0.086109659735 0.10231029672 0.11797145304 0.13296326572 
0.14711393855 0.16021359363 0.17202932453 0.18232856361 0.19090632832 0.19761165891 0.20236919098 0.20519292499 0.20619064034 
0.20555892567 0.20357027733 0.20055483791 0.19687971558 0.19292816829 0.1890793593 0.18568758298 0.18305904959 0.18142575703 
0.18091976863 0.18155510579 0.18322477461 0.18571593781 0.18874015585 0.19197200804 0.1950890878 0.19780778459 0.19991107866 
0.20126634039 0.20183276729 0.20165957364 0.20087728181 0.19968513207 0.19833721267 0.19712824883 0.19637776192 0.19640973776 
0.19752510422 0.19996682173 0.20388202409 0.20929059047 0.2160712799 0.2239722652 0.23264402134 0.24168494796 0.2506885101 
0.25928402234 0.26716736817 0.27412052994 0.28001992258 0.28483410115 0.28861200617 0.29146361858 0.29353560799 0.29498513391 
0.29595525863 0.29655529448 0.29684868725 0.29684972035 0.29652865878 0.29582340798 0.2946547969 0.29294240055 0.29061826962 
0.28763673267 0.2839793034 0.27965450787 0.27469310786 0.26913975108 0.26304252271 0.25644216275 0.24936278079 0.24180570153 
0.23374761624 0.22514355405 0.21593440149 0.20605789342 0.19546131156 0.18411372213 0.1720155914 0.15920405529 0.14575288072 
0.13176706138 0.11737287328 0.10270494076 0.087892312804 0.073045634036 0.058247211981 0.043545241556 0.028952803683 0.014451623085 
7.6843643445e-16 
_area 1 100 double
0 0.00061144382957 0.0024438942278 0.0054902042626 0.0097333961533 0.015138946753 0.021644332387 0.029147050081 0.037492590024 
0.046463764607 0.055773962547 0.065069232323 0.073944652414 0.081977254417 0.088772377115 0.094015238705 0.097516223738 0.099238080749 
0.099296794288 0.097934788303 0.095473436573 0.092259687785 0.088626377845 0.084882312767 0.081336372992 0.078362074514 0.076474808965 
0.075914323405 0.076624612025 0.078503914554 0.081391977325 0.085057630027 0.089198649179 0.093470913961 0.09754783427 0.10118600537 
0.10425748243 0.10672238949 0.10857575478 0.10983645106 0.11057542691 0.11091855253 0.11118849931 0.11144016492 0.1120598586 
0.11355347848 0.116328125 0.12071475515 0.12700281651 0.13535167873 0.14571277881 0.15779380663 0.17107374853 0.18487203294 
0.19845084457 0.21112058986 0.22232636788 0.23170281527 0.23909296127 0.24453431391 0.24822044054 0.25044735594 0.25155232797 
0.25185141547 0.25158340758 0.25087084015 0.24970917478 0.24798878908 0.24554254708 0.24220229859 0.23784690949 0.23243073734 
0.22598946564 0.21862652876 0.21048710591 0.20172776787 0.19248886209 0.18287492796 0.17294673304 0.16272630663 0.15221284687 
0.14140376174 0.1303138433 0.11898764849 0.1075038823 0.095973303622 0.08453220728 0.073332907907 0.062532524583 0.052281972933 
0.042717337421 0.033954952651 0.02608989455 0.0191962564 0.013327629272 0.008517617444 0.004781611393 0.002120992543 0.00052950082823 
6.9449951467e-17 
