# vtk DataFile Version 5.1
vtk output
ASCII
DATASET POLYDATA
POINTS 100 float
0.224897 0.123875 -0.842307 0.224186 0.123632 -0.841787 0.222114 0.122754 -0.840293 
0.218813 0.121263 -0.837822 0.214484 0.119198 -0.834367 0.209376 0.116604 -0.829926 
0.203749 0.113526 -0.824505 0.197851 0.110007 -0.818119 0.191881 0.106081 -0.8108 
0.185971 0.101767 -0.802592 0.180171 0.0970699 -0.793552 0.174444 0.0919784 -0.783745 
0.168677 0.0864699 -0.773237 0.162694 0.0805153 -0.762086 0.156289 0.0740855 -0.750339 
0.14925 0.0671594 -0.738017 0.141395 0.059732 -0.725117 0.132593 0.051821 -0.711606 
0.122795 0.0434727 -0.697423 0.112033 0.0347641 -0.682485 0.100433 0.0258037 -0.666695 
0.0881942 0.016728 -0.649952 0.0755761 0.00769636 -0.632162 0.0628676 -0.00111737 -0.613252 
0.0503573 -0.00953411 -0.593176 0.0383028 -0.0173798 -0.571922 0.0269034 -0.0244954 -0.549517 
0.0162809 -0.0307458 -0.526021 0.00646939 -0.0360269 -0.501524 -0.00258395 -0.04027 -0.476136 
-0.0110072 -0.0434445 -0.449972 -0.0189828 -0.045557 -0.423146 -0.0267203 -0.0466482 -0.395757 
-0.0344256 -0.0467885 -0.367877 -0.0422699 -0.0460716 -0.339554 -0.0503641 -0.044608 -0.310805 
-0.0587389 -0.0425178 -0.281627 -0.067335 -0.0399246 -0.252 -0.0760043 -0.0369507 -0.221901 
-0.0845201 -0.0337126 -0.191321 -0.0925978 -0.0303182 -0.160271 -0.0999212 -0.0268657 -0.128797 
-0.106173 -0.0234427 -0.0969848 -0.111066 -0.0201263 -0.064964 -0.114368 -0.0169833 -0.032902 
-0.115928 -0.0140706 -0.000997164 -0.115684 -0.0114356 0.0305352 -0.113671 -0.00911565 0.0614782 
-0.110015 -0.00713785 0.0916308 -0.104918 -0.00551833 0.120824 -0.0986401 -0.00426179 0.148933 
-0.0914725 -0.0033612 0.175888 -0.0837149 -0.00279816 0.201677 -0.0756496 -0.00254397 0.226345 
-0.0675217 -0.00256151 0.249982 -0.0595243 -0.00280804 0.272717 -0.0517901 -0.00323861 0.294698 
-0.0443901 -0.00380987 0.316077 -0.0373384 -0.00448398 0.336996 -0.0306027 -0.0052321 0.35757 
-0.0241171 -0.00603716 0.377883 -0.0177983 -0.00689547 0.397978 -0.0115597 -0.007817 0.417861 
-0.0053248 -0.00882422 0.437506 0.00096244 -0.00994941 0.456861 0.00733175 -0.011231 0.475864 
0.0137842 -0.0127088 0.494451 0.0202937 -0.0144191 0.512568 0.0268116 -0.0163902 0.53018 
0.0332734 -0.0186376 0.547277 0.039606 -0.0211616 0.563872 0.0457357 -0.0239459 0.58 
0.0515945 -0.0269573 0.595711 0.0571252 -0.0301483 0.611061 0.0622844 -0.0334597 0.626102 
0.0670436 -0.036826 0.64087 0.0713884 -0.0401803 0.655379 0.075317 -0.0434598 0.669612 
0.0788369 -0.046611 0.683524 0.0819621 -0.0495936 0.697038 0.0847102 -0.0523839 0.710052 
0.0871002 -0.0549752 0.72245 0.0891511 -0.0573776 0.734109 0.0908813 -0.0596159 0.744908 
0.0923084 -0.0617253 0.754746 0.0934504 -0.063747 0.763544 0.0943261 -0.0657225 0.771252 
0.0949567 -0.0676884 0.777859 0.0953657 -0.0696713 0.783388 0.09558 -0.0716842 0.787894 
0.0956296 -0.0737239 0.791462 0.0955468 -0.07577 0.7942 0.0953657 -0.0777864 0.796228 
0.0951207 -0.0797239 0.797673 0.094845 -0.0815237 0.798662 0.0945695 -0.0831232 0.799309 
0.0943214 -0.0844611 0.79972 0.0941229 -0.0854829 0.799976 0.0939905 -0.0861462 0.800139 
0.0939345 -0.0864243 0.800246 
LINES 2 100
OFFSETS vtktypeint64
0 100 
CONNECTIVITY vtktypeint64
0 1 2 3 4 5 6 7 8 
9 10 11 12 13 14 15 16 17 
18 19 20 21 22 23 24 25 26 
27 28 29 30 31 32 33 34 35 
36 37 38 39 40 41 42 43 44 
45 46 47 48 49 50 51 52 53 
54 55 56 57 58 59 60 61 62 
63 64 65 66 67 68 69 70 71 
72 73 74 75 76 77 78 79 80 
81 82 83 84 85 86 87 88 89 
90 91 92 93 94 95 96 97 98 
99 
POINT_DATA 100
FIELD FieldData 3
_theta 1 100 double
0 0.031733259127 0.063466518254 0.095199777382 0.12693303651 0.15866629564 0.19039955476 0.22213281389 0.25386607302 
0.28559933214 0.31733259127 0.3490658504 0.38079910953 0.41253236865 0.44426562778 0.47599888691 0.50773214603 0.53946540516 
0.57119866429 0.60293192342 0.63466518254 0.66639844167 0.6981317008 0.72986495992 0.76159821905 0.79333147818 0.82506473731 
0.85679799643 0.88853125556 0.92026451469 0.95199777382 0.98373103294 1.0154642921 1.0471975512 1.0789308103 1.1106640695 
1.1423973286 1.1741305877 1.2058638468 1.237597106 1.2693303651 1.3010636242 1.3327968833 1.3645301425 1.3962634016 
1.4279966607 1.4597299198 1.491463179 1.5231964381 1.5549296972 1.5866629564 1.6183962155 1.6501294746 1.6818627337 
1.7135959929 1.745329252 1.7770625111 1.8087957702 1.8405290294 1.8722622885 1.9039955476 1.9357288068 1.9674620659 
1.999195325 2.0309285841 2.0626618433 2.0943951024 2.1261283615 2.1578616206 2.1895948798 2.2213281389 2.253061398 
2.2847946572 2.3165279163 2.3482611754 2.3799944345 2.4117276937 2.4434609528 2.4751942119 2.506927471 2.5386607302 
2.5703939893 2.6021272484 2.6338605076 2.6655937667 2.6973270258 2.7290602849 2.7607935441 2.7925268032 2.8242600623 
2.8559933214 2.8877265806 2.9194598397 2.9511930988 2.982926358 3.0146596171 3.0463928762 3.0781261353 3.1098593945 
3.1415926536 
_radius 1 100 double
7.2497329732e-16 0.017989834862 0.035648068842 0.052678019632 0.068847405148 0.084003050348 0.09806934307 0.11103225077 0.12291485537 
0.13375255968 0.14357527076 0.15240032168 0.16023534087 0.1670867381 0.17296825157 0.17790526392 0.18193356229 0.18509451474 
0.18743072093 0.18898599171 0.18981110878 0.1899735475 0.18956693188 0.1887154878 0.18757023495 0.18629649008 0.18505540425 
0.18398444341 0.18318191505 0.18269877157 0.18253806838 0.18266017989 0.18299135477 0.1834347833 0.1838858648 0.18425343542 
0.18448436732 0.18458405564 0.18462464455 0.18473614807 0.18508083515 0.18581756671 0.18706875907 0.18890355834 0.19134241078 
0.19437581654 0.19798429243 0.20214967603 0.20685423535 0.21206940083 0.21773964117 0.22376884915 0.23001575684 0.23630147662 
0.24242796068 0.24820286585 0.25346485511 0.25810370307 0.2620712308 0.26538145853 0.26810083499 0.27033146803 0.27219139631 
0.27379569237 0.27524085241 0.27659347609 0.27788338497 0.27910102358 0.28019888085 0.28109655673 0.28168891986 0.28185654327 
0.28147729376 0.28043769926 0.27864267127 0.27602238583 0.27253556709 0.26816895642 0.26293328917 0.25685658263 0.24997592406 
0.24232919441 0.23394821929 0.22485463822 0.21505928196 0.20456507511 0.1933725969 0.18148671025 0.16892239056 0.15570819465 
0.14188662082 0.12751162676 0.11264441622 0.097348980261 0.081688693673 0.065724660285 0.04951576269 0.033119793357 0.016594809724 
2.9661278846e-16 
_area 1 100 double
0 0.0006870666112 0.0027279407168 0.0060591570966 0.010569254968 0.016096879923 0.022435279638 0.029342703394 0.036556076356 
0.043806233351 0.050835062712 0.057415242436 0.06337052796 0.068590148228 0.073028615373 0.076686879739 0.079582635553 0.08172683668 
0.083119067171 0.083761457037 0.083683720912 0.082982570225 0.081922792851 0.080876657021 0.079860636478 0.078866008384 0.077940859234 
0.077124016608 0.076455760913 0.075988465718 0.075791694954 0.075947967173 0.076536494552 0.07760578691 0.079151988222 0.081106861669 
0.083344855967 0.085762409826 0.088382634263 0.091349475751 0.094721992736 0.098317598943 0.10188283444 0.10526433763 0.10845186581 
0.11157223743 0.11485013012 0.11854913472 0.12291810586 0.12813934331 0.13426029363 0.14114598187 0.14850911558 0.15599406109 
0.16325324654 0.17000738018 0.17605423559 0.18139286876 0.1860043118 0.18988676387 0.19290442667 0.19506690887 0.19643613414 
0.19711092234 0.19723126353 0.19740076905 0.19743507165 0.19740000266 0.1974202079 0.19741926689 0.19722827516 0.19669044601 
0.19566298382 0.19401871579 0.19165323642 0.18848277744 0.18443658752 0.179455608 0.17350038619 0.16656053217 0.15865888435 
0.14985082898 0.14022320709 0.12989532512 0.11901963223 0.10777670708 0.096361430504 0.084963452154 0.073751124719 0.062867827877 
0.052440605991 0.042592377541 0.033449964868 0.025146172053 0.01781730504 0.011597632359 0.006611937142 0.0029674092906 0.00074624176833 
6.4944966064e-17 
