# vtk DataFile Version 5.1
vtk output
ASCII
DATASET POLYDATA
POINTS 100 float
0.119062 0.0351892 -0.691316 0.118835 0.0354968 -0.691155 0.118205 0.0362224 -0.690749 
0.117194 0.03727 -0.690032 0.115835 0.038491 -0.688901 0.114167 0.0397 -0.687229 
0.112229 0.040694 -0.684874 0.110054 0.0412735 -0.681698 0.107663 0.0412619 -0.677575 
0.105063 0.040522 -0.672409 0.102241 0.0389685 -0.666137 0.0991668 0.0365727 -0.658737 
0.0957941 0.0333627 -0.650225 0.0920653 0.0294166 -0.640653 0.087918 0.0248518 -0.630097 
0.0832929 0.0198108 -0.618653 0.0781411 0.014446 -0.606419 0.0724322 0.00890592 -0.593489 
0.0661593 0.00332325 -0.579939 0.0593429 -0.0021926 -0.565826 0.0520314 -0.00755911 -0.551179 
0.0442989 -0.0127197 -0.536005 0.0362401 -0.017639 -0.520287 0.0279624 -0.0222964 -0.503996 
0.0195773 -0.0266772 -0.487094 0.0111904 -0.0307661 -0.469548 0.0028926 -0.0345406 -0.451331 
-0.00524791 -0.0379688 -0.432433 -0.0131901 -0.0410093 -0.412861 -0.0209221 -0.0436148 -0.392643 
-0.028459 -0.0457377 -0.371821 -0.0358374 -0.0473377 -0.350448 -0.0431072 -0.0483887 -0.328583 
-0.0503207 -0.0488848 -0.306281 -0.0575209 -0.0488443 -0.283587 -0.0647302 -0.0483099 -0.260534 
-0.0719409 -0.047346 -0.237136 -0.0791079 -0.0460323 -0.213392 -0.086146 -0.0444561 -0.189289 
-0.092931 -0.0427022 -0.164805 -0.0993057 -0.0408446 -0.139922 -0.105089 -0.0389383 -0.114634 
-0.110088 -0.0370155 -0.0889526 -0.114116 -0.0350844 -0.0629195 -0.117002 -0.0331325 -0.0366082 
-0.11861 -0.0311331 -0.0101273 -0.118846 -0.0290548 0.0163816 -0.117669 -0.0268719 0.0427501 
-0.115091 -0.0245744 0.0687914 -0.111177 -0.0221765 0.0943127 -0.10604 -0.0197212 0.119128 
-0.0998265 -0.0172807 0.143069 -0.0927092 -0.0149524 0.166003 -0.08487 -0.0128498 0.187834 
-0.0764877 -0.0110903 0.208517 -0.0677261 -0.00978121 0.228054 -0.0587254 -0.00900532 0.246495 
-0.049598 -0.00880808 0.263933 -0.0404271 -0.00918877 0.280494 -0.0312707 -0.0100964 0.296323 
-0.0221671 -0.0114315 0.311577 -0.0131441 -0.0130533 0.32641 -0.00422777 -0.0147927 0.34096 
0.00454926 -0.0164686 0.355342 0.0131413 -0.0179055 0.369644 0.0214862 -0.0189524 0.383918 
0.0295061 -0.0194974 0.398187 0.037111 -0.0194797 0.412443 0.0442063 -0.0188949 0.426651 
0.0507021 -0.0177947 0.440761 0.0565242 -0.0162805 0.454711 0.0616238 -0.0144912 0.468434 
0.0659859 -0.012588 0.481865 0.0696342 -0.0107368 0.494946 0.0726319 -0.00909134 0.507626 
0.075078 -0.00777817 0.519865 0.0770996 -0.0068857 0.531632 0.0788399 -0.00645816 0.542903 
0.0804446 -0.00649505 0.55366 0.0820469 -0.00695557 0.563883 0.0837542 -0.00776736 0.573556 
0.0856367 -0.00883804 0.582659 0.0877206 -0.0100679 0.591168 0.0899858 -0.0113619 0.599057 
0.0923696 -0.0126398 0.606302 0.0947745 -0.0138431 0.612877 0.0970811 -0.0149376 0.618765 
0.0991632 -0.0159131 0.623954 0.100904 -0.0167786 0.628448 0.10221 -0.0175563 0.63226 
0.103026 -0.0182735 0.635422 0.10334 -0.0189554 0.637979 0.103189 -0.0196187 0.63999 
0.10265 -0.0202681 0.641525 0.101841 -0.0208948 0.642658 0.100899 -0.0214785 0.643466 
0.0999697 -0.0219911 0.644022 0.0991874 -0.022402 0.644388 0.0986625 -0.0226839 0.644613 
0.0984665 -0.0228179 0.644727 
LINES 2 100
OFFSETS vtktypeint64
0 100 
CONNECTIVITY vtktypeint64
0 1 2 3 4 5 6 7 8 
9 10 11 12 13 14 15 16 17 
18 19 20 21 22 23 24 25 26 
27 28 29 30 31 32 33 34 35 
36 37 38 39 40 41 42 43 44 
45 46 47 48 49 50 51 52 53 
54 55 56 57 58 59 60 61 62 
63 64 65 66 67 68 69 70 71 
72 73 74 75 76 77 78 79 80 
81 82 83 84 85 86 87 88 89 
90 91 92 93 94 95 96 97 98 
99 
POINT_DATA 100
FIELD FieldData 3
_theta 1 100 double
0 0.031733259127 0.063466518254 0.095199777382 0.12693303651 0.15866629564 0.19039955476 0.22213281389 0.25386607302 
0.28559933214 0.31733259127 0.3490658504 0.38079910953 0.41253236865 0.44426562778 0.47599888691 0.50773214603 0.53946540516 
0.57119866429 0.60293192342 0.63466518254 0.66639844167 0.6981317008 0.72986495992 0.76159821905 0.79333147818 0.82506473731 
0.85679799643 0.88853125556 0.92026451469 0.95199777382 0.98373103294 1.0154642921 1.0471975512 1.0789308103 1.1106640695 
1.1423973286 1.1741305877 1.2058638468 1.237597106 1.2693303651 1.3010636242 1.3327968833 1.3645301425 1.3962634016 
1.4279966607 1.4597299198 1.491463179 1.5231964381 1.5549296972 1.5866629564 1.6183962155 1.6501294746 1.6818627337 
1.7135959929 1.745329252 1.7770625111 1.8087957702 1.8405290294 1.8722622885 1.9039955476 1.9357288068 1.9674620659 
1.999195325 2.0309285841 2.0626618433 2.0943951024 2.1261283615 2.1578616206 2.1895948798 2.2213281389 2.253061398 
2.2847946572 2.3165279163 2.3482611754 2.3799944345 2.4117276937 2.4434609528 2.4751942119 2.506927471 2.5386607302 
2.5703939893 2.6021272484 2.6338605076 2.6655937667 2.6973270258 2.7290602849 2.7607935441 2.7925268032 2.8242600623 
2.8559933214 2.8877265806 2.9194598397 2.9511930988 2.982926358 3.0146596171 3.0463928762 3.0781261353 3.1098593945 
3.1415926536 
_radius 1 100 double
9.314673585e-16 0.013200963589 0.02634889536 0.039386958929 0.052249827359 0.064861310842 0.077133830451 0.088969667594 0.10026373365 
0.11090758371 0.12079445643 0.12982515605 0.13791453862 0.14499821786 0.15103891443 0.15603170869 0.16000739748 0.16303324418 
0.16521064998 0.16666962059 0.16756030062 0.16804224851 0.16827248724 0.16839363821 0.16852355068 0.16874769781 0.16911518737 
0.16963858739 0.17029708169 0.17104204619 0.17180418284 0.17250172891 0.17304955313 0.17336885421 0.17339678039 0.17309493054 
0.17245563032 0.17150512449 0.17030327322 0.16893988333 0.16752838793 0.16619812466 0.16508672344 0.16433376556 0.16407578539 
0.16444131218 0.16554390113 0.16747168944 0.17027392957 0.1739474139 0.17842728199 0.18358606297 0.18924204297 0.19517496001 
0.20114547633 0.20691519441 0.2122651861 0.21701200478 0.22102047983 0.22421242903 0.22657028197 0.22813493745 0.22899805742 
0.22929007137 0.22916585813 0.22878996872 0.2283224178 0.22790509469 0.22764851003 0.22761927989 0.22783001752 0.22823411681 
0.22872748107 0.22915771615 0.22933951515 0.22907370523 0.22816699537 0.22644972214 0.22378953968 0.22009979082 0.2153421021 
0.20952352164 0.20268921718 0.19491227435 0.18628237497 0.17689503934 0.16684272955 0.15620856439 0.14506284635 0.13346216658 
0.12145058524 0.10906227581 0.096325034248 0.083264129626 0.069906054912 0.056281787806 0.042429199696 0.02839429553 0.014231075411 
1.5003766445e-15 
_area 1 100 double
0 0.00047094855097 0.0018870809998 0.0042526230316 0.0075581869182 0.011763053461 0.016780601331 0.022471448062 0.028646238657 
0.035077516963 0.04151811157 0.047722140098 0.053464383567 0.05855468283 0.062846033571 0.066237487349 0.068674703075 0.070151104489 
0.070711019044 0.070453908528 0.069537107948 0.068173533207 0.066618471659 0.065133901473 0.063928615661 0.063119184444 0.062745710586 
0.06280024878 0.063239425046 0.063990492812 0.06496026094 0.066050396442 0.067177713237 0.068292278504 0.069381583807 0.070451605728 
0.071491595827 0.072451818572 0.073258350584 0.073852645798 0.074225955323 0.074433238648 0.074587515362 0.074842086377 0.075369144306 
0.076342436725 0.077929203147 0.08028808495 0.083557203516 0.087820181244 0.093062691147 0.099146928812 0.10581951421 0.11274895274 
0.11957883568 0.12598228458 0.13170605007 0.13659507896 0.14058950099 0.14369035716 0.14590833233 0.14723730011 0.14768270576 
0.1473123486 0.14627922624 0.14480774407 0.1431591822 0.14158735771 0.14028929233 0.1393627054 0.13878921602 0.13844886992 
0.13815166378 0.13767130645 0.13677673348 0.13526008433 0.13295783696 0.12976266514 0.12562682518 0.12055938769 0.11461958396 
0.10790803969 0.10055638007 0.092715090648 0.084540786492 0.076185221655 0.067788049207 0.059474165548 0.051355085986 0.043532524622 
0.036101821487 0.029153574221 0.022773415303 0.017041189717 0.012030848813 0.0078112020637 0.0044462985903 0.0019938628099 0.00050124606452 
7.1789767447e-17 
