# vtk DataFile Version 5.1
vtk output
ASCII
DATASET POLYDATA
POINTS 100 float
0.228014 0.111478 -0.664982 0.227705 0.111081 -0.665113 0.226653 0.109741 -0.665447 
0.224914 0.107508 -0.665896 0.222574 0.104458 -0.666329 0.21973 0.100692 -0.666579 
0.216473 0.0963183 -0.666464 0.212867 0.0914514 -0.665804 0.208941 0.0861966 -0.664436 
0.204671 0.0806441 -0.662229 0.199982 0.0748615 -0.659086 0.194751 0.068891 -0.654956 
0.188819 0.0627488 -0.649822 0.182015 0.0564277 -0.643701 0.174174 0.0499034 -0.636625 
0.165162 0.0431424 -0.628638 0.154905 0.0361112 -0.619772 0.1434 0.0287862 -0.610048 
0.130732 0.021163 -0.59946 0.117069 0.0132636 -0.587979 0.10266 0.00514066 -0.575555 
0.0878123 -0.00312019 -0.562122 0.0728712 -0.0114028 -0.547613 0.0581867 -0.0195651 -0.531969 
0.0440842 -0.0274474 -0.515155 0.0308352 -0.0348822 -0.49717 0.0186337 -0.0417048 -0.478054 
0.00758097 -0.0477649 -0.457889 -0.00232015 -0.0529363 -0.436799 -0.0111599 -0.0571245 -0.414937 
-0.0191065 -0.0602728 -0.392478 -0.0263825 -0.0623634 -0.369599 -0.0332364 -0.0634172 -0.346464 
-0.0399108 -0.0634893 -0.323209 -0.0466131 -0.0626627 -0.299933 -0.0534897 -0.0610404 -0.276683 
-0.0606087 -0.0587364 -0.253463 -0.0679511 -0.0558678 -0.230228 -0.075412 -0.052547 -0.206904 
-0.0828122 -0.0488762 -0.183393 -0.0899165 -0.0449449 -0.159596 -0.0964592 -0.0408281 -0.135429 
-0.102172 -0.0365883 -0.110835 -0.10681 -0.0322782 -0.0858001 -0.110177 -0.0279452 -0.0603597 
-0.112144 -0.0236352 -0.0345979 -0.112658 -0.0193976 -0.00864391 -0.111747 -0.0152869 0.0173382 
-0.109511 -0.0113647 0.0431635 -0.10611 -0.00769813 0.0686428 -0.101748 -0.0043576 0.0935993 
-0.0966509 -0.00141184 0.117884 -0.0910427 0.00107738 0.141387 -0.0851301 0.00306118 0.164045 
-0.0790851 0.00450903 0.185845 -0.0730361 0.00541283 0.20682 -0.0670637 0.00578917 0.22704 
-0.0612032 0.00567928 0.246604 -0.0554519 0.00514638 0.265625 -0.0497804 0.00427078 0.284218 
-0.0441451 0.00314309 0.302487 -0.0385022 0.00185626 0.320515 -0.0328193 0.000497291 0.338359 
-0.0270842 -0.000860367 0.356047 -0.0213101 -0.00216298 0.37358 -0.0155372 -0.00338046 0.390934 
-0.00982926 -0.00450757 0.408069 -0.00426753 -0.00556243 0.424937 0.00105742 -0.00658224 0.441486 
0.00605536 -0.00761702 0.457671 0.0106456 -0.00872185 0.473456 0.0147651 -0.00994873 0.488816 
0.0183735 -0.0113389 0.503738 0.0214569 -0.0129168 0.518218 0.0240272 -0.0146855 0.532258 
0.0261198 -0.0166259 0.545862 0.0277883 -0.0186976 0.559031 0.0290987 -0.020843 0.571757 
0.0301221 -0.0229931 0.584027 0.0309283 -0.025075 0.595815 0.03158 -0.0270193 0.607089 
0.0321285 -0.0287678 0.617813 0.0326115 -0.0302789 0.627947 0.0330521 -0.0315313 0.637454 
0.0334606 -0.0325258 0.646304 0.0338361 -0.0332833 0.654476 0.0341707 -0.0338417 0.661961 
0.0344524 -0.0342503 0.668761 0.0346692 -0.0345629 0.674889 0.0348119 -0.0348315 0.680367 
0.0348767 -0.0350998 0.685224 0.0348661 -0.0353986 0.689492 0.034789 -0.0357427 0.693201 
0.0346606 -0.0361307 0.69638 0.0345003 -0.0365463 0.699053 0.0343301 -0.0369625 0.701237 
0.034172 -0.0373461 0.702947 0.0340457 -0.0376636 0.704189 0.033967 -0.0378868 0.704967 
0.0339454 -0.0379972 0.705283 
LINES 2 100
OFFSETS vtktypeint64
0 100 
CONNECTIVITY vtktypeint64
0 1 2 3 4 5 6 7 8 
9 10 11 12 13 14 15 16 17 
18 19 20 21 22 23 24 25 26 
27 28 29 30 31 32 33 34 35 
36 37 38 39 40 41 42 43 44 
45 46 47 48 49 50 51 52 53 
54 55 56 57 58 59 60 61 62 
63 64 65 66 67 68 69 70 71 
72 73 74 75 76 77 78 79 80 
81 82 83 84 85 86 87 88 89 
90 91 92 93 94 95 96 97 98 
99 
POINT_DATA 100
FIELD FieldData 3
_theta 1 100 double
0 0.031733259127 0.063466518254 0.095199777382 0.12693303651 0.15866629564 0.19039955476 0.22213281389 0.25386607302 
0.28559933214 0.31733259127 0.3490658504 0.38079910953 0.41253236865 0.44426562778 0.47599888691 0.50773214603 0.53946540516 
0.57119866429 0.60293192342 0.63466518254 0.66639844167 0.6981317008 0.72986495992 0.76159821905 0.79333147818 0.82506473731 
0.85679799643 0.88853125556 0.92026451469 0.95199777382 0.98373103294 1.0154642921 1.0471975512 1.0789308103 1.1106640695 
1.1423973286 1.1741305877 1.2058638468 1.237597106 1.2693303651 1.3010636242 1.3327968833 1.3645301425 1.3962634016 
1.4279966607 1.4597299198 1.491463179 1.5231964381 1.5549296972 1.5866629564 1.6183962155 1.6501294746 1.6818627337 
1.7135959929 1.745329252 1.7770625111 1.8087957702 1.8405290294 1.8722622885 1.9039955476 1.9357288068 1.9674620659 
1.999195325 2.0309285841 2.0626618433 2.0943951024 2.1261283615 2.1578616206 2.1895948798 2.2213281389 2.253061398 
2.2847946572 2.3165279163 2.3482611754 2.3799944345 2.4117276937 2.4434609528 2.4751942119 2.506927471 2.5386607302 
2.5703939893 2.6021272484 2.6338605076 2.6655937667 2.6973270258 2.7290602849 2.7607935441 2.7925268032 2.8242600623 
2.8559933214 2.8877265806 2.9194598397 2.9511930988 2.982926358 3.0146596171 3.0463928762 3.0781261353 3.1098593945 
3.1415926536 
_radius 1 100 double
1.6999581999e-15 0.018052381888 0.03602122544 0.053818452428 0.071345970335 0.088487065289 0.10509639758 0.12099159907 0.1359502599 
0.1497154918 0.16201146752 0.17256802026 0.18115128425 0.18759595746 0.19183419692 0.1939162821 0.19401885334 0.19243791899 
0.18956639965 0.18585949152 0.18179388856 0.17782755432 0.17436594316 0.17173884155 0.17018870561 0.16986765925 0.17083886625 
0.17307960783 0.17648626916 0.18088256316 0.18603051828 0.19164228675 0.1973935886 0.20294426119 0.20796993105 0.21220000461 
0.21545129132 0.21764827504 0.21882606073 0.21911710882 0.21872665853 0.21790351888 0.2169124332 0.21601172413 0.21543662292 
0.21538638841 0.21601307925 0.21741142906 0.21961153503 0.22257738288 0.22621340661 0.23037879441 0.23490691535 0.23962628192 
0.24437971891 0.24903927289 0.2535154427 0.25776022233 0.26176405648 0.26554724475 0.26914688775 0.27260127337 0.27593436388 
0.27914324394 0.28219075952 0.28500436091 0.28748086771 0.28949589795 0.29091618419 0.29161288801 0.29147419143 0.29041575695 
0.28838801071 0.28537957271 0.28141653487 0.27655769578 0.27088631055 0.26449937933 0.25749589698 0.24996570091 0.24198047519 
0.23358806085 0.224810564 0.21564602586 0.20607282968 0.19605572041 0.1855523372 0.1745194282 0.16291828514 0.15071925094 
0.13790531495 0.12447480443 0.11044308396 0.095843109781 0.080724744919 0.065152923013 0.049204969615 0.032967538932 0.016533629546 
7.9793913022e-16 
_area 1 100 double
0 0.00070960553525 0.0028181413361 0.0062658453281 0.010956243659 0.016759490163 0.023515231671 0.031034677822 0.039102348484 
0.04747870699 0.055908716948 0.064191543919 0.072283493397 0.079738306026 0.086084335005 0.090997657398 0.094288060027 0.095893211316 
0.09586982041 0.094395186365 0.091769656175 0.088407853363 0.084813043324 0.081526823161 0.0790290415 0.077627880219 0.077442564312 
0.078445993311 0.080505610348 0.08339819831 0.086829718191 0.090515513733 0.094274838692 0.098069735103 0.10196003235 0.1060358872 
0.11036943867 0.11481435619 0.11901693566 0.12272694021 0.12587074996 0.12846762223 0.13055873294 0.13220565227 0.13349111864 
0.13453523621 0.13552488143 0.13673250147 0.13847235627 0.14101138543 0.14453664341 0.14895597924 0.15411764318 0.1597838928 
0.16567720533 0.17151933049 0.17708691906 0.18225954437 0.18703321163 0.19169395576 0.19632068017 0.20077433493 0.20505606192 
0.20918425353 0.21301260642 0.21631818313 0.21891941272 0.22065842007 0.2214069753 0.22106981923 0.21957946069 0.21688677575 
0.21295578137 0.20776967606 0.20134775523 0.19376382816 0.18515430922 0.1757100829 0.16565474942 0.15521712861 0.14460636907 
0.13399497532 0.12351070595 0.11323476156 0.10320280946 0.093408480216 0.083814426968 0.074375923273 0.065070962611 0.055922066279 
0.047001750919 0.038425185082 0.030337172317 0.022898210687 0.016271612658 0.0106123301 0.0060577566102 0.0027206865023 0.00068445193961 
2.4550356711e-17 
