# vtk DataFile Version 5.1
vtk output
ASCII
DATASET POLYDATA
POINTS 100 float
0.121711 0.0378771 -0.630754 0.121671 0.0379963 -0.630977 0.121663 0.0382188 -0.631722 
0.121687 0.0385104 -0.632892 0.121736 0.0388154 -0.634327 0.121796 0.0390588 -0.63582 
0.121837 0.0391507 -0.637133 0.121811 0.0389915 -0.638008 0.121645 0.0384773 -0.63819 
0.121249 0.0375069 -0.63744 0.120509 0.0359885 -0.635548 0.119297 0.0338466 -0.632349 
0.117478 0.031028 -0.627723 0.114924 0.0275077 -0.621603 0.111517 0.0232925 -0.613969 
0.10717 0.0184238 -0.604848 0.101827 0.012978 -0.594298 0.0954774 0.00706451 -0.582406 
0.0881556 0.000822175 -0.569271 0.0799396 -0.00558688 -0.554995 0.0709472 -0.011985 -0.539678 
0.0613258 -0.0181879 -0.523404 0.0512413 -0.024015 -0.506244 0.0408643 -0.0292989 -0.488248 
0.0303574 -0.0338948 -0.469454 0.0198632 -0.0376889 -0.449885 0.00949513 -0.0406045 -0.429558 
-0.000666925 -0.0426055 -0.408489 -0.0105777 -0.0436977 -0.386697 -0.0202228 -0.0439273 -0.364212 
-0.029611 -0.0433762 -0.341076 -0.0387639 -0.0421555 -0.317343 -0.0477042 -0.0403971 -0.293083 
-0.056444 -0.0382442 -0.268374 -0.0649743 -0.0358411 -0.2433 -0.0732579 -0.0333244 -0.217947 
-0.0812258 -0.0308145 -0.192401 -0.088778 -0.028409 -0.166737 -0.0957884 -0.0261793 -0.141021 
-0.102114 -0.0241685 -0.11531 -0.107604 -0.0223921 -0.089649 -0.112118 -0.0208418 -0.064075 
-0.115532 -0.0194895 -0.0386214 -0.117753 -0.0182944 -0.0133214 -0.118729 -0.0172084 0.0117867 
-0.118451 -0.0161839 0.0366561 -0.116953 -0.0151785 0.0612286 -0.114315 -0.0141601 0.0854338 
-0.110646 -0.0131094 0.109191 -0.106085 -0.012021 0.132413 -0.100782 -0.0109031 0.15501 
-0.0948915 -0.00977528 0.1769 -0.0885578 -0.00866518 0.198013 -0.0819096 -0.00760524 0.2183 
-0.0750526 -0.00662869 0.237738 -0.0680663 -0.00576636 0.256335 -0.0610042 -0.00504404 0.27413 
-0.0538971 -0.00448106 0.291194 -0.0467574 -0.00408985 0.307623 -0.0395858 -0.00387659 0.32353 
-0.0323776 -0.00384262 0.33904 -0.025129 -0.00398629 0.354275 -0.0178421 -0.0043049 0.369346 
-0.0105283 -0.00479624 0.384345 -0.00320931 -0.00545948 0.399335 0.00408279 -0.00629519 0.414348 
0.011308 -0.00730436 0.429384 0.0184214 -0.00848658 0.444409 0.0253772 -0.00983761 0.459364 
0.0321324 -0.0113468 0.474173 0.0386502 -0.0129944 0.488747 0.0449024 -0.0147503 0.502999 
0.0508711 -0.0165728 0.516846 0.0565486 -0.0184099 0.530222 0.0619366 -0.020201 0.54308 
0.0670445 -0.0218812 0.555392 0.0718875 -0.0233855 0.567152 0.0764839 -0.0246551 0.578369 
0.080853 -0.0256423 0.589062 0.0850136 -0.0263166 0.599255 0.088982 -0.0266676 0.608969 
0.0927721 -0.0267083 0.618215 0.0963945 -0.0264746 0.626993 0.099857 -0.0260234 0.635284 
0.103165 -0.025428 0.643058 0.106321 -0.0247723 0.650272 0.109326 -0.0241427 0.656877 
0.112179 -0.0236206 0.662825 0.114877 -0.0232742 0.668078 0.117414 -0.023152 0.672611 
0.119783 -0.0232778 0.67642 0.121971 -0.0236489 0.679526 0.123966 -0.0242358 0.681976 
0.125749 -0.0249856 0.683836 0.127304 -0.0258277 0.685193 0.128609 -0.0266811 0.686139 
0.129646 -0.0274633 0.68677 0.130398 -0.0280986 0.687172 0.130853 -0.0285269 0.687413 
0.131 -0.0287094 0.687536 
LINES 2 100
OFFSETS vtktypeint64
0 100 
CONNECTIVITY vtktypeint64
0 1 2 3 4 5 6 7 8 
9 10 11 12 13 14 15 16 17 
18 19 20 21 22 23 24 25 26 
27 28 29 30 31 32 33 34 35 
36 37 38 39 40 41 42 43 44 
45 46 47 48 49 50 51 52 53 
54 55 56 57 58 59 60 61 62 
63 64 65 66 67 68 69 70 71 
72 73 74 75 76 77 78 79 80 
81 82 83 84 85 86 87 88 89 
90 91 92 93 94 95 96 97 98 
99 
POINT_DATA 100
FIELD FieldData 3
_theta 1 100 double
0 0.031733259127 0.063466518254 0.095199777382 0.12693303651 0.15866629564 0.19039955476 0.22213281389 0.25386607302 
0.28559933214 0.31733259127 0.3490658504 0.38079910953 0.41253236865 0.44426562778 0.47599888691 0.50773214603 0.53946540516 
0.57119866429 0.60293192342 0.63466518254 0.66639844167 0.6981317008 0.72986495992 0.76159821905 0.79333147818 0.82506473731 
0.85679799643 0.88853125556 0.92026451469 0.95199777382 0.98373103294 1.0154642921 1.0471975512 1.0789308103 1.1106640695 
1.1423973286 1.1741305877 1.2058638468 1.237597106 1.2693303651 1.3010636242 1.3327968833 1.3645301425 1.3962634016 
1.4279966607 1.4597299198 1.491463179 1.5231964381 1.5549296972 1.5866629564 1.6183962155 1.6501294746 1.6818627337 
1.7135959929 1.745329252 1.7770625111 1.8087957702 1.8405290294 1.8722622885 1.9039955476 1.9357288068 1.9674620659 
1.999195325 2.0309285841 2.0626618433 2.0943951024 2.1261283615 2.1578616206 2.1895948798 2.2213281389 2.253061398 
2.2847946572 2.3165279163 2.3482611754 2.3799944345 2.4117276937 2.4434609528 2.4751942119 2.506927471 2.5386607302 
2.5703939893 2.6021272484 2.6338605076 2.6655937667 2.6973270258 2.7290602849 2.7607935441 2.7925268032 2.8242600623 
2.8559933214 2.8877265806 2.9194598397 2.9511930988 2.982926358 3.0146596171 3.0463928762 3.0781261353 3.1098593945 
3.1415926536 
_radius 1 100 double
1.1253208817e-15 0.015499308806 0.030805338375 0.045742436177 0.060167493345 0.073976759716 0.08710411915 0.099511665437 0.11117544168 
0.12207066328 0.13216101619 0.14139532068 0.14971233562 0.15705181884 0.1633682506 0.16864333877 0.1728943294 0.17617665781 
0.17858100125 0.18022593516 0.18124799863 0.18179108864 0.18199684217 0.18199710262 0.1819087553 0.18183035412 0.18183946723 
0.18198991576 0.18230898614 0.18279570617 0.1834217899 0.18413662851 0.18487682325 0.18557941286 0.18619646444 0.18670769798 
0.18712797607 0.18750798062 0.18792867336 0.18849210738 0.18931168107 0.1905036806 0.19217985396 0.19443928399 0.19735799601 
0.20097647406 0.20528746258 0.2102276774 0.21567653845 0.22146311211 0.22738027718 0.23320372849 0.23871302018 0.24371202496 
0.24804651846 0.25161696643 0.25438509231 0.2563735293 0.2576587781 0.25835863469 0.25861599951 0.25858134767 0.2583960632 
0.25817839327 0.25801314407 0.25794561453 0.25797977038 0.25808031705 0.25817809157 0.25817801543 0.25796871387 0.25743280414 
0.25645679293 0.25493953506 0.25279835219 0.24997223804 0.24642206025 0.24212820191 0.23708651717 0.23130368138 0.22479295176 
0.21757106527 0.2096565951 0.2010696847 0.19183277238 0.18197175422 0.17151701668 0.16050388276 0.1489722201 0.13696521157 
0.12452754105 0.11170344863 0.098535204344 0.085062484379 0.071322887547 0.057353454438 0.04319267908 0.028882295099 0.014468176625 
2.3688376621e-16 
_area 1 100 double
0 0.00049663920329 0.0019968184025 0.0045217566086 0.0080809303932 0.012648730794 0.01814994271 0.024456259118 0.031390320955 
0.038732222053 0.046226080912 0.053588388679 0.060521591974 0.066734714144 0.07196977991 0.076030384813 0.078807476208 0.080297131606 
0.080605824498 0.079940565515 0.078584310584 0.076860333666 0.075091595487 0.073561491503 0.072480688961 0.071963330366 0.072020506493 
0.072583576361 0.073549160876 0.074815801068 0.076298365388 0.077925900218 0.079632688745 0.081357374971 0.083062215729 0.084759013796 
0.086513861884 0.088420532197 0.090560099981 0.092973448694 0.095659723968 0.098601453686 0.10180509877 0.105335863 0.10932554433 
0.11393849455 0.11930464094 0.12546129209 0.13233456745 0.13975029653 0.14745490149 0.15513979852 0.16246971464 0.1691151699 
0.17478744612 0.17927174038 0.18245175609 0.18431939927 0.18496785113 0.18457221727 0.18336526569 0.18161621082 0.17961270564 
0.17759665316 0.17565146519 0.17374816679 0.17184729431 0.16992681823 0.16798163866 0.16601150209 0.1640003533 0.16189817209 
0.1596156941 0.15703374738 0.15402216744 0.15046109873 0.14625819532 0.14135777801 0.1357418977 0.12942655179 0.12245703494 
0.11490447701 0.10686288696 0.098444681396 0.089773456133 0.080974753922 0.072167361173 0.063458137086 0.054942135744 0.04670738044 
0.038841494525 0.03143680733 0.024591720959 0.01840808194 0.012985876128 0.0084171609619 0.0047808653366 0.0021393686733 0.00053700401991 
4.6424280545e-17 
