# vtk DataFile Version 5.1
vtk output
ASCII
DATASET POLYDATA
POINTS 100 float
0.0854967 0.0864063 -0.636752 0.0856224 0.0862026 -0.636895 0.0859415 0.0853991 -0.637211 
0.0864102 0.0840098 -0.63763 0.0869628 0.082058 -0.638043 0.0875213 0.0795762 -0.638309 
0.0880069 0.0766053 -0.638267 0.0883499 0.0731939 -0.637745 0.0884991 0.0693962 -0.636577 
0.0884262 0.06527 -0.63461 0.0881259 0.0608733 -0.631719 0.0876119 0.0562612 -0.62781 
0.0869071 0.0514824 -0.622828 0.0860327 0.0465755 -0.616758 0.0849949 0.0415674 -0.609622 
0.083773 0.0364717 -0.601476 0.0823119 0.0312892 -0.592399 0.0805177 0.0260107 -0.582486 
0.0782613 0.0206205 -0.571836 0.0753873 0.0151021 -0.560544 0.0717289 0.00944449 -0.548688 
0.0671269 0.00364859 -0.536324 0.0614508 -0.00226695 -0.523484 0.0546184 -0.00826131 -0.51017 
0.0466126 -0.0142693 -0.49636 0.0374916 -0.0202019 -0.482009 0.0273914 -0.0259496 -0.467061 
0.01652 -0.0313884 -0.451451 0.00514321 -0.0363885 -0.435122 -0.00643695 -0.0408239 -0.418024 
-0.0179078 -0.0445831 -0.400131 -0.0289735 -0.0475787 -0.381435 -0.0393812 -0.0497556 -0.361958 
-0.0489422 -0.0510965 -0.341743 -0.0575455 -0.0516236 -0.320854 -0.065163 -0.0513974 -0.299369 
-0.0718446 -0.0505112 -0.277373 -0.0777041 -0.0490829 -0.25495 -0.0828982 -0.0472449 -0.232176 
-0.0876006 -0.0451319 -0.209113 -0.0919748 -0.0428701 -0.185805 -0.0961487 -0.040567 -0.162279 
-0.100195 -0.0383036 -0.138546 -0.104118 -0.0361306 -0.114606 -0.107851 -0.0340671 -0.0904543 
-0.111263 -0.032104 -0.0660911 -0.114172 -0.0302091 -0.041526 -0.116368 -0.0283359 -0.0167868 
-0.11764 -0.0264329 0.00807631 -0.117797 -0.0244526 0.0329886 -0.116696 -0.0223606 0.0578523 
-0.114261 -0.0201412 0.0825504 -0.110488 -0.0178019 0.106954 -0.105453 -0.0153731 0.13093 
-0.0992986 -0.0129067 0.154354 -0.0922261 -0.0104703 0.177116 -0.0844695 -0.00814123 0.199131 
-0.0762743 -0.00599854 0.220345 -0.0678743 -0.00411544 0.240739 -0.0594698 -0.00255267 0.260326 
-0.0512132 -0.00135353 0.279152 -0.0431995 -0.00054104 0.297285 -0.0354655 -0.000117425 0.314808 
-0.0279958 -6.58283e-05 0.331813 -0.0207349 -0.000353738 0.348386 -0.013603 -0.000937609 0.3646 
-0.00651402 -0.00176793 0.380512 0.000607316 -0.00279406 0.396154 0.00781162 -0.00396821 0.411536 
0.0151152 -0.00524819 0.426647 0.0224965 -0.00659872 0.441458 0.0298977 -0.00799136 0.455929 
0.0372321 -0.00940337 0.470017 0.0443949 -0.0108158 0.483678 0.0512766 -0.0122117 0.496881 
0.0577756 -0.0135741 0.5096 0.0638098 -0.0148854 0.521825 0.0693255 -0.0161271 0.533555 
0.0743006 -0.0172813 0.544798 0.0787452 -0.0183319 0.555562 0.0826967 -0.0192674 0.565855 
0.0862128 -0.0200834 0.575678 0.0893615 -0.0207839 0.585018 0.0922119 -0.021383 0.593852 
0.0948253 -0.0219043 0.602143 0.0972486 -0.0223792 0.609843 0.0995108 -0.022844 0.616902 
0.101623 -0.0233355 0.62327 0.10358 -0.0238872 0.628906 0.105367 -0.0245236 0.633785 
0.106964 -0.0252574 0.637902 0.108353 -0.0260857 0.641281 0.109522 -0.0269901 0.643965 
0.11047 -0.0279368 0.646026 0.111207 -0.0288802 0.64755 0.111753 -0.0297668 0.648634 
0.112133 -0.0305411 0.649374 0.112374 -0.0311518 0.649858 0.112502 -0.0315572 0.650155 
0.112533 -0.0317305 0.65031 
LINES 2 100
OFFSETS vtktypeint64
0 100 
CONNECTIVITY vtktypeint64
0 1 2 3 4 5 6 7 8 
9 10 11 12 13 14 15 16 17 
18 19 20 21 22 23 24 25 26 
27 28 29 30 31 32 33 34 35 
36 37 38 39 40 41 42 43 44 
45 46 47 48 49 50 51 52 53 
54 55 56 57 58 59 60 61 62 
63 64 65 66 67 68 69 70 71 
72 73 74 75 76 77 78 79 80 
81 82 83 84 85 86 87 88 89 
90 91 92 93 94 95 96 97 98 
99 
POINT_DATA 100
FIELD FieldData 3
_theta 1 100 double
0 0.031733259127 0.063466518254 0.095199777382 0.12693303651 0.15866629564 0.19039955476 0.22213281389 0.25386607302 
0.28559933214 0.31733259127 0.3490658504 0.38079910953 0.41253236865 0.44426562778 0.47599888691 0.50773214603 0.53946540516 
0.57119866429 0.60293192342 0.63466518254 0.66639844167 0.6981317008 0.72986495992 0.76159821905 0.79333147818 0.82506473731 
0.85679799643 0.88853125556 0.92026451469 0.95199777382 0.98373103294 1.0154642921 1.0471975512 1.0789308103 1.1106640695 
1.1423973286 1.1741305877 1.2058638468 1.237597106 1.2693303651 1.3010636242 1.3327968833 1.3645301425 1.3962634016 
1.4279966607 1.4597299198 1.491463179 1.5231964381 1.5549296972 1.5866629564 1.6183962155 1.6501294746 1.6818627337 
1.7135959929 1.745329252 1.7770625111 1.8087957702 1.8405290294 1.8722622885 1.9039955476 1.9357288068 1.9674620659 
1.999195325 2.0309285841 2.0626618433 2.0943951024 2.1261283615 2.1578616206 2.1895948798 2.2213281389 2.253061398 
2.2847946572 2.3165279163 2.3482611754 2.3799944345 2.4117276937 2.4434609528 2.4751942119 2.506927471 2.5386607302 
2.5703939893 2.6021272484 2.6338605076 2.6655937667 2.6973270258 2.7290602849 2.7607935441 2.7925268032 2.8242600623 
2.8559933214 2.8877265806 2.9194598397 2.9511930988 2.982926358 3.0146596171 3.0463928762 3.0781261353 3.1098593945 
3.1415926536 
_radius 1 100 double
1.6681655124e-15 0.014209824474 0.028318828586 0.042229437565 0.05586354781 0.069165722617 0.082099865987 0.094639983905 0.10675765648 
0.11841024439 0.12953381154 0.14004308242 0.14983822858 0.15881612623 0.16688280941 0.17396422445 0.18001354506 0.18501459001 
0.1889818436 0.19195802738 0.19401015253 0.19522470029 0.1957023074 0.19555228623 0.19488749374 0.19382025403 0.19245993738 
0.19091230029 0.189280013 0.18766331317 0.18615966198 0.18486161283 0.18385264714 0.18320131591 0.18295455635 0.18313146739 
0.18371901795 0.18467099415 0.18591094112 0.18733910865 0.18884274971 0.19030869557 0.19163689731 0.19275348572 0.19362183203 
0.19425012903 0.19469422269 0.19505484553 0.19546899222 0.19609585873 0.19709851724 0.1986233399 0.20077999849 0.20362527106 
0.20715343879 0.21129471526 0.21592147283 0.2208607585 0.22591105778 0.23086126164 0.23550992962 0.2396830076 0.24324820469 
0.24612443321 0.24828519104 0.2497554906 0.25060277623 0.25092304584 0.25082397135 0.25040713238 0.24975153981 0.24890046396 
0.24785322379 0.24656303725 0.24494127941 0.24286760937 0.24020456827 0.23681460851 0.23257721443 0.2274038343 0.22124870943 
0.21411427648 0.20605054307 0.19714859675 0.18752910855 0.17732726715 0.16667600538 0.15568966919 0.14445042317 0.13299960477 
0.12133577672 0.1094202693 0.097189635673 0.084573001928 0.071511217734 0.057974314002 0.0439741145 0.029569786053 0.014865404499 
2.4177126189e-16 
_area 1 100 double
0 0.00058962407324 0.0023324234384 0.0051557594589 0.0089556112555 0.01361686561 0.019031900783 0.025109955841 0.031772290874 
0.03893442478 0.046483803539 0.054263791538 0.062071071227 0.069667270176 0.07680127184 0.083236913369 0.088780360989 0.093301685279 
0.096746189472 0.099133101067 0.10054210741 0.1010912413 0.10091204384 0.10012910909 0.098849933604 0.097166291957 0.095163068204 
0.092929791407 0.090571992926 0.088216539015 0.085997136796 0.084029611927 0.082406684426 0.081227364715 0.080600888404 0.080593618935 
0.081236324533 0.082565462571 0.084530338733 0.086983099279 0.089766920041 0.092709569223 0.095639570102 0.098403763275 0.10087672704 
0.10296970287 0.10465540949 0.10600600384 0.10719971442 0.10851099577 0.10994515734 0.11165141032 0.11386443204 0.11682696777 
0.12071655782 0.12558507556 0.13133204017 0.13771716185 0.14439913939 0.15098592266 0.15708817439 0.16237003124 0.16658972741 
0.16962302268 0.17146619542 0.17221930776 0.17205293284 0.17116647296 0.16975246976 0.16797466782 0.16595304042 0.16374963287 
0.16135900056 0.15871000838 0.15568114226 0.15212537826 0.14789766248 0.14287916886 0.13699574589 0.13023047144 0.1226303738 
0.1143061122 0.10542317113 0.096184868164 0.086809902123 0.077508623213 0.068462168125 0.059807608862 0.051631127442 0.043970293504 
0.036825471883 0.030178771048 0.024016884574 0.018352498102 0.013238591162 0.0087713904874 0.0050805874953 0.002308815349 0.00058527229699 
2.7755575616e-17 
