# vtk DataFile Version 5.1
vtk output
ASCII
DATASET POLYDATA
POINTS 100 float
0.150703 0.0479167 -0.61589 0.150748 0.0480305 -0.615957 0.150946 0.0481723 -0.616135 
0.151239 0.0483059 -0.616362 0.151542 0.0483746 -0.616537 0.151739 0.0483044 -0.616532 
0.151699 0.0480098 -0.616195 0.151279 0.0473999 -0.615367 0.150343 0.0463853 -0.613886 
0.148762 0.0448845 -0.611601 0.146431 0.0428309 -0.60838 0.143271 0.040178 -0.604118 
0.139238 0.0369042 -0.598741 0.134321 0.0330146 -0.592211 0.128547 0.0285427 -0.584521 
0.121973 0.0235488 -0.575699 0.114685 0.0181173 -0.565798 0.106789 0.0123517 -0.554891 
0.0984026 0.00636887 -0.543064 0.0896481 0.000292343 -0.530409 0.0806418 -0.00575504 -0.517012 
0.0714878 -0.0116578 -0.502951 0.062272 -0.0173138 -0.488286 0.0530583 -0.0226389 -0.473058 
0.0438871 -0.0275697 -0.457284 0.0347763 -0.0320647 -0.44096 0.0257251 -0.0361035 -0.424062 
0.0167191 -0.0396833 -0.406551 0.00773736 -0.0428159 -0.388375 -0.00123986 -0.0455214 -0.36948 
-0.0102233 -0.0478236 -0.349815 -0.0192076 -0.0497442 -0.329338 -0.0281657 -0.0512984 -0.308025 
-0.037045 -0.052492 -0.285872 -0.0457661 -0.0533196 -0.262904 -0.0542244 -0.0537647 -0.239173 
-0.062294 -0.0538021 -0.214761 -0.069834 -0.0534011 -0.189777 -0.0766971 -0.0525303 -0.164357 
-0.0827384 -0.051163 -0.138656 -0.087826 -0.0492822 -0.112842 -0.0918498 -0.0468856 -0.0870923 
-0.0947304 -0.0439894 -0.0615798 -0.0964243 -0.0406302 -0.0364704 -0.0969287 -0.0368657 -0.0119125 
-0.0962814 -0.0327735 0.011969 -0.0945589 -0.0284475 0.0350779 -0.0918717 -0.0239943 0.0573509 
-0.0883569 -0.0195269 0.0787591 -0.0841691 -0.0151593 0.0993076 -0.0794712 -0.0110004 0.119034 
-0.0744237 -0.00714855 0.138003 -0.0691767 -0.00368706 0.156302 -0.0638621 -0.000680911 0.174032 
-0.0585884 0.00182504 0.191304 -0.0534384 0.00380655 0.208224 -0.0484689 0.00525905 0.224892 
-0.0437134 0.00619571 0.241394 -0.0391863 0.0066446 0.257794 -0.0348889 0.0066455 0.274133 
-0.0308153 0.00624641 0.290427 -0.0269591 0.0055003 0.306669 -0.0233183 0.00446221 0.32283 
-0.0198985 0.00318677 0.338865 -0.0167153 0.00172632 0.354717 -0.013793 0.00012951 0.370326 
-0.0111626 -0.00155954 0.385631 -0.00885743 -0.00330183 0.400584 -0.00690788 -0.00506378 0.415145 
-0.00533621 -0.00681732 0.429293 -0.00415146 -0.00853998 0.443023 -0.00334581 -0.0102148 0.456349 
-0.00289276 -0.0118302 0.469299 -0.00274753 -0.0133799 0.481909 -0.0028499 -0.0148623 0.494222 
-0.00312909 -0.01628 0.506278 -0.00351043 -0.017639 0.51811 -0.00392298 -0.0189474 0.529735 
-0.00430722 -0.0202144 0.541152 -0.00462198 -0.0214488 0.55234 -0.00484962 -0.0226579 0.563253 
-0.00499875 -0.0238461 0.573825 -0.00510408 -0.0250141 0.583974 -0.00522318 -0.0261588 0.593605 
-0.00543033 -0.0272731 0.602618 -0.00580808 -0.0283465 0.610918 -0.00643725 -0.0293662 0.618421 
-0.00738642 -0.0303187 0.625063 -0.00870213 -0.0311909 0.630804 -0.0104009 -0.0319719 0.635636 
-0.0124636 -0.0326545 0.639581 -0.0148341 -0.0332355 0.642692 -0.0174205 -0.033717 0.645051 
-0.0201014 -0.0341054 0.646761 -0.0227344 -0.0344113 0.647938 -0.0251675 -0.0346477 0.648703 
-0.027252 -0.0348291 0.649172 -0.0288557 -0.0349688 0.649448 -0.029874 -0.0350784 0.649609 
-0.0302401 -0.0351653 0.649705 
LINES 2 100
OFFSETS vtktypeint64
0 100 
CONNECTIVITY vtktypeint64
0 1 2 3 4 5 6 7 8 
9 10 11 12 13 14 15 16 17 
18 19 20 21 22 23 24 25 26 
27 28 29 30 31 32 33 34 35 
36 37 38 39 40 41 42 43 44 
45 46 47 48 49 50 51 52 53 
54 55 56 57 58 59 60 61 62 
63 64 65 66 67 68 69 70 71 
72 73 74 75 76 77 78 79 80 
81 82 83 84 85 86 87 88 89 
90 91 92 93 94 95 96 97 98 
99 
POINT_DATA 100
FIELD FieldData 3
_theta 1 100 double
0 0.031733259127 0.063466518254 0.095199777382 0.12693303651 0.15866629564 0.19039955476 0.22213281389 0.25386607302 
0.28559933214 0.31733259127 0.3490658504 0.38079910953 0.41253236865 0.44426562778 0.47599888691 0.50773214603 0.53946540516 
0.57119866429 0.60293192342 0.63466518254 0.66639844167 0.6981317008 0.72986495992 0.76159821905 0.79333147818 0.82506473731 
0.85679799643 0.88853125556 0.92026451469 0.95199777382 0.98373103294 1.0154642921 1.0471975512 1.0789308103 1.1106640695 
1.1423973286 1.1741305877 1.2058638468 1.237597106 1.2693303651 1.3010636242 1.3327968833 1.3645301425 1.3962634016 
1.4279966607 1.4597299198 1.491463179 1.5231964381 1.5549296972 1.5866629564 1.6183962155 1.6501294746 1.6818627337 
1.7135959929 1.745329252 1.7770625111 1.8087957702 1.8405290294 1.8722622885 1.9039955476 1.9357288068 1.9674620659 
1.999195325 2.0309285841 2.0626618433 2.0943951024 2.1261283615 2.1578616206 2.1895948798 2.2213281389 2.253061398 
2.2847946572 2.3165279163 2.3482611754 2.3799944345 2.4117276937 2.4434609528 2.4751942119 2.506927471 2.5386607302 
2.5703939893 2.6021272484 2.6338605076 2.6655937667 2.6973270258 2.7290602849 2.7607935441 2.7925268032 2.8242600623 
2.8559933214 2.8877265806 2.9194598397 2.9511930988 2.982926358 3.0146596171 3.0463928762 3.0781261353 3.1098593945 
3.1415926536 
_radius 1 100 double
6.9444428004e-16 0.013766332015 0.027546176498 0.041334124261 0.055095718587 0.068760142379 0.082219039519 0.095330935598 0.10793009006 
0.11983840478 0.13087901218 0.14089023906 0.14973874969 0.15733080327 0.16362070582 0.16861568714 0.17237660841 0.17501414869 
0.17668047861 0.17755692088 0.17783867039 0.17771818896 0.17736925496 0.17693370417 0.17651257718 0.17616271955 0.17589900634 
0.17570151919 0.17552643915 0.17531924703 0.17502891866 0.1746218484 0.17409396157 0.1734789456 0.17285025218 0.1723152539 
0.17200212116 0.17204299111 0.17255890067 0.17365093081 0.17539846674 0.17786186784 0.18108517406 0.18509504297 0.1898942651 
0.19545111111 0.20168837953 0.20847713593 0.21563902922 0.22295818546 0.23020053008 0.23713647738 0.24356270799 0.24931969129 
0.25430293314 0.25846717382 0.2618237803 0.26443234739 0.26638803922 0.26780646583 0.26880792673 0.26950271656 0.26997893457 
0.27029390252 0.27046988192 0.27049429145 0.27032408626 0.26989344146 0.26912347561 0.26793254378 0.26624566837 0.26400195139 
0.26115926015 0.25769599428 0.25361020701 0.24891667005 0.24364259439 0.23782267943 0.23149404166 0.22469146853 0.21744340221 
0.20976906017 0.20167706672 0.19316582839 0.18422561475 0.17484196729 0.16499976752 0.15468716957 0.14389869886 0.13263710315 
0.12091391122 0.10874898205 0.096169518555 0.0832090358 0.069906634233 0.05630669401 0.042458859827 0.028418010706 0.014243867509 
6.8791841512e-16 
_area 1 100 double
0 0.00049335122599 0.0019941263586 0.0045525383931 0.0082179237405 0.013002373262 0.018850374203 0.025622081075 0.03309322431 
0.040970953726 0.048921863173 0.056606033221 0.06370978432 0.069970896206 0.075193672109 0.079255893226 0.082112109944 0.083795843323 
0.084419219876 0.084166180402 0.083275999112 0.082015996731 0.080644894336 0.07937245796 0.078327300727 0.077545909745 0.07698612823 
0.076557224921 0.07615657068 0.07570670875 0.075191432466 0.074691908085 0.074409912489 0.074604151325 0.075406318089 0.076773068055 
0.078600129183 0.080791440016 0.083278634055 0.086024081652 0.089017101868 0.092271256399 0.095828679459 0.09977177888 0.10423689276 
0.10941364237 0.11550376616 0.12263012828 0.13074373176 0.1396036852 0.14883251445 0.15799107633 0.16664388271 0.17441236196 
0.18101444093 0.18628752948 0.19019449771 0.19281504838 0.19432673909 0.19498083271 0.19507618954 0.19492222719 0.19476767819 
0.19472801157 0.19478906171 0.19485127706 0.19476414038 0.19435359419 0.19344708578 0.19189340705 0.18957598627 0.18642124927 
0.18240298378 0.17754213701 0.17190193527 0.16557916155 0.15869244006 0.15136808905 0.14372451381 0.13585732711 0.12782856935 
0.11966343412 0.11135629269 0.10288510129 0.094230565123 0.085394794552 0.07641445552 0.067365598652 0.058360272379 0.0495372033 
0.041049595297 0.033052718805 0.025693074317 0.019100074791 0.013380664358 0.0086170262812 0.0048672986316 0.0021688246322 0.00054295240567 
3.2112180077e-17 
