# vtk DataFile Version 5.1
vtk output
ASCII
DATASET POLYDATA
POINTS 100 float
0.155453 0.0402866 -0.673775 0.15528 0.0403574 -0.673732 0.154815 0.0403781 -0.673614 
0.154069 0.0403399 -0.673334 0.153049 0.040228 -0.672759 0.151765 0.0400208 -0.67172 
0.150223 0.0396894 -0.670034 0.148419 0.0391971 -0.667525 0.14634 0.0385003 -0.664041 
0.143961 0.0375498 -0.659466 0.141244 0.0362933 -0.653735 0.138141 0.0346787 -0.646835 
0.134596 0.0326586 -0.638804 0.130551 0.0301946 -0.629719 0.12595 0.0272619 -0.619688 
0.120746 0.0238534 -0.608831 0.114908 0.0199822 -0.597266 0.108426 0.0156835 -0.585094 
0.10131 0.011014 -0.57239 0.0935996 0.00604993 -0.559195 0.0853542 0.000883064 -0.545515 
0.0766552 -0.00438416 -0.531327 0.0675985 -0.00964485 -0.516583 0.0582875 -0.014794 -0.501227 
0.0488249 -0.0197346 -0.485203 0.0393054 -0.0243825 -0.468464 0.0298077 -0.0286706 -0.450986 
0.0203901 -0.0325505 -0.432769 0.0110873 -0.0359929 -0.413836 0.00191059 -0.0389861 -0.394235 
-0.00714861 -0.0415333 -0.374028 -0.0161131 -0.0436486 -0.353282 -0.0250115 -0.0453525 -0.332059 
-0.0338687 -0.0466683 -0.310409 -0.0426959 -0.0476183 -0.288361 -0.0514817 -0.048221 -0.265923 
-0.0601855 -0.0484906 -0.243079 -0.0687325 -0.0484366 -0.219799 -0.0770142 -0.0480649 -0.196043 
-0.0848916 -0.0473804 -0.171778 -0.0922019 -0.0463891 -0.146984 -0.0987695 -0.0451007 -0.121667 
-0.104419 -0.0435309 -0.0958656 -0.108987 -0.0417023 -0.0696588 -0.112338 -0.0396451 -0.0431613 
-0.114375 -0.0373959 -0.0165202 -0.115048 -0.0349965 0.0100944 -0.114359 -0.0324909 0.0365019 
-0.112361 -0.0299231 0.0625249 -0.109158 -0.0273343 0.0880035 -0.104893 -0.0247606 0.112806 
-0.0997356 -0.0222318 0.136839 -0.0938721 -0.0197713 0.16005 -0.0874885 -0.0173964 0.182428 
-0.0807572 -0.0151202 0.203998 -0.0738262 -0.012954 0.224816 -0.0668105 -0.0109098 0.244952 
-0.0597881 -0.00900264 0.264484 -0.0528006 -0.00725295 0.283485 -0.0458569 -0.00568708 0.302016 
-0.0389414 -0.0043373 0.320117 -0.0320239 -0.0032404 0.337811 -0.0250704 -0.00243511 0.3551 
-0.0180541 -0.00195864 0.371974 -0.0109643 -0.00184283 0.388417 -0.00381211 -0.00211023 0.404413 
0.00336645 -0.00277068 0.419955 0.0105118 -0.00381891 0.43505 0.0175452 -0.00523338 0.449718 
0.0243768 -0.00697665 0.463995 0.0309143 -0.00899722 0.477927 0.0370733 -0.0112328 0.491563 
0.0427864 -0.0136143 0.504948 0.0480101 -0.0160711 0.518113 0.0527297 -0.0185355 0.53107 
0.0569596 -0.020947 0.543803 0.0607406 -0.0232564 0.556271 0.0641345 -0.0254276 0.568409 
0.0672146 -0.0274388 0.580131 0.070057 -0.0292819 0.591341 0.0727298 -0.0309608 0.601942 
0.0752848 -0.0324889 0.611848 0.077751 -0.0338856 0.620995 0.0801315 -0.0351732 0.629345 
0.0824037 -0.0363736 0.636891 0.084524 -0.0375055 0.64366 0.0864338 -0.0385831 0.649708 
0.0880699 -0.0396146 0.655109 0.0893741 -0.0406028 0.659951 0.0903031 -0.0415454 0.66432 
0.0908372 -0.0424362 0.668292 0.0909851 -0.0432668 0.671925 0.0907861 -0.0440281 0.675249 
0.090308 -0.0447114 0.67827 0.0896415 -0.0453094 0.680967 0.088891 -0.0458167 0.683298 
0.0881644 -0.0462297 0.68521 0.0875609 -0.0465463 0.686649 0.0871605 -0.0467655 0.687565 
0.087015 -0.046887 0.687926 
LINES 2 100
OFFSETS vtktypeint64
0 100 
CONNECTIVITY vtktypeint64
0 1 2 3 4 5 6 7 8 
9 10 11 12 13 14 15 16 17 
18 19 20 21 22 23 24 25 26 
27 28 29 30 31 32 33 34 35 
36 37 38 39 40 41 42 43 44 
45 46 47 48 49 50 51 52 53 
54 55 56 57 58 59 60 61 62 
63 64 65 66 67 68 69 70 71 
72 73 74 75 76 77 78 79 80 
81 82 83 84 85 86 87 88 89 
90 91 92 93 94 95 96 97 98 
99 
POINT_DATA 100
FIELD FieldData 3
_theta 1 100 double
0 0.031733259127 0.063466518254 0.095199777382 0.12693303651 0.15866629564 0.19039955476 0.22213281389 0.25386607302 
0.28559933214 0.31733259127 0.3490658504 0.38079910953 0.41253236865 0.44426562778 0.47599888691 0.50773214603 0.53946540516 
0.57119866429 0.60293192342 0.63466518254 0.66639844167 0.6981317008 0.72986495992 0.76159821905 0.79333147818 0.82506473731 
0.85679799643 0.88853125556 0.92026451469 0.95199777382 0.98373103294 1.0154642921 1.0471975512 1.0789308103 1.1106640695 
1.1423973286 1.1741305877 1.2058638468 1.237597106 1.2693303651 1.3010636242 1.3327968833 1.3645301425 1.3962634016 
1.4279966607 1.4597299198 1.491463179 1.5231964381 1.5549296972 1.5866629564 1.6183962155 1.6501294746 1.6818627337 
1.7135959929 1.745329252 1.7770625111 1.8087957702 1.8405290294 1.8722622885 1.9039955476 1.9357288068 1.9674620659 
1.999195325 2.0309285841 2.0626618433 2.0943951024 2.1261283615 2.1578616206 2.1895948798 2.2213281389 2.253061398 
2.2847946572 2.3165279163 2.3482611754 2.3799944345 2.4117276937 2.4434609528 2.4751942119 2.506927471 2.5386607302 
2.5703939893 2.6021272484 2.6338605076 2.6655937667 2.6973270258 2.7290602849 2.7607935441 2.7925268032 2.8242600623 
2.8559933214 2.8877265806 2.9194598397 2.9511930988 2.982926358 3.0146596171 3.0463928762 3.0781261353 3.1098593945 
3.1415926536 
_radius 1 100 double
3.1676639674e-16 0.01600473701 0.031853012315 0.047390173776 0.06247808649 0.077000532586 0.090865733034 0.10400607956 0.11637552214 
0.12794517499 0.13869771029 0.14862117115 0.15770301503 0.16592540595 0.17326284707 0.17968305447 0.18515148248 0.18963920146 
0.19313306661 0.19564649168 0.19722879794 0.19797110465 0.19800705948 0.19750735006 0.19666786274 0.1956924976 0.19477283736 
0.19406780704 0.19368679827 0.19367924591 0.19403240114 0.19467742262 0.19550241164 0.19637006772 0.19713740874 0.19767534984 
0.19788646498 0.19771953058 0.19717938003 0.19633055687 0.19529375269 0.19423521959 0.19335086248 0.1928477272 0.19292538644 
0.19375842113 0.19548000736 0.19816683378 0.20182713949 0.206395014 0.21173366315 0.21764812739 0.22390540587 0.23025844737 
0.23647026321 0.24233499958 0.24769366714 0.25244313662 0.25653792652 0.25998521283 0.26283429994 0.26516238325 0.26705870949 
0.26860918687 0.26988319693 0.27092393495 0.27174314723 0.27232065052 0.27260846894 0.27253878825 0.27203429068 0.27101897923 
0.26942751497 0.26721145544 0.26434151563 0.26080588071 0.25660545576 0.25174754849 0.24623970554 0.24008519713 0.23328103213 
0.22581859332 0.21768628964 0.20887325695 0.19937317257 0.18918757579 0.17832848312 0.1668203271 0.15470122156 0.14202333375 
0.12885193236 0.11526269584 0.10133719413 0.087156997828 0.072797391882 0.058321933842 0.043778971435 0.029200766579 0.014605260756 
7.5856854205e-16 
_area 1 100 double
0 0.00061417644276 0.0024394597884 0.0054276981491 0.0095072414682 0.014587636325 0.020558290198 0.027283372737 0.034597642526 
0.042306626133 0.050192258694 0.05802328864 0.065568726064 0.072612234163 0.078965301245 0.084477135121 0.089039844791 0.092589018758 
0.095101858517 0.096596200363 0.097132684426 0.096819060489 0.09581228283 0.094313529175 0.092554336296 0.090775880345 0.089204958162 
0.088030237417 0.087382681245 0.087323565802 0.087841742829 0.088860619968 0.090254104751 0.091868170123 0.093543845761 0.095139957308 
0.09655780938 0.097723306948 0.098561492102 0.099067635102 0.099302466069 0.09937600103 0.099428529953 0.099624325907 0.10015107139 
0.10121495034 0.10302656001 0.10577686979 0.10961094223 0.11460540233 0.12074670387 0.12791585141 0.13589363994 0.14438320917 
0.15303766294 0.16149057465 0.16939190636 0.17644679778 0.18244917032 0.18730160652 0.19101700544 0.19370286835 0.19553311769 
0.19671460246 0.1974552536 0.19793229359 0.19824532637 0.19837134169 0.19818395206 0.19752030714 0.19623249738 0.19421147315 
0.19139378831 0.1877577578 0.18331267061 0.17808496854 0.17210604517 0.16540511291 0.15800835211 0.1499443587 0.14125460712 
0.13200485998 0.12229155956 0.11223901118 0.10198770092 0.091678436588 0.081439064209 0.071379340766 0.061595289088 0.052179135997 
0.043228303869 0.03484866313 0.027151382616 0.020245966386 0.014232947907 0.0091986946902 0.0052130476762 0.0023291274058 0.00058410631339 
3.7714911219e-17 
