# vtk DataFile Version 5.1
vtk output
ASCII
DATASET POLYDATA
POINTS 100 float
0.0921536 0.0896937 -0.731004 0.0920434 0.0894813 -0.730743 0.0916771 0.0885656 -0.729933 
0.0910838 0.0869784 -0.728556 0.0903103 0.0847712 -0.726592 0.0894167 0.0820107 -0.724012 
0.088472 0.0787734 -0.720785 0.0875472 0.0751401 -0.716878 0.0867089 0.0711895 -0.712262 
0.0860115 0.0669931 -0.706913 0.0854901 0.0626106 -0.700814 0.0851544 0.0580871 -0.693959 
0.0849836 0.0534516 -0.68635 0.084924 0.0487175 -0.678004 0.0848888 0.0438848 -0.668944 
0.0847615 0.0389429 -0.659204 0.0844018 0.0338757 -0.648821 0.0836552 0.028666 -0.637833 
0.0823642 0.0233007 -0.626277 0.0803808 0.0177753 -0.614181 0.0775804 0.0120975 -0.601565 
0.0738731 0.00628981 -0.588433 0.069214 0.000390433 -0.574776 0.0636095 -0.0055469 -0.560573 
0.0571191 -0.0114548 -0.545787 0.0498534 -0.0172553 -0.530374 0.0419667 -0.0228638 -0.514286 
0.0336452 -0.0281934 -0.497476 0.0250934 -0.0331601 -0.479904 0.0165176 -0.0376875 -0.461542 
0.00810974 -0.0417105 -0.442379 3.3155e-05 -0.0451793 -0.422424 -0.00758902 -0.0480619 -0.401708 
-0.0146808 -0.0503449 -0.380279 -0.0212153 -0.0520344 -0.358204 -0.0272115 -0.0531546 -0.335562 
-0.0327262 -0.053746 -0.312438 -0.0378424 -0.0538626 -0.288915 -0.0426545 -0.0535683 -0.265069 
-0.0472537 -0.052933 -0.240965 -0.0517137 -0.0520283 -0.21665 -0.0560795 -0.0509239 -0.19215 
-0.0603595 -0.0496831 -0.167476 -0.0645227 -0.0483605 -0.142621 -0.0685006 -0.0469985 -0.117567 
-0.0721935 -0.0456269 -0.0922918 -0.0754807 -0.0442611 -0.0667754 -0.0782323 -0.0429036 -0.0410066 
-0.0803228 -0.0415445 -0.0149902 -0.0816429 -0.0401644 0.0112487 -0.0821098 -0.0387374 0.0376622 
-0.0816736 -0.0372342 0.064179 -0.0803203 -0.0356264 0.0907067 -0.0780707 -0.0338899 0.117136 
-0.0749753 -0.0320087 0.143348 -0.071107 -0.0299771 0.169218 -0.0665519 -0.0278022 0.194626 
-0.0614003 -0.0255044 0.219466 -0.0557378 -0.0231175 0.243644 -0.0496396 -0.0206871 0.267089 
-0.0431667 -0.0182684 0.289755 -0.0363654 -0.015923 0.311616 -0.0292695 -0.0137151 0.332672 
-0.0219048 -0.0117078 0.352939 -0.0142946 -0.00995887 0.372451 -0.0064659 -0.0085172 0.39125 
0.00154595 -0.00742027 0.409388 0.00969356 -0.00669194 0.426916 0.0179168 -0.00634156 0.44389 
0.0261444 -0.00636404 0.460359 0.0342977 -0.00674088 0.476369 0.0422968 -0.00744198 0.491964 
0.050067 -0.00842813 0.507179 0.057545 -0.00965377 0.522044 0.0646852 -0.0110698 0.536583 
0.0714621 -0.0126265 0.550808 0.0778717 -0.0142755 0.564723 0.0839293 -0.0159718 0.578317 
0.089665 -0.017675 0.591564 0.0951171 -0.0193501 0.60442 0.100324 -0.0209674 0.616825 
0.105318 -0.0225023 0.628701 0.110117 -0.0239353 0.639956 0.114722 -0.0252509 0.650488 
0.119114 -0.0264375 0.660193 0.123255 -0.027487 0.668971 0.127097 -0.0283947 0.676736 
0.130583 -0.0291589 0.683424 0.133658 -0.0297819 0.689005 0.136279 -0.0302693 0.693481 
0.138418 -0.030631 0.696897 0.140075 -0.0308803 0.699338 0.141271 -0.0310341 0.700925 
0.142055 -0.0311125 0.701808 0.142498 -0.0311369 0.702157 0.142683 -0.0311298 0.702148 
0.142698 -0.0311125 0.70195 0.142627 -0.0311043 0.701711 0.142536 -0.0311203 0.701548 
0.14247 -0.0311708 0.701532 
LINES 2 100
OFFSETS vtktypeint64
0 100 
CONNECTIVITY vtktypeint64
0 1 2 3 4 5 6 7 8 
9 10 11 12 13 14 15 16 17 
18 19 20 21 22 23 24 25 26 
27 28 29 30 31 32 33 34 35 
36 37 38 39 40 41 42 43 44 
45 46 47 48 49 50 51 52 53 
54 55 56 57 58 59 60 61 62 
63 64 65 66 67 68 69 70 71 
72 73 74 75 76 77 78 79 80 
81 82 83 84 85 86 87 88 89 
90 91 92 93 94 95 96 97 98 
99 
POINT_DATA 100
FIELD FieldData 3
_theta 1 100 double
0 0.031733259127 0.063466518254 0.095199777382 0.12693303651 0.15866629564 0.19039955476 0.22213281389 0.25386607302 
0.28559933214 0.31733259127 0.3490658504 0.38079910953 0.41253236865 0.44426562778 0.47599888691 0.50773214603 0.53946540516 
0.57119866429 0.60293192342 0.63466518254 0.66639844167 0.6981317008 0.72986495992 0.76159821905 0.79333147818 0.82506473731 
0.85679799643 0.88853125556 0.92026451469 0.95199777382 0.98373103294 1.0154642921 1.0471975512 1.0789308103 1.1106640695 
1.1423973286 1.1741305877 1.2058638468 1.237597106 1.2693303651 1.3010636242 1.3327968833 1.3645301425 1.3962634016 
1.4279966607 1.4597299198 1.491463179 1.5231964381 1.5549296972 1.5866629564 1.6183962155 1.6501294746 1.6818627337 
1.7135959929 1.745329252 1.7770625111 1.8087957702 1.8405290294 1.8722622885 1.9039955476 1.9357288068 1.9674620659 
1.999195325 2.0309285841 2.0626618433 2.0943951024 2.1261283615 2.1578616206 2.1895948798 2.2213281389 2.253061398 
2.2847946572 2.3165279163 2.3482611754 2.3799944345 2.4117276937 2.4434609528 2.4751942119 2.506927471 2.5386607302 
2.5703939893 2.6021272484 2.6338605076 2.6655937667 2.6973270258 2.7290602849 2.7607935441 2.7925268032 2.8242600623 
2.8559933214 2.8877265806 2.9194598397 2.9511930988 2.982926358 3.0146596171 3.0463928762 3.0781261353 3.1098593945 
3.1415926536 
_radius 1 100 double
6.9388939039e-17 0.014779347725 0.029431241085 0.043830848218 0.057871218128 0.071469563578 0.084570365589 0.097144561504 0.10918460622 
0.12069606212 0.13168735942 0.1421599962 0.15210130372 0.16148102749 0.17025187155 0.1783533796 0.18571828303 0.19228052568 
0.19798423081 0.20279272029 0.20669642069 0.20971834597 0.2119160342 0.21337935482 0.21422436162 0.21458413524 0.21459810784 
0.21440149231 0.21411609489 0.21384315707 0.2136583011 0.21360839411 0.21371019348 0.21395082171 0.21429031344 0.21466661735 
0.21500341376 0.21522074168 0.21524761111 0.21503468092 0.21456417368 0.21385409817 0.21295517469 0.21194165858 0.21090000354 
0.20991949182 0.20908639024 0.20848077293 0.20817480235 0.20823191392 0.20870649358 0.20964319431 0.2110747892 0.21301795721 
0.21546752591 0.21839083671 0.22172438436 0.22537442381 0.22922208051 0.23313223227 0.23696458286 0.24058511082 0.24387631036 
0.24674507968 0.24912757191 0.25099075449 0.25233083029 0.25316902823 0.25354548457 0.25351192731 0.25312366969 0.25243119777 
0.2514716766 0.25026116055 0.24878895817 0.24701581596 0.24487676258 0.24228784866 0.23915473604 0.23538101321 0.23087504175 
0.2255552115 0.21935406253 0.21222173235 0.20412885379 0.19506866239 0.18505787378 0.17413593179 0.16236246188 0.14981309197 
0.1365741155 0.12273670038 0.10839144993 0.093624071405 0.078512687912 0.063126963841 0.047528800186 0.031774040373 0.015914528577 
6.5578530753e-16 
_area 1 100 double
0 0.00067471550047 0.0026731672682 0.00592161165 0.01030726619 0.01569067757 0.021919168889 0.028839679392 0.036309186541 
0.044199908603 0.052396528325 0.060786007574 0.069245262159 0.077632428818 0.085783355311 0.093512166071 0.10061579418 0.10688438728 
0.1121194385 0.11615866621 0.11890259176 0.12033511851 0.12053120402 0.11964871974 0.11790666106 0.11555571481 0.11284863322 
0.11001688934 0.10725749319 0.10473057567 0.10256477157 0.10086358599 0.099703337567 0.099117099545 0.099073442622 0.099471635083 
0.10016248857 0.10098001433 0.10178247252 0.10249164931 0.10310105851 0.10365221235 0.10419464388 0.10475998942 0.10536298147 
0.10601551614 0.10674296326 0.10759881558 0.10867150417 0.11007329254 0.11191379927 0.11428106518 0.11724403374 0.12085742239 
0.12515200327 0.13011694842 0.13568604424 0.1417322453 0.14807038253 0.15446848593 0.16066819481 0.16641222 0.17147406661 
0.17568379296 0.17894362076 0.18122885753 0.18257335808 0.1830446211 0.18271925988 0.18166991848 0.17996692481 0.17768732002 
0.17491887892 0.17175047654 0.16825047572 0.1644457122 0.16031478734 0.15579749938 0.1508116983 0.14527042604 0.13909715877 
0.13223777167 0.12466833374 0.11639994945 0.10748245819 0.098006876226 0.088104514676 0.07794105032 0.067706179054 0.057601582715 
0.047829942522 0.038586001306 0.030049196785 0.02237741933 0.015702340984 0.010127212765 0.0057276010132 0.0025546768543 0.00063994726545 
5.5511151231e-17 
