# vtk DataFile Version 5.1
vtk output
ASCII
DATASET POLYDATA
POINTS 100 float
0.0959949 0.0068399 -0.59408 0.0958721 0.00705905 -0.59385 0.0955445 0.00755553 -0.593256 
0.0950141 0.00827614 -0.592268 0.0942803 0.00913686 -0.590836 0.0933347 0.0100304 -0.5889 
0.0921562 0.0108355 -0.586391 0.090706 0.0114278 -0.583238 0.0889253 0.0116901 -0.579377 
0.0867354 0.0115221 -0.574755 0.0840413 0.0108487 -0.569329 0.0807392 0.00962487 -0.563075 
0.076726 0.00783901 -0.555986 0.0719113 0.00551246 -0.548065 0.0662302 0.00269695 -0.539331 
0.0596535 -0.000530338 -0.529808 0.0521966 -0.00407319 -0.519526 0.043923 -0.00782362 -0.508515 
0.0349435 -0.0116692 -0.496805 0.0254093 -0.0154999 -0.484419 0.0155004 -0.0192138 -0.471381 
0.00541042 -0.0227216 -0.457707 -0.00467122 -0.0259491 -0.443416 -0.0145774 -0.0288392 -0.428523 
-0.024179 -0.0313514 -0.413047 -0.033397 -0.0334614 -0.397007 -0.0422084 -0.035159 -0.380425 
-0.0506463 -0.036447 -0.363325 -0.0587923 -0.0373383 -0.345731 -0.0667637 -0.0378546 -0.327666 
-0.0746943 -0.0380247 -0.309146 -0.0827145 -0.0378823 -0.290183 -0.090929 -0.0374655 -0.270785 
-0.0993979 -0.0368144 -0.25095 -0.108122 -0.0359708 -0.230673 -0.117033 -0.0349756 -0.20995 
-0.125993 -0.033868 -0.188779 -0.134804 -0.0326839 -0.167169 -0.143216 -0.0314542 -0.145144 
-0.15095 -0.0302041 -0.122746 -0.157721 -0.0289524 -0.100042 -0.163262 -0.0277116 -0.0771217 
-0.167346 -0.0264885 -0.0540998 -0.169809 -0.0252857 -0.0311091 -0.170559 -0.0241031 -0.00829548 
-0.169588 -0.0229404 0.0141906 -0.166965 -0.0217986 0.0362034 -0.162835 -0.0206823 0.057612 
-0.157401 -0.0196001 0.0783085 -0.150903 -0.0185655 0.0982154 -0.143605 -0.017596 0.11729 
-0.135764 -0.0167115 0.135525 -0.127618 -0.0159324 0.152947 -0.119368 -0.0152768 0.169611 
-0.111166 -0.0147581 0.185595 -0.103111 -0.0143828 0.200985 -0.0952517 -0.0141491 0.215872 
-0.0875873 -0.0140468 0.230341 -0.0800808 -0.014058 0.244461 -0.0726694 -0.0141598 0.258284 
-0.0652775 -0.0143269 0.271842 -0.0578295 -0.0145355 0.285145 -0.0502601 -0.0147672 0.298192 
-0.042523 -0.0150119 0.310969 -0.034596 -0.0152704 0.323462 -0.0264828 -0.0155542 0.335662 
-0.0182128 -0.0158855 0.347571 -0.0098376 -0.0162931 0.359206 -0.00142657 -0.0168089 0.370603 
0.00693842 -0.0174621 0.381812 0.0151686 -0.0182731 0.392897 0.0231736 -0.0192485 0.403923 
0.0308654 -0.0203769 0.414956 0.0381624 -0.0216262 0.426048 0.0449919 -0.0229443 0.437231 
0.0512919 -0.0242615 0.448509 0.0570131 -0.025496 0.459855 0.0621198 -0.026561 0.471208 
0.0665913 -0.0273734 0.482476 0.0704226 -0.0278629 0.493541 0.0736254 -0.0279802 0.504266 
0.0762281 -0.0277031 0.514505 0.0782754 -0.0270411 0.524116 0.0798269 -0.0260351 0.532967 
0.0809547 -0.0247554 0.540949 0.0817394 -0.0232952 0.547982 0.0822662 -0.0217617 0.554022 
0.082619 -0.020266 0.559062 0.0828751 -0.0189118 0.563129 0.0831003 -0.0177851 0.566286 
0.0833443 -0.0169457 0.568621 0.0836382 -0.0164217 0.570245 0.0839933 -0.0162078 0.571281 
0.0844021 -0.016267 0.571858 0.0848412 -0.0165363 0.572102 0.0852758 -0.0169352 0.572133 
0.0856656 -0.0173764 0.572054 0.0859707 -0.0177769 0.57195 0.0861572 -0.0180686 0.571885 
0.0862027 -0.0182071 0.571898 
LINES 2 100
OFFSETS vtktypeint64
0 100 
CONNECTIVITY vtktypeint64
0 1 2 3 4 5 6 7 8 
9 10 11 12 13 14 15 16 17 
18 19 20 21 22 23 24 25 26 
27 28 29 30 31 32 33 34 35 
36 37 38 39 40 41 42 43 44 
45 46 47 48 49 50 51 52 53 
54 55 56 57 58 59 60 61 62 
63 64 65 66 67 68 69 70 71 
72 73 74 75 76 77 78 79 80 
81 82 83 84 85 86 87 88 89 
90 91 92 93 94 95 96 97 98 
99 
POINT_DATA 100
FIELD FieldData 3
_theta 1 100 double
0 0.031733259127 0.063466518254 0.095199777382 0.12693303651 0.15866629564 0.19039955476 0.22213281389 0.25386607302 
0.28559933214 0.31733259127 0.3490658504 0.38079910953 0.41253236865 0.44426562778 0.47599888691 0.50773214603 0.53946540516 
0.57119866429 0.60293192342 0.63466518254 0.66639844167 0.6981317008 0.72986495992 0.76159821905 0.79333147818 0.82506473731 
0.85679799643 0.88853125556 0.92026451469 0.95199777382 0.98373103294 1.0154642921 1.0471975512 1.0789308103 1.1106640695 
1.1423973286 1.1741305877 1.2058638468 1.237597106 1.2693303651 1.3010636242 1.3327968833 1.3645301425 1.3962634016 
1.4279966607 1.4597299198 1.491463179 1.5231964381 1.5549296972 1.5866629564 1.6183962155 1.6501294746 1.6818627337 
1.7135959929 1.745329252 1.7770625111 1.8087957702 1.8405290294 1.8722622885 1.9039955476 1.9357288068 1.9674620659 
1.999195325 2.0309285841 2.0626618433 2.0943951024 2.1261283615 2.1578616206 2.1895948798 2.2213281389 2.253061398 
2.2847946572 2.3165279163 2.3482611754 2.3799944345 2.4117276937 2.4434609528 2.4751942119 2.506927471 2.5386607302 
2.5703939893 2.6021272484 2.6338605076 2.6655937667 2.6973270258 2.7290602849 2.7607935441 2.7925268032 2.8242600623 
2.8559933214 2.8877265806 2.9194598397 2.9511930988 2.982926358 3.0146596171 3.0463928762 3.0781261353 3.1098593945 
3.1415926536 
_radius 1 100 double
4.696337319e-16 0.012399590313 0.024774360982 0.037094570015 0.049319675743 0.061393215085 0.073238903161 0.084759107526 0.095836750375 
0.10634115453 0.11613752854 0.12509893786 0.13311898308 0.14012317069 0.1460771717 0.15099076398 0.15491709537 0.15794777159 
0.16020492255 0.1618316388 0.16298192745 0.16381073803 0.16446397727 0.16506820171 0.16572015486 0.16647736619 0.16735196863 
0.1683099129 0.16927666472 0.17014892396 0.17081076835 0.17115215422 0.17108746232 0.17057139415 0.16960948795 0.1682615672 
0.16663818029 0.1648913326 0.16320103856 0.16175900441 0.16075089994 0.16033936929 0.16065048375 0.16176573881 0.1637197037 
0.1665012532 0.17005567269 0.17428633896 0.17905700307 0.18419725089 0.18951341721 0.19480516584 0.19988531678 0.20459883458 
0.20883695693 0.21254386971 0.21571521571 0.21838935042 0.22063334484 0.22252627055 0.22414236762 0.22553642317 0.22673325094 
0.22772267183 0.22846076393 0.22887720476 0.22888739134 0.2284071739 0.22736778964 0.22572876416 0.22348685407 0.22067949585 
0.21738188185 0.21369779936 0.20974556193 0.20564133923 0.20148262379 0.1973343969 0.19321990917 0.18911704778 0.18496023056 
0.18064692781 0.17604751825 0.17101726829 0.16540952998 0.15908941619 0.15194703706 0.14390900169 0.13494663881 0.12507953827 
0.1143735965 0.10293360129 0.090891285967 0.078390529444 0.065571855483 0.052558530291 0.039446351591 0.026298682781 0.013147470515 
7.3900399947e-16 
_area 1 100 double
0 0.00040243432358 0.0016183273578 0.0036689270781 0.0065755533925 0.010341574559 0.01493258643 0.020259089547 0.026166331112 
0.03243556674 0.038799200605 0.044969014136 0.050672735271 0.055690926209 0.059885095356 0.063209934022 0.065707172477 0.067484004989 
0.068683458747 0.069456480492 0.069944957458 0.070279283821 0.070583911208 0.070978641724 0.07156946708 0.072430421636 0.073582930473 
0.074983961916 0.076529479701 0.078070271141 0.079434924275 0.08045794872 0.081013020126 0.081049210754 0.080625805579 0.079933962719 
0.07923091279 0.078689849849 0.078418776932 0.078512460834 0.079039312141 0.080033186948 0.081504972078 0.083464499218 0.085940516441 
0.088981605451 0.092634391449 0.096919307644 0.10180528161 0.1071799817 0.11283659235 0.11849887185 0.12388275564 0.12876796516 
0.13304721969 0.13672843274 0.13988525528 0.14259283467 0.14490009982 0.14684025198 0.14845071954 0.14979188328 0.1509483734 
0.15189987098 0.15247546454 0.15246432806 0.15171064742 0.15012989797 0.14771103636 0.14451116687 0.14064402668 0.13626473861 
0.13155163181 0.12668433786 0.12181878441 0.1170652886 0.11247770883 0.1080534681 0.10373969653 0.099445189478 0.095058574532 
0.090468711267 0.085581380609 0.080328854037 0.074673187821 0.068606854808 0.062154280163 0.055375574015 0.048370726846 0.0412803995 
0.034279533651 0.027562533344 0.021322398089 0.015728940579 0.010911822096 0.0069526040306 0.0038872510455 0.0017175615417 0.00042759788788 
3.5558545042e-17 
