# vtk DataFile Version 5.1
vtk output
ASCII
DATASET POLYDATA
POINTS 100 float
0.169974 0.0639322 -0.675771 0.169771 0.0638516 -0.675646 0.169164 0.0634034 -0.675204 
0.168198 0.0626025 -0.674392 0.166943 0.0614723 -0.673129 0.165477 0.0600396 -0.67132 
0.163878 0.0583282 -0.668862 0.162206 0.0563536 -0.665663 0.16049 0.0541182 -0.661648 
0.158721 0.051609 -0.656772 0.156846 0.0487979 -0.651024 0.154769 0.0456452 -0.644425 
0.15236 0.0421053 -0.637025 0.149464 0.038135 -0.628896 0.145918 0.0337027 -0.620121 
0.141571 0.028797 -0.610779 0.136299 0.0234342 -0.600938 0.130021 0.0176627 -0.590641 
0.122709 0.0115649 -0.579902 0.114394 0.00525379 -0.568701 0.105165 -0.00113272 -0.556987 
0.0951599 -0.00744169 -0.544683 0.0845532 -0.0135167 -0.531695 0.0735388 -0.0192101 -0.517919 
0.062311 -0.0243952 -0.503259 0.0510455 -0.0289753 -0.48763 0.0398833 -0.0328906 -0.470971 
0.0289198 -0.0361206 -0.453247 0.018199 -0.038682 -0.434451 0.00771504 -0.0406236 -0.414606 
-0.00257943 -0.0420166 -0.393755 -0.0127598 -0.0429444 -0.371955 -0.0229113 -0.0434905 -0.349276 
-0.0331097 -0.0437286 -0.325786 -0.0434015 -0.0437136 -0.301551 -0.0537878 -0.0434769 -0.276633 
-0.064213 -0.0430246 -0.251087 -0.0745601 -0.0423406 -0.224965 -0.0846526 -0.0413919 -0.19832 
-0.0942647 -0.0401374 -0.171215 -0.103137 -0.0385377 -0.143726 -0.110998 -0.0365641 -0.115945 
-0.117586 -0.0342075 -0.0879894 -0.122674 -0.0314837 -0.0599934 -0.126089 -0.028436 -0.0321104 
-0.127728 -0.025134 -0.00450397 -0.127572 -0.0216687 0.0226608 -0.125683 -0.018146 0.0492274 
-0.1222 -0.0146765 0.0750588 -0.117332 -0.0113668 0.100046 -0.111332 -0.00830961 0.124117 
-0.104481 -0.00557699 0.147236 -0.0970648 -0.00321531 0.169409 -0.0893489 -0.00124374 0.190677 
-0.0815617 0.000344253 0.211107 -0.0738801 0.00157665 0.230786 -0.0664208 0.00249654 0.249809 
-0.0592393 0.00315468 0.26827 -0.0523346 0.00360205 0.28625 -0.0456593 0.0038833 0.303814 
-0.0391345 0.00403199 0.321007 -0.0326652 0.00406805 0.337854 -0.0261577 0.00399772 0.354364 
-0.0195342 0.00381562 0.370534 -0.0127442 0.00350859 0.386357 -0.00577214 0.00306039 0.401829 
0.00136082 0.00245657 0.416954 0.00859904 0.00168867 0.431747 0.0158595 0.000756965 0.446236 
0.0230417 -0.000328455 0.460458 0.0300398 -0.00154849 0.474455 0.0367541 -0.0028775 0.488266 
0.0431025 -0.00428689 0.501921 0.0490278 -0.00574923 0.515433 0.0545035 -0.00724214 0.528794 
0.0595337 -0.00875117 0.541969 0.0641507 -0.0102712 0.5549 0.0684085 -0.0118064 0.567507 
0.0723746 -0.0133674 0.579699 0.0761193 -0.0149688 0.591376 0.0797071 -0.0166236 0.60245 
0.0831872 -0.0183393 0.612844 0.0865879 -0.0201138 0.622509 0.0899136 -0.021932 0.631425 
0.0931447 -0.0237658 0.639603 0.0962412 -0.0255746 0.647085 0.0991489 -0.0273093 0.653937 
0.101807 -0.0289165 0.660236 0.104159 -0.0303453 0.666066 0.106156 -0.031553 0.671501 
0.107771 -0.0325114 0.676597 0.108996 -0.03321 0.681381 0.109851 -0.033659 0.685851 
0.110377 -0.0338877 0.689975 0.110634 -0.0339425 0.693691 0.110695 -0.0338807 0.69692 
0.110637 -0.0337639 0.699574 0.110531 -0.0336508 0.701568 0.110434 -0.0335895 0.702832 
0.110385 -0.0336115 0.703317 
LINES 2 100
OFFSETS vtktypeint64
0 100 
CONNECTIVITY vtktypeint64
0 1 2 3 4 5 6 7 8 
9 10 11 12 13 14 15 16 17 
18 19 20 21 22 23 24 25 26 
27 28 29 30 31 32 33 34 35 
36 37 38 39 40 41 42 43 44 
45 46 47 48 49 50 51 52 53 
54 55 56 57 58 59 60 61 62 
63 64 65 66 67 68 69 70 71 
72 73 74 75 76 77 78 79 80 
81 82 83 84 85 86 87 88 89 
90 91 92 93 94 95 96 97 98 
99 
POINT_DATA 100
FIELD FieldData 3
_theta 1 100 double
0 0.031733259127 0.063466518254 0.095199777382 0.12693303651 0.15866629564 0.19039955476 0.22213281389 0.25386607302 
0.28559933214 0.31733259127 0.3490658504 0.38079910953 0.41253236865 0.44426562778 0.47599888691 0.50773214603 0.53946540516 
0.57119866429 0.60293192342 0.63466518254 0.66639844167 0.6981317008 0.72986495992 0.76159821905 0.79333147818 0.82506473731 
0.85679799643 0.88853125556 0.92026451469 0.95199777382 0.98373103294 1.0154642921 1.0471975512 1.0789308103 1.1106640695 
1.1423973286 1.1741305877 1.2058638468 1.237597106 1.2693303651 1.3010636242 1.3327968833 1.3645301425 1.3962634016 
1.4279966607 1.4597299198 1.491463179 1.5231964381 1.5549296972 1.5866629564 1.6183962155 1.6501294746 1.6818627337 
1.7135959929 1.745329252 1.7770625111 1.8087957702 1.8405290294 1.8722622885 1.9039955476 1.9357288068 1.9674620659 
1.999195325 2.0309285841 2.0626618433 2.0943951024 2.1261283615 2.1578616206 2.1895948798 2.2213281389 2.253061398 
2.2847946572 2.3165279163 2.3482611754 2.3799944345 2.4117276937 2.4434609528 2.4751942119 2.506927471 2.5386607302 
2.5703939893 2.6021272484 2.6338605076 2.6655937667 2.6973270258 2.7290602849 2.7607935441 2.7925268032 2.8242600623 
2.8559933214 2.8877265806 2.9194598397 2.9511930988 2.982926358 3.0146596171 3.0463928762 3.0781261353 3.1098593945 
3.1415926536 
_radius 1 100 double
5.0037075531e-17 0.016430790362 0.032672303119 0.048546420943 0.063903853261 0.078632755625 0.092661444917 0.1059550133 0.11850676071 
0.13032628656 0.14142658417 0.15181244583 0.16147197191 0.17037222481 0.17845937484 0.18566320294 0.19190547762 0.19711134066 
0.20122238277 0.20420970125 0.20608505999 0.20690836838 0.20679003165 0.20588726366 0.20439416874 0.20252626236 0.20050105018 
0.19851718875 0.196735382 0.19526423927 0.19415362221 0.19339659676 0.19293940131 0.19269743614 0.19257454835 0.19248276905 
0.19235985043 0.19218224139 0.19197161678 0.19179401454 0.19175216064 0.19197327119 0.19259552578 0.19375566649 0.19557818513 
0.19816492343 0.20158391705 0.20585775997 0.21095342417 0.21677631046 0.22317107827 0.2299307254 0.23681371917 0.24356705458 
0.24995154302 0.25576505583 0.26086005211 0.26515314412 0.268626105 0.27131913432 0.27331814653 0.27473831105 0.2757061448 
0.27634227529 0.2767466803 0.27698783817 0.27709678153 0.27706648256 0.27685628982 0.27640038274 0.27561859718 0.27442766889 
0.27275099909 0.27052544808 0.26770433624 0.26425664812 0.26016320869 0.25541114874 0.24998818881 0.24387814658 0.23705869878 
0.22950192639 0.22117764263 0.21205900906 0.20212952732 0.19139019851 0.17986552837 0.16760717289 0.15469436935 0.1412308157 
0.12733823602 0.11314737996 0.098787560998 0.084376003277 0.070008251547 0.055750758763 0.041636563355 0.027664731464 0.013803926706 
3.7008942515e-16 
_area 1 100 double
0 0.00071999031895 0.0028326288008 0.0062051589876 0.010644353897 0.015929890506 0.02184705169 0.028211077575 0.034879005838 
0.041748564395 0.048746494573 0.05581059328 0.062870708039 0.069833373055 0.076572921941 0.082930064871 0.088718128249 0.093737114832 
0.097795334912 0.10073686094 0.1024707792 0.10299627981 0.10241709098 0.10093956604 0.098849666555 0.096466096926 0.094077292379 
0.091892495316 0.0900386207 0.08856768755 0.087485779577 0.086784969862 0.08645051274 0.086468902422 0.086842721122 0.087603529198 
0.088795374301 0.090409376186 0.092353502453 0.094513831966 0.096806684511 0.099181589575 0.10161629323 0.10412893514 0.10679588955 
0.10976141839 0.11323049649 0.11743225006 0.12255366929 0.12867711002 0.13575676092 0.1436270651 0.15202102715 0.16059362183 
0.16895587576 0.1767231617 0.18357683815 0.18935967341 0.19433307011 0.19840205725 0.20164205455 0.20393871044 0.20536063775 
0.20608309145 0.20622104451 0.20581554834 0.20489096021 0.20345853864 0.20151579797 0.19904909406 0.1960335843 0.19243637793 
0.18823118829 0.18341754917 0.17802726609 0.17211293965 0.16572901997 0.1589173358 0.15170130119 0.14408783289 0.1360755101 
0.12766668407 0.11887904041 0.10975183007 0.10034512634 0.090735006746 0.081009877775 0.071270929118 0.061635038493 0.05223612496 
0.043222237086 0.034748048535 0.026964270705 0.020006606671 0.013986990573 0.008988967395 0.005067792661 0.002254702718 0.00056388636485 
7.4586537036e-17 
