# vtk DataFile Version 5.1
vtk output
ASCII
DATASET POLYDATA
POINTS 100 float
0.0718137 0.101177 -0.701378 0.0715021 0.101069 -0.700843 0.0705703 0.100466 -0.699241 
0.0690884 0.0993511 -0.696585 0.0671659 0.0977053 -0.692896 0.0649422 0.0955073 -0.688209 
0.0625735 0.0927403 -0.682564 0.0602177 0.0893962 -0.676015 0.0580198 0.0854807 -0.668623 
0.0560969 0.0810152 -0.660459 0.0545268 0.0760384 -0.651598 0.0533389 0.0706048 -0.642122 
0.0525096 0.0647818 -0.632111 0.051963 0.058645 -0.621644 0.0515754 0.0522725 -0.610791 
0.0511854 0.0457393 -0.599613 0.0506067 0.039112 -0.588155 0.0496437 0.032445 -0.576449 
0.0481088 0.0257789 -0.564506 0.0458379 0.0191405 -0.55232 0.0427053 0.0125453 -0.539868 
0.0386339 0.00600204 -0.527113 0.0336014 -0.000481918 -0.514006 0.0276416 -0.0068947 -0.500491 
0.0208401 -0.0132143 -0.486509 0.0133251 -0.0194046 -0.472001 0.00525525 -0.0254127 -0.456917 
-0.00319578 -0.0311694 -0.441213 -0.0118548 -0.0365921 -0.424859 -0.0205638 -0.0415893 -0.407838 
-0.0291916 -0.0460676 -0.390144 -0.0376423 -0.0499397 -0.371788 -0.0458574 -0.053132 -0.352788 
-0.0538142 -0.055592 -0.333175 -0.061519 -0.057293 -0.312983 -0.0689954 -0.0582378 -0.292253 
-0.0762722 -0.0584583 -0.271025 -0.0833687 -0.058013 -0.249341 -0.0902824 -0.0569825 -0.227238 
-0.096979 -0.0554619 -0.204752 -0.103387 -0.0535532 -0.181914 -0.109399 -0.0513569 -0.158753 
-0.114872 -0.0489648 -0.135297 -0.119645 -0.0464543 -0.11157 -0.123545 -0.0438841 -0.0876014 
-0.126408 -0.0412934 -0.0634184 -0.128094 -0.0387027 -0.0390544 -0.128502 -0.0361167 -0.0145473 
-0.127578 -0.0335295 0.0100585 -0.125325 -0.0309293 0.0347119 -0.121804 -0.0283045 0.0593545 
-0.117121 -0.0256481 0.0839209 -0.111427 -0.0229618 0.108339 -0.104895 -0.0202575 0.132533 
-0.0977051 -0.0175581 0.156421 -0.090031 -0.0148957 0.179923 -0.0820201 -0.0123096 0.202957 
-0.0737846 -0.00984234 0.225449 -0.0653946 -0.00753642 0.24733 -0.0568774 -0.0054309 0.268541 
-0.0482227 -0.0035588 0.28904 -0.0393926 -0.00194549 0.308798 -0.0303349 -0.000608311 0.327804 
-0.0209986 0.000442883 0.346067 -0.0113482 0.00120428 0.363613 -0.00137626 0.00167635 0.380487 
0.00888842 0.00186196 0.396745 0.0193778 0.00176504 0.412457 0.0299872 0.00138979 0.427695 
0.0405828 0.000740787 0.442535 0.0510142 -0.000175985 0.457044 0.0611287 -0.00135157 0.471282 
0.0707866 -0.00277205 0.485291 0.0798756 -0.00441659 0.499095 0.0883214 -0.00625606 0.512697 
0.0960937 -0.00825237 0.526078 0.103207 -0.010359 0.539198 0.109717 -0.0125228 0.551999 
0.115709 -0.0146867 0.564409 0.121286 -0.0167934 0.576348 0.126553 -0.0187898 0.587731 
0.131604 -0.0206304 0.598478 0.136508 -0.0222817 0.608517 0.141298 -0.0237238 0.617788 
0.145974 -0.0249516 0.626251 0.150496 -0.0259747 0.633881 0.154799 -0.0268147 0.640676 
0.158797 -0.0275024 0.646653 0.162399 -0.0280731 0.651845 0.165526 -0.0285626 0.656299 
0.168118 -0.0290025 0.660074 0.170149 -0.0294171 0.663234 0.17163 -0.0298208 0.665845 
0.172608 -0.0302179 0.667973 0.173163 -0.0306029 0.669679 0.173398 -0.0309627 0.671016 
0.173424 -0.0312799 0.67203 0.173349 -0.0315363 0.672756 0.173261 -0.0317166 0.673217 
0.173218 -0.0318108 0.673428 
LINES 2 100
OFFSETS vtktypeint64
0 100 
CONNECTIVITY vtktypeint64
0 1 2 3 4 5 6 7 8 
9 10 11 12 13 14 15 16 17 
18 19 20 21 22 23 24 25 26 
27 28 29 30 31 32 33 34 35 
36 37 38 39 40 41 42 43 44 
45 46 47 48 49 50 51 52 53 
54 55 56 57 58 59 60 61 62 
63 64 65 66 67 68 69 70 71 
72 73 74 75 76 77 78 79 80 
81 82 83 84 85 86 87 88 89 
90 91 92 93 94 95 96 97 98 
99 
POINT_DATA 100
FIELD FieldData 3
_theta 1 100 double
0 0.031733259127 0.063466518254 0.095199777382 0.12693303651 0.15866629564 0.19039955476 0.22213281389 0.25386607302 
0.28559933214 0.31733259127 0.3490658504 0.38079910953 0.41253236865 0.44426562778 0.47599888691 0.50773214603 0.53946540516 
0.57119866429 0.60293192342 0.63466518254 0.66639844167 0.6981317008 0.72986495992 0.76159821905 0.79333147818 0.82506473731 
0.85679799643 0.88853125556 0.92026451469 0.95199777382 0.98373103294 1.0154642921 1.0471975512 1.0789308103 1.1106640695 
1.1423973286 1.1741305877 1.2058638468 1.237597106 1.2693303651 1.3010636242 1.3327968833 1.3645301425 1.3962634016 
1.4279966607 1.4597299198 1.491463179 1.5231964381 1.5549296972 1.5866629564 1.6183962155 1.6501294746 1.6818627337 
1.7135959929 1.745329252 1.7770625111 1.8087957702 1.8405290294 1.8722622885 1.9039955476 1.9357288068 1.9674620659 
1.999195325 2.0309285841 2.0626618433 2.0943951024 2.1261283615 2.1578616206 2.1895948798 2.2213281389 2.253061398 
2.2847946572 2.3165279163 2.3482611754 2.3799944345 2.4117276937 2.4434609528 2.4751942119 2.506927471 2.5386607302 
2.5703939893 2.6021272484 2.6338605076 2.6655937667 2.6973270258 2.7290602849 2.7607935441 2.7925268032 2.8242600623 
2.8559933214 2.8877265806 2.9194598397 2.9511930988 2.982926358 3.0146596171 3.0463928762 3.0781261353 3.1098593945 
3.1415926536 
_radius 1 100 double
2.3876248942e-16 0.014151024248 0.028143752658 0.041828468803 0.055081059471 0.067811342202 0.079966868256 0.091532123066 0.10252381316 
0.1129833712 0.12296781576 0.1325398072 0.14175747695 0.15066465745 0.15928250579 0.16760390204 0.17559203679 0.18318407847 
0.19029982538 0.19685411587 0.20277085378 0.20799605742 0.21250745962 0.21631884449 0.21947837406 0.22206140929 0.22415945794 
0.22586756906 0.22727253575 0.2284436968 0.22942722815 0.23024397784 0.23089040963 0.23134212129 0.23155952374 0.23149537304 
0.23110377579 0.23035000612 0.22922005788 0.22772847866 0.22592292356 0.22388423345 0.22172172498 0.21956453934 0.2175508883 
0.21581743166 0.21449059606 0.21368046782 0.21347643911 0.21394292984 0.21511396728 0.21698699426 0.21951789804 0.22261977964 
0.22616710861 0.230005234 0.23396369702 0.23787103458 0.2415688161 0.24492319836 0.24783298367 0.25023383503 0.25209884434 
0.2534360018 0.25428323818 0.2547016357 0.25476724159 0.25456180985 0.25416282372 0.25363330781 0.25301220622 0.25230650252 
0.25148669457 0.25048725772 0.24921274504 0.24754833453 0.24537214125 0.24256653657 0.23902686056 0.23466727952 0.22942438038 
0.22325924907 0.21615845293 0.20813386825 0.19922096905 0.18947520488 0.17896645118 0.1677720594 0.15596952315 0.14362998703 
0.13081367542 0.11756791604 0.10392798075 0.089920564815 0.075569314327 0.060901333815 0.045953214612 0.030775092576 0.015431682884 
1.6026538089e-15 
_area 1 100 double
0 0.00059305630925 0.0023526410864 0.0052197579154 0.0090963449574 0.013848708629 0.019316233081 0.025325646976 0.031708652929 
0.038318895593 0.045043818935 0.051808053246 0.05856722393 0.065293834664 0.071959205138 0.078516393623 0.08488837276 0.090964163528 
0.096604039677 0.10165349236 0.10596404065 0.10941713597 0.11194613005 0.11355167815 0.11430822216 0.11436193492 0.1139218017 
0.11324450368 0.112610432 0.11228394917 0.11245431764 0.11317686322 0.11435691096 0.11579331517 0.11724969352 0.11851499785 
0.11943912687 0.11994722694 0.1200421046 0.11980361625 0.11938798951 0.11900989634 0.118859625 0.11900275744 0.11941937315 
0.12009414734 0.12104360914 0.12231260995 0.12396914652 0.12609950062 0.1287973929 0.13214246787 0.13617171492 0.14085571165 
0.14608954002 0.15169853004 0.15745410261 0.16309676018 0.16836485002 0.1730260455 0.17690566194 0.17990510119 0.18200607605 
0.18326044149 0.18376933174 0.18365790136 0.18305309781 0.18206999854 0.18080596016 0.17933535402 0.17769839077 0.17588620962 
0.17383284727 0.17142400516 0.16852284814 0.16500290685 0.16077471023 0.15579682648 0.15006992777 0.14362008991 0.13648171386 
0.12868949288 0.12028310415 0.11132079876 0.10189313913 0.092128512753 0.082186947951 0.072244772264 0.062476412948 0.05303981027 
0.044069323037 0.035676466877 0.027956098147 0.020994700499 0.014877812255 0.0096942110462 0.0055350942657 0.0024878891326 0.00062634234536 
6.0702176796e-17 
