# vtk DataFile Version 5.1
vtk output
ASCII
DATASET POLYDATA
POINTS 100 float
0.150446 0.0705986 -0.624684 0.150442 0.0704865 -0.624803 0.150427 0.0699681 -0.625076 
0.150351 0.0690488 -0.625403 0.150132 0.0677366 -0.625629 0.149668 0.0660399 -0.625566 
0.148842 0.0639647 -0.625012 0.147536 0.0615124 -0.623772 0.145636 0.058678 -0.62168 
0.143044 0.0554503 -0.618614 0.139681 0.0518133 -0.614506 0.135497 0.0477495 -0.609345 
0.130471 0.0432441 -0.603165 0.124611 0.0382909 -0.596044 0.117951 0.0328975 -0.588076 
0.110551 0.0270904 -0.579363 0.102491 0.0209184 -0.569989 0.0938676 0.0144542 -0.560011 
0.0847855 0.00779297 -0.549448 0.0753566 0.0010494 -0.538276 0.0656943 -0.00564882 -0.526439 
0.055909 -0.0121685 -0.51385 0.0461055 -0.0183801 -0.500415 0.0363788 -0.0241661 -0.486042 
0.0268113 -0.0294295 -0.470667 0.0174691 -0.0340998 -0.454257 0.00839967 -0.0381369 -0.436829 
-0.000370721 -0.0415311 -0.418447 -0.00883851 -0.0443018 -0.39922 -0.0170227 -0.0464919 -0.379289 
-0.024963 -0.0481609 -0.358813 -0.0327162 -0.0493767 -0.337952 -0.0403492 -0.0502073 -0.316842 
-0.0479316 -0.0507127 -0.295586 -0.0555251 -0.0509394 -0.274235 -0.0631733 -0.0509161 -0.252789 
-0.0708911 -0.0506528 -0.231196 -0.0786558 -0.0501422 -0.20936 -0.0864009 -0.0493634 -0.187163 
-0.094014 -0.0482875 -0.164476 -0.101339 -0.0468834 -0.141191 -0.108181 -0.0451251 -0.117233 
-0.114323 -0.0429965 -0.0925819 -0.119535 -0.0404964 -0.0672815 -0.123598 -0.0376406 -0.0414438 
-0.126319 -0.0344629 -0.0152433 -0.127549 -0.0310134 0.0110943 -0.1272 -0.0273561 0.0373108 
-0.125255 -0.0235649 0.0631372 -0.121768 -0.0197191 0.0883171 -0.116868 -0.0158997 0.112628 
-0.110744 -0.0121855 0.135901 -0.103632 -0.0086503 0.158028 -0.0957977 -0.00536121 0.178971 
-0.0875109 -0.00237762 0.198757 -0.0790265 0.000249188 0.217469 -0.0705642 0.00247614 0.235235 
-0.0622932 0.00426854 0.252204 -0.0543231 0.00560072 0.268535 -0.0467015 0.00645706 0.284375 
-0.0394185 0.00683369 0.299851 -0.032418 0.00674035 0.315058 -0.025613 0.00620219 0.330057 
-0.0189039 0.00526104 0.344878 -0.012198 0.00397553 0.359526 -0.00542625 0.00241977 0.373989 
0.00144321 0.00068023 0.388248 0.00839747 -0.00114919 0.402288 0.0153772 -0.00297358 0.416103 
0.0222813 -0.00470456 0.429702 0.0289776 -0.00626793 0.443105 0.0353171 -0.00761085 0.456344 
0.0411507 -0.00870724 0.469454 0.0463463 -0.00956092 0.482466 0.0508034 -0.0102056 0.495396 
0.054464 -0.0107018 0.508241 0.0573185 -0.01113 0.520974 0.0594057 -0.0115819 0.533542 
0.0608072 -0.0121494 0.54587 0.0616376 -0.0129135 0.557865 0.0620306 -0.0139331 0.569428 
0.0621247 -0.0152373 0.580461 0.0620487 -0.0168196 0.590877 0.0619094 -0.0186372 0.600613 
0.0617837 -0.0206136 0.609629 0.0617147 -0.0226464 0.617915 0.0617126 -0.0246176 0.625488 
0.0617603 -0.0264068 0.632389 0.0618218 -0.0279046 0.638669 0.0618525 -0.0290256 0.644389 
0.0618104 -0.0297185 0.649601 0.061665 -0.0299729 0.654345 0.061404 -0.0298211 0.658644 
0.0610368 -0.029335 0.662497 0.060593 -0.0286185 0.665884 0.0601186 -0.027796 0.668765 
0.0596688 -0.0269979 0.671095 0.059299 -0.0263459 0.672823 0.0590563 -0.0259391 0.673908 
0.0589718 -0.0258422 0.674321 
LINES 2 100
OFFSETS vtktypeint64
0 100 
CONNECTIVITY vtktypeint64
0 1 2 3 4 5 6 7 8 
9 10 11 12 13 14 15 16 17 
18 19 20 21 22 23 24 25 26 
27 28 29 30 31 32 33 34 35 
36 37 38 39 40 41 42 43 44 
45 46 47 48 49 50 51 52 53 
54 55 56 57 58 59 60 61 62 
63 64 65 66 67 68 69 70 71 
72 73 74 75 76 77 78 79 80 
81 82 83 84 85 86 87 88 89 
90 91 92 93 94 95 96 97 98 
99 
POINT_DATA 100
FIELD FieldData 3
_theta 1 100 double
0 0.031733259127 0.063466518254 0.095199777382 0.12693303651 0.15866629564 0.19039955476 0.22213281389 0.25386607302 
0.28559933214 0.31733259127 0.3490658504 0.38079910953 0.41253236865 0.44426562778 0.47599888691 0.50773214603 0.53946540516 
0.57119866429 0.60293192342 0.63466518254 0.66639844167 0.6981317008 0.72986495992 0.76159821905 0.79333147818 0.82506473731 
0.85679799643 0.88853125556 0.92026451469 0.95199777382 0.98373103294 1.0154642921 1.0471975512 1.0789308103 1.1106640695 
1.1423973286 1.1741305877 1.2058638468 1.237597106 1.2693303651 1.3010636242 1.3327968833 1.3645301425 1.3962634016 
1.4279966607 1.4597299198 1.491463179 1.5231964381 1.5549296972 1.5866629564 1.6183962155 1.6501294746 1.6818627337 
1.7135959929 1.745329252 1.7770625111 1.8087957702 1.8405290294 1.8722622885 1.9039955476 1.9357288068 1.9674620659 
1.999195325 2.0309285841 2.0626618433 2.0943951024 2.1261283615 2.1578616206 2.1895948798 2.2213281389 2.253061398 
2.2847946572 2.3165279163 2.3482611754 2.3799944345 2.4117276937 2.4434609528 2.4751942119 2.506927471 2.5386607302 
2.5703939893 2.6021272484 2.6338605076 2.6655937667 2.6973270258 2.7290602849 2.7607935441 2.7925268032 2.8242600623 
2.8559933214 2.8877265806 2.9194598397 2.9511930988 2.982926358 3.0146596171 3.0463928762 3.0781261353 3.1098593945 
3.1415926536 
_radius 1 100 double
1.0163999322e-15 0.015025841862 0.029845158688 0.044263840951 0.058118527635 0.071284712127 0.083678139164 0.095250106236 0.10597863334 
0.11585810132 0.12488975473 0.13307466053 0.14040973911 0.14688670054 0.15249329486 0.15721621751 0.16104519307 0.16397803647 
0.16602668122 0.16722411314 0.16763176117 0.16734619905 0.16650321499 0.16527682288 0.16387108152 0.16250391467 0.16138433011 
0.1606868658 0.1605286578 0.16095422465 0.1619308889 0.16335494162 0.16506662196 0.16687119543 0.16856343782 0.1699530803 
0.17088894292 0.17127951863 0.17110768817 0.17043712296 0.16940804313 0.16822098191 0.16710984917 0.16630970599 0.16602779259 
0.16642500455 0.16760911226 0.16963522501 0.17250761684 0.17617984457 0.18055404458 0.18548271303 0.19077614565 0.19621663313 
0.20157797526 0.20664718689 0.21124478994 0.21524049001 0.21856196078 0.22119573608 0.22318063433 0.22459537311 0.22554275502 
0.22613289569 0.22646756886 0.22662724045 0.22666208162 0.22658806571 0.22638866979 0.22602158109 0.22542872177 0.22454742126 
0.2233206543 0.22170463244 0.21967255161 0.21721397017 0.21433010859 0.21102621193 0.20730280601 0.20314799646 0.19853274949 
0.19341035283 0.187720191 0.18139494047 0.17436964293 0.16659099276 0.15802546646 0.14866536346 0.13853219412 0.12767708111 
0.11617802415 0.10413413576 0.09165732914 0.078862369158 0.065856572738 0.052730652972 0.039552162149 0.026362668509 0.01317922968 
5.3117375406e-16 
_area 1 100 double
0 0.00058110853509 0.0022959661175 0.0050650131548 0.0087715842913 0.013276238073 0.018425326491 0.0240531072 0.029980920297 
0.036017735616 0.041964900255 0.047625874297 0.052819894654 0.057397004903 0.061250904717 0.064326204572 0.066618579756 0.068169414342 
0.069058096946 0.069390464364 0.069271603332 0.068771073899 0.067931675076 0.066815572913 0.065535060267 0.064263059754 0.063226575447 
0.062598703642 0.062463362549 0.062869087172 0.063841986742 0.065328356323 0.067112835925 0.068974949832 0.070718153246 0.07218354179 
0.073271585532 0.073967797603 0.074364683582 0.074658099879 0.075074638678 0.075735065788 0.076607035798 0.077602097109 0.078683234615 
0.079920269178 0.081450650671 0.08336246417 0.085740059692 0.08867769455 0.092257361682 0.096525501959 0.1014434054 0.10686068487 
0.11256432217 0.11839732227 0.12430405777 0.12985889333 0.13451555259 0.13815615411 0.14056900676 0.14172303305 0.14179910564 
0.14098011232 0.13952400239 0.1378240033 0.13607020796 0.13427440107 0.13255060682 0.13100564963 0.12964870124 0.1283532549 
0.12693826722 0.12524712508 0.12316706934 0.12063228035 0.11762638405 0.11417683961 0.11033629009 0.10615528504 0.10165665689 
0.096822741855 0.091602666898 0.085937578968 0.07979122091 0.07317119012 0.066134893762 0.058784499011 0.051258101445 0.04372001102 
0.036349081312 0.029324890173 0.022814043163 0.01695941879 0.011874073007 0.0076400702237 0.0043113946097 0.0019195445501 0.00048028134298 
1.8389870178e-17 
