# vtk DataFile Version 5.1
vtk output
ASCII
DATASET POLYDATA
POINTS 100 float
0.0969493 0.0647328 -0.64677 0.0969069 0.064648 -0.646733 0.0968128 0.0641772 -0.646541 
0.0966644 0.0633151 -0.646159 0.0964572 0.0620537 -0.645528 0.0961847 0.0603834 -0.644579 
0.0958381 0.0582931 -0.643228 0.0954052 0.0557713 -0.64139 0.0948691 0.052808 -0.638978 
0.0942065 0.0493953 -0.635913 0.0933859 0.0455296 -0.632122 0.0923652 0.0412134 -0.627547 
0.0910913 0.0364573 -0.622139 0.0894992 0.0312812 -0.615864 0.0875134 0.0257167 -0.6087 
0.0850517 0.0198072 -0.600633 0.0820295 0.0136095 -0.591659 0.0783669 0.00719284 -0.581777 
0.0739968 0.000638626 -0.570994 0.068873 -0.00596147 -0.559318 0.062978 -0.0125078 -0.546759 
0.0563291 -0.018896 -0.533331 0.0489816 -0.0250203 -0.519052 0.0410291 -0.0307779 -0.503945 
0.0325988 -0.036073 -0.488036 0.0238437 -0.0408203 -0.471359 0.0149314 -0.0449493 -0.453954 
0.00602995 -0.0484066 -0.435863 -0.00270634 -0.0511584 -0.417135 -0.011151 -0.0531908 -0.397814 
-0.0192163 -0.0545103 -0.377947 -0.0268605 -0.0551422 -0.357573 -0.0340892 -0.0551283 -0.336723 
-0.0409513 -0.0545237 -0.315419 -0.0475289 -0.0533927 -0.293674 -0.0539224 -0.0518047 -0.271492 
-0.0602321 -0.0498302 -0.248866 -0.0665392 -0.0475361 -0.225792 -0.0728872 -0.0449829 -0.20226 
-0.0792674 -0.0422218 -0.178272 -0.0856098 -0.0392937 -0.153837 -0.0917813 -0.0362286 -0.128981 
-0.0975912 -0.0330468 -0.103749 -0.102805 -0.029761 -0.0782069 -0.107164 -0.0263793 -0.0524408 
-0.110408 -0.0229091 -0.0265558 -0.112306 -0.0193608 -0.00067123 -0.112674 -0.0157516 0.0250848 
-0.1114 -0.0121091 0.0505822 -0.108458 -0.00847342 0.0756961 -0.103912 -0.00489821 0.100314 
-0.0979154 -0.00145059 0.124343 -0.0906941 0.00179083 0.147713 -0.0825312 0.00473926 0.170379 
-0.0737393 0.00730439 0.192325 -0.0646331 0.00939795 0.213558 -0.0555017 0.0109399 0.234109 
-0.0465851 0.0118646 0.254023 -0.038056 0.0121263 0.273359 -0.0300109 0.0117042 0.292177 
-0.0224687 0.010605 0.310535 -0.0153791 0.00886464 0.328487 -0.00863795 0.00654716 0.346072 
-0.0021079 0.00374197 0.363318 0.00435805 0.000558946 0.380239 0.0108937 -0.00287812 0.396835 
0.0175998 -0.00643909 0.4131 0.0245297 -0.00999573 0.429017 0.0316822 -0.0134297 0.44457 
0.039002 -0.0166401 0.459744 0.0463869 -0.0195491 0.474527 0.0537024 -0.0221061 0.488912 
0.0607982 -0.0242898 0.502902 0.0675278 -0.0261073 0.516502 0.0737661 -0.0275917 0.529721 
0.0794238 -0.0287969 0.542569 0.0844565 -0.029792 0.55505 0.0888676 -0.0306531 0.567162 
0.0927049 -0.0314566 0.57889 0.0960515 -0.0322715 0.590207 0.0990126 -0.033154 0.601073 
0.1017 -0.0341424 0.611431 0.104218 -0.0352552 0.621216 0.106649 -0.0364902 0.630356 
0.109043 -0.0378267 0.63878 0.111419 -0.0392287 0.646419 0.11376 -0.0406499 0.653217 
0.116022 -0.0420392 0.659139 0.118144 -0.0433465 0.664168 0.12006 -0.0445284 0.668317 
0.121709 -0.0455522 0.671625 0.123048 -0.0463989 0.674158 0.124062 -0.0470645 0.676006 
0.124759 -0.0475592 0.677276 0.125177 -0.047905 0.678086 0.125375 -0.0481326 0.678557 
0.12542 -0.0482764 0.678802 0.125384 -0.04837 0.678921 0.125327 -0.0484414 0.67899 
0.125288 -0.0485096 0.679059 
LINES 2 100
OFFSETS vtktypeint64
0 100 
CONNECTIVITY vtktypeint64
0 1 2 3 4 5 6 7 8 
9 10 11 12 13 14 15 16 17 
18 19 20 21 22 23 24 25 26 
27 28 29 30 31 32 33 34 35 
36 37 38 39 40 41 42 43 44 
45 46 47 48 49 50 51 52 53 
54 55 56 57 58 59 60 61 62 
63 64 65 66 67 68 69 70 71 
72 73 74 75 76 77 78 79 80 
81 82 83 84 85 86 87 88 89 
90 91 92 93 94 95 96 97 98 
99 
POINT_DATA 100
FIELD FieldData 3
_theta 1 100 double
0 0.031733259127 0.063466518254 0.095199777382 0.12693303651 0.15866629564 0.19039955476 0.22213281389 0.25386607302 
0.28559933214 0.31733259127 0.3490658504 0.38079910953 0.41253236865 0.44426562778 0.47599888691 0.50773214603 0.53946540516 
0.57119866429 0.60293192342 0.63466518254 0.66639844167 0.6981317008 0.72986495992 0.76159821905 0.79333147818 0.82506473731 
0.85679799643 0.88853125556 0.92026451469 0.95199777382 0.98373103294 1.0154642921 1.0471975512 1.0789308103 1.1106640695 
1.1423973286 1.1741305877 1.2058638468 1.237597106 1.2693303651 1.3010636242 1.3327968833 1.3645301425 1.3962634016 
1.4279966607 1.4597299198 1.491463179 1.5231964381 1.5549296972 1.5866629564 1.6183962155 1.6501294746 1.6818627337 
1.7135959929 1.745329252 1.7770625111 1.8087957702 1.8405290294 1.8722622885 1.9039955476 1.9357288068 1.9674620659 
1.999195325 2.0309285841 2.0626618433 2.0943951024 2.1261283615 2.1578616206 2.1895948798 2.2213281389 2.253061398 
2.2847946572 2.3165279163 2.3482611754 2.3799944345 2.4117276937 2.4434609528 2.4751942119 2.506927471 2.5386607302 
2.5703939893 2.6021272484 2.6338605076 2.6655937667 2.6973270258 2.7290602849 2.7607935441 2.7925268032 2.8242600623 
2.8559933214 2.8877265806 2.9194598397 2.9511930988 2.982926358 3.0146596171 3.0463928762 3.0781261353 3.1098593945 
3.1415926536 
_radius 1 100 double
3.5025952872e-16 0.014241211277 0.02847668317 0.042693884776 0.056877794064 0.071006638109 0.08504537082 0.098938253761 0.1126027603 
0.12592717074 0.13877354607 0.15098644748 0.16240623679 0.17288457285 0.18229921118 0.19056553294 0.19764317563 0.2035373411 
0.20829544095 0.21200044104 0.21476246248 0.21670991068 0.21798080493 0.2187143682 0.21904266457 0.21908236904 0.21892749799 
0.21864458018 0.21827166647 0.21782159497 0.21728859918 0.21665649163 0.21590666392 0.21502479313 0.2140059376 0.21285823366 
0.21160547411 0.21028846778 0.20896444294 0.20770330491 0.20657998336 0.20566397805 0.20500995349 0.20465452203 0.20462200818 
0.20493707512 0.20563828489 0.20678613884 0.20846119826 0.21075108039 0.21372875075 0.21742796691 0.22182359001 0.22682326467 
0.2322728394 0.23797320264 0.24370347278 0.24924530136 0.25440432924 0.25902634916 0.2630069687 0.26629453965 0.26888691275 
0.27082318322 0.27217195644 0.27301777176 0.2734472318 0.27353618111 0.27333902301 0.27288098774 0.27215390013 0.27111577801 
0.26969441892 0.26779489797 0.26531045933 0.26213562499 0.25817968733 0.25337843721 0.24770220044 0.24115893721 0.2337920414 
0.22567331094 0.21689222475 0.20754315516 0.19771248534 0.18746772973 0.17685051869 0.16587458019 0.15452872224 0.14278367472 
0.13060097351 0.11794210775 0.10477673782 0.091089490714 0.076885257056 0.062192928161 0.047067291357 0.031588635078 0.015859703486 
1.2920485427e-15 
_area 1 100 double
0 0.00059469857367 0.0023625625449 0.0052571274432 0.0092090141093 0.014138608651 0.019970370975 0.026639256292 0.034079561669 
0.04219719236 0.050838934591 0.059774377148 0.068699761809 0.077265322203 0.085120310524 0.09196396703 0.097588559946 0.10190349536 
0.10493601663 0.10681126112 0.10771987396 0.10788391199 0.10753116495 0.10688208983 0.1061365775 0.10544684805 0.10491395372 
0.10461556062 0.1046202197 0.10495701946 0.10554659949 0.1062365275 0.10689993786 0.10745626713 0.10785933065 0.1080944869 
0.1081880288 0.10822045939 0.10833002492 0.10869041438 0.10945271755 0.1106702701 0.11226149338 0.11404690651 0.11583358156 
0.1175029498 0.11907907792 0.12076165632 0.12289364474 0.12583868819 0.12984787889 0.13504790782 0.14146806802 0.14901174228 
0.15742877017 0.16632914271 0.17523717747 0.18366862913 0.19120928452 0.19757804361 0.20266552465 0.20654724666 0.20943919315 
0.21150618459 0.21277945137 0.21328499297 0.2130817515 0.21224909405 0.21087045363 0.20901656506 0.20672883409 0.20400437959 
0.20078691629 0.19696999215 0.19241664679 0.1869919432 0.18059842117 0.1732044062 0.16485939311 0.15569435542 0.14590601766 
0.135726017 0.12538054083 0.11505086697 0.10484718104 0.094805796371 0.084912202291 0.075140413539 0.06549099548 0.056013494655 
0.046809582139 0.038021440562 0.029812663199 0.022348412553 0.01577981269 0.010235082592 0.0058170773304 0.0026045808317 0.00065406238588 
2.08706817e-17 
