# vtk DataFile Version 5.1
vtk output
ASCII
DATASET POLYDATA
POINTS 100 float
0.0719698 0.0865247 -0.686644 0.0720641 0.0862452 -0.686594 0.07232 0.0851907 -0.686291 
0.0727273 0.0834086 -0.685691 0.0732697 0.0809733 -0.684728 0.0739249 0.0779776 -0.68332 
0.0746644 0.0745217 -0.681373 0.0754531 0.0707024 -0.678795 0.0762493 0.0666029 -0.675497 
0.0770048 0.0622844 -0.671406 0.0776646 0.0577816 -0.666464 0.0781682 0.0531016 -0.660637 
0.0784498 0.0482272 -0.65391 0.0784405 0.0431229 -0.646289 0.0780697 0.0377448 -0.637797 
0.0772686 0.0320511 -0.628464 0.0759721 0.0260133 -0.618327 0.074123 0.0196254 -0.607423 
0.0716751 0.0129116 -0.59578 0.068596 0.00592963 -0.583417 0.06487 -0.00122944 -0.57034 
0.0604995 -0.00844521 -0.556545 0.0555056 -0.0155757 -0.542017 0.0499277 -0.0224677 -0.526738 
0.0438211 -0.0289682 -0.510688 0.0372538 -0.0349361 -0.493852 0.0303028 -0.0402527 -0.476227 
0.0230485 -0.0448297 -0.457826 0.0155701 -0.0486142 -0.438677 0.00794088 -0.0515899 -0.418828 
0.000224091 -0.0537744 -0.398343 -0.00752947 -0.0552148 -0.377298 -0.0152825 -0.0559789 -0.355777 
-0.0230103 -0.0561471 -0.333863 -0.0306983 -0.0558032 -0.311633 -0.038338 -0.0550262 -0.28915 
-0.0459215 -0.0538842 -0.266459 -0.0534358 -0.0524306 -0.243581 -0.0608575 -0.0507032 -0.220517 
-0.0681474 -0.0487256 -0.197243 -0.0752472 -0.046511 -0.173721 -0.0820787 -0.0440674 -0.1499 
-0.0885437 -0.0414028 -0.125729 -0.0945278 -0.0385315 -0.101162 -0.0999058 -0.0354773 -0.0761698 
-0.104549 -0.0322769 -0.0507472 -0.108331 -0.0289802 -0.0249173 -0.111142 -0.0256488 0.00126318 
-0.112892 -0.0223525 0.0277042 -0.113517 -0.0191648 0.054285 -0.11299 -0.0161574 0.0808593 
-0.111317 -0.0133948 0.107263 -0.108541 -0.0109296 0.133324 -0.104738 -0.00879872 0.158873 
-0.10001 -0.007022 0.183752 -0.0944825 -0.00560162 0.207825 -0.0882905 -0.00452385 0.230986 
-0.081574 -0.0037619 0.25316 -0.0744683 -0.00327982 0.274312 -0.0670971 -0.00303679 0.294441 
-0.0595673 -0.0029913 0.313581 -0.0519657 -0.00310475 0.331791 -0.044358 -0.00334418 0.349155 
-0.0367906 -0.0036838 0.365768 -0.0292926 -0.00410545 0.381732 -0.0218809 -0.00459804 0.397149 
-0.014565 -0.00515622 0.412111 -0.00735168 -0.00577864 0.426701 -0.000249713 -0.00646605 0.440984 
0.00672691 -0.00721962 0.45501 0.013557 -0.00803963 0.468809 0.020212 -0.00892462 0.482397 
0.0266566 -0.00987106 0.495778 0.0328518 -0.0108734 0.50894 0.0387577 -0.0119244 0.521865 
0.0443371 -0.0130152 0.534526 0.0495597 -0.014136 0.546892 0.0544047 -0.0152758 0.558927 
0.0588632 -0.0164219 0.570593 0.0629392 -0.0175598 0.58185 0.0666495 -0.0186728 0.592654 
0.0700224 -0.0197411 0.602961 0.0730949 -0.0207424 0.612727 0.0759097 -0.0216517 0.621907 
0.0785114 -0.022443 0.63046 0.0809429 -0.0230905 0.63835 0.0832419 -0.0235713 0.645547 
0.0854381 -0.0238676 0.652031 0.0875511 -0.0239694 0.657793 0.0895891 -0.023877 0.662839 
0.0915494 -0.0236023 0.667187 0.0934188 -0.0231694 0.670869 0.0951751 -0.0226144 0.673928 
0.0967897 -0.0219831 0.676417 0.0982302 -0.0213282 0.678396 0.0994627 -0.0207052 0.679924 
0.100455 -0.0201681 0.681058 0.10118 -0.0197646 0.681848 0.101615 -0.0195319 0.68233 
0.101746 -0.0194932 0.682527 
LINES 2 100
OFFSETS vtktypeint64
0 100 
CONNECTIVITY vtktypeint64
0 1 2 3 4 5 6 7 8 
9 10 11 12 13 14 15 16 17 
18 19 20 21 22 23 24 25 26 
27 28 29 30 31 32 33 34 35 
36 37 38 39 40 41 42 43 44 
45 46 47 48 49 50 51 52 53 
54 55 56 57 58 59 60 61 62 
63 64 65 66 67 68 69 70 71 
72 73 74 75 76 77 78 79 80 
81 82 83 84 85 86 87 88 89 
90 91 92 93 94 95 96 97 98 
99 
POINT_DATA 100
FIELD FieldData 3
_theta 1 100 double
0 0.031733259127 0.063466518254 0.095199777382 0.12693303651 0.15866629564 0.19039955476 0.22213281389 0.25386607302 
0.28559933214 0.31733259127 0.3490658504 0.38079910953 0.41253236865 0.44426562778 0.47599888691 0.50773214603 0.53946540516 
0.57119866429 0.60293192342 0.63466518254 0.66639844167 0.6981317008 0.72986495992 0.76159821905 0.79333147818 0.82506473731 
0.85679799643 0.88853125556 0.92026451469 0.95199777382 0.98373103294 1.0154642921 1.0471975512 1.0789308103 1.1106640695 
1.1423973286 1.1741305877 1.2058638468 1.237597106 1.2693303651 1.3010636242 1.3327968833 1.3645301425 1.3962634016 
1.4279966607 1.4597299198 1.491463179 1.5231964381 1.5549296972 1.5866629564 1.6183962155 1.6501294746 1.6818627337 
1.7135959929 1.745329252 1.7770625111 1.8087957702 1.8405290294 1.8722622885 1.9039955476 1.9357288068 1.9674620659 
1.999195325 2.0309285841 2.0626618433 2.0943951024 2.1261283615 2.1578616206 2.1895948798 2.2213281389 2.253061398 
2.2847946572 2.3165279163 2.3482611754 2.3799944345 2.4117276937 2.4434609528 2.4751942119 2.506927471 2.5386607302 
2.5703939893 2.6021272484 2.6338605076 2.6655937667 2.6973270258 2.7290602849 2.7607935441 2.7925268032 2.8242600623 
2.8559933214 2.8877265806 2.9194598397 2.9511930988 2.982926358 3.0146596171 3.0463928762 3.0781261353 3.1098593945 
3.1415926536 
_radius 1 100 double
6.85512149e-16 0.014114815735 0.028062598613 0.041689857898 0.054880660823 0.067563197012 0.079704919708 0.091298087081 0.10234064268 
0.11281878633 0.12269656729 0.13191491327 0.14039915219 0.14807172459 0.15486608367 0.16073849659 0.16567585569 0.16969896382 
0.17286169071 0.1752468777 0.17696003695 0.17812187306 0.17886051052 0.17930409386 0.17957420824 0.17978039645 0.18001592303 
0.18035481713 0.18085005759 0.18153254754 0.18241040518 0.18346834093 0.18466762022 0.18594793292 0.18723255694 0.18843704075 
0.18947990135 0.19029281485 0.19082807602 0.19106230299 0.19099669723 0.19065509182 0.19008133039 0.1893373018 0.18850243604 
0.1876747253 0.18697226759 0.18653308367 0.18651026461 0.1870602366 0.18832423158 0.19040606777 0.19335166916 0.19713615922 
0.20166243734 0.20677162269 0.21226226895 0.21791339838 0.22350667362 0.22884465453 0.23376387026 0.23814262373 0.24190395669 
0.245014321 0.24747852652 0.24933163594 0.25062867526 0.25143325723 0.25180636594 0.25179653647 0.25143246472 0.25071875551 
0.24963514297 0.24813913847 0.24617167514 0.24366493036 0.24055118194 0.23677137947 0.23228215391 0.22706026111 0.22110392377 
0.21443111255 0.2070753549 0.19908002765 0.19049217207 0.18135665538 0.17171110419 0.161581678 0.15097972694 0.13989986648 
0.12832070771 0.1162095425 0.1035311121 0.090258892992 0.076386409683 0.06193629219 0.04696555678 0.031566369906 0.015862219255 
8.0805958115e-16 
_area 1 100 double
0 0.00061103361848 0.0024137385616 0.0053207992482 0.0091997278708 0.013892242153 0.019237816393 0.025091672016 0.031325825933 
0.037812628258 0.044403446555 0.050916553629 0.05714166546 0.062860961583 0.067879300834 0.072052686987 0.075305984637 0.077636342147 
0.079103934147 0.079814301755 0.079897102193 0.079486080247 0.078705112346 0.077663778198 0.076461783205 0.075196640013 0.073966985744 
0.072866498562 0.07197173154 0.07133866697 0.071014834609 0.071057468546 0.071538369869 0.072514954922 0.073983648252 0.075850287832 
0.077949602954 0.080102015949 0.082163077475 0.084042904297 0.085700612137 0.087127170162 0.088328684577 0.089317523492 0.090113024214 
0.09074809857 0.091278151254 0.091792313208 0.092426383201 0.09337110107 0.09486317874 0.097146302099 0.10040450916 0.10469986797 
0.10995339788 0.11597161916 0.12249102593 0.12921847793 0.13586085505 0.14214562637 0.1478362083 0.15274459114 0.15674087467 
0.15975746025 0.16178591289 0.16286652 0.16307345129 0.16250058006 0.1612515345 0.15943267992 0.15714481072 0.15447114451 
0.15146338773 0.14813107405 0.14443998866 0.14032241619 0.13569706613 0.1304931387 0.12467196076 0.11824016427 0.11125098442 
0.10379496664 0.095985595098 0.087946186769 0.079801722643 0.071675453197 0.063687359793 0.055950590487 0.048562585441 0.041589842699 
0.035051713709 0.028922531097 0.023169858667 0.017803164567 0.012893454234 0.0085637266358 0.0049665766924 0.0022581321041 0.00057249543426 
4.6259779875e-17 
