# vtk DataFile Version 5.1
vtk output
ASCII
DATASET POLYDATA
POINTS 100 float
0.310581 0.0944512 -0.728943 0.309778 0.0944458 -0.728265 0.307428 0.0942937 -0.726316 
0.303653 0.0939868 -0.723137 0.298641 0.0935118 -0.718798 0.292622 0.0928498 -0.713393 
0.285845 0.0919765 -0.707039 0.278549 0.0908627 -0.699871 0.270934 0.0894741 -0.69204 
0.263142 0.0877718 -0.683702 0.255245 0.0857132 -0.67501 0.247234 0.083252 -0.666106 
0.239033 0.0803403 -0.657108 0.230506 0.0769296 -0.648103 0.221483 0.0729735 -0.639133 
0.211786 0.0684304 -0.630198 0.201254 0.0632671 -0.621247 0.189773 0.0574625 -0.612186 
0.177293 0.0510116 -0.602878 0.163844 0.0439293 -0.593163 0.149538 0.0362538 -0.582862 
0.134562 0.0280487 -0.5718 0.119164 0.0194037 -0.559816 0.10363 0.0104342 -0.54678 
0.0882554 0.00127836 -0.532601 0.0733177 -0.00790717 -0.517235 0.059047 -0.0169535 -0.500684 
0.0456054 -0.0256869 -0.482996 0.0330725 -0.0339369 -0.46425 0.0214407 -0.041545 -0.444551 
0.0106203 -0.0483717 -0.424008 0.000454394 -0.0543039 -0.402728 -0.0092586 -0.0592592 -0.380799 
-0.0187371 -0.0631885 -0.358281 -0.0281862 -0.0660766 -0.335204 -0.0377692 -0.0679398 -0.311568 
-0.0475833 -0.0688221 -0.287349 -0.0576426 -0.0687897 -0.262508 -0.06787 -0.0679246 -0.237006 
-0.0780995 -0.0663181 -0.210818 -0.0880878 -0.0640648 -0.183946 -0.0975346 -0.0612579 -0.15643 
-0.106109 -0.0579857 -0.128352 -0.113478 -0.0543302 -0.0998435 -0.119339 -0.0503673 -0.0710754 
-0.123445 -0.0461678 -0.0422512 -0.125627 -0.0418002 -0.0135934 -0.125809 -0.0373328 0.014673 
-0.124012 -0.0328365 0.0423371 -0.120351 -0.0283861 0.0692177 -0.115023 -0.02406 0.0951761 
-0.108289 -0.0199391 0.120124 -0.100451 -0.0161038 0.144026 -0.0918268 -0.0126295 0.166899 
-0.0827253 -0.0095823 0.188803 -0.0734248 -0.00701305 0.209832 -0.0641567 -0.00495346 0.230101 
-0.0550951 -0.00341256 0.24973 -0.0463524 -0.00237525 0.268837 -0.0379824 -0.00180289 0.287521 
-0.0299882 -0.00163615 0.305863 -0.0223343 -0.00179989 0.323918 -0.0149614 -0.00220955 0.341719 
-0.00780142 -0.00277851 0.35928 -0.000790993 -0.00342555 0.376603 0.00611724 -0.00408162 0.393684 
0.0129476 -0.00469513 0.410517 0.0196982 -0.00523527 0.427101 0.0263424 -0.00569281 0.443438 
0.0328336 -0.00607861 0.459535 0.0391126 -0.00641979 0.475396 0.0451163 -0.00675427 0.491023 
0.0507875 -0.00712424 0.506401 0.056082 -0.00756943 0.521501 0.0609754 -0.00812104 0.536272 
0.0654655 -0.00879689 0.550642 0.069573 -0.00959862 0.564523 0.073339 -0.0105109 0.577811 
0.076819 -0.0115028 0.590403 0.0800773 -0.0125314 0.602202 0.0831787 -0.0135466 0.613133 
0.0861815 -0.0144964 0.623149 0.0891313 -0.0153331 0.632243 0.0920569 -0.0160179 0.640445 
0.094968 -0.016525 0.647827 0.0978555 -0.0168432 0.654493 0.100694 -0.0169772 0.660571 
0.103446 -0.016945 0.666193 0.106067 -0.0167759 0.671489 0.108513 -0.016506 0.676563 
0.110743 -0.0161745 0.681486 0.112725 -0.0158191 0.686281 0.114439 -0.0154726 0.690927 
0.115878 -0.0151608 0.695354 0.117047 -0.0149016 0.699454 0.117958 -0.0147045 0.703095 
0.118632 -0.0145728 0.706134 0.119091 -0.0145049 0.708436 0.119351 -0.014497 0.709888 
0.119427 -0.0145452 0.710416 
LINES 2 100
OFFSETS vtktypeint64
0 100 
CONNECTIVITY vtktypeint64
0 1 2 3 4 5 6 7 8 
9 10 11 12 13 14 15 16 17 
18 19 20 21 22 23 24 25 26 
27 28 29 30 31 32 33 34 35 
36 37 38 39 40 41 42 43 44 
45 46 47 48 49 50 51 52 53 
54 55 56 57 58 59 60 61 62 
63 64 65 66 67 68 69 70 71 
72 73 74 75 76 77 78 79 80 
81 82 83 84 85 86 87 88 89 
90 91 92 93 94 95 96 97 98 
99 
POINT_DATA 100
FIELD FieldData 3
_theta 1 100 double
0 0.031733259127 0.063466518254 0.095199777382 0.12693303651 0.15866629564 0.19039955476 0.22213281389 0.25386607302 
0.28559933214 0.31733259127 0.3490658504 0.38079910953 0.41253236865 0.44426562778 0.47599888691 0.50773214603 0.53946540516 
0.57119866429 0.60293192342 0.63466518254 0.66639844167 0.6981317008 0.72986495992 0.76159821905 0.79333147818 0.82506473731 
0.85679799643 0.88853125556 0.92026451469 0.95199777382 0.98373103294 1.0154642921 1.0471975512 1.0789308103 1.1106640695 
1.1423973286 1.1741305877 1.2058638468 1.237597106 1.2693303651 1.3010636242 1.3327968833 1.3645301425 1.3962634016 
1.4279966607 1.4597299198 1.491463179 1.5231964381 1.5549296972 1.5866629564 1.6183962155 1.6501294746 1.6818627337 
1.7135959929 1.745329252 1.7770625111 1.8087957702 1.8405290294 1.8722622885 1.9039955476 1.9357288068 1.9674620659 
1.999195325 2.0309285841 2.0626618433 2.0943951024 2.1261283615 2.1578616206 2.1895948798 2.2213281389 2.253061398 
2.2847946572 2.3165279163 2.3482611754 2.3799944345 2.4117276937 2.4434609528 2.4751942119 2.506927471 2.5386607302 
2.5703939893 2.6021272484 2.6338605076 2.6655937667 2.6973270258 2.7290602849 2.7607935441 2.7925268032 2.8242600623 
2.8559933214 2.8877265806 2.9194598397 2.9511930988 2.982926358 3.0146596171 3.0463928762 3.0781261353 3.1098593945 
3.1415926536 
_radius 1 100 double
2.0621944404e-15 0.015327348328 0.030450660447 0.045198522928 0.059457963368 0.073186281853 0.086404687393 0.099173469663 0.11155450625 
0.12357246788 0.13518752014 0.14628782857 0.15670215492 0.1662261002 0.1746531523 0.18180320515 0.18754439317 0.19180700109 
0.1945900263 0.19596169456 0.19605524436 0.19506101124 0.19321552098 0.19078799742 0.18806435109 0.18532847171 0.18284102148 
0.18081741397 0.17940875041 0.17869030948 0.1786602473 0.17924762353 0.1803266764 0.18173465113 0.18329190539 0.18482354188 
0.1861811484 0.18726240077 0.18802605164 0.18849973594 0.18877800239 0.18900955132 0.18937625314 0.19006959217 0.19126998801 
0.19313122569 0.19576880951 0.19925005349 0.20358545785 0.20872341837 0.21455089713 0.22090068616 0.22756362982 0.23430386877 
0.24087623572 0.24704545962 0.25260612459 0.25740113322 0.26133577935 0.26438491441 0.26659188437 0.26805938353 0.26893364919 
0.26938427582 0.26958234268 0.2696795953 0.2697911563 0.26998367451 0.27026997276 0.27061024979 0.27091896879 0.27107594994 
0.27093994267 0.27036297167 0.26920387657 0.26733964455 0.26467342615 0.26113859146 0.25669880499 0.25134474757 0.24508862294 
0.23795781334 0.22998893359 0.2212231176 0.21170278685 0.20146959266 0.19056290472 0.17901829326 0.16686592223 0.15412940312 
0.14082603546 0.12696912995 0.11257233195 0.09765502773 0.082247532847 0.066394941431 0.050159000962 0.033617863951 0.016863907563 
5.350934107e-16 
_area 1 100 double
0 0.00049884966628 0.0019855274639 0.0044296626445 0.0077807041224 0.011973698218 0.016940101383 0.022615520351 0.028933510389 
0.035802240498 0.043075467715 0.050537948551 0.057918602818 0.064928470783 0.071308271889 0.076868159817 0.08150709821 0.085205702534 
0.087993497473 0.089908380418 0.090982617706 0.091262357122 0.09083129783 0.089819714448 0.088398235459 0.08675923962 0.085091106344 
0.083555533402 0.082275477045 0.081328845406 0.080776011256 0.080434544162 0.080185091895 0.079983656419 0.079825505847 0.07970624436 
0.079735889151 0.080138779239 0.081327738729 0.083797919973 0.087056975397 0.090699043911 0.094388317474 0.097974691318 0.10147664812 
0.10503079903 0.10884296384 0.11314560871 0.118158734 0.12405186433 0.13090566197 0.13868663026 0.14725372389 0.15638528887 
0.16579866818 0.17515505048 0.1840617903 0.19209397139 0.19885116766 0.20403225854 0.20749255982 0.20926516233 0.20954939467 
0.20868204037 0.20710116323 0.20517457264 0.20312130703 0.20116621094 0.19949030958 0.1980441585 0.19667243601 0.19518795174 
0.19336682252 0.190973853 0.18779612002 0.18367143193 0.17850368206 0.17226160571 0.16496415281 0.15666304113 0.14743490843 
0.13738706937 0.12666903517 0.11547827019 0.10405346277 0.092654707338 0.081534210694 0.070904069654 0.060909762992 0.051618623198 
0.043030054462 0.035106626864 0.027814526296 0.021156911171 0.015189473307 0.010017280855 0.0057778668729 0.0026168564595 0.00066191553853 
1.0679181279e-17 
