# vtk DataFile Version 5.1
vtk output
ASCII
DATASET POLYDATA
POINTS 100 float
0.14574 0.0959937 -0.651309 0.145569 0.0956625 -0.651197 0.145032 0.0944925 -0.650767 
0.144168 0.0925198 -0.650013 0.143035 0.0898014 -0.648929 0.141706 0.0864108 -0.647505 
0.140258 0.0824324 -0.645726 0.138763 0.0779555 -0.64357 0.137277 0.0730683 -0.641009 
0.135834 0.0678521 -0.638006 0.134436 0.0623769 -0.634516 0.133051 0.0566989 -0.630485 
0.131613 0.0508587 -0.625853 0.130025 0.0448822 -0.620559 0.128165 0.0387826 -0.614539 
0.125894 0.0325642 -0.607734 0.12307 0.0262264 -0.600092 0.119561 0.0197692 -0.59157 
0.115253 0.0131975 -0.582142 0.110065 0.00652552 -0.571795 0.103952 -0.000219835 -0.560534 
0.0969159 -0.00699754 -0.548381 0.0889993 -0.013752 -0.53537 0.0802857 -0.0204141 -0.521546 
0.0708903 -0.0269042 -0.506962 0.0609499 -0.0331355 -0.491669 0.0506101 -0.0390183 -0.475717 
0.0400131 -0.0444647 -0.459145 0.0292857 -0.049393 -0.441979 0.0185308 -0.0537316 -0.424229 
0.0078218 -0.0574215 -0.405887 -0.00279798 -0.0604186 -0.38693 -0.0133117 -0.0626941 -0.367318 
-0.0237208 -0.0642346 -0.347003 -0.0340341 -0.0650408 -0.325932 -0.0442544 -0.0651261 -0.304056 
-0.0543656 -0.0645146 -0.281338 -0.0643208 -0.0632397 -0.257755 -0.0740351 -0.0613422 -0.233312 
-0.0833814 -0.05887 -0.208043 -0.0921933 -0.0558769 -0.182012 -0.100273 -0.0524229 -0.155317 
-0.107405 -0.0485745 -0.128087 -0.113371 -0.0444046 -0.100478 -0.117974 -0.0399925 -0.0726651 
-0.121053 -0.0354228 -0.0448344 -0.122503 -0.0307848 -0.0171758 -0.122285 -0.0261694 0.0101282 
-0.120437 -0.0216662 0.0369111 -0.11707 -0.0173602 0.0630303 -0.112363 -0.0133271 0.0883732 
-0.106549 -0.00962983 0.112861 -0.0998934 -0.00631473 0.13645 -0.0926734 -0.00340937 0.15913 
-0.0851544 -0.000921342 0.180923 -0.0775682 0.00116117 0.201874 -0.0700955 0.00286717 0.222047 
-0.0628546 0.00423898 0.241519 -0.0558973 0.00532712 0.260368 -0.049212 0.00618437 0.27867 
-0.0427342 0.00685969 0.29649 -0.0363624 0.00739251 0.313884 -0.0299776 0.00780835 0.330891 
-0.0234634 0.00811599 0.347534 -0.0167256 0.00830682 0.363825 -0.0097068 0.00835639 0.379764 
-0.00239644 0.00822815 0.395346 0.00516668 0.00787893 0.410561 0.0128981 0.0072656 0.425404 
0.020678 0.00635221 0.439872 0.0283657 0.00511656 0.45397 0.035817 0.00355569 0.46771 
0.0429018 0.00168921 0.48111 0.0495191 -0.000439775 0.494193 0.0556079 -0.00276647 0.50698 
0.0611525 -0.00520889 0.519489 0.066181 -0.00767455 0.531728 0.0707584 -0.0100688 0.543695 
0.0749735 -0.0123038 0.555368 0.0789237 -0.014307 0.566709 0.0826979 -0.0160287 0.577662 
0.086361 -0.0174468 0.588153 0.0899421 -0.0185692 0.5981 0.0934281 -0.0194328 0.607409 
0.0967638 -0.0200991 0.61599 0.0998578 -0.0206473 0.623759 0.102595 -0.0211652 0.630647 
0.104855 -0.0217391 0.636608 0.106527 -0.0224432 0.641622 0.107531 -0.0233312 0.645702 
0.107832 -0.0244292 0.648889 0.107452 -0.0257319 0.65126 0.10647 -0.0272025 0.652913 
0.105021 -0.0287757 0.65397 0.103282 -0.0303646 0.654564 0.10146 -0.0318692 0.65483 
0.0997664 -0.0331875 0.654896 0.0983946 -0.0342262 0.654873 0.0975016 -0.0349104 0.654848 
0.0971888 -0.0351925 0.654874 
LINES 2 100
OFFSETS vtktypeint64
0 100 
CONNECTIVITY vtktypeint64
0 1 2 3 4 5 6 7 8 
9 10 11 12 13 14 15 16 17 
18 19 20 21 22 23 24 25 26 
27 28 29 30 31 32 33 34 35 
36 37 38 39 40 41 42 43 44 
45 46 47 48 49 50 51 52 53 
54 55 56 57 58 59 60 61 62 
63 64 65 66 67 68 69 70 71 
72 73 74 75 76 77 78 79 80 
81 82 83 84 85 86 87 88 89 
90 91 92 93 94 95 96 97 98 
99 
POINT_DATA 100
FIELD FieldData 3
_theta 1 100 double
0 0.031733259127 0.063466518254 0.095199777382 0.12693303651 0.15866629564 0.19039955476 0.22213281389 0.25386607302 
0.28559933214 0.31733259127 0.3490658504 0.38079910953 0.41253236865 0.44426562778 0.47599888691 0.50773214603 0.53946540516 
0.57119866429 0.60293192342 0.63466518254 0.66639844167 0.6981317008 0.72986495992 0.76159821905 0.79333147818 0.82506473731 
0.85679799643 0.88853125556 0.92026451469 0.95199777382 0.98373103294 1.0154642921 1.0471975512 1.0789308103 1.1106640695 
1.1423973286 1.1741305877 1.2058638468 1.237597106 1.2693303651 1.3010636242 1.3327968833 1.3645301425 1.3962634016 
1.4279966607 1.4597299198 1.491463179 1.5231964381 1.5549296972 1.5866629564 1.6183962155 1.6501294746 1.6818627337 
1.7135959929 1.745329252 1.7770625111 1.8087957702 1.8405290294 1.8722622885 1.9039955476 1.9357288068 1.9674620659 
1.999195325 2.0309285841 2.0626618433 2.0943951024 2.1261283615 2.1578616206 2.1895948798 2.2213281389 2.253061398 
2.2847946572 2.3165279163 2.3482611754 2.3799944345 2.4117276937 2.4434609528 2.4751942119 2.506927471 2.5386607302 
2.5703939893 2.6021272484 2.6338605076 2.6655937667 2.6973270258 2.7290602849 2.7607935441 2.7925268032 2.8242600623 
2.8559933214 2.8877265806 2.9194598397 2.9511930988 2.982926358 3.0146596171 3.0463928762 3.0781261353 3.1098593945 
3.1415926536 
_radius 1 100 double
1.1274368112e-15 0.013958159037 0.027882174699 0.041736740597 0.055496843463 0.069148468812 0.082684915672 0.096098844778 0.10937108993 
0.12245812801 0.13528081112 0.14771726021 0.15960243168 0.17073573123 0.18089643174 0.18986505337 0.19744773235 0.203500128 
0.20794752594 0.21079831973 0.21214885248 0.21217860493 0.21113589207 0.20931551697 0.20703108189 0.20458560169 0.20224436228 
0.20021340512 0.19862576861 0.1975362014 0.19692394304 0.19670252411 0.19673544417 0.19685678082 0.19689559218 0.19670209526 
0.19617251331 0.19526894376 0.19403108453 0.19257789692 0.19109822337 0.1898300474 0.18903047238 0.18894227092 0.18976412868 
0.19162916867 0.19459288193 0.19862972094 0.20363737736 0.20944795491 0.21584494279 0.22258417487 0.22941639778 0.23610893422 
0.24246410253 0.24833242734 0.25361928167 0.25828447405 0.26233533717 0.26581485478 0.26878702185 0.27132180954 0.27348181547 
0.27531208728 0.27683393384 0.27804295089 0.27891103751 0.27939182866 0.27942866027 0.27896390604 0.27794832853 0.27634902907 
0.27415468479 0.27137701861 0.26804788258 0.2642120062 0.25991636057 0.25519801423 0.25007294853 0.24452826097 0.23851948452 
0.23197364317 0.22479752385 0.21688976697 0.20815488641 0.19851719711 0.18793276213 0.17639778218 0.16395229521 0.15067861875 
0.13669463361 0.1221427162 0.10717577441 0.091942306586 0.076572577875 0.061167840273 0.045794032601 0.030480681657 0.015224940037 
2.8831876691e-16 
_area 1 100 double
0 0.00056715639882 0.0022577393408 0.0050411639021 0.0088730331828 0.013703869243 0.019488763341 0.026194141685 0.033795982727 
0.042265201793 0.051541481542 0.06150199022 0.071933521029 0.082517565966 0.092837128897 0.10240953632 0.11074216369 0.11740097258 
0.12207749585 0.12463938481 0.12515266763 0.12386967711 0.12118430452 0.11756484221 0.11348159038 0.1093465759 0.10547520014 
0.10207692659 0.099256960836 0.096966897683 0.095176452611 0.093981436744 0.093294819195 0.092981456226 0.092865960496 0.092858450951 
0.092932424531 0.093097274505 0.093363226326 0.093716231713 0.094142637578 0.094686544539 0.09549857795 0.096930212759 0.099105871368 
0.10212635367 0.10608800506 0.11101750388 0.11686338799 0.12349429237 0.13071004198 0.13827099495 0.14593526547 0.1534903983 
0.16077362845 0.16768313372 0.17419094834 0.18057401191 0.18690313136 0.19281189481 0.19807160468 0.20254487502 0.20612589234 
0.20877614666 0.21051805105 0.21142258909 0.21159271749 0.21112104689 0.21005454525 0.20838478286 0.20605547163 0.20298973123 
0.19912633564 0.19445050947 0.1890105712 0.18291462126 0.17630675472 0.16933049352 0.16209170645 0.15463318149 0.14692850462 
0.13889604309 0.13042788126 0.12142538561 0.1118327892 0.10166200186 0.091004642486 0.080030049004 0.068970301343 0.05809515849 
0.047681406179 0.037982319844 0.029203353537 0.021489219814 0.014924805637 0.0095480811293 0.005368875795 0.0023858359754 0.00059646645166 
6.7254309299e-17 
