# vtk DataFile Version 5.1
vtk output
ASCII
DATASET POLYDATA
POINTS 100 float
0.101609 0.036882 -0.683574 0.101702 0.0369117 -0.683794 0.102012 0.036817 -0.684438 
0.102533 0.0366018 -0.685362 0.103255 0.0362699 -0.686342 0.104159 0.0358238 -0.687098 
0.105211 0.0352628 -0.68732 0.106363 0.0345813 -0.686701 0.107543 0.0337676 -0.684963 
0.108661 0.0328035 -0.681882 0.109606 0.031664 -0.677308 0.110247 0.0303191 -0.671172 
0.110443 0.0287351 -0.663483 0.110049 0.0268777 -0.654325 0.108923 0.0247149 -0.643839 
0.106941 0.0222202 -0.632201 0.104002 0.0193758 -0.619604 0.100041 0.0161753 -0.606232 
0.0950334 0.0126259 -0.592246 0.0889992 0.00874936 -0.577769 0.0820046 0.00458236 -0.562878 
0.0741574 0.000175974 -0.547606 0.0656007 -0.00440595 -0.531949 0.0565025 -0.00908898 -0.515869 
0.047044 -0.0137908 -0.499314 0.0374058 -0.0184246 -0.482225 0.0277555 -0.0229018 -0.464549 
0.0182358 -0.0271363 -0.446249 0.00895601 -0.031047 -0.427304 -1.29987e-05 -0.0345612 -0.407713 
-0.00863982 -0.0376175 -0.387491 -0.016929 -0.0401679 -0.366663 -0.0249139 -0.0421805 -0.345256 
-0.0326458 -0.0436402 -0.323292 -0.0401815 -0.0445502 -0.300786 -0.0475706 -0.0449318 -0.277744 
-0.0548424 -0.0448235 -0.254159 -0.0619967 -0.0442791 -0.230024 -0.0689967 -0.0433654 -0.205331 
-0.0757673 -0.0421575 -0.180086 -0.0821973 -0.0407351 -0.154311 -0.0881463 -0.0391768 -0.128057 
-0.093456 -0.0375551 -0.101403 -0.0979631 -0.0359313 -0.0744577 -0.101515 -0.0343519 -0.0473545 
-0.103982 -0.0328449 -0.0202446 -0.105274 -0.0314194 0.006714 -0.105345 -0.0300661 0.0333693 
-0.104202 -0.0287601 0.0595869 -0.1019 -0.0274653 0.0852597 -0.0985446 -0.0261408 0.110315 
-0.0942736 -0.0247471 0.134717 -0.0892506 -0.0232539 0.158465 -0.0836478 -0.0216456 0.181584 
-0.077631 -0.0199264 0.204118 -0.0713463 -0.018123 0.226119 -0.0649083 -0.0162841 0.247631 
-0.0583938 -0.0144783 0.268683 -0.0518391 -0.012788 0.289282 -0.0452423 -0.0113023 0.309408 
-0.0385706 -0.0101074 0.329023 -0.03177 -0.0092779 0.348069 -0.0247781 -0.00886725 0.366485 
-0.0175375 -0.00890126 0.384216 -0.0100076 -0.00937344 0.401229 -0.00217434 -0.0102439 0.417518 
0.00594316 -0.011442 0.433113 0.014291 -0.0128717 0.44808 0.0227826 -0.014421 0.462518 
0.0313056 -0.015972 0.476549 0.0397311 -0.017413 0.490302 0.0479257 -0.0186491 0.503898 
0.0557635 -0.0196117 0.517432 0.0631381 -0.0202647 0.53096 0.069971 -0.0206076 0.544487 
0.0762182 -0.0206736 0.557964 0.0818721 -0.0205247 0.57129 0.0869597 -0.0202436 0.584321 
0.0915368 -0.019922 0.596883 0.0956804 -0.0196494 0.608797 0.0994776 -0.0195015 0.619893 
0.103016 -0.0195306 0.630035 0.106374 -0.0197587 0.639137 0.10961 -0.0201752 0.64717 
0.112765 -0.0207379 0.654169 0.115849 -0.0213787 0.660226 0.118855 -0.0220124 0.665482 
0.121754 -0.0225478 0.670105 0.124504 -0.0229 0.674271 0.127061 -0.0230017 0.678145 
0.12938 -0.0228132 0.681855 0.131426 -0.022328 0.685482 0.133177 -0.0215753 0.68905 
0.134626 -0.0206179 0.692523 0.135782 -0.0195458 0.695817 0.136664 -0.0184662 0.698807 
0.137301 -0.0174916 0.701351 0.137722 -0.0167267 0.703309 0.137954 -0.0162567 0.704562 
0.138015 -0.0161368 0.705032 
LINES 2 100
OFFSETS vtktypeint64
0 100 
CONNECTIVITY vtktypeint64
0 1 2 3 4 5 6 7 8 
9 10 11 12 13 14 15 16 17 
18 19 20 21 22 23 24 25 26 
27 28 29 30 31 32 33 34 35 
36 37 38 39 40 41 42 43 44 
45 46 47 48 49 50 51 52 53 
54 55 56 57 58 59 60 61 62 
63 64 65 66 67 68 69 70 71 
72 73 74 75 76 77 78 79 80 
81 82 83 84 85 86 87 88 89 
90 91 92 93 94 95 96 97 98 
99 
POINT_DATA 100
FIELD FieldData 3
_theta 1 100 double
0 0.031733259127 0.063466518254 0.095199777382 0.12693303651 0.15866629564 0.19039955476 0.22213281389 0.25386607302 
0.28559933214 0.31733259127 0.3490658504 0.38079910953 0.41253236865 0.44426562778 0.47599888691 0.50773214603 0.53946540516 
0.57119866429 0.60293192342 0.63466518254 0.66639844167 0.6981317008 0.72986495992 0.76159821905 0.79333147818 0.82506473731 
0.85679799643 0.88853125556 0.92026451469 0.95199777382 0.98373103294 1.0154642921 1.0471975512 1.0789308103 1.1106640695 
1.1423973286 1.1741305877 1.2058638468 1.237597106 1.2693303651 1.3010636242 1.3327968833 1.3645301425 1.3962634016 
1.4279966607 1.4597299198 1.491463179 1.5231964381 1.5549296972 1.5866629564 1.6183962155 1.6501294746 1.6818627337 
1.7135959929 1.745329252 1.7770625111 1.8087957702 1.8405290294 1.8722622885 1.9039955476 1.9357288068 1.9674620659 
1.999195325 2.0309285841 2.0626618433 2.0943951024 2.1261283615 2.1578616206 2.1895948798 2.2213281389 2.253061398 
2.2847946572 2.3165279163 2.3482611754 2.3799944345 2.4117276937 2.4434609528 2.4751942119 2.506927471 2.5386607302 
2.5703939893 2.6021272484 2.6338605076 2.6655937667 2.6973270258 2.7290602849 2.7607935441 2.7925268032 2.8242600623 
2.8559933214 2.8877265806 2.9194598397 2.9511930988 2.982926358 3.0146596171 3.0463928762 3.0781261353 3.1098593945 
3.1415926536 
_radius 1 100 double
1.5328517646e-16 0.013428691185 0.026855861678 0.040265686484 0.053625642759 0.066883193003 0.079966522053 0.092788493489 0.10525216569 
0.11725606639 0.12869802834 0.13947747922 0.14949714165 0.15866558819 0.1669017605 0.17414160518 0.18034591251 0.18550773923 
0.18965764664 0.19286531937 0.1952367655 0.19690707034 0.19802946398 0.19876214505 0.1992547241 0.19963615477 0.2000055856 
0.20042689421 0.20092709206 0.20149849845 0.20210446391 0.20268822787 0.20318410554 0.20352971069 0.20367755756 0.2036043537 
0.20331665583 0.20285219334 0.20227691216 0.20167859363 0.20115864227 0.2008239823 0.20078062612 0.20112941156 0.20196309442 
0.20336307108 0.20539406927 0.20809635543 0.2114768422 0.21550189093 0.22009468796 0.22513874774 0.23048713548 0.23597542721 
0.24143580087 0.24670991117 0.25165895651 0.25617023636 0.26016029059 0.26357526586 0.2663893902 0.26860235067 0.2702360501 
0.27133083201 0.2719410015 0.27212946356 0.27196154764 0.27149845376 0.27079105657 0.26987489843 0.26876704199 0.267465067 
0.26594798038 0.26417832358 0.26210451869 0.2596626663 0.25677758794 0.253363648 0.24932642014 0.24456629239 0.23898459161 
0.23249195299 0.22501779795 0.21651922241 0.20698752048 0.19645099614 0.18497352419 0.17264927541 0.15959481013 0.14594007651 
0.13181962047 0.11736471816 0.10269657539 0.087920501399 0.073121074293 0.058358580109 0.043667219388 0.029055615698 0.014509990656 
1.1554278774e-15 
_area 1 100 double
0 0.00047774888572 0.0019308948591 0.0044093714258 0.0079677087898 0.012634050221 0.018385070462 0.025133747155 0.032730437399 
0.040973153944 0.049621571386 0.058410637662 0.067062486544 0.075298019094 0.082850580927 0.089483064461 0.095007284535 0.099302227471 
0.10232706708 0.10412578935 0.10482201017 0.10460439122 0.10370502538 0.10237529067 0.10086477691 0.099407163419 0.098211803859 
0.097453072777 0.097246704451 0.097614640454 0.098469072694 0.099646047725 0.10096713531 0.1022877653 0.10351836257 0.10462366631 
0.10561183227 0.10652357707 0.10741866078 0.10835373673 0.1093674987 0.11049162998 0.11177052434 0.11326887788 0.11507009924 
0.117273082 0.11998801898 0.12332840968 0.12739571536 0.13225545834 0.13791227122 0.1442965462 0.15126723682 0.15862613854 
0.16613809025 0.17355327613 0.18062810596 0.18714149773 0.19290505858 0.19776809629 0.20162029178 0.20439513776 0.20607556698 
0.2067002694 0.20636656157 0.2052248921 0.20346190443 0.20127296366 0.19882956403 0.19624993944 0.19358098477 0.19079628838 
0.18781014615 0.18450269333 0.18074801896 0.17643630925 0.17148373649 0.16582980739 0.1594284233 0.15224193518 0.14424499905 
0.13543868963 0.12586900202 0.11564088215 0.10492024769 0.093921019843 0.082880009311 0.072027398253 0.061562474149 0.051641968891 
0.042382541254 0.033872624187 0.026185711283 0.019388688136 0.013543253999 0.0087026176878 0.0049074084178 0.0021840031154 0.00054633065477 
1.9296735323e-17 
