# vtk DataFile Version 5.1
vtk output
ASCII
DATASET POLYDATA
POINTS 100 float
0.22637 0.0477783 -0.677746 0.226013 0.0476513 -0.677905 0.225026 0.0471655 -0.678425 
0.223459 0.0463707 -0.679159 0.221385 0.0453409 -0.679879 0.21889 0.0441634 -0.680305 
0.216064 0.0429263 -0.680136 0.212985 0.0417052 -0.679081 0.209707 0.0405504 -0.676899 
0.206252 0.0394782 -0.673415 0.202601 0.0384648 -0.668543 0.198693 0.0374462 -0.662288 
0.194431 0.0363227 -0.654741 0.189687 0.0349678 -0.646062 0.184315 0.0332419 -0.636456 
0.178168 0.031007 -0.626142 0.171112 0.0281434 -0.615325 0.163046 0.0245645 -0.604168 
0.153914 0.0202286 -0.592773 0.143714 0.0151476 -0.581168 0.132509 0.00938957 -0.569307 
0.120418 0.00307648 -0.557079 0.107619 -0.00362364 -0.544325 0.0943293 -0.0105086 -0.53086 
0.0807936 -0.0173573 -0.5165 0.0672624 -0.0239464 -0.501086 0.0539727 -0.0300672 -0.484506 
0.0411286 -0.03554 -0.466707 0.0288856 -0.0402265 -0.447704 0.0173395 -0.0440367 -0.42757 
0.00652202 -0.0469322 -0.406434 -0.00359734 -0.048924 -0.384454 -0.0131027 -0.0500667 -0.361802 
-0.0221172 -0.0504487 -0.338643 -0.0307845 -0.0501811 -0.31511 -0.0392472 -0.0493849 -0.291297 
-0.0476263 -0.0481796 -0.267247 -0.056002 -0.0466733 -0.242958 -0.0643989 -0.044955 -0.218387 
-0.072778 -0.0430907 -0.193468 -0.0810344 -0.0411225 -0.168126 -0.0890035 -0.0390707 -0.142304 
-0.096473 -0.0369383 -0.115971 -0.103201 -0.0347175 -0.0891473 -0.108937 -0.0323965 -0.0619016 
-0.113445 -0.029966 -0.0343585 -0.116528 -0.0274249 -0.00668941 -0.118041 -0.024784 0.0209002 
-0.117911 -0.0220682 0.0481884 -0.116139 -0.0193156 0.074956 -0.112803 -0.0165756 0.101007 
-0.108048 -0.013905 0.126184 -0.102076 -0.0113632 0.150382 -0.0951265 -0.00900721 0.173552 
-0.0874542 -0.00688714 0.195703 -0.0793105 -0.00504229 0.216894 -0.0709234 -0.00349872 0.237223 
-0.0624817 -0.00226829 0.256811 -0.054125 -0.00134907 0.275788 -0.045939 -0.000727158 0.294278 
-0.0379571 -0.000379399 0.312385 -0.0301673 -0.000276665 0.330187 -0.0225232 -0.000387259 0.347734 
-0.0149584 -0.000680011 0.365046 -0.00740036 -0.00112672 0.382118 0.000215265 -0.00170378 0.398931 
0.00793415 -0.00239275 0.415457 0.0157758 -0.00318018 0.431668 0.0237307 -0.00405653 0.44754 
0.0317622 -0.00501466 0.463057 0.0398113 -0.00604803 0.478211 0.0478057 -0.00714902 0.492998 
0.0556694 -0.00830744 0.507414 0.0633324 -0.00950962 0.521446 0.0707394 -0.010738 0.535069 
0.0778554 -0.0119716 0.548242 0.0846691 -0.0131864 0.560905 0.0911911 -0.0143569 0.572983 
0.0974505 -0.0154577 0.584395 0.103487 -0.016465 0.595055 0.109345 -0.0173578 0.604889 
0.11506 -0.0181198 0.613841 0.120657 -0.0187397 0.621886 0.126141 -0.0192121 0.629031 
0.131495 -0.0195377 0.635321 0.136682 -0.0197224 0.640834 0.141645 -0.0197775 0.645676 
0.146319 -0.0197184 0.64997 0.150634 -0.0195634 0.653842 0.154528 -0.0193332 0.657405 
0.15795 -0.0190495 0.660753 0.160871 -0.0187343 0.663944 0.163285 -0.0184088 0.666998 
0.16521 -0.0180927 0.669896 0.166683 -0.017804 0.672585 0.16776 -0.0175585 0.674984 
0.168501 -0.017369 0.677001 0.168966 -0.017246 0.678542 0.169206 -0.0171967 0.679528 
0.169254 -0.0172257 0.679908 
LINES 2 100
OFFSETS vtktypeint64
0 100 
CONNECTIVITY vtktypeint64
0 1 2 3 4 5 6 7 8 
9 10 11 12 13 14 15 16 17 
18 19 20 21 22 23 24 25 26 
27 28 29 30 31 32 33 34 35 
36 37 38 39 40 41 42 43 44 
45 46 47 48 49 50 51 52 53 
54 55 56 57 58 59 60 61 62 
63 64 65 66 67 68 69 70 71 
72 73 74 75 76 77 78 79 80 
81 82 83 84 85 86 87 88 89 
90 91 92 93 94 95 96 97 98 
99 
POINT_DATA 100
FIELD FieldData 3
_theta 1 100 double
0 0.031733259127 0.063466518254 0.095199777382 0.12693303651 0.15866629564 0.19039955476 0.22213281389 0.25386607302 
0.28559933214 0.31733259127 0.3490658504 0.38079910953 0.41253236865 0.44426562778 0.47599888691 0.50773214603 0.53946540516 
0.57119866429 0.60293192342 0.63466518254 0.66639844167 0.6981317008 0.72986495992 0.76159821905 0.79333147818 0.82506473731 
0.85679799643 0.88853125556 0.92026451469 0.95199777382 0.98373103294 1.0154642921 1.0471975512 1.0789308103 1.1106640695 
1.1423973286 1.1741305877 1.2058638468 1.237597106 1.2693303651 1.3010636242 1.3327968833 1.3645301425 1.3962634016 
1.4279966607 1.4597299198 1.491463179 1.5231964381 1.5549296972 1.5866629564 1.6183962155 1.6501294746 1.6818627337 
1.7135959929 1.745329252 1.7770625111 1.8087957702 1.8405290294 1.8722622885 1.9039955476 1.9357288068 1.9674620659 
1.999195325 2.0309285841 2.0626618433 2.0943951024 2.1261283615 2.1578616206 2.1895948798 2.2213281389 2.253061398 
2.2847946572 2.3165279163 2.3482611754 2.3799944345 2.4117276937 2.4434609528 2.4751942119 2.506927471 2.5386607302 
2.5703939893 2.6021272484 2.6338605076 2.6655937667 2.6973270258 2.7290602849 2.7607935441 2.7925268032 2.8242600623 
2.8559933214 2.8877265806 2.9194598397 2.9511930988 2.982926358 3.0146596171 3.0463928762 3.0781261353 3.1098593945 
3.1415926536 
_radius 1 100 double
8.1185058676e-16 0.017176099903 0.034163030119 0.050790566477 0.066926269488 0.082483997756 0.097422323162 0.11173327815 0.12542423312 
0.13849751294 0.15093291165 0.16267722127 0.17364264041 0.18371344013 0.19275852038 0.20064693966 0.20726393351 0.21252576864 
0.21639245317 0.21887757679 0.22005445929 0.22005760986 0.21907853037 0.21735530871 0.21515626441 0.21275899081 0.21042719703 
0.20838839627 0.20681538673 0.20581362329 0.20541540047 0.20558084733 0.20620536884 0.20713316702 0.2081763868 0.20913893254 
0.20984307287 0.21015581476 0.21001102708 0.20942289505 0.20848707736 0.20736841135 0.20627796698 0.2054460293 0.20509840807 
0.20543997332 0.20664384672 0.20884149994 0.21211024043 0.21645883095 0.2218160673 0.22802820971 0.23486864432 0.24205898349 
0.24929759265 0.25629040738 0.26277938355 0.26856505473 0.27352090852 0.27759850526 0.28082344045 0.28328334222 0.28510999097 
0.28645821629 0.28748435753 0.28832675556 0.28909011808 0.28983489862 0.29057221289 0.29126429232 0.29182997228 0.29215420959 
0.29210019292 0.29152236876 0.29027873903 0.2882411036 0.28530244821 0.28138128062 0.27642324822 0.27040070887 0.26331101871 
0.25517416531 0.2460300912 0.23593573549 0.22496158147 0.21318743175 0.20069729802 0.18757370116 0.17389222107 0.15971753394 
0.14510205276 0.13008750445 0.11470871018 0.098998146329 0.082989910665 0.06672229962 0.050238867083 0.033588273302 0.016823381627 
3.9253427791e-16 
_area 1 100 double
0 0.00057089966213 0.0022950217612 0.0051991054946 0.0093059498206 0.014611508226 0.02106672196 0.028568793143 0.036961769854 
0.046043207499 0.05557323499 0.065283721381 0.074886939542 0.084084178331 0.092575151873 0.10006936364 0.10630095651 0.11104833846 
0.11415832549 0.11557193677 0.1153463833 0.11366636431 0.1108384524 0.10726595564 0.10340861775 0.09973384084 0.096631219758 
0.094319834251 0.092803534403 0.092007342892 0.091861065153 0.09228868299 0.093192737145 0.094465590616 0.09600716605 0.097731350195 
0.099552603173 0.10135249507 0.10302870879 0.10456140463 0.10599667591 0.10737945768 0.10873190524 0.11010334621 0.11159534807 
0.11336810072 0.11565327749 0.11875751874 0.1230140425 0.12866667366 0.13576817704 0.14417742364 0.15361833447 0.16373515318 
0.17412838717 0.1843803417 0.19407967224 0.20284962229 0.21038078959 0.21646559621 0.22102588943 0.22412365202 0.22595649794 
0.22690250685 0.22783482942 0.22871821149 0.22936938928 0.22978300865 0.22995557586 0.22985758001 0.22941872679 0.22852239937 
0.22700937486 0.22469058427 0.22136775084 0.21685842249 0.21102023275 0.20376969744 0.19509306402 0.18504932683 0.17376735389 
0.1614393848 0.1483119002 0.13467303561 0.12083478803 0.10710912164 0.093779703462 0.081074634432 0.069148430501 0.058080868185 
0.047894450532 0.038583882499 0.030146067169 0.022600848513 0.015998497078 0.010415390826 0.0059421776653 0.0026690359073 0.00067162665923 
7.1514547933e-17 
