# vtk DataFile Version 5.1
vtk output
ASCII
DATASET POLYDATA
POINTS 100 float
0.200924 0.0678243 -0.672439 0.200663 0.0679906 -0.672322 0.199961 0.0683185 -0.671975 
0.198819 0.0687623 -0.671329 0.197239 0.0692481 -0.67028 0.195219 0.0696774 -0.668699 
0.192756 0.069933 -0.666449 0.18984 0.0698853 -0.663402 0.186458 0.0694003 -0.65945 
0.182587 0.068349 -0.654521 0.178201 0.066616 -0.648583 0.173267 0.0641093 -0.641644 
0.167749 0.060768 -0.633755 0.16161 0.0565691 -0.624994 0.154818 0.0515316 -0.615455 
0.147347 0.0457179 -0.60524 0.139181 0.0392318 -0.594436 0.130323 0.0322135 -0.583112 
0.120793 0.0248309 -0.571303 0.110631 0.0172696 -0.559014 0.0998999 0.00971996 -0.546211 
0.088681 0.00236507 -0.532837 0.0770731 -0.00463172 -0.518815 0.0651871 -0.0111367 -0.504058 
0.0531403 -0.0170532 -0.488489 0.0410493 -0.022325 -0.472043 0.0290236 -0.0269366 -0.454681 
0.0171592 -0.0309088 -0.436393 0.00553352 -0.0342918 -0.417199 -0.00579752 -0.0371551 -0.397144 
-0.0168004 -0.0395769 -0.376295 -0.0274622 -0.0416331 -0.354731 -0.0377864 -0.0433873 -0.332529 
-0.0477868 -0.044884 -0.309764 -0.0574795 -0.046144 -0.286494 -0.0668742 -0.047164 -0.262762 
-0.0759668 -0.0479191 -0.238594 -0.0847317 -0.0483688 -0.214004 -0.0931172 -0.048465 -0.189 
-0.101044 -0.0481602 -0.163594 -0.108405 -0.0474172 -0.137808 -0.115073 -0.0462155 -0.111687 
-0.120906 -0.044557 -0.0852975 -0.125756 -0.0424679 -0.0587377 -0.129486 -0.0399978 -0.03213 
-0.131976 -0.0372159 -0.00561723 -0.133137 -0.034205 0.0206459 -0.13292 -0.0310538 0.0465044 
-0.131323 -0.027849 0.0718148 -0.12839 -0.0246683 0.096456 -0.124211 -0.0215749 0.120338 
-0.118918 -0.0186144 0.143408 -0.112673 -0.0158148 0.165649 -0.105658 -0.0131885 0.187082 
-0.0980619 -0.0107372 0.207752 -0.0900681 -0.00845781 0.227727 -0.081842 -0.00634899 0.247078 
-0.0735226 -0.00441709 0.265875 -0.065216 -0.00268035 0.284176 -0.0569934 -0.00117086 0.302018 
-0.0488928 6.63751e-05 0.319419 -0.0409233 0.000977025 0.336376 -0.0330733 0.00150361 0.352869 
-0.0253191 0.00159322 0.368874 -0.0176344 0.00120599 0.384368 -0.0099998 0.000322987 0.399339 
-0.00240919 -0.00104749 0.413796 0.00512519 -0.00286618 0.42777 0.0125712 -0.00506241 0.44132 
0.0198782 -0.00753712 0.454528 0.0269809 -0.0101692 0.467489 0.0338055 -0.0128244 0.480305 
0.0402768 -0.0153664 0.493073 0.0463256 -0.0176682 0.505868 0.0518955 -0.0196226 0.518736 
0.0569473 -0.0211516 0.531685 0.0614625 -0.0222122 0.544676 0.0654433 -0.0227993 0.557632 
0.0689109 -0.0229447 0.570432 0.0719013 -0.0227126 0.582931 0.0744603 -0.0221927 0.594965 
0.0766375 -0.0214903 0.606368 0.0784809 -0.0207165 0.616985 0.0800321 -0.0199776 0.626688 
0.0813239 -0.0193667 0.635385 0.0823785 -0.0189565 0.643024 0.0832089 -0.0187946 0.649598 
0.0838213 -0.0189025 0.655139 0.084219 -0.0192762 0.659718 0.0844066 -0.0198894 0.66343 
0.0843941 -0.0206983 0.666387 0.0842 -0.0216473 0.668708 0.0838535 -0.0226747 0.670508 
0.0833941 -0.0237179 0.671889 0.0828699 -0.0247177 0.672941 0.0823344 -0.0256218 0.673733 
0.0818414 -0.0263865 0.674318 0.08144 -0.0269776 0.674733 0.0811697 -0.0273709 0.674999 
0.081056 -0.0275519 0.67513 
LINES 2 100
OFFSETS vtktypeint64
0 100 
CONNECTIVITY vtktypeint64
0 1 2 3 4 5 6 7 8 
9 10 11 12 13 14 15 16 17 
18 19 20 21 22 23 24 25 26 
27 28 29 30 31 32 33 34 35 
36 37 38 39 40 41 42 43 44 
45 46 47 48 49 50 51 52 53 
54 55 56 57 58 59 60 61 62 
63 64 65 66 67 68 69 70 71 
72 73 74 75 76 77 78 79 80 
81 82 83 84 85 86 87 88 89 
90 91 92 93 94 95 96 97 98 
99 
POINT_DATA 100
FIELD FieldData 3
_theta 1 100 double
0 0.031733259127 0.063466518254 0.095199777382 0.12693303651 0.15866629564 0.19039955476 0.22213281389 0.25386607302 
0.28559933214 0.31733259127 0.3490658504 0.38079910953 0.41253236865 0.44426562778 0.47599888691 0.50773214603 0.53946540516 
0.57119866429 0.60293192342 0.63466518254 0.66639844167 0.6981317008 0.72986495992 0.76159821905 0.79333147818 0.82506473731 
0.85679799643 0.88853125556 0.92026451469 0.95199777382 0.98373103294 1.0154642921 1.0471975512 1.0789308103 1.1106640695 
1.1423973286 1.1741305877 1.2058638468 1.237597106 1.2693303651 1.3010636242 1.3327968833 1.3645301425 1.3962634016 
1.4279966607 1.4597299198 1.491463179 1.5231964381 1.5549296972 1.5866629564 1.6183962155 1.6501294746 1.6818627337 
1.7135959929 1.745329252 1.7770625111 1.8087957702 1.8405290294 1.8722622885 1.9039955476 1.9357288068 1.9674620659 
1.999195325 2.0309285841 2.0626618433 2.0943951024 2.1261283615 2.1578616206 2.1895948798 2.2213281389 2.253061398 
2.2847946572 2.3165279163 2.3482611754 2.3799944345 2.4117276937 2.4434609528 2.4751942119 2.506927471 2.5386607302 
2.5703939893 2.6021272484 2.6338605076 2.6655937667 2.6973270258 2.7290602849 2.7607935441 2.7925268032 2.8242600623 
2.8559933214 2.8877265806 2.9194598397 2.9511930988 2.982926358 3.0146596171 3.0463928762 3.0781261353 3.1098593945 
3.1415926536 
_radius 1 100 double
1.3412722174e-15 0.015998651876 0.031779861608 0.047142040121 0.061916194916 0.075972018805 0.089215996733 0.10158425777 0.11303410649 
0.12353749192 0.13307790669 0.14165037352 0.14926289136 0.15593725649 0.16170764214 0.16661657081 0.17070945847 0.17403002657 
0.17661894469 0.17851693611 0.17977170534 0.18044625149 0.18062518377 0.18041597217 0.17994362038 0.17933956982 0.17872782275 
0.17821219713 0.17786769106 0.1777367488 0.17782929218 0.17812487156 0.17857617811 0.17911452056 0.17965860584 0.18012738293 
0.18045589661 0.18061089481 0.18060146958 0.18048030446 0.18033393331 0.18026557535 0.18037878821 0.18076978293 0.18152985398 
0.1827523116 0.18453594363 0.18697957064 0.19016700637 0.19414635818 0.19891041753 0.2043848226 0.21042794902 0.21684270723 
0.22339738906 0.22985112772 0.2359791135 0.24159314736 0.24655448761 0.25077805823 0.25422915367 0.25691499383 0.25887363743 
0.26016222523 0.26084587189 0.2609881426 0.26064394815 0.2598555842 0.2586522403 0.25705259795 0.25506940088 0.25271444817 
0.25000247567 0.24695277525 0.24358798038 0.23993008801 0.235994414 0.23178271902 0.22727707533 0.22243603971 0.21719430128 
0.21146628504 0.20515343024 0.19815423957 0.19037580889 0.18174537409 0.17222039041 0.16179576426 0.15050711916 0.13842943125 
0.12567099738 0.11236340379 0.09864879749 0.084666190215 0.070538671567 0.056363268046 0.042204795761 0.028094471904 0.014033355253 
1.0883824308e-15 
_area 1 100 double
0 0.00052870604941 0.0021173345277 0.0047721860098 0.0084938329002 0.01325427145 0.018969599658 0.025482377569 0.032561537993 
0.039920589413 0.047250128371 0.054257231008 0.060702195697 0.066423151317 0.07134162251 0.075447209778 0.078766932882 0.081332842982 
0.083164620841 0.084276225602 0.084700718265 0.084516542269 0.083858481978 0.082905146572 0.081846509788 0.08084448567 0.080004224956 
0.07937152755 0.078956330515 0.078761461407 0.078792930426 0.079047670778 0.07949936883 0.080101826967 0.080806673776 0.081585802099 
0.082453200654 0.08347540809 0.084749106293 0.086341435941 0.088238279091 0.090343721086 0.092518788727 0.094632771032 0.096612123834 
0.098475290156 0.10034622397 0.10244800044 0.10507652246 0.10853917211 0.11305404022 0.11867470465 0.12530276115 0.13274073701 
0.14072222046 0.14891334716 0.15693538007 0.16443618908 0.17114876787 0.17690162228 0.18160176294 0.18521351357 0.18774690252 
0.18925804366 0.18984962307 0.18965209388 0.18878530862 0.18733012775 0.18532330965 0.18276415472 0.17963485763 0.17593221047 
0.17169137054 0.16698929487 0.16192937196 0.15661478175 0.15112061906 0.14547529364 0.13965742337 0.13360687961 0.12724332867 
0.1204854836 0.11326718966 0.10554914783 0.097326759979 0.088635606784 0.079555650404 0.070212952938 0.060775861709 0.051443924641 
0.042431189831 0.033947707605 0.02618274026 0.019291773205 0.013388520266 0.0085429076913 0.0047856058112 0.0021184136198 0.00052808457339 
1.9533414974e-17 
