# vtk DataFile Version 5.1
vtk output
ASCII
DATASET POLYDATA
POINTS 100 float
0.131815 0.08091 -0.682067 0.131965 0.0808055 -0.681889 0.132408 0.0802874 -0.681327 
0.133098 0.079378 -0.680349 0.133964 0.0781112 -0.678902 0.134916 0.0765265 -0.676925 
0.13585 0.0746616 -0.674352 0.136657 0.0725457 -0.671124 0.137233 0.0701928 -0.667196 
0.137476 0.0675981 -0.66254 0.137301 0.0647366 -0.65715 0.136632 0.0615643 -0.651042 
0.13541 0.0580242 -0.644249 0.133584 0.0540525 -0.636815 0.131114 0.0495887 -0.628793 
0.127964 0.0445848 -0.620227 0.124106 0.0390144 -0.611154 0.119511 0.0328807 -0.601592 
0.114157 0.0262206 -0.591537 0.108027 0.0191061 -0.580965 0.101116 0.0116425 -0.56983 
0.0934346 0.00396229 -0.558072 0.0850116 -0.00378271 -0.54562 0.0759002 -0.0114318 -0.532406 
0.0661786 -0.0188258 -0.518365 0.0559497 -0.0258176 -0.503449 0.0453376 -0.0322802 -0.487627 
0.0344821 -0.038113 -0.470889 0.0235304 -0.0432448 -0.453244 0.012628 -0.0476332 -0.434722 
0.00190987 -0.0512625 -0.415363 -0.00850835 -0.0541376 -0.395213 -0.0185358 -0.0562783 -0.374317 
-0.0281097 -0.0577126 -0.352718 -0.0371944 -0.0584708 -0.330445 -0.0457771 -0.0585813 -0.307519 
-0.0538612 -0.0580691 -0.283947 -0.0614563 -0.0569553 -0.259734 -0.0685684 -0.0552608 -0.234882 
-0.0751906 -0.0530097 -0.209399 -0.0812954 -0.050235 -0.183306 -0.0868309 -0.0469837 -0.156645 
-0.0917205 -0.0433206 -0.12948 -0.0958674 -0.0393305 -0.101904 -0.0991625 -0.0351183 -0.0740321 
-0.101496 -0.0308055 -0.0460013 -0.102768 -0.0265247 -0.0179634 -0.102906 -0.0224117 0.00992384 
-0.101869 -0.0185963 0.0375058 -0.0996627 -0.0151924 0.0646403 -0.096336 -0.0122896 0.0912053 
-0.0919833 -0.00994593 0.117105 -0.0867364 -0.00818335 0.142272 -0.0807537 -0.00698686 0.166671 
-0.074206 -0.00630661 0.19029 -0.0672618 -0.00606343 0.213143 -0.0600725 -0.00615693 0.235257 
-0.0527601 -0.00647547 0.256671 -0.04541 -0.00690675 0.277425 -0.0380669 -0.00734807 0.297558 
-0.0307381 -0.0077151 0.317103 -0.0234002 -0.00794832 0.336084 -0.0160105 -0.00801661 0.354519 
-0.00852063 -0.00791762 0.37242 -0.00089062 -0.00767526 0.3898 0.00689842 -0.00733453 0.406668 
0.014835 -0.00695458 0.423043 0.0228723 -0.00660079 0.438946 0.0309287 -0.00633684 0.454404 
0.0388934 -0.00621753 0.46945 0.0466366 -0.00628325 0.484116 0.0540226 -0.00655638 0.49843 
0.0609248 -0.00703994 0.512413 0.0672394 -0.00771843 0.526069 0.0728973 -0.00856052 0.539387 
0.077871 -0.00952311 0.552337 0.0821777 -0.0105562 0.564868 0.0858756 -0.0116078 0.576915 
0.0890558 -0.0126287 0.588401 0.091831 -0.0135763 0.599247 0.0943203 -0.0144169 0.609376 
0.0966351 -0.0151275 0.618724 0.0988657 -0.0156958 0.627245 0.101072 -0.0161192 0.634918 
0.103276 -0.0164035 0.641747 0.105467 -0.0165607 0.647766 0.107599 -0.0166071 0.653026 
0.109607 -0.0165612 0.657601 0.111415 -0.0164423 0.661574 0.11295 -0.0162695 0.665029 
0.114155 -0.0160605 0.668046 0.115002 -0.0158319 0.670693 0.11549 -0.0155989 0.67302 
0.115656 -0.0153751 0.67506 0.115563 -0.015173 0.676827 0.115298 -0.0150039 0.678318 
0.114955 -0.0148774 0.679518 0.114628 -0.0148016 0.68041 0.114392 -0.0147827 0.680974 
0.1143 -0.0148242 0.681194 
LINES 2 100
OFFSETS vtktypeint64
0 100 
CONNECTIVITY vtktypeint64
0 1 2 3 4 5 6 7 8 
9 10 11 12 13 14 15 16 17 
18 19 20 21 22 23 24 25 26 
27 28 29 30 31 32 33 34 35 
36 37 38 39 40 41 42 43 44 
45 46 47 48 49 50 51 52 53 
54 55 56 57 58 59 60 61 62 
63 64 65 66 67 68 69 70 71 
72 73 74 75 76 77 78 79 80 
81 82 83 84 85 86 87 88 89 
90 91 92 93 94 95 96 97 98 
99 
POINT_DATA 100
FIELD FieldData 3
_theta 1 100 double
0 0.031733259127 0.063466518254 0.095199777382 0.12693303651 0.15866629564 0.19039955476 0.22213281389 0.25386607302 
0.28559933214 0.31733259127 0.3490658504 0.38079910953 0.41253236865 0.44426562778 0.47599888691 0.50773214603 0.53946540516 
0.57119866429 0.60293192342 0.63466518254 0.66639844167 0.6981317008 0.72986495992 0.76159821905 0.79333147818 0.82506473731 
0.85679799643 0.88853125556 0.92026451469 0.95199777382 0.98373103294 1.0154642921 1.0471975512 1.0789308103 1.1106640695 
1.1423973286 1.1741305877 1.2058638468 1.237597106 1.2693303651 1.3010636242 1.3327968833 1.3645301425 1.3962634016 
1.4279966607 1.4597299198 1.491463179 1.5231964381 1.5549296972 1.5866629564 1.6183962155 1.6501294746 1.6818627337 
1.7135959929 1.745329252 1.7770625111 1.8087957702 1.8405290294 1.8722622885 1.9039955476 1.9357288068 1.9674620659 
1.999195325 2.0309285841 2.0626618433 2.0943951024 2.1261283615 2.1578616206 2.1895948798 2.2213281389 2.253061398 
2.2847946572 2.3165279163 2.3482611754 2.3799944345 2.4117276937 2.4434609528 2.4751942119 2.506927471 2.5386607302 
2.5703939893 2.6021272484 2.6338605076 2.6655937667 2.6973270258 2.7290602849 2.7607935441 2.7925268032 2.8242600623 
2.8559933214 2.8877265806 2.9194598397 2.9511930988 2.982926358 3.0146596171 3.0463928762 3.0781261353 3.1098593945 
3.1415926536 
_radius 1 100 double
5.703416236e-16 0.015950207965 0.031788676733 0.047410351167 0.062730867696 0.077689945055 0.092248367148 0.10637939087 0.12005695762 
0.13324391392 0.14588327673 0.15789454693 0.16917565438 0.17960985155 0.18907610139 0.19746127276 0.20467258903 0.2106490361 
0.21537065177 0.21886473934 0.22120813293 0.22252480951 0.22297850617 0.22276060692 0.2220743492 0.22111718511 0.22006365746 
0.21905118059 0.21817057698 0.21746230159 0.21691835333 0.21648923745 0.21609504912 0.21563962252 0.21502653398 0.21417549923 
0.21303744504 0.21160640248 0.20992646927 0.20809248338 0.20624379054 0.20455158988 0.20320164775 0.20237523202 0.20223137867 
0.20289282854 0.20443655189 0.20688848149 0.21022154758 0.21435650285 0.21916590414 0.22448218305 0.23011038035 0.23584489857 
0.24148822205 0.2468687178 0.25185469185 0.25636268247 0.26035914841 0.26385589719 0.26690054365 0.26956384267 0.27192585789 
0.2740626861 0.2760350307 0.27787950112 0.27960321118 0.28118202369 0.28256252645 0.2836674345 0.28440361608 0.2846714691 
0.28437411388 0.28342494432 0.28175250197 0.27930229306 0.27603587054 0.27192805816 0.26696346469 0.2611333763 0.2544337798 
0.24686478983 0.2384312901 0.22914428358 0.21902234282 0.2080926462 0.19639130602 0.18396294537 0.17085967422 0.15713970052 
0.14286578323 0.12810363448 0.11292027813 0.097382337477 0.081554280514 0.065496768194 0.049265363448 0.032909899879 0.016474741821 
1.6179737581e-15 
_area 1 100 double
0 0.00068470970552 0.0027162747981 0.0060310314764 0.010534645413 0.016114618541 0.022649707347 0.030012684462 0.038066215033 
0.046654726571 0.055596390038 0.06467880095 0.073660729124 0.082281000315 0.090274187333 0.097391336362 0.1034226568 0.10821825307 
0.11170287425 0.11388155306 0.11483492995 0.11470563073 0.11367942271 0.11196587253 0.10978229133 0.10734308002 0.10485747733 
0.10262432742 0.10087538859 0.099550232209 0.09867764397 0.098296228883 0.098412471041 0.098963321008 0.099812871085 0.10078827635 
0.10172119592 0.10248785036 0.1030450797 0.1034474163 0.10382799959 0.1043506008 0.10516758648 0.10641192853 0.10821342013 
0.11071682844 0.11407517382 0.11833237118 0.12341170008 0.12923205749 0.1357170092 0.14277789206 0.15029373604 0.15809408671 
0.16595352929 0.17360467732 0.18076961311 0.18720188823 0.192726565 0.19726644582 0.20084752964 0.20358328598 0.2056428683 
0.20721082867 0.20844545377 0.20944307442 0.21021838373 0.21070909583 0.21080230464 0.21037004332 0.20930181964 0.2075265195 
0.20501831561 0.201782356 0.19782298183 0.19311299445 0.18758792306 0.18116737784 0.17378546666 0.16541594385 0.15608740983 
0.14588806633 0.13496123634 0.12349396964 0.11170125449 0.099807933048 0.088030307505 0.076560210082 0.065555290903 0.055138384178 
0.045404999757 0.036434065648 0.028296830115 0.021061723598 0.014795588483 0.0095625531591 0.0054216227097 0.0024236424501 0.00060806727214 
4.5320491214e-17 
