# vtk DataFile Version 5.1
vtk output
ASCII
DATASET POLYDATA
POINTS 100 float
0.274817 0.0482627 -0.687647 0.274285 0.0483592 -0.687241 0.272737 0.048495 -0.686105 
0.270177 0.0486647 -0.684219 0.266612 0.0488574 -0.681551 0.262055 0.0490527 -0.678067 
0.256527 0.0492172 -0.673739 0.250063 0.0493012 -0.66855 0.24271 0.049237 -0.662505 
0.234529 0.0489393 -0.65563 0.225596 0.0483079 -0.647979 0.216001 0.0472336 -0.639622 
0.205841 0.0456059 -0.630647 0.195219 0.0433223 -0.621146 0.184241 0.0402993 -0.611203 
0.173008 0.0364815 -0.600888 0.161615 0.0318502 -0.590246 0.150149 0.0264296 -0.579293 
0.138684 0.0202884 -0.568011 0.127286 0.013539 -0.556355 0.116007 0.00633219 -0.544258 
0.104893 -0.00115138 -0.53164 0.0939771 -0.00871215 -0.518422 0.0832879 -0.0161441 -0.504532 
0.0728434 -0.0232472 -0.489922 0.062652 -0.0298396 -0.47457 0.0527101 -0.0357667 -0.458483 
0.0429993 -0.0409084 -0.441695 0.0334845 -0.0451827 -0.424265 0.0241128 -0.0485459 -0.40626 
0.0148133 -0.0509905 -0.387748 0.00550079 -0.0525401 -0.368786 -0.00391852 -0.0532433 -0.349406 
-0.0135385 -0.0531672 -0.329609 -0.0234417 -0.0523908 -0.309364 -0.0336868 -0.0509993 -0.288608 
-0.0442951 -0.0490805 -0.267255 -0.0552392 -0.0467216 -0.245207 -0.0664338 -0.0440084 -0.222369 
-0.077731 -0.0410248 -0.198667 -0.0889215 -0.0378529 -0.174059 -0.0997419 -0.0345734 -0.148554 
-0.109888 -0.0312649 -0.122212 -0.119034 -0.0280028 -0.0951526 -0.126854 -0.0248574 -0.0675458 
-0.133051 -0.0218905 -0.0396046 -0.137377 -0.0191529 -0.0115694 -0.139657 -0.0166805 0.0163094 
-0.139805 -0.014493 0.0437905 -0.137836 -0.0125922 0.0706583 -0.133862 -0.010963 0.0967376 
-0.128087 -0.00957643 0.121903 -0.120792 -0.00839349 0.146082 -0.11231 -0.00737143 0.169254 
-0.103003 -0.00647 0.191445 -0.0932283 -0.00565788 0.212712 -0.0833134 -0.00491799 0.233137 
-0.0735334 -0.00425094 0.252807 -0.0640932 -0.0036761 0.271807 -0.0551182 -0.00322989 0.290211 
-0.0466539 -0.00296136 0.308075 -0.0386744 -0.00292557 0.325436 -0.0310965 -0.00317549 0.342318 
-0.0238005 -0.00375346 0.358735 -0.0166524 -0.00468337 0.3747 -0.0095266 -0.00596465 0.390229 
-0.00232504 -0.00756894 0.405349 0.00500812 -0.00944014 0.420101 0.0124786 -0.0114978 0.434536 
0.0200412 -0.0136438 0.448713 0.0276061 -0.0157714 0.46269 0.0350507 -0.0177755 0.476518 
0.0422351 -0.0195634 0.490226 0.0490205 -0.021064 0.503817 0.0552857 -0.0222347 0.517263 
0.0609414 -0.0230645 0.530501 0.0659403 -0.0235743 0.543439 0.0702812 -0.0238125 0.555962 
0.0740074 -0.0238478 0.567946 0.0771999 -0.0237593 0.579273 0.0799662 -0.0236259 0.589841 
0.0824266 -0.0235162 0.599584 0.0846998 -0.0234793 0.60848 0.0868897 -0.0235393 0.616553 
0.0890754 -0.0236933 0.623874 0.0913044 -0.0239128 0.630554 0.0935908 -0.0241489 0.636733 
0.0959184 -0.0243412 0.642558 0.0982462 -0.024427 0.648167 0.100518 -0.0243524 0.65367 
0.102671 -0.0240809 0.659135 0.104648 -0.0236006 0.664574 0.1064 -0.022928 0.669938 
0.107898 -0.0221071 0.675126 0.109126 -0.0212056 0.679985 0.110088 -0.0203073 0.684338 
0.110799 -0.0195019 0.687993 0.11128 -0.0188745 0.690773 0.111551 -0.0184944 0.692532 
0.111628 -0.0184071 0.693174 
LINES 2 100
OFFSETS vtktypeint64
0 100 
CONNECTIVITY vtktypeint64
0 1 2 3 4 5 6 7 8 
9 10 11 12 13 14 15 16 17 
18 19 20 21 22 23 24 25 26 
27 28 29 30 31 32 33 34 35 
36 37 38 39 40 41 42 43 44 
45 46 47 48 49 50 51 52 53 
54 55 56 57 58 59 60 61 62 
63 64 65 66 67 68 69 70 71 
72 73 74 75 76 77 78 79 80 
81 82 83 84 85 86 87 88 89 
90 91 92 93 94 95 96 97 98 
99 
POINT_DATA 100
FIELD FieldData 3
_theta 1 100 double
0 0.031733259127 0.063466518254 0.095199777382 0.12693303651 0.15866629564 0.19039955476 0.22213281389 0.25386607302 
0.28559933214 0.31733259127 0.3490658504 0.38079910953 0.41253236865 0.44426562778 0.47599888691 0.50773214603 0.53946540516 
0.57119866429 0.60293192342 0.63466518254 0.66639844167 0.6981317008 0.72986495992 0.76159821905 0.79333147818 0.82506473731 
0.85679799643 0.88853125556 0.92026451469 0.95199777382 0.98373103294 1.0154642921 1.0471975512 1.0789308103 1.1106640695 
1.1423973286 1.1741305877 1.2058638468 1.237597106 1.2693303651 1.3010636242 1.3327968833 1.3645301425 1.3962634016 
1.4279966607 1.4597299198 1.491463179 1.5231964381 1.5549296972 1.5866629564 1.6183962155 1.6501294746 1.6818627337 
1.7135959929 1.745329252 1.7770625111 1.8087957702 1.8405290294 1.8722622885 1.9039955476 1.9357288068 1.9674620659 
1.999195325 2.0309285841 2.0626618433 2.0943951024 2.1261283615 2.1578616206 2.1895948798 2.2213281389 2.253061398 
2.2847946572 2.3165279163 2.3482611754 2.3799944345 2.4117276937 2.4434609528 2.4751942119 2.506927471 2.5386607302 
2.5703939893 2.6021272484 2.6338605076 2.6655937667 2.6973270258 2.7290602849 2.7607935441 2.7925268032 2.8242600623 
2.8559933214 2.8877265806 2.9194598397 2.9511930988 2.982926358 3.0146596171 3.0463928762 3.0781261353 3.1098593945 
3.1415926536 
_radius 1 100 double
1.5100665728e-15 0.016954150063 0.033572824111 0.049549597688 0.064639292677 0.0786756545 0.091575843586 0.10333147314 0.11398885308 
0.12362359984 0.1323159255 0.14013216944 0.14711576715 0.15328791356 0.15865580748 0.1632251357 0.16701329267 0.17006037164 
0.17243588422 0.17424023464 0.17560095288 0.1766643631 0.1775836817 0.17850467947 0.17955028577 0.18080600714 0.18230858096 
0.1840403978 0.18593147885 0.18786924898 0.18971455904 0.19132104476 0.19255439876 0.19330858164 0.1935171926 0.19315967408 
0.19226315339 0.19090109486 0.18918951184 0.187280708 0.18535405788 0.18360364294 0.18222358447 0.18139317756 0.18126464663 
0.18195568156 0.18354670703 0.18608025266 0.18955883187 0.19393970737 0.19912902406 0.20498081474 0.21130500583 0.21788355508 
0.22449006865 0.23090847571 0.23694863177 0.24245825172 0.24733076702 0.25150849186 0.25498067823 0.25777673341 0.259955715 
0.26159383144 0.2627718579 0.2635641032 0.26402996797 0.26420847407 0.26411568845 0.26374480262 0.26306860497 0.26204396031 
0.26061762147 0.25873239497 0.25633258546 0.25336785896 0.24979514901 0.24557883639 0.24068996346 0.23510549546 0.22880848068 
0.22178941872 0.21404842854 0.20559722137 0.19645969358 0.18667027685 0.17626994978 0.16530077282 0.15380056895 0.14179953553 
0.1293199625 0.11637908518 0.10299397827 0.089186827983 0.074989065774 0.060443494315 0.045604313503 0.030535551501 0.015308666558 
1.191262023e-15 
_area 1 100 double
0 0.00057684814783 0.0022930042831 0.0051047295299 0.008936327362 0.013674278876 0.019160524006 0.025192265057 0.031534467702 
0.037943148431 0.044190834688 0.050085411096 0.055478044939 0.060261020074 0.064359263172 0.067719934214 0.070305268135 0.072095191331 
0.073102811685 0.07339786275 0.073128626713 0.072531829459 0.071916523104 0.071610718419 0.071887487282 0.072901859637 0.074668150173 
0.077098525133 0.079930231555 0.082819065724 0.085479201383 0.087684901062 0.089288019467 0.090242660333 0.090608238031 0.09051006524 
0.090083139992 0.089488312995 0.088919335574 0.088570283915 0.088651031678 0.089310134177 0.090540269385 0.092222137572 0.094204189387 
0.096400726461 0.098833419555 0.10163424947 0.10502135163 0.10923830072 0.11445742238 0.12069461706 0.12779400035 0.13547265748 
0.14337949012 0.15114405506 0.15841353149 0.16488343822 0.17032624871 0.17461527024 0.17773545563 0.17977535812 0.18090263224 
0.18132984119 0.18127397588 0.18090804601 0.180312581 0.17946171065 0.17826351195 0.17661554186 0.17443645641 0.171672506 
0.16829398248 0.16429277007 0.1596833416 0.15450203014 0.14879807302 0.14261646183 0.13598125333 0.12889094947 0.12133169475 
0.11330342181 0.10484662531 0.096057557157 0.087085294533 0.078110968837 0.069314942576 0.060841747813 0.052775619419 0.045139184714 
0.037918453996 0.03110069594 0.024704775365 0.01879321913 0.013467822908 0.0088555754061 0.0050910309981 0.0022991084252 0.00058040336219 
4.2080593512e-17 
