# vtk DataFile Version 5.1
vtk output
ASCII
DATASET POLYDATA
POINTS 100 float
0.123893 0.0503169 -0.593324 0.124032 0.0504712 -0.593612 0.12445 0.050721 -0.594419 
0.125068 0.0510009 -0.595616 0.12576 0.0512113 -0.597006 0.126375 0.0512291 -0.598339 
0.12675 0.0509205 -0.599345 0.126727 0.0501556 -0.599754 0.126173 0.0488215 -0.599322 
0.12499 0.0468336 -0.597856 0.12312 0.0441434 -0.595225 0.12055 0.0407423 -0.59137 
0.117303 0.0366608 -0.586299 0.11343 0.0319637 -0.58008 0.108993 0.0267425 -0.572826 
0.10406 0.021105 -0.564677 0.0986836 0.0151653 -0.555774 0.0928988 0.00903285 -0.546244 
0.0867166 0.00280533 -0.536186 0.0801272 -0.0034373 -0.525654 0.0731065 -0.00963456 -0.514661 
0.0656273 -0.0157443 -0.503176 0.0576723 -0.0217385 -0.491139 0.0492464 -0.0275975 -0.478468 
0.0403872 -0.0333028 -0.465079 0.03117 -0.0388307 -0.4509 0.0217079 -0.0441464 -0.435885 
0.0121447 -0.0492012 -0.420022 0.00264276 -0.053932 -0.403338 -0.00663354 -0.0582635 -0.385898 
-0.0155362 -0.0621131 -0.367795 -0.0239513 -0.0653974 -0.349145 -0.0318129 -0.0680402 -0.330066 
-0.0391114 -0.0699797 -0.310667 -0.0458941 -0.071175 -0.291037 -0.0522579 -0.0716108 -0.271233 
-0.0583338 -0.0712988 -0.251276 -0.0642665 -0.0702772 -0.231149 -0.0701894 -0.0686074 -0.210807 
-0.0762006 -0.0663679 -0.190184 -0.0823416 -0.0636478 -0.169206 -0.0885821 -0.0605396 -0.147805 
-0.094814 -0.057132 -0.125931 -0.100855 -0.0535047 -0.103569 -0.106463 -0.049725 -0.0807387 
-0.111357 -0.0458461 -0.0575005 -0.115246 -0.0419085 -0.0339535 -0.117862 -0.0379425 -0.010227 
-0.118988 -0.0339724 0.0135295 -0.118485 -0.0300211 0.0371594 -0.116308 -0.0261139 0.0605117 
-0.112511 -0.0222821 0.0834535 -0.107249 -0.0185647 0.105879 -0.100754 -0.0150077 0.127714 
-0.0933201 -0.0116623 0.14892 -0.0852655 -0.00858142 0.169488 -0.0769049 -0.00581486 0.189437 
-0.0685176 -0.00340451 0.208799 -0.0603223 -0.00137994 0.227616 -0.0524611 0.000244881 0.245929 
-0.0449926 0.0014733 0.263769 -0.0378969 0.00232563 0.281152 -0.0310897 0.00283705 0.298085 
-0.024444 0.00305369 0.314556 -0.0178166 0.00302778 0.33055 -0.011075 0.00281216 0.346049 
-0.00412152 0.0024552 0.361039 0.00308859 0.00199653 0.375523 0.0105377 0.0014643 0.389517 
0.0181457 0.000874172 0.40306 0.0257789 0.000230093 0.416209 0.0332669 -0.000473298 0.429035 
0.0404247 -0.00124716 0.441619 0.047076 -0.00210437 0.454038 0.0530761 -0.00305556 0.466361 
0.0583296 -0.00410585 0.478635 0.0628009 -0.00525285 0.490878 0.0665172 -0.00648605 0.503077 
0.0695619 -0.00778786 0.515179 0.072062 -0.00913587 0.527102 0.0741686 -0.0105061 0.538731 
0.0760358 -0.0118765 0.549932 0.0778003 -0.0132302 0.560564 0.0795633 -0.0145582 0.570483 
0.0813801 -0.01586 0.579562 0.0832552 -0.0171433 0.587697 0.0851464 -0.0184226 0.594814 
0.0869754 -0.0197149 0.600878 0.0886437 -0.0210366 0.605891 0.0900509 -0.0223983 0.609897 
0.0911132 -0.0238016 0.61297 0.0917792 -0.0252361 0.615214 0.0920395 -0.0266777 0.616756 
0.0919306 -0.0280901 0.61773 0.0915308 -0.0294264 0.618276 0.0909502 -0.0306337 0.618528 
0.0903147 -0.0316579 0.618604 0.0897486 -0.0324496 0.618605 0.0893561 -0.0329694 0.618607 
0.0892065 -0.0331921 0.618654 
LINES 2 100
OFFSETS vtktypeint64
0 100 
CONNECTIVITY vtktypeint64
0 1 2 3 4 5 6 7 8 
9 10 11 12 13 14 15 16 17 
18 19 20 21 22 23 24 25 26 
27 28 29 30 31 32 33 34 35 
36 37 38 39 40 41 42 43 44 
45 46 47 48 49 50 51 52 53 
54 55 56 57 58 59 60 61 62 
63 64 65 66 67 68 69 70 71 
72 73 74 75 76 77 78 79 80 
81 82 83 84 85 86 87 88 89 
90 91 92 93 94 95 96 97 98 
99 
POINT_DATA 100
FIELD FieldData 3
_theta 1 100 double
0 0.031733259127 0.063466518254 0.095199777382 0.12693303651 0.15866629564 0.19039955476 0.22213281389 0.25386607302 
0.28559933214 0.31733259127 0.3490658504 0.38079910953 0.41253236865 0.44426562778 0.47599888691 0.50773214603 0.53946540516 
0.57119866429 0.60293192342 0.63466518254 0.66639844167 0.6981317008 0.72986495992 0.76159821905 0.79333147818 0.82506473731 
0.85679799643 0.88853125556 0.92026451469 0.95199777382 0.98373103294 1.0154642921 1.0471975512 1.0789308103 1.1106640695 
1.1423973286 1.1741305877 1.2058638468 1.237597106 1.2693303651 1.3010636242 1.3327968833 1.3645301425 1.3962634016 
1.4279966607 1.4597299198 1.491463179 1.5231964381 1.5549296972 1.5866629564 1.6183962155 1.6501294746 1.6818627337 
1.7135959929 1.745329252 1.7770625111 1.8087957702 1.8405290294 1.8722622885 1.9039955476 1.9357288068 1.9674620659 
1.999195325 2.0309285841 2.0626618433 2.0943951024 2.1261283615 2.1578616206 2.1895948798 2.2213281389 2.253061398 
2.2847946572 2.3165279163 2.3482611754 2.3799944345 2.4117276937 2.4434609528 2.4751942119 2.506927471 2.5386607302 
2.5703939893 2.6021272484 2.6338605076 2.6655937667 2.6973270258 2.7290602849 2.7607935441 2.7925268032 2.8242600623 
2.8559933214 2.8877265806 2.9194598397 2.9511930988 2.982926358 3.0146596171 3.0463928762 3.0781261353 3.1098593945 
3.1415926536 
_radius 1 100 double
5.7286862589e-16 0.017462304547 0.034641164319 0.05127481584 0.067144123945 0.082087206753 0.096007165086 0.10887220733 0.12070845953 
0.13158666364 0.14160468252 0.15086817571 0.15947195413 0.16748437282 0.17493671369 0.18181889859 0.188082118 0.19364812737 
0.19842410845 0.20232118812 0.20527404686 0.20725866905 0.20830531815 0.20850434006 0.20800338272 0.20699594236 0.20570259599 
0.20434758711 0.20313429519 0.20222327435 0.20171590637 0.20164551609 0.20197654802 0.20261154931 0.20340525822 0.20418463876 
0.20477289995 0.20501463543 0.20479875027 0.20407601291 0.20286873064 0.20127100487 0.19943915572 0.19757315519 0.19589143174 
0.19460357525 0.19388762923 0.19387778514 0.19466247808 0.19628670103 0.19875211948 0.20201374705 0.20597713945 0.21050144099 
0.21541096734 0.22051373519 0.22562231426 0.23057188695 0.23523190415 0.23950997843 0.2433487337 0.24671779626 0.24960378717 
0.25200103284 0.25390490632 0.25530857163 0.25620280756 0.25657784898 0.25642596028 0.25574371463 0.25453347831 0.25280408364 
0.25057087623 0.24785519005 0.24468299332 0.2410822318 0.23707851101 0.23268927524 0.227917399 0.22274576406 0.21713459008 
0.21102283442 0.20433399942 0.19698555998 0.18890037692 0.18001813974 0.17030506646 0.15976057173 0.14842016786 0.13635435352 
0.12366365025 0.11047030314 0.096907490286 0.08310718235 0.069188030741 0.055244807354 0.041340919065 0.027505304131 0.013734515364 
1.2371543113e-15 
_area 1 100 double
0 0.0007230757432 0.0028625061559 0.0063296380546 0.010980182156 0.016622111875 0.023029757974 0.029963404065 0.037191203493 
0.044508724243 0.051751501101 0.058797553565 0.065559389101 0.071967874377 0.077952803109 0.083426243645 0.088274195616 0.092359803364 
0.095538295727 0.09768099635 0.098703597401 0.098592444036 0.097422187404 0.095359513709 0.092650988528 0.089597491659 0.086521607061 
0.083741707763 0.081585761315 0.08030696339 0.079954562529 0.080459243549 0.081711332677 0.083538720839 0.085720792366 0.088034101148 
0.090244152513 0.092146489552 0.093625441752 0.094656627469 0.095301122405 0.095690854091 0.096003326942 0.096415083691 0.097053122102 
0.097980858671 0.099225556751 0.10085148598 0.10311389801 0.10601544483 0.10950528915 0.11369914638 0.1187063385 0.12456403083 
0.13116293092 0.13825022131 0.14550404955 0.15260080917 0.1592674829 0.16531402967 0.17063981542 0.17521846786 0.17907407852 
0.18226311251 0.18485801743 0.18687793449 0.18822418449 0.18876350814 0.18839811235 0.18707936246 0.18480690216 0.18162418239 
0.17761168169 0.17287605294 0.1675347425 0.16170081438 0.15547413716 0.14893774086 0.14215416634 0.13516129013 0.12797035711 
0.12056828197 0.11292497867 0.10500489507 0.0967800971 0.088242124537 0.079412250889 0.070351407229 0.061168256748 0.052020004228 
0.043101882484 0.034626981443 0.026802308096 0.019807363854 0.013779648345 0.0088091402822 0.0049417032854 0.0021896250922 0.00054614192946 
3.4789008821e-17 
