# vtk DataFile Version 5.1
vtk output
ASCII
DATASET POLYDATA
POINTS 100 float
0.130119 0.0382967 -0.649632 0.130081 0.0385461 -0.64956 0.130043 0.0391039 -0.649354 
0.130001 0.0399086 -0.648925 0.12994 0.040863 -0.648139 0.129836 0.0418419 -0.646827 
0.129654 0.0427028 -0.644809 0.129341 0.0432968 -0.641911 0.12883 0.0434805 -0.637986 
0.128034 0.0431268 -0.632929 0.126852 0.0421344 -0.626686 0.125173 0.0404342 -0.619257 
0.122883 0.0379941 -0.610697 0.119869 0.0348192 -0.601102 0.116032 0.0309507 -0.590601 
0.111297 0.0264608 -0.579334 0.105617 0.0214469 -0.56744 0.0989822 0.0160237 -0.555038 
0.0914229 0.0103155 -0.542217 0.0830102 0.00444823 -0.529026 0.073853 -0.0014572 -0.515477 
0.0640919 -0.00729009 -0.501544 0.0538895 -0.0129537 -0.487171 0.0434203 -0.0183672 -0.47229 
0.0328575 -0.0234655 -0.456823 0.0223622 -0.0281988 -0.440707 0.0120723 -0.0325303 -0.423894 
0.00209459 -0.0364338 -0.406362 -0.00749961 -0.0398918 -0.388122 -0.0166757 -0.0428928 -0.369208 
-0.0254326 -0.0454304 -0.349679 -0.0337968 -0.0475027 -0.329604 -0.0418125 -0.0491119 -0.309057 
-0.0495313 -0.0502652 -0.288106 -0.057 -0.0509752 -0.2668 -0.0642503 -0.051261 -0.245171 
-0.0712891 -0.0511481 -0.223226 -0.0780929 -0.0506689 -0.200953 -0.0846053 -0.0498609 -0.178325 
-0.0907378 -0.0487658 -0.15531 -0.0963752 -0.047427 -0.131879 -0.101384 -0.0458868 -0.108018 
-0.105623 -0.0441839 -0.0837359 -0.108955 -0.0423509 -0.0590693 -0.11126 -0.040412 -0.0340865 
-0.112443 -0.038383 -0.00888455 -0.112449 -0.0362703 0.0164159 -0.111262 -0.0340731 0.0416788 
-0.108908 -0.0317853 0.0667636 -0.105458 -0.0293989 0.0915351 -0.101018 -0.0269075 0.115874 
-0.0957189 -0.0243103 0.139683 -0.0897129 -0.0216153 0.162895 -0.0831558 -0.0188419 0.185468 
-0.0761978 -0.0160224 0.207388 -0.0689733 -0.0132018 0.228662 -0.0615924 -0.0104359 0.249309 
-0.0541354 -0.00778891 0.269353 -0.0466506 -0.0053291 0.288816 -0.0391553 -0.00312373 0.307711 
-0.0316392 -0.00123406 0.326038 -0.024071 0.000289547 0.343786 -0.0164056 0.00141182 0.360933 
-0.00859332 0.00211546 0.377452 -0.00058735 0.00240256 0.393317 0.00764825 0.00229438 0.408512 
0.0161331 0.00182947 0.423033 0.0248669 0.00106035 0.436896 0.0338279 4.91431e-05 0.450138 
0.0429742 -0.00113739 0.462816 0.052246 -0.00243292 0.475001 0.0615709 -0.00377625 0.486773 
0.0708685 -0.00511498 0.498212 0.0800565 -0.00640815 0.509389 0.0890562 -0.00762729 0.520358 
0.0977971 -0.00875607 0.531151 0.10622 -0.0097887 0.54177 0.114281 -0.0107272 0.552194 
0.121947 -0.0115782 0.562376 0.129204 -0.0123492 0.572253 0.136045 -0.0130457 0.58175 
0.142475 -0.0136686 0.590795 0.148506 -0.0142128 0.599322 0.15415 -0.0146671 0.607281 
0.159424 -0.015015 0.614646 0.164341 -0.015237 0.621409 0.168912 -0.0153138 0.627589 
0.173145 -0.0152292 0.633219 0.177042 -0.014974 0.638344 0.180606 -0.0145487 0.643013 
0.183835 -0.0139656 0.647269 0.186726 -0.0132497 0.651147 0.189277 -0.0124383 0.654662 
0.191486 -0.0115788 0.657815 0.19335 -0.0107261 0.660587 0.19487 -0.00993775 0.662948 
0.196047 -0.00927003 0.664857 0.196881 -0.00877271 0.666274 0.197373 -0.00848489 0.667163 
0.197523 -0.00843145 0.667501 
LINES 2 100
OFFSETS vtktypeint64
0 100 
CONNECTIVITY vtktypeint64
0 1 2 3 4 5 6 7 8 
9 10 11 12 13 14 15 16 17 
18 19 20 21 22 23 24 25 26 
27 28 29 30 31 32 33 34 35 
36 37 38 39 40 41 42 43 44 
45 46 47 48 49 50 51 52 53 
54 55 56 57 58 59 60 61 62 
63 64 65 66 67 68 69 70 71 
72 73 74 75 76 77 78 79 80 
81 82 83 84 85 86 87 88 89 
90 91 92 93 94 95 96 97 98 
99 
POINT_DATA 100
FIELD FieldData 3
_theta 1 100 double
0 0.031733259127 0.063466518254 0.095199777382 0.12693303651 0.15866629564 0.19039955476 0.22213281389 0.25386607302 
0.28559933214 0.31733259127 0.3490658504 0.38079910953 0.41253236865 0.44426562778 0.47599888691 0.50773214603 0.53946540516 
0.57119866429 0.60293192342 0.63466518254 0.66639844167 0.6981317008 0.72986495992 0.76159821905 0.79333147818 0.82506473731 
0.85679799643 0.88853125556 0.92026451469 0.95199777382 0.98373103294 1.0154642921 1.0471975512 1.0789308103 1.1106640695 
1.1423973286 1.1741305877 1.2058638468 1.237597106 1.2693303651 1.3010636242 1.3327968833 1.3645301425 1.3962634016 
1.4279966607 1.4597299198 1.491463179 1.5231964381 1.5549296972 1.5866629564 1.6183962155 1.6501294746 1.6818627337 
1.7135959929 1.745329252 1.7770625111 1.8087957702 1.8405290294 1.8722622885 1.9039955476 1.9357288068 1.9674620659 
1.999195325 2.0309285841 2.0626618433 2.0943951024 2.1261283615 2.1578616206 2.1895948798 2.2213281389 2.253061398 
2.2847946572 2.3165279163 2.3482611754 2.3799944345 2.4117276937 2.4434609528 2.4751942119 2.506927471 2.5386607302 
2.5703939893 2.6021272484 2.6338605076 2.6655937667 2.6973270258 2.7290602849 2.7607935441 2.7925268032 2.8242600623 
2.8559933214 2.8877265806 2.9194598397 2.9511930988 2.982926358 3.0146596171 3.0463928762 3.0781261353 3.1098593945 
3.1415926536 
_radius 1 100 double
1.3478075797e-15 0.015632572835 0.031174845502 0.046535106073 0.061620913984 0.076338808735 0.090594393773 0.10429319474 0.11734255361 
0.12965459144 0.14115005942 0.15176273079 0.16144384977 0.17016604677 0.17792608893 0.18474591262 0.19067160396 0.19577032311 
0.20012551811 0.20383103458 0.20698481759 0.20968281226 0.21201346444 0.21405300268 0.21586153658 0.21747999314 0.21892804796 
0.2202034302 0.22128313067 0.22212696112 0.2226835643 0.22289848673 0.22272350424 0.22212618271 0.22109866011 0.21966470936 
0.21788415396 0.21585370684 0.21370349694 0.21158909588 0.20967970828 0.20814410049 0.20713646154 0.20678434845 0.20718002506 
0.20837526826 0.21037892095 0.21315663359 0.21663298317 0.22069662363 0.22520880651 0.23001474022 0.23495641259 0.23988510437 
0.24467193778 0.24921526989 0.25344434232 0.25731918413 0.2608272429 0.26397754699 0.26679336083 0.2693043 0.27153876777 
0.27351742289 0.27524823394 0.27672352693 0.27791926278 0.27879656187 0.2793052251 0.27938871643 0.27898981971 0.27805601926 
0.27654364084 0.27441997977 0.27166304308 0.2682590729 0.26419856349 0.25947187792 0.25406568872 0.24796125935 0.2411350965 
0.23356187146 0.22521892678 0.21609133154 0.20617642205 0.19548703676 0.18405309076 0.17192155437 0.15915514811 0.14583007349 
0.13203292612 0.11785674682 0.10339613579 0.088741559365 0.07397334433 0.059156207999 0.04433534294 0.029534968088 0.014759881726 
1.0211197378e-15 
_area 1 100 double
0 0.00055426610105 0.002224424478 0.0050260634149 0.0089656833046 0.014018520085 0.020109006738 0.027099735564 0.034791488569 
0.042933928912 0.051244546099 0.059432314694 0.067222215475 0.074377213204 0.080715182861 0.086119260625 0.090541054191 0.093997247401 
0.096561431496 0.098353903658 0.099531589157 0.10027795636 0.10079068915 0.10126516931 0.10187432569 0.1027481646 0.10395762202 
0.10550677195 0.107335552 0.10933273289 0.11135606153 0.1132540405 0.11488349876 0.11612134946 0.11687586012 0.11710270831 
0.11682204609 0.11612798439 0.11518546097 0.1142133796 0.11345529575 0.11314440883 0.11347650173 0.11459977669 0.11661392412 
0.11956554389 0.12344108386 0.128169462 0.13363755693 0.13970894913 0.14623771142 0.15307567761 0.16007442977 0.16708425764 
0.17395334501 0.18053077873 0.18667583863 0.19227301855 0.19724821442 0.20157912505 0.20529415501 0.20845814845 0.21114796747 
0.21342484433 0.21531225443 0.21678607416 0.21777829192 0.2181901355 0.217908676 0.21682263722 0.21483568738 0.21187706652 
0.20790980609 0.20293634912 0.19700040399 0.19018311039 0.18259208522 0.17434409134 0.16554530664 0.15627591613 0.14658597515 
0.13650574049 0.12606688373 0.11532512563 0.1043740019 0.093344247886 0.082390416868 0.071671773569 0.061335886823 0.051510598382 
0.042304941589 0.033814989905 0.026129046017 0.01932854374 0.013484702363 0.0086537606032 0.0048741115675 0.0021671906613 0.00054181209099 
1.1303019932e-16 
