# vtk DataFile Version 5.1
vtk output
ASCII
DATASET POLYDATA
POINTS 100 float
0.142542 0.058689 -0.62582 0.142499 0.0585573 -0.625597 0.142397 0.0579948 -0.624893 
0.142225 0.0570171 -0.623676 0.14197 0.0556485 -0.621898 0.141608 0.0539185 -0.619508 
0.141108 0.0518567 -0.616455 0.14043 0.0494896 -0.612699 0.139523 0.0468362 -0.608221 
0.138329 0.0439055 -0.603024 0.136781 0.0406965 -0.597136 0.134805 0.0371985 -0.590603 
0.132323 0.0333941 -0.583488 0.129258 0.0292641 -0.575855 0.125535 0.024792 -0.567762 
0.121089 0.0199701 -0.55925 0.11587 0.0148046 -0.550332 0.109845 0.00931973 -0.540992 
0.103003 0.00356005 -0.531182 0.0953593 -0.00240884 -0.520827 0.0869544 -0.00850189 -0.509832 
0.0778541 -0.0146181 -0.498094 0.0681457 -0.0206456 -0.485517 0.0579337 -0.0264676 -0.472021 
0.0473325 -0.0319688 -0.457555 0.0364596 -0.0370419 -0.442105 0.0254272 -0.0415926 -0.425695 
0.0143352 -0.0455439 -0.408384 0.00326558 -0.0488387 -0.390258 -0.00772115 -0.0514406 -0.371422 
-0.0185867 -0.0533341 -0.351984 -0.0293123 -0.0545225 -0.332039 -0.039894 -0.055026 -0.311663 
-0.0503338 -0.0548792 -0.290898 -0.0606307 -0.0541282 -0.269755 -0.0707701 -0.0528286 -0.24821 
-0.0807145 -0.051044 -0.226214 -0.0903953 -0.0488436 -0.203708 -0.0997089 -0.046302 -0.180631 
-0.108516 -0.0434977 -0.156943 -0.116645 -0.0405113 -0.132634 -0.123902 -0.0374246 -0.107735 
-0.130082 -0.0343175 -0.0823263 -0.134986 -0.0312655 -0.0565355 -0.138437 -0.0283362 -0.0305308 
-0.140295 -0.0255862 -0.00450929 -0.140476 -0.0230575 0.0213189 -0.138956 -0.0207756 0.0467487 
-0.135786 -0.0187481 0.0715973 -0.13108 -0.0169648 0.0957191 -0.125019 -0.0154 0.119016 
-0.11783 -0.0140162 0.141441 -0.109774 -0.0127684 0.162999 -0.101125 -0.0116107 0.183735 
-0.092144 -0.0105023 0.203725 -0.0830659 -0.00941272 0.223059 -0.0740769 -0.00832672 0.241826 
-0.065305 -0.00724679 0.2601 -0.0568136 -0.0061936 0.27793 -0.0486029 -0.00520413 0.295333 
-0.0406173 -0.00432748 0.312298 -0.0327586 -0.00361904 0.328789 -0.0249035 -0.00313339 0.344759 
-0.016923 -0.00291715 0.360159 -0.00870169 -0.00300239 0.374957 -0.0001551 -0.00340162 0.38915 
0.00875762 -0.00410505 0.402767 0.0180259 -0.00508034 0.415879 0.0275866 -0.00627525 0.42859 
0.0373282 -0.00762255 0.441033 0.0471016 -0.00904686 0.45335 0.0567335 -0.0104725 0.465677 
0.0660435 -0.0118311 0.478127 0.07486 -0.0130689 0.490771 0.0830363 -0.0141512 0.503625 
0.0904614 -0.0150648 0.516647 0.0970683 -0.0158182 0.529732 0.102836 -0.0164378 0.542727 
0.107786 -0.0169626 0.555439 0.111979 -0.0174374 0.567662 0.115497 -0.0179051 0.579192 
0.118442 -0.0183992 0.589854 0.120915 -0.0189383 0.599521 0.123009 -0.0195229 0.608123 
0.124801 -0.0201341 0.615656 0.126348 -0.0207363 0.62218 0.127685 -0.0212818 0.627807 
0.128827 -0.0217177 0.63269 0.129774 -0.0219942 0.636995 0.13052 -0.0220718 0.640886 
0.13106 -0.0219288 0.644502 0.131394 -0.0215658 0.647939 0.131533 -0.0210075 0.651243 
0.131504 -0.0203019 0.654407 0.131346 -0.0195159 0.657371 0.131106 -0.0187283 0.660043 
0.130838 -0.0180215 0.662305 0.130592 -0.0174721 0.66404 0.130413 -0.0171419 0.665148 
0.130327 -0.0170709 0.66556 
LINES 2 100
OFFSETS vtktypeint64
0 100 
CONNECTIVITY vtktypeint64
0 1 2 3 4 5 6 7 8 
9 10 11 12 13 14 15 16 17 
18 19 20 21 22 23 24 25 26 
27 28 29 30 31 32 33 34 35 
36 37 38 39 40 41 42 43 44 
45 46 47 48 49 50 51 52 53 
54 55 56 57 58 59 60 61 62 
63 64 65 66 67 68 69 70 71 
72 73 74 75 76 77 78 79 80 
81 82 83 84 85 86 87 88 89 
90 91 92 93 94 95 96 97 98 
99 
POINT_DATA 100
FIELD FieldData 3
_theta 1 100 double
0 0.031733259127 0.063466518254 0.095199777382 0.12693303651 0.15866629564 0.19039955476 0.22213281389 0.25386607302 
0.28559933214 0.31733259127 0.3490658504 0.38079910953 0.41253236865 0.44426562778 0.47599888691 0.50773214603 0.53946540516 
0.57119866429 0.60293192342 0.63466518254 0.66639844167 0.6981317008 0.72986495992 0.76159821905 0.79333147818 0.82506473731 
0.85679799643 0.88853125556 0.92026451469 0.95199777382 0.98373103294 1.0154642921 1.0471975512 1.0789308103 1.1106640695 
1.1423973286 1.1741305877 1.2058638468 1.237597106 1.2693303651 1.3010636242 1.3327968833 1.3645301425 1.3962634016 
1.4279966607 1.4597299198 1.491463179 1.5231964381 1.5549296972 1.5866629564 1.6183962155 1.6501294746 1.6818627337 
1.7135959929 1.745329252 1.7770625111 1.8087957702 1.8405290294 1.8722622885 1.9039955476 1.9357288068 1.9674620659 
1.999195325 2.0309285841 2.0626618433 2.0943951024 2.1261283615 2.1578616206 2.1895948798 2.2213281389 2.253061398 
2.2847946572 2.3165279163 2.3482611754 2.3799944345 2.4117276937 2.4434609528 2.4751942119 2.506927471 2.5386607302 
2.5703939893 2.6021272484 2.6338605076 2.6655937667 2.6973270258 2.7290602849 2.7607935441 2.7925268032 2.8242600623 
2.8559933214 2.8877265806 2.9194598397 2.9511930988 2.982926358 3.0146596171 3.0463928762 3.0781261353 3.1098593945 
3.1415926536 
_radius 1 100 double
1.3880563088e-15 0.014729961432 0.029325380646 0.043658598502 0.057624939508 0.071149034018 0.084185957794 0.096717186729 0.10874228208 
0.12026785508 0.13129563121 0.14181140347 0.15177647748 0.16112298891 0.16975421986 0.17755063488 0.18438166448 0.19012227643 
0.19467228488 0.19797547773 0.20003529309 0.20092409061 0.2007839958 0.19981863685 0.19827655246 0.19642831517 0.19454025596 
0.19284800889 0.19153301156 0.19070477686 0.19039127839 0.19053906216 0.19102355552 0.19166861796 0.19227316615 0.19264206606 
0.19261796388 0.19210966761 0.19111176125 0.18971089144 0.18807699782 0.18644160413 0.18506871022 0.18422530993 0.18415686689 
0.18506870979 0.18711036183 0.19035978745 0.19480856802 0.200353242 0.20679836234 0.21387302418 0.22125802542 0.22861834634 
0.23563553235 0.24203565572 0.24760991002 0.25222626447 0.25583190416 0.25844729782 0.26015353721 0.26107503029 0.2613597694 
0.26115935896 0.260610876 0.25982247386 0.25886435082 0.25776614578 0.25652088883 0.25509441743 0.25343802442 0.25150146823 
0.24924358584 0.24663851782 0.24367669842 0.24036097676 0.23669924726 0.23269556201 0.22834177624 0.22361141716 0.21845686799 
0.212810326 0.20658843242 0.19970000413 0.19205592402 0.18357999184 0.17421941099 0.16395355798 0.15279972742 0.14081472488 
0.1280916139 0.11475165636 0.10093239015 0.086773613976 0.072403539595 0.057927374683 0.04342011093 0.028924452531 0.014453874424 
7.6524108158e-16 
_area 1 100 double
0 0.00054199878093 0.0021476043368 0.0047590791578 0.0082904013674 0.012638770532 0.01769484367 0.023349091992 0.029493722612 
0.036021318065 0.042821738927 0.049778071322 0.056761582242 0.063625890213 0.070202136725 0.076298827067 0.081710349508 0.086235903839 
0.089706553353 0.092014462884 0.093136773583 0.093147409238 0.092212913548 0.090572592292 0.088508049376 0.086309516729 0.084241075328 
0.082505302794 0.081230159114 0.080489409644 0.080321537101 0.080729302122 0.08167077992 0.083052003048 0.084725062443 0.08649995681 
0.088183020868 0.089632185356 0.090798856989 0.091733320791 0.092548368394 0.093365078494 0.094285340716 0.095408052141 0.096864070315 
0.098838928118 0.10156695494 0.1052937775 0.11021494229 0.11641069978 0.12380734924 0.13218139595 0.14119129156 0.15041667948 
0.15940087942 0.16769821877 0.17492281253 0.18079052407 0.18514710299 0.18798699409 0.18947530912 0.18985630279 0.18945719155 
0.18823094391 0.18644561498 0.18428129043 0.1818197771 0.17907976944 0.17605217252 0.17273239886 0.16913204193 0.16523586943 
0.16100168748 0.15643388622 0.15158758591 0.14653202855 0.14131947612 0.13596885155 0.13046091405 0.1247395786 0.11871957055 
0.11230412751 0.10541095433 0.097997083452 0.090073259165 0.081705298794 0.073006433661 0.064126356356 0.055240336535 0.046538597488 
0.038214619324 0.030451582169 0.023408068183 0.017206217153 0.011926167432 0.0076087991753 0.0042654006378 0.0018902098317 0.00047163962824 
3.5829996899e-17 
