# vtk DataFile Version 5.1
vtk output
ASCII
DATASET POLYDATA
POINTS 100 float
0.100856 0.0433953 -0.61634 0.100871 0.0433975 -0.616491 0.100975 0.0432387 -0.616907 
0.101163 0.0429195 -0.617485 0.10142 0.0424399 -0.618064 0.101726 0.0417969 -0.618443 
0.102053 0.0409831 -0.618401 0.102363 0.0399843 -0.617717 0.102607 0.0387787 -0.616193 
0.102724 0.0373361 -0.613671 0.102644 0.0356194 -0.610044 0.102286 0.0335863 -0.605267 
0.101563 0.0311931 -0.599352 0.100382 0.0283987 -0.592367 0.0986521 0.0251702 -0.584417 
0.0962888 0.0214872 -0.575638 0.0932183 0.017347 -0.566169 0.0893843 0.0127677 -0.556144 
0.0847534 0.00779005 -0.545672 0.079319 0.00247811 -0.534826 0.0731039 -0.00308321 -0.52364 
0.0661612 -0.0087917 -0.512106 0.0585717 -0.0145334 -0.50018 0.0504408 -0.0201891 -0.487788 
0.0418912 -0.0256418 -0.474842 0.0330555 -0.0307841 -0.461252 0.0240667 -0.0355238 -0.446936 
0.015049 -0.0397901 -0.43183 0.00610882 -0.0435358 -0.415903 -0.0026721 -0.0467391 -0.399148 
-0.0112413 -0.0494023 -0.381594 -0.0195774 -0.0515485 -0.363292 -0.0276877 -0.0532172 -0.344313 
-0.0356039 -0.0544579 -0.324735 -0.0433732 -0.0553243 -0.304636 -0.0510484 -0.0558676 -0.284088 
-0.0586764 -0.0561314 -0.263144 -0.0662869 -0.0561477 -0.241839 -0.0738826 -0.0559346 -0.220191 
-0.0814315 -0.0554958 -0.1982 -0.088863 -0.0548226 -0.175856 -0.0960683 -0.0538966 -0.153146 
-0.102904 -0.0526943 -0.130061 -0.109203 -0.0511926 -0.106605 -0.11478 -0.0493731 -0.0827997 
-0.119453 -0.0472276 -0.0586891 -0.123052 -0.0447614 -0.0343403 -0.125434 -0.0419954 -0.00984224 
-0.126495 -0.038967 0.0146984 -0.126179 -0.0357286 0.0391635 -0.124481 -0.0323451 0.0634301 
-0.121447 -0.0288902 0.0873779 -0.11717 -0.0254413 0.110896 -0.11178 -0.0220749 0.133886 
-0.105434 -0.0188613 0.156271 -0.0983064 -0.0158612 0.17799 -0.0905687 -0.0131223 0.199001 
-0.0823842 -0.0106775 0.219282 -0.0738957 -0.00854509 0.238823 -0.06522 -0.00672932 0.257625 
-0.0564445 -0.00522288 0.275697 -0.0476287 -0.00400983 0.293056 -0.0388075 -0.00306897 0.309721 
-0.0299974 -0.00237723 0.325718 -0.0212042 -0.0019127 0.341078 -0.0124301 -0.00165681 0.355838 
-0.00368062 -0.00159577 0.370044 0.00503056 -0.0017208 0.383751 0.0136792 -0.00202749 0.397021 
0.0222303 -0.00251431 0.409926 0.0306405 -0.00318053 0.422541 0.0388623 -0.00402393 0.434939 
0.0468489 -0.0050385 0.44719 0.0545601 -0.00621266 0.459352 0.0619664 -0.00752799 0.471463 
0.0690524 -0.00895885 0.483542 0.0758178 -0.0104729 0.495579 0.0822765 -0.0120324 0.507538 
0.0884534 -0.0135962 0.519355 0.0943793 -0.0151222 0.530943 0.100085 -0.0165704 0.542195 
0.105598 -0.0179048 0.552996 0.110931 -0.0190964 0.563224 0.116087 -0.0201245 0.572765 
0.121051 -0.0209776 0.581518 0.125793 -0.0216537 0.589405 0.130272 -0.0221596 0.596372 
0.134442 -0.0225098 0.602395 0.138252 -0.0227243 0.607483 0.141661 -0.0228269 0.611673 
0.144636 -0.0228432 0.615027 0.147164 -0.0227982 0.617631 0.149246 -0.0227154 0.619585 
0.150904 -0.022615 0.620997 0.152175 -0.0225138 0.621976 0.153106 -0.0224248 0.622626 
0.15375 -0.0223578 0.623042 0.154157 -0.0223192 0.623301 0.154369 -0.0223134 0.623459 
0.154414 -0.022343 0.623552 
LINES 2 100
OFFSETS vtktypeint64
0 100 
CONNECTIVITY vtktypeint64
0 1 2 3 4 5 6 7 8 
9 10 11 12 13 14 15 16 17 
18 19 20 21 22 23 24 25 26 
27 28 29 30 31 32 33 34 35 
36 37 38 39 40 41 42 43 44 
45 46 47 48 49 50 51 52 53 
54 55 56 57 58 59 60 61 62 
63 64 65 66 67 68 69 70 71 
72 73 74 75 76 77 78 79 80 
81 82 83 84 85 86 87 88 89 
90 91 92 93 94 95 96 97 98 
99 
POINT_DATA 100
FIELD FieldData 3
_theta 1 100 double
0 0.031733259127 0.063466518254 0.095199777382 0.12693303651 0.15866629564 0.19039955476 0.22213281389 0.25386607302 
0.28559933214 0.31733259127 0.3490658504 0.38079910953 0.41253236865 0.44426562778 0.47599888691 0.50773214603 0.53946540516 
0.57119866429 0.60293192342 0.63466518254 0.66639844167 0.6981317008 0.72986495992 0.76159821905 0.79333147818 0.82506473731 
0.85679799643 0.88853125556 0.92026451469 0.95199777382 0.98373103294 1.0154642921 1.0471975512 1.0789308103 1.1106640695 
1.1423973286 1.1741305877 1.2058638468 1.237597106 1.2693303651 1.3010636242 1.3327968833 1.3645301425 1.3962634016 
1.4279966607 1.4597299198 1.491463179 1.5231964381 1.5549296972 1.5866629564 1.6183962155 1.6501294746 1.6818627337 
1.7135959929 1.745329252 1.7770625111 1.8087957702 1.8405290294 1.8722622885 1.9039955476 1.9357288068 1.9674620659 
1.999195325 2.0309285841 2.0626618433 2.0943951024 2.1261283615 2.1578616206 2.1895948798 2.2213281389 2.253061398 
2.2847946572 2.3165279163 2.3482611754 2.3799944345 2.4117276937 2.4434609528 2.4751942119 2.506927471 2.5386607302 
2.5703939893 2.6021272484 2.6338605076 2.6655937667 2.6973270258 2.7290602849 2.7607935441 2.7925268032 2.8242600623 
2.8559933214 2.8877265806 2.9194598397 2.9511930988 2.982926358 3.0146596171 3.0463928762 3.0781261353 3.1098593945 
3.1415926536 
_radius 1 100 double
7.8614942546e-16 0.014860326551 0.029625645098 0.044198509681 0.058482915016 0.072385838994 0.085819307925 0.09870264813 0.11096437965 
0.12254324708 0.13338814851 0.1434570844 0.1527155612 0.16113505832 0.16869217093 0.17536889477 0.1811542614 0.18604720583 
0.19006019669 0.19322284401 0.19558450624 0.19721493835 0.19820232144 0.19864857339 0.19866252563 0.19835212108 0.19781699677 
0.19714255779 0.19639607002 0.1956247035 0.19485511789 0.19409416288 0.19333045536 0.19253685349 0.191674146 0.1906965722 
0.18955971321 0.18823032733 0.18669617353 0.18497307991 0.18310719626 0.18117195617 0.17926086519 0.17747833435 0.17593113188 
0.17472240696 0.17394868078 0.17369833393 0.17404903924 0.17506213402 0.17677396776 0.17918664718 0.18226178617 0.18591999485 
0.19004651572 0.19450123756 0.19913044916 0.20377807354 0.20829503319 0.21254627486 0.21641561595 0.21980891421 0.2226561104 
0.22491251234 0.22655939279 0.22760368748 0.22807639311 0.22802922468 0.22752922139 0.22665131948 0.22546947564 0.2240476546 
0.22243250785 0.22064924732 0.21870093451 0.21657005339 0.2142208557 0.21160156908 0.20864639005 0.20527771034 0.2014091868 
0.19695017034 0.19181171052 0.18591386773 0.17919348983 0.17161114819 0.1631557906 0.1538459541 0.14372705955 0.13286524854 
0.12133917655 0.10923176072 0.09662374062 0.083590064206 0.070199041502 0.056513465717 0.042592670662 0.028494622913 0.014277432641 
1.5137229897e-15 
_area 1 100 double
0 0.00048358621676 0.0019412971397 0.0043896248139 0.0078403729103 0.012278180221 0.01763882746 0.023798648044 0.030578568173 
0.037759399275 0.045102306197 0.052368835596 0.059336799285 0.065810681887 0.071627270888 0.076658161797 0.080810696771 0.084028510539 
0.086292516788 0.08762247199 0.088078147241 0.087758376314 0.086796547039 0.085352324136 0.08360061622 0.081718931658 0.07987271192 
0.078196994616 0.076771364717 0.075614924406 0.074740126477 0.074183514373 0.073997683302 0.07414365039 0.074449768797 0.074731130055 
0.074846838227 0.07471964224 0.074349752041 0.073818955954 0.073276639734 0.07290222806 0.072869053824 0.073282199387 0.074027502875 
0.074969732601 0.076036527307 0.077213902111 0.078543045779 0.080116109006 0.082064853362 0.084534138248 0.08764284745 0.091450068943 
0.095941449451 0.10103098356 0.10656964957 0.11235678098 0.11815357614 0.12370170973 0.12874805859 0.13307210245 0.13651026142 
0.13897225647 0.14044720326 0.14099940153 0.14075338753 0.13986513496 0.13848124755 0.13670809404 0.13461273322 0.13224097209 
0.12962758501 0.12679612589 0.12375764701 0.12051350123 0.11706034632 0.11339266286 0.10949968582 0.10535706864 0.10091736165 
0.096106790416 0.0908360016 0.085026016128 0.078640703597 0.071712377188 0.064350695245 0.056731974906 0.049071681916 0.041587020853 
0.034460856083 0.027821776739 0.021750151018 0.016302215035 0.011532272106 0.0075016681267 0.0042764149761 0.0019195510396 0.00048281754354 
5.7367423905e-17 
