# vtk DataFile Version 5.1
vtk output
ASCII
DATASET POLYDATA
POINTS 100 float
0.139251 0.068465 -0.634169 0.139296 0.0685404 -0.634766 0.139457 0.0686284 -0.636513 
0.139706 0.068708 -0.639195 0.139998 0.0687438 -0.642479 0.140278 0.0686877 -0.645952 
0.140485 0.0684814 -0.649155 0.140556 0.0680584 -0.651631 0.140432 0.0673476 -0.652969 
0.140059 0.0662765 -0.652838 0.139392 0.0647753 -0.65101 0.138387 0.0627805 -0.647378 
0.137008 0.0602385 -0.641952 0.135214 0.0571089 -0.634844 0.132961 0.0533673 -0.626249 
0.130201 0.0490071 -0.616409 0.126873 0.044041 -0.605583 0.122914 0.0385009 -0.594014 
0.118257 0.0324377 -0.5819 0.112837 0.0259199 -0.569379 0.1066 0.0190317 -0.556518 
0.0995117 0.0118706 -0.543315 0.091565 0.00454443 -0.529711 0.0827847 -0.00283139 -0.515609 
0.0732319 -0.0101368 -0.500894 0.063003 -0.0172503 -0.485455 0.0522261 -0.0240513 -0.469209 
0.0410524 -0.0304238 -0.45211 0.0296461 -0.0362582 -0.434162 0.0181714 -0.041455 -0.415411 
0.00678068 -0.045927 -0.395943 -0.0043968 -0.0496026 -0.375867 -0.0152628 -0.0524286 -0.3553 
-0.0257535 -0.0543728 -0.334343 -0.0358386 -0.0554266 -0.313073 -0.0455153 -0.055606 -0.291526 
-0.0547983 -0.0549532 -0.269698 -0.0637065 -0.0535355 -0.247539 -0.0722498 -0.0514437 -0.224973 
-0.0804152 -0.0487887 -0.201904 -0.0881576 -0.0456969 -0.178239 -0.0953934 -0.0423035 -0.153905 
-0.102001 -0.038746 -0.128866 -0.107826 -0.0351567 -0.103136 -0.112694 -0.031655 -0.0767858 
-0.116426 -0.028341 -0.0499409 -0.118856 -0.0252903 -0.0227754 -0.119853 -0.0225508 0.00450253 
-0.119334 -0.0201419 0.031668 -0.117277 -0.0180555 0.058499 -0.113733 -0.0162603 0.0847956 
-0.108818 -0.0147072 0.110395 -0.102709 -0.0133369 0.135183 -0.0956319 -0.0120877 0.159098 
-0.087838 -0.0109034 0.18213 -0.0795846 -0.00974009 0.204311 -0.0711124 -0.00857149 0.225707 
-0.0626252 -0.00739195 0.246401 -0.0542751 -0.00621687 0.266476 -0.0461528 -0.00508057 0.286007 
-0.0382871 -0.00403194 0.305049 -0.0306493 -0.00312826 0.323632 -0.0231665 -0.00242804 0.341761 
-0.0157378 -0.00198368 0.359423 -0.00825388 -0.00183485 0.376593 -0.000616852 -0.00200342 0.393247 
0.00724307 -0.00249042 0.40937 0.0153548 -0.00327545 0.424965 0.0236996 -0.00431861 0.440058 
0.0322116 -0.00556466 0.454702 0.0407835 -0.00694875 0.468967 0.0492786 -0.00840328 0.48294 
0.0575463 -0.00986472 0.496707 0.0654385 -0.0112798 0.510345 0.072826 -0.0126101 0.523909 
0.0796115 -0.013835 0.537422 0.0857386 -0.0149514 0.550866 0.0911948 -0.0159725 0.564187 
0.0960095 -0.0169236 0.577292 0.100246 -0.0178367 0.590061 0.103992 -0.0187448 0.602357 
0.107344 -0.0196758 0.61404 0.110395 -0.020648 0.624982 0.113223 -0.0216662 0.635079 
0.115883 -0.0227211 0.64426 0.118401 -0.0237896 0.652493 0.120776 -0.0248379 0.659785 
0.122983 -0.0258258 0.666181 0.124983 -0.0267125 0.67175 0.126733 -0.0274618 0.676581 
0.128195 -0.0280478 0.680767 0.129344 -0.0284582 0.684396 0.130178 -0.0286966 0.687543 
0.130717 -0.0287825 0.690263 0.131004 -0.0287489 0.692589 0.131098 -0.0286386 0.694533 
0.131067 -0.0284985 0.69609 0.130978 -0.0283741 0.697248 0.130887 -0.0283031 0.697989 
0.130833 -0.0283113 0.698299 
LINES 2 100
OFFSETS vtktypeint64
0 100 
CONNECTIVITY vtktypeint64
0 1 2 3 4 5 6 7 8 
9 10 11 12 13 14 15 16 17 
18 19 20 21 22 23 24 25 26 
27 28 29 30 31 32 33 34 35 
36 37 38 39 40 41 42 43 44 
45 46 47 48 49 50 51 52 53 
54 55 56 57 58 59 60 61 62 
63 64 65 66 67 68 69 70 71 
72 73 74 75 76 77 78 79 80 
81 82 83 84 85 86 87 88 89 
90 91 92 93 94 95 96 97 98 
99 
POINT_DATA 100
FIELD FieldData 3
_theta 1 100 double
0 0.031733259127 0.063466518254 0.095199777382 0.12693303651 0.15866629564 0.19039955476 0.22213281389 0.25386607302 
0.28559933214 0.31733259127 0.3490658504 0.38079910953 0.41253236865 0.44426562778 0.47599888691 0.50773214603 0.53946540516 
0.57119866429 0.60293192342 0.63466518254 0.66639844167 0.6981317008 0.72986495992 0.76159821905 0.79333147818 0.82506473731 
0.85679799643 0.88853125556 0.92026451469 0.95199777382 0.98373103294 1.0154642921 1.0471975512 1.0789308103 1.1106640695 
1.1423973286 1.1741305877 1.2058638468 1.237597106 1.2693303651 1.3010636242 1.3327968833 1.3645301425 1.3962634016 
1.4279966607 1.4597299198 1.491463179 1.5231964381 1.5549296972 1.5866629564 1.6183962155 1.6501294746 1.6818627337 
1.7135959929 1.745329252 1.7770625111 1.8087957702 1.8405290294 1.8722622885 1.9039955476 1.9357288068 1.9674620659 
1.999195325 2.0309285841 2.0626618433 2.0943951024 2.1261283615 2.1578616206 2.1895948798 2.2213281389 2.253061398 
2.2847946572 2.3165279163 2.3482611754 2.3799944345 2.4117276937 2.4434609528 2.4751942119 2.506927471 2.5386607302 
2.5703939893 2.6021272484 2.6338605076 2.6655937667 2.6973270258 2.7290602849 2.7607935441 2.7925268032 2.8242600623 
2.8559933214 2.8877265806 2.9194598397 2.9511930988 2.982926358 3.0146596171 3.0463928762 3.0781261353 3.1098593945 
3.1415926536 
_radius 1 100 double
5.8286708793e-16 0.016821078274 0.033521854827 0.049978761588 0.0660686903 0.081673094476 0.096683452819 0.11100597513 0.12456397808 
0.1372974282 0.14916010297 0.16011536914 0.17013171885 0.17917909481 0.18722685909 0.19424409083 0.20020267012 0.20508319268 
0.2088831284 0.21162592121 0.21336918067 0.21420995932 0.21428541827 0.21376787106 0.21285409939 0.21174981385 0.21065108043 
0.20972531664 0.20909485728 0.20882586356 0.20892443107 0.20934037406 0.20997776072 0.21071023163 0.21139863274 0.21190859192 
0.21212636446 0.21197228724 0.21141175765 0.21046319351 0.2092014414 0.20775479435 0.20629473589 0.20501932207 0.20413288664 
0.20382561202 0.20425587436 0.2055365227 0.20772482974 0.21081599759 0.21474139241 0.21937334912 0.22453728124 0.23002961304 
0.23563829185 0.241162241 0.24642687844 0.25129408418 0.25566623556 0.25948490746 0.26272548814 0.26538929505 0.26749482711 
0.26906960519 0.27014367078 0.27074528797 0.27089883324 0.27062440927 0.26993849543 0.26885496431 0.26738596833 0.26554240995 
0.26333384438 0.26076766391 0.25784732657 0.2545693812 0.25091929889 0.24686668493 0.24236112512 0.2373303786 0.2316825632 
0.2253132676 0.21811730062 0.21000342432 0.20090938889 0.19081425383 0.17974543316 0.16777896542 0.15503286813 0.14165477193 
0.12780608526 0.11364552108 0.099314776005 0.084928432358 0.070568927898 0.056286166764 0.042100540748 0.028007985774 0.01398600391 
1.0375187282e-15 
_area 1 100 double
0 0.00052486313173 0.0021466729879 0.0049805103485 0.0091462096526 0.014704952015 0.021620669185 0.029748316267 0.038840653938 
0.048566056343 0.05853361337 0.068324358476 0.077527556113 0.08577893395 0.092795091808 0.098396947486 0.10251613105 0.10518200303 
0.10649357223 0.1065887334 0.10562675857 0.10379152981 0.10130702067 0.098447691549 0.095530030344 0.092880307123 0.090786132666 
0.089455680954 0.089000075066 0.089421802803 0.090610012951 0.092378174338 0.094527975612 0.096893438671 0.099355785972 0.10183350253 
0.10425770509 0.10655164701 0.10862591747 0.11039355872 0.1118011068 0.11286038956 0.11366265658 0.11436572564 0.11515563759 
0.11621209281 0.11770507931 0.11980506126 0.1226855687 0.12650019942 0.13133344299 0.13715558865 0.14381582053 0.15107236918 
0.1586341448 0.16619678159 0.17347090555 0.1802049138 0.18620209693 0.19132948173 0.19551680385 0.19874819838 0.20105264518 
0.20249971989 0.20321038329 0.20335367338 0.2029133671 0.20179729814 0.19994993461 0.1973481793 0.19400746344 0.18998570768 
0.18537911222 0.18030822806 0.17489556648 0.16923893647 0.16338784474 0.15733102332 0.15099957075 0.14428461245 0.13706437805 
0.12923431351 0.12073453407 0.1115701628 0.10182101418 0.091638114893 0.081226745513 0.070819424461 0.060646238016 0.050911201821 
0.041780008949 0.033378869593 0.025800507716 0.019112968021 0.013367996082 0.0086071259067 0.0048649287795 0.002169866133 0.00054364489378 
6.6800403045e-17 
