# vtk DataFile Version 5.1
vtk output
ASCII
DATASET POLYDATA
POINTS 100 float
0.0955944 0.0621663 -0.63993 0.095574 0.0621804 -0.639965 0.0955093 0.0620597 -0.640115 
0.0953794 0.0618024 -0.64028 0.0951515 0.0614037 -0.640303 0.0947842 0.0608535 -0.639993 
0.0942314 0.0601345 -0.639142 0.0934461 0.0592208 -0.637551 0.0923837 0.0580768 -0.635051 
0.091005 0.056657 -0.631524 0.0892776 0.0549076 -0.626905 0.0871758 0.0527688 -0.621196 
0.0846798 0.0501797 -0.614454 0.0817745 0.0470825 -0.606782 0.0784469 0.043429 -0.598313 
0.0746853 0.0391865 -0.589186 0.0704778 0.0343435 -0.579532 0.065813 0.0289143 -0.56945 
0.0606812 0.022942 -0.558998 0.0550777 0.0164999 -0.548183 0.0490056 0.00968943 -0.536964 
0.0424808 0.00263742 -0.525256 0.0355347 -0.00451035 -0.512947 0.0282173 -0.0115965 -0.499908 
0.0205977 -0.0184609 -0.486019 0.0127631 -0.0249502 -0.471179 0.00481485 -0.0309265 -0.455327 
-0.00313721 -0.0362755 -0.438445 -0.0109824 -0.0409129 -0.420563 -0.0186174 -0.0447877 -0.401758 
-0.025955 -0.047884 -0.382142 -0.0329311 -0.050219 -0.361849 -0.0395096 -0.0518395 -0.341019 
-0.0456852 -0.0528151 -0.319784 -0.0514811 -0.0532311 -0.298253 -0.0569452 -0.0531799 -0.2765 
-0.0621413 -0.0527527 -0.254563 -0.0671389 -0.0520321 -0.232442 -0.0720019 -0.0510863 -0.210107 
-0.0767768 -0.0499655 -0.187508 -0.0814826 -0.0487001 -0.164589 -0.0861034 -0.0473019 -0.141303 
-0.0905855 -0.0457673 -0.117625 -0.094837 -0.0440817 -0.0935602 -0.0987341 -0.0422256 -0.0691548 
-0.102129 -0.0401806 -0.044492 -0.104864 -0.0379355 -0.0196901 -0.106782 -0.0354907 0.00510684 
-0.107743 -0.0328615 0.0297416 -0.107637 -0.0300794 0.0540569 -0.106394 -0.0271915 0.0779098 
-0.103989 -0.0242572 0.101183 -0.100445 -0.0213449 0.123792 -0.0958294 -0.0185261 0.145692 
-0.0902513 -0.01587 0.166875 -0.0838471 -0.0134384 0.187366 -0.076771 -0.0112807 0.207213 
-0.0691826 -0.00943107 0.226484 -0.0612349 -0.00790695 0.245246 -0.0530649 -0.00670924 0.263563 
-0.0447866 -0.0058243 0.281489 -0.0364883 -0.00522734 0.299058 -0.028232 -0.00488668 0.316288 
-0.0200574 -0.00476837 0.333182 -0.0119872 -0.00484069 0.349731 -0.00403395 -0.00507785 0.365923 
0.00379268 -0.00546252 0.381747 0.0114796 -0.00598696 0.397201 0.0190061 -0.00665258 0.412294 
0.0263409 -0.00746816 0.427044 0.033443 -0.00844691 0.441483 0.040264 -0.00960282 0.455644 
0.0467521 -0.0109469 0.469561 0.0528575 -0.0124835 0.48326 0.058538 -0.0142078 0.49675 
0.0637633 -0.0161041 0.51002 0.0685184 -0.0181458 0.523033 0.0728049 -0.0202961 0.53573 
0.0766399 -0.0225107 0.548032 0.0800537 -0.024741 0.559844 0.0830849 -0.0269379 0.571066 
0.0857759 -0.0290558 0.581604 0.0881674 -0.0310556 0.591375 0.0902941 -0.0329079 0.600317 
0.0921816 -0.0345943 0.608398 0.093845 -0.0361077 0.615615 0.0952901 -0.0374513 0.621993 
0.0965151 -0.0386369 0.627583 0.0975148 -0.039682 0.632454 0.098285 -0.0406067 0.636687 
0.0988268 -0.0414309 0.640362 0.0991503 -0.0421713 0.643555 0.0992767 -0.04284 0.646327 
0.0992386 -0.0434431 0.648724 0.0990786 -0.0439811 0.650773 0.0988457 -0.0444496 0.652485 
0.0985908 -0.0448411 0.653856 0.0983614 -0.045147 0.654878 0.098196 -0.0453594 0.655536 
0.0981199 -0.0454733 0.655821 
LINES 2 100
OFFSETS vtktypeint64
0 100 
CONNECTIVITY vtktypeint64
0 1 2 3 4 5 6 7 8 
9 10 11 12 13 14 15 16 17 
18 19 20 21 22 23 24 25 26 
27 28 29 30 31 32 33 34 35 
36 37 38 39 40 41 42 43 44 
45 46 47 48 49 50 51 52 53 
54 55 56 57 58 59 60 61 62 
63 64 65 66 67 68 69 70 71 
72 73 74 75 76 77 78 79 80 
81 82 83 84 85 86 87 88 89 
90 91 92 93 94 95 96 97 98 
99 
POINT_DATA 100
FIELD FieldData 3
_theta 1 100 double
0 0.031733259127 0.063466518254 0.095199777382 0.12693303651 0.15866629564 0.19039955476 0.22213281389 0.25386607302 
0.28559933214 0.31733259127 0.3490658504 0.38079910953 0.41253236865 0.44426562778 0.47599888691 0.50773214603 0.53946540516 
0.57119866429 0.60293192342 0.63466518254 0.66639844167 0.6981317008 0.72986495992 0.76159821905 0.79333147818 0.82506473731 
0.85679799643 0.88853125556 0.92026451469 0.95199777382 0.98373103294 1.0154642921 1.0471975512 1.0789308103 1.1106640695 
1.1423973286 1.1741305877 1.2058638468 1.237597106 1.2693303651 1.3010636242 1.3327968833 1.3645301425 1.3962634016 
1.4279966607 1.4597299198 1.491463179 1.5231964381 1.5549296972 1.5866629564 1.6183962155 1.6501294746 1.6818627337 
1.7135959929 1.745329252 1.7770625111 1.8087957702 1.8405290294 1.8722622885 1.9039955476 1.9357288068 1.9674620659 
1.999195325 2.0309285841 2.0626618433 2.0943951024 2.1261283615 2.1578616206 2.1895948798 2.2213281389 2.253061398 
2.2847946572 2.3165279163 2.3482611754 2.3799944345 2.4117276937 2.4434609528 2.4751942119 2.506927471 2.5386607302 
2.5703939893 2.6021272484 2.6338605076 2.6655937667 2.6973270258 2.7290602849 2.7607935441 2.7925268032 2.8242600623 
2.8559933214 2.8877265806 2.9194598397 2.9511930988 2.982926358 3.0146596171 3.0463928762 3.0781261353 3.1098593945 
3.1415926536 
_radius 1 100 double
1.3877787808e-16 0.01375596793 0.027494713058 0.041191599697 0.054813715719 0.068315857833 0.081637042726 0.094698228926 0.10740193963 
0.11963424607 0.13126920028 0.14217542057 0.15222421984 0.16129846338 0.1693012533 0.17616356228 0.18185007506 0.18636272782 
0.1897417228 0.19206407532 0.19343995002 0.19400711805 0.19392382948 0.19336033407 0.19248932729 0.1914758362 0.19046743179 
0.18958591587 0.18892149156 0.18852981674 0.18843158129 0.18861385581 0.18903270539 0.18961721584 0.1902755874 0.19090388356 
0.19139738716 0.19166368367 0.19163593261 0.19128439276 0.19062405444 0.18971628489 0.18866307316 0.18759417499 0.18665008057 
0.18596595872 0.18566145178 0.18583767697 0.18657834165 0.18794983256 0.18999660115 0.19273174052 0.19612614085 0.20010119414 
0.2045289476 0.20924071769 0.21404232775 0.21873269206 0.22312251454 0.22705066791 0.23039668894 0.2330885057 0.23510502471 
0.23647362592 0.23726297651 0.23757189263 0.23751527614 0.23720845826 0.23675158993 0.23621594883 0.23563402784 0.23499485827 
0.23424515946 0.23329579708 0.23203208199 0.23032601966 0.22804879847 0.22508233176 0.22132917808 0.21672042047 0.2112210749 
0.2048324719 0.19759102589 0.18956304289 0.18083576945 0.17150565662 0.16166558038 0.1513932494 0.14074300822 0.12974262094 
0.11839552694 0.10668782419 0.094598251564 0.082108987564 0.069215217477 0.055931992851 0.042297661658 0.028373839444 0.014242373658 
2.825523219e-16 
_area 1 100 double
0 0.0005078346549 0.0020293496359 0.0045582686088 0.0080824641724 0.012579754656 0.018010108603 0.024304752842 0.031354371818 
0.038999759527 0.047028566396 0.055181079653 0.06316629223 0.070687028011 0.077470146592 0.083295780583 0.08801916794 0.091580459678 
0.094001442319 0.095371899027 0.095830616038 0.095546173 0.094701196123 0.093481308409 0.092067518731 0.090630056636 0.089322706283 
0.088277445133 0.087599382948 0.087358437243 0.087585139857 0.088242246634 0.089247386646 0.090498108155 0.091891731258 0.093325930159 
0.094690141376 0.095874555174 0.09679576519 0.097427069136 0.097812926332 0.098056104175 0.098291340623 0.098660211701 0.099283482226 
0.100240626 0.10159719788 0.10350039465 0.105666352 0.1080873682 0.1108623578 0.11414167693 0.1180658401 0.12269364147 
0.12796440703 0.13371107839 0.13969524878 0.14564052688 0.1512608236 0.15628521138 0.16048377358 0.16369674898 0.16585745593 
0.16699602464 0.16722196538 0.16669403906 0.1655880177 0.16406967968 0.1622761791 0.16030600892 0.15821625111 0.15602496215 
0.1537160904 0.15124459799 0.14854067153 0.14551331462 0.14205431619 0.13804437891 0.13336502007 0.12791945599 0.121659139 
0.1146049875 0.10685269792 0.098559351115 0.089916400369 0.081118021525 0.07233425743 0.063696504454 0.055298398878 0.047208522232 
0.039486552641 0.032195601835 0.025408561534 0.019210052296 0.013695965872 0.0089711314791 0.0051443158436 0.0023196858308 0.00058516221373 
5.2188686803e-17 
