# vtk DataFile Version 5.1
vtk output
ASCII
DATASET POLYDATA
POINTS 100 float
0.0713195 0.0427523 -0.665446 0.0713748 0.0427073 -0.665462 0.0715356 0.0423142 -0.665432 
0.0718062 0.0415722 -0.665273 0.0721922 0.0404823 -0.664857 0.0726981 0.0390483 -0.664025 
0.0733249 0.0372774 -0.662603 0.074066 0.035182 -0.660421 0.0749042 0.0327797 -0.65733 
0.0758083 0.0300935 -0.653211 0.0767304 0.0271517 -0.647992 0.0776045 0.0239859 -0.641649 
0.0783464 0.0206301 -0.634204 0.0788554 0.0171182 -0.62572 0.0790179 0.0134823 -0.616292 
0.0787135 0.00975123 -0.606032 0.0778219 0.00594918 -0.595054 0.0762316 0.00209573 -0.583463 
0.0738491 -0.00179357 -0.571343 0.0706071 -0.00570564 -0.558745 0.0664724 -0.0096277 -0.545692 
0.0614506 -0.0135447 -0.532173 0.0555882 -0.0174366 -0.518152 0.0489716 -0.0212765 -0.503573 
0.0417214 -0.025029 -0.488376 0.0339843 -0.02865 -0.472503 0.025922 -0.0320878 -0.45591 
0.0176977 -0.035285 -0.438572 0.00946332 -0.0381824 -0.420491 0.00134703 -0.0407223 -0.401694 
-0.0065565 -0.0428537 -0.382228 -0.014192 -0.0445363 -0.362159 -0.0215451 -0.0457438 -0.34156 
-0.0286387 -0.0464668 -0.320504 -0.0355244 -0.0467139 -0.299055 -0.0422708 -0.0465111 -0.277261 
-0.0489482 -0.0458996 -0.255151 -0.0556129 -0.044933 -0.232735 -0.062292 -0.0436729 -0.210005 
-0.068972 -0.0421844 -0.18694 -0.0755902 -0.0405312 -0.163516 -0.0820334 -0.0387723 -0.139713 
-0.0881408 -0.0369584 -0.115524 -0.0937149 -0.0351304 -0.0909621 -0.0985353 -0.0333191 -0.0660656 
-0.102378 -0.0315456 -0.0409011 -0.105034 -0.0298231 -0.0155615 -0.106331 -0.0281594 0.00983759 
-0.106147 -0.0265589 0.0351653 -0.104427 -0.0250253 0.0602836 -0.101183 -0.0235629 0.0850571 
-0.0965007 -0.0221776 0.109362 -0.0905262 -0.0208768 0.133093 -0.0834571 -0.0196689 0.156173 
-0.0755242 -0.0185615 0.17855 -0.0669718 -0.0175602 0.200202 -0.0580382 -0.0166671 0.221134 
-0.0489378 -0.01588 0.241372 -0.039847 -0.0151921 0.260958 -0.0308948 -0.0145932 0.279943 
-0.0221597 -0.0140707 0.298382 -0.0136722 -0.0136126 0.316327 -0.00542205 -0.0132095 0.33382 
0.00263036 -0.0128578 0.350898 0.0105408 -0.0125616 0.367585 0.0183675 -0.0123334 0.383898 
0.0261597 -0.0121944 0.399844 0.0339481 -0.0121729 0.415428 0.0417402 -0.0123013 0.430651 
0.0495197 -0.012612 0.445517 0.0572498 -0.0131336 0.460028 0.0648797 -0.0138853 0.474189 
0.0723538 -0.0148739 0.488006 0.0796199 -0.0160904 0.501484 0.0866381 -0.0175094 0.514627 
0.0933864 -0.0190897 0.52743 0.0998628 -0.0207772 0.539885 0.106085 -0.0225096 0.551976 
0.112085 -0.0242224 0.563676 0.117904 -0.0258551 0.574953 0.12358 -0.027358 0.58577 
0.129143 -0.0286968 0.596086 0.134604 -0.029857 0.605862 0.139954 -0.0308447 0.615061 
0.145155 -0.0316856 0.623654 0.150151 -0.0324218 0.631619 0.154865 -0.0331057 0.638946 
0.159217 -0.0337935 0.645633 0.163123 -0.0345369 0.651689 0.166517 -0.0353765 0.657127 
0.169352 -0.0363355 0.661971 0.171613 -0.0374155 0.666241 0.173317 -0.0385955 0.669964 
0.174512 -0.0398332 0.67316 0.175275 -0.0410689 0.67585 0.175701 -0.0422322 0.678049 
0.175889 -0.0432493 0.679767 0.175937 -0.0440517 0.681012 0.175923 -0.0445838 0.681787 
0.1759 -0.0448095 0.682094 
LINES 2 100
OFFSETS vtktypeint64
0 100 
CONNECTIVITY vtktypeint64
0 1 2 3 4 5 6 7 8 
9 10 11 12 13 14 15 16 17 
18 19 20 21 22 23 24 25 26 
27 28 29 30 31 32 33 34 35 
36 37 38 39 40 41 42 43 44 
45 46 47 48 49 50 51 52 53 
54 55 56 57 58 59 60 61 62 
63 64 65 66 67 68 69 70 71 
72 73 74 75 76 77 78 79 80 
81 82 83 84 85 86 87 88 89 
90 91 92 93 94 95 96 97 98 
99 
POINT_DATA 100
FIELD FieldData 3
_theta 1 100 double
0 0.031733259127 0.063466518254 0.095199777382 0.12693303651 0.15866629564 0.19039955476 0.22213281389 0.25386607302 
0.28559933214 0.31733259127 0.3490658504 0.38079910953 0.41253236865 0.44426562778 0.47599888691 0.50773214603 0.53946540516 
0.57119866429 0.60293192342 0.63466518254 0.66639844167 0.6981317008 0.72986495992 0.76159821905 0.79333147818 0.82506473731 
0.85679799643 0.88853125556 0.92026451469 0.95199777382 0.98373103294 1.0154642921 1.0471975512 1.0789308103 1.1106640695 
1.1423973286 1.1741305877 1.2058638468 1.237597106 1.2693303651 1.3010636242 1.3327968833 1.3645301425 1.3962634016 
1.4279966607 1.4597299198 1.491463179 1.5231964381 1.5549296972 1.5866629564 1.6183962155 1.6501294746 1.6818627337 
1.7135959929 1.745329252 1.7770625111 1.8087957702 1.8405290294 1.8722622885 1.9039955476 1.9357288068 1.9674620659 
1.999195325 2.0309285841 2.0626618433 2.0943951024 2.1261283615 2.1578616206 2.1895948798 2.2213281389 2.253061398 
2.2847946572 2.3165279163 2.3482611754 2.3799944345 2.4117276937 2.4434609528 2.4751942119 2.506927471 2.5386607302 
2.5703939893 2.6021272484 2.6338605076 2.6655937667 2.6973270258 2.7290602849 2.7607935441 2.7925268032 2.8242600623 
2.8559933214 2.8877265806 2.9194598397 2.9511930988 2.982926358 3.0146596171 3.0463928762 3.0781261353 3.1098593945 
3.1415926536 
_radius 1 100 double
6.8396519173e-16 0.015443581569 0.030695037024 0.04557932141 0.059966462604 0.073782674334 0.087010093145 0.099675609378 0.11183189399 
0.12353544916 0.13482666713 0.14571554525 0.15617467522 0.16613935004 0.17551362545 0.18418088099 0.1920174849 0.19890822425 
0.20476204874 0.20952643988 0.21319853986 0.21583125725 0.21753302265 0.21846066442 0.21880586656 0.21877667564 0.21857638865 
0.21838273022 0.21833029119 0.21849855031 0.21890658884 0.2195144658 0.22023070966 0.22092538565 0.22144810123 0.22164970543 
0.22140543305 0.22063629201 0.21932505861 0.21752366098 0.2153501501 0.21297573354 0.21060482861 0.20845270511 0.20672520859 
0.20560337237 0.20523333233 0.20571995917 0.20712196079 0.20944726296 0.21264958006 0.2166286786 0.22123660723 0.22629022208 
0.23158807618 0.23692852216 0.24212598595 0.2470232683 0.25149885475 0.25546926702 0.2588872857 0.26173726704 0.2640287587 
0.26578936315 0.26705753099 0.26787581853 0.26828508296 0.26832000084 0.26800610814 0.26735830939 0.26638059424 0.26506660542 
0.26340071546 0.26135932178 0.25891209617 0.25602293873 0.25265048301 0.24874824741 0.24426484835 0.23914489418 0.23333112034 
0.22676800888 0.21940668592 0.21121046528 0.20216012599 0.19225793779 0.18152959844 0.17002360711 0.15780811225 0.144965811 
0.13158784087 0.11776763538 0.10359544833 0.089153917217 0.074514849505 0.059737379048 0.044867600324 0.029939636166 0.01497787897 
9.6770934426e-16 
_area 1 100 double
0 0.00072042750298 0.0028306753762 0.0061912903445 0.010610398286 0.015888939927 0.021858531433 0.028398131816 0.035425045215 
0.042868589423 0.050642426024 0.058627441571 0.066667000972 0.074570724036 0.082123349167 0.089097305874 0.09526846433 0.10043431514 
0.10443339293 0.10716409479 0.10859999649 0.10879814984 0.10789776935 0.10610914163 0.10369579362 0.10095749562 0.098231634253 
0.095866445771 0.094049711322 0.092897939376 0.092534463417 0.093033831686 0.094341742028 0.096248079795 0.098425077167 0.10050328538 
0.10215055977 0.10313909689 0.10339360028 0.10301303831 0.10225932045 0.10150047126 0.10108705896 0.10122337852 0.1019871323 
0.10345412081 0.10574466203 0.10878673259 0.11247477362 0.11678376601 0.12170466378 0.12721977625 0.13328329509 0.13980401664 
0.14663556262 0.15357883031 0.16039664893 0.16683555106 0.17264817628 0.17761301564 0.18155209189 0.18434786924 0.18595871391 
0.18643000265 0.1858953583 0.18455642678 0.18262716271 0.18026388794 0.17754621832 0.17450941712 0.17117307012 0.16755249874 
0.16365677569 0.15948434063 0.1550229703 0.15025361383 0.14515519648 0.13970655321 0.13388487455 0.12766444676 0.12101929572 
0.11393026829 0.10639523079 0.098440085455 0.090127069162 0.081556384158 0.072858771322 0.064179813844 0.055660392939 0.047420696586 
0.03955559135 0.032143925369 0.025264646845 0.019007999475 0.013475923329 0.0087742768182 0.0050025253709 0.0022448999175 0.00056448109414 
8.0491344758e-17 
