# vtk DataFile Version 5.1
vtk output
ASCII
DATASET POLYDATA
POINTS 100 float
0.118006 0.0713669 -0.642369 0.117985 0.0712141 -0.642505 0.117958 0.0705599 -0.642838 
0.117949 0.0694245 -0.643277 0.117988 0.0678392 -0.643676 0.118104 0.0658418 -0.643853 
0.118319 0.0634713 -0.643603 0.118637 0.0607627 -0.642716 0.119034 0.0577422 -0.640998 
0.119459 0.0544236 -0.638281 0.119826 0.0508073 -0.63444 0.120022 0.0468806 -0.629396 
0.119912 0.0426207 -0.623117 0.11935 0.0379995 -0.61562 0.118191 0.0329901 -0.606956 
0.116308 0.0275733 -0.597206 0.113597 0.0217447 -0.586468 0.109993 0.0155206 -0.574843 
0.105475 0.00894172 -0.562425 0.100063 0.00207535 -0.549299 0.0938212 -0.00498543 -0.535527 
0.0868444 -0.0121252 -0.521156 0.0792502 -0.0192117 -0.506214 0.0711647 -0.0261034 -0.490719 
0.0627085 -0.0326581 -0.474681 0.0539852 -0.0387418 -0.458109 0.0450718 -0.0442366 -0.441019 
0.0360132 -0.0490482 -0.423432 0.0268224 -0.0531105 -0.405378 0.0174847 -0.0563884 -0.386896 
0.00796638 -0.058878 -0.368027 -0.00177336 -0.0606043 -0.348808 -0.0117686 -0.0616173 -0.329273 
-0.0220331 -0.0619859 -0.309439 -0.0325486 -0.0617914 -0.289307 -0.0432561 -0.0611207 -0.268858 
-0.0540516 -0.0600594 -0.248059 -0.0647869 -0.0586866 -0.226858 -0.0752755 -0.05707 -0.205199 
-0.0853029 -0.0552634 -0.183027 -0.0946398 -0.0533053 -0.160297 -0.103058 -0.051219 -0.136982 
-0.110347 -0.0490145 -0.113085 -0.116328 -0.0466907 -0.08864 -0.120864 -0.0442388 -0.0637169 
-0.123872 -0.0416462 -0.0384189 -0.125323 -0.0389 -0.0128787 -0.125244 -0.0359906 0.0127492 
-0.123712 -0.032915 0.0382978 -0.120844 -0.0296791 0.0635986 -0.116789 -0.0262996 0.0884921 
-0.111716 -0.0228054 0.112837 -0.105797 -0.0192375 0.136516 -0.0992056 -0.0156486 0.159445 
-0.0920984 -0.0121015 0.181569 -0.0846149 -0.00866655 0.202863 -0.0768715 -0.00541893 0.22333 
-0.0689608 -0.0024345 0.242994 -0.0609523 0.000214399 0.261893 -0.0528956 0.00246342 0.280077 
-0.0448235 0.00426065 0.297594 -0.0367571 0.00557058 0.314497 -0.0287091 0.00637724 0.330833 
-0.0206885 0.00668613 0.346644 -0.012703 0.00652478 0.361972 -0.00476263 0.00594157 0.376856 
0.0031193 0.00500301 0.391333 0.0109241 0.00378937 0.405446 0.0186269 0.00238917 0.419237 
0.026196 0.000892839 0.432753 0.0335929 -0.000613885 0.446039 0.0407721 -0.00205612 0.459138 
0.0476823 -0.00337507 0.472087 0.0542674 -0.0045317 0.484912 0.0604695 -0.00550854 0.497623 
0.0662317 -0.00630934 0.510213 0.0715019 -0.00695675 0.522656 0.0762375 -0.00748805 0.534906 
0.0804099 -0.00794964 0.5469 0.0840085 -0.00839073 0.558563 0.0870442 -0.00885703 0.569811 
0.0895508 -0.00938512 0.58056 0.0915853 -0.00999814 0.59073 0.0932252 -0.0107033 0.600252 
0.094564 -0.0114912 0.609075 0.0957047 -0.0123378 0.617163 0.0967514 -0.0132077 0.624504 
0.0978009 -0.0140586 0.631101 0.0989338 -0.0148475 0.636978 0.100207 -0.0155358 0.642169 
0.101647 -0.0160941 0.646717 0.103249 -0.0165064 0.650667 0.104977 -0.0167713 0.654066 
0.106763 -0.0169022 0.656954 0.108521 -0.0169254 0.659367 0.110151 -0.016876 0.66133 
0.111548 -0.0167935 0.662863 0.11262 -0.016716 0.663977 0.113289 -0.0166756 0.664679 
0.113508 -0.0166936 0.664971 
LINES 2 100
OFFSETS vtktypeint64
0 100 
CONNECTIVITY vtktypeint64
0 1 2 3 4 5 6 7 8 
9 10 11 12 13 14 15 16 17 
18 19 20 21 22 23 24 25 26 
27 28 29 30 31 32 33 34 35 
36 37 38 39 40 41 42 43 44 
45 46 47 48 49 50 51 52 53 
54 55 56 57 58 59 60 61 62 
63 64 65 66 67 68 69 70 71 
72 73 74 75 76 77 78 79 80 
81 82 83 84 85 86 87 88 89 
90 91 92 93 94 95 96 97 98 
99 
POINT_DATA 100
FIELD FieldData 3
_theta 1 100 double
0 0.031733259127 0.063466518254 0.095199777382 0.12693303651 0.15866629564 0.19039955476 0.22213281389 0.25386607302 
0.28559933214 0.31733259127 0.3490658504 0.38079910953 0.41253236865 0.44426562778 0.47599888691 0.50773214603 0.53946540516 
0.57119866429 0.60293192342 0.63466518254 0.66639844167 0.6981317008 0.72986495992 0.76159821905 0.79333147818 0.82506473731 
0.85679799643 0.88853125556 0.92026451469 0.95199777382 0.98373103294 1.0154642921 1.0471975512 1.0789308103 1.1106640695 
1.1423973286 1.1741305877 1.2058638468 1.237597106 1.2693303651 1.3010636242 1.3327968833 1.3645301425 1.3962634016 
1.4279966607 1.4597299198 1.491463179 1.5231964381 1.5549296972 1.5866629564 1.6183962155 1.6501294746 1.6818627337 
1.7135959929 1.745329252 1.7770625111 1.8087957702 1.8405290294 1.8722622885 1.9039955476 1.9357288068 1.9674620659 
1.999195325 2.0309285841 2.0626618433 2.0943951024 2.1261283615 2.1578616206 2.1895948798 2.2213281389 2.253061398 
2.2847946572 2.3165279163 2.3482611754 2.3799944345 2.4117276937 2.4434609528 2.4751942119 2.506927471 2.5386607302 
2.5703939893 2.6021272484 2.6338605076 2.6655937667 2.6973270258 2.7290602849 2.7607935441 2.7925268032 2.8242600623 
2.8559933214 2.8877265806 2.9194598397 2.9511930988 2.982926358 3.0146596171 3.0463928762 3.0781261353 3.1098593945 
3.1415926536 
_radius 1 100 double
1.0176308422e-15 0.014502594816 0.029044214758 0.043642546675 0.058290618572 0.072949111838 0.087542736581 0.10196054244 0.11605953555 
0.12967086202 0.14260802337 0.15467689646 0.16568750767 0.17546741218 0.18387614891 0.19081970144 0.19626338453 0.20024128209 
0.20286040719 0.204298172 0.20479249828 0.20462485721 0.20409754925 0.20350745659 0.20311917631 0.20314076116 0.20370516906 
0.20485989095 0.20656613466 0.20870762625 0.21110789165 0.21355399206 0.21582400901 0.21771495503 0.21906741436 0.21978364389 
0.21983724883 0.21927415787 0.21820576007 0.21679592783 0.21524442248 0.21376938986 0.21259094679 0.21191652586 0.21192737399 
0.21276514232 0.21451837036 0.21721062284 0.22079384043 0.2251505289 0.23010622441 0.23545043386 0.24096181778 0.24643274573 
0.25168923429 0.25660383222 0.26110057681 0.2651524164 0.26877241615 0.27200064858 0.27488894976 0.27748574667 0.27982298952 
0.2819068846 0.28371361453 0.28519054463 0.28626258963 0.28684256913 0.28684368722 0.28619191739 0.28483618022 0.28275474279 
0.27995703785 0.27648083634 0.27238527569 0.26774068707 0.26261653483 0.2570690632 0.25113039959 0.24480087414 0.23804612912 
0.23080009231 0.22297398732 0.2144703401 0.20519972234 0.1950971553 0.18413499295 0.17232979663 0.15974203734 0.14646904882 
0.13263304008 0.1183667744 0.103799588 0.089045888977 0.074197426968 0.059319736906 0.044452416402 0.029612380914 0.014798991314 
1.1709000871e-15 
_area 1 100 double
0 0.00057244966196 0.0022977577829 0.0051956882609 0.0092857833392 0.01456891705 0.021006054193 0.028499776014 0.036883676769 
0.045921678281 0.05531628614 0.064723827581 0.073775233982 0.08210150772 0.089362835267 0.095279284072 0.099659503566 0.10242265017 
0.1036088716 0.10337561342 0.10198034215 0.099753870871 0.097070822194 0.094323768534 0.091908085679 0.090277341401 0.090077154022 
0.091084010407 0.093078308944 0.095730734865 0.098812950215 0.10206487011 0.10523998752 0.10814681162 0.11066300919 0.11274598585 
0.11443586531 0.11585115421 0.11702362409 0.11791326894 0.1185729404 0.11912335178 0.1197327339 0.12061765144 0.1221076142 
0.12456720211 0.12769616555 0.13152033999 0.13610439667 0.14148409952 0.14762631311 0.15441002965 0.16163413845 0.16904793256 
0.17639256586 0.18343980962 0.19001720134 0.19601439727 0.20137290347 0.20606801333 0.21009421414 0.21346122823 0.21619880819 
0.21835863283 0.21999743124 0.22114041624 0.22175203649 0.22173132616 0.22091912409 0.21911966055 0.21614944572 0.21189512643 
0.20634999093 0.19961916593 0.19189942843 0.18344278313 0.17451252537 0.16534029226 0.15609250598 0.14685360786 0.13763009209 
0.12837324341 0.11901258815 0.10949017249 0.099787719215 0.089941429016 0.080041504691 0.070216766866 0.060610108162 0.051355970973 
0.04257057665 0.034356049172 0.026809418002 0.020027452739 0.014105223425 0.0091311110304 0.0051815204194 0.0023171755923 0.00058142112626 
5.4345108596e-18 
