# vtk DataFile Version 5.1
vtk output
ASCII
DATASET POLYDATA
POINTS 100 float
0.210089 0.051155 -0.616147 0.209807 0.0513181 -0.616188 0.209012 0.0516142 -0.616297 
0.207733 0.0520123 -0.616394 0.206015 0.0524617 -0.616355 0.203909 0.0528933 -0.616026 
0.201463 0.0532222 -0.615235 0.198718 0.0533517 -0.613809 0.195693 0.053178 -0.611591 
0.192385 0.0525957 -0.608453 0.188762 0.0515048 -0.604304 0.184766 0.0498173 -0.599098 
0.180319 0.0474644 -0.592832 0.175326 0.044403 -0.585544 0.169689 0.0406206 -0.577303 
0.163317 0.0361386 -0.568196 0.15614 0.0310134 -0.558322 0.148115 0.0253349 -0.547775 
0.139241 0.0192223 -0.536634 0.129554 0.0128173 -0.524959 0.119138 0.00627534 -0.512781 
0.108109 -0.000243788 -0.500109 0.0966177 -0.00658673 -0.486929 0.0848281 -0.0126162 -0.473209 
0.07291 -0.0182193 -0.45891 0.061022 -0.0233138 -0.443992 0.0492987 -0.0278513 -0.428424 
0.0378403 -0.0318177 -0.412186 0.0267051 -0.0352304 -0.395275 0.0159081 -0.0381327 -0.377709 
0.00542352 -0.0405863 -0.359516 -0.00480716 -0.0426629 -0.340741 -0.0148632 -0.0444344 -0.321429 
-0.02483 -0.0459654 -0.301629 -0.0347825 -0.0473054 -0.281381 -0.0447705 -0.0484846 -0.260715 
-0.0548044 -0.0495115 -0.23965 -0.0648463 -0.0503734 -0.218191 -0.0748057 -0.0510389 -0.196336 
-0.0845403 -0.0514632 -0.174078 -0.0938632 -0.0515942 -0.151414 -0.102555 -0.0513789 -0.12835 
-0.110379 -0.0507703 -0.104911 -0.117103 -0.049733 -0.0811415 -0.122513 -0.0482477 -0.057113 
-0.126438 -0.0463134 -0.0329201 -0.128759 -0.0439488 -0.00867941 -0.129423 -0.0411904 0.0154765 
-0.128448 -0.0380912 0.0394076 -0.125918 -0.0347162 0.062975 -0.121983 -0.0311395 0.0860508 
-0.116839 -0.0274395 0.108527 -0.110718 -0.0236956 0.130322 -0.103869 -0.0199851 0.151385 
-0.0965358 -0.0163806 0.171698 -0.0889444 -0.0129483 0.191273 -0.0812867 -0.00974711 0.21015 
-0.0737107 -0.00682788 0.228387 -0.0663159 -0.0042327 0.246055 -0.0591528 -0.00199451 0.263229 
-0.0522284 -0.000136467 0.279979 -0.0455148 0.00132878 0.296365 -0.0389607 0.00239991 0.312434 
-0.032504 0.00308752 0.328214 -0.026085 0.00341438 0.343718 -0.0196569 0.00341508 0.358946 
-0.0131942 0.00313486 0.373888 -0.00669755 0.0026275 0.388529 -0.000194949 0.00195234 0.402856 
0.00626114 0.00117051 0.416859 0.0125992 0.000340736 0.430535 0.0187365 -0.000484889 0.443893 
0.0245879 -0.00126477 0.456946 0.0300746 -0.00197076 0.469715 0.0351319 -0.00258986 0.482224 
0.0397144 -0.00312441 0.494492 0.0437997 -0.0035906 0.506531 0.0473879 -0.0040155 0.518341 
0.0505001 -0.00443285 0.529908 0.0531733 -0.00487816 0.541197 0.0554551 -0.00538353 0.55216 
0.0573969 -0.00597304 0.562731 0.0590486 -0.0066591 0.572833 0.0604529 -0.00744032 0.582384 
0.0616426 -0.00830119 0.591301 0.0626396 -0.00921358 0.599508 0.063455 -0.0101399 0.606943 
0.0640925 -0.0110374 0.613561 0.0645514 -0.0118637 0.619339 0.0648314 -0.0125813 0.624281 
0.0649368 -0.0131629 0.628411 0.0648796 -0.0135941 0.631781 0.0646814 -0.0138752 0.634459 
0.0643741 -0.0140213 0.636528 0.0639979 -0.0140594 0.638079 0.0635985 -0.0140256 0.639205 
0.0632228 -0.0139596 0.639992 0.0629141 -0.0138995 0.640516 0.0627072 -0.013877 0.640833 
0.0626248 -0.0139128 0.640979 
LINES 2 100
OFFSETS vtktypeint64
0 100 
CONNECTIVITY vtktypeint64
0 1 2 3 4 5 6 7 8 
9 10 11 12 13 14 15 16 17 
18 19 20 21 22 23 24 25 26 
27 28 29 30 31 32 33 34 35 
36 37 38 39 40 41 42 43 44 
45 46 47 48 49 50 51 52 53 
54 55 56 57 58 59 60 61 62 
63 64 65 66 67 68 69 70 71 
72 73 74 75 76 77 78 79 80 
81 82 83 84 85 86 87 88 89 
90 91 92 93 94 95 96 97 98 
99 
POINT_DATA 100
FIELD FieldData 3
_theta 1 100 double
0 0.031733259127 0.063466518254 0.095199777382 0.12693303651 0.15866629564 0.19039955476 0.22213281389 0.25386607302 
0.28559933214 0.31733259127 0.3490658504 0.38079910953 0.41253236865 0.44426562778 0.47599888691 0.50773214603 0.53946540516 
0.57119866429 0.60293192342 0.63466518254 0.66639844167 0.6981317008 0.72986495992 0.76159821905 0.79333147818 0.82506473731 
0.85679799643 0.88853125556 0.92026451469 0.95199777382 0.98373103294 1.0154642921 1.0471975512 1.0789308103 1.1106640695 
1.1423973286 1.1741305877 1.2058638468 1.237597106 1.2693303651 1.3010636242 1.3327968833 1.3645301425 1.3962634016 
1.4279966607 1.4597299198 1.491463179 1.5231964381 1.5549296972 1.5866629564 1.6183962155 1.6501294746 1.6818627337 
1.7135959929 1.745329252 1.7770625111 1.8087957702 1.8405290294 1.8722622885 1.9039955476 1.9357288068 1.9674620659 
1.999195325 2.0309285841 2.0626618433 2.0943951024 2.1261283615 2.1578616206 2.1895948798 2.2213281389 2.253061398 
2.2847946572 2.3165279163 2.3482611754 2.3799944345 2.4117276937 2.4434609528 2.4751942119 2.506927471 2.5386607302 
2.5703939893 2.6021272484 2.6338605076 2.6655937667 2.6973270258 2.7290602849 2.7607935441 2.7925268032 2.8242600623 
2.8559933214 2.8877265806 2.9194598397 2.9511930988 2.982926358 3.0146596171 3.0463928762 3.0781261353 3.1098593945 
3.1415926536 
_radius 1 100 double
4.5188131446e-16 0.015580812586 0.031063114451 0.046345961986 0.061327908879 0.07590656178 0.089978371765 0.10343917738 0.11618589048 
0.12811941274 0.1391485595 0.14919456544 0.15819567499 0.16611134429 0.17292565793 0.1786496557 0.18332234545 0.18701023684 
0.18980527318 0.19182109668 0.19318769161 0.19404462869 0.19453335301 0.19478914001 0.19493340268 0.19506693483 0.19526448409 
0.19557090722 0.1959991964 0.19653086364 0.19711934169 0.19769694268 0.19818537253 0.19850893207 0.19860864714 0.19845499721 
0.19805688139 0.19746501797 0.19676900206 0.19608852713 0.1955605731 0.19532538436 0.19551431577 0.1962415704 0.19759962938 
0.19965608413 0.20244922372 0.20598150848 0.21021278074 0.21505683568 0.220384512 0.22603401612 0.23182641467 0.23758278286 
0.24313974232 0.24836127357 0.25314586808 0.25742893948 0.26118097021 0.26440222427 0.26711505047 0.26935485353 0.27116077223 
0.27256703655 0.27359590837 0.27425301206 0.27452565772 0.27438439787 0.27378755948 0.27268796423 0.27104063692 0.26881011999 
0.26597609906 0.26253636725 0.25850665034 0.25391740464 0.24880827465 0.24322130844 0.23719414468 0.2307541928 0.22391446015 
0.21667133493 0.20900444212 0.20087863104 0.19224809318 0.18306241362 0.17327400974 0.16284601757 0.15175941687 0.14001816918 
0.12765141144 0.11471224201 0.10127324118 0.087419458376 0.073240061785 0.058820103438 0.044233852325 0.02954087763 0.014785554518 
6.3190433968e-16 
_area 1 100 double
0 0.00058188614826 0.0023353782476 0.005278325815 0.0094218388123 0.014745589852 0.021173238003 0.028556898413 0.036675378187 
0.045246026388 0.053947107498 0.062446231477 0.070429888811 0.077629481675 0.083840442002 0.088932805294 0.092853450804 0.095621659049 
0.097320408502 0.098085759933 0.098095631014 0.097557536665 0.096693561328 0.095721320837 0.094832298502 0.094172239362 0.093829615372 
0.093834028626 0.09416074984 0.094747087167 0.095516456064 0.096380230243 0.097252879185 0.098082152664 0.09885977714 0.099623101968 
0.10044338755 0.10140433017 0.1025751554 0.10398775505 0.10563639592 0.10750864825 0.10963086643 0.11208016294 0.11491429703 
0.11815565547 0.12185056933 0.12607281622 0.13089327566 0.13634444946 0.14238829273 0.14889838776 0.15567359527 0.16247996418 
0.16909323649 0.17532364825 0.18102425963 0.18609011275 0.19045339752 0.19407722678 0.19694947835 0.19907778227 0.20048628196 
0.20121390264 0.20131235342 0.20084017385 0.19984859626 0.19835974226 0.19634826971 0.19374266443 0.19045024575 0.18639244873 
0.1815331202 0.17589077691 0.16953507001 0.1625729434 0.15513096028 0.1473387876 0.13931657893 0.13116654579 0.1229672405 
0.11476955461 0.10659562273 0.098442548133 0.090290912052 0.082116157947 0.073901074994 0.065648296877 0.057391385695 0.049201969833 
0.041190095551 0.033496645503 0.02627961323 0.019698128171 0.013898258469 0.0090032407246 0.0051089661466 0.0022840553032 0.00057293902745 
8.8938426439e-18 
