# vtk DataFile Version 5.1
vtk output
ASCII
DATASET POLYDATA
POINTS 100 float
0.158781 0.0962686 -0.697357 0.159189 0.0963282 -0.697444 0.160456 0.0962248 -0.697624 
0.162465 0.0959248 -0.697801 0.165031 0.0953769 -0.697824 0.167918 0.0945162 -0.697506 
0.170858 0.0932694 -0.69664 0.173575 0.0915604 -0.695023 0.175802 0.0893166 -0.692473 
0.177308 0.0864749 -0.688848 0.177905 0.0829862 -0.684056 0.177462 0.0788201 -0.678062 
0.175908 0.0739678 -0.670885 0.173228 0.0684431 -0.662594 0.169456 0.062283 -0.653292 
0.164665 0.0555461 -0.643105 0.158954 0.0483104 -0.632163 0.152433 0.0406701 -0.620583 
0.14521 0.0327313 -0.608457 0.137384 0.0246085 -0.595842 0.129038 0.0164195 -0.582758 
0.120232 0.00828227 -0.569184 0.11101 0.000310616 -0.555069 0.101399 -0.00738841 -0.540337 
0.0914143 -0.0147172 -0.524899 0.0810691 -0.0215894 -0.508669 0.0703768 -0.0279311 -0.491571 
0.0593578 -0.0336814 -0.473549 0.0480428 -0.0387928 -0.454574 0.0364747 -0.0432308 -0.434644 
0.0247091 -0.0469733 -0.413783 0.0128133 -0.0500098 -0.392039 0.000865301 -0.0523405 -0.369471 
-0.0110479 -0.0539749 -0.346148 -0.0228309 -0.0549309 -0.322138 -0.0343807 -0.0552336 -0.297507 
-0.0455857 -0.0549141 -0.27231 -0.056326 -0.0540089 -0.246597 -0.066472 -0.0525586 -0.220414 
-0.0758857 -0.0506081 -0.193804 -0.0844226 -0.0482058 -0.166819 -0.0919353 -0.0454033 -0.139521 
-0.0982803 -0.0422562 -0.111989 -0.103326 -0.0388231 -0.0843203 -0.106962 -0.0351665 -0.0566313 
-0.109112 -0.0313523 -0.0290534 -0.10974 -0.0274494 -0.00172681 -0.108861 -0.0235291 0.025208 
-0.106546 -0.0196639 0.0516202 -0.10292 -0.0159262 0.0773986 -0.0981586 -0.012386 0.10246 
-0.0924819 -0.00910934 0.126755 -0.0861368 -0.00615539 0.150272 -0.0793826 -0.00357464 0.173035 
-0.0724718 -0.00140675 0.195098 -0.0656328 0.000321029 0.21654 -0.0590531 0.00159473 0.237451 
-0.052868 0.00241398 0.257923 -0.0471542 0.00279143 0.278039 -0.0419289 0.00275147 0.297862 
-0.0371561 0.00232829 0.317429 -0.0327578 0.00156344 0.33675 -0.0286293 0.000503121 0.355807 
-0.0246568 -0.000804546 0.374558 -0.0207355 -0.0023121 0.39295 -0.0167848 -0.00397485 0.410921 
-0.0127603 -0.00575249 0.428415 -0.0086598 -0.00761001 0.445393 -0.00452395 -0.00951799 0.461834 
-0.000430115 -0.0114524 0.477746 0.0035182 -0.0133938 0.493163 0.00720571 -0.0153267 0.508143 
0.0105213 -0.0172383 0.522758 0.0133732 -0.019118 0.537091 0.0157017 -0.0209568 0.55122 
0.0174878 -0.0227475 0.565207 0.0187551 -0.0244849 0.57909 0.0195682 -0.0261664 0.592876 
0.0200232 -0.027793 0.606531 0.0202364 -0.0293703 0.619986 0.0203289 -0.0309088 0.633136 
0.0204116 -0.0324238 0.645849 0.0205719 -0.0339354 0.657976 0.0208635 -0.0354668 0.669361 
0.0213017 -0.0370427 0.679855 0.0218635 -0.0386863 0.689328 0.0224936 -0.0404165 0.697682 
0.0231145 -0.0422453 0.704854 0.0236399 -0.0441744 0.710827 0.0239891 -0.0461935 0.715627 
0.0241002 -0.0482789 0.719324 0.0239408 -0.0503935 0.722026 0.023514 -0.0524882 0.723871 
0.0228599 -0.0545038 0.725016 0.0220506 -0.0563755 0.725631 0.0211816 -0.0580364 0.725879 
0.0203588 -0.0594231 0.725913 0.0196848 -0.06048 0.725863 0.0192446 -0.0611639 0.725827 
0.0190941 -0.0614477 0.725865 
LINES 2 100
OFFSETS vtktypeint64
0 100 
CONNECTIVITY vtktypeint64
0 1 2 3 4 5 6 7 8 
9 10 11 12 13 14 15 16 17 
18 19 20 21 22 23 24 25 26 
27 28 29 30 31 32 33 34 35 
36 37 38 39 40 41 42 43 44 
45 46 47 48 49 50 51 52 53 
54 55 56 57 58 59 60 61 62 
63 64 65 66 67 68 69 70 71 
72 73 74 75 76 77 78 79 80 
81 82 83 84 85 86 87 88 89 
90 91 92 93 94 95 96 97 98 
99 
POINT_DATA 100
FIELD FieldData 3
_theta 1 100 double
0 0.031733259127 0.063466518254 0.095199777382 0.12693303651 0.15866629564 0.19039955476 0.22213281389 0.25386607302 
0.28559933214 0.31733259127 0.3490658504 0.38079910953 0.41253236865 0.44426562778 0.47599888691 0.50773214603 0.53946540516 
0.57119866429 0.60293192342 0.63466518254 0.66639844167 0.6981317008 0.72986495992 0.76159821905 0.79333147818 0.82506473731 
0.85679799643 0.88853125556 0.92026451469 0.95199777382 0.98373103294 1.0154642921 1.0471975512 1.0789308103 1.1106640695 
1.1423973286 1.1741305877 1.2058638468 1.237597106 1.2693303651 1.3010636242 1.3327968833 1.3645301425 1.3962634016 
1.4279966607 1.4597299198 1.491463179 1.5231964381 1.5549296972 1.5866629564 1.6183962155 1.6501294746 1.6818627337 
1.7135959929 1.745329252 1.7770625111 1.8087957702 1.8405290294 1.8722622885 1.9039955476 1.9357288068 1.9674620659 
1.999195325 2.0309285841 2.0626618433 2.0943951024 2.1261283615 2.1578616206 2.1895948798 2.2213281389 2.253061398 
2.2847946572 2.3165279163 2.3482611754 2.3799944345 2.4117276937 2.4434609528 2.4751942119 2.506927471 2.5386607302 
2.5703939893 2.6021272484 2.6338605076 2.6655937667 2.6973270258 2.7290602849 2.7607935441 2.7925268032 2.8242600623 
2.8559933214 2.8877265806 2.9194598397 2.9511930988 2.982926358 3.0146596171 3.0463928762 3.0781261353 3.1098593945 
3.1415926536 
_radius 1 100 double
1.9869968259e-16 0.017677504062 0.035153419367 0.052227144232 0.068714897059 0.084457732162 0.099328196735 0.11323453839 0.12612127967 
0.13796545623 0.14876882238 0.15854751153 0.16732154132 0.17510678436 0.18191141827 0.18773759054 0.19258754717 0.19647230788 
0.19942046841 0.20148492091 0.20274602333 0.20331071357 0.20330793609 0.20288127631 0.20217979556 0.20134786569 0.20051464008 
0.19978397434 0.19922613289 0.19887306129 0.19871879472 0.19872555318 0.19883470246 0.19898065421 0.19910525285 0.19917025611 
0.19916603169 0.19911544394 0.1990730158 0.19912061524 0.19936158996 0.19991487367 0.20090916441 0.20247572732 0.20473783124 
0.2077958496 0.21170932764 0.21647979836 0.22203946513 0.22825010913 0.23491386828 0.24179410443 0.24864196801 0.25522337807 
0.26134183418 0.26685401042 0.27167673809 0.27578541715 0.27920502944 0.28199574286 0.28423556623 0.28600263425 0.28735954437 
0.28834183646 0.28895221468 0.28916132895 0.28891477798 0.28814469863 0.28678338194 0.28477618899 0.28209157978 0.2787269519 
0.27470985955 0.27009486456 0.26495672037 0.25938084713 0.25345220089 0.2472437606 0.240805995 0.23415877259 0.22728709839 
0.22014166064 0.21264443237 0.20469865484 0.19620170165 0.18705882778 0.17719575265 0.16656836068 0.15516837942 0.14302455376 
0.13019945403 0.11678257138 0.10288073949 0.088607178346 0.074070584415 0.059365690201 0.044566564956 0.029723602734 0.014864639195 
3.7345964586e-16 
_area 1 100 double
0 0.0007779720564 0.0030928260186 0.0068871820472 0.012061750543 0.018464870491 0.025881060323 0.034032683236 0.042601773252 
0.051264393053 0.059723800584 0.06773261357 0.075100875802 0.081691864132 0.087410304498 0.092189355799 0.095982576772 0.098764057354 
0.10053586906 0.1013397462 0.10126929357 0.10047839055 0.099180256706 0.097630062251 0.096084117964 0.094741135163 0.093704343358 
0.092993298615 0.092600418961 0.092529040409 0.092779825015 0.093337495259 0.094171559523 0.095244100958 0.096518415873 0.097964283473 
0.099558457309 0.10128258839 0.1031253446 0.10509609973 0.1071898476 0.10936762412 0.11160121558 0.11406065809 0.11698570638 
0.12062301046 0.12515627008 0.13076415433 0.13755418239 0.14551206648 0.15446598649 0.16409867096 0.17400355996 0.18375007306 
0.19293770225 0.20123558393 0.2084075259 0.21432222299 0.2189498938 0.2223496523 0.22465733978 0.22610179007 0.22710864958 
0.22805177151 0.22878240646 0.22902910568 0.22855252164 0.22715389128 0.22469590175 0.22112001436 0.21645084472 0.2107873873 
0.20428308135 0.1971204681 0.18948720607 0.18155794272 0.17348216403 0.16537513293 0.15730962919 0.14930912246 0.14134552557 
0.13334506917 0.12520374117 0.1168101173 0.10807050115 0.098930964977 0.089392771932 0.079519826419 0.069438013355 0.059326804647 
0.049404098537 0.039906219504 0.031066051668 0.023092888575 0.016157396072 0.010384060852 0.0058518672772 0.0026020930865 0.00065047641552 
1.7994469848e-17 
