# vtk DataFile Version 5.1
vtk output
ASCII
DATASET POLYDATA
POINTS 100 float
0.138062 0.0230794 -0.584759 0.13778 0.0231021 -0.58449 0.136995 0.0230518 -0.58374 
0.135731 0.0229163 -0.582498 0.134026 0.0226751 -0.580753 0.131925 0.0223008 -0.578485 
0.129468 0.0217607 -0.575674 0.126689 0.0210193 -0.572296 0.123604 0.0200404 -0.568327 
0.120208 0.0187892 -0.563743 0.116475 0.0172352 -0.558521 0.112357 0.0153533 -0.55264 
0.10779 0.0131259 -0.546083 0.102701 0.0105439 -0.538837 0.0970199 0.00760777 -0.530892 
0.0906884 0.00432839 -0.522244 0.0836704 0.000727077 -0.512891 0.0759614 -0.00316401 -0.50284 
0.0675943 -0.00730204 -0.492098 0.0586413 -0.0116339 -0.480678 0.0492119 -0.0160968 -0.468594 
0.0394465 -0.0206196 -0.455864 0.0295067 -0.0251243 -0.442501 0.0195627 -0.029528 -0.428521 
0.009779 -0.033746 -0.413932 0.000301119 -0.0376946 -0.398737 -0.00875692 -0.0412944 -0.382935 
-0.0173213 -0.0444747 -0.366513 -0.0253635 -0.047176 -0.349453 -0.0328996 -0.0493541 -0.331731 
-0.0399858 -0.0509816 -0.313316 -0.0467087 -0.0520498 -0.29418 -0.0531719 -0.0525689 -0.274298 
-0.0594812 -0.0525665 -0.253653 -0.0657282 -0.0520856 -0.232244 -0.0719758 -0.0511807 -0.210088 
-0.0782467 -0.0499135 -0.187227 -0.084515 -0.0483479 -0.16373 -0.0907041 -0.046545 -0.139691 
-0.0966894 -0.044559 -0.115234 -0.102306 -0.042433 -0.0905028 -0.107363 -0.0401974 -0.06566 
-0.111655 -0.0378688 -0.0408773 -0.114984 -0.0354513 -0.0163274 -0.117177 -0.0329387 0.00782524 
-0.118097 -0.0303186 0.0314337 -0.117659 -0.0275769 0.0543762 -0.115837 -0.0247032 0.0765621 
-0.112665 -0.0216952 0.0979351 -0.108234 -0.0185631 0.118474 -0.102688 -0.0153325 0.138191 
-0.0962064 -0.0120455 0.157124 -0.0889908 -0.00876017 0.175333 -0.0812509 -0.00554833 0.19289 
-0.0731868 -0.00249141 0.20987 -0.0649757 0.000324617 0.226342 -0.0567613 0.00281529 0.242364 
-0.048647 0.00490381 0.257976 -0.0406941 0.00652686 0.2732 -0.0329237 0.00763947 0.28804 
-0.025323 0.00821861 0.302484 -0.0178543 0.00826508 0.31651 -0.0104658 0.00780371 0.330096 
-0.00310303 0.00688177 0.34322 0.00428119 0.0055659 0.355873 0.0117178 0.00393785 0.368061 
0.0192158 0.00208939 0.379808 0.0267601 0.000116897 0.391157 0.0343118 -0.001884 0.402165 
0.0418122 -0.0038233 0.412903 0.0491886 -0.00562079 0.423444 0.0563619 -0.00720925 0.433857 
0.0632546 -0.00853664 0.4442 0.0697978 -0.00956726 0.454509 0.0759376 -0.010282 0.464798 
0.0816391 -0.010678 0.47505 0.0868874 -0.0107669 0.485221 0.0916879 -0.0105741 0.49524 
0.0960623 -0.0101361 0.505015 0.100045 -0.00949845 0.514443 0.103676 -0.00871349 0.523413 
0.106998 -0.00783781 0.531822 0.110049 -0.00692957 0.539579 0.112859 -0.00604585 0.546615 
0.115446 -0.00523996 0.552883 0.117821 -0.00455872 0.558369 0.119982 -0.00404009 0.563082 
0.121923 -0.00371097 0.567061 0.123631 -0.00358556 0.570361 0.125098 -0.00366447 0.573055 
0.126319 -0.00393452 0.575223 0.127297 -0.00436957 0.576947 0.128043 -0.00493226 0.578304 
0.128579 -0.00557661 0.579365 0.128936 -0.0062514 0.580187 0.12915 -0.00690403 0.580819 
0.129257 -0.00748458 0.581294 0.129292 -0.00794978 0.581639 0.129285 -0.00826639 0.581868 
0.129255 -0.00841394 0.58199 
LINES 2 100
OFFSETS vtktypeint64
0 100 
CONNECTIVITY vtktypeint64
0 1 2 3 4 5 6 7 8 
9 10 11 12 13 14 15 16 17 
18 19 20 21 22 23 24 25 26 
27 28 29 30 31 32 33 34 35 
36 37 38 39 40 41 42 43 44 
45 46 47 48 49 50 51 52 53 
54 55 56 57 58 59 60 61 62 
63 64 65 66 67 68 69 70 71 
72 73 74 75 76 77 78 79 80 
81 82 83 84 85 86 87 88 89 
90 91 92 93 94 95 96 97 98 
99 
POINT_DATA 100
FIELD FieldData 3
_theta 1 100 double
0 0.031733259127 0.063466518254 0.095199777382 0.12693303651 0.15866629564 0.19039955476 0.22213281389 0.25386607302 
0.28559933214 0.31733259127 0.3490658504 0.38079910953 0.41253236865 0.44426562778 0.47599888691 0.50773214603 0.53946540516 
0.57119866429 0.60293192342 0.63466518254 0.66639844167 0.6981317008 0.72986495992 0.76159821905 0.79333147818 0.82506473731 
0.85679799643 0.88853125556 0.92026451469 0.95199777382 0.98373103294 1.0154642921 1.0471975512 1.0789308103 1.1106640695 
1.1423973286 1.1741305877 1.2058638468 1.237597106 1.2693303651 1.3010636242 1.3327968833 1.3645301425 1.3962634016 
1.4279966607 1.4597299198 1.491463179 1.5231964381 1.5549296972 1.5866629564 1.6183962155 1.6501294746 1.6818627337 
1.7135959929 1.745329252 1.7770625111 1.8087957702 1.8405290294 1.8722622885 1.9039955476 1.9357288068 1.9674620659 
1.999195325 2.0309285841 2.0626618433 2.0943951024 2.1261283615 2.1578616206 2.1895948798 2.2213281389 2.253061398 
2.2847946572 2.3165279163 2.3482611754 2.3799944345 2.4117276937 2.4434609528 2.4751942119 2.506927471 2.5386607302 
2.5703939893 2.6021272484 2.6338605076 2.6655937667 2.6973270258 2.7290602849 2.7607935441 2.7925268032 2.8242600623 
2.8559933214 2.8877265806 2.9194598397 2.9511930988 2.982926358 3.0146596171 3.0463928762 3.0781261353 3.1098593945 
3.1415926536 
_radius 1 100 double
1.5632120619e-15 0.014376673243 0.028702338267 0.042920406627 0.056967062883 0.070767395104 0.0842319033 0.09725440611 0.1097125391 
0.1214717547 0.13239303513 0.14234363445 0.15120936712 0.15890650117 0.16539131178 0.17066576029 0.17477842012 0.17782048098 
0.17991731053 0.18121662704 0.18187484199 0.18204346985 0.18185748145 0.18142698315 0.18083278271 0.18012562035 0.17932842676 
0.17844096749 0.17744642913 0.17631961039 0.17503625754 0.17358278522 0.17196531806 0.17021675541 0.16840032464 0.16660786326 
0.16495153561 0.16355010918 0.16251460229 0.16193864503 0.16189446312 0.16243167431 0.16357705366 0.16533579938 0.16769500743 
0.17062845545 0.17410060618 0.17806811647 0.1824786512 0.18726837061 0.19236017644 0.19766431985 0.20308171024 0.20850911038 
0.21384496039 0.21899476364 0.22387538211 0.22841795283 0.23256939403 0.2362926337 0.2395657644 0.24238030912 0.24473871702 
0.24665117903 0.24813193002 0.24919538267 0.24985261382 0.25010875702 0.24996166535 0.24940185727 0.24841342072 0.2469754006 
0.24506328814 0.24265047275 0.23970973846 0.23621494634 0.23214291176 0.22747525535 0.2221998415 0.21631145229 0.20981159053 
0.20270763615 0.19501181124 0.1867404167 0.17791359786 0.16855558695 0.15869508965 0.1483653307 0.13760330583 0.12644801827 
0.11493786875 0.10310781215 0.090987226949 0.078599486123 0.065963846516 0.053099518993 0.040030874671 0.026792077469 0.013429380076 
1.2943556235e-15 
_area 1 100 double
0 0.00040200264103 0.0016319570075 0.0037511757869 0.0068314215663 0.010922080087 0.01602132905 0.022057243399 0.028880934344 
0.03627119335 0.043948451582 0.051594989755 0.058878432751 0.065476675548 0.071103706048 0.07553591413 0.078636977492 0.080377712447 
0.080847059387 0.080251367887 0.078898669452 0.077160266544 0.075401593257 0.073899174387 0.072790445004 0.072076084002 0.071654930621 
0.071373671427 0.071074959012 0.070630256383 0.069959168052 0.069045600492 0.067956553918 0.066856477873 0.065981976592 0.06552894072 
0.06556798299 0.06610377636 0.06713998633 0.06868367427 0.070723053027 0.073210750476 0.076067213585 0.079209728044 0.082598254176 
0.086268473641 0.090328035572 0.094914194057 0.10013057203 0.10599392328 0.11241713763 0.11923115657 0.12622783462 0.13320384956 
0.13999346876 0.14648470903 0.15261693539 0.15836159006 0.16369383856 0.16856875846 0.1729145882 0.17664555056 0.1796855248 
0.18198939136 0.18355201314 0.18440203515 0.18458464014 0.18414088027 0.18309122626 0.18142897302 0.17912525388 0.17614259052 
0.17245083238 0.16803952225 0.16292348909 0.15714203718 0.15075435499 0.1438335471 0.13646003983 0.12871424364 0.12066919855 
0.112385297 0.10390941069 0.095279434982 0.086533241953 0.077719329643 0.068905691348 0.060183854408 0.051666563639 0.043479670698 
0.035750612183 0.028596763595 0.022116755165 0.016386711373 0.011461679199 0.0073807271026 0.0041729940111 0.0018619767612 0.00046665986463 
4.3180015765e-17 
