# vtk DataFile Version 5.1
vtk output
ASCII
DATASET POLYDATA
POINTS 100 float
0.195236 0.0711468 -0.660453 0.19498 0.0712803 -0.660433 0.194271 0.0715031 -0.660352 
0.193095 0.0717747 -0.660126 0.191435 0.0720293 -0.659627 0.189269 0.0721795 -0.658694 
0.186575 0.07212 -0.657154 0.183328 0.0717342 -0.654843 0.179514 0.0709005 -0.651616 
0.17512 0.0695005 -0.647372 0.170148 0.0674277 -0.642053 0.164605 0.0645959 -0.635655 
0.158511 0.060947 -0.628219 0.151895 0.0564576 -0.619828 0.144793 0.0511435 -0.610587 
0.137248 0.0450613 -0.600613 0.129305 0.0383072 -0.590016 0.12101 0.0310122 -0.578887 
0.112408 0.0233351 -0.567286 0.103541 0.0154527 -0.555236 0.0944459 0.00754791 -0.542724 
0.0851552 -0.000201439 -0.529704 0.0756958 -0.00763416 -0.516108 0.0660892 -0.014615 -0.501856 
0.0563528 -0.0210413 -0.48687 0.0465003 -0.0268464 -0.471085 0.036543 -0.0319992 -0.454461 
0.0264908 -0.0365001 -0.436986 0.0163534 -0.0403747 -0.418677 0.00614201 -0.0436642 -0.399582 
-0.00412917 -0.0464164 -0.379764 -0.0144413 -0.0486758 -0.359301 -0.0247688 -0.0504759 -0.338268 
-0.0350772 -0.0518342 -0.316733 -0.0453209 -0.0527499 -0.294744 -0.0554411 -0.0532056 -0.272327 
-0.0653643 -0.0531715 -0.249486 -0.0750014 -0.052613 -0.226204 -0.0842477 -0.0514989 -0.202455 
-0.0929841 -0.0498104 -0.178211 -0.10108 -0.0475493 -0.153453 -0.108399 -0.0447434 -0.128185 
-0.114802 -0.0414497 -0.102437 -0.120156 -0.0377535 -0.0762766 -0.124341 -0.0337648 -0.0498063 
-0.127258 -0.0296106 -0.0231612 -0.128835 -0.0254261 0.00349816 -0.129035 -0.0213442 0.0299965 
-0.127856 -0.0174854 0.0561562 -0.125337 -0.0139492 0.0818101 -0.121553 -0.0108078 0.106813 
-0.116616 -0.0081034 0.131051 -0.110664 -0.00584794 0.154446 -0.103852 -0.00402732 0.176959 
-0.0963507 -0.00260738 0.198585 -0.0883259 -0.00154187 0.219352 -0.0799355 -0.00078091 0.239305 
-0.071319 -0.000278764 0.258505 -0.062591 3.79521e-08 0.277016 -0.0538377 7.71197e-05 0.294897 
-0.0451154 -4.04689e-05 0.312199 -0.0364527 -0.000358118 0.328962 -0.0278546 -0.000889129 0.345215 
-0.0193085 -0.0016486 0.36098 -0.0107925 -0.00264677 0.376273 -0.00228224 -0.00388287 0.391113 
0.00624067 -0.00534065 0.405523 0.014783 -0.00698617 0.419536 0.0233355 -0.00876848 0.433191 
0.0318705 -0.010623 0.446532 0.0403426 -0.0124776 0.459607 0.0486906 -0.0142595 0.472458 
0.0568424 -0.015904 0.485116 0.0647201 -0.0173612 0.497596 0.0722463 -0.0186024 0.509891 
0.0793502 -0.0196227 0.52197 0.0859731 -0.0204416 0.533782 0.092072 -0.0210994 0.545256 
0.0976224 -0.0216521 0.556313 0.102619 -0.0221625 0.566872 0.107074 -0.0226921 0.576861 
0.111015 -0.0232916 0.586226 0.114483 -0.0239944 0.59494 0.117525 -0.024811 0.603006 
0.120193 -0.0257275 0.610457 0.122537 -0.0267078 0.617354 0.124603 -0.0276977 0.623775 
0.126435 -0.0286331 0.629809 0.128064 -0.0294487 0.635538 0.129517 -0.0300876 0.641032 
0.130812 -0.0305092 0.646329 0.131961 -0.030696 0.651437 0.132971 -0.0306564 0.656324 
0.133846 -0.0304243 0.66092 0.134587 -0.0300557 0.665128 0.135193 -0.0296212 0.668828 
0.135664 -0.0291974 0.671896 0.135999 -0.0288567 0.674212 0.136197 -0.0286585 0.675681 
0.136258 -0.0286406 0.676237 
LINES 2 100
OFFSETS vtktypeint64
0 100 
CONNECTIVITY vtktypeint64
0 1 2 3 4 5 6 7 8 
9 10 11 12 13 14 15 16 17 
18 19 20 21 22 23 24 25 26 
27 28 29 30 31 32 33 34 35 
36 37 38 39 40 41 42 43 44 
45 46 47 48 49 50 51 52 53 
54 55 56 57 58 59 60 61 62 
63 64 65 66 67 68 69 70 71 
72 73 74 75 76 77 78 79 80 
81 82 83 84 85 86 87 88 89 
90 91 92 93 94 95 96 97 98 
99 
POINT_DATA 100
FIELD FieldData 3
_theta 1 100 double
0 0.031733259127 0.063466518254 0.095199777382 0.12693303651 0.15866629564 0.19039955476 0.22213281389 0.25386607302 
0.28559933214 0.31733259127 0.3490658504 0.38079910953 0.41253236865 0.44426562778 0.47599888691 0.50773214603 0.53946540516 
0.57119866429 0.60293192342 0.63466518254 0.66639844167 0.6981317008 0.72986495992 0.76159821905 0.79333147818 0.82506473731 
0.85679799643 0.88853125556 0.92026451469 0.95199777382 0.98373103294 1.0154642921 1.0471975512 1.0789308103 1.1106640695 
1.1423973286 1.1741305877 1.2058638468 1.237597106 1.2693303651 1.3010636242 1.3327968833 1.3645301425 1.3962634016 
1.4279966607 1.4597299198 1.491463179 1.5231964381 1.5549296972 1.5866629564 1.6183962155 1.6501294746 1.6818627337 
1.7135959929 1.745329252 1.7770625111 1.8087957702 1.8405290294 1.8722622885 1.9039955476 1.9357288068 1.9674620659 
1.999195325 2.0309285841 2.0626618433 2.0943951024 2.1261283615 2.1578616206 2.1895948798 2.2213281389 2.253061398 
2.2847946572 2.3165279163 2.3482611754 2.3799944345 2.4117276937 2.4434609528 2.4751942119 2.506927471 2.5386607302 
2.5703939893 2.6021272484 2.6338605076 2.6655937667 2.6973270258 2.7290602849 2.7607935441 2.7925268032 2.8242600623 
2.8559933214 2.8877265806 2.9194598397 2.9511930988 2.982926358 3.0146596171 3.0463928762 3.0781261353 3.1098593945 
3.1415926536 
_radius 1 100 double
7.9926901764e-16 0.016609222342 0.032980315768 0.048886095144 0.064125005459 0.078530052912 0.091973733441 0.10436897856 0.11566693441 
0.12585288143 0.13494160644 0.14297306979 0.15000850073 0.15612644176 0.16141802195 0.16598096154 0.16991239136 0.17330127589 
0.17622177882 0.17872906116 0.18085862407 0.1826294621 0.1840502453 0.18512688957 0.18586953848 0.18629728982 0.18643981937 
0.18633605169 0.18603085308 0.18557115578 0.18500290815 0.18436976539 0.18371347697 0.18307468916 0.18249208136 0.1819984975 
0.18161539436 0.18134960628 0.18119597092 0.18114568585 0.18119699266 0.18136427494 0.18168304504 0.18221006311 0.18301925147 
0.18419487107 0.18582359646 0.18798677458 0.19075336351 0.19417311934 0.19826919393 0.20302984512 0.2084001627 0.21427589761 
0.22050203773 0.22687832562 0.23317247421 0.23913990486 0.24454716758 0.24919535584 0.25293990077 0.25570389352 0.257483223 
0.25834306293 0.25840641321 0.25783637466 0.25681454549 0.25551833017 0.25410000686 0.25267006098 0.25128654308 0.24995115589 
0.24861169057 0.24716965368 0.24549163146 0.24342302578 0.24080299785 0.23747956169 0.23332374405 0.22824165759 0.22218332311 
0.21514717315 0.20717938222 0.19836751307 0.18882852898 0.17869216174 0.16808202018 0.15709827202 0.14580614368 0.13423291227 
0.1223731116 0.11019928354 0.097675011625 0.084767685343 0.071459364809 0.057754725955 0.043685458836 0.029310873685 0.014714893362 
1.1322568655e-15 
_area 1 100 double
0 0.00060703813529 0.0024207847363 0.0054148854216 0.0095326099713 0.014672467087 0.020677051998 0.02733129775 0.034373605024 
0.041519102046 0.048490253589 0.055047525205 0.061012541199 0.066278312222 0.070805124575 0.074605233832 0.077722717946 0.080215273459 
0.082142450842 0.083561497294 0.084529728274 0.085113062775 0.085408249219 0.085632277532 0.085936783213 0.086181036636 0.086295201726 
0.086246235441 0.086018359054 0.085614151689 0.085059535185 0.084408836646 0.083750351622 0.083204732258 0.082902762944 0.082952576761 
0.08341707886 0.084304283792 0.085565626073 0.087111333115 0.088856139064 0.090740298526 0.092736448377 0.094858067403 0.097140488437 
0.099617480373 0.10233538782 0.10537831439 0.10886835859 0.1129501917 0.11777262572 0.12346360803 0.13009272761 0.13762818056 
0.14590718426 0.15463400259 0.16340530147 0.1717555143 0.17921417693 0.18536610364 0.18990466299 0.19266981394 0.19366491522 
0.19304886312 0.19110378672 0.18818424697 0.18465936385 0.18086008345 0.17704035935 0.17335755808 0.16987310513 0.16656794806 
0.16336320192 0.16013786916 0.15674089078 0.1530001902 0.14873417334 0.14377014014 0.13796975319 0.13125666564 0.12363872181 
0.11521789939 0.10618407763 0.096792026643 0.087324126861 0.078044842857 0.06915715193 0.060773977028 0.052915256245 0.045532085166 
0.038548269478 0.031903966441 0.025588158995 0.019653216351 0.01421154542 0.0094188142888 0.0054498472959 0.0024728289998 0.0006260609673 
8.2939364997e-18 
