# vtk DataFile Version 5.1
vtk output
ASCII
DATASET POLYDATA
POINTS 100 float
0.111546 0.0808382 -0.699487 0.111405 0.080785 -0.698966 0.110983 0.0803685 -0.697398 
0.11032 0.0795722 -0.694816 0.109475 0.0783733 -0.691274 0.108519 0.0767458 -0.686844 
0.107523 0.0746657 -0.681611 0.106549 0.0721148 -0.67567 0.105633 0.0690849 -0.66912 
0.104785 0.0655799 -0.662054 0.103977 0.0616171 -0.654557 0.103144 0.057226 -0.646701 
0.102184 0.0524469 -0.638535 0.100972 0.0473266 -0.630084 0.0993621 0.0419153 -0.621348 
0.0972053 0.0362623 -0.612301 0.0943619 0.0304135 -0.602892 0.0907153 0.0244095 -0.593052 
0.0861835 0.0182854 -0.582695 0.0807272 0.0120726 -0.571731 0.0743546 0.00580172 -0.560071 
0.0671205 -0.000493652 -0.547636 0.0591224 -0.00677288 -0.534362 0.050491 -0.0129848 -0.52021 
0.0413791 -0.0190656 -0.505164 0.0319478 -0.0249383 -0.489237 0.0223533 -0.0305149 -0.472463 
0.0127348 -0.0357005 -0.4549 0.00320453 -0.040399 -0.436615 -0.00615705 -0.0445208 -0.417685 
-0.0153031 -0.0479901 -0.398181 -0.0242172 -0.0507521 -0.378164 -0.032906 -0.0527787 -0.357679 
-0.0413892 -0.0540718 -0.336749 -0.0496876 -0.0546633 -0.315375 -0.0578106 -0.0546127 -0.293538 
-0.0657457 -0.0540017 -0.2712 -0.0734501 -0.0529263 -0.248317 -0.0808463 -0.0514879 -0.224841 
-0.0878222 -0.0497837 -0.200734 -0.0942363 -0.0478992 -0.175973 -0.0999265 -0.0459009 -0.150561 
-0.104723 -0.0438332 -0.12453 -0.10846 -0.0417177 -0.0979444 -0.110998 -0.0395562 -0.0708986 
-0.112227 -0.0373356 -0.0435167 -0.112087 -0.0350358 -0.0159439 -0.110568 -0.0326373 0.0116604 
-0.107718 -0.0301298 0.0391322 -0.103635 -0.0275178 0.0663117 -0.0984626 -0.0248252 0.0930518 
-0.0923758 -0.0220962 0.119225 -0.0855682 -0.0193926 0.144726 -0.0782354 -0.0167893 0.169478 
-0.0705595 -0.014366 0.193428 -0.0626964 -0.012199 0.216547 -0.0547656 -0.0103524 0.238826 
-0.046845 -0.00886973 0.26027 -0.0389704 -0.00776928 0.280895 -0.0311396 -0.00704114 0.300725 
-0.0233202 -0.00664829 0.319784 -0.0154613 -0.00653091 0.338102 -0.00750578 -0.0066134 0.355708 
0.000596987 -0.00681339 0.372635 0.0088802 -0.00705147 0.388921 0.0173513 -0.00726035 0.404611 
0.0259875 -0.00739237 0.419758 0.0347355 -0.00742428 0.434425 0.0435152 -0.00735878 0.448683 
0.052227 -0.00722266 0.462609 0.0607616 -0.00706183 0.476283 0.069011 -0.00693401 0.489781 
0.0768792 -0.0069001 0.503167 0.0842915 -0.00701545 0.516491 0.0912013 -0.00732219 0.529779 
0.0975932 -0.00784372 0.543029 0.103482 -0.00858205 0.55621 0.108911 -0.00951824 0.569257 
0.113939 -0.0106159 0.582079 0.11864 -0.0118269 0.594557 0.123085 -0.013099 0.606559 
0.127336 -0.0143834 0.617942 0.13144 -0.0156418 0.628563 0.13542 -0.0168516 0.638294 
0.139277 -0.0180081 0.647025 0.142986 -0.0191245 0.654674 0.146508 -0.0202282 0.661196 
0.149788 -0.021355 0.666582 0.152772 -0.0225421 0.670863 0.155409 -0.0238193 0.674104 
0.157662 -0.0252029 0.676406 0.159514 -0.0266894 0.677894 0.160969 -0.028253 0.678713 
0.162053 -0.0298463 0.679018 0.162812 -0.0314033 0.678963 0.163305 -0.0328459 0.678697 
0.163597 -0.0340924 0.678354 0.163749 -0.0350666 0.678044 0.163812 -0.0357066 0.677851 
0.163819 -0.035972 0.677824 
LINES 2 100
OFFSETS vtktypeint64
0 100 
CONNECTIVITY vtktypeint64
0 1 2 3 4 5 6 7 8 
9 10 11 12 13 14 15 16 17 
18 19 20 21 22 23 24 25 26 
27 28 29 30 31 32 33 34 35 
36 37 38 39 40 41 42 43 44 
45 46 47 48 49 50 51 52 53 
54 55 56 57 58 59 60 61 62 
63 64 65 66 67 68 69 70 71 
72 73 74 75 76 77 78 79 80 
81 82 83 84 85 86 87 88 89 
90 91 92 93 94 95 96 97 98 
99 
POINT_DATA 100
FIELD FieldData 3
_theta 1 100 double
0 0.031733259127 0.063466518254 0.095199777382 0.12693303651 0.15866629564 0.19039955476 0.22213281389 0.25386607302 
0.28559933214 0.31733259127 0.3490658504 0.38079910953 0.41253236865 0.44426562778 0.47599888691 0.50773214603 0.53946540516 
0.57119866429 0.60293192342 0.63466518254 0.66639844167 0.6981317008 0.72986495992 0.76159821905 0.79333147818 0.82506473731 
0.85679799643 0.88853125556 0.92026451469 0.95199777382 0.98373103294 1.0154642921 1.0471975512 1.0789308103 1.1106640695 
1.1423973286 1.1741305877 1.2058638468 1.237597106 1.2693303651 1.3010636242 1.3327968833 1.3645301425 1.3962634016 
1.4279966607 1.4597299198 1.491463179 1.5231964381 1.5549296972 1.5866629564 1.6183962155 1.6501294746 1.6818627337 
1.7135959929 1.745329252 1.7770625111 1.8087957702 1.8405290294 1.8722622885 1.9039955476 1.9357288068 1.9674620659 
1.999195325 2.0309285841 2.0626618433 2.0943951024 2.1261283615 2.1578616206 2.1895948798 2.2213281389 2.253061398 
2.2847946572 2.3165279163 2.3482611754 2.3799944345 2.4117276937 2.4434609528 2.4751942119 2.506927471 2.5386607302 
2.5703939893 2.6021272484 2.6338605076 2.6655937667 2.6973270258 2.7290602849 2.7607935441 2.7925268032 2.8242600623 
2.8559933214 2.8877265806 2.9194598397 2.9511930988 2.982926358 3.0146596171 3.0463928762 3.0781261353 3.1098593945 
3.1415926536 
_radius 1 100 double
1.1443916996e-16 0.013827072367 0.027618987566 0.041337495258 0.054953226353 0.068446453061 0.08180410222 0.095013406875 0.10805336288 
0.12088563017 0.13344666812 0.14564279245 0.15734955256 0.1684163552 0.17867656877 0.18796244319 0.19612320533 0.20304387464 
0.2086619298 0.21297907829 0.21606601469 0.21805905704 0.2191487291 0.21956152633 0.21953711043 0.21930388928 0.21905623032 
0.21893631609 0.21902285464 0.2193276612 0.21979987919 0.22033671461 0.22079923217 0.22103186128 0.22088431332 0.22023416436 
0.2190074831 0.21719429129 0.21485600114 0.21212328154 0.20918459616 0.20626745171 0.20361575499 0.20146711939 0.20003317114 
0.19948417622 0.1999376287 0.20144986094 0.20401050466 0.20754095251 0.21189864504 0.2168883663 0.2222800624 0.22783089616 
0.23330814261 0.23850942659 0.24327754057 0.24750827624 0.25115099579 0.25420280242 0.25669799117 0.25869488953 0.26026221319 
0.26146672269 0.26236340528 0.26298882598 0.26335789446 0.26346415973 0.26328368066 0.26278212705 0.26192388506 0.26068102741 
0.25903974175 0.25700239458 0.25458451629 0.25180721825 0.24868663651 0.24522275585 0.24139022892 0.23713345553 0.23236727464 
0.22698338414 0.22086139772 0.21388260191 0.20594416281 0.19697172872 0.18692891113 0.17582277449 0.16370503192 0.15066903785 
0.13684291458 0.12237935018 0.10744285586 0.092195602665 0.076783315139 0.061322973392 0.045894135839 0.030535436072 0.015247178427 
1.1698853256e-15 
_area 1 100 double
0 0.00058900532803 0.0023404595211 0.0052095521914 0.0091271326652 0.014005961335 0.019746639302 0.026242286981 0.033381641663 
0.041050121295 0.049127892484 0.057484124115 0.065968061504 0.074399769114 0.082565052311 0.090219150759 0.097101992834 0.1029644897 
0.10760151889 0.11088428481 0.11278395285 0.11338044527 0.11285449719 0.11146590031 0.10952463988 0.10736397514 0.10532762253 
0.1038123944 0.10326476598 0.10350191107 0.10429776541 0.10555041548 0.10715180035 0.10882912025 0.110366501 0.11157364681 
0.11232916837 0.11260187844 0.1124361858 0.11192574722 0.11119329555 0.11036344545 0.10955234662 0.10889183745 0.10854362165 
0.10869686553 0.10956273542 0.11136199325 0.11429455598 0.11848997589 0.12395940282 0.13057413738 0.1380774367 0.1461207464 
0.15431191049 0.16226508118 0.16964440732 0.17619521661 0.18175886505 0.18627116205 0.18974807226 0.19226468463 0.1939335286 
0.19488637278 0.1952599592 0.19518192096 0.19475209882 0.19401990761 0.1929677284 0.19151470768 0.18954649039 0.18695917216 
0.18369717843 0.17977103341 0.17525186894 0.1702473164 0.16486819732 0.15919703916 0.1532670736 0.1470557968 0.14049327786 
0.13348263349 0.1259275671 0.11775984876 0.10895948967 0.099563360976 0.089663428351 0.079400153704 0.068955968884 0.058548590192 
0.048420198243 0.038820141602 0.029983304918 0.022109249247 0.015347305154 0.0097909702253 0.0054824533764 0.0024257321365 0.0006044736422 
4.2741358016e-17 
