# vtk DataFile Version 5.1
vtk output
ASCII
DATASET POLYDATA
POINTS 100 float
0.135055 0.0496257 -0.612743 0.135212 0.049531 -0.613172 0.135687 0.0491089 -0.614386 
0.136437 0.0483794 -0.616225 0.137394 0.0473733 -0.618437 0.13847 0.0461288 -0.620707 
0.139563 0.0446881 -0.622688 0.140565 0.0430931 -0.62403 0.141366 0.0413812 -0.624419 
0.141858 0.0395812 -0.623598 0.141943 0.0377097 -0.621392 0.141529 0.0357685 -0.617713 
0.140533 0.0337437 -0.612567 0.13888 0.0316057 -0.60604 0.136503 0.0293112 -0.59828 
0.133337 0.0268066 -0.589477 0.129327 0.0240332 -0.579839 0.124423 0.0209333 -0.569562 
0.118587 0.0174567 -0.558812 0.111796 0.0135678 -0.54771 0.104047 0.00925189 -0.536322 
0.0953645 0.00451996 -0.524658 0.0857996 -0.000587983 -0.512679 0.0754369 -0.00600195 -0.500309 
0.0643915 -0.0116236 -0.487448 0.0528052 -0.0173302 -0.473988 0.0408394 -0.0229815 -0.459828 
0.0286657 -0.0284276 -0.444887 0.0164534 -0.0335189 -0.429108 0.00435832 -0.0381155 -0.412462 
-0.00748839 -0.0420975 -0.394947 -0.0189886 -0.045372 -0.37658 -0.0300816 -0.0478798 -0.357386 
-0.0407436 -0.0495985 -0.337396 -0.0509821 -0.0505427 -0.316636 -0.0608265 -0.0507615 -0.295121 
-0.0703141 -0.050333 -0.272858 -0.0794746 -0.0493573 -0.249846 -0.0883147 -0.0479474 -0.226087 
-0.0968051 -0.0462202 -0.20159 -0.104871 -0.0442876 -0.176386 -0.11239 -0.0422488 -0.150535 
-0.119194 -0.0401848 -0.12413 -0.125079 -0.0381547 -0.0973058 -0.129824 -0.0361951 -0.0702303 
-0.133207 -0.0343206 -0.0431012 -0.135031 -0.0325279 -0.0161331 -0.135146 -0.0307998 0.0104579 
-0.133466 -0.0291108 0.03647 -0.129984 -0.0274324 0.0617322 -0.124778 -0.0257379 0.0861171 
-0.118009 -0.0240062 0.109551 -0.10991 -0.0222243 0.132015 -0.100771 -0.0203881 0.153549 
-0.0909109 -0.0185026 0.174235 -0.0806568 -0.01658 0.194192 -0.0703131 -0.0146383 0.213556 
-0.0601402 -0.012699 0.232467 -0.0503354 -0.0107851 0.251047 -0.0410216 -0.00892009 0.269393 
-0.032245 -0.00712679 0.287564 -0.0239801 -0.00542771 0.305581 -0.0161431 -0.00384535 0.323426 
-0.00860978 -0.002403 0.341048 -0.00123779 -0.00112546 0.358378 0.00611165 -3.91897e-05 0.375338 
0.0135537 0.000828072 0.391855 0.0211648 0.00144868 0.407871 0.0289732 0.00179727 0.423353 
0.036957 0.00185363 0.438297 0.0450491 0.00160594 0.452728 0.0531471 0.00105393 0.466691 
0.0611286 0.000211379 0.480248 0.0688676 -0.000892449 0.493467 0.0762504 -0.00221284 0.506404 
0.0831895 -0.00369138 0.519104 0.0896327 -0.00525945 0.531582 0.0955675 -0.00684311 0.543827 
0.101019 -0.00836914 0.555799 0.106042 -0.00977136 0.567432 0.110713 -0.0109967 0.57864 
0.115116 -0.0120101 0.589333 0.119327 -0.0127979 0.599419 0.123408 -0.0133688 0.608818 
0.127392 -0.0137526 0.617473 0.131286 -0.0139964 0.625349 0.135066 -0.0141588 0.632441 
0.138685 -0.0143031 0.638767 0.142083 -0.0144894 0.644368 0.145192 -0.0147673 0.6493 
0.147954 -0.0151697 0.653625 0.150324 -0.0157092 0.657404 0.152281 -0.0163758 0.660689 
0.15383 -0.0171382 0.663523 0.154996 -0.0179479 0.665929 0.155829 -0.0187444 0.667922 
0.156387 -0.0194632 0.6695 0.156727 -0.0200431 0.670656 0.156903 -0.0204343 0.67138 
0.156948 -0.0206041 0.671661 
LINES 2 100
OFFSETS vtktypeint64
0 100 
CONNECTIVITY vtktypeint64
0 1 2 3 4 5 6 7 8 
9 10 11 12 13 14 15 16 17 
18 19 20 21 22 23 24 25 26 
27 28 29 30 31 32 33 34 35 
36 37 38 39 40 41 42 43 44 
45 46 47 48 49 50 51 52 53 
54 55 56 57 58 59 60 61 62 
63 64 65 66 67 68 69 70 71 
72 73 74 75 76 77 78 79 80 
81 82 83 84 85 86 87 88 89 
90 91 92 93 94 95 96 97 98 
99 
POINT_DATA 100
FIELD FieldData 3
_theta 1 100 double
0 0.031733259127 0.063466518254 0.095199777382 0.12693303651 0.15866629564 0.19039955476 0.22213281389 0.25386607302 
0.28559933214 0.31733259127 0.3490658504 0.38079910953 0.41253236865 0.44426562778 0.47599888691 0.50773214603 0.53946540516 
0.57119866429 0.60293192342 0.63466518254 0.66639844167 0.6981317008 0.72986495992 0.76159821905 0.79333147818 0.82506473731 
0.85679799643 0.88853125556 0.92026451469 0.95199777382 0.98373103294 1.0154642921 1.0471975512 1.0789308103 1.1106640695 
1.1423973286 1.1741305877 1.2058638468 1.237597106 1.2693303651 1.3010636242 1.3327968833 1.3645301425 1.3962634016 
1.4279966607 1.4597299198 1.491463179 1.5231964381 1.5549296972 1.5866629564 1.6183962155 1.6501294746 1.6818627337 
1.7135959929 1.745329252 1.7770625111 1.8087957702 1.8405290294 1.8722622885 1.9039955476 1.9357288068 1.9674620659 
1.999195325 2.0309285841 2.0626618433 2.0943951024 2.1261283615 2.1578616206 2.1895948798 2.2213281389 2.253061398 
2.2847946572 2.3165279163 2.3482611754 2.3799944345 2.4117276937 2.4434609528 2.4751942119 2.506927471 2.5386607302 
2.5703939893 2.6021272484 2.6338605076 2.6655937667 2.6973270258 2.7290602849 2.7607935441 2.7925268032 2.8242600623 
2.8559933214 2.8877265806 2.9194598397 2.9511930988 2.982926358 3.0146596171 3.0463928762 3.0781261353 3.1098593945 
3.1415926536 
_radius 1 100 double
1.3427073475e-15 0.017342418633 0.0344633025 0.05115088859 0.067220959465 0.082530655856 0.096989643795 0.11056588394 0.1232838865 
0.13521458023 0.14645738722 0.15711663808 0.16727597495 0.1769755116 0.18619663957 0.19485806113 0.20282416061 0.2099241141 
0.21597811929 0.22082621008 0.2243551778 0.226519817 0.22735574565 0.22698221123 0.22559446212 0.2234463714 0.22082505107 
0.21802024161 0.21529232695 0.21284373498 0.21079874352 0.20919569929 0.20799318274 0.20708842224 0.2063435988 0.20561462586 
0.20477763578 0.20375004064 0.20250468254 0.20107653234 0.19956159147 0.19810778765 0.19689849465 0.19613083389 0.1959922602 
0.1966391111 0.19817962167 0.20066232138 0.20406997629 0.20831946878 0.21326814254 0.21872633804 0.22447453729 0.23028276008 
0.2359299822 0.24122187315 0.24600542689 0.25017898337 0.25369617889 0.2565629818 0.25882814616 0.26056871007 0.26187310464 
0.26282477094 0.26348887803 0.26390392384 0.26407891634 0.26399575361 0.26361560322 0.26288767374 0.26175877946 0.26018237464 
0.25812602972 0.25557644439 0.25254108758 0.24904572261 0.24512769302 0.24082583846 0.23616889326 0.23116480353 0.22579339863 
0.22000426778 0.21372063224 0.20684867987 0.19929056616 0.19095843648 0.18178662503 0.17173967698 0.16081489697 0.14903955231 
0.13646434036 0.1231557128 0.10918946887 0.094646646444 0.079611193836 0.064168360591 0.048403222624 0.032399425469 0.016238503055 
9.6132400883e-16 
_area 1 100 double
0 0.00058113769177 0.0023490841756 0.0053539019003 0.0096175601342 0.015085369843 0.021608009302 0.028958592683 0.036873699927 
0.045101178174 0.053438210266 0.061747661996 0.069947562352 0.077977727167 0.085757805846 0.093156316682 0.099984299592 0.1060142182 
0.11101518359 0.11479328599 0.11722778833 0.11829695081 0.1180899435 0.11680328519 0.11472166128 0.11218446526 0.10954145647 
0.1071022854 0.10508516368 0.10357906441 0.10255088629 0.10189460927 0.10147653008 0.1011676262 0.10086872372 0.10052840693 
0.10015011719 0.099786318804 0.099523547985 0.099466339584 0.099718394722 0.10033867183 0.10129833334 0.10253244724 0.10402606333 
0.10583892097 0.10809083658 0.11093699325 0.11453173669 0.11897155393 0.12423681101 0.13018083976 0.13657393015 0.14315744155 
0.14967759245 0.15590106586 0.16162375356 0.16667930524 0.17094829204 0.17436557783 0.17692310104 0.1786676287 0.17969774745 
0.18015131769 0.18028508128 0.18002255094 0.17928601144 0.17806831876 0.17649347696 0.17432199829 0.1715055233 0.16805415156 
0.16401198466 0.15945203849 0.15445980633 0.14911698001 0.1434921146 0.1376420744 0.13160915792 0.12540789563 0.11901300188 
0.11236023972 0.10536422925 0.097948346904 0.090076538341 0.081776914933 0.073150444119 0.064362200399 0.055616640289 0.047122769514 
0.039060047281 0.031558590508 0.024702010364 0.018547914328 0.013151103592 0.0085769598982 0.0049019769468 0.0022051403083 0.00055545924105 
2.1852154303e-17 
