# vtk DataFile Version 5.1
vtk output
ASCII
DATASET POLYDATA
POINTS 100 float
0.140149 0.0471116 -0.660393 0.13999 0.0471426 -0.660309 0.139593 0.0470959 -0.660067 
0.138977 0.0469647 -0.659586 0.138165 0.0467361 -0.658742 0.137182 0.0463904 -0.657385 
0.136048 0.0458997 -0.65536 0.134773 0.0452279 -0.652523 0.13335 0.0443303 -0.648763 
0.131751 0.0431555 -0.644014 0.129924 0.0416477 -0.638262 0.127799 0.0397506 -0.631545 
0.125287 0.0374119 -0.623942 0.12229 0.0345888 -0.615567 0.118706 0.0312531 -0.606541 
0.114442 0.0273958 -0.596982 0.109424 0.023031 -0.58698 0.103603 0.0181976 -0.576584 
0.0969624 0.0129593 -0.565795 0.089525 0.00740253 -0.554564 0.08135 0.0016324 -0.542794 
0.0725314 -0.00423299 -0.530356 0.0631909 -0.0100694 -0.517102 0.0534691 -0.0157535 -0.502889 
0.0435137 -0.0211704 -0.487595 0.0334679 -0.0262189 -0.471134 0.023459 -0.0308168 -0.453473 
0.0135891 -0.0349033 -0.434633 0.00392834 -0.0384401 -0.414689 -0.00548749 -0.0414097 -0.393759 
-0.0146559 -0.0438133 -0.371995 -0.0236024 -0.0456666 -0.349562 -0.0323714 -0.0469958 -0.326621 
-0.0410148 -0.0478328 -0.303311 -0.0495797 -0.0482118 -0.27974 -0.058095 -0.0481668 -0.255974 
-0.0665611 -0.0477295 -0.232039 -0.074941 -0.04693 -0.207925 -0.0831566 -0.0457968 -0.183596 
-0.0910883 -0.044359 -0.15901 -0.0985804 -0.042648 -0.134127 -0.10545 -0.0406994 -0.108932 
-0.111501 -0.0385542 -0.083441 -0.116537 -0.0362584 -0.0577114 -0.120379 -0.0338632 -0.0318418 
-0.122881 -0.0314219 -0.00596688 -0.123939 -0.0289876 0.0197531 -0.123506 -0.0266093 0.0451466 
-0.121594 -0.024329 0.0700476 -0.118271 -0.022178 0.0943113 -0.113659 -0.0201749 0.117828 
-0.107926 -0.0183251 0.140531 -0.101268 -0.016621 0.162402 -0.0938955 -0.015044 0.183468 
-0.0860202 -0.0135688 0.203791 -0.0778374 -0.0121666 0.223461 -0.0695146 -0.0108109 0.242576 
-0.0611824 -0.00948134 0.261232 -0.0529297 -0.00816817 0.279507 -0.0448036 -0.00687445 0.297453 
-0.0368127 -0.00561728 0.31509 -0.028935 -0.00442706 0.332408 -0.0211275 -0.00334509 0.349371 
-0.0133374 -0.00241983 0.365929 -0.00551254 -0.00170208 0.382026 0.00238806 -0.00123988 0.397615 
0.0103875 -0.00107342 0.412666 0.0184864 -0.00123085 0.427174 0.0266618 -0.0017251 0.441162 
0.0348695 -0.00255236 0.454677 0.0430484 -0.00369199 0.467785 0.0511278 -0.00510808 0.480558 
0.0590346 -0.00675217 0.493066 0.0667011 -0.00856692 0.505363 0.0740715 -0.0104901 0.517473 
0.0811064 -0.0124587 0.529392 0.0877856 -0.0144122 0.541079 0.0941072 -0.0162958 0.552465 
0.100086 -0.0180615 0.563456 0.105748 -0.0196697 0.573953 0.111128 -0.0210888 0.58386 
0.116257 -0.0222947 0.593101 0.121165 -0.0232699 0.601631 0.125869 -0.0240025 0.609445 
0.130378 -0.0244861 0.61658 0.134684 -0.0247188 0.623109 0.138768 -0.0247043 0.629137 
0.142605 -0.024452 0.634782 0.146162 -0.0239783 0.640161 0.149408 -0.0233073 0.645373 
0.152315 -0.0224719 0.650482 0.154865 -0.0215132 0.655505 0.15705 -0.0204802 0.660412 
0.158872 -0.0194279 0.665121 0.160347 -0.0184147 0.669507 0.161495 -0.0174994 0.67342 
0.162344 -0.016737 0.676697 0.162918 -0.0161753 0.679184 0.163242 -0.0158508 0.680756 
0.163329 -0.0157865 0.681331 
LINES 2 100
OFFSETS vtktypeint64
0 100 
CONNECTIVITY vtktypeint64
0 1 2 3 4 5 6 7 8 
9 10 11 12 13 14 15 16 17 
18 19 20 21 22 23 24 25 26 
27 28 29 30 31 32 33 34 35 
36 37 38 39 40 41 42 43 44 
45 46 47 48 49 50 51 52 53 
54 55 56 57 58 59 60 61 62 
63 64 65 66 67 68 69 70 71 
72 73 74 75 76 77 78 79 80 
81 82 83 84 85 86 87 88 89 
90 91 92 93 94 95 96 97 98 
99 
POINT_DATA 100
FIELD FieldData 3
_theta 1 100 double
0 0.031733259127 0.063466518254 0.095199777382 0.12693303651 0.15866629564 0.19039955476 0.22213281389 0.25386607302 
0.28559933214 0.31733259127 0.3490658504 0.38079910953 0.41253236865 0.44426562778 0.47599888691 0.50773214603 0.53946540516 
0.57119866429 0.60293192342 0.63466518254 0.66639844167 0.6981317008 0.72986495992 0.76159821905 0.79333147818 0.82506473731 
0.85679799643 0.88853125556 0.92026451469 0.95199777382 0.98373103294 1.0154642921 1.0471975512 1.0789308103 1.1106640695 
1.1423973286 1.1741305877 1.2058638468 1.237597106 1.2693303651 1.3010636242 1.3327968833 1.3645301425 1.3962634016 
1.4279966607 1.4597299198 1.491463179 1.5231964381 1.5549296972 1.5866629564 1.6183962155 1.6501294746 1.6818627337 
1.7135959929 1.745329252 1.7770625111 1.8087957702 1.8405290294 1.8722622885 1.9039955476 1.9357288068 1.9674620659 
1.999195325 2.0309285841 2.0626618433 2.0943951024 2.1261283615 2.1578616206 2.1895948798 2.2213281389 2.253061398 
2.2847946572 2.3165279163 2.3482611754 2.3799944345 2.4117276937 2.4434609528 2.4751942119 2.506927471 2.5386607302 
2.5703939893 2.6021272484 2.6338605076 2.6655937667 2.6973270258 2.7290602849 2.7607935441 2.7925268032 2.8242600623 
2.8559933214 2.8877265806 2.9194598397 2.9511930988 2.982926358 3.0146596171 3.0463928762 3.0781261353 3.1098593945 
3.1415926536 
_radius 1 100 double
1.5218182408e-16 0.015278711406 0.030486729695 0.045550362497 0.060396206424 0.074952109662 0.089148377153 0.10291853831 0.11619889716 
0.12892635242 0.14103456988 0.15244934465 0.16308465517 0.17284121761 0.18160911435 0.1892752803 0.19573547553 0.20090918626 
0.20475502155 0.20728383535 0.20856705373 0.20873842348 0.20798843247 0.20655177025 0.20468919222 0.20266585867 0.20072855677 
0.19908421759 0.19788195876 0.197200659 0.19704379147 0.19734272431 0.19796877533 0.19875307415 0.19951204066 0.20007529188 
0.20031213995 0.20015263836 0.19959958127 0.19872919051 0.19768055678 0.19663695236 0.19580458153 0.19539397924 0.19560550539 
0.19661626131 0.19856512133 0.20153562973 0.20554021441 0.21051070207 0.21629884602 0.2226877371 0.2294122831 0.23618533956 
0.24272551457 0.24878281981 0.25415902034 0.25872062263 0.26240370434 0.26521095413 0.2672021579 0.26847987877 0.26917228459 
0.26941509181 0.26933451562 0.26903296482 0.26857893281 0.26800203802 0.26729347648 0.26641141353 0.26529022371 0.26385200658 
0.2620183793 0.25972028505 0.25690384302 0.25353131972 0.24957776338 0.2450250279 0.23985538041 0.23404664883 0.22757019484 
0.22039217952 0.21247781831 0.20379770737 0.1943349166 0.18409143795 0.17309277251 0.16138987836 0.14905823234 0.13619419686 
0.12290912498 0.10932173478 0.095549373877 0.081698964497 0.067858623814 0.054091066675 0.040429805334 0.026878841304 0.013416060659 
8.6982211726e-16 
_area 1 100 double
0 0.00049116566554 0.001975174636 0.0044760849589 0.0080129486253 0.012578986815 0.018126621226 0.024562402555 0.031751585241 
0.039529048369 0.047711664824 0.056107193653 0.064516582055 0.072730063182 0.08052140599 0.087647023617 0.09385571481 0.098910719137 
0.10262048949 0.1048706853 0.10564900468 0.10505662531 0.10330390658 0.10069175263 0.097582045315 0.094360423982 0.091394246849 
0.088991012507 0.087366519944 0.086628850297 0.086775916074 0.087704607265 0.089230200442 0.09111336475 0.093094187358 0.094934278063 
0.096466686221 0.097648127959 0.098587652896 0.099482369737 0.10047408042 0.10163810562 0.10307114114 0.1048642511 0.10703396063 
0.10961289154 0.11272409371 0.11655634478 0.12130696515 0.1271198513 0.13403229528 0.14194380422 0.15061412827 0.15968774369 
0.16873690396 0.17731533757 0.18501440191 0.19151261885 0.19661032475 0.20024437497 0.2024824097 0.20350013502 0.20354608294 
0.20289551622 0.20179432714 0.20040680477 0.19879534803 0.19693996817 0.19477438364 0.192216085 0.18918370395 0.18560626024 
0.18143230694 0.17664074553 0.17124589374 0.16528960905 0.15882298518 0.15188832204 0.14451091792 0.13670216346 0.12846906268 
0.11982518476 0.11080105669 0.10145345253 0.091871802181 0.082178407226 0.07252008911 0.06305256736 0.053922936031 0.045257200708 
0.037157259127 0.029705845302 0.022973327569 0.017021270338 0.011902447753 0.0076599267142 0.0043271565906 0.0019290620475 0.00048315466288 
4.1633363423e-17 
