# vtk DataFile Version 5.1
vtk output
ASCII
DATASET POLYDATA
POINTS 100 float
0.222095 0.0257406 -0.680469 0.221504 0.0255635 -0.679556 0.219783 0.0249704 -0.677034 
0.217004 0.0240269 -0.67303 0.213272 0.0228299 -0.667737 0.208714 0.0214939 -0.661396 
0.203468 0.0201339 -0.654265 0.197656 0.0188482 -0.646595 0.19138 0.0177025 -0.638605 
0.184707 0.0167186 -0.630458 0.177667 0.015868 -0.622248 0.170256 0.0150724 -0.613997 
0.162444 0.0142111 -0.605656 0.154194 0.0131337 -0.597118 0.145468 0.011678 -0.588237 
0.136253 0.00968977 -0.57885 0.126566 0.00704298 -0.568801 0.116465 0.00365731 -0.557964 
0.106051 -0.000488554 -0.546258 0.0954578 -0.00534989 -0.533659 0.0848401 -0.0108159 -0.520202 
0.074357 -0.0167169 -0.505973 0.0641499 -0.0228374 -0.491099 0.0543224 -0.0289346 -0.475727 
0.0449245 -0.034759 -0.460002 0.035942 -0.0400765 -0.444048 0.0272952 -0.0446869 -0.427946 
0.0188465 -0.0484404 -0.41172 0.0104169 -0.0512472 -0.395336 0.00180991 -0.0530812 -0.378697 
-0.00716036 -0.0539769 -0.361656 -0.0166394 -0.054021 -0.344034 -0.0267059 -0.0533385 -0.325636 
-0.0373514 -0.052077 -0.30628 -0.0484691 -0.0503889 -0.28582 -0.0598539 -0.0484162 -0.264162 
-0.0712143 -0.0462768 -0.241284 -0.0821945 -0.0440561 -0.21724 -0.0924052 -0.0418031 -0.192162 
-0.101459 -0.0395316 -0.16625 -0.109009 -0.0372257 -0.139756 -0.114778 -0.0348496 -0.112968 
-0.118589 -0.0323581 -0.0861813 -0.12038 -0.0297088 -0.0596814 -0.120209 -0.0268728 -0.0337184 
-0.118245 -0.0238425 -0.00849236 -0.114748 -0.0206367 0.0158574 -0.110045 -0.0173019 0.0392566 
-0.104496 -0.0139091 0.0616936 -0.0984549 -0.0105485 0.0832106 -0.092244 -0.00732103 0.103891 
-0.0861236 -0.0043286 0.123845 -0.0802764 -0.00166497 0.143191 -0.0747996 0.000592671 0.162043 
-0.0697074 0.00239005 0.180499 -0.0649436 0.00369935 0.19863 -0.0603996 0.00451993 0.21648 
-0.0559376 0.0048763 0.234063 -0.0514139 0.00481371 0.251372 -0.0467005 0.00439225 0.268385 
-0.0417015 0.0036801 0.28507 -0.0363631 0.00274696 0.301401 -0.0306768 0.00165827 0.317357 
-0.0246759 0.000470844 0.332935 -0.0184259 -0.000769665 0.348146 -0.0120123 -0.00202963 0.363018 
-0.00552673 -0.00328658 0.37759 0.000945232 -0.00452715 0.391905 0.00733392 -0.00574426 0.406005 
0.0135906 -0.00693403 0.419921 0.0196878 -0.00809304 0.433668 0.0256156 -0.00921616 0.44724 
0.031374 -0.0102954 0.460605 0.0369646 -0.0113194 0.473712 0.0423817 -0.0122746 0.486485 
0.047606 -0.0131456 0.498838 0.0526014 -0.0139177 0.510676 0.0573166 -0.014578 0.521908 
0.0616901 -0.0151169 0.532449 0.0656596 -0.015529 0.542237 0.0691727 -0.015814 0.551227 
0.0721981 -0.0159757 0.559404 0.0747355 -0.0160219 0.56678 0.0768208 -0.0159633 0.573388 
0.0785277 -0.0158125 0.579286 0.0799625 -0.0155825 0.584545 0.0812545 -0.0152869 0.589244 
0.0825417 -0.0149383 0.593463 0.0839537 -0.0145492 0.597277 0.0855949 -0.0141317 0.600748 
0.0875293 -0.0136981 0.603924 0.0897697 -0.0132612 0.606834 0.0922732 -0.0128346 0.609489 
0.0949432 -0.0124327 0.611882 0.0976384 -0.0120707 0.613995 0.100188 -0.0117633 0.615798 
0.102412 -0.0115248 0.617259 0.10414 -0.0113672 0.618344 0.105235 -0.0112997 0.619026 
0.105604 -0.0113279 0.619286 
LINES 2 100
OFFSETS vtktypeint64
0 100 
CONNECTIVITY vtktypeint64
0 1 2 3 4 5 6 7 8 
9 10 11 12 13 14 15 16 17 
18 19 20 21 22 23 24 25 26 
27 28 29 30 31 32 33 34 35 
36 37 38 39 40 41 42 43 44 
45 46 47 48 49 50 51 52 53 
54 55 56 57 58 59 60 61 62 
63 64 65 66 67 68 69 70 71 
72 73 74 75 76 77 78 79 80 
81 82 83 84 85 86 87 88 89 
90 91 92 93 94 95 96 97 98 
99 
POINT_DATA 100
FIELD FieldData 3
_theta 1 100 double
0 0.031733259127 0.063466518254 0.095199777382 0.12693303651 0.15866629564 0.19039955476 0.22213281389 0.25386607302 
0.28559933214 0.31733259127 0.3490658504 0.38079910953 0.41253236865 0.44426562778 0.47599888691 0.50773214603 0.53946540516 
0.57119866429 0.60293192342 0.63466518254 0.66639844167 0.6981317008 0.72986495992 0.76159821905 0.79333147818 0.82506473731 
0.85679799643 0.88853125556 0.92026451469 0.95199777382 0.98373103294 1.0154642921 1.0471975512 1.0789308103 1.1106640695 
1.1423973286 1.1741305877 1.2058638468 1.237597106 1.2693303651 1.3010636242 1.3327968833 1.3645301425 1.3962634016 
1.4279966607 1.4597299198 1.491463179 1.5231964381 1.5549296972 1.5866629564 1.6183962155 1.6501294746 1.6818627337 
1.7135959929 1.745329252 1.7770625111 1.8087957702 1.8405290294 1.8722622885 1.9039955476 1.9357288068 1.9674620659 
1.999195325 2.0309285841 2.0626618433 2.0943951024 2.1261283615 2.1578616206 2.1895948798 2.2213281389 2.253061398 
2.2847946572 2.3165279163 2.3482611754 2.3799944345 2.4117276937 2.4434609528 2.4751942119 2.506927471 2.5386607302 
2.5703939893 2.6021272484 2.6338605076 2.6655937667 2.6973270258 2.7290602849 2.7607935441 2.7925268032 2.8242600623 
2.8559933214 2.8877265806 2.9194598397 2.9511930988 2.982926358 3.0146596171 3.0463928762 3.0781261353 3.1098593945 
3.1415926536 
_radius 1 100 double
4.1841012409e-16 0.014377061383 0.028615375212 0.04260527697 0.056278010128 0.069605919715 0.08258586248 0.095210562676 0.10743794702 
0.11917038762 0.13025264211 0.14049032681 0.14968363354 0.1576668856 0.16434415355 0.16971337476 0.17387473107 0.17702234853 
0.17942111221 0.18137234327 0.18317335637 0.18507673602 0.18725560491 0.18978080676 0.19261416711 0.19561881066 0.19858398044 
0.20125934398 0.20339297809 0.20476767905 0.20523127213 0.20471783127 0.20325806967 0.20097854436 0.19809058515 0.19487088782 
0.19163640382 0.1887164391 0.18642477464 0.18503427921 0.184755934 0.18572336291 0.18798316889 0.19149148666 0.19611846526 
0.20166305074 0.20787786537 0.21449906105 0.22127344872 0.22797758792 0.23442823654 0.24048668036 0.2460597723 0.25109917116 
0.25559881289 0.25958990771 0.26313285939 0.26630622071 0.26919379823 0.27187189767 0.27439902103 0.27680979338 0.27911361944 
0.28129713358 0.2833286595 0.28516301379 0.28674580997 0.28801729036 0.28891608778 0.28938308406 0.28936498019 0.28881676017 
0.28770223317 0.28599233078 0.28366161225 0.28068413707 0.2770301638 0.27266486907 0.26754955797 0.26164498659 0.25491581026 
0.24733502647 0.23888755869 0.22957259138 0.21940464936 0.208413569 0.19664346115 0.18415065428 0.1710005709 0.15726360185 
0.14301029916 0.12830655846 0.11320979599 0.097767252021 0.082017258733 0.065993510747 0.049731266896 0.033273466191 0.016674489209 
1.4416001059e-15 
_area 1 100 double
0 0.00048449843093 0.0019271572324 0.0042968523619 0.0075467786207 0.011622563215 0.016471728301 0.022048460857 0.028305472015 
0.035168413361 0.042499453555 0.050069259088 0.057558662807 0.064598009496 0.070833724066 0.076000768735 0.079980014718 0.082827364543 
0.0847676189 0.086140127659 0.087300400971 0.08854800682 0.090106788965 0.092106216476 0.094558642294 0.097351150195 0.10026194294 
0.10300165522 0.10526784465 0.10680307625 0.10744902257 0.10718590712 0.10614373858 0.10456447153 0.10275272051 0.10101133049 
0.099609909272 0.098755634614 0.098579127065 0.099163817244 0.10056825269 0.10283790844 0.10601720433 0.11017762158 0.11556441786 
0.12212004494 0.12951827149 0.13759474949 0.1460806843 0.1546361207 0.16292542349 0.17067844411 0.17772975209 0.1840912704 
0.18984994219 0.1950741723 0.19960236609 0.20328862509 0.20620617303 0.20853475165 0.21022558722 0.21136890751 0.21211573011 
0.21258531525 0.21286929348 0.21309489455 0.21310484531 0.21288372346 0.21241123053 0.21153359639 0.21008244758 0.20794404713 
0.20506024035 0.20141834424 0.19703064497 0.19191168792 0.18605980034 0.17944856678 0.1720323292 0.16376540122 0.15462891507 
0.14465585242 0.13394594666 0.12266611839 0.11103617431 0.099302714671 0.087707037099 0.076455329072 0.065700187941 0.055539391661 
0.046030825899 0.037215592359 0.029139350061 0.021865110634 0.015475550181 0.010066671683 0.0057366274489 0.0025737970258 0.00064713386424 
3.0384355107e-17 
