# vtk DataFile Version 5.1
vtk output
ASCII
DATASET POLYDATA
POINTS 100 float
0.197066 -0.000424906 -0.701807 0.196791 -0.000256414 -0.701531 0.196004 0.000100468 -0.700842 
0.194739 0.000644212 -0.699677 0.19305 0.0013687 -0.697937 0.190997 0.00225985 -0.695505 
0.188639 0.00329199 -0.69226 0.186026 0.00442455 -0.688096 0.183184 0.00559997 -0.68294 
0.180111 0.00674338 -0.676758 0.176778 0.00776451 -0.669566 0.173122 0.00856183 -0.661424 
0.169058 0.00902891 -0.652428 0.164483 0.00906232 -0.642701 0.159292 0.00857033 -0.632371 
0.153389 0.00748164 -0.621553 0.1467 0.00575287 -0.610336 0.139188 0.00337422 -0.598768 
0.130859 0.000372323 -0.586852 0.121766 -0.00318993 -0.574542 0.112012 -0.00721679 -0.561753 
0.101741 -0.0115859 -0.548376 0.0911288 -0.0161569 -0.534292 0.0803687 -0.0207815 -0.519392 
0.0696555 -0.0253135 -0.503595 0.0591679 -0.029619 -0.486862 0.0490531 -0.0335843 -0.469205 
0.0394141 -0.0371216 -0.450688 0.0303015 -0.0401725 -0.431421 0.0217108 -0.0427073 -0.411547 
0.0135854 -0.0447235 -0.391224 0.00582574 -0.0462403 -0.370607 -0.00169734 -0.0472927 -0.349824 
-0.00912553 -0.0479252 -0.328961 -0.0165944 -0.0481845 -0.30805 -0.0242148 -0.0481152 -0.287062 
-0.0320572 -0.0477547 -0.265914 -0.0401391 -0.0471321 -0.244476 -0.0484184 -0.0462676 -0.222593 
-0.0567923 -0.045174 -0.200102 -0.065103 -0.0438596 -0.176857 -0.0731483 -0.0423311 -0.152754 
-0.0806973 -0.0405976 -0.127744 -0.087509 -0.038673 -0.101848 -0.0933518 -0.0365777 -0.0751585 
-0.0980228 -0.0343399 -0.0478343 -0.101364 -0.0319946 -0.0200903 -0.103274 -0.0295821 0.00782209 
-0.103715 -0.0271452 0.0356372 -0.102716 -0.0247272 0.0630973 -0.100364 -0.0223683 0.0899741 
-0.0967995 -0.0201044 0.116085 -0.0921989 -0.0179649 0.141304 -0.0867604 -0.0159729 0.165564 
-0.0806869 -0.0141457 0.188856 -0.07417 -0.0124959 0.211216 -0.067377 -0.0110335 0.232713 
-0.0604409 -0.00976751 0.253431 -0.0534549 -0.00870751 0.273457 -0.0464718 -0.00786444 0.292862 
-0.0395079 -0.00725054 0.311694 -0.0325501 -0.00687833 0.329977 -0.0255661 -0.00675882 0.347709 
-0.0185158 -0.00689907 0.364868 -0.0113626 -0.00729977 0.381424 -0.00408389 -0.00795293 0.397351 
0.00332138 -0.00884043 0.412635 0.0108281 -0.00993358 0.427289 0.0183837 -0.0111939 0.441352 
0.0259105 -0.0125754 0.454892 0.0333111 -0.0140274 0.468 0.0404765 -0.015499 0.480783 
0.0472947 -0.0169431 0.49335 0.0536605 -0.0183202 0.505794 0.0594848 -0.0196021 0.518184 
0.0647013 -0.0207733 0.53055 0.069272 -0.0218316 0.542877 0.0731891 -0.0227871 0.555103 
0.0764753 -0.0236595 0.567121 0.0791802 -0.0244739 0.578792 0.0813754 -0.0252572 0.589953 
0.0831474 -0.0260328 0.600436 0.084591 -0.0268172 0.610086 0.0858008 -0.0276172 0.618772 
0.0868648 -0.0284287 0.626403 0.087859 -0.0292369 0.632934 0.0888428 -0.0300184 0.638367 
0.0898572 -0.0307449 0.642753 0.090924 -0.0313868 0.646181 0.0920473 -0.0319182 0.64877 
0.0932151 -0.032321 0.650655 0.0944032 -0.0325877 0.651977 0.0955785 -0.0327234 0.652869 
0.0967028 -0.0327456 0.653451 0.0977362 -0.0326825 0.653819 0.0986402 -0.0325701 0.654051 
0.0993803 -0.0324472 0.6542 0.0999277 -0.0323509 0.654301 0.100261 -0.0323119 0.654376 
0.100366 -0.0323504 0.654434 
LINES 2 100
OFFSETS vtktypeint64
0 100 
CONNECTIVITY vtktypeint64
0 1 2 3 4 5 6 7 8 
9 10 11 12 13 14 15 16 17 
18 19 20 21 22 23 24 25 26 
27 28 29 30 31 32 33 34 35 
36 37 38 39 40 41 42 43 44 
45 46 47 48 49 50 51 52 53 
54 55 56 57 58 59 60 61 62 
63 64 65 66 67 68 69 70 71 
72 73 74 75 76 77 78 79 80 
81 82 83 84 85 86 87 88 89 
90 91 92 93 94 95 96 97 98 
99 
POINT_DATA 100
FIELD FieldData 3
_theta 1 100 double
0 0.031733259127 0.063466518254 0.095199777382 0.12693303651 0.15866629564 0.19039955476 0.22213281389 0.25386607302 
0.28559933214 0.31733259127 0.3490658504 0.38079910953 0.41253236865 0.44426562778 0.47599888691 0.50773214603 0.53946540516 
0.57119866429 0.60293192342 0.63466518254 0.66639844167 0.6981317008 0.72986495992 0.76159821905 0.79333147818 0.82506473731 
0.85679799643 0.88853125556 0.92026451469 0.95199777382 0.98373103294 1.0154642921 1.0471975512 1.0789308103 1.1106640695 
1.1423973286 1.1741305877 1.2058638468 1.237597106 1.2693303651 1.3010636242 1.3327968833 1.3645301425 1.3962634016 
1.4279966607 1.4597299198 1.491463179 1.5231964381 1.5549296972 1.5866629564 1.6183962155 1.6501294746 1.6818627337 
1.7135959929 1.745329252 1.7770625111 1.8087957702 1.8405290294 1.8722622885 1.9039955476 1.9357288068 1.9674620659 
1.999195325 2.0309285841 2.0626618433 2.0943951024 2.1261283615 2.1578616206 2.1895948798 2.2213281389 2.253061398 
2.2847946572 2.3165279163 2.3482611754 2.3799944345 2.4117276937 2.4434609528 2.4751942119 2.506927471 2.5386607302 
2.5703939893 2.6021272484 2.6338605076 2.6655937667 2.6973270258 2.7290602849 2.7607935441 2.7925268032 2.8242600623 
2.8559933214 2.8877265806 2.9194598397 2.9511930988 2.982926358 3.0146596171 3.0463928762 3.0781261353 3.1098593945 
3.1415926536 
_radius 1 100 double
5.9787339849e-16 0.014475727337 0.028832767198 0.042967411442 0.056800832323 0.070282448807 0.083384978555 0.096092117074 0.10838218444 
0.12021264374 0.13151027709 0.14216994271 0.1520621395 0.16104729445 0.1689934718 0.17579408297 0.18138277557 0.1857436144 
0.18891567693 0.19099210566 0.1921143505 0.19246267354 0.19224393858 0.19167740568 0.19097900276 0.19034468176 0.18993411054 
0.18985685389 0.19016374179 0.19084562954 0.19184005415 0.19304413697 0.19433072824 0.19556489721 0.19661898061 0.19738554772 
0.19778821937 0.19779024658 0.19740033793 0.19667470092 0.19571398424 0.19465422948 0.19365239526 0.19286919067 0.19245352523 
0.19253224941 0.19320594063 0.1945483758 0.19660633706 0.19939783778 0.20290920931 0.20709307158 0.21186929044 0.21712989358 
0.2227474054 0.22858495399 0.23450616796 0.24038322835 0.24610213732 0.2515650005 0.25668973484 0.26140805275 0.26566279247 
0.2694056014 0.27259561967 0.27519927468 0.2771908157 0.27855299984 0.27927742852 0.27936429883 0.27882159718 0.27766389135 
0.27591083688 0.2735853513 0.27071124207 0.26731004202 0.26339700789 0.25897666058 0.25403873448 0.24855571496 0.24248306875 
0.23576275646 0.22832981233 0.22012097205 0.21108381302 0.20118479187 0.19041489262 0.17879217443 0.16636112588 0.15318923198 
0.13936146729 0.1249735596 0.11012488641 0.094911821906 0.079422252436 0.063731805151 0.047902083599 0.031980914457 0.016004349659 
9.3616273347e-16 
_area 1 100 double
0 0.0005846415885 0.0023206290415 0.0051567974696 0.0090159836635 0.013804771578 0.019422690882 0.025767677132 0.032735594042 
0.040213349018 0.048067060603 0.05612874085 0.064186830607 0.071986578185 0.07924435547 0.085675590586 0.091030895078 0.095131587893 
0.097895615324 0.099347687212 0.099611927535 0.098889749468 0.09742887911 0.095491597069 0.093331248994 0.091181957926 0.089256129657 
0.087738488309 0.086759942458 0.086352699421 0.08651581069 0.087092459041 0.087963993932 0.088990915219 0.090056650655 0.091081537869 
0.092026838505 0.092897139872 0.093735675724 0.094609849627 0.095590847435 0.096733268821 0.098050809716 0.099504256057 0.10104195229 
0.10265183233 0.10441732494 0.10645790407 0.1090485608 0.11238112056 0.11649279051 0.12143383367 0.1272027087 0.13373382752 
0.14090055956 0.14852279272 0.15638143192 0.16423881262 0.17185897134 0.17902244327 0.18553522892 0.19123523228 0.19599924181 
0.19975097758 0.20246819185 0.20418503401 0.20498508636 0.20498190376 0.20428917436 0.20299025779 0.20111998615 0.19866542704 
0.19558253185 0.19182023065 0.18734313209 0.18214593442 0.17625603683 0.1697252102 0.16261499923 0.15498200093 0.14686811085 
0.13829861798 0.12928857116 0.11985514684 0.11003149319 0.099877271328 0.089483351346 0.078971085425 0.068487982038 0.058201098416 
0.048288648925 0.038930407662 0.030298023445 0.022546455213 0.01580733801 0.010184783728 0.0057541341564 0.0025640850217 0.00064187658802 
4.3822195331e-17 
