# vtk DataFile Version 5.1
vtk output
ASCII
DATASET POLYDATA
POINTS 100 float
0.141979 0.101488 -0.702605 0.142065 0.101445 -0.702673 0.142362 0.101143 -0.702803 
0.142826 0.100582 -0.702901 0.143384 0.0997608 -0.702819 0.143946 0.0986739 -0.702378 
0.1444 0.0973041 -0.701382 0.144629 0.0956212 -0.699645 0.144512 0.093579 -0.697006 
0.143932 0.0911154 -0.693346 0.142782 0.0881557 -0.688599 0.140973 0.084618 -0.682756 
0.138433 0.0804214 -0.67586 0.135114 0.075496 -0.667995 0.13099 0.0697932 -0.659275 
0.12606 0.0632959 -0.64982 0.120345 0.0560258 -0.639746 0.113888 0.0480486 -0.629142 
0.106751 0.0394749 -0.61806 0.0990113 0.0304564 -0.606512 0.0907617 0.0211789 -0.594465 
0.0821027 0.0118508 -0.581848 0.073141 0.00268967 -0.568566 0.0639839 -0.00609218 -0.55451 
0.0547354 -0.0143022 -0.539579 0.0454907 -0.0217799 -0.523688 0.0363325 -0.0284059 -0.506786 
0.0273259 -0.0341075 -0.488865 0.018516 -0.0388591 -0.469957 0.00992625 -0.0426791 -0.450135 
0.00155765 -0.0456227 -0.429507 -0.00660864 -0.047772 -0.408195 -0.0146076 -0.0492251 -0.386332 
-0.0224842 -0.0500849 -0.364035 -0.0302863 -0.0504493 -0.341401 -0.0380556 -0.0504039 -0.318492 
-0.0458192 -0.0500172 -0.295333 -0.0535815 -0.0493397 -0.271909 -0.0613176 -0.0484051 -0.248175 
-0.0689696 -0.0472352 -0.22406 -0.0764448 -0.0458446 -0.199487 -0.083619 -0.0442472 -0.174383 
-0.0903416 -0.0424612 -0.148697 -0.0964448 -0.0405126 -0.122407 -0.101755 -0.0384372 -0.0955334 
-0.106105 -0.0362795 -0.0681379 -0.109347 -0.0340896 -0.0403255 -0.111364 -0.0319187 -0.0122367 
-0.11208 -0.0298135 0.0159621 -0.111466 -0.0278107 0.0440916 -0.10954 -0.0259326 0.071972 
-0.106369 -0.0241843 0.0994367 -0.102059 -0.0225542 0.126342 -0.0967499 -0.0210153 0.152575 
-0.090601 -0.0195308 0.178056 -0.0837801 -0.0180601 0.202741 -0.0764511 -0.0165662 0.226617 
-0.0687627 -0.0150235 0.249692 -0.0608405 -0.0134233 0.271994 -0.0527817 -0.0117788 0.29356 
-0.0446538 -0.0101259 0.314427 -0.0364963 -0.00852248 0.334631 -0.0283255 -0.00704307 0.354201 
-0.0201412 -0.00577272 0.37316 -0.0119346 -0.00479808 0.391526 -0.00369605 -0.00419839 0.409313 
0.00457877 -0.00403664 0.426537 0.0128841 -0.00435246 0.443218 0.0212019 -0.00515728 0.459383 
0.0295029 -0.00643238 0.475066 0.0377487 -0.00813019 0.490305 0.045897 -0.0101783 0.505143 
0.0539066 -0.0124862 0.519619 0.0617432 -0.0149527 0.533768 0.0693837 -0.0174754 0.54761 
0.0768192 -0.019958 0.561149 0.0840553 -0.0223174 0.574372 0.0911105 -0.0244888 0.587246 
0.0980122 -0.0264275 0.599718 0.104791 -0.0281093 0.611724 0.111476 -0.0295285 0.623194 
0.118085 -0.0306936 0.634053 0.124621 -0.0316232 0.644235 0.131071 -0.0323406 0.653689 
0.137402 -0.0328702 0.662377 0.14356 -0.0332339 0.670286 0.149482 -0.0334494 0.67742 
0.155094 -0.0335305 0.683806 0.160322 -0.0334875 0.689484 0.165097 -0.0333301 0.694504 
0.169366 -0.0330695 0.69892 0.173093 -0.0327208 0.702784 0.176264 -0.0323045 0.706144 
0.178887 -0.0318473 0.709034 0.180987 -0.0313815 0.71148 0.182605 -0.0309428 0.713495 
0.183789 -0.0305673 0.715083 0.184587 -0.0302886 0.716243 0.18504 -0.0301337 0.716968 
0.185173 -0.0301202 0.717253 
LINES 2 100
OFFSETS vtktypeint64
0 100 
CONNECTIVITY vtktypeint64
0 1 2 3 4 5 6 7 8 
9 10 11 12 13 14 15 16 17 
18 19 20 21 22 23 24 25 26 
27 28 29 30 31 32 33 34 35 
36 37 38 39 40 41 42 43 44 
45 46 47 48 49 50 51 52 53 
54 55 56 57 58 59 60 61 62 
63 64 65 66 67 68 69 70 71 
72 73 74 75 76 77 78 79 80 
81 82 83 84 85 86 87 88 89 
90 91 92 93 94 95 96 97 98 
99 
POINT_DATA 100
FIELD FieldData 3
_theta 1 100 double
0 0.031733259127 0.063466518254 0.095199777382 0.12693303651 0.15866629564 0.19039955476 0.22213281389 0.25386607302 
0.28559933214 0.31733259127 0.3490658504 0.38079910953 0.41253236865 0.44426562778 0.47599888691 0.50773214603 0.53946540516 
0.57119866429 0.60293192342 0.63466518254 0.66639844167 0.6981317008 0.72986495992 0.76159821905 0.79333147818 0.82506473731 
0.85679799643 0.88853125556 0.92026451469 0.95199777382 0.98373103294 1.0154642921 1.0471975512 1.0789308103 1.1106640695 
1.1423973286 1.1741305877 1.2058638468 1.237597106 1.2693303651 1.3010636242 1.3327968833 1.3645301425 1.3962634016 
1.4279966607 1.4597299198 1.491463179 1.5231964381 1.5549296972 1.5866629564 1.6183962155 1.6501294746 1.6818627337 
1.7135959929 1.745329252 1.7770625111 1.8087957702 1.8405290294 1.8722622885 1.9039955476 1.9357288068 1.9674620659 
1.999195325 2.0309285841 2.0626618433 2.0943951024 2.1261283615 2.1578616206 2.1895948798 2.2213281389 2.253061398 
2.2847946572 2.3165279163 2.3482611754 2.3799944345 2.4117276937 2.4434609528 2.4751942119 2.506927471 2.5386607302 
2.5703939893 2.6021272484 2.6338605076 2.6655937667 2.6973270258 2.7290602849 2.7607935441 2.7925268032 2.8242600623 
2.8559933214 2.8877265806 2.9194598397 2.9511930988 2.982926358 3.0146596171 3.0463928762 3.0781261353 3.1098593945 
3.1415926536 
_radius 1 100 double
1.6711069443e-16 0.017019265519 0.033907936539 0.050534410937 0.066769695638 0.082488745766 0.097571978456 0.1119070334 0.12539066796 
0.13793053817 0.14944665466 0.15987250904 0.1691561249 0.17726145216 0.18417049528 0.18988632662 0.19443674735 0.19787793914 
0.20029713259 0.20181321019 0.20257431815 0.20275197565 0.20253177685 0.20210146158 0.20163771732 0.2012933846 0.20118662877 
0.20139312773 0.20194165022 0.20281295797 0.20394201698 0.20522389413 0.20652391565 0.20769219641 0.20858151417 0.20906623141 
0.20905925929 0.2085242627 0.20748122078 0.20600467585 0.2042152961 0.20226656275 0.20032917113 0.198575873 0.1971689449 
0.19625134508 0.19594119805 0.19632807462 0.19746929656 0.19938553516 0.20205683324 0.20542158764 0.20938072015 0.21380721892 
0.21855891551 0.22349135973 0.22846825783 0.23336830256 0.2380884434 0.24254435237 0.246669082 0.25041084935 0.25373065514 
0.25660017167 0.25900009315 0.2609189841 0.26235257706 0.26330340945 0.26378059542 0.26379939598 0.2633801431 0.26254610323 
0.26132010692 0.25972018303 0.25775484152 0.25541884173 0.25269017939 0.24952872525 0.2458766474 0.24166058308 0.23679550287 
0.23119023108 0.22475452515 0.21740739006 0.20908592306 0.19975356813 0.18940638643 0.17807598671 0.16582819457 0.15275734056 
0.13897704101 0.12460922865 0.10977360187 0.094579366758 0.079120251153 0.063472726711 0.047696684914 0.03183766219 0.015929923035 
6.4605393706e-16 
_area 1 100 double
0 0.0006518771546 0.002602683388 0.0058349287598 0.010309557035 0.015952513684 0.022640582246 0.030192048963 0.038366807251 
0.046877250643 0.055407905914 0.063639791489 0.071275155459 0.078059088622 0.08379591472 0.088359562651 0.091697803266 0.093830400231 
0.094841631719 0.094868774235 0.09408940129 0.092710476227 0.090960657269 0.089084680771 0.087335567622 0.085955464065 0.085132568579 
0.084946865688 0.085366299187 0.086297740967 0.087625194874 0.08921814267 0.090929720771 0.092601235928 0.094078538792 0.095237693233 
0.096015445434 0.096441896667 0.096669372434 0.096957381117 0.097523063307 0.098397158811 0.099526432537 0.10088443201 0.10247749402 
0.1043152157 0.10640046781 0.10874115224 0.11136800175 0.11434224946 0.11774720748 0.1216614356 0.12611656479 0.13107404271 
0.13643579419 0.14206413035 0.14779767849 0.15346434987 0.15889401118 0.16393130617 0.16844671338 0.17234321049 0.17555721366 
0.17805449742 0.17982329957 0.18086744097 0.18120191783 0.18085185084 0.17985363249 0.17825607508 0.17611926887 0.17350923698 
0.17048790037 0.16710022451 0.16336295756 0.15925956974 0.15474429445 0.14975486352 0.14422942921 0.13812115419 0.1314060502 
0.12408432358 0.11617899894 0.10773577025 0.098825491104 0.089547644887 0.080031536357 0.070432481632 0.060922255889 0.051675373412 
0.042854676108 0.034600659452 0.027028148632 0.020230862083 0.014290394575 0.0092840916313 0.0052877113003 0.0023721746436 0.00059649749077 
1.1547943748e-16 
