# vtk DataFile Version 5.1
vtk output
ASCII
DATASET POLYDATA
POINTS 100 float
0.0201479 0.04527 -0.610443 0.0201362 0.0451542 -0.610372 0.0200952 0.0446712 -0.610135 
0.0200001 0.0438378 -0.609628 0.0198125 0.0426793 -0.608692 0.0194859 0.0412262 -0.607135 
0.0189708 0.03951 -0.604757 0.0182206 0.0375599 -0.601373 0.0171956 0.0353987 -0.596836 
0.0158661 0.0330407 -0.591055 0.0142124 0.0304909 -0.584006 0.0122237 0.0277452 -0.575732 
0.00989487 0.0247932 -0.566334 0.00722185 0.0216212 -0.555963 0.00419777 0.0182166 -0.544789 
0.00080959 0.0145724 -0.532991 -0.00296325 0.0106915 -0.520727 -0.00714782 0.00658998 -0.508119 
-0.0117741 0.00229856 -0.49524 -0.016869 -0.00213694 -0.482111 -0.0224496 -0.00665736 -0.468703 
-0.0285149 -0.0111934 -0.454946 -0.0350395 -0.01567 -0.440746 -0.0419695 -0.0200113 -0.426002 
-0.0492212 -0.0241462 -0.410625 -0.0566838 -0.0280125 -0.394553 -0.0642271 -0.0315605 -0.377758 
-0.0717111 -0.0347553 -0.360259 -0.0789989 -0.0375767 -0.342109 -0.0859698 -0.0400184 -0.323396 
-0.0925314 -0.042085 -0.304222 -0.098628 -0.0437885 -0.284691 -0.104245 -0.0451443 -0.264892 
-0.109409 -0.0461671 -0.244888 -0.114176 -0.046868 -0.224704 -0.118625 -0.0472521 -0.204327 
-0.122835 -0.0473178 -0.183711 -0.126875 -0.0470576 -0.162786 -0.130775 -0.0464602 -0.141475 
-0.134523 -0.0455132 -0.119708 -0.138049 -0.0442064 -0.0974409 -0.141224 -0.0425359 -0.0746716 
-0.143868 -0.0405067 -0.051445 -0.145766 -0.0381347 -0.0278581 -0.146683 -0.0354481 -0.00405413 
-0.146392 -0.0324864 0.0197884 -0.144703 -0.0292997 0.0434726 -0.141482 -0.0259453 0.0668023 
-0.136677 -0.022485 0.0896019 -0.130324 -0.018982 0.111733 -0.122554 -0.0154972 0.133108 
-0.113582 -0.0120872 0.153694 -0.103692 -0.0088026 0.173508 -0.0932092 -0.0056875 0.192616 
-0.0824732 -0.00277959 0.211108 -0.0718032 -0.000111353 0.229088 -0.0614701 0.00228858 0.246649 
-0.0516719 0.00439402 0.26386 -0.0425191 0.00618021 0.28075 -0.0340296 0.0076235 0.297308 
-0.0261351 0.00870186 0.313477 -0.0186971 0.00939643 0.32917 -0.0115312 0.00969371 0.344283 
-0.00443612 0.00958836 0.358714 0.00277627 0.00908602 0.372384 0.0102534 0.00820579 0.385257 
0.0180807 0.00698183 0.397347 0.026269 0.00546371 0.408734 0.0347519 0.00371532 0.419553 
0.0433939 0.00181216 0.429986 0.0520069 -0.000162804 0.440245 0.0603738 -0.00212437 0.450546 
0.0682754 -0.00399103 0.461081 0.0755172 -0.00569092 0.471999 0.0819522 -0.00716724 0.483377 
0.0874968 -0.0083825 0.495212 0.092139 -0.00932114 0.507417 0.0959359 -0.00999033 0.519823 
0.0990026 -0.0104186 0.532197 0.101495 -0.0106528 0.544263 0.103584 -0.0107532 0.555734 
0.105438 -0.0107881 0.566335 0.107191 -0.010827 0.575837 0.108936 -0.0109349 0.584074 
0.110708 -0.011167 0.590961 0.112487 -0.011564 0.596495 0.114205 -0.01215 0.600755 
0.115759 -0.0129308 0.603886 0.117034 -0.0138951 0.606079 0.11792 -0.0150159 0.607549 
0.118338 -0.0162538 0.608509 0.118255 -0.0175607 0.60915 0.117689 -0.0188835 0.609625 
0.116717 -0.020168 0.610038 0.115465 -0.0213622 0.610444 0.114094 -0.0224191 0.610856 
0.112778 -0.0232986 0.611252 0.111687 -0.0239689 0.611593 0.11096 -0.0244074 0.61184 
0.110689 -0.0246007 0.611961 
LINES 2 100
OFFSETS vtktypeint64
0 100 
CONNECTIVITY vtktypeint64
0 1 2 3 4 5 6 7 8 
9 10 11 12 13 14 15 16 17 
18 19 20 21 22 23 24 25 26 
27 28 29 30 31 32 33 34 35 
36 37 38 39 40 41 42 43 44 
45 46 47 48 49 50 51 52 53 
54 55 56 57 58 59 60 61 62 
63 64 65 66 67 68 69 70 71 
72 73 74 75 76 77 78 79 80 
81 82 83 84 85 86 87 88 89 
90 91 92 93 94 95 96 97 98 
99 
POINT_DATA 100
FIELD FieldData 3
_theta 1 100 double
0 0.031733259127 0.063466518254 0.095199777382 0.12693303651 0.15866629564 0.19039955476 0.22213281389 0.25386607302 
0.28559933214 0.31733259127 0.3490658504 0.38079910953 0.41253236865 0.44426562778 0.47599888691 0.50773214603 0.53946540516 
0.57119866429 0.60293192342 0.63466518254 0.66639844167 0.6981317008 0.72986495992 0.76159821905 0.79333147818 0.82506473731 
0.85679799643 0.88853125556 0.92026451469 0.95199777382 0.98373103294 1.0154642921 1.0471975512 1.0789308103 1.1106640695 
1.1423973286 1.1741305877 1.2058638468 1.237597106 1.2693303651 1.3010636242 1.3327968833 1.3645301425 1.3962634016 
1.4279966607 1.4597299198 1.491463179 1.5231964381 1.5549296972 1.5866629564 1.6183962155 1.6501294746 1.6818627337 
1.7135959929 1.745329252 1.7770625111 1.8087957702 1.8405290294 1.8722622885 1.9039955476 1.9357288068 1.9674620659 
1.999195325 2.0309285841 2.0626618433 2.0943951024 2.1261283615 2.1578616206 2.1895948798 2.2213281389 2.253061398 
2.2847946572 2.3165279163 2.3482611754 2.3799944345 2.4117276937 2.4434609528 2.4751942119 2.506927471 2.5386607302 
2.5703939893 2.6021272484 2.6338605076 2.6655937667 2.6973270258 2.7290602849 2.7607935441 2.7925268032 2.8242600623 
2.8559933214 2.8877265806 2.9194598397 2.9511930988 2.982926358 3.0146596171 3.0463928762 3.0781261353 3.1098593945 
3.1415926536 
_radius 1 100 double
5.5649756069e-16 0.014070885469 0.028010758803 0.041696539297 0.055018863605 0.067885401481 0.080221325899 0.091967289829 0.10307575295 
0.11350677625 0.12322444758 0.1321949133 0.14038658145 0.14777249301 0.15433427029 0.16006662148 0.16498124671 0.16910917732 
0.17250098878 0.17522480059 0.17736238082 0.17900394962 0.1802424191 0.18116781752 0.18186251177 0.18239757983 0.18283038456 
0.18320319269 0.18354263211 0.18385983911 0.18415125006 0.18440016419 0.18457944135 0.18465580424 0.18459594778 0.1843740352 
0.18397947699 0.18342345266 0.18274258173 0.18199844834 0.18127228773 0.18065516006 0.18023550247 0.18008763481 0.18026526567 
0.18080219216 0.18171899023 0.18303178686 0.18475870492 0.1869211215 0.18953942738 0.19262537015 0.1961743635 0.20016084846 
0.20453808474 0.20924151011 0.21419321703 0.21930500556 0.22447886389 0.22960568918 0.23456435981 0.23922321626 0.24344490612 
0.24709427875 0.2500481755 0.25220558424 0.25349655199 0.25388844363 0.25338861827 0.25204326493 0.24993277068 0.24716436554 
0.24386279828 0.24015951867 0.23618051686 0.23203292833 0.22779101309 0.22348312532 0.2190823385 0.21450373127 0.2096104395 
0.20422861794 0.1981692688 0.1912533851 0.183336416 0.17432852644 0.16420809048 0.15302698476 0.14090734567 0.12803044324 
0.11461915948 0.10091618277 0.087160378956 0.073563843489 0.060291923664 0.047448147648 0.035065631519 0.023106170525 0.01146770819 
8.0760247829e-16 
_area 1 100 double
0 0.00044010646566 0.0017603970337 0.0039603060308 0.0070362102783 0.01097503539 0.015744161673 0.021280511189 0.02748218228 
0.034204534737 0.041261470881 0.04843250325 0.055476029147 0.062148185096 0.068224970529 0.073523945106 0.077921535244 0.081363005688 
0.083863928804 0.085503697644 0.086412816815 0.086756441754 0.086716931667 0.086477491934 0.086206971345 0.086044115683 0.086081723448 
0.086357203698 0.086856866418 0.087532220871 0.088318129868 0.089144679181 0.089943049551 0.090650575118 0.091219316348 0.091629040952 
0.091901587675 0.092110159118 0.09237455795 0.092833316094 0.093595437745 0.094699040053 0.096103400096 0.097711339899 0.099408579157 
0.10110528177 0.10276418902 0.10441244796 0.10614506495 0.10812541864 0.11057573016 0.11373907164 0.11780063923 0.12279751189 
0.12859026812 0.13492264048 0.14151219469 0.14811649425 0.15455833105 0.16071617493 0.16649622744 0.17180577846 0.17654261283 
0.18060287809 0.1838926789 0.18631366263 0.18773194155 0.18800434238 0.18704169883 0.18483788115 0.18146637595 0.17706547395 
0.1718215905 0.16595310834 0.15969335624 0.15326945772 0.14687448869 0.14063433566 0.13457773564 0.12862434621 0.12260225471 
0.11629104284 0.10947421478 0.10198634318 0.093747888454 0.084785079782 0.07523338815 0.06532406723 0.055355528432 0.045654506053 
0.036534498527 0.028259441214 0.021018715685 0.014916353523 0.0099740660648 0.0061455922677 0.0033389617681 0.0014430067253 0.00035423391787 
4.4248997857e-17 
