# vtk DataFile Version 5.1
vtk output
ASCII
DATASET POLYDATA
POINTS 100 float
0.176029 0.0769949 -0.717259 0.175829 0.0770805 -0.717275 0.175303 0.0771537 -0.717383 
0.174468 0.0771912 -0.717465 0.173346 0.0771548 -0.717342 0.171964 0.0769929 -0.716788 
0.170344 0.0766424 -0.715562 0.168502 0.0760316 -0.713432 0.166436 0.0750843 -0.710201 
0.164132 0.0737246 -0.705727 0.161553 0.0718821 -0.699937 0.158646 0.0694978 -0.692828 
0.155345 0.0665295 -0.684468 0.151572 0.0629567 -0.674978 0.147249 0.0587838 -0.664518 
0.142303 0.0540416 -0.653261 0.136675 0.0487869 -0.641376 0.130327 0.0430996 -0.629006 
0.123244 0.0370777 -0.616253 0.115442 0.0308306 -0.603171 0.106964 0.0244715 -0.589768 
0.097876 0.0181099 -0.576006 0.0882641 0.0118437 -0.561818 0.0782251 0.00575438 -0.547117 
0.0678582 -9.7308e-05 -0.531817 0.0572566 -0.00567192 -0.515842 0.0464995 -0.0109499 -0.499141 
0.0356468 -0.0159278 -0.481687 0.024737 -0.0206123 -0.463483 0.0137874 -0.0250142 -0.444553 
0.00279861 -0.0291418 -0.424936 -0.00823849 -0.0329952 -0.404671 -0.0193336 -0.0365631 -0.383789 
-0.0304863 -0.0398213 -0.362306 -0.041676 -0.0427344 -0.340214 -0.0528533 -0.0452592 -0.317482 
-0.0639333 -0.0473507 -0.294063 -0.074794 -0.0489688 -0.269903 -0.0852773 -0.0500847 -0.24495 
-0.0951958 -0.050687 -0.219176 -0.104343 -0.0507848 -0.192579 -0.112506 -0.0504095 -0.165202 
-0.119481 -0.0496123 -0.137134 -0.125092 -0.0484598 -0.108508 -0.129198 -0.0470269 -0.0794949 
-0.131712 -0.0453891 -0.0502923 -0.132608 -0.0436133 -0.0211075 -0.131917 -0.0417515 0.00785961 
-0.129734 -0.0398349 0.0364327 -0.126203 -0.0378727 0.0644728 -0.121508 -0.0358529 0.0918857 
-0.115858 -0.0337478 0.118625 -0.10947 -0.0315216 0.144686 -0.10255 -0.0291398 0.170099 
-0.095282 -0.0265799 0.19491 -0.0878143 -0.0238397 0.21917 -0.0802525 -0.0209449 0.242918 
-0.0726581 -0.0179516 0.266169 -0.0650513 -0.0149455 0.288905 -0.0574193 -0.0120362 0.31108 
-0.0497271 -0.00934809 0.332621 -0.0419308 -0.00700761 0.353444 -0.0339913 -0.00512989 0.373467 
-0.0258868 -0.00380529 0.392627 -0.0176218 -0.00308831 0.410897 -0.00923246 -0.00299012 0.428299 
-0.000787968 -0.00347606 0.444904 0.00761391 -0.00446847 0.460834 0.0158547 -0.00585471 0.476251 
0.0238067 -0.00749958 0.491334 0.0313455 -0.00926054 0.506264 0.0383639 -0.0110039 0.521193 
0.0447825 -0.0126199 0.536222 0.0505592 -0.0140344 0.551386 0.0556932 -0.0152164 0.566639 
0.0602252 -0.0161793 0.581857 0.064232 -0.0169759 0.596846 0.0678185 -0.0176888 0.611362 
0.0711046 -0.0184158 0.625139 0.0742125 -0.019253 0.637921 0.0772524 -0.0202782 0.649496 
0.0803112 -0.0215364 0.659721 0.0834427 -0.0230293 0.668546 0.0866632 -0.0247109 0.676023 
0.0899516 -0.02649 0.682304 0.0932527 -0.0282387 0.687624 0.0964866 -0.0298073 0.692278 
0.0995591 -0.0310422 0.696582 0.102375 -0.0318067 0.700838 0.104849 -0.0319992 0.705297 
0.106919 -0.0315697 0.710123 0.108553 -0.0305294 0.715375 0.109751 -0.0289537 0.720997 
0.110546 -0.0269776 0.726823 0.110999 -0.0247833 0.732593 0.111191 -0.0225822 0.737989 
0.111212 -0.0205925 0.742667 0.111146 -0.0190159 0.746306 0.111064 -0.0180151 0.74864 
0.111013 -0.0176959 0.749495 
LINES 2 100
OFFSETS vtktypeint64
0 100 
CONNECTIVITY vtktypeint64
0 1 2 3 4 5 6 7 8 
9 10 11 12 13 14 15 16 17 
18 19 20 21 22 23 24 25 26 
27 28 29 30 31 32 33 34 35 
36 37 38 39 40 41 42 43 44 
45 46 47 48 49 50 51 52 53 
54 55 56 57 58 59 60 61 62 
63 64 65 66 67 68 69 70 71 
72 73 74 75 76 77 78 79 80 
81 82 83 84 85 86 87 88 89 
90 91 92 93 94 95 96 97 98 
99 
POINT_DATA 100
FIELD FieldData 3
_theta 1 100 double
0 0.031733259127 0.063466518254 0.095199777382 0.12693303651 0.15866629564 0.19039955476 0.22213281389 0.25386607302 
0.28559933214 0.31733259127 0.3490658504 0.38079910953 0.41253236865 0.44426562778 0.47599888691 0.50773214603 0.53946540516 
0.57119866429 0.60293192342 0.63466518254 0.66639844167 0.6981317008 0.72986495992 0.76159821905 0.79333147818 0.82506473731 
0.85679799643 0.88853125556 0.92026451469 0.95199777382 0.98373103294 1.0154642921 1.0471975512 1.0789308103 1.1106640695 
1.1423973286 1.1741305877 1.2058638468 1.237597106 1.2693303651 1.3010636242 1.3327968833 1.3645301425 1.3962634016 
1.4279966607 1.4597299198 1.491463179 1.5231964381 1.5549296972 1.5866629564 1.6183962155 1.6501294746 1.6818627337 
1.7135959929 1.745329252 1.7770625111 1.8087957702 1.8405290294 1.8722622885 1.9039955476 1.9357288068 1.9674620659 
1.999195325 2.0309285841 2.0626618433 2.0943951024 2.1261283615 2.1578616206 2.1895948798 2.2213281389 2.253061398 
2.2847946572 2.3165279163 2.3482611754 2.3799944345 2.4117276937 2.4434609528 2.4751942119 2.506927471 2.5386607302 
2.5703939893 2.6021272484 2.6338605076 2.6655937667 2.6973270258 2.7290602849 2.7607935441 2.7925268032 2.8242600623 
2.8559933214 2.8877265806 2.9194598397 2.9511930988 2.982926358 3.0146596171 3.0463928762 3.0781261353 3.1098593945 
3.1415926536 
_radius 1 100 double
4.7428748403e-16 0.016540014797 0.032898253962 0.048899399534 0.064386290469 0.079227840278 0.093325055989 0.10661430221 0.11906709233 
0.13068603673 0.14149711868 0.15153915107 0.16085197946 0.16946553423 0.17739194056 0.18462240484 0.19112958336 0.19687492423 
0.20181944065 0.20593576899 0.20921923101 0.21169588115 0.2134260797 0.21450289223 0.21504544942 0.21518815288 0.21506715753 
0.21480587373 0.21450139377 0.21421384954 0.21396071672 0.21371777179 0.21342748892 0.21301404741 0.21240217506 0.21153559509 
0.21039081306 0.20898383578 0.20737035641 0.20564189116 0.20391991224 0.20234835637 0.20108414049 0.20028577059 0.20010056956 
0.20065092914 0.20202004272 0.20423860209 0.20727546953 0.21103576307 0.21536810712 0.22007991444 0.22495737714 0.22978634527 
0.23437103896 0.23854869137 0.24219924028 0.24524998014 0.2476756784 0.2494950214 0.25076432919 0.25156928189 0.25201508079 
0.25221527112 0.25227960105 0.25230181682 0.2523489563 0.25245407151 0.25261400642 0.25279280555 0.25292982334 0.25295016301 
0.252774241 0.25232348192 0.25152056165 0.25028489184 0.2485262462 0.24614044103 0.24301023335 0.23901253229 0.23403071883 
0.22796928057 0.22076743088 0.21240871598 0.20292446551 0.19239010906 0.18091494554 0.16862799119 0.15566433061 0.14215620673 
0.1282300448 0.11400686021 0.09960216856 0.085122971117 0.070661675382 0.05628842419 0.042044026918 0.027935804761 0.013938314761 
2.7464578125e-16 
_area 1 100 double
0 0.00067614102884 0.002697825865 0.0060377962708 0.010631713166 0.016362385129 0.023054087773 0.030481069152 0.038388700552 
0.046521547659 0.054650480843 0.062591112159 0.070208491093 0.077407689857 0.084115226468 0.090259975141 0.095762426665 0.10053755058 
0.10451043764 0.10763792674 0.10992646024 0.11143811603 0.11228222687 0.11259635993 0.112524602 0.11220104643 0.11174213239 
0.11124574221 0.11079189884 0.11044155509 0.11023280092 0.11017649938 0.11025649928 0.11043814643 0.11068334723 0.11096466775 
0.11126954216 0.11159281191 0.11192863691 0.11227482632 0.11264808295 0.11309803241 0.11371032897 0.11459791389 0.1158871985 
0.11770575764 0.12017082389 0.12337253319 0.12735208608 0.13208844377 0.13750466004 0.14348363406 0.14987566816 0.15649386133 
0.16310627884 0.16943689027 0.17518395006 0.18005695529 0.18382388782 0.18635564524 0.18765695971 0.18787784066 0.18730139739 
0.18630283573 0.18527756134 0.18454914933 0.18428047168 0.18442359906 0.18474937517 0.18494239739 0.18469598746 0.18377180032 
0.18202919446 0.17943449412 0.17604941283 0.17199278744 0.16737563331 0.16222367448 0.15642655611 0.1497688754 0.14203899137 
0.13313680703 0.12312938755 0.1122548612 0.10088442976 0.089450473607 0.078353530186 0.067873771632 0.058126755975 0.049091566027 
0.040691982371 0.032877663854 0.025666574903 0.019143078013 0.013427609272 0.0086391985815 0.0048674725196 0.002162235216 0.00053997565736 
2.0383000843e-17 
