# vtk DataFile Version 5.1
vtk output
ASCII
DATASET POLYDATA
POINTS 100 float
0.169651 0.065464 -0.706669 0.169602 0.0653365 -0.706674 0.169458 0.0647959 -0.706647 
0.169203 0.0638604 -0.706508 0.168808 0.0625564 -0.706132 0.16823 0.0609151 -0.705369 
0.167415 0.0589665 -0.704056 0.166295 0.0567356 -0.70204 0.164789 0.0542377 -0.699192 
0.162805 0.0514764 -0.695424 0.160245 0.0484429 -0.690692 0.157007 0.0451175 -0.685003 
0.15299 0.0414741 -0.678406 0.148106 0.0374846 -0.670985 0.142278 0.0331265 -0.662838 
0.135459 0.0283889 -0.654069 0.127631 0.023279 -0.64476 0.118813 0.017827 -0.634967 
0.109067 0.012088 -0.624701 0.0984991 0.00614269 -0.613927 0.087255 9.40707e-05 -0.602568 
0.0755178 -0.00593753 -0.590507 0.0634977 -0.0118219 -0.577605 0.0514206 -0.0174274 -0.563715 
0.0395138 -0.0226301 -0.548702 0.0279906 -0.027322 -0.532459 0.0170349 -0.0314181 -0.514917 
0.00678724 -0.0348611 -0.496062 -0.00266622 -0.0376233 -0.475933 -0.0113002 -0.0397066 -0.454617 
-0.0191521 -0.0411388 -0.432247 -0.0263173 -0.0419684 -0.408981 -0.0329398 -0.0422579 -0.384991 
-0.039197 -0.0420767 -0.360442 -0.0452804 -0.0414937 -0.335479 -0.0513753 -0.0405722 -0.310215 
-0.0576386 -0.0393649 -0.28472 -0.0641799 -0.0379125 -0.259022 -0.0710456 -0.0362439 -0.233111 
-0.0782094 -0.0343782 -0.206948 -0.0855687 -0.0323289 -0.180476 -0.0929495 -0.0301084 -0.15364 
-0.100118 -0.0277333 -0.126397 -0.106797 -0.0252286 -0.0987321 -0.112693 -0.0226311 -0.0706703 
-0.117513 -0.019991 -0.0422789 -0.121 -0.0173712 -0.0136694 -0.122947 -0.0148451 0.0150082 
-0.123217 -0.0124924 0.0435753 -0.12176 -0.0103934 0.0718375 -0.118608 -0.00862314 0.0995996 
-0.113877 -0.00724518 0.126681 -0.107754 -0.0063062 0.152927 -0.100479 -0.00583189 0.178222 
-0.0923237 -0.00582461 0.202495 -0.0835667 -0.00626304 0.22572 -0.0744719 -0.0071038 0.247915 
-0.0652678 -0.00828484 0.269135 -0.0561322 -0.00973038 0.289466 -0.0471836 -0.0113566 0.30901 
-0.0384792 -0.0130778 0.327879 -0.030019 -0.0148124 0.346185 -0.021757 -0.0164877 0.364028 
-0.0136153 -0.0180444 0.381498 -0.00550169 -0.0194392 0.398665 0.00267395 -0.0206455 0.415584 
0.0109837 -0.0216537 0.432295 0.0194699 -0.0224698 0.448824 0.028138 -0.0231125 0.46519 
0.0369549 -0.0236108 0.481406 0.0458516 -0.0240003 0.497478 0.0547313 -0.0243203 0.513411 
0.0634796 -0.0246104 0.529204 0.0719771 -0.0249085 0.54485 0.0801115 -0.025248 0.560332 
0.0877878 -0.0256571 0.575623 0.0949364 -0.0261572 0.590681 0.101517 -0.0267626 0.605447 
0.107518 -0.0274803 0.61985 0.112956 -0.0283102 0.633805 0.117866 -0.0292454 0.647216 
0.122295 -0.030273 0.659986 0.126294 -0.0313748 0.672019 0.129912 -0.0325284 0.683225 
0.133185 -0.0337085 0.693532 0.136141 -0.034888 0.702886 0.13879 -0.0360401 0.711255 
0.141133 -0.0371394 0.718632 0.143165 -0.0381635 0.725038 0.144878 -0.0390943 0.730512 
0.14627 -0.0399191 0.735115 0.147346 -0.040631 0.738922 0.148127 -0.0412291 0.742018 
0.148644 -0.041718 0.744492 0.148941 -0.0421067 0.74643 0.149074 -0.0424073 0.747912 
0.149096 -0.0426337 0.74901 0.149063 -0.042799 0.749779 0.149016 -0.0429146 0.750262 
0.148984 -0.0429884 0.750481 
LINES 2 100
OFFSETS vtktypeint64
0 100 
CONNECTIVITY vtktypeint64
0 1 2 3 4 5 6 7 8 
9 10 11 12 13 14 15 16 17 
18 19 20 21 22 23 24 25 26 
27 28 29 30 31 32 33 34 35 
36 37 38 39 40 41 42 43 44 
45 46 47 48 49 50 51 52 53 
54 55 56 57 58 59 60 61 62 
63 64 65 66 67 68 69 70 71 
72 73 74 75 76 77 78 79 80 
81 82 83 84 85 86 87 88 89 
90 91 92 93 94 95 96 97 98 
99 
POINT_DATA 100
FIELD FieldData 3
_theta 1 100 double
0 0.031733259127 0.063466518254 0.095199777382 0.12693303651 0.15866629564 0.19039955476 0.22213281389 0.25386607302 
0.28559933214 0.31733259127 0.3490658504 0.38079910953 0.41253236865 0.44426562778 0.47599888691 0.50773214603 0.53946540516 
0.57119866429 0.60293192342 0.63466518254 0.66639844167 0.6981317008 0.72986495992 0.76159821905 0.79333147818 0.82506473731 
0.85679799643 0.88853125556 0.92026451469 0.95199777382 0.98373103294 1.0154642921 1.0471975512 1.0789308103 1.1106640695 
1.1423973286 1.1741305877 1.2058638468 1.237597106 1.2693303651 1.3010636242 1.3327968833 1.3645301425 1.3962634016 
1.4279966607 1.4597299198 1.491463179 1.5231964381 1.5549296972 1.5866629564 1.6183962155 1.6501294746 1.6818627337 
1.7135959929 1.745329252 1.7770625111 1.8087957702 1.8405290294 1.8722622885 1.9039955476 1.9357288068 1.9674620659 
1.999195325 2.0309285841 2.0626618433 2.0943951024 2.1261283615 2.1578616206 2.1895948798 2.2213281389 2.253061398 
2.2847946572 2.3165279163 2.3482611754 2.3799944345 2.4117276937 2.4434609528 2.4751942119 2.506927471 2.5386607302 
2.5703939893 2.6021272484 2.6338605076 2.6655937667 2.6973270258 2.7290602849 2.7607935441 2.7925268032 2.8242600623 
2.8559933214 2.8877265806 2.9194598397 2.9511930988 2.982926358 3.0146596171 3.0463928762 3.0781261353 3.1098593945 
3.1415926536 
_radius 1 100 double
5.8220586583e-16 0.014715931725 0.029459224424 0.044243687311 0.059065425175 0.073895122102 0.088671594205 0.10329732624 0.11763688875 
0.13151912289 0.14474369497 0.15709210485 0.16834260317 0.17828784423 0.18675354952 0.19361606539 0.19881657781 0.20236998671 
0.20436704331 0.20496921233 0.20439667515 0.20291077799 0.2007929348 0.19832244306 0.19575582068 0.19331011615 0.19115216928 
0.18939489196 0.18810013999 0.18728595603 0.18693496537 0.18700147115 0.18741678114 0.18809383582 0.18893241297 0.18982566224 
0.19066836157 0.19136709958 0.19185193268 0.19208776313 0.19208259679 0.19189005007 0.19160492674 0.19135218803 0.19127047192 
0.19149244784 0.19212673481 0.19324754689 0.19489483022 0.19708131415 0.19980015632 0.20302939975 0.20673311046 0.21086053353 
0.21534416615 0.22009714307 0.22501088416 0.22995506656 0.23478218921 0.2393374444 0.24347209334 0.24705687105 0.2499922981 
0.25221469524 0.25369850192 0.25445582348 0.25453330669 0.25400588004 0.25296730637 0.25151847161 0.24975517248 0.24775741884 
0.24558180458 0.24325752304 0.24078557987 0.23814018994 0.23527144419 0.23210888455 0.22856617482 0.22454722343 0.21995381731 
0.21469426186 0.20869198183 0.20189273241 0.19426906946 0.18582102816 0.17657254825 0.16656404525 0.15584256721 0.14445193228 
0.13242566393 0.11978497933 0.10654249913 0.092710368913 0.07831010197 0.063381271209 0.047987006919 0.032215444498 0.016177256605 
4.6262980687e-16 
_area 1 100 double
0 0.00052051473329 0.0020900491104 0.0047320634207 0.0084825693085 0.013381623006 0.019456985962 0.026701418694 0.035048497713 
0.044351965379 0.054372050176 0.064772184727 0.075130649936 0.084970801364 0.093809147151 0.10121433537 0.10686533689 0.11059591358 
0.11241499782 0.11249807737 0.11115186581 0.10876144016 0.1057329302 0.10244365255 0.099206181393 0.096247568624 0.093703707523 
0.091630606139 0.090033030286 0.088901159746 0.088233060549 0.088028879874 0.088271753181 0.088916467207 0.089894821671 0.091117955962 
0.092480011329 0.093873430273 0.095212028152 0.096454905405 0.097625227493 0.098817682963 0.10018569775 0.10189721749 0.10405589551 
0.10662336301 0.10945655139 0.11242788077 0.11547958682 0.11861894913 0.12189515369 0.12537662401 0.12913187387 0.13321223583 
0.13764172624 0.14241774054 0.14751350522 0.15286964443 0.15837461984 0.16383040129 0.16900890688 0.17345116577 0.17699915344 
0.17933759471 0.18021872222 0.17960581244 0.17757527493 0.17433630365 0.17042574803 0.16600142946 0.16175116489 0.15795670452 
0.15410310265 0.15018053767 0.14619160164 0.14213269866 0.13799992259 0.13377661323 0.12941332678 0.12481654731 0.1198568674 
0.11439536655 0.10831714714 0.101560073 0.094132225158 0.086116468146 0.077662094805 0.06896399483 0.060232029287 0.051658033781 
0.043392674969 0.035543384865 0.028193453229 0.021428546788 0.01535474598 0.010101584284 0.0058123809009 0.0026271972305 0.00066365513607 
5.817586682e-17 
