# vtk DataFile Version 5.1
vtk output
ASCII
DATASET POLYDATA
POINTS 100 float
0.119204 0.0847143 -0.699795 0.118945 0.084494 -0.699534 0.118274 0.0835899 -0.698719 
0.117285 0.0820539 -0.697341 0.116121 0.0799647 -0.695386 0.114949 0.0774147 -0.692836 
0.113934 0.0744951 -0.689666 0.113213 0.0712813 -0.685849 0.11287 0.0678202 -0.681357 
0.112917 0.0641229 -0.676157 0.113285 0.0601628 -0.670216 0.113824 0.0558802 -0.663502 
0.114315 0.051194 -0.655986 0.11449 0.046017 -0.64764 0.114061 0.0402746 -0.638443 
0.112746 0.0339238 -0.62838 0.110304 0.0269689 -0.617443 0.106561 0.0194726 -0.605633 
0.101429 0.0115605 -0.592962 0.0949154 0.00341725 -0.579449 0.0871235 -0.00472515 -0.56512 
0.0782399 -0.0126054 -0.550012 0.0685144 -0.0199562 -0.534164 0.0582325 -0.0265288 -0.517619 
0.0476846 -0.0321176 -0.500417 0.0371366 -0.0365801 -0.482597 0.0268036 -0.0398506 -0.464192 
0.0168317 -0.0419457 -0.445225 0.00728875 -0.0429614 -0.425708 -0.001834 -0.0430609 -0.405645 
-0.0106106 -0.042456 -0.385027 -0.0191605 -0.0413836 -0.363838 -0.027623 -0.0400797 -0.342056 
-0.0361287 -0.0387554 -0.319659 -0.0447734 -0.0375761 -0.296628 -0.053595 -0.0366473 -0.272951 
-0.062559 -0.0360082 -0.24863 -0.0715529 -0.035633 -0.223688 -0.0803903 -0.0354403 -0.198166 
-0.0888255 -0.0353088 -0.172128 -0.0965747 -0.0350962 -0.145662 -0.103343 -0.0346598 -0.118879 
-0.108853 -0.0338764 -0.0919028 -0.112875 -0.0326572 -0.0648733 -0.115247 -0.0309588 -0.0379344 
-0.115891 -0.0287867 -0.0112289 -0.114823 -0.0261929 0.0151093 -0.112149 -0.023268 0.0409613 
-0.108055 -0.0201285 0.0662294 -0.102786 -0.0169027 0.0908404 -0.0966255 -0.013716 0.114748 
-0.0898673 -0.0106787 0.137933 -0.0827907 -0.00787617 0.160402 -0.0756379 -0.00536512 0.18218 
-0.068597 -0.00317316 0.203311 -0.0617922 -0.00130339 0.223848 -0.0552815 0.000258081 0.243849 
-0.0490617 0.00153296 0.263371 -0.0430797 0.00254153 0.282465 -0.0372479 0.0032951 0.301173 
-0.0314628 0.00379127 0.319524 -0.0256226 0.00401275 0.337538 -0.0196434 0.00393 0.355223 
-0.0134718 0.00350691 0.372577 -0.00709191 0.00270884 0.389594 -0.000527937 0.00151123 0.406265 
0.00615926 -9.2385e-05 0.42258 0.0128795 -0.00208461 0.438533 0.0195238 -0.0044217 0.454119 
0.0259768 -0.00703488 0.469339 0.0321292 -0.00983549 0.484197 0.0378884 -0.0127234 0.498697 
0.0431873 -0.0155974 0.512845 0.0479895 -0.0183664 0.52664 0.0522907 -0.0209594 0.540077 
0.0561168 -0.0233332 0.55314 0.0595192 -0.0254762 0.565806 0.0625681 -0.0274087 0.578039 
0.0653439 -0.0291779 0.589794 0.067929 -0.0308501 0.60102 0.0704004 -0.0325001 0.611659 
0.0728235 -0.0341992 0.621653 0.0752474 -0.0360043 0.630949 0.0777031 -0.037949 0.639497 
0.0802028 -0.0400382 0.647261 0.082742 -0.0422465 0.654219 0.0853017 -0.0445218 0.660364 
0.0878524 -0.0467914 0.665707 0.0903581 -0.0489725 0.670276 0.0927795 -0.0509829 0.674115 
0.095078 -0.052752 0.677279 0.0972178 -0.05423 0.679836 0.0991678 -0.0553938 0.681861 
0.100902 -0.0562488 0.683429 0.102401 -0.0568272 0.684617 0.103649 -0.0571816 0.685494 
0.104635 -0.0573763 0.686124 0.105352 -0.0574767 0.686558 0.105795 -0.0575388 0.686834 
0.105961 -0.0576006 0.686976 
LINES 2 100
OFFSETS vtktypeint64
0 100 
CONNECTIVITY vtktypeint64
0 1 2 3 4 5 6 7 8 
9 10 11 12 13 14 15 16 17 
18 19 20 21 22 23 24 25 26 
27 28 29 30 31 32 33 34 35 
36 37 38 39 40 41 42 43 44 
45 46 47 48 49 50 51 52 53 
54 55 56 57 58 59 60 61 62 
63 64 65 66 67 68 69 70 71 
72 73 74 75 76 77 78 79 80 
81 82 83 84 85 86 87 88 89 
90 91 92 93 94 95 96 97 98 
99 
POINT_DATA 100
FIELD FieldData 3
_theta 1 100 double
0 0.031733259127 0.063466518254 0.095199777382 0.12693303651 0.15866629564 0.19039955476 0.22213281389 0.25386607302 
0.28559933214 0.31733259127 0.3490658504 0.38079910953 0.41253236865 0.44426562778 0.47599888691 0.50773214603 0.53946540516 
0.57119866429 0.60293192342 0.63466518254 0.66639844167 0.6981317008 0.72986495992 0.76159821905 0.79333147818 0.82506473731 
0.85679799643 0.88853125556 0.92026451469 0.95199777382 0.98373103294 1.0154642921 1.0471975512 1.0789308103 1.1106640695 
1.1423973286 1.1741305877 1.2058638468 1.237597106 1.2693303651 1.3010636242 1.3327968833 1.3645301425 1.3962634016 
1.4279966607 1.4597299198 1.491463179 1.5231964381 1.5549296972 1.5866629564 1.6183962155 1.6501294746 1.6818627337 
1.7135959929 1.745329252 1.7770625111 1.8087957702 1.8405290294 1.8722622885 1.9039955476 1.9357288068 1.9674620659 
1.999195325 2.0309285841 2.0626618433 2.0943951024 2.1261283615 2.1578616206 2.1895948798 2.2213281389 2.253061398 
2.2847946572 2.3165279163 2.3482611754 2.3799944345 2.4117276937 2.4434609528 2.4751942119 2.506927471 2.5386607302 
2.5703939893 2.6021272484 2.6338605076 2.6655937667 2.6973270258 2.7290602849 2.7607935441 2.7925268032 2.8242600623 
2.8559933214 2.8877265806 2.9194598397 2.9511930988 2.982926358 3.0146596171 3.0463928762 3.0781261353 3.1098593945 
3.1415926536 
_radius 1 100 double
1.3340734094e-15 0.014139759109 0.028367907941 0.042740670928 0.057277118501 0.07194865293 0.08667473023 0.10132440056 0.11572288913 
0.12966237474 0.14291607961 0.15525471001 0.16646420007 0.1763635908 0.18482169516 0.1917710032 0.19721719096 0.20124274308 
0.20400363061 0.20571863428 0.20665165144 0.20708811197 0.20730751092 0.20755511363 0.20801690674 0.20880220186 0.20993715384 
0.21136983486 0.21298470097 0.21462290912 0.21610541026 0.2172570269 0.21793038606 0.21802798359 0.21751942462 0.21645027841 
0.21493984552 0.21316750156 0.2113505948 0.20971986417 0.20849901209 0.20789211347 0.20807740201 0.2092021692 0.21137350845 
0.21464326674 0.21899080056 0.22431094723 0.23041427926 0.23704218678 0.2438938593 0.25065910751 0.25705078672 0.26283203402 
0.26783532535 0.2719719691 0.27523201819 0.27767572167 0.27941849122 0.28061182554 0.28142266849 0.28201335832 0.28252385673 
0.28305753381 0.28367150712 0.28437228919 0.28511710959 0.28582065893 0.28636625578 0.28661978457 0.28644438753 0.2857138901 
0.28432326534 0.28219501862 0.27928110277 0.27556074538 0.27103524814 0.26572125071 0.25964401113 0.25283191196 0.24531278108 
0.23711197159 0.22825173653 0.2187513789 0.20862787308 0.19789691367 0.1865744341 0.17467848857 0.16223114259 0.14925988806 
0.13579820788 0.12188520579 0.10756452532 0.092882965306 0.077889209415 0.062632957044 0.047164543671 0.031534942053 0.015795905379 
8.3732283317e-16 
_area 1 100 double
0 0.00057840376835 0.0023255020269 0.005270540858 0.0094427528586 0.014847778879 0.021443895286 0.029124246075 0.037709844608 
0.046954289577 0.056557003848 0.066180315008 0.07546739695 0.084061382653 0.091628509252 0.097887829926 0.10264617769 0.10583158501 
0.10751467611 0.10790817122 0.10733983675 0.10620249227 0.10489371389 0.10376690498 0.10335632971 0.10407072788 0.10551916918 
0.10737312054 0.10942953314 0.11151894063 0.11352123058 0.11529357404 0.11691597292 0.11834712471 0.11957041243 0.12052046723 
0.12112535227 0.12145355012 0.12165576607 0.12191199488 0.12238568331 0.12320431851 0.12445820037 0.12622075872 0.12859917392 
0.13179374024 0.13611552763 0.14189007448 0.14923714926 0.15794453931 0.16756174604 0.1775349955 0.18730121356 0.19636263017 
0.20434727185 0.21104551304 0.21641343104 0.22054319033 0.22361302476 0.225836499 0.22742781021 0.22858871742 0.22950960193 
0.23036901568 0.23131804271 0.23244927997 0.23376585468 0.23516640455 0.23644809435 0.23732213145 0.23744282521 0.23645742076 
0.23407107372 0.23010203182 0.22450590341 0.21736719445 0.20886879052 0.19925228563 0.18877912764 0.1776985506 0.1662251292 
0.15452664201 0.14272150033 0.13088427985 0.11905770441 0.10726924507 0.095549778537 0.08395065259 0.072555145492 0.061481657863 
0.05087851203 0.040912431677 0.03175373396 0.023561239133 0.016469532509 0.010580766182 0.0059624626377 0.0026515171998 0.00066289952665 
8.7596571721e-17 
