# vtk DataFile Version 5.1
vtk output
ASCII
DATASET POLYDATA
POINTS 100 float
0.0510545 0.0709418 -0.722039 0.0510486 0.0707079 -0.721239 0.0509621 0.0699248 -0.719028 
0.0507543 0.0686637 -0.715482 0.0503623 0.0670313 -0.710714 0.0497079 0.0651548 -0.704864 
0.0487053 0.0631649 -0.698087 0.04727 0.0611771 -0.690534 0.0453271 0.0592755 -0.682341 
0.0428184 0.0575 -0.673615 0.039708 0.0558402 -0.664431 0.0359853 0.0542348 -0.654826 
0.0316649 0.0525778 -0.644801 0.0267848 0.0507316 -0.634327 0.0214015 0.0485429 -0.623356 
0.0155842 0.045862 -0.611829 0.00940811 0.0425617 -0.599687 0.00294731 0.0385533 -0.586884 
-0.00373082 0.0337985 -0.573389 -0.0105699 0.0283157 -0.559195 -0.0175269 0.0221796 -0.544314 
-0.0245716 0.0155143 -0.528777 -0.031685 0.00848205 -0.512628 -0.0388545 0.0012671 -0.495916 
-0.0460691 -0.00594079 -0.478686 -0.0533139 -0.0129631 -0.460975 -0.0605644 -0.0196464 -0.442804 
-0.0677825 -0.0258721 -0.424177 -0.0749146 -0.0315612 -0.405085 -0.0818914 -0.0366737 -0.385502 
-0.0886297 -0.0412027 -0.365397 -0.0950375 -0.045166 -0.344736 -0.101019 -0.0485939 -0.323495 
-0.106482 -0.0515182 -0.301656 -0.111346 -0.0539622 -0.279223 -0.115544 -0.0559331 -0.256214 
-0.119032 -0.0574194 -0.232667 -0.121789 -0.0583918 -0.208634 -0.123814 -0.0588087 -0.184178 
-0.125131 -0.0586247 -0.159369 -0.125772 -0.0578008 -0.134281 -0.125783 -0.0563149 -0.108984 
-0.125206 -0.0541709 -0.0835454 -0.124079 -0.0514048 -0.0580309 -0.122426 -0.0480869 -0.0325047 
-0.120255 -0.0443197 -0.00703343 -0.117557 -0.0402317 0.0183094 -0.114305 -0.0359673 0.0434407 
-0.110463 -0.0316753 0.0682653 -0.105986 -0.0274959 0.0926762 -0.100839 -0.0235492 0.116558 
-0.0949942 -0.0199263 0.139792 -0.0884484 -0.0166836 0.162265 -0.0812252 -0.0138418 0.183878 
-0.0733794 -0.011389 0.204558 -0.064998 -0.00928749 0.224265 -0.0561958 -0.00748391 0.242997 
-0.0471093 -0.00592009 0.260797 -0.0378857 -0.00454409 0.277746 -0.0286719 -0.0033194 0.293959 
-0.0196012 -0.0022312 0.309574 -0.0107818 -0.0012889 0.324739 -0.00228739 -0.000524526 0.339594 
0.00584913 1.25635e-05 0.354261 0.0136375 0.000264021 0.368828 0.0211273 0.00017258 0.383341 
0.0284004 -0.000307526 0.397802 0.0355601 -0.00120127 0.412172 0.042717 -0.00250598 0.426378 
0.0499741 -0.00418786 0.440324 0.0574122 -0.00618238 0.453912 0.0650775 -0.00839861 0.467052 
0.0729729 -0.0107268 0.479681 0.081054 -0.0130483 0.49177 0.0892303 -0.015247 0.503335 
0.0973721 -0.0172197 0.514429 0.105321 -0.0188863 0.525141 0.112907 -0.0201957 0.535578 
0.11996 -0.0211301 0.545847 0.126334 -0.0217046 0.556041 0.131915 -0.0219635 0.566213 
0.136637 -0.0219745 0.576366 0.140486 -0.0218197 0.586443 0.143504 -0.0215871 0.596325 
0.145781 -0.0213613 0.605837 0.147449 -0.0212155 0.614767 0.148666 -0.0212058 0.622884 
0.149596 -0.0213676 0.629965 0.150402 -0.0217147 0.635823 0.151217 -0.0222401 0.640331 
0.152142 -0.0229194 0.643443 0.153232 -0.0237151 0.645201 0.154493 -0.024581 0.645744 
0.155888 -0.0254676 0.645291 0.157338 -0.0263256 0.644127 0.158742 -0.0271097 0.642573 
0.159987 -0.0277807 0.640956 0.160962 -0.0283074 0.639576 0.161579 -0.0286665 0.638672 
0.161778 -0.0288438 0.638399 
LINES 2 100
OFFSETS vtktypeint64
0 100 
CONNECTIVITY vtktypeint64
0 1 2 3 4 5 6 7 8 
9 10 11 12 13 14 15 16 17 
18 19 20 21 22 23 24 25 26 
27 28 29 30 31 32 33 34 35 
36 37 38 39 40 41 42 43 44 
45 46 47 48 49 50 51 52 53 
54 55 56 57 58 59 60 61 62 
63 64 65 66 67 68 69 70 71 
72 73 74 75 76 77 78 79 80 
81 82 83 84 85 86 87 88 89 
90 91 92 93 94 95 96 97 98 
99 
POINT_DATA 100
FIELD FieldData 3
_theta 1 100 double
0 0.031733259127 0.063466518254 0.095199777382 0.12693303651 0.15866629564 0.19039955476 0.22213281389 0.25386607302 
0.28559933214 0.31733259127 0.3490658504 0.38079910953 0.41253236865 0.44426562778 0.47599888691 0.50773214603 0.53946540516 
0.57119866429 0.60293192342 0.63466518254 0.66639844167 0.6981317008 0.72986495992 0.76159821905 0.79333147818 0.82506473731 
0.85679799643 0.88853125556 0.92026451469 0.95199777382 0.98373103294 1.0154642921 1.0471975512 1.0789308103 1.1106640695 
1.1423973286 1.1741305877 1.2058638468 1.237597106 1.2693303651 1.3010636242 1.3327968833 1.3645301425 1.3962634016 
1.4279966607 1.4597299198 1.491463179 1.5231964381 1.5549296972 1.5866629564 1.6183962155 1.6501294746 1.6818627337 
1.7135959929 1.745329252 1.7770625111 1.8087957702 1.8405290294 1.8722622885 1.9039955476 1.9357288068 1.9674620659 
1.999195325 2.0309285841 2.0626618433 2.0943951024 2.1261283615 2.1578616206 2.1895948798 2.2213281389 2.253061398 
2.2847946572 2.3165279163 2.3482611754 2.3799944345 2.4117276937 2.4434609528 2.4751942119 2.506927471 2.5386607302 
2.5703939893 2.6021272484 2.6338605076 2.6655937667 2.6973270258 2.7290602849 2.7607935441 2.7925268032 2.8242600623 
2.8559933214 2.8877265806 2.9194598397 2.9511930988 2.982926358 3.0146596171 3.0463928762 3.0781261353 3.1098593945 
3.1415926536 
_radius 1 100 double
6.804363002e-16 0.010800810217 0.021637802497 0.032548191912 0.043559839984 0.054682237916 0.065895502962 0.077139740665 0.088308019585 
0.099246467542 0.10976399054 0.11965139088 0.12870642044 0.13675960226 0.14369610566 0.14947048634 0.1541125196 0.15772335555 
0.16046214572 0.16252450332 0.16411568125 0.16542279917 0.16659120853 0.16770958712 0.16880643844 0.16985785713 0.1708037788 
0.17156844896 0.17208080676 0.17229145014 0.17218415481 0.17178108058 0.17114166146 0.17035582363 0.16953276244 0.16878709448 
0.16822468032 0.16793057702 0.16796118001 0.16834155175 0.16906753347 0.17011120771 0.17142812164 0.17296521789 0.17466906368 
0.17649421763 0.17841124262 0.18041316697 0.18251868098 0.18477057209 0.18722887133 0.18995944654 0.19301992383 0.19644564097 
0.20023849148 0.20436069061 0.20873409653 0.21324464836 0.21775107554 0.22209693769 0.22612489357 0.22969177567 0.23268265055 
0.23502178249 0.23667854805 0.23766702186 0.23803906448 0.2378719816 0.23725283478 0.23626203247 0.23495885762 0.23337117325 
0.23149081954 0.22927528408 0.22665519448 0.22354620365 0.21986312808 0.21553393785 0.21051141509 0.2047808598 0.19836292728 
0.19131136711 0.18370603013 0.17564202456 0.16721637426 0.15851397046 0.14959493464 0.14048555231 0.13117451853 0.12161533735 
0.11173456124 0.10144450819 0.090658441642 0.079306005125 0.067346857198 0.054780804727 0.041653200293 0.028054929586 0.014116949799 
8.7082091166e-16 
_area 1 100 double
0 0.00035897161495 0.0014414075008 0.0032620082131 0.00583940512 0.0091884149234 0.013310798088 0.018184572904 0.023750366934 
0.029894589639 0.036435749612 0.043126060495 0.049676459807 0.055800798194 0.061264921473 0.065924965256 0.069744852216 0.072791247883 
0.075210630864 0.077194980893 0.07894126087 0.080609832613 0.082290215886 0.083985111728 0.085619586289 0.087072454205 0.088218498149 
0.088967980411 0.089292257728 0.089228899116 0.08886729462 0.088324696601 0.087724956407 0.087184378859 0.086800468344 0.086640700651 
0.086736171892 0.087084679417 0.087662654367 0.088443987612 0.089419299936 0.09060408926 0.092028581227 0.093712861197 0.095639886719 
0.097742628561 0.099916044796 0.10205244156 0.10408768353 0.10604019755 0.10802614886 0.11024264066 0.1129235688 0.116283836 
0.12047017618 0.12552964827 0.13139711739 0.1378981939 0.14476396278 0.1516551878 0.15819515196 0.16401004338 0.16877311899 
0.17224646155 0.17431341144 0.17499366987 0.17443191992 0.17285738498 0.17053094458 0.16770338988 0.1645859494 0.1613232747 
0.15797226454 0.15449712046 0.15078531803 0.14668053684 0.14202328747 0.13668900556 0.1306153533 0.12381406377 0.11636693459 
0.10840943067 0.10010762404 0.091634290533 0.083148425645 0.074780583954 0.066625281712 0.058741020285 0.051157464308 0.043887803544 
0.036943177611 0.030346028054 0.024140170256 0.01839638458 0.013212856851 0.0087100544803 0.0050201393394 0.0022720239322 0.00057440277762 
5.7300031979e-17 
