# vtk DataFile Version 5.1
vtk output
ASCII
DATASET POLYDATA
POINTS 100 float
0.0501834 0.0583471 -0.60357 0.0500011 0.0581848 -0.60286 0.0494779 0.0574854 -0.60073 
0.0486782 0.0562592 -0.597257 0.0476996 0.0545238 -0.592563 0.0466599 0.0523018 -0.586807 
0.0456808 0.0496182 -0.580171 0.0448699 0.0464981 -0.572847 0.0443049 0.0429644 -0.565023 
0.0440198 0.0390365 -0.556869 0.0439961 0.0347306 -0.548523 0.0441595 0.0300606 -0.540085 
0.0443837 0.0250404 -0.531608 0.0444989 0.0196873 -0.5231 0.0443065 0.0140257 -0.514521 
0.0435973 0.00809074 -0.505795 0.0421707 0.00193101 -0.496815 0.0398546 -0.0043893 -0.487458 
0.0365218 -0.0107903 -0.477595 0.0321027 -0.0171776 -0.467107 0.0265927 -0.0234461 -0.455894 
0.0200523 -0.029484 -0.443886 0.0126019 -0.0351795 -0.431047 0.00441053 -0.0404268 -0.41738 
-0.00432015 -0.0451326 -0.402922 -0.0133738 -0.0492223 -0.387738 -0.0225383 -0.0526436 -0.371917 
-0.0316236 -0.0553698 -0.355556 -0.0404755 -0.0574 -0.338754 -0.0489855 -0.0587578 -0.321597 
-0.0570945 -0.0594878 -0.30415 -0.0647906 -0.0596507 -0.286452 -0.0721019 -0.0593178 -0.268513 
-0.0790843 -0.0585642 -0.250314 -0.0858062 -0.0574635 -0.231812 -0.0923327 -0.0560822 -0.21295 
-0.0987095 -0.0544762 -0.193661 -0.10495 -0.0526881 -0.173886 -0.111027 -0.0507469 -0.15358 
-0.116867 -0.0486688 -0.132721 -0.122353 -0.0464588 -0.111319 -0.127331 -0.0441145 -0.0894151 
-0.131621 -0.0416288 -0.0670862 -0.135031 -0.038994 -0.0444358 -0.137375 -0.0362046 -0.0215895 
-0.13849 -0.0332603 0.001315 -0.138248 -0.0301673 0.024138 -0.136571 -0.0269398 0.0467481 
-0.133435 -0.0235999 0.069031 -0.128877 -0.0201769 0.090896 -0.122988 -0.0167068 0.112279 
-0.115909 -0.0132307 0.133144 -0.107817 -0.00979366 0.15348 -0.098914 -0.00644334 0.173295 
-0.0894112 -0.00322866 0.192611 -0.0795136 -0.000198727 0.211455 -0.069408 0.00259831 0.229854 
-0.0592531 0.00511644 0.247828 -0.0491725 0.00731303 0.265389 -0.0392523 0.00915019 0.282538 
-0.0295426 0.0105963 0.299268 -0.0200616 0.0116275 0.315566 -0.0108033 0.0122292 0.331421 
-0.00174532 0.0123973 0.346827 0.00714132 0.0121388 0.361787 0.0158844 0.0114721 0.376317 
0.0245033 0.0104264 0.39045 0.0330045 0.0090401 0.404229 0.0413796 0.00735911 0.417704 
0.049605 0.00543394 0.430929 0.057645 0.00331692 0.443949 0.0654557 0.00105925 0.456797 
0.0729901 -0.00129159 0.469483 0.0802037 -0.00369367 0.481987 0.0870592 -0.00611169 0.494265 
0.0935303 -0.00851694 0.506239 0.0996039 -0.0108863 0.51781 0.105281 -0.0132004 0.528862 
0.110574 -0.0154411 0.539274 0.115507 -0.017589 0.548932 0.120109 -0.0196211 0.557737 
0.124413 -0.0215095 0.565623 0.128449 -0.0232204 0.572558 0.132244 -0.0247153 0.578549 
0.135815 -0.0259531 0.583645 0.139174 -0.0268938 0.587931 0.142321 -0.0275023 0.591518 
0.145253 -0.0277539 0.594534 0.147959 -0.0276383 0.597111 0.150427 -0.0271641 0.599373 
0.152645 -0.0263607 0.601421 0.154604 -0.0252794 0.60333 0.1563 -0.0239916 0.605141 
0.157733 -0.0225856 0.606862 0.158909 -0.0211608 0.60847 0.159838 -0.0198206 0.609919 
0.160534 -0.0186649 0.61115 0.161008 -0.0177818 0.612103 0.161273 -0.0172401 0.612724 
0.161334 -0.0170843 0.612978 
LINES 2 100
OFFSETS vtktypeint64
0 100 
CONNECTIVITY vtktypeint64
0 1 2 3 4 5 6 7 8 
9 10 11 12 13 14 15 16 17 
18 19 20 21 22 23 24 25 26 
27 28 29 30 31 32 33 34 35 
36 37 38 39 40 41 42 43 44 
45 46 47 48 49 50 51 52 53 
54 55 56 57 58 59 60 61 62 
63 64 65 66 67 68 69 70 71 
72 73 74 75 76 77 78 79 80 
81 82 83 84 85 86 87 88 89 
90 91 92 93 94 95 96 97 98 
99 
POINT_DATA 100
FIELD FieldData 3
_theta 1 100 double
0 0.031733259127 0.063466518254 0.095199777382 0.12693303651 0.15866629564 0.19039955476 0.22213281389 0.25386607302 
0.28559933214 0.31733259127 0.3490658504 0.38079910953 0.41253236865 0.44426562778 0.47599888691 0.50773214603 0.53946540516 
0.57119866429 0.60293192342 0.63466518254 0.66639844167 0.6981317008 0.72986495992 0.76159821905 0.79333147818 0.82506473731 
0.85679799643 0.88853125556 0.92026451469 0.95199777382 0.98373103294 1.0154642921 1.0471975512 1.0789308103 1.1106640695 
1.1423973286 1.1741305877 1.2058638468 1.237597106 1.2693303651 1.3010636242 1.3327968833 1.3645301425 1.3962634016 
1.4279966607 1.4597299198 1.491463179 1.5231964381 1.5549296972 1.5866629564 1.6183962155 1.6501294746 1.6818627337 
1.7135959929 1.745329252 1.7770625111 1.8087957702 1.8405290294 1.8722622885 1.9039955476 1.9357288068 1.9674620659 
1.999195325 2.0309285841 2.0626618433 2.0943951024 2.1261283615 2.1578616206 2.1895948798 2.2213281389 2.253061398 
2.2847946572 2.3165279163 2.3482611754 2.3799944345 2.4117276937 2.4434609528 2.4751942119 2.506927471 2.5386607302 
2.5703939893 2.6021272484 2.6338605076 2.6655937667 2.6973270258 2.7290602849 2.7607935441 2.7925268032 2.8242600623 
2.8559933214 2.8877265806 2.9194598397 2.9511930988 2.982926358 3.0146596171 3.0463928762 3.0781261353 3.1098593945 
3.1415926536 
_radius 1 100 double
1.4447070392e-15 0.011458441525 0.022847757616 0.03409685367 0.045145188572 0.055946868559 0.066472694033 0.076709489358 0.086656343764 
0.096317937213 0.10569583148 0.11477928131 0.12353754459 0.13191568304 0.13983537999 0.14720139761 0.15391310582 0.15987931309 
0.16503374907 0.16934825077 0.17284106307 0.17557856185 0.17766991943 0.17925551419 0.18049099614 0.181529618 0.18250554356 
0.18352034219 0.18463399267 0.1858608116 0.18717009748 0.18849103627 0.189721413 0.19073968224 0.19141980544 0.19164792655 
0.19133944018 0.19045441638 0.1890089634 0.18708026308 0.18480383116 0.18236291248 0.17997150439 0.1778537972 0.17622320068 
0.17526333467 0.17511203648 0.17584872409 0.17748583183 0.17996578612 0.18316500389 0.18690532818 0.19097177877 0.19513430175 
0.19917067264 0.20288772563 0.20613846155 0.20883323637 0.21094408078 0.21250212529 0.21358893127 0.21432310509 0.21484383729 
0.21529303785 0.21579771136 0.21645429461 0.21731682654 0.21839071433 0.2196331058 0.22095947757 0.22225461403 0.22338544904 
0.22421349527 0.22460538052 0.22444078644 0.22361757836 0.22205419426 0.2196896115 0.21648151571 0.21240358048 0.20744286912 
0.20159818366 0.19487972879 0.18730987538 0.1789243034 0.16977256796 0.15991727227 0.14943152055 0.13839497364 0.1268893371 
0.11499421279 0.10278392872 0.09032548641 0.077677437625 0.064889427268 0.052002215582 0.039048093362 0.026051682324 0.013031166078 
8.4570130393e-16 
_area 1 100 double
0 0.00040994831056 0.0016224306226 0.0035873593704 0.0062277015213 0.0094483840982 0.01314719744 0.017226001362 0.021599966968 
0.026202247959 0.030981747637 0.035893112954 0.04088099203 0.045863648771 0.050722172542 0.055300326333 0.059417498077 0.062893826052 
0.065582804675 0.067403661994 0.068364805164 0.068571348465 0.068214616986 0.067549541514 0.066875659966 0.066611583807 0.06709371492 
0.068133042028 0.069639688241 0.07154005517 0.073772566722 0.076275617123 0.078960523517 0.081704107356 0.084354039067 0.08674443161 
0.0887172965 0.090143650339 0.09094224026 0.091097783331 0.090677253845 0.089836672484 0.08881200043 0.087893317727 0.087379919943 
0.087515324622 0.08844361986 0.090221831949 0.09284580689 0.096259263662 0.10035666219 0.10498780829 0.1099637465 0.11506413185 
0.1200495454 0.12468137883 0.12874736433 0.13208717531 0.13461194466 0.13631337592 0.13726114755 0.1375904371 0.13748329153 
0.13714690364 0.13678928967 0.1365919514 0.13668222101 0.13711172475 0.13784629188 0.13876813182 0.13968956061 0.1403786388 
0.14059439453 0.14012321392 0.13880614669 0.13655112396 0.1333297017 0.1291628558 0.12410403791 0.11822665969 0.11161739962 
0.10437299839 0.09659915085 0.088411654087 0.079939211029 0.071325065415 0.062723916394 0.054293080585 0.046180760003 0.038516121907 
0.031404350283 0.024926518147 0.019141940955 0.014091058626 0.0097986135103 0.0062776926829 0.0035344284133 0.0015720793432 0.00039323316599 
6.1471779593e-17 
