# vtk DataFile Version 5.1
vtk output
ASCII
DATASET POLYDATA
POINTS 100 float
0.233952 0.0539955 -0.629198 0.233581 0.0539159 -0.629223 0.23249 0.0535341 -0.629322 
0.230698 0.0528659 -0.629414 0.228228 0.0519335 -0.629377 0.225112 0.0507607 -0.629055 
0.221376 0.0493676 -0.62828 0.217045 0.0477654 -0.626891 0.212132 0.0459528 -0.624744 
0.206639 0.043914 -0.621728 0.200554 0.0416196 -0.617774 0.193859 0.0390298 -0.612855 
0.186527 0.0361003 -0.606983 0.178533 0.0327895 -0.600201 0.169861 0.0290664 -0.592572 
0.160508 0.024918 -0.584164 0.150494 0.0203552 -0.57504 0.139862 0.0154161 -0.565248 
0.128681 0.0101664 -0.554809 0.117046 0.00469581 -0.543723 0.105068 -0.000887501 -0.531963 
0.0928717 -0.00646584 -0.519488 0.080581 -0.0119215 -0.506248 0.0683115 -0.0171467 -0.492197 
0.0561586 -0.022052 -0.477299 0.0441897 -0.0265726 -0.461539 0.0324388 -0.0306715 -0.444926 
0.0209048 -0.034339 -0.427489 0.00955445 -0.0375889 -0.40928 -0.00167084 -0.0404518 -0.390358 
-0.0128438 -0.0429665 -0.370787 -0.0240382 -0.0451712 -0.350623 -0.0353136 -0.0470946 -0.329905 
-0.046701 -0.04875 -0.308649 -0.0581909 -0.050131 -0.28685 -0.0697236 -0.0512119 -0.264485 
-0.0811856 -0.0519501 -0.241517 -0.092411 -0.0522929 -0.217911 -0.103189 -0.0521854 -0.193646 
-0.113274 -0.0515793 -0.168728 -0.122406 -0.0504422 -0.1432 -0.130327 -0.0487637 -0.117154 
-0.136802 -0.0465605 -0.0907276 -0.141637 -0.0438766 -0.0641012 -0.144697 -0.0407812 -0.0374891 
-0.145918 -0.0373627 -0.0111224 -0.145311 -0.0337207 0.0147686 -0.142961 -0.0299566 0.0399751 
-0.139024 -0.0261647 0.0643271 -0.133713 -0.0224241 0.0877084 -0.127278 -0.0187938 0.110065 
-0.119993 -0.01531 0.131407 -0.112131 -0.0119884 0.151802 -0.103945 -0.0088275 0.171364 
-0.0956545 -0.00581658 0.190236 -0.0874294 -0.0029432 0.208569 -0.0793852 -0.000201579 0.226503 
-0.0715811 0.00240069 0.244149 -0.0640234 0.00483842 0.261577 -0.0566745 0.00706785 0.278806 
-0.0494655 0.0090293 0.295809 -0.0423102 0.0106531 0.312521 -0.0351201 0.0118682 0.328851 
-0.0278185 0.0126119 0.344697 -0.0203519 0.0128397 0.359972 -0.0126978 0.0125338 0.374615 
-0.00486884 0.0117084 0.388606 0.00308797 0.0104112 0.401975 0.0110953 0.00872123 0.414799 
0.019053 0.00674205 0.427196 0.0268485 0.0045917 0.439312 0.0343667 0.00239071 0.451303 
0.0415013 0.000249416 0.463311 0.0481635 -0.00174362 0.475448 0.0542895 -0.00353054 0.487778 
0.0598438 -0.00508919 0.500307 0.064821 -0.00643364 0.512979 0.0692432 -0.00760985 0.52568 
0.0731556 -0.00868724 0.538252 0.0766201 -0.00974722 0.550505 0.0797077 -0.0108702 0.562248 
0.082491 -0.0121227 0.573299 0.0850371 -0.0135467 0.583516 0.0874027 -0.0151523 0.592802 
0.0896297 -0.016915 0.601122 0.0917443 -0.0187776 0.608499 0.0937576 -0.0206576 0.615007 
0.0956671 -0.0224568 0.620762 0.0974613 -0.0240752 0.625899 0.0991228 -0.0254238 0.630557 
0.100633 -0.026437 0.634855 0.101977 -0.0270819 0.63888 0.103144 -0.0273629 0.642675 
0.104128 -0.027322 0.646233 0.104934 -0.0270337 0.649508 0.105568 -0.0265951 0.652414 
0.106042 -0.0261139 0.654849 0.106368 -0.0256938 0.656706 0.106557 -0.0254213 0.657895 
0.106616 -0.0253538 0.658354 
LINES 2 100
OFFSETS vtktypeint64
0 100 
CONNECTIVITY vtktypeint64
0 1 2 3 4 5 6 7 8 
9 10 11 12 13 14 15 16 17 
18 19 20 21 22 23 24 25 26 
27 28 29 30 31 32 33 34 35 
36 37 38 39 40 41 42 43 44 
45 46 47 48 49 50 51 52 53 
54 55 56 57 58 59 60 61 62 
63 64 65 66 67 68 69 70 71 
72 73 74 75 76 77 78 79 80 
81 82 83 84 85 86 87 88 89 
90 91 92 93 94 95 96 97 98 
99 
POINT_DATA 100
FIELD FieldData 3
_theta 1 100 double
0 0.031733259127 0.063466518254 0.095199777382 0.12693303651 0.15866629564 0.19039955476 0.22213281389 0.25386607302 
0.28559933214 0.31733259127 0.3490658504 0.38079910953 0.41253236865 0.44426562778 0.47599888691 0.50773214603 0.53946540516 
0.57119866429 0.60293192342 0.63466518254 0.66639844167 0.6981317008 0.72986495992 0.76159821905 0.79333147818 0.82506473731 
0.85679799643 0.88853125556 0.92026451469 0.95199777382 0.98373103294 1.0154642921 1.0471975512 1.0789308103 1.1106640695 
1.1423973286 1.1741305877 1.2058638468 1.237597106 1.2693303651 1.3010636242 1.3327968833 1.3645301425 1.3962634016 
1.4279966607 1.4597299198 1.491463179 1.5231964381 1.5549296972 1.5866629564 1.6183962155 1.6501294746 1.6818627337 
1.7135959929 1.745329252 1.7770625111 1.8087957702 1.8405290294 1.8722622885 1.9039955476 1.9357288068 1.9674620659 
1.999195325 2.0309285841 2.0626618433 2.0943951024 2.1261283615 2.1578616206 2.1895948798 2.2213281389 2.253061398 
2.2847946572 2.3165279163 2.3482611754 2.3799944345 2.4117276937 2.4434609528 2.4751942119 2.506927471 2.5386607302 
2.5703939893 2.6021272484 2.6338605076 2.6655937667 2.6973270258 2.7290602849 2.7607935441 2.7925268032 2.8242600623 
2.8559933214 2.8877265806 2.9194598397 2.9511930988 2.982926358 3.0146596171 3.0463928762 3.0781261353 3.1098593945 
3.1415926536 
_radius 1 100 double
1.1175066551e-15 0.01689202332 0.033599536936 0.049949587479 0.065794138704 0.081015662334 0.095526630804 0.10926371665 0.12217878472 
0.13422941596 0.1453715798 0.15555625147 0.16473053508 0.17284261475 0.17984900031 0.1857222688 0.19045779142 0.19407853806 
0.19663765987 0.19821892412 0.19893513777 0.19892453386 0.19834490594 0.19736526665 0.19615509849 0.19487183102 0.19364785192 
0.19257890621 0.19171595478 0.1910623415 0.19057743944 0.19018689459 0.18979836307 0.18932056017 0.1886827821 0.18785190706 
0.18684412566 0.18572921353 0.18462619491 0.18369097905 0.18309868907 0.18302477793 0.18362843016 0.18503942379 0.18734745244 
0.19059264916 0.19475767039 0.19976348142 0.20547126319 0.21169150489 0.21819950216 0.22475516947 0.23112451925 0.23710011527 
0.24251801568 0.24726910092 0.25130331271 0.25462629029 0.25728908858 0.25937283078 0.26097096178 0.26217201983 0.26304551773 
0.26363277193 0.26394355796 0.26395849035 0.26363614778 0.26292326635 0.26176588625 0.26011928967 0.25795507264 0.25526477542 
0.25206071041 0.24837506055 0.24425746831 0.23977004007 0.23497844704 0.22993909492 0.22468432321 0.21920916452 0.21346364429 
0.20735370124 0.20075177056 0.19351555334 0.18551136404 0.17663735962 0.16684209111 0.1561349491 0.14458678783 0.13232090521 
0.11949630954 0.10628657307 0.092858323583 0.079353305588 0.065876829519 0.052493597475 0.039230026023 0.026080959269 0.013018353921 
1.4023094999e-15 
_area 1 100 double
0 0.0005952637677 0.0023777602787 0.005333836839 0.0094293647711 0.014596921627 0.020725697496 0.027658828832 0.03519936811 
0.043122008963 0.051185681206 0.059143368689 0.06674899446 0.073764392626 0.079969895135 0.085179640519 0.089259154777 0.092140317574 
0.09382904798 0.094404059073 0.094008512039 0.092837042778 0.091119059752 0.089098884597 0.087014038999 0.085073196655 0.083437023646 
0.082207722637 0.081429451667 0.08109235362 0.081133921637 0.081449955902 0.081930142838 0.082502372177 0.083158258948 0.083948414555 
0.084945426732 0.086189555491 0.087663602656 0.08932859469 0.091176333958 0.093243211875 0.095594859085 0.098313373945 0.10150051645 
0.10529014029 0.10983800437 0.11525814923 0.12155649654 0.12863245213 0.13631332914 0.14437786421 0.15257305052 0.1606345903 
0.1683119525 0.17539358629 0.18172640184 0.18722449394 0.19186457984 0.19566934615 0.19868371305 0.20095116808 0.2024966516 
0.20331940831 0.20339579056 0.20269039322 0.20117280042 0.19883358573 0.19569114891 0.19178600209 0.18716716286 0.18188005781 
0.17596479058 0.16946765074 0.1624598266 0.15505166816 0.14739234721 0.13965102319 0.13198288404 0.12448984179 0.11718998088 
0.11000991977 0.10280756904 0.095420098898 0.087719804751 0.079657040455 0.071276415287 0.062704795483 0.054120544619 0.04571852978 
0.037683233317 0.030174917122 0.023326432132 0.017245045833 0.012014495547 0.0076953461973 0.0043248456415 0.0019190674639 0.00047908535975 
5.6880048959e-17 
