# vtk DataFile Version 5.1
vtk output
ASCII
DATASET POLYDATA
POINTS 100 float
0.101941 0.0461015 -0.685326 0.101889 0.0461698 -0.685832 0.101805 0.0462068 -0.687361 
0.101725 0.0462041 -0.689711 0.1017 0.0461481 -0.692567 0.101793 0.0460215 -0.695529 
0.102068 0.0458047 -0.698158 0.102578 0.0454765 -0.700007 0.103355 0.0450159 -0.700671 
0.104403 0.0444019 -0.699813 0.105691 0.0436136 -0.697195 0.107147 0.0426293 -0.692689 
0.108662 0.0414256 -0.686281 0.110088 0.039976 -0.678056 0.111255 0.0382501 -0.668181 
0.111971 0.0362131 -0.656882 0.112047 0.0338265 -0.644406 0.1113 0.03105 -0.630998 
0.109578 0.0278444 -0.616875 0.106765 0.0241761 -0.602206 0.102797 0.0200215 -0.587106 
0.0976621 0.015373 -0.571632 0.0914052 0.0102434 -0.555792 0.0841237 0.0046703 -0.539559 
0.0759584 -0.00128137 -0.522888 0.0670811 -0.00751904 -0.505733 0.0576799 -0.0139243 -0.488061 
0.0479427 -0.0203574 -0.469868 0.0380421 -0.0266637 -0.451177 0.028122 -0.0326823 -0.43204 
0.0182891 -0.0382558 -0.41253 0.00860796 -0.0432397 -0.392726 -0.000897029 -0.0475123 -0.372698 
-0.0102354 -0.050982 -0.352493 -0.0194393 -0.0535932 -0.332121 -0.028549 -0.0553291 -0.31155 
-0.0375971 -0.0562115 -0.290701 -0.0465931 -0.0562975 -0.269456 -0.0555108 -0.055674 -0.24767 
-0.0642796 -0.0544496 -0.225186 -0.0727818 -0.0527462 -0.201859 -0.0808558 -0.0506888 -0.17757 
-0.0883055 -0.0483976 -0.152254 -0.0949151 -0.0459799 -0.125902 -0.100467 -0.0435249 -0.0985805 
-0.104764 -0.0411006 -0.0704203 -0.107643 -0.0387527 -0.041616 -0.109001 -0.0365063 -0.0124091 
-0.108796 -0.0343691 0.01693 -0.10706 -0.0323355 0.046124 -0.103896 -0.0303924 0.0749099 
-0.0994651 -0.0285236 0.103057 -0.0939771 -0.0267142 0.130384 -0.0876677 -0.0249541 0.156764 
-0.0807783 -0.0232399 0.182127 -0.0735344 -0.0215751 0.206459 -0.0661272 -0.0199694 0.229789 
-0.0586993 -0.0184371 0.252177 -0.0513373 -0.0169947 0.2737 -0.0440703 -0.0156585 0.294438 
-0.0368765 -0.0144423 0.314463 -0.0296943 -0.0133559 0.33383 -0.0224391 -0.0124045 0.352574 
-0.015021 -0.0115886 0.370715 -0.00736239 -0.0109047 0.388257 0.000586228 -0.0103473 0.405199 
0.008836 -0.00990975 0.421541 0.0173545 -0.00958669 0.437298 0.026067 -0.00937468 0.452496 
0.0348636 -0.00927313 0.467184 0.0436114 -0.00928412 0.481426 0.0521696 -0.00941159 0.495299 
0.0604053 -0.00965984 0.508885 0.0682084 -0.0100317 0.522259 0.0755035 -0.0105265 0.535483 
0.0822562 -0.0111382 0.54859 0.0884745 -0.0118543 0.561586 0.094204 -0.0126549 0.574438 
0.0995183 -0.0135133 0.587082 0.104506 -0.0143966 0.599424 0.109254 -0.0152684 0.61135 
0.113836 -0.0160905 0.622735 0.118297 -0.0168261 0.633459 0.122649 -0.0174426 0.643414 
0.126864 -0.017914 0.652515 0.130882 -0.018223 0.660708 0.134615 -0.0183619 0.667975 
0.137965 -0.0183335 0.674327 0.140833 -0.0181501 0.679807 0.143139 -0.0178325 0.684481 
0.144836 -0.0174085 0.688428 0.145916 -0.0169103 0.691732 0.146418 -0.0163728 0.694478 
0.146425 -0.0158311 0.696742 0.146056 -0.0153187 0.698584 0.145457 -0.0148659 0.700054 
0.14478 -0.0144989 0.701185 0.144168 -0.0142383 0.702 0.143738 -0.0140995 0.70251 
0.143567 -0.0140916 0.70272 
LINES 2 100
OFFSETS vtktypeint64
0 100 
CONNECTIVITY vtktypeint64
0 1 2 3 4 5 6 7 8 
9 10 11 12 13 14 15 16 17 
18 19 20 21 22 23 24 25 26 
27 28 29 30 31 32 33 34 35 
36 37 38 39 40 41 42 43 44 
45 46 47 48 49 50 51 52 53 
54 55 56 57 58 59 60 61 62 
63 64 65 66 67 68 69 70 71 
72 73 74 75 76 77 78 79 80 
81 82 83 84 85 86 87 88 89 
90 91 92 93 94 95 96 97 98 
99 
POINT_DATA 100
FIELD FieldData 3
_theta 1 100 double
0 0.031733259127 0.063466518254 0.095199777382 0.12693303651 0.15866629564 0.19039955476 0.22213281389 0.25386607302 
0.28559933214 0.31733259127 0.3490658504 0.38079910953 0.41253236865 0.44426562778 0.47599888691 0.50773214603 0.53946540516 
0.57119866429 0.60293192342 0.63466518254 0.66639844167 0.6981317008 0.72986495992 0.76159821905 0.79333147818 0.82506473731 
0.85679799643 0.88853125556 0.92026451469 0.95199777382 0.98373103294 1.0154642921 1.0471975512 1.0789308103 1.1106640695 
1.1423973286 1.1741305877 1.2058638468 1.237597106 1.2693303651 1.3010636242 1.3327968833 1.3645301425 1.3962634016 
1.4279966607 1.4597299198 1.491463179 1.5231964381 1.5549296972 1.5866629564 1.6183962155 1.6501294746 1.6818627337 
1.7135959929 1.745329252 1.7770625111 1.8087957702 1.8405290294 1.8722622885 1.9039955476 1.9357288068 1.9674620659 
1.999195325 2.0309285841 2.0626618433 2.0943951024 2.1261283615 2.1578616206 2.1895948798 2.2213281389 2.253061398 
2.2847946572 2.3165279163 2.3482611754 2.3799944345 2.4117276937 2.4434609528 2.4751942119 2.506927471 2.5386607302 
2.5703939893 2.6021272484 2.6338605076 2.6655937667 2.6973270258 2.7290602849 2.7607935441 2.7925268032 2.8242600623 
2.8559933214 2.8877265806 2.9194598397 2.9511930988 2.982926358 3.0146596171 3.0463928762 3.0781261353 3.1098593945 
3.1415926536 
_radius 1 100 double
2.2602055609e-16 0.016953084153 0.033729829727 0.050157523795 0.066077978962 0.081353733462 0.095872713667 0.10955072693 0.12233108871 
0.1341809668 0.14508470258 0.15503522604 0.16402538626 0.17204131184 0.17905968583 0.18505010258 0.18998261364 0.19383938021 
0.19662829091 0.1983957342 0.19923563057 0.19929239303 0.19875658374 0.19785338743 0.19682527166 0.19591107423 0.19532417006 
0.19523238231 0.19574195377 0.19688722871 0.19862694085 0.2008474891 0.20337329935 0.20598391104 0.20843658052 0.21049229574 
0.21194258524 0.21263436251 0.21248996211 0.21151953726 0.20982360472 0.20758501571 0.20505158312 0.20251222947 0.20027022657 
0.19861666122 0.19780597036 0.19803408354 0.19941949112 0.20198895182 0.20567157426 0.21030531197 0.21565695908 0.22145202221 
0.22740776148 0.23326291836 0.23879999987 0.24385851566 0.24833933404 0.25220135582 0.25545227096 0.25813543323 0.2603149333 
0.2620608155 0.26343611799 0.26448705685 0.26523723508 0.2656862372 0.26581238828 0.2655788694 0.26494188274 0.26385924703 
0.26229776139 0.26023794276 0.25767529371 0.2546179827 0.25108153999 0.24708171588 0.24262691656 0.23771163681 0.23231211456 
0.22638509875 0.21987016266 0.21269541983 0.20478587042 0.19607305741 0.18650440675 0.17605067199 0.16471030327 0.15251019945 
0.13950300649 0.12576173263 0.11137285301 0.096429227708 0.081024041272 0.065246606664 0.049180336991 0.032902631757 0.016486042144 
5.6391702976e-16 
_area 1 100 double
0 0.00062928433599 0.0025261867811 0.0057087064904 0.010179795057 0.015897612167 0.022751270503 0.030550609171 0.039032670004 
0.047881960789 0.056758400615 0.065326035187 0.07327646095 0.080343336685 0.086308445554 0.09100391004 0.094316425049 0.096196663528 
0.096672368062 0.095860221641 0.093975497255 0.091395687503 0.088782630593 0.086274703068 0.083942011743 0.081904165502 0.080327872798 
0.07945102955 0.079485095773 0.080566177603 0.082707548221 0.085798903453 0.089626386409 0.093856159838 0.098114583307 0.10204687377 
0.10534351775 0.10777798939 0.10925494166 0.1098351823 0.10970181912 0.10908307437 0.10821389463 0.10735672608 0.10681169802 
0.10684992484 0.10759504044 0.10910190949 0.11147600998 0.1148508115 0.11932608699 0.12491399284 0.13151245957 0.13890968153 
0.14680826021 0.15485993095 0.16270662163 0.17002164266 0.17654304332 0.18209393751 0.18658928631 0.19003158206 0.19249786602 
0.19411878026 0.19504950752 0.19543463158 0.19537367167 0.19489735957 0.19396264162 0.19246782088 0.19028281649 0.1872860132 
0.18339849459 0.17860785974 0.17297671314 0.16663451116 0.15975489723 0.15252339002 0.14510220141 0.13760010512 0.13005512903 
0.12243537431 0.11465832202 0.10662332355 0.098248154023 0.089499961182 0.080413336194 0.071092312731 0.061697553122 0.052423679461 
0.043473708695 0.035037294231 0.027277146003 0.020324615562 0.014282388595 0.009230587579 0.0052326657621 0.0023388538834 0.00058674350621 
3.7552999325e-17 
