# vtk DataFile Version 5.1
vtk output
ASCII
DATASET POLYDATA
POINTS 100 float
0.170557 0.0603535 -0.625256 0.170563 0.0603408 -0.625109 0.170535 0.0601172 -0.624626 
0.170441 0.0596741 -0.623762 0.170231 0.0589972 -0.622448 0.169842 0.0580657 -0.620607 
0.169205 0.0568522 -0.618162 0.168251 0.055322 -0.615052 0.166917 0.0534347 -0.611243 
0.165148 0.0511465 -0.606734 0.162902 0.0484132 -0.601562 0.160147 0.0451957 -0.595796 
0.156861 0.041465 -0.589532 0.153031 0.0372079 -0.582879 0.148647 0.0324324 -0.575944 
0.143697 0.0271708 -0.568815 0.138173 0.021482 -0.561549 0.13206 0.0154508 -0.55416 
0.125348 0.00918419 -0.546611 0.118029 0.00280569 -0.53882 0.110103 -0.00355248 -0.530661 
0.101584 -0.0097587 -0.521979 0.0925062 -0.0156915 -0.512604 0.082923 -0.0212481 -0.502372 
0.0729115 -0.0263519 -0.491139 0.0625687 -0.0309562 -0.478802 0.0520063 -0.0350459 -0.465302 
0.0413422 -0.038635 -0.450635 0.0306911 -0.0417612 -0.434851 0.0201533 -0.0444783 -0.418042 
0.00980504 -0.0468468 -0.400331 -0.000308807 -0.0489239 -0.381859 -0.0101787 -0.0507545 -0.362761 
-0.0198294 -0.0523647 -0.343155 -0.0293138 -0.0537572 -0.323125 -0.0387026 -0.0549107 -0.302717 
-0.0480692 -0.0557831 -0.28193 -0.0574733 -0.0563166 -0.260724 -0.0669442 -0.0564468 -0.239033 
-0.0764656 -0.0561119 -0.216771 -0.0859652 -0.0552626 -0.193858 -0.0953098 -0.0538702 -0.170231 
-0.104307 -0.0519334 -0.145863 -0.112717 -0.0494809 -0.120771 -0.120265 -0.0465712 -0.0950299 
-0.126667 -0.0432888 -0.0687635 -0.13165 -0.039737 -0.0421449 -0.134983 -0.0360294 -0.0153827 
-0.136496 -0.0322792 0.0112942 -0.136096 -0.0285904 0.0376541 -0.133785 -0.0250486 0.0634802 
-0.129655 -0.0217155 0.0885866 -0.123887 -0.0186264 0.112829 -0.116734 -0.0157906 0.136115 
-0.108497 -0.0131952 0.1584 -0.0995037 -0.0108114 0.17969 -0.0900787 -0.00860283 0.200028 
-0.0805161 -0.00653367 0.219485 -0.071058 -0.0045769 0.238148 -0.061879 -0.0027203 0.256106 
-0.0530778 -0.000970146 0.273438 -0.0446783 0.000648109 0.290208 -0.0366379 0.00209219 0.306461 
-0.0288631 0.00330806 0.32222 -0.0212295 0.00423692 0.337493 -0.0136039 0.00482333 0.352279 
-0.00586548 0.00502313 0.366574 0.00207572 0.0048104 0.38038 0.0102657 0.00418233 0.393711 
0.0186999 0.00316148 0.406599 0.0273231 0.00179519 0.419091 0.0360364 0.000152121 0.43125 
0.0447085 -0.00168346 0.443147 0.0531908 -0.00361907 0.454855 0.0613343 -0.00556203 0.466439 
0.0690045 -0.00742723 0.477944 0.0760949 -0.00914377 0.489394 0.0825349 -0.0106597 0.500778 
0.0882943 -0.0119444 0.512054 0.0933817 -0.0129887 0.523147 0.0978386 -0.0138027 0.533955 
0.101731 -0.0144115 0.544355 0.105139 -0.0148505 0.554217 0.108143 -0.0151596 0.563408 
0.11082 -0.0153781 0.571811 0.113229 -0.0155404 0.579329 0.115414 -0.0156733 0.585897 
0.117399 -0.0157946 0.591482 0.119191 -0.0159131 0.59609 0.120788 -0.0160303 0.599762 
0.122181 -0.0161431 0.602572 0.123361 -0.0162455 0.604618 0.124327 -0.0163321 0.606017 
0.125085 -0.0163995 0.606898 0.125652 -0.0164478 0.607388 0.126054 -0.0164806 0.607611 
0.126321 -0.0165042 0.607676 0.126483 -0.0165267 0.607673 0.126566 -0.016556 0.607671 
0.126588 -0.0165983 0.607709 
LINES 2 100
OFFSETS vtktypeint64
0 100 
CONNECTIVITY vtktypeint64
0 1 2 3 4 5 6 7 8 
9 10 11 12 13 14 15 16 17 
18 19 20 21 22 23 24 25 26 
27 28 29 30 31 32 33 34 35 
36 37 38 39 40 41 42 43 44 
45 46 47 48 49 50 51 52 53 
54 55 56 57 58 59 60 61 62 
63 64 65 66 67 68 69 70 71 
72 73 74 75 76 77 78 79 80 
81 82 83 84 85 86 87 88 89 
90 91 92 93 94 95 96 97 98 
99 
POINT_DATA 100
FIELD FieldData 3
_theta 1 100 double
0 0.031733259127 0.063466518254 0.095199777382 0.12693303651 0.15866629564 0.19039955476 0.22213281389 0.25386607302 
0.28559933214 0.31733259127 0.3490658504 0.38079910953 0.41253236865 0.44426562778 0.47599888691 0.50773214603 0.53946540516 
0.57119866429 0.60293192342 0.63466518254 0.66639844167 0.6981317008 0.72986495992 0.76159821905 0.79333147818 0.82506473731 
0.85679799643 0.88853125556 0.92026451469 0.95199777382 0.98373103294 1.0154642921 1.0471975512 1.0789308103 1.1106640695 
1.1423973286 1.1741305877 1.2058638468 1.237597106 1.2693303651 1.3010636242 1.3327968833 1.3645301425 1.3962634016 
1.4279966607 1.4597299198 1.491463179 1.5231964381 1.5549296972 1.5866629564 1.6183962155 1.6501294746 1.6818627337 
1.7135959929 1.745329252 1.7770625111 1.8087957702 1.8405290294 1.8722622885 1.9039955476 1.9357288068 1.9674620659 
1.999195325 2.0309285841 2.0626618433 2.0943951024 2.1261283615 2.1578616206 2.1895948798 2.2213281389 2.253061398 
2.2847946572 2.3165279163 2.3482611754 2.3799944345 2.4117276937 2.4434609528 2.4751942119 2.506927471 2.5386607302 
2.5703939893 2.6021272484 2.6338605076 2.6655937667 2.6973270258 2.7290602849 2.7607935441 2.7925268032 2.8242600623 
2.8559933214 2.8877265806 2.9194598397 2.9511930988 2.982926358 3.0146596171 3.0463928762 3.0781261353 3.1098593945 
3.1415926536 
_radius 1 100 double
6.3898133636e-16 0.014114325343 0.02814963711 0.042031142501 0.055695066358 0.069091208441 0.082182671973 0.094942636699 0.10734860181 
0.11937505331 0.13098591225 0.14212828857 0.1527289277 0.16269429998 0.17191464706 0.18027162396 0.18764861246 0.19394241877 
0.19907492704 0.20300333027 0.20572775228 0.20729535384 0.20780033734 0.20737960447 0.20620418633 0.20446698418 0.20236784507 
0.20009750168 0.1978222957 0.19567169877 0.19373032154 0.19203538322 0.19057967324 0.18931914117 0.18818369038 0.18708973753 
0.18595361089 0.18470548246 0.18330354141 0.18174702937 0.18008507902 0.17841754252 0.17688545796 0.17565226629 0.17488056156 
0.17471078093 0.17524688115 0.17655077175 0.17864397066 0.18151306995 0.18511566274 0.18938479497 0.19423164286 0.19954725925 
0.20520473478 0.21106298885 0.21697270212 0.22278393505 0.228354229 0.23355579563 0.23828077446 0.24244422672 0.24598519097 
0.2488664653 0.25107369513 0.25261395782 0.25351362229 0.2538150761 0.25357204426 0.25284359334 0.25168734932 0.25015278873 
0.24827558526 0.24607387895 0.24354701754 0.24067685387 0.23743113812 0.23376804097 0.22964061804 0.22500030607 0.21979925947 
0.21399204558 0.2075374466 0.20040077681 0.19255651914 0.18399060922 0.17470157697 0.16470000731 0.15400627541 0.14264707245 
0.13065168727 0.11804920741 0.10486766857 0.091135717768 0.076886650802 0.062163903419 0.047026450506 0.031552356782 0.015839082594 
6.7702094688e-16 
_area 1 100 double
0 0.00053494010896 0.0021273716408 0.0047402993808 0.0083127650035 0.012761333171 0.017982968502 0.023859845229 0.030266207743 
0.037076375644 0.044171591046 0.051442476944 0.058784526949 0.0660868425 0.073218352408 0.080018367558 0.086297033384 0.091846809139 
0.096462283002 0.099964454165 0.10222563599 0.10319080169 0.10289086997 0.10144426665 0.099045762153 0.095945927101 0.092430710235 
0.088830828646 0.085420426693 0.082272842426 0.079494663326 0.077217063622 0.075603641409 0.074740683707 0.074411944086 0.074489859151 
0.074876013955 0.075485577156 0.076241460352 0.077081144619 0.077972701268 0.078926810204 0.079995762837 0.081259282125 0.082803811277 
0.084711991979 0.087082627576 0.08998107194 0.093269554725 0.096863974816 0.10078984474 0.10512925641 0.10998736361 0.11545504887 
0.12156332649 0.1282413007 0.13530085116 0.14246105615 0.14940133843 0.15581983165 0.1614779173 0.16622182428 0.16998100101 
0.17274991742 0.17456471237 0.17548880926 0.17561493581 0.17504537421 0.17377444745 0.17166398906 0.16867196025 0.16489527179 
0.16051569741 0.15575324249 0.15081936124 0.14586975947 0.14096875492 0.13607994963 0.13108722236 0.1258345666 0.1201678234 
0.11396690406 0.10716493607 0.099755631435 0.091791738855 0.083377263959 0.074655564221 0.065794992246 0.056973695099 0.048365519869 
0.040129254886 0.032402840223 0.025302614048 0.01892622346 0.01335739805 0.0086708308207 0.0049352713556 0.0022131522146 0.00055639286083 
9.5943676726e-18 
