# vtk DataFile Version 5.1
vtk output
ASCII
DATASET POLYDATA
POINTS 100 float
0.125788 0.0526439 -0.645046 0.1258 0.0525317 -0.645008 0.125812 0.0520133 -0.644821 
0.125816 0.0511007 -0.644419 0.125796 0.0498126 -0.643701 0.125732 0.0481726 -0.642542 
0.125595 0.0462068 -0.640809 0.125354 0.0439412 -0.638367 0.124969 0.0414 -0.635102 
0.124392 0.0386032 -0.630927 0.123572 0.0355662 -0.62579 0.122445 0.0322995 -0.619681 
0.120944 0.0288093 -0.612628 0.118994 0.0250991 -0.604693 0.116514 0.0211715 -0.595962 
0.113425 0.0170309 -0.586538 0.109646 0.0126851 -0.576522 0.105109 0.00814781 -0.566007 
0.0997557 0.0034399 -0.555069 0.0935483 -0.00140964 -0.543754 0.0864735 -0.00636348 -0.532079 
0.0785462 -0.0113763 -0.520034 0.0698124 -0.0163957 -0.50758 0.0603489 -0.0213636 -0.49466 
0.050261 -0.0262172 -0.481204 0.0396776 -0.030891 -0.467139 0.0287437 -0.0353182 -0.452396 
0.0176123 -0.0394318 -0.436918 0.00643452 -0.0431659 -0.420663 -0.00464969 -0.0464577 -0.403607 
-0.0155191 -0.0492482 -0.385743 -0.026077 -0.0514847 -0.367077 -0.036254 -0.0531224 -0.347629 
-0.0460074 -0.0541269 -0.327426 -0.0553171 -0.0544768 -0.306496 -0.0641791 -0.0541664 -0.284872 
-0.0725968 -0.0532077 -0.262584 -0.080571 -0.0516322 -0.239664 -0.0880906 -0.0494916 -0.216148 
-0.0951257 -0.0468574 -0.192075 -0.101622 -0.0438188 -0.167499 -0.1075 -0.0404789 -0.142484 
-0.112658 -0.03695 -0.117112 -0.11698 -0.0333477 -0.0914816 -0.120343 -0.0297835 -0.0657091 
-0.122632 -0.0263583 -0.039922 -0.123753 -0.0231561 -0.0142556 -0.123641 -0.0202386 0.0111548 
-0.122278 -0.0176422 0.036181 -0.119691 -0.0153768 0.0607104 -0.115957 -0.0134272 0.0846518 
-0.111202 -0.0117565 0.107941 -0.105586 -0.0103124 0.130541 -0.0992996 -0.00903383 0.152446 
-0.0925409 -0.0078593 0.173674 -0.0855044 -0.00673452 0.194264 -0.0783638 -0.00561931 0.21427 
-0.071259 -0.00449269 0.233749 -0.0642872 -0.00335571 0.252758 -0.0574987 -0.00223166 0.271348 
-0.0508971 -0.00116363 0.289554 -0.0444462 -0.00020975 0.307398 -0.0380795 0.0005634 0.324886 
-0.0317136 0.00108833 0.34201 -0.0252629 0.00130438 0.358751 -0.0186534 0.00116469 0.375088 
-0.0118346 0.000641665 0.390997 -0.00478821 -0.000269744 0.406461 0.00246802 -0.00155114 0.421469 
0.00988092 -0.00316235 0.436022 0.0173672 -0.00504525 0.45013 0.0248223 -0.00712941 0.463811 
0.0321319 -0.0093386 0.477089 0.0391844 -0.0115976 0.489987 0.0458825 -0.0138385 0.502525 
0.0521532 -0.0160052 0.514715 0.0579544 -0.0180569 0.526556 0.0632774 -0.019969 0.538035 
0.0681455 -0.0217323 0.549127 0.0726095 -0.02335 0.559792 0.076739 -0.024834 0.569984 
0.0806132 -0.0262007 0.579654 0.0843104 -0.0274661 0.588753 0.087899 -0.0286423 0.597239 
0.0914295 -0.0297354 0.605078 0.0949305 -0.0307441 0.61225 0.0984066 -0.0316602 0.618752 
0.10184 -0.032471 0.624591 0.105196 -0.0331622 0.62979 0.108425 -0.0337211 0.63438 
0.111475 -0.0341401 0.638401 0.114293 -0.0344197 0.641892 0.116832 -0.0345696 0.644894 
0.119059 -0.0346093 0.647443 0.12095 -0.0345664 0.64957 0.122493 -0.0344746 0.651298 
0.123685 -0.0343692 0.652645 0.124532 -0.0342838 0.653621 0.125037 -0.0342459 0.654232 
0.125208 -0.0342733 0.654479 
LINES 2 100
OFFSETS vtktypeint64
0 100 
CONNECTIVITY vtktypeint64
0 1 2 3 4 5 6 7 8 
9 10 11 12 13 14 15 16 17 
18 19 20 21 22 23 24 25 26 
27 28 29 30 31 32 33 34 35 
36 37 38 39 40 41 42 43 44 
45 46 47 48 49 50 51 52 53 
54 55 56 57 58 59 60 61 62 
63 64 65 66 67 68 69 70 71 
72 73 74 75 76 77 78 79 80 
81 82 83 84 85 86 87 88 89 
90 91 92 93 94 95 96 97 98 
99 
POINT_DATA 100
FIELD FieldData 3
_theta 1 100 double
0 0.031733259127 0.063466518254 0.095199777382 0.12693303651 0.15866629564 0.19039955476 0.22213281389 0.25386607302 
0.28559933214 0.31733259127 0.3490658504 0.38079910953 0.41253236865 0.44426562778 0.47599888691 0.50773214603 0.53946540516 
0.57119866429 0.60293192342 0.63466518254 0.66639844167 0.6981317008 0.72986495992 0.76159821905 0.79333147818 0.82506473731 
0.85679799643 0.88853125556 0.92026451469 0.95199777382 0.98373103294 1.0154642921 1.0471975512 1.0789308103 1.1106640695 
1.1423973286 1.1741305877 1.2058638468 1.237597106 1.2693303651 1.3010636242 1.3327968833 1.3645301425 1.3962634016 
1.4279966607 1.4597299198 1.491463179 1.5231964381 1.5549296972 1.5866629564 1.6183962155 1.6501294746 1.6818627337 
1.7135959929 1.745329252 1.7770625111 1.8087957702 1.8405290294 1.8722622885 1.9039955476 1.9357288068 1.9674620659 
1.999195325 2.0309285841 2.0626618433 2.0943951024 2.1261283615 2.1578616206 2.1895948798 2.2213281389 2.253061398 
2.2847946572 2.3165279163 2.3482611754 2.3799944345 2.4117276937 2.4434609528 2.4751942119 2.506927471 2.5386607302 
2.5703939893 2.6021272484 2.6338605076 2.6655937667 2.6973270258 2.7290602849 2.7607935441 2.7925268032 2.8242600623 
2.8559933214 2.8877265806 2.9194598397 2.9511930988 2.982926358 3.0146596171 3.0463928762 3.0781261353 3.1098593945 
3.1415926536 
_radius 1 100 double
8.2759219213e-16 0.01434366273 0.028658070073 0.042904802463 0.05703995053 0.071012793258 0.084765446933 0.098233207292 0.11134517058 
0.12402476754 0.13619004285 0.14775379979 0.15862403492 0.16870531627 0.17790179475 0.18612229085 0.19328737375 0.19933769718 
0.20424230711 0.20800539767 0.21067014069 0.21231869382 0.21306815166 0.2130628732 0.21246414736 0.21143845619 0.21014564184 
0.20872812896 0.20730209527 0.20595122336 0.20472347436 0.20363118989 0.20265467501 0.20174917243 0.20085482948 0.1999089674 
0.19885966683 0.19767920813 0.19637522334 0.19499697704 0.19363461034 0.1924106082 0.19146482986 0.19093660636 0.19094874597 
0.19159757563 0.19295005007 0.1950452443 0.19789588489 0.20148690356 0.20577089601 0.21066282403 0.21603722421 0.22173058606 
0.22755002528 0.23328760172 0.23873819081 0.24371805119 0.24808120957 0.25173135074 0.25462779452 0.25678511566 0.25826684183 
0.25917434605 0.25963248383 0.25977370167 0.25972229037 0.25958023777 0.25941583755 0.25925591774 0.25908232588 0.25883313695 
0.25840879083 0.25768278332 0.25651557968 0.25476950113 0.25232207505 0.24907594791 0.24496453587 0.23995356918 0.23403928122 
0.22724420329 0.21961146527 0.21119829243 0.2020691448 0.19228878916 0.18191561439 0.1709957091 0.15955850605 0.14761496138 
0.13515908045 0.12217306251 0.10863554295 0.094531632773 0.079862963463 0.064655902344 0.048966493808 0.03288134277 0.016514372872 
1.1258370217e-15 
_area 1 100 double
0 0.00055473564758 0.0022054009066 0.0049141213945 0.0086257857677 0.013276570053 0.018800447825 0.02513071959 0.03219480567 
0.039902907476 0.048134322219 0.056726947055 0.065474264394 0.074131228549 0.082428068834 0.090089714086 0.09685807611 0.10251452847 
0.10690024427 0.10993218403 0.11161243997 0.11202904053 0.11134777193 0.10979640887 0.10764335611 0.10517133817 0.10264520508 
0.10027790533 0.098215665447 0.096554381968 0.09535523189 0.094636492809 0.094352450506 0.094388416551 0.094588967103 0.094800264186 
0.094903725062 0.094837698065 0.094610882125 0.09430833374 0.094087153459 0.09415238626 0.094696066707 0.095817821376 0.097512289008 
0.099727809087 0.10242154015 0.10559081135 0.10928188164 0.11357625331 0.11856287017 0.12430656551 0.13081570284 0.13800871122 
0.14568833093 0.15354086414 0.16116943542 0.16815265691 0.17411078867 0.17876323339 0.1819667149 0.18372963277 0.18420406505 
0.18365950462 0.18243485346 0.18085317672 0.17913131794 0.17737486838 0.17562765595 0.17389549094 0.17214530838 0.17029986868 
0.16823759317 0.16580330871 0.16283220367 0.15918038665 0.154748991 0.14949337352 0.14341892212 0.13657063748 0.12902320283 
0.12087470404 0.11224330639 0.10326396603 0.094082442312 0.084845757616 0.075690419063 0.066731293003 0.058054867106 0.049720362015 
0.041769649856 0.034242592246 0.027191862221 0.020692915917 0.014847738013 0.0097821691869 0.0056366502391 0.0025509210518 0.00064493226539 
0 
