# vtk DataFile Version 5.1
vtk output
ASCII
DATASET POLYDATA
POINTS 100 float
0.150933 0.0335709 -0.607285 0.150766 0.033828 -0.607312 0.150358 0.0343395 -0.607397 
0.149722 0.0350404 -0.607486 0.148872 0.0358285 -0.607493 0.14782 0.0365728 -0.607308 
0.14657 0.0371253 -0.606802 0.145107 0.037333 -0.605835 0.1434 0.0370505 -0.604268 
0.141395 0.0361526 -0.601966 0.139014 0.0345437 -0.598808 0.136168 0.0321655 -0.594695 
0.132756 0.0290014 -0.589548 0.12868 0.0250765 -0.583317 0.123854 0.0204558 -0.575975 
0.118215 0.0152387 -0.567519 0.111731 0.0095509 -0.557966 0.104411 0.00353582 -0.547349 
0.0963027 -0.00265513 -0.535711 0.0874912 -0.00887172 -0.523101 0.0780941 -0.014973 -0.509565 
0.0682507 -0.0208338 -0.49515 0.0581093 -0.0263488 -0.479892 0.0478142 -0.0314353 -0.463822 
0.037493 -0.036033 -0.44696 0.0272466 -0.0401026 -0.429319 0.017143 -0.0436225 -0.410909 
0.00721494 -0.0465859 -0.391737 -0.00253638 -0.0489957 -0.371809 -0.0121341 -0.0508615 -0.351137 
-0.0216141 -0.0521958 -0.329743 -0.031012 -0.0530118 -0.307655 -0.0403486 -0.0533217 -0.284915 
-0.0496179 -0.0531366 -0.261578 -0.0587777 -0.0524663 -0.237709 -0.0677441 -0.0513211 -0.213387 
-0.0763922 -0.0497131 -0.188699 -0.084562 -0.0476578 -0.163739 -0.0920685 -0.0451766 -0.138604 
-0.0987167 -0.0422976 -0.113395 -0.104318 -0.0390576 -0.0882108 -0.108709 -0.0355022 -0.0631451 
-0.111763 -0.0316862 -0.0382875 -0.113407 -0.027673 -0.0137194 -0.113627 -0.0235339 0.0104868 
-0.112471 -0.0193458 0.0342683 -0.110042 -0.0151895 0.0575733 -0.106493 -0.0111471 0.0803606 
-0.102015 -0.00729906 0.102601 -0.0968145 -0.00372126 0.124275 -0.091103 -0.000481788 0.145375 
-0.0850787 0.00236184 0.165906 -0.078913 0.00476527 0.185879 -0.0727417 0.0066993 0.205317 
-0.0666595 0.00815108 0.22425 -0.0607207 0.00912454 0.242713 -0.0549431 0.00963962 0.260745 
-0.0493165 0.00973062 0.278386 -0.0438128 0.0094435 0.295677 -0.038398 0.0088324 0.312653 
-0.033042 0.00795554 0.329344 -0.0277284 0.00687092 0.345774 -0.0224596 0.00563221 0.361956 
-0.0172594 0.00428506 0.377896 -0.0121721 0.00286437 0.39359 -0.00725753 0.00139273 0.409027 
-0.00258427 -0.000119901 0.424189 0.0017786 -0.00167503 0.439054 0.00577021 -0.00328332 0.453601 
0.00934543 -0.00496126 0.467805 0.0124806 -0.00672725 0.481649 0.0151765 -0.00859754 0.495115 
0.0174584 -0.0105825 0.508193 0.0193731 -0.0126838 0.520875 0.0209835 -0.0148923 0.533155 
0.0223613 -0.0171883 0.54503 0.0235787 -0.0195419 0.556492 0.0247005 -0.0219158 0.567532 
0.025777 -0.0242686 0.578132 0.026839 -0.0265588 0.588265 0.0278946 -0.0287489 0.597895 
0.0289299 -0.0308092 0.606978 0.029911 -0.0327205 0.615463 0.0307889 -0.0344758 0.623293 
0.0315063 -0.0360802 0.630415 0.0320048 -0.0375496 0.636779 0.0322326 -0.0389078 0.642347 
0.0321514 -0.0401827 0.647096 0.0317419 -0.0414023 0.651027 0.0310076 -0.0425899 0.654161 
0.0299761 -0.0437608 0.656545 0.0286985 -0.0449195 0.658251 0.0272461 -0.0460585 0.659371 
0.0257057 -0.0471587 0.660014 0.0241735 -0.0481911 0.660297 0.0227476 -0.0491204 0.66034 
0.0215208 -0.0499088 0.660255 0.0205739 -0.0505207 0.66014 0.0199693 -0.050927 0.660068 
0.0197464 -0.0511088 0.660088 
LINES 2 100
OFFSETS vtktypeint64
0 100 
CONNECTIVITY vtktypeint64
0 1 2 3 4 5 6 7 8 
9 10 11 12 13 14 15 16 17 
18 19 20 21 22 23 24 25 26 
27 28 29 30 31 32 33 34 35 
36 37 38 39 40 41 42 43 44 
45 46 47 48 49 50 51 52 53 
54 55 56 57 58 59 60 61 62 
63 64 65 66 67 68 69 70 71 
72 73 74 75 76 77 78 79 80 
81 82 83 84 85 86 87 88 89 
90 91 92 93 94 95 96 97 98 
99 
POINT_DATA 100
FIELD FieldData 3
_theta 1 100 double
0 0.031733259127 0.063466518254 0.095199777382 0.12693303651 0.15866629564 0.19039955476 0.22213281389 0.25386607302 
0.28559933214 0.31733259127 0.3490658504 0.38079910953 0.41253236865 0.44426562778 0.47599888691 0.50773214603 0.53946540516 
0.57119866429 0.60293192342 0.63466518254 0.66639844167 0.6981317008 0.72986495992 0.76159821905 0.79333147818 0.82506473731 
0.85679799643 0.88853125556 0.92026451469 0.95199777382 0.98373103294 1.0154642921 1.0471975512 1.0789308103 1.1106640695 
1.1423973286 1.1741305877 1.2058638468 1.237597106 1.2693303651 1.3010636242 1.3327968833 1.3645301425 1.3962634016 
1.4279966607 1.4597299198 1.491463179 1.5231964381 1.5549296972 1.5866629564 1.6183962155 1.6501294746 1.6818627337 
1.7135959929 1.745329252 1.7770625111 1.8087957702 1.8405290294 1.8722622885 1.9039955476 1.9357288068 1.9674620659 
1.999195325 2.0309285841 2.0626618433 2.0943951024 2.1261283615 2.1578616206 2.1895948798 2.2213281389 2.253061398 
2.2847946572 2.3165279163 2.3482611754 2.3799944345 2.4117276937 2.4434609528 2.4751942119 2.506927471 2.5386607302 
2.5703939893 2.6021272484 2.6338605076 2.6655937667 2.6973270258 2.7290602849 2.7607935441 2.7925268032 2.8242600623 
2.8559933214 2.8877265806 2.9194598397 2.9511930988 2.982926358 3.0146596171 3.0463928762 3.0781261353 3.1098593945 
3.1415926536 
_radius 1 100 double
9.4948818158e-16 0.015513604784 0.031057149303 0.046636270285 0.062221669293 0.077738557828 0.093062767994 0.10802399709 0.12241570585 
0.13601043509 0.14857878825 0.15991002311 0.16983206698 0.17822879795 0.18505262858 0.19033081088 0.19416446614 0.19672011657 
0.19821439753 0.19889355441 0.19901013643 0.19879984389 0.19846163134 0.19814379416 0.19793776912 0.19787983406 0.19795927314 
0.19813065287 0.19832803325 0.19847979724 0.19852349441 0.19842014763 0.19816682074 0.19780513539 0.19742247314 0.19714291519 
0.19710771015 0.19745007533 0.1982734955 0.19964191483 0.20158356106 0.20410281836 0.20719199323 0.21083724727 0.21501734554 
0.21969756227 0.22482292608 0.23031479073 0.23607295007 0.24198308327 0.24792726254 0.25379437899 0.25948786823 0.26492959464 
0.27006032686 0.27483813945 0.27923605963 0.28323968257 0.2868448767 0.29005542575 0.29288046997 0.2953317369 0.29742068485 
0.29915578705 0.30054022924 0.30157023122 0.30223403288 0.30251138963 0.30237333061 0.30178202543 0.30069084738 0.29904498487 
0.29678309064 0.29384037844 0.29015327346 0.28566527213 0.28033320311 0.27413276936 0.2670622297 0.25914339953 0.25041973851 
0.24095195432 0.23081204744 0.22007687816 0.20882214036 0.19711724201 0.18502126123 0.17258003172 0.15982449475 0.14677058604 
0.13342093615 0.11976847818 0.10580171848 0.091511048369 0.076895184961 0.061966713363 0.046755794468 0.031311378717 0.015699666396 
3.6869404243e-16 
_area 1 100 double
0 0.00066788390346 0.0026818889107 0.0060672254297 0.01084546338 0.017004358562 0.02446397237 0.033051506892 0.0424943108 
0.052433520276 0.062454536691 0.072126947209 0.08104582479 0.088867921276 0.095338706557 0.10030832089 0.10373602424 0.10568400075 
0.10630264851 0.10581051787 0.10447230228 0.10257732126 0.10041888799 0.098272623587 0.096370986279 0.094874644838 0.093851932637 
0.093259942993 0.092968208961 0.092854428849 0.092838850227 0.092921922466 0.093221671573 0.093975534592 0.095420411946 0.097649231829 
0.10062496616 0.10425653529 0.10842313731 0.11297391163 0.11774334919 0.12259005128 0.12743691901 0.13228865626 0.13722650651 
0.14238996962 0.14793761836 0.15398531443 0.16055862601 0.16758647802 0.17492307241 0.18237876174 0.18974856036 0.19683468776 
0.20346766409 0.20952762569 0.21495783608 0.21976315601 0.22399503108 0.22772809245 0.23103119569 0.23393820463 0.23643241729 
0.23845416054 0.23992348814 0.2407645487 0.24092394557 0.24037885225 0.2391335645 0.23720524203 0.23460336416 0.23131106073 
0.22727531008 0.22240936112 0.21660799336 0.20977363149 0.2018475081 0.19283666375 0.18282732149 0.1719787745 0.1604981509 
0.14860370281 0.13649030906 0.12431114354 0.112180561 0.10019077216 0.088429849673 0.076992986722 0.065985349415 0.055518463558 
0.045703266403 0.036643037642 0.028428755893 0.021138062211 0.01483730928 0.0095848211548 0.0054331303732 0.0024287392986 0.00060937607517 
2.6237692574e-17 
