# vtk DataFile Version 5.1
vtk output
ASCII
DATASET POLYDATA
POINTS 100 float
0.138628 0.0607522 -0.668399 0.138782 0.0606903 -0.66844 0.139216 0.0603009 -0.668561 
0.139884 0.0596001 -0.66867 0.14071 0.058613 -0.668625 0.1416 0.0573696 -0.66825 
0.142449 0.0559007 -0.667353 0.143152 0.054234 -0.665753 0.14361 0.0523898 -0.663291 
0.143737 0.0503788 -0.659852 0.143462 0.0481999 -0.655372 0.142732 0.0458411 -0.649844 
0.141507 0.043281 -0.643308 0.139755 0.0404919 -0.635848 0.137448 0.037444 -0.627574 
0.134559 0.0341101 -0.618604 0.131053 0.03047 -0.609051 0.12689 0.0265143 -0.599003 
0.122028 0.0222474 -0.588515 0.116423 0.0176885 -0.577605 0.110039 0.0128714 -0.566251 
0.102859 0.00784311 -0.554401 0.0948876 0.00266075 -0.54198 0.086164 -0.00261204 -0.528908 
0.0767619 -0.00790889 -0.515111 0.0667915 -0.0131644 -0.500533 0.0563945 -0.0183173 -0.48515 
0.0457358 -0.0233122 -0.468972 0.0349908 -0.0281007 -0.452039 0.0243313 -0.0326413 -0.434423 
0.0139102 -0.0368981 -0.416209 0.00384842 -0.0408391 -0.397491 -0.00577484 -0.0444346 -0.378348 
-0.0149268 -0.0476556 -0.358841 -0.0236197 -0.0504725 -0.338995 -0.0319036 -0.0528553 -0.3188 
-0.0398535 -0.0547746 -0.298208 -0.0475522 -0.0562033 -0.277141 -0.055072 -0.0571191 -0.255501 
-0.0624563 -0.057508 -0.233182 -0.0697049 -0.0573665 -0.210091 -0.0767636 -0.0567045 -0.18616 
-0.0835219 -0.0555466 -0.161361 -0.0898171 -0.0539322 -0.135711 -0.0954469 -0.0519146 -0.109282 
-0.100187 -0.0495583 -0.0821947 -0.103814 -0.0469354 -0.0546129 -0.10613 -0.0441212 -0.0267303 
-0.106983 -0.0411896 0.00124344 -0.106287 -0.0382086 0.0290986 -0.104035 -0.0352367 0.0566404 
-0.1003 -0.0323202 0.0837009 -0.0952325 -0.0294922 0.110148 -0.0890449 -0.0267727 0.135887 
-0.081994 -0.0241707 0.160863 -0.0743553 -0.0216866 0.185052 -0.0663974 -0.0193161 0.208455 
-0.0583578 -0.0170537 0.231086 -0.0504223 -0.0148962 0.252964 -0.0427124 -0.0128454 0.274106 
-0.0352792 -0.0109101 0.294519 -0.0281069 -0.00910564 0.3142 -0.0211237 -0.00745405 0.333138 
-0.0142183 -0.00598146 0.351317 -0.0072615 -0.00471569 0.368727 -0.000127252 -0.00368305 0.385368 
0.00728673 -0.00290543 0.401259 0.0150433 -0.00239764 0.416442 0.0231562 -0.00216577 0.430984 
0.0315872 -0.00220634 0.444974 0.0402508 -0.00250669 0.45852 0.0490247 -0.00304615 0.471737 
0.057765 -0.00379809 0.484736 0.0663236 -0.00473229 0.497613 0.0745652 -0.00581733 0.510438 
0.0823819 -0.00702282 0.523244 0.0897037 -0.00832092 0.536024 0.0965027 -0.00968714 0.548729 
0.102792 -0.0111004 0.561271 0.108619 -0.0125425 0.573531 0.114054 -0.0139966 0.585372 
0.119177 -0.0154463 0.596651 0.124063 -0.0168741 0.607232 0.128772 -0.0182607 0.616996 
0.133337 -0.0195846 0.625859 0.137762 -0.0208228 0.633769 0.142021 -0.021952 0.640714 
0.146066 -0.0229506 0.64672 0.149833 -0.0238008 0.65184 0.153253 -0.0244906 0.656155 
0.156267 -0.0250163 0.659757 0.158832 -0.0253832 0.662742 0.16093 -0.0256061 0.665203 
0.162571 -0.0257084 0.667219 0.163791 -0.0257204 0.668856 0.164647 -0.0256767 0.670163 
0.165205 -0.0256123 0.671173 0.165535 -0.0255598 0.671905 0.165695 -0.0255452 0.672368 
0.165724 -0.0255858 0.672567 
LINES 2 100
OFFSETS vtktypeint64
0 100 
CONNECTIVITY vtktypeint64
0 1 2 3 4 5 6 7 8 
9 10 11 12 13 14 15 16 17 
18 19 20 21 22 23 24 25 26 
27 28 29 30 31 32 33 34 35 
36 37 38 39 40 41 42 43 44 
45 46 47 48 49 50 51 52 53 
54 55 56 57 58 59 60 61 62 
63 64 65 66 67 68 69 70 71 
72 73 74 75 76 77 78 79 80 
81 82 83 84 85 86 87 88 89 
90 91 92 93 94 95 96 97 98 
99 
POINT_DATA 100
FIELD FieldData 3
_theta 1 100 double
0 0.031733259127 0.063466518254 0.095199777382 0.12693303651 0.15866629564 0.19039955476 0.22213281389 0.25386607302 
0.28559933214 0.31733259127 0.3490658504 0.38079910953 0.41253236865 0.44426562778 0.47599888691 0.50773214603 0.53946540516 
0.57119866429 0.60293192342 0.63466518254 0.66639844167 0.6981317008 0.72986495992 0.76159821905 0.79333147818 0.82506473731 
0.85679799643 0.88853125556 0.92026451469 0.95199777382 0.98373103294 1.0154642921 1.0471975512 1.0789308103 1.1106640695 
1.1423973286 1.1741305877 1.2058638468 1.237597106 1.2693303651 1.3010636242 1.3327968833 1.3645301425 1.3962634016 
1.4279966607 1.4597299198 1.491463179 1.5231964381 1.5549296972 1.5866629564 1.6183962155 1.6501294746 1.6818627337 
1.7135959929 1.745329252 1.7770625111 1.8087957702 1.8405290294 1.8722622885 1.9039955476 1.9357288068 1.9674620659 
1.999195325 2.0309285841 2.0626618433 2.0943951024 2.1261283615 2.1578616206 2.1895948798 2.2213281389 2.253061398 
2.2847946572 2.3165279163 2.3482611754 2.3799944345 2.4117276937 2.4434609528 2.4751942119 2.506927471 2.5386607302 
2.5703939893 2.6021272484 2.6338605076 2.6655937667 2.6973270258 2.7290602849 2.7607935441 2.7925268032 2.8242600623 
2.8559933214 2.8877265806 2.9194598397 2.9511930988 2.982926358 3.0146596171 3.0463928762 3.0781261353 3.1098593945 
3.1415926536 
_radius 1 100 double
1.403304446e-16 0.01485102534 0.0296212258 0.044230747661 0.058611100928 0.072708340025 0.08648351385 0.099910081102 0.11296844578 
0.12563824494 0.13788946561 0.1496738339 0.1609181477 0.17152122414 0.1813558138 0.19027615974 0.19813093554 0.20478027735 
0.21011477127 0.21407375534 0.21666021833 0.21794989758 0.21809280266 0.21730621957 0.21585920496 0.21404961689 0.21217580876 
0.21050615685 0.20925044223 0.20853749848 0.2084030815 0.20879031025 0.20956248861 0.21052562318 0.21145658678 0.21213290881 
0.21236093913 0.21199983922 0.21097925094 0.20930887434 0.20707892633 0.20445154947 0.20164432938 0.19890793578 0.19650066211 
0.19466327165 0.19359753823 0.19345079314 0.19430706797 0.19618404925 0.19903470756 0.20275292005 0.20718292206 0.212132462 
0.21738906921 0.22273810636 0.22798054305 0.23294799054 0.23751279169 0.24159191541 0.2451447534 0.24816616719 0.25067687237 
0.25271331194 0.25431866503 0.2555358313 0.25640243506 0.25694736264 0.25718824226 0.25712962568 0.25676224882 0.25606418675 
0.25500446048 0.25354860425 0.25166448583 0.24932617876 0.24651429231 0.24321251798 0.23940157453 0.23505268306 0.23012291612 
0.22455424486 0.21827706042 0.21121770301 0.20330845556 0.19449783929 0.18475902682 0.17409473255 0.16253786525 0.15014824485 
0.13700648472 0.12320650075 0.10884800609 0.094029959954 0.078845507262 0.063378628162 0.04770252895 0.031879682605 0.015963312014 
5.951975448e-16 
_area 1 100 double
0 0.00061889615374 0.0024577134723 0.0054659929922 0.0095693429991 0.014681224418 0.020714152404 0.027586015915 0.035218281445 
0.043525839059 0.052401607826 0.061700753006 0.071229482229 0.080742544487 0.089951500454 0.09854294281 0.10620364317 0.11264895531 
0.11765110287 0.12106425112 0.12284322123 0.1230527073 0.12186451218 0.11954216911 0.1164152771 0.11284864336 0.10921181727 
0.10585174148 0.10306611182 0.10107607855 0.099997472323 0.099651882083 0.099835455056 0.10033946786 0.10097145004 0.10160199891 
0.10209921943 0.10232607974 0.10224548158 0.10186657771 0.10122898632 0.10042069017 0.099583829619 0.098893011087 0.098518156617 
0.098597973915 0.099243285329 0.10056241541 0.1026802638 0.10571975768 0.10974424503 0.11472234992 0.12053860934 0.12701874096 
0.13395432159 0.1411192415 0.14827786853 0.15519184384 0.16163343167 0.16740616287 0.17236332011 0.17641500103 0.1795245903 
0.18170166176 0.18299542047 0.18348805721 0.1832865291 0.18251184451 0.18128436336 0.17970482512 0.17783525412 0.17568631511 
0.17321575835 0.1703408061 0.16696437413 0.16300742353 0.15843377419 0.15325611416 0.14752129863 0.14128323658 0.13457678556 
0.12740447374 0.11974182863 0.1115590263 0.10284958068 0.093654773003 0.084075466019 0.074267888968 0.064425513797 0.054754316062 
0.045450911728 0.036690012137 0.028621287368 0.021371508968 0.015048084421 0.0097420825265 0.0055300200774 0.0024740998334 0.00062101900767 
2.3978924113e-17 
