# vtk DataFile Version 5.1
vtk output
ASCII
DATASET POLYDATA
POINTS 100 float
0.114998 0.101992 -0.726443 0.115168 0.101944 -0.726325 0.115628 0.101625 -0.726045 
0.116318 0.101011 -0.725544 0.117148 0.100068 -0.724732 0.118002 0.0987553 -0.723496 
0.118756 0.0970334 -0.721709 0.119284 0.0948675 -0.71924 0.119472 0.0922361 -0.715973 
0.119225 0.0891337 -0.711809 0.118475 0.0855728 -0.70668 0.117176 0.0815838 -0.700556 
0.115306 0.077211 -0.69344 0.112863 0.0725082 -0.685375 0.109849 0.0675319 -0.676429 
0.10627 0.0623352 -0.666692 0.102128 0.0569615 -0.656264 0.0974093 0.051441 -0.645239 
0.0920927 0.0457886 -0.633696 0.0861449 0.0400054 -0.621684 0.0795292 0.0340822 -0.609219 
0.0722135 0.0280057 -0.596276 0.0641801 0.021766 -0.58279 0.0554362 0.0153648 -0.568659 
0.0460215 0.00882243 -0.553758 0.0360138 0.00218326 -0.537946 0.0255294 -0.00448163 -0.521084 
0.0147191 -0.0110752 -0.50305 0.0037594 -0.0174787 -0.483755 -0.00715993 -0.0235593 -0.463152 
-0.0178511 -0.0291794 -0.441251 -0.0281437 -0.0342087 -0.418114 -0.0378994 -0.038535 -0.393861 
-0.0470226 -0.0420742 -0.368657 -0.0554668 -0.0447782 -0.342702 -0.063235 -0.0466389 -0.316216 
-0.0703743 -0.0476879 -0.289419 -0.076965 -0.0479933 -0.262513 -0.0831048 -0.0476514 -0.235671 
-0.0888918 -0.0467771 -0.209015 -0.0944063 -0.0454916 -0.182618 -0.0996951 -0.043911 -0.156496 
-0.10476 -0.0421355 -0.130613 -0.10955 -0.0402417 -0.104894 -0.113965 -0.0382776 -0.0792345 
-0.117859 -0.0362622 -0.0535227 -0.121056 -0.0341891 -0.0276527 -0.123364 -0.0320329 -0.00154448 
-0.124597 -0.0297584 0.0248429 -0.124593 -0.0273311 0.0515017 -0.12323 -0.0247279 0.0783716 
-0.120442 -0.0219452 0.105341 -0.116226 -0.019006 0.132257 -0.110639 -0.0159618 0.158934 
-0.103796 -0.0128924 0.185172 -0.0958594 -0.00990034 0.210775 -0.0870214 -0.00710352 0.235564 
-0.0774881 -0.00462467 0.259398 -0.0674619 -0.00258019 0.28218 -0.0571254 -0.00106916 0.303863 
-0.04663 -0.000163904 0.324456 -0.036088 9.68649e-05 0.344017 -0.0255709 -0.00028848 0.362644 
-0.0151126 -0.00128466 0.380465 -0.00471666 -0.00282331 0.397624 0.00563348 -0.00480982 0.414266 
0.0159625 -0.00713257 0.430529 0.0262917 -0.00967322 0.446528 0.0366296 -0.0123172 0.462355 
0.0469651 -0.014963 0.478068 0.0572648 -0.0175298 0.493699 0.0674738 -0.0199618 0.509251 
0.0775199 -0.0222303 0.524707 0.0873211 -0.0243327 0.540032 0.0967937 -0.0262881 0.555179 
0.105861 -0.0281322 0.570094 0.114461 -0.0299098 0.58472 0.122552 -0.031668 0.598993 
0.130114 -0.0334487 0.612844 0.137149 -0.035284 0.626198 0.14368 -0.0371912 0.63897 
0.149744 -0.0391721 0.651065 0.155382 -0.0412123 0.662376 0.160642 -0.0432838 0.672793 
0.165561 -0.0453481 0.682201 0.170169 -0.047361 0.690491 0.174485 -0.0492767 0.697574 
0.178513 -0.0510533 0.703385 0.182248 -0.0526559 0.707896 0.185676 -0.0540599 0.711128 
0.188781 -0.0552524 0.71315 0.191545 -0.0562329 0.714085 0.193958 -0.0570121 0.714106 
0.196013 -0.0576101 0.713423 0.197713 -0.0580535 0.712276 0.199066 -0.0583726 0.710912 
0.200088 -0.0585978 0.70957 0.200792 -0.0587564 0.708462 0.201195 -0.05887 0.707752 
0.201304 -0.0589523 0.707546 
LINES 2 100
OFFSETS vtktypeint64
0 100 
CONNECTIVITY vtktypeint64
0 1 2 3 4 5 6 7 8 
9 10 11 12 13 14 15 16 17 
18 19 20 21 22 23 24 25 26 
27 28 29 30 31 32 33 34 35 
36 37 38 39 40 41 42 43 44 
45 46 47 48 49 50 51 52 53 
54 55 56 57 58 59 60 61 62 
63 64 65 66 67 68 69 70 71 
72 73 74 75 76 77 78 79 80 
81 82 83 84 85 86 87 88 89 
90 91 92 93 94 95 96 97 98 
99 
POINT_DATA 100
FIELD FieldData 3
_theta 1 100 double
0 0.031733259127 0.063466518254 0.095199777382 0.12693303651 0.15866629564 0.19039955476 0.22213281389 0.25386607302 
0.28559933214 0.31733259127 0.3490658504 0.38079910953 0.41253236865 0.44426562778 0.47599888691 0.50773214603 0.53946540516 
0.57119866429 0.60293192342 0.63466518254 0.66639844167 0.6981317008 0.72986495992 0.76159821905 0.79333147818 0.82506473731 
0.85679799643 0.88853125556 0.92026451469 0.95199777382 0.98373103294 1.0154642921 1.0471975512 1.0789308103 1.1106640695 
1.1423973286 1.1741305877 1.2058638468 1.237597106 1.2693303651 1.3010636242 1.3327968833 1.3645301425 1.3962634016 
1.4279966607 1.4597299198 1.491463179 1.5231964381 1.5549296972 1.5866629564 1.6183962155 1.6501294746 1.6818627337 
1.7135959929 1.745329252 1.7770625111 1.8087957702 1.8405290294 1.8722622885 1.9039955476 1.9357288068 1.9674620659 
1.999195325 2.0309285841 2.0626618433 2.0943951024 2.1261283615 2.1578616206 2.1895948798 2.2213281389 2.253061398 
2.2847946572 2.3165279163 2.3482611754 2.3799944345 2.4117276937 2.4434609528 2.4751942119 2.506927471 2.5386607302 
2.5703939893 2.6021272484 2.6338605076 2.6655937667 2.6973270258 2.7290602849 2.7607935441 2.7925268032 2.8242600623 
2.8559933214 2.8877265806 2.9194598397 2.9511930988 2.982926358 3.0146596171 3.0463928762 3.0781261353 3.1098593945 
3.1415926536 
_radius 1 100 double
4.793364605e-16 0.014628661498 0.02914296905 0.043435487327 0.05741417213 0.071006478635 0.084159651181 0.096836966552 0.10901063714 
0.12065301977 0.13172836204 0.14218723694 0.15196502302 0.1609845899 0.16916226047 0.17641555591 0.18267127418 0.18787288296 
0.19198669725 0.19500664286 0.19695753609 0.19789679986 0.19791445901 0.19713116142 0.19569391212 0.19376928778 0.19153423776 
0.18916520237 0.18682700183 0.18466337337 0.18279075382 0.18129584022 0.18023606906 0.17964125058 0.17951479973 0.17983423645 
0.18055206069 0.1815986752 0.18288807551 0.18432487194 0.18580979428 0.18724307645 0.18852983148 0.18959111424 0.19037769226 
0.19088029229 0.19113335926 0.19121330523 0.19123337221 0.19133613429 0.19168292023 0.19243865354 0.19375174554 0.19573130448 
0.19842642767 0.2018131032 0.20579268421 0.21020270035 0.21483737547 0.21947299159 0.22389282798 0.22790759067 0.23136923288 
0.23417796479 0.23628348745 0.23768195948 0.23841013978 0.23853781935 0.23815922249 0.23738361924 0.23632506998 0.23509117418 
0.23377101829 0.23242317756 0.23106539563 0.22966804208 0.22815323015 0.2264004505 0.22425807679 0.2215587474 0.21813595051 
0.21383928768 0.20854664041 0.20217242085 0.19467190615 0.1860421502 0.17632011984 0.16557861556 0.15392036225 0.14147054129 
0.12836806917 0.11475611169 0.10077257068 0.086541463874 0.07216612703 0.057724964376 0.043270113415 0.028828983711 0.01440829077 
2.722988553e-16 
_area 1 100 double
0 0.00053869296664 0.0021479203419 0.0048072099635 0.0084826058304 0.01312648076 0.018676495894 0.025053397284 0.032157627721 
0.039864768583 0.048020188676 0.056434499943 0.064882598255 0.073108878829 0.080839738798 0.087802749749 0.093750386233 0.098484751779 
0.10187849529 0.10388698158 0.10454864502 0.10397387697 0.10232598672 0.09979917077 0.096598113026 0.092923005253 0.088962906391 
0.084898777699 0.080914896797 0.077213950627 0.074025282983 0.071586971419 0.070089681001 0.069616691468 0.070129914149 0.071495083364 
0.07351678235 0.07597636885 0.078676466518 0.08148941127 0.084378522736 0.087341191944 0.090334265767 0.093237473307 0.095860409735 
0.09802388753 0.099624686802 0.10066512933 0.10128267654 0.10177105355 0.10251076969 0.10385064697 0.10611998826 0.10967759702 
0.11462932141 0.12057168833 0.12702104448 0.13355806374 0.13980844556 0.1454469126 0.15022136761 0.15398632061 0.15673549865 
0.15861967953 0.15991839144 0.16090065057 0.16160433573 0.16183437763 0.16139274202 0.16020904659 0.15834756709 0.1559786284 
0.15333743055 0.15066991743 0.14816988786 0.14592211238 0.14387185973 0.14183292401 0.13952815764 0.1366453282 0.13289313199 
0.12804821327 0.12198706608 0.11469891201 0.1062799779 0.09691431099 0.086848370788 0.076365532745 0.065763776438 0.055337044568 
0.045359324284 0.036070752093 0.027666328889 0.020288956802 0.014028529418 0.0089276230658 0.0049926405604 0.0022079512059 0.0005501574218 
1.1460006396e-16 
