# vtk DataFile Version 5.1
vtk output
ASCII
DATASET POLYDATA
POINTS 100 float
0.183476 0.108589 -0.61797 0.183327 0.108556 -0.617696 0.182847 0.108236 -0.616858 
0.182035 0.107592 -0.615459 0.180895 0.106566 -0.613505 0.179432 0.105092 -0.611004 
0.177654 0.103094 -0.607967 0.175568 0.100504 -0.604405 0.173184 0.0972616 -0.600332 
0.170511 0.0933258 -0.595759 0.167553 0.0886787 -0.590696 0.164306 0.0833283 -0.585151 
0.160758 0.0773093 -0.57913 0.156882 0.0706814 -0.572634 0.152636 0.0635252 -0.565657 
0.147966 0.0559372 -0.558191 0.142805 0.0480233 -0.55022 0.137079 0.0398923 -0.541723 
0.13071 0.0316506 -0.532672 0.123632 0.0233969 -0.523036 0.11579 0.0152197 -0.512779 
0.107153 0.00719507 -0.501864 0.0977212 -0.000612243 -0.490251 0.0875273 -0.0081477 -0.477903 
0.0766394 -0.015364 -0.464786 0.0651585 -0.022218 -0.45087 0.0532117 -0.0286676 -0.436134 
0.0409444 -0.0346696 -0.420563 0.028509 -0.0401782 -0.404155 0.0160535 -0.0451453 -0.386917 
0.00371151 -0.0495217 -0.368866 -0.00840668 -0.0532604 -0.35003 -0.0202189 -0.0563198 -0.330449 
-0.031672 -0.0586679 -0.310167 -0.0427385 -0.0602865 -0.289236 -0.0534094 -0.0611747 -0.267716 
-0.0636833 -0.0613505 -0.245665 -0.0735549 -0.0608519 -0.223146 -0.0830028 -0.0597358 -0.200222 
-0.0919798 -0.058075 -0.176956 -0.100406 -0.0559542 -0.153409 -0.108168 -0.0534647 -0.129644 
-0.115121 -0.0506984 -0.105722 -0.121101 -0.0477422 -0.0817058 -0.125932 -0.0446731 -0.0576607 
-0.129451 -0.0415543 -0.0336531 -0.13152 -0.0384326 -0.00975218 -0.132044 -0.0353384 0.0139709 
-0.130987 -0.0322865 0.0374434 -0.128377 -0.0292796 0.0605928 -0.12431 -0.0263115 0.0833483 
-0.118946 -0.0233723 0.105643 -0.112497 -0.0204531 0.127416 -0.105209 -0.0175502 0.148616 
-0.0973423 -0.0146681 0.169201 -0.0891492 -0.0118218 0.189141 -0.0808529 -0.0090367 0.208419 
-0.0726298 -0.00634746 0.22703 -0.0645977 -0.00379511 0.244982 -0.05681 -0.00142321 0.262292 
-0.0492582 0.000726641 0.278986 -0.0418811 0.00261933 0.295096 -0.0345794 0.00423031 0.310661 
-0.0272344 0.00554875 0.325717 -0.0197284 0.00657925 0.340306 -0.0119637 0.00734205 0.354468 
-0.00387813 0.00787165 0.368241 0.00454421 0.00821394 0.381663 0.013269 0.00842211 0.394773 
0.0222141 0.00855191 0.407608 0.0312586 0.00865656 0.420206 0.0402559 0.00878205 0.432602 
0.0490507 0.00896313 0.444834 0.0574953 0.00922043 0.456934 0.0654657 0.00955911 0.468928 
0.0728732 0.0099689 0.480835 0.0796711 0.0104258 0.492661 0.0858561 0.0108947 0.504399 
0.0914639 0.0113338 0.516022 0.0965595 0.0116981 0.527485 0.101225 0.0119445 0.538723 
0.105547 0.012036 0.549653 0.109599 0.0119444 0.560177 0.113437 0.0116534 0.570188 
0.117087 0.0111595 0.579575 0.120547 0.0104719 0.588232 0.123785 0.00961149 0.596067 
0.126755 0.00860898 0.603004 0.129395 0.00750191 0.609 0.131652 0.00633184 0.614039 
0.133482 0.00514134 0.618142 0.134868 0.00397133 0.621363 0.13582 0.00285891 0.623788 
0.13638 0.00183594 0.625526 0.136617 0.000928261 0.626703 0.136617 0.000155637 0.627451 
0.136478 -0.00046776 0.627897 0.136293 -0.000932536 0.628153 0.136138 -0.00123311 0.628305 
0.136063 -0.00136682 0.628408 
LINES 2 100
OFFSETS vtktypeint64
0 100 
CONNECTIVITY vtktypeint64
0 1 2 3 4 5 6 7 8 
9 10 11 12 13 14 15 16 17 
18 19 20 21 22 23 24 25 26 
27 28 29 30 31 32 33 34 35 
36 37 38 39 40 41 42 43 44 
45 46 47 48 49 50 51 52 53 
54 55 56 57 58 59 60 61 62 
63 64 65 66 67 68 69 70 71 
72 73 74 75 76 77 78 79 80 
81 82 83 84 85 86 87 88 89 
90 91 92 93 94 95 96 97 98 
99 
POINT_DATA 100
FIELD FieldData 3
_theta 1 100 double
0 0.031733259127 0.063466518254 0.095199777382 0.12693303651 0.15866629564 0.19039955476 0.22213281389 0.25386607302 
0.28559933214 0.31733259127 0.3490658504 0.38079910953 0.41253236865 0.44426562778 0.47599888691 0.50773214603 0.53946540516 
0.57119866429 0.60293192342 0.63466518254 0.66639844167 0.6981317008 0.72986495992 0.76159821905 0.79333147818 0.82506473731 
0.85679799643 0.88853125556 0.92026451469 0.95199777382 0.98373103294 1.0154642921 1.0471975512 1.0789308103 1.1106640695 
1.1423973286 1.1741305877 1.2058638468 1.237597106 1.2693303651 1.3010636242 1.3327968833 1.3645301425 1.3962634016 
1.4279966607 1.4597299198 1.491463179 1.5231964381 1.5549296972 1.5866629564 1.6183962155 1.6501294746 1.6818627337 
1.7135959929 1.745329252 1.7770625111 1.8087957702 1.8405290294 1.8722622885 1.9039955476 1.9357288068 1.9674620659 
1.999195325 2.0309285841 2.0626618433 2.0943951024 2.1261283615 2.1578616206 2.1895948798 2.2213281389 2.253061398 
2.2847946572 2.3165279163 2.3482611754 2.3799944345 2.4117276937 2.4434609528 2.4751942119 2.506927471 2.5386607302 
2.5703939893 2.6021272484 2.6338605076 2.6655937667 2.6973270258 2.7290602849 2.7607935441 2.7925268032 2.8242600623 
2.8559933214 2.8877265806 2.9194598397 2.9511930988 2.982926358 3.0146596171 3.0463928762 3.0781261353 3.1098593945 
3.1415926536 
_radius 1 100 double
8.9218094914e-16 0.015607225177 0.031003850653 0.045995020388 0.060421538699 0.074171218381 0.087183241841 0.099444784329 0.11098039965 
0.1218359815 0.13206021768 0.14168704435 0.15072245707 0.15913812153 0.16687278249 0.17384090859 0.17994674724 0.18510125146 
0.18923921183 0.19233424468 0.19440983628 0.19554520876 0.19587521356 0.19558375728 0.19489058646 0.19403189609 0.19323637824 
0.19269982296 0.19256262268 0.19289474357 0.19369143988 0.19488045155 0.19633861576 0.19791388234 0.19944828119 0.20079830928 
0.20185080056 0.20253378138 0.20282258117 0.20274167302 0.20236282349 0.20180035572 0.201204461 0.20075316397 0.20064260118 
0.20107403787 0.20223548179 0.20427720469 0.20728457522 0.21125632449 0.21609712216 0.22162791512 0.22761005291 0.23377561195 
0.23985732564 0.2456141502 0.25085051478 0.25542841276 0.2592721493 0.26236611747 0.26474651825 0.26648842219 0.26768993436 
0.26845543698 0.26887992255 0.26903625408 0.26896675265 0.26867982859 0.26815157108 0.26733150478 0.26615128562 0.26453494838 
0.26240930065 0.25971307884 0.2564036042 0.25246003465 0.24788291791 0.2426904622 0.23691254143 0.23058378374 0.22373709158 
0.21639863887 0.20858489273 0.200301667 0.19154479536 0.18230183817 0.17255435048 0.16228055371 0.15145855604 0.14007030496 
0.12810611759 0.11556909863 0.10247841045 0.08887050045 0.074797974783 0.060326519297 0.045530783089 0.030490296544 0.015286307976 
1.0807339884e-15 
_area 1 100 double
0 0.00064470223321 0.0025400988363 0.0055762481407 0.0095889820587 0.014383515697 0.019759083801 0.025529330294 0.031534858161 
0.037646555944 0.043760286455 0.049785146146 0.055629030433 0.061186400964 0.066333035674 0.070930595305 0.074840609768 0.077944330161 
0.080163222482 0.08147523328 0.081923515036 0.081615914718 0.080715137438 0.079421948634 0.077956723278 0.076545509798 0.075415634676 
0.074855041488 0.075093507997 0.076087197984 0.077872488051 0.080326702504 0.083333527347 0.086757248781 0.090428953861 0.094160873834 
0.097765356452 0.10107632349 0.10397328863 0.10640062444 0.10836910553 0.10993498988 0.11117400275 0.11218024148 0.11311213433 
0.11425372826 0.11592564211 0.11821585301 0.12129525092 0.12541261823 0.13073931499 0.13719381646 0.14447794342 0.15223528077 
0.16011637453 0.16779188423 0.17496232704 0.18137347391 0.18683545694 0.19123933245 0.1945662001 0.19689501894 0.19845110385 
0.19961556695 0.20039859648 0.20059791319 0.20011315813 0.19890434222 0.19695415026 0.19425225619 0.19078823967 0.18655280903 
0.18154501771 0.17578192343 0.16930759988 0.16219825188 0.15456024041 0.1465195907 0.13820483933 0.12972934363 0.12118167706 
0.11262794407 0.10412052362 0.095704670986 0.087418876335 0.079290142242 0.071328467758 0.063525976818 0.05586476396 0.048333338325 
0.040946482299 0.03376074475 0.026879405295 0.020445373992 0.014625193277 0.0095896531039 0.0054960807324 0.0024752746938 0.00062371633724 
1.4376139118e-17 
