# vtk DataFile Version 5.1
vtk output
ASCII
DATASET POLYDATA
POINTS 100 float
0.0856497 0.0671659 -0.714331 0.0855292 0.0672146 -0.714115 0.0851373 0.0671203 -0.713438 
0.0844976 0.0668337 -0.712237 0.0836471 0.066281 -0.71042 0.0826342 0.0653732 -0.707876 
0.0815137 0.0640178 -0.70449 0.0803418 0.0621308 -0.700164 0.0791701 0.0596492 -0.694828 
0.078039 0.0565394 -0.68845 0.0769709 0.052804 -0.681046 0.0759648 0.0484841 -0.672677 
0.0749919 0.0436571 -0.663445 0.0739933 0.0384307 -0.653481 0.0728806 0.032934 -0.64293 
0.0715398 0.0273062 -0.631936 0.069838 0.0216843 -0.620623 0.0676332 0.0161919 -0.609082 
0.0647865 0.0109299 -0.597363 0.0611749 0.00596935 -0.585465 0.0567044 0.00134917 -0.573341 
0.0513215 -0.00292341 -0.560905 0.0450211 -0.00686824 -0.548037 0.0378505 -0.0105249 -0.534605 
0.0299091 -0.0139438 -0.520474 0.0213418 -0.0171757 -0.505527 0.0123282 -0.0202631 -0.489671 
0.00306807 -0.0232322 -0.472849 -0.00623606 -0.0260882 -0.455044 -0.0153961 -0.0288131 -0.436275 
-0.0242544 -0.0313673 -0.416596 -0.0326966 -0.0336941 -0.39608 -0.0406586 -0.0357263 -0.374814 
-0.0481281 -0.0373945 -0.352885 -0.0551397 -0.0386358 -0.330369 -0.0617636 -0.039402 -0.307325 
-0.0680902 -0.0396659 -0.283791 -0.0742113 -0.0394255 -0.259785 -0.0802014 -0.0387056 -0.235308 
-0.0861003 -0.037556 -0.21035 -0.0919002 -0.0360477 -0.184903 -0.0975385 -0.0342666 -0.158968 
-0.102897 -0.0323062 -0.132565 -0.107812 -0.0302596 -0.105738 -0.112082 -0.0282123 -0.0785587 
-0.115495 -0.0262352 -0.0511267 -0.117842 -0.0243808 -0.0235651 -0.118945 -0.0226808 0.00398757 
-0.118676 -0.0211454 0.0313857 -0.11697 -0.019766 0.0584872 -0.113836 -0.0185184 0.0851633 
-0.109355 -0.0173681 0.111306 -0.103678 -0.0162758 0.136835 -0.0970085 -0.0152028 0.161697 
-0.0895817 -0.0141159 0.185867 -0.0816454 -0.0129917 0.209344 -0.0734353 -0.0118194 0.232144 
-0.065154 -0.0106016 0.254291 -0.0569553 -0.00935518 0.275815 -0.0489343 -0.00810936 0.29674 
-0.0411246 -0.00690419 0.317084 -0.0335036 -0.00578751 0.336853 -0.0260033 -0.0048119 0.356047 
-0.0185269 -0.00403144 0.374656 -0.010967 -0.00349852 0.392671 -0.00322468 -0.00326088 0.410084 
0.00477475 -0.00335895 0.426896 0.0130693 -0.00382361 0.443118 0.0216542 -0.0046742 0.458773 
0.0304819 -0.00591713 0.473896 0.0394679 -0.00754478 0.488528 0.0485019 -0.00953503 0.502717 
0.0574613 -0.0118513 0.516504 0.0662263 -0.0144434 0.52992 0.0746939 -0.0172488 0.542983 
0.082789 -0.0201951 0.55569 0.0904702 -0.0232028 0.568015 0.0977317 -0.026189 0.579914 
0.104599 -0.0290713 0.591327 0.111119 -0.031772 0.602184 0.117354 -0.0342221 0.61241 
0.12336 -0.0363651 0.621942 0.129184 -0.0381598 0.630727 0.134849 -0.039582 0.638733 
0.140349 -0.0406256 0.645955 0.14565 -0.0413016 0.652411 0.150693 -0.0416368 0.658143 
0.155402 -0.041671 0.663211 0.159694 -0.0414536 0.667685 0.163494 -0.0410398 0.671643 
0.166743 -0.040487 0.675153 0.169412 -0.0398511 0.678275 0.171502 -0.0391838 0.681052 
0.173049 -0.0385308 0.683507 0.17412 -0.0379303 0.685646 0.174801 -0.0374129 0.687458 
0.17519 -0.0370019 0.688924 0.175382 -0.0367142 0.690017 0.175454 -0.0365612 0.690712 
0.175459 -0.0365498 0.690993 
LINES 2 100
OFFSETS vtktypeint64
0 100 
CONNECTIVITY vtktypeint64
0 1 2 3 4 5 6 7 8 
9 10 11 12 13 14 15 16 17 
18 19 20 21 22 23 24 25 26 
27 28 29 30 31 32 33 34 35 
36 37 38 39 40 41 42 43 44 
45 46 47 48 49 50 51 52 53 
54 55 56 57 58 59 60 61 62 
63 64 65 66 67 68 69 70 71 
72 73 74 75 76 77 78 79 80 
81 82 83 84 85 86 87 88 89 
90 91 92 93 94 95 96 97 98 
99 
POINT_DATA 100
FIELD FieldData 3
_theta 1 100 double
0 0.031733259127 0.063466518254 0.095199777382 0.12693303651 0.15866629564 0.19039955476 0.22213281389 0.25386607302 
0.28559933214 0.31733259127 0.3490658504 0.38079910953 0.41253236865 0.44426562778 0.47599888691 0.50773214603 0.53946540516 
0.57119866429 0.60293192342 0.63466518254 0.66639844167 0.6981317008 0.72986495992 0.76159821905 0.79333147818 0.82506473731 
0.85679799643 0.88853125556 0.92026451469 0.95199777382 0.98373103294 1.0154642921 1.0471975512 1.0789308103 1.1106640695 
1.1423973286 1.1741305877 1.2058638468 1.237597106 1.2693303651 1.3010636242 1.3327968833 1.3645301425 1.3962634016 
1.4279966607 1.4597299198 1.491463179 1.5231964381 1.5549296972 1.5866629564 1.6183962155 1.6501294746 1.6818627337 
1.7135959929 1.745329252 1.7770625111 1.8087957702 1.8405290294 1.8722622885 1.9039955476 1.9357288068 1.9674620659 
1.999195325 2.0309285841 2.0626618433 2.0943951024 2.1261283615 2.1578616206 2.1895948798 2.2213281389 2.253061398 
2.2847946572 2.3165279163 2.3482611754 2.3799944345 2.4117276937 2.4434609528 2.4751942119 2.506927471 2.5386607302 
2.5703939893 2.6021272484 2.6338605076 2.6655937667 2.6973270258 2.7290602849 2.7607935441 2.7925268032 2.8242600623 
2.8559933214 2.8877265806 2.9194598397 2.9511930988 2.982926358 3.0146596171 3.0463928762 3.0781261353 3.1098593945 
3.1415926536 
_radius 1 100 double
1.1175712814e-15 0.015017709207 0.029852182975 0.044334411216 0.058324309654 0.071720785356 0.084467057848 0.096550515418 0.1079970352 
0.11886039609 0.12920808576 0.1391053534 0.14859969226 0.157707977 0.16640819936 0.17463716944 0.18229475303 0.18925430881 
0.19537810224 0.20053573516 0.20462314679 0.20757957925 0.20940008398 0.21014166852 0.20992200969 0.20891071497 0.20731426727 
0.20535684085 0.20325986373 0.20122326831 0.19941071238 0.19793987013 0.19687769474 0.19623988414 0.19599384278 0.19606492866 
0.19634614935 0.19671131532 0.19703097535 0.19718959006 0.19710175837 0.19672514618 0.19606811282 0.19519078239 0.19419930669 
0.19323417377 0.19245449898 0.19202104935 0.19208084585 0.19275520717 0.19413140776 0.19625685558 0.19913475479 0.20272133083 
0.20692577122 0.21161424636 0.21661869414 0.2217499769 0.22681404126 0.23162905774 0.23604123477 0.23993712671 0.24325080751 
0.24596515215 0.24810741223 0.24974004492 0.2509482296 0.25182569194 0.25246042787 0.2529217676 0.25325001102 0.25344962474 
0.25348668634 0.25329082713 0.25276134822 0.25177657454 0.25020507126 0.24791723113 0.24479594557 0.24074543983 0.23569769994 
0.22961615037 0.22249639142 0.2143639796 0.20526951688 0.19528170105 0.18447938102 0.17294391002 0.16075305788 0.14797736993 
0.13467920808 0.1209139899 0.10673263447 0.092184130237 0.07731745205 0.062182562268 0.046830661544 0.031314044757 0.015685871289 
2.5738567783e-16 
_area 1 100 double
0 0.00061765988905 0.0024380749574 0.0053682956214 0.0092682569031 0.013969912675 0.019298536952 0.02509232084 0.031217058613 
0.037574012933 0.044100527061 0.050763971646 0.057549790498 0.064444197268 0.071412711478 0.078378038311 0.085203644026 0.091690023169 
0.097587821393 0.10262742623 0.10656065785 0.10920701565 0.11049307212 0.11046991715 0.10930133129 0.1072369788 0.1045852334 
0.10167819946 0.098826539006 0.096291538091 0.094272261938 0.092846713192 0.091998243631 0.091791295214 0.092152796671 0.092938534513 
0.094062008879 0.095540429524 0.097075091486 0.098539601262 0.099774135044 0.10070391088 0.10133522561 0.10173948028 0.10203483075 
0.10234758423 0.10278022632 0.10341916352 0.10436064823 0.10571999656 0.1076207893 0.11017840742 0.11348570451 0.11759903837 
0.12252354172 0.12819885234 0.13448701886 0.14116561468 0.14793292196 0.15443461797 0.16031435678 0.16527500945 0.1691291207 
0.17182426532 0.17344082163 0.17416371894 0.1742256684 0.17383452043 0.17313476578 0.17221858893 0.17114383762 0.16993806339 
0.16859393667 0.16706265148 0.16525028 0.1630215892 0.16021343918 0.15665572105 0.15219492458 0.14671568705 0.14015789211 
0.13252855529 0.12390760769 0.11444576758 0.10435283886 0.093876694643 0.083275991903 0.072792019961 0.062626285348 0.052929985862 
0.043808545843 0.035338543465 0.027588254443 0.0206317602 0.014551952685 0.0094349640469 0.0053616858788 0.0024005396936 0.00060279338699 
6.3985148166e-17 
