# vtk DataFile Version 5.1
vtk output
ASCII
DATASET POLYDATA
POINTS 100 float
0.0710078 0.0709832 -0.676163 0.0708425 0.0708271 -0.675869 0.0703212 0.0701382 -0.674935 
0.0694885 0.0689338 -0.673359 0.068414 0.0672415 -0.671133 0.0671862 0.0650974 -0.668255 
0.0659047 0.0625438 -0.664724 0.0646707 0.0596258 -0.660544 0.0635768 0.0563892 -0.655728 
0.0626978 0.052878 -0.650296 0.062081 0.0491325 -0.644272 0.06174 0.0451881 -0.637687 
0.0616496 0.0410752 -0.630571 0.0617446 0.036819 -0.622951 0.0619219 0.0324406 -0.614846 
0.0620462 0.027958 -0.606265 0.0619586 0.0233876 -0.597202 0.0614886 0.0187452 -0.587638 
0.0604668 0.0140474 -0.577538 0.0587393 0.00931222 -0.566855 0.0561805 0.00455943 -0.555536 
0.0527046 -0.000189385 -0.543524 0.0482729 -0.00491112 -0.530768 0.0428981 -0.00958163 -0.517222 
0.0366435 -0.0141762 -0.502859 0.0296174 -0.0186698 -0.487664 0.0219639 -0.0230374 -0.471644 
0.0138502 -0.0272537 -0.454821 0.00545241 -0.0312926 -0.437233 -0.00305961 -0.0351266 -0.418926 
-0.011535 -0.0387263 -0.399952 -0.0198524 -0.0420594 -0.380361 -0.0279262 -0.045091 -0.360194 
-0.0357083 -0.0477833 -0.339485 -0.0431842 -0.0500966 -0.318251 -0.0503659 -0.0519909 -0.2965 
-0.0572799 -0.0534283 -0.274231 -0.0639548 -0.0543749 -0.251437 -0.0704076 -0.0548046 -0.228113 
-0.0766323 -0.0547017 -0.204263 -0.0825913 -0.0540633 -0.179906 -0.0882115 -0.0529017 -0.15508 
-0.0933855 -0.0512452 -0.129849 -0.097978 -0.0491382 -0.1043 -0.101837 -0.0466398 -0.078541 
-0.104806 -0.0438213 -0.0527007 -0.106743 -0.0407628 -0.0269173 -0.107535 -0.0375487 -0.00133147 
-0.107108 -0.0342632 0.0239219 -0.105441 -0.0309857 0.0487227 -0.102567 -0.0277862 0.0729726 
-0.0985752 -0.0247221 0.0966 -0.0935979 -0.0218362 0.119563 -0.0878044 -0.0191554 0.141847 
-0.0813829 -0.016691 0.163464 -0.0745241 -0.0144412 0.184448 -0.0674049 -0.0123931 0.204845 
-0.060174 -0.0105268 0.224708 -0.0529423 -0.00881948 0.244092 -0.0457772 -0.00724898 0.263044 
-0.0387036 -0.00579763 0.281604 -0.0317092 -0.00445484 0.299797 -0.0247552 -0.00321883 0.317638 
-0.0177887 -0.00209708 0.335134 -0.0107572 -0.0011057 0.352283 -0.00362153 -0.000267699 0.369081 
0.00363338 0.000389578 0.385525 0.0109919 0.00083751 0.401617 0.0184058 0.00104945 0.417365 
0.0257973 0.00100381 0.432783 0.0330666 0.000686648 0.447891 0.0401028 9.351e-05 0.462711 
0.0467959 -0.000769561 0.477263 0.0530501 -0.00188602 0.491563 0.0587939 -0.00322968 0.505616 
0.0639885 -0.00476639 0.519415 0.0686303 -0.00645621 0.532938 0.0727508 -0.00825603 0.546148 
0.0764102 -0.0101221 0.558997 0.0796885 -0.0120127 0.571425 0.0826744 -0.0138899 0.583368 
0.0854531 -0.0157214 0.594761 0.0880952 -0.0174814 0.605545 0.0906483 -0.019151 0.615671 
0.0931324 -0.0207176 0.625103 0.0955387 -0.0221748 0.633821 0.0978339 -0.0235207 0.64182 
0.0999668 -0.0247571 0.649109 0.101878 -0.0258878 0.655708 0.103513 -0.0269176 0.661646 
0.104827 -0.0278512 0.666954 0.1058 -0.0286926 0.671664 0.106435 -0.0294443 0.675801 
0.106765 -0.0301076 0.679386 0.106847 -0.0306823 0.682433 0.106753 -0.0311673 0.684948 
0.106565 -0.0315608 0.68693 0.106361 -0.0318611 0.688376 0.106208 -0.0320668 0.68928 
0.106146 -0.032177 0.689636 
LINES 2 100
OFFSETS vtktypeint64
0 100 
CONNECTIVITY vtktypeint64
0 1 2 3 4 5 6 7 8 
9 10 11 12 13 14 15 16 17 
18 19 20 21 22 23 24 25 26 
27 28 29 30 31 32 33 34 35 
36 37 38 39 40 41 42 43 44 
45 46 47 48 49 50 51 52 53 
54 55 56 57 58 59 60 61 62 
63 64 65 66 67 68 69 70 71 
72 73 74 75 76 77 78 79 80 
81 82 83 84 85 86 87 88 89 
90 91 92 93 94 95 96 97 98 
99 
POINT_DATA 100
FIELD FieldData 3
_theta 1 100 double
0 0.031733259127 0.063466518254 0.095199777382 0.12693303651 0.15866629564 0.19039955476 0.22213281389 0.25386607302 
0.28559933214 0.31733259127 0.3490658504 0.38079910953 0.41253236865 0.44426562778 0.47599888691 0.50773214603 0.53946540516 
0.57119866429 0.60293192342 0.63466518254 0.66639844167 0.6981317008 0.72986495992 0.76159821905 0.79333147818 0.82506473731 
0.85679799643 0.88853125556 0.92026451469 0.95199777382 0.98373103294 1.0154642921 1.0471975512 1.0789308103 1.1106640695 
1.1423973286 1.1741305877 1.2058638468 1.237597106 1.2693303651 1.3010636242 1.3327968833 1.3645301425 1.3962634016 
1.4279966607 1.4597299198 1.491463179 1.5231964381 1.5549296972 1.5866629564 1.6183962155 1.6501294746 1.6818627337 
1.7135959929 1.745329252 1.7770625111 1.8087957702 1.8405290294 1.8722622885 1.9039955476 1.9357288068 1.9674620659 
1.999195325 2.0309285841 2.0626618433 2.0943951024 2.1261283615 2.1578616206 2.1895948798 2.2213281389 2.253061398 
2.2847946572 2.3165279163 2.3482611754 2.3799944345 2.4117276937 2.4434609528 2.4751942119 2.506927471 2.5386607302 
2.5703939893 2.6021272484 2.6338605076 2.6655937667 2.6973270258 2.7290602849 2.7607935441 2.7925268032 2.8242600623 
2.8559933214 2.8877265806 2.9194598397 2.9511930988 2.982926358 3.0146596171 3.0463928762 3.0781261353 3.1098593945 
3.1415926536 
_radius 1 100 double
5.9285935503e-16 0.014365386051 0.028599081302 0.042577972714 0.056202712222 0.069405685432 0.082154284003 0.094448256921 0.10631069723 
0.11777363653 0.12886098271 0.1395728159 0.14987497679 0.15969632919 0.1689338836 0.17746417976 0.18515844068 0.19189891466 
0.19759417 0.20219161892 0.20568606139 0.20812347081 0.20959958603 0.21025320507 0.21025452939 0.20978957542 0.20904249082 
0.20817832759 0.20732906593 0.20658518508 0.20599386798 0.2055633875 0.2052719354 0.20507859765 0.20493444467 0.2047924782 
0.2046159749 0.20438521174 0.20410251984 0.20379523907 0.20351579964 0.20333822191 0.20335093991 0.20364680923 0.20431204047 
0.20541619212 0.20700502525 0.20909702874 0.21168321426 0.21472898612 0.21817689661 0.22194973784 0.22595414375 0.23008519815 
0.2342323537 0.23828647883 0.2421473592 0.2457306704 0.24897336868 0.25183661233 0.25430569856 0.25638701398 0.25810253494 
0.25948283838 0.26055977658 0.26135988556 0.26189928481 0.26218041743 0.26219062331 0.26190233381 0.26127463822 0.26025603637 
0.25878825201 0.25681092553 0.25426677845 0.25110653868 0.24729276905 0.24280195997 0.23762478735 0.23176499279 0.22523757151 
0.21806674089 0.21028369872 0.20192381595 0.19302292534 0.18361279936 0.17371653315 0.16334499739 0.15249551299 0.14115338988 
0.12929622368 0.11690021512 0.10394746716 0.090433171169 0.076371673056 0.061800568037 0.046782258442 0.031402820618 0.015768445534 
4.7424989508e-16 
_area 1 100 double
0 0.00057834808751 0.0022932518642 0.005087141243 0.0088733409799 0.013548933646 0.019009844948 0.025164033179 0.031937819663 
0.039272197935 0.047110290967 0.055380976622 0.063983946084 0.072778825171 0.081578995051 0.090151086556 0.098222342968 0.1054980807 
0.11168964303 0.11655017617 0.11991236571 0.12172002657 0.12204511605 0.12108403115 0.1191317607 0.11653820854 0.11365604722 
0.11079283966 0.10818081693 0.10597231636 0.10425578241 0.1030735657 0.10244518034 0.10235843515 0.1026061237 0.10308008526 
0.10367402312 0.10429176723 0.10487829996 0.10542381087 0.10592940161 0.10644195298 0.10705016136 0.10786121981 0.10897657079 
0.11047488818 0.11241183844 0.11483138821 0.11777063499 0.12124819881 0.12524753369 0.12971209567 0.13455254204 0.13965535515 
0.14488886958 0.15010988007 0.15517412804 0.15995041443 0.16433419752 0.16825498768 0.17167405911 0.17457358788 0.17694289228 
0.17876955939 0.1800398463 0.18074484304 0.18088483448 0.18046939261 0.17951739918 0.17805916284 0.17613474311 0.17377902676 
0.17099627471 0.16774962776 0.16397774058 0.15961310265 0.15458686741 0.14883486394 0.14231688463 0.13504053216 0.12707484769 
0.11854819461 0.10963273832 0.1005204086 0.091395884487 0.08241207751 0.073672845757 0.065227153742 0.057078355315 0.049208301855 
0.041607770102 0.034300336269 0.027352426739 0.020871135798 0.014994970301 0.0098811683208 0.0056909842181 0.0025736436638 0.00065028497674 
6.9836169128e-17 
