# vtk DataFile Version 5.1
vtk output
ASCII
DATASET POLYDATA
POINTS 100 float
0.178048 0.0561635 -0.643259 0.177764 0.0563191 -0.643258 0.177002 0.0566195 -0.643265 
0.175781 0.0570295 -0.643189 0.174131 0.0574918 -0.642895 0.172084 0.0579285 -0.64221 
0.169669 0.0582434 -0.64095 0.166907 0.0583258 -0.638938 0.163803 0.0580556 -0.63602 
0.160347 0.0573096 -0.632084 0.15651 0.0559695 -0.627067 0.152247 0.05393 -0.620957 
0.147504 0.0511079 -0.613789 0.142223 0.0474503 -0.605637 0.136352 0.0429412 -0.596596 
0.129853 0.0376067 -0.586771 0.122711 0.031516 -0.576256 0.11494 0.0247804 -0.565125 
0.106584 0.0175481 -0.553421 0.0977215 0.00999576 -0.541154 0.0884552 0.00231795 -0.528303 
0.0789089 -0.00528562 -0.514823 0.0692153 -0.0126231 -0.500658 0.0595044 -0.0195226 -0.485751 
0.0498911 -0.0258428 -0.47006 0.0404648 -0.0314804 -0.453566 0.0312805 -0.0363735 -0.43628 
0.0223548 -0.0405016 -0.418245 0.0136659 -0.0438817 -0.39953 0.00515798 -0.0465607 -0.380223 
-0.00324888 -0.0486063 -0.360419 -0.0116464 -0.0500964 -0.340207 -0.0201226 -0.0511081 -0.319655 
-0.0287463 -0.0517093 -0.298804 -0.0375526 -0.0519519 -0.277659 -0.0465307 -0.0518683 -0.256192 
-0.0556168 -0.051471 -0.234347 -0.0646919 -0.0507557 -0.21205 -0.0735855 -0.0497069 -0.189227 
-0.0820851 -0.0483052 -0.165817 -0.0899504 -0.0465346 -0.141792 -0.0969315 -0.0443905 -0.117167 
-0.102788 -0.041885 -0.0920059 -0.10731 -0.03905 -0.0664308 -0.110334 -0.0359386 -0.0406098 
-0.111759 -0.0326218 -0.0147486 -0.111552 -0.0291847 0.0109267 -0.109752 -0.025719 0.036189 
-0.10647 -0.0223162 0.0608312 -0.101872 -0.0190597 0.084684 -0.096169 -0.0160182 0.107631 
-0.0895997 -0.0132414 0.129616 -0.0824094 -0.0107574 0.150646 -0.0748319 -0.00857298 0.170783 
-0.0670735 -0.00667629 0.190136 -0.0593004 -0.00504122 0.208841 -0.0516311 -0.0036331 0.227043 
-0.0441347 -0.00241472 0.244881 -0.0368343 -0.00135183 0.262469 -0.0297153 -0.000417424 0.279884 
-0.0227372 0.000405702 0.297164 -0.0158467 0.00112439 0.314306 -0.00899216 0.00173638 0.331273 
-0.00213593 0.00223311 0.348006 0.00473638 0.00260345 0.364436 0.0116101 0.00283763 0.380496 
0.0184404 0.00293071 0.396139 0.0251557 0.00288502 0.411339 0.0316652 0.002711 0.4261 
0.0378689 0.00242656 0.440448 0.0436697 0.00205491 0.45443 0.048985 0.0016213 0.468101 
0.0537578 0.00114929 0.481508 0.0579641 0.000657252 0.494683 0.061617 0.000155709 0.507629 
0.0647667 -0.000353933 0.520312 0.0674964 -0.000878902 0.532664 0.0699142 -0.00143283 0.544587 
0.0721422 -0.00203201 0.55596 0.0743046 -0.00269073 0.566656 0.0765152 -0.00341626 0.576557 
0.0788666 -0.00420454 0.58557 0.0814212 -0.00503712 0.593641 0.0842066 -0.00588014 0.600763 
0.0872143 -0.00668568 0.606983 0.0904019 -0.0073955 0.612392 0.0936999 -0.0079469 0.617121 
0.0970201 -0.00828003 0.621322 0.100266 -0.00834585 0.625154 0.103343 -0.00811348 0.62876 
0.106168 -0.00757628 0.632249 0.108677 -0.00675532 0.635688 0.110829 -0.00570002 0.639089 
0.11261 -0.0044854 0.642412 0.114024 -0.00320622 0.645568 0.115098 -0.00196854 0.648438 
0.115867 -0.000879613 0.650883 0.116369 -3.7176e-05 0.652768 0.116638 0.000480513 0.653981 
0.116699 0.000622816 0.654444 
LINES 2 100
OFFSETS vtktypeint64
0 100 
CONNECTIVITY vtktypeint64
0 1 2 3 4 5 6 7 8 
9 10 11 12 13 14 15 16 17 
18 19 20 21 22 23 24 25 26 
27 28 29 30 31 32 33 34 35 
36 37 38 39 40 41 42 43 44 
45 46 47 48 49 50 51 52 53 
54 55 56 57 58 59 60 61 62 
63 64 65 66 67 68 69 70 71 
72 73 74 75 76 77 78 79 80 
81 82 83 84 85 86 87 88 89 
90 91 92 93 94 95 96 97 98 
99 
POINT_DATA 100
FIELD FieldData 3
_theta 1 100 double
0 0.031733259127 0.063466518254 0.095199777382 0.12693303651 0.15866629564 0.19039955476 0.22213281389 0.25386607302 
0.28559933214 0.31733259127 0.3490658504 0.38079910953 0.41253236865 0.44426562778 0.47599888691 0.50773214603 0.53946540516 
0.57119866429 0.60293192342 0.63466518254 0.66639844167 0.6981317008 0.72986495992 0.76159821905 0.79333147818 0.82506473731 
0.85679799643 0.88853125556 0.92026451469 0.95199777382 0.98373103294 1.0154642921 1.0471975512 1.0789308103 1.1106640695 
1.1423973286 1.1741305877 1.2058638468 1.237597106 1.2693303651 1.3010636242 1.3327968833 1.3645301425 1.3962634016 
1.4279966607 1.4597299198 1.491463179 1.5231964381 1.5549296972 1.5866629564 1.6183962155 1.6501294746 1.6818627337 
1.7135959929 1.745329252 1.7770625111 1.8087957702 1.8405290294 1.8722622885 1.9039955476 1.9357288068 1.9674620659 
1.999195325 2.0309285841 2.0626618433 2.0943951024 2.1261283615 2.1578616206 2.1895948798 2.2213281389 2.253061398 
2.2847946572 2.3165279163 2.3482611754 2.3799944345 2.4117276937 2.4434609528 2.4751942119 2.506927471 2.5386607302 
2.5703939893 2.6021272484 2.6338605076 2.6655937667 2.6973270258 2.7290602849 2.7607935441 2.7925268032 2.8242600623 
2.8559933214 2.8877265806 2.9194598397 2.9511930988 2.982926358 3.0146596171 3.0463928762 3.0781261353 3.1098593945 
3.1415926536 
_radius 1 100 double
8.1870126963e-16 0.016703927612 0.033284193619 0.049612579796 0.065560627464 0.081000616101 0.095807150677 0.10985934179 0.12304360434 
0.13525712386 0.14641194963 0.1564394665 0.16529475523 0.17296018936 0.17944762306 0.18479873402 0.18908345785 0.19239685782 
0.19485502639 0.19659055386 0.19774772922 0.1984771651 0.19892928411 0.19924629101 0.19955286591 0.19994660051 0.20048984189 
0.20120484969 0.20207385689 0.20304471692 0.20404149776 0.20497806788 0.20577189927 0.20635531868 0.20668241795 0.20673173436 
0.2065069013 0.20603818215 0.20538619955 0.20464650516 0.20395205688 0.20347086525 0.2033972172 0.20393613857 0.20528195711 
0.20759320938 0.21096776629 0.21542340431 0.22088898598 0.22720897773 0.23415986299 0.24147357663 0.2488624984 0.25604240527 
0.26275205308 0.2687692884 0.27392371174 0.27810554275 0.281270033 0.28343678174 0.28468364844 0.2851355342 0.28494900286 
0.28429439823 0.28333761841 0.28222384319 0.28106513525 0.27993297792 0.27885572917 0.27782006311 0.27677506039 0.27563775737 
0.27429945996 0.27263265146 0.27049862423 0.26775595695 0.26426970254 0.25992079911 0.25461492527 0.24828990021 0.24092079237 
0.23252210306 0.22314666286 0.2128811698 0.20183858174 0.19014785195 0.17794180819 0.1653444227 0.15245934526 0.13936207574 
0.12609779619 0.11268522017 0.099124691005 0.085407734024 0.071525804565 0.057477107292 0.043271114508 0.028930657346 0.014491561512 
8.6780953899e-16 
_area 1 100 double
0 0.00056553529207 0.0022763761312 0.0051645688494 0.0092519024252 0.014515107651 0.020857496769 0.028096782333 0.035972211834 
0.044168210913 0.052348062427 0.060189760586 0.067416698278 0.073817769618 0.079254271222 0.083654535839 0.087001556502 0.089322245954 
0.090685453392 0.091208621894 0.091066158885 0.090490712923 0.089757438637 0.089142140581 0.088861671388 0.089014957157 0.089574056273 
0.09046236344 0.091609809674 0.092958402813 0.094459824077 0.096079327558 0.097802154965 0.099628276029 0.10154557778 0.1035068522 
0.10544536924 0.10733021396 0.10915567179 0.11095692221 0.11276732167 0.11463505016 0.11666421282 0.11902084201 0.12192384982 
0.12561554389 0.13032209325 0.13621086407 0.1433531913 0.1517005546 0.16108043167 0.17121219582 0.18173510364 0.19223796989 
0.20228619843 0.21144952081 0.21933609153 0.22563402563 0.23015366644 0.23285862802 0.23387401547 0.23346462875 0.23198198657 
0.22978831209 0.22718115125 0.22435120745 0.22138593055 0.21830043919 0.21507215071 0.21166826531 0.2080635893 0.20424709751 
0.20021428646 0.19594351602 0.19136275004 0.18632720361 0.18063136586 0.17405626372 0.16642771962 0.15766179466 0.14778813659 
0.13695103539 0.12539079036 0.11340987604 0.10133105627 0.089456690814 0.07803778534 0.067256908573 0.057223718663 0.047980778506 
0.039520711849 0.031814690099 0.024842987471 0.018614106974 0.013167738911 0.0085666470458 0.0048843602496 0.0021928009225 0.00055161254305 
4.1714896961e-17 
