# vtk DataFile Version 5.1
vtk output
ASCII
DATASET POLYDATA
POINTS 100 float
0.115923 0.0376551 -0.694973 0.11583 0.0376868 -0.695039 0.115632 0.0376033 -0.695239 
0.115343 0.0374017 -0.695457 0.114982 0.0370762 -0.695519 0.114568 0.0366178 -0.695202 
0.114114 0.0360127 -0.694266 0.113621 0.035242 -0.692474 0.113072 0.0342812 -0.689616 
0.112432 0.033101 -0.68553 0.111642 0.0316684 -0.680112 0.110624 0.0299488 -0.673326 
0.109285 0.0279093 -0.665199 0.107523 0.0255217 -0.655812 0.10524 0.0227666 -0.645285 
0.102345 0.0196367 -0.633763 0.0987679 0.0161397 -0.621391 0.0944674 0.0123004 -0.608301 
0.089434 0.00816148 -0.594596 0.0836937 0.00378275 -0.580344 0.0773066 -0.000761164 -0.56557 
0.0703616 -0.0053843 -0.55027 0.0629684 -0.00999415 -0.534408 0.0552474 -0.0144972 -0.517937 
0.0473178 -0.0188045 -0.500808 0.0392864 -0.0228375 -0.482985 0.0312377 -0.0265325 -0.464454 
0.0232264 -0.0298444 -0.445231 0.0152741 -0.0327483 -0.425362 0.00736949 -0.0352403 -0.404918 
-0.000526769 -0.0373353 -0.383992 -0.00847347 -0.0390642 -0.362682 -0.0165373 -0.0404692 -0.341083 
-0.0247797 -0.0415987 -0.319272 -0.0332428 -0.0425012 -0.297301 -0.0419379 -0.0432204 -0.275192 
-0.050835 -0.0437898 -0.252934 -0.0598576 -0.0442297 -0.230488 -0.0688816 -0.0445452 -0.207795 
-0.0777389 -0.0447255 -0.184788 -0.0862268 -0.044746 -0.161405 -0.0941204 -0.0445715 -0.1376 
-0.101188 -0.0441599 -0.113356 -0.10721 -0.0434683 -0.0886907 -0.111991 -0.0424582 -0.0636577 
-0.115382 -0.0411011 -0.0383474 -0.117285 -0.0393832 -0.0128781 -0.117664 -0.0373091 0.0126129 
-0.116545 -0.0349036 0.0379818 -0.114012 -0.0322123 0.0630906 -0.110204 -0.0292999 0.0878183 
-0.105294 -0.0262471 0.112069 -0.0994835 -0.023146 0.135777 -0.0929786 -0.0200942 0.158906 
-0.08598 -0.017189 0.181447 -0.0786668 -0.0145205 0.203413 -0.071187 -0.0121658 0.224826 
-0.0636506 -0.0101843 0.24571 -0.056128 -0.00861375 0.266083 -0.0486518 -0.00746834 0.285953 
-0.0412231 -0.00673867 0.305311 -0.0338202 -0.00639335 0.324133 -0.0264088 -0.00638236 0.342386 
-0.0189526 -0.00664182 0.360032 -0.0114232 -0.00709977 0.37704 -0.00380719 -0.00768246 0.39339 
0.00388865 -0.00832057 0.409081 0.0116363 -0.00895489 0.424138 0.0193878 -0.00954093 0.438607 
0.0270805 -0.010052 0.452559 0.0346428 -0.0104808 0.466078 0.0420024 -0.0108384 0.479252 
0.0490942 -0.0111526 0.492164 0.0558668 -0.0114633 0.504881 0.0622876 -0.0118177 0.517442 
0.0683454 -0.0122642 0.529855 0.0740505 -0.0128461 0.542094 0.0794314 -0.0135955 0.554097 
0.0845308 -0.0145293 0.565778 0.0893983 -0.0156449 0.577035 0.0940838 -0.0169192 0.587759 
0.0986306 -0.0183093 0.597852 0.103069 -0.0197548 0.607234 0.107415 -0.0211822 0.615853 
0.111663 -0.0225116 0.623693 0.115793 -0.023663 0.630773 0.11977 -0.0245639 0.63714 
0.123549 -0.0251564 0.642866 0.127079 -0.0254033 0.648037 0.130315 -0.0252917 0.652736 
0.133215 -0.0248361 0.657039 0.135753 -0.0240779 0.660998 0.137916 -0.0230824 0.664641 
0.139705 -0.021935 0.667966 0.141135 -0.0207337 0.670942 0.142234 -0.0195815 0.673519 
0.143033 -0.0185778 0.675634 0.143563 -0.0178103 0.677222 0.143853 -0.0173473 0.678227 
0.143921 -0.0172322 0.678612 
LINES 2 100
OFFSETS vtktypeint64
0 100 
CONNECTIVITY vtktypeint64
0 1 2 3 4 5 6 7 8 
9 10 11 12 13 14 15 16 17 
18 19 20 21 22 23 24 25 26 
27 28 29 30 31 32 33 34 35 
36 37 38 39 40 41 42 43 44 
45 46 47 48 49 50 51 52 53 
54 55 56 57 58 59 60 61 62 
63 64 65 66 67 68 69 70 71 
72 73 74 75 76 77 78 79 80 
81 82 83 84 85 86 87 88 89 
90 91 92 93 94 95 96 97 98 
99 
POINT_DATA 100
FIELD FieldData 3
_theta 1 100 double
0 0.031733259127 0.063466518254 0.095199777382 0.12693303651 0.15866629564 0.19039955476 0.22213281389 0.25386607302 
0.28559933214 0.31733259127 0.3490658504 0.38079910953 0.41253236865 0.44426562778 0.47599888691 0.50773214603 0.53946540516 
0.57119866429 0.60293192342 0.63466518254 0.66639844167 0.6981317008 0.72986495992 0.76159821905 0.79333147818 0.82506473731 
0.85679799643 0.88853125556 0.92026451469 0.95199777382 0.98373103294 1.0154642921 1.0471975512 1.0789308103 1.1106640695 
1.1423973286 1.1741305877 1.2058638468 1.237597106 1.2693303651 1.3010636242 1.3327968833 1.3645301425 1.3962634016 
1.4279966607 1.4597299198 1.491463179 1.5231964381 1.5549296972 1.5866629564 1.6183962155 1.6501294746 1.6818627337 
1.7135959929 1.745329252 1.7770625111 1.8087957702 1.8405290294 1.8722622885 1.9039955476 1.9357288068 1.9674620659 
1.999195325 2.0309285841 2.0626618433 2.0943951024 2.1261283615 2.1578616206 2.1895948798 2.2213281389 2.253061398 
2.2847946572 2.3165279163 2.3482611754 2.3799944345 2.4117276937 2.4434609528 2.4751942119 2.506927471 2.5386607302 
2.5703939893 2.6021272484 2.6338605076 2.6655937667 2.6973270258 2.7290602849 2.7607935441 2.7925268032 2.8242600623 
2.8559933214 2.8877265806 2.9194598397 2.9511930988 2.982926358 3.0146596171 3.0463928762 3.0781261353 3.1098593945 
3.1415926536 
_radius 1 100 double
1.7860880045e-15 0.014741246252 0.029457456646 0.044110652796 0.058645423128 0.072984899307 0.087030932058 0.10066801696 0.11376971082 
0.12620598731 0.13785023224 0.1485851828 0.15830779034 0.16693348785 0.17440051001 0.18067469691 0.18575468758 0.18967677116 
0.19251816547 0.19439734934 0.19547037443 0.19592275525 0.1959573822 0.19577966609 0.19558159691 0.19552651688 0.19573624461 
0.19628188245 0.19717930156 0.1983899711 0.19982744411 0.20136930629 0.20287359646 0.20419769585 0.20521691404 0.20584003672 
0.2060199771 0.20575872224 0.20510642837 0.20415503382 0.20302760086 0.20186562828 0.20081704984 0.20002687326 0.19963050062 
0.19974785818 0.20047612941 0.20188069491 0.20398655185 0.20677375989 0.21017910664 0.21410331085 0.21842118524 0.22299257333 
0.22767338233 0.23232665673 0.23683295454 0.24109851438 0.24505982607 0.24868406385 0.25196572995 0.25492038449 0.2575765054 
0.25996651764 0.26211801065 0.2640461502 0.26574820037 0.26720081025 0.26836029736 0.2691656921 0.26954394398 0.26941650293 
0.2687064474 0.26734535916 0.26527919504 0.2624724869 0.25891034294 0.25459794129 0.24955749573 0.24382301888 0.23743357972 
0.23042608429 0.22282879732 0.2146567609 0.20590991269 0.19657413082 0.18662480998 0.17603210649 0.1647668103 0.15280591061 
0.14013721172 0.12676268653 0.11270053172 0.097986073451 0.082671756461 0.066826436665 0.050534110385 0.033892103581 0.017008674792 
2.9022909447e-16 
_area 1 100 double
0 0.00054627994466 0.0021924226204 0.0049550415548 0.0088449826875 0.01384622115 0.019895592998 0.026869838215 0.034582962432 
0.042793525881 0.051219617805 0.059558626873 0.067508931077 0.074791080796 0.081166799036 0.086454874512 0.090543320142 0.093396789975 
0.095057722407 0.0956401671 0.095317652496 0.094310833156 0.092885812335 0.091359360616 0.090018639887 0.089002888223 0.088376016793 
0.088183672985 0.088447240116 0.089154336608 0.090257305194 0.091680747473 0.09333102745 0.095101333527 0.096872000593 0.098516937389 
0.099928272767 0.10105467719 0.10192836452 0.102649605 0.10333906675 0.10412959616 0.10522662394 0.10659750672 0.10799845013 
0.10934656506 0.11079810588 0.11260137923 0.11502377085 0.11826513655 0.12240750153 0.12741048146 0.13313551105 0.13938162308 
0.14591868053 0.15251214484 0.15894370327 0.1650327719 0.17065360313 0.17573880539 0.18026907194 0.18425755257 0.18773660177 
0.19074756178 0.193328846 0.19549964922 0.19724435164 0.19850653878 0.19919557155 0.19920078927 0.19840698527 0.19670742848 
0.19401351022 0.19026220841 0.18542347547 0.17950890486 0.1725809539 0.16475869404 0.15621287691 0.14714477151 0.13775224886 
0.12819724463 0.11859008937 0.10899444609 0.099443727184 0.089958595638 0.080561615656 0.071288108611 0.062190657433 0.053336232277 
0.044800780302 0.036668071101 0.029033799785 0.022009797981 0.015723718574 0.01031367782 0.00591933862 0.002670475096 0.00067381176124 
2.9063392833e-17 
