# vtk DataFile Version 5.1
vtk output
ASCII
DATASET POLYDATA
POINTS 100 float
0.149324 0.082404 -0.597515 0.149319 0.0824315 -0.597963 0.149264 0.0823182 -0.599278 
0.149127 0.082038 -0.601274 0.148858 0.0815499 -0.603661 0.148396 0.0808034 -0.606079 
0.147671 0.0797433 -0.608137 0.146612 0.0783161 -0.609457 0.145152 0.0764749 -0.60971 
0.143232 0.0741834 -0.60865 0.140804 0.0714189 -0.606134 0.137832 0.0681724 -0.60213 
0.134289 0.0644478 -0.596708 0.130158 0.0602594 -0.590026 0.125427 0.0556288 -0.582296 
0.120086 0.0505812 -0.573756 0.114131 0.045143 -0.564634 0.107554 0.0393397 -0.555117 
0.100352 0.0331955 -0.545329 0.0925246 0.0267353 -0.535319 0.0840814 0.0199868 -0.525061 
0.0750432 0.0129846 -0.51446 0.0654472 0.0057741 -0.503377 0.05535 -0.0015849 -0.491648 
0.0448285 -0.00901572 -0.479115 0.0339788 -0.0164243 -0.465647 0.0229131 -0.0237009 -0.451166 
0.0117535 -0.0307239 -0.435648 0.000624776 -0.0373664 -0.419133 -0.0103535 -0.0435031 -0.401714 
-0.021075 -0.0490194 -0.383522 -0.0314531 -0.0538189 -0.364704 -0.0414246 -0.0578308 -0.3454 
-0.050951 -0.0610143 -0.325725 -0.0600153 -0.0633612 -0.305747 -0.0686169 -0.0648947 -0.285487 
-0.0767629 -0.0656657 -0.264908 -0.0844581 -0.0657466 -0.243936 -0.0916956 -0.0652231 -0.222467 
-0.0984477 -0.0641859 -0.200392 -0.10466 -0.0627216 -0.177623 -0.110251 -0.0609061 -0.154111 
-0.115113 -0.0587995 -0.129861 -0.119118 -0.0564439 -0.104948 -0.122133 -0.0538636 -0.0795094 
-0.124027 -0.0510687 -0.0537417 -0.124693 -0.04806 -0.0278792 -0.124057 -0.0448353 -0.00217326 
-0.122091 -0.0413962 0.0231343 -0.118821 -0.0377535 0.0478354 -0.114328 -0.0339315 0.0717763 
-0.108746 -0.0299701 0.0948713 -0.10225 -0.0259239 0.117107 -0.0950465 -0.0218594 0.138536 
-0.0873514 -0.0178506 0.159268 -0.0793753 -0.0139725 0.179444 -0.0713049 -0.0102957 0.199217 
-0.0632884 -0.00688037 0.218727 -0.0554263 -0.0037727 0.238078 -0.047767 -0.00100284 0.257329 
-0.0403095 0.00141462 0.27648 -0.033011 0.00347814 0.295479 -0.0258 0.0051949 0.314233 
-0.0185917 0.00657561 0.33262 -0.0113049 0.00762924 0.350514 -0.00387749 0.00835859 0.367808 
0.00372173 0.00875761 0.384427 0.0114852 0.00881093 0.400347 0.0193647 0.00849586 0.415599 
0.0272759 0.00778664 0.430268 0.0351066 0.00666046 0.444476 0.0427304 0.00510431 0.458372 
0.050021 0.0031217 0.472103 0.0568677 0.000738039 0.485796 0.063188 -0.00199617 0.499531 
0.0689369 -0.00500511 0.513329 0.0741109 -0.00819066 0.527144 0.0787472 -0.0114386 0.54086 
0.0829172 -0.0146273 0.554304 0.0867155 -0.0176381 0.567262 0.0902473 -0.020366 0.579503 
0.0936136 -0.0227295 0.590804 0.0968983 -0.0246781 0.600975 0.100158 -0.0261966 0.609881 
0.103415 -0.0273059 0.617454 0.106657 -0.028059 0.623701 0.109841 -0.0285342 0.628701 
0.1129 -0.0288251 0.632591 0.115756 -0.0290289 0.635551 0.11833 -0.0292353 0.637783 
0.120555 -0.0295151 0.639483 0.122388 -0.0299137 0.640829 0.123812 -0.0304459 0.641959 
0.124844 -0.0310964 0.642968 0.125527 -0.0318233 0.643898 0.125924 -0.0325657 0.644754 
0.126112 -0.033253 0.645508 0.126167 -0.0338164 0.646116 0.126152 -0.0341985 0.64653 
0.12611 -0.0343622 0.646719 
LINES 2 100
OFFSETS vtktypeint64
0 100 
CONNECTIVITY vtktypeint64
0 1 2 3 4 5 6 7 8 
9 10 11 12 13 14 15 16 17 
18 19 20 21 22 23 24 25 26 
27 28 29 30 31 32 33 34 35 
36 37 38 39 40 41 42 43 44 
45 46 47 48 49 50 51 52 53 
54 55 56 57 58 59 60 61 62 
63 64 65 66 67 68 69 70 71 
72 73 74 75 76 77 78 79 80 
81 82 83 84 85 86 87 88 89 
90 91 92 93 94 95 96 97 98 
99 
POINT_DATA 100
FIELD FieldData 3
_theta 1 100 double
0 0.031733259127 0.063466518254 0.095199777382 0.12693303651 0.15866629564 0.19039955476 0.22213281389 0.25386607302 
0.28559933214 0.31733259127 0.3490658504 0.38079910953 0.41253236865 0.44426562778 0.47599888691 0.50773214603 0.53946540516 
0.57119866429 0.60293192342 0.63466518254 0.66639844167 0.6981317008 0.72986495992 0.76159821905 0.79333147818 0.82506473731 
0.85679799643 0.88853125556 0.92026451469 0.95199777382 0.98373103294 1.0154642921 1.0471975512 1.0789308103 1.1106640695 
1.1423973286 1.1741305877 1.2058638468 1.237597106 1.2693303651 1.3010636242 1.3327968833 1.3645301425 1.3962634016 
1.4279966607 1.4597299198 1.491463179 1.5231964381 1.5549296972 1.5866629564 1.6183962155 1.6501294746 1.6818627337 
1.7135959929 1.745329252 1.7770625111 1.8087957702 1.8405290294 1.8722622885 1.9039955476 1.9357288068 1.9674620659 
1.999195325 2.0309285841 2.0626618433 2.0943951024 2.1261283615 2.1578616206 2.1895948798 2.2213281389 2.253061398 
2.2847946572 2.3165279163 2.3482611754 2.3799944345 2.4117276937 2.4434609528 2.4751942119 2.506927471 2.5386607302 
2.5703939893 2.6021272484 2.6338605076 2.6655937667 2.6973270258 2.7290602849 2.7607935441 2.7925268032 2.8242600623 
2.8559933214 2.8877265806 2.9194598397 2.9511930988 2.982926358 3.0146596171 3.0463928762 3.0781261353 3.1098593945 
3.1415926536 
_radius 1 100 double
2.4864100872e-16 0.015619497822 0.031125630649 0.046406404187 0.061362375319 0.075911283888 0.089990447584 0.10355638442 0.11658135384 
0.12904694375 0.14093547174 0.15222063582 0.1628593019 0.17278638805 0.1819144518 0.19013884513 0.19734828143 0.20343955137 
0.20833418916 0.21199436868 0.21443531761 0.21573203106 0.21601888673 0.21548173393 0.21434302039 0.21284147004 0.21120869491 
0.20964584259 0.20830377243 0.20727004863 0.20656501801 0.20614748891 0.20592856617 0.20579075801 0.20560900437 0.20527065854 
0.20469220414 0.20383127522 0.20269336956 0.20133341549 0.19985255749 0.19838998078 0.19710931591 0.19618027832 0.19575820728 
0.19596538067 0.19687743017 0.19851645908 0.20085081419 0.20380053881 0.20724722816 0.21104694436 0.21504472851 0.21908906155 
0.22304460951 0.22680190552 0.23028314262 0.2334437267 0.2362695839 0.23877057963 0.24097095427 0.2428983526 0.24457352915 
0.24600283573 0.24717502821 0.24806292828 0.24862936861 0.2488359495 0.24865261893 0.2480659894 0.24708457846 0.24573974099 
0.24408187048 0.24217232719 0.24007224574 0.23782967821 0.23546655927 0.23296711246 0.23026969755 0.22726434907 0.22379780656 
0.21968648102 0.21473592826 0.20876375376 0.20162208765 0.19321601283 0.18351533831 0.17255844788 0.16044824958 0.14734127397 
0.13343162745 0.1189318338 0.10405272532 0.088984602955 0.073881854515 0.058852906649 0.043956595984 0.029204888918 0.014570819006 
1.5446328118e-15 
_area 1 100 double
0 0.00060945917171 0.0024295982587 0.0054352350161 0.0095828076941 0.014808433549 0.021026716978 0.028131205791 0.03599621213 
0.04447918351 0.053423031035 0.062657727977 0.071999807303 0.081248405916 0.090178774321 0.098538083552 0.10605056668 0.11243670635 
0.11744535646 0.12089195727 0.12269312418 0.12288861164 0.121645295 0.11924285358 0.11604537201 0.11246509299 0.1089214584 
0.10578836253 0.10332120723 0.10160275192 0.10056750198 0.10007050617 0.099942521005 0.10002538787 0.100195811 0.10037937449 
0.1005530413 0.10073607238 0.10097414678 0.10132494718 0.10185005887 0.10260816684 0.10364117954 0.1049609533 0.10656048756 
0.10844726479 0.11065885689 0.11324333494 0.11622206116 0.11957214593 0.12324438797 0.12718429282 0.13133698036 0.13563803517 
0.13999818966 0.14429595571 0.14839044715 0.15215153985 0.15549201744 0.15838605438 0.16086515294 0.16299318903 0.16483284067 
0.16641941403 0.16775679135 0.16885166805 0.16984476462 0.17046550709 0.17048777612 0.16975554819 0.16824974192 0.16604488761 
0.16328869222 0.16016173671 0.15682496486 0.15337345853 0.14982341795 0.14613314781 0.14222436982 0.13798270471 0.13324916342 
0.1278264824 0.12151400553 0.11416353454 0.10573193325 0.09630765601 0.086103471404 0.075422452199 0.06461159058 0.054017379563 
0.043952476409 0.034675333371 0.026379835027 0.019191943966 0.013173002755 0.0083305498413 0.0046356618909 0.0020429060997 0.00050798689291 
4.9573474811e-17 
