# vtk DataFile Version 5.1
vtk output
ASCII
DATASET POLYDATA
POINTS 100 float
0.177404 0.0550865 -0.651205 0.17715 0.0549856 -0.651081 0.176426 0.0545267 -0.650698 
0.175272 0.0537316 -0.64999 0.173749 0.0526332 -0.648861 0.171926 0.051271 -0.647193 
0.169871 0.0496851 -0.64486 0.167634 0.0479102 -0.641752 0.16524 0.0459701 -0.637781 
0.162681 0.0438742 -0.632894 0.159908 0.0416153 -0.627085 0.156835 0.0391701 -0.620384 
0.153348 0.0365022 -0.612863 0.149311 0.0335668 -0.604615 0.144584 0.0303172 -0.59575 
0.139038 0.026712 -0.58637 0.132569 0.0227222 -0.576562 0.125117 0.0183374 -0.56638 
0.116669 0.0135698 -0.555843 0.107269 0.00845733 -0.544927 0.0970164 0.0030626 -0.533572 
0.086057 -0.00252925 -0.521689 0.0745726 -0.00821546 -0.509171 0.0627659 -0.013882 -0.495909 
0.0508418 -0.0194107 -0.481807 0.0389903 -0.0246867 -0.466791 0.027371 -0.0296048 -0.450824 
0.0161005 -0.0340753 -0.433904 0.00524636 -0.0380272 -0.416068 -0.00517419 -0.0414103 -0.397383 
-0.0151891 -0.0441952 -0.377939 -0.0248613 -0.0463716 -0.357834 -0.0342738 -0.0479454 -0.337163 
-0.0435136 -0.0489354 -0.316002 -0.0526539 -0.0493699 -0.294405 -0.061739 -0.0492835 -0.272396 
-0.0707716 -0.0487141 -0.249972 -0.079706 -0.0477022 -0.227104 -0.0884462 -0.0462892 -0.203752 
-0.0968496 -0.0445181 -0.179875 -0.104737 -0.0424336 -0.155448 -0.111907 -0.0400826 -0.130468 
-0.118151 -0.037515 -0.104971 -0.123271 -0.034783 -0.079036 -0.127101 -0.031941 -0.0527826 
-0.129514 -0.0290436 -0.0263696 -0.130438 -0.0261442 1.63265e-05 -0.129859 -0.0232925 0.0261739 
-0.127823 -0.0205322 0.0519031 -0.124429 -0.0178994 0.0770208 -0.119822 -0.0154212 0.101376 
-0.114177 -0.0131151 0.124858 -0.10769 -0.0109903 0.147408 -0.100557 -0.00904825 0.169014 
-0.0929643 -0.00728585 0.18971 -0.0850762 -0.00569738 0.209566 -0.0770265 -0.00427747 0.22868 
-0.0689146 -0.00302328 0.24716 -0.0608049 -0.00193612 0.265113 -0.0527301 -0.00102204 0.282635 
-0.0446973 -0.000291442 0.299801 -0.0366959 0.000242258 0.316663 -0.0287063 0.000564746 0.33325 
-0.0207088 0.000663263 0.349567 -0.0126912 0.000529036 0.365609 -0.00465402 0.000159254 0.381362 
0.00338538 -0.000441763 0.396814 0.0113924 -0.00126244 0.411961 0.0193163 -0.0022849 0.42681 
0.0270937 -0.00348695 0.441379 0.0346535 -0.00484469 0.455698 0.0419221 -0.00633545 0.469801 
0.0488293 -0.00794042 0.483717 0.0553135 -0.00964666 0.497468 0.0613258 -0.0114479 0.511056 
0.0668328 -0.0133441 0.524457 0.071818 -0.0153393 0.537626 0.0762817 -0.0174386 0.550488 
0.0802395 -0.0196442 0.562948 0.0837196 -0.0219509 0.574897 0.0867603 -0.0243424 0.586225 
0.0894057 -0.0267885 0.596823 0.0917029 -0.0292437 0.606603 0.0936989 -0.0316485 0.615503 
0.0954377 -0.033932 0.62349 0.096959 -0.0360175 0.630566 0.0982966 -0.0378289 0.636765 
0.0994782 -0.0392985 0.64215 0.100526 -0.0403745 0.646801 0.101456 -0.0410281 0.650809 
0.102279 -0.0412582 0.654267 0.103005 -0.0410939 0.657256 0.103638 -0.0405937 0.659846 
0.104181 -0.0398421 0.662083 0.104636 -0.0389429 0.663996 0.105004 -0.03801 0.665594 
0.105285 -0.0371569 0.666872 0.10548 -0.0364866 0.667817 0.105587 -0.0360808 0.668414 
0.105606 -0.0359926 0.668653 
LINES 2 100
OFFSETS vtktypeint64
0 100 
CONNECTIVITY vtktypeint64
0 1 2 3 4 5 6 7 8 
9 10 11 12 13 14 15 16 17 
18 19 20 21 22 23 24 25 26 
27 28 29 30 31 32 33 34 35 
36 37 38 39 40 41 42 43 44 
45 46 47 48 49 50 51 52 53 
54 55 56 57 58 59 60 61 62 
63 64 65 66 67 68 69 70 71 
72 73 74 75 76 77 78 79 80 
81 82 83 84 85 86 87 88 89 
90 91 92 93 94 95 96 97 98 
99 
POINT_DATA 100
FIELD FieldData 3
_theta 1 100 double
0 0.031733259127 0.063466518254 0.095199777382 0.12693303651 0.15866629564 0.19039955476 0.22213281389 0.25386607302 
0.28559933214 0.31733259127 0.3490658504 0.38079910953 0.41253236865 0.44426562778 0.47599888691 0.50773214603 0.53946540516 
0.57119866429 0.60293192342 0.63466518254 0.66639844167 0.6981317008 0.72986495992 0.76159821905 0.79333147818 0.82506473731 
0.85679799643 0.88853125556 0.92026451469 0.95199777382 0.98373103294 1.0154642921 1.0471975512 1.0789308103 1.1106640695 
1.1423973286 1.1741305877 1.2058638468 1.237597106 1.2693303651 1.3010636242 1.3327968833 1.3645301425 1.3962634016 
1.4279966607 1.4597299198 1.491463179 1.5231964381 1.5549296972 1.5866629564 1.6183962155 1.6501294746 1.6818627337 
1.7135959929 1.745329252 1.7770625111 1.8087957702 1.8405290294 1.8722622885 1.9039955476 1.9357288068 1.9674620659 
1.999195325 2.0309285841 2.0626618433 2.0943951024 2.1261283615 2.1578616206 2.1895948798 2.2213281389 2.253061398 
2.2847946572 2.3165279163 2.3482611754 2.3799944345 2.4117276937 2.4434609528 2.4751942119 2.506927471 2.5386607302 
2.5703939893 2.6021272484 2.6338605076 2.6655937667 2.6973270258 2.7290602849 2.7607935441 2.7925268032 2.8242600623 
2.8559933214 2.8877265806 2.9194598397 2.9511930988 2.982926358 3.0146596171 3.0463928762 3.0781261353 3.1098593945 
3.1415926536 
_radius 1 100 double
6.3357079214e-16 0.015015192145 0.029960647464 0.044767026538 0.05936957767 0.073709128033 0.087731659282 0.10138625398 0.11462147509 
0.12738058894 0.13959641277 0.15118689109 0.16205269159 0.17207806807 0.18113589095 0.18909708751 0.19584385561 0.20128510856 
0.20537191147 0.20811037923 0.20956970403 0.2098836067 0.20924440246 0.20788985335 0.20608391751 0.20409335256 0.20216288284 
0.20049221388 0.19921831496 0.19840576327 0.19804651073 0.19806868587 0.19835267982 0.19875207359 0.1991167033 0.19931505537 
0.19925329078 0.19888875668 0.19823685448 0.19737114814 0.19641715479 0.19554055764 0.19493119306 0.1947849386 0.19528561604 
0.19658793706 0.19880155626 0.20197672304 0.20609349697 0.21105747023 0.21670434786 0.22281379072 0.22913067699 0.23539036653 
0.24134405915 0.24678078114 0.25154352026 0.25553816594 0.25873495416 0.26116297536 0.26289897244 0.26405213574 0.2647468775 
0.26510562983 0.26523357166 0.2652068808 0.26506565822 0.26481209959 0.2644138252 0.26381158701 0.26292995947 0.26168919814 
0.26001628945 0.25785334728 0.25516196354 0.25192290277 0.24813155267 0.24379054328 0.23890157912 0.23345856181 0.22744353548 
0.22082611629 0.21356619816 0.20561911605 0.1969422023 0.18750174525 0.17727958047 0.16627869828 0.15452722081 0.1420799901 
0.12901706383 0.11543880369 0.10145789329 0.087189302651 0.072739699798 0.058197990935 0.043628550003 0.029068323019 0.014528410403 
1.4050968976e-15 
_area 1 100 double
0 0.00053441204703 0.0021324049844 0.0047781176566 0.0084445376957 0.013092348837 0.018668192246 0.025102635435 0.03230796484 
0.040175376911 0.048570877681 0.05732972385 0.066250454187 0.075090953102 0.08357000465 0.091377940749 0.098198761177 0.10374323233 
0.10778846452 0.11021582686 0.11103765114 0.11040509056 0.10859422099 0.10597293225 0.10295477014 0.099946570876 0.097297080968 
0.095257445279 0.093965407506 0.093452607277 0.093661653109 0.094464777978 0.09568497363 0.097120328326 0.09856921333 0.099853558425 
0.10083997825 0.10146028029 0.10173562172 0.10183656054 0.10221171645 0.10272317697 0.10315937962 0.10366805443 0.10448731609 
0.10586773322 0.10805407173 0.11126393864 0.11564468866 0.12122676426 0.1279083713 0.13547125385 0.14360710144 0.1519514863 
0.16012453334 0.16777304422 0.174607085 0.18042412917 0.18511650623 0.18866313716 0.19111167073 0.19255898727 0.19313629326 
0.19300185841 0.19233918089 0.1913406445 0.19014524415 0.18879601266 0.18727254504 0.18552030138 0.18346294548 0.18101657845 
0.17810726054 0.17468539594 0.17073043578 0.16624316882 0.16122924823 0.15568319397 0.1495826073 0.14289651483 0.13560342764 
0.12770971008 0.11925988902 0.11033545963 0.10104383156 0.091502503931 0.081825509445 0.072119095953 0.062489256929 0.053055482486 
0.043959899793 0.035364592733 0.027438194245 0.02033811909 0.014195006575 0.0091035453473 0.0051211920679 0.002274120988 0.00056800442559 
1.301042607e-18 
