# vtk DataFile Version 5.1
vtk output
ASCII
DATASET POLYDATA
POINTS 100 float
0.0990992 0.0496613 -0.663692 0.099117 0.0495925 -0.663635 0.0991821 0.0491677 -0.663424 
0.0992741 0.0483826 -0.662985 0.0993616 0.0472328 -0.662206 0.0994055 0.0457149 -0.660946 
0.0993625 0.043828 -0.659058 0.0991885 0.0415754 -0.656396 0.0988418 0.038965 -0.652836 
0.0982842 0.0360102 -0.648288 0.0974814 0.0327289 -0.6427 0.0964018 0.0291426 -0.636064 
0.0950144 0.025275 -0.628411 0.0932864 0.0211503 -0.619806 0.0911812 0.0167915 -0.610335 
0.0886569 0.0122195 -0.600093 0.0856671 0.00745316 -0.589168 0.082163 0.00251012 -0.577636 
0.0780979 -0.00259119 -0.565545 0.0734327 -0.00782862 -0.552915 0.0681426 -0.0131728 -0.539735 
0.0622237 -0.0185836 -0.525971 0.0556978 -0.024007 -0.511571 0.048616 -0.0293733 -0.496474 
0.0410582 -0.0345965 -0.480627 0.03313 -0.0395763 -0.463989 0.0249557 -0.0442012 -0.446541 
0.0166687 -0.0483548 -0.428291 0.00840037 -0.0519228 -0.409276 0.000267567 -0.0548014 -0.389557 
-0.00763757 -0.0569054 -0.369212 -0.0152558 -0.0581765 -0.348329 -0.0225649 -0.0585889 -0.326997 
-0.0295789 -0.0581533 -0.30529 -0.036342 -0.0569176 -0.283268 -0.0429185 -0.0549647 -0.260967 
-0.0493789 -0.0524071 -0.238398 -0.0557837 -0.0493788 -0.215551 -0.0621686 -0.0460259 -0.1924 
-0.0685304 -0.0424951 -0.168912 -0.0748187 -0.0389239 -0.145056 -0.080932 -0.0354306 -0.120814 
-0.0867211 -0.0321074 -0.0961903 -0.0919987 -0.0290159 -0.0712131 -0.0965546 -0.0261854 -0.0459423 
-0.100175 -0.0236158 -0.020466 -0.102665 -0.0212814 0.00510341 -0.103867 -0.0191389 0.0306365 
-0.103678 -0.0171353 0.0559959 -0.102066 -0.015217 0.0810461 -0.0990699 -0.0133379 0.105663 
-0.094799 -0.0114658 0.129741 -0.0894233 -0.00958708 0.153198 -0.0831567 -0.00770823 0.175979 
-0.076236 -0.00585516 0.198055 -0.0688979 -0.00406972 0.219416 -0.0613575 -0.00240463 0.240072 
-0.0537895 -0.00091707 0.260043 -0.0463149 0.000337924 0.279354 -0.0389958 0.0013136 0.298031 
-0.0318371 0.0019764 0.316097 -0.0247951 0.00230908 0.333572 -0.0177929 0.00231181 0.350473 
-0.0107388 0.00200125 0.366818 -0.00354609 0.00140775 0.382628 0.00384875 0.000571313 0.397932 
0.0114717 -0.0004633 0.412769 0.0193028 -0.00165149 0.427188 0.0272747 -0.00295326 0.441251 
0.0352778 -0.00433653 0.455025 0.0431723 -0.00577924 0.468576 0.0508038 -0.00726969 0.481968 
0.0580218 -0.00880567 0.495247 0.0646974 -0.0103922 0.508441 0.0707385 -0.0120387 0.521548 
0.0760998 -0.0137552 0.534536 0.0807864 -0.0155498 0.54734 0.0848515 -0.0174255 0.559868 
0.0883867 -0.0193786 0.572003 0.0915083 -0.0213981 0.583616 0.0943401 -0.0234658 0.594575 
0.0969958 -0.0255577 0.604755 0.0995639 -0.0276458 0.614051 0.102096 -0.0297008 0.622385 
0.1046 -0.0316937 0.629715 0.107044 -0.0335987 0.636035 0.10936 -0.0353943 0.641376 
0.111457 -0.0370643 0.645799 0.113238 -0.0385979 0.649394 0.114618 -0.0399896 0.652265 
0.115534 -0.0412382 0.654525 0.115966 -0.0423456 0.656284 0.115934 -0.0433157 0.657646 
0.115506 -0.0441533 0.658697 0.114788 -0.0448632 0.659508 0.113914 -0.0454498 0.660134 
0.113028 -0.0459168 0.66061 0.112268 -0.0462672 0.660959 0.111748 -0.0465032 0.661197 
0.11154 -0.0466269 0.661329 
LINES 2 100
OFFSETS vtktypeint64
0 100 
CONNECTIVITY vtktypeint64
0 1 2 3 4 5 6 7 8 
9 10 11 12 13 14 15 16 17 
18 19 20 21 22 23 24 25 26 
27 28 29 30 31 32 33 34 35 
36 37 38 39 40 41 42 43 44 
45 46 47 48 49 50 51 52 53 
54 55 56 57 58 59 60 61 62 
63 64 65 66 67 68 69 70 71 
72 73 74 75 76 77 78 79 80 
81 82 83 84 85 86 87 88 89 
90 91 92 93 94 95 96 97 98 
99 
POINT_DATA 100
FIELD FieldData 3
_theta 1 100 double
0 0.031733259127 0.063466518254 0.095199777382 0.12693303651 0.15866629564 0.19039955476 0.22213281389 0.25386607302 
0.28559933214 0.31733259127 0.3490658504 0.38079910953 0.41253236865 0.44426562778 0.47599888691 0.50773214603 0.53946540516 
0.57119866429 0.60293192342 0.63466518254 0.66639844167 0.6981317008 0.72986495992 0.76159821905 0.79333147818 0.82506473731 
0.85679799643 0.88853125556 0.92026451469 0.95199777382 0.98373103294 1.0154642921 1.0471975512 1.0789308103 1.1106640695 
1.1423973286 1.1741305877 1.2058638468 1.237597106 1.2693303651 1.3010636242 1.3327968833 1.3645301425 1.3962634016 
1.4279966607 1.4597299198 1.491463179 1.5231964381 1.5549296972 1.5866629564 1.6183962155 1.6501294746 1.6818627337 
1.7135959929 1.745329252 1.7770625111 1.8087957702 1.8405290294 1.8722622885 1.9039955476 1.9357288068 1.9674620659 
1.999195325 2.0309285841 2.0626618433 2.0943951024 2.1261283615 2.1578616206 2.1895948798 2.2213281389 2.253061398 
2.2847946572 2.3165279163 2.3482611754 2.3799944345 2.4117276937 2.4434609528 2.4751942119 2.506927471 2.5386607302 
2.5703939893 2.6021272484 2.6338605076 2.6655937667 2.6973270258 2.7290602849 2.7607935441 2.7925268032 2.8242600623 
2.8559933214 2.8877265806 2.9194598397 2.9511930988 2.982926358 3.0146596171 3.0463928762 3.0781261353 3.1098593945 
3.1415926536 
_radius 1 100 double
7.9567664347e-16 0.015969902622 0.031761811261 0.047205634136 0.062156772238 0.076503182609 0.090166687148 0.1030987562 0.11527227817 
0.12667170866 0.13728418434 0.14709363728 0.15607888773 0.16421552877 0.17148052242 0.17785800763 0.1833448774 0.18795506723 
0.19172200769 0.1946991502 0.196958762 0.19858927619 0.19969144182 0.20037348008 0.20074552572 0.20091379222 0.20097497891 
0.20101130468 0.20108630952 0.20124148176 0.20149398558 0.20183612635 0.20223738476 0.20264958022 0.20301491076 0.20327559921 
0.20338328136 0.2033064959 0.20303548196 0.2025843572 0.20199115188 0.20131616621 0.20063911254 0.20005561682 0.199673499 
0.19960852898 0.19997846283 0.2008939791 0.20244619565 0.20469239483 0.20764334673 0.2112560999 0.21543492826 0.22004085922 
0.22490789143 0.22986242455 0.23474190332 0.23940924349 0.24376098787 0.24772881655 0.25127547773 0.25438709723 0.25706408936 
0.25931261266 0.26113789116 0.26254000234 0.26351213007 0.26404089422 0.26410817942 0.26369381514 0.26277844584 0.2613459595 
0.25938493983 0.2568887921 0.25385446085 0.25027996983 0.24616130848 0.24148939086 0.23624785526 0.23041233082 0.22395151286 
0.21683005837 0.20901302487 0.20047136018 0.19118778349 0.18116226521 0.17041624319 0.158994767 0.1469659848 0.13441777248 
0.12145178482 0.10817567344 0.094694546324 0.081102851246 0.067477733986 0.053874616837 0.040325373329 0.02683914069 0.013405554554 
6.4164547409e-16 
_area 1 100 double
0 0.00069054197943 0.0027302238888 0.0060280164698 0.010446850866 0.015821116441 0.021973447363 0.028726209018 0.03590573915 
0.043340597092 0.050856804635 0.058273059665 0.065398499653 0.072035426301 0.077988738254 0.083081936995 0.087176897241 0.090192464991 
0.092116642071 0.093009035536 0.092993658439 0.092245520258 0.090976197897 0.08942301822 0.087843207513 0.086504804502 0.0856466851 
0.085405736231 0.085814913533 0.086874729661 0.08856601205 0.090816963491 0.093498154169 0.096431588071 0.099411710094 0.102235521 
0.10473223421 0.10678561588 0.10834542633 0.10942338395 0.11007253575 0.11036537271 0.11039497338 0.11032155081 0.11032586167 
0.11057176343 0.11147618885 0.11305115509 0.11535904144 0.11854035043 0.12272319177 0.12798576281 0.13430777701 0.14152341374 
0.1493293129 0.15734325583 0.16516776033 0.17244342873 0.17889219276 0.18434606116 0.18875591606 0.19217866894 0.1947458094 
0.1966195971 0.19794493366 0.19880837296 0.19921912647 0.19912026931 0.19842123776 0.1970324639 0.19488924036 0.19196267361 
0.18826065783 0.18382232541 0.17870862492 0.17299097365 0.16673960839 0.16001320659 0.15285141122 0.14527186267 0.13727290978 
0.12884212847 0.11996931956 0.11066136138 0.10095571348 0.090929674942 0.080703427477 0.070436050743 0.060314918236 0.050540172994 
0.041307139445 0.032790058489 0.02513007846 0.018429164156 0.012750085932 0.0081214827216 0.0045463776573 0.0020123595751 0.00050171825629 
4.534344323e-17 
