# vtk DataFile Version 5.1
vtk output
ASCII
DATASET POLYDATA
POINTS 100 float
0.112186 0.0380851 -0.643011 0.112172 0.0379835 -0.643184 0.112154 0.0374595 -0.643674 
0.112121 0.0365446 -0.644353 0.112051 0.0352882 -0.645022 0.11192 0.0337514 -0.645433 
0.111701 0.0320001 -0.645317 0.111366 0.0300971 -0.644412 0.110888 0.0280954 -0.64249 
0.110245 0.0260317 -0.63938 0.10941 0.0239228 -0.634981 0.108361 0.0217641 -0.629268 
0.10707 0.0195312 -0.622287 0.1055 0.017183 -0.614148 0.103611 0.0146682 -0.604998 
0.101349 0.0119322 -0.595006 0.0986528 0.00892511 -0.584336 0.0954565 0.00560945 -0.573129 
0.091692 0.00196631 -0.561483 0.0872973 -0.00199992 -0.54945 0.0822236 -0.00625938 -0.537028 
0.0764427 -0.0107571 -0.524173 0.0699533 -0.0154156 -0.510809 0.0627853 -0.0201402 -0.496843 
0.0550013 -0.024825 -0.482187 0.0466936 -0.0293607 -0.46677 0.0379793 -0.0336414 -0.450555 
0.0289908 -0.0375719 -0.433546 0.0198648 -0.0410728 -0.415788 0.0107308 -0.044084 -0.397362 
0.00169915 -0.0465667 -0.378376 -0.00714767 -0.0485032 -0.358946 -0.015761 -0.0498947 -0.339182 
-0.0241274 -0.0507582 -0.319175 -0.0322648 -0.0511225 -0.298976 -0.0402147 -0.0510242 -0.278597 
-0.0480301 -0.0505033 -0.258005 -0.0557616 -0.0496004 -0.237127 -0.0634425 -0.0483545 -0.215864 
-0.0710755 -0.0468019 -0.194102 -0.0786227 -0.0449761 -0.171733 -0.0860003 -0.0429092 -0.148671 
-0.0930793 -0.0406325 -0.124869 -0.0996918 -0.038179 -0.100327 -0.105643 -0.035584 -0.0751012 
-0.110728 -0.0328865 -0.0492994 -0.114749 -0.0301288 -0.0230766 -0.117535 -0.0273561 0.00337815 
-0.118961 -0.0246146 0.029857 -0.118957 -0.0219496 0.0561499 -0.117518 -0.019403 0.0820602 
-0.114702 -0.0170102 0.107418 -0.110628 -0.0147989 0.132091 -0.105461 -0.0127864 0.155984 
-0.0993948 -0.0109801 0.179044 -0.0926361 -0.00937692 0.201251 -0.0853828 -0.00796501 0.222615 
-0.0778078 -0.00672588 0.243158 -0.0700461 -0.00563718 0.262917 -0.0621874 -0.00467572 0.281924 
-0.0542747 -0.00382059 0.30021 -0.0463097 -0.00305582 0.317801 -0.0382629 -0.00237242 0.33472 
-0.0300876 -0.00176949 0.350988 -0.0217353 -0.00125444 0.366635 -0.0131706 -0.000842182 0.381703 
-0.0043834 -0.000553468 0.396248 0.00460328 -0.00041256 0.410345 0.0137307 -0.000444486 0.424084 
0.0229077 -0.000672159 0.437565 0.0320188 -0.00111365 0.450888 0.0409363 -0.00177986 0.464141 
0.0495345 -0.00267276 0.477393 0.0577037 -0.00378439 0.490678 0.0653627 -0.00509656 0.50399 
0.0724671 -0.00658134 0.517281 0.0790128 -0.00820221 0.530458 0.0850342 -0.0099157 0.543395 
0.0905977 -0.0116735 0.555941 0.0957899 -0.0134247 0.567935 0.100705 -0.0151183 0.579226 
0.105429 -0.0167055 0.589686 0.110029 -0.0181419 0.599227 0.114542 -0.0193894 0.607805 
0.11897 -0.0204181 0.615431 0.123281 -0.0212076 0.622162 0.127413 -0.0217474 0.628098 
0.131286 -0.0220383 0.633364 0.134809 -0.0220917 0.638098 0.137902 -0.0219294 0.642429 
0.1405 -0.0215827 0.646466 0.142572 -0.0210906 0.65028 0.144118 -0.0204987 0.6539 
0.145177 -0.019856 0.65731 0.145819 -0.0192129 0.660452 0.146136 -0.0186183 0.663239 
0.146234 -0.0181168 0.665568 0.146211 -0.0177463 0.667335 0.146152 -0.0175356 0.668451 
0.146111 -0.0175028 0.668858 
LINES 2 100
OFFSETS vtktypeint64
0 100 
CONNECTIVITY vtktypeint64
0 1 2 3 4 5 6 7 8 
9 10 11 12 13 14 15 16 17 
18 19 20 21 22 23 24 25 26 
27 28 29 30 31 32 33 34 35 
36 37 38 39 40 41 42 43 44 
45 46 47 48 49 50 51 52 53 
54 55 56 57 58 59 60 61 62 
63 64 65 66 67 68 69 70 71 
72 73 74 75 76 77 78 79 80 
81 82 83 84 85 86 87 88 89 
90 91 92 93 94 95 96 97 98 
99 
POINT_DATA 100
FIELD FieldData 3
_theta 1 100 double
0 0.031733259127 0.063466518254 0.095199777382 0.12693303651 0.15866629564 0.19039955476 0.22213281389 0.25386607302 
0.28559933214 0.31733259127 0.3490658504 0.38079910953 0.41253236865 0.44426562778 0.47599888691 0.50773214603 0.53946540516 
0.57119866429 0.60293192342 0.63466518254 0.66639844167 0.6981317008 0.72986495992 0.76159821905 0.79333147818 0.82506473731 
0.85679799643 0.88853125556 0.92026451469 0.95199777382 0.98373103294 1.0154642921 1.0471975512 1.0789308103 1.1106640695 
1.1423973286 1.1741305877 1.2058638468 1.237597106 1.2693303651 1.3010636242 1.3327968833 1.3645301425 1.3962634016 
1.4279966607 1.4597299198 1.491463179 1.5231964381 1.5549296972 1.5866629564 1.6183962155 1.6501294746 1.6818627337 
1.7135959929 1.745329252 1.7770625111 1.8087957702 1.8405290294 1.8722622885 1.9039955476 1.9357288068 1.9674620659 
1.999195325 2.0309285841 2.0626618433 2.0943951024 2.1261283615 2.1578616206 2.1895948798 2.2213281389 2.253061398 
2.2847946572 2.3165279163 2.3482611754 2.3799944345 2.4117276937 2.4434609528 2.4751942119 2.506927471 2.5386607302 
2.5703939893 2.6021272484 2.6338605076 2.6655937667 2.6973270258 2.7290602849 2.7607935441 2.7925268032 2.8242600623 
2.8559933214 2.8877265806 2.9194598397 2.9511930988 2.982926358 3.0146596171 3.0463928762 3.0781261353 3.1098593945 
3.1415926536 
_radius 1 100 double
1.6707179345e-15 0.014619586792 0.029155969117 0.043523063905 0.057641898189 0.071442800476 0.084866276848 0.097862652011 0.11039059092 
0.1224145258 0.1339009858 0.14481402831 0.15511041564 0.16473569275 0.17362261445 0.1816932013 0.1888650252 0.19506133179 
0.20022362127 0.20432461603 0.2073792827 0.20945174935 0.21065649615 0.21115300045 0.21113397558 0.2108083363 0.2103809276 
0.21003173101 0.20989755775 0.2100589812 0.21053436745 0.21128150631 0.21220601973 0.21317495516 0.21403387435 0.21462598231 
0.21481197838 0.21448912032 0.21360750913 0.21218116612 0.21029161391 0.20808270648 0.2057472209 0.20350763861 0.20159477774 
0.20022774505 0.19959704214 0.19985067719 0.20108229233 0.20332119335 0.20652590778 0.21058396593 0.21531998739 0.22051205177 
0.2259139073 0.23127909637 0.23638308885 0.24104064076 0.24511705785 0.24853323096 0.25126501395 0.25333781745 0.25481738216 
0.25579774297 0.25638749824 0.25669567139 0.25681862476 0.25682952415 0.25677161017 0.25665593744 0.25646338038 0.25614982902 
0.25565293117 0.25489869817 0.2538067736 0.25229394014 0.25027618336 0.24767007496 0.24439428108 0.24037172051 0.23553247793 
0.22981720728 0.22318055177 0.21559407621 0.20704830036 0.19755357133 0.187139668 0.17585417658 0.16375981362 0.15093099599 
0.13745003117 0.12340328638 0.10887759626 0.093957062546 0.078720371798 0.063238807884 0.047575174995 0.031783791636 0.015911567037 
5.9327320409e-16 
_area 1 100 double
0 0.00061417966061 0.0024386491895 0.0054234143166 0.0094960815909 0.014570022968 0.020546602593 0.027312223031 0.034733912323 
0.042656237406 0.050900670934 0.059268240852 0.067546471009 0.07552074557 0.082988088882 0.08976925712 0.095714912742 0.10070474331 
0.10464368181 0.10746283154 0.10913008086 0.10966784822 0.10916949083 0.10780648311 0.105824465 0.10353317249 0.10128920754 
0.099425439763 0.098161050771 0.097627806978 0.097897340357 0.098962865968 0.10072147783 0.10297397571 0.10544641764 0.10782878966 
0.10982202696 0.1111858283 0.11178022583 0.11159035351 0.11072236417 0.1093716256 0.10780358982 0.10644321173 0.10566579827 
0.10578838985 0.10659334202 0.10818377948 0.11067371207 0.11415908524 0.11869384516 0.12426032496 0.13074270304 0.13791727041 
0.14546781426 0.15302221366 0.16019854678 0.16664970322 0.17209956538 0.17636721221 0.1793778337 0.1811605983 0.18183487539 
0.18158709465 0.18064115496 0.17922581016 0.17754315784 0.17574326427 0.17391013152 0.17206204773 0.17016447742 0.16814864344 
0.16592793952 0.16340855934 0.16049618637 0.15710179844 0.15314693562 0.14856714712 0.14331328999 0.1373515847 0.1306639069 
0.12325014402 0.11513397692 0.10637148843 0.097059511744 0.087339456431 0.077393348041 0.06743131663 0.057672554747 0.048324001285 
0.039562158134 0.031522859762 0.024301054325 0.017958613871 0.012535359401 0.0080587774387 0.0045503327012 0.0020283322981 0.00050803725115 
4.3536250042e-17 
