# vtk DataFile Version 5.1
vtk output
ASCII
DATASET POLYDATA
POINTS 100 float
0.105838 0.112866 -0.681027 0.105704 0.112729 -0.680704 0.105287 0.112094 -0.679691 
0.104623 0.110964 -0.677979 0.103766 0.109348 -0.675557 0.102785 0.107258 -0.672416 
0.101753 0.104706 -0.668554 0.100738 0.101708 -0.663981 0.0997947 0.0982774 -0.658719 
0.098954 0.0944288 -0.652808 0.0982185 0.0901752 -0.646296 0.0975563 0.0855278 -0.639243 
0.0969001 0.0804957 -0.631709 0.0961494 0.0750859 -0.623749 0.0951755 0.069304 -0.615404 
0.0938312 0.0631551 -0.606695 0.0919613 0.0566448 -0.597618 0.0894162 0.0497814 -0.588142 
0.0860646 0.042578 -0.578209 0.0818064 0.0350548 -0.567745 0.0765826 0.0272413 -0.55666 
0.0703822 0.0191792 -0.544867 0.0632444 0.0109239 -0.532284 0.0552565 0.00254585 -0.518853 
0.0465472 -0.00586853 -0.504541 0.0372752 -0.0142178 -0.489348 0.0276156 -0.0223873 -0.47331 
0.0177441 -0.0302515 -0.456491 0.00782204 -0.0376792 -0.438976 -0.00201771 -0.0445379 -0.420863 
-0.0116801 -0.0507004 -0.402249 -0.0211133 -0.0560514 -0.383215 -0.0303083 -0.0604933 -0.36382 
-0.0392926 -0.0639527 -0.344087 -0.0481193 -0.0663852 -0.324004 -0.0568522 -0.0677784 -0.303526 
-0.065548 -0.0681537 -0.282575 -0.0742399 -0.0675657 -0.261059 -0.0829218 -0.0660991 -0.23888 
-0.0915372 -0.0638639 -0.215951 -0.0999743 -0.0609891 -0.19221 -0.108067 -0.0576148 -0.167635 
-0.115601 -0.0538837 -0.14225 -0.122334 -0.049933 -0.116129 -0.128006 -0.0458868 -0.089396 
-0.13237 -0.0418502 -0.0622172 -0.135208 -0.0379053 -0.0347893 -0.136357 -0.0341091 -0.00732593 
-0.135722 -0.0304944 0.0199579 -0.133286 -0.0270726 0.0468613 -0.129118 -0.0238382 0.0732101 
-0.123359 -0.0207749 0.0988669 -0.11622 -0.0178619 0.123736 -0.107957 -0.0150805 0.147764 
-0.0988509 -0.0124192 0.170936 -0.0891874 -0.00987798 0.19327 -0.0792305 -0.00746964 0.214805 
-0.0692063 -0.00522 0.235596 -0.0592887 -0.00316533 0.255699 -0.0495933 -0.00134821 0.275169 
-0.0401766 0.000187806 0.294051 -0.0310437 0.00140418 0.312385 -0.0221592 0.00227303 0.330198 
-0.0134636 0.00278188 0.347518 -0.00488903 0.00293677 0.364367 0.00362467 0.00276329 0.380778 
0.0121173 0.00230535 0.396785 0.0206002 0.00162183 0.412434 0.0290534 0.000781357 0.427779 
0.0374281 -0.000144063 0.442873 0.045654 -0.00108597 0.457767 0.0536501 -0.00198593 0.472501 
0.0613368 -0.00280094 0.487094 0.068648 -0.00350693 0.501539 0.0755408 -0.00410003 0.515797 
0.082002 -0.00459541 0.529798 0.0880493 -0.00502375 0.543446 0.0937278 -0.00542582 0.556618 
0.0991032 -0.00584578 0.569184 0.10425 -0.00632413 0.581012 0.109239 -0.00689105 0.591988 
0.114125 -0.00756111 0.602023 0.118939 -0.00832998 0.611064 0.123678 -0.00917364 0.619102 
0.128304 -0.0100502 0.626174 0.13275 -0.0109043 0.632356 0.136925 -0.0116731 0.637757 
0.140727 -0.0122944 0.642505 0.144058 -0.0127137 0.646735 0.146838 -0.0128924 0.650572 
0.149014 -0.0128126 0.65412 0.150574 -0.0124814 0.657448 0.151549 -0.0119307 0.66059 
0.152012 -0.0112159 0.663535 0.15207 -0.01041 0.666242 0.151851 -0.00959728 0.668641 
0.151495 -0.00886401 0.670647 0.151131 -0.00828991 0.672176 0.150863 -0.00793947 0.673156 
0.150761 -0.00785514 0.673536 
LINES 2 100
OFFSETS vtktypeint64
0 100 
CONNECTIVITY vtktypeint64
0 1 2 3 4 5 6 7 8 
9 10 11 12 13 14 15 16 17 
18 19 20 21 22 23 24 25 26 
27 28 29 30 31 32 33 34 35 
36 37 38 39 40 41 42 43 44 
45 46 47 48 49 50 51 52 53 
54 55 56 57 58 59 60 61 62 
63 64 65 66 67 68 69 70 71 
72 73 74 75 76 77 78 79 80 
81 82 83 84 85 86 87 88 89 
90 91 92 93 94 95 96 97 98 
99 
POINT_DATA 100
FIELD FieldData 3
_theta 1 100 double
0 0.031733259127 0.063466518254 0.095199777382 0.12693303651 0.15866629564 0.19039955476 0.22213281389 0.25386607302 
0.28559933214 0.31733259127 0.3490658504 0.38079910953 0.41253236865 0.44426562778 0.47599888691 0.50773214603 0.53946540516 
0.57119866429 0.60293192342 0.63466518254 0.66639844167 0.6981317008 0.72986495992 0.76159821905 0.79333147818 0.82506473731 
0.85679799643 0.88853125556 0.92026451469 0.95199777382 0.98373103294 1.0154642921 1.0471975512 1.0789308103 1.1106640695 
1.1423973286 1.1741305877 1.2058638468 1.237597106 1.2693303651 1.3010636242 1.3327968833 1.3645301425 1.3962634016 
1.4279966607 1.4597299198 1.491463179 1.5231964381 1.5549296972 1.5866629564 1.6183962155 1.6501294746 1.6818627337 
1.7135959929 1.745329252 1.7770625111 1.8087957702 1.8405290294 1.8722622885 1.9039955476 1.9357288068 1.9674620659 
1.999195325 2.0309285841 2.0626618433 2.0943951024 2.1261283615 2.1578616206 2.1895948798 2.2213281389 2.253061398 
2.2847946572 2.3165279163 2.3482611754 2.3799944345 2.4117276937 2.4434609528 2.4751942119 2.506927471 2.5386607302 
2.5703939893 2.6021272484 2.6338605076 2.6655937667 2.6973270258 2.7290602849 2.7607935441 2.7925268032 2.8242600623 
2.8559933214 2.8877265806 2.9194598397 2.9511930988 2.982926358 3.0146596171 3.0463928762 3.0781261353 3.1098593945 
3.1415926536 
_radius 1 100 double
3.6874198849e-16 0.015527486165 0.03089894117 0.045969791802 0.060629107414 0.074809497924 0.088489311446 0.10168628751 0.11444346186 
0.12680997093 0.13882084292 0.15048017968 0.16175109744 0.17255393409 0.18277242936 0.19226641237 0.20088898456 0.20850595577 
0.21501513698 0.22036299594 0.22455628043 0.22766665996 0.22982728982 0.23122138048 0.23206414264 0.23258057402 0.23298217456 
0.23344567979 0.23409635093 0.23499749072 0.23614695096 0.23748065943 0.23888266465 0.24020079268 0.24126661401 0.24191797456 
0.2420218694 0.24149498098 0.24031891035 0.23854732526 0.23630332105 0.23376732785 0.23115840074 0.22871354917 0.22666960044 
0.22524964439 0.22465279518 0.22504401575 0.22654132667 0.22920054782 0.23300125633 0.23783966221 0.24353293087 0.24983562979 
0.25646497096 0.26312956517 0.26955670485 0.27551463176 0.28082780894 0.28538450774 0.28913700865 0.29209542568 0.29431660371 
0.29588972977 0.29692032054 0.2975142012 0.29776303501 0.29773285982 0.29745682574 0.29693281276 0.2961258638 0.29497456169 
0.2933998391 0.29131443119 0.28863134191 0.28527024042 0.28116145534 0.2762479437 0.27048605102 0.26384592735 0.25631216172 
0.24788471395 0.23857977794 0.22842997728 0.2174833411 0.20580079182 0.19345228271 0.18051210981 0.16705416599 0.15314792671 
0.13885575826 0.12423180163 0.10932233355 0.094167239191 0.078802086056 0.063260267664 0.047574779562 0.031779374164 0.015909051149 
1.1486724507e-15 
_area 1 100 double
0 0.00069210980009 0.002739201604 0.006059848683 0.010537160891 0.01604019806 0.022442659435 0.029632728257 0.03751188825 
0.045985034408 0.054946815349 0.064268960648 0.073791295243 0.083317114456 0.092613105955 0.10141494712 0.10944063541 0.1164131997 
0.12209226648 0.12631048887 0.12900743993 0.13025216172 0.13024757091 0.12931499258 0.12786242332 0.12634065293 0.12518390057 
0.12472960724 0.12514424917 0.12641164331 0.12838798329 0.13086900926 0.1336314957 0.13644641382 0.13907582581 0.1412757192 
0.14282716867 0.14358142891 0.14352413893 0.14286988064 0.14207786522 0.14155817627 0.14136161304 0.14146545656 0.14193121238 
0.14288578325 0.14449052024 0.14676885432 0.1497145921 0.153462935 0.1582242609 0.16419228269 0.17145858123 0.17995372842 
0.18943561864 0.19951997316 0.20973286312 0.21957087316 0.22856164363 0.23631814491 0.24257917578 0.24722990752 0.25029985535 
0.25194000918 0.25238429381 0.25190218577 0.25074958756 0.24912494938 0.24713788279 0.24479767801 0.24202648628 0.23869393181 
0.23466047124 0.22981394353 0.22408892013 0.21746647871 0.2099589307 0.20158866853 0.19237188001 0.18231556587 0.17143028115 
0.15975342474 0.14737247864 0.13443750488 0.12115725345 0.10777999433 0.094565212817 0.081754449975 0.069549343649 0.05810254655 
0.047522171929 0.037884293329 0.029245607059 0.021651816051 0.01514216224 0.0097521012064 0.0055148223812 0.0024610616181 0.00061685516069 
0 
