# vtk DataFile Version 5.1
vtk output
ASCII
DATASET POLYDATA
POINTS 100 float
0.0617736 0.0628354 -0.643268 0.0618223 0.0626271 -0.643146 0.0619553 0.061783 -0.642669 
0.0621644 0.0603424 -0.641781 0.0624363 0.058367 -0.640401 0.0627539 0.0559329 -0.638428 
0.0630971 0.0531218 -0.635762 0.0634438 0.0500116 -0.632312 0.0637697 0.0466673 -0.628009 
0.0640478 0.043135 -0.62282 0.0642463 0.0394378 -0.616746 0.0643273 0.0355755 -0.609825 
0.0642438 0.0315282 -0.602127 0.0639388 0.0272618 -0.593743 0.063344 0.0227368 -0.584774 
0.0623812 0.0179176 -0.575317 0.0609651 0.0127816 -0.56545 0.0590082 0.00732704 -0.555225 
0.0564276 0.00157886 -0.544657 0.053153 -0.00440941 -0.533728 0.049135 -0.0105563 -0.522384 
0.0443528 -0.0167571 -0.510547 0.0388197 -0.0228902 -0.498128 0.0325867 -0.0288268 -0.485032 
0.0257411 -0.0344399 -0.471184 0.0184028 -0.0396143 -0.456529 0.0107153 -0.044254 -0.441047 
0.00283505 -0.0482881 -0.424759 -0.00508233 -0.0516742 -0.407717 -0.0128955 -0.054398 -0.390009 
-0.0204897 -0.0564714 -0.371742 -0.0277868 -0.0579271 -0.353033 -0.0347502 -0.0588136 -0.333992 
-0.0413852 -0.0591876 -0.314713 -0.0477336 -0.059109 -0.295261 -0.0538638 -0.0586348 -0.275667 
-0.059856 -0.057816 -0.255925 -0.0657861 -0.0566958 -0.235995 -0.0717085 -0.0553092 -0.215812 
-0.0776411 -0.0536845 -0.195297 -0.0835545 -0.0518449 -0.174366 -0.0893663 -0.0498115 -0.15295 
-0.0949422 -0.0476048 -0.130999 -0.100104 -0.0452464 -0.108499 -0.104644 -0.0427595 -0.0854708 
-0.108343 -0.0401685 -0.0619734 -0.110993 -0.0374975 -0.0381004 -0.112416 -0.0347691 -0.013972 
-0.112488 -0.0320025 0.0102749 -0.11115 -0.0292128 0.0344978 -0.108419 -0.0264109 0.0585597 
-0.104383 -0.0236043 0.0823385 -0.0992021 -0.0208 0.105734 -0.0930872 -0.0180072 0.12867 
-0.0862839 -0.0152411 0.151097 -0.0790487 -0.0125263 0.172986 -0.0716254 -0.00989964 0.194324 
-0.0642244 -0.00741128 0.215111 -0.0570059 -0.00512372 0.235347 -0.050069 -0.00310898 0.255032 
-0.0434497 -0.00144345 0.274162 -0.0371248 -0.000201014 0.292724 -0.0310235 0.000554691 0.310705 
-0.0250439 0.000778245 0.32809 -0.0190722 0.000449397 0.344868 -0.0130026 -0.000421877 0.361043 
-0.00675468 -0.00179306 0.376635 -0.000287211 -0.00359005 0.391684 0.0063944 -0.00571149 0.40625 
0.0132368 -0.00803622 0.420416 0.0201441 -0.0104332 0.434275 0.0269882 -0.0127728 0.447929 
0.0336243 -0.0149381 0.461475 0.0399064 -0.0168356 0.474996 0.0457045 -0.0184028 0.488552 
0.0509177 -0.0196129 0.502169 0.0554846 -0.0204764 0.515839 0.0593872 -0.021037 0.529514 
0.0626508 -0.0213658 0.54311 0.0653376 -0.0215519 0.556514 0.0675367 -0.0216909 0.56959 
0.0693519 -0.0218742 0.582196 0.0708881 -0.0221787 0.594188 0.0722398 -0.0226586 0.605437 
0.073481 -0.0233408 0.615837 0.0746602 -0.0242233 0.625311 0.0757984 -0.0252779 0.633816 
0.0768921 -0.0264552 0.641342 0.077919 -0.0276925 0.647912 0.0788468 -0.0289222 0.653572 
0.0796414 -0.0300812 0.658392 0.080276 -0.0311175 0.662447 0.0807372 -0.0319964 0.665822 
0.081028 -0.0327022 0.668596 0.0811689 -0.0332381 0.67084 0.081194 -0.0336228 0.672617 
0.0811459 -0.0338852 0.673974 0.0810682 -0.0340579 0.674946 0.0809989 -0.0341704 0.675559 
0.0809631 -0.0342434 0.675822 
LINES 2 100
OFFSETS vtktypeint64
0 100 
CONNECTIVITY vtktypeint64
0 1 2 3 4 5 6 7 8 
9 10 11 12 13 14 15 16 17 
18 19 20 21 22 23 24 25 26 
27 28 29 30 31 32 33 34 35 
36 37 38 39 40 41 42 43 44 
45 46 47 48 49 50 51 52 53 
54 55 56 57 58 59 60 61 62 
63 64 65 66 67 68 69 70 71 
72 73 74 75 76 77 78 79 80 
81 82 83 84 85 86 87 88 89 
90 91 92 93 94 95 96 97 98 
99 
POINT_DATA 100
FIELD FieldData 3
_theta 1 100 double
0 0.031733259127 0.063466518254 0.095199777382 0.12693303651 0.15866629564 0.19039955476 0.22213281389 0.25386607302 
0.28559933214 0.31733259127 0.3490658504 0.38079910953 0.41253236865 0.44426562778 0.47599888691 0.50773214603 0.53946540516 
0.57119866429 0.60293192342 0.63466518254 0.66639844167 0.6981317008 0.72986495992 0.76159821905 0.79333147818 0.82506473731 
0.85679799643 0.88853125556 0.92026451469 0.95199777382 0.98373103294 1.0154642921 1.0471975512 1.0789308103 1.1106640695 
1.1423973286 1.1741305877 1.2058638468 1.237597106 1.2693303651 1.3010636242 1.3327968833 1.3645301425 1.3962634016 
1.4279966607 1.4597299198 1.491463179 1.5231964381 1.5549296972 1.5866629564 1.6183962155 1.6501294746 1.6818627337 
1.7135959929 1.745329252 1.7770625111 1.8087957702 1.8405290294 1.8722622885 1.9039955476 1.9357288068 1.9674620659 
1.999195325 2.0309285841 2.0626618433 2.0943951024 2.1261283615 2.1578616206 2.1895948798 2.2213281389 2.253061398 
2.2847946572 2.3165279163 2.3482611754 2.3799944345 2.4117276937 2.4434609528 2.4751942119 2.506927471 2.5386607302 
2.5703939893 2.6021272484 2.6338605076 2.6655937667 2.6973270258 2.7290602849 2.7607935441 2.7925268032 2.8242600623 
2.8559933214 2.8877265806 2.9194598397 2.9511930988 2.982926358 3.0146596171 3.0463928762 3.0781261353 3.1098593945 
3.1415926536 
_radius 1 100 double
5.6627496478e-16 0.014566963638 0.028954200049 0.043000013167 0.056588782813 0.069663174216 0.082225004052 0.094324433349 0.10603972077 
0.11745196075 0.12862025035 0.13956219484 0.15024291803 0.16057362376 0.17041901511 0.17961181933 0.18797218213 0.19532953245 
0.20154448452 0.20652837224 0.21025813812 0.21278460787 0.2142327413 0.21479328455 0.21470631045 0.21423830681 0.21365556425 
0.21319737153 0.21305267468 0.21334323504 0.21411505532 0.21533837082 0.21691533683 0.21869394034 0.22048653649 0.22209146928 
0.22331617567 0.2239998403 0.22403320545 0.2233729368 0.2220483607 0.22015949605 0.21786686433 0.21537513512 0.21291369273 
0.21071716768 0.20900777264 0.20797962328 0.20778432263 0.20851768047 0.21020907917 0.21281633814 0.21622875361 0.22027911264 
0.22476285522 0.22946055307 0.23415932024 0.23866960865 0.24283546585 0.24653808105 0.24969384733 0.25224898185 0.25417293048 
0.25545244002 0.25608748538 0.25608938935 0.25548066974 0.25429558077 0.25258013861 0.25039069431 0.24779075261 0.24484647198 
0.24162177098 0.23817393901 0.23455010653 0.2307842093 0.22689368934 0.22287546142 0.21870156285 0.21431590697 0.20963405992 
0.20454758366 0.19893333024 0.19266661746 0.18563604209 0.17775717039 0.16898256074 0.15930637336 0.14876297164 0.13742016439 
0.12536881174 0.11271115121 0.099550201288 0.085981968973 0.072091176722 0.057950229432 0.043620495046 0.02915478366 0.014600086364 
9.0634438774e-16 
_area 1 100 double
0 0.00064418172781 0.0025376269982 0.0055714137243 0.0095894240507 0.014418579774 0.019898106654 0.025900001264 0.032335991489 
0.039150644768 0.046304170793 0.053750409002 0.061415324003 0.069180168132 0.076872454153 0.084267204706 0.091100014965 0.097091715928 
0.10198191398 0.1055661071 0.10772938994 0.10846970156 0.10790541523 0.10626556672 0.10386536123 0.10107346487 0.098279535058 
0.095870333393 0.094225622932 0.093825864361 0.094943596313 0.097315165662 0.10068247121 0.10470557253 0.10902715687 0.11324381785 
0.11696238009 0.11985761698 0.12172332578 0.1225102142 0.1223480704 0.12151061318 0.12033186998 0.1194237084 0.11889999116 
0.11869250941 0.11883526737 0.11940371093 0.12051454866 0.12231741504 0.12496075795 0.12855104752 0.13312415851 0.13862518327 
0.14489708843 0.15168641863 0.15866847499 0.16548617352 0.17179314705 0.17729236337 0.18176384099 0.18507764122 0.18719173917 
0.18813817634 0.18800250417 0.18689928137 0.18494555975 0.18224223718 0.17887518132 0.17492933154 0.17049788874 0.16567979004 
0.16057071324 0.15525516979 0.14980342256 0.14427209268 0.13870452477 0.13312740604 0.12754326063 0.12192239651 0.11620011925 
0.11028376124 0.10406986598 0.097467337998 0.090419993346 0.082922399576 0.075025415834 0.06683125097 0.058480881933 0.050138184726 
0.041974845232 0.034158766396 0.026847060666 0.020183155981 0.014296406463 0.009302284744 0.0053017135855 0.0023789425786 0.00059820302099 
4.2938799865e-17 
