# vtk DataFile Version 5.1
vtk output
ASCII
DATASET POLYDATA
POINTS 100 float
0.113177 0.0401675 -0.689143 0.112973 0.0400862 -0.688932 0.112422 0.0397102 -0.688388 
0.111549 0.0390762 -0.687469 0.110391 0.0382389 -0.686109 0.109 0.037263 -0.684224 
0.107432 0.0362141 -0.681722 0.105749 0.0351493 -0.67851 0.10401 0.0341087 -0.674507 
0.102266 0.0331092 -0.66965 0.100553 0.0321412 -0.663898 0.0988853 0.0311686 -0.657238 
0.0972502 0.0301328 -0.649683 0.0956061 0.028959 -0.641269 0.0938801 0.0275654 -0.632051 
0.0919713 0.0258728 -0.622095 0.0897558 0.0238139 -0.611468 0.0870953 0.0213423 -0.600234 
0.0838492 0.0184374 -0.588444 0.0798866 0.0151074 -0.576131 0.0751003 0.011389 -0.56331 
0.0694193 0.00734302 -0.549977 0.0628181 0.00304853 -0.536111 0.0553234 -0.00140521 -0.52168 
0.0470148 -0.00592719 -0.506647 0.038021 -0.0104325 -0.490978 0.0285107 -0.0148484 -0.474645 
0.0186786 -0.0191187 -0.457636 0.00872926 -0.0232041 -0.439957 -0.00114133 -0.0270816 -0.421629 
-0.0107628 -0.0307399 -0.402694 -0.0200047 -0.0341748 -0.383203 -0.028787 -0.0373825 -0.363218 
-0.0370833 -0.0403543 -0.342798 -0.0449191 -0.0430725 -0.321998 -0.0523627 -0.0455079 -0.300859 
-0.0595105 -0.0476201 -0.279403 -0.0664696 -0.0493603 -0.257634 -0.0733372 -0.050676 -0.235535 
-0.0801814 -0.0515177 -0.213074 -0.0870257 -0.0518452 -0.190205 -0.0938371 -0.0516352 -0.166882 
-0.100522 -0.0508855 -0.143063 -0.106931 -0.0496188 -0.118721 -0.112865 -0.0478828 -0.0938535 
-0.118096 -0.0457479 -0.0684861 -0.122386 -0.0433024 -0.0426791 -0.125508 -0.0406458 -0.0165267 
-0.127273 -0.0378804 0.00984498 -0.127545 -0.035103 0.0362836 -0.126255 -0.0323979 0.0626193 
-0.12341 -0.0298309 0.0886744 -0.119093 -0.0274458 0.114275 -0.113451 -0.0252639 0.139262 
-0.106685 -0.0232856 0.163501 -0.0990262 -0.0214949 0.186888 -0.0907182 -0.0198649 0.209358 
-0.0819939 -0.0183647 0.230884 -0.073057 -0.0169655 0.251476 -0.0640678 -0.0156464 0.271177 
-0.0551351 -0.0143981 0.290056 -0.0463144 -0.0132243 0.3082 -0.0376133 -0.0121418 0.325706 
-0.0290016 -0.0111776 0.342668 -0.0204254 -0.0103644 0.359176 -0.011823 -0.00973646 0.375305 
-0.00314064 -0.00932363 0.391112 0.00565493 -0.00914722 0.406635 0.0145671 -0.00921653 0.421895 
0.0235653 -0.0095272 0.436895 0.0325866 -0.0100614 0.451624 0.0415415 -0.0107895 0.466065 
0.0503236 -0.0116738 0.480194 0.0588218 -0.0126718 0.493987 0.066933 -0.0137412 0.50742 
0.0745728 -0.0148434 0.520473 0.0816847 -0.0159464 0.533126 0.0882439 -0.0170265 0.545363 
0.0942584 -0.0180683 0.557166 0.0997649 -0.0190634 0.568511 0.104822 -0.0200085 0.579373 
0.109501 -0.0209023 0.589718 0.113874 -0.0217425 0.599506 0.118006 -0.0225238 0.608691 
0.121948 -0.0232365 0.617223 0.125729 -0.0238664 0.625053 0.129357 -0.0243958 0.632138 
0.132819 -0.0248061 0.638445 0.136087 -0.0250808 0.643954 0.139123 -0.025209 0.648664 
0.141887 -0.0251883 0.652598 0.144345 -0.0250273 0.655795 0.146472 -0.0247464 0.658319 
0.148257 -0.0243774 0.660247 0.149703 -0.0239611 0.661669 0.150826 -0.023544 0.662678 
0.15165 -0.0231735 0.663365 0.152201 -0.0228934 0.663809 0.152502 -0.0227386 0.664071 
0.152573 -0.0227317 0.664191 
LINES 2 100
OFFSETS vtktypeint64
0 100 
CONNECTIVITY vtktypeint64
0 1 2 3 4 5 6 7 8 
9 10 11 12 13 14 15 16 17 
18 19 20 21 22 23 24 25 26 
27 28 29 30 31 32 33 34 35 
36 37 38 39 40 41 42 43 44 
45 46 47 48 49 50 51 52 53 
54 55 56 57 58 59 60 61 62 
63 64 65 66 67 68 69 70 71 
72 73 74 75 76 77 78 79 80 
81 82 83 84 85 86 87 88 89 
90 91 92 93 94 95 96 97 98 
99 
POINT_DATA 100
FIELD FieldData 3
_theta 1 100 double
0 0.031733259127 0.063466518254 0.095199777382 0.12693303651 0.15866629564 0.19039955476 0.22213281389 0.25386607302 
0.28559933214 0.31733259127 0.3490658504 0.38079910953 0.41253236865 0.44426562778 0.47599888691 0.50773214603 0.53946540516 
0.57119866429 0.60293192342 0.63466518254 0.66639844167 0.6981317008 0.72986495992 0.76159821905 0.79333147818 0.82506473731 
0.85679799643 0.88853125556 0.92026451469 0.95199777382 0.98373103294 1.0154642921 1.0471975512 1.0789308103 1.1106640695 
1.1423973286 1.1741305877 1.2058638468 1.237597106 1.2693303651 1.3010636242 1.3327968833 1.3645301425 1.3962634016 
1.4279966607 1.4597299198 1.491463179 1.5231964381 1.5549296972 1.5866629564 1.6183962155 1.6501294746 1.6818627337 
1.7135959929 1.745329252 1.7770625111 1.8087957702 1.8405290294 1.8722622885 1.9039955476 1.9357288068 1.9674620659 
1.999195325 2.0309285841 2.0626618433 2.0943951024 2.1261283615 2.1578616206 2.1895948798 2.2213281389 2.253061398 
2.2847946572 2.3165279163 2.3482611754 2.3799944345 2.4117276937 2.4434609528 2.4751942119 2.506927471 2.5386607302 
2.5703939893 2.6021272484 2.6338605076 2.6655937667 2.6973270258 2.7290602849 2.7607935441 2.7925268032 2.8242600623 
2.8559933214 2.8877265806 2.9194598397 2.9511930988 2.982926358 3.0146596171 3.0463928762 3.0781261353 3.1098593945 
3.1415926536 
_radius 1 100 double
1.238956946e-15 0.014972721296 0.029893643023 0.044710860646 0.059379102779 0.073859310273 0.088115143139 0.1021073865 0.11578783046 
0.12909418625 0.14194713307 0.15424999896 0.16589113223 0.1767487858 0.18669821956 0.19562059543 0.20341303891 0.20999900554 
0.21533789784 0.219432787 0.22233512464 0.22414549485 0.22500977514 0.22511056917 0.22465442246 0.22385602517 0.22292116694 
0.22203045771 0.22132568023 0.2209001615 0.22079395703 0.2209941735 0.22144046692 0.22203540981 0.22265875283 0.22318374332 
0.22349316846 0.2234930949 0.22312315827 0.22236305069 0.22123514787 0.21980321455 0.21816732281 0.21645572243 0.21481513038 
0.21340119168 0.21237026333 0.21187225113 0.21204277464 0.2129926561 0.21479438663 0.21746822015 0.22097282384 0.22520485289 
0.23000845959 0.23519209131 0.24054828788 0.24587257816 0.25097877337 0.25570924919 0.25994008713 0.26358203301 0.2665788059 
0.26890420019 0.27055882979 0.27156663151 0.27197073817 0.27182824587 0.27120371246 0.27016174367 0.26875949848 0.26704018082 
0.26502849376 0.26272862612 0.26012470135 0.25718296331 0.25385466226 0.25007887137 0.24578512349 0.24089633011 0.23533259982 
0.22901633236 0.22187852551 0.21386575941 0.20494690056 0.19511828569 0.18440612803 0.17286524067 0.16057389704 0.14762562172 
0.13411964034 0.12015218027 0.10581042065 0.091169741341 0.076293698359 0.061235558439 0.046040356662 0.030746905794 0.015389592607 
1.3053820195e-15 
_area 1 100 double
0 0.00055066080209 0.002200466614 0.0049431954811 0.0087683686732 0.013658153526 0.019580018019 0.026476450835 0.034255426958 
0.04278553698 0.051897591666 0.061391421487 0.07104440977 0.08061846191 0.08986476688 0.098529107383 0.10636182792 0.11313459183 
0.11866234479 0.12282606726 0.12559114238 0.12701708027 0.12725597005 0.12653788538 0.12513891702 0.12332869251 0.12132750274 
0.11931481059 0.11745941365 0.11593329061 0.11490755577 0.11457001355 0.11504063227 0.11613159831 0.11761892556 0.11909102273 
0.12030454586 0.12110540904 0.12142354447 0.12126872364 0.12073060027 0.11998769726 0.11941621501 0.11916339636 0.11918301841 
0.11935902798 0.11965760126 0.12014457895 0.12100097903 0.12249718127 0.12491571968 0.12846155621 0.13321861674 0.13914974412 
0.14610686473 0.15384315691 0.16203200094 0.17029585202 0.17824373234 0.18551217337 0.19180218749 0.19690503564 0.20071235162 
0.20321082214 0.20446613705 0.20460252884 0.20378149243 0.20217888685 0.19995907312 0.19724985518 0.19412685158 0.19061347991 
0.18669503291 0.18234003786 0.17752126275 0.17222934304 0.1664733858 0.16026738046 0.15360891942 0.14646309703 0.13876399977 
0.13043716458 0.12143462627 0.11176834526 0.10153035389 0.090894377111 0.080099255493 0.069418066893 0.059119272467 0.049428352205 
0.040500211867 0.032412365927 0.025182949425 0.01880531948 0.013281237412 0.008638024044 0.004927568969 0.0022139102813 0.00055727328191 
4.4898626392e-17 
