# vtk DataFile Version 5.1
vtk output
ASCII
DATASET POLYDATA
POINTS 100 float
0.163618 0.0733209 -0.644751 0.163597 0.0732831 -0.644407 0.163511 0.0729685 -0.643341 
0.163323 0.0723773 -0.641563 0.162978 0.0715095 -0.63909 0.162406 0.0703616 -0.635948 
0.161536 0.0689247 -0.632171 0.160293 0.0671814 -0.627798 0.158617 0.0651053 -0.622877 
0.156459 0.0626602 -0.617456 0.153787 0.0598021 -0.611582 0.150587 0.0564829 -0.605296 
0.14686 0.0526551 -0.598627 0.142615 0.0482787 -0.591588 0.137871 0.0433276 -0.584174 
0.132644 0.0377966 -0.576355 0.126948 0.0317066 -0.568083 0.12079 0.0251086 -0.559289 
0.114172 0.0180847 -0.549893 0.107089 0.0107466 -0.539806 0.0995371 0.00323082 -0.528943 
0.0915146 -0.00430866 -0.517232 0.0830302 -0.0117095 -0.50462 0.074106 -0.0188116 -0.491079 
0.064781 -0.0254683 -0.476614 0.0551116 -0.0315557 -0.461262 0.0451695 -0.0369812 -0.445085 
0.0350371 -0.0416887 -0.42817 0.0248007 -0.0456603 -0.410617 0.0145427 -0.0489151 -0.392527 
0.00433456 -0.0515041 -0.373994 -0.00576997 -0.0535024 -0.355091 -0.0157379 -0.0549995 -0.335865 
-0.0255573 -0.0560884 -0.316332 -0.0352332 -0.056855 -0.296476 -0.0447804 -0.0573687 -0.276252 
-0.0542132 -0.0576755 -0.255595 -0.0635334 -0.057794 -0.234428 -0.0727191 -0.0577148 -0.212675 
-0.081714 -0.0574035 -0.190275 -0.0904223 -0.0568068 -0.167193 -0.0987065 -0.0558608 -0.143426 
-0.106392 -0.0545012 -0.119011 -0.113277 -0.0526734 -0.0940232 -0.119147 -0.0503422 -0.0685753 
-0.123795 -0.0474995 -0.0428089 -0.127037 -0.0441692 -0.0168847 -0.128737 -0.0404092 0.00902887 
-0.128817 -0.0363101 0.0347673 -0.127271 -0.0319898 0.0601804 -0.124168 -0.0275863 0.0851405 
-0.11965 -0.0232479 0.109547 -0.113916 -0.0191223 0.133329 -0.107213 -0.0153463 0.156441 
-0.0998074 -0.0120353 0.17886 -0.0919633 -0.00927625 0.20058 -0.083922 -0.00712145 0.221605 
-0.0758803 -0.00558681 0.24194 -0.0679774 -0.00465229 0.261593 -0.0602876 -0.00426559 0.280567 
-0.0528216 -0.00434813 0.298864 -0.0455347 -0.00480283 0.316488 -0.0383421 -0.00552285 0.333447 
-0.0311371 -0.00640042 0.349762 -0.0238128 -0.00733501 0.36547 -0.0162814 -0.00824007 0.380629 
-0.00849146 -0.00904801 0.395313 -0.000438423 -0.00971297 0.409616 0.00783064 -0.0102114 0.423644 
0.01622 -0.0105406 0.437502 0.0245946 -0.0107155 0.451289 0.0327949 -0.0107646 0.465082 
0.0406545 -0.0107245 0.478928 0.0480191 -0.0106351 0.492834 0.0547634 -0.0105346 0.506763 
0.0608039 -0.0104559 0.520633 0.0661071 -0.0104233 0.534323 0.0706905 -0.0104514 0.547685 
0.0746175 -0.0105444 0.560551 0.0779872 -0.0106971 0.572756 0.08092 -0.0108967 0.584148 
0.0835415 -0.0111249 0.594608 0.0859666 -0.0113606 0.60406 0.0882867 -0.0115825 0.612476 
0.09056 -0.0117715 0.619881 0.0928082 -0.0119122 0.626347 0.0950177 -0.0119944 0.631983 
0.0971468 -0.0120136 0.636922 0.0991353 -0.0119709 0.641307 0.100918 -0.0118723 0.645271 
0.102436 -0.0117279 0.648926 0.103648 -0.0115509 0.652347 0.10454 -0.0113561 0.655571 
0.105125 -0.0111586 0.658592 0.105443 -0.0109733 0.661366 0.105555 -0.0108137 0.663822 
0.105534 -0.0106914 0.665872 0.105451 -0.0106158 0.66743 0.10537 -0.0105936 0.668421 
0.10533 -0.0106294 0.668793 
LINES 2 100
OFFSETS vtktypeint64
0 100 
CONNECTIVITY vtktypeint64
0 1 2 3 4 5 6 7 8 
9 10 11 12 13 14 15 16 17 
18 19 20 21 22 23 24 25 26 
27 28 29 30 31 32 33 34 35 
36 37 38 39 40 41 42 43 44 
45 46 47 48 49 50 51 52 53 
54 55 56 57 58 59 60 61 62 
63 64 65 66 67 68 69 70 71 
72 73 74 75 76 77 78 79 80 
81 82 83 84 85 86 87 88 89 
90 91 92 93 94 95 96 97 98 
99 
POINT_DATA 100
FIELD FieldData 3
_theta 1 100 double
0 0.031733259127 0.063466518254 0.095199777382 0.12693303651 0.15866629564 0.19039955476 0.22213281389 0.25386607302 
0.28559933214 0.31733259127 0.3490658504 0.38079910953 0.41253236865 0.44426562778 0.47599888691 0.50773214603 0.53946540516 
0.57119866429 0.60293192342 0.63466518254 0.66639844167 0.6981317008 0.72986495992 0.76159821905 0.79333147818 0.82506473731 
0.85679799643 0.88853125556 0.92026451469 0.95199777382 0.98373103294 1.0154642921 1.0471975512 1.0789308103 1.1106640695 
1.1423973286 1.1741305877 1.2058638468 1.237597106 1.2693303651 1.3010636242 1.3327968833 1.3645301425 1.3962634016 
1.4279966607 1.4597299198 1.491463179 1.5231964381 1.5549296972 1.5866629564 1.6183962155 1.6501294746 1.6818627337 
1.7135959929 1.745329252 1.7770625111 1.8087957702 1.8405290294 1.8722622885 1.9039955476 1.9357288068 1.9674620659 
1.999195325 2.0309285841 2.0626618433 2.0943951024 2.1261283615 2.1578616206 2.1895948798 2.2213281389 2.253061398 
2.2847946572 2.3165279163 2.3482611754 2.3799944345 2.4117276937 2.4434609528 2.4751942119 2.506927471 2.5386607302 
2.5703939893 2.6021272484 2.6338605076 2.6655937667 2.6973270258 2.7290602849 2.7607935441 2.7925268032 2.8242600623 
2.8559933214 2.8877265806 2.9194598397 2.9511930988 2.982926358 3.0146596171 3.0463928762 3.0781261353 3.1098593945 
3.1415926536 
_radius 1 100 double
1.0236691276e-15 0.015017390958 0.029969222617 0.044790864131 0.059426077146 0.073826249603 0.087945670472 0.10173423762 0.11512995067 
0.12805363455 0.14040759775 0.1520787329 0.1629454245 0.17288691026 0.1817935541 0.18957670482 0.19617720909 0.20157201708 
0.20577854641 0.20885653649 0.21090709119 0.21206858969 0.21250926799 0.21241661492 0.21198425597 0.21139755913 0.2108195579 
0.21037877401 0.21016014776 0.21019977661 0.21048381997 0.21095186473 0.21150506405 0.21201909462 0.21236122478 0.2124097335 
0.21207301175 0.21130530047 0.21011630795 0.20857286074 0.20679220835 0.2049285358 0.2031562768 0.20165501874 0.20059982904 
0.20015729134 0.20048322191 0.20171607386 0.20396218741 0.20727432725 0.21163043485 0.21692178209 0.22295682137 0.22948059408 
0.23620391075 0.24283477014 0.24910617156 0.25479722633 0.25974662207 0.26385869529 0.26710291246 0.26950776534 0.27115016135 
0.2721414661 0.27261151411 0.2726921418 0.27250200324 0.2721344181 0.27164960935 0.27107189539 0.27039139339 0.26956890552 
0.26854223744 0.26723240106 0.26554886643 0.26339389385 0.26066657968 0.25726733875 0.25310316444 0.24809341608 0.24217538856 
0.23530871812 0.22747781172 0.21869188177 0.20898268971 0.19840060341 0.18700989778 0.17488425154 0.16210308851 0.14874890976 
0.1349053076 0.12065515112 0.10607853343 0.091250359253 0.076237766141 0.061097797999 0.04587583832 0.030605257998 0.015308555494 
1.0750896417e-15 
_area 1 100 double
0 0.00061603697046 0.0024443721035 0.0054305599558 0.0094977389963 0.01456006532 0.020530126737 0.02731591612 0.034808579575 
0.042867416601 0.051310012613 0.059912353486 0.068418999113 0.076560003874 0.084070482666 0.090709886799 0.096279762243 0.10063970564 
0.10372085804 0.10553505974 0.10617670069 0.10581419239 0.10467024349 0.1029962134 0.10105093847 0.099090032961 0.097365760271 
0.096090608526 0.095341357082 0.095092200647 0.095345328765 0.096119293709 0.097424893619 0.099205726695 0.10130351459 0.10352508104 
0.10569023739 0.10763889703 0.10925442452 0.11047867945 0.11130950668 0.11179464017 0.11204769183 0.11218190831 0.11227345926 
0.1124556638 0.1131130615 0.11461362094 0.1172576923 0.12117284091 0.12650928057 0.13327954083 0.14129754144 0.15020609891 
0.1595382278 0.16878236952 0.17744064997 0.18507696014 0.19135358106 0.19605538025 0.19910090979 0.20054016727 0.20053925302 
0.19935318936 0.19728975297 0.19466663328 0.19176038312 0.18875947569 0.18576020627 0.18279738694 0.17987442078 0.17698124049 
0.17409931859 0.17119415664 0.16820026467 0.16500861511 0.16146639475 0.15739289671 0.15260785429 0.14696374753 0.14037293144 
0.1328229248 0.12437709278 0.1151617636 0.10534411707 0.095108150326 0.084637596199 0.074111600966 0.063710255598 0.053619744329 
0.044028919151 0.035117431675 0.027041332392 0.019922281782 0.01384367169 0.0088537647823 0.0049737316798 0.0022075849296 0.00055136412192 
7.0865593184e-17 
