# vtk DataFile Version 5.1
vtk output
ASCII
DATASET POLYDATA
POINTS 100 float
0.131728 0.0539772 -0.685281 0.13142 0.0541519 -0.68545 0.130603 0.0544761 -0.685952 
0.12935 0.054892 -0.686664 0.127772 0.0553101 -0.687396 0.125997 0.0556188 -0.687909 
0.124155 0.0556949 -0.687942 0.122355 0.0554163 -0.687239 0.120672 0.0546733 -0.685568 
0.119124 0.0533779 -0.68275 0.117675 0.0514705 -0.678665 0.116229 0.0489237 -0.67326 
0.114639 0.0457414 -0.666548 0.112723 0.0419558 -0.658594 0.110285 0.0376216 -0.649502 
0.107133 0.0328084 -0.639392 0.103106 0.0275933 -0.628385 0.0980966 0.0220544 -0.616582 
0.0920588 0.0162654 -0.60405 0.0850227 0.0102931 -0.590817 0.0770913 0.00419746 -0.576872 
0.0684331 -0.00196657 -0.562168 0.059266 -0.00814508 -0.546638 0.0498367 -0.0142807 -0.530208 
0.0403956 -0.020308 -0.51281 0.0311729 -0.0261506 -0.494401 0.022356 -0.0317195 -0.474971 
0.0140725 -0.0369146 -0.454552 0.00638036 -0.0416286 -0.433215 -0.000734022 -0.0457529 -0.411062 
-0.0073495 -0.0491857 -0.388221 -0.0135961 -0.0518407 -0.364828 -0.0196355 -0.0536546 -0.341013 
-0.0256374 -0.0545948 -0.316882 -0.0317557 -0.0546626 -0.292516 -0.038106 -0.0538953 -0.267954 
-0.0447484 -0.0523633 -0.243202 -0.0516753 -0.0501654 -0.218233 -0.0588084 -0.0474206 -0.193002 
-0.0660024 -0.0442587 -0.167459 -0.0730563 -0.0408102 -0.141564 -0.0797315 -0.0371973 -0.115303 
-0.0857727 -0.0335257 -0.0887017 -0.0909314 -0.02988 -0.0618266 -0.0949883 -0.0263215 -0.0347912 
-0.0977723 -0.0228893 -0.00774786 -0.0991748 -0.0196044 0.0191231 -0.0991578 -0.0164753 0.0456292 
-0.0977551 -0.0135048 0.0715837 -0.0950664 -0.0106971 0.0968238 -0.0912469 -0.00806317 0.121226 
-0.0864913 -0.0056248 0.144719 -0.0810163 -0.0034155 0.167287 -0.0750423 -0.00147915 0.188969 
-0.068776 0.000133858 0.209852 -0.0623971 0.00137241 0.230061 -0.0560477 0.00219127 0.249737 
-0.0498278 0.00255773 0.269022 -0.0437943 0.00245703 0.288044 -0.0379652 0.00189591 0.306899 
-0.0323269 0.000903675 0.325642 -0.026844 -0.000469587 0.344285 -0.0214694 -0.00215726 0.362798 
-0.0161549 -0.0040825 0.381115 -0.0108597 -0.00616574 0.399146 -0.00555745 -0.00833238 0.416792 
-0.00023955 -0.0105196 0.433959 0.00508343 -0.0126814 0.45057 0.0103835 -0.0147915 0.466575 
0.0156186 -0.0168432 0.481956 0.0207382 -0.0188467 0.496729 0.0256879 -0.0208244 0.510937 
0.030416 -0.0228044 0.524645 0.0348773 -0.024814 0.537927 0.0390368 -0.026873 0.550855 
0.0428717 -0.0289891 0.563491 0.0463714 -0.0311545 0.575874 0.0495367 -0.0333463 0.588019 
0.0523775 -0.035528 0.599914 0.05491 -0.037654 0.611524 0.057154 -0.0396753 0.622797 
0.0591299 -0.041546 0.633671 0.0608567 -0.0432294 0.644084 0.0623505 -0.044703 0.653982 
0.0636242 -0.0459608 0.663325 0.0646878 -0.0470148 0.672094 0.0655495 -0.0478924 0.680286 
0.0662171 -0.0486325 0.687915 0.0666999 -0.04928 0.695003 0.0670101 -0.0498793 0.701579 
0.067164 -0.0504681 0.707663 0.0671828 -0.0510722 0.713267 0.0670922 -0.0517024 0.718386 
0.0669216 -0.0523529 0.722996 0.0667032 -0.0530033 0.727059 0.0664694 -0.0536217 0.73052 
0.0662507 -0.05417 0.73332 0.066074 -0.0546101 0.735401 0.0659597 -0.0549096 0.736712 
0.0659204 -0.0550471 0.737219 
LINES 2 100
OFFSETS vtktypeint64
0 100 
CONNECTIVITY vtktypeint64
0 1 2 3 4 5 6 7 8 
9 10 11 12 13 14 15 16 17 
18 19 20 21 22 23 24 25 26 
27 28 29 30 31 32 33 34 35 
36 37 38 39 40 41 42 43 44 
45 46 47 48 49 50 51 52 53 
54 55 56 57 58 59 60 61 62 
63 64 65 66 67 68 69 70 71 
72 73 74 75 76 77 78 79 80 
81 82 83 84 85 86 87 88 89 
90 91 92 93 94 95 96 97 98 
99 
POINT_DATA 100
FIELD FieldData 3
_theta 1 100 double
0 0.031733259127 0.063466518254 0.095199777382 0.12693303651 0.15866629564 0.19039955476 0.22213281389 0.25386607302 
0.28559933214 0.31733259127 0.3490658504 0.38079910953 0.41253236865 0.44426562778 0.47599888691 0.50773214603 0.53946540516 
0.57119866429 0.60293192342 0.63466518254 0.66639844167 0.6981317008 0.72986495992 0.76159821905 0.79333147818 0.82506473731 
0.85679799643 0.88853125556 0.92026451469 0.95199777382 0.98373103294 1.0154642921 1.0471975512 1.0789308103 1.1106640695 
1.1423973286 1.1741305877 1.2058638468 1.237597106 1.2693303651 1.3010636242 1.3327968833 1.3645301425 1.3962634016 
1.4279966607 1.4597299198 1.491463179 1.5231964381 1.5549296972 1.5866629564 1.6183962155 1.6501294746 1.6818627337 
1.7135959929 1.745329252 1.7770625111 1.8087957702 1.8405290294 1.8722622885 1.9039955476 1.9357288068 1.9674620659 
1.999195325 2.0309285841 2.0626618433 2.0943951024 2.1261283615 2.1578616206 2.1895948798 2.2213281389 2.253061398 
2.2847946572 2.3165279163 2.3482611754 2.3799944345 2.4117276937 2.4434609528 2.4751942119 2.506927471 2.5386607302 
2.5703939893 2.6021272484 2.6338605076 2.6655937667 2.6973270258 2.7290602849 2.7607935441 2.7925268032 2.8242600623 
2.8559933214 2.8877265806 2.9194598397 2.9511930988 2.982926358 3.0146596171 3.0463928762 3.0781261353 3.1098593945 
3.1415926536 
_radius 1 100 double
8.0613703022e-16 0.01560591632 0.031091762667 0.046341137815 0.061246401378 0.075710618847 0.089646805027 0.10297450859 0.11561494197 
0.12748657245 0.13850293995 0.14857363239 0.15760834434 0.16552319915 0.17224818418 0.17773459387 0.18196171656 0.1849425169 
0.18672847805 0.18741368781 0.18713751974 0.18608426673 0.18447759348 0.18256824939 0.18061508938 0.17886154024 0.17751144834 
0.17670898989 0.17652655716 0.17696242459 0.17794741013 0.17935783908 0.18103173289 0.18278629646 0.18443647176 0.18581505338 
0.18679381357 0.18730302538 0.18734532244 0.1869999984 0.18641561945 0.18579168068 0.18535309365 0.1853231328 0.18589985278 
0.18723833376 0.18943858607 0.19253825345 0.19650995521 0.20126361938 0.20665375353 0.21249095253 0.2185570005 0.22462344263 
0.23047307029 0.23592185714 0.24083716265 0.24514828316 0.24884741627 0.25198137318 0.25463603549 0.2569165004 0.25892621662 
0.26074826063 0.2624312914 0.26398175285 0.26536276043 0.26649904865 0.26728657607 0.2676049869 0.26733109135 0.2663517381 
0.26457477295 0.26193711182 0.2584092776 0.25399609573 0.24873365016 0.24268305987 0.23592207199 0.22853577225 0.22060778852 
0.21221316543 0.20341364735 0.19425552613 0.18476963874 0.1749727056 0.16486911645 0.15445255124 0.14370737846 0.13261035031 
0.12113337241 0.1092478436 0.096930356756 0.084168855775 0.070968068961 0.057353253126 0.043371733065 0.029092125 0.014601386775 
1.8375138088e-15 
_area 1 100 double
0 0.00059313117887 0.002381120814 0.0053795693472 0.009586631488 0.014957048863 0.021384560579 0.028696212602 0.036657940506 
0.044989207873 0.053383861863 0.061534155956 0.069154889599 0.076004340617 0.081897864916 0.086709579375 0.090360402857 0.09279984331 
0.093998188947 0.093960452022 0.092754689692 0.090536196239 0.087554755967 0.084148869277 0.080768531219 0.077986327788 0.075997205028 
0.074836068059 0.074523886385 0.075018648753 0.076216427811 0.077973424044 0.080129521423 0.08249882413 0.084882982911 0.087250222603 
0.089376071203 0.091185609071 0.092653320417 0.093824203609 0.094789327064 0.095651357648 0.096508173801 0.097454122192 0.098594333867 
0.10006779761 0.10209315416 0.10494753948 0.10866369481 0.11336813568 0.11913125303 0.12590232501 0.13348581615 0.14155889779 
0.14972120856 0.157560244 0.1647186177 0.17094792753 0.17613659938 0.1803081384 0.18359521845 0.1861986209 0.18833541037 
0.19017557856 0.19178824156 0.19314081416 0.19414179829 0.19467952874 0.19464066494 0.19391530324 0.19239699244 0.1899836965 
0.18658373259 0.18212782898 0.17658477051 0.16997556815 0.1623812449 0.15394126471 0.14484193016 0.13529663034 0.12552214587 
0.11571600379 0.10603890153 0.096604712762 0.087479402076 0.078688452495 0.070229560976 0.062085820769 0.054236690411 0.04666751011 
0.039379414061 0.032399517375 0.025788581212 0.0196427492 0.014087922429 0.0092680161406 0.0053298436872 0.0024074186394 0.00060780735339 
2.2551405188e-17 
