# vtk DataFile Version 5.1
vtk output
ASCII
DATASET POLYDATA
POINTS 100 float
0.177244 0.0780454 -0.678175 0.177389 0.0782074 -0.678185 0.177853 0.0784747 -0.678226 
0.178579 0.0787929 -0.678227 0.179479 0.0790766 -0.678077 0.180431 0.0792174 -0.677634 
0.181291 0.0790933 -0.676744 0.1819 0.0785788 -0.675247 0.182088 0.0775553 -0.672998 
0.18169 0.0759206 -0.669876 0.180553 0.0735958 -0.665794 0.178543 0.0705303 -0.660705 
0.175558 0.0667047 -0.654601 0.171532 0.0621297 -0.647513 0.16644 0.0568446 -0.639498 
0.160302 0.0509123 -0.630636 0.153178 0.0444155 -0.621011 0.145168 0.0374505 -0.610704 
0.136402 0.0301229 -0.599778 0.127035 0.0225431 -0.588272 0.117232 0.0148237 -0.576196 
0.107156 0.00707688 -0.563527 0.09696 -0.000586782 -0.550214 0.0867757 -0.00805923 -0.536184 
0.0767031 -0.0152359 -0.521349 0.0668076 -0.0220172 -0.505621 0.0571178 -0.02831 -0.488919 
0.0476274 -0.0340307 -0.47118 0.0383012 -0.0391081 -0.452368 0.0290834 -0.0434872 -0.43248 
0.0199082 -0.0471324 -0.411544 0.010712 -0.0500304 -0.389618 0.00144488 -0.0521911 -0.366787 
-0.00791852 -0.0536483 -0.343154 -0.017371 -0.0544565 -0.318825 -0.0268676 -0.0546876 -0.293911 
-0.0363241 -0.0544248 -0.268507 -0.0456196 -0.0537555 -0.242697 -0.0546024 -0.0527645 -0.216542 
-0.0630992 -0.0515261 -0.190087 -0.0709265 -0.050099 -0.16336 -0.0779032 -0.0485223 -0.136381 
-0.0838628 -0.046814 -0.109168 -0.0886652 -0.0449721 -0.081747 -0.0922058 -0.0429792 -0.0541618 
-0.0944218 -0.0408076 -0.0264782 -0.095296 -0.0384274 0.00121124 -0.0948555 -0.0358144 0.0287874 
-0.0931691 -0.0329568 0.0561081 -0.0903405 -0.0298619 0.0830161 -0.0865002 -0.026559 0.109349 
-0.081796 -0.0231003 0.134951 -0.0763832 -0.0195591 0.159686 -0.0704156 -0.0160245 0.18345 
-0.0640375 -0.0125947 0.206178 -0.0573778 -0.0093685 0.227851 -0.0505462 -0.00643714 0.248498 
-0.0436314 -0.0038762 0.268189 -0.0367014 -0.00173969 0.28703 -0.0298056 -5.6326e-05 0.305153 
-0.0229783 0.00117141 0.322697 -0.0162423 0.00196549 0.3398 -0.00961295 0.00236813 0.356581 
-0.00310251 0.00243589 0.373132 0.00327717 0.0022328 0.389507 0.00951218 0.00182367 0.405726 
0.0155852 0.00126819 0.421768 0.0214754 0.000616823 0.437587 0.0271583 -9.13619e-05 0.453114 
0.0326076 -0.000828593 0.468273 0.0377957 -0.00157642 0.482996 0.042696 -0.00232233 0.49723 
0.0472837 -0.00305572 0.510947 0.0515371 -0.00376403 0.524154 0.0554385 -0.00442989 0.536885 
0.0589744 -0.00502981 0.549205 0.0621359 -0.00553484 0.561194 0.0649183 -0.00591316 0.572939 
0.067321 -0.00613434 0.584519 0.069347 -0.00617457 0.595991 0.0710029 -0.00602211 0.607376 
0.0722986 -0.00568193 0.618654 0.0732475 -0.00517872 0.629758 0.0738662 -0.00455757 0.640578 
0.0741753 -0.0038819 0.650965 0.074199 -0.00322865 0.66075 0.0739656 -0.00268105 0.669753 
0.0735075 -0.00231981 0.677809 0.0728609 -0.00221372 0.684782 0.0720651 -0.00241078 0.690581 
0.0711621 -0.00293117 0.695175 0.0701958 -0.00376288 0.698595 0.0692104 -0.00486092 0.700937 
0.0682492 -0.00615025 0.702351 0.0673538 -0.00753226 0.703031 0.0665619 -0.0088943 0.703194 
0.0659066 -0.010121 0.703057 0.065415 -0.0111065 0.70282 0.0651071 -0.0117655 0.702641 
0.0649953 -0.0120426 0.702621 
LINES 2 100
OFFSETS vtktypeint64
0 100 
CONNECTIVITY vtktypeint64
0 1 2 3 4 5 6 7 8 
9 10 11 12 13 14 15 16 17 
18 19 20 21 22 23 24 25 26 
27 28 29 30 31 32 33 34 35 
36 37 38 39 40 41 42 43 44 
45 46 47 48 49 50 51 52 53 
54 55 56 57 58 59 60 61 62 
63 64 65 66 67 68 69 70 71 
72 73 74 75 76 77 78 79 80 
81 82 83 84 85 86 87 88 89 
90 91 92 93 94 95 96 97 98 
99 
POINT_DATA 100
FIELD FieldData 3
_theta 1 100 double
0 0.031733259127 0.063466518254 0.095199777382 0.12693303651 0.15866629564 0.19039955476 0.22213281389 0.25386607302 
0.28559933214 0.31733259127 0.3490658504 0.38079910953 0.41253236865 0.44426562778 0.47599888691 0.50773214603 0.53946540516 
0.57119866429 0.60293192342 0.63466518254 0.66639844167 0.6981317008 0.72986495992 0.76159821905 0.79333147818 0.82506473731 
0.85679799643 0.88853125556 0.92026451469 0.95199777382 0.98373103294 1.0154642921 1.0471975512 1.0789308103 1.1106640695 
1.1423973286 1.1741305877 1.2058638468 1.237597106 1.2693303651 1.3010636242 1.3327968833 1.3645301425 1.3962634016 
1.4279966607 1.4597299198 1.491463179 1.5231964381 1.5549296972 1.5866629564 1.6183962155 1.6501294746 1.6818627337 
1.7135959929 1.745329252 1.7770625111 1.8087957702 1.8405290294 1.8722622885 1.9039955476 1.9357288068 1.9674620659 
1.999195325 2.0309285841 2.0626618433 2.0943951024 2.1261283615 2.1578616206 2.1895948798 2.2213281389 2.253061398 
2.2847946572 2.3165279163 2.3482611754 2.3799944345 2.4117276937 2.4434609528 2.4751942119 2.506927471 2.5386607302 
2.5703939893 2.6021272484 2.6338605076 2.6655937667 2.6973270258 2.7290602849 2.7607935441 2.7925268032 2.8242600623 
2.8559933214 2.8877265806 2.9194598397 2.9511930988 2.982926358 3.0146596171 3.0463928762 3.0781261353 3.1098593945 
3.1415926536 
_radius 1 100 double
6.3048548002e-16 0.016758824011 0.033384183304 0.049740752273 0.065698796056 0.081136992141 0.09594476848 0.11002381286 0.12328860133 
0.13566611261 0.14709518213 0.15752606503 0.1669206726 0.17525367908 0.18251438147 0.18870894423 0.1938625297 0.19802079873 
0.20125033404 0.20363766795 0.20528677932 0.20631514764 0.20684866402 0.20701581741 0.20694153784 0.20674091558 0.20651287406 
0.2063339628 0.20625285667 0.20628672784 0.20642094516 0.20661316452 0.20680188382 0.20691844741 0.20690071841 0.20670628479 
0.20632308077 0.2057756902 0.20512636806 0.20447089414 0.20393051711 0.2036420289 0.203747953 0.20438777314 0.20568956295 
0.20776033686 0.21067388746 0.21445693172 0.21907698185 0.22443665039 0.23037783528 0.2366959643 0.24316121836 0.24954209906 
0.25562706367 0.26124134287 0.2662575581 0.27059992198 0.27424257843 0.27720308942 0.27953227073 0.2813015985 0.28258938524 
0.28346702078 0.28398685477 0.28417355779 0.28402059167 0.28349245018 0.28253190968 0.28107040953 0.27903936274 0.27638055217 
0.27305435972 0.2690450969 0.26436309636 0.25904354972 0.25314238932 0.2467297978 0.23988214422 0.2326732533 0.22516592506 
0.21740457118 0.2094097543 0.20117529766 0.19266843213 0.18383312245 0.1745962804 0.16487611731 0.15459154024 0.14367135788 
0.13206216774 0.11973410452 0.10668404907 0.092936323467 0.078541242521 0.063572104315 0.048121269429 0.032295916903 0.016213909962 
4.8727177892e-16 
_area 1 100 double
0 0.00064345880434 0.0025794809872 0.0058178154387 0.010352272701 0.01613393011 0.023048014901 0.030903681251 0.03943942031 
0.048340834833 0.057265343717 0.06586911447 0.073833041488 0.080885670261 0.086821464502 0.091513131382 0.094917223464 0.097072952161 
0.098094868431 0.098160552991 0.097494512166 0.096349012578 0.094981868123 0.093631131498 0.092488805286 0.091680428016 0.091259956833 
0.091222980705 0.091529944445 0.092124819766 0.092945530648 0.093934766902 0.095050129943 0.096262346007 0.097537690089 0.098835341695 
0.10012972038 0.1014275789 0.10276644674 0.10420084149 0.10578853666 0.10758667836 0.10966149394 0.11211584254 0.11513334532 
0.11888602813 0.12338704748 0.12868401045 0.13487010853 0.14200092456 0.15003602981 0.15882411352 0.16812081273 0.17761932545 
0.18698361201 0.19588119081 0.20401490787 0.21115360853 0.21716040931 0.22201606089 0.22583421041 0.2288486247 0.2313021622 
0.23326085814 0.23460918519 0.23518751759 0.23486290001 0.23354275774 0.23117587936 0.22774967879 0.22328219267 0.2178092648 
0.21137332714 0.20402130794 0.19581408593 0.18684210493 0.17723701011 0.16717097411 0.15684191699 0.14644930723 0.13616833519 
0.12612955292 0.11640782887 0.10702078294 0.097935369953 0.089082533989 0.080379865728 0.071757796043 0.063181221569 0.054661376942 
0.046258458773 0.038077972896 0.030262971698 0.022983123238 0.016421368588 0.010759472012 0.0061642102399 0.0027757946695 0.00069942406602 
1.2576843815e-17 
