# vtk DataFile Version 5.1
vtk output
ASCII
DATASET POLYDATA
POINTS 100 float
0.085971 0.0538942 -0.590076 0.085794 0.0537622 -0.589768 0.0852541 0.0532141 -0.588881 
0.0843517 0.0523118 -0.5874 0.0830868 0.0511468 -0.585302 0.081458 0.0498252 -0.582558 
0.0794613 0.0484492 -0.579137 0.0770884 0.0470995 -0.575009 0.0743266 0.0458192 -0.570149 
0.0711581 0.0446034 -0.564541 0.0675606 0.0433953 -0.558176 0.0635087 0.0420898 -0.551057 
0.0589762 0.0405444 -0.543193 0.0539392 0.0385962 -0.534603 0.0483793 0.0360831 -0.525309 
0.0422871 0.032866 -0.515337 0.0356657 0.0288495 -0.504709 0.0285329 0.0239982 -0.493446 
0.0209233 0.0183464 -0.481562 0.0128879 0.0120003 -0.469066 0.00449333 0.00513095 -0.455959 
-0.00418079 -0.00203976 -0.442237 -0.0130459 -0.00925896 -0.427892 -0.0220093 -0.0162666 -0.412915 
-0.0309791 -0.0228196 -0.397295 -0.0398699 -0.0287138 -0.381025 -0.0486069 -0.0338012 -0.3641 
-0.0571294 -0.0380001 -0.346522 -0.0653928 -0.0412976 -0.328296 -0.0733682 -0.0437442 -0.309435 
-0.0810407 -0.0454413 -0.289958 -0.0884058 -0.0465244 -0.269887 -0.0954637 -0.0471422 -0.249253 
-0.102214 -0.0474369 -0.228092 -0.10865 -0.0475267 -0.206447 -0.114751 -0.0474924 -0.184367 
-0.120481 -0.047371 -0.161913 -0.125785 -0.047155 -0.139154 -0.13059 -0.0467987 -0.116169 
-0.134805 -0.0462288 -0.0930488 -0.138329 -0.0453598 -0.0698931 -0.141056 -0.0441085 -0.046809 
-0.142886 -0.0424096 -0.0239079 -0.143731 -0.0402263 -0.001301 -0.143525 -0.0375585 0.0209056 
-0.14223 -0.0344441 0.0426162 -0.139846 -0.0309559 0.0637505 -0.136408 -0.0271945 0.0842478 
-0.131988 -0.0232769 0.10407 -0.126689 -0.019325 0.123203 -0.120643 -0.0154535 0.141657 
-0.113996 -0.0117599 0.15946 -0.106902 -0.00831833 0.17666 -0.0995099 -0.0051764 0.193315 
-0.0919523 -0.00235663 0.209487 -0.0843387 0.000139196 0.225237 -0.0767485 0.00232308 0.240621 
-0.0692277 0.00421312 0.255684 -0.0617897 0.00582615 0.270457 -0.0544187 0.00717228 0.284959 
-0.047076 0.00825198 0.299195 -0.039709 0.00905636 0.313164 -0.0322606 0.00957035 0.326857 
-0.0246791 0.00977815 0.340265 -0.0169265 0.00966993 0.353382 -0.00898583 0.00924836 0.36621 
-0.000864838 0.00853374 0.378755 0.00740289 0.00756658 0.391034 0.0157599 0.00640693 0.403068 
0.0241295 0.00513033 0.41488 0.0324229 0.0038207 0.426489 0.0405473 0.00256114 0.437908 
0.0484143 0.00142398 0.449137 0.0559479 0.000461557 0.460159 0.0630907 -0.000300763 0.470941 
0.0698079 -0.000868125 0.481431 0.0760895 -0.00127552 0.491566 0.0819483 -0.0015828 0.501271 
0.087417 -0.0018658 0.51047 0.0925428 -0.00220482 0.51909 0.0973804 -0.00267186 0.527073 
0.101985 -0.00331851 0.53438 0.106407 -0.0041663 0.540993 0.110684 -0.00520096 0.546924 
0.114841 -0.00637163 0.552208 0.118884 -0.00759537 0.556903 0.122805 -0.00876656 0.561083 
0.126581 -0.00977011 0.564831 0.130181 -0.0104967 0.56823 0.133566 -0.0108581 0.571353 
0.136698 -0.0108007 0.574258 0.139543 -0.0103147 0.57698 0.142071 -0.00943815 0.579532 
0.144263 -0.00825527 0.5819 0.146108 -0.00688816 0.584051 0.147603 -0.00548385 0.585936 
0.148753 -0.00419769 0.587499 0.149563 -0.00317526 0.588685 0.150041 -0.00253519 0.589446 
0.150192 -0.00235493 0.589751 
LINES 2 100
OFFSETS vtktypeint64
0 100 
CONNECTIVITY vtktypeint64
0 1 2 3 4 5 6 7 8 
9 10 11 12 13 14 15 16 17 
18 19 20 21 22 23 24 25 26 
27 28 29 30 31 32 33 34 35 
36 37 38 39 40 41 42 43 44 
45 46 47 48 49 50 51 52 53 
54 55 56 57 58 59 60 61 62 
63 64 65 66 67 68 69 70 71 
72 73 74 75 76 77 78 79 80 
81 82 83 84 85 86 87 88 89 
90 91 92 93 94 95 96 97 98 
99 
POINT_DATA 100
FIELD FieldData 3
_theta 1 100 double
0 0.031733259127 0.063466518254 0.095199777382 0.12693303651 0.15866629564 0.19039955476 0.22213281389 0.25386607302 
0.28559933214 0.31733259127 0.3490658504 0.38079910953 0.41253236865 0.44426562778 0.47599888691 0.50773214603 0.53946540516 
0.57119866429 0.60293192342 0.63466518254 0.66639844167 0.6981317008 0.72986495992 0.76159821905 0.79333147818 0.82506473731 
0.85679799643 0.88853125556 0.92026451469 0.95199777382 0.98373103294 1.0154642921 1.0471975512 1.0789308103 1.1106640695 
1.1423973286 1.1741305877 1.2058638468 1.237597106 1.2693303651 1.3010636242 1.3327968833 1.3645301425 1.3962634016 
1.4279966607 1.4597299198 1.491463179 1.5231964381 1.5549296972 1.5866629564 1.6183962155 1.6501294746 1.6818627337 
1.7135959929 1.745329252 1.7770625111 1.8087957702 1.8405290294 1.8722622885 1.9039955476 1.9357288068 1.9674620659 
1.999195325 2.0309285841 2.0626618433 2.0943951024 2.1261283615 2.1578616206 2.1895948798 2.2213281389 2.253061398 
2.2847946572 2.3165279163 2.3482611754 2.3799944345 2.4117276937 2.4434609528 2.4751942119 2.506927471 2.5386607302 
2.5703939893 2.6021272484 2.6338605076 2.6655937667 2.6973270258 2.7290602849 2.7607935441 2.7925268032 2.8242600623 
2.8559933214 2.8877265806 2.9194598397 2.9511930988 2.982926358 3.0146596171 3.0463928762 3.0781261353 3.1098593945 
3.1415926536 
_radius 1 100 double
1.2229985049e-15 0.013366481865 0.026676362708 0.039875972868 0.052911517971 0.065727342085 0.078263370309 0.090452352947 0.10221777874 
0.11347329287 0.12412418529 0.13407111897 0.14321586446 0.15146847177 0.15875507506 0.16502539716 0.17025900711 0.17446948988 
0.17770591639 0.18005133299 0.18161836967 0.18254240081 0.18297289366 0.18306361728 0.18296233129 0.18280056343 0.18268422007 
0.18268603408 0.18284107945 0.18314654811 0.18356652824 0.1840416453 0.18450234454 0.18488369316 0.18513923474 0.1852517547 
0.18523956151 0.18515759758 0.18509304891 0.18515531269 0.18546101669 0.1861170341 0.18720705732 0.18878689143 0.19088856085 
0.19352765695 0.1967073449 0.20041609699 0.20462083721 0.20925985239 0.21423969081 0.21943809003 0.22471240673 0.22991146522 
0.23488849889 0.23951333908 0.24368254138 0.24732650036 0.25041289952 0.25294619629 0.25496324754 0.25652558238 0.25770918862 
0.2585929813 0.2592473351 0.2597241277 0.26004958736 0.26022082197 0.26020627443 0.2599496565 0.25937636547 0.25840113894 
0.25693577705 0.25489606582 0.25220742202 0.24880911994 0.24465717564 0.23972603872 0.23400920466 0.22751877004 0.22028387573 
0.21234797865 0.20376499522 0.19459456628 0.18489695074 0.1747282699 0.16413688572 0.15316153331 0.14183145705 0.1301683366 
0.11818939503 0.10591088219 0.09335115145 0.080532753417 0.067483281616 0.05423504928 0.04082397293 0.027288197296 0.013666961624 
8.4975663494e-16 
_area 1 100 double
0 0.00048217816511 0.0019294148322 0.0043412757225 0.0077092263894 0.012007067152 0.01718128531 0.023143843759 0.029769216521 
0.036896335028 0.044334976129 0.051875398165 0.059299820545 0.066394440378 0.07296087283 0.078826306772 0.083852465578 0.087944097511 
0.091057086218 0.093204425916 0.094457033547 0.094937175641 0.094804768978 0.094239457815 0.093422894523 0.092525265868 0.09169755179 
0.091067045313 0.090730667738 0.090742652564 0.091102013049 0.091752510207 0.092602351467 0.093557181864 0.094551914493 0.095568866612 
0.09663652132 0.097811956318 0.099158965934 0.10073336301 0.10257516421 0.10470200412 0.10710457068 0.10975256791 0.11261950527 
0.1157220119 0.1191529063 0.12307813683 0.12767975282 0.13307554053 0.13927339434 0.14617093761 0.15357819023 0.16124858986 
0.16890638587 0.1762651258 0.18304290247 0.18898238028 0.19387828994 0.19760763309 0.20015272434 0.20160777619 0.2021647627 
0.20207897336 0.20161711183 0.20099688207 0.20034002686 0.19965953132 0.19887661567 0.1978499342 0.1964064341 0.19436945797 
0.19158117159 0.18791746484 0.18329518073 0.17767339154 0.17105163845 0.16346790237 0.15499761477 0.14575308248 0.13588131253 
0.12555795959 0.11497598612 0.10432936047 0.093794400197 0.083513597795 0.073587605425 0.064078803873 0.055024718297 0.046455031716 
0.038405675127 0.030926639894 0.024083301239 0.01795250023 0.012615112241 0.0081472753459 0.0046128050005 0.0020589168558 0.00051595683147 
7.0044648096e-17 
