# vtk DataFile Version 5.1
vtk output
ASCII
DATASET POLYDATA
POINTS 100 float
0.107545 0.0238151 -0.621927 0.107112 0.0237031 -0.621787 0.105874 0.0232515 -0.621472 
0.103936 0.0225122 -0.620926 0.101458 0.021563 -0.620061 0.0986296 0.0204978 -0.618765 
0.0956453 0.0194137 -0.616919 0.0926772 0.0183982 -0.614398 0.0898496 0.0175173 -0.611095 
0.0872201 0.0168052 -0.606924 0.0847705 0.0162583 -0.601825 0.0824064 0.015834 -0.595775 
0.0799685 0.0154529 -0.588779 0.0772517 0.0150064 -0.58087 0.0740315 0.0143677 -0.572101 
0.0700923 0.0134048 -0.562537 0.0652564 0.0119947 -0.552244 0.0594072 0.0100369 -0.541279 
0.0525057 0.00746483 -0.529689 0.0445972 0.00425422 -0.517499 0.0358069 0.000427086 -0.504714 
0.0263261 -0.00394841 -0.491321 0.0163904 -0.00876238 -0.477288 0.00625145 -0.0138713 -0.462576 
-0.00385115 -0.019109 -0.44714 -0.0137174 -0.0242985 -0.430939 -0.0232077 -0.0292652 -0.413936 
-0.0322557 -0.033848 -0.396111 -0.0408708 -0.0379096 -0.377456 -0.04913 -0.041343 -0.357978 
-0.0571603 -0.0440762 -0.337697 -0.0651145 -0.0460727 -0.316646 -0.0731416 -0.04733 -0.294868 
-0.0813586 -0.0478755 -0.27241 -0.0898245 -0.047761 -0.249327 -0.0985218 -0.0470564 -0.225675 
-0.107347 -0.0458429 -0.201517 -0.116112 -0.0442074 -0.176924 -0.124557 -0.0422369 -0.151972 
-0.13237 -0.0400148 -0.126751 -0.139216 -0.0376173 -0.101361 -0.144771 -0.0351123 -0.0759159 
-0.148751 -0.0325576 -0.0505395 -0.15094 -0.0300006 -0.0253625 -0.151214 -0.0274785 -0.000517451 
-0.149549 -0.0250181 0.0238682 -0.146027 -0.0226364 0.0476799 -0.140822 -0.0203414 0.0708229 
-0.134188 -0.018133 0.0932286 -0.12643 -0.0160041 0.114858 -0.117877 -0.0139429 0.135706 
-0.108852 -0.011935 0.155793 -0.0996457 -0.0099661 0.17517 -0.0904972 -0.00802523 0.193902 
-0.0815772 -0.00610732 0.212067 -0.0729841 -0.00421582 0.229742 -0.064746 -0.00236435 0.246995 
-0.0568313 -0.000577277 0.263879 -0.0491634 0.00111105 0.280427 -0.0416404 0.00265837 0.29665 
-0.0341537 0.00401793 0.312539 -0.0266065 0.00514278 0.328072 -0.0189274 0.00599062 0.343217 
-0.01108 0.00652854 0.357945 -0.00306561 0.00673713 0.372234 0.00507813 0.00661325 0.386081 
0.0132846 0.00617122 0.399501 0.0214681 0.00544201 0.412532 0.029536 0.0044705 0.42523 
0.0374005 0.00331116 0.437668 0.0449886 0.00202245 0.44992 0.0522501 0.000660739 0.462056 
0.0591607 -0.00072545 0.47413 0.0657226 -0.00210027 0.486172 0.0719609 -0.00344364 0.498174 
0.0779176 -0.00475224 0.510095 0.0836433 -0.00603816 0.521858 0.0891899 -0.00732547 0.533352 
0.094602 -0.00864492 0.544444 0.0999112 -0.0100277 0.554992 0.105133 -0.0114988 0.564854 
0.110263 -0.0130715 0.573905 0.115281 -0.0147424 0.582047 0.120152 -0.0164899 0.589219 
0.124834 -0.0182744 0.595402 0.129276 -0.0200412 0.600619 0.133434 -0.0217259 0.604934 
0.137265 -0.0232613 0.608439 0.140738 -0.0245855 0.611251 0.143835 -0.025649 0.613492 
0.146546 -0.0264217 0.615286 0.148878 -0.0268967 0.616742 0.150844 -0.0270923 0.617949 
0.152467 -0.0270507 0.618971 0.153772 -0.0268333 0.619847 0.154788 -0.0265144 0.620593 
0.155541 -0.0261726 0.621209 0.156056 -0.0258817 0.621682 0.15635 -0.0257022 0.621998 
0.156434 -0.0256742 0.622144 
LINES 2 100
OFFSETS vtktypeint64
0 100 
CONNECTIVITY vtktypeint64
0 1 2 3 4 5 6 7 8 
9 10 11 12 13 14 15 16 17 
18 19 20 21 22 23 24 25 26 
27 28 29 30 31 32 33 34 35 
36 37 38 39 40 41 42 43 44 
45 46 47 48 49 50 51 52 53 
54 55 56 57 58 59 60 61 62 
63 64 65 66 67 68 69 70 71 
72 73 74 75 76 77 78 79 80 
81 82 83 84 85 86 87 88 89 
90 91 92 93 94 95 96 97 98 
99 
POINT_DATA 100
FIELD FieldData 3
_theta 1 100 double
0 0.031733259127 0.063466518254 0.095199777382 0.12693303651 0.15866629564 0.19039955476 0.22213281389 0.25386607302 
0.28559933214 0.31733259127 0.3490658504 0.38079910953 0.41253236865 0.44426562778 0.47599888691 0.50773214603 0.53946540516 
0.57119866429 0.60293192342 0.63466518254 0.66639844167 0.6981317008 0.72986495992 0.76159821905 0.79333147818 0.82506473731 
0.85679799643 0.88853125556 0.92026451469 0.95199777382 0.98373103294 1.0154642921 1.0471975512 1.0789308103 1.1106640695 
1.1423973286 1.1741305877 1.2058638468 1.237597106 1.2693303651 1.3010636242 1.3327968833 1.3645301425 1.3962634016 
1.4279966607 1.4597299198 1.491463179 1.5231964381 1.5549296972 1.5866629564 1.6183962155 1.6501294746 1.6818627337 
1.7135959929 1.745329252 1.7770625111 1.8087957702 1.8405290294 1.8722622885 1.9039955476 1.9357288068 1.9674620659 
1.999195325 2.0309285841 2.0626618433 2.0943951024 2.1261283615 2.1578616206 2.1895948798 2.2213281389 2.253061398 
2.2847946572 2.3165279163 2.3482611754 2.3799944345 2.4117276937 2.4434609528 2.4751942119 2.506927471 2.5386607302 
2.5703939893 2.6021272484 2.6338605076 2.6655937667 2.6973270258 2.7290602849 2.7607935441 2.7925268032 2.8242600623 
2.8559933214 2.8877265806 2.9194598397 2.9511930988 2.982926358 3.0146596171 3.0463928762 3.0781261353 3.1098593945 
3.1415926536 
_radius 1 100 double
8.9697785443e-16 0.013736054346 0.027411088002 0.040967852362 0.054353511902 0.06752033564 0.080425011733 0.093026333699 0.10528112404 
0.11713860102 0.12853403985 0.13938334548 0.14958062994 0.15900069852 0.16750741226 0.1749674747 0.18126773406 0.18633302127 
0.19014113008 0.19273188415 0.19420826057 0.19472904259 0.19449411832 0.19372489569 0.19264296283 0.19144993526 0.19031066925 
0.1893412006 0.18860220241 0.18809836004 0.18778371123 0.18757276878 0.18735706629 0.1870262224 0.18649142208 0.18570773866 
0.18469078636 0.18352350626 0.18235075266 0.18136249853 0.18076969865 0.18077825941 0.1815655387 0.18326186833 0.18593817196 
0.18959969042 0.19418490949 0.19956861297 0.20556882309 0.21195836903 0.21848176867 0.2248768094 0.23089852195 0.23634213124 
0.24106144769 0.24497990519 0.24809271617 0.25046006516 0.25219262504 0.2534317515 0.25432735157 0.25501656736 0.25560608444 
0.25616016086 0.2566955316 0.25718334618 0.2575573921 0.25772713091 0.25759354706 0.25706546313 0.25607382149 0.25458156902 
0.25258733606 0.25012208904 0.24723919186 0.24399955084 0.24045447264 0.23662935968 0.23251132067 0.22804316916 0.22312518293 
0.21762459698 0.21139142229 0.20427814687 0.19616035744 0.18695530606 0.1766358285 0.16523768835 0.15285929103 0.13965371023 
0.12581399892 0.11155369105 0.097085092003 0.082598271971 0.068243530069 0.05411949109 0.040268047 0.026676290185 0.01328466848 
1.097482066e-15 
_area 1 100 double
0 0.00050296096764 0.0020146341619 0.0045399497728 0.0080771963095 0.012607406354 0.018085339254 0.024434329573 0.031545750503 
0.0392818476 0.047478736922 0.055946034149 0.06446212025 0.072768621028 0.080571422203 0.087555609614 0.093417388901 0.097908977934 
0.10088572397 0.10234166173 0.10242250271 0.10141223456 0.099696207281 0.097704608562 0.095836345074 0.094371555968 0.093415605864 
0.092918630755 0.092744566432 0.092733836368 0.092740621585 0.092653948748 0.092413374821 0.092020625795 0.091541386348 0.091089352528 
0.090788941347 0.090732234237 0.090964011 0.091506664827 0.092395907404 0.093693033706 0.095473250965 0.097819218544 0.10083033221 
0.1046232445 0.10930346015 0.11491511446 0.12139945988 0.12858892483 0.13623347393 0.14403758415 0.1516931664 0.15890675135 
0.16542426146 0.17105416693 0.17568620623 0.17930268959 0.18198293598 0.18391091346 0.18542310206 0.18697208762 0.18865352722 
0.19036737586 0.19198032395 0.19335278673 0.19431147648 0.19466612178 0.19423916437 0.19289364611 0.1905546832 0.1872227588 
0.18297646835 0.17796124043 0.172363771 0.16637696556 0.1601628176 0.15382091945 0.14736968331 0.14074560848 0.1338220239 
0.12644330069 0.11846621484 0.1097990527 0.10043079108 0.090445469101 0.080019655488 0.069403745693 0.058890817145 0.048779428584 
0.039338137753 0.0307788643 0.023243490804 0.016804189836 0.011474470472 0.0072261885936 0.0040079901909 0.0017620487344 0.00043749392324 
5.5751784086e-17 
