# vtk DataFile Version 5.1
vtk output
ASCII
DATASET POLYDATA
POINTS 100 float
0.114674 0.0558172 -0.668023 0.11456 0.0559107 -0.668194 0.11423 0.0560271 -0.668713 
0.113674 0.0561437 -0.669477 0.112879 0.056224 -0.670327 0.111829 0.0562183 -0.671057 
0.110512 0.0560669 -0.671431 0.108921 0.0557021 -0.671206 0.107055 0.0550521 -0.67014 
0.104919 0.0540447 -0.668019 0.102522 0.0526118 -0.664666 0.0998745 0.0506936 -0.659952 
0.096982 0.0482429 -0.653801 0.093841 0.0452292 -0.646192 0.0904346 0.0416415 -0.637153 
0.0867298 0.0374909 -0.626757 0.0826775 0.0328116 -0.615107 0.0782155 0.0276605 -0.60233 
0.0732742 0.0221158 -0.58856 0.0677849 0.0162738 -0.573929 0.0616899 0.0102446 -0.55856 
0.0549522 0.00414707 -0.542554 0.0475645 -0.00189678 -0.525993 0.0395558 -0.00776813 -0.508936 
0.0309936 -0.0133569 -0.491419 0.0219818 -0.0185668 -0.47346 0.012654 -0.0233196 -0.455064 
0.00316308 -0.0275578 -0.436227 -0.0063328 -0.031246 -0.416939 -0.015685 -0.0343704 -0.397193 
-0.0247688 -0.0369375 -0.376981 -0.0334945 -0.0389704 -0.356303 -0.041815 -0.0405054 -0.335159 
-0.0497268 -0.0415871 -0.313557 -0.0572653 -0.0422632 -0.291506 -0.0644946 -0.0425804 -0.269015 
-0.0714915 -0.0425802 -0.246096 -0.0783282 -0.0422958 -0.222759 -0.0850528 -0.0417501 -0.199014 
-0.0916737 -0.0409554 -0.174873 -0.0981469 -0.039914 -0.150349 -0.104371 -0.0386206 -0.125462 
-0.110188 -0.0370648 -0.100238 -0.115394 -0.0352352 -0.0747126 -0.119757 -0.0331235 -0.0489358 
-0.123036 -0.0307289 -0.0229687 -0.125006 -0.0280611 0.00311323 -0.125486 -0.0251444 0.0292214 
-0.124354 -0.0220185 0.0552561 -0.121567 -0.0187403 0.0811084 -0.117166 -0.0153823 0.106664 
-0.111274 -0.012031 0.131807 -0.104086 -0.00878352 0.156424 -0.0958491 -0.0057427 0.180408 
-0.0868405 -0.0030121 0.203661 -0.0773387 -0.000689969 0.226102 -0.0675983 0.00113664 0.247667 
-0.0578275 0.00239749 0.26831 -0.0481723 0.00304393 0.288009 -0.0387088 0.0030526 0.306766 
-0.0294448 0.00242762 0.324607 -0.0203301 0.00120114 0.341583 -0.0112739 -0.000567917 0.357765 
-0.00216703 -0.00279684 0.373247 0.00709394 -0.00538372 0.388136 0.0165845 -0.00821329 0.402553 
0.026334 -0.0111638 0.416623 0.0363148 -0.014114 0.43047 0.0464391 -0.0169506 0.444208 
0.0565648 -0.0195747 0.457937 0.0665092 -0.0219068 0.47173 0.0760677 -0.0238913 0.485635 
0.0850366 -0.0254981 0.499663 0.0932358 -0.0267232 0.51379 0.100528 -0.0275864 0.527956 
0.106834 -0.0281286 0.542067 0.112138 -0.0284062 0.556 0.116488 -0.0284857 0.569611 
0.119987 -0.0284375 0.582742 0.122778 -0.0283296 0.595235 0.125023 -0.0282221 0.606937 
0.126882 -0.0281633 0.617711 0.128497 -0.0281865 0.62745 0.129973 -0.0283087 0.636073 
0.131369 -0.0285316 0.643541 0.132697 -0.0288427 0.649848 0.133926 -0.0292194 0.655028 
0.134995 -0.0296322 0.659145 0.135826 -0.0300495 0.662294 0.136344 -0.0304415 0.664588 
0.136491 -0.0307841 0.666155 0.136246 -0.031061 0.667129 0.135626 -0.0312654 0.667641 
0.134695 -0.0314 0.667819 0.133555 -0.0314757 0.667777 0.132334 -0.0315096 0.667614 
0.131175 -0.0315218 0.667413 0.130216 -0.0315327 0.66724 0.129568 -0.0315594 0.667141 
0.129307 -0.0316133 0.667144 
LINES 2 100
OFFSETS vtktypeint64
0 100 
CONNECTIVITY vtktypeint64
0 1 2 3 4 5 6 7 8 
9 10 11 12 13 14 15 16 17 
18 19 20 21 22 23 24 25 26 
27 28 29 30 31 32 33 34 35 
36 37 38 39 40 41 42 43 44 
45 46 47 48 49 50 51 52 53 
54 55 56 57 58 59 60 61 62 
63 64 65 66 67 68 69 70 71 
72 73 74 75 76 77 78 79 80 
81 82 83 84 85 86 87 88 89 
90 91 92 93 94 95 96 97 98 
99 
POINT_DATA 100
FIELD FieldData 3
_theta 1 100 double
0 0.031733259127 0.063466518254 0.095199777382 0.12693303651 0.15866629564 0.19039955476 0.22213281389 0.25386607302 
0.28559933214 0.31733259127 0.3490658504 0.38079910953 0.41253236865 0.44426562778 0.47599888691 0.50773214603 0.53946540516 
0.57119866429 0.60293192342 0.63466518254 0.66639844167 0.6981317008 0.72986495992 0.76159821905 0.79333147818 0.82506473731 
0.85679799643 0.88853125556 0.92026451469 0.95199777382 0.98373103294 1.0154642921 1.0471975512 1.0789308103 1.1106640695 
1.1423973286 1.1741305877 1.2058638468 1.237597106 1.2693303651 1.3010636242 1.3327968833 1.3645301425 1.3962634016 
1.4279966607 1.4597299198 1.491463179 1.5231964381 1.5549296972 1.5866629564 1.6183962155 1.6501294746 1.6818627337 
1.7135959929 1.745329252 1.7770625111 1.8087957702 1.8405290294 1.8722622885 1.9039955476 1.9357288068 1.9674620659 
1.999195325 2.0309285841 2.0626618433 2.0943951024 2.1261283615 2.1578616206 2.1895948798 2.2213281389 2.253061398 
2.2847946572 2.3165279163 2.3482611754 2.3799944345 2.4117276937 2.4434609528 2.4751942119 2.506927471 2.5386607302 
2.5703939893 2.6021272484 2.6338605076 2.6655937667 2.6973270258 2.7290602849 2.7607935441 2.7925268032 2.8242600623 
2.8559933214 2.8877265806 2.9194598397 2.9511930988 2.982926358 3.0146596171 3.0463928762 3.0781261353 3.1098593945 
3.1415926536 
_radius 1 100 double
6.9309095823e-16 0.013056633914 0.026193346383 0.039468243982 0.052902950774 0.0664673838 0.080069342026 0.093551530658 0.10669797954 
0.11925030207 0.13093234408 0.14148005369 0.15067228202 0.15835788077 0.16447490034 0.16905883688 0.17223861775 0.17422112761 
0.17526711124 0.17566262898 0.17569046871 0.17560514762 0.17561388318 0.17586462759 0.17644116275 0.17736450524 0.17859961364 
0.18006649064 0.18165473775 0.18324002675 0.18470006345 0.18592743669 0.1868381155 0.18737661807 0.18751963412 0.18727795842 
0.18669475648 0.18583929359 0.18479780934 0.1836642753 0.18253272732 0.18149105106 0.18061525163 0.1799643483 0.17957820757 
0.17948115803 0.17969151412 0.18023321489 0.18114407207 0.18247653637 0.18428991644 0.1866360126 0.18954233317 0.1929979216 
0.19694597704 0.20128515575 0.20587868259 0.21056832603 0.21518958282 0.21958509985 0.22361485416 0.22716302854 0.23014220142 
0.23249542752 0.23419655484 0.23524912596 0.23568437071 0.23555876328 0.23495122526 0.2339594786 0.23269458351 0.23127253942 
0.22980215943 0.22836951997 0.2270212368 0.22575085055 0.22449299563 0.22312768474 0.22149327116 0.21940413698 0.21666911873 
0.21310814177 0.20856599593 0.20292295974 0.19610216892 0.18807358497 0.17885442203 0.16850601848 0.1571273624 0.14484576161 
0.13180548809 0.11815560262 0.10403846859 0.089580501823 0.074886326624 0.060036757614 0.045090169962 0.03008620181 0.015050564939 
2.4543549799e-16 
_area 1 100 double
0 0.00042784349312 0.0017312834759 0.0039662337189 0.0072112985206 0.011542073647 0.016994456566 0.023524703232 0.030977567147 
0.039073512287 0.047422520445 0.055565867816 0.063039245868 0.069442870282 0.074500024415 0.078088109153 0.08023638506 0.081097344696 
0.080905934683 0.079939403747 0.078484691027 0.07681477333 0.075170685917 0.073744956165 0.072670135242 0.072020226037 0.071819700413 
0.072049143256 0.072650809903 0.073542524427 0.074634911173 0.075841038537 0.077076790675 0.07825783208 0.079304275065 0.080163281364 
0.080836832315 0.08138536181 0.081894799022 0.082439024219 0.083073348297 0.083840104104 0.084763714663 0.085838553157 0.08702143731 
0.088240999151 0.089433224997 0.090599320697 0.09186256719 0.093493372472 0.09587407685 0.099380838837 0.10420934044 0.11025693445 
0.11716108935 0.1244409013 0.13161704887 0.13827760581 0.14411397689 0.14894117758 0.15270352835 0.15546383942 0.15737369287 
0.15862015819 0.15934537036 0.15956101619 0.15913501641 0.15790113722 0.15579491901 0.15290333578 0.14943428938 0.14565853965 
0.14185633484 0.13827611372 0.13509833688 0.13239759377 0.13011302637 0.12805251158 0.1259372624 0.12346058782 0.12033588842 
0.11632892219 0.111278358 0.10510866747 0.097837007152 0.089572957568 0.080509004624 0.070901973814 0.061049246178 0.0512641979 
0.041852295965 0.033087602946 0.025191729458 0.018319684584 0.012556268351 0.0079237763778 0.0043988974446 0.0019344116586 0.00048029073778 
0 
