# vtk DataFile Version 5.1
vtk output
ASCII
DATASET POLYDATA
POINTS 100 float
0.140679 0.0467349 -0.654581 0.140646 0.0464705 -0.654616 0.140549 0.0455017 -0.65468 
0.140383 0.0438928 -0.654696 0.140132 0.0417431 -0.654546 0.139781 0.0391762 -0.654081 
0.139313 0.0363259 -0.653139 0.138708 0.0333224 -0.651564 0.137949 0.0302785 -0.649214 
0.137019 0.0272789 -0.645981 0.135898 0.024373 -0.641793 0.134564 0.0215724 -0.636625 
0.132987 0.018853 -0.630488 0.131132 0.0161619 -0.623433 0.12895 0.0134275 -0.615531 
0.126384 0.0105711 -0.606869 0.123368 0.00752022 -0.597533 0.11983 0.00421999 -0.587595 
0.115697 0.000642198 -0.577111 0.110902 -0.00320904 -0.566106 0.105391 -0.00729588 -0.554582 
0.0991311 -0.0115495 -0.542514 0.0921158 -0.0158767 -0.529861 0.0843688 -0.0201691 -0.516572 
0.0759455 -0.0243137 -0.502596 0.066931 -0.0282045 -0.487892 0.0574344 -0.0317518 -0.472436 
0.0475806 -0.0348895 -0.456227 0.0375004 -0.0375797 -0.439284 0.0273194 -0.0398135 -0.42165 
0.0171476 -0.041608 -0.403383 0.00707087 -0.0430012 -0.384548 -0.00285397 -0.0440442 -0.365212 
-0.0126005 -0.0447935 -0.345433 -0.0221694 -0.0453022 -0.325254 -0.031581 -0.0456139 -0.304698 
-0.0408646 -0.0457577 -0.283771 -0.0500454 -0.0457463 -0.262456 -0.0591313 -0.0455767 -0.240724 
-0.0681008 -0.045233 -0.218539 -0.0768943 -0.0446914 -0.195868 -0.0854093 -0.0439261 -0.172684 
-0.0935018 -0.0429148 -0.148979 -0.100992 -0.0416444 -0.124767 -0.107679 -0.0401142 -0.100087 
-0.11335 -0.0383384 -0.0750023 -0.117808 -0.0363453 -0.0495977 -0.120881 -0.0341754 -0.0239756 
-0.122445 -0.0318782 0.00175153 -0.122434 -0.0295073 0.027468 -0.120847 -0.0271165 0.0530613 
-0.117753 -0.0247549 0.0784276 -0.113281 -0.0224646 0.103475 -0.107611 -0.0202786 0.128126 
-0.100956 -0.0182208 0.152315 -0.0935464 -0.0163069 0.17599 -0.085607 -0.0145468 0.199106 
-0.0773398 -0.012947 0.221625 -0.0689099 -0.0115134 0.243514 -0.0604356 -0.0102532 0.264742 
-0.051985 -0.00917591 0.285282 -0.0435791 -0.00829359 0.305115 -0.0352 -0.00761951 0.324229 
-0.0268037 -0.00716608 0.342629 -0.0183354 -0.00694227 0.360334 -0.00974533 -0.00695098 0.377384 
-0.00100264 -0.00718685 0.39384 0.00789381 -0.00763506 0.40978 0.0169094 -0.00827129 0.425298 
0.0259733 -0.00906311 0.440494 0.0349829 -0.00997244 0.455464 0.0438131 -0.0109591 0.470295 
0.0523289 -0.0119846 0.48505 0.0603991 -0.0130159 0.499763 0.06791 -0.0140281 0.514432 
0.074777 -0.0150068 0.529015 0.0809527 -0.0159477 0.543433 0.0864302 -0.0168553 0.557576 
0.0912422 -0.0177405 0.57131 0.0954551 -0.0186163 0.584489 0.0991603 -0.0194934 0.596972 
0.102462 -0.0203768 0.608628 0.105468 -0.0212616 0.619355 0.108272 -0.0221318 0.629084 
0.110952 -0.0229606 0.637786 0.11356 -0.0237116 0.645471 0.116121 -0.0243436 0.652187 
0.118634 -0.024815 0.658012 0.121078 -0.0250901 0.66304 0.123416 -0.0251448 0.667379 
0.125605 -0.024971 0.671131 0.127603 -0.0245804 0.674388 0.129374 -0.024005 0.677222 
0.130896 -0.0232956 0.679684 0.132157 -0.022518 0.6818 0.133157 -0.0217469 0.683576 
0.133908 -0.0210589 0.685005 0.134424 -0.0205242 0.686067 0.134721 -0.0201994 0.686745 
0.134807 -0.0201216 0.687023 
LINES 2 100
OFFSETS vtktypeint64
0 100 
CONNECTIVITY vtktypeint64
0 1 2 3 4 5 6 7 8 
9 10 11 12 13 14 15 16 17 
18 19 20 21 22 23 24 25 26 
27 28 29 30 31 32 33 34 35 
36 37 38 39 40 41 42 43 44 
45 46 47 48 49 50 51 52 53 
54 55 56 57 58 59 60 61 62 
63 64 65 66 67 68 69 70 71 
72 73 74 75 76 77 78 79 80 
81 82 83 84 85 86 87 88 89 
90 91 92 93 94 95 96 97 98 
99 
POINT_DATA 100
FIELD FieldData 3
_theta 1 100 double
0 0.031733259127 0.063466518254 0.095199777382 0.12693303651 0.15866629564 0.19039955476 0.22213281389 0.25386607302 
0.28559933214 0.31733259127 0.3490658504 0.38079910953 0.41253236865 0.44426562778 0.47599888691 0.50773214603 0.53946540516 
0.57119866429 0.60293192342 0.63466518254 0.66639844167 0.6981317008 0.72986495992 0.76159821905 0.79333147818 0.82506473731 
0.85679799643 0.88853125556 0.92026451469 0.95199777382 0.98373103294 1.0154642921 1.0471975512 1.0789308103 1.1106640695 
1.1423973286 1.1741305877 1.2058638468 1.237597106 1.2693303651 1.3010636242 1.3327968833 1.3645301425 1.3962634016 
1.4279966607 1.4597299198 1.491463179 1.5231964381 1.5549296972 1.5866629564 1.6183962155 1.6501294746 1.6818627337 
1.7135959929 1.745329252 1.7770625111 1.8087957702 1.8405290294 1.8722622885 1.9039955476 1.9357288068 1.9674620659 
1.999195325 2.0309285841 2.0626618433 2.0943951024 2.1261283615 2.1578616206 2.1895948798 2.2213281389 2.253061398 
2.2847946572 2.3165279163 2.3482611754 2.3799944345 2.4117276937 2.4434609528 2.4751942119 2.506927471 2.5386607302 
2.5703939893 2.6021272484 2.6338605076 2.6655937667 2.6973270258 2.7290602849 2.7607935441 2.7925268032 2.8242600623 
2.8559933214 2.8877265806 2.9194598397 2.9511930988 2.982926358 3.0146596171 3.0463928762 3.0781261353 3.1098593945 
3.1415926536 
_radius 1 100 double
1.7766278693e-15 0.015115280488 0.030130677399 0.044954310734 0.059515053336 0.073766747174 0.087686951894 0.10127073298 0.11452099445 
0.12743739171 0.14000593336 0.1521911084 0.16393187121 0.17514216942 0.18571599852 0.19553630677 0.20448654043 0.21246327382 
0.21938824126 0.22521818062 0.22995118892 0.23362873945 0.23633305973 0.23818015234 0.23930927867 0.23987015734 0.24000940981 
0.23985787339 0.23952024356 0.23906809482 0.23853678397 0.23792629144 0.23720585435 0.23632218704 0.23521090718 0.23381033637 
0.23207622076 0.22999536063 0.22759587366 0.2249519864 0.22218192579 0.21943866643 0.21689485124 0.21472478375 0.21308734671 
0.21211332986 0.21189875601 0.21250318462 0.21395016473 0.21622716232 0.21928421748 0.2230328543 0.22734781336 0.23207349505 
0.23703526377 0.24205400662 0.24696123714 0.2516118292 0.25589214683 0.25972263956 0.2630554089 0.26586832537 0.26815771456 
0.26993143647 0.27120355149 0.27199097886 0.27231187618 0.27218508541 0.2716299642 0.27066617916 0.26931339914 0.26759104593 
0.26551813394 0.26311276319 0.26039035233 0.25735972144 0.25401692952 0.25033805581 0.24627319892 0.24174422097 0.23664798981 
0.23086537628 0.224274643 0.21676669126 0.20825924097 0.19870742711 0.1881092966 0.17650593095 0.16397700686 0.15063321163 
0.13660694677 0.12204235632 0.10708524897 0.091873238471 0.076526505683 0.061139894164 0.045777379822 0.030470065303 0.015218570327 
5.6445930288e-16 
_area 1 100 double
0 0.0005950479421 0.0023643129658 0.0052653877598 0.0092427701383 0.014242800512 0.020220989485 0.027136713919 0.034939245792 
0.043552590279 0.052862529573 0.06270651642 0.07286857028 0.083082512001 0.093044991923 0.10243647967 0.11094630298 0.11829780585 
0.1242710072 0.1287215356 0.13159519234 0.13293727802 0.13289560155 0.13171654124 0.12973438478 0.12735352828 0.12501594752 
0.12313215166 0.12197713218 0.1216363422 0.12203831754 0.12300220654 0.12428320619 0.12561810974 0.126759535 0.12750028386 
0.12769404386 0.12727457597 0.12627033014 0.12480813197 0.1230999417 0.12141145897 0.12001927659 0.11916459174 0.11899819289 
0.11958852286 0.12090862808 0.1228245032 0.12531408618 0.12846431867 0.13239736017 0.13716875334 0.14271636915 0.14888456932 
0.15546376036 0.16220449201 0.16884299004 0.17513274896 0.1808732509 0.18592779479 0.19022563859 0.19374945707 0.19651458805 
0.1985484318 0.19987609398 0.20051420567 0.20047136037 0.19975182986 0.19835922171 0.19629824238 0.19357496229 0.19019779809 
0.18618182605 0.18155730525 0.17637931602 0.17073098316 0.16471197914 0.15841047647 0.15186872681 0.14506115964 0.13789983387 
0.13026712276 0.12206204751 0.11324253952 0.10384951169 0.094005816776 0.083891665985 0.073707371862 0.063641724504 0.053861084537 
0.044517142805 0.035757328819 0.027725938051 0.020556287448 0.014360439896 0.0092221949341 0.0051958481857 0.0023104606461 0.00057763542782 
7.0276624607e-17 
