# vtk DataFile Version 5.1
vtk output
ASCII
DATASET POLYDATA
POINTS 100 float
0.160854 0.0635277 -0.64177 0.160735 0.0635531 -0.641956 0.160453 0.063452 -0.642519 
0.160001 0.0632142 -0.643321 0.159366 0.0628239 -0.644148 0.158528 0.0622599 -0.644737 
0.157462 0.061497 -0.644802 0.156137 0.0605063 -0.644066 0.154519 0.0592564 -0.642293 
0.152567 0.0577143 -0.639307 0.150242 0.0558464 -0.635015 0.147498 0.0536196 -0.629406 
0.144291 0.0510023 -0.622548 0.14058 0.0479662 -0.614578 0.136325 0.0444871 -0.605677 
0.131494 0.0405473 -0.596045 0.126062 0.0361373 -0.585872 0.120018 0.0312577 -0.575318 
0.113363 0.0259218 -0.56449 0.106114 0.0201571 -0.553431 0.0983055 0.0140069 -0.542119 
0.0899857 0.00753172 -0.530472 0.0812188 0.000808672 -0.518359 0.072079 -0.00606893 -0.505624 
0.0626473 -0.0129938 -0.492105 0.0530058 -0.0198478 -0.477656 0.0432322 -0.0265062 -0.462168 
0.0333943 -0.0328425 -0.445579 0.0235462 -0.0387341 -0.427882 0.0137255 -0.0440678 -0.409124 
0.00395297 -0.048745 -0.389398 -0.00576532 -0.0526865 -0.368829 -0.0154331 -0.0558354 -0.347556 
-0.025057 -0.0581595 -0.325715 -0.0346384 -0.0596517 -0.303423 -0.0441643 -0.0603287 -0.280768 
-0.0535986 -0.0602289 -0.257797 -0.062876 -0.0594083 -0.234522 -0.0718975 -0.0579367 -0.210922 
-0.0805308 -0.0558926 -0.186956 -0.0886137 -0.053359 -0.162579 -0.0959627 -0.050419 -0.137752 
-0.102385 -0.0471528 -0.112464 -0.107691 -0.0436357 -0.086738 -0.111714 -0.0399366 -0.0606411 
-0.114321 -0.036118 -0.0342827 -0.115432 -0.0322367 -0.00781058 -0.115022 -0.0283447 0.0185994 
-0.113134 -0.0244908 0.0447572 -0.109871 -0.0207212 0.0704743 -0.105394 -0.0170807 0.0955791 
-0.0999091 -0.0136123 0.119931 -0.0936493 -0.0103569 0.143428 -0.0868568 -0.00735193 0.166013 
-0.0797629 -0.00462987 0.187673 -0.0725704 -0.00221633 0.208432 -0.065438 -0.000128431 0.228345 
-0.0584712 0.00162641 0.247482 -0.051718 0.00305104 0.265921 -0.0451721 0.0041583 0.283734 
-0.038781 0.00496983 0.300979 -0.0324597 0.00551406 0.317699 -0.0261074 0.00582364 0.333918 
-0.0196252 0.00593242 0.349644 -0.0129331 0.0058726 0.364881 -0.00598348 0.00567212 0.379627 
0.00122953 0.00535277 0.393893 0.00866668 0.00492924 0.407701 0.0162462 0.00440913 0.42109 
0.0238517 0.00379402 0.43412 0.0313451 0.0030813 0.446862 0.0385813 0.00226664 0.4594 
0.0454247 0.00134665 0.471814 0.0517634 0.000321354 0.484173 0.0575213 -0.000803749 0.496526 
0.0626643 -0.00201655 0.508894 0.0672027 -0.00329811 0.521261 0.0711863 -0.00462343 0.533579 
0.0746964 -0.00596322 0.545764 0.0778331 -0.00728633 0.557709 0.080701 -0.00856253 0.56929 
0.0833953 -0.00976533 0.58038 0.0859891 -0.0108744 0.59086 0.0885254 -0.0118774 0.600627 
0.0910127 -0.0127705 0.60961 0.0934259 -0.0135583 0.617768 0.0957128 -0.0142525 0.625092 
0.0978036 -0.01487 0.631605 0.0996235 -0.0154297 0.637356 0.101105 -0.0159501 0.642407 
0.102203 -0.0164467 0.64683 0.102897 -0.0169296 0.650693 0.103205 -0.0174023 0.654054 
0.103177 -0.0178614 0.656957 0.102892 -0.0182977 0.659431 0.10245 -0.0186972 0.661487 
0.10196 -0.0190436 0.663122 0.101523 -0.0193212 0.664327 0.101223 -0.0195167 0.665089 
0.101117 -0.0196219 0.665397 
LINES 2 100
OFFSETS vtktypeint64
0 100 
CONNECTIVITY vtktypeint64
0 1 2 3 4 5 6 7 8 
9 10 11 12 13 14 15 16 17 
18 19 20 21 22 23 24 25 26 
27 28 29 30 31 32 33 34 35 
36 37 38 39 40 41 42 43 44 
45 46 47 48 49 50 51 52 53 
54 55 56 57 58 59 60 61 62 
63 64 65 66 67 68 69 70 71 
72 73 74 75 76 77 78 79 80 
81 82 83 84 85 86 87 88 89 
90 91 92 93 94 95 96 97 98 
99 
POINT_DATA 100
FIELD FieldData 3
_theta 1 100 double
0 0.031733259127 0.063466518254 0.095199777382 0.12693303651 0.15866629564 0.19039955476 0.22213281389 0.25386607302 
0.28559933214 0.31733259127 0.3490658504 0.38079910953 0.41253236865 0.44426562778 0.47599888691 0.50773214603 0.53946540516 
0.57119866429 0.60293192342 0.63466518254 0.66639844167 0.6981317008 0.72986495992 0.76159821905 0.79333147818 0.82506473731 
0.85679799643 0.88853125556 0.92026451469 0.95199777382 0.98373103294 1.0154642921 1.0471975512 1.0789308103 1.1106640695 
1.1423973286 1.1741305877 1.2058638468 1.237597106 1.2693303651 1.3010636242 1.3327968833 1.3645301425 1.3962634016 
1.4279966607 1.4597299198 1.491463179 1.5231964381 1.5549296972 1.5866629564 1.6183962155 1.6501294746 1.6818627337 
1.7135959929 1.745329252 1.7770625111 1.8087957702 1.8405290294 1.8722622885 1.9039955476 1.9357288068 1.9674620659 
1.999195325 2.0309285841 2.0626618433 2.0943951024 2.1261283615 2.1578616206 2.1895948798 2.2213281389 2.253061398 
2.2847946572 2.3165279163 2.3482611754 2.3799944345 2.4117276937 2.4434609528 2.4751942119 2.506927471 2.5386607302 
2.5703939893 2.6021272484 2.6338605076 2.6655937667 2.6973270258 2.7290602849 2.7607935441 2.7925268032 2.8242600623 
2.8559933214 2.8877265806 2.9194598397 2.9511930988 2.982926358 3.0146596171 3.0463928762 3.0781261353 3.1098593945 
3.1415926536 
_radius 1 100 double
1.6091652526e-15 0.01688636178 0.033538687704 0.049737263482 0.065294979679 0.080068931629 0.093966883871 0.10694783754 0.11901666567 
0.13021352881 0.14059945264 0.15023996824 0.15918904483 0.16747565079 0.17509510304 0.1820068388 0.18813934395 0.1934017964 
0.19770075813 0.20095926471 0.20313515332 0.20423554858 0.20432504771 0.20352617033 0.20201187421 0.19999119517 0.19769016485 
0.1953308974 0.19311189351 0.1911920276 0.18967950176 0.18862588238 0.1880249488 0.18781663645 0.18789708499 0.18813558988 
0.18839755438 0.18856994095 0.18858371435 0.18842761434 0.18814953228 0.18784530901 0.18763896607 0.18766142086 0.18803449896 
0.18886317849 0.19023397429 0.19221456536 0.19485056565 0.19815850316 0.20211729299 0.20666205079 0.21168357193 0.21703486229 
0.22254389474 0.22803019237 0.23332218747 0.23827238162 0.24276789907 0.24673499722 0.25013741459 0.2529698428 0.25524881996 
0.25700349349 0.25826795316 0.25907569856 0.25945593847 0.25943111005 0.25901511139 0.25821201885 0.25701538169 0.25540847631 
0.25336600471 0.25085744776 0.24785163576 0.24432141007 0.24024698222 0.23561697613 0.23042699 0.22467642278 0.21836488626 
0.21148957361 0.20404451727 0.19602195134 0.18741526301 0.17822250261 0.16844925516 0.15810988681 0.14722670582 0.135827282 
0.12394086067 0.11159525209 0.098815551451 0.085625447306 0.072050879573 0.058124858955 0.043891819117 0.029410094913 0.01475178451 
7.3336634768e-16 
_area 1 100 double
0 0.00065460037879 0.0025982941127 0.0057701834523 0.010068324399 0.01535289823 0.021454881875 0.028189504139 0.035371230283 
0.042826105 0.050398186571 0.057948814841 0.065349602584 0.072471644324 0.079174346986 0.085297677783 0.090661555214 0.09507526218 
0.098357651672 0.10036557473 0.10102457748 0.10035438007 0.09848298201 0.095646977768 0.092181104939 0.088529070463 0.085080673888 
0.081991662075 0.079446234221 0.077617454455 0.076618352648 0.076378712788 0.07684718955 0.077951241158 0.07960044229 0.081680813603 
0.08405208774 0.08656531785 0.089100656587 0.091590951798 0.094000541409 0.09629877053 0.098479312394 0.10055620434 0.10255359831 
0.10451417863 0.10652085328 0.10871926909 0.1113222293 0.11458056768 0.11872685005 0.12391483305 0.13017281696 0.13738537344 
0.14530690823 0.15359576917 0.16185937918 0.16970623126 0.17679810565 0.18289281926 0.18787226116 0.19173665884 0.19456296284 
0.19648990916 0.19757211226 0.19779831076 0.19721667285 0.19591258075 0.19397362155 0.19147182523 0.18845540635 0.18494715512 
0.18094841662 0.1764474567 0.1714301537 0.16589014628 0.15983557243 0.15329052279 0.1462910562 0.13887765943 0.13108754888 
0.1229503342 0.11448923949 0.10572804921 0.096701861337 0.087467957043 0.078112386088 0.068749158703 0.059512021666 0.050542000122 
0.04197541982 0.03393634735 0.026534892921 0.019869954657 0.014033215471 0.0091113216565 0.0051847739813 0.0023239685258 0.00058400561516 
4.7106922361e-17 
