# vtk DataFile Version 5.1
vtk output
ASCII
DATASET POLYDATA
POINTS 100 float
0.155046 0.109235 -0.644767 0.154976 0.109025 -0.64463 0.154733 0.108185 -0.644176 
0.15431 0.106743 -0.643352 0.1537 0.10475 -0.642073 0.152891 0.102261 -0.640243 
0.151877 0.0993404 -0.637762 0.150654 0.0960457 -0.634546 0.149224 0.0924249 -0.630535 
0.147589 0.0885104 -0.625707 0.145756 0.084317 -0.620082 0.143725 0.0798423 -0.613717 
0.141491 0.0750694 -0.606703 0.139036 0.0699721 -0.599153 0.136323 0.0645215 -0.591187 
0.133295 0.0586931 -0.582918 0.129878 0.0524731 -0.574435 0.125976 0.0458631 -0.565794 
0.121486 0.0388836 -0.557009 0.116297 0.0315742 -0.54805 0.110308 0.0239918 -0.538847 
0.103435 0.0162071 -0.529299 0.0956228 0.00829969 -0.519284 0.0868533 0.000352835 -0.508675 
0.0771515 -0.00755129 -0.497352 0.0665873 -0.015335 -0.485217 0.0552722 -0.0229271 -0.472203 
0.0433529 -0.0302622 -0.458276 0.0310005 -0.0372794 -0.443435 0.0183979 -0.0439192 -0.427708 
0.00572611 -0.0501196 -0.411146 -0.00684821 -0.0558138 -0.393805 -0.0191829 -0.0609285 -0.375743 
-0.0311666 -0.0653842 -0.357005 -0.0427202 -0.0690986 -0.337619 -0.0537936 -0.0719918 -0.317592 
-0.0643582 -0.0739935 -0.296912 -0.074396 -0.0750518 -0.275556 -0.0838875 -0.075141 -0.253495 
-0.0927991 -0.0742694 -0.23071 -0.101073 -0.0724833 -0.207201 -0.108623 -0.0698685 -0.182999 
-0.115329 -0.066547 -0.158168 -0.121047 -0.0626706 -0.132813 -0.125615 -0.0584099 -0.107073 
-0.128868 -0.053941 -0.0811163 -0.130657 -0.0494318 -0.0551282 -0.130864 -0.0450278 -0.0292968 
-0.129421 -0.0408402 -0.00379886 -0.126319 -0.0369388 0.0212143 -0.121619 -0.0333476 0.0456271 
-0.115449 -0.0300479 0.0693668 -0.108002 -0.0269844 0.0924049 -0.099516 -0.024077 0.114754 
-0.0902637 -0.0212349 0.136459 -0.0805258 -0.0183716 0.157589 -0.0705708 -0.0154198 0.178219 
-0.0606338 -0.0123429 0.198423 -0.0509 -0.00914296 0.218259 -0.0414936 -0.00586273 0.237763 
-0.0324731 -0.00258286 0.256947 -0.0238343 0.000586499 0.275796 -0.0155198 0.00351803 0.294278 
-0.00743332 0.00608209 0.312348 0.000542689 0.00816213 0.329964 0.00852786 0.00966871 0.347087 
0.0166266 0.0105503 0.363702 0.0249138 0.0107994 0.379811 0.0334254 0.0104535 0.395445 
0.042155 0.00959003 0.410652 0.0510557 0.00831771 0.425497 0.0600476 0.00676316 0.44005 
0.069029 0.00505665 0.454374 0.0778894 0.00331777 0.468515 0.0865232 0.00164325 0.482493 
0.0948415 9.84642e-05 0.496297 0.102781 -0.00128634 0.50988 0.110307 -0.0025148 0.523169 
0.117415 -0.00361836 0.536066 0.124127 -0.00464661 0.548463 0.130481 -0.00565524 0.560252 
0.136525 -0.00669375 0.571343 0.142304 -0.00779452 0.581668 0.147852 -0.00896495 0.591197 
0.153185 -0.0101839 0.599935 0.158301 -0.011403 0.607924 0.163174 -0.0125522 0.615236 
0.167764 -0.0135497 0.621961 0.172021 -0.0143143 0.628194 0.175891 -0.0147776 0.634025 
0.179329 -0.014896 0.639518 0.182304 -0.0146591 0.644707 0.184802 -0.0140946 0.649591 
0.186832 -0.0132668 0.654127 0.188423 -0.0122717 0.658242 0.189616 -0.0112263 0.661838 
0.190465 -0.0102556 0.664804 0.191022 -0.00947743 0.667036 0.19133 -0.00898862 0.668445 
0.191419 -0.00885284 0.66897 
LINES 2 100
OFFSETS vtktypeint64
0 100 
CONNECTIVITY vtktypeint64
0 1 2 3 4 5 6 7 8 
9 10 11 12 13 14 15 16 17 
18 19 20 21 22 23 24 25 26 
27 28 29 30 31 32 33 34 35 
36 37 38 39 40 41 42 43 44 
45 46 47 48 49 50 51 52 53 
54 55 56 57 58 59 60 61 62 
63 64 65 66 67 68 69 70 71 
72 73 74 75 76 77 78 79 80 
81 82 83 84 85 86 87 88 89 
90 91 92 93 94 95 96 97 98 
99 
POINT_DATA 100
FIELD FieldData 3
_theta 1 100 double
0 0.031733259127 0.063466518254 0.095199777382 0.12693303651 0.15866629564 0.19039955476 0.22213281389 0.25386607302 
0.28559933214 0.31733259127 0.3490658504 0.38079910953 0.41253236865 0.44426562778 0.47599888691 0.50773214603 0.53946540516 
0.57119866429 0.60293192342 0.63466518254 0.66639844167 0.6981317008 0.72986495992 0.76159821905 0.79333147818 0.82506473731 
0.85679799643 0.88853125556 0.92026451469 0.95199777382 0.98373103294 1.0154642921 1.0471975512 1.0789308103 1.1106640695 
1.1423973286 1.1741305877 1.2058638468 1.237597106 1.2693303651 1.3010636242 1.3327968833 1.3645301425 1.3962634016 
1.4279966607 1.4597299198 1.491463179 1.5231964381 1.5549296972 1.5866629564 1.6183962155 1.6501294746 1.6818627337 
1.7135959929 1.745329252 1.7770625111 1.8087957702 1.8405290294 1.8722622885 1.9039955476 1.9357288068 1.9674620659 
1.999195325 2.0309285841 2.0626618433 2.0943951024 2.1261283615 2.1578616206 2.1895948798 2.2213281389 2.253061398 
2.2847946572 2.3165279163 2.3482611754 2.3799944345 2.4117276937 2.4434609528 2.4751942119 2.506927471 2.5386607302 
2.5703939893 2.6021272484 2.6338605076 2.6655937667 2.6973270258 2.7290602849 2.7607935441 2.7925268032 2.8242600623 
2.8559933214 2.8877265806 2.9194598397 2.9511930988 2.982926358 3.0146596171 3.0463928762 3.0781261353 3.1098593945 
3.1415926536 
_radius 1 100 double
9.0631623691e-16 0.015349083139 0.030516194405 0.045336135224 0.059684835054 0.073491950207 0.08674465647 0.099481422224 0.11177628408 
0.1237162344 0.13537616017 0.14679653039 0.15796823495 0.16882694264 0.17925700894 0.18910323719 0.19818802097 0.20633135051 
0.21337142458 0.21918386441 0.22369769285 0.22690638984 0.22887258869 0.22972543999 0.22965038582 0.22887202767 0.22763182844 
0.22616337491 0.22466860128 0.2232984909 0.22214118141 0.22121915081 0.22049556456 0.21988837066 0.21928971791 0.21858781446 
0.2176881931 0.21653130155 0.21510382543 0.21344287444 0.2116340542 0.20980432472 0.20810945182 0.20671642614 0.20578311051 
0.20543887536 0.20577018586 0.20681369568 0.20855689647 0.21094422512 0.2138859335 0.21726781584 0.22096102858 0.22483190977 
0.22875172543 0.23260584316 0.23630130937 0.23977155446 0.24297719914 0.24590265269 0.24854913732 0.2509256387 0.25303980045 
0.25489076514 0.25646538537 0.25773826488 0.25867507748 0.25923788065 0.25939086094 0.25910509788 0.2583613999 0.25715095231 
0.25547425242 0.25333917365 0.25075855591 0.24774674694 0.24431413885 0.24045967682 0.23616296496 0.23137873417 0.22603633492 
0.22004562832 0.21330872942 0.20573523278 0.19725746932 0.18784236218 0.1774975129 0.16627083726 0.15424475464 0.14152699624 
0.12824020684 0.11451187407 0.10046532546 0.08621208024 0.071845771975 0.057437921438 0.043035860271 0.028663069967 0.014322100855 
1.0735372798e-15 
_area 1 100 double
0 0.00064782650818 0.0025588709392 0.0056423270191 0.0097666012028 0.014782951608 0.020548751037 0.026944453914 0.033880334749 
0.041291753156 0.049124298969 0.05731237254 0.065756602481 0.074306613932 0.082755231241 0.090847750228 0.098305927454 0.1048621841 
0.11029647848 0.11446700582 0.11732677176 0.1189215388 0.11937052382 0.11883803112 0.11750842988 0.11557443715 0.11323929984 
0.11072329942 0.10826149504 0.10608434884 0.10438221403 0.10326474887 0.10273312356 0.10268149091 0.10293224941 0.10329279318 
0.10361211429 0.10381516567 0.10389474455 0.10387462377 0.10380018478 0.1037607691 0.10392758851 0.10458503977 0.1059226728 
0.10781835345 0.11012258845 0.11279749496 0.11587361301 0.11939524665 0.12338345541 0.12781846309 0.13263829905 0.13774690411 
0.14302462763 0.14833764224 0.15354692353 0.15851827805 0.16313247944 0.16729251663 0.1709260559 0.17398431802 0.17644046501 
0.17829139977 0.17958466201 0.18056916223 0.18131785498 0.18155100322 0.18108517998 0.17982612523 0.1777213857 0.17476282107 
0.17099054707 0.16649217527 0.16139927929 0.15587484091 0.15008278205 0.14414412818 0.13810035533 0.13190261216 0.12543043778 
0.11853282191 0.1110792134 0.10300536524 0.094340484184 0.085208326194 0.075803481291 0.066352408262 0.057073804389 0.048151780034 
0.039728039209 0.031909975125 0.024785274715 0.01843325615 0.012928367692 0.0083375332639 0.0047157725992 0.0021035479935 0.00052696491309 
1.6856760198e-16 
