# vtk DataFile Version 5.1
vtk output
ASCII
DATASET POLYDATA
POINTS 100 float
0.166225 0.035288 -0.642211 0.166034 0.0352669 -0.642401 0.165534 0.0350853 -0.642979 
0.164771 0.0347451 -0.643802 0.163804 0.0342472 -0.644652 0.162703 0.0335896 -0.645257 
0.161525 0.0327657 -0.645322 0.160305 0.0317619 -0.644558 0.159041 0.0305571 -0.642711 
0.157685 0.0291223 -0.639591 0.156141 0.0274224 -0.635081 0.154267 0.0254189 -0.629145 
0.151892 0.0230737 -0.621827 0.148823 0.0203537 -0.613237 0.144873 0.0172359 -0.603529 
0.139875 0.0137121 -0.592881 0.133708 0.00979237 -0.581468 0.126309 0.00550766 -0.569441 
0.117685 0.000910106 -0.556913 0.107914 -0.00392822 -0.543945 0.0971425 -0.00891849 -0.530547 
0.085572 -0.0139598 -0.516683 0.0734395 -0.0189449 -0.502282 0.0609967 -0.0237665 -0.487256 
0.0484859 -0.0283228 -0.471516 0.0361182 -0.0325237 -0.454986 0.0240555 -0.0362936 -0.43762 
0.0123996 -0.0395751 -0.419402 0.00118835 -0.042329 -0.400354 -0.00959991 -0.0445345 -0.380527 
-0.0200338 -0.0461871 -0.359994 -0.0302108 -0.0472959 -0.338833 -0.040235 -0.0478813 -0.317121 
-0.0501942 -0.0479718 -0.294916 -0.0601378 -0.0476017 -0.272255 -0.0700605 -0.0468095 -0.249148 
-0.0798915 -0.045637 -0.225583 -0.0894923 -0.0441289 -0.201535 -0.0986627 -0.0423325 -0.176976 
-0.107155 -0.0402981 -0.151893 -0.114693 -0.0380786 -0.126299 -0.120998 -0.0357287 -0.100244 
-0.125815 -0.0333039 -0.0738257 -0.128936 -0.030858 -0.0471852 -0.130218 -0.028441 -0.0205037 
-0.129604 -0.0260962 0.00601096 -0.127124 -0.0238581 0.0321404 -0.122893 -0.0217501 0.0576751 
-0.117105 -0.019784 0.0824341 -0.110016 -0.0179606 0.106281 -0.101918 -0.0162715 0.129135 
-0.0931207 -0.0147019 0.150979 -0.0839239 -0.0132354 0.171854 -0.0745973 -0.0118574 0.191849 
-0.0653625 -0.0105603 0.21109 -0.0563819 -0.00934611 0.22972 -0.0477532 -0.00822833 0.247878 
-0.0395115 -0.00723201 0.265682 -0.0316369 -0.00639143 0.283214 -0.0240669 -0.00574593 0.300516 
-0.0167115 -0.00533432 0.317585 -0.00946978 -0.00518835 0.334381 -0.00224578 -0.00532628 0.35084 
0.0050384 -0.00574745 0.366888 0.0124326 -0.00642872 0.38246 0.019953 -0.00732352 0.397513 
0.0275813 -0.0083638 0.412042 0.0352672 -0.00946511 0.42608 0.0429354 -0.0105341 0.439703 
0.0504937 -0.011478 0.453014 0.0578433 -0.0122147 0.466136 0.0648883 -0.0126825 0.479188 
0.0715439 -0.012848 0.492268 0.0777434 -0.012711 0.505433 0.0834421 -0.0123056 0.518688 
0.0886187 -0.0116979 0.531974 0.0932739 -0.0109786 0.545174 0.0974278 -0.0102533 0.558122 
0.101115 -0.00963011 0.570616 0.104379 -0.00920636 0.582444 0.107267 -0.0090565 0.593407 
0.109826 -0.00922202 0.603345 0.112098 -0.00970517 0.612155 0.114117 -0.0104673 0.619804 
0.11591 -0.0114321 0.626334 0.117495 -0.0124936 0.63186 0.118885 -0.0135281 0.636551 
0.120087 -0.0144089 0.640612 0.121108 -0.0150208 0.644258 0.121952 -0.0152755 0.647687 
0.122629 -0.0151224 0.651054 0.123149 -0.014556 0.654455 0.123529 -0.0136184 0.657916 
0.123788 -0.0123955 0.661391 0.12395 -0.0110084 0.66477 0.124039 -0.00960028 0.667898 
0.124076 -0.00832058 0.670597 0.124085 -0.00730829 0.672693 0.12408 -0.0066761 0.674038 
0.124072 -0.00649754 0.674536 
LINES 2 100
OFFSETS vtktypeint64
0 100 
CONNECTIVITY vtktypeint64
0 1 2 3 4 5 6 7 8 
9 10 11 12 13 14 15 16 17 
18 19 20 21 22 23 24 25 26 
27 28 29 30 31 32 33 34 35 
36 37 38 39 40 41 42 43 44 
45 46 47 48 49 50 51 52 53 
54 55 56 57 58 59 60 61 62 
63 64 65 66 67 68 69 70 71 
72 73 74 75 76 77 78 79 80 
81 82 83 84 85 86 87 88 89 
90 91 92 93 94 95 96 97 98 
99 
POINT_DATA 100
FIELD FieldData 3
_theta 1 100 double
0 0.031733259127 0.063466518254 0.095199777382 0.12693303651 0.15866629564 0.19039955476 0.22213281389 0.25386607302 
0.28559933214 0.31733259127 0.3490658504 0.38079910953 0.41253236865 0.44426562778 0.47599888691 0.50773214603 0.53946540516 
0.57119866429 0.60293192342 0.63466518254 0.66639844167 0.6981317008 0.72986495992 0.76159821905 0.79333147818 0.82506473731 
0.85679799643 0.88853125556 0.92026451469 0.95199777382 0.98373103294 1.0154642921 1.0471975512 1.0789308103 1.1106640695 
1.1423973286 1.1741305877 1.2058638468 1.237597106 1.2693303651 1.3010636242 1.3327968833 1.3645301425 1.3962634016 
1.4279966607 1.4597299198 1.491463179 1.5231964381 1.5549296972 1.5866629564 1.6183962155 1.6501294746 1.6818627337 
1.7135959929 1.745329252 1.7770625111 1.8087957702 1.8405290294 1.8722622885 1.9039955476 1.9357288068 1.9674620659 
1.999195325 2.0309285841 2.0626618433 2.0943951024 2.1261283615 2.1578616206 2.1895948798 2.2213281389 2.253061398 
2.2847946572 2.3165279163 2.3482611754 2.3799944345 2.4117276937 2.4434609528 2.4751942119 2.506927471 2.5386607302 
2.5703939893 2.6021272484 2.6338605076 2.6655937667 2.6973270258 2.7290602849 2.7607935441 2.7925268032 2.8242600623 
2.8559933214 2.8877265806 2.9194598397 2.9511930988 2.982926358 3.0146596171 3.0463928762 3.0781261353 3.1098593945 
3.1415926536 
_radius 1 100 double
6.2450045135e-17 0.01645068371 0.032742911997 0.048718817818 0.06423321234 0.079158424156 0.093387192899 0.10683338458 0.11943063284 
0.13112939241 0.14189321241 0.15169516202 0.16051520882 0.16833903859 0.17515848941 0.18097357996 0.18579599081 0.18965361851 
0.19259536744 0.19469486063 0.19605161384 0.19678865383 0.19704639354 0.19697338016 0.19671502872 0.19640168612 0.19613745665 
0.19599113844 0.19599036709 0.19611981319 0.1963241937 0.19651676363 0.19659345627 0.19645173076 0.19601171445 0.19523593455 
0.194143362 0.19281405047 0.19138260833 0.19002198792 0.18892263369 0.18827374864 0.18825122098 0.18901127247 0.19068431004 
0.19336379102 0.19709002654 0.20183456002 0.20749241126 0.21388614965 0.22078088346 0.22790648015 0.23498314437 0.24174723682 
0.24797468342 0.25349944432 0.25822477539 0.2621257707 0.26524291117 0.26766778232 0.26952341019 0.27094248859 0.27204690314 
0.27293132368 0.27365249813 0.27422477505 0.2746216566 0.27478272302 0.27462481674 0.27405588009 0.27298942665 0.2713574198 
0.26911941855 0.26626629686 0.26281767508 0.25881334287 0.2543002075 0.24931738078 0.24388261417 0.23798316283 0.23157324712 
0.22457879128 0.21690849507 0.20846901656 0.19918141903 0.18899608602 0.17790385713 0.1659419382 0.15319398528 0.13978451997 
0.12586845187 0.11161697022 0.097201442294 0.08277720481 0.0684691969 0.054361204983 0.04049007067 0.026845610229 0.013376291728 
1.5735221307e-15 
_area 1 100 double
0 0.00049618068688 0.0020062458411 0.0045802484887 0.0082618763645 0.013050853704 0.018876612793 0.025589292324 0.032967778352 
0.040740461104 0.048612367105 0.056292109945 0.063513360304 0.070047938622 0.075710790762 0.080360291547 0.083899250124 0.086281229103 
0.087523001979 0.087719246654 0.087055041599 0.085830058034 0.084591139461 0.083842064786 0.083523175487 0.083584147653 0.083998834359 
0.084725272399 0.085717437051 0.086925461105 0.088293116035 0.089754278047 0.091233692207 0.092654278539 0.093954922439 0.095114031927 
0.0961610819 0.09716216313 0.09818523621 0.099273876499 0.10044747315 0.1017168917 0.10311251177 0.10472716394 0.10675605227 
0.10950022163 0.11330238752 0.11842509227 0.12494773123 0.13274636729 0.14153704683 0.15093346169 0.16049825491 0.16979143558 
0.17841981988 0.18608291548 0.19260337668 0.19793154587 0.20207226774 0.20501068216 0.20681473182 0.20764843054 0.2076706748 
0.20703265817 0.20601328324 0.20477621663 0.20324927248 0.20144384049 0.19931308208 0.1967818226 0.19377713898 0.19024380141 
0.18615518603 0.18151948568 0.17637869646 0.17079672144 0.16483775818 0.1585414798 0.15190393107 0.14487190384 0.13735463013 
0.12925110886 0.12048587943 0.11104274483 0.10098642751 0.090466099623 0.079700294901 0.068947949258 0.058473951336 0.048518660901 
0.039278576926 0.030900059277 0.023482456196 0.017084815047 0.011732340723 0.0074221811742 0.0041301101735 0.0018194844061 0.00045224893874 
5.3260906424e-18 
