# vtk DataFile Version 5.1
vtk output
ASCII
DATASET POLYDATA
POINTS 100 float
0.112299 0.0796952 -0.678998 0.112238 0.079422 -0.67934 0.112092 0.0783943 -0.680205 
0.111863 0.076662 -0.681417 0.111554 0.0743033 -0.682705 0.111173 0.0714165 -0.683736 
0.110725 0.0681097 -0.684152 0.110219 0.0644894 -0.683609 0.109663 0.0606503 -0.681813 
0.109059 0.0566666 -0.678553 0.108404 0.0525856 -0.673715 0.10768 0.0484258 -0.667295 
0.106856 0.0441774 -0.659386 0.105882 0.0398072 -0.650165 0.104685 0.035266 -0.639864 
0.103175 0.0304979 -0.628735 0.101247 0.0254509 -0.61702 0.0987848 0.0200867 -0.60492 
0.0956743 0.0143892 -0.592568 0.0918119 0.0083711 -0.580022 0.0871164 0.00207673 -0.567257 
0.0815403 -0.00441761 -0.554177 0.0750779 -0.0110069 -0.540634 0.0677704 -0.0175633 -0.52645 
0.0597066 -0.0239441 -0.511447 0.0510185 -0.0300008 -0.495475 0.0418722 -0.0355885 -0.478432 
0.032454 -0.0405752 -0.460278 0.022955 -0.0448491 -0.441045 0.0135535 -0.0483244 -0.420829 
0.00439948 -0.0509452 -0.399777 -0.0043988 -0.0526871 -0.378068 -0.0127824 -0.053557 -0.355891 
-0.0207437 -0.0535904 -0.333415 -0.0283222 -0.0528486 -0.310775 -0.0355931 -0.0514144 -0.28805 
-0.0426519 -0.0493871 -0.265262 -0.0495948 -0.0468777 -0.242373 -0.0564988 -0.044004 -0.219294 
-0.0634033 -0.0408861 -0.195906 -0.0702954 -0.0376412 -0.172081 -0.0771017 -0.0343802 -0.147699 
-0.0836872 -0.0312031 -0.122676 -0.0898622 -0.0281953 -0.0969793 -0.0953967 -0.0254249 -0.0706353 
-0.10004 -0.0229396 -0.0437339 -0.103544 -0.0207654 -0.0164232 -0.105689 -0.0189058 0.0111042 
-0.106304 -0.017343 0.0386281 -0.105289 -0.0160402 0.0659215 -0.102619 -0.0149453 0.0927709 
-0.0983566 -0.0139961 0.118995 -0.0926382 -0.0131269 0.144455 -0.0856663 -0.0122748 0.169067 
-0.0776888 -0.0113866 0.192797 -0.0689759 -0.0104245 0.215656 -0.0597962 -0.00937071 0.237695 
-0.0503945 -0.0082296 0.258984 -0.0409729 -0.00702827 0.279602 -0.0316793 -0.00581403 0.299624 
-0.022602 -0.00465009 0.319109 -0.0137725 -0.00360918 0.338097 -0.00517408 -0.00276626 0.356608 
0.00324412 -0.00219074 0.374644 0.0115504 -0.00193936 0.392196 0.0198136 -0.00205046 0.409255 
0.0280881 -0.00254023 0.425819 0.0364026 -0.00340151 0.441899 0.0447549 -0.00460515 0.457525 
0.0531114 -0.00610375 0.472743 0.0614129 -0.00783728 0.487614 0.0695842 -0.00973984 0.502202 
0.0775464 -0.0117466 0.516567 0.0852289 -0.0138004 0.53075 0.092581 -0.0158562 0.544769 
0.0995788 -0.0178843 0.558607 0.106228 -0.0198704 0.57221 0.112562 -0.0218139 0.58549 
0.118634 -0.0237238 0.598332 0.124506 -0.0256133 0.610602 0.130236 -0.0274939 0.622165 
0.135867 -0.0293698 0.632898 0.141411 -0.0312336 0.642702 0.14685 -0.033064 0.651517 
0.152127 -0.0348257 0.659327 0.157152 -0.0364719 0.666159 0.161817 -0.0379491 0.672082 
0.166 -0.0392036 0.677199 0.169588 -0.0401883 0.681629 0.172492 -0.0408703 0.6855 
0.174661 -0.0412362 0.688927 0.17609 -0.0412961 0.692006 0.176829 -0.0410846 0.694799 
0.176975 -0.0406591 0.697337 0.176669 -0.0400952 0.699616 0.176077 -0.0394791 0.701604 
0.175374 -0.0388994 0.703252 0.174724 -0.0384373 0.704503 0.17426 -0.0381585 0.705305 
0.174069 -0.0381053 0.705624 
LINES 2 100
OFFSETS vtktypeint64
0 100 
CONNECTIVITY vtktypeint64
0 1 2 3 4 5 6 7 8 
9 10 11 12 13 14 15 16 17 
18 19 20 21 22 23 24 25 26 
27 28 29 30 31 32 33 34 35 
36 37 38 39 40 41 42 43 44 
45 46 47 48 49 50 51 52 53 
54 55 56 57 58 59 60 61 62 
63 64 65 66 67 68 69 70 71 
72 73 74 75 76 77 78 79 80 
81 82 83 84 85 86 87 88 89 
90 91 92 93 94 95 96 97 98 
99 
POINT_DATA 100
FIELD FieldData 3
_theta 1 100 double
0 0.031733259127 0.063466518254 0.095199777382 0.12693303651 0.15866629564 0.19039955476 0.22213281389 0.25386607302 
0.28559933214 0.31733259127 0.3490658504 0.38079910953 0.41253236865 0.44426562778 0.47599888691 0.50773214603 0.53946540516 
0.57119866429 0.60293192342 0.63466518254 0.66639844167 0.6981317008 0.72986495992 0.76159821905 0.79333147818 0.82506473731 
0.85679799643 0.88853125556 0.92026451469 0.95199777382 0.98373103294 1.0154642921 1.0471975512 1.0789308103 1.1106640695 
1.1423973286 1.1741305877 1.2058638468 1.237597106 1.2693303651 1.3010636242 1.3327968833 1.3645301425 1.3962634016 
1.4279966607 1.4597299198 1.491463179 1.5231964381 1.5549296972 1.5866629564 1.6183962155 1.6501294746 1.6818627337 
1.7135959929 1.745329252 1.7770625111 1.8087957702 1.8405290294 1.8722622885 1.9039955476 1.9357288068 1.9674620659 
1.999195325 2.0309285841 2.0626618433 2.0943951024 2.1261283615 2.1578616206 2.1895948798 2.2213281389 2.253061398 
2.2847946572 2.3165279163 2.3482611754 2.3799944345 2.4117276937 2.4434609528 2.4751942119 2.506927471 2.5386607302 
2.5703939893 2.6021272484 2.6338605076 2.6655937667 2.6973270258 2.7290602849 2.7607935441 2.7925268032 2.8242600623 
2.8559933214 2.8877265806 2.9194598397 2.9511930988 2.982926358 3.0146596171 3.0463928762 3.0781261353 3.1098593945 
3.1415926536 
_radius 1 100 double
2.4077061973e-16 0.015237104319 0.030305835289 0.045055710444 0.059375549366 0.073200953335 0.086511560543 0.09932022946 0.11165776048 
0.12355643192 0.13503472467 0.14608527666 0.15666805472 0.16671002564 0.17611114443 0.18475508936 0.19252261397 0.19930566107 
0.20502096441 0.20962222719 0.21310993249 0.21553758734 0.21701307623 0.21769407161 0.21777716486 0.21748137912 0.21702775024 
0.21661746817 0.21641146929 0.21651424055 0.21696397354 0.21773032666 0.21872020989 0.21979127994 0.22077207057 0.22148677148 
0.22178172433 0.22154998946 0.22075011164 0.21941566789 0.21765344925 0.21563027232 0.21355120868 0.21163459912 0.21009017358 
0.20910483275 0.20883643258 0.20941136922 0.21091999057 0.21340644388 0.2168548389 0.22117795298 0.22621532564 0.23174426296 
0.23750225704 0.24321557392 0.24862779548 0.25352344265 0.25774405227 0.26119608415 0.26385132497 0.26574104772 0.26694531824 
0.2675787883 0.26777429085 0.26766566182 0.2673714188 0.26698108014 0.26654581693 0.26607465468 0.26553657396 0.26486774514 
0.26398207357 0.26278261896 0.26117159606 0.25905754188 0.25635942062 0.25300835901 0.24894803853 0.24413457779 0.23853630762 
0.23213344969 0.22491750297 0.21689013827 0.20806154465 0.19844838586 0.1880717251 0.17695538787 0.16512519644 0.15260930409 
0.1394395161 0.12565312226 0.11129455459 0.096416260888 0.081078530135 0.065348428899 0.049298283574 0.033004165048 0.016544661126 
9.6176643818e-16 
_area 1 100 double
0 0.00067547713516 0.0026650674602 0.0058680652829 0.010144994861 0.015345583065 0.021325512348 0.027949694949 0.035092528135 
0.042639155174 0.050478367043 0.058481027891 0.066475598243 0.074242039429 0.081533615827 0.088116246259 0.093805381189 0.098483549261 
0.1020930494 0.1046128937 0.10603948961 0.10638784833 0.10571363469 0.10413935001 0.10186516191 0.099156555327 0.096316295169 
0.093657410552 0.091495927243 0.090186133581 0.089954572873 0.090950697671 0.092914720156 0.095531098889 0.098467372385 0.1013745471 
0.10394260056 0.10595138562 0.10730245836 0.10802812652 0.10827941864 0.10829695133 0.10836807791 0.10876995152 0.10970300895 
0.11125192917 0.11342385442 0.11623082839 0.11973188346 0.12401587088 0.12916119098 0.13520212415 0.1421019477 0.14972680501 
0.15782877164 0.16605400918 0.17398181517 0.18118420816 0.18728914631 0.19203388742 0.19530044014 0.19712945968 0.19771279232 
0.19736642601 0.19647740426 0.19540065946 0.19433300449 0.19329501969 0.19221024064 0.1909698895 0.18946610387 0.18760650725 
0.18531590747 0.18253356745 0.17921253701 0.17531818201 0.17082184285 0.16569229081 0.15989102526 0.15337505559 0.14610682716 
0.13806828251 0.12927520987 0.11978830488 0.10971795885 0.099220713886 0.088487098124 0.077723145762 0.06713040773 0.056890308291 
0.047157198327 0.03806054176 0.029712493239 0.022215572381 0.015666902462 0.010158397191 0.005774067529 0.0025859121009 0.0006494933738 
3.5468180926e-17 
