# vtk DataFile Version 5.1
vtk output
ASCII
DATASET POLYDATA
POINTS 100 float
0.120695 0.0268824 -0.665318 0.120616 0.0270793 -0.665348 0.120384 0.0275085 -0.665422 
0.119965 0.0281213 -0.665405 0.119303 0.0288397 -0.665091 0.118336 0.0295617 -0.664227 
0.116996 0.0301676 -0.662548 0.115221 0.0305279 -0.659802 0.112967 0.0305126 -0.655788 
0.110203 0.03 -0.650373 0.106922 0.028886 -0.64351 0.103138 0.0270926 -0.635241 
0.0988803 0.024574 -0.625689 0.0941893 0.0213223 -0.615042 0.0891103 0.0173688 -0.603527 
0.0836861 0.0127838 -0.591384 0.0779526 0.00767265 -0.578835 0.0719356 0.00216986 -0.566062 
0.0656506 -0.00356998 -0.553185 0.0591058 -0.00938224 -0.540255 0.0523064 -0.0151033 -0.527255 
0.0452614 -0.0205814 -0.514109 0.0379893 -0.0256861 -0.500695 0.0305231 -0.0303158 -0.486875 
0.0229127 -0.0344024 -0.472513 0.0152245 -0.0379127 -0.457498 0.00753608 -0.0408468 -0.441761 
-7.05625e-05 -0.0432327 -0.425286 -0.00751979 -0.0451195 -0.408112 -0.0147531 -0.0465682 -0.39032 
-0.0217393 -0.0476421 -0.372025 -0.0284822 -0.0483985 -0.353355 -0.0350241 -0.0488806 -0.334425 
-0.0414437 -0.0491132 -0.31532 -0.0478481 -0.0491004 -0.296081 -0.05436 -0.0488268 -0.276689 
-0.0610996 -0.0482615 -0.257071 -0.0681651 -0.0473646 -0.237102 -0.075613 -0.0460948 -0.216623 
-0.0834405 -0.0444183 -0.195462 -0.0915739 -0.0423165 -0.173459 -0.0998635 -0.039792 -0.150487 
-0.108088 -0.0368731 -0.126478 -0.115964 -0.0336145 -0.101435 -0.123172 -0.0300957 -0.075441 
-0.129374 -0.026416 -0.0486548 -0.13425 -0.022688 -0.0213022 -0.137524 -0.0190292 0.00634261 
-0.13899 -0.0155529 0.0339805 -0.13853 -0.0123606 0.0613129 -0.13613 -0.00953455 0.0880667 
-0.131877 -0.0071336 0.114015 -0.12595 -0.00519076 0.138995 -0.118603 -0.0037137 0.16291 
-0.11014 -0.00268759 0.185736 -0.100882 -0.00207962 0.207511 -0.0911428 -0.00184473 0.22832 
-0.081195 -0.00193165 0.248281 -0.0712535 -0.00228838 0.267523 -0.0614604 -0.00286657 0.286171 
-0.0518813 -0.00362435 0.304333 -0.0425117 -0.00452732 0.322087 -0.0332912 -0.00554799 0.339481 
-0.0241239 -0.0066638 0.356534 -0.0149022 -0.00785449 0.373243 -0.00553099 -0.00909915 0.38959 
0.00405176 -0.0103739 0.405557 0.01386 -0.0116504 0.421131 0.0238522 -0.012896 0.436317 
0.033932 -0.0140745 0.451135 0.0439575 -0.0151495 0.465622 0.0537562 -0.016087 0.479827 
0.063145 -0.0168599 0.493801 0.0719508 -0.0174511 0.507588 0.0800305 -0.0178564 0.521211 
0.0872858 -0.0180852 0.534667 0.093673 -0.0181606 0.547917 0.0992052 -0.0181167 0.560887 
0.103947 -0.0179952 0.573472 0.108001 -0.0178399 0.585539 0.111498 -0.0176919 0.596944 
0.11457 -0.0175839 0.607543 0.117341 -0.0175367 0.617206 0.119906 -0.0175556 0.625831 
0.122324 -0.017631 0.633352 0.124615 -0.0177388 0.639749 0.126762 -0.0178448 0.645047 
0.128716 -0.0179094 0.649311 0.130415 -0.0178935 0.652643 0.131795 -0.0177651 0.655168 
0.132804 -0.017504 0.657023 0.133418 -0.0171065 0.658348 0.133645 -0.0165867 0.659271 
0.133531 -0.0159764 0.659903 0.133154 -0.015322 0.660336 0.132617 -0.0146797 0.660635 
0.132033 -0.0141096 0.660848 0.131512 -0.0136682 0.661003 0.131146 -0.0134021 0.661116 
0.130993 -0.0133424 0.661193 
LINES 2 100
OFFSETS vtktypeint64
0 100 
CONNECTIVITY vtktypeint64
0 1 2 3 4 5 6 7 8 
9 10 11 12 13 14 15 16 17 
18 19 20 21 22 23 24 25 26 
27 28 29 30 31 32 33 34 35 
36 37 38 39 40 41 42 43 44 
45 46 47 48 49 50 51 52 53 
54 55 56 57 58 59 60 61 62 
63 64 65 66 67 68 69 70 71 
72 73 74 75 76 77 78 79 80 
81 82 83 84 85 86 87 88 89 
90 91 92 93 94 95 96 97 98 
99 
POINT_DATA 100
FIELD FieldData 3
_theta 1 100 double
0 0.031733259127 0.063466518254 0.095199777382 0.12693303651 0.15866629564 0.19039955476 0.22213281389 0.25386607302 
0.28559933214 0.31733259127 0.3490658504 0.38079910953 0.41253236865 0.44426562778 0.47599888691 0.50773214603 0.53946540516 
0.57119866429 0.60293192342 0.63466518254 0.66639844167 0.6981317008 0.72986495992 0.76159821905 0.79333147818 0.82506473731 
0.85679799643 0.88853125556 0.92026451469 0.95199777382 0.98373103294 1.0154642921 1.0471975512 1.0789308103 1.1106640695 
1.1423973286 1.1741305877 1.2058638468 1.237597106 1.2693303651 1.3010636242 1.3327968833 1.3645301425 1.3962634016 
1.4279966607 1.4597299198 1.491463179 1.5231964381 1.5549296972 1.5866629564 1.6183962155 1.6501294746 1.6818627337 
1.7135959929 1.745329252 1.7770625111 1.8087957702 1.8405290294 1.8722622885 1.9039955476 1.9357288068 1.9674620659 
1.999195325 2.0309285841 2.0626618433 2.0943951024 2.1261283615 2.1578616206 2.1895948798 2.2213281389 2.253061398 
2.2847946572 2.3165279163 2.3482611754 2.3799944345 2.4117276937 2.4434609528 2.4751942119 2.506927471 2.5386607302 
2.5703939893 2.6021272484 2.6338605076 2.6655937667 2.6973270258 2.7290602849 2.7607935441 2.7925268032 2.8242600623 
2.8559933214 2.8877265806 2.9194598397 2.9511930988 2.982926358 3.0146596171 3.0463928762 3.0781261353 3.1098593945 
3.1415926536 
_radius 1 100 double
7.9219714052e-16 0.016467700116 0.032652843149 0.048289977164 0.06314725772 0.077041536279 0.089850637109 0.10152096783 0.11206870849 
0.12157348517 0.13016454069 0.13800074504 0.14524707436 0.15205115977 0.15852390094 0.16472766068 0.17067401286 0.17633069397 
0.18163523939 0.18651174073 0.1908874398 0.19470687855 0.19794232435 0.20059982239 0.20272051499 0.20437701565 0.20566486751 
0.20668962195 0.20755088716 0.20832567746 0.20905420233 0.2097314061 0.21030673236 0.21069276108 0.21078111503 0.21046224976 
0.20964513344 0.20827348221 0.20633663659 0.20387462368 0.2009779237 0.19778281822 0.19446319356 0.19121974628 0.18826789031 
0.18582583737 0.18410349521 0.18329102854 0.18354457349 0.18496734385 0.18758775304 0.19134106828 0.19606417699 0.20151003344 
0.20737941114 0.21335964121 0.21915929655 0.22453276511 0.22929388368 0.23332046078 0.2365521093 0.23898362782 0.24065585625 
0.24164554282 0.24205522676 0.24200354552 0.24161594173 0.24101565797 0.24031512873 0.23960816385 0.2389634312 0.23841966609 
0.23798289246 0.23762577146 0.23728891404 0.23688364375 0.2362955555 0.23538851391 0.23400935397 0.23199407058 0.22917628911 
0.22539814153 0.22052258533 0.21444526792 0.20710377779 0.19848264818 0.18861347839 0.1775705627 0.16546313321 0.1524256031 
0.13860709176 0.12416119729 0.10923665173 0.093969284879 0.078475650537 0.062848668524 0.047155624642 0.031438788252 0.015718715075 
1.2521819546e-15 
_area 1 100 double
0 0.00054202562777 0.0021698141187 0.0048786713644 0.0086332096644 0.013341969585 0.018845567919 0.02492591085 0.031333686931 
0.037824745516 0.044195031287 0.05030580248 0.056093062301 0.061557268997 0.066733709637 0.07165176753 0.076298905643 0.080605326833 
0.084455783141 0.087722085119 0.090301452247 0.092145651069 0.093272931274 0.09376579574 0.093780178914 0.093609868506 0.093409071862 
0.093251756556 0.093303100359 0.093709300345 0.094561476252 0.095849186504 0.097440583976 0.099113431497 0.10060919384 0.10169009653 
0.10218247347 0.10199586853 0.10112661614 0.099660550255 0.097776313522 0.095742189149 0.093893442819 0.092556021489 0.091914125365 
0.091963349738 0.092616823078 0.093816198901 0.095592907072 0.098079764974 0.10146474544 0.10590116841 0.11142197537 0.1178983134 
0.12503130063 0.13240133082 0.13957141395 0.14616197846 0.15188389977 0.15654773909 0.16005730564 0.1623925523 0.16359008964 
0.163730922 0.16293910676 0.16138521257 0.15928308611 0.15687155266 0.15438343432 0.15201626197 0.14991499003 0.14815736915 
0.14673501232 0.14555074768 0.14444975887 0.14326367407 0.14183621256 0.14002276492 0.13767552986 0.13463116135 0.13071444446 
0.12576119294 0.11965256957 0.11234842304 0.10390882159 0.094497447993 0.084366168886 0.073825472504 0.063208707877 0.052838337376 
0.043000427952 0.033930173105 0.025806989974 0.018754770709 0.012843775867 0.0080943936843 0.0044854302156 0.00196863046 0.00048805119862 
7.4707885295e-17 
