# vtk DataFile Version 5.1
vtk output
ASCII
DATASET POLYDATA
POINTS 100 float
0.30472 0.0591691 -0.667559 0.303982 0.0592334 -0.666915 0.301834 0.0592704 -0.665149 
0.298373 0.0592703 -0.662315 0.293754 0.0592141 -0.658494 0.288164 0.0590712 -0.653787 
0.281805 0.0587967 -0.648305 0.274868 0.0583302 -0.642161 0.267515 0.0575953 -0.63546 
0.259861 0.0565018 -0.628288 0.251967 0.0549504 -0.620712 0.243836 0.0528397 -0.61277 
0.235423 0.0500746 -0.604476 0.226647 0.0465765 -0.595817 0.217407 0.0422928 -0.586762 
0.207607 0.0372058 -0.577265 0.19717 0.0313383 -0.567275 0.186059 0.0247569 -0.556736 
0.174285 0.0175706 -0.545602 0.16191 0.00992612 -0.533833 0.149043 0.00199904 -0.521401 
0.135828 -0.00601775 -0.508287 0.12243 -0.0139271 -0.494485 0.109012 -0.0215411 -0.479991 
0.0957176 -0.0286931 -0.464804 0.0826553 -0.0352473 -0.448917 0.0698856 -0.0411053 -0.43232 
0.0574178 -0.0462078 -0.414993 0.0452134 -0.0505332 -0.396906 0.0331976 -0.0540913 -0.378024 
0.0212761 -0.0569158 -0.358309 0.00935652 -0.0590541 -0.337728 -0.00262972 -0.0605581 -0.316256 
-0.014707 -0.061475 -0.29389 -0.0268402 -0.0618421 -0.27065 -0.0389271 -0.0616833 -0.246586 
-0.0507978 -0.0610097 -0.221785 -0.0622246 -0.0598234 -0.196365 -0.0729386 -0.0581236 -0.170477 
-0.0826527 -0.0559141 -0.144298 -0.0910889 -0.0532111 -0.118021 -0.0980043 -0.0500496 -0.0918491 
-0.103216 -0.0464877 -0.065978 -0.106619 -0.0426079 -0.0405892 -0.108197 -0.0385148 -0.0158375 
-0.108026 -0.0343293 0.00815729 -0.106265 -0.0301808 0.0313164 -0.103139 -0.0261967 0.053605 
-0.0989238 -0.0224925 0.0750313 -0.0939137 -0.0191618 0.0956432 -0.0884001 -0.0162695 0.115521 
-0.0826462 -0.0138469 0.13477 -0.0768682 -0.0118918 0.153506 -0.0712231 -0.0103711 0.171852 
-0.0658038 -0.00922749 0.189921 -0.0606416 -0.00838822 0.207811 -0.0557157 -0.007775 0.225597 
-0.0509675 -0.00731415 0.243328 -0.0463177 -0.00694506 0.261024 -0.0416841 -0.00662638 0.278678 
-0.0369971 -0.00633894 0.29626 -0.0322125 -0.00608523 0.313721 -0.0273185 -0.00588565 0.331001 
-0.0223375 -0.00577222 0.348034 -0.0173231 -0.00578072 0.364755 -0.0123526 -0.00594249 0.381111 
-0.00751631 -0.00627711 0.397056 -0.00290606 -0.00678709 0.412564 0.00139585 -0.00745536 0.427624 
0.00532571 -0.00824588 0.442241 0.00884432 -0.00910731 0.456437 0.011939 -0.00997924 0.470243 
0.0146222 -0.0108001 0.483698 0.0169262 -0.0115153 0.496843 0.0188965 -0.0120852 0.509719 
0.0205832 -0.012491 0.522359 0.0220332 -0.0127373 0.534787 0.0232835 -0.012853 0.547015 
0.024357 -0.0128877 0.559043 0.0252606 -0.0129058 0.570855 0.0259864 -0.0129789 0.582427 
0.0265157 -0.0131767 0.59372 0.0268235 -0.0135587 0.604688 0.0268853 -0.0141665 0.615279 
0.026683 -0.0150194 0.625442 0.0262094 -0.0161121 0.635121 0.0254719 -0.0174156 0.644266 
0.0244936 -0.018881 0.652833 0.0233124 -0.0204456 0.660784 0.0219784 -0.0220402 0.668086 
0.0205499 -0.0235967 0.674719 0.0190888 -0.025055 0.680666 0.0176564 -0.0263681 0.68592 
0.0163088 -0.0275049 0.690477 0.0150949 -0.028451 0.694338 0.0140545 -0.0292062 0.697506 
0.0132178 -0.029781 0.699987 0.0126063 -0.0301913 0.701785 0.0122338 -0.0304537 0.7029 
0.0121077 -0.0305801 0.703335 
LINES 2 100
OFFSETS vtktypeint64
0 100 
CONNECTIVITY vtktypeint64
0 1 2 3 4 5 6 7 8 
9 10 11 12 13 14 15 16 17 
18 19 20 21 22 23 24 25 26 
27 28 29 30 31 32 33 34 35 
36 37 38 39 40 41 42 43 44 
45 46 47 48 49 50 51 52 53 
54 55 56 57 58 59 60 61 62 
63 64 65 66 67 68 69 70 71 
72 73 74 75 76 77 78 79 80 
81 82 83 84 85 86 87 88 89 
90 91 92 93 94 95 96 97 98 
99 
POINT_DATA 100
FIELD FieldData 3
_theta 1 100 double
0 0.031733259127 0.063466518254 0.095199777382 0.12693303651 0.15866629564 0.19039955476 0.22213281389 0.25386607302 
0.28559933214 0.31733259127 0.3490658504 0.38079910953 0.41253236865 0.44426562778 0.47599888691 0.50773214603 0.53946540516 
0.57119866429 0.60293192342 0.63466518254 0.66639844167 0.6981317008 0.72986495992 0.76159821905 0.79333147818 0.82506473731 
0.85679799643 0.88853125556 0.92026451469 0.95199777382 0.98373103294 1.0154642921 1.0471975512 1.0789308103 1.1106640695 
1.1423973286 1.1741305877 1.2058638468 1.237597106 1.2693303651 1.3010636242 1.3327968833 1.3645301425 1.3962634016 
1.4279966607 1.4597299198 1.491463179 1.5231964381 1.5549296972 1.5866629564 1.6183962155 1.6501294746 1.6818627337 
1.7135959929 1.745329252 1.7770625111 1.8087957702 1.8405290294 1.8722622885 1.9039955476 1.9357288068 1.9674620659 
1.999195325 2.0309285841 2.0626618433 2.0943951024 2.1261283615 2.1578616206 2.1895948798 2.2213281389 2.253061398 
2.2847946572 2.3165279163 2.3482611754 2.3799944345 2.4117276937 2.4434609528 2.4751942119 2.506927471 2.5386607302 
2.5703939893 2.6021272484 2.6338605076 2.6655937667 2.6973270258 2.7290602849 2.7607935441 2.7925268032 2.8242600623 
2.8559933214 2.8877265806 2.9194598397 2.9511930988 2.982926358 3.0146596171 3.0463928762 3.0781261353 3.1098593945 
3.1415926536 
_radius 1 100 double
7.1305364827e-16 0.016246873931 0.032260159974 0.047833749621 0.062810831704 0.077094110216 0.090642576631 0.10345581028 0.1155501378 
0.12693338124 0.13758539257 0.1474497474 0.15643846715 0.16444778732 0.17138012459 0.17716629044 0.18178270276 0.18526032296 
0.18768447072 0.18918677133 0.18993178392 0.19010119268 0.18987797347 0.18943207389 0.18890836359 0.18841727643 0.18802867981 
0.18776974822 0.18762761353 0.187557148 0.18749348868 0.18736804846 0.18712602045 0.18674297721 0.18623819312 0.18568266649 
0.18520017001 0.18495991929 0.18516036984 0.18600618804 0.18768363228 0.1903402657 0.19407155995 0.19891266649 0.2048328173 
0.21173254752 0.21944626162 0.22775191555 0.23638715324 0.24506972396 0.25351990611 0.26148289015 0.26874899321 0.2751694508 
0.28066579699 0.28523158419 0.28892618571 0.29186142004 0.29418260708 0.29604635831 0.29759785926 0.29895053056 0.30017067308 
0.30126901164 0.30220006364 0.30286915128 0.3031458344 0.30288170792 0.30192999307 0.30016421468 0.2974935071 0.29387267308 
0.28930593047 0.28384418689 0.27757655021 0.27061750083 0.26309164267 0.2551181738 0.24679716674 0.23819944363 0.22936131372 
0.22028475808 0.21094285618 0.20128942619 0.19127111189 0.18083965547 0.16996202688 0.15862657089 0.1468443598 0.1346462261 
0.12207699496 0.10918880311 0.096035053017 0.08266590305 0.069125634239 0.055451856413 0.041676218475 0.027826029013 0.013926069279 
1.6275479311e-15 
_area 1 100 double
0 0.00067119825578 0.00264949561 0.0058333234055 0.010067484245 0.015162904503 0.020920647958 0.027154689935 0.033705640588 
0.040439626869 0.047234823655 0.053965046359 0.060487870476 0.066640291243 0.072244561132 0.07712630539 0.08114242629 0.084210595097 
0.086330045952 0.087586891745 0.088144163702 0.088216605928 0.088006958644 0.087618360207 0.087075243426 0.086401887723 0.085650985369 
0.084899829791 0.084244593267 0.083767182312 0.083517949805 0.083547048023 0.083860448575 0.084445071011 0.085290664946 0.086392162252 
0.087747068055 0.089349444707 0.091200572733 0.093336991962 0.095880545593 0.098922595688 0.10266706802 0.10745384272 0.11348633394 
0.12078450964 0.12932854465 0.13901563371 0.14962828931 0.16082889382 0.17217671883 0.18318521337 0.1933992801 0.20246178655 
0.21015266995 0.21639516672 0.22123585982 0.22481323759 0.22732476554 0.2289956677 0.23005348957 0.23071240697 0.23117204764 
0.23171225711 0.23236924134 0.23283806245 0.23281309015 0.23204352129 0.23030733803 0.22742155393 0.2232633856 0.21778977156 
0.2110470927 0.20316630589 0.19434406509 0.18481481078 0.17482011106 0.16458057634 0.15427423866 0.14402418431 0.13389716738 
0.12391322215 0.11406363817 0.10433195408 0.094711592201 0.085215354026 0.075875611519 0.066738126418 0.0578551799 0.049283326849 
0.041087174868 0.033345607088 0.026154847861 0.019625136914 0.013871943471 0.0090052640418 0.0051205321685 0.0022930261901 0.00057580817997 
1.7348928567e-17 
