# vtk DataFile Version 5.1
vtk output
ASCII
DATASET POLYDATA
POINTS 100 float
0.0923883 0.0627835 -0.657301 0.0926569 0.0626931 -0.657602 0.0934392 0.0622644 -0.658464 
0.0946535 0.0615206 -0.659747 0.0961733 0.0604963 -0.661226 0.0978408 0.0592324 -0.662624 
0.0994824 0.0577693 -0.66363 0.100926 0.0561404 -0.663935 0.102015 0.0543663 -0.663258 
0.102623 0.0524506 -0.661373 0.102659 0.0503785 -0.658124 0.102069 0.0481173 -0.653436 
0.100837 0.0456203 -0.647318 0.0989716 0.0428322 -0.639852 0.0965024 0.0396963 -0.631179 
0.0934636 0.0361624 -0.621476 0.0898856 0.0321938 -0.610938 0.0857867 0.0277736 -0.599748 
0.0811689 0.0229086 -0.588062 0.0760182 0.0176311 -0.575989 0.0703091 0.0119982 -0.56359 
0.0640134 0.0060886 -0.550866 0.0571104 -2.03534e-06 -0.537775 0.0495981 -0.00616728 -0.524233 
0.0415024 -0.012296 -0.510138 0.0328837 -0.0182783 -0.495382 0.0238381 -0.0240104 -0.47987 
0.0144948 -0.029398 -0.463532 0.00500673 -0.0343584 -0.446335 -0.00446107 -0.0388214 -0.428288 
-0.013747 -0.0427285 -0.409437 -0.0227082 -0.0460328 -0.389862 -0.0312345 -0.0486977 -0.369668 
-0.0392584 -0.050697 -0.348966 -0.0467603 -0.0520154 -0.327867 -0.0537666 -0.0526498 -0.306461 
-0.0603428 -0.0526113 -0.284816 -0.0665803 -0.0519275 -0.262965 -0.0725794 -0.0506444 -0.240908 
-0.0784308 -0.0488272 -0.218618 -0.084198 -0.0465598 -0.19604 -0.089902 -0.0439424 -0.173109 
-0.0955124 -0.0410865 -0.149761 -0.100944 -0.0381089 -0.12594 -0.106059 -0.0351236 -0.101614 
-0.110682 -0.0322333 -0.0767803 -0.114611 -0.0295217 -0.0514729 -0.117642 -0.0270469 -0.0257609 
-0.119582 -0.0248372 0.000251721 -0.120279 -0.0228905 0.0264324 -0.119626 -0.0211767 0.0526275 
-0.117578 -0.0196436 0.0786719 -0.114153 -0.0182261 0.104398 -0.109425 -0.0168565 0.129646 
-0.103518 -0.0154761 0.15427 -0.0965895 -0.0140452 0.178146 -0.0888126 -0.0125514 0.201174 
-0.080359 -0.0110142 0.223284 -0.0713837 -0.00948528 0.244431 -0.0620141 -0.00804431 0.2646 
-0.0523434 -0.00679059 0.283802 -0.0424313 -0.00583146 0.302072 -0.0323089 -0.00526879 0.319466 
-0.021989 -0.00518522 0.336058 -0.0114779 -0.00563199 0.351937 -0.000788811 -0.00661994 0.367206 
0.0100473 -0.00811502 0.381973 0.0209736 -0.0100389 0.396346 0.0319044 -0.0122752 0.410432 
0.0427274 -0.0146799 0.424326 0.0533109 -0.0170958 0.438107 0.063515 -0.0193686 0.451829 
0.0732051 -0.0213629 0.46552 0.0822663 -0.0229759 0.479176 0.0906152 -0.0241477 0.492761 
0.0982093 -0.0248663 0.506207 0.10505 -0.0251669 0.519417 0.111183 -0.0251254 0.532277 
0.116688 -0.0248476 0.544658 0.12167 -0.0244547 0.55643 0.126246 -0.024067 0.567472 
0.130524 -0.0237892 0.577682 0.134596 -0.0236968 0.586983 0.138523 -0.0238279 0.595333 
0.142329 -0.0241794 0.602722 0.146002 -0.0247093 0.609178 0.149495 -0.0253443 0.614755 
0.15274 -0.0259909 0.619534 0.155658 -0.0265502 0.62361 0.158173 -0.0269322 0.627084 
0.160228 -0.0270697 0.630052 0.161793 -0.0269281 0.6326 0.162873 -0.0265111 0.634798 
0.16351 -0.0258612 0.636694 0.163779 -0.0250542 0.638317 0.163777 -0.0241898 0.639677 
0.163613 -0.023378 0.640771 0.163393 -0.0227249 0.641588 0.163204 -0.0223183 0.642114 
0.163104 -0.0222158 0.642338 
LINES 2 100
OFFSETS vtktypeint64
0 100 
CONNECTIVITY vtktypeint64
0 1 2 3 4 5 6 7 8 
9 10 11 12 13 14 15 16 17 
18 19 20 21 22 23 24 25 26 
27 28 29 30 31 32 33 34 35 
36 37 38 39 40 41 42 43 44 
45 46 47 48 49 50 51 52 53 
54 55 56 57 58 59 60 61 62 
63 64 65 66 67 68 69 70 71 
72 73 74 75 76 77 78 79 80 
81 82 83 84 85 86 87 88 89 
90 91 92 93 94 95 96 97 98 
99 
POINT_DATA 100
FIELD FieldData 3
_theta 1 100 double
0 0.031733259127 0.063466518254 0.095199777382 0.12693303651 0.15866629564 0.19039955476 0.22213281389 0.25386607302 
0.28559933214 0.31733259127 0.3490658504 0.38079910953 0.41253236865 0.44426562778 0.47599888691 0.50773214603 0.53946540516 
0.57119866429 0.60293192342 0.63466518254 0.66639844167 0.6981317008 0.72986495992 0.76159821905 0.79333147818 0.82506473731 
0.85679799643 0.88853125556 0.92026451469 0.95199777382 0.98373103294 1.0154642921 1.0471975512 1.0789308103 1.1106640695 
1.1423973286 1.1741305877 1.2058638468 1.237597106 1.2693303651 1.3010636242 1.3327968833 1.3645301425 1.3962634016 
1.4279966607 1.4597299198 1.491463179 1.5231964381 1.5549296972 1.5866629564 1.6183962155 1.6501294746 1.6818627337 
1.7135959929 1.745329252 1.7770625111 1.8087957702 1.8405290294 1.8722622885 1.9039955476 1.9357288068 1.9674620659 
1.999195325 2.0309285841 2.0626618433 2.0943951024 2.1261283615 2.1578616206 2.1895948798 2.2213281389 2.253061398 
2.2847946572 2.3165279163 2.3482611754 2.3799944345 2.4117276937 2.4434609528 2.4751942119 2.506927471 2.5386607302 
2.5703939893 2.6021272484 2.6338605076 2.6655937667 2.6973270258 2.7290602849 2.7607935441 2.7925268032 2.8242600623 
2.8559933214 2.8877265806 2.9194598397 2.9511930988 2.982926358 3.0146596171 3.0463928762 3.0781261353 3.1098593945 
3.1415926536 
_radius 1 100 double
5.6217888957e-16 0.013293124495 0.02655213778 0.039734301326 0.052789863307 0.065658535322 0.078266428359 0.090524486727 0.10232949973 
0.1135683452 0.1241253671 0.13389199157 0.14277711542 0.15071660984 0.15768045666 0.16367644905 0.16874988663 0.1729791796 
0.17646772718 0.17933287709 0.18169321143 0.1836558043 0.18530538159 0.18669735703 0.18785634313 0.18878079481 0.1894530087 
0.1898521874 0.18996730122 0.18980647941 0.18940060439 0.1888002749 0.18806696971 0.18726084842 0.18642870351 0.18559535548 
0.18476018246 0.1838987381 0.18296866341 0.18191904077 0.18070210435 0.17928558699 0.17766339693 0.17586239888 0.17394418035 
0.17200243787 0.170157831 0.1685518601 0.16733997578 0.16668299083 0.1667355488 0.16763085542 0.16946216359 0.17226354339 
0.17599433256 0.18053194361 0.18567594812 0.19116366188 0.19669519914 0.20196452487 0.20669212911 0.21065455197 0.21370637488 
0.21579154797 0.21694277152 0.21726966393 0.21693824228 0.21614549965 0.21509331447 0.2139654124 0.21290973395 0.21202682114 
0.21136341129 0.21090988073 0.21060067175 0.21031799716 0.20990010417 0.20915523326 0.20788081038 0.2058852125 0.20300808824 
0.19913547685 0.19420746385 0.18821792279 0.18120734932 0.17325069351 0.16444251641 0.15488188432 0.14465925798 0.1338472358 
0.12249632995 0.11063603088 0.098280447947 0.08543708745 0.072116993354 0.058344452288 0.044164595873 0.029647494861 0.014887830532 
1.2913175936e-15 
_area 1 100 double
0 0.00045573678524 0.0018171263618 0.0040684426431 0.0071875205488 0.011146923881 0.015909314781 0.021416576803 0.027575868551 
0.03424789591 0.0412424499 0.048324204951 0.055229000501 0.061688199352 0.067456748318 0.072339666616 0.076212085314 0.079029493037 
0.080826993311 0.081708455634 0.081827830135 0.081365584498 0.080504128523 0.079408112548 0.078218629704 0.077145771246 0.076449805821 
0.075891942712 0.075350717134 0.074813920784 0.074329427826 0.073970093611 0.073803285541 0.073871600624 0.074184759756 0.074705436512 
0.075364324784 0.076085629583 0.076803459455 0.077474603754 0.078088793951 0.078675244548 0.079303562601 0.080059608297 0.080942665695 
0.081824920148 0.082590319304 0.083199744121 0.083693047911 0.084186954519 0.084866684948 0.085964688668 0.087724277025 0.090350803898 
0.093959097579 0.09853378471 0.10392141944 0.10985488947 0.11599104495 0.12194890761 0.12734978496 0.13186218968 0.13524711948 
0.13739288351 0.13832855888 0.13821047318 0.13728363671 0.1358274353 0.13410041401 0.13230005643 0.13054709864 0.12889212702 
0.1273335862 0.12583595886 0.12434115891 0.12277038972 0.1210176649 0.11894151061 0.11636609375 0.11310094394 0.10897761497 
0.10389041737 0.097825991419 0.090872540922 0.083207614665 0.075069207613 0.066718101072 0.058400389823 0.050318499435 0.042616849415 
0.035384560502 0.02867236744 0.022515915858 0.016956052966 0.012049811429 0.0078709472394 0.0045026745523 0.0020264952651 0.00051056516665 
6.055780391e-17 
