# vtk DataFile Version 5.1
vtk output
ASCII
DATASET POLYDATA
POINTS 100 float
0.129669 0.0983039 -0.639213 0.129831 0.0981901 -0.639279 0.130314 0.0976634 -0.63944 
0.131078 0.0967522 -0.639604 0.132057 0.0954988 -0.63963 0.133163 0.0939528 -0.639345 
0.134294 0.0921629 -0.638559 0.135338 0.0901681 -0.63709 0.136178 0.0879903 -0.634781 
0.136699 0.0856287 -0.631518 0.136794 0.0830561 -0.627239 0.136363 0.0802197 -0.621936 
0.135321 0.0770447 -0.615657 0.133598 0.0734406 -0.608496 0.13114 0.0693115 -0.600574 
0.127908 0.0645663 -0.592028 0.123883 0.0591306 -0.582989 0.11906 0.0529571 -0.573565 
0.113452 0.0460348 -0.563828 0.107089 0.0383942 -0.553806 0.100018 0.0301105 -0.543478 
0.0923014 0.0213013 -0.532779 0.0840188 0.0121217 -0.521608 0.0752619 0.00275577 -0.509841 
0.0661327 -0.00659458 -0.497349 0.0567395 -0.0157221 -0.484012 0.0471913 -0.0244269 -0.469734 
0.0375924 -0.0325283 -0.454457 0.0280359 -0.0398749 -0.438166 0.018599 -0.0463518 -0.420891 
0.00933802 -0.051885 -0.402703 0.000286202 -0.0564416 -0.383706 -0.00854646 -0.060028 -0.364024 
-0.0171709 -0.0626845 -0.343786 -0.0256141 -0.0644782 -0.323113 -0.0339115 -0.0654947 -0.302106 
-0.0420986 -0.0658296 -0.280836 -0.050201 -0.0655801 -0.259336 -0.058225 -0.0648387 -0.237607 
-0.0661501 -0.0636877 -0.215617 -0.0739235 -0.0621961 -0.193311 -0.0814576 -0.0604189 -0.170626 
-0.0886321 -0.0583973 -0.1475 -0.0952992 -0.0561615 -0.123885 -0.101293 -0.0537332 -0.0997606 
-0.10644 -0.0511301 -0.0751393 -0.110574 -0.0483686 -0.0500726 -0.11355 -0.0454675 -0.0246498 
-0.115254 -0.0424497 0.00100605 -0.115615 -0.0393438 0.0267458 -0.114613 -0.0361839 0.0524044 
-0.112278 -0.0330086 0.0778126 -0.10869 -0.0298596 0.102808 -0.103972 -0.0267793 0.127248 
-0.0982799 -0.0238085 0.151013 -0.0917911 -0.020984 0.174016 -0.0846894 -0.0183369 0.196204 
-0.0771525 -0.0158909 0.217557 -0.0693409 -0.0136616 0.238083 -0.0613881 -0.0116567 0.257815 
-0.0533963 -0.00987643 0.276802 -0.0454344 -0.00831425 0.295106 -0.0375409 -0.00695869 0.31279 
-0.0297291 -0.00579472 0.329917 -0.0219952 -0.00480535 0.346543 -0.0143271 -0.00397313 0.362716 
-0.00671333 -0.00328134 0.378476 0.000849316 -0.00271497 0.393849 0.00835036 -0.00226127 0.408856 
0.0157629 -0.00191003 0.423508 0.0230442 -0.00165352 0.437808 0.0301381 -0.00148622 0.451756 
0.0369812 -0.00140427 0.465347 0.0435089 -0.00140492 0.478569 0.0496629 -0.00148581 0.491408 
0.0553977 -0.0016443 0.503847 0.0606861 -0.00187683 0.515865 0.0655221 -0.00217839 0.527436 
0.0699214 -0.00254215 0.538535 0.0739201 -0.00295922 0.549135 0.0775702 -0.00341866 0.559212 
0.0809343 -0.00390767 0.568743 0.0840788 -0.00441199 0.577712 0.0870674 -0.00491655 0.586109 
0.0899549 -0.00540616 0.593932 0.0927828 -0.00586647 0.601184 0.0955759 -0.00628477 0.607876 
0.0983419 -0.00665091 0.614027 0.101072 -0.00695797 0.619654 0.103742 -0.00720277 0.624778 
0.106319 -0.00738609 0.629418 0.108761 -0.00751259 0.633587 0.111027 -0.00759034 0.637295 
0.113073 -0.00763015 0.640544 0.114862 -0.00764457 0.643332 0.116361 -0.00764674 0.64565 
0.117544 -0.00764924 0.647486 0.118391 -0.00766292 0.648829 0.118891 -0.00769594 0.649667 
0.119035 -0.00775308 0.649991 
LINES 2 100
OFFSETS vtktypeint64
0 100 
CONNECTIVITY vtktypeint64
0 1 2 3 4 5 6 7 8 
9 10 11 12 13 14 15 16 17 
18 19 20 21 22 23 24 25 26 
27 28 29 30 31 32 33 34 35 
36 37 38 39 40 41 42 43 44 
45 46 47 48 49 50 51 52 53 
54 55 56 57 58 59 60 61 62 
63 64 65 66 67 68 69 70 71 
72 73 74 75 76 77 78 79 80 
81 82 83 84 85 86 87 88 89 
90 91 92 93 94 95 96 97 98 
99 
POINT_DATA 100
FIELD FieldData 3
_theta 1 100 double
0 0.031733259127 0.063466518254 0.095199777382 0.12693303651 0.15866629564 0.19039955476 0.22213281389 0.25386607302 
0.28559933214 0.31733259127 0.3490658504 0.38079910953 0.41253236865 0.44426562778 0.47599888691 0.50773214603 0.53946540516 
0.57119866429 0.60293192342 0.63466518254 0.66639844167 0.6981317008 0.72986495992 0.76159821905 0.79333147818 0.82506473731 
0.85679799643 0.88853125556 0.92026451469 0.95199777382 0.98373103294 1.0154642921 1.0471975512 1.0789308103 1.1106640695 
1.1423973286 1.1741305877 1.2058638468 1.237597106 1.2693303651 1.3010636242 1.3327968833 1.3645301425 1.3962634016 
1.4279966607 1.4597299198 1.491463179 1.5231964381 1.5549296972 1.5866629564 1.6183962155 1.6501294746 1.6818627337 
1.7135959929 1.745329252 1.7770625111 1.8087957702 1.8405290294 1.8722622885 1.9039955476 1.9357288068 1.9674620659 
1.999195325 2.0309285841 2.0626618433 2.0943951024 2.1261283615 2.1578616206 2.1895948798 2.2213281389 2.253061398 
2.2847946572 2.3165279163 2.3482611754 2.3799944345 2.4117276937 2.4434609528 2.4751942119 2.506927471 2.5386607302 
2.5703939893 2.6021272484 2.6338605076 2.6655937667 2.6973270258 2.7290602849 2.7607935441 2.7925268032 2.8242600623 
2.8559933214 2.8877265806 2.9194598397 2.9511930988 2.982926358 3.0146596171 3.0463928762 3.0781261353 3.1098593945 
3.1415926536 
_radius 1 100 double
1.5673915392e-15 0.016574656246 0.033001166314 0.049136717724 0.064853848324 0.080046102005 0.094631199849 0.10855113438 0.12176898115 
0.13426275885 0.14601725789 0.157015258 0.16722982781 0.17661935192 0.18512655424 0.19268215332 0.19921301581 0.20465389328 
0.20896115087 0.21212642483 0.21418796035 0.21523752666 0.2154212827 0.21493373386 0.2140049011 0.21288189295 0.21180703022 
0.21099527593 0.21061379483 0.21076606874 0.21148240838 0.21271817383 0.21436046733 0.21624316334 0.21816871124 0.21993353104 
0.22135287636 0.22228152829 0.22262836239 0.22236437989 0.22152437338 0.22020263571 0.2185437775 0.21673046644 0.21497002159 
0.21348111868 0.21248076777 0.21217077524 0.21272265432 0.21426083081 0.21684593175 0.22046200047 0.22501217179 0.23032579223 
0.23617677541 0.242309766 0.24846886559 0.25442367641 0.2599887735 0.26503461836 0.26948971665 0.27333516998 0.27659359995 
0.27931476701 0.28156014443 0.28338835682 0.28484291879 0.28594327321 0.28667980402 0.28701322157 0.28687834154 0.28619170907 
0.28486184857 0.28280040269 0.27993232348 0.27620366761 0.27158624645 0.26607907778 0.25970704044 0.25251730541 0.2445741133 
0.23595241306 0.22673083699 0.2169844857 0.20677803963 0.19615980075 0.1851573705 0.17377571129 0.16199820945 0.14979097342 
0.13711000367 0.12391025235 0.11015520131 0.095825567579 0.080926041135 0.065489391409 0.049577680453 0.033280622414 0.016711346877 
1.2466150517e-15 
_area 1 100 double
0 0.00067541102686 0.0026866312729 0.0059887517193 0.01050698712 0.016136219908 0.022740944677 0.030157771127 0.038202113384 
0.046678138565 0.055388471963 0.064139772559 0.072742513425 0.081006667322 0.088737519512 0.095736302742 0.10180877274 0.10678202614 
0.11052680031 0.11298002395 0.11416124919 0.11417750873 0.11321443258 0.11151630325 0.10936163217 0.10704054798 0.10483510778 
0.10299949142 0.10174386861 0.10125680291 0.10180704505 0.10337310962 0.10571175041 0.10858999931 0.11170830337 0.11476272193 
0.11744725518 0.11949757707 0.12080327108 0.12133931122 0.12120484282 0.12064575464 0.11986410973 0.11902462027 0.11824155598 
0.11764783325 0.11741881422 0.11789361601 0.11936005728 0.12175571942 0.12518645089 0.12972678518 0.13545045944 0.14234399219 
0.15026338882 0.15893495246 0.1679914172 0.17703057778 0.18567663937 0.19362585174 0.20066729639 0.20668040558 0.2116175665 
0.215481652 0.21830574609 0.22013795656 0.22103014955 0.22102702603 0.22015323157 0.21840313171 0.21574404625 0.21213655968 
0.20756045477 0.20203067414 0.1955954075 0.18831825893 0.18025551012 0.17144512057 0.16191891467 0.15173240145 0.14099280875 
0.12986867794 0.11857725486 0.10735592298 0.09642733007 0.08596729955 0.076082743532 0.066804698598 0.058099181323 0.049894572167 
0.04211803966 0.034728915864 0.02773921805 0.021218773725 0.015287943302 0.010102258159 0.0058324524106 0.0026425445572 0.00066847560696 
4.250789867e-17 
