# vtk DataFile Version 5.1
vtk output
ASCII
DATASET POLYDATA
POINTS 100 float
0.0457562 0.101391 -0.671987 0.0459547 0.101325 -0.67197 0.0465469 0.100896 -0.671809 
0.0475032 0.100093 -0.671458 0.0487761 0.0988999 -0.670852 0.0503028 0.0972951 -0.669903 
0.0520085 0.0952583 -0.668515 0.0538103 0.0927712 -0.666587 0.0556205 0.0898195 -0.664026 
0.0573502 0.0863954 -0.660747 0.0589118 0.0824978 -0.656686 0.0602213 0.0781328 -0.6518 
0.0612001 0.0733127 -0.64607 0.0617759 0.0680554 -0.639498 0.0618841 0.0623829 -0.632108 
0.0614687 0.0563209 -0.623936 0.060484 0.0498982 -0.61503 0.0588958 0.0431477 -0.605437 
0.0566843 0.0361072 -0.595204 0.0538456 0.0288216 -0.584365 0.0503939 0.0213454 -0.572941 
0.0463635 0.0137442 -0.560938 0.0418083 0.00609678 -0.548346 0.0368017 -0.0015053 -0.53514 
0.0314334 -0.00895872 -0.521288 0.025805 -0.0161517 -0.506754 0.0200239 -0.022969 -0.491502 
0.0141959 -0.0292982 -0.475506 0.008417 -0.035037 -0.458755 0.00276562 -0.040101 -0.441254 
-0.00270425 -0.0444301 -0.423028 -0.00796798 -0.0479936 -0.404122 -0.0130324 -0.0507935 -0.384596 
-0.0179351 -0.0528639 -0.364524 -0.0227395 -0.0542683 -0.343984 -0.0275278 -0.0550933 -0.323053 
-0.0323904 -0.0554401 -0.301797 -0.0374143 -0.0554149 -0.280269 -0.0426703 -0.055118 -0.258501 
-0.0482016 -0.0546342 -0.236502 -0.0540137 -0.0540255 -0.214258 -0.0600684 -0.0533253 -0.191736 
-0.0662806 -0.0525376 -0.168885 -0.0725206 -0.0516392 -0.145652 -0.0786202 -0.0505851 -0.121982 
-0.0843824 -0.0493177 -0.0978338 -0.0895947 -0.0477769 -0.0731855 -0.0940437 -0.0459114 -0.0480434 
-0.09753 -0.0436886 -0.0224466 -0.0998823 -0.0411033 0.0035303 -0.100969 -0.0381823 0.0297786 
-0.100705 -0.0349857 0.0561594 -0.0990598 -0.0316039 0.0825114 -0.0960517 -0.0281514 0.10866 
-0.0917482 -0.0247568 0.134428 -0.0862567 -0.0215517 0.159648 -0.0797154 -0.0186582 0.184172 
-0.072282 -0.0161782 0.207882 -0.0641228 -0.0141844 0.230695 -0.0554028 -0.0127142 0.25257 
-0.046277 -0.0117685 0.273505 -0.036885 -0.0113131 0.293537 -0.0273473 -0.011285 0.312736 
-0.0177642 -0.0116013 0.331196 -0.00821708 -0.0121689 0.349027 0.00122975 -0.0128965 0.366347 
0.0105258 -0.0137037 0.383268 0.0196318 -0.0145299 0.399891 0.0285168 -0.0153388 0.416299 
0.0371575 -0.01612 0.432549 0.0455371 -0.0168874 0.448674 0.053646 -0.0176739 0.464677 
0.0614824 -0.0185239 0.48054 0.0690537 -0.0194847 0.49622 0.0763763 -0.0205975 0.511659 
0.0834757 -0.0218897 0.526785 0.0903844 -0.0233689 0.541518 0.0971396 -0.0250197 0.555778 
0.103779 -0.0268039 0.569484 0.110335 -0.0286632 0.582559 0.116833 -0.0305244 0.594937 
0.123283 -0.0323068 0.606557 0.12968 -0.0339299 0.61737 0.135999 -0.0353214 0.62734 
0.142198 -0.0364238 0.636441 0.148219 -0.0371996 0.64466 0.153996 -0.0376335 0.651995 
0.159453 -0.0377334 0.658459 0.16452 -0.0375278 0.664078 0.169134 -0.0370625 0.668889 
0.173246 -0.0363956 0.672943 0.176825 -0.0355919 0.676299 0.179861 -0.0347178 0.679026 
0.182365 -0.0338368 0.681196 0.184365 -0.0330058 0.682884 0.185901 -0.0322734 0.684163 
0.18702 -0.0316784 0.685098 0.187768 -0.0312501 0.685745 0.188182 -0.0310088 0.686144 
0.18829 -0.0309666 0.686322 
LINES 2 100
OFFSETS vtktypeint64
0 100 
CONNECTIVITY vtktypeint64
0 1 2 3 4 5 6 7 8 
9 10 11 12 13 14 15 16 17 
18 19 20 21 22 23 24 25 26 
27 28 29 30 31 32 33 34 35 
36 37 38 39 40 41 42 43 44 
45 46 47 48 49 50 51 52 53 
54 55 56 57 58 59 60 61 62 
63 64 65 66 67 68 69 70 71 
72 73 74 75 76 77 78 79 80 
81 82 83 84 85 86 87 88 89 
90 91 92 93 94 95 96 97 98 
99 
POINT_DATA 100
FIELD FieldData 3
_theta 1 100 double
0 0.031733259127 0.063466518254 0.095199777382 0.12693303651 0.15866629564 0.19039955476 0.22213281389 0.25386607302 
0.28559933214 0.31733259127 0.3490658504 0.38079910953 0.41253236865 0.44426562778 0.47599888691 0.50773214603 0.53946540516 
0.57119866429 0.60293192342 0.63466518254 0.66639844167 0.6981317008 0.72986495992 0.76159821905 0.79333147818 0.82506473731 
0.85679799643 0.88853125556 0.92026451469 0.95199777382 0.98373103294 1.0154642921 1.0471975512 1.0789308103 1.1106640695 
1.1423973286 1.1741305877 1.2058638468 1.237597106 1.2693303651 1.3010636242 1.3327968833 1.3645301425 1.3962634016 
1.4279966607 1.4597299198 1.491463179 1.5231964381 1.5549296972 1.5866629564 1.6183962155 1.6501294746 1.6818627337 
1.7135959929 1.745329252 1.7770625111 1.8087957702 1.8405290294 1.8722622885 1.9039955476 1.9357288068 1.9674620659 
1.999195325 2.0309285841 2.0626618433 2.0943951024 2.1261283615 2.1578616206 2.1895948798 2.2213281389 2.253061398 
2.2847946572 2.3165279163 2.3482611754 2.3799944345 2.4117276937 2.4434609528 2.4751942119 2.506927471 2.5386607302 
2.5703939893 2.6021272484 2.6338605076 2.6655937667 2.6973270258 2.7290602849 2.7607935441 2.7925268032 2.8242600623 
2.8559933214 2.8877265806 2.9194598397 2.9511930988 2.982926358 3.0146596171 3.0463928762 3.0781261353 3.1098593945 
3.1415926536 
_radius 1 100 double
8.9350216015e-16 0.013870754153 0.027629048813 0.0411756158 0.054450247249 0.067437313054 0.080157609104 0.092648305066 0.1049370012 
0.11701812904 0.12883868244 0.14029631137 0.15124859112 0.16152978409 0.17097094695 0.17941996293 0.18675906981 0.19291823985 
0.19788330716 0.20169819601 0.20446114676 0.20631550672 0.20743634359 0.20801466469 0.20824124163 0.20829192315 0.20831593873 
0.20842812926 0.20870532787 0.2091863288 0.20987422766 0.2107397135 0.21172437223 0.21274409905 0.21369375263 0.21445450931 
0.21490465399 0.21493312612 0.21445381374 0.21341799056 0.21182251871 0.20971218336 0.20717543729 0.20433384026 0.20132686065 
0.19829565785 0.1953710412 0.19266980634 0.19029928277 0.18836505826 0.18697516798 0.18623610434 0.18623993073 0.18704575608 
0.18866161535 0.19103328119 0.19404417168 0.19752636682 0.20127915754 0.20509031703 0.20875625882 0.21209898903 0.21497906002 
0.21730428577 0.21903405913 0.22017907178 0.22079629736 0.22097935626 0.2208448566 0.22051594622 0.22010496694 0.2196975405 
0.2193403832 0.21903452546 0.21873454793 0.21835330826 0.21777079178 0.21684535455 0.21542570751 0.21336237197 0.21051783871 
0.20677510451 0.20204449194 0.19626862657 0.18942523943 0.18152728239 0.17261988992 0.16277408655 0.15207778352 0.14062537043 
0.12850783099 0.11580548361 0.10258492856 0.088900616312 0.074800062116 0.060330727131 0.04554636223 0.03051111894 0.015300613288 
9.5797725808e-16 
_area 1 100 double
0 0.00053603790453 0.0021295306983 0.0047419116775 0.0083233871732 0.012826091067 0.018210982748 0.024443667561 0.031477600635 
0.039229666275 0.047558384776 0.056253228521 0.065037966965 0.073587468684 0.081556340992 0.088616658714 0.094499738555 0.099034474321 
0.10217364229 0.10400021826 0.10470794873 0.10455571721 0.10380696282 0.1026802481 0.10133619363 0.09989997705 0.098494508711 
0.097248112802 0.096248165054 0.095514358544 0.09503967738 0.094865545128 0.09505851513 0.095484933651 0.096078939672 0.096741408133 
0.097345425881 0.097771186508 0.097896553043 0.097622597186 0.096951622658 0.09598740105 0.094888427949 0.093844151167 0.093022693993 
0.092528741074 0.092404163282 0.092637004516 0.093174884457 0.093950945377 0.094918765733 0.09608513932 0.097529059217 0.099393993989 
0.10184203985 0.10497769198 0.10878487099 0.11313204654 0.1178405738 0.12268879545 0.12731667658 0.1313611903 0.13456049591 
0.13674858435 0.13785138216 0.13788581105 0.13695473869 0.1352343593 0.13295227125 0.13035747208 0.12768836856 0.12514684529 
0.12288109233 0.12097372405 0.11943255014 0.1181859312 0.11708637326 0.11592434714 0.11445234984 0.11241700297 0.10959363602 
0.10581645063 0.1009995926 0.095147359354 0.088353234807 0.080788027949 0.072678260696 0.064277559378 0.055835836863 0.047572667563 
0.039661294407 0.032227180842 0.025360117667 0.019133685141 0.013623365687 0.008916301065 0.0051102120555 0.0023034891145 0.00058094625831 
8.6952173754e-17 
