# vtk DataFile Version 5.1
vtk output
ASCII
DATASET POLYDATA
POINTS 100 float
0.114231 0.0785468 -0.674675 0.114253 0.0784072 -0.674825 0.114316 0.0778022 -0.675203 
0.114423 0.0767667 -0.675717 0.114573 0.0753532 -0.676224 0.114765 0.0736244 -0.676543 
0.114992 0.0716431 -0.676468 0.115243 0.0694626 -0.675782 0.115497 0.0671175 -0.674282 
0.115723 0.0646178 -0.671786 0.115879 0.0619457 -0.668151 0.115909 0.0590566 -0.66328 
0.115745 0.0558841 -0.657125 0.115307 0.0523482 -0.649686 0.114507 0.0483659 -0.641011 
0.113252 0.0438635 -0.63118 0.111449 0.0387875 -0.620305 0.109011 0.0331151 -0.608507 
0.105863 0.0268606 -0.595914 0.101947 0.0200789 -0.582647 0.097226 0.012864 -0.56881 
0.0916887 0.00534415 -0.554487 0.08535 -0.00232685 -0.53974 0.0782501 -0.00998055 -0.524604 
0.0704519 -0.0174461 -0.509095 0.0620357 -0.0245621 -0.493208 0.0530932 -0.0311871 -0.476924 
0.043721 -0.0372076 -0.460213 0.0340132 -0.0425424 -0.443039 0.024056 -0.0471443 -0.425367 
0.0139235 -0.0509975 -0.407158 0.00367643 -0.0541131 -0.388379 -0.0066375 -0.0565224 -0.368997 
-0.0169796 -0.0582693 -0.348988 -0.0273148 -0.0594036 -0.32833 -0.0376042 -0.0599747 -0.30701 
-0.047798 -0.0600276 -0.28502 -0.0578283 -0.0596012 -0.262363 -0.0676041 -0.0587283 -0.239053 
-0.0770096 -0.0574378 -0.215118 -0.0859047 -0.0557578 -0.190597 -0.0941306 -0.0537195 -0.165549 
-0.101518 -0.0513598 -0.140045 -0.107899 -0.0487242 -0.114174 -0.113119 -0.0458665 -0.0880334 
-0.117051 -0.042848 -0.0617327 -0.119607 -0.0397344 -0.0353846 -0.120748 -0.036591 -0.00910252 
-0.120489 -0.0334784 0.0170042 -0.118901 -0.0304472 0.0428346 -0.116102 -0.0275339 0.0682984 
-0.112253 -0.0247585 0.0933187 -0.107542 -0.0221238 0.117832 -0.102168 -0.0196168 0.141787 
-0.0963247 -0.0172125 0.165144 -0.0901846 -0.0148785 0.187872 -0.0838855 -0.0125815 0.209946 
-0.0775222 -0.0102927 0.231345 -0.0711424 -0.00799345 0.252049 -0.0647489 -0.00567915 0.272044 
-0.0583063 -0.00336087 0.291316 -0.0517528 -0.00106507 0.309857 -0.0450145 0.00116898 0.327667 
-0.0380203 0.0032936 0.344755 -0.0307169 0.00525828 0.361144 -0.0230801 0.00701572 0.376868 
-0.0151226 0.00852742 0.391978 -0.00689651 0.0097682 0.406538 0.00150978 0.0107289 0.420618 
0.009979 0.0114169 0.434297 0.0183768 0.0118548 0.44765 0.0265657 0.012077 0.460746 
0.0344195 0.0121248 0.473639 0.0418363 0.0120411 0.486365 0.0487483 0.0118655 0.498939 
0.0551277 0.0116291 0.511349 0.060987 0.0113523 0.523564 0.0663746 0.0110433 0.535531 
0.0713657 0.0106987 0.547186 0.0760505 0.0103067 0.558454 0.08052 0.00985012 0.569266 
0.0848533 0.00931156 0.579558 0.0891058 0.00867762 0.589279 0.0933018 0.00794278 0.598399 
0.097431 0.00711191 0.606906 0.101451 0.00620111 0.614809 0.105293 0.00523677 0.622132 
0.108872 0.00425306 0.628909 0.1121 0.00328808 0.635179 0.1149 0.00237948 0.64098 
0.117213 0.00156001 0.646339 0.119015 0.000853803 0.65127 0.120313 0.000273841 0.65577 
0.121152 -0.000178897 0.659818 0.121605 -0.00051462 0.663381 0.121768 -0.00075229 0.66641 
0.121745 -0.000915985 0.668854 0.121637 -0.0010306 0.670664 0.121527 -0.00111758 0.671795 
0.121469 -0.00119125 0.672219 
LINES 2 100
OFFSETS vtktypeint64
0 100 
CONNECTIVITY vtktypeint64
0 1 2 3 4 5 6 7 8 
9 10 11 12 13 14 15 16 17 
18 19 20 21 22 23 24 25 26 
27 28 29 30 31 32 33 34 35 
36 37 38 39 40 41 42 43 44 
45 46 47 48 49 50 51 52 53 
54 55 56 57 58 59 60 61 62 
63 64 65 66 67 68 69 70 71 
72 73 74 75 76 77 78 79 80 
81 82 83 84 85 86 87 88 89 
90 91 92 93 94 95 96 97 98 
99 
POINT_DATA 100
FIELD FieldData 3
_theta 1 100 double
0 0.031733259127 0.063466518254 0.095199777382 0.12693303651 0.15866629564 0.19039955476 0.22213281389 0.25386607302 
0.28559933214 0.31733259127 0.3490658504 0.38079910953 0.41253236865 0.44426562778 0.47599888691 0.50773214603 0.53946540516 
0.57119866429 0.60293192342 0.63466518254 0.66639844167 0.6981317008 0.72986495992 0.76159821905 0.79333147818 0.82506473731 
0.85679799643 0.88853125556 0.92026451469 0.95199777382 0.98373103294 1.0154642921 1.0471975512 1.0789308103 1.1106640695 
1.1423973286 1.1741305877 1.2058638468 1.237597106 1.2693303651 1.3010636242 1.3327968833 1.3645301425 1.3962634016 
1.4279966607 1.4597299198 1.491463179 1.5231964381 1.5549296972 1.5866629564 1.6183962155 1.6501294746 1.6818627337 
1.7135959929 1.745329252 1.7770625111 1.8087957702 1.8405290294 1.8722622885 1.9039955476 1.9357288068 1.9674620659 
1.999195325 2.0309285841 2.0626618433 2.0943951024 2.1261283615 2.1578616206 2.1895948798 2.2213281389 2.253061398 
2.2847946572 2.3165279163 2.3482611754 2.3799944345 2.4117276937 2.4434609528 2.4751942119 2.506927471 2.5386607302 
2.5703939893 2.6021272484 2.6338605076 2.6655937667 2.6973270258 2.7290602849 2.7607935441 2.7925268032 2.8242600623 
2.8559933214 2.8877265806 2.9194598397 2.9511930988 2.982926358 3.0146596171 3.0463928762 3.0781261353 3.1098593945 
3.1415926536 
_radius 1 100 double
1.12957009e-15 0.014979325562 0.029984578773 0.045013615599 0.060028439015 0.074947574769 0.089647205449 0.10397009833 0.11773976563 
0.13077664883 0.14291344724 0.15400767698 0.16395067446 0.17267316549 0.18014801762 0.1863908739 0.19145914287 0.1954494666 
0.19849348773 0.20075162094 0.20240464206 0.20364317887 0.20465551684 0.2056144422 0.20666411508 0.20790821081 0.20940076953 
0.21114126728 0.21307523584 0.21510121511 0.21708391876 0.21887234408 0.22032041346 0.22130696913 0.22175193778 0.22162641348 
0.22095598839 0.21981811358 0.21833489017 0.21666257893 0.21497898712 0.2134700552 0.21231701405 0.21168497805 0.21171295379 
0.21250469846 0.21412026207 0.2165692274 0.21980770219 0.22374107003 0.22823316165 0.23312056332 0.23822929296 0.24339073313 
0.24845445006 0.25329676454 0.25782505201 0.26197839948 0.26572542152 0.26905991068 0.2719947949 0.27455478955 0.27676826364 
0.27865915471 0.28024009174 0.2815079787 0.28244296574 0.28301098718 0.28316910619 0.28287215377 0.28207890333 0.28075635139 
0.27888137604 0.27643980303 0.27342347612 0.26982622161 0.2656396577 0.26084971851 0.25543459739 0.24936458503 0.24260398196 
0.23511492301 0.22686260595 0.21782113473 0.20797903224 0.19734349025 0.18594261036 0.17382521457 0.16105821189 0.14772194132 
0.1339042911 0.11969459756 0.10517823969 0.090432489643 0.075523751931 0.060506057701 0.045420655737 0.030296654211 0.015152746523 
1.3461392104e-15 
_area 1 100 double
0 0.00060838026595 0.0024372671128 0.0054938825819 0.0097770311885 0.015259093188 0.021866600443 0.029465462154 0.037855494463 
0.04677564542 0.055918106452 0.064948564311 0.073530929192 0.081355367421 0.088167075965 0.093791282905 0.098149338739 0.10126195469 
0.10323771529 0.10424749976 0.10449071465 0.10416845458 0.10347954724 0.10263581933 0.10187437343 0.10144797618 0.10158944573 
0.10245938094 0.10408587432 0.10629946335 0.10876415141 0.1111319404 0.11313501289 0.11460053806 0.11544794999 0.11568798153 
0.11543112477 0.11490751675 0.1144582165 0.11435292158 0.11458754984 0.1150671956 0.11578484653 0.11682038326 0.1182973673 
0.12034826477 0.12309712328 0.12664654227 0.13105719054 0.13632486279 0.14237041856 0.14905153611 0.15618701531 0.16357834439 
0.171022644 0.17832043082 0.1852836538 0.19174631715 0.19757626441 0.20268515536 0.20703385639 0.21063076358 0.21352089334 
0.21576537719 0.21741534345 0.21848954596 0.21896673211 0.21879713446 0.21792548566 0.21631079545 0.21393194133 0.2107789357 
0.20683923921 0.20208990539 0.19649953012 0.19003724048 0.18268527321 0.17445344338 0.16539321688 0.15560666958 0.14524483854 
0.13449283536 0.12354460529 0.11257557755 0.10172343826 0.091083931342 0.080721113558 0.070684290565 0.061022055536 0.05178879894 
0.043045955 0.034862580255 0.027316943161 0.02049745838 0.01450074666 0.0094261464355 0.0053678668063 0.0024069555607 0.00060495740134 
4.2186374822e-17 
