# vtk DataFile Version 5.1
vtk output
ASCII
DATASET POLYDATA
POINTS 100 float
0.193634 0.120293 -0.683863 0.193386 0.120088 -0.684082 0.192658 0.119262 -0.684656 
0.191494 0.117833 -0.685454 0.18996 0.11583 -0.686274 0.188137 0.113286 -0.686868 
0.186104 0.110234 -0.686975 0.18393 0.106702 -0.686347 0.181662 0.102706 -0.684778 
0.179312 0.0982483 -0.682125 0.176857 0.0933193 -0.678319 0.174231 0.0878975 -0.673367 
0.171333 0.0819554 -0.667344 0.168036 0.0754665 -0.660369 0.164193 0.0684135 -0.652586 
0.159661 0.0607959 -0.644139 0.154308 0.0526373 -0.63514 0.148035 0.04399 -0.625657 
0.140787 0.034937 -0.615695 0.13256 0.0255912 -0.6052 0.123409 0.01609 -0.594065 
0.113443 0.00658937 -0.582145 0.102818 -0.00274632 -0.569281 0.0917252 -0.0117537 -0.555327 
0.0803736 -0.0202803 -0.540172 0.0689709 -0.0281929 -0.523766 0.057704 -0.0353838 -0.506124 
0.0467226 -0.0417739 -0.487334 0.0361251 -0.0473132 -0.467548 0.0259518 -0.0519781 -0.446964 
0.0161834 -0.0557672 -0.425803 0.00674739 -0.0586947 -0.404279 -0.0024696 -0.0607847 -0.382569 
-0.0116036 -0.0620655 -0.360793 -0.020792 -0.0625654 -0.338994 -0.0301506 -0.0623113 -0.317134 
-0.0397529 -0.0613289 -0.295094 -0.0496116 -0.0596455 -0.272697 -0.059668 -0.0572941 -0.249724 
-0.0697869 -0.0543185 -0.225955 -0.0797616 -0.0507782 -0.20119 -0.0893252 -0.0467517 -0.175291 
-0.0981706 -0.0423385 -0.148199 -0.105975 -0.0376576 -0.119954 -0.112426 -0.0328441 -0.0906963 
-0.117252 -0.0280425 -0.0606591 -0.120245 -0.0233985 -0.0301512 -0.121278 -0.0190493 0.000470911 
-0.120323 -0.0151145 0.0308358 -0.117447 -0.0116875 0.0605903 -0.112812 -0.00882978 0.08943 
-0.106659 -0.00656729 0.117124 -0.0992846 -0.00489106 0.143528 -0.0910202 -0.00376058 0.168593 
-0.0821998 -0.00311022 0.192356 -0.0731352 -0.00285778 0.214923 -0.0640924 -0.00291398 0.236453 
-0.055274 -0.0031919 0.257128 -0.0468096 -0.00361507 0.277131 -0.0387535 -0.00412354 0.296618 
-0.0310914 -0.00467705 0.31571 -0.0237525 -0.00525538 0.334478 -0.0166281 -0.00585589 0.352945 
-0.00959211 -0.00648888 0.371093 -0.00252147 -0.00717167 0.388876 0.00468494 -0.00792235 0.406236 
0.0120922 -0.0087542 0.423117 0.0197209 -0.00967167 0.439483 0.0275449 -0.0106684 0.455324 
0.0354959 -0.0117275 0.470664 0.0434726 -0.0128245 0.485552 0.0513539 -0.013931 0.500063 
0.0590149 -0.01502 0.514274 0.0663411 -0.0160714 0.528261 0.0732416 -0.0170756 0.542074 
0.079658 -0.0180361 0.555733 0.085569 -0.01897 0.569217 0.090989 -0.0199056 0.582466 
0.0959627 -0.0208784 0.595384 0.100556 -0.0219248 0.607848 0.104843 -0.0230758 0.619728 
0.108896 -0.0243507 0.630901 0.112772 -0.0257516 0.641266 0.116505 -0.0272611 0.650757 
0.120104 -0.0288412 0.659353 0.123549 -0.0304369 0.667081 0.126795 -0.0319805 0.674007 
0.129786 -0.0334 0.680229 0.132456 -0.034627 0.685862 0.134749 -0.0356054 0.691021 
0.136622 -0.0362993 0.695805 0.138058 -0.0366977 0.700282 0.139066 -0.0368169 0.704482 
0.139688 -0.0366995 0.70839 0.139987 -0.0364096 0.711954 0.140048 -0.036026 0.71509 
0.139961 -0.0356322 0.717698 0.139813 -0.0353069 0.719677 0.139675 -0.035114 0.72094 
0.139596 -0.035095 0.721428 
LINES 2 100
OFFSETS vtktypeint64
0 100 
CONNECTIVITY vtktypeint64
0 1 2 3 4 5 6 7 8 
9 10 11 12 13 14 15 16 17 
18 19 20 21 22 23 24 25 26 
27 28 29 30 31 32 33 34 35 
36 37 38 39 40 41 42 43 44 
45 46 47 48 49 50 51 52 53 
54 55 56 57 58 59 60 61 62 
63 64 65 66 67 68 69 70 71 
72 73 74 75 76 77 78 79 80 
81 82 83 84 85 86 87 88 89 
90 91 92 93 94 95 96 97 98 
99 
POINT_DATA 100
FIELD FieldData 3
_theta 1 100 double
0 0.031733259127 0.063466518254 0.095199777382 0.12693303651 0.15866629564 0.19039955476 0.22213281389 0.25386607302 
0.28559933214 0.31733259127 0.3490658504 0.38079910953 0.41253236865 0.44426562778 0.47599888691 0.50773214603 0.53946540516 
0.57119866429 0.60293192342 0.63466518254 0.66639844167 0.6981317008 0.72986495992 0.76159821905 0.79333147818 0.82506473731 
0.85679799643 0.88853125556 0.92026451469 0.95199777382 0.98373103294 1.0154642921 1.0471975512 1.0789308103 1.1106640695 
1.1423973286 1.1741305877 1.2058638468 1.237597106 1.2693303651 1.3010636242 1.3327968833 1.3645301425 1.3962634016 
1.4279966607 1.4597299198 1.491463179 1.5231964381 1.5549296972 1.5866629564 1.6183962155 1.6501294746 1.6818627337 
1.7135959929 1.745329252 1.7770625111 1.8087957702 1.8405290294 1.8722622885 1.9039955476 1.9357288068 1.9674620659 
1.999195325 2.0309285841 2.0626618433 2.0943951024 2.1261283615 2.1578616206 2.1895948798 2.2213281389 2.253061398 
2.2847946572 2.3165279163 2.3482611754 2.3799944345 2.4117276937 2.4434609528 2.4751942119 2.506927471 2.5386607302 
2.5703939893 2.6021272484 2.6338605076 2.6655937667 2.6973270258 2.7290602849 2.7607935441 2.7925268032 2.8242600623 
2.8559933214 2.8877265806 2.9194598397 2.9511930988 2.982926358 3.0146596171 3.0463928762 3.0781261353 3.1098593945 
3.1415926536 
_radius 1 100 double
7.1048310214e-16 0.017601026923 0.034981808866 0.051932096498 0.068271658304 0.083860065536 0.098601036458 0.11244103543 0.12536265045 
0.13737392451 0.14849527058 0.15874589331 0.16813178968 0.17663735662 0.18422230167 0.19082486403 0.1963713406 0.20079075278 
0.204032468 0.20608396798 0.20698584843 0.20684147753 0.20581937803 0.20414719943 0.2020970757 0.19996324355 0.1980340215 
0.19656148485 0.19573314407 0.19565030267 0.19631714914 0.19764273994 0.19945528713 0.20152588409 0.20359789141 0.20541830027 
0.20676772236 0.20748591246 0.20748999595 0.20678305479 0.20545185529 0.20365496219 0.20160592176 0.19955766044 0.19779062973 
0.19660070587 0.19627966729 0.1970841957 0.19919667042 0.20268851378 0.20749966893 0.21344255213 0.22022845089 0.22750675881 
0.23490682492 0.24207575617 0.24870895781 0.25457202529 0.25951339777 0.26346772944 0.26645053886 0.26854534252 0.26988506914 
0.27063001019 0.27094485261 0.27097743962 0.27084176897 0.27060727521 0.27029554854 0.26988432842 0.26931715974 0.26851604678 
0.26739421807 0.26586671933 0.26385757756 0.26130327494 0.25815299337 0.25436651485 0.24991085785 0.24475675895 0.23887599627 
0.23224029503 0.2248221657 0.2165975548 0.20754973718 0.19767356413 0.18697908321 0.17549368571 0.16326227483 0.15034539526 
0.13681569835 0.12275340516 0.10824149626 0.093361243016 0.078188523058 0.062791230775 0.047227990243 0.031548238927 0.015793563521 
1.9152937515e-15 
_area 1 100 double
0 0.00079697004513 0.0031493775911 0.0069469059378 0.012021168606 0.018163599803 0.02514307189 0.032720835799 0.040662179038 
0.048744426327 0.056760643696 0.064519228146 0.071841281645 0.078558734829 0.084515567797 0.089572667065 0.093615345137 0.096562283864 
0.098374965092 0.099066212542 0.098705636175 0.097420330152 0.095391677901 0.09285387503 0.090123194352 0.087842416783 0.086163299859 
0.085269420329 0.085199891844 0.085926343396 0.087410715254 0.089554026484 0.092193522889 0.095123694267 0.098116221947 0.10093652844 
0.10340361589 0.10543735159 0.10722018982 0.10893350787 0.11062150228 0.11202995329 0.11296606054 0.11334472248 0.11335799908 
0.11336438163 0.11390136631 0.11509126736 0.11732563378 0.12103037288 0.12650625984 0.13381642635 0.14275701804 0.15290846502 
0.16371297879 0.17454721359 0.18478917782 0.19388099273 0.20138339366 0.2070168785 0.21068651186 0.21248992883 0.21271468815 
0.21186440036 0.210793176 0.21010080462 0.20968008496 0.20937833009 0.20903513429 0.20845892954 0.20743683063 0.20575991444 
0.20325319143 0.1998002646 0.19535574684 0.18994292737 0.18363842497 0.17654865377 0.16878458334 0.16044130292 0.15158717061 
0.14226432285 0.13249912011 0.12231872775 0.1117689185 0.10092825641 0.08991484295 0.078883634639 0.068014849106 0.057496690689 
0.047507594724 0.038203328632 0.029712125478 0.022137409041 0.015564590552 0.010067576503 0.0057120562879 0.0025549581183 0.00064125521442 
8.8871715987e-18 
