# vtk DataFile Version 5.1
vtk output
ASCII
DATASET POLYDATA
POINTS 100 float
0.164076 0.0276447 -0.644002 0.163808 0.0278382 -0.643739 0.163074 0.0282847 -0.643038 
0.161904 0.0289371 -0.64187 0.160338 0.0297202 -0.640193 0.15842 0.030536 -0.637952 
0.156189 0.031271 -0.635086 0.153668 0.0318042 -0.631532 0.150857 0.0320158 -0.627231 
0.147726 0.0317956 -0.622135 0.144218 0.0310508 -0.616209 0.140249 0.0297123 -0.609435 
0.135716 0.0277394 -0.601813 0.130512 0.025122 -0.593361 0.124536 0.0218813 -0.584111 
0.117709 0.0180679 -0.574107 0.109986 0.0137584 -0.563403 0.101368 0.00904986 -0.552051 
0.0919033 0.00405391 -0.540102 0.0816921 -0.00111025 -0.527599 0.0708771 -0.00632265 -0.514573 
0.0596343 -0.011469 -0.501038 0.0481579 -0.0164463 -0.486993 0.0366429 -0.0211668 -0.472421 
0.0252673 -0.0255612 -0.457287 0.0141765 -0.0295797 -0.441548 0.00347101 -0.0331915 -0.425149 
-0.00680059 -0.0363833 -0.408036 -0.0166419 -0.0391566 -0.390153 -0.0261033 -0.0415238 -0.371452 
-0.0352699 -0.0435044 -0.351897 -0.0442455 -0.0451205 -0.331467 -0.0531336 -0.0463938 -0.31016 
-0.0620175 -0.0473416 -0.287993 -0.070943 -0.0479756 -0.265003 -0.0799043 -0.0483 -0.241251 
-0.088836 -0.0483119 -0.216814 -0.0976115 -0.0480026 -0.191786 -0.106049 -0.0473592 -0.166277 
-0.113922 -0.0463677 -0.140405 -0.120982 -0.0450162 -0.114299 -0.126972 -0.043298 -0.0880865 
-0.131657 -0.0412151 -0.0618986 -0.134839 -0.0387803 -0.0358614 -0.136381 -0.0360196 -0.0100945 
-0.136216 -0.0329726 0.0152915 -0.134354 -0.0296925 0.0401979 -0.130885 -0.0262447 0.064539 
-0.125968 -0.0227045 0.0882443 -0.119819 -0.019154 0.111258 -0.112694 -0.0156782 0.133541 
-0.104865 -0.0123612 0.155069 -0.0966058 -0.00928192 0.175833 -0.0881633 -0.00651023 0.195837 
-0.0797486 -0.00410414 0.215097 -0.0715224 -0.00210715 0.233639 -0.0635902 -0.00054692 0.251498 
-0.0560025 0.000565165 0.268714 -0.04876 0.00123351 0.28533 -0.0418241 0.00147692 0.301392 
-0.0351299 0.00132662 0.316947 -0.0286003 0.000823766 0.33204 -0.0221612 1.68125e-05 0.346715 
-0.015753 -0.0010411 0.361015 -0.00934106 -0.00229455 0.374981 -0.00292093 -0.00368783 0.388655 
0.00347979 -0.00516657 0.402078 0.00980383 -0.00667889 0.415288 0.0159702 -0.00817616 0.428326 
0.0218823 -0.00961358 0.441231 0.0274382 -0.0109506 0.454042 0.0325402 -0.0121512 0.466792 
0.0371045 -0.0131849 0.479508 0.0410685 -0.014027 0.492212 0.0443958 -0.0146603 0.50491 
0.0470785 -0.0150756 0.517596 0.0491364 -0.0152734 0.530247 0.0506142 -0.015265 0.54282 
0.0515762 -0.015073 0.555252 0.0521 -0.0147312 0.567465 0.0522694 -0.0142845 0.57936 
0.0521682 -0.0137868 0.590828 0.051874 -0.0132986 0.601754 0.0514538 -0.0128836 0.612018 
0.0509619 -0.0126042 0.621511 0.050438 -0.0125173 0.630132 0.0499087 -0.0126694 0.637806 
0.0493887 -0.0130924 0.64448 0.0488843 -0.0138 0.650135 0.0483959 -0.0147854 0.654783 
0.047922 -0.0160205 0.658472 0.0474612 -0.0174567 0.66128 0.0470148 -0.0190274 0.663311 
0.0465878 -0.0206523 0.664691 0.0461886 -0.0222429 0.665555 0.045829 -0.0237085 0.666042 
0.0455222 -0.0249633 0.666282 0.0452814 -0.025933 0.666387 0.0451178 -0.0265601 0.666443 
0.0450394 -0.0268089 0.666505 
LINES 2 100
OFFSETS vtktypeint64
0 100 
CONNECTIVITY vtktypeint64
0 1 2 3 4 5 6 7 8 
9 10 11 12 13 14 15 16 17 
18 19 20 21 22 23 24 25 26 
27 28 29 30 31 32 33 34 35 
36 37 38 39 40 41 42 43 44 
45 46 47 48 49 50 51 52 53 
54 55 56 57 58 59 60 61 62 
63 64 65 66 67 68 69 70 71 
72 73 74 75 76 77 78 79 80 
81 82 83 84 85 86 87 88 89 
90 91 92 93 94 95 96 97 98 
99 
POINT_DATA 100
FIELD FieldData 3
_theta 1 100 double
0 0.031733259127 0.063466518254 0.095199777382 0.12693303651 0.15866629564 0.19039955476 0.22213281389 0.25386607302 
0.28559933214 0.31733259127 0.3490658504 0.38079910953 0.41253236865 0.44426562778 0.47599888691 0.50773214603 0.53946540516 
0.57119866429 0.60293192342 0.63466518254 0.66639844167 0.6981317008 0.72986495992 0.76159821905 0.79333147818 0.82506473731 
0.85679799643 0.88853125556 0.92026451469 0.95199777382 0.98373103294 1.0154642921 1.0471975512 1.0789308103 1.1106640695 
1.1423973286 1.1741305877 1.2058638468 1.237597106 1.2693303651 1.3010636242 1.3327968833 1.3645301425 1.3962634016 
1.4279966607 1.4597299198 1.491463179 1.5231964381 1.5549296972 1.5866629564 1.6183962155 1.6501294746 1.6818627337 
1.7135959929 1.745329252 1.7770625111 1.8087957702 1.8405290294 1.8722622885 1.9039955476 1.9357288068 1.9674620659 
1.999195325 2.0309285841 2.0626618433 2.0943951024 2.1261283615 2.1578616206 2.1895948798 2.2213281389 2.253061398 
2.2847946572 2.3165279163 2.3482611754 2.3799944345 2.4117276937 2.4434609528 2.4751942119 2.506927471 2.5386607302 
2.5703939893 2.6021272484 2.6338605076 2.6655937667 2.6973270258 2.7290602849 2.7607935441 2.7925268032 2.8242600623 
2.8559933214 2.8877265806 2.9194598397 2.9511930988 2.982926358 3.0146596171 3.0463928762 3.0781261353 3.1098593945 
3.1415926536 
_radius 1 100 double
1.2422170582e-15 0.014041888882 0.028064780449 0.042041849386 0.055928001307 0.069654496699 0.083127190877 0.096228362513 0.10882178307 
0.12076054172 0.13189704794 0.14209450488 0.15123895573 0.15925075708 0.16609407679 0.17178286115 0.17638182955 0.18000156639 
0.18278769595 0.18490528942 0.18652076078 0.18778420917 0.18881516306 0.18969386544 0.19045881147 0.19110975436 0.19161449122 
0.19191776967 0.1919514 0.19164548502 0.19094095469 0.18980304769 0.18823427332 0.18628432104 0.18405394131 0.18169024716 
0.17937216205 0.17728699096 0.17560275046 0.17444526386 0.17389001232 0.17397194362 0.17470566528 0.1761034416 0.17818208313 
0.18095692537 0.18442696292 0.18855849569 0.19327507238 0.19845888123 0.20396378886 0.209635278 0.21533022674 0.22093059702 
0.22634825343 0.23152140211 0.23640539817 0.2409615926 0.24514757356 0.2489110043 0.25218787091 0.25490485964 0.25698498696 
0.25835539012 0.25895612793 0.25874881101 0.2577238781 0.25590542425 0.25335270924 0.25015782069 0.24643939669 0.24233279889 
0.23797764664 0.23350410922 0.2290196656 0.2245980315 0.22027157858 0.21602795057 0.21181093953 0.20752522387 0.20304435877 
0.19822136419 0.19290121772 0.1869344086 0.18019045201 0.17257001943 0.1640142705 0.15451017858 0.14409112306 0.13283267871 
0.12084421446 0.10825747384 0.095213638259 0.081850441153 0.068290748587 0.054633749684 0.04094959557 0.027278018448 0.013631111765 
7.3678645898e-16 
_area 1 100 double
0 0.00042469653946 0.0017179362532 0.0039283709741 0.0071108096673 0.011296322159 0.016465375956 0.022531380935 0.029337691465 
0.036666606583 0.044255878532 0.051818003629 0.059059965812 0.065703971831 0.071510443204 0.076302397014 0.079987132686 0.082569376 
0.084150877116 0.084914105385 0.085090603517 0.084918089231 0.084597449068 0.084268052 0.08401135583 0.083869263697 0.083855365314 
0.083953096146 0.084110569663 0.084242520623 0.084245272028 0.084028131486 0.083556694861 0.082890806939 0.082196008372 0.081710291223 
0.081654242326 0.08212781696 0.083095088404 0.084447990889 0.086062779786 0.087831698243 0.089687522995 0.091628283953 0.093736822746 
0.096183319471 0.099199174263 0.1030191775 0.10780494758 0.11358097236 0.1202176468 0.1274667193 0.13502427401 0.14259510859 
0.14994243938 0.1569130587 0.16343302311 0.16947650467 0.17502091927 0.180009021 0.18433361026 0.18784589719 0.19037964792 
0.19178316991 0.19195137803 0.19084746667 0.18850458299 0.1850115491 0.18050179523 0.1751524567 0.16917808582 0.16280837111 
0.15625741429 0.14969899925 0.14325699793 0.13700978409 0.13100027236 0.12524337415 0.1197271029 0.11440769356 0.10920233549 
0.10398591891 0.098598779209 0.092868845171 0.086645082542 0.079833192233 0.072422383998 0.06449507639 0.056217804164 0.04781763047 
0.039551342727 0.031674544003 0.02441576417 0.017958378456 0.012431351715 0.0079087743083 0.0044174099424 0.0019505656446 0.0004854303194 
8.0366353944e-18 
