# vtk DataFile Version 5.1
vtk output
ASCII
DATASET POLYDATA
POINTS 100 float
0.0895111 0.0392901 -0.593663 0.089709 0.0392951 -0.593764 0.0902879 0.0390699 -0.593976 
0.091197 0.038613 -0.594204 0.092356 0.0379221 -0.594305 0.0936609 0.0369935 -0.594102 
0.0949908 0.0358206 -0.593404 0.0962159 0.034393 -0.592025 0.0972052 0.0326962 -0.589806 
0.0978333 0.0307111 -0.586629 0.0979865 0.0284155 -0.582423 0.0975667 0.0257856 -0.577173 
0.0964946 0.0227987 -0.570911 0.0947109 0.0194371 -0.563711 0.0921765 0.0156911 -0.555669 
0.0888717 0.0115634 -0.546892 0.0847952 0.00707182 -0.537481 0.0799633 0.00225232 -0.527512 
0.074408 -0.00284016 -0.51703 0.0681767 -0.00813183 -0.506045 0.0613307 -0.0135319 -0.494529 
0.0539436 -0.0189361 -0.482424 0.0460994 -0.0242316 -0.469655 0.03789 -0.0293026 -0.456137 
0.0294107 -0.0340371 -0.441797 0.0207558 -0.0383332 -0.426578 0.0120135 -0.042105 -0.410455 
0.00325975 -0.0452877 -0.393436 -0.00544613 -0.0478405 -0.375565 -0.0140655 -0.0497485 -0.356911 
-0.0225819 -0.051022 -0.337567 -0.0310003 -0.0516944 -0.317634 -0.0393429 -0.051818 -0.297208 
-0.0476429 -0.0514589 -0.276373 -0.0559348 -0.050691 -0.255188 -0.0642439 -0.0495898 -0.233689 
-0.0725753 -0.0482267 -0.211884 -0.0809033 -0.0466641 -0.189759 -0.0891641 -0.0449518 -0.167292 
-0.0972515 -0.0431255 -0.144457 -0.105018 -0.0412065 -0.121241 -0.112278 -0.0392028 -0.0976534 
-0.118824 -0.0371127 -0.0737324 -0.124434 -0.0349281 -0.0495521 -0.128896 -0.0326392 -0.0252199 
-0.13202 -0.0302386 -0.000870913 -0.133663 -0.0277255 0.0233409 -0.133736 -0.0251086 0.0472555 
-0.13222 -0.0224076 0.0707202 -0.129166 -0.0196539 0.0936024 -0.124691 -0.0168891 0.1158 
-0.118974 -0.0141631 0.137248 -0.112233 -0.0115305 0.15792 -0.104713 -0.00904666 0.177827 
-0.0966593 -0.00676387 0.197006 -0.0882985 -0.00472722 0.215518 -0.0798217 -0.00297159 0.233427 
-0.0713703 -0.00151942 0.250793 -0.0630296 -0.000379674 0.267665 -0.0548287 0.00045203 0.28407 
-0.0467477 0.000992086 0.300011 -0.0387298 0.00126668 0.315475 -0.0306983 0.00130889 0.330431 
-0.0225742 0.00115548 0.344847 -0.0142939 0.000843776 0.358696 -0.00582317 0.000408823 0.371968 
0.00283312 -0.000118734 0.384676 0.011628 -0.000714021 0.396865 0.0204756 -0.00135842 0.408608 
0.0292601 -0.00203926 0.420004 0.0378495 -0.00274878 0.431169 0.0461118 -0.00348265 0.442221 
0.053932 -0.00423833 0.45327 0.0612257 -0.00501338 0.4644 0.0679502 -0.0058041 0.475659 
0.0741085 -0.00660471 0.487052 0.0797475 -0.00740697 0.498535 0.0849499 -0.00820048 0.510019 
0.0898211 -0.00897348 0.521376 0.0944721 -0.009714 0.532452 0.0990021 -0.0104112 0.543083 
0.103482 -0.0110567 0.553109 0.107943 -0.0116456 0.562391 0.112368 -0.0121773 0.570826 
0.116692 -0.0126553 0.578352 0.120811 -0.0130871 0.584951 0.124592 -0.013483 0.590654 
0.127895 -0.0138548 0.595527 0.130587 -0.0142142 0.599663 0.132569 -0.0145711 0.603172 
0.133786 -0.0149324 0.606164 0.134245 -0.0153004 0.608737 0.134011 -0.0156732 0.610972 
0.133211 -0.0160438 0.612923 0.13202 -0.0164015 0.614617 0.130641 -0.0167328 0.616059 
0.129286 -0.0170233 0.617235 0.128152 -0.017259 0.618122 0.127399 -0.0174284 0.618696 
0.127129 -0.017524 0.618937 
LINES 2 100
OFFSETS vtktypeint64
0 100 
CONNECTIVITY vtktypeint64
0 1 2 3 4 5 6 7 8 
9 10 11 12 13 14 15 16 17 
18 19 20 21 22 23 24 25 26 
27 28 29 30 31 32 33 34 35 
36 37 38 39 40 41 42 43 44 
45 46 47 48 49 50 51 52 53 
54 55 56 57 58 59 60 61 62 
63 64 65 66 67 68 69 70 71 
72 73 74 75 76 77 78 79 80 
81 82 83 84 85 86 87 88 89 
90 91 92 93 94 95 96 97 98 
99 
POINT_DATA 100
FIELD FieldData 3
_theta 1 100 double
0 0.031733259127 0.063466518254 0.095199777382 0.12693303651 0.15866629564 0.19039955476 0.22213281389 0.25386607302 
0.28559933214 0.31733259127 0.3490658504 0.38079910953 0.41253236865 0.44426562778 0.47599888691 0.50773214603 0.53946540516 
0.57119866429 0.60293192342 0.63466518254 0.66639844167 0.6981317008 0.72986495992 0.76159821905 0.79333147818 0.82506473731 
0.85679799643 0.88853125556 0.92026451469 0.95199777382 0.98373103294 1.0154642921 1.0471975512 1.0789308103 1.1106640695 
1.1423973286 1.1741305877 1.2058638468 1.237597106 1.2693303651 1.3010636242 1.3327968833 1.3645301425 1.3962634016 
1.4279966607 1.4597299198 1.491463179 1.5231964381 1.5549296972 1.5866629564 1.6183962155 1.6501294746 1.6818627337 
1.7135959929 1.745329252 1.7770625111 1.8087957702 1.8405290294 1.8722622885 1.9039955476 1.9357288068 1.9674620659 
1.999195325 2.0309285841 2.0626618433 2.0943951024 2.1261283615 2.1578616206 2.1895948798 2.2213281389 2.253061398 
2.2847946572 2.3165279163 2.3482611754 2.3799944345 2.4117276937 2.4434609528 2.4751942119 2.506927471 2.5386607302 
2.5703939893 2.6021272484 2.6338605076 2.6655937667 2.6973270258 2.7290602849 2.7607935441 2.7925268032 2.8242600623 
2.8559933214 2.8877265806 2.9194598397 2.9511930988 2.982926358 3.0146596171 3.0463928762 3.0781261353 3.1098593945 
3.1415926536 
_radius 1 100 double
3.7367087252e-17 0.013490459024 0.026850088386 0.039957314147 0.052721297597 0.065087425293 0.077033504107 0.088557967496 0.099663663233 
0.11034183577 0.12056034323 0.13025836188 0.13934778501 0.14772007343 0.15525675202 0.1618418387 0.16737483083 0.17178315954 
0.17503314552 0.17713848418 0.17816524939 0.1782324392 0.17750728426 0.17619497229 0.17452313515 0.17272235377 0.17100490304 
0.16954472509 0.16846187163 0.16781413632 0.16759724894 0.16775314682 0.16818415885 0.16877009438 0.16938539259 0.16991434422 
0.17026343179 0.17037045698 0.17020999486 0.16979435589 0.16916973969 0.16840900896 0.16760447633 0.16686437927 0.16631411302 
0.16609896194 0.16638207512 0.16733209135 0.16909911111 0.1717837716 0.17540914093 0.17990601791 0.18511762332 0.19082178466 
0.1967625285 0.20268189987 0.20834580585 0.21356152967 0.21818719796 0.22213460187 0.22536690587 0.22789251633 0.22975611769 
0.23102778754 0.23179117906 0.23213191298 0.23212741715 0.23183937734 0.23130964564 0.23055988051 0.22959443226 0.22840523002 
0.2269769526 0.22529082441 0.22332602325 0.22105868958 0.21845944395 0.21549075836 0.21210540036 0.20824669202 0.20385079772 
0.19885084426 0.19318238473 0.1867894847 0.17963053449 0.17168284149 0.16294519171 0.15343789377 0.14320029076 0.13228627385 
0.12075882194 0.10868481403 0.09613114405 0.083162579924 0.069841175897 0.056226691663 0.042377452966 0.028351242159 0.014205969151 
6.8671736879e-16 
_area 1 100 double
0 0.00054916165177 0.0021632073987 0.0047503097096 0.0081829687818 0.012327163228 0.017066786774 0.022313034882 0.027995686004 
0.034043216664 0.040362683503 0.046827037714 0.053272952674 0.059508772047 0.065329496413 0.070534455135 0.07494381643 0.078411749561 
0.080836024274 0.082165336559 0.082405913883 0.08162754983 0.079966763042 0.077623079018 0.074845266597 0.07190766948 0.069080466634 
0.066599762379 0.064643904149 0.063322144304 0.062684192419 0.062726955786 0.063389315566 0.064562085845 0.066113856802 0.067905808616 
0.069795469006 0.071642332927 0.07332112488 0.074737884923 0.075840082818 0.076615680493 0.077084375183 0.077292964994 0.077325806804 
0.077328921626 0.077530212006 0.078221883718 0.079695830457 0.082190452729 0.085852067239 0.090696494591 0.096599560331 0.10331709009 
0.11051867358 0.11782738185 0.12486180199 0.13127612031 0.1367935783 0.14122965106 0.14450456506 0.14665548666 0.14788722392 
0.14865678835 0.14907789967 0.14912410444 0.14877727244 0.14804706453 0.14694253164 0.14545660268 0.14356872254 0.1412525451 
0.13848550438 0.13526042801 0.1315959715 0.12753973068 0.12316051404 0.11853202234 0.11371293041 0.10872828435 0.10355812793 
0.09814022847 0.09238983806 0.086230704692 0.079625187736 0.072593005906 0.065215007966 0.057624022085 0.049986949807 0.042482492506 
0.03527915962 0.028518695794 0.022309464603 0.016731214163 0.011847556161 0.0077188142284 0.0044087236936 0.0019826791456 0.00049938053102 
7.4015355491e-17 
