# vtk DataFile Version 5.1
vtk output
ASCII
DATASET POLYDATA
POINTS 100 float
0.115338 0.0648921 -0.641499 0.115288 0.0647495 -0.641213 0.115141 0.0641608 -0.640329 
0.114915 0.063139 -0.638826 0.114633 0.061704 -0.636677 0.114311 0.05988 -0.633851 
0.113954 0.0576919 -0.630317 0.113541 0.0551625 -0.626055 0.113019 0.0523099 -0.621058 
0.112305 0.0491457 -0.615331 0.111279 0.0456744 -0.608897 0.109798 0.041894 -0.601788 
0.107705 0.0377988 -0.594046 0.104846 0.0333825 -0.58571 0.101084 0.0286425 -0.576813 
0.0963205 0.0235846 -0.567375 0.0905055 0.0182275 -0.557394 0.0836502 0.0126063 -0.546843 
0.0758289 0.00677495 -0.535674 0.0671762 0.000806686 -0.523817 0.0578763 -0.00520756 -0.511187 
0.0481465 -0.0111626 -0.497697 0.0382169 -0.0169443 -0.48326 0.0283075 -0.0224367 -0.467808 
0.0186067 -0.027529 -0.451297 0.00925256 -0.032124 -0.433714 0.000320793 -0.0361446 -0.415085 
-0.00818089 -0.0395393 -0.39547 -0.0163096 -0.0422864 -0.374961 -0.0241763 -0.0443944 -0.353678 
-0.0319277 -0.0459008 -0.331754 -0.039724 -0.0468679 -0.309331 -0.047713 -0.0473763 -0.28654 
-0.0560068 -0.0475173 -0.263499 -0.06466 -0.0473836 -0.240304 -0.0736557 -0.0470609 -0.217024 
-0.0828979 -0.0466199 -0.1937 -0.0922141 -0.0461103 -0.170352 -0.101365 -0.045557 -0.146984 
-0.110064 -0.0449592 -0.123594 -0.117997 -0.044292 -0.10018 -0.124857 -0.0435113 -0.0767529 
-0.130363 -0.0425598 -0.053341 -0.134287 -0.0413755 -0.0299946 -0.136477 -0.0399002 -0.00678695 
-0.136864 -0.0380873 0.0161893 -0.135469 -0.0359091 0.038828 -0.132397 -0.0333616 0.0610182 
-0.127829 -0.0304668 0.0826544 -0.121998 -0.0272725 0.103646 -0.115174 -0.023849 0.123926 
-0.107636 -0.0202845 0.143457 -0.0996522 -0.0166775 0.162236 -0.0914618 -0.0131294 0.180292 
-0.0832584 -0.00973637 0.197683 -0.0751834 -0.00658274 0.214487 -0.0673235 -0.00373517 0.230798 
-0.0597145 -0.00123946 0.246713 -0.0523498 0.000880583 0.262322 -0.0451924 0.00262185 0.277702 
-0.0381878 0.0039987 0.292911 -0.0312777 0.00503822 0.307986 -0.0244113 0.00577468 0.322941 
-0.0175543 0.00624398 0.337772 -0.0106937 0.00647867 0.35246 -0.00383928 0.00650441 0.366979 
0.00297861 0.00633798 0.381301 0.00971384 0.00598718 0.395403 0.0163114 0.00545255 0.409267 
0.0227146 0.00473036 0.422886 0.0288725 0.0038166 0.436261 0.034745 0.00271107 0.449397 
0.0403072 0.00142109 0.462303 0.0455504 -3.59877e-05 0.474982 0.0504816 -0.00163172 0.48743 
0.0551203 -0.00332738 0.499629 0.0594947 -0.00507655 0.511544 0.0636368 -0.00682915 0.523126 
0.0675771 -0.00853658 0.534311 0.0713409 -0.0101571 0.545025 0.0749446 -0.0116608 0.555191 
0.0783946 -0.0130337 0.564733 0.0816872 -0.0142793 0.573585 0.0848095 -0.0154194 0.581695 
0.0877423 -0.0164909 0.589033 0.0904629 -0.017542 0.595589 0.0929492 -0.0186259 0.601377 
0.0951819 -0.0197935 0.606432 0.0971482 -0.0210863 0.610803 0.098843 -0.0225296 0.614554 
0.10027 -0.0241277 0.617751 0.101441 -0.025861 0.620461 0.102376 -0.0276857 0.622746 
0.1031 -0.0295366 0.624658 0.103643 -0.0313324 0.626239 0.104034 -0.0329826 0.62752 
0.104301 -0.0343966 0.62852 0.104469 -0.035492 0.629252 0.104557 -0.0362034 0.629721 
0.104577 -0.0364889 0.62993 
LINES 2 100
OFFSETS vtktypeint64
0 100 
CONNECTIVITY vtktypeint64
0 1 2 3 4 5 6 7 8 
9 10 11 12 13 14 15 16 17 
18 19 20 21 22 23 24 25 26 
27 28 29 30 31 32 33 34 35 
36 37 38 39 40 41 42 43 44 
45 46 47 48 49 50 51 52 53 
54 55 56 57 58 59 60 61 62 
63 64 65 66 67 68 69 70 71 
72 73 74 75 76 77 78 79 80 
81 82 83 84 85 86 87 88 89 
90 91 92 93 94 95 96 97 98 
99 
POINT_DATA 100
FIELD FieldData 3
_theta 1 100 double
0 0.031733259127 0.063466518254 0.095199777382 0.12693303651 0.15866629564 0.19039955476 0.22213281389 0.25386607302 
0.28559933214 0.31733259127 0.3490658504 0.38079910953 0.41253236865 0.44426562778 0.47599888691 0.50773214603 0.53946540516 
0.57119866429 0.60293192342 0.63466518254 0.66639844167 0.6981317008 0.72986495992 0.76159821905 0.79333147818 0.82506473731 
0.85679799643 0.88853125556 0.92026451469 0.95199777382 0.98373103294 1.0154642921 1.0471975512 1.0789308103 1.1106640695 
1.1423973286 1.1741305877 1.2058638468 1.237597106 1.2693303651 1.3010636242 1.3327968833 1.3645301425 1.3962634016 
1.4279966607 1.4597299198 1.491463179 1.5231964381 1.5549296972 1.5866629564 1.6183962155 1.6501294746 1.6818627337 
1.7135959929 1.745329252 1.7770625111 1.8087957702 1.8405290294 1.8722622885 1.9039955476 1.9357288068 1.9674620659 
1.999195325 2.0309285841 2.0626618433 2.0943951024 2.1261283615 2.1578616206 2.1895948798 2.2213281389 2.253061398 
2.2847946572 2.3165279163 2.3482611754 2.3799944345 2.4117276937 2.4434609528 2.4751942119 2.506927471 2.5386607302 
2.5703939893 2.6021272484 2.6338605076 2.6655937667 2.6973270258 2.7290602849 2.7607935441 2.7925268032 2.8242600623 
2.8559933214 2.8877265806 2.9194598397 2.9511930988 2.982926358 3.0146596171 3.0463928762 3.0781261353 3.1098593945 
3.1415926536 
_radius 1 100 double
1.446755219e-15 0.014227666025 0.028376348015 0.042365918398 0.056121502621 0.069573981767 0.082658380394 0.095310277624 0.10746093472 
0.1190323885 0.12993415045 0.1400631435 0.14930794634 0.15755736925 0.16471219144 0.17069798875 0.17547668745 0.17905482568 
0.1814872783 0.18287609993 0.18336491074 0.18312975117 0.18236752786 0.18128309422 0.18007573709 0.17892556214 0.17798027594 
0.17734336208 0.17706545958 0.17714125019 0.17751372883 0.17808631391 0.17874142773 0.17936265918 0.17985678931 0.18017178165 
0.18030713608 0.18031380917 0.18028281712 0.18032561868 0.18055464315 0.18107380506 0.18198178338 0.18338039029 0.1853767019 
0.18807236443 0.19154131001 0.1958038785 0.20080815973 0.20642626673 0.21246638822 0.21869596988 0.22486971985 0.23075700918 
0.23616474374 0.24095319993 0.24504362157 0.24841760292 0.25110935535 0.25319275335 0.25476548299 0.25593264549 0.25679186081 
0.25742139834 0.25787227282 0.25816468058 0.25828865884 0.25820843879 0.25786963679 0.25720819619 0.25615985475 0.25466884092 
0.25269447933 0.25021449551 0.24722423683 0.24373185193 0.2397504776 0.23528926544 0.23034533555 0.22489843835 0.21890942978 
0.21232287502 0.20507338803 0.19709477032 0.18833064459 0.17874507695 0.16833165501 0.15711964993 0.14517623503 0.1326042201 
0.11953532449 0.10611957887 0.092511954183 0.078857723316 0.065278334642 0.051859678958 0.038644510127 0.025630379476 0.012773746839 
1.4432553079e-15 
_area 1 100 double
0 0.00050067486952 0.0019948138031 0.0044577622017 0.0078462025213 0.012097676695 0.017132815528 0.022858814803 0.029170429893 
0.035945360873 0.043034680316 0.050253302805 0.057377152841 0.064151722187 0.070312598041 0.075614391645 0.07986182765 0.0829361648 
0.084811383706 0.085557063327 0.08532790158 0.084342774692 0.082858309546 0.081142245453 0.079449960619 0.078004589508 0.076979599129 
0.076483939809 0.076552882199 0.077149766019 0.078182249399 0.07953054124 0.081078475645 0.082736689215 0.084452755889 0.086211665073 
0.088028171905 0.089920123987 0.091868235543 0.093806106294 0.095655284847 0.097371477644 0.098978743603 0.10058752012 0.10239496343 
0.10466348113 0.10767722566 0.11168742669 0.1168568617 0.1232079075 0.13059293496 0.13870999836 0.14715910964 0.15551156745 
0.16337038337 0.17041409694 0.17642260821 0.18128532867 0.18499379374 0.18762333353 0.18931086324 0.19025091467 0.19101898478 
0.19161337796 0.19183811739 0.19165296686 0.19104685281 0.19002244528 0.18857766067 0.18669885322 0.18435831063 0.18151541722 
0.17812451334 0.17414836157 0.16957016471 0.1643972072 0.15865493142 0.15237581463 0.14558925752 0.13831699852 0.13057519326 
0.12238123226 0.11376194356 0.10476034582 0.095439861642 0.085886520904 0.076209975191 0.066543042644 0.057038374606 0.047861127818 
0.039178124327 0.03114551393 0.023897438321 0.017537752818 0.01213608928 0.0077287858993 0.0043244463556 0.0019130510699 0.0004767507338 
7.4606964599e-17 
