# vtk DataFile Version 5.1
vtk output
ASCII
DATASET POLYDATA
POINTS 100 float
0.128937 0.0739012 -0.706045 0.129055 0.0738482 -0.705952 0.12937 0.0734829 -0.705668 
0.129846 0.072813 -0.705129 0.130429 0.0718505 -0.704237 0.131048 0.0706101 -0.702868 
0.131629 0.0691074 -0.700888 0.132094 0.0673563 -0.698165 0.132372 0.0653676 -0.694581 
0.132399 0.0631465 -0.690046 0.132122 0.0606915 -0.684502 0.131495 0.0579943 -0.677931 
0.13048 0.0550391 -0.670349 0.129038 0.0518045 -0.661805 0.12713 0.0482652 -0.652371 
0.124708 0.0443944 -0.642136 0.121715 0.0401678 -0.631189 0.118087 0.0355664 -0.619615 
0.113754 0.0305812 -0.607484 0.108648 0.0252161 -0.594848 0.102708 0.0194916 -0.581733 
0.095896 0.0134466 -0.568147 0.0881981 0.00714033 -0.554077 0.0796374 0.000651722 -0.539499 
0.070277 -0.00592143 -0.524379 0.0602202 -0.0124654 -0.508681 0.0496075 -0.0188548 -0.492372 
0.0386084 -0.0249575 -0.475423 0.0274102 -0.0306417 -0.457812 0.0162041 -0.0357821 -0.439521 
0.00517097 -0.0402672 -0.420538 -0.00553165 -0.0440061 -0.400848 -0.0157801 -0.0469344 -0.380437 
-0.0254907 -0.0490182 -0.359285 -0.0346202 -0.0502573 -0.337369 -0.0431624 -0.0506855 -0.314665 
-0.0511381 -0.0503687 -0.29115 -0.0585836 -0.0494011 -0.26681 -0.0655355 -0.0478992 -0.241644 
-0.0720173 -0.0459935 -0.215672 -0.0780272 -0.0438199 -0.188942 -0.0835304 -0.0415103 -0.16153 
-0.0884565 -0.0391834 -0.133544 -0.0927031 -0.0369371 -0.10512 -0.0961439 -0.034842 -0.0764188 
-0.0986427 -0.0329384 -0.0476134 -0.100069 -0.031235 -0.0188835 -0.100315 -0.0297116 0.0095982 
-0.0993115 -0.0283235 0.0376757 -0.0970372 -0.0270092 0.0652189 -0.0935273 -0.0256989 0.0921294 
-0.0888721 -0.0243244 0.118343 -0.0832103 -0.0228282 0.143831 -0.0767169 -0.0211718 0.16859 
-0.0695865 -0.0193417 0.192641 -0.0620147 -0.0173523 0.216016 -0.0541796 -0.0152463 0.238749 
-0.0462258 -0.0130915 0.260869 -0.038254 -0.0109746 0.282392 -0.0303156 -0.00899288 0.303316 
-0.0224145 -0.0072442 0.323624 -0.0145155 -0.00581715 0.343286 -0.00655754 -0.00478148 0.362263 
0.00152979 -0.00418061 0.380522 0.00980836 -0.00402674 0.398036 0.0183156 -0.00429927 0.414802 
0.027052 -0.00494665 0.43084 0.0359746 -0.00589153 0.446198 0.0449966 -0.00703864 0.460955 
0.0539936 -0.00828452 0.47521 0.0628158 -0.009528 0.48908 0.0713042 -0.0106802 0.502683 
0.0793089 -0.0116733 0.51613 0.0867064 -0.0124658 0.52951 0.0934144 -0.0130463 0.542879 
0.0994009 -0.0134317 0.556254 0.104688 -0.013664 0.569605 0.109349 -0.0138027 0.582862 
0.113495 -0.0139161 0.595915 0.117264 -0.0140717 0.608625 0.120803 -0.0143265 0.620837 
0.124244 -0.0147188 0.632393 0.127694 -0.0152634 0.643147 0.131219 -0.0159486 0.652978 
0.134835 -0.0167375 0.661796 0.138515 -0.0175727 0.669553 0.142185 -0.0183832 0.676243 
0.145746 -0.0190936 0.681897 0.149082 -0.0196338 0.686584 0.152081 -0.0199488 0.690396 
0.154649 -0.0200057 0.693443 0.156727 -0.0197994 0.69584 0.158293 -0.0193538 0.697701 
0.159371 -0.0187204 0.69913 0.160021 -0.0179728 0.700215 0.160334 -0.0171988 0.701028 
0.160416 -0.0164908 0.701626 0.160372 -0.0159349 0.702045 0.160291 -0.015601 0.702313 
0.160231 -0.015535 0.702441 
LINES 2 100
OFFSETS vtktypeint64
0 100 
CONNECTIVITY vtktypeint64
0 1 2 3 4 5 6 7 8 
9 10 11 12 13 14 15 16 17 
18 19 20 21 22 23 24 25 26 
27 28 29 30 31 32 33 34 35 
36 37 38 39 40 41 42 43 44 
45 46 47 48 49 50 51 52 53 
54 55 56 57 58 59 60 61 62 
63 64 65 66 67 68 69 70 71 
72 73 74 75 76 77 78 79 80 
81 82 83 84 85 86 87 88 89 
90 91 92 93 94 95 96 97 98 
99 
POINT_DATA 100
FIELD FieldData 3
_theta 1 100 double
0 0.031733259127 0.063466518254 0.095199777382 0.12693303651 0.15866629564 0.19039955476 0.22213281389 0.25386607302 
0.28559933214 0.31733259127 0.3490658504 0.38079910953 0.41253236865 0.44426562778 0.47599888691 0.50773214603 0.53946540516 
0.57119866429 0.60293192342 0.63466518254 0.66639844167 0.6981317008 0.72986495992 0.76159821905 0.79333147818 0.82506473731 
0.85679799643 0.88853125556 0.92026451469 0.95199777382 0.98373103294 1.0154642921 1.0471975512 1.0789308103 1.1106640695 
1.1423973286 1.1741305877 1.2058638468 1.237597106 1.2693303651 1.3010636242 1.3327968833 1.3645301425 1.3962634016 
1.4279966607 1.4597299198 1.491463179 1.5231964381 1.5549296972 1.5866629564 1.6183962155 1.6501294746 1.6818627337 
1.7135959929 1.745329252 1.7770625111 1.8087957702 1.8405290294 1.8722622885 1.9039955476 1.9357288068 1.9674620659 
1.999195325 2.0309285841 2.0626618433 2.0943951024 2.1261283615 2.1578616206 2.1895948798 2.2213281389 2.253061398 
2.2847946572 2.3165279163 2.3482611754 2.3799944345 2.4117276937 2.4434609528 2.4751942119 2.506927471 2.5386607302 
2.5703939893 2.6021272484 2.6338605076 2.6655937667 2.6973270258 2.7290602849 2.7607935441 2.7925268032 2.8242600623 
2.8559933214 2.8877265806 2.9194598397 2.9511930988 2.982926358 3.0146596171 3.0463928762 3.0781261353 3.1098593945 
3.1415926536 
_radius 1 100 double
2.8305244335e-16 0.014738816764 0.029399470606 0.043902220523 0.05817892379 0.072175145086 0.085848794042 0.09916578249 0.1120937424 
0.12459496778 0.13661959201 0.1480998785 0.15894657959 0.16904852327 0.17827660557 0.18649290965 0.19356471509 0.19938196157 
0.20387566776 0.2070341885 0.20891418247 0.20964378529 0.20941666369 0.20847718764 0.20709857802 0.20555713683 0.20410615907 
0.20295278956 0.20224024837 0.20203696337 0.20233344124 0.20304712569 0.20403493633 0.20511261804 0.20607939257 0.20674559981 
0.20696011984 0.20663373908 0.20575471953 0.204393866 0.20269818044 0.20087428303 0.19916463908 0.19782079066 0.19707788804 
0.19713371825 0.19813350914 0.20016000082 0.20322762745 0.20728036419 0.21219405652 0.21778469273 0.22382346392 0.23005780154 
0.23623569615 0.24212937486 0.24755436965 0.2523810833 0.25653767593 0.26000489157 0.26280488713 0.26498693465 0.26661292941 
0.26774503823 0.26843684535 0.26872836375 0.26864456213 0.26819669788 0.26738564658 0.2662064076 0.26465293349 0.26272238623 
0.26041795644 0.25774956506 0.25473208638 0.25138111333 0.24770670238 0.24370602204 0.23935636489 0.23461036259 0.22939515747 
0.22361656644 0.21716807969 0.20994329515 0.2018495527 0.19282033648 0.18282441954 0.17187051245 0.16000707811 0.14731776172 
0.13391341213 0.11992190463 0.10547699504 0.090707379271 0.075727084847 0.060628244584 0.04547708797 0.030313576859 0.015154581176 
6.3489104094e-16 
_area 1 100 double
0 0.00060453596178 0.0023960531348 0.0053147385659 0.009279592287 0.014207381743 0.020024516979 0.026665631548 0.034060308782 
0.042115643116 0.050702032277 0.059644989897 0.068722507051 0.077667685687 0.086178217599 0.093935087599 0.10063123443 0.10600731188 
0.10988791738 0.11220961904 0.11303304287 0.11253523614 0.11098424452 0.108703036 0.10603223377 0.10329967821 0.10080080397 
0.098788922241 0.097469452804 0.096989127434 0.097414129918 0.09870670949 0.1007143956 0.10317147042 0.10573407984 0.10804128194 
0.1097850929 0.11077838135 0.11101039755 0.11066620234 0.11007859268 0.10961565164 0.1095738159 0.11013856175 0.11137666097 
0.1132710218 0.11582042716 0.11909148658 0.12320266562 0.12828132375 0.13441866801 0.14162919688 0.14980976688 0.15870481419 
0.16791074584 0.17694332615 0.18533747818 0.19273041872 0.19890571127 0.20379739392 0.20746232679 0.21003406273 0.21167330607 
0.21252726216 0.21270452047 0.21226658588 0.2112334934 0.20959824175 0.20734280329 0.20444998656 0.20091098005 0.19673245687 
0.19194512324 0.18661074521 0.18082253344 0.17469536632 0.1683458866 0.16186619527 0.15529742055 0.1486109863 0.14170612282 
0.13442924512 0.12661233776 0.11811885301 0.10888376191 0.098938581389 0.088417399415 0.077543762002 0.066601497078 0.055895973531 
0.045715143897 0.03629992992 0.027829698144 0.020422321389 0.01414372281 0.0090212732579 0.0050573806302 0.0022414483604 0.00055933701337 
6.9604938994e-17 
