# vtk DataFile Version 5.1
vtk output
ASCII
DATASET POLYDATA
POINTS 100 float
0.215157 0.0168071 -0.606405 0.214828 0.0169683 -0.606569 0.213902 0.0173391 -0.607111 
0.212405 0.0178925 -0.607895 0.210381 0.0185841 -0.608714 0.20788 0.0193538 -0.609307 
0.204957 0.0201286 -0.609392 0.201663 0.0208264 -0.608696 0.198036 0.0213601 -0.606981 
0.194101 0.0216418 -0.604073 0.189857 0.0215878 -0.599874 0.18528 0.0211235 -0.594375 
0.180323 0.0201874 -0.587645 0.174914 0.0187351 -0.579826 0.168968 0.0167422 -0.571109 
0.162391 0.0142058 -0.56171 0.155092 0.0111455 -0.551843 0.146992 0.00760257 -0.541696 
0.138037 0.00363799 -0.531407 0.128207 -0.000670425 -0.521053 0.117522 -0.00523191 -0.51064 
0.106049 -0.00994716 -0.500111 0.0938977 -0.014713 -0.489351 0.0812171 -0.0194272 -0.47821 
0.0681875 -0.0239923 -0.466522 0.0550069 -0.0283199 -0.454126 0.0418756 -0.0323328 -0.440891 
0.0289803 -0.0359676 -0.426729 0.0164783 -0.0391752 -0.411609 0.004484 -0.0419213 -0.395557 
-0.00694049 -0.0441857 -0.378652 -0.0177895 -0.0459613 -0.36102 -0.0281126 -0.0472524 -0.34281 
-0.0380067 -0.0480734 -0.32418 -0.0476039 -0.0484466 -0.305278 -0.0570536 -0.0484011 -0.286223 
-0.0665035 -0.0479707 -0.267091 -0.0760797 -0.0471926 -0.24791 -0.0858677 -0.0461066 -0.228659 
-0.0958985 -0.0447532 -0.209272 -0.106139 -0.043173 -0.189652 -0.116491 -0.0414053 -0.169682 
-0.126792 -0.0394875 -0.14925 -0.13683 -0.0374538 -0.128258 -0.146359 -0.035335 -0.106642 
-0.155119 -0.0331577 -0.0843817 -0.162857 -0.0309443 -0.0615081 -0.169351 -0.0287134 -0.0381016 
-0.174426 -0.0264802 -0.0142889 -0.17797 -0.0242577 0.0097676 -0.179939 -0.0220577 0.0338824 
-0.18036 -0.0198923 0.057862 -0.179324 -0.0177746 0.0815195 -0.176975 -0.0157199 0.104688 
-0.173493 -0.0137456 0.127232 -0.169079 -0.0118714 0.149052 -0.163934 -0.0101175 0.17009 
-0.158247 -0.00850354 0.190326 -0.152177 -0.00704596 0.209778 -0.145851 -0.00575585 0.228487 
-0.139362 -0.0046365 0.246517 -0.132766 -0.00368153 0.263943 -0.126098 -0.00287383 0.280843 
-0.119376 -0.0021856 0.29729 -0.112611 -0.00157973 0.313353 -0.105826 -0.00101239 0.329085 
-0.0990532 -0.00043689 0.344532 -0.0923458 0.000191601 0.359725 -0.0857753 0.000910982 0.374686 
-0.0794283 0.00174728 0.389427 -0.0733987 0.00271049 0.403951 -0.0677777 0.00379182 0.418256 
-0.0626431 0.00496271 0.432331 -0.0580492 0.00617606 0.446159 -0.0540193 0.00736961 0.459716 
-0.0505412 0.00847136 0.472967 -0.0475681 0.00940654 0.485871 -0.0450228 0.0101055 0.498381 
-0.0428071 0.0105117 0.510441 -0.0408128 0.0105889 0.521994 -0.038935 0.0103264 0.53298 
-0.0370848 0.00974261 0.543345 -0.0351995 0.0088848 0.553042 -0.0332501 0.00782652 0.562032 
-0.0312434 0.00666172 0.570291 -0.02922 0.00549653 0.577811 -0.0272474 0.00443933 0.584596 
-0.0254094 0.00359016 0.590667 -0.0237933 0.00303057 0.596054 -0.0224767 0.00281506 0.600797 
-0.0215156 0.00296495 0.604939 -0.0209353 0.00346561 0.608527 -0.0207256 0.00426728 0.611605 
-0.0208407 0.00528953 0.61421 -0.0212047 0.00642901 0.616376 -0.02172 0.00756963 0.618129 
-0.0222801 0.00859425 0.619487 -0.0227832 0.00939657 0.620465 -0.0231448 0.00989195 0.621069 
-0.0233093 0.0100262 0.621305 
LINES 2 100
OFFSETS vtktypeint64
0 100 
CONNECTIVITY vtktypeint64
0 1 2 3 4 5 6 7 8 
9 10 11 12 13 14 15 16 17 
18 19 20 21 22 23 24 25 26 
27 28 29 30 31 32 33 34 35 
36 37 38 39 40 41 42 43 44 
45 46 47 48 49 50 51 52 53 
54 55 56 57 58 59 60 61 62 
63 64 65 66 67 68 69 70 71 
72 73 74 75 76 77 78 79 80 
81 82 83 84 85 86 87 88 89 
90 91 92 93 94 95 96 97 98 
99 
POINT_DATA 100
FIELD FieldData 3
_theta 1 100 double
0 0.031733259127 0.063466518254 0.095199777382 0.12693303651 0.15866629564 0.19039955476 0.22213281389 0.25386607302 
0.28559933214 0.31733259127 0.3490658504 0.38079910953 0.41253236865 0.44426562778 0.47599888691 0.50773214603 0.53946540516 
0.57119866429 0.60293192342 0.63466518254 0.66639844167 0.6981317008 0.72986495992 0.76159821905 0.79333147818 0.82506473731 
0.85679799643 0.88853125556 0.92026451469 0.95199777382 0.98373103294 1.0154642921 1.0471975512 1.0789308103 1.1106640695 
1.1423973286 1.1741305877 1.2058638468 1.237597106 1.2693303651 1.3010636242 1.3327968833 1.3645301425 1.3962634016 
1.4279966607 1.4597299198 1.491463179 1.5231964381 1.5549296972 1.5866629564 1.6183962155 1.6501294746 1.6818627337 
1.7135959929 1.745329252 1.7770625111 1.8087957702 1.8405290294 1.8722622885 1.9039955476 1.9357288068 1.9674620659 
1.999195325 2.0309285841 2.0626618433 2.0943951024 2.1261283615 2.1578616206 2.1895948798 2.2213281389 2.253061398 
2.2847946572 2.3165279163 2.3482611754 2.3799944345 2.4117276937 2.4434609528 2.4751942119 2.506927471 2.5386607302 
2.5703939893 2.6021272484 2.6338605076 2.6655937667 2.6973270258 2.7290602849 2.7607935441 2.7925268032 2.8242600623 
2.8559933214 2.8877265806 2.9194598397 2.9511930988 2.982926358 3.0146596171 3.0463928762 3.0781261353 3.1098593945 
3.1415926536 
_radius 1 100 double
2.4864100872e-16 0.013290766061 0.026474113248 0.039443248285 0.052094846101 0.064331830112 0.076066408689 0.087222650987 0.097737713008 
0.10756109883 0.11665204659 0.12497599542 0.13250169374 0.13920047033 0.14504842185 0.15003110347 0.1541492931 0.15742394916 
0.15989867832 0.1616387217 0.16272644122 0.16325434085 0.16331753665 0.16300793567 0.16241183409 0.16161116022 0.16068676356 
0.15972100122 0.15879708315 0.15799408249 0.15737849103 0.15699486141 0.15685872764 0.15695431101 0.15723777879 0.15764486116 
0.15810040824 0.15852750584 0.15885487867 0.15902276887 0.15898841942 0.15873215721 0.15826395681 0.15762896625 0.15690964545 
0.15622251679 0.15570907838 0.15552233366 0.15581136198 0.15670598507 0.15830282204 0.16065382537 0.16375852349 0.16756095089 
0.17195152235 0.17677335843 0.18183224027 0.18690955987 0.19177794005 0.19621904713 0.20004235717 0.20310269395 0.20531384504 
0.20665582987 0.20717439301 0.20697269613 0.2061965625 0.20501563495 0.20360323806 0.20211756316 0.20068615956 0.19939486716 
0.19828154029 0.19733438018 0.19649444901 0.19566187736 0.1947052519 0.19347355291 0.19180972754 0.18956456755 0.18660920941 
0.18284456813 0.1782064977 0.17266632707 0.16622736207 0.15891868256 0.15078791584 0.14189455949 0.13230488865 0.12208868375 
0.1113172683 0.10006200237 0.088392585793 0.076375110887 0.064070370226 0.051533110146 0.038812613984 0.025954396732 0.013002277558 
4.8021549315e-16 
_area 1 100 double
0 0.00039972521239 0.0016022700389 0.0036121831155 0.0064208410814 0.0099894789151 0.014237158424 0.019039252356 0.024237560293 
0.029658259166 0.035130613891 0.040499395694 0.045627803537 0.050393490392 0.054684041369 0.058397244933 0.061447547339 0.063776926763 
0.06536677978 0.066246066961 0.066490976509 0.06621427987 0.065546934616 0.06461750469 0.063535304801 0.062381553345 0.061210841051 
0.06006478475 0.058991002668 0.058053124068 0.057322297377 0.056858937351 0.056700734428 0.056856512272 0.057305618467 0.058003930664 
0.058894931192 0.059921890045 0.061036018691 0.062199235588 0.063383987176 0.064569521568 0.065732516571 0.066839825434 0.067857322666 
0.068773641424 0.069620063981 0.070472239899 0.07143826505 0.07264640783 0.074238312244 0.07636312962 0.079158942574 0.082710087729 
0.087005549726 0.091934971061 0.097309915599 0.10288442569 0.10837095675 0.11345984921 0.11784721611 0.1212684321 0.12353031904 
0.12453559628 0.12429565554 0.12292993198 0.12065158048 0.11774058121 0.11450729346 0.11125133027 0.10822178473 0.1055857631 
0.1034122827 0.10167478395 0.10026936143 0.099041745102 0.097813608358 0.096401139717 0.094626281946 0.092325873189 0.089363371379 
0.085644174154 0.081131224218 0.075855101425 0.06991379002 0.063460884062 0.056684785351 0.049783944371 0.042944077198 0.036322523803 
0.030042511547 0.024196624422 0.018855726519 0.014078571857 0.0099186306264 0.0064269402696 0.0036515573957 0.0016349383806 0.00041058701594 
8.8796216758e-18 
