# vtk DataFile Version 5.1
vtk output
ASCII
DATASET POLYDATA
POINTS 100 float
0.0985942 0.0456637 -0.656606 0.098629 0.0454689 -0.656569 0.0987668 0.0447308 -0.656418 
0.099008 0.0434909 -0.656065 0.0993502 0.0418125 -0.655371 0.0997854 0.039774 -0.654167 
0.100296 0.037459 -0.65227 0.100852 0.0349473 -0.649503 0.101405 0.0323063 -0.645717 
0.101889 0.0295847 -0.640805 0.102217 0.0268086 -0.63471 0.102283 0.023981 -0.627436 
0.101969 0.0210849 -0.619038 0.101142 0.0180889 -0.609622 0.0996715 0.0149543 -0.599324 
0.09743 0.0116436 -0.588301 0.0943062 0.00812871 -0.57671 0.0902129 0.00439722 -0.564692 
0.0850946 0.000456976 -0.552361 0.0789333 -0.00366253 -0.539792 0.0717519 -0.00791157 -0.527018 
0.0636139 -0.0122242 -0.514031 0.0546204 -0.0165242 -0.500786 0.0449039 -0.0207323 -0.48721 
0.034619 -0.0247733 -0.473212 0.0239322 -0.0285819 -0.458696 0.0130103 -0.0321072 -0.443568 
0.00200991 -0.0353147 -0.427745 -0.00893222 -0.038186 -0.411162 -0.0197053 -0.0407158 -0.393773 
-0.030228 -0.0429077 -0.375551 -0.0404474 -0.0447693 -0.356487 -0.0503353 -0.0463066 -0.336587 
-0.0598801 -0.0475205 -0.315867 -0.0690772 -0.0484046 -0.294353 -0.0779187 -0.0489443 -0.272079 
-0.0863823 -0.04912 -0.249089 -0.0944229 -0.0489105 -0.225436 -0.101968 -0.0482985 -0.201187 
-0.108914 -0.0472765 -0.176428 -0.115133 -0.045852 -0.151261 -0.120476 -0.0440514 -0.125806 
-0.124788 -0.0419211 -0.100201 -0.127919 -0.0395264 -0.0745936 -0.129743 -0.0369477 -0.0491344 
-0.130167 -0.0342742 -0.0239691 -0.12915 -0.0315954 0.000773212 -0.126704 -0.0289935 0.0249893 
-0.122904 -0.0265346 0.0486095 -0.117881 -0.0242632 0.0716024 -0.111814 -0.0221978 0.0939758 
-0.104919 -0.0203313 0.115773 -0.0974296 -0.0186332 0.137066 -0.0895779 -0.0170564 0.157943 
-0.0815776 -0.0155451 0.178495 -0.0736051 -0.0140444 0.198807 -0.0657879 -0.0125104 0.218939 
-0.058197 -0.0109182 0.23892 -0.0508458 -0.00926761 0.258746 -0.0436957 -0.00758596 0.278373 
-0.036667 -0.00592664 0.297729 -0.029654 -0.00436428 0.316721 -0.0225432 -0.00298685 0.335248 
-0.0152312 -0.00188562 0.353214 -0.00764117 -0.00114444 0.370546 0.000264892 -0.000829548 0.387202 
0.00847855 -0.000981416 0.403177 0.0169439 -0.00160949 0.418512 0.0255621 -0.00269065 0.433281 
0.0342022 -0.00417149 0.447589 0.0427149 -0.00597402 0.461555 0.0509493 -0.00800413 0.475295 
0.0587698 -0.0101616 0.488908 0.0660701 -0.01235 0.50246 0.0727849 -0.0144862 0.515973 
0.0788948 -0.0165066 0.529417 0.0844266 -0.0183709 0.542715 0.0894477 -0.0200626 0.555749 
0.0940553 -0.0215854 0.568368 0.0983622 -0.0229576 0.580414 0.102482 -0.0242047 0.59173 
0.106512 -0.0253512 0.602187 0.110525 -0.0264133 0.611693 0.114554 -0.0273941 0.620207 
0.118595 -0.0282805 0.627744 0.122605 -0.0290446 0.634367 0.12651 -0.0296467 0.640185 
0.130217 -0.0300426 0.645333 0.133627 -0.0301909 0.649958 0.136647 -0.0300621 0.654198 
0.139206 -0.0296454 0.658167 0.141265 -0.0289551 0.66194 0.142819 -0.0280321 0.665547 
0.143901 -0.0269433 0.668968 0.144575 -0.0257768 0.672143 0.14493 -0.0246338 0.674976 
0.145063 -0.0236189 0.677359 0.14507 -0.0228284 0.679179 0.14503 -0.0223408 0.680343 
0.144997 -0.022207 0.680787 
LINES 2 100
OFFSETS vtktypeint64
0 100 
CONNECTIVITY vtktypeint64
0 1 2 3 4 5 6 7 8 
9 10 11 12 13 14 15 16 17 
18 19 20 21 22 23 24 25 26 
27 28 29 30 31 32 33 34 35 
36 37 38 39 40 41 42 43 44 
45 46 47 48 49 50 51 52 53 
54 55 56 57 58 59 60 61 62 
63 64 65 66 67 68 69 70 71 
72 73 74 75 76 77 78 79 80 
81 82 83 84 85 86 87 88 89 
90 91 92 93 94 95 96 97 98 
99 
POINT_DATA 100
FIELD FieldData 3
_theta 1 100 double
0 0.031733259127 0.063466518254 0.095199777382 0.12693303651 0.15866629564 0.19039955476 0.22213281389 0.25386607302 
0.28559933214 0.31733259127 0.3490658504 0.38079910953 0.41253236865 0.44426562778 0.47599888691 0.50773214603 0.53946540516 
0.57119866429 0.60293192342 0.63466518254 0.66639844167 0.6981317008 0.72986495992 0.76159821905 0.79333147818 0.82506473731 
0.85679799643 0.88853125556 0.92026451469 0.95199777382 0.98373103294 1.0154642921 1.0471975512 1.0789308103 1.1106640695 
1.1423973286 1.1741305877 1.2058638468 1.237597106 1.2693303651 1.3010636242 1.3327968833 1.3645301425 1.3962634016 
1.4279966607 1.4597299198 1.491463179 1.5231964381 1.5549296972 1.5866629564 1.6183962155 1.6501294746 1.6818627337 
1.7135959929 1.745329252 1.7770625111 1.8087957702 1.8405290294 1.8722622885 1.9039955476 1.9357288068 1.9674620659 
1.999195325 2.0309285841 2.0626618433 2.0943951024 2.1261283615 2.1578616206 2.1895948798 2.2213281389 2.253061398 
2.2847946572 2.3165279163 2.3482611754 2.3799944345 2.4117276937 2.4434609528 2.4751942119 2.506927471 2.5386607302 
2.5703939893 2.6021272484 2.6338605076 2.6655937667 2.6973270258 2.7290602849 2.7607935441 2.7925268032 2.8242600623 
2.8559933214 2.8877265806 2.9194598397 2.9511930988 2.982926358 3.0146596171 3.0463928762 3.0781261353 3.1098593945 
3.1415926536 
_radius 1 100 double
1.0070006276e-15 0.015716451519 0.031297151808 0.046608458685 0.061528475149 0.075953492111 0.089804098621 0.10302969484 0.1156098687 
0.12755131758 0.13887978502 0.14962777036 0.15982025535 0.16946182031 0.17852866718 0.18696794299 0.19470472557 0.20165494404 
0.20774115509 0.21290778713 0.21713300501 0.22043532662 0.22287417876 0.22454451153 0.225566352 0.22607080874 0.22618459388 
0.22601558714 0.22564214206 0.22510838204 0.22442641971 0.22358457873 0.22255920256 0.2213272725 0.21987779165 0.21822099606 
0.21639515871 0.2144707543 0.2125513216 0.21077005918 0.20928145259 0.2082481355 0.20782446325 0.20813937165 0.20928138294 
0.21128789262 0.214139681 0.21776077243 0.2220235003 0.22675842039 0.2317682004 0.23684403994 0.24178290061 0.24640386057 
0.25056203871 0.254158665 0.25714610742 0.25952714526 0.26134852939 0.262689765 0.26364885915 0.26432724694 0.26481608663 
0.26518561272 0.26547846439 0.26570715344 0.26585529416 0.26588190047 0.26572787073 0.26532367434 0.26459725352 0.26348127522 
0.26191902253 0.25986827646 0.25730252801 0.25420901142 0.25058358877 0.24642338835 0.24171895135 0.23644805433 0.23057310514 
0.22404309575 0.21679984773 0.20878714922 0.19996072788 0.1902969711 0.17979878319 0.16849771899 0.15645232027 0.14374325392 
0.13046631925 0.11672458384 0.10262078596 0.088250784631 0.073698443006 0.059032093027 0.044302698383 0.029543885998 0.014773983927 
1.1408414514e-15 
_area 1 100 double
0 0.00056810226472 0.0022686934074 0.0050856268077 0.0089776059777 0.013864432377 0.019621054297 0.02608552026 0.03308031442 
0.040439739175 0.048031642648 0.055761323556 0.063551745424 0.071308405926 0.078889360837 0.08609731081 0.092696267395 0.098445366398 
0.10313990516 0.10664981269 0.10894657902 0.11011191748 0.11032567351 0.10983612373 0.10892068233 0.10784572221 0.10683062832 
0.10602140912 0.10548245766 0.10520678741 0.10513727433 0.1051942951 0.10530252675 0.10540402088 0.10545725935 0.10544105964 
0.10536633833 0.10529833368 0.10534026248 0.10562803736 0.10628701627 0.10736315165 0.10885637041 0.11078555986 0.11321774414 
0.1162478923 0.11995993383 0.12439201868 0.12951498015 0.13522484626 0.14134995508 0.14767124089 0.15395053688 0.1599605711 
0.16551078502 0.17046356749 0.17473712009 0.17829523214 0.18112983134 0.18324597649 0.18465719692 0.18539193869 0.18550483542 
0.18508419173 0.18424882356 0.18313115573 0.18184910903 0.18047619175 0.17902244779 0.17743306209 0.17560113848 0.17338842101 
0.17065280014 0.16728160561 0.16322162481 0.15849217008 0.15317319434 0.14737140913 0.14117736078 0.13463187998 0.12771744992 
0.12037760898 0.11255288902 0.10421615857 0.095395537459 0.086181566354 0.076720633653 0.067198296274 0.057816438029 0.048769016937 
0.040222335443 0.032305401548 0.025112296954 0.01871290499 0.013165152344 0.0085233220574 0.004840636755 0.002167040512 0.00054421128448 
8.594740894e-17 
