# vtk DataFile Version 5.1
vtk output
ASCII
DATASET POLYDATA
POINTS 100 float
0.095685 0.0686468 -0.63829 0.095674 0.0683987 -0.638511 0.0956238 0.0674423 -0.639106 
0.0955468 0.0658227 -0.639927 0.0954612 0.0636111 -0.640748 0.0953881 0.0608973 -0.64129 
0.0953477 0.0577812 -0.641256 0.095354 0.0543631 -0.640361 0.09541 0.0507343 -0.638365 
0.0955021 0.0469691 -0.635097 0.0955956 0.0431188 -0.63047 0.0956317 0.0392084 -0.624488 
0.0955259 0.0352363 -0.617234 0.0951691 0.0311773 -0.608858 0.0944321 0.0269879 -0.599551 
0.0931723 0.0226143 -0.589518 0.0912437 0.0180012 -0.578946 0.0885086 0.0131013 -0.567982 
0.084851 0.00788413 -0.556713 0.0801888 0.00234329 -0.545159 0.0744854 -0.00349836 -0.53327 
0.0677573 -0.00958634 -0.52094 0.0600779 -0.0158352 -0.50802 0.0515757 -0.0221318 -0.494345 
0.0424268 -0.0283416 -0.47976 0.0328425 -0.0343165 -0.464137 0.023052 -0.0399043 -0.447399 
0.013283 -0.0449584 -0.429532 0.00374103 -0.0493475 -0.410582 -0.00540922 -0.0529634 -0.390656 
-0.0140586 -0.0557283 -0.369903 -0.0221625 -0.0575987 -0.348497 -0.0297424 -0.0585676 -0.326617 
-0.0368796 -0.0586636 -0.304424 -0.0437011 -0.0579484 -0.282043 -0.0503602 -0.0565117 -0.259552 
-0.0570117 -0.0544643 -0.236976 -0.0637868 -0.0519312 -0.214291 -0.0707689 -0.0490431 -0.191435 
-0.0779745 -0.0459291 -0.168324 -0.0853415 -0.0427088 -0.144869 -0.0927257 -0.0394873 -0.120998 
-0.0999083 -0.0363495 -0.0966735 -0.106611 -0.0333584 -0.0719015 -0.112523 -0.0305531 -0.046741 
-0.117325 -0.0279502 -0.0213014 -0.120726 -0.0255461 0.00426567 -0.122492 -0.0233203 0.0297794 
-0.122468 -0.021241 0.0550476 -0.1206 -0.0192697 0.0798842 -0.116938 -0.0173674 0.104127 
-0.111635 -0.0154996 0.127651 -0.10493 -0.0136411 0.150376 -0.0971275 -0.0117794 0.172268 
-0.0885647 -0.00991654 0.193338 -0.0795826 -0.00807017 0.21363 -0.070492 -0.00627207 0.233209 
-0.0615477 -0.0045657 0.25215 -0.0529287 -0.00300239 0.270521 -0.0447282 -0.00163656 0.288377 
-0.0369548 -0.000520577 0.30575 -0.0295426 0.000300311 0.322653 -0.0223705 0.0007925 0.339079 
-0.0152869 0.000937453 0.355013 -0.00813691 0.00073372 0.37044 -0.000788271 0.000197311 0.385357 
0.00684676 -0.000639621 0.39978 0.0147968 -0.00173166 0.413752 0.0230254 -0.00302429 0.427346 
0.031434 -0.0044588 0.440655 0.0398733 -0.00597755 0.453787 0.0481621 -0.00752886 0.466854 
0.0561083 -0.00907105 0.479951 0.0635332 -0.0105752 0.493148 0.0702915 -0.0120262 0.506473 
0.0762876 -0.0134223 0.519903 0.081485 -0.0147724 0.533367 0.085907 -0.0160931 0.54674 
0.0896307 -0.0174036 0.559864 0.0927736 -0.0187214 0.572552 0.0954761 -0.0200573 0.584614 
0.0978816 -0.0214125 0.595873 0.100118 -0.0227759 0.606183 0.102281 -0.0241239 0.615443 
0.104426 -0.0254221 0.623608 0.106562 -0.0266279 0.630689 0.108658 -0.0276957 0.636749 
0.11065 -0.0285817 0.641894 0.112457 -0.0292497 0.646257 0.113994 -0.0296764 0.649985 
0.115192 -0.0298548 0.653214 0.116008 -0.029797 0.656061 0.116438 -0.029534 0.658612 
0.116514 -0.0291137 0.660914 0.116306 -0.0285974 0.662977 0.115912 -0.0280536 0.66478 
0.11544 -0.0275521 0.666278 0.115 -0.0271564 0.667421 0.114681 -0.0269179 0.668159 
0.114545 -0.0268702 0.668457 
LINES 2 100
OFFSETS vtktypeint64
0 100 
CONNECTIVITY vtktypeint64
0 1 2 3 4 5 6 7 8 
9 10 11 12 13 14 15 16 17 
18 19 20 21 22 23 24 25 26 
27 28 29 30 31 32 33 34 35 
36 37 38 39 40 41 42 43 44 
45 46 47 48 49 50 51 52 53 
54 55 56 57 58 59 60 61 62 
63 64 65 66 67 68 69 70 71 
72 73 74 75 76 77 78 79 80 
81 82 83 84 85 86 87 88 89 
90 91 92 93 94 95 96 97 98 
99 
POINT_DATA 100
FIELD FieldData 3
_theta 1 100 double
0 0.031733259127 0.063466518254 0.095199777382 0.12693303651 0.15866629564 0.19039955476 0.22213281389 0.25386607302 
0.28559933214 0.31733259127 0.3490658504 0.38079910953 0.41253236865 0.44426562778 0.47599888691 0.50773214603 0.53946540516 
0.57119866429 0.60293192342 0.63466518254 0.66639844167 0.6981317008 0.72986495992 0.76159821905 0.79333147818 0.82506473731 
0.85679799643 0.88853125556 0.92026451469 0.95199777382 0.98373103294 1.0154642921 1.0471975512 1.0789308103 1.1106640695 
1.1423973286 1.1741305877 1.2058638468 1.237597106 1.2693303651 1.3010636242 1.3327968833 1.3645301425 1.3962634016 
1.4279966607 1.4597299198 1.491463179 1.5231964381 1.5549296972 1.5866629564 1.6183962155 1.6501294746 1.6818627337 
1.7135959929 1.745329252 1.7770625111 1.8087957702 1.8405290294 1.8722622885 1.9039955476 1.9357288068 1.9674620659 
1.999195325 2.0309285841 2.0626618433 2.0943951024 2.1261283615 2.1578616206 2.1895948798 2.2213281389 2.253061398 
2.2847946572 2.3165279163 2.3482611754 2.3799944345 2.4117276937 2.4434609528 2.4751942119 2.506927471 2.5386607302 
2.5703939893 2.6021272484 2.6338605076 2.6655937667 2.6973270258 2.7290602849 2.7607935441 2.7925268032 2.8242600623 
2.8559933214 2.8877265806 2.9194598397 2.9511930988 2.982926358 3.0146596171 3.0463928762 3.0781261353 3.1098593945 
3.1415926536 
_radius 1 100 double
8.9788321887e-16 0.014457820472 0.028869560555 0.043186590147 0.05736560252 0.071367787698 0.085154907803 0.098682861633 0.11189413847 
0.12471101666 0.13703132057 0.14872804208 0.15965335868 0.16964680612 0.17854679386 0.18620435258 0.19249790621 0.19734783215 
0.2007294923 0.20268325468 0.20331985895 0.20281947348 0.20142313557 0.1994161099 0.19710408078 0.19478483063 0.19271965964 
0.19110951113 0.19007994025 0.18967678572 0.18987170813 0.19057485693 0.19165131628 0.19293853859 0.19426339467 0.19545906377 
0.19638270329 0.19693395196 0.19707207628 0.19682726614 0.1963010061 0.19565286977 0.19507614191 0.19476961993 0.19491411299 
0.19565854419 0.19711490518 0.19935735476 0.20242061081 0.20629586627 0.21092603574 0.21620371739 0.22197452893 0.22804674995 
0.23420651883 0.24023643409 0.2459344876 0.25113016277 0.25569530384 0.25954863029 0.2626540961 0.26501439213 0.26666157504 
0.26764695001 0.26803192021 0.26788072559 0.26725516875 0.26621090607 0.26479482397 0.26304331663 0.26098163988 0.25862462162 
0.25597868895 0.25304451627 0.24981897823 0.24629500466 0.24245866867 0.23828418661 0.23372881796 0.22873020659 0.22320815987 
0.21707144599 0.21022854272 0.20260006639 0.19413021287 0.18479492621 0.17460540857 0.16360668236 0.15187194824 0.13949422465 
0.12657702813 0.11322561542 0.099539745456 0.085608357585 0.071506214206 0.057292401984 0.043010501853 0.028690165728 0.014349793335 
7.3656490383e-16 
_area 1 100 double
0 0.00061860017719 0.0024577288762 0.0054696689227 0.0095818694882 0.014705032096 0.020739902775 0.027579354254 0.035103790829 
0.043171107741 0.051605873931 0.060193685553 0.0686845488 0.07680489911 0.084274181614 0.090821254712 0.096198822756 0.10019845036 
0.10267035228 0.10354843397 0.10287405741 0.10080762275 0.097619995267 0.093665096874 0.089344470606 0.085086312672 0.081406207649 
0.07891266657 0.077386228451 0.076758843131 0.076971860122 0.077942720035 0.079537605694 0.081582577199 0.083975889253 0.086502527592 
0.089060050824 0.091492332253 0.093677978589 0.095504764583 0.096993949392 0.098341271768 0.099639822245 0.10111550451 0.10296509334 
0.10529742664 0.10817356123 0.1115855005 0.11554442593 0.12011492088 0.12538818884 0.13144589949 0.13832399658 0.14597156648 
0.15421266243 0.16273222675 0.17110324422 0.17885299232 0.18554723227 0.1908646942 0.1946408927 0.19687383142 0.19769855549 
0.19735174437 0.19617500247 0.19468432699 0.19304306289 0.19097801565 0.18832585191 0.18502019579 0.18106335565 0.17651598535 
0.17148455607 0.16610433529 0.16051905418 0.1548568111 0.14920156164 0.14356649901 0.13788359963 0.13201831092 0.12580331502 
0.1190784586 0.11172713136 0.10370329964 0.095045377782 0.085874870242 0.076380114269 0.066788411955 0.057333053457 0.048224307395 
0.039633045414 0.031689968701 0.024495052434 0.018128061473 0.012654335952 0.0081256259297 0.0045789583587 0.0020366983475 0.00050929526981 
1.0152207474e-16 
