# vtk DataFile Version 5.1
vtk output
ASCII
DATASET POLYDATA
POINTS 100 float
0.217949 0.0573203 -0.737224 0.217784 0.0573273 -0.737248 0.217346 0.0572002 -0.737347 
0.216634 0.0569501 -0.737411 0.215645 0.0565915 -0.737271 0.21437 0.0561358 -0.736715 
0.21279 0.055585 -0.735512 0.210876 0.0549252 -0.733436 0.208586 0.0541217 -0.730289 
0.205863 0.0531169 -0.725921 0.202644 0.0518311 -0.720242 0.198857 0.0501675 -0.713229 
0.194433 0.0480203 -0.704926 0.18931 0.0452848 -0.695431 0.18344 0.0418703 -0.684885 
0.176802 0.0377123 -0.673451 0.1694 0.0327836 -0.661294 0.161273 0.0271025 -0.648565 
0.152491 0.0207374 -0.635382 0.143153 0.013806 -0.621821 0.133381 0.0064705 -0.607914 
0.123312 -0.00107249 -0.593644 0.113082 -0.0086055 -0.578962 0.102823 -0.0159059 -0.563787 
0.0926435 -0.0227627 -0.548028 0.0826223 -0.0289919 -0.531596 0.0728036 -0.0344497 -0.514413 
0.0631927 -0.0390414 -0.496423 0.0537589 -0.0427257 -0.477597 0.0444417 -0.0455138 -0.457933 
0.0351609 -0.0474635 -0.437451 0.0258294 -0.048669 -0.416189 0.0163682 -0.0492484 -0.394187 
0.00672064 -0.0493292 -0.371486 -0.00313465 -0.0490341 -0.348117 -0.013174 -0.0484691 -0.324095 
-0.0233229 -0.0477139 -0.299421 -0.0334556 -0.0468168 -0.274082 -0.0433995 -0.0457938 -0.248062 
-0.0529449 -0.0446321 -0.221348 -0.0618585 -0.0432965 -0.193939 -0.0698999 -0.0417393 -0.165865 
-0.0768395 -0.0399107 -0.137184 -0.0824758 -0.0377698 -0.107997 -0.0866512 -0.0352937 -0.0784408 
-0.089264 -0.0324844 -0.0486896 -0.0902757 -0.0293727 -0.0189435 -0.0897137 -0.0260178 0.0105832 
-0.0876681 -0.0225044 0.0396763 -0.0842846 -0.0189367 0.068137 -0.0797519 -0.0154293 0.0957961 
-0.0742878 -0.0120988 0.122525 -0.0681225 -0.00905354 0.148244 -0.0614831 -0.00638563 0.172922 
-0.0545787 -0.00416456 0.19658 -0.0475888 -0.00243312 0.219278 -0.0406546 -0.00120625 0.241109 
-0.0338752 -0.000472578 0.262185 -0.0273073 -0.000198288 0.282624 -0.0209684 -0.000332721 0.30254 
-0.0148442 -0.000815023 0.32203 -0.00889728 -0.00158098 0.341173 -0.00307691 -0.00256934 0.360021 
0.00267044 -0.00372696 0.378603 0.00839213 -0.00501243 0.396928 0.0141219 -0.0063978 0.41499 
0.0198749 -0.00786868 0.432777 0.0256453 -0.00942259 0.450273 0.0314065 -0.0110662 0.467465 
0.0371139 -0.012812 0.484345 0.0427095 -0.0146738 0.500914 0.0481277 -0.0166639 0.517172 
0.0533021 -0.0187891 0.533124 0.0581713 -0.0210489 0.548768 0.0626851 -0.0234335 0.564093 
0.0668088 -0.0259234 0.579075 0.0705255 -0.02849 0.593675 0.0738382 -0.0310964 0.60784 
0.0767679 -0.0336992 0.621503 0.0793525 -0.0362506 0.634589 0.0816425 -0.0387005 0.647023 
0.0836973 -0.0409994 0.658737 0.0855798 -0.0431006 0.669672 0.0873518 -0.0449623 0.679791 
0.0890697 -0.04655 0.689078 0.0907802 -0.0478383 0.697539 0.0925176 -0.0488126 0.705204 
0.0943023 -0.0494702 0.712118 0.0961392 -0.0498208 0.718338 0.098019 -0.0498868 0.723926 
0.0999186 -0.0497028 0.72894 0.101804 -0.0493139 0.733427 0.103631 -0.048774 0.737421 
0.105353 -0.048143 0.740938 0.106918 -0.0474833 0.743979 0.108278 -0.0468565 0.746529 
0.109386 -0.0463195 0.748565 0.110204 -0.0459206 0.750061 0.110703 -0.0456969 0.750992 
0.110866 -0.0456714 0.75134 
LINES 2 100
OFFSETS vtktypeint64
0 100 
CONNECTIVITY vtktypeint64
0 1 2 3 4 5 6 7 8 
9 10 11 12 13 14 15 16 17 
18 19 20 21 22 23 24 25 26 
27 28 29 30 31 32 33 34 35 
36 37 38 39 40 41 42 43 44 
45 46 47 48 49 50 51 52 53 
54 55 56 57 58 59 60 61 62 
63 64 65 66 67 68 69 70 71 
72 73 74 75 76 77 78 79 80 
81 82 83 84 85 86 87 88 89 
90 91 92 93 94 95 96 97 98 
99 
POINT_DATA 100
FIELD FieldData 3
_theta 1 100 double
0 0.031733259127 0.063466518254 0.095199777382 0.12693303651 0.15866629564 0.19039955476 0.22213281389 0.25386607302 
0.28559933214 0.31733259127 0.3490658504 0.38079910953 0.41253236865 0.44426562778 0.47599888691 0.50773214603 0.53946540516 
0.57119866429 0.60293192342 0.63466518254 0.66639844167 0.6981317008 0.72986495992 0.76159821905 0.79333147818 0.82506473731 
0.85679799643 0.88853125556 0.92026451469 0.95199777382 0.98373103294 1.0154642921 1.0471975512 1.0789308103 1.1106640695 
1.1423973286 1.1741305877 1.2058638468 1.237597106 1.2693303651 1.3010636242 1.3327968833 1.3645301425 1.3962634016 
1.4279966607 1.4597299198 1.491463179 1.5231964381 1.5549296972 1.5866629564 1.6183962155 1.6501294746 1.6818627337 
1.7135959929 1.745329252 1.7770625111 1.8087957702 1.8405290294 1.8722622885 1.9039955476 1.9357288068 1.9674620659 
1.999195325 2.0309285841 2.0626618433 2.0943951024 2.1261283615 2.1578616206 2.1895948798 2.2213281389 2.253061398 
2.2847946572 2.3165279163 2.3482611754 2.3799944345 2.4117276937 2.4434609528 2.4751942119 2.506927471 2.5386607302 
2.5703939893 2.6021272484 2.6338605076 2.6655937667 2.6973270258 2.7290602849 2.7607935441 2.7925268032 2.8242600623 
2.8559933214 2.8877265806 2.9194598397 2.9511930988 2.982926358 3.0146596171 3.0463928762 3.0781261353 3.1098593945 
3.1415926536 
_radius 1 100 double
9.417487666e-16 0.016379843364 0.032702874876 0.048897232071 0.06487383968 0.080521307517 0.095704713123 0.11026904159 0.12404723508 
0.13687192885 0.14858927697 0.15907292339 0.1682361762 0.17604075771 0.18250105407 0.18768345755 0.19170105688 0.19470447924 
0.19687004667 0.19838654427 0.1994418117 0.20021012926 0.20084109368 0.20145050229 0.20211376056 0.20286245301 0.20368480784 
0.20453064199 0.20532088 0.20596095551 0.20635655558 0.20642952484 0.20613147847 0.20545285387 0.20442586348 0.20312118421 
0.20163990845 0.20010334289 0.19864289243 0.19739095244 0.1964727099 0.19599869086 0.19605845232 0.19671630565 0.19800990899 
0.19995191686 0.20253390803 0.20573099586 0.2095053184 0.21380722446 0.21857418828 0.22372867966 0.22917676504 0.23480891801 
0.24050365031 0.24613360155 0.25157301121 0.25670520553 0.26142886157 0.26566223831 0.26934511045 0.27243864611 0.27492384458 
0.27679933747 0.27807928237 0.27879169266 0.27897694819 0.27868572199 0.27797547761 0.27690515147 0.27552841585 0.27388661466 
0.27200272502 0.26987741905 0.26748766604 0.26478766875 0.26171156386 0.2581773306 0.25409161893 0.24935548581 0.24387109889 
0.2375492571 0.23031717871 0.22212561075 0.21295411282 0.20281348089 0.19174471115 0.17981456008 0.16710845813 0.15372207253 
0.13975302527 0.12529409717 0.11042876895 0.095229342785 0.079757341442 0.06406551765 0.048200652739 0.03220635097 0.016125206006 
2.7330213989e-16 
_area 1 100 double
0 0.00056472715657 0.0022809266959 0.005203298477 0.0093880316657 0.01485049847 0.02152493031 0.029239129249 0.037712762776 
0.046581156624 0.055439711735 0.063898421423 0.071632806965 0.078418305056 0.084140321049 0.08878060751 0.092388997724 0.095053653875 
0.096880706148 0.097987214946 0.09850417357 0.09858219469 0.09839133695 0.098106262743 0.097874282112 0.097777219182 0.097820717867 
0.097955392481 0.098103601144 0.098180444879 0.098038126529 0.097578151361 0.096779439434 0.095709565006 0.09459590659 0.093593532441 
0.092789843048 0.092405621301 0.092531166538 0.093146880112 0.094197370381 0.095574630402 0.097171159055 0.09892401171 0.10092712518 
0.10326782507 0.10590564362 0.10893705658 0.11251375883 0.11681037729 0.12196494581 0.12803324527 0.13496964633 0.14262577209 
0.15076509084 0.15909261835 0.16729236552 0.17506541226 0.18216757221 0.18845066986 0.19389705583 0.19856176019 0.2023996714 
0.20524749878 0.20694121743 0.20738353365 0.20656516021 0.20456613845 0.20154757942 0.19773230398 0.19337531986 0.18872863331 
0.18400581232 0.17934991383 0.1748101891 0.17033957323 0.16581719872 0.16108072864 0.15595288928 0.15026060334 0.14385165681 
0.13661210547 0.128484233 0.11948212118 0.10970015299 0.099309792604 0.088542426765 0.077660454917 0.066923558085 0.056559977749 
0.046751536181 0.037635150863 0.029315626788 0.021880541505 0.015410490202 0.0099828991742 0.0056707863969 0.0025386670843 0.00063749155592 
1.6479873022e-17 
