# vtk DataFile Version 5.1
vtk output
ASCII
DATASET POLYDATA
POINTS 100 float
0.0575289 0.0202653 -0.594343 0.0576987 0.0203584 -0.59429 0.0582159 0.0204593 -0.594145 
0.0590191 0.020529 -0.593858 0.0600126 0.0205079 -0.593355 0.0610748 0.0203227 -0.592539 
0.0620698 0.019895 -0.591305 0.0628588 0.0191506 -0.589547 0.0633122 0.0180276 -0.587168 
0.0633189 0.0164832 -0.58409 0.0627938 0.0144978 -0.580258 0.0616817 0.0120762 -0.575646 
0.0599577 0.00924569 -0.570254 0.0576249 0.00605222 -0.564104 0.0547088 0.00255395 -0.557239 
0.0512507 -0.00118528 -0.549708 0.0473008 -0.00510268 -0.541565 0.0429106 -0.00914177 -0.532853 
0.0381284 -0.0132559 -0.523605 0.0329954 -0.0174092 -0.513834 0.027545 -0.0215753 -0.503533 
0.0218038 -0.0257338 -0.492676 0.0157949 -0.0298656 -0.481221 0.00954161 -0.0339472 -0.469116 
0.00307213 -0.0379466 -0.456309 -0.0035772 -0.0418193 -0.44275 -0.0103597 -0.0455074 -0.428406 
-0.017218 -0.0489409 -0.41326 -0.0240862 -0.0520415 -0.397317 -0.0308939 -0.054729 -0.380609 
-0.0375714 -0.0569283 -0.363185 -0.0440558 -0.0585777 -0.345114 -0.0502971 -0.0596361 -0.326476 
-0.0562625 -0.0600883 -0.307356 -0.0619394 -0.0599484 -0.287833 -0.0673352 -0.0592596 -0.267978 
-0.0724744 -0.0580909 -0.247846 -0.0773935 -0.0565311 -0.227473 -0.0821331 -0.0546806 -0.206877 
-0.086729 -0.0526418 -0.186058 -0.0912037 -0.0505099 -0.165005 -0.095558 -0.0483645 -0.143701 
-0.0997653 -0.0462638 -0.122129 -0.103769 -0.044241 -0.100281 -0.107484 -0.0423046 -0.0781653 
-0.110797 -0.0404415 -0.0558077 -0.113581 -0.0386227 -0.0332573 -0.1157 -0.0368109 -0.0105852 
-0.117021 -0.0349684 0.0121176 -0.11743 -0.0330649 0.0347449 -0.116837 -0.0310833 0.0571822 
-0.115189 -0.0290242 0.0793134 -0.112475 -0.0269063 0.101029 -0.108722 -0.0247651 0.122234 
-0.104002 -0.0226484 0.14285 -0.0984166 -0.020611 0.162824 -0.0920956 -0.0187076 0.182127 
-0.0851822 -0.0169865 0.200751 -0.0778234 -0.0154845 0.218713 -0.0701592 -0.0142234 0.236044 
-0.0623133 -0.0132093 0.252788 -0.054387 -0.0124337 0.268993 -0.0464552 -0.0118775 0.284709 
-0.0385666 -0.0115156 0.299981 -0.0307456 -0.0113226 0.314849 -0.0229978 -0.0112776 0.329342 
-0.0153156 -0.0113684 0.343482 -0.00768593 -0.0115926 0.357283 -9.64411e-05 -0.0119577 0.370755 
0.0074585 -0.0124776 0.383902 0.0149739 -0.0131679 0.396729 0.0224322 -0.0140399 0.409245 
0.029803 -0.0150945 0.421456 0.0370449 -0.0163165 0.433373 0.0441087 -0.0176717 0.445006 
0.0509414 -0.0191058 0.456364 0.05749 -0.0205468 0.467447 0.0637055 -0.0219101 0.478251 
0.069546 -0.0231064 0.488754 0.0749786 -0.024051 0.498925 0.0799802 -0.0246733 0.508716 
0.0845373 -0.0249261 0.518064 0.0886452 -0.0247921 0.526896 0.0923066 -0.0242873 0.535133 
0.0955299 -0.023461 0.542693 0.098328 -0.0223917 0.549501 0.100717 -0.021179 0.555495 
0.102718 -0.0199334 0.560633 0.104352 -0.018764 0.564898 0.105647 -0.0177671 0.568302 
0.106632 -0.0170152 0.570889 0.107344 -0.0165497 0.572731 0.10782 -0.016377 0.573927 
0.108103 -0.0164694 0.574595 0.108238 -0.0167695 0.574866 0.108268 -0.0171994 0.574873 
0.108236 -0.0176711 0.574742 0.108177 -0.0180994 0.574582 0.10812 -0.0184133 0.574476 
0.108082 -0.0185658 0.574477 
LINES 2 100
OFFSETS vtktypeint64
0 100 
CONNECTIVITY vtktypeint64
0 1 2 3 4 5 6 7 8 
9 10 11 12 13 14 15 16 17 
18 19 20 21 22 23 24 25 26 
27 28 29 30 31 32 33 34 35 
36 37 38 39 40 41 42 43 44 
45 46 47 48 49 50 51 52 53 
54 55 56 57 58 59 60 61 62 
63 64 65 66 67 68 69 70 71 
72 73 74 75 76 77 78 79 80 
81 82 83 84 85 86 87 88 89 
90 91 92 93 94 95 96 97 98 
99 
POINT_DATA 100
FIELD FieldData 3
_theta 1 100 double
0 0.031733259127 0.063466518254 0.095199777382 0.12693303651 0.15866629564 0.19039955476 0.22213281389 0.25386607302 
0.28559933214 0.31733259127 0.3490658504 0.38079910953 0.41253236865 0.44426562778 0.47599888691 0.50773214603 0.53946540516 
0.57119866429 0.60293192342 0.63466518254 0.66639844167 0.6981317008 0.72986495992 0.76159821905 0.79333147818 0.82506473731 
0.85679799643 0.88853125556 0.92026451469 0.95199777382 0.98373103294 1.0154642921 1.0471975512 1.0789308103 1.1106640695 
1.1423973286 1.1741305877 1.2058638468 1.237597106 1.2693303651 1.3010636242 1.3327968833 1.3645301425 1.3962634016 
1.4279966607 1.4597299198 1.491463179 1.5231964381 1.5549296972 1.5866629564 1.6183962155 1.6501294746 1.6818627337 
1.7135959929 1.745329252 1.7770625111 1.8087957702 1.8405290294 1.8722622885 1.9039955476 1.9357288068 1.9674620659 
1.999195325 2.0309285841 2.0626618433 2.0943951024 2.1261283615 2.1578616206 2.1895948798 2.2213281389 2.253061398 
2.2847946572 2.3165279163 2.3482611754 2.3799944345 2.4117276937 2.4434609528 2.4751942119 2.506927471 2.5386607302 
2.5703939893 2.6021272484 2.6338605076 2.6655937667 2.6973270258 2.7290602849 2.7607935441 2.7925268032 2.8242600623 
2.8559933214 2.8877265806 2.9194598397 2.9511930988 2.982926358 3.0146596171 3.0463928762 3.0781261353 3.1098593945 
3.1415926536 
_radius 1 100 double
5.2041704279e-17 0.012456426467 0.024912665298 0.0373499284 0.049732309468 0.061999732721 0.074063181927 0.085803883925 0.097077743432 
0.10772530026 0.11758617933 0.12651589129 0.13440223417 0.14117853733 0.14683151326 0.15140240548 0.15498127339 0.1576954386 
0.15969409846 0.16113166548 0.16215238211 0.16287823489 0.16340138415 0.16378152455 0.16404795682 0.16420565001 0.16424410807 
0.16414745349 0.16390395713 0.16351339382 0.16299105207 0.16236785298 0.16168675001 0.16099635747 0.16034350519 0.15976682688 
0.15929308176 0.15893655763 0.1587003457 0.15857766783 0.15855228461 0.15859871651 0.15868428174 0.15877465979 0.15884283181 
0.1588791794 0.15889970126 0.15894998906 0.15910398771 0.15945777036 0.16011922965 0.16119488477 0.16277526551 0.16492068962 
0.16764950729 0.17093075245 0.17468251891 0.17877646125 0.18304791739 0.18731046654 0.19137327878 0.19505930168 0.19822215471 
0.20075965164 0.20262222287 0.20381514273 0.20439426289 0.20445576085 0.20412110777 0.20351898389 0.20276623626 0.20195024784 
0.20111527819 0.2002552528 0.19931471637 0.19819800271 0.19678456729 0.19494688176 0.19256702698 0.1895490622 0.18582580291 
0.18136020508 0.17614270693 0.1701863563 0.16352129771 0.15618943629 0.14823927653 0.13972049249 0.13067794741 0.12114558598 
0.11114154845 0.1006664767 0.089706735232 0.078242950292 0.066262381452 0.053772156639 0.040810013118 0.027449873377 0.0138008851 
7.6726543253e-16 
_area 1 100 double
0 0.00042180776495 0.0016851347807 0.0037808667864 0.0066853246572 0.010350608552 0.014696486584 0.019607277715 0.024935319347 
0.03050961252 0.03614625118 0.041658859684 0.046870687026 0.05162917608 0.055819134824 0.059369217243 0.062250185629 0.064467968974 
0.066056172725 0.067071377385 0.067592057171 0.067718729552 0.067564394969 0.067217737464 0.066712565822 0.06605624196 0.065272960682 
0.064380195629 0.063375874381 0.062276789238 0.061128266268 0.059998241161 0.058978647456 0.058181713081 0.057657972151 0.057428411364 
0.057495263125 0.057853733094 0.058484411884 0.059359265626 0.060445649033 0.061704777326 0.063087794176 0.064535149968 0.065981040733 
0.06736168893 0.068627598787 0.069758541509 0.070776297804 0.071749951829 0.072792349965 0.074048757417 0.075675636475 0.077807487282 
0.080525009773 0.083844132675 0.087721691187 0.092060697657 0.096709539746 0.10146004448 0.10605366826 0.11020460406 0.11363954899 
0.1161417494 0.11758427949 0.11794437229 0.11729868299 0.11580458293 0.11367443095 0.1111480625 0.10846480388 0.10583385547 
0.10340398136 0.10123879688 0.099306911905 0.097492467248 0.095623740887 0.093510862384 0.090981470745 0.087906676889 0.084215496606 
0.079898831508 0.075004532555 0.069625752945 0.063885653679 0.057921588309 0.051871041998 0.045860225285 0.039995021592 0.034354006776 
0.028985177791 0.023910609279 0.019142288771 0.014704970823 0.010654755503 0.0070843607458 0.0041140867814 0.0018728593315 0.00047522991946 
2.4366595854e-17 
