# vtk DataFile Version 5.1
vtk output
ASCII
DATASET POLYDATA
POINTS 100 float
0.129695 0.0280055 -0.644347 0.129578 0.0282106 -0.644616 0.129262 0.0286282 -0.645423 
0.128735 0.0292109 -0.646607 0.127979 0.0298851 -0.647922 0.126967 0.0305578 -0.649062 
0.12567 0.031124 -0.649696 0.124055 0.031475 -0.649505 0.122087 0.0315076 -0.648213 
0.11973 0.0311313 -0.645617 0.116952 0.0302748 -0.641602 0.11372 0.0288907 -0.636148 
0.110007 0.0269579 -0.629326 0.105788 0.0244813 -0.621276 0.101045 0.0214908 -0.61219 
0.0957694 0.018037 -0.602276 0.0899581 0.0141873 -0.591732 0.0836215 0.0100201 -0.580717 
0.0767828 0.0056203 -0.569334 0.0694801 0.00107406 -0.557614 0.0617674 -0.00353485 -0.54552 
0.0537147 -0.00812788 -0.532955 0.0454065 -0.0126333 -0.519777 0.0369389 -0.0169869 -0.505825 
0.0284151 -0.0211318 -0.490944 0.0199394 -0.0250176 -0.475007 0.0116103 -0.0285999 -0.457937 
0.00351334 -0.0318393 -0.439716 -0.00428602 -0.0347013 -0.420391 -0.0117476 -0.0371569 -0.400066 
-0.0188603 -0.0391831 -0.378894 -0.0256425 -0.0407645 -0.35705 -0.0321401 -0.0418951 -0.334718 
-0.0384204 -0.0425794 -0.31206 -0.0445637 -0.0428338 -0.289207 -0.050652 -0.0426871 -0.26624 
-0.0567574 -0.0421799 -0.243189 -0.0629293 -0.0413629 -0.220034 -0.0691839 -0.0402947 -0.196718 
-0.0754963 -0.0390376 -0.173161 -0.0817954 -0.0376541 -0.149281 -0.0879651 -0.0362022 -0.125014 
-0.0938488 -0.0347316 -0.100331 -0.0992592 -0.0332797 -0.075249 -0.103992 -0.0318702 -0.0498396 
-0.107843 -0.0305113 -0.0242248 -0.110624 -0.0291971 0.00143169 -0.112179 -0.0279091 0.0269393 
-0.1124 -0.0266205 0.0520992 -0.111236 -0.0253001 0.0767245 -0.1087 -0.0239179 0.100658 
-0.104864 -0.0224494 0.123786 -0.0998571 -0.0208811 0.146048 -0.0938522 -0.0192126 0.167437 
-0.0870505 -0.0174598 0.187992 -0.0796647 -0.0156538 0.207792 -0.0719011 -0.0138401 0.226937 
-0.0639428 -0.012075 0.245532 -0.0559369 -0.010421 0.263672 -0.0479855 -0.0089413 0.281427 
-0.0401424 -0.00769423 0.298837 -0.0324147 -0.00672772 0.315909 -0.0247702 -0.00607482 0.33262 
-0.0171482 -0.00575056 0.348925 -0.00947297 -0.00575048 0.364773 -0.00166881 -0.00605105 0.380116 
0.00632649 -0.00661185 0.394925 0.0145498 -0.00737933 0.409202 0.0230048 -0.00829167 0.422981 
0.031658 -0.00928435 0.436327 0.0404397 -0.0102956 0.449337 0.049249 -0.0112717 0.46212 
0.0579622 -0.0121705 0.474789 0.066444 -0.0129644 0.487441 0.0745589 -0.013641 0.500145 
0.0821833 -0.0142025 0.512926 0.0892146 -0.0146633 0.525762 0.095579 -0.0150464 0.538582 
0.101235 -0.0153794 0.551267 0.106175 -0.0156897 0.563667 0.110421 -0.0160006 0.575612 
0.11402 -0.0163276 0.58693 0.117038 -0.0166765 0.597466 0.119553 -0.0170423 0.607097 
0.121644 -0.0174102 0.61574 0.123386 -0.0177576 0.623364 0.124847 -0.0180572 0.629987 
0.126083 -0.0182809 0.635668 0.127138 -0.018404 0.640502 0.128042 -0.018409 0.644601 
0.128817 -0.0182887 0.648085 0.129477 -0.0180479 0.651064 0.13003 -0.017704 0.65363 
0.130483 -0.017286 0.655849 0.130842 -0.016832 0.657759 0.131116 -0.0163854 0.659371 
0.13131 -0.0159912 0.660676 0.131433 -0.0156908 0.661655 0.131491 -0.0155177 0.662284 
0.131489 -0.0154943 0.662543 
LINES 2 100
OFFSETS vtktypeint64
0 100 
CONNECTIVITY vtktypeint64
0 1 2 3 4 5 6 7 8 
9 10 11 12 13 14 15 16 17 
18 19 20 21 22 23 24 25 26 
27 28 29 30 31 32 33 34 35 
36 37 38 39 40 41 42 43 44 
45 46 47 48 49 50 51 52 53 
54 55 56 57 58 59 60 61 62 
63 64 65 66 67 68 69 70 71 
72 73 74 75 76 77 78 79 80 
81 82 83 84 85 86 87 88 89 
90 91 92 93 94 95 96 97 98 
99 
POINT_DATA 100
FIELD FieldData 3
_theta 1 100 double
0 0.031733259127 0.063466518254 0.095199777382 0.12693303651 0.15866629564 0.19039955476 0.22213281389 0.25386607302 
0.28559933214 0.31733259127 0.3490658504 0.38079910953 0.41253236865 0.44426562778 0.47599888691 0.50773214603 0.53946540516 
0.57119866429 0.60293192342 0.63466518254 0.66639844167 0.6981317008 0.72986495992 0.76159821905 0.79333147818 0.82506473731 
0.85679799643 0.88853125556 0.92026451469 0.95199777382 0.98373103294 1.0154642921 1.0471975512 1.0789308103 1.1106640695 
1.1423973286 1.1741305877 1.2058638468 1.237597106 1.2693303651 1.3010636242 1.3327968833 1.3645301425 1.3962634016 
1.4279966607 1.4597299198 1.491463179 1.5231964381 1.5549296972 1.5866629564 1.6183962155 1.6501294746 1.6818627337 
1.7135959929 1.745329252 1.7770625111 1.8087957702 1.8405290294 1.8722622885 1.9039955476 1.9357288068 1.9674620659 
1.999195325 2.0309285841 2.0626618433 2.0943951024 2.1261283615 2.1578616206 2.1895948798 2.2213281389 2.253061398 
2.2847946572 2.3165279163 2.3482611754 2.3799944345 2.4117276937 2.4434609528 2.4751942119 2.506927471 2.5386607302 
2.5703939893 2.6021272484 2.6338605076 2.6655937667 2.6973270258 2.7290602849 2.7607935441 2.7925268032 2.8242600623 
2.8559933214 2.8877265806 2.9194598397 2.9511930988 2.982926358 3.0146596171 3.0463928762 3.0781261353 3.1098593945 
3.1415926536 
_radius 1 100 double
8.350418992e-16 0.015311404764 0.030434846304 0.045197404029 0.059451874597 0.073084754111 0.086019444061 0.098214379316 0.10965657861 
0.1203518224 0.13031316026 0.13954967228 0.14805733254 0.15581346944 0.16277574783 0.16888590511 0.17407776578 0.17828843924 
0.18147115145 0.1836079066 0.18472012382 0.1848755281 0.18418988473 0.18282266185 0.18096643022 0.17883082732 0.1766232202 
0.17452950019 0.17269891086 0.17123542275 0.17019498034 0.16958518655 0.16936467575 0.16944373643 0.16969132207 0.16995190613 
0.17007030535 0.1699189349 0.16942169139 0.16856987721 0.16742687369 0.16611989367 0.16482002292 0.16371591551 0.16298951387 
0.16280052745 0.16328040787 0.16453107379 0.1666224127 0.16958530475 0.17340144508 0.17799503915 0.18323200925 0.18892919257 
0.19487163853 0.20083357358 0.20659867896 0.21197676789 0.21681540655 0.22100604339 0.22448493788 0.22722977069 0.22925323772 
0.23059506257 0.23131368196 0.23147848537 0.23116310799 0.2304400125 0.22937645272 0.22803179863 0.22645602881 0.22468897451 
0.22275975177 0.22068588424 0.21847191603 0.21610768679 0.21356667766 0.21080486966 0.20776052545 0.20435537898 0.20049783404 
0.19608864755 0.19102899658 0.18522995054 0.17862165641 0.17116040457 0.16283223303 0.15365258404 0.14366241475 0.13292184166 
0.12150274914 0.1094817927 0.096934939553 0.083934215203 0.070546772969 0.056835871092 0.042862943726 0.028689802735 0.014380155097 
4.0082819576e-16 
_area 1 100 double
0 0.0005904108391 0.0023393475311 0.0051829832885 0.0090241023461 0.013742684853 0.01920585117 0.025274865562 0.031808413725 
0.038662853397 0.045690965304 0.052740675526 0.059654514722 0.066269796726 0.072419269802 0.077932618869 0.08264030873 0.086381877624 
0.08901999626 0.090459364826 0.090666833062 0.08968740398 0.087651025898 0.084767321983 0.081308623238 0.077584365544 0.073911065778 
0.070581887792 0.067839675844 0.065857797393 0.064731864731 0.06447864912 0.065032200188 0.066237525955 0.067857435893 0.06960754056 
0.071214183355 0.07247675659 0.073315443983 0.073786026137 0.074048702569 0.074293962338 0.074653492556 0.075163011209 0.075810240433 
0.076605638523 0.077622224824 0.07900283632 0.080946483794 0.083679115932 0.087378837703 0.092090340598 0.097743962131 0.10418024059 
0.11116061521 0.11838795737 0.12553220674 0.13226184922 0.13827959871 0.1433549327 0.14734561271 0.15020435929 0.15197198061 
0.15276178485 0.15273719581 0.1520615265 0.15081909062 0.14902266074 0.14667844485 0.1438133484 0.14048248146 0.13677011507 
0.13278226016 0.12863082035 0.12441373241 0.12019800505 0.11601130064 0.11184298452 0.10765068181 0.1033673186 0.098906973255 
0.094172286748 0.089067488067 0.083517533396 0.077488216579 0.070999527505 0.064126991776 0.05699091853 0.049738399833 0.042525351044 
0.035504139611 0.028817367273 0.022594891168 0.016952036009 0.011989206221 0.0077932471988 0.004439380684 0.001991669206 0.00050081907467 
4.1633363423e-17 
