# vtk DataFile Version 5.1
vtk output
ASCII
DATASET POLYDATA
POINTS 100 float
0.168963 0.108552 -0.713917 0.168667 0.108267 -0.713413 0.167763 0.1072 -0.711864 
0.16632 0.10537 -0.709318 0.164445 0.10281 -0.705846 0.16227 0.0995658 -0.701542 
0.159936 0.0956911 -0.696509 0.157579 0.0912452 -0.690854 0.155309 0.0862908 -0.684678 
0.153199 0.0808904 -0.678066 0.151273 0.0751048 -0.671086 0.149496 0.0689917 -0.663779 
0.147778 0.0626048 -0.656161 0.145977 0.0559941 -0.648226 0.143909 0.0492069 -0.639946 
0.141363 0.0422888 -0.631277 0.138125 0.0352854 -0.622166 0.133989 0.0282432 -0.612556 
0.128784 0.0212114 -0.602389 0.122391 0.0142419 -0.591616 0.114749 0.0073896 -0.580193 
0.105873 0.000711409 -0.568087 0.0958439 -0.00573465 -0.555274 0.084812 -0.0118913 -0.541734 
0.0729795 -0.0177041 -0.527456 0.0605858 -0.0231231 -0.512429 0.047887 -0.0281047 -0.49664 
0.035135 -0.0326133 -0.480078 0.022557 -0.0366219 -0.462726 0.0103388 -0.0401123 -0.444567 
-0.00138716 -0.043075 -0.425583 -0.0125477 -0.0455085 -0.405759 -0.0231275 -0.0474178 -0.385084 
-0.0331611 -0.0488134 -0.363558 -0.0427198 -0.0497103 -0.341189 -0.0518934 -0.0501266 -0.318002 
-0.0607706 -0.0500833 -0.294035 -0.06942 -0.0496037 -0.269343 -0.0778728 -0.0487141 -0.243993 
-0.0861113 -0.0474438 -0.218067 -0.0940628 -0.045826 -0.191659 -0.101601 -0.0438986 -0.164866 
-0.108554 -0.0417042 -0.137795 -0.114721 -0.0392908 -0.110553 -0.119886 -0.0367105 -0.0832477 
-0.123846 -0.0340189 -0.0559868 -0.126428 -0.0312731 -0.0288739 -0.12751 -0.0285296 -0.00200928 
-0.127033 -0.0258414 0.0245116 -0.125013 -0.023256 0.0505989 -0.121538 -0.0208122 0.0761701 
-0.116762 -0.0185387 0.101152 -0.110891 -0.0164526 0.12548 -0.104168 -0.0145591 0.149107 
-0.0968462 -0.0128521 0.171997 -0.0891702 -0.0113159 0.194134 -0.0813546 -0.00992754 0.215518 
-0.0735682 -0.00865989 0.236172 -0.0659241 -0.00748528 0.256132 -0.058476 -0.00637891 0.275455 
-0.0512222 -0.00532199 0.294207 -0.0441154 -0.00430433 0.312463 -0.0370779 -0.00332595 0.3303 
-0.0300189 -0.00239772 0.347793 -0.0228528 -0.00154077 0.365007 -0.0155161 -0.000784911 0.381995 
-0.00797988 -0.000166038 0.398792 -0.000257453 0.000277073 0.415415 0.00759423 0.000506418 0.431865 
0.0154791 0.000488436 0.448121 0.0232717 0.000197403 0.46415 0.0308311 -0.000381765 0.479911 
0.0380169 -0.00125154 0.495352 0.0447043 -0.00240078 0.510423 0.0507984 -0.00380485 0.525076 
0.0562434 -0.00542665 0.539267 0.0610284 -0.00721865 0.552958 0.0651861 -0.00912561 0.56612 
0.0687873 -0.0110878 0.578728 0.0719312 -0.0130442 0.590762 0.0747321 -0.0149362 0.602204 
0.0773057 -0.0167103 0.613035 0.0797554 -0.0183211 0.623234 0.0821613 -0.0197326 0.632777 
0.0845732 -0.0209202 0.641638 0.0870075 -0.0218706 0.649788 0.0894489 -0.0225818 0.657201 
0.0918562 -0.0230624 0.663857 0.0941712 -0.0233303 0.669743 0.0963292 -0.0234111 0.674861 
0.0982696 -0.023336 0.679227 0.0999451 -0.0231404 0.682872 0.101328 -0.0228615 0.685846 
0.102414 -0.0225369 0.688211 0.103221 -0.0222026 0.690039 0.103782 -0.0218919 0.691408 
0.104145 -0.0216338 0.69239 0.104358 -0.0214525 0.693054 0.104462 -0.0213659 0.693452 
0.104486 -0.0213855 0.693616 
LINES 2 100
OFFSETS vtktypeint64
0 100 
CONNECTIVITY vtktypeint64
0 1 2 3 4 5 6 7 8 
9 10 11 12 13 14 15 16 17 
18 19 20 21 22 23 24 25 26 
27 28 29 30 31 32 33 34 35 
36 37 38 39 40 41 42 43 44 
45 46 47 48 49 50 51 52 53 
54 55 56 57 58 59 60 61 62 
63 64 65 66 67 68 69 70 71 
72 73 74 75 76 77 78 79 80 
81 82 83 84 85 86 87 88 89 
90 91 92 93 94 95 96 97 98 
99 
POINT_DATA 100
FIELD FieldData 3
_theta 1 100 double
0 0.031733259127 0.063466518254 0.095199777382 0.12693303651 0.15866629564 0.19039955476 0.22213281389 0.25386607302 
0.28559933214 0.31733259127 0.3490658504 0.38079910953 0.41253236865 0.44426562778 0.47599888691 0.50773214603 0.53946540516 
0.57119866429 0.60293192342 0.63466518254 0.66639844167 0.6981317008 0.72986495992 0.76159821905 0.79333147818 0.82506473731 
0.85679799643 0.88853125556 0.92026451469 0.95199777382 0.98373103294 1.0154642921 1.0471975512 1.0789308103 1.1106640695 
1.1423973286 1.1741305877 1.2058638468 1.237597106 1.2693303651 1.3010636242 1.3327968833 1.3645301425 1.3962634016 
1.4279966607 1.4597299198 1.491463179 1.5231964381 1.5549296972 1.5866629564 1.6183962155 1.6501294746 1.6818627337 
1.7135959929 1.745329252 1.7770625111 1.8087957702 1.8405290294 1.8722622885 1.9039955476 1.9357288068 1.9674620659 
1.999195325 2.0309285841 2.0626618433 2.0943951024 2.1261283615 2.1578616206 2.1895948798 2.2213281389 2.253061398 
2.2847946572 2.3165279163 2.3482611754 2.3799944345 2.4117276937 2.4434609528 2.4751942119 2.506927471 2.5386607302 
2.5703939893 2.6021272484 2.6338605076 2.6655937667 2.6973270258 2.7290602849 2.7607935441 2.7925268032 2.8242600623 
2.8559933214 2.8877265806 2.9194598397 2.9511930988 2.982926358 3.0146596171 3.0463928762 3.0781261353 3.1098593945 
3.1415926536 
_radius 1 100 double
1.144475843e-15 0.013900221703 0.027723676761 0.041392380055 0.054842957931 0.068030056409 0.080925386029 0.093512183865 0.10577600906 
0.11769382935 0.12922386203 0.14029844627 0.15082157777 0.16067194814 0.16971148393 0.1777984338 0.18480316655 0.19062434853 
0.19520320197 0.19853392967 0.20066889913 0.20171774754 0.20184024404 0.20123353731 0.20011522333 0.19870432144 0.19720258939 
0.1957785543 0.19455616038 0.1936091272 0.19296118394 0.19259151465 0.19244423352 0.19244060917 0.19249292088 0.19251894023 
0.19245581892 0.19227166439 0.1919727582 0.19160483252 0.19124825251 0.19100866314 0.19100553966 0.19136071772 0.19218794503 
0.19358362854 0.19561872055 0.1983319988 0.2017252882 0.20576101675 0.21036216526 0.21541471173 0.22077300005 0.22626842224 
0.23172110467 0.23695337337 0.24180325292 0.24613632576 0.24985473276 0.25290262576 0.25526780029 0.25697950771 0.25810264415 
0.25872874393 0.25896453614 0.25891921405 0.25869187935 0.25836068197 0.25797489356 0.25755060116 0.25707009465 0.25648455925 
0.25571945536 0.25468188993 0.25326921073 0.25137791781 0.24891186116 0.24578872993 0.24194413085 0.23733304515 0.23192896315 
0.22572134333 0.21871215395 0.21091218983 0.20233772481 0.19300792441 0.18294329218 0.17216522434 0.1606965149 0.1485624641 
0.13579218001 0.12241975168 0.10848514934 0.094034867021 0.079122382504 0.063808459382 0.048161211638 0.032255771968 0.016173405495 
1.1237088704e-15 
_area 1 100 double
0 0.00056577897535 0.002245768767 0.0049900230974 0.0087218186785 0.013345805649 0.018756188573 0.024842226657 0.031489268576 
0.038576055263 0.045971289246 0.053531814115 0.061101743354 0.068510413797 0.075569435338 0.082073118181 0.08780755446 0.092570001564 
0.096195108883 0.098581392471 0.09971097017 0.099657385248 0.098579557204 0.096703099331 0.09429174702 0.091611798717 0.088899962131 
0.086357563765 0.084178637661 0.082424003315 0.081035486209 0.080005300715 0.07937907298 0.079335892742 0.079990237793 0.081070217838 
0.082402034134 0.083923090728 0.08561655448 0.087465842133 0.089404732298 0.091346294059 0.09320877968 0.094961473329 0.096693615265 
0.09878080862 0.10112664634 0.10380562477 0.10696099469 0.11073168209 0.11522559121 0.12050393168 0.12655728296 0.13328007983 
0.14046365954 0.14781507765 0.1549955591 0.16166492665 0.16751215838 0.17228017428 0.17580079643 0.17802822872 0.17905529037 
0.17908456588 0.17838204501 0.17724803869 0.17593906489 0.17448033736 0.17287865142 0.17116578596 0.16934960537 0.16739451941 
0.16523243537 0.16277624402 0.15992860015 0.15659562394 0.15270210959 0.14820448341 0.14309604588 0.13740010796 0.13115278089 
0.12438401788 0.11710764519 0.10932619456 0.10104760954 0.09230499608 0.08317097247 0.073762499658 0.06423631731 0.0547774694 
0.045584196183 0.036852460285 0.028762887105 0.021471971437 0.015108224767 0.0097728359027 0.005543463734 0.0024789023703 0.00062206657113 
6.1425165648e-17 
