# vtk DataFile Version 5.1
vtk output
ASCII
DATASET POLYDATA
POINTS 100 float
0.152636 0.0745265 -0.656428 0.152601 0.074419 -0.656748 0.152513 0.0739209 -0.657639 
0.152363 0.0730726 -0.658946 0.15213 0.0719339 -0.660425 0.15179 0.0705735 -0.661778 
0.151312 0.0690573 -0.662682 0.15066 0.0674356 -0.662825 0.149799 0.0657328 -0.661939 
0.148687 0.0639404 -0.659829 0.147284 0.0620147 -0.656384 0.145547 0.0598793 -0.651591 
0.143434 0.0574337 -0.645522 0.140899 0.0545645 -0.63832 0.137899 0.0511611 -0.630175 
0.13439 0.0471307 -0.621295 0.130332 0.0424129 -0.611876 0.125693 0.0369915 -0.602074 
0.120447 0.0309007 -0.591989 0.114584 0.0242268 -0.581652 0.10811 0.0171039 -0.571024 
0.10105 0.0097037 -0.560008 0.093451 0.0022219 -0.548464 0.0853803 -0.00513806 -0.536235 
0.0769246 -0.0121819 -0.523166 0.0681845 -0.01874 -0.509135 0.0592692 -0.0246793 -0.494064 
0.0502879 -0.0299116 -0.477938 0.0413417 -0.0343957 -0.460797 0.0325155 -0.0381353 -0.442739 
0.0238707 -0.0411717 -0.423901 0.0154403 -0.0435739 -0.404439 0.00722742 -0.0454264 -0.384506 
-0.000793459 -0.0468173 -0.364229 -0.00867114 -0.0478273 -0.343694 -0.0164692 -0.0485224 -0.322931 
-0.0242548 -0.0489493 -0.301911 -0.0320863 -0.0491349 -0.280555 -0.0400006 -0.0490891 -0.25874 
-0.0480019 -0.0488103 -0.236327 -0.0560527 -0.0482923 -0.213175 -0.0640701 -0.0475311 -0.189173 
-0.071925 -0.046531 -0.164251 -0.0794479 -0.045308 -0.138404 -0.0864385 -0.0438911 -0.111695 
-0.0926795 -0.0423203 -0.0842527 -0.0979532 -0.0406425 -0.0562682 -0.102059 -0.0389056 -0.0279746 
-0.10483 -0.0371522 0.000371749 -0.106148 -0.035414 0.0285138 -0.105952 -0.0337071 0.0562155 
-0.104246 -0.0320315 0.0832798 -0.101097 -0.0303718 0.109561 -0.0966309 -0.0287017 0.13497 
-0.0910176 -0.0269908 0.159475 -0.0844608 -0.0252122 0.183087 -0.0771788 -0.0233506 0.205855 
-0.0693879 -0.0214091 0.227846 -0.0612859 -0.0194137 0.249129 -0.0530395 -0.0174139 0.269762 
-0.0447752 -0.0154808 0.289786 -0.036575 -0.0137007 0.309214 -0.0284777 -0.0121659 0.32804 
-0.0204842 -0.0109643 0.346241 -0.012567 -0.010168 0.363787 -0.00468148 -0.00982383 0.380659 
0.00322083 -0.00994564 0.396852 0.0111807 -0.0105112 0.412393 0.0192209 -0.0114628 0.427342 
0.0273391 -0.0127127 0.44179 0.0355048 -0.0141526 0.455858 0.0436593 -0.0156648 0.469682 
0.0517207 -0.0171359 0.483401 0.0595905 -0.0184693 0.497139 0.0671629 -0.0195958 0.510992 
0.0743347 -0.0204804 0.525008 0.0810148 -0.0211253 0.539186 0.0871324 -0.0215671 0.553467 
0.0926425 -0.0218706 0.56774 0.0975293 -0.0221182 0.581851 0.101806 -0.0223978 0.595614 
0.105511 -0.0227898 0.608833 0.108706 -0.0233553 0.621316 0.111464 -0.0241278 0.632896 
0.113868 -0.0251083 0.643441 0.115999 -0.026265 0.652869 0.117931 -0.0275381 0.661145 
0.119725 -0.0288482 0.668286 0.121429 -0.0301071 0.674353 0.123071 -0.0312303 0.679437 
0.124662 -0.0321482 0.683652 0.126198 -0.0328158 0.687118 0.12766 -0.033218 0.689953 
0.129023 -0.0333716 0.692259 0.130253 -0.0333214 0.694121 0.131315 -0.0331338 0.695602 
0.132177 -0.0328864 0.696744 0.13281 -0.0326564 0.697573 0.13319 -0.0325089 0.6981 
0.133305 -0.0324878 0.698329 
LINES 2 100
OFFSETS vtktypeint64
0 100 
CONNECTIVITY vtktypeint64
0 1 2 3 4 5 6 7 8 
9 10 11 12 13 14 15 16 17 
18 19 20 21 22 23 24 25 26 
27 28 29 30 31 32 33 34 35 
36 37 38 39 40 41 42 43 44 
45 46 47 48 49 50 51 52 53 
54 55 56 57 58 59 60 61 62 
63 64 65 66 67 68 69 70 71 
72 73 74 75 76 77 78 79 80 
81 82 83 84 85 86 87 88 89 
90 91 92 93 94 95 96 97 98 
99 
POINT_DATA 100
FIELD FieldData 3
_theta 1 100 double
0 0.031733259127 0.063466518254 0.095199777382 0.12693303651 0.15866629564 0.19039955476 0.22213281389 0.25386607302 
0.28559933214 0.31733259127 0.3490658504 0.38079910953 0.41253236865 0.44426562778 0.47599888691 0.50773214603 0.53946540516 
0.57119866429 0.60293192342 0.63466518254 0.66639844167 0.6981317008 0.72986495992 0.76159821905 0.79333147818 0.82506473731 
0.85679799643 0.88853125556 0.92026451469 0.95199777382 0.98373103294 1.0154642921 1.0471975512 1.0789308103 1.1106640695 
1.1423973286 1.1741305877 1.2058638468 1.237597106 1.2693303651 1.3010636242 1.3327968833 1.3645301425 1.3962634016 
1.4279966607 1.4597299198 1.491463179 1.5231964381 1.5549296972 1.5866629564 1.6183962155 1.6501294746 1.6818627337 
1.7135959929 1.745329252 1.7770625111 1.8087957702 1.8405290294 1.8722622885 1.9039955476 1.9357288068 1.9674620659 
1.999195325 2.0309285841 2.0626618433 2.0943951024 2.1261283615 2.1578616206 2.1895948798 2.2213281389 2.253061398 
2.2847946572 2.3165279163 2.3482611754 2.3799944345 2.4117276937 2.4434609528 2.4751942119 2.506927471 2.5386607302 
2.5703939893 2.6021272484 2.6338605076 2.6655937667 2.6973270258 2.7290602849 2.7607935441 2.7925268032 2.8242600623 
2.8559933214 2.8877265806 2.9194598397 2.9511930988 2.982926358 3.0146596171 3.0463928762 3.0781261353 3.1098593945 
3.1415926536 
_radius 1 100 double
1.0087920413e-15 0.014421021566 0.028766161534 0.042954427663 0.056905817386 0.07054215665 0.083787900329 0.09657071254 0.10882161893 
0.12047460592 0.13146573457 0.14173206391 0.15121084287 0.15983948454 0.16755679991 0.17430586988 0.18003875845 0.18472296105 
0.18834901938 0.19093819548 0.19254866046 0.1932785199 0.19326430235 0.19267427161 0.19169692472 0.19052603227 0.18934427438 
0.18830772468 0.18753311241 0.18708912239 0.18699226303 0.18720730044 0.18765201163 0.18820596558 0.18872303913 0.18904726171 
0.18903118161 0.18855513614 0.1875448629 0.18598449689 0.18392260804 0.1814702763 0.17879162602 0.17608832712 0.17358027759 
0.17148509965 0.16999914823 0.16928219468 0.16944673788 0.17055160371 0.17259908716 0.17553554876 0.17925606127 0.18361336927 
0.18843026408 0.19351351286 0.19866734053 0.20370499172 0.20845766369 0.21278079668 0.21655817759 0.21970446923 0.22216661624 
0.22392421873 0.22498861072 0.22540021793 0.22522386856 0.22454203339 0.22344636151 0.22202825508 0.22036954195 0.21853452435 
0.2165647231 0.21447731959 0.21226743325 0.20991309131 0.2073807383 0.20462917379 0.2016109254 0.19827150982 0.19454805712 
0.1903690768 0.18565676046 0.18033230797 0.17432360097 0.16757349577 0.16004643565 0.15173123689 0.14263883484 0.13279532863 
0.12223244831 0.11097892679 0.099056376608 0.086481706805 0.073275465626 0.0594731882 0.045135937652 0.030356742877 0.015260940706 
2.0829554894e-16 
_area 1 100 double
0 0.00053491960244 0.0021372683687 0.004798290991 0.0084975052503 0.013192940516 0.018809468714 0.025230240758 0.032295369949 
0.039808492805 0.047548750902 0.05528494559 0.062789707161 0.069852882821 0.076293487041 0.081968351096 0.086774876838 0.090647075447 
0.093547930299 0.095464013461 0.096407241428 0.096423646635 0.095603329327 0.094083468961 0.092039415026 0.089666113403 0.08715978089 
0.084714205791 0.082545697116 0.081012045335 0.080085978226 0.079685982415 0.079720818618 0.080036542726 0.080507562192 0.080985122267 
0.081311037135 0.081340670313 0.08097739963 0.080201513787 0.079080814888 0.07775820999 0.076418814892 0.075254119971 0.074451113995 
0.074171014691 0.074456078698 0.075297732297 0.07668995106 0.078636473356 0.081177671006 0.084385185319 0.088311764628 0.092945365713 
0.098186743921 0.10385201991 0.10969280084 0.11542757113 0.12077686141 0.12549328807 0.12938078707 0.13230268501 0.1341824874 
0.13500221686 0.13480072029 0.13367079271 0.13175167127 0.12921334262 0.1262317344 0.12296113237 0.11951853045 0.11598864346 
0.11243960772 0.10893490999 0.10553753129 0.10230794654 0.099295635224 0.096522697386 0.093962492611 0.091522811715 0.089045506072 
0.086328353895 0.083163219598 0.079377207384 0.074865384141 0.069609416754 0.0636804965 0.057226865946 0.05044792545 0.043559567486 
0.036759584559 0.030205921274 0.024017504789 0.018293631047 0.013135948436 0.0086598817547 0.0049924984043 0.00226022038 0.00057155835426 
3.5762240613e-18 
