# vtk DataFile Version 5.1
vtk output
ASCII
DATASET POLYDATA
POINTS 100 float
0.151039 0.0439507 -0.637557 0.151086 0.0439694 -0.637361 0.151254 0.0438407 -0.636773 
0.151501 0.0435675 -0.635759 0.151756 0.0431524 -0.63426 0.151929 0.0425954 -0.632211 
0.151916 0.0418913 -0.62954 0.151605 0.0410277 -0.626186 0.150881 0.0399839 -0.622099 
0.14964 0.0387308 -0.617252 0.147786 0.0372327 -0.611641 0.145241 0.0354503 -0.605285 
0.141944 0.0333452 -0.598217 0.137855 0.0308848 -0.590487 0.132951 0.0280473 -0.582143 
0.12723 0.0248264 -0.57323 0.120706 0.0212347 -0.56378 0.11341 0.0173045 -0.553805 
0.105387 0.013088 -0.543299 0.0966936 0.00865389 -0.532237 0.0874014 0.00408303 -0.520577 
0.0775912 -0.000537421 -0.508273 0.0673532 -0.00512058 -0.495278 0.056785 -0.00958618 -0.481556 
0.0459882 -0.013866 -0.467086 0.0350648 -0.0179074 -0.451872 0.0241125 -0.0216754 -0.435941 
0.0132201 -0.0251518 -0.419339 0.00246256 -0.0283331 -0.402131 -0.00810289 -0.031226 -0.384391 
-0.0184391 -0.0338425 -0.366191 -0.0285296 -0.0361948 -0.347591 -0.0383767 -0.0382906 -0.328636 
-0.0479969 -0.0401299 -0.309344 -0.0574141 -0.0417034 -0.28971 -0.0666512 -0.042993 -0.269704 
-0.07572 -0.0439743 -0.249283 -0.0846125 -0.0446199 -0.228393 -0.0932922 -0.0449044 -0.206987 
-0.101689 -0.0448087 -0.185035 -0.109697 -0.0443245 -0.162532 -0.117178 -0.0434561 -0.139507 
-0.123963 -0.0422222 -0.116026 -0.12987 -0.0406539 -0.0921925 -0.134711 -0.0387927 -0.068137 
-0.138311 -0.0366854 -0.04401 -0.140523 -0.03438 -0.0199682 -0.141241 -0.0319205 0.00384011 
-0.140411 -0.0293431 0.0272877 -0.13804 -0.0266745 0.0502796 -0.134196 -0.0239315 0.0727593 
-0.129004 -0.0211232 0.0947104 -0.122635 -0.0182548 0.116154 -0.115297 -0.0153333 0.137137 
-0.107213 -0.0123733 0.157727 -0.0986068 -0.00940197 0.17799 -0.0896842 -0.00646341 0.197984 
-0.0806192 -0.00361978 0.217741 -0.0715438 -0.00095008 0.237265 -0.062542 0.00145434 0.256523 
-0.053651 0.00349696 0.275454 -0.0448664 0.00508532 0.293968 -0.0361516 0.00614131 0.311965 
-0.0274518 0.00661107 0.329347 -0.0187071 0.00647328 0.34603 -0.0098672 0.0057446 0.361963 
-0.000902028 0.00448129 0.377132 0.0081897 0.00277665 0.391567 0.0173773 0.000754173 0.405345 
0.0265991 -0.00144283 0.418576 0.0357681 -0.00366413 0.431396 0.0447808 -0.00576651 0.443947 
0.0535282 -0.00762717 0.456366 0.061907 -0.0091549 0.46876 0.0698306 -0.0102977 0.481196 
0.0772368 -0.0110457 0.493691 0.0840925 -0.0114299 0.506209 0.0903942 -0.0115147 0.518659 
0.0961654 -0.0113884 0.530911 0.10145 -0.0111499 0.542802 0.106302 -0.0108946 0.554159 
0.110781 -0.0107018 0.564817 0.114936 -0.0106241 0.574633 0.118804 -0.0106809 0.583501 
0.122405 -0.0108569 0.591366 0.125735 -0.011105 0.598221 0.128778 -0.0113543 0.604107 
0.131503 -0.0115211 0.609108 0.133875 -0.0115222 0.613335 0.135864 -0.0112885 0.616912 
0.137453 -0.0107762 0.619964 0.138639 -0.00997545 0.622601 0.139445 -0.00891454 0.624908 
0.139915 -0.00765861 0.626941 0.14011 -0.0063037 0.628726 0.140108 -0.00496642 0.630259 
0.13999 -0.00377072 0.631521 0.13983 -0.0028333 0.632477 0.139692 -0.00224975 0.633097 
0.139618 -0.00208293 0.633355 
LINES 2 100
OFFSETS vtktypeint64
0 100 
CONNECTIVITY vtktypeint64
0 1 2 3 4 5 6 7 8 
9 10 11 12 13 14 15 16 17 
18 19 20 21 22 23 24 25 26 
27 28 29 30 31 32 33 34 35 
36 37 38 39 40 41 42 43 44 
45 46 47 48 49 50 51 52 53 
54 55 56 57 58 59 60 61 62 
63 64 65 66 67 68 69 70 71 
72 73 74 75 76 77 78 79 80 
81 82 83 84 85 86 87 88 89 
90 91 92 93 94 95 96 97 98 
99 
POINT_DATA 100
FIELD FieldData 3
_theta 1 100 double
0 0.031733259127 0.063466518254 0.095199777382 0.12693303651 0.15866629564 0.19039955476 0.22213281389 0.25386607302 
0.28559933214 0.31733259127 0.3490658504 0.38079910953 0.41253236865 0.44426562778 0.47599888691 0.50773214603 0.53946540516 
0.57119866429 0.60293192342 0.63466518254 0.66639844167 0.6981317008 0.72986495992 0.76159821905 0.79333147818 0.82506473731 
0.85679799643 0.88853125556 0.92026451469 0.95199777382 0.98373103294 1.0154642921 1.0471975512 1.0789308103 1.1106640695 
1.1423973286 1.1741305877 1.2058638468 1.237597106 1.2693303651 1.3010636242 1.3327968833 1.3645301425 1.3962634016 
1.4279966607 1.4597299198 1.491463179 1.5231964381 1.5549296972 1.5866629564 1.6183962155 1.6501294746 1.6818627337 
1.7135959929 1.745329252 1.7770625111 1.8087957702 1.8405290294 1.8722622885 1.9039955476 1.9357288068 1.9674620659 
1.999195325 2.0309285841 2.0626618433 2.0943951024 2.1261283615 2.1578616206 2.1895948798 2.2213281389 2.253061398 
2.2847946572 2.3165279163 2.3482611754 2.3799944345 2.4117276937 2.4434609528 2.4751942119 2.506927471 2.5386607302 
2.5703939893 2.6021272484 2.6338605076 2.6655937667 2.6973270258 2.7290602849 2.7607935441 2.7925268032 2.8242600623 
2.8559933214 2.8877265806 2.9194598397 2.9511930988 2.982926358 3.0146596171 3.0463928762 3.0781261353 3.1098593945 
3.1415926536 
_radius 1 100 double
3.7878989012e-16 0.015243873778 0.030425982626 0.045480591404 0.06034270486 0.074947697473 0.089230061286 0.10312139567 0.11654804417 
0.12942901674 0.14167495716 0.15318887083 0.16386909927 0.17361464491 0.18233249621 0.18994618427 0.19640451141 0.20168928398 
0.20582095782 0.20886132879 0.21091271127 0.21211338776 0.21262944672 0.21264345476 0.21234075373 0.2118945488 0.2114513231 
0.21111837732 0.21095530142 0.21097082647 0.21112578286 0.21134197186 0.21151589516 0.21153568188 0.21129924964 0.21073164397 
0.20979951904 0.20852084266 0.20696823675 0.20526501671 0.20357397072 0.20208011069 0.20096987636 0.20041027315 0.20053159798 
0.20141635842 0.20309506158 0.20554768294 0.20870873193 0.21247422577 0.21670999883 0.22126156491 0.22596561517 0.23066247183 
0.23520813248 0.23948433232 0.2434052702 0.24692010011 0.25001089048 0.25268646676 0.25497328791 0.25690507897 0.2585131553 
0.25981912912 0.26083104036 0.26154309969 0.26193843299 0.26199369733 0.26168429356 0.26098908126 0.25989386221 0.25839328028 
0.25649106461 0.25419866109 0.25153227546 0.24850831545 0.24513735237 0.24141714697 0.23732592151 0.232817605 0.22782085247 
0.22224302649 0.21597915441 0.20892456105 0.20098890214 0.1921089808 0.18225803489 0.17144996804 0.15973802125 0.14720842113 
0.13397040451 0.12014455497 0.10585149028 0.091202601322 0.076293879568 0.061203100844 0.045989977979 0.030698495508 0.015360530365 
8.5545459678e-16 
_area 1 100 double
0 0.00057963264355 0.0023139915481 0.0051892161399 0.0091811640663 0.014253188009 0.020352050419 0.027401639232 0.03529480685 
0.043884667573 0.052977731507 0.062331846792 0.071661667306 0.080653115619 0.088986304874 0.096364191411 0.10254252696 0.10735597916 
0.11073579265 0.11271592927 0.11342685016 0.11307846139 0.11193572918 0.11029160528 0.10844162477 0.10666205656 0.1051883794 
0.10418724766 0.10372664888 0.103769738 0.10420147618 0.10486643496 0.10560380014 0.10627861101 0.10680734359 0.10717300468 
0.10742499689 0.10766249736 0.10800615417 0.10856843013 0.10943325589 0.11064952053 0.11223576117 0.11419118253 0.11650999062 
0.11919638407 0.12227213425 0.1257633677 0.12968538193 0.13405366362 0.13888101786 0.14414491037 0.14975333414 0.15553956789 
0.16129104973 0.16679005438 0.17184540198 0.17630980077 0.18008591153 0.18312558022 0.18542530824 0.18701921952 0.18796974661 
0.18835615336 0.18826102057 0.1877545501 0.18687716883 0.1856240376 0.1839395626 0.18173023207 0.17889567262 0.17536664076 
0.17113515583 0.16626709692 0.16089469491 0.15519111386 0.14933189106 0.1434505226 0.13759920748 0.13172857512 0.12569735923 
0.11931240405 0.11238609116 0.10479127416 0.096497382948 0.087580959515 0.078212436721 0.068625718112 0.059079184371 0.049817717159 
0.041045244199 0.032914406363 0.025532960927 0.018978933355 0.013314697649 0.0085947762704 0.0048676224648 0.0021740985573 0.000545151025 
4.2524133794e-17 
