# vtk DataFile Version 5.1
vtk output
ASCII
DATASET POLYDATA
POINTS 100 float
0.0849533 0.0534567 -0.659238 0.0851455 0.0535214 -0.659626 0.0857208 0.0535339 -0.66069 
0.0866287 0.0534558 -0.662262 0.0877872 0.0532289 -0.664086 0.0890877 0.0527811 -0.665836 
0.0903997 0.0520344 -0.667151 0.0915777 0.0509128 -0.667666 0.0924688 0.0493509 -0.667047 
0.0929211 0.0472999 -0.665016 0.0927919 0.0447326 -0.661379 0.0919566 0.0416462 -0.656038 
0.0903155 0.0380618 -0.648991 0.0878005 0.0340219 -0.640331 0.0843789 0.0295863 -0.630227 
0.0800557 0.0248263 -0.618905 0.0748728 0.0198182 -0.606617 0.0689064 0.0146376 -0.593616 
0.0622608 0.00935458 -0.580129 0.0550616 0.00403031 -0.566333 0.0474465 -0.00128418 -0.552342 
0.0395556 -0.00654726 -0.538198 0.0315224 -0.0117243 -0.523873 0.0234649 -0.0167841 -0.50928 
0.0154795 -0.0216943 -0.494285 0.00763605 -0.0264178 -0.478732 -2.33707e-05 -0.0309095 -0.462462 
-0.00748354 -0.0351146 -0.445337 -0.0147524 -0.0389696 -0.427255 -0.021855 -0.0424048 -0.408168 
-0.0288264 -0.045349 -0.388082 -0.0357035 -0.047736 -0.367061 -0.0425167 -0.0495111 -0.345219 
-0.0492835 -0.0506386 -0.322702 -0.0560024 -0.0511075 -0.299676 -0.0626497 -0.0509358 -0.276306 
-0.0691788 -0.0501718 -0.252738 -0.0755204 -0.0488926 -0.229086 -0.0815868 -0.0472003 -0.205422 
-0.0872764 -0.0452138 -0.18177 -0.0924795 -0.0430604 -0.158113 -0.097085 -0.0408648 -0.134398 
-0.100987 -0.0387387 -0.110551 -0.10409 -0.0367711 -0.0864931 -0.106313 -0.0350215 -0.0621585 
-0.107596 -0.0335151 -0.0375095 -0.107897 -0.0322423 -0.0125494 -0.107199 -0.031162 0.0126705 
-0.105502 -0.0302078 0.0380492 -0.102831 -0.0292981 0.0634411 -0.0992262 -0.0283466 0.088667 
-0.0947464 -0.027275 0.113529 -0.089464 -0.0260238 0.137829 -0.0834634 -0.0245617 0.161387 
-0.0768383 -0.0228915 0.184056 -0.0696888 -0.0210529 0.20574 -0.0621184 -0.0191203 0.226397 
-0.0542303 -0.017197 0.246045 -0.0461242 -0.015406 0.264755 -0.0378918 -0.0138779 0.282643 
-0.0296135 -0.0127379 0.299853 -0.0213548 -0.0120927 0.316546 -0.0131638 -0.0120191 0.332873 
-0.00506913 -0.0125555 0.348969 0.00291932 -0.0136967 0.364932 0.0108094 -0.0153936 0.380819 
0.0186231 -0.0175566 0.396644 0.0263918 -0.0200638 0.412379 0.0341499 -0.0227714 0.427962 
0.0419282 -0.0255269 0.443313 0.0497469 -0.0281827 0.458345 0.0576097 -0.0306086 0.472977 
0.065499 -0.0327026 0.487149 0.0733735 -0.0343984 0.500833 0.0811685 -0.0356688 0.514032 
0.0887983 -0.0365258 0.526781 0.096162 -0.0370154 0.539144 0.103151 -0.0372104 0.551199 
0.109657 -0.0371999 0.563026 0.115584 -0.0370784 0.574694 0.120854 -0.0369347 0.586244 
0.125414 -0.0368418 0.597682 0.129247 -0.0368504 0.60897 0.132366 -0.0369844 0.620025 
0.134818 -0.0372403 0.630725 0.136677 -0.0375905 0.640919 0.13804 -0.0379889 0.65044 
0.139013 -0.0383787 0.659126 0.139707 -0.0387018 0.666834 0.140225 -0.0389069 0.673458 
0.140651 -0.0389581 0.678945 0.141052 -0.0388393 0.683296 0.141466 -0.0385576 0.686572 
0.141906 -0.0381425 0.688891 0.142363 -0.0376423 0.690407 0.14281 -0.0371183 0.691306 
0.143211 -0.0366373 0.691774 0.143525 -0.0362626 0.691986 0.143718 -0.0360464 0.692083 
0.143768 -0.0360232 0.692153 
LINES 2 100
OFFSETS vtktypeint64
0 100 
CONNECTIVITY vtktypeint64
0 1 2 3 4 5 6 7 8 
9 10 11 12 13 14 15 16 17 
18 19 20 21 22 23 24 25 26 
27 28 29 30 31 32 33 34 35 
36 37 38 39 40 41 42 43 44 
45 46 47 48 49 50 51 52 53 
54 55 56 57 58 59 60 61 62 
63 64 65 66 67 68 69 70 71 
72 73 74 75 76 77 78 79 80 
81 82 83 84 85 86 87 88 89 
90 91 92 93 94 95 96 97 98 
99 
POINT_DATA 100
FIELD FieldData 3
_theta 1 100 double
0 0.031733259127 0.063466518254 0.095199777382 0.12693303651 0.15866629564 0.19039955476 0.22213281389 0.25386607302 
0.28559933214 0.31733259127 0.3490658504 0.38079910953 0.41253236865 0.44426562778 0.47599888691 0.50773214603 0.53946540516 
0.57119866429 0.60293192342 0.63466518254 0.66639844167 0.6981317008 0.72986495992 0.76159821905 0.79333147818 0.82506473731 
0.85679799643 0.88853125556 0.92026451469 0.95199777382 0.98373103294 1.0154642921 1.0471975512 1.0789308103 1.1106640695 
1.1423973286 1.1741305877 1.2058638468 1.237597106 1.2693303651 1.3010636242 1.3327968833 1.3645301425 1.3962634016 
1.4279966607 1.4597299198 1.491463179 1.5231964381 1.5549296972 1.5866629564 1.6183962155 1.6501294746 1.6818627337 
1.7135959929 1.745329252 1.7770625111 1.8087957702 1.8405290294 1.8722622885 1.9039955476 1.9357288068 1.9674620659 
1.999195325 2.0309285841 2.0626618433 2.0943951024 2.1261283615 2.1578616206 2.1895948798 2.2213281389 2.253061398 
2.2847946572 2.3165279163 2.3482611754 2.3799944345 2.4117276937 2.4434609528 2.4751942119 2.506927471 2.5386607302 
2.5703939893 2.6021272484 2.6338605076 2.6655937667 2.6973270258 2.7290602849 2.7607935441 2.7925268032 2.8242600623 
2.8559933214 2.8877265806 2.9194598397 2.9511930988 2.982926358 3.0146596171 3.0463928762 3.0781261353 3.1098593945 
3.1415926536 
_radius 1 100 double
1.1289731782e-15 0.011351332027 0.022691430055 0.034008338001 0.045289136 0.056512847905 0.067640073536 0.078603310345 0.089302063931 
0.099605110632 0.10936001856 0.1184083594 0.12660414004 0.13383254323 0.14002590557 0.1451740612 0.14932688684 0.15258811071 
0.15510102947 0.15702841194 0.15853017443 0.15974300786 0.16076576519 0.16165309499 0.16241787313 0.16304100461 0.16348570608 
0.16371279422 0.16369385242 0.1634202009 0.1629069422 0.16219250804 0.16133471198 0.16040428144 0.15947660425 0.1586224966 
0.15789926766 0.15734373283 0.15696854836 0.15676231974 0.15669310523 0.15671506365 0.15677894321 0.15684693511 0.15690946014 
0.15699784304 0.15718672592 0.15758427767 0.15831359903 0.15949156377 0.16121030817 0.16352338334 0.16643618846 0.16990008045 
0.17381066291 0.17801165154 0.18230550059 0.18647074282 0.19028441931 0.19354668511 0.19610395774 0.19786690786 0.19882022457 
0.19902238394 0.19859536303 0.19770593635 0.19654148044 0.19528395101 0.19408588756 0.19305186386 0.19222765203 0.19159772882 
0.1910901949 0.19058725648 0.18993928231 0.18898082598 0.18754747843 0.18549267857 0.18270347478 0.17911367627 0.17471218497 
0.1695441792 0.16370369054 0.15731784104 0.15052495413 0.14345023593 0.13618337146 0.12876213666 0.12116509281 0.11331476125 
0.10509066463 0.096349755336 0.086950572626 0.076777240632 0.065759968186 0.053889626245 0.041224933175 0.027891663456 0.014074131396 
1.2467846071e-15 
_area 1 100 double
0 0.0003607206591 0.0014464923624 0.003267816638 0.0058372209682 0.0091543554766 0.013185489121 0.017849188801 0.023013769486 
0.02850413376 0.034113943487 0.039620737121 0.044803355336 0.049461632909 0.053437345479 0.056633094122 0.059023565751 0.060653705713 
0.061622211087 0.062055168727 0.062079493693 0.061805143292 0.061320183567 0.060699589844 0.060035185941 0.059512471371 0.059077091613 
0.058698225113 0.058384198587 0.058148071628 0.05800065035 0.0579584283 0.058032375123 0.058288502317 0.058717673713 0.059287041165 
0.059995455263 0.060813023318 0.061696360186 0.062603648131 0.063502964677 0.064389508815 0.065301889568 0.066317986826 0.067511180077 
0.068904884074 0.070481822841 0.072218721231 0.074105111052 0.076155332871 0.078429720319 0.081042455396 0.084131784482 0.087759464742 
0.091916891273 0.096501297252 0.10131962809 0.10611439309 0.11058778636 0.11443194084 0.11737523664 0.11923345751 0.1199440948 
0.11957050165 0.11831139538 0.11647492569 0.11426275499 0.11184351889 0.10939349005 0.10714111823 0.10514207523 0.10333053118 
0.10168725332 0.10018671992 0.098763107127 0.097269635478 0.095515607053 0.093338322818 0.090627605338 0.08732854633 0.083440269251 
0.079011972565 0.074135284448 0.068931717226 0.063534813216 0.058069021549 0.052630048116 0.047272431082 0.042008770536 0.036821946694 
0.031687595471 0.026600235083 0.021594787226 0.016757122016 0.012221468187 0.0081566512462 0.0047454828654 0.0021618077705 0.00054864583055 
8.1158227125e-17 
