# vtk DataFile Version 5.1
vtk output
ASCII
DATASET POLYDATA
POINTS 100 float
0.0849159 0.0912049 -0.717313 0.0848282 0.0909687 -0.716817 0.0845472 0.0900397 -0.715323 
0.0841008 0.0884439 -0.712845 0.0835322 0.0862241 -0.709406 0.082896 0.0834357 -0.705041 
0.0822526 0.0801438 -0.699793 0.0816613 0.0764178 -0.693709 0.0811722 0.0723272 -0.686848 
0.0808187 0.0679375 -0.679269 0.0806095 0.0633062 -0.671036 0.0805226 0.0584805 -0.662212 
0.0805007 0.0534956 -0.652856 0.0804498 0.048375 -0.643025 0.0802415 0.0431313 -0.632764 
0.0797183 0.0377688 -0.62211 0.0787037 0.0322864 -0.611087 0.0770148 0.0266819 -0.599703 
0.0744774 0.0209552 -0.587955 0.0709421 0.0151132 -0.575825 0.0663005 0.009172 -0.563285 
0.0604973 0.0031601 -0.550295 0.0535405 -0.00288062 -0.536811 0.0455049 -0.00889472 -0.522787 
0.0365301 -0.0148144 -0.508175 0.0268116 -0.020562 -0.492936 0.016587 -0.0260533 -0.477036 
0.00611662 -0.0312018 -0.460452 -0.00433798 -0.0359232 -0.443176 -0.0145362 -0.0401407 -0.425208 
-0.0242786 -0.0437889 -0.406563 -0.0334228 -0.0468178 -0.387266 -0.0418933 -0.049196 -0.367349 
-0.0496838 -0.0509125 -0.346848 -0.0568514 -0.0519773 -0.325803 -0.0635036 -0.0524204 -0.304251 
-0.0697797 -0.0522904 -0.282228 -0.0758276 -0.0516514 -0.259763 -0.0817801 -0.0505788 -0.236881 
-0.0877323 -0.0491552 -0.2136 -0.0937238 -0.0474657 -0.189937 -0.0997275 -0.045593 -0.165907 
-0.105646 -0.0436134 -0.141525 -0.111318 -0.0415931 -0.116813 -0.116528 -0.0395857 -0.0917991 
-0.121034 -0.03763 -0.066521 -0.124581 -0.0357499 -0.0410278 -0.126937 -0.0339549 -0.01538 
-0.12791 -0.0322414 0.0103511 -0.127369 -0.0305954 0.0360856 -0.12526 -0.0289953 0.0617376 
-0.121609 -0.0274159 0.0872188 -0.116517 -0.0258312 0.112442 -0.110152 -0.0242186 0.137326 
-0.102728 -0.0225615 0.161798 -0.0944868 -0.020852 0.185795 -0.0856717 -0.019092 0.209268 
-0.0765078 -0.0172948 0.232182 -0.0671837 -0.015484 0.254512 -0.0578398 -0.0136934 0.276248 
-0.0485636 -0.0119644 0.297386 -0.039392 -0.0103442 0.317931 -0.0303195 -0.00888262 0.33789 
-0.0213121 -0.00762928 0.357275 -0.0123228 -0.00663059 0.376096 -0.00330797 -0.005927 0.394363 
0.00575932 -0.00555064 0.412088 0.0148791 -0.00552358 0.42928 0.0240201 -0.0058567 0.44595 
0.0331213 -0.0065492 0.462113 0.0420983 -0.00758884 0.477785 0.0508543 -0.00895278 0.492985 
0.0592931 -0.0106089 0.507736 0.0673321 -0.0125176 0.522062 0.0749141 -0.0146337 0.535987 
0.0820146 -0.0169084 0.54953 0.0886444 -0.0192919 0.562702 0.0948472 -0.0217345 0.575506 
0.100691 -0.0241891 0.587926 0.106259 -0.0266121 0.599934 0.11163 -0.0289646 0.611481 
0.116872 -0.0312135 0.622504 0.122023 -0.0333314 0.632925 0.127087 -0.0352972 0.642658 
0.13203 -0.0370958 0.651614 0.136783 -0.038718 0.659709 0.14125 -0.0401602 0.666874 
0.145321 -0.0414233 0.673059 0.148886 -0.042513 0.67824 0.151854 -0.0434383 0.682428 
0.154167 -0.0442115 0.685668 0.155807 -0.0448467 0.688038 0.156807 -0.04536 0.689645 
0.157245 -0.0457679 0.690622 0.157238 -0.0460869 0.691114 0.156931 -0.0463327 0.691273 
0.156478 -0.0465196 0.691242 0.156024 -0.0466594 0.691145 0.155688 -0.0467615 0.691078 
0.155548 -0.0468317 0.691102 
LINES 2 100
OFFSETS vtktypeint64
0 100 
CONNECTIVITY vtktypeint64
0 1 2 3 4 5 6 7 8 
9 10 11 12 13 14 15 16 17 
18 19 20 21 22 23 24 25 26 
27 28 29 30 31 32 33 34 35 
36 37 38 39 40 41 42 43 44 
45 46 47 48 49 50 51 52 53 
54 55 56 57 58 59 60 61 62 
63 64 65 66 67 68 69 70 71 
72 73 74 75 76 77 78 79 80 
81 82 83 84 85 86 87 88 89 
90 91 92 93 94 95 96 97 98 
99 
POINT_DATA 100
FIELD FieldData 3
_theta 1 100 double
0 0.031733259127 0.063466518254 0.095199777382 0.12693303651 0.15866629564 0.19039955476 0.22213281389 0.25386607302 
0.28559933214 0.31733259127 0.3490658504 0.38079910953 0.41253236865 0.44426562778 0.47599888691 0.50773214603 0.53946540516 
0.57119866429 0.60293192342 0.63466518254 0.66639844167 0.6981317008 0.72986495992 0.76159821905 0.79333147818 0.82506473731 
0.85679799643 0.88853125556 0.92026451469 0.95199777382 0.98373103294 1.0154642921 1.0471975512 1.0789308103 1.1106640695 
1.1423973286 1.1741305877 1.2058638468 1.237597106 1.2693303651 1.3010636242 1.3327968833 1.3645301425 1.3962634016 
1.4279966607 1.4597299198 1.491463179 1.5231964381 1.5549296972 1.5866629564 1.6183962155 1.6501294746 1.6818627337 
1.7135959929 1.745329252 1.7770625111 1.8087957702 1.8405290294 1.8722622885 1.9039955476 1.9357288068 1.9674620659 
1.999195325 2.0309285841 2.0626618433 2.0943951024 2.1261283615 2.1578616206 2.1895948798 2.2213281389 2.253061398 
2.2847946572 2.3165279163 2.3482611754 2.3799944345 2.4117276937 2.4434609528 2.4751942119 2.506927471 2.5386607302 
2.5703939893 2.6021272484 2.6338605076 2.6655937667 2.6973270258 2.7290602849 2.7607935441 2.7925268032 2.8242600623 
2.8559933214 2.8877265806 2.9194598397 2.9511930988 2.982926358 3.0146596171 3.0463928762 3.0781261353 3.1098593945 
3.1415926536 
_radius 1 100 double
1.6837365822e-15 0.014090152633 0.028053113728 0.041766338272 0.055129435937 0.068070614865 0.080548470389 0.092549250315 0.1040805446 
0.11516279401 0.12582005 0.13607118971 0.14592250921 0.15536242006 0.16435885336 0.17285982834 0.18079737237 0.18809456248 
0.19467495729 0.20047320699 0.20544528069 0.20957663678 0.21288685991 0.21542983061 0.21728932465 0.21857088559 0.21939159733 
0.21986971041 0.22011578704 0.22022622607 0.22027906743 0.22033130737 0.22041690056 0.22054519281 0.22070038251 0.22084321694 
0.22091605042 0.22085155031 0.22058409384 0.22006185328 0.21925722455 0.21817376588 0.21684889295 0.21535266738 0.21378363292 
0.2122626801 0.21092557272 0.20991432331 0.20936725227 0.20940749744 0.21013019806 0.21158960283 0.21378849913 0.21667282975 
0.22013361826 0.22401657413 0.22813779818 0.23230267026 0.23632466273 0.24004138596 0.24332623565 0.24609510799 0.24830843149 
0.24996911908 0.25111706929 0.25182075075 0.25216638833 0.25224542037 0.25214117539 0.25191599476 0.25160020322 0.25118442374 
0.25061682079 0.2498067535 0.24863542211 0.24697205729 0.24469198445 0.24169219113 0.23790135055 0.23328346554 0.22783603946 
0.22158444779 0.21457415938 0.20686202578 0.19850736851 0.18956329908 0.18006874134 0.17004197077 0.15947691116 0.14834352913 
0.13659310135 0.12416799276 0.11101442563 0.097096079869 0.082406351847 0.066977479916 0.050885287271 0.034248894159 0.017225380966 
1.9803424113e-16 
_area 1 100 double
0 0.00058808965184 0.0023210762582 0.005111214312 0.0088305723362 0.013332348727 0.018471244391 0.024118307048 0.030168008822 
0.036537278603 0.043157718452 0.049963703799 0.056879664905 0.063809061432 0.070626956636 0.077178538841 0.083286020512 0.088764768165 
0.093446658624 0.097205859617 0.09998071232 0.10178586895 0.10271139038 0.10290922003 0.10257068081 0.10190020597 0.1010898917 
0.10029941281 0.099679025302 0.099312620352 0.099205460124 0.099391817457 0.099954166079 0.1008994612 0.10216947121 0.10371496692 
0.10545114193 0.1072770188 0.10908232406 0.11076132301 0.11222889292 0.1134333809 0.11436337383 0.11504787367 0.11555130209 
0.11596631808 0.11640749171 0.11700650235 0.11790631333 0.11925099606 0.12117064959 0.12376386192 0.12708003798 0.13110355501 
0.1357441267 0.1408389661 0.14616904998 0.1514865928 0.15654717686 0.16113898315 0.16510309156 0.16834218223 0.17081876344 
0.17254648734 0.17357825329 0.17399355194 0.17388668752 0.17335718219 0.17250135908 0.17139929604 0.17009163833 0.16855532247 
0.16669943099 0.16438703623 0.16147172751 0.15783786255 0.1534312065 0.14826560098 0.14240319289 0.13592117064 0.12888460465 
0.12133894815 0.11332225463 0.10488651775 0.096115429785 0.087129883395 0.078078252452 0.069114015508 0.060368618084 0.051931808617 
0.043851348852 0.036154542038 0.028879735706 0.022100851888 0.015936006244 0.010540949528 0.0060918953781 0.0027624677638 0.00069921228269 
1.6587872999e-17 
