# vtk DataFile Version 5.1
vtk output
ASCII
DATASET POLYDATA
POINTS 100 float
0.118777 0.0940546 -0.685768 0.118852 0.0939212 -0.685608 0.119078 0.0933148 -0.685079 
0.119427 0.0922373 -0.684133 0.119854 0.0906924 -0.6827 0.120304 0.0886848 -0.680696 
0.12071 0.0862184 -0.678034 0.120999 0.083296 -0.674635 0.121097 0.0799179 -0.67044 
0.120931 0.0760821 -0.665413 0.120432 0.0717847 -0.659549 0.119535 0.0670214 -0.652872 
0.118183 0.0617893 -0.645429 0.116325 0.05609 -0.637281 0.113916 0.0499323 -0.628495 
0.110922 0.0433359 -0.619127 0.107312 0.0363337 -0.609217 0.10307 0.0289747 -0.598775 
0.0981873 0.0213248 -0.587779 0.0926686 0.0134674 -0.576172 0.0865333 0.00550194 -0.563869 
0.0798166 -0.00245871 -0.550762 0.0725695 -0.0102917 -0.536735 0.0648586 -0.0178693 -0.521675 
0.0567633 -0.0250641 -0.505489 0.0483723 -0.0317547 -0.488114 0.0397786 -0.0378314 -0.469532 
0.0310739 -0.0432012 -0.449767 0.0223424 -0.0477915 -0.428894 0.0136562 -0.051553 -0.407029 
0.00507071 -0.0544612 -0.384322 -0.00337616 -0.0565162 -0.360943 -0.0116637 -0.057741 -0.337068 
-0.0197846 -0.0581794 -0.312864 -0.0277392 -0.057892 -0.288476 -0.0355278 -0.0569519 -0.264013 
-0.0431422 -0.0554411 -0.239545 -0.0505573 -0.0534453 -0.215103 -0.0577248 -0.0510507 -0.190676 
-0.064569 -0.0483408 -0.166228 -0.0709866 -0.0453935 -0.141699 -0.0768501 -0.0422801 -0.11703 
-0.0820154 -0.039064 -0.0921638 -0.0863327 -0.0358012 -0.0670676 -0.08966 -0.0325404 -0.0417363 
-0.0918768 -0.0293239 -0.0162004 -0.0928979 -0.0261885 0.00947377 -0.0926841 -0.0231668 0.0351864 
-0.091249 -0.0202875 0.0608118 -0.0886612 -0.0175761 0.0862081 -0.0850407 -0.0150553 0.111229 
-0.0805497 -0.0127446 0.135735 -0.075379 -0.0106601 0.159607 -0.0697317 -0.00881407 0.182749 
-0.0638046 -0.00721438 0.205101 -0.0577713 -0.00586425 0.226636 -0.0517671 -0.0047619 0.247363 
-0.0458795 -0.00390074 0.267316 -0.0401435 -0.00326964 0.286556 -0.0345433 -0.00285368 0.305157 
-0.0290205 -0.00263509 0.323199 -0.0234868 -0.00259437 0.340762 -0.0178404 -0.00271158 0.357919 
-0.0119836 -0.00296761 0.374732 -0.00583996 -0.00334531 0.391246 0.000631786 -0.00383045 0.407495 
0.00742861 -0.00441239 0.423499 0.0144997 -0.00508438 0.439268 0.0217492 -0.00584358 0.454805 
0.0290453 -0.00669064 0.470106 0.0362335 -0.00762901 0.485168 0.0431529 -0.00866401 0.499986 
0.049654 -0.00980169 0.514551 0.0556143 -0.0110477 0.528856 0.0609511 -0.0124059 0.542886 
0.065629 -0.0138778 0.556622 0.0696618 -0.0154612 0.570036 0.0731081 -0.0171495 0.58309 
0.0760613 -0.0189322 0.595734 0.0786366 -0.020794 0.607911 0.0809547 -0.0227154 0.619554 
0.083126 -0.0246739 0.630591 0.0852366 -0.0266441 0.640953 0.087339 -0.0285992 0.650573 
0.0894466 -0.0305122 0.659393 0.0915349 -0.0323572 0.667371 0.0935479 -0.0341102 0.674479 
0.0954087 -0.0357506 0.680713 0.0970329 -0.0372618 0.686086 0.0983438 -0.0386319 0.690632 
0.0992852 -0.0398537 0.694405 0.0998317 -0.0409248 0.697471 0.0999952 -0.0418473 0.69991 
0.0998247 -0.042627 0.701804 0.0994018 -0.0432723 0.703239 0.0988308 -0.0437934 0.704298 
0.0982259 -0.0442008 0.705052 0.0976964 -0.0445046 0.705562 0.0973323 -0.0447129 0.705875 
0.0971928 -0.0448314 0.706018 
LINES 2 100
OFFSETS vtktypeint64
0 100 
CONNECTIVITY vtktypeint64
0 1 2 3 4 5 6 7 8 
9 10 11 12 13 14 15 16 17 
18 19 20 21 22 23 24 25 26 
27 28 29 30 31 32 33 34 35 
36 37 38 39 40 41 42 43 44 
45 46 47 48 49 50 51 52 53 
54 55 56 57 58 59 60 61 62 
63 64 65 66 67 68 69 70 71 
72 73 74 75 76 77 78 79 80 
81 82 83 84 85 86 87 88 89 
90 91 92 93 94 95 96 97 98 
99 
POINT_DATA 100
FIELD FieldData 3
_theta 1 100 double
0 0.031733259127 0.063466518254 0.095199777382 0.12693303651 0.15866629564 0.19039955476 0.22213281389 0.25386607302 
0.28559933214 0.31733259127 0.3490658504 0.38079910953 0.41253236865 0.44426562778 0.47599888691 0.50773214603 0.53946540516 
0.57119866429 0.60293192342 0.63466518254 0.66639844167 0.6981317008 0.72986495992 0.76159821905 0.79333147818 0.82506473731 
0.85679799643 0.88853125556 0.92026451469 0.95199777382 0.98373103294 1.0154642921 1.0471975512 1.0789308103 1.1106640695 
1.1423973286 1.1741305877 1.2058638468 1.237597106 1.2693303651 1.3010636242 1.3327968833 1.3645301425 1.3962634016 
1.4279966607 1.4597299198 1.491463179 1.5231964381 1.5549296972 1.5866629564 1.6183962155 1.6501294746 1.6818627337 
1.7135959929 1.745329252 1.7770625111 1.8087957702 1.8405290294 1.8722622885 1.9039955476 1.9357288068 1.9674620659 
1.999195325 2.0309285841 2.0626618433 2.0943951024 2.1261283615 2.1578616206 2.1895948798 2.2213281389 2.253061398 
2.2847946572 2.3165279163 2.3482611754 2.3799944345 2.4117276937 2.4434609528 2.4751942119 2.506927471 2.5386607302 
2.5703939893 2.6021272484 2.6338605076 2.6655937667 2.6973270258 2.7290602849 2.7607935441 2.7925268032 2.8242600623 
2.8559933214 2.8877265806 2.9194598397 2.9511930988 2.982926358 3.0146596171 3.0463928762 3.0781261353 3.1098593945 
3.1415926536 
_radius 1 100 double
1.3435676897e-15 0.015166025841 0.030220785945 0.045060235509 0.059599676065 0.073777847531 0.087555626213 0.10090949868 0.11382111717 
0.12626511373 0.13819778247 0.14954915481 0.16022041804 0.17008767733 0.17901191707 0.18685390039 0.19349187174 0.19883944773 
0.20286104739 0.20558258024 0.20709577084 0.20755532048 0.20716895206 0.20618114971 0.20485206917 0.2034337661 0.20214670407 
0.20116027092 0.20058095149 0.20045003978 0.20074984577 0.20141524874 0.20234751803 0.20342883291 0.20453725884 0.20556219779 
0.20641961545 0.20706517644 0.20750238701 0.20778271423 0.20799650818 0.20825779553 0.20868977767 0.2094162725 0.21055810382 
0.21222931713 0.21452915142 0.21752926544 0.22125899006 0.22569316958 0.23074694719 0.2362798098 0.24210843073 0.24802565534 
0.25382197994 0.25930594325 0.26432060378 0.26875437254 0.27254558763 0.27568111929 0.27818990004 0.28013263507 0.28158914466 
0.28264487869 0.28337813951 0.28384943949 0.28409416057 0.28411924131 0.28390401494 0.28340466671 0.28256123321 0.28130576647 
0.27957028335 0.27729336961 0.27442470982 0.27092726369 0.26677721224 0.26196209017 0.25647768056 0.25032430415 0.24350314082 
0.23601320456 0.22784953645 0.21900303424 0.20946208188 0.19921580945 0.18825847334 0.17659417063 0.16424095068 0.15123341202 
0.13762310535 0.12347648528 0.10887067354 0.093887775682 0.078608793941 0.063108229598 0.047450276114 0.031687149863 0.015859692421 
3.4126184535e-16 
_area 1 100 double
0 0.00063108561925 0.0025042423566 0.005563466437 0.0097276336155 0.014902661456 0.020989881492 0.02788812928 0.035490079382 
0.043674530281 0.052296085627 0.061173824839 0.07008185237 0.0787461293 0.08685218382 0.094066217481 0.10006814839 0.10459090751 
0.10745773341 0.10860927373 0.10811477111 0.10616557172 0.10305349482 0.099140067856 0.0948244805 0.090518655029 0.08663633233 
0.083559577399 0.081468504442 0.080338053174 0.080090806612 0.08061038016 0.081757991152 0.083408505676 0.085459206621 0.087822014085 
0.090418708293 0.093180843288 0.096049618502 0.098973094173 0.10190320283 0.10479617167 0.10761684147 0.11035367949 0.11305035764 
0.11583411097 0.11890705665 0.12250333306 0.12684839017 0.1321162859 0.13838582123 0.14562046367 0.15366361878 0.16224083446 
0.17098493841 0.17949531582 0.18744248733 0.1947074856 0.20116989175 0.20660202938 0.21078749794 0.2137719955 0.21565494554 
0.21658159565 0.21674750999 0.21634680366 0.21552868712 0.21437332867 0.21288500111 0.21100373292 0.20863080766 0.20565736476 
0.20198767292 0.1975548781 0.19233055406 0.18632871989 0.17960313505 0.1722372249 0.16432881013 0.15597387193 0.14725336018 
0.13822557773 0.12892512196 0.11936811171 0.10956260439 0.099522579259 0.089283249986 0.078914624922 0.068529581134 0.058283194371 
0.048362347354 0.038967996266 0.030295030399 0.022515060007 0.015765824872 0.010148295074 0.0057301200125 0.0025526935006 0.00063897686385 
1.0907594237e-16 
