# vtk DataFile Version 5.1
vtk output
ASCII
DATASET POLYDATA
POINTS 100 float
0.0972464 0.0611488 -0.620604 0.0970169 0.0610018 -0.620424 0.0963109 0.0603626 -0.619852 
0.0951834 0.059251 -0.618836 0.0937206 0.0576979 -0.617296 0.0920302 0.0557411 -0.615141 
0.0902303 0.0534205 -0.612278 0.0884366 0.0507727 -0.60863 0.0867493 0.0478274 -0.604147 
0.085241 0.0446047 -0.598819 0.0839476 0.0411141 -0.592672 0.0828619 0.0373565 -0.585778 
0.0819313 0.0333269 -0.578236 0.0810604 0.0290194 -0.570172 0.0801173 0.0244325 -0.561713 
0.0789439 0.0195744 -0.552979 0.0773694 0.0144668 -0.544061 0.075225 0.00914772 -0.535014 
0.0723594 0.00367179 -0.525843 0.068653 -0.00189189 -0.516506 0.0640287 -0.00746371 -0.50691 
0.0584605 -0.0129592 -0.496929 0.0519759 -0.0182954 -0.486411 0.0446539 -0.0233973 -0.475196 
0.0366184 -0.028203 -0.463137 0.028027 -0.0326673 -0.450109 0.0190568 -0.036763 -0.43603 
0.00988858 -0.0404796 -0.420864 0.000691046 -0.0438198 -0.404622 -0.00839307 -0.0467945 -0.387365 
-0.0172577 -0.0494164 -0.369191 -0.0258396 -0.0516939 -0.350222 -0.034119 -0.0536264 -0.330592 
-0.0421156 -0.0552008 -0.310432 -0.0498784 -0.0563908 -0.289854 -0.0574734 -0.0571592 -0.268945 
-0.064967 -0.0574617 -0.247757 -0.0724108 -0.0572542 -0.226311 -0.0798266 -0.0564995 -0.204597 
-0.087195 -0.0551752 -0.182587 -0.0944486 -0.0532801 -0.160241 -0.101472 -0.0508385 -0.137523 
-0.108104 -0.0479017 -0.114412 -0.114153 -0.0445465 -0.0909132 -0.119407 -0.0408707 -0.0670607 
-0.123655 -0.0369858 -0.0429233 -0.126708 -0.033008 -0.0186011 -0.128413 -0.0290494 0.00577978 
-0.128669 -0.0252088 0.0300769 -0.127442 -0.0215651 0.0541417 -0.124765 -0.0181731 0.0778307 
-0.120737 -0.0150626 0.101016 -0.115516 -0.0122403 0.123593 -0.109303 -0.00969519 0.145486 
-0.102328 -0.00740539 0.166649 -0.0948229 -0.00534634 0.187064 -0.0870108 -0.00349839 0.206739 
-0.0790815 -0.00185293 0.225699 -0.0711812 -0.000416113 0.243981 -0.0634033 0.000790539 0.261627 
-0.0557866 0.00173278 0.278677 -0.0483195 0.00236908 0.29517 -0.0409492 0.0026582 0.311137 
-0.0335956 0.00256759 0.326605 -0.0261671 0.00208149 0.3416 -0.0185779 0.00120727 0.356149 
-0.0107628 -2.10219e-05 0.37028 -0.00268926 -0.00154255 0.384032 0.00563432 -0.00327343 0.397449 
0.0141565 -0.00511378 0.410582 0.0227853 -0.0069575 0.423484 0.0313956 -0.00870328 0.436208 
0.0398405 -0.0102656 0.448798 0.0479648 -0.0115841 0.461285 0.0556193 -0.01263 0.473678 
0.0626741 -0.0134083 0.485964 0.0690302 -0.0139563 0.4981 0.0746263 -0.0143368 0.510021 
0.0794432 -0.0146289 0.521637 0.0835026 -0.0149156 0.532843 0.0868629 -0.0152714 0.543526 
0.0896114 -0.0157505 0.553572 0.0918545 -0.0163779 0.562883 0.0937073 -0.0171445 0.571375 
0.0952829 -0.0180069 0.578992 0.0966836 -0.0188919 0.585707 0.0979938 -0.0197064 0.591526 
0.0992759 -0.020349 0.59648 0.100568 -0.020725 0.600629 0.101887 -0.02076 0.604049 
0.103225 -0.020412 0.606827 0.104564 -0.0196795 0.609056 0.105869 -0.0186049 0.610826 
0.107102 -0.0172724 0.612217 0.108223 -0.0157999 0.613299 0.109193 -0.0143272 0.61413 
0.109976 -0.0130006 0.614752 0.110546 -0.0119564 0.615196 0.110881 -0.0113051 0.61548 
0.11097 -0.011119 0.615618 
LINES 2 100
OFFSETS vtktypeint64
0 100 
CONNECTIVITY vtktypeint64
0 1 2 3 4 5 6 7 8 
9 10 11 12 13 14 15 16 17 
18 19 20 21 22 23 24 25 26 
27 28 29 30 31 32 33 34 35 
36 37 38 39 40 41 42 43 44 
45 46 47 48 49 50 51 52 53 
54 55 56 57 58 59 60 61 62 
63 64 65 66 67 68 69 70 71 
72 73 74 75 76 77 78 79 80 
81 82 83 84 85 86 87 88 89 
90 91 92 93 94 95 96 97 98 
99 
POINT_DATA 100
FIELD FieldData 3
_theta 1 100 double
0 0.031733259127 0.063466518254 0.095199777382 0.12693303651 0.15866629564 0.19039955476 0.22213281389 0.25386607302 
0.28559933214 0.31733259127 0.3490658504 0.38079910953 0.41253236865 0.44426562778 0.47599888691 0.50773214603 0.53946540516 
0.57119866429 0.60293192342 0.63466518254 0.66639844167 0.6981317008 0.72986495992 0.76159821905 0.79333147818 0.82506473731 
0.85679799643 0.88853125556 0.92026451469 0.95199777382 0.98373103294 1.0154642921 1.0471975512 1.0789308103 1.1106640695 
1.1423973286 1.1741305877 1.2058638468 1.237597106 1.2693303651 1.3010636242 1.3327968833 1.3645301425 1.3962634016 
1.4279966607 1.4597299198 1.491463179 1.5231964381 1.5549296972 1.5866629564 1.6183962155 1.6501294746 1.6818627337 
1.7135959929 1.745329252 1.7770625111 1.8087957702 1.8405290294 1.8722622885 1.9039955476 1.9357288068 1.9674620659 
1.999195325 2.0309285841 2.0626618433 2.0943951024 2.1261283615 2.1578616206 2.1895948798 2.2213281389 2.253061398 
2.2847946572 2.3165279163 2.3482611754 2.3799944345 2.4117276937 2.4434609528 2.4751942119 2.506927471 2.5386607302 
2.5703939893 2.6021272484 2.6338605076 2.6655937667 2.6973270258 2.7290602849 2.7607935441 2.7925268032 2.8242600623 
2.8559933214 2.8877265806 2.9194598397 2.9511930988 2.982926358 3.0146596171 3.0463928762 3.0781261353 3.1098593945 
3.1415926536 
_radius 1 100 double
7.803710966e-16 0.014155217697 0.028179295269 0.041948113856 0.055360893925 0.068347862046 0.080873468414 0.092934547585 0.1045535216 
0.11576748059 0.1266146004 0.13711976896 0.14728148443 0.15706209813 0.16638328646 0.17512813223 0.18315028278 0.19028942056 
0.19639103674 0.20132761014 0.20501799997 0.20744218123 0.20864923168 0.20875749048 0.20794684742 0.20644405018 0.2045026729 
0.20237995211 0.20031305756 0.19849749957 0.19707023873 0.19609960203 0.1955833046 0.19545483092 0.19559738644 0.19586378439 
0.19609996454 0.19616925958 0.19597413441 0.19547217795 0.19468379089 0.19369029214 0.19262298294 0.19164579528 0.19093577504 
0.19066571852 0.19099130238 0.1920420364 0.19391332409 0.19665723322 0.20027200351 0.20469319191 0.20979071994 0.21537500738 
0.22121255546 0.22704846985 0.23263182989 0.23773975762 0.24219694797 0.24588860904 0.24876585429 0.25084350906 0.25219108116 
0.25291832199 0.25315734281 0.25304359238 0.2526980781 0.25221297334 0.25164220326 0.25099782765 0.25025218348 0.24934494614 
0.24819361777 0.24670554272 0.2447894682 0.24236495464 0.23936854232 0.23575634044 0.23150341246 0.22660080989 0.22105128378 
0.21486461876 0.20805329873 0.20062893494 0.19259964695 0.18396842915 0.17473247876 0.16488348572 0.15440893605 0.14329448467 
0.13152736112 0.11910058544 0.10601755447 0.092296399082 0.077973478233 0.063105480213 0.047769805156 0.032063140346 0.016098354445 
7.1178654254e-16 
_area 1 100 double
0 0.00054512880496 0.0021633413517 0.0048049514023 0.0083929806378 0.012830925755 0.018011726646 0.02382626019 0.030169774574 
0.036945262441 0.044063504376 0.05143990276 0.058988235098 0.066611653455 0.074192189287 0.081581523972 0.088596945288 0.095026174961 
0.10064264969 0.10522943016 0.10860672526 0.11065675493 0.1113409669 0.1107074563 0.10888911673 0.10609459273 0.10259442211 
0.098704000639 0.09476327228 0.091110791742 0.088048899176 0.085801598284 0.084479001032 0.084067853012 0.084451504875 0.085444330058 
0.086827731992 0.088384713977 0.089932725724 0.091352385561 0.092607443264 0.093749897516 0.094902075044 0.096207710944 0.097772958711 
0.099661481331 0.10192954883 0.10460614709 0.10772135774 0.11138440859 0.11576533978 0.12102388282 0.12723589406 0.13433929009 
0.14211526129 0.15021090092 0.15819350373 0.16561718571 0.17208491902 0.17729554932 0.18107091982 0.1833629497 0.18424378556 
0.18388306357 0.18251595129 0.18040618828 0.17781030345 0.17494982743 0.17199470414 0.1690555101 0.1661801679 0.16335390516 
0.16050510641 0.15751988205 0.15426402619 0.1506064499 0.14643741837 0.14167830168 0.13628391321 0.13024081445 0.1235646654 
0.11629808238 0.10850883115 0.10028728236 0.091742131834 0.082994088117 0.074168046916 0.065385125509 0.05675681387 0.048383605943 
0.040358735329 0.03277481269 0.025729643296 0.019328257111 0.013680126651 0.0088925242871 0.0050623430746 0.0022689946002 0.00057008814585 
3.1088649324e-17 
