# vtk DataFile Version 5.1
vtk output
ASCII
DATASET POLYDATA
POINTS 100 float
0.150925 0.0494624 -0.638649 0.150853 0.0495059 -0.638342 0.150616 0.0494536 -0.637388 
0.150238 0.0492863 -0.635772 0.149758 0.0489732 -0.633474 0.149215 0.0484742 -0.630475 
0.148642 0.0477419 -0.626758 0.148056 0.0467246 -0.622321 0.147447 0.0453693 -0.617176 
0.146773 0.0436254 -0.611352 0.145958 0.0414479 -0.604896 0.144891 0.0388005 -0.597871 
0.143437 0.0356585 -0.590347 0.141443 0.0320113 -0.582396 0.138754 0.027864 -0.574081 
0.135226 0.0232385 -0.56545 0.130742 0.0181735 -0.55653 0.125225 0.0127242 -0.547318 
0.118644 0.00696029 -0.537786 0.111024 0.000964564 -0.52788 0.10244 -0.00517055 -0.517526 
0.0930145 -0.011346 -0.506636 0.0829068 -0.0174597 -0.495124 0.0722959 -0.0234105 -0.482909 
0.0613659 -0.0291014 -0.46993 0.0502887 -0.0344434 -0.456146 0.0392087 -0.0393585 -0.441548 
0.0282313 -0.0437815 -0.426149 0.0174163 -0.0476625 -0.409991 0.00677722 -0.050967 -0.393129 
-0.00371423 -0.0536768 -0.375629 -0.014117 -0.0557889 -0.357554 -0.0245061 -0.0573145 -0.338958 
-0.0349547 -0.058277 -0.319875 -0.0455163 -0.0587098 -0.300322 -0.0562075 -0.0586537 -0.280291 
-0.0669951 -0.0581544 -0.259758 -0.0777881 -0.0572598 -0.238686 -0.0884359 -0.0560175 -0.217038 
-0.0987332 -0.0544734 -0.194787 -0.108432 -0.0526695 -0.171923 -0.11726 -0.050643 -0.148469 
-0.124938 -0.0484259 -0.124478 -0.131207 -0.0460448 -0.100044 -0.135848 -0.0435211 -0.0752921 
-0.138702 -0.0408721 -0.0503758 -0.139686 -0.0381116 -0.0254666 -0.138799 -0.0352514 -0.000740382 
-0.136128 -0.0323023 0.0236351 -0.131835 -0.0292755 0.0475129 -0.126152 -0.0261836 0.0707774 
-0.119354 -0.0230418 0.0933511 -0.111746 -0.0198684 0.115197 -0.103634 -0.0166855 0.136317 
-0.0953015 -0.013519 0.156747 -0.0869947 -0.0103989 0.176546 -0.0789031 -0.00735825 0.195786 
-0.0711517 -0.00443342 0.214541 -0.0637989 -0.00166249 0.232875 -0.0568394 0.00091561 0.250838 
-0.0502149 0.00326248 0.268454 -0.0438271 0.00534177 0.285727 -0.0375552 0.0071208 0.30264 
-0.0312734 0.00857218 0.319161 -0.0248673 0.0096754 0.33525 -0.0182479 0.0104183 0.35087 
-0.0113615 0.010798 0.365994 -0.00419486 0.0108223 0.380609 0.00322464 0.0105092 0.394726 
0.0108336 0.00988738 0.408373 0.0185406 0.00899503 0.421599 0.0262373 0.00787865 0.43446 
0.0338103 0.00659101 0.447022 0.041153 0.00518872 0.459341 0.0481753 0.00372945 0.471463 
0.0548115 0.00226895 0.483409 0.0610241 0.000858074 0.495179 0.0668045 -0.000459915 0.506743 
0.0721702 -0.00165161 0.518045 0.0771591 -0.00269508 0.52901 0.0818226 -0.00358065 0.539549 
0.0862171 -0.00431083 0.54957 0.0903959 -0.00489933 0.558985 0.0944032 -0.00536918 0.56772 
0.0982683 -0.00575021 0.575722 0.102004 -0.00607593 0.582963 0.105607 -0.00638026 0.589439 
0.109059 -0.00669423 0.595172 0.11233 -0.00704301 0.600204 0.115387 -0.00744359 0.604589 
0.118195 -0.00790325 0.60839 0.120724 -0.00841893 0.61167 0.12295 -0.0089777 0.614484 
0.124862 -0.00955815 0.616878 0.126456 -0.0101326 0.618888 0.127738 -0.01067 0.620536 
0.128719 -0.011139 0.621831 0.129413 -0.0115112 0.622777 0.129832 -0.0117641 0.623373 
0.129983 -0.0118831 0.623615 
LINES 2 100
OFFSETS vtktypeint64
0 100 
CONNECTIVITY vtktypeint64
0 1 2 3 4 5 6 7 8 
9 10 11 12 13 14 15 16 17 
18 19 20 21 22 23 24 25 26 
27 28 29 30 31 32 33 34 35 
36 37 38 39 40 41 42 43 44 
45 46 47 48 49 50 51 52 53 
54 55 56 57 58 59 60 61 62 
63 64 65 66 67 68 69 70 71 
72 73 74 75 76 77 78 79 80 
81 82 83 84 85 86 87 88 89 
90 91 92 93 94 95 96 97 98 
99 
POINT_DATA 100
FIELD FieldData 3
_theta 1 100 double
0 0.031733259127 0.063466518254 0.095199777382 0.12693303651 0.15866629564 0.19039955476 0.22213281389 0.25386607302 
0.28559933214 0.31733259127 0.3490658504 0.38079910953 0.41253236865 0.44426562778 0.47599888691 0.50773214603 0.53946540516 
0.57119866429 0.60293192342 0.63466518254 0.66639844167 0.6981317008 0.72986495992 0.76159821905 0.79333147818 0.82506473731 
0.85679799643 0.88853125556 0.92026451469 0.95199777382 0.98373103294 1.0154642921 1.0471975512 1.0789308103 1.1106640695 
1.1423973286 1.1741305877 1.2058638468 1.237597106 1.2693303651 1.3010636242 1.3327968833 1.3645301425 1.3962634016 
1.4279966607 1.4597299198 1.491463179 1.5231964381 1.5549296972 1.5866629564 1.6183962155 1.6501294746 1.6818627337 
1.7135959929 1.745329252 1.7770625111 1.8087957702 1.8405290294 1.8722622885 1.9039955476 1.9357288068 1.9674620659 
1.999195325 2.0309285841 2.0626618433 2.0943951024 2.1261283615 2.1578616206 2.1895948798 2.2213281389 2.253061398 
2.2847946572 2.3165279163 2.3482611754 2.3799944345 2.4117276937 2.4434609528 2.4751942119 2.506927471 2.5386607302 
2.5703939893 2.6021272484 2.6338605076 2.6655937667 2.6973270258 2.7290602849 2.7607935441 2.7925268032 2.8242600623 
2.8559933214 2.8877265806 2.9194598397 2.9511930988 2.982926358 3.0146596171 3.0463928762 3.0781261353 3.1098593945 
3.1415926536 
_radius 1 100 double
1.383208934e-15 0.013383980628 0.026727775117 0.039995529714 0.053163239811 0.066220193028 0.079166109535 0.092004089727 0.10473042524 
0.117323099 0.1297312226 0.1418676445 0.15360652506 0.16478692067 0.17522250168 0.1847166004 0.19308096984 0.20015603001 
0.2058300604 0.21005481326 0.21285537486 0.21433274078 0.21465839981 0.21406113095 0.21280711981 0.21117534262 0.20943090354 
0.20779955582 0.20644682064 0.20546473513 0.20486821488 0.20460146524 0.20455323592 0.20457844669 0.20452307452 0.20424916128 
0.20365714209 0.20270304682 0.20140830119 0.1998602554 0.19820289319 0.19661946222 0.19531109243 0.19447640838 0.19429560335 
0.19491899499 0.19645730957 0.19897118041 0.20246019194 0.20685473544 0.21201483595 0.21773863377 0.22378046742 0.22987588783 
0.23576929852 0.24123953886 0.24611948338 0.25030720338 0.2537679162 0.25652743916 0.25865897704 0.26026574863 0.26146221078 
0.26235650569 0.26303630037 0.26355948509 0.2639503469 0.26420095912 0.26427677578 0.26412493212 0.26368360442 0.26289093272 
0.26169230395 0.26004507332 0.25792007166 0.25529967417 0.25217289935 0.24852880076 0.24434994938 0.23960780171 0.23426119042 
0.22825828571 0.22154148327 0.21405405045 0.20574713452 0.1965858854 0.18655385336 0.17565533607 0.16391580985 0.15138085205 
0.13811397593 0.12419360516 0.10970918415 0.094756358115 0.079431369661 0.063825233566 0.048018649771 0.032078766487 0.016058681587 
8.0322188969e-16 
_area 1 100 double
0 0.00047795102558 0.0019020337973 0.0042454572744 0.0074709891027 0.01153896761 0.016413362565 0.022062923847 0.028455883486 
0.035548583046 0.043270237961 0.051507396843 0.060092187361 0.068798036344 0.077345320447 0.085417572658 0.092686798336 0.098844713864 
0.10363578488 0.10688769371 0.10853485975 0.10863095461 0.10734761024 0.1049588917 0.10181384645 0.098301386426 0.094812229314 
0.091701358557 0.089249409783 0.087690905021 0.086938129541 0.086850303754 0.087265980172 0.087995364013 0.088847387134 0.089655384267 
0.090302616471 0.090752553636 0.091081646969 0.091457117881 0.092009722327 0.09273070391 0.093553626099 0.09459563674 0.095942009456 
0.097541152155 0.099651954197 0.10259722349 0.10665303236 0.11195434312 0.11846297241 0.12597854203 0.13417025642 0.14262760143 
0.1509195534 0.15864918703 0.16549538462 0.17123763253 0.17576444719 0.17906995464 0.18124600189 0.18248023949 0.18304708348 
0.18331902936 0.18351592733 0.1835009808 0.18323115573 0.18254471559 0.18132640573 0.17947686296 0.17691939483 0.17362147132 
0.16960504996 0.16494420847 0.15975251884 0.15416045317 0.14828470705 0.14219786524 0.13591527787 0.12940933211 0.12263689493 
0.11556034772 0.10815806661 0.10042859613 0.092392651438 0.084094754799 0.075603514163 0.067008913965 0.058417125684 0.049945439637 
0.041719631434 0.033873529441 0.026547907245 0.019885670168 0.014023000547 0.0090792379807 0.0051492862942 0.002300930127 0.00057696563448 
5.7330491944e-17 
