# vtk DataFile Version 5.1
vtk output
ASCII
DATASET POLYDATA
POINTS 100 float
0.0426756 0.0563321 -0.630314 0.042774 0.0563153 -0.630334 0.043032 0.0560593 -0.630377 
0.0434567 0.0555416 -0.630357 0.0440577 0.054727 -0.630147 0.044844 0.0535718 -0.629586 
0.0458209 0.0520298 -0.628502 0.0469848 0.0500577 -0.626727 0.04832 0.0476211 -0.624115 
0.0497945 0.0446996 -0.620558 0.0513576 0.0412897 -0.615992 0.0529385 0.0374072 -0.6104 
0.0544465 0.0330862 -0.603812 0.055774 0.0283776 -0.596292 0.0568009 0.0233452 -0.587931 
0.0574005 0.0180609 -0.578828 0.0574483 0.0125999 -0.569077 0.05683 0.00703528 -0.558756 
0.055451 0.00143427 -0.547917 0.0532438 -0.00414486 -0.536579 0.0501749 -0.00965402 -0.524735 
0.0462482 -0.0150549 -0.51235 0.0415059 -0.0203172 -0.499376 0.0360251 -0.0254154 -0.485757 
0.0299119 -0.0303253 -0.471446 0.0232921 -0.0350202 -0.456409 0.0162995 -0.0394675 -0.440636 
0.00906351 -0.043627 -0.424143 0.00169742 -0.0474503 -0.406968 -0.00571202 -0.0508817 -0.389167 
-0.0131115 -0.0538614 -0.370808 -0.020484 -0.0563292 -0.351956 -0.0278468 -0.0582304 -0.332668 
-0.0352449 -0.0595207 -0.312979 -0.0427394 -0.0601716 -0.292902 -0.0503937 -0.0601746 -0.272423 
-0.0582574 -0.0595435 -0.251508 -0.06635 -0.0583153 -0.230106 -0.074648 -0.0565481 -0.208163 
-0.0830746 -0.0543178 -0.185634 -0.0914958 -0.0517127 -0.162494 -0.0997225 -0.0488266 -0.13875 
-0.107519 -0.045752 -0.114446 -0.11462 -0.0425732 -0.0896697 -0.120746 -0.0393609 -0.0645454 
-0.12563 -0.0361676 -0.0392298 -0.129039 -0.0330263 -0.0138999 -0.130795 -0.0299509 0.0112611 
-0.130795 -0.0269386 0.0360783 -0.129019 -0.0239752 0.060399 -0.125533 -0.0210404 0.0841034 
-0.120489 -0.0181155 0.107112 -0.114107 -0.0151888 0.129386 -0.106662 -0.012262 0.150927 
-0.0984539 -0.00935341 0.171767 -0.0897889 -0.00649997 0.191959 -0.0809486 -0.003756 0.211565 
-0.0721704 -0.00119019 0.230643 -0.0636301 0.00111989 0.249239 -0.0554317 0.00309467 0.267376 
-0.047606 0.00466028 0.285059 -0.0401158 0.00575616 0.302267 -0.032869 0.00634176 0.318968 
-0.0257363 0.00640154 0.335123 -0.0185727 0.00594772 0.350695 -0.0112389 0.00502044 0.365664 
-0.00362115 0.00368522 0.380031 0.00435295 0.00202809 0.393824 0.0127046 0.000148748 0.407097 
0.0214002 -0.00184746 0.419928 0.0303551 -0.00385791 0.432411 0.0394429 -0.00579069 0.444643 
0.0485096 -0.00757117 0.456713 0.0573908 -0.00914679 0.468688 0.0659297 -0.0104895 0.480606 
0.0739933 -0.0115955 0.492466 0.081486 -0.0124829 0.504226 0.0883585 -0.0131876 0.515809 
0.0946105 -0.0137564 0.52711 0.100289 -0.0142413 0.538005 0.105481 -0.0146927 0.548368 
0.110303 -0.0151531 0.558086 0.114885 -0.0156532 0.567069 0.119359 -0.0162087 0.575263 
0.123842 -0.0168204 0.582654 0.128429 -0.0174746 0.589269 0.133178 -0.018147 0.595169 
0.13811 -0.018806 0.600441 0.143207 -0.0194185 0.605187 0.148415 -0.0199541 0.609507 
0.153648 -0.0203896 0.613486 0.158796 -0.020712 0.617185 0.163737 -0.0209202 0.620634 
0.168342 -0.0210249 0.623827 0.172482 -0.0210471 0.626724 0.176043 -0.0210147 0.629265 
0.178921 -0.0209591 0.631373 0.181033 -0.0209106 0.632968 0.182319 -0.0208944 0.633985 
0.182742 -0.0209272 0.634375 
LINES 2 100
OFFSETS vtktypeint64
0 100 
CONNECTIVITY vtktypeint64
0 1 2 3 4 5 6 7 8 
9 10 11 12 13 14 15 16 17 
18 19 20 21 22 23 24 25 26 
27 28 29 30 31 32 33 34 35 
36 37 38 39 40 41 42 43 44 
45 46 47 48 49 50 51 52 53 
54 55 56 57 58 59 60 61 62 
63 64 65 66 67 68 69 70 71 
72 73 74 75 76 77 78 79 80 
81 82 83 84 85 86 87 88 89 
90 91 92 93 94 95 96 97 98 
99 
POINT_DATA 100
FIELD FieldData 3
_theta 1 100 double
0 0.031733259127 0.063466518254 0.095199777382 0.12693303651 0.15866629564 0.19039955476 0.22213281389 0.25386607302 
0.28559933214 0.31733259127 0.3490658504 0.38079910953 0.41253236865 0.44426562778 0.47599888691 0.50773214603 0.53946540516 
0.57119866429 0.60293192342 0.63466518254 0.66639844167 0.6981317008 0.72986495992 0.76159821905 0.79333147818 0.82506473731 
0.85679799643 0.88853125556 0.92026451469 0.95199777382 0.98373103294 1.0154642921 1.0471975512 1.0789308103 1.1106640695 
1.1423973286 1.1741305877 1.2058638468 1.237597106 1.2693303651 1.3010636242 1.3327968833 1.3645301425 1.3962634016 
1.4279966607 1.4597299198 1.491463179 1.5231964381 1.5549296972 1.5866629564 1.6183962155 1.6501294746 1.6818627337 
1.7135959929 1.745329252 1.7770625111 1.8087957702 1.8405290294 1.8722622885 1.9039955476 1.9357288068 1.9674620659 
1.999195325 2.0309285841 2.0626618433 2.0943951024 2.1261283615 2.1578616206 2.1895948798 2.2213281389 2.253061398 
2.2847946572 2.3165279163 2.3482611754 2.3799944345 2.4117276937 2.4434609528 2.4751942119 2.506927471 2.5386607302 
2.5703939893 2.6021272484 2.6338605076 2.6655937667 2.6973270258 2.7290602849 2.7607935441 2.7925268032 2.8242600623 
2.8559933214 2.8877265806 2.9194598397 2.9511930988 2.982926358 3.0146596171 3.0463928762 3.0781261353 3.1098593945 
3.1415926536 
_radius 1 100 double
4.5954131305e-16 0.014029095112 0.02800261052 0.041853627071 0.055513693779 0.068913645497 0.081985227804 0.094663083087 0.10688643423 
0.11859973342 0.12975171018 0.14029276289 0.15017144224 0.15933155514 0.16771170129 0.17524853967 0.18188390142 0.18757454299 
0.19230243394 0.19608326923 0.19897130628 0.20105939388 0.20247392792 0.20336527313 0.20389484292 0.20422047664 0.20448194282 
0.20478828785 0.20520838864 0.20576561134 0.20643709902 0.20715795275 0.20783031404 0.20833693992 0.20855825881 0.20839126919 
0.20776819098 0.20667255947 0.20515040153 0.20331405817 0.20133586784 0.19942903557 0.1978160497 0.19669205754 0.19619643725 
0.19640263026 0.19732591655 0.19894105991 0.20120067503 0.20404796483 0.2074213371 0.21125197652 0.21545791805 0.21993913517 
0.22457745328 0.22924285655 0.23380483663 0.23814528456 0.24216905769 0.24580961337 0.24902906417 0.25181374676 0.25416737507 
0.25610393536 0.25764185975 0.25880007069 0.25959564744 0.26004241943 0.26014982 0.25992172297 0.25935548708 0.25844173133 
0.25716519511 0.25550638757 0.25344296351 0.25094946027 0.24799459043 0.24453658451 0.24051848911 0.23586607485 0.23049061719 
0.2242973603 0.2171985554 0.20912835271 0.20005606839 0.1899945815 0.17900168476 0.1671738959 0.15463426616 0.14151752486 
0.12795650092 0.11407253398 0.099970270354 0.085735525659 0.071434694791 0.057114951481 0.042805212532 0.028518094096 0.014252968319 
2.8040873718e-16 
_area 1 100 double
0 0.00052699248621 0.0021080427997 0.0047406907133 0.0084121524942 0.013087792379 0.018699376032 0.02513835485 0.032258318852 
0.039885911765 0.047833843398 0.055908544857 0.063910326312 0.071630357062 0.078850897423 0.085353486658 0.090936412276 0.095438511113 
0.098762567923 0.10089045513 0.10188483401 0.10187769147 0.10105090885 0.099614204336 0.097783709432 0.095773273625 0.093788135738 
0.092130082867 0.090847905255 0.090024183861 0.089742449049 0.09003544858 0.090783930778 0.091707229243 0.092508629061 0.092996338506 
0.093128289197 0.093003831362 0.092820574686 0.09281732015 0.093222043719 0.094197484389 0.095784267417 0.097897271289 0.10038449659 
0.10308366482 0.10583699783 0.10872255959 0.11212178925 0.11578690786 0.11963178139 0.12381077477 0.12846761382 0.13367094959 
0.13938824176 0.1454902799 0.15177465733 0.15799920974 0.16391655821 0.16930105237 0.17396507888 0.17776881971 0.18062933381 
0.18253290235 0.18356009057 0.18394756571 0.18398323479 0.18366478895 0.18292796492 0.18175503221 0.18013713859 0.17804988143 
0.17544581633 0.17226341334 0.16844797048 0.16397388147 0.15885541974 0.15313741876 0.14686762864 0.14006540951 0.13270792743 
0.1247459764 0.11614279614 0.10691709268 0.097171039182 0.087091027815 0.07691972997 0.066909613535 0.057276779901 0.04817473548 
0.039696747053 0.031898438071 0.024823257868 0.018518363814 0.013038925928 0.0084451499331 0.0047967247643 0.0021472232526 0.00053917607774 
3.036443544e-17 
