# vtk DataFile Version 5.1
vtk output
ASCII
DATASET POLYDATA
POINTS 100 float
0.139645 0.0777465 -0.684783 0.139902 0.0776398 -0.684857 0.140686 0.0771323 -0.685068 
0.141917 0.076257 -0.685296 0.14347 0.0750627 -0.685358 0.145182 0.0736049 -0.685027 
0.146874 0.0719343 -0.684058 0.148357 0.070087 -0.682214 0.149451 0.068075 -0.679294 
0.149996 0.0658814 -0.675149 0.14986 0.0634599 -0.669699 0.148948 0.0607383 -0.662936 
0.147198 0.057628 -0.654919 0.144582 0.0540355 -0.645764 0.1411 0.0498771 -0.635625 
0.136774 0.0450926 -0.624673 0.131638 0.0396576 -0.61307 0.125737 0.0335922 -0.600955 
0.119114 0.0269639 -0.588424 0.111815 0.0198862 -0.575522 0.103886 0.0125105 -0.562245 
0.0953697 0.00501409 -0.54854 0.0863175 -0.00241507 -0.53432 0.0767862 -0.00959472 -0.519481 
0.0668432 -0.0163639 -0.503915 0.0565685 -0.0225953 -0.48753 0.0460537 -0.0282041 -0.470263 
0.0353997 -0.03315 -0.452087 0.0247121 -0.0374355 -0.433014 0.0140952 -0.0410977 -0.413095 
0.00364546 -0.0441973 -0.392408 -0.00655511 -0.0468052 -0.371047 -0.0164431 -0.0489892 -0.349113 
-0.0259759 -0.0508027 -0.326695 -0.0351313 -0.0522768 -0.303864 -0.0439028 -0.0534166 -0.280666 
-0.0522935 -0.0542032 -0.25712 -0.0603075 -0.0545996 -0.23322 -0.06794 -0.0545603 -0.208947 
-0.0751694 -0.0540429 -0.184276 -0.0819503 -0.0530198 -0.15919 -0.0882108 -0.0514879 -0.133691 
-0.0938526 -0.0494754 -0.107809 -0.0987566 -0.0470436 -0.0816062 -0.102792 -0.0442841 -0.0551782 
-0.105827 -0.0413114 -0.0286481 -0.107745 -0.038252 -0.00215785 -0.108454 -0.035231 0.0241432 
-0.107904 -0.032359 0.0501119 -0.106088 -0.0297205 0.0756234 -0.10305 -0.0273654 0.100581 
-0.0988825 -0.0253057 0.124924 -0.0937173 -0.0235167 0.148624 -0.087716 -0.0219437 0.171688 
-0.0810546 -0.0205122 0.194148 -0.0739075 -0.019141 0.216047 -0.066433 -0.0177563 0.237434 
-0.0587607 -0.0163035 0.258348 -0.0509837 -0.0147571 0.278811 -0.0431561 -0.0131251 0.298823 
-0.0352954 -0.011449 0.318362 -0.0273914 -0.00979821 0.337386 -0.0194177 -0.00826005 0.355844 
-0.0113459 -0.00692726 0.373685 -0.00316002 -0.00588398 0.390871 0.00513091 -0.00519289 0.407385 
0.0134848 -0.00488517 0.423241 0.0218229 -0.00495494 0.438487 0.0300328 -0.00535883 0.453201 
0.0379759 -0.00602108 0.467486 0.0455013 -0.00684333 0.481458 0.0524612 -0.0077178 0.495231 
0.0587281 -0.008542 0.508901 0.0642106 -0.00923289 0.52253 0.0688654 -0.00973834 0.536138 
0.0727045 -0.0100443 0.549694 0.0757959 -0.0101767 0.563116 0.0782576 -0.010197 0.576276 
0.0802463 -0.0101934 0.589015 0.0819406 -0.0102671 0.601158 0.0835226 -0.0105171 0.612532 
0.0851584 -0.0110247 0.622988 0.0869815 -0.0118399 0.632414 0.0890796 -0.0129729 0.640749 
0.0914878 -0.0143901 0.647992 0.0941879 -0.0160165 0.654195 0.0971138 -0.0177448 0.659462 
0.100163 -0.0194477 0.663932 0.103213 -0.0209949 0.667762 0.106133 -0.0222694 0.671109 
0.108808 -0.0231835 0.674112 0.111146 -0.0236904 0.676879 0.113088 -0.0237905 0.679475 
0.114617 -0.0235315 0.681918 0.11575 -0.0230023 0.684185 0.116531 -0.0223209 0.686218 
0.117027 -0.0216187 0.687939 0.117305 -0.0210229 0.689265 0.117428 -0.0206392 0.690123 
0.117438 -0.0205375 0.690463 
LINES 2 100
OFFSETS vtktypeint64
0 100 
CONNECTIVITY vtktypeint64
0 1 2 3 4 5 6 7 8 
9 10 11 12 13 14 15 16 17 
18 19 20 21 22 23 24 25 26 
27 28 29 30 31 32 33 34 35 
36 37 38 39 40 41 42 43 44 
45 46 47 48 49 50 51 52 53 
54 55 56 57 58 59 60 61 62 
63 64 65 66 67 68 69 70 71 
72 73 74 75 76 77 78 79 80 
81 82 83 84 85 86 87 88 89 
90 91 92 93 94 95 96 97 98 
99 
POINT_DATA 100
FIELD FieldData 3
_theta 1 100 double
0 0.031733259127 0.063466518254 0.095199777382 0.12693303651 0.15866629564 0.19039955476 0.22213281389 0.25386607302 
0.28559933214 0.31733259127 0.3490658504 0.38079910953 0.41253236865 0.44426562778 0.47599888691 0.50773214603 0.53946540516 
0.57119866429 0.60293192342 0.63466518254 0.66639844167 0.6981317008 0.72986495992 0.76159821905 0.79333147818 0.82506473731 
0.85679799643 0.88853125556 0.92026451469 0.95199777382 0.98373103294 1.0154642921 1.0471975512 1.0789308103 1.1106640695 
1.1423973286 1.1741305877 1.2058638468 1.237597106 1.2693303651 1.3010636242 1.3327968833 1.3645301425 1.3962634016 
1.4279966607 1.4597299198 1.491463179 1.5231964381 1.5549296972 1.5866629564 1.6183962155 1.6501294746 1.6818627337 
1.7135959929 1.745329252 1.7770625111 1.8087957702 1.8405290294 1.8722622885 1.9039955476 1.9357288068 1.9674620659 
1.999195325 2.0309285841 2.0626618433 2.0943951024 2.1261283615 2.1578616206 2.1895948798 2.2213281389 2.253061398 
2.2847946572 2.3165279163 2.3482611754 2.3799944345 2.4117276937 2.4434609528 2.4751942119 2.506927471 2.5386607302 
2.5703939893 2.6021272484 2.6338605076 2.6655937667 2.6973270258 2.7290602849 2.7607935441 2.7925268032 2.8242600623 
2.8559933214 2.8877265806 2.9194598397 2.9511930988 2.982926358 3.0146596171 3.0463928762 3.0781261353 3.1098593945 
3.1415926536 
_radius 1 100 double
1.3541336345e-15 0.015089453451 0.030113643977 0.044999523219 0.059669410505 0.074040858261 0.0880280896 0.10154447048 0.11450514013 
0.1268289729 0.13843946998 0.14926478431 0.15923758807 0.16829568845 0.17638413083 0.18345909221 0.18949332585 0.19448242793 
0.19845086517 0.20145656496 0.2035929065 0.20498713592 0.20579456527 0.20618844314 0.2063461328 0.20643314463 0.20658743662 
0.20690685709 0.20744224843 0.20819738473 0.20913495205 0.21018612159 0.21126086525 0.2122572767 0.21307005308 0.21359961998 
0.21376315366 0.21350716741 0.21281960761 0.21173864395 0.21035573293 0.20881167845 0.20728588005 0.20598039987 0.20510146705 
0.20484115925 0.20536122991 0.20677992414 0.20916186578 0.2125110357 0.21676730757 0.22180749371 0.22745190098 0.2334767378 
0.23963150426 0.24565928913 0.25131726092 0.25639478619 0.2607273403 0.26420531454 0.26677764049 0.26845067522 0.26928300204 
0.2693768034 0.26886641603 0.26790473343 0.26664834295 0.26524262671 0.26380836487 0.26243145286 0.2611570004 0.2599882692 
0.25888980042 0.25779310082 0.25660290108 0.25520253982 0.25345823739 0.2512232669 0.24834363257 0.24466649505 0.24005140819 
0.23438301288 0.22758281933 0.2196175044 0.21050177526 0.20029504278 0.18909253636 0.17701271715 0.16418359355 0.15073058252 
0.13676785328 0.12239388246 0.10769072473 0.092725725271 0.077554259269 0.062222443108 0.046769324313 0.031228546891 0.015629752966 
1.4949383082e-16 
_area 1 100 double
0 0.00059916759648 0.0023928804171 0.0053661754503 0.0094832760733 0.014675527907 0.020832176276 0.02779830923 0.035380987802 
0.04336115465 0.051507292063 0.059587365626 0.067377563672 0.074668418592 0.081269812088 0.087015896112 0.09177027387 0.095431959216 
0.09794312916 0.099299164952 0.099559748662 0.098858137528 0.09740543184 0.095487310249 0.093449594137 0.091661721877 0.090442080136 
0.089974295541 0.090296525784 0.091351844226 0.093031594296 0.095201753693 0.097714120631 0.1004030336 0.1030812037 0.10554992703 
0.10762590054 0.10917627369 0.11015047145 0.11059647248 0.11065147035 0.11050785339 0.11036903936 0.11041208757 0.11078357072 
0.11162807124 0.11311140514 0.11542472066 0.11876368538 0.12331212304 0.12925523084 0.13655236011 0.14488375112 0.15386355293 
0.16307397704 0.17208594979 0.1804996232 0.187983258 0.19429759756 0.1993006541 0.20293728009 0.20522372608 0.20623473971 
0.20609377417 0.20496296383 0.2030298296 0.20048967382 0.19752508941 0.19428633709 0.19087754461 0.18735312245 0.18372632171 
0.17998750114 0.17612445788 0.17213384918 0.16801449975 0.16374179783 0.15923531988 0.15434172597 0.1488513121 0.14254709724 
0.13526515823 0.12694164297 0.11763311291 0.10750889919 0.096821219096 0.08586275778 0.07492359925 0.064258476615 0.054070476348 
0.04451084274 0.035689796506 0.027691555453 0.020587454395 0.014443470751 0.0093216439587 0.0052774670006 0.0023562479448 0.00059064907931 
2.602085214e-18 
