# vtk DataFile Version 5.1
vtk output
ASCII
DATASET POLYDATA
POINTS 100 float
0.130448 0.0620415 -0.657525 0.130388 0.0621895 -0.657553 0.130246 0.0624533 -0.657651 
0.129976 0.0627912 -0.657718 0.12951 0.0631363 -0.6576 0.128764 0.0633999 -0.657104 
0.127645 0.0634766 -0.656026 0.12607 0.06325 -0.654166 0.123965 0.0625991 -0.651351 
0.12128 0.061406 -0.647456 0.11799 0.0595627 -0.642409 0.114098 0.0569792 -0.636195 
0.109629 0.0535893 -0.628853 0.104633 0.0493571 -0.620467 0.0991699 0.0442808 -0.611147 
0.0933078 0.0383952 -0.601013 0.0871134 0.0317724 -0.590179 0.0806468 0.02452 -0.578737 
0.0739577 0.0167773 -0.566747 0.0670839 0.00870939 -0.554234 0.0600521 0.000499405 -0.541187 
0.0528803 -0.00765999 -0.527571 0.0455817 -0.0155763 -0.513335 0.038168 -0.023067 -0.498424 
0.0306523 -0.029968 -0.4828 0.0230509 -0.0361422 -0.466445 0.0153825 -0.041485 -0.44937 
0.00766572 -0.0459284 -0.431621 -8.39545e-05 -0.0494425 -0.413268 -0.00785896 -0.0520347 -0.394402 
-0.0156632 -0.0537465 -0.375115 -0.0235144 -0.054648 -0.355493 -0.0314437 -0.0548314 -0.335595 
-0.0394922 -0.0544034 -0.315446 -0.0477047 -0.053477 -0.295029 -0.0561192 -0.0521641 -0.274283 
-0.0647558 -0.0505683 -0.253113 -0.0736043 -0.0487799 -0.2314 -0.082613 -0.0468719 -0.209018 
-0.0916807 -0.0448978 -0.185854 -0.100652 -0.0428922 -0.161827 -0.109322 -0.0408717 -0.136904 
-0.117441 -0.0388382 -0.111115 -0.12473 -0.0367828 -0.0845544 -0.130903 -0.0346902 -0.0573826 
-0.135686 -0.0325434 -0.0298139 -0.138839 -0.0303275 -0.00210148 -0.140187 -0.0280337 0.0254825 
-0.139625 -0.0256618 0.0526699 -0.137141 -0.0232213 0.0792175 -0.132813 -0.020732 0.104926 
-0.126807 -0.0182232 0.129654 -0.119362 -0.0157321 0.15332 -0.11077 -0.0133017 0.17591 
-0.101355 -0.010978 0.197459 -0.0914386 -0.00880707 0.218048 -0.0813197 -0.00683281 0.237781 
-0.0712484 -0.0050943 0.256771 -0.0614107 -0.00362403 0.275123 -0.0519193 -0.00244657 0.292921 
-0.0428134 -0.00157783 0.31022 -0.0340668 -0.00102483 0.327047 -0.0256033 -0.000785983 0.3434 
-0.0173163 -0.000851695 0.359261 -0.00909097 -0.0012053 0.374603 -0.000826075 -0.00182412 0.389406 
0.00754844 -0.00268065 0.403664 0.0160587 -0.00374372 0.417397 0.0246816 -0.00497971 0.430651 
0.0333466 -0.0063536 0.443498 0.0419444 -0.00783009 0.456029 0.0503415 -0.00937461 0.468344 
0.0583973 -0.0109543 0.480535 0.0659825 -0.0125387 0.492678 0.0729953 -0.0141011 0.504815 
0.0793741 -0.0156186 0.516946 0.0851037 -0.0170733 0.529029 0.090216 -0.0184524 0.540976 
0.0947834 -0.0197483 0.552663 0.0989082 -0.0209588 0.563942 0.102706 -0.0220866 0.574655 
0.106292 -0.0231388 0.584654 0.109762 -0.0241256 0.593813 0.113183 -0.0250597 0.602043 
0.116583 -0.0259547 0.609301 0.119951 -0.0268236 0.615591 0.12324 -0.0276779 0.620966 
0.126377 -0.0285259 0.625513 0.129274 -0.0293725 0.629348 0.131845 -0.0302178 0.632596 
0.134019 -0.0310574 0.635378 0.13575 -0.031882 0.637802 0.137029 -0.0326788 0.639945 
0.13788 -0.0334316 0.641858 0.138364 -0.0341223 0.643555 0.138563 -0.0347325 0.645028 
0.138574 -0.0352444 0.646247 0.138492 -0.0356426 0.647173 0.138397 -0.0359152 0.64777 
0.138342 -0.0360547 0.648011 
LINES 2 100
OFFSETS vtktypeint64
0 100 
CONNECTIVITY vtktypeint64
0 1 2 3 4 5 6 7 8 
9 10 11 12 13 14 15 16 17 
18 19 20 21 22 23 24 25 26 
27 28 29 30 31 32 33 34 35 
36 37 38 39 40 41 42 43 44 
45 46 47 48 49 50 51 52 53 
54 55 56 57 58 59 60 61 62 
63 64 65 66 67 68 69 70 71 
72 73 74 75 76 77 78 79 80 
81 82 83 84 85 86 87 88 89 
90 91 92 93 94 95 96 97 98 
99 
POINT_DATA 100
FIELD FieldData 3
_theta 1 100 double
0 0.031733259127 0.063466518254 0.095199777382 0.12693303651 0.15866629564 0.19039955476 0.22213281389 0.25386607302 
0.28559933214 0.31733259127 0.3490658504 0.38079910953 0.41253236865 0.44426562778 0.47599888691 0.50773214603 0.53946540516 
0.57119866429 0.60293192342 0.63466518254 0.66639844167 0.6981317008 0.72986495992 0.76159821905 0.79333147818 0.82506473731 
0.85679799643 0.88853125556 0.92026451469 0.95199777382 0.98373103294 1.0154642921 1.0471975512 1.0789308103 1.1106640695 
1.1423973286 1.1741305877 1.2058638468 1.237597106 1.2693303651 1.3010636242 1.3327968833 1.3645301425 1.3962634016 
1.4279966607 1.4597299198 1.491463179 1.5231964381 1.5549296972 1.5866629564 1.6183962155 1.6501294746 1.6818627337 
1.7135959929 1.745329252 1.7770625111 1.8087957702 1.8405290294 1.8722622885 1.9039955476 1.9357288068 1.9674620659 
1.999195325 2.0309285841 2.0626618433 2.0943951024 2.1261283615 2.1578616206 2.1895948798 2.2213281389 2.253061398 
2.2847946572 2.3165279163 2.3482611754 2.3799944345 2.4117276937 2.4434609528 2.4751942119 2.506927471 2.5386607302 
2.5703939893 2.6021272484 2.6338605076 2.6655937667 2.6973270258 2.7290602849 2.7607935441 2.7925268032 2.8242600623 
2.8559933214 2.8877265806 2.9194598397 2.9511930988 2.982926358 3.0146596171 3.0463928762 3.0781261353 3.1098593945 
3.1415926536 
_radius 1 100 double
1.7235854894e-16 0.014629494039 0.029115625731 0.04331937244 0.057116005002 0.070397270481 0.083069556168 0.095049398029 0.10625864444 
0.1166216379 0.1260659392 0.13452676969 0.14195404551 0.14832009348 0.1536260728 0.15790568845 0.16122567525 0.16368339083 
0.16540237253 0.16652674544 0.16721498716 0.16763301484 0.16794618423 0.16830983136 0.16885850521 0.16969484369 0.17087975014 
0.17242575297 0.17429504307 0.17640284902 0.17862579206 0.18081385988 0.18280397463 0.18443348361 0.18555357312 0.18604402724 
0.18582957951 0.18489510258 0.18329524267 0.18115486816 0.17865877439 0.17603183511 0.17351400754 0.17133703483 0.16970899928 
0.16880815762 0.16878161455 0.16974191539 0.17175738809 0.17483794056 0.17892288168 0.18387776734 0.189503342 0.19555483483 
0.20176723903 0.20788186896 0.21367015789 0.21895164158 0.2236042992 0.2275668005 0.23083349486 0.23344392231 0.23546907876 
0.23699662803 0.23811687487 0.23891082051 0.23944117095 0.23974679268 0.2398407723 0.23971190787 0.23932913457 0.23864805177 
0.23761837272 0.23619085059 0.23432222757 0.23197716466 0.22912692133 0.22574553762 0.2218050864 0.21727190424 0.21210542978 
0.20626045633 0.19969252279 0.19236518229 0.18425729422 0.17536842839 0.16572096847 0.15535847358 0.14434105913 0.13273949161 
0.12062977557 0.10808913529 0.095193161568 0.082013404966 0.068615031567 0.055054765415 0.041379657622 0.027627104057 0.013826176248 
1.6729395219e-15 
_area 1 100 double
0 0.0005192320806 0.0020720105284 0.0046412617165 0.0081911498464 0.012657392836 0.017936759851 0.023878976993 0.030284652164 
0.036912085223 0.043493762816 0.049760499391 0.055468713971 0.060425269473 0.064504963547 0.067657620876 0.069903947341 0.071321567427 
0.072025442223 0.072149594513 0.07183663029 0.071236851774 0.070516490205 0.069882339453 0.069553499426 0.069611618383 0.070063996647 
0.070904055623 0.072108888595 0.073639123587 0.075440641794 0.077444707283 0.079560014844 0.081659076915 0.083572802177 0.085103318348 
0.08608585951 0.086454448604 0.086275741304 0.085731805424 0.085044407643 0.084385338149 0.083844870344 0.083460849662 0.083266962652 
0.083338254332 0.083819753189 0.08491891022 0.08685087678 0.089771416413 0.093747601169 0.098757136881 0.10468824523 0.11133754017 
0.11841694076 0.12557992578 0.13246676684 0.13875594403 0.14420598997 0.14867829596 0.1521399344 0.15465173188 0.15634895793 
0.15741972272 0.15807637407 0.15849876228 0.1587599201 0.15881697005 0.15856823622 0.15790111432 0.15671637289 0.15494215388 
0.1525428014 0.14952249075 0.14592216935 0.1418088978 0.13725855796 0.13233532668 0.12707340351 0.12146716369 0.11547441945 
0.1090337822 0.10209214615 0.094634004178 0.086702831672 0.078406913749 0.069906708812 0.061386818568 0.053022337293 0.044954716674 
0.037289274945 0.030111201844 0.023503590129 0.017554940697 0.012355772934 0.0079902735063 0.0045286053777 0.0020228818421 0.00050716792808 
4.0432525494e-17 
