# vtk DataFile Version 5.1
vtk output
ASCII
DATASET POLYDATA
POINTS 100 float
0.109609 0.0678522 -0.60641 0.109733 0.0678324 -0.606437 0.110089 0.0675946 -0.606466 
0.110643 0.0671211 -0.606419 0.111347 0.066384 -0.606179 0.112131 0.0653489 -0.605599 
0.112915 0.0639782 -0.604521 0.113609 0.0622357 -0.602789 0.114116 0.0600902 -0.600267 
0.114341 0.0575192 -0.596851 0.114187 0.0545113 -0.592477 0.113562 0.0510679 -0.587126 
0.112384 0.0472033 -0.580821 0.110575 0.0429436 -0.57362 0.108068 0.038325 -0.565607 
0.10481 0.033391 -0.556879 0.100757 0.0281892 -0.547533 0.0958822 0.0227688 -0.537652 
0.0901735 0.0171777 -0.527302 0.0836375 0.011461 -0.516519 0.0763002 0.00566056 -0.505314 
0.0682085 -0.000185273 -0.493672 0.0594298 -0.00604009 -0.481561 0.0500512 -0.0118677 -0.468936 
0.0401773 -0.0176297 -0.455753 0.0299258 -0.0232836 -0.441972 0.0194223 -0.0287807 -0.427568 
0.00879445 -0.0340652 -0.412532 -0.00183539 -0.0390746 -0.396871 -0.0123562 -0.0437404 -0.380605 
-0.0226743 -0.0479912 -0.363764 -0.0327171 -0.0517558 -0.346378 -0.0424351 -0.0549677 -0.328471 
-0.0518014 -0.0575694 -0.310056 -0.0608081 -0.0595168 -0.291129 -0.0694609 -0.060783 -0.271672 
-0.0777713 -0.0613606 -0.251651 -0.0857485 -0.0612627 -0.231028 -0.0933903 -0.060523 -0.209764 
-0.100676 -0.0591928 -0.187835 -0.107559 -0.0573379 -0.165238 -0.113968 -0.0550341 -0.142001 
-0.119805 -0.0523614 -0.118191 -0.124947 -0.0493988 -0.0939132 -0.129259 -0.0462195 -0.0693103 
-0.132602 -0.0428868 -0.0445558 -0.134844 -0.0394515 -0.0198427 -0.135874 -0.035951 0.00462919 
-0.13561 -0.0324098 0.0286685 -0.134016 -0.0288419 0.052106 -0.131101 -0.0252542 0.0748071 
-0.126924 -0.0216507 0.0966801 -0.121592 -0.0180368 0.117681 -0.115253 -0.0144239 0.137814 
-0.10809 -0.0108318 0.157122 -0.100299 -0.00729159 0.175685 -0.0920867 -0.00384531 0.193602 
-0.0836463 -0.000545141 0.210981 -0.0751507 0.00254954 0.227926 -0.0667405 0.00537612 0.244526 
-0.0585171 0.00787349 0.26085 -0.0505405 0.00998715 0.276938 -0.0428308 0.0116738 0.292806 
-0.0353732 0.0129054 0.308449 -0.0281268 0.0136713 0.323844 -0.021034 0.0139795 0.338962 
-0.0140324 0.0138557 0.353774 -0.0070645 0.013341 0.36826 -8.70773e-05 0.0124881 0.382409 
0.0069226 0.0113569 0.39623 0.0139633 0.0100091 0.409741 0.0210095 0.0085039 0.422974 
0.0280141 0.00689362 0.435962 0.0349137 0.00522098 0.448734 0.0416353 0.00351762 0.461308 
0.0481038 0.00180422 0.473682 0.0542497 9.21107e-05 0.485834 0.0600152 -0.00161401 0.497711 
0.0653593 -0.0033125 0.509242 0.0702605 -0.00500104 0.520332 0.0747172 -0.00667317 0.530877 
0.0787462 -0.00831564 0.540767 0.0823796 -0.009907 0.549901 0.0856603 -0.0114176 0.558191 
0.0886368 -0.0128113 0.565576 0.0913581 -0.0140482 0.57202 0.0938692 -0.0150889 0.577521 
0.0962076 -0.0158989 0.582109 0.0984006 -0.0164533 0.585839 0.100464 -0.0167407 0.588793 
0.102404 -0.0167662 0.591067 0.104214 -0.0165528 0.592764 0.105882 -0.0161405 0.593993 
0.107389 -0.0155846 0.594852 0.108711 -0.014951 0.595435 0.109826 -0.0143111 0.595818 
0.110712 -0.0137356 0.596066 0.111349 -0.0132881 0.596227 0.111724 -0.013019 0.596333 
0.111827 -0.0129612 0.596404 
LINES 2 100
OFFSETS vtktypeint64
0 100 
CONNECTIVITY vtktypeint64
0 1 2 3 4 5 6 7 8 
9 10 11 12 13 14 15 16 17 
18 19 20 21 22 23 24 25 26 
27 28 29 30 31 32 33 34 35 
36 37 38 39 40 41 42 43 44 
45 46 47 48 49 50 51 52 53 
54 55 56 57 58 59 60 61 62 
63 64 65 66 67 68 69 70 71 
72 73 74 75 76 77 78 79 80 
81 82 83 84 85 86 87 88 89 
90 91 92 93 94 95 96 97 98 
99 
POINT_DATA 100
FIELD FieldData 3
_theta 1 100 double
0 0.031733259127 0.063466518254 0.095199777382 0.12693303651 0.15866629564 0.19039955476 0.22213281389 0.25386607302 
0.28559933214 0.31733259127 0.3490658504 0.38079910953 0.41253236865 0.44426562778 0.47599888691 0.50773214603 0.53946540516 
0.57119866429 0.60293192342 0.63466518254 0.66639844167 0.6981317008 0.72986495992 0.76159821905 0.79333147818 0.82506473731 
0.85679799643 0.88853125556 0.92026451469 0.95199777382 0.98373103294 1.0154642921 1.0471975512 1.0789308103 1.1106640695 
1.1423973286 1.1741305877 1.2058638468 1.237597106 1.2693303651 1.3010636242 1.3327968833 1.3645301425 1.3962634016 
1.4279966607 1.4597299198 1.491463179 1.5231964381 1.5549296972 1.5866629564 1.6183962155 1.6501294746 1.6818627337 
1.7135959929 1.745329252 1.7770625111 1.8087957702 1.8405290294 1.8722622885 1.9039955476 1.9357288068 1.9674620659 
1.999195325 2.0309285841 2.0626618433 2.0943951024 2.1261283615 2.1578616206 2.1895948798 2.2213281389 2.253061398 
2.2847946572 2.3165279163 2.3482611754 2.3799944345 2.4117276937 2.4434609528 2.4751942119 2.506927471 2.5386607302 
2.5703939893 2.6021272484 2.6338605076 2.6655937667 2.6973270258 2.7290602849 2.7607935441 2.7925268032 2.8242600623 
2.8559933214 2.8877265806 2.9194598397 2.9511930988 2.982926358 3.0146596171 3.0463928762 3.0781261353 3.1098593945 
3.1415926536 
_radius 1 100 double
1.3455730158e-15 0.013956876005 0.02789720407 0.041794301423 0.055613111757 0.069307055986 0.082815842325 0.096064417892 0.10896319705 
0.12140963378 0.13329112321 0.14448916018 0.15488467016 0.16436442063 0.17282834499 0.18019741762 0.18642143847 0.19148581704 
0.19541630684 0.19828071109 0.20018686517 0.2012766446 0.20171626931 0.20168370335 0.20135442743 0.20088722401 0.20041177139 
0.20001969764 0.19976025282 0.19964099828 0.19963308872 0.19968006746 0.19970874788 0.19964071733 0.19940322124 0.19893862715 
0.19821225993 0.19721885432 0.19598769975 0.19458561499 0.19311592925 0.19171176213 0.19052344169 0.18970218003 0.18938388074 
0.18967699752 0.19065635624 0.19236189005 0.19479931676 0.19794018287 0.20172085716 0.20604219961 0.21077229699 0.21575368833 
0.22081481502 0.22578405746 0.2305041428 0.23484483797 0.23871234829 0.24205442069 0.24486067562 0.24715820323 0.24900303834 
0.25046873839 0.25163375251 0.25256939797 0.25332999788 0.25394620367 0.25442192228 0.25473473622 0.25483929516 0.25467287567 
0.25416214533 0.25323013528 0.25180252158 0.2498125331 0.24720411678 0.2439333476 0.2399683866 0.23528847328 0.2298824364 
0.22374704469 0.21688529951 0.20930462002 0.20101486878 0.19202630528 0.18234775038 0.17198538425 0.16094259961 0.14922117016 
0.13682371914 0.12375717721 0.11003670232 0.09568945791 0.080757704228 0.065300792189 0.049395793594 0.033136628611 0.016631676173 
4.2951829775e-16 
_area 1 100 double
0 0.00050337738014 0.0020176715483 0.0045518842178 0.0081100585641 0.01267737103 0.018205983743 0.024605056387 0.031737787536 
0.039425474214 0.047456097951 0.055594243503 0.063590421926 0.071190216415 0.078145637009 0.084231225686 0.089265160736 0.093131564672 
0.09579655701 0.097311213397 0.097802301157 0.097458148099 0.096511401007 0.095215529347 0.093818129164 0.092538580983 0.091554610102 
0.090999010812 0.090988679583 0.091570357659 0.092550817873 0.093757703382 0.095026894032 0.096206114776 0.097170992122 0.097847318674 
0.098218366346 0.098290893209 0.098117968828 0.097825614442 0.097550018376 0.097452948154 0.097724716893 0.098480626 0.099740148438 
0.10147288523 0.10363429207 0.10618836719 0.1091289163 0.11249373115 0.11635661599 0.12078592197 0.12578714686 0.13127331784 
0.13707560417 0.14296807853 0.14869243299 0.15398620228 0.15861564714 0.16240747887 0.16527190993 0.16721202037 0.16831909187 
0.1687619231 0.16882556229 0.16905873113 0.16923985625 0.1692416822 0.16902187826 0.1685389463 0.16774278212 0.16657568649 
0.16497618388 0.16288324903 0.16024048818 0.1569998654 0.15312361632 0.14858334408 0.14335764572 0.13743192467 0.13080331689 
0.12348969918 0.11553826632 0.10702922496 0.098072788973 0.088800557627 0.079354463734 0.069877276748 0.060507627346 0.051379990137 
0.042627402604 0.034383491696 0.026781216976 0.01994785325 0.013997771666 0.0090256008943 0.0051021631745 0.0022744717956 0.00056950951136 
7.0152529128e-17 
