# vtk DataFile Version 5.1
vtk output
ASCII
DATASET POLYDATA
POINTS 100 float
0.233925 0.0504704 -0.664077 0.233584 0.0503971 -0.664028 0.232598 0.0500377 -0.663916 
0.230963 0.0494107 -0.66366 0.228678 0.048543 -0.663138 0.225742 0.0474654 -0.662197 
0.222161 0.046207 -0.660672 0.217946 0.0447896 -0.658401 0.213115 0.043223 -0.655244 
0.207694 0.0415022 -0.651096 0.201719 0.0396062 -0.645898 0.195226 0.0374995 -0.639639 
0.188255 0.035136 -0.632354 0.180842 0.0324642 -0.624116 0.173017 0.0294345 -0.615026 
0.164804 0.0260058 -0.605199 0.156217 0.0221524 -0.594748 0.147262 0.0178687 -0.58377 
0.137941 0.013173 -0.572339 0.128253 0.0081079 -0.560492 0.118206 0.00273858 -0.548236 
0.107815 -0.00285096 -0.535546 0.0971078 -0.00856347 -0.522371 0.0861313 -0.0142949 -0.508646 
0.0749479 -0.0199412 -0.494303 0.0636346 -0.0254038 -0.47928 0.0522772 -0.0305949 -0.463532 
0.0409634 -0.0354398 -0.447034 0.0297742 -0.0398784 -0.429785 0.0187754 -0.0438645 -0.411806 
0.00801102 -0.0473635 -0.393133 -0.00250144 -0.0503499 -0.373812 -0.0127714 -0.0528044 -0.353888 
-0.0228318 -0.0547118 -0.333397 -0.0327311 -0.0560591 -0.312359 -0.042522 -0.056836 -0.290776 
-0.0522475 -0.0570362 -0.268629 -0.0619269 -0.0566596 -0.245888 -0.0715418 -0.0557155 -0.22251 
-0.0810266 -0.0542256 -0.198459 -0.0902633 -0.0522268 -0.173711 -0.0990819 -0.0497721 -0.148269 
-0.107269 -0.0469301 -0.122166 -0.114579 -0.0437829 -0.0954809 -0.120759 -0.0404217 -0.0683309 
-0.125563 -0.0369411 -0.0408737 -0.128782 -0.0334326 -0.0132985 -0.130264 -0.0299784 0.0141854 
-0.12993 -0.0266453 0.0413623 -0.127786 -0.023481 0.0680255 -0.123926 -0.0205119 0.0939915 
-0.118527 -0.0177444 0.119113 -0.111838 -0.0151677 0.143286 -0.104152 -0.0127594 0.166457 
-0.0957888 -0.0104921 0.18862 -0.0870644 -0.0083412 0.209814 -0.0782642 -0.00629135 0.230112 
-0.0696221 -0.00434212 0.24961 -0.0613036 -0.00251098 0.268416 -0.0533987 -0.00083358 0.286636 
-0.0459218 0.000638974 0.304364 -0.0388215 0.00184553 0.321677 -0.0319964 0.00272239 0.338626 
-0.0253163 0.00321188 0.355236 -0.0186454 0.00327095 0.371516 -0.0118647 0.00287854 0.387453 
-0.00489111 0.00204072 0.403031 0.00230937 0.000792876 0.418229 0.00971542 -0.000801601 0.433036 
0.0172521 -0.00265587 0.447448 0.0247995 -0.00466714 0.46148 0.0322077 -0.00672613 0.475156 
0.0393146 -0.00872745 0.488516 0.0459662 -0.0105795 0.501603 0.0520341 -0.0122127 0.514461 
0.0574307 -0.0135857 0.527125 0.0621178 -0.0146869 0.539617 0.0661095 -0.0155341 0.551936 
0.0694682 -0.0161696 0.56406 0.072295 -0.0166532 0.575942 0.0747154 -0.0170531 0.587514 
0.0768637 -0.0174364 0.598689 0.0788659 -0.0178605 0.60937 0.0808259 -0.0183658 0.619455 
0.0828154 -0.0189717 0.628848 0.0848681 -0.0196753 0.637466 0.0869803 -0.0204532 0.645245 
0.0891161 -0.0212663 0.652146 0.0912164 -0.0220665 0.658154 0.0932108 -0.0228045 0.663284 
0.0950302 -0.0234372 0.667574 0.0966173 -0.0239343 0.671086 0.0979352 -0.0242821 0.673897 
0.0989717 -0.0244854 0.676093 0.099739 -0.024566 0.677766 0.10027 -0.0245589 0.679006 
0.10061 -0.0245067 0.679892 0.100808 -0.0244523 0.680494 0.100909 -0.0244324 0.680862 
0.100941 -0.0244717 0.681026 
LINES 2 100
OFFSETS vtktypeint64
0 100 
CONNECTIVITY vtktypeint64
0 1 2 3 4 5 6 7 8 
9 10 11 12 13 14 15 16 17 
18 19 20 21 22 23 24 25 26 
27 28 29 30 31 32 33 34 35 
36 37 38 39 40 41 42 43 44 
45 46 47 48 49 50 51 52 53 
54 55 56 57 58 59 60 61 62 
63 64 65 66 67 68 69 70 71 
72 73 74 75 76 77 78 79 80 
81 82 83 84 85 86 87 88 89 
90 91 92 93 94 95 96 97 98 
99 
POINT_DATA 100
FIELD FieldData 3
_theta 1 100 double
0 0.031733259127 0.063466518254 0.095199777382 0.12693303651 0.15866629564 0.19039955476 0.22213281389 0.25386607302 
0.28559933214 0.31733259127 0.3490658504 0.38079910953 0.41253236865 0.44426562778 0.47599888691 0.50773214603 0.53946540516 
0.57119866429 0.60293192342 0.63466518254 0.66639844167 0.6981317008 0.72986495992 0.76159821905 0.79333147818 0.82506473731 
0.85679799643 0.88853125556 0.92026451469 0.95199777382 0.98373103294 1.0154642921 1.0471975512 1.0789308103 1.1106640695 
1.1423973286 1.1741305877 1.2058638468 1.237597106 1.2693303651 1.3010636242 1.3327968833 1.3645301425 1.3962634016 
1.4279966607 1.4597299198 1.491463179 1.5231964381 1.5549296972 1.5866629564 1.6183962155 1.6501294746 1.6818627337 
1.7135959929 1.745329252 1.7770625111 1.8087957702 1.8405290294 1.8722622885 1.9039955476 1.9357288068 1.9674620659 
1.999195325 2.0309285841 2.0626618433 2.0943951024 2.1261283615 2.1578616206 2.1895948798 2.2213281389 2.253061398 
2.2847946572 2.3165279163 2.3482611754 2.3799944345 2.4117276937 2.4434609528 2.4751942119 2.506927471 2.5386607302 
2.5703939893 2.6021272484 2.6338605076 2.6655937667 2.6973270258 2.7290602849 2.7607935441 2.7925268032 2.8242600623 
2.8559933214 2.8877265806 2.9194598397 2.9511930988 2.982926358 3.0146596171 3.0463928762 3.0781261353 3.1098593945 
3.1415926536 
_radius 1 100 double
8.6232334511e-16 0.015660533787 0.031179588232 0.046427460444 0.061295230748 0.07569836018 0.089574298607 0.10287514395 0.1155579024 
0.12757559619 0.13887206357 0.14938195219 0.15903566832 0.16776757109 0.17552497423 0.18227567108 0.18801253628 0.19275487527 
0.19654714212 0.1994560911 0.20156726213 0.20298110006 0.20380836237 0.20416420557 0.2041606819 0.20389821495 0.20345753515 
0.20289402374 0.20223608184 0.20148804388 0.20063674645 0.19965980232 0.19853340798 0.19723819 0.19576281829 0.19410635162 
0.19228103931 0.19031718941 0.18827044253 0.18622943695 0.18431936153 0.1826962166 0.18152957438 0.18097772695 0.18116428267 
0.18216491605 0.18400707465 0.18667880072 0.1901399082 0.19433013233 0.19917224459 0.20457114421 0.21041161211 0.21655774177 
0.22285624307 0.22914416838 0.2352598385 0.24105467416 0.24640356062 0.25121196473 0.2554188735 0.25899554022 0.26194088529 
0.26427496202 0.26603191659 0.26725336192 0.26798241053 0.2682582076 0.26811085245 0.26755695318 0.26659645125 0.26521153946 
0.26336833919 0.26102147976 0.25812096577 0.25462000813 0.25048214841 0.24568619437 0.24022812731 0.23411996374 0.2273862419 
0.22005914961 0.21217328445 0.20376077219 0.19484717385 0.18544844791 0.17556922135 0.16520264768 0.15433204248 0.14293424073 
0.13098430608 0.11846100046 0.10535237724 0.091660946117 0.077407956735 0.062636389743 0.047412258404 0.031823891922 0.015979050712 
9.691959538e-16 
_area 1 100 double
0 0.00054117781577 0.0021712339987 0.0049029217737 0.0087380149291 0.013647244026 0.019554712949 0.02633072534 0.033793263997 
0.041716286182 0.049842713748 0.05790063595 0.065621708125 0.072760420599 0.079112106238 0.084527140909 0.088919401442 0.092268375663 
0.094615518807 0.096056179799 0.096729120015 0.096806330386 0.096481946368 0.095957156885 0.095430829811 0.094901078917 0.094332927047 
0.093693076359 0.092942614824 0.092042569025 0.090966969303 0.089714612718 0.088314563747 0.086823851946 0.085318993598 0.083917834287 
0.082699942858 0.081726802884 0.081104394949 0.080949652468 0.081359995659 0.082358881939 0.083880321141 0.085830945442 0.088137012068 
0.090738630844 0.093612134143 0.096824159933 0.10051613932 0.1047983884 0.10974400601 0.11541802434 0.12184732676 0.12898857717 
0.13671261891 0.14480728859 0.15299990092 0.16099051407 0.1684870721 0.1752379368 0.18105712489 0.18583833988 0.18955757686 
0.1922676969 0.19408744652 0.19517472206 0.19565440075 0.19553214217 0.19472921913 0.19318147811 0.19086796863 0.18779588157 
0.18398280774 0.17944621978 0.17420087396 0.16826229832 0.16165308432 0.15440930859 0.14658611855 0.13826160648 0.12953700838 
0.12053167123 0.11137329314 0.10218556248 0.093075559154 0.084123147761 0.075375262353 0.066848672605 0.058542797086 0.050458880569 
0.042618109203 0.035072970553 0.027910646727 0.0212499773 0.015233869555 0.010018500594 0.0057602849808 0.0026016239981 0.00065682551899 
3.2526065175e-17 
