# vtk DataFile Version 5.1
vtk output
ASCII
DATASET POLYDATA
POINTS 100 float
0.122247 0.0433571 -0.667186 0.122349 0.0431799 -0.666915 0.122662 0.0425116 -0.666116 
0.12315 0.0414113 -0.664784 0.123752 0.0399683 -0.662908 0.12439 0.0382893 -0.660473 
0.124968 0.0364841 -0.657461 0.12538 0.0346501 -0.653852 0.125511 0.0328591 -0.649621 
0.125246 0.0311472 -0.644745 0.124473 0.0295104 -0.639194 0.12309 0.0279055 -0.632941 
0.121007 0.0262567 -0.625956 0.118154 0.0244667 -0.61821 0.11448 0.0224317 -0.609675 
0.109958 0.020057 -0.600326 0.104586 0.0172716 -0.590142 0.0983853 0.0140409 -0.57911 
0.0913999 0.0103737 -0.567226 0.0836937 0.00632407 -0.554498 0.0753471 0.00198812 -0.540945 
0.0664515 -0.00250564 -0.5266 0.0571052 -0.00700914 -0.51151 0.0474071 -0.0113703 -0.495731 
0.0374524 -0.0154485 -0.479327 0.0273282 -0.019129 -0.462365 0.0171097 -0.0223326 -0.444908 
0.00685913 -0.0250221 -0.427013 -0.00337499 -0.027202 -0.40872 -0.013556 -0.0289141 -0.390054 
-0.0236558 -0.0302281 -0.371016 -0.0336507 -0.03123 -0.351584 -0.0435155 -0.0320081 -0.331718 
-0.0532178 -0.0326415 -0.311358 -0.0627126 -0.0331898 -0.290437 -0.0719378 -0.0336868 -0.268884 
-0.0808109 -0.0341389 -0.246636 -0.089229 -0.0345279 -0.223648 -0.0970701 -0.0348172 -0.199901 
-0.104198 -0.0349616 -0.175406 -0.110468 -0.0349175 -0.150214 -0.115738 -0.0346524 -0.124411 
-0.119874 -0.0341535 -0.098118 -0.122766 -0.033431 -0.0714863 -0.124333 -0.0325194 -0.0446858 
-0.124532 -0.0314729 -0.0178963 -0.123364 -0.0303586 0.0087044 -0.120876 -0.0292463 0.0349515 
-0.117156 -0.0281978 0.060703 -0.112333 -0.0272568 0.0858465 -0.106564 -0.0264412 0.110303 
-0.100026 -0.0257383 0.134029 -0.0929009 -0.0251057 0.157012 -0.0853638 -0.0244751 0.179265 
-0.077571 -0.0237614 0.20082 -0.06965 -0.0228736 0.22172 -0.0616921 -0.021728 0.242009 
-0.0537498 -0.0202607 0.261727 -0.0458371 -0.0184381 0.280904 -0.0379343 -0.0162636 0.299558 
-0.0299957 -0.0137809 0.317694 -0.0219594 -0.0110711 0.335311 -0.0137589 -0.00824606 0.352401 
-0.00533408 -0.00543826 0.368961 0.00335903 -0.00278748 0.384993 0.0123408 -0.000427481 0.400513 
0.0216037 0.00152659 0.415553 0.0311115 0.0029882 0.430158 0.0408017 0.00390569 0.44439 
0.0505912 0.00426436 0.458315 0.0603845 0.00408404 0.472002 0.0700819 0.00341308 0.485514 
0.0795887 0.00231957 0.498895 0.0888234 0.000881389 0.512169 0.0977229 -0.000823649 0.525329 
0.106246 -0.00272586 0.538337 0.114373 -0.00476914 0.551126 0.122104 -0.00691298 0.563602 
0.129452 -0.00913122 0.575651 0.136439 -0.0114077 0.587151 0.143087 -0.0137301 0.59798 
0.14941 -0.0160831 0.608029 0.155414 -0.0184417 0.61721 0.161086 -0.0207676 0.625466 
0.166403 -0.0230069 0.632771 0.171325 -0.0250925 0.639137 0.175807 -0.0269492 0.644605 
0.179802 -0.0285011 0.649245 0.18327 -0.029682 0.653145 0.186183 -0.0304444 0.656402 
0.188535 -0.0307681 0.659118 0.190341 -0.0306665 0.661384 0.19164 -0.0301882 0.663279 
0.192497 -0.0294153 0.664866 0.192992 -0.0284566 0.666189 0.193215 -0.0274374 0.667272 
0.193259 -0.0264871 0.668129 0.193209 -0.0257252 0.668762 0.193133 -0.0252483 0.669168 
0.193075 -0.0251191 0.669342 
LINES 2 100
OFFSETS vtktypeint64
0 100 
CONNECTIVITY vtktypeint64
0 1 2 3 4 5 6 7 8 
9 10 11 12 13 14 15 16 17 
18 19 20 21 22 23 24 25 26 
27 28 29 30 31 32 33 34 35 
36 37 38 39 40 41 42 43 44 
45 46 47 48 49 50 51 52 53 
54 55 56 57 58 59 60 61 62 
63 64 65 66 67 68 69 70 71 
72 73 74 75 76 77 78 79 80 
81 82 83 84 85 86 87 88 89 
90 91 92 93 94 95 96 97 98 
99 
POINT_DATA 100
FIELD FieldData 3
_theta 1 100 double
0 0.031733259127 0.063466518254 0.095199777382 0.12693303651 0.15866629564 0.19039955476 0.22213281389 0.25386607302 
0.28559933214 0.31733259127 0.3490658504 0.38079910953 0.41253236865 0.44426562778 0.47599888691 0.50773214603 0.53946540516 
0.57119866429 0.60293192342 0.63466518254 0.66639844167 0.6981317008 0.72986495992 0.76159821905 0.79333147818 0.82506473731 
0.85679799643 0.88853125556 0.92026451469 0.95199777382 0.98373103294 1.0154642921 1.0471975512 1.0789308103 1.1106640695 
1.1423973286 1.1741305877 1.2058638468 1.237597106 1.2693303651 1.3010636242 1.3327968833 1.3645301425 1.3962634016 
1.4279966607 1.4597299198 1.491463179 1.5231964381 1.5549296972 1.5866629564 1.6183962155 1.6501294746 1.6818627337 
1.7135959929 1.745329252 1.7770625111 1.8087957702 1.8405290294 1.8722622885 1.9039955476 1.9357288068 1.9674620659 
1.999195325 2.0309285841 2.0626618433 2.0943951024 2.1261283615 2.1578616206 2.1895948798 2.2213281389 2.253061398 
2.2847946572 2.3165279163 2.3482611754 2.3799944345 2.4117276937 2.4434609528 2.4751942119 2.506927471 2.5386607302 
2.5703939893 2.6021272484 2.6338605076 2.6655937667 2.6973270258 2.7290602849 2.7607935441 2.7925268032 2.8242600623 
2.8559933214 2.8877265806 2.9194598397 2.9511930988 2.982926358 3.0146596171 3.0463928762 3.0781261353 3.1098593945 
3.1415926536 
_radius 1 100 double
6.7962206329e-16 0.014157641257 0.028318265965 0.042473848241 0.056606061791 0.070682356888 0.084653066631 0.098449661108 0.11198422642 
0.1251502622 0.13782494778 0.14987308646 0.16115293791 0.1715240277 0.18085674565 0.18904314408 0.19600790791 0.20171811197 
0.20619021998 0.20949289361 0.21174459662 0.21310566184 0.21376534259 0.21392523912 0.2137811801 0.2135059519 0.21323508784 
0.21305729954 0.21301027716 0.21308179132 0.21321548217 0.21332043908 0.21328364073 0.21298458913 0.21231189385 0.21118144988 
0.20955455138 0.20745251538 0.20496384471 0.20224125571 0.19948825255 0.19693749527 0.19482540841 0.19336832942 0.19274393581 
0.19307835672 0.19443699339 0.19681764639 0.2001469948 0.20428307259 0.20902567486 0.21413432791 0.21935126765 0.22442587396 
0.2291371888 0.2333119315 0.23683632718 0.23966089783 0.24179814077 0.24331378473 0.24431304569 0.24492387758 0.24527946327 
0.24550204796 0.24568977309 0.24590762067 0.24618306019 0.24650650496 0.2468361629 0.24710630011 0.24723742664 0.24714662003 
0.24675622866 0.24599955677 0.24482275381 0.24318290729 0.24104313612 0.2383661449 0.23510806571 0.23121437099 0.22661917378 
0.22124844527 0.21502676822 0.20788643349 0.1997771661 0.19067464055 0.18058622064 0.16955295621 0.15764763532 0.14496941834 
0.131636057 0.11777482864 0.10351319212 0.088970015331 0.074248157516 0.059429148316 0.044570554684 0.029706316177 0.014849929712 
2.6111228737e-16 
_area 1 100 double
0 0.00047689568493 0.0019052848165 0.004281730122 0.0076081585784 0.01189377861 0.017148366471 0.023368281026 0.030518220195 
0.038511869534 0.047195897939 0.056342744992 0.065656517016 0.074793242235 0.083393035508 0.091118697805 0.097693752372 0.10293312851 
0.10676137444 0.10921588898 0.11043557945 0.1106378493 0.11008833677 0.10906846149 0.10784601771 0.10665344163 0.10567587462 
0.10504670928 0.10484497883 0.10509214572 0.10575347939 0.1067467361 0.10794922209 0.10919753294 0.11029137555 0.11101775981 
0.11119731272 0.11074181062 0.10972389948 0.10841567083 0.10702110216 0.10567586751 0.1045976728 0.10403191953 0.10420038148 
0.10527613763 0.10737116035 0.11052874437 0.1147219671 0.11985913132 0.12579364797 0.13233372231 0.13924671972 0.14625661493 
0.15304427617 0.15927011388 0.16462258853 0.16887051456 0.17189831898 0.17371725213 0.17445355893 0.17431899502 0.17357215022 
0.17249946049 0.17151225565 0.17068441315 0.16982937802 0.16890868455 0.16787834667 0.1666812281 0.16525802921 0.1635571969 
0.16154074181 0.15918376292 0.15646519085 0.1533526541 0.14979350888 0.14571852475 0.14105014748 0.13570894186 0.12962065828 
0.12272788107 0.11500690921 0.10648647288 0.097262013943 0.087499102295 0.077422502371 0.067292102823 0.057371413822 0.047897150961 
0.039058488805 0.030990953087 0.02378335269 0.017490712689 0.012146047071 0.0077679420718 0.004364793268 0.0019377934765 0.00048405976565 
5.9007696623e-17 
