# vtk DataFile Version 5.1
vtk output
ASCII
DATASET POLYDATA
POINTS 100 float
0.0764637 0.056964 -0.676809 0.0765366 0.0570477 -0.677254 0.0768006 0.0571809 -0.678606 
0.0772461 0.0573453 -0.680687 0.0778552 0.0575102 -0.683221 0.0785995 0.0576326 -0.68586 
0.0794379 0.0576583 -0.688217 0.0803142 0.0575236 -0.689898 0.0811564 0.0571578 -0.690543 
0.0818775 0.0564855 -0.689846 0.0823772 0.0554313 -0.687584 0.0825465 0.0539231 -0.683622 
0.082274 0.0518973 -0.677916 0.0814524 0.0493026 -0.670505 0.0799869 0.0461048 -0.661491 
0.0778027 0.0422899 -0.651022 0.0748511 0.0378667 -0.639261 0.0711144 0.0328679 -0.626371 
0.066608 0.0273499 -0.612488 0.0613795 0.0213911 -0.597715 0.0555046 0.0150896 -0.582113 
0.0490812 0.00855827 -0.565701 0.0422206 0.00192093 -0.54847 0.0350379 -0.0046934 -0.530389 
0.0276424 -0.0111555 -0.511423 0.0201288 -0.0173411 -0.491546 0.0125702 -0.0231352 -0.470755 
0.00501459 -0.028436 -0.449076 -0.00251613 -0.0331577 -0.426564 -0.0100232 -0.0372327 -0.403304 
-0.0175252 -0.0406134 -0.3794 -0.0250493 -0.0432721 -0.354962 -0.0326212 -0.0452017 -0.330101 
-0.0402549 -0.0464153 -0.304909 -0.0479424 -0.0469444 -0.279454 -0.0556468 -0.0468385 -0.253777 
-0.0632968 -0.0461619 -0.227894 -0.0707863 -0.0449919 -0.201797 -0.0779769 -0.0434147 -0.175469 
-0.0847052 -0.041522 -0.148895 -0.0907919 -0.0394059 -0.122079 -0.0960553 -0.0371546 -0.0950481 
-0.100324 -0.0348469 -0.0678697 -0.10345 -0.0325484 -0.0406492 -0.10532 -0.0303072 -0.0135292 
-0.105869 -0.0281519 0.0133191 -0.105078 -0.0260908 0.0397096 -0.102983 -0.0241127 0.0654577 
-0.0996658 -0.0221906 0.0903985 -0.0952542 -0.020286 0.114403 -0.0899067 -0.018356 0.137392 
-0.083803 -0.0163602 0.159343 -0.0771307 -0.0142683 0.180293 -0.0700723 -0.0120669 0.200331 
-0.0627944 -0.00976449 0.21959 -0.0554382 -0.00739479 0.23823 -0.0481144 -0.00501653 0.256418 
-0.0409004 -0.00271078 0.274313 -0.0338413 -0.000575176 0.292048 -0.0269543 0.00128423 0.309718 
-0.0202347 0.00276277 0.327372 -0.0136637 0.0037676 0.345019 -0.0072167 0.00422747 0.362623 
-0.000870806 0.00410093 0.380124 0.00538887 0.00338166 0.397443 0.011565 0.00210044 0.414504 
0.017646 0.000323256 0.431239 0.0236068 -0.00185433 0.447604 0.0294111 -0.00431604 0.463582 
0.0350158 -0.00693593 0.479183 0.0403763 -0.00959065 0.49444 0.0454518 -0.0121712 0.509399 
0.0502107 -0.0145931 0.524107 0.0546336 -0.0168035 0.538601 0.0587163 -0.0187846 0.552893 
0.0624698 -0.0205532 0.566966 0.0659185 -0.0221549 0.580767 0.0690974 -0.0236566 0.594212 
0.0720476 -0.0251347 0.60719 0.0748113 -0.0266634 0.619575 0.0774267 -0.0283028 0.631243 
0.0799241 -0.0300889 0.642082 0.0823221 -0.0320271 0.652008 0.0846267 -0.0340894 0.660976 
0.0868311 -0.0362161 0.668985 0.0889176 -0.0383222 0.676078 0.0908606 -0.0403068 0.682337 
0.0926309 -0.0420657 0.68787 0.0942005 -0.0435039 0.692801 0.0955466 -0.0445483 0.697251 
0.0966558 -0.045158 0.701326 0.0975262 -0.0453303 0.705101 0.0981688 -0.0451031 0.708618 
0.0986063 -0.0445516 0.711875 0.0988714 -0.0437816 0.714838 0.0990031 -0.0429174 0.717443 
0.0990423 -0.0420889 0.719609 0.0990272 -0.0414167 0.721255 0.0989889 -0.0409984 0.72231 
0.0989476 -0.0408976 0.722724 
LINES 2 100
OFFSETS vtktypeint64
0 100 
CONNECTIVITY vtktypeint64
0 1 2 3 4 5 6 7 8 
9 10 11 12 13 14 15 16 17 
18 19 20 21 22 23 24 25 26 
27 28 29 30 31 32 33 34 35 
36 37 38 39 40 41 42 43 44 
45 46 47 48 49 50 51 52 53 
54 55 56 57 58 59 60 61 62 
63 64 65 66 67 68 69 70 71 
72 73 74 75 76 77 78 79 80 
81 82 83 84 85 86 87 88 89 
90 91 92 93 94 95 96 97 98 
99 
POINT_DATA 100
FIELD FieldData 3
_theta 1 100 double
0 0.031733259127 0.063466518254 0.095199777382 0.12693303651 0.15866629564 0.19039955476 0.22213281389 0.25386607302 
0.28559933214 0.31733259127 0.3490658504 0.38079910953 0.41253236865 0.44426562778 0.47599888691 0.50773214603 0.53946540516 
0.57119866429 0.60293192342 0.63466518254 0.66639844167 0.6981317008 0.72986495992 0.76159821905 0.79333147818 0.82506473731 
0.85679799643 0.88853125556 0.92026451469 0.95199777382 0.98373103294 1.0154642921 1.0471975512 1.0789308103 1.1106640695 
1.1423973286 1.1741305877 1.2058638468 1.237597106 1.2693303651 1.3010636242 1.3327968833 1.3645301425 1.3962634016 
1.4279966607 1.4597299198 1.491463179 1.5231964381 1.5549296972 1.5866629564 1.6183962155 1.6501294746 1.6818627337 
1.7135959929 1.745329252 1.7770625111 1.8087957702 1.8405290294 1.8722622885 1.9039955476 1.9357288068 1.9674620659 
1.999195325 2.0309285841 2.0626618433 2.0943951024 2.1261283615 2.1578616206 2.1895948798 2.2213281389 2.253061398 
2.2847946572 2.3165279163 2.3482611754 2.3799944345 2.4117276937 2.4434609528 2.4751942119 2.506927471 2.5386607302 
2.5703939893 2.6021272484 2.6338605076 2.6655937667 2.6973270258 2.7290602849 2.7607935441 2.7925268032 2.8242600623 
2.8559933214 2.8877265806 2.9194598397 2.9511930988 2.982926358 3.0146596171 3.0463928762 3.0781261353 3.1098593945 
3.1415926536 
_radius 1 100 double
5.6648749058e-16 0.016134997174 0.032150306089 0.04792348601 0.063337923922 0.078284194847 0.092658562402 0.10635823634 0.11927509048 
0.13129131365 0.14228042603 0.15211513264 0.16068078055 0.16789114089 0.17370257096 0.17812323659 0.18121549934 0.18309132218 
0.18390226189 0.18382688892 0.18305876969 0.18179713842 0.18024051241 0.17858188072 0.17700358239 0.17567050781 0.1747212167 
0.17425763226 0.1743350883 0.17495539274 0.17606562038 0.17756419831 0.17931390916 0.18115969507 0.18294839997 0.18454790993 
0.18586396223 0.18685347401 0.18753330978 0.1879832882 0.18834239172 0.18879767672 0.18956605592 0.19086983513 0.19290789909 
0.19582610438 0.19969235392 0.20448236472 0.21007978525 0.21628994586 0.22286301936 0.2295214903 0.23598783469 0.24200961244 
0.24738001939 0.25195246454 0.25564826519 0.25845721397 0.26043146337 0.26167374054 0.26232128715 0.26252717667 0.26244088572 
0.26219021026 0.26186672695 0.26151681854 0.26113963381 0.26069221966 0.26010067922 0.25927499051 0.25812445536 0.25657081781 
0.25455682962 0.25204921358 0.24903627281 0.24552149837 0.24151518396 0.23702613844 0.23205513812 0.2265909829 0.22060922126 
0.21407310236 0.20693626869 0.199147017 0.1906542525 0.18141513146 0.17140373108 0.16061926643 0.14909194069 0.13688476879 
0.12409054277 0.11082416664 0.097211545551 0.083376862481 0.069430323769 0.055458303131 0.041517328674 0.027632663585 0.013801483623 
1.1730154209e-15 
_area 1 100 double
0 0.00048831165954 0.0019923480459 0.0046236133458 0.0085318332137 0.01383363855 0.020542609128 0.028531285739 0.037523355038 
0.047108868534 0.056778183201 0.065970358702 0.074130649538 0.080770935969 0.085526894835 0.088206249821 0.088822594269 0.087607559611 
0.084989667166 0.081525370923 0.077785189026 0.074249264649 0.071267469352 0.068989399627 0.067371091417 0.066349841383 0.065908745131 
0.066064063625 0.066837737799 0.068234549386 0.070233977137 0.072797653048 0.075873991362 0.079342355802 0.082930822938 0.086310439606 
0.089234984827 0.091589708818 0.093391662183 0.094763809771 0.095896410564 0.097018848291 0.098403556082 0.10038548487 0.10325773936 
0.10706872728 0.11175062733 0.1172663438 0.12358834578 0.13065544578 0.1383455722 0.14646483218 0.15475234408 0.16290019507 
0.17058554578 0.17750881133 0.18342999439 0.18819597824 0.19175476461 0.19415644558 0.19554261476 0.19612471034 0.19614963144 
0.19585418952 0.19542022347 0.19494491027 0.19442999251 0.19378807115 0.19286593909 0.19148164642 0.18946597169 0.18669771073 
0.18312482346 0.17876664595 0.17369682395 0.16801340317 0.16180846292 0.15514953147 0.14807753959 0.14061679561 0.13278806819 
0.12461743978 0.1161380169 0.10738615548 0.098397262141 0.089207033238 0.079860734979 0.070427068664 0.061009142786 0.051746509776 
0.042807049293 0.034371564844 0.026615629745 0.019693064465 0.013724363251 0.0087919103106 0.0049421927853 0.002193672791 0.00054779337507 
2.9156822901e-17 
