# vtk DataFile Version 5.1
vtk output
ASCII
DATASET POLYDATA
POINTS 100 float
0.116183 0.0729472 -0.668587 0.116271 0.0728463 -0.668395 0.116483 0.0723567 -0.667757 
0.116771 0.0714809 -0.666631 0.117056 0.0702221 -0.664954 0.117244 0.0685832 -0.66265 
0.117227 0.0665649 -0.659643 0.1169 0.0641644 -0.655869 0.116163 0.0613742 -0.651278 
0.114933 0.0581831 -0.645852 0.113147 0.0545765 -0.639598 0.110764 0.05054 -0.632553 
0.107763 0.0460619 -0.624776 0.104141 0.0411377 -0.616338 0.0999105 0.0357741 -0.607315 
0.0950893 0.0299931 -0.597773 0.0897011 0.0238343 -0.58776 0.0837704 0.0173566 -0.577295 
0.077322 0.0106378 -0.566367 0.0703823 0.00377252 -0.55493 0.0629816 -0.00313177 -0.542915 
0.0551586 -0.00996001 -0.530229 0.0469644 -0.0165957 -0.516773 0.0384654 -0.0229271 -0.502452 
0.0297453 -0.0288539 -0.487187 0.0209031 -0.0342915 -0.470925 0.0120498 -0.039175 -0.453645 
0.00330086 -0.0434612 -0.435365 -0.00523206 -0.0471278 -0.416136 -0.0134515 -0.0501721 -0.39604 
-0.0212837 -0.0526073 -0.375177 -0.0286862 -0.0544586 -0.353659 -0.0356524 -0.0557582 -0.331595 
-0.0422121 -0.0565411 -0.309083 -0.0484272 -0.0568417 -0.286198 -0.0543824 -0.0566911 -0.262995 
-0.0601726 -0.0561159 -0.239502 -0.0658879 -0.0551389 -0.215727 -0.0715974 -0.0537803 -0.191664 
-0.0773349 -0.05206 -0.167302 -0.0830875 -0.0500003 -0.142637 -0.0887898 -0.0476283 -0.117679 
-0.0943233 -0.0449781 -0.0924616 -0.0995235 -0.0420916 -0.0670434 -0.104192 -0.0390185 -0.0415115 
-0.108114 -0.035815 -0.0159757 -0.111079 -0.0325417 0.00943755 -0.1129 -0.0292607 0.034595 
-0.113435 -0.0260324 0.0593673 -0.112602 -0.0229122 0.0836393 -0.110386 -0.0199481 0.107319 
-0.106841 -0.017179 0.130344 -0.102088 -0.014634 0.152681 -0.0962986 -0.0123323 0.174331 
-0.0896804 -0.0102848 0.195316 -0.082455 -0.00849577 0.215677 -0.0748367 -0.00696478 0.235463 
-0.0670137 -0.00568872 0.254722 -0.0591319 -0.00466335 0.273491 -0.0512863 -0.00388408 0.291791 
-0.0435179 -0.00334607 0.309627 -0.0358185 -0.00304352 0.326985 -0.028141 -0.0029684 0.343837 
-0.0204149 -0.00310898 0.36015 -0.0125636 -0.0034484 0.375891 -0.00452205 -0.00396379 0.391039 
0.00374804 -0.00462615 0.405589 0.0122473 -0.00540123 0.419561 0.0209334 -0.00625149 0.432996 
0.0297223 -0.00713886 0.445963 0.0384952 -0.00802818 0.458542 0.0471102 -0.00889073 0.470827 
0.0554176 -0.00970744 0.482907 0.0632757 -0.0104712 0.494859 0.0705657 -0.0111881 0.506738 
0.0772036 -0.0118767 0.518566 0.0831471 -0.012566 0.530331 0.0883974 -0.013292 0.541985 
0.0929951 -0.0140926 0.553446 0.0970118 -0.0150028 0.564607 0.100538 -0.016049 0.575345 
0.103669 -0.0172447 0.585534 0.106493 -0.0185872 0.595054 0.109078 -0.0200566 0.603805 
0.111466 -0.0216164 0.611717 0.113671 -0.0232164 0.618749 0.11568 -0.0247973 0.624897 
0.117459 -0.026297 0.630188 0.118965 -0.0276568 0.634679 0.120155 -0.0288279 0.638443 
0.120998 -0.0297768 0.641569 0.121487 -0.0304887 0.644147 0.121639 -0.0309689 0.646261 
0.121501 -0.0312422 0.647986 0.121145 -0.0313492 0.649383 0.120663 -0.0313413 0.650497 
0.120152 -0.031274 0.651358 0.119706 -0.0312003 0.651986 0.119402 -0.0311635 0.652389 
0.11929 -0.0311922 0.652572 
LINES 2 100
OFFSETS vtktypeint64
0 100 
CONNECTIVITY vtktypeint64
0 1 2 3 4 5 6 7 8 
9 10 11 12 13 14 15 16 17 
18 19 20 21 22 23 24 25 26 
27 28 29 30 31 32 33 34 35 
36 37 38 39 40 41 42 43 44 
45 46 47 48 49 50 51 52 53 
54 55 56 57 58 59 60 61 62 
63 64 65 66 67 68 69 70 71 
72 73 74 75 76 77 78 79 80 
81 82 83 84 85 86 87 88 89 
90 91 92 93 94 95 96 97 98 
99 
POINT_DATA 100
FIELD FieldData 3
_theta 1 100 double
0 0.031733259127 0.063466518254 0.095199777382 0.12693303651 0.15866629564 0.19039955476 0.22213281389 0.25386607302 
0.28559933214 0.31733259127 0.3490658504 0.38079910953 0.41253236865 0.44426562778 0.47599888691 0.50773214603 0.53946540516 
0.57119866429 0.60293192342 0.63466518254 0.66639844167 0.6981317008 0.72986495992 0.76159821905 0.79333147818 0.82506473731 
0.85679799643 0.88853125556 0.92026451469 0.95199777382 0.98373103294 1.0154642921 1.0471975512 1.0789308103 1.1106640695 
1.1423973286 1.1741305877 1.2058638468 1.237597106 1.2693303651 1.3010636242 1.3327968833 1.3645301425 1.3962634016 
1.4279966607 1.4597299198 1.491463179 1.5231964381 1.5549296972 1.5866629564 1.6183962155 1.6501294746 1.6818627337 
1.7135959929 1.745329252 1.7770625111 1.8087957702 1.8405290294 1.8722622885 1.9039955476 1.9357288068 1.9674620659 
1.999195325 2.0309285841 2.0626618433 2.0943951024 2.1261283615 2.1578616206 2.1895948798 2.2213281389 2.253061398 
2.2847946572 2.3165279163 2.3482611754 2.3799944345 2.4117276937 2.4434609528 2.4751942119 2.506927471 2.5386607302 
2.5703939893 2.6021272484 2.6338605076 2.6655937667 2.6973270258 2.7290602849 2.7607935441 2.7925268032 2.8242600623 
2.8559933214 2.8877265806 2.9194598397 2.9511930988 2.982926358 3.0146596171 3.0463928762 3.0781261353 3.1098593945 
3.1415926536 
_radius 1 100 double
5.7437949082e-16 0.01412134416 0.028142891999 0.041967762257 0.055508948408 0.068691733484 0.081453764441 0.09374294573 0.10551375344 
0.11672284525 0.12732492469 0.13726973549 0.14650085658 0.15495668351 0.16257365155 0.16929141016 0.17505934045 0.17984356709 
0.18363350347 0.18644701052 0.18833343277 0.18937404477 0.18967972683 0.18938594358 0.18864532171 0.18761834442 0.186462905 
0.18532364766 0.18432209806 0.18354850953 0.18305616887 0.18285874464 0.18293122486 0.18321499635 0.18362736015 0.18407499384 
0.18446972888 0.18474410737 0.18486401671 0.18483625446 0.18470980248 0.18457067107 0.18453142434 0.18471781316 0.18525573284 
0.1862611462 0.1878335365 0.19005111935 0.19296527153 0.19659315938 0.20091022716 0.20584592031 0.21128544302 0.21707802795 
0.22304988433 0.22901898816 0.23480919061 0.2402620018 0.24524523309 0.24965825199 0.25343397664 0.25653800503 0.25896546799 
0.26073629464 0.26188954743 0.26247732335 0.26255849955 0.26219245442 0.26143293598 0.26032247455 0.25888799006 0.25713829763 
0.25506393893 0.25263924393 0.24982600505 0.2465778699 0.24284462443 0.23857586015 0.23372391164 0.22824623779 0.22210750902 
0.21528156065 0.20775315833 0.19951930934 0.19058975301 0.18098634448 0.17074130177 0.15989462442 0.14849125783 0.13657863359 
0.12420502185 0.11141877586 0.098268206628 0.084801654223 0.071067378788 0.05711311928 0.042985431818 0.028729096659 0.014386903945 
1.6856611484e-15 
_area 1 100 double
0 0.00053762425923 0.0021375962887 0.0047622774037 0.0083519477746 0.012827811665 0.018094189004 0.024039455446 0.030536154353 
0.037441237039 0.044597373474 0.051835807579 0.058980657388 0.065854253609 0.07228321041 0.078105269701 0.083177210388 0.087383919246 
0.090647955276 0.092937890388 0.09427299825 0.094722185304 0.094396943256 0.093440845869 0.092018745515 0.090329813626 0.088584852568 
0.086853781162 0.085277472906 0.083999332649 0.083158130069 0.082877694387 0.083228640084 0.084130782506 0.085408508916 0.086890473989 
0.088433270059 0.089937691189 0.091356679339 0.092690895679 0.093974312347 0.095258208364 0.096600795898 0.09806524601 0.099729113752 
0.10172621718 0.10432246442 0.1076071488 0.11157707033 0.1163374838 0.1219710485 0.12847476405 0.1357383516 0.14355738274 
0.15166470121 0.15976432648 0.16756100064 0.17478503332 0.18121346347 0.18668648117 0.1911159621 0.19448276234 0.19682102321 
0.19819281559 0.19866532934 0.19830349151 0.19717543223 0.19535738568 0.1929307504 0.18997296444 0.18654702231 0.18269390283 
0.17843023047 0.17375126036 0.16863761121 0.16306354507 0.15700493566 0.15044597424 0.1433845537 0.13583652743 0.12783852837 
0.11944841259 0.11074242504 0.101809054 0.092740929787 0.083627464355 0.074551342412 0.065590426292 0.056823396525 0.048335172096 
0.040219065661 0.032575373033 0.025507913967 0.019120142556 0.013511681082 0.0087753426924 0.0049942591094 0.0022387102169 0.0005625975408 
8.7163282236e-17 
