# vtk DataFile Version 5.1
vtk output
ASCII
DATASET POLYDATA
POINTS 100 float
0.136975 0.100448 -0.638513 0.13699 0.100261 -0.638487 0.137007 0.0995112 -0.638355 
0.137001 0.098235 -0.638075 0.136936 0.0964854 -0.637574 0.136765 0.0943268 -0.636766 
0.136438 0.0918249 -0.635548 0.135904 0.0890375 -0.633815 0.135115 0.0860058 -0.631465 
0.134031 0.0827487 -0.628411 0.132619 0.0792597 -0.624583 0.130854 0.0755078 -0.619938 
0.128718 0.0714424 -0.614461 0.126198 0.0670004 -0.608168 0.123282 0.0621158 -0.601098 
0.119955 0.0567306 -0.593317 0.116201 0.0508043 -0.5849 0.111999 0.044322 -0.575931 
0.107327 0.0372996 -0.566486 0.102162 0.0297854 -0.556627 0.0964847 0.0218585 -0.546394 
0.0902853 0.0136233 -0.535794 0.0835672 0.00520178 -0.524804 0.0763511 -0.00327554 -0.513367 
0.0686778 -0.0116788 -0.5014 0.0606083 -0.0198871 -0.488799 0.0522224 -0.0277946 -0.475451 
0.0436141 -0.0353139 -0.461249 0.0348857 -0.042376 -0.4461 0.0261398 -0.0489285 -0.429937 
0.0174717 -0.0549307 -0.412733 0.00896202 -0.0603475 -0.394497 0.000671177 -0.0651444 -0.375283 
-0.00736409 -0.0692826 -0.355182 -0.0151307 -0.0727161 -0.334311 -0.0226359 -0.0753929 -0.312807 
-0.0299019 -0.0772574 -0.290808 -0.0369566 -0.0782562 -0.268443 -0.0438249 -0.0783466 -0.245817 
-0.0505184 -0.077504 -0.223003 -0.057027 -0.0757311 -0.200034 -0.0633133 -0.0730631 -0.176909 
-0.0693094 -0.0695719 -0.153592 -0.0749181 -0.0653656 -0.130027 -0.0800185 -0.0605842 -0.106148 
-0.0844736 -0.0553915 -0.0818989 -0.0881423 -0.0499644 -0.057243 -0.0908912 -0.0444796 -0.032182 
-0.0926073 -0.0391005 -0.00676217 -0.0932088 -0.0339647 0.0189201 -0.092653 -0.0291747 0.0447207 
-0.0909407 -0.0247919 0.070455 -0.0881163 -0.0208352 0.0959114 -0.0842635 -0.0172843 0.120867 
-0.0794972 -0.0140874 0.145108 -0.0739534 -0.0111717 0.168447 -0.0677765 -0.00845675 0.190736 
-0.0611074 -0.0058669 0.211883 -0.0540728 -0.00334372 0.231855 -0.0467774 -0.000854987 0.250678 
-0.0392987 0.00160003 0.268429 -0.0316867 0.0039896 0.285227 -0.0239667 0.00625316 0.301217 
-0.0161456 0.00830886 0.316551 -0.00822031 0.0100641 0.331375 -0.000187112 0.0114275 0.345811 
0.00794926 0.0123211 0.359952 0.0161681 0.0126914 0.373857 0.024428 0.0125163 0.387548 
0.0326646 0.0118105 0.401021 0.040793 0.0106245 0.414253 0.0487119 0.00904109 0.427217 
0.0563114 0.00716776 0.43989 0.0634817 0.00512641 0.452265 0.0701224 0.00304214 0.464358 
0.0761509 0.00103187 0.476207 0.0815094 -0.000805494 0.487868 0.0861691 -0.00239666 0.499412 
0.0901313 -0.00369826 0.510901 0.093426 -0.00469784 0.522387 0.0961076 -0.00541154 0.533886 
0.0982483 -0.00587898 0.545376 0.0999311 -0.00615627 0.556783 0.101242 -0.00630797 0.567986 
0.102263 -0.0063992 0.578817 0.103066 -0.00648858 0.589079 0.103711 -0.00662291 0.598562 
0.104243 -0.00683393 0.607063 0.104692 -0.0071371 0.614409 0.105075 -0.00753258 0.620478 
0.105402 -0.00800759 0.625218 0.105675 -0.00853986 0.62865 0.105895 -0.0091015 0.630876 
0.106063 -0.00966265 0.632066 0.106182 -0.0101946 0.632446 0.106256 -0.010672 0.632276 
0.106293 -0.0110742 0.631818 0.106301 -0.0113857 0.631316 0.106286 -0.0115962 0.630963 
0.106255 -0.0116999 0.630885 
LINES 2 100
OFFSETS vtktypeint64
0 100 
CONNECTIVITY vtktypeint64
0 1 2 3 4 5 6 7 8 
9 10 11 12 13 14 15 16 17 
18 19 20 21 22 23 24 25 26 
27 28 29 30 31 32 33 34 35 
36 37 38 39 40 41 42 43 44 
45 46 47 48 49 50 51 52 53 
54 55 56 57 58 59 60 61 62 
63 64 65 66 67 68 69 70 71 
72 73 74 75 76 77 78 79 80 
81 82 83 84 85 86 87 88 89 
90 91 92 93 94 95 96 97 98 
99 
POINT_DATA 100
FIELD FieldData 3
_theta 1 100 double
0 0.031733259127 0.063466518254 0.095199777382 0.12693303651 0.15866629564 0.19039955476 0.22213281389 0.25386607302 
0.28559933214 0.31733259127 0.3490658504 0.38079910953 0.41253236865 0.44426562778 0.47599888691 0.50773214603 0.53946540516 
0.57119866429 0.60293192342 0.63466518254 0.66639844167 0.6981317008 0.72986495992 0.76159821905 0.79333147818 0.82506473731 
0.85679799643 0.88853125556 0.92026451469 0.95199777382 0.98373103294 1.0154642921 1.0471975512 1.0789308103 1.1106640695 
1.1423973286 1.1741305877 1.2058638468 1.237597106 1.2693303651 1.3010636242 1.3327968833 1.3645301425 1.3962634016 
1.4279966607 1.4597299198 1.491463179 1.5231964381 1.5549296972 1.5866629564 1.6183962155 1.6501294746 1.6818627337 
1.7135959929 1.745329252 1.7770625111 1.8087957702 1.8405290294 1.8722622885 1.9039955476 1.9357288068 1.9674620659 
1.999195325 2.0309285841 2.0626618433 2.0943951024 2.1261283615 2.1578616206 2.1895948798 2.2213281389 2.253061398 
2.2847946572 2.3165279163 2.3482611754 2.3799944345 2.4117276937 2.4434609528 2.4751942119 2.506927471 2.5386607302 
2.5703939893 2.6021272484 2.6338605076 2.6655937667 2.6973270258 2.7290602849 2.7607935441 2.7925268032 2.8242600623 
2.8559933214 2.8877265806 2.9194598397 2.9511930988 2.982926358 3.0146596171 3.0463928762 3.0781261353 3.1098593945 
3.1415926536 
_radius 1 100 double
1.6655658173e-15 0.01348393218 0.026925853846 0.040276153176 0.053476929831 0.066459613757 0.079144451987 0.091442099432 0.10325722767 
0.11449373289 0.12506085073 0.1348793267 0.14388677038 0.15204142686 0.15932380495 0.16573587987 0.17129792543 0.17604340999 
0.18001277359 0.18324721392 0.18578374418 0.18765265894 0.18887812329 0.18948193923 0.18948977408 0.18893844268 0.18788241372 
0.18639771785 0.18458193886 0.18254988295 0.18042557478 0.17833204269 0.17638065141 0.17466153378 0.17323622186 0.17213312703 
0.17134614483 0.17083636556 0.17053668813 0.17035912073 0.17020476168 0.16997667772 0.16959528584 0.16901392079 0.16823064722 
0.1672931947 0.16629662142 0.16537557337 0.16469361058 0.16443131358 0.16477322158 0.16589199751 0.16792828942 0.17096743641 
0.17501787992 0.17999794891 0.18573599605 0.19198479949 0.19844721034 0.20480786327 0.21076548052 0.21606123472 0.22050012085 
0.22396380814 0.22641465974 0.22789139263 0.22849728176 0.22838210331 0.22771942614 0.22668160943 0.22541587138 0.22402537896 
0.2225584666 0.22100682952 0.2193114411 0.21737427971 0.21507416051 0.21228491099 0.20889358363 0.20481594044 0.20000663012 
0.19446241293 0.18821816341 0.18133675868 0.17389498935 0.16596812966 0.15761575158 0.14887087943 0.13973386471 0.13017164109 
0.1201224399 0.10950559118 0.098235560034 0.086238744018 0.073470842097 0.059932065214 0.045677410099 0.030819824556 0.015525256294 
7.5676697982e-16 
_area 1 100 double
0 0.00052406067442 0.0020882891588 0.0046668946741 0.0082114995005 0.012646138019 0.017864788383 0.023733159037 0.030094793808 
0.03678013661 0.043616538774 0.050437336175 0.057088751735 0.063434121448 0.069355580115 0.07475379212 0.079546526257 0.083666846499 
0.087061541034 0.089690354148 0.091526700752 0.092560540079 0.092803442308 0.092294498491 0.091104423659 0.089335224562 0.087114614049 
0.084587258183 0.081907566838 0.079237312159 0.076736768721 0.074528079537 0.07268843746 0.07127929716 0.070331072604 0.069796600046 
0.069609894597 0.069721362251 0.0700872212 0.070673583632 0.071459482114 0.072430925101 0.073573383012 0.074867284395 0.07627792811 
0.077732106015 0.079115467979 0.080320721154 0.081317354151 0.082202262557 0.083188508389 0.084511532389 0.086360573861 0.088884702888 
0.092187393341 0.096307099608 0.10119813682 0.10671854266 0.11263507192 0.11864528575 0.12440779029 0.12958302143 0.1338931945 
0.13716603128 0.13935192379 0.1405187315 0.14073481077 0.14002523528 0.13845457609 0.13613697489 0.13320674556 0.12979779224 
0.12603649475 0.12204954032 0.11798098782 0.11401118929 0.1103588895 0.10718238129 0.10429432178 0.10116737567 0.097380754632 
0.092769515488 0.087357125822 0.08128450236 0.074753637659 0.067980231743 0.061155772739 0.054422033116 0.047861702343 0.041506807025 
0.035360686705 0.029425020069 0.023724135854 0.018321377661 0.013324889249 0.0088825653232 0.0051673483884 0.0023550185223 0.0005979673617 
4.3635029673e-18 
