# vtk DataFile Version 5.1
vtk output
ASCII
DATASET POLYDATA
POINTS 100 float
0.0749735 0.0201163 -0.578243 0.0752174 0.0202674 -0.578494 0.0759685 0.0205355 -0.579192 
0.0771611 0.0208857 -0.580221 0.0786917 0.0212627 -0.581402 0.0804283 0.0215965 -0.582511 
0.0822221 0.0218083 -0.583298 0.0839185 0.0218173 -0.583513 0.0853697 0.0215481 -0.582929 
0.0864441 0.020936 -0.58136 0.0870335 0.019932 -0.578677 0.0870576 0.0185057 -0.574815 
0.0864644 0.0166459 -0.569772 0.0852282 0.0143602 -0.563608 0.0833452 0.0116725 -0.556424 
0.0808275 0.00861981 -0.548356 0.0776971 0.00524874 -0.539545 0.0739802 0.00161147 -0.530127 
0.0697032 -0.00223728 -0.520213 0.0648907 -0.00624261 -0.509878 0.0595656 -0.0103509 -0.499151 
0.0537506 -0.0145102 -0.48802 0.0474716 -0.0186701 -0.476434 0.0407611 -0.0227812 -0.464312 
0.0336617 -0.0267942 -0.451561 0.0262279 -0.0306597 -0.438086 0.0185263 -0.0343285 -0.423805 
0.010634 -0.0377526 -0.408668 0.00263439 -0.040887 -0.392657 -0.00538786 -0.0436919 -0.375794 
-0.0133535 -0.046135 -0.35814 -0.0211949 -0.0481944 -0.339788 -0.0288608 -0.0498597 -0.320851 
-0.0363198 -0.0511331 -0.301451 -0.0435608 -0.0520288 -0.281706 -0.0505897 -0.0525711 -0.261716 
-0.0574251 -0.0527913 -0.24155 -0.0640892 -0.0527242 -0.221246 -0.0705998 -0.0524032 -0.200803 
-0.0769598 -0.0518565 -0.180188 -0.0831498 -0.0511032 -0.159342 -0.0891214 -0.0501519 -0.138191 
-0.094795 -0.0489995 -0.116659 -0.100061 -0.0476326 -0.0946811 -0.104784 -0.0460311 -0.0722183 
-0.108813 -0.0441727 -0.0492659 -0.111996 -0.042038 -0.0258601 -0.114184 -0.0396168 -0.00208059 
-0.115257 -0.0369133 0.0219525 -0.115124 -0.0339497 0.046085 -0.11374 -0.0307687 0.0701392 
-0.111108 -0.0274328 0.0939263 -0.107279 -0.0240223 0.11726 -0.102348 -0.0206298 0.139968 
-0.0964482 -0.0173539 0.161908 -0.0897365 -0.0142913 0.182967 -0.0823826 -0.0115291 0.203076 
-0.0745552 -0.0091371 0.222207 -0.0664101 -0.00716271 0.240366 -0.0580804 -0.00562686 0.257599 
-0.049671 -0.00452336 0.273972 -0.0412561 -0.00382058 0.289571 -0.0328809 -0.00346576 0.304492 
-0.0245668 -0.00339127 0.31883 -0.0163188 -0.00352211 0.332675 -0.0081337 -0.00378379 0.346107 
-8.70116e-06 -0.00410965 0.359196 0.00805172 -0.0044469 0.371996 0.0160311 -0.00476063 0.384554 
0.0238989 -0.00503546 0.396905 0.0316121 -0.00527482 0.409077 0.0391184 -0.00549802 0.421095 
0.0463623 -0.00573551 0.432979 0.0532918 -0.00602325 0.444747 0.0598648 -0.00639667 0.456409 
0.0660549 -0.0068852 0.467972 0.0718544 -0.00750789 0.479428 0.077276 -0.00827071 0.490759 
0.0823501 -0.00916572 0.501928 0.0871216 -0.010172 0.51288 0.0916429 -0.0112583 0.523544 
0.0959675 -0.0123869 0.533828 0.100143 -0.0135177 0.543629 0.104203 -0.0146127 0.552837 
0.108168 -0.0156395 0.561342 0.112037 -0.0165744 0.569039 0.115792 -0.0174033 0.575845 
0.119401 -0.0181219 0.581698 0.12282 -0.0187345 0.586567 0.126005 -0.0192518 0.59046 
0.128911 -0.0196881 0.593419 0.131501 -0.0200588 0.595523 0.133751 -0.0203779 0.596884 
0.13565 -0.0206561 0.597638 0.137201 -0.0208999 0.597933 0.138419 -0.0211119 0.597925 
0.139325 -0.0212915 0.597761 0.139942 -0.0214359 0.597567 0.140293 -0.0215419 0.597442 
0.140392 -0.0216072 0.597447 
LINES 2 100
OFFSETS vtktypeint64
0 100 
CONNECTIVITY vtktypeint64
0 1 2 3 4 5 6 7 8 
9 10 11 12 13 14 15 16 17 
18 19 20 21 22 23 24 25 26 
27 28 29 30 31 32 33 34 35 
36 37 38 39 40 41 42 43 44 
45 46 47 48 49 50 51 52 53 
54 55 56 57 58 59 60 61 62 
63 64 65 66 67 68 69 70 71 
72 73 74 75 76 77 78 79 80 
81 82 83 84 85 86 87 88 89 
90 91 92 93 94 95 96 97 98 
99 
POINT_DATA 100
FIELD FieldData 3
_theta 1 100 double
0 0.031733259127 0.063466518254 0.095199777382 0.12693303651 0.15866629564 0.19039955476 0.22213281389 0.25386607302 
0.28559933214 0.31733259127 0.3490658504 0.38079910953 0.41253236865 0.44426562778 0.47599888691 0.50773214603 0.53946540516 
0.57119866429 0.60293192342 0.63466518254 0.66639844167 0.6981317008 0.72986495992 0.76159821905 0.79333147818 0.82506473731 
0.85679799643 0.88853125556 0.92026451469 0.95199777382 0.98373103294 1.0154642921 1.0471975512 1.0789308103 1.1106640695 
1.1423973286 1.1741305877 1.2058638468 1.237597106 1.2693303651 1.3010636242 1.3327968833 1.3645301425 1.3962634016 
1.4279966607 1.4597299198 1.491463179 1.5231964381 1.5549296972 1.5866629564 1.6183962155 1.6501294746 1.6818627337 
1.7135959929 1.745329252 1.7770625111 1.8087957702 1.8405290294 1.8722622885 1.9039955476 1.9357288068 1.9674620659 
1.999195325 2.0309285841 2.0626618433 2.0943951024 2.1261283615 2.1578616206 2.1895948798 2.2213281389 2.253061398 
2.2847946572 2.3165279163 2.3482611754 2.3799944345 2.4117276937 2.4434609528 2.4751942119 2.506927471 2.5386607302 
2.5703939893 2.6021272484 2.6338605076 2.6655937667 2.6973270258 2.7290602849 2.7607935441 2.7925268032 2.8242600623 
2.8559933214 2.8877265806 2.9194598397 2.9511930988 2.982926358 3.0146596171 3.0463928762 3.0781261353 3.1098593945 
3.1415926536 
_radius 1 100 double
1.1145513959e-15 0.012919274865 0.025785947801 0.03854566741 0.051149285265 0.063552432399 0.075712778309 0.087585934572 0.099121348757 
0.11025931636 0.12092963025 0.13105179409 0.14053649565 0.14928822487 0.15720925572 0.16420531471 0.17019297479 0.1751083003 
0.17891579313 0.18161640659 0.18325331154 0.18391419313 0.18372913591 0.18286365278 0.1815071351 0.17985786523 0.17810654359 
0.17642075896 0.17493271545 0.17373176594 0.17286214648 0.1723252441 0.17208519275 0.17207667848 0.17221426665 0.17240289553 
0.17254911674 0.17257224805 0.17241415651 0.17204624784 0.17147255402 0.17072852146 0.16987602244 0.16899600417 0.16818075622 
0.16752766023 0.16713525978 0.16710081339 0.16751711054 0.1684663714 0.17001084746 0.17218225676 0.17497366672 0.17833683591 
0.18218586647 0.18640578153 0.19086346215 0.19541843905 0.19993188959 0.20427326768 0.20832485879 0.21198496846 0.21517040298 
0.21781854474 0.21988891193 0.22136383026 0.22224782223 0.22256549377 0.22235795925 0.22167808547 0.22058499267 0.21913830732 
0.21739261762 0.21539245722 0.21316800009 0.21073159314 0.20807533634 0.20517006649 0.20196615333 0.19839637634 0.19438085115 
0.18983362504 0.18467026179 0.17881554263 0.17221034957 0.16481688739 0.15662164016 0.14763581275 0.1378933999 0.12744735767 
0.11636455787 0.10472027335 0.092592906637 0.080059571122 0.067192969824 0.054059783448 0.040720490997 0.027230267876 0.013640440038 
1.011023065e-15 
_area 1 100 double
0 0.00041026958828 0.0016471056073 0.003726889636 0.0066692358606 0.010482350546 0.0151444478 0.020589079954 0.02670018623 
0.033317783423 0.040251592836 0.047297956988 0.054254781387 0.060930317233 0.067144754691 0.07272794591 0.077519520944 0.081376600702 
0.08418956234 0.085901207953 0.086522336388 0.086137739197 0.084899840489 0.083011033473 0.080698935254 0.078190316087 0.075689014827 
0.073361299892 0.071329780643 0.069674451965 0.068437340568 0.067627249801 0.067223593467 0.06718067792 0.067434384653 0.067914429302 
0.068582968009 0.069359565193 0.070085576635 0.070684308218 0.071125448483 0.071425363387 0.071644922542 0.071879312227 0.072240192752 
0.072832087625 0.073726535786 0.074948043207 0.076491937362 0.078363420738 0.080601920037 0.08327778216 0.086463968211 0.09018615909 
0.094385530713 0.098933156746 0.10367175305 0.10844707135 0.11312287496 0.11758421408 0.12173239872 0.12547524138 0.12871839935 
0.13136485009 0.13332617704 0.13454429475 0.13502024312 0.13480419449 0.13389145237 0.1322436138 0.12986838296 0.12683289908 
0.12325723077 0.11930081635 0.11514131838 0.11094687984 0.10684555356 0.10289882857 0.099087755086 0.095318327824 0.09144664209 
0.087316114608 0.082794602307 0.077801379893 0.072319177806 0.066391203815 0.060106782438 0.053581936526 0.04694204763 0.040311774805 
0.03381295683 0.027566806863 0.021695523538 0.016320667784 0.011558560721 0.00751446874 0.0042774198183 0.0019168687241 0.0004815536102 
3.2640787473e-17 
