# vtk DataFile Version 5.1
vtk output
ASCII
DATASET POLYDATA
POINTS 100 float
0.203253 0.0618354 -0.631102 0.203127 0.0618606 -0.630939 0.202778 0.061768 -0.630479 
0.202175 0.0615341 -0.629684 0.20127 0.0611224 -0.6285 0.200001 0.0604864 -0.626857 
0.198296 0.0595742 -0.624684 0.196078 0.0583329 -0.621913 0.193271 0.0567136 -0.618488 
0.189808 0.054676 -0.614371 0.185631 0.0521913 -0.609544 0.180701 0.0492451 -0.60401 
0.174996 0.0458385 -0.597792 0.168517 0.0419876 -0.590924 0.161285 0.0377221 -0.583445 
0.153343 0.0330837 -0.575394 0.144752 0.0281224 -0.566801 0.135592 0.0228944 -0.557682 
0.125952 0.0174585 -0.548032 0.115934 0.0118745 -0.537833 0.105639 0.0062013 -0.527047 
0.0951682 0.000496155 -0.515626 0.0846174 -0.00518516 -0.503518 0.0740689 -0.0107878 -0.490673 
0.0635898 -0.0162569 -0.477049 0.0532274 -0.0215366 -0.462622 0.0430077 -0.0265692 -0.447383 
0.0329343 -0.0312953 -0.431344 0.0229896 -0.0356544 -0.414534 0.0131385 -0.0395864 -0.396994 
0.00333288 -0.0430343 -0.378772 -0.00648084 -0.0459471 -0.359916 -0.0163535 -0.0482832 -0.340463 
-0.0263241 -0.0500144 -0.320441 -0.0364103 -0.0511279 -0.29986 -0.0466 -0.0516292 -0.278713 
-0.0568453 -0.0515427 -0.256981 -0.0670579 -0.050911 -0.234636 -0.0771089 -0.049793 -0.21165 
-0.0868321 -0.0482603 -0.188007 -0.096031 -0.0463929 -0.163709 -0.10449 -0.0442731 -0.138783 
-0.111986 -0.0419809 -0.113293 -0.118308 -0.039588 -0.0873365 -0.123269 -0.0371539 -0.0610447 
-0.126721 -0.034723 -0.0345798 -0.128572 -0.0323228 -0.00812474 -0.128789 -0.029965 0.018127 
-0.127403 -0.027647 0.0439835 -0.124512 -0.0253566 0.0692663 -0.120268 -0.023076 0.0938214 
-0.11487 -0.0207873 0.117528 -0.108548 -0.018478 0.140303 -0.101541 -0.0161453 0.162104 
-0.094087 -0.0137992 0.182926 -0.0863982 -0.0114644 0.202798 -0.0786522 -0.00917958 0.221772 
-0.0709796 -0.00699548 0.23992 -0.0634606 -0.00497088 0.257321 -0.0561247 -0.00316744 0.274055 
-0.0489574 -0.00164375 0.290195 -0.0419096 -0.000449361 0.305806 -0.0349113 0.000380669 0.32094 
-0.0278856 0.000830011 0.335639 -0.0207629 0.000903649 0.349938 -0.0134933 0.000628499 0.363866 
-0.00605478 5.19601e-05 0.377452 0.00154156 -0.000761469 0.390724 0.00925194 -0.00173517 0.403718 
0.017004 -0.00278646 0.416471 0.0247045 -0.00383322 0.42902 0.0322502 -0.00480018 0.441403 
0.039538 -0.00562457 0.45365 0.0464766 -0.00626032 0.46578 0.0529944 -0.00668061 0.477798 
0.0590456 -0.00687847 0.489688 0.0646119 -0.00686551 0.501414 0.069701 -0.00666903 0.512923 
0.074341 -0.00632779 0.524142 0.0785736 -0.00588708 0.534989 0.0824445 -0.00539358 0.545377 
0.0859947 -0.00489055 0.555221 0.0892535 -0.00441394 0.564444 0.0922329 -0.00398966 0.572986 
0.0949262 -0.00363236 0.580808 0.0973099 -0.00334558 0.587892 0.0993484 -0.00312324 0.594241 
0.101001 -0.00295222 0.599881 0.102233 -0.00281543 0.604853 0.103022 -0.00269517 0.609209 
0.103367 -0.00257617 0.613004 0.103294 -0.00244794 0.616293 0.102858 -0.00230626 0.619127 
0.10214 -0.00215358 0.621546 0.101244 -0.00199829 0.623579 0.100285 -0.00185324 0.625245 
0.0993806 -0.00173344 0.626555 0.0986388 -0.00165366 0.627512 0.0981457 -0.00162598 0.628114 
0.0979571 -0.00165791 0.62836 
LINES 2 100
OFFSETS vtktypeint64
0 100 
CONNECTIVITY vtktypeint64
0 1 2 3 4 5 6 7 8 
9 10 11 12 13 14 15 16 17 
18 19 20 21 22 23 24 25 26 
27 28 29 30 31 32 33 34 35 
36 37 38 39 40 41 42 43 44 
45 46 47 48 49 50 51 52 53 
54 55 56 57 58 59 60 61 62 
63 64 65 66 67 68 69 70 71 
72 73 74 75 76 77 78 79 80 
81 82 83 84 85 86 87 88 89 
90 91 92 93 94 95 96 97 98 
99 
POINT_DATA 100
FIELD FieldData 3
_theta 1 100 double
0 0.031733259127 0.063466518254 0.095199777382 0.12693303651 0.15866629564 0.19039955476 0.22213281389 0.25386607302 
0.28559933214 0.31733259127 0.3490658504 0.38079910953 0.41253236865 0.44426562778 0.47599888691 0.50773214603 0.53946540516 
0.57119866429 0.60293192342 0.63466518254 0.66639844167 0.6981317008 0.72986495992 0.76159821905 0.79333147818 0.82506473731 
0.85679799643 0.88853125556 0.92026451469 0.95199777382 0.98373103294 1.0154642921 1.0471975512 1.0789308103 1.1106640695 
1.1423973286 1.1741305877 1.2058638468 1.237597106 1.2693303651 1.3010636242 1.3327968833 1.3645301425 1.3962634016 
1.4279966607 1.4597299198 1.491463179 1.5231964381 1.5549296972 1.5866629564 1.6183962155 1.6501294746 1.6818627337 
1.7135959929 1.745329252 1.7770625111 1.8087957702 1.8405290294 1.8722622885 1.9039955476 1.9357288068 1.9674620659 
1.999195325 2.0309285841 2.0626618433 2.0943951024 2.1261283615 2.1578616206 2.1895948798 2.2213281389 2.253061398 
2.2847946572 2.3165279163 2.3482611754 2.3799944345 2.4117276937 2.4434609528 2.4751942119 2.506927471 2.5386607302 
2.5703939893 2.6021272484 2.6338605076 2.6655937667 2.6973270258 2.7290602849 2.7607935441 2.7925268032 2.8242600623 
2.8559933214 2.8877265806 2.9194598397 2.9511930988 2.982926358 3.0146596171 3.0463928762 3.0781261353 3.1098593945 
3.1415926536 
_radius 1 100 double
7.9491987946e-16 0.015140352197 0.030115749558 0.044767503014 0.058950756511 0.072538897099 0.085425718265 0.097525538065 0.10877189946 
0.11911566049 0.12852317511 0.13697494432 0.14446473641 0.15099890432 0.15659558213 0.16128363378 0.16510155374 0.16809679036 
0.17032596584 0.17185608707 0.17276617425 0.17314810012 0.17310522265 0.17274783963 0.17218551035 0.17151749331 0.17082342187 
0.1701564698 0.16954056706 0.16897202462 0.16842474166 0.16785746657 0.16722156674 0.16646831452 0.16555547041 0.16445357999 
0.16315268705 0.16166994278 0.16005762806 0.15840946563 0.1568617026 0.15558568213 0.1547710281 0.15460215645 0.15523373598 
0.15677137075 0.15926184378 0.16269371632 0.16700541132 0.17209578183 0.17783286892 0.18405960269 0.19059824597 0.19725637603 
0.20383604604 0.21014580646 0.21601382181 0.22129988391 0.22590447052 0.22977367481 0.23289951353 0.23531570498 0.23708950084 
0.23831057027 0.23907823353 0.23948847727 0.23962215734 0.23953566845 0.23925517576 0.23877520367 0.23806183372 0.2370599443 
0.23570303053 0.23392354709 0.23166172036 0.22887138826 0.22552236931 0.22159975994 0.2171011276 0.21203271378 0.20640556736 
0.20023217606 0.19352382709 0.18628870877 0.17853067997 0.17024865543 0.16143664401 0.15208458008 0.14218012385 0.13171148674 
0.1206710591 0.10905930519 0.096888231477 0.084183827342 0.070987158489 0.057354115395 0.043354055356 0.029067681052 0.014584484946 
9.814133877e-16 
_area 1 100 double
0 0.000534406145 0.002122119921 0.0047160842211 0.0082365689021 0.01257082215 0.017575160654 0.023080645954 0.02890217622 
0.034849326423 0.040736503581 0.046390502626 0.051655110625 0.056394068956 0.060494403709 0.063871424047 0.06647506934 0.068295852935 
0.069368273402 0.069770238714 0.069617938853 0.069055904027 0.06824206464 0.0673288605 0.066443916708 0.065675900816 0.065071382667 
0.064642993439 0.064381014251 0.064261814629 0.06425435555 0.064328363357 0.064462806471 0.064648802229 0.064884923666 0.065170518972 
0.065499185359 0.06585360768 0.066208051501 0.06654341298 0.066870214491 0.067246816538 0.067783030126 0.068624784829 0.069916521948 
0.071755265961 0.074190828584 0.077277024333 0.081097316854 0.085741778935 0.091253059632 0.097585089801 0.10460266975 0.11210321905 
0.11983566343 0.12751592807 0.13484676637 0.14154296782 0.14735758626 0.15210477377 0.15567675839 0.15805372663 0.15930554682 
0.15958354275 0.15909741857 0.15807196118 0.15670039669 0.15512516256 0.15343533392 0.15166014302 0.14976511002 0.14766107432 
0.14522695923 0.14233987819 0.13890319468 0.13486415474 0.13021700919 0.124993347 0.11924624687 0.11303647092 0.10642619011 
0.099480278309 0.09227075197 0.084879089122 0.077393533008 0.069901926937 0.062483235147 0.055201691989 0.048106404353 0.041236900025 
0.034632671322 0.02834327691 0.022435600165 0.016996133537 0.012127827654 0.0079424473435 0.0045502850707 0.0020494283626 0.00051649974172 
2.1523100623e-17 
