# vtk DataFile Version 5.1
vtk output
ASCII
DATASET POLYDATA
POINTS 100 float
0.0922884 0.0359447 -0.628093 0.092081 0.0360841 -0.627491 0.0914564 0.0363001 -0.625714 
0.090451 0.0365307 -0.622803 0.0891225 0.0366811 -0.61883 0.0875445 0.0366356 -0.613887 
0.0858005 0.0362712 -0.608088 0.0839758 0.0354724 -0.601559 0.0821496 0.0341449 -0.594432 
0.0803858 0.0322264 -0.58684 0.0787257 0.0296938 -0.578907 0.0771811 0.0265654 -0.570742 
0.0757301 0.0228986 -0.562432 0.0743153 0.018783 -0.554037 0.0728454 0.0143303 -0.545584 
0.0712003 0.00966226 -0.537071 0.069239 0.00489832 -0.52846 0.0668112 0.000144411 -0.519688 
0.0637694 -0.00451543 -0.510669 0.0599829 -0.00902401 -0.501301 0.0553505 -0.0133519 -0.491476 
0.0498117 -0.0174944 -0.481085 0.0433536 -0.0214656 -0.470032 0.0360148 -0.0252897 -0.458237 
0.0278835 -0.0289922 -0.445642 0.0190912 -0.0325912 -0.432212 0.00980143 -0.0360905 -0.417939 
0.000196299 -0.0394753 -0.402835 -0.00954001 -0.0427119 -0.386932 -0.0192369 -0.0457495 -0.370272 
-0.0287516 -0.0485258 -0.352904 -0.0379793 -0.0509738 -0.334879 -0.046859 -0.0530299 -0.316241 
-0.0553736 -0.0546416 -0.297028 -0.0635436 -0.0557732 -0.277268 -0.0714161 -0.0564101 -0.256985 
-0.0790506 -0.0565591 -0.236197 -0.0865013 -0.0562469 -0.214921 -0.0938008 -0.0555153 -0.193182 
-0.100946 -0.054415 -0.171016 -0.107887 -0.0529983 -0.148471 -0.114524 -0.0513129 -0.125615 
-0.12071 -0.0493962 -0.102532 -0.126258 -0.047272 -0.0793196 -0.130957 -0.0449504 -0.0560882 
-0.13459 -0.0424297 -0.0329519 -0.13696 -0.0397011 -0.0100228 -0.137904 -0.0367548 0.0125969 
-0.137315 -0.0335866 0.0348206 -0.135156 -0.0302048 0.056583 -0.131462 -0.0266343 0.0778421 
-0.126344 -0.0229198 0.09858 -0.11998 -0.0191251 0.1188 -0.112595 -0.0153302 0.138524 
-0.104447 -0.0116256 0.157784 -0.0958036 -0.00810468 0.176616 -0.0869168 -0.00485553 0.195058 
-0.0780059 -0.001953 0.213137 -0.0692414 0.000547928 0.230875 -0.0607362 0.00261646 0.248277 
-0.0525438 0.00424734 0.265344 -0.044663 0.00545925 0.282065 -0.037049 0.00629031 0.29843 
-0.0296283 0.00679152 0.314432 -0.0223163 0.00701889 0.330071 -0.015034 0.00702558 0.345359 
-0.00772296 0.00685499 0.360324 -0.000355597 0.00653585 0.375007 0.00705968 0.0060799 0.389458 
0.0144792 0.00548262 0.403735 0.0218301 0.00472652 0.417892 0.0290206 0.00378684 0.431973 
0.0359531 0.00263841 0.446004 0.0425377 0.00126285 0.459986 0.0487043 -0.000345092 0.47389 
0.0544117 -0.00217309 0.487657 0.0596524 -0.00418928 0.501199 0.0644522 -0.00634322 0.514404 
0.0688652 -0.0085697 0.527144 0.0729646 -0.0107948 0.539287 0.0768309 -0.0129434 0.550706 
0.0805396 -0.0149474 0.561291 0.0841497 -0.0167528 0.570959 0.0876945 -0.0183254 0.579658 
0.0911772 -0.0196536 0.587375 0.0945704 -0.0207491 0.594131 0.0978205 -0.0216433 0.59998 
0.100857 -0.0223824 0.605003 0.103601 -0.02302 0.609295 0.105983 -0.0236093 0.61296 
0.107948 -0.0241952 0.616097 0.109468 -0.0248083 0.618795 0.110547 -0.0254611 0.621125 
0.111224 -0.0261467 0.623137 0.111563 -0.0268404 0.624861 0.111651 -0.0275048 0.626306 
0.111582 -0.028095 0.627469 0.11145 -0.028567 0.628339 0.111329 -0.028884 0.6289 
0.11127 -0.0290225 0.629142 
LINES 2 100
OFFSETS vtktypeint64
0 100 
CONNECTIVITY vtktypeint64
0 1 2 3 4 5 6 7 8 
9 10 11 12 13 14 15 16 17 
18 19 20 21 22 23 24 25 26 
27 28 29 30 31 32 33 34 35 
36 37 38 39 40 41 42 43 44 
45 46 47 48 49 50 51 52 53 
54 55 56 57 58 59 60 61 62 
63 64 65 66 67 68 69 70 71 
72 73 74 75 76 77 78 79 80 
81 82 83 84 85 86 87 88 89 
90 91 92 93 94 95 96 97 98 
99 
POINT_DATA 100
FIELD FieldData 3
_theta 1 100 double
0 0.031733259127 0.063466518254 0.095199777382 0.12693303651 0.15866629564 0.19039955476 0.22213281389 0.25386607302 
0.28559933214 0.31733259127 0.3490658504 0.38079910953 0.41253236865 0.44426562778 0.47599888691 0.50773214603 0.53946540516 
0.57119866429 0.60293192342 0.63466518254 0.66639844167 0.6981317008 0.72986495992 0.76159821905 0.79333147818 0.82506473731 
0.85679799643 0.88853125556 0.92026451469 0.95199777382 0.98373103294 1.0154642921 1.0471975512 1.0789308103 1.1106640695 
1.1423973286 1.1741305877 1.2058638468 1.237597106 1.2693303651 1.3010636242 1.3327968833 1.3645301425 1.3962634016 
1.4279966607 1.4597299198 1.491463179 1.5231964381 1.5549296972 1.5866629564 1.6183962155 1.6501294746 1.6818627337 
1.7135959929 1.745329252 1.7770625111 1.8087957702 1.8405290294 1.8722622885 1.9039955476 1.9357288068 1.9674620659 
1.999195325 2.0309285841 2.0626618433 2.0943951024 2.1261283615 2.1578616206 2.1895948798 2.2213281389 2.253061398 
2.2847946572 2.3165279163 2.3482611754 2.3799944345 2.4117276937 2.4434609528 2.4751942119 2.506927471 2.5386607302 
2.5703939893 2.6021272484 2.6338605076 2.6655937667 2.6973270258 2.7290602849 2.7607935441 2.7925268032 2.8242600623 
2.8559933214 2.8877265806 2.9194598397 2.9511930988 2.982926358 3.0146596171 3.0463928762 3.0781261353 3.1098593945 
3.1415926536 
_radius 1 100 double
8.1217670858e-17 0.011590938098 0.023133772294 0.034587502241 0.045928330988 0.057154558171 0.068286876242 0.079362980828 0.090426558669 
0.10151228437 0.11262979964 0.12375011293 0.13479725327 0.14564672562 0.15613096 0.16605093117 0.17519252334 0.18334590193 
0.19032598927 0.1959920438 0.2002643038 0.20313571635 0.20467700517 0.20503381709 0.20441548252 0.20307602814 0.20128939847 
0.19932214833 0.19740775629 0.19572667778 0.19439501642 0.19346255826 0.19291881133 0.19270456314 0.1927265679 0.19287377563 
0.1930342019 0.19311158484 0.1930404011 0.19279707674 0.19240494295 0.19193111491 0.19147519107 0.19115229732 0.19107565797 
0.19134464326 0.19204131295 0.19323291525 0.1949738615 0.19730167368 0.20022635432 0.20371770574 0.20769689738 0.2120365053 
0.2165696111 0.22110583685 0.22545106532 0.22942742209 0.23289036442 0.23574040295 0.23792812797 0.23945261013 0.24035448438 
0.24070573395 0.24059822428 0.24013252503 0.23940782086 0.23851310508 0.23751961803 0.23647466205 0.23539730211 0.23427670631 
0.23307367923 0.23172522259 0.23015103475 0.22826029688 0.22595730931 0.22314545734 0.21973006609 0.21562133499 0.21073841948 
0.20501498636 0.19840562791 0.19089180391 0.18248573703 0.17323095807 0.16319888727 0.15248176291 0.14118314154 0.12940780113 
0.11725294302 0.10480208798 0.092122252171 0.07926421652 0.066265165144 0.053152677421 0.039948993475 0.026674628757 0.013350735182 
1.9738777849e-16 
_area 1 100 double
0 0.00038408350737 0.0015306429908 0.0034235046793 0.0060391381154 0.0093523503999 0.013343063914 0.018000560417 0.023321633151 
0.02930213978 0.035925142279 0.043149756867 0.050902294987 0.059068268228 0.067484091847 0.075930860536 0.084135232595 0.091781401899 
0.098534973278 0.10407668031 0.10814161123 0.1105576104 0.11127539218 0.11038372403 0.10810612238 0.10477973487 0.10082027408 
0.096677363385 0.092783611334 0.089502341144 0.087085272304 0.08565615657 0.085229043916 0.085718307662 0.086961879588 0.088667752258 
0.090476165161 0.092147376855 0.093568703644 0.094759986416 0.095868606347 0.097114252199 0.098652112819 0.10046221723 0.10240862317 
0.10436139296 0.10626636886 0.10817093282 0.1102218406 0.11263484847 0.11563420058 0.11937543323 0.12388752488 0.12905926548 
0.13466026253 0.14037943664 0.14587301079 0.15081586402 0.15494702431 0.15810002397 0.16021387614 0.16132683194 0.16155899845 
0.16109263874 0.16016466226 0.15906543134 0.15797615831 0.15684603406 0.15560038126 0.15419891827 0.15261762727 0.15083656196 
0.14883446309 0.14658784297 0.14407101228 0.14125261351 0.13808723533 0.13450628959 0.13041576988 0.12570624479 0.12027402316 
0.1140469712 0.10700718324 0.09920465435 0.090758861213 0.081847677946 0.0726856858 0.063496975506 0.054490024214 0.045841937176 
0.037694924959 0.030161710389 0.023333458451 0.017285562117 0.012080220613 0.0077669404818 0.0043824877049 0.0019515014754 0.00048836715485 
2.8629711964e-17 
