# vtk DataFile Version 5.1
vtk output
ASCII
DATASET POLYDATA
POINTS 100 float
0.120608 0.0588776 -0.65415 0.12061 0.0586669 -0.653964 0.120612 0.0578932 -0.653366 
0.120585 0.0565874 -0.652338 0.120483 0.0547974 -0.650852 0.120254 0.0525838 -0.64887 
0.119843 0.0500147 -0.646344 0.119203 0.0471594 -0.643223 0.118297 0.0440829 -0.639454 
0.117105 0.0408403 -0.634983 0.115619 0.0374731 -0.629765 0.113843 0.0340063 -0.623764 
0.111786 0.0304481 -0.616956 0.109452 0.0267909 -0.609339 0.106835 0.0230144 -0.600925 
0.103911 0.0190898 -0.591749 0.100631 0.0149856 -0.58186 0.0969223 0.0106736 -0.571323 
0.092693 0.00613437 -0.560207 0.0878378 0.00136337 -0.548581 0.0822499 -0.00362562 -0.536508 
0.0758349 -0.00879764 -0.524033 0.0685242 -0.014096 -0.511181 0.0602882 -0.0194436 -0.497948 
0.0511447 -0.024746 -0.484305 0.0411639 -0.0298962 -0.470196 0.0304668 -0.0347809 -0.455541 
0.0192181 -0.0392868 -0.440249 0.00761429 -0.0433075 -0.42422 -0.00413328 -0.0467502 -0.407362 
-0.0158157 -0.0495404 -0.389596 -0.0272443 -0.0516267 -0.370868 -0.0382653 -0.0529825 -0.351155 
-0.04877 -0.0536069 -0.330465 -0.0586986 -0.0535233 -0.308844 -0.0680374 -0.0527767 -0.286364 
-0.0768097 -0.05143 -0.263123 -0.0850612 -0.0495587 -0.239235 -0.0928429 -0.0472461 -0.21482 
-0.100192 -0.0445783 -0.189994 -0.107116 -0.0416397 -0.164863 -0.113581 -0.0385095 -0.139519 
-0.119503 -0.0352589 -0.114033 -0.124753 -0.0319502 -0.0884617 -0.129163 -0.0286363 -0.0628472 
-0.132542 -0.0253616 -0.037225 -0.134699 -0.0221633 -0.0116305 -0.135458 -0.0190733 0.0138935 
-0.134691 -0.01612 0.0392913 -0.132325 -0.0133302 0.0644902 -0.128364 -0.0107303 0.0894004 
-0.122891 -0.00834637 0.113917 -0.116062 -0.00620494 0.137927 -0.108099 -0.00433159 0.161316 
-0.0992687 -0.00275002 0.183977 -0.0898592 -0.00148039 0.205825 -0.0801552 -0.000537686 0.226798 
-0.0704133 6.98401e-05 0.246868 -0.0608406 0.000341871 0.266043 -0.0515809 0.000286729 0.284363 
-0.042707 -7.85127e-05 0.301899 -0.0342229 -0.00072852 0.318743 -0.0260727 -0.00163075 0.334997 
-0.0181569 -0.00274695 0.350762 -0.0103519 -0.00403494 0.366131 -0.00253197 -0.00545048 0.381176 
0.00541058 -0.00694914 0.395945 0.0135487 -0.00848792 0.410462 0.0219099 -0.0100266 0.424725 
0.0304721 -0.0115288 0.438717 0.0391668 -0.0129626 0.452409 0.0478882 -0.0143009 0.465772 
0.0565073 -0.0155219 0.478785 0.0648882 -0.0166088 0.491441 0.072905 -0.0175503 0.503754 
0.0804563 -0.0183405 0.515753 0.0874755 -0.0189794 0.527483 0.0939365 -0.0194727 0.538995 
0.0998528 -0.0198322 0.550334 0.105272 -0.020076 0.561531 0.110265 -0.0202277 0.572589 
0.114915 -0.0203165 0.583474 0.119301 -0.0203752 0.594114 0.123488 -0.0204393 0.604398 
0.127519 -0.0205445 0.614179 0.131409 -0.0207243 0.623291 0.135142 -0.0210075 0.631561 
0.138681 -0.0214156 0.638829 0.141973 -0.0219602 0.644964 0.144961 -0.0226418 0.649887 
0.147591 -0.0234486 0.653578 0.149826 -0.0243567 0.656084 0.15165 -0.0253314 0.657521 
0.153072 -0.026329 0.658066 0.154126 -0.0273003 0.65794 0.154862 -0.0281939 0.657389 
0.155344 -0.0289605 0.656661 0.155634 -0.0295573 0.655982 0.155786 -0.0299506 0.655529 
0.155836 -0.0301197 0.655419 
LINES 2 100
OFFSETS vtktypeint64
0 100 
CONNECTIVITY vtktypeint64
0 1 2 3 4 5 6 7 8 
9 10 11 12 13 14 15 16 17 
18 19 20 21 22 23 24 25 26 
27 28 29 30 31 32 33 34 35 
36 37 38 39 40 41 42 43 44 
45 46 47 48 49 50 51 52 53 
54 55 56 57 58 59 60 61 62 
63 64 65 66 67 68 69 70 71 
72 73 74 75 76 77 78 79 80 
81 82 83 84 85 86 87 88 89 
90 91 92 93 94 95 96 97 98 
99 
POINT_DATA 100
FIELD FieldData 3
_theta 1 100 double
0 0.031733259127 0.063466518254 0.095199777382 0.12693303651 0.15866629564 0.19039955476 0.22213281389 0.25386607302 
0.28559933214 0.31733259127 0.3490658504 0.38079910953 0.41253236865 0.44426562778 0.47599888691 0.50773214603 0.53946540516 
0.57119866429 0.60293192342 0.63466518254 0.66639844167 0.6981317008 0.72986495992 0.76159821905 0.79333147818 0.82506473731 
0.85679799643 0.88853125556 0.92026451469 0.95199777382 0.98373103294 1.0154642921 1.0471975512 1.0789308103 1.1106640695 
1.1423973286 1.1741305877 1.2058638468 1.237597106 1.2693303651 1.3010636242 1.3327968833 1.3645301425 1.3962634016 
1.4279966607 1.4597299198 1.491463179 1.5231964381 1.5549296972 1.5866629564 1.6183962155 1.6501294746 1.6818627337 
1.7135959929 1.745329252 1.7770625111 1.8087957702 1.8405290294 1.8722622885 1.9039955476 1.9357288068 1.9674620659 
1.999195325 2.0309285841 2.0626618433 2.0943951024 2.1261283615 2.1578616206 2.1895948798 2.2213281389 2.253061398 
2.2847946572 2.3165279163 2.3482611754 2.3799944345 2.4117276937 2.4434609528 2.4751942119 2.506927471 2.5386607302 
2.5703939893 2.6021272484 2.6338605076 2.6655937667 2.6973270258 2.7290602849 2.7607935441 2.7925268032 2.8242600623 
2.8559933214 2.8877265806 2.9194598397 2.9511930988 2.982926358 3.0146596171 3.0463928762 3.0781261353 3.1098593945 
3.1415926536 
_radius 1 100 double
2.5172027167e-16 0.016134147137 0.032112841837 0.047791117597 0.063049547896 0.077801634348 0.091995926411 0.10561273036 0.11865620058 
0.13114332571 0.1430916838 0.15450781702 0.16537775908 0.17566079732 0.18528711432 0.19415960151 0.20215985093 0.20915803796 
0.21502604668 0.21965275235 0.22295992101 0.22491681333 0.22555139483 0.22495615429 0.22328699179 0.22075449105 0.21760806816 
0.21411476751 0.21053552052 0.20710220243 0.20399870985 0.20134860818 0.19921077416 0.19758302441 0.19641229491 0.19560901708 
0.19506328113 0.19466105834 0.19429962658 0.19390179771 0.19342823516 0.19288622117 0.1923324939 0.19186836417 0.19162758734 
0.19176005028 0.19241509191 0.19372664785 0.1958002699 0.1987015299 0.20244637762 0.20699506746 0.21225119796 0.21806652269 
0.22425126278 0.2305889019 0.23685374142 0.24282896657 0.24832293926 0.25318191853 0.25729814363 0.26061293356 0.26311505786 
0.26483510068 0.26583684668 0.26620682919 0.26604311544 0.26544425271 0.26449915985 0.26327864611 0.26182913515 0.26016903023 
0.25828798028 0.25614910431 0.25369397297 0.25084979383 0.24753786101 0.24368208237 0.23921642974 0.23409045497 0.22827243431 
0.22175009339 0.21452913588 0.20662992987 0.19808273581 0.18892187341 0.17917932147 0.16887848178 0.15802916099 0.14662504598 
0.13464481422 0.12205738725 0.1088308281 0.094943381555 0.08039455806 0.065214147281 0.049467523505 0.033256342384 0.016714510657 
1.305632658e-15 
_area 1 100 double
0 0.0005564179184 0.0022122256382 0.0049313435692 0.0086645411144 0.013356312994 0.018943091349 0.025344599714 0.032455554637 
0.040142469183 0.04824547867 0.056583356563 0.064960455196 0.073174816122 0.081026476471 0.088324837835 0.094894803897 0.10058293647 
0.10526540256 0.10885790002 0.11132536609 0.11268841236 0.11302464453 0.11246342946 0.11117083376 0.10935868524 0.10716015401 
0.10467845077 0.10205575557 0.099426272814 0.096909107849 0.094609403095 0.092620789008 0.091012206294 0.089834597984 0.089126829588 
0.088910758914 0.089185357671 0.089918897326 0.091043644701 0.092460814338 0.094059816791 0.095745817687 0.097465601321 0.099226436839 
0.10110095039 0.10321452545 0.10572221212 0.10878497321 0.11254800343 0.11711803456 0.12254244209 0.12879304614 0.13575682131 
0.14323870593 0.15097555885 0.15865847293 0.16596265295 0.17258122811 0.17825718082 0.18292152924 0.18727197546 0.19090979961 
0.19341217985 0.19471893455 0.1947957648 0.19371370172 0.19161220479 0.18866601147 0.1850774477 0.18105414106 0.17678099142 
0.17239175821 0.16794350565 0.16340979537 0.1587084583 0.15374768894 0.1484568583 0.14278992125 0.13671059613 0.13017697523 
0.12314274455 0.11557681728 0.10748611119 0.098927242608 0.090004105201 0.080855054766 0.071634791114 0.062495819599 0.053574132717 
0.044983154508 0.03681801906 0.029168295025 0.022132873309 0.015829390924 0.010393708159 0.0059699045529 0.00269458819 0.00068005938995 
5.3442951564e-17 
