# vtk DataFile Version 5.1
vtk output
ASCII
DATASET POLYDATA
POINTS 100 float
0.117918 0.03429 -0.601139 0.117734 0.0342484 -0.601265 0.117226 0.0339759 -0.601656 
0.116424 0.0334775 -0.602206 0.11537 0.0327595 -0.602753 0.11411 0.0318285 -0.603095 
0.112685 0.0306893 -0.603006 0.111122 0.029343 -0.602265 0.109426 0.0277856 -0.60067 
0.107571 0.026008 -0.59806 0.105502 0.0239954 -0.594326 0.103135 0.0217289 -0.58942 
0.100366 0.0191877 -0.583348 0.0970765 0.0163513 -0.576169 0.0931521 0.0132033 -0.567977 
0.0884923 0.00973401 -0.55889 0.0830255 0.00594378 -0.549031 0.0767199 0.00184519 -0.538511 
0.0695908 -0.0025354 -0.527417 0.0617034 -0.00715746 -0.515803 0.0531705 -0.0119669 -0.503686 
0.0441444 -0.0168975 -0.491052 0.0348057 -0.0218737 -0.477856 0.0253473 -0.0268129 -0.46404 
0.0159579 -0.0316294 -0.44954 0.00680604 -0.036237 -0.434303 -0.00197501 -0.0405525 -0.418292 
-0.0102973 -0.0444978 -0.401501 -0.0181242 -0.0480024 -0.38395 -0.0254703 -0.0510046 -0.365693 
-0.032396 -0.0534531 -0.346803 -0.0389973 -0.0553075 -0.327369 -0.0453907 -0.0565393 -0.307485 
-0.0516972 -0.0571323 -0.287234 -0.0580248 -0.0570833 -0.266685 -0.0644524 -0.0564025 -0.245879 
-0.0710173 -0.0551144 -0.22483 -0.0777065 -0.0532575 -0.203525 -0.0844537 -0.0508842 -0.181929 
-0.0911411 -0.0480599 -0.159993 -0.0976074 -0.0448616 -0.137667 -0.10366 -0.041375 -0.114909 
-0.109088 -0.0376915 -0.0917014 -0.113684 -0.033904 -0.0680547 -0.117255 -0.0301027 -0.0440163 
-0.119642 -0.0263707 -0.0196711 -0.120728 -0.0227798 0.00486148 -0.120453 -0.0193872 0.0294344 
-0.118811 -0.0162336 0.0538834 -0.115851 -0.0133425 0.0780388 -0.111677 -0.010721 0.101739 
-0.10643 -0.00836183 0.12484 -0.100285 -0.00624773 0.147228 -0.0934326 -0.00435529 0.168823 
-0.0860677 -0.00266006 0.189582 -0.0783778 -0.00114109 0.209498 -0.0705316 0.000215225 0.228597 
-0.0626713 0.00141257 0.246926 -0.0549072 0.00244378 0.264551 -0.0473161 0.0032916 0.281545 
-0.0399415 0.00393113 0.29798 -0.0327973 0.00433357 0.31392 -0.0258726 0.00447094 0.329422 
-0.0191379 0.00432098 0.34453 -0.0125528 0.00387169 0.359278 -0.00607203 0.00312493 0.373691 
0.000347464 0.00209847 0.387791 0.00674137 0.000826215 0.401597 0.0131338 -0.000643452 0.415133 
0.0195347 -0.00225112 0.428422 0.0259385 -0.00393119 0.441494 0.0323242 -0.0056175 0.454379 
0.0386574 -0.00724919 0.467101 0.0448921 -0.00877594 0.479682 0.0509749 -0.0101621 0.492128 
0.0568483 -0.0113892 0.504431 0.0624552 -0.0124562 0.516564 0.0677429 -0.0133785 0.528479 
0.0726668 -0.014184 0.54011 0.0771934 -0.0149092 0.551376 0.0813028 -0.0155932 0.562184 
0.0849895 -0.016273 0.57244 0.0882625 -0.0169778 0.582053 0.0911446 -0.0177264 0.590941 
0.0936698 -0.0185242 0.599043 0.0958801 -0.0193639 0.606317 0.0978227 -0.0202267 0.612747 
0.099545 -0.0210852 0.618342 0.101092 -0.021908 0.623134 0.1025 -0.0226638 0.627174 
0.103799 -0.0233261 0.630529 0.105005 -0.0238766 0.633273 0.106126 -0.0243075 0.635487 
0.107155 -0.0246219 0.637246 0.108078 -0.0248334 0.638624 0.108876 -0.0249634 0.639681 
0.109526 -0.0250377 0.640471 0.110003 -0.0250825 0.641032 0.11029 -0.0251205 0.641392 
0.110372 -0.0251672 0.641567 
LINES 2 100
OFFSETS vtktypeint64
0 100 
CONNECTIVITY vtktypeint64
0 1 2 3 4 5 6 7 8 
9 10 11 12 13 14 15 16 17 
18 19 20 21 22 23 24 25 26 
27 28 29 30 31 32 33 34 35 
36 37 38 39 40 41 42 43 44 
45 46 47 48 49 50 51 52 53 
54 55 56 57 58 59 60 61 62 
63 64 65 66 67 68 69 70 71 
72 73 74 75 76 77 78 79 80 
81 82 83 84 85 86 87 88 89 
90 91 92 93 94 95 96 97 98 
99 
POINT_DATA 100
FIELD FieldData 3
_theta 1 100 double
0 0.031733259127 0.063466518254 0.095199777382 0.12693303651 0.15866629564 0.19039955476 0.22213281389 0.25386607302 
0.28559933214 0.31733259127 0.3490658504 0.38079910953 0.41253236865 0.44426562778 0.47599888691 0.50773214603 0.53946540516 
0.57119866429 0.60293192342 0.63466518254 0.66639844167 0.6981317008 0.72986495992 0.76159821905 0.79333147818 0.82506473731 
0.85679799643 0.88853125556 0.92026451469 0.95199777382 0.98373103294 1.0154642921 1.0471975512 1.0789308103 1.1106640695 
1.1423973286 1.1741305877 1.2058638468 1.237597106 1.2693303651 1.3010636242 1.3327968833 1.3645301425 1.3962634016 
1.4279966607 1.4597299198 1.491463179 1.5231964381 1.5549296972 1.5866629564 1.6183962155 1.6501294746 1.6818627337 
1.7135959929 1.745329252 1.7770625111 1.8087957702 1.8405290294 1.8722622885 1.9039955476 1.9357288068 1.9674620659 
1.999195325 2.0309285841 2.0626618433 2.0943951024 2.1261283615 2.1578616206 2.1895948798 2.2213281389 2.253061398 
2.2847946572 2.3165279163 2.3482611754 2.3799944345 2.4117276937 2.4434609528 2.4751942119 2.506927471 2.5386607302 
2.5703939893 2.6021272484 2.6338605076 2.6655937667 2.6973270258 2.7290602849 2.7607935441 2.7925268032 2.8242600623 
2.8559933214 2.8877265806 2.9194598397 2.9511930988 2.982926358 3.0146596171 3.0463928762 3.0781261353 3.1098593945 
3.1415926536 
_radius 1 100 double
1.3390627045e-15 0.015167242457 0.030258599201 0.045192478696 0.059884513281 0.074246681654 0.088187009853 0.10161003694 0.11441808217 
0.12651319037 0.13779953336 0.14818603268 0.15758904418 0.16593509753 0.17316387773 0.17923178491 0.18411639253 0.18782184488 
0.19038470568 0.19187915149 0.19241996284 0.19216173954 0.1912932438 0.19002665233 0.18858254443 0.18717238768 0.18598086396 
0.18515043696 0.18477008148 0.18486927397 0.18541757296 0.18632972408 0.18747616736 0.18869868082 0.18983023496 0.19071699226 
0.19123935872 0.19132877752 0.19097767792 0.19024112724 0.18922985223 0.18809563163 0.18701188169 0.18615387518 0.1856830132 
0.18573720546 0.18642596493 0.18782675457 0.18997993598 0.19288259017 0.19648414596 0.20068715506 0.20535465766 0.21032303403 
0.21541761838 0.22046808037 0.22532121678 0.22984977076 0.23395686643 0.23757645659 0.24067072491 0.24322558958 0.24524537213 
0.2467474638 0.24775755324 0.24830570089 0.2484232807 0.24814062761 0.24748517196 0.24647988269 0.24514191264 0.24348140374 
0.24150046065 0.23919233494 0.2365408679 0.23352024017 0.23009512247 0.22622143556 0.22184803374 0.21691960093 0.21138082716 
0.20518156883 0.19828232057 0.19065908329 0.18230670435 0.17324002421 0.16349262367 0.15311347387 0.14216217469 0.13070362811 
0.11880295943 0.10652137998 0.093913546805 0.081026766884 0.06790202308 0.054576306839 0.041085366365 0.027465963079 0.013757079626 
1.591620048e-15 
_area 1 100 double
0 0.00051244992727 0.0020588102365 0.0046599449125 0.0083320265423 0.013064792023 0.018801097708 0.025423248201 0.032749154109 
0.040539048514 0.04851188295 0.056369250683 0.063823237946 0.070623107847 0.076575112839 0.081551315181 0.085487500736 0.08837508046 
0.09025345948 0.091206096391 0.091358158394 0.090870201846 0.089923073232 0.088696170374 0.087350262071 0.086022886638 0.084830952421 
0.083872742141 0.083226692577 0.082946773935 0.083056028511 0.083542128976 0.08435933782 0.08543846632 0.086701729851 0.08807612549 
0.089503176773 0.090952906013 0.092439973532 0.093990997297 0.095550701709 0.097000435393 0.098267884066 0.099383811929 0.10047665316 
0.10169442083 0.1034068288 0.1055081161 0.10791867409 0.11078134211 0.11424161489 0.11837506356 0.12315220359 0.12843985574 
0.13403296806 0.13970285909 0.1452421628 0.15048967445 0.15533075324 0.15968112197 0.16347071292 0.16665761249 0.16949976154 
0.17194746055 0.17362393464 0.1744316263 0.17436323499 0.17344071734 0.17174514565 0.16941191352 0.16659465552 0.16342717559 
0.15999602838 0.15633310557 0.15242816182 0.14824769027 0.14374666632 0.13887116039 0.13355820378 0.1277400981 0.12135617527 
0.11436979185 0.10678512627 0.098657822823 0.090095095283 0.081244222043 0.072272843775 0.063348154437 0.054622160203 0.04622599173 
0.038271220386 0.030854259706 0.024061149173 0.01797152879 0.012661006721 0.0082011662288 0.004657169867 0.0020840374501 0.0005231531437 
4.9880074544e-17 
