# vtk DataFile Version 5.1
vtk output
ASCII
DATASET POLYDATA
POINTS 100 float
0.130965 0.0342189 -0.716927 0.130909 0.0342619 -0.716903 0.130792 0.0342071 -0.716868 
0.130597 0.0340689 -0.716705 0.130297 0.0338677 -0.716231 0.129854 0.0336239 -0.715224 
0.129222 0.0333523 -0.713443 0.128348 0.0330553 -0.710665 0.127172 0.0327178 -0.706703 
0.125632 0.0323047 -0.701431 0.123664 0.0317599 -0.694795 0.121207 0.0310092 -0.686816 
0.118204 0.0299657 -0.677586 0.114605 0.0285382 -0.667247 0.11037 0.0266404 -0.655978 
0.105475 0.0242013 -0.643964 0.0999123 0.021175 -0.631376 0.0936918 0.0175484 -0.618348 
0.0868456 0.0133463 -0.604964 0.0794266 0.00863351 -0.59125 0.0715085 0.0035122 -0.577175 
0.0631834 -0.00188312 -0.562664 0.0545581 -0.00739453 -0.54761 0.0457491 -0.0128515 -0.531895 
0.0368762 -0.0180832 -0.515413 0.0280556 -0.02293 -0.498085 0.0193927 -0.0272547 -0.479876 
0.0109751 -0.0309507 -0.460801 0.00286736 -0.0339479 -0.440922 -0.00489282 -0.0362147 -0.420345 
-0.0122962 -0.0377569 -0.3992 -0.0193607 -0.0386139 -0.377627 -0.0261271 -0.0388518 -0.355754 
-0.0326527 -0.0385558 -0.33368 -0.0390025 -0.0378214 -0.311462 -0.0452393 -0.0367466 -0.289104 
-0.0514132 -0.035424 -0.266561 -0.0575523 -0.0339361 -0.243746 -0.0636545 -0.0323512 -0.220542 
-0.0696828 -0.0307222 -0.196824 -0.0755633 -0.0290869 -0.172477 -0.0811873 -0.0274697 -0.14742 
-0.0864174 -0.0258845 -0.121621 -0.0910966 -0.024338 -0.0951064 -0.0950597 -0.0228327 -0.0679688 
-0.0981471 -0.0213697 -0.0403602 -0.100217 -0.0199512 -0.0124817 -0.10116 -0.0185811 0.0154334 
-0.100904 -0.0172663 0.0431404 -0.0994256 -0.0160163 0.0704046 -0.0967506 -0.014843 0.097021 
-0.0929502 -0.0137602 0.12283 -0.0881368 -0.0127832 0.147725 -0.0824538 -0.011928 0.17166 
-0.0760636 -0.0112116 0.19464 -0.0691351 -0.0106516 0.216714 -0.0618305 -0.0102658 0.237961 
-0.0542944 -0.0100722 0.258474 -0.0466451 -0.0100877 0.278343 -0.0389701 -0.0103272 0.297647 
-0.0313243 -0.0108021 0.316441 -0.0237328 -0.0115183 0.334753 -0.0161964 -0.0124742 0.352591 
-0.00869981 -0.0136593 0.369944 -0.00122097 -0.0150528 0.386796 0.00625985 -0.0166237 0.403137 
0.0137516 -0.0183316 0.41897 0.0212465 -0.0201283 0.434321 0.0287162 -0.0219615 0.449244 
0.0361123 -0.0237785 0.463818 0.0433679 -0.0255308 0.478137 0.0504038 -0.0271784 0.492305 
0.0571347 -0.0286935 0.50642 0.0634777 -0.0300634 0.520558 0.0693592 -0.0312915 0.534762 
0.0747224 -0.0323967 0.549033 0.0795311 -0.0334105 0.563322 0.0837728 -0.0343733 0.577536 
0.0874583 -0.0353285 0.591538 0.0906193 -0.0363171 0.605165 0.0933038 -0.037371 0.618241 
0.0955708 -0.038509 0.630593 0.0974837 -0.0397327 0.642071 0.0991046 -0.0410256 0.652558 
0.100489 -0.0423539 0.661985 0.101684 -0.04367 0.670332 0.102724 -0.0449174 0.677628 
0.103632 -0.0460378 0.683943 0.104421 -0.0469776 0.689378 0.105099 -0.0476956 0.694051 
0.105668 -0.0481675 0.698082 0.10613 -0.0483905 0.70158 0.106489 -0.0483843 0.704632 
0.106752 -0.0481892 0.707298 0.10693 -0.0478624 0.709606 0.10704 -0.0474721 0.71156 
0.107098 -0.0470891 0.713143 0.10712 -0.0467797 0.714329 0.107122 -0.0465974 0.715087 
0.107111 -0.0465771 0.715395 
LINES 2 100
OFFSETS vtktypeint64
0 100 
CONNECTIVITY vtktypeint64
0 1 2 3 4 5 6 7 8 
9 10 11 12 13 14 15 16 17 
18 19 20 21 22 23 24 25 26 
27 28 29 30 31 32 33 34 35 
36 37 38 39 40 41 42 43 44 
45 46 47 48 49 50 51 52 53 
54 55 56 57 58 59 60 61 62 
63 64 65 66 67 68 69 70 71 
72 73 74 75 76 77 78 79 80 
81 82 83 84 85 86 87 88 89 
90 91 92 93 94 95 96 97 98 
99 
POINT_DATA 100
FIELD FieldData 3
_theta 1 100 double
0 0.031733259127 0.063466518254 0.095199777382 0.12693303651 0.15866629564 0.19039955476 0.22213281389 0.25386607302 
0.28559933214 0.31733259127 0.3490658504 0.38079910953 0.41253236865 0.44426562778 0.47599888691 0.50773214603 0.53946540516 
0.57119866429 0.60293192342 0.63466518254 0.66639844167 0.6981317008 0.72986495992 0.76159821905 0.79333147818 0.82506473731 
0.85679799643 0.88853125556 0.92026451469 0.95199777382 0.98373103294 1.0154642921 1.0471975512 1.0789308103 1.1106640695 
1.1423973286 1.1741305877 1.2058638468 1.237597106 1.2693303651 1.3010636242 1.3327968833 1.3645301425 1.3962634016 
1.4279966607 1.4597299198 1.491463179 1.5231964381 1.5549296972 1.5866629564 1.6183962155 1.6501294746 1.6818627337 
1.7135959929 1.745329252 1.7770625111 1.8087957702 1.8405290294 1.8722622885 1.9039955476 1.9357288068 1.9674620659 
1.999195325 2.0309285841 2.0626618433 2.0943951024 2.1261283615 2.1578616206 2.1895948798 2.2213281389 2.253061398 
2.2847946572 2.3165279163 2.3482611754 2.3799944345 2.4117276937 2.4434609528 2.4751942119 2.506927471 2.5386607302 
2.5703939893 2.6021272484 2.6338605076 2.6655937667 2.6973270258 2.7290602849 2.7607935441 2.7925268032 2.8242600623 
2.8559933214 2.8877265806 2.9194598397 2.9511930988 2.982926358 3.0146596171 3.0463928762 3.0781261353 3.1098593945 
3.1415926536 
_radius 1 100 double
5.9932122825e-16 0.014211092029 0.028262335592 0.042002462455 0.055301063764 0.068054283091 0.080186026851 0.091644969662 0.10239856269 
0.11242581926 0.12171069747 0.13023745039 0.13798857447 0.14494524253 0.15108959649 0.1564080938 0.16089520311 0.16455699355 
0.16741441194 0.1695061803 0.17089121697 0.17165029317 0.17188635764 0.17172273878 0.17129844474 0.17076016924 0.17025137798 
0.16989979324 0.1698053102 0.17003044675 0.17059472519 0.17147330032 0.17259938348 0.17387001496 0.1751552703 0.17631125191 
0.17719657295 0.17769070648 0.17771141359 0.17722808425 0.17626824716 0.17491558238 0.17329948199 0.17157843759 0.16992164353 
0.16849393257 0.16744743879 0.16691965056 0.16703392969 0.16789743753 0.16959338621 0.17216832227 0.17561852322 0.17988080467 
0.18483168823 0.19029585557 0.19606173306 0.20190037725 0.20758397602 0.21290156566 0.2176710115 0.2217473041 0.22502764957 
0.22745383078 0.22901212714 0.22973091112 0.22967599759 0.22894390841 0.22765337769 0.22593559398 0.22392379698 0.22174288157 
0.21949960751 0.21727390729 0.21511168949 0.21301951984 0.21096165633 0.20886005724 0.20659801312 0.20402781936 0.20098236248 
0.19728975732 0.19278946175 0.18734782737 0.18087095831 0.17331308083 0.16467931415 0.15502264839 0.14443589037 0.13304011446 
0.1209715684 0.10836895814 0.095362649406 0.082066758782 0.068574539635 0.054956987664 0.041264206654 0.027528784932 0.013770282697 
5.2311636336e-16 
_area 1 100 double
0 0.00052028973632 0.0020691976849 0.0046109224426 0.0080859260652 0.012410833461 0.017478165689 0.0231563344 0.029290534088 
0.03570510096 0.042207690218 0.048595418378 0.054662978659 0.060212607059 0.065065524048 0.069074021796 0.072132867198 0.074188489364 
0.075244684164 0.075364086798 0.074665064707 0.0733137516 0.071510712878 0.069471621958 0.067402716782 0.065476412903 0.063816994762 
0.062502698663 0.06158665659 0.061203221965 0.061632357833 0.062820390733 0.064334281305 0.065951999167 0.067528455242 0.068936069645 
0.070190191133 0.071248231664 0.071993842872 0.072364269173 0.072419737097 0.072285893886 0.072110305799 0.072020026133 0.072094581825 
0.072367900738 0.072857120719 0.073603748068 0.074712793257 0.0763903382 0.078991775305 0.08272242476 0.087531087855 0.093347642775 
0.10001781192 0.10729390406 0.1148611566 0.12237182488 0.1294785297 0.13586391075 0.14126471927 0.14548931112 0.1484289965 
0.15006369843 0.15045620196 0.14972101642 0.14798118706 0.14536583359 0.14203688382 0.13819373834 0.13405481399 0.12983404237 
0.12572096556 0.1218648824 0.11836065445 0.11523572493 0.11244230368 0.10986047528 0.10731390854 0.10459394009 0.10148631384 
0.097797385545 0.093378615982 0.088147648358 0.082102516783 0.075324825126 0.067969386479 0.0602415368 0.052367577492 0.044566508189 
0.03703066011 0.029918695859 0.02335877765 0.017456179014 0.012300144972 0.0079677174322 0.0045247011208 0.0020248562313 0.00050832505355 
9.2032907287e-17 
