# vtk DataFile Version 5.1
vtk output
ASCII
DATASET POLYDATA
POINTS 100 float
0.235676 0.064656 -0.741915 0.235253 0.0647041 -0.741769 0.234014 0.0646857 -0.741375 
0.232 0.06458 -0.740662 0.229277 0.064354 -0.739516 0.225928 0.0639644 -0.737795 
0.222041 0.0633611 -0.735344 0.217704 0.062491 -0.732015 0.212993 0.0613018 -0.727676 
0.207967 0.059746 -0.722229 0.202656 0.0577844 -0.715621 0.197068 0.0553893 -0.707841 
0.191179 0.0525459 -0.698926 0.184944 0.0492542 -0.688951 0.178302 0.0455281 -0.678021 
0.171184 0.0413952 -0.666258 0.16352 0.0368946 -0.653788 0.155255 0.0320744 -0.640727 
0.146352 0.0269891 -0.627172 0.136803 0.0216966 -0.613193 0.126633 0.0162555 -0.59883 
0.115895 0.0107233 -0.584091 0.104675 0.0051549 -0.568961 0.093081 -0.000398022 -0.553403 
0.0812349 -0.00588665 -0.53737 0.0692637 -0.0112642 -0.520812 0.0572877 -0.0164846 -0.503682 
0.0454109 -0.0215012 -0.485945 0.033713 -0.0262655 -0.467577 0.0222443 -0.0307264 -0.448565 
0.0110243 -0.0348306 -0.428908 4.43331e-05 -0.0385236 -0.408612 -0.0107262 -0.0417516 -0.387683 
-0.0213303 -0.0444648 -0.366122 -0.0318119 -0.0466206 -0.343926 -0.0422033 -0.0481871 -0.321085 
-0.052513 -0.049147 -0.297579 -0.0627161 -0.0494997 -0.273388 -0.0727471 -0.0492633 -0.248493 
-0.0824972 -0.0484745 -0.222888 -0.0918164 -0.0471866 -0.19658 -0.10052 -0.045467 -0.169603 
-0.108399 -0.0433921 -0.142021 -0.115237 -0.0410421 -0.113925 -0.12082 -0.038495 -0.0854409 
-0.12496 -0.0358212 -0.056716 -0.127508 -0.0330785 -0.0279179 -0.128364 -0.030309 0.000777896 
-0.12749 -0.027538 0.0291981 -0.12491 -0.0247745 0.0571827 -0.120712 -0.0220144 0.0845945 
-0.115042 -0.0192447 0.111326 -0.10809 -0.0164498 0.137305 -0.100078 -0.0136178 0.162494 
-0.0912465 -0.0107463 0.186887 -0.0818328 -0.00784795 0.210508 -0.0720606 -0.00495364 0.233397 
-0.0621256 -0.00211341 0.255608 -0.0521862 0.000604814 0.277197 -0.0423591 0.00311912 0.298216 
-0.0327187 0.00533958 0.318705 -0.0233008 0.00717566 0.338693 -0.0141091 0.00854432 0.358196 
-0.00512482 0.00937781 0.377219 0.00368294 0.0096304 0.395759 0.0123474 0.00928299 0.413811 
0.0208948 0.00834544 0.431372 0.0293381 0.00685591 0.448449 0.0376729 0.00487759 0.465052 
0.0458764 0.00249304 0.481205 0.0539094 -0.000203166 0.496938 0.0617204 -0.00311259 0.512284 
0.0692515 -0.00614107 0.527274 0.0764443 -0.00920572 0.541935 0.0832464 -0.0122402 0.556278 
0.0896161 -0.0151976 0.5703 0.0955259 -0.0180506 0.583977 0.100964 -0.0207897 0.597265 
0.105933 -0.0234182 0.610107 0.11045 -0.0259473 0.622429 0.114538 -0.0283893 0.634154 
0.118227 -0.0307521 0.645202 0.121546 -0.0330343 0.655506 0.124521 -0.0352224 0.665009 
0.127173 -0.0372905 0.673677 0.129517 -0.0392021 0.681497 0.13156 -0.0409143 0.688478 
0.133305 -0.042383 0.694652 0.134757 -0.0435698 0.700065 0.135921 -0.0444481 0.704777 
0.136806 -0.0450084 0.708852 0.137433 -0.0452621 0.712356 0.137828 -0.0452423 0.715349 
0.138028 -0.0450023 0.71788 0.138077 -0.0446119 0.719991 0.138023 -0.0441506 0.721711 
0.137914 -0.0437 0.723056 0.137792 -0.0433355 0.724039 0.137694 -0.0431183 0.724663 
0.137639 -0.0430887 0.72493 
LINES 2 100
OFFSETS vtktypeint64
0 100 
CONNECTIVITY vtktypeint64
0 1 2 3 4 5 6 7 8 
9 10 11 12 13 14 15 16 17 
18 19 20 21 22 23 24 25 26 
27 28 29 30 31 32 33 34 35 
36 37 38 39 40 41 42 43 44 
45 46 47 48 49 50 51 52 53 
54 55 56 57 58 59 60 61 62 
63 64 65 66 67 68 69 70 71 
72 73 74 75 76 77 78 79 80 
81 82 83 84 85 86 87 88 89 
90 91 92 93 94 95 96 97 98 
99 
POINT_DATA 100
FIELD FieldData 3
_theta 1 100 double
0 0.031733259127 0.063466518254 0.095199777382 0.12693303651 0.15866629564 0.19039955476 0.22213281389 0.25386607302 
0.28559933214 0.31733259127 0.3490658504 0.38079910953 0.41253236865 0.44426562778 0.47599888691 0.50773214603 0.53946540516 
0.57119866429 0.60293192342 0.63466518254 0.66639844167 0.6981317008 0.72986495992 0.76159821905 0.79333147818 0.82506473731 
0.85679799643 0.88853125556 0.92026451469 0.95199777382 0.98373103294 1.0154642921 1.0471975512 1.0789308103 1.1106640695 
1.1423973286 1.1741305877 1.2058638468 1.237597106 1.2693303651 1.3010636242 1.3327968833 1.3645301425 1.3962634016 
1.4279966607 1.4597299198 1.491463179 1.5231964381 1.5549296972 1.5866629564 1.6183962155 1.6501294746 1.6818627337 
1.7135959929 1.745329252 1.7770625111 1.8087957702 1.8405290294 1.8722622885 1.9039955476 1.9357288068 1.9674620659 
1.999195325 2.0309285841 2.0626618433 2.0943951024 2.1261283615 2.1578616206 2.1895948798 2.2213281389 2.253061398 
2.2847946572 2.3165279163 2.3482611754 2.3799944345 2.4117276937 2.4434609528 2.4751942119 2.506927471 2.5386607302 
2.5703939893 2.6021272484 2.6338605076 2.6655937667 2.6973270258 2.7290602849 2.7607935441 2.7925268032 2.8242600623 
2.8559933214 2.8877265806 2.9194598397 2.9511930988 2.982926358 3.0146596171 3.0463928762 3.0781261353 3.1098593945 
3.1415926536 
_radius 1 100 double
5.5580496856e-16 0.017540112139 0.034844502309 0.051695365372 0.067911630239 0.083360716037 0.097963079213 0.11168889254 0.12454770241 
0.13657338545 0.14780769392 0.15828578242 0.16802630257 0.17702725134 0.18526729579 0.19271128947 0.19931837802 0.20505130068 
0.2098858272 0.21381940943 0.21687803651 0.2191201547 0.22063658053 0.22154573726 0.22198427795 0.22209407916 0.2220074509 
0.22183293438 0.22164406817 0.22147298755 0.22130985316 0.2211081365 0.22079495825 0.22028512221 0.21949723122 0.2183702068 
0.21687850403 0.21504421379 0.21294411027 0.2107097341 0.20851915396 0.20658047691 0.20510943509 0.20430554851 0.2043318883 
0.20530154362 0.20727076368 0.21023673286 0.21413813327 0.21885814871 0.22423080018 0.23005162436 0.23609281145 0.24212162058 
0.24791984189 0.25330165789 0.25812751297 0.26231232845 0.26582733913 0.2686957571 0.27098323893 0.27278465026 0.27420885748 
0.27536327082 0.27633970801 0.27720293737 0.27798301649 0.27867220272 0.27922668789 0.27957272257 0.27961602662 0.27925295691 
0.27838179405 0.27691260465 0.27477432329 0.27191805669 0.26831628845 0.26395859164 0.25884529956 0.25298097305 0.2463692985 
0.23901040107 0.23090075654 0.22203521625 0.2124102907 0.20202778849 0.19089808136 0.1790425145 0.16649468769 0.15330046533 
0.1395166836 0.12520868389 0.11044701971 0.095303869158 0.079849708266 0.064150640356 0.048266570183 0.032250331814 0.016147924638 
9.3445347956e-16 
_area 1 100 double
0 0.00066714765722 0.002668990228 0.0059994550608 0.010627576046 0.016476981491 0.02341409348 0.031251562474 0.039765442824 
0.0487182174 0.057878440353 0.067031085263 0.075977951558 0.084531780463 0.092509514044 0.099729760502 0.10601816107 0.11122220241 
0.11523354779 0.11801186079 0.11960166433 0.12013487413 0.11981606856 0.1188933701 0.11762262581 0.11623463484 0.1149136382 
0.11378931686 0.11293350296 0.11235199701 0.11199251477 0.11177720405 0.11162599339 0.11146595598 0.11123861586 0.11090560087 
0.11045128728 0.10988809965 0.10926853908 0.10869803633 0.10833449275 0.10836235718 0.10895041555 0.11022393935 0.1122685851 
0.11514808169 0.11891224068 0.12359049497 0.12917705232 0.13561665419 0.1427978979 0.15055438998 0.15867037771 0.16688973945 
0.17493033059 0.18250571246 0.18935317048 0.19526316233 0.20010352582 0.20383275312 0.206499609 0.20822989207 0.20920377426 
0.20962783893 0.20970431628 0.20959794481 0.20940453534 0.20913533055 0.20872746534 0.20806906004 0.20702171051 0.20543677998 
0.20317019948 0.20009960161 0.19614320175 0.1912733914 0.18551567012 0.17893162747 0.17159591887 0.16357948749 0.15494413317 
0.14574588854 0.13604206839 0.12589776443 0.11538943871 0.1046055622 0.0936465158 0.082626545395 0.071677948706 0.060953744992 
0.050624452331 0.040868421915 0.031859326974 0.023755269974 0.01669194337 0.010779764218 0.0061037094831 0.0027248261232 0.00068294042916 
4.9009470048e-17 
