# vtk DataFile Version 5.1
vtk output
ASCII
DATASET POLYDATA
POINTS 100 float
0.105175 0.0378119 -0.666046 0.105198 0.0377122 -0.666249 0.105331 0.0372746 -0.666853 
0.105575 0.0365247 -0.667696 0.105925 0.0355011 -0.668524 0.106374 0.034252 -0.669025 
0.106906 0.0328291 -0.668861 0.107493 0.0312828 -0.667705 0.108092 0.0296562 -0.665274 
0.108645 0.027981 -0.661359 0.109078 0.0262736 -0.655842 0.109296 0.024534 -0.648706 
0.109192 0.0227461 -0.64003 0.10865 0.0208793 -0.629974 0.107548 0.0188923 -0.618756 
0.105768 0.016738 -0.606621 0.103203 0.014369 -0.593815 0.0997663 0.0117432 -0.580555 
0.0953995 0.00882892 -0.567006 0.0900768 0.00560943 -0.553269 0.0838103 0.002086 -0.539373 
0.0766502 -0.00172054 -0.525284 0.0686832 -0.00576976 -0.510918 0.0600265 -0.0100031 -0.496154 
0.0508197 -0.0143465 -0.480867 0.041214 -0.0187144 -0.464938 0.0313613 -0.0230141 -0.448282 
0.0214016 -0.0271502 -0.430857 0.0114538 -0.0310296 -0.412668 0.0016073 -0.0345657 -0.393769 
-0.00808201 -0.0376821 -0.374247 -0.0175915 -0.0403158 -0.354217 -0.0269279 -0.0424199 -0.333795 
-0.0361183 -0.0439644 -0.313084 -0.0451994 -0.0449377 -0.292162 -0.0542036 -0.0453463 -0.271067 
-0.0631453 -0.0452144 -0.249792 -0.0720087 -0.0445824 -0.228295 -0.0807382 -0.0435048 -0.206502 
-0.0892338 -0.0420481 -0.184322 -0.0973507 -0.040287 -0.161669 -0.104906 -0.0383011 -0.138475 
-0.11169 -0.0361709 -0.114708 -0.117481 -0.0339735 -0.0903805 -0.122064 -0.0317783 -0.065559 
-0.125252 -0.029644 -0.0403581 -0.1269 -0.0276145 -0.0149338 -0.126925 -0.0257179 0.0105309 
-0.125312 -0.0239649 0.0358434 -0.122121 -0.0223499 0.0608199 -0.117481 -0.0208527 0.0853031 
-0.111582 -0.0194423 0.109176 -0.10466 -0.0180809 0.132368 -0.0969769 -0.0167297 0.154862 
-0.0887986 -0.015354 0.176684 -0.0803754 -0.0139286 0.197895 -0.071922 -0.0124424 0.218579 
-0.063604 -0.0109011 0.238824 -0.0555287 -0.00932881 0.258705 -0.0477441 -0.00776732 0.278277 
-0.0402425 -0.00627369 0.297559 -0.0329717 -0.00491586 0.316535 -0.0258488 -0.00376697 0.335157 
-0.0187773 -0.00289883 0.353352 -0.011664 -0.00237515 0.371034 -0.00443383 -0.00224532 0.388119 
0.00295852 -0.00253925 0.404542 0.0105222 -0.00326394 0.420265 0.0182291 -0.00440204 0.435287 
0.0260177 -0.00591271 0.44965 0.0338019 -0.00773447 0.463432 0.0414822 -0.00979002 0.476742 
0.0489582 -0.0119924 0.489704 0.0561409 -0.0142518 0.502448 0.0629618 -0.0164827 0.515086 
0.0693792 -0.0186101 0.527703 0.0753792 -0.0205748 0.54034 0.0809735 -0.0223368 0.552995 
0.0861917 -0.0238775 0.565615 0.091072 -0.0251985 0.5781 0.0956506 -0.0263201 0.59032 
0.0999511 -0.0272776 0.60212 0.103977 -0.0281161 0.613337 0.107706 -0.0288855 0.623821 
0.111093 -0.0296352 0.633441 0.114071 -0.030409 0.642101 0.116563 -0.0312415 0.649746 
0.118493 -0.0321548 0.656363 0.119797 -0.0331579 0.661978 0.12044 -0.0342456 0.666653 
0.120425 -0.0354004 0.670475 0.119798 -0.0365939 0.673548 0.118652 -0.0377901 0.67598 
0.117122 -0.038948 0.677879 0.115373 -0.0400253 0.679341 0.11359 -0.0409808 0.680447 
0.11196 -0.0417778 0.681265 0.11065 -0.0423857 0.681842 0.109796 -0.0427819 0.682212 
0.109484 -0.0429531 0.682391 
LINES 2 100
OFFSETS vtktypeint64
0 100 
CONNECTIVITY vtktypeint64
0 1 2 3 4 5 6 7 8 
9 10 11 12 13 14 15 16 17 
18 19 20 21 22 23 24 25 26 
27 28 29 30 31 32 33 34 35 
36 37 38 39 40 41 42 43 44 
45 46 47 48 49 50 51 52 53 
54 55 56 57 58 59 60 61 62 
63 64 65 66 67 68 69 70 71 
72 73 74 75 76 77 78 79 80 
81 82 83 84 85 86 87 88 89 
90 91 92 93 94 95 96 97 98 
99 
POINT_DATA 100
FIELD FieldData 3
_theta 1 100 double
0 0.031733259127 0.063466518254 0.095199777382 0.12693303651 0.15866629564 0.19039955476 0.22213281389 0.25386607302 
0.28559933214 0.31733259127 0.3490658504 0.38079910953 0.41253236865 0.44426562778 0.47599888691 0.50773214603 0.53946540516 
0.57119866429 0.60293192342 0.63466518254 0.66639844167 0.6981317008 0.72986495992 0.76159821905 0.79333147818 0.82506473731 
0.85679799643 0.88853125556 0.92026451469 0.95199777382 0.98373103294 1.0154642921 1.0471975512 1.0789308103 1.1106640695 
1.1423973286 1.1741305877 1.2058638468 1.237597106 1.2693303651 1.3010636242 1.3327968833 1.3645301425 1.3962634016 
1.4279966607 1.4597299198 1.491463179 1.5231964381 1.5549296972 1.5866629564 1.6183962155 1.6501294746 1.6818627337 
1.7135959929 1.745329252 1.7770625111 1.8087957702 1.8405290294 1.8722622885 1.9039955476 1.9357288068 1.9674620659 
1.999195325 2.0309285841 2.0626618433 2.0943951024 2.1261283615 2.1578616206 2.1895948798 2.2213281389 2.253061398 
2.2847946572 2.3165279163 2.3482611754 2.3799944345 2.4117276937 2.4434609528 2.4751942119 2.506927471 2.5386607302 
2.5703939893 2.6021272484 2.6338605076 2.6655937667 2.6973270258 2.7290602849 2.7607935441 2.7925268032 2.8242600623 
2.8559933214 2.8877265806 2.9194598397 2.9511930988 2.982926358 3.0146596171 3.0463928762 3.0781261353 3.1098593945 
3.1415926536 
_radius 1 100 double
1.3385592163e-15 0.015095957701 0.030046314381 0.044708882441 0.058951956527 0.072662615805 0.085755920227 0.098182434681 0.10993137388 
0.12102737016 0.13152014959 0.14146807361 0.15091834919 0.15988829088 0.16835262478 0.17624081906 0.18344583241 0.18984245768 
0.19531098015 0.19976100894 0.20315097604 0.20550025986 0.20689251708 0.20747021592 0.20742143565 0.2069607652 0.20630668003 
0.20565815157 0.20517343233 0.20495388547 0.20503526134 0.20538783619 0.2059254156 0.2065217823 0.20703217113 0.20731688987 
0.2072641087 0.2068089863 0.20594675423 0.20473822958 0.20330729363 0.20183078706 0.20052186376 0.19960830407 0.19930784589 
0.19980324974 0.20122032851 0.20361217409 0.20695199398 0.2111354327 0.21599163892 0.22130129632 0.22681936511 0.23229995653 
0.23752042954 0.2423017126 0.24652227613 0.250124103 0.25311021288 0.25553454278 0.2574860689 0.2590698182 0.26038774078 
0.26152222489 0.26252435791 0.26340802054 0.26414981546 0.26469395339 0.26496072306 0.26485705938 0.26428786388 0.26316694143 
0.26142655212 0.25902459266 0.25594840301 0.252214324 0.24786259388 0.24294801273 0.23752785528 0.23164940916 0.2253398463 
0.21860066615 0.21140778055 0.20371685161 0.19547225924 0.18661743339 0.17710432246 0.16690033662 0.15599195019 0.14438503601 
0.13210274665 0.11918218963 0.10567114301 0.091625616879 0.077108388852 0.062188096754 0.046938357225 0.031436668985 0.015763236193 
4.8253761269e-16 
_area 1 100 double
0 0.00050714955999 0.0020527394312 0.0046879031061 0.0084429682999 0.01328437659 0.019096778904 0.025692922222 0.032842627009 
0.040308495382 0.047877031812 0.05537705067 0.062681215583 0.069690877495 0.076309145546 0.082412437055 0.087834850428 0.092377365934 
0.095842460185 0.098081824675 0.09904039797 0.098784397 0.097508608457 0.095522967171 0.093215478105 0.090984511231 0.089160558272 
0.087967360763 0.087521595417 0.087835413837 0.088820230271 0.090306183436 0.092077148346 0.09390929342 0.09560413005 0.097014636023 
0.09806742859 0.098786123405 0.099313818512 0.099871688581 0.10058186417 0.10143134476 0.10242436267 0.10364457792 0.10522664154 
0.10731984726 0.1100749372 0.1136302776 0.11808398865 0.12345988261 0.12968015532 0.13655688584 0.14380856294 0.15109932022 
0.15809101288 0.16449409999 0.17010449738 0.17481937634 0.17863214281 0.18161230548 0.18387782532 0.18556628395 0.18680887597 
0.18770966524 0.18833216771 0.18869503624 0.18877595226 0.18851569382 0.18781293049 0.18652517982 0.1844996745 0.18161564744 
0.17781291067 0.17310508819 0.16758160577 0.16139811245 0.15475221138 0.14784422589 0.14083082959 0.13378785413 0.12669910446 
0.11947641024 0.11200055392 0.10416587176 0.095915351018 0.087260484701 0.078285128453 0.069134748118 0.059993915672 0.051057306951 
0.042502278056 0.034471807822 0.027072904307 0.020388575531 0.014495396453 0.0094771369835 0.0054281720848 0.0024459923423 0.00061679657856 
7.942128815e-17 
