# vtk DataFile Version 5.1
vtk output
ASCII
DATASET POLYDATA
POINTS 100 float
0.103604 0.10639 -0.690207 0.103722 0.106344 -0.689653 0.104069 0.105998 -0.68794 
0.104615 0.105323 -0.685113 0.105311 0.104275 -0.681248 0.106098 0.1028 -0.676442 
0.106913 0.100843 -0.670812 0.107694 0.0983487 -0.664482 0.108385 0.095274 -0.65758 
0.108939 0.0915897 -0.650225 0.109316 0.0872854 -0.642522 0.109485 0.0823708 -0.634553 
0.109411 0.0768759 -0.626371 0.109056 0.0708486 -0.617999 0.108371 0.0643511 -0.609425 
0.107288 0.057455 -0.600608 0.105722 0.0502365 -0.591477 0.10357 0.0427715 -0.581941 
0.100719 0.0351324 -0.571895 0.0970528 0.0273849 -0.561233 0.0924638 0.019588 -0.549852 
0.0868679 0.0117946 -0.537669 0.0802164 0.00405361 -0.524619 0.0725072 -0.0035869 -0.51067 
0.0637916 -0.0110761 -0.495821 0.0541764 -0.0183572 -0.480103 0.0438196 -0.0253654 -0.463574 
0.0329212 -0.0320271 -0.446317 0.021708 -0.0382607 -0.428426 0.0104158 -0.0439791 -0.410004 
-0.000729559 -0.0490946 -0.391144 -0.0115307 -0.0535244 -0.371928 -0.0218336 -0.0571968 -0.352416 
-0.0315371 -0.0600576 -0.332641 -0.040596 -0.0620757 -0.312607 -0.0490173 -0.0632473 -0.292293 
-0.0568502 -0.0635976 -0.271653 -0.0641701 -0.0631808 -0.250628 -0.0710603 -0.0620774 -0.229151 
-0.0775926 -0.0603889 -0.207158 -0.0838104 -0.0582314 -0.184597 -0.0897147 -0.0557273 -0.16144 
-0.0952582 -0.052997 -0.137681 -0.100345 -0.0501506 -0.113347 -0.104839 -0.0472815 -0.0884964 
-0.108575 -0.0444609 -0.0632157 -0.11138 -0.0417351 -0.0376151 -0.113094 -0.0391254 -0.0118223 
-0.113585 -0.0366298 0.0140254 -0.112772 -0.0342278 0.0397895 -0.110633 -0.0318856 0.0653373 
-0.107209 -0.0295637 0.0905481 -0.102603 -0.0272234 0.115318 -0.0969686 -0.0248335 0.139561 
-0.0904941 -0.0223759 0.16321 -0.0833838 -0.0198494 0.186216 -0.0758367 -0.0172712 0.208545 
-0.0680278 -0.0146769 0.230176 -0.0600933 -0.0121177 0.251094 -0.0521212 -0.00965715 0.271294 
-0.0441495 -0.00736536 0.290773 -0.0361712 -0.00531327 0.309534 -0.0281449 -0.00356665 0.327587 
-0.0200106 -0.00218054 0.344945 -0.0117065 -0.00119462 0.361634 -0.00318636 -0.000629972 0.377687 
0.00556674 -0.000487341 0.393153 0.0145315 -0.000747025 0.408089 0.0236456 -0.00137035 0.422566 
0.0328093 -0.00230249 0.43666 0.0418952 -0.00347636 0.45045 0.0507622 -0.00481722 0.464013 
0.059272 -0.00624757 0.477415 0.0673058 -0.00769202 0.490709 0.0747774 -0.0090817 0.503923 
0.0816436 -0.010358 0.517061 0.0879066 -0.0114755 0.530098 0.0936116 -0.0124035 0.542982 
0.0988378 -0.0131271 0.555634 0.103684 -0.0136466 0.567955 0.108253 -0.0139761 0.579832 
0.112634 -0.0141416 0.591144 0.116889 -0.0141778 0.601775 0.121041 -0.0141254 0.611618 
0.125072 -0.0140272 0.620584 0.128921 -0.0139248 0.628608 0.132499 -0.0138559 0.635657 
0.135696 -0.0138509 0.641723 0.138404 -0.0139314 0.646831 0.140532 -0.0141089 0.651031 
0.142021 -0.0143839 0.654399 0.142862 -0.0147467 0.657026 0.143093 -0.0151787 0.659015 
0.142807 -0.0156538 0.660474 0.142139 -0.0161413 0.661509 0.141253 -0.0166085 0.662219 
0.140323 -0.0170237 0.662692 0.139514 -0.017359 0.663 0.13896 -0.0175926 0.663193 
0.138748 -0.0177111 0.663304 
LINES 2 100
OFFSETS vtktypeint64
0 100 
CONNECTIVITY vtktypeint64
0 1 2 3 4 5 6 7 8 
9 10 11 12 13 14 15 16 17 
18 19 20 21 22 23 24 25 26 
27 28 29 30 31 32 33 34 35 
36 37 38 39 40 41 42 43 44 
45 46 47 48 49 50 51 52 53 
54 55 56 57 58 59 60 61 62 
63 64 65 66 67 68 69 70 71 
72 73 74 75 76 77 78 79 80 
81 82 83 84 85 86 87 88 89 
90 91 92 93 94 95 96 97 98 
99 
POINT_DATA 100
FIELD FieldData 3
_theta 1 100 double
0 0.031733259127 0.063466518254 0.095199777382 0.12693303651 0.15866629564 0.19039955476 0.22213281389 0.25386607302 
0.28559933214 0.31733259127 0.3490658504 0.38079910953 0.41253236865 0.44426562778 0.47599888691 0.50773214603 0.53946540516 
0.57119866429 0.60293192342 0.63466518254 0.66639844167 0.6981317008 0.72986495992 0.76159821905 0.79333147818 0.82506473731 
0.85679799643 0.88853125556 0.92026451469 0.95199777382 0.98373103294 1.0154642921 1.0471975512 1.0789308103 1.1106640695 
1.1423973286 1.1741305877 1.2058638468 1.237597106 1.2693303651 1.3010636242 1.3327968833 1.3645301425 1.3962634016 
1.4279966607 1.4597299198 1.491463179 1.5231964381 1.5549296972 1.5866629564 1.6183962155 1.6501294746 1.6818627337 
1.7135959929 1.745329252 1.7770625111 1.8087957702 1.8405290294 1.8722622885 1.9039955476 1.9357288068 1.9674620659 
1.999195325 2.0309285841 2.0626618433 2.0943951024 2.1261283615 2.1578616206 2.1895948798 2.2213281389 2.253061398 
2.2847946572 2.3165279163 2.3482611754 2.3799944345 2.4117276937 2.4434609528 2.4751942119 2.506927471 2.5386607302 
2.5703939893 2.6021272484 2.6338605076 2.6655937667 2.6973270258 2.7290602849 2.7607935441 2.7925268032 2.8242600623 
2.8559933214 2.8877265806 2.9194598397 2.9511930988 2.982926358 3.0146596171 3.0463928762 3.0781261353 3.1098593945 
3.1415926536 
_radius 1 100 double
1.2419650931e-15 0.013443080696 0.026782480379 0.039923030831 0.052796491939 0.065367572578 0.077632242138 0.089608321417 0.10132018845 
0.11278099613 0.1239765288 0.13485443898 0.14532125891 0.15524777898 0.16448170411 0.1728653417 0.18025555344 0.18654319409 
0.19166955595 0.19563777781 0.19851770208 0.20044329081 0.20160247945 0.20222026179 0.20253678264 0.20278309414 0.20315777305 
0.20380759371 0.20481481262 0.20619245157 0.20788758934 0.20979153442 0.21175517701 0.21360777349 0.2151775383 0.21631232288 
0.21689829258 0.2168742345 0.21623942412 0.21505401113 0.21343233474 0.21153089366 0.20953343023 0.20763556149 0.20603067874 
0.20489774796 0.20439067995 0.20462864221 0.20568729816 0.20759211169 0.21031564606 0.21378045258 0.21786775548 0.2224305042 
0.22730829201 0.2323414351 0.2373820252 0.24230071476 0.24698907253 0.25135830635 0.25533578337 0.25886097445 0.26188222387 
0.26435522577 0.26624344878 0.26752015364 0.26817121562 0.26819776764 0.26761774081 0.26646565921 0.2647904573 0.26265150016 
0.26011326139 0.2572391703 0.25408502473 0.25069225045 0.24708134642 0.24324612811 0.23914973402 0.23472356666 0.22987019625 
0.22447068987 0.21839594449 0.21152066292 0.20373791796 0.19497201117 0.18518758863 0.17439363111 0.16264182644 0.15001978919 
0.13664045045 0.12262954288 0.10811332168 0.093208435579 0.078015244473 0.062615034774 0.047070728523 0.031430037841 0.015729748896 
3.7777846636e-16 
_area 1 100 double
0 0.00052236165656 0.0020738550742 0.0046088951893 0.008055424249 0.012320553266 0.017297756557 0.0228745102 0.02893868083 
0.035381599907 0.042096019305 0.048968551356 0.055868829723 0.062640306665 0.069098221958 0.075037944418 0.080253098897 0.084559805927 
0.087821877466 0.08997179483 0.091023462325 0.091074755592 0.090300204742 0.088936127855 0.087261566557 0.085577687411 0.084185049976 
0.083353385118 0.083279477156 0.084045007149 0.085603563776 0.087808282432 0.090455661652 0.093319187945 0.096169908412 0.098796846592 
0.10103719207 0.10280934798 0.10413039272 0.10510686735 0.10588903904 0.10658119404 0.10727206924 0.10807487893 0.10916907811 
0.11074002444 0.11291176657 0.11562076441 0.11881930645 0.1225265429 0.1267868518 0.13163646604 0.13707684101 0.14305671616 
0.14946582959 0.15614076037 0.16288046416 0.16946702901 0.17568674489 0.18134773112 0.18629209383 0.19040169464 0.19359715674 
0.19583102739 0.19707848243 0.19733065827 0.19659385516 0.19489265888 0.1922720975 0.18879811603 0.18455933561 0.17966820152 
0.17425685572 0.16846839065 0.16244597188 0.15631878309 0.15018370828 0.14408649373 0.13801015853 0.13187754645 0.12556937063 
0.11895225465 0.11190795087 0.10435717774 0.096275957508 0.087704435142 0.0787473278 0.069564307584 0.060350311989 0.051309635244 
0.04263121888 0.034473240237 0.026961325135 0.020197636606 0.014272718314 0.0092727429129 0.0052798954379 0.0023678223364 0.00059522868796 
8.5576984416e-17 
