# vtk DataFile Version 5.1
vtk output
ASCII
DATASET POLYDATA
POINTS 100 float
0.094694 0.0635422 -0.635131 0.0946141 0.0633379 -0.634848 0.0943533 0.0624861 -0.633957 
0.0939247 0.0610272 -0.632458 0.0933486 0.0590244 -0.630352 0.0926499 0.0565563 -0.627643 
0.0918556 0.0537084 -0.624334 0.0909903 0.050563 -0.620431 0.0900725 0.0471911 -0.615941 
0.0891104 0.0436453 -0.61087 0.0880975 0.0399556 -0.605225 0.08701 0.0361285 -0.599009 
0.0858045 0.0321495 -0.592222 0.0844181 0.0279885 -0.584859 0.08277 0.0236078 -0.576909 
0.080766 0.0189712 -0.568354 0.0783041 0.0140535 -0.55917 0.0752828 0.00884916 -0.54933 
0.0716098 0.0033782 -0.538804 0.0672113 -0.00231012 -0.527564 0.0620406 -0.00813753 -0.515589 
0.056085 -0.0140004 -0.502863 0.0493697 -0.0197765 -0.489385 0.0419589 -0.0253343 -0.475165 
0.0339529 -0.0305435 -0.46023 0.0254818 -0.0352857 -0.444619 0.0166955 -0.0394645 -0.428384 
0.00775217 -0.0430125 -0.411584 -0.00119479 -0.0458962 -0.39428 -0.0100092 -0.048117 -0.376531 
-0.0185826 -0.0497087 -0.358388 -0.0268418 -0.0507315 -0.33989 -0.0347513 -0.0512642 -0.321056 
-0.0423126 -0.0513942 -0.30189 -0.0495569 -0.0512076 -0.282377 -0.0565354 -0.0507804 -0.262489 
-0.0633054 -0.0501706 -0.242185 -0.069916 -0.0494146 -0.221421 -0.076394 -0.0485251 -0.200158 
-0.0827322 -0.0474934 -0.178365 -0.0888815 -0.0462944 -0.156031 -0.0947486 -0.044893 -0.133164 
-0.100199 -0.0432526 -0.109801 -0.105067 -0.0413437 -0.0860031 -0.109168 -0.039151 -0.0618562 
-0.112314 -0.0366791 -0.037467 -0.114339 -0.0339555 -0.0129561 -0.115108 -0.0310306 0.0115491 
-0.114538 -0.0279749 0.0359219 -0.112607 -0.0248735 0.0600437 -0.10936 -0.0218183 0.0838105 
-0.104903 -0.0188999 0.107137 -0.0993977 -0.0161994 0.129959 -0.0930475 -0.0137804 0.152234 
-0.0860781 -0.0116841 0.173937 -0.0787183 -0.00992608 0.195062 -0.0711803 -0.00849656 0.215612 
-0.0636425 -0.00736303 0.235595 -0.0562367 -0.00647569 0.255024 -0.0490417 -0.0057746 0.273908 
-0.0420821 -0.00519777 0.292251 -0.035334 -0.00468925 0.310055 -0.0287363 -0.0042062 0.327317 
-0.0222047 -0.00372414 0.344034 -0.0156481 -0.00323974 0.360205 -0.00898454 -0.00277097 0.375835 
-0.00215504 -0.00235437 0.390937 0.00486715 -0.00204016 0.405537 0.0120717 -0.00188545 0.419671 
0.0194121 -0.00194663 0.433385 0.0268111 -0.00227173 0.446734 0.0341709 -0.00289375 0.459774 
0.0413847 -0.00382566 0.472558 0.0483504 -0.00505772 0.485131 0.0549817 -0.00655742 0.497521 
0.0612176 -0.00827199 0.509739 0.0670275 -0.0101332 0.521769 0.0724118 -0.012064 0.533571 
0.0773986 -0.0139858 0.545084 0.0820362 -0.0158261 0.556222 0.0863832 -0.0175257 0.566887 
0.090498 -0.0190431 0.576973 0.0944284 -0.0203585 0.586372 0.0982036 -0.021474 0.594986 
0.10183 -0.0224116 0.602732 0.105289 -0.02321 0.60955 0.108541 -0.0239178 0.615407 
0.111535 -0.0245874 0.620302 0.114213 -0.0252678 0.624261 0.11652 -0.0259981 0.627342 
0.118418 -0.0268025 0.629627 0.119892 -0.0276869 0.63122 0.120952 -0.0286384 0.632238 
0.121636 -0.0296264 0.632803 0.122005 -0.0306061 0.633041 0.122137 -0.0315241 0.633067 
0.122118 -0.0323243 0.632986 0.12203 -0.0329548 0.632883 0.121941 -0.0333738 0.632822 
0.121895 -0.0335549 0.63284 
LINES 2 100
OFFSETS vtktypeint64
0 100 
CONNECTIVITY vtktypeint64
0 1 2 3 4 5 6 7 8 
9 10 11 12 13 14 15 16 17 
18 19 20 21 22 23 24 25 26 
27 28 29 30 31 32 33 34 35 
36 37 38 39 40 41 42 43 44 
45 46 47 48 49 50 51 52 53 
54 55 56 57 58 59 60 61 62 
63 64 65 66 67 68 69 70 71 
72 73 74 75 76 77 78 79 80 
81 82 83 84 85 86 87 88 89 
90 91 92 93 94 95 96 97 98 
99 
POINT_DATA 100
FIELD FieldData 3
_theta 1 100 double
0 0.031733259127 0.063466518254 0.095199777382 0.12693303651 0.15866629564 0.19039955476 0.22213281389 0.25386607302 
0.28559933214 0.31733259127 0.3490658504 0.38079910953 0.41253236865 0.44426562778 0.47599888691 0.50773214603 0.53946540516 
0.57119866429 0.60293192342 0.63466518254 0.66639844167 0.6981317008 0.72986495992 0.76159821905 0.79333147818 0.82506473731 
0.85679799643 0.88853125556 0.92026451469 0.95199777382 0.98373103294 1.0154642921 1.0471975512 1.0789308103 1.1106640695 
1.1423973286 1.1741305877 1.2058638468 1.237597106 1.2693303651 1.3010636242 1.3327968833 1.3645301425 1.3962634016 
1.4279966607 1.4597299198 1.491463179 1.5231964381 1.5549296972 1.5866629564 1.6183962155 1.6501294746 1.6818627337 
1.7135959929 1.745329252 1.7770625111 1.8087957702 1.8405290294 1.8722622885 1.9039955476 1.9357288068 1.9674620659 
1.999195325 2.0309285841 2.0626618433 2.0943951024 2.1261283615 2.1578616206 2.1895948798 2.2213281389 2.253061398 
2.2847946572 2.3165279163 2.3482611754 2.3799944345 2.4117276937 2.4434609528 2.4751942119 2.506927471 2.5386607302 
2.5703939893 2.6021272484 2.6338605076 2.6655937667 2.6973270258 2.7290602849 2.7607935441 2.7925268032 2.8242600623 
2.8559933214 2.8877265806 2.9194598397 2.9511930988 2.982926358 3.0146596171 3.0463928762 3.0781261353 3.1098593945 
3.1415926536 
_radius 1 100 double
1.1188630228e-16 0.013526796972 0.026998839351 0.040360952107 0.053568976785 0.066590600105 0.079401940252 0.091980706238 0.10429758084 
0.11630775173 0.12794431266 0.13911481783 0.14970181566 0.15956778499 0.16856448664 0.17654623048 0.18338592251 0.1889920897 
0.19332455643 0.19640624494 0.19832881546 0.19925056931 0.19938611791 0.19898858542 0.19832633594 0.19765719838 0.19720373811 
0.19713308387 0.19754392183 0.19846159256 0.19984052911 0.20157255585 0.20349999248 0.20543315568 0.20717176467 0.20852884711 
0.20935459632 0.20955688772 0.20911518165 0.20808537003 0.2065945818 0.204826722 0.2030012151 0.20134870735 0.20008799587 
0.19940776465 0.19945464577 0.20032650258 0.20206842931 0.20466991738 0.20806401805 0.21213094456 0.21670807271 0.22160618038 
0.22662947251 0.23159566512 0.23635250201 0.2407882027 0.24483488062 0.24846539168 0.25168507557 0.25452036692 0.25700636138 
0.25917524611 0.26104713367 0.26262432449 0.26388941469 0.26480704913 0.26532859979 0.26539870426 0.26496245526 0.26397207817 
0.26239214346 0.26020268217 0.25739991862 0.25399462437 0.25000832268 0.24546780692 0.24039873304 0.23481934335 0.22873551722 
0.22213818757 0.21500369756 0.20729702704 0.19897719269 0.1900037004 0.18034280101 0.16997246828 0.158885408 0.14708991293 
0.13460888081 0.12147769331 0.10774180556 0.09345477265 0.078677092718 0.063475823557 0.047924597492 0.032103523676 0.016098539859 
6.2353892908e-16 
_area 1 100 double
0 0.00057086347079 0.0022654172146 0.0050335295633 0.0088033175312 0.013493755666 0.019024625068 0.025319901088 0.032302986536 
0.039884931151 0.047949038081 0.056336355803 0.064836443017 0.073187010229 0.081084929371 0.088209398954 0.094255408887 0.098972393682 
0.10220028084 0.10389452066 0.10413398377 0.10311034483 0.10110288774 0.098446174414 0.095498090487 0.092612749858 0.09011893693 
0.088302575416 0.087391749168 0.087547206372 0.088873023171 0.09120574115 0.094303516648 0.097880566551 0.10159417506 0.10508617901 
0.10803802112 0.1102216208 0.11153415873 0.11201018438 0.11181003917 0.11119328076 0.11049142715 0.11001444798 0.10994399169 
0.1104070433 0.11151034873 0.11335130396 0.11601635033 0.11956037892 0.1239811416 0.12920361677 0.13508008955 0.14140336488 
0.14792857438 0.15440004278 0.16057936862 0.16626958494 0.17133051341 0.17568327774 0.17930582547 0.18222325421 0.18449531459 
0.18620001305 0.18740979513 0.1881621335 0.18844194208 0.18819190717 0.18733965145 0.18582304289 0.18360763938 0.18069550533 
0.17712422964 0.17295647448 0.16826377181 0.16311077657 0.15754543681 0.15159670666 0.14527736406 0.1385879917 0.13151981182 
0.1240573083 0.11618360065 0.10789044052 0.099191393152 0.090133920074 0.080805702376 0.071332712203 0.061869803589 0.052587137327 
0.043656439275 0.035240018359 0.027483750625 0.020513919509 0.014437083499 0.0093417334976 0.0053003248705 0.0023704868866 0.00059487750457 
1.1489256813e-17 
