# vtk DataFile Version 5.1
vtk output
ASCII
DATASET POLYDATA
POINTS 100 float
0.161806 0.0846758 -0.674831 0.161876 0.0844808 -0.674791 0.162085 0.0837195 -0.674587 
0.162419 0.0823952 -0.674171 0.162853 0.0805139 -0.673472 0.163351 0.0780836 -0.672404 
0.163864 0.0751143 -0.670875 0.164328 0.0716182 -0.6688 0.164669 0.0676095 -0.666103 
0.164796 0.0631055 -0.662729 0.164611 0.0581268 -0.658641 0.164008 0.052699 -0.65382 
0.162881 0.0468529 -0.648264 0.161129 0.0406268 -0.641973 0.158658 0.0340662 -0.634947 
0.155397 0.0272254 -0.627177 0.151293 0.0201668 -0.618634 0.146321 0.0129612 -0.609274 
0.140487 0.0056862 -0.599033 0.133822 -0.00157476 -0.587836 0.126388 -0.0087347 -0.575601 
0.118265 -0.0157051 -0.562256 0.10955 -0.0223985 -0.547746 0.100348 -0.0287303 -0.532044 
0.0907625 -0.0346213 -0.515164 0.0808895 -0.0399995 -0.497159 0.0708091 -0.0448011 -0.478122 
0.0605824 -0.0489722 -0.45818 0.0502489 -0.0524693 -0.437481 0.0398283 -0.0552598 -0.416182 
0.0293243 -0.0573229 -0.394428 0.0187318 -0.0586497 -0.372338 0.00804542 -0.0592437 -0.349994 
-0.00273034 -0.0591215 -0.327427 -0.0135716 -0.0583128 -0.304619 -0.0244266 -0.056861 -0.281504 
-0.0352094 -0.0548228 -0.25798 -0.0457979 -0.0522676 -0.233926 -0.0560341 -0.0492763 -0.209221 
-0.0657305 -0.0459387 -0.183763 -0.0746787 -0.0423512 -0.157492 -0.0826626 -0.0386128 -0.130403 
-0.089473 -0.0348209 -0.102559 -0.094923 -0.0310673 -0.0740894 -0.0988636 -0.0274336 -0.0451876 
-0.101196 -0.0239876 -0.016098 -0.101881 -0.0207807 0.0129029 -0.100945 -0.0178461 0.0415284 
-0.0984787 -0.0151994 0.0695048 -0.0946299 -0.0128393 0.0965935 -0.0895964 -0.0107514 0.122609 
-0.0836097 -0.00891172 0.147429 -0.0769181 -0.00729198 0.171003 -0.0697694 -0.00586435 0.193346 
-0.0623931 -0.00460622 0.214531 -0.0549858 -0.00350394 0.234676 -0.0476999 -0.00255511 0.253925 
-0.0406367 -0.00176931 0.272428 -0.0338455 -0.00116694 0.290329 -0.0273269 -0.000776523 0.307748 
-0.021041 -0.000630642 0.324776 -0.014919 -0.000761112 0.341472 -0.00887723 -0.00119398 0.35786 
-0.00283059 -0.00194501 0.373944 0.00329373 -0.00301628 0.389713 0.00954589 -0.00439433 0.405149 
0.0159463 -0.0060502 0.420244 0.0224827 -0.00794126 0.434998 0.0291114 -0.0100149 0.44943 
0.0357628 -0.0122131 0.463574 0.0423494 -0.0144781 0.477472 0.0487764 -0.0167576 0.49117 
0.0549523 -0.0190091 0.504703 0.0607994 -0.0212033 0.518092 0.0662618 -0.0233248 0.53133 
0.0713105 -0.0253715 0.54438 0.0759456 -0.0273516 0.557175 0.0801949 -0.0292791 0.569622 
0.0841081 -0.0311681 0.581611 0.0877506 -0.0330273 0.593025 0.0911941 -0.0348549 0.603758 
0.0945076 -0.0366343 0.613724 0.0977492 -0.038333 0.622872 0.100959 -0.0399034 0.631191 
0.104158 -0.0412855 0.638712 0.107341 -0.0424134 0.645507 0.110485 -0.0432219 0.651678 
0.11355 -0.0436554 0.657343 0.116485 -0.0436757 0.662626 0.119238 -0.0432695 0.667631 
0.121756 -0.0424529 0.672436 0.124 -0.0412741 0.677078 0.125943 -0.0398119 0.681548 
0.127572 -0.0381716 0.685791 0.128891 -0.0364772 0.689712 0.129914 -0.0348615 0.69319 
0.130665 -0.0334548 0.696091 0.131169 -0.0323736 0.698286 0.13145 -0.0317096 0.69967 
0.131524 -0.0315215 0.700173 
LINES 2 100
OFFSETS vtktypeint64
0 100 
CONNECTIVITY vtktypeint64
0 1 2 3 4 5 6 7 8 
9 10 11 12 13 14 15 16 17 
18 19 20 21 22 23 24 25 26 
27 28 29 30 31 32 33 34 35 
36 37 38 39 40 41 42 43 44 
45 46 47 48 49 50 51 52 53 
54 55 56 57 58 59 60 61 62 
63 64 65 66 67 68 69 70 71 
72 73 74 75 76 77 78 79 80 
81 82 83 84 85 86 87 88 89 
90 91 92 93 94 95 96 97 98 
99 
POINT_DATA 100
FIELD FieldData 3
_theta 1 100 double
0 0.031733259127 0.063466518254 0.095199777382 0.12693303651 0.15866629564 0.19039955476 0.22213281389 0.25386607302 
0.28559933214 0.31733259127 0.3490658504 0.38079910953 0.41253236865 0.44426562778 0.47599888691 0.50773214603 0.53946540516 
0.57119866429 0.60293192342 0.63466518254 0.66639844167 0.6981317008 0.72986495992 0.76159821905 0.79333147818 0.82506473731 
0.85679799643 0.88853125556 0.92026451469 0.95199777382 0.98373103294 1.0154642921 1.0471975512 1.0789308103 1.1106640695 
1.1423973286 1.1741305877 1.2058638468 1.237597106 1.2693303651 1.3010636242 1.3327968833 1.3645301425 1.3962634016 
1.4279966607 1.4597299198 1.491463179 1.5231964381 1.5549296972 1.5866629564 1.6183962155 1.6501294746 1.6818627337 
1.7135959929 1.745329252 1.7770625111 1.8087957702 1.8405290294 1.8722622885 1.9039955476 1.9357288068 1.9674620659 
1.999195325 2.0309285841 2.0626618433 2.0943951024 2.1261283615 2.1578616206 2.1895948798 2.2213281389 2.253061398 
2.2847946572 2.3165279163 2.3482611754 2.3799944345 2.4117276937 2.4434609528 2.4751942119 2.506927471 2.5386607302 
2.5703939893 2.6021272484 2.6338605076 2.6655937667 2.6973270258 2.7290602849 2.7607935441 2.7925268032 2.8242600623 
2.8559933214 2.8877265806 2.9194598397 2.9511930988 2.982926358 3.0146596171 3.0463928762 3.0781261353 3.1098593945 
3.1415926536 
_radius 1 100 double
1.2588308696e-15 0.014343739861 0.028595590778 0.042669930151 0.056504260517 0.070062250783 0.083327889177 0.096291226487 0.10892918593 
0.12118718415 0.13296764005 0.14412956733 0.15450015196 0.16389585869 0.17214837156 0.17913004757 0.18477430955 0.18908789309 
0.19215349459 0.19412279827 0.1952010163 0.19562506625 0.1956384642 0.19546683805 0.19529815067 0.19527057939 0.19546850367 
0.19592440161 0.19662325895 0.19750698243 0.19847867452 0.19940926485 0.20015029244 0.20055495996 0.20050524215 0.19993881654 
0.19886840829 0.19738746147 0.19565881691 0.1938877041 0.19228685244 0.19104620927 0.19031743532 0.19021464091 0.19082445207 
0.19221557089 0.19444063088 0.19752883079 0.20147349838 0.20622160569 0.21167101658 0.21767716947 0.22406693594 0.2306556584 
0.23726377254 0.24373061072 0.24992393707 0.25574444315 0.26112527682 0.26602773737 0.27043499406 0.27434556128 0.27776743692 
0.28071294335 0.28319394855 0.28521736019 0.28678127722 0.28787256801 0.28846664876 0.28852978885 0.28802351951 0.28690998312 
0.28515667941 0.28273924849 0.27964163534 0.27585392769 0.27136896237 0.26617913867 0.26027465211 0.25364370754 0.24627449745 
0.23815816468 0.22929179871 0.21968072793 0.20933979832 0.19829374879 0.18657703534 0.1742334515 0.16131568694 0.14788468476 
0.1340084532 0.1197599743 0.10521405955 0.090443357368 0.075514075915 0.060482198544 0.045390954718 0.030270078361 0.01513703028 
9.5769226614e-16 
_area 1 100 double
0 0.00052750115575 0.0021111468128 0.0047508429938 0.0084361124558 0.013135606666 0.018790347931 0.025312006248 0.03258173521 
0.040443306514 0.048689542993 0.057049503153 0.065188067633 0.072726179948 0.079281755376 0.08452283296 0.088219446294 0.090280804864 
0.090769087302 0.089888477282 0.087955641256 0.085360036797 0.082521085178 0.079844618377 0.07767574271 0.076256001916 0.075695969052 
0.075959102259 0.076905405131 0.078388779144 0.080299951132 0.082545080237 0.084999516944 0.087459947495 0.089688233355 0.09152487906 
0.092940102606 0.094014469415 0.094878398544 0.095651863015 0.096419049417 0.097234164834 0.09813951914 0.099194449362 0.10053883695 
0.10249696956 0.10522945999 0.1085886357 0.11265916021 0.1176202972 0.12359621446 0.1305741944 0.13838043557 0.14670751474 
0.15517607767 0.16341008998 0.17110600017 0.17808283031 0.18432868232 0.19007806379 0.19540775241 0.20022965935 0.20448076028 
0.20809915939 0.21101238145 0.21313994539 0.21440212034 0.21472691669 0.21405543267 0.21234711207 0.20958594284 0.20578746842 
0.20100461771 0.19532879178 0.18888294715 0.18180616201 0.17423304306 0.16627389965 0.15800142323 0.14944723781 0.14060859969 
0.13146291552 0.12198640029 0.11217312443 0.10205104297 0.091691865095 0.081212426068 0.070767201638 0.060534189221 0.050698151505 
0.041435202236 0.032901172234 0.02522428414 0.018501463312 0.012797439607 0.0081462957216 0.0045557121688 0.0020143099784 0.00050178545362 
6.0808953906e-17 
