# vtk DataFile Version 5.1
vtk output
ASCII
DATASET POLYDATA
POINTS 100 float
0.084884 0.0985548 -0.676467 0.0848957 0.0984487 -0.676139 0.0849123 0.0979199 -0.675156 
0.0849295 0.0969524 -0.673516 0.0849415 0.0955232 -0.671219 0.0849439 0.0936079 -0.668265 
0.0849349 0.0911862 -0.664658 0.0849169 0.0882479 -0.660403 0.0848961 0.084798 -0.655511 
0.08488 0.0808593 -0.649998 0.0848731 0.0764737 -0.643882 0.0848713 0.0716997 -0.637183 
0.0848548 0.0666082 -0.629921 0.0847819 0.0612762 -0.622113 0.084584 0.0557787 -0.613775 
0.0841636 0.0501814 -0.604912 0.0833954 0.0445341 -0.595526 0.0821325 0.0388654 -0.585607 
0.080216 0.0331815 -0.57514 0.077488 0.0274666 -0.564104 0.0738079 0.0216881 -0.552474 
0.0690674 0.0158034 -0.540224 0.0632056 0.00976902 -0.52733 0.0562194 0.00355112 -0.513774 
0.0481696 -0.00286521 -0.499543 0.0391801 -0.0094678 -0.484633 0.0294306 -0.0162121 -0.469046 
0.019143 -0.0230195 -0.452795 0.00856338 -0.0297796 -0.435893 -0.00205967 -0.0363561 -0.418359 
-0.0124966 -0.0425964 -0.400212 -0.0225563 -0.0483432 -0.381466 -0.0321012 -0.0534471 -0.362132 
-0.0410551 -0.0577794 -0.342218 -0.049404 -0.0612426 -0.321726 -0.0571886 -0.0637788 -0.300654 
-0.0644896 -0.0653734 -0.279002 -0.0714085 -0.0660557 -0.256775 -0.0780447 -0.065895 -0.233981 
-0.084474 -0.0649927 -0.210645 -0.0907292 -0.0634727 -0.1868 -0.0967868 -0.0614695 -0.162499 
-0.102562 -0.0591161 -0.137808 -0.107911 -0.0565338 -0.112809 -0.112643 -0.0538232 -0.0875924 
-0.116538 -0.0510587 -0.062259 -0.11937 -0.0482861 -0.0369097 -0.120932 -0.0455243 -0.011643 
-0.121061 -0.0427693 0.0134499 -0.119653 -0.0400005 0.0382891 -0.116682 -0.0371893 0.0628079 
-0.112199 -0.034307 0.0869537 -0.106331 -0.0313324 0.110687 -0.0992636 -0.0282584 0.133981 
-0.0912274 -0.0250954 0.156816 -0.0824705 -0.0218729 0.179176 -0.0732355 -0.0186385 0.20105 
-0.0637375 -0.0154547 0.222423 -0.0541463 -0.0123938 0.243281 -0.0445761 -0.00953189 0.263606 
-0.0350832 -0.00694284 0.283382 -0.0256709 -0.00469251 0.302593 -0.0163027 -0.00283403 0.321232 
-0.0069183 -0.00140462 0.339299 0.00254673 -0.000423962 0.356808 0.0121428 0.000105778 0.373788 
0.0218913 0.000198544 0.390282 0.0317758 -0.000118057 0.406347 0.0417394 -0.000805827 0.422049 
0.0516894 -0.00181925 0.437459 0.0615089 -0.00310859 0.452646 0.0710724 -0.00462251 0.467668 
0.0802628 -0.00631013 0.48257 0.0889893 -0.00812245 0.497372 0.0972006 -0.0100132 0.51207 
0.104893 -0.0119392 0.526633 0.112111 -0.013861 0.541004 0.118942 -0.0157426 0.555103 
0.125503 -0.0175521 0.568836 0.131922 -0.0192623 0.582099 0.13832 -0.020851 0.59479 
0.144789 -0.0223022 0.606815 0.151375 -0.023606 0.618096 0.158072 -0.0247598 0.628578 
0.164814 -0.0257672 0.63823 0.17148 -0.0266383 0.647046 0.177913 -0.0273879 0.655044 
0.183932 -0.0280344 0.662262 0.189356 -0.0285974 0.668747 0.19403 -0.0290959 0.674556 
0.197845 -0.0295465 0.679742 0.20075 -0.0299617 0.684352 0.202762 -0.0303489 0.688424 
0.203967 -0.0307103 0.69198 0.204505 -0.0310434 0.69503 0.204557 -0.0313418 0.69757 
0.204318 -0.0315973 0.69959 0.203978 -0.0318014 0.701073 0.203691 -0.031947 0.702006 
0.203558 -0.03203 0.702374 
LINES 2 100
OFFSETS vtktypeint64
0 100 
CONNECTIVITY vtktypeint64
0 1 2 3 4 5 6 7 8 
9 10 11 12 13 14 15 16 17 
18 19 20 21 22 23 24 25 26 
27 28 29 30 31 32 33 34 35 
36 37 38 39 40 41 42 43 44 
45 46 47 48 49 50 51 52 53 
54 55 56 57 58 59 60 61 62 
63 64 65 66 67 68 69 70 71 
72 73 74 75 76 77 78 79 80 
81 82 83 84 85 86 87 88 89 
90 91 92 93 94 95 96 97 98 
99 
POINT_DATA 100
FIELD FieldData 3
_theta 1 100 double
0 0.031733259127 0.063466518254 0.095199777382 0.12693303651 0.15866629564 0.19039955476 0.22213281389 0.25386607302 
0.28559933214 0.31733259127 0.3490658504 0.38079910953 0.41253236865 0.44426562778 0.47599888691 0.50773214603 0.53946540516 
0.57119866429 0.60293192342 0.63466518254 0.66639844167 0.6981317008 0.72986495992 0.76159821905 0.79333147818 0.82506473731 
0.85679799643 0.88853125556 0.92026451469 0.95199777382 0.98373103294 1.0154642921 1.0471975512 1.0789308103 1.1106640695 
1.1423973286 1.1741305877 1.2058638468 1.237597106 1.2693303651 1.3010636242 1.3327968833 1.3645301425 1.3962634016 
1.4279966607 1.4597299198 1.491463179 1.5231964381 1.5549296972 1.5866629564 1.6183962155 1.6501294746 1.6818627337 
1.7135959929 1.745329252 1.7770625111 1.8087957702 1.8405290294 1.8722622885 1.9039955476 1.9357288068 1.9674620659 
1.999195325 2.0309285841 2.0626618433 2.0943951024 2.1261283615 2.1578616206 2.1895948798 2.2213281389 2.253061398 
2.2847946572 2.3165279163 2.3482611754 2.3799944345 2.4117276937 2.4434609528 2.4751942119 2.506927471 2.5386607302 
2.5703939893 2.6021272484 2.6338605076 2.6655937667 2.6973270258 2.7290602849 2.7607935441 2.7925268032 2.8242600623 
2.8559933214 2.8877265806 2.9194598397 2.9511930988 2.982926358 3.0146596171 3.0463928762 3.0781261353 3.1098593945 
3.1415926536 
_radius 1 100 double
2.1942709179e-16 0.015308869749 0.030474076793 0.045361943749 0.05986634498 0.073916687177 0.087479694907 0.10055454749 0.11316220051 
0.12533100095 0.13708158976 0.14841421643 0.1593008442 0.16968307568 0.17947554535 0.18857353672 0.19686335559 0.20423421523 
0.21059068869 0.21586487945 0.22002728169 0.22309497117 0.22513553391 0.22626526895 0.22664086796 0.22644496365 0.22586739124 
0.22508525977 0.22424546933 0.22345280823 0.22276530338 0.22219661923 0.22172376276 0.22129770024 0.22085477462 0.22032763482 
0.21965521241 0.21879174191 0.21771480583 0.2164318534 0.21498379447 0.21344399164 0.21191215183 0.21050473671 0.20934489972 
0.20855447447 0.20824851292 0.2085306499 0.20948658749 0.21117401656 0.21360990358 0.21675869324 0.22052587459 0.22475999813 
0.22926361001 0.23381114074 0.23817038461 0.2421239297 0.24548748481 0.24812314124 0.24994685521 0.25093052457 0.25109971073 
0.25052820387 0.24933031405 0.24765122792 0.24565530947 0.24351211275 0.241380267 0.23939032036 0.23762893357 0.23612792286 
0.2348614167 0.2337520297 0.23268356547 0.23151578463 0.23009736796 0.22827536103 0.22590155663 0.22283754046 0.21896017808 
0.21416829799 0.2083898444 0.20158766316 0.19376190798 0.18494783768 0.17520912768 0.16462817591 0.15329570239 0.14130189846 
0.12873056428 0.11565655292 0.10214594009 0.088257900978 0.074047237472 0.059566708199 0.044868658978 0.030005842731 0.015031637152 
1.3315212308e-15 
_area 1 100 double
0 0.00062320092325 0.002470909605 0.0054802537574 0.0095553288987 0.014578924662 0.020425996402 0.026976304027 0.034123211569 
0.041775623817 0.049851123827 0.058261097724 0.066892209245 0.075590783899 0.084155906243 0.09234415486 0.09988584098 0.10651038469 
0.1119770006 0.11610592557 0.11880498651 0.12008653681 0.12007090415 0.11897461591 0.11708453615 0.11472175695 0.1122009318 
0.10979285071 0.10769974286 0.10604777792 0.10488970118 0.10421414307 0.10398347158 0.10418358543 0.10471263868 0.10543735434 
0.10623086116 0.10703514206 0.10784145184 0.10866424731 0.10952267766 0.11042807674 0.11139149318 0.11244707052 0.11365326659 
0.11507797566 0.11687015124 0.11935716362 0.1224580264 0.12611828798 0.13034499436 0.13512801079 0.14042483803 0.14615655139 
0.15219914324 0.15837186344 0.16443397274 0.17010028988 0.17507539282 0.17909570242 0.18196637603 0.18358500813 0.18395074125 
0.18316144881 0.18140046856 0.17890884667 0.17594377953 0.17274464366 0.16951980379 0.1664355431 0.16359458103 0.16101567936 
0.15863247339 0.15631795615 0.15392220936 0.15130237999 0.14833196013 0.14489208179 0.1408599695 0.13611030594 0.1305334687 
0.1240625709 0.11669759473 0.10851684279 0.099670388088 0.090356784855 0.080791118264 0.071176055325 0.061685524225 0.05246381533 
0.043635353302 0.035316731709 0.027624275916 0.020674940165 0.014582170367 0.0094497528909 0.0053661624405 0.002400806675 0.00060254527012 
2.3525544035e-17 
