# vtk DataFile Version 5.1
vtk output
ASCII
DATASET POLYDATA
POINTS 100 float
0.111054 0.0800913 -0.624874 0.111141 0.0800136 -0.624679 0.111423 0.0795479 -0.624055 
0.111882 0.0787078 -0.622981 0.112487 0.0775126 -0.621428 0.113197 0.075983 -0.619357 
0.113957 0.0741359 -0.616728 0.1147 0.0719788 -0.6135 0.115349 0.0695067 -0.609639 
0.115817 0.0667001 -0.605116 0.11601 0.0635256 -0.599912 0.115831 0.0599396 -0.594019 
0.115178 0.0558939 -0.587438 0.113953 0.0513441 -0.580179 0.112066 0.0462573 -0.572258 
0.109435 0.0406214 -0.563693 0.105995 0.0344514 -0.554503 0.1017 0.0277947 -0.544704 
0.0965259 0.0207317 -0.534306 0.0904748 0.0133743 -0.523315 0.083574 0.00586 -0.511728 
0.0758767 -0.00165711 -0.499539 0.0674597 -0.00901674 -0.486737 0.0584197 -0.0160644 -0.473308 
0.0488678 -0.022663 -0.459239 0.0389241 -0.028702 -0.444522 0.0287101 -0.0341051 -0.42915 
0.0183422 -0.038833 -0.413122 0.00792565 -0.0428835 -0.396445 -0.00245075 -0.0462867 -0.379128 
-0.0127178 -0.049098 -0.361187 -0.022827 -0.0513883 -0.342638 -0.0327494 -0.0532336 -0.323498 
-0.0424719 -0.0547044 -0.303786 -0.0519919 -0.0558572 -0.283514 -0.0613102 -0.0567284 -0.262699 
-0.0704233 -0.0573313 -0.24135 -0.0793156 -0.0576569 -0.219481 -0.0879528 -0.0576775 -0.197108 
-0.0962767 -0.0573532 -0.17425 -0.104203 -0.0566404 -0.150936 -0.111621 -0.0555004 -0.127207 
-0.118399 -0.0539074 -0.103116 -0.124388 -0.0518552 -0.0787296 -0.129432 -0.0493612 -0.0541291 
-0.133379 -0.0464673 -0.0294081 -0.136089 -0.0432384 -0.00467046 -0.137451 -0.0397577 0.0199738 
-0.137386 -0.0361199 0.0444124 -0.135856 -0.032424 0.0685356 -0.132871 -0.0287654 0.0922411 
-0.128484 -0.0252288 0.115437 -0.122793 -0.0218837 0.138047 -0.115931 -0.0187805 0.16001 
-0.10806 -0.015951 0.181284 -0.0993581 -0.0134096 0.201842 -0.0900074 -0.0111571 0.221675 
-0.0801854 -0.00918582 0.240789 -0.0700538 -0.00748492 0.259201 -0.0597514 -0.00604499 0.276937 
-0.0493896 -0.00486189 0.294031 -0.0390513 -0.00393866 0.310523 -0.0287923 -0.00328546 0.326455 
-0.0186457 -0.00291761 0.341874 -0.00862872 -0.00285202 0.356828 0.00125051 -0.00310259 0.371368 
0.0109849 -0.00367535 0.385546 0.0205617 -0.00456403 0.399414 0.0299575 -0.00574685 0.413028 
0.0391347 -0.00718503 0.426438 0.0480415 -0.00882343 0.439693 0.056613 -0.0105931 0.452835 
0.0647763 -0.012416 0.465896 0.0724551 -0.0142107 0.478894 0.0795773 -0.0158991 0.491831 
0.0860813 -0.0174129 0.50469 0.0919225 -0.0186994 0.517434 0.097078 -0.019726 0.530003 
0.101549 -0.0204819 0.542318 0.105364 -0.0209793 0.554284 0.108574 -0.0212507 0.565791 
0.11125 -0.0213453 0.576725 0.11348 -0.021324 0.586969 0.11536 -0.0212531 0.596413 
0.116988 -0.0211983 0.604963 0.118455 -0.0212183 0.612542 0.119844 -0.0213605 0.619103 
0.121218 -0.0216573 0.624627 0.122622 -0.0221238 0.629128 0.124079 -0.0227581 0.632653 
0.125592 -0.0235416 0.635278 0.12714 -0.0244421 0.637106 0.128689 -0.0254166 0.638263 
0.130192 -0.0264151 0.638885 0.131593 -0.0273847 0.639115 0.132835 -0.0282736 0.639092 
0.133862 -0.0290338 0.638944 0.134627 -0.0296252 0.638778 0.135092 -0.0300169 0.638676 
0.135235 -0.0301897 0.638687 
LINES 2 100
OFFSETS vtktypeint64
0 100 
CONNECTIVITY vtktypeint64
0 1 2 3 4 5 6 7 8 
9 10 11 12 13 14 15 16 17 
18 19 20 21 22 23 24 25 26 
27 28 29 30 31 32 33 34 35 
36 37 38 39 40 41 42 43 44 
45 46 47 48 49 50 51 52 53 
54 55 56 57 58 59 60 61 62 
63 64 65 66 67 68 69 70 71 
72 73 74 75 76 77 78 79 80 
81 82 83 84 85 86 87 88 89 
90 91 92 93 94 95 96 97 98 
99 
POINT_DATA 100
FIELD FieldData 3
_theta 1 100 double
0 0.031733259127 0.063466518254 0.095199777382 0.12693303651 0.15866629564 0.19039955476 0.22213281389 0.25386607302 
0.28559933214 0.31733259127 0.3490658504 0.38079910953 0.41253236865 0.44426562778 0.47599888691 0.50773214603 0.53946540516 
0.57119866429 0.60293192342 0.63466518254 0.66639844167 0.6981317008 0.72986495992 0.76159821905 0.79333147818 0.82506473731 
0.85679799643 0.88853125556 0.92026451469 0.95199777382 0.98373103294 1.0154642921 1.0471975512 1.0789308103 1.1106640695 
1.1423973286 1.1741305877 1.2058638468 1.237597106 1.2693303651 1.3010636242 1.3327968833 1.3645301425 1.3962634016 
1.4279966607 1.4597299198 1.491463179 1.5231964381 1.5549296972 1.5866629564 1.6183962155 1.6501294746 1.6818627337 
1.7135959929 1.745329252 1.7770625111 1.8087957702 1.8405290294 1.8722622885 1.9039955476 1.9357288068 1.9674620659 
1.999195325 2.0309285841 2.0626618433 2.0943951024 2.1261283615 2.1578616206 2.1895948798 2.2213281389 2.253061398 
2.2847946572 2.3165279163 2.3482611754 2.3799944345 2.4117276937 2.4434609528 2.4751942119 2.506927471 2.5386607302 
2.5703939893 2.6021272484 2.6338605076 2.6655937667 2.6973270258 2.7290602849 2.7607935441 2.7925268032 2.8242600623 
2.8559933214 2.8877265806 2.9194598397 2.9511930988 2.982926358 3.0146596171 3.0463928762 3.0781261353 3.1098593945 
3.1415926536 
_radius 1 100 double
7.9382887186e-16 0.013987620582 0.027924786291 0.041755112847 0.055422988381 0.068872533511 0.082045320392 0.094877497902 0.10729734173 
0.11922426696 0.13057001503 0.14124219687 0.15114982939 0.16021009423 0.16835534296 0.17553936418 0.18174207389 0.18697203734 
0.19126653314 0.19468918265 0.19732545296 0.19927657127 0.20065254816 0.20156508296 0.20212109914 0.20241750623 0.20253750929 
0.20254843488 0.20250072093 0.20242754968 0.20234467851 0.20225036171 0.20212579236 0.20193705392 0.20163980956 0.20118740133 
0.20054157271 0.19968344662 0.19862183424 0.19739670782 0.19607708064 0.19475396686 0.19353034279 0.19251090235 0.19179441016 
0.19147021596 0.19161833565 0.19231053514 0.19360925117 0.19556234994 0.19819404529 0.2014945519 0.20541209156 0.20985025054 
0.21467190973 0.21970908605 0.22477681081 0.22968874748 0.23427236238 0.23838187045 0.24190773929 0.24478213457 0.24698023186 
0.24851774419 0.249445287 0.24984030495 0.24979724154 0.24941655488 0.24879324788 0.24800588988 0.24710749761 0.24611970625 
0.24503108877 0.24379945886 0.24235712063 0.24061774754 0.23848381055 0.23585387061 0.23262933754 0.22872042214 0.22405103454 
0.21856238862 0.21221511994 0.2049898406 0.19688622925 0.18792094485 0.1781247977 0.16753965638 0.15621550262 0.14420789923 
0.13157597236 0.1183808886 0.10468475741 0.090549899434 0.076038451159 0.061212280907 0.046133154399 0.030863028873 0.015464318845 
3.0704341817e-16 
_area 1 100 double
0 0.0005712537936 0.002267133554 0.0050370889815 0.0088060754856 0.013484793387 0.018977935442 0.025186698108 0.032003878246 
0.039303420692 0.046929561491 0.054691404483 0.062366436772 0.069713105291 0.076490208898 0.082479902855 0.087510807544 0.091477451438 
0.094352179104 0.096186329897 0.097099574402 0.097260091387 0.096863359493 0.096121519338 0.095263445733 0.0944625241 0.093714350239 
0.092949038811 0.092138423271 0.091299692591 0.090489401491 0.089789490769 0.089279025778 0.089001288134 0.08894840437 0.089068887718 
0.08928858658 0.089536160499 0.089765430938 0.089968338657 0.090175040258 0.09044004019 0.090816780703 0.091332159459 0.091980543119 
0.092745759821 0.093638751648 0.094736664149 0.096201282938 0.098257328709 0.10104309443 0.10464886574 0.10915462553 0.11454729872 
0.12070296319 0.12739187256 0.13429870022 0.14105382504 0.14727425564 0.15261294488 0.15681060932 0.15973969359 0.16143124192 
0.16207652351 0.16197924282 0.16142495318 0.16055129811 0.15937224912 0.15787471351 0.15605949402 0.15393679308 0.1515134033 
0.14878818743 0.14575770803 0.14242460859 0.13879905078 0.13488935635 0.13068690145 0.12615523464 0.12123159309 0.11584258018 
0.10992826671 0.10346450173 0.096474738739 0.089028449963 0.081228895698 0.073196189 0.065052126037 0.056911608217 0.04888212866 
0.041068982938 0.033581709542 0.026537953379 0.020063363137 0.014288158219 0.0093416064678 0.0053452877897 0.0024055997823 0.00060601042999 
4.428960591e-17 
