# vtk DataFile Version 5.1
vtk output
ASCII
DATASET POLYDATA
POINTS 100 float
0.166229 0.0729102 -0.576879 0.166311 0.0728086 -0.577372 0.166515 0.0722882 -0.578699 
0.166797 0.0713429 -0.580671 0.167091 0.069964 -0.582993 0.167309 0.0681411 -0.585305 
0.167349 0.0658631 -0.587218 0.167103 0.0631199 -0.588359 0.166462 0.0599036 -0.588407 
0.16532 0.0562109 -0.58713 0.16358 0.0520449 -0.5844 0.161155 0.0474173 -0.580201 
0.157974 0.0423496 -0.574621 0.153975 0.0368747 -0.567829 0.149114 0.0310368 -0.560049 
0.143359 0.0248909 -0.551519 0.136695 0.0185013 -0.542459 0.129124 0.0119389 -0.533039 
0.120669 0.0052784 -0.523355 0.111372 -0.0014053 -0.513421 0.101305 -0.00804037 -0.503168 
0.0905613 -0.0145608 -0.49246 0.0792634 -0.0209081 -0.481116 0.0675549 -0.0270322 -0.46894 
0.0555962 -0.0328904 -0.455754 0.0435562 -0.0384456 -0.441428 0.0316 -0.0436633 -0.4259 
0.0198776 -0.048508 -0.409191 0.0085099 -0.0529397 -0.391406 -0.00242162 -0.0569114 -0.372722 
-0.0128836 -0.0603681 -0.353365 -0.0228942 -0.0632467 -0.333588 -0.0325212 -0.0654793 -0.313632 
-0.0418737 -0.0669977 -0.293701 -0.0510883 -0.0677398 -0.273931 -0.0603099 -0.0676579 -0.254379 
-0.0696703 -0.0667257 -0.235013 -0.0792652 -0.0649461 -0.215719 -0.0891334 -0.0623563 -0.19632 
-0.0992407 -0.0590302 -0.1766 -0.10947 -0.0550775 -0.156335 -0.119621 -0.0506395 -0.135327 
-0.129417 -0.045881 -0.113435 -0.138523 -0.0409792 -0.090593 -0.146573 -0.0361107 -0.0668296 
-0.153195 -0.0314384 -0.0422659 -0.158049 -0.0270984 -0.0171081 -0.160858 -0.0231897 0.00837209 
-0.161433 -0.0197673 0.0338642 -0.159697 -0.0168398 0.0590493 -0.155691 -0.0143712 0.0836312 
-0.14958 -0.0122887 0.107363 -0.141632 -0.0104925 0.13007 -0.132205 -0.00887035 0.151657 
-0.121708 -0.0073117 0.172115 -0.110576 -0.00572236 0.19151 -0.0992255 -0.00403638 0.209971 
-0.0880265 -0.00222458 0.227664 -0.0772735 -0.000298284 0.244775 -0.0671671 0.00169194 0.261481 
-0.0578061 0.00366254 0.277935 -0.04919 0.00550733 0.294252 -0.0412317 0.00711069 0.3105 
-0.0337782 0.00836202 0.326701 -0.0266368 0.00916958 0.342838 -0.0196042 0.00947202 0.358865 
-0.012493 0.00924623 0.374723 -0.00515575 0.00851053 0.390349 0.00249863 0.00732288 0.40569 
0.0104963 0.00577436 0.420711 0.0187982 0.00397881 0.435398 0.0273077 0.00206012 0.449753 
0.035885 0.00013858 0.463794 0.0443652 -0.00168168 0.477543 0.0525784 -0.00332281 0.491014 
0.0603689 -0.00473951 0.504212 0.0676105 -0.00592088 0.517119 0.0742181 -0.00688763 0.529696 
0.0801521 -0.00768522 0.541884 0.0854178 -0.00837395 0.553607 0.0900587 -0.00901753 0.564784 
0.0941468 -0.00967161 0.575339 0.0977696 -0.0103741 0.58521 0.101018 -0.0111383 0.594359 
0.103973 -0.0119506 0.602775 0.1067 -0.0127714 0.61048 0.109243 -0.0135416 0.617523 
0.111621 -0.0141908 0.623972 0.113834 -0.0146492 0.629905 0.115869 -0.014858 0.635399 
0.117704 -0.0147805 0.640516 0.119318 -0.014409 0.645295 0.120693 -0.013769 0.649743 
0.121826 -0.0129179 0.653837 0.122723 -0.0119404 0.657523 0.123399 -0.0109395 0.660726 
0.12388 -0.0100243 0.663359 0.124191 -0.00929788 0.665335 0.124358 -0.00884443 0.666584 
0.124394 -0.00871927 0.667054 
LINES 2 100
OFFSETS vtktypeint64
0 100 
CONNECTIVITY vtktypeint64
0 1 2 3 4 5 6 7 8 
9 10 11 12 13 14 15 16 17 
18 19 20 21 22 23 24 25 26 
27 28 29 30 31 32 33 34 35 
36 37 38 39 40 41 42 43 44 
45 46 47 48 49 50 51 52 53 
54 55 56 57 58 59 60 61 62 
63 64 65 66 67 68 69 70 71 
72 73 74 75 76 77 78 79 80 
81 82 83 84 85 86 87 88 89 
90 91 92 93 94 95 96 97 98 
99 
POINT_DATA 100
FIELD FieldData 3
_theta 1 100 double
0 0.031733259127 0.063466518254 0.095199777382 0.12693303651 0.15866629564 0.19039955476 0.22213281389 0.25386607302 
0.28559933214 0.31733259127 0.3490658504 0.38079910953 0.41253236865 0.44426562778 0.47599888691 0.50773214603 0.53946540516 
0.57119866429 0.60293192342 0.63466518254 0.66639844167 0.6981317008 0.72986495992 0.76159821905 0.79333147818 0.82506473731 
0.85679799643 0.88853125556 0.92026451469 0.95199777382 0.98373103294 1.0154642921 1.0471975512 1.0789308103 1.1106640695 
1.1423973286 1.1741305877 1.2058638468 1.237597106 1.2693303651 1.3010636242 1.3327968833 1.3645301425 1.3962634016 
1.4279966607 1.4597299198 1.491463179 1.5231964381 1.5549296972 1.5866629564 1.6183962155 1.6501294746 1.6818627337 
1.7135959929 1.745329252 1.7770625111 1.8087957702 1.8405290294 1.8722622885 1.9039955476 1.9357288068 1.9674620659 
1.999195325 2.0309285841 2.0626618433 2.0943951024 2.1261283615 2.1578616206 2.1895948798 2.2213281389 2.253061398 
2.2847946572 2.3165279163 2.3482611754 2.3799944345 2.4117276937 2.4434609528 2.4751942119 2.506927471 2.5386607302 
2.5703939893 2.6021272484 2.6338605076 2.6655937667 2.6973270258 2.7290602849 2.7607935441 2.7925268032 2.8242600623 
2.8559933214 2.8877265806 2.9194598397 2.9511930988 2.982926358 3.0146596171 3.0463928762 3.0781261353 3.1098593945 
3.1415926536 
_radius 1 100 double
1.0026641666e-15 0.016121419592 0.032038702892 0.047565824243 0.062556512187 0.07691509561 0.090598595919 0.10360999487 0.11598425019 
0.12776988097 0.13900952386 0.14972269943 0.15989332121 0.16946357954 0.17833500634 0.18637681443 0.19344088551 0.19938197628 
0.20408088757 0.20746766429 0.20954151756 0.21038418782 0.21016396202 0.20912854924 0.20758647052 0.20587838383 0.20434156444 
0.20327220317 0.20289087946 0.20331630858 0.2045513257 0.20648327053 0.208898739 0.21151057012 0.21399357045 0.21602501024 
0.21732589956 0.21769899015 0.21705929676 0.21545293523 0.21306026899 0.21017979959 0.20719135241 0.20450297761 0.20249411178 
0.20147113006 0.20164495041 0.20312783391 0.20593844801 0.21000620176 0.21517401622 0.2212052508 0.22780053729 0.23462506418 
0.24134163743 0.24764307492 0.25327870949 0.25807208183 0.26192905025 0.26483696917 0.26685615713 0.26810489148 0.26873922849 
0.26892949653 0.26883624948 0.26858917761 0.26827224665 0.26791697478 0.26750391466 0.26697105559 0.26622725031 0.26516839421 
0.26369364455 0.26171877379 0.25918423356 0.25605671368 0.25232456533 0.24798892786 0.24305334484 0.23751483915 0.23135879609 
0.22455875195 0.21708068543 0.20889014804 0.1999599452 0.19027624112 0.17984180243 0.1686763345 0.15681503512 0.14430694124 
0.13121393825 0.11760989892 0.10357855156 0.08920908644 0.074589730907 0.059800605573 0.044907597797 0.029958782308 0.014984321445 
1.32181631e-15 
_area 1 100 double
0 0.00072973506607 0.0028845185097 0.0063654917332 0.011022045883 0.016670796017 0.023116664798 0.03017005334 0.037654720716 
0.045405048393 0.053256612268 0.061036675999 0.068559895983 0.075631148546 0.082054608084 0.087646872833 0.092251476469 0.095752109461 
0.098082542964 0.099232741198 0.099252260268 0.098252436949 0.096407346566 0.093951133386 0.091169558959 0.08839356438 0.086038890122 
0.084438770383 0.083688807497 0.083866656754 0.085048038732 0.087193433446 0.090109112818 0.093448908317 0.096862408945 0.10001598746 
0.10263354502 0.10454026276 0.10566674613 0.10601593328 0.10572146763 0.10512030036 0.10469347277 0.10489149277 0.10597922319 
0.10796015561 0.11069419386 0.11415892161 0.11844420596 0.12367181057 0.12991585809 0.13713723347 0.14516447217 0.15371568879 
0.16242542869 0.1708685344 0.17859314714 0.18516884136 0.19024453992 0.1936014579 0.19518335839 0.1950935536 0.19356241898 
0.19089981455 0.18744644356 0.18353262589 0.17945121393 0.17544624162 0.17179266492 0.1687765166 0.16617801518 0.1636708046 
0.16100118643 0.15802477361 0.15465756181 0.15086008392 0.14661860496 0.1419205766 0.13673437286 0.13100266224 0.12465355266 
0.11762686888 0.10990640309 0.10154552358 0.092675348215 0.083490698717 0.074216161269 0.065061834538 0.056186158128 0.04768582001 
0.039618676547 0.032040833528 0.025031282461 0.01869362685 0.013141767311 0.0084812446201 0.0047948438321 0.0021366278985 0.00053474532983 
2.8456199258e-18 
