# vtk DataFile Version 5.1
vtk output
ASCII
DATASET POLYDATA
POINTS 100 float
0.140863 0.0451602 -0.694564 0.141021 0.045198 -0.69438 0.14147 0.0451124 -0.693837 
0.142151 0.0448849 -0.692892 0.142973 0.0444881 -0.691477 0.143821 0.0438899 -0.689507 
0.144561 0.0430572 -0.686887 0.145058 0.0419611 -0.683519 0.145178 0.0405804 -0.679311 
0.144803 0.0389048 -0.674188 0.143833 0.0369361 -0.668094 0.142196 0.0346885 -0.660996 
0.139843 0.0321867 -0.652893 0.136752 0.0294629 -0.643807 0.132924 0.0265533 -0.633784 
0.128375 0.0234941 -0.622889 0.123136 0.0203176 -0.611197 0.117246 0.0170494 -0.598791 
0.110746 0.0137073 -0.585749 0.10368 0.0103008 -0.572142 0.0960897 0.0068331 -0.558026 
0.0880201 0.00330324 -0.54344 0.0795159 -0.000289847 -0.528406 0.0706254 -0.00394375 -0.512929 
0.0614025 -0.007649 -0.496996 0.0519075 -0.0113864 -0.480588 0.0422072 -0.0151259 -0.463677 
0.0323738 -0.0188265 -0.446236 0.0224825 -0.0224384 -0.428243 0.0126074 -0.0259061 -0.409684 
0.002818 -0.0291726 -0.390555 -0.00682541 -0.0321842 -0.370866 -0.0162748 -0.0348946 -0.350639 
-0.0254966 -0.0372691 -0.329904 -0.0344711 -0.0392865 -0.3087 -0.0431913 -0.0409398 -0.287066 
-0.0516578 -0.042236 -0.265044 -0.0598739 -0.0431929 -0.242669 -0.0678383 -0.0438358 -0.21997 
-0.0755385 -0.0441929 -0.19697 -0.0829449 -0.0442914 -0.173682 -0.0900064 -0.0441532 -0.150114 
-0.0966489 -0.0437927 -0.126272 -0.102776 -0.0432154 -0.102162 -0.108274 -0.0424183 -0.0777947 
-0.113019 -0.0413924 -0.0531923 -0.116883 -0.0401256 -0.0283888 -0.119749 -0.0386075 -0.00343419 
-0.121519 -0.0368332 0.0216046 -0.12212 -0.0348075 0.0466447 -0.121517 -0.0325479 0.0715896 
-0.119712 -0.0300857 0.096333 -0.116747 -0.0274661 0.120764 -0.112698 -0.0247455 0.144773 
-0.107675 -0.0219885 0.168256 -0.101805 -0.019263 0.191125 -0.0952277 -0.0166351 0.213307 
-0.0880819 -0.0141642 0.23475 -0.0804976 -0.0118989 0.255426 -0.072587 -0.00987413 0.275326 
-0.0644399 -0.0081096 0.294468 -0.0561214 -0.00661065 0.312881 -0.0476732 -0.00537008 0.330615 
-0.0391177 -0.00437141 0.347725 -0.0304636 -0.00359289 0.364272 -0.0217134 -0.00301162 0.380318 
-0.0128709 -0.00260713 0.39592 -0.00394739 -0.0023641 0.411129 0.00503355 -0.00227368 0.425989 
0.0140334 -0.00233341 0.440533 0.0229987 -0.00254569 0.454785 0.0318638 -0.00291527 0.468758 
0.0405554 -0.00344601 0.482459 0.0489982 -0.00413762 0.495885 0.0571216 -0.00498288 0.509029 
0.0648655 -0.00596582 0.521875 0.0721855 -0.00706122 0.534402 0.0790558 -0.00823558 0.546582 
0.0854706 -0.00944943 0.558383 0.0914426 -0.0106608 0.569764 0.0970002 -0.0118291 0.580679 
0.102183 -0.0129197 0.591077 0.107035 -0.0139068 0.600902 0.111603 -0.0147766 0.6101 
0.115925 -0.015528 0.618616 0.120033 -0.0161721 0.6264 0.123946 -0.0167303 0.633415 
0.12767 -0.0172306 0.639633 0.131201 -0.0177033 0.645046 0.134525 -0.0181765 0.649663 
0.137618 -0.0186719 0.653513 0.140457 -0.0192014 0.656645 0.143016 -0.0197652 0.659124 
0.145269 -0.0203516 0.66103 0.147197 -0.0209385 0.662449 0.148785 -0.0214962 0.66347 
0.150022 -0.0219916 0.664177 0.1509 -0.0223924 0.664645 0.151417 -0.0226721 0.664929 
0.151572 -0.0228132 0.665063 
LINES 2 100
OFFSETS vtktypeint64
0 100 
CONNECTIVITY vtktypeint64
0 1 2 3 4 5 6 7 8 
9 10 11 12 13 14 15 16 17 
18 19 20 21 22 23 24 25 26 
27 28 29 30 31 32 33 34 35 
36 37 38 39 40 41 42 43 44 
45 46 47 48 49 50 51 52 53 
54 55 56 57 58 59 60 61 62 
63 64 65 66 67 68 69 70 71 
72 73 74 75 76 77 78 79 80 
81 82 83 84 85 86 87 88 89 
90 91 92 93 94 95 96 97 98 
99 
POINT_DATA 100
FIELD FieldData 3
_theta 1 100 double
0 0.031733259127 0.063466518254 0.095199777382 0.12693303651 0.15866629564 0.19039955476 0.22213281389 0.25386607302 
0.28559933214 0.31733259127 0.3490658504 0.38079910953 0.41253236865 0.44426562778 0.47599888691 0.50773214603 0.53946540516 
0.57119866429 0.60293192342 0.63466518254 0.66639844167 0.6981317008 0.72986495992 0.76159821905 0.79333147818 0.82506473731 
0.85679799643 0.88853125556 0.92026451469 0.95199777382 0.98373103294 1.0154642921 1.0471975512 1.0789308103 1.1106640695 
1.1423973286 1.1741305877 1.2058638468 1.237597106 1.2693303651 1.3010636242 1.3327968833 1.3645301425 1.3962634016 
1.4279966607 1.4597299198 1.491463179 1.5231964381 1.5549296972 1.5866629564 1.6183962155 1.6501294746 1.6818627337 
1.7135959929 1.745329252 1.7770625111 1.8087957702 1.8405290294 1.8722622885 1.9039955476 1.9357288068 1.9674620659 
1.999195325 2.0309285841 2.0626618433 2.0943951024 2.1261283615 2.1578616206 2.1895948798 2.2213281389 2.253061398 
2.2847946572 2.3165279163 2.3482611754 2.3799944345 2.4117276937 2.4434609528 2.4751942119 2.506927471 2.5386607302 
2.5703939893 2.6021272484 2.6338605076 2.6655937667 2.6973270258 2.7290602849 2.7607935441 2.7925268032 2.8242600623 
2.8559933214 2.8877265806 2.9194598397 2.9511930988 2.982926358 3.0146596171 3.0463928762 3.0781261353 3.1098593945 
3.1415926536 
_radius 1 100 double
1.2241003411e-15 0.015322843111 0.030550104145 0.045580112658 0.060311453066 0.074644475146 0.088483604854 0.10174014489 0.1143350796 
0.12620138849 0.13728551849 0.14754790746 0.15696270328 0.16551699556 0.17320991237 0.1800518236 0.18606368781 0.19127637481 
0.19572969373 0.19947091567 0.20255278236 0.20503124448 0.20696335279 0.20840573891 0.20941394871 0.21004257968 0.21034583375 
0.21037786801 0.21019233594 0.209840821 0.20937039959 0.20882110296 0.20822426306 0.2076024126 0.20697066886 0.20633881247 
0.20571310723 0.2050974822 0.20449460063 0.20390778047 0.20334427113 0.2028194566 0.20236094038 0.20201150243 0.2018303331 
0.20189230892 0.20228513352 0.20310399714 0.20444336 0.20638590814 0.20898971772 0.21227579028 0.21621872886 0.22074293739 
0.22572543023 0.23100476151 0.23639442489 0.24169862565 0.24672844085 0.25131673871 0.25533059177 0.25868020943 0.26132366351 
0.26326695065 0.26455927462 0.26528385829 0.26554509043 0.26545332999 0.26510914178 0.26458900076 0.26393444341 0.26314617855 
0.2621838299 0.26097096607 0.25940418415 0.25736452481 0.25472949722 0.25138434614 0.24723164848 0.24219867925 0.23624217935 
0.22935025646 0.22154126266 0.21285969554 0.20336949102 0.19314548701 0.1822642523 0.17079575602 0.15879734005 0.14631105023 
0.13336463175 0.11997562909 0.10615736446 0.091925324902 0.077302682482 0.062324132467 0.047037737299 0.031504849853 0.015798410522 
3.107352662e-16 
_area 1 100 double
0 0.00060999827066 0.0024156980914 0.0053488363714 0.0093093998154 0.014180967595 0.01984336207 0.026177842419 0.033063598556 
0.040368673568 0.047941021399 0.055604783852 0.063164030924 0.070413267637 0.077152352419 0.083203088042 0.088424846296 0.092726675033 
0.096073733873 0.098487122036 0.10003782428 0.10083645025 0.10102052616 0.10074261474 0.10016230707 0.099421788758 0.098568600182 
0.097560397443 0.096420488241 0.095214312529 0.094034787003 0.093010454053 0.092283824638 0.091950870022 0.0919879476 0.092357543744 
0.093021534887 0.093934858136 0.095041575115 0.096277778013 0.097584528238 0.098926993906 0.10031587689 0.10187357299 0.10377586157 
0.1058453327 0.10808165322 0.11055414688 0.11336772952 0.11664314545 0.1204949417 0.1250100137 0.1302282909 0.13612850899 
0.14262295121 0.14955935008 0.15672573599 0.16385936929 0.17066515818 0.17684642687 0.18214414813 0.18637488287 0.18945615225 
0.19141142917 0.19235359989 0.19245266444 0.19189763465 0.19086232347 0.18948071151 0.18783271473 0.18593852879 0.18376020215 
0.18121067097 0.17817051492 0.17451091348 0.17011876365 0.1649175205 0.15887758824 0.15201496464 0.14438313494 0.13606530478 
0.12717020439 0.11782910416 0.10818981345 0.098405964267 0.088623449706 0.078967819278 0.069536562747 0.060399272644 0.051606497935 
0.04320456723 0.035250699109 0.027822858312 0.021021827408 0.014966267224 0.0097832981761 0.0055972746075 0.0025187009185 0.00063444569067 
3.1928091946e-17 
