# vtk DataFile Version 5.1
vtk output
ASCII
DATASET POLYDATA
POINTS 100 float
0.153164 0.0827442 -0.675255 0.153383 0.0827247 -0.675316 0.154019 0.0824899 -0.675472 
0.154971 0.0820211 -0.675649 0.156087 0.0812896 -0.675731 0.157175 0.0802601 -0.675571 
0.158028 0.0788959 -0.675004 0.158439 0.0771629 -0.673863 0.158225 0.0750346 -0.671991 
0.157243 0.0724953 -0.669257 0.155399 0.0695419 -0.665561 0.152652 0.0661846 -0.660842 
0.149014 0.0624454 -0.65508 0.144539 0.0583557 -0.648292 0.139314 0.0539524 -0.640524 
0.133437 0.0492742 -0.631845 0.127011 0.0443576 -0.622332 0.120124 0.0392342 -0.612064 
0.112841 0.0339289 -0.601111 0.105203 0.0284598 -0.589525 0.0972243 0.0228397 -0.577337 
0.0889007 0.0170794 -0.564557 0.0802179 0.0111913 -0.551176 0.0711639 0.00519411 -0.537166 
0.0617405 -0.000883225 -0.522494 0.0519726 -0.00699784 -0.507122 0.0419148 -0.0130913 -0.491019 
0.0316521 -0.0190897 -0.474162 0.0212965 -0.0249055 -0.456543 0.0109786 -0.0304419 -0.438169 
0.00083528 -0.0355984 -0.41906 -0.00900351 -0.0402773 -0.399246 -0.0184283 -0.0443915 -0.378765 
-0.0273612 -0.0478704 -0.357653 -0.0357629 -0.0506659 -0.335945 -0.043634 -0.052756 -0.313665 
-0.0510117 -0.0541462 -0.290829 -0.0579598 -0.0548685 -0.267445 -0.0645552 -0.0549783 -0.243513 
-0.070872 -0.0545489 -0.219029 -0.0769653 -0.0536648 -0.193996 -0.0828568 -0.0524147 -0.168428 
-0.0885246 -0.0508842 -0.142353 -0.0938991 -0.0491493 -0.115824 -0.0988648 -0.0472715 -0.0889178 
-0.103269 -0.0452956 -0.0617377 -0.106935 -0.043248 -0.0344097 -0.109682 -0.0411388 -0.0070777 
-0.111344 -0.0389649 0.0201038 -0.111786 -0.0367144 0.046979 -0.110924 -0.034372 0.0734006 
-0.108733 -0.0319245 0.0992384 -0.105253 -0.0293658 0.124388 -0.100585 -0.0267006 0.148775 
-0.0948784 -0.0239468 0.172359 -0.088323 -0.0211364 0.195131 -0.0811247 -0.0183147 0.217113 
-0.0734884 -0.0155375 0.23835 -0.0655985 -0.0128683 0.258902 -0.0576043 -0.0103737 0.278835 
-0.04961 -0.00811915 0.298217 -0.041671 -0.00616454 0.317105 -0.0337962 -0.00456075 0.335543 
-0.0259568 -0.00334663 0.353559 -0.0180994 -0.00254727 0.371166 -0.0101606 -0.00217308 0.38836 
-0.0020837 -0.00221999 0.405131 0.00616763 -0.00267035 0.42146 0.0145987 -0.00349447 0.437334 
0.0231779 -0.00465264 0.452745 0.0318365 -0.00609727 0.467698 0.0404734 -0.00777521 0.48221 
0.0489644 -0.00962999 0.496313 0.0571742 -0.011604 0.510048 0.0649705 -0.0136407 0.523464 
0.0722366 -0.0156864 0.536609 0.078882 -0.0176921 0.54952 0.0848499 -0.0196157 0.562222 
0.0901203 -0.0214229 0.574716 0.0947081 -0.0230888 0.586977 0.0986585 -0.0245988 0.598952 
0.102038 -0.0259485 0.610561 0.104926 -0.0271439 0.621698 0.107402 -0.0282 0.632246 
0.109542 -0.0291391 0.642075 0.111405 -0.0299887 0.651063 0.113037 -0.0307784 0.659101 
0.114463 -0.031537 0.666107 0.115698 -0.0322894 0.672031 0.116744 -0.0330536 0.676865 
0.1176 -0.0338392 0.680643 0.118267 -0.0346457 0.683441 0.11875 -0.0354627 0.685374 
0.119066 -0.0362706 0.686585 0.11924 -0.0370425 0.687236 0.119306 -0.0377475 0.687496 
0.1193 -0.0383533 0.687523 0.11926 -0.0388301 0.68746 0.119218 -0.0391537 0.687412 
0.119193 -0.0393083 0.687448 
LINES 2 100
OFFSETS vtktypeint64
0 100 
CONNECTIVITY vtktypeint64
0 1 2 3 4 5 6 7 8 
9 10 11 12 13 14 15 16 17 
18 19 20 21 22 23 24 25 26 
27 28 29 30 31 32 33 34 35 
36 37 38 39 40 41 42 43 44 
45 46 47 48 49 50 51 52 53 
54 55 56 57 58 59 60 61 62 
63 64 65 66 67 68 69 70 71 
72 73 74 75 76 77 78 79 80 
81 82 83 84 85 86 87 88 89 
90 91 92 93 94 95 96 97 98 
99 
POINT_DATA 100
FIELD FieldData 3
_theta 1 100 double
0 0.031733259127 0.063466518254 0.095199777382 0.12693303651 0.15866629564 0.19039955476 0.22213281389 0.25386607302 
0.28559933214 0.31733259127 0.3490658504 0.38079910953 0.41253236865 0.44426562778 0.47599888691 0.50773214603 0.53946540516 
0.57119866429 0.60293192342 0.63466518254 0.66639844167 0.6981317008 0.72986495992 0.76159821905 0.79333147818 0.82506473731 
0.85679799643 0.88853125556 0.92026451469 0.95199777382 0.98373103294 1.0154642921 1.0471975512 1.0789308103 1.1106640695 
1.1423973286 1.1741305877 1.2058638468 1.237597106 1.2693303651 1.3010636242 1.3327968833 1.3645301425 1.3962634016 
1.4279966607 1.4597299198 1.491463179 1.5231964381 1.5549296972 1.5866629564 1.6183962155 1.6501294746 1.6818627337 
1.7135959929 1.745329252 1.7770625111 1.8087957702 1.8405290294 1.8722622885 1.9039955476 1.9357288068 1.9674620659 
1.999195325 2.0309285841 2.0626618433 2.0943951024 2.1261283615 2.1578616206 2.1895948798 2.2213281389 2.253061398 
2.2847946572 2.3165279163 2.3482611754 2.3799944345 2.4117276937 2.4434609528 2.4751942119 2.506927471 2.5386607302 
2.5703939893 2.6021272484 2.6338605076 2.6655937667 2.6973270258 2.7290602849 2.7607935441 2.7925268032 2.8242600623 
2.8559933214 2.8877265806 2.9194598397 2.9511930988 2.982926358 3.0146596171 3.0463928762 3.0781261353 3.1098593945 
3.1415926536 
_radius 1 100 double
8.4734094866e-16 0.015089056965 0.030090943557 0.044915798684 0.059474907439 0.073680877751 0.087447353304 0.10068840058 0.11331795531 
0.12524986169 0.1363989857 0.14668362608 0.1560290848 0.16437194457 0.17166445656 0.17787849971 0.18300876568 0.18707501365 
0.19012330309 0.19222602179 0.19348037761 0.1940049868 0.19393439757 0.19341181512 0.19258076558 0.19157671546 0.19051962016 
0.18950805343 0.18861512786 0.18788602797 0.18733680744 0.18695429171 0.1866974667 0.18650133827 0.18628442845 0.18596045785 
0.18545340206 0.1847135337 0.18373099156 0.18254337999 0.18123501124 0.17992740533 0.17876304153 0.17788640274 0.17742724038 
0.17749009837 0.17815156506 0.17946343071 0.18145743095 0.18414695063 0.18752330336 0.19154784245 0.19614412743 0.20119490301 
0.20654650142 0.21202002058 0.21742637494 0.22258199409 0.22732290376 0.23151599406 0.23506684871 0.23792369516 0.24007723046 
0.24155648516 0.24242141254 0.24275329702 0.24264419529 0.24218645059 0.24146301077 0.24053904788 0.23945536111 0.23822418949 
0.23682813214 0.23522262562 0.23334183135 0.23110708701 0.22843658444 0.22525478555 0.22150022093 0.21713063571 0.21212489342 
0.20648156481 0.20021462791 0.19334709824 0.18590365039 0.17790338833 0.16935389246 0.16024751612 0.15056061673 0.14025601043 
0.12928848871 0.11761279655 0.10519309342 0.09201265234 0.078082449131 0.063447391179 0.048189226502 0.032425610095 0.016305306994 
2.0926092813e-16 
_area 1 100 double
0 0.00054486002214 0.0021868317734 0.0049440783105 0.0088331488692 0.013849238686 0.019944030932 0.027008401066 0.034865555539 
0.043276320372 0.051954924296 0.060591597025 0.068877514345 0.076527975225 0.083301055327 0.089010763001 0.093535044093 0.096819350774 
0.098876150218 0.099780281891 0.099659887544 0.09868285526 0.097039402493 0.094922747221 0.092511561561 0.08995869831 0.087388814394 
0.084903392891 0.082588369631 0.080520042168 0.078768882753 0.077408813996 0.076553048065 0.07625528424 0.076511745924 0.077089876564 
0.077824217936 0.078600389901 0.079362924024 0.080121756544 0.080950852852 0.081974050071 0.083336701921 0.085155335301 0.087448897883 
0.090124987614 0.093066593897 0.096212015068 0.099575053183 0.10323493647 0.10730934999 0.1119122074 0.11710669163 0.12287468402 
0.12911587568 0.13566664348 0.14231899714 0.14883270188 0.15494875149 0.16041330081 0.16501065148 0.16859425248 0.1711036048 
0.17256113833 0.17305158881 0.17269278823 0.1716083653 0.16990976342 0.16768984079 0.16502545324 0.16198317016 0.15862206239 
0.15499066578 0.15111943449 0.14701217799 0.14263997976 0.13794168557 0.13283648624 0.12725038366 0.12114694909 0.11454641989 
0.10752495654 0.10019768393 0.092694686203 0.085138238721 0.077625668443 0.070219049279 0.062942646231 0.055789965581 0.048740670293 
0.041783056231 0.034934982829 0.028258225823 0.021864890248 0.015915889673 0.01061109576 0.0061709628586 0.0028110907484 0.00071349084212 
1.4851926655e-17 
