# vtk DataFile Version 5.1
vtk output
ASCII
DATASET POLYDATA
POINTS 100 float
0.209098 0.0798291 -0.659155 0.208992 0.0796396 -0.659258 0.208709 0.0789262 -0.659516 
0.208246 0.0777527 -0.659842 0.207594 0.0762139 -0.660102 0.206736 0.0744193 -0.660131 
0.205637 0.0724748 -0.659751 0.204245 0.0704634 -0.658785 0.202485 0.0684292 -0.657078 
0.20026 0.0663663 -0.654511 0.197459 0.0642156 -0.651005 0.193962 0.0618682 -0.646528 
0.189651 0.0591784 -0.641086 0.184424 0.0559812 -0.634723 0.17821 0.0521156 -0.627498 
0.17098 0.0474481 -0.61948 0.162756 0.0418947 -0.61073 0.153615 0.0354387 -0.601294 
0.14369 0.0281398 -0.59119 0.133161 0.0201361 -0.580411 0.122239 0.0116359 -0.568928 
0.111154 0.00290154 -0.556693 0.100129 -0.00577348 -0.543654 0.0893592 -0.014091 -0.529764 
0.0789927 -0.0217758 -0.514992 0.069114 -0.0286001 -0.499331 0.0597345 -0.0344034 -0.482805 
0.0507901 -0.0391036 -0.465465 0.0421483 -0.0427002 -0.447384 0.0336223 -0.0452676 -0.428651 
0.0249927 -0.0469409 -0.409351 0.0160332 -0.0478954 -0.389562 0.0065397 -0.0483227 -0.369333 
-0.00364282 -0.0484068 -0.34868 -0.0145963 -0.0483026 -0.32758 -0.0263125 -0.0481197 -0.305974 
-0.0386844 -0.0479135 -0.283773 -0.0515068 -0.0476838 -0.260872 -0.0644876 -0.0473816 -0.237166 
-0.0772671 -0.046922 -0.212569 -0.0894444 -0.0462014 -0.187032 -0.100609 -0.0451173 -0.160558 
-0.110373 -0.0435863 -0.133211 -0.118402 -0.0415601 -0.105122 -0.12444 -0.0390346 -0.0764804 
-0.128332 -0.0360546 -0.0475265 -0.130028 -0.0327096 -0.0185324 -0.129589 -0.0291255 0.0102189 
-0.127174 -0.0254499 0.0384557 -0.123027 -0.021836 0.0659401 -0.11745 -0.0184257 0.0924853 
-0.110778 -0.0153346 0.117968 -0.103349 -0.0126409 0.142336 -0.0954803 -0.0103798 0.1656 
-0.0874461 -0.00854341 0.187832 -0.0794595 -0.00708634 0.209145 -0.0716656 -0.00593614 0.229679 
-0.0641391 -0.00500646 0.249575 -0.0568904 -0.00421145 0.268964 -0.0498765 -0.00347923 0.28795 
-0.043017 -0.00276252 0.306596 -0.0362111 -0.00204521 0.324928 -0.0293558 -0.00134396 0.342932 
-0.022361 -0.000704846 0.360567 -0.0151624 -0.000195704 0.37777 -0.0077296 0.000104707 0.39448 
-6.86818e-05 0.000119019 0.410641 0.00777886 -0.000216661 0.426224 0.015742 -0.000942581 0.441223 
0.0237286 -0.00206845 0.455669 0.0316361 -0.00357069 0.469617 0.0393619 -0.00539407 0.483146 
0.046813 -0.00745744 0.496343 0.0539137 -0.00966265 0.509289 0.0606105 -0.0119054 0.52205 
0.0668737 -0.0140865 0.534664 0.0726963 -0.0161221 0.547129 0.0780902 -0.0179519 0.559407 
0.0830805 -0.0195434 0.571419 0.0876993 -0.0208936 0.583056 0.0919787 -0.0220261 0.594191 
0.0959454 -0.0229858 0.604688 0.0996167 -0.0238314 0.614418 0.102999 -0.0246267 0.623276 
0.106086 -0.0254319 0.631185 0.108864 -0.026297 0.638109 0.111312 -0.027256 0.64405 
0.113412 -0.0283244 0.649051 0.115148 -0.029499 0.653185 0.116514 -0.03076 0.656548 
0.117519 -0.0320744 0.659252 0.118185 -0.033401 0.661407 0.118552 -0.0346953 0.663118 
0.118672 -0.0359138 0.664474 0.118608 -0.0370174 0.665549 0.11843 -0.0379734 0.666392 
0.118204 -0.0387568 0.66704 0.11799 -0.0393495 0.667511 0.117837 -0.0397402 0.667816 
0.117774 -0.0399227 0.667957 
LINES 2 100
OFFSETS vtktypeint64
0 100 
CONNECTIVITY vtktypeint64
0 1 2 3 4 5 6 7 8 
9 10 11 12 13 14 15 16 17 
18 19 20 21 22 23 24 25 26 
27 28 29 30 31 32 33 34 35 
36 37 38 39 40 41 42 43 44 
45 46 47 48 49 50 51 52 53 
54 55 56 57 58 59 60 61 62 
63 64 65 66 67 68 69 70 71 
72 73 74 75 76 77 78 79 80 
81 82 83 84 85 86 87 88 89 
90 91 92 93 94 95 96 97 98 
99 
POINT_DATA 100
FIELD FieldData 3
_theta 1 100 double
0 0.031733259127 0.063466518254 0.095199777382 0.12693303651 0.15866629564 0.19039955476 0.22213281389 0.25386607302 
0.28559933214 0.31733259127 0.3490658504 0.38079910953 0.41253236865 0.44426562778 0.47599888691 0.50773214603 0.53946540516 
0.57119866429 0.60293192342 0.63466518254 0.66639844167 0.6981317008 0.72986495992 0.76159821905 0.79333147818 0.82506473731 
0.85679799643 0.88853125556 0.92026451469 0.95199777382 0.98373103294 1.0154642921 1.0471975512 1.0789308103 1.1106640695 
1.1423973286 1.1741305877 1.2058638468 1.237597106 1.2693303651 1.3010636242 1.3327968833 1.3645301425 1.3962634016 
1.4279966607 1.4597299198 1.491463179 1.5231964381 1.5549296972 1.5866629564 1.6183962155 1.6501294746 1.6818627337 
1.7135959929 1.745329252 1.7770625111 1.8087957702 1.8405290294 1.8722622885 1.9039955476 1.9357288068 1.9674620659 
1.999195325 2.0309285841 2.0626618433 2.0943951024 2.1261283615 2.1578616206 2.1895948798 2.2213281389 2.253061398 
2.2847946572 2.3165279163 2.3482611754 2.3799944345 2.4117276937 2.4434609528 2.4751942119 2.506927471 2.5386607302 
2.5703939893 2.6021272484 2.6338605076 2.6655937667 2.6973270258 2.7290602849 2.7607935441 2.7925268032 2.8242600623 
2.8559933214 2.8877265806 2.9194598397 2.9511930988 2.982926358 3.0146596171 3.0463928762 3.0781261353 3.1098593945 
3.1415926536 
_radius 1 100 double
1.2459904206e-15 0.017120371761 0.034102230637 0.050811229349 0.067123126248 0.082923659223 0.098105045772 0.11256098018 0.1261825388 
0.1388570543 0.1504710938 0.16091753953 0.17010569711 0.17797255576 0.18449297212 0.18968675287 0.19362132526 0.19640968645 
0.19820427421 0.19918797516 0.19956350694 0.19954194748 0.19933056508 0.19911979902 0.19906961781 0.19929647398 0.19986302935 
0.20077289998 0.20197165855 0.20335396332 0.2047758622 0.20607120809 0.20707113472 0.20762505315 0.20762066218 0.20699991524 
0.2057687784 0.20400050245 0.20183302571 0.19946046935 0.19711851417 0.1950648858 0.19355774755 0.19283491289 0.1930956326 
0.19448543373 0.19708387675 0.20089544901 0.20584492502 0.21177938598 0.21847856832 0.22567334318 0.23307009983 0.24037764528 
0.24733308794 0.25372364719 0.25940204694 0.26429395701 0.26839683753 0.27177052925 0.27452096865 0.2767793717 0.278679933 
0.28033930965 0.28184074759 0.28322470145 0.28448647526 0.28558016997 0.28642738184 0.28692875592 0.28697656284 0.28646673415 
0.285309089 0.28343474481 0.28079997733 0.2773861739 0.27319605631 0.26824697468 0.26256263701 0.25616495572 0.24906764237 
0.24127276281 0.23277079593 0.22354400517 0.21357231244 0.20284047448 0.19134523797 0.17910125943 0.16614484991 0.15253496755 
0.13835127041 0.12368941458 0.10865411583 0.093350780861 0.077876752283 0.062313378218 0.046720161075 0.031132089095 0.015560852204 
1.4909635559e-15 
_area 1 100 double
0 0.00061863416599 0.0024883739401 0.0056400497644 0.010094984766 0.015834627758 0.022776475426 0.030761016399 0.039550321932 
0.048837345477 0.05826484162 0.067452465654 0.076029207004 0.08366643491 0.090106032076 0.095179299901 0.09881497766 0.10103745852 
0.10195806924 0.10176266732 0.10069759522 0.099053222436 0.097140912182 0.095258742216 0.093648891195 0.092463197458 0.091757030861 
0.091512961237 0.091677563729 0.092231122188 0.092993939634 0.093733789908 0.094311566832 0.094663030482 0.09479593018 0.094785924858 
0.094766212 0.094908479216 0.09536742416 0.096192794939 0.097322986095 0.098682963476 0.10026774587 0.10215073271 0.10445334298 
0.10732230622 0.11091969436 0.11540768156 0.12091380256 0.1274794376 0.13501735236 0.14330695936 0.1520282086 0.16081416297 
0.16930622654 0.17720126166 0.18427259627 0.19035257599 0.19532196336 0.19917985552 0.20208462912 0.20423619935 0.20576026565 
0.20685276073 0.20788411119 0.20864875829 0.20907733243 0.20910468435 0.20865230857 0.20765009002 0.20604728998 0.20381179396 
0.20092247434 0.19736062008 0.19310508314 0.18813317977 0.1824261373 0.17597549324 0.1687870879 0.16088188347 0.15229537542 
0.14307774443 0.13329524835 0.12303150692 0.11238703542 0.10147692266 0.090428490267 0.079380859771 0.068485823099 0.057906864989 
0.047813867074 0.038374143363 0.029742575729 0.022053423973 0.015415144638 0.0099085833356 0.0055884245993 0.0024874071262 0.00062228690347 
3.6456271632e-17 
