# vtk DataFile Version 5.1
vtk output
ASCII
DATASET POLYDATA
POINTS 100 float
0.105946 0.00838628 -0.664846 0.105715 0.00815403 -0.664672 0.105041 0.00728145 -0.664128 
0.103968 0.00583628 -0.663157 0.102556 0.00392362 -0.661671 0.10088 0.00167382 -0.659562 
0.0990102 -0.000772264 -0.656718 0.0970043 -0.00327876 -0.65303 0.094895 -0.00572904 -0.648411 
0.0926825 -0.00803706 -0.642797 0.0903307 -0.0101543 -0.63616 0.0877698 -0.0120717 -0.628504 
0.084902 -0.0138162 -0.619863 0.0816126 -0.015443 -0.610292 0.0777839 -0.0170243 -0.599862 
0.07331 -0.0186359 -0.588643 0.0681113 -0.0203445 -0.5767 0.0621466 -0.0221963 -0.56408 
0.0554204 -0.0242087 -0.550813 0.0479862 -0.0263668 -0.536905 0.0399439 -0.0286242 -0.522346 
0.0314313 -0.0309081 -0.507115 0.0226122 -0.0331279 -0.491187 0.0136613 -0.0351867 -0.474543 
0.00474811 -0.0369923 -0.45718 -0.00397844 -0.038468 -0.439115 -0.0124024 -0.0395613 -0.420388 
-0.0204491 -0.0402479 -0.401062 -0.0280884 -0.0405333 -0.381218 -0.0353323 -0.0404491 -0.360947 
-0.0422278 -0.0400467 -0.340338 -0.0488454 -0.0393888 -0.319469 -0.0552648 -0.0385399 -0.298397 
-0.0615602 -0.0375571 -0.27715 -0.0677861 -0.0364835 -0.255724 -0.0739657 -0.0353438 -0.234085 
-0.0800831 -0.0341441 -0.212175 -0.0860809 -0.0328751 -0.189917 -0.0918615 -0.0315176 -0.167237 
-0.0972942 -0.0300511 -0.144066 -0.102225 -0.028462 -0.120364 -0.10649 -0.0267521 -0.0961223 
-0.109929 -0.024944 -0.0713753 -0.112397 -0.0230842 -0.0462005 -0.113778 -0.0212424 -0.020716 
-0.113993 -0.0195062 0.00492781 -0.113002 -0.0179737 0.0305601 -0.110809 -0.0167428 0.0560037 
-0.107453 -0.0159004 0.0810897 -0.10301 -0.015511 0.105671 -0.0975792 -0.0156084 0.129635 
-0.0912751 -0.0161898 0.152904 -0.0842206 -0.0172142 0.175444 -0.0765373 -0.0186052 0.197257 
-0.0683392 -0.0202578 0.218376 -0.0597287 -0.0220482 0.238853 -0.0507936 -0.0238457 0.258749 
-0.0416068 -0.0255257 0.278124 -0.0322278 -0.0269811 0.297024 -0.0227043 -0.0281315 0.315482 
-0.0130755 -0.0289293 0.333509 -0.00337449 -0.0293619 0.351102 0.00636847 -0.0294493 0.368247 
0.0161241 -0.0292388 0.384924 0.0258624 -0.0287968 0.401124 0.0355512 -0.0281987 0.416847 
0.0451553 -0.0275195 0.432114 0.0546362 -0.0268249 0.446968 0.0639512 -0.0261648 0.46147 
0.0730535 -0.0255696 0.475696 0.0818917 -0.0250496 0.489726 0.0904104 -0.0245974 0.503634 
0.0985507 -0.0241925 0.517477 0.106252 -0.0238075 0.531282 0.113455 -0.0234138 0.545043 
0.120105 -0.0229876 0.558716 0.126155 -0.0225137 0.572222 0.131573 -0.0219873 0.585451 
0.136344 -0.0214133 0.598277 0.140479 -0.0208038 0.610573 0.14401 -0.0201742 0.622222 
0.147001 -0.0195379 0.633133 0.149538 -0.0189021 0.643254 0.15173 -0.0182641 0.652576 
0.1537 -0.0176101 0.661137 0.155577 -0.0169157 0.669013 0.157485 -0.0161493 0.676309 
0.159532 -0.0152766 0.683145 0.161801 -0.0142675 0.689637 0.164335 -0.0131023 0.695882 
0.16714 -0.0117779 0.701939 0.170175 -0.0103119 0.707823 0.173357 -0.00874441 0.713497 
0.176569 -0.00713696 0.718874 0.179666 -0.00556819 0.723826 0.182488 -0.00412731 0.728199 
0.184879 -0.00290549 0.731829 0.186696 -0.00198662 0.73456 0.187829 -0.00143828 0.736265 
0.188205 -0.00130447 0.736863 
LINES 2 100
OFFSETS vtktypeint64
0 100 
CONNECTIVITY vtktypeint64
0 1 2 3 4 5 6 7 8 
9 10 11 12 13 14 15 16 17 
18 19 20 21 22 23 24 25 26 
27 28 29 30 31 32 33 34 35 
36 37 38 39 40 41 42 43 44 
45 46 47 48 49 50 51 52 53 
54 55 56 57 58 59 60 61 62 
63 64 65 66 67 68 69 70 71 
72 73 74 75 76 77 78 79 80 
81 82 83 84 85 86 87 88 89 
90 91 92 93 94 95 96 97 98 
99 
POINT_DATA 100
FIELD FieldData 3
_theta 1 100 double
0 0.031733259127 0.063466518254 0.095199777382 0.12693303651 0.15866629564 0.19039955476 0.22213281389 0.25386607302 
0.28559933214 0.31733259127 0.3490658504 0.38079910953 0.41253236865 0.44426562778 0.47599888691 0.50773214603 0.53946540516 
0.57119866429 0.60293192342 0.63466518254 0.66639844167 0.6981317008 0.72986495992 0.76159821905 0.79333147818 0.82506473731 
0.85679799643 0.88853125556 0.92026451469 0.95199777382 0.98373103294 1.0154642921 1.0471975512 1.0789308103 1.1106640695 
1.1423973286 1.1741305877 1.2058638468 1.237597106 1.2693303651 1.3010636242 1.3327968833 1.3645301425 1.3962634016 
1.4279966607 1.4597299198 1.491463179 1.5231964381 1.5549296972 1.5866629564 1.6183962155 1.6501294746 1.6818627337 
1.7135959929 1.745329252 1.7770625111 1.8087957702 1.8405290294 1.8722622885 1.9039955476 1.9357288068 1.9674620659 
1.999195325 2.0309285841 2.0626618433 2.0943951024 2.1261283615 2.1578616206 2.1895948798 2.2213281389 2.253061398 
2.2847946572 2.3165279163 2.3482611754 2.3799944345 2.4117276937 2.4434609528 2.4751942119 2.506927471 2.5386607302 
2.5703939893 2.6021272484 2.6338605076 2.6655937667 2.6973270258 2.7290602849 2.7607935441 2.7925268032 2.8242600623 
2.8559933214 2.8877265806 2.9194598397 2.9511930988 2.982926358 3.0146596171 3.0463928762 3.0781261353 3.1098593945 
3.1415926536 
_radius 1 100 double
7.9210026947e-16 0.014231378878 0.028371468919 0.042332611561 0.056041221784 0.069440022521 0.082485804585 0.095143399681 0.10737758717 
0.11914516026 0.13038924697 0.14103734517 0.15100366055 0.16019547678 0.16852256737 0.17590812819 0.18229941926 0.1876763199 
0.19205634768 0.19549531273 0.19808354589 0.19993838929 0.20119420818 0.20199144341 0.2024661176 0.20274078821 0.20291738013 
0.20307186403 0.20325057058 0.20346810662 0.20370725918 0.20392169077 0.20404234227 0.20398802617 0.20367967845 0.20305642315 
0.20209054179 0.20079817704 0.19924338003 0.19753472841 0.19581559866 0.19425049044 0.19301005083 0.19225675801 0.1921322454 
0.19274655417 0.19416932665 0.19642299367 0.19947833679 0.2032533478 0.20761667514 0.21239662469 0.21739554863 0.22240797979 
0.22723977315 0.23172526969 0.23574007345 0.23920805099 0.24210219941 0.2444398349 0.24627309403 0.24767611127 0.24873054096 
0.24951133244 0.25007472345 0.25045013523 0.25063698983 0.25060656589 0.25030811304 0.24967777869 0.24864857681 0.24715965664 
0.24516345258 0.24262981453 0.23954680957 0.23591843655 0.23175992378 0.2270915593 0.22193214799 0.21629321562 0.21017497363 
0.20356478661 0.19643845204 0.1887640855 0.18050792803 0.17164106447 0.16214591535 0.15202143722 0.14128620115 0.1299788696 
0.11815600773 0.10588759469 0.093250983025 0.080324321746 0.067180540076 0.053882839668 0.040482280373 0.027017567068 0.013516711569 
6.8476206809e-16 
_area 1 100 double
0 0.00055651860533 0.0022027158878 0.0048756241563 0.0084908347031 0.012962851166 0.0182162742 0.024181328214 0.030777867952 
0.037898193234 0.045395838605 0.053081778976 0.060727297323 0.06807367049 0.074850016183 0.080799944903 0.085714607739 0.089465792086 
0.092030328357 0.093497903558 0.094058316469 0.093969797819 0.093515551563 0.092959490225 0.092512294163 0.092315022468 0.092442940448 
0.092926699828 0.093775418119 0.094979812229 0.096493305584 0.098213297538 0.099981147229 0.10160276856 0.10288509963 0.10368088191 
0.10392988027 0.10368253749 0.10309544959 0.10239830886 0.10184470597 0.10166419624 0.10202966797 0.10304805865 0.1047714328 
0.10721684695 0.11038541283 0.11427103404 0.11883883827 0.12399989856 0.12963940337 0.13563574397 0.14184422342 0.14807925941 
0.15411354538 0.15969768126 0.16459520823 0.16862208997 0.17167773004 0.17375744964 0.1749427353 0.1753728507 0.17520696769 
0.1745881396 0.17361875465 0.17235223839 0.17079937224 0.16894238916 0.16674879762 0.16418008009 0.16119553899 0.15775546933 
0.15382847318 0.14940454224 0.14450987036 0.13921474781 0.13362613267 0.1278624766 0.12201737308 0.11612613875 0.11015113121 
0.10399474552 0.097535813785 0.090674033583 0.083365647969 0.075640547246 0.067599596404 0.059397008616 0.051215308732 0.043240463902 
0.035642784492 0.028566132785 0.022125009821 0.016407144012 0.011478563525 0.0073886527873 0.0041739376213 0.0018605601536 0.000465942507 
1.1151051108e-16 
