# vtk DataFile Version 5.1
vtk output
ASCII
DATASET POLYDATA
POINTS 100 float
0.154494 0.0944601 -0.672317 0.154446 0.0944428 -0.672452 0.154314 0.0941949 -0.672827 
0.154083 0.0936965 -0.673342 0.153732 0.0929164 -0.673841 0.153231 0.0918136 -0.674133 
0.152552 0.0903411 -0.674014 0.151666 0.0884496 -0.673282 0.150544 0.0860913 -0.671766 
0.149164 0.0832243 -0.669337 0.147506 0.0798163 -0.665921 0.145553 0.0758482 -0.661502 
0.143285 0.0713163 -0.656118 0.140682 0.0662338 -0.649849 0.137715 0.0606311 -0.642804 
0.134346 0.0545548 -0.635097 0.130532 0.0480658 -0.626836 0.126219 0.0412365 -0.618098 
0.121352 0.034147 -0.608918 0.115878 0.0268819 -0.599288 0.109751 0.0195263 -0.589148 
0.102941 0.0121628 -0.5784 0.0954401 0.00486931 -0.566915 0.0872682 -0.00228234 -0.554552 
0.0784732 -0.00922687 -0.541177 0.0691327 -0.0159048 -0.526677 0.0593493 -0.022261 -0.510977 
0.0492444 -0.0282432 -0.49405 0.0389486 -0.0337997 -0.475919 0.0285915 -0.0388782 -0.456655 
0.0182912 -0.0434253 -0.436373 0.0081453 -0.0473865 -0.415209 -0.00177598 -0.0507077 -0.393316 
-0.0114324 -0.0533383 -0.370838 -0.0208128 -0.0552349 -0.347896 -0.029929 -0.0563652 -0.324583 
-0.0388077 -0.0567125 -0.300945 -0.0474778 -0.0562802 -0.276991 -0.0559581 -0.0550939 -0.252691 
-0.0642447 -0.0532035 -0.227987 -0.0723014 -0.0506824 -0.202808 -0.080053 -0.0476252 -0.177083 
-0.0873843 -0.0441432 -0.150761 -0.0941436 -0.0403588 -0.123818 -0.100152 -0.036398 -0.0962751 
-0.105219 -0.0323833 -0.0681984 -0.109153 -0.0284263 -0.0397008 -0.111787 -0.0246217 -0.0109368 
-0.11299 -0.0210431 0.0179077 -0.112682 -0.0177403 0.0466282 -0.110846 -0.0147401 0.0750166 
-0.107528 -0.0120479 0.102876 -0.102838 -0.00965273 0.130033 -0.0969403 -0.00753245 0.156349 
-0.0900408 -0.00566048 0.181727 -0.0823697 -0.00401188 0.206111 -0.0741632 -0.0025687 0.229487 
-0.0656454 -0.00132377 0.251877 -0.0570125 -0.000282395 0.273328 -0.0484207 0.000538045 0.29391 
-0.0399801 0.00111064 0.3137 -0.0317526 0.00140314 0.332777 -0.023757 0.0013833 0.351219 
-0.0159768 0.00102447 0.369092 -0.00837253 0.000310803 0.386455 -0.000894442 -0.000758807 0.403356 
0.00650434 -0.00216848 0.419835 0.0138571 -0.00388528 0.435926 0.0211761 -0.00586128 0.45166 
0.0284487 -0.00803757 0.467065 0.0356381 -0.0103497 0.482167 0.042688 -0.0127336 0.496989 
0.0495296 -0.015132 0.511548 0.0560908 -0.0174993 0.525856 0.0623054 -0.0198053 0.539912 
0.0681215 -0.0220368 0.553701 0.0735068 -0.0241964 0.567195 0.0784519 -0.0263005 0.580352 
0.0829697 -0.0283737 0.593114 0.0870918 -0.0304436 0.605416 0.0908623 -0.0325344 0.617186 
0.0943309 -0.0346614 0.628353 0.0975445 -0.0368265 0.638852 0.100541 -0.0390158 0.64863 
0.103345 -0.0411994 0.65765 0.105963 -0.0433341 0.665891 0.108389 -0.0453669 0.673352 
0.110602 -0.0472418 0.680051 0.112576 -0.0489057 0.686018 0.114283 -0.0503159 0.691296 
0.115704 -0.0514446 0.695933 0.116829 -0.052284 0.699976 0.117666 -0.0528469 0.703472 
0.118237 -0.0531663 0.70646 0.118583 -0.0532917 0.70897 0.118753 -0.0532833 0.711023 
0.118802 -0.0532056 0.712635 0.118784 -0.0531187 0.713812 0.118744 -0.0530722 0.714555 
0.11871 -0.0530984 0.714866 
LINES 2 100
OFFSETS vtktypeint64
0 100 
CONNECTIVITY vtktypeint64
0 1 2 3 4 5 6 7 8 
9 10 11 12 13 14 15 16 17 
18 19 20 21 22 23 24 25 26 
27 28 29 30 31 32 33 34 35 
36 37 38 39 40 41 42 43 44 
45 46 47 48 49 50 51 52 53 
54 55 56 57 58 59 60 61 62 
63 64 65 66 67 68 69 70 71 
72 73 74 75 76 77 78 79 80 
81 82 83 84 85 86 87 88 89 
90 91 92 93 94 95 96 97 98 
99 
POINT_DATA 100
FIELD FieldData 3
_theta 1 100 double
0 0.031733259127 0.063466518254 0.095199777382 0.12693303651 0.15866629564 0.19039955476 0.22213281389 0.25386607302 
0.28559933214 0.31733259127 0.3490658504 0.38079910953 0.41253236865 0.44426562778 0.47599888691 0.50773214603 0.53946540516 
0.57119866429 0.60293192342 0.63466518254 0.66639844167 0.6981317008 0.72986495992 0.76159821905 0.79333147818 0.82506473731 
0.85679799643 0.88853125556 0.92026451469 0.95199777382 0.98373103294 1.0154642921 1.0471975512 1.0789308103 1.1106640695 
1.1423973286 1.1741305877 1.2058638468 1.237597106 1.2693303651 1.3010636242 1.3327968833 1.3645301425 1.3962634016 
1.4279966607 1.4597299198 1.491463179 1.5231964381 1.5549296972 1.5866629564 1.6183962155 1.6501294746 1.6818627337 
1.7135959929 1.745329252 1.7770625111 1.8087957702 1.8405290294 1.8722622885 1.9039955476 1.9357288068 1.9674620659 
1.999195325 2.0309285841 2.0626618433 2.0943951024 2.1261283615 2.1578616206 2.1895948798 2.2213281389 2.253061398 
2.2847946572 2.3165279163 2.3482611754 2.3799944345 2.4117276937 2.4434609528 2.4751942119 2.506927471 2.5386607302 
2.5703939893 2.6021272484 2.6338605076 2.6655937667 2.6973270258 2.7290602849 2.7607935441 2.7925268032 2.8242600623 
2.8559933214 2.8877265806 2.9194598397 2.9511930988 2.982926358 3.0146596171 3.0463928762 3.0781261353 3.1098593945 
3.1415926536 
_radius 1 100 double
4.8154123946e-16 0.014607491881 0.02919927791 0.043746920959 0.058208724306 0.07252595669 0.086621504008 0.10040076348 0.1137542867 
0.12656161135 0.13869583525 0.15002867292 0.16043589499 0.16980311989 0.178031886 0.18504580119 0.19079639533 0.19526815108 
0.19848211487 0.20049752529 0.20141104597 0.20135343002 0.20048372918 0.1989814307 0.19703709189 0.19484210644 0.19257821229 
0.19040735394 0.18846264668 0.18684140366 0.18560122277 0.18475973496 0.18429784437 0.18416557807 0.18428944327 0.18458050071 
0.18494287796 0.18528279908 0.18551815586 0.18558809683 0.1854613177 0.18514134753 0.18466759175 0.18411196255 0.18357200387 
0.18316212814 0.18300474582 0.18322251818 0.18393178188 0.18523604436 0.18721824233 0.18993149945 0.19338974283 0.19756062135 
0.20236301217 0.20767018506 0.21331821426 0.21911822773 0.22487076998 0.23038067859 0.2354711083 0.23999553631 0.24384676521 
0.24696215987 0.24932463295 0.25095923274 0.25192558961 0.25230693836 0.25219690498 0.25168562727 0.2508469464 0.24972827528 
0.24834433109 0.2466753188 0.24466951675 0.24224966612 0.23932216309 0.23578781541 0.23155285519 0.22653899004 0.220691496 
0.21398464597 0.20642405563 0.19804577587 0.18891217477 0.17910488213 0.16871536196 0.15783405873 0.14653951313 0.13488927142 
0.12291459984 0.11062064194 0.097992528947 0.085006329807 0.071642313238 0.057897446784 0.043794493265 0.029386102501 0.014753455449 
5.1666224147e-16 
_area 1 100 double
0 0.00056507694487 0.0022608496567 0.0050861723512 0.0090308385556 0.014065965758 0.02013477038 0.027145337879 0.034965394856 
0.043418273864 0.052280206425 0.061281275904 0.070113706308 0.07844986384 0.085968946235 0.092387943418 0.097490591303 0.10114806178 
0.10332691963 0.1040831688 0.10354529513 0.10189262725 0.099336222894 0.096106919249 0.092450499475 0.088626093062 0.084902614123 
0.081542258693 0.07873273315 0.076556564894 0.07506377528 0.074251590922 0.074074899157 0.074445759586 0.075264959139 0.07644350723 
0.077912133595 0.079618619593 0.081511967856 0.083524669751 0.085573070275 0.087579082169 0.089497970567 0.091329966172 0.093100036535 
0.094829228316 0.096530184985 0.098215629611 0.099919224246 0.1017308843 0.10382290793 0.10643640925 0.10981923062 0.11414365407 
0.11944713721 0.12561850856 0.1324216797 0.13953598154 0.14659986523 0.1532535025 0.15917686757 0.1641194379 0.16791918896 
0.17051277229 0.17194404576 0.17237470316 0.17210296386 0.17137070482 0.17000977053 0.16811450099 0.16580611267 0.16319011517 
0.16032972075 0.15723491894 0.15386503621 0.15014122254 0.14596476912 0.14123696766 0.13587665 0.1298330056 0.12309324567 
0.11568600331 0.10768147709 0.099188663049 0.09034935256 0.081328420664 0.072300385657 0.063433134941 0.054871033264 0.046721438429 
0.039050244907 0.031890904599 0.025265339945 0.019207935081 0.013782329902 0.0090855182763 0.0052393469027 0.0023728334818 0.00060020276671 
6.5087682088e-17 
