# vtk DataFile Version 5.1
vtk output
ASCII
DATASET POLYDATA
POINTS 100 float
0.156212 0.0370171 -0.666441 0.156169 0.0372845 -0.66659 0.156101 0.0378426 -0.66704 
0.155963 0.0386135 -0.667673 0.155685 0.039476 -0.66831 0.155182 0.0402774 -0.668728 
0.154361 0.0408484 -0.668679 0.153132 0.0410192 -0.667921 0.15142 0.040636 -0.666236 
0.149165 0.0395742 -0.663449 0.146333 0.0377498 -0.659441 0.142911 0.0351258 -0.654155 
0.138909 0.0317135 -0.647588 0.13435 0.0275703 -0.63979 0.129267 0.0227924 -0.630842 
0.123694 0.0175057 -0.620844 0.117663 0.0118537 -0.609895 0.111193 0.00598619 -0.59808 
0.104297 4.8563e-05 -0.585458 0.0969774 -0.00582708 -0.57206 0.0892299 -0.0115278 -0.557886 
0.0810518 -0.0169625 -0.542918 0.0724467 -0.0220625 -0.527123 0.0634309 -0.0267783 -0.510471 
0.0540385 -0.0310764 -0.492949 0.0443229 -0.0349339 -0.474565 0.0343568 -0.0383343 -0.455362 
0.024228 -0.041264 -0.435412 0.0140329 -0.04371 -0.414817 0.00386855 -0.0456601 -0.393696 
-0.00617634 -0.0471035 -0.372175 -0.0160289 -0.0480345 -0.350366 -0.0256376 -0.0484549 -0.32836 
-0.0349746 -0.0483775 -0.306209 -0.0440339 -0.0478285 -0.283925 -0.0528258 -0.0468485 -0.261472 
-0.0613676 -0.0454913 -0.23878 -0.0696725 -0.0438216 -0.215746 -0.0777382 -0.0419104 -0.192261 
-0.0855357 -0.0398294 -0.16822 -0.093002 -0.0376455 -0.143544 -0.100037 -0.0354148 -0.118196 
-0.106504 -0.0331786 -0.0921939 -0.11224 -0.0309609 -0.0656115 -0.117066 -0.0287682 -0.0385816 
-0.120802 -0.0265916 -0.0112846 -0.123287 -0.0244111 0.0160648 -0.124398 -0.0222021 0.0432364 
-0.124059 -0.0199418 0.0700046 -0.122258 -0.0176164 0.0961671 -0.119047 -0.0152267 0.121562 
-0.114542 -0.0127922 0.146075 -0.108913 -0.0103526 0.169651 -0.102366 -0.00796683 0.192281 
-0.0951292 -0.00570888 0.214003 -0.0874276 -0.00366164 0.234885 -0.0794651 -0.00190907 0.255009 
-0.0714074 -0.000527693 0.274455 -0.0633694 0.000421609 0.29329 -0.055411 0.000900446 0.311554 
-0.0475387 0.000897591 0.329261 -0.0397143 0.000430908 0.346394 -0.0318692 -0.000453722 0.362918 
-0.0239218 -0.00168636 0.378787 -0.0157959 -0.00317936 0.393958 -0.00743768 -0.00483548 0.408408 
0.00117134 -0.00655665 0.422139 0.0100069 -0.00825259 0.435191 0.0190011 -0.00984821 0.447641 
0.0280481 -0.011289 0.459601 0.0370156 -0.0125443 0.471205 0.0457602 -0.0136069 0.4826 
0.0541445 -0.0144918 0.493924 0.0620536 -0.0152308 0.505291 0.0694086 -0.015867 0.516777 
0.076175 -0.016448 0.528408 0.0823648 -0.0170192 0.540153 0.0880322 -0.0176181 0.551928 
0.0932637 -0.0182696 0.563599 0.098163 -0.0189838 0.575001 0.102834 -0.0197552 0.585953 
0.107366 -0.0205644 0.596273 0.111813 -0.0213806 0.605802 0.116194 -0.0221663 0.614419 
0.120479 -0.0228815 0.622047 0.124599 -0.0234886 0.628666 0.128453 -0.0239568 0.634305 
0.131924 -0.0242647 0.639037 0.134895 -0.024403 0.642971 0.137268 -0.0243747 0.646232 
0.13898 -0.024195 0.648948 0.140017 -0.0238897 0.651239 0.140418 -0.0234926 0.6532 
0.140274 -0.0230429 0.654899 0.139721 -0.022582 0.656374 0.138924 -0.0221507 0.657633 
0.138057 -0.0217863 0.658667 0.137288 -0.0215205 0.659452 0.136751 -0.0213773 0.659963 
0.136535 -0.0213721 0.660181 
LINES 2 100
OFFSETS vtktypeint64
0 100 
CONNECTIVITY vtktypeint64
0 1 2 3 4 5 6 7 8 
9 10 11 12 13 14 15 16 17 
18 19 20 21 22 23 24 25 26 
27 28 29 30 31 32 33 34 35 
36 37 38 39 40 41 42 43 44 
45 46 47 48 49 50 51 52 53 
54 55 56 57 58 59 60 61 62 
63 64 65 66 67 68 69 70 71 
72 73 74 75 76 77 78 79 80 
81 82 83 84 85 86 87 88 89 
90 91 92 93 94 95 96 97 98 
99 
POINT_DATA 100
FIELD FieldData 3
_theta 1 100 double
0 0.031733259127 0.063466518254 0.095199777382 0.12693303651 0.15866629564 0.19039955476 0.22213281389 0.25386607302 
0.28559933214 0.31733259127 0.3490658504 0.38079910953 0.41253236865 0.44426562778 0.47599888691 0.50773214603 0.53946540516 
0.57119866429 0.60293192342 0.63466518254 0.66639844167 0.6981317008 0.72986495992 0.76159821905 0.79333147818 0.82506473731 
0.85679799643 0.88853125556 0.92026451469 0.95199777382 0.98373103294 1.0154642921 1.0471975512 1.0789308103 1.1106640695 
1.1423973286 1.1741305877 1.2058638468 1.237597106 1.2693303651 1.3010636242 1.3327968833 1.3645301425 1.3962634016 
1.4279966607 1.4597299198 1.491463179 1.5231964381 1.5549296972 1.5866629564 1.6183962155 1.6501294746 1.6818627337 
1.7135959929 1.745329252 1.7770625111 1.8087957702 1.8405290294 1.8722622885 1.9039955476 1.9357288068 1.9674620659 
1.999195325 2.0309285841 2.0626618433 2.0943951024 2.1261283615 2.1578616206 2.1895948798 2.2213281389 2.253061398 
2.2847946572 2.3165279163 2.3482611754 2.3799944345 2.4117276937 2.4434609528 2.4751942119 2.506927471 2.5386607302 
2.5703939893 2.6021272484 2.6338605076 2.6655937667 2.6973270258 2.7290602849 2.7607935441 2.7925268032 2.8242600623 
2.8559933214 2.8877265806 2.9194598397 2.9511930988 2.982926358 3.0146596171 3.0463928762 3.0781261353 3.1098593945 
3.1415926536 
_radius 1 100 double
1.1306990958e-15 0.015930699511 0.031760530312 0.047382932881 0.062690857221 0.077575965947 0.091927678502 0.10563288285 0.11857719294 
0.13064835316 0.14174187078 0.15176832739 0.16066126148 0.16838419952 0.17493544124 0.18034956939 0.18469528442 0.18806994966 
0.1905920062 0.19239291818 0.19361025089 0.19438274552 0.1948470802 0.19513497812 0.19536904155 0.1956564087 0.196080766 
0.19669463326 0.19751430705 0.19851912282 0.19965537357 0.20084413834 0.20199176044 0.20300161114 0.20378585399 0.20427610456 
0.20443214251 0.20424811224 0.20375583794 0.20302493709 0.20215945247 0.20129096744 0.20056875838 0.20014822709 0.20017906183 
0.20079400145 0.20209834108 0.20416051215 0.20700532358 0.2106122713 0.21492010748 0.21983612531 0.22524674188 0.23102642556 
0.23704394643 0.24316657093 0.24926332156 0.2552080657 0.26088263677 0.26617982407 0.27100594826 0.27528277576 0.27894862989 
0.28195868073 0.28428450192 0.2859130481 0.28684522105 0.28709416611 0.28668339322 0.2856447723 0.28401641991 0.28184045963 
0.27916058554 0.27601929754 0.27245466275 0.26849654487 0.26416245279 0.25945345538 0.25435089977 0.24881483302 0.24278495258 
0.23618456427 0.22892747071 0.22092709452 0.21210662591 0.20240870937 0.19180321376 0.18029194752 0.16790970144 0.15472159946 
0.14081728469 0.12630286894 0.11129179264 0.09589579027 0.080217066918 0.064342582483 0.048341017189 0.032262581505 0.016141414741 
3.4922713572e-16 
_area 1 100 double
0 0.00061982345329 0.0024874861195 0.0056194610884 0.01001887712 0.015647514668 0.022400395611 0.030090962521 0.038452055289 
0.047154009256 0.055836707421 0.064148326443 0.071781330223 0.078497264577 0.084136205689 0.088612640389 0.091904240153 0.094041267634 
0.095101979052 0.095214517916 0.09456062127 0.093373890709 0.091926919123 0.090506078333 0.089378359357 0.088759557524 0.088794295538 
0.089550726705 0.09101379562 0.093073704243 0.095559805678 0.098291650526 0.10109525577 0.10380828241 0.10628787527 0.10841847362 
0.11011875242 0.11134963262 0.1121244339 0.11251794065 0.11266689607 0.11275527945 0.11298536642 0.1135456403 0.1145902991 
0.11623688595 0.11857520182 0.12167517433 0.12558625479 0.13032778771 0.13587795921 0.14217505687 0.14913123377 0.15664214117 
0.1645820382 0.17278952083 0.18105658541 0.18913245889 0.19674614185 0.20364155624 0.20961276192 0.21452776468 0.21833546469 
0.22105598302 0.2227570229 0.22352005674 0.22340604914 0.2224383301 0.22061135901 0.21791245736 0.2143393217 0.2099082967 
0.2046572971 0.19864838522 0.19197128861 0.18474343947 0.17709940316 0.16916790844 0.16104539396 0.15277921825 0.14436581472 
0.13576014349 0.12689210882 0.11768832069 0.10809744516 0.098114721878 0.087799176644 0.077277845326 0.066735136117 0.056390581135 
0.046472027987 0.037191792977 0.028730511022 0.021229584367 0.014790622825 0.0094796090022 0.0053338103535 0.0023699188306 0.00059225689976 
2.2664956907e-17 
