# vtk DataFile Version 5.1
vtk output
ASCII
DATASET POLYDATA
POINTS 100 float
0.0885067 0.0739021 -0.673398 0.0886645 0.0738194 -0.673366 0.0891039 0.073369 -0.673223 
0.0897814 0.0725416 -0.672878 0.0906283 0.0713232 -0.672197 0.0915569 0.0696968 -0.671018 
0.0924676 0.0676446 -0.669169 0.093257 0.0651504 -0.666496 0.0938248 0.0622017 -0.662876 
0.0940795 0.0587922 -0.658235 0.0939428 0.0549234 -0.652556 0.0933509 0.0506062 -0.645878 
0.0922545 0.0458611 -0.638288 0.0906168 0.0407188 -0.629909 0.088411 0.0352194 -0.620877 
0.0856171 0.0294115 -0.611325 0.0822195 0.023351 -0.601361 0.0782059 0.0170997 -0.591053 
0.0735678 0.0107236 -0.580419 0.0683028 0.00429161 -0.569425 0.0624174 -0.00212563 -0.557987 
0.0559315 -0.00845699 -0.545987 0.0488823 -0.0146317 -0.533287 0.0413269 -0.0205802 -0.519749 
0.0333436 -0.0262349 -0.505257 0.0250302 -0.0315308 -0.489731 0.0164997 -0.0364069 -0.473139 
0.00787389 -0.0408069 -0.455504 -0.000725403 -0.0446806 -0.4369 -0.00918618 -0.0479856 -0.417444 
-0.0174154 -0.0506885 -0.397279 -0.0253469 -0.0527664 -0.376557 -0.0329462 -0.0542081 -0.355416 
-0.0402116 -0.0550151 -0.333968 -0.0471714 -0.0552016 -0.312279 -0.0538761 -0.0547946 -0.290367 
-0.0603878 -0.0538324 -0.268197 -0.066767 -0.0523639 -0.245695 -0.0730581 -0.0504455 -0.222753 
-0.0792767 -0.0481396 -0.199257 -0.0853986 -0.045511 -0.175099 -0.0913545 -0.0426252 -0.150202 
-0.0970282 -0.0395451 -0.124534 -0.102263 -0.0363296 -0.0981201 -0.106871 -0.0330324 -0.0710482 
-0.11065 -0.0297006 -0.0434625 -0.1134 -0.0263755 -0.0155557 -0.114944 -0.0230929 0.0124471 
-0.115147 -0.0198843 0.0403082 -0.113928 -0.0167783 0.0677971 -0.111272 -0.0138021 0.0947099 
-0.107236 -0.0109832 0.120884 -0.101938 -0.00834998 0.146206 -0.095556 -0.00593232 0.170621 
-0.0883079 -0.00376164 0.19412 -0.0804332 -0.00187002 0.21674 -0.0721726 -0.000288964 0.238546 
-0.0637485 0.000952356 0.259616 -0.0553475 0.00182904 0.280031 -0.047108 0.00232242 0.299855 
-0.0391137 0.00242187 0.319133 -0.0313936 0.00212606 0.337885 -0.023928 0.00144377 0.356102 
-0.0166592 0.000393884 0.373762 -0.00950626 -0.000995228 0.390827 -0.00238115 -0.00268709 0.407263 
0.00479589 -0.00463898 0.423045 0.012083 -0.00680419 0.438168 0.0195073 -0.00913441 0.452649 
0.0270607 -0.0115821 0.46653 0.0346997 -0.0141025 0.479873 0.0423514 -0.0166552 0.492754 
0.0499218 -0.0192053 0.505251 0.0573072 -0.0217236 0.517431 0.0644057 -0.0241865 0.529342 
0.0711284 -0.0265753 0.541004 0.0774077 -0.0288749 0.552403 0.0832022 -0.0310728 0.563488 
0.0884984 -0.0331574 0.574183 0.0933083 -0.0351174 0.584385 0.0976638 -0.0369406 0.593987 
0.10161 -0.0386137 0.602881 0.105194 -0.0401227 0.610979 0.108464 -0.0414535 0.618219 
0.111454 -0.0425928 0.624574 0.114187 -0.04353 0.630056 0.116672 -0.0442584 0.634715 
0.118905 -0.0447769 0.63863 0.120874 -0.0450909 0.641903 0.122565 -0.0452137 0.644645 
0.123967 -0.045166 0.646965 0.125077 -0.0449761 0.648957 0.125908 -0.0446785 0.650698 
0.126485 -0.0443124 0.652234 0.126844 -0.0439193 0.653588 0.127035 -0.0435408 0.654758 
0.127109 -0.0432155 0.655726 0.127116 -0.042977 0.656463 0.127097 -0.0428512 0.656943 
0.12708 -0.0428545 0.657145 
LINES 2 100
OFFSETS vtktypeint64
0 100 
CONNECTIVITY vtktypeint64
0 1 2 3 4 5 6 7 8 
9 10 11 12 13 14 15 16 17 
18 19 20 21 22 23 24 25 26 
27 28 29 30 31 32 33 34 35 
36 37 38 39 40 41 42 43 44 
45 46 47 48 49 50 51 52 53 
54 55 56 57 58 59 60 61 62 
63 64 65 66 67 68 69 70 71 
72 73 74 75 76 77 78 79 80 
81 82 83 84 85 86 87 88 89 
90 91 92 93 94 95 96 97 98 
99 
POINT_DATA 100
FIELD FieldData 3
_theta 1 100 double
0 0.031733259127 0.063466518254 0.095199777382 0.12693303651 0.15866629564 0.19039955476 0.22213281389 0.25386607302 
0.28559933214 0.31733259127 0.3490658504 0.38079910953 0.41253236865 0.44426562778 0.47599888691 0.50773214603 0.53946540516 
0.57119866429 0.60293192342 0.63466518254 0.66639844167 0.6981317008 0.72986495992 0.76159821905 0.79333147818 0.82506473731 
0.85679799643 0.88853125556 0.92026451469 0.95199777382 0.98373103294 1.0154642921 1.0471975512 1.0789308103 1.1106640695 
1.1423973286 1.1741305877 1.2058638468 1.237597106 1.2693303651 1.3010636242 1.3327968833 1.3645301425 1.3962634016 
1.4279966607 1.4597299198 1.491463179 1.5231964381 1.5549296972 1.5866629564 1.6183962155 1.6501294746 1.6818627337 
1.7135959929 1.745329252 1.7770625111 1.8087957702 1.8405290294 1.8722622885 1.9039955476 1.9357288068 1.9674620659 
1.999195325 2.0309285841 2.0626618433 2.0943951024 2.1261283615 2.1578616206 2.1895948798 2.2213281389 2.253061398 
2.2847946572 2.3165279163 2.3482611754 2.3799944345 2.4117276937 2.4434609528 2.4751942119 2.506927471 2.5386607302 
2.5703939893 2.6021272484 2.6338605076 2.6655937667 2.6973270258 2.7290602849 2.7607935441 2.7925268032 2.8242600623 
2.8559933214 2.8877265806 2.9194598397 2.9511930988 2.982926358 3.0146596171 3.0463928762 3.0781261353 3.1098593945 
3.1415926536 
_radius 1 100 double
8.0215534307e-16 0.014548078601 0.028993606818 0.043235824013 0.05718382795 0.070759326714 0.083897075044 0.096542862704 0.10864946094 
0.12017145086 0.13106019018 0.14126020775 0.15070803532 0.15933398103 0.16706676132 0.17384037856 0.17960225771 0.18432147407 
0.18799590656 0.19065729788 0.19237345351 0.19324713124 0.19341153728 0.19302272421 0.19224953271 0.19126198309 0.19021917965 
0.18925786868 0.18848281617 0.18796009788 0.18771411668 0.1877286518 0.18795164273 0.18830295049 0.18868420235 0.18899000558 
0.18912006945 0.18899175643 0.1885521531 0.18778815981 0.18673279383 0.18546616396 0.18411039302 0.18281896757 0.18176229758 
0.18111217264 0.18102770458 0.18164406256 0.18306352791 0.18534745645 0.18850856005 0.19250499751 0.19723927494 0.20256432081 
0.20829659966 0.21423365645 0.22017257422 0.22592643156 0.2313370181 0.23628309492 0.24068418483 0.24450030291 0.24772827017 
0.25039534345 0.25255090035 0.25425690555 0.25557791343 0.25657143933 0.25727959608 0.25772285033 0.2578965541 0.25777058109 
0.25729201151 0.25639041432 0.25498491667 0.25299200801 0.25033298463 0.24694012502 0.24276103321 0.23776097862 0.23192338294 
0.22524879245 0.21775272649 0.20946275838 0.20041513279 0.19065120625 0.18021402871 0.1691454324 0.15748400101 0.14526420864 
0.13251684018 0.11927057751 0.10555442693 0.09140052668 0.076846832179 0.061939223441 0.046732692801 0.031291423052 0.015687730263 
1.0116802392e-15 
_area 1 100 double
0 0.0005807978784 0.0023110276632 0.005153375263 0.0090434950564 0.013888488141 0.019567211951 0.02593322908 0.032820222062 
0.040048817599 0.047433271027 0.054786580157 0.061923409955 0.068661451657 0.074822913686 0.08023820403 0.08475337631 0.088241786134 
0.090618943367 0.091858023167 0.092002176113 0.091168960561 0.089542590907 0.087352889239 0.084846502375 0.08226069829 0.079807442432 
0.077670359083 0.076057004477 0.075207803597 0.075017777738 0.07548632485 0.076658004459 0.078257575433 0.08005935116 0.081877206197 
0.08355400459 0.084971888156 0.086062355108 0.086812311932 0.087266793183 0.087531430012 0.087778872196 0.088248803341 0.089057551997 
0.090182736267 0.091643599423 0.093493278388 0.095810129704 0.098707435976 0.1023313254 0.10682968494 0.11229732404 0.11872314794 
0.12596660138 0.13377253154 0.14181157182 0.14972649159 0.15717432232 0.16386221859 0.1695751207 0.17419284814 0.17769610925 
0.1801614051 0.18174351606 0.18264361548 0.18306440448 0.18316412527 0.18302922252 0.18267316525 0.1820497741 0.18106890275 
0.17961209257 0.17754941455 0.17475655265 0.17112941562 0.1665944144 0.16111453463 0.15469237549 0.14737080525 0.13923089022 
0.13038665241 0.12097707098 0.11115652019 0.10108485123 0.090917964198 0.080799738628 0.070856748214 0.061197528694 0.051917135826 
0.043105086389 0.034852466518 0.027254666668 0.020409539744 0.014413450489 0.0093575603246 0.0053248322897 0.0023868689125 0.00059985395017 
3.9885495085e-17 
