# vtk DataFile Version 5.1
vtk output
ASCII
DATASET POLYDATA
POINTS 100 float
0.0588402 0.0713818 -0.756068 0.058727 0.0715566 -0.755714 0.0583592 0.0719054 -0.754805 
0.0577473 0.0723737 -0.753272 0.0569075 0.0728745 -0.751007 0.0558576 0.0732941 -0.747879 
0.0546127 0.0735013 -0.743753 0.0531805 0.0733568 -0.738507 0.0515576 0.0727244 -0.732048 
0.0497262 0.071482 -0.724326 0.0476536 0.0695309 -0.715338 0.0452928 0.0668047 -0.705132 
0.0425863 0.0632746 -0.693801 0.0394707 0.058953 -0.681468 0.0358836 0.0538929 -0.668273 
0.0317708 0.0481847 -0.654357 0.0270938 0.0419505 -0.639845 0.0218359 0.0353348 -0.62483 
0.0160069 0.0284952 -0.609368 0.00964552 0.0215911 -0.593474 0.0028187 0.014773 -0.577121 
-0.00438174 0.0081739 -0.560252 -0.0118451 0.00190157 -0.542792 -0.0194499 -0.00396568 -0.52466 
-0.0270736 -0.00938042 -0.505786 -0.0346017 -0.0143243 -0.48612 -0.0419373 -0.0188039 -0.465647 
-0.0490079 -0.0228435 -0.444382 -0.0557702 -0.026478 -0.422376 -0.0622107 -0.0297441 -0.399707 
-0.0683445 -0.0326727 -0.376467 -0.0742087 -0.0352834 -0.352755 -0.0798546 -0.0375804 -0.328658 
-0.0853373 -0.0395515 -0.304245 -0.0907043 -0.0411698 -0.27956 -0.095985 -0.0423981 -0.254615 
-0.101181 -0.0431942 -0.229396 -0.106261 -0.043519 -0.203872 -0.111156 -0.0433424 -0.178002 
-0.115763 -0.0426507 -0.151753 -0.119947 -0.0414504 -0.125111 -0.123553 -0.0397705 -0.0980916 
-0.126419 -0.0376623 -0.0707527 -0.128383 -0.0351963 -0.0431924 -0.129307 -0.0324569 -0.0155481 
-0.129081 -0.0295355 0.0120123 -0.127638 -0.0265234 0.0393031 -0.124961 -0.0235044 0.0661373 
-0.121083 -0.0205491 0.0923431 -0.116091 -0.017711 0.117779 -0.110112 -0.0150249 0.142348 
-0.10331 -0.0125082 0.165999 -0.09587 -0.0101647 0.188735 -0.0879822 -0.00798921 0.210603 
-0.0798309 -0.00597448 0.231685 -0.0715798 -0.00411734 0.252083 -0.0633615 -0.00242411 0.271905 
-0.0552708 -0.000914227 0.291245 -0.0473621 0.000378536 0.310174 -0.0396504 0.00140757 0.32873 
-0.032117 0.00211749 0.34691 -0.0247179 0.00245034 0.364679 -0.0173941 0.00235312 0.381974 
-0.0100831 0.00178564 0.398716 -0.00273005 0.000727674 0.414828 0.00470361 -0.000815748 0.430246 
0.0122329 -0.00281154 0.444935 0.0198462 -0.00519891 0.458898 0.0275049 -0.00789293 0.472181 
0.0351471 -0.010791 0.484867 0.042693 -0.0137813 0.497073 0.0500534 -0.0167532 0.508934 
0.0571378 -0.0196068 0.52059 0.0638636 -0.0222618 0.532166 0.070163 -0.0246645 0.543755 
0.0759889 -0.0267912 0.555408 0.0813176 -0.0286486 0.567124 0.0861492 -0.0302708 0.578849 
0.0905058 -0.0317129 0.590476 0.0944264 -0.0330427 0.601859 0.0979617 -0.0343314 0.612828 
0.101168 -0.035644 0.623202 0.104099 -0.037031 0.632809 0.106802 -0.0385224 0.641504 
0.109317 -0.0401247 0.64918 0.111666 -0.0418206 0.655778 0.113863 -0.0435724 0.66129 
0.115908 -0.0453279 0.665757 0.117794 -0.0470271 0.66926 0.119508 -0.048611 0.671913 
0.121039 -0.0500286 0.673849 0.122375 -0.0512434 0.675209 0.123515 -0.0522374 0.676125 
0.124458 -0.0530117 0.67672 0.125216 -0.0535854 0.677095 0.125801 -0.0539909 0.677328 
0.126232 -0.0542684 0.677478 0.126526 -0.054459 0.677582 0.126697 -0.0545973 0.677665 
0.126756 -0.0547067 0.677739 
LINES 2 100
OFFSETS vtktypeint64
0 100 
CONNECTIVITY vtktypeint64
0 1 2 3 4 5 6 7 8 
9 10 11 12 13 14 15 16 17 
18 19 20 21 22 23 24 25 26 
27 28 29 30 31 32 33 34 35 
36 37 38 39 40 41 42 43 44 
45 46 47 48 49 50 51 52 53 
54 55 56 57 58 59 60 61 62 
63 64 65 66 67 68 69 70 71 
72 73 74 75 76 77 78 79 80 
81 82 83 84 85 86 87 88 89 
90 91 92 93 94 95 96 97 98 
99 
POINT_DATA 100
FIELD FieldData 3
_theta 1 100 double
0 0.031733259127 0.063466518254 0.095199777382 0.12693303651 0.15866629564 0.19039955476 0.22213281389 0.25386607302 
0.28559933214 0.31733259127 0.3490658504 0.38079910953 0.41253236865 0.44426562778 0.47599888691 0.50773214603 0.53946540516 
0.57119866429 0.60293192342 0.63466518254 0.66639844167 0.6981317008 0.72986495992 0.76159821905 0.79333147818 0.82506473731 
0.85679799643 0.88853125556 0.92026451469 0.95199777382 0.98373103294 1.0154642921 1.0471975512 1.0789308103 1.1106640695 
1.1423973286 1.1741305877 1.2058638468 1.237597106 1.2693303651 1.3010636242 1.3327968833 1.3645301425 1.3962634016 
1.4279966607 1.4597299198 1.491463179 1.5231964381 1.5549296972 1.5866629564 1.6183962155 1.6501294746 1.6818627337 
1.7135959929 1.745329252 1.7770625111 1.8087957702 1.8405290294 1.8722622885 1.9039955476 1.9357288068 1.9674620659 
1.999195325 2.0309285841 2.0626618433 2.0943951024 2.1261283615 2.1578616206 2.1895948798 2.2213281389 2.253061398 
2.2847946572 2.3165279163 2.3482611754 2.3799944345 2.4117276937 2.4434609528 2.4751942119 2.506927471 2.5386607302 
2.5703939893 2.6021272484 2.6338605076 2.6655937667 2.6973270258 2.7290602849 2.7607935441 2.7925268032 2.8242600623 
2.8559933214 2.8877265806 2.9194598397 2.9511930988 2.982926358 3.0146596171 3.0463928762 3.0781261353 3.1098593945 
3.1415926536 
_radius 1 100 double
6.7674673311e-16 0.013801406079 0.027501430108 0.041005975137 0.054228623039 0.067091141816 0.079521489875 0.09145020905 0.10280677485 
0.11351760044 0.12350692117 0.13270090833 0.14103440003 0.1484589011 0.15495017365 0.16051384454 0.16518789828 0.16904153541 
0.17217048988 0.17468940076 0.17672219347 0.17839166534 0.17980959522 0.18106866165 0.18223717894 0.18335710444 0.18444503028 
0.18549524236 0.18648376174 0.18737269007 0.18811491138 0.18865979633 0.18896063278 0.18898397446 0.18872015819 0.18819317745 
0.18746712846 0.18664588899 0.1858634194 0.18526516678 0.18498570641 0.18513022633 0.1857652025 0.1869190485 0.1885901434 
0.19075814118 0.19339438452 0.19646837585 0.19994919472 0.2038027711 0.20798728894 0.21244923277 0.21712178137 0.22192604312 
0.22677472248 0.23157742262 0.2362466763 0.24070371072 0.2448829365 0.24873437856 0.2522237495 0.25533040868 0.25804383718 
0.26035940118 0.26227411909 0.26378298074 0.2648761767 0.26553743747 0.26574357895 0.26546527627 0.26466899208 0.26331983153 
0.261384905 0.25883662138 0.25565529133 0.25183053903 0.24736129109 0.24225445273 0.23652267555 0.23018176851 0.2232482707 
0.21573753828 0.20766249567 0.19903305582 0.18985618019 0.18013660257 0.16987830041 0.15908675994 0.14777189565 0.13595119558 
0.12365240145 0.1109149436 0.097789514128 0.084335556883 0.070616975802 0.056696875133 0.042632501276 0.028471635315 0.014251417785 
1.8123506469e-15 
_area 1 100 double
0 0.00058496729383 0.0023226887589 0.005163601149 0.0090309091505 0.013826763084 0.019436674522 0.025730009573 0.032556375177 
0.039740196972 0.047077456835 0.054338598764 0.061280036796 0.067664005797 0.073283570899 0.077987595905 0.081700064776 0.084429279915 
0.086264869985 0.087363783118 0.087928787127 0.088182435026 0.088337257432 0.088563456639 0.088961136621 0.089550455341 0.090287693344 
0.09109705271 0.091897461992 0.092611814368 0.093162018316 0.093464523691 0.093441338441 0.093049858975 0.092319407445 0.091375370684 
0.090434991478 0.089767153129 0.089625937198 0.090189206323 0.091523173987 0.093568769948 0.096155710056 0.099054466225 0.10205083783 
0.10500725411 0.10789306345 0.11078905068 0.1138644884 0.11732089897 0.12132525452 0.12597299828 0.13128457638 0.13721641137 
0.14368125993 0.15054945347 0.15759255368 0.16453308903 0.17107832954 0.17696527168 0.18203972529 0.18625437982 0.18966571242 
0.19247067619 0.19506417918 0.19778794356 0.20043978704 0.20293953149 0.20511544061 0.20671741723 0.20747603862 0.20714503204 
0.20552800376 0.20249515983 0.19799330972 0.19205029395 0.18477296552 0.17633702056 0.16696832807 0.15691804538 0.14643581916 
0.13574559404 0.12502730691 0.11440642035 0.10395287757 0.09369076632 0.083617751626 0.073729452455 0.064041603595 0.054604172041 
0.04550529138 0.036866242098 0.028830257957 0.021548067736 0.015162903492 0.009797709231 0.0055470608637 0.0024752578943 0.00062012748636 
1.8241675134e-17 
