# vtk DataFile Version 5.1
vtk output
ASCII
DATASET POLYDATA
POINTS 100 float
0.131362 0.0723909 -0.66698 0.131444 0.0723913 -0.66708 0.131719 0.0721811 -0.667287 
0.132176 0.0717428 -0.667466 0.132798 0.07105 -0.66741 0.133554 0.0700698 -0.666868 
0.1344 0.0687673 -0.665576 0.135268 0.0671086 -0.663289 0.136071 0.0650645 -0.659808 
0.136702 0.0626135 -0.655011 0.13703 0.0597429 -0.648854 0.136912 0.0564497 -0.641385 
0.136196 0.0527401 -0.632727 0.134732 0.0486281 -0.623059 0.132379 0.0441342 -0.612594 
0.129022 0.0392835 -0.601547 0.124576 0.0341047 -0.590107 0.118996 0.0286299 -0.578412 
0.112283 0.0228946 -0.566533 0.104484 0.0169394 -0.55447 0.0956912 0.0108116 -0.542152 
0.086037 0.00456771 -0.529453 0.0756826 -0.00172553 -0.516214 0.0648081 -0.00798973 -0.502266 
0.0536002 -0.0141356 -0.487457 0.042239 -0.0200649 -0.471676 0.0308866 -0.0256744 -0.454868 
0.019678 -0.0308612 -0.437042 0.00871478 -0.035529 -0.418271 -0.00193686 -0.039595 -0.398682 
-0.0122452 -0.0429965 -0.378435 -0.0222078 -0.0456961 -0.357702 -0.0318438 -0.0476853 -0.336645 
-0.0411845 -0.048985 -0.315391 -0.050262 -0.0496442 -0.294018 -0.0590997 -0.0497351 -0.272545 
-0.0677029 -0.0493463 -0.250933 -0.0760523 -0.0485744 -0.229093 -0.0841007 -0.047515 -0.206906 
-0.0917719 -0.0462537 -0.18424 -0.0989641 -0.0448592 -0.160981 -0.105556 -0.0433778 -0.137046 
-0.111412 -0.0418317 -0.112409 -0.116397 -0.0402199 -0.0871075 -0.120381 -0.0385221 -0.0612468 
-0.12325 -0.0367056 -0.0349908 -0.124913 -0.0347328 -0.00854857 -0.125313 -0.0325706 0.0178464 
-0.124423 -0.0301977 0.04396 -0.122253 -0.0276116 0.0695809 -0.118846 -0.0248323 0.0945401 
-0.114277 -0.0219032 0.118725 -0.108643 -0.018889 0.142086 -0.102062 -0.0158706 0.164634 
-0.0946656 -0.0129382 0.186429 -0.086589 -0.010183 0.207569 -0.0779687 -0.00768865 0.228163 
-0.0689356 -0.00552416 0.24832 -0.0596121 -0.00373835 0.268126 -0.0501088 -0.00235717 0.287631 
-0.0405238 -0.00138381 0.30685 -0.0309417 -0.000801606 0.325755 -0.0214345 -0.000579233 0.344291 
-0.0120624 -0.000677311 0.362387 -0.00287514 -0.00105545 0.379972 0.0060862 -0.00167864 0.39699 
0.0147881 -0.00252207 0.41342 0.0232032 -0.00357361 0.429277 0.0313089 -0.00483362 0.444619 
0.0390868 -0.00631214 0.459543 0.0465217 -0.00802392 0.474169 0.0536009 -0.009982 0.488623 
0.0603138 -0.0121909 0.503022 0.0666513 -0.0146405 0.517448 0.0726056 -0.0173018 0.531937 
0.0781698 -0.0201248 0.546461 0.0833378 -0.0230399 0.560933 0.0881043 -0.0259619 0.575206 
0.092465 -0.0287965 0.589086 0.096417 -0.0314491 0.602357 0.0999592 -0.0338338 0.614799 
0.103093 -0.0358826 0.626215 0.105824 -0.037552 0.636451 0.108161 -0.0388281 0.645418 
0.110116 -0.0397273 0.653096 0.111709 -0.0402946 0.659539 0.112962 -0.0405974 0.664867 
0.113905 -0.040718 0.669246 0.11457 -0.0407432 0.672872 0.114992 -0.0407545 0.675946 
0.115212 -0.0408188 0.678649 0.115268 -0.0409815 0.681126 0.115203 -0.0412623 0.683469 
0.115053 -0.0416544 0.685715 0.114856 -0.0421282 0.687845 0.114644 -0.0426363 0.689798 
0.114445 -0.0431225 0.691484 0.11428 -0.0435307 0.692806 0.114166 -0.0438136 0.693676 
0.114113 -0.0439403 0.694034 
LINES 2 100
OFFSETS vtktypeint64
0 100 
CONNECTIVITY vtktypeint64
0 1 2 3 4 5 6 7 8 
9 10 11 12 13 14 15 16 17 
18 19 20 21 22 23 24 25 26 
27 28 29 30 31 32 33 34 35 
36 37 38 39 40 41 42 43 44 
45 46 47 48 49 50 51 52 53 
54 55 56 57 58 59 60 61 62 
63 64 65 66 67 68 69 70 71 
72 73 74 75 76 77 78 79 80 
81 82 83 84 85 86 87 88 89 
90 91 92 93 94 95 96 97 98 
99 
POINT_DATA 100
FIELD FieldData 3
_theta 1 100 double
0 0.031733259127 0.063466518254 0.095199777382 0.12693303651 0.15866629564 0.19039955476 0.22213281389 0.25386607302 
0.28559933214 0.31733259127 0.3490658504 0.38079910953 0.41253236865 0.44426562778 0.47599888691 0.50773214603 0.53946540516 
0.57119866429 0.60293192342 0.63466518254 0.66639844167 0.6981317008 0.72986495992 0.76159821905 0.79333147818 0.82506473731 
0.85679799643 0.88853125556 0.92026451469 0.95199777382 0.98373103294 1.0154642921 1.0471975512 1.0789308103 1.1106640695 
1.1423973286 1.1741305877 1.2058638468 1.237597106 1.2693303651 1.3010636242 1.3327968833 1.3645301425 1.3962634016 
1.4279966607 1.4597299198 1.491463179 1.5231964381 1.5549296972 1.5866629564 1.6183962155 1.6501294746 1.6818627337 
1.7135959929 1.745329252 1.7770625111 1.8087957702 1.8405290294 1.8722622885 1.9039955476 1.9357288068 1.9674620659 
1.999195325 2.0309285841 2.0626618433 2.0943951024 2.1261283615 2.1578616206 2.1895948798 2.2213281389 2.253061398 
2.2847946572 2.3165279163 2.3482611754 2.3799944345 2.4117276937 2.4434609528 2.4751942119 2.506927471 2.5386607302 
2.5703939893 2.6021272484 2.6338605076 2.6655937667 2.6973270258 2.7290602849 2.7607935441 2.7925268032 2.8242600623 
2.8559933214 2.8877265806 2.9194598397 2.9511930988 2.982926358 3.0146596171 3.0463928762 3.0781261353 3.1098593945 
3.1415926536 
_radius 1 100 double
1.7874353652e-15 0.015849354378 0.031448870562 0.046571255269 0.061042468037 0.074759645201 0.087699020979 0.099911777628 0.11150715944 
0.12262419212 0.13339599503 0.14391352524 0.15419728988 0.1641843893 0.1737339276 0.1826484253 0.19070517707 0.19769065839 
0.20343227137 0.20782352868 0.21084035374 0.21254736407 0.21309398191 0.21270116115 0.21164044034 0.21020775583 0.20869483257 
0.2073611281 0.20640946291 0.20596847009 0.20608428515 0.20672225086 0.20777744526 0.20909151089 0.2104730424 0.21171944827 
0.21263913988 0.21307343406 0.21291717125 0.21213587249 0.21077619255 0.20896648108 0.20690576983 0.2048420741 0.2030436835 
0.20176890657 0.20123943971 0.20162027234 0.20300647948 0.20541613638 0.20878908231 0.21299209271 0.21783098085 0.22306910106 
0.22845036484 0.23372391726 0.23866728689 0.24310502324 0.24692047656 0.25005943444 0.25252569698 0.25437005467 0.25567515147 
0.25653909829 0.25706040847 0.25732604906 0.25740345611 0.25733653708 0.25714514163 0.2568272394 0.25636300501 0.25572001304 
0.25485864576 0.25373661555 0.25231140294 0.25053969748 0.2483737535 0.24575577229 0.24261254195 0.23885306823 0.23437144167 
0.22905570613 0.22280146971 0.21552719797 0.2071872655 0.19777923023 0.18734332901 0.17595452423 0.16370994891 0.15071617456 
0.13708010474 0.12290458113 0.10828702554 0.093318624673 0.078082646958 0.062652024 0.047087199316 0.031435271392 0.015731032271 
5.317003937e-16 
_area 1 100 double
0 0.00065294071519 0.0025735503709 0.0056544454689 0.0097391051044 0.014649914162 0.020217468767 0.026304660307 0.032822003818 
0.039732274672 0.047039686801 0.054757926238 0.062859806965 0.071226751059 0.079623939362 0.087714431164 0.095105069151 0.10140732044 
0.10629757744 0.10956607054 0.11114756024 0.11112968734 0.10973719156 0.10729447188 0.10417591416 0.10075830225 0.097387498717 
0.09437577236 0.092238168321 0.091301287106 0.091213204196 0.091848044363 0.093108289303 0.094909425748 0.09715746145 0.099724140897 
0.10243308518 0.10506829888 0.10740432349 0.10924579909 0.11046272855 0.11101690098 0.11097820891 0.11052254623 0.10990244166 
0.10939594354 0.1092580039 0.10969943262 0.11089418069 0.11298811107 0.11607887567 0.12017116618 0.12514427764 0.1307555005 
0.13667612669 0.1425451842 0.14802460633 0.15284500558 0.15683642215 0.15993929078 0.16219225647 0.16370143108 0.16460928676 
0.16508439915 0.16531603431 0.16543233892 0.16539922148 0.16509749942 0.16443197549 0.16335969906 0.16188865256 0.16006983371 
0.15797815995 0.15568045262 0.1532053725 0.15053597798 0.14762057033 0.14437614359 0.14067804203 0.13635748776 0.13122474515 
0.12511304517 0.11792886866 0.10969530112 0.10057373275 0.090849551839 0.080875741399 0.070983060761 0.061395298386 0.052215969975 
0.043493117439 0.035284335137 0.027677621826 0.020782063866 0.014711161939 0.0095712036062 0.0054568688969 0.0024499614632 0.00061637380953 
1.0108045038e-16 
