# vtk DataFile Version 5.1
vtk output
ASCII
DATASET POLYDATA
POINTS 100 float
0.0675663 0.0313185 -0.648195 0.0674072 0.0312926 -0.64777 0.0669403 0.0310496 -0.646491 
0.0661823 0.0305999 -0.644366 0.0651597 0.0299578 -0.64141 0.0639072 0.0291378 -0.637645 
0.0624645 0.0281501 -0.633102 0.0608737 0.0269971 -0.627817 0.0591754 0.0256698 -0.621834 
0.057404 0.0241466 -0.615203 0.0555841 0.0223939 -0.607975 0.053726 0.0203686 -0.600202 
0.0518231 0.018023 -0.591934 0.0498493 0.0153108 -0.583213 0.0477595 0.0121943 -0.574071 
0.045491 0.00865164 -0.564528 0.0429672 0.00468279 -0.554587 0.0401039 0.000314063 -0.544234 
0.036816 -0.00439979 -0.533439 0.0330261 -0.00937634 -0.522156 0.028673 -0.014509 -0.510328 
0.0237189 -0.0196734 -0.49789 0.0181552 -0.0247351 -0.484774 0.012006 -0.0295598 -0.470915 
0.00532799 -0.0340219 -0.456259 -0.00179264 -0.0380143 -0.440763 -0.0092465 -0.041455 -0.424406 
-0.0169099 -0.0442918 -0.407185 -0.0246555 -0.0465048 -0.389122 -0.0323631 -0.0481045 -0.370255 
-0.0399305 -0.049129 -0.350644 -0.0472807 -0.0496371 -0.330361 -0.0543676 -0.0497015 -0.309486 
-0.0611768 -0.0494003 -0.288102 -0.0677224 -0.0488095 -0.266287 -0.0740398 -0.0479959 -0.244112 
-0.0801756 -0.0470125 -0.221636 -0.0861752 -0.0458954 -0.198903 -0.09207 -0.0446632 -0.175943 
-0.0978655 -0.043319 -0.152775 -0.103533 -0.0418534 -0.12941 -0.109002 -0.040249 -0.105851 
-0.114164 -0.0384859 -0.0821085 -0.118874 -0.0365464 -0.0581959 -0.122962 -0.0344198 -0.0341409 
-0.126244 -0.0321055 -0.00998652 -0.128541 -0.0296148 0.0142059 -0.129695 -0.0269717 0.0383574 
-0.129582 -0.0242119 0.062373 -0.128127 -0.0213808 0.0861459 -0.125314 -0.0185311 0.109563 
-0.121181 -0.0157193 0.132512 -0.115827 -0.0130032 0.154886 -0.109395 -0.0104388 0.176595 
-0.102065 -0.00807812 0.197564 -0.0940323 -0.00596763 0.217745 -0.0854948 -0.00414688 0.237113 
-0.0766338 -0.00264786 0.255666 -0.0676004 -0.00149446 0.273428 -0.0585054 -0.000702142 0.29044 
-0.0494147 -0.000277549 0.306758 -0.0403492 -0.000218117 0.322445 -0.0312916 -0.000511668 0.337566 
-0.0221957 -0.0011361 0.352187 -0.0130003 -0.00205933 0.366366 -0.00364345 -0.00323972 0.380153 
0.00592304 -0.00462703 0.39359 0.015722 -0.00616417 0.40671 0.0257421 -0.0077897 0.419542 
0.0359342 -0.00944083 0.43211 0.046212 -0.0110571 0.444437 0.0564573 -0.0125839 0.456549 
0.0665292 -0.013976 0.468474 0.0762763 -0.0152005 0.48024 0.085549 -0.0162387 0.491879 
0.0942126 -0.0170864 0.503419 0.102158 -0.0177538 0.51488 0.109309 -0.0182633 0.526271 
0.115627 -0.0186463 0.537584 0.121114 -0.0189395 0.548791 0.125804 -0.0191804 0.559839 
0.129762 -0.0194034 0.570655 0.133074 -0.0196361 0.581141 0.135836 -0.0198969 0.591184 
0.138149 -0.0201935 0.600661 0.140106 -0.0205233 0.609449 0.141789 -0.0208748 0.617434 
0.143266 -0.02123 0.624521 0.144585 -0.0215679 0.630643 0.145781 -0.0218678 0.635769 
0.146869 -0.0221129 0.639908 0.147858 -0.0222927 0.64311 0.148745 -0.0224047 0.645463 
0.149525 -0.0224547 0.647084 0.150192 -0.022456 0.648114 0.150738 -0.0224273 0.648704 
0.15116 -0.02239 0.649 0.151453 -0.0223649 0.649133 0.151618 -0.0223694 0.649206 
0.151654 -0.0224147 0.649282 
LINES 2 100
OFFSETS vtktypeint64
0 100 
CONNECTIVITY vtktypeint64
0 1 2 3 4 5 6 7 8 
9 10 11 12 13 14 15 16 17 
18 19 20 21 22 23 24 25 26 
27 28 29 30 31 32 33 34 35 
36 37 38 39 40 41 42 43 44 
45 46 47 48 49 50 51 52 53 
54 55 56 57 58 59 60 61 62 
63 64 65 66 67 68 69 70 71 
72 73 74 75 76 77 78 79 80 
81 82 83 84 85 86 87 88 89 
90 91 92 93 94 95 96 97 98 
99 
POINT_DATA 100
FIELD FieldData 3
_theta 1 100 double
0 0.031733259127 0.063466518254 0.095199777382 0.12693303651 0.15866629564 0.19039955476 0.22213281389 0.25386607302 
0.28559933214 0.31733259127 0.3490658504 0.38079910953 0.41253236865 0.44426562778 0.47599888691 0.50773214603 0.53946540516 
0.57119866429 0.60293192342 0.63466518254 0.66639844167 0.6981317008 0.72986495992 0.76159821905 0.79333147818 0.82506473731 
0.85679799643 0.88853125556 0.92026451469 0.95199777382 0.98373103294 1.0154642921 1.0471975512 1.0789308103 1.1106640695 
1.1423973286 1.1741305877 1.2058638468 1.237597106 1.2693303651 1.3010636242 1.3327968833 1.3645301425 1.3962634016 
1.4279966607 1.4597299198 1.491463179 1.5231964381 1.5549296972 1.5866629564 1.6183962155 1.6501294746 1.6818627337 
1.7135959929 1.745329252 1.7770625111 1.8087957702 1.8405290294 1.8722622885 1.9039955476 1.9357288068 1.9674620659 
1.999195325 2.0309285841 2.0626618433 2.0943951024 2.1261283615 2.1578616206 2.1895948798 2.2213281389 2.253061398 
2.2847946572 2.3165279163 2.3482611754 2.3799944345 2.4117276937 2.4434609528 2.4751942119 2.506927471 2.5386607302 
2.5703939893 2.6021272484 2.6338605076 2.6655937667 2.6973270258 2.7290602849 2.7607935441 2.7925268032 2.8242600623 
2.8559933214 2.8877265806 2.9194598397 2.9511930988 2.982926358 3.0146596171 3.0463928762 3.0781261353 3.1098593945 
3.1415926536 
_radius 1 100 double
1.2263599364e-15 0.014243102031 0.028372375052 0.042279697572 0.055867915895 0.069054563017 0.081773921009 0.093977248018 0.10563118155 
0.11671454249 0.12721399418 0.13711921457 0.14641835214 0.15509451066 0.16312383806 0.17047552353 0.17711370173 0.18300098985 
0.18810318848 0.19239457963 0.19586324735 0.19851589023 0.20038163692 0.20151438884 0.20199322419 0.20192046372 0.20141716472 
0.20061608052 0.19965248713 0.19865371063 0.1977286146 0.19695857091 0.19639135916 0.19603897057 0.1958796214 0.19586370825 
0.19592305156 0.19598237272 0.19597144684 0.19583608145 0.19554630709 0.19510082572 0.1945275568 0.19388090321 0.19323704135 
0.19268881793 0.19234132641 0.19230801076 0.19270595964 0.19364876845 0.19523617251 0.1975410758 0.20059591667 0.20438113577 
0.20881874689 0.21377350039 0.21906262594 0.22447285472 0.22978134679 0.23477638821 0.23927448306 0.24313202649 0.24625124073 
0.24858103892 0.25011391017 0.25087994355 0.2509389147 0.25037110048 0.24926726851 0.24771819606 0.24580420993 0.24358567125 
0.24109590075 0.23833826034 0.23528843509 0.23190144297 0.22812138051 0.22389131173 0.21916118627 0.21389270312 0.20806103836 
0.20165404725 0.19466988553 0.187114011 0.17899630755 0.17032874586 0.16112370563 0.15139293642 0.14114713673 0.13039620131 
0.11915021444 0.1074211878 0.095225375424 0.082585823766 0.069534713099 0.056115056859 0.04238143385 0.028399591376 0.014244927039 
8.7525260981e-16 
_area 1 100 double
0 0.00050305987057 0.0020021133358 0.0044665509033 0.0078447324256 0.012063618295 0.017029379928 0.022629662802 0.028737481734 
0.035215918446 0.041922517576 0.048712781957 0.055443071024 0.061973832121 0.068174002826 0.073926661721 0.079134954929 0.083726474684 
0.087654163302 0.090892887226 0.093432882337 0.095273263467 0.096419416481 0.096887228766 0.096718101085 0.096017032497 0.094973939845 
0.093516000548 0.091752049938 0.089850328769 0.088014356307 0.086458652453 0.08538166023 0.084964764547 0.08531224152 0.086355487557 
0.087991043824 0.090061993605 0.092375654887 0.094737096604 0.096987137784 0.099030410406 0.10083866854 0.10242645281 0.10381736499 
0.10502911811 0.10609074458 0.10707963814 0.10815014881 0.10953217617 0.11150420814 0.11435615756 0.11833676394 0.12358046398 
0.13004272759 0.13748654494 0.14552301192 0.15367655774 0.16145459625 0.16841267616 0.17420685919 0.17862559644 0.1815975979 
0.18317731584 0.1835123607 0.18279739818 0.18122201058 0.17892992823 0.17601139204 0.17253011072 0.16855876979 0.16419560997 
0.15955295743 0.15472467258 0.14975075549 0.14460394911 0.13920914742 0.13347888266 0.12734369674 0.12077095081 0.11377320026 
0.10640684533 0.098761868088 0.090945418124 0.083063617638 0.075206189383 0.067437685297 0.059797547718 0.052308981372 0.044993918882 
0.037889145164 0.031058128036 0.024594853564 0.018619119358 0.01326555844 0.0086700087371 0.0049566822811 0.0022284405664 0.00056093551763 
7.3904021117e-17 
