# vtk DataFile Version 5.1
vtk output
ASCII
DATASET POLYDATA
POINTS 100 float
0.0998423 0.0583121 -0.680242 0.0997887 0.0582584 -0.679794 0.0996156 0.0578605 -0.678422 
0.0993433 0.0571252 -0.676132 0.099002 0.0560625 -0.672933 0.0986273 0.0546832 -0.668847 
0.0982529 0.0529953 -0.663902 0.0979045 0.0510009 -0.658143 0.0975924 0.0486945 -0.651624 
0.0973057 0.0460631 -0.644414 0.0970087 0.0430881 -0.636588 0.0966394 0.0397488 -0.628227 
0.0961103 0.0360282 -0.619404 0.0953128 0.0319189 -0.610185 0.0941238 0.0274293 -0.600615 
0.0924144 0.0225887 -0.590717 0.0900603 0.0174503 -0.580487 0.0869523 0.0120914 -0.569892 
0.0830061 0.00661119 -0.558875 0.0781711 0.00112485 -0.547361 0.0724356 -0.00424455 -0.535264 
0.0658293 -0.00937572 -0.522499 0.0584223 -0.0141593 -0.50899 0.0503198 -0.0185076 -0.494681 
0.0416539 -0.0223614 -0.479543 0.0325726 -0.0256951 -0.463577 0.0232279 -0.028517 -0.446814 
0.0137633 -0.0308663 -0.429311 0.00430244 -0.0328067 -0.411144 -0.00505947 -0.0344167 -0.3924 
-0.0142606 -0.0357792 -0.37316 -0.0232735 -0.0369703 -0.353497 -0.0321016 -0.0380494 -0.333462 
-0.0407712 -0.039052 -0.31308 -0.0493208 -0.0399858 -0.292348 -0.0577876 -0.0408309 -0.271239 
-0.0661936 -0.0415435 -0.24971 -0.0745334 -0.0420633 -0.227708 -0.0827633 -0.0423227 -0.205183 
-0.0907961 -0.0422575 -0.182103 -0.0984998 -0.0418165 -0.158457 -0.105702 -0.0409702 -0.134271 
-0.1122 -0.0397151 -0.109604 -0.117774 -0.0380761 -0.0845478 -0.122207 -0.0361042 -0.0592258 
-0.125299 -0.0338708 -0.0337784 -0.126889 -0.0314599 -0.008354 -0.126871 -0.0289588 0.0169048 
-0.1252 -0.0264485 0.0418725 -0.121903 -0.0239961 0.0664502 -0.117078 -0.0216493 0.0905714 
-0.110884 -0.0194337 0.114203 -0.10353 -0.0173545 0.137343 -0.0952591 -0.0154006 0.160011 
-0.0863297 -0.0135518 0.18224 -0.0769927 -0.0117865 0.204067 -0.0674751 -0.0100903 0.225518 
-0.0579639 -0.00846276 0.246602 -0.0485964 -0.0069217 0.267304 -0.0394549 -0.00550438 0.287585 
-0.0305684 -0.0042651 0.307388 -0.0219194 -0.00326941 0.326637 -0.0134553 -0.00258582 0.345258 
-0.00510243 -0.00227614 0.363183 0.00321826 -0.00238575 0.380364 0.0115767 -0.00293538 0.396782 
0.0200213 -0.00391562 0.41245 0.0285709 -0.00528501 0.427418 0.0372107 -0.00697227 0.441763 
0.0458933 -0.00888232 0.455584 0.0545443 -0.0109056 0.468988 0.0630715 -0.0129293 0.482075 
0.0713756 -0.0148491 0.494928 0.0793626 -0.0165795 0.507592 0.0869545 -0.0180626 0.520079 
0.0940977 -0.0192716 0.532352 0.100769 -0.0202114 0.544341 0.106975 -0.0209142 0.555943 
0.112752 -0.021431 0.56704 0.118159 -0.0218218 0.577515 0.123269 -0.0221431 0.587269 
0.128158 -0.0224376 0.596235 0.132897 -0.0227249 0.604393 0.137542 -0.0229966 0.611772 
0.142129 -0.0232164 0.618451 0.14667 -0.0233235 0.624551 0.151151 -0.0232418 0.630221 
0.155538 -0.0228912 0.635617 0.159779 -0.0222017 0.640888 0.163814 -0.021126 0.646146 
0.167582 -0.0196511 0.651458 0.171025 -0.0178054 0.65683 0.174097 -0.0156614 0.662204 
0.176764 -0.0133324 0.667458 0.179008 -0.010964 0.672425 0.180823 -0.00872099 0.676903 
0.182215 -0.00677136 0.680681 0.183193 -0.00526893 0.683561 0.18377 -0.00433714 0.685383 
0.183953 -0.00405572 0.686041 
LINES 2 100
OFFSETS vtktypeint64
0 100 
CONNECTIVITY vtktypeint64
0 1 2 3 4 5 6 7 8 
9 10 11 12 13 14 15 16 17 
18 19 20 21 22 23 24 25 26 
27 28 29 30 31 32 33 34 35 
36 37 38 39 40 41 42 43 44 
45 46 47 48 49 50 51 52 53 
54 55 56 57 58 59 60 61 62 
63 64 65 66 67 68 69 70 71 
72 73 74 75 76 77 78 79 80 
81 82 83 84 85 86 87 88 89 
90 91 92 93 94 95 96 97 98 
99 
POINT_DATA 100
FIELD FieldData 3
_theta 1 100 double
0 0.031733259127 0.063466518254 0.095199777382 0.12693303651 0.15866629564 0.19039955476 0.22213281389 0.25386607302 
0.28559933214 0.31733259127 0.3490658504 0.38079910953 0.41253236865 0.44426562778 0.47599888691 0.50773214603 0.53946540516 
0.57119866429 0.60293192342 0.63466518254 0.66639844167 0.6981317008 0.72986495992 0.76159821905 0.79333147818 0.82506473731 
0.85679799643 0.88853125556 0.92026451469 0.95199777382 0.98373103294 1.0154642921 1.0471975512 1.0789308103 1.1106640695 
1.1423973286 1.1741305877 1.2058638468 1.237597106 1.2693303651 1.3010636242 1.3327968833 1.3645301425 1.3962634016 
1.4279966607 1.4597299198 1.491463179 1.5231964381 1.5549296972 1.5866629564 1.6183962155 1.6501294746 1.6818627337 
1.7135959929 1.745329252 1.7770625111 1.8087957702 1.8405290294 1.8722622885 1.9039955476 1.9357288068 1.9674620659 
1.999195325 2.0309285841 2.0626618433 2.0943951024 2.1261283615 2.1578616206 2.1895948798 2.2213281389 2.253061398 
2.2847946572 2.3165279163 2.3482611754 2.3799944345 2.4117276937 2.4434609528 2.4751942119 2.506927471 2.5386607302 
2.5703939893 2.6021272484 2.6338605076 2.6655937667 2.6973270258 2.7290602849 2.7607935441 2.7925268032 2.8242600623 
2.8559933214 2.8877265806 2.9194598397 2.9511930988 2.982926358 3.0146596171 3.0463928762 3.0781261353 3.1098593945 
3.1415926536 
_radius 1 100 double
9.0034655194e-16 0.01533964088 0.030581681832 0.045630009448 0.060405561756 0.074851300486 0.088933252864 0.1026374197 0.11596306567 
0.12891351629 0.14148598022 0.15366205805 0.16540051331 0.17663360954 0.18726789393 0.19718974762 0.2062753544 0.21440402833 
0.22147320384 0.22741296491 0.23219788461 0.23585421155 0.23846104532 0.24014499944 0.24106882352 0.24141539782 0.2413692675 
0.24109830992 0.24073812579 0.24038128694 0.24007274876 0.23981173924 0.23955950835 0.23925162856 0.23881311509 0.23817443385 
0.2372864335 0.23613234973 0.23473529642 0.233160159 0.23150961414 0.22991503618 0.22852403657 0.22748694376 0.2269443485 
0.22701689337 0.22779725611 0.2293435408 0.23167353531 0.23476028269 0.23853036735 0.24286653098 0.24761558714 0.25260147329 
0.2576420727 0.26256739247 0.26723604911 0.2715471042 0.27544519738 0.27891834413 0.28198922176 0.28470189675 0.28710659345 
0.28924524676 0.29114025064 0.29278806911 0.2941583264 0.29519783933 0.29583809238 0.29600418191 0.2956233969 0.29463218914 
0.29298093669 0.29063630607 0.28758116318 0.28381209418 0.27933486119 0.2741585092 0.26828920758 0.26172510259 0.25445339275 
0.246450492 0.2376855562 0.2281269228 0.21775031424 0.20654716168 0.19453127884 0.18174245331 0.16824628298 0.15413050919 
0.13949877508 0.1244629144 0.1091346983 0.09361779585 0.078000704373 0.062351454565 0.046714798942 0.031112289355 0.015545220018 
6.1285222381e-16 
_area 1 100 double
0 0.00068276386071 0.0027084581352 0.0060106551833 0.010483296305 0.015987966373 0.022364353529 0.029443430461 0.037061783549 
0.045074104702 0.053359968226 0.061821729173 0.070373039355 0.078920991565 0.087347487284 0.095495999181 0.103168553 0.11013526542 
0.11615605957 0.12101173531 0.12453926791 0.12666409888 0.12742138835 0.12696024657 0.12553015162 0.12345499572 0.12110272405 
0.11885064967 0.11714395307 0.11612339188 0.11578342013 0.11619503047 0.11726886185 0.118817942 0.12061872504 0.12246790394 
0.12421405607 0.12578146717 0.12717848823 0.12847941845 0.12978063912 0.13115847048 0.13266580904 0.13435659088 0.13629051149 
0.13851396272 0.14107561822 0.14406777088 0.14762765414 0.15190015962 0.15698974165 0.16291935202 0.16960672852 0.1768623097 
0.18440795267 0.19191263582 0.19903910965 0.20549286082 0.21106309973 0.2156466804 0.21925006408 0.22197010881 0.2239595463 
0.22538558249 0.22638917265 0.22705041884 0.22736718592 0.22725682001 0.22658270442 0.22519209057 0.22294817686 0.21974870138 
0.21553218227 0.21027561814 0.20398745035 0.19670077996 0.18847214437 0.17938564242 0.16955495537 0.1591167891 0.14821717335 
0.13699763202 0.12558776326 0.11410646108 0.1026690436 0.091394273705 0.080405191042 0.069821319198 0.059746003163 0.050257729315 
0.041412952541 0.033259081615 0.025848098094 0.019242340093 0.013511299772 0.0087236566346 0.004939441647 0.0022052153261 0.00055274308651 
5.5517927081e-17 
