# vtk DataFile Version 5.1
vtk output
ASCII
DATASET POLYDATA
POINTS 100 float
0.126308 0.0263563 -0.657746 0.126025 0.0263017 -0.65757 0.125236 0.0260063 -0.657142 
0.123985 0.025505 -0.65641 0.122335 0.0248504 -0.655297 0.120368 0.0241041 -0.653704 
0.118172 0.0233278 -0.651524 0.115834 0.0225729 -0.648653 0.113429 0.0218718 -0.645 
0.111015 0.0212317 -0.640498 0.108622 0.0206308 -0.635106 0.106249 0.0200194 -0.628817 
0.103865 0.0193236 -0.621648 0.10141 0.0184529 -0.613644 0.0987954 0.0173103 -0.604862 
0.0959189 0.0158032 -0.595368 0.0926685 0.013854 -0.585224 0.0889351 0.0114097 -0.574482 
0.0846228 0.00844894 -0.563179 0.0796587 0.00498484 -0.551333 0.0740009 0.00106538 -0.53894 
0.0676427 -0.00323062 -0.525987 0.0606155 -0.00780004 -0.512448 0.0529861 -0.0125242 -0.498294 
0.0448524 -0.0172786 -0.483506 0.0363347 -0.0219421 -0.468074 0.0275667 -0.0264055 -0.452004 
0.0186832 -0.0305772 -0.435322 0.00981002 -0.0343869 -0.41807 0.00105393 -0.0377867 -0.4003 
-0.00750494 -0.0407492 -0.382072 -0.0158173 -0.0432644 -0.363442 -0.0238653 -0.0453357 -0.344455 
-0.0316599 -0.0469744 -0.325136 -0.0392339 -0.0481969 -0.305487 -0.046633 -0.0490208 -0.285485 
-0.0539045 -0.0494642 -0.265079 -0.0610864 -0.0495455 -0.244202 -0.0681957 -0.0492849 -0.222777 
-0.0752203 -0.048706 -0.200723 -0.0821129 -0.0478384 -0.177976 -0.0887892 -0.0467188 -0.154491 
-0.0951304 -0.0453913 -0.130259 -0.100989 -0.0439066 -0.105309 -0.106199 -0.0423187 -0.0797145 
-0.110588 -0.0406815 -0.0535887 -0.113991 -0.0390437 -0.0270816 -0.116266 -0.0374435 -0.000369777 
-0.117302 -0.0359053 0.0263552 -0.117034 -0.0344358 0.0528994 -0.115444 -0.0330245 0.0790799 
-0.112567 -0.0316445 0.104735 -0.108485 -0.0302572 0.129736 -0.103324 -0.028818 0.153987 
-0.0972377 -0.0272844 0.177432 -0.0904019 -0.025623 0.200049 -0.082996 -0.0238176 0.221847 
-0.0751919 -0.0218738 0.242858 -0.0671414 -0.0198227 0.263125 -0.0589674 -0.01772 0.282698 
-0.0507586 -0.0156428 0.301626 -0.0425673 -0.0136836 0.319947 -0.0344116 -0.0119408 0.337689 
-0.0262811 -0.0105094 0.354872 -0.0181444 -0.00947069 0.371501 -0.00995886 -0.00888376 0.387581 
-0.00168081 -0.00877885 0.403114 0.00672535 -0.00915422 0.418109 0.0152794 -0.00997646 0.432581 
0.0239797 -0.0111844 0.44656 0.0328013 -0.0126959 0.460085 0.0416957 -0.0144169 0.473208 
0.0505942 -0.0162516 0.485987 0.0594134 -0.0181117 0.498478 0.0680616 -0.0199241 0.510733 
0.0764465 -0.0216371 0.52279 0.0844822 -0.0232216 0.534669 0.0920955 -0.0246699 0.546365 
0.0992307 -0.0259916 0.557847 0.105852 -0.0272069 0.569058 0.111945 -0.0283379 0.579921 
0.117515 -0.0294015 0.590337 0.122584 -0.0304025 0.600202 0.127187 -0.0313291 0.609407 
0.131366 -0.0321525 0.617852 0.135169 -0.0328286 0.625453 0.138639 -0.0333036 0.632148 
0.141818 -0.0335224 0.637905 0.144737 -0.0334372 0.642722 0.147419 -0.0330175 0.646629 
0.149879 -0.0322576 0.649685 0.15212 -0.0311818 0.651978 0.15414 -0.0298465 0.65361 
0.155928 -0.028338 0.6547 0.157472 -0.0267658 0.655369 0.158756 -0.0252534 0.655736 
0.159766 -0.0239265 0.65591 0.160488 -0.0229002 0.655981 0.160913 -0.022267 0.656016 
0.161034 -0.0220865 0.656058 
LINES 2 100
OFFSETS vtktypeint64
0 100 
CONNECTIVITY vtktypeint64
0 1 2 3 4 5 6 7 8 
9 10 11 12 13 14 15 16 17 
18 19 20 21 22 23 24 25 26 
27 28 29 30 31 32 33 34 35 
36 37 38 39 40 41 42 43 44 
45 46 47 48 49 50 51 52 53 
54 55 56 57 58 59 60 61 62 
63 64 65 66 67 68 69 70 71 
72 73 74 75 76 77 78 79 80 
81 82 83 84 85 86 87 88 89 
90 91 92 93 94 95 96 97 98 
99 
POINT_DATA 100
FIELD FieldData 3
_theta 1 100 double
0 0.031733259127 0.063466518254 0.095199777382 0.12693303651 0.15866629564 0.19039955476 0.22213281389 0.25386607302 
0.28559933214 0.31733259127 0.3490658504 0.38079910953 0.41253236865 0.44426562778 0.47599888691 0.50773214603 0.53946540516 
0.57119866429 0.60293192342 0.63466518254 0.66639844167 0.6981317008 0.72986495992 0.76159821905 0.79333147818 0.82506473731 
0.85679799643 0.88853125556 0.92026451469 0.95199777382 0.98373103294 1.0154642921 1.0471975512 1.0789308103 1.1106640695 
1.1423973286 1.1741305877 1.2058638468 1.237597106 1.2693303651 1.3010636242 1.3327968833 1.3645301425 1.3962634016 
1.4279966607 1.4597299198 1.491463179 1.5231964381 1.5549296972 1.5866629564 1.6183962155 1.6501294746 1.6818627337 
1.7135959929 1.745329252 1.7770625111 1.8087957702 1.8405290294 1.8722622885 1.9039955476 1.9357288068 1.9674620659 
1.999195325 2.0309285841 2.0626618433 2.0943951024 2.1261283615 2.1578616206 2.1895948798 2.2213281389 2.253061398 
2.2847946572 2.3165279163 2.3482611754 2.3799944345 2.4117276937 2.4434609528 2.4751942119 2.506927471 2.5386607302 
2.5703939893 2.6021272484 2.6338605076 2.6655937667 2.6973270258 2.7290602849 2.7607935441 2.7925268032 2.8242600623 
2.8559933214 2.8877265806 2.9194598397 2.9511930988 2.982926358 3.0146596171 3.0463928762 3.0781261353 3.1098593945 
3.1415926536 
_radius 1 100 double
2.2761264355e-16 0.013076074338 0.02606454327 0.038886246363 0.05147903873 0.063799991649 0.075821992887 0.087525618807 0.09888853193 
0.10987537847 0.12043096771 0.13047849899 0.13992316788 0.14866015171 0.1565851412 0.16360538671 0.16964955622 0.17467531539 
0.17867418141 0.18167367936 0.18373705397 0.18496077294 0.18546990316 0.18541130309 0.18494461409 0.1842313473 0.18342292335 
0.18264913954 0.1820088762 0.18156456077 0.18134090757 0.1813271952 0.18148163717 0.18173673912 0.18200558572 0.18218984424 
0.18219017096 0.18191868926 0.1813119754 0.18034229386 0.17902494891 0.17742037581 0.17563064325 0.17379108627 0.17205860183 
0.17059851738 0.16957177115 0.16912349195 0.1693732593 0.17040681522 0.17226905641 0.17495862013 0.17842487523 0.18256831551 
0.18724516647 0.19227652911 0.19746166903 0.20259422798 0.20747942213 0.21194995705 0.21587856647 0.21918569628 0.22184168741 
0.22386362588 0.22530767185 0.22625809644 0.22681445083 0.22707828795 0.22714069124 0.22707160863 0.22691175928 0.22666776493 
0.22631111581 0.22578139358 0.22499360396 0.22384856185 0.22224445117 0.22008743807 0.21729966317 0.21382378069 0.20962406234 
0.20468469557 0.19900619767 0.19260085751 0.1854878968 0.17768876459 0.16922279335 0.16010343408 0.15033543462 0.13991353814 
0.12882341319 0.11704540757 0.10456122575 0.091362831456 0.077462074987 0.06289911092 0.047747795279 0.032116842776 0.016146338376 
1.258892753e-15 
_area 1 100 double
0 0.00042925155839 0.0017160472308 0.0038562062038 0.0068388606692 0.010641865903 0.015227064549 0.020535859276 0.026485095872 
0.032963329952 0.039828144927 0.046905851968 0.053995084671 0.060875266792 0.067319857934 0.073113064713 0.078067754237 0.082041932195 
0.084951447287 0.086777373584 0.087567450458 0.08743177332 0.086533613786 0.085076770641 0.083290329245 0.081407346271 0.079629240164 
0.078091707223 0.07686961267 0.076001013644 0.075501816158 0.075373635381 0.075605566637 0.076168159864 0.07700272291 0.078013943743 
0.079073282585 0.08003967139 0.080796878913 0.081289017259 0.081535509043 0.081619507031 0.081652907441 0.081732878966 0.081916894227 
0.082233842097 0.0827196797 0.083453775778 0.0845867913 0.086233459425 0.088478011408 0.091420225802 0.095142452257 0.099669886804 
0.10493786971 0.11077482578 0.11690191646 0.12295798707 0.12855643837 0.13335611814 0.1371184472 0.1397374633 0.14124124556 
0.14176765539 0.14152090409 0.1407201276 0.13955486219 0.13816008488 0.13661330195 0.1349451447 0.13315235715 0.13120820997 
0.12907153112 0.12669568344 0.12403679829 0.12106015837 0.11774342291 0.11407524522 0.1100494735 0.10565818174 0.10088805308 
0.095722439646 0.090148402663 0.084166583135 0.077800983998 0.071105133823 0.064161861222 0.057076324271 0.049964658099 0.042942350456 
0.036116639 0.029585481996 0.02344241879 0.017783746735 0.012713689878 0.0083446138688 0.0047915647515 0.002162363649 0.00054569409403 
3.13864111e-17 
