# vtk DataFile Version 5.1
vtk output
ASCII
DATASET POLYDATA
POINTS 100 float
0.149134 0.0778298 -0.680143 0.149233 0.0778411 -0.679995 0.149462 0.0776651 -0.679534 
0.14978 0.0772742 -0.67871 0.150123 0.0766262 -0.677448 0.150415 0.0756686 -0.675654 
0.150574 0.0743442 -0.673226 0.150519 0.0725967 -0.670073 0.150184 0.0703768 -0.666116 
0.149514 0.0676474 -0.661309 0.148473 0.0643872 -0.655637 0.14704 0.0605936 -0.649124 
0.145203 0.056283 -0.64183 0.142953 0.0514903 -0.633844 0.140278 0.0462665 -0.625277 
0.137152 0.0406748 -0.616248 0.133533 0.0347867 -0.60687 0.129362 0.0286772 -0.597237 
0.124564 0.022421 -0.587411 0.119054 0.0160891 -0.577412 0.112749 0.00974582 -0.567213 
0.105579 0.0034482 -0.556743 0.0975004 -0.00275449 -0.545887 0.0885073 -0.00881954 -0.534499 
0.0786407 -0.0147091 -0.522411 0.0679927 -0.0203879 -0.509459 0.0567052 -0.025821 -0.495486 
0.044962 -0.0309716 -0.480372 0.0329773 -0.0357997 -0.464035 0.020978 -0.0402615 -0.44645 
0.00918538 -0.04431 -0.427645 -0.00220368 -0.0478958 -0.407704 -0.0130334 -0.0509698 -0.386757 
-0.0232007 -0.0534855 -0.364967 -0.0326612 -0.0554024 -0.342516 -0.0414278 -0.0566892 -0.319587 
-0.0495619 -0.0573264 -0.296342 -0.0571598 -0.0573091 -0.272914 -0.0643329 -0.0566479 -0.249393 
-0.0711876 -0.0553705 -0.225816 -0.0778044 -0.0535205 -0.202175 -0.0842211 -0.0511566 -0.178418 
-0.0904212 -0.0483504 -0.154462 -0.0963295 -0.0451834 -0.13021 -0.101815 -0.0417439 -0.105567 
-0.106701 -0.0381225 -0.0804589 -0.110785 -0.0344091 -0.0548476 -0.113857 -0.0306885 -0.0287428 
-0.115724 -0.0270375 -0.00220788 -0.116231 -0.0235218 0.0246403 -0.115282 -0.0201941 0.0516379 
-0.112848 -0.0170928 0.0785861 -0.108976 -0.0142419 0.105268 -0.103785 -0.011652 0.131466 
-0.0974531 -0.00932157 0.156983 -0.0902024 -0.00724002 0.181657 -0.0822784 -0.0053909 0.205373 
-0.0739265 -0.00375562 0.228074 -0.065371 -0.00231735 0.249758 -0.0567971 -0.00106464 0.270477 
-0.0483385 5.5875e-06 0.290323 -0.0400716 0.00088597 0.309413 -0.0320176 0.00155788 0.327877 
-0.0241495 0.00199205 0.345839 -0.0164059 0.00215064 0.3634 -0.00870752 0.00199073 0.380631 
-0.000973927 0.00146892 0.397567 0.00685974 0.000546677 0.414205 0.0148302 -0.000804108 0.430514 
0.022938 -0.00259595 0.44644 0.0311448 -0.00482157 0.461922 0.0393767 -0.00745121 0.476904 
0.047532 -0.0104319 0.491349 0.0554929 -0.0136891 0.505246 0.0631388 -0.0171302 0.518614 
0.0703596 -0.0206505 0.531506 0.0770675 -0.0241402 0.543995 0.0832054 -0.0274931 0.556168 
0.0887514 -0.0306147 0.56811 0.0937186 -0.0334297 0.579888 0.0981511 -0.0358885 0.591534 
0.102116 -0.0379709 0.603039 0.105695 -0.0396868 0.61434 0.108973 -0.0410752 0.625327 
0.112028 -0.042199 0.635844 0.114924 -0.043138 0.645703 0.117707 -0.0439802 0.654709 
0.1204 -0.0448122 0.662672 0.123005 -0.0457093 0.669437 0.125508 -0.0467278 0.674902 
0.127883 -0.0478981 0.679031 0.130095 -0.0492216 0.681867 0.132109 -0.0506705 0.683527 
0.133895 -0.0521902 0.684199 0.135428 -0.0537059 0.684122 0.13669 -0.0551302 0.683565 
0.137671 -0.0563728 0.6828 0.138368 -0.0573507 0.682076 0.138778 -0.0579969 0.681591 
0.138904 -0.0582681 0.681471 
LINES 2 100
OFFSETS vtktypeint64
0 100 
CONNECTIVITY vtktypeint64
0 1 2 3 4 5 6 7 8 
9 10 11 12 13 14 15 16 17 
18 19 20 21 22 23 24 25 26 
27 28 29 30 31 32 33 34 35 
36 37 38 39 40 41 42 43 44 
45 46 47 48 49 50 51 52 53 
54 55 56 57 58 59 60 61 62 
63 64 65 66 67 68 69 70 71 
72 73 74 75 76 77 78 79 80 
81 82 83 84 85 86 87 88 89 
90 91 92 93 94 95 96 97 98 
99 
POINT_DATA 100
FIELD FieldData 3
_theta 1 100 double
0 0.031733259127 0.063466518254 0.095199777382 0.12693303651 0.15866629564 0.19039955476 0.22213281389 0.25386607302 
0.28559933214 0.31733259127 0.3490658504 0.38079910953 0.41253236865 0.44426562778 0.47599888691 0.50773214603 0.53946540516 
0.57119866429 0.60293192342 0.63466518254 0.66639844167 0.6981317008 0.72986495992 0.76159821905 0.79333147818 0.82506473731 
0.85679799643 0.88853125556 0.92026451469 0.95199777382 0.98373103294 1.0154642921 1.0471975512 1.0789308103 1.1106640695 
1.1423973286 1.1741305877 1.2058638468 1.237597106 1.2693303651 1.3010636242 1.3327968833 1.3645301425 1.3962634016 
1.4279966607 1.4597299198 1.491463179 1.5231964381 1.5549296972 1.5866629564 1.6183962155 1.6501294746 1.6818627337 
1.7135959929 1.745329252 1.7770625111 1.8087957702 1.8405290294 1.8722622885 1.9039955476 1.9357288068 1.9674620659 
1.999195325 2.0309285841 2.0626618433 2.0943951024 2.1261283615 2.1578616206 2.1895948798 2.2213281389 2.253061398 
2.2847946572 2.3165279163 2.3482611754 2.3799944345 2.4117276937 2.4434609528 2.4751942119 2.506927471 2.5386607302 
2.5703939893 2.6021272484 2.6338605076 2.6655937667 2.6973270258 2.7290602849 2.7607935441 2.7925268032 2.8242600623 
2.8559933214 2.8877265806 2.9194598397 2.9511930988 2.982926358 3.0146596171 3.0463928762 3.0781261353 3.1098593945 
3.1415926536 
_radius 1 100 double
1.3498601114e-15 0.014405473164 0.028716733337 0.042847613549 0.056730346846 0.070319442254 0.08359065186 0.096535355248 0.10915170007 
0.12143449754 0.13336600315 0.14490929521 0.15600517026 0.16657260704 0.17651220352 0.18571172718 0.19405301013 0.20141969067 
0.20770553244 0.21282309867 0.21671240832 0.21934894687 0.22075017453 0.22097957202 0.22014733967 0.21840713079 0.21594864478 
0.21298649038 0.2097463626 0.20645010088 0.20330141218 0.20047380597 0.19810162313 0.19627423147 0.19503295067 0.1943703814 
0.1942324519 0.19452412079 0.19511964593 0.19587736689 0.19665740381 0.1973394058 0.19783733627 0.19810932726 0.19816195443 
0.19804901592 0.19786531192 0.19773669029 0.19780832177 0.19823263432 0.19915665727 0.20070750498 0.20297580613 0.20599934342 
0.20975093102 0.21413428434 0.21898968704 0.2241088827 0.22925676232 0.2341963845 0.23871359527 0.24263786058 0.24585673653 
0.24832251264 0.2500507677 0.25111165274 0.2516154914 0.25169470042 0.25148414477 0.2511019837 0.25063295378 0.25011589279 
0.24953703967 0.24883011056 0.2478832967 0.24655228027 0.24467738475 0.24210233422 0.23869192918 0.23434623877 0.22900954301 
0.22267309137 0.21537164538 0.20717463342 0.1981734713 0.18846710553 0.17814804483 0.16729100794 0.1559458295 0.14413549955 
0.13185931291 0.11910026691 0.10583523785 0.092046176761 0.077730581223 0.062909750246 0.04763372862 0.031982330394 0.016062151777 
1.5817177922e-15 
_area 1 100 double
0 0.00054667395222 0.0021763605969 0.0048579178261 0.0085394826738 0.01314985461 0.018601906186 0.024797702272 0.031633989835 
0.039006231093 0.046809373905 0.054934096887 0.063258806379 0.071640347441 0.079908651815 0.087869841007 0.095318333877 0.10205392135 
0.1078973334 0.11269897633 0.11634033731 0.11873333377 0.11982453748 0.11960665361 0.11813295302 0.1155271381 0.11198344544 
0.10775703969 0.10314808518 0.098483138288 0.094096648646 0.09031375678 0.087438571991 0.085679421534 0.085027578177 0.085399924385 
0.086658840018 0.088597649585 0.090967191145 0.093513476008 0.09601748986 0.098340575323 0.10047100368 0.10253872863 0.10466264343 
0.10672729412 0.10852281732 0.1099477534 0.11117926865 0.11251009774 0.1139279751 0.1156426569 0.11797143747 0.12121548848 
0.12555796286 0.13099455295 0.1373390134 0.14426662852 0.15135781171 0.15814600789 0.16417974372 0.16909293623 0.17266613095 
0.17486023835 0.17581527129 0.1758459113 0.17532937906 0.17453323321 0.1736590293 0.17263088823 0.17143034771 0.1700178495 
0.16834236237 0.16633485389 0.16390201982 0.16092950771 0.15729927734 0.1529153871 0.14771735844 0.14166773184 0.13475472926 
0.12702457173 0.11859529475 0.10964116168 0.10036268899 0.090954181975 0.081577248634 0.072346490077 0.063330612296 0.054568032102 
0.04609106 0.03794942733 0.0302253228 0.023037287463 0.01653480134 0.010886700117 0.0062658999741 0.0028322535966 0.00071541606372 
8.8590224404e-17 
