# vtk DataFile Version 5.1
vtk output
ASCII
DATASET POLYDATA
POINTS 100 float
0.0410361 0.0617011 -0.671285 0.0411737 0.0615556 -0.671063 0.0415931 0.0608811 -0.670337 
0.0422981 0.0596905 -0.669076 0.0432918 0.0580059 -0.66723 0.0445718 0.0558578 -0.664742 
0.0461248 0.0532837 -0.661549 0.04792 0.0503268 -0.657598 0.0499043 0.0470342 -0.652845 
0.0519994 0.0434549 -0.647266 0.0541003 0.0396375 -0.640855 0.0560776 0.0356283 -0.633626 
0.0577825 0.031469 -0.625612 0.0590544 0.0271958 -0.616856 0.0597307 0.0228376 -0.607405 
0.0596581 0.0184167 -0.597305 0.058704 0.0139486 -0.586591 0.0567669 0.00944418 -0.575286 
0.0537849 0.00491129 -0.563394 0.0497413 0.000357789 -0.550902 0.0446668 -0.0042056 -0.537784 
0.0386376 -0.00876245 -0.524003 0.0317699 -0.0132882 -0.509518 0.0242111 -0.0177484 -0.494296 
0.0161285 -0.0220987 -0.47831 0.00769702 -0.0262849 -0.461555 -0.000913585 -0.0302455 -0.444043 
-0.00955013 -0.0339148 -0.425806 -0.0180852 -0.0372269 -0.406897 -0.0264229 -0.0401206 -0.38738 
-0.0345016 -0.042544 -0.367329 -0.0422921 -0.0444588 -0.346816 -0.0497925 -0.045844 -0.325904 
-0.0570202 -0.0466976 -0.304646 -0.0640025 -0.0470373 -0.283074 -0.0707653 -0.0468993 -0.261202 
-0.0773234 -0.0463357 -0.239025 -0.0836717 -0.0454099 -0.216528 -0.0897799 -0.0441924 -0.193685 
-0.0955896 -0.0427545 -0.170472 -0.101016 -0.0411638 -0.146874 -0.105951 -0.0394789 -0.122891 
-0.110274 -0.037747 -0.098545 -0.113857 -0.0360011 -0.0738804 -0.116581 -0.0342603 -0.0489665 
-0.11834 -0.0325309 -0.0238934 -0.119058 -0.0308092 0.00123267 -0.11869 -0.029085 0.0262967 
-0.117227 -0.0273458 0.0511822 -0.114701 -0.025581 0.0757792 -0.111177 -0.023785 0.0999902 
-0.106749 -0.0219602 0.123735 -0.101535 -0.020118 0.146953 -0.0956613 -0.0182786 0.169603 
-0.0892596 -0.0164698 0.19166 -0.0824529 -0.0147246 0.213114 -0.0753509 -0.0130776 0.233961 
-0.068044 -0.011562 0.254205 -0.0606014 -0.0102061 0.273849 -0.0530716 -0.00903051 0.292892 
-0.0454853 -0.00804713 0.311334 -0.0378606 -0.00725812 0.329175 -0.0302086 -0.00665691 0.346415 
-0.0225397 -0.00622998 0.363062 -0.0148686 -0.00595957 0.379132 -0.00721871 -0.00582674 0.394655 
0.000376358 -0.0058145 0.409674 0.00787292 -0.00591053 0.424247 0.0152197 -0.00610907 0.43844 
0.0223621 -0.00641184 0.452325 0.0292474 -0.00682767 0.465972 0.0358302 -0.00737113 0.479439 
0.0420779 -0.00806004 0.492768 0.0479744 -0.00891242 0.505977 0.0535217 -0.00994311 0.519053 
0.05874 -0.0111605 0.531956 0.0636651 -0.0125638 0.544613 0.0683436 -0.0141412 0.556935 
0.0728268 -0.0158692 0.568812 0.0771644 -0.017713 0.580134 0.0813969 -0.0196281 0.590796 
0.0855507 -0.0215632 0.60071 0.089634 -0.0234631 0.609816 0.0936347 -0.0252731 0.618082 
0.0975216 -0.0269425 0.625514 0.101248 -0.028428 0.632148 0.104756 -0.0296968 0.638048 
0.107986 -0.0307284 0.643296 0.110881 -0.0315157 0.647984 0.113395 -0.0320649 0.652201 
0.115501 -0.0323945 0.656025 0.11719 -0.0325334 0.659513 0.118478 -0.0325185 0.662697 
0.119401 -0.0323919 0.665583 0.120013 -0.0321977 0.668153 0.120377 -0.0319792 0.670368 
0.120563 -0.031776 0.672182 0.120633 -0.0316216 0.673543 0.120638 -0.0315415 0.674408 
0.120613 -0.0315518 0.674745 
LINES 2 100
OFFSETS vtktypeint64
0 100 
CONNECTIVITY vtktypeint64
0 1 2 3 4 5 6 7 8 
9 10 11 12 13 14 15 16 17 
18 19 20 21 22 23 24 25 26 
27 28 29 30 31 32 33 34 35 
36 37 38 39 40 41 42 43 44 
45 46 47 48 49 50 51 52 53 
54 55 56 57 58 59 60 61 62 
63 64 65 66 67 68 69 70 71 
72 73 74 75 76 77 78 79 80 
81 82 83 84 85 86 87 88 89 
90 91 92 93 94 95 96 97 98 
99 
POINT_DATA 100
FIELD FieldData 3
_theta 1 100 double
0 0.031733259127 0.063466518254 0.095199777382 0.12693303651 0.15866629564 0.19039955476 0.22213281389 0.25386607302 
0.28559933214 0.31733259127 0.3490658504 0.38079910953 0.41253236865 0.44426562778 0.47599888691 0.50773214603 0.53946540516 
0.57119866429 0.60293192342 0.63466518254 0.66639844167 0.6981317008 0.72986495992 0.76159821905 0.79333147818 0.82506473731 
0.85679799643 0.88853125556 0.92026451469 0.95199777382 0.98373103294 1.0154642921 1.0471975512 1.0789308103 1.1106640695 
1.1423973286 1.1741305877 1.2058638468 1.237597106 1.2693303651 1.3010636242 1.3327968833 1.3645301425 1.3962634016 
1.4279966607 1.4597299198 1.491463179 1.5231964381 1.5549296972 1.5866629564 1.6183962155 1.6501294746 1.6818627337 
1.7135959929 1.745329252 1.7770625111 1.8087957702 1.8405290294 1.8722622885 1.9039955476 1.9357288068 1.9674620659 
1.999195325 2.0309285841 2.0626618433 2.0943951024 2.1261283615 2.1578616206 2.1895948798 2.2213281389 2.253061398 
2.2847946572 2.3165279163 2.3482611754 2.3799944345 2.4117276937 2.4434609528 2.4751942119 2.506927471 2.5386607302 
2.5703939893 2.6021272484 2.6338605076 2.6655937667 2.6973270258 2.7290602849 2.7607935441 2.7925268032 2.8242600623 
2.8559933214 2.8877265806 2.9194598397 2.9511930988 2.982926358 3.0146596171 3.0463928762 3.0781261353 3.1098593945 
3.1415926536 
_radius 1 100 double
3.611559296e-16 0.013826272164 0.027529629872 0.040992265637 0.054125831283 0.066878994011 0.079237279111 0.09121518246 0.10284230448 
0.11414667063 0.12513896539 0.13580094055 0.14608004835 0.15589092996 0.16512318511 0.17365400904 0.18136376082 0.18815223266 
0.19395328773 0.19874566122 0.2025581481 0.2054681698 0.20759377479 0.20908032297 0.21008416062 0.21075618329 0.21122803617 
0.2116027713 0.21195038399 0.21230737726 0.21267892233 0.21304247864 0.21335259283 0.21354739138 0.21355746052 0.21331719113 
0.21277755334 0.2119182367 0.21075667046 0.20935184391 0.20780196329 0.20623644077 0.20480397559 0.20365904734 0.20294884069 
0.20280179802 0.20331821216 0.20456288438 0.20655990652 0.20928989021 0.21269019653 0.21665868612 0.22106112212 0.22574171812 
0.23053566797 0.23528206653 0.23983557029 0.24407544824 0.2479112093 0.25128458186 0.25416811585 0.25656100904 0.25848293798 
0.25996674925 0.26105088293 0.26177236732 0.26216112259 0.26223611502 0.2620036105 0.26145742176 0.26058070102 0.25934858106 
0.25773087998 0.25569418684 0.25320293294 0.25021947729 0.24670368016 0.24261273258 0.23790200426 0.23252733956 0.22644868731 
0.21963440445 0.21206523155 0.20373692904 0.19466090014 0.18486271665 0.17437912798 0.16325462434 0.15153868321 0.13928434454 
0.1265479503 0.11338922546 0.099870754358 0.086056317196 0.072008183418 0.057783975738 0.043433944621 0.02899942051 0.014512921845 
8.5451994924e-16 
_area 1 100 double
0 0.00058214699704 0.0022933680342 0.005037544315 0.0086830679152 0.013095204929 0.018163087302 0.023810232813 0.029985208371 
0.036639217228 0.04370144373 0.051060151969 0.058553765374 0.065973392486 0.073076050101 0.079606632092 0.085326071964 0.090042088415 
0.093637369585 0.096089119998 0.097474714341 0.097961144851 0.097780245461 0.097195544731 0.096468023669 0.095826430504 0.095445344654 
0.095433648112 0.095835644314 0.09664365868 0.097816407503 0.09929324182 0.10099601449 0.10282174286 0.1046404491 0.10630974846 
0.10770113987 0.10872047302 0.1093147739 0.10948437421 0.10931459179 0.10901779409 0.10891788785 0.10906979542 0.10953588389 
0.11042368313 0.11183488525 0.11387214373 0.11663304658 0.12014880442 0.12441365784 0.12939748282 0.13502212563 0.14114418128 
0.14755453755 0.15399902626 0.16021528488 0.16597259446 0.17110168819 0.17550806111 0.17916908333 0.18211939041 0.18443041968 
0.18618891436 0.18747599221 0.18834478159 0.18879707748 0.18877141799 0.18815785339 0.18683414937 0.18470298147 0.18171660943 
0.17788628934 0.17327832587 0.16799934762 0.16217313783 0.15591224401 0.14929071235 0.14232832811 0.1349963205 0.12724493265 
0.11904035313 0.11039431968 0.10137619975 0.09210640015 0.082735945297 0.073420049253 0.064294831736 0.055465619141 0.047010693135 
0.038996307474 0.031492817119 0.024583094323 0.018360904034 0.012922498526 0.0083565080101 0.0047361510375 0.0021156235978 0.00053043035157 
1.5172257983e-17 
