# vtk DataFile Version 5.1
vtk output
ASCII
DATASET POLYDATA
POINTS 100 float
0.194257 0.0784395 -0.71897 0.194003 0.0784873 -0.718956 0.193281 0.0784834 -0.718964 
0.192111 0.0784188 -0.718898 0.190525 0.078277 -0.718606 0.188563 0.0780338 -0.717902 
0.186262 0.0776564 -0.716579 0.18366 0.0771033 -0.714435 0.18078 0.0763247 -0.71129 
0.177634 0.0752635 -0.707006 0.174214 0.0738577 -0.701498 0.170496 0.072043 -0.694739 
0.166435 0.0697564 -0.686763 0.161972 0.0669406 -0.677652 0.157039 0.0635482 -0.66753 
0.151563 0.0595454 -0.656544 0.145475 0.0549162 -0.644846 0.138715 0.0496643 -0.632577 
0.131244 0.043815 -0.619854 0.123048 0.0374154 -0.606756 0.114139 0.0305335 -0.59332 
0.104563 0.023256 -0.579543 0.0943937 0.0156854 -0.565384 0.0837343 0.00793637 -0.550777 
0.0727089 0.000131941 -0.535639 0.0614565 -0.00760087 -0.519882 0.0501215 -0.0151349 -0.503433 
0.0388446 -0.0223464 -0.486234 0.0277538 -0.0291187 -0.468257 0.0169561 -0.0353451 -0.449501 
0.00653147 -0.0409318 -0.429993 -0.00347045 -0.0458003 -0.409784 -0.0130314 -0.0498897 -0.388939 
-0.0221618 -0.053159 -0.367532 -0.0308959 -0.0555888 -0.345632 -0.0392836 -0.0571824 -0.323298 
-0.0473816 -0.0579663 -0.300577 -0.0552422 -0.05799 -0.277493 -0.062904 -0.0573245 -0.254057 
-0.070382 -0.0560589 -0.230264 -0.0776609 -0.0542968 -0.206103 -0.0846908 -0.0521502 -0.181563 
-0.0913861 -0.0497337 -0.15664 -0.0976287 -0.0471574 -0.131343 -0.103274 -0.0445202 -0.105701 
-0.10816 -0.041904 -0.0797617 -0.112118 -0.0393688 -0.0535947 -0.11499 -0.0369507 -0.0272851 
-0.116635 -0.0346611 -0.000929564 -0.116947 -0.0324895 0.0253706 -0.115861 -0.0304078 0.0515167 
-0.113363 -0.0283771 0.0774189 -0.10949 -0.0263554 0.103001 -0.10433 -0.0243061 0.128205 
-0.0980184 -0.0222056 0.152988 -0.0907248 -0.0200493 0.177325 -0.0826436 -0.0178558 0.201201 
-0.0739792 -0.0156675 0.22461 -0.0649305 -0.0135487 0.247546 -0.0556777 -0.0115803 0.270001 
-0.0463694 -0.00985182 0.291961 -0.0371142 -0.00845226 0.313405 -0.0279752 -0.00746001 0.334303 
-0.0189699 -0.00693346 0.354623 -0.0100738 -0.00690334 0.37433 -0.00122847 -0.00736784 0.393398 
0.00764742 -0.00829115 0.411809 0.0166447 -0.00960574 0.429562 0.0258495 -0.0112181 0.446676 
0.03533 -0.0130178 0.463188 0.045125 -0.0148876 0.479155 0.0552351 -0.016716 0.494651 
0.065619 -0.018407 0.509756 0.076193 -0.0198904 0.524551 0.0868356 -0.0211272 0.539112 
0.0973963 -0.022112 0.553496 0.107707 -0.0228725 0.567737 0.117593 -0.023463 0.581843 
0.126894 -0.0239574 0.595788 0.135467 -0.0244378 0.609515 0.143207 -0.0249842 0.622941 
0.150048 -0.0256636 0.635961 0.155973 -0.0265214 0.648455 0.161006 -0.0275759 0.6603 
0.165216 -0.0288163 0.671377 0.168701 -0.0302042 0.681583 0.171583 -0.031679 0.690834 
0.173992 -0.033166 0.699077 0.176056 -0.0345856 0.706289 0.177888 -0.035864 0.712477 
0.179576 -0.0369421 0.717681 0.181179 -0.0377822 0.721965 0.182725 -0.0383725 0.725415 
0.184207 -0.0387273 0.728129 0.185596 -0.038884 0.730212 0.186842 -0.0388971 0.731767 
0.187885 -0.03883 0.73289 0.188666 -0.0387455 0.73366 0.189136 -0.0386965 0.734137 
0.189263 -0.0387189 0.734357 
LINES 2 100
OFFSETS vtktypeint64
0 100 
CONNECTIVITY vtktypeint64
0 1 2 3 4 5 6 7 8 
9 10 11 12 13 14 15 16 17 
18 19 20 21 22 23 24 25 26 
27 28 29 30 31 32 33 34 35 
36 37 38 39 40 41 42 43 44 
45 46 47 48 49 50 51 52 53 
54 55 56 57 58 59 60 61 62 
63 64 65 66 67 68 69 70 71 
72 73 74 75 76 77 78 79 80 
81 82 83 84 85 86 87 88 89 
90 91 92 93 94 95 96 97 98 
99 
POINT_DATA 100
FIELD FieldData 3
_theta 1 100 double
0 0.031733259127 0.063466518254 0.095199777382 0.12693303651 0.15866629564 0.19039955476 0.22213281389 0.25386607302 
0.28559933214 0.31733259127 0.3490658504 0.38079910953 0.41253236865 0.44426562778 0.47599888691 0.50773214603 0.53946540516 
0.57119866429 0.60293192342 0.63466518254 0.66639844167 0.6981317008 0.72986495992 0.76159821905 0.79333147818 0.82506473731 
0.85679799643 0.88853125556 0.92026451469 0.95199777382 0.98373103294 1.0154642921 1.0471975512 1.0789308103 1.1106640695 
1.1423973286 1.1741305877 1.2058638468 1.237597106 1.2693303651 1.3010636242 1.3327968833 1.3645301425 1.3962634016 
1.4279966607 1.4597299198 1.491463179 1.5231964381 1.5549296972 1.5866629564 1.6183962155 1.6501294746 1.6818627337 
1.7135959929 1.745329252 1.7770625111 1.8087957702 1.8405290294 1.8722622885 1.9039955476 1.9357288068 1.9674620659 
1.999195325 2.0309285841 2.0626618433 2.0943951024 2.1261283615 2.1578616206 2.1895948798 2.2213281389 2.253061398 
2.2847946572 2.3165279163 2.3482611754 2.3799944345 2.4117276937 2.4434609528 2.4751942119 2.506927471 2.5386607302 
2.5703939893 2.6021272484 2.6338605076 2.6655937667 2.6973270258 2.7290602849 2.7607935441 2.7925268032 2.8242600623 
2.8559933214 2.8877265806 2.9194598397 2.9511930988 2.982926358 3.0146596171 3.0463928762 3.0781261353 3.1098593945 
3.1415926536 
_radius 1 100 double
1.6711069443e-15 0.017099164996 0.034045226078 0.050685219127 0.066872255 0.082469702263 0.097355600928 0.11142661803 0.12460078891 
0.1368185679 0.14804219045 0.15825378389 0.16745287858 0.17565391983 0.18288413283 0.18918178051 0.19459461189 0.19917821849 
0.20299411768 0.20610760624 0.20858566491 0.21049533475 0.2119029656 0.21287456025 0.21347715346 0.21378081016 0.21386041743 
0.2137960604 0.21367068627 0.21356433071 0.21354545399 0.21366138397 0.21393065645 0.21433961742 0.21484420572 0.21537624092 
0.21585262868 0.21618587515 0.21629490134 0.21611584875 0.21561262281 0.21478608144 0.21367995951 0.21238163738 0.21101644488 
0.20973515493 0.20869609218 0.20804570203 0.20790292308 0.20835145171 0.2094401549 0.21118806629 0.21358909566 0.21661306882 
0.22020258448 0.22426785241 0.22868312997 0.23328823138 0.23789706106 0.2423128371 0.24634745095 0.24984106822 0.25267804304 
0.25479632325 0.25618917883 0.2568996664 0.25700935573 0.25662337383 0.25585387079 0.25480379014 0.25355254967 0.25214502216 
0.25058502103 0.24883420474 0.24681677723 0.24442955395 0.2415560175 0.23808215432 0.23391142518 0.22897637847 0.22324517594 
0.21672242947 0.20944486499 0.20147310351 0.1928811441 0.18374501824 0.17413175419 0.16408948116 0.15363942232 0.14277075621 
0.13143972562 0.11957453728 0.10708703487 0.093890630041 0.079921935609 0.065161861662 0.049651460986 0.03349878259 0.0168749612 
6.4284464634e-16 
_area 1 100 double
0 0.0006328004116 0.00253872398 0.0057304084671 0.010200539271 0.015893153352 0.022683563769 0.03037429344 0.038707390964 
0.047387899499 0.05611079742 0.064584459182 0.072546715082 0.079773495563 0.08608311228 0.091340092476 0.095460922589 0.098421157668 
0.10026083125 0.10108433741 0.10105238481 0.1003666827 0.099251394295 0.097936354775 0.096642676411 0.09556642931 0.094861538081 
0.094638350009 0.094951341619 0.09575932968 0.09696805095 0.098482063632 0.10022719593 0.10213803517 0.10414977099 0.10619926785 
0.10822970247 0.11018936312 0.11202144416 0.1136583844 0.11504780737 0.1162584038 0.11744202806 0.11845489408 0.11933029749 
0.12018060063 0.12114072161 0.12233988823 0.1238866068 0.12586224792 0.12832257995 0.13130726136 0.13484827433 0.1389622022 
0.1436330707 0.14880095031 0.15435700763 0.16014409149 0.16595960443 0.17156141971 0.17668224536 0.1810555878 0.18445088713 
0.18670862552 0.18776454691 0.18765668552 0.18651496639 0.18453641579 0.18194711064 0.1789533607 0.17570681064 0.17230000355 
0.16877366845 0.1651237811 0.16130714076 0.15724830493 0.15285064746 0.14801158684 0.14263917062 0.13666635103 0.13006076374 
0.12282985729 0.11502192483 0.10672296661 0.098048946941 0.089133995901 0.080116814642 0.071128431227 0.062283721345 0.053677537493 
0.045385433367 0.037469393828 0.029989385632 0.023019918994 0.016666929623 0.011077051702 0.0064323167241 0.0029286762669 0.00074329224209 
7.0699299593e-17 
