# vtk DataFile Version 5.1
vtk output
ASCII
DATASET POLYDATA
POINTS 100 float
0.0409057 0.082633 -0.74913 0.0410624 0.0825767 -0.748593 0.0414777 0.0821655 -0.746987 
0.0421322 0.0813821 -0.744337 0.0429965 0.0802018 -0.740677 0.0440338 0.0785986 -0.736055 
0.0452035 0.0765504 -0.730526 0.0464637 0.0740456 -0.724148 0.0477728 0.0710872 -0.716982 
0.0490901 0.0676958 -0.709088 0.0503746 0.0639096 -0.70052 0.0515822 0.0597819 -0.691326 
0.0526622 0.0553757 -0.681551 0.0535538 0.0507577 -0.67123 0.0541831 0.0459905 -0.66039 
0.0544614 0.0411259 -0.649056 0.0542867 0.0361993 -0.637243 0.0535474 0.0312278 -0.624965 
0.0521286 0.0262094 -0.612231 0.0499213 0.0211278 -0.599046 0.0468331 0.0159581 -0.58541 
0.0427987 0.0106755 -0.571324 0.0377901 0.00526518 -0.55678 0.0318234 -0.000269361 -0.541769 
0.0249628 -0.00589875 -0.526276 0.0173194 -0.0115639 -0.510283 0.00904533 -0.0171761 -0.493769 
0.00032326 -0.0226205 -0.476711 -0.00864738 -0.0277647 -0.459084 -0.0176668 -0.0324699 -0.440867 
-0.0265512 -0.0366034 -0.422041 -0.0351479 -0.0400525 -0.402594 -0.0433467 -0.0427363 -0.382521 
-0.0510862 -0.0446146 -0.361824 -0.0583547 -0.0456931 -0.340517 -0.0651849 -0.0460232 -0.318619 
-0.0716426 -0.0456974 -0.296159 -0.077812 -0.0448396 -0.273171 -0.0837781 -0.0435928 -0.249694 
-0.0896088 -0.0421045 -0.225767 -0.0953398 -0.0405119 -0.201431 -0.100963 -0.0389295 -0.176723 
-0.10642 -0.0374391 -0.15168 -0.111604 -0.0360845 -0.126335 -0.116366 -0.0348716 -0.100719 
-0.120527 -0.0337722 -0.0748635 -0.123897 -0.0327332 -0.0488034 -0.126291 -0.0316872 -0.0225767 
-0.12755 -0.0305657 0.00377089 -0.127559 -0.0293109 0.0301847 -0.126253 -0.027886 0.0565996 
-0.123628 -0.0262814 0.0829395 -0.119739 -0.0245177 0.109118 -0.114692 -0.0226434 0.135042 
-0.10863 -0.020729 0.16061 -0.101724 -0.0188575 0.185723 -0.0941464 -0.0171141 0.210281 
-0.0860609 -0.0155747 0.234193 -0.0776058 -0.0142963 0.257381 -0.0688851 -0.0133103 0.27978 
-0.0599648 -0.012619 0.301346 -0.0508744 -0.0121968 0.322055 -0.0416141 -0.0119946 0.341903 
-0.0321658 -0.0119485 0.360911 -0.0225062 -0.0119896 0.379115 -0.0126203 -0.0120547 0.396573 
-0.00251264 -0.0120966 0.413355 0.00778421 -0.0120912 0.429541 0.0182065 -0.012042 0.445216 
0.028661 -0.0119802 0.460469 0.039031 -0.0119611 0.475384 0.0491872 -0.0120568 0.490038 
0.0589998 -0.0123461 0.504494 0.0683519 -0.0129043 0.518803 0.0771509 -0.0137917 0.532993 
0.0853374 -0.0150451 0.547073 0.092889 -0.0166714 0.561028 0.0998201 -0.0186453 0.57482 
0.106177 -0.0209109 0.588386 0.112026 -0.023386 0.601643 0.117447 -0.0259713 0.614488 
0.122515 -0.0285595 0.626806 0.127291 -0.0310462 0.638474 0.131814 -0.0333396 0.649368 
0.136095 -0.0353684 0.659371 0.140114 -0.0370872 0.668382 0.143831 -0.0384778 0.676322 
0.147188 -0.0395483 0.683141 0.150121 -0.0403288 0.688825 0.152577 -0.040865 0.693396 
0.154519 -0.0412112 0.696914 0.155939 -0.0414227 0.699473 0.156861 -0.0415498 0.7012 
0.157344 -0.0416334 0.702243 0.157473 -0.0417024 0.702762 0.157355 -0.0417735 0.702922 
0.157103 -0.0418533 0.702875 0.156824 -0.0419411 0.702755 0.156607 -0.0420326 0.702664 
0.15651 -0.0421233 0.702668 
LINES 2 100
OFFSETS vtktypeint64
0 100 
CONNECTIVITY vtktypeint64
0 1 2 3 4 5 6 7 8 
9 10 11 12 13 14 15 16 17 
18 19 20 21 22 23 24 25 26 
27 28 29 30 31 32 33 34 35 
36 37 38 39 40 41 42 43 44 
45 46 47 48 49 50 51 52 53 
54 55 56 57 58 59 60 61 62 
63 64 65 66 67 68 69 70 71 
72 73 74 75 76 77 78 79 80 
81 82 83 84 85 86 87 88 89 
90 91 92 93 94 95 96 97 98 
99 
POINT_DATA 100
FIELD FieldData 3
_theta 1 100 double
0 0.031733259127 0.063466518254 0.095199777382 0.12693303651 0.15866629564 0.19039955476 0.22213281389 0.25386607302 
0.28559933214 0.31733259127 0.3490658504 0.38079910953 0.41253236865 0.44426562778 0.47599888691 0.50773214603 0.53946540516 
0.57119866429 0.60293192342 0.63466518254 0.66639844167 0.6981317008 0.72986495992 0.76159821905 0.79333147818 0.82506473731 
0.85679799643 0.88853125556 0.92026451469 0.95199777382 0.98373103294 1.0154642921 1.0471975512 1.0789308103 1.1106640695 
1.1423973286 1.1741305877 1.2058638468 1.237597106 1.2693303651 1.3010636242 1.3327968833 1.3645301425 1.3962634016 
1.4279966607 1.4597299198 1.491463179 1.5231964381 1.5549296972 1.5866629564 1.6183962155 1.6501294746 1.6818627337 
1.7135959929 1.745329252 1.7770625111 1.8087957702 1.8405290294 1.8722622885 1.9039955476 1.9357288068 1.9674620659 
1.999195325 2.0309285841 2.0626618433 2.0943951024 2.1261283615 2.1578616206 2.1895948798 2.2213281389 2.253061398 
2.2847946572 2.3165279163 2.3482611754 2.3799944345 2.4117276937 2.4434609528 2.4751942119 2.506927471 2.5386607302 
2.5703939893 2.6021272484 2.6338605076 2.6655937667 2.6973270258 2.7290602849 2.7607935441 2.7925268032 2.8242600623 
2.8559933214 2.8877265806 2.9194598397 2.9511930988 2.982926358 3.0146596171 3.0463928762 3.0781261353 3.1098593945 
3.1415926536 
_radius 1 100 double
7.8700639776e-16 0.013462088796 0.026814326156 0.039953987901 0.052802933419 0.065311622093 0.077456096245 0.089229437766 0.10063064592 
0.11165413595 0.12228222306 0.13248166076 0.14220417781 0.15139024427 0.15997492989 0.16789463228 0.17509364896 0.18152997179 
0.18718007881 0.19204267157 0.19614119234 0.19952469 0.20226642398 0.20445970276 0.20621089638 0.20763022062 0.20882153913 
0.20987284743 0.21084912716 0.21178882305 0.2127043573 0.21358608547 0.21440828834 0.21513553578 0.21572815897 0.21614639402 
0.21635357819 0.21631919732 0.21602243953 0.21545632375 0.21463177433 0.21358058466 0.21235628539 0.21103247345 0.20969889254 
0.20845613082 0.20740996223 0.20666604822 0.20632507521 0.20647772581 0.20719857265 0.20853837796 0.2105153771 0.21310742503 
0.21624761197 0.21982553837 0.22369495564 0.22768665056 0.23162415407 0.23533954246 0.23868711614 0.24155360839 0.24386436098 
0.24558540796 0.24672166109 0.24731152821 0.24741847036 0.24712029684 0.24649740007 0.24562152295 0.24454680759 0.24330454758 
0.24190217342 0.24032579058 0.23854459335 0.23651519689 0.23418451321 0.23149092682 0.22836460796 0.22472830427 0.22049971281 
0.21559579374 0.20993857412 0.20346143947 0.1961147422 0.1878697246 0.17872014881 0.16868153307 0.15778839399 0.14609026701 
0.13364741789 0.12052703309 0.1068003518 0.092540818909 0.077823048569 0.062722275002 0.047314023951 0.031673882187 0.015877373917 
4.6129644947e-16 
_area 1 100 double
0 0.00053273570361 0.0021176345107 0.0047159110397 0.0082658609405 0.012685421478 0.017874718389 0.023720174245 0.030101185397 
0.036897535162 0.043993388689 0.051274849806 0.058622128348 0.06590090513 0.07295821019 0.079626373999 0.08573558022 0.091132377869 
0.095699268523 0.09937001285 0.1021368779 0.10404901265 0.10520396763 0.10573566333 0.10580163854 0.10557095277 0.10521252595 
0.10488260558 0.10471029685 0.10478256897 0.1051338612 0.1057457073 0.10655676145 0.10748250664 0.10844223338 0.10938049173 
0.1102758981 0.11114166125 0.11200793124 0.11284275852 0.1135807888 0.11416537742 0.11457097491 0.11482481408 0.11501526103 
0.11529798686 0.11588671355 0.11678386756 0.11802124156 0.11966768545 0.12180134402 0.12450386114 0.12784600869 0.13186421161 
0.13653556297 0.1417611353 0.14736480848 0.15310880941 0.15872120826 0.1639281835 0.16848452642 0.17219773219 0.17494322294 
0.17667030224 0.17739978676 0.17721444813 0.17624277983 0.17463667661 0.17254563004 0.1700928149 0.16735907601 0.16437849004 
0.16114597891 0.15763499604 0.15382073108 0.14970046462 0.14529975187 0.14065659161 0.13578904538 0.13066715877 0.12520964611 
0.11930695409 0.11285641504 0.10579431784 0.098116224286 0.089882940269 0.081213443326 0.072268146404 0.063227091311 0.054268786367 
0.045555791099 0.037231028769 0.029423861498 0.022260239635 0.015870289477 0.010389353357 0.0059520100248 0.0026812057377 0.00067584392567 
1.9949319974e-17 
