# vtk DataFile Version 5.1
vtk output
ASCII
DATASET POLYDATA
POINTS 100 float
0.15766 0.0789136 -0.727592 0.15734 0.0787613 -0.727382 0.156394 0.0781546 -0.72677 
0.154856 0.0771151 -0.725688 0.152775 0.0756753 -0.724035 0.150214 0.0738734 -0.72169 
0.147236 0.0717485 -0.718526 0.143897 0.0693337 -0.714426 0.140238 0.0666522 -0.709301 
0.136282 0.0637138 -0.703099 0.132028 0.0605139 -0.695809 0.127452 0.057035 -0.687464 
0.122514 0.0532501 -0.678134 0.11716 0.0491288 -0.667914 0.111333 0.044643 -0.656912 
0.104985 0.0397742 -0.645232 0.0980818 0.0345188 -0.632964 0.0906143 0.0288927 -0.620167 
0.0826019 0.0229329 -0.606866 0.0740947 0.0166977 -0.593052 0.0651713 0.0102633 -0.578682 
0.0559328 0.00371894 -0.563692 0.0464943 -0.00283866 -0.548006 0.036974 -0.00931231 -0.531554 
0.0274818 -0.0156101 -0.51428 0.0181083 -0.0216504 -0.496154 0.00891649 -0.027364 -0.477182 
-6.35525e-05 -0.0326955 -0.4574 -0.00883578 -0.0376012 -0.436875 -0.0174348 -0.0420458 -0.415694 
-0.0259183 -0.0459982 -0.393952 -0.0343558 -0.0494274 -0.371737 -0.0428151 -0.0522983 -0.34912 
-0.0513485 -0.0545699 -0.326139 -0.0599785 -0.0561958 -0.302802 -0.0686876 -0.0571265 -0.279079 
-0.0774108 -0.0573147 -0.254912 -0.0860333 -0.0567223 -0.230225 -0.0943942 -0.0553278 -0.20494 
-0.102295 -0.0531342 -0.178993 -0.109511 -0.0501754 -0.152354 -0.11581 -0.0465197 -0.125036 
-0.120973 -0.0422711 -0.0971076 -0.124804 -0.0375657 -0.0686965 -0.127157 -0.0325654 -0.0399829 
-0.127944 -0.0274482 -0.0111904 -0.127142 -0.0223958 0.0174314 -0.124799 -0.0175809 0.0456267 
-0.12103 -0.0131544 0.0731555 -0.116006 -0.00923497 0.0998136 -0.109943 -0.00590107 0.12545 
-0.103085 -0.00318766 0.149976 -0.0956803 -0.00108686 0.173372 -0.0879708 0.000446963 0.195681 
-0.080169 0.00148851 0.217002 -0.0724471 0.00213024 0.23747 -0.0649275 0.00246993 0.25724 
-0.0576791 0.00259852 0.276466 -0.0507187 0.00258982 0.295284 -0.044017 0.00249306 0.313798 
-0.0375091 0.00232933 0.332068 -0.0311068 0.00209207 0.350111 -0.0247129 0.00175136 0.367904 
-0.0182348 0.00126142 0.385392 -0.0115967 0.000570093 0.402503 -0.00474866 -0.000371005 0.419165 
0.00232778 -0.00159699 0.435315 0.00961744 -0.0031223 0.450915 0.0170736 -0.00493617 0.465962 
0.0246231 -0.0070017 0.480486 0.0321739 -0.00925857 0.494549 0.0396244 -0.0116288 0.508235 
0.0468723 -0.0140254 0.521641 0.0538234 -0.0163612 0.534859 0.0603985 -0.0185592 0.547963 
0.0665382 -0.0205604 0.560996 0.0722048 -0.0223301 0.573961 0.0773819 -0.0238605 0.586816 
0.0820718 -0.0251712 0.599477 0.0862912 -0.0263048 0.611821 0.0900659 -0.0273214 0.623703 
0.0934258 -0.0282905 0.634964 0.0963994 -0.0292823 0.64545 0.0990111 -0.0303594 0.655027 
0.101279 -0.0315697 0.663592 0.103214 -0.0329418 0.671079 0.104823 -0.0344825 0.677472 
0.106109 -0.0361771 0.682796 0.107079 -0.0379924 0.687115 0.107742 -0.039881 0.690526 
0.108117 -0.0417868 0.693147 0.108233 -0.0436513 0.695107 0.108129 -0.0454183 0.696533 
0.107858 -0.0470385 0.697546 0.107475 -0.0484717 0.698251 0.107044 -0.0496878 0.698735 
0.106626 -0.0506666 0.699067 0.106276 -0.0513957 0.699295 0.106037 -0.0518684 0.699452 
0.105937 -0.052082 0.699559 
LINES 2 100
OFFSETS vtktypeint64
0 100 
CONNECTIVITY vtktypeint64
0 1 2 3 4 5 6 7 8 
9 10 11 12 13 14 15 16 17 
18 19 20 21 22 23 24 25 26 
27 28 29 30 31 32 33 34 35 
36 37 38 39 40 41 42 43 44 
45 46 47 48 49 50 51 52 53 
54 55 56 57 58 59 60 61 62 
63 64 65 66 67 68 69 70 71 
72 73 74 75 76 77 78 79 80 
81 82 83 84 85 86 87 88 89 
90 91 92 93 94 95 96 97 98 
99 
POINT_DATA 100
FIELD FieldData 3
_theta 1 100 double
0 0.031733259127 0.063466518254 0.095199777382 0.12693303651 0.15866629564 0.19039955476 0.22213281389 0.25386607302 
0.28559933214 0.31733259127 0.3490658504 0.38079910953 0.41253236865 0.44426562778 0.47599888691 0.50773214603 0.53946540516 
0.57119866429 0.60293192342 0.63466518254 0.66639844167 0.6981317008 0.72986495992 0.76159821905 0.79333147818 0.82506473731 
0.85679799643 0.88853125556 0.92026451469 0.95199777382 0.98373103294 1.0154642921 1.0471975512 1.0789308103 1.1106640695 
1.1423973286 1.1741305877 1.2058638468 1.237597106 1.2693303651 1.3010636242 1.3327968833 1.3645301425 1.3962634016 
1.4279966607 1.4597299198 1.491463179 1.5231964381 1.5549296972 1.5866629564 1.6183962155 1.6501294746 1.6818627337 
1.7135959929 1.745329252 1.7770625111 1.8087957702 1.8405290294 1.8722622885 1.9039955476 1.9357288068 1.9674620659 
1.999195325 2.0309285841 2.0626618433 2.0943951024 2.1261283615 2.1578616206 2.1895948798 2.2213281389 2.253061398 
2.2847946572 2.3165279163 2.3482611754 2.3799944345 2.4117276937 2.4434609528 2.4751942119 2.506927471 2.5386607302 
2.5703939893 2.6021272484 2.6338605076 2.6655937667 2.6973270258 2.7290602849 2.7607935441 2.7925268032 2.8242600623 
2.8559933214 2.8877265806 2.9194598397 2.9511930988 2.982926358 3.0146596171 3.0463928762 3.0781261353 3.1098593945 
3.1415926536 
_radius 1 100 double
3.8857805862e-16 0.016296764743 0.032386714291 0.048074304556 0.063186137303 0.077577815581 0.091136937119 0.1037824257 0.11546108494 
0.12614263701 0.13581452869 0.14447751178 0.1521425695 0.15882931999 0.16456569142 0.16938848321 0.1733443954 0.17649117539 
0.17889861963 0.18064919895 0.18183800915 0.18257161838 0.18296529247 0.18313814738 0.18320607249 0.18327277147 0.18341988176 
0.18369771666 0.18411857186 0.18465458814 0.18524169207 0.18579006145 0.18620005428 0.18638106344 0.18626981333 0.18584449717 
0.18513196975 0.18420688527 0.18318376651 0.18220469532 0.1814258534 0.18100530132 0.18109270633 0.18182026571 0.18329360947 
0.18558202339 0.18870851388 0.19264163137 0.1972919313 0.20251559013 0.20812579964 0.21391021442 0.21965133186 0.2251466505 
0.23022616711 0.23476550198 0.23869344027 0.24199313097 0.24469683891 0.24687502558 0.24862143728 0.25003654401 0.25121191277 
0.25221782543 0.25309568004 0.25385563456 0.25447892674 0.25492366603 0.25513270466 0.25504227276 0.25459020919 0.25372277204 
0.2523992082 0.25059354343 0.24829342417 0.24549626353 0.24220335766 0.23841298772 0.23411375068 0.22927942471 0.22386653475 
0.21781542481 0.21105509217 0.2035113775 0.1951174622 0.18582513535 0.17561506002 0.16450433425 0.15254999134 0.13984765015 
0.12652521605 0.11273224737 0.098626245795 0.084357624369 0.070055381669 0.055815507215 0.041693827271 0.027704388908 0.013823665189 
4.8506590758e-16 
_area 1 100 double
0 0.00057551714236 0.0022876963881 0.0050929902363 0.0089177836268 0.013658202453 0.019182086895 0.025333913895 0.031942058312 
0.038826675453 0.045806436809 0.052703270704 0.059345446574 0.06557011175 0.071226523288 0.076180884766 0.080323062293 0.083574555517 
0.085896184747 0.087293569223 0.087818952369 0.087569061849 0.086679993112 0.085321197693 0.083691568682 0.082023285293 0.080605752551 
0.079717521393 0.079345366265 0.079406986817 0.079817108036 0.080461365998 0.081219883452 0.082002970627 0.082773426037 0.083541969914 
0.084337155828 0.0851796358 0.086090483991 0.087115436607 0.088332142776 0.089834850391 0.091714504971 0.094041159026 0.096842721284 
0.10012635827 0.10391561943 0.10825264453 0.11318230564 0.11872817045 0.12486297365 0.13148722626 0.13843142603 0.14547946839 
0.15239890847 0.15896857087 0.16500105611 0.17035972509 0.17496924771 0.17881821846 0.1819514002 0.18444956412 0.18640248818 
0.1878894943 0.18897441234 0.1897059777 0.19011198026 0.19018516524 0.18987243015 0.18908359332 0.18771911468 0.18569875159 
0.18297840295 0.17955462717 0.17545985751 0.17075017475 0.16548840457 0.15972814894 0.15350402892 0.14682865393 0.13969360508 
0.13207348898 0.12393469276 0.11524988556 0.10601648046 0.096274759333 0.086120553627 0.075708400788 0.065243490282 0.054963689444 
0.045115540963 0.035929524227 0.027599710739 0.020271420502 0.014038206412 0.0089472203869 0.0050103977584 0.0022182318317 0.00055311480039 
7.4423988402e-17 
