# vtk DataFile Version 5.1
vtk output
ASCII
DATASET POLYDATA
POINTS 100 float
0.168008 0.0792518 -0.696382 0.167731 0.0791994 -0.696003 0.166919 0.0788552 -0.69489 
0.165617 0.078221 -0.693021 0.163895 0.0772992 -0.690361 0.161836 0.0760904 -0.686876 
0.159532 0.0745905 -0.682539 0.157068 0.0727879 -0.677338 0.154513 0.0706622 -0.671286 
0.151911 0.0681832 -0.664427 0.149275 0.0653132 -0.656829 0.146585 0.0620094 -0.648589 
0.143786 0.0582292 -0.639821 0.140796 0.0539358 -0.630644 0.137513 0.0491045 -0.621168 
0.133822 0.0437288 -0.611484 0.129611 0.037825 -0.601649 0.124781 0.031435 -0.591677 
0.119256 0.0246272 -0.581532 0.112993 0.0174942 -0.571135 0.105983 0.0101484 -0.560361 
0.0982582 0.00271583 -0.549059 0.0898824 -0.00467167 -0.537058 0.0809501 -0.0118847 -0.524192 
0.0715743 -0.0188041 -0.510308 0.0618766 -0.0253268 -0.495291 0.0519754 -0.0313711 -0.479066 
0.0419752 -0.0368776 -0.461614 0.0319585 -0.0418093 -0.442965 0.0219802 -0.0461487 -0.423198 
0.0120664 -0.0498928 -0.402431 0.00221769 -0.0530478 -0.380805 -0.00758496 -0.0556235 -0.358471 
-0.0173697 -0.0576281 -0.335572 -0.0271621 -0.0590649 -0.312229 -0.0369729 -0.059931 -0.288534 
-0.0467862 -0.0602181 -0.264538 -0.0565505 -0.0599152 -0.240257 -0.0661736 -0.0590135 -0.215674 
-0.0755211 -0.0575116 -0.19075 -0.0844212 -0.0554211 -0.165436 -0.0926734 -0.0527717 -0.139689 
-0.100061 -0.0496137 -0.113488 -0.106369 -0.0460193 -0.0868416 -0.111397 -0.0420809 -0.0598007 
-0.114982 -0.0379068 -0.0324607 -0.117009 -0.033615 -0.0049592 -0.11742 -0.0293253 0.0225307 
-0.116228 -0.0251511 0.0498121 -0.113507 -0.0211919 0.0766796 -0.109397 -0.0175261 0.102935 
-0.104084 -0.0142073 0.128402 -0.0977929 -0.0112622 0.152941 -0.0907653 -0.0086922 0.176461 
-0.0832434 -0.006477 0.198919 -0.0754517 -0.00458071 0.220325 -0.0675827 -0.00295925 0.240736 
-0.0597859 -0.00156813 0.260243 -0.0521617 -0.000369757 0.278965 -0.0447612 0.000660938 0.29703 
-0.0375904 0.00153289 0.314565 -0.0306194 0.00223796 0.33168 -0.0237943 0.00275268 0.348463 
-0.0170505 0.00304232 0.364971 -0.0103269 0.00306674 0.381231 -0.00357699 0.00278724 0.397242 
0.00322131 0.0021734 0.412981 0.0100611 0.0012091 0.428408 0.0169052 -0.000103242 0.443481 
0.0236897 -0.00174056 0.45816 0.0303307 -0.00365964 0.472417 0.0367333 -0.00580002 0.486239 
0.0428029 -0.00808898 0.499632 0.0484553 -0.010448 0.512617 0.0536256 -0.0128 0.525229 
0.0582757 -0.015076 0.537508 0.0623967 -0.0172213 0.549493 0.0660097 -0.0192 0.561212 
0.0691616 -0.0209963 0.572676 0.0719194 -0.0226155 0.583872 0.074362 -0.0240809 0.594761 
0.076571 -0.0254298 0.605278 0.0786221 -0.0267085 0.615337 0.080578 -0.0279659 0.624833 
0.0824832 -0.0292481 0.633656 0.0843613 -0.0305926 0.641698 0.0862158 -0.0320249 0.648862 
0.0880325 -0.0335558 0.655078 0.0897843 -0.0351808 0.660302 0.0914374 -0.0368807 0.664533 
0.0929572 -0.038624 0.667803 0.0943136 -0.0403694 0.670188 0.0954857 -0.0420698 0.671795 
0.0964636 -0.0436754 0.672758 0.0972487 -0.0451378 0.673227 0.0978519 -0.0464121 0.673359 
0.0982905 -0.0474595 0.6733 0.0985841 -0.048249 0.673181 0.0987502 -0.0487583 0.673101 
0.0988004 -0.0489743 0.673123 
LINES 2 100
OFFSETS vtktypeint64
0 100 
CONNECTIVITY vtktypeint64
0 1 2 3 4 5 6 7 8 
9 10 11 12 13 14 15 16 17 
18 19 20 21 22 23 24 25 26 
27 28 29 30 31 32 33 34 35 
36 37 38 39 40 41 42 43 44 
45 46 47 48 49 50 51 52 53 
54 55 56 57 58 59 60 61 62 
63 64 65 66 67 68 69 70 71 
72 73 74 75 76 77 78 79 80 
81 82 83 84 85 86 87 88 89 
90 91 92 93 94 95 96 97 98 
99 
POINT_DATA 100
FIELD FieldData 3
_theta 1 100 double
0 0.031733259127 0.063466518254 0.095199777382 0.12693303651 0.15866629564 0.19039955476 0.22213281389 0.25386607302 
0.28559933214 0.31733259127 0.3490658504 0.38079910953 0.41253236865 0.44426562778 0.47599888691 0.50773214603 0.53946540516 
0.57119866429 0.60293192342 0.63466518254 0.66639844167 0.6981317008 0.72986495992 0.76159821905 0.79333147818 0.82506473731 
0.85679799643 0.88853125556 0.92026451469 0.95199777382 0.98373103294 1.0154642921 1.0471975512 1.0789308103 1.1106640695 
1.1423973286 1.1741305877 1.2058638468 1.237597106 1.2693303651 1.3010636242 1.3327968833 1.3645301425 1.3962634016 
1.4279966607 1.4597299198 1.491463179 1.5231964381 1.5549296972 1.5866629564 1.6183962155 1.6501294746 1.6818627337 
1.7135959929 1.745329252 1.7770625111 1.8087957702 1.8405290294 1.8722622885 1.9039955476 1.9357288068 1.9674620659 
1.999195325 2.0309285841 2.0626618433 2.0943951024 2.1261283615 2.1578616206 2.1895948798 2.2213281389 2.253061398 
2.2847946572 2.3165279163 2.3482611754 2.3799944345 2.4117276937 2.4434609528 2.4751942119 2.506927471 2.5386607302 
2.5703939893 2.6021272484 2.6338605076 2.6655937667 2.6973270258 2.7290602849 2.7607935441 2.7925268032 2.8242600623 
2.8559933214 2.8877265806 2.9194598397 2.9511930988 2.982926358 3.0146596171 3.0463928762 3.0781261353 3.1098593945 
3.1415926536 
_radius 1 100 double
2.3097242143e-16 0.014971742992 0.029753297199 0.04417090838 0.058081427042 0.071382408871 0.084016833418 0.095971862089 0.1072718163 
0.11796625262 0.12811460282 0.13776933953 0.14696001215 0.15568068193 0.16388309967 0.17147727505 0.17833991484 0.1843298075 
0.18930797135 0.19315956937 0.19581435412 0.19726269229 0.19756488684 0.19685241268 0.19532067376 0.19321386535 0.19080340741 
0.18836218346 0.18613749451 0.18432617856 0.18305553731 0.18237318767 0.18224749121 0.18257816341 0.18321502361 0.18398238443 
0.18470660894 0.18524355758 0.18550149113 0.18545516144 0.18514857487 0.18468645098 0.18421715113 0.18391205349 0.18394667553 
0.18448669771 0.18567878027 0.18764382138 0.19046997266 0.19420393832 0.19884124373 0.20431843165 0.21051114926 0.21724086609 
0.22429012789 0.23142352662 0.23841023771 0.24504415923 0.25115878554 0.2566353343 0.26140394885 0.26543884933 0.26874904451 
0.2713666129 0.27333460944 0.27469637175 0.27548746694 0.27573087952 0.27543545579 0.2745971974 0.27320274509 0.27123425242 
0.26867475671 0.26551310265 0.26174750579 0.25738702215 0.25245054696 0.24696347207 0.24095268592 0.23444105246 0.2274427066 
0.21996036342 0.21198536923 0.20350053983 0.19448511288 0.18492057406 0.17479585379 0.16411052779 0.15287520327 0.14110913304 
0.12883604397 0.11607986815 0.10286221313 0.089202855039 0.075123435233 0.060653308054 0.045835623354 0.030731555188 0.015421118043 
1.1822334922e-15 
_area 1 100 double
0 0.00057992286417 0.0022875059448 0.0050311688629 0.0086737666255 0.013052277013 0.017999261679 0.023362019579 0.02901632979 
0.034873091291 0.040877270908 0.046999001029 0.053217015553 0.059496231932 0.06576456676 0.071896673656 0.077711199861 0.082983696096 
0.087472433951 0.090951259276 0.093242880962 0.094247396667 0.093963380673 0.092501238561 0.090093614841 0.087160025037 0.084062972094 
0.080986224445 0.078175912062 0.075843050946 0.074125188356 0.073078122482 0.072697073043 0.072943036176 0.073752780763 0.075061916757 
0.076824291638 0.079007797255 0.081573341797 0.084437928259 0.087445693301 0.090386432333 0.09305055131 0.095340799483 0.097247331042 
0.098867301461 0.10040299107 0.10214704632 0.10445580021 0.10769210067 0.1121475094 0.117978164 0.12517799361 0.13358322871 
0.14289608544 0.1527224361 0.1626192099 0.1721455663 0.18091121218 0.18861527825 0.19507010371 0.20020662666 0.20406076426 
0.20674081111 0.20837659555 0.20906605164 0.20885615936 0.20776666334 0.20581968957 0.20305217524 0.19951501353 0.19526709471 
0.19036860173 0.18487537855 0.17883554792 0.17228970986 0.1652752924 0.15783318375 0.15001263323 0.14187120734 0.13346979449 
0.12486536142 0.11610477806 0.1072221871 0.098241268289 0.089182563265 0.080074283264 0.070963015368 0.061920110167 0.053041397344 
0.044441166803 0.036243839433 0.028577039633 0.021568015723 0.015342784335 0.010025537752 0.0057357005206 0.0025814305097 0.00065037134764 
9.2846111752e-17 
