# vtk DataFile Version 5.1
vtk output
ASCII
DATASET POLYDATA
POINTS 100 float
0.155197 0.0779147 -0.703849 0.155173 0.0778416 -0.703911 0.155098 0.0774328 -0.704062 
0.154958 0.0766802 -0.704184 0.154733 0.0755723 -0.704094 0.154393 0.0740955 -0.703569 
0.153895 0.0722364 -0.702372 0.153189 0.0699844 -0.700281 0.152212 0.067333 -0.697113 
0.150891 0.0642826 -0.692747 0.149146 0.0608406 -0.687135 0.146888 0.057023 -0.680301 
0.144029 0.0528533 -0.672339 0.140482 0.0483621 -0.663392 0.136166 0.0435854 -0.653632 
0.131015 0.0385625 -0.643234 0.124982 0.0333343 -0.632352 0.118044 0.0279414 -0.621094 
0.110208 0.0224224 -0.609512 0.101511 0.0168131 -0.59759 0.0920245 0.0111466 -0.585253 
0.0818507 0.00545359 -0.57237 0.0711191 -0.000236222 -0.558782 0.0599804 -0.0058921 -0.544316 
0.0485982 -0.0114802 -0.528813 0.0371393 -0.0169616 -0.512148 0.0257635 -0.0222903 -0.494248 
0.0146134 -0.0274124 -0.4751 0.00380616 -0.0322656 -0.454752 -0.00657353 -0.0367807 -0.433312 
-0.0164765 -0.0408835 -0.410925 -0.0258892 -0.0444979 -0.387762 -0.0348304 -0.0475505 -0.363997 
-0.0433437 -0.0499748 -0.339786 -0.0514878 -0.0517165 -0.315253 -0.0593248 -0.0527376 -0.290477 
-0.0669076 -0.0530205 -0.265489 -0.0742681 -0.0525705 -0.240277 -0.0814072 -0.0514167 -0.214796 
-0.0882883 -0.0496119 -0.188985 -0.0948342 -0.0472298 -0.162781 -0.100929 -0.0443616 -0.136141 
-0.106426 -0.0411108 -0.109056 -0.111155 -0.0375877 -0.0815605 -0.114938 -0.0339031 -0.053739 
-0.117607 -0.0301623 -0.0257203 -0.119014 -0.0264601 0.00232988 -0.119053 -0.0228769 0.030224 
-0.117662 -0.0194764 0.0577696 -0.114841 -0.0163041 0.0847876 -0.110646 -0.0133888 0.111128 
-0.105192 -0.0107441 0.136683 -0.0986413 -0.0083722 0.161392 -0.0911941 -0.00626727 0.185242 
-0.0830716 -0.00441981 0.208266 -0.0744999 -0.00282022 0.230526 -0.0656937 -0.00146179 0.252105 
-0.0568408 -0.000342611 0.273088 -0.0480913 0.000533704 0.29355 -0.0395495 0.00115858 0.313548 
-0.0312715 0.0015201 0.33311 -0.0232682 0.00160542 0.352238 -0.0155109 0.00140367 0.37091 
-0.0079423 0.00090878 0.389092 -0.000488531 0.000121992 0.406743 0.00692799 -0.000946464 0.423832 
0.0143762 -0.00227667 0.440346 0.0219061 -0.00383947 0.456296 0.029542 -0.00559796 0.471721 
0.0372788 -0.00751 0.486687 0.0450825 -0.00953124 0.501275 0.052894 -0.0116184 0.515572 
0.0606362 -0.0137325 0.529661 0.0682219 -0.0158412 0.543603 0.0755636 -0.0179208 0.557425 
0.082582 -0.0199567 0.571117 0.0892134 -0.0219427 0.584628 0.095415 -0.0238799 0.597865 
0.101167 -0.0257739 0.610708 0.106473 -0.0276318 0.623019 0.111356 -0.0294599 0.634661 
0.115856 -0.0312603 0.645514 0.12002 -0.0330293 0.655486 0.123901 -0.0347563 0.664531 
0.127546 -0.036424 0.67265 0.130997 -0.0380094 0.679889 0.134283 -0.0394864 0.686339 
0.137421 -0.040828 0.692115 0.140413 -0.0420104 0.697347 0.143252 -0.0430154 0.702159 
0.145919 -0.0438333 0.706654 0.148391 -0.0444645 0.710901 0.150642 -0.04492 0.714925 
0.152645 -0.045221 0.718707 0.154377 -0.0453965 0.722184 0.155817 -0.0454807 0.725266 
0.156949 -0.0455096 0.727844 0.157761 -0.0455165 0.729809 0.158245 -0.0455289 0.731067 
0.158396 -0.0455653 0.731556 
LINES 2 100
OFFSETS vtktypeint64
0 100 
CONNECTIVITY vtktypeint64
0 1 2 3 4 5 6 7 8 
9 10 11 12 13 14 15 16 17 
18 19 20 21 22 23 24 25 26 
27 28 29 30 31 32 33 34 35 
36 37 38 39 40 41 42 43 44 
45 46 47 48 49 50 51 52 53 
54 55 56 57 58 59 60 61 62 
63 64 65 66 67 68 69 70 71 
72 73 74 75 76 77 78 79 80 
81 82 83 84 85 86 87 88 89 
90 91 92 93 94 95 96 97 98 
99 
POINT_DATA 100
FIELD FieldData 3
_theta 1 100 double
0 0.031733259127 0.063466518254 0.095199777382 0.12693303651 0.15866629564 0.19039955476 0.22213281389 0.25386607302 
0.28559933214 0.31733259127 0.3490658504 0.38079910953 0.41253236865 0.44426562778 0.47599888691 0.50773214603 0.53946540516 
0.57119866429 0.60293192342 0.63466518254 0.66639844167 0.6981317008 0.72986495992 0.76159821905 0.79333147818 0.82506473731 
0.85679799643 0.88853125556 0.92026451469 0.95199777382 0.98373103294 1.0154642921 1.0471975512 1.0789308103 1.1106640695 
1.1423973286 1.1741305877 1.2058638468 1.237597106 1.2693303651 1.3010636242 1.3327968833 1.3645301425 1.3962634016 
1.4279966607 1.4597299198 1.491463179 1.5231964381 1.5549296972 1.5866629564 1.6183962155 1.6501294746 1.6818627337 
1.7135959929 1.745329252 1.7770625111 1.8087957702 1.8405290294 1.8722622885 1.9039955476 1.9357288068 1.9674620659 
1.999195325 2.0309285841 2.0626618433 2.0943951024 2.1261283615 2.1578616206 2.1895948798 2.2213281389 2.253061398 
2.2847946572 2.3165279163 2.3482611754 2.3799944345 2.4117276937 2.4434609528 2.4751942119 2.506927471 2.5386607302 
2.5703939893 2.6021272484 2.6338605076 2.6655937667 2.6973270258 2.7290602849 2.7607935441 2.7925268032 2.8242600623 
2.8559933214 2.8877265806 2.9194598397 2.9511930988 2.982926358 3.0146596171 3.0463928762 3.0781261353 3.1098593945 
3.1415926536 
_radius 1 100 double
3.5217877338e-16 0.016741415824 0.033354247762 0.049712082832 0.065699896968 0.081217991717 0.096183690203 0.11053035593 0.12420370728 
0.13715592705 0.14933862255 0.16069614997 0.1711610194 0.18065290898 0.18908220301 0.19635805204 0.20239998252 0.20715132198 
0.21059231163 0.21275076231 0.21370839314 0.21360148705 0.21261516401 0.2109714161 0.20891205499 0.20667876231 0.20449319484 
0.2025401635 0.20095606269 0.19982324971 0.19916968105 0.19897248225 0.19916443691 0.19964321443 0.20028381887 0.20095465328 
0.20153657776 0.20194271015 0.20213519064 0.20213454172 0.20201824889 0.20190798773 0.20194891095 0.20228762956 0.20305544878 
0.20435945541 0.20627900665 0.20886296787 0.21212494122 0.21603748967 0.2205288096 0.22548494822 0.23075835488 0.23618123239 
0.24158107515 0.24679590606 0.25168735228 0.25615028405 0.2601181544 0.26356356997 0.26649418025 0.26894472874 0.2709668515 
0.27261856401 0.27395509585 0.27502194795 0.27585021499 0.27645375384 0.27682777606 0.27694868251 0.27677516723 0.27625064915 
0.27530694615 0.27386886611 0.27185914972 0.26920305812 0.26583195301 0.26168551293 0.25671270704 0.25087213649 0.2441326341 
0.23647492625 0.22789468153 0.21840654034 0.20804799044 0.19688148731 0.18499320608 0.17248735085 0.15947605984 0.14606650361 
0.13234830942 0.118385077 0.10421271074 0.089844829207 0.075282983127 0.060528148402 0.045590266541 0.030493877683 0.015279316919 
1.4236312667e-15 
_area 1 100 double
0 0.00066866252613 0.0026606369548 0.0059335668909 0.010415767642 0.016005066179 0.022569211233 0.029950058721 0.037972026395 
0.046452278692 0.055208123194 0.064057758296 0.072813688848 0.081272392954 0.089206989471 0.096369783717 0.10250833891 0.1073936428 
0.11085416092 0.11280686795 0.11327670808 0.11239913041 0.11040505001 0.10759225648 0.10429105183 0.100837056 0.097628022401 
0.09514531058 0.093321311807 0.092141519431 0.091591016636 0.091648641171 0.092275017739 0.09339730659 0.094937062166 0.096843140378 
0.098903175536 0.10103174114 0.10320364211 0.10539281316 0.10766965615 0.11011639689 0.11275548689 0.11554935901 0.11843069699 
0.12135567644 0.12435439338 0.1275581984 0.13118513307 0.13547105803 0.14057311647 0.14651220128 0.1531805506 0.16037700802 
0.16783812826 0.17526315248 0.1823406425 0.18878068603 0.19434967815 0.1988996023 0.2023832925 0.20485176766 0.20643722306 
0.20733343849 0.20779016985 0.20805945642 0.20820020306 0.20812221216 0.20772815775 0.20692991164 0.20564006476 0.20376859035 
0.20122465614 0.19792213891 0.19378747724 0.18876837387 0.18284119974 0.17601438954 0.16832580939 0.15983462712 0.15061152228 
0.14073270789 0.13028157347 0.11935763718 0.1080884001 0.096637599012 0.085203792353 0.074005985833 0.063257833594 0.053138002747 
0.043768842642 0.03521399468 0.027496250676 0.02062597282 0.014626510406 0.0095473851109 0.0054630479582 0.0024603308488 0.00062023791738 
5.9678838856e-17 
