# vtk DataFile Version 5.1
vtk output
ASCII
DATASET POLYDATA
POINTS 100 float
0.20414 0.0374935 -0.685921 0.20399 0.0375054 -0.686069 0.203607 0.0373625 -0.686514 
0.202989 0.0370668 -0.687134 0.202126 0.0366201 -0.687736 0.200999 0.0360217 -0.68808 
0.199574 0.0352663 -0.6879 0.197796 0.0343419 -0.686933 0.195595 0.0332285 -0.684942 
0.192881 0.0318972 -0.681735 0.189549 0.0303117 -0.677181 0.185492 0.0284302 -0.671217 
0.180609 0.0262089 -0.663845 0.174816 0.0236065 -0.655124 0.168062 0.020589 -0.645155 
0.160337 0.0171348 -0.634065 0.151683 0.013239 -0.62199 0.142191 0.00891694 -0.609053 
0.132005 0.00420558 -0.59536 0.121311 -0.000835999 -0.580984 0.110321 -0.00612847 -0.565971 
0.0992573 -0.0115757 -0.550338 0.0883337 -0.0170693 -0.534083 0.0777328 -0.0224947 -0.517198 
0.0675898 -0.0277367 -0.499675 0.0579786 -0.0326858 -0.48152 0.0489054 -0.037243 -0.462756 
0.0403086 -0.0413242 -0.443424 0.0320673 -0.0448627 -0.423582 0.024016 -0.0478104 -0.403297 
0.0159657 -0.0501381 -0.382633 0.00772806 -0.0518337 -0.361639 -0.000859447 -0.0529004 -0.34034 
-0.0099104 -0.053354 -0.31873 -0.0194705 -0.0532204 -0.296763 -0.0295053 -0.0525329 -0.274361 
-0.039896 -0.0513305 -0.251423 -0.0504442 -0.0496565 -0.227831 -0.0608838 -0.0475574 -0.203474 
-0.0709014 -0.0450832 -0.178266 -0.0801605 -0.0422866 -0.152159 -0.088329 -0.0392238 -0.125163 
-0.0951057 -0.0359536 -0.0973516 -0.100245 -0.0325374 -0.068865 -0.103575 -0.029038 -0.0399045 
-0.105011 -0.0255182 -0.0107196 -0.104559 -0.0220391 0.0184105 -0.102311 -0.018658 0.0471997 
-0.0984366 -0.0154267 0.0753781 -0.0931657 -0.0123898 0.102714 -0.0867678 -0.00958334 0.129033 
-0.0795303 -0.00703483 0.154228 -0.071737 -0.00476312 0.178261 -0.0636488 -0.00277952 0.201166 
-0.0554886 -0.00108927 0.22303 -0.0474307 0.000306638 0.243982 -0.0395963 0.00140961 0.264171 
-0.0320536 0.00222182 0.283745 -0.0248224 0.00274509 0.302835 -0.0178827 0.00298034 0.321537 
-0.0111848 0.00292787 0.339907 -0.0046611 0.00258821 0.357958 0.00176287 0.00196355 0.375665 
0.00815856 0.00105944 0.392973 0.0145864 -0.000113614 0.409814 0.0210898 -0.00153877 0.426121 
0.0276924 -0.00319216 0.441841 0.0343961 -0.00504297 0.456948 0.0411823 -0.00705435 0.471446 
0.0480134 -0.00918519 0.485375 0.0548362 -0.0113925 0.4988 0.0615855 -0.0136339 0.511805 
0.0681876 -0.015871 0.52448 0.074565 -0.0180707 0.536903 0.0806397 -0.0202079 0.549132 
0.0863383 -0.0222657 0.561187 0.0915953 -0.024235 0.573051 0.0963571 -0.0261136 0.584664 
0.100586 -0.0279039 0.595933 0.104262 -0.02961 0.606735 0.107387 -0.0312354 0.616938 
0.109983 -0.0327801 0.626414 0.112095 -0.0342388 0.635052 0.113784 -0.0356005 0.642773 
0.115128 -0.0368481 0.649541 0.116214 -0.0379605 0.655363 0.117133 -0.0389148 0.660289 
0.117971 -0.0396897 0.664405 0.118802 -0.0402687 0.667823 0.119684 -0.040644 0.670666 
0.120652 -0.0408185 0.673056 0.121717 -0.0408075 0.6751 0.122863 -0.0406393 0.676881 
0.124051 -0.0403532 0.678453 0.125226 -0.039997 0.679842 0.126319 -0.0396232 0.681043 
0.127259 -0.0392839 0.682038 0.127979 -0.0390263 0.682796 0.128425 -0.0388877 0.683286 
0.128562 -0.038892 0.683486 
LINES 2 100
OFFSETS vtktypeint64
0 100 
CONNECTIVITY vtktypeint64
0 1 2 3 4 5 6 7 8 
9 10 11 12 13 14 15 16 17 
18 19 20 21 22 23 24 25 26 
27 28 29 30 31 32 33 34 35 
36 37 38 39 40 41 42 43 44 
45 46 47 48 49 50 51 52 53 
54 55 56 57 58 59 60 61 62 
63 64 65 66 67 68 69 70 71 
72 73 74 75 76 77 78 79 80 
81 82 83 84 85 86 87 88 89 
90 91 92 93 94 95 96 97 98 
99 
POINT_DATA 100
FIELD FieldData 3
_theta 1 100 double
0 0.031733259127 0.063466518254 0.095199777382 0.12693303651 0.15866629564 0.19039955476 0.22213281389 0.25386607302 
0.28559933214 0.31733259127 0.3490658504 0.38079910953 0.41253236865 0.44426562778 0.47599888691 0.50773214603 0.53946540516 
0.57119866429 0.60293192342 0.63466518254 0.66639844167 0.6981317008 0.72986495992 0.76159821905 0.79333147818 0.82506473731 
0.85679799643 0.88853125556 0.92026451469 0.95199777382 0.98373103294 1.0154642921 1.0471975512 1.0789308103 1.1106640695 
1.1423973286 1.1741305877 1.2058638468 1.237597106 1.2693303651 1.3010636242 1.3327968833 1.3645301425 1.3962634016 
1.4279966607 1.4597299198 1.491463179 1.5231964381 1.5549296972 1.5866629564 1.6183962155 1.6501294746 1.6818627337 
1.7135959929 1.745329252 1.7770625111 1.8087957702 1.8405290294 1.8722622885 1.9039955476 1.9357288068 1.9674620659 
1.999195325 2.0309285841 2.0626618433 2.0943951024 2.1261283615 2.1578616206 2.1895948798 2.2213281389 2.253061398 
2.2847946572 2.3165279163 2.3482611754 2.3799944345 2.4117276937 2.4434609528 2.4751942119 2.506927471 2.5386607302 
2.5703939893 2.6021272484 2.6338605076 2.6655937667 2.6973270258 2.7290602849 2.7607935441 2.7925268032 2.8242600623 
2.8559933214 2.8877265806 2.9194598397 2.9511930988 2.982926358 3.0146596171 3.0463928762 3.0781261353 3.1098593945 
3.1415926536 
_radius 1 100 double
8.0134461482e-16 0.01604679039 0.032049921526 0.047950280562 0.063670720958 0.07910966469 0.094137870046 0.10859943299 0.12231760544 
0.13510526067 0.14677901957 0.15717537674 0.16616677315 0.17367551573 0.17968374116 0.18423819536 0.18744932844 0.18948492183 
0.19055900521 0.1909170859 0.19081873681 0.19051854629 0.19024656001 0.19018976513 0.19047674017 0.19116788814 0.19225319517 
0.19365810856 0.19525644754 0.19688810493 0.19837912444 0.19956227037 0.20029677547 0.20048607201 0.20009198011 0.1991434265 
0.19773762786 0.19603189981 0.19422542228 0.1925335645 0.19116187977 0.19028816085 0.19005610295 0.19057710095 0.19193354216 
0.19417860025 0.1973311552 0.20136781782 0.2062161586 0.21175345098 0.21781340007 0.22420047254 0.23070914168 0.23714443257 
0.24334038033 0.24917381813 0.25457187492 0.25951250225 0.26401823053 0.26814422093 0.27196253634 0.27554523917 0.27894910303 
0.28220417276 0.28530733996 0.28822106098 0.290876692 0.29318158527 0.29502885389 0.29630848042 0.29691829187 0.29677335604 
0.29581261181 0.29400198775 0.29133379719 0.28782272908 0.28349920771 0.2784012265 0.2725659447 0.26602235086 0.25878613209 
0.25085754296 0.24222257312 0.23285714286 0.22273353523 0.2118279375 0.20012788556 0.18763853137 0.17438685249 0.16042311744 
0.14581918153 0.13066364512 0.11505455121 0.099090921325 0.082864748885 0.066454929321 0.049924053616 0.033318242477 0.016669535817 
4.2102012301e-16 
_area 1 100 double
0 0.0006071574795 0.0024373338425 0.0055110129846 0.0098441301431 0.015423313041 0.022177702347 0.029954852781 0.038508573637 
0.047504124035 0.056541974959 0.065196990153 0.073066422822 0.07981804121 0.085229265862 0.089209667182 0.091802520178 0.093165782833 
0.093537718441 0.09319605636 0.092420888767 0.091469511109 0.090565989972 0.089901850011 0.089640406435 0.089898312532 0.09066347781 
0.091785269985 0.09306318065 0.094292696367 0.095285741508 0.095891774097 0.096019507172 0.09565416274 0.09486647275 0.093815891665 
0.092756594898 0.092019503349 0.091878727897 0.092419200951 0.093621343502 0.095387189264 0.097526299322 0.099879137311 0.10239025233 
0.10512839378 0.10827441606 0.11206088721 0.11667696692 0.12219863303 0.1285854207 0.13571846888 0.1434487241 0.15162262544 
0.15999859825 0.16826201084 0.17608250323 0.18328980994 0.18981380376 0.1956504705 0.20084383855 0.20544235718 0.20950374945 
0.21334479276 0.21678930819 0.21963776021 0.22190107262 0.22356709643 0.22450985333 0.22461377849 0.22378447273 0.22195269307 
0.21907200504 0.21511921524 0.21009778808 0.20403911339 0.19699804678 0.18904386202 0.18025153099 0.17069794642 0.16046400412 
0.14964013143 0.13833235018 0.12666679872 0.11479035397 0.10286459196 0.091052772383 0.079504746088 0.068348402736 0.057693138341 
0.047641205205 0.038296675216 0.029766077095 0.022152829153 0.015550748539 0.010040025504 0.0056860028178 0.002539410986 0.00063670882607 
1.5826065503e-17 
