# vtk DataFile Version 5.1
vtk output
ASCII
DATASET POLYDATA
POINTS 100 float
0.127414 0.0794879 -0.646692 0.127564 0.0792577 -0.646926 0.128012 0.0783894 -0.647566 
0.128713 0.0769262 -0.648487 0.129593 0.0749357 -0.649495 0.130559 0.072502 -0.650345 
0.131504 0.0697166 -0.650767 0.132311 0.0666695 -0.65049 0.132866 0.0634395 -0.649266 
0.13306 0.0600873 -0.646895 0.132794 0.0566504 -0.643236 0.131983 0.0531413 -0.638223 
0.130555 0.0495483 -0.63186 0.128452 0.04584 -0.624217 0.125626 0.0419714 -0.615418 
0.122043 0.0378917 -0.605623 0.117675 0.033553 -0.595005 0.112505 0.0289176 -0.583735 
0.106524 0.0239649 -0.571954 0.0997354 0.0186961 -0.559768 0.0921561 0.0131356 -0.547233 
0.08382 0.0073307 -0.534354 0.0747804 0.00134914 -0.52109 0.0651113 -0.00472588 -0.507361 
0.054908 -0.0108012 -0.493061 0.0442839 -0.0167797 -0.478076 0.0333665 -0.0225662 -0.462298 
0.0222907 -0.0280717 -0.445639 0.0111908 -0.0332173 -0.428046 0.000192458 -0.0379354 -0.409502 
-0.0105957 -0.0421708 -0.39003 -0.0210879 -0.0458795 -0.369693 -0.0312253 -0.0490274 -0.348582 
-0.0409761 -0.0515891 -0.32681 -0.0503322 -0.053546 -0.304496 -0.0593031 -0.0548863 -0.281757 
-0.067906 -0.0556049 -0.258697 -0.0761554 -0.0557046 -0.235398 -0.0840518 -0.0551977 -0.211919 
-0.0915719 -0.054108 -0.188295 -0.098662 -0.0524723 -0.164542 -0.105235 -0.0503419 -0.140662 
-0.111171 -0.0477819 -0.116652 -0.116326 -0.0448699 -0.0925145 -0.120543 -0.0416928 -0.0682654 
-0.123663 -0.0383426 -0.043938 -0.125545 -0.034911 -0.0195878 -0.12608 -0.0314834 0.0047079 
-0.125206 -0.0281338 0.0288541 -0.122916 -0.0249197 0.0527439 -0.119265 -0.02188 0.0762674 
-0.114369 -0.019033 0.0993209 -0.108396 -0.0163785 0.121816 -0.101556 -0.0139007 0.143686 
-0.0940793 -0.0115731 0.164893 -0.0862045 -0.00936527 0.185429 -0.0781532 -0.00724901 0.205315 
-0.0701154 -0.00520479 0.224593 -0.0622351 -0.00322664 0.243328 -0.0546025 -0.00132517 0.261589 
-0.0472517 0.000471686 0.279449 -0.040165 0.00212038 0.29697 -0.0332828 0.00356581 0.314202 
-0.0265174 0.00474712 0.331177 -0.0197698 0.00560464 0.347905 -0.0129469 0.00608708 0.364381 
-0.00597628 0.00615811 0.380584 0.00118131 0.00580143 0.396488 0.00852496 0.00502381 0.412066 
0.0160117 0.00385568 0.427296 0.0235603 0.00234905 0.44217 0.031059 0.000573251 0.456695 
0.0383782 -0.0013912 0.470896 0.0453833 -0.00345985 0.484808 0.0519488 -0.00555173 0.49848 
0.0579702 -0.00759632 0.511958 0.0633733 -0.00953902 0.525284 0.068119 -0.0113448 0.53848 
0.0722039 -0.0129996 0.551544 0.0756571 -0.0145095 0.564444 0.0785334 -0.0158976 0.57711 
0.0809037 -0.0171995 0.589439 0.082846 -0.0184577 0.601299 0.0844351 -0.019716 0.612534 
0.0857361 -0.0210133 0.622979 0.0867989 -0.0223796 0.632471 0.0876567 -0.0238325 0.640866 
0.0883275 -0.0253756 0.648052 0.0888178 -0.0269985 0.65396 0.0891284 -0.0286781 0.658576 
0.0892607 -0.0303811 0.661943 0.0892218 -0.0320671 0.66416 0.0890293 -0.0336923 0.665379 
0.0887126 -0.0352123 0.665793 0.0883127 -0.0365852 0.665622 0.0878789 -0.0377739 0.665095 
0.087464 -0.038747 0.664434 0.087118 -0.0394803 0.663832 0.086882 -0.0399565 0.663442 
0.086783 -0.0401656 0.663358 
LINES 2 100
OFFSETS vtktypeint64
0 100 
CONNECTIVITY vtktypeint64
0 1 2 3 4 5 6 7 8 
9 10 11 12 13 14 15 16 17 
18 19 20 21 22 23 24 25 26 
27 28 29 30 31 32 33 34 35 
36 37 38 39 40 41 42 43 44 
45 46 47 48 49 50 51 52 53 
54 55 56 57 58 59 60 61 62 
63 64 65 66 67 68 69 70 71 
72 73 74 75 76 77 78 79 80 
81 82 83 84 85 86 87 88 89 
90 91 92 93 94 95 96 97 98 
99 
POINT_DATA 100
FIELD FieldData 3
_theta 1 100 double
0 0.031733259127 0.063466518254 0.095199777382 0.12693303651 0.15866629564 0.19039955476 0.22213281389 0.25386607302 
0.28559933214 0.31733259127 0.3490658504 0.38079910953 0.41253236865 0.44426562778 0.47599888691 0.50773214603 0.53946540516 
0.57119866429 0.60293192342 0.63466518254 0.66639844167 0.6981317008 0.72986495992 0.76159821905 0.79333147818 0.82506473731 
0.85679799643 0.88853125556 0.92026451469 0.95199777382 0.98373103294 1.0154642921 1.0471975512 1.0789308103 1.1106640695 
1.1423973286 1.1741305877 1.2058638468 1.237597106 1.2693303651 1.3010636242 1.3327968833 1.3645301425 1.3962634016 
1.4279966607 1.4597299198 1.491463179 1.5231964381 1.5549296972 1.5866629564 1.6183962155 1.6501294746 1.6818627337 
1.7135959929 1.745329252 1.7770625111 1.8087957702 1.8405290294 1.8722622885 1.9039955476 1.9357288068 1.9674620659 
1.999195325 2.0309285841 2.0626618433 2.0943951024 2.1261283615 2.1578616206 2.1895948798 2.2213281389 2.253061398 
2.2847946572 2.3165279163 2.3482611754 2.3799944345 2.4117276937 2.4434609528 2.4751942119 2.506927471 2.5386607302 
2.5703939893 2.6021272484 2.6338605076 2.6655937667 2.6973270258 2.7290602849 2.7607935441 2.7925268032 2.8242600623 
2.8559933214 2.8877265806 2.9194598397 2.9511930988 2.982926358 3.0146596171 3.0463928762 3.0781261353 3.1098593945 
3.1415926536 
_radius 1 100 double
2.6658359842e-16 0.01498854037 0.029875944526 0.044560757711 0.058950243993 0.072963248036 0.086531406675 0.099598507144 0.11211801214 
0.12404903987 0.13535141197 0.1459807152 0.15588454667 0.16500108681 0.1732607999 0.18059144707 0.1869258736 0.19221139953 
0.19641926279 0.19955251639 0.20165105141 0.20279292119 0.20309174692 0.2026905483 0.2017527499 0.200451315 0.1989569936 
0.19742664473 0.19599260474 0.19475412646 0.19377190771 0.19306654716 0.19262139819 0.19238981769 0.19230628815 0.19230031329 
0.19231134729 0.1923024095 0.19226967605 0.19224557269 0.19229414882 0.19249986374 0.19295339139 0.1937389166 0.1949259301 
0.19656593658 0.19869244752 0.20132183084 0.20445297175 0.20806496994 0.21211370262 0.21652924027 0.22121621383 0.22605829024 
0.2309264692 0.23568966275 0.24022539858 0.24442858593 0.24821694423 0.25153264517 0.25434064408 0.25662480073 0.25838307698 
0.2596228898 0.26035726979 0.26060202947 0.26037383222 0.25968893072 0.25856238267 0.25700766011 0.2550366422 0.25265996337 
0.24988759728 0.24672945582 0.24319571036 0.2392964954 0.23504066763 0.23043349608 0.22547361986 0.22015012444 0.21444078222 
0.20831218912 0.20172187867 0.19462187993 0.18696289868 0.17869840241 0.16978822178 0.16020160802 0.14991983342 0.1389383615 
0.12726844522 0.11493787412 0.10199058222 0.088484965457 0.074491002008 0.060086554846 0.045353483201 0.030374311101 0.015230117668 
6.5623158815e-16 
_area 1 100 double
0 0.0005932463752 0.0023595981854 0.0052597416243 0.0092307962195 0.014189639694 0.020036310121 0.026656433811 0.033921870635 
0.041689355051 0.04979752347 0.058063351038 0.066279902566 0.074218129899 0.081635319813 0.088291108872 0.093969197153 0.098500352966 
0.10178133119 0.10378544364 0.10456313193 0.10423360539 0.10297022324 0.10098277665 0.098499799909 0.095753397715 0.092966821458 
0.090341813832 0.088043105165 0.086183793936 0.084819287755 0.083953079903 0.083552439804 0.08356873316 0.083953964293 0.08466614086 
0.08566534014 0.086912604319 0.08837864189 0.090054284765 0.091948638626 0.09406822485 0.096391230254 0.098866477147 0.1014375331 
0.10406724094 0.10676019354 0.10957746633 0.11262991889 0.11605345955 0.119972135 0.12445967531 0.12951987677 0.13509128744 
0.14106115205 0.14727743833 0.15355937195 0.15970988983 0.16553065306 0.1708373806 0.17547249503 0.17931304368 0.18227340762 
0.18430366668 0.18538539594 0.18552719712 0.1847623245 0.18314928327 0.18077308813 0.17774315008 0.17418545232 0.17022942765 
0.16599168894 0.16155979543 0.1569801642 0.15225439855 0.14734624346 0.1421968651 0.13674208704 0.13092574975 0.12470783405 
0.11806908086 0.11101325235 0.1035664969 0.095773195237 0.087689318233 0.079376262745 0.070898804581 0.062329257839 0.053756396478 
0.045294271706 0.037085547834 0.029296868093 0.022107578443 0.01569538765 0.010222754607 0.0058267373481 0.0026134737447 0.00065688378711 
4.3337526356e-17 
