# vtk DataFile Version 5.1
vtk output
ASCII
DATASET POLYDATA
POINTS 100 float
0.209066 0.039615 -0.66679 0.208902 0.0396237 -0.666544 0.208411 0.0395324 -0.665877 
0.207551 0.0393509 -0.664753 0.206257 0.0390922 -0.663116 0.204451 0.0387685 -0.660895 
0.202049 0.038387 -0.658015 0.198976 0.0379455 -0.654403 0.195172 0.037429 -0.649995 
0.190598 0.0368081 -0.644746 0.185246 0.0360384 -0.638636 0.179135 0.0350634 -0.631667 
0.172309 0.033818 -0.62387 0.164834 0.0322342 -0.615295 0.156791 0.0302481 -0.606013 
0.148264 0.0278063 -0.596101 0.139338 0.024872 -0.58564 0.130087 0.0214304 -0.574703 
0.120575 0.0174911 -0.563349 0.110852 0.0130892 -0.551619 0.100955 0.00828382 -0.539527 
0.090912 0.0031543 -0.527067 0.0807475 -0.00220446 -0.514209 0.0704869 -0.00768819 -0.500907 
0.060161 -0.0131893 -0.487103 0.0498088 -0.0186029 -0.472735 0.0394785 -0.0238309 -0.457745 
0.0292245 -0.0287861 -0.442087 0.0191043 -0.0333931 -0.42573 0.00917124 -0.0375897 -0.40866 
-0.000531147 -0.0413252 -0.390888 -0.00997587 -0.0445595 -0.372438 -0.0191565 -0.0472615 -0.353352 
-0.0280889 -0.0494078 -0.333679 -0.0368085 -0.0509818 -0.313469 -0.0453651 -0.0519745 -0.29277 
-0.0538131 -0.052385 -0.271616 -0.0622 -0.0522226 -0.25003 -0.0705528 -0.0515083 -0.228018 
-0.0788665 -0.0502765 -0.20557 -0.0870931 -0.0485761 -0.182667 -0.0951359 -0.0464698 -0.159286 
-0.102849 -0.0440325 -0.135404 -0.11004 -0.0413478 -0.111011 -0.116483 -0.0385038 -0.0861195 
-0.121934 -0.0355877 -0.0607653 -0.126149 -0.03268 -0.0350177 -0.128905 -0.0298498 -0.00897925 
-0.130023 -0.0271504 0.0172162 -0.129384 -0.0246175 0.0434079 -0.126941 -0.0222691 0.0694172 
-0.12273 -0.0201074 0.0950577 -0.116865 -0.0181228 0.120148 -0.109533 -0.0162994 0.144522 
-0.100981 -0.0146208 0.168045 -0.0914941 -0.0130765 0.190616 -0.081375 -0.0116659 0.212182 
-0.070921 -0.0104019 0.232733 -0.0604025 -0.00931058 0.252307 -0.0500452 -0.00842972 0.270978 
-0.0400182 -0.00780367 0.288855 -0.0304275 -0.00747711 0.306065 -0.021317 -0.0074873 0.322746 
-0.0126751 -0.00785656 0.339031 -0.00444621 -0.00858572 0.355038 0.00345445 -0.00964967 0.370863 
0.0111246 -0.0109959 0.386571 0.0186592 -0.0125465 0.402196 0.0261376 -0.0142028 0.417741 
0.0336132 -0.0158543 0.43318 0.0411088 -0.0173879 0.448465 0.0486155 -0.0186996 0.463535 
0.056096 -0.0197045 0.478322 0.0634914 -0.0203462 0.49276 0.0707294 -0.0206019 0.506791 
0.0777337 -0.0204855 0.520367 0.0844325 -0.0200449 0.533458 0.0907652 -0.0193567 0.546043 
0.0966869 -0.018517 0.558117 0.10217 -0.0176301 0.569681 0.107202 -0.016797 0.580738 
0.111787 -0.0161031 0.591292 0.115935 -0.0156098 0.601339 0.119662 -0.0153479 0.61087 
0.122985 -0.0153156 0.619863 0.125919 -0.0154802 0.628292 0.128474 -0.0157843 0.636124 
0.130661 -0.0161544 0.643322 0.132486 -0.016512 0.649857 0.133959 -0.0167842 0.655703 
0.135095 -0.0169139 0.66085 0.135918 -0.0168679 0.6653 0.136461 -0.0166407 0.669072 
0.136765 -0.0162549 0.6722 0.136882 -0.0157583 0.674728 0.136869 -0.015216 0.676709 
0.13678 -0.0147021 0.678198 0.136667 -0.0142883 0.679242 0.136572 -0.0140347 0.679883 
0.136519 -0.0139808 0.680144 
LINES 2 100
OFFSETS vtktypeint64
0 100 
CONNECTIVITY vtktypeint64
0 1 2 3 4 5 6 7 8 
9 10 11 12 13 14 15 16 17 
18 19 20 21 22 23 24 25 26 
27 28 29 30 31 32 33 34 35 
36 37 38 39 40 41 42 43 44 
45 46 47 48 49 50 51 52 53 
54 55 56 57 58 59 60 61 62 
63 64 65 66 67 68 69 70 71 
72 73 74 75 76 77 78 79 80 
81 82 83 84 85 86 87 88 89 
90 91 92 93 94 95 96 97 98 
99 
POINT_DATA 100
FIELD FieldData 3
_theta 1 100 double
0 0.031733259127 0.063466518254 0.095199777382 0.12693303651 0.15866629564 0.19039955476 0.22213281389 0.25386607302 
0.28559933214 0.31733259127 0.3490658504 0.38079910953 0.41253236865 0.44426562778 0.47599888691 0.50773214603 0.53946540516 
0.57119866429 0.60293192342 0.63466518254 0.66639844167 0.6981317008 0.72986495992 0.76159821905 0.79333147818 0.82506473731 
0.85679799643 0.88853125556 0.92026451469 0.95199777382 0.98373103294 1.0154642921 1.0471975512 1.0789308103 1.1106640695 
1.1423973286 1.1741305877 1.2058638468 1.237597106 1.2693303651 1.3010636242 1.3327968833 1.3645301425 1.3962634016 
1.4279966607 1.4597299198 1.491463179 1.5231964381 1.5549296972 1.5866629564 1.6183962155 1.6501294746 1.6818627337 
1.7135959929 1.745329252 1.7770625111 1.8087957702 1.8405290294 1.8722622885 1.9039955476 1.9357288068 1.9674620659 
1.999195325 2.0309285841 2.0626618433 2.0943951024 2.1261283615 2.1578616206 2.1895948798 2.2213281389 2.253061398 
2.2847946572 2.3165279163 2.3482611754 2.3799944345 2.4117276937 2.4434609528 2.4751942119 2.506927471 2.5386607302 
2.5703939893 2.6021272484 2.6338605076 2.6655937667 2.6973270258 2.7290602849 2.7607935441 2.7925268032 2.8242600623 
2.8559933214 2.8877265806 2.9194598397 2.9511930988 2.982926358 3.0146596171 3.0463928762 3.0781261353 3.1098593945 
3.1415926536 
_radius 1 100 double
1.1128437008e-15 0.014382885144 0.02860677694 0.042525085381 0.056012918025 0.068972964084 0.081336485179 0.093059447121 0.10411498387 
0.11448430235 0.12414847374 0.13308316573 0.14125740144 0.14863625619 0.15518641663 0.16088298993 0.1657159304 0.16969484262 
0.17285151013 0.1752400543 0.17693500075 0.17802769888 0.17862157394 0.17882667035 0.17875390574 0.17850940406 0.17818922534 
0.17787477695 0.17762916645 0.17749470427 0.17749166948 0.17761835699 0.17785240671 0.17815350022 0.17846761681 0.17873299427 
0.17888762114 0.17887759733 0.1786653108 0.17823628794 0.17760379822 0.17681071373 0.17592856154 0.17505399503 0.17430299665 
0.17380310033 0.17368394727 0.17406662943 0.17505246686 0.17671207685 0.17907587775 0.18212739282 0.18580051009 0.18998114133 
0.19451303662 0.19920735967 0.20385579888 0.20824681097 0.21218382115 0.2155032888 0.21809011281 0.21988810328 0.22090397173 
0.22120418609 0.22090491543 0.22015610219 0.21912145039 0.21795680067 0.21678989639 0.21570473566 0.21473324385 0.21385559766 
0.21300828405 0.2120967965 0.21100908697 0.20962699568 0.20783495175 0.20552681648 0.20261200625 0.19902122624 0.19471114598 
0.1896668741 0.18390126775 0.17745066758 0.17036729151 0.16270913098 0.15452876537 0.14586301128 0.13672559713 0.12710482939 
0.11696728929 0.10626710169 0.094958808453 0.083011024939 0.070418162199 0.057208327565 0.043446577977 0.02923359156 0.014700387696 
3.013300607e-16 
_area 1 100 double
0 0.00044885435267 0.0017980569805 0.0040505853067 0.0071971127363 0.01120107311 0.015987361718 0.021438541033 0.027399185417 
0.033686206897 0.040101712804 0.046445399405 0.052525114148 0.058165932844 0.063218858682 0.06756964043 0.071146665246 0.073925500958 
0.075927731409 0.077213976145 0.077874083533 0.078017882066 0.077766827935 0.07724493041 0.076569654339 0.075856036118 0.075236841343 
0.074732188904 0.074323988473 0.074016415795 0.073826104106 0.073774870461 0.07388013807 0.074150492506 0.074590332353 0.075195452631 
0.075952323997 0.07685683029 0.077920268441 0.079150760602 0.080516370455 0.081930139732 0.08329250808 0.084548679053 0.085708369328 
0.08683195749 0.088011293016 0.089368191612 0.091053285108 0.093217353913 0.095971775736 0.099368126317 0.1033963872 0.10798933204 
0.11302560219 0.1183294012 0.12367060078 0.12877234392 0.1333309016 0.13704661703 0.13966020978 0.14098806995 0.14095237985 
0.13960781609 0.13728311643 0.13433764247 0.13095714503 0.12759179652 0.12448502181 0.12180439456 0.11960468605 0.11782779595 
0.11632280824 0.11489807302 0.11336828384 0.11157869338 0.10940848906 0.10676517556 0.10358042806 0.099810054015 0.095434965799 
0.090461047055 0.084920022943 0.078874090376 0.072421625992 0.065695984439 0.058851752637 0.052040977575 0.045388568541 0.038977592885 
0.032851505697 0.027032669611 0.021548334679 0.016451963144 0.01183151439 0.0078034410838 0.004496802929 0.0020340327959 0.00051395173737 
5.2041704279e-18 
