# vtk DataFile Version 5.1
vtk output
ASCII
DATASET POLYDATA
POINTS 100 float
0.10721 0.10836 -0.69452 0.107355 0.108122 -0.69443 0.107754 0.107198 -0.69415 
0.108368 0.105617 -0.693624 0.109133 0.103425 -0.692765 0.109967 0.100679 -0.691465 
0.110775 0.0974377 -0.689608 0.11145 0.0937581 -0.687081 0.111885 0.0896856 -0.683787 
0.111975 0.0852513 -0.67965 0.111623 0.0804703 -0.674621 0.110744 0.0753423 -0.668684 
0.109265 0.0698557 -0.661846 0.107131 0.0639944 -0.654135 0.104306 0.0577448 -0.645591 
0.100768 0.0511048 -0.636254 0.0965147 0.0440905 -0.626158 0.0915578 0.0367426 -0.615323 
0.0859247 0.0291287 -0.603747 0.0796559 0.0213436 -0.591409 0.0728032 0.0135054 -0.578271 
0.065428 0.00574897 -0.564281 0.0575989 -0.00178261 -0.549386 0.0493891 -0.00894834 -0.533535 
0.040873 -0.0156194 -0.516695 0.0321237 -0.0216884 -0.498853 0.023209 -0.0270759 -0.480022 
0.0141884 -0.031735 -0.460247 0.00511115 -0.0356519 -0.439594 -0.00398573 -0.0388434 -0.418151 
-0.0130774 -0.0413515 -0.39602 -0.0221499 -0.0432362 -0.373301 -0.0311969 -0.044567 -0.35009 
-0.0402152 -0.0454147 -0.326467 -0.049199 -0.0458437 -0.30249 -0.0581331 -0.045907 -0.278194 
-0.0669868 -0.0456431 -0.253595 -0.075708 -0.0450759 -0.228688 -0.0842194 -0.0442169 -0.203465 
-0.092417 -0.0430693 -0.177914 -0.100171 -0.0416338 -0.152038 -0.107331 -0.0399139 -0.125858 
-0.113733 -0.0379212 -0.099424 -0.119207 -0.0356792 -0.0728125 -0.123595 -0.0332249 -0.0461305 
-0.126754 -0.0306082 -0.0195081 -0.128577 -0.0278898 0.0069096 -0.128993 -0.0251364 0.032973 
-0.127983 -0.0224158 0.0585403 -0.125577 -0.019791 0.0834884 -0.121855 -0.0173152 0.107723 
-0.11694 -0.0150282 0.131185 -0.110991 -0.012954 0.153854 -0.10419 -0.0111012 0.175744 
-0.0967302 -0.00946489 0.196901 -0.0887979 -0.00803046 0.217394 -0.0805642 -0.00677821 0.237305 
-0.0721727 -0.00568863 0.256716 -0.0637333 -0.0047471 0.275701 -0.0553195 -0.00394751 0.294317 
-0.0469695 -0.00329419 0.3126 -0.0386918 -0.00280194 0.330563 -0.0304728 -0.00249412 0.3482 
-0.022287 -0.00239907 0.365487 -0.0141074 -0.00254545 0.382393 -0.00591481 -0.00295713 0.398888 
0.00229443 -0.00364842 0.414948 0.010504 -0.00462033 0.430565 0.0186763 -0.00585845 0.445747 
0.0267545 -0.00733267 0.46052 0.0346677 -0.00899905 0.474926 0.0423382 -0.0108032 0.489014 
0.0496894 -0.0126854 0.502838 0.0566544 -0.0145858 0.516443 0.0631823 -0.0164499 0.529861 
0.069243 -0.0182335 0.543101 0.0748293 -0.0199058 0.556146 0.0799551 -0.0214509 0.568951 
0.0846519 -0.0228679 0.581448 0.0889625 -0.0241681 0.593545 0.0929336 -0.0253721 0.605141 
0.0966085 -0.0265054 0.616129 0.100021 -0.0275931 0.626412 0.103188 -0.0286566 0.635905 
0.106114 -0.0297098 0.644547 0.108784 -0.0307573 0.652305 0.111172 -0.0317945 0.659173 
0.113246 -0.0328084 0.665175 0.114974 -0.0337803 0.670356 0.116333 -0.0346888 0.674781 
0.117313 -0.0355138 0.678525 0.117926 -0.0362391 0.681667 0.118206 -0.0368551 0.684282 
0.118204 -0.03736 0.68644 0.117993 -0.0377594 0.688197 0.117656 -0.0380654 0.689599 
0.117275 -0.0382938 0.690678 0.116931 -0.0384614 0.691458 0.116685 -0.038583 0.691951 
0.116581 -0.0386686 0.692166 
LINES 2 100
OFFSETS vtktypeint64
0 100 
CONNECTIVITY vtktypeint64
0 1 2 3 4 5 6 7 8 
9 10 11 12 13 14 15 16 17 
18 19 20 21 22 23 24 25 26 
27 28 29 30 31 32 33 34 35 
36 37 38 39 40 41 42 43 44 
45 46 47 48 49 50 51 52 53 
54 55 56 57 58 59 60 61 62 
63 64 65 66 67 68 69 70 71 
72 73 74 75 76 77 78 79 80 
81 82 83 84 85 86 87 88 89 
90 91 92 93 94 95 96 97 98 
99 
POINT_DATA 100
FIELD FieldData 3
_theta 1 100 double
0 0.031733259127 0.063466518254 0.095199777382 0.12693303651 0.15866629564 0.19039955476 0.22213281389 0.25386607302 
0.28559933214 0.31733259127 0.3490658504 0.38079910953 0.41253236865 0.44426562778 0.47599888691 0.50773214603 0.53946540516 
0.57119866429 0.60293192342 0.63466518254 0.66639844167 0.6981317008 0.72986495992 0.76159821905 0.79333147818 0.82506473731 
0.85679799643 0.88853125556 0.92026451469 0.95199777382 0.98373103294 1.0154642921 1.0471975512 1.0789308103 1.1106640695 
1.1423973286 1.1741305877 1.2058638468 1.237597106 1.2693303651 1.3010636242 1.3327968833 1.3645301425 1.3962634016 
1.4279966607 1.4597299198 1.491463179 1.5231964381 1.5549296972 1.5866629564 1.6183962155 1.6501294746 1.6818627337 
1.7135959929 1.745329252 1.7770625111 1.8087957702 1.8405290294 1.8722622885 1.9039955476 1.9357288068 1.9674620659 
1.999195325 2.0309285841 2.0626618433 2.0943951024 2.1261283615 2.1578616206 2.1895948798 2.2213281389 2.253061398 
2.2847946572 2.3165279163 2.3482611754 2.3799944345 2.4117276937 2.4434609528 2.4751942119 2.506927471 2.5386607302 
2.5703939893 2.6021272484 2.6338605076 2.6655937667 2.6973270258 2.7290602849 2.7607935441 2.7925268032 2.8242600623 
2.8559933214 2.8877265806 2.9194598397 2.9511930988 2.982926358 3.0146596171 3.0463928762 3.0781261353 3.1098593945 
3.1415926536 
_radius 1 100 double
8.1205813398e-16 0.014503003188 0.028871133029 0.042976039779 0.056711890485 0.070000545032 0.082790845806 0.095052438066 0.10676585657 
0.11791144214 0.12845973888 0.13836540522 0.14756566117 0.15598328984 0.16353348108 0.17013339228 0.17571310891 0.18022660898 
0.18366134178 0.18604514999 0.18744952323 0.18798855975 0.18781348889 0.18710312297 0.18605112124 0.18485140768 0.18368339056 
0.18269866606 0.18201059171 0.18168759024 0.18175054442 0.18217440132 0.18289408375 0.18381468339 0.18482537548 0.18581560333 
0.18669124373 0.1873881844 0.18788134385 0.18818845377 0.18836907091 0.18851953468 0.1887642077 0.18924332952 0.19009856581 
0.19145812868 0.19342334107 0.19605783095 0.19937993919 0.20335876034 0.20791422837 0.21292152541 0.21821982008 0.22362496337 
0.22894524764 0.23399868299 0.23862965545 0.24272261452 0.24621079969 0.24907886171 0.25135924667 0.25312309131 0.25446699786 
0.25549742673 0.25631462273 0.25699801112 0.25759485319 0.25811359481 0.25852273678 0.25875523416 0.25871752989 0.25830156845 
0.25739772547 0.2559066232 0.25374822868 0.25086730088 0.24723499175 0.24284705587 0.23771956579 0.23188320124 0.22537709152 
0.21824292766 0.21051975973 0.2022396875 0.19342462223 0.18408442287 0.17421685791 0.16380981638 0.15284585144 0.14130852806 
0.12918940285 0.11649410402 0.10324610906 0.08948741745 0.075276169329 0.060682071462 0.04578100485 0.030650264325 0.015365526595 
1.6849479839e-15 
_area 1 100 double
0 0.00060613173896 0.0023965170498 0.0052924820019 0.009178838422 0.01392183602 0.019384837265 0.025436957104 0.0319530211 
0.038806636584 0.045860352057 0.052957060204 0.059915600894 0.066532244569 0.072589020145 0.077869170737 0.082178544885 0.085369519102 
0.087362322063 0.088158762596 0.087845493022 0.086586794297 0.084609320122 0.082184116189 0.079617842928 0.077272107172 0.075494491381 
0.074312225816 0.073642086264 0.073458784159 0.073770613606 0.074587689982 0.075899936451 0.077676837473 0.079877267034 0.082428593763 
0.08522028345 0.088138477576 0.091085866673 0.093984728546 0.096777490638 0.099426873165 0.10191691978 0.10425771641 0.10649608538 
0.10873763538 0.11114442751 0.11388264569 0.11709838427 0.12091628883 0.12541032688 0.13058175352 0.13634976999 0.14255351773 
0.14896765098 0.15532983902 0.1613736666 0.16686141503 0.17161350898 0.17552900022 0.17858988758 0.18084836569 0.18240392264 
0.18337842583 0.183894306 0.1840582298 0.18394963541 0.18361139032 0.18304211416 0.1821936244 0.18097731522 0.1792799994 
0.17698560942 0.17399639747 0.17024769517 0.16571404059 0.16040809023 0.15437412063 0.14767767258 0.14039462222 0.1326036669 
0.12438367365 0.11581416064 0.10697600134 0.097950199222 0.088814532904 0.079640358811 0.070493253616 0.061439571389 0.052556918023 
0.043943440067 0.03572119172 0.028031749572 0.02102544768 0.014847798065 0.0096273100148 0.005467830736 0.0024462145682 0.00061389917017 
2.9517377728e-17 
