# vtk DataFile Version 5.1
vtk output
ASCII
DATASET POLYDATA
POINTS 100 float
0.142174 0.0537704 -0.642397 0.142364 0.0543747 -0.64251 0.143022 0.0559431 -0.642879 
0.144083 0.0583527 -0.64341 0.145446 0.0614086 -0.643954 0.146977 0.0648589 -0.644326 
0.148525 0.0684151 -0.644324 0.149931 0.0717732 -0.643754 0.151038 0.0746367 -0.642445 
0.151706 0.0767378 -0.640269 0.151816 0.0778549 -0.637149 0.151277 0.0778264 -0.633065 
0.150027 0.0765583 -0.628053 0.148034 0.0740265 -0.622189 0.145292 0.0702733 -0.615581 
0.141815 0.0653987 -0.608347 0.13763 0.0595485 -0.600601 0.132776 0.0528997 -0.592432 
0.127292 0.0456453 -0.583895 0.121218 0.0379797 -0.575002 0.114588 0.0300861 -0.565719 
0.107436 0.0221267 -0.555973 0.099789 0.0142372 -0.545658 0.0916756 0.00652354 -0.534651 
0.0831247 -0.000936351 -0.522826 0.0741688 -0.00808909 -0.510066 0.0648464 -0.0149 -0.496281 
0.0552022 -0.0213464 -0.481412 0.045287 -0.027411 -0.465436 0.035157 -0.0330761 -0.44837 
0.0248712 -0.0383196 -0.430261 0.0144897 -0.0431128 -0.41118 0.00407143 -0.0474206 -0.391211 
-0.0063269 -0.0512031 -0.370441 -0.0166512 -0.0544193 -0.348952 -0.026849 -0.0570314 -0.32681 
-0.0368673 -0.0590093 -0.304065 -0.0466494 -0.0603346 -0.280747 -0.0561318 -0.0610043 -0.256875 
-0.0652409 -0.0610315 -0.232461 -0.0738908 -0.0604467 -0.207515 -0.0819829 -0.0592957 -0.182059 
-0.0894069 -0.057637 -0.156129 -0.0960443 -0.0555381 -0.129786 -0.101774 -0.0530718 -0.103111 
-0.106479 -0.0503113 -0.0762122 -0.110054 -0.0473275 -0.0492131 -0.112416 -0.0441855 -0.0222516 
-0.113507 -0.0409434 0.00453022 -0.113305 -0.0376517 0.0309942 -0.111821 -0.0343536 0.0570135 
-0.109104 -0.0310865 0.0824781 -0.105236 -0.0278837 0.107298 -0.100326 -0.0247758 0.131406 
-0.0945038 -0.0217923 0.15475 -0.087909 -0.0189626 0.177299 -0.0806834 -0.0163157 0.19903 
-0.0729611 -0.0138793 0.219929 -0.0648623 -0.0116787 0.239985 -0.056488 -0.00973436 0.259192 
-0.0479188 -0.00805984 0.277543 -0.0392153 -0.00665978 0.295043 -0.0304213 -0.00552846 0.311701 
-0.0215692 -0.00464919 0.327546 -0.0126853 -0.00399478 0.342623 -0.00379585 -0.00352907 0.357001 
0.00506826 -0.00320963 0.37077 0.0138686 -0.00299109 0.384043 0.0225584 -0.00282905 0.396944 
0.0310838 -0.00268405 0.409603 0.0393875 -0.00252505 0.422142 0.0474138 -0.00233227 0.434668 
0.0551138 -0.00209871 0.447254 0.0624513 -0.00183052 0.459934 0.0694065 -0.00154585 0.472695 
0.0759788 -0.00127243 0.48548 0.0821863 -0.00104415 0.498184 0.0880638 -0.000896879 0.51067 
0.0936579 -0.000864106 0.522778 0.0990204 -0.000972819 0.534342 0.104201 -0.00124006 0.545206 
0.109242 -0.00167058 0.55524 0.114168 -0.0022558 0.564354 0.118986 -0.00297423 0.572506 
0.123683 -0.00379326 0.579703 0.128224 -0.00467216 0.586002 0.132562 -0.00556588 0.591498 
0.136637 -0.00642936 0.596316 0.140389 -0.00722172 0.600587 0.143762 -0.00790997 0.604443 
0.146715 -0.00847191 0.607991 0.149223 -0.00889766 0.611309 0.151283 -0.00919003 0.614434 
0.152913 -0.00936336 0.617364 0.154151 -0.00944126 0.620059 0.155046 -0.0094533 0.62245 
0.155655 -0.00943124 0.624453 0.156032 -0.00940497 0.625983 0.156225 -0.00939893 0.626966 
0.156262 -0.00942911 0.62735 
LINES 2 100
OFFSETS vtktypeint64
0 100 
CONNECTIVITY vtktypeint64
0 1 2 3 4 5 6 7 8 
9 10 11 12 13 14 15 16 17 
18 19 20 21 22 23 24 25 26 
27 28 29 30 31 32 33 34 35 
36 37 38 39 40 41 42 43 44 
45 46 47 48 49 50 51 52 53 
54 55 56 57 58 59 60 61 62 
63 64 65 66 67 68 69 70 71 
72 73 74 75 76 77 78 79 80 
81 82 83 84 85 86 87 88 89 
90 91 92 93 94 95 96 97 98 
99 
POINT_DATA 100
FIELD FieldData 3
_theta 1 100 double
0 0.031733259127 0.063466518254 0.095199777382 0.12693303651 0.15866629564 0.19039955476 0.22213281389 0.25386607302 
0.28559933214 0.31733259127 0.3490658504 0.38079910953 0.41253236865 0.44426562778 0.47599888691 0.50773214603 0.53946540516 
0.57119866429 0.60293192342 0.63466518254 0.66639844167 0.6981317008 0.72986495992 0.76159821905 0.79333147818 0.82506473731 
0.85679799643 0.88853125556 0.92026451469 0.95199777382 0.98373103294 1.0154642921 1.0471975512 1.0789308103 1.1106640695 
1.1423973286 1.1741305877 1.2058638468 1.237597106 1.2693303651 1.3010636242 1.3327968833 1.3645301425 1.3962634016 
1.4279966607 1.4597299198 1.491463179 1.5231964381 1.5549296972 1.5866629564 1.6183962155 1.6501294746 1.6818627337 
1.7135959929 1.745329252 1.7770625111 1.8087957702 1.8405290294 1.8722622885 1.9039955476 1.9357288068 1.9674620659 
1.999195325 2.0309285841 2.0626618433 2.0943951024 2.1261283615 2.1578616206 2.1895948798 2.2213281389 2.253061398 
2.2847946572 2.3165279163 2.3482611754 2.3799944345 2.4117276937 2.4434609528 2.4751942119 2.506927471 2.5386607302 
2.5703939893 2.6021272484 2.6338605076 2.6655937667 2.6973270258 2.7290602849 2.7607935441 2.7925268032 2.8242600623 
2.8559933214 2.8877265806 2.9194598397 2.9511930988 2.982926358 3.0146596171 3.0463928762 3.0781261353 3.1098593945 
3.1415926536 
_radius 1 100 double
1.3490930085e-15 0.014521540616 0.028913392812 0.043052351683 0.056831090465 0.070162738583 0.082981942643 0.09524234258 0.10691125546 
0.11796298585 0.12837232447 0.13810947052 0.14713705388 0.15540941491 0.16287398606 0.16947455122 0.17515624688 0.17987219364 
0.1835913503 0.18630657911 0.18804140323 0.18885393109 0.18883691114 0.18811357099 0.18682958229 0.18514216224 0.18320797396 
0.18117193295 0.17915889849 0.17726930282 0.17557833653 0.17413707609 0.17297349275 0.17209179653 0.17147001863 0.17105787254 
0.17077865945 0.17053842574 0.17024217147 0.16981304648 0.16920922506 0.16843477175 0.1675432297 0.16663430882 0.16584476127 
0.16533473426 0.16527094801 0.16580818649 0.16707093214 0.16913743173 0.17202868469 0.17570434498 0.18006619423 0.18496816474 
0.19023068993 0.1956569122 0.20104876912 0.20622164971 0.2110167884 0.21531080912 0.21902197585 0.22211285021 0.22458923185 
0.22649545975 0.22790637942 0.22891653977 0.22962747073 0.23013418981 0.2305123541 0.23080764873 0.23102896101 0.23114647427 
0.23109495616 0.23078141186 0.23009537774 0.22891985632 0.22714128188 0.22465763662 0.22138451306 0.21725932048 0.21224394009 
0.20632603337 0.19951900257 0.19186039712 0.18340845646 0.17423657583 0.16442583753 0.15405633916 0.14319871511 0.13190768221 
0.12021930197 0.1081527814 0.095716292536 0.082915096402 0.069759777387 0.056272741237 0.042491956923 0.028471763447 0.014281129397 
9.6199893643e-16 
_area 1 100 double
0 0.00048196191677 0.0019419636511 0.0044164564617 0.0079475820406 0.012559168228 0.018231416818 0.024881538792 0.032354965343 
0.040428406372 0.048824732424 0.057238060424 0.0653646519 0.072933236545 0.079728102264 0.085599547942 0.090459060262 0.09426262668 
0.096990902506 0.098616151542 0.099157432132 0.098690451918 0.09733380694 0.095229637046 0.092565839232 0.089627558468 0.086731504059 
0.0841457421 0.082024555444 0.080393144776 0.079190796989 0.078329464847 0.077731325812 0.077346104797 0.077157708351 0.077177552072 
0.077408439674 0.077789926431 0.078203697029 0.078537187459 0.078729121986 0.078785291597 0.078772307871 0.078793256844 0.078958101454 
0.079366920858 0.080113467295 0.081300409836 0.083050574261 0.085501836422 0.088781629151 0.092966986255 0.098044618144 0.10388851233 
0.11026789425 0.11688476278 0.12342476795 0.1296032263 0.13519732157 0.14006283506 0.14413593732 0.14742036885 0.1499600779 
0.15180168462 0.15296509494 0.15344711872 0.15325424008 0.15243181803 0.15107023515 0.14929165958 0.147227133 0.1449910844 
0.14265766668 0.14024177799 0.13768827037 0.13487714377 0.13165265672 0.12786766727 0.12341802617 0.11825275469 0.11236769065 
0.10579671412 0.098607783933 0.090902849375 0.082816833508 0.074511253346 0.066160926651 0.057935810377 0.049982792484 0.042413177481 
0.035300224168 0.028687718011 0.022606407859 0.017092086287 0.012198713856 0.0080023906804 0.004595666545 0.0020747607862 0.00052376920816 
4.1199682554e-18 
