# vtk DataFile Version 5.1
vtk output
ASCII
DATASET POLYDATA
POINTS 100 float
0.0810631 0.0650994 -0.703109 0.0811766 0.0648993 -0.702955 0.0815049 0.0640814 -0.702469 
0.0820307 0.0626843 -0.701576 0.0827257 0.0607698 -0.700162 0.0835509 0.0584177 -0.698089 
0.0844573 0.0557182 -0.695215 0.0853859 0.052765 -0.691409 0.0862686 0.0496465 -0.686574 
0.0870287 0.0464388 -0.680654 0.0875816 0.043199 -0.673644 0.0878364 0.039961 -0.66559 
0.0876974 0.0367331 -0.656585 0.0870668 0.0334987 -0.646752 0.085848 0.0302191 -0.636234 
0.0839499 0.0268397 -0.62517 0.0812917 0.0232967 -0.613681 0.0778088 0.0195266 -0.601855 
0.0734576 0.0154755 -0.589736 0.0682215 0.0111075 -0.577317 0.0621144 0.0064128 -0.564548 
0.0551833 0.00141227 -0.55134 0.0475091 -0.00383989 -0.537578 0.0392038 -0.00925732 -0.523142 
0.0304062 -0.0147258 -0.507917 0.0212747 -0.0201108 -0.491816 0.0119774 -0.0252668 -0.474784 
0.00268213 -0.0300491 -0.456812 -0.00645526 -0.0343253 -0.437937 -0.0153009 -0.0379859 -0.418235 
-0.0237515 -0.0409533 -0.397812 -0.0317407 -0.0431877 -0.376794 -0.0392408 -0.04469 -0.35531 
-0.0462614 -0.0454995 -0.333475 -0.0528441 -0.0456896 -0.311385 -0.0590531 -0.0453591 -0.289099 
-0.0649637 -0.0446216 -0.266645 -0.0706493 -0.0435941 -0.244015 -0.0761681 -0.0423854 -0.221174 
-0.0815513 -0.0410862 -0.198068 -0.0867943 -0.0397616 -0.174639 -0.0918516 -0.0384473 -0.150837 
-0.0966364 -0.0371492 -0.126627 -0.101025 -0.0358467 -0.102003 -0.104864 -0.0344998 -0.07699 
-0.107985 -0.033058 -0.0516426 -0.110218 -0.0314705 -0.0260439 -0.111408 -0.0296966 -0.00029681 
-0.111427 -0.0277142 0.0254851 -0.11019 -0.0255265 0.0511875 -0.107659 -0.0231645 0.0767044 
-0.103853 -0.0206868 0.101945 -0.0988443 -0.0181751 0.12684 -0.0927511 -0.0157271 0.151339 
-0.085731 -0.0134467 0.175409 -0.0779671 -0.0114338 0.199033 -0.0696534 -0.00977417 0.222201 
-0.0609812 -0.00853057 0.2449 -0.0521252 -0.00773689 0.267117 -0.0432339 -0.00739534 0.288828 
-0.0344221 -0.00747731 0.310001 -0.0257685 -0.00792771 0.330595 -0.017316 -0.00867208 0.35057 
-0.00907688 -0.00962577 0.369886 -0.00103925 -0.0107037 0.388517 0.00682407 -0.01183 0.406452 
0.0145468 -0.0129456 0.423704 0.0221611 -0.0140134 0.440305 0.0296912 -0.0150208 0.456311 
0.0371491 -0.0159782 0.471793 0.0445333 -0.0169147 0.486827 0.0518297 -0.0178716 0.501488 
0.0590143 -0.0188944 0.515837 0.0660575 -0.0200237 0.529911 0.072929 -0.021288 0.543719 
0.0796018 -0.0226973 0.557233 0.0860557 -0.0242399 0.570396 0.0922793 -0.0258814 0.583124 
0.0982696 -0.0275674 0.595313 0.104031 -0.0292284 0.606857 0.109572 -0.030787 0.617659 
0.114902 -0.0321654 0.62764 0.120026 -0.0332938 0.636759 0.124945 -0.0341173 0.645009 
0.129649 -0.0346016 0.652426 0.134122 -0.0347354 0.659084 0.138339 -0.0345312 0.665085 
0.142268 -0.0340234 0.670547 0.145878 -0.0332638 0.675591 0.149139 -0.0323162 0.680324 
0.152028 -0.0312503 0.684826 0.154532 -0.0301358 0.68914 0.156648 -0.0290368 0.693266 
0.158388 -0.0280084 0.697162 0.159773 -0.0270943 0.700751 0.160832 -0.026327 0.703926 
0.161599 -0.025728 0.706571 0.162105 -0.0253106 0.708574 0.162378 -0.0250819 0.709841 
0.162436 -0.0250451 0.710308 
LINES 2 100
OFFSETS vtktypeint64
0 100 
CONNECTIVITY vtktypeint64
0 1 2 3 4 5 6 7 8 
9 10 11 12 13 14 15 16 17 
18 19 20 21 22 23 24 25 26 
27 28 29 30 31 32 33 34 35 
36 37 38 39 40 41 42 43 44 
45 46 47 48 49 50 51 52 53 
54 55 56 57 58 59 60 61 62 
63 64 65 66 67 68 69 70 71 
72 73 74 75 76 77 78 79 80 
81 82 83 84 85 86 87 88 89 
90 91 92 93 94 95 96 97 98 
99 
POINT_DATA 100
FIELD FieldData 3
_theta 1 100 double
0 0.031733259127 0.063466518254 0.095199777382 0.12693303651 0.15866629564 0.19039955476 0.22213281389 0.25386607302 
0.28559933214 0.31733259127 0.3490658504 0.38079910953 0.41253236865 0.44426562778 0.47599888691 0.50773214603 0.53946540516 
0.57119866429 0.60293192342 0.63466518254 0.66639844167 0.6981317008 0.72986495992 0.76159821905 0.79333147818 0.82506473731 
0.85679799643 0.88853125556 0.92026451469 0.95199777382 0.98373103294 1.0154642921 1.0471975512 1.0789308103 1.1106640695 
1.1423973286 1.1741305877 1.2058638468 1.237597106 1.2693303651 1.3010636242 1.3327968833 1.3645301425 1.3962634016 
1.4279966607 1.4597299198 1.491463179 1.5231964381 1.5549296972 1.5866629564 1.6183962155 1.6501294746 1.6818627337 
1.7135959929 1.745329252 1.7770625111 1.8087957702 1.8405290294 1.8722622885 1.9039955476 1.9357288068 1.9674620659 
1.999195325 2.0309285841 2.0626618433 2.0943951024 2.1261283615 2.1578616206 2.1895948798 2.2213281389 2.253061398 
2.2847946572 2.3165279163 2.3482611754 2.3799944345 2.4117276937 2.4434609528 2.4751942119 2.506927471 2.5386607302 
2.5703939893 2.6021272484 2.6338605076 2.6655937667 2.6973270258 2.7290602849 2.7607935441 2.7925268032 2.8242600623 
2.8559933214 2.8877265806 2.9194598397 2.9511930988 2.982926358 3.0146596171 3.0463928762 3.0781261353 3.1098593945 
3.1415926536 
_radius 1 100 double
1.8949660634e-15 0.015288178106 0.030408427701 0.045206079425 0.059559579054 0.073389148429 0.086657585259 0.099363409562 0.11152817009 
0.12318081509 0.13434234124 0.14501348275 0.15516726403 0.16474717138 0.1736707699 0.18183791397 0.18914227304 0.19548466994 
0.20078665028 0.2050027293 0.20812987854 0.21021303302 0.21134574686 0.21166562881 0.21134483319 0.21057658077 0.20955927597 
0.20848010265 0.2074999512 0.20674123466 0.20627973701 0.20614119474 0.20630285267 0.20669975104 0.20723502907 0.20779313338 
0.20825454905 0.20851054847 0.20847647986 0.20810227912 0.20737916066 0.20634179911 0.20506576088 0.20366052653 0.20225915713 
0.20100627239 0.20004605755 0.1995112406 0.1995129025 0.20013062651 0.20140330529 0.20332225007 0.20582897754 0.20881953204 
0.2121555898 0.21568065398 0.21923827001 0.22268886989 0.22592252538 0.22886611215 0.23148467978 0.2337778499 0.23577266403 
0.2375144451 0.23905700347 0.24045308501 0.2417455594 0.24295970498 0.24409715182 0.24513240393 0.24601288222 0.24666271819 
0.24698937157 0.24689139757 0.24626584479 0.24501447754 0.24304864906 0.24029292284 0.23668755085 0.23218988366 0.22677482682 
0.22043456056 0.21317781249 0.20502892989 0.19602682111 0.18622359082 0.17568249428 0.16447480879 0.15267547401 0.14035791707 
0.12758917556 0.11442680313 0.10091860639 0.087105078875 0.07302325575 0.058710398086 0.044206446313 0.02955498244 0.014803004049 
5.8720867849e-16 
_area 1 100 double
0 0.00067303487445 0.002648234811 0.005804292989 0.0099702433619 0.014961315535 0.020611115176 0.026789954464 0.033404892592 
0.040384982313 0.047660672097 0.055145449011 0.062723071229 0.070240803761 0.077509442048 0.084311803696 0.090420341537 0.09562168567 
0.099743092593 0.10267484018 0.10438417268 0.10491944277 0.10440575875 0.10303446601 0.10104826462 0.098722728568 0.096344400368 
0.094185335813 0.092473806829 0.091366187746 0.090936221376 0.091185823683 0.092061494216 0.093483033563 0.095342582043 0.09745079491 
0.09961021789 0.10167581244 0.10349617158 0.10490787468 0.10586366646 0.10639454007 0.1065984529 0.10661860057 0.10661749138 
0.10675426057 0.10717115439 0.10799237633 0.10932952578 0.11128196401 0.11392604898 0.11729556188 0.12136109337 0.12601850575 
0.13109259676 0.1363553839 0.1415558732 0.1464576614 0.15087806354 0.15471842882 0.15797285485 0.16070584341 0.16300625273 
0.16494855098 0.16658499986 0.16795645814 0.16909877535 0.17003656738 0.17076954994 0.17126160036 0.1714388601 0.17119573887 
0.1704048375 0.16892924818 0.16663765975 0.16342089796 0.15920598535 0.15396435251 0.14771349155 0.14051307048 0.13245714342 
0.12366500957 0.11427381287 0.1044346794 0.094311749738 0.084081620958 0.073930068126 0.064043375681 0.054593674114 0.045721674738 
0.037524370896 0.030055557953 0.023340497893 0.017396724751 0.012249897809 0.0079390877974 0.0045130005408 0.002021709824 0.00050790880382 
5.3989981974e-17 
