# vtk DataFile Version 5.1
vtk output
ASCII
DATASET POLYDATA
POINTS 100 float
0.123931 0.110877 -0.700947 0.123748 0.110731 -0.700373 0.123185 0.110022 -0.698628 
0.122269 0.108738 -0.695776 0.121047 0.106863 -0.69192 0.119574 0.104379 -0.687189 
0.117915 0.101275 -0.68173 0.11613 0.097549 -0.675692 0.114276 0.0932113 -0.669211 
0.112394 0.088288 -0.662403 0.110508 0.0828218 -0.655353 0.108619 0.0768706 -0.648108 
0.106705 0.0705046 -0.640679 0.104719 0.0638019 -0.633037 0.102592 0.0568437 -0.625125 
0.10024 0.0497085 -0.616862 0.0975655 0.0424672 -0.608154 0.0944685 0.0351805 -0.598904 
0.0908524 0.0278964 -0.589019 0.086633 0.0206509 -0.578423 0.0817453 0.0134703 -0.567058 
0.0761491 0.00637511 -0.554888 0.0698334 -0.000614991 -0.541902 0.0628176 -0.00747581 -0.52811 
0.0551512 -0.014174 -0.513536 0.0469103 -0.0206639 -0.49822 0.0381929 -0.0268856 -0.482205 
0.0291113 -0.0327666 -0.465537 0.0197852 -0.0382246 -0.448255 0.0103334 -0.0431727 -0.430394 
0.000866486 -0.0475269 -0.411977 -0.00851894 -0.0512135 -0.393019 -0.0177445 -0.0541761 -0.373526 
-0.0267517 -0.0563825 -0.353496 -0.0355011 -0.0578286 -0.332925 -0.0439693 -0.0585405 -0.311807 
-0.0521438 -0.0585727 -0.290139 -0.0600164 -0.058005 -0.267922 -0.0675761 -0.0569355 -0.245162 
-0.0748022 -0.0554726 -0.221874 -0.0816585 -0.0537261 -0.198083 -0.0880892 -0.0517984 -0.173819 
-0.0940172 -0.0497763 -0.149124 -0.0993455 -0.0477257 -0.124048 -0.103961 -0.045688 -0.098649 
-0.107741 -0.0436798 -0.0729951 -0.110561 -0.041695 -0.0471612 -0.112307 -0.0397096 -0.0212305 
-0.112881 -0.037688 0.00470756 -0.112214 -0.0355905 0.030558 -0.110272 -0.0333805 0.0562229 
-0.107061 -0.0310311 0.0816037 -0.102631 -0.0285306 0.106605 -0.0970711 -0.0258852 0.131136 
-0.0905083 -0.0231199 0.155119 -0.0830983 -0.0202779 0.178487 -0.0750162 -0.0174167 0.201188 
-0.066445 -0.0146042 0.223189 -0.0575648 -0.0119137 0.244475 -0.0485413 -0.00941765 0.265047 
-0.0395169 -0.00718374 0.284921 -0.030604 -0.00527015 0.304125 -0.0218814 -0.00372287 0.322696 
-0.0133937 -0.00257393 0.340673 -0.00515437 -0.00184082 0.358097 0.0028491 -0.00152686 0.375007 
0.0106472 -0.00162221 0.391436 0.0182795 -0.00210518 0.407412 0.0257858 -0.00294372 0.422957 
0.033197 -0.00409668 0.43809 0.0405286 -0.00551507 0.452828 0.0477761 -0.00714313 0.467186 
0.0549124 -0.0089195 0.481181 0.0618891 -0.0107786 0.494832 0.0686399 -0.0126526 0.508159 
0.0750862 -0.0144737 0.521184 0.0811445 -0.0161773 0.533923 0.0867343 -0.0177055 0.546385 
0.0917864 -0.0190107 0.55857 0.0962496 -0.0200597 0.570461 0.100096 -0.0208364 0.582021 
0.103325 -0.0213438 0.593195 0.105963 -0.0216047 0.603908 0.10806 -0.0216605 0.614068 
0.109688 -0.0215679 0.623573 0.110935 -0.0213946 0.632318 0.111893 -0.0212125 0.640204 
0.112657 -0.0210916 0.647151 0.113311 -0.021092 0.653101 0.113925 -0.0212587 0.658031 
0.114549 -0.0216156 0.661958 0.115211 -0.0221635 0.664936 0.115918 -0.0228791 0.667061 
0.116655 -0.0237178 0.668457 0.117389 -0.0246179 0.669274 0.118079 -0.0255074 0.669671 
0.118676 -0.0263118 0.669802 0.119136 -0.0269624 0.669808 0.11942 -0.027404 0.669797 
0.119504 -0.0276009 0.669838 
LINES 2 100
OFFSETS vtktypeint64
0 100 
CONNECTIVITY vtktypeint64
0 1 2 3 4 5 6 7 8 
9 10 11 12 13 14 15 16 17 
18 19 20 21 22 23 24 25 26 
27 28 29 30 31 32 33 34 35 
36 37 38 39 40 41 42 43 44 
45 46 47 48 49 50 51 52 53 
54 55 56 57 58 59 60 61 62 
63 64 65 66 67 68 69 70 71 
72 73 74 75 76 77 78 79 80 
81 82 83 84 85 86 87 88 89 
90 91 92 93 94 95 96 97 98 
99 
POINT_DATA 100
FIELD FieldData 3
_theta 1 100 double
0 0.031733259127 0.063466518254 0.095199777382 0.12693303651 0.15866629564 0.19039955476 0.22213281389 0.25386607302 
0.28559933214 0.31733259127 0.3490658504 0.38079910953 0.41253236865 0.44426562778 0.47599888691 0.50773214603 0.53946540516 
0.57119866429 0.60293192342 0.63466518254 0.66639844167 0.6981317008 0.72986495992 0.76159821905 0.79333147818 0.82506473731 
0.85679799643 0.88853125556 0.92026451469 0.95199777382 0.98373103294 1.0154642921 1.0471975512 1.0789308103 1.1106640695 
1.1423973286 1.1741305877 1.2058638468 1.237597106 1.2693303651 1.3010636242 1.3327968833 1.3645301425 1.3962634016 
1.4279966607 1.4597299198 1.491463179 1.5231964381 1.5549296972 1.5866629564 1.6183962155 1.6501294746 1.6818627337 
1.7135959929 1.745329252 1.7770625111 1.8087957702 1.8405290294 1.8722622885 1.9039955476 1.9357288068 1.9674620659 
1.999195325 2.0309285841 2.0626618433 2.0943951024 2.1261283615 2.1578616206 2.1895948798 2.2213281389 2.253061398 
2.2847946572 2.3165279163 2.3482611754 2.3799944345 2.4117276937 2.4434609528 2.4751942119 2.506927471 2.5386607302 
2.5703939893 2.6021272484 2.6338605076 2.6655937667 2.6973270258 2.7290602849 2.7607935441 2.7925268032 2.8242600623 
2.8559933214 2.8877265806 2.9194598397 2.9511930988 2.982926358 3.0146596171 3.0463928762 3.0781261353 3.1098593945 
3.1415926536 
_radius 1 100 double
4.8710837516e-16 0.013759030227 0.027423355895 0.040893663007 0.054084663476 0.066929622383 0.079381831499 0.091412823982 0.10300757069 
0.11415740295 0.12485192784 0.13507154603 0.14478216023 0.15393326691 0.16246000551 0.17028906017 0.17734764096 0.183574154 
0.18892870473 0.19340144561 0.19701712872 0.19983504015 0.20194453835 0.20345731567 0.2044979299 0.20519401764 0.20566709748 
0.20602434683 0.20635147566 0.20670689288 0.20711763611 0.20757780997 0.20805037735 0.20847295246 0.20876767567 0.20885430392 
0.20866452102 0.20815465815 0.20731412703 0.20616811486 0.20477493682 0.20321989405 0.2016078241 0.20005586982 0.19868707513 
0.19762483577 0.19698796166 0.19688585141 0.1974130432 0.19864252824 0.2006179122 0.20334555441 0.20678864624 0.2108653015 
0.21545197669 0.22039220442 0.22550928218 0.23062073815 0.23555229464 0.24014950781 0.24428597727 0.24786775534 0.25083422272 
0.25315616042 0.25483196213 0.25588284592 0.25634757517 0.2562767523 0.25572647555 0.25475132534 0.2533973628 0.25169671793 
0.2496655297 0.2473057327 0.24460906231 0.24156052181 0.23813947233 0.23431851241 0.23006174593 0.22532417842 0.22005320397 
0.21419217184 0.20768534118 0.2004832599 0.19254763664 0.18385497258 0.17439849432 0.1641882422 0.15324950606 0.14162012732 
0.12934741214 0.11648540141 0.10309295823 0.089232661578 0.074970089652 0.060372979646 0.045510012913 0.030449407555 0.015257813897 
1.3055637915e-15 
_area 1 100 double
0 0.00059319097375 0.0023511642768 0.0052122256641 0.0090826201922 0.013846596733 0.019375950728 0.025538091081 0.032202581888 
0.039245043468 0.046545799388 0.053982254956 0.061418336696 0.068696034046 0.075632201564 0.082022701282 0.087656212772 0.092338412252 
0.095922809649 0.098339862223 0.099614441514 0.0998649321 0.099283935575 0.098107257745 0.096580802394 0.0949331485 0.093358456258 
0.092012647752 0.091038350399 0.090584904053 0.090538414467 0.090887932174 0.09163862234 0.09276138322 0.094170832996 0.095751123165 
0.097404607001 0.099011063125 0.10043943445 0.10163415043 0.10259701822 0.10337400274 0.10404069944 0.10468632945 0.10540112008 
0.10627213835 0.10738768636 0.10884427488 0.11074940535 0.11321759677 0.11636100805 0.12027417222 0.12501175334 0.1305629181 
0.13683326724 0.14364535952 0.15075807804 0.15789558606 0.16477678443 0.17114038393 0.17676336844 0.18147195398 0.18514549324 
0.18771530306 0.18916151075 0.18951084387 0.18883596128 0.18725258844 0.18490742984 0.18195364011 0.17852254526 0.17470704329 
0.17056285937 0.1661208851 0.16140039033 0.15641603221 0.15117660766 0.14567858498 0.13990027186 0.13380168283 0.12733171804 
0.12044060708 0.11309377303 0.1052835963 0.097036904352 0.088417297072 0.079522293537 0.070476012985 0.061419006856 0.052497850884 
0.04385749112 0.035638202775 0.027976358779 0.021005762262 0.014856255815 0.009648717226 0.0054882174152 0.0024581555121 0.00061732913197 
7.8873996724e-17 
