# vtk DataFile Version 5.1
vtk output
ASCII
DATASET POLYDATA
POINTS 100 float
0.0859636 0.0194549 -0.586467 0.0860323 0.019411 -0.586532 0.0862306 0.0190841 -0.586656 
0.0865295 0.0184815 -0.586753 0.086883 0.0176154 -0.586693 0.0872323 0.0165019 -0.586313 
0.0875102 0.0151595 -0.585437 0.0876449 0.0136075 -0.583895 0.087565 0.0118649 -0.581533 
0.0872023 0.00994825 -0.578237 0.0864947 0.00787084 -0.573936 0.0853869 0.00564177 -0.568605 
0.0838307 0.00326558 -0.562267 0.0817848 0.000742423 -0.554984 0.0792133 -0.00193107 -0.546841 
0.0760855 -0.00476045 -0.537941 0.0723754 -0.00775154 -0.528381 0.0680624 -0.0109082 -0.518245 
0.0631331 -0.0142298 -0.507593 0.0575834 -0.0177089 -0.496454 0.0514215 -0.021329 -0.484825 
0.0446709 -0.0250629 -0.472678 0.0373725 -0.0288715 -0.459964 0.0295857 -0.0327039 -0.446626 
0.0213876 -0.036498 -0.432608 0.0128708 -0.0401827 -0.417869 0.00413825 -0.0436799 -0.402391 
-0.00470243 -0.046909 -0.386178 -0.0135463 -0.0497901 -0.369268 -0.0222985 -0.0522488 -0.351716 
-0.0308805 -0.0542205 -0.3336 -0.039235 -0.055654 -0.315 -0.0473284 -0.0565149 -0.295994 
-0.055149 -0.0567872 -0.276643 -0.0627036 -0.056475 -0.256989 -0.0700099 -0.0556015 -0.237043 
-0.0770874 -0.0542076 -0.216787 -0.0839462 -0.0523491 -0.196181 -0.0905775 -0.0500929 -0.175167 
-0.0969445 -0.0475131 -0.15368 -0.102976 -0.0446861 -0.131665 -0.108568 -0.0416866 -0.109086 
-0.113579 -0.0385834 -0.0859375 -0.117849 -0.0354368 -0.0622558 -0.1212 -0.0322964 -0.0381183 
-0.123459 -0.0292002 -0.0136453 -0.124469 -0.0261754 0.0110076 -0.124109 -0.023239 0.035659 
-0.122308 -0.0204009 0.0601156 -0.11905 -0.017666 0.0841871 -0.114388 -0.0150373 0.107701 
-0.108436 -0.0125187 0.130514 -0.101364 -0.0101176 0.152524 -0.0933877 -0.00784615 0.173676 
-0.0847503 -0.00572214 0.193957 -0.0757034 -0.00376877 0.213399 -0.0664872 -0.00201345 0.232067 
-0.0573126 -0.000485786 0.25005 -0.0483456 0.000784959 0.267445 -0.039698 0.00177277 0.284353 
-0.0314227 0.00245774 0.300859 -0.0235159 0.00282868 0.31703 -0.0159252 0.00288504 0.33291 
-0.00856152 0.00263816 0.348517 -0.00131522 0.00211153 0.363846 0.0059274 0.00134 0.378876 
0.0132678 0.000368241 0.393575 0.0207815 -0.000751746 0.407908 0.0285084 -0.00196361 0.421845 
0.0364475 -0.00320996 0.435367 0.0445571 -0.00443578 0.448468 0.0527598 -0.00559155 0.461157 
0.0609509 -0.00663592 0.473458 0.0690102 -0.00753776 0.485401 0.076814 -0.00827741 0.497023 
0.0842473 -0.00884703 0.508358 0.0912141 -0.00925021 0.519433 0.0976448 -0.00950077 0.530261 
0.1035 -0.00962097 0.54084 0.108769 -0.00963931 0.551153 0.11347 -0.00958803 0.561164 
0.117642 -0.00950062 0.570826 0.121337 -0.00940943 0.580084 0.124615 -0.00934361 0.588878 
0.127534 -0.00932739 0.597153 0.130144 -0.00937889 0.604859 0.132488 -0.00950945 0.611957 
0.134594 -0.0097234 0.618424 0.136481 -0.0100183 0.624249 0.138158 -0.0103858 0.629436 
0.139628 -0.0108121 0.634002 0.140895 -0.0112798 0.637973 0.141961 -0.0117687 0.64138 
0.142834 -0.0122572 0.644257 0.143526 -0.0127237 0.646641 0.144054 -0.013148 0.648561 
0.144435 -0.0135118 0.650046 0.144688 -0.0138003 0.651116 0.14483 -0.0140023 0.651785 
0.14487 -0.0141113 0.652063 
LINES 2 100
OFFSETS vtktypeint64
0 100 
CONNECTIVITY vtktypeint64
0 1 2 3 4 5 6 7 8 
9 10 11 12 13 14 15 16 17 
18 19 20 21 22 23 24 25 26 
27 28 29 30 31 32 33 34 35 
36 37 38 39 40 41 42 43 44 
45 46 47 48 49 50 51 52 53 
54 55 56 57 58 59 60 61 62 
63 64 65 66 67 68 69 70 71 
72 73 74 75 76 77 78 79 80 
81 82 83 84 85 86 87 88 89 
90 91 92 93 94 95 96 97 98 
99 
POINT_DATA 100
FIELD FieldData 3
_theta 1 100 double
0 0.031733259127 0.063466518254 0.095199777382 0.12693303651 0.15866629564 0.19039955476 0.22213281389 0.25386607302 
0.28559933214 0.31733259127 0.3490658504 0.38079910953 0.41253236865 0.44426562778 0.47599888691 0.50773214603 0.53946540516 
0.57119866429 0.60293192342 0.63466518254 0.66639844167 0.6981317008 0.72986495992 0.76159821905 0.79333147818 0.82506473731 
0.85679799643 0.88853125556 0.92026451469 0.95199777382 0.98373103294 1.0154642921 1.0471975512 1.0789308103 1.1106640695 
1.1423973286 1.1741305877 1.2058638468 1.237597106 1.2693303651 1.3010636242 1.3327968833 1.3645301425 1.3962634016 
1.4279966607 1.4597299198 1.491463179 1.5231964381 1.5549296972 1.5866629564 1.6183962155 1.6501294746 1.6818627337 
1.7135959929 1.745329252 1.7770625111 1.8087957702 1.8405290294 1.8722622885 1.9039955476 1.9357288068 1.9674620659 
1.999195325 2.0309285841 2.0626618433 2.0943951024 2.1261283615 2.1578616206 2.1895948798 2.2213281389 2.253061398 
2.2847946572 2.3165279163 2.3482611754 2.3799944345 2.4117276937 2.4434609528 2.4751942119 2.506927471 2.5386607302 
2.5703939893 2.6021272484 2.6338605076 2.6655937667 2.6973270258 2.7290602849 2.7607935441 2.7925268032 2.8242600623 
2.8559933214 2.8877265806 2.9194598397 2.9511930988 2.982926358 3.0146596171 3.0463928762 3.0781261353 3.1098593945 
3.1415926536 
_radius 1 100 double
1.3340734094e-15 0.016457078896 0.032706054262 0.048555722668 0.063850389392 0.078480404259 0.092385486918 0.10555060115 0.11799545888 
0.12975982238 0.14088740465 0.15141121572 0.1613426809 0.17066593213 0.17933762712 0.18729176715 0.19444843061 0.20072510282 
0.20604922777 0.21037059649 0.21367216652 0.21597792112 0.21735651446 0.21791978673 0.21781579656 0.21721676964 0.21630321029 
0.21524621673 0.21419058489 0.21324136741 0.21245605335 0.21184352949 0.21136976719 0.21096909901 0.21055922829 0.21005778034 
0.20939817405 0.20854277858 0.20749166565 0.2062857737 0.20500402086 0.20375490778 0.20266439344 0.20186296433 0.20147506926 
0.20161269274 0.20237210978 0.2038306051 0.20604000672 0.20901643629 0.21272904119 0.2170924666 0.22196724792 0.22716963404 
0.23248923484 0.23771082755 0.24263615187 0.2471021878 0.25099361558 0.25424843566 0.25685684201 0.25885429821 0.26031033093 
0.26131482277 0.26196357403 0.26234467966 0.26252694082 0.2625512112 0.26242531222 0.26212289616 0.26158630643 0.26073303051 
0.25946482409 0.25767815931 0.25527448194 0.25216892516 0.24829656774 0.24361589332 0.23810964034 0.23178359981 0.22466405549 
0.21679446479 0.20823171927 0.19904202687 0.18929627778 0.1790648038 0.1684117277 0.15738951157 0.14603466123 0.13436564544 
0.1223838449 0.11007777504 0.097430054354 0.084425849097 0.071061101324 0.057348931961 0.043323159729 0.029038618772 0.01456858783 
1.0785293248e-15 
_area 1 100 double
0 0.00069154813372 0.0027364285844 0.0060494730383 0.010501087195 0.015931990283 0.02216882809 0.029038661073 0.036380523111 
0.044051891423 0.051928167678 0.05989490469 0.067835168731 0.07561680773 0.083085037381 0.09006404468 0.096367995884 0.10181858021 
0.10626450344 0.10959864336 0.11177026246 0.11279154658 0.11273880821 0.11174873462 0.11000962668 0.1077474702 0.1052073249 
0.10263187549 0.10024086004 0.098216769764 0.096703655152 0.095883389357 0.095768434487 0.096213217553 0.097047981681 0.098069584139 
0.099183054213 0.10033470983 0.10151689479 0.10276640973 0.10413678931 0.10565664549 0.10731813716 0.10910883321 0.1110525107 
0.11326060544 0.11586467631 0.11883917372 0.12230836298 0.12641723963 0.13127219536 0.13689513473 0.14320544801 0.15003221928 
0.15714144362 0.16426577444 0.17113721565 0.17751641628 0.18322458859 0.18820128303 0.19214845243 0.19506008555 0.1968566779 
0.19764322094 0.19756316601 0.19678651866 0.19547620518 0.19371758171 0.19154428457 0.18897982444 0.18603866927 0.18272065052 
0.17900633742 0.1748520807 0.17018842497 0.16493018994 0.15899984607 0.1523519913 0.14498743206 0.13695541201 0.12834696621 
0.11928254792 0.10989799924 0.10033351519 0.09072727009 0.081211142097 0.071905525893 0.062913160966 0.05431427766 0.046165599377 
0.03850461428 0.031358907725 0.024758645901 0.018748881418 0.013397721645 0.0087971512461 0.0050555198018 0.0022834234816 0.0005766016097 
1.6913553891e-17 
