# vtk DataFile Version 5.1
vtk output
ASCII
DATASET POLYDATA
POINTS 100 float
0.107547 0.0887916 -0.611844 0.107785 0.0889075 -0.61173 0.108436 0.089044 -0.611359 
0.109425 0.089121 -0.610697 0.110637 0.0890151 -0.609692 0.111921 0.0885723 -0.608281 
0.113105 0.0876247 -0.606401 0.11401 0.0860086 -0.603992 0.114464 0.0835823 -0.601009 
0.114312 0.0802417 -0.597423 0.113425 0.0759319 -0.593226 0.11171 0.0706538 -0.588427 
0.109107 0.0644658 -0.583049 0.105597 0.0574788 -0.577121 0.101192 0.0498469 -0.570673 
0.0959315 0.0417546 -0.563723 0.0898797 0.0334007 -0.556274 0.083116 0.0249828 -0.548307 
0.0757311 0.0166819 -0.539778 0.0678217 0.00865043 -0.530623 0.0594879 0.00100389 -0.520758 
0.0508311 -0.00618303 -0.510091 0.0419531 -0.0128755 -0.498533 0.0329554 -0.0190731 -0.486002 
0.0239388 -0.0248017 -0.472438 0.0150015 -0.0301021 -0.457811 0.00623691 -0.0350186 -0.442121 
-0.00227007 -0.0395885 -0.425405 -0.0104478 -0.0438329 -0.40773 -0.0182429 -0.0477515 -0.389187 
-0.0256246 -0.0513203 -0.369885 -0.0325886 -0.0544934 -0.349937 -0.039158 -0.0572083 -0.329451 
-0.0453824 -0.0593937 -0.308524 -0.0513327 -0.0609789 -0.287228 -0.0570941 -0.0619034 -0.265613 
-0.0627553 -0.0621257 -0.243707 -0.0683964 -0.0616301 -0.221514 -0.0740764 -0.0604305 -0.199028 
-0.0798214 -0.0585709 -0.176238 -0.085615 -0.0561225 -0.153136 -0.0913934 -0.0531782 -0.129732 
-0.0970441 -0.049845 -0.106052 -0.102411 -0.0462343 -0.0821482 -0.107303 -0.0424538 -0.0580984 
-0.111512 -0.0385994 -0.0340006 -0.114826 -0.034749 -0.00996854 -0.11705 -0.0309601 0.0138776 
-0.118027 -0.0272693 0.0374206 -0.117651 -0.0236951 0.0605556 -0.11588 -0.0202434 0.0831979 
-0.112742 -0.016914 0.105289 -0.108334 -0.0137079 0.126798 -0.102817 -0.0106345 0.14772 
-0.0963979 -0.00771681 0.168073 -0.089316 -0.00499447 0.187889 -0.08182 -0.00252395 0.207209 
-0.0741472 -0.000375755 0.22607 -0.0665031 0.00137119 0.244499 -0.0590461 0.0026373 0.262509 
-0.0518765 0.00335141 0.280097 -0.0450321 0.00345998 0.297242 -0.0384915 0.00293546 0.313911 
-0.0321826 0.00178251 0.330065 -0.0259975 4.15223e-05 0.34567 -0.0198101 -0.00221136 0.360702 
-0.0134957 -0.00486771 0.375156 -0.00694986 -0.00779365 0.389053 -0.000104199 -0.0108393 0.402441 
0.00706178 -0.01385 0.415395 0.0145149 -0.0166783 0.428011 0.0221689 -0.0191953 0.440401 
0.0298902 -0.0213002 0.452678 0.0375101 -0.0229273 0.464948 0.0448402 -0.0240499 0.477296 
0.0516895 -0.0246803 0.489776 0.0578829 -0.0248661 0.502406 0.0632771 -0.024684 0.515162 
0.0677735 -0.024231 0.527975 0.071327 -0.0236139 0.540743 0.0739493 -0.0229393 0.553331 
0.0757064 -0.0223036 0.565585 0.0767124 -0.0217856 0.577345 0.0771177 -0.0214409 0.588454 
0.077096 -0.0212993 0.598773 0.0768282 -0.0213654 0.60819 0.0764877 -0.0216213 0.616626 
0.0762264 -0.0220317 0.624037 0.0761639 -0.0225504 0.63042 0.0763792 -0.023127 0.635806 
0.076908 -0.023713 0.640254 0.077742 -0.0242679 0.643849 0.0788336 -0.024762 0.646691 
0.0801032 -0.0251782 0.648886 0.0814487 -0.0255121 0.650542 0.082757 -0.0257693 0.651759 
0.0839154 -0.0259622 0.652625 0.0848228 -0.026106 0.653214 0.0853991 -0.0262147 0.653576 
0.0855931 -0.0262974 0.653746 
LINES 2 100
OFFSETS vtktypeint64
0 100 
CONNECTIVITY vtktypeint64
0 1 2 3 4 5 6 7 8 
9 10 11 12 13 14 15 16 17 
18 19 20 21 22 23 24 25 26 
27 28 29 30 31 32 33 34 35 
36 37 38 39 40 41 42 43 44 
45 46 47 48 49 50 51 52 53 
54 55 56 57 58 59 60 61 62 
63 64 65 66 67 68 69 70 71 
72 73 74 75 76 77 78 79 80 
81 82 83 84 85 86 87 88 89 
90 91 92 93 94 95 96 97 98 
99 
POINT_DATA 100
FIELD FieldData 3
_theta 1 100 double
0 0.031733259127 0.063466518254 0.095199777382 0.12693303651 0.15866629564 0.19039955476 0.22213281389 0.25386607302 
0.28559933214 0.31733259127 0.3490658504 0.38079910953 0.41253236865 0.44426562778 0.47599888691 0.50773214603 0.53946540516 
0.57119866429 0.60293192342 0.63466518254 0.66639844167 0.6981317008 0.72986495992 0.76159821905 0.79333147818 0.82506473731 
0.85679799643 0.88853125556 0.92026451469 0.95199777382 0.98373103294 1.0154642921 1.0471975512 1.0789308103 1.1106640695 
1.1423973286 1.1741305877 1.2058638468 1.237597106 1.2693303651 1.3010636242 1.3327968833 1.3645301425 1.3962634016 
1.4279966607 1.4597299198 1.491463179 1.5231964381 1.5549296972 1.5866629564 1.6183962155 1.6501294746 1.6818627337 
1.7135959929 1.745329252 1.7770625111 1.8087957702 1.8405290294 1.8722622885 1.9039955476 1.9357288068 1.9674620659 
1.999195325 2.0309285841 2.0626618433 2.0943951024 2.1261283615 2.1578616206 2.1895948798 2.2213281389 2.253061398 
2.2847946572 2.3165279163 2.3482611754 2.3799944345 2.4117276937 2.4434609528 2.4751942119 2.506927471 2.5386607302 
2.5703939893 2.6021272484 2.6338605076 2.6655937667 2.6973270258 2.7290602849 2.7607935441 2.7925268032 2.8242600623 
2.8559933214 2.8877265806 2.9194598397 2.9511930988 2.982926358 3.0146596171 3.0463928762 3.0781261353 3.1098593945 
3.1415926536 
_radius 1 100 double
1.560495377e-15 0.015018402315 0.029961771768 0.044745050471 0.059271799332 0.073433604336 0.087113431813 0.10019183933 0.11255434866 
0.1240983312 0.1347382811 0.14440908905 0.15306758702 0.16069297353 0.16728665676 0.17287167344 0.17749141271 0.18120717842 
0.18409432025 0.18623719477 0.18772380092 0.1886412002 0.18907255502 0.1890959266 0.18878429666 0.18820601248 0.1874250556 
0.1865009336 0.18548829486 0.18443645279 0.18338893969 0.18238310404 0.18144968358 0.18061223126 0.1798862423 0.17927793378 
0.17878309467 0.17838735026 0.17806991819 0.1778120152 0.17760807741 0.17747505842 0.1774548043 0.17760724909 0.17799678237 
0.17867821136 0.17968897329 0.18105017497 0.1827742224 0.18487418791 0.18736979519 0.19028643073 0.19364643392 0.19745516525 
0.20168672187 0.20627453175 0.21111014441 0.21605038289 0.22093038752 0.22557912147 0.2298344583 0.23355609069 0.23663540922 
0.23900197623 0.24062640291 0.24151952659 0.24172789715 0.24132577505 0.24040417142 0.23905794704 0.23737256881 0.23541260465 
0.23321412279 0.23078258076 0.22809653146 0.22511591036 0.22179240707 0.21807897851 0.21393610159 0.20933368076 0.20424911683 
0.19866328903 0.19255661045 0.18590678621 0.17868882784 0.17087689772 0.16244709797 0.15338034926 0.14366475338 0.13329711112 
0.12228355589 0.11063956395 0.098389826071 0.085568487685 0.072220033848 0.058400688916 0.044179795403 0.029640414305 0.014878456635 
4.0708697705e-16 
_area 1 100 double
0 0.00057573542219 0.0022997785009 0.0051549505638 0.0090916643557 0.014009651786 0.019750093919 0.026102776582 0.03282614402 
0.039673321272 0.046415528757 0.052856028749 0.058832364848 0.064210529126 0.068878738788 0.07274777172 0.075759471351 0.077898925883 
0.07920290933 0.079758567049 0.079690769435 0.079141755278 0.078250078215 0.077135393994 0.075890742208 0.074578044503 0.073226079056 
0.071843045586 0.070446140136 0.069191690611 0.068023795474 0.066940265096 0.065983699915 0.065216112509 0.064726116928 0.064546192764 
0.064671562115 0.06509379903 0.065798160087 0.066764614369 0.067968876886 0.069389706709 0.071011653218 0.072809135135 0.074728221116 
0.076687741935 0.078595390279 0.080375846342 0.082008449135 0.08356080964 0.085192024833 0.087125318283 0.089619949181 0.092945656462 
0.097327847629 0.10281978071 0.10921112772 0.11611211432 0.12305972689 0.12958812212 0.13528565876 0.13983832233 0.14305656227 
0.14488710329 0.14541162326 0.14482312061 0.14336163198 0.14124840816 0.13868604458 0.13587360002 0.13298883156 0.1301583833 
0.12743715768 0.12480232333 0.12216020686 0.11936500281 0.11625067388 0.11267272679 0.10854652651 0.10386610719 0.098696401205 
0.093144400428 0.087323182401 0.081324077941 0.075206139335 0.069001519245 0.062727723029 0.056398407821 0.050030566912 0.043650305085 
0.037299144747 0.031040696333 0.024966323678 0.019198011985 0.013886418802 0.0092026356214 0.0053238830079 0.0024153432992 0.00061145905123 
1.9852647148e-17 
