# vtk DataFile Version 5.1
vtk output
ASCII
DATASET POLYDATA
POINTS 100 float
0.0642153 -0.000465678 -0.586349 0.0642309 -0.00058011 -0.586499 0.0643133 -0.00105622 -0.586903 
0.0644599 -0.00186147 -0.587464 0.0646637 -0.00294667 -0.588033 0.0649121 -0.00425195 -0.588422 
0.0651842 -0.00571409 -0.588425 0.0654488 -0.00727413 -0.587833 0.0656633 -0.00888425 -0.586458 
0.0657724 -0.0105131 -0.584147 0.065709 -0.0121489 -0.580789 0.0653962 -0.0137999 -0.576326 
0.0647506 -0.015492 -0.57075 0.0636867 -0.017264 -0.564096 0.0621227 -0.0191612 -0.556433 
0.0599859 -0.0212278 -0.54785 0.0572189 -0.0234996 -0.538443 0.0537841 -0.0259968 -0.528298 
0.049668 -0.0287198 -0.517486 0.0448823 -0.0316458 -0.50605 0.0394647 -0.0347296 -0.494008 
0.0334755 -0.0379055 -0.481353 0.0269939 -0.0410926 -0.468062 0.0201117 -0.0442009 -0.454098 
0.0129255 -0.0471387 -0.439429 0.00552983 -0.0498199 -0.424032 -0.00199065 -0.0521701 -0.407902 
-0.00956701 -0.0541317 -0.391058 -0.0171501 -0.0556666 -0.373543 -0.0247122 -0.0567568 -0.355418 
-0.0322457 -0.0574032 -0.336761 -0.0397593 -0.0576222 -0.317652 -0.0472713 -0.0574416 -0.298166 
-0.054802 -0.0568957 -0.278364 -0.0623639 -0.0560205 -0.258282 -0.0699532 -0.0548502 -0.237931 
-0.0775419 -0.053414 -0.217292 -0.0850718 -0.0517354 -0.196326 -0.0924525 -0.0498318 -0.174976 
-0.0995616 -0.0477164 -0.153181 -0.10625 -0.0454005 -0.130891 -0.112348 -0.0428958 -0.108074 
-0.117681 -0.0402173 -0.0847325 -0.122075 -0.037385 -0.0609087 -0.125376 -0.0344254 -0.0366875 
-0.127461 -0.0313709 -0.012196 -0.128246 -0.0282589 0.0124034 -0.1277 -0.02513 0.0369239 
-0.125842 -0.022025 0.0611683 -0.122743 -0.0189829 0.0849444 -0.118523 -0.0160378 0.10808 
-0.11334 -0.0132181 0.130438 -0.107377 -0.010545 0.151924 -0.100832 -0.00803368 0.172493 
-0.0938983 -0.00569404 0.192148 -0.0867551 -0.00353319 0.210942 -0.0795547 -0.00155772 0.228959 
-0.0724142 0.000223835 0.246311 -0.0654116 0.0017992 0.26312 -0.058586 0.00315142 0.279506 
-0.0519411 0.00425903 0.295572 -0.045453 0.00509757 0.311399 -0.0390791 0.00564201 0.327038 
-0.0327695 0.00587019 0.342508 -0.026477 0.00576642 0.3578 -0.0201664 0.00532507 0.372879 
-0.0138211 0.00455338 0.387697 -0.0074471 0.00347317 0.402202 -0.00107308 0.00212101 0.416343 
0.00525233 0.000546857 0.430079 0.011466 -0.00118895 0.44339 0.0174975 -0.00301991 0.456271 
0.0232772 -0.00487838 0.468738 0.0287441 -0.00670097 0.480822 0.0338522 -0.00843346 0.492564 
0.0385746 -0.0100349 0.504004 0.0429058 -0.0114802 0.515181 0.0468605 -0.0127612 0.526117 
0.05047 -0.0138859 0.536818 0.0537772 -0.0148761 0.547268 0.0568298 -0.0157637 0.557429 
0.0596739 -0.0165859 0.567242 0.0623477 -0.0173809 0.576632 0.0648772 -0.018183 0.585515 
0.0672735 -0.0190189 0.593805 0.0695329 -0.0199054 0.601422 0.0716389 -0.020848 0.608299 
0.0735664 -0.0218412 0.614388 0.0752868 -0.0228702 0.619667 0.0767737 -0.0239129 0.624137 
0.0780088 -0.0249432 0.62783 0.0789854 -0.025934 0.630796 0.0797114 -0.0268597 0.63311 
0.0802094 -0.0276984 0.634858 0.0805144 -0.0284332 0.636135 0.0806707 -0.0290525 0.637036 
0.080726 -0.0295493 0.637651 0.0807258 -0.0299206 0.638053 0.0807078 -0.0301659 0.638302 
0.0806964 -0.0302858 0.638433 
LINES 2 100
OFFSETS vtktypeint64
0 100 
CONNECTIVITY vtktypeint64
0 1 2 3 4 5 6 7 8 
9 10 11 12 13 14 15 16 17 
18 19 20 21 22 23 24 25 26 
27 28 29 30 31 32 33 34 35 
36 37 38 39 40 41 42 43 44 
45 46 47 48 49 50 51 52 53 
54 55 56 57 58 59 60 61 62 
63 64 65 66 67 68 69 70 71 
72 73 74 75 76 77 78 79 80 
81 82 83 84 85 86 87 88 89 
90 91 92 93 94 95 96 97 98 
99 
POINT_DATA 100
FIELD FieldData 3
_theta 1 100 double
0 0.031733259127 0.063466518254 0.095199777382 0.12693303651 0.15866629564 0.19039955476 0.22213281389 0.25386607302 
0.28559933214 0.31733259127 0.3490658504 0.38079910953 0.41253236865 0.44426562778 0.47599888691 0.50773214603 0.53946540516 
0.57119866429 0.60293192342 0.63466518254 0.66639844167 0.6981317008 0.72986495992 0.76159821905 0.79333147818 0.82506473731 
0.85679799643 0.88853125556 0.92026451469 0.95199777382 0.98373103294 1.0154642921 1.0471975512 1.0789308103 1.1106640695 
1.1423973286 1.1741305877 1.2058638468 1.237597106 1.2693303651 1.3010636242 1.3327968833 1.3645301425 1.3962634016 
1.4279966607 1.4597299198 1.491463179 1.5231964381 1.5549296972 1.5866629564 1.6183962155 1.6501294746 1.6818627337 
1.7135959929 1.745329252 1.7770625111 1.8087957702 1.8405290294 1.8722622885 1.9039955476 1.9357288068 1.9674620659 
1.999195325 2.0309285841 2.0626618433 2.0943951024 2.1261283615 2.1578616206 2.1895948798 2.2213281389 2.253061398 
2.2847946572 2.3165279163 2.3482611754 2.3799944345 2.4117276937 2.4434609528 2.4751942119 2.506927471 2.5386607302 
2.5703939893 2.6021272484 2.6338605076 2.6655937667 2.6973270258 2.7290602849 2.7607935441 2.7925268032 2.8242600623 
2.8559933214 2.8877265806 2.9194598397 2.9511930988 2.982926358 3.0146596171 3.0463928762 3.0781261353 3.1098593945 
3.1415926536 
_radius 1 100 double
7.8504624619e-16 0.014932678226 0.029747247557 0.044328395199 0.058570023487 0.072381516172 0.085693986651 0.098464364522 0.11067531917 
0.1223299794 0.13344180904 0.14402144779 0.15406342199 0.16353600661 0.1723769994 0.18049686404 0.18778899357 0.19414524086 
0.19947379433 0.20371616092 0.20686040774 0.20894867733 0.21007803346 0.21039466664 0.21008224951 0.20934575496 0.20839239424 
0.20741159195 0.20655615528 0.2059270028 0.20556384669 0.2054438125 0.20548893651 0.20558192477 0.20558795952 0.20537921428 
0.20485834791 0.20397754363 0.20275043465 0.20125530686 0.1996291783 0.19805371624 0.19673539709 0.19588344012 0.19568908409 
0.19630832254 0.19784816284 0.20035559023 0.2038094648 0.20811737374 0.21312008628 0.21860490297 0.22432669577 0.23003331798 
0.23549123296 0.24050759327 0.2449460284 0.24873459203 0.25186546244 0.25438701307 0.25638972909 0.25798808071 0.25930082041 
0.26043221995 0.2614565095 0.26240726334 0.2632727652 0.26399757421 0.26448970632 0.26463215213 0.26429696522 0.26335994168 
0.261713992 0.25927963962 0.25601158 0.25190080184 0.24697234078 0.2412792672 0.23489396305 0.2278980438 0.22037235534 
0.21238829785 0.20400136764 0.1952473856 0.18614150689 0.17667982344 0.1668431573 0.15660246137 0.14592509471 0.13478116579 
0.12314918536 0.11102044216 0.098401751455 0.085316459161 0.071803784406 0.0579167718 0.043719318617 0.029282896048 0.014683602524 
1.185995943e-15 
_area 1 100 double
0 0.00045715118895 0.0018596368423 0.0042788645212 0.0077780459589 0.012368041702 0.017986815925 0.024503612305 0.031738737826 
0.039487895401 0.047542691245 0.055703013731 0.063780589609 0.071595662707 0.078970475047 0.085724048186 0.091672597751 0.096638730357 
0.10047015642 0.10306506016 0.10439786784 0.10453803853 0.10365622092 0.10201502663 0.099943716189 0.09779737891 0.095905922675 
0.094528203347 0.093826825976 0.093861352135 0.09458945328 0.095875486816 0.097511580896 0.099251721684 0.10085310465 0.10211670366 
0.1029203382 0.10323940073 0.10315035034 0.10280927892 0.10240019422 0.10207542646 0.10193851343 0.10207945423 0.10262754415 
0.1037844768 0.1061090497 0.10935017827 0.11341285299 0.11829990883 0.12394740487 0.13020631424 0.13685629696 0.14363442497 
0.1502670463 0.1565015081 0.16213522145 0.16703620878 0.17115138885 0.17450475502 0.17719187891 0.17937241728 0.18122830687 
0.18285961437 0.18427211354 0.18541750384 0.18620226931 0.18650822788 0.18621608792 0.18522459888 0.18346200922 0.18088903379 
0.1774951913 0.17329179058 0.16830486214 0.16257071417 0.15613561892 0.14905901924 0.14141758103 0.13330707216 0.12484016261 
0.11613932799 0.10732505456 0.098501421937 0.08974362113 0.081093310243 0.072565865285 0.064167990824 0.055918016798 0.047859988591 
0.040067478268 0.032638988894 0.02568943494 0.019341349544 0.013717335744 0.008933663432 0.0050944907488 0.0022866050609 0.00057504610387 
3.2890073212e-17 
