# vtk DataFile Version 5.1
vtk output
ASCII
DATASET POLYDATA
POINTS 100 float
0.188017 0.0500784 -0.718042 0.187734 0.0503134 -0.71803 0.186944 0.0508398 -0.718019 
0.185658 0.0516036 -0.717906 0.183896 0.052519 -0.71753 0.181679 0.0534742 -0.716694 
0.179034 0.0543399 -0.715184 0.175987 0.0549782 -0.712796 0.172564 0.0552525 -0.709353 
0.168784 0.0550376 -0.70473 0.16466 0.0542284 -0.698858 0.160197 0.052747 -0.691737 
0.155389 0.0505486 -0.683427 0.150218 0.0476238 -0.674039 0.144661 0.0439989 -0.663721 
0.138687 0.0397335 -0.652636 0.13226 0.0349159 -0.640941 0.125351 0.029656 -0.628773 
0.117934 0.0240777 -0.616225 0.109999 0.0183103 -0.603344 0.101552 0.0124796 -0.590123 
0.0926178 0.00670124 -0.576507 0.0832466 0.001074 -0.562401 0.0735078 -0.00432386 -0.547684 
0.0634893 -0.00943645 -0.532228 0.0532918 -0.0142298 -0.51591 0.0430221 -0.0186894 -0.498632 
0.0327842 -0.0228158 -0.48033 0.022672 -0.0266197 -0.460983 0.0127617 -0.0301162 -0.440612 
0.00310636 -0.0333194 -0.419275 -0.00626681 -0.036238 -0.397063 -0.0153558 -0.0388718 -0.374084 
-0.0241801 -0.0412111 -0.350453 -0.0327737 -0.0432364 -0.326279 -0.0411757 -0.0449205 -0.301654 
-0.0494199 -0.0462323 -0.27665 -0.0575232 -0.0471405 -0.251311 -0.065477 -0.0476187 -0.225661 
-0.0732393 -0.0476491 -0.199708 -0.0807317 -0.0472261 -0.17345 -0.0878398 -0.0463583 -0.146889 
-0.094419 -0.0450692 -0.120039 -0.100303 -0.0433963 -0.0929346 -0.105318 -0.0413881 -0.0656347 
-0.109295 -0.0391018 -0.0382262 -0.112085 -0.036598 -0.0108204 -0.113576 -0.0339377 0.016453 
-0.113698 -0.0311781 0.0434545 -0.112435 -0.0283698 0.0700454 -0.109825 -0.0255561 0.0960987 
-0.105956 -0.0227719 0.121508 -0.10096 -0.0200454 0.146196 -0.0949997 -0.0174002 0.170118 
-0.0882575 -0.014858 0.193261 -0.0809178 -0.0124414 0.215645 -0.0731549 -0.0101763 0.237313 
-0.0651218 -0.00809368 0.258326 -0.0569422 -0.00622994 0.278752 -0.048708 -0.0046258 0.298662 
-0.0404797 -0.00332414 0.318118 -0.0322928 -0.00236648 0.337172 -0.0241649 -0.001789 0.355862 
-0.0161066 -0.00161823 0.37421 -0.00813108 -0.00186722 0.392229 -0.00026243 -0.00253272 0.409922 
0.00745829 -0.00359366 0.427292 0.0149711 -0.00501146 0.444338 0.0221992 -0.00673191 0.461066 
0.0290542 -0.00868885 0.477485 0.0354453 -0.0108089 0.493609 0.0412894 -0.0130171 0.509453 
0.0465215 -0.0152425 0.525029 0.0511044 -0.0174232 0.540342 0.0550346 -0.0195102 0.555386 
0.0583454 -0.0214701 0.570135 0.0611048 -0.0232857 0.584548 0.0634097 -0.0249543 0.598563 
0.0653759 -0.0264854 0.6121 0.0671261 -0.0278969 0.625069 0.0687765 -0.0292098 0.63737 
0.070424 -0.0304442 0.648908 0.0721368 -0.0316153 0.659596 0.073947 -0.0327303 0.669364 
0.0758489 -0.0337873 0.678162 0.0778023 -0.0347756 0.68597 0.0797389 -0.0356776 0.692794 
0.0815738 -0.0364718 0.698667 0.0832178 -0.0371367 0.703645 0.084591 -0.037655 0.707803 
0.0856343 -0.0380172 0.71123 0.0863184 -0.0382241 0.714016 0.0866486 -0.0382884 0.716254 
0.0866645 -0.0382346 0.71803 0.0864355 -0.0380963 0.719421 0.0860518 -0.0379137 0.720491 
0.0856124 -0.0377291 0.721291 0.0852125 -0.0375818 0.721858 0.0849307 -0.0375041 0.722219 
0.0848183 -0.0375171 0.722388 
LINES 2 100
OFFSETS vtktypeint64
0 100 
CONNECTIVITY vtktypeint64
0 1 2 3 4 5 6 7 8 
9 10 11 12 13 14 15 16 17 
18 19 20 21 22 23 24 25 26 
27 28 29 30 31 32 33 34 35 
36 37 38 39 40 41 42 43 44 
45 46 47 48 49 50 51 52 53 
54 55 56 57 58 59 60 61 62 
63 64 65 66 67 68 69 70 71 
72 73 74 75 76 77 78 79 80 
81 82 83 84 85 86 87 88 89 
90 91 92 93 94 95 96 97 98 
99 
POINT_DATA 100
FIELD FieldData 3
_theta 1 100 double
0 0.031733259127 0.063466518254 0.095199777382 0.12693303651 0.15866629564 0.19039955476 0.22213281389 0.25386607302 
0.28559933214 0.31733259127 0.3490658504 0.38079910953 0.41253236865 0.44426562778 0.47599888691 0.50773214603 0.53946540516 
0.57119866429 0.60293192342 0.63466518254 0.66639844167 0.6981317008 0.72986495992 0.76159821905 0.79333147818 0.82506473731 
0.85679799643 0.88853125556 0.92026451469 0.95199777382 0.98373103294 1.0154642921 1.0471975512 1.0789308103 1.1106640695 
1.1423973286 1.1741305877 1.2058638468 1.237597106 1.2693303651 1.3010636242 1.3327968833 1.3645301425 1.3962634016 
1.4279966607 1.4597299198 1.491463179 1.5231964381 1.5549296972 1.5866629564 1.6183962155 1.6501294746 1.6818627337 
1.7135959929 1.745329252 1.7770625111 1.8087957702 1.8405290294 1.8722622885 1.9039955476 1.9357288068 1.9674620659 
1.999195325 2.0309285841 2.0626618433 2.0943951024 2.1261283615 2.1578616206 2.1895948798 2.2213281389 2.253061398 
2.2847946572 2.3165279163 2.3482611754 2.3799944345 2.4117276937 2.4434609528 2.4751942119 2.506927471 2.5386607302 
2.5703939893 2.6021272484 2.6338605076 2.6655937667 2.6973270258 2.7290602849 2.7607935441 2.7925268032 2.8242600623 
2.8559933214 2.8877265806 2.9194598397 2.9511930988 2.982926358 3.0146596171 3.0463928762 3.0781261353 3.1098593945 
3.1415926536 
_radius 1 100 double
1.734723476e-16 0.017085391749 0.034017638189 0.050650484184 0.06684717694 0.082484451723 0.097455775701 0.11167349027 0.12506948471 
0.13759419605 0.14921404516 0.15990777606 0.16966243671 0.17846983315 0.18632417479 0.19322133696 0.19915977994 0.20414279762 
0.208181522 0.21129803563 0.21352802528 0.21492258542 0.21554897218 0.21549026036 0.2148439357 0.21371945254 0.21223471211 
0.21051132575 0.20866854587 0.20681601864 0.20504606111 0.20342679375 0.20199781006 0.20076984753 0.19972910811 0.1988457127 
0.19808466401 0.19741700057 0.19682876377 0.1963260147 0.19593533369 0.19570074641 0.19567929426 0.19593771044 0.19655133827 
0.1976040209 0.19918578693 0.20138526996 0.20427606537 0.20789934321 0.21224728453 0.21725220461 0.2227846267 0.22866106168 
0.23465998562 0.24054311647 0.24607859664 0.25106285868 0.25533856373 0.25880686624 0.26143317437 0.26324636425 0.26433197082 
0.26482023021 0.26487007434 0.26465037927 0.26432000711 0.26400846165 0.2637992398 0.26371808404 0.26372812726 0.26373316092 
0.26358889377 0.26312040164 0.26214262543 0.26048035237 0.2579847621 0.25454493712 0.25009407894 0.24461103405 0.2381179732 
0.23067487109 0.22237114384 0.21331472525 0.20361913557 0.19338965437 0.18271032344 0.17163387494 0.16017654327 0.14831899628 
0.13601347416 0.12319599975 0.10980157724 0.095779840801 0.081108687125 0.065803938553 0.049923878108 0.0335683805 0.016873137347 
2.5179388743e-16 
_area 1 100 double
0 0.00062643183369 0.0025110892686 0.0056628550279 0.010074995739 0.015701086704 0.022435263697 0.03010437083 0.038474650275 
0.047270301615 0.056197958185 0.064970589738 0.073325993104 0.081037851648 0.087920251989 0.093828627209 0.098660744371 0.10236037839 
0.1049240694 0.10640871157 0.10693534707 0.10668191911 0.10585528865 0.10464349543 0.10318386949 0.10157611823 0.09990796797 
0.098262789819 0.096717133377 0.0953423122 0.094208378282 0.093380818673 0.092909565808 0.092818380529 0.093102115066 0.093735191654 
0.094688969068 0.095945365737 0.097487149606 0.099273107058 0.10123505316 0.1032936886 0.10537178203 0.10740929394 0.10938780702 
0.11135919564 0.11346564069 0.11593700748 0.11905606166 0.12309468114 0.12824162114 0.1345460979 0.14188948256 0.14999031258 
0.15844438903 0.16679128948 0.1745898352 0.18148481184 0.18725095684 0.19180488004 0.19518296667 0.19749438256 0.19886956277 
0.19942748603 0.19927217387 0.19850784033 0.19725201394 0.19563326445 0.19377522438 0.19177758551 0.18970106144 0.18755612232 
0.18529444409 0.18280482416 0.17991804495 0.17642659811 0.17212049673 0.16682928979 0.16045529856 0.1529903085 0.14451659009 
0.13519505857 0.12524245361 0.11490061665 0.10440398417 0.093953075192 0.08369964539 0.073744444354 0.06414510848 0.054931417142 
0.046125459407 0.037762936051 0.029910025604 0.022670501898 0.016180873492 0.010595643289 0.0060679758292 0.0027316385455 0.00068815448076 
2.5606374164e-17 
