# vtk DataFile Version 5.1
vtk output
ASCII
DATASET POLYDATA
POINTS 100 float
0.127883 0.0627607 -0.649963 0.127792 0.0627755 -0.649962 0.127551 0.0625711 -0.649906 
0.127174 0.062135 -0.649727 0.126681 0.0614476 -0.649322 0.126094 0.0604814 -0.648563 
0.125426 0.0592012 -0.647303 0.124681 0.057565 -0.645396 0.123848 0.0555253 -0.642706 
0.122894 0.0530322 -0.639118 0.121764 0.0500376 -0.634547 0.120384 0.0465 -0.628945 
0.118666 0.0423906 -0.622297 0.11651 0.0376988 -0.614623 0.113815 0.0324376 -0.605968 
0.110489 0.0266473 -0.596398 0.106453 0.0203971 -0.585986 0.101655 0.0137845 -0.574805 
0.0960712 0.00693221 -0.56292 0.0897098 -1.82306e-05 -0.550379 0.0826104 -0.00691411 -0.53721 
0.074841 -0.0136011 -0.523422 0.0664914 -0.0199332 -0.509005 0.0576653 -0.0257822 -0.493933 
0.0484707 -0.0310452 -0.47817 0.0390112 -0.0356506 -0.461681 0.0293777 -0.0395606 -0.444431 
0.0196425 -0.0427702 -0.426397 0.00985701 -0.0453041 -0.407567 5.13249e-05 -0.0472102 -0.387948 
-0.00976156 -0.0485515 -0.36756 -0.0195794 -0.0493976 -0.346438 -0.0294023 -0.049816 -0.324627 
-0.0392226 -0.0498649 -0.302181 -0.049016 -0.0495884 -0.279158 -0.0587332 -0.0490138 -0.255617 
-0.0682943 -0.048152 -0.231615 -0.0775869 -0.0470007 -0.207206 -0.0864673 -0.0455494 -0.182447 
-0.0947666 -0.0437857 -0.15739 -0.102299 -0.0417019 -0.132096 -0.108876 -0.0393012 -0.106627 
-0.114316 -0.036602 -0.0810556 -0.11846 -0.0336404 -0.0554649 -0.121188 -0.0304697 -0.0299468 
-0.122423 -0.0271584 -0.00460189 -0.122145 -0.0237851 0.0204643 -0.120386 -0.0204326 0.0451459 
-0.117237 -0.0171815 0.0693423 -0.112838 -0.0141038 0.0929642 -0.107365 -0.0112577 0.11594 
-0.101026 -0.00868444 0.138218 -0.0940377 -0.00640736 0.159774 -0.0866155 -0.00443278 0.180609 
-0.0789593 -0.00275333 0.200747 -0.0712406 -0.00135258 0.220236 -0.0635942 -0.000210292 0.239138 
-0.056114 0.000692281 0.257527 -0.0488512 0.00136813 0.275481 -0.0418175 0.0018217 0.29307 
-0.0349918 0.00204807 0.310359 -0.028328 0.00203419 0.327396 -0.0217659 0.00176187 0.344213 
-0.0152411 0.00121219 0.360825 -0.00869493 0.000370473 0.377229 -0.00208276 -0.000768921 0.393412 
0.00462059 -0.00219872 0.409347 0.0114176 -0.00389653 0.425008 0.018288 -0.0058246 0.440364 
0.0251908 -0.00793182 0.455393 0.0320692 -0.0101576 0.470076 0.0388561 -0.0124372 0.484406 
0.0454809 -0.014708 0.498381 0.0518761 -0.0169154 0.51201 0.0579826 -0.0190184 0.525302 
0.0637543 -0.0209923 0.538269 0.0691605 -0.0228312 0.550919 0.0741868 -0.0245461 0.563254 
0.0788342 -0.0261621 0.575264 0.0831165 -0.0277138 0.58693 0.0870568 -0.0292386 0.598221 
0.0906839 -0.0307706 0.609094 0.0940279 -0.0323349 0.619498 0.0971172 -0.0339435 0.629377 
0.0999753 -0.0355922 0.638675 0.10262 -0.0372615 0.647338 0.105062 -0.0389179 0.655321 
0.107307 -0.040519 0.662589 0.109354 -0.0420185 0.669121 0.111202 -0.0433725 0.674911 
0.112847 -0.0445456 0.679971 0.114289 -0.0455151 0.684324 0.115527 -0.0462742 0.688007 
0.116565 -0.0468323 0.691066 0.117412 -0.0472139 0.693552 0.118077 -0.0474542 0.695516 
0.118571 -0.0475942 0.697008 0.118907 -0.0476748 0.698069 0.119092 -0.0477302 0.69873 
0.119135 -0.0477839 0.69901 
LINES 2 100
OFFSETS vtktypeint64
0 100 
CONNECTIVITY vtktypeint64
0 1 2 3 4 5 6 7 8 
9 10 11 12 13 14 15 16 17 
18 19 20 21 22 23 24 25 26 
27 28 29 30 31 32 33 34 35 
36 37 38 39 40 41 42 43 44 
45 46 47 48 49 50 51 52 53 
54 55 56 57 58 59 60 61 62 
63 64 65 66 67 68 69 70 71 
72 73 74 75 76 77 78 79 80 
81 82 83 84 85 86 87 88 89 
90 91 92 93 94 95 96 97 98 
99 
POINT_DATA 100
FIELD FieldData 3
_theta 1 100 double
0 0.031733259127 0.063466518254 0.095199777382 0.12693303651 0.15866629564 0.19039955476 0.22213281389 0.25386607302 
0.28559933214 0.31733259127 0.3490658504 0.38079910953 0.41253236865 0.44426562778 0.47599888691 0.50773214603 0.53946540516 
0.57119866429 0.60293192342 0.63466518254 0.66639844167 0.6981317008 0.72986495992 0.76159821905 0.79333147818 0.82506473731 
0.85679799643 0.88853125556 0.92026451469 0.95199777382 0.98373103294 1.0154642921 1.0471975512 1.0789308103 1.1106640695 
1.1423973286 1.1741305877 1.2058638468 1.237597106 1.2693303651 1.3010636242 1.3327968833 1.3645301425 1.3962634016 
1.4279966607 1.4597299198 1.491463179 1.5231964381 1.5549296972 1.5866629564 1.6183962155 1.6501294746 1.6818627337 
1.7135959929 1.745329252 1.7770625111 1.8087957702 1.8405290294 1.8722622885 1.9039955476 1.9357288068 1.9674620659 
1.999195325 2.0309285841 2.0626618433 2.0943951024 2.1261283615 2.1578616206 2.1895948798 2.2213281389 2.253061398 
2.2847946572 2.3165279163 2.3482611754 2.3799944345 2.4117276937 2.4434609528 2.4751942119 2.506927471 2.5386607302 
2.5703939893 2.6021272484 2.6338605076 2.6655937667 2.6973270258 2.7290602849 2.7607935441 2.7925268032 2.8242600623 
2.8559933214 2.8877265806 2.9194598397 2.9511930988 2.982926358 3.0146596171 3.0463928762 3.0781261353 3.1098593945 
3.1415926536 
_radius 1 100 double
2.4394924735e-16 0.015348275142 0.030597106278 0.045643192367 0.060391527956 0.074758188774 0.088671342854 0.10207035623 0.11490317142 
0.12712244709 0.13868123027 0.14952912674 0.15960996264 0.16886174554 0.17721935995 0.18461994505 0.19101039269 0.19635594977 
0.20064858031 0.2039136022 0.2062132212 0.20764596293 0.20834162217 0.20845210296 0.2081392541 0.20756134009 0.20686000257 
0.20614942779 0.20550901303 0.20498024955 0.20456794788 0.20424542936 0.20396299866 0.20365898524 0.20327277477 0.20275903255 
0.20210135843 0.20132248465 0.20048803726 0.19970237673 0.1990975782 0.19881891912 0.19901073868 0.19980464942 0.20130941518 
0.20360081854 0.20671118767 0.21062040352 0.21525128429 0.22047155563 0.2261028416 0.23193544543 0.2377468142 0.24332137852 
0.24846950945 0.25304345082 0.25694835082 0.2601470467 0.26265803936 0.26454699908 0.26591301311 0.26687149593 0.26753616099 
0.26800262692 0.26833599721 0.2685640176 0.26867626656 0.26862862652 0.26835146411 0.26775972574 0.26676339323 0.26527714465 
0.26322840526 0.26056319327 0.25724932715 0.25327676721 0.248655173 0.24340915093 0.237572049 0.23117940542 0.22426318395 
0.21684770608 0.2089477687 0.20056891803 0.19170936044 0.18236265622 0.17252027009 0.16217330368 0.15131326112 0.1399323025 
0.12802382476 0.11558413733 0.10261548283 0.089129969951 0.075153503386 0.060728717967 0.045916209056 0.030793799784 0.015453992406 
6.8649735129e-16 
_area 1 100 double
0 0.00069190939891 0.0027341402408 0.0060327553491 0.010450636365 0.015829158197 0.022006656583 0.028828158556 0.036145295804 
0.043809236491 0.051661109802 0.059524661723 0.067205411774 0.074498347528 0.081202385159 0.087136970164 0.092156315817 0.096159362938 
0.099096427602 0.10097461267 0.10186268851 0.10189356449 0.10126120374 0.10021024258 0.099015608549 0.097925412742 0.09705839563 
0.096420495666 0.095999898847 0.095792864086 0.095802004683 0.096029299162 0.096463827769 0.097068150036 0.097774519999 0.098500090842 
0.099175146492 0.099765382465 0.10027632831 0.10074937478 0.10126219775 0.10192867862 0.10289027434 0.10429565351 0.10627040968 
0.10892185044 0.11237327311 0.11674824645 0.122108487 0.12840294633 0.13546494904 0.14303684892 0.15079468503 0.15837454625 
0.16540966944 0.17157655175 0.17663938931 0.18048086865 0.18311197316 0.184660956 0.18534852813 0.18545864741 0.18530352619 
0.18515124362 0.18511908123 0.18515892337 0.18513740629 0.1848940851 0.18426371262 0.18308692654 0.18121994443 0.17854628492 
0.17499001862 0.17052694022 0.16518929977 0.15906182421 0.15226992273 0.14496296917 0.13729573596 0.12941050341 0.12142218563 
0.11340888981 0.10540988726 0.09743168092 0.089460990357 0.0814814283 0.073488959642 0.065501203409 0.057558477228 0.049719165139 
0.042055026864 0.034650710794 0.027607252143 0.021045809896 0.015107643491 0.0099483169777 0.0057264014034 0.0025885786871 0.00065389031742 
4.3584086854e-17 
