# vtk DataFile Version 5.1
vtk output
ASCII
DATASET POLYDATA
POINTS 100 float
0.0708387 0.0476856 -0.661423 0.071025 0.0477372 -0.661715 0.0715713 0.0476246 -0.662514 
0.0724373 0.0473171 -0.663675 0.0735581 0.0467686 -0.664976 0.0748484 0.0459233 -0.666141 
0.0762086 0.044722 -0.666864 0.0775298 0.04311 -0.666841 0.0787005 0.0410431 -0.6658 
0.0796118 0.038493 -0.663523 0.0801618 0.0354511 -0.659864 0.0802595 0.0319294 -0.654755 
0.0798269 0.0279599 -0.648206 0.0788002 0.0235914 -0.640295 0.077131 0.0188854 -0.631149 
0.0747862 0.0139114 -0.620927 0.071748 0.00874185 -0.60979 0.0680143 0.00344793 -0.597888 
0.0635991 -0.00190305 -0.585333 0.0585328 -0.00724912 -0.572199 0.0528624 -0.0125333 -0.558507 
0.0466515 -0.0177021 -0.544238 0.0399788 -0.0227031 -0.529338 0.0329363 -0.0274824 -0.513734 
0.0256255 -0.0319826 -0.497355 0.0181521 -0.0361419 -0.480143 0.0106201 -0.0398947 -0.462073 
0.00312506 -0.0431737 -0.443161 -0.00425291 -0.045914 -0.423465 -0.0114549 -0.0480584 -0.403086 
-0.0184471 -0.0495628 -0.382156 -0.0252228 -0.0504015 -0.360824 -0.0318007 -0.0505722 -0.339239 
-0.0382201 -0.050098 -0.317533 -0.0445334 -0.0490279 -0.295802 -0.050796 -0.0474346 -0.274098 
-0.0570543 -0.0454094 -0.25242 -0.0633344 -0.0430554 -0.230714 -0.0696318 -0.0404793 -0.208886 
-0.075903 -0.0377826 -0.186806 -0.0820624 -0.0350541 -0.164332 -0.0879827 -0.0323632 -0.141327 
-0.0935008 -0.0297564 -0.117678 -0.0984279 -0.0272563 -0.0933144 -0.102564 -0.0248642 -0.0682181 
-0.105715 -0.0225652 -0.042432 -0.107708 -0.0203352 -0.0160595 -0.108411 -0.0181498 0.0107413 
-0.10774 -0.0159926 0.0377697 -0.105676 -0.0138625 0.064797 -0.102259 -0.0117786 0.0915853 
-0.0975907 -0.00978258 0.117905 -0.0918244 -0.00793708 0.14355 -0.0851505 -0.00632077 0.168353 
-0.07778 -0.00502069 0.192192 -0.0699267 -0.00412237 0.214995 -0.061789 -0.00369919 0.236741 
-0.0535354 -0.00380211 0.257451 -0.0452931 -0.00445129 0.277187 -0.0371434 -0.00563058 0.296034 
-0.029121 -0.00728576 0.314097 -0.0212205 -0.00932685 0.331488 -0.0134062 -0.0116344 0.348319 
-0.00562575 -0.0140692 0.364698 0.00217582 -0.0164844 0.380719 0.010042 -0.0187384 0.396466 
0.0179936 -0.0207082 0.41201 0.0260217 -0.0222996 0.427408 0.0340847 -0.0234563 0.442703 
0.0421107 -0.0241633 0.457925 0.0500047 -0.0244476 0.473088 0.0576583 -0.0243735 0.488193 
0.0649623 -0.0240351 0.503221 0.0718186 -0.0235455 0.518133 0.0781514 -0.0230248 0.532872 
0.0839151 -0.0225869 0.547361 0.0890976 -0.022329 0.561507 0.0937205 -0.0223214 0.575202 
0.0978336 -0.022602 0.588331 0.101507 -0.0231731 0.600782 0.104821 -0.0240029 0.612449 
0.107852 -0.0250298 0.623243 0.110668 -0.0261694 0.633099 0.113314 -0.0273241 0.641979 
0.11581 -0.0283926 0.649879 0.118152 -0.0292805 0.656822 0.120313 -0.0299082 0.662862 
0.122252 -0.0302187 0.668074 0.12392 -0.0301819 0.672549 0.125274 -0.0297966 0.676381 
0.126283 -0.0290902 0.679664 0.126939 -0.0281155 0.682483 0.127259 -0.026946 0.684907 
0.127287 -0.02567 0.686985 0.127089 -0.0243831 0.688749 0.126748 -0.0231815 0.690214 
0.126353 -0.0221543 0.691381 0.12599 -0.0213783 0.692243 0.125728 -0.0209119 0.692789 
0.125614 -0.0207917 0.693012 
LINES 2 100
OFFSETS vtktypeint64
0 100 
CONNECTIVITY vtktypeint64
0 1 2 3 4 5 6 7 8 
9 10 11 12 13 14 15 16 17 
18 19 20 21 22 23 24 25 26 
27 28 29 30 31 32 33 34 35 
36 37 38 39 40 41 42 43 44 
45 46 47 48 49 50 51 52 53 
54 55 56 57 58 59 60 61 62 
63 64 65 66 67 68 69 70 71 
72 73 74 75 76 77 78 79 80 
81 82 83 84 85 86 87 88 89 
90 91 92 93 94 95 96 97 98 
99 
POINT_DATA 100
FIELD FieldData 3
_theta 1 100 double
0 0.031733259127 0.063466518254 0.095199777382 0.12693303651 0.15866629564 0.19039955476 0.22213281389 0.25386607302 
0.28559933214 0.31733259127 0.3490658504 0.38079910953 0.41253236865 0.44426562778 0.47599888691 0.50773214603 0.53946540516 
0.57119866429 0.60293192342 0.63466518254 0.66639844167 0.6981317008 0.72986495992 0.76159821905 0.79333147818 0.82506473731 
0.85679799643 0.88853125556 0.92026451469 0.95199777382 0.98373103294 1.0154642921 1.0471975512 1.0789308103 1.1106640695 
1.1423973286 1.1741305877 1.2058638468 1.237597106 1.2693303651 1.3010636242 1.3327968833 1.3645301425 1.3962634016 
1.4279966607 1.4597299198 1.491463179 1.5231964381 1.5549296972 1.5866629564 1.6183962155 1.6501294746 1.6818627337 
1.7135959929 1.745329252 1.7770625111 1.8087957702 1.8405290294 1.8722622885 1.9039955476 1.9357288068 1.9674620659 
1.999195325 2.0309285841 2.0626618433 2.0943951024 2.1261283615 2.1578616206 2.1895948798 2.2213281389 2.253061398 
2.2847946572 2.3165279163 2.3482611754 2.3799944345 2.4117276937 2.4434609528 2.4751942119 2.506927471 2.5386607302 
2.5703939893 2.6021272484 2.6338605076 2.6655937667 2.6973270258 2.7290602849 2.7607935441 2.7925268032 2.8242600623 
2.8559933214 2.8877265806 2.9194598397 2.9511930988 2.982926358 3.0146596171 3.0463928762 3.0781261353 3.1098593945 
3.1415926536 
_radius 1 100 double
1.2328600537e-15 0.012687156607 0.02532669197 0.03786073444 0.050228624389 0.062366839907 0.074210163122 0.085693942912 0.096756471758 
0.10734021871 0.11739123859 0.12685708813 0.13568435333 0.14381707042 0.15119700527 0.15776625106 0.1634721443 0.1682741622 
0.17215220341 0.17511535387 0.17720981246 0.17852419759 0.17919029774 0.17937778015 0.17928245455 0.17910908473 0.17905101024 
0.17926966255 0.17987729684 0.18092580889 0.18240323325 0.18423768884 0.18630710689 0.18845281036 0.19049555782 0.19225314441 
0.19355866687 0.1942782211 0.1943263675 0.19367740314 0.19237051901 0.19050747439 0.18824265117 0.18576724343 0.18329124473 
0.18102737845 0.17917913316 0.17793170333 0.17744257496 0.17782929957 0.17915490068 0.18141444427 0.1845278928 0.18834352451 
0.1926531303 0.19721637307 0.20178909018 0.20614998334 0.21012157923 0.21358334284 0.2164764935 0.21880113358 0.22060684754 
0.22197820549 0.2230169056 0.22382285615 0.22447728002 0.22503132772 0.22550277552 0.22588083176 0.22613599805 0.22623025905 
0.22612357301 0.22577499668 0.22513933356 0.22416184719 0.22277396285 0.22089217576 0.21842107251 0.21526001983 0.21131211624 
0.20649359706 0.20074195498 0.19402144169 0.18632525489 0.17767449506 0.16811472251 0.15771138954 0.14654533976 0.13470896011 
0.12230277399 0.10943176715 0.096200836391 0.082709336791 0.06904538685 0.055281003048 0.04146911326 0.027643107372 0.013819026908 
8.0672645113e-16 
_area 1 100 double
0 0.00046872519607 0.0018832013982 0.0042636369948 0.0076262274093 0.011957240462 0.017189088125 0.023191850971 0.029781186553 
0.036733463003 0.043799816041 0.050717642593 0.057223862506 0.063074824301 0.068072555544 0.072089769176 0.075082258878 0.077080882909 
0.078165404068 0.078433341641 0.077980837238 0.07690509258 0.075326037669 0.073658764908 0.072314012042 0.071129963178 0.070330692342 
0.070003991335 0.070296591692 0.071306170783 0.073064273604 0.075526005926 0.078562674212 0.081975473031 0.085521916192 0.088945149994 
0.092003571711 0.094501497615 0.096312772986 0.0973905232 0.097769204547 0.097555208122 0.096904979658 0.095999648157 0.095024900118 
0.094158582214 0.093564497669 0.093390667357 0.093771957539 0.094836678677 0.0967107832 0.099504425463 0.10326863316 0.1079412874 
0.11332887901 0.11914052837 0.12503712158 0.13066849357 0.1357047042 0.13986663253 0.14295376211 0.14486480019 0.14560724291 
0.14529299294 0.1441192996 0.14233794915 0.1402187296 0.13801325104 0.13592323645 0.1340774951 0.13252377353 0.13123785597 
0.13014206848 0.12912189357 0.12803677175 0.12672854374 0.12503166626 0.12278620208 0.11985235579 0.11612480733 0.11154461129 
0.10610578803 0.099854449689 0.092880859514 0.085307648206 0.077278543549 0.068950678723 0.060490646656 0.052071824873 0.043869867723 
0.036054960692 0.028782043593 0.022181849143 0.016355391942 0.011373009592 0.0072774358847 0.0040895598794 0.0018154619941 0.00045346086971 
3.9031278209e-18 
