# vtk DataFile Version 5.1
vtk output
ASCII
DATASET POLYDATA
POINTS 100 float
0.202251 0.0231715 -0.63498 0.201928 0.0233764 -0.634962 0.201004 0.0238467 -0.634973 
0.199478 0.0245345 -0.634929 0.197348 0.0253631 -0.634697 0.194612 0.0262332 -0.634117 
0.191271 0.0270299 -0.633011 0.187329 0.0276324 -0.631209 0.182797 0.027922 -0.628565 
0.177688 0.027792 -0.624969 0.172024 0.0271542 -0.620359 0.165828 0.0259458 -0.61472 
0.159124 0.0241325 -0.608082 0.151941 0.0217105 -0.600513 0.144304 0.0187059 -0.592097 
0.136239 0.0151711 -0.582929 0.127768 0.0111813 -0.57309 0.118915 0.00682793 -0.562641 
0.109706 0.00221268 -0.551607 0.10017 -0.00255912 -0.53998 0.0903443 -0.00738445 -0.527715 
0.0802738 -0.0121677 -0.514743 0.0700146 -0.0168243 -0.500978 0.059632 -0.0212835 -0.486334 
0.0491993 -0.0254891 -0.470738 0.0387935 -0.029399 -0.454146 0.0284903 -0.0329841 -0.436546 
0.0183578 -0.0362256 -0.417972 0.00845026 -0.0391131 -0.398494 -0.00119678 -0.041641 -0.378217 
-0.01057 -0.0438067 -0.357268 -0.0196789 -0.0456078 -0.335783 -0.0285528 -0.0470417 -0.313893 
-0.0372349 -0.0481036 -0.291708 -0.0457732 -0.0487879 -0.269309 -0.054209 -0.0490877 -0.246742 
-0.0625652 -0.0489966 -0.224014 -0.070834 -0.0485104 -0.201103 -0.0789681 -0.0476282 -0.177964 
-0.0868751 -0.0463544 -0.154547 -0.0944162 -0.0447004 -0.130805 -0.101412 -0.0426854 -0.106716 
-0.107652 -0.0403372 -0.0822927 -0.112912 -0.0376925 -0.057587 -0.116971 -0.0347968 -0.0326966 
-0.119632 -0.0317029 -0.00775909 -0.120744 -0.0284703 0.0170572 -0.12022 -0.0251629 0.0415669 
-0.118045 -0.0218474 0.0655845 -0.114289 -0.0185902 0.088942 -0.109098 -0.0154556 0.111505 
-0.10269 -0.012503 0.133184 -0.095336 -0.00978466 0.153946 -0.0873393 -0.00734365 0.173809 
-0.0790102 -0.00521222 0.192845 -0.0706404 -0.00341079 0.211163 -0.0624803 -0.00194749 0.228901 
-0.0547195 -0.000818338 0.246204 -0.0474755 -8.1476e-06 0.263209 -0.0407892 0.000507968 0.280029 
-0.0346293 0.000762597 0.296743 -0.0289037 0.000793643 0.313384 -0.023477 0.000641747 0.329946 
-0.0181927 0.000347724 0.34638 -0.0128948 -4.98057e-05 0.362607 -0.00745025 -0.0005164 0.378533 
-0.00176527 -0.00102325 0.394057 0.00420258 -0.00154801 0.409089 0.0104402 -0.002075 0.423562 
0.0168815 -0.00259479 0.437442 0.0234171 -0.00310327 0.450726 0.0299085 -0.00360034 0.463448 
0.0362057 -0.00408843 0.475669 0.0421658 -0.00457106 0.487472 0.0476694 -0.00505148 0.498944 
0.0526336 -0.00553172 0.51017 0.0570198 -0.00601203 0.521215 0.0608354 -0.00649076 0.532119 
0.0641297 -0.00696467 0.542886 0.0669842 -0.00742959 0.553485 0.0695001 -0.00788121 0.56385 
0.0717834 -0.00831605 0.573886 0.0739307 -0.00873216 0.583478 0.076017 -0.00912969 0.592502 
0.0780879 -0.00951107 0.600836 0.0801557 -0.00988073 0.608374 0.0822018 -0.0102446 0.615033 
0.084182 -0.010609 0.620763 0.0860368 -0.0109799 0.625548 0.0877025 -0.0113614 0.62941 
0.0891228 -0.0117548 0.632404 0.0902587 -0.0121584 0.634618 0.0910952 -0.0125665 0.636159 
0.0916442 -0.01297 0.637152 0.0919425 -0.0133569 0.637724 0.0920466 -0.0137134 0.638002 
0.0920235 -0.0140255 0.6381 0.0919407 -0.0142798 0.638115 0.0918553 -0.0144658 0.638117 
0.0918056 -0.0145764 0.638153 
LINES 2 100
OFFSETS vtktypeint64
0 100 
CONNECTIVITY vtktypeint64
0 1 2 3 4 5 6 7 8 
9 10 11 12 13 14 15 16 17 
18 19 20 21 22 23 24 25 26 
27 28 29 30 31 32 33 34 35 
36 37 38 39 40 41 42 43 44 
45 46 47 48 49 50 51 52 53 
54 55 56 57 58 59 60 61 62 
63 64 65 66 67 68 69 70 71 
72 73 74 75 76 77 78 79 80 
81 82 83 84 85 86 87 88 89 
90 91 92 93 94 95 96 97 98 
99 
POINT_DATA 100
FIELD FieldData 3
_theta 1 100 double
0 0.031733259127 0.063466518254 0.095199777382 0.12693303651 0.15866629564 0.19039955476 0.22213281389 0.25386607302 
0.28559933214 0.31733259127 0.3490658504 0.38079910953 0.41253236865 0.44426562778 0.47599888691 0.50773214603 0.53946540516 
0.57119866429 0.60293192342 0.63466518254 0.66639844167 0.6981317008 0.72986495992 0.76159821905 0.79333147818 0.82506473731 
0.85679799643 0.88853125556 0.92026451469 0.95199777382 0.98373103294 1.0154642921 1.0471975512 1.0789308103 1.1106640695 
1.1423973286 1.1741305877 1.2058638468 1.237597106 1.2693303651 1.3010636242 1.3327968833 1.3645301425 1.3962634016 
1.4279966607 1.4597299198 1.491463179 1.5231964381 1.5549296972 1.5866629564 1.6183962155 1.6501294746 1.6818627337 
1.7135959929 1.745329252 1.7770625111 1.8087957702 1.8405290294 1.8722622885 1.9039955476 1.9357288068 1.9674620659 
1.999195325 2.0309285841 2.0626618433 2.0943951024 2.1261283615 2.1578616206 2.1895948798 2.2213281389 2.253061398 
2.2847946572 2.3165279163 2.3482611754 2.3799944345 2.4117276937 2.4434609528 2.4751942119 2.506927471 2.5386607302 
2.5703939893 2.6021272484 2.6338605076 2.6655937667 2.6973270258 2.7290602849 2.7607935441 2.7925268032 2.8242600623 
2.8559933214 2.8877265806 2.9194598397 2.9511930988 2.982926358 3.0146596171 3.0463928762 3.0781261353 3.1098593945 
3.1415926536 
_radius 1 100 double
1.4649490688e-15 0.015382847266 0.030645836407 0.045673017055 0.06035837029 0.074606009566 0.088326644664 0.10143167595 0.11382727456 
0.12541099348 0.13607277257 0.1457009016 0.15419205988 0.1614634361 0.16746444587 0.17218575757 0.17566405882 0.17798198402 
0.17926359004 0.1796664586 0.17937175051 0.17857330977 0.17746637633 0.17623596636 0.17504492009 0.1740221999 0.17325299668 
0.17277289078 0.17256802352 0.17258187885 0.17272757293 0.17290343811 0.17300952263 0.17296306394 0.17271153253 0.17224226227 
0.17158795089 0.17082731586 0.17007981007 0.16949298142 0.16922211897 0.16940536552 0.17014196908 0.17148226184 0.17343256638 
0.17597027991 0.17906019507 0.18266458503 0.18674420812 0.19125221246 0.19612596517 0.20128195977 0.20661652742 0.21201208874 
0.21734696721 0.2225064426 0.2273928756 0.23193299431 0.23608099035 0.23981701468 0.24314173905 0.24606851518 0.2486150715 
0.25079652798 0.25262084591 0.25408693168 0.25518485911 0.2558973307 0.25620158183 0.25607126782 0.25547823626 0.25439430853 
0.25279320147 0.25065254502 0.24795571157 0.24469300943 0.24086180365 0.23646533154 0.23151031916 0.22600386842 0.21995034295 
0.21334902851 0.20619314597 0.19847041382 0.19016494321 0.18125995993 0.17174077295 0.16159753184 0.15082753532 0.13943704591 
0.12744263591 0.11487202463 0.10176425335 0.088169015036 0.074145089903 0.059758087864 0.045077930819 0.030176595794 0.015126541267 
5.913456296e-16 
_area 1 100 double
0 0.00049480503099 0.0019862677732 0.0044907003992 0.0080200124377 0.012561870933 0.018058517836 0.024390522586 0.031370778068 
0.038750755086 0.046237611754 0.053518842846 0.060290603694 0.066285856253 0.071298611515 0.075200823002 0.077949303094 0.079581783222 
0.08020372814 0.079969635632 0.079063039962 0.077678220479 0.076005037692 0.074217624753 0.072467452966 0.070880187767 0.069554135227 
0.068558392955 0.067931064955 0.067678268062 0.06777213167 0.068146998283 0.068704690286 0.069342296407 0.069991797072 0.070649889163 
0.07138687837 0.07233037426 0.073626331825 0.075393530375 0.07769387055 0.080522367316 0.083800619221 0.087371442937 0.091030423394 
0.094603082121 0.098022152774 0.10137902957 0.10491800877 0.10894628653 0.11370645527 0.11928971063 0.1256136548 0.13245788897 
0.13952821746 0.14651781514 0.15315374413 0.15922530731 0.16459408118 0.16919142925 0.17300890103 0.17608332726 0.17847939556 
0.18027341829 0.18153780985 0.1823223079 0.18263674467 0.18245243095 0.18172394555 0.18041007489 0.17848124283 0.17591780399 
0.17270699599 0.16884277738 0.1643287881 0.15918199161 0.15343409093 0.14712955403 0.14032134218 0.13306630672 0.12542170278 
0.11744362932 0.10918775299 0.10071174268 0.092077677615 0.083352648289 0.074607343012 0.065914329698 0.057348302167 0.048989219122 
0.040926990394 0.033264859904 0.026118969793 0.019613411693 0.013872098165 0.0090098942171 0.0051252942985 0.002295893024 0.00057664595023 
4.4028923074e-17 
