# vtk DataFile Version 5.1
vtk output
ASCII
DATASET POLYDATA
POINTS 100 float
0.173973 0.0655097 -0.672526 0.173924 0.0654412 -0.672495 0.173814 0.0650665 -0.672371 
0.173654 0.0643991 -0.672067 0.173452 0.0634581 -0.671448 0.173214 0.0622635 -0.670353 
0.17293 0.0608309 -0.668612 0.172571 0.0591658 -0.666065 0.17208 0.0572605 -0.662584 
0.171373 0.0550915 -0.658083 0.170339 0.0526204 -0.652529 0.168845 0.0497978 -0.645943 
0.166747 0.0465688 -0.638392 0.163901 0.0428806 -0.629976 0.160178 0.0386921 -0.620812 
0.155478 0.0339813 -0.611019 0.149741 0.0287533 -0.600694 0.142953 0.0230443 -0.589901 
0.135159 0.016924 -0.578664 0.126448 0.0104928 -0.566961 0.11696 0.00387752 -0.554731 
0.106862 -0.00277766 -0.541881 0.0963424 -0.00932071 -0.528305 0.0855892 -0.0156029 -0.513898 
0.0747746 -0.0214895 -0.498574 0.064041 -0.0268685 -0.482281 0.0534901 -0.0316571 -0.465009 
0.0431774 -0.035805 -0.446795 0.033113 -0.0392941 -0.427716 0.0232672 -0.0421352 -0.407884 
0.0135813 -0.0443623 -0.387429 0.00398261 -0.0460244 -0.366481 -0.00560005 -0.0471782 -0.345156 
-0.0152199 -0.0478802 -0.323536 -0.0248987 -0.0481807 -0.301663 -0.0346163 -0.0481197 -0.279531 
-0.044306 -0.0477263 -0.257091 -0.053855 -0.0470192 -0.234262 -0.0631102 -0.0460101 -0.210941 
-0.0718888 -0.0447085 -0.187028 -0.0799927 -0.0431262 -0.162443 -0.0872243 -0.0412823 -0.137146 
-0.0934026 -0.0392057 -0.111151 -0.0983775 -0.036937 -0.0845359 -0.102041 -0.0345274 -0.0574421 
-0.104337 -0.0320357 -0.0300697 -0.105257 -0.0295243 -0.00266277 -0.104847 -0.027053 0.02451 
-0.103196 -0.0246745 0.0511779 -0.100428 -0.0224291 0.0770916 -0.0966917 -0.0203422 0.102045 
-0.092148 -0.018423 0.12589 -0.0869597 -0.016666 0.14855 -0.0812821 -0.0150549 0.17002 
-0.0752552 -0.013567 0.190365 -0.0689996 -0.0121798 0.209704 -0.0626143 -0.0108765 0.2282 
-0.0561767 -0.00965082 0.246034 -0.0497446 -0.0085103 0.263389 -0.0433587 -0.00747655 0.280432 
-0.0370464 -0.00658342 0.297296 -0.0308241 -0.00587265 0.314073 -0.0247008 -0.00538766 0.330811 
-0.0186792 -0.00516645 0.347515 -0.0127579 -0.00523459 0.364152 -0.00693259 -0.00559937 0.380664 
-0.00119682 -0.00624606 0.396977 0.00445626 -0.00713702 0.413013 0.0100323 -0.00821377 0.428699 
0.0155336 -0.00940207 0.443975 0.0209566 -0.0106193 0.458794 0.0262899 -0.0117832 0.473127 
0.0315117 -0.0128212 0.486951 0.0365897 -0.013678 0.500252 0.0414806 -0.014322 0.513016 
0.0461327 -0.014748 0.525222 0.0504893 -0.0149768 0.536843 0.0544936 -0.0150513 0.547842 
0.0580952 -0.0150296 0.558177 0.0612562 -0.0149757 0.567802 0.0639573 -0.0149503 0.576679 
0.0662025 -0.015001 0.584782 0.0680212 -0.0151549 0.592102 0.0694686 -0.0154142 0.598657 
0.0706219 -0.015755 0.604489 0.0715749 -0.0161305 0.609664 0.0724289 -0.0164769 0.61427 
0.0732836 -0.0167229 0.618403 0.0742262 -0.0168 0.622161 0.0753218 -0.0166533 0.625635 
0.0766064 -0.0162508 0.628895 0.0780814 -0.0155896 0.631983 0.0797133 -0.0146991 0.634911 
0.0814363 -0.0136393 0.63766 0.0831592 -0.0124958 0.640181 0.0847748 -0.0113704 0.642407 
0.0861717 -0.0103703 0.644259 0.0872469 -0.00959525 0.645661 0.0879169 -0.00912625 0.646547 
0.0881276 -0.00901578 0.646875 
LINES 2 100
OFFSETS vtktypeint64
0 100 
CONNECTIVITY vtktypeint64
0 1 2 3 4 5 6 7 8 
9 10 11 12 13 14 15 16 17 
18 19 20 21 22 23 24 25 26 
27 28 29 30 31 32 33 34 35 
36 37 38 39 40 41 42 43 44 
45 46 47 48 49 50 51 52 53 
54 55 56 57 58 59 60 61 62 
63 64 65 66 67 68 69 70 71 
72 73 74 75 76 77 78 79 80 
81 82 83 84 85 86 87 88 89 
90 91 92 93 94 95 96 97 98 
99 
POINT_DATA 100
FIELD FieldData 3
_theta 1 100 double
0 0.031733259127 0.063466518254 0.095199777382 0.12693303651 0.15866629564 0.19039955476 0.22213281389 0.25386607302 
0.28559933214 0.31733259127 0.3490658504 0.38079910953 0.41253236865 0.44426562778 0.47599888691 0.50773214603 0.53946540516 
0.57119866429 0.60293192342 0.63466518254 0.66639844167 0.6981317008 0.72986495992 0.76159821905 0.79333147818 0.82506473731 
0.85679799643 0.88853125556 0.92026451469 0.95199777382 0.98373103294 1.0154642921 1.0471975512 1.0789308103 1.1106640695 
1.1423973286 1.1741305877 1.2058638468 1.237597106 1.2693303651 1.3010636242 1.3327968833 1.3645301425 1.3962634016 
1.4279966607 1.4597299198 1.491463179 1.5231964381 1.5549296972 1.5866629564 1.6183962155 1.6501294746 1.6818627337 
1.7135959929 1.745329252 1.7770625111 1.8087957702 1.8405290294 1.8722622885 1.9039955476 1.9357288068 1.9674620659 
1.999195325 2.0309285841 2.0626618433 2.0943951024 2.1261283615 2.1578616206 2.1895948798 2.2213281389 2.253061398 
2.2847946572 2.3165279163 2.3482611754 2.3799944345 2.4117276937 2.4434609528 2.4751942119 2.506927471 2.5386607302 
2.5703939893 2.6021272484 2.6338605076 2.6655937667 2.6973270258 2.7290602849 2.7607935441 2.7925268032 2.8242600623 
2.8559933214 2.8877265806 2.9194598397 2.9511930988 2.982926358 3.0146596171 3.0463928762 3.0781261353 3.1098593945 
3.1415926536 
_radius 1 100 double
7.9249337844e-16 0.015195580814 0.030352630412 0.045425047229 0.060359000161 0.07508954311 0.089538152438 0.10361177365 0.11720371323 
0.13019631104 0.14246503743 0.15388362605 0.16433001355 0.17369302793 0.18187979255 0.18882364354 0.19449204606 0.19889364821 
0.20208334569 0.20416414826 0.20528480582 0.20563258688 0.20542125467 0.20487504511 0.20421018758 0.20361611059 0.20323883054 
0.20316897719 0.20343631197 0.2040114807 0.20481447413 0.2057283469 0.20661640342 0.2073410876 0.20778283649 0.20785702038 
0.20752697832 0.20681138215 0.20578490899 0.20457241083 0.2033381498 0.20227265172 0.2015795661 0.20146334943 0.20211661652 
0.20370530447 0.2063511019 0.21011313655 0.21497315361 0.22082899172 0.2274995237 0.23474105888 0.2422721048 0.24980175121 
0.25705703911 0.26380584251 0.26987320302 0.27515024978 0.27959569761 0.28323050834 0.28612673727 0.28839196896 0.2901511227 
0.29152774642 0.29262709662 0.29352315356 0.29425113205 0.29480607547 0.29514701393 0.29520525831 0.29489491717 0.29412369787 
0.29280237362 0.29085181856 0.2882071027 0.28481869075 0.28065121838 0.27568059447 0.26989032369 0.26326801324 0.2558030223 
0.24748606409 0.23831118026 0.22827986919 0.21740641732 0.20572293469 0.19328248665 0.18015912327 0.16644438925 0.15224076308 
0.1376531638 0.12278006171 0.10770584052 0.092495886443 0.077195372547 0.061831848663 0.046420694999 0.030971615314 0.015494058554 
1.4426710309e-15 
_area 1 100 double
0 0.00054731378909 0.0021884310064 0.00492041538 0.0087355987899 0.013614783036 0.019516447756 0.026365091548 0.034042385454 
0.04238293288 0.051174457737 0.060161783879 0.069054837487 0.07754182546 0.085308450125 0.092062308983 0.097559514893 0.101629308 
0.10419253986 0.10527114923 0.10498758765 0.10355510291 0.10126140861 0.098449032269 0.095494928215 0.092789519909 0.090709278876 
0.089538610186 0.089303288663 0.089877764117 0.091087615149 0.092732327229 0.094605569166 0.096520343027 0.098334774022 0.099981105651 
0.101491963 0.10297383783 0.10448245993 0.10597112769 0.10738801907 0.1087493634 0.11014986295 0.11173801749 0.11368516999 
0.11619966577 0.11954542533 0.12400031435 0.129781732 0.13698453881 0.14555079649 0.15526827105 0.16579148303 0.17668440108 
0.18747805743 0.19772817656 0.207060783 0.21520160049 0.22198984536 0.22737834692 0.23142186819 0.23425525168 0.23606311106 
0.23704451081 0.23737992544 0.23720880353 0.23661994175 0.23565035854 0.23428797345 0.23247625035 0.23012118784 0.2271017289 
0.2232842226 0.21854099831 0.21277214278 0.20592640441 0.19801345023 0.18910125627 0.17929989614 0.16873987282 0.15755451749 
0.14587247375 0.13382087922 0.12153506762 0.10916787635 0.09689170052 0.084889593737 0.073337292506 0.062383714822 0.052139683569 
0.042680378042 0.034058016072 0.026315465861 0.019494105947 0.013635474398 0.0087795317977 0.0049621467801 0.0022130463431 0.00055442340338 
1.4854416744e-17 
