# vtk DataFile Version 5.1
vtk output
ASCII
DATASET POLYDATA
POINTS 100 float
0.073603 0.017074 -0.608507 0.0737148 0.0171705 -0.608412 0.0741027 0.017316 -0.608162 
0.0747096 0.0175099 -0.60769 0.0754446 0.0177484 -0.60689 0.076191 0.0180218 -0.605628 
0.0768154 0.018312 -0.603759 0.0771789 0.0185897 -0.601138 0.0771469 0.0188134 -0.59764 
0.0765992 0.0189285 -0.593163 0.0754372 0.0188691 -0.587646 0.0735898 0.018561 -0.581066 
0.0710158 0.0179262 -0.573441 0.0677041 0.0168895 -0.564822 0.0636723 0.0153852 -0.555289 
0.058963 0.0133645 -0.544936 0.053639 0.0108021 -0.533862 0.0477783 0.00770127 -0.522158 
0.0414691 0.00409709 -0.509901 0.0348052 5.71062e-05 -0.497146 0.0278813 -0.00432101 -0.483925 
0.0207902 -0.00891451 -0.470245 0.013619 -0.0135832 -0.456094 0.00644641 -0.0181788 -0.441448 
-0.000660061 -0.0225559 -0.426278 -0.00764691 -0.0265822 -0.410554 -0.0144773 -0.0301484 -0.394254 
-0.0211334 -0.0331762 -0.377371 -0.0276179 -0.0356232 -0.359907 -0.0339545 -0.0374848 -0.341881 
-0.0401864 -0.0387926 -0.32332 -0.0463729 -0.0396095 -0.304255 -0.0525835 -0.0400216 -0.284718 
-0.0588897 -0.0401286 -0.264738 -0.0653554 -0.0400326 -0.244332 -0.0720256 -0.0398276 -0.223509 
-0.0789154 -0.0395897 -0.202267 -0.0860002 -0.0393699 -0.180599 -0.0932086 -0.0391896 -0.158497 
-0.100419 -0.0390405 -0.135958 -0.10746 -0.0388863 -0.112993 -0.114118 -0.0386698 -0.0896301 
-0.120148 -0.0383203 -0.0659241 -0.125289 -0.0377644 -0.0419554 -0.129283 -0.036936 -0.0178305 
-0.131897 -0.0357858 0.00632168 -0.13294 -0.0342894 0.0303562 -0.132283 -0.0324519 0.0541211 
-0.129868 -0.0303096 0.0774669 -0.125719 -0.0279278 0.100257 -0.119939 -0.0253959 0.122377 
-0.112701 -0.0228189 0.14374 -0.104238 -0.0203078 0.164292 -0.094819 -0.0179691 0.184014 
-0.084731 -0.0158945 0.202919 -0.0742527 -0.0141528 0.221045 -0.0636344 -0.0127837 0.238451 
-0.0530793 -0.0117954 0.255209 -0.0427315 -0.0111653 0.271393 -0.0326711 -0.0108442 0.287076 
-0.0229154 -0.0107631 0.302323 -0.0134277 -0.0108422 0.317185 -0.00413177 -0.0110005 0.331705 
0.00507094 -0.0111655 0.345911 0.0142818 -0.0112809 0.359826 0.0235871 -0.0113129 0.37347 
0.0330426 -0.0112524 0.386861 0.0426637 -0.0111153 0.400023 0.0524207 -0.0109383 0.412984 
0.0622409 -0.0107737 0.425779 0.0720159 -0.0106806 0.438446 0.0816134 -0.0107171 0.451024 
0.0908921 -0.0109314 0.463545 0.0997172 -0.0113548 0.476034 0.107974 -0.0119972 0.488496 
0.115579 -0.0128446 0.500918 0.122488 -0.0138605 0.513264 0.128695 -0.0149891 0.525475 
0.13423 -0.0161617 0.53747 0.139154 -0.017304 0.549153 0.143543 -0.0183448 0.560418 
0.14748 -0.0192231 0.571155 0.151042 -0.019895 0.581261 0.15429 -0.0203379 0.590645 
0.157263 -0.0205518 0.599237 0.159976 -0.0205585 0.60699 0.162422 -0.020398 0.613884 
0.164577 -0.0201229 0.619925 0.166408 -0.0197911 0.625141 0.167886 -0.0194593 0.629583 
0.16899 -0.0191757 0.633315 0.169719 -0.0189754 0.636409 0.170097 -0.0188768 0.63894 
0.170172 -0.0188812 0.640983 0.170012 -0.0189741 0.642606 0.169701 -0.0191293 0.643866 
0.16933 -0.0193136 0.644814 0.168982 -0.0194932 0.645486 0.168729 -0.0196389 0.645909 
0.168615 -0.0197317 0.646097 
LINES 2 100
OFFSETS vtktypeint64
0 100 
CONNECTIVITY vtktypeint64
0 1 2 3 4 5 6 7 8 
9 10 11 12 13 14 15 16 17 
18 19 20 21 22 23 24 25 26 
27 28 29 30 31 32 33 34 35 
36 37 38 39 40 41 42 43 44 
45 46 47 48 49 50 51 52 53 
54 55 56 57 58 59 60 61 62 
63 64 65 66 67 68 69 70 71 
72 73 74 75 76 77 78 79 80 
81 82 83 84 85 86 87 88 89 
90 91 92 93 94 95 96 97 98 
99 
POINT_DATA 100
FIELD FieldData 3
_theta 1 100 double
0 0.031733259127 0.063466518254 0.095199777382 0.12693303651 0.15866629564 0.19039955476 0.22213281389 0.25386607302 
0.28559933214 0.31733259127 0.3490658504 0.38079910953 0.41253236865 0.44426562778 0.47599888691 0.50773214603 0.53946540516 
0.57119866429 0.60293192342 0.63466518254 0.66639844167 0.6981317008 0.72986495992 0.76159821905 0.79333147818 0.82506473731 
0.85679799643 0.88853125556 0.92026451469 0.95199777382 0.98373103294 1.0154642921 1.0471975512 1.0789308103 1.1106640695 
1.1423973286 1.1741305877 1.2058638468 1.237597106 1.2693303651 1.3010636242 1.3327968833 1.3645301425 1.3962634016 
1.4279966607 1.4597299198 1.491463179 1.5231964381 1.5549296972 1.5866629564 1.6183962155 1.6501294746 1.6818627337 
1.7135959929 1.745329252 1.7770625111 1.8087957702 1.8405290294 1.8722622885 1.9039955476 1.9357288068 1.9674620659 
1.999195325 2.0309285841 2.0626618433 2.0943951024 2.1261283615 2.1578616206 2.1895948798 2.2213281389 2.253061398 
2.2847946572 2.3165279163 2.3482611754 2.3799944345 2.4117276937 2.4434609528 2.4751942119 2.506927471 2.5386607302 
2.5703939893 2.6021272484 2.6338605076 2.6655937667 2.6973270258 2.7290602849 2.7607935441 2.7925268032 2.8242600623 
2.8559933214 2.8877265806 2.9194598397 2.9511930988 2.982926358 3.0146596171 3.0463928762 3.0781261353 3.1098593945 
3.1415926536 
_radius 1 100 double
1.5605300879e-15 0.012813964538 0.025624508563 0.038413149617 0.051140576196 0.06374133186 0.076123322744 0.088171928254 0.099757556012 
0.11074506403 0.12100360606 0.13041589817 0.13888634997 0.1463477588 0.15276630346 0.15814450547 0.16252180285 0.16597250265 
0.16860113173 0.17053548329 0.17191785958 0.17289513974 0.17360843793 0.1741832864 0.17472136981 0.17529469271 0.17594266073 
0.17667207369 0.17745969915 0.17825701385 0.17899677864 0.17960118272 0.17999124702 0.18009700309 0.17986770565 0.17928104715 
0.17835008819 0.17712651779 0.17569909318 0.17418685061 0.17272793755 0.17146637415 0.17053995403 0.17007189737 0.17016661197 
0.17090743634 0.1723535227 0.17453450838 0.17744391442 0.18103370921 0.18521262668 0.18984988944 0.19478442221 0.19983801862 
0.20482992451 0.20959032934 0.2139710975 0.21785310354 0.22115027512 0.22381077704 0.22581581771 0.2271764964 0.2279290588 
0.22812894575 0.22784410239 0.22714811241 0.22611377234 0.22480768591 0.22328632792 0.22159379926 0.21976117389 0.217806979 
0.21573808471 0.21355027611 0.21122810584 0.20874415398 0.20605828617 0.20311767008 0.19985814753 0.19620720307 0.1920883944 
0.18742680307 0.18215483455 0.17621755594 0.16957674889 0.16221301869 0.15412564342 0.14533032439 0.1358555042 0.12573827642 
0.11502093213 0.10374881597 0.091969581109 0.079733454504 0.067093944637 0.054108505552 0.040838859783 0.027350861749 0.013713910865 
5.5696135438e-16 
_area 1 100 double
0 0.00035589748147 0.0014429522198 0.0033121947232 0.0060266676531 0.0096347226122 0.014144161126 0.019503125025 0.025590472376 
0.032216726688 0.039136096676 0.046069198389 0.052734122742 0.058880506679 0.064318660904 0.068935638253 0.072693771828 0.075613971082 
0.077752603922 0.079182824857 0.079987273077 0.080262235038 0.080128291858 0.079743033819 0.07933563552 0.079227630031 0.079426801919 
0.079865705623 0.080457127132 0.081118714637 0.081727209261 0.082142002235 0.082295492954 0.082140601711 0.081648211785 0.080850158894 
0.079790606088 0.078618692871 0.077586183542 0.077063437159 0.07716928164 0.077754783087 0.078748170945 0.080141359147 0.08194741474 
0.084187286483 0.086891992629 0.090088498625 0.09378354622 0.097958270712 0.1025708181 0.10755988948 0.11284492666 0.1183228673 
0.1238635156 0.12930572097 0.13445894428 0.13911642994 0.14308026741 0.14618990562 0.14834367872 0.1495078334 0.1497136279 
0.14904659949 0.14763268248 0.1456241918 0.14318504721 0.14047111608 0.13760709474 0.13467427256 0.13171606011 0.12875073102 
0.12578258537 0.12280886625 0.1198215095 0.11680427932 0.11372702958 0.11053911191 0.10716429445 0.10350050676 0.099428100255 
0.094828303335 0.089609011609 0.083730504439 0.077222380684 0.070185901258 0.062781077944 0.055202638662 0.047651923608 0.040312379303 
0.033334629124 0.026833521665 0.020895077029 0.015587668341 0.010971334397 0.0071020494961 0.00403135827 0.0018035840949 0.00045270492982 
4.7311842577e-17 
