# vtk DataFile Version 5.1
vtk output
ASCII
DATASET POLYDATA
POINTS 100 float
0.158903 0.0401365 -0.630738 0.158678 0.0401924 -0.630845 0.158058 0.0402395 -0.631201 
0.157051 0.0402735 -0.631689 0.155671 0.0402843 -0.632128 0.153934 0.0402554 -0.632292 
0.151859 0.0401618 -0.631934 0.149459 0.0399697 -0.630815 0.146749 0.0396365 -0.628724 
0.143732 0.0391112 -0.6255 0.140404 0.0383366 -0.621046 0.136751 0.0372521 -0.615335 
0.132744 0.035798 -0.608407 0.128344 0.0339194 -0.60036 0.123502 0.0315711 -0.591331 
0.118162 0.0287222 -0.58148 0.112266 0.0253588 -0.570968 0.105761 0.0214875 -0.559936 
0.0986054 0.0171357 -0.548489 0.0907745 0.0123513 -0.536687 0.0822682 0.00720134 -0.524543 
0.0731141 0.00176814 -0.512022 0.0633705 -0.00385399 -0.499053 0.0531246 -0.00956335 -0.485544 
0.0424896 -0.0152552 -0.471391 0.0315973 -0.0208257 -0.456503 0.0205899 -0.0261754 -0.440809 
0.00960866 -0.0312116 -0.424269 -0.00121643 -0.03585 -0.406881 -0.0117769 -0.0400158 -0.388678 
-0.0219936 -0.0436443 -0.369724 -0.0318212 -0.0466808 -0.350102 -0.0412492 -0.0490814 -0.329906 
-0.0502977 -0.0508131 -0.309224 -0.0590101 -0.0518555 -0.28813 -0.0674414 -0.0522015 -0.266676 
-0.0756452 -0.0518596 -0.244885 -0.0836592 -0.0508548 -0.222756 -0.0914926 -0.0492302 -0.200267 
-0.0991155 -0.0470469 -0.177385 -0.106453 -0.0443831 -0.154076 -0.113384 -0.0413319 -0.130318 
-0.119747 -0.0379972 -0.106112 -0.125349 -0.0344883 -0.0814873 -0.129983 -0.0309141 -0.0565109 
-0.133441 -0.0273757 -0.0312825 -0.135541 -0.0239607 -0.00593159 -0.136136 -0.0207368 0.019391 
-0.135139 -0.0177481 0.0445246 -0.132526 -0.0150135 0.0693108 -0.128347 -0.0125267 0.093606 
-0.122717 -0.0102603 0.117291 -0.115816 -0.00817038 0.140276 -0.107867 -0.00620447 0.16251 
-0.0991252 -0.00430975 0.183971 -0.0898496 -0.00244149 0.204667 -0.0802888 -0.000570688 0.224628 
-0.0706598 0.00131006 0.243898 -0.0611345 0.00318332 0.262521 -0.0518303 0.00500649 0.280539 
-0.0428079 0.00671459 0.297985 -0.0340747 0.00822604 0.314878 -0.0255937 0.00945063 0.331226 
-0.0172967 0.010299 0.347031 -0.0090993 0.0106927 0.362289 -0.000917387 0.0105731 0.377002 
0.00731914 0.00990919 0.391181 0.015655 0.00870245 0.404855 0.0241029 0.0069885 0.418067 
0.0326414 0.00483566 0.430877 0.0412178 0.00234013 0.44336 0.0497551 -0.000381433 0.455595 
0.0581616 -0.00320123 0.467659 0.0663422 -0.00599055 0.479614 0.0742086 -0.00862973 0.491503 
0.0816889 -0.0110171 0.503338 0.0887336 -0.0130757 0.515097 0.0953183 -0.0147574 0.526722 
0.101442 -0.0160444 0.538122 0.107125 -0.0169476 0.549182 0.112398 -0.0175023 0.559767 
0.117299 -0.0177627 0.56974 0.12186 -0.0177947 0.578968 0.126106 -0.0176686 0.587338 
0.130048 -0.0174524 0.594765 0.13368 -0.0172064 0.601198 0.136983 -0.0169788 0.606627 
0.139929 -0.0168038 0.611076 0.14249 -0.0167015 0.614607 0.144638 -0.0166783 0.617307 
0.146362 -0.01673 0.619286 0.147664 -0.0168445 0.620664 0.148571 -0.017005 0.621562 
0.149129 -0.0171931 0.622098 0.1494 -0.0173907 0.622379 0.149461 -0.0175826 0.622498 
0.149392 -0.0177564 0.622528 0.149267 -0.0179034 0.622527 0.149147 -0.0180184 0.622536 
0.149073 -0.0180988 0.622578 
LINES 2 100
OFFSETS vtktypeint64
0 100 
CONNECTIVITY vtktypeint64
0 1 2 3 4 5 6 7 8 
9 10 11 12 13 14 15 16 17 
18 19 20 21 22 23 24 25 26 
27 28 29 30 31 32 33 34 35 
36 37 38 39 40 41 42 43 44 
45 46 47 48 49 50 51 52 53 
54 55 56 57 58 59 60 61 62 
63 64 65 66 67 68 69 70 71 
72 73 74 75 76 77 78 79 80 
81 82 83 84 85 86 87 88 89 
90 91 92 93 94 95 96 97 98 
99 
POINT_DATA 100
FIELD FieldData 3
_theta 1 100 double
0 0.031733259127 0.063466518254 0.095199777382 0.12693303651 0.15866629564 0.19039955476 0.22213281389 0.25386607302 
0.28559933214 0.31733259127 0.3490658504 0.38079910953 0.41253236865 0.44426562778 0.47599888691 0.50773214603 0.53946540516 
0.57119866429 0.60293192342 0.63466518254 0.66639844167 0.6981317008 0.72986495992 0.76159821905 0.79333147818 0.82506473731 
0.85679799643 0.88853125556 0.92026451469 0.95199777382 0.98373103294 1.0154642921 1.0471975512 1.0789308103 1.1106640695 
1.1423973286 1.1741305877 1.2058638468 1.237597106 1.2693303651 1.3010636242 1.3327968833 1.3645301425 1.3962634016 
1.4279966607 1.4597299198 1.491463179 1.5231964381 1.5549296972 1.5866629564 1.6183962155 1.6501294746 1.6818627337 
1.7135959929 1.745329252 1.7770625111 1.8087957702 1.8405290294 1.8722622885 1.9039955476 1.9357288068 1.9674620659 
1.999195325 2.0309285841 2.0626618433 2.0943951024 2.1261283615 2.1578616206 2.1895948798 2.2213281389 2.253061398 
2.2847946572 2.3165279163 2.3482611754 2.3799944345 2.4117276937 2.4434609528 2.4751942119 2.506927471 2.5386607302 
2.5703939893 2.6021272484 2.6338605076 2.6655937667 2.6973270258 2.7290602849 2.7607935441 2.7925268032 2.8242600623 
2.8559933214 2.8877265806 2.9194598397 2.9511930988 2.982926358 3.0146596171 3.0463928762 3.0781261353 3.1098593945 
3.1415926536 
_radius 1 100 double
1.3334416646e-15 0.015256323916 0.030407168935 0.045353787742 0.060008294709 0.074294797577 0.088147119413 0.10150412205 0.1143043377 
0.12648172689 0.13796393026 0.14867357423 0.15853233821 0.16746687635 0.17541544798 0.18233421338 0.18820244126 0.19302617859 
0.19684013932 0.19970765728 0.20171857634 0.20298501147 0.20363508529 0.2038050427 0.2036304871 0.20323770831 0.20273604621 
0.20221195344 0.20172505284 0.20130624313 0.200957888 0.20065625682 0.20035650281 0.2000004021 0.19952672673 0.19888346674 
0.19804028778 0.19699894588 0.19579929866 0.19451924601 0.1932681682 0.19217478995 0.1913717806 0.19098073803 0.19110159854 
0.19180867981 0.19315190796 0.19515897555 0.1978345524 0.20115581907 0.20506699502 0.20947679289 0.21426134029 0.2192725988 
0.22435055818 0.22933702309 0.23408896513 0.23848959272 0.24245556665 0.24593943 0.24892727521 0.25143259691 0.25348786866 
0.25513553012 0.25641984267 0.25738059094 0.25804900061 0.25844565135 0.25857975176 0.25844903973 0.25803979438 0.25732687432 
0.25627412186 0.25483565784 0.25295839226 0.2505855665 0.24766061969 0.24413047751 0.23994762605 0.23507089611 0.2294654239 
0.22310251355 0.2159600347 0.20802364367 0.19928869453 0.18976236245 0.17946532581 0.16843237438 0.15671151131 0.14436145267 
0.13144783063 0.11803877964 0.1042008178 0.089995927576 0.075480445297 0.060705841064 0.045720873624 0.030574171305 0.015316211999 
2.0124114727e-16 
_area 1 100 double
0 0.00047321239106 0.0019165750924 0.0043908303705 0.007966340297 0.012688521457 0.018547128879 0.025457258297 0.033255130597 
0.041707546907 0.050531116347 0.059416034234 0.068049377824 0.076134531494 0.083405921771 0.089640613166 0.094669230934 0.098387584235 
0.10076792495 0.10186650437 0.10182338715 0.10085186529 0.099217709461 0.097211489166 0.095118600943 0.093190358892 0.091616434922 
0.090499990999 0.089848013909 0.089591644444 0.089626194475 0.089846378159 0.090166376411 0.09052744661 0.09089792045 0.09126969989 
0.091657172263 0.09210509188 0.092702939948 0.093582678069 0.094864123707 0.096566653186 0.098605097125 0.1008553353 0.10322080739 
0.10566891413 0.10825416713 0.11111721129 0.11443677113 0.11836652873 0.12300753953 0.12838876902 0.13445710592 0.14108570339 
0.14808094045 0.15519001055 0.16212396777 0.16859667445 0.17436675937 0.17926986949 0.18323465289 0.18628183983 0.18851134304 
0.19008285635 0.19118620118 0.19198638654 0.19254288927 0.19276826092 0.19249309453 0.19156811388 0.1899150346 0.18753063813 
0.18447222818 0.18083625589 0.17673129668 0.17224522509 0.16741308431 0.16220093258 0.15651724541 0.15024495491 0.14327641808 
0.13554026494 0.12701779328 0.11774937649 0.10783212787 0.097411204619 0.086667903556 0.075807342972 0.065047204798 0.054607497463 
0.044700461174 0.0355200006 0.027231113896 0.019960965217 0.013793826373 0.0087717242782 0.0049013275704 0.0021658609056 0.00053936616457 
3.179378205e-17 
