# vtk DataFile Version 5.1
vtk output
ASCII
DATASET POLYDATA
POINTS 100 float
0.108389 0.0391636 -0.605751 0.108152 0.0391381 -0.605647 0.107454 0.0388898 -0.605353 
0.106372 0.0384228 -0.604804 0.105026 0.0377426 -0.603907 0.103552 0.0368549 -0.602543 
0.102086 0.0357634 -0.600593 0.100735 0.034469 -0.597945 0.0995638 0.0329682 -0.594512 
0.0985722 0.0312529 -0.590241 0.0976938 0.0293104 -0.585117 0.0967953 0.0271246 -0.579164 
0.0956876 0.0246779 -0.572437 0.0941451 0.0219537 -0.565008 0.0919292 0.0189392 -0.556957 
0.0888159 0.0156285 -0.548357 0.0846218 0.0120254 -0.539257 0.0792262 0.0081455 -0.529676 
0.072587 0.00401766 -0.5196 0.0647472 -0.000315722 -0.50898 0.0558321 -0.00479943 -0.497739 
0.0460374 -0.00936734 -0.485789 0.0356094 -0.0139451 -0.473038 0.0248199 -0.0184539 -0.45941 
0.0139388 -0.022814 -0.444854 0.00320798 -0.026949 -0.429358 -0.00718072 -0.0307894 -0.41295 
-0.0171006 -0.0342759 -0.395696 -0.0264966 -0.0373617 -0.377696 -0.035383 -0.0400138 -0.359067 
-0.0438321 -0.0422137 -0.339928 -0.051956 -0.0439569 -0.320385 -0.059884 -0.0452514 -0.300516 
-0.0677374 -0.0461163 -0.280359 -0.0756069 -0.046579 -0.259908 -0.0835332 -0.046673 -0.239112 
-0.0914937 -0.0464356 -0.217889 -0.0993985 -0.0459054 -0.196136 -0.107093 -0.0451208 -0.173749 
-0.114368 -0.0441179 -0.150646 -0.120978 -0.0429301 -0.126783 -0.126665 -0.041587 -0.102173 
-0.131175 -0.0401142 -0.0768928 -0.134286 -0.0385333 -0.0510876 -0.135825 -0.0368622 -0.024962 
-0.135683 -0.035115 0.00123305 -0.133821 -0.0333036 0.0272206 -0.130274 -0.0314372 0.0527225 
-0.125145 -0.029524 0.0774839 -0.118595 -0.0275716 0.101297 -0.11083 -0.0255881 0.124018 
-0.102085 -0.0235831 0.145579 -0.09261 -0.0215683 0.165991 -0.0826501 -0.0195585 0.185334 
-0.0724372 -0.0175723 0.203747 -0.0621779 -0.0156316 0.221406 -0.0520467 -0.0137621 0.238504 
-0.0421822 -0.0119922 0.255222 -0.0326854 -0.010352 0.271715 -0.0236205 -0.00887194 0.288091 
-0.015017 -0.00758062 0.304408 -0.0068728 -0.00650314 0.32067 0.000842477 -0.00565902 0.336832 
0.00818291 -0.00506051 0.352819 0.0152217 -0.0047114 0.368538 0.0220455 -0.00460633 0.383899 
0.0287485 -0.00473087 0.398831 0.0354248 -0.00506237 0.413295 0.0421612 -0.00557149 0.427294 
0.0490283 -0.00622432 0.440874 0.0560733 -0.00698487 0.454116 0.0633127 -0.00781768 0.467125 
0.0707282 -0.00869028 0.480015 0.0782641 -0.00957527 0.492892 0.0858293 -0.0104517 0.505835 
0.0933024 -0.0113058 0.518883 0.100541 -0.0121308 0.532024 0.107394 -0.0129257 0.545196 
0.113714 -0.013694 0.558285 0.119375 -0.0144416 0.57114 0.124283 -0.0151746 0.583587 
0.12839 -0.0158969 0.595443 0.131698 -0.0166094 0.606539 0.134262 -0.0173082 0.616733 
0.136185 -0.0179849 0.625926 0.137609 -0.018627 0.634067 0.138703 -0.0192192 0.641153 
0.139639 -0.0197454 0.64723 0.140582 -0.0201909 0.652381 0.141665 -0.0205443 0.656712 
0.142981 -0.0207997 0.660342 0.144566 -0.0209578 0.663387 0.146404 -0.0210265 0.665948 
0.148422 -0.0210207 0.668106 0.150504 -0.0209608 0.669917 0.152505 -0.0208712 0.671413 
0.154268 -0.0207773 0.672603 0.155646 -0.0207035 0.673486 0.156516 -0.0206698 0.674053 
0.1568 -0.0206904 0.674295 
LINES 2 100
OFFSETS vtktypeint64
0 100 
CONNECTIVITY vtktypeint64
0 1 2 3 4 5 6 7 8 
9 10 11 12 13 14 15 16 17 
18 19 20 21 22 23 24 25 26 
27 28 29 30 31 32 33 34 35 
36 37 38 39 40 41 42 43 44 
45 46 47 48 49 50 51 52 53 
54 55 56 57 58 59 60 61 62 
63 64 65 66 67 68 69 70 71 
72 73 74 75 76 77 78 79 80 
81 82 83 84 85 86 87 88 89 
90 91 92 93 94 95 96 97 98 
99 
POINT_DATA 100
FIELD FieldData 3
_theta 1 100 double
0 0.031733259127 0.063466518254 0.095199777382 0.12693303651 0.15866629564 0.19039955476 0.22213281389 0.25386607302 
0.28559933214 0.31733259127 0.3490658504 0.38079910953 0.41253236865 0.44426562778 0.47599888691 0.50773214603 0.53946540516 
0.57119866429 0.60293192342 0.63466518254 0.66639844167 0.6981317008 0.72986495992 0.76159821905 0.79333147818 0.82506473731 
0.85679799643 0.88853125556 0.92026451469 0.95199777382 0.98373103294 1.0154642921 1.0471975512 1.0789308103 1.1106640695 
1.1423973286 1.1741305877 1.2058638468 1.237597106 1.2693303651 1.3010636242 1.3327968833 1.3645301425 1.3962634016 
1.4279966607 1.4597299198 1.491463179 1.5231964381 1.5549296972 1.5866629564 1.6183962155 1.6501294746 1.6818627337 
1.7135959929 1.745329252 1.7770625111 1.8087957702 1.8405290294 1.8722622885 1.9039955476 1.9357288068 1.9674620659 
1.999195325 2.0309285841 2.0626618433 2.0943951024 2.1261283615 2.1578616206 2.1895948798 2.2213281389 2.253061398 
2.2847946572 2.3165279163 2.3482611754 2.3799944345 2.4117276937 2.4434609528 2.4751942119 2.506927471 2.5386607302 
2.5703939893 2.6021272484 2.6338605076 2.6655937667 2.6973270258 2.7290602849 2.7607935441 2.7925268032 2.8242600623 
2.8559933214 2.8877265806 2.9194598397 2.9511930988 2.982926358 3.0146596171 3.0463928762 3.0781261353 3.1098593945 
3.1415926536 
_radius 1 100 double
1.2295947115e-15 0.015960421487 0.031782280221 0.047332924714 0.062499337129 0.077194167855 0.091357840445 0.10495658339 0.1179767642 
0.13041623211 0.14227360745 0.15353674614 0.16417203658 0.1741166437 0.18327598893 0.19152830032 0.19873684684 0.20476873964 
0.20951749383 0.21292544674 0.21500188536 0.21583328841 0.21558323607 0.21448110085 0.21280046371 0.21083008309 0.20884181099 
0.20706063535 0.20564169343 0.20465767001 0.20409790272 0.20387842735 0.20386068514 0.20387593466 0.2037524284 0.20334273607 
0.20254876209 0.20134171259 0.1997736562 0.19797715591 0.19615088503 0.19453293122 0.19336855194 0.19288165703 0.19325563885 
0.1946215986 0.19704779732 0.2005272122 0.20496698461 0.21018761664 0.21593720608 0.22191922199 0.22782698961 0.23337711486 
0.2383362857 0.24253878717 0.24589427433 0.24838660509 0.25006507071 0.25102951499 0.25141093408 0.25134944603 0.25097212824 
0.25037402401 0.24960602674 0.24867242365 0.24753848316 0.24614588719 0.24443232232 0.24235122095 0.23988795599 0.23706945559 
0.23396518793 0.23067878136 0.22733117977 0.22403798436 0.22088502743 0.21790674468 0.215071373 0.21227564508 0.2093499313 
0.20607309234 0.20219492467 0.19746315892 0.19165153367 0.18458543843 0.17616191477 0.16636141447 0.15524968108 0.14296943139 
0.1297230114 0.1157485997 0.10129350014 0.086588354024 0.071825650834 0.057144910073 0.042625687961 0.028288457635 0.014102577977 
4.8950327979e-16 
_area 1 100 double
0 0.0005842098781 0.002321250257 0.0051671825148 0.0090571697881 0.013914808897 0.019659855355 0.026211349943 0.033484863177 
0.041384945739 0.04979553582 0.058570821049 0.067527768674 0.076441397342 0.085045241037 0.09304051664 0.10011663377 0.10598294813 
0.11040817913 0.11326075891 0.11454132405 0.11439836877 0.1131203851 0.1111024782 0.10879106123 0.1066142686 0.1049073908 
0.10384887824 0.10343635496 0.10352396894 0.10389753895 0.10434199017 0.10468155712 0.10479846553 0.10463998413 0.10422745225 
0.10368677431 0.10312302782 0.10273822168 0.10276901022 0.10323294174 0.10416775167 0.10551601694 0.1072231024 0.10928529851 
0.11178459212 0.11490178094 0.11889532184 0.12399902791 0.13023289629 0.13734188256 0.14493886575 0.15262128568 0.16001512082 
0.1667953612 0.17269279221 0.17749067539 0.18102332011 0.18318800571 0.18397191381 0.18348739598 0.18199415592 0.17985995464 
0.1772205051 0.17438474392 0.17127386297 0.16814904084 0.16478691952 0.16101751118 0.15681086911 0.15223622741 0.14753154629 
0.14298514989 0.13883302826 0.13518677279 0.13207769599 0.12947665069 0.12726863854 0.12524564752 0.12312585026 0.12058888741 
0.11731715465 0.11303718647 0.1075573006 0.1007973982 0.09280617004 0.083761480293 0.073952034905 0.063742256109 0.053526421928 
0.04368110608 0.034525563482 0.02629751031 0.019147268809 0.013147834271 0.0083141225258 0.0046238560412 0.0020358749018 0.00050582482174 
7.4937328651e-17 
