# vtk DataFile Version 5.1
vtk output
ASCII
DATASET POLYDATA
POINTS 100 float
0.130815 0.0833403 -0.710166 0.13061 0.0834489 -0.71011 0.130032 0.0835798 -0.709922 
0.129094 0.0836714 -0.709497 0.127812 0.0836284 -0.708672 0.126206 0.0833315 -0.707251 
0.124295 0.0826501 -0.705023 0.122096 0.0814558 -0.701794 0.119616 0.0796349 -0.697403 
0.116854 0.0771006 -0.691747 0.113796 0.0738003 -0.684784 0.110417 0.0697208 -0.676547 
0.106677 0.0648888 -0.667125 0.102529 0.0593672 -0.656661 0.0979214 0.0532489 -0.645326 
0.0927993 0.0466479 -0.6333 0.0871162 0.0396891 -0.620745 0.0808377 0.0324987 -0.607792 
0.0739486 0.0251954 -0.59452 0.066458 0.0178844 -0.580954 0.0584033 0.0106535 -0.567061 
0.0498514 0.00357268 -0.55276 0.0408976 -0.00330383 -0.537937 0.0316614 -0.00993335 -0.522462 
0.0222801 -0.0162793 -0.506208 0.0128997 -0.0223055 -0.489074 0.00366502 -0.0279714 -0.470996 
-0.00529154 -0.0332288 -0.451958 -0.0138596 -0.0380208 -0.431996 -0.0219594 -0.0422835 -0.411193 
-0.0295471 -0.0459497 -0.389667 -0.0366173 -0.0489551 -0.367559 -0.0432005 -0.0512446 -0.345014 
-0.0493579 -0.0527801 -0.322162 -0.0551714 -0.0535464 -0.299107 -0.0607324 -0.0535555 -0.275913 
-0.0661274 -0.0528491 -0.252603 -0.0714252 -0.0514974 -0.229158 -0.0766644 -0.0495951 -0.205528 
-0.0818444 -0.0472552 -0.181643 -0.08692 -0.0446001 -0.15743 -0.0918009 -0.0417526 -0.132829 
-0.0963565 -0.0388257 -0.107812 -0.100425 -0.0359147 -0.0823876 -0.103825 -0.0330907 -0.0566122 
-0.106376 -0.0303969 -0.0305882 -0.107908 -0.0278482 -0.00445752 -0.108283 -0.0254339 0.0216098 
-0.107407 -0.0231237 0.047431 -0.10524 -0.0208747 0.072828 -0.101802 -0.0186412 0.0976439 
-0.097168 -0.0163832 0.121757 -0.0914702 -0.014075 0.145089 -0.0848811 -0.0117115 0.167614 
-0.0776027 -0.00931177 0.18935 -0.06985 -0.00692019 0.210356 -0.0618346 -0.00460376 0.230722 
-0.0537501 -0.00244704 0.250549 -0.0457599 -0.000544717 0.269942 -0.0379887 0.00100731 0.288991 
-0.030519 0.00212132 0.30776 -0.0233918 0.00272671 0.326287 -0.016612 0.00277741 0.344575 
-0.0101565 0.0022573 0.362602 -0.00398455 0.00118285 0.380323 0.00195081 -0.000397016 0.397687 
0.00769272 -0.00240396 0.414641 0.0132719 -0.00473567 0.431145 0.018701 -0.00727324 0.447181 
0.0239726 -0.00988971 0.462754 0.0290598 -0.0124592 0.477897 0.0339205 -0.0148653 0.492664 
0.0385034 -0.017009 0.507123 0.042755 -0.0188146 0.521346 0.0466273 -0.0202336 0.535396 
0.0500839 -0.0212468 0.549316 0.0531046 -0.0218638 0.56312 0.0556874 -0.0221209 0.576784 
0.0578482 -0.0220771 0.590245 0.0596186 -0.0218088 0.603402 0.0610409 -0.0214035 0.616126 
0.0621628 -0.0209537 0.628264 0.0630321 -0.0205505 0.639657 0.0636911 -0.0202772 0.65015 
0.0641736 -0.0202045 0.659607 0.0645027 -0.0203866 0.667923 0.0646913 -0.0208577 0.675034 
0.0647441 -0.0216309 0.680918 0.0646613 -0.0226976 0.685603 0.0644425 -0.0240285 0.689157 
0.0640917 -0.0255759 0.69169 0.0636203 -0.0272765 0.69334 0.0630499 -0.0290558 0.694267 
0.0624126 -0.0308322 0.69464 0.0617497 -0.0325222 0.694628 0.0611085 -0.0340452 0.69439 
0.060538 -0.0353283 0.694067 0.0600837 -0.0363105 0.693774 0.0597828 -0.036946 0.693598 
0.0596596 -0.0372071 0.69359 
LINES 2 100
OFFSETS vtktypeint64
0 100 
CONNECTIVITY vtktypeint64
0 1 2 3 4 5 6 7 8 
9 10 11 12 13 14 15 16 17 
18 19 20 21 22 23 24 25 26 
27 28 29 30 31 32 33 34 35 
36 37 38 39 40 41 42 43 44 
45 46 47 48 49 50 51 52 53 
54 55 56 57 58 59 60 61 62 
63 64 65 66 67 68 69 70 71 
72 73 74 75 76 77 78 79 80 
81 82 83 84 85 86 87 88 89 
90 91 92 93 94 95 96 97 98 
99 
POINT_DATA 100
FIELD FieldData 3
_theta 1 100 double
0 0.031733259127 0.063466518254 0.095199777382 0.12693303651 0.15866629564 0.19039955476 0.22213281389 0.25386607302 
0.28559933214 0.31733259127 0.3490658504 0.38079910953 0.41253236865 0.44426562778 0.47599888691 0.50773214603 0.53946540516 
0.57119866429 0.60293192342 0.63466518254 0.66639844167 0.6981317008 0.72986495992 0.76159821905 0.79333147818 0.82506473731 
0.85679799643 0.88853125556 0.92026451469 0.95199777382 0.98373103294 1.0154642921 1.0471975512 1.0789308103 1.1106640695 
1.1423973286 1.1741305877 1.2058638468 1.237597106 1.2693303651 1.3010636242 1.3327968833 1.3645301425 1.3962634016 
1.4279966607 1.4597299198 1.491463179 1.5231964381 1.5549296972 1.5866629564 1.6183962155 1.6501294746 1.6818627337 
1.7135959929 1.745329252 1.7770625111 1.8087957702 1.8405290294 1.8722622885 1.9039955476 1.9357288068 1.9674620659 
1.999195325 2.0309285841 2.0626618433 2.0943951024 2.1261283615 2.1578616206 2.1895948798 2.2213281389 2.253061398 
2.2847946572 2.3165279163 2.3482611754 2.3799944345 2.4117276937 2.4434609528 2.4751942119 2.506927471 2.5386607302 
2.5703939893 2.6021272484 2.6338605076 2.6655937667 2.6973270258 2.7290602849 2.7607935441 2.7925268032 2.8242600623 
2.8559933214 2.8877265806 2.9194598397 2.9511930988 2.982926358 3.0146596171 3.0463928762 3.0781261353 3.1098593945 
3.1415926536 
_radius 1 100 double
1.2466085481e-15 0.015561994008 0.030962291155 0.046048164613 0.060680681422 0.074739164349 0.088123966789 0.1007577996 0.1125857096 
0.12357359287 0.13370513645 0.14297739617 0.15139568605 0.15896883325 0.16570593431 0.17161544529 0.17670683012 0.18099429333 
0.18450157919 0.18726657912 0.18934456765 0.1908092102 0.19175096671 0.19227307246 0.19248579853 0.19250000178 0.19242089383 
0.19234248925 0.19234261742 0.19247813809 0.19278035153 0.19325137403 0.19386292971 0.19455906446 0.19526357499 0.19589176172 
0.19636492005 0.19662511155 0.19664734073 0.19644639635 0.19607649198 0.19562366034 0.19519336764 0.1948977847 0.19484686567 
0.19514446931 0.19588722501 0.19716230756 0.19904149008 0.20157154885 0.20476355881 0.20858465978 0.21295519796 0.21775235852 
0.22281957163 0.22797988681 0.23305125529 0.23786184134 0.24226372922 0.24614361641 0.24942939087 0.25209196669 0.25414236041 
0.25562459657 0.25660550483 0.25716274815 0.25737252048 0.25729833036 0.25698217159 0.25643914008 0.2556561234 0.25459455683 
0.25319652021 0.25139285244 0.24911168866 0.24628596484 0.24285891287 0.23878719473 0.23404188082 0.22860781487 0.22248199503 
0.21567150326 0.20819133495 0.2000622997 0.19130902797 0.18195804588 0.17203588316 0.16156725405 0.15057347876 0.13907144939 
0.12707352894 0.11458874721 0.10162548551 0.088195525924 0.074318937852 0.060028905289 0.045375412625 0.030426812201 0.015268688907 
1.2022394423e-15 
_area 1 100 double
0 0.00058591090271 0.0023372647818 0.0052308777407 0.009216274911 0.014203589847 0.02005630577 0.02659365969 0.033603162898 
0.040859316533 0.04814255533 0.055253231812 0.062018127926 0.068290086476 0.073943635077 0.078870353645 0.082977294474 0.086190376762 
0.088462755765 0.089786183808 0.090201930281 0.089807449602 0.088755848698 0.087247140286 0.0855134087 0.083803911241 0.082378376489 
0.081523825375 0.081496414988 0.082220877509 0.083548189618 0.085340648246 0.087459547949 0.089764464379 0.092116685966 0.094386707032 
0.096470700967 0.098309714851 0.099901511136 0.10129729347 0.10258011271 0.10383573 0.10513406844 0.10652818498 0.10806346152 
0.10978580853 0.11174546791 0.11402087771 0.1167443027 0.12007865588 0.1241590031 0.12905269214 0.13475925783 0.14121629439 
0.14828664245 0.1557398203 0.1632545359 0.17045686874 0.17698369704 0.18254595782 0.18697033485 0.19020995104 0.19232664511 
0.19345712094 0.19377748239 0.19347319824 0.19271346339 0.19162935329 0.19029913117 0.18874298308 0.18692631827 0.18477069797 
0.1821720347 0.17902384543 0.17524001429 0.1707701269 0.16560318985 0.15976081452 0.1532848841 0.14622522684 0.13863090879 
0.13054651627 0.12201327847 0.11307406624 0.10378077603 0.094202041078 0.084428786577 0.074575491654 0.064776490162 0.055178664002 
0.045933239503 0.037189214219 0.029089397714 0.021768242676 0.01534977915 0.0099445082559 0.00564550696 0.0025251233913 0.00063362672991 
4.0121408184e-17 
