# vtk DataFile Version 5.1
vtk output
ASCII
DATASET POLYDATA
POINTS 100 float
0.16676 0.0975447 -0.619399 0.166928 0.0974694 -0.61977 0.167435 0.0970359 -0.620749 
0.168223 0.0962396 -0.622178 0.169202 0.0950742 -0.62381 0.170251 0.0935329 -0.625344 
0.171233 0.0916091 -0.626451 0.171995 0.0892967 -0.626813 0.172384 0.0865914 -0.626155 
0.172249 0.0834907 -0.624272 0.171454 0.0799949 -0.621046 0.169879 0.0761065 -0.616453 
0.167425 0.0718307 -0.610556 0.16402 0.067175 -0.603492 0.159616 0.0621492 -0.595446 
0.154194 0.0567651 -0.586628 0.147758 0.0510373 -0.577236 0.14034 0.0449827 -0.567436 
0.131997 0.0386223 -0.557342 0.122806 0.0319815 -0.546999 0.112867 0.0250915 -0.536389 
0.102298 0.0179909 -0.525432 0.0912305 0.0107267 -0.514004 0.079808 0.00335521 -0.50196 
0.0681765 -0.00405726 -0.489151 0.0564796 -0.0114348 -0.475453 0.0448503 -0.0186928 -0.460781 
0.0334031 -0.0257393 -0.445098 0.022227 -0.0324779 -0.428423 0.0113794 -0.0388107 -0.410826 
0.000883027 -0.0446418 -0.392413 -0.00927428 -0.0498809 -0.37331 -0.0191362 -0.0544477 -0.353646 
-0.028771 -0.0582748 -0.333532 -0.0382606 -0.0613108 -0.313047 -0.0476876 -0.0635226 -0.292226 
-0.0571208 -0.0648967 -0.27106 -0.0666003 -0.0654393 -0.249497 -0.0761249 -0.0651761 -0.227457 
-0.0856424 -0.0641506 -0.204849 -0.0950444 -0.0624223 -0.181586 -0.104168 -0.0600639 -0.157609 
-0.112801 -0.0571585 -0.1329 -0.120696 -0.0537968 -0.107497 -0.127588 -0.0500737 -0.0814959 
-0.133213 -0.0460862 -0.0550487 -0.137333 -0.0419301 -0.0283536 -0.139756 -0.0376987 -0.00163954 
-0.140351 -0.0334801 0.0248535 -0.139069 -0.0293559 0.0508949 -0.13594 -0.0253998 0.076282 
-0.131081 -0.021676 0.100856 -0.12468 -0.0182383 0.124511 -0.11699 -0.0151291 0.147197 
-0.1083 -0.0123787 0.168916 -0.0989187 -0.0100043 0.189716 -0.0891487 -0.00801057 0.209671 
-0.0792639 -0.0063895 0.228872 -0.069492 -0.0051213 0.247411 -0.0600016 -0.00417578 0.265364 
-0.0508961 -0.00351426 0.282789 -0.0422148 -0.00309199 0.29972 -0.03394 -0.00286089 0.316167 
-0.0260101 -0.00277254 0.332126 -0.0183354 -0.0027812 0.347585 -0.0108163 -0.0028465 0.36254 
-0.00336054 -0.00293581 0.376998 0.00410237 -0.00302592 0.39099 0.0116102 -0.00310395 0.404572 
0.0191626 -0.00316743 0.417824 0.0267206 -0.00322353 0.430842 0.0342117 -0.00328748 0.443729 
0.0415386 -0.00338045 0.456581 0.0485909 -0.00352694 0.469473 0.0552574 -0.00375203 0.482449 
0.0614389 -0.00407868 0.495507 0.0670575 -0.00452541 0.508599 0.0720644 -0.00510435 0.521634 
0.0764425 -0.00582009 0.534477 0.0802061 -0.00666913 0.54697 0.0833966 -0.00764013 0.558941 
0.0860759 -0.00871477 0.570224 0.0883183 -0.00986916 0.580676 0.0902014 -0.0110756 0.590189 
0.0917988 -0.0123047 0.598699 0.0931737 -0.0135269 0.606195 0.0943749 -0.0147149 0.61271 
0.0954363 -0.0158446 0.618318 0.0963772 -0.0168963 0.623125 0.0972056 -0.0178555 0.627247 
0.0979226 -0.0187131 0.630803 0.098526 -0.0194647 0.633899 0.0990153 -0.0201107 0.636616 
0.0993933 -0.0206547 0.639008 0.0996684 -0.0211032 0.641098 0.0998539 -0.021464 0.642881 
0.0999661 -0.0217453 0.644336 0.100022 -0.021955 0.645429 0.100038 -0.0220991 0.646128 
0.100022 -0.0221822 0.646409 
LINES 2 100
OFFSETS vtktypeint64
0 100 
CONNECTIVITY vtktypeint64
0 1 2 3 4 5 6 7 8 
9 10 11 12 13 14 15 16 17 
18 19 20 21 22 23 24 25 26 
27 28 29 30 31 32 33 34 35 
36 37 38 39 40 41 42 43 44 
45 46 47 48 49 50 51 52 53 
54 55 56 57 58 59 60 61 62 
63 64 65 66 67 68 69 70 71 
72 73 74 75 76 77 78 79 80 
81 82 83 84 85 86 87 88 89 
90 91 92 93 94 95 96 97 98 
99 
POINT_DATA 100
FIELD FieldData 3
_theta 1 100 double
0 0.031733259127 0.063466518254 0.095199777382 0.12693303651 0.15866629564 0.19039955476 0.22213281389 0.25386607302 
0.28559933214 0.31733259127 0.3490658504 0.38079910953 0.41253236865 0.44426562778 0.47599888691 0.50773214603 0.53946540516 
0.57119866429 0.60293192342 0.63466518254 0.66639844167 0.6981317008 0.72986495992 0.76159821905 0.79333147818 0.82506473731 
0.85679799643 0.88853125556 0.92026451469 0.95199777382 0.98373103294 1.0154642921 1.0471975512 1.0789308103 1.1106640695 
1.1423973286 1.1741305877 1.2058638468 1.237597106 1.2693303651 1.3010636242 1.3327968833 1.3645301425 1.3962634016 
1.4279966607 1.4597299198 1.491463179 1.5231964381 1.5549296972 1.5866629564 1.6183962155 1.6501294746 1.6818627337 
1.7135959929 1.745329252 1.7770625111 1.8087957702 1.8405290294 1.8722622885 1.9039955476 1.9357288068 1.9674620659 
1.999195325 2.0309285841 2.0626618433 2.0943951024 2.1261283615 2.1578616206 2.1895948798 2.2213281389 2.253061398 
2.2847946572 2.3165279163 2.3482611754 2.3799944345 2.4117276937 2.4434609528 2.4751942119 2.506927471 2.5386607302 
2.5703939893 2.6021272484 2.6338605076 2.6655937667 2.6973270258 2.7290602849 2.7607935441 2.7925268032 2.8242600623 
2.8559933214 2.8877265806 2.9194598397 2.9511930988 2.982926358 3.0146596171 3.0463928762 3.0781261353 3.1098593945 
3.1415926536 
_radius 1 100 double
1.0371267396e-15 0.015330230558 0.030519266887 0.045431750836 0.05995129564 0.073985917766 0.087469271816 0.10035742758 0.11262167256 
0.12423853958 0.13517889504 0.14539836111 0.15483137221 0.16339062243 0.17097260626 0.17746869306 0.18278008668 0.1868343695 
0.18960117965 0.19110482184 0.19143210466 0.19073427917 0.18922251623 0.18715684612 0.18482891557 0.18253939538 0.18057151414 
0.17916305415 0.17848013867 0.1785969502 0.17948559288 0.18101915816 0.18298874943 0.18513243804 0.18717165076 0.18884893532 
0.18996086582 0.19038126089 0.19007260801 0.18908645535 0.18755494085 0.18567524915 0.18368830605 0.18185392454 0.18042616041 
0.17963288325 0.17966167309 0.18065116342 0.18268479803 0.1857840809 0.18990115522 0.19491484704 0.20063677971 0.20683101608 
0.21324321468 0.21963038745 0.22578397231 0.23154362278 0.23680206379 0.24150199384 0.24562634547 0.2491842002 0.25219560348 
0.25467859559 0.25664082602 0.25807658719 0.25896862059 0.25929312919 0.25902626726 0.2581507748 0.25666194077 0.25457234095 
0.25191472473 0.2487422124 0.24512488922 0.24114215822 0.23687095086 0.23237105112 0.22767010963 0.22275192693 0.21755169046 
0.21196066277 0.20584045435 0.19904424722 0.19144028802 0.18293246328 0.17347385574 0.16307126429 0.15178098964 0.13969811391 
0.12694255482 0.11364507142 0.099935318706 0.085932693808 0.071739827984 0.057438388395 0.043087076066 0.028721939079 0.01435913006 
9.0171815774e-16 
_area 1 100 double
0 0.00063169327109 0.0025133969732 0.0056013287385 0.0098131690322 0.015021662252 0.02105477254 0.027703313226 0.034734074941 
0.04190546791 0.04898288239 0.055751787002 0.062027165181 0.067657835343 0.072525255596 0.076540159955 0.079642536377 0.08180569906 
0.083039301044 0.08338739002 0.082923124281 0.081744708686 0.079975217952 0.077764196128 0.075285673708 0.072729409764 0.07028836527 
0.06814868318 0.066488302901 0.065529115487 0.065716742639 0.06706755269 0.069185651345 0.07174820216 0.074477979024 0.077102627243 
0.079378100824 0.081130179099 0.082282827758 0.082858360063 0.082964583704 0.082786879334 0.082566701991 0.082539864227 0.082866412746 
0.083619918191 0.084834096498 0.086540594769 0.088810671389 0.091739831437 0.095419138565 0.099909776031 0.10520794917 0.11122077572 
0.11776185 0.12456963104 0.1313427348 0.13777913841 0.14361292936 0.1486464442 0.15277084611 0.15596717913 0.15828803789 
0.15982957243 0.16070645021 0.1610359362 0.16091018892 0.1603176427 0.15914867016 0.15730311879 0.15474317457 0.1514839356 
0.14757791188 0.14310715182 0.13818559051 0.13296796779 0.12764447456 0.12240747334 0.11739721395 0.11264677852 0.10805169427 
0.10338435316 0.098354412576 0.092693211408 0.08623024426 0.078937924917 0.070936600097 0.062464550101 0.053825113109 0.045326694614 
0.037232650181 0.029735659925 0.022960890306 0.016986320213 0.011862932369 0.0076268967814 0.0043052472938 0.0019182541955 0.00048028746811 
1.0062073622e-16 
