# vtk DataFile Version 5.1
vtk output
ASCII
DATASET POLYDATA
POINTS 100 float
0.18324 0.107494 -0.69209 0.183019 0.107548 -0.692236 0.1824 0.1075 -0.692652 
0.181399 0.107299 -0.693225 0.180042 0.10687 -0.693779 0.178358 0.106117 -0.694096 
0.176375 0.104934 -0.69394 0.174117 0.10322 -0.693077 0.171597 0.100882 -0.691306 
0.168814 0.097847 -0.688472 0.165745 0.0940705 -0.684479 0.162351 0.0895372 -0.679301 
0.15857 0.0842633 -0.672973 0.154327 0.0782939 -0.665584 0.149533 0.0716984 -0.65726 
0.144096 0.0645646 -0.648144 0.137932 0.0569908 -0.638376 0.130969 0.0490798 -0.628072 
0.123164 0.0409322 -0.617309 0.114504 0.0326423 -0.606116 0.10502 0.0242957 -0.594467 
0.0947846 0.0159694 -0.582291 0.0839133 0.00773287 -0.569478 0.0725608 -0.000348368 -0.555893 
0.0609112 -0.00820937 -0.541399 0.0491668 -0.0157821 -0.525868 0.037533 -0.0229927 -0.509204 
0.0262029 -0.0297607 -0.49135 0.0153424 -0.0359994 -0.472298 0.00507706 -0.0416189 -0.452088 
-0.00451769 -0.0465309 -0.430805 -0.013421 -0.050655 -0.408567 -0.021666 -0.0539251 -0.385511 
-0.0293331 -0.0562962 -0.36178 -0.0365386 -0.05775 -0.337505 -0.0434184 -0.0582985 -0.312796 
-0.0501097 -0.0579853 -0.28773 -0.0567312 -0.0568842 -0.262348 -0.063366 -0.055095 -0.236658 
-0.0700463 -0.0527366 -0.210638 -0.0767444 -0.0499389 -0.184252 -0.0833697 -0.0468338 -0.157456 
-0.0897721 -0.0435454 -0.130216 -0.0957531 -0.0401826 -0.102519 -0.101081 -0.0368327 -0.0743837 
-0.105513 -0.0335578 -0.0458647 -0.108816 -0.0303946 -0.017057 -0.110789 -0.0273563 0.0119082 
-0.111281 -0.0244376 0.0408703 -0.110211 -0.0216218 0.0696491 -0.107571 -0.0188884 0.0980569 
-0.103429 -0.0162208 0.125911 -0.0979256 -0.0136137 0.153045 -0.091258 -0.0110777 0.179321 
-0.0836657 -0.00864232 0.204633 -0.0754086 -0.00635568 0.228913 -0.0667456 -0.00428148 0.252131 
-0.0579145 -0.00249357 0.274294 -0.0491152 -0.00106873 0.295439 -0.0404981 -7.83511e-05 0.315628 
-0.0321579 0.0004198 0.334943 -0.0241347 0.000388818 0.353475 -0.0164195 -0.000181918 0.371321 
-0.00896593 -0.00127386 0.388581 -0.00170395 -0.0028393 0.405347 0.00544474 -0.00480426 0.421709 
0.012552 -0.00707413 0.437744 0.0196711 -0.00954122 0.453521 0.0268279 -0.0120937 0.469097 
0.0340172 -0.0146249 0.484511 0.0412029 -0.0170418 0.499791 0.0483233 -0.019272 0.514944 
0.0552989 -0.0212687 0.529959 0.0620427 -0.0230131 0.544803 0.068471 -0.0245134 0.559426 
0.074513 -0.0258015 0.573758 0.0801181 -0.0269278 0.587714 0.0852611 -0.0279538 0.601201 
0.0899423 -0.0289444 0.614121 0.094186 -0.0299598 0.62638 0.098035 -0.0310491 0.637894 
0.101544 -0.0322449 0.648598 0.10477 -0.0335599 0.658448 0.107767 -0.0349867 0.667429 
0.110579 -0.0364987 0.67555 0.113236 -0.0380546 0.682846 0.115751 -0.0396029 0.689373 
0.118122 -0.0410884 0.695201 0.120335 -0.0424585 0.700407 0.122369 -0.043669 0.705067 
0.124202 -0.0446886 0.709249 0.125813 -0.045502 0.713004 0.127188 -0.0461108 0.716367 
0.128325 -0.0465324 0.719353 0.12923 -0.0467974 0.721958 0.129917 -0.0469449 0.724164 
0.130407 -0.0470174 0.725942 0.130723 -0.0470554 0.727264 0.130884 -0.047092 0.7281 
0.130905 -0.0471489 0.728432 
LINES 2 100
OFFSETS vtktypeint64
0 100 
CONNECTIVITY vtktypeint64
0 1 2 3 4 5 6 7 8 
9 10 11 12 13 14 15 16 17 
18 19 20 21 22 23 24 25 26 
27 28 29 30 31 32 33 34 35 
36 37 38 39 40 41 42 43 44 
45 46 47 48 49 50 51 52 53 
54 55 56 57 58 59 60 61 62 
63 64 65 66 67 68 69 70 71 
72 73 74 75 76 77 78 79 80 
81 82 83 84 85 86 87 88 89 
90 91 92 93 94 95 96 97 98 
99 
POINT_DATA 100
FIELD FieldData 3
_theta 1 100 double
0 0.031733259127 0.063466518254 0.095199777382 0.12693303651 0.15866629564 0.19039955476 0.22213281389 0.25386607302 
0.28559933214 0.31733259127 0.3490658504 0.38079910953 0.41253236865 0.44426562778 0.47599888691 0.50773214603 0.53946540516 
0.57119866429 0.60293192342 0.63466518254 0.66639844167 0.6981317008 0.72986495992 0.76159821905 0.79333147818 0.82506473731 
0.85679799643 0.88853125556 0.92026451469 0.95199777382 0.98373103294 1.0154642921 1.0471975512 1.0789308103 1.1106640695 
1.1423973286 1.1741305877 1.2058638468 1.237597106 1.2693303651 1.3010636242 1.3327968833 1.3645301425 1.3962634016 
1.4279966607 1.4597299198 1.491463179 1.5231964381 1.5549296972 1.5866629564 1.6183962155 1.6501294746 1.6818627337 
1.7135959929 1.745329252 1.7770625111 1.8087957702 1.8405290294 1.8722622885 1.9039955476 1.9357288068 1.9674620659 
1.999195325 2.0309285841 2.0626618433 2.0943951024 2.1261283615 2.1578616206 2.1895948798 2.2213281389 2.253061398 
2.2847946572 2.3165279163 2.3482611754 2.3799944345 2.4117276937 2.4434609528 2.4751942119 2.506927471 2.5386607302 
2.5703939893 2.6021272484 2.6338605076 2.6655937667 2.6973270258 2.7290602849 2.7607935441 2.7925268032 2.8242600623 
2.8559933214 2.8877265806 2.9194598397 2.9511930988 2.982926358 3.0146596171 3.0463928762 3.0781261353 3.1098593945 
3.1415926536 
_radius 1 100 double
3.7238012299e-16 0.016295084352 0.032441863165 0.048293126644 0.0637087153 0.078557171508 0.092715853286 0.10607010583 0.11851258666 
0.12994396594 0.14027585389 0.14943602914 0.15737513555 0.16407331895 0.1695450369 0.17384056552 0.17704345936 0.17926418754 
0.18063110479 0.18128054121 0.18134790287 0.18096122598 0.18023777977 0.17928337954 0.17819337521 0.17705402553 0.17594316484 
0.17492955824 0.17407089652 0.17341083436 0.17297578929 0.17277243887 0.17278693821 0.17298660436 0.17332409434 0.17374338185 
0.17418667777 0.1746017482 0.17494926886 0.17520960749 0.17538791932 0.17551607881 0.17565021174 0.17586378105 0.17623811537 
0.17685380797 0.17778600906 0.17910396701 0.18087199843 0.18314772044 0.18597472671 0.18937005411 0.1933100661 0.19772007849 
0.20247229066 0.20739389921 0.21228418267 0.21693715571 0.22116550176 0.22482168434 0.2278130514 0.23010907946 0.23174037682 
0.23279040248 0.23338180592 0.23365966384 0.23377365575 0.23386063755 0.23402861165 0.23434308561 0.23481713708 0.23540670297 
0.23601227071 0.23648720542 0.23665171375 0.23631039746 0.23527083952 0.2333607803 0.23044202666 0.22642002615 0.22124878163 
0.21493132304 0.20751624815 0.19909093845 0.18977204688 0.17969385976 0.16899526219 0.15780633293 0.14623601125 0.13436263326 
0.12222916582 0.10984444833 0.097190662496 0.084235844322 0.070948990583 0.057314647626 0.043344031079 0.029080608213 0.014599335753 
2.5122534472e-16 
_area 1 100 double
0 0.00066253486816 0.0026310830081 0.0058488349764 0.010222015267 0.015620382406 0.021876838212 0.028786415796 0.036106328988 
0.043559951864 0.050847665664 0.057666054375 0.06373427628 0.06882344717 0.072782608946 0.075554371808 0.077175368361 0.077761100159 
0.077479894558 0.076523905208 0.07508498466 0.073340814412 0.071454498084 0.069589939377 0.067926643234 0.066532373037 0.065454357881 
0.064693594173 0.064268284019 0.064190636791 0.064453256964 0.06503258526 0.065897684901 0.067024653634 0.068422741964 0.07008647429 
0.071938468203 0.073918828873 0.075995938787 0.078163827414 0.080445900476 0.082877321495 0.085462939408 0.088146435951 0.090823230418 
0.093389571274 0.095798587982 0.09809639853 0.10041561533 0.10292020197 0.10576143072 0.10908185853 0.11300814454 0.1176142949 
0.12287559618 0.1286390605 0.13463333317 0.14051636011 0.14595382859 0.15076596981 0.15482136897 0.15781365585 0.15963223225 
0.16031087472 0.16003994735 0.15921276832 0.15795282292 0.15647639026 0.15502541771 0.15379802971 0.15291518848 0.15239151743 
0.15212382647 0.15190644862 0.15146591298 0.15050256081 0.14873172718 0.14591933199 0.14190728432 0.13662649828 0.13009849853 
0.12242846864 0.11379253305 0.10442082902 0.094576827249 0.084533413281 0.074547640314 0.064838086587 0.055570002372 0.046852390426 
0.038747424985 0.031288114673 0.024497882506 0.018406677764 0.013060599985 0.0085240523817 0.00487487356 0.0021940807706 0.00055285959669 
2.1792043427e-17 
