# vtk DataFile Version 5.1
vtk output
ASCII
DATASET POLYDATA
POINTS 100 float
0.107643 0.116059 -0.727064 0.107739 0.115925 -0.726584 0.108028 0.11527 -0.725135 
0.108473 0.114089 -0.722758 0.109018 0.112377 -0.71952 0.109591 0.11013 -0.715502 
0.110116 0.107341 -0.710798 0.110522 0.104009 -0.705504 0.110747 0.100131 -0.699707 
0.110745 0.0957094 -0.693484 0.110486 0.0907495 -0.686891 0.109958 0.0852615 -0.679961 
0.109158 0.0792615 -0.672703 0.10809 0.0727724 -0.665104 0.106754 0.065825 -0.657128 
0.10514 0.0584594 -0.648724 0.103225 0.0507253 -0.639827 0.100962 0.0426831 -0.63037 
0.0982907 0.0344045 -0.620284 0.0951335 0.0259716 -0.609502 0.0914068 0.0174768 -0.597969 
0.0870292 0.00902073 -0.585637 0.0819332 0.000710053 -0.572475 0.0760751 -0.00734579 -0.558459 
0.0694439 -0.0150385 -0.543583 0.0620668 -0.0222652 -0.52785 0.0540099 -0.0289331 -0.511275 
0.0453752 -0.034964 -0.493883 0.0362929 -0.0402978 -0.475708 0.02691 -0.044896 -0.456791 
0.0173775 -0.0487427 -0.437181 0.00783643 -0.0518458 -0.416931 -0.00159374 -0.0542346 -0.396097 
-0.0108246 -0.0559576 -0.374737 -0.0198031 -0.0570778 -0.352908 -0.0285114 -0.0576678 -0.330662 
-0.0369616 -0.0578038 -0.308043 -0.0451853 -0.0575595 -0.285088 -0.0532213 -0.0570014 -0.26182 
-0.0611009 -0.0561844 -0.23825 -0.0688344 -0.0551488 -0.214375 -0.0763999 -0.05392 -0.190185 
-0.0837363 -0.0525087 -0.16566 -0.0907412 -0.0509137 -0.140778 -0.0972753 -0.0491259 -0.11552 
-0.103171 -0.0471328 -0.089879 -0.108247 -0.0449233 -0.0638595 -0.112324 -0.0424932 -0.037488 
-0.115241 -0.0398481 -0.010814 -0.116871 -0.0370067 0.0160883 -0.117135 -0.034001 0.0431213 
-0.11601 -0.0308762 0.0701673 -0.113529 -0.0276875 0.0970942 -0.109776 -0.024497 0.123763 
-0.104884 -0.0213687 0.150036 -0.0990134 -0.0183641 0.175785 -0.0923422 -0.0155372 0.200899 
-0.0850483 -0.0129313 0.225289 -0.0772952 -0.0105765 0.248894 -0.0692211 -0.00848889 0.27168 
-0.0609314 -0.0066717 0.293641 -0.0524972 -0.00511728 0.314793 -0.0439574 -0.00381072 0.335172 
-0.0353255 -0.00273386 0.354823 -0.0265992 -0.00186938 0.3738 -0.0177702 -0.00120449 0.392151 
-0.00883493 -0.000733505 0.409924 0.000197654 -0.000459114 0.427155 0.00930126 -0.000392134 0.443872 
0.0184308 -0.000549719 0.460093 0.0275251 -0.000952323 0.475831 0.0365121 -0.00161978 0.491094 
0.045317 -0.00256702 0.50589 0.0538707 -0.00380006 0.520228 0.0621177 -0.00531268 0.534121 
0.070022 -0.00708439 0.547582 0.0775701 -0.00907992 0.560628 0.0847709 -0.0112503 0.573271 
0.0916514 -0.0135355 0.585516 0.0982501 -0.0158684 0.597357 0.104608 -0.0181794 0.608772 
0.110762 -0.0204015 0.619719 0.116731 -0.0224753 0.630138 0.122516 -0.0243526 0.63995 
0.128094 -0.0259992 0.649067 0.133422 -0.0273967 0.657393 0.138434 -0.0285421 0.664838 
0.14306 -0.0294462 0.671327 0.147226 -0.0301312 0.676809 0.150869 -0.0306271 0.681266 
0.153946 -0.0309682 0.68472 0.15644 -0.0311898 0.687232 0.158366 -0.0313249 0.688907 
0.159768 -0.0314023 0.689879 0.160717 -0.0314455 0.690308 0.1613 -0.0314721 0.690365 
0.161614 -0.0314947 0.690218 0.16175 -0.0315218 0.690014 0.161782 -0.0315587 0.689872 
0.16176 -0.031609 0.689865 
LINES 2 100
OFFSETS vtktypeint64
0 100 
CONNECTIVITY vtktypeint64
0 1 2 3 4 5 6 7 8 
9 10 11 12 13 14 15 16 17 
18 19 20 21 22 23 24 25 26 
27 28 29 30 31 32 33 34 35 
36 37 38 39 40 41 42 43 44 
45 46 47 48 49 50 51 52 53 
54 55 56 57 58 59 60 61 62 
63 64 65 66 67 68 69 70 71 
72 73 74 75 76 77 78 79 80 
81 82 83 84 85 86 87 88 89 
90 91 92 93 94 95 96 97 98 
99 
POINT_DATA 100
FIELD FieldData 3
_theta 1 100 double
0 0.031733259127 0.063466518254 0.095199777382 0.12693303651 0.15866629564 0.19039955476 0.22213281389 0.25386607302 
0.28559933214 0.31733259127 0.3490658504 0.38079910953 0.41253236865 0.44426562778 0.47599888691 0.50773214603 0.53946540516 
0.57119866429 0.60293192342 0.63466518254 0.66639844167 0.6981317008 0.72986495992 0.76159821905 0.79333147818 0.82506473731 
0.85679799643 0.88853125556 0.92026451469 0.95199777382 0.98373103294 1.0154642921 1.0471975512 1.0789308103 1.1106640695 
1.1423973286 1.1741305877 1.2058638468 1.237597106 1.2693303651 1.3010636242 1.3327968833 1.3645301425 1.3962634016 
1.4279966607 1.4597299198 1.491463179 1.5231964381 1.5549296972 1.5866629564 1.6183962155 1.6501294746 1.6818627337 
1.7135959929 1.745329252 1.7770625111 1.8087957702 1.8405290294 1.8722622885 1.9039955476 1.9357288068 1.9674620659 
1.999195325 2.0309285841 2.0626618433 2.0943951024 2.1261283615 2.1578616206 2.1895948798 2.2213281389 2.253061398 
2.2847946572 2.3165279163 2.3482611754 2.3799944345 2.4117276937 2.4434609528 2.4751942119 2.506927471 2.5386607302 
2.5703939893 2.6021272484 2.6338605076 2.6655937667 2.6973270258 2.7290602849 2.7607935441 2.7925268032 2.8242600623 
2.8559933214 2.8877265806 2.9194598397 2.9511930988 2.982926358 3.0146596171 3.0463928762 3.0781261353 3.1098593945 
3.1415926536 
_radius 1 100 double
7.8614942546e-16 0.014049193663 0.028005082007 0.041775272139 0.055284248146 0.068475863049 0.081310584591 0.093758638774 0.10579127403 
0.11737265363 0.12845441991 0.13897406189 0.14885722775 0.15802332923 0.16639330777 0.1738982596 0.18048767505 0.18613624813 
0.19084848125 0.19466059946 0.19763958024 0.19987940263 0.20149491123 0.20261392838 0.2033683739 0.20388517128 0.2042777223 
0.20463880289 0.20503579366 0.2055089498 0.2060727479 0.20671943426 0.2074233334 0.2081447198 0.2088329596 0.20942954428 
0.20987198268 0.21009918975 0.21005829031 0.20971195842 0.20904483433 0.20806755307 0.20681764942 0.20535771976 0.20377201825 
0.20216267151 0.20064604662 0.19934903811 0.1984045431 0.1979452281 0.19809485894 0.19895710256 0.20060282021 0.20305805091 
0.20629546918 0.21023165895 0.21473122111 0.21961714832 0.22468571718 0.22972366994 0.23452558513 0.23890975542 0.24273131594 
0.24589166796 0.24834345736 0.25009060834 0.25118328084 0.25170812857 0.25177480234 0.25150013277 0.25099172512 0.25033279673 
0.24957007772 0.24870652875 0.2477002886 0.2464702264 0.24490674517 0.24288498223 0.24027736717 0.23696365714 0.23283808209 
0.22781418253 0.22182808826 0.21484065389 0.20683843018 0.19783318253 0.18785966899 0.17697162408 0.16523626377 0.15272801836 
0.13952250259 0.12569182385 0.11130211337 0.096413644961 0.081083233633 0.0653680172 0.049329408068 0.033036033966 0.016564831352 
1.2679699308e-15 
_area 1 100 double
0 0.00060908199815 0.0024139673402 0.0053513392119 0.0093266550557 0.014226013417 0.019926119635 0.026300070432 0.033219018385 
0.040550982011 0.048157646681 0.055889316757 0.063578907289 0.071037878179 0.078058374517 0.084424836435 0.089935046949 0.094426484426 
0.097800683342 0.1000375204 0.10119400186 0.10138818971 0.10077567335 0.099528807507 0.097825748071 0.095850103487 0.09379683342 
0.091877160414 0.090312743897 0.089289418878 0.088889555572 0.089064684498 0.089684501873 0.090655279823 0.09186960528 0.0932108883 
0.094563817955 0.095833376108 0.096969625761 0.097923356864 0.098699430374 0.099346455823 0.099924438334 0.10048382809 0.10105602389 
0.1016573162 0.10230294122 0.10302398345 0.10388109546 0.10497260538 0.10643595141 0.10843552924 0.11112464997 0.11460262872 
0.11890507918 0.12400477548 0.12980392187 0.13612937981 0.1427397543 0.1493448568 0.15563390165 0.16130787376 0.16611191515 
0.16986362184 0.17247267394 0.17394746503 0.17438634468 0.17395450971 0.17285131343 0.17127524233 0.16939346934 0.16731967187 
0.16510083087 0.16271460969 0.16008151793 0.15709302624 0.15364634993 0.14966873217 0.14511904449 0.13997005135 0.13418800177 
0.12772594696 0.12053519835 0.11258834272 0.10390426165 0.094567276723 0.084734434911 0.074626832499 0.064504613477 0.054631038827 
0.045236341354 0.036494018151 0.028518528097 0.021383359391 0.01514741728 0.0098753624494 0.0056446913485 0.0025401712688 0.00064007748436 
6.9443096311e-17 
