# vtk DataFile Version 5.1
vtk output
ASCII
DATASET POLYDATA
POINTS 100 float
0.116467 0.0248408 -0.639198 0.116226 0.0251053 -0.638892 0.115554 0.0257477 -0.638122 
0.114472 0.0267112 -0.636862 0.113018 0.0279055 -0.635068 0.111234 0.0292129 -0.632686 
0.109161 0.0304962 -0.629662 0.106834 0.0316087 -0.625939 0.104275 0.0324041 -0.621475 
0.101488 0.0327465 -0.616239 0.0984571 0.0325194 -0.610219 0.0951465 0.0316338 -0.603422 
0.0915054 0.0300334 -0.595868 0.0874721 0.027698 -0.587591 0.0829821 0.024644 -0.578634 
0.0779764 0.0209222 -0.569037 0.0724104 0.0166133 -0.558837 0.0662609 0.0118218 -0.548058 
0.0595315 0.00666813 -0.536713 0.0522559 0.00128012 -0.524798 0.0444967 -0.00421523 -0.512295 
0.0363426 -0.00969934 -0.499178 0.0279017 -0.0150682 -0.485411 0.0192932 -0.0202368 -0.470962 
0.0106375 -0.0251412 -0.455805 0.00204645 -0.0297387 -0.439927 -0.00638574 -0.0340057 -0.42333 
-0.0145893 -0.0379343 -0.406035 -0.0225233 -0.041527 -0.388083 -0.0301765 -0.0447918 -0.369527 
-0.0375649 -0.0477368 -0.350434 -0.044726 -0.0503652 -0.330871 -0.051711 -0.0526729 -0.310904 
-0.0585741 -0.0546458 -0.290589 -0.0653627 -0.0562605 -0.269965 -0.0721067 -0.0574857 -0.249054 
-0.0788103 -0.0582856 -0.227858 -0.0854458 -0.0586237 -0.206362 -0.0919507 -0.0584685 -0.184537 
-0.0982286 -0.0577972 -0.16235 -0.104153 -0.0566007 -0.139769 -0.109575 -0.0548863 -0.116775 
-0.114333 -0.0526794 -0.0933674 -0.118264 -0.0500235 -0.0695721 -0.121216 -0.0469788 -0.045444 
-0.12306 -0.0436193 -0.0210685 -0.123699 -0.0400285 0.00344095 -0.123075 -0.0362951 0.0279488 
-0.121177 -0.0325079 0.0523053 -0.118039 -0.0287522 0.0763568 -0.113741 -0.0251054 0.0999558 
-0.108402 -0.0216353 0.122971 -0.102172 -0.0183985 0.145298 -0.0952247 -0.0154406 0.166861 
-0.0877459 -0.0127975 0.187622 -0.079922 -0.0104965 0.207574 -0.0719302 -0.00855906 0.226745 
-0.0639297 -0.00700219 0.245186 -0.056054 -0.0058403 0.262967 -0.0484062 -0.00508564 0.280166 
-0.041057 -0.00474809 0.296861 -0.0340445 -0.00483388 0.313123 -0.0273766 -0.00534357 0.329008 
-0.021036 -0.00626942 0.344555 -0.0149856 -0.00759278 0.359785 -0.00917581 -0.00928167 0.3747 
-0.00355189 -0.0112892 0.389291 0.00193911 -0.0135533 0.403542 0.00734189 -0.0159976 0.417435 
0.0126878 -0.0185338 0.430955 0.0179913 -0.0210661 0.444099 0.0232481 -0.0234962 0.456875 
0.0284355 -0.0257291 0.469305 0.0335139 -0.02768 0.481424 0.0384307 -0.02928 0.493275 
0.0431243 -0.0304811 0.504906 0.0475301 -0.0312609 0.516358 0.051586 -0.0316236 0.527666 
0.055238 -0.031601 0.538845 0.0584449 -0.03125 0.549889 0.0611818 -0.0306486 0.560767 
0.063443 -0.0298907 0.57142 0.0652418 -0.0290787 0.58177 0.0666102 -0.0283166 0.591718 
0.0675958 -0.027702 0.601153 0.0682581 -0.0273191 0.609962 0.0686637 -0.027233 0.618041 
0.0688814 -0.027485 0.625302 0.0689765 -0.0280898 0.631679 0.0690068 -0.0290347 0.637139 
0.0690185 -0.0302811 0.641686 0.0690443 -0.0317671 0.645354 0.0691025 -0.0334124 0.648213 
0.0691975 -0.0351237 0.650358 0.0693221 -0.0368014 0.651903 0.0694607 -0.0383465 0.652968 
0.0695927 -0.039667 0.653672 0.0696971 -0.0406844 0.65412 0.0697558 -0.0413388 0.654394 
0.0697568 -0.0415926 0.654544 
LINES 2 100
OFFSETS vtktypeint64
0 100 
CONNECTIVITY vtktypeint64
0 1 2 3 4 5 6 7 8 
9 10 11 12 13 14 15 16 17 
18 19 20 21 22 23 24 25 26 
27 28 29 30 31 32 33 34 35 
36 37 38 39 40 41 42 43 44 
45 46 47 48 49 50 51 52 53 
54 55 56 57 58 59 60 61 62 
63 64 65 66 67 68 69 70 71 
72 73 74 75 76 77 78 79 80 
81 82 83 84 85 86 87 88 89 
90 91 92 93 94 95 96 97 98 
99 
POINT_DATA 100
FIELD FieldData 3
_theta 1 100 double
0 0.031733259127 0.063466518254 0.095199777382 0.12693303651 0.15866629564 0.19039955476 0.22213281389 0.25386607302 
0.28559933214 0.31733259127 0.3490658504 0.38079910953 0.41253236865 0.44426562778 0.47599888691 0.50773214603 0.53946540516 
0.57119866429 0.60293192342 0.63466518254 0.66639844167 0.6981317008 0.72986495992 0.76159821905 0.79333147818 0.82506473731 
0.85679799643 0.88853125556 0.92026451469 0.95199777382 0.98373103294 1.0154642921 1.0471975512 1.0789308103 1.1106640695 
1.1423973286 1.1741305877 1.2058638468 1.237597106 1.2693303651 1.3010636242 1.3327968833 1.3645301425 1.3962634016 
1.4279966607 1.4597299198 1.491463179 1.5231964381 1.5549296972 1.5866629564 1.6183962155 1.6501294746 1.6818627337 
1.7135959929 1.745329252 1.7770625111 1.8087957702 1.8405290294 1.8722622885 1.9039955476 1.9357288068 1.9674620659 
1.999195325 2.0309285841 2.0626618433 2.0943951024 2.1261283615 2.1578616206 2.1895948798 2.2213281389 2.253061398 
2.2847946572 2.3165279163 2.3482611754 2.3799944345 2.4117276937 2.4434609528 2.4751942119 2.506927471 2.5386607302 
2.5703939893 2.6021272484 2.6338605076 2.6655937667 2.6973270258 2.7290602849 2.7607935441 2.7925268032 2.8242600623 
2.8559933214 2.8877265806 2.9194598397 2.9511930988 2.982926358 3.0146596171 3.0463928762 3.0781261353 3.1098593945 
3.1415926536 
_radius 1 100 double
1.0003625524e-15 0.013935424264 0.027705644543 0.041161313297 0.05417914339 0.066667009011 0.078562222577 0.089824193113 0.10042422939 
0.11033583323 0.11952825988 0.12796472425 0.13560503962 0.14241128803 0.14835464302 0.15342165599 0.1576189164 0.16097568385 
0.16354460299 0.16540081438 0.16663966837 0.16737297405 0.1677235002 0.16781752297 0.16777569978 0.16770331647 0.16768163209 
0.16776218028 0.16796525181 0.16828259736 0.16868322764 0.16912060334 0.16953971419 0.16988333782 0.17009766431 0.17013796176 
0.16997477566 0.16960041186 0.16903456411 0.16832740178 0.16755857545 0.16683149581 0.16626363011 0.16597486581 0.16607653326 
0.16666310236 0.16780717712 0.16955701593 0.17193513981 0.17493686785 0.17852852282 0.18264602225 0.18719513854 0.19205465338 
0.19708298077 0.20212785502 0.20703780111 0.21167369179 0.2159188141 0.21968629474 0.22292319404 0.22561093856 0.22776205617 
0.22941349746 0.23061722508 0.23142920203 0.2318983319 0.23205717252 0.23191615626 0.23146240225 0.23066305148 0.22947185923 
0.22783711844 0.22570908404 0.22304569113 0.21981613671 0.2160025468 0.21160031856 0.20661774357 0.2010752398 0.19500412932 
0.18844461594 0.18144258112 0.17404503879 0.16629447432 0.15822270266 0.14984519766 0.14115700824 0.13213136742 0.12272186237 
0.11286847891 0.1025069827 0.091580223962 0.080049451915 0.067903801052 0.055166624656 0.041898000112 0.028193292115 0.014178072688 
1.4472855015e-16 
_area 1 100 double
0 0.00050463368771 0.0019989395036 0.0044268574871 0.0077028210944 0.011719869977 0.016355619837 0.021474554602 0.02692785706 
0.032553734529 0.038180667275 0.043633958493 0.048744183252 0.053355700941 0.057334149662 0.060572901918 0.062998983791 0.064578690107 
0.065322451282 0.065287996119 0.064580836899 0.063351625816 0.061790824716 0.060121482838 0.058586892883 0.057414169755 0.056738369022 
0.056563303817 0.056813684406 0.05739759218 0.058237521006 0.059278657079 0.060485655607 0.061832739101 0.063287614945 0.064794474117 
0.066272755346 0.06763720371 0.068822736184 0.069801949498 0.070592627003 0.071254914086 0.071879839449 0.072573439999 0.073442139924 
0.074583947271 0.076087060315 0.078034387839 0.080508929474 0.083585574417 0.08729816191 0.091618069977 0.096462352076 0.10170612214 
0.10719435171 0.1127553212 0.11821462264 0.12340757903 0.12818802505 0.1324323907 0.13604051087 0.1389376148 0.1410813803 
0.14247145889 0.14315273322 0.14320479824 0.1427183191 0.1417695706 0.14040741823 0.13865570595 0.13652226341 0.13400642439 
0.13110346874 0.12780771944 0.12411528168 0.12002572255 0.11554208196 0.11067051977 0.10542211487 0.099817964492 0.09389584675 
0.087714670406 0.081353175197 0.074901826148 0.06845013837 0.062073783976 0.055825687592 0.049733433809 0.043803181226 0.03802900094 
0.032405978999 0.026944762229 0.021684428334 0.016700401183 0.012105001189 0.0080397599331 0.0046604661177 0.0021176948572 0.00053664234667 
2.164781933e-17 
