# vtk DataFile Version 5.1
vtk output
ASCII
DATASET POLYDATA
POINTS 100 float
0.135686 0.0882355 -0.756718 0.135824 0.0881041 -0.7563 0.136229 0.087486 -0.755081 
0.136874 0.0864074 -0.753071 0.137716 0.0849082 -0.750288 0.138693 0.0830348 -0.746752 
0.139729 0.0808319 -0.742484 0.140734 0.0783349 -0.737507 0.141606 0.0755624 -0.731839 
0.142237 0.0725126 -0.725493 0.142512 0.0691622 -0.718479 0.142319 0.0654691 -0.710797 
0.141552 0.0613787 -0.702443 0.140116 0.0568329 -0.693405 0.137932 0.051781 -0.68367 
0.134944 0.0461907 -0.67322 0.131118 0.040058 -0.662036 0.126449 0.0334143 -0.650102 
0.120956 0.0263304 -0.637403 0.114686 0.0189151 -0.623927 0.107706 0.0113107 -0.609667 
0.100101 0.00368359 -0.594621 0.091967 -0.00378772 -0.57879 0.083403 -0.0109265 -0.562177 
0.0745052 -0.0175714 -0.544791 0.0653599 -0.0235887 -0.526641 0.0560386 -0.0288816 -0.507735 
0.0465947 -0.0333955 -0.488085 0.0370624 -0.0371189 -0.467701 0.027458 -0.0400794 -0.446593 
0.0177841 -0.0423367 -0.424771 0.00803519 -0.0439719 -0.402248 -0.00179449 -0.0450756 -0.379035 
-0.0117028 -0.0457367 -0.355146 -0.0216715 -0.0460321 -0.330598 -0.031659 -0.0460191 -0.305411 
-0.0415956 -0.0457321 -0.279611 -0.0513803 -0.0451826 -0.253229 -0.0608822 -0.0443627 -0.226302 
-0.0699441 -0.0432523 -0.198877 -0.0783896 -0.0418275 -0.17101 -0.0860334 -0.0400696 -0.142767 
-0.0926924 -0.0379735 -0.114228 -0.098199 -0.0355541 -0.0854807 -0.102413 -0.0328493 -0.0566279 
-0.105231 -0.0299204 -0.0277816 -0.106597 -0.0268481 0.00093751 -0.106507 -0.0237265 0.0294032 
-0.105006 -0.0206543 0.0574873 -0.102189 -0.0177259 0.0850651 -0.0981932 -0.0150221 0.11202 
-0.0931869 -0.012603 0.138248 -0.0873577 -0.0105032 0.163666 -0.0808997 -0.00872988 0.18821 
-0.0740007 -0.00726504 0.211844 -0.0668305 -0.00606997 0.234559 -0.0595327 -0.00509268 0.25637 
-0.0522188 -0.00427655 0.27732 -0.0449664 -0.0035693 0.297468 -0.0378216 -0.00293098 0.316889 
-0.0308031 -0.00234005 0.335668 -0.0239104 -0.00179668 0.353888 -0.0171323 -0.00132304 0.371631 
-0.0104558 -0.000960369 0.388966 -0.00387476 -0.000763504 0.405953 0.00260393 -0.000793477 0.422632 
0.00895663 -0.00110923 0.439031 0.015142 -0.00175956 0.455162 0.0211033 -0.00277621 0.471029 
0.0267731 -0.00416916 0.486629 0.0320799 -0.00592445 0.501957 0.0369565 -0.00800485 0.517011 
0.0413471 -0.0103532 0.531791 0.0452148 -0.0128981 0.546305 0.0485464 -0.0155605 0.560565 
0.051355 -0.0182615 0.574581 0.0536792 -0.0209293 0.588364 0.0555809 -0.0235053 0.601915 
0.0571389 -0.0259477 0.615217 0.0584423 -0.0282339 0.628238 0.0595817 -0.0303599 0.640921 
0.0606417 -0.0323378 0.653183 0.0616933 -0.0341918 0.664921 0.0627889 -0.0359534 0.676015 
0.0639588 -0.037656 0.686333 0.0652112 -0.0393297 0.695744 0.0665335 -0.0409978 0.70413 
0.0678972 -0.0426735 0.711397 0.0692627 -0.0443586 0.717485 0.0705858 -0.0460439 0.722377 
0.071824 -0.0477104 0.726105 0.0729413 -0.0493313 0.728752 0.0739124 -0.0508748 0.730443 
0.0747238 -0.052307 0.731344 0.0753744 -0.0535945 0.731646 0.0758729 -0.0547066 0.731548 
0.0762348 -0.0556168 0.731247 0.0764782 -0.056304 0.730913 0.0766195 -0.0567529 0.730682 
0.0766698 -0.0569545 0.730638 
LINES 2 100
OFFSETS vtktypeint64
0 100 
CONNECTIVITY vtktypeint64
0 1 2 3 4 5 6 7 8 
9 10 11 12 13 14 15 16 17 
18 19 20 21 22 23 24 25 26 
27 28 29 30 31 32 33 34 35 
36 37 38 39 40 41 42 43 44 
45 46 47 48 49 50 51 52 53 
54 55 56 57 58 59 60 61 62 
63 64 65 66 67 68 69 70 71 
72 73 74 75 76 77 78 79 80 
81 82 83 84 85 86 87 88 89 
90 91 92 93 94 95 96 97 98 
99 
POINT_DATA 100
FIELD FieldData 3
_theta 1 100 double
0 0.031733259127 0.063466518254 0.095199777382 0.12693303651 0.15866629564 0.19039955476 0.22213281389 0.25386607302 
0.28559933214 0.31733259127 0.3490658504 0.38079910953 0.41253236865 0.44426562778 0.47599888691 0.50773214603 0.53946540516 
0.57119866429 0.60293192342 0.63466518254 0.66639844167 0.6981317008 0.72986495992 0.76159821905 0.79333147818 0.82506473731 
0.85679799643 0.88853125556 0.92026451469 0.95199777382 0.98373103294 1.0154642921 1.0471975512 1.0789308103 1.1106640695 
1.1423973286 1.1741305877 1.2058638468 1.237597106 1.2693303651 1.3010636242 1.3327968833 1.3645301425 1.3962634016 
1.4279966607 1.4597299198 1.491463179 1.5231964381 1.5549296972 1.5866629564 1.6183962155 1.6501294746 1.6818627337 
1.7135959929 1.745329252 1.7770625111 1.8087957702 1.8405290294 1.8722622885 1.9039955476 1.9357288068 1.9674620659 
1.999195325 2.0309285841 2.0626618433 2.0943951024 2.1261283615 2.1578616206 2.1895948798 2.2213281389 2.253061398 
2.2847946572 2.3165279163 2.3482611754 2.3799944345 2.4117276937 2.4434609528 2.4751942119 2.506927471 2.5386607302 
2.5703939893 2.6021272484 2.6338605076 2.6655937667 2.6973270258 2.7290602849 2.7607935441 2.7925268032 2.8242600623 
2.8559933214 2.8877265806 2.9194598397 2.9511930988 2.982926358 3.0146596171 3.0463928762 3.0781261353 3.1098593945 
3.1415926536 
_radius 1 100 double
1.3426356274e-15 0.014472481526 0.02890312196 0.043244897022 0.057453155122 0.071483838914 0.085289092537 0.098811223038 0.11197665793 
0.12469168023 0.1368413569 0.14829241599 0.15890012561 0.16851864611 0.17701389172 0.18427760009 0.19024103617 0.19488658275 
0.1982554744 0.20045019124 0.20163056769 0.20200344597 0.20180661169 0.20128864685 0.20068706021 0.20020744074 0.20000629964 
0.20017968586 0.20075869295 0.20171188895 0.20295382479 0.20435833885 0.2057753569 0.20704999785 0.20804267308 0.20864840552 
0.20881309387 0.2085443385 0.20791492784 0.20705805961 0.206154625 0.20541417756 0.20505224904 0.20526712906 0.20621893582 
0.20801303797 0.21068922189 0.21421775428 0.21850328792 0.22339672741 0.22871362439 0.23425612978 0.23983481637 0.24528702558 
0.25048942361 0.25536368098 0.25987530634 0.26402656493 0.26784506419 0.27136996802 0.27463789298 0.27767038509 0.28046456886 
0.28298817792 0.28517971052 0.28695383114 0.28821135005 0.28885229574 0.28878999104 0.28796383713 0.28634872719 0.28395954655 
0.28084993134 0.27710524592 0.27283053872 0.26813499099 0.26311500165 0.25783843135 0.25233251616 0.24657747271 0.24050690964 
0.23401504181 0.22696964104 0.21922885135 0.21065953493 0.20115470097 0.19064777369 0.1791219307 0.1666134212 0.1532085689 
0.13903497818 0.12424819428 0.10901562818 0.093499872328 0.077843562281 0.062157680647 0.04651469197 0.030947219259 0.015452229671 
6.8094210443e-16 
_area 1 100 double
0 0.00062585491639 0.0024829614914 0.005514021217 0.0096355094074 0.014750452741 0.020757736226 0.027553551727 0.035024294363 
0.043034411193 0.051414790742 0.059956429544 0.068411789222 0.076504312054 0.083945621957 0.090459417956 0.09581009841 0.09983247105 
0.10245710974 0.1037251118 0.10378714061 0.10288490087 0.10131770082 0.099400770513 0.097423841127 0.095617842735 0.094136016864 
0.093054230089 0.092391026815 0.092139075213 0.092291433001 0.092844288984 0.093771849196 0.094995226913 0.096375631277 0.097745492234 
0.098956926706 0.099920498632 0.10062397127 0.10113320891 0.10157672088 0.1021186227 0.10293086534 0.10417381163 0.10598870667 
0.10850101468 0.11182872401 0.11607986256 0.12131255961 0.12746432845 0.13433674528 0.14166540968 0.14919199886 0.1566974944 
0.16401127406 0.17101025628 0.17761244902 0.18376633485 0.18943806916 0.19459864632 0.19921236465 0.20322777364 0.20657357228 
0.20916240363 0.21090266084 0.21171401902 0.21154081274 0.21035983895 0.20818282612 0.2050533482 0.20103267487 0.19618328127 
0.1905816811 0.18434963739 0.17765932346 0.17070790469 0.16368125735 0.15672235857 0.14991108389 0.14325506826 0.13668879928 
0.13008031899 0.12324841765 0.11599346581 0.10813978642 0.099579830712 0.090306870916 0.080426502131 0.070144943611 0.059739203594 
0.049518125437 0.039783924154 0.03080180087 0.022781743566 0.015872981616 0.010168800798 0.0057180083502 0.00253915983 0.00063430452145 
3.1260574306e-17 
