# vtk DataFile Version 5.1
vtk output
ASCII
DATASET POLYDATA
POINTS 100 float
0.151349 0.0172144 -0.561216 0.150992 0.0172682 -0.561294 0.15 0.0173026 -0.561573 
0.148405 0.0173005 -0.561956 0.14626 0.0172352 -0.562293 0.14363 0.0170745 -0.562397 
0.140585 0.0167841 -0.56207 0.137197 0.016332 -0.561119 0.133524 0.0156925 -0.559379 
0.12961 0.0148489 -0.55673 0.125476 0.0137946 -0.553103 0.121117 0.0125338 -0.548484 
0.116497 0.0110792 -0.542908 0.111556 0.0094497 -0.536447 0.106212 0.00766599 -0.529195 
0.10037 0.00574677 -0.521251 0.0939314 0.00370474 -0.512697 0.0868068 0.00154361 -0.503593 
0.0789284 -0.000743373 -0.493961 0.0702616 -0.00317318 -0.483786 0.0608138 -0.00577076 -0.47302 
0.0506401 -0.008565 -0.461592 0.0398441 -0.0115833 -0.449421 0.028574 -0.014845 -0.436429 
0.0170136 -0.0183552 -0.422561 0.00536861 -0.0220989 -0.407792 -0.00614981 -0.0260366 -0.392131 
-0.017343 -0.0301024 -0.375629 -0.0280422 -0.0342043 -0.358367 -0.0381237 -0.0382273 -0.340446 
-0.0475188 -0.04204 -0.321973 -0.056218 -0.0455021 -0.303047 -0.0642692 -0.0484744 -0.283742 
-0.0717672 -0.0508291 -0.264096 -0.0788391 -0.05246 -0.244109 -0.0856234 -0.053291 -0.223738 
-0.0922482 -0.0532826 -0.202913 -0.0988084 -0.0524353 -0.181545 -0.105347 -0.0507904 -0.159547 
-0.111841 -0.0484261 -0.136853 -0.118194 -0.0454521 -0.113437 -0.124244 -0.0420008 -0.0893288 
-0.129765 -0.0382174 -0.0646205 -0.134494 -0.0342487 -0.0394685 -0.138153 -0.0302338 -0.0140854 
-0.140476 -0.0262945 0.0112752 -0.141241 -0.0225292 0.0363395 -0.14029 -0.0190091 0.0608387 
-0.137551 -0.0157776 0.084534 -0.133049 -0.012852 0.107239 -0.126909 -0.0102286 0.128835 
-0.11934 -0.00788829 0.149282 -0.110623 -0.00580424 0.168619 -0.101083 -0.00394864 0.186953 
-0.0910615 -0.00229883 0.204444 -0.0808808 -0.000841753 0.221286 -0.0708211 0.000423845 0.237677 
-0.0610951 0.00148757 0.253799 -0.0518348 0.00232981 0.269796 -0.0430863 0.00292603 0.285761 
-0.034815 0.00325233 0.301729 -0.0269196 0.00329136 0.317675 -0.0192535 0.00303789 0.333529 
-0.0116494 0.00250314 0.349188 -0.00394591 0.00171712 0.364536 0.00398918 0.000728834 0.379462 
0.0122402 -0.000396055 0.393881 0.0208326 -0.00157978 0.407746 0.0297303 -0.00273882 0.421054 
0.0388417 -0.00379128 0.433848 0.0480326 -0.0046646 0.446206 0.0571453 -0.00530256 0.45823 
0.0660187 -0.00567081 0.470029 0.0745099 -0.00576024 0.4817 0.082511 -0.00558779 0.493311 
0.0899607 -0.00519455 0.504889 0.0968497 -0.00464127 0.516411 0.103217 -0.00400191 0.527806 
0.109141 -0.00335582 0.53896 0.114722 -0.00277938 0.549732 0.120069 -0.00233823 0.559969 
0.125275 -0.00208074 0.569525 0.130405 -0.00203353 0.57828 0.13548 -0.00219951 0.586151 
0.140478 -0.00255861 0.59311 0.145333 -0.00307105 0.599175 0.14994 -0.00368273 0.604417 
0.154176 -0.00433205 0.608941 0.157916 -0.00495737 0.612875 0.16105 -0.00550416 0.616353 
0.163503 -0.00593105 0.619497 0.165245 -0.00621404 0.6224 0.166304 -0.00634847 0.625118 
0.166757 -0.00634849 0.627667 0.166728 -0.0062442 0.630022 0.166374 -0.00607687 0.632125 
0.165862 -0.0058929 0.633901 0.165353 -0.00573716 0.635266 0.164977 -0.00564685 0.636148 
0.16482 -0.00564634 0.636499 
LINES 2 100
OFFSETS vtktypeint64
0 100 
CONNECTIVITY vtktypeint64
0 1 2 3 4 5 6 7 8 
9 10 11 12 13 14 15 16 17 
18 19 20 21 22 23 24 25 26 
27 28 29 30 31 32 33 34 35 
36 37 38 39 40 41 42 43 44 
45 46 47 48 49 50 51 52 53 
54 55 56 57 58 59 60 61 62 
63 64 65 66 67 68 69 70 71 
72 73 74 75 76 77 78 79 80 
81 82 83 84 85 86 87 88 89 
90 91 92 93 94 95 96 97 98 
99 
POINT_DATA 100
FIELD FieldData 3
_theta 1 100 double
0 0.031733259127 0.063466518254 0.095199777382 0.12693303651 0.15866629564 0.19039955476 0.22213281389 0.25386607302 
0.28559933214 0.31733259127 0.3490658504 0.38079910953 0.41253236865 0.44426562778 0.47599888691 0.50773214603 0.53946540516 
0.57119866429 0.60293192342 0.63466518254 0.66639844167 0.6981317008 0.72986495992 0.76159821905 0.79333147818 0.82506473731 
0.85679799643 0.88853125556 0.92026451469 0.95199777382 0.98373103294 1.0154642921 1.0471975512 1.0789308103 1.1106640695 
1.1423973286 1.1741305877 1.2058638468 1.237597106 1.2693303651 1.3010636242 1.3327968833 1.3645301425 1.3962634016 
1.4279966607 1.4597299198 1.491463179 1.5231964381 1.5549296972 1.5866629564 1.6183962155 1.6501294746 1.6818627337 
1.7135959929 1.745329252 1.7770625111 1.8087957702 1.8405290294 1.8722622885 1.9039955476 1.9357288068 1.9674620659 
1.999195325 2.0309285841 2.0626618433 2.0943951024 2.1261283615 2.1578616206 2.1895948798 2.2213281389 2.253061398 
2.2847946572 2.3165279163 2.3482611754 2.3799944345 2.4117276937 2.4434609528 2.4751942119 2.506927471 2.5386607302 
2.5703939893 2.6021272484 2.6338605076 2.6655937667 2.6973270258 2.7290602849 2.7607935441 2.7925268032 2.8242600623 
2.8559933214 2.8877265806 2.9194598397 2.9511930988 2.982926358 3.0146596171 3.0463928762 3.0781261353 3.1098593945 
3.1415926536 
_radius 1 100 double
9.037160118e-16 0.017422335933 0.034556263543 0.051136793396 0.066945044558 0.081822827998 0.095677951962 0.10847918772 0.12024188742 
0.13100744915 0.14082140914 0.149715188 0.15769521971 0.16474087453 0.17081024126 0.17585131858 0.17981575743 0.18267270737 
0.18442103666 0.18509882787 0.18478945172 0.18362371789 0.18177766417 0.17946554559 0.17692762613 0.17441263475 0.17215545694 
0.17035199731 0.16913507675 0.16855687431 0.16858321362 0.16910199435 0.16994364864 0.17090850728 0.17179581599 0.17243078653 
0.17268766252 0.17250738105 0.17190814855 0.17098690317 0.16991023853 0.16889550646 0.16818571169 0.16802332032 0.1686267934 
0.17017072151 0.17276839678 0.17645586496 0.1811787758 0.18678641178 0.19303851545 0.19962754021 0.20621301556 0.21246054147 
0.21807809029 0.22284490771 0.2266306015 0.22940324404 0.23122610478 0.23224353943 0.23265770043 0.23269889865 0.23259335565 
0.23253254562 0.23264832575 0.23299759374 0.23355903376 0.23424232824 0.23490744932 0.23538951336 0.235524073 0.23516851614 
0.23421680081 0.23260650016 0.23031863055 0.22737166522 0.22381141127 0.21969831173 0.21509366556 0.21004647539 0.20458294869 
0.19870063505 0.19236844764 0.18553250377 0.178126349 0.17008327613 0.16134836138 0.15188834273 0.14169815636 0.13080350779 
0.11925925409 0.10714381607 0.09455048359 0.081577201455 0.068316883848 0.054850190113 0.041241949653 0.027541309363 0.013784667018 
1.3989614779e-15 
_area 1 100 double
0 0.00053080666504 0.0021181781398 0.0047431057023 0.0083633890385 0.012904393814 0.018254770182 0.024269041151 0.030775340406 
0.037584412144 0.044496285005 0.051303564678 0.057793506631 0.063752700062 0.0689771732 0.07328802245 0.076550189409 0.078690723694 
0.079712417824 0.079698135267 0.078799985773 0.077209629944 0.075122681286 0.072728128397 0.070227591342 0.067854612472 0.065868696967 
0.064526695077 0.064056087858 0.064486820803 0.0656386244 0.067274343234 0.069130607899 0.070979463862 0.072651989789 0.074039170063 
0.075103161741 0.075880912458 0.076477488127 0.077122310844 0.077867833847 0.078773140817 0.079914699407 0.081369868691 0.083192347872 
0.085533630978 0.08856543365 0.092440748683 0.097277899755 0.10313629969 0.10995647647 0.11749697684 0.12534589974 0.13300098065 
0.13995468494 0.1457639974 0.15010703332 0.1528218889 0.15391958504 0.15356781222 0.15205188858 0.14972812551 0.14698840161 
0.14433626417 0.1426392404 0.14179140491 0.14150417519 0.14160111002 0.14184123339 0.14195875156 0.14169306614 0.14082308141 
0.13919202207 0.13671676312 0.13338551593 0.129250567 0.12441743692 0.11902647653 0.1132252971 0.10713821839 0.10084459603 
0.094376061597 0.087733580928 0.080914909126 0.073938606972 0.066854346201 0.059737474872 0.052673815553 0.045744641304 0.039020244495 
0.032564517231 0.026445788376 0.020745453686 0.015558359249 0.010984932659 0.0071196300956 0.0040409977219 0.001806589319 0.00045312715661 
4.3185138862e-17 
