# vtk DataFile Version 5.1
vtk output
ASCII
DATASET POLYDATA
POINTS 100 float
0.0402523 -0.00681004 -0.60458 0.0400438 -0.00669529 -0.604644 0.0394596 -0.00657288 -0.604789 
0.038553 -0.00646954 -0.604923 0.037405 -0.00642558 -0.604902 0.0361133 -0.00648958 -0.604546 
0.0347804 -0.00671203 -0.603658 0.033499 -0.00713882 -0.60204 0.0323396 -0.00780549 -0.599518 
0.0313398 -0.00873308 -0.595952 0.0304977 -0.00992598 -0.591251 0.0297693 -0.0113722 -0.585375 
0.0290711 -0.013046 -0.578341 0.0282873 -0.0149116 -0.57021 0.0272807 -0.0169288 -0.561082 
0.0259065 -0.0190582 -0.551078 0.024027 -0.0212657 -0.540324 0.0215261 -0.0235254 -0.52894 
0.0183214 -0.0258208 -0.517024 0.0143735 -0.0281434 -0.504644 0.00969002 -0.0304894 -0.491832 
0.00432611 -0.0328544 -0.478586 -0.00162083 -0.0352286 -0.464873 -0.00801989 -0.0375906 -0.450637 
-0.0147187 -0.0399036 -0.435811 -0.0215572 -0.0421132 -0.420325 -0.0283812 -0.0441484 -0.404118 
-0.0350558 -0.0459246 -0.387147 -0.0414744 -0.0473506 -0.369391 -0.0475662 -0.0483363 -0.350853 
-0.0532978 -0.0488028 -0.331558 -0.0586718 -0.0486919 -0.311551 -0.0637208 -0.0479741 -0.290888 
-0.0684988 -0.0466545 -0.269632 -0.0730702 -0.0447754 -0.247843 -0.0774985 -0.0424144 -0.225578 
-0.0818349 -0.039679 -0.202883 -0.0861096 -0.0366982 -0.179795 -0.0903245 -0.0336105 -0.156345 
-0.0944506 -0.0305511 -0.13256 -0.0984276 -0.0276397 -0.108471 -0.102167 -0.0249693 -0.0841181 
-0.105561 -0.0225981 -0.0595553 -0.108488 -0.0205454 -0.0348543 -0.110822 -0.0187919 -0.0101058 
-0.112446 -0.0172839 0.0145826 -0.113259 -0.0159422 0.0390904 -0.113182 -0.0146727 0.0632912 
-0.112167 -0.0133788 0.0870605 -0.110195 -0.0119745 0.110285 -0.107279 -0.0103948 0.132869 
-0.103462 -0.00860395 0.154745 -0.0988125 -0.00660017 0.175871 -0.093416 -0.00441602 0.196237 
-0.0873724 -0.0021149 0.215863 -0.0807879 0.000215813 0.234788 -0.0737684 0.00247417 0.253071 
-0.0664156 0.00455421 0.270778 -0.0588223 0.00635653 0.287975 -0.0510704 0.00779748 0.304718 
-0.04323 0.00881613 0.321052 -0.0353592 0.00937826 0.337003 -0.0275058 0.00947712 0.352581 
-0.0197088 0.00913127 0.367781 -0.012001 0.00837989 0.382583 -0.00441091 0.00727655 0.396965 
0.00303517 0.00588227 0.410905 0.0103114 0.00425901 0.424387 0.0173916 0.00246423 0.437406 
0.0242487 0.000547379 0.449971 0.0308546 -0.00145168 0.462105 0.0371811 -0.00350216 0.473843 
0.0432008 -0.0055803 0.485227 0.0488878 -0.00766612 0.496304 0.0542191 -0.00974009 0.507111 
0.059176 -0.01178 0.517679 0.0637447 -0.0137592 0.528019 0.0679173 -0.0156458 0.538123 
0.0716923 -0.0174042 0.547962 0.0750744 -0.0189974 0.557486 0.0780752 -0.0203907 0.566627 
0.0807118 -0.0215561 0.575306 0.0830067 -0.0224761 0.58344 0.0849867 -0.0231466 0.590948 
0.0866816 -0.0235786 0.597758 0.0881231 -0.023798 0.603816 0.0893434 -0.0238435 0.60909 
0.0903737 -0.0237626 0.613572 0.0912435 -0.0236074 0.617277 0.091979 -0.023428 0.620249 
0.0926028 -0.0232682 0.622549 0.0931332 -0.0231609 0.624258 0.0935841 -0.023125 0.625465 
0.0939654 -0.0231649 0.626268 0.0942834 -0.0232714 0.626763 0.0945412 -0.0234249 0.62704 
0.0947398 -0.0235993 0.627179 0.0948789 -0.0237673 0.627247 0.0949578 -0.0239053 0.627292 
0.0949757 -0.0239974 0.627345 
LINES 2 100
OFFSETS vtktypeint64
0 100 
CONNECTIVITY vtktypeint64
0 1 2 3 4 5 6 7 8 
9 10 11 12 13 14 15 16 17 
18 19 20 21 22 23 24 25 26 
27 28 29 30 31 32 33 34 35 
36 37 38 39 40 41 42 43 44 
45 46 47 48 49 50 51 52 53 
54 55 56 57 58 59 60 61 62 
63 64 65 66 67 68 69 70 71 
72 73 74 75 76 77 78 79 80 
81 82 83 84 85 86 87 88 89 
90 91 92 93 94 95 96 97 98 
99 
POINT_DATA 100
FIELD FieldData 3
_theta 1 100 double
0 0.031733259127 0.063466518254 0.095199777382 0.12693303651 0.15866629564 0.19039955476 0.22213281389 0.25386607302 
0.28559933214 0.31733259127 0.3490658504 0.38079910953 0.41253236865 0.44426562778 0.47599888691 0.50773214603 0.53946540516 
0.57119866429 0.60293192342 0.63466518254 0.66639844167 0.6981317008 0.72986495992 0.76159821905 0.79333147818 0.82506473731 
0.85679799643 0.88853125556 0.92026451469 0.95199777382 0.98373103294 1.0154642921 1.0471975512 1.0789308103 1.1106640695 
1.1423973286 1.1741305877 1.2058638468 1.237597106 1.2693303651 1.3010636242 1.3327968833 1.3645301425 1.3962634016 
1.4279966607 1.4597299198 1.491463179 1.5231964381 1.5549296972 1.5866629564 1.6183962155 1.6501294746 1.6818627337 
1.7135959929 1.745329252 1.7770625111 1.8087957702 1.8405290294 1.8722622885 1.9039955476 1.9357288068 1.9674620659 
1.999195325 2.0309285841 2.0626618433 2.0943951024 2.1261283615 2.1578616206 2.1895948798 2.2213281389 2.253061398 
2.2847946572 2.3165279163 2.3482611754 2.3799944345 2.4117276937 2.4434609528 2.4751942119 2.506927471 2.5386607302 
2.5703939893 2.6021272484 2.6338605076 2.6655937667 2.6973270258 2.7290602849 2.7607935441 2.7925268032 2.8242600623 
2.8559933214 2.8877265806 2.9194598397 2.9511930988 2.982926358 3.0146596171 3.0463928762 3.0781261353 3.1098593945 
3.1415926536 
_radius 1 100 double
1.1145135956e-15 0.014320103731 0.0285612895 0.042644074293 0.056494816556 0.070046494433 0.083237634473 0.09600989212 0.10830522183 
0.12006369004 0.1312227607 0.14171842284 0.15148800249 0.16047407052 0.16862862696 0.1759167404 0.1823190106 0.18783253272 
0.19247039019 0.19626001679 0.19924098521 0.20146284695 0.20298353222 0.20386852762 0.20419066455 0.20403000953 0.20347319379 
0.20261163121 0.20153841671 0.20034413753 0.19911219974 0.1979144551 0.19680788104 0.19583288049 0.19501352556 0.1943598315 
0.19387189242 0.19354538521 0.1933775805 0.1933727242 0.19354563475 0.19392268073 0.19453990045 0.19543872162 0.19666031126 
0.19823986409 0.20020206546 0.20255856821 0.20530767002 0.20843562339 0.21191846322 0.21572321175 0.21980786959 0.22412042342 
0.22859776349 0.2331656183 0.23774033416 0.24223270505 0.24655334401 0.25061855181 0.25435547085 0.25770554855 0.26062584492 
0.26308828094 0.26507733491 0.26658685457 0.26761658938 0.26816886698 0.26824565097 0.26784608902 0.26696459839 0.2655895308 
0.26370250071 0.26127852934 0.2582871887 0.25469484467 0.25046786608 0.24557635725 0.23999773168 0.23371941159 0.22674015269 
0.21906987419 0.21072826429 0.2017426829 0.19214592537 0.18197426806 0.17126597969 0.1600602615 0.14839645097 0.13631331631 
0.12384836138 0.11103720363 0.097913220607 0.084507726992 0.070850894303 0.056973430527 0.042908722354 0.02869482329 0.01437553256 
1.1089517833e-15 
_area 1 100 double
0 0.00058577369939 0.0023291790579 0.0051899543621 0.0091053911859 0.013995168541 0.019765264603 0.02630942136 0.03350759615 
0.041222095112 0.049293198098 0.057536673213 0.065745477088 0.073697193286 0.08116755411 0.087948962442 0.09387153749 0.098823065857 
0.10276349611 0.10572941725 0.1078246065 0.10919504934 0.10999250825 0.11033973274 0.11031465563 0.10995982228 0.10930548954 
0.10839005714 0.10726994774 0.10601982363 0.10472723452 0.10348495215 0.10238232549 0.10149600486 0.10088104567 0.10056496415 
0.10054775899 0.10080883308 0.10131841736 0.10204927492 0.10298556542 0.10412877249 0.10550258455 0.10715683285 0.10916620492 
0.11161786287 0.11458772681 0.11811527821 0.12219070953 0.1267600522 0.13174273356 0.13705175622 0.14260814221 0.14834495167 
0.15420070539 0.16010625573 0.1659720184 0.1716827921 0.17710416455 0.18209907562 0.18654874911 0.19037070383 0.19352746605 
0.19602216103 0.19788117853 0.19912934702 0.1997674208 0.19976108321 0.1990444541 0.19753485483 0.19515322319 0.19184442809 
0.18759232743 0.18242616496 0.17641763886 0.16967058333 0.16230661791 0.15445005823 0.14621459226 0.13769365752 0.12895614382 
0.12004831604 0.11100136809 0.10184226981 0.092604501628 0.08333560486 0.074100117459 0.064978474338 0.056063697201 0.047457671565 
0.039267855828 0.031604186095 0.024575417878 0.018284441502 0.012822991124 0.008267027326 0.0046742472642 0.0020844280406 0.00052208333148 
2.4726372922e-17 
