# vtk DataFile Version 5.1
vtk output
ASCII
DATASET POLYDATA
POINTS 100 float
0.104995 0.053694 -0.685632 0.105114 0.0535019 -0.685613 0.105468 0.0527858 -0.68554 
0.106009 0.0515917 -0.685305 0.106661 0.0499896 -0.684749 0.107329 0.0480646 -0.683675 
0.107905 0.0459059 -0.681875 0.108279 0.0435949 -0.679156 0.108344 0.0411953 -0.675364 
0.108008 0.0387447 -0.670398 0.107191 0.0362495 -0.664223 0.105834 0.033685 -0.656873 
0.103893 0.0309986 -0.64844 0.101343 0.0281178 -0.639059 0.0981656 0.02496 -0.628893 
0.0943547 0.0214459 -0.618105 0.089907 0.0175111 -0.606834 0.0848232 0.0131182 -0.595185 
0.0791078 0.00826548 -0.583205 0.0727711 0.00299208 -0.570888 0.0658329 -0.00262129 -0.558172 
0.0583271 -0.00845589 -0.544955 0.0503059 -0.0143627 -0.531107 0.041843 -0.0201736 -0.516499 
0.0330347 -0.0257143 -0.501016 0.0239977 -0.0308188 -0.48458 0.0148642 -0.0353417 -0.467165 
0.0057737 -0.0391698 -0.448801 -0.00313734 -0.0422301 -0.429576 -0.0117472 -0.0444931 -0.409621 
-0.01996 -0.045973 -0.389103 -0.0277156 -0.0467238 -0.368197 -0.0349952 -0.0468312 -0.347068 
-0.0418235 -0.0464033 -0.32585 -0.0482647 -0.0455591 -0.304629 -0.0544138 -0.0444173 -0.283435 
-0.0603836 -0.0430862 -0.262235 -0.0662877 -0.0416557 -0.240945 -0.0722227 -0.0401918 -0.219438 
-0.0782511 -0.0387339 -0.197565 -0.0843866 -0.0372957 -0.175175 -0.0905847 -0.0358682 -0.152139 
-0.0967392 -0.0344248 -0.128368 -0.102686 -0.0329281 -0.103831 -0.108214 -0.0313366 -0.0785557 
-0.113082 -0.0296117 -0.0526376 -0.117038 -0.0277233 -0.026227 -0.119844 -0.0256545 0.000482067 
-0.121301 -0.023404 0.0272699 -0.121264 -0.0209876 0.053911 -0.11966 -0.0184369 0.080193 
-0.116495 -0.0157984 0.105934 -0.111854 -0.0131297 0.130993 -0.105895 -0.0104968 0.155278 
-0.0988299 -0.00796964 0.178743 -0.0909099 -0.00561918 0.201385 -0.0823996 -0.0035134 0.223234 
-0.0735548 -0.00171452 0.244337 -0.0646016 -0.000276303 0.26475 -0.05572 0.000758097 0.284524 
-0.0470331 0.00135794 0.303696 -0.0386041 0.00150625 0.32229 -0.0304394 0.00120079 0.340311 
-0.0224984 0.000454546 0.357755 -0.0147084 -0.000704362 0.374611 -0.00698092 -0.00223335 0.390877 
0.000770231 -0.00407682 0.406562 0.00861326 -0.00616837 0.421695 0.0165862 -0.00843377 0.43633 
0.0246896 -0.0107946 0.450542 0.0328846 -0.0131723 0.464424 0.041097 -0.0154926 0.478078 
0.049225 -0.0176897 0.491601 0.0571512 -0.0197097 0.505076 0.0647558 -0.0215138 0.518557 
0.0719301 -0.0230799 0.532065 0.0785869 -0.024403 0.545574 0.0846696 -0.0254941 0.559021 
0.0901561 -0.0263783 0.572303 0.0950584 -0.0270913 0.585289 0.0994189 -0.0276754 0.597832 
0.103303 -0.0281753 0.609783 0.10679 -0.0286337 0.621007 0.109964 -0.0290875 0.631395 
0.112902 -0.0295655 0.640872 0.115669 -0.0300862 0.649403 0.118311 -0.0306575 0.656994 
0.120856 -0.0312777 0.663686 0.123309 -0.0319362 0.669549 0.125661 -0.0326169 0.674668 
0.127889 -0.0332999 0.679136 0.129964 -0.0339644 0.683036 0.131854 -0.0345911 0.68644 
0.13353 -0.0351634 0.689398 0.134969 -0.0356688 0.691937 0.136155 -0.0360985 0.694065 
0.137076 -0.0364476 0.695771 0.137729 -0.0367136 0.697039 0.138112 -0.036896 0.697846 
0.138224 -0.0369949 0.698175 
LINES 2 100
OFFSETS vtktypeint64
0 100 
CONNECTIVITY vtktypeint64
0 1 2 3 4 5 6 7 8 
9 10 11 12 13 14 15 16 17 
18 19 20 21 22 23 24 25 26 
27 28 29 30 31 32 33 34 35 
36 37 38 39 40 41 42 43 44 
45 46 47 48 49 50 51 52 53 
54 55 56 57 58 59 60 61 62 
63 64 65 66 67 68 69 70 71 
72 73 74 75 76 77 78 79 80 
81 82 83 84 85 86 87 88 89 
90 91 92 93 94 95 96 97 98 
99 
POINT_DATA 100
FIELD FieldData 3
_theta 1 100 double
0 0.031733259127 0.063466518254 0.095199777382 0.12693303651 0.15866629564 0.19039955476 0.22213281389 0.25386607302 
0.28559933214 0.31733259127 0.3490658504 0.38079910953 0.41253236865 0.44426562778 0.47599888691 0.50773214603 0.53946540516 
0.57119866429 0.60293192342 0.63466518254 0.66639844167 0.6981317008 0.72986495992 0.76159821905 0.79333147818 0.82506473731 
0.85679799643 0.88853125556 0.92026451469 0.95199777382 0.98373103294 1.0154642921 1.0471975512 1.0789308103 1.1106640695 
1.1423973286 1.1741305877 1.2058638468 1.237597106 1.2693303651 1.3010636242 1.3327968833 1.3645301425 1.3962634016 
1.4279966607 1.4597299198 1.491463179 1.5231964381 1.5549296972 1.5866629564 1.6183962155 1.6501294746 1.6818627337 
1.7135959929 1.745329252 1.7770625111 1.8087957702 1.8405290294 1.8722622885 1.9039955476 1.9357288068 1.9674620659 
1.999195325 2.0309285841 2.0626618433 2.0943951024 2.1261283615 2.1578616206 2.1895948798 2.2213281389 2.253061398 
2.2847946572 2.3165279163 2.3482611754 2.3799944345 2.4117276937 2.4434609528 2.4751942119 2.506927471 2.5386607302 
2.5703939893 2.6021272484 2.6338605076 2.6655937667 2.6973270258 2.7290602849 2.7607935441 2.7925268032 2.8242600623 
2.8559933214 2.8877265806 2.9194598397 2.9511930988 2.982926358 3.0146596171 3.0463928762 3.0781261353 3.1098593945 
3.1415926536 
_radius 1 100 double
1.6199010924e-16 0.014407407188 0.028693559722 0.042736520392 0.056425127681 0.069663638591 0.082374808228 0.094500698419 0.10600077724 
0.1168473919 0.12701934933 0.13649493272 0.14524600527 0.1532347495 0.16041405243 0.16673174585 0.17213810195 0.17659537198 
0.18008781264 0.18263056015 0.1842758559 0.18511547778 0.18527874954 0.18492610645 0.18423878248 0.18340566618 0.18260870311 
0.18200836772 0.18173063359 0.18185654217 0.18241508394 0.18337994133 0.18467076806 0.18615978606 0.18768413875 0.18906351631 
0.19012134719 0.19070681175 0.19071447087 0.19009855375 0.18887979138 0.18714387843 0.1850320036 0.1827253088 0.18042644666 
0.1783420721 0.17666929111 0.17558657138 0.17524674923 0.17576876313 0.1772265425 0.17963676103 0.18294956763 0.18704649372 
0.19174783148 0.1968291191 0.20204388881 0.20714822509 0.21192266007 0.21618845459 0.21981730873 0.22273496414 0.22491973711 
0.22639705974 0.22723097739 0.22751345719 0.22735234448 0.226858833 0.22613537001 0.22526500257 0.22430325467 0.22327357086 
0.22216695209 0.22094555487 0.2195490006 0.21790151549 0.21591820529 0.21350966638 0.21058523179 0.2070559009 0.20283810327 
0.1978589166 0.19206246287 0.18541632183 0.17791627211 0.16958769431 0.16048258618 0.1506722501 0.14023705892 0.12925579768 
0.11779732272 0.1059164296 0.093654311857 0.081042626191 0.068109469352 0.054885520259 0.04140895429 0.027728258464 0.013902615484 
2.3064931084e-16 
_area 1 100 double
0 0.00048874226704 0.0019501112614 0.0043673024165 0.0077057383221 0.011906143375 0.016879886611 0.022509207689 0.028652630436 
0.035153283921 0.041846459865 0.048563287708 0.055129953448 0.061365535484 0.0670838468 0.072103262808 0.076264101738 0.079449053425 
0.081600768298 0.082731799318 0.082924223166 0.082318685536 0.081095498103 0.07945341495 0.077592460457 0.075701407058 0.073939189338 
0.07243337213 0.071353766921 0.070848031025 0.07106160188 0.072069932314 0.073734397256 0.075840852819 0.078153605998 0.080424482274 
0.082411816778 0.083911506215 0.084796673569 0.085053643668 0.084785086482 0.084144496731 0.083258098367 0.082234954051 0.081201837446 
0.080298124205 0.079645874456 0.079521691582 0.079860022761 0.080775257043 0.082420336755 0.084976048873 0.088739079509 0.093568737783 
0.099296129587 0.10564729149 0.1122822017 0.11882915948 0.12492787203 0.13027298101 0.13464929982 0.13795006669 0.14017317824 
0.14139933081 0.14176342935 0.14142676739 0.14054646043 0.13924455458 0.13760085295 0.13567389934 0.1335207344 0.1311996856 
0.12876128253 0.12623589962 0.12362440143 0.12089390245 0.11797846026 0.11478460582 0.11120244572 0.10712277817 0.10245830086 
0.09716414917 0.091252067501 0.084794043414 0.077913878826 0.070767742878 0.063517292077 0.056302232454 0.049222591097 0.042339666978 
0.035694570815 0.029332057274 0.023317045019 0.017739716557 0.012711822381 0.0083581036646 0.0048053578107 0.0021704075509 0.00054798725357 
4.7759052862e-17 
