# vtk DataFile Version 5.1
vtk output
ASCII
DATASET POLYDATA
POINTS 100 float
0.171572 0.048045 -0.641483 0.171513 0.0480628 -0.641635 0.171338 0.0479206 -0.64208 
0.171031 0.0476105 -0.642697 0.170569 0.0471192 -0.6433 0.169914 0.0464272 -0.643658 
0.169021 0.0455085 -0.643523 0.16783 0.0443309 -0.642654 0.16627 0.0428566 -0.640848 
0.164265 0.0410451 -0.637953 0.16173 0.0388555 -0.633881 0.158579 0.0362512 -0.628616 
0.154731 0.0332045 -0.6222 0.150116 0.0297013 -0.614726 0.14468 0.0257456 -0.606313 
0.138392 0.0213629 -0.597089 0.13125 0.016602 -0.587167 0.123283 0.0115341 -0.576629 
0.114553 0.00625121 -0.565513 0.105152 0.000860748 -0.553813 0.0952021 -0.00452038 -0.541479 
0.0848428 -0.0097735 -0.528431 0.0742263 -0.0147861 -0.514576 0.0635058 -0.0194592 -0.499823 
0.0528242 -0.023714 -0.484104 0.0423039 -0.0274957 -0.467389 0.0320375 -0.0307755 -0.449692 
0.0220817 -0.0335499 -0.431076 0.0124541 -0.0358372 -0.411643 0.00313405 -0.0376723 -0.391526 
-0.00593214 -0.0390998 -0.370868 -0.0148226 -0.0401669 -0.349806 -0.0236279 -0.0409166 -0.328447 
-0.0324369 -0.0413822 -0.306856 -0.0413223 -0.0415841 -0.285048 -0.0503264 -0.0415285 -0.262986 
-0.0594491 -0.0412094 -0.240584 -0.0686402 -0.040612 -0.217729 -0.0777957 -0.0397188 -0.194295 
-0.0867594 -0.0385157 -0.17017 -0.0953305 -0.0369985 -0.145278 -0.103276 -0.0351785 -0.119598 
-0.110345 -0.033086 -0.0931799 -0.116292 -0.030771 -0.0661452 -0.120891 -0.0283021 -0.0386868 
-0.12396 -0.0257615 -0.0110534 -0.125374 -0.0232388 0.0164702 -0.125076 -0.0208226 0.0435894 
-0.123088 -0.0185923 0.070027 -0.119504 -0.0166093 0.0955488 -0.114489 -0.0149112 0.119984 
-0.108267 -0.0135076 0.14324 -0.101099 -0.0123795 0.165304 -0.0932681 -0.0114811 0.186238 
-0.0850558 -0.0107458 0.206168 -0.0767223 -0.0100944 0.22526 -0.0684884 -0.00944414 0.243698 
-0.0605218 -0.00871967 0.261658 -0.0529295 -0.00786215 0.279289 -0.0457548 -0.00683736 0.296695 
-0.038982 -0.00564078 0.313927 -0.032545 -0.00429949 0.330982 -0.0263406 -0.00287049 0.347811 
-0.0202451 -0.00143559 0.364333 -0.0141304 -9.35693e-05 0.380454 -0.00788061 0.00104971 0.396083 
-0.00140552 0.00189207 0.411153 0.00534962 0.00234545 0.425629 0.0123987 0.00234494 0.439519 
0.0197142 0.0018555 0.452871 0.0272313 0.000875594 0.465766 0.0348554 -0.000562494 0.478304 
0.0424734 -0.00239569 0.490586 0.049965 -0.00453601 0.502698 0.0572151 -0.00687876 0.514694 
0.0641243 -0.00931189 0.526583 0.0706175 -0.0117258 0.538324 0.0766487 -0.0140224 0.549829 
0.0822031 -0.0161226 0.560972 0.0872954 -0.0179715 0.5716 0.091965 -0.0195413 0.581558 
0.0962695 -0.020831 0.590705 0.100276 -0.021864 0.598932 0.104055 -0.0226834 0.606182 
0.107669 -0.0233455 0.612451 0.11117 -0.0239131 0.617793 0.114593 -0.0244483 0.622314 
0.117954 -0.0250061 0.626155 0.121251 -0.025629 0.629478 0.124464 -0.0263435 0.632441 
0.127563 -0.0271578 0.635183 0.130503 -0.0280627 0.637804 0.13324 -0.0290321 0.640356 
0.135723 -0.0300271 0.64284 0.137907 -0.0310001 0.64521 0.13975 -0.0318991 0.647379 
0.141217 -0.0326733 0.649243 0.142281 -0.0332777 0.650692 0.142922 -0.0336772 0.65163 
0.143127 -0.0338498 0.651993 
LINES 2 100
OFFSETS vtktypeint64
0 100 
CONNECTIVITY vtktypeint64
0 1 2 3 4 5 6 7 8 
9 10 11 12 13 14 15 16 17 
18 19 20 21 22 23 24 25 26 
27 28 29 30 31 32 33 34 35 
36 37 38 39 40 41 42 43 44 
45 46 47 48 49 50 51 52 53 
54 55 56 57 58 59 60 61 62 
63 64 65 66 67 68 69 70 71 
72 73 74 75 76 77 78 79 80 
81 82 83 84 85 86 87 88 89 
90 91 92 93 94 95 96 97 98 
99 
POINT_DATA 100
FIELD FieldData 3
_theta 1 100 double
0 0.031733259127 0.063466518254 0.095199777382 0.12693303651 0.15866629564 0.19039955476 0.22213281389 0.25386607302 
0.28559933214 0.31733259127 0.3490658504 0.38079910953 0.41253236865 0.44426562778 0.47599888691 0.50773214603 0.53946540516 
0.57119866429 0.60293192342 0.63466518254 0.66639844167 0.6981317008 0.72986495992 0.76159821905 0.79333147818 0.82506473731 
0.85679799643 0.88853125556 0.92026451469 0.95199777382 0.98373103294 1.0154642921 1.0471975512 1.0789308103 1.1106640695 
1.1423973286 1.1741305877 1.2058638468 1.237597106 1.2693303651 1.3010636242 1.3327968833 1.3645301425 1.3962634016 
1.4279966607 1.4597299198 1.491463179 1.5231964381 1.5549296972 1.5866629564 1.6183962155 1.6501294746 1.6818627337 
1.7135959929 1.745329252 1.7770625111 1.8087957702 1.8405290294 1.8722622885 1.9039955476 1.9357288068 1.9674620659 
1.999195325 2.0309285841 2.0626618433 2.0943951024 2.1261283615 2.1578616206 2.1895948798 2.2213281389 2.253061398 
2.2847946572 2.3165279163 2.3482611754 2.3799944345 2.4117276937 2.4434609528 2.4751942119 2.506927471 2.5386607302 
2.5703939893 2.6021272484 2.6338605076 2.6655937667 2.6973270258 2.7290602849 2.7607935441 2.7925268032 2.8242600623 
2.8559933214 2.8877265806 2.9194598397 2.9511930988 2.982926358 3.0146596171 3.0463928762 3.0781261353 3.1098593945 
3.1415926536 
_radius 1 100 double
7.8024768851e-16 0.015015392746 0.029946267353 0.044704426799 0.059204382495 0.073364060933 0.087104689981 0.10034989434 0.11302419845 
0.12505126348 0.13635227309 0.14684494745 0.15644372171 0.16506165027 0.17261452982 0.17902748873 0.18424383334 0.18823532538 
0.19101243923 0.19263270445 0.19320514474 0.19288916256 0.19188696494 0.19042964263 0.18875807857 0.18710074796 0.18565106394 
0.18454725346 0.18385789006 0.18357607272 0.18362446023 0.1838715249 0.18415649971 0.18431745336 0.18421552108 0.18375094333 
0.18287317475 0.1815907867 0.17998176949 0.1781988214 0.17646422634 0.17505201467 0.17425809772 0.17436201052 0.17558693155 
0.17806655614 0.1818264356 0.18678317915 0.19275945487 0.19950898158 0.2067451263 0.21416849753 0.22149124344 0.22845734127 
0.23485872834 0.24054702045 0.24544023694 0.24952375111 0.25284483707 0.25550078581 0.25762154535 0.25934896119 0.2608155982 
0.26212645264 0.26334641248 0.26449517065 0.26554977261 0.26645351465 0.26712885104 0.26749151804 0.26746326533 0.26698125208 
0.26600303684 0.2645068925 0.26248777599 0.25994972978 0.25689592586 0.25331804428 0.24918709381 0.24444788853 0.23901897215 
0.23279879838 0.22567764588 0.21755344928 0.20834883488 0.1980263682 0.18659935847 0.17413637795 0.16075873534 0.14663127451 
0.13194785415 0.11691354532 0.10172589001 0.086557511946 0.07154203987 0.056764784278 0.042258985659 0.028007809598 0.013951674235 
3.2923405084e-16 
_area 1 100 double
0 0.00059851822478 0.0023824625198 0.0053167660294 0.0093421591437 0.014373922197 0.02030042682 0.026982132008 0.034251904086 
0.041917353582 0.049765344351 0.057568220299 0.065091056171 0.072099645461 0.078369749117 0.083698624937 0.087919393436 0.090917333618 
0.09264535688 0.093134641813 0.092496639201 0.090914787098 0.088627886909 0.085911190556 0.083065783321 0.080434988301 0.078433375941 
0.077290668229 0.076910721739 0.077178222828 0.077966186478 0.079115018648 0.080452513592 0.081830982641 0.083150550836 0.084341679952 
0.085322381655 0.085977329227 0.08617407004 0.085864453617 0.085164867639 0.084347191299 0.083814838795 0.084380617435 0.086324604364 
0.08929762113 0.093405443901 0.098711402698 0.10517001927 0.11262256238 0.12081765858 0.12943667765 0.138128383 0.1465506315 
0.15440655807 0.16146361412 0.16755539992 0.17258120467 0.17651722455 0.17943123541 0.18148252852 0.18290215598 0.18396443393 
0.18495803898 0.18617722939 0.18754759987 0.18885550613 0.18991371729 0.19052521523 0.19050660571 0.18971870061 0.18808648873 
0.18560319279 0.18231997901 0.17832553816 0.17371992413 0.168586608 0.16296769328 0.15684980874 0.15016819081 0.14282977054 
0.13474704521 0.1258713903 0.11621774588 0.1058770059 0.09501513593 0.083859745201 0.072676731444 0.061741684944 0.051312014447 
0.04160534336 0.032787516859 0.024970434036 0.018217346127 0.012552334309 0.0079712836083 0.0044527914525 0.0019682202281 0.00049033967185 
5.2028559416e-17 
