# vtk DataFile Version 5.1
vtk output
ASCII
DATASET POLYDATA
POINTS 100 float
0.0109414 0.0714271 -0.670607 0.0110921 0.0711613 -0.670065 0.0115386 0.0700795 -0.668341 
0.0122657 0.0681939 -0.66545 0.0132489 0.0655271 -0.661419 0.0144554 0.0621122 -0.656294 
0.0158447 0.0579927 -0.650138 0.0173701 0.0532219 -0.643033 0.0189787 0.0478626 -0.635084 
0.0206126 0.0419865 -0.626409 0.0222096 0.0356738 -0.61714 0.0237035 0.0290121 -0.607412 
0.0250248 0.022095 -0.597355 0.0261022 0.0150216 -0.587083 0.0268632 0.00789385 -0.576687 
0.0272369 0.000815337 -0.566221 0.027156 -0.00611142 -0.555701 0.02656 -0.0127874 -0.545101 
0.0253987 -0.0191201 -0.534356 0.0236355 -0.025026 -0.523367 0.0212501 -0.0304341 -0.512012 
0.0182412 -0.0352879 -0.500157 0.0146272 -0.0395481 -0.487671 0.0104458 -0.0431937 -0.474442 
0.00575231 -0.046223 -0.460384 0.000615875 -0.0486535 -0.445448 -0.00488512 -0.0505199 -0.42963 
-0.0106687 -0.0518721 -0.412965 -0.0166551 -0.0527717 -0.395523 -0.022772 -0.0532877 -0.377404 
-0.028959 -0.0534914 -0.358719 -0.0351696 -0.0534519 -0.339585 -0.041372 -0.0532305 -0.320102 
-0.0475465 -0.0528774 -0.300351 -0.0536821 -0.0524274 -0.280379 -0.0597698 -0.0518986 -0.2602 
-0.0657962 -0.0512917 -0.239796 -0.0717365 -0.0505911 -0.219121 -0.0775479 -0.0497676 -0.198111 
-0.0831659 -0.0487825 -0.176699 -0.0885017 -0.0475926 -0.154826 -0.0934441 -0.0461557 -0.132454 
-0.0978638 -0.0444365 -0.109576 -0.10162 -0.0424116 -0.0862228 -0.104573 -0.0400737 -0.0624625 
-0.106589 -0.0374345 -0.0384009 -0.10756 -0.0345254 -0.0141719 -0.107407 -0.0313968 0.0100722 
-0.106091 -0.0281155 0.0341739 -0.103616 -0.0247605 0.0579834 -0.100033 -0.0214173 0.0813709 
-0.0954353 -0.0181723 0.104236 -0.0899503 -0.0151062 0.126514 -0.0837321 -0.0122889 0.148176 
-0.0769487 -0.00977489 0.169229 -0.0697697 -0.00760033 0.189708 -0.0623548 -0.00578185 0.209666 
-0.0548436 -0.00431741 0.229166 -0.0473492 -0.00318874 0.248268 -0.0399541 -0.00236524 0.267024 
-0.0327108 -0.00180885 0.285466 -0.0256458 -0.00147926 0.303607 -0.0187655 -0.00133897 0.321438 
-0.0120643 -0.00135745 0.338936 -0.00553345 -0.00151411 0.356064 0.000831319 -0.00179968 0.372783 
0.00702389 -0.00221591 0.389059 0.0130243 -0.0027736 0.404867 0.0187984 -0.00348945 0.420203 
0.0243005 -0.00438187 0.435078 0.0294785 -0.00546665 0.449523 0.0342804 -0.00675279 0.463583 
0.038662 -0.00823924 0.47731 0.0425938 -0.00991288 0.490758 0.0460657 -0.0117482 0.503969 
0.0490905 -0.0137085 0.516969 0.051703 -0.0157487 0.52976 0.0539577 -0.0178197 0.542315 
0.0559221 -0.0198729 0.55458 0.0576697 -0.0218652 0.566472 0.0592711 -0.0237636 0.577889 
0.0607859 -0.0255484 0.588713 0.0622557 -0.0272153 0.598825 0.0637 -0.0287752 0.608112 
0.0651145 -0.0302523 0.616476 0.0664734 -0.0316807 0.623845 0.0677341 -0.0330991 0.630178 
0.0688447 -0.0345455 0.635468 0.0697528 -0.0360509 0.639744 0.0704143 -0.0376342 0.643066 
0.0708017 -0.0392982 0.645526 0.0709098 -0.0410272 0.647235 0.0707583 -0.0427871 0.648322 
0.0703919 -0.0445271 0.64892 0.0698756 -0.0461839 0.649165 0.0692883 -0.0476872 0.649183 
0.0687138 -0.0489662 0.649085 0.0682307 -0.0499569 0.648964 0.0679035 -0.0506079 0.648891 
0.0677741 -0.0508858 0.648907 
LINES 2 100
OFFSETS vtktypeint64
0 100 
CONNECTIVITY vtktypeint64
0 1 2 3 4 5 6 7 8 
9 10 11 12 13 14 15 16 17 
18 19 20 21 22 23 24 25 26 
27 28 29 30 31 32 33 34 35 
36 37 38 39 40 41 42 43 44 
45 46 47 48 49 50 51 52 53 
54 55 56 57 58 59 60 61 62 
63 64 65 66 67 68 69 70 71 
72 73 74 75 76 77 78 79 80 
81 82 83 84 85 86 87 88 89 
90 91 92 93 94 95 96 97 98 
99 
POINT_DATA 100
FIELD FieldData 3
_theta 1 100 double
0 0.031733259127 0.063466518254 0.095199777382 0.12693303651 0.15866629564 0.19039955476 0.22213281389 0.25386607302 
0.28559933214 0.31733259127 0.3490658504 0.38079910953 0.41253236865 0.44426562778 0.47599888691 0.50773214603 0.53946540516 
0.57119866429 0.60293192342 0.63466518254 0.66639844167 0.6981317008 0.72986495992 0.76159821905 0.79333147818 0.82506473731 
0.85679799643 0.88853125556 0.92026451469 0.95199777382 0.98373103294 1.0154642921 1.0471975512 1.0789308103 1.1106640695 
1.1423973286 1.1741305877 1.2058638468 1.237597106 1.2693303651 1.3010636242 1.3327968833 1.3645301425 1.3962634016 
1.4279966607 1.4597299198 1.491463179 1.5231964381 1.5549296972 1.5866629564 1.6183962155 1.6501294746 1.6818627337 
1.7135959929 1.745329252 1.7770625111 1.8087957702 1.8405290294 1.8722622885 1.9039955476 1.9357288068 1.9674620659 
1.999195325 2.0309285841 2.0626618433 2.0943951024 2.1261283615 2.1578616206 2.1895948798 2.2213281389 2.253061398 
2.2847946572 2.3165279163 2.3482611754 2.3799944345 2.4117276937 2.4434609528 2.4751942119 2.506927471 2.5386607302 
2.5703939893 2.6021272484 2.6338605076 2.6655937667 2.6973270258 2.7290602849 2.7607935441 2.7925268032 2.8242600623 
2.8559933214 2.8877265806 2.9194598397 2.9511930988 2.982926358 3.0146596171 3.0463928762 3.0781261353 3.1098593945 
3.1415926536 
_radius 1 100 double
6.6624448455e-16 0.014548939729 0.028813621934 0.0425337098 0.055512794584 0.067638464664 0.07888954828 0.089329648987 0.099088618456 
0.10833586292 0.11725065933 0.12599458032 0.13468984881 0.14340556308 0.15215198212 0.16088195856 0.1694982472 0.17786551867 
0.18582605043 0.19321793622 0.19989417666 0.20574040273 0.21068866928 0.21472513 0.21789051123 0.22027371938 0.22200000761 
0.22321554814 0.22407025206 0.22470069936 0.22521518522 0.22568289264 0.2261288202 0.22653529012 0.22684978214 0.22699774846 
0.22689825361 0.22647993889 0.22569497225 0.22452923117 0.22300782934 0.22119602117 0.21919623864 0.21714229481 0.21519154173 
0.21351516671 0.21228627305 0.21166544019 0.21178441265 0.2127301766 0.21453299024 0.21716177783 0.22052836134 0.22449931625 
0.22891229982 0.23359320312 0.23837110831 0.24308919138 0.2476110136 0.25182284402 0.2556334377 0.25897277084 0.26179062783 
0.26405508661 0.26575043207 0.26687413687 0.26743312745 0.26744015296 0.26691124896 0.26586485229 0.26432228381 0.26230855624 
0.25985222047 0.25698333883 0.25372943319 0.250110041 0.24613104125 0.24178005444 0.2370239921 0.23180935491 0.22606534692 
0.21970946738 0.21265504167 0.20482009315 0.19613689326 0.18656136129 0.17608124904 0.16472187973 0.15254826548 0.13966278253 
0.1261982005 0.11230661718 0.098145573462 0.08386315549 0.069584123175 0.055398996567 0.041357620047 0.027468095903 0.013701243328 
3.0048813648e-16 
_area 1 100 double
0 0.00065851385932 0.0025816627291 0.0056234039859 0.0095738284524 0.014198020845 0.019272020442 0.024606302543 0.030053856572 
0.035507429919 0.040893775204 0.046170122472 0.051323310842 0.056368911074 0.061346678583 0.066309140762 0.071302434868 0.076342740401 
0.081395533207 0.086365585833 0.091102824344 0.09542404745 0.099144873696 0.10211295024 0.10423448249 0.10549061094 0.10594481296 
0.10574398539 0.10511240242 0.10433295014 0.10371160352 0.10352997354 0.10400089932 0.10524073231 0.10722111844 0.10963421772 
0.11196692327 0.11382545657 0.11502923907 0.11556180743 0.11552776717 0.11513037535 0.11463899693 0.1142850516 0.11418099515 
0.11439558036 0.11501340829 0.11614326783 0.11791094534 0.12044141422 0.12383649615 0.12815129587 0.13337189765 0.13940299006 
0.14606389763 0.15310255907 0.16023941382 0.1672136415 0.17380426709 0.17982596197 0.18511646027 0.18953231851 0.19296079593 
0.19534235219 0.19668718112 0.19706860653 0.19659152345 0.19535714365 0.19344758296 0.19092916161 0.18785923664 0.18429024677 
0.18027302289 0.17585986972 0.1711041967 0.16605395202 0.16074015641 0.15516555621 0.14929911052 0.14307956618 0.13642751595 
0.12926235127 0.1215197666 0.11316670495 0.10421248519 0.094715954727 0.084788431664 0.074591577449 0.064329199648 0.054232845771 
0.04454261224 0.035486119206 0.027259434934 0.020013530719 0.013848607567 0.0088167295333 0.0049313112977 0.0021807811758 0.00054334914569 
4.2121201565e-17 
