# vtk DataFile Version 5.1
vtk output
ASCII
DATASET POLYDATA
POINTS 100 float
0.0827316 0.0377695 -0.618332 0.0827456 0.0378044 -0.618527 0.0827833 0.0377309 -0.619108 
0.0828269 0.0375407 -0.619943 0.0828481 0.0372214 -0.620829 0.0828101 0.0367565 -0.621516 
0.0826698 0.0361264 -0.621732 0.0823803 0.0353089 -0.621211 0.081893 0.0342803 -0.619726 
0.0811591 0.0330167 -0.617105 0.0801308 0.0314946 -0.613246 0.0787619 0.0296928 -0.608127 
0.0770081 0.0275929 -0.601797 0.0748269 0.0251809 -0.594365 0.0721782 0.0224481 -0.585978 
0.0690249 0.0193917 -0.576802 0.0653348 0.0160159 -0.566995 0.0610825 0.0123319 -0.556688 
0.0562523 0.00835884 -0.545964 0.0508418 0.00412374 -0.534857 0.0448647 -0.000338347 -0.523342 
0.0383538 -0.00498415 -0.511351 0.0313615 -0.00976223 -0.49878 0.0239605 -0.0146131 -0.485509 
0.0162405 -0.0194698 -0.471424 0.00830469 -0.024258 -0.456434 0.000262853 -0.0288977 -0.440485 
-0.00777582 -0.0333046 -0.423572 -0.0157109 -0.0373924 -0.405741 -0.0234586 -0.0410757 -0.387082 
-0.030958 -0.0442735 -0.367723 -0.0381752 -0.0469136 -0.347809 -0.0451047 -0.0489366 -0.327488 
-0.0517668 -0.0503001 -0.306892 -0.0582021 -0.0509828 -0.286123 -0.0644628 -0.050987 -0.265243 
-0.0706023 -0.0503405 -0.244267 -0.0766634 -0.0490963 -0.223168 -0.0826669 -0.0473307 -0.201884 
-0.0886029 -0.0451397 -0.180333 -0.0944243 -0.0426329 -0.158426 -0.100045 -0.0399269 -0.136087 
-0.105342 -0.0371372 -0.113263 -0.110163 -0.0343701 -0.0899436 -0.114337 -0.0317151 -0.0661586 
-0.117692 -0.0292388 -0.0419844 -0.120063 -0.0269805 -0.0175371 -0.121315 -0.0249507 0.00703732 
-0.121352 -0.0231322 0.0315755 -0.120127 -0.0214837 0.0559116 -0.11765 -0.0199463 0.0798909 
-0.113985 -0.0184517 0.103381 -0.109244 -0.016931 0.126282 -0.10358 -0.0153243 0.148525 
-0.0971722 -0.0135887 0.170076 -0.0902072 -0.0117043 0.190929 -0.0828669 -0.00967848 0.211098 
-0.0753125 -0.00754591 0.230608 -0.0676729 -0.00536622 0.249488 -0.0600384 -0.00321839 0.267762 
-0.0524578 -0.00119283 0.285448 -0.0449418 0.00061784 0.302554 -0.0374695 0.0021285 0.319085 
-0.0299992 0.00327041 0.335043 -0.0224799 0.00399827 0.350439 -0.0148641 0.00429471 0.365294 
-0.00711843 0.00417151 0.379648 0.000768518 0.00366764 0.393563 0.0087815 0.00284417 0.407117 
0.0168784 0.00177677 0.420402 0.0249938 0.000546848 0.433515 0.0330457 -0.000767827 0.446548 
0.0409446 -0.00210155 0.459574 0.0486032 -0.00340734 0.472636 0.0559459 -0.00466083 0.485741 
0.0629159 -0.00586105 0.498849 0.0694799 -0.00702791 0.511882 0.0756298 -0.00819687 0.524719 
0.0813803 -0.00941135 0.537216 0.0867638 -0.0107141 0.549212 0.0918238 -0.0121384 0.560548 
0.0966062 -0.0137008 0.571085 0.101152 -0.0153959 0.580715 0.105489 -0.017194 0.589374 
0.109631 -0.0190425 0.597046 0.113573 -0.0208701 0.603764 0.117292 -0.0225948 0.609604 
0.120755 -0.0241322 0.614673 0.123921 -0.0254063 0.619097 0.126753 -0.0263588 0.623005 
0.129217 -0.0269569 0.626511 0.131298 -0.027198 0.629705 0.132992 -0.0271118 0.632643 
0.134319 -0.0267574 0.635343 0.135312 -0.0262181 0.63779 0.136017 -0.0255918 0.639939 
0.136486 -0.0249809 0.641726 0.136769 -0.0244804 0.643086 0.136909 -0.0241671 0.643957 
0.136933 -0.0240914 0.644299 
LINES 2 100
OFFSETS vtktypeint64
0 100 
CONNECTIVITY vtktypeint64
0 1 2 3 4 5 6 7 8 
9 10 11 12 13 14 15 16 17 
18 19 20 21 22 23 24 25 26 
27 28 29 30 31 32 33 34 35 
36 37 38 39 40 41 42 43 44 
45 46 47 48 49 50 51 52 53 
54 55 56 57 58 59 60 61 62 
63 64 65 66 67 68 69 70 71 
72 73 74 75 76 77 78 79 80 
81 82 83 84 85 86 87 88 89 
90 91 92 93 94 95 96 97 98 
99 
POINT_DATA 100
FIELD FieldData 3
_theta 1 100 double
0 0.031733259127 0.063466518254 0.095199777382 0.12693303651 0.15866629564 0.19039955476 0.22213281389 0.25386607302 
0.28559933214 0.31733259127 0.3490658504 0.38079910953 0.41253236865 0.44426562778 0.47599888691 0.50773214603 0.53946540516 
0.57119866429 0.60293192342 0.63466518254 0.66639844167 0.6981317008 0.72986495992 0.76159821905 0.79333147818 0.82506473731 
0.85679799643 0.88853125556 0.92026451469 0.95199777382 0.98373103294 1.0154642921 1.0471975512 1.0789308103 1.1106640695 
1.1423973286 1.1741305877 1.2058638468 1.237597106 1.2693303651 1.3010636242 1.3327968833 1.3645301425 1.3962634016 
1.4279966607 1.4597299198 1.491463179 1.5231964381 1.5549296972 1.5866629564 1.6183962155 1.6501294746 1.6818627337 
1.7135959929 1.745329252 1.7770625111 1.8087957702 1.8405290294 1.8722622885 1.9039955476 1.9357288068 1.9674620659 
1.999195325 2.0309285841 2.0626618433 2.0943951024 2.1261283615 2.1578616206 2.1895948798 2.2213281389 2.253061398 
2.2847946572 2.3165279163 2.3482611754 2.3799944345 2.4117276937 2.4434609528 2.4751942119 2.506927471 2.5386607302 
2.5703939893 2.6021272484 2.6338605076 2.6655937667 2.6973270258 2.7290602849 2.7607935441 2.7925268032 2.8242600623 
2.8559933214 2.8877265806 2.9194598397 2.9511930988 2.982926358 3.0146596171 3.0463928762 3.0781261353 3.1098593945 
3.1415926536 
_radius 1 100 double
1.3527996087e-15 0.013942983983 0.02781684212 0.041549659983 0.055068199503 0.068297799073 0.081162732891 0.093586936819 0.10549486598 
0.11681220708 0.12746628706 0.13738628114 0.1465036223 0.1547531936 0.16207581691 0.1684222128 0.17375811133 0.1780697533 
0.18136882917 0.18369602073 0.18512262524 0.1857500379 0.18570698456 0.18514435148 0.18422743953 0.1831256854 0.18200041325 
0.18099188267 0.18020751078 0.17971335752 0.17953056884 0.17963750642 0.17997706483 0.18046764479 0.18101576401 0.18152840545 
0.18192371796 0.18213930683 0.18213787504 0.18191034638 0.18147686012 0.18088613492 0.18021349647 0.17955735049 0.17903348515 
0.17876683059 0.17888120346 0.17948847949 0.18067877487 0.18251238221 0.18501313776 0.18816267247 0.19189598254 0.19610015696 
0.20061854273 0.20526137991 0.2098217726 0.2140943133 0.21789346287 0.22106943513 0.22352010094 0.2251979786 0.22611178902 
0.2263225017 0.22593435751 0.22508193175 0.22391472813 0.22258098664 0.22121241702 0.21991152397 0.21874296096 0.21772967368 
0.2168534858 0.21605880855 0.21525798826 0.21433745922 0.21316470427 0.21159640252 0.20948789959 0.2067035303 0.2031267515 
0.19866877499 0.19327449246 0.18692485002 0.17963531103 0.17145056831 0.16243626278 0.15266916315 0.14222785739 0.13118600735 
0.11960927425 0.10755554621 0.095077063212 0.082222976951 0.06904149508 0.055581413761 0.041893169359 0.028029528244 0.014045878181 
6.3551874889e-16 
_area 1 100 double
0 0.00051369550939 0.0020517032107 0.0046019584256 0.0081363351089 0.012602571883 0.01791834135 0.023969168349 0.030610315495 
0.037671750097 0.044964994954 0.052290807689 0.059446965286 0.066235847103 0.072471963365 0.077989799703 0.082651941847 0.086356538329 
0.089042679824 0.09069293397 0.091333452624 0.091032445762 0.089897204994 0.088069556316 0.085720598997 0.083047135533 0.080272663053 
0.077653442008 0.075479344099 0.07402360564 0.073404962534 0.073535332186 0.074231020043 0.075294994243 0.076553767997 0.077878121084 
0.079190866416 0.080464156336 0.081708175204 0.082954650104 0.084240236909 0.085590805943 0.087004566372 0.088453335325 0.089921183112 
0.091438281719 0.09306601969 0.094867826969 0.096919980289 0.099335904593 0.10226481029 0.10584910497 0.11015316367 0.11511548242 
0.12055684975 0.1262209064 0.13181696873 0.13705521727 0.14167348258 0.1454564804 0.14824900914 0.14996500703 0.15059374027 
0.15020237674 0.14893179323 0.14698201293 0.14458635467 0.14197774282 0.13935473959 0.13685657019 0.13455336361 0.13245155341 
0.1305088058 0.12865035114 0.12678059149 0.12478891041 0.12255244224 0.11993935872 0.11681547131 0.11305550519 0.10855836049 
0.10326389248 0.097167951674 0.090332144221 0.082884356971 0.075006382461 0.066907988693 0.058793396487 0.050833156474 0.043154207139 
0.035849871652 0.02899894834 0.02268067823 0.016979609454 0.011982255771 0.0077705756252 0.0044162749913 0.0019773857124 0.00049656141221 
4.2730222047e-17 
