# vtk DataFile Version 5.1
vtk output
ASCII
DATASET POLYDATA
POINTS 100 float
0.114302 0.0830057 -0.684976 0.114306 0.082766 -0.684754 0.114335 0.0818469 -0.684063 
0.11439 0.0803071 -0.682884 0.114475 0.0782361 -0.681188 0.114588 0.0757402 -0.67894 
0.11472 0.0729269 -0.676101 0.114851 0.0698882 -0.672635 0.114946 0.0666869 -0.668511 
0.114953 0.063346 -0.663706 0.114804 0.0598454 -0.658206 0.11442 0.0561241 -0.652005 
0.113707 0.0520894 -0.645103 0.112571 0.0476313 -0.637506 0.110921 0.0426403 -0.629219 
0.108674 0.0370269 -0.620241 0.105766 0.0307392 -0.610567 0.102156 0.0237772 -0.600179 
0.0978291 0.0162006 -0.589052 0.0928001 0.00813091 -0.577151 0.0871091 -0.000255121 -0.564436 
0.0808202 -0.00873766 -0.550864 0.0740144 -0.0170717 -0.536399 0.0667825 -0.0250081 -0.521013 
0.0592172 -0.0323149 -0.504692 0.0514048 -0.0387966 -0.487445 0.0434186 -0.0443102 -0.469297 
0.0353143 -0.0487738 -0.450296 0.0271274 -0.0521695 -0.430507 0.018874 -0.0545391 -0.410009 
0.0105539 -0.0559737 -0.388886 0.00215604 -0.0565993 -0.367221 -0.00633353 -0.056559 -0.34509 
-0.0149236 -0.0559967 -0.322552 -0.0236093 -0.0550417 -0.299649 -0.0323647 -0.0537974 -0.276398 
-0.0411372 -0.0523358 -0.252799 -0.0498446 -0.0506966 -0.228832 -0.0583752 -0.048892 -0.204469 
-0.0665908 -0.0469153 -0.179678 -0.0743331 -0.0447518 -0.154435 -0.081432 -0.0423904 -0.128735 
-0.0877158 -0.0398338 -0.102596 -0.093023 -0.0371056 -0.0760691 -0.0972123 -0.0342533 -0.0492397 
-0.100173 -0.0313467 -0.0222271 -0.101834 -0.0284725 0.00481941 -0.102165 -0.0257247 0.0317287 
-0.101183 -0.0231937 0.0583178 -0.0989513 -0.020955 0.0844043 -0.0955702 -0.0190592 0.109819 
-0.0911753 -0.0175253 0.134417 -0.0859265 -0.0163384 0.15809 -0.0799978 -0.0154511 0.18077 
-0.0735668 -0.0147903 0.202434 -0.0668042 -0.0142667 0.223104 -0.0598646 -0.0137876 0.242841 
-0.0528794 -0.0132689 0.261739 -0.045951 -0.012647 0.279913 -0.0391511 -0.0118869 0.297486 
-0.0325203 -0.0109875 0.314582 -0.0260707 -0.00998049 0.331312 -0.0197908 -0.00892663 0.347766 
-0.0136517 -0.00790645 0.364007 -0.00761448 -0.00700906 0.380073 -0.00163808 -0.00631952 0.395972 
0.00431346 -0.00590684 0.411692 0.0102644 -0.00581419 0.427203 0.0162225 -0.00605257 0.442468 
0.0221755 -0.00659894 0.45745 0.0280908 -0.00739874 0.472119 0.0339164 -0.0083726 0.486458 
0.0395844 -0.00942618 0.500464 0.0450163 -0.0104617 0.514153 0.0501296 -0.0113898 0.527551 
0.0548451 -0.0121396 0.540694 0.0590946 -0.0126665 0.55362 0.0628274 -0.0129557 0.566359 
0.0660164 -0.0130223 0.578928 0.0686613 -0.0129071 0.591321 0.070791 -0.0126693 0.603511 
0.0724617 -0.0123773 0.615439 0.0737543 -0.0120989 0.627023 0.074768 -0.011892 0.638159 
0.0756132 -0.0117977 0.648728 0.0764021 -0.0118359 0.658608 0.0772401 -0.0120046 0.66768 
0.0782163 -0.0122823 0.675844 0.0793957 -0.0126329 0.683024 0.0808136 -0.0130129 0.689179 
0.0824723 -0.0133785 0.694307 0.0843403 -0.0136931 0.698443 0.0863553 -0.0139321 0.701662 
0.0884293 -0.0140863 0.704067 0.0904561 -0.0141617 0.705786 0.0923214 -0.0141774 0.706956 
0.0939126 -0.0141611 0.707711 0.0951289 -0.0141428 0.708173 0.0958908 -0.0141495 0.708435 
0.0961473 -0.0141993 0.708558 
LINES 2 100
OFFSETS vtktypeint64
0 100 
CONNECTIVITY vtktypeint64
0 1 2 3 4 5 6 7 8 
9 10 11 12 13 14 15 16 17 
18 19 20 21 22 23 24 25 26 
27 28 29 30 31 32 33 34 35 
36 37 38 39 40 41 42 43 44 
45 46 47 48 49 50 51 52 53 
54 55 56 57 58 59 60 61 62 
63 64 65 66 67 68 69 70 71 
72 73 74 75 76 77 78 79 80 
81 82 83 84 85 86 87 88 89 
90 91 92 93 94 95 96 97 98 
99 
POINT_DATA 100
FIELD FieldData 3
_theta 1 100 double
0 0.031733259127 0.063466518254 0.095199777382 0.12693303651 0.15866629564 0.19039955476 0.22213281389 0.25386607302 
0.28559933214 0.31733259127 0.3490658504 0.38079910953 0.41253236865 0.44426562778 0.47599888691 0.50773214603 0.53946540516 
0.57119866429 0.60293192342 0.63466518254 0.66639844167 0.6981317008 0.72986495992 0.76159821905 0.79333147818 0.82506473731 
0.85679799643 0.88853125556 0.92026451469 0.95199777382 0.98373103294 1.0154642921 1.0471975512 1.0789308103 1.1106640695 
1.1423973286 1.1741305877 1.2058638468 1.237597106 1.2693303651 1.3010636242 1.3327968833 1.3645301425 1.3962634016 
1.4279966607 1.4597299198 1.491463179 1.5231964381 1.5549296972 1.5866629564 1.6183962155 1.6501294746 1.6818627337 
1.7135959929 1.745329252 1.7770625111 1.8087957702 1.8405290294 1.8722622885 1.9039955476 1.9357288068 1.9674620659 
1.999195325 2.0309285841 2.0626618433 2.0943951024 2.1261283615 2.1578616206 2.1895948798 2.2213281389 2.253061398 
2.2847946572 2.3165279163 2.3482611754 2.3799944345 2.4117276937 2.4434609528 2.4751942119 2.506927471 2.5386607302 
2.5703939893 2.6021272484 2.6338605076 2.6655937667 2.6973270258 2.7290602849 2.7607935441 2.7925268032 2.8242600623 
2.8559933214 2.8877265806 2.9194598397 2.9511930988 2.982926358 3.0146596171 3.0463928762 3.0781261353 3.1098593945 
3.1415926536 
_radius 1 100 double
2.3428402296e-16 0.015248144742 0.030416923376 0.045422797452 0.060187895629 0.074640692074 0.088714485543 0.10234402012 0.11546115382 
0.1279908188 0.13984853586 0.15094045872 0.16116643716 0.17042604668 0.17862704703 0.18569535437 0.19158535474 0.19628924697 
0.1998440894 0.20233534386 0.20389597642 0.2047005914 0.20495463251 0.20487933495 0.20469376619 0.20459582703 0.20474438018 
0.20524467675 0.20613900407 0.20740403683 0.20895569656 0.21066133976 0.21235794396 0.21387402459 0.2150525769 0.21577230478 
0.21596445012 0.21562263289 0.21480381646 0.21362043557 0.21222645863 0.21080206673 0.20954103488 0.20864186959 0.20830050219 
0.20870114416 0.21000315798 0.21232435697 0.21572369561 0.22018777078 0.22562526092 0.23187152243 0.23870296264 0.24585859546 
0.253065009 0.26006090471 0.26661806466 0.27255662075 0.27775353235 0.28214410684 0.28571718572 0.28850523916 0.29057104536 
0.29199286041 0.29284998244 0.2932103676 0.2931215211 0.29260538452 0.29165747199 0.29025007304 0.2883388763 0.28587187418 
0.2827990151 0.27908095032 0.27469545206 0.26964058366 0.26393432682 0.25761096846 0.25071503035 0.24329385775 0.2353901592 
0.22703579149 0.21824787425 0.20902788335 0.19936376025 0.18923442582 0.17861560049 0.16748568244 0.15583066653 0.1436475486 
0.13094609615 0.11774910982 0.10409139372 0.090017740337 0.075580366903 0.060836320358 0.045845301612 0.030668153887 0.015366019135 
4.7316281447e-16 
_area 1 100 double
0 0.00065020632826 0.0025866269102 0.0057684793105 0.010132542415 0.015596601745 0.022059259403 0.029394942565 0.037445445104 
0.046011520446 0.054849064448 0.063673761741 0.072175804812 0.080043253904 0.086989978281 0.092782871366 0.097263511378 0.10036131765 
0.10209770457 0.10258272881 0.10200635162 0.10062525425 0.098743776221 0.096686409054 0.094762127429 0.093226635647 0.092251815487 
0.091909953834 0.092189369233 0.093034838346 0.094372890807 0.096110598007 0.098128513445 0.10028452472 0.10243305464 0.10445992834 
0.10632646135 0.10807516924 0.10975583628 0.1113192359 0.11264333635 0.11368227176 0.11452487819 0.11537028076 0.116468569 
0.11803813912 0.12026314187 0.12333118927 0.12742402198 0.13268621437 0.13918967043 0.14690078399 0.15566147566 0.16519459774 
0.17513302557 0.18505996546 0.19454693239 0.20318562211 0.21061853881 0.21657054569 0.22087685594 0.2235106729 0.2247913759 
0.22498069491 0.22401584855 0.22199454887 0.21907589906 0.21544374381 0.21126362712 0.20666819567 0.2017507611 0.19656381787 
0.19111632099 0.18536697394 0.17922944385 0.17260104797 0.16540524722 0.15762551366 0.14931509645 0.14058224111 0.1315615246 
0.1223849305 0.11316241942 0.10397480369 0.094875543796 0.085895885045 0.077050214272 0.068342628245 0.059777443342 0.051374143725 
0.043182919569 0.03529434072 0.027838305106 0.020971979033 0.014860830217 0.0096588965304 0.0054938232718 0.0024596985103 0.00061747307461 
2.1263862578e-17 
