# vtk DataFile Version 5.1
vtk output
ASCII
DATASET POLYDATA
POINTS 100 float
0.119591 0.0755714 -0.684685 0.119391 0.0755339 -0.684815 0.118808 0.0752264 -0.685215 
0.117879 0.0746407 -0.685759 0.116657 0.0737644 -0.686258 0.115211 0.0725815 -0.686473 
0.113612 0.071074 -0.686143 0.111923 0.0692229 -0.685013 0.110194 0.0670101 -0.682857 
0.10845 0.0644195 -0.679502 0.106688 0.0614386 -0.674842 0.104873 0.0580591 -0.668841 
0.102935 0.054278 -0.661537 0.100783 0.0500983 -0.653026 0.0982996 0.0455293 -0.643447 
0.0953619 0.0405869 -0.632966 0.0918472 0.0352936 -0.621745 0.0876473 0.0296794 -0.609931 
0.08268 0.0237813 -0.597632 0.0768991 0.0176443 -0.584909 0.070301 0.0113212 -0.571772 
0.0629282 0.0048734 -0.558185 0.0548676 -0.00162969 -0.544071 0.0462454 -0.00811048 -0.529331 
0.0372176 -0.0144842 -0.513859 0.0279581 -0.0206604 -0.497558 0.0186442 -0.0265448 -0.480357 
0.00944269 -0.0320423 -0.462219 0.000496087 -0.0370607 -0.443151 -0.0080876 -0.0415139 -0.4232 
-0.0162419 -0.0453272 -0.402449 -0.0239444 -0.0484406 -0.381005 -0.0312136 -0.0508129 -0.358987 
-0.0381022 -0.0524249 -0.33651 -0.0446859 -0.0532813 -0.313675 -0.0510491 -0.0534111 -0.290554 
-0.0572701 -0.0528668 -0.26719 -0.0634062 -0.0517219 -0.24359 -0.0694817 -0.0500668 -0.219734 
-0.0754789 -0.0480036 -0.195582 -0.081334 -0.04564 -0.171085 -0.0869384 -0.0430827 -0.146201 
-0.0921459 -0.0404311 -0.120904 -0.0967833 -0.0377716 -0.0951966 -0.100666 -0.035173 -0.0691164 
-0.103613 -0.0326834 -0.0427381 -0.105468 -0.0303299 -0.0161705 -0.10611 -0.0281185 0.0104502 
-0.105467 -0.0260375 0.0369713 -0.103526 -0.0240616 0.0632357 -0.100331 -0.0221573 0.0890949 
-0.0959801 -0.0202892 0.114421 -0.0906168 -0.0184256 0.139114 -0.0844173 -0.0165439 0.16311 
-0.0775737 -0.0146351 0.186378 -0.0702775 -0.0127059 0.208921 -0.0627031 -0.0107796 0.230767 
-0.0549949 -0.00889453 0.251958 -0.047258 -0.00710143 0.272547 -0.0395536 -0.0054585 0.292581 
-0.0319 -0.00402624 0.312099 -0.0242783 -0.00286154 0.331124 -0.0166422 -0.00201219 0.349662 
-0.00893082 -0.0015122 0.367708 -0.00108211 -0.00137849 0.385242 0.00695367 -0.00160926 0.402244 
0.015203 -0.00218417 0.418698 0.0236613 -0.00306635 0.434597 0.0322895 -0.00420588 0.449951 
0.0410147 -0.00554445 0.464791 0.0497359 -0.00702056 0.479165 0.058332 -0.00857476 0.493136 
0.0666733 -0.0101543 0.506777 0.0746332 -0.0117167 0.520162 0.0820996 -0.0132321 0.533357 
0.088985 -0.0146838 0.546411 0.0952325 -0.0160672 0.559346 0.10082 -0.0173879 0.572158 
0.105758 -0.0186578 0.584809 0.110089 -0.0198917 0.597231 0.113878 -0.0211033 0.609331 
0.117205 -0.0223015 0.620997 0.120155 -0.0234883 0.632108 0.122811 -0.0246572 0.642546 
0.125244 -0.0257935 0.652201 0.127513 -0.0268755 0.660985 0.129655 -0.0278773 0.668836 
0.131689 -0.028772 0.675723 0.13362 -0.0295353 0.681645 0.135438 -0.0301493 0.686635 
0.137126 -0.030605 0.690748 0.138664 -0.0309043 0.694064 0.140033 -0.0310604 0.696676 
0.141219 -0.0310972 0.698684 0.142213 -0.0310469 0.700189 0.143013 -0.0309468 0.701288 
0.143622 -0.0308355 0.702064 0.144046 -0.0307482 0.702587 0.14429 -0.0307135 0.702909 
0.14436 -0.0307498 0.703062 
LINES 2 100
OFFSETS vtktypeint64
0 100 
CONNECTIVITY vtktypeint64
0 1 2 3 4 5 6 7 8 
9 10 11 12 13 14 15 16 17 
18 19 20 21 22 23 24 25 26 
27 28 29 30 31 32 33 34 35 
36 37 38 39 40 41 42 43 44 
45 46 47 48 49 50 51 52 53 
54 55 56 57 58 59 60 61 62 
63 64 65 66 67 68 69 70 71 
72 73 74 75 76 77 78 79 80 
81 82 83 84 85 86 87 88 89 
90 91 92 93 94 95 96 97 98 
99 
POINT_DATA 100
FIELD FieldData 3
_theta 1 100 double
0 0.031733259127 0.063466518254 0.095199777382 0.12693303651 0.15866629564 0.19039955476 0.22213281389 0.25386607302 
0.28559933214 0.31733259127 0.3490658504 0.38079910953 0.41253236865 0.44426562778 0.47599888691 0.50773214603 0.53946540516 
0.57119866429 0.60293192342 0.63466518254 0.66639844167 0.6981317008 0.72986495992 0.76159821905 0.79333147818 0.82506473731 
0.85679799643 0.88853125556 0.92026451469 0.95199777382 0.98373103294 1.0154642921 1.0471975512 1.0789308103 1.1106640695 
1.1423973286 1.1741305877 1.2058638468 1.237597106 1.2693303651 1.3010636242 1.3327968833 1.3645301425 1.3962634016 
1.4279966607 1.4597299198 1.491463179 1.5231964381 1.5549296972 1.5866629564 1.6183962155 1.6501294746 1.6818627337 
1.7135959929 1.745329252 1.7770625111 1.8087957702 1.8405290294 1.8722622885 1.9039955476 1.9357288068 1.9674620659 
1.999195325 2.0309285841 2.0626618433 2.0943951024 2.1261283615 2.1578616206 2.1895948798 2.2213281389 2.253061398 
2.2847946572 2.3165279163 2.3482611754 2.3799944345 2.4117276937 2.4434609528 2.4751942119 2.506927471 2.5386607302 
2.5703939893 2.6021272484 2.6338605076 2.6655937667 2.6973270258 2.7290602849 2.7607935441 2.7925268032 2.8242600623 
2.8559933214 2.8877265806 2.9194598397 2.9511930988 2.982926358 3.0146596171 3.0463928762 3.0781261353 3.1098593945 
3.1415926536 
_radius 1 100 double
1.4499465946e-15 0.017153464277 0.034141046427 0.05079799851 0.06697198311 0.082528074407 0.097352281407 0.11135334718 0.12446277208 
0.13663320219 0.14783548627 0.15805482599 0.16728653817 0.17553203127 0.18279566232 0.18908313505 0.19440196147 0.19876420174 
0.20219124224 0.20471984775 0.20640824601 0.20734070863 0.20762911038 0.20741035345 0.20683929015 0.20607771026 0.2052808539 
0.20458356201 0.20408841508 0.20385791547 0.20391191758 0.20423032094 0.20475997553 0.20542425326 0.20613388364 0.20679809021 
0.20733537909 0.20768338341 0.20780709166 0.20770471908 0.20741043459 0.20699322268 0.20655161136 0.20620492505 0.20608269817 
0.20631421569 0.2070194666 0.20830145292 0.2102387406 0.21287728991 0.21622203785 0.22023040815 0.22481053252 0.22982591735 
0.23510628288 0.24046258295 0.24570352624 0.25065117688 0.25515390866 0.25909570128 0.2624013266 0.2650373812 0.26700943175 
0.26835579324 0.26913868304 0.26943369895 0.26931875202 0.26886369843 0.26812188298 0.26712456367 0.26587874361 0.26436838824 
0.26255848034 0.26040094793 0.25784124143 0.25482431084 0.25129900894 0.24722047413 0.24255064579 0.23725752924 0.23131403629 
0.22469715248 0.21738787086 0.20937190226 0.20064080343 0.19119302365 0.18103451083 0.1701788294 0.15864701597 0.14646746385 
0.13367596527 0.12031578323 0.10643745297 0.092098033159 0.077359724105 0.062288036163 0.046949893309 0.0314121055 0.015740527312 
1.6233041916e-15 
_area 1 100 double
0 0.00071759617946 0.0028544587421 0.006360627836 0.011147129221 0.017081893418 0.02399020295 0.031661361138 0.039860803889 
0.04834508517 0.056876541541 0.065234849923 0.073223789069 0.080672953708 0.087435610619 0.093385006109 0.098411999659 0.10242669862 
0.10536546482 0.10720211827 0.10795939413 0.10771597995 0.10660698184 0.1048189235 0.10258082585 0.1001545928 0.097849719838 
0.096012754886 0.09473618875 0.094001801708 0.093773832035 0.093991236569 0.094597925578 0.095558950578 0.096831775201 0.098343231497 
0.10001237835 0.10176193678 0.10351062016 0.10518018083 0.106713767 0.10809449769 0.10935123532 0.11054536533 0.11176883803 
0.11322895276 0.11525138115 0.11775983697 0.12076027539 0.12439773037 0.12882687571 0.13415294011 0.14038519083 0.14741715044 
0.15503370685 0.16293298423 0.17075782026 0.17813639907 0.18472839189 0.19026858089 0.19459871875 0.19768138123 0.19959608188 
0.20052617315 0.20074042293 0.20049431753 0.19986077289 0.19880185773 0.19728093455 0.1952784868 0.19278502292 0.18979223824 
0.18628575209 0.18224221434 0.17763272148 0.17243218281 0.16663075175 0.16024113983 0.1532978694 0.14584984999 0.13795105215 
0.12965366842 0.12100589045 0.11205405059 0.10284718854 0.093441724703 0.083904902076 0.074317122859 0.064773955324 0.055387795431 
0.046287874184 0.03761716769 0.029526115425 0.022164573732 0.015673938765 0.010180836421 0.0057928228208 0.0025957498789 0.00065213111649 
5.8980598183e-17 
