# vtk DataFile Version 5.1
vtk output
ASCII
DATASET POLYDATA
POINTS 100 float
0.118648 0.0381113 -0.626159 0.118563 0.038089 -0.6259 0.118368 0.0378341 -0.62509 
0.118097 0.037353 -0.623709 0.117796 0.0366545 -0.621723 0.117517 0.0357467 -0.619095 
0.117305 0.0346326 -0.615788 0.117182 0.0333068 -0.611767 0.117144 0.031753 -0.607013 
0.117148 0.029943 -0.601515 0.117112 0.0278383 -0.595281 0.116914 0.0253937 -0.58833 
0.116402 0.0225629 -0.580692 0.115405 0.0193059 -0.572402 0.113744 0.0155959 -0.563498 
0.111254 0.0114272 -0.554008 0.107796 0.00682014 -0.543951 0.103273 0.00182476 -0.533335 
0.0976405 -0.00347895 -0.522149 0.0909084 -0.00898392 -0.510372 0.0831446 -0.014562 -0.49797 
0.0744663 -0.0200726 -0.484905 0.0650289 -0.0253724 -0.471141 0.055011 -0.0303265 -0.456647 
0.0445967 -0.034818 -0.441405 0.0339586 -0.0387565 -0.425409 0.0232425 -0.0420831 -0.408674 
0.012556 -0.0447731 -0.391225 0.00196234 -0.0468339 -0.373102 -0.00851987 -0.0483008 -0.354351 
-0.0189106 -0.0492298 -0.335015 -0.0292573 -0.0496886 -0.315137 -0.0396198 -0.0497476 -0.294747 
-0.0500526 -0.0494709 -0.273861 -0.0605876 -0.0489105 -0.252486 -0.0712184 -0.0481015 -0.230617 
-0.0818894 -0.0470613 -0.208245 -0.0924894 -0.0457916 -0.185362 -0.102852 -0.044283 -0.161972 
-0.112764 -0.0425213 -0.138098 -0.121977 -0.040495 -0.113788 -0.130226 -0.0382018 -0.0891196 
-0.137251 -0.0356546 -0.0642001 -0.142815 -0.032885 -0.0391648 -0.146732 -0.0299437 -0.01417 
-0.148875 -0.0268983 0.0106164 -0.149191 -0.0238287 0.0350268 -0.147708 -0.0208201 0.0589054 
-0.14453 -0.017955 0.0821206 -0.139828 -0.0153053 0.104574 -0.133826 -0.0129253 0.126205 
-0.126783 -0.0108468 0.146997 -0.11897 -0.00907639 0.166971 -0.110649 -0.00759652 0.186181 
-0.102055 -0.0063687 0.204706 -0.0933788 -0.00533951 0.222636 -0.0847548 -0.00444817 0.240062 
-0.0762597 -0.00363477 0.257062 -0.0679118 -0.00284812 0.273698 -0.0596784 -0.00205216 0.290003 
-0.0514876 -0.00123026 0.305986 -0.043243 -0.00038668 0.321627 -0.0348398 0.000454692 0.336891 
-0.0261805 0.00125429 0.351732 -0.0171889 0.00196283 0.366099 -0.00781978 0.00252853 0.379954 
0.0019345 0.00290455 0.393273 0.0120429 0.00305579 0.406054 0.0224386 0.00296405 0.418318 
0.0330262 0.00263112 0.43011 0.0436911 0.00207925 0.441489 0.0543109 0.00134923 0.452525 
0.0647668 0.000496279 0.463289 0.0749538 -0.000415683 0.47384 0.084789 -0.00132048 0.484223 
0.0942161 -0.00215612 0.494455 0.103208 -0.00287044 0.504531 0.111763 -0.00342525 0.514419 
0.119905 -0.00379863 0.524065 0.127672 -0.00398522 0.533403 0.135109 -0.00399465 0.542361 
0.142264 -0.00384846 0.550869 0.149175 -0.00357604 0.558873 0.15587 -0.00321028 0.566336 
0.162358 -0.00278348 0.573247 0.168632 -0.00232402 0.579616 0.174669 -0.00185425 0.585477 
0.180431 -0.00138963 0.590874 0.185873 -0.00093917 0.595864 0.190946 -0.000506814 0.600496 
0.195603 -9.35183e-05 0.604812 0.199804 0.00030053 0.608834 0.203518 0.000673917 0.612564 
0.206724 0.00102261 0.615981 0.209415 0.00133936 0.61904 0.211591 0.00161401 0.621685 
0.213261 0.00183455 0.62385 0.214436 0.00198869 0.625471 0.215126 0.00206565 0.626494 
0.21534 0.00205783 0.626882 
LINES 2 100
OFFSETS vtktypeint64
0 100 
CONNECTIVITY vtktypeint64
0 1 2 3 4 5 6 7 8 
9 10 11 12 13 14 15 16 17 
18 19 20 21 22 23 24 25 26 
27 28 29 30 31 32 33 34 35 
36 37 38 39 40 41 42 43 44 
45 46 47 48 49 50 51 52 53 
54 55 56 57 58 59 60 61 62 
63 64 65 66 67 68 69 70 71 
72 73 74 75 76 77 78 79 80 
81 82 83 84 85 86 87 88 89 
90 91 92 93 94 95 96 97 98 
99 
POINT_DATA 100
FIELD FieldData 3
_theta 1 100 double
0 0.031733259127 0.063466518254 0.095199777382 0.12693303651 0.15866629564 0.19039955476 0.22213281389 0.25386607302 
0.28559933214 0.31733259127 0.3490658504 0.38079910953 0.41253236865 0.44426562778 0.47599888691 0.50773214603 0.53946540516 
0.57119866429 0.60293192342 0.63466518254 0.66639844167 0.6981317008 0.72986495992 0.76159821905 0.79333147818 0.82506473731 
0.85679799643 0.88853125556 0.92026451469 0.95199777382 0.98373103294 1.0154642921 1.0471975512 1.0789308103 1.1106640695 
1.1423973286 1.1741305877 1.2058638468 1.237597106 1.2693303651 1.3010636242 1.3327968833 1.3645301425 1.3962634016 
1.4279966607 1.4597299198 1.491463179 1.5231964381 1.5549296972 1.5866629564 1.6183962155 1.6501294746 1.6818627337 
1.7135959929 1.745329252 1.7770625111 1.8087957702 1.8405290294 1.8722622885 1.9039955476 1.9357288068 1.9674620659 
1.999195325 2.0309285841 2.0626618433 2.0943951024 2.1261283615 2.1578616206 2.1895948798 2.2213281389 2.253061398 
2.2847946572 2.3165279163 2.3482611754 2.3799944345 2.4117276937 2.4434609528 2.4751942119 2.506927471 2.5386607302 
2.5703939893 2.6021272484 2.6338605076 2.6655937667 2.6973270258 2.7290602849 2.7607935441 2.7925268032 2.8242600623 
2.8559933214 2.8877265806 2.9194598397 2.9511930988 2.982926358 3.0146596171 3.0463928762 3.0781261353 3.1098593945 
3.1415926536 
_radius 1 100 double
8.0215534307e-16 0.016312515227 0.032501951168 0.048450209549 0.064054488369 0.079232755294 0.093926395156 0.10809912302 0.12173165822 
0.13481244644 0.14732580336 0.15923992943 0.17049786789 0.18101426323 0.19067963072 0.19937207947 0.20697461963 0.2133948833 
0.21858358697 0.22254834763 0.22536033546 0.22715245594 0.22810907655 0.22844855939 0.22840088248 0.2281833254 0.22797748233 
0.22791068375 0.22804424654 0.22836998281 0.22881536316 0.22925684942 0.22954012459 0.22950509374 0.2290126494 0.22796958503 
0.22634801117 0.22419630034 0.22163990107 0.2188721742 0.21613739101 0.21370947413 0.21186998641 0.21088693466 0.21099340719 
0.212364298 0.21509182034 0.21916485906 0.22445985266 0.23074893819 0.23772539559 0.24504089628 0.25234666039 0.25933128755 
0.265750111 0.27144316743 0.27634081296 0.28045760439 0.28387633772 0.28672508303 0.28915064042 0.29129203928 0.29325751261 
0.2951078111 0.29684779257 0.29842699752 0.29974857116 0.30068467508 0.30109567689 0.3008500221 0.29984177652 0.29800332175 
0.29531151372 0.29178666038 0.28748478393 0.28248462652 0.27687158109 0.27072109374 0.26408408417 0.25697662266 0.24937554882 
0.24122095994 0.23242555884 0.22288979109 0.21252065555 0.20125125064 0.18905774611 0.17597069963 0.16207848828 0.14752196707 
0.13248103782 0.11715528338 0.10174186383 0.086414243591 0.071304944839 0.056494535477 0.042007765336 0.027816538763 0.013848547978 
1.1210039735e-15 
_area 1 100 double
0 0.00064761687305 0.0025690761954 0.0057012609671 0.009943001514 0.015162497621 0.021209151501 0.027928713928 0.035178288494 
0.042836100491 0.050801199306 0.058980777783 0.067267071346 0.075510931561 0.083503400405 0.090976557478 0.097628228503 0.10316520878 
0.10735312737 0.11006063043 0.11128908271 0.11118361576 0.11002520378 0.10820487723 0.10617749828 0.10438044801 0.10311662228 
0.1025038224 0.10253728751 0.1031513087 0.1042431918 0.1056782955 0.10729221209 0.10890247733 0.11033320953 0.11144789568 
0.11217933641 0.11253783015 0.1125862315 0.11241201734 0.11213870575 0.11195686018 0.11213157256 0.11297932942 0.11481937715 
0.11790870376 0.12240588712 0.12837974361 0.13580946734 0.14456353562 0.15438586792 0.16490439709 0.1756633557 0.18617510512 
0.19598191259 0.20471427212 0.21213322306 0.21814898838 0.22281449114 0.22629759838 0.2288391377 0.23070464353 0.23213682948 
0.23331388186 0.23431732474 0.23511414815 0.23556063438 0.23543316482 0.23447899503 0.23246904267 0.22923722846 0.22470026642 
0.21885928448 0.21178913816 0.20362266056 0.19453462946 0.18472606714 0.17440755494 0.163781086 0.15302131916 0.14225835844 
0.1315660886 0.12096155465 0.11041929157 0.099899113426 0.089379494396 0.078885565155 0.068502718869 0.058372247287 0.048671478789 
0.039585448375 0.031279011128 0.023877137602 0.017457470552 0.012054574737 0.0076716288151 0.0042940987341 0.00190129167 0.00047420139819 
8.4155009252e-17 
