# vtk DataFile Version 5.1
vtk output
ASCII
DATASET POLYDATA
POINTS 100 float
0.159768 0.0760865 -0.684119 0.159834 0.0761139 -0.683944 0.160019 0.076013 -0.683447 
0.160261 0.0757493 -0.682586 0.160467 0.075269 -0.681291 0.160515 0.0745036 -0.679477 
0.160274 0.0733769 -0.677055 0.159613 0.0718117 -0.673937 0.158414 0.0697371 -0.670053 
0.156581 0.0670959 -0.665353 0.154049 0.0638502 -0.659816 0.150788 0.0599859 -0.653449 
0.146799 0.0555152 -0.646286 0.142115 0.050477 -0.638381 0.136793 0.044935 -0.629803 
0.130906 0.0389747 -0.62062 0.124533 0.0326974 -0.610896 0.117753 0.0262146 -0.600678 
0.110638 0.0196407 -0.589989 0.103247 0.0130867 -0.578827 0.0956289 0.00665396 -0.567164 
0.087817 0.000429252 -0.554947 0.0798372 -0.00551833 -0.542107 0.0717094 -0.011139 -0.528566 
0.0634529 -0.0164022 -0.514246 0.0550898 -0.0212942 -0.499081 0.0466478 -0.0258154 -0.483019 
0.0381611 -0.0299757 -0.466035 0.029669 -0.0337901 -0.448126 0.0212134 -0.0372739 -0.429318 
0.0128348 -0.0404393 -0.409654 0.00456801 -0.0432918 -0.389197 -0.00356166 -0.0458293 -0.368017 
-0.0115407 -0.0480415 -0.346185 -0.0193677 -0.0499114 -0.323766 -0.0270512 -0.0514172 -0.300816 
-0.0346051 -0.0525363 -0.277373 -0.0420421 -0.0532482 -0.253466 -0.049366 -0.0535388 -0.229109 
-0.0565637 -0.0534029 -0.204312 -0.0635983 -0.0528469 -0.179083 -0.0704044 -0.0518899 -0.15344 
-0.0768866 -0.0505635 -0.127412 -0.0829214 -0.04891 -0.10105 -0.0883636 -0.0469807 -0.074425 
-0.0930554 -0.044832 -0.0476315 -0.0968386 -0.042522 -0.0207842 -0.0995682 -0.0401067 0.0059872 
-0.101126 -0.0376369 0.0325453 -0.101432 -0.0351556 0.0587534 -0.100454 -0.0326966 0.0844836 
-0.0982097 -0.0302842 0.109625 -0.0947704 -0.0279339 0.134091 -0.0902525 -0.0256539 0.157821 
-0.0848091 -0.023448 0.180781 -0.0786171 -0.0213179 0.202966 -0.0718614 -0.0192658 0.224391 
-0.0647204 -0.0172967 0.24509 -0.0573511 -0.0154201 0.265104 -0.0498782 -0.0136504 0.284479 
-0.0423871 -0.0120065 0.303258 -0.0349214 -0.0105106 0.321476 -0.0274856 -0.00918628 0.339158 
-0.0200519 -0.00805572 0.356322 -0.012571 -0.00713732 0.372977 -0.0049846 -0.00644317 0.389127 
0.00276105 -0.00597723 0.40478 0.0107032 -0.00573424 0.419948 0.0188527 -0.00569957 0.434652 
0.0271877 -0.00585007 0.448927 0.0356515 -0.00615578 0.46282 0.0441552 -0.00658236 0.476389 
0.0525835 -0.00709385 0.489701 0.0608044 -0.00765565 0.502821 0.0686802 -0.00823715 0.515811 
0.0760795 -0.0088139 0.528718 0.0828888 -0.009369 0.541568 0.0890208 -0.00989361 0.554359 
0.0944219 -0.0103867 0.56706 0.0990745 -0.0108537 0.579607 0.102997 -0.011305 0.591906 
0.106239 -0.0117535 0.603835 0.108877 -0.0122129 0.615258 0.111004 -0.0126948 0.626028 
0.112724 -0.013208 0.636002 0.114136 -0.0137565 0.64505 0.115336 -0.0143396 0.653067 
0.116404 -0.0149519 0.659981 0.117401 -0.0155837 0.665761 0.118369 -0.0162226 0.670416 
0.11933 -0.0168545 0.674002 0.120286 -0.0174647 0.676612 0.121227 -0.0180397 0.678374 
0.122129 -0.0185675 0.67944 0.122962 -0.0190382 0.679977 0.123694 -0.0194445 0.680152 
0.124293 -0.0197811 0.680121 0.124731 -0.0200445 0.680021 0.124987 -0.0202326 0.679954 
0.125048 -0.0203442 0.679985 
LINES 2 100
OFFSETS vtktypeint64
0 100 
CONNECTIVITY vtktypeint64
0 1 2 3 4 5 6 7 8 
9 10 11 12 13 14 15 16 17 
18 19 20 21 22 23 24 25 26 
27 28 29 30 31 32 33 34 35 
36 37 38 39 40 41 42 43 44 
45 46 47 48 49 50 51 52 53 
54 55 56 57 58 59 60 61 62 
63 64 65 66 67 68 69 70 71 
72 73 74 75 76 77 78 79 80 
81 82 83 84 85 86 87 88 89 
90 91 92 93 94 95 96 97 98 
99 
POINT_DATA 100
FIELD FieldData 3
_theta 1 100 double
0 0.031733259127 0.063466518254 0.095199777382 0.12693303651 0.15866629564 0.19039955476 0.22213281389 0.25386607302 
0.28559933214 0.31733259127 0.3490658504 0.38079910953 0.41253236865 0.44426562778 0.47599888691 0.50773214603 0.53946540516 
0.57119866429 0.60293192342 0.63466518254 0.66639844167 0.6981317008 0.72986495992 0.76159821905 0.79333147818 0.82506473731 
0.85679799643 0.88853125556 0.92026451469 0.95199777382 0.98373103294 1.0154642921 1.0471975512 1.0789308103 1.1106640695 
1.1423973286 1.1741305877 1.2058638468 1.237597106 1.2693303651 1.3010636242 1.3327968833 1.3645301425 1.3962634016 
1.4279966607 1.4597299198 1.491463179 1.5231964381 1.5549296972 1.5866629564 1.6183962155 1.6501294746 1.6818627337 
1.7135959929 1.745329252 1.7770625111 1.8087957702 1.8405290294 1.8722622885 1.9039955476 1.9357288068 1.9674620659 
1.999195325 2.0309285841 2.0626618433 2.0943951024 2.1261283615 2.1578616206 2.1895948798 2.2213281389 2.253061398 
2.2847946572 2.3165279163 2.3482611754 2.3799944345 2.4117276937 2.4434609528 2.4751942119 2.506927471 2.5386607302 
2.5703939893 2.6021272484 2.6338605076 2.6655937667 2.6973270258 2.7290602849 2.7607935441 2.7925268032 2.8242600623 
2.8559933214 2.8877265806 2.9194598397 2.9511930988 2.982926358 3.0146596171 3.0463928762 3.0781261353 3.1098593945 
3.1415926536 
_radius 1 100 double
9.2929381095e-16 0.015075755871 0.030065637093 0.044880188782 0.059430089078 0.073625743123 0.087376683177 0.1005912747 0.1131773035 
0.12504384493 0.13610445361 0.14628129413 0.15550951049 0.16374102041 0.17094706041 0.17711915134 0.1822685819 0.18642487955 
0.18963393592 0.19195641462 0.19346678832 0.19425289597 0.19441542434 0.19406640499 0.19332587924 0.19231641826 0.19115609764 
0.18995146431 0.18879242982 0.18775034898 0.18687879624 0.18621468077 0.18577694648 0.1855621734 0.18553985346 0.18565202466 
0.18582033159 0.18595984296 0.18599612168 0.18588132507 0.18560568413 0.18520164274 0.18473917831 0.18431291941 0.18402490027 
0.18396981263 0.18422930103 0.18487665199 0.18598657044 0.18764170728 0.18992949021 0.19292762047 0.19668203492 0.20118501086 
0.20636143053 0.21206789933 0.21810466853 0.22423673211 0.23021906238 0.23582128718 0.24084832898 0.24515494306 0.24865334018 
0.25131402566 0.25316063588 0.25425995924 0.25470855951 0.25461753906 0.25409703105 0.25324199276 0.25212073252 0.2507672811 
0.24917823831 0.24731420947 0.24510551067 0.24246146547 0.2392822547 0.23547188694 0.23095053952 0.22566445419 0.21959187002 
0.21274411093 0.2051617705 0.19690676438 0.1880516852 0.17866829079 0.16881703016 0.15853926479 0.14785332638 0.13675487214 
0.12522129537 0.11321935473 0.10071478976 0.087682518631 0.074116034658 0.060034775935 0.045488492061 0.030557964755 0.015351861451 
3.965853001e-16 
_area 1 100 double
0 0.00056533898514 0.0022620152815 0.0050896478084 0.0090396625423 0.0140835506 0.020157915329 0.027149456119 0.034884508355 
0.043127946404 0.051594576116 0.059972738029 0.067955713799 0.075273365375 0.081715923112 0.087144545896 0.091487999044 0.094729270551 
0.096888458854 0.09800848135 0.098148501106 0.097386690705 0.095829379599 0.093619638433 0.090938015597 0.087992239771 0.084998198577 
0.082157892864 0.079640394185 0.077570647016 0.076029069035 0.075062611981 0.074709854344 0.074986065829 0.075814348968 0.077076227254 
0.078617182797 0.080249506943 0.081792948755 0.083125193584 0.084219417755 0.085155454633 0.086081014207 0.087135035066 0.088401446727 
0.089919768087 0.091718676108 0.093854293406 0.096368326436 0.099207657295 0.10242811886 0.10622338482 0.11085584262 0.1165770298 
0.12350996217 0.13155253352 0.14038029413 0.1495204531 0.15843600137 0.16660149412 0.17356998089 0.1790267544 0.18282225455 
0.18497820887 0.1856659909 0.1851617241 0.18378732506 0.18185008319 0.17959467776 0.17717785837 0.17466668399 0.17205276524 
0.16927290788 0.16622856956 0.16280030047 0.15885857585 0.15427605655 0.14894515146 0.14279964013 0.13583403283 0.12811306353 
0.11976672257 0.11097108975 0.10191976282 0.092793968561 0.08374004974 0.074859855328 0.066214257794 0.057835756051 0.049744691484 
0.041964616803 0.034534380957 0.02751625238 0.021000212071 0.015104321983 0.0099703424433 0.005753523786 0.0026065107764 0.00065939241897 
5.2041704279e-18 
