# vtk DataFile Version 5.1
vtk output
ASCII
DATASET POLYDATA
POINTS 100 float
0.136486 0.0991932 -0.667836 0.136321 0.0991519 -0.667426 0.135794 0.0988124 -0.666214 
0.134917 0.0981561 -0.664229 0.133711 0.0971555 -0.661513 0.132204 0.0957784 -0.658125 
0.130432 0.0939915 -0.654129 0.128434 0.0917651 -0.649595 0.126254 0.0890772 -0.644592 
0.123932 0.0859169 -0.639184 0.121504 0.0822858 -0.633426 0.118994 0.0781993 -0.627361 
0.116411 0.0736851 -0.621019 0.113744 0.0687811 -0.614417 0.110956 0.0635323 -0.607556 
0.107988 0.0579865 -0.600424 0.104758 0.0521906 -0.593 0.101161 0.0461873 -0.585252 
0.0970818 0.0400127 -0.577138 0.0923982 0.0336947 -0.568615 0.086995 0.0272535 -0.559631 
0.0807739 0.0207035 -0.550136 0.0736641 0.0140559 -0.540077 0.0656327 0.00732252 -0.529405 
0.0566908 0.000520205 -0.518072 0.0468973 -0.00632561 -0.506036 0.0363584 -0.0131775 -0.493261 
0.0252228 -0.019984 -0.479718 0.0136731 -0.0266791 -0.465391 0.00191466 -0.0331835 -0.450269 
-0.0098389 -0.0394075 -0.434356 -0.0213795 -0.045255 -0.417666 -0.0325186 -0.0506292 -0.400219 
-0.0430986 -0.0554382 -0.382046 -0.0530014 -0.0596012 -0.363181 -0.0621524 -0.0630535 -0.343658 
-0.0705205 -0.0657512 -0.323513 -0.0781135 -0.0676738 -0.302774 -0.0849695 -0.0688249 -0.281464 
-0.0911464 -0.0692321 -0.259598 -0.0967091 -0.0689444 -0.237183 -0.101717 -0.068028 -0.21422 
-0.106214 -0.0665616 -0.190708 -0.110218 -0.0646312 -0.166646 -0.113718 -0.0623239 -0.14204 
-0.116673 -0.0597231 -0.116908 -0.119013 -0.0569042 -0.0912829 -0.120649 -0.0539308 -0.0652186 
-0.121479 -0.0508537 -0.0387917 -0.121403 -0.0477094 -0.0121013 -0.120328 -0.0445216 0.0147327 
-0.118184 -0.0413032 0.0415735 -0.114931 -0.0380585 0.0682737 -0.11056 -0.0347876 0.0946819 
-0.1051 -0.0314894 0.120651 -0.0986146 -0.0281651 0.146048 -0.0911954 -0.0248218 0.170756 
-0.0829573 -0.0214744 0.194685 -0.0740288 -0.0181473 0.217775 -0.0645426 -0.0148749 0.239992 
-0.0546272 -0.011701 0.261334 -0.0443992 -0.00867736 0.281823 -0.0339581 -0.00586134 0.301501 
-0.0233835 -0.00331286 0.320426 -0.0127342 -0.0010909 0.338664 -0.00205052 0.000750221 0.356283 
0.00864243 0.00216451 0.373349 0.0193299 0.00311764 0.389922 0.0300022 0.00358975 0.406052 
0.0406497 0.00357744 0.421783 0.0512591 0.00309477 0.437146 0.0618096 0.00217329 0.452169 
0.0722725 0.000860871 0.466869 0.0826102 -0.000780502 0.481261 0.0927787 -0.00267787 0.495354 
0.102729 -0.00475119 0.509153 0.112409 -0.00691772 0.522655 0.12177 -0.00909657 0.535848 
0.130767 -0.0112131 0.54871 0.139358 -0.0132027 0.561202 0.147513 -0.015014 0.573272 
0.155207 -0.0166108 0.58485 0.162426 -0.0179732 0.595851 0.169159 -0.0190969 0.60618 
0.175407 -0.0199919 0.615734 0.181171 -0.0206798 0.624416 0.186459 -0.0211911 0.632136 
0.191278 -0.0215608 0.638827 0.195641 -0.0218254 0.64445 0.199558 -0.0220192 0.648999 
0.203042 -0.0221714 0.65251 0.206106 -0.0223047 0.655058 0.208764 -0.0224339 0.656757 
0.21103 -0.0225662 0.657748 0.212915 -0.0227021 0.658196 0.214434 -0.022837 0.658273 
0.215599 -0.0229635 0.658144 0.216418 -0.0230736 0.657958 0.216899 -0.0231605 0.657827 
0.217046 -0.0232205 0.657824 
LINES 2 100
OFFSETS vtktypeint64
0 100 
CONNECTIVITY vtktypeint64
0 1 2 3 4 5 6 7 8 
9 10 11 12 13 14 15 16 17 
18 19 20 21 22 23 24 25 26 
27 28 29 30 31 32 33 34 35 
36 37 38 39 40 41 42 43 44 
45 46 47 48 49 50 51 52 53 
54 55 56 57 58 59 60 61 62 
63 64 65 66 67 68 69 70 71 
72 73 74 75 76 77 78 79 80 
81 82 83 84 85 86 87 88 89 
90 91 92 93 94 95 96 97 98 
99 
POINT_DATA 100
FIELD FieldData 3
_theta 1 100 double
0 0.031733259127 0.063466518254 0.095199777382 0.12693303651 0.15866629564 0.19039955476 0.22213281389 0.25386607302 
0.28559933214 0.31733259127 0.3490658504 0.38079910953 0.41253236865 0.44426562778 0.47599888691 0.50773214603 0.53946540516 
0.57119866429 0.60293192342 0.63466518254 0.66639844167 0.6981317008 0.72986495992 0.76159821905 0.79333147818 0.82506473731 
0.85679799643 0.88853125556 0.92026451469 0.95199777382 0.98373103294 1.0154642921 1.0471975512 1.0789308103 1.1106640695 
1.1423973286 1.1741305877 1.2058638468 1.237597106 1.2693303651 1.3010636242 1.3327968833 1.3645301425 1.3962634016 
1.4279966607 1.4597299198 1.491463179 1.5231964381 1.5549296972 1.5866629564 1.6183962155 1.6501294746 1.6818627337 
1.7135959929 1.745329252 1.7770625111 1.8087957702 1.8405290294 1.8722622885 1.9039955476 1.9357288068 1.9674620659 
1.999195325 2.0309285841 2.0626618433 2.0943951024 2.1261283615 2.1578616206 2.1895948798 2.2213281389 2.253061398 
2.2847946572 2.3165279163 2.3482611754 2.3799944345 2.4117276937 2.4434609528 2.4751942119 2.506927471 2.5386607302 
2.5703939893 2.6021272484 2.6338605076 2.6655937667 2.6973270258 2.7290602849 2.7607935441 2.7925268032 2.8242600623 
2.8559933214 2.8877265806 2.9194598397 2.9511930988 2.982926358 3.0146596171 3.0463928762 3.0781261353 3.1098593945 
3.1415926536 
_radius 1 100 double
5.896018614e-16 0.013683515935 0.027299790537 0.040784732382 0.054086987648 0.067170393852 0.080012583439 0.09259984059 0.10491917664 
0.11694929871 0.12865248192 0.13996917149 0.15081648736 0.16109093434 0.17067483905 0.17944552984 0.18728606235 0.19409627899 
0.19980306837 0.20436879981 0.20779703778 0.210134812 0.21147096217 0.21193042229 0.21166477559 0.21083998516 0.2096228056 
0.20816783629 0.20660724429 0.20504466525 0.20355370974 0.2021802192 0.20094650577 0.19985571365 0.19889515436 0.19803857557 
0.19724828283 0.19647842758 0.19568039065 0.19481010707 0.19383589963 0.19274467815 0.19154471361 0.1902644223 0.1889479903 
0.18764956435 0.1864278903 0.18534281942 0.1844542475 0.18382299915 0.18351217186 0.18358689196 0.18411070934 0.18513808983 
0.18670424568 0.18881499853 0.19143963621 0.19450864637 0.19791654121 0.20152875995 0.2051912809 0.20874177975 0.21202142747 
0.21488650913 0.21721903532 0.21893554668 0.21999341535 0.22039404999 0.22018243495 0.21944242277 0.21828734604 0.21684603934 
0.21524535898 0.21359159131 0.21195421146 0.21035544205 0.2087674306 0.20711628359 0.20529032912 0.20314995797 0.20053780244 
0.19728951607 0.19324589972 0.18826636392 0.18224239921 0.17510880242 0.16685039551 0.15750277212 0.14714680287 0.13589784162 
0.12389154191 0.11126876008 0.098162103713 0.084686272212 0.070933475077 0.056974018902 0.042860883169 0.028636169574 0.014337112653 
6.4859221015e-16 
_area 1 100 double
0 0.00052152483421 0.0020715766468 0.0046079735016 0.0080649359528 0.012359430435 0.017398804082 0.023087936337 0.029333774277 
0.036045794629 0.043132446663 0.050494988572 0.058020587446 0.065576349718 0.073005757471 0.080128948553 0.086748046118 0.092658152174 
0.097663789034 0.10159955081 0.10435249044 0.10588249416 0.10623602451 0.10554865106 0.10403308302 0.10195212225 0.099580200686 
0.097162714317 0.094886248259 0.092869141111 0.091171280915 0.089814002865 0.088799047429 0.08811781251 0.087748202424 0.087644803928 
0.08773652172 0.087939358512 0.088169419794 0.088345748261 0.088410293637 0.088365473924 0.088289176959 0.088316366497 0.088580660306 
0.089154942391 0.09009346632 0.091273155627 0.092582466263 0.093945539837 0.095328849072 0.096747089754 0.098262875724 0.099976208738 
0.1020017953 0.10443781847 0.10733511385 0.11067806365 0.11438255001 0.11830698976 0.12227078153 0.12607707122 0.12953609225 
0.13248381506 0.13479214203 0.1363708082 0.13716464752 0.13715070344 0.13633812368 0.13477167521 0.13253756309 0.12976761338 
0.12663558476 0.12333990546 0.12007256306 0.11698144301 0.11413595672 0.1115063126 0.10897016409 0.10634453049 0.10341904221 
0.099979803278 0.095833521061 0.090838655608 0.084937108402 0.078173413286 0.0706923849 0.062715461967 0.054504014412 0.046321288616 
0.038403130211 0.030942761213 0.024089166793 0.017954375551 0.012623660329 0.0081643866595 0.0046318292376 0.0020717490239 0.00051999224948 
9.1345445312e-17 
