# vtk DataFile Version 5.1
vtk output
ASCII
DATASET POLYDATA
POINTS 100 float
0.141172 0.0215306 -0.667402 0.141107 0.0214744 -0.667058 0.140931 0.0211146 -0.665989 
0.140646 0.0204654 -0.66417 0.140252 0.0195498 -0.66157 0.139747 0.0183967 -0.658154 
0.139117 0.0170376 -0.653894 0.138335 0.0155038 -0.648776 0.13736 0.0138227 -0.642807 
0.136133 0.012015 -0.63602 0.134577 0.0100935 -0.628471 0.132605 0.00806189 -0.620239 
0.13012 0.00591525 -0.611418 0.127028 0.00364192 -0.602107 0.123244 0.00122611 -0.592398 
0.118699 -0.00134863 -0.582365 0.113353 -0.00409553 -0.572058 0.107196 -0.00702072 -0.561487 
0.100255 -0.0101199 -0.550631 0.0925938 -0.0133757 -0.539429 0.0843059 -0.0167563 -0.527795 
0.0755125 -0.0202157 -0.51562 0.0663507 -0.0236947 -0.502792 0.0569626 -0.027124 -0.489205 
0.0474839 -0.030428 -0.474775 0.0380323 -0.0335296 -0.459449 0.0286985 -0.0363553 -0.443212 
0.0195396 -0.0388401 -0.426094 0.0105762 -0.0409318 -0.408161 0.00179408 -0.0425946 -0.389514 
-0.00685104 -0.0438112 -0.370272 -0.0154245 -0.0445827 -0.350565 -0.0240016 -0.0449284 -0.330514 
-0.032655 -0.0448826 -0.310222 -0.0414415 -0.0444909 -0.28976 -0.0503913 -0.0438056 -0.269162 
-0.0594982 -0.0428807 -0.248424 -0.0687141 -0.0417667 -0.227502 -0.0779474 -0.0405064 -0.206325 
-0.0870653 -0.0391315 -0.184806 -0.0959001 -0.0376607 -0.162848 -0.104259 -0.0360991 -0.140369 
-0.111935 -0.0344394 -0.117307 -0.118722 -0.032665 -0.0936332 -0.124427 -0.0307533 -0.0693595 
-0.128879 -0.0286805 -0.0445413 -0.131945 -0.0264271 -0.0192755 -0.133532 -0.0239822 0.00630488 
-0.13359 -0.0213476 0.0320394 -0.132117 -0.0185412 0.0577516 -0.12915 -0.0155979 0.0832604 
-0.124767 -0.0125699 0.108392 -0.119071 -0.00952422 0.132989 -0.112191 -0.00653967 0.156921 
-0.104268 -0.00370171 0.180086 -0.095449 -0.00109685 0.202414 -0.0858828 0.00119331 0.223871 
-0.075713 0.00309796 0.24445 -0.0650764 0.00456211 0.264173 -0.0541009 0.00555047 0.283083 
-0.0429055 0.00604968 0.301245 -0.0316007 0.00606885 0.318735 -0.0202891 0.00563814 0.33564 
-0.00906594 0.00480571 0.352054 0.0019806 0.00363332 0.368073 0.0127703 0.00219084 0.383792 
0.0232322 0.000550389 0.399301 0.0333065 -0.00121937 0.414682 0.0429467 -0.00305832 0.429997 
0.0521219 -0.00491879 0.445294 0.0608183 -0.00676789 0.460589 0.0690397 -0.00858813 0.475874 
0.0768073 -0.0103762 0.491104 0.0841571 -0.0121404 0.506206 0.091137 -0.013896 0.521075 
0.097802 -0.0156607 0.535581 0.104209 -0.0174494 0.549583 0.11041 -0.0192688 0.562931 
0.116449 -0.0211136 0.575486 0.122354 -0.0229636 0.587129 0.128136 -0.0247828 0.597772 
0.133786 -0.0265202 0.607369 0.139278 -0.028113 0.615919 0.144567 -0.0294906 0.623468 
0.149597 -0.0305813 0.630106 0.154304 -0.0313184 0.635955 0.158626 -0.0316478 0.641162 
0.162505 -0.0315341 0.645877 0.165896 -0.0309659 0.650245 0.168773 -0.0299597 0.654384 
0.17113 -0.0285607 0.658379 0.172985 -0.0268423 0.662269 0.174374 -0.0249025 0.666049 
0.175355 -0.022858 0.669666 0.175997 -0.0208366 0.673032 0.176377 -0.0189689 0.676035 
0.176571 -0.0173783 0.678552 0.176647 -0.0161723 0.680465 0.176658 -0.0154344 0.681677 
0.17664 -0.0152179 0.682125 
LINES 2 100
OFFSETS vtktypeint64
0 100 
CONNECTIVITY vtktypeint64
0 1 2 3 4 5 6 7 8 
9 10 11 12 13 14 15 16 17 
18 19 20 21 22 23 24 25 26 
27 28 29 30 31 32 33 34 35 
36 37 38 39 40 41 42 43 44 
45 46 47 48 49 50 51 52 53 
54 55 56 57 58 59 60 61 62 
63 64 65 66 67 68 69 70 71 
72 73 74 75 76 77 78 79 80 
81 82 83 84 85 86 87 88 89 
90 91 92 93 94 95 96 97 98 
99 
POINT_DATA 100
FIELD FieldData 3
_theta 1 100 double
0 0.031733259127 0.063466518254 0.095199777382 0.12693303651 0.15866629564 0.19039955476 0.22213281389 0.25386607302 
0.28559933214 0.31733259127 0.3490658504 0.38079910953 0.41253236865 0.44426562778 0.47599888691 0.50773214603 0.53946540516 
0.57119866429 0.60293192342 0.63466518254 0.66639844167 0.6981317008 0.72986495992 0.76159821905 0.79333147818 0.82506473731 
0.85679799643 0.88853125556 0.92026451469 0.95199777382 0.98373103294 1.0154642921 1.0471975512 1.0789308103 1.1106640695 
1.1423973286 1.1741305877 1.2058638468 1.237597106 1.2693303651 1.3010636242 1.3327968833 1.3645301425 1.3962634016 
1.4279966607 1.4597299198 1.491463179 1.5231964381 1.5549296972 1.5866629564 1.6183962155 1.6501294746 1.6818627337 
1.7135959929 1.745329252 1.7770625111 1.8087957702 1.8405290294 1.8722622885 1.9039955476 1.9357288068 1.9674620659 
1.999195325 2.0309285841 2.0626618433 2.0943951024 2.1261283615 2.1578616206 2.1895948798 2.2213281389 2.253061398 
2.2847946572 2.3165279163 2.3482611754 2.3799944345 2.4117276937 2.4434609528 2.4751942119 2.506927471 2.5386607302 
2.5703939893 2.6021272484 2.6338605076 2.6655937667 2.6973270258 2.7290602849 2.7607935441 2.7925268032 2.8242600623 
2.8559933214 2.8877265806 2.9194598397 2.9511930988 2.982926358 3.0146596171 3.0463928762 3.0781261353 3.1098593945 
3.1415926536 
_radius 1 100 double
1.1110033759e-15 0.015803213254 0.031466792934 0.046862964159 0.061894554192 0.076502546285 0.09066596469 0.10439427264 0.1177140529 
0.13065284624 0.14322335122 0.15541073375 0.16716485178 0.17839818574 0.18898948497 0.19879264967 0.20765002981 0.21540896474 
0.22193995256 0.22715441035 0.23101972691 0.23356935797 0.23490613196 0.23519770697 0.23466416082 0.23355886053 0.23214483379 
0.23066961099 0.22934173132 0.22831177564 0.22766006304 0.22739228748 0.2274435621 0.22769058459 0.22797082576 0.22810673127 
0.22793205482 0.2273168854 0.2261879341 0.22454128416 0.22244597524 0.22003827191 0.21750799975 0.21507957302 0.21299080713 
0.21147195586 0.21072600362 0.21091022644 0.21211934469 0.21437194763 0.21760306446 0.22166574474 0.2263431049 0.23137006706 
0.23646179476 0.24134432954 0.24578257526 0.24960158819 0.25269870737 0.25504581678 0.25668254471 0.25770233188 0.2582340396 
0.25842209151 0.25840795143 0.25831500796 0.25823786837 0.25823606546 0.25833159734 0.25850959511 0.25872151846 0.25889036354 
0.25891734015 0.25868938148 0.25808677115 0.25699017561 0.25528649711 0.25287321047 0.24966115558 0.24557603435 0.24055902975 
0.23456699628 0.22757258888 0.21956454886 0.21054819559 0.20054600969 0.18959806308 0.17776198604 0.16511218359 0.15173809282 
0.13774134026 0.12323168689 0.10832172438 0.093120527119 0.077726866639 0.062222984185 0.046670087037 0.031106583086 0.015549633402 
1.7826908303e-15 
_area 1 100 double
0 0.00064911000759 0.0025686665273 0.0056819857446 0.0098808260551 0.015046798042 0.021068790716 0.027850389499 0.035305730517 
0.043346762615 0.051867197594 0.060728144709 0.069748907473 0.078704955258 0.087333901024 0.095349223717 0.10246062013 0.10839954985 
0.11294841652 0.11597088938 0.11743863738 0.11744744767 0.1162155508 0.11406034703 0.11135613856 0.1084826882 0.10577893401 
0.10351426721 0.10188103675 0.10100191419 0.10092725292 0.10163482551 0.10304301356 0.10496615007 0.10717569225 0.10942166871 
0.11147250895 0.11315871 0.11440549723 0.11524247844 0.11577380154 0.11613540673 0.11648208609 0.11698816851 0.11782193172 
0.11910807189 0.12093927892 0.12342637974 0.12669564848 0.13085168312 0.13593426617 0.14188506506 0.14853167322 0.15559248253 
0.16270181335 0.16945128501 0.17544148118 0.18033607693 0.18390836136 0.18607015011 0.18687690929 0.18650866985 0.18523159439 
0.18334879495 0.18115075277 0.17887517237 0.17668375665 0.1746600423 0.17282651879 0.17116936497 0.16965406334 0.16822425532 
0.16679044146 0.16522085634 0.16334355505 0.16096237749 0.15788349509 0.15394501825 0.14904091371 0.14313293395 0.13624916461 
0.12847237905 0.11992354372 0.11074559635 0.10109123427 0.091116498367 0.080979408674 0.0708406963 0.060863593234 0.051211896097 
0.042047321099 0.033526028774 0.025792306229 0.018968839635 0.013146861295 0.0083810982769 0.0046922906078 0.0020764405133 0.00051754159898 
4.6239560623e-17 
