# vtk DataFile Version 5.1
vtk output
ASCII
DATASET POLYDATA
POINTS 100 float
0.201868 0.0395866 -0.656693 0.201342 0.0397604 -0.656675 0.19981 0.0401235 -0.656652 
0.197323 0.0406257 -0.656522 0.193959 0.0411889 -0.656129 0.189822 0.0417126 -0.655279 
0.185026 0.042083 -0.653767 0.179687 0.0421815 -0.651394 0.173913 0.0418938 -0.647992 
0.167794 0.0411186 -0.643444 0.161395 0.0397745 -0.637692 0.154752 0.0378049 -0.630743 
0.147874 0.0351811 -0.622665 0.140739 0.031903 -0.613575 0.13331 0.0279983 -0.603621 
0.125537 0.02352 -0.592965 0.117373 0.0185425 -0.581761 0.108783 0.0131577 -0.570134 
0.0997577 0.00747043 -0.558169 0.0903181 0.0015946 -0.545901 0.0805239 -0.00435118 -0.533314 
0.0704725 -0.010247 -0.520345 0.060295 -0.0159753 -0.506899 0.0501462 -0.0214241 -0.492865 
0.0401919 -0.0264904 -0.478129 0.0305919 -0.0310838 -0.4626 0.0214831 -0.0351301 -0.446218 
0.0129628 -0.0385746 -0.428967 0.00507502 -0.0413856 -0.410879 -0.00219799 -0.0435558 -0.392032 
-0.00893798 -0.045104 -0.372538 -0.0152859 -0.0460739 -0.352534 -0.0214297 -0.0465315 -0.332162 
-0.0275855 -0.0465604 -0.311549 -0.0339743 -0.0462555 -0.290797 -0.0407954 -0.0457145 -0.269967 
-0.0482007 -0.0450299 -0.249071 -0.0562713 -0.0442802 -0.228072 -0.0649998 -0.043523 -0.206894 
-0.0742816 -0.0427893 -0.185427 -0.083914 -0.0420816 -0.163548 -0.0936064 -0.0413744 -0.14114 
-0.103 -0.0406188 -0.118105 -0.111692 -0.0397501 -0.0943881 -0.119273 -0.0386971 -0.0699858 
-0.125355 -0.037394 -0.044954 -0.129608 -0.035791 -0.0194089 -0.131787 -0.0338648 0.00647859 
-0.131752 -0.0316253 0.0324945 -0.129477 -0.0291197 0.0583975 -0.125052 -0.0264316 0.0839371 
-0.11867 -0.0236758 0.108873 -0.110609 -0.0209891 0.132993 -0.101202 -0.0185179 0.156125 
-0.090807 -0.0164039 0.178152 -0.079777 -0.0147693 0.199012 -0.0684297 -0.0137041 0.218702 
-0.0570258 -0.0132554 0.237268 -0.045755 -0.0134222 0.254801 -0.034731 -0.0141535 0.271422 
-0.0239959 -0.0153534 0.287272 -0.0135329 -0.0168898 0.302495 -0.00328516 -0.0186076 0.317232 
0.00682293 -0.0203436 0.33161 0.0168631 -0.0219431 0.345734 0.0268844 -0.0232744 0.359687 
0.0368992 -0.0242412 0.373526 0.0468765 -0.0247909 0.387285 0.0567428 -0.0249174 0.400978 
0.06639 -0.0246592 0.414603 0.0756901 -0.0240928 0.42814 0.084512 -0.0233219 0.441561 
0.092741 -0.0224644 0.45483 0.100295 -0.0216377 0.4679 0.107136 -0.0209462 0.48072 
0.113278 -0.0204693 0.493233 0.118785 -0.0202545 0.505376 0.123762 -0.0203134 0.517084 
0.128342 -0.0206233 0.528287 0.132665 -0.0211313 0.538918 0.136861 -0.0217632 0.548915 
0.141028 -0.0224331 0.558221 0.14522 -0.0230545 0.566792 0.149437 -0.0235501 0.574597 
0.153622 -0.0238602 0.581622 0.157672 -0.0239481 0.587871 0.161448 -0.0238021 0.593365 
0.164797 -0.0234347 0.598141 0.167569 -0.0228789 0.602248 0.169648 -0.0221824 0.605746 
0.170963 -0.0214006 0.608697 0.171505 -0.0205901 0.611166 0.171331 -0.0198028 0.613215 
0.170564 -0.0190812 0.614898 0.169376 -0.0184566 0.616263 0.167978 -0.0179486 0.617348 
0.166589 -0.0175667 0.618181 0.165415 -0.0173132 0.618783 0.164622 -0.0171865 0.619168 
0.16432 -0.0171838 0.619343 
LINES 2 100
OFFSETS vtktypeint64
0 100 
CONNECTIVITY vtktypeint64
0 1 2 3 4 5 6 7 8 
9 10 11 12 13 14 15 16 17 
18 19 20 21 22 23 24 25 26 
27 28 29 30 31 32 33 34 35 
36 37 38 39 40 41 42 43 44 
45 46 47 48 49 50 51 52 53 
54 55 56 57 58 59 60 61 62 
63 64 65 66 67 68 69 70 71 
72 73 74 75 76 77 78 79 80 
81 82 83 84 85 86 87 88 89 
90 91 92 93 94 95 96 97 98 
99 
POINT_DATA 100
FIELD FieldData 3
_theta 1 100 double
0 0.031733259127 0.063466518254 0.095199777382 0.12693303651 0.15866629564 0.19039955476 0.22213281389 0.25386607302 
0.28559933214 0.31733259127 0.3490658504 0.38079910953 0.41253236865 0.44426562778 0.47599888691 0.50773214603 0.53946540516 
0.57119866429 0.60293192342 0.63466518254 0.66639844167 0.6981317008 0.72986495992 0.76159821905 0.79333147818 0.82506473731 
0.85679799643 0.88853125556 0.92026451469 0.95199777382 0.98373103294 1.0154642921 1.0471975512 1.0789308103 1.1106640695 
1.1423973286 1.1741305877 1.2058638468 1.237597106 1.2693303651 1.3010636242 1.3327968833 1.3645301425 1.3962634016 
1.4279966607 1.4597299198 1.491463179 1.5231964381 1.5549296972 1.5866629564 1.6183962155 1.6501294746 1.6818627337 
1.7135959929 1.745329252 1.7770625111 1.8087957702 1.8405290294 1.8722622885 1.9039955476 1.9357288068 1.9674620659 
1.999195325 2.0309285841 2.0626618433 2.0943951024 2.1261283615 2.1578616206 2.1895948798 2.2213281389 2.253061398 
2.2847946572 2.3165279163 2.3482611754 2.3799944345 2.4117276937 2.4434609528 2.4751942119 2.506927471 2.5386607302 
2.5703939893 2.6021272484 2.6338605076 2.6655937667 2.6973270258 2.7290602849 2.7607935441 2.7925268032 2.8242600623 
2.8559933214 2.8877265806 2.9194598397 2.9511930988 2.982926358 3.0146596171 3.0463928762 3.0781261353 3.1098593945 
3.1415926536 
_radius 1 100 double
9.0365607198e-16 0.016035496462 0.031751859573 0.046855179874 0.06110241215 0.074317449796 0.086397587149 0.097309835667 0.10707839492 
0.11576623928 0.12345486463 0.1302264031 0.13615142095 0.1412839606 0.14566330596 0.1493202416 0.15228482164 0.15459306658 
0.15629128006 0.15743816453 0.15810588143 0.15838120317 0.1583670108 0.15818310998 0.15796435262 0.15785397199 0.15799119093 
0.15849433472 0.15944295109 0.16086348098 0.16272208148 0.16492589295 0.16733182658 0.16976082304 0.17201551479 0.1738997177 
0.175238443 0.17589686639 0.17579636867 0.17492579368 0.17334620678 0.1711874769 0.16863565786 0.1659126824 0.16325407551 
0.16089226946 0.15904842251 0.15792774695 0.15771038198 0.15853381419 0.16046942871 0.16350096282 0.16751424061 0.17230444126 
0.1776005819 0.18310080274 0.18850959107 0.19356936567 0.19808205955 0.20191957209 0.20502417971 0.20740116222 0.20910635964 
0.21023134164 0.21088843678 0.21119714239 0.21127261342 0.21121624369 0.21110799027 0.21100011923 0.21091241399 0.21082942774 
0.2107008102 0.21044571052 0.20996143015 0.20913504943 0.20785551715 0.20602354442 0.20355767238 0.20039638796 0.19649733528 
0.19183511581 0.18639892985 0.18019067551 0.17322343807 0.16551987086 0.15710995527 0.1480280222 0.13830952315 0.12798851419 
0.11709680342 0.10566510232 0.093725650771 0.081315246121 0.068477699139 0.05526523435 0.041738814937 0.027967580436 0.014027588592 
6.2577602333e-16 
_area 1 100 double
0 0.00053564389286 0.0021229306463 0.0047010856783 0.0081648113353 0.01236392171 0.017109445067 0.022186400843 0.02737072649 
0.032446912181 0.037223562058 0.04154543976 0.045301799939 0.048431537398 0.05092565394 0.052826609854 0.054222695567 0.05523497017 
0.055996158917 0.056625227029 0.057205599386 0.05777589209 0.058338349747 0.058880925344 0.059399119427 0.059908465003 0.060443090223 
0.061045337649 0.06175624345 0.062610382447 0.063632915237 0.064834339139 0.066202660412 0.067698362058 0.069252611575 0.07076727197 
0.072127089312 0.073228845194 0.074011538817 0.074474868672 0.07468004119 0.074720639778 0.074671380059 0.074557332546 0.074381587805 
0.074201931691 0.074122667831 0.074195314629 0.074555398349 0.075442322953 0.077114606192 0.07977253348 0.083509716542 0.088277548712 
0.093849167408 0.099829931801 0.10574075349 0.11112004345 0.11560149454 0.11896192897 0.1211389366 0.12221830516 0.12239644169 
0.12192888549 0.12107861084 0.12007491183 0.11908615294 0.11820652963 0.11746491084 0.11685537437 0.11636264235 0.11596414243 
0.11561528352 0.11523257955 0.11468874153 0.11382725534 0.11249011376 0.11054342266 0.10789035064 0.10447168793 0.10026115653 
0.095262900938 0.089514144583 0.083090664325 0.076110107539 0.068729024566 0.061132120536 0.053514835857 0.046062295798 0.038929253967 
0.032227274641 0.026025579243 0.020366585798 0.015286992383 0.010832021493 0.0070585686722 0.0040307198605 0.0018119195245 0.00045620013361 
6.2618208277e-17 
