# vtk DataFile Version 5.1
vtk output
ASCII
DATASET POLYDATA
POINTS 100 float
0.132488 0.121761 -0.716224 0.13234 0.121685 -0.715775 0.13187 0.121203 -0.714425 
0.131114 0.1203 -0.712186 0.130131 0.118955 -0.709084 0.12899 0.117143 -0.705156 
0.127764 0.11484 -0.700455 0.12652 0.112025 -0.695051 0.125308 0.108686 -0.68903 
0.124156 0.10482 -0.68249 0.123062 0.100439 -0.675536 0.121996 0.0955638 -0.668271 
0.120898 0.09023 -0.660788 0.119688 0.0844811 -0.653157 0.118267 0.0783675 -0.645418 
0.116532 0.071943 -0.637573 0.114382 0.0652612 -0.629578 0.111728 0.0583727 -0.621349 
0.108501 0.0513227 -0.612762 0.104657 0.0441505 -0.603663 0.10018 0.0368896 -0.593885 
0.0950781 0.0295686 -0.583259 0.0893827 0.0222144 -0.571632 0.0831424 0.0148545 -0.558884 
0.0764154 0.00752065 -0.544938 0.0692623 0.000251298 -0.529768 0.0617398 -0.00690584 -0.513405 
0.053895 -0.0138929 -0.49593 0.0457628 -0.0206421 -0.477463 0.0373653 -0.027077 -0.458154 
0.028714 -0.033116 -0.438165 0.0198138 -0.0386754 -0.417648 0.0106692 -0.0436748 -0.396735 
0.001291 -0.0480413 -0.37552 -0.00829729 -0.0517144 -0.354054 -0.0180534 -0.05465 -0.33234 
-0.0279125 -0.0568228 -0.310341 -0.0377851 -0.0582283 -0.287982 -0.047558 -0.0588831 -0.265171 
-0.0570973 -0.0588233 -0.241811 -0.0662538 -0.0581025 -0.217819 -0.0748697 -0.0567883 -0.193139 
-0.0827875 -0.0549587 -0.167756 -0.0898571 -0.0526977 -0.141699 -0.0959445 -0.0500915 -0.115047 
-0.100938 -0.0472252 -0.0879215 -0.104753 -0.0441792 -0.060477 -0.107336 -0.0410279 -0.0328893 
-0.108665 -0.0378375 -0.00533996 -0.108746 -0.034666 0.021998 -0.107615 -0.0315627 0.0489731 
-0.105333 -0.0285688 0.0754644 -0.101979 -0.025718 0.101387 -0.0976455 -0.0230373 0.12669 
-0.0924355 -0.0205478 0.151358 -0.0864566 -0.0182654 0.175395 -0.0798166 -0.0162014 0.198822 
-0.0726207 -0.014363 0.221664 -0.0649688 -0.0127539 0.243942 -0.0569536 -0.0113744 0.265664 
-0.0486596 -0.010222 0.286826 -0.0401623 -0.00929206 0.307411 -0.0315291 -0.00857787 0.327392 
-0.0228189 -0.00807155 0.346742 -0.0140843 -0.0077643 0.36544 -0.00537191 -0.00764685 0.383479 
0.00327493 -0.00770959 0.400875 0.0118149 -0.00794264 0.417669 0.0202063 -0.00833557 0.433927 
0.0284057 -0.008877 0.449737 0.0363662 -0.00955412 0.4652 0.0440368 -0.0103521 0.480421 
0.0513624 -0.0112536 0.495496 0.0582848 -0.0122387 0.510498 0.0647448 -0.0132847 0.525472 
0.0706849 -0.014367 0.540423 0.0760531 -0.0154594 0.555314 0.0808073 -0.0165359 0.57007 
0.0849193 -0.0175718 0.584585 0.0883786 -0.0185454 0.598727 0.0911952 -0.0194393 0.612357 
0.0934012 -0.0202418 0.625339 0.0950502 -0.0209479 0.637556 0.0962155 -0.0215588 0.648918 
0.0969859 -0.0220822 0.65937 0.0974599 -0.0225308 0.668896 0.0977391 -0.0229209 0.677513 
0.0979209 -0.0232701 0.685271 0.098091 -0.023596 0.692238 0.0983174 -0.0239134 0.698492 
0.0986457 -0.0242329 0.704108 0.0990963 -0.0245598 0.709149 0.0996644 -0.0248939 0.713659 
0.100322 -0.0252292 0.717658 0.101024 -0.0255553 0.721143 0.101713 -0.0258588 0.724091 
0.102325 -0.0261251 0.726467 0.102804 -0.0263407 0.728229 0.1031 -0.0264947 0.729341 
0.103184 -0.0265804 0.729776 
LINES 2 100
OFFSETS vtktypeint64
0 100 
CONNECTIVITY vtktypeint64
0 1 2 3 4 5 6 7 8 
9 10 11 12 13 14 15 16 17 
18 19 20 21 22 23 24 25 26 
27 28 29 30 31 32 33 34 35 
36 37 38 39 40 41 42 43 44 
45 46 47 48 49 50 51 52 53 
54 55 56 57 58 59 60 61 62 
63 64 65 66 67 68 69 70 71 
72 73 74 75 76 77 78 79 80 
81 82 83 84 85 86 87 88 89 
90 91 92 93 94 95 96 97 98 
99 
POINT_DATA 100
FIELD FieldData 3
_theta 1 100 double
0 0.031733259127 0.063466518254 0.095199777382 0.12693303651 0.15866629564 0.19039955476 0.22213281389 0.25386607302 
0.28559933214 0.31733259127 0.3490658504 0.38079910953 0.41253236865 0.44426562778 0.47599888691 0.50773214603 0.53946540516 
0.57119866429 0.60293192342 0.63466518254 0.66639844167 0.6981317008 0.72986495992 0.76159821905 0.79333147818 0.82506473731 
0.85679799643 0.88853125556 0.92026451469 0.95199777382 0.98373103294 1.0154642921 1.0471975512 1.0789308103 1.1106640695 
1.1423973286 1.1741305877 1.2058638468 1.237597106 1.2693303651 1.3010636242 1.3327968833 1.3645301425 1.3962634016 
1.4279966607 1.4597299198 1.491463179 1.5231964381 1.5549296972 1.5866629564 1.6183962155 1.6501294746 1.6818627337 
1.7135959929 1.745329252 1.7770625111 1.8087957702 1.8405290294 1.8722622885 1.9039955476 1.9357288068 1.9674620659 
1.999195325 2.0309285841 2.0626618433 2.0943951024 2.1261283615 2.1578616206 2.1895948798 2.2213281389 2.253061398 
2.2847946572 2.3165279163 2.3482611754 2.3799944345 2.4117276937 2.4434609528 2.4751942119 2.506927471 2.5386607302 
2.5703939893 2.6021272484 2.6338605076 2.6655937667 2.6973270258 2.7290602849 2.7607935441 2.7925268032 2.8242600623 
2.8559933214 2.8877265806 2.9194598397 2.9511930988 2.982926358 3.0146596171 3.0463928762 3.0781261353 3.1098593945 
3.1415926536 
_radius 1 100 double
1.3713052168e-15 0.014692744194 0.029213741958 0.043401993846 0.057130448195 0.070317354301 0.082931434379 0.094990086364 0.10655064733 
0.11769554978 0.12851299393 0.13907555012 0.14941980167 0.15953048474 0.16933227984 0.1786913364 0.18742696203 0.19533211713 
0.20219987019 0.20785205624 0.21216609177 0.21509615673 0.21668565621 0.21706893 0.21646150118 0.21513964019 0.21341153188 
0.21158370751 0.20992744612 0.20865030529 0.20787745434 0.20764572267 0.20791041681 0.2085620955 0.20944901119 0.21040117654 
0.21125307985 0.21186300588 0.21212766862 0.21199186086 0.2114538483 0.21056725831 0.20943904112 0.20822225522 0.20710317477 
0.20628376233 0.20596148338 0.20630846455 0.20745186786 0.20945777055 0.21232154196 0.21596752412 0.22025890582 0.22501575846 
0.23003706955 0.23512231801 0.24008926071 0.24478612515 0.24909768465 0.25294560581 0.25628410345 0.25909240581 0.26136581481 
0.2631071743 0.26432027876 0.2650061978 0.26516278412 0.2647869446 0.26387872854 0.26244599674 0.2605083845 0.25809942659 
0.25526603432 0.25206496539 0.24855645906 0.2447957443 0.24082358149 0.23665730321 0.2322839381 0.22765689188 0.22269725558 
0.21730007579 0.21134495369 0.20470940612 0.19728284466 0.18897897999 0.17974488177 0.1695656234 0.15846422726 0.14649737504 
0.13374796589 0.12031599624 0.10630930399 0.091835435067 0.076995359105 0.061879227786 0.046564069791 0.03111329913 0.01557800868 
1.5911281592e-16 
_area 1 100 double
0 0.00065792436385 0.0025981577629 0.0057260658324 0.0099022708422 0.014965135445 0.020753970508 0.027128176662 0.033979530415 
0.041236904661 0.048863269914 0.056843771658 0.065163395444 0.073775672513 0.082569121539 0.091341849639 0.099794396559 0.10754699849 
0.11418156182 0.11930211045 0.12260182493 0.12392185748 0.12328820517 0.12091800756 0.11719412514 0.11261429217 0.10772625878 
0.10306162115 0.099077468158 0.096108030763 0.094328206803 0.093745259261 0.094234790642 0.095602079032 0.097634805201 0.10013285952 
0.10291688348 0.10582174765 0.10868378686 0.11133503498 0.1136167631 0.11541180817 0.11667949802 0.11747400397 0.11793883237 
0.11828431341 0.11876088368 0.11963909526 0.12120177432 0.12373118414 0.12739269009 0.13207325311 0.13750769059 0.14341349278 
0.14950792884 0.15552097106 0.16121964545 0.16643139412 0.17105670945 0.17506576176 0.1784781036 0.18132953248 0.18363594608 
0.18536825469 0.18644937982 0.18677242048 0.18622831945 0.18473125679 0.18223690259 0.17875445286 0.17435479204 0.16917485084 
0.16341396536 0.15731431181 0.15112011393 0.14502628257 0.13914433349 0.13350042684 0.12804962868 0.12268834305 0.11726689084 
0.11161292832 0.10556743189 0.099022055724 0.091943258797 0.084375680498 0.076426381318 0.068237156905 0.0599549787 0.051712123718 
0.043624557782 0.035806059551 0.028384323717 0.021506755344 0.01533422809 0.010028013862 0.0057356371499 0.002579433897 0.00064939935794 
1.4751924156e-17 
