# vtk DataFile Version 5.1
vtk output
ASCII
DATASET POLYDATA
POINTS 100 float
0.124196 0.0670139 -0.635796 0.12411 0.0669721 -0.635975 0.123817 0.0666796 -0.636447 
0.123324 0.0661365 -0.637086 0.122643 0.0653409 -0.637695 0.121783 0.0642861 -0.638034 
0.120746 0.0629582 -0.637842 0.119526 0.0613329 -0.636869 0.1181 0.0593739 -0.634904 
0.116425 0.0570332 -0.63179 0.114445 0.0542531 -0.627445 0.112082 0.0509697 -0.62186 
0.109252 0.0471193 -0.615098 0.105864 0.0426451 -0.607275 0.101831 0.0375056 -0.598546 
0.097083 0.0316816 -0.58908 0.0915709 0.0251831 -0.579032 0.0852802 0.0180537 -0.568529 
0.0782343 0.0103727 -0.557653 0.0704984 0.00225445 -0.54643 0.0621788 -0.00615589 -0.534837 
0.0534173 -0.0146886 -0.522806 0.0443831 -0.0231581 -0.51024 0.0352597 -0.031373 -0.497032 
0.0262313 -0.0391467 -0.483082 0.0174666 -0.046307 -0.468314 0.00910422 -0.0527048 -0.452691 
0.00124006 -0.0582205 -0.436221 -0.00608165 -0.0627682 -0.418954 -0.0128726 -0.0662972 -0.400975 
-0.0191988 -0.0687909 -0.382394 -0.0251736 -0.0702638 -0.363326 -0.0309452 -0.0707575 -0.343874 
-0.0366801 -0.0703351 -0.324113 -0.0425433 -0.069076 -0.304078 -0.0486784 -0.0670711 -0.28376 
-0.0551884 -0.0644188 -0.263103 -0.0621198 -0.0612217 -0.242016 -0.0694518 -0.0575844 -0.220386 
-0.077092 -0.0536124 -0.198095 -0.0848784 -0.0494111 -0.17504 -0.0925894 -0.045085 -0.151152 
-0.099959 -0.0407364 -0.126412 -0.106697 -0.0364644 -0.100859 -0.112515 -0.0323615 -0.0745918 
-0.117144 -0.0285118 -0.0477686 -0.120363 -0.0249871 -0.0205907 -0.122016 -0.0218435 0.00671059 
-0.122021 -0.0191189 0.0338943 -0.120379 -0.0168306 0.0607289 -0.117168 -0.0149748 0.0870104 
-0.112541 -0.0135271 0.112576 -0.106702 -0.0124455 0.13731 -0.0998933 -0.0116736 0.161152 
-0.0923712 -0.0111463 0.184083 -0.0843838 -0.0107955 0.206127 -0.0761526 -0.0105557 0.227332 
-0.0678567 -0.0103698 0.247759 -0.0596231 -0.0101932 0.267473 -0.0515234 -0.00999631 0.286526 
-0.0435768 -0.009766 0.304959 -0.0357581 -0.00950436 0.322797 -0.0280106 -0.00922638 0.340052 
-0.0202612 -0.00895634 0.356727 -0.0124357 -0.00872341 0.372831 -0.00447326 -0.00855729 0.388376 
0.00366296 -0.00848428 0.403392 0.0119786 -0.00852439 0.417925 0.0204463 -0.0086896 0.432039 
0.0290088 -0.00898358 0.445806 0.0375856 -0.00940265 0.459302 0.0460831 -0.0099376 0.472593 
0.0544064 -0.0105761 0.485725 0.0624701 -0.0113049 0.498713 0.070208 -0.0121121 0.511534 
0.0775801 -0.0129875 0.524128 0.0845747 -0.0139233 0.536399 0.0912079 -0.0149122 0.548223 
0.0975182 -0.0159459 0.559468 0.103558 -0.0170121 0.570004 0.109386 -0.0180922 0.579725 
0.115053 -0.0191594 0.588566 0.120598 -0.0201773 0.596511 0.126038 -0.0211013 0.603601 
0.131364 -0.0218802 0.609933 0.136544 -0.0224603 0.61565 0.141525 -0.0227908 0.620927 
0.14624 -0.0228295 0.625947 0.150616 -0.0225489 0.63088 0.154584 -0.0219415 0.635863 
0.15809 -0.0210236 0.640974 0.161097 -0.0198369 0.646226 0.163595 -0.0184473 0.651558 
0.165597 -0.0169417 0.656839 0.167139 -0.0154218 0.661882 0.168274 -0.0139961 0.666465 
0.169063 -0.0127705 0.670352 0.169565 -0.0118395 0.673324 0.169833 -0.0112771 0.675202 
0.169899 -0.0111302 0.675872 
LINES 2 100
OFFSETS vtktypeint64
0 100 
CONNECTIVITY vtktypeint64
0 1 2 3 4 5 6 7 8 
9 10 11 12 13 14 15 16 17 
18 19 20 21 22 23 24 25 26 
27 28 29 30 31 32 33 34 35 
36 37 38 39 40 41 42 43 44 
45 46 47 48 49 50 51 52 53 
54 55 56 57 58 59 60 61 62 
63 64 65 66 67 68 69 70 71 
72 73 74 75 76 77 78 79 80 
81 82 83 84 85 86 87 88 89 
90 91 92 93 94 95 96 97 98 
99 
POINT_DATA 100
FIELD FieldData 3
_theta 1 100 double
0 0.031733259127 0.063466518254 0.095199777382 0.12693303651 0.15866629564 0.19039955476 0.22213281389 0.25386607302 
0.28559933214 0.31733259127 0.3490658504 0.38079910953 0.41253236865 0.44426562778 0.47599888691 0.50773214603 0.53946540516 
0.57119866429 0.60293192342 0.63466518254 0.66639844167 0.6981317008 0.72986495992 0.76159821905 0.79333147818 0.82506473731 
0.85679799643 0.88853125556 0.92026451469 0.95199777382 0.98373103294 1.0154642921 1.0471975512 1.0789308103 1.1106640695 
1.1423973286 1.1741305877 1.2058638468 1.237597106 1.2693303651 1.3010636242 1.3327968833 1.3645301425 1.3962634016 
1.4279966607 1.4597299198 1.491463179 1.5231964381 1.5549296972 1.5866629564 1.6183962155 1.6501294746 1.6818627337 
1.7135959929 1.745329252 1.7770625111 1.8087957702 1.8405290294 1.8722622885 1.9039955476 1.9357288068 1.9674620659 
1.999195325 2.0309285841 2.0626618433 2.0943951024 2.1261283615 2.1578616206 2.1895948798 2.2213281389 2.253061398 
2.2847946572 2.3165279163 2.3482611754 2.3799944345 2.4117276937 2.4434609528 2.4751942119 2.506927471 2.5386607302 
2.5703939893 2.6021272484 2.6338605076 2.6655937667 2.6973270258 2.7290602849 2.7607935441 2.7925268032 2.8242600623 
2.8559933214 2.8877265806 2.9194598397 2.9511930988 2.982926358 3.0146596171 3.0463928762 3.0781261353 3.1098593945 
3.1415926536 
_radius 1 100 double
6.7674673311e-16 0.01641683693 0.032765830922 0.048969444621 0.064935298431 0.08055201456 0.095688335235 0.11019562485 0.12391340241 
0.13667725085 0.14832831167 0.15872355156 0.16774602352 0.17531439405 0.18139105095 0.18598814884 0.18917101804 0.19105848215 
0.19181981289 0.19166828056 0.19085148943 0.18963887214 0.18830683461 0.18712213228 0.18632421489 0.18610759921 0.18660582011 
0.18787898847 0.18990711856 0.19259088239 0.19576033228 0.19919082279 0.20262435099 0.2057939969 0.20844895974 0.21037774945 
0.21142746366 0.21151776114 0.21064886067 0.20890329913 0.20644128367 0.20348967721 0.20032527773 0.19725394267 0.19458778541 
0.19262267509 0.19161748551 0.19177542474 0.19322732305 0.19601774167 0.20009662046 0.20531996942 0.21146148064 0.2182338704 
0.22531640326 0.23238438741 0.23913695408 0.24532034766 0.25074486621 0.25529441529 0.25892837097 0.26167610644 0.2636251431 
0.26490444722 0.2656648693 0.26605902659 0.26622294592 0.26626143725 0.26623848104 0.26617302687 0.26603974543 0.26577368583 
0.26527761391 0.26443101838 0.26310014472 0.26114864627 0.25844835271 0.25488934474 0.25038826702 0.24489384848 0.23838897431 
0.23088923308 0.22243844512 0.21310209652 0.20295978089 0.19209770354 0.18060210789 0.16855422125 0.15602703187 0.14308391031 
0.12977879727 0.11615746442 0.10225930123 0.088119207327 0.073769385783 0.059240990867 0.044565596971 0.029776359095 0.014908650336 
8.9350127953e-16 
_area 1 100 double
0 0.00060351474622 0.0024168055145 0.0054419153612 0.0096640319627 0.015031298844 0.021437126716 0.028709952557 0.036613141762 
0.044855735585 0.053113016305 0.061054165269 0.068372731082 0.074814672815 0.080198947084 0.084427287734 0.087482717298 0.089419342585 
0.090347709089 0.09041986778 0.089816992289 0.08874088632 0.087409884423 0.086069775955 0.085183025004 0.084870860287 0.085226769644 
0.0862585548 0.088053968894 0.090413082939 0.093172035854 0.096099896993 0.098940905292 0.10145307315 0.10344073837 0.10478117534 
0.10544248574 0.10549369743 0.10508424081 0.10434152442 0.1034052599 0.10231920238 0.10111782425 0.099990848138 0.099130888226 
0.098879910312 0.099512366411 0.10116932497 0.10390076088 0.10774888139 0.11276407582 0.11897396954 0.12633276153 0.13467690506 
0.143706736 0.15300213877 0.16206980171 0.17041183895 0.17759914896 0.1833307422 0.18746568515 0.19002455801 0.19116683926 
0.19115535782 0.19031590854 0.1889865434 0.18744078457 0.18581708915 0.18413248463 0.18235038458 0.18042311733 0.17830068169 
0.17592307121 0.17320527206 0.17002205349 0.16620796022 0.16158751899 0.1560242417 0.14945710222 0.14190832125 0.1334686824 
0.12427467103 0.114489241 0.10429095526 0.093869008824 0.083418471206 0.073132013796 0.063188439801 0.0537410648 0.044909335819 
0.036775962756 0.029390405149 0.022778069605 0.016952917084 0.01192987845 0.0077334093914 0.0043998290301 0.0019731447763 0.00049614109823 
3.0004447151e-17 
