# vtk DataFile Version 5.1
vtk output
ASCII
DATASET POLYDATA
POINTS 100 float
0.129669 0.0493207 -0.625755 0.129648 0.049364 -0.625777 0.129632 0.0493378 -0.625849 
0.129599 0.0492253 -0.625894 0.129512 0.0489981 -0.625788 0.129316 0.0486165 -0.625378 
0.128946 0.0480312 -0.624497 0.128323 0.0471843 -0.622983 0.12736 0.046013 -0.620692 
0.125964 0.044453 -0.617512 0.124041 0.0424428 -0.613373 0.121503 0.0399292 -0.608251 
0.118271 0.0368724 -0.602159 0.114284 0.0332509 -0.595147 0.109504 0.0290652 -0.587285 
0.103918 0.0243411 -0.578654 0.0975442 0.0191293 -0.569329 0.0904315 0.013505 -0.559369 
0.0826582 0.00756387 -0.548807 0.0743281 0.00141698 -0.53765 0.0655644 -0.0048158 -0.525874 
0.0565013 -0.0110131 -0.513433 0.0472749 -0.0170592 -0.500266 0.0380129 -0.0228505 -0.486309 
0.0288253 -0.0282998 -0.471505 0.0197963 -0.0333396 -0.455812 0.0109785 -0.0379218 -0.439216 
0.00239064 -0.0420161 -0.421727 -0.00598173 -0.0456064 -0.403384 -0.0141815 -0.0486852 -0.384249 
-0.0222718 -0.0512485 -0.364397 -0.0303257 -0.0532908 -0.343908 -0.0384129 -0.0548006 -0.322857 
-0.0465871 -0.0557593 -0.301305 -0.0548737 -0.0561412 -0.279291 -0.0632592 -0.0559162 -0.256833 
-0.0716847 -0.0550552 -0.233927 -0.0800434 -0.0535363 -0.210555 -0.0881831 -0.051352 -0.186693 
-0.0959128 -0.0485162 -0.162321 -0.103015 -0.0450694 -0.137438 -0.109262 -0.0410822 -0.11207 
-0.114429 -0.0366553 -0.0862794 -0.118319 -0.0319166 -0.0601655 -0.120774 -0.0270151 -0.0338662 
-0.12169 -0.0221121 -0.0075501 -0.12103 -0.0173705 0.0185936 -0.118826 -0.0129435 0.0443692 
-0.115178 -0.00896357 0.0695892 -0.110246 -0.00553337 0.0940897 -0.10424 -0.00271907 0.117743 
-0.0974044 -0.000547152 0.140466 -0.0899943 0.000995048 0.162228 -0.0822611 0.00195527 0.183044 
-0.0744318 0.00240917 0.202975 -0.066694 0.00245093 0.222115 -0.059185 0.00218281 0.240579 
-0.0519859 0.00170476 0.25849 -0.0451216 0.00110527 0.275964 -0.0385661 0.000454453 0.2931 
-0.0322529 -0.00020015 0.309969 -0.0260886 -0.00083456 0.326616 -0.0199681 -0.00144647 0.343052 
-0.0137907 -0.00205086 0.359266 -0.00747418 -0.00267395 0.375226 -0.000965472 -0.00334637 0.39089 
0.00575194 -0.00409666 0.406217 0.012656 -0.00494576 0.421169 0.0196883 -0.00590348 0.435723 
0.0267613 -0.00696694 0.449872 0.0337678 -0.00812138 0.46362 0.0405928 -0.00934277 0.476985 
0.0471266 -0.0106019 0.489992 0.0532751 -0.0118689 0.502663 0.0589699 -0.0131179 0.515014 
0.0641732 -0.0143307 0.527048 0.0688803 -0.0154986 0.538752 0.0731171 -0.016623 0.550094 
0.0769355 -0.0177141 0.56103 0.0804047 -0.0187876 0.571503 0.0836018 -0.0198609 0.581455 
0.0866022 -0.0209488 0.590829 0.0894706 -0.0220591 0.599582 0.0922543 -0.0231901 0.607686 
0.094979 -0.0243289 0.615133 0.0976476 -0.0254517 0.62194 0.100243 -0.0265264 0.628138 
0.102731 -0.0275161 0.633778 0.10507 -0.0283843 0.638915 0.107214 -0.0290996 0.643606 
0.109125 -0.0296408 0.647899 0.110772 -0.0300002 0.651828 0.112143 -0.0301858 0.655409 
0.113238 -0.0302208 0.658638 0.114076 -0.0301415 0.661491 0.114685 -0.0299933 0.663933 
0.115101 -0.029825 0.665916 0.115361 -0.0296829 0.667395 0.115496 -0.0296052 0.668329 
0.115525 -0.0296169 0.668692 
LINES 2 100
OFFSETS vtktypeint64
0 100 
CONNECTIVITY vtktypeint64
0 1 2 3 4 5 6 7 8 
9 10 11 12 13 14 15 16 17 
18 19 20 21 22 23 24 25 26 
27 28 29 30 31 32 33 34 35 
36 37 38 39 40 41 42 43 44 
45 46 47 48 49 50 51 52 53 
54 55 56 57 58 59 60 61 62 
63 64 65 66 67 68 69 70 71 
72 73 74 75 76 77 78 79 80 
81 82 83 84 85 86 87 88 89 
90 91 92 93 94 95 96 97 98 
99 
POINT_DATA 100
FIELD FieldData 3
_theta 1 100 double
0 0.031733259127 0.063466518254 0.095199777382 0.12693303651 0.15866629564 0.19039955476 0.22213281389 0.25386607302 
0.28559933214 0.31733259127 0.3490658504 0.38079910953 0.41253236865 0.44426562778 0.47599888691 0.50773214603 0.53946540516 
0.57119866429 0.60293192342 0.63466518254 0.66639844167 0.6981317008 0.72986495992 0.76159821905 0.79333147818 0.82506473731 
0.85679799643 0.88853125556 0.92026451469 0.95199777382 0.98373103294 1.0154642921 1.0471975512 1.0789308103 1.1106640695 
1.1423973286 1.1741305877 1.2058638468 1.237597106 1.2693303651 1.3010636242 1.3327968833 1.3645301425 1.3962634016 
1.4279966607 1.4597299198 1.491463179 1.5231964381 1.5549296972 1.5866629564 1.6183962155 1.6501294746 1.6818627337 
1.7135959929 1.745329252 1.7770625111 1.8087957702 1.8405290294 1.8722622885 1.9039955476 1.9357288068 1.9674620659 
1.999195325 2.0309285841 2.0626618433 2.0943951024 2.1261283615 2.1578616206 2.1895948798 2.2213281389 2.253061398 
2.2847946572 2.3165279163 2.3482611754 2.3799944345 2.4117276937 2.4434609528 2.4751942119 2.506927471 2.5386607302 
2.5703939893 2.6021272484 2.6338605076 2.6655937667 2.6973270258 2.7290602849 2.7607935441 2.7925268032 2.8242600623 
2.8559933214 2.8877265806 2.9194598397 2.9511930988 2.982926358 3.0146596171 3.0463928762 3.0781261353 3.1098593945 
3.1415926536 
_radius 1 100 double
1.2367787636e-15 0.014023729839 0.028044152807 0.042043666657 0.055987407468 0.069818495334 0.083456457722 0.096798523996 0.10972326623 
0.12209606233 0.13377589125 0.14462296326 0.15450666611 0.16331332898 0.17095338943 0.1773676593 0.18253244912 0.18646327765 
0.18921677863 0.19089030723 0.19161874793 0.19156820614 0.19092662529 0.18989183463 0.18865798165 0.18740161099 0.18626875553 
0.18536433825 0.18474504824 0.18441670594 0.18433688782 0.18442307844 0.18456581322 0.18464538919 0.18455016385 0.18419449581 
0.18353467439 0.18258086759 0.18140196488 0.18011978732 0.17889176536 0.17788681189 0.17726372432 0.17716000022 0.17769155478 
0.17895658189 0.18103523562 0.18398115332 0.1878072793 0.19247250408 0.19787521318 0.20385648911 0.21021235683 0.21671242032 
0.22312134481 0.22921970703 0.23482156469 0.23978716694 0.24403007714 0.24751852047 0.25027115875 0.25234791969 0.25383705946 
0.25484023905 0.25545779105 0.25577625414 0.25585959798 0.25574462791 0.25544023519 0.25492965405 0.2541746978 0.25312099739 
0.25170348191 0.24985163312 0.24749430973 0.24456408929 0.24100109737 0.23675622857 0.23179358672 0.22609194447 0.21964507973 
0.21246097951 0.2045600685 0.19597275854 0.18673668373 0.17689398661 0.16648898612 0.15556649706 0.14417095218 0.1323462815 
0.12013628035 0.10758505217 0.094737127484 0.081637037645 0.06832838747 0.054852712364 0.041248519223 0.027550851217 0.013791527891 
3.2224283837e-16 
_area 1 100 double
0 0.00045211332017 0.0018367529779 0.0042255613674 0.0076996968822 0.012309200273 0.018038959973 0.024789171871 0.032372592688 
0.040527196431 0.048940561809 0.057280742786 0.065227453173 0.072497668968 0.078861934536 0.084151675018 0.088261723216 0.091152924651 
0.092855998163 0.093472905843 0.093170342336 0.092163013725 0.090689523818 0.088986872425 0.087268749315 0.085709612746 0.084434243302 
0.083511660723 0.082953198581 0.082722205219 0.082765521795 0.082982325367 0.083250375159 0.083492094763 0.083684018004 0.083826789048 
0.083938196836 0.084085941923 0.084377300436 0.084922931506 0.085776365232 0.086909458446 0.088260107733 0.089798690566 0.091576141043 
0.093720385609 0.096367617752 0.099641635408 0.10367621344 0.10859872934 0.11449968703 0.12139218609 0.12914337094 0.13744777977 
0.14589358285 0.15403943862 0.16147021934 0.16784673148 0.17294984292 0.17670800642 0.17919813447 0.18061979703 0.18126699894 
0.18163261835 0.18188844263 0.18180473867 0.18129083465 0.18029966856 0.17881035732 0.17682494797 0.17436629403 0.17147197498 
0.16818218496 0.16452257889 0.16048687695 0.15602680264 0.15105632913 0.14547202331 0.13918370992 0.13214483847 0.12437268707 
0.1159531079 0.10702985772 0.09778284915 0.088401991282 0.079063282032 0.069912003686 0.061055641823 0.052567248224 0.044497464654 
0.036890183687 0.029795573538 0.023276545041 0.017408296481 0.012272777694 0.0079506959937 0.0045137256475 0.0020189877476 0.00050664143273 
2.168404345e-18 
