# vtk DataFile Version 5.1
vtk output
ASCII
DATASET POLYDATA
POINTS 100 float
0.204114 0.0724651 -0.704591 0.204067 0.072644 -0.704457 0.203938 0.0729667 -0.704065 
0.203674 0.0733841 -0.703361 0.203194 0.073819 -0.702261 0.202396 0.0741711 -0.70066 
0.201164 0.0743249 -0.698447 0.199383 0.0741576 -0.695511 0.196947 0.0735485 -0.691759 
0.193766 0.0723874 -0.68712 0.189779 0.0705832 -0.681554 0.184953 0.06807 -0.675054 
0.179285 0.0648123 -0.667644 0.172807 0.0608076 -0.659372 0.165575 0.0560866 -0.650307 
0.157665 0.0507117 -0.640523 0.149172 0.0447723 -0.630095 0.140195 0.0383797 -0.619085 
0.130836 0.03166 -0.607537 0.121188 0.0247461 -0.595476 0.11134 0.0177706 -0.582899 
0.101363 0.0108585 -0.569785 0.0913167 0.00412139 -0.556095 0.0812447 -0.00234727 -0.541779 
0.0711773 -0.00847453 -0.526784 0.0611321 -0.014209 -0.511062 0.051116 -0.0195199 -0.494571 
0.0411273 -0.0243946 -0.477286 0.031157 -0.0288353 -0.459194 0.0211916 -0.0328544 -0.440298 
0.0112141 -0.0364703 -0.420615 0.00120705 -0.0397027 -0.400165 -0.00884504 -0.0425694 -0.378979 
-0.0189525 -0.045083 -0.357084 -0.0291163 -0.0472496 -0.334507 -0.0393242 -0.0490682 -0.311272 
-0.049546 -0.050531 -0.287399 -0.0597294 -0.0516252 -0.262909 -0.0697972 -0.0523347 -0.237827 
-0.0796453 -0.052643 -0.212186 -0.0891431 -0.0525353 -0.186031 -0.0981364 -0.0520009 -0.159425 
-0.106452 -0.0510353 -0.132446 -0.113908 -0.0496415 -0.10519 -0.120319 -0.047831 -0.0777694 
-0.125511 -0.0456238 -0.050305 -0.129332 -0.0430488 -0.0229226 -0.131662 -0.040143 0.00425502 
-0.132425 -0.0369513 0.0311148 -0.13159 -0.0335256 0.0575593 -0.12918 -0.0299243 0.0835113 
-0.125268 -0.0262111 0.108915 -0.119976 -0.0224546 0.133738 -0.113461 -0.0187269 0.157963 
-0.105912 -0.0151026 0.181592 -0.0975333 -0.0116566 0.204632 -0.0885309 -0.00846197 0.227096 
-0.0791038 -0.00558769 0.248994 -0.0694315 -0.00309525 0.270331 -0.0596671 -0.00103574 0.291106 
-0.0499325 0.000553267 0.31131 -0.0403175 0.00165036 0.330935 -0.0308819 0.00225218 0.349971 
-0.0216605 0.00237439 0.368416 -0.0126687 0.0020513 0.386281 -0.00391084 0.00133421 0.40359 
0.00461379 0.000288348 0.420385 0.0129044 -0.00101137 0.436724 0.020955 -0.00248541 0.452678 
0.0287522 -0.00405524 0.468323 0.0362754 -0.00564881 0.483734 0.0434992 -0.00720546 0.498973 
0.0503969 -0.00867979 0.514082 0.0569445 -0.010044 0.529077 0.063125 -0.0112883 0.543938 
0.0689317 -0.01242 0.558613 0.0743697 -0.0134604 0.573016 0.0794565 -0.0144404 0.587036 
0.0842201 -0.0153953 0.600545 0.0886955 -0.0163595 0.613411 0.092921 -0.0173609 0.625507 
0.0969329 -0.0184172 0.636727 0.100761 -0.0195324 0.646997 0.104424 -0.0206962 0.656274 
0.107931 -0.0218847 0.664561 0.111276 -0.0230628 0.671893 0.114442 -0.0241883 0.678342 
0.117404 -0.0252173 0.684 0.120132 -0.0261092 0.688975 0.122599 -0.0268318 0.693374 
0.12478 -0.0273659 0.697293 0.12666 -0.0277074 0.700809 0.128236 -0.0278688 0.703973 
0.129515 -0.0278775 0.706808 0.130517 -0.0277734 0.70931 0.131268 -0.0276043 0.711455 
0.131799 -0.0274203 0.713204 0.132142 -0.0272684 0.714513 0.132322 -0.0271868 0.715344 
0.132355 -0.0272006 0.71567 
LINES 2 100
OFFSETS vtktypeint64
0 100 
CONNECTIVITY vtktypeint64
0 1 2 3 4 5 6 7 8 
9 10 11 12 13 14 15 16 17 
18 19 20 21 22 23 24 25 26 
27 28 29 30 31 32 33 34 35 
36 37 38 39 40 41 42 43 44 
45 46 47 48 49 50 51 52 53 
54 55 56 57 58 59 60 61 62 
63 64 65 66 67 68 69 70 71 
72 73 74 75 76 77 78 79 80 
81 82 83 84 85 86 87 88 89 
90 91 92 93 94 95 96 97 98 
99 
POINT_DATA 100
FIELD FieldData 3
_theta 1 100 double
0 0.031733259127 0.063466518254 0.095199777382 0.12693303651 0.15866629564 0.19039955476 0.22213281389 0.25386607302 
0.28559933214 0.31733259127 0.3490658504 0.38079910953 0.41253236865 0.44426562778 0.47599888691 0.50773214603 0.53946540516 
0.57119866429 0.60293192342 0.63466518254 0.66639844167 0.6981317008 0.72986495992 0.76159821905 0.79333147818 0.82506473731 
0.85679799643 0.88853125556 0.92026451469 0.95199777382 0.98373103294 1.0154642921 1.0471975512 1.0789308103 1.1106640695 
1.1423973286 1.1741305877 1.2058638468 1.237597106 1.2693303651 1.3010636242 1.3327968833 1.3645301425 1.3962634016 
1.4279966607 1.4597299198 1.491463179 1.5231964381 1.5549296972 1.5866629564 1.6183962155 1.6501294746 1.6818627337 
1.7135959929 1.745329252 1.7770625111 1.8087957702 1.8405290294 1.8722622885 1.9039955476 1.9357288068 1.9674620659 
1.999195325 2.0309285841 2.0626618433 2.0943951024 2.1261283615 2.1578616206 2.1895948798 2.2213281389 2.253061398 
2.2847946572 2.3165279163 2.3482611754 2.3799944345 2.4117276937 2.4434609528 2.4751942119 2.506927471 2.5386607302 
2.5703939893 2.6021272484 2.6338605076 2.6655937667 2.6973270258 2.7290602849 2.7607935441 2.7925268032 2.8242600623 
2.8559933214 2.8877265806 2.9194598397 2.9511930988 2.982926358 3.0146596171 3.0463928762 3.0781261353 3.1098593945 
3.1415926536 
_radius 1 100 double
3.642754084e-16 0.014666496216 0.029244076042 0.043640400222 0.057766311008 0.071536403997 0.084868901185 0.097685525505 0.10991221612 
0.12148114327 0.1323337323 0.14242370169 0.15171885227 0.16020065716 0.16786147419 0.17470015408 0.18071760286 0.18591412915 
0.19028995356 0.1938491547 0.19660598929 0.1985915236 0.19985827539 0.2004811594 0.20055417919 0.2001835458 0.19947877898 
0.19854359655 0.19746805029 0.19632272375 0.19515528595 0.19398957708 0.19282762762 0.19165518971 0.19045101257 0.18919903751 
0.1879012488 0.18658783071 0.18532122388 0.18419183291 0.18330528955 0.1827639971 0.18264854411 0.18300605733 0.18385064618 
0.18517523545 0.18696768627 0.18922213128 0.19193999345 0.19512101405 0.19874918575 0.20278007575 0.2071346957 0.21170201347 
0.21634901421 0.22093516324 0.22532760592 0.22941410243 0.23311188171 0.23637175889 0.2391777146 0.24154264654 0.24350128095 
0.24510139262 0.24639457309 0.24742777131 0.24823665305 0.24884147181 0.24924567066 0.24943694374 0.24939008551 0.24907072651 
0.24843901403 0.24745240344 0.2460669552 0.24423692434 0.24191300008 0.23904014094 0.23555627236 0.23139297455 0.22647870969 
0.22074432906 0.21412986375 0.20659121642 0.19810547217 0.18867405741 0.17832365134 0.16710530039 0.15509237271 0.14237775411 
0.12907019301 0.11528930728 0.1011588148 0.086798113522 0.072313144978 0.057788104233 0.043279701266 0.028815277285 0.014395311653 
1.0179995937e-15 
_area 1 100 double
0 0.00056964024426 0.0022647261115 0.0050482888918 0.0088698473235 0.013671089307 0.019380531541 0.025897749033 0.033074885778 
0.040705306574 0.048526859616 0.0562421745 0.063552421961 0.070195948259 0.075981010588 0.080803479967 0.084645458053 0.087557319741 
0.089630871551 0.090972962368 0.0916872258 0.09186842262 0.091608328844 0.09100353383 0.090153212416 0.089146010611 0.088046736539 
0.086891957877 0.08569616172 0.084465922156 0.083214304972 0.08196883745 0.080771013148 0.079673824096 0.078754241513 0.078116197069 
0.077729980288 0.07762246817 0.077850070416 0.078462696616 0.07948193389 0.080889599294 0.082642822513 0.084694378623 0.087003160565 
0.08954126507 0.092299950504 0.095298583281 0.098596590164 0.10229207016 0.10649540066 0.11128276799 0.11665355952 0.12251534087 
0.12869451219 0.13495793164 0.14103946878 0.14667103439 0.15161491625 0.15569201668 0.15880198607 0.16093419288 0.16217044224 
0.16267852028 0.16268846731 0.16243973283 0.16210754821 0.1617487104 0.16129770263 0.16060893466 0.15952451078 0.15794055265 
0.15584108699 0.15328200444 0.15034162541 0.14707405583 0.14348495187 0.13952886833 0.13512236579 0.13016596627 0.12456768007 
0.1182633313 0.11123161645 0.10350287498 0.095160690656 0.086335798283 0.077193059766 0.0679145146 0.058683524401 0.049674765903 
0.041051239196 0.032964774895 0.025555065263 0.018945254998 0.01323609578 0.0085020695484 0.0047916054333 0.0021313658123 0.00053298184063 
6.3751289921e-17 
