# vtk DataFile Version 5.1
vtk output
ASCII
DATASET POLYDATA
POINTS 100 float
0.10596 0.0492468 -0.622779 0.105648 0.0492895 -0.6224 0.104686 0.049185 -0.6212 
0.103145 0.0489043 -0.619181 0.101137 0.0484024 -0.616348 0.098802 0.0476222 -0.612715 
0.0962939 0.0464989 -0.608304 0.0937641 0.0449652 -0.60315 0.0913465 0.0429579 -0.597301 
0.0891426 0.0404231 -0.590818 0.0872116 0.0373222 -0.583773 0.0855633 0.0336365 -0.576245 
0.0841568 0.029371 -0.568315 0.0829038 0.0245556 -0.560057 0.081677 0.0192461 -0.551533 
0.0803216 0.0135214 -0.542787 0.0786698 0.00748034 -0.533835 0.0765563 0.0012362 -0.524668 
0.0738333 -0.00509004 -0.515246 0.0703834 -0.0113768 -0.505506 0.0661298 -0.0175089 -0.495363 
0.0610416 -0.0233847 -0.484718 0.0551355 -0.0289204 -0.473471 0.0484727 -0.034054 -0.461529 
0.0411512 -0.0387465 -0.448813 0.0332967 -0.0429804 -0.435271 0.0250493 -0.046757 -0.420881 
0.016552 -0.0500913 -0.405653 0.00793805 -0.0530057 -0.389627 -0.000678138 -0.0555242 -0.372871 
-0.00920813 -0.0576661 -0.355472 -0.0175924 -0.0594412 -0.337525 -0.0257998 -0.060847 -0.319127 
-0.033823 -0.0618676 -0.300361 -0.0416714 -0.0624756 -0.281294 -0.0493616 -0.0626356 -0.261964 
-0.0569074 -0.0623093 -0.242383 -0.0643099 -0.0614626 -0.222536 -0.0715487 -0.0600717 -0.202382 
-0.0785765 -0.0581294 -0.181868 -0.0853159 -0.0556497 -0.16093 -0.0916608 -0.0526702 -0.139513 
-0.0974807 -0.0492522 -0.117573 -0.102628 -0.0454779 -0.095091 -0.10695 -0.0414459 -0.0720807 
-0.110296 -0.0372642 -0.048589 -0.112537 -0.0330425 -0.0246992 -0.113568 -0.0288843 -0.000527071 
-0.113323 -0.0248797 0.023785 -0.111782 -0.0210998 0.0480766 -0.108969 -0.0175935 0.0721795 
-0.104955 -0.0143863 0.095928 -0.0998555 -0.0114826 0.11917 -0.0938167 -0.00886942 0.141773 
-0.0870111 -0.00652238 0.163637 -0.0796235 -0.00441216 0.184691 -0.0718388 -0.00251131 0.204898 
-0.063831 -0.000799959 0.224254 -0.0557524 0.000730031 0.242784 -0.0477262 0.00207316 0.260534 
-0.0398417 0.00321071 0.277569 -0.0321527 0.00411355 0.293962 -0.0246791 0.00474677 0.309788 
-0.0174111 0.00507553 0.325123 -0.0103166 0.00507142 0.34003 -0.00334886 0.00471814 0.354567 
0.00354406 0.00401613 0.368775 0.0104108 0.002985 0.382684 0.0172892 0.00166387 0.396311 
0.0241999 0.000109168 0.409661 0.0311436 -0.0016096 0.422728 0.0380992 -0.00341573 0.435499 
0.0450258 -0.00523207 0.447954 0.0518662 -0.00698771 0.460068 0.0585523 -0.00862394 0.471814 
0.065012 -0.0100986 0.483162 0.0711763 -0.0113884 0.494083 0.0769857 -0.0124888 0.504547 
0.0823968 -0.0134121 0.514527 0.0873855 -0.0141833 0.524001 0.0919501 -0.0148346 0.532949 
0.096111 -0.0154001 0.541358 0.0999082 -0.0159104 0.549221 0.103398 -0.0163876 0.556538 
0.106646 -0.0168435 0.563315 0.109721 -0.0172782 0.569565 0.112689 -0.0176811 0.575303 
0.115606 -0.0180345 0.580552 0.11851 -0.0183169 0.585333 0.121419 -0.0185082 0.589668 
0.12433 -0.0185938 0.593577 0.127214 -0.0185687 0.597077 0.130023 -0.0184394 0.600178 
0.132691 -0.0182245 0.602887 0.135141 -0.0179532 0.605206 0.137289 -0.0176625 0.607132 
0.139055 -0.0173926 0.608659 0.140368 -0.017182 0.60978 0.14117 -0.0170629 0.610487 
0.141426 -0.0170569 0.610774 
LINES 2 100
OFFSETS vtktypeint64
0 100 
CONNECTIVITY vtktypeint64
0 1 2 3 4 5 6 7 8 
9 10 11 12 13 14 15 16 17 
18 19 20 21 22 23 24 25 26 
27 28 29 30 31 32 33 34 35 
36 37 38 39 40 41 42 43 44 
45 46 47 48 49 50 51 52 53 
54 55 56 57 58 59 60 61 62 
63 64 65 66 67 68 69 70 71 
72 73 74 75 76 77 78 79 80 
81 82 83 84 85 86 87 88 89 
90 91 92 93 94 95 96 97 98 
99 
POINT_DATA 100
FIELD FieldData 3
_theta 1 100 double
0 0.031733259127 0.063466518254 0.095199777382 0.12693303651 0.15866629564 0.19039955476 0.22213281389 0.25386607302 
0.28559933214 0.31733259127 0.3490658504 0.38079910953 0.41253236865 0.44426562778 0.47599888691 0.50773214603 0.53946540516 
0.57119866429 0.60293192342 0.63466518254 0.66639844167 0.6981317008 0.72986495992 0.76159821905 0.79333147818 0.82506473731 
0.85679799643 0.88853125556 0.92026451469 0.95199777382 0.98373103294 1.0154642921 1.0471975512 1.0789308103 1.1106640695 
1.1423973286 1.1741305877 1.2058638468 1.237597106 1.2693303651 1.3010636242 1.3327968833 1.3645301425 1.3962634016 
1.4279966607 1.4597299198 1.491463179 1.5231964381 1.5549296972 1.5866629564 1.6183962155 1.6501294746 1.6818627337 
1.7135959929 1.745329252 1.7770625111 1.8087957702 1.8405290294 1.8722622885 1.9039955476 1.9357288068 1.9674620659 
1.999195325 2.0309285841 2.0626618433 2.0943951024 2.1261283615 2.1578616206 2.1895948798 2.2213281389 2.253061398 
2.2847946572 2.3165279163 2.3482611754 2.3799944345 2.4117276937 2.4434609528 2.4751942119 2.506927471 2.5386607302 
2.5703939893 2.6021272484 2.6338605076 2.6655937667 2.6973270258 2.7290602849 2.7607935441 2.7925268032 2.8242600623 
2.8559933214 2.8877265806 2.9194598397 2.9511930988 2.982926358 3.0146596171 3.0463928762 3.0781261353 3.1098593945 
3.1415926536 
_radius 1 100 double
1.2432050436e-15 0.014362708664 0.028565748991 0.042459017312 0.0559213585 0.068869915456 0.081264060766 0.093103481495 0.10442087892 
0.11527049316 0.12571412147 0.13580644696 0.14558144507 0.15504153111 0.16415098776 0.17283494437 0.18098460545 0.18846851661 
0.19514859935 0.20089877767 0.20562349611 0.2092733772 0.21185565202 0.21343773955 0.21414334767 0.21414159498 0.2136307259 
0.21281876681 0.21190370352 0.21105536472 0.21040043961 0.21001151294 0.20990107106 0.21002185113 0.21027486813 0.21052540881 
0.21062550229 0.21043965853 0.20986960016 0.20887337787 0.20747458438 0.20575875807 0.20385740111 0.20192520646 0.20011981755 
0.19859133983 0.19748150005 0.19692584064 0.19705126066 0.19796513965 0.19973792348 0.20238520643 0.20585621093 0.21003321643 
0.2147426056 0.2197748003 0.2249085419 0.22993477466 0.23467633709 0.23900113558 0.24282794859 0.24612522527 0.24890414109 
0.25120774467 0.25309821895 0.25464405671 0.25590842605 0.25693943688 0.25776266806 0.25837624603 0.25874883036 0.25882081461 
0.25850873861 0.2577123892 0.25632357111 0.2542352952 0.25135024977 0.24758780405 0.24288924789 0.23722131228 0.23057813855 
0.22298178153 0.21448113904 0.20514903203 0.19507714016 0.18436871023 0.17312941911 0.16145741138 0.14943413629 0.13711786375 
0.12454140908 0.11171465556 0.098631277212 0.085278097795 0.071645078086 0.057734030289 0.043564641587 0.029177025948 0.01463064805 
1.923936201e-16 
_area 1 100 double
0 0.00059669290439 0.0023609880123 0.0052193647423 0.0090610877531 0.013752908578 0.019154834737 0.025134232817 0.031576395264 
0.038390379998 0.045509126576 0.05288292885 0.06046604482 0.068197959742 0.075983187014 0.083675443567 0.09107240311 0.09792528243 
0.10396350406 0.10892998883 0.11261917065 0.11490899617 0.11578014263 0.11531946978 0.11370909529 0.11120636886 0.10812119347 
0.10479347612 0.10156830192 0.098765967774 0.096648513238 0.095503291151 0.095462184315 0.096184514488 0.097402889584 0.098844005317 
0.100250413 0.10141636154 0.10223206149 0.1027188302 0.1030201263 0.10330969803 0.10365762389 0.10404609613 0.10444660851 
0.104864827 0.10538141274 0.10616329284 0.10743625394 0.10944661958 0.11241027301 0.11644409229 0.12152870409 0.12751921512 
0.1341752025 0.14119157545 0.14823085406 0.15495959156 0.16108686134 0.16639929209 0.17078848644 0.1742702982 0.17698282964 
0.17910870966 0.18077598494 0.18206859458 0.18304707093 0.18373834033 0.18412701369 0.18415680504 0.18374016741 0.18277175373 
0.18114150275 0.17874445323 0.17548653777 0.17128802788 0.16608769056 0.15985007051 0.15257602064 0.14431407523 0.13516871929 
0.12530158328 0.11492308469 0.10427455312 0.093603514128 0.083136781339 0.073057056557 0.06348879786 0.05449754791 0.046102894565 
0.038300000114 0.031081949373 0.024456976176 0.018458295195 0.013146530448 0.0086054158917 0.0049319395901 0.0022229089375 0.00056056892557 
4.8238781136e-18 
