# vtk DataFile Version 5.1
vtk output
ASCII
DATASET POLYDATA
POINTS 100 float
0.174562 0.0586 -0.700768 0.174581 0.0585528 -0.700798 0.174643 0.0582357 -0.70087 
0.174707 0.0576599 -0.700899 0.174705 0.0568427 -0.700753 0.174553 0.0558037 -0.700266 
0.174153 0.0545612 -0.699253 0.173402 0.0531285 -0.697526 0.172199 0.0515107 -0.694916 
0.170451 0.0497026 -0.691283 0.168078 0.047688 -0.686527 0.165017 0.0454409 -0.680596 
0.161224 0.0429279 -0.673488 0.156675 0.0401121 -0.66524 0.151364 0.0369581 -0.655929 
0.145303 0.0334366 -0.645651 0.138524 0.0295294 -0.634517 0.131072 0.025233 -0.622634 
0.123008 0.0205608 -0.6101 0.11441 0.0155441 -0.596993 0.105369 0.0102314 -0.583367 
0.0959899 0.00468577 -0.569257 0.0863884 -0.00101866 -0.554677 0.076689 -0.00680056 -0.539626 
0.067019 -0.0125759 -0.524103 0.0575013 -0.0182618 -0.508103 0.048247 -0.0237798 -0.491636 
0.0393458 -0.0290581 -0.474719 0.0308579 -0.0340329 -0.457387 0.0228062 -0.0386484 -0.439684 
0.0151715 -0.0428567 -0.42166 0.00789101 -0.0466171 -0.403366 0.000861782 -0.0498951 -0.384842 
-0.00605217 -0.0526625 -0.366111 -0.0130076 -0.0548974 -0.347169 -0.0201661 -0.0565853 -0.327986 
-0.0276765 -0.0577202 -0.3085 -0.0356554 -0.0583069 -0.288622 -0.0441704 -0.0583619 -0.268244 
-0.053226 -0.0579146 -0.247248 -0.0627546 -0.0570079 -0.225519 -0.0726142 -0.0556963 -0.202957 
-0.0825936 -0.0540438 -0.179492 -0.0924239 -0.0521201 -0.155091 -0.101797 -0.0499958 -0.12977 
-0.110389 -0.0477374 -0.103593 -0.117884 -0.0454019 -0.0766764 -0.124 -0.0430329 -0.0491773 
-0.128512 -0.0406579 -0.0212892 -0.131268 -0.0382873 0.00677194 -0.132202 -0.0359159 0.0347816 
-0.131336 -0.0335264 0.0625204 -0.128771 -0.031095 0.0897871 -0.124682 -0.0285977 0.116409 
-0.119293 -0.0260172 0.142252 -0.112859 -0.0233495 0.167222 -0.105637 -0.0206085 0.191265 
-0.0978725 -0.017829 0.214371 -0.0897727 -0.0150667 0.236559 -0.0814984 -0.0123948 0.257878 
-0.0731559 -0.00989903 0.278396 -0.0647982 -0.00766929 0.29819 -0.0564314 -0.00579119 0.317342 
-0.048027 -0.00433672 0.335929 -0.0395371 -0.00335619 0.354024 -0.0309101 -0.00287222 0.371688 
-0.0221059 -0.0028766 0.388972 -0.0131077 -0.00333052 0.405913 -0.00392934 -0.00416828 0.422542 
0.00538311 -0.00530402 0.438878 0.0147544 -0.00664073 0.454934 0.024088 -0.00808048 0.470713 
0.0332777 -0.00953454 0.486217 0.0422199 -0.0109322 0.501436 0.0508265 -0.0122272 0.516357 
0.0590351 -0.0134007 0.53096 0.0668164 -0.0144608 0.545218 0.0741758 -0.0154387 0.559097 
0.0811523 -0.0163815 0.572558 0.0878115 -0.0173431 0.58556 0.0942358 -0.0183745 0.598056 
0.100513 -0.0195145 0.610003 0.106723 -0.0207821 0.62136 0.112929 -0.0221721 0.632091 
0.119166 -0.0236538 0.642169 0.12544 -0.0251738 0.651572 0.131723 -0.0266617 0.66029 
0.137959 -0.0280394 0.66832 0.144068 -0.0292301 0.675667 0.149957 -0.0301696 0.68234 
0.155528 -0.0308144 0.688351 0.160687 -0.0311486 0.693715 0.165353 -0.0311865 0.698442 
0.169461 -0.0309722 0.702544 0.172964 -0.0305745 0.706025 0.175834 -0.030079 0.70889 
0.17806 -0.0295778 0.711137 0.179638 -0.0291582 0.712763 0.180573 -0.0288922 0.713767 
0.180868 -0.0288269 0.714142 
LINES 2 100
OFFSETS vtktypeint64
0 100 
CONNECTIVITY vtktypeint64
0 1 2 3 4 5 6 7 8 
9 10 11 12 13 14 15 16 17 
18 19 20 21 22 23 24 25 26 
27 28 29 30 31 32 33 34 35 
36 37 38 39 40 41 42 43 44 
45 46 47 48 49 50 51 52 53 
54 55 56 57 58 59 60 61 62 
63 64 65 66 67 68 69 70 71 
72 73 74 75 76 77 78 79 80 
81 82 83 84 85 86 87 88 89 
90 91 92 93 94 95 96 97 98 
99 
POINT_DATA 100
FIELD FieldData 3
_theta 1 100 double
0 0.031733259127 0.063466518254 0.095199777382 0.12693303651 0.15866629564 0.19039955476 0.22213281389 0.25386607302 
0.28559933214 0.31733259127 0.3490658504 0.38079910953 0.41253236865 0.44426562778 0.47599888691 0.50773214603 0.53946540516 
0.57119866429 0.60293192342 0.63466518254 0.66639844167 0.6981317008 0.72986495992 0.76159821905 0.79333147818 0.82506473731 
0.85679799643 0.88853125556 0.92026451469 0.95199777382 0.98373103294 1.0154642921 1.0471975512 1.0789308103 1.1106640695 
1.1423973286 1.1741305877 1.2058638468 1.237597106 1.2693303651 1.3010636242 1.3327968833 1.3645301425 1.3962634016 
1.4279966607 1.4597299198 1.491463179 1.5231964381 1.5549296972 1.5866629564 1.6183962155 1.6501294746 1.6818627337 
1.7135959929 1.745329252 1.7770625111 1.8087957702 1.8405290294 1.8722622885 1.9039955476 1.9357288068 1.9674620659 
1.999195325 2.0309285841 2.0626618433 2.0943951024 2.1261283615 2.1578616206 2.1895948798 2.2213281389 2.253061398 
2.2847946572 2.3165279163 2.3482611754 2.3799944345 2.4117276937 2.4434609528 2.4751942119 2.506927471 2.5386607302 
2.5703939893 2.6021272484 2.6338605076 2.6655937667 2.6973270258 2.7290602849 2.7607935441 2.7925268032 2.8242600623 
2.8559933214 2.8877265806 2.9194598397 2.9511930988 2.982926358 3.0146596171 3.0463928762 3.0781261353 3.1098593945 
3.1415926536 
_radius 1 100 double
1.7954580722e-15 0.015043630035 0.030040136247 0.044936509923 0.059679757808 0.074213946107 0.088475166284 0.10238587817 0.11585056412 
0.12875435662 0.14096548864 0.15234145242 0.16273799156 0.17201967231 0.18007077325 0.18680547698 0.19217668898 0.19618312338 
0.19887449015 0.20035462274 0.20078214524 0.20036781677 0.19936720941 0.19806728025 0.19676613937 0.19574705998 0.19525009746 
0.19544649087 0.19642105157 0.19816560972 0.20058344329 0.2035023316 0.20669341222 0.20989378581 0.21283153251 0.21525171477 
0.21694123571 0.21774982079 0.21760446191 0.2165155117 0.21457400264 0.2119412736 0.20883311996 0.20550105921 0.20221293241 
0.19923428467 0.19681107787 0.19515343769 0.19441968854 0.19470059508 0.19600590593 0.19825789886 0.20129705009 0.20490156115 
0.20881713382 0.21278983509 0.21659491834 0.22005698877 0.22305998387 0.2255478484 0.22751815411 0.22901136876 0.23009827805 
0.23086744708 0.23141377733 0.23182844004 0.23219013217 0.23255793378 0.23296661031 0.23342510154 0.23391795343 0.23440840941 
0.23484159868 0.23514681737 0.23523886977 0.23501926384 0.23437831966 0.23319889298 0.2313617437 0.22875199298 0.22526584004 
0.2208167305 0.21534034306 0.20879797536 0.20117811863 0.19249620336 0.18279265412 0.17212947964 0.16058564409 0.14825148218 
0.13522253784 0.12159347801 0.10745304294 0.092881054845 0.077948058494 0.062717308994 0.047248034098 0.031598633891 0.015828783652 
1.855915858e-15 
_area 1 100 double
0 0.00055244796783 0.0022092886985 0.0049684873267 0.0088230761977 0.013752117362 0.019706621531 0.02659479588 0.03427155981 
0.042535393441 0.051133826062 0.059778108215 0.068166890365 0.076016655813 0.083092674834 0.089229876562 0.094333065507 0.098356394002 
0.10127945529 0.10310180969 0.10385744877 0.10362860503 0.10255032367 0.10082694395 0.098752096489 0.096699512567 0.095079886005 
0.094283487838 0.094599295373 0.096116006239 0.098681813172 0.10192418976 0.10533367622 0.10843573817 0.11091526681 0.11254130622 
0.11317224706 0.11288283975 0.1118933436 0.11057779338 0.10903193485 0.10746438458 0.1059703633 0.10459268256 0.10348070118 
0.10270024505 0.10237374283 0.10262143653 0.10370877265 0.10619156526 0.10931331382 0.11284748301 0.11668153526 0.12073211287 
0.12492499199 0.12918368922 0.13341665548 0.13750780334 0.14131987497 0.14471825956 0.14769228038 0.15039784579 0.15243447799 
0.15367216625 0.15412041094 0.1538913001 0.15316663967 0.15217677599 0.15108518258 0.14994164239 0.14872972797 0.14738172754 
0.14583505028 0.1440439023 0.14196433394 0.13954007237 0.13669706767 0.13334789998 0.12940375311 0.12478977433 0.11945880672 
0.1133991383 0.10663452082 0.099218847626 0.091231065543 0.082774761942 0.073981879327 0.065015549358 0.056066314249 0.047338886746 
0.039031296892 0.031312798407 0.024309137037 0.018101612627 0.012739734558 0.0082600958458 0.0047014856734 0.002109554347 0.00053067335915 
9.7385167314e-17 
