# vtk DataFile Version 5.1
vtk output
ASCII
DATASET POLYDATA
POINTS 100 float
0.199727 0.0502378 -0.714557 0.199561 0.050234 -0.714328 0.199088 0.0500372 -0.713623 
0.198291 0.0496355 -0.712397 0.197141 0.0490098 -0.710583 0.195605 0.0481351 -0.708099 
0.193645 0.0469808 -0.704854 0.191223 0.0455131 -0.700765 0.188308 0.0436964 -0.695756 
0.184875 0.0414965 -0.689774 0.180911 0.0388836 -0.682788 0.176411 0.0358358 -0.674795 
0.171386 0.0323429 -0.665817 0.165855 0.0284089 -0.655895 0.159847 0.024055 -0.645089 
0.153396 0.0193203 -0.633463 0.146541 0.0142623 -0.621085 0.139323 0.00895477 -0.608018 
0.13178 0.00348508 -0.594313 0.123947 -0.00205028 -0.58001 0.115856 -0.00755087 -0.565135 
0.107532 -0.0129179 -0.549703 0.0989922 -0.0180598 -0.53372 0.0902507 -0.0228966 -0.517186 
0.0813138 -0.0273642 -0.500104 0.0721832 -0.0314154 -0.482476 0.0628565 -0.0350209 -0.464311 
0.0533287 -0.0381673 -0.445622 0.0435938 -0.0408545 -0.426427 0.0336477 -0.0430916 -0.406741 
0.0234909 -0.0448927 -0.386581 0.0131323 -0.0462726 -0.365952 0.0025931 -0.0472433 -0.344851 
-0.00808856 -0.0478121 -0.323261 -0.0188538 -0.0479807 -0.301154 -0.0296194 -0.0477464 -0.278493 
-0.0402752 -0.0471043 -0.255235 -0.050684 -0.0460507 -0.231341 -0.0606832 -0.0445876 -0.206784 
-0.0700887 -0.0427259 -0.181555 -0.0787022 -0.0404893 -0.155673 -0.0863203 -0.0379156 -0.12919 
-0.0927461 -0.0350577 -0.102196 -0.0978014 -0.0319816 -0.0748124 -0.10134 -0.0287637 -0.0471945 
-0.103257 -0.0254858 -0.0195195 -0.103504 -0.0222303 0.00802291 -0.102087 -0.0190747 0.0352425 
-0.0990763 -0.0160862 0.0619615 -0.0946001 -0.0133181 0.0880259 -0.0888385 -0.0108076 0.113316 
-0.0820128 -0.00857509 0.13775 -0.0743713 -0.0066256 0.161291 -0.0661727 -0.00495192 0.183942 
-0.0576699 -0.00353853 0.20574 -0.0490939 -0.00236627 0.226753 -0.0406408 -0.00141679 0.247062 
-0.032462 -0.000676118 0.266758 -0.0246598 -0.000137027 0.285925 -0.0172871 0.000200344 0.304636 
-0.010352 0.000329511 0.322946 -0.00382674 0.000240175 0.340887 0.00234115 -7.81906e-05 0.358472 
0.00821559 -0.000632302 0.375694 0.0138594 -0.00142126 0.392538 0.0193229 -0.00243368 0.408979 
0.0246359 -0.00364618 0.424998 0.029803 -0.00502383 0.44058 0.0348029 -0.00652229 0.455725 
0.0395922 -0.0080917 0.470444 0.0441122 -0.00968173 0.484761 0.0482976 -0.0112471 0.498712 
0.0520866 -0.012753 0.512333 0.0554305 -0.0141791 0.52566 0.0583013 -0.0155219 0.53872 
0.0606969 -0.0167955 0.551523 0.0626425 -0.018029 0.564062 0.0641885 -0.0192624 0.576304 
0.0654054 -0.0205406 0.5882 0.0663759 -0.0219062 0.599677 0.0671857 -0.0233929 0.610655 
0.0679137 -0.0250188 0.621042 0.0686243 -0.0267823 0.630751 0.0693606 -0.02866 0.639704 
0.0701416 -0.0306074 0.647838 0.0709617 -0.0325628 0.655113 0.0717947 -0.0344533 0.661512 
0.0725994 -0.0362025 0.667045 0.0733274 -0.0377394 0.671744 0.0739318 -0.0390065 0.675663 
0.0743753 -0.0399673 0.678872 0.0746363 -0.0406102 0.681453 0.0747131 -0.0409512 0.683489 
0.0746245 -0.0410318 0.685065 0.0744079 -0.0409144 0.686262 0.0741141 -0.0406756 0.68715 
0.0738004 -0.0403965 0.687788 0.0735227 -0.0401534 0.688224 0.0733277 -0.0400088 0.688493 
0.0732462 -0.0400036 0.688612 
LINES 2 100
OFFSETS vtktypeint64
0 100 
CONNECTIVITY vtktypeint64
0 1 2 3 4 5 6 7 8 
9 10 11 12 13 14 15 16 17 
18 19 20 21 22 23 24 25 26 
27 28 29 30 31 32 33 34 35 
36 37 38 39 40 41 42 43 44 
45 46 47 48 49 50 51 52 53 
54 55 56 57 58 59 60 61 62 
63 64 65 66 67 68 69 70 71 
72 73 74 75 76 77 78 79 80 
81 82 83 84 85 86 87 88 89 
90 91 92 93 94 95 96 97 98 
99 
POINT_DATA 100
FIELD FieldData 3
_theta 1 100 double
0 0.031733259127 0.063466518254 0.095199777382 0.12693303651 0.15866629564 0.19039955476 0.22213281389 0.25386607302 
0.28559933214 0.31733259127 0.3490658504 0.38079910953 0.41253236865 0.44426562778 0.47599888691 0.50773214603 0.53946540516 
0.57119866429 0.60293192342 0.63466518254 0.66639844167 0.6981317008 0.72986495992 0.76159821905 0.79333147818 0.82506473731 
0.85679799643 0.88853125556 0.92026451469 0.95199777382 0.98373103294 1.0154642921 1.0471975512 1.0789308103 1.1106640695 
1.1423973286 1.1741305877 1.2058638468 1.237597106 1.2693303651 1.3010636242 1.3327968833 1.3645301425 1.3962634016 
1.4279966607 1.4597299198 1.491463179 1.5231964381 1.5549296972 1.5866629564 1.6183962155 1.6501294746 1.6818627337 
1.7135959929 1.745329252 1.7770625111 1.8087957702 1.8405290294 1.8722622885 1.9039955476 1.9357288068 1.9674620659 
1.999195325 2.0309285841 2.0626618433 2.0943951024 2.1261283615 2.1578616206 2.1895948798 2.2213281389 2.253061398 
2.2847946572 2.3165279163 2.3482611754 2.3799944345 2.4117276937 2.4434609528 2.4751942119 2.506927471 2.5386607302 
2.5703939893 2.6021272484 2.6338605076 2.6655937667 2.6973270258 2.7290602849 2.7607935441 2.7925268032 2.8242600623 
2.8559933214 2.8877265806 2.9194598397 2.9511930988 2.982926358 3.0146596171 3.0463928762 3.0781261353 3.1098593945 
3.1415926536 
_radius 1 100 double
3.5821094699e-16 0.015768150005 0.031341565468 0.046535077567 0.061186583442 0.075163558531 0.088365111882 0.10072006802 0.11218235646 
0.12272529825 0.13233622622 0.14101244807 0.1487590439 0.15558849508 0.16152173282 0.16658993165 0.17083630427 0.17431727832 
0.17710269729 0.17927498696 0.1809274491 0.18216188402 0.18308556467 0.18380728055 0.18443197536 0.18505368718 0.18574716254 
0.18655944314 0.18750344535 0.1885556115 0.18965895448 0.1907315331 0.19167915154 0.19241033955 0.19285146387 0.19295983395 
0.19273280441 0.19221148104 0.19147892459 0.19065425339 0.18988477358 0.1893375257 0.18918992912 0.18961801702 0.19078116846 
0.19280408183 0.1957590186 0.19965289722 0.20442343318 0.20994577715 0.2160474181 0.22252695241 0.2291727642 0.23577957564 
0.24216240268 0.24816785976 0.25368234779 0.25863622804 0.26300315765 0.26679436681 0.27004851819 0.27281860284 0.27515788959 
0.27710715782 0.27868527671 0.27988465694 0.2806722343 0.28099556927 0.28079259857 0.28000286186 0.27857787381 0.27648873041 
0.27372983045 0.2703184728 0.26629081885 0.26169516576 0.25658366225 0.25100359598 0.24498929589 0.23855559733 0.2316937334 
0.22437040262 0.21653055098 0.20810402175 0.19901564414 0.18919762112 0.17860241675 0.16721396742 0.15505512422 0.14218979874 
0.12871919494 0.11477254173 0.10049367572 0.086025502447 0.07149469428 0.05699893397 0.04259860363 0.02831412337 0.014129280456 
1.1958327313e-15 
_area 1 100 double
0 0.0006082634034 0.0024133211004 0.0053583237508 0.0093546740517 0.014287239668 0.020017618545 0.026385669136 0.033210491625 
0.040292354652 0.047417225606 0.054365254345 0.060923301088 0.066899714614 0.072138235086 0.076528080674 0.080008814266 0.082570452013 
0.08425044456 0.085129135759 0.085324293684 0.084984350689 0.084280670275 0.083404796633 0.082591244811 0.081968372708 0.081591870624 
0.081505653768 0.081709350978 0.082195331994 0.082927158044 0.083781106571 0.084705640744 0.085676770605 0.086681725682 0.087700810086 
0.088708291387 0.089672142368 0.090555412463 0.091331822308 0.092004562952 0.0926199763 0.093277202558 0.094133872695 0.095403575364 
0.097337678059 0.1001874495 0.10414263378 0.10925753006 0.11546165732 0.12262517136 0.13058039156 0.13911839829 0.14798777784 
0.1569049491 0.16557607477 0.17372492177 0.18111977906 0.187594056 0.1930577545 0.19750063029 0.20099167989 0.20367898333 
0.20577526788 0.20747413482 0.20881183026 0.20965686578 0.20981763285 0.20912265822 0.20745245132 0.20475102651 0.20103220196 
0.19637451742 0.19090023451 0.1847440159 0.17802496976 0.17083420469 0.16323876516 0.15529299151 0.1470475319 0.13855088539 
0.12984327947 0.12094655767 0.11185680433 0.10254758045 0.092988285534 0.083173979784 0.073155230279 0.06305535615 0.053067961368 
0.043435293304 0.034414014827 0.026238058657 0.019088202073 0.013075315026 0.0082399084474 0.0045660472535 0.0020042906215 0.00049698539389 
1.3434882814e-17 
