# vtk DataFile Version 5.1
vtk output
ASCII
DATASET POLYDATA
POINTS 100 float
0.175758 0.0248229 -0.656922 0.175377 0.0248184 -0.656967 0.174339 0.0246558 -0.657151 
0.172724 0.024354 -0.657399 0.170656 0.0239403 -0.657589 0.168281 0.0234445 -0.657564 
0.165749 0.0228925 -0.657145 0.163188 0.0223001 -0.656143 0.160688 0.0216681 -0.654374 
0.158285 0.0209793 -0.651669 0.155957 0.0201985 -0.64789 0.15362 0.0192759 -0.642933 
0.151139 0.018152 -0.636734 0.148347 0.0167655 -0.629271 0.14506 0.015062 -0.620558 
0.141103 0.0130015 -0.610643 0.13633 0.010566 -0.599601 0.130642 0.00776309 -0.587524 
0.123998 0.00462755 -0.574515 0.116417 0.00121907 -0.560676 0.107975 -0.00238302 -0.546109 
0.0987922 -0.00608739 -0.530902 0.0890178 -0.00979975 -0.515131 0.0788074 -0.013432 -0.498857 
0.0683046 -0.01691 -0.482122 0.0576238 -0.0201795 -0.464954 0.0468384 -0.0232085 -0.447363 
0.0359769 -0.0259865 -0.429343 0.0250262 -0.0285205 -0.410877 0.0139427 -0.0308284 -0.391934 
0.00266924 -0.0329313 -0.372473 -0.00884432 -0.0348447 -0.352448 -0.0206199 -0.036572 -0.331808 
-0.0326325 -0.0380996 -0.310503 -0.0447966 -0.0393952 -0.288486 -0.0569602 -0.0404103 -0.265724 
-0.0689071 -0.0410854 -0.242198 -0.0803684 -0.0413583 -0.217911 -0.0910413 -0.0411739 -0.19289 
-0.100613 -0.0404946 -0.167193 -0.108791 -0.0393088 -0.140907 -0.115323 -0.0376369 -0.114146 
-0.12003 -0.0355338 -0.0870497 -0.122814 -0.0330871 -0.0597768 -0.123674 -0.0304105 -0.0324957 
-0.1227 -0.0276344 -0.00537599 -0.120067 -0.024893 0.0214207 -0.116015 -0.0223119 0.0477504 
-0.11083 -0.0199948 0.073494 -0.104811 -0.0180139 0.0985623 -0.0982491 -0.0164032 0.122899 
-0.0914043 -0.0151568 0.146478 -0.0844848 -0.0142321 0.169303 -0.0776381 -0.013557 0.191398 
-0.0709472 -0.0130413 0.2128 -0.0644349 -0.0125892 0.233552 -0.0580741 -0.0121132 0.253693 
-0.0518026 -0.0115453 0.273253 -0.0455402 -0.0108459 0.292247 -0.0392052 -0.0100084 0.310675 
-0.0327294 -0.00905901 0.328523 -0.0260681 -0.00805148 0.345766 -0.0192067 -0.00705868 0.362379 
-0.0121606 -0.00616098 0.378338 -0.00497247 -0.0054339 0.393634 0.00229557 -0.00493658 0.408276 
0.00957043 -0.00470266 0.422294 0.0167775 -0.00473494 0.435746 0.0238485 -0.00500464 0.448711 
0.0307273 -0.00545518 0.461286 0.0373723 -0.0060102 0.473577 0.043756 -0.00658434 0.485691 
0.0498624 -0.00709559 0.497725 0.0556811 -0.00747712 0.509755 0.0612029 -0.00768702 0.521825 
0.0664144 -0.00771455 0.533947 0.071295 -0.00758188 0.546094 0.0758161 -0.00734102 0.558204 
0.0799433 -0.00706647 0.570182 0.0836402 -0.0068444 0.581914 0.0868751 -0.00676001 0.59327 
0.0896271 -0.00688482 0.60412 0.0918932 -0.00726566 0.614346 0.0936918 -0.00791694 0.623847 
0.0950656 -0.00881748 0.632551 0.0960797 -0.00991212 0.640414 0.096817 -0.0111183 0.647427 
0.0973711 -0.0123363 0.653608 0.0978364 -0.0134624 0.659 0.0982983 -0.0144023 0.663664 
0.0988236 -0.0150836 0.66767 0.0994535 -0.0154658 0.671091 0.100199 -0.0155452 0.673992 
0.10104 -0.0153555 0.676434 0.101932 -0.0149628 0.678461 0.102809 -0.014457 0.680108 
0.103594 -0.0139387 0.681394 0.104214 -0.0135057 0.682332 0.104607 -0.0132396 0.682926 
0.104731 -0.0131941 0.683176 
LINES 2 100
OFFSETS vtktypeint64
0 100 
CONNECTIVITY vtktypeint64
0 1 2 3 4 5 6 7 8 
9 10 11 12 13 14 15 16 17 
18 19 20 21 22 23 24 25 26 
27 28 29 30 31 32 33 34 35 
36 37 38 39 40 41 42 43 44 
45 46 47 48 49 50 51 52 53 
54 55 56 57 58 59 60 61 62 
63 64 65 66 67 68 69 70 71 
72 73 74 75 76 77 78 79 80 
81 82 83 84 85 86 87 88 89 
90 91 92 93 94 95 96 97 98 
99 
POINT_DATA 100
FIELD FieldData 3
_theta 1 100 double
0 0.031733259127 0.063466518254 0.095199777382 0.12693303651 0.15866629564 0.19039955476 0.22213281389 0.25386607302 
0.28559933214 0.31733259127 0.3490658504 0.38079910953 0.41253236865 0.44426562778 0.47599888691 0.50773214603 0.53946540516 
0.57119866429 0.60293192342 0.63466518254 0.66639844167 0.6981317008 0.72986495992 0.76159821905 0.79333147818 0.82506473731 
0.85679799643 0.88853125556 0.92026451469 0.95199777382 0.98373103294 1.0154642921 1.0471975512 1.0789308103 1.1106640695 
1.1423973286 1.1741305877 1.2058638468 1.237597106 1.2693303651 1.3010636242 1.3327968833 1.3645301425 1.3962634016 
1.4279966607 1.4597299198 1.491463179 1.5231964381 1.5549296972 1.5866629564 1.6183962155 1.6501294746 1.6818627337 
1.7135959929 1.745329252 1.7770625111 1.8087957702 1.8405290294 1.8722622885 1.9039955476 1.9357288068 1.9674620659 
1.999195325 2.0309285841 2.0626618433 2.0943951024 2.1261283615 2.1578616206 2.1895948798 2.2213281389 2.253061398 
2.2847946572 2.3165279163 2.3482611754 2.3799944345 2.4117276937 2.4434609528 2.4751942119 2.506927471 2.5386607302 
2.5703939893 2.6021272484 2.6338605076 2.6655937667 2.6973270258 2.7290602849 2.7607935441 2.7925268032 2.8242600623 
2.8559933214 2.8877265806 2.9194598397 2.9511930988 2.982926358 3.0146596171 3.0463928762 3.0781261353 3.1098593945 
3.1415926536 
_radius 1 100 double
5.7971956608e-16 0.015430374433 0.03084503177 0.046217209301 0.061504529933 0.076643642002 0.091547249772 0.10610385768 0.12018048389 
0.13362842209 0.14629176306 0.15801792996 0.16866910875 0.17813328955 0.18633370517 0.19323571187 0.19885051597 0.20323551726 
0.20649134017 0.20875581694 0.21019527884 0.21099355424 0.21133914645 0.21141125207 0.21136561911 0.21132168851 0.21135286035 
0.2114818367 0.21168257082 0.2118892794 0.21201142351 0.21195206621 0.21162627477 0.21097668461 0.20998474141 0.20867755847 
0.2071307504 0.20546690519 0.20384863504 0.2024657005 0.20151764592 0.20119535384 0.20166511274 0.20305670753 0.20545446387 
0.2088895778 0.2133338296 0.21869683962 0.22482931227 0.23153318098 0.238577626 0.24571872689 0.25272014921 0.25937235366 
0.2655080918 0.27101241532 0.27582614904 0.27994271903 0.28339920158 0.28626322096 0.28861770758 0.2905455294 0.29211577064 
0.29337311703 0.2943314746 0.2949725263 0.29524932178 0.29509422782 0.29442983534 0.2931809603 0.29128580529 0.28870460992 
0.28542457882 0.2814604453 0.27685067516 0.27165000278 0.26591961924 0.25971674672 0.2530854002 0.24604982071 0.23861146045 
0.23074969718 0.22242585025 0.21358967447 0.20418731723 0.19416966245 0.18349999252 0.17215998613 0.16015329032 0.14750628005 
0.13426608242 0.12049637124 0.10627172242 0.091671424329 0.076773592124 0.061650297861 0.0463642513 0.030967367439 0.015501330504 
7.0620031429e-16 
_area 1 100 double
0 0.00052571981679 0.0021403602753 0.0049344088726 0.0090014099315 0.014387833809 0.021058120628 0.028878333841 0.037617952437 
0.046968203546 0.056573446961 0.066069285154 0.075118769217 0.083438197496 0.090807769868 0.097069076951 0.10211768488 0.10590027894 
0.10842038285 0.10974877376 0.11003052563 0.10948218494 0.10837688842 0.1070173243 0.10569448903 0.10463928568 0.10400150082 
0.10386213204 0.1042326948 0.10503578547 0.10610628388 0.1072335624 0.10822283987 0.10894306621 0.10934781759 0.10947476819 
0.10943471602 0.10939429258 0.10954914374 0.11008795301 0.11115852245 0.11285156771 0.11521089357 0.11826346352 0.12204974979 
0.12663665448 0.13210680875 0.13852938422 0.1459250249 0.15423802181 0.16332371172 0.1729535438 0.18283575707 0.1926449629 
0.20205164068 0.21074677197 0.21846495698 0.22501088866 0.23028546379 0.23430107264 0.237179083 0.23913049586 0.24042733314 
0.24136238144 0.24211582581 0.24258947385 0.24252429881 0.2416463061 0.2397221032 0.23659403249 0.23220439748 0.22660394822 
0.21994137062 0.21243462608 0.20432805345 0.19584270572 0.18713305691 0.17826557952 0.16922680872 0.15995439635 0.15037612525 
0.14044353804 0.13015316246 0.11955361252 0.10874004016 0.097839430296 0.086991635075 0.076331723537 0.065978696657 0.056033403229 
0.046584857067 0.037720679693 0.02953604753 0.022136937429 0.015636542826 0.010146756838 0.0057682806811 0.0025827335351 0.00064850436517 
1.801125606e-17 
