# vtk DataFile Version 5.1
vtk output
ASCII
DATASET POLYDATA
POINTS 100 float
0.205876 0.0565089 -0.600426 0.20575 0.0564806 -0.600444 0.205413 0.056223 -0.600448 
0.204859 0.0557312 -0.600379 0.204076 0.0549965 -0.600144 0.203044 0.0540056 -0.599628 
0.201734 0.0527402 -0.598708 0.200108 0.0511764 -0.597259 0.198117 0.0492856 -0.595173 
0.195701 0.047036 -0.592364 0.192793 0.044395 -0.588773 0.189318 0.0413323 -0.584377 
0.185201 0.037824 -0.579179 0.180369 0.0338566 -0.573209 0.174759 0.0294306 -0.566512 
0.168322 0.0245635 -0.559143 0.161031 0.0192914 -0.551151 0.152881 0.0136691 -0.542576 
0.143896 0.0077682 -0.53344 0.134129 0.00167405 -0.523741 0.123657 -0.00451921 -0.513457 
0.112581 -0.0107142 -0.502549 0.101019 -0.0168162 -0.490961 0.0890994 -0.0227385 -0.478637 
0.0769506 -0.0284074 -0.465523 0.0646953 -0.0337641 -0.451574 0.0524422 -0.0387667 -0.436769 
0.0402799 -0.0433888 -0.421104 0.0282738 -0.0476162 -0.404601 0.0164655 -0.0514436 -0.387302 
0.00487433 -0.0548687 -0.369268 -0.00649731 -0.0578878 -0.350565 -0.017657 -0.0604909 -0.331265 
-0.0286137 -0.0626592 -0.311431 -0.0393683 -0.0643635 -0.291115 -0.0499057 -0.0655655 -0.270352 
-0.0601868 -0.0662209 -0.249161 -0.0701447 -0.0662839 -0.227544 -0.0796834 -0.0657139 -0.205494 
-0.0886795 -0.0644816 -0.182998 -0.0969889 -0.0625752 -0.160051 -0.104455 -0.0600055 -0.13666 
-0.110921 -0.056809 -0.112852 -0.116242 -0.0530483 -0.0886832 -0.120295 -0.0488107 -0.0642377 
-0.122996 -0.0442032 -0.0396276 -0.124301 -0.0393471 -0.0149884 -0.124218 -0.0343694 0.009528 
-0.122802 -0.029395 0.0337639 -0.120154 -0.024539 0.0575664 -0.116415 -0.0198993 0.0807988 
-0.111751 -0.0155525 0.10335 -0.106344 -0.0115508 0.125142 -0.100375 -0.00792228 0.146135 
-0.0940129 -0.00467304 0.166326 -0.0874026 -0.0017914 0.185748 -0.0806567 0.000746519 0.204461 
-0.0738518 0.00297071 0.222548 -0.0670288 0.0049114 0.2401 -0.0601971 0.00659411 0.25721 
-0.0533428 0.00803614 0.273962 -0.0464386 0.0092449 0.290425 -0.0394555 0.010218 0.306647 
-0.0323741 0.0109454 0.322653 -0.0251935 0.0114118 0.338448 -0.0179387 0.0116013 0.354022 
-0.0106623 0.0115011 0.369352 -0.00344462 0.0111046 0.384409 0.00361239 0.0104144 0.399168 
0.0103928 0.00944353 0.413608 0.0167777 0.00821493 0.427721 0.0226561 0.00676043 0.441508 
0.0279366 0.00511811 0.454982 0.0325563 0.00332924 0.468163 0.036487 0.00143509 0.481073 
0.0397379 -0.00052592 0.49373 0.0423543 -0.00252032 0.50614 0.0444126 -0.00452073 0.518296 
0.0460115 -0.00650586 0.530167 0.047262 -0.00845961 0.541701 0.0482757 -0.0103693 0.552824 
0.0491542 -0.0122239 0.563441 0.04998 -0.0140114 0.573445 0.0508101 -0.0157182 0.582723 
0.0516727 -0.0173274 0.591166 0.0525687 -0.0188198 0.598674 0.053475 -0.0201744 0.605174 
0.0543516 -0.0213711 0.610619 0.0551506 -0.0223926 0.614997 0.0558243 -0.0232276 0.618338 
0.0563346 -0.0238727 0.620708 0.056659 -0.0243347 0.622211 0.0567946 -0.0246305 0.62298 
0.0567592 -0.0247866 0.623172 0.0565893 -0.0248375 0.622953 0.0563344 -0.0248221 0.622495 
0.0560507 -0.0247801 0.621956 0.0557932 -0.024748 0.621473 0.0556077 -0.0247551 0.621153 
0.0555245 -0.0248201 0.621063 
LINES 2 100
OFFSETS vtktypeint64
0 100 
CONNECTIVITY vtktypeint64
0 1 2 3 4 5 6 7 8 
9 10 11 12 13 14 15 16 17 
18 19 20 21 22 23 24 25 26 
27 28 29 30 31 32 33 34 35 
36 37 38 39 40 41 42 43 44 
45 46 47 48 49 50 51 52 53 
54 55 56 57 58 59 60 61 62 
63 64 65 66 67 68 69 70 71 
72 73 74 75 76 77 78 79 80 
81 82 83 84 85 86 87 88 89 
90 91 92 93 94 95 96 97 98 
99 
POINT_DATA 100
FIELD FieldData 3
_theta 1 100 double
0 0.031733259127 0.063466518254 0.095199777382 0.12693303651 0.15866629564 0.19039955476 0.22213281389 0.25386607302 
0.28559933214 0.31733259127 0.3490658504 0.38079910953 0.41253236865 0.44426562778 0.47599888691 0.50773214603 0.53946540516 
0.57119866429 0.60293192342 0.63466518254 0.66639844167 0.6981317008 0.72986495992 0.76159821905 0.79333147818 0.82506473731 
0.85679799643 0.88853125556 0.92026451469 0.95199777382 0.98373103294 1.0154642921 1.0471975512 1.0789308103 1.1106640695 
1.1423973286 1.1741305877 1.2058638468 1.237597106 1.2693303651 1.3010636242 1.3327968833 1.3645301425 1.3962634016 
1.4279966607 1.4597299198 1.491463179 1.5231964381 1.5549296972 1.5866629564 1.6183962155 1.6501294746 1.6818627337 
1.7135959929 1.745329252 1.7770625111 1.8087957702 1.8405290294 1.8722622885 1.9039955476 1.9357288068 1.9674620659 
1.999195325 2.0309285841 2.0626618433 2.0943951024 2.1261283615 2.1578616206 2.1895948798 2.2213281389 2.253061398 
2.2847946572 2.3165279163 2.3482611754 2.3799944345 2.4117276937 2.4434609528 2.4751942119 2.506927471 2.5386607302 
2.5703939893 2.6021272484 2.6338605076 2.6655937667 2.6973270258 2.7290602849 2.7607935441 2.7925268032 2.8242600623 
2.8559933214 2.8877265806 2.9194598397 2.9511930988 2.982926358 3.0146596171 3.0463928762 3.0781261353 3.1098593945 
3.1415926536 
_radius 1 100 double
9.263878147e-16 0.016779959488 0.033426980575 0.049815687662 0.065837792503 0.081405211887 0.096448627121 0.11091232457 0.12474697932 
0.13790227833 0.15032102328 0.16193582651 0.17266891628 0.18243502838 0.19114694682 0.19872299203 0.20509562768 0.21022032331 
0.21408381784 0.21671093745 0.21816911946 0.21856980693 0.21806598015 0.21684537358 0.21511944048 0.21310881206 0.21102667598 
0.20906196994 0.20736443457 0.20603341462 0.20511193976 0.20458712993 0.2043973382 0.20444559972 0.20461790902 0.20480378511 
0.20491583785 0.20490496163 0.20476853941 0.20455056827 0.20433457428 0.20423200993 0.20436978368 0.20487996006 0.20589242996 
0.20752860493 0.20989278646 0.21305900671 0.21705440718 0.22184376386 0.22732138231 0.23331505473 0.23960275853 0.24593847827 
0.25208108024 0.2578202218 0.26299505951 0.26750384457 0.27130453661 0.27440797878 0.27686590297 0.27875617038 0.28016738196 
0.2811845326 0.28187691919 0.28228914977 0.28243585437 0.28230051048 0.28183857345 0.28098474637 0.27966366704 0.277802558 
0.27534366561 0.27225394926 0.26852978339 0.26419544662 0.25929560532 0.25388339855 0.24800670937 0.24169555417 0.2349532123 
0.2277528737 0.22004042973 0.21174284551 0.20278056283 0.19308172745 0.18259576464 0.17130395801 0.15922522482 0.14641617027 
0.13296558588 0.11898457771 0.10459422406 0.089912934982 0.07504552893 0.060075549011 0.045061626287 0.03003789511 0.015017768515 
5.4027604268e-16 
_area 1 100 double
0 0.00062355935074 0.0024867022052 0.0055676899662 0.0098314212362 0.015226968636 0.021680575067 0.029086103141 0.037296415088 
0.046118552727 0.055314303948 0.064606747936 0.073692671074 0.08226009435 0.090009531559 0.096677082209 0.10205698353 0.10602070238 
0.10852925896 0.10963583511 0.10947737034 0.10825673007 0.10622029482 0.10363829407 0.10079607931 0.097973705133 0.095347963938 
0.093021364982 0.091066094707 0.089602140496 0.088713292519 0.088426992698 0.088714331969 0.089493231982 0.090646608238 0.092053972328 
0.093604449475 0.095209535676 0.096867436247 0.098688163552 0.1007922096 0.1031708334 0.10568131103 0.10819626161 0.11069785282 
0.11328868237 0.11620035896 0.11978358089 0.12429475534 0.12981354716 0.13638247455 0.14393839486 0.15227627369 0.16107182442 
0.16993073005 0.17844408081 0.18623959759 0.19302233206 0.19860130793 0.20290080766 0.20595644801 0.20789781337 0.20892087876 
0.20925367408 0.20911815152 0.20869160964 0.20807346104 0.20726655037 0.20618146867 0.20466401782 0.20253691145 0.19964498033 
0.19589553105 0.1912845127 0.18589758176 0.17988284092 0.17340617443 0.16660762133 0.15957303907 0.15232546995 0.14483286837 
0.13702592292 0.12882025453 0.12013921035 0.11093525044 0.10120840423 0.091019380467 0.080494190382 0.0698182637 0.059220724077 
0.048952018542 0.039259344072 0.030364366269 0.022447022542 0.015637890854 0.010019651695 0.0056358748874 0.0025035743181 0.00062558927121 
4.0359320811e-17 
