# vtk DataFile Version 5.1
vtk output
ASCII
DATASET POLYDATA
POINTS 100 float
0.162214 0.100284 -0.672565 0.162246 0.100261 -0.672482 0.162298 0.0999665 -0.672145 
0.162339 0.0993644 -0.671495 0.162313 0.0983995 -0.670442 0.162153 0.0970069 -0.668881 
0.16178 0.0951208 -0.666701 0.161111 0.0926839 -0.663801 0.160063 0.0896558 -0.660104 
0.15856 0.0860193 -0.655567 0.15653 0.081783 -0.650182 0.153913 0.0769819 -0.643983 
0.150655 0.0716729 -0.637033 0.146712 0.0659291 -0.62942 0.142047 0.0598312 -0.621241 
0.13663 0.0534593 -0.612587 0.130438 0.0468847 -0.60353 0.12346 0.0401643 -0.594109 
0.115693 0.0333371 -0.584325 0.107153 0.0264249 -0.574137 0.0978764 0.0194356 -0.563463 
0.087923 0.0123698 -0.552191 0.0773804 0.00522887 -0.540189 0.0663631 -0.00197573 -0.527322 
0.0550106 -0.00921466 -0.513464 0.0434818 -0.0164344 -0.49852 0.0319465 -0.0235541 -0.482429 
0.0205739 -0.0304667 -0.465181 0.00952123 -0.0370431 -0.44681 -0.00107897 -0.0431409 -0.427397 
-0.0111294 -0.0486149 -0.407059 -0.0205752 -0.0533295 -0.385936 -0.0294077 -0.057171 -0.364178 
-0.0376618 -0.0600583 -0.341927 -0.0454091 -0.0619505 -0.319307 -0.0527459 -0.0628511 -0.296411 
-0.0597771 -0.0628071 -0.273294 -0.066599 -0.0619046 -0.249975 -0.0732813 -0.0602603 -0.226436 
-0.0798523 -0.0580101 -0.202638 -0.0862876 -0.0552967 -0.178523 -0.0925057 -0.0522573 -0.154038 
-0.0983697 -0.0490132 -0.129142 -0.103696 -0.0456616 -0.103818 -0.108272 -0.0422719 -0.0780864 
-0.111871 -0.0388851 -0.0520032 -0.114283 -0.035518 -0.0256647 -0.115329 -0.0321693 0.000799549 
-0.114888 -0.0288286 0.0272354 -0.112907 -0.0254856 0.0534754 -0.109412 -0.0221386 0.079352 
-0.104509 -0.0188014 0.10471 -0.0983703 -0.0155072 0.129418 -0.0912268 -0.0123093 0.153376 
-0.0833408 -0.00927785 0.176522 -0.0749845 -0.00649493 0.19883 -0.0664147 -0.00404624 0.220311 
-0.0578507 -0.00201251 0.241004 -0.0494572 -0.000460901 0.260967 -0.0413335 0.00056231 0.280275 
-0.0335117 0.00103674 0.299001 -0.025962 0.000970059 0.317219 -0.0186056 0.000397117 0.334991 
-0.0113328 -0.00062383 0.352366 -0.00402447 -0.00201713 0.369384 0.00342677 -0.00369719 0.38607 
0.0110972 -0.00557634 0.402444 0.0190176 -0.00757214 0.418519 0.0271654 -0.00961322 0.434311 
0.0354637 -0.0116431 0.449836 0.0437879 -0.0136218 0.465116 0.0519782 -0.0155248 0.480173 
0.0598564 -0.0173407 0.495033 0.0672454 -0.0190672 0.509715 0.0739881 -0.0207069 0.524234 
0.0799637 -0.0222629 0.538587 0.0850999 -0.0237362 0.552755 0.0893786 -0.0251238 0.566697 
0.0928364 -0.0264184 0.580348 0.0955576 -0.0276105 0.593623 0.0976639 -0.0286908 0.606415 
0.0992991 -0.0296528 0.618608 0.100614 -0.0304967 0.630076 0.10175 -0.0312311 0.6407 
0.102829 -0.0318743 0.650371 0.103938 -0.0324534 0.659002 0.105134 -0.0330019 0.666533 
0.106435 -0.0335562 0.672938 0.107829 -0.0341507 0.678226 0.109281 -0.0348128 0.682442 
0.11074 -0.0355584 0.685667 0.112151 -0.0363888 0.688009 0.113463 -0.0372887 0.689599 
0.114633 -0.0382273 0.690581 0.11563 -0.0391608 0.691105 0.116441 -0.0400369 0.691317 
0.117058 -0.0408008 0.691349 0.117487 -0.0414015 0.691312 0.117733 -0.0417982 0.69129 
0.117803 -0.0419651 0.691335 
LINES 2 100
OFFSETS vtktypeint64
0 100 
CONNECTIVITY vtktypeint64
0 1 2 3 4 5 6 7 8 
9 10 11 12 13 14 15 16 17 
18 19 20 21 22 23 24 25 26 
27 28 29 30 31 32 33 34 35 
36 37 38 39 40 41 42 43 44 
45 46 47 48 49 50 51 52 53 
54 55 56 57 58 59 60 61 62 
63 64 65 66 67 68 69 70 71 
72 73 74 75 76 77 78 79 80 
81 82 83 84 85 86 87 88 89 
90 91 92 93 94 95 96 97 98 
99 
POINT_DATA 100
FIELD FieldData 3
_theta 1 100 double
0 0.031733259127 0.063466518254 0.095199777382 0.12693303651 0.15866629564 0.19039955476 0.22213281389 0.25386607302 
0.28559933214 0.31733259127 0.3490658504 0.38079910953 0.41253236865 0.44426562778 0.47599888691 0.50773214603 0.53946540516 
0.57119866429 0.60293192342 0.63466518254 0.66639844167 0.6981317008 0.72986495992 0.76159821905 0.79333147818 0.82506473731 
0.85679799643 0.88853125556 0.92026451469 0.95199777382 0.98373103294 1.0154642921 1.0471975512 1.0789308103 1.1106640695 
1.1423973286 1.1741305877 1.2058638468 1.237597106 1.2693303651 1.3010636242 1.3327968833 1.3645301425 1.3962634016 
1.4279966607 1.4597299198 1.491463179 1.5231964381 1.5549296972 1.5866629564 1.6183962155 1.6501294746 1.6818627337 
1.7135959929 1.745329252 1.7770625111 1.8087957702 1.8405290294 1.8722622885 1.9039955476 1.9357288068 1.9674620659 
1.999195325 2.0309285841 2.0626618433 2.0943951024 2.1261283615 2.1578616206 2.1895948798 2.2213281389 2.253061398 
2.2847946572 2.3165279163 2.3482611754 2.3799944345 2.4117276937 2.4434609528 2.4751942119 2.506927471 2.5386607302 
2.5703939893 2.6021272484 2.6338605076 2.6655937667 2.6973270258 2.7290602849 2.7607935441 2.7925268032 2.8242600623 
2.8559933214 2.8877265806 2.9194598397 2.9511930988 2.982926358 3.0146596171 3.0463928762 3.0781261353 3.1098593945 
3.1415926536 
_radius 1 100 double
9.9068355173e-16 0.015425183905 0.030737107008 0.045823969008 0.060586181854 0.074939690825 0.088816422057 0.10216186123 0.11493032943 
0.12707895108 0.13856153445 0.14932360916 0.15929973467 0.16841393677 0.17658371648 0.18372746967 0.18977442709 0.19467557786 
0.19841371505 0.20101085665 0.20253180272 0.2030833244 0.20280923245 0.20188213948 0.20049297629 0.1988392414 0.19711270154 
0.195487061 0.19410617613 0.19307371921 0.19244558179 0.19222645233 0.1923717166 0.19279513634 0.19338183209 0.19400513246 
0.19454506662 0.19490585417 0.19502975669 0.19490505936 0.19456675989 0.19408988852 0.19357724781 0.1931451183 0.19291099605 
0.19298600942 0.1934719027 0.19445997885 0.19602863024 0.1982373941 0.20111794831 0.2046646596 0.20882807133 0.2135138111 
0.21858750269 0.22388452392 0.2292226286 0.23441551674 0.2392858664 0.24367671241 0.24746031684 0.25054396762 0.25287254118 
0.25442808533 0.25522696658 0.25531519791 0.254762465 0.2536552288 0.25208922133 0.25016171153 0.24796404309 0.24557502008 
0.24305563327 0.24044536604 0.23775999497 0.23499057638 0.2321033173 0.2290402706 0.22572113837 0.2220467108 0.21790442805 
0.21317617511 0.20774781231 0.20151932238 0.1944140383 0.18638535374 0.17741966554 0.16753500072 0.15677567848 0.14520422788 
0.13289240093 0.11991330249 0.10633630441 0.092225563524 0.077641866613 0.062646571538 0.047305949246 0.03169436437 0.015895303903 
9.0348050778e-16 
_area 1 100 double
0 0.00066791948959 0.0026384650485 0.0058169337875 0.01006109246 0.015201747946 0.02106611901 0.027498683467 0.034372858873 
0.041588014848 0.049052300484 0.056659543445 0.064270849501 0.071707485646 0.078756618631 0.085188355225 0.090780495368 0.095346021894 
0.098757933327 0.10096627718 0.10200319974 0.10197468791 0.10104191578 0.099398085522 0.097247208792 0.094790313988 0.092223302501 
0.089752582811 0.087668628345 0.086213570562 0.085463831054 0.085223940394 0.085463305432 0.086112713387 0.087084803544 0.088294611323 
0.089668554764 0.091140221099 0.09264442865 0.094149456365 0.095706500278 0.097415824905 0.099269732949 0.10113678853 0.10292736855 
0.10462943138 0.10627678015 0.10797359962 0.10988963775 0.11224390582 0.11525388884 0.11908762919 0.12382765926 0.1294465483 
0.13580121219 0.14265206343 0.14969813862 0.15661307987 0.16307565206 0.16879652039 0.17354241103 0.17715464913 0.17955715742 
0.1807508733 0.1807965101 0.1797930386 0.17786099831 0.17513548513 0.17176649402 0.16792000592 0.16377361805 0.15950292616 
0.1552582233 0.15113744483 0.14716811712 0.14330861253 0.13946570612 0.13551654418 0.13132800218 0.12677354917 0.12174683606 
0.11616923864 0.10999184419 0.10319608607 0.09579672865 0.087846947917 0.079441611886 0.070714814886 0.061830954801 0.052971863083 
0.044323244272 0.036062811996 0.028352099364 0.021333627638 0.015133274004 0.009864926573 0.0056332829871 0.0025320243392 0.00063743606043 
9.0633518099e-17 
