# vtk DataFile Version 5.1
vtk output
ASCII
DATASET POLYDATA
POINTS 100 float
0.161856 0.082018 -0.715047 0.161954 0.0819138 -0.715121 0.162267 0.0814073 -0.715317 
0.162757 0.0805153 -0.715522 0.163361 0.0792635 -0.715559 0.163996 0.0776818 -0.715213 
0.164562 0.0757994 -0.714249 0.164948 0.0736388 -0.712445 0.165036 0.0712113 -0.70961 
0.164708 0.0685142 -0.705608 0.163851 0.0655297 -0.70037 0.162365 0.0622259 -0.693892 
0.160166 0.0585611 -0.686242 0.15719 0.0544894 -0.677536 0.153396 0.0499673 -0.667927 
0.148768 0.0449618 -0.657579 0.143316 0.0394572 -0.646646 0.137069 0.0334612 -0.635255 
0.130079 0.0270085 -0.623484 0.122413 0.0201625 -0.61136 0.11415 0.0130138 -0.598854 
0.105374 0.00567602 -0.585891 0.0961736 -0.0017199 -0.572361 0.086632 -0.00903375 -0.558135 
0.0768274 -0.0161242 -0.543087 0.0668292 -0.0228571 -0.527109 0.0566971 -0.0291127 -0.510129 
0.0464811 -0.0347912 -0.492119 0.0362226 -0.0398163 -0.473099 0.0259569 -0.0441365 -0.45313 
0.0157161 -0.0477245 -0.43231 0.00553187 -0.0505749 -0.410756 -0.00456061 -0.0527 -0.388588 
-0.0145204 -0.0541262 -0.365914 -0.0242982 -0.0548899 -0.342812 -0.0338357 -0.0550336 -0.319328 
-0.0430645 -0.0546039 -0.295464 -0.0519074 -0.0536503 -0.271183 -0.0602801 -0.0522244 -0.246422 
-0.0680934 -0.0503813 -0.221099 -0.0752564 -0.0481801 -0.195134 -0.0816798 -0.0456853 -0.168463 
-0.0872793 -0.0429671 -0.141059 -0.0919793 -0.0401008 -0.112937 -0.0957149 -0.0371658 -0.0841663 
-0.0984355 -0.034242 -0.0548703 -0.100106 -0.0314069 -0.0252194 -0.100707 -0.0287304 0.00457897 
-0.10024 -0.0262711 0.034296 -0.0987195 -0.0240715 0.0636991 -0.0961818 -0.0221558 0.0925698 
-0.0926777 -0.0205278 0.120719 -0.0882738 -0.0191718 0.148 -0.0830504 -0.0180548 0.174315 
-0.0770993 -0.0171306 0.199618 -0.0705214 -0.0163452 0.223907 -0.063424 -0.0156435 0.247222 
-0.0559173 -0.0149751 0.269629 -0.0481113 -0.0143007 0.291212 -0.0401123 -0.0135964 0.312053 
-0.0320194 -0.0128566 0.332231 -0.0239216 -0.0120948 0.351809 -0.0158954 -0.0113416 0.37083 
-0.0080027 -0.0106422 0.38932 -0.000289923 -0.0100507 0.407292 0.00721177 -0.00962447 0.424749 
0.0144856 -0.00941805 0.441692 0.0215271 -0.00947713 0.458128 0.0283415 -0.00983404 0.474073 
0.0349403 -0.0105044 0.489558 0.0413376 -0.0114859 0.504623 0.0475472 -0.0127585 0.519319 
0.0535795 -0.014287 0.5337 0.0594388 -0.0160243 0.547815 0.0651228 -0.0179159 0.5617 
0.0706222 -0.0199045 0.575373 0.0759212 -0.0219349 0.588827 0.0809999 -0.0239574 0.602026 
0.0858361 -0.0259308 0.614911 0.0904087 -0.027824 0.627396 0.0947 -0.0296159 0.639385 
0.0986984 -0.0312953 0.650771 0.1024 -0.0328586 0.661453 0.105809 -0.034308 0.671341 
0.108937 -0.0356493 0.680367 0.111805 -0.0368896 0.688489 0.114437 -0.0380355 0.695694 
0.116858 -0.0390924 0.701997 0.119094 -0.0400639 0.707441 0.121165 -0.0409516 0.712086 
0.123086 -0.0417559 0.716008 0.124865 -0.0424768 0.719288 0.126497 -0.0431142 0.722007 
0.127974 -0.0436688 0.724239 0.129278 -0.0441422 0.726048 0.130386 -0.0445369 0.727486 
0.131275 -0.0448561 0.72859 0.131922 -0.045103 0.729387 0.132309 -0.04528 0.729894 
0.132424 -0.0453887 0.730118 
LINES 2 100
OFFSETS vtktypeint64
0 100 
CONNECTIVITY vtktypeint64
0 1 2 3 4 5 6 7 8 
9 10 11 12 13 14 15 16 17 
18 19 20 21 22 23 24 25 26 
27 28 29 30 31 32 33 34 35 
36 37 38 39 40 41 42 43 44 
45 46 47 48 49 50 51 52 53 
54 55 56 57 58 59 60 61 62 
63 64 65 66 67 68 69 70 71 
72 73 74 75 76 77 78 79 80 
81 82 83 84 85 86 87 88 89 
90 91 92 93 94 95 96 97 98 
99 
POINT_DATA 100
FIELD FieldData 3
_theta 1 100 double
0 0.031733259127 0.063466518254 0.095199777382 0.12693303651 0.15866629564 0.19039955476 0.22213281389 0.25386607302 
0.28559933214 0.31733259127 0.3490658504 0.38079910953 0.41253236865 0.44426562778 0.47599888691 0.50773214603 0.53946540516 
0.57119866429 0.60293192342 0.63466518254 0.66639844167 0.6981317008 0.72986495992 0.76159821905 0.79333147818 0.82506473731 
0.85679799643 0.88853125556 0.92026451469 0.95199777382 0.98373103294 1.0154642921 1.0471975512 1.0789308103 1.1106640695 
1.1423973286 1.1741305877 1.2058638468 1.237597106 1.2693303651 1.3010636242 1.3327968833 1.3645301425 1.3962634016 
1.4279966607 1.4597299198 1.491463179 1.5231964381 1.5549296972 1.5866629564 1.6183962155 1.6501294746 1.6818627337 
1.7135959929 1.745329252 1.7770625111 1.8087957702 1.8405290294 1.8722622885 1.9039955476 1.9357288068 1.9674620659 
1.999195325 2.0309285841 2.0626618433 2.0943951024 2.1261283615 2.1578616206 2.1895948798 2.2213281389 2.253061398 
2.2847946572 2.3165279163 2.3482611754 2.3799944345 2.4117276937 2.4434609528 2.4751942119 2.506927471 2.5386607302 
2.5703939893 2.6021272484 2.6338605076 2.6655937667 2.6973270258 2.7290602849 2.7607935441 2.7925268032 2.8242600623 
2.8559933214 2.8877265806 2.9194598397 2.9511930988 2.982926358 3.0146596171 3.0463928762 3.0781261353 3.1098593945 
3.1415926536 
_radius 1 100 double
8.955206468e-16 0.015668369341 0.031235223732 0.046595387172 0.061646386123 0.076289450514 0.090429994157 0.10397764427 0.11684598986 
0.12895228335 0.14021737829 0.15056622412 0.15992925045 0.16824492135 0.1754635904 0.18155252465 0.1865016138 0.19032892278 
0.19308501008 0.19485495025 0.19575730768 0.19593981009 0.19557196339 0.19483518289 0.19391119991 0.1929696733 0.19215617625 
0.19158193848 0.19131667031 0.19138532151 0.19176884501 0.19240831093 0.19321146183 0.19406121406 0.19482645743 0.19537599791 
0.19559566308 0.19540649368 0.19478016152 0.19374781393 0.19240030853 0.19088007807 0.1893666951 0.18805916174 0.18715791843 
0.18684867834 0.18728886247 0.18859632824 0.19083994049 0.19403239714 0.19812674642 0.20301816867 0.20855162256 0.21453457445 
0.2207530243 0.22698868157 0.23303527556 0.2387123764 0.2438756152 0.24842275262 0.25229557857 0.25547803149 0.25799113419 
0.25988538067 0.26123119131 0.26210811342 0.26259363874 0.26275276996 0.26262962893 0.26224228948 0.26158156323 0.26061374371 
0.25928651359 0.25753658401 0.25529738085 0.2525053341 0.2491039872 0.24504596643 0.24029350921 0.23481850964 0.22860284289 
0.22163920923 0.21393214056 0.2054984055 0.19636602233 0.1865714853 0.17615550766 0.16515831223 0.15361590769 0.14155860457 
0.12901224297 0.11600156667 0.1025544008 0.088705132054 0.074496441859 0.059979012098 0.045209658809 0.03024880407 0.015158260814 
4.4842787002e-16 
_area 1 100 double
0 0.00063299421964 0.0025136181004 0.0055891479276 0.0097775702987 0.014971164812 0.021035961309 0.027808513935 0.035094059846 
0.042669427851 0.050291773047 0.057712279074 0.064692693623 0.071021787501 0.076528841255 0.08109234488 0.084643817392 0.087168017883 
0.088701125261 0.089327874812 0.089177527041 0.088414806412 0.08721430179 0.085727014411 0.084088020256 0.082462563172 0.0812450334 
0.080406604829 0.080049582778 0.08024346502 0.080975204046 0.082263690594 0.084107350907 0.086447969868 0.089133820001 0.091941391746 
0.09461596289 0.096913784797 0.09865830992 0.099772954312 0.10026240649 0.10022895068 0.099927565981 0.099560403504 0.099393179951 
0.09975291833 0.10086110775 0.10282466844 0.10569469412 0.10956426826 0.11451911355 0.12055822602 0.12754749091 0.13524459462 
0.14334668803 0.15152908261 0.15947794753 0.16691896117 0.17363707616 0.17948292624 0.184367029 0.18824902822 0.19113100221 
0.19305931088 0.19413039449 0.19448625997 0.19428267466 0.19363492432 0.19258308259 0.19110127724 0.18912582395 0.18657895217 
0.18338769104 0.17950274535 0.17491402238 0.16965410066 0.1637842943 0.15736782746 0.15044504262 0.14302595794 0.13510300135 
0.12667488906 0.11777048149 0.10846399587 0.098876207354 0.089160764228 0.079479884224 0.06997775936 0.060762046734 0.051902407074 
0.0434472684 0.035448431775 0.027979143655 0.02113893788 0.015047727935 0.0098345873865 0.0056252860826 0.0025307363733 0.00063737439508 
2.0720008886e-17 
