# vtk DataFile Version 5.1
vtk output
ASCII
DATASET POLYDATA
POINTS 100 float
0.126754 0.0674261 -0.682014 0.126717 0.0673803 -0.681955 0.126644 0.0670816 -0.681781 
0.126532 0.0665444 -0.68142 0.126374 0.0657888 -0.680757 0.126154 0.0648364 -0.679648 
0.125852 0.063704 -0.677933 0.125437 0.0623981 -0.675455 0.124869 0.0609105 -0.672072 
0.124095 0.059215 -0.66767 0.12305 0.0572677 -0.662172 0.121661 0.0550085 -0.655547 
0.119845 0.0523666 -0.647806 0.117514 0.049268 -0.638999 0.114581 0.0456441 -0.62921 
0.110965 0.0414412 -0.618541 0.106597 0.0366297 -0.607105 0.101427 0.0312116 -0.595009 
0.0954311 0.025225 -0.582345 0.088613 0.0187461 -0.569182 0.0810102 0.0118871 -0.555557 
0.0726928 0.00479052 -0.54148 0.0637618 -0.00237945 -0.526931 0.054344 -0.00944783 -0.51187 
0.0445849 -0.0162412 -0.49624 0.0346387 -0.0226003 -0.479982 0.0246579 -0.0283906 -0.46304 
0.0147816 -0.0335118 -0.445372 0.00512555 -0.0379032 -0.426954 -0.00422651 -0.0415458 -0.407787 
-0.0132284 -0.0444603 -0.387893 -0.0218735 -0.046702 -0.367315 -0.0301924 -0.0483523 -0.346114 
-0.0382468 -0.0495084 -0.324358 -0.0461192 -0.0502722 -0.302117 -0.0539008 -0.0507396 -0.279459 
-0.0616764 -0.0509906 -0.25644 -0.0695107 -0.0510828 -0.233104 -0.0774345 -0.0510471 -0.209478 
-0.085435 -0.0508867 -0.18558 -0.0934497 -0.05058 -0.161415 -0.101365 -0.0500855 -0.136989 
-0.10902 -0.0493493 -0.112309 -0.116216 -0.0483138 -0.0873924 -0.122731 -0.0469265 -0.0622725 
-0.128333 -0.0451486 -0.0370037 -0.132801 -0.0429609 -0.0116623 -0.135941 -0.0403692 0.0136535 
-0.137603 -0.0374055 0.0388269 -0.13769 -0.0341274 0.0637283 -0.136169 -0.0306152 0.0882221 
-0.133071 -0.0269661 0.112175 -0.128489 -0.0232879 0.135466 -0.122566 -0.0196914 0.157991 
-0.115488 -0.0162828 0.179673 -0.107463 -0.013157 0.200464 -0.0987102 -0.0103923 0.220346 
-0.0894422 -0.00804592 0.239335 -0.079852 -0.00615254 0.257472 -0.0701042 -0.00472349 0.274826 
-0.0603296 -0.00374829 0.291481 -0.0506241 -0.00319726 0.307531 -0.041052 -0.00302506 0.323079 
-0.0316531 -0.00317485 0.338223 -0.022451 -0.00358247 0.353056 -0.0134632 -0.00418038 0.36766 
-0.00471036 -0.0049012 0.382103 0.00377611 -0.0056805 0.396442 0.0119494 -0.00645901 0.410716 
0.0197455 -0.00718411 0.424953 0.0270855 -0.00781079 0.439167 0.0338799 -0.00830228 0.45336 
0.0400365 -0.00863032 0.467523 0.045469 -0.00877535 0.481637 0.0501056 -0.00872664 0.49567 
0.0538973 -0.00848235 0.50958 0.0568242 -0.00804957 0.523313 0.0588985 -0.00744419 0.536802 
0.0601649 -0.00669055 0.549969 0.0606984 -0.00582075 0.562724 0.0605989 -0.00487356 0.574968 
0.0599831 -0.00389283 0.586597 0.0589772 -0.00292543 0.597505 0.057707 -0.00201877 0.607591 
0.0562906 -0.00121811 0.616763 0.0548312 -0.000563651 0.624945 0.0534131 -8.78176e-05 0.632085 
0.0520987 0.000187141 0.638157 0.0509286 0.000250993 0.643163 0.0499234 0.0001066 0.647143 
0.0490868 -0.000229905 0.650163 0.0484097 -0.000729901 0.652322 0.0478746 -0.00135402 0.653742 
0.0474598 -0.00205477 0.654563 0.0471426 -0.00277978 0.654933 0.0469021 -0.00347557 0.655001 
0.0467209 -0.00409146 0.654903 0.0465856 -0.00458328 0.654759 0.0464873 -0.00491676 0.65466 
0.0464212 -0.00507005 0.654664 
LINES 2 100
OFFSETS vtktypeint64
0 100 
CONNECTIVITY vtktypeint64
0 1 2 3 4 5 6 7 8 
9 10 11 12 13 14 15 16 17 
18 19 20 21 22 23 24 25 26 
27 28 29 30 31 32 33 34 35 
36 37 38 39 40 41 42 43 44 
45 46 47 48 49 50 51 52 53 
54 55 56 57 58 59 60 61 62 
63 64 65 66 67 68 69 70 71 
72 73 74 75 76 77 78 79 80 
81 82 83 84 85 86 87 88 89 
90 91 92 93 94 95 96 97 98 
99 
POINT_DATA 100
FIELD FieldData 3
_theta 1 100 double
0 0.031733259127 0.063466518254 0.095199777382 0.12693303651 0.15866629564 0.19039955476 0.22213281389 0.25386607302 
0.28559933214 0.31733259127 0.3490658504 0.38079910953 0.41253236865 0.44426562778 0.47599888691 0.50773214603 0.53946540516 
0.57119866429 0.60293192342 0.63466518254 0.66639844167 0.6981317008 0.72986495992 0.76159821905 0.79333147818 0.82506473731 
0.85679799643 0.88853125556 0.92026451469 0.95199777382 0.98373103294 1.0154642921 1.0471975512 1.0789308103 1.1106640695 
1.1423973286 1.1741305877 1.2058638468 1.237597106 1.2693303651 1.3010636242 1.3327968833 1.3645301425 1.3962634016 
1.4279966607 1.4597299198 1.491463179 1.5231964381 1.5549296972 1.5866629564 1.6183962155 1.6501294746 1.6818627337 
1.7135959929 1.745329252 1.7770625111 1.8087957702 1.8405290294 1.8722622885 1.9039955476 1.9357288068 1.9674620659 
1.999195325 2.0309285841 2.0626618433 2.0943951024 2.1261283615 2.1578616206 2.1895948798 2.2213281389 2.253061398 
2.2847946572 2.3165279163 2.3482611754 2.3799944345 2.4117276937 2.4434609528 2.4751942119 2.506927471 2.5386607302 
2.5703939893 2.6021272484 2.6338605076 2.6655937667 2.6973270258 2.7290602849 2.7607935441 2.7925268032 2.8242600623 
2.8559933214 2.8877265806 2.9194598397 2.9511930988 2.982926358 3.0146596171 3.0463928762 3.0781261353 3.1098593945 
3.1415926536 
_radius 1 100 double
7.3395000201e-16 0.013849272232 0.027704287557 0.041554822739 0.055367197505 0.069075781454 0.082578806399 0.095739885951 0.10839560679 
0.12036830367 0.13148216182 0.14158029111 0.15054033663 0.15828645672 0.1647960782 0.17010068053 0.17428083711 0.17745664347 
0.17977526094 0.18139745484 0.18248472941 0.18318815416 0.18363950147 0.18394504251 0.18418224807 0.18439953329 0.18461891462 
0.18484102268 0.18505151005 0.18522770881 0.18534453091 0.185379032 0.18531361822 0.18513832323 0.18485269095 0.18446750398 
0.18400608298 0.18350448268 0.18300989385 0.18257696546 0.18226240308 0.18211883481 0.1821894238 0.18250496696 0.18308498943 
0.18394320631 0.18509576105 0.18656890815 0.18840251483 0.1906471642 0.19335497887 0.19656648647 0.20029707808 0.20452647268 
0.20919334204 0.214195648 0.21939605261 0.22463122993 0.22972381274 0.23449573246 0.23878169941 0.24244153996 0.24537014854 
0.2475040082 0.24882361156 0.24935163513 0.24914728175 0.24829768455 0.24690755819 0.24508834792 0.24294798232 0.24058204945 
0.23806687793 0.23545471025 0.23277096648 0.23001350677 0.2271537448 0.2241393828 0.22089842219 0.21734400266 0.2133796021 
0.20890423199 0.20381745816 0.19802427359 0.19143993621 0.18399479048 0.17563884079 0.16634555703 0.15611422839 0.14497026177 
0.1329631574 0.12016238527 0.1066518605 0.092524010396 0.077874440405 0.06279794687 0.047386193715 0.031726931032 0.015904338352 
7.5810016303e-16 
_area 1 100 double
0 0.00045380955779 0.0018254494825 0.0041440707673 0.0074496170533 0.011772995783 0.017107660785 0.023382954665 0.030448709526 
0.038075706231 0.045971962731 0.053811114886 0.061266701821 0.068045671398 0.073915857884 0.078724344637 0.082405168943 0.084975858792 
0.086523983102 0.087187336121 0.087132915467 0.086539012662 0.085581967857 0.084426227351 0.083214845501 0.082058594149 0.081026786354 
0.080146322295 0.079412765682 0.078873456566 0.078555082097 0.078502320444 0.078491868819 0.078415856136 0.078239058044 0.077989738573 
0.077746418677 0.07761951065 0.077735142267 0.078224679233 0.079202582733 0.080722421984 0.082740448624 0.085127200225 0.087718440822 
0.090368779759 0.092990486612 0.095576219165 0.098207549393 0.10104790365 0.10431157647 0.1082067488 0.11287826931 0.11838099489 
0.12468062258 0.13166159281 0.13913443089 0.14684562452 0.1544908306 0.16173028981 0.1682081881 0.17358244419 0.17756862748 
0.179987336 0.18079583354 0.18009107853 0.17808335411 0.1750483572 0.17127056171 0.16699535758 0.16240562306 0.15762724948 
0.15275125099 0.14785030778 0.14297835546 0.13816184369 0.13339656716 0.12865018831 0.1238629204 0.11894947799 0.11381026246 
0.10834912141 0.10248916578 0.096182225234 0.089411635534 0.08219068911 0.074561102193 0.066595113566 0.058400500934 0.050123203291 
0.041942070829 0.034054825515 0.026659294895 0.019935864146 0.014035726706 0.0090765403877 0.0051442285223 0.0022980688952 0.00057622833929 
1.4339631694e-17 
