# vtk DataFile Version 5.1
vtk output
ASCII
DATASET POLYDATA
POINTS 100 float
0.190232 0.0653762 -0.693368 0.190169 0.0653673 -0.693288 0.190009 0.0651522 -0.693036 
0.189709 0.064732 -0.692537 0.189202 0.0641072 -0.691677 0.188403 0.0632751 -0.690312 
0.187226 0.0622269 -0.688284 0.185584 0.0609458 -0.685437 0.183407 0.0594048 -0.68163 
0.18064 0.0575671 -0.676756 0.177256 0.0553875 -0.670746 0.173248 0.0528158 -0.663579 
0.168634 0.0498012 -0.655281 0.163444 0.0462987 -0.645921 0.15772 0.042275 -0.635601 
0.151502 0.0377146 -0.624448 0.144827 0.0326246 -0.612596 0.137721 0.027038 -0.600176 
0.130195 0.0210146 -0.5873 0.122249 0.0146395 -0.574056 0.113873 0.00801953 -0.560497 
0.105055 0.00127711 -0.546639 0.0957848 -0.00545671 -0.532468 0.0860628 -0.0120501 -0.517938 
0.0759065 -0.0183784 -0.502982 0.0653536 -0.0243306 -0.487524 0.0544633 -0.0298147 -0.471485 
0.0433142 -0.0347608 -0.454794 0.0319995 -0.0391224 -0.437399 0.0206196 -0.042875 -0.419264 
0.00927394 -0.0460135 -0.40038 -0.0019473 -0.0485486 -0.38076 -0.0129701 -0.0505019 -0.360435 
-0.0237406 -0.0519019 -0.339451 -0.0342258 -0.0527802 -0.317863 -0.0444108 -0.0531692 -0.295729 
-0.0542922 -0.0531008 -0.273104 -0.0638686 -0.0526065 -0.250033 -0.0731308 -0.051718 -0.226557 
-0.0820508 -0.0504695 -0.202704 -0.0905739 -0.0488985 -0.178497 -0.0986128 -0.0470478 -0.153953 
-0.106047 -0.0449652 -0.12909 -0.112728 -0.0427032 -0.103933 -0.118484 -0.0403169 -0.0785151 
-0.123141 -0.0378611 -0.052881 -0.12653 -0.0353871 -0.0270914 -0.128508 -0.0329385 -0.00122095 
-0.128973 -0.0305486 0.0246424 -0.127876 -0.0282379 0.0504011 -0.125228 -0.0260133 0.0759516 
-0.121105 -0.0238692 0.10119 -0.11564 -0.0217898 0.126018 -0.109015 -0.019753 0.150344 
-0.101446 -0.0177355 0.174092 -0.0931649 -0.0157179 0.1972 -0.0843993 -0.0136897 0.219624 
-0.0753566 -0.0116528 0.241339 -0.0662081 -0.00962351 0.262333 -0.0570784 -0.00763332 0.282612 
-0.0480421 -0.00572639 0.302191 -0.0391246 -0.00395597 0.321095 -0.0303099 -0.00237912 0.339358 
-0.0215522 -0.00105069 0.357015 -0.0127901 -1.73494e-05 0.374106 -0.00396168 0.000687618 0.390668 
0.00498149 0.00104799 0.406741 0.0140636 0.00106629 0.422362 0.023278 0.000763244 0.437565 
0.0325859 0.000175134 0.452382 0.0419195 -0.00065068 0.466839 0.0511896 -0.00166131 0.480958 
0.0602967 -0.00280428 0.494754 0.0691425 -0.00403296 0.508234 0.0776417 -0.00531079 0.521398 
0.0857315 -0.0066136 0.534234 0.0933781 -0.0079299 0.546721 0.100578 -0.00925886 0.558832 
0.107357 -0.0106066 0.570529 0.113763 -0.0119813 0.581768 0.119856 -0.0133875 0.592504 
0.125702 -0.0148213 0.60269 0.131356 -0.0162668 0.612281 0.136857 -0.0176941 0.621239 
0.142224 -0.01906 0.629533 0.147448 -0.0203111 0.637143 0.152495 -0.0213892 0.644059 
0.157315 -0.0222377 0.650284 0.161844 -0.0228094 0.65583 0.166015 -0.023073 0.660722 
0.169768 -0.0230199 0.66499 0.173059 -0.0226665 0.668673 0.175863 -0.0220559 0.671809 
0.178177 -0.021255 0.67444 0.180019 -0.0203494 0.676605 0.181426 -0.0194355 0.67834 
0.182443 -0.0186111 0.679675 0.183119 -0.0179654 0.680633 0.183493 -0.0175698 0.681233 
0.183596 -0.0174704 0.681482 
LINES 2 100
OFFSETS vtktypeint64
0 100 
CONNECTIVITY vtktypeint64
0 1 2 3 4 5 6 7 8 
9 10 11 12 13 14 15 16 17 
18 19 20 21 22 23 24 25 26 
27 28 29 30 31 32 33 34 35 
36 37 38 39 40 41 42 43 44 
45 46 47 48 49 50 51 52 53 
54 55 56 57 58 59 60 61 62 
63 64 65 66 67 68 69 70 71 
72 73 74 75 76 77 78 79 80 
81 82 83 84 85 86 87 88 89 
90 91 92 93 94 95 96 97 98 
99 
POINT_DATA 100
FIELD FieldData 3
_theta 1 100 double
0 0.031733259127 0.063466518254 0.095199777382 0.12693303651 0.15866629564 0.19039955476 0.22213281389 0.25386607302 
0.28559933214 0.31733259127 0.3490658504 0.38079910953 0.41253236865 0.44426562778 0.47599888691 0.50773214603 0.53946540516 
0.57119866429 0.60293192342 0.63466518254 0.66639844167 0.6981317008 0.72986495992 0.76159821905 0.79333147818 0.82506473731 
0.85679799643 0.88853125556 0.92026451469 0.95199777382 0.98373103294 1.0154642921 1.0471975512 1.0789308103 1.1106640695 
1.1423973286 1.1741305877 1.2058638468 1.237597106 1.2693303651 1.3010636242 1.3327968833 1.3645301425 1.3962634016 
1.4279966607 1.4597299198 1.491463179 1.5231964381 1.5549296972 1.5866629564 1.6183962155 1.6501294746 1.6818627337 
1.7135959929 1.745329252 1.7770625111 1.8087957702 1.8405290294 1.8722622885 1.9039955476 1.9357288068 1.9674620659 
1.999195325 2.0309285841 2.0626618433 2.0943951024 2.1261283615 2.1578616206 2.1895948798 2.2213281389 2.253061398 
2.2847946572 2.3165279163 2.3482611754 2.3799944345 2.4117276937 2.4434609528 2.4751942119 2.506927471 2.5386607302 
2.5703939893 2.6021272484 2.6338605076 2.6655937667 2.6973270258 2.7290602849 2.7607935441 2.7925268032 2.8242600623 
2.8559933214 2.8877265806 2.9194598397 2.9511930988 2.982926358 3.0146596171 3.0463928762 3.0781261353 3.1098593945 
3.1415926536 
_radius 1 100 double
1.2419650931e-15 0.016103437631 0.032078832831 0.047800596253 0.06315509664 0.07804523189 0.092393375516 0.10614244208 0.11925493057 
0.13170988599 0.14349785081 0.15461416431 0.16505143122 0.17479248733 0.18380548647 0.19204259847 0.19944320367 0.20594156305 
0.21147799772 0.21601185231 0.21953406745 0.22207709426 0.22372015094 0.2245884169 0.22484560656 0.22468035255 0.2242878434 
0.22384909987 0.22351098889 0.22337031083 0.22346476398 0.22377224265 0.22421819725 0.22468939867 0.22505184545 0.22517058127 
0.22492938651 0.22424837715 0.22309754533 0.2215044698 0.21955503533 0.21738706873 0.21517811416 0.21312966853 0.21145049385 
0.21034079631 0.20997757214 0.21050050482 0.21199843932 0.21449819269 0.21795862664 0.22227231119 0.22727514678 0.23276232375 
0.23850792376 0.24428534455 0.24988611618 0.25513520754 0.25990149343 0.2641026911 0.26770475923 0.27071637608 0.27317957075 
0.27515784441 0.27672323413 0.277943795 0.27887290207 0.27954153348 0.27995423074 0.28008879354 0.27989916782 0.27932070403 
0.27827707454 0.27668832159 0.27447929414 0.27158718821 0.2679667173 0.26359203189 0.25845549287 0.25256414476 0.24593499401 
0.23859010756 0.2305522977 0.22184186089 0.2124745447 0.20246068673 0.19180535176 0.18050929811 0.16857067846 0.15598743291 
0.1427602965 0.12889621593 0.11441181068 0.099336406532 0.083714181961 0.067605110147 0.05108459296 0.03424188276 0.017177512756 
1.4511692363e-15 
_area 1 100 double
0 0.00064451384152 0.0025556163616 0.005669700298 0.009891008951 0.015101299862 0.021166671125 0.027941989612 0.035275944834 
0.043018298304 0.051027222721 0.059172411731 0.067331001357 0.075377675103 0.083174549962 0.090567232633 0.097390337287 0.1034813933 
0.10869927117 0.11294277739 0.1161657252 0.11838515782 0.11967988773 0.12017947535 0.12004913777 0.11947723289 0.11866496168 
0.11781195887 0.11709521789 0.11664742868 0.11654405193 0.11680480302 0.11740757698 0.11829959353 0.11938811182 0.12052501729 
0.12152649619 0.12222913848 0.12253067251 0.12240693052 0.12190752828 0.12113547464 0.12022631843 0.11934366901 0.11868486128 
0.11845179457 0.1188013879 0.11988417612 0.12188988369 0.12499237814 0.12927109998 0.13469849194 0.14115993546 0.1484605755 
0.15632968437 0.16443853016 0.17243215797 0.17996846021 0.18675609769 0.19258345516 0.19733382048 0.2009863094 0.20360573688 
0.20532492341 0.20631813848 0.20676018327 0.20677804762 0.20642339933 0.20567897344 0.20448046522 0.20273678457 0.20034451258 
0.19719885054 0.19320692917 0.1883071227 0.18248833926 0.1757976756 0.16833158637 0.16021595067 0.15158335815 0.14255333236 
0.13321991652 0.12365058366 0.11389650162 0.10400832518 0.094049274385 0.084099926675 0.07425418451 0.06461023152 0.055262283465 
0.046297935746 0.037802425864 0.029867086783 0.022597043985 0.0161138712 0.010551503565 0.0060463685306 0.0027242536592 0.00068678570852 
6.3427571908e-17 
