# vtk DataFile Version 5.1
vtk output
ASCII
DATASET POLYDATA
POINTS 100 float
0.144003 0.0294288 -0.685394 0.143951 0.0293576 -0.685663 0.143877 0.0290239 -0.686463 
0.143785 0.0284678 -0.687625 0.143678 0.027749 -0.688889 0.143551 0.0269391 -0.689931 
0.143389 0.0261117 -0.690396 0.143159 0.025332 -0.68994 0.142808 0.0246475 -0.688262 
0.142257 0.0240805 -0.685132 0.141407 0.0236235 -0.680412 0.140137 0.0232384 -0.674066 
0.138311 0.0228588 -0.666151 0.135789 0.0223964 -0.656806 0.132433 0.0217493 -0.646229 
0.128124 0.0208129 -0.634646 0.122771 0.0194902 -0.622283 0.116318 0.0177026 -0.609339 
0.10876 0.0153985 -0.595961 0.100139 0.0125585 -0.582235 0.0905473 0.00919875 -0.568178 
0.0801247 0.00537027 -0.553749 0.0690475 0.00115504 -0.538857 0.0575175 -0.00334013 -0.523384 
0.0457462 -0.00799163 -0.507206 0.0339394 -0.012668 -0.490214 0.022281 -0.0172387 -0.472333 
0.0109198 -0.021582 -0.453532 -4.14953e-05 -0.0255917 -0.433827 -0.0105509 -0.0291809 -0.413282 
-0.020608 -0.032285 -0.391992 -0.030258 -0.0348619 -0.370072 -0.0395813 -0.0368908 -0.347637 
-0.0486785 -0.0383701 -0.324786 -0.057653 -0.0393146 -0.301587 -0.0665925 -0.0397524 -0.278069 
-0.0755518 -0.039722 -0.25422 -0.0845382 -0.0392705 -0.229993 -0.0935019 -0.038451 -0.205318 
-0.102333 -0.0373219 -0.18012 -0.110862 -0.0359448 -0.154334 -0.118875 -0.0343838 -0.127929 
-0.12612 -0.0327031 -0.10092 -0.132334 -0.0309651 -0.0733787 -0.137261 -0.0292273 -0.0454347 
-0.140678 -0.0275394 -0.0172726 -0.142409 -0.02594 0.0108813 -0.142347 -0.0244537 0.0387772 
-0.140463 -0.0230893 0.0661634 -0.136811 -0.0218384 0.092808 -0.131519 -0.0206768 0.11852 
-0.124788 -0.0195667 0.143163 -0.116866 -0.0184612 0.166667 -0.108035 -0.0173097 0.189029 
-0.0985867 -0.0160646 0.210307 -0.0887965 -0.0146884 0.230609 -0.0789083 -0.0131597 0.250073 
-0.0691163 -0.0114783 0.268855 -0.0595552 -0.00966824 0.287101 -0.050297 -0.00777842 0.304939 
-0.0413534 -0.00588029 0.322463 -0.0326846 -0.00406317 0.339728 -0.0242124 -0.00242729 0.35675 
-0.0158368 -0.00107527 0.373515 -0.00745251 -0.000103002 0.389983 0.00103431 0.00040927 0.406107 
0.00969293 0.000404512 0.421841 0.0185586 -0.000145529 0.437154 0.0276278 -0.00123743 0.452033 
0.0368591 -0.00283616 0.466491 0.0461778 -0.00487801 0.480562 0.0554853 -0.00727611 0.494291 
0.0646695 -0.00992784 0.507731 0.0736174 -0.0127233 0.520926 0.0822264 -0.0155539 0.533901 
0.0904133 -0.0183203 0.546655 0.0981206 -0.0209388 0.559151 0.105319 -0.0233456 0.571322 
0.112008 -0.025499 0.58307 0.118209 -0.0273787 0.594279 0.12396 -0.028984 0.604825 
0.129309 -0.0303292 0.61459 0.134302 -0.0314396 0.623478 0.138982 -0.0323459 0.631424 
0.143377 -0.03308 0.638404 0.147501 -0.0336712 0.644435 0.151354 -0.034144 0.649575 
0.154923 -0.0345173 0.653917 0.158187 -0.0348043 0.657573 0.161122 -0.0350141 0.660667 
0.163707 -0.0351538 0.663318 0.165931 -0.0352301 0.665626 0.167791 -0.0352511 0.66767 
0.1693 -0.035228 0.669495 0.170482 -0.0351744 0.671118 0.17137 -0.0351064 0.672528 
0.172002 -0.0350413 0.673697 0.172417 -0.0349954 0.674588 0.172645 -0.0349822 0.675164 
0.172708 -0.035011 0.675399 
LINES 2 100
OFFSETS vtktypeint64
0 100 
CONNECTIVITY vtktypeint64
0 1 2 3 4 5 6 7 8 
9 10 11 12 13 14 15 16 17 
18 19 20 21 22 23 24 25 26 
27 28 29 30 31 32 33 34 35 
36 37 38 39 40 41 42 43 44 
45 46 47 48 49 50 51 52 53 
54 55 56 57 58 59 60 61 62 
63 64 65 66 67 68 69 70 71 
72 73 74 75 76 77 78 79 80 
81 82 83 84 85 86 87 88 89 
90 91 92 93 94 95 96 97 98 
99 
POINT_DATA 100
FIELD FieldData 3
_theta 1 100 double
0 0.031733259127 0.063466518254 0.095199777382 0.12693303651 0.15866629564 0.19039955476 0.22213281389 0.25386607302 
0.28559933214 0.31733259127 0.3490658504 0.38079910953 0.41253236865 0.44426562778 0.47599888691 0.50773214603 0.53946540516 
0.57119866429 0.60293192342 0.63466518254 0.66639844167 0.6981317008 0.72986495992 0.76159821905 0.79333147818 0.82506473731 
0.85679799643 0.88853125556 0.92026451469 0.95199777382 0.98373103294 1.0154642921 1.0471975512 1.0789308103 1.1106640695 
1.1423973286 1.1741305877 1.2058638468 1.237597106 1.2693303651 1.3010636242 1.3327968833 1.3645301425 1.3962634016 
1.4279966607 1.4597299198 1.491463179 1.5231964381 1.5549296972 1.5866629564 1.6183962155 1.6501294746 1.6818627337 
1.7135959929 1.745329252 1.7770625111 1.8087957702 1.8405290294 1.8722622885 1.9039955476 1.9357288068 1.9674620659 
1.999195325 2.0309285841 2.0626618433 2.0943951024 2.1261283615 2.1578616206 2.1895948798 2.2213281389 2.253061398 
2.2847946572 2.3165279163 2.3482611754 2.3799944345 2.4117276937 2.4434609528 2.4751942119 2.506927471 2.5386607302 
2.5703939893 2.6021272484 2.6338605076 2.6655937667 2.6973270258 2.7290602849 2.7607935441 2.7925268032 2.8242600623 
2.8559933214 2.8877265806 2.9194598397 2.9511930988 2.982926358 3.0146596171 3.0463928762 3.0781261353 3.1098593945 
3.1415926536 
_radius 1 100 double
4.5017327597e-16 0.016673382403 0.033079080057 0.048967858027 0.06413033047 0.078409891232 0.091709437586 0.10399189926 0.11527474488 
0.12561881284 0.13511233699 0.14385178797 0.15192190787 0.15937791019 0.1662330464 0.17245432582 0.17796792938 0.18267391923 
0.18646774956 0.18926453371 0.19102152662 0.19175489902 0.19154824165 0.19055178914 0.18897264509 0.18705718037 0.18506741429 
0.18325381735 0.18182769805 0.18093699013 0.18064943604 0.18094642551 0.18172898424 0.18283507487 0.18406527986 0.18521271615 
0.18609283904 0.18656942658 0.18657410943 0.18611779067 0.18529274709 0.18426438605 0.18325257016 0.18250471223 0.18226552685 
0.18274934245 0.18411904733 0.18647243703 0.18983476162 0.19415668687 0.19931805621 0.20513793808 0.21139041154 0.21782445655 
0.22418585134 0.23023897627 0.23578643602 0.24068432135 0.24485104361 0.24826835811 0.25097446201 0.25305052294 0.25460316883 
0.25574601839 0.256583185 0.25719697516 0.25764096055 0.25793848921 0.25808574698 0.25805785962 0.25781632214 0.25731621474 
0.25651205739 0.25536156687 0.25382689861 0.25187324174 0.24946504287 0.24656072074 0.24310735168 0.23903717663 0.23426765157 
0.22870603223 0.22225829409 0.21484092181 0.20639322221 0.19688762077 0.18633590645 0.17479037856 0.16233998865 0.14910250535 
0.13521419894 0.12081853546 0.10605512511 0.091049952583 0.075907784388 0.060707470278 0.045500519054 0.030312869009 0.015149340492 
6.2221037122e-16 
_area 1 100 double
0 0.00054512870151 0.0021845601794 0.0049254540479 0.0087604619252 0.013638749927 0.019440811273 0.025974113405 0.032992742285 
0.040231834047 0.047444317024 0.054429432364 0.061045981923 0.067207585045 0.072862748929 0.077968218779 0.082466579848 0.086276199658 
0.08929642859 0.091427709097 0.092602287615 0.092814615438 0.092138601458 0.090725679238 0.088787210262 0.086571169622 0.084343952214 
0.08241081458 0.08109302894 0.080484106712 0.080652446661 0.081372825444 0.082460056025 0.08372317585 0.084982093451 0.086095087198 
0.086980415094 0.087626413451 0.088088419582 0.088474562044 0.088920105363 0.089537853909 0.09035580611 0.091331193205 0.092443588261 
0.093757102807 0.095427336537 0.097672332088 0.10071497912 0.10471724995 0.10973947389 0.11572804395 0.12251102585 0.12980211065 
0.13723122141 0.144401177 0.15094872418 0.15659173578 0.16115631097 0.16458431521 0.16692406422 0.16830793494 0.16892247674 
0.16897756813 0.1686795317 0.16820980509 0.16770700827 0.16724294597 0.1667899509 0.16623024137 0.16541768307 0.16423011257 
0.16259241339 0.16047586461 0.15788445801 0.15483704713 0.15134888229 0.14741378697 0.14298995434 0.13799495292 0.13231537897 
0.12583220655 0.11845627855 0.11016352376 0.10101890668 0.091181572596 0.080889478854 0.070428245758 0.060093893942 0.050159915066 
0.04085505572 0.032352766083 0.024770457915 0.018176306 0.012601041394 0.008051575374 0.0045232746217 0.0020086722266 0.00050194495495 
1.3877787808e-17 
