# vtk DataFile Version 5.1
vtk output
ASCII
DATASET POLYDATA
POINTS 100 float
0.227938 0.0803466 -0.715432 0.227849 0.0805064 -0.71558 0.227587 0.0807769 -0.716008 
0.227122 0.0811026 -0.716589 0.226399 0.0813973 -0.717124 0.225354 0.0815505 -0.717367 
0.22391 0.0814378 -0.717045 0.22199 0.0809301 -0.715893 0.219518 0.0799049 -0.713671 
0.216428 0.0782548 -0.710194 0.212668 0.0758955 -0.705344 0.2082 0.0727712 -0.699079 
0.203006 0.0688572 -0.69143 0.197086 0.0641604 -0.682495 0.190459 0.0587173 -0.672421 
0.183156 0.0525901 -0.661385 0.175224 0.0458626 -0.649573 0.166717 0.0386345 -0.637154 
0.157696 0.0310165 -0.624268 0.148224 0.0231259 -0.61101 0.138366 0.015083 -0.597426 
0.128181 0.00700797 -0.583512 0.117728 -0.000980562 -0.569219 0.107055 -0.00876722 -0.554471 
0.0962072 -0.016241 -0.539171 0.0852182 -0.0232964 -0.523225 0.0741149 -0.0298355 -0.506548 
0.0629154 -0.0357695 -0.489079 0.0516301 -0.0410218 -0.470788 0.0402639 -0.0455309 -0.451672 
0.0288183 -0.0492528 -0.431757 0.017295 -0.052164 -0.411088 0.00570061 -0.0542628 -0.389717 
-0.00594853 -0.0555698 -0.367698 -0.0176207 -0.0561268 -0.345071 -0.029264 -0.0559946 -0.321861 
-0.0408017 -0.0552485 -0.298072 -0.0521296 -0.053974 -0.27369 -0.0631157 -0.0522613 -0.248687 
-0.0736017 -0.0501996 -0.223035 -0.0834084 -0.0478723 -0.196712 -0.0923431 -0.0453534 -0.169718 
-0.10021 -0.0427055 -0.142084 -0.106822 -0.0399785 -0.11388 -0.112015 -0.0372113 -0.0852166 
-0.115659 -0.0344335 -0.0562469 -0.11767 -0.0316691 -0.0271559 -0.118018 -0.0289394 0.00184862 
-0.116734 -0.0262663 0.030551 -0.113909 -0.0236748 0.0587436 -0.109688 -0.0211935 0.0862425 
-0.104266 -0.0188547 0.112901 -0.09787 -0.0166923 0.138621 -0.0907497 -0.0147392 0.163355 
-0.0831559 -0.0130237 0.187108 -0.0753269 -0.0115662 0.209935 -0.0674726 -0.0103765 0.231926 
-0.0597634 -0.00945201 0.253197 -0.0523225 -0.00877797 0.273875 -0.045223 -0.00832907 0.294085 
-0.03849 -0.00807286 0.313936 -0.0321072 -0.00797429 0.333511 -0.0260267 -0.00800085 0.352864 
-0.0201812 -0.00812765 0.372019 -0.0144972 -0.00834149 0.39097 -0.00890748 -0.00864333 0.409687 
-0.00336117 -0.00904857 0.428126 0.00216875 -0.00958506 0.446238 0.00768193 -0.0102888 0.463975 
0.013151 -0.0111978 0.481299 0.0185254 -0.0123449 0.498185 0.0237384 -0.0137506 0.514623 
0.0287154 -0.0154169 0.530621 0.0333831 -0.0173222 0.546192 0.0376782 -0.0194205 0.56136 
0.0415542 -0.0216418 0.576147 0.0449857 -0.0238973 0.590567 0.0479696 -0.0260866 0.604626 
0.0505239 -0.0281071 0.618314 0.0526835 -0.0298645 0.631606 0.0544946 -0.0312828 0.644466 
0.0560075 -0.0323132 0.656843 0.0572706 -0.0329399 0.668683 0.0583247 -0.0331824 0.679928 
0.0591992 -0.033094 0.690527 0.059911 -0.0327564 0.700435 0.0604653 -0.0322707 0.709618 
0.0608587 -0.0317466 0.718058 0.0610835 -0.0312894 0.725746 0.0611336 -0.030989 0.732688 
0.0610091 -0.0309094 0.738898 0.0607204 -0.0310819 0.744395 0.0602911 -0.0315026 0.749201 
0.0597577 -0.0321331 0.75334 0.0591683 -0.0329066 0.756828 0.058578 -0.0337368 0.759683 
0.0580439 -0.0345293 0.761914 0.057619 -0.0351939 0.763527 0.0573459 -0.0356565 0.764525 
0.0572521 -0.0358682 0.764906 
LINES 2 100
OFFSETS vtktypeint64
0 100 
CONNECTIVITY vtktypeint64
0 1 2 3 4 5 6 7 8 
9 10 11 12 13 14 15 16 17 
18 19 20 21 22 23 24 25 26 
27 28 29 30 31 32 33 34 35 
36 37 38 39 40 41 42 43 44 
45 46 47 48 49 50 51 52 53 
54 55 56 57 58 59 60 61 62 
63 64 65 66 67 68 69 70 71 
72 73 74 75 76 77 78 79 80 
81 82 83 84 85 86 87 88 89 
90 91 92 93 94 95 96 97 98 
99 
POINT_DATA 100
FIELD FieldData 3
_theta 1 100 double
0 0.031733259127 0.063466518254 0.095199777382 0.12693303651 0.15866629564 0.19039955476 0.22213281389 0.25386607302 
0.28559933214 0.31733259127 0.3490658504 0.38079910953 0.41253236865 0.44426562778 0.47599888691 0.50773214603 0.53946540516 
0.57119866429 0.60293192342 0.63466518254 0.66639844167 0.6981317008 0.72986495992 0.76159821905 0.79333147818 0.82506473731 
0.85679799643 0.88853125556 0.92026451469 0.95199777382 0.98373103294 1.0154642921 1.0471975512 1.0789308103 1.1106640695 
1.1423973286 1.1741305877 1.2058638468 1.237597106 1.2693303651 1.3010636242 1.3327968833 1.3645301425 1.3962634016 
1.4279966607 1.4597299198 1.491463179 1.5231964381 1.5549296972 1.5866629564 1.6183962155 1.6501294746 1.6818627337 
1.7135959929 1.745329252 1.7770625111 1.8087957702 1.8405290294 1.8722622885 1.9039955476 1.9357288068 1.9674620659 
1.999195325 2.0309285841 2.0626618433 2.0943951024 2.1261283615 2.1578616206 2.1895948798 2.2213281389 2.253061398 
2.2847946572 2.3165279163 2.3482611754 2.3799944345 2.4117276937 2.4434609528 2.4751942119 2.506927471 2.5386607302 
2.5703939893 2.6021272484 2.6338605076 2.6655937667 2.6973270258 2.7290602849 2.7607935441 2.7925268032 2.8242600623 
2.8559933214 2.8877265806 2.9194598397 2.9511930988 2.982926358 3.0146596171 3.0463928762 3.0781261353 3.1098593945 
3.1415926536 
_radius 1 100 double
6.1266936121e-16 0.01756565862 0.034971250612 0.052057380134 0.068670525976 0.084667313792 0.099919427438 0.11431841677 0.12777948898 
0.1402434935 0.15167664679 0.16206797905 0.17142491745 0.17976778109 0.18712421111 0.19352465845 0.19899994711 0.20358156309 
0.20730468422 0.21021318388 0.21236514993 0.21383712798 0.21472547947 0.21514390406 0.21521709944 0.21507142664 0.21482406285 
0.21457233511 0.21438478462 0.21429518469 0.2143004045 0.21436272229 0.21441683103 0.21438117897 0.21417245658 0.21372129468 
0.21298703611 0.21196990947 0.21071950134 0.20933833619 0.20797882209 0.20683198221 0.20610800541 0.20601115014 0.20671359697 
0.2083333148 0.21091968887 0.21444849873 0.21882599885 0.22390067046 0.22948036136 0.23535194733 0.24130063888 0.24712669545 
0.25265824541 0.25775973839 0.26233612031 0.26633316975 0.26973464234 0.27255694882 0.27484203316 0.27664896074 0.27804460299 
0.27909386782 0.2798502217 0.28034762506 0.28059517439 0.28057548841 0.28024719117 0.27955095325 0.27841778205 0.2767778795 
0.27456851929 0.27173992738 0.26825882129 0.26410979881 0.25929500068 0.25383240383 0.24775288116 0.24109600776 0.23390468102 
0.2262189892 0.21807024952 0.20947644451 0.20044014163 0.1909493342 0.18098073872 0.17050435812 0.15948793433 0.14790035159 
0.13571388241 0.12290597422 0.10946165844 0.095377430808 0.080666690922 0.065365869213 0.049539624243 0.03328328179 0.016721114853 
5.4485007015e-16 
_area 1 100 double
0 0.00072001967193 0.0028751268687 0.0064440232462 0.011372358676 0.017552805944 0.024810585775 0.032901114909 0.041522060851 
0.050337582151 0.059009573654 0.067229770291 0.074747223557 0.081387231596 0.087059525273 0.091754961214 0.095531243585 0.09848975829 
0.10074801377 0.10241532454 0.10358079364 0.1043184771 0.10470727234 0.10487300029 0.10510887221 0.10531884557 0.10542363716 
0.10543548298 0.10539112819 0.1053347333 0.1053116571 0.10536464821 0.10552755046 0.10580446396 0.10617637564 0.10661394779 
0.10709615301 0.10761472396 0.10817385382 0.10879777366 0.10954062551 0.11049070428 0.11176583617 0.11350117274 0.11583579045 
0.11890021885 0.12283893226 0.12774972181 0.13356607889 0.14016569683 0.14742923291 0.15521682482 0.16338985566 0.17176680812 
0.18005860887 0.18796177059 0.19520410132 0.20156846136 0.20689216696 0.21106465362 0.21402903605 0.21578602424 0.21640009654 
0.21600721676 0.2148215508 0.21310283515 0.21121160454 0.20928904746 0.20711502019 0.20462056744 0.20175665521 0.19845075704 
0.19460720418 0.19012096738 0.18489601486 0.1788644244 0.17200356958 0.16434727584 0.15598636246 0.14705701319 0.13772022266 
0.12813868398 0.11845739623 0.10879185831 0.099224679067 0.089809012213 0.080576004643 0.071543614047 0.062725381627 0.054139063863 
0.045815393775 0.037806515952 0.030192734135 0.023086016755 0.016629104716 0.010989403633 0.0063470383541 0.0028771383866 0.00072812251379 
3.6041793656e-17 
