# vtk DataFile Version 5.1
vtk output
ASCII
DATASET POLYDATA
POINTS 100 float
0.17346 0.0908248 -0.631156 0.173495 0.0907835 -0.631254 0.173562 0.0904607 -0.631511 
0.17362 0.0898485 -0.631827 0.173602 0.0889344 -0.632049 0.17342 0.0877005 -0.631988 
0.17297 0.0861233 -0.631439 0.172142 0.0841742 -0.630201 0.170819 0.08182 -0.628104 
0.168893 0.0790249 -0.625017 0.166265 0.0757526 -0.620867 0.162853 0.0719703 -0.615641 
0.158598 0.0676523 -0.609381 0.153467 0.0627844 -0.602177 0.147454 0.0573677 -0.594152 
0.14058 0.0514224 -0.585443 0.132895 0.0449898 -0.576182 0.124471 0.0381328 -0.566479 
0.115401 0.0309352 -0.556407 0.105791 0.0234985 -0.545995 0.0957588 0.0159372 -0.535222 
0.0854221 0.00837296 -0.524025 0.0748966 0.000927686 -0.512307 0.0642884 -0.00628364 -0.499947 
0.05369 -0.0131594 -0.486822 0.043176 -0.0196168 -0.472821 0.0328015 -0.0255955 -0.457857 
0.0226009 -0.0310591 -0.441883 0.0125895 -0.0359944 -0.424893 0.00276566 -0.0404084 -0.406922 
-0.00688497 -0.0443234 -0.388045 -0.0163841 -0.0477711 -0.368364 -0.0257551 -0.0507853 -0.347996 
-0.0350163 -0.053396 -0.327057 -0.0441754 -0.0556233 -0.305653 -0.0532238 -0.0574739 -0.283864 
-0.0621322 -0.0589392 -0.261741 -0.0708485 -0.0599958 -0.239301 -0.0792968 -0.0606085 -0.216535 
-0.0873786 -0.0607353 -0.193408 -0.0949766 -0.0603341 -0.169878 -0.10196 -0.059369 -0.145904 
-0.108191 -0.0578181 -0.121461 -0.113532 -0.055679 -0.0965538 -0.117857 -0.0529729 -0.0712207 
-0.121056 -0.0497471 -0.0455417 -0.123045 -0.0460738 -0.0196358 -0.123771 -0.0420472 0.0063443 
-0.123215 -0.0377779 0.0322224 -0.121395 -0.0333859 0.057812 -0.118368 -0.028992 0.0829301 
-0.11422 -0.02471 0.107412 -0.109066 -0.0206388 0.131125 -0.103043 -0.016857 0.153973 
-0.0962999 -0.0134186 0.175908 -0.0889896 -0.010352 0.196923 -0.0812609 -0.00766176 0.217055 
-0.0732507 -0.00533174 0.236371 -0.0650783 -0.00333118 0.25496 -0.0568408 -0.0016212 0.272923 
-0.0486112 -0.000161892 0.290358 -0.0404382 0.00108132 0.307351 -0.0323482 0.00213258 0.323968 
-0.0243492 0.00300253 0.340255 -0.0164352 0.00368754 0.356231 -0.00859199 0.00417137 0.371896 
-0.000802689 0.00442894 0.387234 0.00694712 0.0044318 0.402219 0.0146652 0.00415446 0.416827 
0.0223494 0.00358089 0.431038 0.0299864 0.00271012 0.444843 0.0375516 0.00156033 0.458246 
0.04501 0.000170735 0.471267 0.052319 -0.00139913 0.483933 0.0594312 -0.00307267 0.49628 
0.0662986 -0.00476188 0.508341 0.0728753 -0.00637474 0.520139 0.0791216 -0.00782365 0.531682 
0.0850058 -0.00903387 0.542958 0.0905066 -0.00995115 0.553927 0.0956133 -0.0105475 0.564526 
0.100326 -0.0108245 0.574667 0.104654 -0.0108135 0.584246 0.108615 -0.0105731 0.593149 
0.112233 -0.0101834 0.601262 0.115532 -0.00973781 0.608482 0.118541 -0.00933371 0.614724 
0.121284 -0.00906236 0.619937 0.123785 -0.0089992 0.624104 0.126062 -0.0091959 0.627247 
0.128126 -0.00967466 0.629431 0.129987 -0.0104256 0.63076 0.131647 -0.0114077 0.631368 
0.133105 -0.0125526 0.631414 0.134355 -0.0137716 0.63107 0.135391 -0.0149649 0.630509 
0.136205 -0.016032 0.629895 0.136789 -0.0168818 0.629365 0.137137 -0.0174424 0.629028 
0.137245 -0.0176685 0.628951 
LINES 2 100
OFFSETS vtktypeint64
0 100 
CONNECTIVITY vtktypeint64
0 1 2 3 4 5 6 7 8 
9 10 11 12 13 14 15 16 17 
18 19 20 21 22 23 24 25 26 
27 28 29 30 31 32 33 34 35 
36 37 38 39 40 41 42 43 44 
45 46 47 48 49 50 51 52 53 
54 55 56 57 58 59 60 61 62 
63 64 65 66 67 68 69 70 71 
72 73 74 75 76 77 78 79 80 
81 82 83 84 85 86 87 88 89 
90 91 92 93 94 95 96 97 98 
99 
POINT_DATA 100
FIELD FieldData 3
_theta 1 100 double
0 0.031733259127 0.063466518254 0.095199777382 0.12693303651 0.15866629564 0.19039955476 0.22213281389 0.25386607302 
0.28559933214 0.31733259127 0.3490658504 0.38079910953 0.41253236865 0.44426562778 0.47599888691 0.50773214603 0.53946540516 
0.57119866429 0.60293192342 0.63466518254 0.66639844167 0.6981317008 0.72986495992 0.76159821905 0.79333147818 0.82506473731 
0.85679799643 0.88853125556 0.92026451469 0.95199777382 0.98373103294 1.0154642921 1.0471975512 1.0789308103 1.1106640695 
1.1423973286 1.1741305877 1.2058638468 1.237597106 1.2693303651 1.3010636242 1.3327968833 1.3645301425 1.3962634016 
1.4279966607 1.4597299198 1.491463179 1.5231964381 1.5549296972 1.5866629564 1.6183962155 1.6501294746 1.6818627337 
1.7135959929 1.745329252 1.7770625111 1.8087957702 1.8405290294 1.8722622885 1.9039955476 1.9357288068 1.9674620659 
1.999195325 2.0309285841 2.0626618433 2.0943951024 2.1261283615 2.1578616206 2.1895948798 2.2213281389 2.253061398 
2.2847946572 2.3165279163 2.3482611754 2.3799944345 2.4117276937 2.4434609528 2.4751942119 2.506927471 2.5386607302 
2.5703939893 2.6021272484 2.6338605076 2.6655937667 2.6973270258 2.7290602849 2.7607935441 2.7925268032 2.8242600623 
2.8559933214 2.8877265806 2.9194598397 2.9511930988 2.982926358 3.0146596171 3.0463928762 3.0781261353 3.1098593945 
3.1415926536 
_radius 1 100 double
1.0451734136e-15 0.01498057468 0.029868766482 0.044568757361 0.05898697426 0.073032634341 0.086617753694 0.099656874279 0.1120669492 
0.12376786524 0.13468394506 0.14474650194 0.15389721377 0.1620918407 0.16930369431 0.17552627982 0.18077465331 0.18508523556 
0.18851407792 0.19113384052 0.19302995114 0.19429649303 0.19503229532 0.1953375041 0.19531067513 0.19504623016 0.19463200697 
0.19414662071 0.19365643862 0.19321215844 0.19284528469 0.19256519254 0.19235784134 0.19218735577 0.19200145569 0.19174103117 
0.19135309927 0.19080508424 0.1900970826 0.18926811917 0.18839343395 0.18757316134 0.18691671765 0.18652852054 0.1864986498 
0.18689945699 0.18778741688 0.18920785453 0.19119875574 0.19379018636 0.19699829968 0.2008160627 0.20520476471 0.2100900484 
0.21536404675 0.22089272043 0.22652608155 0.23210900525 0.23749114718 0.24253531116 0.24712406604 0.2511645442 0.2545913672 
0.2573676613 0.25948415722 0.26095640071 0.26182015965 0.26212524636 0.26192818985 0.2612844367 0.26024093666 0.25883000633 
0.25706525072 0.25494008902 0.25242909405 0.24949189026 0.24607880007 0.24213698863 0.23761582771 0.23247067818 0.22666502272 
0.22017144479 0.21297208189 0.20505893017 0.19643399223 0.18710899752 0.17710440211 0.1664475635 0.15517027321 0.14330608718 
0.13088803702 0.11794730123 0.10451328276 0.090615303685 0.076285799856 0.061564484756 0.046502518653 0.031165436213 0.015633664193 
6.4203428326e-16 
_area 1 100 double
0 0.00059870936692 0.0023827469673 0.0053150415729 0.0093317463035 0.014340676059 0.020220688059 0.026821743337 0.033965290944 
0.041445783089 0.049035357704 0.056493554317 0.063582187284 0.070083316044 0.075816900426 0.080654684075 0.084527784949 0.087426868846 
0.089395323872 0.090517325616 0.090903736495 0.090678964604 0.089970955549 0.088904632843 0.087597218995 0.086153560725 0.084662048998 
0.083194598506 0.081812690773 0.080575147819 0.07954172142 0.078771688813 0.078314654903 0.078195211442 0.078405300652 0.078905278853 
0.079627914229 0.080497072607 0.081469231731 0.082563989528 0.083851669374 0.085419101801 0.087331669642 0.089612723208 0.092246780827 
0.095191389548 0.098394169851 0.10181707101 0.10546097745 0.10937768663 0.11365944744 0.1184069176 0.12368965024 0.12951800447 
0.13583513386 0.14252394527 0.14942050375 0.1563300106 0.16304479355 0.16936231695 0.17509833547 0.18009150851 0.18420269349 
0.18731759749 0.1893569383 0.19028927504 0.19013970463 0.18899094843 0.18697518015 0.18425565916 0.18100017809 0.17735325021 
0.17341599889 0.16923859295 0.1648240592 0.1601397216 0.15513226346 0.14974208233 0.14391352171 0.13760085435 0.13077281801 
0.12341762026 0.11554696705 0.10719664529 0.098423788551 0.089303831343 0.079930416954 0.070419005868 0.060911265179 0.051575066304 
0.042596205384 0.034162357294 0.02644425763 0.01958073888 0.013672334222 0.008784133376 0.004954728649 0.0022063476093 0.00055223213467 
4.2080593512e-17 
