# vtk DataFile Version 5.1
vtk output
ASCII
DATASET POLYDATA
POINTS 100 float
0.187445 0.0715309 -0.701148 0.187252 0.0715695 -0.70111 0.186732 0.0715664 -0.701063 
0.185887 0.0715219 -0.700895 0.184725 0.0714337 -0.700435 0.183249 0.0712934 -0.699472 
0.181464 0.0710832 -0.697782 0.17937 0.0707722 -0.695157 0.17696 0.0703142 -0.691425 
0.174221 0.0696466 -0.686478 0.171131 0.0686916 -0.680273 0.167661 0.0673599 -0.672843 
0.163772 0.0655553 -0.664284 0.159419 0.0631826 -0.654743 0.154557 0.0601548 -0.644397 
0.149138 0.0564023 -0.633424 0.14312 0.0518799 -0.621986 0.136474 0.0465735 -0.610204 
0.129181 0.0405038 -0.598146 0.121245 0.0337283 -0.58582 0.112688 0.0263397 -0.573178 
0.103559 0.0184622 -0.560125 0.0939239 0.0102452 -0.546535 0.0838721 0.00185511 -0.532272 
0.0735058 -0.00653302 -0.517212 0.0629358 -0.014745 -0.50126 0.0522737 -0.0226157 -0.484365 
0.0416245 -0.0299963 -0.466523 0.0310785 -0.0367594 -0.447783 0.0207059 -0.0428031 -0.428233 
0.0105525 -0.0480519 -0.407989 0.000638503 -0.0524569 -0.387175 -0.00904002 -0.0559941 -0.365907 
-0.0185063 -0.0586617 -0.344274 -0.0277956 -0.0604772 -0.322327 -0.0369458 -0.0614741 -0.300069 
-0.0459871 -0.0616994 -0.277464 -0.0549312 -0.0612102 -0.254435 -0.0637627 -0.0600725 -0.23089 
-0.0724321 -0.0583586 -0.206731 -0.0808524 -0.0561461 -0.18188 -0.0888997 -0.0535155 -0.156298 
-0.096418 -0.0505489 -0.129995 -0.103228 -0.0473276 -0.103044 -0.109139 -0.0439297 -0.075578 
-0.113963 -0.0404276 -0.0477849 -0.11753 -0.0368856 -0.0198927 -0.119705 -0.0333576 0.00784929 
-0.120395 -0.0298862 0.0351929 -0.119563 -0.026502 0.0619128 -0.117232 -0.0232245 0.0878257 
-0.113482 -0.0200642 0.112804 -0.10845 -0.0170255 0.136783 -0.102315 -0.0141104 0.15976 
-0.0952865 -0.0113225 0.181787 -0.0875919 -0.00867112 0.202957 -0.0794563 -0.00617361 0.223385 
-0.0710886 -0.00385753 0.243192 -0.062668 -0.00176043 0.262486 -0.0543344 7.18288e-05 0.281347 
-0.0461825 0.00158858 0.299823 -0.0382616 0.00273919 0.317924 -0.0305785 0.00347876 0.335629 
-0.0231059 0.00377396 0.352896 -0.0157925 0.00360832 0.369673 -0.00857498 0.0029862 0.385916 
-0.00139101 0.00193481 0.401599 0.00580998 0.000503984 0.416728 0.0130575 -0.0012364 0.431344 
0.0203543 -0.0032013 0.44552 0.0276738 -0.00529711 0.459358 0.0349615 -0.00742922 0.472974 
0.0421398 -0.00950998 0.486484 0.049115 -0.0114657 0.499987 0.0557864 -0.0132426 0.513545 
0.0620557 -0.0148099 0.527179 0.0678362 -0.016161 0.540852 0.0730603 -0.0173123 0.554475 
0.0776853 -0.0182981 0.567911 0.081696 -0.0191657 0.580986 0.085105 -0.0199682 0.593507 
0.0879505 -0.0207567 0.605278 0.0902916 -0.0215746 0.616123 0.0922025 -0.0224517 0.625901 
0.0937655 -0.0234017 0.63452 0.0950639 -0.024421 0.64194 0.0961759 -0.0254904 0.64818 
0.0971693 -0.0265784 0.65331 0.0980976 -0.0276465 0.65744 0.0989979 -0.0286547 0.660707 
0.0998905 -0.0295668 0.663262 0.10078 -0.0303556 0.66525 0.101657 -0.0310054 0.666803 
0.102501 -0.0315141 0.66803 0.103285 -0.0318917 0.669011 0.103979 -0.0321582 0.669797 
0.104552 -0.0323399 0.670418 0.104977 -0.0324639 0.670883 0.105232 -0.0325544 0.671194 
0.105304 -0.032628 0.671347 
LINES 2 100
OFFSETS vtktypeint64
0 100 
CONNECTIVITY vtktypeint64
0 1 2 3 4 5 6 7 8 
9 10 11 12 13 14 15 16 17 
18 19 20 21 22 23 24 25 26 
27 28 29 30 31 32 33 34 35 
36 37 38 39 40 41 42 43 44 
45 46 47 48 49 50 51 52 53 
54 55 56 57 58 59 60 61 62 
63 64 65 66 67 68 69 70 71 
72 73 74 75 76 77 78 79 80 
81 82 83 84 85 86 87 88 89 
90 91 92 93 94 95 96 97 98 
99 
POINT_DATA 100
FIELD FieldData 3
_theta 1 100 double
0 0.031733259127 0.063466518254 0.095199777382 0.12693303651 0.15866629564 0.19039955476 0.22213281389 0.25386607302 
0.28559933214 0.31733259127 0.3490658504 0.38079910953 0.41253236865 0.44426562778 0.47599888691 0.50773214603 0.53946540516 
0.57119866429 0.60293192342 0.63466518254 0.66639844167 0.6981317008 0.72986495992 0.76159821905 0.79333147818 0.82506473731 
0.85679799643 0.88853125556 0.92026451469 0.95199777382 0.98373103294 1.0154642921 1.0471975512 1.0789308103 1.1106640695 
1.1423973286 1.1741305877 1.2058638468 1.237597106 1.2693303651 1.3010636242 1.3327968833 1.3645301425 1.3962634016 
1.4279966607 1.4597299198 1.491463179 1.5231964381 1.5549296972 1.5866629564 1.6183962155 1.6501294746 1.6818627337 
1.7135959929 1.745329252 1.7770625111 1.8087957702 1.8405290294 1.8722622885 1.9039955476 1.9357288068 1.9674620659 
1.999195325 2.0309285841 2.0626618433 2.0943951024 2.1261283615 2.1578616206 2.1895948798 2.2213281389 2.253061398 
2.2847946572 2.3165279163 2.3482611754 2.3799944345 2.4117276937 2.4434609528 2.4751942119 2.506927471 2.5386607302 
2.5703939893 2.6021272484 2.6338605076 2.6655937667 2.6973270258 2.7290602849 2.7607935441 2.7925268032 2.8242600623 
2.8559933214 2.8877265806 2.9194598397 2.9511930988 2.982926358 3.0146596171 3.0463928762 3.0781261353 3.1098593945 
3.1415926536 
_radius 1 100 double
7.1143122604e-16 0.015159592355 0.030097151805 0.044616827333 0.058569639548 0.0718631015 0.084457930144 0.096353127445 0.10756396381 
0.11809936017 0.12794499368 0.13705618702 0.14536128437 0.15277316842 0.15920486374 0.16458507092 0.16887060531 0.17205439887 
0.1741692901 0.17528876807 0.17552592293 0.17503118685 0.17398843587 0.17260821996 0.17111677304 0.16974023622 0.1686850603 
0.16811731321 0.16814479285 0.16880567495 0.17006578116 0.17182424672 0.17392565243 0.17617632654 0.17836333566 0.18027577095 
0.18172817706 0.18258475269 0.18278090894 0.18233743578 0.18136293502 0.18004228364 0.17861219796 0.1773288602 0.17643568503 
0.17613938548 0.17659830252 0.17792059976 0.180165744 0.18334335811 0.18740810477 0.19225439476 0.19771691195 0.20358091899 
0.20960199453 0.21553134734 0.22114158823 0.22624835577 0.23072458816 0.23450593759 0.2375874937 0.24001335451 0.24186147729 
0.24322659928 0.24420388363 0.24487543512 0.24530108615 0.24551402484 0.24552105359 0.24530663067 0.2448394154 0.24407981856 
0.24298703208 0.24152417321 0.239660556 0.23737072072 0.23463065538 0.23141246047 0.22767927589 0.22338235766 0.21846165316 
0.21285020369 0.2064815493 0.19929844467 0.19126092364 0.18235212316 0.17258107965 0.16198257005 0.15061464642 0.13855465928 
0.12589437907 0.1127345419 0.099178968806 0.085328424075 0.071274559293 0.057094542722 0.042847170543 0.028571273153 0.01428698947 
1.1726887456e-15 
_area 1 100 double
0 0.00051428568312 0.0020449124441 0.0045543706473 0.0079783325308 0.012225488316 0.017180466838 0.022709851435 0.028669440553 
0.03490999139 0.04127920498 0.047619583966 0.053764463134 0.059536657542 0.06475401944 0.069243132286 0.072858172874 0.075499547888 
0.077127631581 0.077769505354 0.077518689028 0.076528451172 0.074998989183 0.07315859282 0.071240076289 0.069456891964 0.06798552885 
0.066957483279 0.066454703683 0.066495179533 0.067027777122 0.067965320752 0.069228220181 0.070825111879 0.072594962192 0.074436929119 
0.076248296077 0.077910807641 0.079366664389 0.080609065317 0.081675387018 0.082628215293 0.083543960299 0.084502933171 0.085577067073 
0.086824478151 0.088303978053 0.090110175183 0.092401753034 0.095372885472 0.099180129932 0.10389736 0.10950126802 0.11587529566 
0.12281727527 0.13004451816 0.13721111996 0.14394881015 0.14992361392 0.15488925559 0.15872162019 0.16142902479 0.16314135838 
0.16408110275 0.16450898445 0.16463888932 0.1645688995 0.16428927466 0.16373736175 0.16284459802 0.16156346245 0.15987830556 
0.15780380159 0.15537410997 0.15262536605 0.14957453262 0.14619999596 0.14243229956 0.13816207554 0.13326425557 0.12762924494 
0.12119025859 0.11394042638 0.10593794867 0.097299892039 0.088186354145 0.078778902612 0.069260791371 0.059807388369 0.050587974174 
0.041769703626 0.03351447798 0.025969059629 0.01925514361 0.013464851831 0.0086627020847 0.0048916835395 0.0021799897368 0.00054588388681 
8.3516501406e-17 
