# vtk DataFile Version 5.1
vtk output
ASCII
DATASET POLYDATA
POINTS 100 float
0.145524 0.075144 -0.65452 0.145844 0.0751385 -0.654628 0.146776 0.0749752 -0.6549 
0.148237 0.0746536 -0.655248 0.150097 0.0741723 -0.655534 0.15219 0.0735271 -0.655587 
0.154336 0.0727087 -0.655219 0.15635 0.0717012 -0.654241 0.15806 0.0704801 -0.65249 
0.15932 0.0690124 -0.649834 0.160016 0.0672567 -0.646191 0.160068 0.0651649 -0.641529 
0.15943 0.062685 -0.635869 0.158081 0.059765 -0.629274 0.156017 0.0563573 -0.621842 
0.153242 0.0524235 -0.613692 0.149756 0.0479389 -0.604944 0.145552 0.0428964 -0.595705 
0.140614 0.0373093 -0.58606 0.134913 0.031213 -0.576059 0.12842 0.024665 -0.565713 
0.121111 0.0177432 -0.554997 0.112979 0.0105435 -0.543855 0.104041 0.00317578 -0.532208 
0.0943535 -0.00424127 -0.519968 0.0840081 -0.0115849 -0.50705 0.0731371 -0.018734 -0.493386 
0.0619042 -0.0255735 -0.478929 0.0504941 -0.0319996 -0.463665 0.0390969 -0.0379225 -0.447611 
0.0278905 -0.0432698 -0.430815 0.0170232 -0.0479882 -0.413345 0.00659942 -0.0520437 -0.395283 
-0.00333094 -0.0554224 -0.376714 -0.0127757 -0.0581288 -0.35771 -0.0217968 -0.0601847 -0.338326 
-0.0304994 -0.0616265 -0.318589 -0.0390147 -0.0625029 -0.298495 -0.0474786 -0.062871 -0.278011 
-0.0560083 -0.0627933 -0.257078 -0.0646807 -0.0623334 -0.23562 -0.0735137 -0.0615526 -0.213558 
-0.0824547 -0.0605059 -0.190817 -0.0913766 -0.0592394 -0.167342 -0.100083 -0.0577874 -0.143106 
-0.108321 -0.0561715 -0.118122 -0.115801 -0.0544001 -0.0924426 -0.122223 -0.05247 -0.0661618 
-0.127304 -0.0503688 -0.0394125 -0.1308 -0.0480786 -0.012358 -0.132531 -0.0455814 0.0148177 
-0.132397 -0.0428635 0.0419215 -0.130381 -0.0399216 0.068763 -0.126553 -0.0367673 0.095166 
-0.121057 -0.0334304 0.120977 -0.114096 -0.0299606 0.146074 -0.105914 -0.0264276 0.170368 
-0.0967675 -0.0229179 0.193806 -0.0869105 -0.0195304 0.216366 -0.0765719 -0.0163694 0.238056 
-0.0659434 -0.0135371 0.258907 -0.055172 -0.0111245 0.278968 -0.0443599 -0.00920408 0.298296 
-0.0335687 -0.00782219 0.316952 -0.0228294 -0.0069948 0.334999 -0.0121539 -0.00670512 0.352494 
-0.00154747 -0.00690456 0.36949 0.00898089 -0.00751655 0.38603 0.0194108 -0.00844318 0.402154 
0.0297074 -0.00957375 0.417895 0.0398227 -0.0107946 0.433279 0.0497005 -0.0119991 0.448328 
0.0592849 -0.0130966 0.463059 0.0685294 -0.0140193 0.477486 0.0774058 -0.0147272 0.491612 
0.0859111 -0.0152088 0.505437 0.0940705 -0.0154797 0.518949 0.101937 -0.0155775 0.532127 
0.109584 -0.0155547 0.54494 0.117099 -0.0154704 0.557345 0.12457 -0.0153812 0.569291 
0.132074 -0.0153333 0.580721 0.139664 -0.0153564 0.591574 0.14736 -0.0154599 0.601786 
0.155143 -0.0156319 0.611302 0.162957 -0.0158417 0.62007 0.17071 -0.0160449 0.628053 
0.178286 -0.0161901 0.635228 0.185551 -0.0162267 0.641587 0.192376 -0.0161135 0.64714 
0.198639 -0.0158252 0.651915 0.204244 -0.0153572 0.655952 0.209125 -0.0147282 0.659306 
0.213253 -0.0139788 0.662038 0.216627 -0.0131685 0.664215 0.219277 -0.0123686 0.665901 
0.221248 -0.0116548 0.667156 0.222591 -0.0110981 0.668033 0.223354 -0.0107566 0.668568 
0.22357 -0.0106688 0.668786 
LINES 2 100
OFFSETS vtktypeint64
0 100 
CONNECTIVITY vtktypeint64
0 1 2 3 4 5 6 7 8 
9 10 11 12 13 14 15 16 17 
18 19 20 21 22 23 24 25 26 
27 28 29 30 31 32 33 34 35 
36 37 38 39 40 41 42 43 44 
45 46 47 48 49 50 51 52 53 
54 55 56 57 58 59 60 61 62 
63 64 65 66 67 68 69 70 71 
72 73 74 75 76 77 78 79 80 
81 82 83 84 85 86 87 88 89 
90 91 92 93 94 95 96 97 98 
99 
POINT_DATA 100
FIELD FieldData 3
_theta 1 100 double
0 0.031733259127 0.063466518254 0.095199777382 0.12693303651 0.15866629564 0.19039955476 0.22213281389 0.25386607302 
0.28559933214 0.31733259127 0.3490658504 0.38079910953 0.41253236865 0.44426562778 0.47599888691 0.50773214603 0.53946540516 
0.57119866429 0.60293192342 0.63466518254 0.66639844167 0.6981317008 0.72986495992 0.76159821905 0.79333147818 0.82506473731 
0.85679799643 0.88853125556 0.92026451469 0.95199777382 0.98373103294 1.0154642921 1.0471975512 1.0789308103 1.1106640695 
1.1423973286 1.1741305877 1.2058638468 1.237597106 1.2693303651 1.3010636242 1.3327968833 1.3645301425 1.3962634016 
1.4279966607 1.4597299198 1.491463179 1.5231964381 1.5549296972 1.5866629564 1.6183962155 1.6501294746 1.6818627337 
1.7135959929 1.745329252 1.7770625111 1.8087957702 1.8405290294 1.8722622885 1.9039955476 1.9357288068 1.9674620659 
1.999195325 2.0309285841 2.0626618433 2.0943951024 2.1261283615 2.1578616206 2.1895948798 2.2213281389 2.253061398 
2.2847946572 2.3165279163 2.3482611754 2.3799944345 2.4117276937 2.4434609528 2.4751942119 2.506927471 2.5386607302 
2.5703939893 2.6021272484 2.6338605076 2.6655937667 2.6973270258 2.7290602849 2.7607935441 2.7925268032 2.8242600623 
2.8559933214 2.8877265806 2.9194598397 2.9511930988 2.982926358 3.0146596171 3.0463928762 3.0781261353 3.1098593945 
3.1415926536 
_radius 1 100 double
1.584561412e-15 0.014756775901 0.029462725502 0.044068446401 0.058531180725 0.072813684602 0.086878624429 0.10067934764 0.11414964673 
0.12719617346 0.13969676324 0.15150608421 0.16246755012 0.17242853678 0.18125542685 0.18884585181 0.19513702754 0.2001104708 
0.20379408216 0.20626245412 0.20763555685 0.20807512635 0.20777760471 0.20696269333 0.20585754708 0.20467808453 0.20361023216 
0.20279449569 0.20231669419 0.20220618477 0.20244106964 0.20295837503 0.20366641465 0.20445663287 0.20521315026 0.20581975416 
0.20616553555 0.20615093924 0.20569528621 0.20474531605 0.20328296923 0.20133024203 0.19894962757 0.196239984 0.19332899554 
0.19036419223 0.18750454557 0.1849139388 0.18275641128 0.18119138453 0.18036600634 0.18040239415 0.18138029622 0.18331940428 
0.18616778514 0.18980151402 0.19403612626 0.19864619862 0.20338795945 0.20802109048 0.21232782137 0.21612859171 0.21929382122 
0.22175120177 0.22348788619 0.22454718791 0.22501988078 0.22503075792 0.22472166149 0.22423269835 0.22368380058 0.22315904294 
0.22269592338 0.22228098953 0.22185197814 0.22130550266 0.22050862903 0.21931247958 0.21756615971 0.2151296078 0.21188425255 
0.20774058701 0.20264204845 0.19656504934 0.18951560403 0.1815235363 0.17263550602 0.16290798365 0.15240096873 0.14117294566 
0.12927745218 0.11676164506 0.10366717121 0.090033324974 0.075901919305 0.061322743382 0.046358201498 0.031085882557 0.015598334244 
1.4019596571e-15 
_area 1 100 double
0 0.0004727334222 0.0019075744513 0.0043464901681 0.0078357826313 0.012400107935 0.018021079973 0.024625876882 0.032084913452 
0.040214380008 0.048780853195 0.057508751867 0.066093493952 0.074221953732 0.081598318072 0.087970423433 0.093151029673 0.097030141968 
0.099577163416 0.10083425227 0.10090409404 0.099935867351 0.098112427047 0.095640400051 0.092743944834 0.089662253818 0.086649148644 
0.083970314246 0.081893553807 0.08066587951 0.080594152829 0.081488466386 0.083035069452 0.084917412992 0.086829709293 0.088510882438 
0.089766671172 0.090468341358 0.090571621672 0.090152112905 0.089414531011 0.088639679748 0.088017548802 0.087567630359 0.087269462356 
0.087134300968 0.087160852584 0.087313141339 0.087576675286 0.087988408009 0.088629405931 0.089620645109 0.091123678876 0.093335914303 
0.096452983186 0.10055118393 0.10547170067 0.11087863946 0.11639075656 0.12165210168 0.12636229521 0.1302954577 0.13331139623 
0.13535739381 0.13646226224 0.13672672748 0.13630981772 0.13540400339 0.13419726843 0.13283913481 0.13142840788 0.1300160065 
0.12860869501 0.12717153206 0.1256326948 0.12389210179 0.1218328791 0.11933447759 0.11628624813 0.11259947153 0.10821569294 
0.10311088984 0.097296807751 0.090820724241 0.083764072044 0.07624011066 0.06839025118 0.060377626058 0.052376593636 0.044558674809 
0.037077910573 0.030060257428 0.023601244009 0.017773330502 0.012639950005 0.008269254853 0.0047401904871 0.002137669079 0.00053935435126 
7.450784732e-18 
