# vtk DataFile Version 5.1
vtk output
ASCII
DATASET POLYDATA
POINTS 100 float
0.0807289 0.071586 -0.73352 0.0807897 0.0714845 -0.733125 0.0809338 0.0709324 -0.731941 
0.0811514 0.0699254 -0.729921 0.0814284 0.0684591 -0.727002 0.0817495 0.0665312 -0.723108 
0.0821004 0.0641444 -0.718171 0.0824696 0.0613089 -0.712143 0.0828489 0.0580442 -0.705008 
0.0832308 0.0543805 -0.696794 0.0836051 0.0503583 -0.687571 0.0839529 0.0460267 -0.677454 
0.0842396 0.0414411 -0.666589 0.0844091 0.0366594 -0.655146 0.0843785 0.0317383 -0.643298 
0.0840366 0.0267294 -0.631206 0.0832458 0.0216763 -0.618998 0.0818489 0.0166128 -0.606759 
0.0796795 0.0115622 -0.594524 0.0765775 0.00653897 -0.582269 0.0724053 0.00155108 -0.56992 
0.067065 -0.00339603 -0.55736 0.0605136 -0.008295 -0.544443 0.0527743 -0.0131321 -0.531013 
0.0439418 -0.0178834 -0.51692 0.0341799 -0.0225123 -0.502037 0.0237129 -0.0269683 -0.486273 
0.0128085 -0.0311885 -0.469581 0.00175669 -0.0351002 -0.451959 -0.00915542 -0.0386258 -0.433448 
-0.0196688 -0.0416885 -0.414124 -0.0295749 -0.0442188 -0.394083 -0.0387326 -0.0461605 -0.37343 
-0.0470778 -0.0474764 -0.352265 -0.0546231 -0.0481519 -0.330666 -0.0614494 -0.0481967 -0.308689 
-0.0676881 -0.0476447 -0.286356 -0.0734975 -0.0465515 -0.263661 -0.0790361 -0.0449901 -0.240576 
-0.0844352 -0.0430451 -0.217055 -0.0897757 -0.0408068 -0.193054 -0.0950705 -0.0383647 -0.168535 
-0.100257 -0.0358021 -0.143481 -0.105198 -0.033192 -0.117902 -0.109694 -0.030594 -0.0918441 
-0.113504 -0.0280539 -0.0653816 -0.116372 -0.0256042 -0.0386194 -0.118055 -0.0232664 -0.0116825 
-0.118353 -0.021054 0.0152931 -0.117135 -0.0189757 0.0421715 -0.114351 -0.017039 0.0688267 
-0.110045 -0.0152522 0.0951505 -0.104348 -0.0136265 0.121058 -0.0974676 -0.012176 0.146488 
-0.089663 -0.0109169 0.171401 -0.0812213 -0.00986581 0.195778 -0.0724266 -0.00903781 0.219605 
-0.0635318 -0.00844366 0.242874 -0.0547361 -0.00808806 0.265573 -0.0461685 -0.00796824 0.287677 
-0.0378823 -0.00807373 0.309155 -0.0298577 -0.00838711 0.329961 -0.0220142 -0.00888586 0.350044 
-0.0142302 -0.0095449 0.369355 -0.00636581 -0.0103396 0.387853 0.00171256 -0.0112485 0.405516 
0.0101099 -0.0122558 0.422345 0.0188861 -0.013353 0.438373 0.0280461 -0.0145387 0.453663 
0.0375382 -0.0158178 0.468308 0.0472615 -0.0171994 0.482422 0.0570785 -0.0186936 0.49613 
0.0668337 -0.0203076 0.50956 0.0763737 -0.0220429 0.522822 0.0855658 -0.0238915 0.536004 
0.0943135 -0.0258343 0.549156 0.102566 -0.0278401 0.562285 0.11032 -0.0298668 0.575351 
0.117617 -0.0318635 0.588274 0.12453 -0.0337742 0.600934 0.13115 -0.0355419 0.613188 
0.137566 -0.0371136 0.624878 0.143853 -0.0384451 0.63585 0.150053 -0.0395042 0.645964 
0.15617 -0.040274 0.655105 0.162167 -0.0407535 0.663198 0.167969 -0.0409575 0.670205 
0.173475 -0.0409149 0.676133 0.178571 -0.0406656 0.681025 0.183146 -0.0402565 0.684959 
0.187112 -0.0397377 0.688038 0.190412 -0.0391586 0.690379 0.193031 -0.0385647 0.692108 
0.194999 -0.0379949 0.693346 0.196385 -0.037481 0.694206 0.197289 -0.0370465 0.694787 
0.197825 -0.0367084 0.695171 0.198106 -0.0364775 0.695419 0.198227 -0.0363605 0.695577 
0.198253 -0.0363609 0.695669 
LINES 2 100
OFFSETS vtktypeint64
0 100 
CONNECTIVITY vtktypeint64
0 1 2 3 4 5 6 7 8 
9 10 11 12 13 14 15 16 17 
18 19 20 21 22 23 24 25 26 
27 28 29 30 31 32 33 34 35 
36 37 38 39 40 41 42 43 44 
45 46 47 48 49 50 51 52 53 
54 55 56 57 58 59 60 61 62 
63 64 65 66 67 68 69 70 71 
72 73 74 75 76 77 78 79 80 
81 82 83 84 85 86 87 88 89 
90 91 92 93 94 95 96 97 98 
99 
POINT_DATA 100
FIELD FieldData 3
_theta 1 100 double
0 0.031733259127 0.063466518254 0.095199777382 0.12693303651 0.15866629564 0.19039955476 0.22213281389 0.25386607302 
0.28559933214 0.31733259127 0.3490658504 0.38079910953 0.41253236865 0.44426562778 0.47599888691 0.50773214603 0.53946540516 
0.57119866429 0.60293192342 0.63466518254 0.66639844167 0.6981317008 0.72986495992 0.76159821905 0.79333147818 0.82506473731 
0.85679799643 0.88853125556 0.92026451469 0.95199777382 0.98373103294 1.0154642921 1.0471975512 1.0789308103 1.1106640695 
1.1423973286 1.1741305877 1.2058638468 1.237597106 1.2693303651 1.3010636242 1.3327968833 1.3645301425 1.3962634016 
1.4279966607 1.4597299198 1.491463179 1.5231964381 1.5549296972 1.5866629564 1.6183962155 1.6501294746 1.6818627337 
1.7135959929 1.745329252 1.7770625111 1.8087957702 1.8405290294 1.8722622885 1.9039955476 1.9357288068 1.9674620659 
1.999195325 2.0309285841 2.0626618433 2.0943951024 2.1261283615 2.1578616206 2.1895948798 2.2213281389 2.253061398 
2.2847946572 2.3165279163 2.3482611754 2.3799944345 2.4117276937 2.4434609528 2.4751942119 2.506927471 2.5386607302 
2.5703939893 2.6021272484 2.6338605076 2.6655937667 2.6973270258 2.7290602849 2.7607935441 2.7925268032 2.8242600623 
2.8559933214 2.8877265806 2.9194598397 2.9511930988 2.982926358 3.0146596171 3.0463928762 3.0781261353 3.1098593945 
3.1415926536 
_radius 1 100 double
6.170545762e-16 0.015189678571 0.030080642078 0.044406146541 0.057965029489 0.070643121017 0.082422243743 0.093374699027 0.103643305 
0.1134100273 0.12285935127 0.13214427074 0.14136169025 0.15054039668 0.15964071668 0.16856276863 0.1771602763 0.18525802463 
0.19267183246 0.1992298538 0.20479338403 0.20927473412 0.21264960852 0.21496194338 0.21632023918 0.21688580803 0.21685473326 
0.21643636313 0.21583155846 0.21521360687 0.21471388424 0.21441331882 0.21433980768 0.21447112727 0.21474258308 0.21505851936 
0.2153066679 0.21537405938 0.21516291 0.21460469618 0.21367071097 0.21237785468 0.21078920426 0.20900980261 0.20717875762 
0.20545888219 0.20402476514 0.20304964821 0.20269120528 0.20307659705 0.20428806806 0.20635148578 0.20923075647 0.21283021005 
0.21700491805 0.22157663048 0.22635182846 0.23113865044 0.23576062125 0.24006641787 0.24393584144 0.24728260902 0.25005464256 
0.25223239217 0.25382552375 0.25486812072 0.2554124701 0.25552158391 0.25526086137 0.25468966169 0.25385387116 0.25278060452 
0.25147582932 0.24992498723 0.24809589056 0.24594267751 0.24340965262 0.24043433919 0.23694971774 0.23288609741 0.2281732152 
0.22274301229 0.21653321871 0.20949151009 0.2015796848 0.19277713175 0.18308289119 0.17251587509 0.16111325063 0.1489274436 
0.13602249592 0.12247047997 0.10834837231 0.093735433974 0.078710972044 0.063352431906 0.047733947572 0.031925568514 0.015993309741 
3.2185576959e-16 
_area 1 100 double
0 0.00065679879189 0.0025761286721 0.0056163291097 0.0095765047254 0.014238836549 0.019409853846 0.024949254501 0.030779587588 
0.036877397352 0.043252337726 0.04992215685 0.056889100421 0.064120379529 0.071534078335 0.078992058177 0.08630157637 0.093226564032 
0.099508121525 0.10489257834 0.10916431636 0.11217872038 0.11388887917 0.11435973812 0.11376538802 0.11236847232 0.11048500696 
0.10844125936 0.1065291739 0.10496788258 0.10388358534 0.10331222185 0.10324197685 0.10358139291 0.10419902518 0.10498528924 
0.10584538616 0.10677216192 0.10759567919 0.10836466977 0.10899400481 0.10952018992 0.10989156183 0.11014876739 0.1103627974 
0.11059054137 0.1109595879 0.11160498212 0.11267194808 0.11431272829 0.1166587496 0.11979565374 0.12375677624 0.12851922472 
0.13399682704 0.14003740146 0.14642945478 0.15291823721 0.15922837768 0.16508991947 0.17026440779 0.17456667154 0.17787807055 
0.18014980897 0.18139821607 0.18169463083 0.18115079297 0.1798994106 0.17807146519 0.17577551677 0.17308510504 0.17003679932 
0.16663759305 0.16287885642 0.15875322389 0.15426911298 0.14945624098 0.14435696394 0.13900401862 0.13339357786 0.12746829946 
0.12112298694 0.11423481244 0.10670715886 0.098509844269 0.089701586718 0.08042886912 0.070903587574 0.061367534503 0.052054767178 
0.04316339888 0.034845196148 0.027213384986 0.020359679154 0.014368637263 0.0093231715902 0.0053023398115 0.0023755768981 0.00059679434977 
8.8075973951e-17 
