# vtk DataFile Version 5.1
vtk output
ASCII
DATASET POLYDATA
POINTS 100 float
0.171278 0.0402537 -0.661547 0.171235 0.0402778 -0.661406 0.171102 0.0402069 -0.661035 
0.170831 0.0400463 -0.660372 0.170348 0.0398022 -0.659324 0.169564 0.0394788 -0.657774 
0.168382 0.0390744 -0.655598 0.16671 0.0385776 -0.652677 0.164472 0.0379655 -0.648914 
0.161612 0.0372018 -0.644242 0.158106 0.0362379 -0.638628 0.153956 0.0350154 -0.632083 
0.14919 0.033471 -0.624648 0.143859 0.0315423 -0.616397 0.138028 0.0291741 -0.607415 
0.131768 0.0263261 -0.597796 0.125144 0.022978 -0.587621 0.118213 0.0191343 -0.576954 
0.11102 0.0148266 -0.56583 0.103591 0.0101129 -0.55425 0.0959399 0.00507536 -0.542188 
0.0880677 -0.000184988 -0.529589 0.0799722 -0.00555493 -0.516382 0.0716518 -0.0109167 -0.502492 
0.063112 -0.0161557 -0.487846 0.05437 -0.0211677 -0.472391 0.0454563 -0.0258645 -0.456099 
0.0364151 -0.0301772 -0.43897 0.0273004 -0.034058 -0.421038 0.0181712 -0.0374794 -0.40236 
0.00908507 -0.040431 -0.383017 9.16523e-05 -0.0429163 -0.363099 -0.00877289 -0.044947 -0.342693 
-0.017489 -0.0465392 -0.321877 -0.0260541 -0.0477087 -0.300705 -0.0344796 -0.0484689 -0.279209 
-0.0427844 -0.0488295 -0.257389 -0.0509866 -0.0487968 -0.235223 -0.0590933 -0.0483758 -0.212669 
-0.0670905 -0.047573 -0.189678 -0.0749343 -0.0463998 -0.166204 -0.0825458 -0.0448756 -0.142217 
-0.0898094 -0.0430296 -0.117712 -0.0965763 -0.0409026 -0.0927218 -0.102672 -0.0385454 -0.0673139 
-0.107909 -0.0360175 -0.0415961 -0.112101 -0.0333828 -0.0157086 -0.115082 -0.0307052 0.0101844 
-0.116718 -0.0280441 0.0359069 -0.116927 -0.025449 0.061284 -0.11568 -0.022957 0.0861563 
-0.113014 -0.0205894 0.110391 -0.109026 -0.0183527 0.13389 -0.103867 -0.0162393 0.156596 
-0.097727 -0.0142316 0.178494 -0.090824 -0.0123066 0.199605 -0.0833818 -0.0104414 0.219979 
-0.0756139 -0.00861884 0.239686 -0.0677072 -0.00683244 0.258805 -0.0598108 -0.0050898 0.27741 
-0.0520279 -0.00341426 0.295567 -0.0444151 -0.0018444 0.313317 -0.036986 -0.000431352 0.330684 
-0.0297196 0.000765553 0.347666 -0.0225722 0.0016846 0.364243 -0.015491 0.00226805 0.380382 
-0.00842742 0.0024684 0.396047 -0.00134849 0.0022538 0.411204 0.00575475 0.00161196 0.425832 
0.0128631 0.000552155 0.439924 0.0199297 -0.000894909 0.453496 0.0268842 -0.00267924 0.466583 
0.0336407 -0.00473548 0.479236 0.0401078 -0.00698813 0.491516 0.0461988 -0.00935731 0.503488 
0.051842 -0.0117646 0.515208 0.0569878 -0.0141383 0.52672 0.0616138 -0.0164173 0.538042 
0.0657254 -0.0185537 0.549165 0.069354 -0.0205142 0.560051 0.0725511 -0.0222789 0.57063 
0.0753811 -0.0238405 0.580811 0.0779131 -0.025201 0.590481 0.0802123 -0.0263694 0.599521 
0.0823335 -0.0273586 0.607813 0.084316 -0.0281829 0.615252 0.0861823 -0.0288568 0.621756 
0.0879381 -0.0293935 0.627272 0.0895755 -0.0298052 0.631783 0.091078 -0.0301036 0.635311 
0.0924257 -0.030301 0.637917 0.0936005 -0.0304104 0.639694 0.0945911 -0.0304475 0.640766 
0.0953949 -0.0304298 0.641274 0.0960194 -0.0303769 0.641371 0.0964805 -0.0303095 0.641209 
0.0967996 -0.030248 0.640929 0.0969998 -0.0302106 0.640652 0.0971014 -0.0302119 0.640472 
0.0971186 -0.0302611 0.640444 
LINES 2 100
OFFSETS vtktypeint64
0 100 
CONNECTIVITY vtktypeint64
0 1 2 3 4 5 6 7 8 
9 10 11 12 13 14 15 16 17 
18 19 20 21 22 23 24 25 26 
27 28 29 30 31 32 33 34 35 
36 37 38 39 40 41 42 43 44 
45 46 47 48 49 50 51 52 53 
54 55 56 57 58 59 60 61 62 
63 64 65 66 67 68 69 70 71 
72 73 74 75 76 77 78 79 80 
81 82 83 84 85 86 87 88 89 
90 91 92 93 94 95 96 97 98 
99 
POINT_DATA 100
FIELD FieldData 3
_theta 1 100 double
0 0.031733259127 0.063466518254 0.095199777382 0.12693303651 0.15866629564 0.19039955476 0.22213281389 0.25386607302 
0.28559933214 0.31733259127 0.3490658504 0.38079910953 0.41253236865 0.44426562778 0.47599888691 0.50773214603 0.53946540516 
0.57119866429 0.60293192342 0.63466518254 0.66639844167 0.6981317008 0.72986495992 0.76159821905 0.79333147818 0.82506473731 
0.85679799643 0.88853125556 0.92026451469 0.95199777382 0.98373103294 1.0154642921 1.0471975512 1.0789308103 1.1106640695 
1.1423973286 1.1741305877 1.2058638468 1.237597106 1.2693303651 1.3010636242 1.3327968833 1.3645301425 1.3962634016 
1.4279966607 1.4597299198 1.491463179 1.5231964381 1.5549296972 1.5866629564 1.6183962155 1.6501294746 1.6818627337 
1.7135959929 1.745329252 1.7770625111 1.8087957702 1.8405290294 1.8722622885 1.9039955476 1.9357288068 1.9674620659 
1.999195325 2.0309285841 2.0626618433 2.0943951024 2.1261283615 2.1578616206 2.1895948798 2.2213281389 2.253061398 
2.2847946572 2.3165279163 2.3482611754 2.3799944345 2.4117276937 2.4434609528 2.4751942119 2.506927471 2.5386607302 
2.5703939893 2.6021272484 2.6338605076 2.6655937667 2.6973270258 2.7290602849 2.7607935441 2.7925268032 2.8242600623 
2.8559933214 2.8877265806 2.9194598397 2.9511930988 2.982926358 3.0146596171 3.0463928762 3.0781261353 3.1098593945 
3.1415926536 
_radius 1 100 double
9.0814720747e-16 0.014195607775 0.028282181939 0.042155103327 0.055720434669 0.068897277486 0.081617409643 0.093822541231 0.10546013398 
0.11647904708 0.12682622598 0.13644529326 0.14527737932 0.15326401629 0.16035154379 0.1664963009 0.17166988948 0.17586392423 
0.17909384597 0.18140149122 0.18285614567 0.18355378301 0.18361417246 0.18317561467 0.18238729412 0.18139961805 0.18035338062 
0.17936902594 0.17853753082 0.17791435084 0.17751742063 0.17732947252 0.17730418434 0.17737515911 0.17746659222 0.17750458601 
0.17742820101 0.1771993237 0.17681026702 0.17628784768 0.17569276131 0.17511365762 0.17465648854 0.17443123384 0.17453934819 
0.17506523945 0.17607323137 0.17760866157 0.17969995211 0.18235882127 0.18557772368 0.18932569419 0.19354491868 0.19815023184 
0.20303271545 0.20806728726 0.21312310831 0.21807498897 0.22281378336 0.22725401672 0.23133760497 0.23503333532 0.23833258539 
0.24124238935 0.24377728432 0.24595134547 0.24777151158 0.24923287365 0.25031621959 0.25098788185 0.25120178511 0.25090343306 
0.25003534521 0.2485431947 0.24638171034 0.2435193841 0.23994120534 0.23564901022 0.23065953115 0.22500072965 0.21870731962 
0.21181638622 0.20436367697 0.19638067162 0.18789220579 0.17891442726 0.16945318256 0.15950333616 0.14904971379 0.13807014807 
0.12654054297 0.11444123086 0.10176347974 0.088514979243 0.074723449138 0.060438001468 0.045728356396 0.0306823306 0.015402138744 
8.6115816203e-16 
_area 1 100 double
0 0.00048585751798 0.0019392025424 0.004347045075 0.0076862251027 0.011919902364 0.016991408055 0.022816241663 0.029274482146 
0.036206703049 0.043416085975 0.05067779886 0.057754404007 0.064414046708 0.070447378716 0.075679989722 0.079979203311 0.083256509365 
0.08546851049 0.086619184899 0.086764400332 0.086016596573 0.084543981937 0.082555759306 0.080271351311 0.077892453587 0.075594629359 
0.073529010563 0.07182058543 0.070559322739 0.06978855774 0.06949592931 0.069616415973 0.070053538081 0.070708548806 0.071501730681 
0.072379949473 0.073312388208 0.074280718791 0.075275186144 0.076300759739 0.077383770499 0.078572069285 0.079929468036 0.081513024573 
0.083320151352 0.085293742726 0.087397048902 0.089655481643 0.092163111409 0.095058436946 0.098478413688 0.10252320665 0.10724016629 
0.11260965761 0.11853195533 0.12482825341 0.13126115712 0.13756827369 0.14349831942 0.1488416418 0.15345141834 0.15725466671 
0.16025362289 0.16251980811 0.16418594599 0.16543506271 0.16642604629 0.16714632155 0.16745792691 0.16721072186 0.16627260835 
0.16453838355 0.16193712529 0.15843671833 0.15404503666 0.14880854957 0.14280828236 0.13615211624 0.12896339903 0.12136814309 
0.11348425822 0.10541507365 0.097246852781 0.089048135201 0.080869149418 0.072742132655 0.064685816791 0.056716427996 0.048863042746 
0.041181343189 0.033760551884 0.02672198392 0.020210539559 0.014381639584 0.0093865478607 0.0053591483325 0.0024066707898 0.00060534378028 
3.3757513592e-17 
