# vtk DataFile Version 5.1
vtk output
ASCII
DATASET POLYDATA
POINTS 100 float
0.143734 0.0408627 -0.68276 0.143626 0.0409289 -0.682018 0.143255 0.0410002 -0.679964 
0.142584 0.0410369 -0.676679 0.141559 0.0409774 -0.67229 0.140117 0.0407462 -0.666951 
0.138197 0.0402635 -0.660833 0.135751 0.0394548 -0.654103 0.132751 0.0382603 -0.646909 
0.129198 0.0366417 -0.639367 0.125119 0.0345859 -0.63155 0.120569 0.0321063 -0.623486 
0.115623 0.0292393 -0.61516 0.110368 0.0260393 -0.606517 0.104891 0.0225709 -0.597475 
0.0992677 0.0189003 -0.587934 0.0935554 0.0150879 -0.577795 0.0877835 0.0111813 -0.566966 
0.0819529 0.00721187 -0.555377 0.0760372 0.00319386 -0.542983 0.0699884 -0.000873349 -0.52977 
0.0637459 -0.00500005 -0.515748 0.0572479 -0.00919921 -0.500952 0.0504417 -0.0134786 -0.485432 
0.0432944 -0.017833 -0.469242 0.0357992 -0.0222384 -0.452434 0.0279789 -0.0266486 -0.435048 
0.0198842 -0.0309942 -0.417112 0.0115887 -0.0351864 -0.398635 0.00318014 -0.0391225 -0.379611 
-0.00525007 -0.0426942 -0.360022 -0.0136174 -0.0457978 -0.339847 -0.0218534 -0.0483436 -0.319063 
-0.0299113 -0.0502644 -0.297662 -0.037768 -0.0515218 -0.275648 -0.0454212 -0.0521098 -0.253045 
-0.0528817 -0.0520539 -0.229897 -0.0601633 -0.0514075 -0.206268 -0.0672696 -0.0502458 -0.182238 
-0.0741821 -0.0486567 -0.157892 -0.0808501 -0.0467316 -0.133319 -0.0871839 -0.0445566 -0.108606 
-0.0930546 -0.0422053 -0.0838242 -0.0982992 -0.0397331 -0.0590357 -0.102732 -0.0371763 -0.0342854 
-0.106158 -0.0345526 -0.00960507 -0.108399 -0.0318655 0.014983 -0.109303 -0.0291102 0.0394607 
-0.108772 -0.0262806 0.063808 -0.106771 -0.0233768 0.0879968 -0.103336 -0.0204105 0.111986 
-0.0985787 -0.0174094 0.13572 -0.092673 -0.0144184 0.159126 -0.0858464 -0.0114976 0.182121 
-0.078357 -0.00871895 0.204613 -0.0704714 -0.00615927 0.226509 -0.0624403 -0.00389353 0.247723 
-0.0544771 -0.00198715 0.268187 -0.0467401 -0.000489631 0.28785 -0.039323 0.000570171 0.306692 
-0.0322516 0.00118623 0.324717 -0.0254899 0.0013749 0.341958 -0.0189521 0.00117192 0.358471 
-0.0125213 0.000627303 0.374328 -0.00607018 -0.000201049 0.38961 0.000517602 -0.00125404 0.404401 
0.0073282 -0.0024775 0.418777 0.0144035 -0.00382683 0.432802 0.0217334 -0.00526959 0.446524 
0.029255 -0.00678572 0.459972 0.0368597 -0.00836564 0.473158 0.0444052 -0.0100064 0.486077 
0.0517322 -0.011707 0.498717 0.0586835 -0.0134633 0.511055 0.0651211 -0.0152636 0.523068 
0.0709415 -0.0170864 0.534735 0.0760854 -0.0188993 0.546033 0.0805419 -0.0206605 0.556944 
0.0843462 -0.022323 0.56745 0.0875717 -0.0238396 0.577529 0.0903177 -0.0251693 0.587151 
0.0926947 -0.026283 0.59628 0.0948095 -0.0271689 0.604866 0.0967522 -0.0278352 0.612849 
0.098586 -0.0283109 0.620161 0.100343 -0.0286431 0.626731 0.102023 -0.0288925 0.632491 
0.103602 -0.0291259 0.637387 0.105035 -0.0294085 0.641384 0.106273 -0.029795 0.644478 
0.107273 -0.0303227 0.646698 0.108006 -0.0310058 0.648112 0.108464 -0.0318329 0.648823 
0.108668 -0.0327682 0.648966 0.108661 -0.0337548 0.648699 0.108506 -0.0347214 0.648189 
0.108276 -0.0355918 0.6476 0.108041 -0.0362932 0.64708 0.107863 -0.0367664 0.646743 
0.107783 -0.0369724 0.646665 
LINES 2 100
OFFSETS vtktypeint64
0 100 
CONNECTIVITY vtktypeint64
0 1 2 3 4 5 6 7 8 
9 10 11 12 13 14 15 16 17 
18 19 20 21 22 23 24 25 26 
27 28 29 30 31 32 33 34 35 
36 37 38 39 40 41 42 43 44 
45 46 47 48 49 50 51 52 53 
54 55 56 57 58 59 60 61 62 
63 64 65 66 67 68 69 70 71 
72 73 74 75 76 77 78 79 80 
81 82 83 84 85 86 87 88 89 
90 91 92 93 94 95 96 97 98 
99 
POINT_DATA 100
FIELD FieldData 3
_theta 1 100 double
0 0.031733259127 0.063466518254 0.095199777382 0.12693303651 0.15866629564 0.19039955476 0.22213281389 0.25386607302 
0.28559933214 0.31733259127 0.3490658504 0.38079910953 0.41253236865 0.44426562778 0.47599888691 0.50773214603 0.53946540516 
0.57119866429 0.60293192342 0.63466518254 0.66639844167 0.6981317008 0.72986495992 0.76159821905 0.79333147818 0.82506473731 
0.85679799643 0.88853125556 0.92026451469 0.95199777382 0.98373103294 1.0154642921 1.0471975512 1.0789308103 1.1106640695 
1.1423973286 1.1741305877 1.2058638468 1.237597106 1.2693303651 1.3010636242 1.3327968833 1.3645301425 1.3962634016 
1.4279966607 1.4597299198 1.491463179 1.5231964381 1.5549296972 1.5866629564 1.6183962155 1.6501294746 1.6818627337 
1.7135959929 1.745329252 1.7770625111 1.8087957702 1.8405290294 1.8722622885 1.9039955476 1.9357288068 1.9674620659 
1.999195325 2.0309285841 2.0626618433 2.0943951024 2.1261283615 2.1578616206 2.1895948798 2.2213281389 2.253061398 
2.2847946572 2.3165279163 2.3482611754 2.3799944345 2.4117276937 2.4434609528 2.4751942119 2.506927471 2.5386607302 
2.5703939893 2.6021272484 2.6338605076 2.6655937667 2.6973270258 2.7290602849 2.7607935441 2.7925268032 2.8242600623 
2.8559933214 2.8877265806 2.9194598397 2.9511930988 2.982926358 3.0146596171 3.0463928762 3.0781261353 3.1098593945 
3.1415926536 
_radius 1 100 double
1.0327769127e-15 0.013256341378 0.026406950032 0.039362938045 0.052060353521 0.064462673548 0.076554308574 0.088326431742 0.099759221866 
0.11080629933 0.12138669491 0.1313871084 0.1406737452 0.14911029548 0.15657752135 0.16299031309 0.16830934411 0.17254599894 
0.17576067561 0.17805564531 0.17956426771 0.18043849258 0.18083632064 0.18091043439 0.18079874801 0.18061729794 0.18045570702 
0.18037530289 0.18040976105 0.18056789394 0.18083801879 0.18119323491 0.18159691765 0.18200788978 0.18238514007 0.18269241674 
0.18290314577 0.18300570626 0.18300832978 0.18294225747 0.1828617335 0.18284008836 0.18296235996 0.18331614109 0.18398307009 
0.18503314961 0.18652280268 0.18849574678 0.19098434888 0.19400896773 0.19757400887 0.20166133398 0.2062232836 0.21117815336 
0.21641036058 0.22177615766 0.22711422072 0.23225928242 0.23705645515 0.24137402364 0.24511308953 0.24821323333 0.25065405056 
0.25245286777 0.253659139 0.25434606508 0.25460000851 0.25450841933 0.25414728921 0.25356954664 0.25279611004 0.25181127647 
0.25056355295 0.24897196912 0.24693666533 0.24435160204 0.24111695805 0.23714923331 0.23238798666 0.22679910045 0.22037511807 
0.21313341249 0.20511281295 0.19636907195 0.18696940408 0.17698636399 0.16649151954 0.15554960355 0.14421396267 0.13252406213 
0.12050551732 0.10817265542 0.095533086945 0.082593347445 0.069364487131 0.055866586784 0.042131503984 0.028203576163 0.014138391576 
1.2859190464e-15 
_area 1 100 double
0 0.00048619180454 0.0019274956114 0.0042767046001 0.0074685633194 0.011433738406 0.016108186631 0.021432372071 0.027338802454 
0.033732151184 0.040470849537 0.047359283402 0.054155343269 0.060592082207 0.066407852478 0.071377720032 0.075339789784 0.078212337961 
0.080000266658 0.080791420262 0.08074423487 0.080068257712 0.078999121889 0.077770485316 0.076587302921 0.075606156086 0.074926997702 
0.074596266624 0.074617097591 0.074961901725 0.075584652222 0.076430289737 0.077439032935 0.07854764048 0.07969227997 0.080815978301 
0.081880334436 0.082878326194 0.083843479905 0.084850210435 0.086000496447 0.08739468292 0.089094482407 0.091103086104 0.093380300794 
0.095879254707 0.098584428123 0.10153838908 0.10484371961 0.10863174458 0.1130172993 0.11807519354 0.12383585221 0.13027276409 
0.13728101011 0.14466578235 0.15215377913 0.15942625092 0.16616327336 0.17208737347 0.17699743684 0.1807873258 0.18344686547 
0.18504629674 0.18570965602 0.18558667707 0.1848316306 0.18358923149 0.18198174495 0.18009446167 0.17796266735 0.17556544958 
0.17283010339 0.16964769568 0.1658967498 0.16146899403 0.15629029716 0.15033218647 0.14361325587 0.13619276206 0.12815981034 
0.1196214654 0.11069247359 0.10148816433 0.092120829875 0.08269895888 0.073328274951 0.064113395883 0.055158976208 0.046569588119 
0.03844829842 0.030894460197 0.024001319901 0.017853817362 0.012526777907 0.008083646844 0.004575857459 0.0020427795043 0.00051204599692 
3.6535970105e-17 
