# vtk DataFile Version 5.1
vtk output
ASCII
DATASET POLYDATA
POINTS 100 float
0.224834 0.0783389 -0.643808 0.224627 0.0783778 -0.643702 0.223996 0.0783179 -0.643426 
0.222951 0.0781325 -0.642926 0.221503 0.07778 -0.642118 0.21966 0.0772081 -0.640897 
0.217431 0.0763592 -0.639149 0.214815 0.0751756 -0.636762 0.2118 0.073605 -0.633639 
0.208361 0.0716051 -0.629707 0.204461 0.0691469 -0.624923 0.200048 0.0662165 -0.619279 
0.195061 0.0628151 -0.612797 0.189432 0.0589577 -0.605531 0.183095 0.0546707 -0.597551 
0.17599 0.049988 -0.588939 0.168073 0.0449479 -0.579776 0.159322 0.0395896 -0.570131 
0.149741 0.0339507 -0.560051 0.139368 0.0280656 -0.549558 0.12827 0.021966 -0.538642 
0.116546 0.0156818 -0.527262 0.104323 0.00924333 -0.515355 0.0917429 0.00268455 -0.502837 
0.0789606 -0.00395378 -0.489613 0.0661283 -0.0106213 -0.475591 0.0533869 -0.0172562 -0.460688 
0.0408564 -0.0237845 -0.44484 0.0286278 -0.030121 -0.428008 0.016759 -0.0361718 -0.410181 
0.00527391 -0.0418385 -0.391379 -0.00583441 -0.0470233 -0.371647 -0.0165971 -0.051635 -0.351053 
-0.0270594 -0.0555944 -0.329682 -0.0372685 -0.05884 -0.307625 -0.0472607 -0.061332 -0.284978 
-0.0570494 -0.0630545 -0.261831 -0.0666146 -0.0640162 -0.238265 -0.0758966 -0.0642486 -0.214355 
-0.0847938 -0.0638032 -0.190161 -0.0931658 -0.0627463 -0.16574 -0.100841 -0.0611535 -0.141142 
-0.107628 -0.0591038 -0.116419 -0.113334 -0.0566737 -0.0916294 -0.117779 -0.0539327 -0.066838 
-0.120815 -0.0509399 -0.042122 -0.122341 -0.0477427 -0.0175696 -0.122314 -0.0443765 0.0067216 
-0.120759 -0.0408672 0.0306489 -0.117766 -0.037234 0.0541096 -0.113488 -0.0334932 0.0770077 
-0.10813 -0.029663 0.0992608 -0.10193 -0.0257669 0.120806 -0.0951471 -0.0218368 0.141604 
-0.0880348 -0.0179145 0.161645 -0.0808261 -0.014052 0.180943 -0.0737153 -0.0103094 0.199542 
-0.0668464 -0.00675204 0.217502 -0.0603063 -0.00344594 0.234902 -0.0541243 -0.00045294 0.251827 
-0.048277 0.0021745 0.268361 -0.0426992 0.00439795 0.284582 -0.0372972 0.0061966 0.300553 
-0.0319656 0.00756937 0.316319 -0.0266031 0.00853535 0.331905 -0.021127 0.00913234 0.347316 
-0.0154843 0.00941377 0.362541 -0.0096588 0.00944415 0.377554 -0.00367248 0.00929366 0.392322 
0.00241751 0.00903227 0.406809 0.00852624 0.0087241 0.420982 0.0145516 0.00842254 0.434817 
0.0203864 0.00816647 0.448298 0.0259306 0.0079781 0.461422 0.0311019 0.00786249 0.474195 
0.0358435 0.0078087 0.486632 0.0401283 0.00779243 0.49875 0.0439593 0.00777989 0.510562 
0.0473654 0.00773221 0.522078 0.0503953 0.00761027 0.533292 0.0531082 0.00737914 0.544186 
0.0555647 0.00701184 0.554723 0.057818 0.00649208 0.564852 0.0599067 0.00581576 0.574507 
0.061851 0.00499112 0.583613 0.0636518 0.00403767 0.592093 0.0652925 0.00298405 0.599872 
0.0667451 0.00186519 0.606888 0.0679763 0.000719095 0.613096 0.068956 -0.000416475 0.618473 
0.0696645 -0.00150685 0.623024 0.0700985 -0.00252276 0.626777 0.0702744 -0.00344178 0.629789 
0.0702286 -0.00424884 0.632134 0.0700152 -0.00493596 0.633903 0.0697003 -0.00550107 0.635193 
0.0693546 -0.00594648 0.636098 0.0690448 -0.00627691 0.636702 0.0688256 -0.00649763 0.637071 
0.0687328 -0.00661292 0.637247 
LINES 2 100
OFFSETS vtktypeint64
0 100 
CONNECTIVITY vtktypeint64
0 1 2 3 4 5 6 7 8 
9 10 11 12 13 14 15 16 17 
18 19 20 21 22 23 24 25 26 
27 28 29 30 31 32 33 34 35 
36 37 38 39 40 41 42 43 44 
45 46 47 48 49 50 51 52 53 
54 55 56 57 58 59 60 61 62 
63 64 65 66 67 68 69 70 71 
72 73 74 75 76 77 78 79 80 
81 82 83 84 85 86 87 88 89 
90 91 92 93 94 95 96 97 98 
99 
POINT_DATA 100
FIELD FieldData 3
_theta 1 100 double
0 0.031733259127 0.063466518254 0.095199777382 0.12693303651 0.15866629564 0.19039955476 0.22213281389 0.25386607302 
0.28559933214 0.31733259127 0.3490658504 0.38079910953 0.41253236865 0.44426562778 0.47599888691 0.50773214603 0.53946540516 
0.57119866429 0.60293192342 0.63466518254 0.66639844167 0.6981317008 0.72986495992 0.76159821905 0.79333147818 0.82506473731 
0.85679799643 0.88853125556 0.92026451469 0.95199777382 0.98373103294 1.0154642921 1.0471975512 1.0789308103 1.1106640695 
1.1423973286 1.1741305877 1.2058638468 1.237597106 1.2693303651 1.3010636242 1.3327968833 1.3645301425 1.3962634016 
1.4279966607 1.4597299198 1.491463179 1.5231964381 1.5549296972 1.5866629564 1.6183962155 1.6501294746 1.6818627337 
1.7135959929 1.745329252 1.7770625111 1.8087957702 1.8405290294 1.8722622885 1.9039955476 1.9357288068 1.9674620659 
1.999195325 2.0309285841 2.0626618433 2.0943951024 2.1261283615 2.1578616206 2.1895948798 2.2213281389 2.253061398 
2.2847946572 2.3165279163 2.3482611754 2.3799944345 2.4117276937 2.4434609528 2.4751942119 2.506927471 2.5386607302 
2.5703939893 2.6021272484 2.6338605076 2.6655937667 2.6973270258 2.7290602849 2.7607935441 2.7925268032 2.8242600623 
2.8559933214 2.8877265806 2.9194598397 2.9511930988 2.982926358 3.0146596171 3.0463928762 3.0781261353 3.1098593945 
3.1415926536 
_radius 1 100 double
8.0155488237e-16 0.016306722462 0.032446864407 0.048261977047 0.063611752281 0.078380502269 0.092480749599 0.10585331478 0.11846371573 
0.13029526846 0.14133991139 0.15158833177 0.16102129923 0.16960407861 0.17728534038 0.18400115862 0.18968365821 0.19427290885 
0.19773002433 0.20004925721 0.20126715915 0.20146744612 0.2007808616 0.19937991013 0.19746877078 0.19526902325 0.19300212751 
0.19087001462 0.18903575313 0.18760698794 0.18662539441 0.18606521843 0.18584262662 0.18583518812 0.18590820859 0.1859429027 
0.18586100957 0.18564122016 0.18532435398 0.18500651086 0.18482229591 0.18492292449 0.18545520143 0.18654602355 0.18829373624 
0.19076448327 0.19399041893 0.19796735143 0.20265107883 0.20795361824 0.2137421215 0.21984356508 0.22605668382 0.23216989923 
0.23798189933 0.24332102221 0.24806033321 0.25212646903 0.255501477 0.25821788287 0.26034804112 0.26198941291 0.26324776518 
0.26422042281 0.26498166146 0.26557207722 0.26599325947 0.26620833014 0.26614800772 0.26572100098 0.26482692029 0.26336961969 
0.26126896433 0.25846941147 0.25494441983 0.2506964558 0.24575310219 0.24016034221 0.23397437217 0.22725326897 0.22004957948 
0.21240454869 0.20434439066 0.19587878773 0.1870016449 0.17769395373 0.16792839467 0.15767507496 0.14690764852 0.135609049 
0.1237761518 0.1114227932 0.098580692592 0.085298021226 0.071635730398 0.057662272409 0.043447845065 0.029059529116 0.014558511258 
3.2786255854e-16 
_area 1 100 double
0 0.00062556828367 0.0024927955981 0.0055694200673 0.0097918601025 0.015058451531 0.021229705305 0.02813659933 0.035593896567 
0.043413625275 0.051414365268 0.059424069727 0.067276828593 0.074806410415 0.081840904794 0.088202735508 0.093716488231 0.098223909627 
0.10160241536 0.10378202071 0.10475646037 0.1045866495 0.10339703257 0.10136681194 0.098718567864 0.095706195079 0.092601682418 
0.089677522109 0.087181087979 0.085299322178 0.084125218453 0.083648299636 0.083771460543 0.084339025277 0.08517023789 0.086114808625 
0.087113170115 0.088219642237 0.089542722979 0.091148945721 0.093047744421 0.095244555926 0.097797017968 0.10070097721 0.10386375962 
0.1073146953 0.11115902296 0.11555671927 0.120683675 0.12667153824 0.13355326255 0.14123901035 0.14952594495 0.15813211359 
0.16673947947 0.17503553401 0.18274921175 0.18967637577 0.19568691612 0.20071034134 0.2047211735 0.20774941621 0.20987134231 
0.21117357297 0.21174508004 0.21169669047 0.21111866027 0.2099595276 0.20823593126 0.20591362083 0.20295320172 0.19935383409 
0.19500840144 0.18983862202 0.18383762202 0.17704723716 0.16954135839 0.16141517444 0.15277739026 0.14374394862 0.13443208394 
0.12495391893 0.11540957439 0.10588070605 0.0964262337 0.087082363922 0.077868332391 0.06879752937 0.059891584165 0.051193715503 
0.042777724855 0.034750076009 0.027244122676 0.020407558592 0.014386213876 0.0093085895792 0.0052752635494 0.0023554563664 0.00059031888946 
2.3478054279e-17 
