# vtk DataFile Version 5.1
vtk output
ASCII
DATASET POLYDATA
POINTS 100 float
0.109297 0.142774 -0.70866 0.109142 0.142628 -0.708255 0.108649 0.141955 -0.707031 
0.107839 0.140726 -0.704983 0.106742 0.138897 -0.702109 0.105402 0.13642 -0.698415 
0.103875 0.133247 -0.693915 0.102222 0.129343 -0.688642 0.100511 0.124689 -0.682644 
0.0988087 0.119291 -0.675992 0.0971747 0.11318 -0.668768 0.0956538 0.106412 -0.661065 
0.0942689 0.0990677 -0.652978 0.0930149 0.0912436 -0.644592 0.0918535 0.0830455 -0.635972 
0.0907115 0.0745802 -0.627154 0.0894827 0.065948 -0.618137 0.0880324 0.0572365 -0.608881 
0.0862071 0.0485162 -0.599308 0.0838459 0.03984 -0.589304 0.0807947 0.0312449 -0.578732 
0.0769204 0.0227559 -0.567444 0.072124 0.0143927 -0.555295 0.0663518 0.0061763 -0.542159 
0.0596016 -0.00186366 -0.527941 0.0519244 -0.00968381 -0.512587 0.0434212 -0.0172235 -0.496092 
0.0342341 -0.0244046 -0.478496 0.0245334 -0.0311338 -0.459883 0.0145028 -0.0373081 -0.440369 
0.00432271 -0.0428226 -0.420089 -0.00584442 -0.0475797 -0.399183 -0.0158661 -0.0514978 -0.377781 
-0.025647 -0.0545202 -0.355987 -0.0351311 -0.0566209 -0.333873 -0.0442972 -0.0578088 -0.311473 
-0.0531504 -0.0581274 -0.288782 -0.0617089 -0.0576521 -0.265764 -0.0699885 -0.0564842 -0.242359 
-0.0779881 -0.0547429 -0.218499 -0.0856765 -0.0525558 -0.194124 -0.0929836 -0.0500494 -0.169191 
-0.0997977 -0.0473399 -0.14369 -0.105969 -0.0445272 -0.117654 -0.111319 -0.0416894 -0.0911554 
-0.115654 -0.0388819 -0.0643117 -0.118788 -0.0361377 -0.0372732 -0.120558 -0.033471 -0.0102143 
-0.120844 -0.0308819 0.016681 -0.119588 -0.0283622 0.0432339 -0.116799 -0.0259008 0.0692845 
-0.112558 -0.0234887 0.0947037 -0.107016 -0.0211224 0.119401 -0.100377 -0.0188056 0.143328 
-0.0928852 -0.0165492 0.166477 -0.0848018 -0.01437 0.188874 -0.0763808 -0.0122876 0.210573 
-0.067848 -0.0103223 0.231641 -0.0593827 -0.00849119 0.252149 -0.0511048 -0.00680705 0.272161 
-0.0430693 -0.00527661 0.291723 -0.0352682 -0.00390104 0.310864 -0.0276393 -0.00267729 0.329589 
-0.0200813 -0.00160024 0.347882 -0.0124722 -0.000665316 0.365716 -0.00468996 0.000129056 0.383056 
0.00336897 0.000779785 0.39987 0.0117731 0.00127851 0.416135 0.0205451 0.00161239 0.431846 
0.0296572 0.00176626 0.447018 0.0390323 0.00172584 0.461687 0.048552 0.00148167 0.475905 
0.0580682 0.00103292 0.489738 0.0674188 0.000390626 0.503256 0.0764435 -0.000420452 0.516524 
0.0849983 -0.00136172 0.529591 0.0929684 -0.00238265 0.542485 0.100275 -0.00342469 0.555207 
0.10688 -0.00442667 0.567726 0.112782 -0.00533124 0.579982 0.118011 -0.00609141 0.591888 
0.122623 -0.00667634 0.603339 0.126683 -0.00707552 0.61422 0.130263 -0.00730069 0.624413 
0.133424 -0.00738502 0.633813 0.136219 -0.00737964 0.64233 0.138683 -0.00734764 0.649901 
0.140838 -0.00735641 0.656495 0.142691 -0.00746903 0.662112 0.144246 -0.00773602 0.666782 
0.145505 -0.00818824 0.670567 0.146475 -0.00883216 0.67355 0.147173 -0.00964799 0.675831 
0.147629 -0.0105911 0.677522 0.147883 -0.0115966 0.678734 0.147983 -0.0125863 0.679575 
0.147983 -0.0134779 0.680141 0.147934 -0.0141947 0.680513 0.147875 -0.0146743 0.680749 
0.147836 -0.0148765 0.680887 
LINES 2 100
OFFSETS vtktypeint64
0 100 
CONNECTIVITY vtktypeint64
0 1 2 3 4 5 6 7 8 
9 10 11 12 13 14 15 16 17 
18 19 20 21 22 23 24 25 26 
27 28 29 30 31 32 33 34 35 
36 37 38 39 40 41 42 43 44 
45 46 47 48 49 50 51 52 53 
54 55 56 57 58 59 60 61 62 
63 64 65 66 67 68 69 70 71 
72 73 74 75 76 77 78 79 80 
81 82 83 84 85 86 87 88 89 
90 91 92 93 94 95 96 97 98 
99 
POINT_DATA 100
FIELD FieldData 3
_theta 1 100 double
0 0.031733259127 0.063466518254 0.095199777382 0.12693303651 0.15866629564 0.19039955476 0.22213281389 0.25386607302 
0.28559933214 0.31733259127 0.3490658504 0.38079910953 0.41253236865 0.44426562778 0.47599888691 0.50773214603 0.53946540516 
0.57119866429 0.60293192342 0.63466518254 0.66639844167 0.6981317008 0.72986495992 0.76159821905 0.79333147818 0.82506473731 
0.85679799643 0.88853125556 0.92026451469 0.95199777382 0.98373103294 1.0154642921 1.0471975512 1.0789308103 1.1106640695 
1.1423973286 1.1741305877 1.2058638468 1.237597106 1.2693303651 1.3010636242 1.3327968833 1.3645301425 1.3962634016 
1.4279966607 1.4597299198 1.491463179 1.5231964381 1.5549296972 1.5866629564 1.6183962155 1.6501294746 1.6818627337 
1.7135959929 1.745329252 1.7770625111 1.8087957702 1.8405290294 1.8722622885 1.9039955476 1.9357288068 1.9674620659 
1.999195325 2.0309285841 2.0626618433 2.0943951024 2.1261283615 2.1578616206 2.1895948798 2.2213281389 2.253061398 
2.2847946572 2.3165279163 2.3482611754 2.3799944345 2.4117276937 2.4434609528 2.4751942119 2.506927471 2.5386607302 
2.5703939893 2.6021272484 2.6338605076 2.6655937667 2.6973270258 2.7290602849 2.7607935441 2.7925268032 2.8242600623 
2.8559933214 2.8877265806 2.9194598397 2.9511930988 2.982926358 3.0146596171 3.0463928762 3.0781261353 3.1098593945 
3.1415926536 
_radius 1 100 double
1.4152622168e-16 0.01587183186 0.031484239804 0.046597640542 0.061015422544 0.074599305607 0.087278100303 0.099048742958 0.1099692063 
0.12014374052 0.12970195006 0.13877438831 0.147468333 0.15584772294 0.16392062344 0.17163621113 0.17889160778 0.18554738034 
0.19144936097 0.19645368384 0.20045160015 0.2033906705 0.20528923623 0.20624161785 0.2064124767 0.20602048411 0.20531369694 
0.20454084916 0.2039232102 0.20363100514 0.20376742815 0.20436212855 0.20537452404 0.20670561495 0.20821567272 0.20974472628 
0.21113332257 0.21224216388 0.21296987571 0.21326757665 0.21314783475 0.21268555254 0.2120099136 0.21128903109 0.2107110889 
0.21046627221 0.21073203853 0.21166126263 0.21337078795 0.21592868957 0.21934164953 0.22354678579 0.22841252938 0.23375036159 
0.23933545514 0.24493183001 0.25031724133 0.25530393069 0.25975267995 0.26357890374 0.26675077384 0.26928058733 0.2712116356 
0.27260346057 0.27351837501 0.27401141303 0.27412465619 0.27388557105 0.27330807038 0.27239475386 0.27113914509 0.26952740721 
0.2675396238 0.2651510297 0.26233351463 0.25905740792 0.25529318291 0.25101250866 0.24618817247 0.24079281532 0.23479701544 
0.22816775419 0.22086842572 0.21286116777 0.20411149067 0.19459427541 0.184299584 0.17323663981 0.16143482689 0.14894143407 
0.13581681842 0.12212836297 0.10794483426 0.093332454208 0.078353325061 0.063066051699 0.047527769085 0.031796486311 0.015932746396 
1.2909726649e-15 
_area 1 100 double
0 0.00068355801218 0.0026859096893 0.0058708627546 0.010038199447 0.014956272614 0.020395690013 0.026157329188 0.032090049516 
0.03809612007 0.044125184892 0.050159812631 0.056196500499 0.062225506691 0.068212109109 0.074081715547 0.079711702217 0.08493308633 
0.089543930991 0.093333675586 0.096114976265 0.097758384429 0.098225076111 0.097592995141 0.096071114895 0.093993523686 0.091772220326 
0.089886121744 0.088876105143 0.08891134029 0.089796538165 0.091327039232 0.093436807115 0.096068238929 0.099150665383 0.10259062542 
0.10626589633 0.11002200438 0.11367346141 0.11700871387 0.11981895141 0.1219712529 0.12348033174 0.1245254039 0.12542814643 
0.12666291504 0.128792557 0.1316970286 0.13504305726 0.13890475082 0.14341693133 0.14870302595 0.15480054965 0.16162076111 
0.16895740463 0.17652316756 0.18399079433 0.1910331383 0.19736348461 0.20277134746 0.20714394341 0.21046697383 0.21280621815 
0.21427702314 0.2150061423 0.21508520682 0.21453685694 0.21333087999 0.21142768978 0.20880402552 0.20545779443 0.20140549272 
0.19667968426 0.19132767199 0.18540963561 0.17899417199 0.17215042696 0.16493813469 0.15739876715 0.14955124427 0.14139387652 
0.13291183859 0.12408828928 0.11491727041 0.10541639184 0.095636570409 0.085665811646 0.075625376629 0.065659481267 0.05592231242 
0.046566765038 0.03773749788 0.029568280353 0.022182114031 0.015692533219 0.010204762578 0.0058154399196 0.00260982798 0.00065638190259 
3.5181538943e-17 
