# vtk DataFile Version 5.1
vtk output
ASCII
DATASET POLYDATA
POINTS 100 float
0.192073 0.0426605 -0.693827 0.191927 0.0427472 -0.694117 0.191561 0.0428633 -0.695017 
0.190972 0.0429875 -0.696372 0.190149 0.0430844 -0.697944 0.189077 0.0431073 -0.699432 
0.187731 0.0430002 -0.700505 0.186075 0.0427017 -0.700837 0.184062 0.0421479 -0.700133 
0.181633 0.0412766 -0.698158 0.178719 0.0400302 -0.694758 0.175245 0.0383589 -0.689861 
0.171134 0.0362232 -0.683484 0.166316 0.0335959 -0.675713 0.16073 0.0304634 -0.666689 
0.154334 0.0268264 -0.656584 0.147111 0.0227002 -0.645572 0.139074 0.0181147 -0.633809 
0.130266 0.0131134 -0.621413 0.120765 0.0077533 -0.608451 0.110677 0.00210308 -0.594939 
0.100132 -0.00375764 -0.580842 0.0892782 -0.00974001 -0.566093 0.0782706 -0.0157476 -0.550604 
0.067261 -0.0216786 -0.534287 0.0563874 -0.0274276 -0.517077 0.0457646 -0.032889 -0.498942 
0.0354763 -0.037959 -0.479898 0.02557 -0.0425393 -0.460009 0.0160558 -0.0465399 -0.439378 
0.00690762 -0.0498826 -0.418144 -0.00193097 -0.0525033 -0.396455 -0.0105385 -0.0543556 -0.374456 
-0.0190049 -0.0554118 -0.352261 -0.027419 -0.055665 -0.329943 -0.0358562 -0.0551296 -0.307517 
-0.0443671 -0.0538409 -0.284939 -0.0529674 -0.0518543 -0.262109 -0.0616318 -0.0492435 -0.23888 
-0.0702907 -0.0460977 -0.215085 -0.0788312 -0.0425192 -0.19055 -0.087102 -0.0386191 -0.165128 
-0.0949218 -0.0345142 -0.138717 -0.102091 -0.0303229 -0.111283 -0.108404 -0.0261617 -0.0828736 
-0.113664 -0.0221414 -0.0536187 -0.117696 -0.0183637 -0.0237302 -0.12036 -0.0149188 0.00651324 
-0.12156 -0.0118826 0.0367861 -0.121246 -0.0093149 0.0667415 -0.119424 -0.00725815 0.0960392 
-0.116149 -0.00573672 0.124372 -0.111523 -0.00475689 0.15149 -0.105684 -0.00430752 0.177217 
-0.0988015 -0.00436142 0.201462 -0.0910588 -0.0048773 0.224219 -0.0826461 -0.00580245 0.245563 
-0.0737481 -0.00707573 0.265634 -0.0645349 -0.00863096 0.284621 -0.055155 -0.0104004 0.30274 
-0.0457311 -0.0123183 0.320213 -0.036358 -0.0143236 0.337248 -0.0271037 -0.0163627 0.354022 
-0.0180124 -0.0183908 0.370672 -0.00910921 -0.020373 0.38729 -0.000405852 -0.0222841 0.403921 
0.00809337 -0.0241073 0.420569 0.0163859 -0.0258327 0.437208 0.0244661 -0.0274548 0.453787 
0.0323221 -0.02897 0.470246 0.0399336 -0.0303742 0.486522 0.0472718 -0.0316609 0.502558 
0.0543008 -0.0328197 0.518306 0.0609796 -0.0338362 0.53373 0.0672657 -0.0346927 0.5488 
0.0731188 -0.0353696 0.563495 0.0785041 -0.0358485 0.577793 0.0833959 -0.0361146 0.591668 
0.0877793 -0.0361602 0.605083 0.0916523 -0.0359877 0.617991 0.0950257 -0.0356116 0.630333 
0.0979227 -0.0350595 0.642039 0.100377 -0.0343722 0.653034 0.102431 -0.0336015 0.66324 
0.104131 -0.0328075 0.672586 0.105528 -0.0320537 0.681014 0.106671 -0.0314023 0.688483 
0.107607 -0.0309084 0.694975 0.108378 -0.0306151 0.700498 0.10902 -0.0305489 0.705088 
0.109561 -0.0307166 0.708802 0.110022 -0.0311045 0.711724 0.110419 -0.031679 0.713949 
0.110759 -0.0323891 0.715587 0.111047 -0.0331713 0.716749 0.111282 -0.0339554 0.717543 
0.111463 -0.0346708 0.718067 0.111587 -0.0352538 0.718404 0.111651 -0.0356537 0.718615 
0.111654 -0.0358377 0.718739 
LINES 2 100
OFFSETS vtktypeint64
0 100 
CONNECTIVITY vtktypeint64
0 1 2 3 4 5 6 7 8 
9 10 11 12 13 14 15 16 17 
18 19 20 21 22 23 24 25 26 
27 28 29 30 31 32 33 34 35 
36 37 38 39 40 41 42 43 44 
45 46 47 48 49 50 51 52 53 
54 55 56 57 58 59 60 61 62 
63 64 65 66 67 68 69 70 71 
72 73 74 75 76 77 78 79 80 
81 82 83 84 85 86 87 88 89 
90 91 92 93 94 95 96 97 98 
99 
POINT_DATA 100
FIELD FieldData 3
_theta 1 100 double
0 0.031733259127 0.063466518254 0.095199777382 0.12693303651 0.15866629564 0.19039955476 0.22213281389 0.25386607302 
0.28559933214 0.31733259127 0.3490658504 0.38079910953 0.41253236865 0.44426562778 0.47599888691 0.50773214603 0.53946540516 
0.57119866429 0.60293192342 0.63466518254 0.66639844167 0.6981317008 0.72986495992 0.76159821905 0.79333147818 0.82506473731 
0.85679799643 0.88853125556 0.92026451469 0.95199777382 0.98373103294 1.0154642921 1.0471975512 1.0789308103 1.1106640695 
1.1423973286 1.1741305877 1.2058638468 1.237597106 1.2693303651 1.3010636242 1.3327968833 1.3645301425 1.3962634016 
1.4279966607 1.4597299198 1.491463179 1.5231964381 1.5549296972 1.5866629564 1.6183962155 1.6501294746 1.6818627337 
1.7135959929 1.745329252 1.7770625111 1.8087957702 1.8405290294 1.8722622885 1.9039955476 1.9357288068 1.9674620659 
1.999195325 2.0309285841 2.0626618433 2.0943951024 2.1261283615 2.1578616206 2.1895948798 2.2213281389 2.253061398 
2.2847946572 2.3165279163 2.3482611754 2.3799944345 2.4117276937 2.4434609528 2.4751942119 2.506927471 2.5386607302 
2.5703939893 2.6021272484 2.6338605076 2.6655937667 2.6973270258 2.7290602849 2.7607935441 2.7925268032 2.8242600623 
2.8559933214 2.8877265806 2.9194598397 2.9511930988 2.982926358 3.0146596171 3.0463928762 3.0781261353 3.1098593945 
3.1415926536 
_radius 1 100 double
8.8263166865e-16 0.016479198567 0.032814686967 0.048862924819 0.064489817134 0.079572941219 0.094001245001 0.10767255281 0.1204899297 
0.13235850988 0.14318451317 0.15287765053 0.16135705905 0.16855972632 0.17444954854 0.17902499194 0.18232376237 0.18442368318 
0.18543984 0.18551875694 0.18483081473 0.18356224444 0.1819077554 0.18006415418 0.17822435175 0.17657037962 0.175264004 
0.17443455124 0.1741653585 0.17448195755 0.17534568375 0.17665542998 0.17825811557 0.17996606384 0.18157794872 0.18289987047 
0.18376418763 0.18404526076 0.18367260193 0.18264218951 0.18102500334 0.17896901306 0.1766897865 0.17444749614 0.17251348652 
0.17113481536 0.1705067849 0.17075963715 0.17195848549 0.1741101955 0.17717055435 0.18104859939 0.18560915522 0.19067696951 
0.19604559904 0.20149209359 0.2067959498 0.21175894778 0.21622196372 0.22007574252 0.22326445211 0.22578277174 0.22766850605 
0.22899294636 0.22985060088 0.23034894014 0.23059797255 0.23069924034 0.23073445311 0.23075517667 0.23077586169 0.23077206947 
0.23068405261 0.23042409235 0.22988544841 0.22895149911 0.2275045698 0.22543418683 0.2226442875 0.21905896419 0.2146266904 
0.20932313274 0.20315227161 0.1961449439 0.18835372973 0.1798437756 0.1706805892 0.16091744505 0.15058593847 0.13969274538 
0.12822378639 0.11615456057 0.10346353388 0.09014487775 0.076217574208 0.061729428389 0.04675618077 0.031397116918 0.015769019472 
5.1598053358e-16 
_area 1 100 double
0 0.0005459533152 0.0021957401117 0.0049772016063 0.0089127266431 0.013991406425 0.020143766219 0.027226325425 0.035019124627 
0.043235776232 0.051543697964 0.059591469592 0.067039911473 0.073593041822 0.079024470985 0.083194616634 0.086055595974 0.087644352853 
0.088068385174 0.087488925015 0.086104426943 0.084138213131 0.081844531606 0.079578849888 0.077702941023 0.076208309161 0.075098579565 
0.07440991541 0.074191682973 0.074470181863 0.075202322108 0.076288502742 0.077570222776 0.078857183078 0.079968392539 0.08077435378 
0.081218776809 0.081304180148 0.081065273176 0.080567177164 0.079926145252 0.079327798296 0.078982427871 0.079071286432 0.079664192014 
0.08078449522 0.082431964686 0.084600487958 0.087280932152 0.090461163741 0.094119276965 0.098211214996 0.10265961283 0.10735100529 
0.11214275241 0.11687893583 0.12142770355 0.12572922205 0.12978071153 0.1335161595 0.13670512481 0.13903547797 0.14034382864 
0.14087707516 0.14059373048 0.13956088449 0.1378868971 0.13585857761 0.13378441424 0.1319278815 0.13040891697 0.12920167752 
0.12823103765 0.12742324744 0.12668986897 0.12590782365 0.12491799787 0.12353337059 0.12155086409 0.11877136468 0.11503054259 
0.11023346337 0.10438071554 0.097576282619 0.090013741636 0.081943720912 0.073630156364 0.065305682807 0.057138459998 0.04922308978 
0.041601264303 0.034301203718 0.027373700787 0.020909866719 0.01504016877 0.0099215576419 0.0057193670585 0.002588229331 0.00065424755606 
6.3490661037e-17 
