# vtk DataFile Version 5.1
vtk output
ASCII
DATASET POLYDATA
POINTS 100 float
0.197191 0.0827164 -0.623462 0.197071 0.0826593 -0.623676 0.196772 0.0822958 -0.624315 
0.196287 0.0816389 -0.625259 0.195602 0.0807064 -0.626318 0.194694 0.079516 -0.627257 
0.193535 0.0780787 -0.627819 0.192084 0.0763939 -0.627753 0.190293 0.074445 -0.626838 
0.188103 0.072198 -0.624907 0.185448 0.0696021 -0.621861 0.18226 0.0665946 -0.61767 
0.178464 0.0631079 -0.612377 0.173994 0.0590778 -0.606083 0.168788 0.0544542 -0.598929 
0.162802 0.0492101 -0.591076 0.15601 0.0433495 -0.582682 0.148409 0.0369122 -0.573877 
0.140025 0.029975 -0.564749 0.130913 0.0226493 -0.555332 0.121154 0.0150742 -0.545602 
0.110855 0.00740726 -0.535479 0.100138 -0.000187703 -0.524839 0.0891351 -0.00755248 -0.51353 
0.0779795 -0.0145462 -0.501388 0.0667921 -0.0210548 -0.488259 0.0556742 -0.0269969 -0.474012 
0.0446982 -0.0323263 -0.458557 0.0339028 -0.03703 -0.44185 0.0232914 -0.0411228 -0.423893 
0.0128341 -0.0446391 -0.404734 0.0024752 -0.0476232 -0.384455 -0.00785687 -0.050119 -0.363162 
-0.0182353 -0.0521618 -0.340971 -0.0287195 -0.053772 -0.317995 -0.0393397 -0.0549515 -0.294339 
-0.0500827 -0.055685 -0.270085 -0.060882 -0.0559437 -0.2453 -0.0716118 -0.0556923 -0.220033 
-0.0820876 -0.0548973 -0.194328 -0.0920739 -0.0535359 -0.168226 -0.101297 -0.0516048 -0.14178 
-0.109465 -0.0491254 -0.115064 -0.116288 -0.0461471 -0.0881783 -0.121506 -0.0427473 -0.0612493 
-0.12491 -0.0390266 -0.0344312 -0.126364 -0.0351026 -0.00789644 -0.125818 -0.0311008 0.0181745 
-0.12332 -0.0271446 0.0436068 -0.119011 -0.0233458 0.0682458 -0.11312 -0.0197968 0.0919702 
-0.105946 -0.0165656 0.114703 -0.0978365 -0.0136928 0.136417 -0.0891578 -0.0111935 0.157137 
-0.0802706 -0.00906066 0.176935 -0.0715013 -0.00727166 0.19592 -0.0631196 -0.00579521 0.214228 
-0.0553222 -0.00459885 0.232002 -0.0482241 -0.003655 0.249378 -0.0418587 -0.00294503 0.266472 
-0.0361852 -0.00246074 0.283367 -0.0311038 -0.00220301 0.300106 -0.0264754 -0.00217809 0.316693 
-0.0221441 -0.00239201 0.333092 -0.017959 -0.00284433 0.349242 -0.0137946 -0.00352213 0.365062 
-0.00956478 -0.00439555 0.380469 -0.00523199 -0.0054156 0.395389 -0.000808477 -0.00651488 0.409771 
0.00364866 -0.00761132 0.423592 0.00804835 -0.00861461 0.436866 0.0122803 -0.00943457 0.449638 
0.0162316 -0.00999029 0.461983 0.0198029 -0.0102191 0.473993 0.0229222 -0.0100835 0.485768 
0.0255535 -0.0095763 0.497402 0.0277014 -0.00872118 0.508969 0.0294084 -0.00757078 0.520517 
0.0307487 -0.00620074 0.532052 0.0318161 -0.00470127 0.543543 0.0327108 -0.00316707 0.554919 
0.0335254 -0.00168687 0.566073 0.0343326 -0.00033402 0.576875 0.0351757 0.00084077 0.587179 
0.0360643 0.0018135 0.596839 0.036975 0.00258739 0.605719 0.0378566 0.00318984 0.613709 
0.0386402 0.00366622 0.620726 0.0392512 0.00407155 0.626729 0.0396228 0.00446121 0.631716 
0.0397078 0.00488198 0.635726 0.0394885 0.00536473 0.638833 0.0389817 0.00591965 0.641139 
0.0382387 0.00653476 0.64277 0.0373411 0.00717784 0.643858 0.0363912 0.00780128 0.644537 
0.0354998 0.00834934 0.644934 0.0347726 0.00876652 0.645153 0.0342962 0.00900586 0.645277 
0.0341275 0.00903594 0.645355 
LINES 2 100
OFFSETS vtktypeint64
0 100 
CONNECTIVITY vtktypeint64
0 1 2 3 4 5 6 7 8 
9 10 11 12 13 14 15 16 17 
18 19 20 21 22 23 24 25 26 
27 28 29 30 31 32 33 34 35 
36 37 38 39 40 41 42 43 44 
45 46 47 48 49 50 51 52 53 
54 55 56 57 58 59 60 61 62 
63 64 65 66 67 68 69 70 71 
72 73 74 75 76 77 78 79 80 
81 82 83 84 85 86 87 88 89 
90 91 92 93 94 95 96 97 98 
99 
POINT_DATA 100
FIELD FieldData 3
_theta 1 100 double
0 0.031733259127 0.063466518254 0.095199777382 0.12693303651 0.15866629564 0.19039955476 0.22213281389 0.25386607302 
0.28559933214 0.31733259127 0.3490658504 0.38079910953 0.41253236865 0.44426562778 0.47599888691 0.50773214603 0.53946540516 
0.57119866429 0.60293192342 0.63466518254 0.66639844167 0.6981317008 0.72986495992 0.76159821905 0.79333147818 0.82506473731 
0.85679799643 0.88853125556 0.92026451469 0.95199777382 0.98373103294 1.0154642921 1.0471975512 1.0789308103 1.1106640695 
1.1423973286 1.1741305877 1.2058638468 1.237597106 1.2693303651 1.3010636242 1.3327968833 1.3645301425 1.3962634016 
1.4279966607 1.4597299198 1.491463179 1.5231964381 1.5549296972 1.5866629564 1.6183962155 1.6501294746 1.6818627337 
1.7135959929 1.745329252 1.7770625111 1.8087957702 1.8405290294 1.8722622885 1.9039955476 1.9357288068 1.9674620659 
1.999195325 2.0309285841 2.0626618433 2.0943951024 2.1261283615 2.1578616206 2.1895948798 2.2213281389 2.253061398 
2.2847946572 2.3165279163 2.3482611754 2.3799944345 2.4117276937 2.4434609528 2.4751942119 2.506927471 2.5386607302 
2.5703939893 2.6021272484 2.6338605076 2.6655937667 2.6973270258 2.7290602849 2.7607935441 2.7925268032 2.8242600623 
2.8559933214 2.8877265806 2.9194598397 2.9511930988 2.982926358 3.0146596171 3.0463928762 3.0781261353 3.1098593945 
3.1415926536 
_radius 1 100 double
7.6579740667e-16 0.016275401619 0.032336437339 0.047979612356 0.063032800765 0.077364487858 0.090886888415 0.103553296 0.11535096277 
0.12629119322 0.13639823049 0.14569818109 0.15420895683 0.16193218362 0.16884818634 0.17491526276 0.18007421318 0.18425833902 
0.18740796397 0.18948729025 0.19050049077 0.19050367933 0.18960993895 0.18798584177 0.18583958097 0.18340251538 0.18090713121 
0.1785648257 0.17654650333 0.17496807517 0.17388206584 0.17327602336 0.17307826758 0.17317128401 0.17341230053 0.17365917165 
0.17379803091 0.17376787942 0.17357692295 0.17330646093 0.17310062737 0.17314389542 0.17363179685 0.17474207635 0.17661235861 
0.17932690148 0.18291128727 0.18733215874 0.1924998872 0.19827402136 0.20447261483 0.21088621938 0.21729596697 0.22349374771 
0.2293016419 0.23458759643 0.23927478018 0.24334303825 0.24682224545 0.24977882308 0.25229783525 0.25446364287 0.25634204472 
0.25796638284 0.25932947311 0.26038251527 0.26104124506 0.26119846935 0.26074096519 0.25956788844 0.25760759285 0.25483011807 
0.25125339278 0.24694221502 0.24200015555 0.23655556354 0.23074372826 0.22468785222 0.21848170115 0.21217653746 0.20577423954 
0.1992275121 0.19244702253 0.18531434043 0.17769881966 0.16947608783 0.16054563381 0.15084513424 0.14035963298 0.12912442034 
0.11722133805 0.10476912714 0.091909220237 0.078788971829 0.065544661638 0.052286661852 0.039088912539 0.025984309716 0.01296680484 
2.2395880939e-16 
_area 1 100 double
0 0.00067271184384 0.0026638810726 0.0058965996489 0.010253708403 0.015588127041 0.0217298822 0.028489760165 0.035662739542 
0.043034435666 0.050391137342 0.057531043492 0.064273096618 0.07046089135 0.075961654056 0.080662793658 0.084469773548 0.087308503164 
0.0891333616 0.089939212611 0.089773326038 0.088741629582 0.087003624541 0.084752671572 0.082185497746 0.079506849166 0.076911061551 
0.074485952029 0.072352946176 0.070622143686 0.069472367638 0.068934867092 0.069008078536 0.069656367765 0.070793627895 0.072287066581 
0.073977044661 0.075708314225 0.077369824966 0.078929466656 0.080448169203 0.082066243515 0.083965007931 0.086317793499 0.089251989049 
0.092838771738 0.097110347075 0.10208893063 0.10780478066 0.11428158448 0.12148542445 0.12927672292 0.13741598362 0.14561212053 
0.15356997263 0.16102267621 0.16775457387 0.17361788361 0.17854001851 0.18251850674 0.18560551018 0.18788712112 0.18946114665 
0.19041445156 0.19080215605 0.1906347093 0.18987701697 0.18845749824 0.18628399768 0.18326634648 0.17934405837 0.17451245677 
0.16883797246 0.16245658734 0.1555555557 0.14834384031 0.14101968936 0.13374376818 0.12662282467 0.11970386256 0.11297585923 
0.10637664662 0.099804697915 0.093136633098 0.086250265084 0.079050613814 0.071494038474 0.063604886374 0.05548035697 0.047282127126 
0.03921658858 0.031508214379 0.024371886327 0.017989789914 0.012496964212 0.0079772838087 0.0044691651924 0.0019782445346 0.00049310825137 
1.7456925449e-17 
