# vtk DataFile Version 5.1
vtk output
ASCII
DATASET POLYDATA
POINTS 100 float
0.129283 0.0490382 -0.697857 0.12912 0.0487392 -0.697447 0.128653 0.0477821 -0.696298 
0.127905 0.0462547 -0.694415 0.126918 0.0442905 -0.691799 0.125738 0.0420526 -0.688458 
0.124412 0.0397146 -0.684402 0.12298 0.0374391 -0.679645 0.121469 0.0353577 -0.674207 
0.119884 0.0335545 -0.668113 0.118206 0.0320543 -0.661389 0.116393 0.0308172 -0.654067 
0.114377 0.0297413 -0.646173 0.112075 0.0286719 -0.637731 0.109389 0.0274173 -0.628758 
0.106221 0.025769 -0.619261 0.102482 0.0235251 -0.609234 0.0981014 0.0205132 -0.598664 
0.0930371 0.0166111 -0.587525 0.0872818 0.0117634 -0.575787 0.0808672 0.00599134 -0.563417 
0.0738635 -0.0006047 -0.550385 0.0663751 -0.00785025 -0.536671 0.0585328 -0.0155092 -0.522267 
0.0504816 -0.0233023 -0.507183 0.0423675 -0.0309296 -0.491447 0.0343234 -0.0380946 -0.475106 
0.0264547 -0.0445283 -0.458223 0.0188286 -0.0500097 -0.440869 0.0114667 -0.0543814 -0.42312 
0.00434173 -0.0575589 -0.405045 -0.00261863 -0.0595324 -0.386701 -0.00952396 -0.0603623 -0.36812 
-0.0165074 -0.060167 -0.349307 -0.0237086 -0.0591076 -0.330236 -0.0312543 -0.0573684 -0.310845 
-0.0392387 -0.0551374 -0.291048 -0.0477064 -0.0525882 -0.270731 -0.0566381 -0.0498655 -0.249772 
-0.0659434 -0.0470754 -0.228045 -0.075459 -0.0442814 -0.205441 -0.0849549 -0.0415065 -0.181873 
-0.0941478 -0.0387405 -0.157295 -0.102719 -0.0359505 -0.131708 -0.11034 -0.0330954 -0.105167 
-0.116694 -0.0301388 -0.0777804 -0.121504 -0.0270622 -0.0497093 -0.124554 -0.0238736 -0.0211588 
-0.125705 -0.0206127 0.00763352 -0.124908 -0.0173501 0.0364108 -0.122202 -0.0141828 0.0649132 
-0.117715 -0.0112238 0.0928931 -0.111648 -0.00859033 0.12013 -0.104257 -0.00638917 0.146444 
-0.0958307 -0.00470379 0.1717 -0.0866675 -0.00358287 0.195818 -0.0770516 -0.00303311 0.218772 
-0.0672333 -0.00301667 0.240582 -0.0574134 -0.00345397 0.261315 -0.0477347 -0.00423153 0.281066 
-0.0382791 -0.00521388 0.299954 -0.0290719 -0.00625823 0.318108 -0.0200918 -0.00723017 0.335653 
-0.0112842 -0.00801824 0.352705 -0.00257702 -0.00854588 0.369362 0.006103 -0.00877912 0.385696 
0.0148164 -0.00872899 0.401759 0.0236 -0.0084486 0.417575 0.0324605 -0.00802498 0.433151 
0.0413726 -0.00756694 0.448475 0.0502822 -0.00719024 0.463527 0.059113 -0.00700219 0.47828 
0.0677763 -0.00708736 0.492704 0.0761815 -0.00749634 0.506775 0.0842466 -0.00823893 0.52047 
0.0919066 -0.00928256 0.533771 0.0991194 -0.0105561 0.546663 0.105868 -0.0119588 0.559134 
0.11216 -0.0133726 0.571168 0.118023 -0.0146773 0.582748 0.123495 -0.0157653 0.593847 
0.128623 -0.0165553 0.604435 0.133448 -0.0170022 0.614471 0.138004 -0.017103 0.62391 
0.142308 -0.0168967 0.632705 0.146363 -0.0164589 0.640809 0.150155 -0.0158928 0.648179 
0.15366 -0.0153151 0.654783 0.156846 -0.0148412 0.660605 0.159683 -0.0145707 0.665642 
0.162144 -0.0145744 0.669914 0.164219 -0.0148852 0.673458 0.16591 -0.0154942 0.67633 
0.167235 -0.0163515 0.678599 0.16823 -0.0173729 0.680344 0.16894 -0.0184505 0.681647 
0.169414 -0.0194668 0.682585 0.169702 -0.0203096 0.683227 0.169844 -0.0208863 0.683627 
0.169866 -0.0211361 0.683815 
LINES 2 100
OFFSETS vtktypeint64
0 100 
CONNECTIVITY vtktypeint64
0 1 2 3 4 5 6 7 8 
9 10 11 12 13 14 15 16 17 
18 19 20 21 22 23 24 25 26 
27 28 29 30 31 32 33 34 35 
36 37 38 39 40 41 42 43 44 
45 46 47 48 49 50 51 52 53 
54 55 56 57 58 59 60 61 62 
63 64 65 66 67 68 69 70 71 
72 73 74 75 76 77 78 79 80 
81 82 83 84 85 86 87 88 89 
90 91 92 93 94 95 96 97 98 
99 
POINT_DATA 100
FIELD FieldData 3
_theta 1 100 double
0 0.031733259127 0.063466518254 0.095199777382 0.12693303651 0.15866629564 0.19039955476 0.22213281389 0.25386607302 
0.28559933214 0.31733259127 0.3490658504 0.38079910953 0.41253236865 0.44426562778 0.47599888691 0.50773214603 0.53946540516 
0.57119866429 0.60293192342 0.63466518254 0.66639844167 0.6981317008 0.72986495992 0.76159821905 0.79333147818 0.82506473731 
0.85679799643 0.88853125556 0.92026451469 0.95199777382 0.98373103294 1.0154642921 1.0471975512 1.0789308103 1.1106640695 
1.1423973286 1.1741305877 1.2058638468 1.237597106 1.2693303651 1.3010636242 1.3327968833 1.3645301425 1.3962634016 
1.4279966607 1.4597299198 1.491463179 1.5231964381 1.5549296972 1.5866629564 1.6183962155 1.6501294746 1.6818627337 
1.7135959929 1.745329252 1.7770625111 1.8087957702 1.8405290294 1.8722622885 1.9039955476 1.9357288068 1.9674620659 
1.999195325 2.0309285841 2.0626618433 2.0943951024 2.1261283615 2.1578616206 2.1895948798 2.2213281389 2.253061398 
2.2847946572 2.3165279163 2.3482611754 2.3799944345 2.4117276937 2.4434609528 2.4751942119 2.506927471 2.5386607302 
2.5703939893 2.6021272484 2.6338605076 2.6655937667 2.6973270258 2.7290602849 2.7607935441 2.7925268032 2.8242600623 
2.8559933214 2.8877265806 2.9194598397 2.9511930988 2.982926358 3.0146596171 3.0463928762 3.0781261353 3.1098593945 
3.1415926536 
_radius 1 100 double
1.1385073565e-15 0.015021079484 0.029956151695 0.044725832609 0.059264683506 0.073521558802 0.087454017945 0.10101804795 0.11415605762 
0.12678698776 0.13880198548 0.15006750953 0.16043564859 0.16975968667 0.17791203324 0.18480155756 0.19038784255 0.19469058439 
0.19779309098 0.19983947947 0.20102574312 0.20158540848 0.20177107498 0.20183365714 0.20200147882 0.20246140843 0.20334408076 
0.20471496268 0.20657224223 0.20885114078 0.21143310443 0.21415818124 0.21683930412 0.21927756628 0.22127787177 0.22266454675 
0.22329630008 0.22307932397 0.22197729831 0.22001840966 0.21729995265 0.21398796268 0.21030689162 0.20651817168 0.20289360524 
0.19969276597 0.19714993638 0.19546889632 0.19481909163 0.1953271184 0.19706184035 0.20001716716 0.20410048886 0.20913410756 
0.21487162546 0.22102501332 0.22729523102 0.23340035594 0.23909789119 0.24420019778 0.24858319856 0.2521889084 0.25502238258 
0.25714363965 0.25865517098 0.25968587729 0.26037266944 0.26084142975 0.26118939098 0.26147110891 0.26168998452 0.2617966667 
0.26169465699 0.26125222073 0.26031861018 0.25874195577 0.25638614072 0.25314446673 0.24894870928 0.24377300106 0.23763270638 
0.23057898629 0.22269008329 0.21406047436 0.20478898729 0.19496684033 0.18466649503 0.17393232562 0.16277439009 0.15116681197 
0.13905207913 0.1263516665 0.11298192406 0.09887271113 0.08398545476 0.068327449045 0.051960088378 0.034999912006 0.017612475634 
5.2239312841e-16 
_area 1 100 double
0 0.00042327483289 0.0016997466161 0.003848508393 0.0068978008579 0.010877817244 0.015808992018 0.021686672495 0.028464320224 
0.036038335661 0.044238213671 0.052825384835 0.061502563526 0.069933499491 0.077771594516 0.084694901456 0.090443913951 0.094856898425 
0.097895780427 0.099655059668 0.10034881046 0.10028193318 0.10008530925 0.10017147741 0.10069841635 0.1017428103 0.10333983703 
0.10545136616 0.10796384924 0.1107056167 0.11346837991 0.11603444579 0.11820235365 0.11980457227 0.12071929285 0.12097984326 
0.1207986036 0.12005063184 0.11878044305 0.11722760911 0.11568211627 0.1142879536 0.11300623731 0.11174195103 0.11051672513 
0.10939868584 0.10856950326 0.10816550472 0.10836651047 0.10944077968 0.11168587362 0.11522506819 0.1199297912 0.12568570685 
0.13237803498 0.13980433557 0.14766238445 0.1555950452 0.1634774743 0.17072584905 0.17691730124 0.18180325168 0.18531817708 
0.18753677845 0.18869064442 0.18910994357 0.1890812684 0.18881706598 0.18840740219 0.18786673987 0.18717911515 0.18627746008 
0.1850362818 0.18328313514 0.18082231541 0.17746560529 0.17306423461 0.16753485056 0.16087287288 0.1531501577 0.14449932349 
0.1350918923 0.12511871346 0.11477756587 0.10426647149 0.093777083733 0.083483879771 0.073529920647 0.064014167284 0.054986394906 
0.046454096112 0.038402341657 0.030822919247 0.023744669785 0.017255201513 0.011506226173 0.0066995465521 0.0030562753055 0.00077657762958 
9.2140753583e-18 
