# vtk DataFile Version 5.1
vtk output
ASCII
DATASET POLYDATA
POINTS 100 float
0.0743572 0.00963041 -0.5793 0.0742872 0.00961335 -0.579123 0.0741569 0.00934262 -0.578539 
0.0739492 0.00879736 -0.577546 0.0736353 0.00794849 -0.576141 0.0731774 0.00676462 -0.57432 
0.0725304 0.00521908 -0.572081 0.0716446 0.0032969 -0.569419 0.0704693 0.0010008 -0.566331 
0.0689553 -0.00164497 -0.562808 0.0670584 -0.00459336 -0.558836 0.0647421 -0.00777635 -0.554393 
0.0619802 -0.0111097 -0.549444 0.0587587 -0.0144999 -0.543944 0.0550769 -0.017853 -0.53783 
0.0509475 -0.0210833 -0.531028 0.0463962 -0.0241218 -0.523452 0.0414602 -0.0269225 -0.515011 
0.0361854 -0.0294655 -0.505614 0.0306237 -0.0317578 -0.495181 0.0248291 -0.0338298 -0.483648 
0.0188536 -0.0357291 -0.470977 0.0127439 -0.037512 -0.457164 0.00653743 -0.0392338 -0.442238 
0.000260297 -0.0409391 -0.426267 -0.00607439 -0.0426531 -0.409349 -0.0124665 -0.0443761 -0.391609 
-0.0189272 -0.0460801 -0.373189 -0.0254762 -0.0477097 -0.35423 -0.032137 -0.0491867 -0.334867 
-0.0389311 -0.0504173 -0.315207 -0.0458721 -0.0513014 -0.295328 -0.0529593 -0.0517439 -0.275265 
-0.0601712 -0.0516647 -0.255011 -0.0674618 -0.0510075 -0.234519 -0.0747567 -0.0497469 -0.213711 
-0.0819536 -0.0478911 -0.192489 -0.0889232 -0.045482 -0.170752 -0.095515 -0.0425913 -0.148407 
-0.101564 -0.0393141 -0.125393 -0.106899 -0.0357601 -0.101687 -0.111355 -0.0320441 -0.0773146 
-0.114783 -0.0282765 -0.0523573 -0.117062 -0.0245553 -0.0269463 -0.118105 -0.0209597 -0.00125732 
-0.117871 -0.0175468 0.0245026 -0.116361 -0.0143511 0.0501103 -0.113626 -0.0113864 0.0753443 
-0.109758 -0.00864988 0.100001 -0.104886 -0.0061282 0.12391 -0.0991645 -0.00380328 0.146945 
-0.0927608 -0.00165827 0.169028 -0.0858453 0.000317738 0.190133 -0.0785769 0.00212668 0.21028 
-0.0710934 0.00376047 0.229525 -0.0635025 0.00520193 0.247952 -0.055878 0.00642732 0.265656 
-0.0482576 0.00741008 0.282733 -0.0406466 0.00812506 0.299272 -0.033023 0.00855254 0.31534 
-0.0253466 0.00868152 0.330988 -0.0175691 0.00851167 0.346243 -0.00964424 0.00805386 0.361117 
-0.00153785 0.00732906 0.37561 0.00676467 0.0063661 0.38972 0.0152534 0.00519848 0.403446 
0.0238921 0.00386083 0.416793 0.0326206 0.00238567 0.429782 0.0413591 0.000800854 0.442438 
0.0500157 -0.000871858 0.454795 0.0584959 -0.00261689 0.466889 0.066711 -0.0044237 0.478744 
0.0745871 -0.00628456 0.490374 0.0820715 -0.00819166 0.501769 0.0891368 -0.0101341 0.512895 
0.0957816 -0.0120951 0.523691 0.102028 -0.0140505 0.534077 0.107916 -0.0159675 0.543958 
0.113498 -0.0178061 0.553234 0.118828 -0.0195207 0.561814 0.123953 -0.0210634 0.56963 
0.128907 -0.022388 0.576643 0.133704 -0.0234539 0.582855 0.138337 -0.0242305 0.588311 
0.142776 -0.0246999 0.593096 0.146974 -0.0248593 0.597331 0.15087 -0.0247211 0.601155 
0.154402 -0.0243127 0.604716 0.15751 -0.0236742 0.608152 0.160148 -0.0228552 0.611573 
0.162293 -0.0219115 0.615049 0.163944 -0.020901 0.618603 0.165129 -0.0198804 0.622204 
0.1659 -0.018902 0.625771 0.166331 -0.0180117 0.629182 0.166507 -0.0172478 0.632289 
0.166517 -0.0166406 0.634934 0.166444 -0.0162125 0.63697 0.166356 -0.0159788 0.638273 
0.166295 -0.0159483 0.638766 
LINES 2 100
OFFSETS vtktypeint64
0 100 
CONNECTIVITY vtktypeint64
0 1 2 3 4 5 6 7 8 
9 10 11 12 13 14 15 16 17 
18 19 20 21 22 23 24 25 26 
27 28 29 30 31 32 33 34 35 
36 37 38 39 40 41 42 43 44 
45 46 47 48 49 50 51 52 53 
54 55 56 57 58 59 60 61 62 
63 64 65 66 67 68 69 70 71 
72 73 74 75 76 77 78 79 80 
81 82 83 84 85 86 87 88 89 
90 91 92 93 94 95 96 97 98 
99 
POINT_DATA 100
FIELD FieldData 3
_theta 1 100 double
0 0.031733259127 0.063466518254 0.095199777382 0.12693303651 0.15866629564 0.19039955476 0.22213281389 0.25386607302 
0.28559933214 0.31733259127 0.3490658504 0.38079910953 0.41253236865 0.44426562778 0.47599888691 0.50773214603 0.53946540516 
0.57119866429 0.60293192342 0.63466518254 0.66639844167 0.6981317008 0.72986495992 0.76159821905 0.79333147818 0.82506473731 
0.85679799643 0.88853125556 0.92026451469 0.95199777382 0.98373103294 1.0154642921 1.0471975512 1.0789308103 1.1106640695 
1.1423973286 1.1741305877 1.2058638468 1.237597106 1.2693303651 1.3010636242 1.3327968833 1.3645301425 1.3962634016 
1.4279966607 1.4597299198 1.491463179 1.5231964381 1.5549296972 1.5866629564 1.6183962155 1.6501294746 1.6818627337 
1.7135959929 1.745329252 1.7770625111 1.8087957702 1.8405290294 1.8722622885 1.9039955476 1.9357288068 1.9674620659 
1.999195325 2.0309285841 2.0626618433 2.0943951024 2.1261283615 2.1578616206 2.1895948798 2.2213281389 2.253061398 
2.2847946572 2.3165279163 2.3482611754 2.3799944345 2.4117276937 2.4434609528 2.4751942119 2.506927471 2.5386607302 
2.5703939893 2.6021272484 2.6338605076 2.6655937667 2.6973270258 2.7290602849 2.7607935441 2.7925268032 2.8242600623 
2.8559933214 2.8877265806 2.9194598397 2.9511930988 2.982926358 3.0146596171 3.0463928762 3.0781261353 3.1098593945 
3.1415926536 
_radius 1 100 double
6.6616995387e-16 0.015602017028 0.031117070266 0.046450840156 0.061517788509 0.076244542859 0.090571312164 0.10445100348 0.11784608463 
0.13072363229 0.14304933737 0.15478146225 0.1658658386 0.17623294924 0.18579795304 0.19446421631 0.20213054726 0.2087019055 
0.21410282317 0.21829206083 0.22127618659 0.22311915603 0.22394509492 0.2239325879 0.22330052843 0.22228735186 0.22112676391 
0.22002366951 0.21913386219 0.21855025717 0.21829727281 0.21833367177 0.21856306037 0.21885051337 0.21904342928 0.21899452732 
0.21858467747 0.21774301031 0.21646169487 0.2148031762 0.21289863993 0.21093782665 0.20915162197 0.20778967447 0.20709552251 
0.20728160251 0.20850643358 0.21085633485 0.21433400634 0.21885584266 0.22425875073 0.23031568756 0.23675768361 0.24329931496 
0.24966451897 0.25560999815 0.26094394019 0.26553834999 0.26933400751 0.27233791044 0.27461389984 0.27626786421 0.27742942293 
0.27823232757 0.27879597763 0.27921032916 0.2795259537 0.27975008216 0.27984836207 0.27975112921 0.27936254376 0.27857102039 
0.27725978556 0.27531682371 0.27264372464 0.26916300289 0.26482343278 0.25960294277 0.25350868805 0.24657407863 0.23885281416 
0.23041042862 0.22131449171 0.21162528163 0.20138907058 0.1906357669 0.17938146911 0.16763492752 0.15540568211 0.14271128415 
0.12958157827 0.11605917878 0.10219652718 0.088050858756 0.07367880377 0.05913216154 0.044455741917 0.029687333853 0.014859171293 
4.2478418712e-16 
_area 1 100 double
0 0.00069411913559 0.0027362136984 0.0060148927718 0.010373209051 0.015642946004 0.021676665807 0.028365843309 0.035637319101 
0.043429493025 0.051660298489 0.060202885636 0.068879021857 0.077470904577 0.085745403027 0.09348144799 0.10049107213 0.10662709272 
0.11177231411 0.11580771063 0.11858507726 0.11996208163 0.11989390953 0.11850624851 0.11610969162 0.11316043411 0.11018583564 
0.10769740458 0.10611271108 0.1056961595 0.10651692167 0.10844248571 0.11119573027 0.11443844725 0.1178273961 0.12104002859 
0.12378925328 0.12584312436 0.12705653336 0.12740884095 0.1270281464 0.12618399477 0.12524695915 0.1246278454 0.12471260444 
0.12580943478 0.12812325245 0.13176037301 0.13674733896 0.14304179955 0.15052674491 0.15899660307 0.16814893242 0.17759230439 
0.18687835748 0.19555948323 0.20326060276 0.20974294866 0.21493718229 0.2189326955 0.22192548668 0.22414246568 0.22577029151 
0.22691644757 0.2276112105 0.22783453014 0.22754768724 0.22671894921 0.22533785121 0.22341428937 0.22096130434 0.21796577054 
0.21435888386 0.21000545046 0.20472886448 0.19836913669 0.19084574675 0.18219280306 0.17255442325 0.16214929235 0.15122167721 
0.13999600475 0.12864795752 0.11729758808 0.10602150933 0.094875406141 0.083916447099 0.073217538579 0.062870561361 0.052981057093 
0.043659577895 0.035014289938 0.02714666716 0.020149342391 0.014104149733 0.0090794494953 0.0051276615474 0.002284688961 0.00057194304117 
5.5511151231e-17 
