# vtk DataFile Version 5.1
vtk output
ASCII
DATASET POLYDATA
POINTS 100 float
0.151827 0.062661 -0.615857 0.151751 0.0626903 -0.615987 0.15154 0.0626135 -0.616319 
0.151161 0.0624045 -0.616738 0.150563 0.0620221 -0.617071 0.149679 0.0614133 -0.6171 
0.148432 0.0605172 -0.616595 0.14674 0.0592703 -0.615333 0.144524 0.0576112 -0.613123 
0.141707 0.0554859 -0.609828 0.138229 0.0528521 -0.605374 0.134041 0.0496823 -0.599757 
0.129112 0.0459672 -0.593032 0.12343 0.0417161 -0.585308 0.117004 0.0369578 -0.576725 
0.109859 0.0317395 -0.567435 0.102041 0.026125 -0.557578 0.0936098 0.0201927 -0.547266 
0.0846401 0.0140323 -0.536563 0.0752187 0.00774217 -0.525485 0.0654411 0.00142566 -0.513991 
0.0554087 -0.00481168 -0.501997 0.0452256 -0.0108654 -0.489386 0.0349943 -0.0166352 -0.476024 
0.024812 -0.0220277 -0.461781 0.0147659 -0.026959 -0.446545 0.00492954 -0.0313577 -0.430243 
-0.0046411 -0.0351668 -0.412844 -0.01391 -0.038346 -0.394367 -0.0228621 -0.0408731 -0.374877 
-0.0315029 -0.0427451 -0.354476 -0.0398551 -0.043978 -0.333292 -0.0479541 -0.0446064 -0.311462 
-0.0558414 -0.0446817 -0.289121 -0.0635558 -0.044269 -0.266389 -0.071125 -0.0434432 -0.243359 
-0.0785569 -0.042285 -0.220097 -0.0858325 -0.0408754 -0.196643 -0.0929005 -0.0392908 -0.173014 
-0.0996756 -0.0375986 -0.149217 -0.10604 -0.0358525 -0.125257 -0.11185 -0.0340909 -0.101153 
-0.116942 -0.0323347 -0.076942 -0.121148 -0.0305885 -0.052687 -0.124309 -0.0288426 -0.0284784 
-0.126286 -0.0270763 -0.00443009 -0.126979 -0.0252634 0.0193287 -0.126331 -0.0233774 0.0426643 
-0.124341 -0.0213975 0.0654508 -0.121063 -0.0193133 0.0875834 -0.116603 -0.0171296 0.108988 
-0.111116 -0.0148686 0.129627 -0.104786 -0.0125707 0.149505 -0.0978193 -0.0102931 0.168661 
-0.0904215 -0.00810601 0.187165 -0.0827847 -0.00608821 0.205103 -0.0750722 -0.00432005 0.222571 
-0.0674074 -0.0028767 0.239653 -0.0598681 -0.00182106 0.256418 -0.0524854 -0.00119764 0.272907 
-0.0452477 -0.00102774 0.289131 -0.0381102 -0.00130658 0.305073 -0.0310068 -0.00200276 0.320694 
-0.0238642 -0.00305997 0.33594 -0.0166165 -0.00440095 0.35076 -0.00921773 -0.00593335 0.365112 
-0.00165135 -0.00755679 0.378974 0.00606445 -0.0091707 0.392358 0.013876 -0.0106819 0.405304 
0.0216986 -0.0120117 0.417885 0.0294239 -0.0131009 0.430197 0.0369319 -0.013914 0.442346 
0.0441024 -0.0144398 0.454439 0.0508276 -0.0146913 0.466566 0.0570225 -0.0147022 0.478786 
0.062632 -0.0145229 0.49112 0.0676345 -0.0142138 0.503542 0.072041 -0.0138397 0.51598 
0.0758906 -0.013463 0.528319 0.0792428 -0.0131382 0.540413 0.0821675 -0.0129072 0.552096 
0.084735 -0.0127965 0.563202 0.0870065 -0.0128158 0.573575 0.0890272 -0.0129587 0.583087 
0.0908217 -0.013205 0.591649 0.0923945 -0.0135239 0.599213 0.0937324 -0.0138784 0.60578 
0.0948107 -0.0142299 0.61139 0.0956016 -0.014543 0.616117 0.096083 -0.0147893 0.620059 
0.0962463 -0.0149499 0.623325 0.0961031 -0.0150177 0.626025 0.0956882 -0.0149971 0.628256 
0.0950599 -0.0149035 0.630101 0.0942959 -0.0147603 0.63162 0.0934866 -0.0145965 0.632853 
0.0927261 -0.0144425 0.633822 0.0921017 -0.0143268 0.634535 0.0916847 -0.0142723 0.634992 
0.0915214 -0.0142937 0.63519 
LINES 2 100
OFFSETS vtktypeint64
0 100 
CONNECTIVITY vtktypeint64
0 1 2 3 4 5 6 7 8 
9 10 11 12 13 14 15 16 17 
18 19 20 21 22 23 24 25 26 
27 28 29 30 31 32 33 34 35 
36 37 38 39 40 41 42 43 44 
45 46 47 48 49 50 51 52 53 
54 55 56 57 58 59 60 61 62 
63 64 65 66 67 68 69 70 71 
72 73 74 75 76 77 78 79 80 
81 82 83 84 85 86 87 88 89 
90 91 92 93 94 95 96 97 98 
99 
POINT_DATA 100
FIELD FieldData 3
_theta 1 100 double
0 0.031733259127 0.063466518254 0.095199777382 0.12693303651 0.15866629564 0.19039955476 0.22213281389 0.25386607302 
0.28559933214 0.31733259127 0.3490658504 0.38079910953 0.41253236865 0.44426562778 0.47599888691 0.50773214603 0.53946540516 
0.57119866429 0.60293192342 0.63466518254 0.66639844167 0.6981317008 0.72986495992 0.76159821905 0.79333147818 0.82506473731 
0.85679799643 0.88853125556 0.92026451469 0.95199777382 0.98373103294 1.0154642921 1.0471975512 1.0789308103 1.1106640695 
1.1423973286 1.1741305877 1.2058638468 1.237597106 1.2693303651 1.3010636242 1.3327968833 1.3645301425 1.3962634016 
1.4279966607 1.4597299198 1.491463179 1.5231964381 1.5549296972 1.5866629564 1.6183962155 1.6501294746 1.6818627337 
1.7135959929 1.745329252 1.7770625111 1.8087957702 1.8405290294 1.8722622885 1.9039955476 1.9357288068 1.9674620659 
1.999195325 2.0309285841 2.0626618433 2.0943951024 2.1261283615 2.1578616206 2.1895948798 2.2213281389 2.253061398 
2.2847946572 2.3165279163 2.3482611754 2.3799944345 2.4117276937 2.4434609528 2.4751942119 2.506927471 2.5386607302 
2.5703939893 2.6021272484 2.6338605076 2.6655937667 2.6973270258 2.7290602849 2.7607935441 2.7925268032 2.8242600623 
2.8559933214 2.8877265806 2.9194598397 2.9511930988 2.982926358 3.0146596171 3.0463928762 3.0781261353 3.1098593945 
3.1415926536 
_radius 1 100 double
8.0215534307e-16 0.015319622384 0.03043921746 0.045168459154 0.059340719387 0.072820404035 0.085506255622 0.097330966226 0.10825798387 
0.11827653971 0.12739578318 0.13563866052 0.14303594927 0.14962074859 0.15542375609 0.16046979654 0.16477618329 0.16835342844 
0.17120848228 0.17335013688 0.17479565875 0.17557732834 0.17574748814 0.17538095191 0.17457413148 0.17344086134 0.17210548359 
0.17069414121 0.16932534024 0.16810074126 0.16709701197 0.16635959917 0.16589946517 0.16569395652 0.16569269738 0.16582851387 
0.1660319886 0.16624676672 0.16644189117 0.16661788778 0.16680524231 0.1670567779 0.16743801355 0.16802029457 0.16887936482 
0.17009792492 0.17176719402 0.17398210268 0.17682800275 0.18036176304 0.18459361994 0.18947597062 0.19490210569 0.20071434135 
0.20671900854 0.21270519441 0.21846418292 0.22380691982 0.22857758849 0.2326623361 0.23599298274 0.23854603649 0.24033763805 
0.24141532799 0.24184780943 0.24171408467 0.2410933577 0.24005686461 0.23866237316 0.23695160084 0.23495034407 0.23267073141 
0.23011471372 0.22727772193 0.22415146639 0.22072521625 0.21698551799 0.21291491442 0.20849050714 0.20368308164 0.19845716042 
0.19277202115 0.18658356394 0.1798469128 0.1725196705 0.16456569997 0.15595916032 0.14668835301 0.13675882962 0.12619522518 
0.11504139755 0.10335863492 0.091221913456 0.07871444487 0.065921063167 0.052921341936 0.039783622083 0.026561209804 0.013291732942 
1.0328986129e-15 
_area 1 100 double
0 0.00052399483391 0.0020860977156 0.0046563986912 0.008182538883 0.012583489344 0.017742293995 0.023503303136 0.029676906587 
0.036050695854 0.042404280069 0.048525333079 0.054225023389 0.059351069136 0.063796641335 0.067503713037 0.070460396554 0.07269318337 
0.074256353571 0.075221466696 0.075669274568 0.075684919654 0.075356052443 0.074773199623 0.074029983659 0.073210720837 0.072357806339 
0.071475273343 0.070575647627 0.069700497683 0.068913623733 0.068287425323 0.067890281224 0.067776973053 0.06798281376 0.068521830845 
0.069388399961 0.07056080372 0.072005579258 0.0736819896 0.07554435113 0.077538624066 0.079594902899 0.08162939275 0.083599326651 
0.085730252509 0.08802332712 0.090438056692 0.093122254901 0.096299512609 0.10021124027 0.10504560433 0.11087798541 0.11764377005 
0.12513626077 0.13302292465 0.14088676722 0.14829016964 0.15484264825 0.16025372388 0.16436122526 0.1671331314 0.16864491664 
0.16903734859 0.16846752598 0.16707401033 0.16496705078 0.16223547518 0.15895806103 0.15521311606 0.1510837502 0.14665829575 
0.14202623317 0.13726963272 0.13245034449 0.1275960932 0.12269269293 0.11768931775 0.11251676059 0.10711056678 0.10142899938 
0.095460198327 0.089218813913 0.082736347045 0.076050831312 0.069200748132 0.062225591375 0.055172146961 0.048102867265 0.041102069502 
0.034277110599 0.027753941896 0.021668191564 0.016153702517 0.011330671228 0.007295724955 0.0041163662053 0.001831514849 0.00045795766175 
3.385082156e-17 
