# vtk DataFile Version 5.1
vtk output
ASCII
DATASET POLYDATA
POINTS 100 float
0.134008 0.0857685 -0.656078 0.134135 0.085913 -0.656452 0.134547 0.0861794 -0.657573 
0.135187 0.0865155 -0.659264 0.135967 0.0868388 -0.661249 0.136771 0.0870434 -0.663187 
0.137472 0.0870081 -0.664709 0.137938 0.0866065 -0.665454 0.138043 0.0857158 -0.66511 
0.137676 0.0842266 -0.663442 0.136746 0.0820498 -0.66031 0.135187 0.0791229 -0.65568 
0.132957 0.0754127 -0.649614 0.130036 0.0709169 -0.642254 0.126421 0.0656625 -0.633797 
0.122124 0.0597031 -0.624459 0.117165 0.0531142 -0.614449 0.111568 0.0459884 -0.603935 
0.105357 0.03843 -0.593025 0.0985604 0.0305505 -0.581753 0.0912068 0.0224641 -0.570078 
0.0833298 0.0142851 -0.557894 0.0749699 0.00612563 -0.545051 0.0661779 -0.00190507 -0.531373 
0.0570159 -0.00970136 -0.516691 0.0475577 -0.0171612 -0.500864 0.0378867 -0.0241864 -0.483801 
0.0280914 -0.0306833 -0.465475 0.0182607 -0.0365642 -0.445924 0.00847615 -0.0417492 -0.425249 
-0.0011934 -0.0461697 -0.403598 -0.0106977 -0.0497711 -0.381144 -0.020008 -0.0525166 -0.35807 
-0.0291168 -0.0543905 -0.334539 -0.0380346 -0.0554002 -0.310683 -0.0467835 -0.0555777 -0.286584 
-0.0553873 -0.0549791 -0.262274 -0.0638612 -0.0536824 -0.237741 -0.0722 -0.0517836 -0.212933 
-0.0803687 -0.0493917 -0.187781 -0.0882956 -0.0466222 -0.16222 -0.0958691 -0.04359 -0.136202 
-0.10294 -0.040403 -0.109718 -0.10933 -0.037156 -0.0828092 -0.114841 -0.0339263 -0.0555674 
-0.119273 -0.0307707 -0.0281343 -0.122441 -0.0277251 -0.000689738 -0.124191 -0.0248061 0.0265649 
-0.124419 -0.0220142 0.0534262 -0.123079 -0.0193392 0.0797086 -0.120191 -0.0167656 0.105262 
-0.115843 -0.0142796 0.129983 -0.110181 -0.0118738 0.153825 -0.103399 -0.00955264 0.176793 
-0.0957233 -0.00733489 0.198935 -0.0873912 -0.00525448 0.220336 -0.0786339 -0.00335926 0.241091 
-0.0696573 -0.0017076 0.261295 -0.0606279 -0.000363409 0.281027 -0.0516644 0.00061 0.300335 
-0.042834 0.00115646 0.319231 -0.0341559 0.0012332 0.337695 -0.025609 0.000816068 0.35568 
-0.0171446 -9.68302e-05 0.373122 -0.0087008 -0.00148351 0.389958 -0.000217014 -0.0032987 0.406138 
0.00835299 -0.00547663 0.42164 0.0170316 -0.00793565 0.436477 0.025812 -0.0105843 0.450701 
0.0346586 -0.0133283 0.4644 0.0435106 -0.016077 0.477684 0.0522911 -0.0187505 0.490673 
0.0609172 -0.0212839 0.503483 0.0693114 -0.0236314 0.516198 0.0774116 -0.0257671 0.528866 
0.0851789 -0.027685 0.54148 0.0926011 -0.0293962 0.55398 0.0996928 -0.0309249 0.56625 
0.10649 -0.0323036 0.578136 0.113043 -0.0335679 0.589457 0.119406 -0.0347509 0.600028 
0.125625 -0.0358794 0.60968 0.13173 -0.0369704 0.61828 0.137727 -0.03803 0.625751 
0.143593 -0.0390528 0.632075 0.149279 -0.0400243 0.637298 0.154714 -0.0409231 0.641522 
0.159812 -0.041725 0.644898 0.164485 -0.0424069 0.647597 0.168652 -0.042951 0.649803 
0.172253 -0.0433474 0.65168 0.175255 -0.0435966 0.653365 0.177657 -0.0437105 0.654949 
0.179491 -0.0437111 0.656476 0.180817 -0.0436289 0.657942 0.181717 -0.0434998 0.659304 
0.182282 -0.0433611 0.660495 0.182598 -0.0432475 0.661438 0.182739 -0.043187 0.662062 
0.182752 -0.0431981 0.662318 
LINES 2 100
OFFSETS vtktypeint64
0 100 
CONNECTIVITY vtktypeint64
0 1 2 3 4 5 6 7 8 
9 10 11 12 13 14 15 16 17 
18 19 20 21 22 23 24 25 26 
27 28 29 30 31 32 33 34 35 
36 37 38 39 40 41 42 43 44 
45 46 47 48 49 50 51 52 53 
54 55 56 57 58 59 60 61 62 
63 64 65 66 67 68 69 70 71 
72 73 74 75 76 77 78 79 80 
81 82 83 84 85 86 87 88 89 
90 91 92 93 94 95 96 97 98 
99 
POINT_DATA 100
FIELD FieldData 3
_theta 1 100 double
0 0.031733259127 0.063466518254 0.095199777382 0.12693303651 0.15866629564 0.19039955476 0.22213281389 0.25386607302 
0.28559933214 0.31733259127 0.3490658504 0.38079910953 0.41253236865 0.44426562778 0.47599888691 0.50773214603 0.53946540516 
0.57119866429 0.60293192342 0.63466518254 0.66639844167 0.6981317008 0.72986495992 0.76159821905 0.79333147818 0.82506473731 
0.85679799643 0.88853125556 0.92026451469 0.95199777382 0.98373103294 1.0154642921 1.0471975512 1.0789308103 1.1106640695 
1.1423973286 1.1741305877 1.2058638468 1.237597106 1.2693303651 1.3010636242 1.3327968833 1.3645301425 1.3962634016 
1.4279966607 1.4597299198 1.491463179 1.5231964381 1.5549296972 1.5866629564 1.6183962155 1.6501294746 1.6818627337 
1.7135959929 1.745329252 1.7770625111 1.8087957702 1.8405290294 1.8722622885 1.9039955476 1.9357288068 1.9674620659 
1.999195325 2.0309285841 2.0626618433 2.0943951024 2.1261283615 2.1578616206 2.1895948798 2.2213281389 2.253061398 
2.2847946572 2.3165279163 2.3482611754 2.3799944345 2.4117276937 2.4434609528 2.4751942119 2.506927471 2.5386607302 
2.5703939893 2.6021272484 2.6338605076 2.6655937667 2.6973270258 2.7290602849 2.7607935441 2.7925268032 2.8242600623 
2.8559933214 2.8877265806 2.9194598397 2.9511930988 2.982926358 3.0146596171 3.0463928762 3.0781261353 3.1098593945 
3.1415926536 
_radius 1 100 double
8.5683399489e-16 0.015523257303 0.030878578325 0.045898966543 0.060431943762 0.074343677748 0.087520941453 0.099871928014 0.11132649181 
0.12183571256 0.13137047154 0.13991895502 0.14748331402 0.15407593685 0.15971595314 0.16442670923 0.16823495996 0.1711722921 
0.17327878938 0.17460829138 0.17523401748 0.17525301242 0.17478786254 0.17398438268 0.1730044976 0.17201443285 0.1711695446 
0.17059827812 0.17038826773 0.17057711055 0.17114904701 0.1720373738 0.17313176585 0.17429015329 0.17535550775 0.1761771713 
0.17663405601 0.17665523275 0.17623360219 0.17542987582 0.17436590561 0.17320823951 0.17214489972 0.17136054674 0.17101602189 
0.17123628876 0.17210674538 0.17367459289 0.17595140627 0.17891474469 0.18250883634 0.18664581566 0.19120930295 0.19606144976 
0.20105332079 0.20603716385 0.21087827969 0.21546419062 0.21970958536 0.22355671252 0.22697204685 0.22994081471 0.23246115806 
0.2345393548 0.2361868075 0.23741879457 0.23825451895 0.23871785437 0.2388382455 0.23865127958 0.23819841586 0.23752526389 
0.23667777151 0.23569588638 0.23460481797 0.23340491743 0.2320621351 0.23050156629 0.22860638633 0.22622346079 0.22317543663 
0.21927769912 0.21435763978 0.20827336836 0.20092922408 0.19228602459 0.18236481154 0.17124386209 0.15904987243 0.14594523795 
0.13211378551 0.11774680741 0.10303012727 0.088132135163 0.073192889121 0.058315167764 0.043558952112 0.028940712629 0.014438144404 
6.9450721544e-16 
_area 1 100 double
0 0.00054025032399 0.0021561644448 0.0048361659714 0.0085637250608 0.013304729464 0.018979908908 0.02543954656 0.032455578161 
0.03973252465 0.046932077321 0.053705984341 0.059732621817 0.064752602181 0.068598178293 0.071210788357 0.07264174649 0.073033401588 
0.072582066715 0.071489455452 0.069917700716 0.067975504479 0.065760934536 0.063446868451 0.061304436663 0.059343658126 0.057716033667 
0.056612997907 0.056306965611 0.056806938248 0.058092633958 0.060060563539 0.062552180668 0.06536966164 0.068291644233 0.071098644068 
0.073600214932 0.075660673693 0.077222621049 0.078317587518 0.079055225625 0.079592803071 0.080094345519 0.080693050055 0.081471367543 
0.082468382207 0.083710417914 0.085247044229 0.087191272282 0.089968204677 0.09378485017 0.098199966354 0.10318750601 0.10871514817 
0.11468955213 0.12093325678 0.12719166365 0.13317002879 0.13858592779 0.143218192 0.14693933842 0.14972706104 0.151656223 
0.15287498376 0.15356803756 0.15390657654 0.15399205064 0.15383821783 0.15341405674 0.15269177008 0.15166767851 0.15036514131 
0.14882799213 0.1471067135 0.14523856394 0.14322469513 0.1410101443 0.13847446047 0.13543932021 0.13169428731 0.12703534234 
0.12130674438 0.11443671492 0.10645975605 0.09752119995 0.087862399642 0.077788311743 0.067623579838 0.057668180282 0.048166300851 
0.039297474167 0.031187139658 0.023924129666 0.017573392278 0.012180587557 0.0077723299381 0.0043573041989 0.0019307750384 0.00048170128017 
8.2265515966e-17 
