# vtk DataFile Version 5.1
vtk output
ASCII
DATASET POLYDATA
POINTS 100 float
0.202023 0.0761954 -0.659123 0.201714 0.0761983 -0.659439 0.200843 0.0760542 -0.660358 
0.199446 0.0757421 -0.661707 0.197577 0.0752287 -0.663223 0.195301 0.0744714 -0.664581 
0.192689 0.073422 -0.665433 0.189806 0.0720316 -0.665446 0.186706 0.0702541 -0.664339 
0.18342 0.0680503 -0.661911 0.179952 0.0653905 -0.658061 0.176275 0.0622562 -0.652792 
0.172329 0.0586403 -0.646201 0.168025 0.0545471 -0.638462 0.163248 0.0499906 -0.629797 
0.157871 0.0449928 -0.620439 0.151763 0.0395825 -0.610603 0.144803 0.033794 -0.600456 
0.136896 0.0276661 -0.590094 0.127981 0.0212428 -0.579531 0.118047 0.0145743 -0.568705 
0.107135 0.00771816 -0.557483 0.0953445 0.000741424 -0.545689 0.0828246 -0.00627797 -0.533126 
0.069771 -0.0132503 -0.519608 0.0564106 -0.0200742 -0.504986 0.0429855 -0.0266385 -0.489165 
0.0297347 -0.0328253 -0.47212 0.0168752 -0.0385146 -0.453895 0.00458512 -0.0435904 -0.434596 
-0.00700908 -0.0479473 -0.414373 -0.0178409 -0.0514973 -0.393396 -0.0279052 -0.0541761 -0.371832 
-0.0372534 -0.0559483 -0.349821 -0.0459817 -0.0568107 -0.327456 -0.0542148 -0.0567929 -0.304772 
-0.0620858 -0.0559563 -0.281747 -0.0697144 -0.0543899 -0.258307 -0.0771866 -0.0522046 -0.234346 
-0.0845383 -0.0495255 -0.209745 -0.091743 -0.0464836 -0.184402 -0.0987083 -0.0432072 -0.158252 
-0.105279 -0.0398145 -0.131294 -0.111247 -0.0364069 -0.103595 -0.116372 -0.0330652 -0.0753005 
-0.120399 -0.0298474 -0.0466262 -0.123089 -0.026789 -0.0178401 -0.12424 -0.0239055 0.0107589 
-0.123707 -0.0211969 0.0388697 -0.121426 -0.0186529 0.0662167 -0.117416 -0.0162584 0.0925762 
-0.111782 -0.0139993 0.117796 -0.104712 -0.0118668 0.141805 -0.0964576 -0.00986048 0.16462 
-0.0873156 -0.00799012 0.18633 -0.077604 -0.006275 0.207088 -0.0676359 -0.00474235 0.227083 
-0.0576963 -0.00342425 0.246518 -0.0480221 -0.00235389 0.265587 -0.0387885 -0.00156172 0.284449 
-0.0301022 -0.00107192 0.30322 -0.0220021 -0.000899708 0.321961 -0.0144668 -0.00104986 0.34068 
-0.00742822 -0.00151646 0.359341 -0.000788559 -0.00228399 0.377875 0.00556137 -0.00332944 0.396199 
0.0117241 -0.00462511 0.414232 0.0177805 -0.00614172 0.431906 0.0237793 -0.00785131 0.449183 
0.0297316 -0.00972954 0.466052 0.035611 -0.0117571 0.48253 0.0413599 -0.0139198 0.498652 
0.0468978 -0.016208 0.514463 0.0521345 -0.0186144 0.529999 0.0569821 -0.0211315 0.545276 
0.0613671 -0.0237489 0.560278 0.0652396 -0.02645 0.574951 0.0685794 -0.0292098 0.589205 
0.0713972 -0.0319939 0.602917 0.0737326 -0.0347574 0.615945 0.0756483 -0.0374465 0.62814 
0.0772215 -0.0400007 0.639367 0.0785347 -0.0423561 0.64952 0.0796665 -0.0444498 0.658536 
0.0806838 -0.0462245 0.666401 0.081636 -0.0476331 0.673156 0.0825531 -0.0486431 0.678891 
0.0834452 -0.0492399 0.683732 0.0843065 -0.0494287 0.687831 0.0851196 -0.0492356 0.691343 
0.0858618 -0.0487065 0.694414 0.086511 -0.0479048 0.697162 0.0870504 -0.0469082 0.699669 
0.0874721 -0.0458036 0.701973 0.0877783 -0.044682 0.704072 0.08798 -0.0436328 0.70593 
0.0880949 -0.042738 0.707491 0.0881432 -0.0420674 0.708687 0.0881436 -0.0416739 0.709458 
0.0881093 -0.0415903 0.709763 
LINES 2 100
OFFSETS vtktypeint64
0 100 
CONNECTIVITY vtktypeint64
0 1 2 3 4 5 6 7 8 
9 10 11 12 13 14 15 16 17 
18 19 20 21 22 23 24 25 26 
27 28 29 30 31 32 33 34 35 
36 37 38 39 40 41 42 43 44 
45 46 47 48 49 50 51 52 53 
54 55 56 57 58 59 60 61 62 
63 64 65 66 67 68 69 70 71 
72 73 74 75 76 77 78 79 80 
81 82 83 84 85 86 87 88 89 
90 91 92 93 94 95 96 97 98 
99 
POINT_DATA 100
FIELD FieldData 3
_theta 1 100 double
0 0.031733259127 0.063466518254 0.095199777382 0.12693303651 0.15866629564 0.19039955476 0.22213281389 0.25386607302 
0.28559933214 0.31733259127 0.3490658504 0.38079910953 0.41253236865 0.44426562778 0.47599888691 0.50773214603 0.53946540516 
0.57119866429 0.60293192342 0.63466518254 0.66639844167 0.6981317008 0.72986495992 0.76159821905 0.79333147818 0.82506473731 
0.85679799643 0.88853125556 0.92026451469 0.95199777382 0.98373103294 1.0154642921 1.0471975512 1.0789308103 1.1106640695 
1.1423973286 1.1741305877 1.2058638468 1.237597106 1.2693303651 1.3010636242 1.3327968833 1.3645301425 1.3962634016 
1.4279966607 1.4597299198 1.491463179 1.5231964381 1.5549296972 1.5866629564 1.6183962155 1.6501294746 1.6818627337 
1.7135959929 1.745329252 1.7770625111 1.8087957702 1.8405290294 1.8722622885 1.9039955476 1.9357288068 1.9674620659 
1.999195325 2.0309285841 2.0626618433 2.0943951024 2.1261283615 2.1578616206 2.1895948798 2.2213281389 2.253061398 
2.2847946572 2.3165279163 2.3482611754 2.3799944345 2.4117276937 2.4434609528 2.4751942119 2.506927471 2.5386607302 
2.5703939893 2.6021272484 2.6338605076 2.6655937667 2.6973270258 2.7290602849 2.7607935441 2.7925268032 2.8242600623 
2.8559933214 2.8877265806 2.9194598397 2.9511930988 2.982926358 3.0146596171 3.0463928762 3.0781261353 3.1098593945 
3.1415926536 
_radius 1 100 double
2.355138688e-16 0.017957216016 0.035694192851 0.053001733835 0.06969770749 0.085638018771 0.10072332416 0.11489988734 0.12815403502 
0.14050101435 0.15197020397 0.16258932692 0.17237049377 0.181300609 0.18933795382 0.19641569322 0.20245179877 0.20736368596 
0.21108502319 0.21358190003 0.21486589498 0.21500238834 0.21411336279 0.21237453679 0.2100068346 0.20726217185 0.20440383516 
0.20168271291 0.19931214221 0.19744550882 0.19616110938 0.19545762021 0.1952610313 0.19544108365 0.19583334844 0.19626292322 
0.19656712142 0.19661620198 0.19633154538 0.19569948584 0.19477773987 0.19369160468 0.1926191974 0.19176818886 0.19134912863 
0.19155084944 0.19252141107 0.194355406 0.1970870523 0.20068854163 0.20507348653 0.21010493464 0.21560641344 0.22137416913 
0.22718990859 0.23283480507 0.23810557773 0.24283187293 0.24689228928 0.25022557103 0.25283412536 0.25477866858 0.25616479264 
0.25712394157 0.25779225317 0.25829078548 0.25870994534 0.25909980611 0.25946679599 0.25977619869 0.25995916412 0.2599225427 
0.25955982408 0.25876168983 0.25742504712 0.25545979704 0.25279296903 0.24937022252 0.24515506963 0.24012646942 0.23427562673 
0.22760285081 0.22011517454 0.21182512667 0.20275065005 0.19291577247 0.18235138531 0.17109546389 0.15919230061 0.14669075632 
0.1336420039 0.12009750669 0.10610786657 0.091722755935 0.07699169583 0.061965212814 0.046695925989 0.031239257109 0.015653610671 
1.1968332205e-15 
_area 1 100 double
0 0.00062079790809 0.0024920278774 0.0056278390562 0.010017583895 0.015594367123 0.022218193178 0.029681329994 0.037733572111 
0.046118289422 0.054607431631 0.063023966126 0.071243240625 0.079171401189 0.086708917794 0.093716045925 0.099998062583 0.10531938691 
0.10944287719 0.11218100807 0.11344229568 0.11325894517 0.11178906174 0.1092960805 0.1061142551 0.10260877329 0.09913554762 
0.096005036392 0.093457638224 0.091669447729 0.090880691598 0.091019077483 0.091752983598 0.092712294578 0.093681768377 0.094516903817 
0.095165719601 0.095683424072 0.096228339383 0.096994729929 0.098109614686 0.099644243947 0.10159127649 0.10383429608 0.10620713961 
0.10859733766 0.11098856125 0.11346404362 0.11618237364 0.11934530196 0.1231746537 0.1278842258 0.13361336115 0.14034310767 
0.14786179931 0.1557892196 0.1636296101 0.17084577663 0.17694716541 0.18157087689 0.18453533528 0.185857512 0.18573572013 
0.18450786031 0.18260095143 0.18049297522 0.17865288777 0.17725851798 0.17618218028 0.17527133833 0.17438000412 0.17336032079 
0.17206704282 0.17036458703 0.16813243483 0.16526768457 0.16168508173 0.15731639729 0.15211131661 0.14604032431 0.13909824108 
0.13130715291 0.12271899765 0.11341886438 0.10352892479 0.093210838349 0.082663335931 0.072112309238 0.061792758952 0.051924983103 
0.042690977162 0.034219551582 0.026587175915 0.019834502515 0.013989932073 0.0090887605823 0.0051809351347 0.0023269351917 0.00058565719725 
5.4257536182e-17 
