# vtk DataFile Version 5.1
vtk output
ASCII
DATASET POLYDATA
POINTS 100 float
0.107418 0.0517363 -0.634689 0.107162 0.0517572 -0.634205 0.106365 0.05159 -0.63272 
0.10507 0.0512147 -0.630249 0.103349 0.0506013 -0.62682 0.101289 0.0497116 -0.622472 
0.098992 0.0485027 -0.617259 0.0965598 0.0469293 -0.611249 0.0940873 0.044948 -0.604522 
0.091652 0.0425207 -0.597169 0.0893065 0.0396176 -0.589287 0.0870723 0.036221 -0.580976 
0.0849363 0.0323273 -0.572329 0.0828504 0.0279491 -0.563427 0.0807345 0.0231162 -0.554334 
0.0784825 0.0178753 -0.545089 0.0759704 0.0122892 -0.535701 0.0730675 0.00643471 -0.526152 
0.0696473 0.000400119 -0.516394 0.0655997 -0.00571844 -0.506355 0.0608404 -0.0118207 -0.495945 
0.0553201 -0.0178064 -0.485064 0.0490287 -0.0235788 -0.473612 0.0419974 -0.0290489 -0.4615 
0.0342962 -0.0341377 -0.448654 0.0260281 -0.0387791 -0.435025 0.0173201 -0.042921 -0.420593 
0.00831275 -0.0465263 -0.405366 -0.000851871 -0.0495728 -0.389376 -0.0100412 -0.0520523 -0.372678 
-0.0191418 -0.0539697 -0.355338 -0.0280657 -0.0553415 -0.337428 -0.0367541 -0.0561938 -0.319014 
-0.045176 -0.0565608 -0.300152 -0.0533241 -0.056483 -0.280878 -0.061207 -0.0560056 -0.26121 
-0.0688395 -0.055177 -0.241143 -0.0762316 -0.0540473 -0.220657 -0.0833789 -0.0526671 -0.199722 
-0.090254 -0.0510855 -0.178303 -0.0968014 -0.0493494 -0.156373 -0.102936 -0.0475016 -0.13392 
-0.108547 -0.0455791 -0.110955 -0.113503 -0.0436123 -0.0875152 -0.117664 -0.0416235 -0.0636711 
-0.120891 -0.0396261 -0.0395207 -0.123061 -0.0376248 -0.015188 -0.124079 -0.0356159 0.0091841 
-0.123887 -0.0335883 0.033443 -0.122469 -0.0315261 0.0574359 -0.119854 -0.0294105 0.0810197 
-0.116116 -0.0272231 0.104069 -0.111363 -0.0249496 0.126485 -0.105731 -0.0225823 0.148196 
-0.0993675 -0.0201229 0.169162 -0.0924239 -0.0175847 0.189371 -0.0850394 -0.014993 0.208836 
-0.0773335 -0.0123847 0.22759 -0.0693992 -0.00980681 0.245679 -0.0613002 -0.00731348 0.263154 
-0.0530735 -0.00496195 0.280066 -0.0447337 -0.00280822 0.296463 -0.0362819 -0.000902447 0.312384 
-0.0277144 0.000715461 0.327861 -0.0190326 0.00201935 0.342916 -0.0102505 0.00299922 0.357567 
-0.00140039 0.00366218 0.37183 0.00746493 0.00403182 0.38572 0.0162742 0.00414603 0.399253 
0.0249423 0.00405356 0.412452 0.0333783 0.00380956 0.425344 0.0414946 0.00347066 0.437957 
0.0492162 0.00309005 0.450321 0.0564893 0.00271313 0.462461 0.0632864 0.00237414 0.474395 
0.0696094 0.00209411 0.48613 0.0754876 0.00188031 0.497655 0.0809727 0.00172722 0.508945 
0.0861302 0.00161878 0.519952 0.0910295 0.00153176 0.530615 0.0957326 0.00143956 0.540856 
0.100284 0.00131626 0.550589 0.104704 0.00114016 0.559724 0.108983 0.000896622 0.568175 
0.113083 0.000579776 0.575866 0.116941 0.00019299 0.582736 0.120477 -0.00025188 0.588745 
0.123607 -0.000736304 0.593881 0.126251 -0.00123765 0.598155 0.128352 -0.00173214 0.601606 
0.12988 -0.00219776 0.604295 0.13084 -0.00261676 0.606307 0.131279 -0.00297733 0.607737 
0.131277 -0.00327448 0.608693 0.130948 -0.0035097 0.609283 0.130419 -0.00368989 0.609614 
0.129827 -0.00382544 0.609779 0.129295 -0.00392797 0.609857 0.128925 -0.00400805 0.609907 
0.128781 -0.00407313 0.609965 
LINES 2 100
OFFSETS vtktypeint64
0 100 
CONNECTIVITY vtktypeint64
0 1 2 3 4 5 6 7 8 
9 10 11 12 13 14 15 16 17 
18 19 20 21 22 23 24 25 26 
27 28 29 30 31 32 33 34 35 
36 37 38 39 40 41 42 43 44 
45 46 47 48 49 50 51 52 53 
54 55 56 57 58 59 60 61 62 
63 64 65 66 67 68 69 70 71 
72 73 74 75 76 77 78 79 80 
81 82 83 84 85 86 87 88 89 
90 91 92 93 94 95 96 97 98 
99 
POINT_DATA 100
FIELD FieldData 3
_theta 1 100 double
0 0.031733259127 0.063466518254 0.095199777382 0.12693303651 0.15866629564 0.19039955476 0.22213281389 0.25386607302 
0.28559933214 0.31733259127 0.3490658504 0.38079910953 0.41253236865 0.44426562778 0.47599888691 0.50773214603 0.53946540516 
0.57119866429 0.60293192342 0.63466518254 0.66639844167 0.6981317008 0.72986495992 0.76159821905 0.79333147818 0.82506473731 
0.85679799643 0.88853125556 0.92026451469 0.95199777382 0.98373103294 1.0154642921 1.0471975512 1.0789308103 1.1106640695 
1.1423973286 1.1741305877 1.2058638468 1.237597106 1.2693303651 1.3010636242 1.3327968833 1.3645301425 1.3962634016 
1.4279966607 1.4597299198 1.491463179 1.5231964381 1.5549296972 1.5866629564 1.6183962155 1.6501294746 1.6818627337 
1.7135959929 1.745329252 1.7770625111 1.8087957702 1.8405290294 1.8722622885 1.9039955476 1.9357288068 1.9674620659 
1.999195325 2.0309285841 2.0626618433 2.0943951024 2.1261283615 2.1578616206 2.1895948798 2.2213281389 2.253061398 
2.2847946572 2.3165279163 2.3482611754 2.3799944345 2.4117276937 2.4434609528 2.4751942119 2.506927471 2.5386607302 
2.5703939893 2.6021272484 2.6338605076 2.6655937667 2.6973270258 2.7290602849 2.7607935441 2.7925268032 2.8242600623 
2.8559933214 2.8877265806 2.9194598397 2.9511930988 2.982926358 3.0146596171 3.0463928762 3.0781261353 3.1098593945 
3.1415926536 
_radius 1 100 double
1.132294822e-15 0.013925799319 0.027689988459 0.041143324245 0.054166963603 0.066682393153 0.078655699625 0.090095472224 0.10104451699 
0.11156648648 0.12172933837 0.13158808995 0.14116953044 0.15046135067 0.15940756301 0.16791117765 0.1758439957 0.18306225755 
0.189425951 0.19481900225 0.19916742097 0.20245273628 0.20471867548 0.20606991814 0.20666282577 0.20668921487 0.20635536843 
0.20585934636 0.20536999936 0.20501074539 0.20485018932 0.2049003474 0.20512198055 0.20543566054 0.20573680195 0.20591287588 
0.20586113861 0.20550525627 0.20480915548 0.20378642768 0.20250386471 0.20107831734 0.19966699356 0.1984523441 0.19762353607 
0.19735694447 0.1977980189 0.19904645145 0.20114602612 0.20408000986 0.20777242749 0.21209499266 0.21687888461 0.22193006468 
0.2270464703 0.23203521993 0.23672793938 0.2409925307 0.24474016709 0.24792695225 0.2505504137 0.25264167645 0.25425467937 
0.25545408659 0.25630358645 0.25685607022 0.257146779 0.25718996142 0.2569789912 0.25648936795 0.2556836804 0.25451751779 
0.25294544563 0.2509263846 0.24842786425 0.24542860064 0.24191882682 0.2378980562 0.23337057111 0.228339673 0.22280222574 
0.21674500347 0.21014381396 0.20296552631 0.19517230656 0.18672683088 0.17759713842 0.16776008746 0.15720295647 0.14592339587 
0.13392847833 0.12123383352 0.10786369708 0.093852214691 0.079245733135 0.064105333285 0.048508676821 0.032550357083 0.016340276037 
1.3551969104e-15 
_area 1 100 double
0 0.00056158481565 0.0022203840271 0.004901516139 0.0084897922567 0.012842890516 0.017807171343 0.023233556762 0.028990766681 
0.034973734534 0.041105962804 0.047335488159 0.053624796942 0.059935759407 0.066211963133 0.072362663022 0.078253798752 0.083710785456 
0.088534805608 0.092530237811 0.095537332526 0.097462707227 0.098301211935 0.098145497514 0.097182576233 0.095678056486 0.093947344505 
0.092310072645 0.091029535996 0.090264468478 0.090067039051 0.090411988124 0.091220973921 0.092377664977 0.093743645669 0.095177401641 
0.096567030632 0.09784794649 0.098902856739 0.099692356228 0.10023753102 0.10060615042 0.10089780345 0.10123497786 0.10178588619 
0.10277759731 0.10437985862 0.10667610524 0.10976765713 0.11373329983 0.11859753141 0.12430919978 0.13073162304 0.1376467807 
0.1447735259 0.15179675454 0.15840228536 0.16431158057 0.16931098606 0.1732715097 0.1761569664 0.17802007756 0.17898735919 
0.17923434759 0.17895337006 0.17831753132 0.17744747614 0.1763902044 0.17511711802 0.17354009227 0.17153720523 0.16898065081 
0.16576375104 0.16182474083 0.15716294773 0.15184215203 0.14597767714 0.13970819258 0.1331595563 0.12641360931 0.11949525461 
0.11238312593 0.10503657974 0.097424779501 0.089546789856 0.081439359002 0.073174653036 0.064851719163 0.056584751737 0.048490803903 
0.040680172288 0.033252873951 0.026302627633 0.019925695225 0.014228685544 0.0093299406312 0.005352951841 0.0024141380397 0.00060897254648 
2.9069965361e-17 
