# vtk DataFile Version 5.1
vtk output
ASCII
DATASET POLYDATA
POINTS 100 float
0.123792 0.0748409 -0.647178 0.123546 0.0748925 -0.646813 0.122804 0.0748046 -0.645688 
0.121622 0.0745381 -0.643798 0.120085 0.0740328 -0.641142 0.118299 0.0732144 -0.63772 
0.116375 0.0720023 -0.633545 0.114418 0.0703176 -0.628638 0.112512 0.0680921 -0.623038 
0.110707 0.0652748 -0.616799 0.109015 0.0618376 -0.609988 0.107402 0.0577783 -0.602685 
0.105793 0.0531212 -0.59497 0.104073 0.0479151 -0.586924 0.102102 0.0422295 -0.578614 
0.0997262 0.0361489 -0.570087 0.0967906 0.0297667 -0.561366 0.0931577 0.0231789 -0.552439 
0.0887196 0.0164778 -0.543265 0.0834089 0.00974823 -0.53377 0.0772063 0.00306386 -0.523857 
0.0701427 -0.00351368 -0.51341 0.0622964 -0.00993458 -0.502307 0.0537863 -0.016159 -0.490429 
0.044761 -0.0221546 -0.477675 0.0353849 -0.0278929 -0.463968 0.0258242 -0.0333469 -0.449264 
0.0162323 -0.0384881 -0.433554 0.00673776 -0.0432851 -0.416869 -0.00256458 -0.047703 -0.39927 
-0.0116185 -0.0517043 -0.380846 -0.0204065 -0.0552502 -0.361701 -0.0289457 -0.058303 -0.341948 
-0.0372788 -0.0608287 -0.321694 -0.0454636 -0.0627994 -0.30103 -0.0535591 -0.0641961 -0.280029 
-0.0616124 -0.0650095 -0.258738 -0.0696465 -0.0652414 -0.237175 -0.0776505 -0.0649043 -0.21534 
-0.085574 -0.0640208 -0.193211 -0.0933248 -0.0626226 -0.170761 -0.100772 -0.060748 -0.147962 
-0.107753 -0.0584409 -0.124796 -0.114085 -0.0557493 -0.101267 -0.119574 -0.0527231 -0.077399 
-0.124036 -0.049414 -0.0532478 -0.127303 -0.0458745 -0.0288959 -0.129243 -0.0421574 -0.00445084 
-0.129764 -0.0383157 0.0199609 -0.128823 -0.0344021 0.0442023 -0.126426 -0.0304685 0.0681353 
-0.122632 -0.0265653 0.0916298 -0.117541 -0.0227402 0.114573 -0.111288 -0.0190372 0.136875 
-0.104034 -0.0154949 0.158473 -0.0959557 -0.0121457 0.179336 -0.0872296 -0.00901479 0.199459 
-0.0780266 -0.00612014 0.218862 -0.0685024 -0.00347258 0.237584 -0.058792 -0.00107705 0.255675 
-0.0490072 0.00106577 0.273195 -0.0392363 0.00295746 0.290198 -0.0295461 0.00459969 0.306738 
-0.0199856 0.00599232 0.322856 -0.010591 0.00713208 0.338584 -0.00139016 0.00801205 0.353945 
0.00759295 0.00862219 0.368951 0.0163347 0.00895096 0.38361 0.02481 0.00898778 0.397925 
0.0329915 0.00872619 0.411898 0.040851 0.00816724 0.425533 0.048361 0.00732248 0.438836 
0.0554973 0.00621626 0.451813 0.0622421 0.00488676 0.464472 0.0685867 0.00338533 0.476816 
0.0745325 0.00177426 0.488843 0.0800925 0.000122786 0.500542 0.0852903 -0.00149811 0.511888 
0.0901584 -0.00302176 0.522844 0.0947355 -0.00439197 0.533358 0.0990631 -0.00556852 0.543363 
0.103182 -0.00653136 0.552783 0.107128 -0.0072828 0.561537 0.110929 -0.00784741 0.569544 
0.114605 -0.00826945 0.57673 0.118164 -0.00860789 0.583032 0.121602 -0.00892973 0.588409 
0.124908 -0.00930207 0.592846 0.128062 -0.009784 0.596355 0.131039 -0.0104191 0.598979 
0.133812 -0.0112298 0.600789 0.136354 -0.0122134 0.601886 0.13864 -0.0133417 0.602389 
0.140649 -0.0145634 0.602436 0.142365 -0.0158084 0.602168 0.143776 -0.0169959 0.601726 
0.144873 -0.0180423 0.601243 0.145652 -0.0188709 0.600827 0.14611 -0.0194198 0.600566 
0.146246 -0.0196495 0.600512 
LINES 2 100
OFFSETS vtktypeint64
0 100 
CONNECTIVITY vtktypeint64
0 1 2 3 4 5 6 7 8 
9 10 11 12 13 14 15 16 17 
18 19 20 21 22 23 24 25 26 
27 28 29 30 31 32 33 34 35 
36 37 38 39 40 41 42 43 44 
45 46 47 48 49 50 51 52 53 
54 55 56 57 58 59 60 61 62 
63 64 65 66 67 68 69 70 71 
72 73 74 75 76 77 78 79 80 
81 82 83 84 85 86 87 88 89 
90 91 92 93 94 95 96 97 98 
99 
POINT_DATA 100
FIELD FieldData 3
_theta 1 100 double
0 0.031733259127 0.063466518254 0.095199777382 0.12693303651 0.15866629564 0.19039955476 0.22213281389 0.25386607302 
0.28559933214 0.31733259127 0.3490658504 0.38079910953 0.41253236865 0.44426562778 0.47599888691 0.50773214603 0.53946540516 
0.57119866429 0.60293192342 0.63466518254 0.66639844167 0.6981317008 0.72986495992 0.76159821905 0.79333147818 0.82506473731 
0.85679799643 0.88853125556 0.92026451469 0.95199777382 0.98373103294 1.0154642921 1.0471975512 1.0789308103 1.1106640695 
1.1423973286 1.1741305877 1.2058638468 1.237597106 1.2693303651 1.3010636242 1.3327968833 1.3645301425 1.3962634016 
1.4279966607 1.4597299198 1.491463179 1.5231964381 1.5549296972 1.5866629564 1.6183962155 1.6501294746 1.6818627337 
1.7135959929 1.745329252 1.7770625111 1.8087957702 1.8405290294 1.8722622885 1.9039955476 1.9357288068 1.9674620659 
1.999195325 2.0309285841 2.0626618433 2.0943951024 2.1261283615 2.1578616206 2.1895948798 2.2213281389 2.253061398 
2.2847946572 2.3165279163 2.3482611754 2.3799944345 2.4117276937 2.4434609528 2.4751942119 2.506927471 2.5386607302 
2.5703939893 2.6021272484 2.6338605076 2.6655937667 2.6973270258 2.7290602849 2.7607935441 2.7925268032 2.8242600623 
2.8559933214 2.8877265806 2.9194598397 2.9511930988 2.982926358 3.0146596171 3.0463928762 3.0781261353 3.1098593945 
3.1415926536 
_radius 1 100 double
1.2437471332e-15 0.013736549256 0.027380739142 0.040841602519 0.054039351476 0.066908748836 0.079400234024 0.091478735726 0.10312047689 
0.11430834831 0.12502656239 0.13525532263 0.14496621708 0.15411902186 0.16266058114 0.1705263372 0.1776448068 0.18394479286 
0.189364488 0.19386109593 0.19741937461 0.20005765247 0.201830299 0.20282620494 0.20316343303 0.20298075694 0.20242722804 
0.2016510902 0.20078923041 0.19995796599 0.19924556041 0.1987067091 0.19835944307 0.1981852494 0.19813330773 0.19812930701 
0.19808836341 0.19793041168 0.19759548504 0.19705586238 0.19632237796 0.19544342378 0.1944973376 0.19358140589 0.19280212357 
0.19226997534 0.19209809194 0.19240057419 0.19328593086 0.19484402638 0.19712897373 0.20014313861 0.20382760514 0.20806238244 
0.21267665643 0.21746685732 0.22221887201 0.22673043732 0.23083036638 0.23439240447 0.23734276687 0.2396614687 0.24137825768 
0.24256427495 0.24332057899 0.24376454979 0.24401515377 0.24417820328 0.24433301681 0.24452204483 0.24474483388 0.24495708016 
0.24507464036 0.24498153576 0.24454048272 0.24360440564 0.2420276648 0.23967619049 0.23643614692 0.23222097177 0.22697660406 
0.22068454733 0.213362308 0.20506082725 0.19585880421 0.18585423294 0.17515396857 0.16386261732 0.15207240293 0.13985574659 
0.1272619637 0.11431869553 0.10103762998 0.087423065745 0.073481284341 0.059228690231 0.044697204541 0.029936221318 0.015011257597 
1.0015934018e-15 
_area 1 100 double
0 0.00055821233368 0.0022143275194 0.004914891858 0.0085771483847 0.013096464487 0.018353762804 0.024221955408 0.030571409218 
0.037274871246 0.044211629113 0.051269517984 0.058342943924 0.065326219409 0.072103843125 0.078541614464 0.084483363417 0.089756978139 
0.094190538314 0.097635757078 0.099993178934 0.10123288258 0.10140575677 0.10064275764 0.099142079349 0.097146687298 0.094917136201 
0.092706304634 0.090741765313 0.089216437829 0.088283107866 0.088053704197 0.088569255754 0.089776168475 0.091498098512 0.093465392274 
0.095396226287 0.097057698814 0.098319585095 0.099174942487 0.099726157105 0.1001393842 0.10058441736 0.10119410598 0.10203342146 
0.10318662584 0.10468996924 0.10651090712 0.10869050383 0.11133758198 0.11457856327 0.11850374026 0.12313853638 0.12843198623 
0.13424428268 0.14034077614 0.14641238143 0.15212813993 0.15720257451 0.16144997388 0.16480546503 0.16730938096 0.16906714461 
0.17020488726 0.17083790434 0.17105816663 0.17093662956 0.17053147058 0.16989422126 0.16906917505 0.16808572095 0.16694772873 
0.16562687779 0.16406452001 0.16217848727 0.15986378145 0.15698398918 0.15337289135 0.14886269655 0.14332359405 0.1366930455 
0.12898959635 0.12031385168 0.11083858969 0.10078934753 0.090418187397 0.079975458871 0.069685732325 0.05973354222 0.050261497342 
0.041378544047 0.033172546394 0.025721258607 0.019098387336 0.013374245054 0.0086123505382 0.0048645091513 0.0021673653513 0.00054251967491 
3.0979808867e-17 
