# vtk DataFile Version 5.1
vtk output
ASCII
DATASET POLYDATA
POINTS 100 float
0.143928 0.108985 -0.710053 0.143651 0.108907 -0.709686 0.1428 0.108412 -0.708504 
0.141403 0.107495 -0.70649 0.139503 0.106145 -0.703622 0.137162 0.104352 -0.69988 
0.134453 0.102106 -0.695256 0.131461 0.0993969 -0.68976 0.128273 0.0962199 -0.683427 
0.124974 0.0925722 -0.676319 0.121641 0.0884567 -0.668527 0.118329 0.0838818 -0.660161 
0.11507 0.0788616 -0.651346 0.111862 0.0734164 -0.642206 0.10867 0.0675721 -0.632853 
0.105419 0.0613608 -0.623372 0.102004 0.0548198 -0.613813 0.098294 0.0479918 -0.604183 
0.0941438 0.0409249 -0.59444 0.0894077 0.0336726 -0.584502 0.0839551 0.0262934 -0.574252 
0.0776852 0.0188511 -0.563549 0.0705397 0.011414 -0.552249 0.0625124 0.00405491 -0.540214 
0.0536527 -0.00315041 -0.527334 0.0440644 -0.0101244 -0.513536 0.0338979 -0.0167894 -0.49879 
0.0233372 -0.0230703 -0.483117 0.0125832 -0.0288965 -0.466575 0.00183493 -0.0342046 -0.449258 
-0.00872906 -0.0389409 -0.431279 -0.0189668 -0.0430632 -0.41275 -0.0287844 -0.0465428 -0.39377 
-0.0381408 -0.0493651 -0.374409 -0.0470469 -0.0515298 -0.354694 -0.0555559 -0.0530507 -0.334605 
-0.0637496 -0.0539544 -0.314079 -0.0717191 -0.0542784 -0.293011 -0.0795443 -0.0540692 -0.271272 
-0.0872741 -0.05338 -0.248726 -0.0949103 -0.0522684 -0.225246 -0.102397 -0.0507939 -0.200734 
-0.109617 -0.0490167 -0.175143 -0.116398 -0.0469957 -0.148482 -0.122521 -0.0447877 -0.120828 
-0.127746 -0.0424463 -0.0923204 -0.131827 -0.0400213 -0.0631605 -0.134542 -0.0375585 -0.0335921 
-0.135716 -0.035099 -0.00388692 -0.135234 -0.0326783 0.0256763 -0.133062 -0.0303263 0.0548321 
-0.129243 -0.0280661 0.0833472 -0.123898 -0.0259138 0.111035 -0.117212 -0.0238775 0.137764 
-0.109416 -0.0219575 0.163464 -0.100764 -0.020147 0.188121 -0.0915064 -0.0184325 0.211771 
-0.0818725 -0.0167959 0.234485 -0.0720476 -0.0152168 0.25636 -0.0621627 -0.0136751 0.277501 
-0.0522898 -0.0121546 0.298007 -0.0424444 -0.0106455 0.317962 -0.0325957 -0.00914763 0.337425 
-0.0226817 -0.00767225 0.356431 -0.012627 -0.00624286 0.374989 -0.00236123 -0.00489499 0.393088 
0.00816423 -0.0036744 0.410705 0.0189648 -0.00263399 0.427811 0.0300162 -0.00182956 0.44438 
0.041255 -0.00131476 0.460398 0.0525844 -0.00113574 0.475864 0.063886 -0.00132604 0.490793 
0.075034 -0.00190212 0.505215 0.0859103 -0.0028603 0.519169 0.0964185 -0.00417523 0.532699 
0.106494 -0.0058003 0.545846 0.11611 -0.00766992 0.558639 0.125276 -0.00970356 0.57109 
0.134035 -0.0118112 0.583192 0.142448 -0.0138995 0.594914 0.150585 -0.0158789 0.606205 
0.158509 -0.017669 0.616995 0.166263 -0.019205 0.627203 0.17386 -0.0204407 0.636743 
0.181277 -0.0213512 0.645534 0.188456 -0.021933 0.653505 0.195309 -0.0222027 0.660605 
0.201731 -0.0221936 0.666806 0.207611 -0.0219518 0.672105 0.212848 -0.0215313 0.67653 
0.217365 -0.020989 0.680129 0.22112 -0.0203805 0.682976 0.224112 -0.0197561 0.68516 
0.226384 -0.0191586 0.686781 0.228012 -0.0186218 0.687941 0.229103 -0.0181709 0.688742 
0.229773 -0.0178227 0.689274 0.230138 -0.0175879 0.689613 0.230291 -0.0174721 0.689818 
0.230298 -0.0174779 0.689923 
LINES 2 100
OFFSETS vtktypeint64
0 100 
CONNECTIVITY vtktypeint64
0 1 2 3 4 5 6 7 8 
9 10 11 12 13 14 15 16 17 
18 19 20 21 22 23 24 25 26 
27 28 29 30 31 32 33 34 35 
36 37 38 39 40 41 42 43 44 
45 46 47 48 49 50 51 52 53 
54 55 56 57 58 59 60 61 62 
63 64 65 66 67 68 69 70 71 
72 73 74 75 76 77 78 79 80 
81 82 83 84 85 86 87 88 89 
90 91 92 93 94 95 96 97 98 
99 
POINT_DATA 100
FIELD FieldData 3
_theta 1 100 double
0 0.031733259127 0.063466518254 0.095199777382 0.12693303651 0.15866629564 0.19039955476 0.22213281389 0.25386607302 
0.28559933214 0.31733259127 0.3490658504 0.38079910953 0.41253236865 0.44426562778 0.47599888691 0.50773214603 0.53946540516 
0.57119866429 0.60293192342 0.63466518254 0.66639844167 0.6981317008 0.72986495992 0.76159821905 0.79333147818 0.82506473731 
0.85679799643 0.88853125556 0.92026451469 0.95199777382 0.98373103294 1.0154642921 1.0471975512 1.0789308103 1.1106640695 
1.1423973286 1.1741305877 1.2058638468 1.237597106 1.2693303651 1.3010636242 1.3327968833 1.3645301425 1.3962634016 
1.4279966607 1.4597299198 1.491463179 1.5231964381 1.5549296972 1.5866629564 1.6183962155 1.6501294746 1.6818627337 
1.7135959929 1.745329252 1.7770625111 1.8087957702 1.8405290294 1.8722622885 1.9039955476 1.9357288068 1.9674620659 
1.999195325 2.0309285841 2.0626618433 2.0943951024 2.1261283615 2.1578616206 2.1895948798 2.2213281389 2.253061398 
2.2847946572 2.3165279163 2.3482611754 2.3799944345 2.4117276937 2.4434609528 2.4751942119 2.506927471 2.5386607302 
2.5703939893 2.6021272484 2.6338605076 2.6655937667 2.6973270258 2.7290602849 2.7607935441 2.7925268032 2.8242600623 
2.8559933214 2.8877265806 2.9194598397 2.9511930988 2.982926358 3.0146596171 3.0463928762 3.0781261353 3.1098593945 
3.1415926536 
_radius 1 100 double
4.3355595091e-16 0.014536545558 0.028952980811 0.043134712852 0.056994082044 0.07047833565 0.083571580287 0.096290244273 0.10867266489 
0.12076443966 0.13260195365 0.14419685192 0.15552408019 0.16651551562 0.17706032644 0.18701224239 0.19620302558 0.20446065347 
0.21163008469 0.21759402149 0.22229089155 0.22572742651 0.22798375019 0.22920977678 0.22961286105 0.22943789241 0.22894220377 
0.22836857503 0.22792004822 0.22774007205 0.22790060904 0.22839940944 0.22916603972 0.23007490857 0.23096282692 0.23164867313 
0.23195333251 0.23171887934 0.2308264907 0.22921239861 0.22688036999 0.22390850395 0.22044832845 0.21671531254 0.21297145891 
0.20950206734 0.20658971074 0.20448868139 0.2034025989 0.20346691949 0.20473738281 0.20718518042 0.21069939257 0.21509664903 
0.22013723837 0.22554633273 0.23103849767 0.23634303433 0.24122720464 0.24551448166 0.24909576382 0.25193265642 0.25405301914 
0.25553978569 0.25651460324 0.25711822777 0.25748991664 0.25774824086 0.25797566322 0.25820874489 0.25843493084 0.25859572409 
0.25859504816 0.25831101192 0.25760918645 0.25635572106 0.25442895453 0.2517285045 0.24818114126 0.24374312285 0.23839909972 
0.23215813679 0.22504774688 0.21710698951 0.20837962712 0.1989080954 0.18872875979 0.1778687431 0.16634458618 0.1541630481 
0.14132423829 0.12782684938 0.11367466469 0.098883122112 0.083484776879 0.067532908161 0.05110295033 0.034291704518 0.017214424652 
9.9438122277e-16 
_area 1 100 double
0 0.00065007896546 0.0025777395881 0.0057181809435 0.0099723187968 0.015217660421 0.021319807324 0.028142971127 0.035558784587 
0.043452861074 0.051727554226 0.060298132036 0.069080444457 0.077972220129 0.086834360839 0.095479155275 0.10366984632 0.11113326772 
0.11758486597 0.12276270462 0.12646447356 0.12858042668 0.12911636837 0.12820375946 0.12609710522 0.12316044282 0.11984404957 
0.11664891948 0.11407135034 0.11252187531 0.11223255594 0.11319059308 0.11513803871 0.11766072575 0.12030635226 0.12265772539 
0.12438175605 0.12526630235 0.12524502797 0.12440311698 0.12295340242 0.12117589419 0.11933480663 0.11762326524 0.11617081744 
0.11508435635 0.11448031149 0.11449400276 0.11526949033 0.11693944139 0.11960402708 0.12331314995 0.12805360701 0.13374131476 
0.14021494563 0.14722987469 0.15446177225 0.16153063435 0.16804416051 0.17364872107 0.1780754735 0.18117390716 0.18292855608 
0.18345625496 0.18298391506 0.18181042082 0.18025815427 0.1786184702 0.17709565481 0.17576490391 0.17456969263 0.1733599988 
0.17194358443 0.17012899804 0.16775464215 0.16470408184 0.16090857161 0.15633779146 0.15098363645 0.14484774283 0.13793929991 
0.1302795266 0.12190882486 0.11289639404 0.10335005019 0.093420307588 0.083293384831 0.073172575185 0.063253171427 0.053700179629 
0.044638500559 0.036160293844 0.028344565212 0.021276274961 0.015053977169 0.0097843288304 0.005569680191 0.0024962710578 0.00062717027764 
1.118896642e-16 
