# vtk DataFile Version 5.1
vtk output
ASCII
DATASET POLYDATA
POINTS 100 float
0.0790997 0.0618935 -0.601547 0.0791953 0.0617155 -0.601562 0.079536 0.0609617 -0.601537 
0.080121 0.0596777 -0.601401 0.080945 0.0579339 -0.601044 0.0819932 0.0558164 -0.600331 
0.0832361 0.0534144 -0.599115 0.0846234 0.0508089 -0.597252 0.0860805 0.0480608 -0.594614 
0.0875064 0.0452037 -0.591102 0.0887744 0.0422396 -0.586655 0.0897367 0.0391394 -0.581251 
0.0902314 0.0358484 -0.574903 0.0900926 0.0322951 -0.56766 0.0891616 0.0284037 -0.559589 
0.0872998 0.0241071 -0.55077 0.0843995 0.0193597 -0.541279 0.0803936 0.0141477 -0.53118 
0.0752623 0.00849656 -0.520517 0.069035 0.00247299 -0.509304 0.0617892 -0.00381721 -0.497532 
0.0536442 -0.0102363 -0.485165 0.0447521 -0.0166254 -0.47215 0.0352861 -0.0228178 -0.458425 
0.0254266 -0.0286525 -0.443928 0.0153488 -0.0339884 -0.428609 0.00521091 -0.0387139 -0.412433 
-0.0048545 -0.0427549 -0.39539 -0.014746 -0.0460777 -0.377494 -0.024394 -0.0486868 -0.358783 
-0.0337582 -0.0506201 -0.339314 -0.0428211 -0.0519397 -0.31916 -0.0515786 -0.0527221 -0.298397 
-0.0600302 -0.0530464 -0.277103 -0.068168 -0.0529857 -0.255344 -0.075968 -0.0525984 -0.23318 
-0.0833835 -0.0519247 -0.210655 -0.0903424 -0.050985 -0.1878 -0.0967476 -0.0497824 -0.16464 
-0.102482 -0.0483075 -0.141194 -0.107418 -0.0465456 -0.117485 -0.111426 -0.044484 -0.0935446 
-0.114387 -0.0421188 -0.0694152 -0.116207 -0.0394607 -0.0451567 -0.116824 -0.0365383 -0.0208442 
-0.116221 -0.0333979 0.00343339 -0.114422 -0.0301025 0.027578 -0.111502 -0.0267265 0.0514879 
-0.107575 -0.0233503 0.0750652 -0.10279 -0.0200538 0.0982214 -0.0973181 -0.0169101 0.120883 
-0.0913415 -0.0139807 0.142997 -0.0850372 -0.0113124 0.164526 -0.0785654 -0.00893576 0.185455 
-0.0720579 -0.00686653 0.205782 -0.0656104 -0.00510791 0.225514 -0.0592777 -0.00365422 0.244664 
-0.0530735 -0.00249485 0.263243 -0.0469745 -0.00161754 0.281258 -0.040927 -0.00101068 0.298707 
-0.0348569 -0.000663935 0.315583 -0.0286811 -0.000567234 0.331873 -0.0223189 -0.00070832 0.347565 
-0.0157033 -0.00106932 0.362652 -0.00878961 -0.00162312 0.377139 -0.0015622 -0.00233029 0.391047 
0.00596235 -0.00313748 0.404417 0.0137353 -0.00397765 0.417314 0.0216789 -0.00477275 0.429817 
0.0296925 -0.00543856 0.442021 0.0376599 -0.00589145 0.454027 0.0454591 -0.00605626 0.465931 
0.0529711 -0.00587431 0.477814 0.0600886 -0.00531053 0.489732 0.0667233 -0.00435864 0.501709 
0.0728114 -0.00304353 0.513731 0.0783164 -0.00142042 0.525743 0.0832295 0.000429417 0.537656 
0.0875688 0.0024059 0.549349 0.0913749 0.00439962 0.560681 0.0947061 0.00630251 0.571503 
0.0976327 0.00801844 0.581671 0.100231 0.00947236 0.591056 0.102575 0.0106171 0.599558 
0.104736 0.0114365 0.607113 0.106773 0.0119458 0.613693 0.108731 0.0121869 0.619311 
0.110642 0.0122221 0.624016 0.112523 0.0121249 0.627884 0.114374 0.0119701 0.631013 
0.116184 0.0118242 0.633508 0.117932 0.011738 0.635478 0.119588 0.0117411 0.637024 
0.121119 0.0118398 0.638233 0.122487 0.0120192 0.639176 0.123659 0.0122469 0.639906 
0.124602 0.0124802 0.640461 0.12529 0.012674 0.640863 0.125702 0.0127889 0.641126 
0.125826 0.0127976 0.641256 
LINES 2 100
OFFSETS vtktypeint64
0 100 
CONNECTIVITY vtktypeint64
0 1 2 3 4 5 6 7 8 
9 10 11 12 13 14 15 16 17 
18 19 20 21 22 23 24 25 26 
27 28 29 30 31 32 33 34 35 
36 37 38 39 40 41 42 43 44 
45 46 47 48 49 50 51 52 53 
54 55 56 57 58 59 60 61 62 
63 64 65 66 67 68 69 70 71 
72 73 74 75 76 77 78 79 80 
81 82 83 84 85 86 87 88 89 
90 91 92 93 94 95 96 97 98 
99 
POINT_DATA 100
FIELD FieldData 3
_theta 1 100 double
0 0.031733259127 0.063466518254 0.095199777382 0.12693303651 0.15866629564 0.19039955476 0.22213281389 0.25386607302 
0.28559933214 0.31733259127 0.3490658504 0.38079910953 0.41253236865 0.44426562778 0.47599888691 0.50773214603 0.53946540516 
0.57119866429 0.60293192342 0.63466518254 0.66639844167 0.6981317008 0.72986495992 0.76159821905 0.79333147818 0.82506473731 
0.85679799643 0.88853125556 0.92026451469 0.95199777382 0.98373103294 1.0154642921 1.0471975512 1.0789308103 1.1106640695 
1.1423973286 1.1741305877 1.2058638468 1.237597106 1.2693303651 1.3010636242 1.3327968833 1.3645301425 1.3962634016 
1.4279966607 1.4597299198 1.491463179 1.5231964381 1.5549296972 1.5866629564 1.6183962155 1.6501294746 1.6818627337 
1.7135959929 1.745329252 1.7770625111 1.8087957702 1.8405290294 1.8722622885 1.9039955476 1.9357288068 1.9674620659 
1.999195325 2.0309285841 2.0626618433 2.0943951024 2.1261283615 2.1578616206 2.1895948798 2.2213281389 2.253061398 
2.2847946572 2.3165279163 2.3482611754 2.3799944345 2.4117276937 2.4434609528 2.4751942119 2.506927471 2.5386607302 
2.5703939893 2.6021272484 2.6338605076 2.6655937667 2.6973270258 2.7290602849 2.7607935441 2.7925268032 2.8242600623 
2.8559933214 2.8877265806 2.9194598397 2.9511930988 2.982926358 3.0146596171 3.0463928762 3.0781261353 3.1098593945 
3.1415926536 
_radius 1 100 double
9.0759034659e-16 0.015823019208 0.031478741479 0.046805193713 0.061658448068 0.075919254544 0.089497089126 0.10233130902 0.1143892676 
0.12566136086 0.13615324332 0.14587598848 0.15483570405 0.16302476656 0.17041704153 0.17696891869 0.18262672468 0.18733945215 
0.19107433554 0.193832051 0.19565833553 0.19664945887 0.19695003016 0.19674291063 0.19623238501 0.19562299981 0.19509733921 
0.19479627498 0.19480486949 0.19514622194 0.19578421974 0.19663451906 0.19758150458 0.19849804292 0.19926489741 0.19978749053 
0.20000865176 0.19991660503 0.19954781529 0.19898480825 0.19834975718 0.19779504524 0.1974916799 0.19761550781 0.19833053802 
0.19976927935 0.20201198373 0.20506908978 0.20887232443 0.21327857703 0.21808706357 0.22306629173 0.22798491907 0.23264042152 
0.2368808778 0.2406171428 0.2438246293 0.24653559978 0.24882416755 0.25078701706 0.25252312308 0.25411550397 0.25561736767 
0.25704402717 0.25837089007 0.25953696166 0.26045284394 0.26101208303 0.26110464329 0.26063109895 0.25951587729 0.25771770763 
0.25523545531 0.25210788039 0.24840665353 0.24422314692 0.23965085739 0.23476645365 0.22961301851 0.22418884865 0.21844415151 
0.21228637403 0.20559316139 0.19823057156 0.19007346988 0.18102499342 0.17103239069 0.16009717733 0.14827829798 0.13568784782 
0.12247988005 0.1088338185 0.09493483371 0.080954028886 0.067031278919 0.053263045203 0.039696563304 0.026330699478 0.013122775628 
3.9116807291e-16 
_area 1 100 double
0 0.0006521748953 0.0025790743359 0.0056969788869 0.0098807698786 0.014977704638 0.020817219006 0.027217568534 0.033993451361 
0.040965674374 0.047969473822 0.054857298489 0.061494579405 0.067750959268 0.073492401051 0.078579949472 0.082878333667 0.086273261533 
0.088692348743 0.090123091286 0.090622735475 0.090318259447 0.089397708743 0.088094421306 0.086662380939 0.085341526582 0.084329254806 
0.083775879416 0.0837856141 0.084409572038 0.08564283562 0.087429803591 0.089672995228 0.092242683883 0.094988454189 0.097754827783 
0.10039969661 0.10281074511 0.10491563786 0.10668613352 0.10814109952 0.1093538404 0.11046222845 0.11166858756 0.11321542226 
0.11534523248 0.11826271886 0.12210078981 0.12689254479 0.13255727997 0.13890519655 0.145665156 0.15253381783 0.1592314519 
0.16554418565 0.17133940109 0.17655352908 0.18116208073 0.18514858707 0.18848895667 0.19115502992 0.19312723108 0.19440512454 
0.19501051496 0.1949819038 0.19436132363 0.19317669335 0.19142530299 0.18906583623 0.18602586113 0.18222840641 0.1776346283 
0.17228825743 0.16633817189 0.16002074444 0.15360082041 0.1472887926 0.14117012205 0.13518695634 0.12917688325 0.12293566097 
0.1162722514 0.10904640915 0.10119128232 0.092723552127 0.083740754854 0.074405664011 0.064921667069 0.055507759312 0.046381206764 
0.037747808249 0.029792942773 0.022669717647 0.016487491357 0.011306214475 0.0071395173725 0.0039659003613 0.0017448037198 0.00043333518109 
8.9039578116e-18 
