# vtk DataFile Version 5.1
vtk output
ASCII
DATASET POLYDATA
POINTS 100 float
0.167064 0.0872038 -0.718704 0.167011 0.0872673 -0.718754 0.166881 0.0872656 -0.718889 
0.166645 0.0871923 -0.718993 0.166256 0.0870355 -0.718886 0.165653 0.0867755 -0.718347 
0.16477 0.0863821 -0.717141 0.163535 0.0858125 -0.715045 0.161881 0.0850098 -0.711875 
0.159748 0.0839029 -0.707506 0.157086 0.082409 -0.701882 0.153859 0.0804373 -0.695023 
0.150042 0.0778948 -0.687021 0.145627 0.0746936 -0.678018 0.140614 0.0707593 -0.668194 
0.135016 0.0660387 -0.657735 0.128854 0.0605073 -0.646813 0.122157 0.0541752 -0.635564 
0.114961 0.0470902 -0.624067 0.107309 0.039338 -0.612339 0.0992524 0.0310403 -0.600331 
0.0908486 0.0223485 -0.58794 0.0821635 0.0134363 -0.575021 0.0732694 0.00448909 -0.561406 
0.064243 -0.004306 -0.54693 0.0551627 -0.0127715 -0.531451 0.0461041 -0.0207491 -0.514866 
0.0371349 -0.0281073 -0.497128 0.0283106 -0.0347469 -0.478246 0.019669 -0.0406032 -0.458288 
0.0112278 -0.0456454 -0.437366 0.00298344 -0.0498728 -0.415627 -0.00508784 -0.0533096 -0.393227 
-0.0130253 -0.055998 -0.370318 -0.0208767 -0.0579901 -0.347028 -0.0286898 -0.0593412 -0.323446 
-0.0365014 -0.0601033 -0.299616 -0.0443274 -0.0603212 -0.275535 -0.0521538 -0.0600304 -0.25116 
-0.0599297 -0.0592569 -0.226417 -0.0675647 -0.0580199 -0.201221 -0.07493 -0.0563354 -0.175487 
-0.0818646 -0.0542212 -0.149153 -0.088185 -0.0517015 -0.12219 -0.0936995 -0.048812 -0.0946167 
-0.0982233 -0.0456029 -0.0664995 -0.101595 -0.04214 -0.0379534 -0.103692 -0.0385043 -0.00913448 
-0.104442 -0.0347894 0.0197718 -0.10383 -0.0310965 0.0485648 -0.101901 -0.0275281 0.0770444 
-0.0987591 -0.0241818 0.105025 -0.0945527 -0.0211425 0.132348 -0.0894665 -0.0184766 0.15889 
-0.0837029 -0.0162274 0.184563 -0.0774651 -0.0144118 0.209321 -0.0709399 -0.01302 0.233148 
-0.0642848 -0.0120174 0.256054 -0.0576177 -0.0113484 0.278068 -0.0510126 -0.0109427 0.299229 
-0.0445009 -0.0107214 0.319575 -0.0380778 -0.0106055 0.339145 -0.0317128 -0.0105224 0.357972 
-0.0253626 -0.0104124 0.376089 -0.0189859 -0.0102336 0.393524 -0.0125556 -0.00996404 0.410312 
-0.00606983 -0.00960294 0.426495 0.000442712 -0.00916875 0.442126 0.00692102 -0.00869588 0.45727 
0.0132758 -0.0082299 0.472004 0.0193978 -0.00782178 0.48641 0.0251691 -0.00752201 0.500572 
0.0304767 -0.00737508 0.514564 0.0352256 -0.00741479 0.528448 0.0393502 -0.00766101 0.542259 
0.0428222 -0.00811804 0.556004 0.0456544 -0.00877456 0.569655 0.0478994 -0.00960521 0.583153 
0.0496438 -0.0105735 0.596413 0.0509983 -0.0116355 0.609326 0.0520858 -0.0127443 0.621772 
0.0530274 -0.0138537 0.633633 0.0539306 -0.0149229 0.644799 0.0548785 -0.0159183 0.655182 
0.0559232 -0.0168163 0.664721 0.0570835 -0.0176037 0.673386 0.0583462 -0.0182773 0.681179 
0.0596723 -0.0188424 0.68813 0.0610052 -0.0193111 0.694289 0.0622811 -0.0196993 0.699723 
0.0634397 -0.0200247 0.704501 0.0644323 -0.0203039 0.70869 0.0652291 -0.020551 0.712347 
0.0658216 -0.020776 0.715512 0.0662226 -0.020985 0.718211 0.066462 -0.0211795 0.720453 
0.0665803 -0.021358 0.722235 0.0666209 -0.021517 0.723548 0.0666218 -0.0216521 0.724376 
0.066609 -0.0217592 0.724711 
LINES 2 100
OFFSETS vtktypeint64
0 100 
CONNECTIVITY vtktypeint64
0 1 2 3 4 5 6 7 8 
9 10 11 12 13 14 15 16 17 
18 19 20 21 22 23 24 25 26 
27 28 29 30 31 32 33 34 35 
36 37 38 39 40 41 42 43 44 
45 46 47 48 49 50 51 52 53 
54 55 56 57 58 59 60 61 62 
63 64 65 66 67 68 69 70 71 
72 73 74 75 76 77 78 79 80 
81 82 83 84 85 86 87 88 89 
90 91 92 93 94 95 96 97 98 
99 
POINT_DATA 100
FIELD FieldData 3
_theta 1 100 double
0 0.031733259127 0.063466518254 0.095199777382 0.12693303651 0.15866629564 0.19039955476 0.22213281389 0.25386607302 
0.28559933214 0.31733259127 0.3490658504 0.38079910953 0.41253236865 0.44426562778 0.47599888691 0.50773214603 0.53946540516 
0.57119866429 0.60293192342 0.63466518254 0.66639844167 0.6981317008 0.72986495992 0.76159821905 0.79333147818 0.82506473731 
0.85679799643 0.88853125556 0.92026451469 0.95199777382 0.98373103294 1.0154642921 1.0471975512 1.0789308103 1.1106640695 
1.1423973286 1.1741305877 1.2058638468 1.237597106 1.2693303651 1.3010636242 1.3327968833 1.3645301425 1.3962634016 
1.4279966607 1.4597299198 1.491463179 1.5231964381 1.5549296972 1.5866629564 1.6183962155 1.6501294746 1.6818627337 
1.7135959929 1.745329252 1.7770625111 1.8087957702 1.8405290294 1.8722622885 1.9039955476 1.9357288068 1.9674620659 
1.999195325 2.0309285841 2.0626618433 2.0943951024 2.1261283615 2.1578616206 2.1895948798 2.2213281389 2.253061398 
2.2847946572 2.3165279163 2.3482611754 2.3799944345 2.4117276937 2.4434609528 2.4751942119 2.506927471 2.5386607302 
2.5703939893 2.6021272484 2.6338605076 2.6655937667 2.6973270258 2.7290602849 2.7607935441 2.7925268032 2.8242600623 
2.8559933214 2.8877265806 2.9194598397 2.9511930988 2.982926358 3.0146596171 3.0463928762 3.0781261353 3.1098593945 
3.1415926536 
_radius 1 100 double
2.7755575616e-16 0.017690710716 0.035160872091 0.052199337426 0.068616468661 0.084253145117 0.098987380257 0.11273771258 0.12546271018 
0.137156315 0.14783936339 0.15754836821 0.16632335486 0.17419697592 0.18118708355 0.18729433193 0.19250532248 0.19680058822 
0.20016571563 0.20260340563 0.20414433599 0.20485512256 0.2048422008 0.20425087029 0.2032590799 0.20206596131 0.20087581151 
0.19987916516 0.19923353068 0.19904689 0.19936685778 0.200177414 0.2014036472 0.20292343685 0.20458391404 0.20622015333 
0.20767386797 0.20881059472 0.20953448993 0.20980008756 0.2096202199 0.20906908477 0.20827949002 0.20743374285 0.20674836602 
0.20645360959 0.20676947656 0.20788075464 0.20991438342 0.21292303653 0.21687828297 0.22167467103 0.22714331099 0.23307155628 
0.23922504477 0.24536918377 0.25128814763 0.25680006723 0.2617674126 0.26610190615 0.26976382294 0.27275618609 0.27511499154 
0.27689705389 0.27816728145 0.27898712948 0.27940561197 0.27945359159 0.27914130096 0.27845851903 0.27737675727 0.27585306469 
0.27383525246 0.27126821007 0.26810060286 0.26429088691 0.25981151988 0.25465058378 0.248810675 0.2423056257 0.23515613736 
0.22738554388 0.21901664809 0.21007002763 0.20056361671 0.19051297247 0.1799315708 0.1688307546 0.15721943555 0.14510406704 
0.13248950662 0.11938110124 0.10578783991 0.091726014914 0.077222683101 0.062318294136 0.047068034441 0.031541637143 0.015821606277 
7.5151512308e-16 
_area 1 100 double
0 0.00071986836912 0.0028629378595 0.0063764869269 0.01116384554 0.017076625651 0.023913223696 0.031428307846 0.039353430235 
0.047423866865 0.055403928068 0.063103319072 0.070380231602 0.077131581758 0.08327560743 0.0887349335 0.093427586811 0.097269434987 
0.10018636059 0.10213091546 0.1030977596 0.10313456382 0.10234812707 0.10090636601 0.099034768111 0.09700340048 0.095099721062 
0.09358185816 0.092621905835 0.092281196174 0.092544322096 0.093373125872 0.094741588652 0.096639636515 0.09904438564 0.10188525041 
0.10503476991 0.10831806526 0.1115298642 0.11446221422 0.1169431113 0.11887442953 0.12025516407 0.12118757042 0.12191205267 
0.12277717557 0.12425953804 0.12662771247 0.12980686059 0.13394048877 0.13915935975 0.1455141267 0.15294675568 0.16128174927 
0.17023718364 0.17945275878 0.18853007919 0.19707921342 0.20476381039 0.21133649812 0.21665841305 0.22070060134 0.22352879294 
0.22527544634 0.2261041365 0.22617247296 0.22560142157 0.22445927339 0.2227639238 0.22049809451 0.21762641768 0.21410664465 
0.20989503812 0.20495050502 0.19924101189 0.19275182912 0.1854917727 0.17749354046 0.16880810555 0.15949835535 0.14963849945 
0.13932039363 0.1286607892 0.11780211127 0.10690373759 0.096125455527 0.085607149673 0.075450151107 0.065707499498 0.056390569259 
0.047493352709 0.039024708715 0.031033899981 0.02362044373 0.01692801758 0.011127245732 0.0063935623252 0.0028856546359 0.00072815339757 
2.901505642e-17 
