# vtk DataFile Version 5.1
vtk output
ASCII
DATASET POLYDATA
POINTS 100 float
0.138689 0.0220359 -0.652684 0.138579 0.0220452 -0.652179 0.138269 0.0219167 -0.65069 
0.137749 0.0216275 -0.648263 0.136998 0.0211415 -0.64497 0.135989 0.0204133 -0.640902 
0.13469 0.0193923 -0.636157 0.133063 0.0180275 -0.630832 0.131068 0.0162735 -0.625011 
0.128662 0.0140953 -0.618758 0.125804 0.0114728 -0.612108 0.122451 0.00840481 -0.605066 
0.118566 0.00491136 -0.597607 0.114114 0.00103442 -0.589676 0.10907 -0.00316292 -0.5812 
0.103418 -0.00759896 -0.572094 0.0971572 -0.0121774 -0.562267 0.0902993 -0.0167927 -0.551638 
0.0828758 -0.021336 -0.54014 0.0749372 -0.0257015 -0.527728 0.0665533 -0.0297926 -0.514383 
0.0578124 -0.0335272 -0.500114 0.0488176 -0.036842 -0.484955 0.039683 -0.0396949 -0.468963 
0.0305264 -0.042066 -0.452207 0.021463 -0.0439562 -0.434763 0.0125967 -0.0453849 -0.416709 
0.00401342 -0.0463855 -0.398112 -0.00422593 -0.0470008 -0.379023 -0.0120891 -0.0472773 -0.359478 
-0.0195741 -0.0472598 -0.339491 -0.0267072 -0.046987 -0.319058 -0.033538 -0.0464884 -0.298159 
-0.0401307 -0.0457818 -0.276767 -0.0465536 -0.0448735 -0.254848 -0.0528666 -0.0437599 -0.232375 
-0.0591097 -0.0424296 -0.209331 -0.0652913 -0.0408682 -0.185717 -0.0713806 -0.0390621 -0.161556 
-0.0773033 -0.0370032 -0.136897 -0.0829423 -0.0346928 -0.111811 -0.0881432 -0.0321447 -0.0863948 
-0.0927245 -0.0293866 -0.0607642 -0.0964924 -0.0264602 -0.0350493 -0.0992577 -0.02342 -0.00938838 
-0.100853 -0.0203298 0.0160794 -0.101151 -0.0172592 0.0412207 -0.100077 -0.0142788 0.0659147 
-0.0976175 -0.0114559 0.0900583 -0.0938278 -0.00884935 0.11357 -0.0888253 -0.00650702 0.136394 
-0.0827829 -0.0044629 0.158498 -0.075915 -0.00273643 0.179875 -0.0684592 -0.00133297 0.200541 
-0.060657 -0.000245553 0.22053 -0.0527341 0.000542397 0.239891 -0.044883 0.00105369 0.258679 
-0.0372499 0.00131393 0.276956 -0.0299268 0.00134825 0.294781 -0.0229496 0.00117885 0.312205 
-0.0163031 0.000823301 0.329272 -0.00993037 0.000294104 0.346009 -0.00374668 -0.000400823 0.362431 
0.00234428 -0.00125666 0.378537 0.00843434 -0.00226958 0.394313 0.0145964 -0.00343434 0.409735 
0.0208735 -0.0047419 0.424773 0.027273 -0.00617763 0.439394 0.0337652 -0.00772007 0.453569 
0.0402882 -0.00934081 0.467275 0.0467561 -0.0110053 0.4805 0.0530711 -0.0126745 0.493248 
0.0591361 -0.0143076 0.505534 0.064867 -0.0158652 0.51739 0.070203 -0.0173118 0.528858 
0.0751128 -0.0186196 0.539987 0.0795969 -0.0197702 0.550829 0.0836847 -0.0207567 0.56143 
0.0874278 -0.0215836 0.571828 0.0908904 -0.0222669 0.582043 0.0941375 -0.022832 0.592079 
0.0972242 -0.0233118 0.601912 0.100185 -0.0237432 0.611499 0.103031 -0.0241642 0.620777 
0.10574 -0.0246101 0.629666 0.108271 -0.0251113 0.638075 0.110558 -0.02569 0.645914 
0.112529 -0.0263593 0.653098 0.114116 -0.0271217 0.659558 0.115264 -0.0279696 0.665245 
0.115944 -0.0288861 0.670137 0.116163 -0.0298462 0.674241 0.115962 -0.0308188 0.677592 
0.115421 -0.0317693 0.68025 0.114645 -0.0326616 0.682293 0.11376 -0.0334608 0.68381 
0.112898 -0.0341351 0.684892 0.11218 -0.0346576 0.68562 0.111704 -0.0350083 0.686062 
0.111535 -0.0351745 0.686258 
LINES 2 100
OFFSETS vtktypeint64
0 100 
CONNECTIVITY vtktypeint64
0 1 2 3 4 5 6 7 8 
9 10 11 12 13 14 15 16 17 
18 19 20 21 22 23 24 25 26 
27 28 29 30 31 32 33 34 35 
36 37 38 39 40 41 42 43 44 
45 46 47 48 49 50 51 52 53 
54 55 56 57 58 59 60 61 62 
63 64 65 66 67 68 69 70 71 
72 73 74 75 76 77 78 79 80 
81 82 83 84 85 86 87 88 89 
90 91 92 93 94 95 96 97 98 
99 
POINT_DATA 100
FIELD FieldData 3
_theta 1 100 double
0 0.031733259127 0.063466518254 0.095199777382 0.12693303651 0.15866629564 0.19039955476 0.22213281389 0.25386607302 
0.28559933214 0.31733259127 0.3490658504 0.38079910953 0.41253236865 0.44426562778 0.47599888691 0.50773214603 0.53946540516 
0.57119866429 0.60293192342 0.63466518254 0.66639844167 0.6981317008 0.72986495992 0.76159821905 0.79333147818 0.82506473731 
0.85679799643 0.88853125556 0.92026451469 0.95199777382 0.98373103294 1.0154642921 1.0471975512 1.0789308103 1.1106640695 
1.1423973286 1.1741305877 1.2058638468 1.237597106 1.2693303651 1.3010636242 1.3327968833 1.3645301425 1.3962634016 
1.4279966607 1.4597299198 1.491463179 1.5231964381 1.5549296972 1.5866629564 1.6183962155 1.6501294746 1.6818627337 
1.7135959929 1.745329252 1.7770625111 1.8087957702 1.8405290294 1.8722622885 1.9039955476 1.9357288068 1.9674620659 
1.999195325 2.0309285841 2.0626618433 2.0943951024 2.1261283615 2.1578616206 2.1895948798 2.2213281389 2.253061398 
2.2847946572 2.3165279163 2.3482611754 2.3799944345 2.4117276937 2.4434609528 2.4751942119 2.506927471 2.5386607302 
2.5703939893 2.6021272484 2.6338605076 2.6655937667 2.6973270258 2.7290602849 2.7607935441 2.7925268032 2.8242600623 
2.8559933214 2.8877265806 2.9194598397 2.9511930988 2.982926358 3.0146596171 3.0463928762 3.0781261353 3.1098593945 
3.1415926536 
_radius 1 100 double
7.9479873035e-16 0.015232241289 0.030408571861 0.045464494918 0.060326865576 0.074911201906 0.08912067256 0.10284701181 0.11597338472 
0.12837901253 0.13994517974 0.15056207775 0.16013581675 0.16859490446 0.17589557736 0.18202555825 0.18700603145 0.19089179113 
0.19376957485 0.19575455287 0.19698487051 0.19761413832 0.19780192913 0.19770270988 0.19745414498 0.19716618029 0.19691253538 
0.19672606387 0.19659893332 0.19648790461 0.19632432342 0.19602784216 0.19552238923 0.19475251473 0.19369798933 0.19238442423 
0.19088778132 0.18933116868 0.18787357941 0.1866923186 0.18596311793 0.18584289671 0.18645857911 0.1879019033 0.19022717959 
0.19344868659 0.19753679263 0.2024147984 0.20795966361 0.21400864417 0.22037159482 0.22684686086 0.23323808782 0.23936970764 
0.24509961809 0.25032808755 0.25500207437 0.25911427552 0.26269674032 0.26580985267 0.26852845497 0.27092733846 0.27306811458 
0.27498887943 0.27669747013 0.27816869753 0.2793456856 0.28014519004 0.2804663778 0.28020204001 0.27925072856 0.27752804823 
0.27497543362 0.27156519792 0.2673013392 0.26221634647 0.25636487857 0.24981556994 0.24264230781 0.23491617429 0.22669895222 
0.2180387587 0.20896805647 0.19950401503 0.18965094252 0.17940428588 0.16875552127 0.15769716385 0.14622713928 0.13435188594 
0.12208778715 0.1094608476 0.096504893067 0.083258908405 0.069764309836 0.056062865588 0.042195635667 0.028202853377 0.014124342272 
9.0217157696e-16 
_area 1 100 double
0 0.0005024475162 0.002003018161 0.0044809356071 0.0078994798462 0.012201614743 0.017303156386 0.023085342693 0.029390592349 
0.036025583238 0.042773453296 0.049413035683 0.055739986625 0.061584126936 0.066819410319 0.071366319378 0.075189059356 0.078290185029 
0.080703958257 0.082489482734 0.08372732024 0.084528804134 0.085090535199 0.085654600877 0.086156376269 0.086561944135 0.086895081958 
0.087200929762 0.087515473859 0.087956902592 0.088524799366 0.089193829054 0.089979620296 0.090830871956 0.091613063795 0.092229254564 
0.09265746274 0.092969384998 0.093307291289 0.093831120137 0.09468369004 0.09598273405 0.097826223449 0.10031223556 0.1035965808 
0.10795137166 0.11331575447 0.11941859759 0.12612291133 0.13331882197 0.14087426084 0.14862532402 0.15637688181 0.16390919223 
0.17100182737 0.17747261507 0.18320675091 0.18816076017 0.19234871118 0.19582975586 0.19872689729 0.20129072123 0.20363461394 
0.20572941404 0.20753671473 0.20899735105 0.21001272485 0.21043781922 0.21009239301 0.20878577429 0.20635049436 0.20267612712 
0.19773394796 0.19158580506 0.18437557841 0.17630647733 0.16761022697 0.15851449561 0.1492141684 0.13985184974 0.13051212211 
0.12122993817 0.11200761982 0.10283271335 0.093691996905 0.084581409425 0.075513797875 0.066525558124 0.057681105917 0.049072782442 
0.040814588693 0.033030794331 0.025843289477 0.019362480079 0.01368454831 0.0088940240114 0.0050675063752 0.0022742546684 0.00057204333208 
6.7173662208e-17 
