# vtk DataFile Version 5.1
vtk output
ASCII
DATASET POLYDATA
POINTS 100 float
0.118775 0.0694368 -0.632068 0.11906 0.0694851 -0.632118 0.119887 0.0694449 -0.632201 
0.121155 0.0692808 -0.632212 0.122714 0.0689377 -0.631995 0.124372 0.068346 -0.631357 
0.125922 0.0674278 -0.630099 0.127157 0.0661045 -0.628036 0.127892 0.0643036 -0.625023 
0.12798 0.0619655 -0.620974 0.127317 0.059049 -0.615867 0.125848 0.055535 -0.609747 
0.123563 0.0514286 -0.60272 0.120489 0.0467585 -0.594935 0.116671 0.0415753 -0.586562 
0.112168 0.0359474 -0.577768 0.107031 0.029956 -0.568694 0.101297 0.02369 -0.559433 
0.0949804 0.01724 -0.55002 0.0880763 0.0106936 -0.54042 0.080563 0.00413201 -0.530539 
0.0724118 -0.00237279 -0.520228 0.0636 -0.00875829 -0.509307 0.0541233 -0.0149707 -0.497586 
0.0440072 -0.0209626 -0.484887 0.0333147 -0.0266904 -0.471071 0.0221487 -0.0321104 -0.45605 
0.0106482 -0.0371768 -0.439801 -0.00102064 -0.0418387 -0.422371 -0.0126786 -0.0460404 -0.403864 
-0.0241502 -0.0497221 -0.384433 -0.0352804 -0.0528227 -0.364261 -0.0459499 -0.0552843 -0.343538 
-0.0560851 -0.0570574 -0.322439 -0.0656625 -0.0581067 -0.301105 -0.0747053 -0.0584172 -0.27963 
-0.0832729 -0.0579977 -0.258057 -0.0914453 -0.0568845 -0.236372 -0.0993022 -0.055141 -0.214518 
-0.106902 -0.0528558 -0.19241 -0.114263 -0.0501378 -0.16995 -0.121347 -0.0471088 -0.147046 
-0.128054 -0.043895 -0.123637 -0.13422 -0.0406171 -0.0997017 -0.139631 -0.037381 -0.0752693 
-0.144037 -0.0342699 -0.0504246 -0.14718 -0.031338 -0.025301 -0.14882 -0.0286081 -7.16094e-05 
-0.148763 -0.0260717 0.025067 -0.146884 -0.0236933 0.049912 -0.14315 -0.0214172 0.0742729 
-0.137622 -0.0191771 0.0979879 -0.130459 -0.0169069 0.120936 -0.121905 -0.0145513 0.143045 
-0.112267 -0.0120761 0.16429 -0.10189 -0.0094746 0.184696 -0.0911241 -0.00677255 0.204319 
-0.0802964 -0.00402782 0.223244 -0.0696816 -0.00132675 0.241565 -0.0594824 0.0012233 0.259374 
-0.0498179 0.00350431 0.276752 -0.0407215 0.00539966 0.293758 -0.0321485 0.00680659 0.310431 
-0.0239925 0.00764763 0.326786 -0.0161072 0.0078796 0.342822 -0.00833146 0.0074992 0.358526 
-0.00051345 0.00654447 0.373884 0.00746765 0.00509184 0.388885 0.0156865 0.00324919 0.403529 
0.0241634 0.00114564 0.417829 0.0328645 -0.00108082 0.431809 0.0417091 -0.00329639 0.445503 
0.0505824 -0.00538377 0.458947 0.059353 -0.00725232 0.47217 0.0678907 -0.00884491 0.485188 
0.0760826 -0.0101409 0.497997 0.083846 -0.0111548 0.510568 0.0911357 -0.011931 0.522842 
0.0979456 -0.0125352 0.534739 0.104304 -0.0130444 0.546158 0.110263 -0.0135348 0.556987 
0.115888 -0.014072 0.567115 0.121245 -0.0147019 0.576438 0.126386 -0.0154457 0.584875 
0.131338 -0.0162972 0.592373 0.136105 -0.0172253 0.598909 0.14066 -0.0181788 0.604498 
0.144956 -0.0190946 0.609184 0.148929 -0.0199072 0.613041 0.152516 -0.0205578 0.616161 
0.155657 -0.0210038 0.618646 0.158315 -0.0212243 0.620603 0.160476 -0.0212241 0.622132 
0.162154 -0.0210333 0.62332 0.16339 -0.0207036 0.624239 0.164246 -0.0203018 0.624946 
0.164797 -0.0199013 0.62548 0.165114 -0.0195722 0.625868 0.165262 -0.0193726 0.626125 
0.165282 -0.0193405 0.626257 
LINES 2 100
OFFSETS vtktypeint64
0 100 
CONNECTIVITY vtktypeint64
0 1 2 3 4 5 6 7 8 
9 10 11 12 13 14 15 16 17 
18 19 20 21 22 23 24 25 26 
27 28 29 30 31 32 33 34 35 
36 37 38 39 40 41 42 43 44 
45 46 47 48 49 50 51 52 53 
54 55 56 57 58 59 60 61 62 
63 64 65 66 67 68 69 70 71 
72 73 74 75 76 77 78 79 80 
81 82 83 84 85 86 87 88 89 
90 91 92 93 94 95 96 97 98 
99 
POINT_DATA 100
FIELD FieldData 3
_theta 1 100 double
0 0.031733259127 0.063466518254 0.095199777382 0.12693303651 0.15866629564 0.19039955476 0.22213281389 0.25386607302 
0.28559933214 0.31733259127 0.3490658504 0.38079910953 0.41253236865 0.44426562778 0.47599888691 0.50773214603 0.53946540516 
0.57119866429 0.60293192342 0.63466518254 0.66639844167 0.6981317008 0.72986495992 0.76159821905 0.79333147818 0.82506473731 
0.85679799643 0.88853125556 0.92026451469 0.95199777382 0.98373103294 1.0154642921 1.0471975512 1.0789308103 1.1106640695 
1.1423973286 1.1741305877 1.2058638468 1.237597106 1.2693303651 1.3010636242 1.3327968833 1.3645301425 1.3962634016 
1.4279966607 1.4597299198 1.491463179 1.5231964381 1.5549296972 1.5866629564 1.6183962155 1.6501294746 1.6818627337 
1.7135959929 1.745329252 1.7770625111 1.8087957702 1.8405290294 1.8722622885 1.9039955476 1.9357288068 1.9674620659 
1.999195325 2.0309285841 2.0626618433 2.0943951024 2.1261283615 2.1578616206 2.1895948798 2.2213281389 2.253061398 
2.2847946572 2.3165279163 2.3482611754 2.3799944345 2.4117276937 2.4434609528 2.4751942119 2.506927471 2.5386607302 
2.5703939893 2.6021272484 2.6338605076 2.6655937667 2.6973270258 2.7290602849 2.7607935441 2.7925268032 2.8242600623 
2.8559933214 2.8877265806 2.9194598397 2.9511930988 2.982926358 3.0146596171 3.0463928762 3.0781261353 3.1098593945 
3.1415926536 
_radius 1 100 double
6.9138687592e-16 0.015126770366 0.030080491911 0.044706890727 0.058885580477 0.072539413895 0.085636550087 0.098185033758 0.1102209088 
0.12179190484 0.13293943807 0.14368195861 0.15400246471 0.16384228041 0.17310210033 0.18165011033 0.18933597193 0.19600877475 
0.20153671884 0.20582619608 0.20883800221 0.21059860046 0.21120471751 0.21082014548 0.20966447022 0.20799448529 0.20608015646 
0.20417800962 0.2025055269 0.20122029725 0.20040702902 0.20007408963 0.20015941965 0.20054416501 0.20107164466 0.20156926665 
0.20187129501 0.20184055352 0.20138711371 0.20048190407 0.19916322133 0.19753455969 0.19575329985 0.19401181718 0.19251501604 
0.1914596421 0.19101930002 0.19133524596 0.19250968632 0.19459830933 0.19760180717 0.20145941302 0.206048538 0.21119299999 
0.21667930253 0.22227772531 0.22776392746 0.23293749625 0.23763552387 0.24174080264 0.24518504798 0.24794775347 0.25005120693 
0.25155218032 0.25253098893 0.25307895487 0.25328565635 0.25322754109 0.25295940543 0.25250982419 0.25188086651 0.25105149258 
0.24998318874 0.2486260163 0.24692352155 0.24481576639 0.242240704 0.23913480703 0.23543400323 0.23107560757 0.22600130209 
0.22016062433 0.2135141371 0.20603556713 0.19771264073 0.18854688974 0.17855307164 0.16775884343 0.15620494924 0.14394563896 
0.13104862169 0.11759377146 0.10367006486 0.089370727322 0.074787128586 0.060002438894 0.045086308578 0.03009178437 0.015055306455 
1.2884466664e-15 
_area 1 100 double
0 0.00056056764851 0.0022215480865 0.0049237772761 0.0085777366294 0.013074513856 0.018297150533 0.024130155571 0.030465289625 
0.037202270756 0.044244177448 0.05148884566 0.058818750653 0.066092200255 0.073138462372 0.079759406593 0.085739811043 0.090866136548 
0.094950055993 0.097851331077 0.099495613126 0.099884782284 0.099099585559 0.09729666393 0.094704007711 0.091621268196 0.088482388206 
0.086078942047 0.084313360854 0.083275714294 0.08305343219 0.083649590288 0.084981421718 0.086903442468 0.089234639221 0.091777785378 
0.094330653576 0.096695780551 0.098697194301 0.10020716461 0.10117407048 0.1016352546 0.10170702576 0.10156211873 0.10141433725 
0.10152002186 0.10216361475 0.10352281915 0.10559465849 0.10837753448 0.11193314849 0.11633827012 0.12163033248 0.12776957283 
0.13462526622 0.14197926238 0.14953895463 0.1569602458 0.16388274995 0.1699735718 0.17496986128 0.17870971125 0.18114569158 
0.18234182126 0.18246147837 0.18176715446 0.18060674255 0.17914624761 0.17738917665 0.17535662598 0.17307973579 0.17057978015 
0.16786239902 0.16491612092 0.16171132512 0.15819803244 0.15430385162 0.14993576299 0.14498925357 0.1393652216 0.13299084969 
0.12583808533 0.117933949 0.10935999142 0.10024212239 0.090735040946 0.081006491032 0.071225363549 0.061555152688 0.052151879271 
0.043164306161 0.034734184355 0.026994960166 0.020068444432 0.014060127142 0.0090547792617 0.0051142477226 0.002278611197 0.00057037941328 
4.6619852937e-17 
