# vtk DataFile Version 5.1
vtk output
ASCII
DATASET POLYDATA
POINTS 100 float
0.132076 0.0836382 -0.598957 0.132083 0.0835232 -0.599086 0.132094 0.0829387 -0.599389 
0.132104 0.0818876 -0.599796 0.132108 0.0803751 -0.600196 0.132096 0.078409 -0.600448 
0.132049 0.0759989 -0.600392 0.131937 0.0731554 -0.599862 0.13172 0.0698896 -0.5987 
0.131341 0.0662128 -0.596766 0.13073 0.0621354 -0.593949 0.129803 0.0576671 -0.590176 
0.128466 0.0528167 -0.58541 0.126617 0.0475926 -0.579654 0.124154 0.042004 -0.572944 
0.12098 0.0360621 -0.565343 0.117012 0.0297821 -0.55693 0.112185 0.0231857 -0.547792 
0.106464 0.0163033 -0.538011 0.0998417 0.00917677 -0.527655 0.0923469 0.00186101 -0.516773 
0.0840412 -0.0055745 -0.505386 0.0750174 -0.0130454 -0.493489 0.0653935 -0.0204534 -0.481048 
0.0553047 -0.0276883 -0.468011 0.044894 -0.0346315 -0.454308 0.0343019 -0.0411604 -0.439862 
0.0236565 -0.0471544 -0.424598 0.0130651 -0.0524999 -0.408449 0.00260859 -0.0570972 -0.391365 
-0.00766133 -0.0608652 -0.373316 -0.0177206 -0.0637461 -0.3543 -0.0275678 -0.0657085 -0.334336 
-0.0372157 -0.066749 -0.313469 -0.0466805 -0.0668914 -0.291762 -0.0559695 -0.0661849 -0.269294 
-0.0650693 -0.0647003 -0.246156 -0.0739359 -0.0625254 -0.222443 -0.0824874 -0.0597596 -0.19825 
-0.090602 -0.0565077 -0.173673 -0.0981198 -0.0528755 -0.148804 -0.104851 -0.0489643 -0.123733 
-0.110588 -0.0448681 -0.0985455 -0.115121 -0.0406711 -0.0733303 -0.118257 -0.0364468 -0.0481767 
-0.119836 -0.0322582 -0.0231777 -0.119751 -0.0281588 0.00156943 -0.117956 -0.0241942 0.0259645 
-0.114479 -0.0204038 0.0499069 -0.109419 -0.0168221 0.0732994 -0.102945 -0.0134798 0.0960541 
-0.0952802 -0.0104041 0.118098 -0.0866912 -0.00761844 0.139378 -0.0774642 -0.00514158 0.159869 
-0.0678854 -0.00298646 0.179574 -0.0582203 -0.00115908 0.198527 -0.0486958 0.000342414 0.21679 
-0.0394875 0.00152796 0.234454 -0.0307118 0.00241509 0.251625 -0.0224257 0.0030276 0.268418 
-0.0146314 0.00339336 0.284952 -0.00728716 0.00354163 0.301333 -0.000321296 0.00350012 0.317645 
0.00635149 0.00329212 0.33395 0.0128143 0.00293429 0.350274 0.019134 0.00243527 0.366609 
0.0253515 0.00179557 0.382918 0.031476 0.00100861 0.399134 0.0374854 6.3114e-05 0.415171 
0.0433308 -0.00105366 0.430933 0.0489453 -0.00235204 0.446323 0.0542558 -0.00383601 0.461253 
0.0591947 -0.00549987 0.475652 0.0637111 -0.00732571 0.489473 0.0677797 -0.00928252 0.502692 
0.0714046 -0.0113268 0.515308 0.0746202 -0.0134049 0.527343 0.077486 -0.0154569 0.538829 
0.0800787 -0.0174215 0.549803 0.0824807 -0.0192418 0.5603 0.0847686 -0.0208704 0.570341 
0.0870011 -0.0222741 0.579928 0.0892104 -0.0234373 0.589042 0.0913968 -0.0243631 0.597642 
0.093528 -0.0250733 0.605667 0.0955434 -0.0256048 0.613046 0.0973622 -0.0260061 0.6197 
0.0988958 -0.026331 0.62556 0.100061 -0.0266324 0.630573 0.100794 -0.0269565 0.634711 
0.101061 -0.0273371 0.637983 0.100866 -0.0277924 0.640429 0.100257 -0.0283227 0.64213 
0.0993208 -0.0289117 0.643197 0.0981749 -0.0295285 0.643762 0.0969588 -0.0301323 0.643972 
0.0958174 -0.0306778 0.64397 0.0948849 -0.0311218 0.643886 0.0942703 -0.0314285 0.643823 
0.0940444 -0.0315746 0.643844 
LINES 2 100
OFFSETS vtktypeint64
0 100 
CONNECTIVITY vtktypeint64
0 1 2 3 4 5 6 7 8 
9 10 11 12 13 14 15 16 17 
18 19 20 21 22 23 24 25 26 
27 28 29 30 31 32 33 34 35 
36 37 38 39 40 41 42 43 44 
45 46 47 48 49 50 51 52 53 
54 55 56 57 58 59 60 61 62 
63 64 65 66 67 68 69 70 71 
72 73 74 75 76 77 78 79 80 
81 82 83 84 85 86 87 88 89 
90 91 92 93 94 95 96 97 98 
99 
POINT_DATA 100
FIELD FieldData 3
_theta 1 100 double
0 0.031733259127 0.063466518254 0.095199777382 0.12693303651 0.15866629564 0.19039955476 0.22213281389 0.25386607302 
0.28559933214 0.31733259127 0.3490658504 0.38079910953 0.41253236865 0.44426562778 0.47599888691 0.50773214603 0.53946540516 
0.57119866429 0.60293192342 0.63466518254 0.66639844167 0.6981317008 0.72986495992 0.76159821905 0.79333147818 0.82506473731 
0.85679799643 0.88853125556 0.92026451469 0.95199777382 0.98373103294 1.0154642921 1.0471975512 1.0789308103 1.1106640695 
1.1423973286 1.1741305877 1.2058638468 1.237597106 1.2693303651 1.3010636242 1.3327968833 1.3645301425 1.3962634016 
1.4279966607 1.4597299198 1.491463179 1.5231964381 1.5549296972 1.5866629564 1.6183962155 1.6501294746 1.6818627337 
1.7135959929 1.745329252 1.7770625111 1.8087957702 1.8405290294 1.8722622885 1.9039955476 1.9357288068 1.9674620659 
1.999195325 2.0309285841 2.0626618433 2.0943951024 2.1261283615 2.1578616206 2.1895948798 2.2213281389 2.253061398 
2.2847946572 2.3165279163 2.3482611754 2.3799944345 2.4117276937 2.4434609528 2.4751942119 2.506927471 2.5386607302 
2.5703939893 2.6021272484 2.6338605076 2.6655937667 2.6973270258 2.7290602849 2.7607935441 2.7925268032 2.8242600623 
2.8559933214 2.8877265806 2.9194598397 2.9511930988 2.982926358 3.0146596171 3.0463928762 3.0781261353 3.1098593945 
3.1415926536 
_radius 1 100 double
1.4605341511e-15 0.015717091459 0.031370687814 0.046885990411 0.062189024005 0.077207397576 0.09187097852 0.10611241582 0.11986720036 
0.13307276742 0.14566631854 0.15758163963 0.1687459573 0.17907837105 0.18849131437 0.19689580523 0.20421018548 0.21037098252 
0.21534379657 0.2191319346 0.22178091985 0.22337790143 0.22404614132 0.22393582925 0.22321308067 0.22204885102 0.22060873944 
0.21904373691 0.21748149136 0.21601793969 0.21471006819 0.21357163727 0.21257433976 0.21165650068 0.21073978826 0.20975176305 
0.20864942715 0.20743750846 0.20617573577 0.2049718266 0.2039612054 0.20328010824 0.20304317708 0.20333544679 0.20422032461 
0.20575527563 0.20800292609 0.21102884159 0.21488463455 0.21958226211 0.22506974237 0.23121830729 0.23782628167 0.244638497 
0.25137545279 0.25776524414 0.26357248987 0.26862047215 0.27280450111 0.27609592666 0.27853730068 0.28023002401 0.28131642827 
0.28195863552 0.28231668745 0.28252833167 0.28269251761 0.28285814594 0.28301899901 0.28311510627 0.28304010764 0.28265352818 
0.28179635884 0.28030803921 0.27804289971 0.27488432225 0.27075525495 0.26562419056 0.25950622115 0.25245926026 0.24457594972 
0.23597212601 0.22677301111 0.2170985187 0.2070492252 0.19669462072 0.18606517201 0.1751494267 0.16389682314 0.15222607537 
0.14003811495 0.12723180671 0.11372022748 0.099445314539 0.084389103974 0.068580424474 0.052096598776 0.035060300516 0.017632159031 
4.9801978094e-16 
_area 1 100 double
0 0.00072603628179 0.0028685544666 0.0063303564686 0.010977357683 0.016667673524 0.023271740732 0.03067487144 0.038763693479 
0.047405218159 0.056427859731 0.065611546201 0.074691450464 0.083375979898 0.091375351303 0.098434066852 0.1043592457 0.10903723737 
0.11243450832 0.11458565413 0.11557765222 0.11553932333 0.11463795303 0.11307773895 0.11109313619 0.10893251358 0.10682326265 
0.10489906239 0.10320481946 0.1017946187 0.10072785681 0.10004447453 0.099748455051 0.099801875643 0.10014151541 0.10071086067 
0.10149234467 0.10252693042 0.10389917763 0.10568736908 0.10789510451 0.11045706367 0.1132557759 0.11613674334 0.11898143878 
0.12179089463 0.12473058787 0.12811402096 0.13232296807 0.13768589159 0.14437131553 0.15234339003 0.16136862273 0.17105048014 
0.1808838568 0.19032343092 0.19885625412 0.20606646707 0.21168084218 0.21558857929 0.21783597209 0.21860378089 0.2181819982 
0.21697727241 0.21559314403 0.21425492313 0.2129020584 0.21156819854 0.21026330242 0.20893243878 0.20744868713 0.20562667808 
0.20324954449 0.20010144017 0.19599847216 0.19081305222 0.18448892687 0.17704589795 0.16857469027 0.15922370168 0.14918036751 
0.1386504309 0.12783833092 0.1169310458 0.10608642045 0.09542616755 0.085033876673 0.074958902275 0.065226750131 0.055854942692 
0.046870963035 0.038327355096 0.030309685954 0.022935602525 0.016346099887 0.010691969722 0.0061188326556 0.0027535368189 0.0006935730163 
2.1250362581e-17 
