# vtk DataFile Version 5.1
vtk output
ASCII
DATASET POLYDATA
POINTS 100 float
0.12734 0.0650563 -0.655893 0.126899 0.0650336 -0.655361 0.125639 0.0647568 -0.653756 
0.123659 0.06422 -0.651104 0.121117 0.0634131 -0.647452 0.118206 0.0623201 -0.642863 
0.115139 0.0609186 -0.637415 0.112121 0.0591788 -0.631202 0.109331 0.0570643 -0.624325 
0.1069 0.0545341 -0.616892 0.104898 0.0515461 -0.60901 0.103325 0.0480618 -0.600779 
0.102109 0.0440524 -0.592284 0.101115 0.039505 -0.583593 0.100155 0.0344278 -0.574745 
0.0990088 0.0288548 -0.565755 0.0974425 0.0228478 -0.556607 0.0952315 0.0164963 -0.547257 
0.0921811 0.00991419 -0.537637 0.0881432 0.00323375 -0.527661 0.0830286 -0.00340246 -0.517236 
0.0768122 -0.00985138 -0.506264 0.0695328 -0.0159796 -0.494658 0.0612858 -0.0216728 -0.482345 
0.0522111 -0.0268437 -0.469274 0.0424778 -0.0314371 -0.455419 0.0322668 -0.0354315 -0.440777 
0.0217538 -0.0388376 -0.425369 0.0110952 -0.0416937 -0.409235 0.000417255 -0.0440573 -0.392423 
-0.0101893 -0.0459968 -0.374983 -0.0206698 -0.0475806 -0.356964 -0.0310002 -0.0488688 -0.338399 
-0.0411781 -0.0499053 -0.319309 -0.0512102 -0.0507134 -0.299695 -0.0610987 -0.0512938 -0.279543 
-0.0708286 -0.0516272 -0.258828 -0.0803568 -0.0516783 -0.237517 -0.0896048 -0.0514031 -0.215582 
-0.0984574 -0.0507573 -0.193005 -0.106765 -0.0497039 -0.169788 -0.114351 -0.0482213 -0.145956 
-0.121027 -0.0463077 -0.121564 -0.126603 -0.0439841 -0.0966942 -0.130906 -0.0412936 -0.0714567 
-0.133798 -0.038298 -0.0459809 -0.135184 -0.0350728 -0.0204098 -0.135025 -0.0316996 0.00510969 
-0.133339 -0.0282588 0.0304356 -0.130206 -0.024823 0.0554391 -0.125755 -0.0214516 0.0800107 
-0.120156 -0.0181881 0.104064 -0.113608 -0.0150593 0.127538 -0.10632 -0.0120777 0.150392 
-0.0984965 -0.00924579 0.172608 -0.0903232 -0.00656156 0.194179 -0.0819549 -0.00402443 0.215106 
-0.0735083 -0.00164064 0.235393 -0.0650597 0.000572923 0.255043 -0.0566468 0.00258717 0.274054 
-0.0482746 0.0043617 0.29242 -0.0399247 0.00584823 0.310134 -0.0315666 0.00699607 0.327188 
-0.0231687 0.00775883 0.343584 -0.0147092 0.00810148 0.359332 -0.00618349 0.00800658 0.374458 
0.00239057 0.00747881 0.389005 0.0109718 0.00654692 0.403033 0.0194981 0.00526282 0.416615 
0.0278924 0.00369776 0.429835 0.036071 0.00193592 0.442777 0.0439521 6.63592e-05 0.455516 
0.0514657 -0.00182578 0.468115 0.0585608 -0.00366758 0.480609 0.0652113 -0.00540511 0.493009 
0.0714178 -0.00700764 0.505289 0.0772072 -0.00846885 0.517395 0.0826278 -0.0098048 0.529245 
0.0877429 -0.0110489 0.540736 0.0926224 -0.0122449 0.551758 0.097333 -0.0134381 0.562197 
0.10193 -0.0146672 0.571954 0.10645 -0.015957 0.58095 0.110908 -0.0173129 0.589132 
0.115293 -0.0187193 0.596482 0.119571 -0.0201404 0.603012 0.123693 -0.0215244 0.608765 
0.127594 -0.0228104 0.613806 0.131212 -0.0239369 0.618214 0.134485 -0.0248503 0.622076 
0.137366 -0.0255131 0.625471 0.139827 -0.0259101 0.628469 0.141861 -0.026051 0.63112 
0.143482 -0.0259708 0.633457 0.144723 -0.0257255 0.63549 0.145632 -0.0253862 0.637211 
0.146261 -0.0250297 0.638602 0.146663 -0.0247296 0.639639 0.146881 -0.0245463 0.640298 
0.146945 -0.0245194 0.640561 
LINES 2 100
OFFSETS vtktypeint64
0 100 
CONNECTIVITY vtktypeint64
0 1 2 3 4 5 6 7 8 
9 10 11 12 13 14 15 16 17 
18 19 20 21 22 23 24 25 26 
27 28 29 30 31 32 33 34 35 
36 37 38 39 40 41 42 43 44 
45 46 47 48 49 50 51 52 53 
54 55 56 57 58 59 60 61 62 
63 64 65 66 67 68 69 70 71 
72 73 74 75 76 77 78 79 80 
81 82 83 84 85 86 87 88 89 
90 91 92 93 94 95 96 97 98 
99 
POINT_DATA 100
FIELD FieldData 3
_theta 1 100 double
0 0.031733259127 0.063466518254 0.095199777382 0.12693303651 0.15866629564 0.19039955476 0.22213281389 0.25386607302 
0.28559933214 0.31733259127 0.3490658504 0.38079910953 0.41253236865 0.44426562778 0.47599888691 0.50773214603 0.53946540516 
0.57119866429 0.60293192342 0.63466518254 0.66639844167 0.6981317008 0.72986495992 0.76159821905 0.79333147818 0.82506473731 
0.85679799643 0.88853125556 0.92026451469 0.95199777382 0.98373103294 1.0154642921 1.0471975512 1.0789308103 1.1106640695 
1.1423973286 1.1741305877 1.2058638468 1.237597106 1.2693303651 1.3010636242 1.3327968833 1.3645301425 1.3962634016 
1.4279966607 1.4597299198 1.491463179 1.5231964381 1.5549296972 1.5866629564 1.6183962155 1.6501294746 1.6818627337 
1.7135959929 1.745329252 1.7770625111 1.8087957702 1.8405290294 1.8722622885 1.9039955476 1.9357288068 1.9674620659 
1.999195325 2.0309285841 2.0626618433 2.0943951024 2.1261283615 2.1578616206 2.1895948798 2.2213281389 2.253061398 
2.2847946572 2.3165279163 2.3482611754 2.3799944345 2.4117276937 2.4434609528 2.4751942119 2.506927471 2.5386607302 
2.5703939893 2.6021272484 2.6338605076 2.6655937667 2.6973270258 2.7290602849 2.7607935441 2.7925268032 2.8242600623 
2.8559933214 2.8877265806 2.9194598397 2.9511930988 2.982926358 3.0146596171 3.0463928762 3.0781261353 3.1098593945 
3.1415926536 
_radius 1 100 double
8.350923499e-16 0.013265109394 0.026501321849 0.039676133554 0.052756334143 0.065708149771 0.078497431495 0.091089408219 0.10344744744 
0.11553047245 0.12728916523 0.13866169071 0.1495701756 0.15991935924 0.16959861698 0.17848798325 0.18646800495 0.19343240353 
0.19930179201 0.20403624307 0.20764446104 0.21018771722 0.21177750443 0.2125668956 0.21273663059 0.21247777692 0.21197324813 
0.21138049108 0.21081738396 0.21035299069 0.21000437748 0.20974014604 0.20949056015 0.2091631559 0.20866173835 0.20790595109 
0.2068483516 0.20548622663 0.20386627288 0.20208167504 0.20026274381 0.1985635792 0.19714759066 0.19617388292 0.19578502284 
0.19609567448 0.19718186492 0.19907189084 0.20174089001 0.20511096623 0.2090575779 0.2134214682 0.21802440183 0.22268653172 
0.22724316928 0.23155890578 0.2355374045 0.23912577876 0.24231324483 0.24512455492 0.24760941231 0.24982953397 0.25184522205 
0.25370326218 0.25542771876 0.25701476672 0.25843210097 0.25962276079 0.26051252509 0.26101953518 0.26106457972 0.26058048433 
0.2595191647 0.25785511326 0.25558454489 0.25272021938 0.24928293335 0.24529150777 0.24075351114 0.23565882309 0.2299774821 
0.22366224622 0.21665520888 0.2088969608 0.20033638749 0.19093929546 0.18069457783 0.16961736222 0.15774926648 0.14515627186 
0.13192472225 0.11815574926 0.10395832557 0.089441345027 0.074705519849 0.059836213914 0.044898394558 0.029934636279 0.014966623489 
3.2794371473e-16 
_area 1 100 double
0 0.0005151253008 0.0020553446871 0.0046037338379 0.008127885693 0.012575635769 0.017872243655 0.023920323976 0.030602261655 
0.0377833125 0.045313229092 0.05302564267 0.060736891654 0.068247846117 0.075352087711 0.081851417807 0.087576249627 0.092405648331 
0.096280908503 0.099208125535 0.1012489222 0.10250304389 0.10308948033 0.1031318003 0.10274930296 0.10205244113 0.1011414058 
0.10010852803 0.099044132743 0.098042686825 0.097206786037 0.096647309227 0.096450942309 0.09659557174 0.096968708957 0.097447359069 
0.097925376285 0.098332293478 0.098651634561 0.098925075223 0.099230276253 0.099663913799 0.1003335734 0.10133347569 0.10273388248 
0.10459103888 0.10695934687 0.10989041019 0.11341811325 0.11754192453 0.12221669211 0.12734913804 0.13280055441 0.13839705662 
0.14394779671 0.14926847461 0.15420478862 0.15864982081 0.16255133903 0.16590861106 0.16876150131 0.17117601784 0.1732302254 
0.17500316293 0.17656676745 0.17797469883 0.17923466855 0.18026945811 0.18091625385 0.18097821984 0.18027780622 0.17868521348 
0.17613066837 0.17260950071 0.16817972711 0.16294862365 0.15704806802 0.15060473843 0.14371481042 0.13643168991 0.1287704987 
0.12072625269 0.11229756221 0.1035072174 0.094414113293 0.085114589886 0.07573408042 0.066412375557 0.057288008173 0.048487976496 
0.04012626319 0.032308830755 0.025138677 0.0187160695 0.013133969961 0.0084719574484 0.0047919816575 0.0021374742011 0.00053544363447 
1.4311468677e-17 
