# vtk DataFile Version 5.1
vtk output
ASCII
DATASET POLYDATA
POINTS 100 float
0.15944 0.0410515 -0.682181 0.159282 0.0410264 -0.682041 0.158853 0.0408186 -0.681693 
0.158165 0.0404417 -0.681072 0.157236 0.039915 -0.680077 0.156085 0.0392601 -0.678581 
0.154725 0.0384975 -0.676449 0.153162 0.0376419 -0.673549 0.151385 0.0366986 -0.669769 
0.149372 0.0356603 -0.665025 0.147079 0.0345052 -0.65927 0.14445 0.0331969 -0.652494 
0.141416 0.0316854 -0.644723 0.137903 0.0299102 -0.636008 0.13384 0.0278046 -0.626418 
0.129166 0.0253008 -0.616026 0.123841 0.0223368 -0.604899 0.117848 0.0188618 -0.593087 
0.111203 0.0148427 -0.580618 0.103956 0.010269 -0.567498 0.0961873 0.00515666 -0.55371 
0.0880068 -0.000449928 -0.539222 0.079542 -0.0064772 -0.523996 0.07093 -0.0128241 -0.508 
0.0623041 -0.0193654 -0.491215 0.0537818 -0.0259564 -0.473644 0.0454529 -0.0324392 -0.455315 
0.03737 -0.0386497 -0.436285 0.0295428 -0.0444257 -0.416631 0.021937 -0.0496137 -0.396448 
0.0144772 -0.054077 -0.375831 0.00705545 -0.0577019 -0.354867 -0.000456076 -0.0604032 -0.333626 
-0.00818966 -0.0621279 -0.312146 -0.0162643 -0.0628578 -0.290433 -0.0247683 -0.0626098 -0.268454 
-0.0337432 -0.0614346 -0.246151 -0.0431719 -0.0594139 -0.22344 -0.052971 -0.056655 -0.20023 
-0.0629894 -0.053286 -0.176439 -0.0730138 -0.0494477 -0.152005 -0.0827793 -0.0452871 -0.126904 
-0.0919867 -0.0409491 -0.101156 -0.100323 -0.0365698 -0.0748362 -0.107484 -0.0322706 -0.0480674 
-0.113197 -0.0281524 -0.021019 -0.117245 -0.0242931 0.0061069 -0.119478 -0.0207459 0.0330904 
-0.11983 -0.0175396 0.0597111 -0.118319 -0.0146812 0.0857656 -0.115049 -0.0121591 0.111083 
-0.110197 -0.00994859 0.135535 -0.104 -0.00801704 0.159045 -0.0967338 -0.00632974 0.181588 
-0.088692 -0.00485504 0.203184 -0.0801633 -0.00356861 0.223896 -0.07141 -0.00245632 0.243807 
-0.0626516 -0.00151553 0.263018 -0.054052 -0.000754644 0.281626 -0.0457139 -0.000191133 0.299717 
-0.0376783 0.000151755 0.317358 -0.0299313 0.000249145 0.334591 -0.0224142 7.90245e-05 0.351433 
-0.0150387 -0.00037348 0.367885 -0.00770249 -0.00111258 0.383932 -0.000305817 -0.00212945 0.399558 
0.00723399 -0.00340136 0.414749 0.0149711 -0.00489236 0.429506 0.022924 -0.0065554 0.443843 
0.0310725 -0.00833581 0.457793 0.0393596 -0.0101754 0.471402 0.0476973 -0.0120172 0.484726 
0.0559755 -0.0138093 0.497822 0.0640726 -0.015509 0.510735 0.0718663 -0.0170845 0.523495 
0.0792449 -0.0185164 0.536104 0.0861151 -0.019797 0.548536 0.0924084 -0.0209284 0.560731 
0.0980839 -0.0219198 0.572603 0.103129 -0.0227836 0.584041 0.107555 -0.0235321 0.594923 
0.111394 -0.024174 0.605126 0.114693 -0.0247125 0.614536 0.117508 -0.0251435 0.623061 
0.119894 -0.0254566 0.630636 0.121907 -0.0256364 0.637234 0.123595 -0.0256655 0.642861 
0.125 -0.025528 0.647561 0.126155 -0.0252139 0.651404 0.127088 -0.024722 0.654483 
0.127822 -0.0240635 0.656905 0.128378 -0.0232633 0.65878 0.128778 -0.0223599 0.660212 
0.129045 -0.0214037 0.661296 0.129201 -0.0204543 0.662112 0.129273 -0.019575 0.662723 
0.129286 -0.0188284 0.663175 0.129262 -0.0182703 0.663498 0.129221 -0.0179447 0.663713 
0.129174 -0.0178796 0.66383 
LINES 2 100
OFFSETS vtktypeint64
0 100 
CONNECTIVITY vtktypeint64
0 1 2 3 4 5 6 7 8 
9 10 11 12 13 14 15 16 17 
18 19 20 21 22 23 24 25 26 
27 28 29 30 31 32 33 34 35 
36 37 38 39 40 41 42 43 44 
45 46 47 48 49 50 51 52 53 
54 55 56 57 58 59 60 61 62 
63 64 65 66 67 68 69 70 71 
72 73 74 75 76 77 78 79 80 
81 82 83 84 85 86 87 88 89 
90 91 92 93 94 95 96 97 98 
99 
POINT_DATA 100
FIELD FieldData 3
_theta 1 100 double
0 0.031733259127 0.063466518254 0.095199777382 0.12693303651 0.15866629564 0.19039955476 0.22213281389 0.25386607302 
0.28559933214 0.31733259127 0.3490658504 0.38079910953 0.41253236865 0.44426562778 0.47599888691 0.50773214603 0.53946540516 
0.57119866429 0.60293192342 0.63466518254 0.66639844167 0.6981317008 0.72986495992 0.76159821905 0.79333147818 0.82506473731 
0.85679799643 0.88853125556 0.92026451469 0.95199777382 0.98373103294 1.0154642921 1.0471975512 1.0789308103 1.1106640695 
1.1423973286 1.1741305877 1.2058638468 1.237597106 1.2693303651 1.3010636242 1.3327968833 1.3645301425 1.3962634016 
1.4279966607 1.4597299198 1.491463179 1.5231964381 1.5549296972 1.5866629564 1.6183962155 1.6501294746 1.6818627337 
1.7135959929 1.745329252 1.7770625111 1.8087957702 1.8405290294 1.8722622885 1.9039955476 1.9357288068 1.9674620659 
1.999195325 2.0309285841 2.0626618433 2.0943951024 2.1261283615 2.1578616206 2.1895948798 2.2213281389 2.253061398 
2.2847946572 2.3165279163 2.3482611754 2.3799944345 2.4117276937 2.4434609528 2.4751942119 2.506927471 2.5386607302 
2.5703939893 2.6021272484 2.6338605076 2.6655937667 2.6973270258 2.7290602849 2.7607935441 2.7925268032 2.8242600623 
2.8559933214 2.8877265806 2.9194598397 2.9511930988 2.982926358 3.0146596171 3.0463928762 3.0781261353 3.1098593945 
3.1415926536 
_radius 1 100 double
8.8872035545e-16 0.015387524548 0.030648106105 0.045661886604 0.060325704627 0.074553805768 0.088272241831 0.10140895888 0.11388328 
0.12559889739 0.13644340572 0.14629528741 0.15503697662 0.16257100305 0.16883565193 0.17381700556 0.17755530736 0.18014490019 
0.18172819858 0.18248503526 0.18261916881 0.18234374899 0.18186720506 0.18138052578 0.18104644759 0.18099081871 0.18129639482 
0.18199942348 0.1830893924 0.18451214137 0.18617624129 0.18796228027 0.1897345283 0.19135432413 0.19269435937 0.19365276244 
0.19416549532 0.19421523559 0.19383502459 0.19310587295 0.19214896722 0.19111417375 0.19016656448 0.18947230802 0.18918541594 
0.18943725493 0.19033027406 0.19193571825 0.19429339719 0.19741131793 0.2012643314 0.20579270564 0.21090240665 0.2164684615 
0.22234171656 0.22835840998 0.23435151884 0.24016259362 0.24565260408 0.25071032455 0.25525713957 0.25924777964 0.26266718335 
0.26552425413 0.26784366966 0.26965708382 0.27099500912 0.27188039427 0.27232449824 0.27232523243 0.27186778232 0.27092704788 
0.2694712485 0.26746593869 0.26487771782 0.26167710564 0.2578403448 0.25335018506 0.24819591201 0.24237296353 0.2358824346 
0.22873062885 0.22092861048 0.21249150457 0.20343719108 0.19378414475 0.18354852426 0.17274110573 0.16136505496 0.14941558484 
0.13688213491 0.12375298263 0.11002148366 0.095692733768 0.080789432782 0.0653559975 0.049460349883 0.033193180776 0.016664807978 
2.4371657552e-16 
_area 1 100 double
0 0.00053501942783 0.002137116207 0.0047956899246 0.0084873458401 0.013167533077 0.018760045552 0.025146622705 0.032159671559 
0.039580990357 0.047148320387 0.054569972517 0.061546120319 0.06779406139 0.073074141198 0.077213063461 0.080121584834 0.081803863535 
0.08235633791 0.081955711498 0.080839624542 0.079296449177 0.077694131012 0.076402751095 0.075594750329 0.075273318239 0.075446496997 
0.076118029648 0.077259696391 0.078811355139 0.080675543381 0.082716052114 0.084764374242 0.086639139602 0.08817936229 0.089284413812 
0.089946272079 0.090258019819 0.090392151058 0.090558438635 0.0909571812 0.091736753197 0.092955913114 0.094570481419 0.096484430548 
0.098623770551 0.10097212655 0.10357306054 0.10651939255 0.10993395683 0.11394224181 0.11864527536 0.12410190326 0.13031812321 
0.13723328675 0.14470043955 0.15247361163 0.16022100524 0.16757055271 0.174173497 0.17976304049 0.18419338045 0.18745641768 
0.18967799082 0.19108765818 0.19194197229 0.19240926978 0.19250837862 0.1921551418 0.19124031759 0.1896788061 0.18742999659 
0.18449829312 0.18091926081 0.17673759182 0.17198508478 0.16666660214 0.16075854802 0.15421942922 0.14700820089 0.13910464945 
0.13052653676 0.12133971275 0.11165925298 0.1016414413 0.09146792628 0.081324782792 0.071380733898 0.061770265803 0.052587635219 
0.043894843166 0.035740281143 0.028179123527 0.021286727299 0.015161530305 0.0099189988886 0.0056801706555 0.00255810301 0.00064472954931 
4.7701991762e-17 
