# vtk DataFile Version 5.1
vtk output
ASCII
DATASET POLYDATA
POINTS 100 float
0.0873574 0.0602658 -0.652278 0.087437 0.0600609 -0.65265 0.0877035 0.0592961 -0.65369 
0.0881496 0.058025 -0.655245 0.0887617 0.0563292 -0.657078 0.0895185 0.0543078 -0.658891 
0.0903884 0.0520644 -0.660351 0.091328 0.0496935 -0.661127 0.0922798 0.0472677 -0.660912 
0.093172 0.0448282 -0.659453 0.0939188 0.0423786 -0.65657 0.0944221 0.0398838 -0.652162 
0.0945748 0.0372742 -0.646211 0.0942663 0.0344534 -0.638774 0.0933878 0.0313108 -0.629966 
0.0918402 0.0277357 -0.619942 0.0895406 0.023632 -0.608876 0.0864299 0.0189325 -0.596937 
0.0824778 0.0136095 -0.584273 0.0776878 0.00768232 -0.570999 0.0720982 0.00121998 -0.557191 
0.0657811 -0.00566146 -0.542887 0.0588391 -0.0128057 -0.528089 0.0513978 -0.0200272 -0.512778 
0.0435977 -0.0271243 -0.496927 0.0355831 -0.0338942 -0.480508 0.0274912 -0.0401469 -0.46351 
0.0194415 -0.0457178 -0.445938 0.0115265 -0.0504777 -0.427826 0.0038051 -0.0543385 -0.409222 
-0.00370025 -0.0572562 -0.390194 -0.0110031 -0.0592291 -0.370809 -0.0181483 -0.0602934 -0.351131 
-0.0252031 -0.0605164 -0.331206 -0.0322464 -0.0599886 -0.311053 -0.039355 -0.0588147 -0.290664 
-0.0465896 -0.0571057 -0.27 -0.0539827 -0.0549727 -0.248998 -0.0615271 -0.052521 -0.22758 
-0.0691699 -0.0498473 -0.205664 -0.0768097 -0.0470384 -0.18318 -0.0842993 -0.0441703 -0.160078 
-0.0914536 -0.041309 -0.136347 -0.0980614 -0.0385119 -0.11201 -0.103901 -0.0358276 -0.0871384 
-0.108756 -0.0332973 -0.0618383 -0.112434 -0.0309536 -0.0362494 -0.114782 -0.0288204 -0.0105308 
-0.1157 -0.0269112 0.015152 -0.115145 -0.0252284 0.0406403 -0.113139 -0.0237625 0.0657951 
-0.109763 -0.0224923 0.0905057 -0.105153 -0.0213862 0.114695 -0.0994834 -0.0204043 0.138319 
-0.0929551 -0.0195025 0.161364 -0.0857782 -0.0186364 0.183839 -0.078156 -0.0177663 0.205766 
-0.0702702 -0.0168618 0.227168 -0.0622702 -0.0159057 0.248063 -0.0542661 -0.0148967 0.268455 
-0.046326 -0.0138506 0.288331 -0.0384786 -0.0127993 0.307664 -0.0307192 -0.0117886 0.326415 
-0.0230189 -0.0108739 0.344541 -0.0153354 -0.0101149 0.362005 -0.00762416 -0.0095703 0.378783 
0.000151429 -0.00929183 0.394876 0.00801233 -0.0093195 0.410311 0.0159588 -0.00967794 0.425141 
0.0239691 -0.0103744 0.439446 0.0320006 -0.0113985 0.453322 0.0399949 -0.0127235 0.466872 
0.0478842 -0.0143092 0.480192 0.0555983 -0.0161055 0.49336 0.0630722 -0.0180567 0.506425 
0.0702525 -0.0201055 0.519397 0.077101 -0.0221966 0.532245 0.0835974 -0.0242791 0.544898 
0.0897382 -0.0263083 0.557253 0.0955341 -0.028246 0.569183 0.101006 -0.0300602 0.58055 
0.106178 -0.0317239 0.591221 0.111074 -0.0332142 0.601083 0.115713 -0.0345111 0.610053 
0.120102 -0.0355969 0.618084 0.124241 -0.0364566 0.625174 0.128116 -0.0370789 0.631356 
0.131708 -0.0374574 0.636702 0.134993 -0.0375928 0.641302 0.137947 -0.037495 0.645262 
0.140551 -0.0371845 0.648685 0.142796 -0.036693 0.651665 0.14468 -0.0360636 0.654273 
0.146217 -0.0353485 0.656559 0.147429 -0.0346069 0.658543 0.148348 -0.0339004 0.660226 
0.149007 -0.033289 0.66159 0.149439 -0.0328258 0.66261 0.149673 -0.0325526 0.663259 
0.149727 -0.0324964 0.663516 
LINES 2 100
OFFSETS vtktypeint64
0 100 
CONNECTIVITY vtktypeint64
0 1 2 3 4 5 6 7 8 
9 10 11 12 13 14 15 16 17 
18 19 20 21 22 23 24 25 26 
27 28 29 30 31 32 33 34 35 
36 37 38 39 40 41 42 43 44 
45 46 47 48 49 50 51 52 53 
54 55 56 57 58 59 60 61 62 
63 64 65 66 67 68 69 70 71 
72 73 74 75 76 77 78 79 80 
81 82 83 84 85 86 87 88 89 
90 91 92 93 94 95 96 97 98 
99 
POINT_DATA 100
FIELD FieldData 3
_theta 1 100 double
0 0.031733259127 0.063466518254 0.095199777382 0.12693303651 0.15866629564 0.19039955476 0.22213281389 0.25386607302 
0.28559933214 0.31733259127 0.3490658504 0.38079910953 0.41253236865 0.44426562778 0.47599888691 0.50773214603 0.53946540516 
0.57119866429 0.60293192342 0.63466518254 0.66639844167 0.6981317008 0.72986495992 0.76159821905 0.79333147818 0.82506473731 
0.85679799643 0.88853125556 0.92026451469 0.95199777382 0.98373103294 1.0154642921 1.0471975512 1.0789308103 1.1106640695 
1.1423973286 1.1741305877 1.2058638468 1.237597106 1.2693303651 1.3010636242 1.3327968833 1.3645301425 1.3962634016 
1.4279966607 1.4597299198 1.491463179 1.5231964381 1.5549296972 1.5866629564 1.6183962155 1.6501294746 1.6818627337 
1.7135959929 1.745329252 1.7770625111 1.8087957702 1.8405290294 1.8722622885 1.9039955476 1.9357288068 1.9674620659 
1.999195325 2.0309285841 2.0626618433 2.0943951024 2.1261283615 2.1578616206 2.1895948798 2.2213281389 2.253061398 
2.2847946572 2.3165279163 2.3482611754 2.3799944345 2.4117276937 2.4434609528 2.4751942119 2.506927471 2.5386607302 
2.5703939893 2.6021272484 2.6338605076 2.6655937667 2.6973270258 2.7290602849 2.7607935441 2.7925268032 2.8242600623 
2.8559933214 2.8877265806 2.9194598397 2.9511930988 2.982926358 3.0146596171 3.0463928762 3.0781261353 3.1098593945 
3.1415926536 
_radius 1 100 double
7.8074120386e-16 0.015991119101 0.031905379668 0.047655045538 0.063141722647 0.078254941632 0.092873982699 0.10687245771 0.12012454819 
0.13251154122 0.14392745025 0.15428299223 0.16350785977 0.17155186795 0.17838595711 0.18400403601 0.18842620617 0.19170312848 
0.19392044535 0.19520159457 0.19570731369 0.19563070216 0.1951876957 0.19460382777 0.19409879535 0.19387040686 0.19407913034 
0.19483412787 0.19618176401 0.19809810426 0.20048739714 0.20318838476 0.20598931162 0.20865094375 0.21093518964 0.21263545086 
0.213604031 0.21377209686 0.2131588405 0.21186838918 0.21007531058 0.20800186683 0.20589186283 0.20398623385 0.20250407131 
0.20163017181 0.20150767156 0.2022330477 0.20385122375 0.20635045391 0.20965912904 0.21364815943 0.21814182065 0.22293690881 
0.22782649306 0.23262268753 0.23717353701 0.24137145013 0.24515318274 0.24849322597 0.25139332638 0.25387089984 0.2559485761 
0.25764631862 0.25897675014 0.25994364512 0.2605430979 0.26076662636 0.2606053562 0.26005438277 0.25911641068 0.25780387545 
0.25613897914 0.25415133398 0.25187309369 0.24933165429 0.24654048448 0.243489434 0.2401365919 0.23640395668 0.23217865767 
0.22732040136 0.2216745435 0.21508904574 0.2074328078 0.19861259989 0.18858606287 0.17736890637 0.16503536176 0.15171195156 
0.13756553873 0.12278729138 0.107574591 0.092113043452 0.076560660092 0.061035987615 0.04561149891 0.030312941885 0.015124636959 
3.2055399606e-16 
_area 1 100 double
0 0.00057209315194 0.0023031927511 0.0052294438452 0.0093852789295 0.014771553722 0.021324300948 0.028894324411 0.037244101371 
0.046062144026 0.054990109427 0.063656340483 0.071710178207 0.078852704905 0.084860704593 0.089601491341 0.093037116069 0.095217495358 
0.096263340469 0.096341818655 0.095640831801 0.094349743368 0.09265182573 0.090726945503 0.088757930588 0.086934502308 0.085451521614 
0.084498603152 0.084235914473 0.084755448372 0.086049246376 0.088012638771 0.090452624403 0.093136311132 0.095754196795 0.098006649003 
0.099673286604 0.10063400903 0.10096344827 0.10093361731 0.10089928351 0.1010935138 0.10161682355 0.10246484556 0.10369133189 
0.10531713925 0.10744838168 0.11018261753 0.11353451943 0.11754814928 0.12224399009 0.12761165281 0.13358666865 0.1400351771 
0.14675871209 0.15351757768 0.16006249455 0.16616367188 0.17163083371 0.17632274781 0.18014827101 0.18306240741 0.18506069968 
0.18617395647 0.18646350469 0.18601548858 0.18493168169 0.18331446661 0.18124674356 0.17877454716 0.1759049629 0.17262418425 
0.16892543392 0.1648311227 0.16039946438 0.15571316656 0.15085355605 0.14586925652 0.14075209138 0.13542957914 0.12977557629 
0.12363514137 0.11685799021 0.10933416466 0.10102472188 0.091980493314 0.082344236301 0.07233562781 0.062223282715 0.052291394376 
0.042809004429 0.034007279045 0.026066524528 0.019112235883 0.013218603588 0.0084175910067 0.0047113108982 0.0020852104918 0.00051987486004 
3.035766083e-17 
