# vtk DataFile Version 5.1
vtk output
ASCII
DATASET POLYDATA
POINTS 100 float
0.217338 0.10944 -0.639454 0.217287 0.10952 -0.639695 0.217094 0.109569 -0.640369 
0.216729 0.109537 -0.641352 0.216151 0.109345 -0.642459 0.215303 0.108895 -0.643455 
0.214122 0.108077 -0.644089 0.212543 0.106784 -0.644115 0.210499 0.104915 -0.643322 
0.20793 0.102392 -0.641552 0.204781 0.0991577 -0.638712 0.201005 0.0951841 -0.63478 
0.19656 0.0904702 -0.6298 0.191414 0.08504 -0.623866 0.185537 0.0789373 -0.61711 
0.178909 0.0722201 -0.60967 0.171513 0.0649534 -0.601677 0.163342 0.0572042 -0.593228 
0.154401 0.0490371 -0.584375 0.144707 0.0405125 -0.575116 0.1343 0.0316865 -0.565393 
0.12324 0.0226144 -0.555107 0.111609 0.0133539 -0.544126 0.0995149 0.00397133 -0.532304 
0.0870845 -0.00545363 -0.519506 0.0744585 -0.0148238 -0.505622 0.0617834 -0.0240219 -0.490585 
0.0492005 -0.0329115 -0.474378 0.0368353 -0.0413398 -0.457036 0.0247868 -0.049144 -0.438644 
0.013119 -0.0561599 -0.419322 0.00185634 -0.0622325 -0.399208 -0.00901674 -0.0672267 -0.378444 
-0.0195511 -0.0710376 -0.357153 -0.029823 -0.0736 -0.335429 -0.0399201 -0.0748938 -0.313322 
-0.0499249 -0.0749471 -0.290839 -0.0598961 -0.0738351 -0.267944 -0.0698528 -0.0716756 -0.244573 
-0.0797602 -0.068621 -0.220647 -0.0895227 -0.0648477 -0.196091 -0.0989814 -0.0605441 -0.170852 
-0.107921 -0.0558987 -0.144919 -0.116085 -0.0510884 -0.118334 -0.123191 -0.0462689 -0.0911983 
-0.128958 -0.0415676 -0.063671 -0.133134 -0.0370798 -0.0359617 -0.135516 -0.0328674 -0.0083155 
-0.135975 -0.0289616 0.0190068 -0.134471 -0.0253667 0.0457501 -0.131056 -0.0220665 0.0716864 
-0.125877 -0.0190313 0.096634 -0.119161 -0.0162248 0.120471 -0.111199 -0.0136105 0.143143 
-0.102319 -0.0111566 0.164664 -0.0928587 -0.00883965 0.185108 -0.0831395 -0.00664605 0.204602 
-0.0734388 -0.00457239 0.223301 -0.0639722 -0.00262421 0.241379 -0.0548813 -0.000813927 0.259004 
-0.0462304 0.00084164 0.276324 -0.0380119 0.00232385 0.293457 -0.0301594 0.0036145 0.310479 
-0.0225659 0.00469754 0.327426 -0.0151063 0.00556021 0.344299 -0.00765916 0.00619357 0.361064 
-0.000126573 0.00659261 0.377671 0.00755043 0.00675609 0.394056 0.0153833 0.00668626 0.410159 
0.0233343 0.00638878 0.425928 0.031322 0.00587272 0.441325 0.0392324 0.00515081 0.456331 
0.0469344 0.00423979 0.470938 0.0542975 0.00316079 0.485153 0.061208 0.00193942 0.498987 
0.0675836 0.00060562 0.512448 0.0733825 -0.000807122 0.525539 0.0786074 -0.00226299 0.53825 
0.0833034 -0.00372564 0.550556 0.0875501 -0.00516034 0.562421 0.0914503 -0.00653627 0.573794 
0.0951157 -0.00782867 0.584622 0.098652 -0.00902061 0.594848 0.102146 -0.010104 0.604423 
0.105657 -0.0110796 0.613309 0.109207 -0.0119566 0.621482 0.112788 -0.0127503 0.628937 
0.116358 -0.0134803 0.635683 0.119853 -0.0141668 0.641745 0.123198 -0.0148283 0.647158 
0.126315 -0.0154784 0.651963 0.129136 -0.0161239 0.656199 0.131611 -0.0167637 0.659902 
0.133709 -0.0173887 0.663101 0.135424 -0.0179828 0.665814 0.136767 -0.018525 0.668051 
0.137764 -0.0189922 0.669814 0.138447 -0.0193622 0.671098 0.138845 -0.0196165 0.671898 
0.138978 -0.019743 0.672207 
LINES 2 100
OFFSETS vtktypeint64
0 100 
CONNECTIVITY vtktypeint64
0 1 2 3 4 5 6 7 8 
9 10 11 12 13 14 15 16 17 
18 19 20 21 22 23 24 25 26 
27 28 29 30 31 32 33 34 35 
36 37 38 39 40 41 42 43 44 
45 46 47 48 49 50 51 52 53 
54 55 56 57 58 59 60 61 62 
63 64 65 66 67 68 69 70 71 
72 73 74 75 76 77 78 79 80 
81 82 83 84 85 86 87 88 89 
90 91 92 93 94 95 96 97 98 
99 
POINT_DATA 100
FIELD FieldData 3
_theta 1 100 double
0 0.031733259127 0.063466518254 0.095199777382 0.12693303651 0.15866629564 0.19039955476 0.22213281389 0.25386607302 
0.28559933214 0.31733259127 0.3490658504 0.38079910953 0.41253236865 0.44426562778 0.47599888691 0.50773214603 0.53946540516 
0.57119866429 0.60293192342 0.63466518254 0.66639844167 0.6981317008 0.72986495992 0.76159821905 0.79333147818 0.82506473731 
0.85679799643 0.88853125556 0.92026451469 0.95199777382 0.98373103294 1.0154642921 1.0471975512 1.0789308103 1.1106640695 
1.1423973286 1.1741305877 1.2058638468 1.237597106 1.2693303651 1.3010636242 1.3327968833 1.3645301425 1.3962634016 
1.4279966607 1.4597299198 1.491463179 1.5231964381 1.5549296972 1.5866629564 1.6183962155 1.6501294746 1.6818627337 
1.7135959929 1.745329252 1.7770625111 1.8087957702 1.8405290294 1.8722622885 1.9039955476 1.9357288068 1.9674620659 
1.999195325 2.0309285841 2.0626618433 2.0943951024 2.1261283615 2.1578616206 2.1895948798 2.2213281389 2.253061398 
2.2847946572 2.3165279163 2.3482611754 2.3799944345 2.4117276937 2.4434609528 2.4751942119 2.506927471 2.5386607302 
2.5703939893 2.6021272484 2.6338605076 2.6655937667 2.6973270258 2.7290602849 2.7607935441 2.7925268032 2.8242600623 
2.8559933214 2.8877265806 2.9194598397 2.9511930988 2.982926358 3.0146596171 3.0463928762 3.0781261353 3.1098593945 
3.1415926536 
_radius 1 100 double
1.0337787607e-15 0.018842151643 0.037477841001 0.055710927993 0.073364977484 0.090290538553 0.10636939681 0.12151491925 0.13566827412 
0.14879122231 0.16085700857 0.17184132836 0.18171527617 0.19044167407 0.19797545875 0.20426810942 0.20927555092 0.21296856161 
0.21534439028 0.21643802266 0.21633138133 0.21515876507 0.21310706783 0.21040976638 0.20733432426 0.20416352757 0.20117230645 
0.19860266754 0.19664020823 0.19539595255 0.19489666372 0.19508537522 0.19583206902 0.19695279069 0.19823437204 0.19946142255 
0.20044243699 0.201032668 0.20115219757 0.20079786684 0.20004788807 0.19905837078 0.19805070664 0.19728855279 0.19704547736 
0.19756838895 0.19904453789 0.20157945491 0.20518973497 0.20980954383 0.21530561109 0.22149433893 0.22815676868 0.23505077648 
0.24192255336 0.248519782 0.25460735841 0.25998441957 0.26450004233 0.26806471665 0.27065537711 0.2723129946 0.27313310546 
0.27325087276 0.27282308785 0.272009787 0.27095787185 0.26978838956 0.26858811733 0.26740501173 0.26624627529 0.26507800682 
0.2638273792 0.26239048152 0.26064715679 0.2584787141 0.25578212822 0.25247732398 0.24850794094 0.24383781176 0.23844557034 
0.23231921761 0.2254516896 0.21783780851 0.20947257404 0.20035055356 0.19046609876 0.1798141965 0.16839189156 0.15620031678 
0.14324734128 0.12955065939 0.11514085346 0.10006374084 0.084381344321 0.068171164291 0.051523941378 0.03454052737 0.017328627536 
9.625520652e-16 
_area 1 100 double
0 0.00072281891798 0.0028931632656 0.0065085195299 0.011541328711 0.017915272711 0.025488341021 0.034048630748 0.043323510031 
0.05299871419 0.062742301721 0.072228868934 0.081160908481 0.08928553528 0.096405377818 0.10238252511 0.10713507414 0.11062797283 
0.1128628737 0.11387293929 0.11372569435 0.11253150541 0.110451223 0.10769646031 0.10451916449 0.10119148038 0.097980632881 
0.095125488094 0.09282218862 0.091234635242 0.090513959887 0.090514227629 0.09102188918 0.09187400286 0.092926406245 0.094060362041 
0.095193613372 0.096288189698 0.097348740739 0.098411495816 0.099509758369 0.10066401273 0.10191892165 0.10329054719 0.10495617594 
0.10701209864 0.10943633836 0.11232705027 0.11583853575 0.12015964817 0.12548287358 0.13193104778 0.13947432914 0.14790986299 
0.15690026952 0.16602136783 0.17481239701 0.1828438928 0.1897570421 0.19519494686 0.19884153695 0.20057480406 0.20046422072 
0.19873303296 0.19571753134 0.19181626581 0.18745463077 0.18319844956 0.17938092771 0.17609412836 0.1732837625 0.17082573289 
0.16849766701 0.16601885469 0.16311137903 0.15956003138 0.15523882429 0.15010479898 0.14417386282 0.13749584228 0.13014230522 
0.12220779131 0.11381370808 0.10510404719 0.096229304054 0.087323012742 0.078481276104 0.069756607729 0.061170800284 0.052740878903 
0.044505741841 0.036543012222 0.028972345889 0.021947091156 0.015638591801 0.01021774588 0.0058379773104 0.0026228356575 0.00065985170057 
4.499985176e-17 
