# vtk DataFile Version 5.1
vtk output
ASCII
DATASET POLYDATA
POINTS 100 float
0.165315 0.0532391 -0.718615 0.165394 0.0533388 -0.718623 0.165653 0.0534805 -0.718701 
0.166012 0.0536395 -0.718719 0.166349 0.0537758 -0.718479 0.166515 0.0538364 -0.717736 
0.166348 0.0537587 -0.716232 0.165695 0.0534738 -0.713722 0.164424 0.0529118 -0.710005 
0.162443 0.0520052 -0.704949 0.159701 0.0506944 -0.698498 0.156193 0.0489311 -0.690682 
0.151955 0.046682 -0.681604 0.147052 0.0439308 -0.671429 0.14157 0.0406801 -0.660353 
0.135596 0.0369506 -0.648584 0.129209 0.0327804 -0.636307 0.122469 0.0282223 -0.623668 
0.11541 0.0233404 -0.610752 0.108041 0.0182065 -0.597578 0.100351 0.0128963 -0.584101 
0.0923135 0.00748509 -0.570222 0.0839027 0.00204532 -0.555805 0.0751025 -0.00335589 -0.540705 
0.0659172 -0.00865768 -0.524783 0.0563788 -0.0138054 -0.507938 0.0465489 -0.0187498 -0.490114 
0.0365159 -0.0234447 -0.471314 0.0263875 -0.0278459 -0.451599 0.0162782 -0.0319085 -0.43108 
0.0062963 -0.0355862 -0.409902 -0.00347028 -0.0388304 -0.388223 -0.0129647 -0.0415917 -0.366194 
-0.0221681 -0.0438216 -0.343934 -0.0311001 -0.0454761 -0.321517 -0.039813 -0.0465196 -0.298962 
-0.0483802 -0.0469293 -0.276229 -0.0568787 -0.0466999 -0.253229 -0.0653705 -0.0458469 -0.229837 
-0.0738826 -0.0444082 -0.205911 -0.0823907 -0.0424452 -0.181319 -0.0908086 -0.0400404 -0.155956 
-0.098984 -0.0372938 -0.129769 -0.106704 -0.0343169 -0.102768 -0.11371 -0.031226 -0.0750322 
-0.119715 -0.0281344 -0.0467071 -0.124435 -0.0251443 -0.0179948 -0.127613 -0.0223408 0.0108633 
-0.129049 -0.0197862 0.0396083 -0.12862 -0.0175175 0.0679863 -0.126296 -0.0155455 0.0957699 
-0.122148 -0.0138576 0.122776 -0.116338 -0.0124217 0.148875 -0.109108 -0.0111927 0.173999 
-0.100756 -0.0101194 0.198134 -0.0916093 -0.00915211 0.221315 -0.0819887 -0.00824926 0.243605 
-0.0721842 -0.00738252 0.265088 -0.0624279 -0.00654 0.285845 -0.0528779 -0.00572717 0.305943 
-0.0436109 -0.00496523 0.325427 -0.0346244 -0.00428764 0.344312 -0.025849 -0.00373493 0.362592 
-0.0171674 -0.00334884 0.38024 -0.00843867 -0.00316646 0.397221 0.00047639 -0.00321512 0.413507 
0.00969187 -0.00350879 0.429085 0.019278 -0.00404638 0.443969 0.02925 -0.00481209 0.458204 
0.0395642 -0.00577776 0.471866 0.0501242 -0.00690669 0.485056 0.0607925 -0.00815853 0.49789 
0.0714083 -0.00949427 0.510487 0.0818077 -0.0108808 0.522951 0.0918432 -0.0122941 0.53536 
0.1014 -0.013721 0.547754 0.110409 -0.0151586 0.560125 0.118846 -0.0166124 0.572421 
0.126735 -0.0180922 0.584546 0.134137 -0.0196077 0.596375 0.141134 -0.0211636 0.607764 
0.147814 -0.022755 0.618565 0.154255 -0.0243647 0.628649 0.160512 -0.0259617 0.637912 
0.166604 -0.0275028 0.646291 0.172514 -0.028935 0.653765 0.178188 -0.0302014 0.660356 
0.183547 -0.031247 0.666124 0.188496 -0.0320261 0.671155 0.192943 -0.0325083 0.675551 
0.196809 -0.0326838 0.679412 0.200046 -0.0325666 0.682826 0.202639 -0.032195 0.685861 
0.204615 -0.0316293 0.688556 0.206035 -0.0309465 0.690924 0.206987 -0.0302336 0.69295 
0.207575 -0.029579 0.694605 0.2079 -0.0290633 0.69585 0.208048 -0.028751 0.696647 
0.208077 -0.0286839 0.696969 
LINES 2 100
OFFSETS vtktypeint64
0 100 
CONNECTIVITY vtktypeint64
0 1 2 3 4 5 6 7 8 
9 10 11 12 13 14 15 16 17 
18 19 20 21 22 23 24 25 26 
27 28 29 30 31 32 33 34 35 
36 37 38 39 40 41 42 43 44 
45 46 47 48 49 50 51 52 53 
54 55 56 57 58 59 60 61 62 
63 64 65 66 67 68 69 70 71 
72 73 74 75 76 77 78 79 80 
81 82 83 84 85 86 87 88 89 
90 91 92 93 94 95 96 97 98 
99 
POINT_DATA 100
FIELD FieldData 3
_theta 1 100 double
0 0.031733259127 0.063466518254 0.095199777382 0.12693303651 0.15866629564 0.19039955476 0.22213281389 0.25386607302 
0.28559933214 0.31733259127 0.3490658504 0.38079910953 0.41253236865 0.44426562778 0.47599888691 0.50773214603 0.53946540516 
0.57119866429 0.60293192342 0.63466518254 0.66639844167 0.6981317008 0.72986495992 0.76159821905 0.79333147818 0.82506473731 
0.85679799643 0.88853125556 0.92026451469 0.95199777382 0.98373103294 1.0154642921 1.0471975512 1.0789308103 1.1106640695 
1.1423973286 1.1741305877 1.2058638468 1.237597106 1.2693303651 1.3010636242 1.3327968833 1.3645301425 1.3962634016 
1.4279966607 1.4597299198 1.491463179 1.5231964381 1.5549296972 1.5866629564 1.6183962155 1.6501294746 1.6818627337 
1.7135959929 1.745329252 1.7770625111 1.8087957702 1.8405290294 1.8722622885 1.9039955476 1.9357288068 1.9674620659 
1.999195325 2.0309285841 2.0626618433 2.0943951024 2.1261283615 2.1578616206 2.1895948798 2.2213281389 2.253061398 
2.2847946572 2.3165279163 2.3482611754 2.3799944345 2.4117276937 2.4434609528 2.4751942119 2.506927471 2.5386607302 
2.5703939893 2.6021272484 2.6338605076 2.6655937667 2.6973270258 2.7290602849 2.7607935441 2.7925268032 2.8242600623 
2.8559933214 2.8877265806 2.9194598397 2.9511930988 2.982926358 3.0146596171 3.0463928762 3.0781261353 3.1098593945 
3.1415926536 
_radius 1 100 double
1.1202392386e-15 0.015928108879 0.03163689153 0.046921949672 0.061613408434 0.075585999043 0.088761953022 0.10110673617 0.11261896906 
0.12331694081 0.13322472999 0.14236088399 0.15073179035 0.15833050615 0.16514035878 0.17114159524 0.17631902718 0.18066896398 
0.18420447096 0.18695876332 0.18898702541 0.19036695919 0.19119797419 0.19159842942 0.19170013686 0.1916397294 0.19154744706 
0.19153499039 0.19168473893 0.1920424287 0.19261440831 0.19336938123 0.19424368411 0.19514891264 0.19598097836 0.19663018619 
0.19699236282 0.19698109376 0.19654049334 0.19565689735 0.19436715565 0.1927612717 0.1909778176 0.18919162335 0.18759499054 
0.18637633115 0.18570229139 0.18570823943 0.18649686459 0.18813961639 0.19067524929 0.19410353367 0.19837662225 0.20339282214 
0.20899702677 0.21498964504 0.22114287506 0.22722091327 0.23299997282 0.2382848088 0.24292011651 0.24679680075 0.24985410733 
0.25207879547 0.25350210657 0.25419463869 0.25425875885 0.25381814469 0.25300453873 0.25194273175 0.25073584109 0.24945354123 
0.24812545737 0.24674039911 0.24525027233 0.24357644802 0.24161658189 0.23925098581 0.23634885709 0.23277531568 0.2284000389 
0.22310748724 0.21680770666 0.20944591631 0.20100883578 0.19152606805 0.18106578128 0.16972525726 0.15761827221 0.14486222684 
0.131567904 0.11783356246 0.10374332637 0.089368444743 0.074769591158 0.059998870706 0.045101067908 0.030114394673 0.015071322821 
4.7211886321e-16 
_area 1 100 double
0 0.00059083460372 0.0023452856399 0.005211522724 0.0091097979688 0.013938877707 0.019579819108 0.025895866981 0.032730244974 
0.039904811441 0.047221063574 0.054463190149 0.061402976836 0.067807724121 0.073452959205 0.078140566003 0.081720475279 0.084111528529 
0.085315936248 0.085422936767 0.084601100306 0.083084574711 0.08116896219 0.079289955253 0.07773071491 0.076503397903 0.075636057419 
0.075141480865 0.075036843774 0.075356535789 0.076124042094 0.077333924124 0.078960342731 0.080953510903 0.083224611241 0.085663525023 
0.088156361178 0.090583108228 0.092814871848 0.094731271023 0.096257843839 0.09740069313 0.098249815186 0.098936832596 0.099574604152 
0.10024349694 0.10102705016 0.1020354696 0.1034089649 0.10532218947 0.10797939697 0.11158885796 0.11632182964 0.12226358192 
0.12936468184 0.13741343151 0.14605027786 0.15481810163 0.16322631446 0.17081313608 0.17719762715 0.18211598844 0.18543958912 
0.18717544452 0.18745133214 0.18648560087 0.18454200517 0.18188605358 0.17876503764 0.17540089977 0.17197494784 0.16860612975 
0.165335673 0.16212778209 0.15888779125 0.15548960618 0.15179973349 0.14769002943 0.14304073157 0.13774134989 0.13169668343 
0.12484067669 0.11715536154 0.10868825887 0.099560562151 0.089960465307 0.080120626715 0.070284620392 0.060672218356 0.051455082088 
0.042751130877 0.034637895272 0.02717634631 0.020432657307 0.014488807086 0.0094405595442 0.0053872863891 0.0024195689541 0.00060874676125 
1.4964521271e-16 
