# vtk DataFile Version 5.1
vtk output
ASCII
DATASET POLYDATA
POINTS 100 float
0.233313 0.104283 -0.67288 0.233208 0.104235 -0.673215 0.232951 0.103884 -0.674176 
0.232575 0.103226 -0.675641 0.232122 0.102248 -0.677416 0.231635 0.100936 -0.679255 
0.231135 0.0992656 -0.680884 0.230611 0.0972083 -0.682024 0.230007 0.0947272 -0.682412 
0.229218 0.0917801 -0.681825 0.228087 0.0883214 -0.680095 0.226418 0.0843057 -0.677119 
0.223992 0.0796919 -0.672861 0.220585 0.0744484 -0.667344 0.215997 0.0685578 -0.660644 
0.210072 0.0620212 -0.652874 0.202722 0.0548618 -0.644161 0.193939 0.0471268 -0.634632 
0.1838 0.0388878 -0.624394 0.172465 0.0302392 -0.61352 0.160161 0.021295 -0.602043 
0.147163 0.012185 -0.589947 0.133763 0.00304837 -0.577174 0.120243 -0.00597097 -0.56363 
0.106848 -0.0147307 -0.549194 0.0937608 -0.0230948 -0.533735 0.0810874 -0.0309378 -0.517124 
0.068853 -0.0381476 -0.499252 0.0570077 -0.0446273 -0.48004 0.0454423 -0.0502962 -0.459445 
0.0340125 -0.0550902 -0.437473 0.0225681 -0.0589608 -0.414171 0.0109838 -0.0618761 -0.38963 
-0.000812996 -0.0638196 -0.363977 -0.0128206 -0.0647916 -0.337367 -0.0249507 -0.0648097 -0.309975 
-0.0370267 -0.0639096 -0.281985 -0.048794 -0.0621462 -0.253582 -0.0599404 -0.0595941 -0.224945 
-0.0701247 -0.0563474 -0.196243 -0.0790098 -0.0525174 -0.167627 -0.0862974 -0.0482303 -0.139233 
-0.0917582 -0.0436221 -0.111179 -0.0952568 -0.0388332 -0.083565 -0.0967659 -0.0340012 -0.0564733 
-0.0963697 -0.0292546 -0.0299699 -0.0942557 -0.0247056 -0.00410371 -0.090696 -0.020445 0.021093 
-0.0860206 -0.0165383 0.0456049 -0.0805859 -0.0130244 0.069434 -0.0747415 -0.00991638 0.0925988 
-0.0688003 -0.00720461 0.115134 -0.0630134 -0.00486242 0.137086 -0.0575544 -0.00285249 0.158515 
-0.0525125 -0.0011341 0.179483 -0.0478962 0.000329988 0.200056 -0.0436458 0.00156797 0.220294 
-0.039652 0.00259528 0.240249 -0.0357802 0.00341334 0.259956 -0.0318945 0.00401079 0.279438 
-0.0278805 0.00436706 0.298694 -0.0236635 0.0044577 0.317709 -0.0192194 0.00426062 0.336452 
-0.0145794 0.00376234 0.354883 -0.00982594 0.00296323 0.372954 -0.00508293 0.00188084 0.390621 
-0.000500426 0.000550718 0.407845 0.00376301 -0.0009755 0.424602 0.00755848 -0.00263471 0.440881 
0.010763 -0.00435911 0.45669 0.0132919 -0.00608416 0.472054 0.0151064 -0.00775691 0.487011 
0.0162155 -0.00934318 0.50161 0.0166723 -0.0108328 0.515902 0.0165661 -0.0122418 0.529934 
0.0160113 -0.0136113 0.543746 0.0151342 -0.0150028 0.55736 0.0140604 -0.0164904 0.570781 
0.0129038 -0.0181507 0.583989 0.0117575 -0.0200521 0.596946 0.0106892 -0.0222437 0.609591 
0.00973934 -0.024747 0.62185 0.00892271 -0.0275493 0.633637 0.00823295 -0.0306025 0.644865 
0.00764843 -0.0338249 0.655447 0.007139 -0.0371081 0.665306 0.00667238 -0.040327 0.674382 
0.00621965 -0.0433524 0.682628 0.00575912 -0.0460645 0.690023 0.00527844 -0.0483659 0.696561 
0.0047751 -0.0501919 0.702259 0.00425542 -0.0515176 0.707151 0.00373267 -0.0523604 0.711282 
0.00322456 -0.0527771 0.714708 0.00275081 -0.0528573 0.717487 0.00233088 -0.0527116 0.719679 
0.00198224 -0.0524585 0.721339 0.00171919 -0.0522098 0.722512 0.00155215 -0.0520565 0.723233 
0.00148728 -0.052058 0.723524 
LINES 2 100
OFFSETS vtktypeint64
0 100 
CONNECTIVITY vtktypeint64
0 1 2 3 4 5 6 7 8 
9 10 11 12 13 14 15 16 17 
18 19 20 21 22 23 24 25 26 
27 28 29 30 31 32 33 34 35 
36 37 38 39 40 41 42 43 44 
45 46 47 48 49 50 51 52 53 
54 55 56 57 58 59 60 61 62 
63 64 65 66 67 68 69 70 71 
72 73 74 75 76 77 78 79 80 
81 82 83 84 85 86 87 88 89 
90 91 92 93 94 95 96 97 98 
99 
POINT_DATA 100
FIELD FieldData 3
_theta 1 100 double
0 0.031733259127 0.063466518254 0.095199777382 0.12693303651 0.15866629564 0.19039955476 0.22213281389 0.25386607302 
0.28559933214 0.31733259127 0.3490658504 0.38079910953 0.41253236865 0.44426562778 0.47599888691 0.50773214603 0.53946540516 
0.57119866429 0.60293192342 0.63466518254 0.66639844167 0.6981317008 0.72986495992 0.76159821905 0.79333147818 0.82506473731 
0.85679799643 0.88853125556 0.92026451469 0.95199777382 0.98373103294 1.0154642921 1.0471975512 1.0789308103 1.1106640695 
1.1423973286 1.1741305877 1.2058638468 1.237597106 1.2693303651 1.3010636242 1.3327968833 1.3645301425 1.3962634016 
1.4279966607 1.4597299198 1.491463179 1.5231964381 1.5549296972 1.5866629564 1.6183962155 1.6501294746 1.6818627337 
1.7135959929 1.745329252 1.7770625111 1.8087957702 1.8405290294 1.8722622885 1.9039955476 1.9357288068 1.9674620659 
1.999195325 2.0309285841 2.0626618433 2.0943951024 2.1261283615 2.1578616206 2.1895948798 2.2213281389 2.253061398 
2.2847946572 2.3165279163 2.3482611754 2.3799944345 2.4117276937 2.4434609528 2.4751942119 2.506927471 2.5386607302 
2.5703939893 2.6021272484 2.6338605076 2.6655937667 2.6973270258 2.7290602849 2.7607935441 2.7925268032 2.8242600623 
2.8559933214 2.8877265806 2.9194598397 2.9511930988 2.982926358 3.0146596171 3.0463928762 3.0781261353 3.1098593945 
3.1415926536 
_radius 1 100 double
1.082467449e-15 0.017596529888 0.035085780325 0.052354876337 0.069294313747 0.085795090697 0.10174265154 0.11700986748 0.13145222961 
0.1449081116 0.15720552773 0.16817492386 0.17766592348 0.1855650536 0.1918113555 0.19640726919 0.19942304324 0.20099398828 
0.20131100328 0.20060575787 0.19913251133 0.1971487425 0.19489672289 0.19258806365 0.19039298691 0.18843531935 0.18679299835 
0.18550273765 0.18456696732 0.18396136374 0.18364203368 0.18355250768 0.18363177485 0.18382487004 0.18409620945 0.184443264 
0.18490607041 0.18556841458 0.18654929311 0.18798647367 0.19001585754 0.19275120925 0.19626936913 0.20060438285 0.20574862058 
0.21165472058 0.21823442826 0.22535609141 0.23284537466 0.24049240015 0.24806572993 0.25533154715 0.2620754176 0.26812362429 
0.27336087943 0.27774131022 0.2812902968 0.28409615709 0.28629260328 0.28803481508 0.28947327739 0.29072980305 0.29187939322 
0.29294015603 0.29387193556 0.29458299975 0.29494324801 0.29480188471 0.29400725585 0.29242648246 0.28996261464 0.28656728423 
0.28224727785 0.27706410179 0.27112644144 0.26457633618 0.25757075053 0.25026087429 0.24277184321 0.23518563305 0.22752966888 
0.21977316193 0.21183221744 0.20358332588 0.19488321779 0.18559172783 0.17559373635 0.16481659471 0.15324050743 0.1409007559 
0.12788203203 0.11430628026 0.10031625276 0.086057449977 0.07166120264 0.057231310158 0.042835931 0.028505490627 0.014236447544 
9.6267277715e-16 
_area 1 100 double
0 0.0007331048143 0.0029144234409 0.0064943949184 0.011401646574 0.017548991162 0.024826557824 0.033081282594 0.042093620352 
0.051566091893 0.061131293945 0.070377576079 0.078885779376 0.086270458954 0.092220621743 0.096535330119 0.099148116246 0.10013311379 
0.099688157941 0.098097110874 0.095682087416 0.09275938445 0.089607992841 0.086452651375 0.083461739652 0.080761413029 0.078441759841 
0.076467578046 0.074846896426 0.07365896235 0.0730245036 0.073128669621 0.073961112869 0.075419606439 0.077433049296 0.079897182845 
0.082674939159 0.085628615965 0.088659625222 0.091737137956 0.09490321733 0.098260344308 0.10196498728 0.1062356458 0.11134357415 
0.11754538731 0.12497929266 0.13359238443 0.14314174286 0.1532421648 0.16341843367 0.17316503796 0.18201752136 0.1896207814 
0.19577605525 0.20045332392 0.20376634978 0.20592260175 0.20717410156 0.20779025374 0.20805487207 0.20844421589 0.20966455777 
0.2111741854 0.21271904827 0.21404507219 0.21488532136 0.21498189774 0.21411563554 0.21212678246 0.20892343732 0.20448263067 
0.19885004669 0.19213915588 0.184526071 0.17623678201 0.1675259199 0.15864816367 0.14982503174 0.14121188847 0.13287236162 
0.12476879423 0.1167759724 0.10871917522 0.10042726046 0.091783571084 0.082758778531 0.07341870437 0.06390977049 0.054430881208 
0.045202382801 0.036440444967 0.028340285449 0.021067212582 0.014752865604 0.009494885717 0.0053594860517 0.002386667071 0.00059723279452 
2.8658205436e-17 
