# vtk DataFile Version 5.1
vtk output
ASCII
DATASET POLYDATA
POINTS 100 float
0.140707 0.0432314 -0.606068 0.140765 0.0433481 -0.606029 0.140997 0.0435078 -0.605886 
0.141373 0.0436716 -0.605594 0.141843 0.0437783 -0.60508 0.142334 0.0437484 -0.604255 
0.142754 0.0434909 -0.603017 0.142993 0.0429095 -0.601265 0.142925 0.04191 -0.598908 
0.142416 0.0404082 -0.595864 0.141326 0.0383359 -0.592073 0.139522 0.035647 -0.587491 
0.136885 0.0323211 -0.582094 0.133319 0.0283666 -0.575871 0.12876 0.0238205 -0.568818 
0.123184 0.0187475 -0.560938 0.116611 0.0132363 -0.55223 0.109102 0.00739551 -0.542689 
0.100762 0.00134722 -0.532305 0.0917303 -0.00477907 -0.521064 0.0821692 -0.0108532 -0.508952 
0.0722536 -0.0167507 -0.495955 0.0621558 -0.0223584 -0.482073 0.0520325 -0.0275786 -0.467318 
0.0420119 -0.0323328 -0.451719 0.032185 -0.0365626 -0.435323 0.0225997 -0.0402304 -0.418196 
0.0132607 -0.043318 -0.400415 0.00413346 -0.0458242 -0.382062 -0.00484698 -0.0477623 -0.363217 
-0.0137636 -0.0491561 -0.343947 -0.0227027 -0.0500369 -0.3243 -0.0317381 -0.0504398 -0.304302 
-0.0409168 -0.050402 -0.283948 -0.0502471 -0.0499599 -0.263211 -0.0596896 -0.0491491 -0.242043 
-0.0691547 -0.0480032 -0.220385 -0.0785044 -0.0465551 -0.198184 -0.0875589 -0.0448371 -0.175396 
-0.096109 -0.0428828 -0.152007 -0.10393 -0.0407274 -0.128039 -0.110801 -0.038409 -0.103556 
-0.116518 -0.0359688 -0.0786671 -0.120914 -0.0334508 -0.0535214 -0.123867 -0.030901 -0.0282993 
-0.125314 -0.0283658 -0.00320023 -0.125249 -0.0258904 0.0215729 -0.123726 -0.0235165 0.0458301 
-0.120853 -0.0212801 0.0694095 -0.116779 -0.0192099 0.0921891 -0.111686 -0.0173259 0.114095 
-0.10577 -0.0156383 0.135104 -0.0992321 -0.0141474 0.155241 -0.0922617 -0.0128447 0.174569 
-0.0850271 -0.0117141 0.193178 -0.0776684 -0.0107335 0.211174 -0.0702925 -0.00987769 0.22866 
-0.0629729 -0.00912027 0.245726 -0.0557518 -0.00843635 0.262438 -0.048645 -0.00780445 0.278833 
-0.0416485 -0.00720812 0.294919 -0.034746 -0.00663685 0.310679 -0.0279159 -0.0060863 0.32608 
-0.0211382 -0.00555798 0.341082 -0.0143994 -0.00505821 0.355652 -0.00769622 -0.00459676 0.369772 
-0.00103732 -0.00418518 0.383447 0.0055568 -0.00383504 0.396707 0.0120551 -0.00355633 0.409608 
0.0184186 -0.00335608 0.422226 0.0246031 -0.00323735 0.434643 0.030563 -0.00319876 0.44694 
0.0362541 -0.00323435 0.459181 0.0416363 -0.00333394 0.471402 0.0466757 -0.00348389 0.483602 
0.0513463 -0.00366803 0.495741 0.0556303 -0.00386879 0.507738 0.0595189 -0.00406831 0.519481 
0.0630115 -0.00424957 0.530836 0.0661157 -0.00439723 0.541663 0.068846 -0.00449842 0.551834 
0.0712232 -0.00454322 0.561242 0.0732731 -0.00452494 0.569823 0.0750256 -0.00444019 0.577556 
0.0765133 -0.00428884 0.584468 0.0777702 -0.00407381 0.590631 0.0788306 -0.00380075 0.596155 
0.0797273 -0.00347776 0.601165 0.0804906 -0.003115 0.605794 0.0811469 -0.00272426 0.610161 
0.0817181 -0.00231858 0.614353 0.0822205 -0.00191181 0.61842 0.082665 -0.00151813 0.622362 
0.0830572 -0.00115153 0.626132 0.0833979 -0.000825393 0.629643 0.0836844 -0.000551898 0.632779 
0.0839119 -0.00034161 0.63541 0.0840744 -0.000203026 0.63741 0.0841665 -0.000142239 0.638676 
0.0841844 -0.000162698 0.639136 
LINES 2 100
OFFSETS vtktypeint64
0 100 
CONNECTIVITY vtktypeint64
0 1 2 3 4 5 6 7 8 
9 10 11 12 13 14 15 16 17 
18 19 20 21 22 23 24 25 26 
27 28 29 30 31 32 33 34 35 
36 37 38 39 40 41 42 43 44 
45 46 47 48 49 50 51 52 53 
54 55 56 57 58 59 60 61 62 
63 64 65 66 67 68 69 70 71 
72 73 74 75 76 77 78 79 80 
81 82 83 84 85 86 87 88 89 
90 91 92 93 94 95 96 97 98 
99 
POINT_DATA 100
FIELD FieldData 3
_theta 1 100 double
0 0.031733259127 0.063466518254 0.095199777382 0.12693303651 0.15866629564 0.19039955476 0.22213281389 0.25386607302 
0.28559933214 0.31733259127 0.3490658504 0.38079910953 0.41253236865 0.44426562778 0.47599888691 0.50773214603 0.53946540516 
0.57119866429 0.60293192342 0.63466518254 0.66639844167 0.6981317008 0.72986495992 0.76159821905 0.79333147818 0.82506473731 
0.85679799643 0.88853125556 0.92026451469 0.95199777382 0.98373103294 1.0154642921 1.0471975512 1.0789308103 1.1106640695 
1.1423973286 1.1741305877 1.2058638468 1.237597106 1.2693303651 1.3010636242 1.3327968833 1.3645301425 1.3962634016 
1.4279966607 1.4597299198 1.491463179 1.5231964381 1.5549296972 1.5866629564 1.6183962155 1.6501294746 1.6818627337 
1.7135959929 1.745329252 1.7770625111 1.8087957702 1.8405290294 1.8722622885 1.9039955476 1.9357288068 1.9674620659 
1.999195325 2.0309285841 2.0626618433 2.0943951024 2.1261283615 2.1578616206 2.1895948798 2.2213281389 2.253061398 
2.2847946572 2.3165279163 2.3482611754 2.3799944345 2.4117276937 2.4434609528 2.4751942119 2.506927471 2.5386607302 
2.5703939893 2.6021272484 2.6338605076 2.6655937667 2.6973270258 2.7290602849 2.7607935441 2.7925268032 2.8242600623 
2.8559933214 2.8877265806 2.9194598397 2.9511930988 2.982926358 3.0146596171 3.0463928762 3.0781261353 3.1098593945 
3.1415926536 
_radius 1 100 double
1.1274368112e-15 0.015058818789 0.030062126675 0.044941659295 0.059615932472 0.073986640087 0.087938181701 0.10134058951 0.11405535567 
0.12594312072 0.13687204895 0.14672590159 0.1554111387 0.16286269 0.16904826827 0.1739712403 0.17767212524 0.18022875904 
0.18175505638 0.18239814748 0.18233352267 0.18175775523 0.18087846974 0.179901546 0.17901612612 0.17837875013 0.17809867688 
0.17822685351 0.17875082393 0.17959705063 0.18064085449 0.18172284424 0.18266974109 0.18331714269 0.18353188592 0.18323187186 
0.18240124034 0.1810987319 0.17945733775 0.17767433611 0.17599273019 0.17467740524 0.17399054392 0.1741696931 0.17540912705 
0.17784339236 0.1815327724 0.18645279951 0.1924913518 0.19945577451 0.20708966126 0.21509650829 0.22316658956 0.23100367172 
0.23834873299 0.24499834405 0.25081594089 0.25573502021 0.25975429577 0.26292591675 0.26533877076 0.26709950429 0.26831408552 
0.26907247755 0.26943833029 0.26944464549 0.26909530175 0.26837137304 0.26724054066 0.26566766662 0.26362470208 0.26109839925 
0.25809465611 0.25463871872 0.25077094898 0.24653850927 0.24198411716 0.23713384269 0.23198648492 0.22650708848 0.22062650154 
0.21424764805 0.20725773355 0.19954433679 0.19101257027 0.18160034906 0.17128925484 0.16010937496 0.14813762306 0.13549016506 
0.12231044802 0.1087547941 0.094977544522 0.081117442557 0.067286533329 0.053562486482 0.039984940199 0.026556155568 0.013245894869 
1.145082706e-15 
_area 1 100 double
0 0.00051171260149 0.0020577061826 0.0046641797049 0.0083537880574 0.013117612005 0.018886645235 0.025513012706 0.032767475545 
0.040354171484 0.047938706197 0.055182720868 0.061777428594 0.067470353502 0.072082685783 0.075517586441 0.077761135482 0.07887754768 
0.078999872913 0.078317351057 0.077060769194 0.075487270802 0.073866138801 0.072465027185 0.071516368558 0.071141468874 0.071351437283 
0.072103939536 0.073322494026 0.074894408353 0.076673148168 0.078491686976 0.080182851364 0.081601200299 0.082642110266 0.083255848135 
0.08345428788 0.083306404176 0.082922430558 0.082437247761 0.082005003903 0.081804322935 0.082050186123 0.083022218344 0.084870251517 
0.087643339883 0.091446560476 0.096369119476 0.1024431014 0.10961915784 0.11775633143 0.12662440909 0.13591718752 0.14527638432 
0.15432393581 0.16269797282 0.1700874057 0.17626020609 0.18108105752 0.18451678094 0.18663176006 0.18757713019 0.18757368105 
0.18687669943 0.18570493165 0.18416487218 0.18224742249 0.1798819068 0.17698214303 0.1734736534 0.1693124003 0.1644985702 
0.15908452547 0.15317494332 0.14691776603 0.14048532243 0.13404504315 0.12772221501 0.12156480596 0.11552539683 0.10947085368 
0.10321926728 0.096592681241 0.089468331192 0.081813252321 0.073694946282 0.065268943408 0.056749470568 0.048372023771 0.040357198021 
0.032883951588 0.026077521397 0.020012591811 0.014727121493 0.010238857445 0.006557429482 0.0036895788286 0.0016397714924 0.00040988649437 
2.7772635392e-17 
