# vtk DataFile Version 5.1
vtk output
ASCII
DATASET POLYDATA
POINTS 100 float
0.231401 0.0667375 -0.639374 0.230899 0.0666022 -0.639048 0.229447 0.0660954 -0.638084 
0.227105 0.0652562 -0.636474 0.223964 0.0641429 -0.634205 0.22014 0.0628245 -0.631267 
0.215764 0.0613696 -0.627655 0.210967 0.0598362 -0.623374 0.205866 0.0582617 -0.61844 
0.200559 0.0566556 -0.612886 0.195108 0.0549955 -0.606759 0.189537 0.0532274 -0.600118 
0.183825 0.0512702 -0.593032 0.177911 0.0490233 -0.585571 0.171698 0.0463775 -0.577801 
0.165063 0.0432277 -0.569778 0.157869 0.0394854 -0.561535 0.14998 0.0350896 -0.553086 
0.141278 0.0300162 -0.544414 0.131677 0.0242831 -0.535473 0.121134 0.0179511 -0.526194 
0.10966 0.0111218 -0.516481 0.0973222 0.00393036 -0.506226 0.0842425 -0.00346338 -0.495311 
0.0705921 -0.0108864 -0.483617 0.0565785 -0.0181641 -0.471038 0.0424304 -0.0251317 -0.457481 
0.0283804 -0.0316435 -0.442877 0.0146472 -0.03758 -0.427185 0.00141886 -0.0428518 -0.41039 
-0.0111594 -0.0474013 -0.392503 -0.0229937 -0.0512004 -0.373563 -0.0340434 -0.0542471 -0.353626 
-0.0443172 -0.0565608 -0.332768 -0.0538641 -0.0581761 -0.311071 -0.0627589 -0.0591376 -0.288628 
-0.0710858 -0.0594952 -0.265529 -0.0789207 -0.0593006 -0.241868 -0.0863149 -0.0586047 -0.217734 
-0.0932826 -0.0574571 -0.193216 -0.0997932 -0.0559057 -0.168399 -0.10577 -0.0539972 -0.143369 
-0.111094 -0.051778 -0.118211 -0.115618 -0.0492944 -0.0930088 -0.119179 -0.0465924 -0.0678501 
-0.12162 -0.0437174 -0.042821 -0.122807 -0.040713 -0.0180071 -0.12265 -0.0376196 0.00650894 
-0.121115 -0.0344727 0.0306497 -0.118231 -0.0313026 0.0543452 -0.114096 -0.0281333 0.0775348 
-0.108866 -0.0249837 0.100169 -0.102748 -0.0218684 0.122209 -0.0959773 -0.0188002 0.143631 
-0.0888032 -0.0157922 0.164417 -0.0814622 -0.0128606 0.184563 -0.0741611 -0.0100268 0.204072 
-0.0670602 -0.0073177 0.222952 -0.0602636 -0.00476637 0.241218 -0.0538154 -0.00240977 0.258886 
-0.0477039 -0.00028603 0.275978 -0.0418711 0.00156963 0.292517 -0.0362281 0.00312941 0.308532 
-0.0306728 0.00437727 0.324055 -0.0251083 0.00531249 0.339121 -0.0194603 0.0059517 0.353772 
-0.0136894 0.00632894 0.368053 -0.00779889 0.00649351 0.382011 -0.00183615 0.00650573 0.395691 
0.00411258 0.00643085 0.409136 0.00993251 0.00633194 0.422382 0.0154947 0.00626252 0.43545 
0.0206725 0.00625993 0.448347 0.0253575 0.0063404 0.461063 0.0294732 0.00649646 0.473567 
0.0329847 0.00669743 0.485809 0.0359028 0.00689279 0.497721 0.0382821 0.00701842 0.509222 
0.0402143 0.00700483 0.520223 0.0418158 0.00678665 0.530632 0.0432141 0.00631191 0.540365 
0.0445316 0.0055502 0.549346 0.0458722 0.00449839 0.557519 0.0473094 0.00318319 0.564849 
0.0488799 0.00166011 0.571325 0.0505817 8.71076e-06 0.576961 0.0523779 -0.00167518 0.581795 
0.0542043 -0.00328962 0.585882 0.0559808 -0.00473764 0.589294 0.0576244 -0.00593807 0.59211 
0.0590614 -0.00683466 0.594413 0.0602381 -0.00740234 0.596283 0.0611278 -0.00764973 0.597793 
0.0617334 -0.00761769 0.599007 0.0620855 -0.00737389 0.599977 0.0622364 -0.00700408 0.600742 
0.0622507 -0.00660117 0.601329 0.0621944 -0.00625345 0.601758 0.0621242 -0.00603344 0.60204 
0.062078 -0.00598867 0.60218 
LINES 2 100
OFFSETS vtktypeint64
0 100 
CONNECTIVITY vtktypeint64
0 1 2 3 4 5 6 7 8 
9 10 11 12 13 14 15 16 17 
18 19 20 21 22 23 24 25 26 
27 28 29 30 31 32 33 34 35 
36 37 38 39 40 41 42 43 44 
45 46 47 48 49 50 51 52 53 
54 55 56 57 58 59 60 61 62 
63 64 65 66 67 68 69 70 71 
72 73 74 75 76 77 78 79 80 
81 82 83 84 85 86 87 88 89 
90 91 92 93 94 95 96 97 98 
99 
POINT_DATA 100
FIELD FieldData 3
_theta 1 100 double
0 0.031733259127 0.063466518254 0.095199777382 0.12693303651 0.15866629564 0.19039955476 0.22213281389 0.25386607302 
0.28559933214 0.31733259127 0.3490658504 0.38079910953 0.41253236865 0.44426562778 0.47599888691 0.50773214603 0.53946540516 
0.57119866429 0.60293192342 0.63466518254 0.66639844167 0.6981317008 0.72986495992 0.76159821905 0.79333147818 0.82506473731 
0.85679799643 0.88853125556 0.92026451469 0.95199777382 0.98373103294 1.0154642921 1.0471975512 1.0789308103 1.1106640695 
1.1423973286 1.1741305877 1.2058638468 1.237597106 1.2693303651 1.3010636242 1.3327968833 1.3645301425 1.3962634016 
1.4279966607 1.4597299198 1.491463179 1.5231964381 1.5549296972 1.5866629564 1.6183962155 1.6501294746 1.6818627337 
1.7135959929 1.745329252 1.7770625111 1.8087957702 1.8405290294 1.8722622885 1.9039955476 1.9357288068 1.9674620659 
1.999195325 2.0309285841 2.0626618433 2.0943951024 2.1261283615 2.1578616206 2.1895948798 2.2213281389 2.253061398 
2.2847946572 2.3165279163 2.3482611754 2.3799944345 2.4117276937 2.4434609528 2.4751942119 2.506927471 2.5386607302 
2.5703939893 2.6021272484 2.6338605076 2.6655937667 2.6973270258 2.7290602849 2.7607935441 2.7925268032 2.8242600623 
2.8559933214 2.8877265806 2.9194598397 2.9511930988 2.982926358 3.0146596171 3.0463928762 3.0781261353 3.1098593945 
3.1415926536 
_radius 1 100 double
6.4736570491e-16 0.014643960449 0.029147186053 0.04338140945 0.057242557244 0.070656805396 0.083580793455 0.095996110053 0.10789939789 
0.11929030283 0.13015977166 0.14048088212 0.15020367635 0.15925463818 0.16754071115 0.17495718722 0.18139841276 0.18677002624 
0.191001315 0.1940562296 0.19594163861 0.1967116016 0.19646684219 0.19534922447 0.19353178897 0.19120561946 0.18856528861 
0.18579473241 0.18305512785 0.18047583609 0.17814893815 0.17612751368 0.17442765521 0.17303415169 0.17190958149 0.17100605963 
0.17027815828 0.16969486512 0.16924825292 0.16895711909 0.16886521042 0.16903529057 0.16954146532 0.17046220417 0.17187521007 
0.17385331069 0.1764591844 0.1797370801 0.18370167337 0.18832663176 0.19353686343 0.19920792878 0.20517393514 0.21124256242 
0.21721395968 0.22289973125 0.22813890719 0.23280906353 0.23683203923 0.24017464265 0.24284525032 0.24488734293 0.24637093902 
0.24738272443 0.24801555264 0.24835796905 0.24848449556 0.24844754377 0.24827190906 0.24795271232 0.24745730015 0.24673095587 
0.24570540698 0.2443083069 0.24247150435 0.24013629733 0.23725493908 0.23378895333 0.22970574458 0.22497523024 0.21956782104 
0.21345433073 0.20660765452 0.19900557222 0.19063390448 0.18148941945 0.17158218159 0.16093725444 0.14959568591 0.13761454689 
0.12506563769 0.11203251389 0.098605778587 0.084877038275 0.070932344244 0.056846190287 0.042677143501 0.028465953834 0.014236573371 
6.151582163e-16 
_area 1 100 double
0 0.00039792075477 0.0015973644091 0.0036118840195 0.0064540469779 0.010125007563 0.014606208661 0.019854979084 0.025803480932 
0.032359112324 0.03940458856 0.046797134086 0.054367698619 0.061922084783 0.069245893762 0.07611428051 0.082306135154 0.087621094064 
0.091897071198 0.095025765304 0.096963730927 0.097737009839 0.097437952387 0.09621393993 0.094249558662 0.091745913002 0.088901791651 
0.085900197064 0.082900930922 0.080037621666 0.077417536221 0.075124156279 0.073222655145 0.071764704352 0.070785847244 0.070296870696 
0.070284376207 0.070724778985 0.07159563215 0.072873769461 0.074524627464 0.076495869695 0.078727646751 0.081177387361 0.083842167451 
0.08676539776 0.090028821715 0.0937357194 0.097988232598 0.10286061521 0.10837223992 0.11446998026 0.12102982682 0.12787371293 
0.13478812041 0.14153875726 0.14788485277 0.15359645156 0.15847314269 0.16235989053 0.16515688216 0.16682351527 0.16737916233 
0.1669035896 0.16553778643 0.16348270874 0.16099176688 0.15835720209 0.15590338036 0.15400244089 0.15299550161 0.15278116986 
0.15280164847 0.15253512652 0.15162656605 0.14984870052 0.14706993607 0.14323489084 0.13835016496 0.13247255961 0.12569848393 
0.11815341025 0.10998071038 0.10133042774 0.092349897333 0.083178470731 0.073947162577 0.064781643903 0.055805695612 0.047142877916 
0.038915702454 0.031242750895 0.024234657479 0.017989927096 0.012591464176 0.0081045303819 0.0045765860216 0.0020390460752 0.00051044214516 
2.6630453212e-18 
