# vtk DataFile Version 5.1
vtk output
ASCII
DATASET POLYDATA
POINTS 100 float
0.160898 0.0702953 -0.677009 0.160677 0.0702521 -0.676753 0.160027 0.0699462 -0.676006 
0.158989 0.0693653 -0.674726 0.157624 0.0684903 -0.672849 0.156003 0.0672972 -0.670304 
0.154203 0.0657593 -0.667019 0.152286 0.0638494 -0.662934 0.150299 0.0615422 -0.658016 
0.148258 0.0588177 -0.65226 0.146147 0.0556627 -0.645697 0.143915 0.0520733 -0.638388 
0.141476 0.0480562 -0.630419 0.138722 0.04363 -0.621891 0.135527 0.0388253 -0.612906 
0.131762 0.033684 -0.603553 0.127308 0.028259 -0.593893 0.122066 0.022612 -0.583952 
0.115974 0.016812 -0.573714 0.109011 0.0109329 -0.56312 0.101199 0.00505076 -0.552071 
0.0926095 -0.000758309 -0.540443 0.0833523 -0.00642066 -0.528094 0.0735703 -0.0118673 -0.514884 
0.0634269 -0.0170355 -0.500688 0.0530924 -0.0218707 -0.485413 0.0427306 -0.0263269 -0.469004 
0.0324853 -0.0303677 -0.451455 0.0224703 -0.0339664 -0.432806 0.0127625 -0.0371057 -0.413139 
0.0033992 -0.0397774 -0.392568 -0.00562012 -0.0419813 -0.371228 -0.0143278 -0.0437248 -0.34926 
-0.0227786 -0.0450212 -0.326794 -0.0310371 -0.0458893 -0.303942 -0.0391654 -0.0463516 -0.280787 
-0.0472093 -0.0464339 -0.257376 -0.0551881 -0.046164 -0.233729 -0.0630854 -0.0455709 -0.209834 
-0.0708455 -0.0446844 -0.185666 -0.0783727 -0.0435343 -0.16119 -0.0855361 -0.0421501 -0.136379 
-0.092177 -0.0405611 -0.111223 -0.0981209 -0.0387957 -0.085736 -0.10319 -0.0368821 -0.0599642 
-0.107219 -0.0348478 -0.0339852 -0.110065 -0.0327199 -0.00790583 -0.111622 -0.030525 0.0181452 
-0.111828 -0.0282896 0.0440261 -0.110668 -0.0260394 0.0695934 -0.108177 -0.0237998 0.0947118 
-0.104437 -0.0215951 0.119264 -0.0995658 -0.0194483 0.143159 -0.0937127 -0.017381 0.166333 
-0.0870433 -0.0154122 0.188753 -0.0797294 -0.0135585 0.210411 -0.0719372 -0.0118334 0.231322 
-0.0638177 -0.0102468 0.251516 -0.055499 -0.00880536 0.271033 -0.047082 -0.00751215 0.289911 
-0.0386387 -0.0063671 0.30819 -0.0302139 -0.00536745 0.3259 -0.0218284 -0.00450849 0.343068 
-0.0134854 -0.0037844 0.359715 -0.00517654 -0.00318919 0.375861 0.00311077 -0.0027176 0.391527 
0.0113872 -0.00236596 0.406739 0.0196562 -0.00213284 0.421532 0.0279106 -0.00201939 0.435949 
0.036131 -0.00202945 0.450038 0.0442857 -0.00216913 0.463852 0.0523327 -0.00244624 0.477441 
0.0602231 -0.0028692 0.490847 0.0679044 -0.00344582 0.504101 0.0753252 -0.00418187 0.517209 
0.0824386 -0.00507969 0.530159 0.0892058 -0.00613685 0.542912 0.0955977 -0.00734512 0.555408 
0.101596 -0.00868981 0.567568 0.107195 -0.0101496 0.579301 0.112396 -0.0116969 0.590515 
0.117209 -0.0132987 0.601122 0.121652 -0.0149181 0.611047 0.125741 -0.0165161 0.620236 
0.129498 -0.0180537 0.628662 0.132941 -0.0194944 0.63632 0.136086 -0.020806 0.643233 
0.138947 -0.0219631 0.649441 0.141535 -0.0229483 0.655 0.143858 -0.0237535 0.659971 
0.145923 -0.02438 0.664413 0.147736 -0.0248383 0.668377 0.149304 -0.0251472 0.671899 
0.150633 -0.025332 0.675 0.151733 -0.0254222 0.677684 0.15261 -0.0254493 0.679941 
0.153275 -0.0254439 0.681752 0.153733 -0.0254332 0.683092 0.153993 -0.0254387 0.68394 
0.154058 -0.0254746 0.684279 
LINES 2 100
OFFSETS vtktypeint64
0 100 
CONNECTIVITY vtktypeint64
0 1 2 3 4 5 6 7 8 
9 10 11 12 13 14 15 16 17 
18 19 20 21 22 23 24 25 26 
27 28 29 30 31 32 33 34 35 
36 37 38 39 40 41 42 43 44 
45 46 47 48 49 50 51 52 53 
54 55 56 57 58 59 60 61 62 
63 64 65 66 67 68 69 70 71 
72 73 74 75 76 77 78 79 80 
81 82 83 84 85 86 87 88 89 
90 91 92 93 94 95 96 97 98 
99 
POINT_DATA 100
FIELD FieldData 3
_theta 1 100 double
0 0.031733259127 0.063466518254 0.095199777382 0.12693303651 0.15866629564 0.19039955476 0.22213281389 0.25386607302 
0.28559933214 0.31733259127 0.3490658504 0.38079910953 0.41253236865 0.44426562778 0.47599888691 0.50773214603 0.53946540516 
0.57119866429 0.60293192342 0.63466518254 0.66639844167 0.6981317008 0.72986495992 0.76159821905 0.79333147818 0.82506473731 
0.85679799643 0.88853125556 0.92026451469 0.95199777382 0.98373103294 1.0154642921 1.0471975512 1.0789308103 1.1106640695 
1.1423973286 1.1741305877 1.2058638468 1.237597106 1.2693303651 1.3010636242 1.3327968833 1.3645301425 1.3962634016 
1.4279966607 1.4597299198 1.491463179 1.5231964381 1.5549296972 1.5866629564 1.6183962155 1.6501294746 1.6818627337 
1.7135959929 1.745329252 1.7770625111 1.8087957702 1.8405290294 1.8722622885 1.9039955476 1.9357288068 1.9674620659 
1.999195325 2.0309285841 2.0626618433 2.0943951024 2.1261283615 2.1578616206 2.1895948798 2.2213281389 2.253061398 
2.2847946572 2.3165279163 2.3482611754 2.3799944345 2.4117276937 2.4434609528 2.4751942119 2.506927471 2.5386607302 
2.5703939893 2.6021272484 2.6338605076 2.6655937667 2.6973270258 2.7290602849 2.7607935441 2.7925268032 2.8242600623 
2.8559933214 2.8877265806 2.9194598397 2.9511930988 2.982926358 3.0146596171 3.0463928762 3.0781261353 3.1098593945 
3.1415926536 
_radius 1 100 double
1.4571016336e-15 0.015276565716 0.030460397356 0.045457074284 0.06017206824 0.074511314257 0.088382402227 0.1016963687 0.11436992277 
0.12632782125 0.13750504645 0.14784844986 0.15731760803 0.16588478299 0.17353407212 0.18026004266 0.18606632235 0.1909646852 
0.19497506555 0.19812664506 0.20045976991 0.20202811113 0.20290029654 0.20316025875 0.20290574126 0.20224475525 0.2012902365 
0.20015361159 0.198938272 0.19773391642 0.19661234817 0.19562481636 0.19480068696 0.19414733785 0.19365160382 0.19328346791 
0.19300253696 0.19276697787 0.19254341351 0.19231553395 0.19208938597 0.19189436187 0.19178028287 0.19181206188 0.19206385312 
0.19261429639 0.19354349106 0.1949308649 0.19685189607 0.19937170634 0.20253499483 0.20635371848 0.21079536288 0.21577512919 
0.22115483077 0.22674991379 0.2323442071 0.23771031718 0.24263245922 0.24692816825 0.25046574315 0.25317522358 0.25505186897 
0.2561522173 0.25658367082 0.25648912743 0.25602847031 0.25535880899 0.25461531931 0.25389445138 0.2532412228 0.25264223099 
0.25202568767 0.25126895744 0.25021278675 0.24868004877 0.24649596165 0.24350666228 0.23959365119 0.23468264911 0.22874648967 
0.22180256814 0.21390595418 0.20513955382 0.19560274875 0.18539984421 0.17462949761 0.16337611308 0.15170397702 0.13965465663 
0.12724786607 0.11448562216 0.10135909671 0.087857190701 0.07397557478 0.059724817635 0.045136297619 0.030264879213 0.01518782057 
8.6160407682e-16 
_area 1 100 double
0 0.00056318026311 0.0022391608201 0.0049877106936 0.0087429265105 0.013414094007 0.018886223163 0.025021112775 0.031660519469 
0.038632655571 0.045761835402 0.052879376213 0.05983280676 0.066490699781 0.072741993556 0.078490754591 0.083648987407 0.088130745807 
0.091850413079 0.094726862076 0.096693665281 0.097713961787 0.097797147602 0.097013319279 0.095500724245 0.093461567429 0.091141427853 
0.088791314658 0.086627016981 0.084806358866 0.083434017754 0.082576281675 0.082269124892 0.082519692108 0.083304430653 0.08456787282 
0.086225455391 0.088172434925 0.090299692689 0.092512434691 0.094749696255 0.096996819252 0.099277601876 0.1016241083 0.10404320795 
0.10650931406 0.10899487187 0.11151644898 0.11416216262 0.11709318052 0.12052143452 0.12466063184 0.12966494294 0.13558057705 
0.14232434248 0.14968708105 0.15735504445 0.16494138494 0.17202082201 0.17817647763 0.18306443461 0.18647692414 0.18837273927 
0.1888639703 0.18818345323 0.18664371766 0.18458621797 0.1824636361 0.18024730954 0.1780056384 0.17578335156 0.17357856006 
0.17132627034 0.16889240036 0.16608736159 0.16269846961 0.15852906331 0.15343325054 0.14734198418 0.14027562026 0.13233835916 
0.12369546618 0.11454070405 0.10506493092 0.095435452411 0.08578976938 0.076240349155 0.066883595626 0.057807526045 0.049096122678 
0.040831004877 0.033092087781 0.025958700163 0.01951165431 0.013835389421 0.0090183755016 0.0051502049889 0.0023150719321 0.00058284769467 
7.0777041461e-17 
