# vtk DataFile Version 5.1
vtk output
ASCII
DATASET POLYDATA
POINTS 100 float
0.124365 0.0592998 -0.608328 0.124579 0.0593262 -0.608546 0.125232 0.0592344 -0.609144 
0.126256 0.0590104 -0.609994 0.12754 0.0586315 -0.610896 0.128946 0.0580673 -0.611604 
0.13032 0.0572815 -0.611847 0.131502 0.0562333 -0.611361 0.132344 0.05488 -0.609917 
0.132717 0.0531789 -0.60734 0.132515 0.0510897 -0.603526 0.131663 0.048577 -0.598448 
0.130112 0.0456118 -0.592155 0.127831 0.0421742 -0.584758 0.12481 0.0382545 -0.576415 
0.121043 0.033855 -0.567307 0.116529 0.0289906 -0.557614 0.111263 0.0236904 -0.547496 
0.10524 0.0179973 -0.537072 0.0984535 0.0119686 -0.526411 0.0909008 0.00567558 -0.515526 
0.0825912 -0.000798006 -0.50438 0.0735528 -0.00735686 -0.49289 0.0638381 -0.0138966 -0.480951 
0.0535287 -0.0203066 -0.468442 0.0427353 -0.0264735 -0.455255 0.0315939 -0.0322848 -0.441298 
0.0202579 -0.0376341 -0.426517 0.00888702 -0.0424251 -0.410892 -0.00236615 -0.0465762 -0.394445 
-0.0133694 -0.0500253 -0.377226 -0.0240226 -0.0527326 -0.35931 -0.0342659 -0.0546834 -0.34078 
-0.044082 -0.0558891 -0.321717 -0.0534937 -0.0563869 -0.302187 -0.0625548 -0.0562378 -0.282234 
-0.0713356 -0.0555226 -0.261876 -0.0799055 -0.0543372 -0.241107 -0.0883145 -0.0527862 -0.219905 
-0.0965755 -0.0509761 -0.198236 -0.104651 -0.049008 -0.176073 -0.112446 -0.0469713 -0.153404 
-0.119808 -0.0449378 -0.130242 -0.126534 -0.0429578 -0.106634 -0.132387 -0.0410577 -0.0826632 
-0.13712 -0.0392401 -0.0584449 -0.140496 -0.0374858 -0.0341218 -0.142317 -0.0357579 -0.00985226 
-0.142446 -0.034008 0.0142028 -0.140826 -0.0321825 0.0378936 -0.137486 -0.0302303 0.0610936 
-0.132546 -0.0281099 0.0837098 -0.126204 -0.0257956 0.105687 -0.118721 -0.0232816 0.127011 
-0.110395 -0.020585 0.1477 -0.101537 -0.0177454 0.167802 -0.0924369 -0.0148228 0.187379 
-0.0833446 -0.0118931 0.2065 -0.0744471 -0.00904212 0.225223 -0.0658583 -0.00635791 0.243591 
-0.0576172 -0.00392348 0.261626 -0.0496948 -0.00180944 0.279321 -0.0420093 -6.80247e-05 0.296651 
-0.0344462 0.0012711 0.313572 -0.0268824 0.00220283 0.330035 -0.0192083 0.00274614 0.345994 
-0.0113476 0.00294134 0.361413 -0.00327044 0.0028452 0.37628 0.00500096 0.0025247 0.390608 
0.0133946 0.00204992 0.404435 0.0217985 0.00148705 0.417824 0.0300765 0.000892106 0.430854 
0.038087 0.000306153 0.443608 0.045703 -0.000247485 0.456168 0.0528283 -0.000763777 0.468596 
0.0594104 -0.00125426 0.480931 0.0654457 -0.00174331 0.49318 0.0709777 -0.00226288 0.505314 
0.0760881 -0.00284639 0.517273 0.0808824 -0.00352252 0.528968 0.0854715 -0.00430962 0.540293 
0.0899536 -0.00521163 0.551134 0.0943967 -0.00621572 0.561383 0.0988271 -0.0072923 0.570943 
0.103223 -0.00839714 0.579746 0.107518 -0.00947556 0.587748 0.111606 -0.0104682 0.59494 
0.11536 -0.0113174 0.60134 0.118651 -0.0119742 0.60699 0.121363 -0.0124039 0.611947 
0.123417 -0.0125909 0.61628 0.124784 -0.0125411 0.620052 0.125487 -0.0122819 0.623323 
0.125609 -0.0118603 0.626137 0.12528 -0.0113379 0.628524 0.124664 -0.0107855 0.6305 
0.123936 -0.010275 0.632066 0.123266 -0.00987254 0.633218 0.122792 -0.00963101 0.633946 
0.122607 -0.00958478 0.634239 
LINES 2 100
OFFSETS vtktypeint64
0 100 
CONNECTIVITY vtktypeint64
0 1 2 3 4 5 6 7 8 
9 10 11 12 13 14 15 16 17 
18 19 20 21 22 23 24 25 26 
27 28 29 30 31 32 33 34 35 
36 37 38 39 40 41 42 43 44 
45 46 47 48 49 50 51 52 53 
54 55 56 57 58 59 60 61 62 
63 64 65 66 67 68 69 70 71 
72 73 74 75 76 77 78 79 80 
81 82 83 84 85 86 87 88 89 
90 91 92 93 94 95 96 97 98 
99 
POINT_DATA 100
FIELD FieldData 3
_theta 1 100 double
0 0.031733259127 0.063466518254 0.095199777382 0.12693303651 0.15866629564 0.19039955476 0.22213281389 0.25386607302 
0.28559933214 0.31733259127 0.3490658504 0.38079910953 0.41253236865 0.44426562778 0.47599888691 0.50773214603 0.53946540516 
0.57119866429 0.60293192342 0.63466518254 0.66639844167 0.6981317008 0.72986495992 0.76159821905 0.79333147818 0.82506473731 
0.85679799643 0.88853125556 0.92026451469 0.95199777382 0.98373103294 1.0154642921 1.0471975512 1.0789308103 1.1106640695 
1.1423973286 1.1741305877 1.2058638468 1.237597106 1.2693303651 1.3010636242 1.3327968833 1.3645301425 1.3962634016 
1.4279966607 1.4597299198 1.491463179 1.5231964381 1.5549296972 1.5866629564 1.6183962155 1.6501294746 1.6818627337 
1.7135959929 1.745329252 1.7770625111 1.8087957702 1.8405290294 1.8722622885 1.9039955476 1.9357288068 1.9674620659 
1.999195325 2.0309285841 2.0626618433 2.0943951024 2.1261283615 2.1578616206 2.1895948798 2.2213281389 2.253061398 
2.2847946572 2.3165279163 2.3482611754 2.3799944345 2.4117276937 2.4434609528 2.4751942119 2.506927471 2.5386607302 
2.5703939893 2.6021272484 2.6338605076 2.6655937667 2.6973270258 2.7290602849 2.7607935441 2.7925268032 2.8242600623 
2.8559933214 2.8877265806 2.9194598397 2.9511930988 2.982926358 3.0146596171 3.0463928762 3.0781261353 3.1098593945 
3.1415926536 
_radius 1 100 double
4.9183005298e-16 0.014661215908 0.029242897879 0.04366118139 0.057832548885 0.071675411479 0.085112372506 0.098072565466 0.11049322191 
0.12231969401 0.1335035501 0.1439989834 0.15375843755 0.16272883399 0.1708499068 0.17805584707 0.18428079479 0.18946784037 
0.19358029894 0.19661330391 0.19860342282 0.19963414125 0.1998356724 0.19937847986 0.19846093803 0.19729250592 0.19607452457 
0.19498118461 0.19414329514 0.19363715724 0.19348008242 0.19363301174 0.1940095933 0.19449029591 0.19493979809 0.19522588148 
0.19523816538 0.19490498383 0.19420634917 0.19318051921 0.19192200236 0.19057049191 0.18929271948 0.18826133179 0.18763558339 
0.18754745312 0.18809410128 0.18933472559 0.19128867102 0.1939330872 0.19720138924 0.2009856148 0.20514479101 0.20951861144 
0.21394347211 0.21826753418 0.22236246896 0.2261307852 0.22950854747 0.23246387962 0.2349920886 0.23710857738 0.23884085349 
0.24022082444 0.24127825741 0.24203590201 0.24250645301 0.2426913161 0.24258100789 0.24215691606 0.24139403853 0.24026422401 
0.23873937397 0.23679404733 0.23440695588 0.23156101244 0.22824193163 0.22443581272 0.22012647543 0.21529341816 0.20991110117 
0.20394991615 0.19737880361 0.19016909846 0.1822988742 0.17375687191 0.16454510643 0.15467949074 0.14418831299 0.1331090407 
0.12148447664 0.10935945261 0.096778893855 0.083787453245 0.070430412125 0.05675535288 0.042814073359 0.028664159127 0.014369599681 
7.5677157025e-16 
_area 1 100 double
0 0.0005146572699 0.0020616111576 0.004645450454 0.0082599108921 0.012870483345 0.018398600029 0.024714251528 0.031640123995 
0.038965689371 0.046467081213 0.053928068874 0.061157558595 0.067999114579 0.074329208077 0.080045026034 0.085048538254 0.08923670856 
0.092505473136 0.094768764156 0.095986543118 0.096190797315 0.095498100396 0.09410146683 0.09224195024 0.090171886011 0.088127789967 
0.086317911431 0.084914561209 0.084043557001 0.083765964408 0.084051298827 0.084773479408 0.085759202049 0.086845042331 0.087907044027 
0.088866745801 0.08968696231 0.090371720881 0.090974723738 0.09160482907 0.092406413711 0.093493611434 0.094883942462 0.096535599414 
0.09843951823 0.10064994789 0.10322375188 0.10615206372 0.10941685882 0.11303899183 0.1170504794 0.12145277613 0.12619746849 
0.13119139546 0.13630834319 0.14139584942 0.1462814523 0.15078736616 0.15475462717 0.15806827879 0.1606736198 0.16257849257 
0.16384201953 0.16455375579 0.16480925347 0.16468785959 0.16423491302 0.16344689058 0.1622631374 0.16057667678 0.15826670101 
0.15523618353 0.15143912778 0.14689299722 0.1416772098 0.13591896561 0.12976857891 0.12336917563 0.1168282112 0.11019920244 
0.10348010215 0.096629474748 0.089594567369 0.082340493637 0.074870463054 0.067232286148 0.059512251614 0.051821201836 0.044278944395 
0.03700243824 0.030100688232 0.023675754711 0.017826533407 0.012651491003 0.0082481235436 0.0047090171372 0.0021157740237 0.00053246101575 
2.6554737687e-18 
